<?xml version="1.0" encoding="UTF-8" standalone="no"?>
<!DOCTYPE svg PUBLIC "-//W3C//DTD SVG 1.1//EN"
 "http://www.w3.org/Graphics/SVG/1.1/DTD/svg11.dtd">
<!-- Generated by graphviz version 2.47.1 (20210417.1919)
 -->
<!-- Title: G Pages: 1 -->
<svg width="1206pt" height="1202pt"
 viewBox="0.00 0.00 1206.00 1201.75" xmlns="http://www.w3.org/2000/svg" xmlns:xlink="http://www.w3.org/1999/xlink">
<g id="graph0" class="graph" transform="scale(1 1) rotate(0) translate(4 1197.75)">
<title>G</title>
<polygon fill="white" stroke="transparent" points="-4,4 -4,-1197.75 1202,-1197.75 1202,4 -4,4"/>
<text text-anchor="middle" x="599" y="-13.4" font-family="Times,serif" font-size="32.00">decomposition: wills =v +k t, willd =v +k t</text>
<!-- t -->
<g id="node1" class="node">
<title>t</title>
<ellipse fill="lightgray" stroke="black" cx="27" cy="-695.75" rx="27" ry="30.31"/>
<text text-anchor="middle" x="27" y="-687.65" font-family="Times,serif" font-size="32.00">t</text>
</g>
<!-- z0 -->
<g id="node2" class="node">
<title>z0</title>
<ellipse fill="none" stroke="black" stroke-dasharray="5,2" cx="1171" cy="-435.75" rx="27" ry="18"/>
</g>
<!-- d -->
<g id="node3" class="node">
<title>d</title>
<ellipse fill="none" stroke="black" cx="1011" cy="-435.75" rx="27" ry="30.31"/>
<text text-anchor="middle" x="1011" y="-427.65" font-family="Times,serif" font-size="32.00">d</text>
</g>
<!-- z0&#45;&gt;d -->
<g id="edge1" class="edge">
<title>z0&#45;&gt;d</title>
<path fill="none" stroke="#000000" d="M1143.91,-435.75C1117.84,-435.75 1077.53,-435.75 1048.34,-435.75"/>
<polygon fill="#000000" stroke="#000000" points="1048.13,-432.25 1038.13,-435.75 1048.13,-439.25 1048.13,-432.25"/>
<text text-anchor="middle" x="1091" y="-480.15" font-family="Times,serif" font-size="32.00">Mary</text>
<text text-anchor="middle" x="1091" y="-445.15" font-family="Times,serif" font-size="32.00">d &#45;k</text>
</g>
<!-- d&#45;&gt;t -->
<g id="edge9" class="edge">
<title>d&#45;&gt;t</title>
<path fill="none" stroke="#000000" d="M1010.56,-466.39C1011.5,-549.93 1009.92,-779.31 966,-837.75 852.51,-988.79 758.33,-963.05 573,-999.75 343.44,-1045.21 223.66,-1015.97 72,-837.75 47.58,-809.05 36.7,-766.9 31.86,-735.98"/>
<polygon fill="#000000" stroke="#000000" points="35.31,-735.37 30.44,-725.96 28.38,-736.35 35.31,-735.37"/>
<text text-anchor="middle" x="485.5" y="-1168.15" font-family="Times,serif" font-size="32.00">laughs |</text>
<text text-anchor="middle" x="485.5" y="-1133.15" font-family="Times,serif" font-size="32.00"> laughd |</text>
<text text-anchor="middle" x="485.5" y="-1098.15" font-family="Times,serif" font-size="32.00"> dances |</text>
<text text-anchor="middle" x="485.5" y="-1063.15" font-family="Times,serif" font-size="32.00"> danced</text>
<text text-anchor="middle" x="485.5" y="-1028.15" font-family="Times,serif" font-size="32.00">=d +k t</text>
</g>
<!-- d&#45;&gt;t -->
<g id="edge13" class="edge">
<title>d&#45;&gt;t</title>
<path fill="none" stroke="#000000" d="M1003.79,-465.33C997.09,-493.42 984.81,-536.22 966,-569.75 898.9,-689.37 890.5,-747.22 766,-804.75 695.91,-837.13 137.16,-811.16 72,-769.75 58.57,-761.22 48.7,-746.99 41.76,-733.27"/>
<polygon fill="#000000" stroke="#000000" points="44.8,-731.52 37.41,-723.94 38.46,-734.48 44.8,-731.52"/>
<text text-anchor="middle" x="485.5" y="-968.15" font-family="Times,serif" font-size="32.00">hugs |</text>
<text text-anchor="middle" x="485.5" y="-933.15" font-family="Times,serif" font-size="32.00"> hugd |</text>
<text text-anchor="middle" x="485.5" y="-898.15" font-family="Times,serif" font-size="32.00"> praises |</text>
<text text-anchor="middle" x="485.5" y="-863.15" font-family="Times,serif" font-size="32.00"> praised</text>
<text text-anchor="middle" x="485.5" y="-828.15" font-family="Times,serif" font-size="32.00">=d *k =d +k t</text>
</g>
<!-- perf -->
<g id="node6" class="node">
<title>perf</title>
<ellipse fill="none" stroke="black" cx="312" cy="-530.75" rx="48.17" ry="30.31"/>
<text text-anchor="middle" x="312" y="-522.65" font-family="Times,serif" font-size="32.00">perf</text>
</g>
<!-- d&#45;&gt;perf -->
<g id="edge12" class="edge">
<title>d&#45;&gt;perf</title>
<path fill="none" stroke="#000000" d="M998.61,-463.09C991.14,-478.36 980.14,-496.86 966,-509.75 893.26,-576.02 862,-583.11 766,-604.75 620.37,-637.58 445.3,-582.73 361.86,-550.95"/>
<polygon fill="#000000" stroke="#000000" points="362.98,-547.63 352.39,-547.29 360.45,-554.16 362.98,-547.63"/>
<text text-anchor="middle" x="678.5" y="-695.15" font-family="Times,serif" font-size="32.00">laughn |</text>
<text text-anchor="middle" x="678.5" y="-660.15" font-family="Times,serif" font-size="32.00"> dancen</text>
<text text-anchor="middle" x="678.5" y="-625.15" font-family="Times,serif" font-size="32.00">=d perf</text>
</g>
<!-- d&#45;&gt;perf -->
<g id="edge16" class="edge">
<title>d&#45;&gt;perf</title>
<path fill="none" stroke="#000000" d="M993.8,-459.19C986.42,-467.9 976.89,-476.86 966,-481.75 927.97,-498.84 632.56,-492.36 591,-495.75 513.86,-502.03 425.23,-514.02 369.18,-522.2"/>
<polygon fill="#000000" stroke="#000000" points="368.49,-518.77 359.11,-523.68 369.51,-525.69 368.49,-518.77"/>
<text text-anchor="middle" x="678.5" y="-575.15" font-family="Times,serif" font-size="32.00">hugn |</text>
<text text-anchor="middle" x="678.5" y="-540.15" font-family="Times,serif" font-size="32.00"> praisen</text>
<text text-anchor="middle" x="678.5" y="-505.15" font-family="Times,serif" font-size="32.00">=d *k =d perf</text>
</g>
<!-- v -->
<g id="node7" class="node">
<title>v</title>
<ellipse fill="none" stroke="black" cx="27" cy="-243.75" rx="27" ry="30.31"/>
<text text-anchor="middle" x="27" y="-235.65" font-family="Times,serif" font-size="32.00">v</text>
</g>
<!-- d&#45;&gt;v -->
<g id="edge10" class="edge">
<title>d&#45;&gt;v</title>
<path fill="none" stroke="#000000" d="M1007.65,-405.27C1003.08,-355.05 991.19,-258.33 966,-236.75 870.05,-154.55 524.3,-208.46 398,-211.75 252.96,-215.53 214.47,-201.3 72,-228.75 68.93,-229.34 65.78,-230.1 62.65,-230.95"/>
<polygon fill="#000000" stroke="#000000" points="61.35,-227.69 52.81,-233.96 63.39,-234.39 61.35,-227.69"/>
<text text-anchor="middle" x="485.5" y="-291.15" font-family="Times,serif" font-size="32.00">laugh |</text>
<text text-anchor="middle" x="485.5" y="-256.15" font-family="Times,serif" font-size="32.00"> dance</text>
<text text-anchor="middle" x="485.5" y="-221.15" font-family="Times,serif" font-size="32.00">=d v</text>
</g>
<!-- d&#45;&gt;v -->
<g id="edge14" class="edge">
<title>d&#45;&gt;v</title>
<path fill="none" stroke="#000000" d="M1008.61,-405.19C1005.29,-346.2 994.92,-219.7 966,-188.75 843.12,-57.2 751.67,-112.69 573,-90.75 346.05,-62.88 270.98,-95.1 72,-207.75 66.72,-210.74 61.43,-214.37 56.45,-218.16"/>
<polygon fill="#000000" stroke="#000000" points="54.03,-215.62 48.42,-224.61 58.41,-221.08 54.03,-215.62"/>
<text text-anchor="middle" x="485.5" y="-170.15" font-family="Times,serif" font-size="32.00">hug |</text>
<text text-anchor="middle" x="485.5" y="-135.15" font-family="Times,serif" font-size="32.00"> praise</text>
<text text-anchor="middle" x="485.5" y="-100.15" font-family="Times,serif" font-size="32.00">=d *k =d v</text>
</g>
<!-- prog -->
<g id="node8" class="node">
<title>prog</title>
<ellipse fill="none" stroke="black" cx="678.5" cy="-375.75" rx="52.15" ry="30.31"/>
<text text-anchor="middle" x="678.5" y="-367.65" font-family="Times,serif" font-size="32.00">prog</text>
</g>
<!-- d&#45;&gt;prog -->
<g id="edge11" class="edge">
<title>d&#45;&gt;prog</title>
<path fill="none" stroke="#000000" d="M997.53,-409.33C990.22,-397.04 979.69,-383.65 966,-376.75 928,-357.6 812.83,-363.6 740.61,-369.69"/>
<polygon fill="#000000" stroke="#000000" points="739.94,-366.23 730.28,-370.58 740.55,-373.21 739.94,-366.23"/>
<text text-anchor="middle" x="875" y="-456.15" font-family="Times,serif" font-size="32.00">laughing |</text>
<text text-anchor="middle" x="875" y="-421.15" font-family="Times,serif" font-size="32.00"> danceing</text>
<text text-anchor="middle" x="875" y="-386.15" font-family="Times,serif" font-size="32.00">=d prog</text>
</g>
<!-- d&#45;&gt;prog -->
<g id="edge15" class="edge">
<title>d&#45;&gt;prog</title>
<path fill="none" stroke="#000000" d="M1007.04,-405.38C1001.83,-359.02 989.28,-274.02 966,-255.75 934.19,-230.78 820.81,-238.99 784,-255.75 747.09,-272.55 718.14,-309.55 700.17,-338.05"/>
<polygon fill="#000000" stroke="#000000" points="697.18,-336.24 694.95,-346.59 703.15,-339.89 697.18,-336.24"/>
<text text-anchor="middle" x="875" y="-335.15" font-family="Times,serif" font-size="32.00">huging |</text>
<text text-anchor="middle" x="875" y="-300.15" font-family="Times,serif" font-size="32.00"> praiseing</text>
<text text-anchor="middle" x="875" y="-265.15" font-family="Times,serif" font-size="32.00">=d *k =d prog</text>
</g>
<!-- 0 -->
<g id="node4" class="node">
<title>0</title>
<ellipse fill="none" stroke="black" cx="312" cy="-695.75" rx="27" ry="30.31"/>
<text text-anchor="middle" x="312" y="-687.65" font-family="Times,serif" font-size="32.00">0</text>
</g>
<!-- 0&#45;&gt;t -->
<g id="edge2" class="edge">
<title>0&#45;&gt;t</title>
<path fill="none" stroke="#f7931d" stroke-width="2" d="M284.88,-695.75C234.13,-695.75 122.1,-695.75 64.21,-695.75"/>
<polygon fill="#f7931d" stroke="#f7931d" stroke-width="2" points="64.05,-692.25 54.05,-695.75 64.05,-699.25 64.05,-692.25"/>
<text text-anchor="middle" x="149" y="-740.15" font-family="Times,serif" font-size="32.00">ε_0</text>
<text text-anchor="middle" x="149" y="-705.15" font-family="Times,serif" font-size="32.00">=&gt;0 =v +k t</text>
</g>
<!-- z1 -->
<g id="node5" class="node">
<title>z1</title>
<ellipse fill="none" stroke="black" stroke-dasharray="5,2" cx="678.5" cy="-777.75" rx="27" ry="18"/>
</g>
<!-- z1&#45;&gt;0 -->
<g id="edge3" class="edge">
<title>z1&#45;&gt;0</title>
<path fill="none" stroke="#f7931d" stroke-width="2" d="M651.67,-774.11C632.62,-770.16 607.29,-762.07 591,-745.75 574.61,-729.32 592,-710.06 573,-696.75 505.28,-649.29 401.34,-669.24 347.7,-684.43"/>
<polygon fill="#f7931d" stroke="#f7931d" stroke-width="2" points="346.58,-681.11 337.97,-687.29 348.55,-687.82 346.58,-681.11"/>
<text text-anchor="middle" x="485.5" y="-776.15" font-family="Times,serif" font-size="32.00">wills |</text>
<text text-anchor="middle" x="485.5" y="-741.15" font-family="Times,serif" font-size="32.00"> willd</text>
<text text-anchor="middle" x="485.5" y="-706.15" font-family="Times,serif" font-size="32.00">0</text>
</g>
<!-- perf&#45;&gt;t -->
<g id="edge4" class="edge">
<title>perf&#45;&gt;t</title>
<path fill="none" stroke="#000000" d="M263.54,-529.56C210.77,-530.77 125.87,-540.57 72,-586.75 51.62,-604.22 40.57,-632.51 34.64,-655.89"/>
<polygon fill="#000000" stroke="#000000" points="31.17,-655.37 32.33,-665.9 37.99,-656.94 31.17,-655.37"/>
<text text-anchor="middle" x="149" y="-666.15" font-family="Times,serif" font-size="32.00">haves |</text>
<text text-anchor="middle" x="149" y="-631.15" font-family="Times,serif" font-size="32.00"> haved</text>
<text text-anchor="middle" x="149" y="-596.15" font-family="Times,serif" font-size="32.00">=perf +k t</text>
</g>
<!-- perf&#45;&gt;v -->
<g id="edge5" class="edge">
<title>perf&#45;&gt;v</title>
<path fill="none" stroke="#000000" d="M275.18,-511.13C264.44,-504.27 253.11,-495.94 244,-486.75 233.59,-476.24 235.04,-470.46 226,-458.75 170.3,-386.66 95.35,-309.94 55.54,-270.54"/>
<polygon fill="#000000" stroke="#000000" points="57.64,-267.7 48.06,-263.17 52.72,-272.68 57.64,-267.7"/>
<text text-anchor="middle" x="149" y="-503.15" font-family="Times,serif" font-size="32.00">have</text>
<text text-anchor="middle" x="149" y="-468.15" font-family="Times,serif" font-size="32.00">=perf v</text>
</g>
<!-- prog&#45;&gt;t -->
<g id="edge6" class="edge">
<title>prog&#45;&gt;t</title>
<path fill="none" stroke="#000000" d="M625.93,-373.39C487.03,-367.54 112.82,-355.36 72,-391.75 33.77,-425.82 28.14,-579.87 27.71,-654.7"/>
<polygon fill="#000000" stroke="#000000" points="24.21,-655.13 27.68,-665.14 31.21,-655.15 24.21,-655.13"/>
<text text-anchor="middle" x="312" y="-447.15" font-family="Times,serif" font-size="32.00">bes |</text>
<text text-anchor="middle" x="312" y="-412.15" font-family="Times,serif" font-size="32.00"> bed</text>
<text text-anchor="middle" x="312" y="-377.15" font-family="Times,serif" font-size="32.00">=prog +k t</text>
</g>
<!-- prog&#45;&gt;perf -->
<g id="edge8" class="edge">
<title>prog&#45;&gt;perf</title>
<path fill="none" stroke="#000000" d="M627.12,-382.06C546.92,-392.13 399.06,-410.8 398,-411.75 372.49,-434.65 399.71,-458.7 380,-486.75 374.53,-494.52 367.22,-501.28 359.42,-507.01"/>
<polygon fill="#000000" stroke="#000000" points="357.16,-504.32 350.85,-512.83 361.09,-510.11 357.16,-504.32"/>
<text text-anchor="middle" x="485.5" y="-456.15" font-family="Times,serif" font-size="32.00">ben</text>
<text text-anchor="middle" x="485.5" y="-421.15" font-family="Times,serif" font-size="32.00">=prog perf</text>
</g>
<!-- prog&#45;&gt;v -->
<g id="edge7" class="edge">
<title>prog&#45;&gt;v</title>
<path fill="none" stroke="#000000" d="M627.62,-368.34C552.24,-356.79 416.15,-334.41 398,-320.75 384.02,-310.23 394.36,-295.73 380,-285.75 282.61,-218.08 132.4,-228.48 64.07,-237.77"/>
<polygon fill="#000000" stroke="#000000" points="63.22,-234.35 53.82,-239.24 64.22,-241.28 63.22,-234.35"/>
<text text-anchor="middle" x="312" y="-330.15" font-family="Times,serif" font-size="32.00">be</text>
<text text-anchor="middle" x="312" y="-295.15" font-family="Times,serif" font-size="32.00">=prog v</text>
</g>
</g>
</svg>
