<?xml version="1.0" encoding="UTF-8" standalone="no"?>
<!DOCTYPE svg PUBLIC "-//W3C//DTD SVG 1.1//EN"
 "http://www.w3.org/Graphics/SVG/1.1/DTD/svg11.dtd">
<!-- Generated by graphviz version 2.47.1 (20210417.1919)
 -->
<!-- Title: G Pages: 1 -->
<svg width="1530pt" height="1168pt"
 viewBox="0.00 0.00 1530.00 1168.00" xmlns="http://www.w3.org/2000/svg" xmlns:xlink="http://www.w3.org/1999/xlink">
<g id="graph0" class="graph" transform="scale(1 1) rotate(0) translate(4 1164)">
<title>G</title>
<polygon fill="white" stroke="transparent" points="-4,4 -4,-1164 1526,-1164 1526,4 -4,4"/>
<text text-anchor="middle" x="761" y="-13.4" font-family="Times,serif" font-size="32.00">decomposition: have =perf 1, have =perf 2, have =perf v</text>
<!-- t -->
<g id="node1" class="node">
<title>t</title>
<ellipse fill="lightgray" stroke="black" cx="27" cy="-847" rx="27" ry="30.31"/>
<text text-anchor="middle" x="27" y="-838.9" font-family="Times,serif" font-size="32.00">t</text>
</g>
<!-- z0 -->
<g id="node2" class="node">
<title>z0</title>
<ellipse fill="none" stroke="black" stroke-dasharray="5,2" cx="1495" cy="-582" rx="27" ry="18"/>
</g>
<!-- d -->
<g id="node3" class="node">
<title>d</title>
<ellipse fill="none" stroke="black" cx="1335" cy="-582" rx="27" ry="30.31"/>
<text text-anchor="middle" x="1335" y="-573.9" font-family="Times,serif" font-size="32.00">d</text>
</g>
<!-- z0&#45;&gt;d -->
<g id="edge1" class="edge">
<title>z0&#45;&gt;d</title>
<path fill="none" stroke="#000000" d="M1467.91,-582C1441.84,-582 1401.53,-582 1372.34,-582"/>
<polygon fill="#000000" stroke="#000000" points="1372.13,-578.5 1362.13,-582 1372.13,-585.5 1372.13,-578.5"/>
<text text-anchor="middle" x="1415" y="-626.4" font-family="Times,serif" font-size="32.00">Mary</text>
<text text-anchor="middle" x="1415" y="-591.4" font-family="Times,serif" font-size="32.00">d &#45;k</text>
</g>
<!-- 1 -->
<g id="node6" class="node">
<title>1</title>
<ellipse fill="none" stroke="black" cx="271" cy="-847" rx="27" ry="30.31"/>
<text text-anchor="middle" x="271" y="-838.9" font-family="Times,serif" font-size="32.00">1</text>
</g>
<!-- d&#45;&gt;1 -->
<g id="edge14" class="edge">
<title>d&#45;&gt;1</title>
<path fill="none" stroke="#000000" d="M1332.42,-612.56C1327.79,-697.17 1313.04,-929.9 1290,-955 1202.09,-1050.78 1133.51,-1014 1003.5,-1014 1003.5,-1014 1003.5,-1014 439,-1014 365.62,-1014 313.22,-932.38 288.33,-883.26"/>
<polygon fill="#000000" stroke="#000000" points="291.42,-881.62 283.86,-874.2 285.15,-884.72 291.42,-881.62"/>
<text text-anchor="middle" x="673" y="-1093.4" font-family="Times,serif" font-size="32.00">laugh |</text>
<text text-anchor="middle" x="673" y="-1058.4" font-family="Times,serif" font-size="32.00"> dance</text>
<text text-anchor="middle" x="673" y="-1023.4" font-family="Times,serif" font-size="32.00">=d 1</text>
</g>
<!-- d&#45;&gt;1 -->
<g id="edge19" class="edge">
<title>d&#45;&gt;1</title>
<path fill="none" stroke="#000000" d="M1331.41,-612.34C1327.26,-647.05 1316.65,-704.43 1290,-746 1227.66,-843.25 1198.66,-872.78 1090,-912 1016.84,-938.41 992.58,-917.61 915,-912 837.95,-906.43 819.74,-895.83 743,-887 581.43,-868.41 387.75,-854.63 308.5,-849.36"/>
<polygon fill="#000000" stroke="#000000" points="308.3,-845.83 298.09,-848.67 307.84,-852.82 308.3,-845.83"/>
<text text-anchor="middle" x="673" y="-966.4" font-family="Times,serif" font-size="32.00">hug |</text>
<text text-anchor="middle" x="673" y="-931.4" font-family="Times,serif" font-size="32.00"> praise</text>
<text text-anchor="middle" x="673" y="-896.4" font-family="Times,serif" font-size="32.00">=d *k =d 1</text>
</g>
<!-- perf -->
<g id="node8" class="node">
<title>perf</title>
<ellipse fill="none" stroke="black" cx="673" cy="-772" rx="48.17" ry="30.31"/>
<text text-anchor="middle" x="673" y="-763.9" font-family="Times,serif" font-size="32.00">perf</text>
</g>
<!-- d&#45;&gt;perf -->
<g id="edge18" class="edge">
<title>d&#45;&gt;perf</title>
<path fill="none" stroke="#000000" d="M1324.07,-609.92C1317.04,-625.35 1305.99,-643.3 1290,-653 1147.11,-739.68 1051,-583.86 915,-681 898.47,-692.8 912.65,-710.06 897,-723 850.52,-761.45 780.5,-771.5 731.35,-773.33"/>
<polygon fill="#000000" stroke="#000000" points="731.1,-769.84 721.2,-773.6 731.29,-776.83 731.1,-769.84"/>
<text text-anchor="middle" x="1002.5" y="-760.4" font-family="Times,serif" font-size="32.00">laughn |</text>
<text text-anchor="middle" x="1002.5" y="-725.4" font-family="Times,serif" font-size="32.00"> dancen</text>
<text text-anchor="middle" x="1002.5" y="-690.4" font-family="Times,serif" font-size="32.00">=d perf</text>
</g>
<!-- d&#45;&gt;perf -->
<g id="edge23" class="edge">
<title>d&#45;&gt;perf</title>
<path fill="none" stroke="#000000" d="M1326.6,-611.37C1319.96,-632.78 1308.39,-661.37 1290,-681 1221.36,-754.27 1187.48,-761.97 1090,-786 963.67,-817.15 809.27,-797.56 728.76,-783.19"/>
<polygon fill="#000000" stroke="#000000" points="729.32,-779.73 718.85,-781.38 728.06,-786.62 729.32,-779.73"/>
<text text-anchor="middle" x="1002.5" y="-882.4" font-family="Times,serif" font-size="32.00">hugn |</text>
<text text-anchor="middle" x="1002.5" y="-847.4" font-family="Times,serif" font-size="32.00"> praisen</text>
<text text-anchor="middle" x="1002.5" y="-812.4" font-family="Times,serif" font-size="32.00">=d *k =d perf</text>
</g>
<!-- 3 -->
<g id="node9" class="node">
<title>3</title>
<ellipse fill="none" stroke="black" cx="271" cy="-619" rx="27" ry="30.31"/>
<text text-anchor="middle" x="271" y="-610.9" font-family="Times,serif" font-size="32.00">3</text>
</g>
<!-- d&#45;&gt;3 -->
<g id="edge15" class="edge">
<title>d&#45;&gt;3</title>
<path fill="none" stroke="#000000" d="M1332.08,-551.38C1328.11,-499.26 1316.98,-396.85 1290,-375 1279.19,-366.24 359.66,-353.23 316,-390 287.88,-413.68 277.52,-519 273.86,-578.21"/>
<polygon fill="#000000" stroke="#000000" points="270.36,-578.17 273.28,-588.35 277.35,-578.57 270.36,-578.17"/>
<text text-anchor="middle" x="673" y="-447.4" font-family="Times,serif" font-size="32.00">laugh_1 |</text>
<text text-anchor="middle" x="673" y="-412.4" font-family="Times,serif" font-size="32.00"> dance_1</text>
<text text-anchor="middle" x="673" y="-377.4" font-family="Times,serif" font-size="32.00">=d 3</text>
</g>
<!-- d&#45;&gt;3 -->
<g id="edge20" class="edge">
<title>d&#45;&gt;3</title>
<path fill="none" stroke="#000000" d="M1317.89,-605.64C1310.52,-614.39 1300.98,-623.31 1290,-628 1215.62,-659.78 1188.89,-628.44 1108,-628 798.35,-626.33 424.21,-621.19 308.11,-619.53"/>
<polygon fill="#000000" stroke="#000000" points="308.05,-616.03 298,-619.38 307.95,-623.03 308.05,-616.03"/>
<text text-anchor="middle" x="673" y="-704.4" font-family="Times,serif" font-size="32.00">hug_1 |</text>
<text text-anchor="middle" x="673" y="-669.4" font-family="Times,serif" font-size="32.00"> praise_1</text>
<text text-anchor="middle" x="673" y="-634.4" font-family="Times,serif" font-size="32.00">=d *k =d 3</text>
</g>
<!-- v -->
<g id="node10" class="node">
<title>v</title>
<ellipse fill="none" stroke="black" cx="271" cy="-263" rx="27" ry="30.31"/>
<text text-anchor="middle" x="271" y="-254.9" font-family="Times,serif" font-size="32.00">v</text>
</g>
<!-- d&#45;&gt;v -->
<g id="edge16" class="edge">
<title>d&#45;&gt;v</title>
<path fill="none" stroke="#000000" d="M1331.19,-551.8C1325.76,-499.08 1312.34,-393.09 1290,-364 1203.44,-251.29 1145.62,-222 1003.5,-222 1003.5,-222 1003.5,-222 439,-222 392.06,-222 339.78,-237.47 306.43,-249.4"/>
<polygon fill="#000000" stroke="#000000" points="304.89,-246.24 296.71,-252.97 307.31,-252.81 304.89,-246.24"/>
<text text-anchor="middle" x="673" y="-301.4" font-family="Times,serif" font-size="32.00">laugh_2 |</text>
<text text-anchor="middle" x="673" y="-266.4" font-family="Times,serif" font-size="32.00"> dance_2</text>
<text text-anchor="middle" x="673" y="-231.4" font-family="Times,serif" font-size="32.00">=d v</text>
</g>
<!-- d&#45;&gt;v -->
<g id="edge21" class="edge">
<title>d&#45;&gt;v</title>
<path fill="none" stroke="#000000" d="M1333.78,-551.37C1332.69,-475.25 1326.33,-279.96 1290,-228 1207.99,-110.71 1146.62,-81 1003.5,-81 1003.5,-81 1003.5,-81 439,-81 361.08,-81 309.65,-172.68 286.35,-225.9"/>
<polygon fill="#000000" stroke="#000000" points="283.02,-224.79 282.33,-235.36 289.46,-227.53 283.02,-224.79"/>
<text text-anchor="middle" x="673" y="-160.4" font-family="Times,serif" font-size="32.00">hug_2 |</text>
<text text-anchor="middle" x="673" y="-125.4" font-family="Times,serif" font-size="32.00"> praise_2</text>
<text text-anchor="middle" x="673" y="-90.4" font-family="Times,serif" font-size="32.00">=d *k =d v</text>
</g>
<!-- prog -->
<g id="node11" class="node">
<title>prog</title>
<ellipse fill="none" stroke="black" cx="1002.5" cy="-528" rx="52.15" ry="30.31"/>
<text text-anchor="middle" x="1002.5" y="-519.9" font-family="Times,serif" font-size="32.00">prog</text>
</g>
<!-- d&#45;&gt;prog -->
<g id="edge17" class="edge">
<title>d&#45;&gt;prog</title>
<path fill="none" stroke="#000000" d="M1331.34,-551.63C1326.46,-503.76 1314.25,-414.21 1290,-395 1258.3,-369.89 1144.38,-377.32 1108,-395 1067.98,-414.45 1038.72,-457.48 1021.51,-489.36"/>
<polygon fill="#000000" stroke="#000000" points="1018.29,-487.95 1016.76,-498.44 1024.5,-491.19 1018.29,-487.95"/>
<text text-anchor="middle" x="1199" y="-474.4" font-family="Times,serif" font-size="32.00">laughing |</text>
<text text-anchor="middle" x="1199" y="-439.4" font-family="Times,serif" font-size="32.00"> danceing</text>
<text text-anchor="middle" x="1199" y="-404.4" font-family="Times,serif" font-size="32.00">=d prog</text>
</g>
<!-- d&#45;&gt;prog -->
<g id="edge22" class="edge">
<title>d&#45;&gt;prog</title>
<path fill="none" stroke="#000000" d="M1321.54,-555.56C1314.23,-543.27 1303.71,-529.88 1290,-523 1251.86,-503.86 1136.16,-512.62 1064,-520.48"/>
<polygon fill="#000000" stroke="#000000" points="1063.23,-517.05 1053.68,-521.63 1064,-524 1063.23,-517.05"/>
<text text-anchor="middle" x="1199" y="-602.4" font-family="Times,serif" font-size="32.00">huging |</text>
<text text-anchor="middle" x="1199" y="-567.4" font-family="Times,serif" font-size="32.00"> praiseing</text>
<text text-anchor="middle" x="1199" y="-532.4" font-family="Times,serif" font-size="32.00">=d *k =d prog</text>
</g>
<!-- 0 -->
<g id="node4" class="node">
<title>0</title>
<ellipse fill="none" stroke="black" cx="271" cy="-1042" rx="27" ry="30.31"/>
<text text-anchor="middle" x="271" y="-1033.9" font-family="Times,serif" font-size="32.00">0</text>
</g>
<!-- 0&#45;&gt;t -->
<g id="edge2" class="edge">
<title>0&#45;&gt;t</title>
<path fill="none" stroke="#000000" d="M245.5,-1031.76C205.32,-1014.03 124.66,-974.3 72,-921 61.18,-910.05 51.94,-895.93 44.77,-882.97"/>
<polygon fill="#000000" stroke="#000000" points="47.69,-880.99 39.92,-873.79 41.5,-884.27 47.69,-880.99"/>
<text text-anchor="middle" x="149" y="-1066.4" font-family="Times,serif" font-size="32.00">ε_0</text>
<text text-anchor="middle" x="149" y="-1031.4" font-family="Times,serif" font-size="32.00">=&gt;0 =v +k t</text>
</g>
<!-- z1 -->
<g id="node5" class="node">
<title>z1</title>
<ellipse fill="none" stroke="black" stroke-dasharray="5,2" cx="440" cy="-1060" rx="27" ry="18"/>
</g>
<!-- z1&#45;&gt;0 -->
<g id="edge3" class="edge">
<title>z1&#45;&gt;0</title>
<path fill="none" stroke="#000000" d="M413.27,-1057.23C385.16,-1054.2 339.91,-1049.32 308.22,-1045.9"/>
<polygon fill="#000000" stroke="#000000" points="308.35,-1042.4 298.03,-1044.81 307.6,-1049.36 308.35,-1042.4"/>
<text text-anchor="middle" x="355.5" y="-1134.4" font-family="Times,serif" font-size="32.00">wills |</text>
<text text-anchor="middle" x="355.5" y="-1099.4" font-family="Times,serif" font-size="32.00"> willd</text>
<text text-anchor="middle" x="355.5" y="-1064.4" font-family="Times,serif" font-size="32.00">0</text>
</g>
<!-- 1&#45;&gt;t -->
<g id="edge4" class="edge">
<title>1&#45;&gt;t</title>
<path fill="none" stroke="#000000" d="M243.64,-847C200.27,-847 113.78,-847 64.53,-847"/>
<polygon fill="#000000" stroke="#000000" points="64.33,-843.5 54.33,-847 64.33,-850.5 64.33,-843.5"/>
<text text-anchor="middle" x="149" y="-891.4" font-family="Times,serif" font-size="32.00">s</text>
<text text-anchor="middle" x="149" y="-856.4" font-family="Times,serif" font-size="32.00">=&gt;1 +k t</text>
</g>
<!-- 2 -->
<g id="node7" class="node">
<title>2</title>
<ellipse fill="none" stroke="black" cx="440" cy="-686" rx="27" ry="30.31"/>
<text text-anchor="middle" x="440" y="-677.9" font-family="Times,serif" font-size="32.00">2</text>
</g>
<!-- 2&#45;&gt;1 -->
<g id="edge5" class="edge">
<title>2&#45;&gt;1</title>
<path fill="none" stroke="#f7931d" stroke-width="2" d="M419.26,-705.61C412.09,-711.88 403.62,-718.39 395,-723 362.76,-740.25 343.45,-721.84 316,-746 297.9,-761.93 286.96,-786.65 280.51,-807.65"/>
<polygon fill="#f7931d" stroke="#f7931d" stroke-width="2" points="277.14,-806.72 277.78,-817.3 283.87,-808.63 277.14,-806.72"/>
<text text-anchor="middle" x="355.5" y="-790.4" font-family="Times,serif" font-size="32.00">ε_1</text>
<text text-anchor="middle" x="355.5" y="-755.4" font-family="Times,serif" font-size="32.00">=&gt;2 1</text>
</g>
<!-- 2&#45;&gt;3 -->
<g id="edge8" class="edge">
<title>2&#45;&gt;3</title>
<path fill="none" stroke="#f7931d" stroke-width="2" d="M418.12,-667.83C411.13,-662.46 403.06,-656.96 395,-653 387.03,-649.08 340.75,-636.73 307.31,-628.04"/>
<polygon fill="#f7931d" stroke="#f7931d" stroke-width="2" points="307.95,-624.6 297.4,-625.48 306.2,-631.37 307.95,-624.6"/>
<text text-anchor="middle" x="355.5" y="-697.4" font-family="Times,serif" font-size="32.00">ε_2</text>
<text text-anchor="middle" x="355.5" y="-662.4" font-family="Times,serif" font-size="32.00">=&gt;2 3</text>
</g>
<!-- 2&#45;&gt;v -->
<g id="edge9" class="edge">
<title>2&#45;&gt;v</title>
<path fill="none" stroke="#f7931d" stroke-width="2" d="M429.93,-657.62C421.39,-631.35 408.01,-591.29 395,-557 359.37,-463.05 312.4,-354.45 288.1,-299.26"/>
<polygon fill="#f7931d" stroke="#f7931d" stroke-width="2" points="291.22,-297.65 283.98,-289.91 284.81,-300.47 291.22,-297.65"/>
<text text-anchor="middle" x="355.5" y="-601.4" font-family="Times,serif" font-size="32.00">ε_3</text>
<text text-anchor="middle" x="355.5" y="-566.4" font-family="Times,serif" font-size="32.00">=&gt;2 v</text>
</g>
<!-- perf&#45;&gt;2 -->
<g id="edge6" class="edge">
<title>perf&#45;&gt;2</title>
<path fill="none" stroke="#f7931d" stroke-width="2" d="M634.95,-753.23C623.76,-746.36 612.05,-737.82 603,-728 591.41,-715.43 599.4,-703.22 585,-694 552.8,-673.37 507.76,-674.51 476.67,-678.79"/>
<polygon fill="#f7931d" stroke="#f7931d" stroke-width="2" points="476.05,-675.34 466.7,-680.33 477.12,-682.26 476.05,-675.34"/>
<text text-anchor="middle" x="535" y="-738.4" font-family="Times,serif" font-size="32.00">have</text>
<text text-anchor="middle" x="535" y="-703.4" font-family="Times,serif" font-size="32.00">=perf 2</text>
</g>
<!-- 3&#45;&gt;t -->
<g id="edge7" class="edge">
<title>3&#45;&gt;t</title>
<path fill="none" stroke="#000000" d="M246.66,-633.03C207.13,-657.63 126.03,-711.78 72,-773 61.89,-784.45 52.84,-798.55 45.62,-811.36"/>
<polygon fill="#000000" stroke="#000000" points="42.4,-809.95 40.69,-820.41 48.55,-813.3 42.4,-809.95"/>
<text text-anchor="middle" x="149" y="-817.4" font-family="Times,serif" font-size="32.00">d</text>
<text text-anchor="middle" x="149" y="-782.4" font-family="Times,serif" font-size="32.00">=&gt;3 +k t</text>
</g>
<!-- prog&#45;&gt;1 -->
<g id="edge10" class="edge">
<title>prog&#45;&gt;1</title>
<path fill="none" stroke="#000000" d="M950.15,-529.47C853.36,-533.38 649.47,-547.45 603,-597 551.93,-651.45 634.03,-707.71 585,-764 554.91,-798.54 529.17,-776.86 485,-789 444.73,-800.07 435.26,-804.89 395,-816 365.65,-824.1 332.13,-832.49 307.5,-838.5"/>
<polygon fill="#000000" stroke="#000000" points="306.42,-835.16 297.53,-840.92 308.07,-841.96 306.42,-835.16"/>
<text text-anchor="middle" x="535" y="-833.4" font-family="Times,serif" font-size="32.00">be</text>
<text text-anchor="middle" x="535" y="-798.4" font-family="Times,serif" font-size="32.00">=prog 1</text>
</g>
<!-- prog&#45;&gt;perf -->
<g id="edge13" class="edge">
<title>prog&#45;&gt;perf</title>
<path fill="none" stroke="#000000" d="M965.05,-549.31C945.11,-560.79 919.88,-575 897,-587 837.5,-618.2 803.1,-600.64 761,-653 739.52,-679.71 762.9,-700.09 743,-728 737.19,-736.16 729.34,-743.16 721.02,-749.02"/>
<polygon fill="#000000" stroke="#000000" points="719.08,-746.11 712.61,-754.5 722.9,-751.98 719.08,-746.11"/>
<text text-anchor="middle" x="829" y="-697.4" font-family="Times,serif" font-size="32.00">ben</text>
<text text-anchor="middle" x="829" y="-662.4" font-family="Times,serif" font-size="32.00">=prog perf</text>
</g>
<!-- prog&#45;&gt;3 -->
<g id="edge11" class="edge">
<title>prog&#45;&gt;3</title>
<path fill="none" stroke="#000000" d="M950.65,-522.69C857.32,-514.25 652.83,-501.92 485,-535 418.24,-548.16 345.53,-581.27 304.68,-601.78"/>
<polygon fill="#000000" stroke="#000000" points="303.06,-598.67 295.73,-606.32 306.23,-604.91 303.06,-598.67"/>
<text text-anchor="middle" x="535" y="-579.4" font-family="Times,serif" font-size="32.00">be_1</text>
<text text-anchor="middle" x="535" y="-544.4" font-family="Times,serif" font-size="32.00">=prog 3</text>
</g>
<!-- prog&#45;&gt;v -->
<g id="edge12" class="edge">
<title>prog&#45;&gt;v</title>
<path fill="none" stroke="#000000" d="M952.4,-519.1C934.93,-516.06 915.11,-512.73 897,-510 766.72,-490.37 716.16,-539.47 603,-472 591.24,-464.99 595.12,-456.22 585,-447 496.52,-366.35 367.05,-304.09 306.11,-277.33"/>
<polygon fill="#000000" stroke="#000000" points="307.15,-273.97 296.58,-273.19 304.36,-280.39 307.15,-273.97"/>
<text text-anchor="middle" x="535" y="-491.4" font-family="Times,serif" font-size="32.00">be_2</text>
<text text-anchor="middle" x="535" y="-456.4" font-family="Times,serif" font-size="32.00">=prog v</text>
</g>
</g>
</svg>
