<?xml version="1.0" encoding="UTF-8" standalone="no"?>
<!DOCTYPE svg PUBLIC "-//W3C//DTD SVG 1.1//EN"
 "http://www.w3.org/Graphics/SVG/1.1/DTD/svg11.dtd">
<!-- Generated by graphviz version 2.47.1 (20210417.1919)
 -->
<!-- Title: G Pages: 1 -->
<svg width="1592pt" height="1016pt"
 viewBox="0.00 0.00 1592.00 1016.00" xmlns="http://www.w3.org/2000/svg" xmlns:xlink="http://www.w3.org/1999/xlink">
<g id="graph0" class="graph" transform="scale(1 1) rotate(0) translate(4 1012)">
<title>G</title>
<polygon fill="white" stroke="transparent" points="-4,4 -4,-1012 1588,-1012 1588,4 -4,4"/>
<text text-anchor="middle" x="792" y="-13.4" font-family="Times,serif" font-size="32.00">single contraction: v → 1</text>
<!-- t -->
<g id="node1" class="node">
<title>t</title>
<ellipse fill="lightgray" stroke="black" cx="27" cy="-507" rx="27" ry="30.31"/>
<text text-anchor="middle" x="27" y="-498.9" font-family="Times,serif" font-size="32.00">t</text>
</g>
<!-- z0 -->
<g id="node2" class="node">
<title>z0</title>
<ellipse fill="none" stroke="black" stroke-dasharray="5,2" cx="1557" cy="-447" rx="27" ry="18"/>
</g>
<!-- d -->
<g id="node3" class="node">
<title>d</title>
<ellipse fill="none" stroke="black" cx="1397" cy="-447" rx="27" ry="30.31"/>
<text text-anchor="middle" x="1397" y="-438.9" font-family="Times,serif" font-size="32.00">d</text>
</g>
<!-- z0&#45;&gt;d -->
<g id="edge1" class="edge">
<title>z0&#45;&gt;d</title>
<path fill="none" stroke="#000000" d="M1529.91,-447C1503.84,-447 1463.53,-447 1434.34,-447"/>
<polygon fill="#000000" stroke="#000000" points="1434.13,-443.5 1424.13,-447 1434.13,-450.5 1434.13,-443.5"/>
<text text-anchor="middle" x="1477" y="-491.4" font-family="Times,serif" font-size="32.00">Mary</text>
<text text-anchor="middle" x="1477" y="-456.4" font-family="Times,serif" font-size="32.00">d &#45;k</text>
</g>
<!-- v -->
<g id="node6" class="node">
<title>v</title>
<ellipse fill="none" stroke="black" cx="498" cy="-510" rx="27" ry="30.31"/>
<text text-anchor="middle" x="498" y="-501.9" font-family="Times,serif" font-size="32.00">v</text>
</g>
<!-- d&#45;&gt;v -->
<g id="edge11" class="edge">
<title>d&#45;&gt;v</title>
<path fill="none" stroke="#000000" d="M1396.43,-477.41C1396.86,-553.37 1393.78,-748.62 1352,-795 1231.93,-928.28 1137.2,-866.42 959,-887 770.89,-908.72 660.6,-943.41 543,-795 515.7,-760.55 533.27,-641.18 525,-598 521.8,-581.31 516.76,-563.26 511.96,-547.87"/>
<polygon fill="#000000" stroke="#000000" points="515.24,-546.65 508.86,-538.19 508.58,-548.78 515.24,-546.65"/>
<text text-anchor="middle" x="889" y="-982.4" font-family="Times,serif" font-size="32.00">laugh |</text>
<text text-anchor="middle" x="889" y="-947.4" font-family="Times,serif" font-size="32.00"> dance</text>
<text text-anchor="middle" x="889" y="-912.4" font-family="Times,serif" font-size="32.00">=d v</text>
</g>
<!-- d&#45;&gt;v -->
<g id="edge15" class="edge">
<title>d&#45;&gt;v</title>
<path fill="none" stroke="#000000" d="M1391.33,-476.74C1385.71,-505.29 1374.14,-548.59 1352,-580 1287.06,-672.15 1258.6,-699.34 1152,-736 888.69,-826.55 756.93,-767.22 543,-589 529.94,-578.12 520.06,-562.31 513,-547.69"/>
<polygon fill="#000000" stroke="#000000" points="516.07,-545.99 508.76,-538.31 509.69,-548.87 516.07,-545.99"/>
<text text-anchor="middle" x="889" y="-856.4" font-family="Times,serif" font-size="32.00">hug |</text>
<text text-anchor="middle" x="889" y="-821.4" font-family="Times,serif" font-size="32.00"> praise</text>
<text text-anchor="middle" x="889" y="-786.4" font-family="Times,serif" font-size="32.00">=d *k =d v</text>
</g>
<!-- perf -->
<g id="node7" class="node">
<title>perf</title>
<ellipse fill="none" stroke="black" cx="731" cy="-519" rx="48.17" ry="30.31"/>
<text text-anchor="middle" x="731" y="-510.9" font-family="Times,serif" font-size="32.00">perf</text>
</g>
<!-- d&#45;&gt;perf -->
<g id="edge14" class="edge">
<title>d&#45;&gt;perf</title>
<path fill="none" stroke="#000000" d="M1384.61,-474.34C1377.14,-489.62 1366.14,-508.12 1352,-521 1279.26,-587.28 1248,-594.36 1152,-616 1076.13,-633.1 1053.4,-630.57 977,-616 904.33,-602.14 825.7,-567.08 777.64,-543.14"/>
<polygon fill="#000000" stroke="#000000" points="778.96,-539.88 768.45,-538.51 775.81,-546.13 778.96,-539.88"/>
<text text-anchor="middle" x="1064.5" y="-706.4" font-family="Times,serif" font-size="32.00">laughn |</text>
<text text-anchor="middle" x="1064.5" y="-671.4" font-family="Times,serif" font-size="32.00"> dancen</text>
<text text-anchor="middle" x="1064.5" y="-636.4" font-family="Times,serif" font-size="32.00">=d perf</text>
</g>
<!-- d&#45;&gt;perf -->
<g id="edge18" class="edge">
<title>d&#45;&gt;perf</title>
<path fill="none" stroke="#000000" d="M1379.8,-470.44C1372.42,-479.15 1362.89,-488.11 1352,-493 1313.97,-510.1 1018.66,-505.2 977,-507 912.65,-509.78 838.82,-513.46 789.18,-516.01"/>
<polygon fill="#000000" stroke="#000000" points="788.77,-512.53 778.96,-516.54 789.13,-519.52 788.77,-512.53"/>
<text text-anchor="middle" x="1064.5" y="-586.4" font-family="Times,serif" font-size="32.00">hugn |</text>
<text text-anchor="middle" x="1064.5" y="-551.4" font-family="Times,serif" font-size="32.00"> praisen</text>
<text text-anchor="middle" x="1064.5" y="-516.4" font-family="Times,serif" font-size="32.00">=d *k =d perf</text>
</g>
<!-- 1 -->
<g id="node8" class="node">
<title>1</title>
<ellipse fill="none" stroke="black" cx="300" cy="-355" rx="27" ry="30.31"/>
<text text-anchor="middle" x="300" y="-346.9" font-family="Times,serif" font-size="32.00">1</text>
</g>
<!-- d&#45;&gt;1 -->
<g id="edge12" class="edge">
<title>d&#45;&gt;1</title>
<path fill="none" stroke="#000000" d="M1393.58,-416.59C1388.93,-366.48 1376.9,-269.92 1352,-248 1256.03,-163.52 1193.36,-222 1065.5,-222 1065.5,-222 1065.5,-222 497,-222 424.44,-222 358.79,-285.18 325,-324.45"/>
<polygon fill="#000000" stroke="#000000" points="322.04,-322.53 318.28,-332.44 327.39,-327.04 322.04,-322.53"/>
<text text-anchor="middle" x="731" y="-301.4" font-family="Times,serif" font-size="32.00">laugh_1 |</text>
<text text-anchor="middle" x="731" y="-266.4" font-family="Times,serif" font-size="32.00"> dance_1</text>
<text text-anchor="middle" x="731" y="-231.4" font-family="Times,serif" font-size="32.00">=d 1</text>
</g>
<!-- d&#45;&gt;1 -->
<g id="edge16" class="edge">
<title>d&#45;&gt;1</title>
<path fill="none" stroke="#000000" d="M1394.22,-416.67C1390.21,-358.07 1378.67,-232.12 1352,-199 1265.64,-91.73 1203.21,-81 1065.5,-81 1065.5,-81 1065.5,-81 497,-81 383.05,-81 329.02,-239.71 309.7,-315.55"/>
<polygon fill="#000000" stroke="#000000" points="306.2,-315.13 307.21,-325.68 313,-316.81 306.2,-315.13"/>
<text text-anchor="middle" x="731" y="-160.4" font-family="Times,serif" font-size="32.00">hug_1 |</text>
<text text-anchor="middle" x="731" y="-125.4" font-family="Times,serif" font-size="32.00"> praise_1</text>
<text text-anchor="middle" x="731" y="-90.4" font-family="Times,serif" font-size="32.00">=d *k =d 1</text>
</g>
<!-- prog -->
<g id="node9" class="node">
<title>prog</title>
<ellipse fill="none" stroke="black" cx="1064.5" cy="-387" rx="52.15" ry="30.31"/>
<text text-anchor="middle" x="1064.5" y="-378.9" font-family="Times,serif" font-size="32.00">prog</text>
</g>
<!-- d&#45;&gt;prog -->
<g id="edge13" class="edge">
<title>d&#45;&gt;prog</title>
<path fill="none" stroke="#000000" d="M1383.53,-420.58C1376.22,-408.29 1365.69,-394.9 1352,-388 1314,-368.85 1198.83,-374.85 1126.61,-380.94"/>
<polygon fill="#000000" stroke="#000000" points="1125.94,-377.48 1116.28,-381.83 1126.55,-384.46 1125.94,-377.48"/>
<text text-anchor="middle" x="1261" y="-467.4" font-family="Times,serif" font-size="32.00">laughing |</text>
<text text-anchor="middle" x="1261" y="-432.4" font-family="Times,serif" font-size="32.00"> danceing</text>
<text text-anchor="middle" x="1261" y="-397.4" font-family="Times,serif" font-size="32.00">=d prog</text>
</g>
<!-- d&#45;&gt;prog -->
<g id="edge17" class="edge">
<title>d&#45;&gt;prog</title>
<path fill="none" stroke="#000000" d="M1393.04,-416.63C1387.83,-370.27 1375.28,-285.28 1352,-267 1320.19,-242.03 1206.81,-250.24 1170,-267 1133.09,-283.8 1104.14,-320.8 1086.17,-349.3"/>
<polygon fill="#000000" stroke="#000000" points="1083.18,-347.49 1080.95,-357.84 1089.15,-351.14 1083.18,-347.49"/>
<text text-anchor="middle" x="1261" y="-346.4" font-family="Times,serif" font-size="32.00">huging |</text>
<text text-anchor="middle" x="1261" y="-311.4" font-family="Times,serif" font-size="32.00"> praiseing</text>
<text text-anchor="middle" x="1261" y="-276.4" font-family="Times,serif" font-size="32.00">=d *k =d prog</text>
</g>
<!-- 0 -->
<g id="node4" class="node">
<title>0</title>
<ellipse fill="none" stroke="black" cx="300" cy="-625" rx="27" ry="30.31"/>
<text text-anchor="middle" x="300" y="-616.9" font-family="Times,serif" font-size="32.00">0</text>
</g>
<!-- 0&#45;&gt;t -->
<g id="edge2" class="edge">
<title>0&#45;&gt;t</title>
<path fill="none" stroke="#000000" d="M274.47,-614.32C225.92,-593.18 117.49,-545.97 62.05,-521.83"/>
<polygon fill="#000000" stroke="#000000" points="63.23,-518.52 52.67,-517.74 60.44,-524.94 63.23,-518.52"/>
<text text-anchor="middle" x="149" y="-634.4" font-family="Times,serif" font-size="32.00">ε_0</text>
<text text-anchor="middle" x="149" y="-599.4" font-family="Times,serif" font-size="32.00">=&gt;0 =v +k t</text>
</g>
<!-- z1 -->
<g id="node5" class="node">
<title>z1</title>
<ellipse fill="none" stroke="black" stroke-dasharray="5,2" cx="498" cy="-625" rx="27" ry="18"/>
</g>
<!-- z1&#45;&gt;0 -->
<g id="edge3" class="edge">
<title>z1&#45;&gt;0</title>
<path fill="none" stroke="#000000" d="M470.97,-625C436.71,-625 376.28,-625 337.47,-625"/>
<polygon fill="#000000" stroke="#000000" points="337.13,-621.5 327.13,-625 337.13,-628.5 337.13,-621.5"/>
<text text-anchor="middle" x="413.5" y="-704.4" font-family="Times,serif" font-size="32.00">wills |</text>
<text text-anchor="middle" x="413.5" y="-669.4" font-family="Times,serif" font-size="32.00"> willd</text>
<text text-anchor="middle" x="413.5" y="-634.4" font-family="Times,serif" font-size="32.00">0</text>
</g>
<!-- v&#45;&gt;t -->
<g id="edge4" class="edge">
<title>v&#45;&gt;t</title>
<path fill="none" stroke="#000000" d="M470.78,-509.83C391.64,-509.33 155.04,-507.81 64.13,-507.23"/>
<polygon fill="#000000" stroke="#000000" points="64.06,-503.73 54.04,-507.17 64.01,-510.73 64.06,-503.73"/>
<text text-anchor="middle" x="300" y="-553.4" font-family="Times,serif" font-size="32.00">s</text>
<text text-anchor="middle" x="300" y="-518.4" font-family="Times,serif" font-size="32.00">=&gt;v +k t</text>
</g>
<!-- v&#45;&gt;1 -->
<g id="edge7" class="edge">
<title>v&#45;&gt;1</title>
<path fill="none" stroke="#000000" d="M488.2,-481.45C481.2,-462.79 469.78,-439 453,-423 420.01,-391.54 369.99,-373.04 336.44,-363.46"/>
<polygon fill="#000000" stroke="#000000" points="337.16,-360.03 326.59,-360.78 335.31,-366.79 337.16,-360.03"/>
<text text-anchor="middle" x="413.5" y="-467.4" font-family="Times,serif" font-size="32.00">ε_1</text>
<text text-anchor="middle" x="413.5" y="-432.4" font-family="Times,serif" font-size="32.00">=&gt;v 1</text>
</g>
<!-- perf&#45;&gt;v -->
<g id="edge5" class="edge">
<title>perf&#45;&gt;v</title>
<path fill="none" stroke="#000000" d="M682.98,-517.17C639.26,-515.46 575.06,-512.96 535.21,-511.41"/>
<polygon fill="#000000" stroke="#000000" points="535.27,-507.91 525.14,-511.02 535,-514.91 535.27,-507.91"/>
<text text-anchor="middle" x="593" y="-559.4" font-family="Times,serif" font-size="32.00">have</text>
<text text-anchor="middle" x="593" y="-524.4" font-family="Times,serif" font-size="32.00">=perf v</text>
</g>
<!-- 1&#45;&gt;t -->
<g id="edge6" class="edge">
<title>1&#45;&gt;t</title>
<path fill="none" stroke="#000000" d="M272.82,-356.37C227.13,-360.04 131.98,-373.53 72,-423 57.56,-434.91 47.27,-452.81 40.29,-469.03"/>
<polygon fill="#000000" stroke="#000000" points="37.03,-467.74 36.55,-478.32 43.53,-470.35 37.03,-467.74"/>
<text text-anchor="middle" x="149" y="-467.4" font-family="Times,serif" font-size="32.00">d</text>
<text text-anchor="middle" x="149" y="-432.4" font-family="Times,serif" font-size="32.00">=&gt;1 +k t</text>
</g>
<!-- prog&#45;&gt;v -->
<g id="edge8" class="edge">
<title>prog&#45;&gt;v</title>
<path fill="none" stroke="#000000" d="M1013.5,-379.69C935.04,-370.4 779.7,-360.95 661,-410 651.11,-414.09 651.67,-419.72 643,-426 606.85,-452.21 561.96,-477.35 532,-493.17"/>
<polygon fill="#000000" stroke="#000000" points="530.07,-490.24 522.83,-497.98 533.31,-496.44 530.07,-490.24"/>
<text text-anchor="middle" x="731" y="-454.4" font-family="Times,serif" font-size="32.00">be</text>
<text text-anchor="middle" x="731" y="-419.4" font-family="Times,serif" font-size="32.00">=prog v</text>
</g>
<!-- prog&#45;&gt;perf -->
<g id="edge10" class="edge">
<title>prog&#45;&gt;perf</title>
<path fill="none" stroke="#000000" d="M1013.79,-395.09C942.38,-406.73 819.24,-426.81 819,-427 801.39,-441.45 815.34,-457.3 801,-475 794.69,-482.78 786.63,-489.62 778.25,-495.43"/>
<polygon fill="#000000" stroke="#000000" points="776.3,-492.52 769.82,-500.91 780.12,-498.39 776.3,-492.52"/>
<text text-anchor="middle" x="889" y="-471.4" font-family="Times,serif" font-size="32.00">ben</text>
<text text-anchor="middle" x="889" y="-436.4" font-family="Times,serif" font-size="32.00">=prog perf</text>
</g>
<!-- prog&#45;&gt;1 -->
<g id="edge9" class="edge">
<title>prog&#45;&gt;1</title>
<path fill="none" stroke="#000000" d="M1014.76,-377.39C997.24,-374.26 977.29,-371.06 959,-369 723.19,-342.44 436.93,-349.76 337.27,-353.47"/>
<polygon fill="#000000" stroke="#000000" points="336.99,-349.98 327.13,-353.86 337.26,-356.97 336.99,-349.98"/>
<text text-anchor="middle" x="593" y="-395.4" font-family="Times,serif" font-size="32.00">be_1</text>
<text text-anchor="middle" x="593" y="-360.4" font-family="Times,serif" font-size="32.00">=prog 1</text>
</g>
</g>
</svg>
