<?xml version="1.0" encoding="UTF-8" standalone="no"?>
<!DOCTYPE svg PUBLIC "-//W3C//DTD SVG 1.1//EN"
 "http://www.w3.org/Graphics/SVG/1.1/DTD/svg11.dtd">
<!-- Generated by graphviz version 2.47.1 (20210417.1919)
 -->
<!-- Title: G Pages: 1 -->
<svg width="1319pt" height="915pt"
 viewBox="0.00 0.00 1319.00 915.34" xmlns="http://www.w3.org/2000/svg" xmlns:xlink="http://www.w3.org/1999/xlink">
<g id="graph0" class="graph" transform="scale(1 1) rotate(0) translate(4 911.34)">
<title>G</title>
<polygon fill="white" stroke="transparent" points="-4,4 -4,-911.34 1315,-911.34 1315,4 -4,4"/>
<text text-anchor="middle" x="655.5" y="-13.4" font-family="Times,serif" font-size="32.00">single contraction: v → 1</text>
<!-- t -->
<g id="node1" class="node">
<title>t</title>
<ellipse fill="lightgray" stroke="black" cx="27" cy="-718.34" rx="27" ry="30.31"/>
<text text-anchor="middle" x="27" y="-710.24" font-family="Times,serif" font-size="32.00">t</text>
</g>
<!-- z0 -->
<g id="node2" class="node">
<title>z0</title>
<ellipse fill="none" stroke="black" stroke-dasharray="5,2" cx="1284" cy="-428.34" rx="27" ry="18"/>
</g>
<!-- d -->
<g id="node3" class="node">
<title>d</title>
<ellipse fill="none" stroke="black" cx="1124" cy="-428.34" rx="27" ry="30.31"/>
<text text-anchor="middle" x="1124" y="-420.24" font-family="Times,serif" font-size="32.00">d</text>
</g>
<!-- z0&#45;&gt;d -->
<g id="edge1" class="edge">
<title>z0&#45;&gt;d</title>
<path fill="none" stroke="#000000" d="M1256.91,-428.34C1230.84,-428.34 1190.53,-428.34 1161.34,-428.34"/>
<polygon fill="#000000" stroke="#000000" points="1161.13,-424.84 1151.13,-428.34 1161.13,-431.84 1161.13,-424.84"/>
<text text-anchor="middle" x="1204" y="-472.74" font-family="Times,serif" font-size="32.00">Mary</text>
<text text-anchor="middle" x="1204" y="-437.74" font-family="Times,serif" font-size="32.00">d &#45;k</text>
</g>
<!-- v -->
<g id="node6" class="node">
<title>v</title>
<ellipse fill="none" stroke="black" cx="271" cy="-631.34" rx="27" ry="30.31"/>
<text text-anchor="middle" x="271" y="-623.24" font-family="Times,serif" font-size="32.00">v</text>
</g>
<!-- d&#45;&gt;v -->
<g id="edge8" class="edge">
<title>d&#45;&gt;v</title>
<path fill="none" stroke="#000000" d="M1120.81,-458.95C1116.35,-512.29 1104.43,-619.13 1079,-645.34 954.06,-774.07 864.2,-716.76 686,-737.34 624.19,-744.48 607.17,-748.76 546,-737.34 454.86,-720.32 354.99,-674.02 304.75,-648.61"/>
<polygon fill="#000000" stroke="#000000" points="306.17,-645.4 295.67,-643.97 302.98,-651.64 306.17,-645.4"/>
<text text-anchor="middle" x="616" y="-823.74" font-family="Times,serif" font-size="32.00">laugh |</text>
<text text-anchor="middle" x="616" y="-788.74" font-family="Times,serif" font-size="32.00"> dance</text>
<text text-anchor="middle" x="616" y="-753.74" font-family="Times,serif" font-size="32.00">=d v</text>
</g>
<!-- d&#45;&gt;v -->
<g id="edge11" class="edge">
<title>d&#45;&gt;v</title>
<path fill="none" stroke="#000000" d="M1102.13,-447.21C1095.01,-453.29 1086.86,-459.86 1079,-465.34 995.06,-523.84 976.69,-548.93 879,-579.34 771.38,-612.84 422.25,-626.6 308.32,-630.27"/>
<polygon fill="#000000" stroke="#000000" points="307.93,-626.78 298.04,-630.59 308.15,-633.78 307.93,-626.78"/>
<text text-anchor="middle" x="616" y="-697.74" font-family="Times,serif" font-size="32.00">hug |</text>
<text text-anchor="middle" x="616" y="-662.74" font-family="Times,serif" font-size="32.00"> praise</text>
<text text-anchor="middle" x="616" y="-627.74" font-family="Times,serif" font-size="32.00">=d *k =d v</text>
</g>
<!-- perf -->
<g id="node7" class="node">
<title>perf</title>
<ellipse fill="none" stroke="black" cx="478" cy="-427.34" rx="48.17" ry="30.31"/>
<text text-anchor="middle" x="478" y="-419.24" font-family="Times,serif" font-size="32.00">perf</text>
</g>
<!-- d&#45;&gt;perf -->
<g id="edge10" class="edge">
<title>d&#45;&gt;perf</title>
<path fill="none" stroke="#000000" d="M1097.15,-433.71C1052.78,-442.63 959.14,-460.13 879,-466.34 801.45,-472.34 781.49,-473 704,-466.34 645.25,-461.28 578.8,-448.94 533.45,-439.48"/>
<polygon fill="#000000" stroke="#000000" points="534.04,-436.02 523.53,-437.38 532.59,-442.87 534.04,-436.02"/>
<text text-anchor="middle" x="791.5" y="-549.74" font-family="Times,serif" font-size="32.00">laughn |</text>
<text text-anchor="middle" x="791.5" y="-514.74" font-family="Times,serif" font-size="32.00"> dancen</text>
<text text-anchor="middle" x="791.5" y="-479.74" font-family="Times,serif" font-size="32.00">=d perf</text>
</g>
<!-- d&#45;&gt;perf -->
<g id="edge13" class="edge">
<title>d&#45;&gt;perf</title>
<path fill="none" stroke="#000000" d="M1098.23,-418.58C1054.71,-402.02 961.33,-369.07 879,-357.34 802,-346.36 780.89,-345.65 704,-357.34 641.83,-366.79 573.19,-390.13 528.27,-407.27"/>
<polygon fill="#000000" stroke="#000000" points="526.85,-404.07 518.78,-410.94 529.37,-410.6 526.85,-404.07"/>
<text text-anchor="middle" x="791.5" y="-436.74" font-family="Times,serif" font-size="32.00">hugn |</text>
<text text-anchor="middle" x="791.5" y="-401.74" font-family="Times,serif" font-size="32.00"> praisen</text>
<text text-anchor="middle" x="791.5" y="-366.74" font-family="Times,serif" font-size="32.00">=d *k =d perf</text>
</g>
<!-- prog -->
<g id="node8" class="node">
<title>prog</title>
<ellipse fill="none" stroke="black" cx="791.5" cy="-239.34" rx="52.15" ry="30.31"/>
<text text-anchor="middle" x="791.5" y="-231.24" font-family="Times,serif" font-size="32.00">prog</text>
</g>
<!-- d&#45;&gt;prog -->
<g id="edge9" class="edge">
<title>d&#45;&gt;prog</title>
<path fill="none" stroke="#000000" d="M1120.36,-397.82C1115.5,-349.71 1103.33,-259.7 1079,-240.34 1045.31,-213.53 926.18,-222.52 852.57,-231.15"/>
<polygon fill="#000000" stroke="#000000" points="852,-227.69 842.49,-232.36 852.84,-234.64 852,-227.69"/>
<text text-anchor="middle" x="988" y="-319.74" font-family="Times,serif" font-size="32.00">laughing |</text>
<text text-anchor="middle" x="988" y="-284.74" font-family="Times,serif" font-size="32.00"> danceing</text>
<text text-anchor="middle" x="988" y="-249.74" font-family="Times,serif" font-size="32.00">=d prog</text>
</g>
<!-- d&#45;&gt;prog -->
<g id="edge12" class="edge">
<title>d&#45;&gt;prog</title>
<path fill="none" stroke="#000000" d="M1123.55,-397.72C1124.11,-326.1 1121.06,-150.91 1079,-114.34 1017.96,-61.26 970.28,-80.09 897,-114.34 858.92,-132.14 829.83,-171.4 812.13,-201.21"/>
<polygon fill="#000000" stroke="#000000" points="808.96,-199.71 807.01,-210.12 815.02,-203.2 808.96,-199.71"/>
<text text-anchor="middle" x="988" y="-193.74" font-family="Times,serif" font-size="32.00">huging |</text>
<text text-anchor="middle" x="988" y="-158.74" font-family="Times,serif" font-size="32.00"> praiseing</text>
<text text-anchor="middle" x="988" y="-123.74" font-family="Times,serif" font-size="32.00">=d *k =d prog</text>
</g>
<!-- 0 -->
<g id="node4" class="node">
<title>0</title>
<ellipse fill="none" stroke="black" cx="271" cy="-799.34" rx="27" ry="30.31"/>
<text text-anchor="middle" x="271" y="-791.24" font-family="Times,serif" font-size="32.00">0</text>
</g>
<!-- 0&#45;&gt;t -->
<g id="edge2" class="edge">
<title>0&#45;&gt;t</title>
<path fill="none" stroke="#000000" d="M243.68,-799.52C204.12,-798.75 128,-793.08 72,-763.34 64.81,-759.52 58.07,-754.11 52.14,-748.36"/>
<polygon fill="#000000" stroke="#000000" points="54.53,-745.79 45.08,-740.99 49.47,-750.63 54.53,-745.79"/>
<text text-anchor="middle" x="149" y="-842.74" font-family="Times,serif" font-size="32.00">ε_0</text>
<text text-anchor="middle" x="149" y="-807.74" font-family="Times,serif" font-size="32.00">=&gt;0 =v +k t</text>
</g>
<!-- z1 -->
<g id="node5" class="node">
<title>z1</title>
<ellipse fill="none" stroke="black" stroke-dasharray="5,2" cx="478" cy="-805.34" rx="27" ry="18"/>
</g>
<!-- z1&#45;&gt;0 -->
<g id="edge3" class="edge">
<title>z1&#45;&gt;0</title>
<path fill="none" stroke="#000000" d="M450.62,-804.57C414.41,-803.51 349.16,-801.6 308.35,-800.4"/>
<polygon fill="#000000" stroke="#000000" points="308.38,-796.9 298.28,-800.11 308.17,-803.9 308.38,-796.9"/>
<text text-anchor="middle" x="363" y="-881.74" font-family="Times,serif" font-size="32.00">wills |</text>
<text text-anchor="middle" x="363" y="-846.74" font-family="Times,serif" font-size="32.00"> willd</text>
<text text-anchor="middle" x="363" y="-811.74" font-family="Times,serif" font-size="32.00">0</text>
</g>
<!-- v&#45;&gt;t -->
<g id="edge4" class="edge">
<title>v&#45;&gt;t</title>
<path fill="none" stroke="#000000" d="M244.12,-627.91C204.12,-623.95 126.25,-621.67 72,-654.34 60.79,-661.09 51.76,-671.92 44.86,-682.77"/>
<polygon fill="#000000" stroke="#000000" points="41.84,-681 39.78,-691.39 47.87,-684.55 41.84,-681"/>
<text text-anchor="middle" x="149" y="-733.74" font-family="Times,serif" font-size="32.00">s |</text>
<text text-anchor="middle" x="149" y="-698.74" font-family="Times,serif" font-size="32.00"> d</text>
<text text-anchor="middle" x="149" y="-663.74" font-family="Times,serif" font-size="32.00">=&gt;v +k t</text>
</g>
<!-- perf&#45;&gt;v -->
<g id="edge5" class="edge">
<title>perf&#45;&gt;v</title>
<path fill="none" stroke="#000000" d="M441.33,-447.41C406.04,-468.64 352.21,-504.91 316,-547.34 304.14,-561.23 294.3,-578.87 286.95,-594.39"/>
<polygon fill="#000000" stroke="#000000" points="283.65,-593.17 282.7,-603.72 290.03,-596.07 283.65,-593.17"/>
<text text-anchor="middle" x="363" y="-591.74" font-family="Times,serif" font-size="32.00">have</text>
<text text-anchor="middle" x="363" y="-556.74" font-family="Times,serif" font-size="32.00">=perf v</text>
</g>
<!-- prog&#45;&gt;v -->
<g id="edge6" class="edge">
<title>prog&#45;&gt;v</title>
<path fill="none" stroke="#000000" d="M739.3,-235.77C689.05,-233.77 610.76,-234.69 546,-253.34 488.46,-269.9 473.34,-279.24 428,-318.34 365.8,-371.98 352.1,-391.56 316,-465.34 296.17,-505.87 284.41,-556.49 278.1,-591.11"/>
<polygon fill="#000000" stroke="#000000" points="274.6,-590.86 276.32,-601.31 281.49,-592.07 274.6,-590.86"/>
<text text-anchor="middle" x="478" y="-362.74" font-family="Times,serif" font-size="32.00">be</text>
<text text-anchor="middle" x="478" y="-327.74" font-family="Times,serif" font-size="32.00">=prog v</text>
</g>
<!-- prog&#45;&gt;perf -->
<g id="edge7" class="edge">
<title>prog&#45;&gt;perf</title>
<path fill="none" stroke="#000000" d="M740.1,-245.07C670.78,-253.15 553.66,-267.52 546,-273.34 544.75,-274.28 515.01,-343.3 495.58,-388.61"/>
<polygon fill="#000000" stroke="#000000" points="492.32,-387.32 491.6,-397.89 498.76,-390.07 492.32,-387.32"/>
<text text-anchor="middle" x="616" y="-317.74" font-family="Times,serif" font-size="32.00">ben</text>
<text text-anchor="middle" x="616" y="-282.74" font-family="Times,serif" font-size="32.00">=prog perf</text>
</g>
</g>
</svg>
