<?xml version="1.0" encoding="UTF-8" standalone="no"?>
<!DOCTYPE svg PUBLIC "-//W3C//DTD SVG 1.1//EN"
 "http://www.w3.org/Graphics/SVG/1.1/DTD/svg11.dtd">
<!-- Generated by graphviz version 2.47.1 (20210417.1919)
 -->
<!-- Title: G Pages: 1 -->
<svg width="1533pt" height="807pt"
 viewBox="0.00 0.00 1533.00 807.30" xmlns="http://www.w3.org/2000/svg" xmlns:xlink="http://www.w3.org/1999/xlink">
<g id="graph0" class="graph" transform="scale(1 1) rotate(0) translate(4 803.3)">
<title>G</title>
<polygon fill="white" stroke="transparent" points="-4,4 -4,-803.3 1529,-803.3 1529,4 -4,4"/>
<text text-anchor="middle" x="762.5" y="-48.4" font-family="Times,serif" font-size="32.00">decomposition: hug =d *k =d v, huging =d *k =d prog, hugn =d *k =d perf</text>
<text text-anchor="middle" x="762.5" y="-13.4" font-family="Times,serif" font-size="32.00">decomposition: praise =d *k =d v, praiseing =d *k =d prog, praisen =d *k =d perf</text>
<!-- t -->
<g id="node1" class="node">
<title>t</title>
<ellipse fill="lightgray" stroke="black" cx="27" cy="-578.3" rx="27" ry="30.31"/>
<text text-anchor="middle" x="27" y="-570.2" font-family="Times,serif" font-size="32.00">t</text>
</g>
<!-- z0 -->
<g id="node2" class="node">
<title>z0</title>
<ellipse fill="none" stroke="black" stroke-dasharray="5,2" cx="1498" cy="-347.3" rx="27" ry="18"/>
</g>
<!-- d -->
<g id="node3" class="node">
<title>d</title>
<ellipse fill="none" stroke="black" cx="1338" cy="-347.3" rx="27" ry="30.31"/>
<text text-anchor="middle" x="1338" y="-339.2" font-family="Times,serif" font-size="32.00">d</text>
</g>
<!-- z0&#45;&gt;d -->
<g id="edge1" class="edge">
<title>z0&#45;&gt;d</title>
<path fill="none" stroke="#000000" d="M1470.91,-347.3C1444.84,-347.3 1404.53,-347.3 1375.34,-347.3"/>
<polygon fill="#000000" stroke="#000000" points="1375.13,-343.8 1365.13,-347.3 1375.13,-350.8 1375.13,-343.8"/>
<text text-anchor="middle" x="1418" y="-391.7" font-family="Times,serif" font-size="32.00">Mary</text>
<text text-anchor="middle" x="1418" y="-356.7" font-family="Times,serif" font-size="32.00">d &#45;k</text>
</g>
<!-- v -->
<g id="node6" class="node">
<title>v</title>
<ellipse fill="none" stroke="black" cx="271" cy="-436.3" rx="27" ry="30.31"/>
<text text-anchor="middle" x="271" y="-428.2" font-family="Times,serif" font-size="32.00">v</text>
</g>
<!-- d&#45;&gt;v -->
<g id="edge8" class="edge">
<title>d&#45;&gt;v</title>
<path fill="none" stroke="#000000" d="M1335.97,-377.82C1333.33,-415.73 1324.19,-480.94 1293,-526.3 1238.27,-605.9 1211.1,-650.3 1114.5,-650.3 1114.5,-650.3 1114.5,-650.3 477,-650.3 390.09,-650.3 371.02,-606.58 316,-539.3 300.66,-520.54 289.83,-495.64 282.75,-475.02"/>
<polygon fill="#000000" stroke="#000000" points="286.01,-473.71 279.58,-465.29 279.35,-475.88 286.01,-473.71"/>
<text text-anchor="middle" x="777" y="-729.7" font-family="Times,serif" font-size="32.00">laugh |</text>
<text text-anchor="middle" x="777" y="-694.7" font-family="Times,serif" font-size="32.00"> dance</text>
<text text-anchor="middle" x="777" y="-659.7" font-family="Times,serif" font-size="32.00">=d v</text>
</g>
<!-- perf -->
<g id="node7" class="node">
<title>perf</title>
<ellipse fill="none" stroke="black" cx="478" cy="-412.3" rx="48.17" ry="30.31"/>
<text text-anchor="middle" x="478" y="-404.2" font-family="Times,serif" font-size="32.00">perf</text>
</g>
<!-- d&#45;&gt;perf -->
<g id="edge10" class="edge">
<title>d&#45;&gt;perf</title>
<path fill="none" stroke="#000000" d="M1310.89,-346.96C1258.18,-346.28 1135.26,-344.81 1032,-344.3 960.89,-343.95 929.69,-302.72 872,-344.3 851.48,-359.09 874.24,-383.13 854,-398.3 805.32,-434.78 628.11,-425.49 535.79,-417.79"/>
<polygon fill="#000000" stroke="#000000" points="536.04,-414.3 525.78,-416.93 535.44,-421.27 536.04,-414.3"/>
<text text-anchor="middle" x="952" y="-423.7" font-family="Times,serif" font-size="32.00">laughn |</text>
<text text-anchor="middle" x="952" y="-388.7" font-family="Times,serif" font-size="32.00"> dancen</text>
<text text-anchor="middle" x="952" y="-353.7" font-family="Times,serif" font-size="32.00">=d perf</text>
</g>
<!-- prog -->
<g id="node8" class="node">
<title>prog</title>
<ellipse fill="none" stroke="black" cx="777" cy="-241.3" rx="52.15" ry="30.31"/>
<text text-anchor="middle" x="777" y="-233.2" font-family="Times,serif" font-size="32.00">prog</text>
</g>
<!-- d&#45;&gt;prog -->
<g id="edge9" class="edge">
<title>d&#45;&gt;prog</title>
<path fill="none" stroke="#000000" d="M1328.23,-318.64C1320.82,-297.06 1308.89,-267.36 1293,-244.3 1252.34,-185.29 1243.45,-159.14 1177,-132.3 1051.12,-81.45 893.55,-165.16 819.75,-212.41"/>
<polygon fill="#000000" stroke="#000000" points="817.65,-209.6 811.17,-217.98 821.47,-215.47 817.65,-209.6"/>
<text text-anchor="middle" x="1113.5" y="-211.7" font-family="Times,serif" font-size="32.00">laughing |</text>
<text text-anchor="middle" x="1113.5" y="-176.7" font-family="Times,serif" font-size="32.00"> danceing</text>
<text text-anchor="middle" x="1113.5" y="-141.7" font-family="Times,serif" font-size="32.00">=d prog</text>
</g>
<!-- 1 -->
<g id="node9" class="node">
<title>1</title>
<ellipse fill="none" stroke="black" cx="1113.5" cy="-517.3" rx="27" ry="30.31"/>
<text text-anchor="middle" x="1113.5" y="-509.2" font-family="Times,serif" font-size="32.00">1</text>
</g>
<!-- d&#45;&gt;1 -->
<g id="edge12" class="edge">
<title>d&#45;&gt;1</title>
<path fill="none" stroke="#f7931d" stroke-width="2" d="M1315.26,-363.91C1275.22,-394.5 1189.75,-459.8 1144.32,-494.51"/>
<polygon fill="#f7931d" stroke="#f7931d" stroke-width="2" points="1142.15,-491.77 1136.33,-500.62 1146.4,-497.33 1142.15,-491.77"/>
<text text-anchor="middle" x="1244" y="-496.7" font-family="Times,serif" font-size="32.00">hug</text>
<text text-anchor="middle" x="1244" y="-461.7" font-family="Times,serif" font-size="32.00">=d *k 1</text>
</g>
<!-- 2 -->
<g id="node10" class="node">
<title>2</title>
<ellipse fill="none" stroke="black" cx="1113.5" cy="-276.3" rx="27" ry="30.31"/>
<text text-anchor="middle" x="1113.5" y="-268.2" font-family="Times,serif" font-size="32.00">2</text>
</g>
<!-- d&#45;&gt;2 -->
<g id="edge16" class="edge">
<title>d&#45;&gt;2</title>
<path fill="none" stroke="#00b9f1" stroke-width="2" d="M1330.1,-318.12C1323.87,-298.89 1312.58,-275.15 1293,-263.3 1248.83,-236.57 1186.8,-250.01 1148.71,-262.74"/>
<polygon fill="#00b9f1" stroke="#00b9f1" stroke-width="2" points="1147.38,-259.5 1139.1,-266.11 1149.69,-266.11 1147.38,-259.5"/>
<text text-anchor="middle" x="1244" y="-307.7" font-family="Times,serif" font-size="32.00">praise</text>
<text text-anchor="middle" x="1244" y="-272.7" font-family="Times,serif" font-size="32.00">=d *k 2</text>
</g>
<!-- 0 -->
<g id="node4" class="node">
<title>0</title>
<ellipse fill="none" stroke="black" cx="271" cy="-691.3" rx="27" ry="30.31"/>
<text text-anchor="middle" x="271" y="-683.2" font-family="Times,serif" font-size="32.00">0</text>
</g>
<!-- 0&#45;&gt;t -->
<g id="edge2" class="edge">
<title>0&#45;&gt;t</title>
<path fill="none" stroke="#000000" d="M244.27,-686.47C204.82,-678.21 128.07,-658.74 72,-623.3 65.25,-619.03 58.76,-613.53 52.94,-607.85"/>
<polygon fill="#000000" stroke="#000000" points="55.43,-605.38 45.96,-600.63 50.4,-610.25 55.43,-605.38"/>
<text text-anchor="middle" x="149" y="-725.7" font-family="Times,serif" font-size="32.00">ε_0</text>
<text text-anchor="middle" x="149" y="-690.7" font-family="Times,serif" font-size="32.00">=&gt;0 =v +k t</text>
</g>
<!-- z1 -->
<g id="node5" class="node">
<title>z1</title>
<ellipse fill="none" stroke="black" stroke-dasharray="5,2" cx="478" cy="-696.3" rx="27" ry="18"/>
</g>
<!-- z1&#45;&gt;0 -->
<g id="edge3" class="edge">
<title>z1&#45;&gt;0</title>
<path fill="none" stroke="#000000" d="M450.62,-695.66C414.41,-694.77 349.16,-693.18 308.35,-692.19"/>
<polygon fill="#000000" stroke="#000000" points="308.36,-688.68 298.28,-691.94 308.19,-695.68 308.36,-688.68"/>
<text text-anchor="middle" x="363" y="-773.7" font-family="Times,serif" font-size="32.00">wills |</text>
<text text-anchor="middle" x="363" y="-738.7" font-family="Times,serif" font-size="32.00"> willd</text>
<text text-anchor="middle" x="363" y="-703.7" font-family="Times,serif" font-size="32.00">0</text>
</g>
<!-- v&#45;&gt;t -->
<g id="edge4" class="edge">
<title>v&#45;&gt;t</title>
<path fill="none" stroke="#000000" d="M244.12,-441.37C203.79,-450.32 125.06,-472.1 72,-514.3 62.02,-522.23 53.42,-533.03 46.53,-543.5"/>
<polygon fill="#000000" stroke="#000000" points="43.46,-541.81 41.15,-552.15 49.4,-545.5 43.46,-541.81"/>
<text text-anchor="middle" x="149" y="-593.7" font-family="Times,serif" font-size="32.00">s |</text>
<text text-anchor="middle" x="149" y="-558.7" font-family="Times,serif" font-size="32.00"> d</text>
<text text-anchor="middle" x="149" y="-523.7" font-family="Times,serif" font-size="32.00">=&gt;v +k t</text>
</g>
<!-- perf&#45;&gt;v -->
<g id="edge5" class="edge">
<title>perf&#45;&gt;v</title>
<path fill="none" stroke="#000000" d="M430.48,-417.74C393.33,-422.09 342.03,-428.1 307.98,-432.09"/>
<polygon fill="#000000" stroke="#000000" points="307.52,-428.62 298,-433.26 308.34,-435.57 307.52,-428.62"/>
<text text-anchor="middle" x="363" y="-474.7" font-family="Times,serif" font-size="32.00">have</text>
<text text-anchor="middle" x="363" y="-439.7" font-family="Times,serif" font-size="32.00">=perf v</text>
</g>
<!-- prog&#45;&gt;v -->
<g id="edge6" class="edge">
<title>prog&#45;&gt;v</title>
<path fill="none" stroke="#000000" d="M724.63,-239.69C677.56,-239.33 606.27,-241.6 546,-255.3 490.79,-267.85 476.38,-273.89 428,-303.3 378.31,-333.5 328.5,-379.33 298.96,-408.54"/>
<polygon fill="#000000" stroke="#000000" points="296.15,-406.4 291.54,-415.95 301.09,-411.36 296.15,-406.4"/>
<text text-anchor="middle" x="478" y="-347.7" font-family="Times,serif" font-size="32.00">be</text>
<text text-anchor="middle" x="478" y="-312.7" font-family="Times,serif" font-size="32.00">=prog v</text>
</g>
<!-- prog&#45;&gt;perf -->
<g id="edge7" class="edge">
<title>prog&#45;&gt;perf</title>
<path fill="none" stroke="#000000" d="M725.57,-247.51C660.04,-255.76 553.11,-269.92 546,-275.3 530.45,-287.06 536.4,-297.7 528,-315.3 518.59,-335.02 507.66,-356.75 498.52,-374.63"/>
<polygon fill="#000000" stroke="#000000" points="495.37,-373.11 493.92,-383.6 501.6,-376.3 495.37,-373.11"/>
<text text-anchor="middle" x="614" y="-319.7" font-family="Times,serif" font-size="32.00">ben</text>
<text text-anchor="middle" x="614" y="-284.7" font-family="Times,serif" font-size="32.00">=prog perf</text>
</g>
<!-- 1&#45;&gt;v -->
<g id="edge11" class="edge">
<title>1&#45;&gt;v</title>
<path fill="none" stroke="#f7931d" stroke-width="2" d="M1091.7,-535.9C1076.39,-548.3 1054.42,-563.51 1032,-570.3 956.28,-593.22 933.11,-571.08 854,-571.3 785.56,-571.49 767.82,-580.54 700,-571.3 691.77,-570.18 690.1,-568.11 682,-566.3 520.97,-530.39 453.81,-595.01 316,-504.3 304.21,-496.54 294.9,-484.4 287.93,-472.52"/>
<polygon fill="#f7931d" stroke="#f7931d" stroke-width="2" points="290.92,-470.68 283.07,-463.56 284.76,-474.02 290.92,-470.68"/>
<text text-anchor="middle" x="614" y="-610.7" font-family="Times,serif" font-size="32.00">ε_1</text>
<text text-anchor="middle" x="614" y="-575.7" font-family="Times,serif" font-size="32.00">=&gt;1 =d v</text>
</g>
<!-- 1&#45;&gt;perf -->
<g id="edge14" class="edge">
<title>1&#45;&gt;perf</title>
<path fill="none" stroke="#f7931d" stroke-width="2" d="M1088.54,-529.8C1042.31,-552.01 939.39,-591.92 872,-546.3 854.16,-534.22 870.31,-515.37 854,-501.3 841.78,-490.76 635.11,-445.58 533.93,-423.94"/>
<polygon fill="#f7931d" stroke="#f7931d" stroke-width="2" points="534.4,-420.46 523.89,-421.8 532.94,-427.31 534.4,-420.46"/>
<text text-anchor="middle" x="777" y="-545.7" font-family="Times,serif" font-size="32.00">n</text>
<text text-anchor="middle" x="777" y="-510.7" font-family="Times,serif" font-size="32.00">=&gt;1 =d perf</text>
</g>
<!-- 1&#45;&gt;prog -->
<g id="edge13" class="edge">
<title>1&#45;&gt;prog</title>
<path fill="none" stroke="#f7931d" stroke-width="2" d="M1089.42,-502.97C1073.78,-493.91 1052.33,-482.74 1032,-476.3 997.76,-465.45 897,-479.09 872,-453.3 846.95,-427.45 872.68,-323.07 854,-292.3 847.56,-281.69 837.97,-272.8 827.76,-265.58"/>
<polygon fill="#f7931d" stroke="#f7931d" stroke-width="2" points="829.37,-262.45 819.08,-259.9 825.53,-268.31 829.37,-262.45"/>
<text text-anchor="middle" x="952" y="-520.7" font-family="Times,serif" font-size="32.00">ing</text>
<text text-anchor="middle" x="952" y="-485.7" font-family="Times,serif" font-size="32.00">=&gt;1 =d prog</text>
</g>
<!-- 2&#45;&gt;v -->
<g id="edge15" class="edge">
<title>2&#45;&gt;v</title>
<path fill="none" stroke="#00b9f1" stroke-width="2" d="M1088.06,-265.72C1075.8,-259.69 1061.23,-251.32 1050,-241.3 1039.78,-232.18 1043.71,-223.39 1032,-216.3 846.24,-103.85 754.61,-106.03 546,-166.3 429.91,-199.84 391.36,-216.84 316,-311.3 296.3,-335.99 285.08,-370.14 278.9,-396.51"/>
<polygon fill="#00b9f1" stroke="#00b9f1" stroke-width="2" points="275.42,-396.04 276.7,-406.56 282.26,-397.54 275.42,-396.04"/>
<text text-anchor="middle" x="614" y="-210.7" font-family="Times,serif" font-size="32.00">ε_2</text>
<text text-anchor="middle" x="614" y="-175.7" font-family="Times,serif" font-size="32.00">=&gt;2 =d v</text>
</g>
<!-- 2&#45;&gt;perf -->
<g id="edge18" class="edge">
<title>2&#45;&gt;perf</title>
<path fill="none" stroke="#00b9f1" stroke-width="2" d="M1087.45,-285.22C1071.73,-290.45 1050.91,-296.72 1032,-300.3 886.5,-327.82 835.18,-267.85 700,-328.3 689.95,-332.79 691.45,-339.66 682,-345.3 635.67,-372.93 576.51,-390.78 534.03,-401.05"/>
<polygon fill="#00b9f1" stroke="#00b9f1" stroke-width="2" points="533.08,-397.68 524.14,-403.38 534.68,-404.5 533.08,-397.68"/>
<text text-anchor="middle" x="777" y="-372.7" font-family="Times,serif" font-size="32.00">n_1</text>
<text text-anchor="middle" x="777" y="-337.7" font-family="Times,serif" font-size="32.00">=&gt;2 =d perf</text>
</g>
<!-- 2&#45;&gt;prog -->
<g id="edge17" class="edge">
<title>2&#45;&gt;prog</title>
<path fill="none" stroke="#00b9f1" stroke-width="2" d="M1090.64,-259.62C1075.18,-248.92 1053.47,-236 1032,-230.3 966.61,-212.93 888.46,-220.31 836.28,-229.02"/>
<polygon fill="#00b9f1" stroke="#00b9f1" stroke-width="2" points="835.45,-225.61 826.2,-230.77 836.65,-232.51 835.45,-225.61"/>
<text text-anchor="middle" x="952" y="-274.7" font-family="Times,serif" font-size="32.00">ing_1</text>
<text text-anchor="middle" x="952" y="-239.7" font-family="Times,serif" font-size="32.00">=&gt;2 =d prog</text>
</g>
</g>
</svg>
