<?xml version="1.0" encoding="UTF-8" standalone="no"?>
<!DOCTYPE svg PUBLIC "-//W3C//DTD SVG 1.1//EN"
 "http://www.w3.org/Graphics/SVG/1.1/DTD/svg11.dtd">
<!-- Generated by graphviz version 2.47.1 (20210417.1919)
 -->
<!-- Title: G Pages: 1 -->
<svg width="1680pt" height="814pt"
 viewBox="0.00 0.00 1680.00 814.00" xmlns="http://www.w3.org/2000/svg" xmlns:xlink="http://www.w3.org/1999/xlink">
<g id="graph0" class="graph" transform="scale(1 1) rotate(0) translate(4 810)">
<title>G</title>
<polygon fill="white" stroke="transparent" points="-4,4 -4,-810 1676,-810 1676,4 -4,4"/>
<text text-anchor="middle" x="836" y="-13.4" font-family="Times,serif" font-size="32.00">decomposition: laughing =d prog, danceing =d prog, ing =&gt;1 =d prog, ing =&gt;2 =d prog</text>
<!-- t -->
<g id="node1" class="node">
<title>t</title>
<ellipse fill="lightgray" stroke="black" cx="27" cy="-595" rx="27" ry="30.31"/>
<text text-anchor="middle" x="27" y="-586.9" font-family="Times,serif" font-size="32.00">t</text>
</g>
<!-- z0 -->
<g id="node2" class="node">
<title>z0</title>
<ellipse fill="none" stroke="black" stroke-dasharray="5,2" cx="1645" cy="-474" rx="27" ry="18"/>
</g>
<!-- d -->
<g id="node3" class="node">
<title>d</title>
<ellipse fill="none" stroke="black" cx="1485" cy="-474" rx="27" ry="30.31"/>
<text text-anchor="middle" x="1485" y="-465.9" font-family="Times,serif" font-size="32.00">d</text>
</g>
<!-- z0&#45;&gt;d -->
<g id="edge1" class="edge">
<title>z0&#45;&gt;d</title>
<path fill="none" stroke="#000000" d="M1617.91,-474C1591.84,-474 1551.53,-474 1522.34,-474"/>
<polygon fill="#000000" stroke="#000000" points="1522.13,-470.5 1512.13,-474 1522.13,-477.5 1522.13,-470.5"/>
<text text-anchor="middle" x="1565" y="-518.4" font-family="Times,serif" font-size="32.00">Mary</text>
<text text-anchor="middle" x="1565" y="-483.4" font-family="Times,serif" font-size="32.00">d &#45;k</text>
</g>
<!-- v -->
<g id="node6" class="node">
<title>v</title>
<ellipse fill="none" stroke="black" cx="271" cy="-467" rx="27" ry="30.31"/>
<text text-anchor="middle" x="271" y="-458.9" font-family="Times,serif" font-size="32.00">v</text>
</g>
<!-- d&#45;&gt;v -->
<g id="edge8" class="edge">
<title>d&#45;&gt;v</title>
<path fill="none" stroke="#000000" d="M1478.39,-503.52C1472.46,-527.87 1460.95,-562.03 1440,-585 1392.32,-637.28 1368.76,-657 1298,-657 1298,-657 1298,-657 477,-657 393.46,-657 372.03,-621.96 316,-560 301.78,-544.28 291.29,-523.15 284.13,-505"/>
<polygon fill="#000000" stroke="#000000" points="287.37,-503.69 280.58,-495.56 280.82,-506.15 287.37,-503.69"/>
<text text-anchor="middle" x="916" y="-736.4" font-family="Times,serif" font-size="32.00">laugh |</text>
<text text-anchor="middle" x="916" y="-701.4" font-family="Times,serif" font-size="32.00"> dance</text>
<text text-anchor="middle" x="916" y="-666.4" font-family="Times,serif" font-size="32.00">=d v</text>
</g>
<!-- perf -->
<g id="node7" class="node">
<title>perf</title>
<ellipse fill="none" stroke="black" cx="478" cy="-447" rx="48.17" ry="30.31"/>
<text text-anchor="middle" x="478" y="-438.9" font-family="Times,serif" font-size="32.00">perf</text>
</g>
<!-- d&#45;&gt;perf -->
<g id="edge11" class="edge">
<title>d&#45;&gt;perf</title>
<path fill="none" stroke="#000000" d="M1458.44,-467.23C1415.91,-456.2 1327.78,-434.35 1252,-422 1192.03,-412.23 1176.68,-411.12 1116,-408 1070.73,-405.68 1054.35,-387.33 1014,-408 1001.81,-414.24 1008.1,-426.59 996,-433 917.82,-474.39 653.67,-460.36 536.18,-451.7"/>
<polygon fill="#000000" stroke="#000000" points="536.18,-448.19 525.95,-450.93 535.66,-455.17 536.18,-448.19"/>
<text text-anchor="middle" x="1065" y="-487.4" font-family="Times,serif" font-size="32.00">laughn |</text>
<text text-anchor="middle" x="1065" y="-452.4" font-family="Times,serif" font-size="32.00"> dancen</text>
<text text-anchor="middle" x="1065" y="-417.4" font-family="Times,serif" font-size="32.00">=d perf</text>
</g>
<!-- 2 -->
<g id="node11" class="node">
<title>2</title>
<ellipse fill="none" stroke="black" cx="1297" cy="-524" rx="27" ry="30.31"/>
<text text-anchor="middle" x="1297" y="-515.9" font-family="Times,serif" font-size="32.00">2</text>
</g>
<!-- d&#45;&gt;2 -->
<g id="edge13" class="edge">
<title>d&#45;&gt;2</title>
<path fill="none" stroke="#000000" d="M1458.53,-480.85C1426.06,-489.58 1369.77,-504.71 1333.21,-514.53"/>
<polygon fill="#000000" stroke="#000000" points="1332.21,-511.18 1323.46,-517.16 1334.03,-517.94 1332.21,-511.18"/>
<text text-anchor="middle" x="1391" y="-555.4" font-family="Times,serif" font-size="32.00">hug</text>
<text text-anchor="middle" x="1391" y="-520.4" font-family="Times,serif" font-size="32.00">=d *k 2</text>
</g>
<!-- 3 -->
<g id="node12" class="node">
<title>3</title>
<ellipse fill="none" stroke="black" cx="1297" cy="-289" rx="27" ry="30.31"/>
<text text-anchor="middle" x="1297" y="-280.9" font-family="Times,serif" font-size="32.00">3</text>
</g>
<!-- d&#45;&gt;3 -->
<g id="edge17" class="edge">
<title>d&#45;&gt;3</title>
<path fill="none" stroke="#000000" d="M1483.61,-443.58C1481.49,-409.62 1472.74,-355.34 1440,-324 1411.82,-297.03 1366.32,-289.82 1334.44,-288.37"/>
<polygon fill="#000000" stroke="#000000" points="1334.29,-284.87 1324.2,-288.08 1334.09,-291.87 1334.29,-284.87"/>
<text text-anchor="middle" x="1391" y="-368.4" font-family="Times,serif" font-size="32.00">praise</text>
<text text-anchor="middle" x="1391" y="-333.4" font-family="Times,serif" font-size="32.00">=d *k 3</text>
</g>
<!-- 0 -->
<g id="node4" class="node">
<title>0</title>
<ellipse fill="none" stroke="black" cx="271" cy="-699" rx="27" ry="30.31"/>
<text text-anchor="middle" x="271" y="-690.9" font-family="Times,serif" font-size="32.00">0</text>
</g>
<!-- 0&#45;&gt;t -->
<g id="edge2" class="edge">
<title>0&#45;&gt;t</title>
<path fill="none" stroke="#000000" d="M243.94,-695.52C204.39,-689.33 127.89,-673.74 72,-640 65.16,-635.87 58.64,-630.43 52.81,-624.76"/>
<polygon fill="#000000" stroke="#000000" points="55.29,-622.3 45.83,-617.54 50.26,-627.16 55.29,-622.3"/>
<text text-anchor="middle" x="149" y="-735.4" font-family="Times,serif" font-size="32.00">ε_0</text>
<text text-anchor="middle" x="149" y="-700.4" font-family="Times,serif" font-size="32.00">=&gt;0 =v +k t</text>
</g>
<!-- z1 -->
<g id="node5" class="node">
<title>z1</title>
<ellipse fill="none" stroke="black" stroke-dasharray="5,2" cx="478" cy="-703" rx="27" ry="18"/>
</g>
<!-- z1&#45;&gt;0 -->
<g id="edge3" class="edge">
<title>z1&#45;&gt;0</title>
<path fill="none" stroke="#000000" d="M450.62,-702.49C414.41,-701.78 349.16,-700.51 308.35,-699.71"/>
<polygon fill="#000000" stroke="#000000" points="308.35,-696.21 298.28,-699.51 308.21,-703.21 308.35,-696.21"/>
<text text-anchor="middle" x="363" y="-780.4" font-family="Times,serif" font-size="32.00">wills |</text>
<text text-anchor="middle" x="363" y="-745.4" font-family="Times,serif" font-size="32.00"> willd</text>
<text text-anchor="middle" x="363" y="-710.4" font-family="Times,serif" font-size="32.00">0</text>
</g>
<!-- v&#45;&gt;t -->
<g id="edge4" class="edge">
<title>v&#45;&gt;t</title>
<path fill="none" stroke="#000000" d="M243.81,-470.01C203.41,-475.76 125,-491.49 72,-531 61.78,-538.62 53.11,-549.34 46.24,-559.83"/>
<polygon fill="#000000" stroke="#000000" points="43.15,-558.16 40.89,-568.51 49.11,-561.83 43.15,-558.16"/>
<text text-anchor="middle" x="149" y="-610.4" font-family="Times,serif" font-size="32.00">s |</text>
<text text-anchor="middle" x="149" y="-575.4" font-family="Times,serif" font-size="32.00"> d</text>
<text text-anchor="middle" x="149" y="-540.4" font-family="Times,serif" font-size="32.00">=&gt;v +k t</text>
</g>
<!-- perf&#45;&gt;v -->
<g id="edge5" class="edge">
<title>perf&#45;&gt;v</title>
<path fill="none" stroke="#000000" d="M430.23,-451.56C393.06,-455.19 341.86,-460.18 307.89,-463.5"/>
<polygon fill="#000000" stroke="#000000" points="307.54,-460.02 297.93,-464.47 308.22,-466.98 307.54,-460.02"/>
<text text-anchor="middle" x="363" y="-507.4" font-family="Times,serif" font-size="32.00">have</text>
<text text-anchor="middle" x="363" y="-472.4" font-family="Times,serif" font-size="32.00">=perf v</text>
</g>
<!-- prog -->
<g id="node8" class="node">
<title>prog</title>
<ellipse fill="none" stroke="black" cx="759" cy="-337" rx="52.15" ry="30.31"/>
<text text-anchor="middle" x="759" y="-328.9" font-family="Times,serif" font-size="32.00">prog</text>
</g>
<!-- prog&#45;&gt;v -->
<g id="edge6" class="edge">
<title>prog&#45;&gt;v</title>
<path fill="none" stroke="#000000" d="M710.27,-325.82C643.88,-312.73 521.32,-297.59 428,-338 375.08,-360.92 325.91,-407.46 297.42,-437.92"/>
<polygon fill="#000000" stroke="#000000" points="294.83,-435.57 290.63,-445.29 299.98,-440.31 294.83,-435.57"/>
<text text-anchor="middle" x="478" y="-382.4" font-family="Times,serif" font-size="32.00">be</text>
<text text-anchor="middle" x="478" y="-347.4" font-family="Times,serif" font-size="32.00">=prog v</text>
</g>
<!-- prog&#45;&gt;perf -->
<g id="edge7" class="edge">
<title>prog&#45;&gt;perf</title>
<path fill="none" stroke="#000000" d="M707.31,-331.11C653.15,-325.87 571.61,-321.35 546,-338 529.65,-348.62 537.69,-361.08 528,-378 521.49,-389.37 513.57,-401.19 506.01,-411.76"/>
<polygon fill="#000000" stroke="#000000" points="503.11,-409.8 500.06,-419.95 508.77,-413.92 503.11,-409.8"/>
<text text-anchor="middle" x="614" y="-382.4" font-family="Times,serif" font-size="32.00">ben</text>
<text text-anchor="middle" x="614" y="-347.4" font-family="Times,serif" font-size="32.00">=prog perf</text>
</g>
<!-- 1 -->
<g id="node9" class="node">
<title>1</title>
<ellipse fill="none" stroke="black" cx="1065" cy="-277" rx="27" ry="30.31"/>
<text text-anchor="middle" x="1065" y="-268.9" font-family="Times,serif" font-size="32.00">1</text>
</g>
<!-- 1&#45;&gt;prog -->
<g id="edge9" class="edge">
<title>1&#45;&gt;prog</title>
<path fill="none" stroke="#f7931d" stroke-width="2" d="M1038.8,-268.98C995.01,-256.55 903.11,-237.3 836,-270 824.33,-275.69 827.25,-283.89 818,-293 812.86,-298.06 807.13,-303.05 801.33,-307.75"/>
<polygon fill="#f7931d" stroke="#f7931d" stroke-width="2" points="799.13,-305.03 793.42,-313.96 803.45,-310.54 799.13,-305.03"/>
<text text-anchor="middle" x="916" y="-314.4" font-family="Times,serif" font-size="32.00">ing</text>
<text text-anchor="middle" x="916" y="-279.4" font-family="Times,serif" font-size="32.00">=&gt;1 =d prog</text>
</g>
<!-- z2 -->
<g id="node10" class="node">
<title>z2</title>
<ellipse fill="none" stroke="black" stroke-dasharray="5,2" cx="1297" cy="-99" rx="27" ry="18"/>
</g>
<!-- z2&#45;&gt;1 -->
<g id="edge10" class="edge">
<title>z2&#45;&gt;1</title>
<path fill="none" stroke="#f7931d" stroke-width="2" d="M1270.93,-104.01C1236.69,-111.92 1174.9,-130.12 1134,-165 1110.31,-185.2 1092.52,-215.8 1081.09,-239.92"/>
<polygon fill="#f7931d" stroke="#f7931d" stroke-width="2" points="1077.85,-238.59 1076.87,-249.14 1084.21,-241.5 1077.85,-238.59"/>
<text text-anchor="middle" x="1193" y="-244.4" font-family="Times,serif" font-size="32.00">laugh_1 |</text>
<text text-anchor="middle" x="1193" y="-209.4" font-family="Times,serif" font-size="32.00"> dance_1</text>
<text text-anchor="middle" x="1193" y="-174.4" font-family="Times,serif" font-size="32.00">1</text>
</g>
<!-- 2&#45;&gt;v -->
<g id="edge12" class="edge">
<title>2&#45;&gt;v</title>
<path fill="none" stroke="#000000" d="M1271.71,-534.75C1265.4,-537.17 1258.54,-539.46 1252,-541 1140.76,-567.17 1110.15,-559.66 996,-565 920.46,-568.53 381.18,-575.34 316,-537 303.26,-529.5 293.64,-516.71 286.71,-504.09"/>
<polygon fill="#000000" stroke="#000000" points="289.76,-502.36 282.12,-495.01 283.51,-505.52 289.76,-502.36"/>
<text text-anchor="middle" x="759" y="-611.4" font-family="Times,serif" font-size="32.00">ε_1</text>
<text text-anchor="middle" x="759" y="-576.4" font-family="Times,serif" font-size="32.00">=&gt;2 =d v</text>
</g>
<!-- 2&#45;&gt;perf -->
<g id="edge15" class="edge">
<title>2&#45;&gt;perf</title>
<path fill="none" stroke="#000000" d="M1269.96,-526.07C1264.06,-526.46 1257.82,-526.8 1252,-527 1199.59,-528.78 1186.4,-529.18 1134,-527 1080.53,-524.78 1061.37,-541.91 1014,-517 1002.82,-511.12 1007.2,-500.84 996,-495 907.06,-448.67 645.29,-475.06 546,-461 541.9,-460.42 537.67,-459.74 533.42,-458.99"/>
<polygon fill="#000000" stroke="#000000" points="534.02,-455.54 523.55,-457.15 532.74,-462.42 534.02,-455.54"/>
<text text-anchor="middle" x="916" y="-539.4" font-family="Times,serif" font-size="32.00">n</text>
<text text-anchor="middle" x="916" y="-504.4" font-family="Times,serif" font-size="32.00">=&gt;2 =d perf</text>
</g>
<!-- 2&#45;&gt;1 -->
<g id="edge14" class="edge">
<title>2&#45;&gt;1</title>
<path fill="none" stroke="#f7931d" stroke-width="2" d="M1281.58,-498.71C1273.61,-485.67 1263.1,-469.85 1252,-457 1206.12,-403.87 1183.87,-401.41 1134,-352 1119.25,-337.39 1103.64,-320.29 1091.09,-306.12"/>
<polygon fill="#f7931d" stroke="#f7931d" stroke-width="2" points="1093.7,-303.78 1084.47,-298.57 1088.44,-308.4 1093.7,-303.78"/>
<text text-anchor="middle" x="1193" y="-501.4" font-family="Times,serif" font-size="32.00">ε_2</text>
<text text-anchor="middle" x="1193" y="-466.4" font-family="Times,serif" font-size="32.00">=&gt;2 1</text>
</g>
<!-- 3&#45;&gt;v -->
<g id="edge16" class="edge">
<title>3&#45;&gt;v</title>
<path fill="none" stroke="#000000" d="M1272.22,-276.65C1231.26,-256.55 1144.26,-219 1066,-219 1066,-219 1066,-219 477,-219 386.41,-219 369.16,-270.64 316,-344 297.91,-368.97 286.62,-402.11 280.02,-427.7"/>
<polygon fill="#000000" stroke="#000000" points="276.61,-426.9 277.63,-437.45 283.41,-428.57 276.61,-426.9"/>
<text text-anchor="middle" x="759" y="-263.4" font-family="Times,serif" font-size="32.00">ε_3</text>
<text text-anchor="middle" x="759" y="-228.4" font-family="Times,serif" font-size="32.00">=&gt;3 =d v</text>
</g>
<!-- 3&#45;&gt;perf -->
<g id="edge19" class="edge">
<title>3&#45;&gt;perf</title>
<path fill="none" stroke="#000000" d="M1283.25,-315.54C1275.92,-327.69 1265.47,-340.94 1252,-348 1088.16,-433.93 1010.98,-302.92 836,-363 826.67,-366.2 826.98,-371.9 818,-376 761.51,-401.79 742.73,-395.03 682,-408 632.34,-418.61 575.55,-429.41 534.69,-436.94"/>
<polygon fill="#000000" stroke="#000000" points="533.86,-433.53 524.66,-438.78 535.13,-440.42 533.86,-433.53"/>
<text text-anchor="middle" x="916" y="-407.4" font-family="Times,serif" font-size="32.00">n_1</text>
<text text-anchor="middle" x="916" y="-372.4" font-family="Times,serif" font-size="32.00">=&gt;3 =d perf</text>
</g>
<!-- 3&#45;&gt;1 -->
<g id="edge18" class="edge">
<title>3&#45;&gt;1</title>
<path fill="none" stroke="#f7931d" stroke-width="2" d="M1270.6,-281.55C1264.56,-280.09 1258.09,-278.77 1252,-278 1200.39,-271.51 1140.07,-272.79 1102.45,-274.63"/>
<polygon fill="#f7931d" stroke="#f7931d" stroke-width="2" points="1101.8,-271.16 1092,-275.19 1102.18,-278.15 1101.8,-271.16"/>
<text text-anchor="middle" x="1193" y="-322.4" font-family="Times,serif" font-size="32.00">ε_4</text>
<text text-anchor="middle" x="1193" y="-287.4" font-family="Times,serif" font-size="32.00">=&gt;3 1</text>
</g>
</g>
</svg>
