<?xml version="1.0" encoding="UTF-8" standalone="no"?>
<!DOCTYPE svg PUBLIC "-//W3C//DTD SVG 1.1//EN"
 "http://www.w3.org/Graphics/SVG/1.1/DTD/svg11.dtd">
<!-- Generated by graphviz version 2.47.1 (20210417.1919)
 -->
<!-- Title: G Pages: 1 -->
<svg width="1590pt" height="937pt"
 viewBox="0.00 0.00 1590.00 937.41" xmlns="http://www.w3.org/2000/svg" xmlns:xlink="http://www.w3.org/1999/xlink">
<g id="graph0" class="graph" transform="scale(1 1) rotate(0) translate(4 933.41)">
<title>G</title>
<polygon fill="white" stroke="transparent" points="-4,4 -4,-933.41 1586,-933.41 1586,4 -4,4"/>
<text text-anchor="middle" x="791" y="-48.4" font-family="Times,serif" font-size="32.00">decomposition: laugh =d v, laughn =d perf, laugh 1</text>
<text text-anchor="middle" x="791" y="-13.4" font-family="Times,serif" font-size="32.00">decomposition: dance =d v, dancen =d perf, dance 1</text>
<!-- t -->
<g id="node1" class="node">
<title>t</title>
<ellipse fill="lightgray" stroke="black" cx="27" cy="-651.41" rx="27" ry="30.31"/>
<text text-anchor="middle" x="27" y="-643.31" font-family="Times,serif" font-size="32.00">t</text>
</g>
<!-- z0 -->
<g id="node2" class="node">
<title>z0</title>
<ellipse fill="none" stroke="black" stroke-dasharray="5,2" cx="1555" cy="-421.41" rx="27" ry="18"/>
</g>
<!-- d -->
<g id="node3" class="node">
<title>d</title>
<ellipse fill="none" stroke="black" cx="1395" cy="-421.41" rx="27" ry="30.31"/>
<text text-anchor="middle" x="1395" y="-413.31" font-family="Times,serif" font-size="32.00">d</text>
</g>
<!-- z0&#45;&gt;d -->
<g id="edge1" class="edge">
<title>z0&#45;&gt;d</title>
<path fill="none" stroke="#000000" d="M1527.91,-421.41C1501.84,-421.41 1461.53,-421.41 1432.34,-421.41"/>
<polygon fill="#000000" stroke="#000000" points="1432.13,-417.91 1422.13,-421.41 1432.13,-424.91 1432.13,-417.91"/>
<text text-anchor="middle" x="1475" y="-465.81" font-family="Times,serif" font-size="32.00">Mary</text>
<text text-anchor="middle" x="1475" y="-430.81" font-family="Times,serif" font-size="32.00">d &#45;k</text>
</g>
<!-- 4 -->
<g id="node14" class="node">
<title>4</title>
<ellipse fill="none" stroke="black" cx="1207" cy="-518.41" rx="27" ry="30.31"/>
<text text-anchor="middle" x="1207" y="-510.31" font-family="Times,serif" font-size="32.00">4</text>
</g>
<!-- d&#45;&gt;4 -->
<g id="edge18" class="edge">
<title>d&#45;&gt;4</title>
<path fill="none" stroke="#000000" d="M1370.06,-433.89C1337.14,-451.06 1277.76,-482.03 1240.74,-501.33"/>
<polygon fill="#000000" stroke="#000000" points="1239.09,-498.24 1231.84,-505.97 1242.33,-504.45 1239.09,-498.24"/>
<text text-anchor="middle" x="1301" y="-538.81" font-family="Times,serif" font-size="32.00">hug</text>
<text text-anchor="middle" x="1301" y="-503.81" font-family="Times,serif" font-size="32.00">=d *k 4</text>
</g>
<!-- 5 -->
<g id="node15" class="node">
<title>5</title>
<ellipse fill="none" stroke="black" cx="1207" cy="-306.41" rx="27" ry="30.31"/>
<text text-anchor="middle" x="1207" y="-298.31" font-family="Times,serif" font-size="32.00">5</text>
</g>
<!-- d&#45;&gt;5 -->
<g id="edge22" class="edge">
<title>d&#45;&gt;5</title>
<path fill="none" stroke="#000000" d="M1377.14,-398.32C1369.59,-389.11 1360.12,-378.92 1350,-371.41 1316.96,-346.85 1273.16,-328.55 1242.99,-317.73"/>
<polygon fill="#000000" stroke="#000000" points="1243.91,-314.35 1233.31,-314.35 1241.6,-320.96 1243.91,-314.35"/>
<text text-anchor="middle" x="1301" y="-415.81" font-family="Times,serif" font-size="32.00">praise</text>
<text text-anchor="middle" x="1301" y="-380.81" font-family="Times,serif" font-size="32.00">=d *k 5</text>
</g>
<!-- 0 -->
<g id="node4" class="node">
<title>0</title>
<ellipse fill="none" stroke="black" cx="271" cy="-805.41" rx="27" ry="30.31"/>
<text text-anchor="middle" x="271" y="-797.31" font-family="Times,serif" font-size="32.00">0</text>
</g>
<!-- 0&#45;&gt;t -->
<g id="edge2" class="edge">
<title>0&#45;&gt;t</title>
<path fill="none" stroke="#000000" d="M245.46,-794.76C206.62,-777.29 129.48,-740.1 72,-696.41 65.64,-691.57 59.32,-685.83 53.54,-680.09"/>
<polygon fill="#000000" stroke="#000000" points="56.03,-677.62 46.55,-672.89 51.01,-682.5 56.03,-677.62"/>
<text text-anchor="middle" x="149" y="-828.81" font-family="Times,serif" font-size="32.00">ε_0</text>
<text text-anchor="middle" x="149" y="-793.81" font-family="Times,serif" font-size="32.00">=&gt;0 =v +k t</text>
</g>
<!-- z1 -->
<g id="node5" class="node">
<title>z1</title>
<ellipse fill="none" stroke="black" stroke-dasharray="5,2" cx="478" cy="-835.41" rx="27" ry="18"/>
</g>
<!-- z1&#45;&gt;0 -->
<g id="edge3" class="edge">
<title>z1&#45;&gt;0</title>
<path fill="none" stroke="#000000" d="M451.45,-831.67C415.31,-826.38 349.1,-816.69 308,-810.67"/>
<polygon fill="#000000" stroke="#000000" points="308.27,-807.18 297.87,-809.19 307.26,-814.1 308.27,-807.18"/>
<text text-anchor="middle" x="363" y="-903.81" font-family="Times,serif" font-size="32.00">wills |</text>
<text text-anchor="middle" x="363" y="-868.81" font-family="Times,serif" font-size="32.00"> willd</text>
<text text-anchor="middle" x="363" y="-833.81" font-family="Times,serif" font-size="32.00">0</text>
</g>
<!-- v -->
<g id="node6" class="node">
<title>v</title>
<ellipse fill="none" stroke="black" cx="271" cy="-467.41" rx="27" ry="30.31"/>
<text text-anchor="middle" x="271" y="-459.31" font-family="Times,serif" font-size="32.00">v</text>
</g>
<!-- v&#45;&gt;t -->
<g id="edge4" class="edge">
<title>v&#45;&gt;t</title>
<path fill="none" stroke="#000000" d="M245.56,-478.05C205.82,-496.2 126.22,-536.22 72,-587.41 62.81,-596.08 54.45,-606.99 47.54,-617.33"/>
<polygon fill="#000000" stroke="#000000" points="44.55,-615.51 42.1,-625.81 50.44,-619.29 44.55,-615.51"/>
<text text-anchor="middle" x="149" y="-666.81" font-family="Times,serif" font-size="32.00">s |</text>
<text text-anchor="middle" x="149" y="-631.81" font-family="Times,serif" font-size="32.00"> d</text>
<text text-anchor="middle" x="149" y="-596.81" font-family="Times,serif" font-size="32.00">=&gt;v +k t</text>
</g>
<!-- perf -->
<g id="node7" class="node">
<title>perf</title>
<ellipse fill="none" stroke="black" cx="478" cy="-467.41" rx="48.17" ry="30.31"/>
<text text-anchor="middle" x="478" y="-459.31" font-family="Times,serif" font-size="32.00">perf</text>
</g>
<!-- perf&#45;&gt;v -->
<g id="edge5" class="edge">
<title>perf&#45;&gt;v</title>
<path fill="none" stroke="#000000" d="M429.71,-467.41C392.79,-467.41 342.26,-467.41 308.44,-467.41"/>
<polygon fill="#000000" stroke="#000000" points="308.08,-463.91 298.08,-467.41 308.08,-470.91 308.08,-463.91"/>
<text text-anchor="middle" x="363" y="-511.81" font-family="Times,serif" font-size="32.00">have</text>
<text text-anchor="middle" x="363" y="-476.81" font-family="Times,serif" font-size="32.00">=perf v</text>
</g>
<!-- prog -->
<g id="node8" class="node">
<title>prog</title>
<ellipse fill="none" stroke="black" cx="759" cy="-382.41" rx="52.15" ry="30.31"/>
<text text-anchor="middle" x="759" y="-374.31" font-family="Times,serif" font-size="32.00">prog</text>
</g>
<!-- prog&#45;&gt;v -->
<g id="edge6" class="edge">
<title>prog&#45;&gt;v</title>
<path fill="none" stroke="#000000" d="M712.2,-368.6C647.32,-351.37 525.67,-327.66 428,-358.41 377.08,-374.43 328.3,-413.64 299.24,-440.39"/>
<polygon fill="#000000" stroke="#000000" points="296.83,-437.85 291.93,-447.24 301.62,-442.96 296.83,-437.85"/>
<text text-anchor="middle" x="478" y="-402.81" font-family="Times,serif" font-size="32.00">be</text>
<text text-anchor="middle" x="478" y="-367.81" font-family="Times,serif" font-size="32.00">=prog v</text>
</g>
<!-- prog&#45;&gt;perf -->
<g id="edge7" class="edge">
<title>prog&#45;&gt;perf</title>
<path fill="none" stroke="#000000" d="M707.31,-376.52C653.15,-371.28 571.61,-366.76 546,-383.41 529.65,-394.03 539.5,-407.66 528,-423.41 524.54,-428.14 520.51,-432.74 516.26,-437.07"/>
<polygon fill="#000000" stroke="#000000" points="513.76,-434.62 508.98,-444.08 518.61,-439.66 513.76,-434.62"/>
<text text-anchor="middle" x="614" y="-427.81" font-family="Times,serif" font-size="32.00">ben</text>
<text text-anchor="middle" x="614" y="-392.81" font-family="Times,serif" font-size="32.00">=prog perf</text>
</g>
<!-- 1 -->
<g id="node9" class="node">
<title>1</title>
<ellipse fill="none" stroke="black" cx="1207" cy="-146.41" rx="27" ry="30.31"/>
<text text-anchor="middle" x="1207" y="-138.31" font-family="Times,serif" font-size="32.00">1</text>
</g>
<!-- 1&#45;&gt;v -->
<g id="edge8" class="edge">
<title>1&#45;&gt;v</title>
<path fill="none" stroke="#f7931d" stroke-width="2" d="M1180.63,-139.84C1148.57,-132.14 1091.58,-120.41 1042,-120.41 1042,-120.41 1042,-120.41 477,-120.41 335.85,-120.41 289.86,-335.87 276.7,-427.23"/>
<polygon fill="#f7931d" stroke="#f7931d" stroke-width="2" points="273.22,-426.83 275.32,-437.22 280.16,-427.79 273.22,-426.83"/>
<text text-anchor="middle" x="759" y="-164.81" font-family="Times,serif" font-size="32.00">ε_1</text>
<text text-anchor="middle" x="759" y="-129.81" font-family="Times,serif" font-size="32.00">=&gt;1 =d v</text>
</g>
<!-- 1&#45;&gt;perf -->
<g id="edge12" class="edge">
<title>1&#45;&gt;perf</title>
<path fill="none" stroke="#f7931d" stroke-width="2" d="M1179.81,-146.71C1102.43,-148.55 869.68,-160.96 700,-242.41 620.27,-280.67 594.44,-294.41 546,-368.41 529.82,-393.13 544.98,-408.23 528,-432.41 526.08,-435.14 523.87,-437.74 521.48,-440.2"/>
<polygon fill="#f7931d" stroke="#f7931d" stroke-width="2" points="518.91,-437.8 513.85,-447.11 523.61,-442.99 518.91,-437.8"/>
<text text-anchor="middle" x="916" y="-237.81" font-family="Times,serif" font-size="32.00">n</text>
<text text-anchor="middle" x="916" y="-202.81" font-family="Times,serif" font-size="32.00">=&gt;1 =d perf</text>
</g>
<!-- 2 -->
<g id="node11" class="node">
<title>2</title>
<ellipse fill="none" stroke="black" cx="1041" cy="-374.41" rx="27" ry="30.31"/>
<text text-anchor="middle" x="1041" y="-366.31" font-family="Times,serif" font-size="32.00">2</text>
</g>
<!-- 1&#45;&gt;2 -->
<g id="edge11" class="edge">
<title>1&#45;&gt;2</title>
<path fill="none" stroke="#f7931d" stroke-width="2" d="M1180.5,-154.26C1153.11,-164 1110.28,-183.24 1086,-214.41 1059.13,-248.9 1048.65,-298.75 1044.58,-333.61"/>
<polygon fill="#f7931d" stroke="#f7931d" stroke-width="2" points="1041.06,-333.6 1043.51,-343.91 1048.02,-334.32 1041.06,-333.6"/>
<text text-anchor="middle" x="1124" y="-258.81" font-family="Times,serif" font-size="32.00">ε_2</text>
<text text-anchor="middle" x="1124" y="-223.81" font-family="Times,serif" font-size="32.00">=&gt;1 2</text>
</g>
<!-- z2 -->
<g id="node10" class="node">
<title>z2</title>
<ellipse fill="none" stroke="black" stroke-dasharray="5,2" cx="1395" cy="-146.41" rx="27" ry="18"/>
</g>
<!-- z2&#45;&gt;1 -->
<g id="edge9" class="edge">
<title>z2&#45;&gt;1</title>
<path fill="none" stroke="#f7931d" stroke-width="2" d="M1367.75,-146.41C1335.48,-146.41 1280.56,-146.41 1244.28,-146.41"/>
<polygon fill="#f7931d" stroke="#f7931d" stroke-width="2" points="1244.12,-142.91 1234.12,-146.41 1244.12,-149.91 1244.12,-142.91"/>
<text text-anchor="middle" x="1301" y="-190.81" font-family="Times,serif" font-size="32.00">laugh</text>
<text text-anchor="middle" x="1301" y="-155.81" font-family="Times,serif" font-size="32.00">1</text>
</g>
<!-- 2&#45;&gt;prog -->
<g id="edge10" class="edge">
<title>2&#45;&gt;prog</title>
<path fill="none" stroke="#000000" d="M1013.9,-373.81C975.08,-373.09 899.85,-372.31 836,-375.41 831,-375.65 825.82,-375.97 820.62,-376.35"/>
<polygon fill="#000000" stroke="#000000" points="820.35,-372.86 810.65,-377.12 820.89,-379.84 820.35,-372.86"/>
<text text-anchor="middle" x="916" y="-419.81" font-family="Times,serif" font-size="32.00">ing</text>
<text text-anchor="middle" x="916" y="-384.81" font-family="Times,serif" font-size="32.00">=&gt;2 =d prog</text>
</g>
<!-- 3 -->
<g id="node12" class="node">
<title>3</title>
<ellipse fill="none" stroke="black" cx="1207" cy="-704.41" rx="27" ry="30.31"/>
<text text-anchor="middle" x="1207" y="-696.31" font-family="Times,serif" font-size="32.00">3</text>
</g>
<!-- 3&#45;&gt;v -->
<g id="edge13" class="edge">
<title>3&#45;&gt;v</title>
<path fill="none" stroke="#00b9f1" stroke-width="2" d="M1185.5,-723.27C1156.07,-748.31 1099.08,-789.41 1042,-789.41 1042,-789.41 1042,-789.41 477,-789.41 344.7,-789.41 294.08,-593.59 278.2,-507.36"/>
<polygon fill="#00b9f1" stroke="#00b9f1" stroke-width="2" points="281.62,-506.64 276.43,-497.41 274.73,-507.87 281.62,-506.64"/>
<text text-anchor="middle" x="759" y="-833.81" font-family="Times,serif" font-size="32.00">ε_3</text>
<text text-anchor="middle" x="759" y="-798.81" font-family="Times,serif" font-size="32.00">=&gt;3 =d v</text>
</g>
<!-- 3&#45;&gt;perf -->
<g id="edge16" class="edge">
<title>3&#45;&gt;perf</title>
<path fill="none" stroke="#00b9f1" stroke-width="2" d="M1179.78,-704.24C1082.31,-703.47 744.16,-699.45 700,-680.41 612.58,-642.7 539.54,-553.88 503.39,-503.65"/>
<polygon fill="#00b9f1" stroke="#00b9f1" stroke-width="2" points="506.13,-501.47 497.49,-495.34 500.42,-505.52 506.13,-501.47"/>
<text text-anchor="middle" x="916" y="-744.81" font-family="Times,serif" font-size="32.00">n_1</text>
<text text-anchor="middle" x="916" y="-709.81" font-family="Times,serif" font-size="32.00">=&gt;3 =d perf</text>
</g>
<!-- 3&#45;&gt;2 -->
<g id="edge15" class="edge">
<title>3&#45;&gt;2</title>
<path fill="none" stroke="#00b9f1" stroke-width="2" d="M1193.33,-677.72C1185.04,-660.91 1173.61,-638.97 1162,-620.41 1131.82,-572.18 1111.62,-568.2 1086,-517.41 1069.26,-484.21 1057.48,-443.44 1050.36,-413.93"/>
<polygon fill="#00b9f1" stroke="#00b9f1" stroke-width="2" points="1053.72,-412.93 1048.03,-404 1046.9,-414.53 1053.72,-412.93"/>
<text text-anchor="middle" x="1124" y="-664.81" font-family="Times,serif" font-size="32.00">ε_4</text>
<text text-anchor="middle" x="1124" y="-629.81" font-family="Times,serif" font-size="32.00">=&gt;3 2</text>
</g>
<!-- z3 -->
<g id="node13" class="node">
<title>z3</title>
<ellipse fill="none" stroke="black" stroke-dasharray="5,2" cx="1395" cy="-704.41" rx="27" ry="18"/>
</g>
<!-- z3&#45;&gt;3 -->
<g id="edge14" class="edge">
<title>z3&#45;&gt;3</title>
<path fill="none" stroke="#00b9f1" stroke-width="2" d="M1367.75,-704.41C1335.48,-704.41 1280.56,-704.41 1244.28,-704.41"/>
<polygon fill="#00b9f1" stroke="#00b9f1" stroke-width="2" points="1244.12,-700.91 1234.12,-704.41 1244.12,-707.91 1244.12,-700.91"/>
<text text-anchor="middle" x="1301" y="-748.81" font-family="Times,serif" font-size="32.00">dance</text>
<text text-anchor="middle" x="1301" y="-713.81" font-family="Times,serif" font-size="32.00">3</text>
</g>
<!-- 4&#45;&gt;v -->
<g id="edge17" class="edge">
<title>4&#45;&gt;v</title>
<path fill="none" stroke="#000000" d="M1203.44,-548.69C1199.39,-575.45 1188.94,-612.99 1162,-631.41 1134.12,-650.47 1119.76,-632.48 1086,-631.41 741.62,-620.4 602.71,-732.49 316,-541.41 302.86,-532.65 293.08,-518.52 286.11,-504.95"/>
<polygon fill="#000000" stroke="#000000" points="289.18,-503.25 281.73,-495.71 282.85,-506.24 289.18,-503.25"/>
<text text-anchor="middle" x="759" y="-696.81" font-family="Times,serif" font-size="32.00">ε_5</text>
<text text-anchor="middle" x="759" y="-661.81" font-family="Times,serif" font-size="32.00">=&gt;4 =d v</text>
</g>
<!-- 4&#45;&gt;perf -->
<g id="edge20" class="edge">
<title>4&#45;&gt;perf</title>
<path fill="none" stroke="#000000" d="M1179.87,-521.7C1140.2,-526.52 1062.4,-535.25 996,-538.41 924.97,-541.78 906.78,-545.3 836,-538.41 705.26,-525.68 674.74,-507.51 546,-481.41 542.11,-480.62 538.1,-479.8 534.07,-478.97"/>
<polygon fill="#000000" stroke="#000000" points="534.54,-475.49 524.03,-476.89 533.12,-482.34 534.54,-475.49"/>
<text text-anchor="middle" x="916" y="-585.81" font-family="Times,serif" font-size="32.00">n_2</text>
<text text-anchor="middle" x="916" y="-550.81" font-family="Times,serif" font-size="32.00">=&gt;4 =d perf</text>
</g>
<!-- 4&#45;&gt;2 -->
<g id="edge19" class="edge">
<title>4&#45;&gt;2</title>
<path fill="none" stroke="#000000" d="M1194.47,-491.47C1186.89,-476.05 1175.83,-457.12 1162,-443.41 1137.33,-418.95 1102.27,-400.12 1076.41,-388.35"/>
<polygon fill="#000000" stroke="#000000" points="1077.55,-385.03 1066.99,-384.19 1074.72,-391.43 1077.55,-385.03"/>
<text text-anchor="middle" x="1124" y="-487.81" font-family="Times,serif" font-size="32.00">ε_6</text>
<text text-anchor="middle" x="1124" y="-452.81" font-family="Times,serif" font-size="32.00">=&gt;4 2</text>
</g>
<!-- 5&#45;&gt;v -->
<g id="edge21" class="edge">
<title>5&#45;&gt;v</title>
<path fill="none" stroke="#000000" d="M1182.34,-292.96C1175.9,-289.76 1168.82,-286.62 1162,-284.41 1110.58,-267.69 1096.07,-264.41 1042,-264.41 1042,-264.41 1042,-264.41 477,-264.41 393.46,-264.41 370.52,-298.11 316,-361.41 299.5,-380.56 288.55,-406.78 281.69,-428.34"/>
<polygon fill="#000000" stroke="#000000" points="278.26,-427.61 278.74,-438.19 284.97,-429.62 278.26,-427.61"/>
<text text-anchor="middle" x="759" y="-308.81" font-family="Times,serif" font-size="32.00">ε_7</text>
<text text-anchor="middle" x="759" y="-273.81" font-family="Times,serif" font-size="32.00">=&gt;5 =d v</text>
</g>
<!-- 5&#45;&gt;perf -->
<g id="edge24" class="edge">
<title>5&#45;&gt;perf</title>
<path fill="none" stroke="#000000" d="M1201.8,-336.26C1195.41,-376.88 1181.85,-446.27 1162,-461.41 1162,-461.41 701.27,-465.45 536.62,-466.9"/>
<polygon fill="#000000" stroke="#000000" points="536.18,-463.4 526.21,-466.99 536.25,-470.4 536.18,-463.4"/>
<text text-anchor="middle" x="916" y="-508.81" font-family="Times,serif" font-size="32.00">n_3</text>
<text text-anchor="middle" x="916" y="-473.81" font-family="Times,serif" font-size="32.00">=&gt;5 =d perf</text>
</g>
<!-- 5&#45;&gt;2 -->
<g id="edge23" class="edge">
<title>5&#45;&gt;2</title>
<path fill="none" stroke="#000000" d="M1181.2,-297.13C1155.57,-289.2 1115.3,-281.51 1086,-298.41 1071.59,-306.71 1061.47,-321.74 1054.6,-336.26"/>
<polygon fill="#000000" stroke="#000000" points="1051.3,-335.08 1050.55,-345.65 1057.73,-337.85 1051.3,-335.08"/>
<text text-anchor="middle" x="1124" y="-342.81" font-family="Times,serif" font-size="32.00">ε_8</text>
<text text-anchor="middle" x="1124" y="-307.81" font-family="Times,serif" font-size="32.00">=&gt;5 2</text>
</g>
</g>
</svg>
