<?xml version="1.0" encoding="UTF-8" standalone="no"?>
<!DOCTYPE svg PUBLIC "-//W3C//DTD SVG 1.1//EN"
 "http://www.w3.org/Graphics/SVG/1.1/DTD/svg11.dtd">
<!-- Generated by graphviz version 2.47.1 (20210417.1919)
 -->
<!-- Title: G Pages: 1 -->
<svg width="1577pt" height="998pt"
 viewBox="0.00 0.00 1576.65 998.44" xmlns="http://www.w3.org/2000/svg" xmlns:xlink="http://www.w3.org/1999/xlink">
<g id="graph0" class="graph" transform="scale(1 1) rotate(0) translate(4 994.44)">
<title>G</title>
<polygon fill="white" stroke="transparent" points="-4,4 -4,-994.44 1572.65,-994.44 1572.65,4 -4,4"/>
<text text-anchor="middle" x="784.33" y="-13.4" font-family="Times,serif" font-size="32.00">decomposition: &#160;=&gt;1 =d v, &#160;=&gt;3 =d v, &#160;=&gt;4 =d v, &#160;=&gt;5 =d v</text>
<!-- t -->
<g id="node1" class="node">
<title>t</title>
<ellipse fill="lightgray" stroke="black" cx="27" cy="-807.44" rx="27" ry="30.31"/>
<text text-anchor="middle" x="27" y="-799.34" font-family="Times,serif" font-size="32.00">t</text>
</g>
<!-- z0 -->
<g id="node2" class="node">
<title>z0</title>
<ellipse fill="none" stroke="black" stroke-dasharray="5,2" cx="1541.65" cy="-452.44" rx="27" ry="18"/>
</g>
<!-- d -->
<g id="node3" class="node">
<title>d</title>
<ellipse fill="none" stroke="black" cx="1381.65" cy="-452.44" rx="27" ry="30.31"/>
<text text-anchor="middle" x="1381.65" y="-444.34" font-family="Times,serif" font-size="32.00">d</text>
</g>
<!-- z0&#45;&gt;d -->
<g id="edge1" class="edge">
<title>z0&#45;&gt;d</title>
<path fill="none" stroke="#000000" d="M1514.56,-452.44C1488.49,-452.44 1448.19,-452.44 1418.99,-452.44"/>
<polygon fill="#000000" stroke="#000000" points="1418.78,-448.94 1408.78,-452.44 1418.78,-455.94 1418.78,-448.94"/>
<text text-anchor="middle" x="1461.65" y="-496.84" font-family="Times,serif" font-size="32.00">Mary</text>
<text text-anchor="middle" x="1461.65" y="-461.84" font-family="Times,serif" font-size="32.00">d &#45;k</text>
</g>
<!-- 5 -->
<g id="node15" class="node">
<title>5</title>
<ellipse fill="none" stroke="black" cx="1193.65" cy="-347.44" rx="27" ry="30.31"/>
<text text-anchor="middle" x="1193.65" y="-339.34" font-family="Times,serif" font-size="32.00">5</text>
</g>
<!-- d&#45;&gt;5 -->
<g id="edge19" class="edge">
<title>d&#45;&gt;5</title>
<path fill="none" stroke="#000000" d="M1357.09,-439.14C1324.11,-420.52 1264.06,-386.62 1226.93,-365.66"/>
<polygon fill="#000000" stroke="#000000" points="1228.45,-362.5 1218.02,-360.63 1225.01,-368.59 1228.45,-362.5"/>
<text text-anchor="middle" x="1287.65" y="-470.84" font-family="Times,serif" font-size="32.00">hug</text>
<text text-anchor="middle" x="1287.65" y="-435.84" font-family="Times,serif" font-size="32.00">=d *k 5</text>
</g>
<!-- 6 -->
<g id="node16" class="node">
<title>6</title>
<ellipse fill="none" stroke="black" cx="1193.65" cy="-557.44" rx="27" ry="30.31"/>
<text text-anchor="middle" x="1193.65" y="-549.34" font-family="Times,serif" font-size="32.00">6</text>
</g>
<!-- d&#45;&gt;6 -->
<g id="edge23" class="edge">
<title>d&#45;&gt;6</title>
<path fill="none" stroke="#000000" d="M1363.19,-475.54C1355.74,-484.22 1346.51,-493.62 1336.65,-500.44 1303.58,-523.32 1259.97,-539.07 1229.84,-548.12"/>
<polygon fill="#000000" stroke="#000000" points="1228.8,-544.78 1220.18,-550.94 1230.76,-551.5 1228.8,-544.78"/>
<text text-anchor="middle" x="1287.65" y="-588.84" font-family="Times,serif" font-size="32.00">praise</text>
<text text-anchor="middle" x="1287.65" y="-553.84" font-family="Times,serif" font-size="32.00">=d *k 6</text>
</g>
<!-- 0 -->
<g id="node4" class="node">
<title>0</title>
<ellipse fill="none" stroke="black" cx="271" cy="-876.44" rx="27" ry="30.31"/>
<text text-anchor="middle" x="271" y="-868.34" font-family="Times,serif" font-size="32.00">0</text>
</g>
<!-- 0&#45;&gt;t -->
<g id="edge2" class="edge">
<title>0&#45;&gt;t</title>
<path fill="none" stroke="#000000" d="M243.77,-878.59C204.33,-880.7 128.35,-880.26 72,-852.44 64.7,-848.83 57.92,-843.51 51.98,-837.78"/>
<polygon fill="#000000" stroke="#000000" points="54.36,-835.21 44.92,-830.4 49.3,-840.05 54.36,-835.21"/>
<text text-anchor="middle" x="149" y="-922.84" font-family="Times,serif" font-size="32.00">ε_0</text>
<text text-anchor="middle" x="149" y="-887.84" font-family="Times,serif" font-size="32.00">=&gt;0 =v +k t</text>
</g>
<!-- z1 -->
<g id="node5" class="node">
<title>z1</title>
<ellipse fill="none" stroke="black" stroke-dasharray="5,2" cx="478" cy="-877.44" rx="27" ry="18"/>
</g>
<!-- z1&#45;&gt;0 -->
<g id="edge3" class="edge">
<title>z1&#45;&gt;0</title>
<path fill="none" stroke="#000000" d="M450.62,-877.31C414.41,-877.13 349.16,-876.81 308.35,-876.61"/>
<polygon fill="#000000" stroke="#000000" points="308.3,-873.11 298.28,-876.57 308.26,-880.11 308.3,-873.11"/>
<text text-anchor="middle" x="363" y="-955.84" font-family="Times,serif" font-size="32.00">wills |</text>
<text text-anchor="middle" x="363" y="-920.84" font-family="Times,serif" font-size="32.00"> willd</text>
<text text-anchor="middle" x="363" y="-885.84" font-family="Times,serif" font-size="32.00">0</text>
</g>
<!-- v -->
<g id="node6" class="node">
<title>v</title>
<ellipse fill="none" stroke="black" cx="271" cy="-735.44" rx="27" ry="30.31"/>
<text text-anchor="middle" x="271" y="-727.34" font-family="Times,serif" font-size="32.00">v</text>
</g>
<!-- v&#45;&gt;t -->
<g id="edge4" class="edge">
<title>v&#45;&gt;t</title>
<path fill="none" stroke="#000000" d="M244.33,-729.6C204.61,-722 127.12,-713.01 72,-743.44 60.45,-749.81 51.3,-760.67 44.41,-771.64"/>
<polygon fill="#000000" stroke="#000000" points="41.33,-769.97 39.36,-780.38 47.39,-773.47 41.33,-769.97"/>
<text text-anchor="middle" x="149" y="-822.84" font-family="Times,serif" font-size="32.00">s |</text>
<text text-anchor="middle" x="149" y="-787.84" font-family="Times,serif" font-size="32.00"> d</text>
<text text-anchor="middle" x="149" y="-752.84" font-family="Times,serif" font-size="32.00">=&gt;v +k t</text>
</g>
<!-- perf -->
<g id="node7" class="node">
<title>perf</title>
<ellipse fill="none" stroke="black" cx="478" cy="-309.44" rx="48.17" ry="30.31"/>
<text text-anchor="middle" x="478" y="-301.34" font-family="Times,serif" font-size="32.00">perf</text>
</g>
<!-- perf&#45;&gt;v -->
<g id="edge5" class="edge">
<title>perf&#45;&gt;v</title>
<path fill="none" stroke="#000000" d="M463.07,-338.38C426.71,-413.95 328.98,-617.03 289.2,-699.7"/>
<polygon fill="#000000" stroke="#000000" points="285.94,-698.4 284.75,-708.93 292.24,-701.44 285.94,-698.4"/>
<text text-anchor="middle" x="363" y="-686.84" font-family="Times,serif" font-size="32.00">have</text>
<text text-anchor="middle" x="363" y="-651.84" font-family="Times,serif" font-size="32.00">=perf v</text>
</g>
<!-- prog -->
<g id="node8" class="node">
<title>prog</title>
<ellipse fill="none" stroke="black" cx="752.33" cy="-561.44" rx="52.15" ry="30.31"/>
<text text-anchor="middle" x="752.33" y="-553.34" font-family="Times,serif" font-size="32.00">prog</text>
</g>
<!-- prog&#45;&gt;v -->
<g id="edge6" class="edge">
<title>prog&#45;&gt;v</title>
<path fill="none" stroke="#000000" d="M714.31,-582.6C653.09,-616.58 525.97,-682.89 410,-716.44 376.32,-726.18 336.53,-730.98 308.35,-733.31"/>
<polygon fill="#000000" stroke="#000000" points="307.86,-729.84 298.15,-734.09 308.39,-736.82 307.86,-729.84"/>
<text text-anchor="middle" x="478" y="-753.84" font-family="Times,serif" font-size="32.00">be</text>
<text text-anchor="middle" x="478" y="-718.84" font-family="Times,serif" font-size="32.00">=prog v</text>
</g>
<!-- prog&#45;&gt;perf -->
<g id="edge7" class="edge">
<title>prog&#45;&gt;perf</title>
<path fill="none" stroke="#000000" d="M723.72,-535.89C673.61,-489.52 567.84,-391.65 513.23,-341.11"/>
<polygon fill="#000000" stroke="#000000" points="515.59,-338.53 505.88,-334.31 510.84,-343.67 515.59,-338.53"/>
<text text-anchor="middle" x="614" y="-537.84" font-family="Times,serif" font-size="32.00">ben</text>
<text text-anchor="middle" x="614" y="-502.84" font-family="Times,serif" font-size="32.00">=prog perf</text>
</g>
<!-- 1 -->
<g id="node9" class="node">
<title>1</title>
<ellipse fill="none" stroke="black" cx="1027.65" cy="-789.44" rx="27" ry="30.31"/>
<text text-anchor="middle" x="1027.65" y="-781.34" font-family="Times,serif" font-size="32.00">1</text>
</g>
<!-- 1&#45;&gt;v -->
<g id="edge8" class="edge">
<title>1&#45;&gt;v</title>
<path fill="none" stroke="#f7931d" stroke-width="2" d="M1000.47,-791.84C916.55,-798.98 647.02,-817.49 428,-783.44 384.92,-776.74 337.28,-760.76 306.12,-749.07"/>
<polygon fill="#f7931d" stroke="#f7931d" stroke-width="2" points="307.2,-745.73 296.6,-745.44 304.7,-752.27 307.2,-745.73"/>
<text text-anchor="middle" x="614" y="-846.84" font-family="Times,serif" font-size="32.00">ε_1</text>
<text text-anchor="middle" x="614" y="-811.84" font-family="Times,serif" font-size="32.00">=&gt;1 =d v</text>
</g>
<!-- 2 -->
<g id="node10" class="node">
<title>2</title>
<ellipse fill="none" stroke="black" cx="1193.65" cy="-231.44" rx="27" ry="30.31"/>
<text text-anchor="middle" x="1193.65" y="-223.34" font-family="Times,serif" font-size="32.00">2</text>
</g>
<!-- 2&#45;&gt;perf -->
<g id="edge13" class="edge">
<title>2&#45;&gt;perf</title>
<path fill="none" stroke="#000000" d="M1181.3,-204.06C1173.91,-189.13 1162.97,-171.32 1148.65,-159.44 1035.07,-65.22 968.29,-72.61 822.65,-96.44 694.64,-117.38 645.8,-106.57 546,-189.44 520.61,-210.52 503.09,-243.86 492.36,-270.05"/>
<polygon fill="#000000" stroke="#000000" points="488.97,-269.11 488.57,-279.7 495.48,-271.66 488.97,-269.11"/>
<text text-anchor="middle" x="902.65" y="-140.84" font-family="Times,serif" font-size="32.00">n</text>
<text text-anchor="middle" x="902.65" y="-105.84" font-family="Times,serif" font-size="32.00">=&gt;2 =d perf</text>
</g>
<!-- 2&#45;&gt;1 -->
<g id="edge9" class="edge">
<title>2&#45;&gt;1</title>
<path fill="none" stroke="#f7931d" stroke-width="2" d="M1182.31,-259.35C1177.17,-273.86 1171.12,-291.96 1166.65,-308.44 1156.32,-346.55 1175.99,-366.95 1148.65,-395.44 1124.54,-420.56 1095.38,-388.06 1072.65,-414.44 1045.55,-445.9 1059.48,-559.19 1054.65,-600.44 1048.63,-651.86 1040.27,-710.94 1034.67,-749.17"/>
<polygon fill="#f7931d" stroke="#f7931d" stroke-width="2" points="1031.16,-748.97 1033.17,-759.37 1038.09,-749.99 1031.16,-748.97"/>
<text text-anchor="middle" x="1110.65" y="-458.84" font-family="Times,serif" font-size="32.00">ε_2</text>
<text text-anchor="middle" x="1110.65" y="-423.84" font-family="Times,serif" font-size="32.00">=&gt;2 1</text>
</g>
<!-- 3 -->
<g id="node12" class="node">
<title>3</title>
<ellipse fill="none" stroke="black" cx="1027.65" cy="-561.44" rx="27" ry="30.31"/>
<text text-anchor="middle" x="1027.65" y="-553.34" font-family="Times,serif" font-size="32.00">3</text>
</g>
<!-- 2&#45;&gt;3 -->
<g id="edge12" class="edge">
<title>2&#45;&gt;3</title>
<path fill="none" stroke="#000000" d="M1167,-224.74C1139.89,-219.36 1097.69,-216.08 1072.65,-239.44 1032.66,-276.75 1028.01,-442.24 1028.1,-520.35"/>
<polygon fill="#000000" stroke="#000000" points="1024.6,-520.79 1028.14,-530.77 1031.6,-520.76 1024.6,-520.79"/>
<text text-anchor="middle" x="1110.65" y="-283.84" font-family="Times,serif" font-size="32.00">ε_3</text>
<text text-anchor="middle" x="1110.65" y="-248.84" font-family="Times,serif" font-size="32.00">=&gt;2 3</text>
</g>
<!-- z2 -->
<g id="node11" class="node">
<title>z2</title>
<ellipse fill="none" stroke="black" stroke-dasharray="5,2" cx="1381.65" cy="-231.44" rx="27" ry="18"/>
</g>
<!-- z2&#45;&gt;2 -->
<g id="edge10" class="edge">
<title>z2&#45;&gt;2</title>
<path fill="none" stroke="#000000" d="M1354.4,-231.44C1322.13,-231.44 1267.22,-231.44 1230.93,-231.44"/>
<polygon fill="#000000" stroke="#000000" points="1230.77,-227.94 1220.77,-231.44 1230.77,-234.94 1230.77,-227.94"/>
<text text-anchor="middle" x="1287.65" y="-275.84" font-family="Times,serif" font-size="32.00">laugh</text>
<text text-anchor="middle" x="1287.65" y="-240.84" font-family="Times,serif" font-size="32.00">2</text>
</g>
<!-- 3&#45;&gt;prog -->
<g id="edge11" class="edge">
<title>3&#45;&gt;prog</title>
<path fill="none" stroke="#000000" d="M1000.44,-561.44C958.03,-561.44 873.22,-561.44 814.88,-561.44"/>
<polygon fill="#000000" stroke="#000000" points="814.68,-557.94 804.68,-561.44 814.68,-564.94 814.68,-557.94"/>
<text text-anchor="middle" x="902.65" y="-605.84" font-family="Times,serif" font-size="32.00">ing</text>
<text text-anchor="middle" x="902.65" y="-570.84" font-family="Times,serif" font-size="32.00">=&gt;3 =d prog</text>
</g>
<!-- 4 -->
<g id="node13" class="node">
<title>4</title>
<ellipse fill="none" stroke="black" cx="1193.65" cy="-882.44" rx="27" ry="30.31"/>
<text text-anchor="middle" x="1193.65" y="-874.34" font-family="Times,serif" font-size="32.00">4</text>
</g>
<!-- 4&#45;&gt;perf -->
<g id="edge17" class="edge">
<title>4&#45;&gt;perf</title>
<path fill="none" stroke="#000000" d="M1182.98,-910.8C1176.04,-926.38 1165,-944.34 1148.65,-953.44 1119.14,-969.87 1104.75,-963.94 1072.65,-953.44 796.84,-863.18 708.95,-807.58 546,-567.44 500.45,-500.3 485.86,-404.12 481.2,-350.16"/>
<polygon fill="#000000" stroke="#000000" points="484.67,-349.65 480.39,-339.96 477.69,-350.2 484.67,-349.65"/>
<text text-anchor="middle" x="902.65" y="-964.84" font-family="Times,serif" font-size="32.00">n_1</text>
<text text-anchor="middle" x="902.65" y="-929.84" font-family="Times,serif" font-size="32.00">=&gt;4 =d perf</text>
</g>
<!-- 4&#45;&gt;1 -->
<g id="edge14" class="edge">
<title>4&#45;&gt;1</title>
<path fill="none" stroke="#f7931d" stroke-width="2" d="M1166.49,-883.53C1140.52,-883.35 1100.65,-879.54 1072.65,-860.44 1060.31,-852.02 1050.78,-838.88 1043.79,-826.19"/>
<polygon fill="#f7931d" stroke="#f7931d" stroke-width="2" points="1046.82,-824.41 1039.15,-817.09 1040.58,-827.59 1046.82,-824.41"/>
<text text-anchor="middle" x="1110.65" y="-926.84" font-family="Times,serif" font-size="32.00">ε_4</text>
<text text-anchor="middle" x="1110.65" y="-891.84" font-family="Times,serif" font-size="32.00">=&gt;4 1</text>
</g>
<!-- 4&#45;&gt;3 -->
<g id="edge16" class="edge">
<title>4&#45;&gt;3</title>
<path fill="none" stroke="#000000" d="M1193.57,-851.94C1193.18,-811.23 1186.62,-738.98 1148.65,-693.44 1125.07,-665.15 1098.8,-686.36 1072.65,-660.44 1056.2,-644.12 1045.39,-620.59 1038.61,-600.56"/>
<polygon fill="#000000" stroke="#000000" points="1041.86,-599.23 1035.5,-590.75 1035.18,-601.34 1041.86,-599.23"/>
<text text-anchor="middle" x="1110.65" y="-737.84" font-family="Times,serif" font-size="32.00">ε_5</text>
<text text-anchor="middle" x="1110.65" y="-702.84" font-family="Times,serif" font-size="32.00">=&gt;4 3</text>
</g>
<!-- z3 -->
<g id="node14" class="node">
<title>z3</title>
<ellipse fill="none" stroke="black" stroke-dasharray="5,2" cx="1381.65" cy="-882.44" rx="27" ry="18"/>
</g>
<!-- z3&#45;&gt;4 -->
<g id="edge15" class="edge">
<title>z3&#45;&gt;4</title>
<path fill="none" stroke="#000000" d="M1354.4,-882.44C1322.13,-882.44 1267.22,-882.44 1230.93,-882.44"/>
<polygon fill="#000000" stroke="#000000" points="1230.77,-878.94 1220.77,-882.44 1230.77,-885.94 1230.77,-878.94"/>
<text text-anchor="middle" x="1287.65" y="-926.84" font-family="Times,serif" font-size="32.00">dance</text>
<text text-anchor="middle" x="1287.65" y="-891.84" font-family="Times,serif" font-size="32.00">4</text>
</g>
<!-- 5&#45;&gt;perf -->
<g id="edge21" class="edge">
<title>5&#45;&gt;perf</title>
<path fill="none" stroke="#000000" d="M1182.38,-319.51C1177.26,-305 1171.2,-286.89 1166.65,-270.44 1156.6,-234.05 1177.09,-212.26 1148.65,-187.44 1092.9,-138.77 1056.6,-177.33 982.65,-174.44 785.66,-166.74 719.95,-159.68 546,-252.44 533.87,-258.91 521.98,-267.88 511.66,-276.79"/>
<polygon fill="#000000" stroke="#000000" points="509.23,-274.28 504.11,-283.55 513.89,-279.49 509.23,-274.28"/>
<text text-anchor="middle" x="902.65" y="-218.84" font-family="Times,serif" font-size="32.00">n_2</text>
<text text-anchor="middle" x="902.65" y="-183.84" font-family="Times,serif" font-size="32.00">=&gt;5 =d perf</text>
</g>
<!-- 5&#45;&gt;1 -->
<g id="edge18" class="edge">
<title>5&#45;&gt;1</title>
<path fill="none" stroke="#f7931d" stroke-width="2" d="M1191.54,-377.79C1188.69,-409.82 1179.23,-459.57 1148.65,-488.44 1123.33,-512.34 1096.14,-481.73 1072.65,-507.44 1068.59,-511.89 1045.28,-672.52 1034.33,-749.32"/>
<polygon fill="#f7931d" stroke="#f7931d" stroke-width="2" points="1030.81,-749.18 1032.87,-759.57 1037.74,-750.17 1030.81,-749.18"/>
<text text-anchor="middle" x="1110.65" y="-551.84" font-family="Times,serif" font-size="32.00">ε_6</text>
<text text-anchor="middle" x="1110.65" y="-516.84" font-family="Times,serif" font-size="32.00">=&gt;5 1</text>
</g>
<!-- 5&#45;&gt;3 -->
<g id="edge20" class="edge">
<title>5&#45;&gt;3</title>
<path fill="none" stroke="#000000" d="M1169.56,-333.37C1143.15,-319.28 1100.02,-302.7 1072.65,-325.44 1043.33,-349.8 1033.45,-459.83 1030.19,-520.67"/>
<polygon fill="#000000" stroke="#000000" points="1026.7,-520.55 1029.69,-530.71 1033.69,-520.9 1026.7,-520.55"/>
<text text-anchor="middle" x="1110.65" y="-369.84" font-family="Times,serif" font-size="32.00">ε_7</text>
<text text-anchor="middle" x="1110.65" y="-334.84" font-family="Times,serif" font-size="32.00">=&gt;5 3</text>
</g>
<!-- 6&#45;&gt;perf -->
<g id="edge25" class="edge">
<title>6&#45;&gt;perf</title>
<path fill="none" stroke="#000000" d="M1187.69,-527.53C1182.13,-493.44 1173.06,-436.02 1166.65,-386.44 1161.81,-348.98 1176.74,-242.69 1148.65,-217.44 1093.07,-167.46 1055.76,-228.86 982.65,-244.44 822.66,-278.52 630.01,-297.34 536.09,-305.12"/>
<polygon fill="#000000" stroke="#000000" points="535.63,-301.65 525.95,-305.95 536.2,-308.63 535.63,-301.65"/>
<text text-anchor="middle" x="902.65" y="-317.84" font-family="Times,serif" font-size="32.00">n_3</text>
<text text-anchor="middle" x="902.65" y="-282.84" font-family="Times,serif" font-size="32.00">=&gt;6 =d perf</text>
</g>
<!-- 6&#45;&gt;1 -->
<g id="edge22" class="edge">
<title>6&#45;&gt;1</title>
<path fill="none" stroke="#f7931d" stroke-width="2" d="M1190.37,-588.01C1185.83,-640.11 1173.85,-742.86 1148.65,-767.44 1142.63,-773.31 1097.9,-780.36 1064.8,-784.87"/>
<polygon fill="#f7931d" stroke="#f7931d" stroke-width="2" points="1063.98,-781.45 1054.53,-786.24 1064.9,-788.39 1063.98,-781.45"/>
<text text-anchor="middle" x="1110.65" y="-827.84" font-family="Times,serif" font-size="32.00">ε_8</text>
<text text-anchor="middle" x="1110.65" y="-792.84" font-family="Times,serif" font-size="32.00">=&gt;6 1</text>
</g>
<!-- 6&#45;&gt;3 -->
<g id="edge24" class="edge">
<title>6&#45;&gt;3</title>
<path fill="none" stroke="#000000" d="M1169.81,-572.69C1163.25,-576.27 1155.9,-579.59 1148.65,-581.44 1115.92,-589.78 1105.66,-588.59 1072.65,-581.44 1068.99,-580.64 1065.27,-579.52 1061.62,-578.2"/>
<polygon fill="#000000" stroke="#000000" points="1062.8,-574.91 1052.22,-574.37 1060.16,-581.39 1062.8,-574.91"/>
<text text-anchor="middle" x="1110.65" y="-630.84" font-family="Times,serif" font-size="32.00">ε_9</text>
<text text-anchor="middle" x="1110.65" y="-595.84" font-family="Times,serif" font-size="32.00">=&gt;6 3</text>
</g>
</g>
</svg>
