<?xml version="1.0" encoding="UTF-8" standalone="no"?>
<!DOCTYPE svg PUBLIC "-//W3C//DTD SVG 1.1//EN"
 "http://www.w3.org/Graphics/SVG/1.1/DTD/svg11.dtd">
<!-- Generated by graphviz version 2.47.1 (20210417.1919)
 -->
<!-- Title: G Pages: 1 -->
<svg width="1626pt" height="1190pt"
 viewBox="0.00 0.00 1626.00 1190.14" xmlns="http://www.w3.org/2000/svg" xmlns:xlink="http://www.w3.org/1999/xlink">
<g id="graph0" class="graph" transform="scale(1 1) rotate(0) translate(4 1186.14)">
<title>G</title>
<polygon fill="white" stroke="transparent" points="-4,4 -4,-1186.14 1622,-1186.14 1622,4 -4,4"/>
<text text-anchor="middle" x="809" y="-13.4" font-family="Times,serif" font-size="32.00">decomposition: n =&gt;2 =d perf, n =&gt;4 =d perf, n =&gt;5 =d perf, n =&gt;6 =d perf</text>
<!-- t -->
<g id="node1" class="node">
<title>t</title>
<ellipse fill="lightgray" stroke="black" cx="27" cy="-631.14" rx="27" ry="30.31"/>
<text text-anchor="middle" x="27" y="-623.04" font-family="Times,serif" font-size="32.00">t</text>
</g>
<!-- z0 -->
<g id="node2" class="node">
<title>z0</title>
<ellipse fill="none" stroke="black" stroke-dasharray="5,2" cx="1591" cy="-840.14" rx="27" ry="18"/>
</g>
<!-- d -->
<g id="node3" class="node">
<title>d</title>
<ellipse fill="none" stroke="black" cx="1431" cy="-840.14" rx="27" ry="30.31"/>
<text text-anchor="middle" x="1431" y="-832.04" font-family="Times,serif" font-size="32.00">d</text>
</g>
<!-- z0&#45;&gt;d -->
<g id="edge1" class="edge">
<title>z0&#45;&gt;d</title>
<path fill="none" stroke="#000000" d="M1563.91,-840.14C1537.84,-840.14 1497.53,-840.14 1468.34,-840.14"/>
<polygon fill="#000000" stroke="#000000" points="1468.13,-836.64 1458.13,-840.14 1468.13,-843.64 1468.13,-836.64"/>
<text text-anchor="middle" x="1511" y="-884.54" font-family="Times,serif" font-size="32.00">Mary</text>
<text text-anchor="middle" x="1511" y="-849.54" font-family="Times,serif" font-size="32.00">d &#45;k</text>
</g>
<!-- 6 -->
<g id="node16" class="node">
<title>6</title>
<ellipse fill="none" stroke="black" cx="1243" cy="-979.14" rx="27" ry="30.31"/>
<text text-anchor="middle" x="1243" y="-971.04" font-family="Times,serif" font-size="32.00">6</text>
</g>
<!-- d&#45;&gt;6 -->
<g id="edge20" class="edge">
<title>d&#45;&gt;6</title>
<path fill="none" stroke="#000000" d="M1407.93,-856.63C1374.65,-881.5 1311.54,-928.67 1274.07,-956.67"/>
<polygon fill="#000000" stroke="#000000" points="1271.95,-953.88 1266.04,-962.67 1276.14,-959.49 1271.95,-953.88"/>
<text text-anchor="middle" x="1337" y="-989.54" font-family="Times,serif" font-size="32.00">hug</text>
<text text-anchor="middle" x="1337" y="-954.54" font-family="Times,serif" font-size="32.00">=d *k 6</text>
</g>
<!-- 7 -->
<g id="node17" class="node">
<title>7</title>
<ellipse fill="none" stroke="black" cx="1243" cy="-654.14" rx="27" ry="30.31"/>
<text text-anchor="middle" x="1243" y="-646.04" font-family="Times,serif" font-size="32.00">7</text>
</g>
<!-- d&#45;&gt;7 -->
<g id="edge24" class="edge">
<title>d&#45;&gt;7</title>
<path fill="none" stroke="#000000" d="M1410.09,-820.24C1376.53,-786.67 1308.66,-718.8 1270.89,-681.04"/>
<polygon fill="#000000" stroke="#000000" points="1273.31,-678.5 1263.76,-673.9 1268.36,-683.45 1273.31,-678.5"/>
<text text-anchor="middle" x="1337" y="-839.54" font-family="Times,serif" font-size="32.00">praise</text>
<text text-anchor="middle" x="1337" y="-804.54" font-family="Times,serif" font-size="32.00">=d *k 7</text>
</g>
<!-- 0 -->
<g id="node4" class="node">
<title>0</title>
<ellipse fill="none" stroke="black" cx="271" cy="-700.14" rx="27" ry="30.31"/>
<text text-anchor="middle" x="271" y="-692.04" font-family="Times,serif" font-size="32.00">0</text>
</g>
<!-- 0&#45;&gt;t -->
<g id="edge2" class="edge">
<title>0&#45;&gt;t</title>
<path fill="none" stroke="#000000" d="M243.77,-702.3C204.33,-704.4 128.35,-703.97 72,-676.14 64.7,-672.54 57.92,-667.22 51.98,-661.48"/>
<polygon fill="#000000" stroke="#000000" points="54.36,-658.91 44.92,-654.1 49.3,-663.75 54.36,-658.91"/>
<text text-anchor="middle" x="149" y="-746.54" font-family="Times,serif" font-size="32.00">ε_0</text>
<text text-anchor="middle" x="149" y="-711.54" font-family="Times,serif" font-size="32.00">=&gt;0 =v +k t</text>
</g>
<!-- z1 -->
<g id="node5" class="node">
<title>z1</title>
<ellipse fill="none" stroke="black" stroke-dasharray="5,2" cx="478" cy="-701.14" rx="27" ry="18"/>
</g>
<!-- z1&#45;&gt;0 -->
<g id="edge3" class="edge">
<title>z1&#45;&gt;0</title>
<path fill="none" stroke="#000000" d="M450.62,-701.01C414.41,-700.84 349.16,-700.52 308.35,-700.32"/>
<polygon fill="#000000" stroke="#000000" points="308.3,-696.82 298.28,-700.27 308.26,-703.82 308.3,-696.82"/>
<text text-anchor="middle" x="363" y="-779.54" font-family="Times,serif" font-size="32.00">wills |</text>
<text text-anchor="middle" x="363" y="-744.54" font-family="Times,serif" font-size="32.00"> willd</text>
<text text-anchor="middle" x="363" y="-709.54" font-family="Times,serif" font-size="32.00">0</text>
</g>
<!-- v -->
<g id="node6" class="node">
<title>v</title>
<ellipse fill="none" stroke="black" cx="271" cy="-559.14" rx="27" ry="30.31"/>
<text text-anchor="middle" x="271" y="-551.04" font-family="Times,serif" font-size="32.00">v</text>
</g>
<!-- v&#45;&gt;t -->
<g id="edge4" class="edge">
<title>v&#45;&gt;t</title>
<path fill="none" stroke="#000000" d="M244.33,-553.3C204.61,-545.7 127.12,-536.71 72,-567.14 60.45,-573.52 51.3,-584.37 44.41,-595.34"/>
<polygon fill="#000000" stroke="#000000" points="41.33,-593.68 39.36,-604.09 47.39,-597.18 41.33,-593.68"/>
<text text-anchor="middle" x="149" y="-646.54" font-family="Times,serif" font-size="32.00">s |</text>
<text text-anchor="middle" x="149" y="-611.54" font-family="Times,serif" font-size="32.00"> d</text>
<text text-anchor="middle" x="149" y="-576.54" font-family="Times,serif" font-size="32.00">=&gt;v +k t</text>
</g>
<!-- perf -->
<g id="node7" class="node">
<title>perf</title>
<ellipse fill="none" stroke="black" cx="478" cy="-472.14" rx="48.17" ry="30.31"/>
<text text-anchor="middle" x="478" y="-464.04" font-family="Times,serif" font-size="32.00">perf</text>
</g>
<!-- perf&#45;&gt;v -->
<g id="edge5" class="edge">
<title>perf&#45;&gt;v</title>
<path fill="none" stroke="#000000" d="M433.32,-460.81C398.88,-454.46 350.99,-451.59 316,-473.14 299.13,-483.53 288.46,-502.64 281.86,-520.22"/>
<polygon fill="#000000" stroke="#000000" points="278.52,-519.16 278.6,-529.76 285.15,-521.43 278.52,-519.16"/>
<text text-anchor="middle" x="363" y="-517.54" font-family="Times,serif" font-size="32.00">have</text>
<text text-anchor="middle" x="363" y="-482.54" font-family="Times,serif" font-size="32.00">=perf v</text>
</g>
<!-- prog -->
<g id="node8" class="node">
<title>prog</title>
<ellipse fill="none" stroke="black" cx="777" cy="-514.14" rx="52.15" ry="30.31"/>
<text text-anchor="middle" x="777" y="-506.04" font-family="Times,serif" font-size="32.00">prog</text>
</g>
<!-- prog&#45;&gt;v -->
<g id="edge6" class="edge">
<title>prog&#45;&gt;v</title>
<path fill="none" stroke="#000000" d="M732.11,-530.27C716.5,-535.31 698.67,-540.3 682,-543.14 545.75,-566.41 380.5,-563.6 308.48,-560.87"/>
<polygon fill="#000000" stroke="#000000" points="308.28,-557.36 298.15,-560.46 308,-564.36 308.28,-557.36"/>
<text text-anchor="middle" x="478" y="-606.54" font-family="Times,serif" font-size="32.00">be</text>
<text text-anchor="middle" x="478" y="-571.54" font-family="Times,serif" font-size="32.00">=prog v</text>
</g>
<!-- prog&#45;&gt;perf -->
<g id="edge7" class="edge">
<title>prog&#45;&gt;perf</title>
<path fill="none" stroke="#000000" d="M738.3,-493.51C721.58,-485.48 701.34,-477.22 682,-473.14 633.36,-462.87 576.7,-463.61 535.61,-466.35"/>
<polygon fill="#000000" stroke="#000000" points="535.24,-462.87 525.52,-467.09 535.75,-469.85 535.24,-462.87"/>
<text text-anchor="middle" x="614" y="-517.54" font-family="Times,serif" font-size="32.00">ben</text>
<text text-anchor="middle" x="614" y="-482.54" font-family="Times,serif" font-size="32.00">=prog perf</text>
</g>
<!-- 1 -->
<g id="node9" class="node">
<title>1</title>
<ellipse fill="none" stroke="black" cx="1077" cy="-840.14" rx="27" ry="30.31"/>
<text text-anchor="middle" x="1077" y="-832.04" font-family="Times,serif" font-size="32.00">1</text>
</g>
<!-- 1&#45;&gt;v -->
<g id="edge8" class="edge">
<title>1&#45;&gt;v</title>
<path fill="none" stroke="#000000" d="M1050.47,-832.68C945.78,-801.98 549.22,-684.8 428,-636.14 384.18,-618.55 335.71,-593.73 304.6,-577.07"/>
<polygon fill="#000000" stroke="#000000" points="305.99,-573.84 295.53,-572.18 302.67,-580.01 305.99,-573.84"/>
<text text-anchor="middle" x="614" y="-763.54" font-family="Times,serif" font-size="32.00">ε_1</text>
<text text-anchor="middle" x="614" y="-728.54" font-family="Times,serif" font-size="32.00">=&gt;1 =d v</text>
</g>
<!-- 2 -->
<g id="node10" class="node">
<title>2</title>
<ellipse fill="none" stroke="black" cx="1243" cy="-375.14" rx="27" ry="30.31"/>
<text text-anchor="middle" x="1243" y="-367.04" font-family="Times,serif" font-size="32.00">2</text>
</g>
<!-- 2&#45;&gt;1 -->
<g id="edge9" class="edge">
<title>2&#45;&gt;1</title>
<path fill="none" stroke="#000000" d="M1227.45,-400.18C1222.98,-409.05 1218.57,-419.27 1216,-429.14 1207.7,-461.03 1219.06,-699.8 1198,-725.14 1175.75,-751.92 1148.79,-721.9 1122,-744.14 1104.62,-758.57 1093.78,-781.34 1087.21,-801.09"/>
<polygon fill="#000000" stroke="#000000" points="1083.82,-800.19 1084.23,-810.78 1090.52,-802.25 1083.82,-800.19"/>
<text text-anchor="middle" x="1160" y="-788.54" font-family="Times,serif" font-size="32.00">ε_2</text>
<text text-anchor="middle" x="1160" y="-753.54" font-family="Times,serif" font-size="32.00">=&gt;2 1</text>
</g>
<!-- 3 -->
<g id="node12" class="node">
<title>3</title>
<ellipse fill="none" stroke="black" cx="1077" cy="-514.14" rx="27" ry="30.31"/>
<text text-anchor="middle" x="1077" y="-506.04" font-family="Times,serif" font-size="32.00">3</text>
</g>
<!-- 2&#45;&gt;3 -->
<g id="edge12" class="edge">
<title>2&#45;&gt;3</title>
<path fill="none" stroke="#000000" d="M1216.14,-369.77C1189.66,-365.84 1148.7,-364.31 1122,-385.14 1095.13,-406.11 1084.57,-444.31 1080.47,-473.72"/>
<polygon fill="#000000" stroke="#000000" points="1076.99,-473.37 1079.27,-483.71 1083.94,-474.2 1076.99,-473.37"/>
<text text-anchor="middle" x="1160" y="-429.54" font-family="Times,serif" font-size="32.00">ε_3</text>
<text text-anchor="middle" x="1160" y="-394.54" font-family="Times,serif" font-size="32.00">=&gt;2 3</text>
</g>
<!-- 4 -->
<g id="node13" class="node">
<title>4</title>
<ellipse fill="none" stroke="black" cx="1077" cy="-282.14" rx="27" ry="30.31"/>
<text text-anchor="middle" x="1077" y="-274.04" font-family="Times,serif" font-size="32.00">4</text>
</g>
<!-- 2&#45;&gt;4 -->
<g id="edge14" class="edge">
<title>2&#45;&gt;4</title>
<path fill="none" stroke="#f7931d" stroke-width="2" d="M1241.93,-344.63C1241.05,-279.19 1234.97,-128.72 1198,-97.14 1172.32,-75.2 1148.5,-76.2 1122,-97.14 1099.63,-114.82 1087.42,-192.85 1081.84,-241.75"/>
<polygon fill="#f7931d" stroke="#f7931d" stroke-width="2" points="1078.36,-241.39 1080.75,-251.71 1085.31,-242.15 1078.36,-241.39"/>
<text text-anchor="middle" x="1160" y="-141.54" font-family="Times,serif" font-size="32.00">ε_4</text>
<text text-anchor="middle" x="1160" y="-106.54" font-family="Times,serif" font-size="32.00">=&gt;2 4</text>
</g>
<!-- z2 -->
<g id="node11" class="node">
<title>z2</title>
<ellipse fill="none" stroke="black" stroke-dasharray="5,2" cx="1431" cy="-375.14" rx="27" ry="18"/>
</g>
<!-- z2&#45;&gt;2 -->
<g id="edge10" class="edge">
<title>z2&#45;&gt;2</title>
<path fill="none" stroke="#000000" d="M1403.75,-375.14C1371.48,-375.14 1316.56,-375.14 1280.28,-375.14"/>
<polygon fill="#000000" stroke="#000000" points="1280.12,-371.64 1270.12,-375.14 1280.12,-378.64 1280.12,-371.64"/>
<text text-anchor="middle" x="1337" y="-419.54" font-family="Times,serif" font-size="32.00">laugh</text>
<text text-anchor="middle" x="1337" y="-384.54" font-family="Times,serif" font-size="32.00">2</text>
</g>
<!-- 3&#45;&gt;prog -->
<g id="edge11" class="edge">
<title>3&#45;&gt;prog</title>
<path fill="none" stroke="#000000" d="M1049.82,-514.14C1003.1,-514.14 904.24,-514.14 839.5,-514.14"/>
<polygon fill="#000000" stroke="#000000" points="839.42,-510.64 829.42,-514.14 839.42,-517.64 839.42,-510.64"/>
<text text-anchor="middle" x="952" y="-558.54" font-family="Times,serif" font-size="32.00">ing</text>
<text text-anchor="middle" x="952" y="-523.54" font-family="Times,serif" font-size="32.00">=&gt;3 =d prog</text>
</g>
<!-- 4&#45;&gt;perf -->
<g id="edge13" class="edge">
<title>4&#45;&gt;perf</title>
<path fill="none" stroke="#f7931d" stroke-width="2" d="M1050.73,-290.18C960.62,-318.86 653.91,-416.48 530.78,-455.66"/>
<polygon fill="#f7931d" stroke="#f7931d" stroke-width="2" points="529.65,-452.35 521.19,-458.72 531.78,-459.02 529.65,-452.35"/>
<text text-anchor="middle" x="777" y="-443.54" font-family="Times,serif" font-size="32.00">n</text>
<text text-anchor="middle" x="777" y="-408.54" font-family="Times,serif" font-size="32.00">=&gt;4 =d perf</text>
</g>
<!-- 5 -->
<g id="node14" class="node">
<title>5</title>
<ellipse fill="none" stroke="black" cx="1243" cy="-468.14" rx="27" ry="30.31"/>
<text text-anchor="middle" x="1243" y="-460.04" font-family="Times,serif" font-size="32.00">5</text>
</g>
<!-- 5&#45;&gt;1 -->
<g id="edge15" class="edge">
<title>5&#45;&gt;1</title>
<path fill="none" stroke="#000000" d="M1236.02,-497.59C1230.19,-527.18 1221.43,-574.16 1216,-615.14 1213.03,-637.59 1213.25,-801.4 1198,-818.14 1192.34,-824.36 1147.52,-831.33 1114.3,-835.72"/>
<polygon fill="#000000" stroke="#000000" points="1113.46,-832.3 1103.99,-837.06 1114.36,-839.25 1113.46,-832.3"/>
<text text-anchor="middle" x="1160" y="-878.54" font-family="Times,serif" font-size="32.00">ε_5</text>
<text text-anchor="middle" x="1160" y="-843.54" font-family="Times,serif" font-size="32.00">=&gt;5 1</text>
</g>
<!-- 5&#45;&gt;3 -->
<g id="edge17" class="edge">
<title>5&#45;&gt;3</title>
<path fill="none" stroke="#000000" d="M1216.02,-462.8C1190.9,-458.89 1152.29,-456.25 1122,-469.14 1114.51,-472.33 1107.65,-477.48 1101.69,-483.17"/>
<polygon fill="#000000" stroke="#000000" points="1099,-480.92 1094.64,-490.57 1104.07,-485.74 1099,-480.92"/>
<text text-anchor="middle" x="1160" y="-513.54" font-family="Times,serif" font-size="32.00">ε_6</text>
<text text-anchor="middle" x="1160" y="-478.54" font-family="Times,serif" font-size="32.00">=&gt;5 3</text>
</g>
<!-- 5&#45;&gt;4 -->
<g id="edge18" class="edge">
<title>5&#45;&gt;4</title>
<path fill="none" stroke="#f7931d" stroke-width="2" d="M1227.56,-443.07C1223.1,-434.2 1218.67,-423.98 1216,-414.14 1209.47,-390.04 1216.35,-207.08 1198,-190.14 1173.18,-167.23 1150.58,-172.13 1122,-190.14 1103.63,-201.72 1092.77,-223.31 1086.43,-242.67"/>
<polygon fill="#f7931d" stroke="#f7931d" stroke-width="2" points="1082.99,-241.95 1083.51,-252.53 1089.71,-243.93 1082.99,-241.95"/>
<text text-anchor="middle" x="1160" y="-234.54" font-family="Times,serif" font-size="32.00">ε_7</text>
<text text-anchor="middle" x="1160" y="-199.54" font-family="Times,serif" font-size="32.00">=&gt;5 4</text>
</g>
<!-- z3 -->
<g id="node15" class="node">
<title>z3</title>
<ellipse fill="none" stroke="black" stroke-dasharray="5,2" cx="1431" cy="-468.14" rx="27" ry="18"/>
</g>
<!-- z3&#45;&gt;5 -->
<g id="edge16" class="edge">
<title>z3&#45;&gt;5</title>
<path fill="none" stroke="#000000" d="M1403.75,-468.14C1371.48,-468.14 1316.56,-468.14 1280.28,-468.14"/>
<polygon fill="#000000" stroke="#000000" points="1280.12,-464.64 1270.12,-468.14 1280.12,-471.64 1280.12,-464.64"/>
<text text-anchor="middle" x="1337" y="-512.54" font-family="Times,serif" font-size="32.00">dance</text>
<text text-anchor="middle" x="1337" y="-477.54" font-family="Times,serif" font-size="32.00">5</text>
</g>
<!-- 6&#45;&gt;1 -->
<g id="edge19" class="edge">
<title>6&#45;&gt;1</title>
<path fill="none" stroke="#000000" d="M1240.03,-1009.38C1236.42,-1037.36 1226.29,-1077.5 1198,-1097.14 1170.26,-1116.41 1147.82,-1118.92 1122,-1097.14 1089.79,-1069.98 1081.16,-946.45 1078.85,-881.05"/>
<polygon fill="#000000" stroke="#000000" points="1082.33,-880.57 1078.52,-870.69 1075.34,-880.8 1082.33,-880.57"/>
<text text-anchor="middle" x="1160" y="-1156.54" font-family="Times,serif" font-size="32.00">ε_8</text>
<text text-anchor="middle" x="1160" y="-1121.54" font-family="Times,serif" font-size="32.00">=&gt;6 1</text>
</g>
<!-- 6&#45;&gt;3 -->
<g id="edge21" class="edge">
<title>6&#45;&gt;3</title>
<path fill="none" stroke="#000000" d="M1218.5,-993.09C1191.69,-1006.98 1148.2,-1023.07 1122,-999.14 1122,-999.14 1092.27,-671.44 1081.69,-554.77"/>
<polygon fill="#000000" stroke="#000000" points="1085.14,-554.12 1080.75,-544.48 1078.17,-554.76 1085.14,-554.12"/>
<text text-anchor="middle" x="1160" y="-1055.54" font-family="Times,serif" font-size="32.00">ε_9</text>
<text text-anchor="middle" x="1160" y="-1020.54" font-family="Times,serif" font-size="32.00">=&gt;6 3</text>
</g>
<!-- 6&#45;&gt;4 -->
<g id="edge22" class="edge">
<title>6&#45;&gt;4</title>
<path fill="none" stroke="#f7931d" stroke-width="2" d="M1239.86,-948.74C1234.16,-871.66 1217.7,-673.17 1198,-651.14 1174.79,-625.19 1144.96,-658.32 1122,-632.14 1098.84,-605.74 1108.34,-509.99 1104,-475.14 1097.4,-422.17 1089.05,-361.12 1083.62,-322.11"/>
<polygon fill="#f7931d" stroke="#f7931d" stroke-width="2" points="1087.09,-321.63 1082.24,-312.2 1080.15,-322.59 1087.09,-321.63"/>
<text text-anchor="middle" x="1160" y="-695.54" font-family="Times,serif" font-size="32.00">ε_10</text>
<text text-anchor="middle" x="1160" y="-660.54" font-family="Times,serif" font-size="32.00">=&gt;6 4</text>
</g>
<!-- 7&#45;&gt;1 -->
<g id="edge23" class="edge">
<title>7&#45;&gt;1</title>
<path fill="none" stroke="#000000" d="M1241.48,-684.69C1239.73,-746.4 1232,-882.47 1198,-911.14 1172.18,-932.92 1151.51,-927.57 1122,-911.14 1108.85,-903.82 1099.13,-890.76 1092.22,-877.82"/>
<polygon fill="#000000" stroke="#000000" points="1095.2,-875.96 1087.67,-868.51 1088.91,-879.03 1095.2,-875.96"/>
<text text-anchor="middle" x="1160" y="-969.54" font-family="Times,serif" font-size="32.00">ε_11</text>
<text text-anchor="middle" x="1160" y="-934.54" font-family="Times,serif" font-size="32.00">=&gt;7 1</text>
</g>
<!-- 7&#45;&gt;3 -->
<g id="edge25" class="edge">
<title>7&#45;&gt;3</title>
<path fill="none" stroke="#000000" d="M1234.81,-624.97C1228.37,-604.66 1216.94,-578.4 1198,-562.14 1171.22,-539.16 1154.43,-553.06 1122,-539.14 1118.09,-537.47 1114.09,-535.53 1110.17,-533.49"/>
<polygon fill="#000000" stroke="#000000" points="1111.71,-530.35 1101.25,-528.63 1108.36,-536.49 1111.71,-530.35"/>
<text text-anchor="middle" x="1160" y="-606.54" font-family="Times,serif" font-size="32.00">ε_12</text>
<text text-anchor="middle" x="1160" y="-571.54" font-family="Times,serif" font-size="32.00">=&gt;7 3</text>
</g>
<!-- 7&#45;&gt;4 -->
<g id="edge26" class="edge">
<title>7&#45;&gt;4</title>
<path fill="none" stroke="#f7931d" stroke-width="2" d="M1235.98,-624.7C1230.12,-595.11 1221.35,-548.13 1216,-507.14 1212.93,-483.59 1214.67,-311.06 1198,-294.14 1176.6,-272.41 1140.7,-271.52 1113.73,-274.8"/>
<polygon fill="#f7931d" stroke="#f7931d" stroke-width="2" points="1112.91,-271.38 1103.52,-276.28 1113.92,-278.31 1112.91,-271.38"/>
<text text-anchor="middle" x="1160" y="-338.54" font-family="Times,serif" font-size="32.00">ε_13</text>
<text text-anchor="middle" x="1160" y="-303.54" font-family="Times,serif" font-size="32.00">=&gt;7 4</text>
</g>
</g>
</svg>
