<?xml version="1.0" encoding="UTF-8" standalone="no"?>
<!DOCTYPE svg PUBLIC "-//W3C//DTD SVG 1.1//EN"
 "http://www.w3.org/Graphics/SVG/1.1/DTD/svg11.dtd">
<!-- Generated by graphviz version 2.47.1 (20210417.1919)
 -->
<!-- Title: G Pages: 1 -->
<svg width="1679pt" height="776pt"
 viewBox="0.00 0.00 1678.65 776.44" xmlns="http://www.w3.org/2000/svg" xmlns:xlink="http://www.w3.org/1999/xlink">
<g id="graph0" class="graph" transform="scale(1 1) rotate(0) translate(4 772.44)">
<title>G</title>
<polygon fill="white" stroke="transparent" points="-4,4 -4,-772.44 1674.65,-772.44 1674.65,4 -4,4"/>
<text text-anchor="middle" x="835.33" y="-13.4" font-family="Times,serif" font-size="32.00">single contraction: 7 → 3</text>
<!-- t -->
<g id="node1" class="node">
<title>t</title>
<ellipse fill="lightgray" stroke="black" cx="27" cy="-570.44" rx="27" ry="30.31"/>
<text text-anchor="middle" x="27" y="-562.34" font-family="Times,serif" font-size="32.00">t</text>
</g>
<!-- z0 -->
<g id="node2" class="node">
<title>z0</title>
<ellipse fill="none" stroke="black" stroke-dasharray="5,2" cx="1643.65" cy="-498.44" rx="27" ry="18"/>
</g>
<!-- d -->
<g id="node3" class="node">
<title>d</title>
<ellipse fill="none" stroke="black" cx="1483.65" cy="-498.44" rx="27" ry="30.31"/>
<text text-anchor="middle" x="1483.65" y="-490.34" font-family="Times,serif" font-size="32.00">d</text>
</g>
<!-- z0&#45;&gt;d -->
<g id="edge1" class="edge">
<title>z0&#45;&gt;d</title>
<path fill="none" stroke="#000000" d="M1616.56,-498.44C1590.49,-498.44 1550.19,-498.44 1520.99,-498.44"/>
<polygon fill="#000000" stroke="#000000" points="1520.78,-494.94 1510.78,-498.44 1520.78,-501.94 1520.78,-494.94"/>
<text text-anchor="middle" x="1563.65" y="-542.84" font-family="Times,serif" font-size="32.00">Mary</text>
<text text-anchor="middle" x="1563.65" y="-507.84" font-family="Times,serif" font-size="32.00">d &#45;k</text>
</g>
<!-- 3 -->
<g id="node12" class="node">
<title>3</title>
<ellipse fill="none" stroke="black" cx="1074.65" cy="-406.44" rx="27" ry="30.31"/>
<text text-anchor="middle" x="1074.65" y="-398.34" font-family="Times,serif" font-size="32.00">3</text>
</g>
<!-- d&#45;&gt;3 -->
<g id="edge24" class="edge">
<title>d&#45;&gt;3</title>
<path fill="none" stroke="#000000" d="M1456.75,-493.65C1386.44,-480.58 1193.08,-444.07 1130.65,-426.44 1123.89,-424.53 1116.76,-422.19 1109.96,-419.79"/>
<polygon fill="#000000" stroke="#000000" points="1110.91,-416.41 1100.31,-416.28 1108.51,-422.99 1110.91,-416.41"/>
<text text-anchor="middle" x="1273.65" y="-511.84" font-family="Times,serif" font-size="32.00">praise</text>
<text text-anchor="middle" x="1273.65" y="-476.84" font-family="Times,serif" font-size="32.00">=d *k 3</text>
</g>
<!-- 6 -->
<g id="node16" class="node">
<title>6</title>
<ellipse fill="none" stroke="black" cx="1273.65" cy="-579.44" rx="27" ry="30.31"/>
<text text-anchor="middle" x="1273.65" y="-571.34" font-family="Times,serif" font-size="32.00">6</text>
</g>
<!-- d&#45;&gt;6 -->
<g id="edge20" class="edge">
<title>d&#45;&gt;6</title>
<path fill="none" stroke="#000000" d="M1457.97,-508.05C1420.91,-522.48 1350.77,-549.8 1308.81,-566.14"/>
<polygon fill="#000000" stroke="#000000" points="1307.35,-562.95 1299.3,-569.84 1309.89,-569.47 1307.35,-562.95"/>
<text text-anchor="middle" x="1389.65" y="-596.84" font-family="Times,serif" font-size="32.00">hug</text>
<text text-anchor="middle" x="1389.65" y="-561.84" font-family="Times,serif" font-size="32.00">=d *k 6</text>
</g>
<!-- 0 -->
<g id="node4" class="node">
<title>0</title>
<ellipse fill="none" stroke="black" cx="271" cy="-660.44" rx="27" ry="30.31"/>
<text text-anchor="middle" x="271" y="-652.34" font-family="Times,serif" font-size="32.00">0</text>
</g>
<!-- 0&#45;&gt;t -->
<g id="edge2" class="edge">
<title>0&#45;&gt;t</title>
<path fill="none" stroke="#000000" d="M243.97,-659.18C204.45,-656.29 127.99,-646.76 72,-615.44 65.03,-611.54 58.45,-606.19 52.61,-600.55"/>
<polygon fill="#000000" stroke="#000000" points="55.09,-598.08 45.63,-593.32 50.06,-602.95 55.09,-598.08"/>
<text text-anchor="middle" x="149" y="-700.84" font-family="Times,serif" font-size="32.00">ε_0</text>
<text text-anchor="middle" x="149" y="-665.84" font-family="Times,serif" font-size="32.00">=&gt;0 =v +k t</text>
</g>
<!-- z1 -->
<g id="node5" class="node">
<title>z1</title>
<ellipse fill="none" stroke="black" stroke-dasharray="5,2" cx="487" cy="-666.44" rx="27" ry="18"/>
</g>
<!-- z1&#45;&gt;0 -->
<g id="edge3" class="edge">
<title>z1&#45;&gt;0</title>
<path fill="none" stroke="#000000" d="M459.76,-665.7C421.71,-664.64 351.1,-662.66 308.15,-661.45"/>
<polygon fill="#000000" stroke="#000000" points="308.21,-657.95 298.12,-661.17 308.02,-664.95 308.21,-657.95"/>
<text text-anchor="middle" x="363" y="-742.84" font-family="Times,serif" font-size="32.00">wills |</text>
<text text-anchor="middle" x="363" y="-707.84" font-family="Times,serif" font-size="32.00"> willd</text>
<text text-anchor="middle" x="363" y="-672.84" font-family="Times,serif" font-size="32.00">0</text>
</g>
<!-- v -->
<g id="node6" class="node">
<title>v</title>
<ellipse fill="none" stroke="black" cx="271" cy="-464.44" rx="27" ry="30.31"/>
<text text-anchor="middle" x="271" y="-456.34" font-family="Times,serif" font-size="32.00">v</text>
</g>
<!-- v&#45;&gt;t -->
<g id="edge4" class="edge">
<title>v&#45;&gt;t</title>
<path fill="none" stroke="#000000" d="M243.93,-464.02C203.68,-464.61 125.48,-470.73 72,-506.44 61.31,-513.58 52.48,-524.27 45.61,-534.88"/>
<polygon fill="#000000" stroke="#000000" points="42.46,-533.33 40.3,-543.7 48.46,-536.94 42.46,-533.33"/>
<text text-anchor="middle" x="149" y="-585.84" font-family="Times,serif" font-size="32.00">s |</text>
<text text-anchor="middle" x="149" y="-550.84" font-family="Times,serif" font-size="32.00"> d</text>
<text text-anchor="middle" x="149" y="-515.84" font-family="Times,serif" font-size="32.00">=&gt;v +k t</text>
</g>
<!-- perf -->
<g id="node7" class="node">
<title>perf</title>
<ellipse fill="none" stroke="black" cx="487" cy="-369.44" rx="48.17" ry="30.31"/>
<text text-anchor="middle" x="487" y="-361.34" font-family="Times,serif" font-size="32.00">perf</text>
</g>
<!-- perf&#45;&gt;v -->
<g id="edge5" class="edge">
<title>perf&#45;&gt;v</title>
<path fill="none" stroke="#000000" d="M442.61,-357.68C405.94,-350.38 353.53,-346.41 316,-370.44 297.18,-382.49 286.26,-404.93 280.02,-424.87"/>
<polygon fill="#000000" stroke="#000000" points="276.59,-424.12 277.23,-434.69 283.32,-426.02 276.59,-424.12"/>
<text text-anchor="middle" x="363" y="-414.84" font-family="Times,serif" font-size="32.00">have</text>
<text text-anchor="middle" x="363" y="-379.84" font-family="Times,serif" font-size="32.00">=perf v</text>
</g>
<!-- prog -->
<g id="node8" class="node">
<title>prog</title>
<ellipse fill="none" stroke="black" cx="788.33" cy="-406.44" rx="52.15" ry="30.31"/>
<text text-anchor="middle" x="788.33" y="-398.34" font-family="Times,serif" font-size="32.00">prog</text>
</g>
<!-- prog&#45;&gt;v -->
<g id="edge6" class="edge">
<title>prog&#45;&gt;v</title>
<path fill="none" stroke="#000000" d="M750.61,-427.84C740.37,-432.85 729.03,-437.57 718,-440.44 640.95,-460.51 400.49,-463.82 308.39,-464.35"/>
<polygon fill="#000000" stroke="#000000" points="308.15,-460.85 298.17,-464.4 308.19,-467.85 308.15,-460.85"/>
<text text-anchor="middle" x="487" y="-506.84" font-family="Times,serif" font-size="32.00">be</text>
<text text-anchor="middle" x="487" y="-471.84" font-family="Times,serif" font-size="32.00">=prog v</text>
</g>
<!-- prog&#45;&gt;perf -->
<g id="edge7" class="edge">
<title>prog&#45;&gt;perf</title>
<path fill="none" stroke="#000000" d="M752.27,-384.15C741.67,-378.56 729.72,-373.33 718,-370.44 660.03,-356.15 591.31,-358.21 544.18,-362.4"/>
<polygon fill="#000000" stroke="#000000" points="543.79,-358.92 534.16,-363.35 544.45,-365.89 543.79,-358.92"/>
<text text-anchor="middle" x="641" y="-414.84" font-family="Times,serif" font-size="32.00">ben</text>
<text text-anchor="middle" x="641" y="-379.84" font-family="Times,serif" font-size="32.00">=prog perf</text>
</g>
<!-- 1 -->
<g id="node9" class="node">
<title>1</title>
<ellipse fill="none" stroke="black" cx="788.33" cy="-560.44" rx="27" ry="30.31"/>
<text text-anchor="middle" x="788.33" y="-552.34" font-family="Times,serif" font-size="32.00">1</text>
</g>
<!-- 1&#45;&gt;v -->
<g id="edge8" class="edge">
<title>1&#45;&gt;v</title>
<path fill="none" stroke="#000000" d="M761.11,-561.91C701.08,-564.58 549.47,-567.4 428,-536.44 382.81,-524.92 334.64,-500.62 303.98,-483.45"/>
<polygon fill="#000000" stroke="#000000" points="305.47,-480.27 295.05,-478.37 302.01,-486.35 305.47,-480.27"/>
<text text-anchor="middle" x="487" y="-599.84" font-family="Times,serif" font-size="32.00">ε_1</text>
<text text-anchor="middle" x="487" y="-564.84" font-family="Times,serif" font-size="32.00">=&gt;1 =d v</text>
</g>
<!-- 2 -->
<g id="node10" class="node">
<title>2</title>
<ellipse fill="none" stroke="black" cx="1273.65" cy="-200.44" rx="27" ry="30.31"/>
<text text-anchor="middle" x="1273.65" y="-192.34" font-family="Times,serif" font-size="32.00">2</text>
</g>
<!-- 2&#45;&gt;1 -->
<g id="edge9" class="edge">
<title>2&#45;&gt;1</title>
<path fill="none" stroke="#000000" d="M1246.79,-195.86C1215.99,-191.92 1164.46,-190.28 1130.65,-215.44 1114.03,-227.81 1129.05,-245.78 1112.65,-258.44 1022.41,-328.13 938.38,-212.93 858.65,-294.44 835.02,-318.6 849.64,-412.86 840.65,-445.44 832.92,-473.47 819.37,-503.41 808.13,-525.72"/>
<polygon fill="#000000" stroke="#000000" points="804.93,-524.29 803.48,-534.78 811.16,-527.48 804.93,-524.29"/>
<text text-anchor="middle" x="1074.65" y="-326.84" font-family="Times,serif" font-size="32.00">ε_2</text>
<text text-anchor="middle" x="1074.65" y="-291.84" font-family="Times,serif" font-size="32.00">=&gt;2 1</text>
</g>
<!-- 2&#45;&gt;3 -->
<g id="edge12" class="edge">
<title>2&#45;&gt;3</title>
<path fill="none" stroke="#000000" d="M1246.75,-205.32C1214.42,-212.81 1159.82,-230.39 1130.65,-267.44 1106.23,-298.46 1128.44,-318.24 1112.65,-354.44 1109.35,-362.01 1104.84,-369.58 1100.09,-376.51"/>
<polygon fill="#000000" stroke="#000000" points="1097.06,-374.73 1094.04,-384.89 1102.73,-378.83 1097.06,-374.73"/>
<text text-anchor="middle" x="1168.65" y="-311.84" font-family="Times,serif" font-size="32.00">ε_3</text>
<text text-anchor="middle" x="1168.65" y="-276.84" font-family="Times,serif" font-size="32.00">=&gt;2 3</text>
</g>
<!-- 4 -->
<g id="node13" class="node">
<title>4</title>
<ellipse fill="none" stroke="black" cx="788.33" cy="-276.44" rx="27" ry="30.31"/>
<text text-anchor="middle" x="788.33" y="-268.34" font-family="Times,serif" font-size="32.00">4</text>
</g>
<!-- 2&#45;&gt;4 -->
<g id="edge14" class="edge">
<title>2&#45;&gt;4</title>
<path fill="none" stroke="#000000" d="M1253.21,-180.46C1225.16,-153.23 1170.35,-105.76 1112.65,-87.44 1080.46,-77.22 1069.84,-81.15 1036.65,-87.44 953.13,-103.27 923.18,-102.09 858.65,-157.44 833.15,-179.32 814.75,-213.04 803.35,-239.01"/>
<polygon fill="#000000" stroke="#000000" points="799.99,-237.97 799.32,-248.54 806.43,-240.69 799.99,-237.97"/>
<text text-anchor="middle" x="1074.65" y="-131.84" font-family="Times,serif" font-size="32.00">ε_4</text>
<text text-anchor="middle" x="1074.65" y="-96.84" font-family="Times,serif" font-size="32.00">=&gt;2 4</text>
</g>
<!-- z2 -->
<g id="node11" class="node">
<title>z2</title>
<ellipse fill="none" stroke="black" stroke-dasharray="5,2" cx="1483.65" cy="-200.44" rx="27" ry="18"/>
</g>
<!-- z2&#45;&gt;2 -->
<g id="edge10" class="edge">
<title>z2&#45;&gt;2</title>
<path fill="none" stroke="#000000" d="M1456.31,-200.44C1419.5,-200.44 1352.55,-200.44 1311.01,-200.44"/>
<polygon fill="#000000" stroke="#000000" points="1310.78,-196.94 1300.78,-200.44 1310.78,-203.94 1310.78,-196.94"/>
<text text-anchor="middle" x="1389.65" y="-244.84" font-family="Times,serif" font-size="32.00">laugh</text>
<text text-anchor="middle" x="1389.65" y="-209.84" font-family="Times,serif" font-size="32.00">2</text>
</g>
<!-- 3&#45;&gt;prog -->
<g id="edge11" class="edge">
<title>3&#45;&gt;prog</title>
<path fill="none" stroke="#000000" d="M1047.41,-406.44C1003.1,-406.44 912.28,-406.44 851.08,-406.44"/>
<polygon fill="#000000" stroke="#000000" points="850.77,-402.94 840.77,-406.44 850.77,-409.94 850.77,-402.94"/>
<text text-anchor="middle" x="938.65" y="-450.84" font-family="Times,serif" font-size="32.00">ing</text>
<text text-anchor="middle" x="938.65" y="-415.84" font-family="Times,serif" font-size="32.00">=&gt;3 =d prog</text>
</g>
<!-- 3&#45;&gt;1 -->
<g id="edge23" class="edge">
<title>3&#45;&gt;1</title>
<path fill="none" stroke="#000000" d="M1060.12,-432.55C1050.56,-448.57 1036.32,-468.28 1018.65,-480.44 957.81,-522.33 927.5,-498.67 858.65,-525.44 846.38,-530.21 833.38,-536.43 822,-542.31"/>
<polygon fill="#000000" stroke="#000000" points="820.08,-539.36 812.87,-547.12 823.35,-545.55 820.08,-539.36"/>
<text text-anchor="middle" x="938.65" y="-569.84" font-family="Times,serif" font-size="32.00">ε_11</text>
<text text-anchor="middle" x="938.65" y="-534.84" font-family="Times,serif" font-size="32.00">=&gt;3 1</text>
</g>
<!-- 3&#45;&gt;4 -->
<g id="edge25" class="edge">
<title>3&#45;&gt;4</title>
<path fill="none" stroke="#000000" d="M1056.8,-382.98C1041.62,-361.96 1021.29,-334.19 1018.65,-332.44 958.8,-292.74 873.42,-281.15 825.52,-277.79"/>
<polygon fill="#000000" stroke="#000000" points="825.52,-274.28 815.32,-277.16 825.09,-281.27 825.52,-274.28"/>
<text text-anchor="middle" x="938.65" y="-376.84" font-family="Times,serif" font-size="32.00">ε_12</text>
<text text-anchor="middle" x="938.65" y="-341.84" font-family="Times,serif" font-size="32.00">=&gt;3 4</text>
</g>
<!-- 4&#45;&gt;perf -->
<g id="edge13" class="edge">
<title>4&#45;&gt;perf</title>
<path fill="none" stroke="#000000" d="M761.72,-271.15C718.57,-263.56 629.69,-253.63 564,-284.44 542.13,-294.7 523.84,-314.49 510.69,-332.39"/>
<polygon fill="#000000" stroke="#000000" points="507.54,-330.79 504.65,-340.98 513.26,-334.82 507.54,-330.79"/>
<text text-anchor="middle" x="641" y="-328.84" font-family="Times,serif" font-size="32.00">n</text>
<text text-anchor="middle" x="641" y="-293.84" font-family="Times,serif" font-size="32.00">=&gt;4 =d perf</text>
</g>
<!-- 5 -->
<g id="node14" class="node">
<title>5</title>
<ellipse fill="none" stroke="black" cx="1273.65" cy="-351.44" rx="27" ry="30.31"/>
<text text-anchor="middle" x="1273.65" y="-343.34" font-family="Times,serif" font-size="32.00">5</text>
</g>
<!-- 5&#45;&gt;1 -->
<g id="edge15" class="edge">
<title>5&#45;&gt;1</title>
<path fill="none" stroke="#000000" d="M1254.99,-373.44C1242.44,-388.29 1224.67,-407.78 1206.65,-422.44 1176.03,-447.36 1153.11,-435.96 1130.65,-468.44 1105.71,-504.5 1141.65,-532.55 1112.65,-565.44 1075.06,-608.07 913.94,-608.6 858.65,-595.44 845.61,-592.33 832.24,-586.36 820.77,-580.22"/>
<polygon fill="#000000" stroke="#000000" points="822.45,-577.15 812.02,-575.3 819.02,-583.25 822.45,-577.15"/>
<text text-anchor="middle" x="1074.65" y="-639.84" font-family="Times,serif" font-size="32.00">ε_5</text>
<text text-anchor="middle" x="1074.65" y="-604.84" font-family="Times,serif" font-size="32.00">=&gt;5 1</text>
</g>
<!-- 5&#45;&gt;3 -->
<g id="edge17" class="edge">
<title>5&#45;&gt;3</title>
<path fill="none" stroke="#000000" d="M1246.9,-346.02C1217.54,-341.09 1168.71,-336.72 1130.65,-352.44 1118.67,-357.39 1107.88,-366.32 1099.1,-375.52"/>
<polygon fill="#000000" stroke="#000000" points="1096.26,-373.44 1092.21,-383.22 1101.48,-378.1 1096.26,-373.44"/>
<text text-anchor="middle" x="1168.65" y="-396.84" font-family="Times,serif" font-size="32.00">ε_6</text>
<text text-anchor="middle" x="1168.65" y="-361.84" font-family="Times,serif" font-size="32.00">=&gt;5 3</text>
</g>
<!-- 5&#45;&gt;4 -->
<g id="edge18" class="edge">
<title>5&#45;&gt;4</title>
<path fill="none" stroke="#000000" d="M1246.84,-346.25C1210.18,-338.35 1145.8,-322.32 1130.65,-304.44 1096.94,-264.62 1152.27,-222.38 1112.65,-188.44 1025.52,-113.79 880.74,-206.39 818.85,-252.85"/>
<polygon fill="#000000" stroke="#000000" points="816.51,-250.23 810.68,-259.07 820.76,-255.79 816.51,-250.23"/>
<text text-anchor="middle" x="1074.65" y="-232.84" font-family="Times,serif" font-size="32.00">ε_7</text>
<text text-anchor="middle" x="1074.65" y="-197.84" font-family="Times,serif" font-size="32.00">=&gt;5 4</text>
</g>
<!-- z3 -->
<g id="node15" class="node">
<title>z3</title>
<ellipse fill="none" stroke="black" stroke-dasharray="5,2" cx="1483.65" cy="-351.44" rx="27" ry="18"/>
</g>
<!-- z3&#45;&gt;5 -->
<g id="edge16" class="edge">
<title>z3&#45;&gt;5</title>
<path fill="none" stroke="#000000" d="M1456.31,-351.44C1419.5,-351.44 1352.55,-351.44 1311.01,-351.44"/>
<polygon fill="#000000" stroke="#000000" points="1310.78,-347.94 1300.78,-351.44 1310.78,-354.94 1310.78,-347.94"/>
<text text-anchor="middle" x="1389.65" y="-395.84" font-family="Times,serif" font-size="32.00">dance</text>
<text text-anchor="middle" x="1389.65" y="-360.84" font-family="Times,serif" font-size="32.00">5</text>
</g>
<!-- 6&#45;&gt;1 -->
<g id="edge19" class="edge">
<title>6&#45;&gt;1</title>
<path fill="none" stroke="#000000" d="M1251.26,-596.7C1222.02,-619.08 1166.98,-656.93 1112.65,-671.44 1001.65,-701.08 959.45,-678.57 858.65,-623.44 842.46,-614.58 827.01,-601.2 814.82,-589.05"/>
<polygon fill="#000000" stroke="#000000" points="817.15,-586.43 807.67,-581.69 812.12,-591.3 817.15,-586.43"/>
<text text-anchor="middle" x="1074.65" y="-727.84" font-family="Times,serif" font-size="32.00">ε_8</text>
<text text-anchor="middle" x="1074.65" y="-692.84" font-family="Times,serif" font-size="32.00">=&gt;6 1</text>
</g>
<!-- 6&#45;&gt;3 -->
<g id="edge21" class="edge">
<title>6&#45;&gt;3</title>
<path fill="none" stroke="#000000" d="M1250.73,-562.66C1241.82,-555.06 1231.94,-545.52 1224.65,-535.44 1213.23,-519.64 1221.3,-508.31 1206.65,-495.44 1180.14,-472.14 1160.07,-491.92 1130.65,-472.44 1117.52,-463.74 1105.86,-450.98 1096.69,-439"/>
<polygon fill="#000000" stroke="#000000" points="1099.49,-436.89 1090.76,-430.88 1093.84,-441.02 1099.49,-436.89"/>
<text text-anchor="middle" x="1168.65" y="-539.84" font-family="Times,serif" font-size="32.00">ε_9</text>
<text text-anchor="middle" x="1168.65" y="-504.84" font-family="Times,serif" font-size="32.00">=&gt;6 3</text>
</g>
<!-- 6&#45;&gt;4 -->
<g id="edge22" class="edge">
<title>6&#45;&gt;4</title>
<path fill="none" stroke="#000000" d="M1246.94,-584.98C1215.55,-590.11 1162.73,-593.3 1130.65,-565.44 1105.1,-543.24 1138.68,-513.08 1112.65,-491.44 1069.18,-455.3 900.71,-515.21 858.65,-477.44 821.8,-444.33 857.07,-414.18 840.65,-367.44 833.45,-346.93 821.74,-325.69 811.33,-308.89"/>
<polygon fill="#000000" stroke="#000000" points="814.03,-306.61 805.72,-300.05 808.12,-310.36 814.03,-306.61"/>
<text text-anchor="middle" x="1074.65" y="-535.84" font-family="Times,serif" font-size="32.00">ε_10</text>
<text text-anchor="middle" x="1074.65" y="-500.84" font-family="Times,serif" font-size="32.00">=&gt;6 4</text>
</g>
</g>
</svg>
