<?xml version="1.0" encoding="UTF-8" standalone="no"?>
<!DOCTYPE svg PUBLIC "-//W3C//DTD SVG 1.1//EN"
 "http://www.w3.org/Graphics/SVG/1.1/DTD/svg11.dtd">
<!-- Generated by graphviz version 2.47.1 (20210417.1919)
 -->
<!-- Title: G Pages: 1 -->
<svg width="1720pt" height="547pt"
 viewBox="0.00 0.00 1720.00 547.00" xmlns="http://www.w3.org/2000/svg" xmlns:xlink="http://www.w3.org/1999/xlink">
<g id="graph0" class="graph" transform="scale(1 1) rotate(0) translate(4 543)">
<title>G</title>
<polygon fill="white" stroke="transparent" points="-4,4 -4,-543 1716,-543 1716,4 -4,4"/>
<text text-anchor="middle" x="856" y="-13.4" font-family="Times,serif" font-size="32.00">single contraction: 3 → 2</text>
<!-- t -->
<g id="node1" class="node">
<title>t</title>
<ellipse fill="lightgray" stroke="black" cx="27" cy="-341" rx="27" ry="30.31"/>
<text text-anchor="middle" x="27" y="-332.9" font-family="Times,serif" font-size="32.00">t</text>
</g>
<!-- z0 -->
<g id="node2" class="node">
<title>z0</title>
<ellipse fill="none" stroke="black" stroke-dasharray="5,2" cx="1685" cy="-235" rx="27" ry="18"/>
</g>
<!-- d -->
<g id="node3" class="node">
<title>d</title>
<ellipse fill="none" stroke="black" cx="1525" cy="-235" rx="27" ry="30.31"/>
<text text-anchor="middle" x="1525" y="-226.9" font-family="Times,serif" font-size="32.00">d</text>
</g>
<!-- z0&#45;&gt;d -->
<g id="edge1" class="edge">
<title>z0&#45;&gt;d</title>
<path fill="none" stroke="#000000" d="M1657.91,-235C1631.84,-235 1591.53,-235 1562.34,-235"/>
<polygon fill="#000000" stroke="#000000" points="1562.13,-231.5 1552.13,-235 1562.13,-238.5 1562.13,-231.5"/>
<text text-anchor="middle" x="1605" y="-279.4" font-family="Times,serif" font-size="32.00">Mary</text>
<text text-anchor="middle" x="1605" y="-244.4" font-family="Times,serif" font-size="32.00">d &#45;k</text>
</g>
<!-- 2 -->
<g id="node10" class="node">
<title>2</title>
<ellipse fill="none" stroke="black" cx="1106" cy="-204" rx="27" ry="30.31"/>
<text text-anchor="middle" x="1106" y="-195.9" font-family="Times,serif" font-size="32.00">2</text>
</g>
<!-- d&#45;&gt;2 -->
<g id="edge16" class="edge">
<title>d&#45;&gt;2</title>
<path fill="none" stroke="#000000" d="M1497.91,-233.06C1426.17,-227.73 1225.77,-212.83 1143.23,-206.69"/>
<polygon fill="#000000" stroke="#000000" points="1143.31,-203.19 1133.08,-205.94 1142.79,-210.17 1143.31,-203.19"/>
<text text-anchor="middle" x="1315" y="-267.4" font-family="Times,serif" font-size="32.00">praise</text>
<text text-anchor="middle" x="1315" y="-232.4" font-family="Times,serif" font-size="32.00">=d *k 2</text>
</g>
<!-- 3 -->
<g id="node12" class="node">
<title>3</title>
<ellipse fill="none" stroke="black" cx="1315" cy="-337" rx="27" ry="30.31"/>
<text text-anchor="middle" x="1315" y="-328.9" font-family="Times,serif" font-size="32.00">3</text>
</g>
<!-- d&#45;&gt;3 -->
<g id="edge14" class="edge">
<title>d&#45;&gt;3</title>
<path fill="none" stroke="#000000" d="M1499.73,-246.9C1462.47,-265.17 1391.08,-300.18 1349.11,-320.77"/>
<polygon fill="#000000" stroke="#000000" points="1347.55,-317.63 1340.11,-325.18 1350.63,-323.91 1347.55,-317.63"/>
<text text-anchor="middle" x="1431" y="-348.4" font-family="Times,serif" font-size="32.00">hug</text>
<text text-anchor="middle" x="1431" y="-313.4" font-family="Times,serif" font-size="32.00">=d *k 3</text>
</g>
<!-- 0 -->
<g id="node4" class="node">
<title>0</title>
<ellipse fill="none" stroke="black" cx="271" cy="-431" rx="27" ry="30.31"/>
<text text-anchor="middle" x="271" y="-422.9" font-family="Times,serif" font-size="32.00">0</text>
</g>
<!-- 0&#45;&gt;t -->
<g id="edge2" class="edge">
<title>0&#45;&gt;t</title>
<path fill="none" stroke="#000000" d="M243.97,-429.75C204.45,-426.85 127.99,-417.32 72,-386 65.03,-382.1 58.45,-376.76 52.61,-371.11"/>
<polygon fill="#000000" stroke="#000000" points="55.09,-368.65 45.63,-363.89 50.06,-373.51 55.09,-368.65"/>
<text text-anchor="middle" x="149" y="-471.4" font-family="Times,serif" font-size="32.00">ε_0</text>
<text text-anchor="middle" x="149" y="-436.4" font-family="Times,serif" font-size="32.00">=&gt;0 =v +k t</text>
</g>
<!-- z1 -->
<g id="node5" class="node">
<title>z1</title>
<ellipse fill="none" stroke="black" stroke-dasharray="5,2" cx="487" cy="-437" rx="27" ry="18"/>
</g>
<!-- z1&#45;&gt;0 -->
<g id="edge3" class="edge">
<title>z1&#45;&gt;0</title>
<path fill="none" stroke="#000000" d="M459.76,-436.26C421.71,-435.2 351.1,-433.22 308.15,-432.01"/>
<polygon fill="#000000" stroke="#000000" points="308.21,-428.51 298.12,-431.73 308.02,-435.51 308.21,-428.51"/>
<text text-anchor="middle" x="363" y="-513.4" font-family="Times,serif" font-size="32.00">wills |</text>
<text text-anchor="middle" x="363" y="-478.4" font-family="Times,serif" font-size="32.00"> willd</text>
<text text-anchor="middle" x="363" y="-443.4" font-family="Times,serif" font-size="32.00">0</text>
</g>
<!-- v -->
<g id="node6" class="node">
<title>v</title>
<ellipse fill="none" stroke="black" cx="271" cy="-235" rx="27" ry="30.31"/>
<text text-anchor="middle" x="271" y="-226.9" font-family="Times,serif" font-size="32.00">v</text>
</g>
<!-- v&#45;&gt;t -->
<g id="edge4" class="edge">
<title>v&#45;&gt;t</title>
<path fill="none" stroke="#000000" d="M243.93,-234.59C203.68,-235.17 125.48,-241.29 72,-277 61.31,-284.14 52.48,-294.83 45.61,-305.44"/>
<polygon fill="#000000" stroke="#000000" points="42.46,-303.89 40.3,-314.26 48.46,-307.5 42.46,-303.89"/>
<text text-anchor="middle" x="149" y="-356.4" font-family="Times,serif" font-size="32.00">s |</text>
<text text-anchor="middle" x="149" y="-321.4" font-family="Times,serif" font-size="32.00"> d</text>
<text text-anchor="middle" x="149" y="-286.4" font-family="Times,serif" font-size="32.00">=&gt;v +k t</text>
</g>
<!-- perf -->
<g id="node7" class="node">
<title>perf</title>
<ellipse fill="none" stroke="black" cx="487" cy="-140" rx="48.17" ry="30.31"/>
<text text-anchor="middle" x="487" y="-131.9" font-family="Times,serif" font-size="32.00">perf</text>
</g>
<!-- perf&#45;&gt;v -->
<g id="edge5" class="edge">
<title>perf&#45;&gt;v</title>
<path fill="none" stroke="#000000" d="M442.61,-128.24C405.94,-120.94 353.53,-116.97 316,-141 297.18,-153.05 286.26,-175.49 280.02,-195.43"/>
<polygon fill="#000000" stroke="#000000" points="276.59,-194.68 277.23,-205.25 283.32,-196.59 276.59,-194.68"/>
<text text-anchor="middle" x="363" y="-185.4" font-family="Times,serif" font-size="32.00">have</text>
<text text-anchor="middle" x="363" y="-150.4" font-family="Times,serif" font-size="32.00">=perf v</text>
</g>
<!-- prog -->
<g id="node8" class="node">
<title>prog</title>
<ellipse fill="none" stroke="black" cx="795" cy="-225" rx="52.15" ry="30.31"/>
<text text-anchor="middle" x="795" y="-216.9" font-family="Times,serif" font-size="32.00">prog</text>
</g>
<!-- prog&#45;&gt;v -->
<g id="edge6" class="edge">
<title>prog&#45;&gt;v</title>
<path fill="none" stroke="#000000" d="M742.52,-225.99C637.12,-228.01 399.04,-232.57 308.17,-234.31"/>
<polygon fill="#000000" stroke="#000000" points="308.02,-230.81 298.09,-234.5 308.16,-237.81 308.02,-230.81"/>
<text text-anchor="middle" x="487" y="-275.4" font-family="Times,serif" font-size="32.00">be</text>
<text text-anchor="middle" x="487" y="-240.4" font-family="Times,serif" font-size="32.00">=prog v</text>
</g>
<!-- prog&#45;&gt;perf -->
<g id="edge7" class="edge">
<title>prog&#45;&gt;perf</title>
<path fill="none" stroke="#000000" d="M752.36,-207C740.13,-200.21 727.5,-191.52 718,-181 704.94,-166.53 716.35,-151.62 700,-141 675.28,-124.94 598.5,-128.58 544.48,-133.56"/>
<polygon fill="#000000" stroke="#000000" points="543.96,-130.1 534.34,-134.54 544.63,-137.07 543.96,-130.1"/>
<text text-anchor="middle" x="632" y="-185.4" font-family="Times,serif" font-size="32.00">ben</text>
<text text-anchor="middle" x="632" y="-150.4" font-family="Times,serif" font-size="32.00">=prog perf</text>
</g>
<!-- 1 -->
<g id="node9" class="node">
<title>1</title>
<ellipse fill="none" stroke="black" cx="795" cy="-331" rx="27" ry="30.31"/>
<text text-anchor="middle" x="795" y="-322.9" font-family="Times,serif" font-size="32.00">1</text>
</g>
<!-- 1&#45;&gt;v -->
<g id="edge8" class="edge">
<title>1&#45;&gt;v</title>
<path fill="none" stroke="#000000" d="M767.77,-332.24C706.98,-334.45 552.17,-336.23 428,-305 383.13,-293.72 335.06,-270.22 304.33,-253.57"/>
<polygon fill="#000000" stroke="#000000" points="305.82,-250.39 295.37,-248.64 302.45,-256.53 305.82,-250.39"/>
<text text-anchor="middle" x="487" y="-368.4" font-family="Times,serif" font-size="32.00">ε_1</text>
<text text-anchor="middle" x="487" y="-333.4" font-family="Times,serif" font-size="32.00">=&gt;1 =d v</text>
</g>
<!-- 2&#45;&gt;perf -->
<g id="edge12" class="edge">
<title>2&#45;&gt;perf</title>
<path fill="none" stroke="#000000" d="M1081.06,-191.33C1039.79,-170.34 951.97,-129.32 872,-116 756.05,-96.68 618.06,-115.26 543.12,-128.77"/>
<polygon fill="#000000" stroke="#000000" points="542.18,-125.38 532.98,-130.63 543.44,-132.27 542.18,-125.38"/>
<text text-anchor="middle" x="795" y="-160.4" font-family="Times,serif" font-size="32.00">n</text>
<text text-anchor="middle" x="795" y="-125.4" font-family="Times,serif" font-size="32.00">=&gt;2 =d perf</text>
</g>
<!-- 2&#45;&gt;prog -->
<g id="edge11" class="edge">
<title>2&#45;&gt;prog</title>
<path fill="none" stroke="#000000" d="M1079.79,-196.18C1070.52,-193.68 1059.87,-191.24 1050,-190 979.44,-181.16 959.98,-177.39 890,-190 875.38,-192.63 860.06,-197.4 846.14,-202.58"/>
<polygon fill="#000000" stroke="#000000" points="844.81,-199.34 836.75,-206.22 847.34,-205.87 844.81,-199.34"/>
<text text-anchor="middle" x="970" y="-234.4" font-family="Times,serif" font-size="32.00">ing</text>
<text text-anchor="middle" x="970" y="-199.4" font-family="Times,serif" font-size="32.00">=&gt;2 =d prog</text>
</g>
<!-- 2&#45;&gt;1 -->
<g id="edge9" class="edge">
<title>2&#45;&gt;1</title>
<path fill="none" stroke="#000000" d="M1088.24,-227.23C1078.45,-238.99 1065.08,-252.37 1050,-260 985.9,-292.45 958.47,-261.26 890,-283 868.29,-289.89 845.49,-301.41 827.79,-311.44"/>
<polygon fill="#000000" stroke="#000000" points="825.93,-308.47 819.03,-316.51 829.44,-314.53 825.93,-308.47"/>
<text text-anchor="middle" x="970" y="-327.4" font-family="Times,serif" font-size="32.00">ε_2</text>
<text text-anchor="middle" x="970" y="-292.4" font-family="Times,serif" font-size="32.00">=&gt;2 1</text>
</g>
<!-- z2 -->
<g id="node11" class="node">
<title>z2</title>
<ellipse fill="none" stroke="black" stroke-dasharray="5,2" cx="1315" cy="-99" rx="27" ry="18"/>
</g>
<!-- z2&#45;&gt;2 -->
<g id="edge10" class="edge">
<title>z2&#45;&gt;2</title>
<path fill="none" stroke="#000000" d="M1289.84,-92.04C1258.01,-84.37 1201.48,-76.04 1162,-100 1138.78,-114.09 1124.84,-141.61 1116.81,-164.81"/>
<polygon fill="#000000" stroke="#000000" points="1113.44,-163.84 1113.72,-174.43 1120.11,-165.98 1113.44,-163.84"/>
<text text-anchor="middle" x="1205" y="-179.4" font-family="Times,serif" font-size="32.00">laugh |</text>
<text text-anchor="middle" x="1205" y="-144.4" font-family="Times,serif" font-size="32.00"> dance</text>
<text text-anchor="middle" x="1205" y="-109.4" font-family="Times,serif" font-size="32.00">2</text>
</g>
<!-- 3&#45;&gt;1 -->
<g id="edge13" class="edge">
<title>3&#45;&gt;1</title>
<path fill="none" stroke="#000000" d="M1288.56,-344.67C1276.4,-347.94 1261.58,-351.38 1248,-353 1090.01,-371.88 1048.06,-371.25 890,-353 870.24,-350.72 848.59,-345.82 831.06,-341.23"/>
<polygon fill="#000000" stroke="#000000" points="831.82,-337.81 821.25,-338.58 830,-344.57 831.82,-337.81"/>
<text text-anchor="middle" x="1106" y="-410.4" font-family="Times,serif" font-size="32.00">ε_3</text>
<text text-anchor="middle" x="1106" y="-375.4" font-family="Times,serif" font-size="32.00">=&gt;3 1</text>
</g>
<!-- 3&#45;&gt;2 -->
<g id="edge15" class="edge">
<title>3&#45;&gt;2</title>
<path fill="none" stroke="#000000" d="M1293.33,-318.51C1280.68,-307.59 1263.9,-293.84 1248,-283 1228.74,-269.87 1175.08,-240.51 1139.79,-221.51"/>
<polygon fill="#000000" stroke="#000000" points="1141.28,-218.34 1130.81,-216.69 1137.97,-224.5 1141.28,-218.34"/>
<text text-anchor="middle" x="1205" y="-327.4" font-family="Times,serif" font-size="32.00">ε_4</text>
<text text-anchor="middle" x="1205" y="-292.4" font-family="Times,serif" font-size="32.00">=&gt;3 2</text>
</g>
</g>
</svg>
