<?xml version="1.0" encoding="UTF-8" standalone="no"?>
<!DOCTYPE svg PUBLIC "-//W3C//DTD SVG 1.1//EN"
 "http://www.w3.org/Graphics/SVG/1.1/DTD/svg11.dtd">
<!-- Generated by graphviz version 2.47.1 (20210417.1919)
 -->
<!-- Title: G Pages: 1 -->
<svg width="1853pt" height="500pt"
 viewBox="0.00 0.00 1852.82 500.00" xmlns="http://www.w3.org/2000/svg" xmlns:xlink="http://www.w3.org/1999/xlink">
<g id="graph0" class="graph" transform="scale(1 1) rotate(0) translate(4 496)">
<title>G</title>
<polygon fill="white" stroke="transparent" points="-4,4 -4,-496 1848.82,-496 1848.82,4 -4,4"/>
<text text-anchor="middle" x="922.41" y="-13.4" font-family="Times,serif" font-size="32.00">decomposition: be =prog v, ben =prog perf</text>
<!-- t -->
<g id="node1" class="node">
<title>t</title>
<ellipse fill="lightgray" stroke="black" cx="27" cy="-288" rx="27" ry="30.31"/>
<text text-anchor="middle" x="27" y="-279.9" font-family="Times,serif" font-size="32.00">t</text>
</g>
<!-- z0 -->
<g id="node2" class="node">
<title>z0</title>
<ellipse fill="none" stroke="black" stroke-dasharray="5,2" cx="1817.82" cy="-269" rx="27" ry="18"/>
</g>
<!-- d -->
<g id="node3" class="node">
<title>d</title>
<ellipse fill="none" stroke="black" cx="1657.82" cy="-269" rx="27" ry="30.31"/>
<text text-anchor="middle" x="1657.82" y="-260.9" font-family="Times,serif" font-size="32.00">d</text>
</g>
<!-- z0&#45;&gt;d -->
<g id="edge1" class="edge">
<title>z0&#45;&gt;d</title>
<path fill="none" stroke="#000000" d="M1790.73,-269C1764.65,-269 1724.35,-269 1695.15,-269"/>
<polygon fill="#000000" stroke="#000000" points="1694.95,-265.5 1684.95,-269 1694.95,-272.5 1694.95,-265.5"/>
<text text-anchor="middle" x="1737.82" y="-313.4" font-family="Times,serif" font-size="32.00">Mary</text>
<text text-anchor="middle" x="1737.82" y="-278.4" font-family="Times,serif" font-size="32.00">d &#45;k</text>
</g>
<!-- 3 -->
<g id="node11" class="node">
<title>3</title>
<ellipse fill="none" stroke="black" cx="1249.82" cy="-227" rx="27" ry="30.31"/>
<text text-anchor="middle" x="1249.82" y="-218.9" font-family="Times,serif" font-size="32.00">3</text>
</g>
<!-- d&#45;&gt;3 -->
<g id="edge16" class="edge">
<title>d&#45;&gt;3</title>
<path fill="none" stroke="#000000" d="M1635.71,-286.48C1628.83,-291.16 1620.88,-295.58 1612.82,-298 1477.44,-338.6 1418.3,-366.75 1294.82,-298 1281.67,-290.68 1271.95,-277.62 1265.04,-264.68"/>
<polygon fill="#000000" stroke="#000000" points="1268.02,-262.82 1260.49,-255.37 1261.73,-265.89 1268.02,-262.82"/>
<text text-anchor="middle" x="1447.82" y="-383.4" font-family="Times,serif" font-size="32.00">praise</text>
<text text-anchor="middle" x="1447.82" y="-348.4" font-family="Times,serif" font-size="32.00">=d *k 3</text>
</g>
<!-- 4 -->
<g id="node13" class="node">
<title>4</title>
<ellipse fill="none" stroke="black" cx="1447.82" cy="-227" rx="27" ry="30.31"/>
<text text-anchor="middle" x="1447.82" y="-218.9" font-family="Times,serif" font-size="32.00">4</text>
</g>
<!-- d&#45;&gt;4 -->
<g id="edge14" class="edge">
<title>d&#45;&gt;4</title>
<path fill="none" stroke="#000000" d="M1638.95,-246.61C1631.71,-239.24 1622.72,-231.93 1612.82,-228 1571.21,-211.47 1518.85,-214.87 1484.64,-219.95"/>
<polygon fill="#000000" stroke="#000000" points="1483.95,-216.52 1474.63,-221.56 1485.06,-223.43 1483.95,-216.52"/>
<text text-anchor="middle" x="1563.82" y="-272.4" font-family="Times,serif" font-size="32.00">hug</text>
<text text-anchor="middle" x="1563.82" y="-237.4" font-family="Times,serif" font-size="32.00">=d *k 4</text>
</g>
<!-- 0 -->
<g id="node4" class="node">
<title>0</title>
<ellipse fill="none" stroke="black" cx="271" cy="-383" rx="27" ry="30.31"/>
<text text-anchor="middle" x="271" y="-374.9" font-family="Times,serif" font-size="32.00">0</text>
</g>
<!-- 0&#45;&gt;t -->
<g id="edge2" class="edge">
<title>0&#45;&gt;t</title>
<path fill="none" stroke="#000000" d="M243.92,-386.38C203.67,-390.22 125.46,-392.09 72,-358 59.53,-350.05 49.98,-337.17 43,-324.61"/>
<polygon fill="#000000" stroke="#000000" points="46.06,-322.89 38.38,-315.59 39.83,-326.09 46.06,-322.89"/>
<text text-anchor="middle" x="149" y="-432.4" font-family="Times,serif" font-size="32.00">ε_0</text>
<text text-anchor="middle" x="149" y="-397.4" font-family="Times,serif" font-size="32.00">=&gt;0 =v +k t</text>
</g>
<!-- z1 -->
<g id="node5" class="node">
<title>z1</title>
<ellipse fill="none" stroke="black" stroke-dasharray="5,2" cx="476.08" cy="-390" rx="27" ry="18"/>
</g>
<!-- z1&#45;&gt;0 -->
<g id="edge3" class="edge">
<title>z1&#45;&gt;0</title>
<path fill="none" stroke="#000000" d="M448.95,-389.1C413.15,-387.87 348.72,-385.64 308.27,-384.25"/>
<polygon fill="#000000" stroke="#000000" points="308.15,-380.74 298.03,-383.9 307.91,-387.74 308.15,-380.74"/>
<text text-anchor="middle" x="363" y="-466.4" font-family="Times,serif" font-size="32.00">wills |</text>
<text text-anchor="middle" x="363" y="-431.4" font-family="Times,serif" font-size="32.00"> willd</text>
<text text-anchor="middle" x="363" y="-396.4" font-family="Times,serif" font-size="32.00">0</text>
</g>
<!-- v -->
<g id="node6" class="node">
<title>v</title>
<ellipse fill="none" stroke="black" cx="271" cy="-220" rx="27" ry="30.31"/>
<text text-anchor="middle" x="271" y="-211.9" font-family="Times,serif" font-size="32.00">v</text>
</g>
<!-- v&#45;&gt;t -->
<g id="edge4" class="edge">
<title>v&#45;&gt;t</title>
<path fill="none" stroke="#000000" d="M243.81,-220.24C204.75,-221.48 129.63,-227.36 72,-253 66.52,-255.44 61.13,-258.73 56.1,-262.31"/>
<polygon fill="#000000" stroke="#000000" points="53.82,-259.66 48.05,-268.54 58.1,-265.2 53.82,-259.66"/>
<text text-anchor="middle" x="149" y="-332.4" font-family="Times,serif" font-size="32.00">s |</text>
<text text-anchor="middle" x="149" y="-297.4" font-family="Times,serif" font-size="32.00"> d</text>
<text text-anchor="middle" x="149" y="-262.4" font-family="Times,serif" font-size="32.00">=&gt;v +k t</text>
</g>
<!-- perf -->
<g id="node7" class="node">
<title>perf</title>
<ellipse fill="none" stroke="black" cx="476.08" cy="-324" rx="48.17" ry="30.31"/>
<text text-anchor="middle" x="476.08" y="-315.9" font-family="Times,serif" font-size="32.00">perf</text>
</g>
<!-- perf&#45;&gt;v -->
<g id="edge5" class="edge">
<title>perf&#45;&gt;v</title>
<path fill="none" stroke="#000000" d="M438.31,-305.17C400.32,-285.71 341.59,-255.64 305.04,-236.92"/>
<polygon fill="#000000" stroke="#000000" points="306.3,-233.63 295.8,-232.19 303.11,-239.86 306.3,-233.63"/>
<text text-anchor="middle" x="363" y="-334.4" font-family="Times,serif" font-size="32.00">have</text>
<text text-anchor="middle" x="363" y="-299.4" font-family="Times,serif" font-size="32.00">=perf v</text>
</g>
<!-- 1 -->
<g id="node8" class="node">
<title>1</title>
<ellipse fill="none" stroke="black" cx="705.17" cy="-227" rx="27" ry="30.31"/>
<text text-anchor="middle" x="705.17" y="-218.9" font-family="Times,serif" font-size="32.00">1</text>
</g>
<!-- 1&#45;&gt;v -->
<g id="edge6" class="edge">
<title>1&#45;&gt;v</title>
<path fill="none" stroke="#f7931d" stroke-width="2" d="M678.18,-222.33C672.27,-221.42 666.02,-220.57 660.17,-220 531.24,-207.42 377.09,-213.73 308.27,-217.66"/>
<polygon fill="#f7931d" stroke="#f7931d" stroke-width="2" points="307.75,-214.18 297.98,-218.26 308.17,-221.17 307.75,-214.18"/>
<text text-anchor="middle" x="476.08" y="-257.4" font-family="Times,serif" font-size="32.00">ε_1</text>
<text text-anchor="middle" x="476.08" y="-222.4" font-family="Times,serif" font-size="32.00">=&gt;1 v</text>
</g>
<!-- 1&#45;&gt;perf -->
<g id="edge8" class="edge">
<title>1&#45;&gt;perf</title>
<path fill="none" stroke="#f7931d" stroke-width="2" d="M678.48,-221.63C644.1,-215.97 582.76,-211.39 542.17,-240 526.23,-251.23 535.51,-264.15 524.17,-280 520.99,-284.44 517.32,-288.78 513.45,-292.9"/>
<polygon fill="#f7931d" stroke="#f7931d" stroke-width="2" points="510.91,-290.49 506.35,-300.06 515.88,-295.42 510.91,-290.49"/>
<text text-anchor="middle" x="601.17" y="-284.4" font-family="Times,serif" font-size="32.00">n</text>
<text text-anchor="middle" x="601.17" y="-249.4" font-family="Times,serif" font-size="32.00">=&gt;1 perf</text>
</g>
<!-- prog -->
<g id="node9" class="node">
<title>prog</title>
<ellipse fill="none" stroke="black" cx="974.49" cy="-227" rx="52.15" ry="30.31"/>
<text text-anchor="middle" x="974.49" y="-218.9" font-family="Times,serif" font-size="32.00">prog</text>
</g>
<!-- prog&#45;&gt;1 -->
<g id="edge7" class="edge">
<title>prog&#45;&gt;1</title>
<path fill="none" stroke="#f7931d" stroke-width="2" d="M921.95,-227C869.31,-227 788.91,-227 742.56,-227"/>
<polygon fill="#f7931d" stroke="#f7931d" stroke-width="2" points="742.38,-223.5 732.38,-227 742.38,-230.5 742.38,-223.5"/>
<text text-anchor="middle" x="827.17" y="-271.4" font-family="Times,serif" font-size="32.00">be</text>
<text text-anchor="middle" x="827.17" y="-236.4" font-family="Times,serif" font-size="32.00">=prog 1</text>
</g>
<!-- 2 -->
<g id="node10" class="node">
<title>2</title>
<ellipse fill="none" stroke="black" cx="827.17" cy="-129" rx="27" ry="30.31"/>
<text text-anchor="middle" x="827.17" y="-120.9" font-family="Times,serif" font-size="32.00">2</text>
</g>
<!-- 2&#45;&gt;v -->
<g id="edge9" class="edge">
<title>2&#45;&gt;v</title>
<path fill="none" stroke="#000000" d="M800.1,-127.71C749.83,-125.7 636.12,-123.53 542.17,-139 455.2,-153.32 356.96,-187.55 306.3,-206.61"/>
<polygon fill="#000000" stroke="#000000" points="304.93,-203.39 296.82,-210.21 307.41,-209.93 304.93,-203.39"/>
<text text-anchor="middle" x="601.17" y="-183.4" font-family="Times,serif" font-size="32.00">ε_2</text>
<text text-anchor="middle" x="601.17" y="-148.4" font-family="Times,serif" font-size="32.00">=&gt;2 =d v</text>
</g>
<!-- 3&#45;&gt;perf -->
<g id="edge13" class="edge">
<title>3&#45;&gt;perf</title>
<path fill="none" stroke="#000000" d="M1239.65,-255.58C1232.81,-271.91 1221.68,-291.05 1204.82,-301 984.33,-431.07 657.27,-369.74 530.23,-338.44"/>
<polygon fill="#000000" stroke="#000000" points="530.91,-335 520.36,-335.97 529.21,-341.79 530.91,-335"/>
<text text-anchor="middle" x="827.17" y="-424.4" font-family="Times,serif" font-size="32.00">n_1</text>
<text text-anchor="middle" x="827.17" y="-389.4" font-family="Times,serif" font-size="32.00">=&gt;3 =d perf</text>
</g>
<!-- 3&#45;&gt;prog -->
<g id="edge12" class="edge">
<title>3&#45;&gt;prog</title>
<path fill="none" stroke="#000000" d="M1222.61,-227C1180.2,-227 1095.38,-227 1037.05,-227"/>
<polygon fill="#000000" stroke="#000000" points="1036.84,-223.5 1026.84,-227 1036.84,-230.5 1036.84,-223.5"/>
<text text-anchor="middle" x="1124.82" y="-271.4" font-family="Times,serif" font-size="32.00">ing</text>
<text text-anchor="middle" x="1124.82" y="-236.4" font-family="Times,serif" font-size="32.00">=&gt;3 =d prog</text>
</g>
<!-- 3&#45;&gt;2 -->
<g id="edge10" class="edge">
<title>3&#45;&gt;2</title>
<path fill="none" stroke="#000000" d="M1239.54,-198.61C1232.65,-182.36 1221.52,-163.22 1204.82,-153 1096.09,-86.49 935.14,-107.2 864.1,-120.98"/>
<polygon fill="#000000" stroke="#000000" points="863,-117.63 853.89,-123.03 864.38,-124.49 863,-117.63"/>
<text text-anchor="middle" x="1124.82" y="-197.4" font-family="Times,serif" font-size="32.00">ε_3</text>
<text text-anchor="middle" x="1124.82" y="-162.4" font-family="Times,serif" font-size="32.00">=&gt;3 2</text>
</g>
<!-- z2 -->
<g id="node12" class="node">
<title>z2</title>
<ellipse fill="none" stroke="black" stroke-dasharray="5,2" cx="1447.82" cy="-99" rx="27" ry="18"/>
</g>
<!-- z2&#45;&gt;3 -->
<g id="edge11" class="edge">
<title>z2&#45;&gt;3</title>
<path fill="none" stroke="#000000" d="M1421.31,-94.91C1388.53,-91.15 1331.49,-89.78 1294.82,-118 1273.31,-134.55 1262.27,-163.32 1256.63,-187.15"/>
<polygon fill="#000000" stroke="#000000" points="1253.19,-186.5 1254.53,-197.01 1260.04,-187.96 1253.19,-186.5"/>
<text text-anchor="middle" x="1337.82" y="-197.4" font-family="Times,serif" font-size="32.00">laugh |</text>
<text text-anchor="middle" x="1337.82" y="-162.4" font-family="Times,serif" font-size="32.00"> dance</text>
<text text-anchor="middle" x="1337.82" y="-127.4" font-family="Times,serif" font-size="32.00">3</text>
</g>
<!-- 4&#45;&gt;3 -->
<g id="edge15" class="edge">
<title>4&#45;&gt;3</title>
<path fill="none" stroke="#000000" d="M1420.79,-227C1386.52,-227 1326.09,-227 1287.29,-227"/>
<polygon fill="#000000" stroke="#000000" points="1286.95,-223.5 1276.95,-227 1286.95,-230.5 1286.95,-223.5"/>
<text text-anchor="middle" x="1337.82" y="-271.4" font-family="Times,serif" font-size="32.00">ε_4</text>
<text text-anchor="middle" x="1337.82" y="-236.4" font-family="Times,serif" font-size="32.00">=&gt;4 3</text>
</g>
</g>
</svg>
