<?xml version="1.0" encoding="UTF-8" standalone="no"?>
<!DOCTYPE svg PUBLIC "-//W3C//DTD SVG 1.1//EN"
 "http://www.w3.org/Graphics/SVG/1.1/DTD/svg11.dtd">
<!-- Generated by graphviz version 2.47.1 (20210417.1919)
 -->
<!-- Title: G Pages: 1 -->
<svg width="1993pt" height="471pt"
 viewBox="0.00 0.00 1992.82 471.00" xmlns="http://www.w3.org/2000/svg" xmlns:xlink="http://www.w3.org/1999/xlink">
<g id="graph0" class="graph" transform="scale(1 1) rotate(0) translate(4 467)">
<title>G</title>
<polygon fill="white" stroke="transparent" points="-4,4 -4,-467 1988.82,-467 1988.82,4 -4,4"/>
<text text-anchor="middle" x="992.41" y="-13.4" font-family="Times,serif" font-size="32.00">decomposition: &#160;=&gt;2 =d v, ing =&gt;2 =d prog, n =&gt;2 =d perf</text>
<!-- t -->
<g id="node1" class="node">
<title>t</title>
<ellipse fill="lightgray" stroke="black" cx="27" cy="-293" rx="27" ry="30.31"/>
<text text-anchor="middle" x="27" y="-284.9" font-family="Times,serif" font-size="32.00">t</text>
</g>
<!-- z0 -->
<g id="node2" class="node">
<title>z0</title>
<ellipse fill="none" stroke="black" stroke-dasharray="5,2" cx="1957.82" cy="-269" rx="27" ry="18"/>
</g>
<!-- d -->
<g id="node3" class="node">
<title>d</title>
<ellipse fill="none" stroke="black" cx="1797.82" cy="-269" rx="27" ry="30.31"/>
<text text-anchor="middle" x="1797.82" y="-260.9" font-family="Times,serif" font-size="32.00">d</text>
</g>
<!-- z0&#45;&gt;d -->
<g id="edge1" class="edge">
<title>z0&#45;&gt;d</title>
<path fill="none" stroke="#000000" d="M1930.73,-269C1904.65,-269 1864.35,-269 1835.15,-269"/>
<polygon fill="#000000" stroke="#000000" points="1834.95,-265.5 1824.95,-269 1834.95,-272.5 1834.95,-265.5"/>
<text text-anchor="middle" x="1877.82" y="-313.4" font-family="Times,serif" font-size="32.00">Mary</text>
<text text-anchor="middle" x="1877.82" y="-278.4" font-family="Times,serif" font-size="32.00">d &#45;k</text>
</g>
<!-- 3 -->
<g id="node11" class="node">
<title>3</title>
<ellipse fill="none" stroke="black" cx="1389.82" cy="-227" rx="27" ry="30.31"/>
<text text-anchor="middle" x="1389.82" y="-218.9" font-family="Times,serif" font-size="32.00">3</text>
</g>
<!-- d&#45;&gt;3 -->
<g id="edge16" class="edge">
<title>d&#45;&gt;3</title>
<path fill="none" stroke="#000000" d="M1775.71,-286.48C1768.83,-291.16 1760.88,-295.58 1752.82,-298 1617.44,-338.6 1558.3,-366.75 1434.82,-298 1421.67,-290.68 1411.95,-277.62 1405.04,-264.68"/>
<polygon fill="#000000" stroke="#000000" points="1408.02,-262.82 1400.49,-255.37 1401.73,-265.89 1408.02,-262.82"/>
<text text-anchor="middle" x="1587.82" y="-383.4" font-family="Times,serif" font-size="32.00">praise</text>
<text text-anchor="middle" x="1587.82" y="-348.4" font-family="Times,serif" font-size="32.00">=d *k 3</text>
</g>
<!-- 4 -->
<g id="node13" class="node">
<title>4</title>
<ellipse fill="none" stroke="black" cx="1587.82" cy="-227" rx="27" ry="30.31"/>
<text text-anchor="middle" x="1587.82" y="-218.9" font-family="Times,serif" font-size="32.00">4</text>
</g>
<!-- d&#45;&gt;4 -->
<g id="edge14" class="edge">
<title>d&#45;&gt;4</title>
<path fill="none" stroke="#000000" d="M1778.95,-246.61C1771.71,-239.24 1762.72,-231.93 1752.82,-228 1711.21,-211.47 1658.85,-214.87 1624.64,-219.95"/>
<polygon fill="#000000" stroke="#000000" points="1623.95,-216.52 1614.63,-221.56 1625.06,-223.43 1623.95,-216.52"/>
<text text-anchor="middle" x="1703.82" y="-272.4" font-family="Times,serif" font-size="32.00">hug</text>
<text text-anchor="middle" x="1703.82" y="-237.4" font-family="Times,serif" font-size="32.00">=d *k 4</text>
</g>
<!-- 0 -->
<g id="node4" class="node">
<title>0</title>
<ellipse fill="none" stroke="black" cx="271" cy="-358" rx="27" ry="30.31"/>
<text text-anchor="middle" x="271" y="-349.9" font-family="Times,serif" font-size="32.00">0</text>
</g>
<!-- 0&#45;&gt;t -->
<g id="edge2" class="edge">
<title>0&#45;&gt;t</title>
<path fill="none" stroke="#000000" d="M243.87,-360.32C204.55,-362.7 128.73,-362.87 72,-336 65.1,-332.73 58.62,-327.93 52.87,-322.72"/>
<polygon fill="#000000" stroke="#000000" points="55.07,-319.98 45.5,-315.45 50.16,-324.96 55.07,-319.98"/>
<text text-anchor="middle" x="149" y="-405.4" font-family="Times,serif" font-size="32.00">ε_0</text>
<text text-anchor="middle" x="149" y="-370.4" font-family="Times,serif" font-size="32.00">=&gt;0 =v +k t</text>
</g>
<!-- z1 -->
<g id="node5" class="node">
<title>z1</title>
<ellipse fill="none" stroke="black" stroke-dasharray="5,2" cx="476.08" cy="-358" rx="27" ry="18"/>
</g>
<!-- z1&#45;&gt;0 -->
<g id="edge3" class="edge">
<title>z1&#45;&gt;0</title>
<path fill="none" stroke="#000000" d="M448.95,-358C413.15,-358 348.72,-358 308.27,-358"/>
<polygon fill="#000000" stroke="#000000" points="308.03,-354.5 298.03,-358 308.03,-361.5 308.03,-354.5"/>
<text text-anchor="middle" x="363" y="-437.4" font-family="Times,serif" font-size="32.00">wills |</text>
<text text-anchor="middle" x="363" y="-402.4" font-family="Times,serif" font-size="32.00"> willd</text>
<text text-anchor="middle" x="363" y="-367.4" font-family="Times,serif" font-size="32.00">0</text>
</g>
<!-- v -->
<g id="node6" class="node">
<title>v</title>
<ellipse fill="none" stroke="black" cx="271" cy="-228" rx="27" ry="30.31"/>
<text text-anchor="middle" x="271" y="-219.9" font-family="Times,serif" font-size="32.00">v</text>
</g>
<!-- v&#45;&gt;t -->
<g id="edge4" class="edge">
<title>v&#45;&gt;t</title>
<path fill="none" stroke="#000000" d="M244.74,-220.64C205.23,-210.66 127.62,-197.24 72,-227 59.81,-233.52 50.41,-245.08 43.49,-256.72"/>
<polygon fill="#000000" stroke="#000000" points="40.39,-255.1 38.68,-265.56 46.54,-258.45 40.39,-255.1"/>
<text text-anchor="middle" x="149" y="-306.4" font-family="Times,serif" font-size="32.00">s |</text>
<text text-anchor="middle" x="149" y="-271.4" font-family="Times,serif" font-size="32.00"> d</text>
<text text-anchor="middle" x="149" y="-236.4" font-family="Times,serif" font-size="32.00">=&gt;v +k t</text>
</g>
<!-- perf -->
<g id="node7" class="node">
<title>perf</title>
<ellipse fill="none" stroke="black" cx="476.08" cy="-227" rx="48.17" ry="30.31"/>
<text text-anchor="middle" x="476.08" y="-218.9" font-family="Times,serif" font-size="32.00">perf</text>
</g>
<!-- perf&#45;&gt;v -->
<g id="edge5" class="edge">
<title>perf&#45;&gt;v</title>
<path fill="none" stroke="#000000" d="M427.98,-227.23C391.5,-227.41 341.72,-227.66 308.3,-227.82"/>
<polygon fill="#000000" stroke="#000000" points="308.04,-224.32 298.06,-227.87 308.07,-231.32 308.04,-224.32"/>
<text text-anchor="middle" x="363" y="-271.4" font-family="Times,serif" font-size="32.00">have</text>
<text text-anchor="middle" x="363" y="-236.4" font-family="Times,serif" font-size="32.00">=perf v</text>
</g>
<!-- 1 -->
<g id="node8" class="node">
<title>1</title>
<ellipse fill="none" stroke="black" cx="710.17" cy="-134" rx="27" ry="30.31"/>
<text text-anchor="middle" x="710.17" y="-125.9" font-family="Times,serif" font-size="32.00">1</text>
</g>
<!-- 1&#45;&gt;v -->
<g id="edge6" class="edge">
<title>1&#45;&gt;v</title>
<path fill="none" stroke="#000000" d="M683.59,-126.59C633.26,-113.3 518.41,-89.33 428,-118 376.67,-134.28 327.66,-174.2 298.7,-201.2"/>
<polygon fill="#000000" stroke="#000000" points="296.27,-198.68 291.43,-208.1 301.09,-203.76 296.27,-198.68"/>
<text text-anchor="middle" x="476.08" y="-162.4" font-family="Times,serif" font-size="32.00">ε_1</text>
<text text-anchor="middle" x="476.08" y="-127.4" font-family="Times,serif" font-size="32.00">=&gt;1 v</text>
</g>
<!-- 1&#45;&gt;perf -->
<g id="edge8" class="edge">
<title>1&#45;&gt;perf</title>
<path fill="none" stroke="#000000" d="M683.68,-127.8C648.52,-120.8 584.68,-113.86 542.17,-143 526.09,-154.02 535.51,-167.15 524.17,-183 520.99,-187.44 517.32,-191.78 513.45,-195.9"/>
<polygon fill="#000000" stroke="#000000" points="510.91,-193.49 506.35,-203.06 515.88,-198.42 510.91,-193.49"/>
<text text-anchor="middle" x="598.17" y="-187.4" font-family="Times,serif" font-size="32.00">n</text>
<text text-anchor="middle" x="598.17" y="-152.4" font-family="Times,serif" font-size="32.00">=&gt;1 perf</text>
</g>
<!-- prog -->
<g id="node9" class="node">
<title>prog</title>
<ellipse fill="none" stroke="black" cx="948.49" cy="-138" rx="52.15" ry="30.31"/>
<text text-anchor="middle" x="948.49" y="-129.9" font-family="Times,serif" font-size="32.00">prog</text>
</g>
<!-- prog&#45;&gt;1 -->
<g id="edge7" class="edge">
<title>prog&#45;&gt;1</title>
<path fill="none" stroke="#000000" d="M896.01,-135.56C890,-135.34 883.95,-135.14 878.17,-135 833.18,-133.89 781.36,-133.76 747.53,-133.83"/>
<polygon fill="#000000" stroke="#000000" points="747.2,-130.33 737.2,-133.86 747.21,-137.33 747.2,-130.33"/>
<text text-anchor="middle" x="822.17" y="-179.4" font-family="Times,serif" font-size="32.00">be</text>
<text text-anchor="middle" x="822.17" y="-144.4" font-family="Times,serif" font-size="32.00">=prog 1</text>
</g>
<!-- 2 -->
<g id="node10" class="node">
<title>2</title>
<ellipse fill="none" stroke="black" cx="1181.82" cy="-227" rx="27" ry="30.31"/>
<text text-anchor="middle" x="1181.82" y="-218.9" font-family="Times,serif" font-size="32.00">2</text>
</g>
<!-- 2&#45;&gt;v -->
<g id="edge9" class="edge">
<title>2&#45;&gt;v</title>
<path fill="none" stroke="#f7931d" stroke-width="2" d="M1157.87,-241.61C1117.44,-265.91 1030.14,-312 949.49,-312 949.49,-312 949.49,-312 475.08,-312 404.11,-312 376.56,-335.02 316,-298 303.39,-290.29 293.8,-277.45 286.85,-264.86"/>
<polygon fill="#f7931d" stroke="#f7931d" stroke-width="2" points="289.9,-263.14 282.24,-255.81 283.66,-266.31 289.9,-263.14"/>
<text text-anchor="middle" x="710.17" y="-356.4" font-family="Times,serif" font-size="32.00">ε_2</text>
<text text-anchor="middle" x="710.17" y="-321.4" font-family="Times,serif" font-size="32.00">=&gt;2 v</text>
</g>
<!-- 2&#45;&gt;perf -->
<g id="edge13" class="edge">
<title>2&#45;&gt;perf</title>
<path fill="none" stroke="#f7931d" stroke-width="2" d="M1154.52,-227C1052.15,-227 678.92,-227 534.6,-227"/>
<polygon fill="#f7931d" stroke="#f7931d" stroke-width="2" points="534.2,-223.5 524.2,-227 534.2,-230.5 534.2,-223.5"/>
<text text-anchor="middle" x="822.17" y="-271.4" font-family="Times,serif" font-size="32.00">n_1</text>
<text text-anchor="middle" x="822.17" y="-236.4" font-family="Times,serif" font-size="32.00">=&gt;2 perf</text>
</g>
<!-- 2&#45;&gt;prog -->
<g id="edge12" class="edge">
<title>2&#45;&gt;prog</title>
<path fill="none" stroke="#f7931d" stroke-width="2" d="M1173.68,-197.57C1167.38,-178.49 1156.1,-155.02 1136.82,-143 1098.47,-119.09 1046.58,-119.66 1007.14,-125.18"/>
<polygon fill="#f7931d" stroke="#f7931d" stroke-width="2" points="1006.49,-121.73 997.14,-126.72 1007.56,-128.65 1006.49,-121.73"/>
<text text-anchor="middle" x="1077.82" y="-187.4" font-family="Times,serif" font-size="32.00">ing</text>
<text text-anchor="middle" x="1077.82" y="-152.4" font-family="Times,serif" font-size="32.00">=&gt;2 prog</text>
</g>
<!-- 3&#45;&gt;2 -->
<g id="edge10" class="edge">
<title>3&#45;&gt;2</title>
<path fill="none" stroke="#f7931d" stroke-width="2" d="M1362.73,-227C1326.38,-227 1260.33,-227 1219.17,-227"/>
<polygon fill="#f7931d" stroke="#f7931d" stroke-width="2" points="1219.02,-223.5 1209.02,-227 1219.02,-230.5 1219.02,-223.5"/>
<text text-anchor="middle" x="1285.82" y="-271.4" font-family="Times,serif" font-size="32.00">ε_3</text>
<text text-anchor="middle" x="1285.82" y="-236.4" font-family="Times,serif" font-size="32.00">=&gt;3 =d 2</text>
</g>
<!-- z2 -->
<g id="node12" class="node">
<title>z2</title>
<ellipse fill="none" stroke="black" stroke-dasharray="5,2" cx="1587.82" cy="-99" rx="27" ry="18"/>
</g>
<!-- z2&#45;&gt;3 -->
<g id="edge11" class="edge">
<title>z2&#45;&gt;3</title>
<path fill="none" stroke="#000000" d="M1561.31,-94.91C1528.53,-91.15 1471.49,-89.78 1434.82,-118 1413.31,-134.55 1402.27,-163.32 1396.63,-187.15"/>
<polygon fill="#000000" stroke="#000000" points="1393.19,-186.5 1394.53,-197.01 1400.04,-187.96 1393.19,-186.5"/>
<text text-anchor="middle" x="1477.82" y="-197.4" font-family="Times,serif" font-size="32.00">laugh |</text>
<text text-anchor="middle" x="1477.82" y="-162.4" font-family="Times,serif" font-size="32.00"> dance</text>
<text text-anchor="middle" x="1477.82" y="-127.4" font-family="Times,serif" font-size="32.00">3</text>
</g>
<!-- 4&#45;&gt;3 -->
<g id="edge15" class="edge">
<title>4&#45;&gt;3</title>
<path fill="none" stroke="#000000" d="M1560.79,-227C1526.52,-227 1466.09,-227 1427.29,-227"/>
<polygon fill="#000000" stroke="#000000" points="1426.95,-223.5 1416.95,-227 1426.95,-230.5 1426.95,-223.5"/>
<text text-anchor="middle" x="1477.82" y="-271.4" font-family="Times,serif" font-size="32.00">ε_4</text>
<text text-anchor="middle" x="1477.82" y="-236.4" font-family="Times,serif" font-size="32.00">=&gt;4 3</text>
</g>
</g>
</svg>
