<?xml version="1.0" encoding="UTF-8" standalone="no"?>
<!DOCTYPE svg PUBLIC "-//W3C//DTD SVG 1.1//EN"
 "http://www.w3.org/Graphics/SVG/1.1/DTD/svg11.dtd">
<!-- Generated by graphviz version 2.47.1 (20210417.1919)
 -->
<!-- Title: G Pages: 1 -->
<svg width="1797pt" height="1203pt"
 viewBox="0.00 0.00 1797.00 1203.00" xmlns="http://www.w3.org/2000/svg" xmlns:xlink="http://www.w3.org/1999/xlink">
<g id="graph0" class="graph" transform="scale(1 1) rotate(0) translate(4 1199)">
<title>G</title>
<polygon fill="white" stroke="transparent" points="-4,4 -4,-1199 1793,-1199 1793,4 -4,4"/>
<text text-anchor="middle" x="894.5" y="-48.4" font-family="Times,serif" font-size="32.00">decomposition: wills =v +k t, haves =perf +k t, bes =prog +k t, dances =d +k t, praises =d *k =d +k t, laughs =d +k t, hugs =d *k =d +k t</text>
<text text-anchor="middle" x="894.5" y="-13.4" font-family="Times,serif" font-size="32.00">decomposition: willd =v +k t, haved =perf +k t, bed =prog +k t, danced =d +k t, praised =d *k =d +k t, laughd =d +k t, hugd =d *k =d +k t</text>
<!-- t -->
<g id="node1" class="node">
<title>t</title>
<ellipse fill="lightgray" stroke="black" cx="158" cy="-461" rx="27" ry="30.31"/>
<text text-anchor="middle" x="158" y="-452.9" font-family="Times,serif" font-size="32.00">t</text>
</g>
<!-- z0 -->
<g id="node2" class="node">
<title>z0</title>
<ellipse fill="none" stroke="black" stroke-dasharray="5,2" cx="1631" cy="-631" rx="27" ry="18"/>
</g>
<!-- d -->
<g id="node3" class="node">
<title>d</title>
<ellipse fill="none" stroke="black" cx="1471" cy="-631" rx="27" ry="30.31"/>
<text text-anchor="middle" x="1471" y="-622.9" font-family="Times,serif" font-size="32.00">d</text>
</g>
<!-- z0&#45;&gt;d -->
<g id="edge1" class="edge">
<title>z0&#45;&gt;d</title>
<path fill="none" stroke="#000000" d="M1603.91,-631C1577.84,-631 1537.53,-631 1508.34,-631"/>
<polygon fill="#000000" stroke="#000000" points="1508.13,-627.5 1498.13,-631 1508.13,-634.5 1508.13,-627.5"/>
<text text-anchor="middle" x="1551" y="-675.4" font-family="Times,serif" font-size="32.00">Mary</text>
<text text-anchor="middle" x="1551" y="-640.4" font-family="Times,serif" font-size="32.00">d &#45;k</text>
</g>
<!-- 0 -->
<g id="node4" class="node">
<title>0</title>
<ellipse fill="none" stroke="black" cx="360" cy="-757" rx="27" ry="30.31"/>
<text text-anchor="middle" x="360" y="-748.9" font-family="Times,serif" font-size="32.00">0</text>
</g>
<!-- d&#45;&gt;0 -->
<g id="edge13" class="edge">
<title>d&#45;&gt;0</title>
<path fill="none" stroke="#00b9f1" stroke-width="2" d="M1469.68,-661.45C1468.33,-734.23 1461.41,-915.7 1426,-963 1342.52,-1074.5 1278.78,-1090 1139.5,-1090 1139.5,-1090 1139.5,-1090 551,-1090 465,-1090 448.67,-1037.09 405,-963 374.55,-911.34 365.05,-841.34 362.16,-797.69"/>
<polygon fill="#00b9f1" stroke="#00b9f1" stroke-width="2" points="365.64,-797.24 361.58,-787.46 358.66,-797.64 365.64,-797.24"/>
<text text-anchor="middle" x="805" y="-1169.4" font-family="Times,serif" font-size="32.00">laugh |</text>
<text text-anchor="middle" x="805" y="-1134.4" font-family="Times,serif" font-size="32.00"> dance</text>
<text text-anchor="middle" x="805" y="-1099.4" font-family="Times,serif" font-size="32.00">=d 0</text>
</g>
<!-- d&#45;&gt;0 -->
<g id="edge18" class="edge">
<title>d&#45;&gt;0</title>
<path fill="none" stroke="#00b9f1" stroke-width="2" d="M1470.27,-661.55C1470.18,-731.27 1465.75,-898.85 1426,-935 1378.84,-977.88 1203.24,-949 1139.5,-949 1139.5,-949 1139.5,-949 551,-949 464.33,-949 403.78,-848.94 376.8,-793.29"/>
<polygon fill="#00b9f1" stroke="#00b9f1" stroke-width="2" points="379.9,-791.65 372.46,-784.1 373.57,-794.64 379.9,-791.65"/>
<text text-anchor="middle" x="805" y="-1028.4" font-family="Times,serif" font-size="32.00">hug |</text>
<text text-anchor="middle" x="805" y="-993.4" font-family="Times,serif" font-size="32.00"> praise</text>
<text text-anchor="middle" x="805" y="-958.4" font-family="Times,serif" font-size="32.00">=d *k =d 0</text>
</g>
<!-- v -->
<g id="node5" class="node">
<title>v</title>
<ellipse fill="none" stroke="black" cx="552" cy="-602" rx="27" ry="30.31"/>
<text text-anchor="middle" x="552" y="-593.9" font-family="Times,serif" font-size="32.00">v</text>
</g>
<!-- d&#45;&gt;v -->
<g id="edge15" class="edge">
<title>d&#45;&gt;v</title>
<path fill="none" stroke="#000000" d="M1443.86,-629.51C1376.97,-625.1 1194.77,-609.41 1051,-563 1042.49,-560.25 1041.71,-556.05 1033,-554 972.44,-539.7 955.07,-549.64 893,-554 781.41,-561.84 650.74,-583.97 588.91,-595.24"/>
<polygon fill="#000000" stroke="#000000" points="588.09,-591.83 578.89,-597.08 589.36,-598.71 588.09,-591.83"/>
<text text-anchor="middle" x="963" y="-633.4" font-family="Times,serif" font-size="32.00">laugh_2 |</text>
<text text-anchor="middle" x="963" y="-598.4" font-family="Times,serif" font-size="32.00"> dance_2</text>
<text text-anchor="middle" x="963" y="-563.4" font-family="Times,serif" font-size="32.00">=d v</text>
</g>
<!-- d&#45;&gt;v -->
<g id="edge20" class="edge">
<title>d&#45;&gt;v</title>
<path fill="none" stroke="#000000" d="M1444.08,-634.68C1362.75,-645.72 1105.38,-676.68 893,-659 781.08,-649.68 650.56,-623.4 588.84,-610.03"/>
<polygon fill="#000000" stroke="#000000" points="589.35,-606.56 578.83,-607.84 587.86,-613.4 589.35,-606.56"/>
<text text-anchor="middle" x="963" y="-744.4" font-family="Times,serif" font-size="32.00">hug_2 |</text>
<text text-anchor="middle" x="963" y="-709.4" font-family="Times,serif" font-size="32.00"> praise_2</text>
<text text-anchor="middle" x="963" y="-674.4" font-family="Times,serif" font-size="32.00">=d *k =d v</text>
</g>
<!-- 1 -->
<g id="node6" class="node">
<title>1</title>
<ellipse fill="none" stroke="black" cx="360" cy="-346" rx="27" ry="30.31"/>
<text text-anchor="middle" x="360" y="-337.9" font-family="Times,serif" font-size="32.00">1</text>
</g>
<!-- d&#45;&gt;1 -->
<g id="edge14" class="edge">
<title>d&#45;&gt;1</title>
<path fill="none" stroke="#f7931d" stroke-width="2" d="M1470,-600.51C1469.34,-529.98 1463.79,-358.54 1426,-318 1337.23,-222.77 1269.69,-257 1139.5,-257 1139.5,-257 1139.5,-257 551,-257 489.29,-257 426.04,-295.98 390.32,-322.35"/>
<polygon fill="#f7931d" stroke="#f7931d" stroke-width="2" points="388.15,-319.6 382.28,-328.42 392.37,-325.19 388.15,-319.6"/>
<text text-anchor="middle" x="805" y="-336.4" font-family="Times,serif" font-size="32.00">laugh_1 |</text>
<text text-anchor="middle" x="805" y="-301.4" font-family="Times,serif" font-size="32.00"> dance_1</text>
<text text-anchor="middle" x="805" y="-266.4" font-family="Times,serif" font-size="32.00">=d 1</text>
</g>
<!-- d&#45;&gt;1 -->
<g id="edge19" class="edge">
<title>d&#45;&gt;1</title>
<path fill="none" stroke="#f7931d" stroke-width="2" d="M1470.25,-600.44C1470.32,-519.89 1466.63,-304.11 1426,-248 1343.78,-134.45 1279.7,-116 1139.5,-116 1139.5,-116 1139.5,-116 551,-116 452.72,-116 395.74,-242.37 372.84,-307.77"/>
<polygon fill="#f7931d" stroke="#f7931d" stroke-width="2" points="369.49,-306.74 369.58,-317.34 376.12,-309 369.49,-306.74"/>
<text text-anchor="middle" x="805" y="-195.4" font-family="Times,serif" font-size="32.00">hug_1 |</text>
<text text-anchor="middle" x="805" y="-160.4" font-family="Times,serif" font-size="32.00"> praise_1</text>
<text text-anchor="middle" x="805" y="-125.4" font-family="Times,serif" font-size="32.00">=d *k =d 1</text>
</g>
<!-- perf -->
<g id="node7" class="node">
<title>perf</title>
<ellipse fill="none" stroke="black" cx="805" cy="-431" rx="48.17" ry="30.31"/>
<text text-anchor="middle" x="805" y="-422.9" font-family="Times,serif" font-size="32.00">perf</text>
</g>
<!-- d&#45;&gt;perf -->
<g id="edge17" class="edge">
<title>d&#45;&gt;perf</title>
<path fill="none" stroke="#000000" d="M1470.75,-600.28C1470.25,-557.91 1463.66,-481.01 1426,-430 1365.36,-347.87 1324.74,-342.96 1226,-317 1150.78,-297.22 1126.94,-300.2 1051,-317 975.48,-333.71 895.61,-376.18 848.32,-404.3"/>
<polygon fill="#000000" stroke="#000000" points="846.36,-401.4 839.59,-409.55 849.97,-407.4 846.36,-401.4"/>
<text text-anchor="middle" x="1138.5" y="-396.4" font-family="Times,serif" font-size="32.00">laughn |</text>
<text text-anchor="middle" x="1138.5" y="-361.4" font-family="Times,serif" font-size="32.00"> dancen</text>
<text text-anchor="middle" x="1138.5" y="-326.4" font-family="Times,serif" font-size="32.00">=d perf</text>
</g>
<!-- d&#45;&gt;perf -->
<g id="edge22" class="edge">
<title>d&#45;&gt;perf</title>
<path fill="none" stroke="#000000" d="M1457.24,-604.78C1449.6,-591.08 1438.88,-574.76 1426,-563 1351.86,-495.31 1322.33,-486.29 1226,-458 1100.45,-421.13 945.01,-422.63 862.95,-426.86"/>
<polygon fill="#000000" stroke="#000000" points="862.63,-423.37 852.83,-427.42 863.01,-430.36 862.63,-423.37"/>
<text text-anchor="middle" x="1138.5" y="-537.4" font-family="Times,serif" font-size="32.00">hugn |</text>
<text text-anchor="middle" x="1138.5" y="-502.4" font-family="Times,serif" font-size="32.00"> praisen</text>
<text text-anchor="middle" x="1138.5" y="-467.4" font-family="Times,serif" font-size="32.00">=d *k =d perf</text>
</g>
<!-- prog -->
<g id="node8" class="node">
<title>prog</title>
<ellipse fill="none" stroke="black" cx="1138.5" cy="-813" rx="52.15" ry="30.31"/>
<text text-anchor="middle" x="1138.5" y="-804.9" font-family="Times,serif" font-size="32.00">prog</text>
</g>
<!-- d&#45;&gt;prog -->
<g id="edge16" class="edge">
<title>d&#45;&gt;prog</title>
<path fill="none" stroke="#000000" d="M1466.8,-661.39C1461.33,-706.81 1448.53,-789.03 1426,-807 1392.43,-833.78 1273.86,-827.17 1200.18,-820.03"/>
<polygon fill="#000000" stroke="#000000" points="1200.4,-816.53 1190.1,-819.02 1199.7,-823.5 1200.4,-816.53"/>
<text text-anchor="middle" x="1335" y="-905.4" font-family="Times,serif" font-size="32.00">laughing |</text>
<text text-anchor="middle" x="1335" y="-870.4" font-family="Times,serif" font-size="32.00"> danceing</text>
<text text-anchor="middle" x="1335" y="-835.4" font-family="Times,serif" font-size="32.00">=d prog</text>
</g>
<!-- d&#45;&gt;prog -->
<g id="edge21" class="edge">
<title>d&#45;&gt;prog</title>
<path fill="none" stroke="#000000" d="M1454.02,-654.82C1446.62,-663.93 1437.01,-673.46 1426,-679 1353.36,-715.57 1316.56,-661.27 1244,-698 1209.47,-715.48 1180.82,-749.49 1162.31,-776.01"/>
<polygon fill="#000000" stroke="#000000" points="1159.38,-774.09 1156.66,-784.32 1165.17,-778.02 1159.38,-774.09"/>
<text text-anchor="middle" x="1335" y="-777.4" font-family="Times,serif" font-size="32.00">huging |</text>
<text text-anchor="middle" x="1335" y="-742.4" font-family="Times,serif" font-size="32.00"> praiseing</text>
<text text-anchor="middle" x="1335" y="-707.4" font-family="Times,serif" font-size="32.00">=d *k =d prog</text>
</g>
<!-- 0&#45;&gt;t -->
<g id="edge2" class="edge">
<title>0&#45;&gt;t</title>
<path fill="none" stroke="#00b9f1" stroke-width="2" d="M342.97,-733.28C307.28,-680.45 221.22,-553.08 180.74,-493.17"/>
<polygon fill="#00b9f1" stroke="#00b9f1" stroke-width="2" points="183.6,-491.16 175.11,-484.84 177.8,-495.08 183.6,-491.16"/>
<text text-anchor="middle" x="259" y="-730.4" font-family="Times,serif" font-size="32.00">s</text>
<text text-anchor="middle" x="259" y="-695.4" font-family="Times,serif" font-size="32.00">=&gt;0 +k t</text>
</g>
<!-- v&#45;&gt;0 -->
<g id="edge3" class="edge">
<title>v&#45;&gt;0</title>
<path fill="none" stroke="#00b9f1" stroke-width="2" d="M529.57,-619.48C495.42,-647.35 428.56,-701.89 390.1,-733.26"/>
<polygon fill="#00b9f1" stroke="#00b9f1" stroke-width="2" points="387.88,-730.55 382.35,-739.58 392.31,-735.98 387.88,-730.55"/>
<text text-anchor="middle" x="446" y="-764.4" font-family="Times,serif" font-size="32.00">will</text>
<text text-anchor="middle" x="446" y="-729.4" font-family="Times,serif" font-size="32.00">=v 0</text>
</g>
<!-- v&#45;&gt;1 -->
<g id="edge5" class="edge">
<title>v&#45;&gt;1</title>
<path fill="none" stroke="#f7931d" stroke-width="2" d="M533.8,-578.83C499.54,-532.66 422.72,-429.17 384.1,-377.13"/>
<polygon fill="#f7931d" stroke="#f7931d" stroke-width="2" points="386.79,-374.88 378.02,-368.93 381.17,-379.05 386.79,-374.88"/>
<text text-anchor="middle" x="446" y="-556.4" font-family="Times,serif" font-size="32.00">will_1</text>
<text text-anchor="middle" x="446" y="-521.4" font-family="Times,serif" font-size="32.00">=v 1</text>
</g>
<!-- 1&#45;&gt;t -->
<g id="edge4" class="edge">
<title>1&#45;&gt;t</title>
<path fill="none" stroke="#f7931d" stroke-width="2" d="M335.67,-359.42C300.01,-379.92 231.85,-419.11 191.41,-442.36"/>
<polygon fill="#f7931d" stroke="#f7931d" stroke-width="2" points="189.42,-439.47 182.49,-447.49 192.91,-445.54 189.42,-439.47"/>
<text text-anchor="middle" x="259" y="-478.4" font-family="Times,serif" font-size="32.00">d</text>
<text text-anchor="middle" x="259" y="-443.4" font-family="Times,serif" font-size="32.00">=&gt;1 +k t</text>
</g>
<!-- perf&#45;&gt;0 -->
<g id="edge6" class="edge">
<title>perf&#45;&gt;0</title>
<path fill="none" stroke="#00b9f1" stroke-width="2" d="M757.53,-426.04C663.53,-417.11 455.45,-403.21 405,-449 366.42,-484.02 361,-641.18 360.67,-716.5"/>
<polygon fill="#00b9f1" stroke="#00b9f1" stroke-width="2" points="357.17,-716.56 360.65,-726.56 364.17,-716.57 357.17,-716.56"/>
<text text-anchor="middle" x="552" y="-464.4" font-family="Times,serif" font-size="32.00">have</text>
<text text-anchor="middle" x="552" y="-429.4" font-family="Times,serif" font-size="32.00">=perf 0</text>
</g>
<!-- perf&#45;&gt;v -->
<g id="edge8" class="edge">
<title>perf&#45;&gt;v</title>
<path fill="none" stroke="#000000" d="M758.61,-439.15C705.07,-448.93 622.56,-464.55 617,-469 601.77,-481.17 607.32,-491.37 599,-509 589.92,-528.24 579.42,-549.53 570.75,-566.87"/>
<polygon fill="#000000" stroke="#000000" points="567.5,-565.56 566.14,-576.07 573.75,-568.7 567.5,-565.56"/>
<text text-anchor="middle" x="667" y="-513.4" font-family="Times,serif" font-size="32.00">have_2</text>
<text text-anchor="middle" x="667" y="-478.4" font-family="Times,serif" font-size="32.00">=perf v</text>
</g>
<!-- perf&#45;&gt;1 -->
<g id="edge7" class="edge">
<title>perf&#45;&gt;1</title>
<path fill="none" stroke="#f7931d" stroke-width="2" d="M768.8,-410.62C729.07,-388.9 661.79,-355.91 599,-343 528.63,-328.53 444.08,-335.1 397.06,-340.8"/>
<polygon fill="#f7931d" stroke="#f7931d" stroke-width="2" points="396.53,-337.34 387.05,-342.07 397.41,-344.29 396.53,-337.34"/>
<text text-anchor="middle" x="552" y="-387.4" font-family="Times,serif" font-size="32.00">have_1</text>
<text text-anchor="middle" x="552" y="-352.4" font-family="Times,serif" font-size="32.00">=perf 1</text>
</g>
<!-- prog&#45;&gt;0 -->
<g id="edge9" class="edge">
<title>prog&#45;&gt;0</title>
<path fill="none" stroke="#00b9f1" stroke-width="2" d="M1092.2,-827.3C1074,-832.36 1052.7,-837.43 1033,-840 849.66,-863.89 800.3,-866.21 617,-842 520.27,-829.22 494.3,-824.31 405,-785 400.57,-783.05 396.07,-780.69 391.73,-778.19"/>
<polygon fill="#00b9f1" stroke="#00b9f1" stroke-width="2" points="393.46,-775.14 383.1,-772.91 389.81,-781.11 393.46,-775.14"/>
<text text-anchor="middle" x="667" y="-897.4" font-family="Times,serif" font-size="32.00">be</text>
<text text-anchor="middle" x="667" y="-862.4" font-family="Times,serif" font-size="32.00">=prog 0</text>
</g>
<!-- prog&#45;&gt;v -->
<g id="edge11" class="edge">
<title>prog&#45;&gt;v</title>
<path fill="none" stroke="#000000" d="M1086.07,-813.6C1023.45,-813.32 922.39,-809.26 893,-787 875.83,-774 891.68,-755.63 875,-742 784.76,-668.24 714.87,-758.3 617,-695 595.97,-681.4 579.99,-658.21 569.26,-638.39"/>
<polygon fill="#000000" stroke="#000000" points="572.25,-636.56 564.56,-629.28 566.03,-639.77 572.25,-636.56"/>
<text text-anchor="middle" x="805" y="-786.4" font-family="Times,serif" font-size="32.00">be_2</text>
<text text-anchor="middle" x="805" y="-751.4" font-family="Times,serif" font-size="32.00">=prog v</text>
</g>
<!-- prog&#45;&gt;1 -->
<g id="edge10" class="edge">
<title>prog&#45;&gt;1</title>
<path fill="none" stroke="#f7931d" stroke-width="2" d="M1087.27,-819.6C992.34,-831.01 791.08,-849.75 735,-812 717.47,-800.2 734.33,-780.08 717,-768 660.09,-728.32 455.78,-804.27 405,-757 378.21,-732.05 366.17,-485.72 362.39,-386.8"/>
<polygon fill="#f7931d" stroke="#f7931d" stroke-width="2" points="365.88,-386.46 362.01,-376.6 358.88,-386.72 365.88,-386.46"/>
<text text-anchor="middle" x="667" y="-812.4" font-family="Times,serif" font-size="32.00">be_1</text>
<text text-anchor="middle" x="667" y="-777.4" font-family="Times,serif" font-size="32.00">=prog 1</text>
</g>
<!-- prog&#45;&gt;perf -->
<g id="edge12" class="edge">
<title>prog&#45;&gt;perf</title>
<path fill="none" stroke="#000000" d="M1126.25,-783.35C1108.4,-735.46 1073.33,-637.88 1051,-553 1040.4,-512.71 1063.36,-489.54 1033,-461 1026.82,-455.19 928.04,-443.8 862.84,-436.85"/>
<polygon fill="#000000" stroke="#000000" points="863,-433.34 852.69,-435.77 862.26,-440.31 863,-433.34"/>
<text text-anchor="middle" x="963" y="-505.4" font-family="Times,serif" font-size="32.00">ben</text>
<text text-anchor="middle" x="963" y="-470.4" font-family="Times,serif" font-size="32.00">=prog perf</text>
</g>
</g>
</svg>
