<?xml version="1.0" encoding="UTF-8" standalone="no"?>
<!DOCTYPE svg PUBLIC "-//W3C//DTD SVG 1.1//EN"
 "http://www.w3.org/Graphics/SVG/1.1/DTD/svg11.dtd">
<!-- Generated by graphviz version 2.47.1 (20210417.1919)
 -->
<!-- Title: G Pages: 1 -->
<svg width="1654pt" height="1381pt"
 viewBox="0.00 0.00 1654.00 1381.00" xmlns="http://www.w3.org/2000/svg" xmlns:xlink="http://www.w3.org/1999/xlink">
<g id="graph0" class="graph" transform="scale(1 1) rotate(0) translate(4 1377)">
<title>G</title>
<polygon fill="white" stroke="transparent" points="-4,4 -4,-1377 1650,-1377 1650,4 -4,4"/>
<text text-anchor="middle" x="823" y="-13.4" font-family="Times,serif" font-size="32.00">decomposition: have =perf 1, be =prog 1</text>
<!-- t -->
<g id="node1" class="node">
<title>t</title>
<ellipse fill="lightgray" stroke="black" cx="27" cy="-677" rx="27" ry="30.31"/>
<text text-anchor="middle" x="27" y="-668.9" font-family="Times,serif" font-size="32.00">t</text>
</g>
<!-- z0 -->
<g id="node2" class="node">
<title>z0</title>
<ellipse fill="none" stroke="black" stroke-dasharray="5,2" cx="1619" cy="-688" rx="27" ry="18"/>
</g>
<!-- d -->
<g id="node3" class="node">
<title>d</title>
<ellipse fill="none" stroke="black" cx="1459" cy="-688" rx="27" ry="30.31"/>
<text text-anchor="middle" x="1459" y="-679.9" font-family="Times,serif" font-size="32.00">d</text>
</g>
<!-- z0&#45;&gt;d -->
<g id="edge1" class="edge">
<title>z0&#45;&gt;d</title>
<path fill="none" stroke="#000000" d="M1591.91,-688C1565.84,-688 1525.53,-688 1496.34,-688"/>
<polygon fill="#000000" stroke="#000000" points="1496.13,-684.5 1486.13,-688 1496.13,-691.5 1496.13,-684.5"/>
<text text-anchor="middle" x="1539" y="-732.4" font-family="Times,serif" font-size="32.00">Mary</text>
<text text-anchor="middle" x="1539" y="-697.4" font-family="Times,serif" font-size="32.00">d &#45;k</text>
</g>
<!-- 5 -->
<g id="node14" class="node">
<title>5</title>
<ellipse fill="none" stroke="black" cx="1271" cy="-567" rx="27" ry="30.31"/>
<text text-anchor="middle" x="1271" y="-558.9" font-family="Times,serif" font-size="32.00">5</text>
</g>
<!-- d&#45;&gt;5 -->
<g id="edge27" class="edge">
<title>d&#45;&gt;5</title>
<path fill="none" stroke="#000000" d="M1435.19,-673.16C1402.05,-651.61 1340.49,-611.55 1303.18,-587.28"/>
<polygon fill="#000000" stroke="#000000" points="1304.99,-584.29 1294.7,-581.77 1301.18,-590.16 1304.99,-584.29"/>
<text text-anchor="middle" x="1365" y="-703.4" font-family="Times,serif" font-size="32.00">hug</text>
<text text-anchor="middle" x="1365" y="-668.4" font-family="Times,serif" font-size="32.00">=d *k 5</text>
</g>
<!-- 6 -->
<g id="node15" class="node">
<title>6</title>
<ellipse fill="none" stroke="black" cx="1271" cy="-852" rx="27" ry="30.31"/>
<text text-anchor="middle" x="1271" y="-843.9" font-family="Times,serif" font-size="32.00">6</text>
</g>
<!-- d&#45;&gt;6 -->
<g id="edge33" class="edge">
<title>d&#45;&gt;6</title>
<path fill="none" stroke="#000000" d="M1438.7,-708.59C1431.16,-716.4 1422.34,-725.28 1414,-733 1376.63,-767.61 1331.15,-804.94 1301.9,-828.38"/>
<polygon fill="#000000" stroke="#000000" points="1299.37,-825.92 1293.74,-834.9 1303.73,-831.39 1299.37,-825.92"/>
<text text-anchor="middle" x="1365" y="-861.4" font-family="Times,serif" font-size="32.00">praise</text>
<text text-anchor="middle" x="1365" y="-826.4" font-family="Times,serif" font-size="32.00">=d *k 6</text>
</g>
<!-- 0 -->
<g id="node4" class="node">
<title>0</title>
<ellipse fill="none" stroke="black" cx="229" cy="-553" rx="27" ry="30.31"/>
<text text-anchor="middle" x="229" y="-544.9" font-family="Times,serif" font-size="32.00">0</text>
</g>
<!-- 0&#45;&gt;t -->
<g id="edge2" class="edge">
<title>0&#45;&gt;t</title>
<path fill="none" stroke="#000000" d="M205.06,-567.22C169.29,-589.4 100.14,-632.28 59.65,-657.38"/>
<polygon fill="#000000" stroke="#000000" points="57.64,-654.51 50.98,-662.75 61.33,-660.46 57.64,-654.51"/>
<text text-anchor="middle" x="128" y="-692.4" font-family="Times,serif" font-size="32.00">s</text>
<text text-anchor="middle" x="128" y="-657.4" font-family="Times,serif" font-size="32.00">=&gt;0 +k t</text>
</g>
<!-- v -->
<g id="node5" class="node">
<title>v</title>
<ellipse fill="none" stroke="black" cx="421" cy="-673" rx="27" ry="30.31"/>
<text text-anchor="middle" x="421" y="-664.9" font-family="Times,serif" font-size="32.00">v</text>
</g>
<!-- v&#45;&gt;0 -->
<g id="edge3" class="edge">
<title>v&#45;&gt;0</title>
<path fill="none" stroke="#000000" d="M397.08,-658.53C363.27,-637.17 299.92,-597.16 261.68,-573.01"/>
<polygon fill="#000000" stroke="#000000" points="263.32,-569.91 253,-567.53 259.59,-575.83 263.32,-569.91"/>
<text text-anchor="middle" x="315" y="-675.4" font-family="Times,serif" font-size="32.00">will</text>
<text text-anchor="middle" x="315" y="-640.4" font-family="Times,serif" font-size="32.00">=v 0</text>
</g>
<!-- 1 -->
<g id="node6" class="node">
<title>1</title>
<ellipse fill="none" stroke="black" cx="229" cy="-848" rx="27" ry="30.31"/>
<text text-anchor="middle" x="229" y="-839.9" font-family="Times,serif" font-size="32.00">1</text>
</g>
<!-- v&#45;&gt;1 -->
<g id="edge5" class="edge">
<title>v&#45;&gt;1</title>
<path fill="none" stroke="#000000" d="M399.67,-691.73C365.61,-723.09 296.99,-786.3 258.26,-821.97"/>
<polygon fill="#000000" stroke="#000000" points="255.46,-819.79 250.47,-829.14 260.2,-824.94 255.46,-819.79"/>
<text text-anchor="middle" x="315" y="-850.4" font-family="Times,serif" font-size="32.00">will_1</text>
<text text-anchor="middle" x="315" y="-815.4" font-family="Times,serif" font-size="32.00">=v 1</text>
</g>
<!-- 1&#45;&gt;t -->
<g id="edge4" class="edge">
<title>1&#45;&gt;t</title>
<path fill="none" stroke="#000000" d="M206.15,-831.65C175.36,-808.32 117.84,-763.69 72,-722 66.09,-716.62 59.96,-710.65 54.23,-704.85"/>
<polygon fill="#000000" stroke="#000000" points="56.71,-702.38 47.22,-697.67 51.7,-707.27 56.71,-702.38"/>
<text text-anchor="middle" x="128" y="-858.4" font-family="Times,serif" font-size="32.00">d</text>
<text text-anchor="middle" x="128" y="-823.4" font-family="Times,serif" font-size="32.00">=&gt;1 +k t</text>
</g>
<!-- perf -->
<g id="node7" class="node">
<title>perf</title>
<ellipse fill="none" stroke="black" cx="663" cy="-737" rx="48.17" ry="30.31"/>
<text text-anchor="middle" x="663" y="-728.9" font-family="Times,serif" font-size="32.00">perf</text>
</g>
<!-- perf&#45;&gt;0 -->
<g id="edge6" class="edge">
<title>perf&#45;&gt;0</title>
<path fill="none" stroke="#000000" d="M623.98,-718.95C616.66,-714.2 609.56,-708.54 604,-702 590.05,-685.58 598.99,-674.18 586,-657 552.16,-612.26 529.21,-615.77 486,-580 477.75,-573.18 477.91,-568.03 468,-564 400.86,-536.68 314.11,-541.61 266.06,-547.44"/>
<polygon fill="#000000" stroke="#000000" points="265.32,-544.01 255.85,-548.76 266.22,-550.95 265.32,-544.01"/>
<text text-anchor="middle" x="421" y="-608.4" font-family="Times,serif" font-size="32.00">have</text>
<text text-anchor="middle" x="421" y="-573.4" font-family="Times,serif" font-size="32.00">=perf 0</text>
</g>
<!-- perf&#45;&gt;v -->
<g id="edge9" class="edge">
<title>perf&#45;&gt;v</title>
<path fill="none" stroke="#000000" d="M630.25,-714.39C621.51,-707.77 612.19,-700.34 604,-693 595.34,-685.24 596.67,-678.63 586,-674 544.81,-656.13 492.14,-659.9 457.76,-665.42"/>
<polygon fill="#000000" stroke="#000000" points="456.96,-662.01 447.71,-667.17 458.16,-668.91 456.96,-662.01"/>
<text text-anchor="middle" x="536" y="-718.4" font-family="Times,serif" font-size="32.00">have_1</text>
<text text-anchor="middle" x="536" y="-683.4" font-family="Times,serif" font-size="32.00">=perf v</text>
</g>
<!-- 2 -->
<g id="node8" class="node">
<title>2</title>
<ellipse fill="none" stroke="black" cx="421" cy="-876" rx="27" ry="30.31"/>
<text text-anchor="middle" x="421" y="-867.9" font-family="Times,serif" font-size="32.00">2</text>
</g>
<!-- perf&#45;&gt;2 -->
<g id="edge8" class="edge">
<title>perf&#45;&gt;2</title>
<path fill="none" stroke="#f7931d" stroke-width="2" d="M615.93,-743.45C578.27,-750.48 525.06,-764.62 486,-792 467.72,-804.81 452.35,-824.44 441.25,-841.51"/>
<polygon fill="#f7931d" stroke="#f7931d" stroke-width="2" points="438.19,-839.81 435.85,-850.14 444.12,-843.52 438.19,-839.81"/>
<text text-anchor="middle" x="536" y="-836.4" font-family="Times,serif" font-size="32.00">hav</text>
<text text-anchor="middle" x="536" y="-801.4" font-family="Times,serif" font-size="32.00">=perf 2</text>
</g>
<!-- 2&#45;&gt;1 -->
<g id="edge7" class="edge">
<title>2&#45;&gt;1</title>
<path fill="none" stroke="#f7931d" stroke-width="2" d="M399.45,-894.42C387.64,-903.76 372.01,-914.12 356,-919 321.14,-929.62 305.84,-936.73 274,-919 260.85,-911.68 251.13,-898.62 244.22,-885.68"/>
<polygon fill="#f7931d" stroke="#f7931d" stroke-width="2" points="247.2,-883.82 239.67,-876.37 240.91,-886.89 247.2,-883.82"/>
<text text-anchor="middle" x="315" y="-974.4" font-family="Times,serif" font-size="32.00">e</text>
<text text-anchor="middle" x="315" y="-939.4" font-family="Times,serif" font-size="32.00">=&gt;2 1</text>
</g>
<!-- prog -->
<g id="node9" class="node">
<title>prog</title>
<ellipse fill="none" stroke="black" cx="971" cy="-712" rx="52.15" ry="30.31"/>
<text text-anchor="middle" x="971" y="-703.9" font-family="Times,serif" font-size="32.00">prog</text>
</g>
<!-- prog&#45;&gt;0 -->
<g id="edge10" class="edge">
<title>prog&#45;&gt;0</title>
<path fill="none" stroke="#000000" d="M924.39,-697.97C913.31,-692.81 902.28,-685.96 894,-677 878.26,-659.96 892.96,-643.83 876,-628 783.95,-542.13 697.93,-632.81 604,-549 588.54,-535.21 603.25,-517.48 586,-506 484.34,-438.35 329.85,-501.73 262.87,-535.24"/>
<polygon fill="#000000" stroke="#000000" points="260.96,-532.29 253.64,-539.95 264.14,-538.52 260.96,-532.29"/>
<text text-anchor="middle" x="536" y="-550.4" font-family="Times,serif" font-size="32.00">be</text>
<text text-anchor="middle" x="536" y="-515.4" font-family="Times,serif" font-size="32.00">=prog 0</text>
</g>
<!-- prog&#45;&gt;v -->
<g id="edge12" class="edge">
<title>prog&#45;&gt;v</title>
<path fill="none" stroke="#000000" d="M928.95,-693.45C880.61,-672.71 797.35,-640.42 722,-628 670.25,-619.47 656.06,-621.7 604,-628 551.87,-634.31 493.16,-650.54 456.87,-661.68"/>
<polygon fill="#000000" stroke="#000000" points="455.76,-658.36 447.25,-664.67 457.84,-665.04 455.76,-658.36"/>
<text text-anchor="middle" x="663" y="-672.4" font-family="Times,serif" font-size="32.00">be_1</text>
<text text-anchor="middle" x="663" y="-637.4" font-family="Times,serif" font-size="32.00">=prog v</text>
</g>
<!-- prog&#45;&gt;perf -->
<g id="edge13" class="edge">
<title>prog&#45;&gt;perf</title>
<path fill="none" stroke="#000000" d="M922.93,-699.32C875.86,-688.72 801.78,-677.73 740,-694 727.62,-697.26 715.14,-703.05 703.97,-709.34"/>
<polygon fill="#000000" stroke="#000000" points="702.15,-706.35 695.33,-714.45 705.71,-712.37 702.15,-706.35"/>
<text text-anchor="middle" x="808" y="-738.4" font-family="Times,serif" font-size="32.00">ben</text>
<text text-anchor="middle" x="808" y="-703.4" font-family="Times,serif" font-size="32.00">=prog perf</text>
</g>
<!-- prog&#45;&gt;2 -->
<g id="edge11" class="edge">
<title>prog&#45;&gt;2</title>
<path fill="none" stroke="#f7931d" stroke-width="2" d="M935.76,-734.97C918.37,-745.96 896.61,-758.71 876,-768 760.29,-820.15 723.65,-812.65 604,-855 595.91,-857.86 594.36,-860.06 586,-862 542.92,-872 492,-875.02 458.45,-875.85"/>
<polygon fill="#f7931d" stroke="#f7931d" stroke-width="2" points="458.14,-872.36 448.2,-876.05 458.27,-879.36 458.14,-872.36"/>
<text text-anchor="middle" x="663" y="-899.4" font-family="Times,serif" font-size="32.00">b</text>
<text text-anchor="middle" x="663" y="-864.4" font-family="Times,serif" font-size="32.00">=prog 2</text>
</g>
<!-- 3 -->
<g id="node10" class="node">
<title>3</title>
<ellipse fill="none" stroke="black" cx="1271" cy="-1096" rx="27" ry="30.31"/>
<text text-anchor="middle" x="1271" y="-1087.9" font-family="Times,serif" font-size="32.00">3</text>
</g>
<!-- 3&#45;&gt;0 -->
<g id="edge14" class="edge">
<title>3&#45;&gt;0</title>
<path fill="none" stroke="#000000" d="M1246.58,-1109.83C1197.47,-1137.49 1079.34,-1197 972,-1197 972,-1197 972,-1197 420,-1197 312.44,-1197 312.88,-1104.28 274,-1004 242.54,-922.85 264.4,-895.63 256,-809 248.62,-732.83 239.47,-643.96 234.23,-593.5"/>
<polygon fill="#000000" stroke="#000000" points="237.69,-592.92 233.17,-583.33 230.73,-593.64 237.69,-592.92"/>
<text text-anchor="middle" x="663" y="-1241.4" font-family="Times,serif" font-size="32.00">ε_0</text>
<text text-anchor="middle" x="663" y="-1206.4" font-family="Times,serif" font-size="32.00">=&gt;3 =d 0</text>
</g>
<!-- 3&#45;&gt;v -->
<g id="edge17" class="edge">
<title>3&#45;&gt;v</title>
<path fill="none" stroke="#000000" d="M1243.87,-1095.67C1134.92,-1093.9 717.24,-1083.1 604,-1021 530.85,-980.88 525.51,-948.49 486,-875 457.52,-822.02 439.31,-754.31 429.87,-712.3"/>
<polygon fill="#000000" stroke="#000000" points="433.27,-711.47 427.71,-702.45 426.44,-712.97 433.27,-711.47"/>
<text text-anchor="middle" x="808" y="-1120.4" font-family="Times,serif" font-size="32.00">ε_2</text>
<text text-anchor="middle" x="808" y="-1085.4" font-family="Times,serif" font-size="32.00">=&gt;3 =d v</text>
</g>
<!-- 3&#45;&gt;1 -->
<g id="edge16" class="edge">
<title>3&#45;&gt;1</title>
<path fill="none" stroke="#000000" d="M1265.64,-1125.99C1260.42,-1151.72 1249.26,-1188.16 1226,-1211 1140.34,-1295.14 1092.07,-1303 972,-1303 972,-1303 972,-1303 420,-1303 343.3,-1303 315.04,-1275.8 274,-1211 240.53,-1158.15 232.52,-971.55 230.6,-888.45"/>
<polygon fill="#000000" stroke="#000000" points="234.1,-888.29 230.39,-878.37 227.1,-888.44 234.1,-888.29"/>
<text text-anchor="middle" x="663" y="-1347.4" font-family="Times,serif" font-size="32.00">ε_1</text>
<text text-anchor="middle" x="663" y="-1312.4" font-family="Times,serif" font-size="32.00">=&gt;3 =d 1</text>
</g>
<!-- 3&#45;&gt;perf -->
<g id="edge19" class="edge">
<title>3&#45;&gt;perf</title>
<path fill="none" stroke="#000000" d="M1245.45,-1085.28C1204.97,-1067.94 1121.36,-1033.48 1048,-1012 913.73,-972.68 835.38,-1049.35 740,-947 700.23,-904.33 743.77,-871.11 722,-817 715.43,-800.66 704.79,-784.55 694.42,-771.13"/>
<polygon fill="#000000" stroke="#000000" points="697.01,-768.76 688.03,-763.13 691.54,-773.13 697.01,-768.76"/>
<text text-anchor="middle" x="971" y="-1056.4" font-family="Times,serif" font-size="32.00">n</text>
<text text-anchor="middle" x="971" y="-1021.4" font-family="Times,serif" font-size="32.00">=&gt;3 =d perf</text>
</g>
<!-- 3&#45;&gt;prog -->
<g id="edge18" class="edge">
<title>3&#45;&gt;prog</title>
<path fill="none" stroke="#000000" d="M1265.97,-1066.07C1260.65,-1034.2 1249.11,-983.2 1226,-945 1174.92,-860.55 1124.92,-870.18 1066,-791 1055.56,-776.97 1060.06,-768.67 1048,-756 1040.52,-748.14 1031.32,-741.24 1021.93,-735.39"/>
<polygon fill="#000000" stroke="#000000" points="1023.7,-732.37 1013.31,-730.3 1020.15,-738.4 1023.7,-732.37"/>
<text text-anchor="middle" x="1146" y="-989.4" font-family="Times,serif" font-size="32.00">ing</text>
<text text-anchor="middle" x="1146" y="-954.4" font-family="Times,serif" font-size="32.00">=&gt;3 =d prog</text>
</g>
<!-- z1 -->
<g id="node11" class="node">
<title>z1</title>
<ellipse fill="none" stroke="black" stroke-dasharray="5,2" cx="1459" cy="-1096" rx="27" ry="18"/>
</g>
<!-- z1&#45;&gt;3 -->
<g id="edge15" class="edge">
<title>z1&#45;&gt;3</title>
<path fill="none" stroke="#000000" d="M1431.75,-1096C1399.48,-1096 1344.56,-1096 1308.28,-1096"/>
<polygon fill="#000000" stroke="#000000" points="1308.12,-1092.5 1298.12,-1096 1308.12,-1099.5 1308.12,-1092.5"/>
<text text-anchor="middle" x="1365" y="-1140.4" font-family="Times,serif" font-size="32.00">laugh</text>
<text text-anchor="middle" x="1365" y="-1105.4" font-family="Times,serif" font-size="32.00">3</text>
</g>
<!-- 4 -->
<g id="node12" class="node">
<title>4</title>
<ellipse fill="none" stroke="black" cx="1271" cy="-336" rx="27" ry="30.31"/>
<text text-anchor="middle" x="1271" y="-327.9" font-family="Times,serif" font-size="32.00">4</text>
</g>
<!-- 4&#45;&gt;0 -->
<g id="edge20" class="edge">
<title>4&#45;&gt;0</title>
<path fill="none" stroke="#000000" d="M1260.71,-307.72C1253.45,-288.72 1241.91,-263.97 1226,-246 1136.76,-145.21 1106.62,-81 972,-81 972,-81 972,-81 420,-81 286.7,-81 320.64,-218.12 274,-343 252.69,-400.06 240.65,-469.9 234.73,-512.92"/>
<polygon fill="#000000" stroke="#000000" points="231.24,-512.62 233.39,-522.99 238.18,-513.54 231.24,-512.62"/>
<text text-anchor="middle" x="663" y="-125.4" font-family="Times,serif" font-size="32.00">ε_3</text>
<text text-anchor="middle" x="663" y="-90.4" font-family="Times,serif" font-size="32.00">=&gt;4 =d 0</text>
</g>
<!-- 4&#45;&gt;v -->
<g id="edge23" class="edge">
<title>4&#45;&gt;v</title>
<path fill="none" stroke="#000000" d="M1244.61,-329.54C1165.3,-310.77 916.89,-262.61 740,-346 728.88,-351.24 731.95,-359.78 722,-367 630.09,-433.72 553.87,-373.93 486,-465 439.81,-526.98 505.87,-570.61 468,-638 464.56,-644.11 459.58,-649.5 454.14,-654.09"/>
<polygon fill="#000000" stroke="#000000" points="451.85,-651.44 445.99,-660.26 456.07,-657.02 451.85,-651.44"/>
<text text-anchor="middle" x="808" y="-390.4" font-family="Times,serif" font-size="32.00">ε_5</text>
<text text-anchor="middle" x="808" y="-355.4" font-family="Times,serif" font-size="32.00">=&gt;4 =d v</text>
</g>
<!-- 4&#45;&gt;1 -->
<g id="edge22" class="edge">
<title>4&#45;&gt;1</title>
<path fill="none" stroke="#000000" d="M1250.86,-315.06C1243.74,-308.68 1235.15,-302.45 1226,-299 1151.96,-271.06 1127.12,-296.13 1048,-295 949.34,-293.59 697.19,-260.59 604,-293 420.96,-356.66 361.09,-404.88 274,-578 236.4,-652.73 229.71,-752.45 229.2,-807.39"/>
<polygon fill="#000000" stroke="#000000" points="225.7,-807.43 229.17,-817.44 232.7,-807.45 225.7,-807.43"/>
<text text-anchor="middle" x="663" y="-337.4" font-family="Times,serif" font-size="32.00">ε_4</text>
<text text-anchor="middle" x="663" y="-302.4" font-family="Times,serif" font-size="32.00">=&gt;4 =d 1</text>
</g>
<!-- 4&#45;&gt;perf -->
<g id="edge25" class="edge">
<title>4&#45;&gt;perf</title>
<path fill="none" stroke="#000000" d="M1244.75,-343.91C1205.77,-356.39 1128.86,-382.13 1066,-410 986.94,-445.05 968.16,-456.51 894,-501 823.17,-543.48 785.27,-535.92 740,-605 715.97,-641.67 746.96,-665.95 722,-702 719.02,-706.3 715.33,-710.16 711.25,-713.61"/>
<polygon fill="#000000" stroke="#000000" points="708.97,-710.95 703.05,-719.74 713.16,-716.56 708.97,-710.95"/>
<text text-anchor="middle" x="971" y="-545.4" font-family="Times,serif" font-size="32.00">n_1</text>
<text text-anchor="middle" x="971" y="-510.4" font-family="Times,serif" font-size="32.00">=&gt;4 =d perf</text>
</g>
<!-- 4&#45;&gt;prog -->
<g id="edge24" class="edge">
<title>4&#45;&gt;prog</title>
<path fill="none" stroke="#000000" d="M1256.84,-362.24C1249.01,-376.39 1238.24,-393.63 1226,-407 1165.99,-472.58 1110.72,-450.18 1066,-527 1034.22,-581.6 1082.96,-615.38 1048,-668 1042.05,-676.95 1033.62,-684.31 1024.52,-690.27"/>
<polygon fill="#000000" stroke="#000000" points="1022.44,-687.43 1015.65,-695.56 1026.03,-693.44 1022.44,-687.43"/>
<text text-anchor="middle" x="1146" y="-571.4" font-family="Times,serif" font-size="32.00">ing_1</text>
<text text-anchor="middle" x="1146" y="-536.4" font-family="Times,serif" font-size="32.00">=&gt;4 =d prog</text>
</g>
<!-- z2 -->
<g id="node13" class="node">
<title>z2</title>
<ellipse fill="none" stroke="black" stroke-dasharray="5,2" cx="1459" cy="-336" rx="27" ry="18"/>
</g>
<!-- z2&#45;&gt;4 -->
<g id="edge21" class="edge">
<title>z2&#45;&gt;4</title>
<path fill="none" stroke="#000000" d="M1431.75,-336C1399.48,-336 1344.56,-336 1308.28,-336"/>
<polygon fill="#000000" stroke="#000000" points="1308.12,-332.5 1298.12,-336 1308.12,-339.5 1308.12,-332.5"/>
<text text-anchor="middle" x="1365" y="-380.4" font-family="Times,serif" font-size="32.00">dance</text>
<text text-anchor="middle" x="1365" y="-345.4" font-family="Times,serif" font-size="32.00">4</text>
</g>
<!-- 5&#45;&gt;0 -->
<g id="edge26" class="edge">
<title>5&#45;&gt;0</title>
<path fill="none" stroke="#000000" d="M1269.7,-536.6C1267.75,-500.5 1259.27,-440.48 1226,-403 1065.82,-222.51 958.95,-246.72 722,-201 560.49,-169.84 494.1,-214.59 374,-327 314.29,-382.88 268.69,-468.58 245.97,-516.8"/>
<polygon fill="#000000" stroke="#000000" points="242.77,-515.38 241.73,-525.92 249.12,-518.32 242.77,-515.38"/>
<text text-anchor="middle" x="663" y="-245.4" font-family="Times,serif" font-size="32.00">ε_6</text>
<text text-anchor="middle" x="663" y="-210.4" font-family="Times,serif" font-size="32.00">=&gt;5 =d 0</text>
</g>
<!-- 5&#45;&gt;v -->
<g id="edge29" class="edge">
<title>5&#45;&gt;v</title>
<path fill="none" stroke="#000000" d="M1249.26,-548.54C1242.27,-543.15 1234.17,-537.71 1226,-534 1159.81,-503.93 1117.58,-551.23 1066,-500 1039.53,-473.7 1077.07,-441.38 1048,-418 1021.92,-397.03 645.09,-440.65 604,-453 595.43,-455.57 594.34,-458.78 586,-462 542.94,-478.62 516.06,-454.98 486,-490 442.84,-540.28 500.96,-580.52 468,-638 464.51,-644.08 459.5,-649.45 454.06,-654.05"/>
<polygon fill="#000000" stroke="#000000" points="451.77,-651.39 445.9,-660.21 455.99,-656.97 451.77,-651.39"/>
<text text-anchor="middle" x="808" y="-477.4" font-family="Times,serif" font-size="32.00">ε_8</text>
<text text-anchor="middle" x="808" y="-442.4" font-family="Times,serif" font-size="32.00">=&gt;5 =d v</text>
</g>
<!-- 5&#45;&gt;1 -->
<g id="edge28" class="edge">
<title>5&#45;&gt;1</title>
<path fill="none" stroke="#000000" d="M1243.96,-563.91C1238.05,-563.25 1231.81,-562.58 1226,-562 1078.64,-547.42 1040.54,-555.32 894,-534 824.82,-523.93 797.94,-541.12 740,-502 728.05,-493.93 734.67,-481.9 722,-475 668.91,-446.08 646.45,-473.44 586,-473 541.56,-472.67 528.8,-461.02 486,-473 429.92,-488.69 406.2,-492.48 374,-541 343.7,-586.67 382.87,-615.23 356,-663 332.78,-704.26 301.47,-692.44 274,-731 257.36,-754.35 246.18,-784.76 239.25,-808.73"/>
<polygon fill="#000000" stroke="#000000" points="235.82,-808 236.54,-818.57 242.57,-809.86 235.82,-808"/>
<text text-anchor="middle" x="663" y="-519.4" font-family="Times,serif" font-size="32.00">ε_7</text>
<text text-anchor="middle" x="663" y="-484.4" font-family="Times,serif" font-size="32.00">=&gt;5 =d 1</text>
</g>
<!-- 5&#45;&gt;perf -->
<g id="edge31" class="edge">
<title>5&#45;&gt;perf</title>
<path fill="none" stroke="#000000" d="M1243.84,-566.16C1181.74,-564.89 1021.13,-565.79 894,-603 820.17,-624.61 800.96,-635.08 740,-682 730.52,-689.29 731.22,-694.38 722,-702 717.81,-705.46 713.24,-708.82 708.56,-711.99"/>
<polygon fill="#000000" stroke="#000000" points="706.57,-709.11 700.09,-717.49 710.38,-714.98 706.57,-709.11"/>
<text text-anchor="middle" x="971" y="-647.4" font-family="Times,serif" font-size="32.00">n_2</text>
<text text-anchor="middle" x="971" y="-612.4" font-family="Times,serif" font-size="32.00">=&gt;5 =d perf</text>
</g>
<!-- 5&#45;&gt;prog -->
<g id="edge30" class="edge">
<title>5&#45;&gt;prog</title>
<path fill="none" stroke="#000000" d="M1249.44,-586.27C1242.47,-591.84 1234.32,-597.39 1226,-601 1159.91,-629.68 1122.95,-582.88 1066,-627 1050.27,-639.19 1061.27,-653.17 1048,-668 1040.76,-676.09 1031.67,-683.08 1022.32,-688.97"/>
<polygon fill="#000000" stroke="#000000" points="1020.53,-685.96 1013.7,-694.05 1024.09,-691.98 1020.53,-685.96"/>
<text text-anchor="middle" x="1146" y="-671.4" font-family="Times,serif" font-size="32.00">ing_2</text>
<text text-anchor="middle" x="1146" y="-636.4" font-family="Times,serif" font-size="32.00">=&gt;5 =d prog</text>
</g>
<!-- 6&#45;&gt;0 -->
<g id="edge32" class="edge">
<title>6&#45;&gt;0</title>
<path fill="none" stroke="#000000" d="M1269.52,-882.37C1267.24,-914.52 1258.27,-964.12 1226,-990 1151.86,-1049.45 442.13,-981.25 374,-915 346,-887.78 371.04,-865.04 356,-829 330.56,-768.02 301.72,-764.97 274,-705 257.12,-668.48 245.15,-624 238,-592.62"/>
<polygon fill="#000000" stroke="#000000" points="241.34,-591.52 235.76,-582.51 234.51,-593.03 241.34,-591.52"/>
<text text-anchor="middle" x="663" y="-1036.4" font-family="Times,serif" font-size="32.00">ε_9</text>
<text text-anchor="middle" x="663" y="-1001.4" font-family="Times,serif" font-size="32.00">=&gt;6 =d 0</text>
</g>
<!-- 6&#45;&gt;v -->
<g id="edge35" class="edge">
<title>6&#45;&gt;v</title>
<path fill="none" stroke="#000000" d="M1244.25,-857.94C1154.73,-877.64 849.09,-936.78 604,-887 548.18,-875.66 525.69,-877.85 486,-837 452.71,-802.74 436.21,-749.18 428.41,-712.66"/>
<polygon fill="#000000" stroke="#000000" points="431.84,-711.95 426.44,-702.84 424.98,-713.33 431.84,-711.95"/>
<text text-anchor="middle" x="808" y="-951.4" font-family="Times,serif" font-size="32.00">ε_11</text>
<text text-anchor="middle" x="808" y="-916.4" font-family="Times,serif" font-size="32.00">=&gt;6 =d v</text>
</g>
<!-- 6&#45;&gt;1 -->
<g id="edge34" class="edge">
<title>6&#45;&gt;1</title>
<path fill="none" stroke="#000000" d="M1270.63,-882.53C1269.67,-919.69 1262.24,-981.93 1226,-1018 1070.24,-1173.02 958.41,-1133.3 740,-1109 739.18,-1108.91 274.6,-1004.57 274,-1004 242.59,-974.22 233.04,-923.91 230.42,-888.49"/>
<polygon fill="#000000" stroke="#000000" points="233.91,-888.25 229.83,-878.47 226.92,-888.66 233.91,-888.25"/>
<text text-anchor="middle" x="663" y="-1148.4" font-family="Times,serif" font-size="32.00">ε_10</text>
<text text-anchor="middle" x="663" y="-1113.4" font-family="Times,serif" font-size="32.00">=&gt;6 =d 1</text>
</g>
<!-- 6&#45;&gt;perf -->
<g id="edge37" class="edge">
<title>6&#45;&gt;perf</title>
<path fill="none" stroke="#000000" d="M1245.02,-843.72C1204.26,-830.56 1120.7,-805.03 1048,-792 912.7,-767.76 874.26,-793.46 740,-764 731.26,-762.08 722.14,-759.44 713.38,-756.55"/>
<polygon fill="#000000" stroke="#000000" points="714.28,-753.16 703.68,-753.21 712,-759.77 714.28,-753.16"/>
<text text-anchor="middle" x="971" y="-836.4" font-family="Times,serif" font-size="32.00">n_3</text>
<text text-anchor="middle" x="971" y="-801.4" font-family="Times,serif" font-size="32.00">=&gt;6 =d perf</text>
</g>
<!-- 6&#45;&gt;prog -->
<g id="edge36" class="edge">
<title>6&#45;&gt;prog</title>
<path fill="none" stroke="#000000" d="M1269.62,-821.55C1267.4,-789.7 1258.48,-741.07 1226,-717 1196.52,-695.16 1098.1,-699.59 1032.79,-705.37"/>
<polygon fill="#000000" stroke="#000000" points="1032.24,-701.91 1022.6,-706.31 1032.88,-708.88 1032.24,-701.91"/>
<text text-anchor="middle" x="1146" y="-761.4" font-family="Times,serif" font-size="32.00">ing_3</text>
<text text-anchor="middle" x="1146" y="-726.4" font-family="Times,serif" font-size="32.00">=&gt;6 =d prog</text>
</g>
</g>
</svg>
