<?xml version="1.0" encoding="UTF-8" standalone="no"?>
<!DOCTYPE svg PUBLIC "-//W3C//DTD SVG 1.1//EN"
 "http://www.w3.org/Graphics/SVG/1.1/DTD/svg11.dtd">
<!-- Generated by graphviz version 2.47.1 (20210417.1919)
 -->
<!-- Title: G Pages: 1 -->
<svg width="1608pt" height="1452pt"
 viewBox="0.00 0.00 1608.00 1452.00" xmlns="http://www.w3.org/2000/svg" xmlns:xlink="http://www.w3.org/1999/xlink">
<g id="graph0" class="graph" transform="scale(1 1) rotate(0) translate(4 1448)">
<title>G</title>
<polygon fill="white" stroke="transparent" points="-4,4 -4,-1448 1604,-1448 1604,4 -4,4"/>
<text text-anchor="middle" x="800" y="-13.4" font-family="Times,serif" font-size="32.00">decomposition: have =perf 0, be =prog 0</text>
<!-- t -->
<g id="node1" class="node">
<title>t</title>
<ellipse fill="lightgray" stroke="black" cx="27" cy="-633" rx="27" ry="30.31"/>
<text text-anchor="middle" x="27" y="-624.9" font-family="Times,serif" font-size="32.00">t</text>
</g>
<!-- z0 -->
<g id="node2" class="node">
<title>z0</title>
<ellipse fill="none" stroke="black" stroke-dasharray="5,2" cx="1573" cy="-730" rx="27" ry="18"/>
</g>
<!-- d -->
<g id="node3" class="node">
<title>d</title>
<ellipse fill="none" stroke="black" cx="1413" cy="-730" rx="27" ry="30.31"/>
<text text-anchor="middle" x="1413" y="-721.9" font-family="Times,serif" font-size="32.00">d</text>
</g>
<!-- z0&#45;&gt;d -->
<g id="edge1" class="edge">
<title>z0&#45;&gt;d</title>
<path fill="none" stroke="#000000" d="M1545.91,-730C1519.84,-730 1479.53,-730 1450.34,-730"/>
<polygon fill="#000000" stroke="#000000" points="1450.13,-726.5 1440.13,-730 1450.13,-733.5 1450.13,-726.5"/>
<text text-anchor="middle" x="1493" y="-774.4" font-family="Times,serif" font-size="32.00">Mary</text>
<text text-anchor="middle" x="1493" y="-739.4" font-family="Times,serif" font-size="32.00">d &#45;k</text>
</g>
<!-- 6 -->
<g id="node15" class="node">
<title>6</title>
<ellipse fill="none" stroke="black" cx="1225" cy="-529" rx="27" ry="30.31"/>
<text text-anchor="middle" x="1225" y="-520.9" font-family="Times,serif" font-size="32.00">6</text>
</g>
<!-- d&#45;&gt;6 -->
<g id="edge28" class="edge">
<title>d&#45;&gt;6</title>
<path fill="none" stroke="#000000" d="M1392.8,-709.25C1359.22,-672.97 1289.85,-598 1252.01,-557.1"/>
<polygon fill="#000000" stroke="#000000" points="1254.46,-554.6 1245.1,-549.64 1249.32,-559.36 1254.46,-554.6"/>
<text text-anchor="middle" x="1319" y="-726.4" font-family="Times,serif" font-size="32.00">hug</text>
<text text-anchor="middle" x="1319" y="-691.4" font-family="Times,serif" font-size="32.00">=d *k 6</text>
</g>
<!-- 7 -->
<g id="node16" class="node">
<title>7</title>
<ellipse fill="none" stroke="black" cx="1225" cy="-865" rx="27" ry="30.31"/>
<text text-anchor="middle" x="1225" y="-856.9" font-family="Times,serif" font-size="32.00">7</text>
</g>
<!-- d&#45;&gt;7 -->
<g id="edge34" class="edge">
<title>d&#45;&gt;7</title>
<path fill="none" stroke="#000000" d="M1389.93,-746.02C1356.79,-770.07 1294.06,-815.6 1256.55,-842.83"/>
<polygon fill="#000000" stroke="#000000" points="1254.08,-840.3 1248.04,-849 1258.19,-845.96 1254.08,-840.3"/>
<text text-anchor="middle" x="1319" y="-877.4" font-family="Times,serif" font-size="32.00">praise</text>
<text text-anchor="middle" x="1319" y="-842.4" font-family="Times,serif" font-size="32.00">=d *k 7</text>
</g>
<!-- 0 -->
<g id="node4" class="node">
<title>0</title>
<ellipse fill="none" stroke="black" cx="229" cy="-587" rx="27" ry="30.31"/>
<text text-anchor="middle" x="229" y="-578.9" font-family="Times,serif" font-size="32.00">0</text>
</g>
<!-- 0&#45;&gt;t -->
<g id="edge2" class="edge">
<title>0&#45;&gt;t</title>
<path fill="none" stroke="#000000" d="M202.21,-581.32C170.24,-575.57 114.75,-569.85 72,-588 64.5,-591.18 57.64,-596.33 51.68,-602.02"/>
<polygon fill="#000000" stroke="#000000" points="49,-599.76 44.64,-609.42 54.07,-604.59 49,-599.76"/>
<text text-anchor="middle" x="128" y="-632.4" font-family="Times,serif" font-size="32.00">s</text>
<text text-anchor="middle" x="128" y="-597.4" font-family="Times,serif" font-size="32.00">=&gt;0 +k t</text>
</g>
<!-- v -->
<g id="node5" class="node">
<title>v</title>
<ellipse fill="none" stroke="black" cx="401" cy="-587" rx="27" ry="30.31"/>
<text text-anchor="middle" x="401" y="-578.9" font-family="Times,serif" font-size="32.00">v</text>
</g>
<!-- v&#45;&gt;0 -->
<g id="edge3" class="edge">
<title>v&#45;&gt;0</title>
<path fill="none" stroke="#000000" d="M394.49,-557.39C388.79,-536 377.57,-508.59 356,-495 325.17,-475.57 304.83,-475.57 274,-495 255.63,-506.58 244.77,-528.17 238.43,-547.53"/>
<polygon fill="#000000" stroke="#000000" points="234.99,-546.8 235.51,-557.39 241.71,-548.79 234.99,-546.8"/>
<text text-anchor="middle" x="315" y="-539.4" font-family="Times,serif" font-size="32.00">will</text>
<text text-anchor="middle" x="315" y="-504.4" font-family="Times,serif" font-size="32.00">=v 0</text>
</g>
<!-- 1 -->
<g id="node6" class="node">
<title>1</title>
<ellipse fill="none" stroke="black" cx="229" cy="-680" rx="27" ry="30.31"/>
<text text-anchor="middle" x="229" y="-671.9" font-family="Times,serif" font-size="32.00">1</text>
</g>
<!-- v&#45;&gt;1 -->
<g id="edge5" class="edge">
<title>v&#45;&gt;1</title>
<path fill="none" stroke="#000000" d="M385.71,-612.26C374.65,-631.42 360.48,-654.97 356,-658 329.61,-675.84 293.23,-680.59 266.34,-681.33"/>
<polygon fill="#000000" stroke="#000000" points="266.15,-677.83 256.18,-681.43 266.22,-684.83 266.15,-677.83"/>
<text text-anchor="middle" x="315" y="-725.4" font-family="Times,serif" font-size="32.00">will_1</text>
<text text-anchor="middle" x="315" y="-690.4" font-family="Times,serif" font-size="32.00">=v 1</text>
</g>
<!-- 1&#45;&gt;t -->
<g id="edge4" class="edge">
<title>1&#45;&gt;t</title>
<path fill="none" stroke="#000000" d="M201.91,-679.3C170.36,-677.78 116.01,-673 72,-658 67.88,-656.6 63.71,-654.8 59.67,-652.82"/>
<polygon fill="#000000" stroke="#000000" points="60.99,-649.56 50.52,-647.95 57.7,-655.74 60.99,-649.56"/>
<text text-anchor="middle" x="128" y="-723.4" font-family="Times,serif" font-size="32.00">d</text>
<text text-anchor="middle" x="128" y="-688.4" font-family="Times,serif" font-size="32.00">=&gt;1 +k t</text>
</g>
<!-- 2 -->
<g id="node7" class="node">
<title>2</title>
<ellipse fill="none" stroke="black" cx="401" cy="-674" rx="27" ry="30.31"/>
<text text-anchor="middle" x="401" y="-665.9" font-family="Times,serif" font-size="32.00">2</text>
</g>
<!-- 2&#45;&gt;0 -->
<g id="edge6" class="edge">
<title>2&#45;&gt;0</title>
<path fill="none" stroke="#f7931d" stroke-width="2" d="M385.98,-648.73C382.02,-641.43 377.77,-633.44 374,-626 365.55,-609.33 371.75,-598.06 356,-588 329.19,-570.88 292.18,-572.89 265.21,-577.82"/>
<polygon fill="#f7931d" stroke="#f7931d" stroke-width="2" points="264.51,-574.39 255.41,-579.81 265.9,-581.25 264.51,-574.39"/>
<text text-anchor="middle" x="315" y="-632.4" font-family="Times,serif" font-size="32.00">e</text>
<text text-anchor="middle" x="315" y="-597.4" font-family="Times,serif" font-size="32.00">=&gt;2 0</text>
</g>
<!-- perf -->
<g id="node8" class="node">
<title>perf</title>
<ellipse fill="none" stroke="black" cx="617" cy="-843" rx="48.17" ry="30.31"/>
<text text-anchor="middle" x="617" y="-834.9" font-family="Times,serif" font-size="32.00">perf</text>
</g>
<!-- perf&#45;&gt;v -->
<g id="edge10" class="edge">
<title>perf&#45;&gt;v</title>
<path fill="none" stroke="#000000" d="M580.81,-822.79C572.15,-816.24 563.72,-808.24 558,-799 535.37,-762.47 562.67,-740.51 540,-704 512.39,-659.52 485.11,-667.81 446,-633 439.96,-627.63 433.79,-621.57 428.04,-615.66"/>
<polygon fill="#000000" stroke="#000000" points="430.47,-613.13 421.03,-608.31 425.4,-617.96 430.47,-613.13"/>
<text text-anchor="middle" x="493" y="-748.4" font-family="Times,serif" font-size="32.00">have</text>
<text text-anchor="middle" x="493" y="-713.4" font-family="Times,serif" font-size="32.00">=perf v</text>
</g>
<!-- perf&#45;&gt;2 -->
<g id="edge7" class="edge">
<title>perf&#45;&gt;2</title>
<path fill="none" stroke="#f7931d" stroke-width="2" d="M584.36,-820.48C571.17,-812.02 555.37,-803 540,-797 500.29,-781.51 479.01,-804.97 446,-778 426.51,-762.08 415.51,-735.98 409.38,-713.92"/>
<polygon fill="#f7931d" stroke="#f7931d" stroke-width="2" points="412.74,-712.94 406.89,-704.11 405.95,-714.66 412.74,-712.94"/>
<text text-anchor="middle" x="493" y="-841.4" font-family="Times,serif" font-size="32.00">hav</text>
<text text-anchor="middle" x="493" y="-806.4" font-family="Times,serif" font-size="32.00">=perf 2</text>
</g>
<!-- 3 -->
<g id="node9" class="node">
<title>3</title>
<ellipse fill="none" stroke="black" cx="401" cy="-978" rx="27" ry="30.31"/>
<text text-anchor="middle" x="401" y="-969.9" font-family="Times,serif" font-size="32.00">3</text>
</g>
<!-- perf&#45;&gt;3 -->
<g id="edge9" class="edge">
<title>perf&#45;&gt;3</title>
<path fill="none" stroke="#000000" d="M575.66,-858.82C564.22,-863.05 551.7,-867.43 540,-871 498.87,-883.57 479.87,-867.49 446,-894 431.26,-905.54 420.94,-923.39 414.01,-939.68"/>
<polygon fill="#000000" stroke="#000000" points="410.74,-938.44 410.32,-949.03 417.25,-941.01 410.74,-938.44"/>
<text text-anchor="middle" x="493" y="-938.4" font-family="Times,serif" font-size="32.00">hav_1</text>
<text text-anchor="middle" x="493" y="-903.4" font-family="Times,serif" font-size="32.00">=perf 3</text>
</g>
<!-- 3&#45;&gt;1 -->
<g id="edge8" class="edge">
<title>3&#45;&gt;1</title>
<path fill="none" stroke="#000000" d="M385.65,-952.85C355.2,-899.46 284.05,-774.75 249.51,-714.2"/>
<polygon fill="#000000" stroke="#000000" points="252.48,-712.35 244.49,-705.4 246.4,-715.82 252.48,-712.35"/>
<text text-anchor="middle" x="315" y="-943.4" font-family="Times,serif" font-size="32.00">e_1</text>
<text text-anchor="middle" x="315" y="-908.4" font-family="Times,serif" font-size="32.00">=&gt;3 1</text>
</g>
<!-- prog -->
<g id="node10" class="node">
<title>prog</title>
<ellipse fill="none" stroke="black" cx="925" cy="-755" rx="52.15" ry="30.31"/>
<text text-anchor="middle" x="925" y="-746.9" font-family="Times,serif" font-size="32.00">prog</text>
</g>
<!-- prog&#45;&gt;v -->
<g id="edge13" class="edge">
<title>prog&#45;&gt;v</title>
<path fill="none" stroke="#000000" d="M881.55,-737.83C815.09,-710.96 694,-662 694,-662 679.26,-647.44 692.55,-631.46 676,-619 657.39,-604.99 508.87,-593.8 438.6,-589.23"/>
<polygon fill="#000000" stroke="#000000" points="438.63,-585.72 428.43,-588.58 438.19,-592.71 438.63,-585.72"/>
<text text-anchor="middle" x="617" y="-663.4" font-family="Times,serif" font-size="32.00">be</text>
<text text-anchor="middle" x="617" y="-628.4" font-family="Times,serif" font-size="32.00">=prog v</text>
</g>
<!-- prog&#45;&gt;2 -->
<g id="edge11" class="edge">
<title>prog&#45;&gt;2</title>
<path fill="none" stroke="#f7931d" stroke-width="2" d="M873.96,-748.19C803.18,-738.19 669.97,-717.96 558,-693 549.9,-691.19 548.16,-689.54 540,-688 505.79,-681.56 466.22,-677.93 438.25,-675.99"/>
<polygon fill="#f7931d" stroke="#f7931d" stroke-width="2" points="438.34,-672.49 428.13,-675.33 437.88,-679.47 438.34,-672.49"/>
<text text-anchor="middle" x="617" y="-761.4" font-family="Times,serif" font-size="32.00">b</text>
<text text-anchor="middle" x="617" y="-726.4" font-family="Times,serif" font-size="32.00">=prog 2</text>
</g>
<!-- prog&#45;&gt;perf -->
<g id="edge14" class="edge">
<title>prog&#45;&gt;perf</title>
<path fill="none" stroke="#000000" d="M873.43,-749.75C814.74,-744.7 722.39,-740.29 694,-759 677.72,-769.73 688.14,-783.75 676,-799 671.35,-804.85 665.75,-810.34 659.89,-815.33"/>
<polygon fill="#000000" stroke="#000000" points="657.42,-812.83 651.81,-821.81 661.8,-818.29 657.42,-812.83"/>
<text text-anchor="middle" x="762" y="-803.4" font-family="Times,serif" font-size="32.00">ben</text>
<text text-anchor="middle" x="762" y="-768.4" font-family="Times,serif" font-size="32.00">=prog perf</text>
</g>
<!-- prog&#45;&gt;3 -->
<g id="edge12" class="edge">
<title>prog&#45;&gt;3</title>
<path fill="none" stroke="#000000" d="M896.72,-781C878.72,-797.28 854.1,-817.94 830,-833 710.06,-907.94 676.58,-927.27 540,-964 506.29,-973.07 466.5,-976.35 438.33,-977.5"/>
<polygon fill="#000000" stroke="#000000" points="438.02,-974.01 428.14,-977.84 438.25,-981 438.02,-974.01"/>
<text text-anchor="middle" x="617" y="-1003.4" font-family="Times,serif" font-size="32.00">b_1</text>
<text text-anchor="middle" x="617" y="-968.4" font-family="Times,serif" font-size="32.00">=prog 3</text>
</g>
<!-- 4 -->
<g id="node11" class="node">
<title>4</title>
<ellipse fill="none" stroke="black" cx="1225" cy="-1082" rx="27" ry="30.31"/>
<text text-anchor="middle" x="1225" y="-1073.9" font-family="Times,serif" font-size="32.00">4</text>
</g>
<!-- 4&#45;&gt;0 -->
<g id="edge15" class="edge">
<title>4&#45;&gt;0</title>
<path fill="none" stroke="#000000" d="M1200.86,-1096.44C1113.93,-1148.75 799.53,-1320.52 558,-1228 399.59,-1167.32 347.27,-1125.99 274,-973 242.08,-906.36 274.38,-712.56 256,-641 254.3,-634.36 251.75,-627.57 248.9,-621.14"/>
<polygon fill="#000000" stroke="#000000" points="252.03,-619.57 244.59,-612.03 245.71,-622.57 252.03,-619.57"/>
<text text-anchor="middle" x="617" y="-1297.4" font-family="Times,serif" font-size="32.00">ε_0</text>
<text text-anchor="middle" x="617" y="-1262.4" font-family="Times,serif" font-size="32.00">=&gt;4 =d 0</text>
</g>
<!-- 4&#45;&gt;v -->
<g id="edge18" class="edge">
<title>4&#45;&gt;v</title>
<path fill="none" stroke="#000000" d="M1197.85,-1082.87C1136.44,-1084.51 978.33,-1086.4 848,-1068 716.5,-1049.43 686.86,-1028.1 558,-996 508.21,-983.6 478.66,-1007.58 446,-968 422.42,-939.42 438.07,-670.66 428,-635 426.59,-630 424.59,-624.94 422.32,-620.07"/>
<polygon fill="#000000" stroke="#000000" points="425.36,-618.33 417.7,-611.02 419.12,-621.52 425.36,-618.33"/>
<text text-anchor="middle" x="762" y="-1109.4" font-family="Times,serif" font-size="32.00">ε_2</text>
<text text-anchor="middle" x="762" y="-1074.4" font-family="Times,serif" font-size="32.00">=&gt;4 =d v</text>
</g>
<!-- 4&#45;&gt;1 -->
<g id="edge17" class="edge">
<title>4&#45;&gt;1</title>
<path fill="none" stroke="#000000" d="M1220.91,-1112.31C1215.29,-1161.81 1201.92,-1257.01 1180,-1282 1100.84,-1372.27 1046.07,-1374 926,-1374 926,-1374 926,-1374 400,-1374 264.63,-1374 236.51,-869.53 231.17,-720.8"/>
<polygon fill="#000000" stroke="#000000" points="234.66,-720.59 230.82,-710.72 227.67,-720.83 234.66,-720.59"/>
<text text-anchor="middle" x="617" y="-1418.4" font-family="Times,serif" font-size="32.00">ε_1</text>
<text text-anchor="middle" x="617" y="-1383.4" font-family="Times,serif" font-size="32.00">=&gt;4 =d 1</text>
</g>
<!-- 4&#45;&gt;perf -->
<g id="edge20" class="edge">
<title>4&#45;&gt;perf</title>
<path fill="none" stroke="#000000" d="M1199.11,-1072.19C1108.04,-1036.27 791.75,-911.53 668.1,-862.76"/>
<polygon fill="#000000" stroke="#000000" points="669.07,-859.38 658.48,-858.97 666.5,-865.89 669.07,-859.38"/>
<text text-anchor="middle" x="925" y="-1039.4" font-family="Times,serif" font-size="32.00">n</text>
<text text-anchor="middle" x="925" y="-1004.4" font-family="Times,serif" font-size="32.00">=&gt;4 =d perf</text>
</g>
<!-- 4&#45;&gt;prog -->
<g id="edge19" class="edge">
<title>4&#45;&gt;prog</title>
<path fill="none" stroke="#000000" d="M1221.55,-1051.79C1217.57,-1019.92 1207.15,-969.71 1180,-936 1128.96,-872.62 1078.9,-903.15 1020,-847 1009.02,-836.53 1011.97,-829.43 1002,-818 991.56,-806.03 978.72,-794.46 966.58,-784.58"/>
<polygon fill="#000000" stroke="#000000" points="968.74,-781.83 958.74,-778.35 964.38,-787.31 968.74,-781.83"/>
<text text-anchor="middle" x="1100" y="-980.4" font-family="Times,serif" font-size="32.00">ing</text>
<text text-anchor="middle" x="1100" y="-945.4" font-family="Times,serif" font-size="32.00">=&gt;4 =d prog</text>
</g>
<!-- z1 -->
<g id="node12" class="node">
<title>z1</title>
<ellipse fill="none" stroke="black" stroke-dasharray="5,2" cx="1413" cy="-1082" rx="27" ry="18"/>
</g>
<!-- z1&#45;&gt;4 -->
<g id="edge16" class="edge">
<title>z1&#45;&gt;4</title>
<path fill="none" stroke="#000000" d="M1385.75,-1082C1353.48,-1082 1298.56,-1082 1262.28,-1082"/>
<polygon fill="#000000" stroke="#000000" points="1262.12,-1078.5 1252.12,-1082 1262.12,-1085.5 1262.12,-1078.5"/>
<text text-anchor="middle" x="1319" y="-1126.4" font-family="Times,serif" font-size="32.00">laugh</text>
<text text-anchor="middle" x="1319" y="-1091.4" font-family="Times,serif" font-size="32.00">4</text>
</g>
<!-- 5 -->
<g id="node13" class="node">
<title>5</title>
<ellipse fill="none" stroke="black" cx="1225" cy="-331" rx="27" ry="30.31"/>
<text text-anchor="middle" x="1225" y="-322.9" font-family="Times,serif" font-size="32.00">5</text>
</g>
<!-- 5&#45;&gt;0 -->
<g id="edge21" class="edge">
<title>5&#45;&gt;0</title>
<path fill="none" stroke="#000000" d="M1223.52,-300.58C1221.36,-265.51 1212.61,-208.19 1180,-173 1098.38,-84.94 1046.07,-81 926,-81 926,-81 926,-81 400,-81 287.32,-81 311.19,-194.64 274,-301 244.64,-384.98 234.84,-489.63 231.59,-546.17"/>
<polygon fill="#000000" stroke="#000000" points="228.08,-546.31 231.04,-556.48 235.07,-546.68 228.08,-546.31"/>
<text text-anchor="middle" x="617" y="-125.4" font-family="Times,serif" font-size="32.00">ε_3</text>
<text text-anchor="middle" x="617" y="-90.4" font-family="Times,serif" font-size="32.00">=&gt;5 =d 0</text>
</g>
<!-- 5&#45;&gt;v -->
<g id="edge24" class="edge">
<title>5&#45;&gt;v</title>
<path fill="none" stroke="#000000" d="M1197.92,-328.04C1104.7,-318.71 781.71,-297.07 558,-415 497,-447.16 447.86,-513.14 421.98,-553.38"/>
<polygon fill="#000000" stroke="#000000" points="418.89,-551.72 416.51,-562.05 424.8,-555.46 418.89,-551.72"/>
<text text-anchor="middle" x="762" y="-406.4" font-family="Times,serif" font-size="32.00">ε_5</text>
<text text-anchor="middle" x="762" y="-371.4" font-family="Times,serif" font-size="32.00">=&gt;5 =d v</text>
</g>
<!-- 5&#45;&gt;1 -->
<g id="edge23" class="edge">
<title>5&#45;&gt;1</title>
<path fill="none" stroke="#000000" d="M1200.67,-317.22C1113.05,-267.34 796.51,-104.2 558,-201 394.91,-267.19 352.13,-319.28 274,-477 244.39,-536.77 274.72,-561.98 256,-626 254.08,-632.58 251.42,-639.34 248.54,-645.76"/>
<polygon fill="#000000" stroke="#000000" points="245.35,-644.33 244.22,-654.87 251.67,-647.34 245.35,-644.33"/>
<text text-anchor="middle" x="617" y="-245.4" font-family="Times,serif" font-size="32.00">ε_4</text>
<text text-anchor="middle" x="617" y="-210.4" font-family="Times,serif" font-size="32.00">=&gt;5 =d 1</text>
</g>
<!-- 5&#45;&gt;perf -->
<g id="edge26" class="edge">
<title>5&#45;&gt;perf</title>
<path fill="none" stroke="#000000" d="M1198.91,-339.12C1192.74,-341.08 1186.14,-343.14 1180,-345 1109.18,-366.44 1085.83,-357.22 1020,-391 924.28,-440.12 927.54,-495.6 830,-541 774.05,-567.04 734.89,-522.78 694,-569 661.2,-606.07 697.99,-746.66 676,-791 671.76,-799.54 665.46,-807.32 658.55,-814.11"/>
<polygon fill="#000000" stroke="#000000" points="655.93,-811.77 650.89,-821.08 660.64,-816.95 655.93,-811.77"/>
<text text-anchor="middle" x="925" y="-576.4" font-family="Times,serif" font-size="32.00">n_1</text>
<text text-anchor="middle" x="925" y="-541.4" font-family="Times,serif" font-size="32.00">=&gt;5 =d perf</text>
</g>
<!-- 5&#45;&gt;prog -->
<g id="edge25" class="edge">
<title>5&#45;&gt;prog</title>
<path fill="none" stroke="#000000" d="M1207.66,-354.53C1199.61,-365.79 1189.6,-379.33 1180,-391 1113.28,-472.15 1064.13,-469.66 1020,-565 992.72,-623.93 1037.58,-655.68 1002,-710 995.89,-719.33 987.12,-726.99 977.69,-733.18"/>
<polygon fill="#000000" stroke="#000000" points="975.67,-730.3 968.9,-738.45 979.27,-736.31 975.67,-730.3"/>
<text text-anchor="middle" x="1100" y="-609.4" font-family="Times,serif" font-size="32.00">ing_1</text>
<text text-anchor="middle" x="1100" y="-574.4" font-family="Times,serif" font-size="32.00">=&gt;5 =d prog</text>
</g>
<!-- z2 -->
<g id="node14" class="node">
<title>z2</title>
<ellipse fill="none" stroke="black" stroke-dasharray="5,2" cx="1413" cy="-331" rx="27" ry="18"/>
</g>
<!-- z2&#45;&gt;5 -->
<g id="edge22" class="edge">
<title>z2&#45;&gt;5</title>
<path fill="none" stroke="#000000" d="M1385.75,-331C1353.48,-331 1298.56,-331 1262.28,-331"/>
<polygon fill="#000000" stroke="#000000" points="1262.12,-327.5 1252.12,-331 1262.12,-334.5 1262.12,-327.5"/>
<text text-anchor="middle" x="1319" y="-375.4" font-family="Times,serif" font-size="32.00">dance</text>
<text text-anchor="middle" x="1319" y="-340.4" font-family="Times,serif" font-size="32.00">5</text>
</g>
<!-- 6&#45;&gt;0 -->
<g id="edge27" class="edge">
<title>6&#45;&gt;0</title>
<path fill="none" stroke="#000000" d="M1210.56,-502.96C1202.8,-489.47 1192.17,-473.29 1180,-461 1084.78,-364.81 1061.35,-293 926,-293 926,-293 926,-293 400,-293 284.18,-293 246.01,-466.1 234.52,-546.65"/>
<polygon fill="#000000" stroke="#000000" points="231,-546.54 233.13,-556.92 237.94,-547.48 231,-546.54"/>
<text text-anchor="middle" x="617" y="-337.4" font-family="Times,serif" font-size="32.00">ε_6</text>
<text text-anchor="middle" x="617" y="-302.4" font-family="Times,serif" font-size="32.00">=&gt;6 =d 0</text>
</g>
<!-- 6&#45;&gt;v -->
<g id="edge30" class="edge">
<title>6&#45;&gt;v</title>
<path fill="none" stroke="#000000" d="M1198.01,-523.79C1192.11,-522.74 1185.85,-521.74 1180,-521 1126.35,-514.23 744.84,-477.59 694,-496 684.21,-499.55 685.38,-506.47 676,-511 581.98,-556.44 542.73,-519.66 446,-559 441.52,-560.82 436.99,-563.1 432.63,-565.57"/>
<polygon fill="#000000" stroke="#000000" points="430.72,-562.64 423.99,-570.82 434.35,-568.62 430.72,-562.64"/>
<text text-anchor="middle" x="762" y="-540.4" font-family="Times,serif" font-size="32.00">ε_8</text>
<text text-anchor="middle" x="762" y="-505.4" font-family="Times,serif" font-size="32.00">=&gt;6 =d v</text>
</g>
<!-- 6&#45;&gt;1 -->
<g id="edge29" class="edge">
<title>6&#45;&gt;1</title>
<path fill="none" stroke="#000000" d="M1201.64,-512.74C1194.97,-508.61 1187.44,-504.61 1180,-502 1039.67,-452.89 995.41,-480.38 848,-461 771.47,-450.94 753,-442.35 676,-437 623.68,-433.37 609.18,-425.53 558,-437 421.81,-467.52 366.35,-466.36 274,-571 256.98,-590.28 265.6,-602.14 256,-626 253.55,-632.08 250.74,-638.44 247.88,-644.57"/>
<polygon fill="#000000" stroke="#000000" points="244.55,-643.41 243.4,-653.95 250.87,-646.43 244.55,-643.41"/>
<text text-anchor="middle" x="617" y="-481.4" font-family="Times,serif" font-size="32.00">ε_7</text>
<text text-anchor="middle" x="617" y="-446.4" font-family="Times,serif" font-size="32.00">=&gt;6 =d 1</text>
</g>
<!-- 6&#45;&gt;perf -->
<g id="edge32" class="edge">
<title>6&#45;&gt;perf</title>
<path fill="none" stroke="#000000" d="M1216.08,-558.08C1209.52,-576.37 1198.24,-598.74 1180,-611 1118.42,-652.38 917.29,-619.5 848,-646 838.78,-649.52 838.22,-653.54 830,-659 771.03,-698.2 738.93,-687.27 694,-742 679.28,-759.93 689.02,-771.8 676,-791 670.65,-798.89 663.85,-806.38 656.8,-813.09"/>
<polygon fill="#000000" stroke="#000000" points="654.18,-810.74 649.11,-820.04 658.87,-815.93 654.18,-810.74"/>
<text text-anchor="middle" x="925" y="-690.4" font-family="Times,serif" font-size="32.00">n_2</text>
<text text-anchor="middle" x="925" y="-655.4" font-family="Times,serif" font-size="32.00">=&gt;6 =d perf</text>
</g>
<!-- 6&#45;&gt;prog -->
<g id="edge31" class="edge">
<title>6&#45;&gt;prog</title>
<path fill="none" stroke="#000000" d="M1219.49,-558.82C1214.21,-583.64 1203.04,-618.17 1180,-639 1125.12,-688.62 1080.5,-642.41 1020,-685 1008.8,-692.88 1012.1,-700.76 1002,-710 993.77,-717.53 984.08,-724.41 974.43,-730.4"/>
<polygon fill="#000000" stroke="#000000" points="972.41,-727.53 965.61,-735.66 976,-733.54 972.41,-727.53"/>
<text text-anchor="middle" x="1100" y="-729.4" font-family="Times,serif" font-size="32.00">ing_2</text>
<text text-anchor="middle" x="1100" y="-694.4" font-family="Times,serif" font-size="32.00">=&gt;6 =d prog</text>
</g>
<!-- 7&#45;&gt;0 -->
<g id="edge33" class="edge">
<title>7&#45;&gt;0</title>
<path fill="none" stroke="#000000" d="M1219.11,-894.68C1213.63,-918.45 1202.4,-950.88 1180,-970 1124.33,-1017.52 1082.37,-970.7 1020,-1009 1009.52,-1015.43 1013.14,-1024.81 1002,-1030 938.73,-1059.45 429.71,-1059.04 374,-1017 274.51,-941.92 306.12,-875.43 274,-755 260.78,-705.44 271.29,-689.96 256,-641 254.03,-634.68 251.43,-628.16 248.63,-621.94"/>
<polygon fill="#000000" stroke="#000000" points="251.59,-620.01 244.15,-612.47 245.27,-623 251.59,-620.01"/>
<text text-anchor="middle" x="617" y="-1095.4" font-family="Times,serif" font-size="32.00">ε_9</text>
<text text-anchor="middle" x="617" y="-1060.4" font-family="Times,serif" font-size="32.00">=&gt;7 =d 0</text>
</g>
<!-- 7&#45;&gt;v -->
<g id="edge36" class="edge">
<title>7&#45;&gt;v</title>
<path fill="none" stroke="#000000" d="M1221.43,-834.51C1216.54,-784.23 1204.18,-687.18 1180,-664 1127.89,-614.04 1090.42,-651.9 1020,-636 1011.9,-634.17 1010.03,-633.12 1002,-631 925.81,-610.9 908.19,-597.76 830,-588 702.1,-572.03 668.89,-587.22 540,-587 505.48,-586.94 466.1,-586.95 438.27,-586.97"/>
<polygon fill="#000000" stroke="#000000" points="438.2,-583.47 428.2,-586.97 438.2,-590.47 438.2,-583.47"/>
<text text-anchor="middle" x="762" y="-632.4" font-family="Times,serif" font-size="32.00">ε_11</text>
<text text-anchor="middle" x="762" y="-597.4" font-family="Times,serif" font-size="32.00">=&gt;7 =d v</text>
</g>
<!-- 7&#45;&gt;1 -->
<g id="edge35" class="edge">
<title>7&#45;&gt;1</title>
<path fill="none" stroke="#000000" d="M1222.43,-895.34C1219.19,-927.48 1209.41,-977.8 1180,-1009 986.83,-1213.94 832.43,-1193.26 558,-1130 417.46,-1097.6 345.23,-1098.41 274,-973 249.96,-930.67 237.41,-790.75 232.51,-720.7"/>
<polygon fill="#000000" stroke="#000000" points="235.98,-720.23 231.81,-710.49 229,-720.7 235.98,-720.23"/>
<text text-anchor="middle" x="617" y="-1198.4" font-family="Times,serif" font-size="32.00">ε_10</text>
<text text-anchor="middle" x="617" y="-1163.4" font-family="Times,serif" font-size="32.00">=&gt;7 =d 1</text>
</g>
<!-- 7&#45;&gt;perf -->
<g id="edge38" class="edge">
<title>7&#45;&gt;perf</title>
<path fill="none" stroke="#000000" d="M1215.2,-893.77C1208.45,-910.47 1197.29,-930.1 1180,-940 1118.29,-975.34 1075.19,-984.84 1020,-940 989.69,-915.38 1031.95,-879.05 1002,-854 977.58,-833.57 775.96,-837.5 675.06,-840.81"/>
<polygon fill="#000000" stroke="#000000" points="674.91,-837.32 665.04,-841.15 675.15,-844.31 674.91,-837.32"/>
<text text-anchor="middle" x="925" y="-898.4" font-family="Times,serif" font-size="32.00">n_3</text>
<text text-anchor="middle" x="925" y="-863.4" font-family="Times,serif" font-size="32.00">=&gt;7 =d perf</text>
</g>
<!-- 7&#45;&gt;prog -->
<g id="edge37" class="edge">
<title>7&#45;&gt;prog</title>
<path fill="none" stroke="#000000" d="M1217.27,-835.45C1211.08,-815.5 1199.78,-790.44 1180,-777 1164.43,-766.42 1057.37,-760.19 987.3,-757.19"/>
<polygon fill="#000000" stroke="#000000" points="987.39,-753.69 977.25,-756.78 987.1,-760.69 987.39,-753.69"/>
<text text-anchor="middle" x="1100" y="-821.4" font-family="Times,serif" font-size="32.00">ing_3</text>
<text text-anchor="middle" x="1100" y="-786.4" font-family="Times,serif" font-size="32.00">=&gt;7 =d prog</text>
</g>
</g>
</svg>
