<?xml version="1.0" encoding="UTF-8" standalone="no"?>
<!DOCTYPE svg PUBLIC "-//W3C//DTD SVG 1.1//EN"
 "http://www.w3.org/Graphics/SVG/1.1/DTD/svg11.dtd">
<!-- Generated by graphviz version 2.47.1 (20210417.1919)
 -->
<!-- Title: G Pages: 1 -->
<svg width="1727pt" height="1262pt"
 viewBox="0.00 0.00 1727.00 1262.00" xmlns="http://www.w3.org/2000/svg" xmlns:xlink="http://www.w3.org/1999/xlink">
<g id="graph0" class="graph" transform="scale(1 1) rotate(0) translate(4 1258)">
<title>G</title>
<polygon fill="white" stroke="transparent" points="-4,4 -4,-1258 1723,-1258 1723,4 -4,4"/>
<text text-anchor="middle" x="859.5" y="-48.4" font-family="Times,serif" font-size="32.00">decomposition: hug =d *k =d 0, hug =d *k =d 1, hug =d *k =d v, huging =d *k =d prog, hugn =d *k =d perf</text>
<text text-anchor="middle" x="859.5" y="-13.4" font-family="Times,serif" font-size="32.00">decomposition: praise =d *k =d 0, praise =d *k =d 1, praise =d *k =d v, praiseing =d *k =d prog, praisen =d *k =d perf</text>
<!-- t -->
<g id="node1" class="node">
<title>t</title>
<ellipse fill="lightgray" stroke="black" cx="27" cy="-608" rx="27" ry="30.31"/>
<text text-anchor="middle" x="27" y="-599.9" font-family="Times,serif" font-size="32.00">t</text>
</g>
<!-- z0 -->
<g id="node2" class="node">
<title>z0</title>
<ellipse fill="none" stroke="black" stroke-dasharray="5,2" cx="1692" cy="-585" rx="27" ry="18"/>
</g>
<!-- d -->
<g id="node3" class="node">
<title>d</title>
<ellipse fill="none" stroke="black" cx="1532" cy="-585" rx="27" ry="30.31"/>
<text text-anchor="middle" x="1532" y="-576.9" font-family="Times,serif" font-size="32.00">d</text>
</g>
<!-- z0&#45;&gt;d -->
<g id="edge1" class="edge">
<title>z0&#45;&gt;d</title>
<path fill="none" stroke="#000000" d="M1664.91,-585C1638.84,-585 1598.53,-585 1569.34,-585"/>
<polygon fill="#000000" stroke="#000000" points="1569.13,-581.5 1559.13,-585 1569.13,-588.5 1569.13,-581.5"/>
<text text-anchor="middle" x="1612" y="-629.4" font-family="Times,serif" font-size="32.00">Mary</text>
<text text-anchor="middle" x="1612" y="-594.4" font-family="Times,serif" font-size="32.00">d &#45;k</text>
</g>
<!-- 0 -->
<g id="node4" class="node">
<title>0</title>
<ellipse fill="none" stroke="black" cx="229" cy="-802" rx="27" ry="30.31"/>
<text text-anchor="middle" x="229" y="-793.9" font-family="Times,serif" font-size="32.00">0</text>
</g>
<!-- d&#45;&gt;0 -->
<g id="edge13" class="edge">
<title>d&#45;&gt;0</title>
<path fill="none" stroke="#000000" d="M1530.47,-615.38C1528.66,-668.94 1520.77,-782.91 1487,-872 1435.09,-1008.95 1454.96,-1149 1308.5,-1149 1308.5,-1149 1308.5,-1149 420,-1149 281.45,-1149 243.28,-933.54 233.32,-842.18"/>
<polygon fill="#000000" stroke="#000000" points="236.79,-841.78 232.29,-832.19 229.83,-842.49 236.79,-841.78"/>
<text text-anchor="middle" x="808" y="-1228.4" font-family="Times,serif" font-size="32.00">laugh |</text>
<text text-anchor="middle" x="808" y="-1193.4" font-family="Times,serif" font-size="32.00"> dance</text>
<text text-anchor="middle" x="808" y="-1158.4" font-family="Times,serif" font-size="32.00">=d 0</text>
</g>
<!-- v -->
<g id="node5" class="node">
<title>v</title>
<ellipse fill="none" stroke="black" cx="421" cy="-517" rx="27" ry="30.31"/>
<text text-anchor="middle" x="421" y="-508.9" font-family="Times,serif" font-size="32.00">v</text>
</g>
<!-- d&#45;&gt;v -->
<g id="edge15" class="edge">
<title>d&#45;&gt;v</title>
<path fill="none" stroke="#000000" d="M1526.6,-554.94C1512.33,-470.29 1459.22,-236 1308.5,-236 1308.5,-236 1308.5,-236 662,-236 535.82,-236 461.87,-401.84 434.37,-478.72"/>
<polygon fill="#000000" stroke="#000000" points="430.94,-477.91 430.94,-488.51 437.55,-480.23 430.94,-477.91"/>
<text text-anchor="middle" x="971" y="-315.4" font-family="Times,serif" font-size="32.00">laugh_2 |</text>
<text text-anchor="middle" x="971" y="-280.4" font-family="Times,serif" font-size="32.00"> dance_2</text>
<text text-anchor="middle" x="971" y="-245.4" font-family="Times,serif" font-size="32.00">=d v</text>
</g>
<!-- 1 -->
<g id="node6" class="node">
<title>1</title>
<ellipse fill="none" stroke="black" cx="229" cy="-513" rx="27" ry="30.31"/>
<text text-anchor="middle" x="229" y="-504.9" font-family="Times,serif" font-size="32.00">1</text>
</g>
<!-- d&#45;&gt;1 -->
<g id="edge14" class="edge">
<title>d&#45;&gt;1</title>
<path fill="none" stroke="#000000" d="M1529.68,-554.61C1526.17,-484.15 1514.92,-311.88 1487,-262 1436.94,-172.57 1410.99,-116 1308.5,-116 1308.5,-116 1308.5,-116 420,-116 263.18,-116 235.69,-371.17 230.95,-472.36"/>
<polygon fill="#000000" stroke="#000000" points="227.45,-472.37 230.53,-482.51 234.44,-472.66 227.45,-472.37"/>
<text text-anchor="middle" x="808" y="-195.4" font-family="Times,serif" font-size="32.00">laugh_1 |</text>
<text text-anchor="middle" x="808" y="-160.4" font-family="Times,serif" font-size="32.00"> dance_1</text>
<text text-anchor="middle" x="808" y="-125.4" font-family="Times,serif" font-size="32.00">=d 1</text>
</g>
<!-- perf -->
<g id="node7" class="node">
<title>perf</title>
<ellipse fill="none" stroke="black" cx="663" cy="-635" rx="48.17" ry="30.31"/>
<text text-anchor="middle" x="663" y="-626.9" font-family="Times,serif" font-size="32.00">perf</text>
</g>
<!-- d&#45;&gt;perf -->
<g id="edge17" class="edge">
<title>d&#45;&gt;perf</title>
<path fill="none" stroke="#000000" d="M1522.08,-613.36C1515.28,-629.82 1504.12,-649.19 1487,-659 1372.68,-724.55 1025.64,-667.97 894,-662 825.34,-658.89 808.15,-656.91 740,-648 733.31,-647.13 726.31,-646.09 719.38,-644.99"/>
<polygon fill="#000000" stroke="#000000" points="719.76,-641.51 709.32,-643.35 718.63,-648.42 719.76,-641.51"/>
<text text-anchor="middle" x="1146" y="-767.4" font-family="Times,serif" font-size="32.00">laughn |</text>
<text text-anchor="middle" x="1146" y="-732.4" font-family="Times,serif" font-size="32.00"> dancen</text>
<text text-anchor="middle" x="1146" y="-697.4" font-family="Times,serif" font-size="32.00">=d perf</text>
</g>
<!-- prog -->
<g id="node8" class="node">
<title>prog</title>
<ellipse fill="none" stroke="black" cx="971" cy="-512" rx="52.15" ry="30.31"/>
<text text-anchor="middle" x="971" y="-503.9" font-family="Times,serif" font-size="32.00">prog</text>
</g>
<!-- d&#45;&gt;prog -->
<g id="edge16" class="edge">
<title>d&#45;&gt;prog</title>
<path fill="none" stroke="#000000" d="M1514.32,-561.69C1488.28,-527.53 1434.33,-465.3 1371,-441 1344.71,-430.91 1083.78,-440.11 1066,-446 1044.53,-453.12 1023.63,-466.89 1007.01,-480.01"/>
<polygon fill="#000000" stroke="#000000" points="1004.75,-477.34 999.21,-486.38 1009.17,-482.77 1004.75,-477.34"/>
<text text-anchor="middle" x="1307.5" y="-520.4" font-family="Times,serif" font-size="32.00">laughing |</text>
<text text-anchor="middle" x="1307.5" y="-485.4" font-family="Times,serif" font-size="32.00"> danceing</text>
<text text-anchor="middle" x="1307.5" y="-450.4" font-family="Times,serif" font-size="32.00">=d prog</text>
</g>
<!-- 2 -->
<g id="node9" class="node">
<title>2</title>
<ellipse fill="none" stroke="black" cx="1307.5" cy="-870" rx="27" ry="30.31"/>
<text text-anchor="middle" x="1307.5" y="-861.9" font-family="Times,serif" font-size="32.00">2</text>
</g>
<!-- d&#45;&gt;2 -->
<g id="edge19" class="edge">
<title>d&#45;&gt;2</title>
<path fill="none" stroke="#00b9f1" stroke-width="2" d="M1522.34,-613.66C1514.92,-635.65 1502.92,-666.17 1487,-690 1444.2,-754.06 1376.47,-814.67 1337.92,-846.6"/>
<polygon fill="#00b9f1" stroke="#00b9f1" stroke-width="2" points="1335.67,-843.92 1330.15,-852.97 1340.11,-849.34 1335.67,-843.92"/>
<text text-anchor="middle" x="1438" y="-842.4" font-family="Times,serif" font-size="32.00">hug</text>
<text text-anchor="middle" x="1438" y="-807.4" font-family="Times,serif" font-size="32.00">=d *k 2</text>
</g>
<!-- 3 -->
<g id="node10" class="node">
<title>3</title>
<ellipse fill="none" stroke="black" cx="1307.5" cy="-585" rx="27" ry="30.31"/>
<text text-anchor="middle" x="1307.5" y="-576.9" font-family="Times,serif" font-size="32.00">3</text>
</g>
<!-- d&#45;&gt;3 -->
<g id="edge25" class="edge">
<title>d&#45;&gt;3</title>
<path fill="none" stroke="#f7931d" stroke-width="2" d="M1504.6,-585C1464.85,-585 1389.52,-585 1344.68,-585"/>
<polygon fill="#f7931d" stroke="#f7931d" stroke-width="2" points="1344.52,-581.5 1334.52,-585 1344.52,-588.5 1344.52,-581.5"/>
<text text-anchor="middle" x="1438" y="-629.4" font-family="Times,serif" font-size="32.00">praise</text>
<text text-anchor="middle" x="1438" y="-594.4" font-family="Times,serif" font-size="32.00">=d *k 3</text>
</g>
<!-- 0&#45;&gt;t -->
<g id="edge2" class="edge">
<title>0&#45;&gt;t</title>
<path fill="none" stroke="#000000" d="M206.76,-784.21C175.97,-758.09 117.64,-707.32 72,-660 65.31,-653.06 58.42,-645.27 52.13,-637.87"/>
<polygon fill="#000000" stroke="#000000" points="54.69,-635.48 45.59,-630.06 49.32,-639.97 54.69,-635.48"/>
<text text-anchor="middle" x="128" y="-806.4" font-family="Times,serif" font-size="32.00">s</text>
<text text-anchor="middle" x="128" y="-771.4" font-family="Times,serif" font-size="32.00">=&gt;0 +k t</text>
</g>
<!-- v&#45;&gt;0 -->
<g id="edge3" class="edge">
<title>v&#45;&gt;0</title>
<path fill="none" stroke="#000000" d="M402.97,-539.67C390.96,-554.63 373.89,-573.97 356,-588 323.45,-613.52 299.55,-599.47 274,-632 244.65,-669.37 234.73,-724.24 231.46,-761.46"/>
<polygon fill="#000000" stroke="#000000" points="227.97,-761.22 230.7,-771.46 234.95,-761.75 227.97,-761.22"/>
<text text-anchor="middle" x="315" y="-676.4" font-family="Times,serif" font-size="32.00">will</text>
<text text-anchor="middle" x="315" y="-641.4" font-family="Times,serif" font-size="32.00">=v 0</text>
</g>
<!-- v&#45;&gt;1 -->
<g id="edge5" class="edge">
<title>v&#45;&gt;1</title>
<path fill="none" stroke="#000000" d="M393.85,-515.54C382.26,-514.96 368.45,-514.34 356,-514 325.77,-513.17 291.44,-512.95 266.26,-512.91"/>
<polygon fill="#000000" stroke="#000000" points="266.07,-509.41 256.07,-512.91 266.07,-516.41 266.07,-509.41"/>
<text text-anchor="middle" x="315" y="-558.4" font-family="Times,serif" font-size="32.00">will_1</text>
<text text-anchor="middle" x="315" y="-523.4" font-family="Times,serif" font-size="32.00">=v 1</text>
</g>
<!-- 1&#45;&gt;t -->
<g id="edge4" class="edge">
<title>1&#45;&gt;t</title>
<path fill="none" stroke="#000000" d="M203.88,-524.46C168.29,-541.36 101.6,-573.04 61.35,-592.16"/>
<polygon fill="#000000" stroke="#000000" points="59.74,-589.05 52.21,-596.5 62.74,-595.37 59.74,-589.05"/>
<text text-anchor="middle" x="128" y="-630.4" font-family="Times,serif" font-size="32.00">d</text>
<text text-anchor="middle" x="128" y="-595.4" font-family="Times,serif" font-size="32.00">=&gt;1 +k t</text>
</g>
<!-- perf&#45;&gt;0 -->
<g id="edge6" class="edge">
<title>perf&#45;&gt;0</title>
<path fill="none" stroke="#000000" d="M616.91,-644.35C559.19,-657.13 456.76,-682.59 374,-718 333.18,-735.47 289.58,-762.16 261.18,-780.75"/>
<polygon fill="#000000" stroke="#000000" points="258.93,-778.05 252.52,-786.48 262.79,-783.89 258.93,-778.05"/>
<text text-anchor="middle" x="421" y="-762.4" font-family="Times,serif" font-size="32.00">have</text>
<text text-anchor="middle" x="421" y="-727.4" font-family="Times,serif" font-size="32.00">=perf 0</text>
</g>
<!-- perf&#45;&gt;v -->
<g id="edge8" class="edge">
<title>perf&#45;&gt;v</title>
<path fill="none" stroke="#000000" d="M628.19,-613.81C619.54,-607.26 610.77,-599.5 604,-591 591.86,-575.75 601.21,-563.2 586,-551 580.99,-546.98 504.81,-532.32 458.07,-523.62"/>
<polygon fill="#000000" stroke="#000000" points="458.48,-520.13 448.01,-521.75 457.2,-527.02 458.48,-520.13"/>
<text text-anchor="middle" x="536" y="-595.4" font-family="Times,serif" font-size="32.00">have_2</text>
<text text-anchor="middle" x="536" y="-560.4" font-family="Times,serif" font-size="32.00">=perf v</text>
</g>
<!-- perf&#45;&gt;1 -->
<g id="edge7" class="edge">
<title>perf&#45;&gt;1</title>
<path fill="none" stroke="#000000" d="M614.83,-636.1C578.89,-635.79 528.52,-632.84 486,-621 477.38,-618.6 476.54,-614.67 468,-612 384.87,-585.96 346.88,-631.72 274,-584 261.5,-575.82 251.94,-562.73 244.97,-550"/>
<polygon fill="#000000" stroke="#000000" points="247.99,-548.22 240.35,-540.87 241.75,-551.38 247.99,-548.22"/>
<text text-anchor="middle" x="421" y="-656.4" font-family="Times,serif" font-size="32.00">have_1</text>
<text text-anchor="middle" x="421" y="-621.4" font-family="Times,serif" font-size="32.00">=perf 1</text>
</g>
<!-- prog&#45;&gt;0 -->
<g id="edge9" class="edge">
<title>prog&#45;&gt;0</title>
<path fill="none" stroke="#000000" d="M929.33,-530.81C916.42,-538.54 903.14,-548.62 894,-561 876.45,-584.77 895.76,-603.03 876,-625 745.43,-770.19 658.59,-745.5 468,-788 397.77,-803.66 313.16,-804.51 266.1,-803.44"/>
<polygon fill="#000000" stroke="#000000" points="266.18,-799.94 256.09,-803.17 265.99,-806.94 266.18,-799.94"/>
<text text-anchor="middle" x="536" y="-827.4" font-family="Times,serif" font-size="32.00">be</text>
<text text-anchor="middle" x="536" y="-792.4" font-family="Times,serif" font-size="32.00">=prog 0</text>
</g>
<!-- prog&#45;&gt;v -->
<g id="edge11" class="edge">
<title>prog&#45;&gt;v</title>
<path fill="none" stroke="#000000" d="M918.45,-512.47C808.51,-513.47 553.37,-515.8 458.44,-516.67"/>
<polygon fill="#000000" stroke="#000000" points="458.16,-513.17 448.2,-516.76 458.23,-520.17 458.16,-513.17"/>
<text text-anchor="middle" x="663" y="-560.4" font-family="Times,serif" font-size="32.00">be_2</text>
<text text-anchor="middle" x="663" y="-525.4" font-family="Times,serif" font-size="32.00">=prog v</text>
</g>
<!-- prog&#45;&gt;1 -->
<g id="edge10" class="edge">
<title>prog&#45;&gt;1</title>
<path fill="none" stroke="#000000" d="M919.55,-505.77C872.81,-499.7 801.46,-489.71 740,-478 670.95,-464.85 655.64,-451.57 586,-442 484.63,-428.07 458.29,-434.22 356,-432 319.56,-431.21 305.32,-413.37 274,-432 258.4,-441.28 247.98,-458.25 241.22,-474.26"/>
<polygon fill="#000000" stroke="#000000" points="237.79,-473.44 237.47,-484.03 244.32,-475.95 237.79,-473.44"/>
<text text-anchor="middle" x="536" y="-486.4" font-family="Times,serif" font-size="32.00">be_1</text>
<text text-anchor="middle" x="536" y="-451.4" font-family="Times,serif" font-size="32.00">=prog 1</text>
</g>
<!-- prog&#45;&gt;perf -->
<g id="edge12" class="edge">
<title>prog&#45;&gt;perf</title>
<path fill="none" stroke="#000000" d="M920.24,-520.48C905.96,-522.91 890.36,-525.56 876,-528 815.56,-538.25 788.51,-513.52 740,-551 724.57,-562.92 734.14,-575.75 722,-591 717.35,-596.85 711.75,-602.34 705.89,-607.33"/>
<polygon fill="#000000" stroke="#000000" points="703.42,-604.83 697.81,-613.81 707.8,-610.29 703.42,-604.83"/>
<text text-anchor="middle" x="808" y="-595.4" font-family="Times,serif" font-size="32.00">ben</text>
<text text-anchor="middle" x="808" y="-560.4" font-family="Times,serif" font-size="32.00">=prog perf</text>
</g>
<!-- 2&#45;&gt;0 -->
<g id="edge18" class="edge">
<title>2&#45;&gt;0</title>
<path fill="none" stroke="#00b9f1" stroke-width="2" d="M1292.18,-895.57C1278.12,-918.46 1254.66,-951.33 1226,-971 1128.42,-1037.97 1090.36,-1051 972,-1051 972,-1051 972,-1051 420,-1051 315.57,-1051 260.89,-910.86 240.09,-840.85"/>
<polygon fill="#00b9f1" stroke="#00b9f1" stroke-width="2" points="243.4,-839.69 237.27,-831.05 236.68,-841.63 243.4,-839.69"/>
<text text-anchor="middle" x="663" y="-1095.4" font-family="Times,serif" font-size="32.00">ε_0</text>
<text text-anchor="middle" x="663" y="-1060.4" font-family="Times,serif" font-size="32.00">=&gt;2 =d 0</text>
</g>
<!-- 2&#45;&gt;v -->
<g id="edge21" class="edge">
<title>2&#45;&gt;v</title>
<path fill="none" stroke="#00b9f1" stroke-width="2" d="M1280.72,-875.62C1214.78,-888.9 1035.22,-918.23 894,-878 688.8,-819.54 635.35,-777.38 486,-625 480.07,-618.95 457.75,-580.44 441.13,-551.11"/>
<polygon fill="#00b9f1" stroke="#00b9f1" stroke-width="2" points="444.15,-549.33 436.18,-542.35 438.05,-552.78 444.15,-549.33"/>
<text text-anchor="middle" x="808" y="-916.4" font-family="Times,serif" font-size="32.00">ε_2</text>
<text text-anchor="middle" x="808" y="-881.4" font-family="Times,serif" font-size="32.00">=&gt;2 =d v</text>
</g>
<!-- 2&#45;&gt;1 -->
<g id="edge20" class="edge">
<title>2&#45;&gt;1</title>
<path fill="none" stroke="#00b9f1" stroke-width="2" d="M1282.88,-882.53C1267.19,-890.28 1245.89,-899.73 1226,-905 958.67,-975.87 865.82,-1012.09 604,-923 437.82,-866.45 364.6,-856.35 274,-706 245.53,-658.75 235.46,-594.87 231.91,-553.79"/>
<polygon fill="#00b9f1" stroke="#00b9f1" stroke-width="2" points="235.39,-553.31 231.13,-543.61 228.41,-553.85 235.39,-553.31"/>
<text text-anchor="middle" x="663" y="-1001.4" font-family="Times,serif" font-size="32.00">ε_1</text>
<text text-anchor="middle" x="663" y="-966.4" font-family="Times,serif" font-size="32.00">=&gt;2 =d 1</text>
</g>
<!-- 2&#45;&gt;perf -->
<g id="edge23" class="edge">
<title>2&#45;&gt;perf</title>
<path fill="none" stroke="#00b9f1" stroke-width="2" d="M1280.82,-864.91C1198.72,-848 936.5,-789.09 740,-690 726.41,-683.15 712.62,-673.97 700.58,-665.08"/>
<polygon fill="#00b9f1" stroke="#00b9f1" stroke-width="2" points="702.63,-662.24 692.55,-659 698.41,-667.83 702.63,-662.24"/>
<text text-anchor="middle" x="971" y="-848.4" font-family="Times,serif" font-size="32.00">n</text>
<text text-anchor="middle" x="971" y="-813.4" font-family="Times,serif" font-size="32.00">=&gt;2 =d perf</text>
</g>
<!-- 2&#45;&gt;prog -->
<g id="edge22" class="edge">
<title>2&#45;&gt;prog</title>
<path fill="none" stroke="#00b9f1" stroke-width="2" d="M1299.96,-840.67C1284.31,-771.48 1244.57,-602.45 1226,-584 1173.69,-532.01 1136.9,-560.31 1066,-540 1053.6,-536.45 1040.31,-532.55 1027.74,-528.81"/>
<polygon fill="#00b9f1" stroke="#00b9f1" stroke-width="2" points="1028.42,-525.37 1017.84,-525.87 1026.43,-532.08 1028.42,-525.37"/>
<text text-anchor="middle" x="1146" y="-628.4" font-family="Times,serif" font-size="32.00">ing</text>
<text text-anchor="middle" x="1146" y="-593.4" font-family="Times,serif" font-size="32.00">=&gt;2 =d prog</text>
</g>
<!-- 3&#45;&gt;0 -->
<g id="edge24" class="edge">
<title>3&#45;&gt;0</title>
<path fill="none" stroke="#f7931d" stroke-width="2" d="M1304.1,-615.32C1298.73,-660.42 1281.42,-743.92 1226,-782 1210.79,-792.45 912.32,-786.81 894,-789 762.95,-804.69 732.87,-824.46 604,-853 596,-854.77 594.15,-856.11 586,-857 541.82,-861.85 530.24,-861.24 486,-857 390.47,-847.85 367,-839.7 274,-816 270.99,-815.23 267.88,-814.38 264.78,-813.48"/>
<polygon fill="#f7931d" stroke="#f7931d" stroke-width="2" points="265.57,-810.06 254.98,-810.51 263.54,-816.76 265.57,-810.06"/>
<text text-anchor="middle" x="663" y="-897.4" font-family="Times,serif" font-size="32.00">ε_3</text>
<text text-anchor="middle" x="663" y="-862.4" font-family="Times,serif" font-size="32.00">=&gt;3 =d 0</text>
</g>
<!-- 3&#45;&gt;v -->
<g id="edge27" class="edge">
<title>3&#45;&gt;v</title>
<path fill="none" stroke="#f7931d" stroke-width="2" d="M1281.16,-576.89C1268.03,-571.37 1252.92,-562.73 1244,-550 1215.57,-509.43 1263.71,-472.13 1226,-440 1143.8,-369.95 847.22,-426.04 740,-439 635.12,-451.67 514.93,-487.05 456.93,-505.49"/>
<polygon fill="#f7931d" stroke="#f7931d" stroke-width="2" points="455.62,-502.23 447.17,-508.62 457.76,-508.9 455.62,-502.23"/>
<text text-anchor="middle" x="808" y="-483.4" font-family="Times,serif" font-size="32.00">ε_5</text>
<text text-anchor="middle" x="808" y="-448.4" font-family="Times,serif" font-size="32.00">=&gt;3 =d v</text>
</g>
<!-- 3&#45;&gt;1 -->
<g id="edge26" class="edge">
<title>3&#45;&gt;1</title>
<path fill="none" stroke="#f7931d" stroke-width="2" d="M1281.27,-577.16C1268,-571.7 1252.73,-563.01 1244,-550 1225.55,-522.48 1250.05,-424.79 1226,-402 1175.76,-354.39 659.17,-326.21 604,-368 580.45,-385.84 607.52,-411.75 586,-432 550.9,-465.04 420.98,-467.2 374,-478 336.77,-486.56 294.28,-496.97 265.16,-504.2"/>
<polygon fill="#f7931d" stroke="#f7931d" stroke-width="2" points="264.31,-500.8 255.45,-506.61 266,-507.6 264.31,-500.8"/>
<text text-anchor="middle" x="663" y="-412.4" font-family="Times,serif" font-size="32.00">ε_4</text>
<text text-anchor="middle" x="663" y="-377.4" font-family="Times,serif" font-size="32.00">=&gt;3 =d 1</text>
</g>
<!-- 3&#45;&gt;perf -->
<g id="edge29" class="edge">
<title>3&#45;&gt;perf</title>
<path fill="none" stroke="#f7931d" stroke-width="2" d="M1281.45,-576.7C1265.72,-571.93 1244.91,-566.43 1226,-564 1155.47,-554.95 1136.88,-558.27 1066,-564 988.8,-570.24 958.43,-549.02 894,-592 881.38,-600.42 889.01,-613.19 876,-621 828.81,-649.33 764.61,-649.39 719.26,-644.51"/>
<polygon fill="#f7931d" stroke="#f7931d" stroke-width="2" points="719.65,-641.03 709.31,-643.33 718.82,-647.98 719.65,-641.03"/>
<text text-anchor="middle" x="971" y="-636.4" font-family="Times,serif" font-size="32.00">n_1</text>
<text text-anchor="middle" x="971" y="-601.4" font-family="Times,serif" font-size="32.00">=&gt;3 =d perf</text>
</g>
<!-- 3&#45;&gt;prog -->
<g id="edge28" class="edge">
<title>3&#45;&gt;prog</title>
<path fill="none" stroke="#f7931d" stroke-width="2" d="M1282.41,-573.54C1269.17,-566.05 1253.54,-555.05 1244,-541 1224.74,-512.64 1252.92,-487.22 1226,-466 1165.33,-418.17 1071.18,-455.62 1016.16,-485.19"/>
<polygon fill="#f7931d" stroke="#f7931d" stroke-width="2" points="1014.42,-482.15 1007.35,-490.03 1017.79,-488.28 1014.42,-482.15"/>
<text text-anchor="middle" x="1146" y="-510.4" font-family="Times,serif" font-size="32.00">ing_1</text>
<text text-anchor="middle" x="1146" y="-475.4" font-family="Times,serif" font-size="32.00">=&gt;3 =d prog</text>
</g>
</g>
</svg>
