<?xml version="1.0" encoding="UTF-8" standalone="no"?>
<!DOCTYPE svg PUBLIC "-//W3C//DTD SVG 1.1//EN"
 "http://www.w3.org/Graphics/SVG/1.1/DTD/svg11.dtd">
<!-- Generated by graphviz version 2.47.1 (20210417.1919)
 -->
<!-- Title: G Pages: 1 -->
<svg width="1608pt" height="1512pt"
 viewBox="0.00 0.00 1608.00 1512.00" xmlns="http://www.w3.org/2000/svg" xmlns:xlink="http://www.w3.org/1999/xlink">
<g id="graph0" class="graph" transform="scale(1 1) rotate(0) translate(4 1508)">
<title>G</title>
<polygon fill="white" stroke="transparent" points="-4,4 -4,-1508 1604,-1508 1604,4 -4,4"/>
<text text-anchor="middle" x="800" y="-13.4" font-family="Times,serif" font-size="32.00">decomposition: &#160;=&gt;4 =d v, &#160;=&gt;5 =d v, &#160;=&gt;6 =d v, &#160;=&gt;7 =d v</text>
<!-- t -->
<g id="node1" class="node">
<title>t</title>
<ellipse fill="lightgray" stroke="black" cx="27" cy="-687" rx="27" ry="30.31"/>
<text text-anchor="middle" x="27" y="-678.9" font-family="Times,serif" font-size="32.00">t</text>
</g>
<!-- z0 -->
<g id="node2" class="node">
<title>z0</title>
<ellipse fill="none" stroke="black" stroke-dasharray="5,2" cx="1573" cy="-421" rx="27" ry="18"/>
</g>
<!-- d -->
<g id="node3" class="node">
<title>d</title>
<ellipse fill="none" stroke="black" cx="1413" cy="-421" rx="27" ry="30.31"/>
<text text-anchor="middle" x="1413" y="-412.9" font-family="Times,serif" font-size="32.00">d</text>
</g>
<!-- z0&#45;&gt;d -->
<g id="edge1" class="edge">
<title>z0&#45;&gt;d</title>
<path fill="none" stroke="#000000" d="M1545.91,-421C1519.84,-421 1479.53,-421 1450.34,-421"/>
<polygon fill="#000000" stroke="#000000" points="1450.13,-417.5 1440.13,-421 1450.13,-424.5 1450.13,-417.5"/>
<text text-anchor="middle" x="1493" y="-465.4" font-family="Times,serif" font-size="32.00">Mary</text>
<text text-anchor="middle" x="1493" y="-430.4" font-family="Times,serif" font-size="32.00">d &#45;k</text>
</g>
<!-- 7 -->
<g id="node16" class="node">
<title>7</title>
<ellipse fill="none" stroke="black" cx="1225" cy="-534" rx="27" ry="30.31"/>
<text text-anchor="middle" x="1225" y="-525.9" font-family="Times,serif" font-size="32.00">7</text>
</g>
<!-- d&#45;&gt;7 -->
<g id="edge29" class="edge">
<title>d&#45;&gt;7</title>
<path fill="none" stroke="#000000" d="M1397.42,-446.15C1389.84,-457.44 1379.71,-470.18 1368,-479 1335.94,-503.15 1291.96,-518 1261.47,-526.09"/>
<polygon fill="#000000" stroke="#000000" points="1260.52,-522.72 1251.69,-528.58 1262.24,-529.51 1260.52,-522.72"/>
<text text-anchor="middle" x="1319" y="-567.4" font-family="Times,serif" font-size="32.00">hug</text>
<text text-anchor="middle" x="1319" y="-532.4" font-family="Times,serif" font-size="32.00">=d *k 7</text>
</g>
<!-- 8 -->
<g id="node17" class="node">
<title>8</title>
<ellipse fill="none" stroke="black" cx="1225" cy="-353" rx="27" ry="30.31"/>
<text text-anchor="middle" x="1225" y="-344.9" font-family="Times,serif" font-size="32.00">8</text>
</g>
<!-- d&#45;&gt;8 -->
<g id="edge35" class="edge">
<title>d&#45;&gt;8</title>
<path fill="none" stroke="#000000" d="M1386.92,-411.83C1354.38,-399.93 1297.45,-379.12 1260.76,-365.71"/>
<polygon fill="#000000" stroke="#000000" points="1261.58,-362.28 1250.98,-362.13 1259.17,-368.85 1261.58,-362.28"/>
<text text-anchor="middle" x="1319" y="-449.4" font-family="Times,serif" font-size="32.00">praise</text>
<text text-anchor="middle" x="1319" y="-414.4" font-family="Times,serif" font-size="32.00">=d *k 8</text>
</g>
<!-- 0 -->
<g id="node4" class="node">
<title>0</title>
<ellipse fill="none" stroke="black" cx="229" cy="-595" rx="27" ry="30.31"/>
<text text-anchor="middle" x="229" y="-586.9" font-family="Times,serif" font-size="32.00">0</text>
</g>
<!-- 0&#45;&gt;t -->
<g id="edge2" class="edge">
<title>0&#45;&gt;t</title>
<path fill="none" stroke="#000000" d="M203.54,-605.6C172.7,-619.05 118.14,-643.13 72,-665 68.45,-666.68 64.77,-668.47 61.1,-670.27"/>
<polygon fill="#000000" stroke="#000000" points="59.53,-667.14 52.12,-674.71 62.63,-673.41 59.53,-667.14"/>
<text text-anchor="middle" x="128" y="-709.4" font-family="Times,serif" font-size="32.00">s</text>
<text text-anchor="middle" x="128" y="-674.4" font-family="Times,serif" font-size="32.00">=&gt;0 +k t</text>
</g>
<!-- v -->
<g id="node5" class="node">
<title>v</title>
<ellipse fill="none" stroke="black" cx="401" cy="-631" rx="27" ry="30.31"/>
<text text-anchor="middle" x="401" y="-622.9" font-family="Times,serif" font-size="32.00">v</text>
</g>
<!-- v&#45;&gt;0 -->
<g id="edge3" class="edge">
<title>v&#45;&gt;0</title>
<path fill="none" stroke="#000000" d="M380.27,-610.74C373.23,-604.83 364.83,-599.12 356,-596 327,-585.74 291.84,-586.45 266.04,-589.18"/>
<polygon fill="#000000" stroke="#000000" points="265.46,-585.72 255.95,-590.39 266.29,-592.67 265.46,-585.72"/>
<text text-anchor="middle" x="315" y="-640.4" font-family="Times,serif" font-size="32.00">will</text>
<text text-anchor="middle" x="315" y="-605.4" font-family="Times,serif" font-size="32.00">=v 0</text>
</g>
<!-- 1 -->
<g id="node6" class="node">
<title>1</title>
<ellipse fill="none" stroke="black" cx="229" cy="-781" rx="27" ry="30.31"/>
<text text-anchor="middle" x="229" y="-772.9" font-family="Times,serif" font-size="32.00">1</text>
</g>
<!-- v&#45;&gt;1 -->
<g id="edge5" class="edge">
<title>v&#45;&gt;1</title>
<path fill="none" stroke="#000000" d="M379.18,-649.02C372.06,-654.78 363.9,-660.96 356,-666 321.65,-687.91 303.84,-679.26 274,-707 262.73,-717.48 253.4,-731.51 246.28,-744.53"/>
<polygon fill="#000000" stroke="#000000" points="242.99,-743.28 241.49,-753.77 249.2,-746.5 242.99,-743.28"/>
<text text-anchor="middle" x="315" y="-751.4" font-family="Times,serif" font-size="32.00">will_1</text>
<text text-anchor="middle" x="315" y="-716.4" font-family="Times,serif" font-size="32.00">=v 1</text>
</g>
<!-- 1&#45;&gt;t -->
<g id="edge4" class="edge">
<title>1&#45;&gt;t</title>
<path fill="none" stroke="#000000" d="M201.94,-777.7C169.46,-772.64 113.2,-760.71 72,-735 64.55,-730.36 57.58,-724.11 51.47,-717.67"/>
<polygon fill="#000000" stroke="#000000" points="53.99,-715.24 44.73,-710.1 48.77,-719.89 53.99,-715.24"/>
<text text-anchor="middle" x="128" y="-819.4" font-family="Times,serif" font-size="32.00">d</text>
<text text-anchor="middle" x="128" y="-784.4" font-family="Times,serif" font-size="32.00">=&gt;1 +k t</text>
</g>
<!-- 2 -->
<g id="node7" class="node">
<title>2</title>
<ellipse fill="none" stroke="black" cx="401" cy="-399" rx="27" ry="30.31"/>
<text text-anchor="middle" x="401" y="-390.9" font-family="Times,serif" font-size="32.00">2</text>
</g>
<!-- 2&#45;&gt;0 -->
<g id="edge6" class="edge">
<title>2&#45;&gt;0</title>
<path fill="none" stroke="#000000" d="M377.88,-415.43C350.95,-436.21 305.22,-474.13 274,-514 263.32,-527.64 253.8,-544.24 246.37,-558.84"/>
<polygon fill="#000000" stroke="#000000" points="243.09,-557.59 241.8,-568.1 249.37,-560.69 243.09,-557.59"/>
<text text-anchor="middle" x="315" y="-558.4" font-family="Times,serif" font-size="32.00">e</text>
<text text-anchor="middle" x="315" y="-523.4" font-family="Times,serif" font-size="32.00">=&gt;2 0</text>
</g>
<!-- perf -->
<g id="node8" class="node">
<title>perf</title>
<ellipse fill="none" stroke="black" cx="617" cy="-627" rx="48.17" ry="30.31"/>
<text text-anchor="middle" x="617" y="-618.9" font-family="Times,serif" font-size="32.00">perf</text>
</g>
<!-- perf&#45;&gt;v -->
<g id="edge10" class="edge">
<title>perf&#45;&gt;v</title>
<path fill="none" stroke="#000000" d="M568.77,-627.88C529.45,-628.62 474.27,-629.65 438.33,-630.32"/>
<polygon fill="#000000" stroke="#000000" points="438.22,-626.82 428.28,-630.51 438.35,-633.82 438.22,-626.82"/>
<text text-anchor="middle" x="493" y="-675.4" font-family="Times,serif" font-size="32.00">have</text>
<text text-anchor="middle" x="493" y="-640.4" font-family="Times,serif" font-size="32.00">=perf v</text>
</g>
<!-- perf&#45;&gt;2 -->
<g id="edge7" class="edge">
<title>perf&#45;&gt;2</title>
<path fill="none" stroke="#000000" d="M585.3,-603.86C576.12,-596.35 566.3,-587.7 558,-579 548.8,-569.35 548.42,-565.34 540,-555 502.51,-509.01 456.38,-457.88 428.09,-427.1"/>
<polygon fill="#000000" stroke="#000000" points="430.65,-424.71 421.3,-419.73 425.5,-429.45 430.65,-424.71"/>
<text text-anchor="middle" x="493" y="-599.4" font-family="Times,serif" font-size="32.00">hav</text>
<text text-anchor="middle" x="493" y="-564.4" font-family="Times,serif" font-size="32.00">=perf 2</text>
</g>
<!-- 3 -->
<g id="node9" class="node">
<title>3</title>
<ellipse fill="none" stroke="black" cx="401" cy="-781" rx="27" ry="30.31"/>
<text text-anchor="middle" x="401" y="-772.9" font-family="Times,serif" font-size="32.00">3</text>
</g>
<!-- perf&#45;&gt;3 -->
<g id="edge9" class="edge">
<title>perf&#45;&gt;3</title>
<path fill="none" stroke="#000000" d="M592.76,-653.72C578.53,-669.06 559.39,-688 540,-702 501.97,-729.46 486.16,-725.76 446,-750 441.51,-752.71 436.88,-755.71 432.39,-758.76"/>
<polygon fill="#000000" stroke="#000000" points="430.19,-756.02 423.97,-764.6 434.18,-761.77 430.19,-756.02"/>
<text text-anchor="middle" x="493" y="-794.4" font-family="Times,serif" font-size="32.00">hav_1</text>
<text text-anchor="middle" x="493" y="-759.4" font-family="Times,serif" font-size="32.00">=perf 3</text>
</g>
<!-- 3&#45;&gt;1 -->
<g id="edge8" class="edge">
<title>3&#45;&gt;1</title>
<path fill="none" stroke="#000000" d="M373.81,-781C345.11,-781 298.86,-781 266.58,-781"/>
<polygon fill="#000000" stroke="#000000" points="266.22,-777.5 256.22,-781 266.22,-784.5 266.22,-777.5"/>
<text text-anchor="middle" x="315" y="-825.4" font-family="Times,serif" font-size="32.00">e_1</text>
<text text-anchor="middle" x="315" y="-790.4" font-family="Times,serif" font-size="32.00">=&gt;3 1</text>
</g>
<!-- prog -->
<g id="node10" class="node">
<title>prog</title>
<ellipse fill="none" stroke="black" cx="925" cy="-594" rx="52.15" ry="30.31"/>
<text text-anchor="middle" x="925" y="-585.9" font-family="Times,serif" font-size="32.00">prog</text>
</g>
<!-- prog&#45;&gt;v -->
<g id="edge13" class="edge">
<title>prog&#45;&gt;v</title>
<path fill="none" stroke="#000000" d="M887.83,-572.56C802.58,-525.12 585.79,-422.81 446,-519 422.63,-535.08 411.67,-565.61 406.54,-590.74"/>
<polygon fill="#000000" stroke="#000000" points="403.06,-590.31 404.73,-600.77 409.95,-591.55 403.06,-590.31"/>
<text text-anchor="middle" x="617" y="-533.4" font-family="Times,serif" font-size="32.00">be</text>
<text text-anchor="middle" x="617" y="-498.4" font-family="Times,serif" font-size="32.00">=prog v</text>
</g>
<!-- prog&#45;&gt;2 -->
<g id="edge11" class="edge">
<title>prog&#45;&gt;2</title>
<path fill="none" stroke="#000000" d="M877.81,-580.48C866.73,-575.32 855.85,-568.34 848,-559 827.88,-535.07 849.23,-515.65 830,-491 781.91,-429.37 751.45,-426.47 676,-406 593.29,-383.56 491.35,-389.23 438.17,-394.56"/>
<polygon fill="#000000" stroke="#000000" points="437.47,-391.12 427.89,-395.65 438.21,-398.08 437.47,-391.12"/>
<text text-anchor="middle" x="617" y="-450.4" font-family="Times,serif" font-size="32.00">b</text>
<text text-anchor="middle" x="617" y="-415.4" font-family="Times,serif" font-size="32.00">=prog 2</text>
</g>
<!-- prog&#45;&gt;perf -->
<g id="edge14" class="edge">
<title>prog&#45;&gt;perf</title>
<path fill="none" stroke="#000000" d="M873.47,-599.45C818.82,-605.34 731.88,-614.72 674.87,-620.87"/>
<polygon fill="#000000" stroke="#000000" points="674.16,-617.42 664.59,-621.98 674.91,-624.38 674.16,-617.42"/>
<text text-anchor="middle" x="762" y="-663.4" font-family="Times,serif" font-size="32.00">ben</text>
<text text-anchor="middle" x="762" y="-628.4" font-family="Times,serif" font-size="32.00">=prog perf</text>
</g>
<!-- prog&#45;&gt;3 -->
<g id="edge12" class="edge">
<title>prog&#45;&gt;3</title>
<path fill="none" stroke="#000000" d="M903.89,-622.2C886.64,-644.43 859.9,-674.65 830,-693 722.49,-758.97 650.84,-688.61 558,-774 541.84,-788.86 558.13,-807.62 540,-820 505.49,-843.55 485.06,-834.82 446,-820 439.59,-817.57 433.51,-813.73 428.03,-809.38"/>
<polygon fill="#000000" stroke="#000000" points="430.3,-806.71 420.47,-802.76 425.69,-811.98 430.3,-806.71"/>
<text text-anchor="middle" x="617" y="-818.4" font-family="Times,serif" font-size="32.00">b_1</text>
<text text-anchor="middle" x="617" y="-783.4" font-family="Times,serif" font-size="32.00">=prog 3</text>
</g>
<!-- 4 -->
<g id="node11" class="node">
<title>4</title>
<ellipse fill="none" stroke="black" cx="1225" cy="-1062" rx="27" ry="30.31"/>
<text text-anchor="middle" x="1225" y="-1053.9" font-family="Times,serif" font-size="32.00">4</text>
</g>
<!-- 4&#45;&gt;0 -->
<g id="edge15" class="edge">
<title>4&#45;&gt;0</title>
<path fill="none" stroke="#000000" d="M1220.22,-1092.37C1215.41,-1116.84 1204.51,-1149.75 1180,-1166 1120.72,-1205.28 1090.69,-1173.72 1020,-1166 967.44,-1160.26 606.03,-1074.11 558,-1052 418.46,-987.77 355.75,-985.06 274,-855 246.94,-811.94 264.43,-792.15 256,-742 249.89,-705.65 242.54,-664.31 237.22,-634.75"/>
<polygon fill="#000000" stroke="#000000" points="240.65,-634.04 235.43,-624.82 233.76,-635.28 240.65,-634.04"/>
<text text-anchor="middle" x="617" y="-1131.4" font-family="Times,serif" font-size="32.00">ε_0</text>
<text text-anchor="middle" x="617" y="-1096.4" font-family="Times,serif" font-size="32.00">=&gt;4 =d 0</text>
</g>
<!-- 4&#45;&gt;1 -->
<g id="edge17" class="edge">
<title>4&#45;&gt;1</title>
<path fill="none" stroke="#000000" d="M1223.17,-1092.38C1220.51,-1122.96 1211.18,-1168.69 1180,-1191 1122.17,-1232.38 1091.1,-1191.97 1020,-1191 905.75,-1189.44 877.26,-1184 763,-1184 763,-1184 763,-1184 400,-1184 330.66,-1184 309.67,-1151.46 274,-1092 247.13,-1047.21 235.83,-895.29 231.85,-821.66"/>
<polygon fill="#000000" stroke="#000000" points="235.33,-821.19 231.32,-811.39 228.34,-821.56 235.33,-821.19"/>
<text text-anchor="middle" x="617" y="-1228.4" font-family="Times,serif" font-size="32.00">ε_1</text>
<text text-anchor="middle" x="617" y="-1193.4" font-family="Times,serif" font-size="32.00">=&gt;4 =d 1</text>
</g>
<!-- 4&#45;&gt;perf -->
<g id="edge21" class="edge">
<title>4&#45;&gt;perf</title>
<path fill="none" stroke="#000000" d="M1197.82,-1062.35C1120.84,-1062.79 897.51,-1059.78 848,-1011 822.66,-986.03 844.39,-965.54 830,-933 782.27,-825.05 694.75,-715.39 648.5,-661.4"/>
<polygon fill="#000000" stroke="#000000" points="650.9,-658.82 641.72,-653.53 645.6,-663.39 650.9,-658.82"/>
<text text-anchor="middle" x="925" y="-1098.4" font-family="Times,serif" font-size="32.00">n</text>
<text text-anchor="middle" x="925" y="-1063.4" font-family="Times,serif" font-size="32.00">=&gt;4 =d perf</text>
</g>
<!-- 4&#45;&gt;prog -->
<g id="edge20" class="edge">
<title>4&#45;&gt;prog</title>
<path fill="none" stroke="#000000" d="M1224.51,-1031.53C1225.17,-953.39 1222.7,-748.52 1180,-699 1131.84,-643.14 1087.28,-685.21 1020,-655 1001.43,-646.66 982.34,-634.95 966.25,-624.02"/>
<polygon fill="#000000" stroke="#000000" points="967.86,-620.87 957.65,-618.05 963.87,-626.62 967.86,-620.87"/>
<text text-anchor="middle" x="1100" y="-743.4" font-family="Times,serif" font-size="32.00">ing</text>
<text text-anchor="middle" x="1100" y="-708.4" font-family="Times,serif" font-size="32.00">=&gt;4 =d prog</text>
</g>
<!-- 5 -->
<g id="node13" class="node">
<title>5</title>
<ellipse fill="none" stroke="black" cx="925" cy="-972" rx="27" ry="30.31"/>
<text text-anchor="middle" x="925" y="-963.9" font-family="Times,serif" font-size="32.00">5</text>
</g>
<!-- 4&#45;&gt;5 -->
<g id="edge19" class="edge">
<title>4&#45;&gt;5</title>
<path fill="none" stroke="#f7931d" stroke-width="2" d="M1216.87,-1032.55C1210.58,-1013.46 1199.3,-989.99 1180,-978 1144.67,-956.05 1023.55,-963.18 962.21,-968.46"/>
<polygon fill="#f7931d" stroke="#f7931d" stroke-width="2" points="961.84,-964.98 952.19,-969.35 962.47,-971.95 961.84,-964.98"/>
<text text-anchor="middle" x="1100" y="-1022.4" font-family="Times,serif" font-size="32.00">ε_3</text>
<text text-anchor="middle" x="1100" y="-987.4" font-family="Times,serif" font-size="32.00">=&gt;4 5</text>
</g>
<!-- z1 -->
<g id="node12" class="node">
<title>z1</title>
<ellipse fill="none" stroke="black" stroke-dasharray="5,2" cx="1413" cy="-1062" rx="27" ry="18"/>
</g>
<!-- z1&#45;&gt;4 -->
<g id="edge16" class="edge">
<title>z1&#45;&gt;4</title>
<path fill="none" stroke="#000000" d="M1385.75,-1062C1353.48,-1062 1298.56,-1062 1262.28,-1062"/>
<polygon fill="#000000" stroke="#000000" points="1262.12,-1058.5 1252.12,-1062 1262.12,-1065.5 1262.12,-1058.5"/>
<text text-anchor="middle" x="1319" y="-1106.4" font-family="Times,serif" font-size="32.00">laugh</text>
<text text-anchor="middle" x="1319" y="-1071.4" font-family="Times,serif" font-size="32.00">4</text>
</g>
<!-- 5&#45;&gt;v -->
<g id="edge18" class="edge">
<title>5&#45;&gt;v</title>
<path fill="none" stroke="#f7931d" stroke-width="2" d="M898.04,-976.44C835.19,-985.83 671.62,-1002.09 558,-940 486.54,-900.95 482.14,-867.97 446,-795 435.23,-773.27 420.13,-711.71 410.71,-670.51"/>
<polygon fill="#f7931d" stroke="#f7931d" stroke-width="2" points="414.07,-669.49 408.45,-660.51 407.24,-671.03 414.07,-669.49"/>
<text text-anchor="middle" x="617" y="-1022.4" font-family="Times,serif" font-size="32.00">ε_2</text>
<text text-anchor="middle" x="617" y="-987.4" font-family="Times,serif" font-size="32.00">=&gt;5 =d v</text>
</g>
<!-- 6 -->
<g id="node14" class="node">
<title>6</title>
<ellipse fill="none" stroke="black" cx="1225" cy="-1230" rx="27" ry="30.31"/>
<text text-anchor="middle" x="1225" y="-1221.9" font-family="Times,serif" font-size="32.00">6</text>
</g>
<!-- 6&#45;&gt;0 -->
<g id="edge22" class="edge">
<title>6&#45;&gt;0</title>
<path fill="none" stroke="#000000" d="M1200.53,-1243.42C1151.32,-1270.26 1033.02,-1328 926,-1328 926,-1328 926,-1328 400,-1328 265.9,-1328 274.51,-874.81 256,-742 250.9,-705.38 243.4,-663.91 237.77,-634.38"/>
<polygon fill="#000000" stroke="#000000" points="241.19,-633.62 235.87,-624.46 234.32,-634.94 241.19,-633.62"/>
<text text-anchor="middle" x="617" y="-1372.4" font-family="Times,serif" font-size="32.00">ε_4</text>
<text text-anchor="middle" x="617" y="-1337.4" font-family="Times,serif" font-size="32.00">=&gt;6 =d 0</text>
</g>
<!-- 6&#45;&gt;1 -->
<g id="edge24" class="edge">
<title>6&#45;&gt;1</title>
<path fill="none" stroke="#000000" d="M1219.27,-1259.96C1213.85,-1284.98 1202.6,-1320 1180,-1342 1093.97,-1425.75 1046.07,-1434 926,-1434 926,-1434 926,-1434 400,-1434 330.66,-1434 307.8,-1402.54 274,-1342 248.81,-1296.87 235.2,-943.02 231.24,-821.68"/>
<polygon fill="#000000" stroke="#000000" points="234.72,-821.22 230.9,-811.34 227.73,-821.45 234.72,-821.22"/>
<text text-anchor="middle" x="617" y="-1478.4" font-family="Times,serif" font-size="32.00">ε_5</text>
<text text-anchor="middle" x="617" y="-1443.4" font-family="Times,serif" font-size="32.00">=&gt;6 =d 1</text>
</g>
<!-- 6&#45;&gt;perf -->
<g id="edge27" class="edge">
<title>6&#45;&gt;perf</title>
<path fill="none" stroke="#000000" d="M1198,-1231.51C1158.68,-1233.07 1082.09,-1233.23 1020,-1216 937.26,-1193.04 909.31,-1188.12 848,-1128 744.64,-1026.65 739.8,-978.32 694,-841 677.21,-790.67 694.06,-772.88 676,-723 668.38,-701.95 655.91,-680.45 644.48,-663.14"/>
<polygon fill="#000000" stroke="#000000" points="647.13,-660.82 638.62,-654.5 641.33,-664.74 647.13,-660.82"/>
<text text-anchor="middle" x="925" y="-1254.4" font-family="Times,serif" font-size="32.00">n_1</text>
<text text-anchor="middle" x="925" y="-1219.4" font-family="Times,serif" font-size="32.00">=&gt;6 =d perf</text>
</g>
<!-- 6&#45;&gt;prog -->
<g id="edge26" class="edge">
<title>6&#45;&gt;prog</title>
<path fill="none" stroke="#000000" d="M1216.87,-1200.74C1210.83,-1174.72 1202.45,-1135.55 1198,-1101 1193.55,-1066.45 1203.87,-813.37 1180,-788 1155.46,-761.92 1049.59,-789.16 1020,-769 973.53,-737.34 948.12,-675.01 935.8,-633.93"/>
<polygon fill="#000000" stroke="#000000" points="939.14,-632.88 933.01,-624.23 932.41,-634.81 939.14,-632.88"/>
<text text-anchor="middle" x="1100" y="-832.4" font-family="Times,serif" font-size="32.00">ing_1</text>
<text text-anchor="middle" x="1100" y="-797.4" font-family="Times,serif" font-size="32.00">=&gt;6 =d prog</text>
</g>
<!-- 6&#45;&gt;5 -->
<g id="edge25" class="edge">
<title>6&#45;&gt;5</title>
<path fill="none" stroke="#f7931d" stroke-width="2" d="M1213.91,-1201.83C1206.56,-1184.24 1195.21,-1161.97 1180,-1146 1123.12,-1086.28 1077.38,-1111.24 1020,-1052 1008.38,-1040 1013.49,-1031.13 1002,-1019 990.01,-1006.34 973.9,-995.74 959.6,-987.83"/>
<polygon fill="#f7931d" stroke="#f7931d" stroke-width="2" points="961,-984.61 950.53,-983.02 957.73,-990.79 961,-984.61"/>
<text text-anchor="middle" x="1100" y="-1190.4" font-family="Times,serif" font-size="32.00">ε_6</text>
<text text-anchor="middle" x="1100" y="-1155.4" font-family="Times,serif" font-size="32.00">=&gt;6 5</text>
</g>
<!-- z2 -->
<g id="node15" class="node">
<title>z2</title>
<ellipse fill="none" stroke="black" stroke-dasharray="5,2" cx="1413" cy="-1230" rx="27" ry="18"/>
</g>
<!-- z2&#45;&gt;6 -->
<g id="edge23" class="edge">
<title>z2&#45;&gt;6</title>
<path fill="none" stroke="#000000" d="M1385.75,-1230C1353.48,-1230 1298.56,-1230 1262.28,-1230"/>
<polygon fill="#000000" stroke="#000000" points="1262.12,-1226.5 1252.12,-1230 1262.12,-1233.5 1262.12,-1226.5"/>
<text text-anchor="middle" x="1319" y="-1274.4" font-family="Times,serif" font-size="32.00">dance</text>
<text text-anchor="middle" x="1319" y="-1239.4" font-family="Times,serif" font-size="32.00">6</text>
</g>
<!-- 7&#45;&gt;0 -->
<g id="edge28" class="edge">
<title>7&#45;&gt;0</title>
<path fill="none" stroke="#000000" d="M1220.19,-504C1213.9,-459.03 1200.01,-377.16 1180,-356 984.27,-148.98 836.39,-140.46 558,-201 399.29,-235.51 341.91,-283.45 274,-431 255.4,-471.41 243.44,-521.16 236.76,-555.2"/>
<polygon fill="#000000" stroke="#000000" points="233.28,-554.75 234.85,-565.23 240.16,-556.06 233.28,-554.75"/>
<text text-anchor="middle" x="617" y="-245.4" font-family="Times,serif" font-size="32.00">ε_7</text>
<text text-anchor="middle" x="617" y="-210.4" font-family="Times,serif" font-size="32.00">=&gt;7 =d 0</text>
</g>
<!-- 7&#45;&gt;1 -->
<g id="edge30" class="edge">
<title>7&#45;&gt;1</title>
<path fill="none" stroke="#000000" d="M1220.95,-564.24C1216.56,-591.17 1205.9,-629.53 1180,-651 1124.42,-697.07 1088.75,-656.96 1020,-679 858.53,-730.77 840.86,-804.33 676,-844 589.13,-864.9 352.07,-895.46 274,-852 260.85,-844.68 251.13,-831.62 244.22,-818.68"/>
<polygon fill="#000000" stroke="#000000" points="247.2,-816.82 239.67,-809.37 240.91,-819.89 247.2,-816.82"/>
<text text-anchor="middle" x="617" y="-908.4" font-family="Times,serif" font-size="32.00">ε_8</text>
<text text-anchor="middle" x="617" y="-873.4" font-family="Times,serif" font-size="32.00">=&gt;7 =d 1</text>
</g>
<!-- 7&#45;&gt;perf -->
<g id="edge33" class="edge">
<title>7&#45;&gt;perf</title>
<path fill="none" stroke="#000000" d="M1220.04,-504.06C1213.86,-462.47 1200.46,-390.57 1180,-375 1151.7,-353.47 1049.6,-355.3 1020,-375 1002.75,-386.48 1016.55,-403.25 1002,-418 949.59,-471.15 914.15,-450.42 848,-485 779.43,-520.85 703.79,-569.42 658.62,-599.46"/>
<polygon fill="#000000" stroke="#000000" points="656.65,-596.56 650.27,-605.03 660.53,-602.39 656.65,-596.56"/>
<text text-anchor="middle" x="925" y="-529.4" font-family="Times,serif" font-size="32.00">n_2</text>
<text text-anchor="middle" x="925" y="-494.4" font-family="Times,serif" font-size="32.00">=&gt;7 =d perf</text>
</g>
<!-- 7&#45;&gt;prog -->
<g id="edge32" class="edge">
<title>7&#45;&gt;prog</title>
<path fill="none" stroke="#000000" d="M1200.96,-548.58C1194.4,-552.16 1187.1,-555.65 1180,-558 1177.7,-558.76 1060.78,-575.18 986.39,-585.57"/>
<polygon fill="#000000" stroke="#000000" points="985.61,-582.15 976.19,-587 986.58,-589.08 985.61,-582.15"/>
<text text-anchor="middle" x="1100" y="-625.4" font-family="Times,serif" font-size="32.00">ing_2</text>
<text text-anchor="middle" x="1100" y="-590.4" font-family="Times,serif" font-size="32.00">=&gt;7 =d prog</text>
</g>
<!-- 7&#45;&gt;5 -->
<g id="edge31" class="edge">
<title>7&#45;&gt;5</title>
<path fill="none" stroke="#f7931d" stroke-width="2" d="M1224.32,-564.41C1224.42,-637.45 1220.5,-819.85 1180,-862 1129.98,-914.06 1085.15,-858.91 1020,-890 993.49,-902.65 968.69,-924.91 951.22,-943.05"/>
<polygon fill="#f7931d" stroke="#f7931d" stroke-width="2" points="948.49,-940.84 944.2,-950.53 953.6,-945.63 948.49,-940.84"/>
<text text-anchor="middle" x="1100" y="-934.4" font-family="Times,serif" font-size="32.00">ε_9</text>
<text text-anchor="middle" x="1100" y="-899.4" font-family="Times,serif" font-size="32.00">=&gt;7 5</text>
</g>
<!-- 8&#45;&gt;0 -->
<g id="edge34" class="edge">
<title>8&#45;&gt;0</title>
<path fill="none" stroke="#000000" d="M1211.11,-326.42C1175.84,-257.98 1070.65,-81 926,-81 926,-81 926,-81 400,-81 289.24,-81 310.74,-191.51 274,-296 242.87,-384.54 233.76,-495.32 231.1,-554.04"/>
<polygon fill="#000000" stroke="#000000" points="227.59,-554.24 230.67,-564.38 234.58,-554.53 227.59,-554.24"/>
<text text-anchor="middle" x="617" y="-125.4" font-family="Times,serif" font-size="32.00">ε_10</text>
<text text-anchor="middle" x="617" y="-90.4" font-family="Times,serif" font-size="32.00">=&gt;8 =d 0</text>
</g>
<!-- 8&#45;&gt;1 -->
<g id="edge36" class="edge">
<title>8&#45;&gt;1</title>
<path fill="none" stroke="#000000" d="M1205.43,-331.79C1198.24,-325.09 1189.46,-318.52 1180,-315 920.9,-218.6 832.52,-284.39 558,-317 474.61,-326.91 438.76,-306.53 374,-360 289.93,-429.42 308.28,-480.5 274,-584 256.36,-637.25 243.58,-700.93 236.48,-741.17"/>
<polygon fill="#000000" stroke="#000000" points="233.01,-740.68 234.75,-751.13 239.91,-741.87 233.01,-740.68"/>
<text text-anchor="middle" x="617" y="-361.4" font-family="Times,serif" font-size="32.00">ε_11</text>
<text text-anchor="middle" x="617" y="-326.4" font-family="Times,serif" font-size="32.00">=&gt;8 =d 1</text>
</g>
<!-- 8&#45;&gt;perf -->
<g id="edge39" class="edge">
<title>8&#45;&gt;perf</title>
<path fill="none" stroke="#000000" d="M1198.59,-345.73C1136.12,-329.25 971.18,-294.16 848,-344 759.72,-379.72 741.88,-410.68 694,-493 677.85,-520.77 691.23,-534.72 676,-563 669.83,-574.46 661.18,-585.51 652.43,-595.1"/>
<polygon fill="#000000" stroke="#000000" points="649.79,-592.8 645.45,-602.47 654.87,-597.62 649.79,-592.8"/>
<text text-anchor="middle" x="925" y="-388.4" font-family="Times,serif" font-size="32.00">n_3</text>
<text text-anchor="middle" x="925" y="-353.4" font-family="Times,serif" font-size="32.00">=&gt;8 =d perf</text>
</g>
<!-- 8&#45;&gt;prog -->
<g id="edge38" class="edge">
<title>8&#45;&gt;prog</title>
<path fill="none" stroke="#000000" d="M1197.88,-349.71C1154.05,-345.81 1066,-345.19 1020,-395 975.94,-442.71 1035.29,-484.24 1002,-540 995.19,-551.41 984.93,-561.05 974.14,-568.89"/>
<polygon fill="#000000" stroke="#000000" points="972.14,-566.02 965.83,-574.53 976.07,-571.81 972.14,-566.02"/>
<text text-anchor="middle" x="1100" y="-439.4" font-family="Times,serif" font-size="32.00">ing_3</text>
<text text-anchor="middle" x="1100" y="-404.4" font-family="Times,serif" font-size="32.00">=&gt;8 =d prog</text>
</g>
<!-- 8&#45;&gt;5 -->
<g id="edge37" class="edge">
<title>8&#45;&gt;5</title>
<path fill="none" stroke="#f7931d" stroke-width="2" d="M1220.7,-383.06C1216.15,-409.04 1205.39,-445.41 1180,-465 1123.31,-508.75 1070.69,-433.41 1020,-484 996.39,-507.56 1007.66,-600.13 1002,-633 983.16,-742.52 952.07,-869.99 936.12,-932.84"/>
<polygon fill="#f7931d" stroke="#f7931d" stroke-width="2" points="932.68,-932.17 933.61,-942.72 939.47,-933.9 932.68,-932.17"/>
<text text-anchor="middle" x="1100" y="-528.4" font-family="Times,serif" font-size="32.00">ε_12</text>
<text text-anchor="middle" x="1100" y="-493.4" font-family="Times,serif" font-size="32.00">=&gt;8 5</text>
</g>
</g>
</svg>
