<?xml version="1.0" encoding="UTF-8" standalone="no"?>
<!DOCTYPE svg PUBLIC "-//W3C//DTD SVG 1.1//EN"
 "http://www.w3.org/Graphics/SVG/1.1/DTD/svg11.dtd">
<!-- Generated by graphviz version 2.47.1 (20210417.1919)
 -->
<!-- Title: G Pages: 1 -->
<svg width="1707pt" height="1314pt"
 viewBox="0.00 0.00 1706.65 1314.00" xmlns="http://www.w3.org/2000/svg" xmlns:xlink="http://www.w3.org/1999/xlink">
<g id="graph0" class="graph" transform="scale(1 1) rotate(0) translate(4 1310)">
<title>G</title>
<polygon fill="white" stroke="transparent" points="-4,4 -4,-1310 1702.65,-1310 1702.65,4 -4,4"/>
<text text-anchor="middle" x="849.33" y="-13.4" font-family="Times,serif" font-size="32.00">decomposition: ing =&gt;4 =d prog, ing =&gt;6 =d prog, ing =&gt;7 =d prog, ing =&gt;8 =d prog</text>
<!-- t -->
<g id="node1" class="node">
<title>t</title>
<ellipse fill="lightgray" stroke="black" cx="27" cy="-779" rx="27" ry="30.31"/>
<text text-anchor="middle" x="27" y="-770.9" font-family="Times,serif" font-size="32.00">t</text>
</g>
<!-- z0 -->
<g id="node2" class="node">
<title>z0</title>
<ellipse fill="none" stroke="black" stroke-dasharray="5,2" cx="1671.65" cy="-667" rx="27" ry="18"/>
</g>
<!-- d -->
<g id="node3" class="node">
<title>d</title>
<ellipse fill="none" stroke="black" cx="1511.65" cy="-667" rx="27" ry="30.31"/>
<text text-anchor="middle" x="1511.65" y="-658.9" font-family="Times,serif" font-size="32.00">d</text>
</g>
<!-- z0&#45;&gt;d -->
<g id="edge1" class="edge">
<title>z0&#45;&gt;d</title>
<path fill="none" stroke="#000000" d="M1644.56,-667C1618.49,-667 1578.19,-667 1548.99,-667"/>
<polygon fill="#000000" stroke="#000000" points="1548.78,-663.5 1538.78,-667 1548.78,-670.5 1548.78,-663.5"/>
<text text-anchor="middle" x="1591.65" y="-711.4" font-family="Times,serif" font-size="32.00">Mary</text>
<text text-anchor="middle" x="1591.65" y="-676.4" font-family="Times,serif" font-size="32.00">d &#45;k</text>
</g>
<!-- 8 -->
<g id="node17" class="node">
<title>8</title>
<ellipse fill="none" stroke="black" cx="1323.65" cy="-570" rx="27" ry="30.31"/>
<text text-anchor="middle" x="1323.65" y="-561.9" font-family="Times,serif" font-size="32.00">8</text>
</g>
<!-- d&#45;&gt;8 -->
<g id="edge30" class="edge">
<title>d&#45;&gt;8</title>
<path fill="none" stroke="#000000" d="M1490.77,-646.81C1483.58,-640.24 1475.15,-633.28 1466.65,-628 1432.52,-606.77 1389.28,-590.41 1359.53,-580.56"/>
<polygon fill="#000000" stroke="#000000" points="1360.58,-577.22 1349.99,-577.47 1358.42,-583.88 1360.58,-577.22"/>
<text text-anchor="middle" x="1417.65" y="-672.4" font-family="Times,serif" font-size="32.00">hug</text>
<text text-anchor="middle" x="1417.65" y="-637.4" font-family="Times,serif" font-size="32.00">=d *k 8</text>
</g>
<!-- 9 -->
<g id="node18" class="node">
<title>9</title>
<ellipse fill="none" stroke="black" cx="1323.65" cy="-775" rx="27" ry="30.31"/>
<text text-anchor="middle" x="1323.65" y="-766.9" font-family="Times,serif" font-size="32.00">9</text>
</g>
<!-- d&#45;&gt;9 -->
<g id="edge36" class="edge">
<title>d&#45;&gt;9</title>
<path fill="none" stroke="#000000" d="M1488.61,-683.29C1481.69,-688.19 1473.96,-693.47 1466.65,-698 1430.31,-720.55 1386.88,-743.56 1357.7,-758.47"/>
<polygon fill="#000000" stroke="#000000" points="1356.08,-755.37 1348.75,-763.02 1359.25,-761.61 1356.08,-755.37"/>
<text text-anchor="middle" x="1417.65" y="-797.4" font-family="Times,serif" font-size="32.00">praise</text>
<text text-anchor="middle" x="1417.65" y="-762.4" font-family="Times,serif" font-size="32.00">=d *k 9</text>
</g>
<!-- 0 -->
<g id="node4" class="node">
<title>0</title>
<ellipse fill="none" stroke="black" cx="229" cy="-903" rx="27" ry="30.31"/>
<text text-anchor="middle" x="229" y="-894.9" font-family="Times,serif" font-size="32.00">0</text>
</g>
<!-- 0&#45;&gt;t -->
<g id="edge2" class="edge">
<title>0&#45;&gt;t</title>
<path fill="none" stroke="#000000" d="M203.01,-893.64C170.9,-880.93 114.28,-856.19 72,-825 65.37,-820.11 58.87,-814.17 52.99,-808.2"/>
<polygon fill="#000000" stroke="#000000" points="55.32,-805.57 45.91,-800.71 50.23,-810.38 55.32,-805.57"/>
<text text-anchor="middle" x="128" y="-929.4" font-family="Times,serif" font-size="32.00">s</text>
<text text-anchor="middle" x="128" y="-894.4" font-family="Times,serif" font-size="32.00">=&gt;0 +k t</text>
</g>
<!-- v -->
<g id="node5" class="node">
<title>v</title>
<ellipse fill="none" stroke="black" cx="401" cy="-662" rx="27" ry="30.31"/>
<text text-anchor="middle" x="401" y="-653.9" font-family="Times,serif" font-size="32.00">v</text>
</g>
<!-- v&#45;&gt;0 -->
<g id="edge3" class="edge">
<title>v&#45;&gt;0</title>
<path fill="none" stroke="#000000" d="M388.14,-688.84C380.51,-703.96 369.51,-722.46 356,-736 326.01,-766.05 301.17,-752.38 274,-785 255.24,-807.52 244.07,-838.8 237.67,-863.5"/>
<polygon fill="#000000" stroke="#000000" points="234.25,-862.75 235.3,-873.3 241.06,-864.4 234.25,-862.75"/>
<text text-anchor="middle" x="315" y="-829.4" font-family="Times,serif" font-size="32.00">will</text>
<text text-anchor="middle" x="315" y="-794.4" font-family="Times,serif" font-size="32.00">=v 0</text>
</g>
<!-- 1 -->
<g id="node6" class="node">
<title>1</title>
<ellipse fill="none" stroke="black" cx="229" cy="-662" rx="27" ry="30.31"/>
<text text-anchor="middle" x="229" y="-653.9" font-family="Times,serif" font-size="32.00">1</text>
</g>
<!-- v&#45;&gt;1 -->
<g id="edge5" class="edge">
<title>v&#45;&gt;1</title>
<path fill="none" stroke="#000000" d="M373.81,-662C345.11,-662 298.86,-662 266.58,-662"/>
<polygon fill="#000000" stroke="#000000" points="266.22,-658.5 256.22,-662 266.22,-665.5 266.22,-658.5"/>
<text text-anchor="middle" x="315" y="-706.4" font-family="Times,serif" font-size="32.00">will_1</text>
<text text-anchor="middle" x="315" y="-671.4" font-family="Times,serif" font-size="32.00">=v 1</text>
</g>
<!-- 1&#45;&gt;t -->
<g id="edge4" class="edge">
<title>1&#45;&gt;t</title>
<path fill="none" stroke="#000000" d="M204.67,-675.65C168.84,-696.61 100.2,-736.77 59.83,-760.38"/>
<polygon fill="#000000" stroke="#000000" points="58.05,-757.37 51.19,-765.44 61.58,-763.41 58.05,-757.37"/>
<text text-anchor="middle" x="128" y="-795.4" font-family="Times,serif" font-size="32.00">d</text>
<text text-anchor="middle" x="128" y="-760.4" font-family="Times,serif" font-size="32.00">=&gt;1 +k t</text>
</g>
<!-- 2 -->
<g id="node7" class="node">
<title>2</title>
<ellipse fill="none" stroke="black" cx="401" cy="-840" rx="27" ry="30.31"/>
<text text-anchor="middle" x="401" y="-831.9" font-family="Times,serif" font-size="32.00">2</text>
</g>
<!-- 2&#45;&gt;0 -->
<g id="edge6" class="edge">
<title>2&#45;&gt;0</title>
<path fill="none" stroke="#000000" d="M375.46,-850.97C369.16,-853.68 362.36,-856.52 356,-859 325.51,-870.89 290.31,-883.05 264.87,-891.57"/>
<polygon fill="#000000" stroke="#000000" points="263.68,-888.28 255.3,-894.76 265.89,-894.92 263.68,-888.28"/>
<text text-anchor="middle" x="315" y="-933.4" font-family="Times,serif" font-size="32.00">e</text>
<text text-anchor="middle" x="315" y="-898.4" font-family="Times,serif" font-size="32.00">=&gt;2 0</text>
</g>
<!-- perf -->
<g id="node8" class="node">
<title>perf</title>
<ellipse fill="none" stroke="black" cx="608" cy="-659" rx="48.17" ry="30.31"/>
<text text-anchor="middle" x="608" y="-650.9" font-family="Times,serif" font-size="32.00">perf</text>
</g>
<!-- perf&#45;&gt;v -->
<g id="edge10" class="edge">
<title>perf&#45;&gt;v</title>
<path fill="none" stroke="#000000" d="M559.71,-659.69C522.79,-660.23 472.26,-660.97 438.44,-661.47"/>
<polygon fill="#000000" stroke="#000000" points="438.03,-657.97 428.08,-661.62 438.13,-664.97 438.03,-657.97"/>
<text text-anchor="middle" x="493" y="-706.4" font-family="Times,serif" font-size="32.00">have</text>
<text text-anchor="middle" x="493" y="-671.4" font-family="Times,serif" font-size="32.00">=perf v</text>
</g>
<!-- perf&#45;&gt;2 -->
<g id="edge7" class="edge">
<title>perf&#45;&gt;2</title>
<path fill="none" stroke="#000000" d="M588.07,-687.12C576.07,-702.85 559.2,-721.55 540,-733 503.05,-755.02 479.87,-729.49 446,-756 431.26,-767.54 420.94,-785.39 414.01,-801.68"/>
<polygon fill="#000000" stroke="#000000" points="410.74,-800.44 410.32,-811.03 417.25,-803.01 410.74,-800.44"/>
<text text-anchor="middle" x="493" y="-800.4" font-family="Times,serif" font-size="32.00">hav</text>
<text text-anchor="middle" x="493" y="-765.4" font-family="Times,serif" font-size="32.00">=perf 2</text>
</g>
<!-- 3 -->
<g id="node9" class="node">
<title>3</title>
<ellipse fill="none" stroke="black" cx="401" cy="-569" rx="27" ry="30.31"/>
<text text-anchor="middle" x="401" y="-560.9" font-family="Times,serif" font-size="32.00">3</text>
</g>
<!-- perf&#45;&gt;3 -->
<g id="edge9" class="edge">
<title>perf&#45;&gt;3</title>
<path fill="none" stroke="#000000" d="M578.4,-634.87C571.4,-628.4 564.16,-621.2 558,-614 548.62,-603.04 552.25,-594.61 540,-587 509.48,-568.03 467.84,-565.02 438.31,-565.84"/>
<polygon fill="#000000" stroke="#000000" points="437.85,-562.35 428.02,-566.29 438.16,-569.35 437.85,-562.35"/>
<text text-anchor="middle" x="493" y="-631.4" font-family="Times,serif" font-size="32.00">hav_1</text>
<text text-anchor="middle" x="493" y="-596.4" font-family="Times,serif" font-size="32.00">=perf 3</text>
</g>
<!-- 3&#45;&gt;1 -->
<g id="edge8" class="edge">
<title>3&#45;&gt;1</title>
<path fill="none" stroke="#000000" d="M374.04,-566.73C346.82,-565.68 303.92,-567.88 274,-588 260.9,-596.81 251.12,-610.95 244.15,-624.52"/>
<polygon fill="#000000" stroke="#000000" points="240.89,-623.21 239.77,-633.75 247.22,-626.21 240.89,-623.21"/>
<text text-anchor="middle" x="315" y="-632.4" font-family="Times,serif" font-size="32.00">e_1</text>
<text text-anchor="middle" x="315" y="-597.4" font-family="Times,serif" font-size="32.00">=&gt;3 1</text>
</g>
<!-- prog -->
<g id="node10" class="node">
<title>prog</title>
<ellipse fill="none" stroke="black" cx="882.33" cy="-644" rx="52.15" ry="30.31"/>
<text text-anchor="middle" x="882.33" y="-635.9" font-family="Times,serif" font-size="32.00">prog</text>
</g>
<!-- prog&#45;&gt;v -->
<g id="edge13" class="edge">
<title>prog&#45;&gt;v</title>
<path fill="none" stroke="#000000" d="M844.09,-622.86C800.92,-599.67 726.86,-563.9 658,-550 565.49,-531.32 521,-504.72 446,-562 428.55,-575.33 436.77,-587.87 428,-608 425.38,-614.01 422.48,-620.33 419.59,-626.45"/>
<polygon fill="#000000" stroke="#000000" points="416.26,-625.29 415.1,-635.82 422.58,-628.31 416.26,-625.29"/>
<text text-anchor="middle" x="608" y="-594.4" font-family="Times,serif" font-size="32.00">be</text>
<text text-anchor="middle" x="608" y="-559.4" font-family="Times,serif" font-size="32.00">=prog v</text>
</g>
<!-- prog&#45;&gt;2 -->
<g id="edge11" class="edge">
<title>prog&#45;&gt;2</title>
<path fill="none" stroke="#000000" d="M860.17,-671.56C847.6,-686.29 830.51,-703.66 812,-715 711.18,-776.74 649.93,-719.66 558,-794 545.31,-804.26 553.65,-817.06 540,-826 509.81,-845.77 467.69,-847.19 437.94,-844.97"/>
<polygon fill="#000000" stroke="#000000" points="438.25,-841.49 427.98,-844.06 437.61,-848.46 438.25,-841.49"/>
<text text-anchor="middle" x="608" y="-838.4" font-family="Times,serif" font-size="32.00">b</text>
<text text-anchor="middle" x="608" y="-803.4" font-family="Times,serif" font-size="32.00">=prog 2</text>
</g>
<!-- prog&#45;&gt;perf -->
<g id="edge14" class="edge">
<title>prog&#45;&gt;perf</title>
<path fill="none" stroke="#000000" d="M830.12,-641.4C788.48,-639.98 728.29,-639.47 676,-645 671.81,-645.44 667.5,-646.03 663.18,-646.72"/>
<polygon fill="#000000" stroke="#000000" points="662.38,-643.3 653.13,-648.47 663.58,-650.2 662.38,-643.3"/>
<text text-anchor="middle" x="744" y="-689.4" font-family="Times,serif" font-size="32.00">ben</text>
<text text-anchor="middle" x="744" y="-654.4" font-family="Times,serif" font-size="32.00">=prog perf</text>
</g>
<!-- prog&#45;&gt;3 -->
<g id="edge12" class="edge">
<title>prog&#45;&gt;3</title>
<path fill="none" stroke="#000000" d="M876.93,-613.55C867.88,-555.55 845.16,-432.82 812,-408 745.71,-358.38 508.91,-424.15 446,-478 430.18,-491.54 419.57,-512.08 412.74,-530.23"/>
<polygon fill="#000000" stroke="#000000" points="409.42,-529.13 409.42,-539.72 416.03,-531.44 409.42,-529.13"/>
<text text-anchor="middle" x="608" y="-468.4" font-family="Times,serif" font-size="32.00">b_1</text>
<text text-anchor="middle" x="608" y="-433.4" font-family="Times,serif" font-size="32.00">=prog 3</text>
</g>
<!-- 4 -->
<g id="node11" class="node">
<title>4</title>
<ellipse fill="none" stroke="black" cx="1323.65" cy="-1063" rx="27" ry="30.31"/>
<text text-anchor="middle" x="1323.65" y="-1054.9" font-family="Times,serif" font-size="32.00">4</text>
</g>
<!-- 4&#45;&gt;0 -->
<g id="edge15" class="edge">
<title>4&#45;&gt;0</title>
<path fill="none" stroke="#000000" d="M1311.76,-1090.41C1290.36,-1139.19 1237.9,-1236 1158.65,-1236 1158.65,-1236 1158.65,-1236 400,-1236 269.97,-1236 239.35,-1032.1 232.17,-943.41"/>
<polygon fill="#000000" stroke="#000000" points="235.66,-943.15 231.43,-933.43 228.68,-943.67 235.66,-943.15"/>
<text text-anchor="middle" x="744" y="-1280.4" font-family="Times,serif" font-size="32.00">ε_0</text>
<text text-anchor="middle" x="744" y="-1245.4" font-family="Times,serif" font-size="32.00">=&gt;4 =d 0</text>
</g>
<!-- 4&#45;&gt;1 -->
<g id="edge17" class="edge">
<title>4&#45;&gt;1</title>
<path fill="none" stroke="#000000" d="M1297.27,-1070.8C1209.09,-1096.62 908.74,-1173.79 676,-1104 522.03,-1057.83 494.59,-1011.28 374,-905 364.78,-896.87 366.18,-890.9 356,-884 324.12,-862.4 299.75,-884.64 274,-856 253.95,-833.7 240.86,-752.39 234.51,-702.39"/>
<polygon fill="#000000" stroke="#000000" points="237.95,-701.72 233.25,-692.23 231,-702.58 237.95,-701.72"/>
<text text-anchor="middle" x="744" y="-1173.4" font-family="Times,serif" font-size="32.00">ε_1</text>
<text text-anchor="middle" x="744" y="-1138.4" font-family="Times,serif" font-size="32.00">=&gt;4 =d 1</text>
</g>
<!-- 4&#45;&gt;perf -->
<g id="edge22" class="edge">
<title>4&#45;&gt;perf</title>
<path fill="none" stroke="#000000" d="M1296.81,-1058.26C1272.45,-1053.69 1234.96,-1046.4 1202.65,-1039 1027.85,-998.96 986.69,-978.54 812,-938 751.89,-924.05 717.59,-955.59 676,-910 651.74,-883.4 668.81,-783.34 658,-749 652.2,-730.56 642.49,-711.56 633.24,-695.79"/>
<polygon fill="#000000" stroke="#000000" points="636.04,-693.66 627.88,-686.91 630.05,-697.28 636.04,-693.66"/>
<text text-anchor="middle" x="1032.65" y="-1062.4" font-family="Times,serif" font-size="32.00">n</text>
<text text-anchor="middle" x="1032.65" y="-1027.4" font-family="Times,serif" font-size="32.00">=&gt;4 =d perf</text>
</g>
<!-- 5 -->
<g id="node13" class="node">
<title>5</title>
<ellipse fill="none" stroke="black" cx="1157.65" cy="-427" rx="27" ry="30.31"/>
<text text-anchor="middle" x="1157.65" y="-418.9" font-family="Times,serif" font-size="32.00">5</text>
</g>
<!-- 4&#45;&gt;5 -->
<g id="edge19" class="edge">
<title>4&#45;&gt;5</title>
<path fill="none" stroke="#000000" d="M1320.47,-1032.48C1315.81,-974.81 1303.27,-852.59 1278.65,-819 1256.09,-788.21 1224.06,-810.6 1202.65,-779 1181.1,-747.18 1189.4,-645.14 1184.65,-607 1178.65,-558.81 1170.48,-503.54 1164.9,-467.11"/>
<polygon fill="#000000" stroke="#000000" points="1168.31,-466.24 1163.34,-456.89 1161.39,-467.31 1168.31,-466.24"/>
<text text-anchor="middle" x="1240.65" y="-863.4" font-family="Times,serif" font-size="32.00">ε_3</text>
<text text-anchor="middle" x="1240.65" y="-828.4" font-family="Times,serif" font-size="32.00">=&gt;4 5</text>
</g>
<!-- 6 -->
<g id="node14" class="node">
<title>6</title>
<ellipse fill="none" stroke="black" cx="1157.65" cy="-646" rx="27" ry="30.31"/>
<text text-anchor="middle" x="1157.65" y="-637.9" font-family="Times,serif" font-size="32.00">6</text>
</g>
<!-- 4&#45;&gt;6 -->
<g id="edge21" class="edge">
<title>4&#45;&gt;6</title>
<path fill="none" stroke="#f7931d" stroke-width="2" d="M1310.54,-1035.95C1302.46,-1019 1291.07,-997.03 1278.65,-979 1249.72,-936.99 1224.84,-938.93 1202.65,-893 1170.11,-825.63 1161.43,-737.45 1159.24,-686.73"/>
<polygon fill="#f7931d" stroke="#f7931d" stroke-width="2" points="1162.73,-686.36 1158.86,-676.5 1155.73,-686.62 1162.73,-686.36"/>
<text text-anchor="middle" x="1240.65" y="-1023.4" font-family="Times,serif" font-size="32.00">ε_4</text>
<text text-anchor="middle" x="1240.65" y="-988.4" font-family="Times,serif" font-size="32.00">=&gt;4 6</text>
</g>
<!-- z1 -->
<g id="node12" class="node">
<title>z1</title>
<ellipse fill="none" stroke="black" stroke-dasharray="5,2" cx="1511.65" cy="-1063" rx="27" ry="18"/>
</g>
<!-- z1&#45;&gt;4 -->
<g id="edge16" class="edge">
<title>z1&#45;&gt;4</title>
<path fill="none" stroke="#000000" d="M1484.4,-1063C1452.13,-1063 1397.22,-1063 1360.93,-1063"/>
<polygon fill="#000000" stroke="#000000" points="1360.77,-1059.5 1350.77,-1063 1360.77,-1066.5 1360.77,-1059.5"/>
<text text-anchor="middle" x="1417.65" y="-1107.4" font-family="Times,serif" font-size="32.00">laugh</text>
<text text-anchor="middle" x="1417.65" y="-1072.4" font-family="Times,serif" font-size="32.00">4</text>
</g>
<!-- 5&#45;&gt;v -->
<g id="edge18" class="edge">
<title>5&#45;&gt;v</title>
<path fill="none" stroke="#000000" d="M1130.82,-423.31C1041.88,-411.15 749.76,-376.04 676,-428 656.69,-441.6 675.76,-462.44 658,-478 585.48,-541.53 514.09,-455.74 446,-524 419.04,-551.03 440.37,-571.88 428,-608 425.85,-614.27 423.17,-620.76 420.34,-626.97"/>
<polygon fill="#000000" stroke="#000000" points="416.98,-625.9 415.85,-636.43 423.3,-628.9 416.98,-625.9"/>
<text text-anchor="middle" x="744" y="-472.4" font-family="Times,serif" font-size="32.00">ε_2</text>
<text text-anchor="middle" x="744" y="-437.4" font-family="Times,serif" font-size="32.00">=&gt;5 =d v</text>
</g>
<!-- 6&#45;&gt;prog -->
<g id="edge20" class="edge">
<title>6&#45;&gt;prog</title>
<path fill="none" stroke="#f7931d" stroke-width="2" d="M1130.44,-645.81C1088.03,-645.5 1003.22,-644.88 944.88,-644.45"/>
<polygon fill="#f7931d" stroke="#f7931d" stroke-width="2" points="944.7,-640.95 934.68,-644.38 944.65,-647.95 944.7,-640.95"/>
<text text-anchor="middle" x="1032.65" y="-690.4" font-family="Times,serif" font-size="32.00">ing</text>
<text text-anchor="middle" x="1032.65" y="-655.4" font-family="Times,serif" font-size="32.00">=&gt;6 =d prog</text>
</g>
<!-- 7 -->
<g id="node15" class="node">
<title>7</title>
<ellipse fill="none" stroke="black" cx="1323.65" cy="-131" rx="27" ry="30.31"/>
<text text-anchor="middle" x="1323.65" y="-122.9" font-family="Times,serif" font-size="32.00">7</text>
</g>
<!-- 7&#45;&gt;0 -->
<g id="edge23" class="edge">
<title>7&#45;&gt;0</title>
<path fill="none" stroke="#000000" d="M1296.56,-129.16C1206.05,-123.84 899,-114.66 676,-215 460.5,-311.97 385.84,-354.83 274,-563 273.78,-563.41 246.77,-772.86 235.18,-862.77"/>
<polygon fill="#000000" stroke="#000000" points="231.69,-862.51 233.88,-872.87 238.63,-863.4 231.69,-862.51"/>
<text text-anchor="middle" x="744" y="-259.4" font-family="Times,serif" font-size="32.00">ε_5</text>
<text text-anchor="middle" x="744" y="-224.4" font-family="Times,serif" font-size="32.00">=&gt;7 =d 0</text>
</g>
<!-- 7&#45;&gt;1 -->
<g id="edge25" class="edge">
<title>7&#45;&gt;1</title>
<path fill="none" stroke="#000000" d="M1298.62,-118.77C1267.27,-103.97 1210.3,-81 1158.65,-81 1158.65,-81 1158.65,-81 400,-81 286.55,-81 309.59,-195.28 274,-303 237.35,-413.93 230.73,-553.23 229.85,-621.08"/>
<polygon fill="#000000" stroke="#000000" points="226.35,-621.31 229.76,-631.34 233.35,-621.37 226.35,-621.31"/>
<text text-anchor="middle" x="744" y="-125.4" font-family="Times,serif" font-size="32.00">ε_6</text>
<text text-anchor="middle" x="744" y="-90.4" font-family="Times,serif" font-size="32.00">=&gt;7 =d 1</text>
</g>
<!-- 7&#45;&gt;perf -->
<g id="edge28" class="edge">
<title>7&#45;&gt;perf</title>
<path fill="none" stroke="#000000" d="M1296.69,-127.91C1271.58,-126 1232.97,-126 1202.65,-139 985.91,-231.89 995.51,-349.92 812,-498 754.42,-544.46 726.34,-539.78 676,-594 665.42,-605.4 668.55,-612.58 658,-624 655.73,-626.46 653.26,-628.85 650.68,-631.15"/>
<polygon fill="#000000" stroke="#000000" points="648.16,-628.69 642.69,-637.76 652.62,-634.09 648.16,-628.69"/>
<text text-anchor="middle" x="1032.65" y="-396.4" font-family="Times,serif" font-size="32.00">n_1</text>
<text text-anchor="middle" x="1032.65" y="-361.4" font-family="Times,serif" font-size="32.00">=&gt;7 =d perf</text>
</g>
<!-- 7&#45;&gt;5 -->
<g id="edge26" class="edge">
<title>7&#45;&gt;5</title>
<path fill="none" stroke="#000000" d="M1297.2,-137.47C1262.95,-146.29 1205.88,-161.4 1202.65,-165 1188.05,-181.3 1170.92,-317.39 1163.03,-386.73"/>
<polygon fill="#000000" stroke="#000000" points="1159.53,-386.52 1161.89,-396.85 1166.49,-387.31 1159.53,-386.52"/>
<text text-anchor="middle" x="1240.65" y="-209.4" font-family="Times,serif" font-size="32.00">ε_7</text>
<text text-anchor="middle" x="1240.65" y="-174.4" font-family="Times,serif" font-size="32.00">=&gt;7 5</text>
</g>
<!-- 7&#45;&gt;6 -->
<g id="edge27" class="edge">
<title>7&#45;&gt;6</title>
<path fill="none" stroke="#f7931d" stroke-width="2" d="M1315.05,-160.2C1308.2,-182.41 1296.45,-212.84 1278.65,-235 1252.71,-267.31 1223.5,-253.19 1202.65,-289 1182.76,-323.17 1189.48,-426.76 1184.65,-466 1178.72,-514.2 1170.53,-569.46 1164.94,-605.9"/>
<polygon fill="#f7931d" stroke="#f7931d" stroke-width="2" points="1161.43,-605.7 1163.36,-616.11 1168.35,-606.76 1161.43,-605.7"/>
<text text-anchor="middle" x="1240.65" y="-333.4" font-family="Times,serif" font-size="32.00">ε_8</text>
<text text-anchor="middle" x="1240.65" y="-298.4" font-family="Times,serif" font-size="32.00">=&gt;7 6</text>
</g>
<!-- z2 -->
<g id="node16" class="node">
<title>z2</title>
<ellipse fill="none" stroke="black" stroke-dasharray="5,2" cx="1511.65" cy="-131" rx="27" ry="18"/>
</g>
<!-- z2&#45;&gt;7 -->
<g id="edge24" class="edge">
<title>z2&#45;&gt;7</title>
<path fill="none" stroke="#000000" d="M1484.4,-131C1452.13,-131 1397.22,-131 1360.93,-131"/>
<polygon fill="#000000" stroke="#000000" points="1360.77,-127.5 1350.77,-131 1360.77,-134.5 1360.77,-127.5"/>
<text text-anchor="middle" x="1417.65" y="-175.4" font-family="Times,serif" font-size="32.00">dance</text>
<text text-anchor="middle" x="1417.65" y="-140.4" font-family="Times,serif" font-size="32.00">7</text>
</g>
<!-- 8&#45;&gt;0 -->
<g id="edge29" class="edge">
<title>8&#45;&gt;0</title>
<path fill="none" stroke="#000000" d="M1323.47,-600.72C1322.86,-640.09 1315.93,-708.24 1278.65,-750 1254.68,-776.85 1235.56,-763.42 1202.65,-778 1161.4,-796.28 1155.85,-811.96 1112.65,-825 925.83,-881.38 867.54,-833.68 676,-871 530.75,-899.3 502.54,-942.35 356,-963 319.91,-968.08 306.51,-979.47 274,-963 263.22,-957.54 254.44,-948.05 247.64,-938.21"/>
<polygon fill="#000000" stroke="#000000" points="250.47,-936.15 242.17,-929.56 244.56,-939.89 250.47,-936.15"/>
<text text-anchor="middle" x="744" y="-915.4" font-family="Times,serif" font-size="32.00">ε_9</text>
<text text-anchor="middle" x="744" y="-880.4" font-family="Times,serif" font-size="32.00">=&gt;8 =d 0</text>
</g>
<!-- 8&#45;&gt;1 -->
<g id="edge31" class="edge">
<title>8&#45;&gt;1</title>
<path fill="none" stroke="#000000" d="M1320.65,-539.46C1316.52,-486.87 1305.13,-382.58 1278.65,-359 1195.25,-284.74 356.55,-257.8 274,-333 232.46,-370.84 228.68,-541.91 229.23,-621.3"/>
<polygon fill="#000000" stroke="#000000" points="225.73,-621.45 229.33,-631.42 232.73,-621.39 225.73,-621.45"/>
<text text-anchor="middle" x="744" y="-336.4" font-family="Times,serif" font-size="32.00">ε_10</text>
<text text-anchor="middle" x="744" y="-301.4" font-family="Times,serif" font-size="32.00">=&gt;8 =d 1</text>
</g>
<!-- 8&#45;&gt;perf -->
<g id="edge34" class="edge">
<title>8&#45;&gt;perf</title>
<path fill="none" stroke="#000000" d="M1296.61,-567.93C1290.71,-567.54 1284.47,-567.2 1278.65,-567 1244.89,-565.85 1236.43,-566.73 1202.65,-567 1091.53,-567.89 1062.91,-557.14 952.65,-571 827.23,-586.77 797.63,-602.59 676,-637 670.97,-638.42 665.76,-639.98 660.57,-641.59"/>
<polygon fill="#000000" stroke="#000000" points="659.13,-638.38 650.65,-644.73 661.24,-645.05 659.13,-638.38"/>
<text text-anchor="middle" x="1032.65" y="-615.4" font-family="Times,serif" font-size="32.00">n_2</text>
<text text-anchor="middle" x="1032.65" y="-580.4" font-family="Times,serif" font-size="32.00">=&gt;8 =d perf</text>
</g>
<!-- 8&#45;&gt;5 -->
<g id="edge32" class="edge">
<title>8&#45;&gt;5</title>
<path fill="none" stroke="#000000" d="M1320.28,-539.71C1315.73,-490.38 1303.88,-396.15 1278.65,-376 1252.26,-354.92 1233.36,-361.94 1202.65,-376 1193.91,-380 1186.24,-386.7 1179.86,-393.95"/>
<polygon fill="#000000" stroke="#000000" points="1176.99,-391.93 1173.45,-401.92 1182.44,-396.32 1176.99,-391.93"/>
<text text-anchor="middle" x="1240.65" y="-420.4" font-family="Times,serif" font-size="32.00">ε_11</text>
<text text-anchor="middle" x="1240.65" y="-385.4" font-family="Times,serif" font-size="32.00">=&gt;8 5</text>
</g>
<!-- 8&#45;&gt;6 -->
<g id="edge33" class="edge">
<title>8&#45;&gt;6</title>
<path fill="none" stroke="#f7931d" stroke-width="2" d="M1296.42,-568.12C1270.75,-567.51 1231.43,-569.93 1202.65,-587 1192.72,-592.89 1184.32,-601.97 1177.61,-611.26"/>
<polygon fill="#f7931d" stroke="#f7931d" stroke-width="2" points="1174.57,-609.5 1171.92,-619.76 1180.39,-613.39 1174.57,-609.5"/>
<text text-anchor="middle" x="1240.65" y="-631.4" font-family="Times,serif" font-size="32.00">ε_12</text>
<text text-anchor="middle" x="1240.65" y="-596.4" font-family="Times,serif" font-size="32.00">=&gt;8 6</text>
</g>
<!-- 9&#45;&gt;0 -->
<g id="edge35" class="edge">
<title>9&#45;&gt;0</title>
<path fill="none" stroke="#000000" d="M1321.32,-805.7C1318.18,-862.22 1308.19,-979.33 1278.65,-1005 1236.53,-1041.61 319.79,-1033.91 274,-1002 254.42,-988.35 243.44,-963.91 237.34,-942.73"/>
<polygon fill="#000000" stroke="#000000" points="240.71,-941.76 234.8,-932.96 233.93,-943.52 240.71,-941.76"/>
<text text-anchor="middle" x="744" y="-1074.4" font-family="Times,serif" font-size="32.00">ε_13</text>
<text text-anchor="middle" x="744" y="-1039.4" font-family="Times,serif" font-size="32.00">=&gt;9 =d 0</text>
</g>
<!-- 9&#45;&gt;1 -->
<g id="edge37" class="edge">
<title>9&#45;&gt;1</title>
<path fill="none" stroke="#000000" d="M1320.89,-805.37C1317.11,-858.21 1306.24,-963.58 1278.65,-986 1252.44,-1007.31 1236.36,-988.17 1202.65,-986 1110.01,-980.04 440.61,-943.67 374,-879 337.51,-843.58 388.33,-805.25 356,-766 331.33,-736.05 303.87,-760.78 274,-736 261.94,-726 252.38,-711.78 245.3,-698.48"/>
<polygon fill="#000000" stroke="#000000" points="248.4,-696.85 240.79,-689.48 242.14,-699.99 248.4,-696.85"/>
<text text-anchor="middle" x="744" y="-1002.4" font-family="Times,serif" font-size="32.00">ε_14</text>
<text text-anchor="middle" x="744" y="-967.4" font-family="Times,serif" font-size="32.00">=&gt;9 =d 1</text>
</g>
<!-- 9&#45;&gt;perf -->
<g id="edge40" class="edge">
<title>9&#45;&gt;perf</title>
<path fill="none" stroke="#000000" d="M1296.41,-775.8C1272.09,-776.35 1234.9,-776.71 1202.65,-775 967.59,-762.54 891.11,-814.58 676,-719 662.34,-712.93 649.52,-703 638.83,-692.96"/>
<polygon fill="#000000" stroke="#000000" points="641.02,-690.2 631.44,-685.68 636.1,-695.19 641.02,-690.2"/>
<text text-anchor="middle" x="1032.65" y="-823.4" font-family="Times,serif" font-size="32.00">n_3</text>
<text text-anchor="middle" x="1032.65" y="-788.4" font-family="Times,serif" font-size="32.00">=&gt;9 =d perf</text>
</g>
<!-- 9&#45;&gt;5 -->
<g id="edge38" class="edge">
<title>9&#45;&gt;5</title>
<path fill="none" stroke="#000000" d="M1317.97,-745.08C1306.68,-672.93 1278.88,-495.32 1278.65,-495 1267.78,-479.3 1223.87,-456.77 1192.32,-442.01"/>
<polygon fill="#000000" stroke="#000000" points="1193.52,-438.71 1182.97,-437.7 1190.58,-445.06 1193.52,-438.71"/>
<text text-anchor="middle" x="1240.65" y="-539.4" font-family="Times,serif" font-size="32.00">ε_15</text>
<text text-anchor="middle" x="1240.65" y="-504.4" font-family="Times,serif" font-size="32.00">=&gt;9 5</text>
</g>
<!-- 9&#45;&gt;6 -->
<g id="edge39" class="edge">
<title>9&#45;&gt;6</title>
<path fill="none" stroke="#f7931d" stroke-width="2" d="M1310.35,-748.2C1302.79,-733.98 1291.98,-717.01 1278.65,-705 1253.98,-682.78 1219.43,-666.97 1193.73,-657.35"/>
<polygon fill="#f7931d" stroke="#f7931d" stroke-width="2" points="1194.6,-653.94 1184.01,-653.84 1192.23,-660.53 1194.6,-653.94"/>
<text text-anchor="middle" x="1240.65" y="-749.4" font-family="Times,serif" font-size="32.00">ε_16</text>
<text text-anchor="middle" x="1240.65" y="-714.4" font-family="Times,serif" font-size="32.00">=&gt;9 6</text>
</g>
</g>
</svg>
