<?xml version="1.0" encoding="UTF-8" standalone="no"?>
<!DOCTYPE svg PUBLIC "-//W3C//DTD SVG 1.1//EN"
 "http://www.w3.org/Graphics/SVG/1.1/DTD/svg11.dtd">
<!-- Generated by graphviz version 2.47.1 (20210417.1919)
 -->
<!-- Title: G Pages: 1 -->
<svg width="1820pt" height="1730pt"
 viewBox="0.00 0.00 1819.88 1729.68" xmlns="http://www.w3.org/2000/svg" xmlns:xlink="http://www.w3.org/1999/xlink">
<g id="graph0" class="graph" transform="scale(1 1) rotate(0) translate(4 1725.68)">
<title>G</title>
<polygon fill="white" stroke="transparent" points="-4,4 -4,-1725.68 1815.88,-1725.68 1815.88,4 -4,4"/>
<text text-anchor="middle" x="905.94" y="-13.4" font-family="Times,serif" font-size="32.00">decomposition: n =&gt;5 =d perf, n =&gt;8 =d perf, n =&gt;9 =d perf, n =&gt;10 =d perf</text>
<!-- t -->
<g id="node1" class="node">
<title>t</title>
<ellipse fill="lightgray" stroke="black" cx="27" cy="-771.68" rx="27" ry="30.31"/>
<text text-anchor="middle" x="27" y="-763.58" font-family="Times,serif" font-size="32.00">t</text>
</g>
<!-- z0 -->
<g id="node2" class="node">
<title>z0</title>
<ellipse fill="none" stroke="black" stroke-dasharray="5,2" cx="1784.88" cy="-404.68" rx="27" ry="18"/>
</g>
<!-- d -->
<g id="node3" class="node">
<title>d</title>
<ellipse fill="none" stroke="black" cx="1624.88" cy="-404.68" rx="27" ry="30.31"/>
<text text-anchor="middle" x="1624.88" y="-396.58" font-family="Times,serif" font-size="32.00">d</text>
</g>
<!-- z0&#45;&gt;d -->
<g id="edge1" class="edge">
<title>z0&#45;&gt;d</title>
<path fill="none" stroke="#000000" d="M1757.79,-404.68C1731.72,-404.68 1691.42,-404.68 1662.22,-404.68"/>
<polygon fill="#000000" stroke="#000000" points="1662.01,-401.18 1652.01,-404.68 1662.01,-408.18 1662.01,-401.18"/>
<text text-anchor="middle" x="1704.88" y="-449.08" font-family="Times,serif" font-size="32.00">Mary</text>
<text text-anchor="middle" x="1704.88" y="-414.08" font-family="Times,serif" font-size="32.00">d &#45;k</text>
</g>
<!-- 10 -->
<g id="node19" class="node">
<title>10</title>
<ellipse fill="none" stroke="black" cx="1413.94" cy="-579.68" rx="33.88" ry="30.31"/>
<text text-anchor="middle" x="1413.94" y="-571.58" font-family="Times,serif" font-size="32.00">10</text>
</g>
<!-- d&#45;&gt;10 -->
<g id="edge32" class="edge">
<title>d&#45;&gt;10</title>
<path fill="none" stroke="#000000" d="M1602.7,-422.43C1565.97,-453.18 1490.29,-516.58 1447.07,-552.78"/>
<polygon fill="#000000" stroke="#000000" points="1444.81,-550.1 1439.39,-559.21 1449.3,-555.47 1444.81,-550.1"/>
<text text-anchor="middle" x="1522.88" y="-578.08" font-family="Times,serif" font-size="32.00">hug</text>
<text text-anchor="middle" x="1522.88" y="-543.08" font-family="Times,serif" font-size="32.00">=d *k 10</text>
</g>
<!-- 11 -->
<g id="node20" class="node">
<title>11</title>
<ellipse fill="none" stroke="black" cx="1413.94" cy="-260.68" rx="33.88" ry="30.31"/>
<text text-anchor="middle" x="1413.94" y="-252.58" font-family="Times,serif" font-size="32.00">11</text>
</g>
<!-- d&#45;&gt;11 -->
<g id="edge38" class="edge">
<title>d&#45;&gt;11</title>
<path fill="none" stroke="#000000" d="M1605.28,-382.86C1597.83,-374.77 1588.88,-365.84 1579.88,-358.68 1539.73,-326.75 1488.19,-297.77 1453.5,-279.75"/>
<polygon fill="#000000" stroke="#000000" points="1454.68,-276.42 1444.18,-274.96 1451.48,-282.64 1454.68,-276.42"/>
<text text-anchor="middle" x="1522.88" y="-403.08" font-family="Times,serif" font-size="32.00">praise</text>
<text text-anchor="middle" x="1522.88" y="-368.08" font-family="Times,serif" font-size="32.00">=d *k 11</text>
</g>
<!-- 0 -->
<g id="node4" class="node">
<title>0</title>
<ellipse fill="none" stroke="black" cx="229" cy="-725.68" rx="27" ry="30.31"/>
<text text-anchor="middle" x="229" y="-717.58" font-family="Times,serif" font-size="32.00">0</text>
</g>
<!-- 0&#45;&gt;t -->
<g id="edge2" class="edge">
<title>0&#45;&gt;t</title>
<path fill="none" stroke="#000000" d="M202.21,-720C170.24,-714.25 114.75,-708.53 72,-726.68 64.5,-729.87 57.64,-735.01 51.68,-740.7"/>
<polygon fill="#000000" stroke="#000000" points="49,-738.45 44.64,-748.1 54.07,-743.27 49,-738.45"/>
<text text-anchor="middle" x="128" y="-771.08" font-family="Times,serif" font-size="32.00">s</text>
<text text-anchor="middle" x="128" y="-736.08" font-family="Times,serif" font-size="32.00">=&gt;0 +k t</text>
</g>
<!-- v -->
<g id="node5" class="node">
<title>v</title>
<ellipse fill="none" stroke="black" cx="401" cy="-1004.68" rx="27" ry="30.31"/>
<text text-anchor="middle" x="401" y="-996.58" font-family="Times,serif" font-size="32.00">v</text>
</g>
<!-- v&#45;&gt;0 -->
<g id="edge3" class="edge">
<title>v&#45;&gt;0</title>
<path fill="none" stroke="#000000" d="M393.85,-975.22C387.82,-953.66 376.46,-925.37 356,-908.68 327.01,-885.03 299.57,-916.99 274,-889.68 240.14,-853.53 270.9,-826.93 256,-779.68 254.01,-773.37 251.4,-766.85 248.6,-760.63"/>
<polygon fill="#000000" stroke="#000000" points="251.56,-758.7 244.12,-751.16 245.24,-761.7 251.56,-758.7"/>
<text text-anchor="middle" x="315" y="-953.08" font-family="Times,serif" font-size="32.00">will</text>
<text text-anchor="middle" x="315" y="-918.08" font-family="Times,serif" font-size="32.00">=v 0</text>
</g>
<!-- 1 -->
<g id="node6" class="node">
<title>1</title>
<ellipse fill="none" stroke="black" cx="229" cy="-818.68" rx="27" ry="30.31"/>
<text text-anchor="middle" x="229" y="-810.58" font-family="Times,serif" font-size="32.00">1</text>
</g>
<!-- v&#45;&gt;1 -->
<g id="edge5" class="edge">
<title>v&#45;&gt;1</title>
<path fill="none" stroke="#000000" d="M374.06,-1007.68C345.84,-1009.41 301.12,-1007.48 274,-982.68 255.87,-966.11 242.7,-901.62 235.72,-858.62"/>
<polygon fill="#000000" stroke="#000000" points="239.17,-858.06 234.15,-848.73 232.26,-859.15 239.17,-858.06"/>
<text text-anchor="middle" x="315" y="-1053.08" font-family="Times,serif" font-size="32.00">will_1</text>
<text text-anchor="middle" x="315" y="-1018.08" font-family="Times,serif" font-size="32.00">=v 1</text>
</g>
<!-- 1&#45;&gt;t -->
<g id="edge4" class="edge">
<title>1&#45;&gt;t</title>
<path fill="none" stroke="#000000" d="M201.91,-817.98C170.36,-816.46 116.01,-811.68 72,-796.68 67.88,-795.28 63.71,-793.48 59.67,-791.5"/>
<polygon fill="#000000" stroke="#000000" points="60.99,-788.24 50.52,-786.63 57.7,-794.42 60.99,-788.24"/>
<text text-anchor="middle" x="128" y="-862.08" font-family="Times,serif" font-size="32.00">d</text>
<text text-anchor="middle" x="128" y="-827.08" font-family="Times,serif" font-size="32.00">=&gt;1 +k t</text>
</g>
<!-- 2 -->
<g id="node7" class="node">
<title>2</title>
<ellipse fill="none" stroke="black" cx="401" cy="-725.68" rx="27" ry="30.31"/>
<text text-anchor="middle" x="401" y="-717.58" font-family="Times,serif" font-size="32.00">2</text>
</g>
<!-- 2&#45;&gt;0 -->
<g id="edge6" class="edge">
<title>2&#45;&gt;0</title>
<path fill="none" stroke="#000000" d="M373.81,-725.68C345.11,-725.68 298.86,-725.68 266.58,-725.68"/>
<polygon fill="#000000" stroke="#000000" points="266.22,-722.18 256.22,-725.68 266.22,-729.18 266.22,-722.18"/>
<text text-anchor="middle" x="315" y="-770.08" font-family="Times,serif" font-size="32.00">e</text>
<text text-anchor="middle" x="315" y="-735.08" font-family="Times,serif" font-size="32.00">=&gt;2 0</text>
</g>
<!-- perf -->
<g id="node8" class="node">
<title>perf</title>
<ellipse fill="none" stroke="black" cx="617" cy="-839.68" rx="48.17" ry="30.31"/>
<text text-anchor="middle" x="617" y="-831.58" font-family="Times,serif" font-size="32.00">perf</text>
</g>
<!-- perf&#45;&gt;v -->
<g id="edge10" class="edge">
<title>perf&#45;&gt;v</title>
<path fill="none" stroke="#000000" d="M583.25,-861.61C569.91,-870.44 554.29,-880.66 540,-889.68 498.7,-915.78 482.3,-913.97 446,-946.68 437.75,-954.12 429.97,-963.29 423.32,-972.12"/>
<polygon fill="#000000" stroke="#000000" points="420.34,-970.27 417.31,-980.42 426.01,-974.38 420.34,-970.27"/>
<text text-anchor="middle" x="493" y="-991.08" font-family="Times,serif" font-size="32.00">have</text>
<text text-anchor="middle" x="493" y="-956.08" font-family="Times,serif" font-size="32.00">=perf v</text>
</g>
<!-- perf&#45;&gt;2 -->
<g id="edge7" class="edge">
<title>perf&#45;&gt;2</title>
<path fill="none" stroke="#000000" d="M594.33,-812.78C583.36,-799.06 569.87,-782.06 558,-766.68 549.85,-756.13 551.54,-749.36 540,-742.68 509.02,-724.74 467.63,-721.88 438.28,-722.65"/>
<polygon fill="#000000" stroke="#000000" points="437.9,-719.16 428.05,-723.08 438.19,-726.16 437.9,-719.16"/>
<text text-anchor="middle" x="493" y="-787.08" font-family="Times,serif" font-size="32.00">hav</text>
<text text-anchor="middle" x="493" y="-752.08" font-family="Times,serif" font-size="32.00">=perf 2</text>
</g>
<!-- 3 -->
<g id="node9" class="node">
<title>3</title>
<ellipse fill="none" stroke="black" cx="401" cy="-818.68" rx="27" ry="30.31"/>
<text text-anchor="middle" x="401" y="-810.58" font-family="Times,serif" font-size="32.00">3</text>
</g>
<!-- perf&#45;&gt;3 -->
<g id="edge9" class="edge">
<title>perf&#45;&gt;3</title>
<path fill="none" stroke="#000000" d="M573.37,-826.47C562.59,-823.68 550.95,-821.14 540,-819.68 505.67,-815.11 466.12,-815.39 438.18,-816.49"/>
<polygon fill="#000000" stroke="#000000" points="437.91,-813 428.08,-816.94 438.23,-819.99 437.91,-813"/>
<text text-anchor="middle" x="493" y="-864.08" font-family="Times,serif" font-size="32.00">hav_1</text>
<text text-anchor="middle" x="493" y="-829.08" font-family="Times,serif" font-size="32.00">=perf 3</text>
</g>
<!-- 3&#45;&gt;1 -->
<g id="edge8" class="edge">
<title>3&#45;&gt;1</title>
<path fill="none" stroke="#000000" d="M373.81,-818.68C345.11,-818.68 298.86,-818.68 266.58,-818.68"/>
<polygon fill="#000000" stroke="#000000" points="266.22,-815.18 256.22,-818.68 266.22,-822.18 266.22,-815.18"/>
<text text-anchor="middle" x="315" y="-863.08" font-family="Times,serif" font-size="32.00">e_1</text>
<text text-anchor="middle" x="315" y="-828.08" font-family="Times,serif" font-size="32.00">=&gt;3 1</text>
</g>
<!-- prog -->
<g id="node10" class="node">
<title>prog</title>
<ellipse fill="none" stroke="black" cx="925" cy="-881.68" rx="52.15" ry="30.31"/>
<text text-anchor="middle" x="925" y="-873.58" font-family="Times,serif" font-size="32.00">prog</text>
</g>
<!-- prog&#45;&gt;v -->
<g id="edge13" class="edge">
<title>prog&#45;&gt;v</title>
<path fill="none" stroke="#000000" d="M891.12,-905.03C845.44,-935.88 759,-988.67 676,-1008.68 592.54,-1028.81 490.58,-1018.57 437.68,-1010.78"/>
<polygon fill="#000000" stroke="#000000" points="438.19,-1007.32 427.78,-1009.26 437.13,-1014.23 438.19,-1007.32"/>
<text text-anchor="middle" x="617" y="-1065.08" font-family="Times,serif" font-size="32.00">be</text>
<text text-anchor="middle" x="617" y="-1030.08" font-family="Times,serif" font-size="32.00">=prog v</text>
</g>
<!-- prog&#45;&gt;2 -->
<g id="edge11" class="edge">
<title>prog&#45;&gt;2</title>
<path fill="none" stroke="#000000" d="M893.83,-856.86C849.3,-821.8 761.96,-758.93 676,-730.68 578.75,-698.73 548.04,-710.62 446,-718.68 443.44,-718.89 440.8,-719.15 438.14,-719.47"/>
<polygon fill="#000000" stroke="#000000" points="437.41,-716.03 427.98,-720.85 438.36,-722.97 437.41,-716.03"/>
<text text-anchor="middle" x="617" y="-775.08" font-family="Times,serif" font-size="32.00">b</text>
<text text-anchor="middle" x="617" y="-740.08" font-family="Times,serif" font-size="32.00">=prog 2</text>
</g>
<!-- prog&#45;&gt;perf -->
<g id="edge14" class="edge">
<title>prog&#45;&gt;perf</title>
<path fill="none" stroke="#000000" d="M886.3,-861.05C869.58,-853.01 849.34,-844.76 830,-840.68 778.16,-829.74 717.58,-830.79 674.49,-833.8"/>
<polygon fill="#000000" stroke="#000000" points="674.18,-830.31 664.47,-834.56 674.71,-837.29 674.18,-830.31"/>
<text text-anchor="middle" x="762" y="-885.08" font-family="Times,serif" font-size="32.00">ben</text>
<text text-anchor="middle" x="762" y="-850.08" font-family="Times,serif" font-size="32.00">=prog perf</text>
</g>
<!-- prog&#45;&gt;3 -->
<g id="edge12" class="edge">
<title>prog&#45;&gt;3</title>
<path fill="none" stroke="#000000" d="M879.99,-897.22C864.38,-902.21 846.57,-907.31 830,-910.68 770.46,-922.81 606.65,-902.27 558,-938.68 541.08,-951.34 557.54,-970.91 540,-982.68 505.31,-1005.97 479.15,-1008.11 446,-982.68 426.46,-967.69 413.68,-902.39 407.16,-858.85"/>
<polygon fill="#000000" stroke="#000000" points="410.61,-858.23 405.72,-848.84 403.68,-859.23 410.61,-858.23"/>
<text text-anchor="middle" x="617" y="-983.08" font-family="Times,serif" font-size="32.00">b_1</text>
<text text-anchor="middle" x="617" y="-948.08" font-family="Times,serif" font-size="32.00">=prog 3</text>
</g>
<!-- 4 -->
<g id="node11" class="node">
<title>4</title>
<ellipse fill="none" stroke="black" cx="1225" cy="-586.68" rx="27" ry="30.31"/>
<text text-anchor="middle" x="1225" y="-578.58" font-family="Times,serif" font-size="32.00">4</text>
</g>
<!-- 4&#45;&gt;0 -->
<g id="edge15" class="edge">
<title>4&#45;&gt;0</title>
<path fill="none" stroke="#000000" d="M1197.69,-586.68C1145.75,-586.68 1026.37,-586.68 926,-586.68 926,-586.68 926,-586.68 400,-586.68 333.44,-586.68 278.6,-651.33 250.45,-692.45"/>
<polygon fill="#000000" stroke="#000000" points="247.5,-690.57 244.86,-700.83 253.32,-694.46 247.5,-690.57"/>
<text text-anchor="middle" x="617" y="-631.08" font-family="Times,serif" font-size="32.00">ε_0</text>
<text text-anchor="middle" x="617" y="-596.08" font-family="Times,serif" font-size="32.00">=&gt;4 =d 0</text>
</g>
<!-- 5 -->
<g id="node12" class="node">
<title>5</title>
<ellipse fill="none" stroke="black" cx="1413.94" cy="-1473.68" rx="27" ry="30.31"/>
<text text-anchor="middle" x="1413.94" y="-1465.58" font-family="Times,serif" font-size="32.00">5</text>
</g>
<!-- 5&#45;&gt;1 -->
<g id="edge18" class="edge">
<title>5&#45;&gt;1</title>
<path fill="none" stroke="#000000" d="M1412.8,-1504.34C1410.83,-1541.83 1401.37,-1604.27 1362,-1636.68 1315.06,-1675.34 1286.81,-1651.68 1226,-1651.68 1226,-1651.68 1226,-1651.68 400,-1651.68 236.35,-1651.68 228.66,-1026.7 229.53,-859.44"/>
<polygon fill="#000000" stroke="#000000" points="233.03,-859.34 229.59,-849.32 226.03,-859.29 233.03,-859.34"/>
<text text-anchor="middle" x="762" y="-1696.08" font-family="Times,serif" font-size="32.00">ε_2</text>
<text text-anchor="middle" x="762" y="-1661.08" font-family="Times,serif" font-size="32.00">=&gt;5 =d 1</text>
</g>
<!-- 5&#45;&gt;4 -->
<g id="edge16" class="edge">
<title>5&#45;&gt;4</title>
<path fill="none" stroke="#000000" d="M1411.96,-1443.26C1409.18,-1402.95 1398.95,-1331.5 1362,-1284.68 1333.17,-1248.15 1294.7,-1274.13 1270,-1234.68 1246.86,-1197.73 1255.2,-886.17 1252,-842.68 1246.38,-766.36 1236.64,-677.54 1230.81,-627.13"/>
<polygon fill="#000000" stroke="#000000" points="1234.26,-626.51 1229.63,-616.98 1227.3,-627.32 1234.26,-626.51"/>
<text text-anchor="middle" x="1316" y="-1329.08" font-family="Times,serif" font-size="32.00">ε_1</text>
<text text-anchor="middle" x="1316" y="-1294.08" font-family="Times,serif" font-size="32.00">=&gt;5 4</text>
</g>
<!-- 6 -->
<g id="node14" class="node">
<title>6</title>
<ellipse fill="none" stroke="black" cx="1225" cy="-1153.68" rx="27" ry="30.31"/>
<text text-anchor="middle" x="1225" y="-1145.58" font-family="Times,serif" font-size="32.00">6</text>
</g>
<!-- 5&#45;&gt;6 -->
<g id="edge20" class="edge">
<title>5&#45;&gt;6</title>
<path fill="none" stroke="#000000" d="M1401.39,-1500.72C1393,-1516.66 1379.95,-1535.47 1362,-1544.68 1325.62,-1563.35 1300.49,-1571.93 1270,-1544.68 1244.17,-1521.59 1231.64,-1289.5 1227.56,-1194.2"/>
<polygon fill="#000000" stroke="#000000" points="1231.05,-1193.92 1227.14,-1184.08 1224.06,-1194.21 1231.05,-1193.92"/>
<text text-anchor="middle" x="1316" y="-1607.08" font-family="Times,serif" font-size="32.00">ε_4</text>
<text text-anchor="middle" x="1316" y="-1572.08" font-family="Times,serif" font-size="32.00">=&gt;5 6</text>
</g>
<!-- 7 -->
<g id="node15" class="node">
<title>7</title>
<ellipse fill="none" stroke="black" cx="1225" cy="-881.68" rx="27" ry="30.31"/>
<text text-anchor="middle" x="1225" y="-873.58" font-family="Times,serif" font-size="32.00">7</text>
</g>
<!-- 5&#45;&gt;7 -->
<g id="edge22" class="edge">
<title>5&#45;&gt;7</title>
<path fill="none" stroke="#000000" d="M1405.02,-1444.89C1397.51,-1423.11 1384.04,-1394.21 1362,-1377.68 1328.59,-1352.64 1297.21,-1390.35 1270,-1358.68 1245.2,-1329.82 1256.61,-1054.45 1252,-1016.68 1248.03,-984.12 1240.83,-947.61 1235.01,-920.78"/>
<polygon fill="#000000" stroke="#000000" points="1238.42,-920.01 1232.86,-910.99 1231.59,-921.51 1238.42,-920.01"/>
<text text-anchor="middle" x="1316" y="-1422.08" font-family="Times,serif" font-size="32.00">ε_5</text>
<text text-anchor="middle" x="1316" y="-1387.08" font-family="Times,serif" font-size="32.00">=&gt;5 7</text>
</g>
<!-- 8 -->
<g id="node16" class="node">
<title>8</title>
<ellipse fill="none" stroke="black" cx="1225" cy="-1055.68" rx="27" ry="30.31"/>
<text text-anchor="middle" x="1225" y="-1047.58" font-family="Times,serif" font-size="32.00">8</text>
</g>
<!-- 5&#45;&gt;8 -->
<g id="edge24" class="edge">
<title>5&#45;&gt;8</title>
<path fill="none" stroke="#f7931d" stroke-width="2" d="M1386.9,-1471.44C1347.82,-1467.82 1277.73,-1460.22 1270,-1451.68 1244.83,-1423.88 1260.7,-1151.16 1252,-1114.68 1250.08,-1106.63 1247.1,-1098.31 1243.83,-1090.55"/>
<polygon fill="#f7931d" stroke="#f7931d" stroke-width="2" points="1247.03,-1089.11 1239.76,-1081.41 1240.63,-1091.96 1247.03,-1089.11"/>
<text text-anchor="middle" x="1316" y="-1514.08" font-family="Times,serif" font-size="32.00">ε_6</text>
<text text-anchor="middle" x="1316" y="-1479.08" font-family="Times,serif" font-size="32.00">=&gt;5 8</text>
</g>
<!-- z1 -->
<g id="node13" class="node">
<title>z1</title>
<ellipse fill="none" stroke="black" stroke-dasharray="5,2" cx="1624.88" cy="-1473.68" rx="27" ry="18"/>
</g>
<!-- z1&#45;&gt;5 -->
<g id="edge17" class="edge">
<title>z1&#45;&gt;5</title>
<path fill="none" stroke="#000000" d="M1597.84,-1473.68C1560.83,-1473.68 1492.87,-1473.68 1451.02,-1473.68"/>
<polygon fill="#000000" stroke="#000000" points="1450.98,-1470.18 1440.98,-1473.68 1450.98,-1477.18 1450.98,-1470.18"/>
<text text-anchor="middle" x="1522.88" y="-1518.08" font-family="Times,serif" font-size="32.00">laugh</text>
<text text-anchor="middle" x="1522.88" y="-1483.08" font-family="Times,serif" font-size="32.00">5</text>
</g>
<!-- 6&#45;&gt;v -->
<g id="edge19" class="edge">
<title>6&#45;&gt;v</title>
<path fill="none" stroke="#000000" d="M1197.83,-1155.3C1106.9,-1160.12 797.25,-1169.68 558,-1094.68 510.75,-1079.87 462.26,-1048.94 432.15,-1027.51"/>
<polygon fill="#000000" stroke="#000000" points="433.94,-1024.48 423.78,-1021.46 429.84,-1030.16 433.94,-1024.48"/>
<text text-anchor="middle" x="762" y="-1191.08" font-family="Times,serif" font-size="32.00">ε_3</text>
<text text-anchor="middle" x="762" y="-1156.08" font-family="Times,serif" font-size="32.00">=&gt;6 =d v</text>
</g>
<!-- 7&#45;&gt;prog -->
<g id="edge21" class="edge">
<title>7&#45;&gt;prog</title>
<path fill="none" stroke="#000000" d="M1197.82,-881.68C1151.1,-881.68 1052.24,-881.68 987.5,-881.68"/>
<polygon fill="#000000" stroke="#000000" points="987.42,-878.18 977.42,-881.68 987.42,-885.18 987.42,-878.18"/>
<text text-anchor="middle" x="1100" y="-926.08" font-family="Times,serif" font-size="32.00">ing</text>
<text text-anchor="middle" x="1100" y="-891.08" font-family="Times,serif" font-size="32.00">=&gt;7 =d prog</text>
</g>
<!-- 8&#45;&gt;perf -->
<g id="edge23" class="edge">
<title>8&#45;&gt;perf</title>
<path fill="none" stroke="#f7931d" stroke-width="2" d="M1197.94,-1053.5C1117.71,-1045.82 869.23,-1014.87 694,-914.68 676.08,-904.43 659.36,-888.91 646.2,-874.64"/>
<polygon fill="#f7931d" stroke="#f7931d" stroke-width="2" points="648.54,-872 639.27,-866.88 643.32,-876.67 648.54,-872"/>
<text text-anchor="middle" x="925" y="-1066.08" font-family="Times,serif" font-size="32.00">n</text>
<text text-anchor="middle" x="925" y="-1031.08" font-family="Times,serif" font-size="32.00">=&gt;8 =d perf</text>
</g>
<!-- 9 -->
<g id="node17" class="node">
<title>9</title>
<ellipse fill="none" stroke="black" cx="1413.94" cy="-1076.68" rx="27" ry="30.31"/>
<text text-anchor="middle" x="1413.94" y="-1068.58" font-family="Times,serif" font-size="32.00">9</text>
</g>
<!-- 9&#45;&gt;1 -->
<g id="edge27" class="edge">
<title>9&#45;&gt;1</title>
<path fill="none" stroke="#000000" d="M1412.24,-1107.16C1409.65,-1143.39 1399.51,-1202.93 1362,-1234.68 1315.37,-1274.16 1287.09,-1254.68 1226,-1254.68 1226,-1254.68 1226,-1254.68 400,-1254.68 305.24,-1254.68 310.79,-1170.01 274,-1082.68 242.54,-1008.01 233.53,-912.58 230.97,-859.31"/>
<polygon fill="#000000" stroke="#000000" points="234.47,-859.08 230.54,-849.24 227.47,-859.38 234.47,-859.08"/>
<text text-anchor="middle" x="762" y="-1299.08" font-family="Times,serif" font-size="32.00">ε_8</text>
<text text-anchor="middle" x="762" y="-1264.08" font-family="Times,serif" font-size="32.00">=&gt;9 =d 1</text>
</g>
<!-- 9&#45;&gt;4 -->
<g id="edge25" class="edge">
<title>9&#45;&gt;4</title>
<path fill="none" stroke="#000000" d="M1413.89,-1045.94C1413.42,-1003.91 1405.91,-929.05 1362,-887.68 1331.61,-859.05 1298.79,-898.92 1270,-868.68 1237.66,-834.72 1229.09,-696.81 1226.82,-627.24"/>
<polygon fill="#000000" stroke="#000000" points="1230.31,-626.98 1226.52,-617.09 1223.32,-627.19 1230.31,-626.98"/>
<text text-anchor="middle" x="1316" y="-932.08" font-family="Times,serif" font-size="32.00">ε_7</text>
<text text-anchor="middle" x="1316" y="-897.08" font-family="Times,serif" font-size="32.00">=&gt;9 4</text>
</g>
<!-- 9&#45;&gt;6 -->
<g id="edge28" class="edge">
<title>9&#45;&gt;6</title>
<path fill="none" stroke="#000000" d="M1400.32,-1103.24C1391.73,-1118.15 1378.86,-1135.54 1362,-1144.68 1331.25,-1161.36 1290.66,-1161.78 1261.85,-1159.15"/>
<polygon fill="#000000" stroke="#000000" points="1262.12,-1155.66 1251.81,-1158.07 1261.37,-1162.62 1262.12,-1155.66"/>
<text text-anchor="middle" x="1316" y="-1205.08" font-family="Times,serif" font-size="32.00">ε_9</text>
<text text-anchor="middle" x="1316" y="-1170.08" font-family="Times,serif" font-size="32.00">=&gt;9 6</text>
</g>
<!-- 9&#45;&gt;7 -->
<g id="edge29" class="edge">
<title>9&#45;&gt;7</title>
<path fill="none" stroke="#000000" d="M1403.31,-1048.29C1395.23,-1028.57 1381.78,-1003.14 1362,-987.68 1328.52,-961.52 1303.26,-988.12 1270,-961.68 1256.46,-950.92 1246.47,-934.8 1239.46,-919.85"/>
<polygon fill="#000000" stroke="#000000" points="1242.49,-918.02 1235.28,-910.25 1236.07,-920.82 1242.49,-918.02"/>
<text text-anchor="middle" x="1316" y="-1032.08" font-family="Times,serif" font-size="32.00">ε_10</text>
<text text-anchor="middle" x="1316" y="-997.08" font-family="Times,serif" font-size="32.00">=&gt;9 7</text>
</g>
<!-- 9&#45;&gt;8 -->
<g id="edge30" class="edge">
<title>9&#45;&gt;8</title>
<path fill="none" stroke="#f7931d" stroke-width="2" d="M1386.95,-1073.76C1354.53,-1070.12 1298.93,-1063.88 1262.32,-1059.76"/>
<polygon fill="#f7931d" stroke="#f7931d" stroke-width="2" points="1262.4,-1056.25 1252.07,-1058.61 1261.62,-1063.21 1262.4,-1056.25"/>
<text text-anchor="middle" x="1316" y="-1115.08" font-family="Times,serif" font-size="32.00">ε_11</text>
<text text-anchor="middle" x="1316" y="-1080.08" font-family="Times,serif" font-size="32.00">=&gt;9 8</text>
</g>
<!-- z2 -->
<g id="node18" class="node">
<title>z2</title>
<ellipse fill="none" stroke="black" stroke-dasharray="5,2" cx="1624.88" cy="-1076.68" rx="27" ry="18"/>
</g>
<!-- z2&#45;&gt;9 -->
<g id="edge26" class="edge">
<title>z2&#45;&gt;9</title>
<path fill="none" stroke="#000000" d="M1597.84,-1076.68C1560.83,-1076.68 1492.87,-1076.68 1451.02,-1076.68"/>
<polygon fill="#000000" stroke="#000000" points="1450.98,-1073.18 1440.98,-1076.68 1450.98,-1080.18 1450.98,-1073.18"/>
<text text-anchor="middle" x="1522.88" y="-1121.08" font-family="Times,serif" font-size="32.00">dance</text>
<text text-anchor="middle" x="1522.88" y="-1086.08" font-family="Times,serif" font-size="32.00">9</text>
</g>
<!-- 10&#45;&gt;1 -->
<g id="edge33" class="edge">
<title>10&#45;&gt;1</title>
<path fill="none" stroke="#000000" d="M1401.51,-551.22C1393.16,-534.27 1380.11,-513.92 1362,-502.68 1310.24,-470.57 1286.91,-485.68 1226,-485.68 1226,-485.68 1226,-485.68 400,-485.68 281.1,-485.68 325.01,-614.28 274,-721.68 265.11,-740.4 264.5,-745.79 256,-764.68 253.31,-770.66 250.37,-776.97 247.47,-783.08"/>
<polygon fill="#000000" stroke="#000000" points="244.14,-781.91 242.97,-792.44 250.45,-784.94 244.14,-781.91"/>
<text text-anchor="middle" x="762" y="-530.08" font-family="Times,serif" font-size="32.00">ε_13</text>
<text text-anchor="middle" x="762" y="-495.08" font-family="Times,serif" font-size="32.00">=&gt;10 =d 1</text>
</g>
<!-- 10&#45;&gt;4 -->
<g id="edge31" class="edge">
<title>10&#45;&gt;4</title>
<path fill="none" stroke="#000000" d="M1397.69,-552.7C1389,-540.18 1376.88,-526.57 1362,-519.68 1324.89,-502.51 1305.98,-500.26 1270,-519.68 1257.7,-526.32 1248.28,-538.06 1241.38,-549.87"/>
<polygon fill="#000000" stroke="#000000" points="1238.21,-548.37 1236.58,-558.84 1244.38,-551.67 1238.21,-548.37"/>
<text text-anchor="middle" x="1316" y="-564.08" font-family="Times,serif" font-size="32.00">ε_12</text>
<text text-anchor="middle" x="1316" y="-529.08" font-family="Times,serif" font-size="32.00">=&gt;10 4</text>
</g>
<!-- 10&#45;&gt;6 -->
<g id="edge34" class="edge">
<title>10&#45;&gt;6</title>
<path fill="none" stroke="#000000" d="M1409.03,-609.79C1402.02,-658.89 1385.83,-753.03 1362,-775.68 1331.74,-804.45 1297.33,-763.12 1270,-794.68 1248.14,-819.93 1259.86,-1062.23 1252,-1094.68 1250.05,-1102.73 1247.06,-1111.05 1243.79,-1118.81"/>
<polygon fill="#000000" stroke="#000000" points="1240.59,-1117.39 1239.72,-1127.95 1246.99,-1120.24 1240.59,-1117.39"/>
<text text-anchor="middle" x="1316" y="-839.08" font-family="Times,serif" font-size="32.00">ε_14</text>
<text text-anchor="middle" x="1316" y="-804.08" font-family="Times,serif" font-size="32.00">=&gt;10 6</text>
</g>
<!-- 10&#45;&gt;7 -->
<g id="edge35" class="edge">
<title>10&#45;&gt;7</title>
<path fill="none" stroke="#000000" d="M1380.56,-586.21C1339.58,-594.61 1273.82,-608.61 1270,-612.68 1239.67,-645.05 1230.16,-774.27 1227.25,-841.13"/>
<polygon fill="#000000" stroke="#000000" points="1223.75,-841.17 1226.84,-851.3 1230.74,-841.45 1223.75,-841.17"/>
<text text-anchor="middle" x="1316" y="-657.08" font-family="Times,serif" font-size="32.00">ε_15</text>
<text text-anchor="middle" x="1316" y="-622.08" font-family="Times,serif" font-size="32.00">=&gt;10 7</text>
</g>
<!-- 10&#45;&gt;8 -->
<g id="edge36" class="edge">
<title>10&#45;&gt;8</title>
<path fill="none" stroke="#f7931d" stroke-width="2" d="M1405.67,-609.32C1398.42,-632.63 1384.99,-664.16 1362,-682.68 1329.18,-709.13 1297.3,-673.57 1270,-705.68 1254.47,-723.95 1255.27,-896.93 1252,-920.68 1247.52,-953.18 1240.36,-989.7 1234.68,-1016.55"/>
<polygon fill="#f7931d" stroke="#f7931d" stroke-width="2" points="1231.26,-1015.83 1232.59,-1026.34 1238.1,-1017.29 1231.26,-1015.83"/>
<text text-anchor="middle" x="1316" y="-750.08" font-family="Times,serif" font-size="32.00">ε_16</text>
<text text-anchor="middle" x="1316" y="-715.08" font-family="Times,serif" font-size="32.00">=&gt;10 8</text>
</g>
<!-- 11&#45;&gt;1 -->
<g id="edge39" class="edge">
<title>11&#45;&gt;1</title>
<path fill="none" stroke="#000000" d="M1412.49,-230.25C1410.16,-193.78 1400.3,-133.7 1362,-102.68 1314.78,-64.44 1286.76,-88.68 1226,-88.68 1226,-88.68 1226,-88.68 400,-88.68 212.34,-88.68 308.41,-307.2 274,-491.68 251.7,-611.22 286.94,-647.09 256,-764.68 254.26,-771.31 251.69,-778.1 248.84,-784.53"/>
<polygon fill="#000000" stroke="#000000" points="245.64,-783.1 244.52,-793.63 251.97,-786.1 245.64,-783.1"/>
<text text-anchor="middle" x="762" y="-133.08" font-family="Times,serif" font-size="32.00">ε_18</text>
<text text-anchor="middle" x="762" y="-98.08" font-family="Times,serif" font-size="32.00">=&gt;11 =d 1</text>
</g>
<!-- 11&#45;&gt;4 -->
<g id="edge37" class="edge">
<title>11&#45;&gt;4</title>
<path fill="none" stroke="#000000" d="M1411.34,-230.2C1407.81,-197.44 1396.68,-146.85 1362,-122.68 1328.45,-99.31 1300.25,-95.17 1270,-122.68 1238.97,-150.91 1229.34,-437.8 1226.8,-545.83"/>
<polygon fill="#000000" stroke="#000000" points="1223.3,-545.94 1226.57,-556.01 1230.3,-546.09 1223.3,-545.94"/>
<text text-anchor="middle" x="1316" y="-167.08" font-family="Times,serif" font-size="32.00">ε_17</text>
<text text-anchor="middle" x="1316" y="-132.08" font-family="Times,serif" font-size="32.00">=&gt;11 4</text>
</g>
<!-- 11&#45;&gt;6 -->
<g id="edge40" class="edge">
<title>11&#45;&gt;6</title>
<path fill="none" stroke="#000000" d="M1405.74,-290.45C1398.3,-316.19 1384.53,-353.18 1362,-378.68 1330.6,-414.21 1294.12,-391.86 1270,-432.68 1232.57,-496.04 1268.14,-1022.89 1252,-1094.68 1250.18,-1102.76 1247.25,-1111.09 1243.99,-1118.86"/>
<polygon fill="#000000" stroke="#000000" points="1240.79,-1117.44 1239.91,-1128 1247.18,-1120.29 1240.79,-1117.44"/>
<text text-anchor="middle" x="1316" y="-477.08" font-family="Times,serif" font-size="32.00">ε_19</text>
<text text-anchor="middle" x="1316" y="-442.08" font-family="Times,serif" font-size="32.00">=&gt;11 6</text>
</g>
<!-- 11&#45;&gt;7 -->
<g id="edge41" class="edge">
<title>11&#45;&gt;7</title>
<path fill="none" stroke="#000000" d="M1392.53,-236.52C1384.04,-228.27 1373.48,-220.03 1362,-215.68 1323.76,-201.21 1299.54,-187.41 1270,-215.68 1253.53,-231.45 1253.65,-602.94 1252,-625.68 1246.45,-702.01 1236.69,-790.83 1230.83,-841.23"/>
<polygon fill="#000000" stroke="#000000" points="1227.33,-841.05 1229.65,-851.39 1234.28,-841.86 1227.33,-841.05"/>
<text text-anchor="middle" x="1316" y="-260.08" font-family="Times,serif" font-size="32.00">ε_20</text>
<text text-anchor="middle" x="1316" y="-225.08" font-family="Times,serif" font-size="32.00">=&gt;11 7</text>
</g>
<!-- 11&#45;&gt;8 -->
<g id="edge42" class="edge">
<title>11&#45;&gt;8</title>
<path fill="none" stroke="#f7931d" stroke-width="2" d="M1384.31,-276.05C1377.15,-279.52 1369.4,-282.98 1362,-285.68 1322.42,-300.16 1296.42,-275.85 1270,-308.68 1248.68,-335.18 1255.73,-886.87 1252,-920.68 1248.4,-953.29 1241.18,-989.8 1235.25,-1016.62"/>
<polygon fill="#f7931d" stroke="#f7931d" stroke-width="2" points="1231.83,-1015.87 1233.05,-1026.39 1238.66,-1017.41 1231.83,-1015.87"/>
<text text-anchor="middle" x="1316" y="-353.08" font-family="Times,serif" font-size="32.00">ε_21</text>
<text text-anchor="middle" x="1316" y="-318.08" font-family="Times,serif" font-size="32.00">=&gt;11 8</text>
</g>
</g>
</svg>
