<?xml version="1.0" encoding="UTF-8" standalone="no"?>
<!DOCTYPE svg PUBLIC "-//W3C//DTD SVG 1.1//EN"
 "http://www.w3.org/Graphics/SVG/1.1/DTD/svg11.dtd">
<!-- Generated by graphviz version 2.47.1 (20210417.1919)
 -->
<!-- Title: G Pages: 1 -->
<svg width="1881pt" height="1393pt"
 viewBox="0.00 0.00 1880.65 1393.43" xmlns="http://www.w3.org/2000/svg" xmlns:xlink="http://www.w3.org/1999/xlink">
<g id="graph0" class="graph" transform="scale(1 1) rotate(0) translate(4 1389.43)">
<title>G</title>
<polygon fill="white" stroke="transparent" points="-4,4 -4,-1389.43 1876.65,-1389.43 1876.65,4 -4,4"/>
<text text-anchor="middle" x="936.33" y="-13.4" font-family="Times,serif" font-size="32.00">single contraction: 12 → 8</text>
<!-- t -->
<g id="node1" class="node">
<title>t</title>
<ellipse fill="lightgray" stroke="black" cx="27" cy="-632.43" rx="27" ry="30.31"/>
<text text-anchor="middle" x="27" y="-624.33" font-family="Times,serif" font-size="32.00">t</text>
</g>
<!-- z0 -->
<g id="node2" class="node">
<title>z0</title>
<ellipse fill="none" stroke="black" stroke-dasharray="5,2" cx="1845.65" cy="-735.43" rx="27" ry="18"/>
</g>
<!-- d -->
<g id="node3" class="node">
<title>d</title>
<ellipse fill="none" stroke="black" cx="1685.65" cy="-735.43" rx="27" ry="30.31"/>
<text text-anchor="middle" x="1685.65" y="-727.33" font-family="Times,serif" font-size="32.00">d</text>
</g>
<!-- z0&#45;&gt;d -->
<g id="edge1" class="edge">
<title>z0&#45;&gt;d</title>
<path fill="none" stroke="#000000" d="M1818.56,-735.43C1792.49,-735.43 1752.19,-735.43 1722.99,-735.43"/>
<polygon fill="#000000" stroke="#000000" points="1722.78,-731.93 1712.78,-735.43 1722.78,-738.93 1722.78,-731.93"/>
<text text-anchor="middle" x="1765.65" y="-779.83" font-family="Times,serif" font-size="32.00">Mary</text>
<text text-anchor="middle" x="1765.65" y="-744.83" font-family="Times,serif" font-size="32.00">d &#45;k</text>
</g>
<!-- 8 -->
<g id="node16" class="node">
<title>8</title>
<ellipse fill="none" stroke="black" cx="1236.65" cy="-847.43" rx="27" ry="30.31"/>
<text text-anchor="middle" x="1236.65" y="-839.33" font-family="Times,serif" font-size="32.00">8</text>
</g>
<!-- d&#45;&gt;8 -->
<g id="edge39" class="edge">
<title>d&#45;&gt;8</title>
<path fill="none" stroke="#000000" d="M1669.83,-760.37C1662.39,-770.71 1652.43,-781.81 1640.65,-788.43 1519.89,-856.24 1348.01,-854.82 1273.92,-850.41"/>
<polygon fill="#000000" stroke="#000000" points="1273.93,-846.91 1263.72,-849.75 1273.47,-853.89 1273.93,-846.91"/>
<text text-anchor="middle" x="1459.65" y="-892.83" font-family="Times,serif" font-size="32.00">praise</text>
<text text-anchor="middle" x="1459.65" y="-857.83" font-family="Times,serif" font-size="32.00">=d *k 8</text>
</g>
<!-- 11 -->
<g id="node20" class="node">
<title>11</title>
<ellipse fill="none" stroke="black" cx="1459.65" cy="-639.43" rx="33.88" ry="30.31"/>
<text text-anchor="middle" x="1459.65" y="-631.33" font-family="Times,serif" font-size="32.00">11</text>
</g>
<!-- d&#45;&gt;11 -->
<g id="edge33" class="edge">
<title>d&#45;&gt;11</title>
<path fill="none" stroke="#000000" d="M1660.25,-724.97C1621.72,-708.46 1546.41,-676.18 1500.11,-656.34"/>
<polygon fill="#000000" stroke="#000000" points="1501.27,-653.03 1490.7,-652.3 1498.51,-659.46 1501.27,-653.03"/>
<text text-anchor="middle" x="1583.65" y="-758.83" font-family="Times,serif" font-size="32.00">hug</text>
<text text-anchor="middle" x="1583.65" y="-723.83" font-family="Times,serif" font-size="32.00">=d *k 11</text>
</g>
<!-- 0 -->
<g id="node4" class="node">
<title>0</title>
<ellipse fill="none" stroke="black" cx="229" cy="-760.43" rx="27" ry="30.31"/>
<text text-anchor="middle" x="229" y="-752.33" font-family="Times,serif" font-size="32.00">0</text>
</g>
<!-- 0&#45;&gt;t -->
<g id="edge2" class="edge">
<title>0&#45;&gt;t</title>
<path fill="none" stroke="#000000" d="M203.2,-750.94C171.05,-737.95 114.12,-712.53 72,-680.43 65.3,-675.32 58.77,-669.12 52.88,-662.89"/>
<polygon fill="#000000" stroke="#000000" points="55.11,-660.13 45.8,-655.07 49.92,-664.83 55.11,-660.13"/>
<text text-anchor="middle" x="128" y="-784.83" font-family="Times,serif" font-size="32.00">s</text>
<text text-anchor="middle" x="128" y="-749.83" font-family="Times,serif" font-size="32.00">=&gt;0 +k t</text>
</g>
<!-- v -->
<g id="node5" class="node">
<title>v</title>
<ellipse fill="none" stroke="black" cx="401" cy="-667.43" rx="27" ry="30.31"/>
<text text-anchor="middle" x="401" y="-659.33" font-family="Times,serif" font-size="32.00">v</text>
</g>
<!-- v&#45;&gt;0 -->
<g id="edge3" class="edge">
<title>v&#45;&gt;0</title>
<path fill="none" stroke="#000000" d="M376.87,-682.22C370.31,-685.96 363.04,-689.68 356,-692.43 321.15,-706.03 306.21,-692.4 274,-711.43 266.29,-715.98 259.17,-722.34 253.02,-728.96"/>
<polygon fill="#000000" stroke="#000000" points="250.15,-726.93 246.25,-736.78 255.44,-731.51 250.15,-726.93"/>
<text text-anchor="middle" x="315" y="-755.83" font-family="Times,serif" font-size="32.00">will</text>
<text text-anchor="middle" x="315" y="-720.83" font-family="Times,serif" font-size="32.00">=v 0</text>
</g>
<!-- 1 -->
<g id="node6" class="node">
<title>1</title>
<ellipse fill="none" stroke="black" cx="229" cy="-540.43" rx="27" ry="30.31"/>
<text text-anchor="middle" x="229" y="-532.33" font-family="Times,serif" font-size="32.00">1</text>
</g>
<!-- v&#45;&gt;1 -->
<g id="edge5" class="edge">
<title>v&#45;&gt;1</title>
<path fill="none" stroke="#000000" d="M383.75,-643.78C376.3,-634.59 366.73,-624.76 356,-618.43 323.79,-599.4 305.32,-619.89 274,-599.43 264.34,-593.11 256.01,-583.9 249.29,-574.64"/>
<polygon fill="#000000" stroke="#000000" points="252.07,-572.5 243.57,-566.19 246.28,-576.43 252.07,-572.5"/>
<text text-anchor="middle" x="315" y="-662.83" font-family="Times,serif" font-size="32.00">will_1</text>
<text text-anchor="middle" x="315" y="-627.83" font-family="Times,serif" font-size="32.00">=v 1</text>
</g>
<!-- 1&#45;&gt;t -->
<g id="edge4" class="edge">
<title>1&#45;&gt;t</title>
<path fill="none" stroke="#000000" d="M203.54,-551.03C172.7,-564.47 118.14,-588.55 72,-610.43 68.45,-612.11 64.77,-613.89 61.1,-615.69"/>
<polygon fill="#000000" stroke="#000000" points="59.53,-612.56 52.12,-620.14 62.63,-618.84 59.53,-612.56"/>
<text text-anchor="middle" x="128" y="-654.83" font-family="Times,serif" font-size="32.00">d</text>
<text text-anchor="middle" x="128" y="-619.83" font-family="Times,serif" font-size="32.00">=&gt;1 +k t</text>
</g>
<!-- 2 -->
<g id="node7" class="node">
<title>2</title>
<ellipse fill="none" stroke="black" cx="401" cy="-807.43" rx="27" ry="30.31"/>
<text text-anchor="middle" x="401" y="-799.33" font-family="Times,serif" font-size="32.00">2</text>
</g>
<!-- 2&#45;&gt;0 -->
<g id="edge6" class="edge">
<title>2&#45;&gt;0</title>
<path fill="none" stroke="#000000" d="M373.75,-805.48C347.79,-802.96 307.23,-797.36 274,-785.43 270,-783.99 265.94,-782.2 261.99,-780.25"/>
<polygon fill="#000000" stroke="#000000" points="263.5,-777.09 253.03,-775.48 260.21,-783.27 263.5,-777.09"/>
<text text-anchor="middle" x="315" y="-846.83" font-family="Times,serif" font-size="32.00">e</text>
<text text-anchor="middle" x="315" y="-811.83" font-family="Times,serif" font-size="32.00">=&gt;2 0</text>
</g>
<!-- perf -->
<g id="node8" class="node">
<title>perf</title>
<ellipse fill="none" stroke="black" cx="641" cy="-667.43" rx="48.17" ry="30.31"/>
<text text-anchor="middle" x="641" y="-659.33" font-family="Times,serif" font-size="32.00">perf</text>
</g>
<!-- perf&#45;&gt;v -->
<g id="edge10" class="edge">
<title>perf&#45;&gt;v</title>
<path fill="none" stroke="#000000" d="M592.69,-667.43C547.3,-667.43 479.72,-667.43 438.39,-667.43"/>
<polygon fill="#000000" stroke="#000000" points="438.22,-663.93 428.22,-667.43 438.22,-670.93 438.22,-663.93"/>
<text text-anchor="middle" x="505" y="-711.83" font-family="Times,serif" font-size="32.00">have</text>
<text text-anchor="middle" x="505" y="-676.83" font-family="Times,serif" font-size="32.00">=perf v</text>
</g>
<!-- perf&#45;&gt;2 -->
<g id="edge7" class="edge">
<title>perf&#45;&gt;2</title>
<path fill="none" stroke="#000000" d="M616.19,-693.81C602.07,-708.34 583.22,-725.92 564,-738.43 523.31,-764.91 470.75,-785.09 436.72,-796.6"/>
<polygon fill="#000000" stroke="#000000" points="435.6,-793.28 427.21,-799.75 437.8,-799.92 435.6,-793.28"/>
<text text-anchor="middle" x="505" y="-836.83" font-family="Times,serif" font-size="32.00">hav</text>
<text text-anchor="middle" x="505" y="-801.83" font-family="Times,serif" font-size="32.00">=perf 2</text>
</g>
<!-- 3 -->
<g id="node9" class="node">
<title>3</title>
<ellipse fill="none" stroke="black" cx="401" cy="-528.43" rx="27" ry="30.31"/>
<text text-anchor="middle" x="401" y="-520.33" font-family="Times,serif" font-size="32.00">3</text>
</g>
<!-- perf&#45;&gt;3 -->
<g id="edge9" class="edge">
<title>perf&#45;&gt;3</title>
<path fill="none" stroke="#000000" d="M611.46,-643.4C601.8,-634.87 591.16,-625.01 582,-615.43 573.27,-606.29 574.18,-600.9 564,-593.43 525.09,-564.86 471.89,-546.68 437.24,-537.02"/>
<polygon fill="#000000" stroke="#000000" points="438.12,-533.63 427.55,-534.4 436.3,-540.39 438.12,-533.63"/>
<text text-anchor="middle" x="505" y="-637.83" font-family="Times,serif" font-size="32.00">hav_1</text>
<text text-anchor="middle" x="505" y="-602.83" font-family="Times,serif" font-size="32.00">=perf 3</text>
</g>
<!-- 3&#45;&gt;1 -->
<g id="edge8" class="edge">
<title>3&#45;&gt;1</title>
<path fill="none" stroke="#000000" d="M373.82,-526.84C348.25,-525.71 308.29,-525.07 274,-529.43 271.14,-529.79 268.21,-530.27 265.27,-530.84"/>
<polygon fill="#000000" stroke="#000000" points="264.42,-527.44 255.4,-532.99 265.91,-534.28 264.42,-527.44"/>
<text text-anchor="middle" x="315" y="-573.83" font-family="Times,serif" font-size="32.00">e_1</text>
<text text-anchor="middle" x="315" y="-538.83" font-family="Times,serif" font-size="32.00">=&gt;3 1</text>
</g>
<!-- prog -->
<g id="node10" class="node">
<title>prog</title>
<ellipse fill="none" stroke="black" cx="942.33" cy="-845.43" rx="52.15" ry="30.31"/>
<text text-anchor="middle" x="942.33" y="-837.33" font-family="Times,serif" font-size="32.00">prog</text>
</g>
<!-- prog&#45;&gt;v -->
<g id="edge13" class="edge">
<title>prog&#45;&gt;v</title>
<path fill="none" stroke="#000000" d="M890,-845.61C766.79,-845.84 463.19,-845.01 446,-831.43 444.74,-830.43 424.73,-754.52 412.14,-706.34"/>
<polygon fill="#000000" stroke="#000000" points="415.49,-705.3 409.57,-696.51 408.71,-707.07 415.49,-705.3"/>
<text text-anchor="middle" x="641" y="-888.83" font-family="Times,serif" font-size="32.00">be</text>
<text text-anchor="middle" x="641" y="-853.83" font-family="Times,serif" font-size="32.00">=prog v</text>
</g>
<!-- prog&#45;&gt;2 -->
<g id="edge11" class="edge">
<title>prog&#45;&gt;2</title>
<path fill="none" stroke="#000000" d="M901.42,-864.48C835.08,-893.72 697.92,-943.86 582,-919.43 517.36,-905.8 498.91,-898.99 446,-859.43 438.28,-853.65 431.01,-846.28 424.7,-838.92"/>
<polygon fill="#000000" stroke="#000000" points="427.27,-836.54 418.24,-831.01 421.85,-840.97 427.27,-836.54"/>
<text text-anchor="middle" x="641" y="-969.83" font-family="Times,serif" font-size="32.00">b</text>
<text text-anchor="middle" x="641" y="-934.83" font-family="Times,serif" font-size="32.00">=prog 2</text>
</g>
<!-- prog&#45;&gt;perf -->
<g id="edge14" class="edge">
<title>prog&#45;&gt;perf</title>
<path fill="none" stroke="#000000" d="M925.2,-816.52C913.09,-797.67 894.72,-774.27 872,-761.43 811.76,-727.37 780.32,-768.52 718,-738.43 700.03,-729.75 683.41,-715.33 670.32,-701.74"/>
<polygon fill="#000000" stroke="#000000" points="672.8,-699.27 663.43,-694.32 667.67,-704.03 672.8,-699.27"/>
<text text-anchor="middle" x="795" y="-805.83" font-family="Times,serif" font-size="32.00">ben</text>
<text text-anchor="middle" x="795" y="-770.83" font-family="Times,serif" font-size="32.00">=prog perf</text>
</g>
<!-- prog&#45;&gt;3 -->
<g id="edge12" class="edge">
<title>prog&#45;&gt;3</title>
<path fill="none" stroke="#000000" d="M930.5,-815.49C913.05,-767.45 879.84,-677.1 872,-663.43 811.32,-557.56 810.04,-502.16 700,-449.43 608.14,-405.4 488.16,-470.5 432.64,-506.8"/>
<polygon fill="#000000" stroke="#000000" points="430.68,-503.9 424.3,-512.36 434.56,-509.73 430.68,-503.9"/>
<text text-anchor="middle" x="641" y="-493.83" font-family="Times,serif" font-size="32.00">b_1</text>
<text text-anchor="middle" x="641" y="-458.83" font-family="Times,serif" font-size="32.00">=prog 3</text>
</g>
<!-- 4 -->
<g id="node11" class="node">
<title>4</title>
<ellipse fill="none" stroke="black" cx="942.33" cy="-1049.43" rx="27" ry="30.31"/>
<text text-anchor="middle" x="942.33" y="-1041.33" font-family="Times,serif" font-size="32.00">4</text>
</g>
<!-- 4&#45;&gt;0 -->
<g id="edge15" class="edge">
<title>4&#45;&gt;0</title>
<path fill="none" stroke="#000000" d="M915.05,-1051.34C815.47,-1057.07 457.72,-1063.37 274,-876.43 253.7,-855.77 242.58,-824.81 236.61,-800.06"/>
<polygon fill="#000000" stroke="#000000" points="240.01,-799.24 234.42,-790.24 233.18,-800.76 240.01,-799.24"/>
<text text-anchor="middle" x="505" y="-1066.83" font-family="Times,serif" font-size="32.00">ε_0</text>
<text text-anchor="middle" x="505" y="-1031.83" font-family="Times,serif" font-size="32.00">=&gt;4 =d 0</text>
</g>
<!-- 5 -->
<g id="node12" class="node">
<title>5</title>
<ellipse fill="none" stroke="black" cx="1459.65" cy="-480.43" rx="27" ry="30.31"/>
<text text-anchor="middle" x="1459.65" y="-472.33" font-family="Times,serif" font-size="32.00">5</text>
</g>
<!-- 5&#45;&gt;4 -->
<g id="edge16" class="edge">
<title>5&#45;&gt;4</title>
<path fill="none" stroke="#000000" d="M1445.47,-506.86C1434.22,-530.69 1418.64,-567.04 1410.65,-600.43 1400.17,-644.26 1414.41,-762.96 1392.65,-802.43 1362.96,-856.3 1337.53,-858.63 1282.65,-886.43 1244.64,-905.68 1218.62,-881.27 1190.65,-913.43 1154.68,-954.78 1213.03,-998.36 1172.65,-1035.43 1119.87,-1083.88 1028.25,-1071.23 978.29,-1059.37"/>
<polygon fill="#000000" stroke="#000000" points="979.13,-1055.97 968.58,-1056.95 977.44,-1062.76 979.13,-1055.97"/>
<text text-anchor="middle" x="1236.65" y="-957.83" font-family="Times,serif" font-size="32.00">ε_1</text>
<text text-anchor="middle" x="1236.65" y="-922.83" font-family="Times,serif" font-size="32.00">=&gt;5 4</text>
</g>
<!-- 6 -->
<g id="node14" class="node">
<title>6</title>
<ellipse fill="none" stroke="black" cx="942.33" cy="-268.43" rx="27" ry="30.31"/>
<text text-anchor="middle" x="942.33" y="-260.33" font-family="Times,serif" font-size="32.00">6</text>
</g>
<!-- 5&#45;&gt;6 -->
<g id="edge19" class="edge">
<title>5&#45;&gt;6</title>
<path fill="none" stroke="#000000" d="M1455.32,-450.14C1445.28,-375.48 1407.78,-183.14 1282.65,-107.43 1175.78,-42.76 1112.54,-110.44 1012.65,-185.43 994.11,-199.34 977.33,-219.15 964.92,-235.92"/>
<polygon fill="#000000" stroke="#000000" points="961.84,-234.2 958.84,-244.36 967.53,-238.29 961.84,-234.2"/>
<text text-anchor="middle" x="1236.65" y="-151.83" font-family="Times,serif" font-size="32.00">ε_3</text>
<text text-anchor="middle" x="1236.65" y="-116.83" font-family="Times,serif" font-size="32.00">=&gt;5 6</text>
</g>
<!-- 7 -->
<g id="node15" class="node">
<title>7</title>
<ellipse fill="none" stroke="black" cx="942.33" cy="-541.43" rx="27" ry="30.31"/>
<text text-anchor="middle" x="942.33" y="-533.33" font-family="Times,serif" font-size="32.00">7</text>
</g>
<!-- 5&#45;&gt;7 -->
<g id="edge21" class="edge">
<title>5&#45;&gt;7</title>
<path fill="none" stroke="#000000" d="M1442.38,-456.95C1399.69,-398.24 1281.54,-254.3 1190.65,-319.43 1170.43,-333.91 1191.54,-356.24 1172.65,-372.43 1117.83,-419.39 1070.4,-357.11 1012.65,-400.43 979.77,-425.09 961.58,-469.57 952.17,-502"/>
<polygon fill="#000000" stroke="#000000" points="948.68,-501.49 949.42,-512.06 955.44,-503.34 948.68,-501.49"/>
<text text-anchor="middle" x="1236.65" y="-363.83" font-family="Times,serif" font-size="32.00">ε_5</text>
<text text-anchor="middle" x="1236.65" y="-328.83" font-family="Times,serif" font-size="32.00">=&gt;5 7</text>
</g>
<!-- 5&#45;&gt;8 -->
<g id="edge23" class="edge">
<title>5&#45;&gt;8</title>
<path fill="none" stroke="#000000" d="M1433.71,-489.42C1397.37,-503.99 1330.92,-536.46 1300.65,-588.43 1252.39,-671.29 1323.5,-716.67 1282.65,-803.43 1279.05,-811.07 1273.52,-818.11 1267.55,-824.22"/>
<polygon fill="#000000" stroke="#000000" points="1264.77,-822.03 1259.87,-831.43 1269.56,-827.14 1264.77,-822.03"/>
<text text-anchor="middle" x="1346.65" y="-632.83" font-family="Times,serif" font-size="32.00">ε_6</text>
<text text-anchor="middle" x="1346.65" y="-597.83" font-family="Times,serif" font-size="32.00">=&gt;5 8</text>
</g>
<!-- 9 -->
<g id="node17" class="node">
<title>9</title>
<ellipse fill="none" stroke="black" cx="942.33" cy="-667.43" rx="27" ry="30.31"/>
<text text-anchor="middle" x="942.33" y="-659.33" font-family="Times,serif" font-size="32.00">9</text>
</g>
<!-- 5&#45;&gt;9 -->
<g id="edge25" class="edge">
<title>5&#45;&gt;9</title>
<path fill="none" stroke="#000000" d="M1432.55,-482.65C1339.6,-490.67 1029.31,-518.33 1012.65,-531.43 994.41,-545.77 1004.59,-559.46 994.65,-580.43 985.93,-598.84 974.55,-618.46 964.72,-634.4"/>
<polygon fill="#000000" stroke="#000000" points="961.48,-632.99 959.15,-643.32 967.41,-636.7 961.48,-632.99"/>
<text text-anchor="middle" x="1236.65" y="-549.83" font-family="Times,serif" font-size="32.00">ε_7</text>
<text text-anchor="middle" x="1236.65" y="-514.83" font-family="Times,serif" font-size="32.00">=&gt;5 9</text>
</g>
<!-- z1 -->
<g id="node13" class="node">
<title>z1</title>
<ellipse fill="none" stroke="black" stroke-dasharray="5,2" cx="1685.65" cy="-480.43" rx="27" ry="18"/>
</g>
<!-- z1&#45;&gt;5 -->
<g id="edge17" class="edge">
<title>z1&#45;&gt;5</title>
<path fill="none" stroke="#000000" d="M1658.52,-480.43C1618.67,-480.43 1542.56,-480.43 1497.24,-480.43"/>
<polygon fill="#000000" stroke="#000000" points="1496.97,-476.93 1486.97,-480.43 1496.97,-483.93 1496.97,-476.93"/>
<text text-anchor="middle" x="1583.65" y="-524.83" font-family="Times,serif" font-size="32.00">laugh</text>
<text text-anchor="middle" x="1583.65" y="-489.83" font-family="Times,serif" font-size="32.00">5</text>
</g>
<!-- 6&#45;&gt;1 -->
<g id="edge18" class="edge">
<title>6&#45;&gt;1</title>
<path fill="none" stroke="#000000" d="M915.3,-269.69C839.44,-274.21 613.31,-293.79 446,-371.43 369.07,-407.13 294.62,-474.97 256.45,-512.94"/>
<polygon fill="#000000" stroke="#000000" points="253.88,-510.55 249.3,-520.11 258.84,-515.49 253.88,-510.55"/>
<text text-anchor="middle" x="505" y="-415.83" font-family="Times,serif" font-size="32.00">ε_2</text>
<text text-anchor="middle" x="505" y="-380.83" font-family="Times,serif" font-size="32.00">=&gt;6 =d 1</text>
</g>
<!-- 7&#45;&gt;v -->
<g id="edge20" class="edge">
<title>7&#45;&gt;v</title>
<path fill="none" stroke="#000000" d="M915.35,-538.53C824.48,-528.96 522.29,-501.84 446,-555.43 422.79,-571.73 411.82,-602.25 406.64,-627.32"/>
<polygon fill="#000000" stroke="#000000" points="403.17,-626.85 404.81,-637.32 410.05,-628.11 403.17,-626.85"/>
<text text-anchor="middle" x="641" y="-569.83" font-family="Times,serif" font-size="32.00">ε_4</text>
<text text-anchor="middle" x="641" y="-534.83" font-family="Times,serif" font-size="32.00">=&gt;7 =d v</text>
</g>
<!-- 8&#45;&gt;prog -->
<g id="edge22" class="edge">
<title>8&#45;&gt;prog</title>
<path fill="none" stroke="#000000" d="M1209.45,-847.25C1163.79,-846.93 1068.45,-846.28 1005.17,-845.85"/>
<polygon fill="#000000" stroke="#000000" points="1004.93,-842.35 994.91,-845.78 1004.89,-849.35 1004.93,-842.35"/>
<text text-anchor="middle" x="1092.65" y="-890.83" font-family="Times,serif" font-size="32.00">ing</text>
<text text-anchor="middle" x="1092.65" y="-855.83" font-family="Times,serif" font-size="32.00">=&gt;8 =d prog</text>
</g>
<!-- 8&#45;&gt;4 -->
<g id="edge38" class="edge">
<title>8&#45;&gt;4</title>
<path fill="none" stroke="#000000" d="M1215.1,-865.93C1207.12,-873.51 1198.12,-882.58 1190.65,-891.43 1181.59,-902.17 1184.02,-909.16 1172.65,-917.43 1112.59,-961.07 1074.5,-924.36 1012.65,-965.43 993.2,-978.34 976.39,-998.34 964.19,-1015.58"/>
<polygon fill="#000000" stroke="#000000" points="960.99,-1014.06 958.24,-1024.3 966.77,-1018.01 960.99,-1014.06"/>
<text text-anchor="middle" x="1092.65" y="-1009.83" font-family="Times,serif" font-size="32.00">ε_18</text>
<text text-anchor="middle" x="1092.65" y="-974.83" font-family="Times,serif" font-size="32.00">=&gt;8 4</text>
</g>
<!-- 8&#45;&gt;6 -->
<g id="edge40" class="edge">
<title>8&#45;&gt;6</title>
<path fill="none" stroke="#000000" d="M1213.26,-831.51C1204.6,-824.05 1195.59,-814.38 1190.65,-803.43 1158.09,-731.21 1209.18,-517.71 1172.65,-447.43 1129.79,-364.95 1030.03,-308.54 977.33,-283.35"/>
<polygon fill="#000000" stroke="#000000" points="978.61,-280.08 968.07,-279.01 975.64,-286.42 978.61,-280.08"/>
<text text-anchor="middle" x="1092.65" y="-491.83" font-family="Times,serif" font-size="32.00">ε_19</text>
<text text-anchor="middle" x="1092.65" y="-456.83" font-family="Times,serif" font-size="32.00">=&gt;8 6</text>
</g>
<!-- 8&#45;&gt;7 -->
<g id="edge41" class="edge">
<title>8&#45;&gt;7</title>
<path fill="none" stroke="#000000" d="M1213.38,-831.45C1204.74,-823.98 1195.72,-814.33 1190.65,-803.43 1167.56,-753.71 1211.48,-596.12 1172.65,-557.43 1121.74,-506.69 1028.97,-519.42 978.43,-531.43"/>
<polygon fill="#000000" stroke="#000000" points="977.47,-528.06 968.61,-533.88 979.16,-534.85 977.47,-528.06"/>
<text text-anchor="middle" x="1092.65" y="-601.83" font-family="Times,serif" font-size="32.00">ε_20</text>
<text text-anchor="middle" x="1092.65" y="-566.83" font-family="Times,serif" font-size="32.00">=&gt;8 7</text>
</g>
<!-- 8&#45;&gt;9 -->
<g id="edge42" class="edge">
<title>8&#45;&gt;9</title>
<path fill="none" stroke="#000000" d="M1214.67,-829.27C1206.63,-821.74 1197.7,-812.61 1190.65,-803.43 1180.72,-790.48 1184.68,-782.45 1172.65,-771.43 1115.5,-719.02 1027.44,-689.31 978.75,-676"/>
<polygon fill="#000000" stroke="#000000" points="979.55,-672.59 968.99,-673.41 977.75,-679.35 979.55,-672.59"/>
<text text-anchor="middle" x="1092.65" y="-815.83" font-family="Times,serif" font-size="32.00">ε_21</text>
<text text-anchor="middle" x="1092.65" y="-780.83" font-family="Times,serif" font-size="32.00">=&gt;8 9</text>
</g>
<!-- 9&#45;&gt;perf -->
<g id="edge24" class="edge">
<title>9&#45;&gt;perf</title>
<path fill="none" stroke="#000000" d="M915.29,-667.43C867.36,-667.43 764.14,-667.43 699.17,-667.43"/>
<polygon fill="#000000" stroke="#000000" points="699.09,-663.93 689.09,-667.43 699.09,-670.93 699.09,-663.93"/>
<text text-anchor="middle" x="795" y="-711.83" font-family="Times,serif" font-size="32.00">n</text>
<text text-anchor="middle" x="795" y="-676.83" font-family="Times,serif" font-size="32.00">=&gt;9 =d perf</text>
</g>
<!-- 10 -->
<g id="node18" class="node">
<title>10</title>
<ellipse fill="none" stroke="black" cx="1459.65" cy="-1056.43" rx="33.88" ry="30.31"/>
<text text-anchor="middle" x="1459.65" y="-1048.33" font-family="Times,serif" font-size="32.00">10</text>
</g>
<!-- 10&#45;&gt;4 -->
<g id="edge26" class="edge">
<title>10&#45;&gt;4</title>
<path fill="none" stroke="#000000" d="M1448.57,-1085.28C1427.62,-1140.17 1373.62,-1258.33 1282.65,-1305.43 1246.34,-1324.23 1231,-1312.04 1190.65,-1305.43 1108.27,-1291.91 1072.12,-1304.02 1012.65,-1245.43 970.05,-1203.45 953.55,-1133.69 947.21,-1089.7"/>
<polygon fill="#000000" stroke="#000000" points="950.66,-1089.1 945.88,-1079.65 943.73,-1090.02 950.66,-1089.1"/>
<text text-anchor="middle" x="1236.65" y="-1359.83" font-family="Times,serif" font-size="32.00">ε_8</text>
<text text-anchor="middle" x="1236.65" y="-1324.83" font-family="Times,serif" font-size="32.00">=&gt;10 4</text>
</g>
<!-- 10&#45;&gt;6 -->
<g id="edge28" class="edge">
<title>10&#45;&gt;6</title>
<path fill="none" stroke="#000000" d="M1449.51,-1027.25C1438.33,-993.31 1417.74,-936.09 1392.65,-890.43 1352.49,-817.34 1349.8,-787.87 1282.65,-738.43 1247.91,-712.84 1216.59,-741.9 1190.65,-707.43 1163.5,-671.34 1202.97,-334.89 1172.65,-301.43 1124.02,-247.74 1030.32,-253.26 979.03,-261.25"/>
<polygon fill="#000000" stroke="#000000" points="978.34,-257.82 969.06,-262.92 979.5,-264.72 978.34,-257.82"/>
<text text-anchor="middle" x="1236.65" y="-782.83" font-family="Times,serif" font-size="32.00">ε_9</text>
<text text-anchor="middle" x="1236.65" y="-747.83" font-family="Times,serif" font-size="32.00">=&gt;10 6</text>
</g>
<!-- 10&#45;&gt;7 -->
<g id="edge29" class="edge">
<title>10&#45;&gt;7</title>
<path fill="none" stroke="#000000" d="M1426.03,-1060.62C1392.55,-1063.36 1339.96,-1063.23 1300.65,-1042.43 1289.49,-1036.52 1292.97,-1027.71 1282.65,-1020.43 1247.16,-995.37 1216.69,-1022.2 1190.65,-987.43 1149.96,-933.08 1213.7,-736.5 1172.65,-682.43 1127.19,-622.53 1074.21,-670.61 1012.65,-627.43 992.95,-613.61 975.91,-592.68 963.65,-574.92"/>
<polygon fill="#000000" stroke="#000000" points="966.5,-572.88 958.03,-566.51 960.68,-576.77 966.5,-572.88"/>
<text text-anchor="middle" x="1236.65" y="-1064.83" font-family="Times,serif" font-size="32.00">ε_10</text>
<text text-anchor="middle" x="1236.65" y="-1029.83" font-family="Times,serif" font-size="32.00">=&gt;10 7</text>
</g>
<!-- 10&#45;&gt;8 -->
<g id="edge30" class="edge">
<title>10&#45;&gt;8</title>
<path fill="none" stroke="#000000" d="M1440.97,-1030.95C1428.41,-1013.62 1410.63,-990.64 1392.65,-972.43 1352.96,-932.23 1300.79,-892.42 1268.24,-868.88"/>
<polygon fill="#000000" stroke="#000000" points="1270.18,-865.96 1260.01,-862.97 1266.09,-871.65 1270.18,-865.96"/>
<text text-anchor="middle" x="1346.65" y="-1016.83" font-family="Times,serif" font-size="32.00">ε_11</text>
<text text-anchor="middle" x="1346.65" y="-981.83" font-family="Times,serif" font-size="32.00">=&gt;10 8</text>
</g>
<!-- 10&#45;&gt;9 -->
<g id="edge31" class="edge">
<title>10&#45;&gt;9</title>
<path fill="none" stroke="#000000" d="M1427.29,-1066.17C1341.93,-1090.52 1105.57,-1143.02 1012.65,-1010.43 986.53,-973.16 1004.62,-850.83 994.65,-806.43 986.54,-770.28 971.31,-730.81 959.54,-703.2"/>
<polygon fill="#000000" stroke="#000000" points="962.72,-701.74 955.54,-693.95 956.3,-704.52 962.72,-701.74"/>
<text text-anchor="middle" x="1236.65" y="-1140.83" font-family="Times,serif" font-size="32.00">ε_12</text>
<text text-anchor="middle" x="1236.65" y="-1105.83" font-family="Times,serif" font-size="32.00">=&gt;10 9</text>
</g>
<!-- z2 -->
<g id="node19" class="node">
<title>z2</title>
<ellipse fill="none" stroke="black" stroke-dasharray="5,2" cx="1685.65" cy="-1056.43" rx="27" ry="18"/>
</g>
<!-- z2&#45;&gt;10 -->
<g id="edge27" class="edge">
<title>z2&#45;&gt;10</title>
<path fill="none" stroke="#000000" d="M1658.52,-1056.43C1620.62,-1056.43 1549.93,-1056.43 1504.11,-1056.43"/>
<polygon fill="#000000" stroke="#000000" points="1503.88,-1052.93 1493.88,-1056.43 1503.88,-1059.93 1503.88,-1052.93"/>
<text text-anchor="middle" x="1583.65" y="-1100.83" font-family="Times,serif" font-size="32.00">dance</text>
<text text-anchor="middle" x="1583.65" y="-1065.83" font-family="Times,serif" font-size="32.00">10</text>
</g>
<!-- 11&#45;&gt;4 -->
<g id="edge32" class="edge">
<title>11&#45;&gt;4</title>
<path fill="none" stroke="#000000" d="M1450.76,-668.91C1440.81,-706.5 1423.48,-773.56 1410.65,-831.43 1401.54,-872.53 1420.83,-893.15 1392.65,-924.43 1364.05,-956.18 1327.49,-919.16 1300.65,-952.43 1270.13,-990.26 1318.41,-1137.5 1282.65,-1170.43 1190.22,-1255.54 1033.88,-1132.54 970.87,-1075.65"/>
<polygon fill="#000000" stroke="#000000" points="973.05,-1072.9 963.3,-1068.74 968.32,-1078.07 973.05,-1072.9"/>
<text text-anchor="middle" x="1236.65" y="-1243.83" font-family="Times,serif" font-size="32.00">ε_13</text>
<text text-anchor="middle" x="1236.65" y="-1208.83" font-family="Times,serif" font-size="32.00">=&gt;11 4</text>
</g>
<!-- 11&#45;&gt;6 -->
<g id="edge34" class="edge">
<title>11&#45;&gt;6</title>
<path fill="none" stroke="#000000" d="M1445.73,-611.33C1435.1,-587.33 1420.28,-551.68 1410.65,-519.43 1399.11,-480.76 1406.5,-468.33 1392.65,-430.43 1357.72,-334.77 1370.26,-281.35 1282.65,-229.43 1183.91,-170.9 1040.5,-223.18 976.41,-252.15"/>
<polygon fill="#000000" stroke="#000000" points="974.8,-249.04 967.19,-256.42 977.73,-255.4 974.8,-249.04"/>
<text text-anchor="middle" x="1236.65" y="-273.83" font-family="Times,serif" font-size="32.00">ε_14</text>
<text text-anchor="middle" x="1236.65" y="-238.83" font-family="Times,serif" font-size="32.00">=&gt;11 6</text>
</g>
<!-- 11&#45;&gt;7 -->
<g id="edge35" class="edge">
<title>11&#45;&gt;7</title>
<path fill="none" stroke="#000000" d="M1446.87,-610.8C1424.1,-560.16 1368.62,-457.15 1282.65,-425.43 1168.81,-383.41 1031.61,-472.62 972.62,-517.59"/>
<polygon fill="#000000" stroke="#000000" points="970.26,-514.99 964.5,-523.88 974.55,-520.52 970.26,-514.99"/>
<text text-anchor="middle" x="1236.65" y="-469.83" font-family="Times,serif" font-size="32.00">ε_15</text>
<text text-anchor="middle" x="1236.65" y="-434.83" font-family="Times,serif" font-size="32.00">=&gt;11 7</text>
</g>
<!-- 11&#45;&gt;8 -->
<g id="edge36" class="edge">
<title>11&#45;&gt;8</title>
<path fill="none" stroke="#000000" d="M1427.1,-648.67C1390.95,-660.93 1332.62,-686.09 1300.65,-728.43 1280,-755.78 1299.57,-773.61 1282.65,-803.43 1278.56,-810.64 1272.93,-817.45 1267.05,-823.45"/>
<polygon fill="#000000" stroke="#000000" points="1264.37,-821.17 1259.54,-830.6 1269.2,-826.24 1264.37,-821.17"/>
<text text-anchor="middle" x="1346.65" y="-772.83" font-family="Times,serif" font-size="32.00">ε_16</text>
<text text-anchor="middle" x="1346.65" y="-737.83" font-family="Times,serif" font-size="32.00">=&gt;11 8</text>
</g>
<!-- 11&#45;&gt;9 -->
<g id="edge37" class="edge">
<title>11&#45;&gt;9</title>
<path fill="none" stroke="#000000" d="M1425.57,-638.94C1390.19,-638.44 1332.46,-637.71 1282.65,-637.43 1241.76,-637.19 1231.47,-634.96 1190.65,-637.43 1115.03,-642 1027.11,-654.36 979.12,-661.71"/>
<polygon fill="#000000" stroke="#000000" points="978.57,-658.25 969.23,-663.24 979.64,-665.17 978.57,-658.25"/>
<text text-anchor="middle" x="1236.65" y="-681.83" font-family="Times,serif" font-size="32.00">ε_17</text>
<text text-anchor="middle" x="1236.65" y="-646.83" font-family="Times,serif" font-size="32.00">=&gt;11 9</text>
</g>
</g>
</svg>
