<?xml version="1.0" encoding="UTF-8" standalone="no"?>
<!DOCTYPE svg PUBLIC "-//W3C//DTD SVG 1.1//EN"
 "http://www.w3.org/Graphics/SVG/1.1/DTD/svg11.dtd">
<!-- Generated by graphviz version 2.47.1 (20210417.1919)
 -->
<!-- Title: G Pages: 1 -->
<svg width="1912pt" height="1086pt"
 viewBox="0.00 0.00 1912.00 1086.39" xmlns="http://www.w3.org/2000/svg" xmlns:xlink="http://www.w3.org/1999/xlink">
<g id="graph0" class="graph" transform="scale(1 1) rotate(0) translate(4 1082.39)">
<title>G</title>
<polygon fill="white" stroke="transparent" points="-4,4 -4,-1082.39 1908,-1082.39 1908,4 -4,4"/>
<text text-anchor="middle" x="952" y="-13.4" font-family="Times,serif" font-size="32.00">single contraction: 8 → 9</text>
<!-- t -->
<g id="node1" class="node">
<title>t</title>
<ellipse fill="lightgray" stroke="black" cx="27" cy="-466.39" rx="27" ry="30.31"/>
<text text-anchor="middle" x="27" y="-458.29" font-family="Times,serif" font-size="32.00">t</text>
</g>
<!-- z0 -->
<g id="node2" class="node">
<title>z0</title>
<ellipse fill="none" stroke="black" stroke-dasharray="5,2" cx="1877" cy="-537.39" rx="27" ry="18"/>
</g>
<!-- d -->
<g id="node3" class="node">
<title>d</title>
<ellipse fill="none" stroke="black" cx="1717" cy="-537.39" rx="27" ry="30.31"/>
<text text-anchor="middle" x="1717" y="-529.29" font-family="Times,serif" font-size="32.00">d</text>
</g>
<!-- z0&#45;&gt;d -->
<g id="edge1" class="edge">
<title>z0&#45;&gt;d</title>
<path fill="none" stroke="#000000" d="M1849.91,-537.39C1823.84,-537.39 1783.53,-537.39 1754.34,-537.39"/>
<polygon fill="#000000" stroke="#000000" points="1754.13,-533.89 1744.13,-537.39 1754.13,-540.89 1754.13,-533.89"/>
<text text-anchor="middle" x="1797" y="-581.79" font-family="Times,serif" font-size="32.00">Mary</text>
<text text-anchor="middle" x="1797" y="-546.79" font-family="Times,serif" font-size="32.00">d &#45;k</text>
</g>
<!-- 8 -->
<g id="node16" class="node">
<title>8</title>
<ellipse fill="none" stroke="black" cx="1268" cy="-522.39" rx="27" ry="30.31"/>
<text text-anchor="middle" x="1268" y="-514.29" font-family="Times,serif" font-size="32.00">8</text>
</g>
<!-- d&#45;&gt;8 -->
<g id="edge36" class="edge">
<title>d&#45;&gt;8</title>
<path fill="none" stroke="#000000" d="M1690.22,-531.78C1656.07,-524.67 1593.86,-512.8 1540,-508.39 1447.84,-500.85 1424.07,-504.74 1332,-513.39 1323.22,-514.21 1313.8,-515.4 1304.98,-516.64"/>
<polygon fill="#000000" stroke="#000000" points="1304.37,-513.19 1294.99,-518.1 1305.39,-520.12 1304.37,-513.19"/>
<text text-anchor="middle" x="1491" y="-552.79" font-family="Times,serif" font-size="32.00">praise</text>
<text text-anchor="middle" x="1491" y="-517.79" font-family="Times,serif" font-size="32.00">=d *k 8</text>
</g>
<!-- 10 -->
<g id="node19" class="node">
<title>10</title>
<ellipse fill="none" stroke="black" cx="1491" cy="-617.39" rx="33.88" ry="30.31"/>
<text text-anchor="middle" x="1491" y="-609.29" font-family="Times,serif" font-size="32.00">10</text>
</g>
<!-- d&#45;&gt;10 -->
<g id="edge31" class="edge">
<title>d&#45;&gt;10</title>
<path fill="none" stroke="#000000" d="M1691.17,-546.26C1652.86,-559.94 1578.94,-586.34 1532.72,-602.85"/>
<polygon fill="#000000" stroke="#000000" points="1531.26,-599.65 1523.02,-606.31 1533.62,-606.24 1531.26,-599.65"/>
<text text-anchor="middle" x="1615" y="-638.79" font-family="Times,serif" font-size="32.00">hug</text>
<text text-anchor="middle" x="1615" y="-603.79" font-family="Times,serif" font-size="32.00">=d *k 10</text>
</g>
<!-- 0 -->
<g id="node4" class="node">
<title>0</title>
<ellipse fill="none" stroke="black" cx="229" cy="-585.39" rx="27" ry="30.31"/>
<text text-anchor="middle" x="229" y="-577.29" font-family="Times,serif" font-size="32.00">0</text>
</g>
<!-- 0&#45;&gt;t -->
<g id="edge2" class="edge">
<title>0&#45;&gt;t</title>
<path fill="none" stroke="#000000" d="M204.58,-572.1C173.91,-554.62 118.58,-522.78 72,-494.39 67.87,-491.87 63.54,-489.18 59.29,-486.51"/>
<polygon fill="#000000" stroke="#000000" points="61.05,-483.48 50.73,-481.09 57.31,-489.4 61.05,-483.48"/>
<text text-anchor="middle" x="128" y="-604.79" font-family="Times,serif" font-size="32.00">s</text>
<text text-anchor="middle" x="128" y="-569.79" font-family="Times,serif" font-size="32.00">=&gt;0 +k t</text>
</g>
<!-- v -->
<g id="node5" class="node">
<title>v</title>
<ellipse fill="none" stroke="black" cx="401" cy="-501.39" rx="27" ry="30.31"/>
<text text-anchor="middle" x="401" y="-493.29" font-family="Times,serif" font-size="32.00">v</text>
</g>
<!-- v&#45;&gt;0 -->
<g id="edge3" class="edge">
<title>v&#45;&gt;0</title>
<path fill="none" stroke="#000000" d="M374.39,-506.72C342.66,-513.62 290.74,-526.01 274,-536.39 266.39,-541.11 259.31,-547.53 253.16,-554.17"/>
<polygon fill="#000000" stroke="#000000" points="250.3,-552.13 246.39,-561.97 255.58,-556.71 250.3,-552.13"/>
<text text-anchor="middle" x="315" y="-580.79" font-family="Times,serif" font-size="32.00">will</text>
<text text-anchor="middle" x="315" y="-545.79" font-family="Times,serif" font-size="32.00">=v 0</text>
</g>
<!-- 1 -->
<g id="node6" class="node">
<title>1</title>
<ellipse fill="none" stroke="black" cx="229" cy="-347.39" rx="27" ry="30.31"/>
<text text-anchor="middle" x="229" y="-339.29" font-family="Times,serif" font-size="32.00">1</text>
</g>
<!-- v&#45;&gt;1 -->
<g id="edge5" class="edge">
<title>v&#45;&gt;1</title>
<path fill="none" stroke="#000000" d="M387.13,-475.17C379.66,-462.4 369.11,-447.81 356,-438.39 325.16,-416.24 304.52,-436.98 274,-414.39 263.06,-406.29 254.05,-394.59 247.1,-383.23"/>
<polygon fill="#000000" stroke="#000000" points="249.97,-381.21 241.97,-374.27 243.9,-384.69 249.97,-381.21"/>
<text text-anchor="middle" x="315" y="-482.79" font-family="Times,serif" font-size="32.00">will_1</text>
<text text-anchor="middle" x="315" y="-447.79" font-family="Times,serif" font-size="32.00">=v 1</text>
</g>
<!-- 1&#45;&gt;t -->
<g id="edge4" class="edge">
<title>1&#45;&gt;t</title>
<path fill="none" stroke="#000000" d="M202.97,-355.82C170.82,-367.36 114.14,-390.13 72,-420.39 65.31,-425.19 58.78,-431.1 52.9,-437.06"/>
<polygon fill="#000000" stroke="#000000" points="50.14,-434.88 45.81,-444.55 55.23,-439.69 50.14,-434.88"/>
<text text-anchor="middle" x="128" y="-464.79" font-family="Times,serif" font-size="32.00">d</text>
<text text-anchor="middle" x="128" y="-429.79" font-family="Times,serif" font-size="32.00">=&gt;1 +k t</text>
</g>
<!-- 2 -->
<g id="node7" class="node">
<title>2</title>
<ellipse fill="none" stroke="black" cx="401" cy="-637.39" rx="27" ry="30.31"/>
<text text-anchor="middle" x="401" y="-629.29" font-family="Times,serif" font-size="32.00">2</text>
</g>
<!-- 2&#45;&gt;0 -->
<g id="edge6" class="edge">
<title>2&#45;&gt;0</title>
<path fill="none" stroke="#000000" d="M373.76,-634.15C347.8,-630.4 307.24,-623.05 274,-610.39 270.03,-608.88 265.99,-607.04 262.04,-605.06"/>
<polygon fill="#000000" stroke="#000000" points="263.56,-601.91 253.1,-600.26 260.25,-608.08 263.56,-601.91"/>
<text text-anchor="middle" x="315" y="-675.79" font-family="Times,serif" font-size="32.00">e</text>
<text text-anchor="middle" x="315" y="-640.79" font-family="Times,serif" font-size="32.00">=&gt;2 0</text>
</g>
<!-- perf -->
<g id="node8" class="node">
<title>perf</title>
<ellipse fill="none" stroke="black" cx="641" cy="-414.39" rx="48.17" ry="30.31"/>
<text text-anchor="middle" x="641" y="-406.29" font-family="Times,serif" font-size="32.00">perf</text>
</g>
<!-- perf&#45;&gt;v -->
<g id="edge10" class="edge">
<title>perf&#45;&gt;v</title>
<path fill="none" stroke="#000000" d="M596,-403.03C554.2,-394.85 491.18,-389.57 446,-417.39 429.71,-427.42 419.14,-445.65 412.46,-462.57"/>
<polygon fill="#000000" stroke="#000000" points="409.05,-461.71 408.96,-472.31 415.64,-464.08 409.05,-461.71"/>
<text text-anchor="middle" x="505" y="-461.79" font-family="Times,serif" font-size="32.00">have</text>
<text text-anchor="middle" x="505" y="-426.79" font-family="Times,serif" font-size="32.00">=perf v</text>
</g>
<!-- perf&#45;&gt;2 -->
<g id="edge7" class="edge">
<title>perf&#45;&gt;2</title>
<path fill="none" stroke="#000000" d="M615.04,-440.43C600.38,-455.53 581.38,-474.78 564,-491.39 518.33,-535.04 463.37,-583.81 430.63,-612.49"/>
<polygon fill="#000000" stroke="#000000" points="428.03,-610.11 422.81,-619.33 432.64,-615.38 428.03,-610.11"/>
<text text-anchor="middle" x="505" y="-640.79" font-family="Times,serif" font-size="32.00">hav</text>
<text text-anchor="middle" x="505" y="-605.79" font-family="Times,serif" font-size="32.00">=perf 2</text>
</g>
<!-- 3 -->
<g id="node9" class="node">
<title>3</title>
<ellipse fill="none" stroke="black" cx="401" cy="-323.39" rx="27" ry="30.31"/>
<text text-anchor="middle" x="401" y="-315.29" font-family="Times,serif" font-size="32.00">3</text>
</g>
<!-- perf&#45;&gt;3 -->
<g id="edge9" class="edge">
<title>perf&#45;&gt;3</title>
<path fill="none" stroke="#000000" d="M608.64,-391.74C599.22,-383.85 589.43,-374.44 582,-364.39 570.17,-348.39 580.66,-334.27 564,-323.39 526.17,-298.68 472.03,-304.98 436.94,-313.11"/>
<polygon fill="#000000" stroke="#000000" points="436,-309.73 427.14,-315.54 437.69,-316.53 436,-309.73"/>
<text text-anchor="middle" x="505" y="-367.79" font-family="Times,serif" font-size="32.00">hav_1</text>
<text text-anchor="middle" x="505" y="-332.79" font-family="Times,serif" font-size="32.00">=perf 3</text>
</g>
<!-- 3&#45;&gt;1 -->
<g id="edge8" class="edge">
<title>3&#45;&gt;1</title>
<path fill="none" stroke="#000000" d="M374.18,-327.03C345.35,-331.11 298.48,-337.72 266.05,-342.3"/>
<polygon fill="#000000" stroke="#000000" points="265.47,-338.85 256.06,-343.71 266.45,-345.78 265.47,-338.85"/>
<text text-anchor="middle" x="315" y="-385.79" font-family="Times,serif" font-size="32.00">e_1</text>
<text text-anchor="middle" x="315" y="-350.79" font-family="Times,serif" font-size="32.00">=&gt;3 1</text>
</g>
<!-- prog -->
<g id="node10" class="node">
<title>prog</title>
<ellipse fill="none" stroke="black" cx="949" cy="-497.39" rx="52.15" ry="30.31"/>
<text text-anchor="middle" x="949" y="-489.29" font-family="Times,serif" font-size="32.00">prog</text>
</g>
<!-- prog&#45;&gt;v -->
<g id="edge13" class="edge">
<title>prog&#45;&gt;v</title>
<path fill="none" stroke="#000000" d="M896.63,-497.77C787.1,-498.57 532.89,-500.43 438.31,-501.12"/>
<polygon fill="#000000" stroke="#000000" points="438.07,-497.63 428.1,-501.2 438.13,-504.63 438.07,-497.63"/>
<text text-anchor="middle" x="641" y="-544.79" font-family="Times,serif" font-size="32.00">be</text>
<text text-anchor="middle" x="641" y="-509.79" font-family="Times,serif" font-size="32.00">=prog v</text>
</g>
<!-- prog&#45;&gt;2 -->
<g id="edge11" class="edge">
<title>prog&#45;&gt;2</title>
<path fill="none" stroke="#000000" d="M917.36,-521.92C862.21,-565.48 747.58,-653.19 700,-668.39 592.46,-702.74 553.1,-706.09 446,-670.39 440.68,-668.62 435.48,-665.92 430.63,-662.81"/>
<polygon fill="#000000" stroke="#000000" points="432.51,-659.85 422.33,-656.9 428.44,-665.55 432.51,-659.85"/>
<text text-anchor="middle" x="641" y="-739.79" font-family="Times,serif" font-size="32.00">b</text>
<text text-anchor="middle" x="641" y="-704.79" font-family="Times,serif" font-size="32.00">=prog 2</text>
</g>
<!-- prog&#45;&gt;perf -->
<g id="edge14" class="edge">
<title>prog&#45;&gt;perf</title>
<path fill="none" stroke="#000000" d="M906.48,-479.28C894.26,-472.48 881.6,-463.82 872,-453.39 859.34,-439.64 869.77,-425.42 854,-415.39 806.8,-385.36 740.91,-390.64 695.16,-399.88"/>
<polygon fill="#000000" stroke="#000000" points="694.19,-396.51 685.15,-402.04 695.66,-403.36 694.19,-396.51"/>
<text text-anchor="middle" x="786" y="-459.79" font-family="Times,serif" font-size="32.00">ben</text>
<text text-anchor="middle" x="786" y="-424.79" font-family="Times,serif" font-size="32.00">=prog perf</text>
</g>
<!-- prog&#45;&gt;3 -->
<g id="edge12" class="edge">
<title>prog&#45;&gt;3</title>
<path fill="none" stroke="#000000" d="M907.06,-478.79C894.28,-471.26 881.15,-461.45 872,-449.39 855.16,-427.22 871.54,-411.01 854,-389.39 804.89,-328.84 775.48,-324.93 700,-305.39 590.71,-277.09 556.55,-281.54 446,-304.39 442.55,-305.1 439.05,-306.1 435.59,-307.26"/>
<polygon fill="#000000" stroke="#000000" points="434.17,-304.06 426.09,-310.9 436.68,-310.59 434.17,-304.06"/>
<text text-anchor="middle" x="641" y="-349.79" font-family="Times,serif" font-size="32.00">b_1</text>
<text text-anchor="middle" x="641" y="-314.79" font-family="Times,serif" font-size="32.00">=prog 3</text>
</g>
<!-- 4 -->
<g id="node11" class="node">
<title>4</title>
<ellipse fill="none" stroke="black" cx="949" cy="-837.39" rx="27" ry="30.31"/>
<text text-anchor="middle" x="949" y="-829.29" font-family="Times,serif" font-size="32.00">4</text>
</g>
<!-- 4&#45;&gt;0 -->
<g id="edge15" class="edge">
<title>4&#45;&gt;0</title>
<path fill="none" stroke="#000000" d="M921.88,-840.64C823.59,-851.37 471.44,-875.83 274,-705.39 250.87,-685.42 239.89,-652.21 234.68,-625.78"/>
<polygon fill="#000000" stroke="#000000" points="238.08,-624.9 232.9,-615.66 231.19,-626.12 238.08,-624.9"/>
<text text-anchor="middle" x="505" y="-875.79" font-family="Times,serif" font-size="32.00">ε_0</text>
<text text-anchor="middle" x="505" y="-840.79" font-family="Times,serif" font-size="32.00">=&gt;4 =d 0</text>
</g>
<!-- 5 -->
<g id="node12" class="node">
<title>5</title>
<ellipse fill="none" stroke="black" cx="1491" cy="-775.39" rx="27" ry="30.31"/>
<text text-anchor="middle" x="1491" y="-767.29" font-family="Times,serif" font-size="32.00">5</text>
</g>
<!-- 5&#45;&gt;4 -->
<g id="edge16" class="edge">
<title>5&#45;&gt;4</title>
<path fill="none" stroke="#000000" d="M1484.19,-805.05C1476.02,-840.03 1458.16,-898.24 1424,-936.39 1386.85,-977.88 1367.96,-982.63 1314,-996.39 1194.88,-1026.76 1147.61,-1002.54 1044,-936.39 1015.84,-918.41 990.18,-890.21 972.82,-868.49"/>
<polygon fill="#000000" stroke="#000000" points="975.5,-866.24 966.58,-860.52 969.99,-870.56 975.5,-866.24"/>
<text text-anchor="middle" x="1268" y="-1052.79" font-family="Times,serif" font-size="32.00">ε_1</text>
<text text-anchor="middle" x="1268" y="-1017.79" font-family="Times,serif" font-size="32.00">=&gt;5 4</text>
</g>
<!-- 6 -->
<g id="node14" class="node">
<title>6</title>
<ellipse fill="none" stroke="black" cx="949" cy="-205.39" rx="27" ry="30.31"/>
<text text-anchor="middle" x="949" y="-197.29" font-family="Times,serif" font-size="32.00">6</text>
</g>
<!-- 5&#45;&gt;6 -->
<g id="edge19" class="edge">
<title>5&#45;&gt;6</title>
<path fill="none" stroke="#000000" d="M1463.95,-774.32C1428.42,-771.37 1365.37,-760.56 1332,-721.39 1301.29,-685.35 1349.34,-647.9 1314,-616.39 1269.15,-576.39 1086.93,-643.44 1044,-601.39 1025.21,-582.99 1032.76,-390.81 1026,-365.39 1013.74,-319.27 988.42,-270.27 970.37,-238.83"/>
<polygon fill="#000000" stroke="#000000" points="973.32,-236.93 965.26,-230.05 967.27,-240.46 973.32,-236.93"/>
<text text-anchor="middle" x="1268" y="-660.79" font-family="Times,serif" font-size="32.00">ε_3</text>
<text text-anchor="middle" x="1268" y="-625.79" font-family="Times,serif" font-size="32.00">=&gt;5 6</text>
</g>
<!-- 7 -->
<g id="node15" class="node">
<title>7</title>
<ellipse fill="none" stroke="black" cx="949" cy="-605.39" rx="27" ry="30.31"/>
<text text-anchor="middle" x="949" y="-597.29" font-family="Times,serif" font-size="32.00">7</text>
</g>
<!-- 5&#45;&gt;7 -->
<g id="edge21" class="edge">
<title>5&#45;&gt;7</title>
<path fill="none" stroke="#000000" d="M1464.05,-778.34C1415.68,-783.06 1308.74,-789.85 1222,-769.39 1136.86,-749.31 1117.5,-732.82 1044,-685.39 1020.11,-669.97 995.73,-649.05 977.79,-632.47"/>
<polygon fill="#000000" stroke="#000000" points="979.72,-629.47 970.03,-625.19 974.93,-634.58 979.72,-629.47"/>
<text text-anchor="middle" x="1268" y="-826.79" font-family="Times,serif" font-size="32.00">ε_5</text>
<text text-anchor="middle" x="1268" y="-791.79" font-family="Times,serif" font-size="32.00">=&gt;5 7</text>
</g>
<!-- 5&#45;&gt;8 -->
<g id="edge23" class="edge">
<title>5&#45;&gt;8</title>
<path fill="none" stroke="#000000" d="M1480.61,-747.23C1470.32,-719.92 1451.53,-678.7 1424,-651.39 1391.25,-618.91 1367.41,-632.94 1332,-603.39 1327.11,-599.31 1308.02,-574.51 1292.12,-553.41"/>
<polygon fill="#000000" stroke="#000000" points="1294.81,-551.16 1286,-545.26 1289.21,-555.36 1294.81,-551.16"/>
<text text-anchor="middle" x="1378" y="-695.79" font-family="Times,serif" font-size="32.00">ε_6</text>
<text text-anchor="middle" x="1378" y="-660.79" font-family="Times,serif" font-size="32.00">=&gt;5 8</text>
</g>
<!-- z1 -->
<g id="node13" class="node">
<title>z1</title>
<ellipse fill="none" stroke="black" stroke-dasharray="5,2" cx="1717" cy="-775.39" rx="27" ry="18"/>
</g>
<!-- z1&#45;&gt;5 -->
<g id="edge17" class="edge">
<title>z1&#45;&gt;5</title>
<path fill="none" stroke="#000000" d="M1689.87,-775.39C1650.01,-775.39 1573.91,-775.39 1528.59,-775.39"/>
<polygon fill="#000000" stroke="#000000" points="1528.31,-771.89 1518.31,-775.39 1528.31,-778.89 1528.31,-771.89"/>
<text text-anchor="middle" x="1615" y="-819.79" font-family="Times,serif" font-size="32.00">laugh</text>
<text text-anchor="middle" x="1615" y="-784.79" font-family="Times,serif" font-size="32.00">5</text>
</g>
<!-- 6&#45;&gt;1 -->
<g id="edge18" class="edge">
<title>6&#45;&gt;1</title>
<path fill="none" stroke="#000000" d="M922.21,-200.98C846.9,-189.1 621.59,-160.7 446,-212.39 371.54,-234.31 297.65,-289.63 258.55,-322.25"/>
<polygon fill="#000000" stroke="#000000" points="256.12,-319.72 250.74,-328.84 260.64,-325.06 256.12,-319.72"/>
<text text-anchor="middle" x="505" y="-256.79" font-family="Times,serif" font-size="32.00">ε_2</text>
<text text-anchor="middle" x="505" y="-221.79" font-family="Times,serif" font-size="32.00">=&gt;6 =d 1</text>
</g>
<!-- 7&#45;&gt;v -->
<g id="edge20" class="edge">
<title>7&#45;&gt;v</title>
<path fill="none" stroke="#000000" d="M921.84,-605.84C861.19,-606.32 706.66,-604.22 582,-574.39 528.64,-561.62 470.4,-535.59 435.03,-518.32"/>
<polygon fill="#000000" stroke="#000000" points="436.2,-515 425.69,-513.7 433.1,-521.27 436.2,-515"/>
<text text-anchor="middle" x="641" y="-638.79" font-family="Times,serif" font-size="32.00">ε_4</text>
<text text-anchor="middle" x="641" y="-603.79" font-family="Times,serif" font-size="32.00">=&gt;7 =d v</text>
</g>
<!-- 8&#45;&gt;perf -->
<g id="edge24" class="edge">
<title>8&#45;&gt;perf</title>
<path fill="none" stroke="#000000" d="M1245.25,-505.49C1236.9,-498 1227.96,-488.57 1222,-478.39 1206.42,-451.78 1227.21,-431.68 1204,-411.39 1122.64,-340.26 824.84,-377.13 718,-393.39 710.2,-394.58 702.05,-396.29 694.12,-398.24"/>
<polygon fill="#000000" stroke="#000000" points="693.02,-394.91 684.22,-400.81 694.78,-401.69 693.02,-394.91"/>
<text text-anchor="middle" x="949" y="-419.79" font-family="Times,serif" font-size="32.00">n</text>
<text text-anchor="middle" x="949" y="-384.79" font-family="Times,serif" font-size="32.00">=&gt;8 =d perf</text>
</g>
<!-- 8&#45;&gt;prog -->
<g id="edge22" class="edge">
<title>8&#45;&gt;prog</title>
<path fill="none" stroke="#000000" d="M1245.59,-504.55C1237.49,-497.06 1228.63,-487.88 1222,-478.39 1210.84,-462.41 1220.37,-448.97 1204,-438.39 1144.28,-399.78 1110.86,-414.18 1044,-438.39 1034.21,-441.93 1034.54,-447.43 1026,-453.39 1016.91,-459.74 1006.85,-466.03 997.1,-471.79"/>
<polygon fill="#000000" stroke="#000000" points="995.17,-468.87 988.28,-476.91 998.69,-474.92 995.17,-468.87"/>
<text text-anchor="middle" x="1124" y="-482.79" font-family="Times,serif" font-size="32.00">ing</text>
<text text-anchor="middle" x="1124" y="-447.79" font-family="Times,serif" font-size="32.00">=&gt;8 =d prog</text>
</g>
<!-- 8&#45;&gt;4 -->
<g id="edge35" class="edge">
<title>8&#45;&gt;4</title>
<path fill="none" stroke="#000000" d="M1248.1,-543.26C1239.05,-554.23 1228.74,-568.29 1222,-582.39 1207.96,-611.76 1222.28,-626.45 1204,-653.39 1147.19,-737.13 1039,-796.26 983.97,-822.37"/>
<polygon fill="#000000" stroke="#000000" points="982.24,-819.32 974.66,-826.72 985.2,-825.66 982.24,-819.32"/>
<text text-anchor="middle" x="1124" y="-833.79" font-family="Times,serif" font-size="32.00">ε_15</text>
<text text-anchor="middle" x="1124" y="-798.79" font-family="Times,serif" font-size="32.00">=&gt;8 4</text>
</g>
<!-- 8&#45;&gt;6 -->
<g id="edge37" class="edge">
<title>8&#45;&gt;6</title>
<path fill="none" stroke="#000000" d="M1244.86,-506.35C1236.24,-498.87 1227.2,-489.23 1222,-478.39 1204.32,-441.55 1229.19,-327.57 1204,-295.39 1150.9,-227.56 1042.78,-210.74 986.26,-206.65"/>
<polygon fill="#000000" stroke="#000000" points="986.2,-203.14 976,-206 985.76,-210.12 986.2,-203.14"/>
<text text-anchor="middle" x="1124" y="-339.79" font-family="Times,serif" font-size="32.00">ε_16</text>
<text text-anchor="middle" x="1124" y="-304.79" font-family="Times,serif" font-size="32.00">=&gt;8 6</text>
</g>
<!-- 8&#45;&gt;7 -->
<g id="edge38" class="edge">
<title>8&#45;&gt;7</title>
<path fill="none" stroke="#000000" d="M1241.59,-529.04C1185.25,-543.79 1049.73,-579.28 985.24,-596.16"/>
<polygon fill="#000000" stroke="#000000" points="984.31,-592.79 975.53,-598.71 986.09,-599.56 984.31,-592.79"/>
<text text-anchor="middle" x="1124" y="-623.79" font-family="Times,serif" font-size="32.00">ε_17</text>
<text text-anchor="middle" x="1124" y="-588.79" font-family="Times,serif" font-size="32.00">=&gt;8 7</text>
</g>
<!-- 9 -->
<g id="node17" class="node">
<title>9</title>
<ellipse fill="none" stroke="black" cx="1491" cy="-345.39" rx="27" ry="30.31"/>
<text text-anchor="middle" x="1491" y="-337.29" font-family="Times,serif" font-size="32.00">9</text>
</g>
<!-- 9&#45;&gt;4 -->
<g id="edge25" class="edge">
<title>9&#45;&gt;4</title>
<path fill="none" stroke="#000000" d="M1464.47,-351.38C1430.32,-359.25 1367.85,-373.15 1314,-382.39 1194.68,-402.86 1127.3,-330.54 1044,-418.39 1026.67,-436.67 1031.68,-619.85 1026,-644.39 1012.76,-701.64 985.52,-764.32 967.51,-802.25"/>
<polygon fill="#000000" stroke="#000000" points="964.32,-800.81 963.14,-811.34 970.63,-803.84 964.32,-800.81"/>
<text text-anchor="middle" x="1268" y="-430.79" font-family="Times,serif" font-size="32.00">ε_7</text>
<text text-anchor="middle" x="1268" y="-395.79" font-family="Times,serif" font-size="32.00">=&gt;9 4</text>
</g>
<!-- 9&#45;&gt;6 -->
<g id="edge27" class="edge">
<title>9&#45;&gt;6</title>
<path fill="none" stroke="#000000" d="M1479.94,-317.4C1458.86,-263.55 1404.4,-146.76 1314,-100.39 1198.3,-41.05 1044.21,-135.98 980.03,-182.3"/>
<polygon fill="#000000" stroke="#000000" points="977.58,-179.76 971.59,-188.49 981.72,-185.4 977.58,-179.76"/>
<text text-anchor="middle" x="1268" y="-144.79" font-family="Times,serif" font-size="32.00">ε_8</text>
<text text-anchor="middle" x="1268" y="-109.79" font-family="Times,serif" font-size="32.00">=&gt;9 6</text>
</g>
<!-- 9&#45;&gt;7 -->
<g id="edge28" class="edge">
<title>9&#45;&gt;7</title>
<path fill="none" stroke="#000000" d="M1464.86,-337.52C1386.02,-314.58 1143.02,-257.45 1044,-390.39 1004.94,-442.82 1056.08,-478.34 1026,-536.39 1015.73,-556.2 997.34,-573.13 981.21,-585.27"/>
<polygon fill="#000000" stroke="#000000" points="979.1,-582.47 973.05,-591.16 983.2,-588.15 979.1,-582.47"/>
<text text-anchor="middle" x="1268" y="-352.79" font-family="Times,serif" font-size="32.00">ε_9</text>
<text text-anchor="middle" x="1268" y="-317.79" font-family="Times,serif" font-size="32.00">=&gt;9 7</text>
</g>
<!-- 9&#45;&gt;8 -->
<g id="edge29" class="edge">
<title>9&#45;&gt;8</title>
<path fill="none" stroke="#000000" d="M1468.97,-363.47C1456.59,-373.29 1440.22,-384.91 1424,-392.39 1385.72,-410.03 1362.3,-386.09 1332,-415.39 1311.07,-435.64 1328.91,-453.38 1314,-478.39 1309.75,-485.52 1304.06,-492.29 1298.17,-498.29"/>
<polygon fill="#000000" stroke="#000000" points="1295.49,-496 1290.67,-505.44 1300.32,-501.07 1295.49,-496"/>
<text text-anchor="middle" x="1378" y="-459.79" font-family="Times,serif" font-size="32.00">ε_10</text>
<text text-anchor="middle" x="1378" y="-424.79" font-family="Times,serif" font-size="32.00">=&gt;9 8</text>
</g>
<!-- z2 -->
<g id="node18" class="node">
<title>z2</title>
<ellipse fill="none" stroke="black" stroke-dasharray="5,2" cx="1717" cy="-345.39" rx="27" ry="18"/>
</g>
<!-- z2&#45;&gt;9 -->
<g id="edge26" class="edge">
<title>z2&#45;&gt;9</title>
<path fill="none" stroke="#000000" d="M1689.87,-345.39C1650.01,-345.39 1573.91,-345.39 1528.59,-345.39"/>
<polygon fill="#000000" stroke="#000000" points="1528.31,-341.89 1518.31,-345.39 1528.31,-348.89 1528.31,-341.89"/>
<text text-anchor="middle" x="1615" y="-389.79" font-family="Times,serif" font-size="32.00">dance</text>
<text text-anchor="middle" x="1615" y="-354.79" font-family="Times,serif" font-size="32.00">9</text>
</g>
<!-- 10&#45;&gt;4 -->
<g id="edge30" class="edge">
<title>10&#45;&gt;4</title>
<path fill="none" stroke="#000000" d="M1478.9,-646.07C1456.74,-698.85 1401.48,-810.18 1314,-856.39 1205.42,-913.73 1052.32,-873.23 984.57,-850.27"/>
<polygon fill="#000000" stroke="#000000" points="985.42,-846.86 974.83,-846.89 983.12,-853.47 985.42,-846.86"/>
<text text-anchor="middle" x="1268" y="-926.79" font-family="Times,serif" font-size="32.00">ε_11</text>
<text text-anchor="middle" x="1268" y="-891.79" font-family="Times,serif" font-size="32.00">=&gt;10 4</text>
</g>
<!-- 10&#45;&gt;6 -->
<g id="edge32" class="edge">
<title>10&#45;&gt;6</title>
<path fill="none" stroke="#000000" d="M1461.16,-602.33C1453.72,-597.03 1446.53,-590.37 1442,-582.39 1399.23,-507.1 1453.96,-469.63 1424,-388.39 1394.64,-308.79 1385.3,-278.36 1314,-232.39 1210.91,-165.93 1055.62,-184.53 986,-197.56"/>
<polygon fill="#000000" stroke="#000000" points="985.12,-194.17 975.97,-199.51 986.46,-201.04 985.12,-194.17"/>
<text text-anchor="middle" x="1268" y="-276.79" font-family="Times,serif" font-size="32.00">ε_12</text>
<text text-anchor="middle" x="1268" y="-241.79" font-family="Times,serif" font-size="32.00">=&gt;10 6</text>
</g>
<!-- 10&#45;&gt;7 -->
<g id="edge33" class="edge">
<title>10&#45;&gt;7</title>
<path fill="none" stroke="#000000" d="M1475.59,-644.82C1464.28,-663.16 1446.66,-685.79 1424,-696.39 1386.96,-713.71 1372.78,-699.42 1332,-696.39 1202.94,-686.81 1167.24,-692.89 1044,-653.39 1022.31,-646.44 999.51,-634.92 981.8,-624.9"/>
<polygon fill="#000000" stroke="#000000" points="983.45,-621.81 973.04,-619.84 979.95,-627.87 983.45,-621.81"/>
<text text-anchor="middle" x="1268" y="-739.79" font-family="Times,serif" font-size="32.00">ε_13</text>
<text text-anchor="middle" x="1268" y="-704.79" font-family="Times,serif" font-size="32.00">=&gt;10 7</text>
</g>
<!-- 10&#45;&gt;8 -->
<g id="edge34" class="edge">
<title>10&#45;&gt;8</title>
<path fill="none" stroke="#000000" d="M1464.64,-597.62C1456.7,-590.57 1448.36,-582.19 1442,-573.39 1430.58,-557.59 1439.99,-544.55 1424,-533.39 1389.12,-509.04 1338.4,-510.51 1304.59,-515.24"/>
<polygon fill="#000000" stroke="#000000" points="1304.02,-511.78 1294.67,-516.78 1305.09,-518.7 1304.02,-511.78"/>
<text text-anchor="middle" x="1378" y="-577.79" font-family="Times,serif" font-size="32.00">ε_14</text>
<text text-anchor="middle" x="1378" y="-542.79" font-family="Times,serif" font-size="32.00">=&gt;10 8</text>
</g>
</g>
</svg>
