<?xml version="1.0" encoding="UTF-8" standalone="no"?>
<!DOCTYPE svg PUBLIC "-//W3C//DTD SVG 1.1//EN"
 "http://www.w3.org/Graphics/SVG/1.1/DTD/svg11.dtd">
<!-- Generated by graphviz version 2.47.1 (20210417.1919)
 -->
<!-- Title: G Pages: 1 -->
<svg width="1864pt" height="978pt"
 viewBox="0.00 0.00 1864.00 978.41" xmlns="http://www.w3.org/2000/svg" xmlns:xlink="http://www.w3.org/1999/xlink">
<g id="graph0" class="graph" transform="scale(1 1) rotate(0) translate(4 974.41)">
<title>G</title>
<polygon fill="white" stroke="transparent" points="-4,4 -4,-974.41 1860,-974.41 1860,4 -4,4"/>
<text text-anchor="middle" x="928" y="-13.4" font-family="Times,serif" font-size="32.00">single contraction: 7 → 6</text>
<!-- t -->
<g id="node1" class="node">
<title>t</title>
<ellipse fill="lightgray" stroke="black" cx="27" cy="-586.41" rx="27" ry="30.31"/>
<text text-anchor="middle" x="27" y="-578.31" font-family="Times,serif" font-size="32.00">t</text>
</g>
<!-- z0 -->
<g id="node2" class="node">
<title>z0</title>
<ellipse fill="none" stroke="black" stroke-dasharray="5,2" cx="1829" cy="-519.41" rx="27" ry="18"/>
</g>
<!-- d -->
<g id="node3" class="node">
<title>d</title>
<ellipse fill="none" stroke="black" cx="1669" cy="-519.41" rx="27" ry="30.31"/>
<text text-anchor="middle" x="1669" y="-511.31" font-family="Times,serif" font-size="32.00">d</text>
</g>
<!-- z0&#45;&gt;d -->
<g id="edge1" class="edge">
<title>z0&#45;&gt;d</title>
<path fill="none" stroke="#000000" d="M1801.91,-519.41C1775.84,-519.41 1735.53,-519.41 1706.34,-519.41"/>
<polygon fill="#000000" stroke="#000000" points="1706.13,-515.91 1696.13,-519.41 1706.13,-522.91 1706.13,-515.91"/>
<text text-anchor="middle" x="1749" y="-563.81" font-family="Times,serif" font-size="32.00">Mary</text>
<text text-anchor="middle" x="1749" y="-528.81" font-family="Times,serif" font-size="32.00">d &#45;k</text>
</g>
<!-- 6 -->
<g id="node14" class="node">
<title>6</title>
<ellipse fill="none" stroke="black" cx="1260" cy="-444.41" rx="27" ry="30.31"/>
<text text-anchor="middle" x="1260" y="-436.31" font-family="Times,serif" font-size="32.00">6</text>
</g>
<!-- d&#45;&gt;6 -->
<g id="edge30" class="edge">
<title>d&#45;&gt;6</title>
<path fill="none" stroke="#000000" d="M1642.38,-526.29C1581.79,-541.09 1426.54,-570.38 1316,-515.41 1300.54,-507.72 1288.16,-493.39 1279.1,-479.61"/>
<polygon fill="#000000" stroke="#000000" points="1281.84,-477.39 1273.61,-470.71 1275.88,-481.06 1281.84,-477.39"/>
<text text-anchor="middle" x="1459" y="-592.81" font-family="Times,serif" font-size="32.00">praise</text>
<text text-anchor="middle" x="1459" y="-557.81" font-family="Times,serif" font-size="32.00">=d *k 6</text>
</g>
<!-- 8 -->
<g id="node17" class="node">
<title>8</title>
<ellipse fill="none" stroke="black" cx="1459" cy="-351.41" rx="27" ry="30.31"/>
<text text-anchor="middle" x="1459" y="-343.31" font-family="Times,serif" font-size="32.00">8</text>
</g>
<!-- d&#45;&gt;8 -->
<g id="edge27" class="edge">
<title>d&#45;&gt;8</title>
<path fill="none" stroke="#000000" d="M1652.66,-494.69C1648.69,-487.41 1644.75,-479.28 1642,-471.41 1626.95,-428.37 1657.21,-401.65 1624,-370.41 1590.08,-338.5 1533.17,-339.44 1496.1,-344.38"/>
<polygon fill="#000000" stroke="#000000" points="1495.11,-340.99 1485.74,-345.94 1496.15,-347.91 1495.11,-340.99"/>
<text text-anchor="middle" x="1575" y="-414.81" font-family="Times,serif" font-size="32.00">hug</text>
<text text-anchor="middle" x="1575" y="-379.81" font-family="Times,serif" font-size="32.00">=d *k 8</text>
</g>
<!-- 0 -->
<g id="node4" class="node">
<title>0</title>
<ellipse fill="none" stroke="black" cx="229" cy="-494.41" rx="27" ry="30.31"/>
<text text-anchor="middle" x="229" y="-486.31" font-family="Times,serif" font-size="32.00">0</text>
</g>
<!-- 0&#45;&gt;t -->
<g id="edge2" class="edge">
<title>0&#45;&gt;t</title>
<path fill="none" stroke="#000000" d="M203.54,-505C172.7,-518.45 118.14,-542.53 72,-564.41 68.45,-566.09 64.77,-567.87 61.1,-569.67"/>
<polygon fill="#000000" stroke="#000000" points="59.53,-566.54 52.12,-574.12 62.63,-572.82 59.53,-566.54"/>
<text text-anchor="middle" x="128" y="-608.81" font-family="Times,serif" font-size="32.00">s</text>
<text text-anchor="middle" x="128" y="-573.81" font-family="Times,serif" font-size="32.00">=&gt;0 +k t</text>
</g>
<!-- v -->
<g id="node5" class="node">
<title>v</title>
<ellipse fill="none" stroke="black" cx="401" cy="-482.41" rx="27" ry="30.31"/>
<text text-anchor="middle" x="401" y="-474.31" font-family="Times,serif" font-size="32.00">v</text>
</g>
<!-- v&#45;&gt;0 -->
<g id="edge3" class="edge">
<title>v&#45;&gt;0</title>
<path fill="none" stroke="#000000" d="M373.82,-480.82C348.25,-479.69 308.29,-479.05 274,-483.41 271.14,-483.77 268.21,-484.25 265.27,-484.81"/>
<polygon fill="#000000" stroke="#000000" points="264.42,-481.42 255.4,-486.97 265.91,-488.26 264.42,-481.42"/>
<text text-anchor="middle" x="315" y="-527.81" font-family="Times,serif" font-size="32.00">will</text>
<text text-anchor="middle" x="315" y="-492.81" font-family="Times,serif" font-size="32.00">=v 0</text>
</g>
<!-- 1 -->
<g id="node6" class="node">
<title>1</title>
<ellipse fill="none" stroke="black" cx="229" cy="-714.41" rx="27" ry="30.31"/>
<text text-anchor="middle" x="229" y="-706.31" font-family="Times,serif" font-size="32.00">1</text>
</g>
<!-- v&#45;&gt;1 -->
<g id="edge5" class="edge">
<title>v&#45;&gt;1</title>
<path fill="none" stroke="#000000" d="M388.68,-509.65C383.67,-522.46 378.01,-538.05 374,-552.41 362.56,-593.37 385.49,-615.75 356,-646.41 330.06,-673.36 306.21,-646.38 274,-665.41 266.29,-669.96 259.17,-676.32 253.02,-682.94"/>
<polygon fill="#000000" stroke="#000000" points="250.15,-680.91 246.25,-690.76 255.44,-685.49 250.15,-680.91"/>
<text text-anchor="middle" x="315" y="-709.81" font-family="Times,serif" font-size="32.00">will_1</text>
<text text-anchor="middle" x="315" y="-674.81" font-family="Times,serif" font-size="32.00">=v 1</text>
</g>
<!-- 1&#45;&gt;t -->
<g id="edge4" class="edge">
<title>1&#45;&gt;t</title>
<path fill="none" stroke="#000000" d="M203.2,-704.92C171.05,-691.93 114.12,-666.51 72,-634.41 65.3,-629.3 58.77,-623.1 52.88,-616.87"/>
<polygon fill="#000000" stroke="#000000" points="55.11,-614.11 45.8,-609.05 49.92,-618.81 55.11,-614.11"/>
<text text-anchor="middle" x="128" y="-739.81" font-family="Times,serif" font-size="32.00">d</text>
<text text-anchor="middle" x="128" y="-704.81" font-family="Times,serif" font-size="32.00">=&gt;1 +k t</text>
</g>
<!-- 2 -->
<g id="node7" class="node">
<title>2</title>
<ellipse fill="none" stroke="black" cx="401" cy="-591.41" rx="27" ry="30.31"/>
<text text-anchor="middle" x="401" y="-583.31" font-family="Times,serif" font-size="32.00">2</text>
</g>
<!-- 2&#45;&gt;0 -->
<g id="edge6" class="edge">
<title>2&#45;&gt;0</title>
<path fill="none" stroke="#000000" d="M374.95,-582.6C368.78,-580.5 362.17,-578.32 356,-576.41 319.85,-565.18 305.2,-574.83 274,-553.41 264.48,-546.87 256.2,-537.6 249.47,-528.34"/>
<polygon fill="#000000" stroke="#000000" points="252.26,-526.21 243.74,-519.91 246.47,-530.15 252.26,-526.21"/>
<text text-anchor="middle" x="315" y="-620.81" font-family="Times,serif" font-size="32.00">e</text>
<text text-anchor="middle" x="315" y="-585.81" font-family="Times,serif" font-size="32.00">=&gt;2 0</text>
</g>
<!-- perf -->
<g id="node8" class="node">
<title>perf</title>
<ellipse fill="none" stroke="black" cx="641" cy="-591.41" rx="48.17" ry="30.31"/>
<text text-anchor="middle" x="641" y="-583.31" font-family="Times,serif" font-size="32.00">perf</text>
</g>
<!-- perf&#45;&gt;v -->
<g id="edge10" class="edge">
<title>perf&#45;&gt;v</title>
<path fill="none" stroke="#000000" d="M606.84,-569.67C598.18,-563.12 589.26,-555.5 582,-547.41 571.62,-535.83 576.64,-526.46 564,-517.41 526.9,-490.83 473.59,-483.75 438.4,-482.21"/>
<polygon fill="#000000" stroke="#000000" points="438.2,-478.7 428.1,-481.89 437.99,-485.7 438.2,-478.7"/>
<text text-anchor="middle" x="505" y="-561.81" font-family="Times,serif" font-size="32.00">have</text>
<text text-anchor="middle" x="505" y="-526.81" font-family="Times,serif" font-size="32.00">=perf v</text>
</g>
<!-- perf&#45;&gt;2 -->
<g id="edge7" class="edge">
<title>perf&#45;&gt;2</title>
<path fill="none" stroke="#000000" d="M592.69,-591.41C547.3,-591.41 479.72,-591.41 438.39,-591.41"/>
<polygon fill="#000000" stroke="#000000" points="438.22,-587.91 428.22,-591.41 438.22,-594.91 438.22,-587.91"/>
<text text-anchor="middle" x="505" y="-635.81" font-family="Times,serif" font-size="32.00">hav</text>
<text text-anchor="middle" x="505" y="-600.81" font-family="Times,serif" font-size="32.00">=perf 2</text>
</g>
<!-- 3 -->
<g id="node9" class="node">
<title>3</title>
<ellipse fill="none" stroke="black" cx="401" cy="-761.41" rx="27" ry="30.31"/>
<text text-anchor="middle" x="401" y="-753.31" font-family="Times,serif" font-size="32.00">3</text>
</g>
<!-- perf&#45;&gt;3 -->
<g id="edge9" class="edge">
<title>perf&#45;&gt;3</title>
<path fill="none" stroke="#000000" d="M617.56,-618.18C603.46,-633.64 584.18,-652.52 564,-665.41 516.69,-695.61 491.95,-678.18 446,-710.41 438.27,-715.83 431.03,-722.91 424.75,-730.06"/>
<polygon fill="#000000" stroke="#000000" points="422.04,-727.84 418.33,-737.77 427.42,-732.32 422.04,-727.84"/>
<text text-anchor="middle" x="505" y="-754.81" font-family="Times,serif" font-size="32.00">hav_1</text>
<text text-anchor="middle" x="505" y="-719.81" font-family="Times,serif" font-size="32.00">=perf 3</text>
</g>
<!-- 3&#45;&gt;1 -->
<g id="edge8" class="edge">
<title>3&#45;&gt;1</title>
<path fill="none" stroke="#000000" d="M373.75,-759.46C347.79,-756.94 307.23,-751.34 274,-739.41 270,-737.97 265.94,-736.18 261.99,-734.23"/>
<polygon fill="#000000" stroke="#000000" points="263.5,-731.07 253.03,-729.46 260.21,-737.25 263.5,-731.07"/>
<text text-anchor="middle" x="315" y="-800.81" font-family="Times,serif" font-size="32.00">e_1</text>
<text text-anchor="middle" x="315" y="-765.81" font-family="Times,serif" font-size="32.00">=&gt;3 1</text>
</g>
<!-- prog -->
<g id="node10" class="node">
<title>prog</title>
<ellipse fill="none" stroke="black" cx="949" cy="-655.41" rx="52.15" ry="30.31"/>
<text text-anchor="middle" x="949" y="-647.31" font-family="Times,serif" font-size="32.00">prog</text>
</g>
<!-- prog&#45;&gt;v -->
<g id="edge13" class="edge">
<title>prog&#45;&gt;v</title>
<path fill="none" stroke="#000000" d="M907.35,-636.55C894.89,-629.35 881.88,-620.23 872,-609.41 859.67,-595.9 866.63,-585.63 854,-572.41 806.46,-522.65 774.3,-537.97 718,-498.41 709.24,-492.25 709.96,-486.32 700,-482.41 610.92,-447.41 494.98,-462.99 437.51,-474.33"/>
<polygon fill="#000000" stroke="#000000" points="436.57,-470.95 427.48,-476.38 437.98,-477.8 436.57,-470.95"/>
<text text-anchor="middle" x="641" y="-526.81" font-family="Times,serif" font-size="32.00">be</text>
<text text-anchor="middle" x="641" y="-491.81" font-family="Times,serif" font-size="32.00">=prog v</text>
</g>
<!-- prog&#45;&gt;2 -->
<g id="edge11" class="edge">
<title>prog&#45;&gt;2</title>
<path fill="none" stroke="#000000" d="M897.8,-662.3C786.37,-676.61 522.25,-704.86 446,-662.41 432.85,-655.08 423.13,-642.03 416.22,-629.09"/>
<polygon fill="#000000" stroke="#000000" points="419.2,-627.23 411.67,-619.77 412.91,-630.29 419.2,-627.23"/>
<text text-anchor="middle" x="641" y="-729.81" font-family="Times,serif" font-size="32.00">b</text>
<text text-anchor="middle" x="641" y="-694.81" font-family="Times,serif" font-size="32.00">=prog 2</text>
</g>
<!-- prog&#45;&gt;perf -->
<g id="edge14" class="edge">
<title>prog&#45;&gt;perf</title>
<path fill="none" stroke="#000000" d="M908.73,-635.52C896.48,-628.58 883.25,-620.29 872,-611.41 862.87,-604.19 864.67,-597.03 854,-592.41 804.02,-570.77 740.99,-573.81 696.69,-580.23"/>
<polygon fill="#000000" stroke="#000000" points="696.04,-576.79 686.7,-581.78 697.11,-583.71 696.04,-576.79"/>
<text text-anchor="middle" x="786" y="-636.81" font-family="Times,serif" font-size="32.00">ben</text>
<text text-anchor="middle" x="786" y="-601.81" font-family="Times,serif" font-size="32.00">=prog perf</text>
</g>
<!-- prog&#45;&gt;3 -->
<g id="edge12" class="edge">
<title>prog&#45;&gt;3</title>
<path fill="none" stroke="#000000" d="M909.12,-675.22C861.18,-698.83 776.61,-737.78 700,-759.41 641.14,-776.02 624.98,-775.73 564,-780.41 511.71,-784.42 497.36,-791.02 446,-780.41 442.55,-779.69 439.05,-778.7 435.59,-777.53"/>
<polygon fill="#000000" stroke="#000000" points="436.68,-774.2 426.09,-773.89 434.17,-780.74 436.68,-774.2"/>
<text text-anchor="middle" x="641" y="-822.81" font-family="Times,serif" font-size="32.00">b_1</text>
<text text-anchor="middle" x="641" y="-787.81" font-family="Times,serif" font-size="32.00">=prog 3</text>
</g>
<!-- 4 -->
<g id="node11" class="node">
<title>4</title>
<ellipse fill="none" stroke="black" cx="949" cy="-318.41" rx="27" ry="30.31"/>
<text text-anchor="middle" x="949" y="-310.31" font-family="Times,serif" font-size="32.00">4</text>
</g>
<!-- 4&#45;&gt;0 -->
<g id="edge15" class="edge">
<title>4&#45;&gt;0</title>
<path fill="none" stroke="#000000" d="M922.07,-316.11C846.4,-310.32 620.17,-299.42 446,-357.41 372.05,-382.03 297.97,-437.28 258.7,-469.6"/>
<polygon fill="#000000" stroke="#000000" points="256.3,-467.04 250.86,-476.12 260.78,-472.41 256.3,-467.04"/>
<text text-anchor="middle" x="505" y="-401.81" font-family="Times,serif" font-size="32.00">ε_0</text>
<text text-anchor="middle" x="505" y="-366.81" font-family="Times,serif" font-size="32.00">=&gt;4 =d 0</text>
</g>
<!-- 5 -->
<g id="node12" class="node">
<title>5</title>
<ellipse fill="none" stroke="black" cx="1459" cy="-444.41" rx="27" ry="30.31"/>
<text text-anchor="middle" x="1459" y="-436.31" font-family="Times,serif" font-size="32.00">5</text>
</g>
<!-- 5&#45;&gt;4 -->
<g id="edge16" class="edge">
<title>5&#45;&gt;4</title>
<path fill="none" stroke="#000000" d="M1438.02,-425.2C1428.64,-415.42 1417.83,-402.97 1410,-390.41 1398.82,-372.48 1408.83,-359.18 1392,-346.41 1328.84,-298.44 1080.44,-309.6 986.37,-315.74"/>
<polygon fill="#000000" stroke="#000000" points="985.94,-312.26 976.2,-316.42 986.41,-319.24 985.94,-312.26"/>
<text text-anchor="middle" x="1260" y="-361.81" font-family="Times,serif" font-size="32.00">ε_1</text>
<text text-anchor="middle" x="1260" y="-326.81" font-family="Times,serif" font-size="32.00">=&gt;5 4</text>
</g>
<!-- 5&#45;&gt;6 -->
<g id="edge19" class="edge">
<title>5&#45;&gt;6</title>
<path fill="none" stroke="#000000" d="M1431.84,-444.41C1397.4,-444.41 1336.66,-444.41 1297.65,-444.41"/>
<polygon fill="#000000" stroke="#000000" points="1297.27,-440.91 1287.27,-444.41 1297.27,-447.91 1297.27,-440.91"/>
<text text-anchor="middle" x="1354" y="-488.81" font-family="Times,serif" font-size="32.00">ε_3</text>
<text text-anchor="middle" x="1354" y="-453.81" font-family="Times,serif" font-size="32.00">=&gt;5 6</text>
</g>
<!-- z1 -->
<g id="node13" class="node">
<title>z1</title>
<ellipse fill="none" stroke="black" stroke-dasharray="5,2" cx="1669" cy="-444.41" rx="27" ry="18"/>
</g>
<!-- z1&#45;&gt;5 -->
<g id="edge17" class="edge">
<title>z1&#45;&gt;5</title>
<path fill="none" stroke="#000000" d="M1641.66,-444.41C1604.85,-444.41 1537.9,-444.41 1496.36,-444.41"/>
<polygon fill="#000000" stroke="#000000" points="1496.13,-440.91 1486.13,-444.41 1496.13,-447.91 1496.13,-440.91"/>
<text text-anchor="middle" x="1575" y="-488.81" font-family="Times,serif" font-size="32.00">laugh</text>
<text text-anchor="middle" x="1575" y="-453.81" font-family="Times,serif" font-size="32.00">5</text>
</g>
<!-- 6&#45;&gt;v -->
<g id="edge20" class="edge">
<title>6&#45;&gt;v</title>
<path fill="none" stroke="#000000" d="M1233.08,-441.66C1155.11,-433.79 915.95,-412.44 718,-424.41 596.45,-431.75 561.64,-419.25 446,-457.41 441.87,-458.77 437.69,-460.54 433.64,-462.51"/>
<polygon fill="#000000" stroke="#000000" points="431.68,-459.59 424.49,-467.37 434.96,-465.77 431.68,-459.59"/>
<text text-anchor="middle" x="786" y="-468.81" font-family="Times,serif" font-size="32.00">ε_4</text>
<text text-anchor="middle" x="786" y="-433.81" font-family="Times,serif" font-size="32.00">=&gt;6 =d v</text>
</g>
<!-- 6&#45;&gt;1 -->
<g id="edge18" class="edge">
<title>6&#45;&gt;1</title>
<path fill="none" stroke="#000000" d="M1259.28,-474.81C1258.38,-526.41 1250.49,-632.7 1204,-706.41 1128.22,-826.55 1092.05,-900.41 950,-900.41 950,-900.41 950,-900.41 400,-900.41 335.94,-900.41 315.91,-878.86 274,-830.41 255.26,-808.74 244.12,-778.28 237.73,-754"/>
<polygon fill="#000000" stroke="#000000" points="241.07,-752.9 235.28,-744.02 234.27,-754.57 241.07,-752.9"/>
<text text-anchor="middle" x="641" y="-944.81" font-family="Times,serif" font-size="32.00">ε_2</text>
<text text-anchor="middle" x="641" y="-909.81" font-family="Times,serif" font-size="32.00">=&gt;6 =d 1</text>
</g>
<!-- 6&#45;&gt;perf -->
<g id="edge22" class="edge">
<title>6&#45;&gt;perf</title>
<path fill="none" stroke="#000000" d="M1233.35,-450.35C1155.65,-468.39 916.11,-524.21 718,-572.41 710.91,-574.13 703.46,-575.97 696.11,-577.79"/>
<polygon fill="#000000" stroke="#000000" points="695.04,-574.45 686.18,-580.26 696.73,-581.24 695.04,-574.45"/>
<text text-anchor="middle" x="949" y="-579.81" font-family="Times,serif" font-size="32.00">n</text>
<text text-anchor="middle" x="949" y="-544.81" font-family="Times,serif" font-size="32.00">=&gt;6 =d perf</text>
</g>
<!-- 6&#45;&gt;prog -->
<g id="edge21" class="edge">
<title>6&#45;&gt;prog</title>
<path fill="none" stroke="#000000" d="M1250.39,-473.36C1242,-497.13 1227.09,-530.23 1204,-551.41 1148.52,-602.3 1064.76,-629.99 1008.76,-643.73"/>
<polygon fill="#000000" stroke="#000000" points="1007.91,-640.34 998.99,-646.06 1009.53,-647.15 1007.91,-640.34"/>
<text text-anchor="middle" x="1124" y="-676.81" font-family="Times,serif" font-size="32.00">ing</text>
<text text-anchor="middle" x="1124" y="-641.81" font-family="Times,serif" font-size="32.00">=&gt;6 =d prog</text>
</g>
<!-- 6&#45;&gt;4 -->
<g id="edge29" class="edge">
<title>6&#45;&gt;4</title>
<path fill="none" stroke="#000000" d="M1241.61,-422.01C1235.05,-413.06 1227.79,-402.5 1222,-392.41 1212.3,-375.49 1219.63,-364.06 1204,-352.41 1199.66,-349.17 1055.27,-331.22 986.17,-322.79"/>
<polygon fill="#000000" stroke="#000000" points="986.5,-319.3 976.15,-321.57 985.65,-326.25 986.5,-319.3"/>
<text text-anchor="middle" x="1124" y="-396.81" font-family="Times,serif" font-size="32.00">ε_9</text>
<text text-anchor="middle" x="1124" y="-361.81" font-family="Times,serif" font-size="32.00">=&gt;6 4</text>
</g>
<!-- 7 -->
<g id="node15" class="node">
<title>7</title>
<ellipse fill="none" stroke="black" cx="1459" cy="-111.41" rx="27" ry="30.31"/>
<text text-anchor="middle" x="1459" y="-103.31" font-family="Times,serif" font-size="32.00">7</text>
</g>
<!-- 7&#45;&gt;4 -->
<g id="edge23" class="edge">
<title>7&#45;&gt;4</title>
<path fill="none" stroke="#000000" d="M1431.82,-111.42C1362.19,-112.7 1169.16,-124.48 1044,-212.41 1015.32,-232.55 989.44,-263.12 972.14,-286.25"/>
<polygon fill="#000000" stroke="#000000" points="969.25,-284.28 966.16,-294.41 974.89,-288.41 969.25,-284.28"/>
<text text-anchor="middle" x="1260" y="-180.81" font-family="Times,serif" font-size="32.00">ε_5</text>
<text text-anchor="middle" x="1260" y="-145.81" font-family="Times,serif" font-size="32.00">=&gt;7 4</text>
</g>
<!-- 7&#45;&gt;6 -->
<g id="edge25" class="edge">
<title>7&#45;&gt;6</title>
<path fill="none" stroke="#000000" d="M1436.75,-128.91C1404.76,-156.59 1344.9,-213.78 1316,-276.41 1294.14,-323.78 1317.65,-344.08 1298,-392.41 1294.86,-400.13 1290.37,-407.8 1285.59,-414.79"/>
<polygon fill="#000000" stroke="#000000" points="1282.51,-413.08 1279.47,-423.23 1288.18,-417.19 1282.51,-413.08"/>
<text text-anchor="middle" x="1354" y="-320.81" font-family="Times,serif" font-size="32.00">ε_6</text>
<text text-anchor="middle" x="1354" y="-285.81" font-family="Times,serif" font-size="32.00">=&gt;7 6</text>
</g>
<!-- z2 -->
<g id="node16" class="node">
<title>z2</title>
<ellipse fill="none" stroke="black" stroke-dasharray="5,2" cx="1669" cy="-111.41" rx="27" ry="18"/>
</g>
<!-- z2&#45;&gt;7 -->
<g id="edge24" class="edge">
<title>z2&#45;&gt;7</title>
<path fill="none" stroke="#000000" d="M1641.66,-111.41C1604.85,-111.41 1537.9,-111.41 1496.36,-111.41"/>
<polygon fill="#000000" stroke="#000000" points="1496.13,-107.91 1486.13,-111.41 1496.13,-114.91 1496.13,-107.91"/>
<text text-anchor="middle" x="1575" y="-155.81" font-family="Times,serif" font-size="32.00">dance</text>
<text text-anchor="middle" x="1575" y="-120.81" font-family="Times,serif" font-size="32.00">7</text>
</g>
<!-- 8&#45;&gt;4 -->
<g id="edge26" class="edge">
<title>8&#45;&gt;4</title>
<path fill="none" stroke="#000000" d="M1439.7,-330.11C1412.42,-300.17 1357.83,-247 1298,-226.41 1183.39,-186.94 1042.68,-260.09 981.21,-297.86"/>
<polygon fill="#000000" stroke="#000000" points="979.36,-294.89 972.73,-303.16 983.07,-300.83 979.36,-294.89"/>
<text text-anchor="middle" x="1260" y="-270.81" font-family="Times,serif" font-size="32.00">ε_7</text>
<text text-anchor="middle" x="1260" y="-235.81" font-family="Times,serif" font-size="32.00">=&gt;8 4</text>
</g>
<!-- 8&#45;&gt;6 -->
<g id="edge28" class="edge">
<title>8&#45;&gt;6</title>
<path fill="none" stroke="#000000" d="M1431.96,-349.08C1401.91,-347.64 1352,-349.2 1316,-370.41 1313.62,-371.81 1297.77,-393.28 1283.69,-412.73"/>
<polygon fill="#000000" stroke="#000000" points="1280.82,-410.72 1277.81,-420.88 1286.5,-414.82 1280.82,-410.72"/>
<text text-anchor="middle" x="1354" y="-414.81" font-family="Times,serif" font-size="32.00">ε_8</text>
<text text-anchor="middle" x="1354" y="-379.81" font-family="Times,serif" font-size="32.00">=&gt;8 6</text>
</g>
</g>
</svg>
