<?xml version="1.0" encoding="UTF-8" standalone="no"?>
<!DOCTYPE svg PUBLIC "-//W3C//DTD SVG 1.1//EN"
 "http://www.w3.org/Graphics/SVG/1.1/DTD/svg11.dtd">
<!-- Generated by graphviz version 2.47.1 (20210417.1919)
 -->
<!-- Title: G Pages: 1 -->
<svg width="1818pt" height="757pt"
 viewBox="0.00 0.00 1818.00 757.00" xmlns="http://www.w3.org/2000/svg" xmlns:xlink="http://www.w3.org/1999/xlink">
<g id="graph0" class="graph" transform="scale(1 1) rotate(0) translate(4 753)">
<title>G</title>
<polygon fill="white" stroke="transparent" points="-4,4 -4,-753 1814,-753 1814,4 -4,4"/>
<text text-anchor="middle" x="905" y="-13.4" font-family="Times,serif" font-size="32.00">single contraction: 6 → 4</text>
<!-- t -->
<g id="node1" class="node">
<title>t</title>
<ellipse fill="lightgray" stroke="black" cx="27" cy="-356" rx="27" ry="30.31"/>
<text text-anchor="middle" x="27" y="-347.9" font-family="Times,serif" font-size="32.00">t</text>
</g>
<!-- z0 -->
<g id="node2" class="node">
<title>z0</title>
<ellipse fill="none" stroke="black" stroke-dasharray="5,2" cx="1783" cy="-530" rx="27" ry="18"/>
</g>
<!-- d -->
<g id="node3" class="node">
<title>d</title>
<ellipse fill="none" stroke="black" cx="1623" cy="-530" rx="27" ry="30.31"/>
<text text-anchor="middle" x="1623" y="-521.9" font-family="Times,serif" font-size="32.00">d</text>
</g>
<!-- z0&#45;&gt;d -->
<g id="edge1" class="edge">
<title>z0&#45;&gt;d</title>
<path fill="none" stroke="#000000" d="M1755.91,-530C1729.84,-530 1689.53,-530 1660.34,-530"/>
<polygon fill="#000000" stroke="#000000" points="1660.13,-526.5 1650.13,-530 1660.13,-533.5 1660.13,-526.5"/>
<text text-anchor="middle" x="1703" y="-574.4" font-family="Times,serif" font-size="32.00">Mary</text>
<text text-anchor="middle" x="1703" y="-539.4" font-family="Times,serif" font-size="32.00">d &#45;k</text>
</g>
<!-- 4 -->
<g id="node11" class="node">
<title>4</title>
<ellipse fill="none" stroke="black" cx="1225" cy="-441" rx="27" ry="30.31"/>
<text text-anchor="middle" x="1225" y="-432.9" font-family="Times,serif" font-size="32.00">4</text>
</g>
<!-- d&#45;&gt;4 -->
<g id="edge26" class="edge">
<title>d&#45;&gt;4</title>
<path fill="none" stroke="#000000" d="M1600.89,-547.48C1594.01,-552.16 1586.06,-556.58 1578,-559 1524.74,-574.97 1312.38,-585.61 1270,-556 1245.87,-539.14 1234.97,-507.14 1230.04,-481.17"/>
<polygon fill="#000000" stroke="#000000" points="1233.48,-480.48 1228.38,-471.19 1226.57,-481.63 1233.48,-480.48"/>
<text text-anchor="middle" x="1413" y="-618.4" font-family="Times,serif" font-size="32.00">praise</text>
<text text-anchor="middle" x="1413" y="-583.4" font-family="Times,serif" font-size="32.00">=d *k 4</text>
</g>
<!-- 7 -->
<g id="node16" class="node">
<title>7</title>
<ellipse fill="none" stroke="black" cx="1413" cy="-488" rx="27" ry="30.31"/>
<text text-anchor="middle" x="1413" y="-479.9" font-family="Times,serif" font-size="32.00">7</text>
</g>
<!-- d&#45;&gt;7 -->
<g id="edge25" class="edge">
<title>d&#45;&gt;7</title>
<path fill="none" stroke="#000000" d="M1604.13,-507.61C1596.89,-500.24 1587.9,-492.93 1578,-489 1536.39,-472.47 1484.03,-475.87 1449.82,-480.95"/>
<polygon fill="#000000" stroke="#000000" points="1449.13,-477.52 1439.81,-482.56 1450.24,-484.43 1449.13,-477.52"/>
<text text-anchor="middle" x="1529" y="-533.4" font-family="Times,serif" font-size="32.00">hug</text>
<text text-anchor="middle" x="1529" y="-498.4" font-family="Times,serif" font-size="32.00">=d *k 7</text>
</g>
<!-- 0 -->
<g id="node4" class="node">
<title>0</title>
<ellipse fill="none" stroke="black" cx="229" cy="-461" rx="27" ry="30.31"/>
<text text-anchor="middle" x="229" y="-452.9" font-family="Times,serif" font-size="32.00">0</text>
</g>
<!-- 0&#45;&gt;t -->
<g id="edge2" class="edge">
<title>0&#45;&gt;t</title>
<path fill="none" stroke="#000000" d="M202.18,-455.85C169.7,-448.49 113.19,-432.69 72,-405 64.57,-400 57.56,-393.47 51.42,-386.82"/>
<polygon fill="#000000" stroke="#000000" points="53.84,-384.27 44.63,-379.04 48.57,-388.87 53.84,-384.27"/>
<text text-anchor="middle" x="128" y="-495.4" font-family="Times,serif" font-size="32.00">s</text>
<text text-anchor="middle" x="128" y="-460.4" font-family="Times,serif" font-size="32.00">=&gt;0 +k t</text>
</g>
<!-- v -->
<g id="node5" class="node">
<title>v</title>
<ellipse fill="none" stroke="black" cx="401" cy="-391" rx="27" ry="30.31"/>
<text text-anchor="middle" x="401" y="-382.9" font-family="Times,serif" font-size="32.00">v</text>
</g>
<!-- v&#45;&gt;0 -->
<g id="edge3" class="edge">
<title>v&#45;&gt;0</title>
<path fill="none" stroke="#000000" d="M373.88,-393.31C342.15,-396.46 290.77,-402.79 274,-412 266.15,-416.31 258.98,-422.57 252.82,-429.19"/>
<polygon fill="#000000" stroke="#000000" points="249.94,-427.16 246.06,-437.02 255.24,-431.73 249.94,-427.16"/>
<text text-anchor="middle" x="315" y="-456.4" font-family="Times,serif" font-size="32.00">will</text>
<text text-anchor="middle" x="315" y="-421.4" font-family="Times,serif" font-size="32.00">=v 0</text>
</g>
<!-- 1 -->
<g id="node6" class="node">
<title>1</title>
<ellipse fill="none" stroke="black" cx="229" cy="-252" rx="27" ry="30.31"/>
<text text-anchor="middle" x="229" y="-243.9" font-family="Times,serif" font-size="32.00">1</text>
</g>
<!-- v&#45;&gt;1 -->
<g id="edge5" class="edge">
<title>v&#45;&gt;1</title>
<path fill="none" stroke="#000000" d="M388.96,-363.77C381.67,-349.05 370.73,-331.74 356,-321 325.61,-298.83 306.27,-319.33 274,-300 266.47,-295.49 259.46,-289.3 253.35,-282.87"/>
<polygon fill="#000000" stroke="#000000" points="255.87,-280.43 246.61,-275.29 250.64,-285.09 255.87,-280.43"/>
<text text-anchor="middle" x="315" y="-365.4" font-family="Times,serif" font-size="32.00">will_1</text>
<text text-anchor="middle" x="315" y="-330.4" font-family="Times,serif" font-size="32.00">=v 1</text>
</g>
<!-- 1&#45;&gt;t -->
<g id="edge4" class="edge">
<title>1&#45;&gt;t</title>
<path fill="none" stroke="#000000" d="M204.27,-264.34C168.56,-282.91 100.9,-318.09 60.59,-339.05"/>
<polygon fill="#000000" stroke="#000000" points="58.95,-335.96 51.7,-343.68 62.18,-342.17 58.95,-335.96"/>
<text text-anchor="middle" x="128" y="-375.4" font-family="Times,serif" font-size="32.00">d</text>
<text text-anchor="middle" x="128" y="-340.4" font-family="Times,serif" font-size="32.00">=&gt;1 +k t</text>
</g>
<!-- 2 -->
<g id="node7" class="node">
<title>2</title>
<ellipse fill="none" stroke="black" cx="401" cy="-508" rx="27" ry="30.31"/>
<text text-anchor="middle" x="401" y="-499.9" font-family="Times,serif" font-size="32.00">2</text>
</g>
<!-- 2&#45;&gt;0 -->
<g id="edge6" class="edge">
<title>2&#45;&gt;0</title>
<path fill="none" stroke="#000000" d="M373.75,-506.06C347.79,-503.53 307.23,-497.93 274,-486 270,-484.56 265.94,-482.78 261.99,-480.82"/>
<polygon fill="#000000" stroke="#000000" points="263.5,-477.67 253.03,-476.05 260.21,-483.84 263.5,-477.67"/>
<text text-anchor="middle" x="315" y="-547.4" font-family="Times,serif" font-size="32.00">e</text>
<text text-anchor="middle" x="315" y="-512.4" font-family="Times,serif" font-size="32.00">=&gt;2 0</text>
</g>
<!-- perf -->
<g id="node8" class="node">
<title>perf</title>
<ellipse fill="none" stroke="black" cx="617" cy="-411" rx="48.17" ry="30.31"/>
<text text-anchor="middle" x="617" y="-402.9" font-family="Times,serif" font-size="32.00">perf</text>
</g>
<!-- perf&#45;&gt;v -->
<g id="edge10" class="edge">
<title>perf&#45;&gt;v</title>
<path fill="none" stroke="#000000" d="M572.93,-398.35C562.26,-395.74 550.79,-393.37 540,-392 505.65,-387.64 466.09,-387.89 438.17,-388.93"/>
<polygon fill="#000000" stroke="#000000" points="437.91,-385.43 428.07,-389.36 438.2,-392.43 437.91,-385.43"/>
<text text-anchor="middle" x="493" y="-436.4" font-family="Times,serif" font-size="32.00">have</text>
<text text-anchor="middle" x="493" y="-401.4" font-family="Times,serif" font-size="32.00">=perf v</text>
</g>
<!-- perf&#45;&gt;2 -->
<g id="edge7" class="edge">
<title>perf&#45;&gt;2</title>
<path fill="none" stroke="#000000" d="M586.37,-434.44C572.86,-444.16 556.28,-454.82 540,-462 500.65,-479.36 486.24,-469.82 446,-485 442.21,-486.43 438.32,-488.11 434.51,-489.9"/>
<polygon fill="#000000" stroke="#000000" points="432.66,-486.92 425.26,-494.51 435.78,-493.18 432.66,-486.92"/>
<text text-anchor="middle" x="493" y="-529.4" font-family="Times,serif" font-size="32.00">hav</text>
<text text-anchor="middle" x="493" y="-494.4" font-family="Times,serif" font-size="32.00">=perf 2</text>
</g>
<!-- 3 -->
<g id="node9" class="node">
<title>3</title>
<ellipse fill="none" stroke="black" cx="401" cy="-229" rx="27" ry="30.31"/>
<text text-anchor="middle" x="401" y="-220.9" font-family="Times,serif" font-size="32.00">3</text>
</g>
<!-- perf&#45;&gt;3 -->
<g id="edge9" class="edge">
<title>perf&#45;&gt;3</title>
<path fill="none" stroke="#000000" d="M581.65,-390.23C572.99,-383.68 564.36,-375.82 558,-367 543.45,-346.82 555.51,-333.45 540,-314 512.7,-279.75 467.58,-255.73 436.4,-242.16"/>
<polygon fill="#000000" stroke="#000000" points="437.38,-238.77 426.81,-238.12 434.67,-245.22 437.38,-238.77"/>
<text text-anchor="middle" x="493" y="-358.4" font-family="Times,serif" font-size="32.00">hav_1</text>
<text text-anchor="middle" x="493" y="-323.4" font-family="Times,serif" font-size="32.00">=perf 3</text>
</g>
<!-- 3&#45;&gt;1 -->
<g id="edge8" class="edge">
<title>3&#45;&gt;1</title>
<path fill="none" stroke="#000000" d="M374.01,-225.82C348.23,-223.46 307.82,-221.87 274,-230 270.09,-230.94 266.14,-232.27 262.28,-233.83"/>
<polygon fill="#000000" stroke="#000000" points="260.65,-230.73 252.99,-238.05 263.54,-237.1 260.65,-230.73"/>
<text text-anchor="middle" x="315" y="-274.4" font-family="Times,serif" font-size="32.00">e_1</text>
<text text-anchor="middle" x="315" y="-239.4" font-family="Times,serif" font-size="32.00">=&gt;3 1</text>
</g>
<!-- prog -->
<g id="node10" class="node">
<title>prog</title>
<ellipse fill="none" stroke="black" cx="925" cy="-356" rx="52.15" ry="30.31"/>
<text text-anchor="middle" x="925" y="-347.9" font-family="Times,serif" font-size="32.00">prog</text>
</g>
<!-- prog&#45;&gt;v -->
<g id="edge13" class="edge">
<title>prog&#45;&gt;v</title>
<path fill="none" stroke="#000000" d="M879.31,-341.04C774.48,-307.15 516.33,-231.07 446,-279 422.56,-294.98 411.61,-325.52 406.49,-350.67"/>
<polygon fill="#000000" stroke="#000000" points="403.01,-350.25 404.69,-360.71 409.9,-351.49 403.01,-350.25"/>
<text text-anchor="middle" x="617" y="-329.4" font-family="Times,serif" font-size="32.00">be</text>
<text text-anchor="middle" x="617" y="-294.4" font-family="Times,serif" font-size="32.00">=prog v</text>
</g>
<!-- prog&#45;&gt;2 -->
<g id="edge11" class="edge">
<title>prog&#45;&gt;2</title>
<path fill="none" stroke="#000000" d="M896.26,-381.44C878.27,-397.07 853.83,-416.75 830,-431 709.68,-502.92 677.33,-526.87 540,-555 499.07,-563.38 484.33,-571.62 446,-555 438.04,-551.55 430.86,-545.87 424.72,-539.63"/>
<polygon fill="#000000" stroke="#000000" points="427.29,-537.25 418.01,-532.15 422.08,-541.93 427.29,-537.25"/>
<text text-anchor="middle" x="617" y="-594.4" font-family="Times,serif" font-size="32.00">b</text>
<text text-anchor="middle" x="617" y="-559.4" font-family="Times,serif" font-size="32.00">=prog 2</text>
</g>
<!-- prog&#45;&gt;perf -->
<g id="edge14" class="edge">
<title>prog&#45;&gt;perf</title>
<path fill="none" stroke="#000000" d="M874.19,-347.72C826.67,-341.78 753.68,-337.81 694,-357 689.51,-358.44 673.32,-369.79 657.04,-381.71"/>
<polygon fill="#000000" stroke="#000000" points="654.55,-379.19 648.58,-387.94 658.7,-384.83 654.55,-379.19"/>
<text text-anchor="middle" x="762" y="-401.4" font-family="Times,serif" font-size="32.00">ben</text>
<text text-anchor="middle" x="762" y="-366.4" font-family="Times,serif" font-size="32.00">=prog perf</text>
</g>
<!-- prog&#45;&gt;3 -->
<g id="edge12" class="edge">
<title>prog&#45;&gt;3</title>
<path fill="none" stroke="#000000" d="M897.19,-329.83C854.59,-290.38 766.94,-217.56 676,-192 591.78,-168.33 488.6,-197.11 436.15,-215.66"/>
<polygon fill="#000000" stroke="#000000" points="434.86,-212.41 426.65,-219.11 437.25,-218.99 434.86,-212.41"/>
<text text-anchor="middle" x="617" y="-236.4" font-family="Times,serif" font-size="32.00">b_1</text>
<text text-anchor="middle" x="617" y="-201.4" font-family="Times,serif" font-size="32.00">=prog 3</text>
</g>
<!-- 4&#45;&gt;0 -->
<g id="edge15" class="edge">
<title>4&#45;&gt;0</title>
<path fill="none" stroke="#000000" d="M1209.11,-466.02C1170.64,-527.13 1061.4,-679 926,-679 926,-679 926,-679 400,-679 310.21,-679 260.86,-562.57 240.81,-499.89"/>
<polygon fill="#000000" stroke="#000000" points="244.03,-498.46 237.73,-489.95 237.34,-500.54 244.03,-498.46"/>
<text text-anchor="middle" x="617" y="-723.4" font-family="Times,serif" font-size="32.00">ε_0</text>
<text text-anchor="middle" x="617" y="-688.4" font-family="Times,serif" font-size="32.00">=&gt;4 =d 0</text>
</g>
<!-- 4&#45;&gt;v -->
<g id="edge19" class="edge">
<title>4&#45;&gt;v</title>
<path fill="none" stroke="#000000" d="M1199.51,-451.6C1112.91,-487.89 812.62,-603.66 558,-580 507.57,-575.31 482.03,-594.6 446,-559 416.98,-530.33 438.47,-508.43 428,-469 424.47,-455.72 419.92,-441.4 415.62,-428.69"/>
<polygon fill="#000000" stroke="#000000" points="418.81,-427.22 412.24,-418.91 412.19,-429.5 418.81,-427.22"/>
<text text-anchor="middle" x="762" y="-624.4" font-family="Times,serif" font-size="32.00">ε_3</text>
<text text-anchor="middle" x="762" y="-589.4" font-family="Times,serif" font-size="32.00">=&gt;4 =d v</text>
</g>
<!-- 4&#45;&gt;1 -->
<g id="edge18" class="edge">
<title>4&#45;&gt;1</title>
<path fill="none" stroke="#000000" d="M1215.67,-412.15C1189.06,-326.72 1097.6,-81 926,-81 926,-81 926,-81 400,-81 324.69,-81 271.27,-165.45 246.17,-215.66"/>
<polygon fill="#000000" stroke="#000000" points="242.9,-214.38 241.67,-224.9 249.19,-217.44 242.9,-214.38"/>
<text text-anchor="middle" x="617" y="-125.4" font-family="Times,serif" font-size="32.00">ε_2</text>
<text text-anchor="middle" x="617" y="-90.4" font-family="Times,serif" font-size="32.00">=&gt;4 =d 1</text>
</g>
<!-- 4&#45;&gt;perf -->
<g id="edge21" class="edge">
<title>4&#45;&gt;perf</title>
<path fill="none" stroke="#000000" d="M1197.96,-441.97C1120.75,-444.5 886.43,-449.61 694,-427 686.91,-426.17 679.5,-424.99 672.21,-423.66"/>
<polygon fill="#000000" stroke="#000000" points="672.87,-420.22 662.39,-421.75 671.54,-427.09 672.87,-420.22"/>
<text text-anchor="middle" x="925" y="-488.4" font-family="Times,serif" font-size="32.00">n</text>
<text text-anchor="middle" x="925" y="-453.4" font-family="Times,serif" font-size="32.00">=&gt;4 =d perf</text>
</g>
<!-- 4&#45;&gt;prog -->
<g id="edge20" class="edge">
<title>4&#45;&gt;prog</title>
<path fill="none" stroke="#000000" d="M1217.08,-411.85C1210.85,-392.63 1199.56,-368.88 1180,-357 1120.22,-320.67 1037,-328.98 982.34,-340.56"/>
<polygon fill="#000000" stroke="#000000" points="981.49,-337.16 972.48,-342.75 983,-343.99 981.49,-337.16"/>
<text text-anchor="middle" x="1100" y="-401.4" font-family="Times,serif" font-size="32.00">ing</text>
<text text-anchor="middle" x="1100" y="-366.4" font-family="Times,serif" font-size="32.00">=&gt;4 =d prog</text>
</g>
<!-- 5 -->
<g id="node12" class="node">
<title>5</title>
<ellipse fill="none" stroke="black" cx="1413" cy="-395" rx="27" ry="30.31"/>
<text text-anchor="middle" x="1413" y="-386.9" font-family="Times,serif" font-size="32.00">5</text>
</g>
<!-- 5&#45;&gt;4 -->
<g id="edge16" class="edge">
<title>5&#45;&gt;4</title>
<path fill="none" stroke="#000000" d="M1386.18,-389.44C1356.77,-384.38 1307.89,-379.9 1270,-396 1262.51,-399.19 1255.64,-404.33 1249.68,-410.02"/>
<polygon fill="#000000" stroke="#000000" points="1247,-407.77 1242.64,-417.42 1252.07,-412.6 1247,-407.77"/>
<text text-anchor="middle" x="1308" y="-440.4" font-family="Times,serif" font-size="32.00">ε_1</text>
<text text-anchor="middle" x="1308" y="-405.4" font-family="Times,serif" font-size="32.00">=&gt;5 4</text>
</g>
<!-- z1 -->
<g id="node13" class="node">
<title>z1</title>
<ellipse fill="none" stroke="black" stroke-dasharray="5,2" cx="1623" cy="-395" rx="27" ry="18"/>
</g>
<!-- z1&#45;&gt;5 -->
<g id="edge17" class="edge">
<title>z1&#45;&gt;5</title>
<path fill="none" stroke="#000000" d="M1595.66,-395C1558.85,-395 1491.9,-395 1450.36,-395"/>
<polygon fill="#000000" stroke="#000000" points="1450.13,-391.5 1440.13,-395 1450.13,-398.5 1450.13,-391.5"/>
<text text-anchor="middle" x="1529" y="-439.4" font-family="Times,serif" font-size="32.00">laugh</text>
<text text-anchor="middle" x="1529" y="-404.4" font-family="Times,serif" font-size="32.00">5</text>
</g>
<!-- 6 -->
<g id="node14" class="node">
<title>6</title>
<ellipse fill="none" stroke="black" cx="1413" cy="-302" rx="27" ry="30.31"/>
<text text-anchor="middle" x="1413" y="-293.9" font-family="Times,serif" font-size="32.00">6</text>
</g>
<!-- 6&#45;&gt;4 -->
<g id="edge22" class="edge">
<title>6&#45;&gt;4</title>
<path fill="none" stroke="#000000" d="M1386.54,-295.59C1355.65,-289.43 1303.57,-284.4 1270,-310 1242.35,-331.08 1231.91,-370.27 1228.05,-400.32"/>
<polygon fill="#000000" stroke="#000000" points="1224.54,-400.2 1226.94,-410.52 1231.5,-400.95 1224.54,-400.2"/>
<text text-anchor="middle" x="1308" y="-354.4" font-family="Times,serif" font-size="32.00">ε_4</text>
<text text-anchor="middle" x="1308" y="-319.4" font-family="Times,serif" font-size="32.00">=&gt;6 4</text>
</g>
<!-- z2 -->
<g id="node15" class="node">
<title>z2</title>
<ellipse fill="none" stroke="black" stroke-dasharray="5,2" cx="1623" cy="-302" rx="27" ry="18"/>
</g>
<!-- z2&#45;&gt;6 -->
<g id="edge23" class="edge">
<title>z2&#45;&gt;6</title>
<path fill="none" stroke="#000000" d="M1595.66,-302C1558.85,-302 1491.9,-302 1450.36,-302"/>
<polygon fill="#000000" stroke="#000000" points="1450.13,-298.5 1440.13,-302 1450.13,-305.5 1450.13,-298.5"/>
<text text-anchor="middle" x="1529" y="-346.4" font-family="Times,serif" font-size="32.00">dance</text>
<text text-anchor="middle" x="1529" y="-311.4" font-family="Times,serif" font-size="32.00">6</text>
</g>
<!-- 7&#45;&gt;4 -->
<g id="edge24" class="edge">
<title>7&#45;&gt;4</title>
<path fill="none" stroke="#000000" d="M1385.93,-486.79C1356.91,-484.8 1308.99,-479.58 1270,-466 1265.99,-464.6 1261.92,-462.84 1257.96,-460.9"/>
<polygon fill="#000000" stroke="#000000" points="1259.47,-457.74 1249,-456.14 1256.19,-463.92 1259.47,-457.74"/>
<text text-anchor="middle" x="1308" y="-526.4" font-family="Times,serif" font-size="32.00">ε_5</text>
<text text-anchor="middle" x="1308" y="-491.4" font-family="Times,serif" font-size="32.00">=&gt;7 4</text>
</g>
</g>
</svg>
