<?xml version="1.0" encoding="UTF-8" standalone="no"?>
<!DOCTYPE svg PUBLIC "-//W3C//DTD SVG 1.1//EN"
 "http://www.w3.org/Graphics/SVG/1.1/DTD/svg11.dtd">
<!-- Generated by graphviz version 2.47.1 (20210417.1919)
 -->
<!-- Title: G Pages: 1 -->
<svg width="1934pt" height="757pt"
 viewBox="0.00 0.00 1934.00 757.00" xmlns="http://www.w3.org/2000/svg" xmlns:xlink="http://www.w3.org/1999/xlink">
<g id="graph0" class="graph" transform="scale(1 1) rotate(0) translate(4 753)">
<title>G</title>
<polygon fill="white" stroke="transparent" points="-4,4 -4,-753 1930,-753 1930,4 -4,4"/>
<text text-anchor="middle" x="963" y="-13.4" font-family="Times,serif" font-size="32.00">decomposition: &#160;=&gt;4 =d 0, &#160;=&gt;4 =d 1, &#160;=&gt;4 =d v, ing =&gt;4 =d prog, n =&gt;4 =d perf</text>
<!-- t -->
<g id="node1" class="node">
<title>t</title>
<ellipse fill="lightgray" stroke="black" cx="27" cy="-333" rx="27" ry="30.31"/>
<text text-anchor="middle" x="27" y="-324.9" font-family="Times,serif" font-size="32.00">t</text>
</g>
<!-- z0 -->
<g id="node2" class="node">
<title>z0</title>
<ellipse fill="none" stroke="black" stroke-dasharray="5,2" cx="1899" cy="-480" rx="27" ry="18"/>
</g>
<!-- d -->
<g id="node3" class="node">
<title>d</title>
<ellipse fill="none" stroke="black" cx="1739" cy="-480" rx="27" ry="30.31"/>
<text text-anchor="middle" x="1739" y="-471.9" font-family="Times,serif" font-size="32.00">d</text>
</g>
<!-- z0&#45;&gt;d -->
<g id="edge1" class="edge">
<title>z0&#45;&gt;d</title>
<path fill="none" stroke="#000000" d="M1871.91,-480C1845.84,-480 1805.53,-480 1776.34,-480"/>
<polygon fill="#000000" stroke="#000000" points="1776.13,-476.5 1766.13,-480 1776.13,-483.5 1776.13,-476.5"/>
<text text-anchor="middle" x="1819" y="-524.4" font-family="Times,serif" font-size="32.00">Mary</text>
<text text-anchor="middle" x="1819" y="-489.4" font-family="Times,serif" font-size="32.00">d &#45;k</text>
</g>
<!-- 5 -->
<g id="node12" class="node">
<title>5</title>
<ellipse fill="none" stroke="black" cx="1331" cy="-441" rx="27" ry="30.31"/>
<text text-anchor="middle" x="1331" y="-432.9" font-family="Times,serif" font-size="32.00">5</text>
</g>
<!-- d&#45;&gt;5 -->
<g id="edge24" class="edge">
<title>d&#45;&gt;5</title>
<path fill="none" stroke="#000000" d="M1722.08,-503.94C1714.69,-513.08 1705.07,-522.58 1694,-528 1566.84,-590.26 1493.75,-625.62 1376,-547 1354.2,-532.45 1343.19,-504.87 1337.63,-481.49"/>
<polygon fill="#000000" stroke="#000000" points="1341,-480.5 1335.51,-471.44 1334.15,-481.95 1341,-480.5"/>
<text text-anchor="middle" x="1529" y="-636.4" font-family="Times,serif" font-size="32.00">praise</text>
<text text-anchor="middle" x="1529" y="-601.4" font-family="Times,serif" font-size="32.00">=d *k 5</text>
</g>
<!-- 6 -->
<g id="node14" class="node">
<title>6</title>
<ellipse fill="none" stroke="black" cx="1529" cy="-362" rx="27" ry="30.31"/>
<text text-anchor="middle" x="1529" y="-353.9" font-family="Times,serif" font-size="32.00">6</text>
</g>
<!-- d&#45;&gt;6 -->
<g id="edge23" class="edge">
<title>d&#45;&gt;6</title>
<path fill="none" stroke="#000000" d="M1714.54,-466.69C1677.23,-445.52 1604.27,-404.13 1562.12,-380.22"/>
<polygon fill="#000000" stroke="#000000" points="1563.8,-377.15 1553.37,-375.26 1560.34,-383.24 1563.8,-377.15"/>
<text text-anchor="middle" x="1645" y="-498.4" font-family="Times,serif" font-size="32.00">hug</text>
<text text-anchor="middle" x="1645" y="-463.4" font-family="Times,serif" font-size="32.00">=d *k 6</text>
</g>
<!-- 0 -->
<g id="node4" class="node">
<title>0</title>
<ellipse fill="none" stroke="black" cx="229" cy="-461" rx="27" ry="30.31"/>
<text text-anchor="middle" x="229" y="-452.9" font-family="Times,serif" font-size="32.00">0</text>
</g>
<!-- 0&#45;&gt;t -->
<g id="edge2" class="edge">
<title>0&#45;&gt;t</title>
<path fill="none" stroke="#000000" d="M203.2,-451.52C171.05,-438.53 114.12,-413.11 72,-381 65.3,-375.89 58.77,-369.69 52.88,-363.46"/>
<polygon fill="#000000" stroke="#000000" points="55.11,-360.71 45.8,-355.64 49.92,-365.41 55.11,-360.71"/>
<text text-anchor="middle" x="128" y="-485.4" font-family="Times,serif" font-size="32.00">s</text>
<text text-anchor="middle" x="128" y="-450.4" font-family="Times,serif" font-size="32.00">=&gt;0 +k t</text>
</g>
<!-- v -->
<g id="node5" class="node">
<title>v</title>
<ellipse fill="none" stroke="black" cx="401" cy="-391" rx="27" ry="30.31"/>
<text text-anchor="middle" x="401" y="-382.9" font-family="Times,serif" font-size="32.00">v</text>
</g>
<!-- v&#45;&gt;0 -->
<g id="edge3" class="edge">
<title>v&#45;&gt;0</title>
<path fill="none" stroke="#000000" d="M373.88,-393.31C342.15,-396.46 290.77,-402.79 274,-412 266.15,-416.31 258.98,-422.57 252.82,-429.19"/>
<polygon fill="#000000" stroke="#000000" points="249.94,-427.16 246.06,-437.02 255.24,-431.73 249.94,-427.16"/>
<text text-anchor="middle" x="315" y="-456.4" font-family="Times,serif" font-size="32.00">will</text>
<text text-anchor="middle" x="315" y="-421.4" font-family="Times,serif" font-size="32.00">=v 0</text>
</g>
<!-- 1 -->
<g id="node6" class="node">
<title>1</title>
<ellipse fill="none" stroke="black" cx="229" cy="-241" rx="27" ry="30.31"/>
<text text-anchor="middle" x="229" y="-232.9" font-family="Times,serif" font-size="32.00">1</text>
</g>
<!-- v&#45;&gt;1 -->
<g id="edge5" class="edge">
<title>v&#45;&gt;1</title>
<path fill="none" stroke="#000000" d="M388.96,-363.77C381.67,-349.05 370.73,-331.74 356,-321 325.61,-298.83 305.25,-320.94 274,-300 264.41,-293.57 256.11,-284.34 249.38,-275.07"/>
<polygon fill="#000000" stroke="#000000" points="252.17,-272.94 243.65,-266.63 246.37,-276.87 252.17,-272.94"/>
<text text-anchor="middle" x="315" y="-365.4" font-family="Times,serif" font-size="32.00">will_1</text>
<text text-anchor="middle" x="315" y="-330.4" font-family="Times,serif" font-size="32.00">=v 1</text>
</g>
<!-- 1&#45;&gt;t -->
<g id="edge4" class="edge">
<title>1&#45;&gt;t</title>
<path fill="none" stroke="#000000" d="M203.54,-251.6C172.7,-265.05 118.14,-289.13 72,-311 68.45,-312.68 64.77,-314.47 61.1,-316.27"/>
<polygon fill="#000000" stroke="#000000" points="59.53,-313.14 52.12,-320.71 62.63,-319.41 59.53,-313.14"/>
<text text-anchor="middle" x="128" y="-355.4" font-family="Times,serif" font-size="32.00">d</text>
<text text-anchor="middle" x="128" y="-320.4" font-family="Times,serif" font-size="32.00">=&gt;1 +k t</text>
</g>
<!-- 2 -->
<g id="node7" class="node">
<title>2</title>
<ellipse fill="none" stroke="black" cx="401" cy="-508" rx="27" ry="30.31"/>
<text text-anchor="middle" x="401" y="-499.9" font-family="Times,serif" font-size="32.00">2</text>
</g>
<!-- 2&#45;&gt;0 -->
<g id="edge6" class="edge">
<title>2&#45;&gt;0</title>
<path fill="none" stroke="#000000" d="M373.75,-506.06C347.79,-503.53 307.23,-497.93 274,-486 270,-484.56 265.94,-482.78 261.99,-480.82"/>
<polygon fill="#000000" stroke="#000000" points="263.5,-477.67 253.03,-476.05 260.21,-483.84 263.5,-477.67"/>
<text text-anchor="middle" x="315" y="-547.4" font-family="Times,serif" font-size="32.00">e</text>
<text text-anchor="middle" x="315" y="-512.4" font-family="Times,serif" font-size="32.00">=&gt;2 0</text>
</g>
<!-- perf -->
<g id="node8" class="node">
<title>perf</title>
<ellipse fill="none" stroke="black" cx="608" cy="-411" rx="48.17" ry="30.31"/>
<text text-anchor="middle" x="608" y="-402.9" font-family="Times,serif" font-size="32.00">perf</text>
</g>
<!-- perf&#45;&gt;v -->
<g id="edge10" class="edge">
<title>perf&#45;&gt;v</title>
<path fill="none" stroke="#000000" d="M564.84,-397.19C556.68,-395.05 548.14,-393.16 540,-392 505.72,-387.11 466.16,-387.42 438.21,-388.62"/>
<polygon fill="#000000" stroke="#000000" points="437.91,-385.13 428.1,-389.12 438.26,-392.12 437.91,-385.13"/>
<text text-anchor="middle" x="493" y="-436.4" font-family="Times,serif" font-size="32.00">have</text>
<text text-anchor="middle" x="493" y="-401.4" font-family="Times,serif" font-size="32.00">=perf v</text>
</g>
<!-- perf&#45;&gt;2 -->
<g id="edge7" class="edge">
<title>perf&#45;&gt;2</title>
<path fill="none" stroke="#000000" d="M579.68,-435.87C568.14,-445.25 554.12,-455.26 540,-462 501.18,-480.53 486.24,-469.82 446,-485 442.21,-486.43 438.32,-488.11 434.51,-489.9"/>
<polygon fill="#000000" stroke="#000000" points="432.66,-486.92 425.26,-494.51 435.78,-493.18 432.66,-486.92"/>
<text text-anchor="middle" x="493" y="-529.4" font-family="Times,serif" font-size="32.00">hav</text>
<text text-anchor="middle" x="493" y="-494.4" font-family="Times,serif" font-size="32.00">=perf 2</text>
</g>
<!-- 3 -->
<g id="node9" class="node">
<title>3</title>
<ellipse fill="none" stroke="black" cx="401" cy="-229" rx="27" ry="30.31"/>
<text text-anchor="middle" x="401" y="-220.9" font-family="Times,serif" font-size="32.00">3</text>
</g>
<!-- perf&#45;&gt;3 -->
<g id="edge9" class="edge">
<title>perf&#45;&gt;3</title>
<path fill="none" stroke="#000000" d="M576.22,-387.82C569.52,-381.63 562.95,-374.55 558,-367 544.13,-345.84 555.77,-332.78 540,-313 512.79,-278.86 467.65,-255.18 436.45,-241.86"/>
<polygon fill="#000000" stroke="#000000" points="437.42,-238.48 426.84,-237.9 434.75,-244.95 437.42,-238.48"/>
<text text-anchor="middle" x="493" y="-357.4" font-family="Times,serif" font-size="32.00">hav_1</text>
<text text-anchor="middle" x="493" y="-322.4" font-family="Times,serif" font-size="32.00">=perf 3</text>
</g>
<!-- 3&#45;&gt;1 -->
<g id="edge8" class="edge">
<title>3&#45;&gt;1</title>
<path fill="none" stroke="#000000" d="M373.82,-227.41C348.25,-226.28 308.29,-225.64 274,-230 271.14,-230.36 268.21,-230.85 265.27,-231.41"/>
<polygon fill="#000000" stroke="#000000" points="264.42,-228.01 255.4,-233.56 265.91,-234.85 264.42,-228.01"/>
<text text-anchor="middle" x="315" y="-274.4" font-family="Times,serif" font-size="32.00">e_1</text>
<text text-anchor="middle" x="315" y="-239.4" font-family="Times,serif" font-size="32.00">=&gt;3 1</text>
</g>
<!-- prog -->
<g id="node10" class="node">
<title>prog</title>
<ellipse fill="none" stroke="black" cx="886" cy="-356" rx="52.15" ry="30.31"/>
<text text-anchor="middle" x="886" y="-347.9" font-family="Times,serif" font-size="32.00">prog</text>
</g>
<!-- prog&#45;&gt;v -->
<g id="edge13" class="edge">
<title>prog&#45;&gt;v</title>
<path fill="none" stroke="#000000" d="M840.72,-340.43C742.5,-307.11 510.02,-235.37 446,-279 422.56,-294.98 411.61,-325.52 406.49,-350.67"/>
<polygon fill="#000000" stroke="#000000" points="403.01,-350.25 404.69,-360.71 409.9,-351.49 403.01,-350.25"/>
<text text-anchor="middle" x="608" y="-331.4" font-family="Times,serif" font-size="32.00">be</text>
<text text-anchor="middle" x="608" y="-296.4" font-family="Times,serif" font-size="32.00">=prog v</text>
</g>
<!-- prog&#45;&gt;2 -->
<g id="edge11" class="edge">
<title>prog&#45;&gt;2</title>
<path fill="none" stroke="#000000" d="M862.76,-383.46C849.27,-398.86 831.02,-417.61 812,-431 703.36,-507.47 669.83,-526.8 540,-555 499.17,-563.87 484.33,-571.62 446,-555 438.04,-551.55 430.86,-545.87 424.72,-539.63"/>
<polygon fill="#000000" stroke="#000000" points="427.29,-537.25 418.01,-532.15 422.08,-541.93 427.29,-537.25"/>
<text text-anchor="middle" x="608" y="-594.4" font-family="Times,serif" font-size="32.00">b</text>
<text text-anchor="middle" x="608" y="-559.4" font-family="Times,serif" font-size="32.00">=prog 2</text>
</g>
<!-- prog&#45;&gt;perf -->
<g id="edge14" class="edge">
<title>prog&#45;&gt;perf</title>
<path fill="none" stroke="#000000" d="M835.7,-347.27C792.32,-341.66 728.14,-338.46 676,-357 668.67,-359.61 656.21,-369.03 644.01,-379.3"/>
<polygon fill="#000000" stroke="#000000" points="641.39,-376.93 636.08,-386.1 645.95,-382.24 641.39,-376.93"/>
<text text-anchor="middle" x="744" y="-401.4" font-family="Times,serif" font-size="32.00">ben</text>
<text text-anchor="middle" x="744" y="-366.4" font-family="Times,serif" font-size="32.00">=prog perf</text>
</g>
<!-- prog&#45;&gt;3 -->
<g id="edge12" class="edge">
<title>prog&#45;&gt;3</title>
<path fill="none" stroke="#000000" d="M860.3,-329.33C821.71,-290.01 742.71,-218.59 658,-195 580.62,-173.45 486.17,-198.71 436.43,-215.82"/>
<polygon fill="#000000" stroke="#000000" points="435.07,-212.59 426.81,-219.23 437.41,-219.19 435.07,-212.59"/>
<text text-anchor="middle" x="608" y="-239.4" font-family="Times,serif" font-size="32.00">b_1</text>
<text text-anchor="middle" x="608" y="-204.4" font-family="Times,serif" font-size="32.00">=prog 3</text>
</g>
<!-- 4 -->
<g id="node11" class="node">
<title>4</title>
<ellipse fill="none" stroke="black" cx="1123" cy="-441" rx="27" ry="30.31"/>
<text text-anchor="middle" x="1123" y="-432.9" font-family="Times,serif" font-size="32.00">4</text>
</g>
<!-- 4&#45;&gt;0 -->
<g id="edge15" class="edge">
<title>4&#45;&gt;0</title>
<path fill="none" stroke="#f7931d" stroke-width="2" d="M1110.7,-468.3C1082.8,-530.82 1004.3,-679 887,-679 887,-679 887,-679 400,-679 310.21,-679 260.86,-562.57 240.81,-499.89"/>
<polygon fill="#f7931d" stroke="#f7931d" stroke-width="2" points="244.03,-498.46 237.73,-489.95 237.34,-500.54 244.03,-498.46"/>
<text text-anchor="middle" x="608" y="-723.4" font-family="Times,serif" font-size="32.00">ε_0</text>
<text text-anchor="middle" x="608" y="-688.4" font-family="Times,serif" font-size="32.00">=&gt;4 0</text>
</g>
<!-- 4&#45;&gt;v -->
<g id="edge19" class="edge">
<title>4&#45;&gt;v</title>
<path fill="none" stroke="#f7931d" stroke-width="2" d="M1097.98,-453C1020.88,-490.19 772.13,-599.9 558,-580 507.57,-575.31 482.03,-594.6 446,-559 416.98,-530.33 438.47,-508.43 428,-469 424.47,-455.72 419.92,-441.4 415.62,-428.69"/>
<polygon fill="#f7931d" stroke="#f7931d" stroke-width="2" points="418.81,-427.22 412.24,-418.91 412.19,-429.5 418.81,-427.22"/>
<text text-anchor="middle" x="744" y="-623.4" font-family="Times,serif" font-size="32.00">ε_3</text>
<text text-anchor="middle" x="744" y="-588.4" font-family="Times,serif" font-size="32.00">=&gt;4 v</text>
</g>
<!-- 4&#45;&gt;1 -->
<g id="edge18" class="edge">
<title>4&#45;&gt;1</title>
<path fill="none" stroke="#f7931d" stroke-width="2" d="M1117.31,-411.23C1101.87,-324.98 1044.3,-81 887,-81 887,-81 887,-81 400,-81 327.81,-81 273.77,-158.46 247.58,-205.59"/>
<polygon fill="#f7931d" stroke="#f7931d" stroke-width="2" points="244.4,-204.12 242.72,-214.58 250.55,-207.45 244.4,-204.12"/>
<text text-anchor="middle" x="608" y="-125.4" font-family="Times,serif" font-size="32.00">ε_2</text>
<text text-anchor="middle" x="608" y="-90.4" font-family="Times,serif" font-size="32.00">=&gt;4 1</text>
</g>
<!-- 4&#45;&gt;perf -->
<g id="edge21" class="edge">
<title>4&#45;&gt;perf</title>
<path fill="none" stroke="#f7931d" stroke-width="2" d="M1095.71,-442.03C1026.58,-444.33 834.18,-448.15 676,-427 671.61,-426.41 667.1,-425.66 662.58,-424.81"/>
<polygon fill="#f7931d" stroke="#f7931d" stroke-width="2" points="663.23,-421.37 652.73,-422.79 661.82,-428.23 663.23,-421.37"/>
<text text-anchor="middle" x="886" y="-487.4" font-family="Times,serif" font-size="32.00">n</text>
<text text-anchor="middle" x="886" y="-452.4" font-family="Times,serif" font-size="32.00">=&gt;4 perf</text>
</g>
<!-- 4&#45;&gt;prog -->
<g id="edge20" class="edge">
<title>4&#45;&gt;prog</title>
<path fill="none" stroke="#f7931d" stroke-width="2" d="M1115.08,-411.86C1108.84,-392.64 1097.55,-368.9 1078,-357 1038.05,-332.68 984.14,-334.86 943.78,-341.71"/>
<polygon fill="#f7931d" stroke="#f7931d" stroke-width="2" points="943.03,-338.29 933.83,-343.54 944.3,-345.18 943.03,-338.29"/>
<text text-anchor="middle" x="1019" y="-401.4" font-family="Times,serif" font-size="32.00">ing</text>
<text text-anchor="middle" x="1019" y="-366.4" font-family="Times,serif" font-size="32.00">=&gt;4 prog</text>
</g>
<!-- 5&#45;&gt;4 -->
<g id="edge16" class="edge">
<title>5&#45;&gt;4</title>
<path fill="none" stroke="#f7931d" stroke-width="2" d="M1303.91,-441C1267.56,-441 1201.51,-441 1160.35,-441"/>
<polygon fill="#f7931d" stroke="#f7931d" stroke-width="2" points="1160.2,-437.5 1150.2,-441 1160.2,-444.5 1160.2,-437.5"/>
<text text-anchor="middle" x="1227" y="-485.4" font-family="Times,serif" font-size="32.00">ε_1</text>
<text text-anchor="middle" x="1227" y="-450.4" font-family="Times,serif" font-size="32.00">=&gt;5 =d 4</text>
</g>
<!-- z1 -->
<g id="node13" class="node">
<title>z1</title>
<ellipse fill="none" stroke="black" stroke-dasharray="5,2" cx="1529" cy="-441" rx="27" ry="18"/>
</g>
<!-- z1&#45;&gt;5 -->
<g id="edge17" class="edge">
<title>z1&#45;&gt;5</title>
<path fill="none" stroke="#000000" d="M1501.97,-441C1467.71,-441 1407.28,-441 1368.47,-441"/>
<polygon fill="#000000" stroke="#000000" points="1368.13,-437.5 1358.13,-441 1368.13,-444.5 1368.13,-437.5"/>
<text text-anchor="middle" x="1419" y="-520.4" font-family="Times,serif" font-size="32.00">laugh |</text>
<text text-anchor="middle" x="1419" y="-485.4" font-family="Times,serif" font-size="32.00"> dance</text>
<text text-anchor="middle" x="1419" y="-450.4" font-family="Times,serif" font-size="32.00">5</text>
</g>
<!-- 6&#45;&gt;5 -->
<g id="edge22" class="edge">
<title>6&#45;&gt;5</title>
<path fill="none" stroke="#000000" d="M1502.55,-355.85C1470.6,-349.62 1415.21,-343.83 1376,-367 1362.3,-375.09 1352.39,-389.25 1345.48,-403.03"/>
<polygon fill="#000000" stroke="#000000" points="1342.16,-401.88 1341.17,-412.42 1348.52,-404.79 1342.16,-401.88"/>
<text text-anchor="middle" x="1419" y="-411.4" font-family="Times,serif" font-size="32.00">ε_4</text>
<text text-anchor="middle" x="1419" y="-376.4" font-family="Times,serif" font-size="32.00">=&gt;6 5</text>
</g>
</g>
</svg>
