<?xml version="1.0" encoding="UTF-8" standalone="no"?>
<!DOCTYPE svg PUBLIC "-//W3C//DTD SVG 1.1//EN"
 "http://www.w3.org/Graphics/SVG/1.1/DTD/svg11.dtd">
<!-- Generated by graphviz version 2.47.1 (20210417.1919)
 -->
<!-- Title: G Pages: 1 -->
<svg width="1654pt" height="1411pt"
 viewBox="0.00 0.00 1654.00 1411.00" xmlns="http://www.w3.org/2000/svg" xmlns:xlink="http://www.w3.org/1999/xlink">
<g id="graph0" class="graph" transform="scale(1 1) rotate(0) translate(4 1407)">
<title>G</title>
<polygon fill="white" stroke="transparent" points="-4,4 -4,-1407 1650,-1407 1650,4 -4,4"/>
<text text-anchor="middle" x="823" y="-48.4" font-family="Times,serif" font-size="32.00">decomposition: laugh =d 0, laugh =d 1, laugh =d v, laughing =d prog, laughn =d perf</text>
<text text-anchor="middle" x="823" y="-13.4" font-family="Times,serif" font-size="32.00">decomposition: dance =d 0, dance =d 1, dance =d v, danceing =d prog, dancen =d perf</text>
<!-- t -->
<g id="node1" class="node">
<title>t</title>
<ellipse fill="lightgray" stroke="black" cx="27" cy="-835" rx="27" ry="30.31"/>
<text text-anchor="middle" x="27" y="-826.9" font-family="Times,serif" font-size="32.00">t</text>
</g>
<!-- z0 -->
<g id="node2" class="node">
<title>z0</title>
<ellipse fill="none" stroke="black" stroke-dasharray="5,2" cx="1619" cy="-456" rx="27" ry="18"/>
</g>
<!-- d -->
<g id="node3" class="node">
<title>d</title>
<ellipse fill="none" stroke="black" cx="1459" cy="-456" rx="27" ry="30.31"/>
<text text-anchor="middle" x="1459" y="-447.9" font-family="Times,serif" font-size="32.00">d</text>
</g>
<!-- z0&#45;&gt;d -->
<g id="edge1" class="edge">
<title>z0&#45;&gt;d</title>
<path fill="none" stroke="#000000" d="M1591.91,-456C1565.84,-456 1525.53,-456 1496.34,-456"/>
<polygon fill="#000000" stroke="#000000" points="1496.13,-452.5 1486.13,-456 1496.13,-459.5 1496.13,-452.5"/>
<text text-anchor="middle" x="1539" y="-500.4" font-family="Times,serif" font-size="32.00">Mary</text>
<text text-anchor="middle" x="1539" y="-465.4" font-family="Times,serif" font-size="32.00">d &#45;k</text>
</g>
<!-- 4 -->
<g id="node13" class="node">
<title>4</title>
<ellipse fill="none" stroke="black" cx="1271" cy="-540" rx="27" ry="30.31"/>
<text text-anchor="middle" x="1271" y="-531.9" font-family="Times,serif" font-size="32.00">4</text>
</g>
<!-- d&#45;&gt;4 -->
<g id="edge26" class="edge">
<title>d&#45;&gt;4</title>
<path fill="none" stroke="#000000" d="M1439.61,-478.01C1432.31,-485.58 1423.41,-493.52 1414,-499 1380.78,-518.35 1337.8,-529.1 1307.87,-534.68"/>
<polygon fill="#000000" stroke="#000000" points="1307.1,-531.26 1297.86,-536.44 1308.32,-538.15 1307.1,-531.26"/>
<text text-anchor="middle" x="1365" y="-577.4" font-family="Times,serif" font-size="32.00">hug</text>
<text text-anchor="middle" x="1365" y="-542.4" font-family="Times,serif" font-size="32.00">=d *k 4</text>
</g>
<!-- 5 -->
<g id="node14" class="node">
<title>5</title>
<ellipse fill="none" stroke="black" cx="1271" cy="-385" rx="27" ry="30.31"/>
<text text-anchor="middle" x="1271" y="-376.9" font-family="Times,serif" font-size="32.00">5</text>
</g>
<!-- d&#45;&gt;5 -->
<g id="edge32" class="edge">
<title>d&#45;&gt;5</title>
<path fill="none" stroke="#000000" d="M1435.3,-440.58C1428.63,-436.46 1421.18,-432.26 1414,-429 1378.99,-413.14 1336.65,-400.84 1307.36,-393.33"/>
<polygon fill="#000000" stroke="#000000" points="1308.13,-389.91 1297.58,-390.87 1306.43,-396.7 1308.13,-389.91"/>
<text text-anchor="middle" x="1365" y="-473.4" font-family="Times,serif" font-size="32.00">praise</text>
<text text-anchor="middle" x="1365" y="-438.4" font-family="Times,serif" font-size="32.00">=d *k 5</text>
</g>
<!-- 0 -->
<g id="node4" class="node">
<title>0</title>
<ellipse fill="none" stroke="black" cx="229" cy="-777" rx="27" ry="30.31"/>
<text text-anchor="middle" x="229" y="-768.9" font-family="Times,serif" font-size="32.00">0</text>
</g>
<!-- 0&#45;&gt;t -->
<g id="edge2" class="edge">
<title>0&#45;&gt;t</title>
<path fill="none" stroke="#000000" d="M201.9,-775.56C169.85,-774.8 114.54,-776.84 72,-796 65.75,-798.82 59.75,-802.84 54.29,-807.25"/>
<polygon fill="#000000" stroke="#000000" points="51.95,-804.65 46.74,-813.87 56.56,-809.91 51.95,-804.65"/>
<text text-anchor="middle" x="128" y="-840.4" font-family="Times,serif" font-size="32.00">s</text>
<text text-anchor="middle" x="128" y="-805.4" font-family="Times,serif" font-size="32.00">=&gt;0 +k t</text>
</g>
<!-- v -->
<g id="node5" class="node">
<title>v</title>
<ellipse fill="none" stroke="black" cx="421" cy="-788" rx="27" ry="30.31"/>
<text text-anchor="middle" x="421" y="-779.9" font-family="Times,serif" font-size="32.00">v</text>
</g>
<!-- v&#45;&gt;0 -->
<g id="edge3" class="edge">
<title>v&#45;&gt;0</title>
<path fill="none" stroke="#000000" d="M394.33,-781.56C382.71,-778.96 368.75,-776.28 356,-775 319.74,-771.35 310.44,-774.17 274,-775 271.46,-775.06 268.83,-775.13 266.19,-775.22"/>
<polygon fill="#000000" stroke="#000000" points="265.91,-771.73 256.05,-775.62 266.18,-778.73 265.91,-771.73"/>
<text text-anchor="middle" x="315" y="-819.4" font-family="Times,serif" font-size="32.00">will</text>
<text text-anchor="middle" x="315" y="-784.4" font-family="Times,serif" font-size="32.00">=v 0</text>
</g>
<!-- 1 -->
<g id="node6" class="node">
<title>1</title>
<ellipse fill="none" stroke="black" cx="229" cy="-959" rx="27" ry="30.31"/>
<text text-anchor="middle" x="229" y="-950.9" font-family="Times,serif" font-size="32.00">1</text>
</g>
<!-- v&#45;&gt;1 -->
<g id="edge5" class="edge">
<title>v&#45;&gt;1</title>
<path fill="none" stroke="#000000" d="M400.04,-807.46C387.52,-819.55 370.97,-835.34 356,-849 323.29,-878.84 284.84,-912.17 259.09,-934.23"/>
<polygon fill="#000000" stroke="#000000" points="256.53,-931.82 251.2,-940.98 261.08,-937.14 256.53,-931.82"/>
<text text-anchor="middle" x="315" y="-964.4" font-family="Times,serif" font-size="32.00">will_1</text>
<text text-anchor="middle" x="315" y="-929.4" font-family="Times,serif" font-size="32.00">=v 1</text>
</g>
<!-- 1&#45;&gt;t -->
<g id="edge4" class="edge">
<title>1&#45;&gt;t</title>
<path fill="none" stroke="#000000" d="M204.4,-945.68C173.55,-928.1 118.02,-895.87 72,-866 67.61,-863.15 63.03,-860.06 58.55,-856.97"/>
<polygon fill="#000000" stroke="#000000" points="60.36,-853.96 50.16,-851.1 56.35,-859.7 60.36,-853.96"/>
<text text-anchor="middle" x="128" y="-977.4" font-family="Times,serif" font-size="32.00">d</text>
<text text-anchor="middle" x="128" y="-942.4" font-family="Times,serif" font-size="32.00">=&gt;1 +k t</text>
</g>
<!-- perf -->
<g id="node7" class="node">
<title>perf</title>
<ellipse fill="none" stroke="black" cx="663" cy="-835" rx="48.17" ry="30.31"/>
<text text-anchor="middle" x="663" y="-826.9" font-family="Times,serif" font-size="32.00">perf</text>
</g>
<!-- perf&#45;&gt;0 -->
<g id="edge6" class="edge">
<title>perf&#45;&gt;0</title>
<path fill="none" stroke="#000000" d="M632.85,-858.87C619.44,-868.35 602.79,-878.14 586,-883 543.31,-895.35 530.27,-886.94 486,-883 438.33,-878.76 313.85,-871.51 274,-845 262.24,-837.18 252.94,-825.04 245.98,-813.16"/>
<polygon fill="#000000" stroke="#000000" points="248.96,-811.32 241.1,-804.21 242.81,-814.66 248.96,-811.32"/>
<text text-anchor="middle" x="421" y="-925.4" font-family="Times,serif" font-size="32.00">have</text>
<text text-anchor="middle" x="421" y="-890.4" font-family="Times,serif" font-size="32.00">=perf 0</text>
</g>
<!-- perf&#45;&gt;v -->
<g id="edge8" class="edge">
<title>perf&#45;&gt;v</title>
<path fill="none" stroke="#000000" d="M621.42,-819.42C610.09,-815.54 597.68,-811.72 586,-809 542.73,-798.94 491.85,-793.37 458.36,-790.53"/>
<polygon fill="#000000" stroke="#000000" points="458.39,-787.03 448.14,-789.71 457.82,-794 458.39,-787.03"/>
<text text-anchor="middle" x="536" y="-853.4" font-family="Times,serif" font-size="32.00">have_2</text>
<text text-anchor="middle" x="536" y="-818.4" font-family="Times,serif" font-size="32.00">=perf v</text>
</g>
<!-- perf&#45;&gt;1 -->
<g id="edge7" class="edge">
<title>perf&#45;&gt;1</title>
<path fill="none" stroke="#000000" d="M635.97,-860.36C621.91,-873.24 603.81,-888.54 586,-900 493.56,-959.49 464.61,-973.97 356,-991 320,-996.64 308.66,-1002.27 274,-991 268.72,-989.28 263.55,-986.67 258.71,-983.66"/>
<polygon fill="#000000" stroke="#000000" points="260.63,-980.73 250.42,-977.93 256.65,-986.49 260.63,-980.73"/>
<text text-anchor="middle" x="421" y="-1031.4" font-family="Times,serif" font-size="32.00">have_1</text>
<text text-anchor="middle" x="421" y="-996.4" font-family="Times,serif" font-size="32.00">=perf 1</text>
</g>
<!-- prog -->
<g id="node8" class="node">
<title>prog</title>
<ellipse fill="none" stroke="black" cx="971" cy="-717" rx="52.15" ry="30.31"/>
<text text-anchor="middle" x="971" y="-708.9" font-family="Times,serif" font-size="32.00">prog</text>
</g>
<!-- prog&#45;&gt;0 -->
<g id="edge9" class="edge">
<title>prog&#45;&gt;0</title>
<path fill="none" stroke="#000000" d="M925.8,-701.34C840.09,-673.19 645.7,-620.16 486,-656 399.66,-675.38 308.17,-727.33 261.46,-756.46"/>
<polygon fill="#000000" stroke="#000000" points="259.32,-753.67 252.73,-761.97 263.06,-759.59 259.32,-753.67"/>
<text text-anchor="middle" x="536" y="-700.4" font-family="Times,serif" font-size="32.00">be</text>
<text text-anchor="middle" x="536" y="-665.4" font-family="Times,serif" font-size="32.00">=prog 0</text>
</g>
<!-- prog&#45;&gt;v -->
<g id="edge11" class="edge">
<title>prog&#45;&gt;v</title>
<path fill="none" stroke="#000000" d="M918.89,-713.42C847.7,-709.52 714.91,-706.22 604,-726 550.68,-735.51 491.84,-757.87 455.9,-772.97"/>
<polygon fill="#000000" stroke="#000000" points="454.22,-769.88 446.39,-777.02 456.96,-776.32 454.22,-769.88"/>
<text text-anchor="middle" x="663" y="-770.4" font-family="Times,serif" font-size="32.00">be_2</text>
<text text-anchor="middle" x="663" y="-735.4" font-family="Times,serif" font-size="32.00">=prog v</text>
</g>
<!-- prog&#45;&gt;1 -->
<g id="edge10" class="edge">
<title>prog&#45;&gt;1</title>
<path fill="none" stroke="#000000" d="M931.81,-737.58C918.35,-746.39 904.08,-757.72 894,-771 879.72,-789.81 891.63,-803.3 876,-821 831.13,-871.8 778.62,-834.3 740,-890 719.49,-919.58 748.36,-1026.48 722,-1051 693.68,-1077.35 411.54,-1070.33 374,-1061 325.19,-1048.86 313.64,-1038.97 274,-1008 267.01,-1002.54 260.21,-995.88 254.13,-989.26"/>
<polygon fill="#000000" stroke="#000000" points="256.6,-986.76 247.36,-981.57 251.34,-991.39 256.6,-986.76"/>
<text text-anchor="middle" x="536" y="-1113.4" font-family="Times,serif" font-size="32.00">be_1</text>
<text text-anchor="middle" x="536" y="-1078.4" font-family="Times,serif" font-size="32.00">=prog 1</text>
</g>
<!-- prog&#45;&gt;perf -->
<g id="edge12" class="edge">
<title>prog&#45;&gt;perf</title>
<path fill="none" stroke="#000000" d="M919.57,-723.21C854.04,-731.46 747.11,-745.62 740,-751 724.45,-762.76 734.14,-775.75 722,-791 717.35,-796.85 711.75,-802.34 705.89,-807.33"/>
<polygon fill="#000000" stroke="#000000" points="703.42,-804.83 697.81,-813.81 707.8,-810.29 703.42,-804.83"/>
<text text-anchor="middle" x="808" y="-795.4" font-family="Times,serif" font-size="32.00">ben</text>
<text text-anchor="middle" x="808" y="-760.4" font-family="Times,serif" font-size="32.00">=prog perf</text>
</g>
<!-- 2 -->
<g id="node9" class="node">
<title>2</title>
<ellipse fill="none" stroke="black" cx="1271" cy="-1171" rx="27" ry="30.31"/>
<text text-anchor="middle" x="1271" y="-1162.9" font-family="Times,serif" font-size="32.00">2</text>
</g>
<!-- 2&#45;&gt;0 -->
<g id="edge13" class="edge">
<title>2&#45;&gt;0</title>
<path fill="none" stroke="#00b9f1" stroke-width="2" d="M1244.4,-1177.54C1154.72,-1199.36 847.08,-1264.97 604,-1205 432.38,-1162.66 367.81,-1132.82 274,-983 265.25,-969.03 247.01,-872.58 236.98,-816.74"/>
<polygon fill="#00b9f1" stroke="#00b9f1" stroke-width="2" points="240.41,-816.04 235.2,-806.82 233.52,-817.27 240.41,-816.04"/>
<text text-anchor="middle" x="663" y="-1268.4" font-family="Times,serif" font-size="32.00">ε_0</text>
<text text-anchor="middle" x="663" y="-1233.4" font-family="Times,serif" font-size="32.00">=&gt;2 =d 0</text>
</g>
<!-- 2&#45;&gt;v -->
<g id="edge16" class="edge">
<title>2&#45;&gt;v</title>
<path fill="none" stroke="#00b9f1" stroke-width="2" d="M1244.01,-1172.46C1204.71,-1173.94 1128.14,-1174.02 1066,-1157 909.57,-1114.16 853.32,-1109.04 740,-993 726.94,-979.63 736.57,-966.7 722,-955 638.11,-887.62 571.37,-966.5 486,-901 472.43,-890.59 476.3,-881.95 468,-867 459.65,-851.98 450.14,-835.53 441.94,-821.55"/>
<polygon fill="#00b9f1" stroke="#00b9f1" stroke-width="2" points="444.85,-819.6 436.76,-812.76 438.82,-823.15 444.85,-819.6"/>
<text text-anchor="middle" x="808" y="-1141.4" font-family="Times,serif" font-size="32.00">ε_2</text>
<text text-anchor="middle" x="808" y="-1106.4" font-family="Times,serif" font-size="32.00">=&gt;2 =d v</text>
</g>
<!-- 2&#45;&gt;1 -->
<g id="edge15" class="edge">
<title>2&#45;&gt;1</title>
<path fill="none" stroke="#00b9f1" stroke-width="2" d="M1258.38,-1198.04C1250.96,-1212.51 1240.08,-1229.65 1226,-1241 1132.53,-1316.36 1092.07,-1333 972,-1333 972,-1333 972,-1333 420,-1333 271.73,-1333 239.12,-1096.48 231.99,-999.62"/>
<polygon fill="#00b9f1" stroke="#00b9f1" stroke-width="2" points="235.48,-999.34 231.3,-989.61 228.49,-999.82 235.48,-999.34"/>
<text text-anchor="middle" x="663" y="-1377.4" font-family="Times,serif" font-size="32.00">ε_1</text>
<text text-anchor="middle" x="663" y="-1342.4" font-family="Times,serif" font-size="32.00">=&gt;2 =d 1</text>
</g>
<!-- 2&#45;&gt;perf -->
<g id="edge18" class="edge">
<title>2&#45;&gt;perf</title>
<path fill="none" stroke="#00b9f1" stroke-width="2" d="M1244.48,-1164.29C1238.44,-1162.79 1232.01,-1161.27 1226,-1160 1155.38,-1145.01 1121.1,-1178.64 1066,-1132 1047.65,-1116.47 1060.53,-1101.51 1048,-1081 990,-986.01 970.68,-957.5 876,-899 849.52,-882.64 771.72,-861.37 718.12,-847.95"/>
<polygon fill="#00b9f1" stroke="#00b9f1" stroke-width="2" points="718.96,-844.55 708.41,-845.54 717.27,-851.34 718.96,-844.55"/>
<text text-anchor="middle" x="971" y="-1125.4" font-family="Times,serif" font-size="32.00">n</text>
<text text-anchor="middle" x="971" y="-1090.4" font-family="Times,serif" font-size="32.00">=&gt;2 =d perf</text>
</g>
<!-- 2&#45;&gt;prog -->
<g id="edge17" class="edge">
<title>2&#45;&gt;prog</title>
<path fill="none" stroke="#00b9f1" stroke-width="2" d="M1260.14,-1143.15C1251.91,-1120.8 1239.39,-1088.85 1226,-1062 1164.43,-938.54 1133.14,-916.52 1066,-796 1057.49,-780.72 1060.06,-773.67 1048,-761 1040.52,-753.14 1031.32,-746.24 1021.93,-740.39"/>
<polygon fill="#00b9f1" stroke="#00b9f1" stroke-width="2" points="1023.7,-737.37 1013.31,-735.3 1020.15,-743.4 1023.7,-737.37"/>
<text text-anchor="middle" x="1146" y="-1106.4" font-family="Times,serif" font-size="32.00">ing</text>
<text text-anchor="middle" x="1146" y="-1071.4" font-family="Times,serif" font-size="32.00">=&gt;2 =d prog</text>
</g>
<!-- z1 -->
<g id="node10" class="node">
<title>z1</title>
<ellipse fill="none" stroke="black" stroke-dasharray="5,2" cx="1459" cy="-1171" rx="27" ry="18"/>
</g>
<!-- z1&#45;&gt;2 -->
<g id="edge14" class="edge">
<title>z1&#45;&gt;2</title>
<path fill="none" stroke="#00b9f1" stroke-width="2" d="M1431.75,-1171C1399.48,-1171 1344.56,-1171 1308.28,-1171"/>
<polygon fill="#00b9f1" stroke="#00b9f1" stroke-width="2" points="1308.12,-1167.5 1298.12,-1171 1308.12,-1174.5 1308.12,-1167.5"/>
<text text-anchor="middle" x="1365" y="-1215.4" font-family="Times,serif" font-size="32.00">laugh</text>
<text text-anchor="middle" x="1365" y="-1180.4" font-family="Times,serif" font-size="32.00">2</text>
</g>
<!-- 3 -->
<g id="node11" class="node">
<title>3</title>
<ellipse fill="none" stroke="black" cx="1271" cy="-978" rx="27" ry="30.31"/>
<text text-anchor="middle" x="1271" y="-969.9" font-family="Times,serif" font-size="32.00">3</text>
</g>
<!-- 3&#45;&gt;0 -->
<g id="edge19" class="edge">
<title>3&#45;&gt;0</title>
<path fill="none" stroke="#f7931d" stroke-width="2" d="M1244.59,-985.37C1238.55,-986.84 1232.09,-988.18 1226,-989 1147.58,-999.55 1127.13,-992.11 1048,-993 979.56,-993.77 962.44,-993.89 894,-993 859.52,-992.55 300.44,-985.14 274,-963 262.76,-953.59 246.07,-868.54 236.81,-816.76"/>
<polygon fill="#f7931d" stroke="#f7931d" stroke-width="2" points="240.25,-816.12 235.06,-806.88 233.36,-817.34 240.25,-816.12"/>
<text text-anchor="middle" x="663" y="-1033.4" font-family="Times,serif" font-size="32.00">ε_3</text>
<text text-anchor="middle" x="663" y="-998.4" font-family="Times,serif" font-size="32.00">=&gt;3 =d 0</text>
</g>
<!-- 3&#45;&gt;v -->
<g id="edge22" class="edge">
<title>3&#45;&gt;v</title>
<path fill="none" stroke="#f7931d" stroke-width="2" d="M1243.83,-979.37C1163.16,-983.38 922.03,-993.49 894,-973 873.58,-958.07 895.74,-934.82 876,-919 808.02,-864.52 561.17,-923.05 486,-879 464.71,-866.52 448.73,-843.83 438.06,-824.23"/>
<polygon fill="#f7931d" stroke="#f7931d" stroke-width="2" points="441.09,-822.48 433.39,-815.21 434.88,-825.7 441.09,-822.48"/>
<text text-anchor="middle" x="808" y="-963.4" font-family="Times,serif" font-size="32.00">ε_5</text>
<text text-anchor="middle" x="808" y="-928.4" font-family="Times,serif" font-size="32.00">=&gt;3 =d v</text>
</g>
<!-- 3&#45;&gt;1 -->
<g id="edge21" class="edge">
<title>3&#45;&gt;1</title>
<path fill="none" stroke="#f7931d" stroke-width="2" d="M1268.94,-1008.38C1266.08,-1038.73 1256.57,-1084.07 1226,-1107 1004.63,-1273.04 873.34,-1071.48 604,-1135 595.48,-1137.01 594.56,-1141.18 586,-1143 542.52,-1152.23 529.43,-1152.46 486,-1143 384.76,-1120.94 348.69,-1117.82 274,-1046 260.03,-1032.56 249.75,-1013.74 242.66,-997.03"/>
<polygon fill="#f7931d" stroke="#f7931d" stroke-width="2" points="245.81,-995.49 238.85,-987.5 239.31,-998.09 245.81,-995.49"/>
<text text-anchor="middle" x="663" y="-1179.4" font-family="Times,serif" font-size="32.00">ε_4</text>
<text text-anchor="middle" x="663" y="-1144.4" font-family="Times,serif" font-size="32.00">=&gt;3 =d 1</text>
</g>
<!-- 3&#45;&gt;perf -->
<g id="edge24" class="edge">
<title>3&#45;&gt;perf</title>
<path fill="none" stroke="#f7931d" stroke-width="2" d="M1252.18,-955.72C1217.85,-914.82 1137.95,-829.02 1048,-797 983.52,-774.05 954.07,-764.2 894,-797 881.02,-804.09 888.81,-817.61 876,-825 828.38,-852.48 764.25,-851.32 719.03,-845.57"/>
<polygon fill="#f7931d" stroke="#f7931d" stroke-width="2" points="719.5,-842.11 709.11,-844.2 718.54,-849.04 719.5,-842.11"/>
<text text-anchor="middle" x="971" y="-841.4" font-family="Times,serif" font-size="32.00">n_1</text>
<text text-anchor="middle" x="971" y="-806.4" font-family="Times,serif" font-size="32.00">=&gt;3 =d perf</text>
</g>
<!-- 3&#45;&gt;prog -->
<g id="edge23" class="edge">
<title>3&#45;&gt;prog</title>
<path fill="none" stroke="#f7931d" stroke-width="2" d="M1269.42,-947.62C1267.54,-886.26 1259.6,-750.89 1226,-722 1198.06,-697.98 1098.42,-703.18 1032.55,-709.69"/>
<polygon fill="#f7931d" stroke="#f7931d" stroke-width="2" points="1031.88,-706.24 1022.29,-710.75 1032.59,-713.21 1031.88,-706.24"/>
<text text-anchor="middle" x="1146" y="-766.4" font-family="Times,serif" font-size="32.00">ing_1</text>
<text text-anchor="middle" x="1146" y="-731.4" font-family="Times,serif" font-size="32.00">=&gt;3 =d prog</text>
</g>
<!-- z2 -->
<g id="node12" class="node">
<title>z2</title>
<ellipse fill="none" stroke="black" stroke-dasharray="5,2" cx="1459" cy="-978" rx="27" ry="18"/>
</g>
<!-- z2&#45;&gt;3 -->
<g id="edge20" class="edge">
<title>z2&#45;&gt;3</title>
<path fill="none" stroke="#f7931d" stroke-width="2" d="M1431.75,-978C1399.48,-978 1344.56,-978 1308.28,-978"/>
<polygon fill="#f7931d" stroke="#f7931d" stroke-width="2" points="1308.12,-974.5 1298.12,-978 1308.12,-981.5 1308.12,-974.5"/>
<text text-anchor="middle" x="1365" y="-1022.4" font-family="Times,serif" font-size="32.00">dance</text>
<text text-anchor="middle" x="1365" y="-987.4" font-family="Times,serif" font-size="32.00">3</text>
</g>
<!-- 4&#45;&gt;0 -->
<g id="edge25" class="edge">
<title>4&#45;&gt;0</title>
<path fill="none" stroke="#000000" d="M1266.55,-509.82C1261.87,-482.23 1251,-442.03 1226,-417 1141.9,-332.8 839.24,-256.41 722,-236 670.33,-227 656.09,-229.93 604,-236 454.31,-253.45 373,-200.37 274,-314 246.54,-345.52 234.71,-629.06 231.2,-736.23"/>
<polygon fill="#000000" stroke="#000000" points="227.7,-736.23 230.87,-746.33 234.69,-736.45 227.7,-736.23"/>
<text text-anchor="middle" x="663" y="-280.4" font-family="Times,serif" font-size="32.00">ε_6</text>
<text text-anchor="middle" x="663" y="-245.4" font-family="Times,serif" font-size="32.00">=&gt;4 =d 0</text>
</g>
<!-- 4&#45;&gt;v -->
<g id="edge28" class="edge">
<title>4&#45;&gt;v</title>
<path fill="none" stroke="#000000" d="M1243.99,-540.3C1194.93,-540.31 1091.35,-537.46 1066,-514 1037.02,-487.18 1078.62,-451.93 1048,-427 994.93,-383.78 958.36,-403.7 894,-427 884.21,-430.55 885.46,-437.65 876,-442 820.31,-467.62 799.39,-449.83 740,-465 678.04,-480.83 657.52,-476.99 604,-512 539.25,-554.36 528.17,-575.13 486,-640 463.35,-674.84 445.45,-719.03 434.41,-750.02"/>
<polygon fill="#000000" stroke="#000000" points="431.06,-749 431.06,-759.59 437.67,-751.3 431.06,-749"/>
<text text-anchor="middle" x="808" y="-509.4" font-family="Times,serif" font-size="32.00">ε_8</text>
<text text-anchor="middle" x="808" y="-474.4" font-family="Times,serif" font-size="32.00">=&gt;4 =d v</text>
</g>
<!-- 4&#45;&gt;1 -->
<g id="edge27" class="edge">
<title>4&#45;&gt;1</title>
<path fill="none" stroke="#000000" d="M1243.91,-540.38C1128.39,-542.14 665.99,-550.33 604,-569 555.18,-583.71 304.9,-726.25 274,-769 265.21,-781.16 247.51,-867.51 237.44,-919.52"/>
<polygon fill="#000000" stroke="#000000" points="233.99,-918.95 235.54,-929.43 240.86,-920.27 233.99,-918.95"/>
<text text-anchor="middle" x="663" y="-613.4" font-family="Times,serif" font-size="32.00">ε_7</text>
<text text-anchor="middle" x="663" y="-578.4" font-family="Times,serif" font-size="32.00">=&gt;4 =d 1</text>
</g>
<!-- 4&#45;&gt;perf -->
<g id="edge30" class="edge">
<title>4&#45;&gt;perf</title>
<path fill="none" stroke="#000000" d="M1247.64,-556.26C1240.97,-560.39 1233.44,-564.39 1226,-567 1085.67,-616.11 1031.72,-551.99 894,-608 814.38,-640.38 786.99,-653.02 740,-725 721.26,-753.71 742.24,-772.34 722,-800 718.91,-804.22 715.14,-808.03 711.03,-811.45"/>
<polygon fill="#000000" stroke="#000000" points="708.74,-808.79 702.77,-817.54 712.9,-814.42 708.74,-808.79"/>
<text text-anchor="middle" x="971" y="-652.4" font-family="Times,serif" font-size="32.00">n_2</text>
<text text-anchor="middle" x="971" y="-617.4" font-family="Times,serif" font-size="32.00">=&gt;4 =d perf</text>
</g>
<!-- 4&#45;&gt;prog -->
<g id="edge29" class="edge">
<title>4&#45;&gt;prog</title>
<path fill="none" stroke="#000000" d="M1258.49,-567.28C1251.22,-581.12 1240.44,-596.89 1226,-606 1165.24,-644.33 1122.64,-584.8 1066,-629 1049.34,-642 1061.89,-657.08 1048,-673 1040.87,-681.18 1031.82,-688.22 1022.48,-694.11"/>
<polygon fill="#000000" stroke="#000000" points="1020.69,-691.1 1013.86,-699.2 1024.25,-697.12 1020.69,-691.1"/>
<text text-anchor="middle" x="1146" y="-673.4" font-family="Times,serif" font-size="32.00">ing_2</text>
<text text-anchor="middle" x="1146" y="-638.4" font-family="Times,serif" font-size="32.00">=&gt;4 =d prog</text>
</g>
<!-- 5&#45;&gt;0 -->
<g id="edge31" class="edge">
<title>5&#45;&gt;0</title>
<path fill="none" stroke="#000000" d="M1262.65,-355.59C1255.95,-333.26 1244.26,-302.79 1226,-281 1139.54,-177.82 1106.62,-116 972,-116 972,-116 972,-116 420,-116 332.22,-116 312.78,-170.25 274,-249 231.87,-334.55 229.12,-627.89 229.6,-736.3"/>
<polygon fill="#000000" stroke="#000000" points="226.1,-736.52 229.66,-746.5 233.1,-736.49 226.1,-736.52"/>
<text text-anchor="middle" x="663" y="-160.4" font-family="Times,serif" font-size="32.00">ε_9</text>
<text text-anchor="middle" x="663" y="-125.4" font-family="Times,serif" font-size="32.00">=&gt;5 =d 0</text>
</g>
<!-- 5&#45;&gt;v -->
<g id="edge34" class="edge">
<title>5&#45;&gt;v</title>
<path fill="none" stroke="#000000" d="M1245.23,-375.47C1165.14,-346.35 908.58,-266.5 740,-368 725.35,-376.82 734.19,-390.01 722,-402 638.11,-484.52 558.91,-429.64 486,-522 433.74,-588.2 423.19,-690.53 421.63,-747.03"/>
<polygon fill="#000000" stroke="#000000" points="418.12,-747.29 421.43,-757.36 425.12,-747.43 418.12,-747.29"/>
<text text-anchor="middle" x="808" y="-412.4" font-family="Times,serif" font-size="32.00">ε_11</text>
<text text-anchor="middle" x="808" y="-377.4" font-family="Times,serif" font-size="32.00">=&gt;5 =d v</text>
</g>
<!-- 5&#45;&gt;1 -->
<g id="edge33" class="edge">
<title>5&#45;&gt;1</title>
<path fill="none" stroke="#000000" d="M1257.17,-358.61C1249.82,-346.49 1239.37,-333.23 1226,-326 1165.21,-293.12 666.34,-298.17 604,-328 553.2,-352.31 314.05,-616.02 274,-702 252.34,-748.5 264.59,-765.43 256,-816 250.05,-851.01 242.79,-890.74 237.45,-919.42"/>
<polygon fill="#000000" stroke="#000000" points="233.97,-918.98 235.58,-929.46 240.85,-920.27 233.97,-918.98"/>
<text text-anchor="middle" x="663" y="-372.4" font-family="Times,serif" font-size="32.00">ε_10</text>
<text text-anchor="middle" x="663" y="-337.4" font-family="Times,serif" font-size="32.00">=&gt;5 =d 1</text>
</g>
<!-- 5&#45;&gt;perf -->
<g id="edge36" class="edge">
<title>5&#45;&gt;perf</title>
<path fill="none" stroke="#000000" d="M1243.98,-387.66C1204.62,-392.19 1127.99,-403.02 1066,-424 985.04,-451.39 957.6,-452.91 894,-510 882.99,-519.88 886.81,-527.9 876,-538 825.57,-585.14 777.91,-555.31 740,-613 694.15,-682.78 766.49,-729.34 722,-800 719.17,-804.49 715.54,-808.48 711.48,-812.01"/>
<polygon fill="#000000" stroke="#000000" points="709.1,-809.43 703.23,-818.25 713.32,-815.01 709.1,-809.43"/>
<text text-anchor="middle" x="971" y="-554.4" font-family="Times,serif" font-size="32.00">n_3</text>
<text text-anchor="middle" x="971" y="-519.4" font-family="Times,serif" font-size="32.00">=&gt;5 =d perf</text>
</g>
<!-- 5&#45;&gt;prog -->
<g id="edge35" class="edge">
<title>5&#45;&gt;prog</title>
<path fill="none" stroke="#000000" d="M1248.79,-402.92C1241.64,-408.81 1233.57,-415.3 1226,-421 1156.9,-473.11 1110.91,-458.02 1066,-532 1033.22,-586 1082.96,-620.38 1048,-673 1042.05,-681.95 1033.62,-689.31 1024.52,-695.27"/>
<polygon fill="#000000" stroke="#000000" points="1022.44,-692.43 1015.65,-700.56 1026.03,-698.44 1022.44,-692.43"/>
<text text-anchor="middle" x="1146" y="-576.4" font-family="Times,serif" font-size="32.00">ing_3</text>
<text text-anchor="middle" x="1146" y="-541.4" font-family="Times,serif" font-size="32.00">=&gt;5 =d prog</text>
</g>
</g>
</svg>
