<?xml version="1.0" encoding="UTF-8" standalone="no"?>
<!DOCTYPE svg PUBLIC "-//W3C//DTD SVG 1.1//EN"
 "http://www.w3.org/Graphics/SVG/1.1/DTD/svg11.dtd">
<!-- Generated by graphviz version 2.47.1 (20210417.1919)
 -->
<!-- Title: G Pages: 1 -->
<svg width="1846pt" height="1104pt"
 viewBox="0.00 0.00 1846.00 1104.00" xmlns="http://www.w3.org/2000/svg" xmlns:xlink="http://www.w3.org/1999/xlink">
<g id="graph0" class="graph" transform="scale(1 1) rotate(0) translate(4 1100)">
<title>G</title>
<polygon fill="white" stroke="transparent" points="-4,4 -4,-1100 1842,-1100 1842,4 -4,4"/>
<text text-anchor="middle" x="919" y="-13.4" font-family="Times,serif" font-size="32.00">single contraction: 4 → 2</text>
<!-- t -->
<g id="node1" class="node">
<title>t</title>
<ellipse fill="lightgray" stroke="black" cx="27" cy="-565" rx="27" ry="30.31"/>
<text text-anchor="middle" x="27" y="-556.9" font-family="Times,serif" font-size="32.00">t</text>
</g>
<!-- z0 -->
<g id="node2" class="node">
<title>z0</title>
<ellipse fill="none" stroke="black" stroke-dasharray="5,2" cx="1811" cy="-707" rx="27" ry="18"/>
</g>
<!-- d -->
<g id="node3" class="node">
<title>d</title>
<ellipse fill="none" stroke="black" cx="1651" cy="-707" rx="27" ry="30.31"/>
<text text-anchor="middle" x="1651" y="-698.9" font-family="Times,serif" font-size="32.00">d</text>
</g>
<!-- z0&#45;&gt;d -->
<g id="edge1" class="edge">
<title>z0&#45;&gt;d</title>
<path fill="none" stroke="#000000" d="M1783.91,-707C1757.84,-707 1717.53,-707 1688.34,-707"/>
<polygon fill="#000000" stroke="#000000" points="1688.13,-703.5 1678.13,-707 1688.13,-710.5 1688.13,-703.5"/>
<text text-anchor="middle" x="1731" y="-751.4" font-family="Times,serif" font-size="32.00">Mary</text>
<text text-anchor="middle" x="1731" y="-716.4" font-family="Times,serif" font-size="32.00">d &#45;k</text>
</g>
<!-- 2 -->
<g id="node9" class="node">
<title>2</title>
<ellipse fill="none" stroke="black" cx="1169" cy="-720" rx="27" ry="30.31"/>
<text text-anchor="middle" x="1169" y="-711.9" font-family="Times,serif" font-size="32.00">2</text>
</g>
<!-- d&#45;&gt;2 -->
<g id="edge14" class="edge">
<title>d&#45;&gt;2</title>
<path fill="none" stroke="#000000" d="M1633.28,-730.1C1625.94,-738.32 1616.58,-746.62 1606,-751 1525.52,-784.34 1297.04,-777.32 1214,-751 1209.01,-749.42 1204.09,-747.04 1199.46,-744.3"/>
<polygon fill="#000000" stroke="#000000" points="1201.22,-741.27 1190.95,-738.67 1197.36,-747.1 1201.22,-741.27"/>
<text text-anchor="middle" x="1378" y="-818.4" font-family="Times,serif" font-size="32.00">laugh</text>
<text text-anchor="middle" x="1378" y="-783.4" font-family="Times,serif" font-size="32.00">=d 2</text>
</g>
<!-- d&#45;&gt;2 -->
<g id="edge25" class="edge">
<title>d&#45;&gt;2</title>
<path fill="none" stroke="#000000" d="M1637.76,-733.56C1630.21,-747.63 1619.41,-764.35 1606,-776 1547.75,-826.61 1523.41,-831.63 1448,-848 1387.19,-861.2 1366.73,-868.56 1308,-848 1258.03,-830.51 1216.03,-783.89 1191.93,-752.01"/>
<polygon fill="#000000" stroke="#000000" points="1194.67,-749.82 1185.91,-743.85 1189.03,-753.98 1194.67,-749.82"/>
<text text-anchor="middle" x="1378" y="-905.4" font-family="Times,serif" font-size="32.00">hug</text>
<text text-anchor="middle" x="1378" y="-870.4" font-family="Times,serif" font-size="32.00">=d *k =d 2</text>
</g>
<!-- 3 -->
<g id="node10" class="node">
<title>3</title>
<ellipse fill="none" stroke="black" cx="1378" cy="-328" rx="27" ry="30.31"/>
<text text-anchor="middle" x="1378" y="-319.9" font-family="Times,serif" font-size="32.00">3</text>
</g>
<!-- d&#45;&gt;3 -->
<g id="edge20" class="edge">
<title>d&#45;&gt;3</title>
<path fill="none" stroke="#000000" d="M1645.14,-677.21C1639.26,-646.87 1627.36,-599.26 1606,-563 1552.52,-472.21 1457.14,-389.45 1408.82,-350.86"/>
<polygon fill="#000000" stroke="#000000" points="1410.93,-348.08 1400.92,-344.62 1406.59,-353.57 1410.93,-348.08"/>
<text text-anchor="middle" x="1536" y="-607.4" font-family="Times,serif" font-size="32.00">dance</text>
<text text-anchor="middle" x="1536" y="-572.4" font-family="Times,serif" font-size="32.00">=d 3</text>
</g>
<!-- 4 -->
<g id="node11" class="node">
<title>4</title>
<ellipse fill="none" stroke="black" cx="1378" cy="-617" rx="27" ry="30.31"/>
<text text-anchor="middle" x="1378" y="-608.9" font-family="Times,serif" font-size="32.00">4</text>
</g>
<!-- d&#45;&gt;4 -->
<g id="edge27" class="edge">
<title>d&#45;&gt;4</title>
<path fill="none" stroke="#000000" d="M1627.3,-692.07C1620.62,-688.1 1613.18,-684.07 1606,-681 1541.04,-653.21 1460.51,-633.8 1414.92,-624.11"/>
<polygon fill="#000000" stroke="#000000" points="1415.43,-620.64 1404.93,-622.02 1414,-627.49 1415.43,-620.64"/>
<text text-anchor="middle" x="1536" y="-725.4" font-family="Times,serif" font-size="32.00">praise</text>
<text text-anchor="middle" x="1536" y="-690.4" font-family="Times,serif" font-size="32.00">=d *k =d 4</text>
</g>
<!-- 0 -->
<g id="node4" class="node">
<title>0</title>
<ellipse fill="none" stroke="black" cx="229" cy="-684" rx="27" ry="30.31"/>
<text text-anchor="middle" x="229" y="-675.9" font-family="Times,serif" font-size="32.00">0</text>
</g>
<!-- 0&#45;&gt;t -->
<g id="edge2" class="edge">
<title>0&#45;&gt;t</title>
<path fill="none" stroke="#000000" d="M202.97,-675.57C170.82,-664.03 114.14,-641.26 72,-611 65.31,-606.2 58.78,-600.29 52.9,-594.33"/>
<polygon fill="#000000" stroke="#000000" points="55.23,-591.7 45.81,-586.83 50.14,-596.51 55.23,-591.7"/>
<text text-anchor="middle" x="128" y="-712.4" font-family="Times,serif" font-size="32.00">s</text>
<text text-anchor="middle" x="128" y="-677.4" font-family="Times,serif" font-size="32.00">=&gt;0 +k t</text>
</g>
<!-- v -->
<g id="node5" class="node">
<title>v</title>
<ellipse fill="none" stroke="black" cx="421" cy="-566" rx="27" ry="30.31"/>
<text text-anchor="middle" x="421" y="-557.9" font-family="Times,serif" font-size="32.00">v</text>
</g>
<!-- v&#45;&gt;0 -->
<g id="edge3" class="edge">
<title>v&#45;&gt;0</title>
<path fill="none" stroke="#000000" d="M393.77,-565.76C362.2,-566.78 309.09,-572.85 274,-600 259.09,-611.54 248.71,-629.56 241.8,-645.96"/>
<polygon fill="#000000" stroke="#000000" points="238.5,-644.78 238.12,-655.37 245.02,-647.33 238.5,-644.78"/>
<text text-anchor="middle" x="315" y="-644.4" font-family="Times,serif" font-size="32.00">will</text>
<text text-anchor="middle" x="315" y="-609.4" font-family="Times,serif" font-size="32.00">=v 0</text>
</g>
<!-- 1 -->
<g id="node6" class="node">
<title>1</title>
<ellipse fill="none" stroke="black" cx="229" cy="-448" rx="27" ry="30.31"/>
<text text-anchor="middle" x="229" y="-439.9" font-family="Times,serif" font-size="32.00">1</text>
</g>
<!-- v&#45;&gt;1 -->
<g id="edge5" class="edge">
<title>v&#45;&gt;1</title>
<path fill="none" stroke="#000000" d="M398.96,-547.56C390.8,-539.98 381.61,-530.91 374,-522 364.88,-511.31 367.06,-504.67 356,-496 341.49,-484.63 297.16,-469.09 265.19,-458.81"/>
<polygon fill="#000000" stroke="#000000" points="265.88,-455.36 255.29,-455.67 263.76,-462.03 265.88,-455.36"/>
<text text-anchor="middle" x="315" y="-540.4" font-family="Times,serif" font-size="32.00">will_1</text>
<text text-anchor="middle" x="315" y="-505.4" font-family="Times,serif" font-size="32.00">=v 1</text>
</g>
<!-- 1&#45;&gt;t -->
<g id="edge4" class="edge">
<title>1&#45;&gt;t</title>
<path fill="none" stroke="#000000" d="M204.67,-461.65C168.84,-482.61 100.2,-522.77 59.83,-546.38"/>
<polygon fill="#000000" stroke="#000000" points="58.05,-543.37 51.19,-551.44 61.58,-549.41 58.05,-543.37"/>
<text text-anchor="middle" x="128" y="-581.4" font-family="Times,serif" font-size="32.00">d</text>
<text text-anchor="middle" x="128" y="-546.4" font-family="Times,serif" font-size="32.00">=&gt;1 +k t</text>
</g>
<!-- perf -->
<g id="node7" class="node">
<title>perf</title>
<ellipse fill="none" stroke="black" cx="654" cy="-557" rx="48.17" ry="30.31"/>
<text text-anchor="middle" x="654" y="-548.9" font-family="Times,serif" font-size="32.00">perf</text>
</g>
<!-- perf&#45;&gt;0 -->
<g id="edge6" class="edge">
<title>perf&#45;&gt;0</title>
<path fill="none" stroke="#000000" d="M626,-581.97C614.4,-591.59 600.25,-601.95 586,-609 477.95,-662.48 333.12,-677.91 266.42,-682.29"/>
<polygon fill="#000000" stroke="#000000" points="265.79,-678.82 256.03,-682.93 266.22,-685.81 265.79,-678.82"/>
<text text-anchor="middle" x="421" y="-714.4" font-family="Times,serif" font-size="32.00">have</text>
<text text-anchor="middle" x="421" y="-679.4" font-family="Times,serif" font-size="32.00">=perf 0</text>
</g>
<!-- perf&#45;&gt;v -->
<g id="edge8" class="edge">
<title>perf&#45;&gt;v</title>
<path fill="none" stroke="#000000" d="M612.41,-541.4C603.81,-538.74 594.7,-536.39 586,-535 542.11,-527.98 529.32,-525.06 486,-535 475.15,-537.49 464,-542.07 454.11,-546.96"/>
<polygon fill="#000000" stroke="#000000" points="452.31,-543.96 445.07,-551.69 455.55,-550.16 452.31,-543.96"/>
<text text-anchor="middle" x="536" y="-579.4" font-family="Times,serif" font-size="32.00">have_2</text>
<text text-anchor="middle" x="536" y="-544.4" font-family="Times,serif" font-size="32.00">=perf v</text>
</g>
<!-- perf&#45;&gt;1 -->
<g id="edge7" class="edge">
<title>perf&#45;&gt;1</title>
<path fill="none" stroke="#000000" d="M621.84,-534.31C586.53,-510.05 526.29,-472.92 468,-457 398.47,-438.01 313.28,-440.71 265.99,-444.36"/>
<polygon fill="#000000" stroke="#000000" points="265.61,-440.88 255.94,-445.2 266.19,-447.86 265.61,-440.88"/>
<text text-anchor="middle" x="421" y="-501.4" font-family="Times,serif" font-size="32.00">have_1</text>
<text text-anchor="middle" x="421" y="-466.4" font-family="Times,serif" font-size="32.00">=perf 1</text>
</g>
<!-- prog -->
<g id="node8" class="node">
<title>prog</title>
<ellipse fill="none" stroke="black" cx="932" cy="-723" rx="52.15" ry="30.31"/>
<text text-anchor="middle" x="932" y="-714.9" font-family="Times,serif" font-size="32.00">prog</text>
</g>
<!-- prog&#45;&gt;0 -->
<g id="edge9" class="edge">
<title>prog&#45;&gt;0</title>
<path fill="none" stroke="#000000" d="M884.94,-736.5C819.28,-754.97 694.68,-787.17 586,-799 541.82,-803.81 529.5,-808.1 486,-799 400.16,-781.04 308.47,-731.48 261.59,-703.64"/>
<polygon fill="#000000" stroke="#000000" points="263.21,-700.53 252.83,-698.38 259.6,-706.53 263.21,-700.53"/>
<text text-anchor="middle" x="536" y="-849.4" font-family="Times,serif" font-size="32.00">be</text>
<text text-anchor="middle" x="536" y="-814.4" font-family="Times,serif" font-size="32.00">=prog 0</text>
</g>
<!-- prog&#45;&gt;v -->
<g id="edge11" class="edge">
<title>prog&#45;&gt;v</title>
<path fill="none" stroke="#000000" d="M880.71,-716.69C822.85,-709.03 734.19,-695.91 722,-686 705.29,-672.41 720.79,-654.49 704,-641 627.46,-579.48 578.06,-639.18 486,-605 474.49,-600.73 462.77,-594.31 452.56,-587.9"/>
<polygon fill="#000000" stroke="#000000" points="454.3,-584.86 444.02,-582.33 450.48,-590.72 454.3,-584.86"/>
<text text-anchor="middle" x="654" y="-685.4" font-family="Times,serif" font-size="32.00">be_2</text>
<text text-anchor="middle" x="654" y="-650.4" font-family="Times,serif" font-size="32.00">=prog v</text>
</g>
<!-- prog&#45;&gt;1 -->
<g id="edge10" class="edge">
<title>prog&#45;&gt;1</title>
<path fill="none" stroke="#000000" d="M879.39,-723.35C743.57,-724.21 385.84,-726.08 374,-722 364.42,-718.7 364.02,-714.2 356,-708 319.64,-679.89 298.71,-683.75 274,-645 243.43,-597.06 233.93,-530.76 231.08,-488.62"/>
<polygon fill="#000000" stroke="#000000" points="234.56,-488.24 230.49,-478.46 227.58,-488.64 234.56,-488.24"/>
<text text-anchor="middle" x="536" y="-769.4" font-family="Times,serif" font-size="32.00">be_1</text>
<text text-anchor="middle" x="536" y="-734.4" font-family="Times,serif" font-size="32.00">=prog 1</text>
</g>
<!-- prog&#45;&gt;perf -->
<g id="edge12" class="edge">
<title>prog&#45;&gt;perf</title>
<path fill="none" stroke="#000000" d="M896.16,-700.52C888.64,-694.31 881.35,-687.04 876,-679 859.87,-654.76 879.7,-635.42 858,-616 812.32,-575.12 779.99,-612.88 722,-593 714.01,-590.26 705.83,-586.64 698.05,-582.76"/>
<polygon fill="#000000" stroke="#000000" points="699.63,-579.63 689.14,-578.11 696.39,-585.84 699.63,-579.63"/>
<text text-anchor="middle" x="790" y="-660.4" font-family="Times,serif" font-size="32.00">ben</text>
<text text-anchor="middle" x="790" y="-625.4" font-family="Times,serif" font-size="32.00">=prog perf</text>
</g>
<!-- 2&#45;&gt;0 -->
<g id="edge13" class="edge">
<title>2&#45;&gt;0</title>
<path fill="none" stroke="#000000" d="M1159.98,-748.67C1153.09,-769.26 1141.46,-796.69 1124,-816 1058,-888.99 1031.41,-928 933,-928 933,-928 933,-928 420,-928 317.14,-928 261.83,-791.35 240.5,-722.58"/>
<polygon fill="#000000" stroke="#000000" points="243.83,-721.51 237.6,-712.95 237.13,-723.53 243.83,-721.51"/>
<text text-anchor="middle" x="654" y="-972.4" font-family="Times,serif" font-size="32.00">ε_0</text>
<text text-anchor="middle" x="654" y="-937.4" font-family="Times,serif" font-size="32.00">=&gt;2 0</text>
</g>
<!-- 2&#45;&gt;v -->
<g id="edge16" class="edge">
<title>2&#45;&gt;v</title>
<path fill="none" stroke="#000000" d="M1158.29,-748.31C1151.35,-763.87 1140.3,-781.82 1124,-791 1062.22,-825.77 539.07,-843 486,-796 461.2,-774.03 478.3,-679.49 468,-648 462.33,-630.66 452.84,-612.82 443.94,-598.23"/>
<polygon fill="#000000" stroke="#000000" points="446.81,-596.21 438.52,-589.6 440.88,-599.93 446.81,-596.21"/>
<text text-anchor="middle" x="790" y="-869.4" font-family="Times,serif" font-size="32.00">ε_2</text>
<text text-anchor="middle" x="790" y="-834.4" font-family="Times,serif" font-size="32.00">=&gt;2 v</text>
</g>
<!-- 2&#45;&gt;1 -->
<g id="edge15" class="edge">
<title>2&#45;&gt;1</title>
<path fill="none" stroke="#000000" d="M1165,-689.88C1159.66,-642.84 1146.86,-555.25 1124,-535 1082.48,-498.23 930.11,-519.18 876,-507 797.16,-489.25 783.45,-462.81 704,-448 600.81,-428.77 572.94,-441.47 468,-439 381.8,-436.97 359.69,-428.39 274,-438 271.15,-438.32 268.22,-438.75 265.29,-439.26"/>
<polygon fill="#000000" stroke="#000000" points="264.56,-435.83 255.43,-441.21 265.92,-442.7 264.56,-435.83"/>
<text text-anchor="middle" x="654" y="-492.4" font-family="Times,serif" font-size="32.00">ε_1</text>
<text text-anchor="middle" x="654" y="-457.4" font-family="Times,serif" font-size="32.00">=&gt;2 1</text>
</g>
<!-- 2&#45;&gt;perf -->
<g id="edge18" class="edge">
<title>2&#45;&gt;perf</title>
<path fill="none" stroke="#000000" d="M1144.58,-706.45C1113.01,-688.13 1055.09,-654.39 1006,-625 997.96,-620.18 996.78,-617.29 988,-614 981.53,-611.57 804.16,-581.84 710.99,-566.31"/>
<polygon fill="#000000" stroke="#000000" points="711.32,-562.81 700.88,-564.62 710.17,-569.72 711.32,-562.81"/>
<text text-anchor="middle" x="932" y="-658.4" font-family="Times,serif" font-size="32.00">n</text>
<text text-anchor="middle" x="932" y="-623.4" font-family="Times,serif" font-size="32.00">=&gt;2 perf</text>
</g>
<!-- 2&#45;&gt;prog -->
<g id="edge17" class="edge">
<title>2&#45;&gt;prog</title>
<path fill="none" stroke="#000000" d="M1141.9,-719.99C1109.89,-720.02 1053.95,-720.2 1006,-721 1002.3,-721.06 998.49,-721.14 994.64,-721.22"/>
<polygon fill="#000000" stroke="#000000" points="994.36,-717.72 984.44,-721.45 994.52,-724.72 994.36,-717.72"/>
<text text-anchor="middle" x="1065" y="-765.4" font-family="Times,serif" font-size="32.00">ing</text>
<text text-anchor="middle" x="1065" y="-730.4" font-family="Times,serif" font-size="32.00">=&gt;2 prog</text>
</g>
<!-- 3&#45;&gt;0 -->
<g id="edge19" class="edge">
<title>3&#45;&gt;0</title>
<path fill="none" stroke="#000000" d="M1353.81,-314.33C1336.73,-304.89 1312.64,-292.85 1290,-286 1169.09,-249.43 845.52,-237.57 722,-264 509.83,-309.41 409.96,-288.9 274,-458 251.48,-486.01 238.89,-586.16 233.39,-643.3"/>
<polygon fill="#000000" stroke="#000000" points="229.89,-643.16 232.44,-653.44 236.86,-643.81 229.89,-643.16"/>
<text text-anchor="middle" x="790" y="-308.4" font-family="Times,serif" font-size="32.00">ε_3</text>
<text text-anchor="middle" x="790" y="-273.4" font-family="Times,serif" font-size="32.00">=&gt;3 0</text>
</g>
<!-- 3&#45;&gt;v -->
<g id="edge22" class="edge">
<title>3&#45;&gt;v</title>
<path fill="none" stroke="#000000" d="M1351.85,-319.08C1334.67,-313.41 1311.24,-306.5 1290,-303 1199.17,-288.06 951.48,-236.31 876,-289 856.98,-302.28 875.99,-323.35 858,-338 769.5,-410.1 706.14,-325.05 604,-376 538.19,-408.83 528.32,-431.86 486,-492 475.01,-507.61 479.95,-516.11 468,-531 463.7,-536.36 458.4,-541.36 452.95,-545.81"/>
<polygon fill="#000000" stroke="#000000" points="450.78,-543.06 444.96,-551.91 455.03,-548.63 450.78,-543.06"/>
<text text-anchor="middle" x="932" y="-333.4" font-family="Times,serif" font-size="32.00">ε_5</text>
<text text-anchor="middle" x="932" y="-298.4" font-family="Times,serif" font-size="32.00">=&gt;3 v</text>
</g>
<!-- 3&#45;&gt;1 -->
<g id="edge21" class="edge">
<title>3&#45;&gt;1</title>
<path fill="none" stroke="#000000" d="M1368.18,-299.18C1346.25,-234.03 1282.74,-81 1170,-81 1170,-81 1170,-81 420,-81 346.22,-81 316.46,-99.66 274,-160 246.45,-199.15 235.59,-337.85 231.79,-407.49"/>
<polygon fill="#000000" stroke="#000000" points="228.29,-407.48 231.27,-417.65 235.28,-407.84 228.29,-407.48"/>
<text text-anchor="middle" x="790" y="-125.4" font-family="Times,serif" font-size="32.00">ε_4</text>
<text text-anchor="middle" x="790" y="-90.4" font-family="Times,serif" font-size="32.00">=&gt;3 1</text>
</g>
<!-- 3&#45;&gt;perf -->
<g id="edge24" class="edge">
<title>3&#45;&gt;perf</title>
<path fill="none" stroke="#000000" d="M1350.77,-326.7C1273.83,-323.91 1043.58,-323.08 876,-401 804.59,-434.21 731.9,-490.85 690.26,-525.97"/>
<polygon fill="#000000" stroke="#000000" points="687.95,-523.34 682.6,-532.48 692.48,-528.67 687.95,-523.34"/>
<text text-anchor="middle" x="1065" y="-401.4" font-family="Times,serif" font-size="32.00">n_1</text>
<text text-anchor="middle" x="1065" y="-366.4" font-family="Times,serif" font-size="32.00">=&gt;3 perf</text>
</g>
<!-- 3&#45;&gt;2 -->
<g id="edge23" class="edge">
<title>3&#45;&gt;2</title>
<path fill="none" stroke="#000000" d="M1359.61,-350.84C1327.23,-394.24 1257.08,-492.47 1214,-584 1199.17,-615.5 1187.39,-653.31 1179.76,-681.06"/>
<polygon fill="#000000" stroke="#000000" points="1176.35,-680.23 1177.14,-690.8 1183.11,-682.05 1176.35,-680.23"/>
<text text-anchor="middle" x="1252" y="-628.4" font-family="Times,serif" font-size="32.00">ε_6</text>
<text text-anchor="middle" x="1252" y="-593.4" font-family="Times,serif" font-size="32.00">=&gt;3 2</text>
</g>
<!-- 4&#45;&gt;0 -->
<g id="edge26" class="edge">
<title>4&#45;&gt;0</title>
<path fill="none" stroke="#000000" d="M1364.36,-643.52C1321.05,-734.15 1180.76,-1026 1170,-1026 1170,-1026 1170,-1026 420,-1026 283.45,-1026 244.19,-815.08 233.63,-724.52"/>
<polygon fill="#000000" stroke="#000000" points="237.08,-723.91 232.51,-714.35 230.13,-724.67 237.08,-723.91"/>
<text text-anchor="middle" x="790" y="-1070.4" font-family="Times,serif" font-size="32.00">ε_7</text>
<text text-anchor="middle" x="790" y="-1035.4" font-family="Times,serif" font-size="32.00">=&gt;4 0</text>
</g>
<!-- 4&#45;&gt;v -->
<g id="edge29" class="edge">
<title>4&#45;&gt;v</title>
<path fill="none" stroke="#000000" d="M1357.19,-597.02C1340.54,-581.22 1315.44,-559.62 1290,-546 1166.19,-479.71 1126.88,-473.9 988,-453 876.56,-436.23 590.82,-483.6 486,-525 474.21,-529.66 462.25,-536.6 451.91,-543.45"/>
<polygon fill="#000000" stroke="#000000" points="449.91,-540.58 443.65,-549.13 453.87,-546.35 449.91,-540.58"/>
<text text-anchor="middle" x="932" y="-497.4" font-family="Times,serif" font-size="32.00">ε_9</text>
<text text-anchor="middle" x="932" y="-462.4" font-family="Times,serif" font-size="32.00">=&gt;4 v</text>
</g>
<!-- 4&#45;&gt;1 -->
<g id="edge28" class="edge">
<title>4&#45;&gt;1</title>
<path fill="none" stroke="#000000" d="M1361,-592.96C1304.52,-510.82 1104.52,-242.69 858,-175 643.76,-116.17 560.81,-179.74 374,-300 324.4,-331.93 279.06,-383.96 253.01,-417.06"/>
<polygon fill="#000000" stroke="#000000" points="250.18,-415 246.81,-425.04 255.71,-419.29 250.18,-415"/>
<text text-anchor="middle" x="790" y="-219.4" font-family="Times,serif" font-size="32.00">ε_8</text>
<text text-anchor="middle" x="790" y="-184.4" font-family="Times,serif" font-size="32.00">=&gt;4 1</text>
</g>
<!-- 4&#45;&gt;perf -->
<g id="edge31" class="edge">
<title>4&#45;&gt;perf</title>
<path fill="none" stroke="#000000" d="M1354.92,-601.17C1338,-589.91 1313.63,-575.5 1290,-568 1084.91,-502.87 823.48,-530.65 710.8,-547.53"/>
<polygon fill="#000000" stroke="#000000" points="710.05,-544.11 700.69,-549.08 711.1,-551.03 710.05,-544.11"/>
<text text-anchor="middle" x="1065" y="-579.4" font-family="Times,serif" font-size="32.00">n_2</text>
<text text-anchor="middle" x="1065" y="-544.4" font-family="Times,serif" font-size="32.00">=&gt;4 perf</text>
</g>
<!-- 4&#45;&gt;2 -->
<g id="edge30" class="edge">
<title>4&#45;&gt;2</title>
<path fill="none" stroke="#000000" d="M1353.04,-629.46C1335.79,-638.13 1311.82,-649.61 1290,-658 1257.06,-670.67 1244.81,-663.79 1214,-681 1208.01,-684.35 1202.14,-688.62 1196.73,-693.11"/>
<polygon fill="#000000" stroke="#000000" points="1194.37,-690.52 1189.18,-699.75 1199,-695.77 1194.37,-690.52"/>
<text text-anchor="middle" x="1252" y="-725.4" font-family="Times,serif" font-size="32.00">ε_10</text>
<text text-anchor="middle" x="1252" y="-690.4" font-family="Times,serif" font-size="32.00">=&gt;4 2</text>
</g>
</g>
</svg>
