<?xml version="1.0" encoding="UTF-8" standalone="no"?>
<!DOCTYPE svg PUBLIC "-//W3C//DTD SVG 1.1//EN"
 "http://www.w3.org/Graphics/SVG/1.1/DTD/svg11.dtd">
<!-- Generated by graphviz version 2.47.1 (20210417.1919)
 -->
<!-- Title: G Pages: 1 -->
<svg width="1758pt" height="570pt"
 viewBox="0.00 0.00 1758.00 570.16" xmlns="http://www.w3.org/2000/svg" xmlns:xlink="http://www.w3.org/1999/xlink">
<g id="graph0" class="graph" transform="scale(1 1) rotate(0) translate(4 566.16)">
<title>G</title>
<polygon fill="white" stroke="transparent" points="-4,4 -4,-566.16 1754,-566.16 1754,4 -4,4"/>
<text text-anchor="middle" x="875" y="-13.4" font-family="Times,serif" font-size="32.00">decomposition: will =v 0, will =v 1</text>
<!-- t -->
<g id="node1" class="node">
<title>t</title>
<ellipse fill="lightgray" stroke="black" cx="27" cy="-288.16" rx="27" ry="30.31"/>
<text text-anchor="middle" x="27" y="-280.06" font-family="Times,serif" font-size="32.00">t</text>
</g>
<!-- z0 -->
<g id="node2" class="node">
<title>z0</title>
<ellipse fill="none" stroke="black" stroke-dasharray="5,2" cx="1723" cy="-170.16" rx="27" ry="18"/>
</g>
<!-- d -->
<g id="node3" class="node">
<title>d</title>
<ellipse fill="none" stroke="black" cx="1563" cy="-170.16" rx="27" ry="30.31"/>
<text text-anchor="middle" x="1563" y="-162.06" font-family="Times,serif" font-size="32.00">d</text>
</g>
<!-- z0&#45;&gt;d -->
<g id="edge1" class="edge">
<title>z0&#45;&gt;d</title>
<path fill="none" stroke="#000000" d="M1695.91,-170.16C1669.84,-170.16 1629.53,-170.16 1600.34,-170.16"/>
<polygon fill="#000000" stroke="#000000" points="1600.13,-166.66 1590.13,-170.16 1600.13,-173.66 1600.13,-166.66"/>
<text text-anchor="middle" x="1643" y="-214.56" font-family="Times,serif" font-size="32.00">Mary</text>
<text text-anchor="middle" x="1643" y="-179.56" font-family="Times,serif" font-size="32.00">d &#45;k</text>
</g>
<!-- 3 -->
<g id="node10" class="node">
<title>3</title>
<ellipse fill="none" stroke="black" cx="1333" cy="-170.16" rx="27" ry="30.31"/>
<text text-anchor="middle" x="1333" y="-162.06" font-family="Times,serif" font-size="32.00">3</text>
</g>
<!-- d&#45;&gt;3 -->
<g id="edge14" class="edge">
<title>d&#45;&gt;3</title>
<path fill="none" stroke="#000000" d="M1544.67,-192.68C1537.37,-200.38 1528.19,-208.08 1518,-212.16 1460.24,-235.3 1435.76,-235.3 1378,-212.16 1370.99,-209.35 1364.46,-204.84 1358.7,-199.79"/>
<polygon fill="#000000" stroke="#000000" points="1360.96,-197.1 1351.33,-192.68 1356.1,-202.14 1360.96,-197.1"/>
<text text-anchor="middle" x="1448" y="-308.56" font-family="Times,serif" font-size="32.00">laugh |</text>
<text text-anchor="middle" x="1448" y="-273.56" font-family="Times,serif" font-size="32.00"> dance</text>
<text text-anchor="middle" x="1448" y="-238.56" font-family="Times,serif" font-size="32.00">=d 3</text>
</g>
<!-- d&#45;&gt;3 -->
<g id="edge18" class="edge">
<title>d&#45;&gt;3</title>
<path fill="none" stroke="#000000" d="M1551.42,-142.32C1544.33,-127.85 1533.43,-111.49 1518,-103.16 1463.24,-73.61 1432.76,-73.61 1378,-103.16 1365.7,-109.8 1356.28,-121.54 1349.38,-133.35"/>
<polygon fill="#000000" stroke="#000000" points="1346.21,-131.85 1344.58,-142.32 1352.38,-135.15 1346.21,-131.85"/>
<text text-anchor="middle" x="1448" y="-182.56" font-family="Times,serif" font-size="32.00">hug |</text>
<text text-anchor="middle" x="1448" y="-147.56" font-family="Times,serif" font-size="32.00"> praise</text>
<text text-anchor="middle" x="1448" y="-112.56" font-family="Times,serif" font-size="32.00">=d *k =d 3</text>
</g>
<!-- 0 -->
<g id="node4" class="node">
<title>0</title>
<ellipse fill="none" stroke="black" cx="229" cy="-187.16" rx="27" ry="30.31"/>
<text text-anchor="middle" x="229" y="-179.06" font-family="Times,serif" font-size="32.00">0</text>
</g>
<!-- 0&#45;&gt;t -->
<g id="edge2" class="edge">
<title>0&#45;&gt;t</title>
<path fill="none" stroke="#000000" d="M202.32,-192.32C169.98,-199.66 113.62,-215.29 72,-242.16 65.08,-246.63 58.46,-252.4 52.55,-258.32"/>
<polygon fill="#000000" stroke="#000000" points="49.79,-256.16 45.48,-265.84 54.88,-260.95 49.79,-256.16"/>
<text text-anchor="middle" x="128" y="-286.56" font-family="Times,serif" font-size="32.00">s</text>
<text text-anchor="middle" x="128" y="-251.56" font-family="Times,serif" font-size="32.00">=&gt;0 +k t</text>
</g>
<!-- 1 -->
<g id="node5" class="node">
<title>1</title>
<ellipse fill="none" stroke="black" cx="406" cy="-222.16" rx="27" ry="30.31"/>
<text text-anchor="middle" x="406" y="-214.06" font-family="Times,serif" font-size="32.00">1</text>
</g>
<!-- 1&#45;&gt;0 -->
<g id="edge3" class="edge">
<title>1&#45;&gt;0</title>
<path fill="none" stroke="#f7931d" stroke-width="2" d="M386.98,-200.44C377.21,-190.38 364.24,-179.5 350,-174.16 322.7,-163.93 289.63,-168.65 265.13,-175.11"/>
<polygon fill="#f7931d" stroke="#f7931d" stroke-width="2" points="263.85,-171.83 255.19,-177.94 265.77,-178.56 263.85,-171.83"/>
<text text-anchor="middle" x="312" y="-218.56" font-family="Times,serif" font-size="32.00">ε_0</text>
<text text-anchor="middle" x="312" y="-183.56" font-family="Times,serif" font-size="32.00">=&gt;1 0</text>
</g>
<!-- 2 -->
<g id="node7" class="node">
<title>2</title>
<ellipse fill="none" stroke="black" cx="229" cy="-369.16" rx="27" ry="30.31"/>
<text text-anchor="middle" x="229" y="-361.06" font-family="Times,serif" font-size="32.00">2</text>
</g>
<!-- 1&#45;&gt;2 -->
<g id="edge6" class="edge">
<title>1&#45;&gt;2</title>
<path fill="none" stroke="#f7931d" stroke-width="2" d="M380.79,-233.11C347.68,-248.42 290.5,-276.12 274,-292.16 262.34,-303.5 252.81,-318.59 245.64,-332.4"/>
<polygon fill="#f7931d" stroke="#f7931d" stroke-width="2" points="242.34,-331.19 241.05,-341.7 248.61,-334.28 242.34,-331.19"/>
<text text-anchor="middle" x="312" y="-336.56" font-family="Times,serif" font-size="32.00">ε_1</text>
<text text-anchor="middle" x="312" y="-301.56" font-family="Times,serif" font-size="32.00">=&gt;1 2</text>
</g>
<!-- v -->
<g id="node6" class="node">
<title>v</title>
<ellipse fill="none" stroke="black" cx="588" cy="-203.16" rx="27" ry="30.31"/>
<text text-anchor="middle" x="588" y="-195.06" font-family="Times,serif" font-size="32.00">v</text>
</g>
<!-- v&#45;&gt;0 -->
<g id="edge7" class="edge">
<title>v&#45;&gt;0</title>
<path fill="none" stroke="#000000" d="M566.11,-184.58C539.81,-162.55 492.2,-127.07 444,-113.16 411.55,-103.8 400.76,-104.93 368,-113.16 328.2,-123.16 287.36,-147.09 260.54,-165.05"/>
<polygon fill="#000000" stroke="#000000" points="258.29,-162.35 252.01,-170.89 262.24,-168.13 258.29,-162.35"/>
<text text-anchor="middle" x="406" y="-157.56" font-family="Times,serif" font-size="32.00">ε_2</text>
<text text-anchor="middle" x="406" y="-122.56" font-family="Times,serif" font-size="32.00">=&gt;v 0</text>
</g>
<!-- v&#45;&gt;1 -->
<g id="edge4" class="edge">
<title>v&#45;&gt;1</title>
<path fill="none" stroke="#f7931d" stroke-width="2" d="M560.95,-201.06C535.52,-199.54 495.84,-198.63 462,-204.16 455.2,-205.27 448.11,-207.08 441.35,-209.13"/>
<polygon fill="#f7931d" stroke="#f7931d" stroke-width="2" points="440.2,-205.82 431.78,-212.25 442.38,-212.48 440.2,-205.82"/>
<text text-anchor="middle" x="491" y="-248.56" font-family="Times,serif" font-size="32.00">will</text>
<text text-anchor="middle" x="491" y="-213.56" font-family="Times,serif" font-size="32.00">=v 1</text>
</g>
<!-- v&#45;&gt;2 -->
<g id="edge9" class="edge">
<title>v&#45;&gt;2</title>
<path fill="none" stroke="#000000" d="M569.32,-225.54C556.69,-240.55 538.68,-260.08 520,-274.16 452.07,-325.38 432.04,-339.64 350,-362.16 322.65,-369.67 290.53,-371.18 266.4,-370.94"/>
<polygon fill="#000000" stroke="#000000" points="266.32,-367.44 256.26,-370.74 266.18,-374.44 266.32,-367.44"/>
<text text-anchor="middle" x="406" y="-400.56" font-family="Times,serif" font-size="32.00">ε_3</text>
<text text-anchor="middle" x="406" y="-365.56" font-family="Times,serif" font-size="32.00">=&gt;v 2</text>
</g>
<!-- 2&#45;&gt;t -->
<g id="edge5" class="edge">
<title>2&#45;&gt;t</title>
<path fill="none" stroke="#000000" d="M202.41,-362.51C170.89,-353.85 116.1,-337.31 72,-316.16 67.64,-314.07 63.18,-311.63 58.85,-309.08"/>
<polygon fill="#000000" stroke="#000000" points="60.59,-306.04 50.24,-303.77 56.91,-312 60.59,-306.04"/>
<text text-anchor="middle" x="128" y="-400.56" font-family="Times,serif" font-size="32.00">d</text>
<text text-anchor="middle" x="128" y="-365.56" font-family="Times,serif" font-size="32.00">=&gt;2 +k t</text>
</g>
<!-- perf -->
<g id="node8" class="node">
<title>perf</title>
<ellipse fill="none" stroke="black" cx="818" cy="-203.16" rx="48.17" ry="30.31"/>
<text text-anchor="middle" x="818" y="-195.06" font-family="Times,serif" font-size="32.00">perf</text>
</g>
<!-- perf&#45;&gt;v -->
<g id="edge8" class="edge">
<title>perf&#45;&gt;v</title>
<path fill="none" stroke="#000000" d="M769.76,-203.16C726.86,-203.16 664.5,-203.16 625.38,-203.16"/>
<polygon fill="#000000" stroke="#000000" points="625.23,-199.66 615.23,-203.16 625.23,-206.66 625.23,-199.66"/>
<text text-anchor="middle" x="703" y="-247.56" font-family="Times,serif" font-size="32.00">have</text>
<text text-anchor="middle" x="703" y="-212.56" font-family="Times,serif" font-size="32.00">=perf v</text>
</g>
<!-- prog -->
<g id="node9" class="node">
<title>prog</title>
<ellipse fill="none" stroke="black" cx="1096" cy="-288.16" rx="52.15" ry="30.31"/>
<text text-anchor="middle" x="1096" y="-280.06" font-family="Times,serif" font-size="32.00">prog</text>
</g>
<!-- prog&#45;&gt;0 -->
<g id="edge10" class="edge">
<title>prog&#45;&gt;0</title>
<path fill="none" stroke="#000000" d="M1058.95,-309.91C1007.59,-338.78 909.51,-386.16 819,-386.16 819,-386.16 819,-386.16 490,-386.16 391.56,-386.16 341.09,-409.2 274,-337.16 246.3,-307.41 235.95,-261.12 232.13,-227.83"/>
<polygon fill="#000000" stroke="#000000" points="235.58,-227.13 231.11,-217.52 228.61,-227.82 235.58,-227.13"/>
<text text-anchor="middle" x="588" y="-430.56" font-family="Times,serif" font-size="32.00">be</text>
<text text-anchor="middle" x="588" y="-395.56" font-family="Times,serif" font-size="32.00">=prog 0</text>
</g>
<!-- prog&#45;&gt;v -->
<g id="edge12" class="edge">
<title>prog&#45;&gt;v</title>
<path fill="none" stroke="#000000" d="M1043.65,-291.36C943.02,-296.83 723.79,-304.69 656,-274.16 637.91,-266.02 622.36,-250.48 610.81,-236.01"/>
<polygon fill="#000000" stroke="#000000" points="613.31,-233.53 604.48,-227.68 607.74,-237.76 613.31,-233.53"/>
<text text-anchor="middle" x="818" y="-340.56" font-family="Times,serif" font-size="32.00">be_2</text>
<text text-anchor="middle" x="818" y="-305.56" font-family="Times,serif" font-size="32.00">=prog v</text>
</g>
<!-- prog&#45;&gt;2 -->
<g id="edge11" class="edge">
<title>prog&#45;&gt;2</title>
<path fill="none" stroke="#000000" d="M1081.65,-317.71C1069.21,-342.47 1048.59,-377.33 1022,-400.16 946.84,-464.68 918.06,-492.16 819,-492.16 819,-492.16 819,-492.16 405,-492.16 340.96,-492.16 283.78,-436.34 253.29,-399.91"/>
<polygon fill="#000000" stroke="#000000" points="255.87,-397.54 246.83,-392.01 250.45,-401.97 255.87,-397.54"/>
<text text-anchor="middle" x="588" y="-536.56" font-family="Times,serif" font-size="32.00">be_1</text>
<text text-anchor="middle" x="588" y="-501.56" font-family="Times,serif" font-size="32.00">=prog 2</text>
</g>
<!-- prog&#45;&gt;perf -->
<g id="edge13" class="edge">
<title>prog&#45;&gt;perf</title>
<path fill="none" stroke="#000000" d="M1061.26,-265.33C1053.61,-259.09 1045.99,-251.89 1040,-244.16 1028.06,-228.75 1038.34,-214.79 1022,-204.16 977.73,-175.38 915.74,-179.95 871.94,-188.68"/>
<polygon fill="#000000" stroke="#000000" points="871.11,-185.28 862.06,-190.79 872.56,-192.13 871.11,-185.28"/>
<text text-anchor="middle" x="954" y="-248.56" font-family="Times,serif" font-size="32.00">ben</text>
<text text-anchor="middle" x="954" y="-213.56" font-family="Times,serif" font-size="32.00">=prog perf</text>
</g>
<!-- 3&#45;&gt;v -->
<g id="edge15" class="edge">
<title>3&#45;&gt;v</title>
<path fill="none" stroke="#000000" d="M1307.32,-160.18C1239.81,-134.16 1046.44,-68.14 886,-96.16 786.43,-113.55 676.18,-161.42 622.32,-186.83"/>
<polygon fill="#000000" stroke="#000000" points="620.76,-183.69 613.24,-191.15 623.77,-190.01 620.76,-183.69"/>
<text text-anchor="middle" x="954" y="-140.56" font-family="Times,serif" font-size="32.00">ε_4</text>
<text text-anchor="middle" x="954" y="-105.56" font-family="Times,serif" font-size="32.00">=&gt;3 v</text>
</g>
<!-- 3&#45;&gt;perf -->
<g id="edge17" class="edge">
<title>3&#45;&gt;perf</title>
<path fill="none" stroke="#000000" d="M1305.65,-168.75C1236.39,-165.51 1043.69,-159.62 886,-184.16 881.18,-184.91 876.21,-185.9 871.26,-187.03"/>
<polygon fill="#000000" stroke="#000000" points="870.05,-183.72 861.19,-189.52 871.73,-190.52 870.05,-183.72"/>
<text text-anchor="middle" x="1096" y="-213.56" font-family="Times,serif" font-size="32.00">n</text>
<text text-anchor="middle" x="1096" y="-178.56" font-family="Times,serif" font-size="32.00">=&gt;3 perf</text>
</g>
<!-- 3&#45;&gt;prog -->
<g id="edge16" class="edge">
<title>3&#45;&gt;prog</title>
<path fill="none" stroke="#000000" d="M1308.17,-182.13C1270.06,-201.27 1194.61,-239.15 1144.99,-264.06"/>
<polygon fill="#000000" stroke="#000000" points="1143.41,-260.94 1136.04,-268.56 1146.55,-267.2 1143.41,-260.94"/>
<text text-anchor="middle" x="1229" y="-293.56" font-family="Times,serif" font-size="32.00">ing</text>
<text text-anchor="middle" x="1229" y="-258.56" font-family="Times,serif" font-size="32.00">=&gt;3 prog</text>
</g>
</g>
</svg>
