<?xml version="1.0" encoding="UTF-8" standalone="no"?>
<!DOCTYPE svg PUBLIC "-//W3C//DTD SVG 1.1//EN"
 "http://www.w3.org/Graphics/SVG/1.1/DTD/svg11.dtd">
<!-- Generated by graphviz version 2.47.1 (20210417.1919)
 -->
<!-- Title: G Pages: 1 -->
<svg width="1731pt" height="376pt"
 viewBox="0.00 0.00 1730.82 376.41" xmlns="http://www.w3.org/2000/svg" xmlns:xlink="http://www.w3.org/1999/xlink">
<g id="graph0" class="graph" transform="scale(1 1) rotate(0) translate(4 372.41)">
<title>G</title>
<polygon fill="white" stroke="transparent" points="-4,4 -4,-372.41 1726.82,-372.41 1726.82,4 -4,4"/>
<text text-anchor="middle" x="861.41" y="-13.4" font-family="Times,serif" font-size="32.00">replacement: =&gt;1 0 with =&gt;1 v, =&gt;v 0</text>
<!-- t -->
<g id="node1" class="node">
<title>t</title>
<ellipse fill="lightgray" stroke="black" cx="27" cy="-204.41" rx="27" ry="30.31"/>
<text text-anchor="middle" x="27" y="-196.31" font-family="Times,serif" font-size="32.00">t</text>
</g>
<!-- z0 -->
<g id="node2" class="node">
<title>z0</title>
<ellipse fill="none" stroke="black" stroke-dasharray="5,2" cx="1695.82" cy="-204.41" rx="27" ry="18"/>
</g>
<!-- d -->
<g id="node3" class="node">
<title>d</title>
<ellipse fill="none" stroke="black" cx="1535.82" cy="-204.41" rx="27" ry="30.31"/>
<text text-anchor="middle" x="1535.82" y="-196.31" font-family="Times,serif" font-size="32.00">d</text>
</g>
<!-- z0&#45;&gt;d -->
<g id="edge1" class="edge">
<title>z0&#45;&gt;d</title>
<path fill="none" stroke="#000000" d="M1668.73,-204.41C1642.65,-204.41 1602.35,-204.41 1573.15,-204.41"/>
<polygon fill="#000000" stroke="#000000" points="1572.95,-200.91 1562.95,-204.41 1572.95,-207.91 1572.95,-200.91"/>
<text text-anchor="middle" x="1615.82" y="-248.81" font-family="Times,serif" font-size="32.00">Mary</text>
<text text-anchor="middle" x="1615.82" y="-213.81" font-family="Times,serif" font-size="32.00">d &#45;k</text>
</g>
<!-- 2 -->
<g id="node9" class="node">
<title>2</title>
<ellipse fill="none" stroke="black" cx="1305.82" cy="-204.41" rx="27" ry="30.31"/>
<text text-anchor="middle" x="1305.82" y="-196.31" font-family="Times,serif" font-size="32.00">2</text>
</g>
<!-- d&#45;&gt;2 -->
<g id="edge9" class="edge">
<title>d&#45;&gt;2</title>
<path fill="none" stroke="#000000" d="M1517.49,-226.92C1510.19,-234.62 1501.01,-242.32 1490.82,-246.41 1433.06,-269.55 1408.58,-269.55 1350.82,-246.41 1343.81,-243.6 1337.28,-239.08 1331.52,-234.03"/>
<polygon fill="#000000" stroke="#000000" points="1333.78,-231.35 1324.15,-226.92 1328.92,-236.39 1333.78,-231.35"/>
<text text-anchor="middle" x="1420.82" y="-342.81" font-family="Times,serif" font-size="32.00">laugh |</text>
<text text-anchor="middle" x="1420.82" y="-307.81" font-family="Times,serif" font-size="32.00"> dance</text>
<text text-anchor="middle" x="1420.82" y="-272.81" font-family="Times,serif" font-size="32.00">=d 2</text>
</g>
<!-- d&#45;&gt;2 -->
<g id="edge13" class="edge">
<title>d&#45;&gt;2</title>
<path fill="none" stroke="#000000" d="M1524.24,-176.56C1517.15,-162.09 1506.25,-145.73 1490.82,-137.41 1436.06,-107.86 1405.58,-107.86 1350.82,-137.41 1338.52,-144.04 1329.1,-155.78 1322.2,-167.59"/>
<polygon fill="#000000" stroke="#000000" points="1319.03,-166.09 1317.4,-176.56 1325.2,-169.4 1319.03,-166.09"/>
<text text-anchor="middle" x="1420.82" y="-216.81" font-family="Times,serif" font-size="32.00">hug |</text>
<text text-anchor="middle" x="1420.82" y="-181.81" font-family="Times,serif" font-size="32.00"> praise</text>
<text text-anchor="middle" x="1420.82" y="-146.81" font-family="Times,serif" font-size="32.00">=d *k =d 2</text>
</g>
<!-- 0 -->
<g id="node4" class="node">
<title>0</title>
<ellipse fill="none" stroke="black" cx="229" cy="-204.41" rx="27" ry="30.31"/>
<text text-anchor="middle" x="229" y="-196.31" font-family="Times,serif" font-size="32.00">0</text>
</g>
<!-- 0&#45;&gt;t -->
<g id="edge2" class="edge">
<title>0&#45;&gt;t</title>
<path fill="none" stroke="#000000" d="M201.85,-204.41C166.67,-204.41 103.92,-204.41 64.21,-204.41"/>
<polygon fill="#000000" stroke="#000000" points="64.15,-200.91 54.15,-204.41 64.15,-207.91 64.15,-200.91"/>
<text text-anchor="middle" x="128" y="-283.81" font-family="Times,serif" font-size="32.00">s |</text>
<text text-anchor="middle" x="128" y="-248.81" font-family="Times,serif" font-size="32.00"> d</text>
<text text-anchor="middle" x="128" y="-213.81" font-family="Times,serif" font-size="32.00">=&gt;0 +k t</text>
</g>
<!-- v -->
<g id="node5" class="node">
<title>v</title>
<ellipse fill="none" stroke="black" cx="395" cy="-204.41" rx="27" ry="30.31"/>
<text text-anchor="middle" x="395" y="-196.31" font-family="Times,serif" font-size="32.00">v</text>
</g>
<!-- v&#45;&gt;0 -->
<g id="edge3" class="edge">
<title>v&#45;&gt;0</title>
<path fill="none" stroke="#000000" d="M371.68,-220.02C365.01,-223.86 357.47,-227.43 350,-229.41 317.34,-238.04 306.66,-238.04 274,-229.41 269.8,-228.29 265.57,-226.68 261.49,-224.79"/>
<polygon fill="#000000" stroke="#000000" points="262.81,-221.53 252.32,-220.02 259.58,-227.74 262.81,-221.53"/>
<text text-anchor="middle" x="312" y="-279.81" font-family="Times,serif" font-size="32.00">will</text>
<text text-anchor="middle" x="312" y="-244.81" font-family="Times,serif" font-size="32.00">=v 0</text>
</g>
<!-- v&#45;&gt;0 -->
<g id="edge4" class="edge">
<title>v&#45;&gt;0</title>
<path fill="none" stroke="#000000" d="M378.8,-180.03C371.4,-170.47 361.59,-160.58 350,-155.41 319.15,-141.65 304.85,-141.65 274,-155.41 265.67,-159.12 258.26,-165.28 252,-172"/>
<polygon fill="#000000" stroke="#000000" points="248.99,-170.14 245.2,-180.03 254.33,-174.66 248.99,-170.14"/>
<text text-anchor="middle" x="312" y="-199.81" font-family="Times,serif" font-size="32.00">ε_0</text>
<text text-anchor="middle" x="312" y="-164.81" font-family="Times,serif" font-size="32.00">=&gt;v 0</text>
</g>
<!-- perf -->
<g id="node6" class="node">
<title>perf</title>
<ellipse fill="none" stroke="black" cx="600.08" cy="-204.41" rx="48.17" ry="30.31"/>
<text text-anchor="middle" x="600.08" y="-196.31" font-family="Times,serif" font-size="32.00">perf</text>
</g>
<!-- perf&#45;&gt;v -->
<g id="edge5" class="edge">
<title>perf&#45;&gt;v</title>
<path fill="none" stroke="#000000" d="M551.98,-204.41C515.5,-204.41 465.72,-204.41 432.3,-204.41"/>
<polygon fill="#000000" stroke="#000000" points="432.06,-200.91 422.06,-204.41 432.06,-207.91 432.06,-200.91"/>
<text text-anchor="middle" x="487" y="-248.81" font-family="Times,serif" font-size="32.00">have</text>
<text text-anchor="middle" x="487" y="-213.81" font-family="Times,serif" font-size="32.00">=perf v</text>
</g>
<!-- prog -->
<g id="node7" class="node">
<title>prog</title>
<ellipse fill="none" stroke="black" cx="1072.49" cy="-115.41" rx="52.15" ry="30.31"/>
<text text-anchor="middle" x="1072.49" y="-107.31" font-family="Times,serif" font-size="32.00">prog</text>
</g>
<!-- 1 -->
<g id="node8" class="node">
<title>1</title>
<ellipse fill="none" stroke="black" cx="834.17" cy="-111.41" rx="27" ry="30.31"/>
<text text-anchor="middle" x="834.17" y="-103.31" font-family="Times,serif" font-size="32.00">1</text>
</g>
<!-- prog&#45;&gt;1 -->
<g id="edge6" class="edge">
<title>prog&#45;&gt;1</title>
<path fill="none" stroke="#000000" d="M1020.01,-112.96C1014,-112.74 1007.95,-112.55 1002.17,-112.41 957.18,-111.3 905.36,-111.17 871.53,-111.23"/>
<polygon fill="#000000" stroke="#000000" points="871.2,-107.73 861.2,-111.26 871.21,-114.73 871.2,-107.73"/>
<text text-anchor="middle" x="946.17" y="-156.81" font-family="Times,serif" font-size="32.00">be</text>
<text text-anchor="middle" x="946.17" y="-121.81" font-family="Times,serif" font-size="32.00">=prog 1</text>
</g>
<!-- 1&#45;&gt;v -->
<g id="edge7" class="edge">
<title>1&#45;&gt;v</title>
<path fill="none" stroke="#000000" d="M807.6,-104.03C757.29,-90.8 642.48,-66.93 552,-95.41 501.08,-111.43 452.3,-150.64 423.24,-177.39"/>
<polygon fill="#000000" stroke="#000000" points="420.83,-174.85 415.93,-184.24 425.62,-179.96 420.83,-174.85"/>
<text text-anchor="middle" x="600.08" y="-139.81" font-family="Times,serif" font-size="32.00">ε_1</text>
<text text-anchor="middle" x="600.08" y="-104.81" font-family="Times,serif" font-size="32.00">=&gt;1 v</text>
</g>
<!-- 1&#45;&gt;perf -->
<g id="edge8" class="edge">
<title>1&#45;&gt;perf</title>
<path fill="none" stroke="#000000" d="M807.68,-105.21C772.52,-98.21 708.68,-91.27 666.17,-120.41 650.09,-131.43 659.51,-144.55 648.17,-160.41 644.99,-164.84 641.32,-169.18 637.45,-173.31"/>
<polygon fill="#000000" stroke="#000000" points="634.91,-170.9 630.35,-180.46 639.88,-175.83 634.91,-170.9"/>
<text text-anchor="middle" x="722.17" y="-164.81" font-family="Times,serif" font-size="32.00">n</text>
<text text-anchor="middle" x="722.17" y="-129.81" font-family="Times,serif" font-size="32.00">=&gt;1 perf</text>
</g>
<!-- 2&#45;&gt;v -->
<g id="edge10" class="edge">
<title>2&#45;&gt;v</title>
<path fill="none" stroke="#000000" d="M1281.87,-219.02C1241.44,-243.32 1154.14,-289.41 1073.49,-289.41 1073.49,-289.41 1073.49,-289.41 599.08,-289.41 528.11,-289.41 500.44,-312.62 440,-275.41 427.18,-267.51 417.52,-254.35 410.57,-241.48"/>
<polygon fill="#000000" stroke="#000000" points="413.57,-239.64 405.98,-232.25 407.3,-242.76 413.57,-239.64"/>
<text text-anchor="middle" x="834.17" y="-333.81" font-family="Times,serif" font-size="32.00">ε_2</text>
<text text-anchor="middle" x="834.17" y="-298.81" font-family="Times,serif" font-size="32.00">=&gt;2 v</text>
</g>
<!-- 2&#45;&gt;perf -->
<g id="edge12" class="edge">
<title>2&#45;&gt;perf</title>
<path fill="none" stroke="#000000" d="M1278.52,-204.41C1176.15,-204.41 802.92,-204.41 658.6,-204.41"/>
<polygon fill="#000000" stroke="#000000" points="658.2,-200.91 648.2,-204.41 658.2,-207.91 658.2,-200.91"/>
<text text-anchor="middle" x="946.17" y="-248.81" font-family="Times,serif" font-size="32.00">n_1</text>
<text text-anchor="middle" x="946.17" y="-213.81" font-family="Times,serif" font-size="32.00">=&gt;2 perf</text>
</g>
<!-- 2&#45;&gt;prog -->
<g id="edge11" class="edge">
<title>2&#45;&gt;prog</title>
<path fill="none" stroke="#000000" d="M1297.68,-174.98C1291.38,-155.9 1280.1,-132.43 1260.82,-120.41 1222.47,-96.5 1170.58,-97.06 1131.14,-102.58"/>
<polygon fill="#000000" stroke="#000000" points="1130.49,-99.14 1121.14,-104.12 1131.56,-106.06 1130.49,-99.14"/>
<text text-anchor="middle" x="1201.82" y="-164.81" font-family="Times,serif" font-size="32.00">ing</text>
<text text-anchor="middle" x="1201.82" y="-129.81" font-family="Times,serif" font-size="32.00">=&gt;2 prog</text>
</g>
</g>
</svg>
