<?xml version="1.0" encoding="UTF-8" standalone="no"?>
<!DOCTYPE svg PUBLIC "-//W3C//DTD SVG 1.1//EN"
 "http://www.w3.org/Graphics/SVG/1.1/DTD/svg11.dtd">
<!-- Generated by graphviz version 2.47.1 (20210417.1919)
 -->
<!-- Title: G Pages: 1 -->
<svg width="1863pt" height="367pt"
 viewBox="0.00 0.00 1862.82 367.41" xmlns="http://www.w3.org/2000/svg" xmlns:xlink="http://www.w3.org/1999/xlink">
<g id="graph0" class="graph" transform="scale(1 1) rotate(0) translate(4 363.41)">
<title>G</title>
<polygon fill="white" stroke="transparent" points="-4,4 -4,-363.41 1858.82,-363.41 1858.82,4 -4,4"/>
<text text-anchor="middle" x="927.41" y="-13.4" font-family="Times,serif" font-size="32.00">decomposition: n =&gt;1 perf, n =&gt;2 perf</text>
<!-- t -->
<g id="node1" class="node">
<title>t</title>
<ellipse fill="lightgray" stroke="black" cx="27" cy="-204.41" rx="27" ry="30.31"/>
<text text-anchor="middle" x="27" y="-196.31" font-family="Times,serif" font-size="32.00">t</text>
</g>
<!-- z0 -->
<g id="node2" class="node">
<title>z0</title>
<ellipse fill="none" stroke="black" stroke-dasharray="5,2" cx="1827.82" cy="-191.41" rx="27" ry="18"/>
</g>
<!-- d -->
<g id="node3" class="node">
<title>d</title>
<ellipse fill="none" stroke="black" cx="1667.82" cy="-191.41" rx="27" ry="30.31"/>
<text text-anchor="middle" x="1667.82" y="-183.31" font-family="Times,serif" font-size="32.00">d</text>
</g>
<!-- z0&#45;&gt;d -->
<g id="edge1" class="edge">
<title>z0&#45;&gt;d</title>
<path fill="none" stroke="#000000" d="M1800.73,-191.41C1774.65,-191.41 1734.35,-191.41 1705.15,-191.41"/>
<polygon fill="#000000" stroke="#000000" points="1704.95,-187.91 1694.95,-191.41 1704.95,-194.91 1704.95,-187.91"/>
<text text-anchor="middle" x="1747.82" y="-235.81" font-family="Times,serif" font-size="32.00">Mary</text>
<text text-anchor="middle" x="1747.82" y="-200.81" font-family="Times,serif" font-size="32.00">d &#45;k</text>
</g>
<!-- 3 -->
<g id="node10" class="node">
<title>3</title>
<ellipse fill="none" stroke="black" cx="1437.82" cy="-191.41" rx="27" ry="30.31"/>
<text text-anchor="middle" x="1437.82" y="-183.31" font-family="Times,serif" font-size="32.00">3</text>
</g>
<!-- d&#45;&gt;3 -->
<g id="edge10" class="edge">
<title>d&#45;&gt;3</title>
<path fill="none" stroke="#000000" d="M1649.49,-213.92C1642.19,-221.62 1633.01,-229.32 1622.82,-233.41 1565.06,-256.55 1540.58,-256.55 1482.82,-233.41 1475.81,-230.6 1469.28,-226.08 1463.52,-221.03"/>
<polygon fill="#000000" stroke="#000000" points="1465.78,-218.35 1456.15,-213.92 1460.92,-223.39 1465.78,-218.35"/>
<text text-anchor="middle" x="1552.82" y="-329.81" font-family="Times,serif" font-size="32.00">laugh |</text>
<text text-anchor="middle" x="1552.82" y="-294.81" font-family="Times,serif" font-size="32.00"> dance</text>
<text text-anchor="middle" x="1552.82" y="-259.81" font-family="Times,serif" font-size="32.00">=d 3</text>
</g>
<!-- d&#45;&gt;3 -->
<g id="edge14" class="edge">
<title>d&#45;&gt;3</title>
<path fill="none" stroke="#000000" d="M1656.24,-163.56C1649.15,-149.09 1638.25,-132.73 1622.82,-124.41 1568.06,-94.86 1537.58,-94.86 1482.82,-124.41 1470.52,-131.04 1461.1,-142.78 1454.2,-154.59"/>
<polygon fill="#000000" stroke="#000000" points="1451.03,-153.09 1449.4,-163.56 1457.2,-156.4 1451.03,-153.09"/>
<text text-anchor="middle" x="1552.82" y="-203.81" font-family="Times,serif" font-size="32.00">hug |</text>
<text text-anchor="middle" x="1552.82" y="-168.81" font-family="Times,serif" font-size="32.00"> praise</text>
<text text-anchor="middle" x="1552.82" y="-133.81" font-family="Times,serif" font-size="32.00">=d *k =d 3</text>
</g>
<!-- 0 -->
<g id="node4" class="node">
<title>0</title>
<ellipse fill="none" stroke="black" cx="229" cy="-204.41" rx="27" ry="30.31"/>
<text text-anchor="middle" x="229" y="-196.31" font-family="Times,serif" font-size="32.00">0</text>
</g>
<!-- 0&#45;&gt;t -->
<g id="edge2" class="edge">
<title>0&#45;&gt;t</title>
<path fill="none" stroke="#000000" d="M201.85,-204.41C166.67,-204.41 103.92,-204.41 64.21,-204.41"/>
<polygon fill="#000000" stroke="#000000" points="64.15,-200.91 54.15,-204.41 64.15,-207.91 64.15,-200.91"/>
<text text-anchor="middle" x="128" y="-283.81" font-family="Times,serif" font-size="32.00">s |</text>
<text text-anchor="middle" x="128" y="-248.81" font-family="Times,serif" font-size="32.00"> d</text>
<text text-anchor="middle" x="128" y="-213.81" font-family="Times,serif" font-size="32.00">=&gt;0 +k t</text>
</g>
<!-- v -->
<g id="node5" class="node">
<title>v</title>
<ellipse fill="none" stroke="black" cx="395" cy="-204.41" rx="27" ry="30.31"/>
<text text-anchor="middle" x="395" y="-196.31" font-family="Times,serif" font-size="32.00">v</text>
</g>
<!-- v&#45;&gt;0 -->
<g id="edge3" class="edge">
<title>v&#45;&gt;0</title>
<path fill="none" stroke="#000000" d="M371.68,-220.02C365.01,-223.86 357.47,-227.43 350,-229.41 317.34,-238.04 306.66,-238.04 274,-229.41 269.8,-228.29 265.57,-226.68 261.49,-224.79"/>
<polygon fill="#000000" stroke="#000000" points="262.81,-221.53 252.32,-220.02 259.58,-227.74 262.81,-221.53"/>
<text text-anchor="middle" x="312" y="-279.81" font-family="Times,serif" font-size="32.00">will</text>
<text text-anchor="middle" x="312" y="-244.81" font-family="Times,serif" font-size="32.00">=v 0</text>
</g>
<!-- v&#45;&gt;0 -->
<g id="edge4" class="edge">
<title>v&#45;&gt;0</title>
<path fill="none" stroke="#000000" d="M378.8,-180.03C371.4,-170.47 361.59,-160.58 350,-155.41 319.15,-141.65 304.85,-141.65 274,-155.41 265.67,-159.12 258.26,-165.28 252,-172"/>
<polygon fill="#000000" stroke="#000000" points="248.99,-170.14 245.2,-180.03 254.33,-174.66 248.99,-170.14"/>
<text text-anchor="middle" x="312" y="-199.81" font-family="Times,serif" font-size="32.00">ε_0</text>
<text text-anchor="middle" x="312" y="-164.81" font-family="Times,serif" font-size="32.00">=&gt;v 0</text>
</g>
<!-- perf -->
<g id="node6" class="node">
<title>perf</title>
<ellipse fill="none" stroke="black" cx="600.08" cy="-113.41" rx="48.17" ry="30.31"/>
<text text-anchor="middle" x="600.08" y="-105.31" font-family="Times,serif" font-size="32.00">perf</text>
</g>
<!-- perf&#45;&gt;v -->
<g id="edge5" class="edge">
<title>perf&#45;&gt;v</title>
<path fill="none" stroke="#000000" d="M554.02,-104.04C520.05,-99.51 473.72,-98.98 440,-120.41 423.97,-130.59 413.45,-148.66 406.74,-165.43"/>
<polygon fill="#000000" stroke="#000000" points="403.35,-164.49 403.21,-175.08 409.93,-166.89 403.35,-164.49"/>
<text text-anchor="middle" x="487" y="-164.81" font-family="Times,serif" font-size="32.00">have</text>
<text text-anchor="middle" x="487" y="-129.81" font-family="Times,serif" font-size="32.00">=perf v</text>
</g>
<!-- prog -->
<g id="node7" class="node">
<title>prog</title>
<ellipse fill="none" stroke="black" cx="1204.49" cy="-191.41" rx="52.15" ry="30.31"/>
<text text-anchor="middle" x="1204.49" y="-183.31" font-family="Times,serif" font-size="32.00">prog</text>
</g>
<!-- 1 -->
<g id="node8" class="node">
<title>1</title>
<ellipse fill="none" stroke="black" cx="989.17" cy="-191.41" rx="27" ry="30.31"/>
<text text-anchor="middle" x="989.17" y="-183.31" font-family="Times,serif" font-size="32.00">1</text>
</g>
<!-- prog&#45;&gt;1 -->
<g id="edge6" class="edge">
<title>prog&#45;&gt;1</title>
<path fill="none" stroke="#000000" d="M1152.12,-191.41C1113.35,-191.41 1061.11,-191.41 1026.57,-191.41"/>
<polygon fill="#000000" stroke="#000000" points="1026.46,-187.91 1016.46,-191.41 1026.46,-194.91 1026.46,-187.91"/>
<text text-anchor="middle" x="1084.17" y="-235.81" font-family="Times,serif" font-size="32.00">be</text>
<text text-anchor="middle" x="1084.17" y="-200.81" font-family="Times,serif" font-size="32.00">=prog 1</text>
</g>
<!-- 1&#45;&gt;v -->
<g id="edge7" class="edge">
<title>1&#45;&gt;v</title>
<path fill="none" stroke="#000000" d="M961.96,-191.98C867.19,-194.06 542.13,-201.2 432.46,-203.61"/>
<polygon fill="#000000" stroke="#000000" points="432.16,-200.11 422.24,-203.83 432.32,-207.11 432.16,-200.11"/>
<text text-anchor="middle" x="722.17" y="-241.81" font-family="Times,serif" font-size="32.00">ε_1</text>
<text text-anchor="middle" x="722.17" y="-206.81" font-family="Times,serif" font-size="32.00">=&gt;1 v</text>
</g>
<!-- 2 -->
<g id="node9" class="node">
<title>2</title>
<ellipse fill="none" stroke="black" cx="823.17" cy="-111.41" rx="27" ry="30.31"/>
<text text-anchor="middle" x="823.17" y="-103.31" font-family="Times,serif" font-size="32.00">2</text>
</g>
<!-- 1&#45;&gt;2 -->
<g id="edge9" class="edge">
<title>1&#45;&gt;2</title>
<path fill="none" stroke="#f7931d" stroke-width="2" d="M978.23,-163.49C971.21,-148.06 960.16,-130.11 944.17,-120.41 919.16,-105.23 885.62,-103.96 860.35,-105.93"/>
<polygon fill="#f7931d" stroke="#f7931d" stroke-width="2" points="859.69,-102.48 850.08,-106.94 860.37,-109.44 859.69,-102.48"/>
<text text-anchor="middle" x="906.17" y="-164.81" font-family="Times,serif" font-size="32.00">ε_2</text>
<text text-anchor="middle" x="906.17" y="-129.81" font-family="Times,serif" font-size="32.00">=&gt;1 2</text>
</g>
<!-- 2&#45;&gt;perf -->
<g id="edge8" class="edge">
<title>2&#45;&gt;perf</title>
<path fill="none" stroke="#f7931d" stroke-width="2" d="M795.94,-111.5C764.95,-111.63 711.8,-111.91 666.17,-112.41 663.65,-112.43 661.07,-112.46 658.47,-112.5"/>
<polygon fill="#f7931d" stroke="#f7931d" stroke-width="2" points="658.31,-109 648.36,-112.63 658.41,-116 658.31,-109"/>
<text text-anchor="middle" x="722.17" y="-156.81" font-family="Times,serif" font-size="32.00">n</text>
<text text-anchor="middle" x="722.17" y="-121.81" font-family="Times,serif" font-size="32.00">=&gt;2 perf</text>
</g>
<!-- 3&#45;&gt;v -->
<g id="edge11" class="edge">
<title>3&#45;&gt;v</title>
<path fill="none" stroke="#000000" d="M1427.3,-219.42C1420.32,-235.54 1409.19,-254.66 1392.82,-265.41 1322.65,-311.47 1289.43,-289.41 1205.49,-289.41 1205.49,-289.41 1205.49,-289.41 599.08,-289.41 533.8,-289.41 465.22,-251.57 426.81,-226.38"/>
<polygon fill="#000000" stroke="#000000" points="428.43,-223.25 418.17,-220.59 424.53,-229.07 428.43,-223.25"/>
<text text-anchor="middle" x="906.17" y="-333.81" font-family="Times,serif" font-size="32.00">ε_3</text>
<text text-anchor="middle" x="906.17" y="-298.81" font-family="Times,serif" font-size="32.00">=&gt;3 v</text>
</g>
<!-- 3&#45;&gt;prog -->
<g id="edge12" class="edge">
<title>3&#45;&gt;prog</title>
<path fill="none" stroke="#000000" d="M1410.73,-191.41C1376.17,-191.41 1314.1,-191.41 1267.24,-191.41"/>
<polygon fill="#000000" stroke="#000000" points="1267.19,-187.91 1257.19,-191.41 1267.19,-194.91 1267.19,-187.91"/>
<text text-anchor="middle" x="1333.82" y="-235.81" font-family="Times,serif" font-size="32.00">ing</text>
<text text-anchor="middle" x="1333.82" y="-200.81" font-family="Times,serif" font-size="32.00">=&gt;3 prog</text>
</g>
<!-- 3&#45;&gt;2 -->
<g id="edge13" class="edge">
<title>3&#45;&gt;2</title>
<path fill="none" stroke="#f7931d" stroke-width="2" d="M1411.58,-183.82C1360,-168.62 1238.53,-134.45 1134.17,-117.41 1050.53,-103.74 1028.84,-104.96 944.17,-101.41 910.42,-99.99 901.73,-97.64 868.17,-101.41 865.32,-101.72 862.39,-102.16 859.46,-102.66"/>
<polygon fill="#f7931d" stroke="#f7931d" stroke-width="2" points="858.73,-99.24 849.59,-104.61 860.08,-106.11 858.73,-99.24"/>
<text text-anchor="middle" x="1084.17" y="-161.81" font-family="Times,serif" font-size="32.00">ε_4</text>
<text text-anchor="middle" x="1084.17" y="-126.81" font-family="Times,serif" font-size="32.00">=&gt;3 2</text>
</g>
</g>
</svg>
