<?xml version="1.0" encoding="UTF-8" standalone="no"?>
<!DOCTYPE svg PUBLIC "-//W3C//DTD SVG 1.1//EN"
 "http://www.w3.org/Graphics/SVG/1.1/DTD/svg11.dtd">
<!-- Generated by graphviz version 2.47.1 (20210417.1919)
 -->
<!-- Title: G Pages: 1 -->
<svg width="1719pt" height="381pt"
 viewBox="0.00 0.00 1718.82 381.41" xmlns="http://www.w3.org/2000/svg" xmlns:xlink="http://www.w3.org/1999/xlink">
<g id="graph0" class="graph" transform="scale(1 1) rotate(0) translate(4 377.41)">
<title>G</title>
<polygon fill="white" stroke="transparent" points="-4,4 -4,-377.41 1714.82,-377.41 1714.82,4 -4,4"/>
<text text-anchor="middle" x="855.41" y="-13.4" font-family="Times,serif" font-size="32.00">single contraction: 1 → 2</text>
<!-- t -->
<g id="node1" class="node">
<title>t</title>
<ellipse fill="lightgray" stroke="black" cx="27" cy="-196.41" rx="27" ry="30.31"/>
<text text-anchor="middle" x="27" y="-188.31" font-family="Times,serif" font-size="32.00">t</text>
</g>
<!-- z0 -->
<g id="node2" class="node">
<title>z0</title>
<ellipse fill="none" stroke="black" stroke-dasharray="5,2" cx="1683.82" cy="-209.41" rx="27" ry="18"/>
</g>
<!-- d -->
<g id="node3" class="node">
<title>d</title>
<ellipse fill="none" stroke="black" cx="1523.82" cy="-209.41" rx="27" ry="30.31"/>
<text text-anchor="middle" x="1523.82" y="-201.31" font-family="Times,serif" font-size="32.00">d</text>
</g>
<!-- z0&#45;&gt;d -->
<g id="edge1" class="edge">
<title>z0&#45;&gt;d</title>
<path fill="none" stroke="#000000" d="M1656.73,-209.41C1630.65,-209.41 1590.35,-209.41 1561.15,-209.41"/>
<polygon fill="#000000" stroke="#000000" points="1560.95,-205.91 1550.95,-209.41 1560.95,-212.91 1560.95,-205.91"/>
<text text-anchor="middle" x="1603.82" y="-253.81" font-family="Times,serif" font-size="32.00">Mary</text>
<text text-anchor="middle" x="1603.82" y="-218.81" font-family="Times,serif" font-size="32.00">d &#45;k</text>
</g>
<!-- 2 -->
<g id="node9" class="node">
<title>2</title>
<ellipse fill="none" stroke="black" cx="1293.82" cy="-209.41" rx="27" ry="30.31"/>
<text text-anchor="middle" x="1293.82" y="-201.31" font-family="Times,serif" font-size="32.00">2</text>
</g>
<!-- d&#45;&gt;2 -->
<g id="edge9" class="edge">
<title>d&#45;&gt;2</title>
<path fill="none" stroke="#000000" d="M1505.49,-231.92C1498.19,-239.62 1489.01,-247.32 1478.82,-251.41 1421.06,-274.55 1396.58,-274.55 1338.82,-251.41 1331.81,-248.6 1325.28,-244.08 1319.52,-239.03"/>
<polygon fill="#000000" stroke="#000000" points="1321.78,-236.35 1312.15,-231.92 1316.92,-241.39 1321.78,-236.35"/>
<text text-anchor="middle" x="1408.82" y="-347.81" font-family="Times,serif" font-size="32.00">laugh |</text>
<text text-anchor="middle" x="1408.82" y="-312.81" font-family="Times,serif" font-size="32.00"> dance</text>
<text text-anchor="middle" x="1408.82" y="-277.81" font-family="Times,serif" font-size="32.00">=d 2</text>
</g>
<!-- d&#45;&gt;2 -->
<g id="edge13" class="edge">
<title>d&#45;&gt;2</title>
<path fill="none" stroke="#000000" d="M1512.24,-181.56C1505.15,-167.09 1494.25,-150.73 1478.82,-142.41 1424.06,-112.86 1393.58,-112.86 1338.82,-142.41 1326.52,-149.04 1317.1,-160.78 1310.2,-172.59"/>
<polygon fill="#000000" stroke="#000000" points="1307.03,-171.09 1305.4,-181.56 1313.2,-174.4 1307.03,-171.09"/>
<text text-anchor="middle" x="1408.82" y="-221.81" font-family="Times,serif" font-size="32.00">hug |</text>
<text text-anchor="middle" x="1408.82" y="-186.81" font-family="Times,serif" font-size="32.00"> praise</text>
<text text-anchor="middle" x="1408.82" y="-151.81" font-family="Times,serif" font-size="32.00">=d *k =d 2</text>
</g>
<!-- 0 -->
<g id="node4" class="node">
<title>0</title>
<ellipse fill="none" stroke="black" cx="229" cy="-196.41" rx="27" ry="30.31"/>
<text text-anchor="middle" x="229" y="-188.31" font-family="Times,serif" font-size="32.00">0</text>
</g>
<!-- 0&#45;&gt;t -->
<g id="edge2" class="edge">
<title>0&#45;&gt;t</title>
<path fill="none" stroke="#000000" d="M201.85,-196.41C166.67,-196.41 103.92,-196.41 64.21,-196.41"/>
<polygon fill="#000000" stroke="#000000" points="64.15,-192.91 54.15,-196.41 64.15,-199.91 64.15,-192.91"/>
<text text-anchor="middle" x="128" y="-275.81" font-family="Times,serif" font-size="32.00">s |</text>
<text text-anchor="middle" x="128" y="-240.81" font-family="Times,serif" font-size="32.00"> d</text>
<text text-anchor="middle" x="128" y="-205.81" font-family="Times,serif" font-size="32.00">=&gt;0 +k t</text>
</g>
<!-- v -->
<g id="node5" class="node">
<title>v</title>
<ellipse fill="none" stroke="black" cx="395" cy="-196.41" rx="27" ry="30.31"/>
<text text-anchor="middle" x="395" y="-188.31" font-family="Times,serif" font-size="32.00">v</text>
</g>
<!-- v&#45;&gt;0 -->
<g id="edge3" class="edge">
<title>v&#45;&gt;0</title>
<path fill="none" stroke="#000000" d="M371.68,-212.02C365.01,-215.86 357.47,-219.43 350,-221.41 317.34,-230.04 306.66,-230.04 274,-221.41 269.8,-220.29 265.57,-218.68 261.49,-216.79"/>
<polygon fill="#000000" stroke="#000000" points="262.81,-213.53 252.32,-212.02 259.58,-219.74 262.81,-213.53"/>
<text text-anchor="middle" x="312" y="-271.81" font-family="Times,serif" font-size="32.00">will</text>
<text text-anchor="middle" x="312" y="-236.81" font-family="Times,serif" font-size="32.00">=v 0</text>
</g>
<!-- v&#45;&gt;0 -->
<g id="edge4" class="edge">
<title>v&#45;&gt;0</title>
<path fill="none" stroke="#000000" d="M378.8,-172.03C371.4,-162.47 361.59,-152.58 350,-147.41 319.15,-133.65 304.85,-133.65 274,-147.41 265.67,-151.12 258.26,-157.28 252,-164"/>
<polygon fill="#000000" stroke="#000000" points="248.99,-162.14 245.2,-172.03 254.33,-166.66 248.99,-162.14"/>
<text text-anchor="middle" x="312" y="-191.81" font-family="Times,serif" font-size="32.00">ε_0</text>
<text text-anchor="middle" x="312" y="-156.81" font-family="Times,serif" font-size="32.00">=&gt;v 0</text>
</g>
<!-- perf -->
<g id="node6" class="node">
<title>perf</title>
<ellipse fill="none" stroke="black" cx="600.08" cy="-111.41" rx="48.17" ry="30.31"/>
<text text-anchor="middle" x="600.08" y="-103.31" font-family="Times,serif" font-size="32.00">perf</text>
</g>
<!-- perf&#45;&gt;v -->
<g id="edge5" class="edge">
<title>perf&#45;&gt;v</title>
<path fill="none" stroke="#000000" d="M555.28,-100.18C521.33,-94.05 474.43,-91.42 440,-112.41 423.66,-122.36 413.09,-140.58 406.42,-157.52"/>
<polygon fill="#000000" stroke="#000000" points="403,-156.67 402.93,-167.27 409.59,-159.03 403,-156.67"/>
<text text-anchor="middle" x="487" y="-156.81" font-family="Times,serif" font-size="32.00">have</text>
<text text-anchor="middle" x="487" y="-121.81" font-family="Times,serif" font-size="32.00">=perf v</text>
</g>
<!-- prog -->
<g id="node7" class="node">
<title>prog</title>
<ellipse fill="none" stroke="black" cx="1060.49" cy="-223.41" rx="52.15" ry="30.31"/>
<text text-anchor="middle" x="1060.49" y="-215.31" font-family="Times,serif" font-size="32.00">prog</text>
</g>
<!-- 1 -->
<g id="node8" class="node">
<title>1</title>
<ellipse fill="none" stroke="black" cx="834.17" cy="-144.41" rx="27" ry="30.31"/>
<text text-anchor="middle" x="834.17" y="-136.31" font-family="Times,serif" font-size="32.00">1</text>
</g>
<!-- prog&#45;&gt;1 -->
<g id="edge6" class="edge">
<title>prog&#45;&gt;1</title>
<path fill="none" stroke="#000000" d="M1015.44,-207.89C972.83,-192.89 909.12,-170.45 869.95,-156.66"/>
<polygon fill="#000000" stroke="#000000" points="870.91,-153.28 860.31,-153.26 868.58,-159.88 870.91,-153.28"/>
<text text-anchor="middle" x="940.17" y="-242.81" font-family="Times,serif" font-size="32.00">be</text>
<text text-anchor="middle" x="940.17" y="-207.81" font-family="Times,serif" font-size="32.00">=prog 1</text>
</g>
<!-- 1&#45;&gt;v -->
<g id="edge7" class="edge">
<title>1&#45;&gt;v</title>
<path fill="none" stroke="#000000" d="M812.51,-162.86C802.79,-170.38 790.61,-178.27 778.17,-182.41 714.78,-203.45 515,-200.07 432.35,-197.65"/>
<polygon fill="#000000" stroke="#000000" points="432.28,-194.15 422.17,-197.34 432.06,-201.14 432.28,-194.15"/>
<text text-anchor="middle" x="600.08" y="-244.81" font-family="Times,serif" font-size="32.00">ε_1</text>
<text text-anchor="middle" x="600.08" y="-209.81" font-family="Times,serif" font-size="32.00">=&gt;1 v</text>
</g>
<!-- 1&#45;&gt;perf -->
<g id="edge8" class="edge">
<title>1&#45;&gt;perf</title>
<path fill="none" stroke="#000000" d="M811.08,-128C801.48,-121.85 789.78,-115.57 778.17,-112.41 738.89,-101.69 692.86,-101.79 657.58,-104.39"/>
<polygon fill="#000000" stroke="#000000" points="657.14,-100.91 647.46,-105.22 657.71,-107.89 657.14,-100.91"/>
<text text-anchor="middle" x="722.17" y="-156.81" font-family="Times,serif" font-size="32.00">n</text>
<text text-anchor="middle" x="722.17" y="-121.81" font-family="Times,serif" font-size="32.00">=&gt;1 perf</text>
</g>
<!-- 2&#45;&gt;v -->
<g id="edge10" class="edge">
<title>2&#45;&gt;v</title>
<path fill="none" stroke="#000000" d="M1282.88,-237.33C1275.86,-252.75 1264.81,-270.7 1248.82,-280.41 1177.44,-323.71 1144.98,-294.41 1061.49,-294.41 1061.49,-294.41 1061.49,-294.41 599.08,-294.41 531.39,-294.41 462.49,-249.69 424.89,-220.67"/>
<polygon fill="#000000" stroke="#000000" points="426.94,-217.82 416.92,-214.38 422.6,-223.32 426.94,-217.82"/>
<text text-anchor="middle" x="834.17" y="-338.81" font-family="Times,serif" font-size="32.00">ε_2</text>
<text text-anchor="middle" x="834.17" y="-303.81" font-family="Times,serif" font-size="32.00">=&gt;2 v</text>
</g>
<!-- 2&#45;&gt;prog -->
<g id="edge11" class="edge">
<title>2&#45;&gt;prog</title>
<path fill="none" stroke="#000000" d="M1266.65,-208.13C1234.56,-206.9 1178.55,-205.82 1130.82,-210.41 1127.19,-210.75 1123.47,-211.2 1119.73,-211.71"/>
<polygon fill="#000000" stroke="#000000" points="1119.19,-208.25 1109.82,-213.2 1120.23,-215.17 1119.19,-208.25"/>
<text text-anchor="middle" x="1189.82" y="-254.81" font-family="Times,serif" font-size="32.00">ing</text>
<text text-anchor="middle" x="1189.82" y="-219.81" font-family="Times,serif" font-size="32.00">=&gt;2 prog</text>
</g>
<!-- 2&#45;&gt;1 -->
<g id="edge12" class="edge">
<title>2&#45;&gt;1</title>
<path fill="none" stroke="#000000" d="M1270.7,-193.11C1238.11,-170.23 1174.38,-129.66 1112.82,-114.41 1027.27,-93.21 923.21,-117.25 870.07,-132.96"/>
<polygon fill="#000000" stroke="#000000" points="869,-129.63 860.45,-135.88 871.04,-136.33 869,-129.63"/>
<text text-anchor="middle" x="1060.49" y="-158.81" font-family="Times,serif" font-size="32.00">ε_3</text>
<text text-anchor="middle" x="1060.49" y="-123.81" font-family="Times,serif" font-size="32.00">=&gt;2 1</text>
</g>
</g>
</svg>
