<?xml version="1.0" encoding="UTF-8" standalone="no"?>
<!DOCTYPE svg PUBLIC "-//W3C//DTD SVG 1.1//EN"
 "http://www.w3.org/Graphics/SVG/1.1/DTD/svg11.dtd">
<!-- Generated by graphviz version 2.47.1 (20210417.1919)
 -->
<!-- Title: G Pages: 1 -->
<svg width="1697pt" height="342pt"
 viewBox="0.00 0.00 1696.82 342.16" xmlns="http://www.w3.org/2000/svg" xmlns:xlink="http://www.w3.org/1999/xlink">
<g id="graph0" class="graph" transform="scale(1 1) rotate(0) translate(4 338.16)">
<title>G</title>
<polygon fill="white" stroke="transparent" points="-4,4 -4,-338.16 1692.82,-338.16 1692.82,4 -4,4"/>
<text text-anchor="middle" x="844.41" y="-13.4" font-family="Times,serif" font-size="32.00">replacement: =&gt;2 v with =&gt;2 1, =&gt;1 v</text>
<!-- t -->
<g id="node1" class="node">
<title>t</title>
<ellipse fill="lightgray" stroke="black" cx="27" cy="-170.16" rx="27" ry="30.31"/>
<text text-anchor="middle" x="27" y="-162.06" font-family="Times,serif" font-size="32.00">t</text>
</g>
<!-- z0 -->
<g id="node2" class="node">
<title>z0</title>
<ellipse fill="none" stroke="black" stroke-dasharray="5,2" cx="1661.82" cy="-170.16" rx="27" ry="18"/>
</g>
<!-- d -->
<g id="node3" class="node">
<title>d</title>
<ellipse fill="none" stroke="black" cx="1501.82" cy="-170.16" rx="27" ry="30.31"/>
<text text-anchor="middle" x="1501.82" y="-162.06" font-family="Times,serif" font-size="32.00">d</text>
</g>
<!-- z0&#45;&gt;d -->
<g id="edge1" class="edge">
<title>z0&#45;&gt;d</title>
<path fill="none" stroke="#000000" d="M1634.73,-170.16C1608.65,-170.16 1568.35,-170.16 1539.15,-170.16"/>
<polygon fill="#000000" stroke="#000000" points="1538.95,-166.66 1528.95,-170.16 1538.95,-173.66 1538.95,-166.66"/>
<text text-anchor="middle" x="1581.82" y="-214.56" font-family="Times,serif" font-size="32.00">Mary</text>
<text text-anchor="middle" x="1581.82" y="-179.56" font-family="Times,serif" font-size="32.00">d &#45;k</text>
</g>
<!-- 2 -->
<g id="node9" class="node">
<title>2</title>
<ellipse fill="none" stroke="black" cx="1271.82" cy="-170.16" rx="27" ry="30.31"/>
<text text-anchor="middle" x="1271.82" y="-162.06" font-family="Times,serif" font-size="32.00">2</text>
</g>
<!-- d&#45;&gt;2 -->
<g id="edge9" class="edge">
<title>d&#45;&gt;2</title>
<path fill="none" stroke="#000000" d="M1483.49,-192.68C1476.19,-200.38 1467.01,-208.08 1456.82,-212.16 1399.06,-235.3 1374.58,-235.3 1316.82,-212.16 1309.81,-209.35 1303.28,-204.84 1297.52,-199.79"/>
<polygon fill="#000000" stroke="#000000" points="1299.78,-197.1 1290.15,-192.68 1294.92,-202.14 1299.78,-197.1"/>
<text text-anchor="middle" x="1386.82" y="-308.56" font-family="Times,serif" font-size="32.00">laugh |</text>
<text text-anchor="middle" x="1386.82" y="-273.56" font-family="Times,serif" font-size="32.00"> dance</text>
<text text-anchor="middle" x="1386.82" y="-238.56" font-family="Times,serif" font-size="32.00">=d 2</text>
</g>
<!-- d&#45;&gt;2 -->
<g id="edge12" class="edge">
<title>d&#45;&gt;2</title>
<path fill="none" stroke="#000000" d="M1490.24,-142.32C1483.15,-127.85 1472.25,-111.49 1456.82,-103.16 1402.06,-73.61 1371.58,-73.61 1316.82,-103.16 1304.52,-109.8 1295.1,-121.54 1288.2,-133.35"/>
<polygon fill="#000000" stroke="#000000" points="1285.03,-131.85 1283.4,-142.32 1291.2,-135.15 1285.03,-131.85"/>
<text text-anchor="middle" x="1386.82" y="-182.56" font-family="Times,serif" font-size="32.00">hug |</text>
<text text-anchor="middle" x="1386.82" y="-147.56" font-family="Times,serif" font-size="32.00"> praise</text>
<text text-anchor="middle" x="1386.82" y="-112.56" font-family="Times,serif" font-size="32.00">=d *k =d 2</text>
</g>
<!-- 0 -->
<g id="node4" class="node">
<title>0</title>
<ellipse fill="none" stroke="black" cx="229" cy="-170.16" rx="27" ry="30.31"/>
<text text-anchor="middle" x="229" y="-162.06" font-family="Times,serif" font-size="32.00">0</text>
</g>
<!-- 0&#45;&gt;t -->
<g id="edge2" class="edge">
<title>0&#45;&gt;t</title>
<path fill="none" stroke="#000000" d="M201.85,-170.16C166.67,-170.16 103.92,-170.16 64.21,-170.16"/>
<polygon fill="#000000" stroke="#000000" points="64.15,-166.66 54.15,-170.16 64.15,-173.66 64.15,-166.66"/>
<text text-anchor="middle" x="128" y="-249.56" font-family="Times,serif" font-size="32.00">s |</text>
<text text-anchor="middle" x="128" y="-214.56" font-family="Times,serif" font-size="32.00"> d</text>
<text text-anchor="middle" x="128" y="-179.56" font-family="Times,serif" font-size="32.00">=&gt;0 +k t</text>
</g>
<!-- v -->
<g id="node5" class="node">
<title>v</title>
<ellipse fill="none" stroke="black" cx="395" cy="-170.16" rx="27" ry="30.31"/>
<text text-anchor="middle" x="395" y="-162.06" font-family="Times,serif" font-size="32.00">v</text>
</g>
<!-- v&#45;&gt;0 -->
<g id="edge3" class="edge">
<title>v&#45;&gt;0</title>
<path fill="none" stroke="#000000" d="M371.68,-185.78C365.01,-189.62 357.47,-193.19 350,-195.16 317.34,-203.79 306.66,-203.79 274,-195.16 269.8,-194.05 265.57,-192.44 261.49,-190.55"/>
<polygon fill="#000000" stroke="#000000" points="262.81,-187.29 252.32,-185.78 259.58,-193.5 262.81,-187.29"/>
<text text-anchor="middle" x="312" y="-245.56" font-family="Times,serif" font-size="32.00">will</text>
<text text-anchor="middle" x="312" y="-210.56" font-family="Times,serif" font-size="32.00">=v 0</text>
</g>
<!-- v&#45;&gt;0 -->
<g id="edge4" class="edge">
<title>v&#45;&gt;0</title>
<path fill="none" stroke="#000000" d="M378.8,-145.79C371.4,-136.23 361.59,-126.33 350,-121.16 319.15,-107.4 304.85,-107.4 274,-121.16 265.67,-124.88 258.26,-131.04 252,-137.75"/>
<polygon fill="#000000" stroke="#000000" points="248.99,-135.89 245.2,-145.79 254.33,-140.42 248.99,-135.89"/>
<text text-anchor="middle" x="312" y="-165.56" font-family="Times,serif" font-size="32.00">ε_0</text>
<text text-anchor="middle" x="312" y="-130.56" font-family="Times,serif" font-size="32.00">=&gt;v 0</text>
</g>
<!-- perf -->
<g id="node6" class="node">
<title>perf</title>
<ellipse fill="none" stroke="black" cx="600.08" cy="-128.16" rx="48.17" ry="30.31"/>
<text text-anchor="middle" x="600.08" y="-120.06" font-family="Times,serif" font-size="32.00">perf</text>
</g>
<!-- perf&#45;&gt;v -->
<g id="edge5" class="edge">
<title>perf&#45;&gt;v</title>
<path fill="none" stroke="#000000" d="M553.53,-119.88C520.77,-115.94 476.19,-114.78 440,-129.16 433.35,-131.8 427.11,-135.97 421.53,-140.65"/>
<polygon fill="#000000" stroke="#000000" points="418.81,-138.4 413.87,-147.77 423.58,-143.53 418.81,-138.4"/>
<text text-anchor="middle" x="487" y="-173.56" font-family="Times,serif" font-size="32.00">have</text>
<text text-anchor="middle" x="487" y="-138.56" font-family="Times,serif" font-size="32.00">=perf v</text>
</g>
<!-- prog -->
<g id="node7" class="node">
<title>prog</title>
<ellipse fill="none" stroke="black" cx="1038.49" cy="-272.16" rx="52.15" ry="30.31"/>
<text text-anchor="middle" x="1038.49" y="-264.06" font-family="Times,serif" font-size="32.00">prog</text>
</g>
<!-- 1 -->
<g id="node8" class="node">
<title>1</title>
<ellipse fill="none" stroke="black" cx="823.17" cy="-170.16" rx="27" ry="30.31"/>
<text text-anchor="middle" x="823.17" y="-162.06" font-family="Times,serif" font-size="32.00">1</text>
</g>
<!-- prog&#45;&gt;1 -->
<g id="edge6" class="edge">
<title>prog&#45;&gt;1</title>
<path fill="none" stroke="#000000" d="M997.37,-252.98C956.87,-233.61 895.06,-204.06 857.27,-185.99"/>
<polygon fill="#000000" stroke="#000000" points="858.74,-182.81 848.2,-181.66 855.72,-189.13 858.74,-182.81"/>
<text text-anchor="middle" x="918.17" y="-280.56" font-family="Times,serif" font-size="32.00">be</text>
<text text-anchor="middle" x="918.17" y="-245.56" font-family="Times,serif" font-size="32.00">=prog 1</text>
</g>
<!-- 1&#45;&gt;v -->
<g id="edge7" class="edge">
<title>1&#45;&gt;v</title>
<path fill="none" stroke="#000000" d="M801.06,-187.64C794.18,-192.32 786.23,-196.74 778.17,-199.16 634.21,-242.34 583.96,-242.34 440,-199.16 435.21,-197.73 430.47,-195.58 425.96,-193.1"/>
<polygon fill="#000000" stroke="#000000" points="427.46,-189.91 417.11,-187.64 423.78,-195.87 427.46,-189.91"/>
<text text-anchor="middle" x="600.08" y="-275.56" font-family="Times,serif" font-size="32.00">ε_1</text>
<text text-anchor="middle" x="600.08" y="-240.56" font-family="Times,serif" font-size="32.00">=&gt;1 v</text>
</g>
<!-- 1&#45;&gt;perf -->
<g id="edge8" class="edge">
<title>1&#45;&gt;perf</title>
<path fill="none" stroke="#000000" d="M804.3,-147.77C797.06,-140.4 788.07,-133.09 778.17,-129.16 739.68,-113.88 692.66,-114.41 656.75,-118.33"/>
<polygon fill="#000000" stroke="#000000" points="655.97,-114.9 646.46,-119.58 656.81,-121.85 655.97,-114.9"/>
<text text-anchor="middle" x="722.17" y="-173.56" font-family="Times,serif" font-size="32.00">n</text>
<text text-anchor="middle" x="722.17" y="-138.56" font-family="Times,serif" font-size="32.00">=&gt;1 perf</text>
</g>
<!-- 2&#45;&gt;prog -->
<g id="edge10" class="edge">
<title>2&#45;&gt;prog</title>
<path fill="none" stroke="#000000" d="M1246.5,-180.89C1209.63,-197.14 1138.77,-228.39 1090.33,-249.75"/>
<polygon fill="#000000" stroke="#000000" points="1088.69,-246.64 1080.95,-253.88 1091.52,-253.05 1088.69,-246.64"/>
<text text-anchor="middle" x="1167.82" y="-283.56" font-family="Times,serif" font-size="32.00">ing</text>
<text text-anchor="middle" x="1167.82" y="-248.56" font-family="Times,serif" font-size="32.00">=&gt;2 prog</text>
</g>
<!-- 2&#45;&gt;1 -->
<g id="edge11" class="edge">
<title>2&#45;&gt;1</title>
<path fill="none" stroke="#000000" d="M1244.59,-168.82C1209.56,-167.11 1145.54,-164.23 1090.82,-163.16 1044.32,-162.26 1032.67,-162.16 986.17,-163.16 942.87,-164.1 893.1,-166.44 860.28,-168.15"/>
<polygon fill="#000000" stroke="#000000" points="860.05,-164.66 850.25,-168.69 860.42,-171.65 860.05,-164.66"/>
<text text-anchor="middle" x="1038.49" y="-207.56" font-family="Times,serif" font-size="32.00">ε_2</text>
<text text-anchor="middle" x="1038.49" y="-172.56" font-family="Times,serif" font-size="32.00">=&gt;2 1</text>
</g>
</g>
</svg>
