<?xml version="1.0" encoding="UTF-8" standalone="no"?>
<!DOCTYPE svg PUBLIC "-//W3C//DTD SVG 1.1//EN"
 "http://www.w3.org/Graphics/SVG/1.1/DTD/svg11.dtd">
<!-- Generated by graphviz version 2.47.1 (20210417.1919)
 -->
<!-- Title: G Pages: 1 -->
<svg width="1753pt" height="1256pt"
 viewBox="0.00 0.00 1752.65 1256.00" xmlns="http://www.w3.org/2000/svg" xmlns:xlink="http://www.w3.org/1999/xlink">
<g id="graph0" class="graph" transform="scale(1 1) rotate(0) translate(4 1252)">
<title>G</title>
<polygon fill="white" stroke="transparent" points="-4,4 -4,-1252 1748.65,-1252 1748.65,4 -4,4"/>
<text text-anchor="middle" x="872.33" y="-13.4" font-family="Times,serif" font-size="32.00">decomposition: ing =&gt;2 prog, ing =&gt;3 prog, ing =&gt;4 prog, ing =&gt;5 prog</text>
<!-- t -->
<g id="node1" class="node">
<title>t</title>
<ellipse fill="lightgray" stroke="black" cx="27" cy="-570" rx="27" ry="30.31"/>
<text text-anchor="middle" x="27" y="-561.9" font-family="Times,serif" font-size="32.00">t</text>
</g>
<!-- z0 -->
<g id="node2" class="node">
<title>z0</title>
<ellipse fill="none" stroke="black" stroke-dasharray="5,2" cx="1717.65" cy="-580" rx="27" ry="18"/>
</g>
<!-- d -->
<g id="node3" class="node">
<title>d</title>
<ellipse fill="none" stroke="black" cx="1557.65" cy="-580" rx="27" ry="30.31"/>
<text text-anchor="middle" x="1557.65" y="-571.9" font-family="Times,serif" font-size="32.00">d</text>
</g>
<!-- z0&#45;&gt;d -->
<g id="edge1" class="edge">
<title>z0&#45;&gt;d</title>
<path fill="none" stroke="#000000" d="M1690.56,-580C1664.49,-580 1624.19,-580 1594.99,-580"/>
<polygon fill="#000000" stroke="#000000" points="1594.78,-576.5 1584.78,-580 1594.78,-583.5 1594.78,-576.5"/>
<text text-anchor="middle" x="1637.65" y="-624.4" font-family="Times,serif" font-size="32.00">Mary</text>
<text text-anchor="middle" x="1637.65" y="-589.4" font-family="Times,serif" font-size="32.00">d &#45;k</text>
</g>
<!-- 2 -->
<g id="node9" class="node">
<title>2</title>
<ellipse fill="none" stroke="black" cx="1327.65" cy="-968" rx="27" ry="30.31"/>
<text text-anchor="middle" x="1327.65" y="-959.9" font-family="Times,serif" font-size="32.00">2</text>
</g>
<!-- d&#45;&gt;2 -->
<g id="edge14" class="edge">
<title>d&#45;&gt;2</title>
<path fill="none" stroke="#000000" d="M1553.01,-610.01C1547.84,-645.16 1536.24,-704.37 1512.65,-750 1471.73,-829.15 1397.45,-904.72 1356.91,-942.65"/>
<polygon fill="#000000" stroke="#000000" points="1354.47,-940.14 1349.51,-949.5 1359.23,-945.27 1354.47,-940.14"/>
<text text-anchor="middle" x="1442.65" y="-967.4" font-family="Times,serif" font-size="32.00">laugh</text>
<text text-anchor="middle" x="1442.65" y="-932.4" font-family="Times,serif" font-size="32.00">=d 2</text>
</g>
<!-- 4 -->
<g id="node11" class="node">
<title>4</title>
<ellipse fill="none" stroke="black" cx="1327.65" cy="-702" rx="27" ry="30.31"/>
<text text-anchor="middle" x="1327.65" y="-693.9" font-family="Times,serif" font-size="32.00">4</text>
</g>
<!-- d&#45;&gt;4 -->
<g id="edge21" class="edge">
<title>d&#45;&gt;4</title>
<path fill="none" stroke="#000000" d="M1532.68,-592.83C1491.61,-614.8 1407.72,-659.69 1361.33,-684.51"/>
<polygon fill="#000000" stroke="#000000" points="1359.47,-681.54 1352.3,-689.35 1362.77,-687.71 1359.47,-681.54"/>
<text text-anchor="middle" x="1442.65" y="-720.4" font-family="Times,serif" font-size="32.00">dance</text>
<text text-anchor="middle" x="1442.65" y="-685.4" font-family="Times,serif" font-size="32.00">=d 4</text>
</g>
<!-- 5 -->
<g id="node12" class="node">
<title>5</title>
<ellipse fill="none" stroke="black" cx="1327.65" cy="-220" rx="27" ry="30.31"/>
<text text-anchor="middle" x="1327.65" y="-211.9" font-family="Times,serif" font-size="32.00">5</text>
</g>
<!-- d&#45;&gt;5 -->
<g id="edge27" class="edge">
<title>d&#45;&gt;5</title>
<path fill="none" stroke="#000000" d="M1554.72,-549.55C1551.15,-511.2 1541.05,-444.37 1512.65,-395 1473.87,-327.57 1401.13,-269.96 1359.68,-240.66"/>
<polygon fill="#000000" stroke="#000000" points="1361.53,-237.69 1351.33,-234.84 1357.53,-243.43 1361.53,-237.69"/>
<text text-anchor="middle" x="1442.65" y="-439.4" font-family="Times,serif" font-size="32.00">hug</text>
<text text-anchor="middle" x="1442.65" y="-404.4" font-family="Times,serif" font-size="32.00">=d *k =d 5</text>
</g>
<!-- 6 -->
<g id="node13" class="node">
<title>6</title>
<ellipse fill="none" stroke="black" cx="1327.65" cy="-454" rx="27" ry="30.31"/>
<text text-anchor="middle" x="1327.65" y="-445.9" font-family="Times,serif" font-size="32.00">6</text>
</g>
<!-- d&#45;&gt;6 -->
<g id="edge33" class="edge">
<title>d&#45;&gt;6</title>
<path fill="none" stroke="#000000" d="M1539.02,-557.51C1531.56,-549.03 1522.35,-539.81 1512.65,-533 1465.63,-500 1402.66,-476.69 1363.91,-464.31"/>
<polygon fill="#000000" stroke="#000000" points="1364.72,-460.89 1354.13,-461.25 1362.63,-467.57 1364.72,-460.89"/>
<text text-anchor="middle" x="1442.65" y="-577.4" font-family="Times,serif" font-size="32.00">praise</text>
<text text-anchor="middle" x="1442.65" y="-542.4" font-family="Times,serif" font-size="32.00">=d *k =d 6</text>
</g>
<!-- 0 -->
<g id="node4" class="node">
<title>0</title>
<ellipse fill="none" stroke="black" cx="229" cy="-671" rx="27" ry="30.31"/>
<text text-anchor="middle" x="229" y="-662.9" font-family="Times,serif" font-size="32.00">0</text>
</g>
<!-- 0&#45;&gt;t -->
<g id="edge2" class="edge">
<title>0&#45;&gt;t</title>
<path fill="none" stroke="#000000" d="M203.47,-660.69C172.32,-647.34 117.21,-622.83 72,-598 67.76,-595.67 63.37,-593.09 59.08,-590.47"/>
<polygon fill="#000000" stroke="#000000" points="60.83,-587.44 50.5,-585.1 57.12,-593.37 60.83,-587.44"/>
<text text-anchor="middle" x="128" y="-696.4" font-family="Times,serif" font-size="32.00">s</text>
<text text-anchor="middle" x="128" y="-661.4" font-family="Times,serif" font-size="32.00">=&gt;0 +k t</text>
</g>
<!-- v -->
<g id="node5" class="node">
<title>v</title>
<ellipse fill="none" stroke="black" cx="421" cy="-428" rx="27" ry="30.31"/>
<text text-anchor="middle" x="421" y="-419.9" font-family="Times,serif" font-size="32.00">v</text>
</g>
<!-- v&#45;&gt;0 -->
<g id="edge3" class="edge">
<title>v&#45;&gt;0</title>
<path fill="none" stroke="#000000" d="M395.95,-440.07C363.68,-457.44 306.65,-492.49 274,-538 254.05,-565.81 242.74,-603.23 236.6,-631.3"/>
<polygon fill="#000000" stroke="#000000" points="233.15,-630.68 234.56,-641.18 240.01,-632.09 233.15,-630.68"/>
<text text-anchor="middle" x="315" y="-582.4" font-family="Times,serif" font-size="32.00">will</text>
<text text-anchor="middle" x="315" y="-547.4" font-family="Times,serif" font-size="32.00">=v 0</text>
</g>
<!-- 1 -->
<g id="node6" class="node">
<title>1</title>
<ellipse fill="none" stroke="black" cx="229" cy="-427" rx="27" ry="30.31"/>
<text text-anchor="middle" x="229" y="-418.9" font-family="Times,serif" font-size="32.00">1</text>
</g>
<!-- v&#45;&gt;1 -->
<g id="edge5" class="edge">
<title>v&#45;&gt;1</title>
<path fill="none" stroke="#000000" d="M408.82,-400.71C398.54,-379.59 381.07,-351.85 356,-339 323.57,-322.38 305,-319.84 274,-339 256.63,-349.73 245.89,-369.63 239.38,-387.79"/>
<polygon fill="#000000" stroke="#000000" points="236.03,-386.75 236.26,-397.35 242.69,-388.92 236.03,-386.75"/>
<text text-anchor="middle" x="315" y="-383.4" font-family="Times,serif" font-size="32.00">will_1</text>
<text text-anchor="middle" x="315" y="-348.4" font-family="Times,serif" font-size="32.00">=v 1</text>
</g>
<!-- 1&#45;&gt;t -->
<g id="edge4" class="edge">
<title>1&#45;&gt;t</title>
<path fill="none" stroke="#000000" d="M204.04,-439.42C172.32,-456.41 115.33,-488.82 72,-524 65.73,-529.09 59.45,-535.03 53.68,-540.91"/>
<polygon fill="#000000" stroke="#000000" points="51.04,-538.61 46.68,-548.27 56.11,-543.44 51.04,-538.61"/>
<text text-anchor="middle" x="128" y="-568.4" font-family="Times,serif" font-size="32.00">d</text>
<text text-anchor="middle" x="128" y="-533.4" font-family="Times,serif" font-size="32.00">=&gt;1 +k t</text>
</g>
<!-- perf -->
<g id="node7" class="node">
<title>perf</title>
<ellipse fill="none" stroke="black" cx="654" cy="-543" rx="48.17" ry="30.31"/>
<text text-anchor="middle" x="654" y="-534.9" font-family="Times,serif" font-size="32.00">perf</text>
</g>
<!-- perf&#45;&gt;0 -->
<g id="edge6" class="edge">
<title>perf&#45;&gt;0</title>
<path fill="none" stroke="#000000" d="M610.42,-556.24C572.94,-567.86 516.89,-585.18 468,-600 396.07,-621.81 311.75,-646.84 265.26,-660.59"/>
<polygon fill="#000000" stroke="#000000" points="263.98,-657.32 255.38,-663.51 265.97,-664.03 263.98,-657.32"/>
<text text-anchor="middle" x="421" y="-672.4" font-family="Times,serif" font-size="32.00">have</text>
<text text-anchor="middle" x="421" y="-637.4" font-family="Times,serif" font-size="32.00">=perf 0</text>
</g>
<!-- perf&#45;&gt;v -->
<g id="edge8" class="edge">
<title>perf&#45;&gt;v</title>
<path fill="none" stroke="#000000" d="M623.02,-519.68C616.2,-513.45 609.4,-506.39 604,-499 592.5,-483.26 601.31,-471.07 586,-459 576.05,-451.16 503.16,-439.56 457.97,-433"/>
<polygon fill="#000000" stroke="#000000" points="458.35,-429.52 447.96,-431.57 457.36,-436.45 458.35,-429.52"/>
<text text-anchor="middle" x="536" y="-503.4" font-family="Times,serif" font-size="32.00">have_2</text>
<text text-anchor="middle" x="536" y="-468.4" font-family="Times,serif" font-size="32.00">=perf v</text>
</g>
<!-- perf&#45;&gt;1 -->
<g id="edge7" class="edge">
<title>perf&#45;&gt;1</title>
<path fill="none" stroke="#000000" d="M606.16,-539.62C572.66,-537.06 526.51,-533.28 486,-529 438.77,-524.02 313.63,-528.16 274,-502 260.59,-493.15 250.73,-478.69 243.78,-464.82"/>
<polygon fill="#000000" stroke="#000000" points="246.79,-463 239.42,-455.39 240.43,-465.94 246.79,-463"/>
<text text-anchor="middle" x="421" y="-572.4" font-family="Times,serif" font-size="32.00">have_1</text>
<text text-anchor="middle" x="421" y="-537.4" font-family="Times,serif" font-size="32.00">=perf 1</text>
</g>
<!-- prog -->
<g id="node8" class="node">
<title>prog</title>
<ellipse fill="none" stroke="black" cx="928.33" cy="-548" rx="52.15" ry="30.31"/>
<text text-anchor="middle" x="928.33" y="-539.9" font-family="Times,serif" font-size="32.00">prog</text>
</g>
<!-- prog&#45;&gt;0 -->
<g id="edge9" class="edge">
<title>prog&#45;&gt;0</title>
<path fill="none" stroke="#000000" d="M896.29,-572.16C884.79,-580.12 871.3,-588.37 858,-594 702.16,-659.91 625.79,-579.65 486,-675 474.09,-683.13 480.72,-695.19 468,-702 402.01,-737.32 311.45,-707.81 263.29,-687.06"/>
<polygon fill="#000000" stroke="#000000" points="264.52,-683.78 253.96,-682.92 261.68,-690.18 264.52,-683.78"/>
<text text-anchor="middle" x="536" y="-719.4" font-family="Times,serif" font-size="32.00">be</text>
<text text-anchor="middle" x="536" y="-684.4" font-family="Times,serif" font-size="32.00">=prog 0</text>
</g>
<!-- prog&#45;&gt;v -->
<g id="edge11" class="edge">
<title>prog&#45;&gt;v</title>
<path fill="none" stroke="#000000" d="M894.06,-524.9C852.02,-497.19 776.4,-452.23 704,-434 618.08,-412.37 512.74,-418.32 458.35,-423.67"/>
<polygon fill="#000000" stroke="#000000" points="457.76,-420.21 448.18,-424.72 458.49,-427.17 457.76,-420.21"/>
<text text-anchor="middle" x="654" y="-478.4" font-family="Times,serif" font-size="32.00">be_2</text>
<text text-anchor="middle" x="654" y="-443.4" font-family="Times,serif" font-size="32.00">=prog v</text>
</g>
<!-- prog&#45;&gt;1 -->
<g id="edge10" class="edge">
<title>prog&#45;&gt;1</title>
<path fill="none" stroke="#000000" d="M915.79,-518.25C904.58,-493.02 885.25,-457.58 858,-436 758.06,-356.87 710.64,-371.73 586,-345 450.05,-315.84 389.77,-244.99 274,-322 252.35,-336.4 241.34,-363.72 235.74,-386.89"/>
<polygon fill="#000000" stroke="#000000" points="232.28,-386.33 233.59,-396.84 239.12,-387.8 232.28,-386.33"/>
<text text-anchor="middle" x="536" y="-389.4" font-family="Times,serif" font-size="32.00">be_1</text>
<text text-anchor="middle" x="536" y="-354.4" font-family="Times,serif" font-size="32.00">=prog 1</text>
</g>
<!-- prog&#45;&gt;perf -->
<g id="edge12" class="edge">
<title>prog&#45;&gt;perf</title>
<path fill="none" stroke="#000000" d="M885.01,-530.86C876.22,-528.01 866.92,-525.5 858,-524 798.39,-513.97 781.87,-515.68 722,-524 717.16,-524.67 712.19,-525.61 707.24,-526.7"/>
<polygon fill="#000000" stroke="#000000" points="706.05,-523.39 697.15,-529.14 707.7,-530.19 706.05,-523.39"/>
<text text-anchor="middle" x="790" y="-568.4" font-family="Times,serif" font-size="32.00">ben</text>
<text text-anchor="middle" x="790" y="-533.4" font-family="Times,serif" font-size="32.00">=prog perf</text>
</g>
<!-- 2&#45;&gt;0 -->
<g id="edge13" class="edge">
<title>2&#45;&gt;0</title>
<path fill="none" stroke="#000000" d="M1318.79,-997.2C1301.29,-1054.9 1253.32,-1178 1162.65,-1178 1162.65,-1178 1162.65,-1178 420,-1178 320.43,-1178 255.54,-830.78 236.12,-711.03"/>
<polygon fill="#000000" stroke="#000000" points="239.52,-710.14 234.48,-700.82 232.61,-711.25 239.52,-710.14"/>
<text text-anchor="middle" x="790" y="-1222.4" font-family="Times,serif" font-size="32.00">ε_0</text>
<text text-anchor="middle" x="790" y="-1187.4" font-family="Times,serif" font-size="32.00">=&gt;2 0</text>
</g>
<!-- 2&#45;&gt;v -->
<g id="edge16" class="edge">
<title>2&#45;&gt;v</title>
<path fill="none" stroke="#000000" d="M1301.38,-976.06C1200.49,-1007.64 826.89,-1118.68 722,-1066 565.04,-987.17 547.74,-913.44 486,-749 450.11,-653.42 495.33,-618.36 468,-520 462.31,-499.53 451.98,-478.22 442.54,-461.27"/>
<polygon fill="#000000" stroke="#000000" points="445.43,-459.27 437.43,-452.33 439.36,-462.75 445.43,-459.27"/>
<text text-anchor="middle" x="928.33" y="-1119.4" font-family="Times,serif" font-size="32.00">ε_2</text>
<text text-anchor="middle" x="928.33" y="-1084.4" font-family="Times,serif" font-size="32.00">=&gt;2 v</text>
</g>
<!-- 2&#45;&gt;1 -->
<g id="edge15" class="edge">
<title>2&#45;&gt;1</title>
<path fill="none" stroke="#000000" d="M1300.64,-964.55C1294.73,-963.91 1288.49,-963.33 1282.65,-963 1248.93,-961.09 1240.43,-962.84 1206.65,-963 1114.2,-963.44 1091.05,-961.93 998.65,-965 936.07,-967.08 920.59,-971.22 858,-973 797.58,-974.72 779.8,-990.69 722,-973 479.6,-898.82 387.35,-846.74 274,-620 249.4,-570.8 238.36,-507.67 233.54,-467.27"/>
<polygon fill="#000000" stroke="#000000" points="237.01,-466.8 232.42,-457.26 230.06,-467.58 237.01,-466.8"/>
<text text-anchor="middle" x="790" y="-1025.4" font-family="Times,serif" font-size="32.00">ε_1</text>
<text text-anchor="middle" x="790" y="-990.4" font-family="Times,serif" font-size="32.00">=&gt;2 1</text>
</g>
<!-- 2&#45;&gt;perf -->
<g id="edge19" class="edge">
<title>2&#45;&gt;perf</title>
<path fill="none" stroke="#000000" d="M1300.31,-968.29C1275.92,-968.23 1238.68,-967.3 1206.65,-963 1049.09,-941.82 1013.35,-916.81 858,-883 797.7,-869.88 765.82,-898.45 722,-855 684.05,-817.37 665.25,-659.26 658.29,-583.63"/>
<polygon fill="#000000" stroke="#000000" points="661.76,-583.18 657.38,-573.53 654.79,-583.8 661.76,-583.18"/>
<text text-anchor="middle" x="1057.65" y="-991.4" font-family="Times,serif" font-size="32.00">n</text>
<text text-anchor="middle" x="1057.65" y="-956.4" font-family="Times,serif" font-size="32.00">=&gt;2 perf</text>
</g>
<!-- 3 -->
<g id="node10" class="node">
<title>3</title>
<ellipse fill="none" stroke="black" cx="1161.65" cy="-548" rx="27" ry="30.31"/>
<text text-anchor="middle" x="1161.65" y="-539.9" font-family="Times,serif" font-size="32.00">3</text>
</g>
<!-- 2&#45;&gt;3 -->
<g id="edge18" class="edge">
<title>2&#45;&gt;3</title>
<path fill="none" stroke="#f7931d" stroke-width="2" d="M1315.13,-940.92C1293.22,-889.17 1244.38,-772.52 1206.65,-673 1195.68,-644.07 1184.1,-611.04 1175.57,-586.21"/>
<polygon fill="#f7931d" stroke="#f7931d" stroke-width="2" points="1178.78,-584.77 1172.23,-576.44 1172.15,-587.03 1178.78,-584.77"/>
<text text-anchor="middle" x="1244.65" y="-907.4" font-family="Times,serif" font-size="32.00">ε_3</text>
<text text-anchor="middle" x="1244.65" y="-872.4" font-family="Times,serif" font-size="32.00">=&gt;2 3</text>
</g>
<!-- 3&#45;&gt;prog -->
<g id="edge17" class="edge">
<title>3&#45;&gt;prog</title>
<path fill="none" stroke="#f7931d" stroke-width="2" d="M1134.57,-548C1100,-548 1037.93,-548 991.07,-548"/>
<polygon fill="#f7931d" stroke="#f7931d" stroke-width="2" points="991.02,-544.5 981.02,-548 991.02,-551.5 991.02,-544.5"/>
<text text-anchor="middle" x="1057.65" y="-592.4" font-family="Times,serif" font-size="32.00">ing</text>
<text text-anchor="middle" x="1057.65" y="-557.4" font-family="Times,serif" font-size="32.00">=&gt;3 prog</text>
</g>
<!-- 4&#45;&gt;0 -->
<g id="edge20" class="edge">
<title>4&#45;&gt;0</title>
<path fill="none" stroke="#000000" d="M1323.67,-732.28C1318.35,-779.54 1305.58,-867.59 1282.65,-888 1242.54,-923.7 1216.35,-902 1162.65,-902 1162.65,-902 1162.65,-902 420,-902 343.3,-902 320.88,-870.71 274,-810 251.79,-781.24 240.65,-741.02 235.15,-711.24"/>
<polygon fill="#000000" stroke="#000000" points="238.57,-710.44 233.44,-701.17 231.67,-711.62 238.57,-710.44"/>
<text text-anchor="middle" x="790" y="-946.4" font-family="Times,serif" font-size="32.00">ε_4</text>
<text text-anchor="middle" x="790" y="-911.4" font-family="Times,serif" font-size="32.00">=&gt;4 0</text>
</g>
<!-- 4&#45;&gt;v -->
<g id="edge23" class="edge">
<title>4&#45;&gt;v</title>
<path fill="none" stroke="#000000" d="M1300.64,-698.55C1294.73,-697.91 1288.49,-697.33 1282.65,-697 1248.93,-695.09 1240.43,-696.84 1206.65,-697 1114.2,-697.44 1090.24,-686.4 998.65,-699 966.58,-703.41 890.1,-732.74 858,-737 798.08,-744.95 778.65,-758.09 722,-737 592.07,-688.63 575.6,-638.8 486,-533 467.85,-511.57 451.46,-484.44 439.81,-463.13"/>
<polygon fill="#000000" stroke="#000000" points="442.77,-461.24 434.95,-454.09 436.6,-464.55 442.77,-461.24"/>
<text text-anchor="middle" x="928.33" y="-778.4" font-family="Times,serif" font-size="32.00">ε_6</text>
<text text-anchor="middle" x="928.33" y="-743.4" font-family="Times,serif" font-size="32.00">=&gt;4 v</text>
</g>
<!-- 4&#45;&gt;1 -->
<g id="edge22" class="edge">
<title>4&#45;&gt;1</title>
<path fill="none" stroke="#000000" d="M1302.02,-711.94C1246.07,-733.92 1104.62,-786.11 980.65,-804 822.39,-826.84 508.28,-755.13 486,-749 433.95,-734.67 414.38,-737.83 374,-702 306.7,-642.29 314.54,-606.31 274,-526 263.75,-505.7 253.37,-482.49 245.26,-463.64"/>
<polygon fill="#000000" stroke="#000000" points="248.39,-462.05 241.25,-454.23 241.95,-464.8 248.39,-462.05"/>
<text text-anchor="middle" x="790" y="-851.4" font-family="Times,serif" font-size="32.00">ε_5</text>
<text text-anchor="middle" x="790" y="-816.4" font-family="Times,serif" font-size="32.00">=&gt;4 1</text>
</g>
<!-- 4&#45;&gt;perf -->
<g id="edge25" class="edge">
<title>4&#45;&gt;perf</title>
<path fill="none" stroke="#000000" d="M1300.34,-702.11C1275.96,-701.93 1238.73,-700.92 1206.65,-697 1097.54,-683.67 821.25,-645.26 722,-598 709.99,-592.28 698.29,-583.96 688.11,-575.51"/>
<polygon fill="#000000" stroke="#000000" points="690.16,-572.65 680.3,-568.75 685.58,-577.94 690.16,-572.65"/>
<text text-anchor="middle" x="1057.65" y="-730.4" font-family="Times,serif" font-size="32.00">n_1</text>
<text text-anchor="middle" x="1057.65" y="-695.4" font-family="Times,serif" font-size="32.00">=&gt;4 perf</text>
</g>
<!-- 4&#45;&gt;3 -->
<g id="edge24" class="edge">
<title>4&#45;&gt;3</title>
<path fill="none" stroke="#f7931d" stroke-width="2" d="M1320.39,-672.4C1314.23,-649.74 1302.75,-619.06 1282.65,-599 1259.6,-575.99 1224.55,-562.73 1198.27,-555.54"/>
<polygon fill="#f7931d" stroke="#f7931d" stroke-width="2" points="1198.87,-552.08 1188.32,-552.98 1197.13,-558.86 1198.87,-552.08"/>
<text text-anchor="middle" x="1244.65" y="-643.4" font-family="Times,serif" font-size="32.00">ε_7</text>
<text text-anchor="middle" x="1244.65" y="-608.4" font-family="Times,serif" font-size="32.00">=&gt;4 3</text>
</g>
<!-- 5&#45;&gt;0 -->
<g id="edge26" class="edge">
<title>5&#45;&gt;0</title>
<path fill="none" stroke="#000000" d="M1303,-232.57C1296.56,-235.48 1289.48,-238.24 1282.65,-240 1210.99,-258.48 1190.6,-250.11 1116.65,-253 1009.57,-257.19 966.76,-294.98 876,-238 863.47,-230.13 870.98,-217.09 858,-210 698.82,-123.1 390.15,-190.92 274,-322 252.61,-346.14 260.03,-434 256,-466 248.79,-523.26 240.37,-589.51 235.12,-630.83"/>
<polygon fill="#000000" stroke="#000000" points="231.64,-630.42 233.85,-640.78 238.58,-631.31 231.64,-630.42"/>
<text text-anchor="middle" x="790" y="-254.4" font-family="Times,serif" font-size="32.00">ε_8</text>
<text text-anchor="middle" x="790" y="-219.4" font-family="Times,serif" font-size="32.00">=&gt;5 0</text>
</g>
<!-- 5&#45;&gt;v -->
<g id="edge29" class="edge">
<title>5&#45;&gt;v</title>
<path fill="none" stroke="#000000" d="M1300.73,-215.05C1198.98,-196.12 827.31,-131.7 722,-180 637.78,-218.63 657.99,-279.67 586,-338 545.29,-370.99 490.76,-398.14 455.99,-413.71"/>
<polygon fill="#000000" stroke="#000000" points="454.48,-410.56 446.74,-417.79 457.3,-416.96 454.48,-410.56"/>
<text text-anchor="middle" x="928.33" y="-213.4" font-family="Times,serif" font-size="32.00">ε_10</text>
<text text-anchor="middle" x="928.33" y="-178.4" font-family="Times,serif" font-size="32.00">=&gt;5 v</text>
</g>
<!-- 5&#45;&gt;1 -->
<g id="edge28" class="edge">
<title>5&#45;&gt;1</title>
<path fill="none" stroke="#000000" d="M1312.34,-194.83C1287.49,-154.77 1232.26,-81 1162.65,-81 1162.65,-81 1162.65,-81 420,-81 281.92,-81 243.5,-295.33 233.39,-386.61"/>
<polygon fill="#000000" stroke="#000000" points="229.91,-386.29 232.35,-396.6 236.87,-387.02 229.91,-386.29"/>
<text text-anchor="middle" x="790" y="-125.4" font-family="Times,serif" font-size="32.00">ε_9</text>
<text text-anchor="middle" x="790" y="-90.4" font-family="Times,serif" font-size="32.00">=&gt;5 1</text>
</g>
<!-- 5&#45;&gt;perf -->
<g id="edge31" class="edge">
<title>5&#45;&gt;perf</title>
<path fill="none" stroke="#000000" d="M1300.48,-221.07C1275.55,-222.84 1237.38,-227.54 1206.65,-240 1102.46,-282.26 1069.07,-296.35 998.65,-384 985.42,-400.47 996.84,-414.42 980.65,-428 890.53,-503.58 821.01,-420.5 722,-484 710.78,-491.2 713.54,-498.68 704,-508 701.61,-510.34 699.05,-512.64 696.4,-514.87"/>
<polygon fill="#000000" stroke="#000000" points="693.9,-512.39 688.27,-521.36 698.27,-517.86 693.9,-512.39"/>
<text text-anchor="middle" x="1057.65" y="-428.4" font-family="Times,serif" font-size="32.00">n_2</text>
<text text-anchor="middle" x="1057.65" y="-393.4" font-family="Times,serif" font-size="32.00">=&gt;5 perf</text>
</g>
<!-- 5&#45;&gt;3 -->
<g id="edge30" class="edge">
<title>5&#45;&gt;3</title>
<path fill="none" stroke="#f7931d" stroke-width="2" d="M1308.5,-241.64C1278.56,-277.69 1220.74,-348.94 1206.65,-378 1186.32,-419.95 1174.58,-472.43 1168.42,-507.9"/>
<polygon fill="#f7931d" stroke="#f7931d" stroke-width="2" points="1164.95,-507.44 1166.75,-517.88 1171.85,-508.6 1164.95,-507.44"/>
<text text-anchor="middle" x="1244.65" y="-422.4" font-family="Times,serif" font-size="32.00">ε_11</text>
<text text-anchor="middle" x="1244.65" y="-387.4" font-family="Times,serif" font-size="32.00">=&gt;5 3</text>
</g>
<!-- 6&#45;&gt;0 -->
<g id="edge32" class="edge">
<title>6&#45;&gt;0</title>
<path fill="none" stroke="#000000" d="M1323.46,-484.09C1317.93,-530.07 1304.96,-614.55 1282.65,-634 1188.24,-716.31 843.74,-662.55 722,-692 658.95,-707.25 649.76,-733.02 586,-745 449.21,-770.71 397.93,-781.35 274,-718 266.27,-714.05 259.19,-708.18 253.06,-701.91"/>
<polygon fill="#000000" stroke="#000000" points="255.64,-699.53 246.34,-694.45 250.44,-704.22 255.64,-699.53"/>
<text text-anchor="middle" x="790" y="-736.4" font-family="Times,serif" font-size="32.00">ε_12</text>
<text text-anchor="middle" x="790" y="-701.4" font-family="Times,serif" font-size="32.00">=&gt;6 0</text>
</g>
<!-- 6&#45;&gt;v -->
<g id="edge35" class="edge">
<title>6&#45;&gt;v</title>
<path fill="none" stroke="#000000" d="M1300.78,-448.33C1243.48,-436.08 1101.37,-407.53 980.65,-398 849.79,-387.66 599.05,-401.14 486,-415 476.76,-416.13 466.86,-417.88 457.68,-419.72"/>
<polygon fill="#000000" stroke="#000000" points="456.76,-416.34 447.7,-421.82 458.2,-423.19 456.76,-416.34"/>
<text text-anchor="middle" x="928.33" y="-442.4" font-family="Times,serif" font-size="32.00">ε_14</text>
<text text-anchor="middle" x="928.33" y="-407.4" font-family="Times,serif" font-size="32.00">=&gt;6 v</text>
</g>
<!-- 6&#45;&gt;1 -->
<g id="edge34" class="edge">
<title>6&#45;&gt;1</title>
<path fill="none" stroke="#000000" d="M1327.3,-423.58C1326.21,-388.91 1318.49,-333.49 1282.65,-306 1246.73,-278.44 513.27,-284.61 468,-284 381.78,-282.84 343.15,-233.5 274,-285 242.9,-308.16 233.15,-353.05 230.4,-386.18"/>
<polygon fill="#000000" stroke="#000000" points="226.89,-386.27 229.74,-396.48 233.87,-386.73 226.89,-386.27"/>
<text text-anchor="middle" x="790" y="-329.4" font-family="Times,serif" font-size="32.00">ε_13</text>
<text text-anchor="middle" x="790" y="-294.4" font-family="Times,serif" font-size="32.00">=&gt;6 1</text>
</g>
<!-- 6&#45;&gt;perf -->
<g id="edge37" class="edge">
<title>6&#45;&gt;perf</title>
<path fill="none" stroke="#000000" d="M1300.61,-451.93C1294.71,-451.54 1288.47,-451.2 1282.65,-451 1248.89,-449.85 1240.38,-449.14 1206.65,-451 1098.21,-456.98 826.49,-484.4 722,-514 715.45,-515.86 708.69,-518.21 702.11,-520.78"/>
<polygon fill="#000000" stroke="#000000" points="700.56,-517.62 692.63,-524.64 703.21,-524.11 700.56,-517.62"/>
<text text-anchor="middle" x="1057.65" y="-514.4" font-family="Times,serif" font-size="32.00">n_3</text>
<text text-anchor="middle" x="1057.65" y="-479.4" font-family="Times,serif" font-size="32.00">=&gt;6 perf</text>
</g>
<!-- 6&#45;&gt;3 -->
<g id="edge36" class="edge">
<title>6&#45;&gt;3</title>
<path fill="none" stroke="#f7931d" stroke-width="2" d="M1300.44,-451.4C1274.42,-450.18 1234.51,-452.1 1206.65,-471 1192.75,-480.43 1182.71,-495.81 1175.76,-510.35"/>
<polygon fill="#f7931d" stroke="#f7931d" stroke-width="2" points="1172.46,-509.16 1171.63,-519.72 1178.87,-511.98 1172.46,-509.16"/>
<text text-anchor="middle" x="1244.65" y="-515.4" font-family="Times,serif" font-size="32.00">ε_15</text>
<text text-anchor="middle" x="1244.65" y="-480.4" font-family="Times,serif" font-size="32.00">=&gt;6 3</text>
</g>
</g>
</svg>
