<?xml version="1.0" encoding="UTF-8" standalone="no"?>
<!DOCTYPE svg PUBLIC "-//W3C//DTD SVG 1.1//EN"
 "http://www.w3.org/Graphics/SVG/1.1/DTD/svg11.dtd">
<!-- Generated by graphviz version 2.47.1 (20210417.1919)
 -->
<!-- Title: G Pages: 1 -->
<svg width="1451pt" height="1148pt"
 viewBox="0.00 0.00 1451.00 1147.91" xmlns="http://www.w3.org/2000/svg" xmlns:xlink="http://www.w3.org/1999/xlink">
<g id="graph0" class="graph" transform="scale(1 1) rotate(0) translate(4 1143.91)">
<title>G</title>
<polygon fill="white" stroke="transparent" points="-4,4 -4,-1143.91 1447,-1143.91 1447,4 -4,4"/>
<text text-anchor="middle" x="721.5" y="-13.4" font-family="Times,serif" font-size="32.00">original</text>
<!-- t -->
<g id="node1" class="node">
<title>t</title>
<ellipse fill="lightgray" stroke="black" cx="27" cy="-505.91" rx="27" ry="30.31"/>
<text text-anchor="middle" x="27" y="-497.81" font-family="Times,serif" font-size="32.00">t</text>
</g>
<!-- z0 -->
<g id="node2" class="node">
<title>z0</title>
<ellipse fill="none" stroke="black" stroke-dasharray="5,2" cx="1416" cy="-528.91" rx="27" ry="18"/>
</g>
<!-- d -->
<g id="node3" class="node">
<title>d</title>
<ellipse fill="none" stroke="black" cx="1256" cy="-528.91" rx="27" ry="30.31"/>
<text text-anchor="middle" x="1256" y="-520.81" font-family="Times,serif" font-size="32.00">d</text>
</g>
<!-- z0&#45;&gt;d -->
<g id="edge1" class="edge">
<title>z0&#45;&gt;d</title>
<path fill="none" stroke="#000000" d="M1388.91,-528.91C1362.84,-528.91 1322.53,-528.91 1293.34,-528.91"/>
<polygon fill="#000000" stroke="#000000" points="1293.13,-525.41 1283.13,-528.91 1293.13,-532.41 1293.13,-525.41"/>
<text text-anchor="middle" x="1336" y="-573.31" font-family="Times,serif" font-size="32.00">Mary</text>
<text text-anchor="middle" x="1336" y="-538.31" font-family="Times,serif" font-size="32.00">d &#45;k</text>
</g>
<!-- d&#45;&gt;t -->
<g id="edge8" class="edge">
<title>d&#45;&gt;t</title>
<path fill="none" stroke="#000000" d="M1252.3,-559.44C1246.84,-615.86 1233.09,-733.83 1211,-767.91 1126.93,-897.57 1079.03,-964.91 924.5,-964.91 924.5,-964.91 924.5,-964.91 247.5,-964.91 62.88,-964.91 33.41,-658.95 28.81,-546.63"/>
<polygon fill="#000000" stroke="#000000" points="32.3,-546.24 28.44,-536.38 25.3,-546.5 32.3,-546.24"/>
<text text-anchor="middle" x="572.5" y="-1114.31" font-family="Times,serif" font-size="32.00">laughs |</text>
<text text-anchor="middle" x="572.5" y="-1079.31" font-family="Times,serif" font-size="32.00"> laughd |</text>
<text text-anchor="middle" x="572.5" y="-1044.31" font-family="Times,serif" font-size="32.00"> dances |</text>
<text text-anchor="middle" x="572.5" y="-1009.31" font-family="Times,serif" font-size="32.00"> danced</text>
<text text-anchor="middle" x="572.5" y="-974.31" font-family="Times,serif" font-size="32.00">=d +k t</text>
</g>
<!-- d&#45;&gt;t -->
<g id="edge12" class="edge">
<title>d&#45;&gt;t</title>
<path fill="none" stroke="#000000" d="M1249.83,-558.64C1244.16,-583.06 1232.8,-617.08 1211,-638.91 1114.04,-735.98 1061.71,-753.91 924.5,-753.91 924.5,-753.91 924.5,-753.91 247.5,-753.91 148,-753.91 131.61,-694.58 72,-614.91 56.42,-594.08 45.44,-566.96 38.35,-544.99"/>
<polygon fill="#000000" stroke="#000000" points="41.65,-543.82 35.36,-535.3 34.96,-545.88 41.65,-543.82"/>
<text text-anchor="middle" x="572.5" y="-903.31" font-family="Times,serif" font-size="32.00">hugs |</text>
<text text-anchor="middle" x="572.5" y="-868.31" font-family="Times,serif" font-size="32.00"> hugd |</text>
<text text-anchor="middle" x="572.5" y="-833.31" font-family="Times,serif" font-size="32.00"> praises |</text>
<text text-anchor="middle" x="572.5" y="-798.31" font-family="Times,serif" font-size="32.00"> praised</text>
<text text-anchor="middle" x="572.5" y="-763.31" font-family="Times,serif" font-size="32.00">=d *k =d +k t</text>
</g>
<!-- v -->
<g id="node4" class="node">
<title>v</title>
<ellipse fill="none" stroke="black" cx="248.5" cy="-505.91" rx="27" ry="30.31"/>
<text text-anchor="middle" x="248.5" y="-497.81" font-family="Times,serif" font-size="32.00">v</text>
</g>
<!-- d&#45;&gt;v -->
<g id="edge9" class="edge">
<title>d&#45;&gt;v</title>
<path fill="none" stroke="#000000" d="M1247.51,-557.84C1241.09,-576.24 1229.81,-598.65 1211,-609.91 1109.36,-670.71 795.58,-626.23 678,-611.91 528.69,-593.71 356.46,-541.11 284.21,-517.55"/>
<polygon fill="#000000" stroke="#000000" points="285.29,-514.22 274.7,-514.43 283.1,-520.87 285.29,-514.22"/>
<text text-anchor="middle" x="748" y="-707.31" font-family="Times,serif" font-size="32.00">laugh |</text>
<text text-anchor="middle" x="748" y="-672.31" font-family="Times,serif" font-size="32.00"> dance</text>
<text text-anchor="middle" x="748" y="-637.31" font-family="Times,serif" font-size="32.00">=d v</text>
</g>
<!-- d&#45;&gt;v -->
<g id="edge13" class="edge">
<title>d&#45;&gt;v</title>
<path fill="none" stroke="#000000" d="M1229.65,-536.3C1185.64,-548.7 1092.03,-573.21 1011,-581.91 933.67,-590.21 896.8,-630.41 836,-581.91 807.85,-559.45 846.15,-525.36 818,-502.91 769.36,-464.1 740.22,-502.69 678,-502.91 532.64,-503.41 359.55,-504.89 285.74,-505.57"/>
<polygon fill="#000000" stroke="#000000" points="285.55,-502.07 275.58,-505.66 285.62,-509.07 285.55,-502.07"/>
<text text-anchor="middle" x="748" y="-582.31" font-family="Times,serif" font-size="32.00">hug |</text>
<text text-anchor="middle" x="748" y="-547.31" font-family="Times,serif" font-size="32.00"> praise</text>
<text text-anchor="middle" x="748" y="-512.31" font-family="Times,serif" font-size="32.00">=d *k =d v</text>
</g>
<!-- perf -->
<g id="node5" class="node">
<title>perf</title>
<ellipse fill="none" stroke="black" cx="572.5" cy="-352.91" rx="48.17" ry="30.31"/>
<text text-anchor="middle" x="572.5" y="-344.81" font-family="Times,serif" font-size="32.00">perf</text>
</g>
<!-- d&#45;&gt;perf -->
<g id="edge11" class="edge">
<title>d&#45;&gt;perf</title>
<path fill="none" stroke="#000000" d="M1229.36,-523.46C1163.66,-509.39 984.03,-470.17 836,-430.91 762.61,-411.44 678.63,-385.9 625.83,-369.45"/>
<polygon fill="#000000" stroke="#000000" points="626.61,-366.02 616.02,-366.38 624.52,-372.71 626.61,-366.02"/>
<text text-anchor="middle" x="923.5" y="-553.31" font-family="Times,serif" font-size="32.00">laughn |</text>
<text text-anchor="middle" x="923.5" y="-518.31" font-family="Times,serif" font-size="32.00"> dancen</text>
<text text-anchor="middle" x="923.5" y="-483.31" font-family="Times,serif" font-size="32.00">=d perf</text>
</g>
<!-- d&#45;&gt;perf -->
<g id="edge15" class="edge">
<title>d&#45;&gt;perf</title>
<path fill="none" stroke="#000000" d="M1238.06,-505.9C1202.34,-459.69 1114.07,-356.99 1011,-321.91 941.92,-298.39 731.04,-327.46 629.41,-343.56"/>
<polygon fill="#000000" stroke="#000000" points="628.66,-340.14 619.34,-345.17 629.77,-347.05 628.66,-340.14"/>
<text text-anchor="middle" x="923.5" y="-401.31" font-family="Times,serif" font-size="32.00">hugn |</text>
<text text-anchor="middle" x="923.5" y="-366.31" font-family="Times,serif" font-size="32.00"> praisen</text>
<text text-anchor="middle" x="923.5" y="-331.31" font-family="Times,serif" font-size="32.00">=d *k =d perf</text>
</g>
<!-- prog -->
<g id="node6" class="node">
<title>prog</title>
<ellipse fill="none" stroke="black" cx="923.5" cy="-202.91" rx="52.15" ry="30.31"/>
<text text-anchor="middle" x="923.5" y="-194.81" font-family="Times,serif" font-size="32.00">prog</text>
</g>
<!-- d&#45;&gt;prog -->
<g id="edge10" class="edge">
<title>d&#45;&gt;prog</title>
<path fill="none" stroke="#000000" d="M1255.7,-498.33C1256.67,-424.94 1254.56,-242.1 1211,-203.91 1178.58,-175.48 1058.7,-185.09 984.67,-194.26"/>
<polygon fill="#000000" stroke="#000000" points="984.02,-190.82 974.55,-195.55 984.91,-197.76 984.02,-190.82"/>
<text text-anchor="middle" x="1120" y="-283.31" font-family="Times,serif" font-size="32.00">laughing |</text>
<text text-anchor="middle" x="1120" y="-248.31" font-family="Times,serif" font-size="32.00"> danceing</text>
<text text-anchor="middle" x="1120" y="-213.31" font-family="Times,serif" font-size="32.00">=d prog</text>
</g>
<!-- d&#45;&gt;prog -->
<g id="edge14" class="edge">
<title>d&#45;&gt;prog</title>
<path fill="none" stroke="#000000" d="M1254.35,-498.35C1251.97,-401.37 1242.2,-105.22 1211,-76.91 1151.1,-22.55 1102.21,-42.51 1029,-76.91 990.65,-94.92 961.53,-134.68 943.89,-164.75"/>
<polygon fill="#000000" stroke="#000000" points="940.68,-163.32 938.79,-173.74 946.77,-166.77 940.68,-163.32"/>
<text text-anchor="middle" x="1120" y="-156.31" font-family="Times,serif" font-size="32.00">huging |</text>
<text text-anchor="middle" x="1120" y="-121.31" font-family="Times,serif" font-size="32.00"> praiseing</text>
<text text-anchor="middle" x="1120" y="-86.31" font-family="Times,serif" font-size="32.00">=d *k =d prog</text>
</g>
<!-- v&#45;&gt;t -->
<g id="edge2" class="edge">
<title>v&#45;&gt;t</title>
<path fill="none" stroke="#000000" d="M221.46,-505.91C182.35,-505.91 108.32,-505.91 64.05,-505.91"/>
<polygon fill="#000000" stroke="#000000" points="64.01,-502.41 54.01,-505.91 64.01,-509.41 64.01,-502.41"/>
<text text-anchor="middle" x="119" y="-585.31" font-family="Times,serif" font-size="32.00">wills |</text>
<text text-anchor="middle" x="119" y="-550.31" font-family="Times,serif" font-size="32.00"> willd</text>
<text text-anchor="middle" x="119" y="-515.31" font-family="Times,serif" font-size="32.00">=v +k t</text>
</g>
<!-- perf&#45;&gt;t -->
<g id="edge3" class="edge">
<title>perf&#45;&gt;t</title>
<path fill="none" stroke="#000000" d="M526.45,-344.03C452.01,-331.49 300.03,-314.98 184,-361.91 126.74,-385.06 77.61,-439.6 50.49,-474.52"/>
<polygon fill="#000000" stroke="#000000" points="47.67,-472.43 44.4,-482.51 53.24,-476.68 47.67,-472.43"/>
<text text-anchor="middle" x="248.5" y="-441.31" font-family="Times,serif" font-size="32.00">haves |</text>
<text text-anchor="middle" x="248.5" y="-406.31" font-family="Times,serif" font-size="32.00"> haved</text>
<text text-anchor="middle" x="248.5" y="-371.31" font-family="Times,serif" font-size="32.00">=perf +k t</text>
</g>
<!-- perf&#45;&gt;v -->
<g id="edge4" class="edge">
<title>perf&#45;&gt;v</title>
<path fill="none" stroke="#000000" d="M526.01,-361.22C464.79,-373.19 360.18,-396.63 331,-421.91 316.26,-434.67 325.47,-446.92 313,-461.91 304.4,-472.24 292.81,-481.22 281.88,-488.33"/>
<polygon fill="#000000" stroke="#000000" points="279.99,-485.39 273.32,-493.62 283.67,-491.34 279.99,-485.39"/>
<text text-anchor="middle" x="399" y="-466.31" font-family="Times,serif" font-size="32.00">have</text>
<text text-anchor="middle" x="399" y="-431.31" font-family="Times,serif" font-size="32.00">=perf v</text>
</g>
<!-- prog&#45;&gt;t -->
<g id="edge5" class="edge">
<title>prog&#45;&gt;t</title>
<path fill="none" stroke="#000000" d="M879.61,-186.02C779.8,-149.36 525.63,-71.42 331,-143.91 188.38,-197.02 155.81,-240.87 72,-367.91 52.24,-397.85 40.84,-437.29 34.62,-466.33"/>
<polygon fill="#000000" stroke="#000000" points="31.19,-465.64 32.63,-476.13 38.05,-467.03 31.19,-465.64"/>
<text text-anchor="middle" x="399" y="-223.31" font-family="Times,serif" font-size="32.00">bes |</text>
<text text-anchor="middle" x="399" y="-188.31" font-family="Times,serif" font-size="32.00"> bed</text>
<text text-anchor="middle" x="399" y="-153.31" font-family="Times,serif" font-size="32.00">=prog +k t</text>
</g>
<!-- prog&#45;&gt;v -->
<g id="edge6" class="edge">
<title>prog&#45;&gt;v</title>
<path fill="none" stroke="#000000" d="M871.74,-197.66C787.47,-191.08 615.1,-186.79 485,-243.91 403.51,-279.68 375.88,-295.05 331,-371.91 308.45,-410.52 339.11,-434.6 313,-470.91 305.84,-480.86 294.93,-488.31 284.16,-493.72"/>
<polygon fill="#000000" stroke="#000000" points="282.49,-490.63 274.83,-497.96 285.38,-497.01 282.49,-490.63"/>
<text text-anchor="middle" x="572.5" y="-288.31" font-family="Times,serif" font-size="32.00">be</text>
<text text-anchor="middle" x="572.5" y="-253.31" font-family="Times,serif" font-size="32.00">=prog v</text>
</g>
<!-- prog&#45;&gt;perf -->
<g id="edge7" class="edge">
<title>prog&#45;&gt;perf</title>
<path fill="none" stroke="#000000" d="M872.11,-208.86C802.8,-217.24 685.69,-232.12 678,-237.91 662.42,-249.63 671.64,-262.26 660,-277.91 647.17,-295.15 629.74,-311.21 613.89,-324.01"/>
<polygon fill="#000000" stroke="#000000" points="611.47,-321.46 605.78,-330.39 615.8,-326.96 611.47,-321.46"/>
<text text-anchor="middle" x="748" y="-282.31" font-family="Times,serif" font-size="32.00">ben</text>
<text text-anchor="middle" x="748" y="-247.31" font-family="Times,serif" font-size="32.00">=prog perf</text>
</g>
</g>
</svg>
