<?xml version="1.0" encoding="UTF-8" standalone="no"?>
<!DOCTYPE svg PUBLIC "-//W3C//DTD SVG 1.1//EN"
 "http://www.w3.org/Graphics/SVG/1.1/DTD/svg11.dtd">
<!-- Generated by graphviz version 2.47.1 (20210417.1919)
 -->
<!-- Title: G Pages: 1 -->
<svg width="1612pt" height="1092pt"
 viewBox="0.00 0.00 1612.00 1092.00" xmlns="http://www.w3.org/2000/svg" xmlns:xlink="http://www.w3.org/1999/xlink">
<g id="graph0" class="graph" transform="scale(1 1) rotate(0) translate(4 1088)">
<title>G</title>
<polygon fill="white" stroke="transparent" points="-4,4 -4,-1088 1608,-1088 1608,4 -4,4"/>
<text text-anchor="middle" x="802" y="-13.4" font-family="Times,serif" font-size="32.00">single contraction: 0 → v</text>
<!-- t -->
<g id="node1" class="node">
<title>t</title>
<ellipse fill="lightgray" stroke="black" cx="27" cy="-606" rx="27" ry="30.31"/>
<text text-anchor="middle" x="27" y="-597.9" font-family="Times,serif" font-size="32.00">t</text>
</g>
<!-- z0 -->
<g id="node2" class="node">
<title>z0</title>
<ellipse fill="none" stroke="black" stroke-dasharray="5,2" cx="1577" cy="-588" rx="27" ry="18"/>
</g>
<!-- d -->
<g id="node3" class="node">
<title>d</title>
<ellipse fill="none" stroke="black" cx="1417" cy="-588" rx="27" ry="30.31"/>
<text text-anchor="middle" x="1417" y="-579.9" font-family="Times,serif" font-size="32.00">d</text>
</g>
<!-- z0&#45;&gt;d -->
<g id="edge1" class="edge">
<title>z0&#45;&gt;d</title>
<path fill="none" stroke="#000000" d="M1549.91,-588C1523.84,-588 1483.53,-588 1454.34,-588"/>
<polygon fill="#000000" stroke="#000000" points="1454.13,-584.5 1444.13,-588 1454.13,-591.5 1454.13,-584.5"/>
<text text-anchor="middle" x="1497" y="-632.4" font-family="Times,serif" font-size="32.00">Mary</text>
<text text-anchor="middle" x="1497" y="-597.4" font-family="Times,serif" font-size="32.00">d &#45;k</text>
</g>
<!-- d&#45;&gt;t -->
<g id="edge8" class="edge">
<title>d&#45;&gt;t</title>
<path fill="none" stroke="#000000" d="M1407.36,-616.49C1381.6,-695.05 1297.43,-909 1145,-909 1145,-909 1145,-909 286,-909 159.69,-909 144.11,-825.7 72,-722 55.86,-698.79 44.71,-668.89 37.66,-645.26"/>
<polygon fill="#000000" stroke="#000000" points="41.01,-644.21 34.9,-635.55 34.27,-646.13 41.01,-644.21"/>
<text text-anchor="middle" x="716" y="-1058.4" font-family="Times,serif" font-size="32.00">laughs |</text>
<text text-anchor="middle" x="716" y="-1023.4" font-family="Times,serif" font-size="32.00"> laughd |</text>
<text text-anchor="middle" x="716" y="-988.4" font-family="Times,serif" font-size="32.00"> dances |</text>
<text text-anchor="middle" x="716" y="-953.4" font-family="Times,serif" font-size="32.00"> danced</text>
<text text-anchor="middle" x="716" y="-918.4" font-family="Times,serif" font-size="32.00">=d +k t</text>
</g>
<!-- v -->
<g id="node4" class="node">
<title>v</title>
<ellipse fill="none" stroke="black" cx="852" cy="-629" rx="27" ry="30.31"/>
<text text-anchor="middle" x="852" y="-620.9" font-family="Times,serif" font-size="32.00">v</text>
</g>
<!-- d&#45;&gt;v -->
<g id="edge9" class="edge">
<title>d&#45;&gt;v</title>
<path fill="none" stroke="#000000" d="M1396.05,-607.22C1388.86,-613.46 1380.43,-620.05 1372,-625 1307.23,-663.04 1287.88,-671.44 1214,-685 1094.68,-706.89 952.14,-664.81 887.69,-642.13"/>
<polygon fill="#000000" stroke="#000000" points="888.62,-638.75 878.03,-638.67 886.26,-645.34 888.62,-638.75"/>
<text text-anchor="middle" x="1144" y="-770.4" font-family="Times,serif" font-size="32.00">laugh |</text>
<text text-anchor="middle" x="1144" y="-735.4" font-family="Times,serif" font-size="32.00"> dance</text>
<text text-anchor="middle" x="1144" y="-700.4" font-family="Times,serif" font-size="32.00">=d v</text>
</g>
<!-- d&#45;&gt;v -->
<g id="edge13" class="edge">
<title>d&#45;&gt;v</title>
<path fill="none" stroke="#000000" d="M1389.82,-589.63C1332.54,-593.24 1191.8,-602.24 1074,-611 1008.92,-615.84 933.12,-622.16 889.34,-625.88"/>
<polygon fill="#000000" stroke="#000000" points="888.85,-622.41 879.19,-626.75 889.45,-629.39 888.85,-622.41"/>
<text text-anchor="middle" x="1144" y="-655.4" font-family="Times,serif" font-size="32.00">hug</text>
<text text-anchor="middle" x="1144" y="-620.4" font-family="Times,serif" font-size="32.00">=d *k =d v</text>
</g>
<!-- perf -->
<g id="node5" class="node">
<title>perf</title>
<ellipse fill="none" stroke="black" cx="287" cy="-516" rx="48.17" ry="30.31"/>
<text text-anchor="middle" x="287" y="-507.9" font-family="Times,serif" font-size="32.00">perf</text>
</g>
<!-- d&#45;&gt;perf -->
<g id="edge11" class="edge">
<title>d&#45;&gt;perf</title>
<path fill="none" stroke="#000000" d="M1390.01,-586.43C1290.39,-580.36 937.98,-558.41 929,-551 905.55,-531.64 935.16,-503.46 911,-485 869.32,-453.17 845.44,-484.04 793,-485 732.52,-486.11 717.42,-487.29 657,-490 530.73,-495.66 498.88,-493.55 373,-505 363.75,-505.84 353.96,-506.93 344.44,-508.09"/>
<polygon fill="#000000" stroke="#000000" points="343.74,-504.65 334.25,-509.37 344.61,-511.59 343.74,-504.65"/>
<text text-anchor="middle" x="852" y="-564.4" font-family="Times,serif" font-size="32.00">laughn |</text>
<text text-anchor="middle" x="852" y="-529.4" font-family="Times,serif" font-size="32.00"> dancen</text>
<text text-anchor="middle" x="852" y="-494.4" font-family="Times,serif" font-size="32.00">=d perf</text>
</g>
<!-- prog -->
<g id="node6" class="node">
<title>prog</title>
<ellipse fill="none" stroke="black" cx="583" cy="-374" rx="52.15" ry="30.31"/>
<text text-anchor="middle" x="583" y="-365.9" font-family="Times,serif" font-size="32.00">prog</text>
</g>
<!-- d&#45;&gt;prog -->
<g id="edge10" class="edge">
<title>d&#45;&gt;prog</title>
<path fill="none" stroke="#000000" d="M1396.03,-568.1C1344.97,-518.83 1203.25,-392.04 1056,-349 1017.59,-337.77 763.67,-358.17 644.97,-368.52"/>
<polygon fill="#000000" stroke="#000000" points="644.6,-365.04 634.94,-369.39 645.21,-372.01 644.6,-365.04"/>
<text text-anchor="middle" x="992.5" y="-428.4" font-family="Times,serif" font-size="32.00">laughing |</text>
<text text-anchor="middle" x="992.5" y="-393.4" font-family="Times,serif" font-size="32.00"> danceing</text>
<text text-anchor="middle" x="992.5" y="-358.4" font-family="Times,serif" font-size="32.00">=d prog</text>
</g>
<!-- 0 -->
<g id="node7" class="node">
<title>0</title>
<ellipse fill="none" stroke="black" cx="1144" cy="-260" rx="27" ry="30.31"/>
<text text-anchor="middle" x="1144" y="-251.9" font-family="Times,serif" font-size="32.00">0</text>
</g>
<!-- d&#45;&gt;0 -->
<g id="edge17" class="edge">
<title>d&#45;&gt;0</title>
<path fill="none" stroke="#000000" d="M1416.55,-557.44C1417.16,-485.01 1414.24,-306.16 1372,-268 1319.69,-220.74 1229.73,-235.59 1180.22,-248.84"/>
<polygon fill="#000000" stroke="#000000" points="1178.98,-245.56 1170.3,-251.63 1180.87,-252.3 1178.98,-245.56"/>
<text text-anchor="middle" x="1302" y="-312.4" font-family="Times,serif" font-size="32.00">praise</text>
<text text-anchor="middle" x="1302" y="-277.4" font-family="Times,serif" font-size="32.00">=d *k =d 0</text>
</g>
<!-- v&#45;&gt;t -->
<g id="edge2" class="edge">
<title>v&#45;&gt;t</title>
<path fill="none" stroke="#000000" d="M840.29,-656.57C828.52,-682.81 806.93,-721.04 775,-740 698.01,-785.71 461.55,-780.23 373,-767 234.65,-746.33 183.37,-759.64 72,-675 60.73,-666.44 51.57,-654.09 44.58,-642.2"/>
<polygon fill="#000000" stroke="#000000" points="47.56,-640.34 39.67,-633.27 41.42,-643.72 47.56,-640.34"/>
<text text-anchor="middle" x="441" y="-855.4" font-family="Times,serif" font-size="32.00">wills |</text>
<text text-anchor="middle" x="441" y="-820.4" font-family="Times,serif" font-size="32.00"> willd</text>
<text text-anchor="middle" x="441" y="-785.4" font-family="Times,serif" font-size="32.00">=v +k t</text>
</g>
<!-- v&#45;&gt;t -->
<g id="edge12" class="edge">
<title>v&#45;&gt;t</title>
<path fill="none" stroke="#000000" d="M826.46,-639.48C787.58,-655.46 709,-685.2 639,-696 589.8,-703.59 569.06,-722.62 527,-696 511.21,-686.01 524.66,-668.19 509,-658 346.15,-552.05 251.87,-720.44 72,-647 65.38,-644.3 59.14,-640.1 53.57,-635.41"/>
<polygon fill="#000000" stroke="#000000" points="55.62,-632.53 45.91,-628.29 50.85,-637.66 55.62,-632.53"/>
<text text-anchor="middle" x="441" y="-737.4" font-family="Times,serif" font-size="32.00">s |</text>
<text text-anchor="middle" x="441" y="-702.4" font-family="Times,serif" font-size="32.00"> d</text>
<text text-anchor="middle" x="441" y="-667.4" font-family="Times,serif" font-size="32.00">=&gt;v +k t</text>
</g>
<!-- v&#45;&gt;perf -->
<g id="edge15" class="edge">
<title>v&#45;&gt;perf</title>
<path fill="none" stroke="#000000" d="M824.6,-629.68C768.89,-630.57 635.52,-629.76 527,-606 458.12,-590.92 382.58,-559.84 335.24,-538.46"/>
<polygon fill="#000000" stroke="#000000" points="336.42,-535.15 325.87,-534.19 333.51,-541.52 336.42,-535.15"/>
<text text-anchor="middle" x="583" y="-666.4" font-family="Times,serif" font-size="32.00">n</text>
<text text-anchor="middle" x="583" y="-631.4" font-family="Times,serif" font-size="32.00">=&gt;v perf</text>
</g>
<!-- v&#45;&gt;prog -->
<g id="edge14" class="edge">
<title>v&#45;&gt;prog</title>
<path fill="none" stroke="#000000" d="M827.01,-617.08C814.68,-609.62 800.67,-598.81 793,-585 771.97,-547.15 805.67,-421.56 775,-391 757.28,-373.34 694.52,-370.56 645.72,-371.27"/>
<polygon fill="#000000" stroke="#000000" points="645.47,-367.77 635.54,-371.47 645.61,-374.77 645.47,-367.77"/>
<text text-anchor="middle" x="716" y="-435.4" font-family="Times,serif" font-size="32.00">ing</text>
<text text-anchor="middle" x="716" y="-400.4" font-family="Times,serif" font-size="32.00">=&gt;v prog</text>
</g>
<!-- perf&#45;&gt;t -->
<g id="edge3" class="edge">
<title>perf&#45;&gt;t</title>
<path fill="none" stroke="#000000" d="M239.46,-511.11C193.56,-508.59 123.06,-511.07 72,-542 60.81,-548.78 51.78,-559.62 44.88,-570.46"/>
<polygon fill="#000000" stroke="#000000" points="41.86,-568.69 39.8,-579.08 47.89,-572.24 41.86,-568.69"/>
<text text-anchor="middle" x="136.5" y="-621.4" font-family="Times,serif" font-size="32.00">haves |</text>
<text text-anchor="middle" x="136.5" y="-586.4" font-family="Times,serif" font-size="32.00"> haved</text>
<text text-anchor="middle" x="136.5" y="-551.4" font-family="Times,serif" font-size="32.00">=perf +k t</text>
</g>
<!-- perf&#45;&gt;v -->
<g id="edge4" class="edge">
<title>perf&#45;&gt;v</title>
<path fill="none" stroke="#000000" d="M334.89,-512.69C419.07,-507.69 591.49,-502.1 639,-536 656.2,-548.27 641.05,-566.15 657,-580 668.99,-590.41 762.79,-610.94 815.44,-621.83"/>
<polygon fill="#000000" stroke="#000000" points="814.88,-625.29 825.38,-623.87 816.29,-618.43 814.88,-625.29"/>
<text text-anchor="middle" x="583" y="-580.4" font-family="Times,serif" font-size="32.00">have</text>
<text text-anchor="middle" x="583" y="-545.4" font-family="Times,serif" font-size="32.00">=perf v</text>
</g>
<!-- prog&#45;&gt;t -->
<g id="edge5" class="edge">
<title>prog&#45;&gt;t</title>
<path fill="none" stroke="#000000" d="M534.16,-362.92C462.74,-348.74 325.29,-330.6 219,-372 136.34,-404.2 123.76,-434.96 72,-507 58.67,-525.55 48.08,-548.79 40.64,-568.09"/>
<polygon fill="#000000" stroke="#000000" points="37.34,-566.9 37.13,-577.49 43.9,-569.34 37.34,-566.9"/>
<text text-anchor="middle" x="287" y="-451.4" font-family="Times,serif" font-size="32.00">bes |</text>
<text text-anchor="middle" x="287" y="-416.4" font-family="Times,serif" font-size="32.00"> bed</text>
<text text-anchor="middle" x="287" y="-381.4" font-family="Times,serif" font-size="32.00">=prog +k t</text>
</g>
<!-- prog&#45;&gt;v -->
<g id="edge6" class="edge">
<title>prog&#45;&gt;v</title>
<path fill="none" stroke="#000000" d="M601.26,-402.84C614.4,-422.66 634.08,-448.31 657,-465 702.37,-498.05 737.95,-467.84 775,-510 797.63,-535.75 774.25,-556.3 793,-585 799.58,-595.07 809.27,-603.73 818.87,-610.64"/>
<polygon fill="#000000" stroke="#000000" points="816.94,-613.56 827.19,-616.25 820.85,-607.76 816.94,-613.56"/>
<text text-anchor="middle" x="716" y="-554.4" font-family="Times,serif" font-size="32.00">be</text>
<text text-anchor="middle" x="716" y="-519.4" font-family="Times,serif" font-size="32.00">=prog v</text>
</g>
<!-- prog&#45;&gt;perf -->
<g id="edge7" class="edge">
<title>prog&#45;&gt;perf</title>
<path fill="none" stroke="#000000" d="M530.67,-371.79C476.5,-370.58 395.84,-372.34 373,-392 347.02,-414.36 374,-438.47 355,-467 349.07,-475.91 340.94,-483.77 332.39,-490.45"/>
<polygon fill="#000000" stroke="#000000" points="330.13,-487.76 324.12,-496.48 334.26,-493.41 330.13,-487.76"/>
<text text-anchor="middle" x="441" y="-436.4" font-family="Times,serif" font-size="32.00">ben</text>
<text text-anchor="middle" x="441" y="-401.4" font-family="Times,serif" font-size="32.00">=prog perf</text>
</g>
<!-- 0&#45;&gt;t -->
<g id="edge16" class="edge">
<title>0&#45;&gt;t</title>
<path fill="none" stroke="#000000" d="M1124.75,-238.41C1082.32,-190.8 971.63,-81 853,-81 853,-81 853,-81 286,-81 70.38,-81 34.95,-442.1 29.14,-565.35"/>
<polygon fill="#000000" stroke="#000000" points="25.63,-565.36 28.7,-575.5 32.63,-565.66 25.63,-565.36"/>
<text text-anchor="middle" x="583" y="-160.4" font-family="Times,serif" font-size="32.00">s_1 |</text>
<text text-anchor="middle" x="583" y="-125.4" font-family="Times,serif" font-size="32.00"> d_1</text>
<text text-anchor="middle" x="583" y="-90.4" font-family="Times,serif" font-size="32.00">=&gt;0 +k t</text>
</g>
<!-- 0&#45;&gt;v -->
<g id="edge18" class="edge">
<title>0&#45;&gt;v</title>
<path fill="none" stroke="#000000" d="M1136.47,-289.54C1125.9,-331.44 1101.49,-408.53 1056,-458 1012.52,-505.28 969.74,-477.34 929,-527 911.88,-547.87 926.49,-562.9 911,-585 904.1,-594.85 894.32,-603.45 884.75,-610.38"/>
<polygon fill="#000000" stroke="#000000" points="882.76,-607.49 876.47,-616.02 886.71,-613.28 882.76,-607.49"/>
<text text-anchor="middle" x="992.5" y="-571.4" font-family="Times,serif" font-size="32.00">ε_0</text>
<text text-anchor="middle" x="992.5" y="-536.4" font-family="Times,serif" font-size="32.00">=&gt;0 v</text>
</g>
<!-- 0&#45;&gt;perf -->
<g id="edge20" class="edge">
<title>0&#45;&gt;perf</title>
<path fill="none" stroke="#000000" d="M1118.01,-251.43C1045.49,-227.84 829.23,-166.56 657,-211 517.35,-247.03 455.84,-249.94 373,-368 343.79,-409.63 384.7,-439.72 355,-481 350.63,-487.08 344.87,-492.19 338.57,-496.45"/>
<polygon fill="#000000" stroke="#000000" points="336.5,-493.62 329.72,-501.77 340.1,-499.62 336.5,-493.62"/>
<text text-anchor="middle" x="716" y="-255.4" font-family="Times,serif" font-size="32.00">n_1</text>
<text text-anchor="middle" x="716" y="-220.4" font-family="Times,serif" font-size="32.00">=&gt;0 perf</text>
</g>
<!-- 0&#45;&gt;prog -->
<g id="edge19" class="edge">
<title>0&#45;&gt;prog</title>
<path fill="none" stroke="#000000" d="M1116.79,-256.65C1057.55,-250.02 909.4,-238.72 793,-274 784.03,-276.72 783.26,-280.57 775,-285 728.64,-309.87 674.09,-334.88 635.18,-352.03"/>
<polygon fill="#000000" stroke="#000000" points="633.39,-348.99 625.64,-356.22 636.21,-355.4 633.39,-348.99"/>
<text text-anchor="middle" x="852" y="-318.4" font-family="Times,serif" font-size="32.00">ing_1</text>
<text text-anchor="middle" x="852" y="-283.4" font-family="Times,serif" font-size="32.00">=&gt;0 prog</text>
</g>
</g>
</svg>
