<?xml version="1.0" encoding="UTF-8" standalone="no"?>
<!DOCTYPE svg PUBLIC "-//W3C//DTD SVG 1.1//EN"
 "http://www.w3.org/Graphics/SVG/1.1/DTD/svg11.dtd">
<!-- Generated by graphviz version 2.47.1 (20210417.1919)
 -->
<!-- Title: G Pages: 1 -->
<svg width="1450pt" height="726pt"
 viewBox="0.00 0.00 1449.65 726.41" xmlns="http://www.w3.org/2000/svg" xmlns:xlink="http://www.w3.org/1999/xlink">
<g id="graph0" class="graph" transform="scale(1 1) rotate(0) translate(4 722.41)">
<title>G</title>
<polygon fill="white" stroke="transparent" points="-4,4 -4,-722.41 1445.65,-722.41 1445.65,4 -4,4"/>
<text text-anchor="middle" x="720.83" y="-13.4" font-family="Times,serif" font-size="32.00">decomposition: bes =prog +k t, bed =prog +k t, be =prog v, ben =prog perf</text>
<!-- t -->
<g id="node1" class="node">
<title>t</title>
<ellipse fill="lightgray" stroke="black" cx="27" cy="-401.41" rx="27" ry="30.31"/>
<text text-anchor="middle" x="27" y="-393.31" font-family="Times,serif" font-size="32.00">t</text>
</g>
<!-- z0 -->
<g id="node2" class="node">
<title>z0</title>
<ellipse fill="none" stroke="black" stroke-dasharray="5,2" cx="1414.65" cy="-340.41" rx="27" ry="18"/>
</g>
<!-- d -->
<g id="node3" class="node">
<title>d</title>
<ellipse fill="none" stroke="black" cx="1254.65" cy="-340.41" rx="27" ry="30.31"/>
<text text-anchor="middle" x="1254.65" y="-332.31" font-family="Times,serif" font-size="32.00">d</text>
</g>
<!-- z0&#45;&gt;d -->
<g id="edge1" class="edge">
<title>z0&#45;&gt;d</title>
<path fill="none" stroke="#000000" d="M1387.56,-340.41C1361.49,-340.41 1321.19,-340.41 1291.99,-340.41"/>
<polygon fill="#000000" stroke="#000000" points="1291.78,-336.91 1281.78,-340.41 1291.78,-343.91 1291.78,-336.91"/>
<text text-anchor="middle" x="1334.65" y="-384.81" font-family="Times,serif" font-size="32.00">Mary</text>
<text text-anchor="middle" x="1334.65" y="-349.81" font-family="Times,serif" font-size="32.00">d &#45;k</text>
</g>
<!-- v -->
<g id="node4" class="node">
<title>v</title>
<ellipse fill="none" stroke="black" cx="1024.65" cy="-340.41" rx="27" ry="30.31"/>
<text text-anchor="middle" x="1024.65" y="-332.31" font-family="Times,serif" font-size="32.00">v</text>
</g>
<!-- d&#45;&gt;v -->
<g id="edge10" class="edge">
<title>d&#45;&gt;v</title>
<path fill="none" stroke="#000000" d="M1236.32,-362.92C1229.02,-370.62 1219.85,-378.32 1209.65,-382.41 1151.89,-405.55 1127.41,-405.55 1069.65,-382.41 1062.64,-379.6 1056.12,-375.08 1050.35,-370.03"/>
<polygon fill="#000000" stroke="#000000" points="1052.61,-367.35 1042.98,-362.92 1047.75,-372.39 1052.61,-367.35"/>
<text text-anchor="middle" x="1139.65" y="-478.81" font-family="Times,serif" font-size="32.00">laugh |</text>
<text text-anchor="middle" x="1139.65" y="-443.81" font-family="Times,serif" font-size="32.00"> dance</text>
<text text-anchor="middle" x="1139.65" y="-408.81" font-family="Times,serif" font-size="32.00">=d v</text>
</g>
<!-- d&#45;&gt;v -->
<g id="edge13" class="edge">
<title>d&#45;&gt;v</title>
<path fill="none" stroke="#000000" d="M1243.07,-312.56C1235.98,-298.09 1225.08,-281.73 1209.65,-273.41 1154.89,-243.86 1124.41,-243.86 1069.65,-273.41 1057.36,-280.04 1047.94,-291.78 1041.03,-303.59"/>
<polygon fill="#000000" stroke="#000000" points="1037.86,-302.09 1036.23,-312.56 1044.03,-305.4 1037.86,-302.09"/>
<text text-anchor="middle" x="1139.65" y="-352.81" font-family="Times,serif" font-size="32.00">hug |</text>
<text text-anchor="middle" x="1139.65" y="-317.81" font-family="Times,serif" font-size="32.00"> praise</text>
<text text-anchor="middle" x="1139.65" y="-282.81" font-family="Times,serif" font-size="32.00">=d *k =d v</text>
</g>
<!-- v&#45;&gt;t -->
<g id="edge2" class="edge">
<title>v&#45;&gt;t</title>
<path fill="none" stroke="#000000" d="M1020.53,-370.74C1015.99,-402.26 1005.13,-451.74 979.65,-486.41 920.08,-567.45 892.91,-613.41 792.33,-613.41 792.33,-613.41 792.33,-613.41 274,-613.41 167.95,-613.41 143.79,-564.46 72,-486.41 59.42,-472.73 49.44,-454.79 42.18,-438.92"/>
<polygon fill="#000000" stroke="#000000" points="45.22,-437.13 38.02,-429.36 38.8,-439.92 45.22,-437.13"/>
<text text-anchor="middle" x="535" y="-692.81" font-family="Times,serif" font-size="32.00">wills |</text>
<text text-anchor="middle" x="535" y="-657.81" font-family="Times,serif" font-size="32.00"> willd</text>
<text text-anchor="middle" x="535" y="-622.81" font-family="Times,serif" font-size="32.00">=v +k t</text>
</g>
<!-- v&#45;&gt;t -->
<g id="edge9" class="edge">
<title>v&#45;&gt;t</title>
<path fill="none" stroke="#000000" d="M1004.44,-360.74C967.28,-397.77 881.34,-472.41 792.33,-472.41 792.33,-472.41 792.33,-472.41 274,-472.41 184.01,-472.41 151.35,-500.86 72,-458.41 62.23,-453.18 53.95,-444.73 47.29,-435.93"/>
<polygon fill="#000000" stroke="#000000" points="50,-433.69 41.42,-427.47 44.25,-437.68 50,-433.69"/>
<text text-anchor="middle" x="535" y="-551.81" font-family="Times,serif" font-size="32.00">s_1 |</text>
<text text-anchor="middle" x="535" y="-516.81" font-family="Times,serif" font-size="32.00"> d_1</text>
<text text-anchor="middle" x="535" y="-481.81" font-family="Times,serif" font-size="32.00">=&gt;v +k t</text>
</g>
<!-- perf -->
<g id="node5" class="node">
<title>perf</title>
<ellipse fill="none" stroke="black" cx="275" cy="-335.41" rx="48.17" ry="30.31"/>
<text text-anchor="middle" x="275" y="-327.31" font-family="Times,serif" font-size="32.00">perf</text>
</g>
<!-- v&#45;&gt;perf -->
<g id="edge12" class="edge">
<title>v&#45;&gt;perf</title>
<path fill="none" stroke="#000000" d="M997.38,-343.31C944.93,-348.94 823.46,-361.18 721,-365.41 581,-371.18 416.58,-353.8 332.21,-343.12"/>
<polygon fill="#000000" stroke="#000000" points="332.45,-339.62 322.08,-341.82 331.55,-346.56 332.45,-339.62"/>
<text text-anchor="middle" x="665" y="-410.81" font-family="Times,serif" font-size="32.00">n_1</text>
<text text-anchor="middle" x="665" y="-375.81" font-family="Times,serif" font-size="32.00">=&gt;v perf</text>
</g>
<!-- prog -->
<g id="node7" class="node">
<title>prog</title>
<ellipse fill="none" stroke="black" cx="791.33" cy="-111.41" rx="52.15" ry="30.31"/>
<text text-anchor="middle" x="791.33" y="-103.31" font-family="Times,serif" font-size="32.00">prog</text>
</g>
<!-- v&#45;&gt;prog -->
<g id="edge11" class="edge">
<title>v&#45;&gt;prog</title>
<path fill="none" stroke="#000000" d="M1022.38,-309.85C1019.34,-253.62 1009.51,-137.19 979.65,-112.41 943.47,-82.38 888.41,-85.95 847.33,-94.74"/>
<polygon fill="#000000" stroke="#000000" points="846.44,-91.36 837.47,-97.01 848,-98.18 846.44,-91.36"/>
<text text-anchor="middle" x="920.65" y="-156.81" font-family="Times,serif" font-size="32.00">ing</text>
<text text-anchor="middle" x="920.65" y="-121.81" font-family="Times,serif" font-size="32.00">=&gt;v prog</text>
</g>
<!-- perf&#45;&gt;t -->
<g id="edge3" class="edge">
<title>perf&#45;&gt;t</title>
<path fill="none" stroke="#000000" d="M227.33,-330.31C184.66,-327.73 120.93,-329.23 72,-353.41 64.06,-357.33 56.86,-363.35 50.69,-369.81"/>
<polygon fill="#000000" stroke="#000000" points="47.9,-367.68 43.93,-377.5 53.16,-372.29 47.9,-367.68"/>
<text text-anchor="middle" x="136.5" y="-432.81" font-family="Times,serif" font-size="32.00">haves |</text>
<text text-anchor="middle" x="136.5" y="-397.81" font-family="Times,serif" font-size="32.00"> haved</text>
<text text-anchor="middle" x="136.5" y="-362.81" font-family="Times,serif" font-size="32.00">=perf +k t</text>
</g>
<!-- perf&#45;&gt;v -->
<g id="edge4" class="edge">
<title>perf&#45;&gt;v</title>
<path fill="none" stroke="#000000" d="M321.13,-326.46C401.46,-311.62 574.6,-284.58 721,-295.41 818.25,-302.6 931.66,-322.61 988.04,-333.36"/>
<polygon fill="#000000" stroke="#000000" points="987.4,-336.81 997.89,-335.26 988.73,-329.93 987.4,-336.81"/>
<text text-anchor="middle" x="665" y="-339.81" font-family="Times,serif" font-size="32.00">have</text>
<text text-anchor="middle" x="665" y="-304.81" font-family="Times,serif" font-size="32.00">=perf v</text>
</g>
<!-- 0 -->
<g id="node6" class="node">
<title>0</title>
<ellipse fill="none" stroke="black" cx="535" cy="-186.41" rx="27" ry="30.31"/>
<text text-anchor="middle" x="535" y="-178.31" font-family="Times,serif" font-size="32.00">0</text>
</g>
<!-- 0&#45;&gt;t -->
<g id="edge5" class="edge">
<title>0&#45;&gt;t</title>
<path fill="none" stroke="#f7931d" stroke-width="2" d="M508.32,-180.91C453.05,-170.33 319.67,-151.49 219,-191.41 136.19,-224.24 75.1,-315.4 46.34,-366.15"/>
<polygon fill="#f7931d" stroke="#f7931d" stroke-width="2" points="43.15,-364.69 41.35,-375.13 49.27,-368.09 43.15,-364.69"/>
<text text-anchor="middle" x="275" y="-270.81" font-family="Times,serif" font-size="32.00">s |</text>
<text text-anchor="middle" x="275" y="-235.81" font-family="Times,serif" font-size="32.00"> d</text>
<text text-anchor="middle" x="275" y="-200.81" font-family="Times,serif" font-size="32.00">=&gt;0 +k t</text>
</g>
<!-- 0&#45;&gt;v -->
<g id="edge7" class="edge">
<title>0&#45;&gt;v</title>
<path fill="none" stroke="#f7931d" stroke-width="2" d="M562.13,-185.02C615.96,-182.9 742.64,-181.73 843.65,-210.41 909.05,-228.97 927.95,-236.26 979.65,-280.41 988.45,-287.92 996.48,-297.52 1003.2,-306.83"/>
<polygon fill="#f7931d" stroke="#f7931d" stroke-width="2" points="1000.43,-308.98 1008.99,-315.23 1006.2,-305.01 1000.43,-308.98"/>
<text text-anchor="middle" x="791.33" y="-254.81" font-family="Times,serif" font-size="32.00">ε_0</text>
<text text-anchor="middle" x="791.33" y="-219.81" font-family="Times,serif" font-size="32.00">=&gt;0 v</text>
</g>
<!-- 0&#45;&gt;perf -->
<g id="edge8" class="edge">
<title>0&#45;&gt;perf</title>
<path fill="none" stroke="#f7931d" stroke-width="2" d="M507.66,-186.27C462.23,-186.6 371.82,-189.89 349,-210.41 323.5,-233.32 348.46,-255.9 331,-285.41 326.65,-292.75 320.88,-299.64 314.72,-305.81"/>
<polygon fill="#f7931d" stroke="#f7931d" stroke-width="2" points="312.25,-303.32 307.35,-312.72 317.04,-308.43 312.25,-303.32"/>
<text text-anchor="middle" x="405" y="-254.81" font-family="Times,serif" font-size="32.00">n</text>
<text text-anchor="middle" x="405" y="-219.81" font-family="Times,serif" font-size="32.00">=&gt;0 perf</text>
</g>
<!-- prog&#45;&gt;0 -->
<g id="edge6" class="edge">
<title>prog&#45;&gt;0</title>
<path fill="none" stroke="#f7931d" stroke-width="2" d="M741.34,-101.81C703.65,-96.71 651.06,-94.68 609,-112.41 588.47,-121.06 570.76,-138.58 557.93,-154.4"/>
<polygon fill="#f7931d" stroke="#f7931d" stroke-width="2" points="555.04,-152.42 551.67,-162.47 560.57,-156.71 555.04,-152.42"/>
<text text-anchor="middle" x="665" y="-156.81" font-family="Times,serif" font-size="32.00">be</text>
<text text-anchor="middle" x="665" y="-121.81" font-family="Times,serif" font-size="32.00">=prog 0</text>
</g>
</g>
</svg>
