<?xml version="1.0" encoding="UTF-8" standalone="no"?>
<!DOCTYPE svg PUBLIC "-//W3C//DTD SVG 1.1//EN"
 "http://www.w3.org/Graphics/SVG/1.1/DTD/svg11.dtd">
<!-- Generated by graphviz version 2.47.1 (20210417.1919)
 -->
<!-- Title: G Pages: 1 -->
<svg width="937pt" height="695pt"
 viewBox="0.00 0.00 937.00 694.80" xmlns="http://www.w3.org/2000/svg" xmlns:xlink="http://www.w3.org/1999/xlink">
<g id="graph0" class="graph" transform="scale(1 1) rotate(0) translate(4 690.8)">
<title>G</title>
<polygon fill="white" stroke="transparent" points="-4,4 -4,-690.8 933,-690.8 933,4 -4,4"/>
<text text-anchor="middle" x="464.5" y="-13.4" font-family="Times,serif" font-size="32.00">single contraction: 0 → v</text>
<!-- t -->
<g id="node1" class="node">
<title>t</title>
<ellipse fill="lightgray" stroke="black" cx="27" cy="-462.8" rx="27" ry="30.31"/>
<text text-anchor="middle" x="27" y="-454.7" font-family="Times,serif" font-size="32.00">t</text>
</g>
<!-- z0 -->
<g id="node2" class="node">
<title>z0</title>
<ellipse fill="none" stroke="black" stroke-dasharray="5,2" cx="902" cy="-330.8" rx="27" ry="18"/>
</g>
<!-- d -->
<g id="node3" class="node">
<title>d</title>
<ellipse fill="none" stroke="black" cx="742" cy="-330.8" rx="27" ry="30.31"/>
<text text-anchor="middle" x="742" y="-322.7" font-family="Times,serif" font-size="32.00">d</text>
</g>
<!-- z0&#45;&gt;d -->
<g id="edge1" class="edge">
<title>z0&#45;&gt;d</title>
<path fill="none" stroke="#000000" d="M874.91,-330.8C848.84,-330.8 808.53,-330.8 779.34,-330.8"/>
<polygon fill="#000000" stroke="#000000" points="779.13,-327.3 769.13,-330.8 779.13,-334.3 779.13,-327.3"/>
<text text-anchor="middle" x="822" y="-375.2" font-family="Times,serif" font-size="32.00">Mary</text>
<text text-anchor="middle" x="822" y="-340.2" font-family="Times,serif" font-size="32.00">d &#45;k</text>
</g>
<!-- v -->
<g id="node4" class="node">
<title>v</title>
<ellipse fill="none" stroke="black" cx="512" cy="-330.8" rx="27" ry="30.31"/>
<text text-anchor="middle" x="512" y="-322.7" font-family="Times,serif" font-size="32.00">v</text>
</g>
<!-- d&#45;&gt;v -->
<g id="edge8" class="edge">
<title>d&#45;&gt;v</title>
<path fill="none" stroke="#000000" d="M723.67,-353.32C716.37,-361.02 707.19,-368.72 697,-372.8 639.24,-395.94 614.76,-395.94 557,-372.8 549.99,-369.99 543.46,-365.48 537.7,-360.43"/>
<polygon fill="#000000" stroke="#000000" points="539.96,-357.74 530.33,-353.32 535.1,-362.78 539.96,-357.74"/>
<text text-anchor="middle" x="627" y="-470.2" font-family="Times,serif" font-size="32.00">laugh |</text>
<text text-anchor="middle" x="627" y="-435.2" font-family="Times,serif" font-size="32.00"> dance</text>
<text text-anchor="middle" x="627" y="-400.2" font-family="Times,serif" font-size="32.00">=d v</text>
</g>
<!-- d&#45;&gt;v -->
<g id="edge10" class="edge">
<title>d&#45;&gt;v</title>
<path fill="none" stroke="#000000" d="M730.42,-302.96C723.33,-288.49 712.43,-272.13 697,-263.8 642.24,-234.25 611.76,-234.25 557,-263.8 544.7,-270.44 535.28,-282.17 528.38,-293.99"/>
<polygon fill="#000000" stroke="#000000" points="525.21,-292.49 523.58,-302.96 531.38,-295.79 525.21,-292.49"/>
<text text-anchor="middle" x="627" y="-343.2" font-family="Times,serif" font-size="32.00">hug |</text>
<text text-anchor="middle" x="627" y="-308.2" font-family="Times,serif" font-size="32.00"> praise</text>
<text text-anchor="middle" x="627" y="-273.2" font-family="Times,serif" font-size="32.00">=d *k =d v</text>
</g>
<!-- v&#45;&gt;t -->
<g id="edge2" class="edge">
<title>v&#45;&gt;t</title>
<path fill="none" stroke="#000000" d="M507.78,-361.06C503.16,-392.52 492.24,-441.96 467,-476.8 423.75,-536.51 401.33,-549.67 331,-571.8 283.52,-586.74 267.11,-584.56 219,-571.8 156.65,-555.26 93.4,-513.08 57.6,-486.3"/>
<polygon fill="#000000" stroke="#000000" points="59.62,-483.43 49.54,-480.18 55.39,-489.01 59.62,-483.43"/>
<text text-anchor="middle" x="275" y="-661.2" font-family="Times,serif" font-size="32.00">wills |</text>
<text text-anchor="middle" x="275" y="-626.2" font-family="Times,serif" font-size="32.00"> willd</text>
<text text-anchor="middle" x="275" y="-591.2" font-family="Times,serif" font-size="32.00">=v +k t</text>
</g>
<!-- v&#45;&gt;t -->
<g id="edge5" class="edge">
<title>v&#45;&gt;t</title>
<path fill="none" stroke="#000000" d="M507.33,-361.16C502.57,-386.14 491.71,-420.21 467,-437.8 434.56,-460.9 163.38,-462.95 64.17,-462.92"/>
<polygon fill="#000000" stroke="#000000" points="64.04,-459.42 54.03,-462.91 64.03,-466.42 64.04,-459.42"/>
<text text-anchor="middle" x="275" y="-540.2" font-family="Times,serif" font-size="32.00">s |</text>
<text text-anchor="middle" x="275" y="-505.2" font-family="Times,serif" font-size="32.00"> d</text>
<text text-anchor="middle" x="275" y="-470.2" font-family="Times,serif" font-size="32.00">=&gt;v +k t</text>
</g>
<!-- perf -->
<g id="node5" class="node">
<title>perf</title>
<ellipse fill="none" stroke="black" cx="275" cy="-342.8" rx="48.17" ry="30.31"/>
<text text-anchor="middle" x="275" y="-334.7" font-family="Times,serif" font-size="32.00">perf</text>
</g>
<!-- v&#45;&gt;perf -->
<g id="edge7" class="edge">
<title>v&#45;&gt;perf</title>
<path fill="none" stroke="#000000" d="M488.68,-346.42C482.01,-350.25 474.47,-353.82 467,-355.8 421.87,-367.73 368.77,-362.65 330.03,-355.64"/>
<polygon fill="#000000" stroke="#000000" points="330.48,-352.17 320,-353.73 329.17,-359.04 330.48,-352.17"/>
<text text-anchor="middle" x="408" y="-408.2" font-family="Times,serif" font-size="32.00">n</text>
<text text-anchor="middle" x="408" y="-373.2" font-family="Times,serif" font-size="32.00">=&gt;v perf</text>
</g>
<!-- prog -->
<g id="node6" class="node">
<title>prog</title>
<ellipse fill="none" stroke="black" cx="275" cy="-145.8" rx="52.15" ry="30.31"/>
<text text-anchor="middle" x="275" y="-137.7" font-family="Times,serif" font-size="32.00">prog</text>
</g>
<!-- v&#45;&gt;prog -->
<g id="edge9" class="edge">
<title>v&#45;&gt;prog</title>
<path fill="none" stroke="#000000" d="M509.24,-300.38C505.82,-270.05 495.86,-224.26 467,-197.8 427.27,-161.37 400.87,-184.45 349,-169.8 342.93,-168.09 336.62,-166.19 330.36,-164.23"/>
<polygon fill="#000000" stroke="#000000" points="331.19,-160.82 320.6,-161.13 329.07,-167.49 331.19,-160.82"/>
<text text-anchor="middle" x="408" y="-242.2" font-family="Times,serif" font-size="32.00">ing</text>
<text text-anchor="middle" x="408" y="-207.2" font-family="Times,serif" font-size="32.00">=&gt;v prog</text>
</g>
<!-- perf&#45;&gt;t -->
<g id="edge3" class="edge">
<title>perf&#45;&gt;t</title>
<path fill="none" stroke="#000000" d="M231.12,-329.93C187.07,-319.47 118.54,-311.22 72,-343.8 46.8,-361.44 36,-395.25 31.39,-422.34"/>
<polygon fill="#000000" stroke="#000000" points="27.91,-421.94 29.91,-432.34 34.83,-422.96 27.91,-421.94"/>
<text text-anchor="middle" x="136.5" y="-423.2" font-family="Times,serif" font-size="32.00">haves |</text>
<text text-anchor="middle" x="136.5" y="-388.2" font-family="Times,serif" font-size="32.00"> haved</text>
<text text-anchor="middle" x="136.5" y="-353.2" font-family="Times,serif" font-size="32.00">=perf +k t</text>
</g>
<!-- perf&#45;&gt;v -->
<g id="edge4" class="edge">
<title>perf&#45;&gt;v</title>
<path fill="none" stroke="#000000" d="M300.47,-316.95C313.57,-305 330.76,-292.08 349,-285.8 398.59,-268.73 418.66,-265.46 467,-285.8 474.51,-288.96 481.37,-294.09 487.33,-299.78"/>
<polygon fill="#000000" stroke="#000000" points="484.95,-302.36 494.38,-307.18 490.02,-297.53 484.95,-302.36"/>
<text text-anchor="middle" x="408" y="-330.2" font-family="Times,serif" font-size="32.00">have</text>
<text text-anchor="middle" x="408" y="-295.2" font-family="Times,serif" font-size="32.00">=perf v</text>
</g>
<!-- prog&#45;&gt;v -->
<g id="edge6" class="edge">
<title>prog&#45;&gt;v</title>
<path fill="none" stroke="#000000" d="M306.46,-121.22C318.89,-112.69 333.89,-104.16 349,-99.8 399.39,-85.25 426.6,-66.37 467,-99.8 495.63,-123.49 505.79,-230.33 509.27,-290.06"/>
<polygon fill="#000000" stroke="#000000" points="505.79,-290.48 509.83,-300.28 512.78,-290.1 505.79,-290.48"/>
<text text-anchor="middle" x="408" y="-144.2" font-family="Times,serif" font-size="32.00">be</text>
<text text-anchor="middle" x="408" y="-109.2" font-family="Times,serif" font-size="32.00">=prog v</text>
</g>
</g>
</svg>
