<?xml version="1.0" encoding="UTF-8" standalone="no"?>
<!DOCTYPE svg PUBLIC "-//W3C//DTD SVG 1.1//EN"
 "http://www.w3.org/Graphics/SVG/1.1/DTD/svg11.dtd">
<!-- Generated by graphviz version 2.47.1 (20210417.1919)
 -->
<!-- Title: G Pages: 1 -->
<svg width="711pt" height="708pt"
 viewBox="0.00 0.00 710.65 707.98" xmlns="http://www.w3.org/2000/svg" xmlns:xlink="http://www.w3.org/1999/xlink">
<g id="graph0" class="graph" transform="scale(1 1) rotate(0) translate(4 703.98)">
<title>G</title>
<polygon fill="white" stroke="transparent" points="-4,4 -4,-703.98 706.65,-703.98 706.65,4 -4,4"/>
<text text-anchor="middle" x="351.33" y="-13.4" font-family="Times,serif" font-size="32.00">single contraction: 0 → v</text>
<!-- t -->
<g id="node1" class="node">
<title>t</title>
<ellipse fill="lightgray" stroke="black" cx="52.33" cy="-534.98" rx="27" ry="30.31"/>
<text text-anchor="middle" x="52.33" y="-526.88" font-family="Times,serif" font-size="32.00">t</text>
</g>
<!-- z0 -->
<g id="node2" class="node">
<title>z0</title>
<ellipse fill="none" stroke="black" stroke-dasharray="5,2" cx="675.65" cy="-330.98" rx="27" ry="18"/>
</g>
<!-- d -->
<g id="node3" class="node">
<title>d</title>
<ellipse fill="none" stroke="black" cx="515.65" cy="-330.98" rx="27" ry="30.31"/>
<text text-anchor="middle" x="515.65" y="-322.88" font-family="Times,serif" font-size="32.00">d</text>
</g>
<!-- z0&#45;&gt;d -->
<g id="edge1" class="edge">
<title>z0&#45;&gt;d</title>
<path fill="none" stroke="#000000" d="M648.56,-330.98C622.49,-330.98 582.19,-330.98 552.99,-330.98"/>
<polygon fill="#000000" stroke="#000000" points="552.78,-327.48 542.78,-330.98 552.78,-334.48 552.78,-327.48"/>
<text text-anchor="middle" x="595.65" y="-375.38" font-family="Times,serif" font-size="32.00">Mary</text>
<text text-anchor="middle" x="595.65" y="-340.38" font-family="Times,serif" font-size="32.00">d &#45;k</text>
</g>
<!-- v -->
<g id="node4" class="node">
<title>v</title>
<ellipse fill="none" stroke="black" cx="285.65" cy="-330.98" rx="27" ry="30.31"/>
<text text-anchor="middle" x="285.65" y="-322.88" font-family="Times,serif" font-size="32.00">v</text>
</g>
<!-- d&#45;&gt;v -->
<g id="edge7" class="edge">
<title>d&#45;&gt;v</title>
<path fill="none" stroke="#000000" d="M497.32,-353.5C490.02,-361.2 480.85,-368.9 470.65,-372.98 412.89,-396.12 388.41,-396.12 330.65,-372.98 323.64,-370.17 317.12,-365.66 311.35,-360.61"/>
<polygon fill="#000000" stroke="#000000" points="313.61,-357.92 303.98,-353.5 308.75,-362.96 313.61,-357.92"/>
<text text-anchor="middle" x="400.65" y="-470.38" font-family="Times,serif" font-size="32.00">laugh |</text>
<text text-anchor="middle" x="400.65" y="-435.38" font-family="Times,serif" font-size="32.00"> dance</text>
<text text-anchor="middle" x="400.65" y="-400.38" font-family="Times,serif" font-size="32.00">=d v</text>
</g>
<!-- d&#45;&gt;v -->
<g id="edge9" class="edge">
<title>d&#45;&gt;v</title>
<path fill="none" stroke="#000000" d="M504.07,-303.14C496.98,-288.67 486.08,-272.31 470.65,-263.98 415.89,-234.43 385.41,-234.43 330.65,-263.98 318.36,-270.62 308.94,-282.35 302.03,-294.17"/>
<polygon fill="#000000" stroke="#000000" points="298.86,-292.67 297.23,-303.14 305.03,-295.97 298.86,-292.67"/>
<text text-anchor="middle" x="400.65" y="-343.38" font-family="Times,serif" font-size="32.00">hug |</text>
<text text-anchor="middle" x="400.65" y="-308.38" font-family="Times,serif" font-size="32.00"> praise</text>
<text text-anchor="middle" x="400.65" y="-273.38" font-family="Times,serif" font-size="32.00">=d *k =d v</text>
</g>
<!-- v&#45;&gt;t -->
<g id="edge2" class="edge">
<title>v&#45;&gt;t</title>
<path fill="none" stroke="#000000" d="M283.87,-361.6C281.64,-421.31 273.09,-549.83 240.65,-576.98 200.44,-610.64 173.16,-591.09 122.65,-576.98 108.72,-573.09 94.8,-565.55 83.12,-557.92"/>
<polygon fill="#000000" stroke="#000000" points="84.9,-554.9 74.67,-552.13 80.94,-560.67 84.9,-554.9"/>
<text text-anchor="middle" x="181.65" y="-674.38" font-family="Times,serif" font-size="32.00">wills |</text>
<text text-anchor="middle" x="181.65" y="-639.38" font-family="Times,serif" font-size="32.00"> willd</text>
<text text-anchor="middle" x="181.65" y="-604.38" font-family="Times,serif" font-size="32.00">=v +k t</text>
</g>
<!-- v&#45;&gt;t -->
<g id="edge3" class="edge">
<title>v&#45;&gt;t</title>
<path fill="none" stroke="#000000" d="M280.09,-360.98C274.79,-385.46 263.63,-419.13 240.65,-438.98 199.78,-474.28 169.92,-441.87 122.65,-467.98 105.75,-477.32 90,-491.84 77.8,-504.99"/>
<polygon fill="#000000" stroke="#000000" points="75.12,-502.74 71.05,-512.52 80.33,-507.41 75.12,-502.74"/>
<text text-anchor="middle" x="181.65" y="-547.38" font-family="Times,serif" font-size="32.00">s |</text>
<text text-anchor="middle" x="181.65" y="-512.38" font-family="Times,serif" font-size="32.00"> d</text>
<text text-anchor="middle" x="181.65" y="-477.38" font-family="Times,serif" font-size="32.00">=&gt;v +k t</text>
</g>
<!-- perf -->
<g id="node5" class="node">
<title>perf</title>
<ellipse fill="none" stroke="black" cx="52.33" cy="-330.98" rx="48.17" ry="30.31"/>
<text text-anchor="middle" x="52.33" y="-322.88" font-family="Times,serif" font-size="32.00">perf</text>
</g>
<!-- v&#45;&gt;perf -->
<g id="edge6" class="edge">
<title>v&#45;&gt;perf</title>
<path fill="none" stroke="#000000" d="M262.33,-346.6C255.66,-350.43 248.13,-354.01 240.65,-355.98 189.95,-369.38 174.31,-365.01 122.65,-355.98 115.96,-354.81 109.07,-353.05 102.34,-351"/>
<polygon fill="#000000" stroke="#000000" points="103.23,-347.61 92.64,-347.81 101.05,-354.26 103.23,-347.61"/>
<text text-anchor="middle" x="181.65" y="-409.38" font-family="Times,serif" font-size="32.00">n</text>
<text text-anchor="middle" x="181.65" y="-374.38" font-family="Times,serif" font-size="32.00">=&gt;v perf</text>
</g>
<!-- prog -->
<g id="node6" class="node">
<title>prog</title>
<ellipse fill="none" stroke="black" cx="52.33" cy="-145.98" rx="52.15" ry="30.31"/>
<text text-anchor="middle" x="52.33" y="-137.88" font-family="Times,serif" font-size="32.00">prog</text>
</g>
<!-- v&#45;&gt;prog -->
<g id="edge8" class="edge">
<title>v&#45;&gt;prog</title>
<path fill="none" stroke="#000000" d="M282.75,-300.55C279.21,-270.48 269.15,-225.27 240.65,-198.98 200.95,-162.37 174.45,-185.27 122.65,-169.98 117.46,-168.45 112.08,-166.76 106.72,-165.02"/>
<polygon fill="#000000" stroke="#000000" points="107.73,-161.66 97.14,-161.83 105.52,-168.31 107.73,-161.66"/>
<text text-anchor="middle" x="181.65" y="-243.38" font-family="Times,serif" font-size="32.00">ing</text>
<text text-anchor="middle" x="181.65" y="-208.38" font-family="Times,serif" font-size="32.00">=&gt;v prog</text>
</g>
<!-- perf&#45;&gt;v -->
<g id="edge4" class="edge">
<title>perf&#45;&gt;v</title>
<path fill="none" stroke="#000000" d="M82.15,-306.95C93.95,-298.6 108.21,-290.26 122.65,-285.98 172.94,-271.09 192.31,-265.64 240.65,-285.98 248.16,-289.14 255.02,-294.27 260.98,-299.96"/>
<polygon fill="#000000" stroke="#000000" points="258.6,-302.54 268.03,-307.36 263.67,-297.71 258.6,-302.54"/>
<text text-anchor="middle" x="181.65" y="-330.38" font-family="Times,serif" font-size="32.00">have</text>
<text text-anchor="middle" x="181.65" y="-295.38" font-family="Times,serif" font-size="32.00">=perf v</text>
</g>
<!-- prog&#45;&gt;v -->
<g id="edge5" class="edge">
<title>prog&#45;&gt;v</title>
<path fill="none" stroke="#000000" d="M82.75,-120.93C94.4,-112.56 108.41,-104.28 122.65,-99.98 172.86,-84.84 200.25,-66.55 240.65,-99.98 269.28,-123.67 279.45,-230.51 282.93,-290.24"/>
<polygon fill="#000000" stroke="#000000" points="279.44,-290.67 283.48,-300.46 286.43,-290.28 279.44,-290.67"/>
<text text-anchor="middle" x="181.65" y="-144.38" font-family="Times,serif" font-size="32.00">be</text>
<text text-anchor="middle" x="181.65" y="-109.38" font-family="Times,serif" font-size="32.00">=prog v</text>
</g>
</g>
</svg>
