<?xml version="1.0" encoding="UTF-8" standalone="no"?>
<!DOCTYPE svg PUBLIC "-//W3C//DTD SVG 1.1//EN"
 "http://www.w3.org/Graphics/SVG/1.1/DTD/svg11.dtd">
<!-- Generated by graphviz version 2.47.1 (20210417.1919)
 -->
<!-- Title: G Pages: 1 -->
<svg width="913pt" height="708pt"
 viewBox="0.00 0.00 912.65 707.98" xmlns="http://www.w3.org/2000/svg" xmlns:xlink="http://www.w3.org/1999/xlink">
<g id="graph0" class="graph" transform="scale(1 1) rotate(0) translate(4 703.98)">
<title>G</title>
<polygon fill="white" stroke="transparent" points="-4,4 -4,-703.98 908.65,-703.98 908.65,4 -4,4"/>
<text text-anchor="middle" x="452.33" y="-13.4" font-family="Times,serif" font-size="32.00">decomposition: wills =v +k t, s =&gt;v +k t, willd =v +k t, d =&gt;v +k t</text>
<!-- t -->
<g id="node1" class="node">
<title>t</title>
<ellipse fill="lightgray" stroke="black" cx="27" cy="-534.98" rx="27" ry="30.31"/>
<text text-anchor="middle" x="27" y="-526.88" font-family="Times,serif" font-size="32.00">t</text>
</g>
<!-- z0 -->
<g id="node2" class="node">
<title>z0</title>
<ellipse fill="none" stroke="black" stroke-dasharray="5,2" cx="877.65" cy="-330.98" rx="27" ry="18"/>
</g>
<!-- d -->
<g id="node3" class="node">
<title>d</title>
<ellipse fill="none" stroke="black" cx="717.65" cy="-330.98" rx="27" ry="30.31"/>
<text text-anchor="middle" x="717.65" y="-322.88" font-family="Times,serif" font-size="32.00">d</text>
</g>
<!-- z0&#45;&gt;d -->
<g id="edge1" class="edge">
<title>z0&#45;&gt;d</title>
<path fill="none" stroke="#000000" d="M850.56,-330.98C824.49,-330.98 784.19,-330.98 754.99,-330.98"/>
<polygon fill="#000000" stroke="#000000" points="754.78,-327.48 744.78,-330.98 754.78,-334.48 754.78,-327.48"/>
<text text-anchor="middle" x="797.65" y="-375.38" font-family="Times,serif" font-size="32.00">Mary</text>
<text text-anchor="middle" x="797.65" y="-340.38" font-family="Times,serif" font-size="32.00">d &#45;k</text>
</g>
<!-- v -->
<g id="node5" class="node">
<title>v</title>
<ellipse fill="none" stroke="black" cx="487.65" cy="-330.98" rx="27" ry="30.31"/>
<text text-anchor="middle" x="487.65" y="-322.88" font-family="Times,serif" font-size="32.00">v</text>
</g>
<!-- d&#45;&gt;v -->
<g id="edge8" class="edge">
<title>d&#45;&gt;v</title>
<path fill="none" stroke="#000000" d="M699.32,-353.5C692.02,-361.2 682.85,-368.9 672.65,-372.98 614.89,-396.12 590.41,-396.12 532.65,-372.98 525.64,-370.17 519.12,-365.66 513.35,-360.61"/>
<polygon fill="#000000" stroke="#000000" points="515.61,-357.92 505.98,-353.5 510.75,-362.96 515.61,-357.92"/>
<text text-anchor="middle" x="602.65" y="-470.38" font-family="Times,serif" font-size="32.00">laugh |</text>
<text text-anchor="middle" x="602.65" y="-435.38" font-family="Times,serif" font-size="32.00"> dance</text>
<text text-anchor="middle" x="602.65" y="-400.38" font-family="Times,serif" font-size="32.00">=d v</text>
</g>
<!-- d&#45;&gt;v -->
<g id="edge10" class="edge">
<title>d&#45;&gt;v</title>
<path fill="none" stroke="#000000" d="M706.07,-303.14C698.98,-288.67 688.08,-272.31 672.65,-263.98 617.89,-234.43 587.41,-234.43 532.65,-263.98 520.36,-270.62 510.94,-282.35 504.03,-294.17"/>
<polygon fill="#000000" stroke="#000000" points="500.86,-292.67 499.23,-303.14 507.03,-295.97 500.86,-292.67"/>
<text text-anchor="middle" x="602.65" y="-343.38" font-family="Times,serif" font-size="32.00">hug |</text>
<text text-anchor="middle" x="602.65" y="-308.38" font-family="Times,serif" font-size="32.00"> praise</text>
<text text-anchor="middle" x="602.65" y="-273.38" font-family="Times,serif" font-size="32.00">=d *k =d v</text>
</g>
<!-- 0 -->
<g id="node4" class="node">
<title>0</title>
<ellipse fill="none" stroke="black" cx="254.33" cy="-534.98" rx="27" ry="30.31"/>
<text text-anchor="middle" x="254.33" y="-526.88" font-family="Times,serif" font-size="32.00">0</text>
</g>
<!-- 0&#45;&gt;t -->
<g id="edge2" class="edge">
<title>0&#45;&gt;t</title>
<path fill="none" stroke="#f7931d" stroke-width="2" d="M227.04,-534.98C186.76,-534.98 109.66,-534.98 64.15,-534.98"/>
<polygon fill="#f7931d" stroke="#f7931d" stroke-width="2" points="64.12,-531.48 54.12,-534.98 64.12,-538.48 64.12,-531.48"/>
<text text-anchor="middle" x="128" y="-579.38" font-family="Times,serif" font-size="32.00">ε_0</text>
<text text-anchor="middle" x="128" y="-544.38" font-family="Times,serif" font-size="32.00">=&gt;0 +k t</text>
</g>
<!-- v&#45;&gt;0 -->
<g id="edge3" class="edge">
<title>v&#45;&gt;0</title>
<path fill="none" stroke="#f7931d" stroke-width="2" d="M485.87,-361.6C483.64,-421.31 475.09,-549.83 442.65,-576.98 402.44,-610.64 375.16,-591.09 324.65,-576.98 310.72,-573.09 296.8,-565.55 285.12,-557.92"/>
<polygon fill="#f7931d" stroke="#f7931d" stroke-width="2" points="286.9,-554.9 276.67,-552.13 282.94,-560.67 286.9,-554.9"/>
<text text-anchor="middle" x="383.65" y="-674.38" font-family="Times,serif" font-size="32.00">wills |</text>
<text text-anchor="middle" x="383.65" y="-639.38" font-family="Times,serif" font-size="32.00"> willd</text>
<text text-anchor="middle" x="383.65" y="-604.38" font-family="Times,serif" font-size="32.00">=v 0</text>
</g>
<!-- v&#45;&gt;0 -->
<g id="edge4" class="edge">
<title>v&#45;&gt;0</title>
<path fill="none" stroke="#f7931d" stroke-width="2" d="M482.09,-360.98C476.79,-385.46 465.63,-419.13 442.65,-438.98 401.78,-474.28 371.92,-441.87 324.65,-467.98 307.75,-477.32 292,-491.84 279.8,-504.99"/>
<polygon fill="#f7931d" stroke="#f7931d" stroke-width="2" points="277.12,-502.74 273.05,-512.52 282.33,-507.41 277.12,-502.74"/>
<text text-anchor="middle" x="383.65" y="-547.38" font-family="Times,serif" font-size="32.00">s |</text>
<text text-anchor="middle" x="383.65" y="-512.38" font-family="Times,serif" font-size="32.00"> d</text>
<text text-anchor="middle" x="383.65" y="-477.38" font-family="Times,serif" font-size="32.00">=&gt;v 0</text>
</g>
<!-- perf -->
<g id="node6" class="node">
<title>perf</title>
<ellipse fill="none" stroke="black" cx="254.33" cy="-330.98" rx="48.17" ry="30.31"/>
<text text-anchor="middle" x="254.33" y="-322.88" font-family="Times,serif" font-size="32.00">perf</text>
</g>
<!-- v&#45;&gt;perf -->
<g id="edge7" class="edge">
<title>v&#45;&gt;perf</title>
<path fill="none" stroke="#000000" d="M464.33,-346.6C457.66,-350.43 450.13,-354.01 442.65,-355.98 391.95,-369.38 376.31,-365.01 324.65,-355.98 317.96,-354.81 311.07,-353.05 304.34,-351"/>
<polygon fill="#000000" stroke="#000000" points="305.23,-347.61 294.64,-347.81 303.05,-354.26 305.23,-347.61"/>
<text text-anchor="middle" x="383.65" y="-409.38" font-family="Times,serif" font-size="32.00">n</text>
<text text-anchor="middle" x="383.65" y="-374.38" font-family="Times,serif" font-size="32.00">=&gt;v perf</text>
</g>
<!-- prog -->
<g id="node7" class="node">
<title>prog</title>
<ellipse fill="none" stroke="black" cx="254.33" cy="-145.98" rx="52.15" ry="30.31"/>
<text text-anchor="middle" x="254.33" y="-137.88" font-family="Times,serif" font-size="32.00">prog</text>
</g>
<!-- v&#45;&gt;prog -->
<g id="edge9" class="edge">
<title>v&#45;&gt;prog</title>
<path fill="none" stroke="#000000" d="M484.75,-300.55C481.21,-270.48 471.15,-225.27 442.65,-198.98 402.95,-162.37 376.45,-185.27 324.65,-169.98 319.46,-168.45 314.08,-166.76 308.72,-165.02"/>
<polygon fill="#000000" stroke="#000000" points="309.73,-161.66 299.14,-161.83 307.52,-168.31 309.73,-161.66"/>
<text text-anchor="middle" x="383.65" y="-243.38" font-family="Times,serif" font-size="32.00">ing</text>
<text text-anchor="middle" x="383.65" y="-208.38" font-family="Times,serif" font-size="32.00">=&gt;v prog</text>
</g>
<!-- perf&#45;&gt;v -->
<g id="edge5" class="edge">
<title>perf&#45;&gt;v</title>
<path fill="none" stroke="#000000" d="M284.15,-306.95C295.95,-298.6 310.21,-290.26 324.65,-285.98 374.94,-271.09 394.31,-265.64 442.65,-285.98 450.16,-289.14 457.02,-294.27 462.98,-299.96"/>
<polygon fill="#000000" stroke="#000000" points="460.6,-302.54 470.03,-307.36 465.67,-297.71 460.6,-302.54"/>
<text text-anchor="middle" x="383.65" y="-330.38" font-family="Times,serif" font-size="32.00">have</text>
<text text-anchor="middle" x="383.65" y="-295.38" font-family="Times,serif" font-size="32.00">=perf v</text>
</g>
<!-- prog&#45;&gt;v -->
<g id="edge6" class="edge">
<title>prog&#45;&gt;v</title>
<path fill="none" stroke="#000000" d="M284.75,-120.93C296.4,-112.56 310.41,-104.28 324.65,-99.98 374.86,-84.84 402.25,-66.55 442.65,-99.98 471.28,-123.67 481.45,-230.51 484.93,-290.24"/>
<polygon fill="#000000" stroke="#000000" points="481.44,-290.67 485.48,-300.46 488.43,-290.28 481.44,-290.67"/>
<text text-anchor="middle" x="383.65" y="-144.38" font-family="Times,serif" font-size="32.00">be</text>
<text text-anchor="middle" x="383.65" y="-109.38" font-family="Times,serif" font-size="32.00">=prog v</text>
</g>
</g>
</svg>
