<?xml version="1.0" encoding="UTF-8" standalone="no"?>
<!DOCTYPE svg PUBLIC "-//W3C//DTD SVG 1.1//EN"
 "http://www.w3.org/Graphics/SVG/1.1/DTD/svg11.dtd">
<!-- Generated by graphviz version 2.47.1 (20210417.1919)
 -->
<!-- Title: G Pages: 1 -->
<svg width="1318pt" height="966pt"
 viewBox="0.00 0.00 1318.00 966.06" xmlns="http://www.w3.org/2000/svg" xmlns:xlink="http://www.w3.org/1999/xlink">
<g id="graph0" class="graph" transform="scale(1 1) rotate(0) translate(4 962.06)">
<title>G</title>
<polygon fill="white" stroke="transparent" points="-4,4 -4,-962.06 1314,-962.06 1314,4 -4,4"/>
<text text-anchor="middle" x="655" y="-13.4" font-family="Times,serif" font-size="32.00">single contraction: 0 → v</text>
<!-- t -->
<g id="node1" class="node">
<title>t</title>
<ellipse fill="lightgray" stroke="black" cx="27" cy="-467.06" rx="27" ry="30.31"/>
<text text-anchor="middle" x="27" y="-458.96" font-family="Times,serif" font-size="32.00">t</text>
</g>
<!-- z0 -->
<g id="node2" class="node">
<title>z0</title>
<ellipse fill="none" stroke="black" stroke-dasharray="5,2" cx="1283" cy="-530.06" rx="27" ry="18"/>
</g>
<!-- d -->
<g id="node3" class="node">
<title>d</title>
<ellipse fill="none" stroke="black" cx="1123" cy="-530.06" rx="27" ry="30.31"/>
<text text-anchor="middle" x="1123" y="-521.96" font-family="Times,serif" font-size="32.00">d</text>
</g>
<!-- z0&#45;&gt;d -->
<g id="edge1" class="edge">
<title>z0&#45;&gt;d</title>
<path fill="none" stroke="#000000" d="M1255.91,-530.06C1229.84,-530.06 1189.53,-530.06 1160.34,-530.06"/>
<polygon fill="#000000" stroke="#000000" points="1160.13,-526.56 1150.13,-530.06 1160.13,-533.56 1160.13,-526.56"/>
<text text-anchor="middle" x="1203" y="-574.46" font-family="Times,serif" font-size="32.00">Mary</text>
<text text-anchor="middle" x="1203" y="-539.46" font-family="Times,serif" font-size="32.00">d &#45;k</text>
</g>
<!-- d&#45;&gt;t -->
<g id="edge8" class="edge">
<title>d&#45;&gt;t</title>
<path fill="none" stroke="#000000" d="M1117.39,-559.95C1111.9,-587.53 1100.48,-628.42 1078,-657.06 1008.3,-745.84 970.37,-783.06 857.5,-783.06 857.5,-783.06 857.5,-783.06 286,-783.06 202.09,-783.06 81.43,-631.19 72,-616.06 51.1,-582.54 39.71,-538.61 33.8,-507.15"/>
<polygon fill="#000000" stroke="#000000" points="37.19,-506.23 31.99,-496.99 30.29,-507.45 37.19,-506.23"/>
<text text-anchor="middle" x="583" y="-932.46" font-family="Times,serif" font-size="32.00">laughs |</text>
<text text-anchor="middle" x="583" y="-897.46" font-family="Times,serif" font-size="32.00"> laughd |</text>
<text text-anchor="middle" x="583" y="-862.46" font-family="Times,serif" font-size="32.00"> dances |</text>
<text text-anchor="middle" x="583" y="-827.46" font-family="Times,serif" font-size="32.00"> danced</text>
<text text-anchor="middle" x="583" y="-792.46" font-family="Times,serif" font-size="32.00">=d +k t</text>
</g>
<!-- v -->
<g id="node4" class="node">
<title>v</title>
<ellipse fill="none" stroke="black" cx="856.5" cy="-427.06" rx="27" ry="30.31"/>
<text text-anchor="middle" x="856.5" y="-418.96" font-family="Times,serif" font-size="32.00">v</text>
</g>
<!-- d&#45;&gt;v -->
<g id="edge9" class="edge">
<title>d&#45;&gt;v</title>
<path fill="none" stroke="#000000" d="M1120.96,-499.57C1118.12,-469.46 1108.61,-424.84 1078,-403.06 1022.06,-363.24 937.07,-390.53 890.64,-410.77"/>
<polygon fill="#000000" stroke="#000000" points="889.02,-407.66 881.34,-414.95 891.89,-414.04 889.02,-407.66"/>
<text text-anchor="middle" x="1008" y="-482.46" font-family="Times,serif" font-size="32.00">laugh |</text>
<text text-anchor="middle" x="1008" y="-447.46" font-family="Times,serif" font-size="32.00"> dance</text>
<text text-anchor="middle" x="1008" y="-412.46" font-family="Times,serif" font-size="32.00">=d v</text>
</g>
<!-- d&#45;&gt;v -->
<g id="edge13" class="edge">
<title>d&#45;&gt;v</title>
<path fill="none" stroke="#000000" d="M1095.7,-529.03C1051.67,-526.96 965.18,-521.31 938,-508.06 914.82,-496.75 894.41,-476.02 879.94,-458.37"/>
<polygon fill="#000000" stroke="#000000" points="882.68,-456.18 873.73,-450.51 877.19,-460.53 882.68,-456.18"/>
<text text-anchor="middle" x="1008" y="-606.46" font-family="Times,serif" font-size="32.00">hug |</text>
<text text-anchor="middle" x="1008" y="-571.46" font-family="Times,serif" font-size="32.00"> praise</text>
<text text-anchor="middle" x="1008" y="-536.46" font-family="Times,serif" font-size="32.00">=d *k =d v</text>
</g>
<!-- perf -->
<g id="node5" class="node">
<title>perf</title>
<ellipse fill="none" stroke="black" cx="287" cy="-467.06" rx="48.17" ry="30.31"/>
<text text-anchor="middle" x="287" y="-458.96" font-family="Times,serif" font-size="32.00">perf</text>
</g>
<!-- d&#45;&gt;perf -->
<g id="edge11" class="edge">
<title>d&#45;&gt;perf</title>
<path fill="none" stroke="#000000" d="M1120.46,-499.61C1117.27,-466.35 1107.53,-413.27 1078,-379.06 981.19,-266.9 919.75,-271.67 775,-240.06 597.67,-201.32 516.53,-200.95 373,-312.06 335.29,-341.25 312.04,-392.11 299.59,-427.58"/>
<polygon fill="#000000" stroke="#000000" points="296.25,-426.55 296.36,-437.14 302.88,-428.79 296.25,-426.55"/>
<text text-anchor="middle" x="716" y="-319.46" font-family="Times,serif" font-size="32.00">laughn |</text>
<text text-anchor="middle" x="716" y="-284.46" font-family="Times,serif" font-size="32.00"> dancen</text>
<text text-anchor="middle" x="716" y="-249.46" font-family="Times,serif" font-size="32.00">=d perf</text>
</g>
<!-- prog -->
<g id="node6" class="node">
<title>prog</title>
<ellipse fill="none" stroke="black" cx="583" cy="-602.06" rx="52.15" ry="30.31"/>
<text text-anchor="middle" x="583" y="-593.96" font-family="Times,serif" font-size="32.00">prog</text>
</g>
<!-- d&#45;&gt;prog -->
<g id="edge10" class="edge">
<title>d&#45;&gt;prog</title>
<path fill="none" stroke="#000000" d="M1118.49,-560.49C1113.83,-585.47 1103.02,-619.35 1078,-636.06 1039.1,-662.03 702.67,-646.17 657,-636.06 648.08,-634.08 638.95,-630.9 630.31,-627.25"/>
<polygon fill="#000000" stroke="#000000" points="631.71,-624.05 621.16,-623.15 628.85,-630.43 631.71,-624.05"/>
<text text-anchor="middle" x="856.5" y="-729.46" font-family="Times,serif" font-size="32.00">laughing |</text>
<text text-anchor="middle" x="856.5" y="-694.46" font-family="Times,serif" font-size="32.00"> danceing</text>
<text text-anchor="middle" x="856.5" y="-659.46" font-family="Times,serif" font-size="32.00">=d prog</text>
</g>
<!-- v&#45;&gt;t -->
<g id="edge2" class="edge">
<title>v&#45;&gt;t</title>
<path fill="none" stroke="#000000" d="M831.72,-414.56C815.97,-406.67 794.66,-396.75 775,-390.06 603.93,-331.82 550.45,-294.88 373,-329.06 252.44,-352.27 120.46,-417.24 60.67,-449.05"/>
<polygon fill="#000000" stroke="#000000" points="58.86,-446.05 51.71,-453.86 62.17,-452.22 58.86,-446.05"/>
<text text-anchor="middle" x="441" y="-408.46" font-family="Times,serif" font-size="32.00">wills |</text>
<text text-anchor="middle" x="441" y="-373.46" font-family="Times,serif" font-size="32.00"> willd</text>
<text text-anchor="middle" x="441" y="-338.46" font-family="Times,serif" font-size="32.00">=v +k t</text>
</g>
<!-- v&#45;&gt;t -->
<g id="edge12" class="edge">
<title>v&#45;&gt;t</title>
<path fill="none" stroke="#000000" d="M852.27,-396.97C845.77,-350.86 826.97,-262.66 775,-211.06 644.58,-81.55 544.89,-48.99 373,-114.06 206.03,-177.26 181.13,-238.76 72,-380.06 60.32,-395.17 50.39,-413.87 42.94,-430.05"/>
<polygon fill="#000000" stroke="#000000" points="39.71,-428.68 38.84,-439.24 46.11,-431.53 39.71,-428.68"/>
<text text-anchor="middle" x="441" y="-193.46" font-family="Times,serif" font-size="32.00">s |</text>
<text text-anchor="middle" x="441" y="-158.46" font-family="Times,serif" font-size="32.00"> d</text>
<text text-anchor="middle" x="441" y="-123.46" font-family="Times,serif" font-size="32.00">=&gt;v +k t</text>
</g>
<!-- v&#45;&gt;perf -->
<g id="edge15" class="edge">
<title>v&#45;&gt;perf</title>
<path fill="none" stroke="#000000" d="M829.22,-427.73C790.66,-429.33 716.82,-434.75 657,-453.06 648.45,-455.67 647.67,-459.87 639,-462.06 537.62,-487.64 414.48,-481.18 344.28,-474.13"/>
<polygon fill="#000000" stroke="#000000" points="344.62,-470.65 334.32,-473.09 343.9,-477.61 344.62,-470.65"/>
<text text-anchor="middle" x="583" y="-523.46" font-family="Times,serif" font-size="32.00">n</text>
<text text-anchor="middle" x="583" y="-488.46" font-family="Times,serif" font-size="32.00">=&gt;v perf</text>
</g>
<!-- v&#45;&gt;prog -->
<g id="edge14" class="edge">
<title>v&#45;&gt;prog</title>
<path fill="none" stroke="#000000" d="M830.32,-435.08C814.55,-439.9 793.73,-445.89 775,-450.06 749.07,-455.83 676.15,-450.65 657,-469.06 627.9,-497.02 660.02,-523.61 639,-558.06 635.7,-563.47 631.48,-568.49 626.85,-573.06"/>
<polygon fill="#000000" stroke="#000000" points="624.39,-570.57 619.3,-579.87 629.07,-575.77 624.39,-570.57"/>
<text text-anchor="middle" x="716" y="-513.46" font-family="Times,serif" font-size="32.00">ing</text>
<text text-anchor="middle" x="716" y="-478.46" font-family="Times,serif" font-size="32.00">=&gt;v prog</text>
</g>
<!-- perf&#45;&gt;t -->
<g id="edge3" class="edge">
<title>perf&#45;&gt;t</title>
<path fill="none" stroke="#000000" d="M238.68,-467.06C188.34,-467.06 109.81,-467.06 64.19,-467.06"/>
<polygon fill="#000000" stroke="#000000" points="64.15,-463.56 54.15,-467.06 64.15,-470.56 64.15,-463.56"/>
<text text-anchor="middle" x="136.5" y="-546.46" font-family="Times,serif" font-size="32.00">haves |</text>
<text text-anchor="middle" x="136.5" y="-511.46" font-family="Times,serif" font-size="32.00"> haved</text>
<text text-anchor="middle" x="136.5" y="-476.46" font-family="Times,serif" font-size="32.00">=perf +k t</text>
</g>
<!-- perf&#45;&gt;v -->
<g id="edge4" class="edge">
<title>perf&#45;&gt;v</title>
<path fill="none" stroke="#000000" d="M335.3,-466.36C392.04,-464.61 482.79,-458.57 509,-438.06 526.29,-424.52 508.87,-404.43 527,-392.06 568.11,-363.99 589.38,-388.07 639,-392.06 703.16,-397.21 777,-410.82 819.75,-419.47"/>
<polygon fill="#000000" stroke="#000000" points="819.17,-422.92 829.67,-421.5 820.57,-416.07 819.17,-422.92"/>
<text text-anchor="middle" x="583" y="-436.46" font-family="Times,serif" font-size="32.00">have</text>
<text text-anchor="middle" x="583" y="-401.46" font-family="Times,serif" font-size="32.00">=perf v</text>
</g>
<!-- prog&#45;&gt;t -->
<g id="edge5" class="edge">
<title>prog&#45;&gt;t</title>
<path fill="none" stroke="#000000" d="M535.15,-614.88C438.43,-638.36 213.88,-677.14 72,-576.06 49.89,-560.31 38.88,-531.5 33.4,-507.46"/>
<polygon fill="#000000" stroke="#000000" points="36.8,-506.6 31.38,-497.5 29.94,-507.99 36.8,-506.6"/>
<text text-anchor="middle" x="287" y="-721.46" font-family="Times,serif" font-size="32.00">bes |</text>
<text text-anchor="middle" x="287" y="-686.46" font-family="Times,serif" font-size="32.00"> bed</text>
<text text-anchor="middle" x="287" y="-651.46" font-family="Times,serif" font-size="32.00">=prog +k t</text>
</g>
<!-- prog&#45;&gt;v -->
<g id="edge6" class="edge">
<title>prog&#45;&gt;v</title>
<path fill="none" stroke="#000000" d="M621.45,-581.22C632.63,-575.65 645.08,-570.08 657,-566.06 707.63,-548.98 730.26,-572.26 775,-543.06 804.43,-523.84 826.15,-489.76 839.56,-463.49"/>
<polygon fill="#000000" stroke="#000000" points="842.85,-464.73 844.12,-454.21 836.57,-461.64 842.85,-464.73"/>
<text text-anchor="middle" x="716" y="-610.46" font-family="Times,serif" font-size="32.00">be</text>
<text text-anchor="middle" x="716" y="-575.46" font-family="Times,serif" font-size="32.00">=prog v</text>
</g>
<!-- prog&#45;&gt;perf -->
<g id="edge7" class="edge">
<title>prog&#45;&gt;perf</title>
<path fill="none" stroke="#000000" d="M548.26,-579.22C540.61,-572.98 532.99,-565.79 527,-558.06 515.06,-542.65 524.43,-529.97 509,-518.06 460.49,-480.58 432.5,-509.8 373,-495.06 361.8,-492.28 349.95,-488.76 338.76,-485.16"/>
<polygon fill="#000000" stroke="#000000" points="339.73,-481.8 329.14,-481.99 337.54,-488.44 339.73,-481.8"/>
<text text-anchor="middle" x="441" y="-562.46" font-family="Times,serif" font-size="32.00">ben</text>
<text text-anchor="middle" x="441" y="-527.46" font-family="Times,serif" font-size="32.00">=prog perf</text>
</g>
</g>
</svg>
