<?xml version="1.0" encoding="UTF-8" standalone="no"?>
<!DOCTYPE svg PUBLIC "-//W3C//DTD SVG 1.1//EN"
 "http://www.w3.org/Graphics/SVG/1.1/DTD/svg11.dtd">
<!-- Generated by graphviz version 2.47.1 (20210417.1919)
 -->
<!-- Title: G Pages: 1 -->
<svg width="988pt" height="708pt"
 viewBox="0.00 0.00 987.65 707.98" xmlns="http://www.w3.org/2000/svg" xmlns:xlink="http://www.w3.org/1999/xlink">
<g id="graph0" class="graph" transform="scale(1 1) rotate(0) translate(4 703.98)">
<title>G</title>
<polygon fill="white" stroke="transparent" points="-4,4 -4,-703.98 983.65,-703.98 983.65,4 -4,4"/>
<text text-anchor="middle" x="489.83" y="-13.4" font-family="Times,serif" font-size="32.00">decomposition: hug =d *k =d v, praise =d *k =d v</text>
<!-- t -->
<g id="node1" class="node">
<title>t</title>
<ellipse fill="lightgray" stroke="black" cx="27" cy="-534.98" rx="27" ry="30.31"/>
<text text-anchor="middle" x="27" y="-526.88" font-family="Times,serif" font-size="32.00">t</text>
</g>
<!-- z0 -->
<g id="node2" class="node">
<title>z0</title>
<ellipse fill="none" stroke="black" stroke-dasharray="5,2" cx="952.65" cy="-386.98" rx="27" ry="18"/>
</g>
<!-- d -->
<g id="node3" class="node">
<title>d</title>
<ellipse fill="none" stroke="black" cx="777.65" cy="-383.98" rx="27" ry="30.31"/>
<text text-anchor="middle" x="777.65" y="-375.88" font-family="Times,serif" font-size="32.00">d</text>
</g>
<!-- z0&#45;&gt;d -->
<g id="edge1" class="edge">
<title>z0&#45;&gt;d</title>
<path fill="none" stroke="#000000" d="M925.38,-386.52C895.95,-386.01 848.06,-385.18 815.05,-384.61"/>
<polygon fill="#000000" stroke="#000000" points="814.95,-381.11 804.89,-384.44 814.83,-388.11 814.95,-381.11"/>
<text text-anchor="middle" x="865.15" y="-430.38" font-family="Times,serif" font-size="32.00">Mary</text>
<text text-anchor="middle" x="865.15" y="-395.38" font-family="Times,serif" font-size="32.00">d &#45;k</text>
</g>
<!-- v -->
<g id="node5" class="node">
<title>v</title>
<ellipse fill="none" stroke="black" cx="487.65" cy="-330.98" rx="27" ry="30.31"/>
<text text-anchor="middle" x="487.65" y="-322.88" font-family="Times,serif" font-size="32.00">v</text>
</g>
<!-- d&#45;&gt;v -->
<g id="edge8" class="edge">
<title>d&#45;&gt;v</title>
<path fill="none" stroke="#000000" d="M750.52,-385.18C704.93,-386.43 608.47,-385.33 532.65,-358.98 528.08,-357.39 523.5,-355.25 519.12,-352.85"/>
<polygon fill="#000000" stroke="#000000" points="520.83,-349.79 510.45,-347.66 517.23,-355.8 520.83,-349.79"/>
<text text-anchor="middle" x="632.65" y="-464.38" font-family="Times,serif" font-size="32.00">laugh |</text>
<text text-anchor="middle" x="632.65" y="-429.38" font-family="Times,serif" font-size="32.00"> dance</text>
<text text-anchor="middle" x="632.65" y="-394.38" font-family="Times,serif" font-size="32.00">=d v</text>
</g>
<!-- 0 -->
<g id="node4" class="node">
<title>0</title>
<ellipse fill="none" stroke="black" cx="254.33" cy="-534.98" rx="27" ry="30.31"/>
<text text-anchor="middle" x="254.33" y="-526.88" font-family="Times,serif" font-size="32.00">0</text>
</g>
<!-- 0&#45;&gt;t -->
<g id="edge2" class="edge">
<title>0&#45;&gt;t</title>
<path fill="none" stroke="#000000" d="M227.04,-534.98C186.76,-534.98 109.66,-534.98 64.15,-534.98"/>
<polygon fill="#000000" stroke="#000000" points="64.12,-531.48 54.12,-534.98 64.12,-538.48 64.12,-531.48"/>
<text text-anchor="middle" x="128" y="-579.38" font-family="Times,serif" font-size="32.00">ε_0</text>
<text text-anchor="middle" x="128" y="-544.38" font-family="Times,serif" font-size="32.00">=&gt;0 +k t</text>
</g>
<!-- v&#45;&gt;0 -->
<g id="edge3" class="edge">
<title>v&#45;&gt;0</title>
<path fill="none" stroke="#000000" d="M485.87,-361.6C483.64,-421.31 475.09,-549.83 442.65,-576.98 402.44,-610.64 375.16,-591.09 324.65,-576.98 310.72,-573.09 296.8,-565.55 285.12,-557.92"/>
<polygon fill="#000000" stroke="#000000" points="286.9,-554.9 276.67,-552.13 282.94,-560.67 286.9,-554.9"/>
<text text-anchor="middle" x="383.65" y="-674.38" font-family="Times,serif" font-size="32.00">wills |</text>
<text text-anchor="middle" x="383.65" y="-639.38" font-family="Times,serif" font-size="32.00"> willd</text>
<text text-anchor="middle" x="383.65" y="-604.38" font-family="Times,serif" font-size="32.00">=v 0</text>
</g>
<!-- v&#45;&gt;0 -->
<g id="edge4" class="edge">
<title>v&#45;&gt;0</title>
<path fill="none" stroke="#000000" d="M481.86,-361.15C476.45,-385.33 465.25,-418.36 442.65,-437.98 401.78,-473.45 371.91,-441.63 324.65,-467.98 307.79,-477.38 292.04,-491.92 279.84,-505.05"/>
<polygon fill="#000000" stroke="#000000" points="277.16,-502.79 273.08,-512.57 282.36,-507.47 277.16,-502.79"/>
<text text-anchor="middle" x="383.65" y="-547.38" font-family="Times,serif" font-size="32.00">s |</text>
<text text-anchor="middle" x="383.65" y="-512.38" font-family="Times,serif" font-size="32.00"> d</text>
<text text-anchor="middle" x="383.65" y="-477.38" font-family="Times,serif" font-size="32.00">=&gt;v 0</text>
</g>
<!-- perf -->
<g id="node6" class="node">
<title>perf</title>
<ellipse fill="none" stroke="black" cx="254.33" cy="-330.98" rx="48.17" ry="30.31"/>
<text text-anchor="middle" x="254.33" y="-322.88" font-family="Times,serif" font-size="32.00">perf</text>
</g>
<!-- v&#45;&gt;perf -->
<g id="edge7" class="edge">
<title>v&#45;&gt;perf</title>
<path fill="none" stroke="#000000" d="M464.33,-346.6C457.66,-350.43 450.13,-354.01 442.65,-355.98 391.95,-369.38 376.31,-365.01 324.65,-355.98 317.96,-354.81 311.07,-353.05 304.34,-351"/>
<polygon fill="#000000" stroke="#000000" points="305.23,-347.61 294.64,-347.81 303.05,-354.26 305.23,-347.61"/>
<text text-anchor="middle" x="383.65" y="-408.38" font-family="Times,serif" font-size="32.00">n</text>
<text text-anchor="middle" x="383.65" y="-373.38" font-family="Times,serif" font-size="32.00">=&gt;v perf</text>
</g>
<!-- prog -->
<g id="node7" class="node">
<title>prog</title>
<ellipse fill="none" stroke="black" cx="254.33" cy="-145.98" rx="52.15" ry="30.31"/>
<text text-anchor="middle" x="254.33" y="-137.88" font-family="Times,serif" font-size="32.00">prog</text>
</g>
<!-- v&#45;&gt;prog -->
<g id="edge9" class="edge">
<title>v&#45;&gt;prog</title>
<path fill="none" stroke="#000000" d="M484.75,-300.55C481.21,-270.48 471.15,-225.27 442.65,-198.98 402.95,-162.37 376.45,-185.27 324.65,-169.98 319.46,-168.45 314.08,-166.76 308.72,-165.02"/>
<polygon fill="#000000" stroke="#000000" points="309.73,-161.66 299.14,-161.83 307.52,-168.31 309.73,-161.66"/>
<text text-anchor="middle" x="383.65" y="-243.38" font-family="Times,serif" font-size="32.00">ing</text>
<text text-anchor="middle" x="383.65" y="-208.38" font-family="Times,serif" font-size="32.00">=&gt;v prog</text>
</g>
<!-- perf&#45;&gt;v -->
<g id="edge5" class="edge">
<title>perf&#45;&gt;v</title>
<path fill="none" stroke="#000000" d="M284.15,-306.95C295.95,-298.6 310.21,-290.26 324.65,-285.98 374.94,-271.09 394.31,-265.64 442.65,-285.98 450.16,-289.14 457.02,-294.27 462.98,-299.96"/>
<polygon fill="#000000" stroke="#000000" points="460.6,-302.54 470.03,-307.36 465.67,-297.71 460.6,-302.54"/>
<text text-anchor="middle" x="383.65" y="-330.38" font-family="Times,serif" font-size="32.00">have</text>
<text text-anchor="middle" x="383.65" y="-295.38" font-family="Times,serif" font-size="32.00">=perf v</text>
</g>
<!-- prog&#45;&gt;v -->
<g id="edge6" class="edge">
<title>prog&#45;&gt;v</title>
<path fill="none" stroke="#000000" d="M284.75,-120.93C296.4,-112.56 310.41,-104.28 324.65,-99.98 374.86,-84.84 402.25,-66.55 442.65,-99.98 471.28,-123.67 481.45,-230.51 484.93,-290.24"/>
<polygon fill="#000000" stroke="#000000" points="481.44,-290.67 485.48,-300.46 488.43,-290.28 481.44,-290.67"/>
<text text-anchor="middle" x="383.65" y="-144.38" font-family="Times,serif" font-size="32.00">be</text>
<text text-anchor="middle" x="383.65" y="-109.38" font-family="Times,serif" font-size="32.00">=prog v</text>
</g>
<!-- 1 -->
<g id="node8" class="node">
<title>1</title>
<ellipse fill="none" stroke="black" cx="777.65" cy="-275.98" rx="27" ry="30.31"/>
<text text-anchor="middle" x="777.65" y="-267.88" font-family="Times,serif" font-size="32.00">1</text>
</g>
<!-- 1&#45;&gt;v -->
<g id="edge10" class="edge">
<title>1&#45;&gt;v</title>
<path fill="none" stroke="#f7931d" stroke-width="2" d="M751.01,-270.89C704.94,-263 606.12,-251.97 532.65,-284.98 525,-288.42 518.01,-293.87 511.97,-299.83"/>
<polygon fill="#f7931d" stroke="#f7931d" stroke-width="2" points="509.06,-297.82 504.85,-307.54 514.21,-302.57 509.06,-297.82"/>
<text text-anchor="middle" x="632.65" y="-329.38" font-family="Times,serif" font-size="32.00">ε_1</text>
<text text-anchor="middle" x="632.65" y="-294.38" font-family="Times,serif" font-size="32.00">=&gt;1 =d *k =d v</text>
</g>
<!-- z1 -->
<g id="node9" class="node">
<title>z1</title>
<ellipse fill="none" stroke="black" stroke-dasharray="5,2" cx="952.65" cy="-258.98" rx="27" ry="18"/>
</g>
<!-- z1&#45;&gt;1 -->
<g id="edge11" class="edge">
<title>z1&#45;&gt;1</title>
<path fill="none" stroke="#f7931d" stroke-width="2" d="M925.75,-261.53C896.32,-264.42 848.09,-269.16 814.92,-272.42"/>
<polygon fill="#f7931d" stroke="#f7931d" stroke-width="2" points="814.34,-268.96 804.73,-273.42 815.02,-275.92 814.34,-268.96"/>
<text text-anchor="middle" x="865.15" y="-351.38" font-family="Times,serif" font-size="32.00">hug |</text>
<text text-anchor="middle" x="865.15" y="-316.38" font-family="Times,serif" font-size="32.00"> praise</text>
<text text-anchor="middle" x="865.15" y="-281.38" font-family="Times,serif" font-size="32.00">1</text>
</g>
</g>
</svg>
