<?xml version="1.0" encoding="UTF-8" standalone="no"?>
<!DOCTYPE svg PUBLIC "-//W3C//DTD SVG 1.1//EN"
 "http://www.w3.org/Graphics/SVG/1.1/DTD/svg11.dtd">
<!-- Generated by graphviz version 2.47.1 (20210417.1919)
 -->
<!-- Title: G Pages: 1 -->
<svg width="1154pt" height="708pt"
 viewBox="0.00 0.00 1153.65 707.98" xmlns="http://www.w3.org/2000/svg" xmlns:xlink="http://www.w3.org/1999/xlink">
<g id="graph0" class="graph" transform="scale(1 1) rotate(0) translate(4 703.98)">
<title>G</title>
<polygon fill="white" stroke="transparent" points="-4,4 -4,-703.98 1149.65,-703.98 1149.65,4 -4,4"/>
<text text-anchor="middle" x="572.83" y="-13.4" font-family="Times,serif" font-size="32.00">decomposition: laugh =d v, dance =d v, &#160;=&gt;1 =d *k =d v</text>
<!-- t -->
<g id="node1" class="node">
<title>t</title>
<ellipse fill="lightgray" stroke="black" cx="27" cy="-534.98" rx="27" ry="30.31"/>
<text text-anchor="middle" x="27" y="-526.88" font-family="Times,serif" font-size="32.00">t</text>
</g>
<!-- z0 -->
<g id="node2" class="node">
<title>z0</title>
<ellipse fill="none" stroke="black" stroke-dasharray="5,2" cx="1118.65" cy="-443.98" rx="27" ry="18"/>
</g>
<!-- d -->
<g id="node3" class="node">
<title>d</title>
<ellipse fill="none" stroke="black" cx="943.65" cy="-443.98" rx="27" ry="30.31"/>
<text text-anchor="middle" x="943.65" y="-435.88" font-family="Times,serif" font-size="32.00">d</text>
</g>
<!-- z0&#45;&gt;d -->
<g id="edge1" class="edge">
<title>z0&#45;&gt;d</title>
<path fill="none" stroke="#000000" d="M1091.38,-443.98C1061.95,-443.98 1014.06,-443.98 981.05,-443.98"/>
<polygon fill="#000000" stroke="#000000" points="980.89,-440.48 970.89,-443.98 980.89,-447.48 980.89,-440.48"/>
<text text-anchor="middle" x="1031.15" y="-488.38" font-family="Times,serif" font-size="32.00">Mary</text>
<text text-anchor="middle" x="1031.15" y="-453.38" font-family="Times,serif" font-size="32.00">d &#45;k</text>
</g>
<!-- 0 -->
<g id="node4" class="node">
<title>0</title>
<ellipse fill="none" stroke="black" cx="254.33" cy="-534.98" rx="27" ry="30.31"/>
<text text-anchor="middle" x="254.33" y="-526.88" font-family="Times,serif" font-size="32.00">0</text>
</g>
<!-- 0&#45;&gt;t -->
<g id="edge2" class="edge">
<title>0&#45;&gt;t</title>
<path fill="none" stroke="#000000" d="M227.04,-534.98C186.76,-534.98 109.66,-534.98 64.15,-534.98"/>
<polygon fill="#000000" stroke="#000000" points="64.12,-531.48 54.12,-534.98 64.12,-538.48 64.12,-531.48"/>
<text text-anchor="middle" x="128" y="-579.38" font-family="Times,serif" font-size="32.00">ε_0</text>
<text text-anchor="middle" x="128" y="-544.38" font-family="Times,serif" font-size="32.00">=&gt;0 +k t</text>
</g>
<!-- v -->
<g id="node5" class="node">
<title>v</title>
<ellipse fill="none" stroke="black" cx="487.65" cy="-330.98" rx="27" ry="30.31"/>
<text text-anchor="middle" x="487.65" y="-322.88" font-family="Times,serif" font-size="32.00">v</text>
</g>
<!-- v&#45;&gt;0 -->
<g id="edge3" class="edge">
<title>v&#45;&gt;0</title>
<path fill="none" stroke="#000000" d="M485.87,-361.6C483.64,-421.31 475.09,-549.83 442.65,-576.98 402.44,-610.64 375.16,-591.09 324.65,-576.98 310.72,-573.09 296.8,-565.55 285.12,-557.92"/>
<polygon fill="#000000" stroke="#000000" points="286.9,-554.9 276.67,-552.13 282.94,-560.67 286.9,-554.9"/>
<text text-anchor="middle" x="383.65" y="-674.38" font-family="Times,serif" font-size="32.00">wills |</text>
<text text-anchor="middle" x="383.65" y="-639.38" font-family="Times,serif" font-size="32.00"> willd</text>
<text text-anchor="middle" x="383.65" y="-604.38" font-family="Times,serif" font-size="32.00">=v 0</text>
</g>
<!-- v&#45;&gt;0 -->
<g id="edge4" class="edge">
<title>v&#45;&gt;0</title>
<path fill="none" stroke="#000000" d="M482.09,-360.98C476.79,-385.46 465.63,-419.13 442.65,-438.98 401.78,-474.28 371.92,-441.87 324.65,-467.98 307.75,-477.32 292,-491.84 279.8,-504.99"/>
<polygon fill="#000000" stroke="#000000" points="277.12,-502.74 273.05,-512.52 282.33,-507.41 277.12,-502.74"/>
<text text-anchor="middle" x="383.65" y="-547.38" font-family="Times,serif" font-size="32.00">s |</text>
<text text-anchor="middle" x="383.65" y="-512.38" font-family="Times,serif" font-size="32.00"> d</text>
<text text-anchor="middle" x="383.65" y="-477.38" font-family="Times,serif" font-size="32.00">=&gt;v 0</text>
</g>
<!-- perf -->
<g id="node6" class="node">
<title>perf</title>
<ellipse fill="none" stroke="black" cx="254.33" cy="-330.98" rx="48.17" ry="30.31"/>
<text text-anchor="middle" x="254.33" y="-322.88" font-family="Times,serif" font-size="32.00">perf</text>
</g>
<!-- v&#45;&gt;perf -->
<g id="edge7" class="edge">
<title>v&#45;&gt;perf</title>
<path fill="none" stroke="#000000" d="M464.33,-346.6C457.66,-350.43 450.13,-354.01 442.65,-355.98 391.95,-369.38 376.31,-365.01 324.65,-355.98 317.96,-354.81 311.07,-353.05 304.34,-351"/>
<polygon fill="#000000" stroke="#000000" points="305.23,-347.61 294.64,-347.81 303.05,-354.26 305.23,-347.61"/>
<text text-anchor="middle" x="383.65" y="-409.38" font-family="Times,serif" font-size="32.00">n</text>
<text text-anchor="middle" x="383.65" y="-374.38" font-family="Times,serif" font-size="32.00">=&gt;v perf</text>
</g>
<!-- prog -->
<g id="node7" class="node">
<title>prog</title>
<ellipse fill="none" stroke="black" cx="254.33" cy="-145.98" rx="52.15" ry="30.31"/>
<text text-anchor="middle" x="254.33" y="-137.88" font-family="Times,serif" font-size="32.00">prog</text>
</g>
<!-- v&#45;&gt;prog -->
<g id="edge10" class="edge">
<title>v&#45;&gt;prog</title>
<path fill="none" stroke="#000000" d="M484.75,-300.55C481.21,-270.48 471.15,-225.27 442.65,-198.98 402.95,-162.37 376.45,-185.27 324.65,-169.98 319.46,-168.45 314.08,-166.76 308.72,-165.02"/>
<polygon fill="#000000" stroke="#000000" points="309.73,-161.66 299.14,-161.83 307.52,-168.31 309.73,-161.66"/>
<text text-anchor="middle" x="383.65" y="-243.38" font-family="Times,serif" font-size="32.00">ing</text>
<text text-anchor="middle" x="383.65" y="-208.38" font-family="Times,serif" font-size="32.00">=&gt;v prog</text>
</g>
<!-- perf&#45;&gt;v -->
<g id="edge5" class="edge">
<title>perf&#45;&gt;v</title>
<path fill="none" stroke="#000000" d="M284.15,-306.95C295.95,-298.6 310.21,-290.26 324.65,-285.98 374.94,-271.09 394.31,-265.64 442.65,-285.98 450.16,-289.14 457.02,-294.27 462.98,-299.96"/>
<polygon fill="#000000" stroke="#000000" points="460.6,-302.54 470.03,-307.36 465.67,-297.71 460.6,-302.54"/>
<text text-anchor="middle" x="383.65" y="-330.38" font-family="Times,serif" font-size="32.00">have</text>
<text text-anchor="middle" x="383.65" y="-295.38" font-family="Times,serif" font-size="32.00">=perf v</text>
</g>
<!-- prog&#45;&gt;v -->
<g id="edge6" class="edge">
<title>prog&#45;&gt;v</title>
<path fill="none" stroke="#000000" d="M284.75,-120.93C296.4,-112.56 310.41,-104.28 324.65,-99.98 374.86,-84.84 402.25,-66.55 442.65,-99.98 471.28,-123.67 481.45,-230.51 484.93,-290.24"/>
<polygon fill="#000000" stroke="#000000" points="481.44,-290.67 485.48,-300.46 488.43,-290.28 481.44,-290.67"/>
<text text-anchor="middle" x="383.65" y="-144.38" font-family="Times,serif" font-size="32.00">be</text>
<text text-anchor="middle" x="383.65" y="-109.38" font-family="Times,serif" font-size="32.00">=prog v</text>
</g>
<!-- 1 -->
<g id="node8" class="node">
<title>1</title>
<ellipse fill="none" stroke="black" cx="695.65" cy="-330.98" rx="27" ry="30.31"/>
<text text-anchor="middle" x="695.65" y="-322.88" font-family="Times,serif" font-size="32.00">1</text>
</g>
<!-- 1&#45;&gt;v -->
<g id="edge8" class="edge">
<title>1&#45;&gt;v</title>
<path fill="none" stroke="#f7931d" stroke-width="2" d="M668.56,-330.98C632.21,-330.98 566.16,-330.98 525,-330.98"/>
<polygon fill="#f7931d" stroke="#f7931d" stroke-width="2" points="524.85,-327.48 514.85,-330.98 524.85,-334.48 524.85,-327.48"/>
<text text-anchor="middle" x="591.65" y="-375.38" font-family="Times,serif" font-size="32.00">ε_1</text>
<text text-anchor="middle" x="591.65" y="-340.38" font-family="Times,serif" font-size="32.00">=&gt;1 =d v</text>
</g>
<!-- z1 -->
<g id="node9" class="node">
<title>z1</title>
<ellipse fill="none" stroke="black" stroke-dasharray="5,2" cx="943.65" cy="-377.98" rx="27" ry="18"/>
</g>
<!-- z1&#45;&gt;1 -->
<g id="edge9" class="edge">
<title>z1&#45;&gt;1</title>
<path fill="none" stroke="#f7931d" stroke-width="2" d="M916.44,-378.48C877.23,-378.48 801.41,-375.62 740.65,-355.98 736.51,-354.64 732.33,-352.89 728.27,-350.93"/>
<polygon fill="#f7931d" stroke="#f7931d" stroke-width="2" points="729.6,-347.67 719.12,-346.08 726.32,-353.85 729.6,-347.67"/>
<text text-anchor="middle" x="819.65" y="-457.38" font-family="Times,serif" font-size="32.00">laugh |</text>
<text text-anchor="middle" x="819.65" y="-422.38" font-family="Times,serif" font-size="32.00"> dance</text>
<text text-anchor="middle" x="819.65" y="-387.38" font-family="Times,serif" font-size="32.00">1</text>
</g>
<!-- 2 -->
<g id="node10" class="node">
<title>2</title>
<ellipse fill="none" stroke="black" cx="943.65" cy="-284.98" rx="27" ry="30.31"/>
<text text-anchor="middle" x="943.65" y="-276.88" font-family="Times,serif" font-size="32.00">2</text>
</g>
<!-- 2&#45;&gt;1 -->
<g id="edge11" class="edge">
<title>2&#45;&gt;1</title>
<path fill="none" stroke="#f7931d" stroke-width="2" d="M917.16,-279.07C877.57,-271.19 799.74,-260.94 740.65,-285.98 733.15,-289.16 726.29,-294.3 720.33,-299.99"/>
<polygon fill="#f7931d" stroke="#f7931d" stroke-width="2" points="717.65,-297.74 713.28,-307.39 722.72,-302.56 717.65,-297.74"/>
<text text-anchor="middle" x="819.65" y="-330.38" font-family="Times,serif" font-size="32.00">ε_2</text>
<text text-anchor="middle" x="819.65" y="-295.38" font-family="Times,serif" font-size="32.00">=&gt;2 =d *k 1</text>
</g>
<!-- z2 -->
<g id="node11" class="node">
<title>z2</title>
<ellipse fill="none" stroke="black" stroke-dasharray="5,2" cx="1118.65" cy="-284.98" rx="27" ry="18"/>
</g>
<!-- z2&#45;&gt;2 -->
<g id="edge12" class="edge">
<title>z2&#45;&gt;2</title>
<path fill="none" stroke="#000000" d="M1091.38,-284.98C1061.95,-284.98 1014.06,-284.98 981.05,-284.98"/>
<polygon fill="#000000" stroke="#000000" points="980.89,-281.48 970.89,-284.98 980.89,-288.48 980.89,-281.48"/>
<text text-anchor="middle" x="1031.15" y="-364.38" font-family="Times,serif" font-size="32.00">hug |</text>
<text text-anchor="middle" x="1031.15" y="-329.38" font-family="Times,serif" font-size="32.00"> praise</text>
<text text-anchor="middle" x="1031.15" y="-294.38" font-family="Times,serif" font-size="32.00">2</text>
</g>
</g>
</svg>
