<?xml version="1.0" encoding="UTF-8" standalone="no"?>
<!DOCTYPE svg PUBLIC "-//W3C//DTD SVG 1.1//EN"
 "http://www.w3.org/Graphics/SVG/1.1/DTD/svg11.dtd">
<!-- Generated by graphviz version 2.47.1 (20210417.1919)
 -->
<!-- Title: G Pages: 1 -->
<svg width="1508pt" height="673pt"
 viewBox="0.00 0.00 1507.65 673.25" xmlns="http://www.w3.org/2000/svg" xmlns:xlink="http://www.w3.org/1999/xlink">
<g id="graph0" class="graph" transform="scale(1 1) rotate(0) translate(4 669.25)">
<title>G</title>
<polygon fill="white" stroke="transparent" points="-4,4 -4,-669.25 1503.65,-669.25 1503.65,4 -4,4"/>
<text text-anchor="middle" x="749.83" y="-13.4" font-family="Times,serif" font-size="32.00">decomposition: d =&gt;1 0, d =&gt;v 0</text>
<!-- t -->
<g id="node1" class="node">
<title>t</title>
<ellipse fill="lightgray" stroke="black" cx="27" cy="-538.25" rx="27" ry="30.31"/>
<text text-anchor="middle" x="27" y="-530.15" font-family="Times,serif" font-size="32.00">t</text>
</g>
<!-- z0 -->
<g id="node2" class="node">
<title>z0</title>
<ellipse fill="none" stroke="black" stroke-dasharray="5,2" cx="1472.65" cy="-491.25" rx="27" ry="18"/>
</g>
<!-- d -->
<g id="node3" class="node">
<title>d</title>
<ellipse fill="none" stroke="black" cx="1297.65" cy="-491.25" rx="27" ry="30.31"/>
<text text-anchor="middle" x="1297.65" y="-483.15" font-family="Times,serif" font-size="32.00">d</text>
</g>
<!-- z0&#45;&gt;d -->
<g id="edge1" class="edge">
<title>z0&#45;&gt;d</title>
<path fill="none" stroke="#000000" d="M1445.38,-491.25C1415.95,-491.25 1368.06,-491.25 1335.05,-491.25"/>
<polygon fill="#000000" stroke="#000000" points="1334.89,-487.75 1324.89,-491.25 1334.89,-494.75 1334.89,-487.75"/>
<text text-anchor="middle" x="1385.15" y="-535.65" font-family="Times,serif" font-size="32.00">Mary</text>
<text text-anchor="middle" x="1385.15" y="-500.65" font-family="Times,serif" font-size="32.00">d &#45;k</text>
</g>
<!-- 0 -->
<g id="node4" class="node">
<title>0</title>
<ellipse fill="none" stroke="black" cx="229" cy="-538.25" rx="27" ry="30.31"/>
<text text-anchor="middle" x="229" y="-530.15" font-family="Times,serif" font-size="32.00">0</text>
</g>
<!-- 0&#45;&gt;t -->
<g id="edge2" class="edge">
<title>0&#45;&gt;t</title>
<path fill="none" stroke="#000000" d="M201.85,-538.25C166.67,-538.25 103.92,-538.25 64.21,-538.25"/>
<polygon fill="#000000" stroke="#000000" points="64.15,-534.75 54.15,-538.25 64.15,-541.75 64.15,-534.75"/>
<text text-anchor="middle" x="128" y="-582.65" font-family="Times,serif" font-size="32.00">ε_0</text>
<text text-anchor="middle" x="128" y="-547.65" font-family="Times,serif" font-size="32.00">=&gt;0 +k t</text>
</g>
<!-- 1 -->
<g id="node5" class="node">
<title>1</title>
<ellipse fill="none" stroke="black" cx="608.33" cy="-581.25" rx="27" ry="30.31"/>
<text text-anchor="middle" x="608.33" y="-573.15" font-family="Times,serif" font-size="32.00">1</text>
</g>
<!-- 1&#45;&gt;0 -->
<g id="edge3" class="edge">
<title>1&#45;&gt;0</title>
<path fill="none" stroke="#000000" d="M581.42,-584.74C524.26,-591.48 383.68,-602.67 274,-567.25 269.35,-565.75 264.72,-563.61 260.31,-561.16"/>
<polygon fill="#000000" stroke="#000000" points="261.98,-558.08 251.63,-555.83 258.31,-564.04 261.98,-558.08"/>
<text text-anchor="middle" x="406" y="-635.65" font-family="Times,serif" font-size="32.00">s</text>
<text text-anchor="middle" x="406" y="-600.65" font-family="Times,serif" font-size="32.00">=&gt;1 0</text>
</g>
<!-- 2 -->
<g id="node7" class="node">
<title>2</title>
<ellipse fill="none" stroke="black" cx="406" cy="-496.25" rx="27" ry="30.31"/>
<text text-anchor="middle" x="406" y="-488.15" font-family="Times,serif" font-size="32.00">2</text>
</g>
<!-- 1&#45;&gt;2 -->
<g id="edge6" class="edge">
<title>1&#45;&gt;2</title>
<path fill="none" stroke="#f7931d" stroke-width="2" d="M584.87,-565.54C575.07,-557.86 564.02,-547.96 556,-537.25 544.32,-521.64 554.33,-507.9 538,-497.25 509.83,-478.88 470.51,-481.4 442.31,-486.8"/>
<polygon fill="#f7931d" stroke="#f7931d" stroke-width="2" points="441.52,-483.39 432.46,-488.89 442.97,-490.24 441.52,-483.39"/>
<text text-anchor="middle" x="500" y="-541.65" font-family="Times,serif" font-size="32.00">ε_1</text>
<text text-anchor="middle" x="500" y="-506.65" font-family="Times,serif" font-size="32.00">=&gt;1 2</text>
</g>
<!-- v -->
<g id="node6" class="node">
<title>v</title>
<ellipse fill="none" stroke="black" cx="841.65" cy="-378.25" rx="27" ry="30.31"/>
<text text-anchor="middle" x="841.65" y="-370.15" font-family="Times,serif" font-size="32.00">v</text>
</g>
<!-- v&#45;&gt;1 -->
<g id="edge4" class="edge">
<title>v&#45;&gt;1</title>
<path fill="none" stroke="#000000" d="M837.88,-408.73C832.82,-456.82 820.38,-546.92 796.65,-567.25 754.75,-603.14 686.43,-597.71 644.9,-589.9"/>
<polygon fill="#000000" stroke="#000000" points="645.45,-586.44 634.95,-587.89 644.06,-593.3 645.45,-586.44"/>
<text text-anchor="middle" x="737.65" y="-639.65" font-family="Times,serif" font-size="32.00">will</text>
<text text-anchor="middle" x="737.65" y="-604.65" font-family="Times,serif" font-size="32.00">=v 1</text>
</g>
<!-- v&#45;&gt;1 -->
<g id="edge7" class="edge">
<title>v&#45;&gt;1</title>
<path fill="none" stroke="#000000" d="M834.82,-408.12C828.96,-429.89 817.66,-458.27 796.65,-474.25 754.37,-506.41 720.25,-460.22 678.65,-493.25 662.1,-506.39 673.02,-520.12 660.65,-537.25 654.85,-545.29 647.29,-552.81 639.76,-559.28"/>
<polygon fill="#000000" stroke="#000000" points="637.23,-556.83 631.7,-565.87 641.66,-562.26 637.23,-556.83"/>
<text text-anchor="middle" x="737.65" y="-537.65" font-family="Times,serif" font-size="32.00">ε_2</text>
<text text-anchor="middle" x="737.65" y="-502.65" font-family="Times,serif" font-size="32.00">=&gt;v 1</text>
</g>
<!-- v&#45;&gt;2 -->
<g id="edge9" class="edge">
<title>v&#45;&gt;2</title>
<path fill="none" stroke="#f7931d" stroke-width="2" d="M830.68,-406.1C823.64,-421.5 812.59,-439.45 796.65,-449.25 764.86,-468.8 498.57,-470.79 462,-478.25 455.25,-479.63 448.18,-481.56 441.43,-483.64"/>
<polygon fill="#f7931d" stroke="#f7931d" stroke-width="2" points="440.28,-480.34 431.86,-486.77 442.46,-486.99 440.28,-480.34"/>
<text text-anchor="middle" x="608.33" y="-515.65" font-family="Times,serif" font-size="32.00">ε_3</text>
<text text-anchor="middle" x="608.33" y="-480.65" font-family="Times,serif" font-size="32.00">=&gt;v 2</text>
</g>
<!-- perf -->
<g id="node8" class="node">
<title>perf</title>
<ellipse fill="none" stroke="black" cx="608.33" cy="-331.25" rx="48.17" ry="30.31"/>
<text text-anchor="middle" x="608.33" y="-323.15" font-family="Times,serif" font-size="32.00">perf</text>
</g>
<!-- v&#45;&gt;perf -->
<g id="edge11" class="edge">
<title>v&#45;&gt;perf</title>
<path fill="none" stroke="#000000" d="M814.52,-376.41C782.24,-373.74 725.79,-367.81 678.65,-356.25 672.37,-354.71 665.87,-352.8 659.48,-350.74"/>
<polygon fill="#000000" stroke="#000000" points="660.17,-347.27 649.58,-347.38 657.93,-353.9 660.17,-347.27"/>
<text text-anchor="middle" x="737.65" y="-419.65" font-family="Times,serif" font-size="32.00">n</text>
<text text-anchor="middle" x="737.65" y="-384.65" font-family="Times,serif" font-size="32.00">=&gt;v perf</text>
</g>
<!-- prog -->
<g id="node9" class="node">
<title>prog</title>
<ellipse fill="none" stroke="black" cx="608.33" cy="-146.25" rx="52.15" ry="30.31"/>
<text text-anchor="middle" x="608.33" y="-138.15" font-family="Times,serif" font-size="32.00">prog</text>
</g>
<!-- v&#45;&gt;prog -->
<g id="edge14" class="edge">
<title>v&#45;&gt;prog</title>
<path fill="none" stroke="#000000" d="M837.24,-348.13C831.4,-302.05 818.01,-217.18 796.65,-196.25 758.29,-158.66 730.34,-184.84 678.65,-170.25 673.44,-168.78 668.05,-167.14 662.68,-165.42"/>
<polygon fill="#000000" stroke="#000000" points="663.68,-162.06 653.09,-162.26 661.5,-168.71 663.68,-162.06"/>
<text text-anchor="middle" x="737.65" y="-240.65" font-family="Times,serif" font-size="32.00">ing</text>
<text text-anchor="middle" x="737.65" y="-205.65" font-family="Times,serif" font-size="32.00">=&gt;v prog</text>
</g>
<!-- 2&#45;&gt;0 -->
<g id="edge5" class="edge">
<title>2&#45;&gt;0</title>
<path fill="none" stroke="#f7931d" stroke-width="2" d="M379.33,-491.12C352.13,-486.88 308.44,-483.54 274,-497.25 267.35,-499.9 261.11,-504.06 255.53,-508.75"/>
<polygon fill="#f7931d" stroke="#f7931d" stroke-width="2" points="252.82,-506.5 247.87,-515.87 257.58,-511.63 252.82,-506.5"/>
<text text-anchor="middle" x="312" y="-541.65" font-family="Times,serif" font-size="32.00">d</text>
<text text-anchor="middle" x="312" y="-506.65" font-family="Times,serif" font-size="32.00">=&gt;2 0</text>
</g>
<!-- perf&#45;&gt;v -->
<g id="edge8" class="edge">
<title>perf&#45;&gt;v</title>
<path fill="none" stroke="#000000" d="M638.15,-307.22C649.95,-298.87 664.21,-290.53 678.65,-286.25 728.94,-271.36 752.28,-258.29 796.65,-286.25 815.02,-297.83 825.89,-319.42 832.22,-338.78"/>
<polygon fill="#000000" stroke="#000000" points="828.95,-340.04 835.14,-348.64 835.66,-338.05 828.95,-340.04"/>
<text text-anchor="middle" x="737.65" y="-330.65" font-family="Times,serif" font-size="32.00">have</text>
<text text-anchor="middle" x="737.65" y="-295.65" font-family="Times,serif" font-size="32.00">=perf v</text>
</g>
<!-- prog&#45;&gt;v -->
<g id="edge10" class="edge">
<title>prog&#45;&gt;v</title>
<path fill="none" stroke="#000000" d="M638.75,-121.2C650.4,-112.83 664.41,-104.55 678.65,-100.25 728.86,-85.11 756.77,-66.19 796.65,-100.25 831.82,-130.29 839.03,-267.89 840.41,-337.57"/>
<polygon fill="#000000" stroke="#000000" points="836.91,-337.8 840.58,-347.74 843.91,-337.68 836.91,-337.8"/>
<text text-anchor="middle" x="737.65" y="-144.65" font-family="Times,serif" font-size="32.00">be</text>
<text text-anchor="middle" x="737.65" y="-109.65" font-family="Times,serif" font-size="32.00">=prog v</text>
</g>
<!-- 3 -->
<g id="node10" class="node">
<title>3</title>
<ellipse fill="none" stroke="black" cx="1049.65" cy="-378.25" rx="27" ry="30.31"/>
<text text-anchor="middle" x="1049.65" y="-370.15" font-family="Times,serif" font-size="32.00">3</text>
</g>
<!-- 3&#45;&gt;v -->
<g id="edge12" class="edge">
<title>3&#45;&gt;v</title>
<path fill="none" stroke="#000000" d="M1022.56,-378.25C986.21,-378.25 920.16,-378.25 879,-378.25"/>
<polygon fill="#000000" stroke="#000000" points="878.85,-374.75 868.85,-378.25 878.85,-381.75 878.85,-374.75"/>
<text text-anchor="middle" x="945.65" y="-422.65" font-family="Times,serif" font-size="32.00">ε_4</text>
<text text-anchor="middle" x="945.65" y="-387.65" font-family="Times,serif" font-size="32.00">=&gt;3 =d v</text>
</g>
<!-- z1 -->
<g id="node11" class="node">
<title>z1</title>
<ellipse fill="none" stroke="black" stroke-dasharray="5,2" cx="1297.65" cy="-425.25" rx="27" ry="18"/>
</g>
<!-- z1&#45;&gt;3 -->
<g id="edge13" class="edge">
<title>z1&#45;&gt;3</title>
<path fill="none" stroke="#000000" d="M1270.44,-425.75C1231.23,-425.75 1155.41,-422.89 1094.65,-403.25 1090.51,-401.91 1086.33,-400.16 1082.27,-398.2"/>
<polygon fill="#000000" stroke="#000000" points="1083.6,-394.94 1073.12,-393.35 1080.32,-401.12 1083.6,-394.94"/>
<text text-anchor="middle" x="1173.65" y="-504.65" font-family="Times,serif" font-size="32.00">laugh |</text>
<text text-anchor="middle" x="1173.65" y="-469.65" font-family="Times,serif" font-size="32.00"> dance</text>
<text text-anchor="middle" x="1173.65" y="-434.65" font-family="Times,serif" font-size="32.00">3</text>
</g>
<!-- 4 -->
<g id="node12" class="node">
<title>4</title>
<ellipse fill="none" stroke="black" cx="1297.65" cy="-332.25" rx="27" ry="30.31"/>
<text text-anchor="middle" x="1297.65" y="-324.15" font-family="Times,serif" font-size="32.00">4</text>
</g>
<!-- 4&#45;&gt;3 -->
<g id="edge15" class="edge">
<title>4&#45;&gt;3</title>
<path fill="none" stroke="#000000" d="M1271.16,-326.34C1231.57,-318.46 1153.74,-308.21 1094.65,-333.25 1087.15,-336.43 1080.29,-341.57 1074.33,-347.26"/>
<polygon fill="#000000" stroke="#000000" points="1071.65,-345.01 1067.28,-354.66 1076.72,-349.83 1071.65,-345.01"/>
<text text-anchor="middle" x="1173.65" y="-377.65" font-family="Times,serif" font-size="32.00">ε_5</text>
<text text-anchor="middle" x="1173.65" y="-342.65" font-family="Times,serif" font-size="32.00">=&gt;4 =d *k 3</text>
</g>
<!-- z2 -->
<g id="node13" class="node">
<title>z2</title>
<ellipse fill="none" stroke="black" stroke-dasharray="5,2" cx="1472.65" cy="-332.25" rx="27" ry="18"/>
</g>
<!-- z2&#45;&gt;4 -->
<g id="edge16" class="edge">
<title>z2&#45;&gt;4</title>
<path fill="none" stroke="#000000" d="M1445.38,-332.25C1415.95,-332.25 1368.06,-332.25 1335.05,-332.25"/>
<polygon fill="#000000" stroke="#000000" points="1334.89,-328.75 1324.89,-332.25 1334.89,-335.75 1334.89,-328.75"/>
<text text-anchor="middle" x="1385.15" y="-411.65" font-family="Times,serif" font-size="32.00">hug |</text>
<text text-anchor="middle" x="1385.15" y="-376.65" font-family="Times,serif" font-size="32.00"> praise</text>
<text text-anchor="middle" x="1385.15" y="-341.65" font-family="Times,serif" font-size="32.00">4</text>
</g>
</g>
</svg>
