<?xml version="1.0" encoding="UTF-8" standalone="no"?>
<!DOCTYPE svg PUBLIC "-//W3C//DTD SVG 1.1//EN"
 "http://www.w3.org/Graphics/SVG/1.1/DTD/svg11.dtd">
<!-- Generated by graphviz version 2.47.1 (20210417.1919)
 -->
<!-- Title: G Pages: 1 -->
<svg width="1496pt" height="1044pt"
 viewBox="0.00 0.00 1496.00 1044.00" xmlns="http://www.w3.org/2000/svg" xmlns:xlink="http://www.w3.org/1999/xlink">
<g id="graph0" class="graph" transform="scale(1 1) rotate(0) translate(4 1040)">
<title>G</title>
<polygon fill="white" stroke="transparent" points="-4,4 -4,-1040 1492,-1040 1492,4 -4,4"/>
<text text-anchor="middle" x="744" y="-48.4" font-family="Times,serif" font-size="32.00">decomposition: laughs =d +k t, laughd =d +k t, laugh =d v, laughing =d prog, laughn =d perf</text>
<text text-anchor="middle" x="744" y="-13.4" font-family="Times,serif" font-size="32.00">decomposition: dances =d +k t, danced =d +k t, dance =d v, danceing =d prog, dancen =d perf</text>
<!-- t -->
<g id="node1" class="node">
<title>t</title>
<ellipse fill="lightgray" stroke="black" cx="27" cy="-333" rx="27" ry="30.31"/>
<text text-anchor="middle" x="27" y="-324.9" font-family="Times,serif" font-size="32.00">t</text>
</g>
<!-- z0 -->
<g id="node2" class="node">
<title>z0</title>
<ellipse fill="none" stroke="black" stroke-dasharray="5,2" cx="1461" cy="-480" rx="27" ry="18"/>
</g>
<!-- d -->
<g id="node3" class="node">
<title>d</title>
<ellipse fill="none" stroke="black" cx="1301" cy="-480" rx="27" ry="30.31"/>
<text text-anchor="middle" x="1301" y="-471.9" font-family="Times,serif" font-size="32.00">d</text>
</g>
<!-- z0&#45;&gt;d -->
<g id="edge1" class="edge">
<title>z0&#45;&gt;d</title>
<path fill="none" stroke="#000000" d="M1433.91,-480C1407.84,-480 1367.53,-480 1338.34,-480"/>
<polygon fill="#000000" stroke="#000000" points="1338.13,-476.5 1328.13,-480 1338.13,-483.5 1338.13,-476.5"/>
<text text-anchor="middle" x="1381" y="-524.4" font-family="Times,serif" font-size="32.00">Mary</text>
<text text-anchor="middle" x="1381" y="-489.4" font-family="Times,serif" font-size="32.00">d &#45;k</text>
</g>
<!-- v -->
<g id="node4" class="node">
<title>v</title>
<ellipse fill="none" stroke="black" cx="852" cy="-377" rx="27" ry="30.31"/>
<text text-anchor="middle" x="852" y="-368.9" font-family="Times,serif" font-size="32.00">v</text>
</g>
<!-- d&#45;&gt;v -->
<g id="edge19" class="edge">
<title>d&#45;&gt;v</title>
<path fill="none" stroke="#000000" d="M1285.5,-455.07C1263.88,-420.71 1219.61,-360.28 1163,-336 1068.91,-295.65 945.21,-337 886.59,-361.57"/>
<polygon fill="#000000" stroke="#000000" points="884.9,-358.49 877.09,-365.65 887.66,-364.92 884.9,-358.49"/>
<text text-anchor="middle" x="1093" y="-415.4" font-family="Times,serif" font-size="32.00">hug |</text>
<text text-anchor="middle" x="1093" y="-380.4" font-family="Times,serif" font-size="32.00"> praise</text>
<text text-anchor="middle" x="1093" y="-345.4" font-family="Times,serif" font-size="32.00">=d *k =d v</text>
</g>
<!-- 0 -->
<g id="node7" class="node">
<title>0</title>
<ellipse fill="none" stroke="black" cx="1093" cy="-748" rx="27" ry="30.31"/>
<text text-anchor="middle" x="1093" y="-739.9" font-family="Times,serif" font-size="32.00">0</text>
</g>
<!-- d&#45;&gt;0 -->
<g id="edge9" class="edge">
<title>d&#45;&gt;0</title>
<path fill="none" stroke="#00b9f1" stroke-width="2" d="M1286.1,-505.63C1277.88,-520.17 1266.97,-538.51 1256,-554 1212.15,-615.93 1153.63,-682.71 1120.26,-719.53"/>
<polygon fill="#00b9f1" stroke="#00b9f1" stroke-width="2" points="1117.28,-717.61 1113.13,-727.36 1122.45,-722.32 1117.28,-717.61"/>
<text text-anchor="middle" x="1218.5" y="-691.4" font-family="Times,serif" font-size="32.00">laugh</text>
<text text-anchor="middle" x="1218.5" y="-656.4" font-family="Times,serif" font-size="32.00">=d 0</text>
</g>
<!-- 1 -->
<g id="node8" class="node">
<title>1</title>
<ellipse fill="none" stroke="black" cx="1093" cy="-480" rx="27" ry="30.31"/>
<text text-anchor="middle" x="1093" y="-471.9" font-family="Times,serif" font-size="32.00">1</text>
</g>
<!-- d&#45;&gt;1 -->
<g id="edge14" class="edge">
<title>d&#45;&gt;1</title>
<path fill="none" stroke="#f7931d" stroke-width="2" d="M1273.91,-480C1237.56,-480 1171.51,-480 1130.35,-480"/>
<polygon fill="#f7931d" stroke="#f7931d" stroke-width="2" points="1130.2,-476.5 1120.2,-480 1130.2,-483.5 1130.2,-476.5"/>
<text text-anchor="middle" x="1218.5" y="-524.4" font-family="Times,serif" font-size="32.00">dance</text>
<text text-anchor="middle" x="1218.5" y="-489.4" font-family="Times,serif" font-size="32.00">=d 1</text>
</g>
<!-- v&#45;&gt;t -->
<g id="edge2" class="edge">
<title>v&#45;&gt;t</title>
<path fill="none" stroke="#000000" d="M838.75,-350.35C826.23,-326.22 804.46,-291.69 775,-273 680.21,-212.85 609.46,-301.19 527,-225 504.98,-204.66 532.86,-178.15 509,-160 395.97,-74.02 113.37,-241.64 72,-273 62.7,-280.05 54.48,-289.6 47.75,-299"/>
<polygon fill="#000000" stroke="#000000" points="44.69,-297.27 41.98,-307.52 50.48,-301.2 44.69,-297.27"/>
<text text-anchor="middle" x="441" y="-239.4" font-family="Times,serif" font-size="32.00">wills |</text>
<text text-anchor="middle" x="441" y="-204.4" font-family="Times,serif" font-size="32.00"> willd</text>
<text text-anchor="middle" x="441" y="-169.4" font-family="Times,serif" font-size="32.00">=v +k t</text>
</g>
<!-- v&#45;&gt;t -->
<g id="edge18" class="edge">
<title>v&#45;&gt;t</title>
<path fill="none" stroke="#000000" d="M834.63,-353.51C820.93,-335.95 799.68,-313.11 775,-302 693.47,-265.28 462.2,-277.7 373,-284 259.48,-292.02 126.5,-314.71 63.96,-326.18"/>
<polygon fill="#000000" stroke="#000000" points="63.03,-322.8 53.83,-328.06 64.3,-329.68 63.03,-322.8"/>
<text text-anchor="middle" x="441" y="-363.4" font-family="Times,serif" font-size="32.00">s_2 |</text>
<text text-anchor="middle" x="441" y="-328.4" font-family="Times,serif" font-size="32.00"> d_2</text>
<text text-anchor="middle" x="441" y="-293.4" font-family="Times,serif" font-size="32.00">=&gt;v +k t</text>
</g>
<!-- perf -->
<g id="node5" class="node">
<title>perf</title>
<ellipse fill="none" stroke="black" cx="287" cy="-470" rx="48.17" ry="30.31"/>
<text text-anchor="middle" x="287" y="-461.9" font-family="Times,serif" font-size="32.00">perf</text>
</g>
<!-- v&#45;&gt;perf -->
<g id="edge21" class="edge">
<title>v&#45;&gt;perf</title>
<path fill="none" stroke="#000000" d="M827.4,-363.51C769.75,-332.52 619.68,-264.04 527,-333 504.66,-349.62 528.25,-372.89 509,-393 496.97,-405.56 402.18,-435.77 340.71,-454.39"/>
<polygon fill="#000000" stroke="#000000" points="339.33,-451.15 330.77,-457.39 341.35,-457.85 339.33,-451.15"/>
<text text-anchor="middle" x="583" y="-377.4" font-family="Times,serif" font-size="32.00">n_2</text>
<text text-anchor="middle" x="583" y="-342.4" font-family="Times,serif" font-size="32.00">=&gt;v perf</text>
</g>
<!-- prog -->
<g id="node6" class="node">
<title>prog</title>
<ellipse fill="none" stroke="black" cx="583" cy="-557" rx="52.15" ry="30.31"/>
<text text-anchor="middle" x="583" y="-548.9" font-family="Times,serif" font-size="32.00">prog</text>
</g>
<!-- v&#45;&gt;prog -->
<g id="edge20" class="edge">
<title>v&#45;&gt;prog</title>
<path fill="none" stroke="#000000" d="M838.75,-403.64C826.22,-427.76 804.44,-462.29 775,-481 729.9,-509.66 706,-482.69 657,-504 644.41,-509.48 631.88,-517.41 620.85,-525.49"/>
<polygon fill="#000000" stroke="#000000" points="618.58,-522.82 612.73,-531.65 622.81,-528.39 618.58,-522.82"/>
<text text-anchor="middle" x="716" y="-548.4" font-family="Times,serif" font-size="32.00">ing_2</text>
<text text-anchor="middle" x="716" y="-513.4" font-family="Times,serif" font-size="32.00">=&gt;v prog</text>
</g>
<!-- perf&#45;&gt;t -->
<g id="edge3" class="edge">
<title>perf&#45;&gt;t</title>
<path fill="none" stroke="#000000" d="M249.58,-450.66C199.32,-423.97 109.41,-376.23 61.01,-350.53"/>
<polygon fill="#000000" stroke="#000000" points="62.39,-347.3 51.91,-345.7 59.1,-353.48 62.39,-347.3"/>
<text text-anchor="middle" x="136.5" y="-501.4" font-family="Times,serif" font-size="32.00">haves |</text>
<text text-anchor="middle" x="136.5" y="-466.4" font-family="Times,serif" font-size="32.00"> haved</text>
<text text-anchor="middle" x="136.5" y="-431.4" font-family="Times,serif" font-size="32.00">=perf +k t</text>
</g>
<!-- perf&#45;&gt;v -->
<g id="edge4" class="edge">
<title>perf&#45;&gt;v</title>
<path fill="none" stroke="#000000" d="M335.35,-469.53C405.21,-467.12 538.48,-455.82 639,-407 648.63,-402.32 647.14,-395.16 657,-391 708.55,-369.25 774.64,-369.79 814.85,-372.88"/>
<polygon fill="#000000" stroke="#000000" points="814.72,-376.38 824.98,-373.75 815.32,-369.4 814.72,-376.38"/>
<text text-anchor="middle" x="583" y="-489.4" font-family="Times,serif" font-size="32.00">have</text>
<text text-anchor="middle" x="583" y="-454.4" font-family="Times,serif" font-size="32.00">=perf v</text>
</g>
<!-- prog&#45;&gt;t -->
<g id="edge5" class="edge">
<title>prog&#45;&gt;t</title>
<path fill="none" stroke="#000000" d="M552.75,-581.87C540.14,-591.03 524.69,-600.3 509,-605 320.28,-661.48 209.72,-671.84 72,-531 50.46,-508.98 37.81,-424.58 31.96,-373.35"/>
<polygon fill="#000000" stroke="#000000" points="35.43,-372.82 30.85,-363.27 28.47,-373.59 35.43,-372.82"/>
<text text-anchor="middle" x="287" y="-723.4" font-family="Times,serif" font-size="32.00">bes |</text>
<text text-anchor="middle" x="287" y="-688.4" font-family="Times,serif" font-size="32.00"> bed</text>
<text text-anchor="middle" x="287" y="-653.4" font-family="Times,serif" font-size="32.00">=prog +k t</text>
</g>
<!-- prog&#45;&gt;v -->
<g id="edge6" class="edge">
<title>prog&#45;&gt;v</title>
<path fill="none" stroke="#000000" d="M619.45,-534.9C626.95,-528.68 634.07,-521.31 639,-513 662.48,-473.41 624.43,-443.53 657,-411 662.57,-405.44 760.49,-390.29 815.03,-382.22"/>
<polygon fill="#000000" stroke="#000000" points="815.62,-385.67 825,-380.75 814.6,-378.75 815.62,-385.67"/>
<text text-anchor="middle" x="716" y="-455.4" font-family="Times,serif" font-size="32.00">be</text>
<text text-anchor="middle" x="716" y="-420.4" font-family="Times,serif" font-size="32.00">=prog v</text>
</g>
<!-- prog&#45;&gt;perf -->
<g id="edge7" class="edge">
<title>prog&#45;&gt;perf</title>
<path fill="none" stroke="#000000" d="M538.56,-540.94C528.87,-537.53 518.62,-534.04 509,-531 452.36,-513.12 386.67,-495.36 341.72,-483.66"/>
<polygon fill="#000000" stroke="#000000" points="342.44,-480.23 331.89,-481.11 340.69,-487 342.44,-480.23"/>
<text text-anchor="middle" x="441" y="-575.4" font-family="Times,serif" font-size="32.00">ben</text>
<text text-anchor="middle" x="441" y="-540.4" font-family="Times,serif" font-size="32.00">=prog perf</text>
</g>
<!-- 0&#45;&gt;t -->
<g id="edge8" class="edge">
<title>0&#45;&gt;t</title>
<path fill="none" stroke="#00b9f1" stroke-width="2" d="M1076.43,-772.3C1042.42,-822.08 956.21,-931 853,-931 853,-931 853,-931 286,-931 107.82,-931 135.71,-758.39 72,-592 43.77,-518.28 33.6,-425.86 29.97,-373.72"/>
<polygon fill="#00b9f1" stroke="#00b9f1" stroke-width="2" points="33.45,-373.29 29.31,-363.53 26.47,-373.74 33.45,-373.29"/>
<text text-anchor="middle" x="583" y="-1010.4" font-family="Times,serif" font-size="32.00">s |</text>
<text text-anchor="middle" x="583" y="-975.4" font-family="Times,serif" font-size="32.00"> d</text>
<text text-anchor="middle" x="583" y="-940.4" font-family="Times,serif" font-size="32.00">=&gt;0 +k t</text>
</g>
<!-- 0&#45;&gt;v -->
<g id="edge10" class="edge">
<title>0&#45;&gt;v</title>
<path fill="none" stroke="#00b9f1" stroke-width="2" d="M1074.73,-725.08C1044.01,-683.93 978.45,-594.41 929,-515 907.7,-480.79 885.74,-440.24 870.94,-411.99"/>
<polygon fill="#00b9f1" stroke="#00b9f1" stroke-width="2" points="873.93,-410.16 866.21,-402.9 867.72,-413.39 873.93,-410.16"/>
<text text-anchor="middle" x="967" y="-670.4" font-family="Times,serif" font-size="32.00">ε_0</text>
<text text-anchor="middle" x="967" y="-635.4" font-family="Times,serif" font-size="32.00">=&gt;0 v</text>
</g>
<!-- 0&#45;&gt;perf -->
<g id="edge12" class="edge">
<title>0&#45;&gt;perf</title>
<path fill="none" stroke="#00b9f1" stroke-width="2" d="M1068.2,-760.12C1034.33,-776.62 969.79,-805.32 911,-816 859.4,-825.37 844.38,-826.49 793,-816 594.19,-775.4 521.27,-775.53 373,-637 335.58,-602.04 312.04,-546.92 299.46,-509.66"/>
<polygon fill="#00b9f1" stroke="#00b9f1" stroke-width="2" points="302.77,-508.54 296.34,-500.12 296.12,-510.72 302.77,-508.54"/>
<text text-anchor="middle" x="716" y="-857.4" font-family="Times,serif" font-size="32.00">n</text>
<text text-anchor="middle" x="716" y="-822.4" font-family="Times,serif" font-size="32.00">=&gt;0 perf</text>
</g>
<!-- 0&#45;&gt;prog -->
<g id="edge11" class="edge">
<title>0&#45;&gt;prog</title>
<path fill="none" stroke="#00b9f1" stroke-width="2" d="M1065.9,-747.82C982.02,-746.75 721.14,-739.36 657,-689 627.11,-665.53 607.65,-626.26 596.4,-596.64"/>
<polygon fill="#00b9f1" stroke="#00b9f1" stroke-width="2" points="599.61,-595.21 592.9,-587 593.03,-597.6 599.61,-595.21"/>
<text text-anchor="middle" x="852" y="-786.4" font-family="Times,serif" font-size="32.00">ing</text>
<text text-anchor="middle" x="852" y="-751.4" font-family="Times,serif" font-size="32.00">=&gt;0 prog</text>
</g>
<!-- 1&#45;&gt;t -->
<g id="edge13" class="edge">
<title>1&#45;&gt;t</title>
<path fill="none" stroke="#f7931d" stroke-width="2" d="M1066.83,-471.87C1052.51,-466.21 1035.09,-457.42 1023,-445 1009.97,-431.61 1013.33,-423.73 1005,-407 939.98,-276.37 998.91,-116 853,-116 853,-116 853,-116 286,-116 251.53,-116 111.06,-155.89 72,-197 47.38,-222.91 36.54,-262.71 31.76,-292.57"/>
<polygon fill="#f7931d" stroke="#f7931d" stroke-width="2" points="28.27,-292.28 30.31,-302.68 35.19,-293.28 28.27,-292.28"/>
<text text-anchor="middle" x="583" y="-195.4" font-family="Times,serif" font-size="32.00">s_1 |</text>
<text text-anchor="middle" x="583" y="-160.4" font-family="Times,serif" font-size="32.00"> d_1</text>
<text text-anchor="middle" x="583" y="-125.4" font-family="Times,serif" font-size="32.00">=&gt;1 +k t</text>
</g>
<!-- 1&#45;&gt;v -->
<g id="edge15" class="edge">
<title>1&#45;&gt;v</title>
<path fill="none" stroke="#f7931d" stroke-width="2" d="M1067.32,-469.37C1024.37,-450.85 935.78,-412.68 887.02,-391.66"/>
<polygon fill="#f7931d" stroke="#f7931d" stroke-width="2" points="888.11,-388.32 877.54,-387.58 885.34,-394.75 888.11,-388.32"/>
<text text-anchor="middle" x="967" y="-485.4" font-family="Times,serif" font-size="32.00">ε_1</text>
<text text-anchor="middle" x="967" y="-450.4" font-family="Times,serif" font-size="32.00">=&gt;1 v</text>
</g>
<!-- 1&#45;&gt;perf -->
<g id="edge17" class="edge">
<title>1&#45;&gt;perf</title>
<path fill="none" stroke="#f7931d" stroke-width="2" d="M1068.82,-493.84C975.25,-547.76 618.54,-734.38 373,-601 337.38,-581.65 314.37,-540.21 301.39,-509.09"/>
<polygon fill="#f7931d" stroke="#f7931d" stroke-width="2" points="304.64,-507.79 297.68,-499.8 298.14,-510.38 304.64,-507.79"/>
<text text-anchor="middle" x="716" y="-687.4" font-family="Times,serif" font-size="32.00">n_1</text>
<text text-anchor="middle" x="716" y="-652.4" font-family="Times,serif" font-size="32.00">=&gt;1 perf</text>
</g>
<!-- 1&#45;&gt;prog -->
<g id="edge16" class="edge">
<title>1&#45;&gt;prog</title>
<path fill="none" stroke="#f7931d" stroke-width="2" d="M1081.12,-507.5C1067.79,-537.51 1042.27,-584.64 1005,-610 925.28,-664.23 882.5,-620.14 793,-656 784.3,-659.49 784.03,-664.46 775,-667 724.52,-681.2 703.21,-691.79 657,-667 629.15,-652.06 610.13,-621.3 598.5,-596.1"/>
<polygon fill="#f7931d" stroke="#f7931d" stroke-width="2" points="601.62,-594.51 594.4,-586.76 595.21,-597.32 601.62,-594.51"/>
<text text-anchor="middle" x="852" y="-700.4" font-family="Times,serif" font-size="32.00">ing_1</text>
<text text-anchor="middle" x="852" y="-665.4" font-family="Times,serif" font-size="32.00">=&gt;1 prog</text>
</g>
</g>
</svg>
