<?xml version="1.0" encoding="UTF-8" standalone="no"?>
<!DOCTYPE svg PUBLIC "-//W3C//DTD SVG 1.1//EN"
 "http://www.w3.org/Graphics/SVG/1.1/DTD/svg11.dtd">
<!-- Generated by graphviz version 2.47.1 (20210417.1919)
 -->
<!-- Title: G Pages: 1 -->
<svg width="1492pt" height="803pt"
 viewBox="0.00 0.00 1492.00 803.00" xmlns="http://www.w3.org/2000/svg" xmlns:xlink="http://www.w3.org/1999/xlink">
<g id="graph0" class="graph" transform="scale(1 1) rotate(0) translate(4 799)">
<title>G</title>
<polygon fill="white" stroke="transparent" points="-4,4 -4,-799 1488,-799 1488,4 -4,4"/>
<text text-anchor="middle" x="742" y="-13.4" font-family="Times,serif" font-size="32.00">single contraction: 1 → v</text>
<!-- t -->
<g id="node1" class="node">
<title>t</title>
<ellipse fill="lightgray" stroke="black" cx="27" cy="-349" rx="27" ry="30.31"/>
<text text-anchor="middle" x="27" y="-340.9" font-family="Times,serif" font-size="32.00">t</text>
</g>
<!-- z0 -->
<g id="node2" class="node">
<title>z0</title>
<ellipse fill="none" stroke="black" stroke-dasharray="5,2" cx="1457" cy="-354" rx="27" ry="18"/>
</g>
<!-- d -->
<g id="node3" class="node">
<title>d</title>
<ellipse fill="none" stroke="black" cx="1297" cy="-354" rx="27" ry="30.31"/>
<text text-anchor="middle" x="1297" y="-345.9" font-family="Times,serif" font-size="32.00">d</text>
</g>
<!-- z0&#45;&gt;d -->
<g id="edge1" class="edge">
<title>z0&#45;&gt;d</title>
<path fill="none" stroke="#000000" d="M1429.91,-354C1403.84,-354 1363.53,-354 1334.34,-354"/>
<polygon fill="#000000" stroke="#000000" points="1334.13,-350.5 1324.13,-354 1334.13,-357.5 1334.13,-350.5"/>
<text text-anchor="middle" x="1377" y="-398.4" font-family="Times,serif" font-size="32.00">Mary</text>
<text text-anchor="middle" x="1377" y="-363.4" font-family="Times,serif" font-size="32.00">d &#45;k</text>
</g>
<!-- v -->
<g id="node4" class="node">
<title>v</title>
<ellipse fill="none" stroke="black" cx="852" cy="-447" rx="27" ry="30.31"/>
<text text-anchor="middle" x="852" y="-438.9" font-family="Times,serif" font-size="32.00">v</text>
</g>
<!-- d&#45;&gt;v -->
<g id="edge14" class="edge">
<title>d&#45;&gt;v</title>
<path fill="none" stroke="#000000" d="M1278.06,-375.92C1254.77,-402.45 1211.35,-445.72 1163,-463 1068.45,-496.79 947.33,-472.92 888.39,-457.42"/>
<polygon fill="#000000" stroke="#000000" points="889.03,-453.97 878.46,-454.74 887.2,-460.73 889.03,-453.97"/>
<text text-anchor="middle" x="1093" y="-524.4" font-family="Times,serif" font-size="32.00">dance</text>
<text text-anchor="middle" x="1093" y="-489.4" font-family="Times,serif" font-size="32.00">=d v</text>
</g>
<!-- d&#45;&gt;v -->
<g id="edge17" class="edge">
<title>d&#45;&gt;v</title>
<path fill="none" stroke="#000000" d="M1269.87,-349.77C1220.64,-342.73 1111.16,-331.46 1023,-354 969.89,-367.58 915.52,-401.55 883.01,-424.45"/>
<polygon fill="#000000" stroke="#000000" points="880.93,-421.63 874.83,-430.3 885,-427.33 880.93,-421.63"/>
<text text-anchor="middle" x="1093" y="-433.4" font-family="Times,serif" font-size="32.00">hug |</text>
<text text-anchor="middle" x="1093" y="-398.4" font-family="Times,serif" font-size="32.00"> praise</text>
<text text-anchor="middle" x="1093" y="-363.4" font-family="Times,serif" font-size="32.00">=d *k =d v</text>
</g>
<!-- 0 -->
<g id="node7" class="node">
<title>0</title>
<ellipse fill="none" stroke="black" cx="1093" cy="-236" rx="27" ry="30.31"/>
<text text-anchor="middle" x="1093" y="-227.9" font-family="Times,serif" font-size="32.00">0</text>
</g>
<!-- d&#45;&gt;0 -->
<g id="edge9" class="edge">
<title>d&#45;&gt;0</title>
<path fill="none" stroke="#000000" d="M1287.95,-325.27C1281.29,-306.75 1269.95,-283.65 1252,-270 1216.68,-243.14 1164.7,-236.49 1130.13,-235.33"/>
<polygon fill="#000000" stroke="#000000" points="1130.06,-231.83 1119.99,-235.13 1129.92,-238.83 1130.06,-231.83"/>
<text text-anchor="middle" x="1216.5" y="-314.4" font-family="Times,serif" font-size="32.00">laugh</text>
<text text-anchor="middle" x="1216.5" y="-279.4" font-family="Times,serif" font-size="32.00">=d 0</text>
</g>
<!-- v&#45;&gt;t -->
<g id="edge2" class="edge">
<title>v&#45;&gt;t</title>
<path fill="none" stroke="#000000" d="M842.14,-475.4C831.13,-506.27 809.47,-555.05 775,-584 634.66,-701.89 554.27,-703.08 373,-676 234.65,-655.33 165.25,-688.27 72,-584 46.81,-555.83 35.2,-448.87 30.59,-389.43"/>
<polygon fill="#000000" stroke="#000000" points="34.06,-388.98 29.83,-379.27 27.08,-389.5 34.06,-388.98"/>
<text text-anchor="middle" x="441" y="-769.4" font-family="Times,serif" font-size="32.00">wills |</text>
<text text-anchor="middle" x="441" y="-734.4" font-family="Times,serif" font-size="32.00"> willd</text>
<text text-anchor="middle" x="441" y="-699.4" font-family="Times,serif" font-size="32.00">=v +k t</text>
</g>
<!-- v&#45;&gt;t -->
<g id="edge13" class="edge">
<title>v&#45;&gt;t</title>
<path fill="none" stroke="#000000" d="M827.92,-460.97C790.08,-482.97 711.77,-524.74 639,-540 590.28,-550.22 576.58,-544.43 527,-540 322.34,-521.71 231.42,-587.64 72,-458 51.17,-441.06 40.13,-412.76 34.32,-389.23"/>
<polygon fill="#000000" stroke="#000000" points="37.66,-388.15 32.07,-379.16 30.83,-389.68 37.66,-388.15"/>
<text text-anchor="middle" x="441" y="-617.4" font-family="Times,serif" font-size="32.00">s_1 |</text>
<text text-anchor="middle" x="441" y="-582.4" font-family="Times,serif" font-size="32.00"> d_1</text>
<text text-anchor="middle" x="441" y="-547.4" font-family="Times,serif" font-size="32.00">=&gt;v +k t</text>
</g>
<!-- perf -->
<g id="node5" class="node">
<title>perf</title>
<ellipse fill="none" stroke="black" cx="287" cy="-349" rx="48.17" ry="30.31"/>
<text text-anchor="middle" x="287" y="-340.9" font-family="Times,serif" font-size="32.00">perf</text>
</g>
<!-- v&#45;&gt;perf -->
<g id="edge16" class="edge">
<title>v&#45;&gt;perf</title>
<path fill="none" stroke="#000000" d="M825.07,-451.7C810.43,-454.11 791.75,-456.79 775,-458 665.01,-465.92 634.36,-475.21 527,-450 456.29,-433.39 379.83,-397.64 332.92,-373.44"/>
<polygon fill="#000000" stroke="#000000" points="334.43,-370.28 323.95,-368.77 331.2,-376.49 334.43,-370.28"/>
<text text-anchor="middle" x="583" y="-510.4" font-family="Times,serif" font-size="32.00">n_1</text>
<text text-anchor="middle" x="583" y="-475.4" font-family="Times,serif" font-size="32.00">=&gt;v perf</text>
</g>
<!-- prog -->
<g id="node6" class="node">
<title>prog</title>
<ellipse fill="none" stroke="black" cx="583" cy="-272" rx="52.15" ry="30.31"/>
<text text-anchor="middle" x="583" y="-263.9" font-family="Times,serif" font-size="32.00">prog</text>
</g>
<!-- v&#45;&gt;prog -->
<g id="edge15" class="edge">
<title>v&#45;&gt;prog</title>
<path fill="none" stroke="#000000" d="M835.64,-422.79C822.08,-403.5 800.52,-377.41 775,-363 728.47,-336.73 704.61,-364.26 657,-340 641.02,-331.86 626.03,-319.19 613.84,-306.97"/>
<polygon fill="#000000" stroke="#000000" points="616.08,-304.25 606.63,-299.47 611.04,-309.11 616.08,-304.25"/>
<text text-anchor="middle" x="716" y="-407.4" font-family="Times,serif" font-size="32.00">ing_1</text>
<text text-anchor="middle" x="716" y="-372.4" font-family="Times,serif" font-size="32.00">=&gt;v prog</text>
</g>
<!-- perf&#45;&gt;t -->
<g id="edge3" class="edge">
<title>perf&#45;&gt;t</title>
<path fill="none" stroke="#000000" d="M238.68,-349C188.34,-349 109.81,-349 64.19,-349"/>
<polygon fill="#000000" stroke="#000000" points="64.15,-345.5 54.15,-349 64.15,-352.5 64.15,-345.5"/>
<text text-anchor="middle" x="136.5" y="-428.4" font-family="Times,serif" font-size="32.00">haves |</text>
<text text-anchor="middle" x="136.5" y="-393.4" font-family="Times,serif" font-size="32.00"> haved</text>
<text text-anchor="middle" x="136.5" y="-358.4" font-family="Times,serif" font-size="32.00">=perf +k t</text>
</g>
<!-- perf&#45;&gt;v -->
<g id="edge4" class="edge">
<title>perf&#45;&gt;v</title>
<path fill="none" stroke="#000000" d="M335.22,-351.81C428.23,-357.52 627.23,-370.75 639,-380 658.56,-395.37 637.31,-417.79 657,-433 702.43,-468.09 773.06,-462.75 815.4,-455.2"/>
<polygon fill="#000000" stroke="#000000" points="816.1,-458.63 825.26,-453.31 814.78,-451.76 816.1,-458.63"/>
<text text-anchor="middle" x="583" y="-424.4" font-family="Times,serif" font-size="32.00">have</text>
<text text-anchor="middle" x="583" y="-389.4" font-family="Times,serif" font-size="32.00">=perf v</text>
</g>
<!-- prog&#45;&gt;t -->
<g id="edge5" class="edge">
<title>prog&#45;&gt;t</title>
<path fill="none" stroke="#000000" d="M542.95,-252.23C475.46,-220.82 333.25,-166.76 219,-205 150.9,-227.79 87.65,-285.5 53.78,-320.55"/>
<polygon fill="#000000" stroke="#000000" points="50.96,-318.43 46.6,-328.09 56.03,-323.25 50.96,-318.43"/>
<text text-anchor="middle" x="287" y="-284.4" font-family="Times,serif" font-size="32.00">bes |</text>
<text text-anchor="middle" x="287" y="-249.4" font-family="Times,serif" font-size="32.00"> bed</text>
<text text-anchor="middle" x="287" y="-214.4" font-family="Times,serif" font-size="32.00">=prog +k t</text>
</g>
<!-- prog&#45;&gt;v -->
<g id="edge6" class="edge">
<title>prog&#45;&gt;v</title>
<path fill="none" stroke="#000000" d="M629.69,-258.11C671.11,-248.42 732.08,-241.72 775,-270 776.58,-271.04 813.85,-358.94 835.6,-410.46"/>
<polygon fill="#000000" stroke="#000000" points="832.49,-412.08 839.6,-419.94 838.94,-409.36 832.49,-412.08"/>
<text text-anchor="middle" x="716" y="-314.4" font-family="Times,serif" font-size="32.00">be</text>
<text text-anchor="middle" x="716" y="-279.4" font-family="Times,serif" font-size="32.00">=prog v</text>
</g>
<!-- prog&#45;&gt;perf -->
<g id="edge7" class="edge">
<title>prog&#45;&gt;perf</title>
<path fill="none" stroke="#000000" d="M531.86,-265.29C488.22,-261.53 424.13,-261.15 373,-282 363.09,-286.04 363.26,-291.2 355,-298 346.1,-305.33 336.32,-312.98 327.05,-320.07"/>
<polygon fill="#000000" stroke="#000000" points="324.92,-317.29 319.07,-326.12 329.15,-322.87 324.92,-317.29"/>
<text text-anchor="middle" x="441" y="-326.4" font-family="Times,serif" font-size="32.00">ben</text>
<text text-anchor="middle" x="441" y="-291.4" font-family="Times,serif" font-size="32.00">=prog perf</text>
</g>
<!-- 0&#45;&gt;t -->
<g id="edge8" class="edge">
<title>0&#45;&gt;t</title>
<path fill="none" stroke="#000000" d="M1074.18,-213.79C1037.63,-170.93 949.44,-81 853,-81 853,-81 853,-81 286,-81 175.17,-81 140.66,-122 72,-209 49.27,-237.8 38.19,-278.51 32.84,-308.61"/>
<polygon fill="#000000" stroke="#000000" points="29.34,-308.34 31.18,-318.77 36.25,-309.47 29.34,-308.34"/>
<text text-anchor="middle" x="583" y="-160.4" font-family="Times,serif" font-size="32.00">s |</text>
<text text-anchor="middle" x="583" y="-125.4" font-family="Times,serif" font-size="32.00"> d</text>
<text text-anchor="middle" x="583" y="-90.4" font-family="Times,serif" font-size="32.00">=&gt;0 +k t</text>
</g>
<!-- 0&#45;&gt;v -->
<g id="edge10" class="edge">
<title>0&#45;&gt;v</title>
<path fill="none" stroke="#000000" d="M1066.18,-240.05C1022.94,-247.02 939.55,-261.38 929,-270 927.54,-271.2 890.21,-359.03 868.43,-410.5"/>
<polygon fill="#000000" stroke="#000000" points="865.09,-409.39 864.42,-419.97 871.54,-412.12 865.09,-409.39"/>
<text text-anchor="middle" x="967" y="-314.4" font-family="Times,serif" font-size="32.00">ε_0</text>
<text text-anchor="middle" x="967" y="-279.4" font-family="Times,serif" font-size="32.00">=&gt;0 v</text>
</g>
<!-- 0&#45;&gt;perf -->
<g id="edge12" class="edge">
<title>0&#45;&gt;perf</title>
<path fill="none" stroke="#000000" d="M1068.7,-222.63C1000.89,-185.64 799.39,-89.39 657,-164 644.55,-170.52 650.51,-181.93 639,-190 538.89,-260.16 462.18,-176.39 373,-260 354.54,-277.3 371.41,-294.74 355,-314 350.2,-319.63 344.27,-324.48 337.93,-328.62"/>
<polygon fill="#000000" stroke="#000000" points="335.94,-325.73 329.11,-333.83 339.5,-331.76 335.94,-325.73"/>
<text text-anchor="middle" x="716" y="-208.4" font-family="Times,serif" font-size="32.00">n</text>
<text text-anchor="middle" x="716" y="-173.4" font-family="Times,serif" font-size="32.00">=&gt;0 perf</text>
</g>
<!-- 0&#45;&gt;prog -->
<g id="edge11" class="edge">
<title>0&#45;&gt;prog</title>
<path fill="none" stroke="#000000" d="M1065.78,-234.49C997.76,-231.07 810.23,-224.89 657,-250 650.83,-251.01 644.45,-252.4 638.15,-253.99"/>
<polygon fill="#000000" stroke="#000000" points="637.09,-250.65 628.35,-256.63 638.92,-257.41 637.09,-250.65"/>
<text text-anchor="middle" x="852" y="-280.4" font-family="Times,serif" font-size="32.00">ing</text>
<text text-anchor="middle" x="852" y="-245.4" font-family="Times,serif" font-size="32.00">=&gt;0 prog</text>
</g>
</g>
</svg>
