<?xml version="1.0" encoding="UTF-8" standalone="no"?>
<!DOCTYPE svg PUBLIC "-//W3C//DTD SVG 1.1//EN"
 "http://www.w3.org/Graphics/SVG/1.1/DTD/svg11.dtd">
<!-- Generated by graphviz version 2.47.1 (20210417.1919)
 -->
<!-- Title: G Pages: 1 -->
<svg width="1218pt" height="731pt"
 viewBox="0.00 0.00 1217.82 731.44" xmlns="http://www.w3.org/2000/svg" xmlns:xlink="http://www.w3.org/1999/xlink">
<g id="graph0" class="graph" transform="scale(1 1) rotate(0) translate(4 727.44)">
<title>G</title>
<polygon fill="white" stroke="transparent" points="-4,4 -4,-727.44 1213.82,-727.44 1213.82,4 -4,4"/>
<text text-anchor="middle" x="604.91" y="-13.4" font-family="Times,serif" font-size="32.00">decomposition: ben =prog perf, dancen =d perf, laughn =d perf, n =&gt;v perf</text>
<!-- t -->
<g id="node1" class="node">
<title>t</title>
<ellipse fill="lightgray" stroke="black" cx="486.49" cy="-429.44" rx="27" ry="30.31"/>
<text text-anchor="middle" x="486.49" y="-421.34" font-family="Times,serif" font-size="32.00">t</text>
</g>
<!-- z0 -->
<g id="node2" class="node">
<title>z0</title>
<ellipse fill="none" stroke="black" stroke-dasharray="5,2" cx="1182.82" cy="-226.44" rx="27" ry="18"/>
</g>
<!-- d -->
<g id="node3" class="node">
<title>d</title>
<ellipse fill="none" stroke="black" cx="1022.82" cy="-226.44" rx="27" ry="30.31"/>
<text text-anchor="middle" x="1022.82" y="-218.34" font-family="Times,serif" font-size="32.00">d</text>
</g>
<!-- z0&#45;&gt;d -->
<g id="edge1" class="edge">
<title>z0&#45;&gt;d</title>
<path fill="none" stroke="#000000" d="M1155.73,-226.44C1129.65,-226.44 1089.35,-226.44 1060.15,-226.44"/>
<polygon fill="#000000" stroke="#000000" points="1059.95,-222.94 1049.95,-226.44 1059.95,-229.94 1059.95,-222.94"/>
<text text-anchor="middle" x="1102.82" y="-270.84" font-family="Times,serif" font-size="32.00">Mary</text>
<text text-anchor="middle" x="1102.82" y="-235.84" font-family="Times,serif" font-size="32.00">d &#45;k</text>
</g>
<!-- v -->
<g id="node4" class="node">
<title>v</title>
<ellipse fill="none" stroke="black" cx="756.32" cy="-371.44" rx="27" ry="30.31"/>
<text text-anchor="middle" x="756.32" y="-363.34" font-family="Times,serif" font-size="32.00">v</text>
</g>
<!-- d&#45;&gt;v -->
<g id="edge8" class="edge">
<title>d&#45;&gt;v</title>
<path fill="none" stroke="#000000" d="M1019.86,-256.75C1016.26,-285.43 1006.14,-327.31 977.82,-349.44 924.56,-391.07 840.53,-385.92 793.06,-378.59"/>
<polygon fill="#000000" stroke="#000000" points="793.39,-375.1 782.95,-376.91 792.24,-382 793.39,-375.1"/>
<text text-anchor="middle" x="907.82" y="-463.84" font-family="Times,serif" font-size="32.00">laugh |</text>
<text text-anchor="middle" x="907.82" y="-428.84" font-family="Times,serif" font-size="32.00"> dance</text>
<text text-anchor="middle" x="907.82" y="-393.84" font-family="Times,serif" font-size="32.00">=d v</text>
</g>
<!-- d&#45;&gt;v -->
<g id="edge11" class="edge">
<title>d&#45;&gt;v</title>
<path fill="none" stroke="#000000" d="M995.68,-224.77C950.59,-222.48 860.81,-220.63 837.82,-240.44 810.54,-263.95 838.65,-288.75 819.82,-319.44 812.11,-332 800.3,-342.96 789.01,-351.54"/>
<polygon fill="#000000" stroke="#000000" points="786.62,-348.95 780.55,-357.63 790.71,-354.63 786.62,-348.95"/>
<text text-anchor="middle" x="907.82" y="-319.84" font-family="Times,serif" font-size="32.00">hug |</text>
<text text-anchor="middle" x="907.82" y="-284.84" font-family="Times,serif" font-size="32.00"> praise</text>
<text text-anchor="middle" x="907.82" y="-249.84" font-family="Times,serif" font-size="32.00">=d *k =d v</text>
</g>
<!-- prog -->
<g id="node6" class="node">
<title>prog</title>
<ellipse fill="none" stroke="black" cx="486.49" cy="-289.44" rx="52.15" ry="30.31"/>
<text text-anchor="middle" x="486.49" y="-281.34" font-family="Times,serif" font-size="32.00">prog</text>
</g>
<!-- d&#45;&gt;prog -->
<g id="edge9" class="edge">
<title>d&#45;&gt;prog</title>
<path fill="none" stroke="#000000" d="M995.77,-223.82C910.02,-215.58 637.43,-192.56 556.82,-224.44 541.09,-230.66 526.83,-242.33 515.4,-254.08"/>
<polygon fill="#000000" stroke="#000000" points="512.52,-252.04 508.31,-261.76 517.67,-256.79 512.52,-252.04"/>
<text text-anchor="middle" x="756.32" y="-290.84" font-family="Times,serif" font-size="32.00">laughing |</text>
<text text-anchor="middle" x="756.32" y="-255.84" font-family="Times,serif" font-size="32.00"> danceing</text>
<text text-anchor="middle" x="756.32" y="-220.84" font-family="Times,serif" font-size="32.00">=d prog</text>
</g>
<!-- 0 -->
<g id="node7" class="node">
<title>0</title>
<ellipse fill="none" stroke="black" cx="271.17" cy="-452.44" rx="27" ry="30.31"/>
<text text-anchor="middle" x="271.17" y="-444.34" font-family="Times,serif" font-size="32.00">0</text>
</g>
<!-- d&#45;&gt;0 -->
<g id="edge10" class="edge">
<title>d&#45;&gt;0</title>
<path fill="none" stroke="#f7931d" stroke-width="2" d="M999.35,-210.17C930.97,-162.77 720.09,-32.35 556.82,-100.44 416.53,-158.95 399.73,-216.48 316.17,-343.44 301.86,-365.17 290.9,-392.29 283.49,-414.04"/>
<polygon fill="#f7931d" stroke="#f7931d" stroke-width="2" points="280.14,-413.02 280.33,-423.62 286.79,-415.21 280.14,-413.02"/>
<text text-anchor="middle" x="615.82" y="-179.84" font-family="Times,serif" font-size="32.00">laugh_1 |</text>
<text text-anchor="middle" x="615.82" y="-144.84" font-family="Times,serif" font-size="32.00"> dance_1</text>
<text text-anchor="middle" x="615.82" y="-109.84" font-family="Times,serif" font-size="32.00">=d 0</text>
</g>
<!-- v&#45;&gt;t -->
<g id="edge2" class="edge">
<title>v&#45;&gt;t</title>
<path fill="none" stroke="#000000" d="M731.72,-384.29C716.04,-392.24 694.74,-401.96 674.82,-407.44 623.6,-421.55 562.06,-426.61 523.85,-428.43"/>
<polygon fill="#000000" stroke="#000000" points="523.57,-424.94 513.72,-428.86 523.86,-431.93 523.57,-424.94"/>
<text text-anchor="middle" x="615.82" y="-504.84" font-family="Times,serif" font-size="32.00">s |</text>
<text text-anchor="middle" x="615.82" y="-469.84" font-family="Times,serif" font-size="32.00"> d</text>
<text text-anchor="middle" x="615.82" y="-434.84" font-family="Times,serif" font-size="32.00">=&gt;v +k t</text>
</g>
<!-- v&#45;&gt;v -->
<g id="edge3" class="edge">
<title>v&#45;&gt;v</title>
<path fill="none" stroke="#000000" d="M778.4,-389.06C788.15,-404.07 780.79,-419.85 756.32,-419.85 737.01,-419.85 728.35,-410.03 730.35,-398.51"/>
<polygon fill="#000000" stroke="#000000" points="733.67,-399.64 734.24,-389.06 727.19,-396.98 733.67,-399.64"/>
<text text-anchor="middle" x="756.32" y="-464.25" font-family="Times,serif" font-size="32.00">will</text>
<text text-anchor="middle" x="756.32" y="-429.25" font-family="Times,serif" font-size="32.00">=v v</text>
</g>
<!-- v&#45;&gt;prog -->
<g id="edge12" class="edge">
<title>v&#45;&gt;prog</title>
<path fill="none" stroke="#000000" d="M731.72,-358.14C716.04,-349.85 694.75,-339.62 674.82,-333.44 624.08,-317.73 608.25,-327.73 556.82,-314.44 551.4,-313.04 545.81,-311.39 540.26,-309.61"/>
<polygon fill="#000000" stroke="#000000" points="540.96,-306.16 530.37,-306.31 538.75,-312.8 540.96,-306.16"/>
<text text-anchor="middle" x="615.82" y="-377.84" font-family="Times,serif" font-size="32.00">ing</text>
<text text-anchor="middle" x="615.82" y="-342.84" font-family="Times,serif" font-size="32.00">=&gt;v prog</text>
</g>
<!-- v&#45;&gt;0 -->
<g id="edge13" class="edge">
<title>v&#45;&gt;0</title>
<path fill="none" stroke="#f7931d" stroke-width="2" d="M750.33,-401.32C742.12,-439.82 721.73,-505.29 674.82,-534.44 607.36,-576.36 355.46,-509.26 316.17,-490.44 310.31,-487.64 304.62,-483.85 299.38,-479.74"/>
<polygon fill="#f7931d" stroke="#f7931d" stroke-width="2" points="301.46,-476.91 291.56,-473.12 296.94,-482.25 301.46,-476.91"/>
<text text-anchor="middle" x="486.49" y="-586.84" font-family="Times,serif" font-size="32.00">ε_0</text>
<text text-anchor="middle" x="486.49" y="-551.84" font-family="Times,serif" font-size="32.00">=&gt;v 0</text>
</g>
<!-- perf -->
<g id="node5" class="node">
<title>perf</title>
<ellipse fill="none" stroke="black" cx="48.08" cy="-598.44" rx="48.17" ry="30.31"/>
<text text-anchor="middle" x="48.08" y="-590.34" font-family="Times,serif" font-size="32.00">perf</text>
</g>
<!-- perf&#45;&gt;v -->
<g id="edge4" class="edge">
<title>perf&#45;&gt;v</title>
<path fill="none" stroke="#000000" d="M84.94,-618.31C94.19,-622.49 104.32,-626.28 114.17,-628.44 298.59,-668.9 355.11,-660.05 538.82,-616.44 603.45,-601.1 628.16,-601.73 674.82,-554.44 714.49,-514.24 736.25,-451.22 746.84,-410.62"/>
<polygon fill="#000000" stroke="#000000" points="750.26,-411.36 749.3,-400.81 743.47,-409.66 750.26,-411.36"/>
<text text-anchor="middle" x="366.17" y="-697.84" font-family="Times,serif" font-size="32.00">have</text>
<text text-anchor="middle" x="366.17" y="-662.84" font-family="Times,serif" font-size="32.00">=perf v</text>
</g>
<!-- prog&#45;&gt;v -->
<g id="edge5" class="edge">
<title>prog&#45;&gt;v</title>
<path fill="none" stroke="#000000" d="M517.34,-264.69C528.93,-256.59 542.78,-248.6 556.82,-244.44 607.1,-229.55 633.63,-211.97 674.82,-244.44 701.74,-265.67 674.72,-290.33 692.82,-319.44 700.6,-331.96 712.43,-342.91 723.71,-351.5"/>
<polygon fill="#000000" stroke="#000000" points="721.99,-354.58 732.15,-357.59 726.09,-348.9 721.99,-354.58"/>
<text text-anchor="middle" x="615.82" y="-288.84" font-family="Times,serif" font-size="32.00">be</text>
<text text-anchor="middle" x="615.82" y="-253.84" font-family="Times,serif" font-size="32.00">=prog v</text>
</g>
<!-- prog&#45;&gt;0 -->
<g id="edge7" class="edge">
<title>prog&#45;&gt;0</title>
<path fill="none" stroke="#f7931d" stroke-width="2" d="M454.02,-313.49C413.11,-344.75 342.2,-398.93 302.08,-429.58"/>
<polygon fill="#f7931d" stroke="#f7931d" stroke-width="2" points="299.83,-426.9 294.01,-435.75 304.08,-432.46 299.83,-426.9"/>
<text text-anchor="middle" x="366.17" y="-460.84" font-family="Times,serif" font-size="32.00">be_1</text>
<text text-anchor="middle" x="366.17" y="-425.84" font-family="Times,serif" font-size="32.00">=prog 0</text>
</g>
<!-- 0&#45;&gt;perf -->
<g id="edge6" class="edge">
<title>0&#45;&gt;perf</title>
<path fill="none" stroke="#f7931d" stroke-width="2" d="M247.34,-467.52C210.44,-491.88 137.15,-540.28 90.76,-570.92"/>
<polygon fill="#f7931d" stroke="#f7931d" stroke-width="2" points="88.56,-568.18 82.14,-576.61 92.42,-574.02 88.56,-568.18"/>
<text text-anchor="middle" x="170.17" y="-598.84" font-family="Times,serif" font-size="32.00">n</text>
<text text-anchor="middle" x="170.17" y="-563.84" font-family="Times,serif" font-size="32.00">=&gt;0 perf</text>
</g>
</g>
</svg>
