<?xml version="1.0" encoding="UTF-8" standalone="no"?>
<!DOCTYPE svg PUBLIC "-//W3C//DTD SVG 1.1//EN"
 "http://www.w3.org/Graphics/SVG/1.1/DTD/svg11.dtd">
<!-- Generated by graphviz version 2.47.1 (20210417.1919)
 -->
<!-- Title: G Pages: 1 -->
<svg width="784pt" height="604pt"
 viewBox="0.00 0.00 783.65 604.00" xmlns="http://www.w3.org/2000/svg" xmlns:xlink="http://www.w3.org/1999/xlink">
<g id="graph0" class="graph" transform="scale(1 1) rotate(0) translate(4 600)">
<title>G</title>
<polygon fill="white" stroke="transparent" points="-4,4 -4,-600 779.65,-600 779.65,4 -4,4"/>
<text text-anchor="middle" x="387.83" y="-13.4" font-family="Times,serif" font-size="32.00">single contraction: v → 0</text>
<!-- t -->
<g id="node1" class="node">
<title>t</title>
<ellipse fill="lightgray" stroke="black" cx="52.33" cy="-487" rx="27" ry="30.31"/>
<text text-anchor="middle" x="52.33" y="-478.9" font-family="Times,serif" font-size="32.00">t</text>
</g>
<!-- z0 -->
<g id="node2" class="node">
<title>z0</title>
<ellipse fill="none" stroke="black" stroke-dasharray="5,2" cx="748.65" cy="-144" rx="27" ry="18"/>
</g>
<!-- d -->
<g id="node3" class="node">
<title>d</title>
<ellipse fill="none" stroke="black" cx="588.65" cy="-144" rx="27" ry="30.31"/>
<text text-anchor="middle" x="588.65" y="-135.9" font-family="Times,serif" font-size="32.00">d</text>
</g>
<!-- z0&#45;&gt;d -->
<g id="edge1" class="edge">
<title>z0&#45;&gt;d</title>
<path fill="none" stroke="#000000" d="M721.56,-144C695.49,-144 655.19,-144 625.99,-144"/>
<polygon fill="#000000" stroke="#000000" points="625.78,-140.5 615.78,-144 625.78,-147.5 625.78,-140.5"/>
<text text-anchor="middle" x="668.65" y="-188.4" font-family="Times,serif" font-size="32.00">Mary</text>
<text text-anchor="middle" x="668.65" y="-153.4" font-family="Times,serif" font-size="32.00">d &#45;k</text>
</g>
<!-- v -->
<g id="node4" class="node">
<title>v</title>
<ellipse fill="none" stroke="black" cx="322.15" cy="-272" rx="27" ry="30.31"/>
<text text-anchor="middle" x="322.15" y="-263.9" font-family="Times,serif" font-size="32.00">v</text>
</g>
<!-- d&#45;&gt;v -->
<g id="edge7" class="edge">
<title>d&#45;&gt;v</title>
<path fill="none" stroke="#000000" d="M583.61,-174.31C578.63,-198.85 567.65,-232.19 543.65,-250 489.51,-290.17 406.16,-285.65 358.97,-278.8"/>
<polygon fill="#000000" stroke="#000000" points="359.33,-275.32 348.91,-277.23 358.25,-282.23 359.33,-275.32"/>
<text text-anchor="middle" x="473.65" y="-362.4" font-family="Times,serif" font-size="32.00">laugh |</text>
<text text-anchor="middle" x="473.65" y="-327.4" font-family="Times,serif" font-size="32.00"> dance</text>
<text text-anchor="middle" x="473.65" y="-292.4" font-family="Times,serif" font-size="32.00">=d v</text>
</g>
<!-- d&#45;&gt;v -->
<g id="edge9" class="edge">
<title>d&#45;&gt;v</title>
<path fill="none" stroke="#000000" d="M562.66,-135.11C524.55,-123.27 451.35,-107.47 403.65,-141 384.33,-154.58 397,-170.28 385.65,-191 375.42,-209.66 361.08,-228.59 348.71,-243.46"/>
<polygon fill="#000000" stroke="#000000" points="345.88,-241.38 342.08,-251.27 351.22,-245.91 345.88,-241.38"/>
<text text-anchor="middle" x="473.65" y="-220.4" font-family="Times,serif" font-size="32.00">hug |</text>
<text text-anchor="middle" x="473.65" y="-185.4" font-family="Times,serif" font-size="32.00"> praise</text>
<text text-anchor="middle" x="473.65" y="-150.4" font-family="Times,serif" font-size="32.00">=d *k =d v</text>
</g>
<!-- prog -->
<g id="node6" class="node">
<title>prog</title>
<ellipse fill="none" stroke="black" cx="52.33" cy="-115" rx="52.15" ry="30.31"/>
<text text-anchor="middle" x="52.33" y="-106.9" font-family="Times,serif" font-size="32.00">prog</text>
</g>
<!-- d&#45;&gt;prog -->
<g id="edge8" class="edge">
<title>d&#45;&gt;prog</title>
<path fill="none" stroke="#000000" d="M565.86,-127.68C559.08,-123.44 551.35,-119.39 543.65,-117 364.86,-61.38 308.97,-82.37 122.65,-101 118.95,-101.37 115.16,-101.84 111.34,-102.4"/>
<polygon fill="#000000" stroke="#000000" points="110.56,-98.98 101.25,-104.03 111.68,-105.89 110.56,-98.98"/>
<text text-anchor="middle" x="322.15" y="-165.4" font-family="Times,serif" font-size="32.00">laughing |</text>
<text text-anchor="middle" x="322.15" y="-130.4" font-family="Times,serif" font-size="32.00"> danceing</text>
<text text-anchor="middle" x="322.15" y="-95.4" font-family="Times,serif" font-size="32.00">=d prog</text>
</g>
<!-- v&#45;&gt;t -->
<g id="edge2" class="edge">
<title>v&#45;&gt;t</title>
<path fill="none" stroke="#000000" d="M317.07,-302.06C309.7,-343.86 290.06,-418.68 240.65,-457 197.07,-490.79 130.37,-493.21 89.43,-490.84"/>
<polygon fill="#000000" stroke="#000000" points="89.58,-487.34 79.36,-490.13 89.09,-494.33 89.58,-487.34"/>
<text text-anchor="middle" x="181.65" y="-570.4" font-family="Times,serif" font-size="32.00">s |</text>
<text text-anchor="middle" x="181.65" y="-535.4" font-family="Times,serif" font-size="32.00"> d</text>
<text text-anchor="middle" x="181.65" y="-500.4" font-family="Times,serif" font-size="32.00">=&gt;v +k t</text>
</g>
<!-- v&#45;&gt;v -->
<g id="edge3" class="edge">
<title>v&#45;&gt;v</title>
<path fill="none" stroke="#000000" d="M344.23,-289.62C353.99,-304.62 346.62,-320.4 322.15,-320.4 302.84,-320.4 294.18,-310.58 296.18,-299.06"/>
<polygon fill="#000000" stroke="#000000" points="299.5,-300.2 300.07,-289.62 293.03,-297.53 299.5,-300.2"/>
<text text-anchor="middle" x="322.15" y="-364.8" font-family="Times,serif" font-size="32.00">will</text>
<text text-anchor="middle" x="322.15" y="-329.8" font-family="Times,serif" font-size="32.00">=v v</text>
</g>
<!-- perf -->
<g id="node5" class="node">
<title>perf</title>
<ellipse fill="none" stroke="black" cx="52.33" cy="-347" rx="48.17" ry="30.31"/>
<text text-anchor="middle" x="52.33" y="-338.9" font-family="Times,serif" font-size="32.00">perf</text>
</g>
<!-- v&#45;&gt;perf -->
<g id="edge6" class="edge">
<title>v&#45;&gt;perf</title>
<path fill="none" stroke="#000000" d="M308.51,-298.52C295.34,-322.7 272.21,-356.89 240.65,-372 196.86,-392.96 141.12,-381.34 101.86,-367.8"/>
<polygon fill="#000000" stroke="#000000" points="102.85,-364.43 92.25,-364.33 100.47,-371.02 102.85,-364.43"/>
<text text-anchor="middle" x="181.65" y="-427.4" font-family="Times,serif" font-size="32.00">n</text>
<text text-anchor="middle" x="181.65" y="-392.4" font-family="Times,serif" font-size="32.00">=&gt;v perf</text>
</g>
<!-- v&#45;&gt;prog -->
<g id="edge10" class="edge">
<title>v&#45;&gt;prog</title>
<path fill="none" stroke="#000000" d="M301.92,-251.72C286.72,-236.95 264.19,-217.73 240.65,-207 192.18,-184.9 169.73,-210.91 122.65,-186 106.64,-177.52 92.08,-164.03 80.49,-151.07"/>
<polygon fill="#000000" stroke="#000000" points="82.83,-148.43 73.66,-143.12 77.52,-152.98 82.83,-148.43"/>
<text text-anchor="middle" x="181.65" y="-251.4" font-family="Times,serif" font-size="32.00">ing</text>
<text text-anchor="middle" x="181.65" y="-216.4" font-family="Times,serif" font-size="32.00">=&gt;v prog</text>
</g>
<!-- perf&#45;&gt;v -->
<g id="edge4" class="edge">
<title>perf&#45;&gt;v</title>
<path fill="none" stroke="#000000" d="M83.21,-323.61C94.91,-315.55 108.83,-307.24 122.65,-302 151.57,-291.02 235.79,-280.84 284.74,-275.63"/>
<polygon fill="#000000" stroke="#000000" points="285.33,-279.09 294.91,-274.57 284.6,-272.13 285.33,-279.09"/>
<text text-anchor="middle" x="181.65" y="-346.4" font-family="Times,serif" font-size="32.00">have</text>
<text text-anchor="middle" x="181.65" y="-311.4" font-family="Times,serif" font-size="32.00">=perf v</text>
</g>
<!-- prog&#45;&gt;v -->
<g id="edge5" class="edge">
<title>prog&#45;&gt;v</title>
<path fill="none" stroke="#000000" d="M103.54,-108.54C151.76,-103.51 220.2,-99.78 240.65,-116 267.51,-137.29 243.85,-160.08 258.65,-191 267.9,-210.33 282.32,-229.43 294.97,-244.22"/>
<polygon fill="#000000" stroke="#000000" points="292.55,-246.77 301.78,-251.97 297.81,-242.15 292.55,-246.77"/>
<text text-anchor="middle" x="181.65" y="-160.4" font-family="Times,serif" font-size="32.00">be</text>
<text text-anchor="middle" x="181.65" y="-125.4" font-family="Times,serif" font-size="32.00">=prog v</text>
</g>
</g>
</svg>
