<?xml version="1.0" encoding="UTF-8" standalone="no"?>
<!DOCTYPE svg PUBLIC "-//W3C//DTD SVG 1.1//EN"
 "http://www.w3.org/Graphics/SVG/1.1/DTD/svg11.dtd">
<!-- Generated by graphviz version 2.47.1 (20210417.1919)
 -->
<!-- Title: G Pages: 1 -->
<svg width="1023pt" height="607pt"
 viewBox="0.00 0.00 1022.65 606.92" xmlns="http://www.w3.org/2000/svg" xmlns:xlink="http://www.w3.org/1999/xlink">
<g id="graph0" class="graph" transform="scale(1 1) rotate(0) translate(4 602.92)">
<title>G</title>
<polygon fill="white" stroke="transparent" points="-4,4 -4,-602.92 1018.65,-602.92 1018.65,4 -4,4"/>
<text text-anchor="middle" x="507.33" y="-13.4" font-family="Times,serif" font-size="32.00">decomposition: laughing =d prog, danceing =d prog, ing =&gt;v prog</text>
<!-- t -->
<g id="node1" class="node">
<title>t</title>
<ellipse fill="lightgray" stroke="black" cx="308.65" cy="-398.92" rx="27" ry="30.31"/>
<text text-anchor="middle" x="308.65" y="-390.82" font-family="Times,serif" font-size="32.00">t</text>
</g>
<!-- z0 -->
<g id="node2" class="node">
<title>z0</title>
<ellipse fill="none" stroke="black" stroke-dasharray="5,2" cx="987.65" cy="-148.92" rx="27" ry="18"/>
</g>
<!-- d -->
<g id="node3" class="node">
<title>d</title>
<ellipse fill="none" stroke="black" cx="827.65" cy="-148.92" rx="27" ry="30.31"/>
<text text-anchor="middle" x="827.65" y="-140.82" font-family="Times,serif" font-size="32.00">d</text>
</g>
<!-- z0&#45;&gt;d -->
<g id="edge1" class="edge">
<title>z0&#45;&gt;d</title>
<path fill="none" stroke="#000000" d="M960.56,-148.92C934.49,-148.92 894.19,-148.92 864.99,-148.92"/>
<polygon fill="#000000" stroke="#000000" points="864.78,-145.42 854.78,-148.92 864.78,-152.42 864.78,-145.42"/>
<text text-anchor="middle" x="907.65" y="-193.32" font-family="Times,serif" font-size="32.00">Mary</text>
<text text-anchor="middle" x="907.65" y="-158.32" font-family="Times,serif" font-size="32.00">d &#45;k</text>
</g>
<!-- v -->
<g id="node4" class="node">
<title>v</title>
<ellipse fill="none" stroke="black" cx="565.65" cy="-276.92" rx="27" ry="30.31"/>
<text text-anchor="middle" x="565.65" y="-268.82" font-family="Times,serif" font-size="32.00">v</text>
</g>
<!-- d&#45;&gt;v -->
<g id="edge7" class="edge">
<title>d&#45;&gt;v</title>
<path fill="none" stroke="#000000" d="M822.6,-179.22C817.62,-203.76 806.64,-237.08 782.65,-254.92 729.93,-294.13 648.85,-290.14 602.49,-283.61"/>
<polygon fill="#000000" stroke="#000000" points="603,-280.14 592.59,-282.1 601.95,-287.06 603,-280.14"/>
<text text-anchor="middle" x="712.65" y="-366.32" font-family="Times,serif" font-size="32.00">laugh |</text>
<text text-anchor="middle" x="712.65" y="-331.32" font-family="Times,serif" font-size="32.00"> dance</text>
<text text-anchor="middle" x="712.65" y="-296.32" font-family="Times,serif" font-size="32.00">=d v</text>
</g>
<!-- d&#45;&gt;v -->
<g id="edge10" class="edge">
<title>d&#45;&gt;v</title>
<path fill="none" stroke="#000000" d="M801.66,-140.03C763.55,-128.19 690.35,-112.39 642.65,-145.92 623.33,-159.5 635.63,-175.01 624.65,-195.92 615.24,-213.84 602.31,-232.3 591.05,-247.07"/>
<polygon fill="#000000" stroke="#000000" points="588.03,-245.26 584.65,-255.3 593.55,-249.56 588.03,-245.26"/>
<text text-anchor="middle" x="712.65" y="-225.32" font-family="Times,serif" font-size="32.00">hug |</text>
<text text-anchor="middle" x="712.65" y="-190.32" font-family="Times,serif" font-size="32.00"> praise</text>
<text text-anchor="middle" x="712.65" y="-155.32" font-family="Times,serif" font-size="32.00">=d *k =d v</text>
</g>
<!-- 0 -->
<g id="node7" class="node">
<title>0</title>
<ellipse fill="none" stroke="black" cx="308.65" cy="-119.92" rx="27" ry="30.31"/>
<text text-anchor="middle" x="308.65" y="-111.82" font-family="Times,serif" font-size="32.00">0</text>
</g>
<!-- d&#45;&gt;0 -->
<g id="edge9" class="edge">
<title>d&#45;&gt;0</title>
<path fill="none" stroke="#f7931d" stroke-width="2" d="M804.38,-132.41C797.71,-128.28 790.16,-124.33 782.65,-121.92 610.63,-66.65 555.62,-76.03 376.65,-100.92 366.05,-102.39 354.78,-105.12 344.55,-108.05"/>
<polygon fill="#f7931d" stroke="#f7931d" stroke-width="2" points="343.31,-104.77 334.75,-111.02 345.34,-111.47 343.31,-104.77"/>
<text text-anchor="middle" x="565.65" y="-164.32" font-family="Times,serif" font-size="32.00">laugh_1 |</text>
<text text-anchor="middle" x="565.65" y="-129.32" font-family="Times,serif" font-size="32.00"> dance_1</text>
<text text-anchor="middle" x="565.65" y="-94.32" font-family="Times,serif" font-size="32.00">=d 0</text>
</g>
<!-- v&#45;&gt;t -->
<g id="edge2" class="edge">
<title>v&#45;&gt;t</title>
<path fill="none" stroke="#000000" d="M549.31,-301.34C535.76,-320.82 514.21,-347.2 488.65,-361.92 443.91,-387.69 383.74,-395.65 345.82,-398.03"/>
<polygon fill="#000000" stroke="#000000" points="345.55,-394.54 335.75,-398.56 345.92,-401.53 345.55,-394.54"/>
<text text-anchor="middle" x="432.65" y="-474.32" font-family="Times,serif" font-size="32.00">s |</text>
<text text-anchor="middle" x="432.65" y="-439.32" font-family="Times,serif" font-size="32.00"> d</text>
<text text-anchor="middle" x="432.65" y="-404.32" font-family="Times,serif" font-size="32.00">=&gt;v +k t</text>
</g>
<!-- v&#45;&gt;v -->
<g id="edge3" class="edge">
<title>v&#45;&gt;v</title>
<path fill="none" stroke="#000000" d="M587.06,-295.55C595.35,-310.25 588.21,-325.33 565.65,-325.33 548.03,-325.33 539.82,-316.12 541.02,-305.09"/>
<polygon fill="#000000" stroke="#000000" points="544.35,-306.14 544.24,-295.55 537.72,-303.9 544.35,-306.14"/>
<text text-anchor="middle" x="565.65" y="-369.73" font-family="Times,serif" font-size="32.00">will</text>
<text text-anchor="middle" x="565.65" y="-334.73" font-family="Times,serif" font-size="32.00">=v v</text>
</g>
<!-- perf -->
<g id="node5" class="node">
<title>perf</title>
<ellipse fill="none" stroke="black" cx="308.65" cy="-259.92" rx="48.17" ry="30.31"/>
<text text-anchor="middle" x="308.65" y="-251.82" font-family="Times,serif" font-size="32.00">perf</text>
</g>
<!-- v&#45;&gt;perf -->
<g id="edge6" class="edge">
<title>v&#45;&gt;perf</title>
<path fill="none" stroke="#000000" d="M538.88,-281.24C502.45,-286.6 433.93,-293.87 376.65,-283.92 370.8,-282.9 364.79,-281.42 358.88,-279.69"/>
<polygon fill="#000000" stroke="#000000" points="359.67,-276.27 349.08,-276.57 357.54,-282.94 359.67,-276.27"/>
<text text-anchor="middle" x="432.65" y="-332.32" font-family="Times,serif" font-size="32.00">n</text>
<text text-anchor="middle" x="432.65" y="-297.32" font-family="Times,serif" font-size="32.00">=&gt;v perf</text>
</g>
<!-- v&#45;&gt;0 -->
<g id="edge11" class="edge">
<title>v&#45;&gt;0</title>
<path fill="none" stroke="#f7931d" stroke-width="2" d="M546.07,-255.59C533.35,-240 516.97,-217.83 506.65,-195.92 493.33,-167.64 512.99,-147.54 488.65,-127.92 448.3,-95.4 384.65,-101.82 345.12,-110.27"/>
<polygon fill="#f7931d" stroke="#f7931d" stroke-width="2" points="344.1,-106.91 335.14,-112.56 345.67,-113.73 344.1,-106.91"/>
<text text-anchor="middle" x="432.65" y="-172.32" font-family="Times,serif" font-size="32.00">ε_0</text>
<text text-anchor="middle" x="432.65" y="-137.32" font-family="Times,serif" font-size="32.00">=&gt;v 0</text>
</g>
<!-- perf&#45;&gt;v -->
<g id="edge4" class="edge">
<title>perf&#45;&gt;v</title>
<path fill="none" stroke="#000000" d="M337.32,-235.37C348.69,-226.84 362.5,-218.31 376.65,-213.92 424.19,-199.17 441.83,-197.03 488.65,-213.92 507.97,-220.88 525.85,-235.13 539.41,-248.31"/>
<polygon fill="#000000" stroke="#000000" points="536.97,-250.82 546.48,-255.48 541.95,-245.9 536.97,-250.82"/>
<text text-anchor="middle" x="432.65" y="-258.32" font-family="Times,serif" font-size="32.00">have</text>
<text text-anchor="middle" x="432.65" y="-223.32" font-family="Times,serif" font-size="32.00">=perf v</text>
</g>
<!-- prog -->
<g id="node6" class="node">
<title>prog</title>
<ellipse fill="none" stroke="black" cx="52.33" cy="-318.92" rx="52.15" ry="30.31"/>
<text text-anchor="middle" x="52.33" y="-310.82" font-family="Times,serif" font-size="32.00">prog</text>
</g>
<!-- prog&#45;&gt;v -->
<g id="edge5" class="edge">
<title>prog&#45;&gt;v</title>
<path fill="none" stroke="#000000" d="M77.87,-345.48C147.35,-417.43 349.35,-604.18 488.65,-503.92 547.79,-461.36 561.57,-370.63 564.38,-317.67"/>
<polygon fill="#000000" stroke="#000000" points="567.88,-317.75 564.81,-307.61 560.89,-317.45 567.88,-317.75"/>
<text text-anchor="middle" x="308.65" y="-573.32" font-family="Times,serif" font-size="32.00">be</text>
<text text-anchor="middle" x="308.65" y="-538.32" font-family="Times,serif" font-size="32.00">=prog v</text>
</g>
<!-- 0&#45;&gt;prog -->
<g id="edge8" class="edge">
<title>0&#45;&gt;prog</title>
<path fill="none" stroke="#f7931d" stroke-width="2" d="M285.97,-136.89C243.01,-170.5 146.55,-245.97 92.3,-288.43"/>
<polygon fill="#f7931d" stroke="#f7931d" stroke-width="2" points="90.01,-285.77 84.29,-294.69 94.32,-291.29 90.01,-285.77"/>
<text text-anchor="middle" x="181.65" y="-304.32" font-family="Times,serif" font-size="32.00">ing</text>
<text text-anchor="middle" x="181.65" y="-269.32" font-family="Times,serif" font-size="32.00">=&gt;0 prog</text>
</g>
</g>
</svg>
