<?xml version="1.0" encoding="UTF-8" standalone="no"?>
<!DOCTYPE svg PUBLIC "-//W3C//DTD SVG 1.1//EN"
 "http://www.w3.org/Graphics/SVG/1.1/DTD/svg11.dtd">
<!-- Generated by graphviz version 2.47.1 (20210417.1919)
 -->
<!-- Title: G Pages: 1 -->
<svg width="727pt" height="589pt"
 viewBox="0.00 0.00 726.65 588.59" xmlns="http://www.w3.org/2000/svg" xmlns:xlink="http://www.w3.org/1999/xlink">
<g id="graph0" class="graph" transform="scale(1 1) rotate(0) translate(4 584.59)">
<title>G</title>
<polygon fill="white" stroke="transparent" points="-4,4 -4,-584.59 722.65,-584.59 722.65,4 -4,4"/>
<text text-anchor="middle" x="359.33" y="-13.4" font-family="Times,serif" font-size="32.00">single contraction: v → 0</text>
<!-- t -->
<g id="node1" class="node">
<title>t</title>
<ellipse fill="lightgray" stroke="black" cx="52.33" cy="-470.59" rx="27" ry="30.31"/>
<text text-anchor="middle" x="52.33" y="-462.49" font-family="Times,serif" font-size="32.00">t</text>
</g>
<!-- z0 -->
<g id="node2" class="node">
<title>z0</title>
<ellipse fill="none" stroke="black" stroke-dasharray="5,2" cx="691.65" cy="-284.59" rx="27" ry="18"/>
</g>
<!-- d -->
<g id="node3" class="node">
<title>d</title>
<ellipse fill="none" stroke="black" cx="531.65" cy="-284.59" rx="27" ry="30.31"/>
<text text-anchor="middle" x="531.65" y="-276.49" font-family="Times,serif" font-size="32.00">d</text>
</g>
<!-- z0&#45;&gt;d -->
<g id="edge1" class="edge">
<title>z0&#45;&gt;d</title>
<path fill="none" stroke="#000000" d="M664.56,-284.59C638.49,-284.59 598.19,-284.59 568.99,-284.59"/>
<polygon fill="#000000" stroke="#000000" points="568.78,-281.09 558.78,-284.59 568.78,-288.09 568.78,-281.09"/>
<text text-anchor="middle" x="611.65" y="-328.99" font-family="Times,serif" font-size="32.00">Mary</text>
<text text-anchor="middle" x="611.65" y="-293.99" font-family="Times,serif" font-size="32.00">d &#45;k</text>
</g>
<!-- v -->
<g id="node4" class="node">
<title>v</title>
<ellipse fill="none" stroke="black" cx="293.65" cy="-284.59" rx="27" ry="30.31"/>
<text text-anchor="middle" x="293.65" y="-276.49" font-family="Times,serif" font-size="32.00">v</text>
</g>
<!-- d&#45;&gt;v -->
<g id="edge7" class="edge">
<title>d&#45;&gt;v</title>
<path fill="none" stroke="#000000" d="M513.32,-307.11C506.02,-314.81 496.85,-322.5 486.65,-326.59 428.89,-349.73 405.32,-347.32 346.65,-326.59 337.65,-323.41 329.07,-317.94 321.56,-311.97"/>
<polygon fill="#000000" stroke="#000000" points="323.74,-309.23 313.87,-305.39 319.19,-314.55 323.74,-309.23"/>
<text text-anchor="middle" x="416.65" y="-422.99" font-family="Times,serif" font-size="32.00">laugh |</text>
<text text-anchor="middle" x="416.65" y="-387.99" font-family="Times,serif" font-size="32.00"> dance</text>
<text text-anchor="middle" x="416.65" y="-352.99" font-family="Times,serif" font-size="32.00">=d v</text>
</g>
<!-- d&#45;&gt;v -->
<g id="edge9" class="edge">
<title>d&#45;&gt;v</title>
<path fill="none" stroke="#000000" d="M520.07,-256.75C512.98,-242.28 502.08,-225.92 486.65,-217.59 431.89,-188.04 402.53,-190.22 346.65,-217.59 332.58,-224.48 321.22,-237.22 312.75,-249.76"/>
<polygon fill="#000000" stroke="#000000" points="309.72,-248.01 307.35,-258.33 315.64,-251.74 309.72,-248.01"/>
<text text-anchor="middle" x="416.65" y="-296.99" font-family="Times,serif" font-size="32.00">hug |</text>
<text text-anchor="middle" x="416.65" y="-261.99" font-family="Times,serif" font-size="32.00"> praise</text>
<text text-anchor="middle" x="416.65" y="-226.99" font-family="Times,serif" font-size="32.00">=d *k =d v</text>
</g>
<!-- v&#45;&gt;t -->
<g id="edge2" class="edge">
<title>v&#45;&gt;t</title>
<path fill="none" stroke="#000000" d="M291.6,-315.16C288.62,-351.17 277.91,-410.06 240.65,-441.59 198.36,-477.38 130.68,-478.64 89.3,-475.3"/>
<polygon fill="#000000" stroke="#000000" points="89.4,-471.8 79.12,-474.35 88.75,-478.77 89.4,-471.8"/>
<text text-anchor="middle" x="181.65" y="-554.99" font-family="Times,serif" font-size="32.00">s |</text>
<text text-anchor="middle" x="181.65" y="-519.99" font-family="Times,serif" font-size="32.00"> d</text>
<text text-anchor="middle" x="181.65" y="-484.99" font-family="Times,serif" font-size="32.00">=&gt;v +k t</text>
</g>
<!-- v&#45;&gt;v -->
<g id="edge3" class="edge">
<title>v&#45;&gt;v</title>
<path fill="none" stroke="#000000" d="M312.99,-305.99C318.04,-319.75 311.59,-332.99 293.65,-332.99 280.2,-332.99 273.21,-325.54 272.68,-316.01"/>
<polygon fill="#000000" stroke="#000000" points="276.16,-316.42 274.31,-305.99 269.25,-315.3 276.16,-316.42"/>
<text text-anchor="middle" x="293.65" y="-377.39" font-family="Times,serif" font-size="32.00">will</text>
<text text-anchor="middle" x="293.65" y="-342.39" font-family="Times,serif" font-size="32.00">=v v</text>
</g>
<!-- perf -->
<g id="node5" class="node">
<title>perf</title>
<ellipse fill="none" stroke="black" cx="52.33" cy="-330.59" rx="48.17" ry="30.31"/>
<text text-anchor="middle" x="52.33" y="-322.49" font-family="Times,serif" font-size="32.00">perf</text>
</g>
<!-- v&#45;&gt;perf -->
<g id="edge6" class="edge">
<title>v&#45;&gt;perf</title>
<path fill="none" stroke="#000000" d="M280.73,-311.64C272.1,-327.59 258.78,-346.4 240.65,-355.59 197.08,-377.68 140.83,-365.62 101.39,-351.66"/>
<polygon fill="#000000" stroke="#000000" points="102.33,-348.28 91.74,-348.09 99.9,-354.84 102.33,-348.28"/>
<text text-anchor="middle" x="181.65" y="-411.99" font-family="Times,serif" font-size="32.00">n</text>
<text text-anchor="middle" x="181.65" y="-376.99" font-family="Times,serif" font-size="32.00">=&gt;v perf</text>
</g>
<!-- prog -->
<g id="node6" class="node">
<title>prog</title>
<ellipse fill="none" stroke="black" cx="52.33" cy="-145.59" rx="52.15" ry="30.31"/>
<text text-anchor="middle" x="52.33" y="-137.49" font-family="Times,serif" font-size="32.00">prog</text>
</g>
<!-- v&#45;&gt;prog -->
<g id="edge8" class="edge">
<title>v&#45;&gt;prog</title>
<path fill="none" stroke="#000000" d="M281.59,-257.23C272.97,-239.21 259.32,-216.47 240.65,-202.59 196.95,-170.1 174.63,-185.84 122.65,-169.59 117.49,-167.97 112.12,-166.23 106.77,-164.45"/>
<polygon fill="#000000" stroke="#000000" points="107.8,-161.1 97.2,-161.23 105.56,-167.74 107.8,-161.1"/>
<text text-anchor="middle" x="181.65" y="-246.99" font-family="Times,serif" font-size="32.00">ing</text>
<text text-anchor="middle" x="181.65" y="-211.99" font-family="Times,serif" font-size="32.00">=&gt;v prog</text>
</g>
<!-- perf&#45;&gt;v -->
<g id="edge4" class="edge">
<title>perf&#45;&gt;v</title>
<path fill="none" stroke="#000000" d="M82.17,-306.6C93.96,-298.26 108.22,-289.91 122.65,-285.59 167.24,-272.24 221.4,-274.96 256.42,-279.01"/>
<polygon fill="#000000" stroke="#000000" points="256.28,-282.52 266.64,-280.3 257.16,-275.58 256.28,-282.52"/>
<text text-anchor="middle" x="181.65" y="-329.99" font-family="Times,serif" font-size="32.00">have</text>
<text text-anchor="middle" x="181.65" y="-294.99" font-family="Times,serif" font-size="32.00">=perf v</text>
</g>
<!-- prog&#45;&gt;v -->
<g id="edge5" class="edge">
<title>prog&#45;&gt;v</title>
<path fill="none" stroke="#000000" d="M82.75,-120.54C94.4,-112.17 108.41,-103.88 122.65,-99.59 172.86,-84.45 198.85,-67.92 240.65,-99.59 263.68,-117.03 279.35,-195.54 287.08,-244.51"/>
<polygon fill="#000000" stroke="#000000" points="283.63,-245.12 288.6,-254.48 290.55,-244.06 283.63,-245.12"/>
<text text-anchor="middle" x="181.65" y="-143.99" font-family="Times,serif" font-size="32.00">be</text>
<text text-anchor="middle" x="181.65" y="-108.99" font-family="Times,serif" font-size="32.00">=prog v</text>
</g>
</g>
</svg>
