<?xml version="1.0" encoding="UTF-8" standalone="no"?>
<!DOCTYPE svg PUBLIC "-//W3C//DTD SVG 1.1//EN"
 "http://www.w3.org/Graphics/SVG/1.1/DTD/svg11.dtd">
<!-- Generated by graphviz version 2.47.1 (20210417.1919)
 -->
<!-- Title: G Pages: 1 -->
<svg width="934pt" height="589pt"
 viewBox="0.00 0.00 933.65 588.59" xmlns="http://www.w3.org/2000/svg" xmlns:xlink="http://www.w3.org/1999/xlink">
<g id="graph0" class="graph" transform="scale(1 1) rotate(0) translate(4 584.59)">
<title>G</title>
<polygon fill="white" stroke="transparent" points="-4,4 -4,-584.59 929.65,-584.59 929.65,4 -4,4"/>
<text text-anchor="middle" x="462.83" y="-13.4" font-family="Times,serif" font-size="32.00">decomposition: hug =d *k =d v, praise =d *k =d v</text>
<!-- t -->
<g id="node1" class="node">
<title>t</title>
<ellipse fill="lightgray" stroke="black" cx="52.33" cy="-470.59" rx="27" ry="30.31"/>
<text text-anchor="middle" x="52.33" y="-462.49" font-family="Times,serif" font-size="32.00">t</text>
</g>
<!-- z0 -->
<g id="node2" class="node">
<title>z0</title>
<ellipse fill="none" stroke="black" stroke-dasharray="5,2" cx="898.65" cy="-292.59" rx="27" ry="18"/>
</g>
<!-- d -->
<g id="node3" class="node">
<title>d</title>
<ellipse fill="none" stroke="black" cx="738.65" cy="-292.59" rx="27" ry="30.31"/>
<text text-anchor="middle" x="738.65" y="-284.49" font-family="Times,serif" font-size="32.00">d</text>
</g>
<!-- z0&#45;&gt;d -->
<g id="edge1" class="edge">
<title>z0&#45;&gt;d</title>
<path fill="none" stroke="#000000" d="M871.56,-292.59C845.49,-292.59 805.19,-292.59 775.99,-292.59"/>
<polygon fill="#000000" stroke="#000000" points="775.78,-289.09 765.78,-292.59 775.78,-296.09 775.78,-289.09"/>
<text text-anchor="middle" x="818.65" y="-336.99" font-family="Times,serif" font-size="32.00">Mary</text>
<text text-anchor="middle" x="818.65" y="-301.99" font-family="Times,serif" font-size="32.00">d &#45;k</text>
</g>
<!-- v -->
<g id="node4" class="node">
<title>v</title>
<ellipse fill="none" stroke="black" cx="293.65" cy="-284.59" rx="27" ry="30.31"/>
<text text-anchor="middle" x="293.65" y="-276.49" font-family="Times,serif" font-size="32.00">v</text>
</g>
<!-- d&#45;&gt;v -->
<g id="edge7" class="edge">
<title>d&#45;&gt;v</title>
<path fill="none" stroke="#000000" d="M719.09,-313.8C711.89,-320.5 703.11,-327.07 693.65,-330.59 549.11,-384.37 490.87,-385.22 346.65,-330.59 336.85,-326.87 327.7,-320.37 319.9,-313.4"/>
<polygon fill="#000000" stroke="#000000" points="322.2,-310.77 312.57,-306.37 317.36,-315.82 322.2,-310.77"/>
<text text-anchor="middle" x="492.65" y="-449.99" font-family="Times,serif" font-size="32.00">laugh |</text>
<text text-anchor="middle" x="492.65" y="-414.99" font-family="Times,serif" font-size="32.00"> dance</text>
<text text-anchor="middle" x="492.65" y="-379.99" font-family="Times,serif" font-size="32.00">=d v</text>
</g>
<!-- 0 -->
<g id="node7" class="node">
<title>0</title>
<ellipse fill="none" stroke="black" cx="492.65" cy="-241.59" rx="27" ry="30.31"/>
<text text-anchor="middle" x="492.65" y="-233.49" font-family="Times,serif" font-size="32.00">0</text>
</g>
<!-- d&#45;&gt;0 -->
<g id="edge10" class="edge">
<title>d&#45;&gt;0</title>
<path fill="none" stroke="#f7931d" stroke-width="2" d="M717.07,-274.14C710.09,-268.88 701.96,-263.73 693.65,-260.59 639.34,-240.03 571.07,-238.18 529.97,-239.4"/>
<polygon fill="#f7931d" stroke="#f7931d" stroke-width="2" points="529.75,-235.9 519.89,-239.77 530.01,-242.9 529.75,-235.9"/>
<text text-anchor="middle" x="623.65" y="-304.99" font-family="Times,serif" font-size="32.00">ε_0</text>
<text text-anchor="middle" x="623.65" y="-269.99" font-family="Times,serif" font-size="32.00">=d *k =d 0</text>
</g>
<!-- v&#45;&gt;t -->
<g id="edge2" class="edge">
<title>v&#45;&gt;t</title>
<path fill="none" stroke="#000000" d="M291.6,-315.16C288.62,-351.17 277.91,-410.06 240.65,-441.59 198.36,-477.38 130.68,-478.64 89.3,-475.3"/>
<polygon fill="#000000" stroke="#000000" points="89.4,-471.8 79.12,-474.35 88.75,-478.77 89.4,-471.8"/>
<text text-anchor="middle" x="181.65" y="-554.99" font-family="Times,serif" font-size="32.00">s |</text>
<text text-anchor="middle" x="181.65" y="-519.99" font-family="Times,serif" font-size="32.00"> d</text>
<text text-anchor="middle" x="181.65" y="-484.99" font-family="Times,serif" font-size="32.00">=&gt;v +k t</text>
</g>
<!-- v&#45;&gt;v -->
<g id="edge3" class="edge">
<title>v&#45;&gt;v</title>
<path fill="none" stroke="#000000" d="M310.55,-308.5C313.42,-321.32 307.79,-332.99 293.65,-332.99 283.38,-332.99 277.6,-326.83 276.31,-318.54"/>
<polygon fill="#000000" stroke="#000000" points="279.8,-318.64 276.75,-308.5 272.81,-318.33 279.8,-318.64"/>
<text text-anchor="middle" x="293.65" y="-377.39" font-family="Times,serif" font-size="32.00">will</text>
<text text-anchor="middle" x="293.65" y="-342.39" font-family="Times,serif" font-size="32.00">=v v</text>
</g>
<!-- perf -->
<g id="node5" class="node">
<title>perf</title>
<ellipse fill="none" stroke="black" cx="52.33" cy="-330.59" rx="48.17" ry="30.31"/>
<text text-anchor="middle" x="52.33" y="-322.49" font-family="Times,serif" font-size="32.00">perf</text>
</g>
<!-- v&#45;&gt;perf -->
<g id="edge6" class="edge">
<title>v&#45;&gt;perf</title>
<path fill="none" stroke="#000000" d="M280.73,-311.64C272.1,-327.59 258.78,-346.4 240.65,-355.59 197.08,-377.68 140.83,-365.62 101.39,-351.66"/>
<polygon fill="#000000" stroke="#000000" points="102.33,-348.28 91.74,-348.09 99.9,-354.84 102.33,-348.28"/>
<text text-anchor="middle" x="181.65" y="-411.99" font-family="Times,serif" font-size="32.00">n</text>
<text text-anchor="middle" x="181.65" y="-376.99" font-family="Times,serif" font-size="32.00">=&gt;v perf</text>
</g>
<!-- prog -->
<g id="node6" class="node">
<title>prog</title>
<ellipse fill="none" stroke="black" cx="52.33" cy="-145.59" rx="52.15" ry="30.31"/>
<text text-anchor="middle" x="52.33" y="-137.49" font-family="Times,serif" font-size="32.00">prog</text>
</g>
<!-- v&#45;&gt;prog -->
<g id="edge8" class="edge">
<title>v&#45;&gt;prog</title>
<path fill="none" stroke="#000000" d="M281.59,-257.23C272.97,-239.21 259.32,-216.47 240.65,-202.59 196.95,-170.1 174.63,-185.84 122.65,-169.59 117.49,-167.97 112.12,-166.23 106.77,-164.45"/>
<polygon fill="#000000" stroke="#000000" points="107.8,-161.1 97.2,-161.23 105.56,-167.74 107.8,-161.1"/>
<text text-anchor="middle" x="181.65" y="-246.99" font-family="Times,serif" font-size="32.00">ing</text>
<text text-anchor="middle" x="181.65" y="-211.99" font-family="Times,serif" font-size="32.00">=&gt;v prog</text>
</g>
<!-- perf&#45;&gt;v -->
<g id="edge4" class="edge">
<title>perf&#45;&gt;v</title>
<path fill="none" stroke="#000000" d="M82.17,-306.6C93.96,-298.26 108.22,-289.91 122.65,-285.59 167.24,-272.24 221.4,-274.96 256.42,-279.01"/>
<polygon fill="#000000" stroke="#000000" points="256.28,-282.52 266.64,-280.3 257.16,-275.58 256.28,-282.52"/>
<text text-anchor="middle" x="181.65" y="-329.99" font-family="Times,serif" font-size="32.00">have</text>
<text text-anchor="middle" x="181.65" y="-294.99" font-family="Times,serif" font-size="32.00">=perf v</text>
</g>
<!-- prog&#45;&gt;v -->
<g id="edge5" class="edge">
<title>prog&#45;&gt;v</title>
<path fill="none" stroke="#000000" d="M82.75,-120.54C94.4,-112.17 108.41,-103.88 122.65,-99.59 172.86,-84.45 198.85,-67.92 240.65,-99.59 263.68,-117.03 279.35,-195.54 287.08,-244.51"/>
<polygon fill="#000000" stroke="#000000" points="283.63,-245.12 288.6,-254.48 290.55,-244.06 283.63,-245.12"/>
<text text-anchor="middle" x="181.65" y="-143.99" font-family="Times,serif" font-size="32.00">be</text>
<text text-anchor="middle" x="181.65" y="-108.99" font-family="Times,serif" font-size="32.00">=prog v</text>
</g>
<!-- 0&#45;&gt;v -->
<g id="edge9" class="edge">
<title>0&#45;&gt;v</title>
<path fill="none" stroke="#f7931d" stroke-width="2" d="M467.1,-231.48C437.26,-220.81 386.01,-207.82 346.65,-225.59 334.38,-231.13 323.84,-241.16 315.53,-251.4"/>
<polygon fill="#f7931d" stroke="#f7931d" stroke-width="2" points="312.59,-249.48 309.35,-259.57 318.17,-253.71 312.59,-249.48"/>
<text text-anchor="middle" x="389.15" y="-304.99" font-family="Times,serif" font-size="32.00">hug |</text>
<text text-anchor="middle" x="389.15" y="-269.99" font-family="Times,serif" font-size="32.00"> praise</text>
<text text-anchor="middle" x="389.15" y="-234.99" font-family="Times,serif" font-size="32.00">=&gt;0 v</text>
</g>
</g>
</svg>
