<?xml version="1.0" encoding="UTF-8" standalone="no"?>
<!DOCTYPE svg PUBLIC "-//W3C//DTD SVG 1.1//EN"
 "http://www.w3.org/Graphics/SVG/1.1/DTD/svg11.dtd">
<!-- Generated by graphviz version 2.47.1 (20210417.1919)
 -->
<!-- Title: G Pages: 1 -->
<svg width="2021pt" height="1062pt"
 viewBox="0.00 0.00 2021.00 1061.52" xmlns="http://www.w3.org/2000/svg" xmlns:xlink="http://www.w3.org/1999/xlink">
<g id="graph0" class="graph" transform="scale(1 1) rotate(0) translate(4 1057.52)">
<title>G</title>
<polygon fill="white" stroke="transparent" points="-4,4 -4,-1057.52 2017,-1057.52 2017,4 -4,4"/>
<text text-anchor="middle" x="1006.5" y="-13.4" font-family="Times,serif" font-size="32.00">single contraction: 2 → 1</text>
<!-- t -->
<g id="node1" class="node">
<title>t</title>
<ellipse fill="lightgray" stroke="black" cx="27" cy="-734.52" rx="27" ry="30.31"/>
<text text-anchor="middle" x="27" y="-726.42" font-family="Times,serif" font-size="32.00">t</text>
</g>
<!-- z0 -->
<g id="node2" class="node">
<title>z0</title>
<ellipse fill="none" stroke="black" stroke-dasharray="5,2" cx="1986" cy="-554.52" rx="27" ry="18"/>
</g>
<!-- d -->
<g id="node3" class="node">
<title>d</title>
<ellipse fill="none" stroke="black" cx="1826" cy="-554.52" rx="27" ry="30.31"/>
<text text-anchor="middle" x="1826" y="-546.42" font-family="Times,serif" font-size="32.00">d</text>
</g>
<!-- z0&#45;&gt;d -->
<g id="edge1" class="edge">
<title>z0&#45;&gt;d</title>
<path fill="none" stroke="#000000" d="M1958.91,-554.52C1932.84,-554.52 1892.53,-554.52 1863.34,-554.52"/>
<polygon fill="#000000" stroke="#000000" points="1863.13,-551.02 1853.13,-554.52 1863.13,-558.02 1863.13,-551.02"/>
<text text-anchor="middle" x="1906" y="-598.92" font-family="Times,serif" font-size="32.00">Mary</text>
<text text-anchor="middle" x="1906" y="-563.92" font-family="Times,serif" font-size="32.00">d &#45;k</text>
</g>
<!-- 0 -->
<g id="node4" class="node">
<title>0</title>
<ellipse fill="none" stroke="black" cx="229" cy="-692.52" rx="27" ry="30.31"/>
<text text-anchor="middle" x="229" y="-684.42" font-family="Times,serif" font-size="32.00">0</text>
</g>
<!-- d&#45;&gt;0 -->
<g id="edge13" class="edge">
<title>d&#45;&gt;0</title>
<path fill="none" stroke="#000000" d="M1822.21,-584.88C1816.61,-640.99 1802.62,-758.34 1781,-792.52 1717.69,-892.59 1683.42,-948.52 1565,-948.52 1565,-948.52 1565,-948.52 441,-948.52 347.75,-948.52 328.53,-897.16 274,-821.52 254.8,-794.88 243.48,-759.22 237.15,-732.14"/>
<polygon fill="#000000" stroke="#000000" points="240.53,-731.23 234.96,-722.22 233.7,-732.74 240.53,-731.23"/>
<text text-anchor="middle" x="992" y="-1027.92" font-family="Times,serif" font-size="32.00">laugh |</text>
<text text-anchor="middle" x="992" y="-992.92" font-family="Times,serif" font-size="32.00"> dance</text>
<text text-anchor="middle" x="992" y="-957.92" font-family="Times,serif" font-size="32.00">=d 0</text>
</g>
<!-- v -->
<g id="node5" class="node">
<title>v</title>
<ellipse fill="none" stroke="black" cx="1265.5" cy="-401.52" rx="27" ry="30.31"/>
<text text-anchor="middle" x="1265.5" y="-393.42" font-family="Times,serif" font-size="32.00">v</text>
</g>
<!-- d&#45;&gt;v -->
<g id="edge15" class="edge">
<title>d&#45;&gt;v</title>
<path fill="none" stroke="#000000" d="M1805.54,-534.33C1771.96,-501.11 1699.39,-436.03 1623,-410.52 1511.19,-373.18 1368.49,-386.41 1302.7,-395.63"/>
<polygon fill="#000000" stroke="#000000" points="1301.84,-392.22 1292.45,-397.13 1302.85,-399.15 1301.84,-392.22"/>
<text text-anchor="middle" x="1564" y="-489.92" font-family="Times,serif" font-size="32.00">laugh_2 |</text>
<text text-anchor="middle" x="1564" y="-454.92" font-family="Times,serif" font-size="32.00"> dance_2</text>
<text text-anchor="middle" x="1564" y="-419.92" font-family="Times,serif" font-size="32.00">=d v</text>
</g>
<!-- 1 -->
<g id="node6" class="node">
<title>1</title>
<ellipse fill="none" stroke="black" cx="992" cy="-728.52" rx="27" ry="30.31"/>
<text text-anchor="middle" x="992" y="-720.42" font-family="Times,serif" font-size="32.00">1</text>
</g>
<!-- d&#45;&gt;1 -->
<g id="edge14" class="edge">
<title>d&#45;&gt;1</title>
<path fill="none" stroke="#000000" d="M1822.17,-584.85C1816.97,-633.79 1804.23,-726.99 1781,-749.52 1685.46,-842.19 1619.49,-793.79 1487,-806.52 1299.33,-824.54 1248.07,-803.45 1066,-754.52 1053.21,-751.08 1039.46,-746.44 1027.39,-742.04"/>
<polygon fill="#000000" stroke="#000000" points="1028.28,-738.63 1017.69,-738.42 1025.84,-745.19 1028.28,-738.63"/>
<text text-anchor="middle" x="1417" y="-891.92" font-family="Times,serif" font-size="32.00">laugh_1 |</text>
<text text-anchor="middle" x="1417" y="-856.92" font-family="Times,serif" font-size="32.00"> dance_1</text>
<text text-anchor="middle" x="1417" y="-821.92" font-family="Times,serif" font-size="32.00">=d 1</text>
</g>
<!-- d&#45;&gt;1 -->
<g id="edge19" class="edge">
<title>d&#45;&gt;1</title>
<path fill="none" stroke="#000000" d="M1814.52,-582.38C1807.31,-598.03 1796.26,-616.73 1781,-628.52 1673.37,-711.69 1621.37,-692.4 1487,-713.52 1317.49,-740.16 1111.35,-734.33 1029.26,-730.51"/>
<polygon fill="#000000" stroke="#000000" points="1029.35,-727.01 1019.19,-730.02 1029.01,-734 1029.35,-727.01"/>
<text text-anchor="middle" x="1417" y="-772.92" font-family="Times,serif" font-size="32.00">hug</text>
<text text-anchor="middle" x="1417" y="-737.92" font-family="Times,serif" font-size="32.00">=d *k =d 1</text>
</g>
<!-- perf -->
<g id="node7" class="node">
<title>perf</title>
<ellipse fill="none" stroke="black" cx="442" cy="-517.52" rx="48.17" ry="30.31"/>
<text text-anchor="middle" x="442" y="-509.42" font-family="Times,serif" font-size="32.00">perf</text>
</g>
<!-- d&#45;&gt;perf -->
<g id="edge17" class="edge">
<title>d&#45;&gt;perf</title>
<path fill="none" stroke="#000000" d="M1825.11,-524.09C1824.73,-451.89 1819.79,-273.13 1781,-230.52 1597.6,-29.06 1454.65,-122.61 1184,-91.52 1006.75,-71.16 910.17,-68.18 800,-208.52 771.57,-244.73 815.67,-279.12 782,-310.52 695.06,-391.59 600.87,-255.28 516,-338.52 469.95,-383.68 532.49,-428.02 498,-482.52 495.55,-486.39 492.5,-489.91 489.1,-493.1"/>
<polygon fill="#000000" stroke="#000000" points="486.74,-490.51 481.2,-499.54 491.16,-495.93 486.74,-490.51"/>
<text text-anchor="middle" x="1125" y="-170.92" font-family="Times,serif" font-size="32.00">laughn |</text>
<text text-anchor="middle" x="1125" y="-135.92" font-family="Times,serif" font-size="32.00"> dancen</text>
<text text-anchor="middle" x="1125" y="-100.92" font-family="Times,serif" font-size="32.00">=d perf</text>
</g>
<!-- prog -->
<g id="node8" class="node">
<title>prog</title>
<ellipse fill="none" stroke="black" cx="726" cy="-382.52" rx="52.15" ry="30.31"/>
<text text-anchor="middle" x="726" y="-374.42" font-family="Times,serif" font-size="32.00">prog</text>
</g>
<!-- d&#45;&gt;prog -->
<g id="edge16" class="edge">
<title>d&#45;&gt;prog</title>
<path fill="none" stroke="#000000" d="M1818.06,-525.19C1796.45,-442 1722.21,-210.52 1565,-210.52 1565,-210.52 1565,-210.52 991,-210.52 901.75,-210.52 861.59,-207.92 800,-272.52 779.02,-294.52 798.69,-313.11 782,-338.52 778.52,-343.82 774.19,-348.77 769.51,-353.31"/>
<polygon fill="#000000" stroke="#000000" points="767.05,-350.81 761.91,-360.08 771.71,-356.04 767.05,-350.81"/>
<text text-anchor="middle" x="1265.5" y="-289.92" font-family="Times,serif" font-size="32.00">laughing |</text>
<text text-anchor="middle" x="1265.5" y="-254.92" font-family="Times,serif" font-size="32.00"> danceing</text>
<text text-anchor="middle" x="1265.5" y="-219.92" font-family="Times,serif" font-size="32.00">=d prog</text>
</g>
<!-- 2 -->
<g id="node9" class="node">
<title>2</title>
<ellipse fill="none" stroke="black" cx="1564" cy="-554.52" rx="27" ry="30.31"/>
<text text-anchor="middle" x="1564" y="-546.42" font-family="Times,serif" font-size="32.00">2</text>
</g>
<!-- d&#45;&gt;2 -->
<g id="edge24" class="edge">
<title>d&#45;&gt;2</title>
<path fill="none" stroke="#000000" d="M1798.64,-554.52C1751.9,-554.52 1654.43,-554.52 1601.35,-554.52"/>
<polygon fill="#000000" stroke="#000000" points="1601.04,-551.02 1591.04,-554.52 1601.04,-558.02 1601.04,-551.02"/>
<text text-anchor="middle" x="1711" y="-598.92" font-family="Times,serif" font-size="32.00">praise</text>
<text text-anchor="middle" x="1711" y="-563.92" font-family="Times,serif" font-size="32.00">=d *k =d 2</text>
</g>
<!-- 0&#45;&gt;t -->
<g id="edge2" class="edge">
<title>0&#45;&gt;t</title>
<path fill="none" stroke="#000000" d="M202.34,-687.17C170.51,-681.75 115.17,-676.36 72,-693.52 65.35,-696.16 59.11,-700.33 53.53,-705.01"/>
<polygon fill="#000000" stroke="#000000" points="50.81,-702.76 45.87,-712.13 55.58,-707.89 50.81,-702.76"/>
<text text-anchor="middle" x="128" y="-737.92" font-family="Times,serif" font-size="32.00">s</text>
<text text-anchor="middle" x="128" y="-702.92" font-family="Times,serif" font-size="32.00">=&gt;0 +k t</text>
</g>
<!-- v&#45;&gt;0 -->
<g id="edge3" class="edge">
<title>v&#45;&gt;0</title>
<path fill="none" stroke="#000000" d="M1242.88,-384.24C1227.36,-372.69 1205.48,-358.1 1184,-349.52 1141.79,-332.65 827.26,-277.76 782,-273.52 732.44,-268.87 719.53,-268.6 670,-273.52 541.89,-286.25 502.32,-275.35 386,-330.52 327.8,-358.12 306.14,-366.69 274,-422.52 251.95,-460.83 238.7,-586.17 233.12,-651.73"/>
<polygon fill="#000000" stroke="#000000" points="229.59,-651.84 232.25,-662.1 236.57,-652.42 229.59,-651.84"/>
<text text-anchor="middle" x="726" y="-317.92" font-family="Times,serif" font-size="32.00">will</text>
<text text-anchor="middle" x="726" y="-282.92" font-family="Times,serif" font-size="32.00">=v 0</text>
</g>
<!-- v&#45;&gt;1 -->
<g id="edge5" class="edge">
<title>v&#45;&gt;1</title>
<path fill="none" stroke="#000000" d="M1250.78,-427.3C1236.83,-451.3 1213.16,-486.57 1184,-508.52 1139.15,-542.27 1106.3,-514.45 1066,-553.52 1063.35,-556.09 1028.55,-641.03 1007.97,-691.61"/>
<polygon fill="#000000" stroke="#000000" points="1004.71,-690.35 1004.18,-700.93 1011.19,-692.99 1004.71,-690.35"/>
<text text-anchor="middle" x="1125" y="-597.92" font-family="Times,serif" font-size="32.00">will_1</text>
<text text-anchor="middle" x="1125" y="-562.92" font-family="Times,serif" font-size="32.00">=v 1</text>
</g>
<!-- 1&#45;&gt;t -->
<g id="edge4" class="edge">
<title>1&#45;&gt;t</title>
<path fill="none" stroke="#000000" d="M970.64,-747.16C956.85,-758.61 937.62,-772.4 918,-779.52 806.45,-819.99 770.55,-797.4 652,-802.52 393.88,-813.66 315.98,-848.5 72,-763.52 67.38,-761.91 62.78,-759.71 58.38,-757.23"/>
<polygon fill="#000000" stroke="#000000" points="60.05,-754.15 49.7,-751.87 56.37,-760.11 60.05,-754.15"/>
<text text-anchor="middle" x="442" y="-862.92" font-family="Times,serif" font-size="32.00">d</text>
<text text-anchor="middle" x="442" y="-827.92" font-family="Times,serif" font-size="32.00">=&gt;1 +k t</text>
</g>
<!-- 1&#45;&gt;0 -->
<g id="edge18" class="edge">
<title>1&#45;&gt;0</title>
<path fill="none" stroke="#000000" d="M967.91,-742.34C953.98,-749.89 935.58,-758.49 918,-762.52 859.08,-776.02 842.45,-764.07 782,-764.52 732.22,-764.88 712.97,-789.65 670,-764.52 655.91,-756.28 665.92,-741.03 652,-732.52 508.58,-644.78 435.67,-763.69 274,-717.52 269.82,-716.32 265.61,-714.66 261.54,-712.74"/>
<polygon fill="#000000" stroke="#000000" points="262.85,-709.48 252.37,-707.94 259.61,-715.68 262.85,-709.48"/>
<text text-anchor="middle" x="584" y="-776.92" font-family="Times,serif" font-size="32.00">ε_0</text>
<text text-anchor="middle" x="584" y="-741.92" font-family="Times,serif" font-size="32.00">=&gt;1 0</text>
</g>
<!-- 1&#45;&gt;v -->
<g id="edge20" class="edge">
<title>1&#45;&gt;v</title>
<path fill="none" stroke="#000000" d="M1006.17,-702.15C1018.99,-675.26 1037.96,-632.01 1048,-592.52 1056.7,-558.27 1041.66,-460.14 1066,-434.52 1071.57,-428.66 1172.83,-414.02 1228.51,-406.36"/>
<polygon fill="#000000" stroke="#000000" points="1229.24,-409.8 1238.67,-404.98 1228.29,-402.86 1229.24,-409.8"/>
<text text-anchor="middle" x="1125" y="-478.92" font-family="Times,serif" font-size="32.00">ε_1</text>
<text text-anchor="middle" x="1125" y="-443.92" font-family="Times,serif" font-size="32.00">=&gt;1 v</text>
</g>
<!-- 1&#45;&gt;perf -->
<g id="edge22" class="edge">
<title>1&#45;&gt;perf</title>
<path fill="none" stroke="#000000" d="M964.77,-730.49C918.03,-733.4 823.06,-736.35 800,-714.52 754.44,-671.39 825.64,-619.59 782,-574.52 740.35,-531.5 574.97,-541.94 516,-531.52 510.22,-530.5 504.19,-529.4 498.18,-528.28"/>
<polygon fill="#000000" stroke="#000000" points="498.61,-524.8 488.13,-526.39 497.31,-531.68 498.61,-524.8"/>
<text text-anchor="middle" x="726" y="-618.92" font-family="Times,serif" font-size="32.00">n</text>
<text text-anchor="middle" x="726" y="-583.92" font-family="Times,serif" font-size="32.00">=&gt;1 perf</text>
</g>
<!-- 1&#45;&gt;prog -->
<g id="edge21" class="edge">
<title>1&#45;&gt;prog</title>
<path fill="none" stroke="#000000" d="M979.91,-701.18C968.78,-673.73 951.16,-630.21 936,-592.52 927.96,-572.53 933.58,-562.39 918,-547.52 877.85,-509.18 842.94,-541.71 800,-506.52 772.78,-484.21 753.41,-448.9 741.49,-421.65"/>
<polygon fill="#000000" stroke="#000000" points="744.7,-420.24 737.59,-412.39 738.25,-422.96 744.7,-420.24"/>
<text text-anchor="middle" x="859" y="-591.92" font-family="Times,serif" font-size="32.00">ing</text>
<text text-anchor="middle" x="859" y="-556.92" font-family="Times,serif" font-size="32.00">=&gt;1 prog</text>
</g>
<!-- perf&#45;&gt;0 -->
<g id="edge6" class="edge">
<title>perf&#45;&gt;0</title>
<path fill="none" stroke="#000000" d="M409.52,-540.04C375.18,-565.06 319.08,-607.26 274,-647.52 268.04,-652.84 261.9,-658.79 256.16,-664.58"/>
<polygon fill="#000000" stroke="#000000" points="253.63,-662.17 249.15,-671.77 258.64,-667.05 253.63,-662.17"/>
<text text-anchor="middle" x="321" y="-691.92" font-family="Times,serif" font-size="32.00">have</text>
<text text-anchor="middle" x="321" y="-656.92" font-family="Times,serif" font-size="32.00">=perf 0</text>
</g>
<!-- perf&#45;&gt;v -->
<g id="edge8" class="edge">
<title>perf&#45;&gt;v</title>
<path fill="none" stroke="#000000" d="M485.95,-504.9C552.55,-485.9 685.03,-450.39 800,-433.52 909.25,-417.48 938.28,-430.95 1048,-418.52 1056.06,-417.61 1057.95,-416.47 1066,-415.52 1122.53,-408.83 1188.53,-404.95 1228.38,-403.04"/>
<polygon fill="#000000" stroke="#000000" points="1228.59,-406.53 1238.41,-402.57 1228.26,-399.54 1228.59,-406.53"/>
<text text-anchor="middle" x="859" y="-477.92" font-family="Times,serif" font-size="32.00">have_2</text>
<text text-anchor="middle" x="859" y="-442.92" font-family="Times,serif" font-size="32.00">=perf v</text>
</g>
<!-- perf&#45;&gt;1 -->
<g id="edge7" class="edge">
<title>perf&#45;&gt;1</title>
<path fill="none" stroke="#000000" d="M465.58,-544.13C479.05,-558.73 497.16,-576.3 516,-588.52 522.67,-592.85 776.37,-688.9 782,-694.52 797.24,-709.74 782.16,-727.44 800,-739.52 846.88,-771.26 916,-755.86 956.97,-742.02"/>
<polygon fill="#000000" stroke="#000000" points="958.24,-745.28 966.5,-738.65 955.91,-738.68 958.24,-745.28"/>
<text text-anchor="middle" x="726" y="-738.92" font-family="Times,serif" font-size="32.00">have_1</text>
<text text-anchor="middle" x="726" y="-703.92" font-family="Times,serif" font-size="32.00">=perf 1</text>
</g>
<!-- prog&#45;&gt;0 -->
<g id="edge9" class="edge">
<title>prog&#45;&gt;0</title>
<path fill="none" stroke="#000000" d="M694.11,-358.23C681.74,-349.96 666.9,-341.74 652,-337.52 534.28,-304.15 477.42,-327.19 386,-408.52 321.69,-465.73 313.47,-490.02 274,-566.52 259.56,-594.51 248.04,-628.31 240.42,-653.85"/>
<polygon fill="#000000" stroke="#000000" points="237.03,-652.97 237.6,-663.55 243.76,-654.93 237.03,-652.97"/>
<text text-anchor="middle" x="442" y="-452.92" font-family="Times,serif" font-size="32.00">be</text>
<text text-anchor="middle" x="442" y="-417.92" font-family="Times,serif" font-size="32.00">=prog 0</text>
</g>
<!-- prog&#45;&gt;v -->
<g id="edge11" class="edge">
<title>prog&#45;&gt;v</title>
<path fill="none" stroke="#000000" d="M774.37,-370.81C837.03,-356.86 950.91,-336.81 1048,-348.52 1113.27,-356.39 1187.25,-377.15 1229.64,-390.23"/>
<polygon fill="#000000" stroke="#000000" points="1228.62,-393.58 1239.21,-393.22 1230.7,-386.9 1228.62,-393.58"/>
<text text-anchor="middle" x="992" y="-392.92" font-family="Times,serif" font-size="32.00">be_2</text>
<text text-anchor="middle" x="992" y="-357.92" font-family="Times,serif" font-size="32.00">=prog v</text>
</g>
<!-- prog&#45;&gt;1 -->
<g id="edge10" class="edge">
<title>prog&#45;&gt;1</title>
<path fill="none" stroke="#000000" d="M737.26,-412.45C748.73,-446.28 767.57,-503.09 782,-552.52 790.88,-582.94 776.9,-599.82 800,-621.52 838.95,-658.1 871.74,-617.79 918,-644.52 939.13,-656.73 957.19,-677.34 970.05,-695.09"/>
<polygon fill="#000000" stroke="#000000" points="967.35,-697.33 975.94,-703.53 973.09,-693.33 967.35,-697.33"/>
<text text-anchor="middle" x="859" y="-688.92" font-family="Times,serif" font-size="32.00">be_1</text>
<text text-anchor="middle" x="859" y="-653.92" font-family="Times,serif" font-size="32.00">=prog 1</text>
</g>
<!-- prog&#45;&gt;perf -->
<g id="edge12" class="edge">
<title>prog&#45;&gt;perf</title>
<path fill="none" stroke="#000000" d="M684.59,-363.57C639.76,-345.6 567.04,-325.79 516,-358.52 494.65,-372.21 470.09,-435.69 455.6,-478.19"/>
<polygon fill="#000000" stroke="#000000" points="452.27,-477.11 452.4,-487.7 458.9,-479.34 452.27,-477.11"/>
<text text-anchor="middle" x="584" y="-402.92" font-family="Times,serif" font-size="32.00">ben</text>
<text text-anchor="middle" x="584" y="-367.92" font-family="Times,serif" font-size="32.00">=prog perf</text>
</g>
<!-- 2&#45;&gt;0 -->
<g id="edge23" class="edge">
<title>2&#45;&gt;0</title>
<path fill="none" stroke="#000000" d="M1540.38,-569.98C1499.69,-597.2 1410.76,-654.08 1329,-688.52 981.34,-834.98 874.42,-836.53 498,-861.52 448.33,-864.82 431.6,-881.48 386,-861.52 323.3,-834.07 274.62,-767.6 249.3,-726.68"/>
<polygon fill="#000000" stroke="#000000" points="252.28,-724.85 244.11,-718.11 246.3,-728.48 252.28,-724.85"/>
<text text-anchor="middle" x="859" y="-881.92" font-family="Times,serif" font-size="32.00">ε_2</text>
<text text-anchor="middle" x="859" y="-846.92" font-family="Times,serif" font-size="32.00">=&gt;2 0</text>
</g>
<!-- 2&#45;&gt;v -->
<g id="edge26" class="edge">
<title>2&#45;&gt;v</title>
<path fill="none" stroke="#000000" d="M1539.19,-541.77C1527.22,-534.2 1513.5,-523.53 1505,-510.52 1486.25,-481.82 1512.22,-458.74 1487,-435.52 1483.62,-432.41 1364.38,-415.27 1302.69,-406.58"/>
<polygon fill="#000000" stroke="#000000" points="1302.98,-403.08 1292.59,-405.16 1302.01,-410.01 1302.98,-403.08"/>
<text text-anchor="middle" x="1417" y="-479.92" font-family="Times,serif" font-size="32.00">ε_4</text>
<text text-anchor="middle" x="1417" y="-444.92" font-family="Times,serif" font-size="32.00">=&gt;2 v</text>
</g>
<!-- 2&#45;&gt;1 -->
<g id="edge25" class="edge">
<title>2&#45;&gt;1</title>
<path fill="none" stroke="#000000" d="M1536.93,-556.37C1476.55,-561.25 1323.04,-577.06 1202,-618.52 1135.28,-641.37 1063.87,-683.17 1024.19,-708.14"/>
<polygon fill="#000000" stroke="#000000" points="1022.32,-705.18 1015.75,-713.5 1026.07,-711.09 1022.32,-705.18"/>
<text text-anchor="middle" x="1265.5" y="-662.92" font-family="Times,serif" font-size="32.00">ε_3</text>
<text text-anchor="middle" x="1265.5" y="-627.92" font-family="Times,serif" font-size="32.00">=&gt;2 1</text>
</g>
<!-- 2&#45;&gt;perf -->
<g id="edge28" class="edge">
<title>2&#45;&gt;perf</title>
<path fill="none" stroke="#000000" d="M1536.82,-552.76C1475.3,-548.7 1316.69,-538.63 1184,-533.52 929.18,-523.71 624.82,-519.5 500.33,-518.1"/>
<polygon fill="#000000" stroke="#000000" points="500.3,-514.6 490.26,-517.99 500.22,-521.6 500.3,-514.6"/>
<text text-anchor="middle" x="992" y="-573.92" font-family="Times,serif" font-size="32.00">n_1</text>
<text text-anchor="middle" x="992" y="-538.92" font-family="Times,serif" font-size="32.00">=&gt;2 perf</text>
</g>
<!-- 2&#45;&gt;prog -->
<g id="edge27" class="edge">
<title>2&#45;&gt;prog</title>
<path fill="none" stroke="#000000" d="M1537.98,-545.28C1526.15,-539.63 1512.91,-531.21 1505,-519.52 1477.23,-478.49 1519.42,-446.97 1487,-409.52 1400.06,-309.09 1300.46,-408.68 1202,-319.52 1186.95,-305.89 1200.95,-288.7 1184,-277.52 1050.62,-189.57 853.15,-298.18 768.25,-353.66"/>
<polygon fill="#000000" stroke="#000000" points="766.32,-350.75 759.91,-359.18 770.18,-356.58 766.32,-350.75"/>
<text text-anchor="middle" x="1125" y="-321.92" font-family="Times,serif" font-size="32.00">ing_1</text>
<text text-anchor="middle" x="1125" y="-286.92" font-family="Times,serif" font-size="32.00">=&gt;2 prog</text>
</g>
</g>
</svg>
