<?xml version="1.0" encoding="UTF-8" standalone="no"?>
<!DOCTYPE svg PUBLIC "-//W3C//DTD SVG 1.1//EN"
 "http://www.w3.org/Graphics/SVG/1.1/DTD/svg11.dtd">
<!-- Generated by graphviz version 2.47.1 (20210417.1919)
 -->
<!-- Title: G Pages: 1 -->
<svg width="1541pt" height="1040pt"
 viewBox="0.00 0.00 1541.00 1040.00" xmlns="http://www.w3.org/2000/svg" xmlns:xlink="http://www.w3.org/1999/xlink">
<g id="graph0" class="graph" transform="scale(1 1) rotate(0) translate(4 1036)">
<title>G</title>
<polygon fill="white" stroke="transparent" points="-4,4 -4,-1036 1537,-1036 1537,4 -4,4"/>
<text text-anchor="middle" x="766.5" y="-13.4" font-family="Times,serif" font-size="32.00">single contraction: 1 → 0</text>
<!-- t -->
<g id="node1" class="node">
<title>t</title>
<ellipse fill="lightgray" stroke="black" cx="512" cy="-600" rx="27" ry="30.31"/>
<text text-anchor="middle" x="512" y="-591.9" font-family="Times,serif" font-size="32.00">t</text>
</g>
<!-- z0 -->
<g id="node2" class="node">
<title>z0</title>
<ellipse fill="none" stroke="black" stroke-dasharray="5,2" cx="1506" cy="-427" rx="27" ry="18"/>
</g>
<!-- d -->
<g id="node3" class="node">
<title>d</title>
<ellipse fill="none" stroke="black" cx="1346" cy="-427" rx="27" ry="30.31"/>
<text text-anchor="middle" x="1346" y="-418.9" font-family="Times,serif" font-size="32.00">d</text>
</g>
<!-- z0&#45;&gt;d -->
<g id="edge1" class="edge">
<title>z0&#45;&gt;d</title>
<path fill="none" stroke="#000000" d="M1478.91,-427C1452.84,-427 1412.53,-427 1383.34,-427"/>
<polygon fill="#000000" stroke="#000000" points="1383.13,-423.5 1373.13,-427 1383.13,-430.5 1383.13,-423.5"/>
<text text-anchor="middle" x="1426" y="-471.4" font-family="Times,serif" font-size="32.00">Mary</text>
<text text-anchor="middle" x="1426" y="-436.4" font-family="Times,serif" font-size="32.00">d &#45;k</text>
</g>
<!-- 0 -->
<g id="node4" class="node">
<title>0</title>
<ellipse fill="none" stroke="black" cx="781" cy="-678" rx="27" ry="30.31"/>
<text text-anchor="middle" x="781" y="-669.9" font-family="Times,serif" font-size="32.00">0</text>
</g>
<!-- d&#45;&gt;0 -->
<g id="edge9" class="edge">
<title>d&#45;&gt;0</title>
<path fill="none" stroke="#000000" d="M1345.01,-457.4C1343.41,-494.18 1335.3,-555.89 1301,-594 1174.47,-734.61 912.7,-702.62 817.55,-685.32"/>
<polygon fill="#000000" stroke="#000000" points="818.05,-681.86 807.57,-683.45 816.75,-688.74 818.05,-681.86"/>
<text text-anchor="middle" x="1073" y="-779.4" font-family="Times,serif" font-size="32.00">laugh |</text>
<text text-anchor="middle" x="1073" y="-744.4" font-family="Times,serif" font-size="32.00"> dance</text>
<text text-anchor="middle" x="1073" y="-709.4" font-family="Times,serif" font-size="32.00">=d 0</text>
</g>
<!-- d&#45;&gt;0 -->
<g id="edge13" class="edge">
<title>d&#45;&gt;0</title>
<path fill="none" stroke="#000000" d="M1342.23,-457.27C1338.03,-485.01 1327.48,-525.15 1301,-548 1249.83,-592.16 1068.46,-592.13 1003,-609 936.2,-626.22 859.63,-651.36 816.42,-666.07"/>
<polygon fill="#000000" stroke="#000000" points="815.28,-662.76 806.95,-669.3 817.55,-669.38 815.28,-662.76"/>
<text text-anchor="middle" x="1073" y="-653.4" font-family="Times,serif" font-size="32.00">hug</text>
<text text-anchor="middle" x="1073" y="-618.4" font-family="Times,serif" font-size="32.00">=d *k =d 0</text>
</g>
<!-- v -->
<g id="node5" class="node">
<title>v</title>
<ellipse fill="none" stroke="black" cx="27" cy="-442" rx="27" ry="30.31"/>
<text text-anchor="middle" x="27" y="-433.9" font-family="Times,serif" font-size="32.00">v</text>
</g>
<!-- d&#45;&gt;v -->
<g id="edge10" class="edge">
<title>d&#45;&gt;v</title>
<path fill="none" stroke="#000000" d="M1342.11,-396.49C1336.56,-343.2 1322.96,-235.99 1301,-206 1232.96,-113.07 1189.17,-81 1074,-81 1074,-81 1074,-81 233,-81 139.04,-81 119.49,-136.93 72,-218 38.29,-275.55 29.89,-354.22 28.09,-401.39"/>
<polygon fill="#000000" stroke="#000000" points="24.58,-401.42 27.78,-411.53 31.58,-401.63 24.58,-401.42"/>
<text text-anchor="middle" x="645" y="-160.4" font-family="Times,serif" font-size="32.00">laugh_1 |</text>
<text text-anchor="middle" x="645" y="-125.4" font-family="Times,serif" font-size="32.00"> dance_1</text>
<text text-anchor="middle" x="645" y="-90.4" font-family="Times,serif" font-size="32.00">=d v</text>
</g>
<!-- perf -->
<g id="node6" class="node">
<title>perf</title>
<ellipse fill="none" stroke="black" cx="234" cy="-501" rx="48.17" ry="30.31"/>
<text text-anchor="middle" x="234" y="-492.9" font-family="Times,serif" font-size="32.00">perf</text>
</g>
<!-- d&#45;&gt;perf -->
<g id="edge12" class="edge">
<title>d&#45;&gt;perf</title>
<path fill="none" stroke="#000000" d="M1320.11,-435.77C1262.24,-455.64 1113.71,-503.64 985,-520 929.01,-527.12 914.44,-520.92 858,-520 789.53,-518.89 772.45,-517.13 704,-515 555.58,-510.38 380.74,-505.24 292.35,-502.66"/>
<polygon fill="#000000" stroke="#000000" points="292.36,-499.16 282.27,-502.37 292.16,-506.16 292.36,-499.16"/>
<text text-anchor="middle" x="781" y="-598.4" font-family="Times,serif" font-size="32.00">laughn |</text>
<text text-anchor="middle" x="781" y="-563.4" font-family="Times,serif" font-size="32.00"> dancen</text>
<text text-anchor="middle" x="781" y="-528.4" font-family="Times,serif" font-size="32.00">=d perf</text>
</g>
<!-- prog -->
<g id="node7" class="node">
<title>prog</title>
<ellipse fill="none" stroke="black" cx="512" cy="-399" rx="52.15" ry="30.31"/>
<text text-anchor="middle" x="512" y="-390.9" font-family="Times,serif" font-size="32.00">prog</text>
</g>
<!-- d&#45;&gt;prog -->
<g id="edge11" class="edge">
<title>d&#45;&gt;prog</title>
<path fill="none" stroke="#000000" d="M1320.27,-416.73C1262.72,-393.46 1114.84,-337.23 985,-318 929.16,-309.73 904.08,-285.4 858,-318 838.38,-331.88 858.97,-354.23 840,-369 819.58,-384.9 663.65,-393.33 574.69,-396.9"/>
<polygon fill="#000000" stroke="#000000" points="574.3,-393.41 564.45,-397.3 574.58,-400.4 574.3,-393.41"/>
<text text-anchor="middle" x="921.5" y="-397.4" font-family="Times,serif" font-size="32.00">laughing |</text>
<text text-anchor="middle" x="921.5" y="-362.4" font-family="Times,serif" font-size="32.00"> danceing</text>
<text text-anchor="middle" x="921.5" y="-327.4" font-family="Times,serif" font-size="32.00">=d prog</text>
</g>
<!-- 1 -->
<g id="node8" class="node">
<title>1</title>
<ellipse fill="none" stroke="black" cx="1073" cy="-239" rx="27" ry="30.31"/>
<text text-anchor="middle" x="1073" y="-230.9" font-family="Times,serif" font-size="32.00">1</text>
</g>
<!-- d&#45;&gt;1 -->
<g id="edge18" class="edge">
<title>d&#45;&gt;1</title>
<path fill="none" stroke="#000000" d="M1342.46,-396.55C1337.71,-348.02 1325.65,-256.59 1301,-237 1245.84,-193.16 1157.01,-211.53 1108.44,-226.6"/>
<polygon fill="#000000" stroke="#000000" points="1107.16,-223.33 1098.72,-229.74 1109.31,-230 1107.16,-223.33"/>
<text text-anchor="middle" x="1231" y="-281.4" font-family="Times,serif" font-size="32.00">praise</text>
<text text-anchor="middle" x="1231" y="-246.4" font-family="Times,serif" font-size="32.00">=d *k =d 1</text>
</g>
<!-- 0&#45;&gt;t -->
<g id="edge2" class="edge">
<title>0&#45;&gt;t</title>
<path fill="none" stroke="#000000" d="M758.79,-660.38C744.27,-649.28 724.07,-635.64 704,-628 676.41,-617.5 596.34,-608.19 549.08,-603.41"/>
<polygon fill="#000000" stroke="#000000" points="549.26,-599.91 538.96,-602.4 548.57,-606.87 549.26,-599.91"/>
<text text-anchor="middle" x="645" y="-707.4" font-family="Times,serif" font-size="32.00">s |</text>
<text text-anchor="middle" x="645" y="-672.4" font-family="Times,serif" font-size="32.00"> d</text>
<text text-anchor="middle" x="645" y="-637.4" font-family="Times,serif" font-size="32.00">=&gt;0 +k t</text>
</g>
<!-- 0&#45;&gt;v -->
<g id="edge14" class="edge">
<title>0&#45;&gt;v</title>
<path fill="none" stroke="#000000" d="M773.38,-707.35C763.91,-742.73 743.16,-801.71 704,-836 566.48,-956.44 466.13,-1003.49 302,-923 152.1,-849.49 144.14,-776.56 72,-626 49.75,-579.57 38.25,-521.01 32.68,-482.58"/>
<polygon fill="#000000" stroke="#000000" points="36.1,-481.73 31.26,-472.3 29.16,-482.69 36.1,-481.73"/>
<text text-anchor="middle" x="370" y="-1006.4" font-family="Times,serif" font-size="32.00">ε_0</text>
<text text-anchor="middle" x="370" y="-971.4" font-family="Times,serif" font-size="32.00">=&gt;0 v</text>
</g>
<!-- 0&#45;&gt;perf -->
<g id="edge16" class="edge">
<title>0&#45;&gt;perf</title>
<path fill="none" stroke="#000000" d="M764.25,-702.2C750.75,-720.54 729.47,-744.35 704,-755 602.29,-797.52 557.46,-793.13 456,-750 358.05,-708.36 286.66,-597.78 254.31,-538.99"/>
<polygon fill="#000000" stroke="#000000" points="257.29,-537.15 249.45,-530.02 251.13,-540.48 257.29,-537.15"/>
<text text-anchor="middle" x="512" y="-827.4" font-family="Times,serif" font-size="32.00">n</text>
<text text-anchor="middle" x="512" y="-792.4" font-family="Times,serif" font-size="32.00">=&gt;0 perf</text>
</g>
<!-- 0&#45;&gt;prog -->
<g id="edge15" class="edge">
<title>0&#45;&gt;prog</title>
<path fill="none" stroke="#000000" d="M757.11,-663.08C744.81,-653.86 730.47,-640.94 722,-626 701.24,-589.37 733.99,-562.54 704,-533 666.05,-495.62 630.36,-541.49 586,-512 559.35,-494.29 540.32,-463.17 528.38,-438.07"/>
<polygon fill="#000000" stroke="#000000" points="531.48,-436.43 524.16,-428.78 525.11,-439.34 531.48,-436.43"/>
<text text-anchor="middle" x="645" y="-577.4" font-family="Times,serif" font-size="32.00">ing</text>
<text text-anchor="middle" x="645" y="-542.4" font-family="Times,serif" font-size="32.00">=&gt;0 prog</text>
</g>
<!-- v&#45;&gt;0 -->
<g id="edge3" class="edge">
<title>v&#45;&gt;0</title>
<path fill="none" stroke="#000000" d="M34.9,-471.25C41.57,-495.18 53.43,-529.02 72,-554 201.55,-728.24 250.82,-784.98 456,-856 564.58,-893.58 617.5,-858.63 704,-783 727.08,-762.82 747.12,-734.38 760.81,-712.19"/>
<polygon fill="#000000" stroke="#000000" points="763.94,-713.79 766.11,-703.41 757.95,-710.17 763.94,-713.79"/>
<text text-anchor="middle" x="370" y="-893.4" font-family="Times,serif" font-size="32.00">will</text>
<text text-anchor="middle" x="370" y="-858.4" font-family="Times,serif" font-size="32.00">=v 0</text>
</g>
<!-- perf&#45;&gt;0 -->
<g id="edge4" class="edge">
<title>perf&#45;&gt;0</title>
<path fill="none" stroke="#000000" d="M266.37,-523.52C308.16,-552.81 385.08,-604.34 456,-639 503.63,-662.27 530.96,-642.08 568,-680 585.38,-697.8 565.78,-718.51 586,-733 628.63,-763.54 654.11,-749.16 704,-733 721.71,-727.26 738.75,-715.69 752.19,-704.63"/>
<polygon fill="#000000" stroke="#000000" points="754.76,-707.04 760.07,-697.87 750.21,-701.73 754.76,-707.04"/>
<text text-anchor="middle" x="512" y="-724.4" font-family="Times,serif" font-size="32.00">have</text>
<text text-anchor="middle" x="512" y="-689.4" font-family="Times,serif" font-size="32.00">=perf 0</text>
</g>
<!-- perf&#45;&gt;v -->
<g id="edge5" class="edge">
<title>perf&#45;&gt;v</title>
<path fill="none" stroke="#000000" d="M190.03,-488.63C152.41,-477.81 98.43,-462.27 63.29,-452.16"/>
<polygon fill="#000000" stroke="#000000" points="64.05,-448.73 53.47,-449.33 62.11,-455.46 64.05,-448.73"/>
<text text-anchor="middle" x="119" y="-524.4" font-family="Times,serif" font-size="32.00">have_1</text>
<text text-anchor="middle" x="119" y="-489.4" font-family="Times,serif" font-size="32.00">=perf v</text>
</g>
<!-- prog&#45;&gt;0 -->
<g id="edge6" class="edge">
<title>prog&#45;&gt;0</title>
<path fill="none" stroke="#000000" d="M564.16,-395.35C608.07,-395.27 669.58,-403.02 704,-442 731.2,-472.79 703.44,-589.35 722,-626 728.17,-638.19 738.5,-648.85 748.75,-657.3"/>
<polygon fill="#000000" stroke="#000000" points="746.81,-660.23 756.86,-663.58 751.1,-654.69 746.81,-660.23"/>
<text text-anchor="middle" x="645" y="-486.4" font-family="Times,serif" font-size="32.00">be</text>
<text text-anchor="middle" x="645" y="-451.4" font-family="Times,serif" font-size="32.00">=prog 0</text>
</g>
<!-- prog&#45;&gt;v -->
<g id="edge7" class="edge">
<title>prog&#45;&gt;v</title>
<path fill="none" stroke="#000000" d="M460.78,-392.48C396.27,-385.36 281.06,-376.83 184,-392 140.77,-398.76 93.16,-415.45 62.04,-427.7"/>
<polygon fill="#000000" stroke="#000000" points="60.53,-424.53 52.55,-431.5 63.13,-431.03 60.53,-424.53"/>
<text text-anchor="middle" x="234" y="-436.4" font-family="Times,serif" font-size="32.00">be_1</text>
<text text-anchor="middle" x="234" y="-401.4" font-family="Times,serif" font-size="32.00">=prog v</text>
</g>
<!-- prog&#45;&gt;perf -->
<g id="edge8" class="edge">
<title>prog&#45;&gt;perf</title>
<path fill="none" stroke="#000000" d="M459.35,-397.61C405.76,-397.18 326.43,-399.67 302,-417 286.1,-428.28 295.5,-441.26 284,-457 280.54,-461.73 276.51,-466.33 272.26,-470.66"/>
<polygon fill="#000000" stroke="#000000" points="269.76,-468.22 264.98,-477.68 274.61,-473.26 269.76,-468.22"/>
<text text-anchor="middle" x="370" y="-461.4" font-family="Times,serif" font-size="32.00">ben</text>
<text text-anchor="middle" x="370" y="-426.4" font-family="Times,serif" font-size="32.00">=prog perf</text>
</g>
<!-- 1&#45;&gt;0 -->
<g id="edge17" class="edge">
<title>1&#45;&gt;0</title>
<path fill="none" stroke="#000000" d="M1064.79,-268.06C1053.6,-308.06 1028.67,-380.43 985,-427 941.06,-473.86 894.55,-443.18 858,-496 824.81,-543.96 867.39,-574.5 840,-626 833.59,-638.06 823.21,-648.7 812.99,-657.16"/>
<polygon fill="#000000" stroke="#000000" points="810.64,-654.55 804.9,-663.46 814.94,-660.07 810.64,-654.55"/>
<text text-anchor="middle" x="921.5" y="-540.4" font-family="Times,serif" font-size="32.00">ε_1</text>
<text text-anchor="middle" x="921.5" y="-505.4" font-family="Times,serif" font-size="32.00">=&gt;1 0</text>
</g>
<!-- 1&#45;&gt;v -->
<g id="edge19" class="edge">
<title>1&#45;&gt;v</title>
<path fill="none" stroke="#000000" d="M1046.15,-233.31C995.66,-222.71 880.25,-201 782,-201 782,-201 782,-201 233,-201 127.77,-201 65.23,-335.97 40.42,-403.9"/>
<polygon fill="#000000" stroke="#000000" points="37.09,-402.81 37.03,-413.41 43.68,-405.16 37.09,-402.81"/>
<text text-anchor="middle" x="512" y="-245.4" font-family="Times,serif" font-size="32.00">ε_2</text>
<text text-anchor="middle" x="512" y="-210.4" font-family="Times,serif" font-size="32.00">=&gt;1 v</text>
</g>
<!-- 1&#45;&gt;perf -->
<g id="edge21" class="edge">
<title>1&#45;&gt;perf</title>
<path fill="none" stroke="#000000" d="M1045.94,-237.2C950.67,-230.86 624.78,-211.19 586,-236 569.92,-246.29 581.6,-261.6 568,-275 475.87,-365.77 385.07,-293.87 302,-393 280.54,-418.61 302.76,-438.35 284,-466 282.12,-468.77 279.95,-471.39 277.58,-473.86"/>
<polygon fill="#000000" stroke="#000000" points="275.01,-471.47 270,-480.81 279.74,-476.63 275.01,-471.47"/>
<text text-anchor="middle" x="645" y="-280.4" font-family="Times,serif" font-size="32.00">n_1</text>
<text text-anchor="middle" x="645" y="-245.4" font-family="Times,serif" font-size="32.00">=&gt;1 perf</text>
</g>
<!-- 1&#45;&gt;prog -->
<g id="edge20" class="edge">
<title>1&#45;&gt;prog</title>
<path fill="none" stroke="#000000" d="M1046.17,-243.15C967.83,-255.79 737.31,-293.25 722,-299 713.22,-302.3 712.26,-305.57 704,-310 657.64,-334.87 603.09,-359.88 564.18,-377.03"/>
<polygon fill="#000000" stroke="#000000" points="562.39,-373.99 554.64,-381.22 565.21,-380.4 562.39,-373.99"/>
<text text-anchor="middle" x="781" y="-343.4" font-family="Times,serif" font-size="32.00">ing_1</text>
<text text-anchor="middle" x="781" y="-308.4" font-family="Times,serif" font-size="32.00">=&gt;1 prog</text>
</g>
</g>
</svg>
