<?xml version="1.0" encoding="UTF-8" standalone="no"?>
<!DOCTYPE svg PUBLIC "-//W3C//DTD SVG 1.1//EN"
 "http://www.w3.org/Graphics/SVG/1.1/DTD/svg11.dtd">
<!-- Generated by graphviz version 2.47.1 (20210417.1919)
 -->
<!-- Title: G Pages: 1 -->
<svg width="1353pt" height="817pt"
 viewBox="0.00 0.00 1353.17 817.00" xmlns="http://www.w3.org/2000/svg" xmlns:xlink="http://www.w3.org/1999/xlink">
<g id="graph0" class="graph" transform="scale(1 1) rotate(0) translate(4 813)">
<title>G</title>
<polygon fill="white" stroke="transparent" points="-4,4 -4,-813 1349.17,-813 1349.17,4 -4,4"/>
<text text-anchor="middle" x="672.58" y="-13.4" font-family="Times,serif" font-size="32.00">single contraction: 0 → v</text>
<!-- t -->
<g id="node1" class="node">
<title>t</title>
<ellipse fill="lightgray" stroke="black" cx="324.17" cy="-737" rx="27" ry="30.31"/>
<text text-anchor="middle" x="324.17" y="-728.9" font-family="Times,serif" font-size="32.00">t</text>
</g>
<!-- z0 -->
<g id="node2" class="node">
<title>z0</title>
<ellipse fill="none" stroke="black" stroke-dasharray="5,2" cx="1318.17" cy="-365" rx="27" ry="18"/>
</g>
<!-- d -->
<g id="node3" class="node">
<title>d</title>
<ellipse fill="none" stroke="black" cx="1158.17" cy="-365" rx="27" ry="30.31"/>
<text text-anchor="middle" x="1158.17" y="-356.9" font-family="Times,serif" font-size="32.00">d</text>
</g>
<!-- z0&#45;&gt;d -->
<g id="edge1" class="edge">
<title>z0&#45;&gt;d</title>
<path fill="none" stroke="#000000" d="M1291.08,-365C1265,-365 1224.7,-365 1195.5,-365"/>
<polygon fill="#000000" stroke="#000000" points="1195.3,-361.5 1185.3,-365 1195.3,-368.5 1195.3,-361.5"/>
<text text-anchor="middle" x="1238.17" y="-409.4" font-family="Times,serif" font-size="32.00">Mary</text>
<text text-anchor="middle" x="1238.17" y="-374.4" font-family="Times,serif" font-size="32.00">d &#45;k</text>
</g>
<!-- v -->
<g id="node4" class="node">
<title>v</title>
<ellipse fill="none" stroke="black" cx="593.17" cy="-529" rx="27" ry="30.31"/>
<text text-anchor="middle" x="593.17" y="-520.9" font-family="Times,serif" font-size="32.00">v</text>
</g>
<!-- d&#45;&gt;v -->
<g id="edge7" class="edge">
<title>d&#45;&gt;v</title>
<path fill="none" stroke="#000000" d="M1154.7,-395.17C1150.72,-425.13 1140.31,-470.58 1113.17,-499 1061.28,-553.31 1029.05,-545.44 955.17,-559 837.15,-580.65 694.53,-553.37 629.53,-538.06"/>
<polygon fill="#000000" stroke="#000000" points="630.32,-534.65 619.78,-535.72 628.68,-541.46 630.32,-534.65"/>
<text text-anchor="middle" x="885.17" y="-646.4" font-family="Times,serif" font-size="32.00">laugh |</text>
<text text-anchor="middle" x="885.17" y="-611.4" font-family="Times,serif" font-size="32.00"> dance</text>
<text text-anchor="middle" x="885.17" y="-576.4" font-family="Times,serif" font-size="32.00">=d v</text>
</g>
<!-- d&#45;&gt;v -->
<g id="edge10" class="edge">
<title>d&#45;&gt;v</title>
<path fill="none" stroke="#000000" d="M1132.07,-373.1C1125.9,-375.06 1119.3,-377.13 1113.17,-379 973.24,-421.62 937.71,-430.46 797.17,-471 738.24,-488 669.62,-507.55 629.16,-519.06"/>
<polygon fill="#000000" stroke="#000000" points="628.16,-515.71 619.5,-521.81 630.07,-522.44 628.16,-515.71"/>
<text text-anchor="middle" x="885.17" y="-509.4" font-family="Times,serif" font-size="32.00">hug</text>
<text text-anchor="middle" x="885.17" y="-474.4" font-family="Times,serif" font-size="32.00">=d *k =d v</text>
</g>
<!-- perf -->
<g id="node5" class="node">
<title>perf</title>
<ellipse fill="none" stroke="black" cx="48.08" cy="-359" rx="48.17" ry="30.31"/>
<text text-anchor="middle" x="48.08" y="-350.9" font-family="Times,serif" font-size="32.00">perf</text>
</g>
<!-- d&#45;&gt;perf -->
<g id="edge9" class="edge">
<title>d&#45;&gt;perf</title>
<path fill="none" stroke="#000000" d="M1152.09,-335.25C1146.31,-308.24 1134.72,-268.41 1113.17,-240 1038.71,-141.88 1009.34,-81 886.17,-81 886.17,-81 886.17,-81 323.17,-81 190.41,-81 100.35,-243.75 65.37,-320.2"/>
<polygon fill="#000000" stroke="#000000" points="62.09,-318.96 61.18,-329.51 68.48,-321.82 62.09,-318.96"/>
<text text-anchor="middle" x="593.17" y="-160.4" font-family="Times,serif" font-size="32.00">laughn |</text>
<text text-anchor="middle" x="593.17" y="-125.4" font-family="Times,serif" font-size="32.00"> dancen</text>
<text text-anchor="middle" x="593.17" y="-90.4" font-family="Times,serif" font-size="32.00">=d perf</text>
</g>
<!-- prog -->
<g id="node6" class="node">
<title>prog</title>
<ellipse fill="none" stroke="black" cx="324.17" cy="-359" rx="52.15" ry="30.31"/>
<text text-anchor="middle" x="324.17" y="-350.9" font-family="Times,serif" font-size="32.00">prog</text>
</g>
<!-- d&#45;&gt;prog -->
<g id="edge8" class="edge">
<title>d&#45;&gt;prog</title>
<path fill="none" stroke="#000000" d="M1130.91,-364.55C1043.58,-363.1 754.89,-358.49 516.17,-357 463.72,-356.67 450.61,-356.28 398.17,-357 394.46,-357.05 390.65,-357.12 386.81,-357.19"/>
<polygon fill="#000000" stroke="#000000" points="386.53,-353.7 376.61,-357.41 386.68,-360.7 386.53,-353.7"/>
<text text-anchor="middle" x="733.67" y="-438.4" font-family="Times,serif" font-size="32.00">laughing |</text>
<text text-anchor="middle" x="733.67" y="-403.4" font-family="Times,serif" font-size="32.00"> danceing</text>
<text text-anchor="middle" x="733.67" y="-368.4" font-family="Times,serif" font-size="32.00">=d prog</text>
</g>
<!-- 0 -->
<g id="node7" class="node">
<title>0</title>
<ellipse fill="none" stroke="black" cx="885.17" cy="-249" rx="27" ry="30.31"/>
<text text-anchor="middle" x="885.17" y="-240.9" font-family="Times,serif" font-size="32.00">0</text>
</g>
<!-- d&#45;&gt;0 -->
<g id="edge14" class="edge">
<title>d&#45;&gt;0</title>
<path fill="none" stroke="#000000" d="M1149.43,-335.85C1142.9,-317.14 1131.6,-294 1113.17,-281 1056.01,-240.7 970.38,-240.65 922.28,-244.58"/>
<polygon fill="#000000" stroke="#000000" points="921.68,-241.12 912.04,-245.52 922.32,-248.09 921.68,-241.12"/>
<text text-anchor="middle" x="1043.17" y="-325.4" font-family="Times,serif" font-size="32.00">praise</text>
<text text-anchor="middle" x="1043.17" y="-290.4" font-family="Times,serif" font-size="32.00">=d *k =d 0</text>
</g>
<!-- v&#45;&gt;t -->
<g id="edge2" class="edge">
<title>v&#45;&gt;t</title>
<path fill="none" stroke="#000000" d="M577.93,-554.57C564.32,-577.29 542.08,-610.31 516.17,-633 468.01,-675.16 399.88,-707.09 359.34,-723.85"/>
<polygon fill="#000000" stroke="#000000" points="357.85,-720.68 349.9,-727.68 360.49,-727.16 357.85,-720.68"/>
<text text-anchor="middle" x="457.17" y="-783.4" font-family="Times,serif" font-size="32.00">s |</text>
<text text-anchor="middle" x="457.17" y="-748.4" font-family="Times,serif" font-size="32.00"> d</text>
<text text-anchor="middle" x="457.17" y="-713.4" font-family="Times,serif" font-size="32.00">=&gt;v +k t</text>
</g>
<!-- v&#45;&gt;v -->
<g id="edge3" class="edge">
<title>v&#45;&gt;v</title>
<path fill="none" stroke="#000000" d="M614.93,-547.12C623.93,-561.98 616.67,-577.41 593.17,-577.41 574.8,-577.41 566.36,-567.99 567.83,-556.79"/>
<polygon fill="#000000" stroke="#000000" points="571.22,-557.72 571.4,-547.12 564.65,-555.29 571.22,-557.72"/>
<text text-anchor="middle" x="593.17" y="-621.81" font-family="Times,serif" font-size="32.00">will</text>
<text text-anchor="middle" x="593.17" y="-586.81" font-family="Times,serif" font-size="32.00">=v v</text>
</g>
<!-- v&#45;&gt;perf -->
<g id="edge12" class="edge">
<title>v&#45;&gt;perf</title>
<path fill="none" stroke="#000000" d="M568.81,-542.39C514.72,-571.59 377.12,-635.41 268.17,-597 185.29,-567.78 171.17,-539.88 114.17,-473 94.81,-450.29 78.22,-420.98 66.64,-397.77"/>
<polygon fill="#000000" stroke="#000000" points="69.68,-396.01 62.14,-388.55 63.39,-399.08 69.68,-396.01"/>
<text text-anchor="middle" x="324.17" y="-652.4" font-family="Times,serif" font-size="32.00">n</text>
<text text-anchor="middle" x="324.17" y="-617.4" font-family="Times,serif" font-size="32.00">=&gt;v perf</text>
</g>
<!-- v&#45;&gt;prog -->
<g id="edge11" class="edge">
<title>v&#45;&gt;prog</title>
<path fill="none" stroke="#000000" d="M572.3,-509.31C557.9,-496.17 537.31,-479.6 516.17,-470 467.52,-447.91 444.12,-474.26 398.17,-447 377.63,-434.82 360.27,-414.65 347.64,-396.69"/>
<polygon fill="#000000" stroke="#000000" points="350.33,-394.42 341.83,-388.1 344.53,-398.34 350.33,-394.42"/>
<text text-anchor="middle" x="457.17" y="-514.4" font-family="Times,serif" font-size="32.00">ing</text>
<text text-anchor="middle" x="457.17" y="-479.4" font-family="Times,serif" font-size="32.00">=&gt;v prog</text>
</g>
<!-- perf&#45;&gt;v -->
<g id="edge4" class="edge">
<title>perf&#45;&gt;v</title>
<path fill="none" stroke="#000000" d="M68.02,-386.8C79.75,-402.23 96.02,-420.73 114.17,-433 218.04,-503.23 269.1,-468.81 380.17,-527 388.91,-531.58 388.78,-536.96 398.17,-540 451.46,-557.23 517.24,-547.48 556.88,-538.5"/>
<polygon fill="#000000" stroke="#000000" points="557.69,-541.91 566.62,-536.19 556.08,-535.1 557.69,-541.91"/>
<text text-anchor="middle" x="324.17" y="-571.4" font-family="Times,serif" font-size="32.00">have</text>
<text text-anchor="middle" x="324.17" y="-536.4" font-family="Times,serif" font-size="32.00">=perf v</text>
</g>
<!-- prog&#45;&gt;v -->
<g id="edge5" class="edge">
<title>prog&#45;&gt;v</title>
<path fill="none" stroke="#000000" d="M376.78,-358.35C425.5,-358.7 494.25,-361.99 516.17,-377 554.05,-402.95 573.96,-453.53 583.75,-489.2"/>
<polygon fill="#000000" stroke="#000000" points="580.47,-490.48 586.36,-499.29 587.24,-488.73 580.47,-490.48"/>
<text text-anchor="middle" x="457.17" y="-421.4" font-family="Times,serif" font-size="32.00">be</text>
<text text-anchor="middle" x="457.17" y="-386.4" font-family="Times,serif" font-size="32.00">=prog v</text>
</g>
<!-- prog&#45;&gt;perf -->
<g id="edge6" class="edge">
<title>prog&#45;&gt;perf</title>
<path fill="none" stroke="#000000" d="M271.61,-359C224.56,-359 155.13,-359 106.36,-359"/>
<polygon fill="#000000" stroke="#000000" points="106.29,-355.5 96.29,-359 106.29,-362.5 106.29,-355.5"/>
<text text-anchor="middle" x="182.17" y="-403.4" font-family="Times,serif" font-size="32.00">ben</text>
<text text-anchor="middle" x="182.17" y="-368.4" font-family="Times,serif" font-size="32.00">=prog perf</text>
</g>
<!-- 0&#45;&gt;v -->
<g id="edge13" class="edge">
<title>0&#45;&gt;v</title>
<path fill="none" stroke="#000000" d="M857.96,-250.32C803.98,-253.27 684.26,-261.08 670.17,-273 647.93,-291.81 660.36,-308.06 652.17,-336 636.4,-389.78 617.66,-451.82 605.83,-490.73"/>
<polygon fill="#000000" stroke="#000000" points="602.4,-490 602.84,-500.59 609.1,-492.04 602.4,-490"/>
<text text-anchor="middle" x="733.67" y="-317.4" font-family="Times,serif" font-size="32.00">ε_0</text>
<text text-anchor="middle" x="733.67" y="-282.4" font-family="Times,serif" font-size="32.00">=&gt;0 v</text>
</g>
<!-- 0&#45;&gt;perf -->
<g id="edge16" class="edge">
<title>0&#45;&gt;perf</title>
<path fill="none" stroke="#000000" d="M858.83,-242.13C786.26,-223.51 571.71,-175.73 398.17,-211 282.58,-234.49 157.77,-297.61 93.29,-333.37"/>
<polygon fill="#000000" stroke="#000000" points="91.24,-330.5 84.22,-338.44 94.66,-336.61 91.24,-330.5"/>
<text text-anchor="middle" x="457.17" y="-255.4" font-family="Times,serif" font-size="32.00">n_1</text>
<text text-anchor="middle" x="457.17" y="-220.4" font-family="Times,serif" font-size="32.00">=&gt;0 perf</text>
</g>
<!-- 0&#45;&gt;prog -->
<g id="edge15" class="edge">
<title>0&#45;&gt;prog</title>
<path fill="none" stroke="#000000" d="M858.06,-248.12C817.67,-247.07 737.64,-246.21 670.17,-253 609.02,-259.15 593.29,-261.23 534.17,-278 525.91,-280.34 524.19,-281.94 516.17,-285 463.86,-304.92 450.28,-308.58 398.17,-329 391.24,-331.71 383.96,-334.63 376.8,-337.53"/>
<polygon fill="#000000" stroke="#000000" points="375.09,-334.45 367.15,-341.47 377.73,-340.93 375.09,-334.45"/>
<text text-anchor="middle" x="593.17" y="-322.4" font-family="Times,serif" font-size="32.00">ing_1</text>
<text text-anchor="middle" x="593.17" y="-287.4" font-family="Times,serif" font-size="32.00">=&gt;0 prog</text>
</g>
</g>
</svg>
