<?xml version="1.0" encoding="UTF-8" standalone="no"?>
<!DOCTYPE svg PUBLIC "-//W3C//DTD SVG 1.1//EN"
 "http://www.w3.org/Graphics/SVG/1.1/DTD/svg11.dtd">
<!-- Generated by graphviz version 2.47.1 (20210417.1919)
 -->
<!-- Title: G Pages: 1 -->
<svg width="1059pt" height="651pt"
 viewBox="0.00 0.00 1059.17 651.28" xmlns="http://www.w3.org/2000/svg" xmlns:xlink="http://www.w3.org/1999/xlink">
<g id="graph0" class="graph" transform="scale(1 1) rotate(0) translate(4 647.28)">
<title>G</title>
<polygon fill="white" stroke="transparent" points="-4,4 -4,-647.28 1055.17,-647.28 1055.17,4 -4,4"/>
<text text-anchor="middle" x="525.58" y="-13.4" font-family="Times,serif" font-size="32.00">single contraction: 0 → v</text>
<!-- t -->
<g id="node1" class="node">
<title>t</title>
<ellipse fill="lightgray" stroke="black" cx="324.17" cy="-520.28" rx="27" ry="30.31"/>
<text text-anchor="middle" x="324.17" y="-512.18" font-family="Times,serif" font-size="32.00">t</text>
</g>
<!-- z0 -->
<g id="node2" class="node">
<title>z0</title>
<ellipse fill="none" stroke="black" stroke-dasharray="5,2" cx="1024.17" cy="-223.28" rx="27" ry="18"/>
</g>
<!-- d -->
<g id="node3" class="node">
<title>d</title>
<ellipse fill="none" stroke="black" cx="864.17" cy="-223.28" rx="27" ry="30.31"/>
<text text-anchor="middle" x="864.17" y="-215.18" font-family="Times,serif" font-size="32.00">d</text>
</g>
<!-- z0&#45;&gt;d -->
<g id="edge1" class="edge">
<title>z0&#45;&gt;d</title>
<path fill="none" stroke="#000000" d="M997.08,-223.28C971,-223.28 930.7,-223.28 901.5,-223.28"/>
<polygon fill="#000000" stroke="#000000" points="901.3,-219.78 891.3,-223.28 901.3,-226.78 901.3,-219.78"/>
<text text-anchor="middle" x="944.17" y="-267.68" font-family="Times,serif" font-size="32.00">Mary</text>
<text text-anchor="middle" x="944.17" y="-232.68" font-family="Times,serif" font-size="32.00">d &#45;k</text>
</g>
<!-- v -->
<g id="node4" class="node">
<title>v</title>
<ellipse fill="none" stroke="black" cx="597.67" cy="-368.28" rx="27" ry="30.31"/>
<text text-anchor="middle" x="597.67" y="-360.18" font-family="Times,serif" font-size="32.00">v</text>
</g>
<!-- d&#45;&gt;v -->
<g id="edge7" class="edge">
<title>d&#45;&gt;v</title>
<path fill="none" stroke="#000000" d="M861.21,-253.58C857.61,-282.27 847.49,-324.14 819.17,-346.28 765.9,-387.9 681.88,-382.75 634.41,-375.43"/>
<polygon fill="#000000" stroke="#000000" points="634.74,-371.93 624.3,-373.75 633.59,-378.84 634.74,-371.93"/>
<text text-anchor="middle" x="749.17" y="-459.68" font-family="Times,serif" font-size="32.00">laugh |</text>
<text text-anchor="middle" x="749.17" y="-424.68" font-family="Times,serif" font-size="32.00"> dance</text>
<text text-anchor="middle" x="749.17" y="-389.68" font-family="Times,serif" font-size="32.00">=d v</text>
</g>
<!-- d&#45;&gt;v -->
<g id="edge10" class="edge">
<title>d&#45;&gt;v</title>
<path fill="none" stroke="#000000" d="M837.02,-221.61C791.93,-219.31 702.16,-217.46 679.17,-237.28 651.89,-260.79 680,-285.59 661.17,-316.28 653.46,-328.84 641.65,-339.8 630.36,-348.38"/>
<polygon fill="#000000" stroke="#000000" points="627.97,-345.78 621.9,-354.46 632.06,-351.46 627.97,-345.78"/>
<text text-anchor="middle" x="749.17" y="-316.68" font-family="Times,serif" font-size="32.00">hug |</text>
<text text-anchor="middle" x="749.17" y="-281.68" font-family="Times,serif" font-size="32.00"> praise</text>
<text text-anchor="middle" x="749.17" y="-246.68" font-family="Times,serif" font-size="32.00">=d *k =d v</text>
</g>
<!-- perf -->
<g id="node5" class="node">
<title>perf</title>
<ellipse fill="none" stroke="black" cx="48.08" cy="-367.28" rx="48.17" ry="30.31"/>
<text text-anchor="middle" x="48.08" y="-359.18" font-family="Times,serif" font-size="32.00">perf</text>
</g>
<!-- d&#45;&gt;perf -->
<g id="edge9" class="edge">
<title>d&#45;&gt;perf</title>
<path fill="none" stroke="#000000" d="M840.39,-207.78C772.82,-163.77 567.69,-44.31 398.17,-93.28 254.82,-134.68 221.67,-168.81 114.17,-272.28 96.76,-289.03 81.28,-311.14 69.79,-329.81"/>
<polygon fill="#000000" stroke="#000000" points="66.79,-328.02 64.64,-338.39 72.79,-331.62 66.79,-328.02"/>
<text text-anchor="middle" x="457.17" y="-172.68" font-family="Times,serif" font-size="32.00">laughn |</text>
<text text-anchor="middle" x="457.17" y="-137.68" font-family="Times,serif" font-size="32.00"> dancen</text>
<text text-anchor="middle" x="457.17" y="-102.68" font-family="Times,serif" font-size="32.00">=d perf</text>
</g>
<!-- prog -->
<g id="node6" class="node">
<title>prog</title>
<ellipse fill="none" stroke="black" cx="324.17" cy="-263.28" rx="52.15" ry="30.31"/>
<text text-anchor="middle" x="324.17" y="-255.18" font-family="Times,serif" font-size="32.00">prog</text>
</g>
<!-- d&#45;&gt;prog -->
<g id="edge8" class="edge">
<title>d&#45;&gt;prog</title>
<path fill="none" stroke="#000000" d="M837.36,-218.52C765.98,-206.35 560.4,-177.94 398.17,-221.28 387.35,-224.17 376.48,-229.08 366.54,-234.56"/>
<polygon fill="#000000" stroke="#000000" points="364.59,-231.64 357.72,-239.7 368.12,-237.69 364.59,-231.64"/>
<text text-anchor="middle" x="597.67" y="-279.68" font-family="Times,serif" font-size="32.00">laughing |</text>
<text text-anchor="middle" x="597.67" y="-244.68" font-family="Times,serif" font-size="32.00"> danceing</text>
<text text-anchor="middle" x="597.67" y="-209.68" font-family="Times,serif" font-size="32.00">=d prog</text>
</g>
<!-- v&#45;&gt;t -->
<g id="edge2" class="edge">
<title>v&#45;&gt;t</title>
<path fill="none" stroke="#000000" d="M576.7,-387.79C561.28,-401.9 538.81,-420.49 516.17,-432.28 467.65,-457.54 447.23,-443.08 398.17,-467.28 382.61,-474.95 366.85,-485.9 353.98,-495.86"/>
<polygon fill="#000000" stroke="#000000" points="351.63,-493.26 345.97,-502.22 355.98,-498.74 351.63,-493.26"/>
<text text-anchor="middle" x="457.17" y="-546.68" font-family="Times,serif" font-size="32.00">s |</text>
<text text-anchor="middle" x="457.17" y="-511.68" font-family="Times,serif" font-size="32.00"> d</text>
<text text-anchor="middle" x="457.17" y="-476.68" font-family="Times,serif" font-size="32.00">=&gt;v +k t</text>
</g>
<!-- v&#45;&gt;v -->
<g id="edge3" class="edge">
<title>v&#45;&gt;v</title>
<path fill="none" stroke="#000000" d="M619.75,-385.9C629.5,-400.91 622.14,-416.68 597.67,-416.68 578.36,-416.68 569.7,-406.86 571.7,-395.34"/>
<polygon fill="#000000" stroke="#000000" points="575.01,-396.48 575.58,-385.9 568.54,-393.81 575.01,-396.48"/>
<text text-anchor="middle" x="597.67" y="-461.08" font-family="Times,serif" font-size="32.00">will</text>
<text text-anchor="middle" x="597.67" y="-426.08" font-family="Times,serif" font-size="32.00">=v v</text>
</g>
<!-- v&#45;&gt;perf -->
<g id="edge12" class="edge">
<title>v&#45;&gt;perf</title>
<path fill="none" stroke="#000000" d="M573.26,-381.91C557.66,-390.19 536.38,-399.96 516.17,-404.28 442.05,-420.1 188.49,-402.13 114.17,-388.28 109.45,-387.4 104.61,-386.28 99.79,-385.01"/>
<polygon fill="#000000" stroke="#000000" points="100.56,-381.59 89.99,-382.23 98.65,-388.32 100.56,-381.59"/>
<text text-anchor="middle" x="324.17" y="-453.68" font-family="Times,serif" font-size="32.00">n</text>
<text text-anchor="middle" x="324.17" y="-418.68" font-family="Times,serif" font-size="32.00">=&gt;v perf</text>
</g>
<!-- v&#45;&gt;prog -->
<g id="edge11" class="edge">
<title>v&#45;&gt;prog</title>
<path fill="none" stroke="#000000" d="M573.43,-354.46C559.98,-345.28 543.84,-332.04 534.17,-316.28 515.33,-285.59 544.32,-259.74 516.17,-237.28 475.79,-205.07 414.68,-221.14 372.51,-238.99"/>
<polygon fill="#000000" stroke="#000000" points="371.03,-235.82 363.29,-243.05 373.85,-242.23 371.03,-235.82"/>
<text text-anchor="middle" x="457.17" y="-281.68" font-family="Times,serif" font-size="32.00">ing</text>
<text text-anchor="middle" x="457.17" y="-246.68" font-family="Times,serif" font-size="32.00">=&gt;v prog</text>
</g>
<!-- perf&#45;&gt;v -->
<g id="edge4" class="edge">
<title>perf&#45;&gt;v</title>
<path fill="none" stroke="#000000" d="M70.2,-394.44C105.74,-437.89 182.11,-521.91 268.17,-559.28 321.43,-582.4 340.17,-569.39 398.17,-572.28 450.55,-574.89 472.81,-601.78 516.17,-572.28 569.98,-535.66 587.82,-456.97 593.73,-408.74"/>
<polygon fill="#000000" stroke="#000000" points="597.23,-408.96 594.85,-398.64 590.27,-408.19 597.23,-408.96"/>
<text text-anchor="middle" x="324.17" y="-617.68" font-family="Times,serif" font-size="32.00">have</text>
<text text-anchor="middle" x="324.17" y="-582.68" font-family="Times,serif" font-size="32.00">=perf v</text>
</g>
<!-- prog&#45;&gt;v -->
<g id="edge5" class="edge">
<title>prog&#45;&gt;v</title>
<path fill="none" stroke="#000000" d="M356.36,-287.65C368.77,-296.28 383.56,-305.32 398.17,-311.28 447.64,-331.45 465.06,-318.69 516.17,-334.28 531.97,-339.1 548.89,-345.97 563.12,-352.27"/>
<polygon fill="#000000" stroke="#000000" points="561.94,-355.58 572.49,-356.51 564.83,-349.2 561.94,-355.58"/>
<text text-anchor="middle" x="457.17" y="-378.68" font-family="Times,serif" font-size="32.00">be</text>
<text text-anchor="middle" x="457.17" y="-343.68" font-family="Times,serif" font-size="32.00">=prog v</text>
</g>
<!-- prog&#45;&gt;perf -->
<g id="edge6" class="edge">
<title>prog&#45;&gt;perf</title>
<path fill="none" stroke="#000000" d="M273.12,-270.82C229.54,-278.68 165.49,-293.4 114.17,-318.28 104.03,-323.19 93.91,-329.79 84.76,-336.54"/>
<polygon fill="#000000" stroke="#000000" points="82.47,-333.89 76.67,-342.75 86.74,-339.44 82.47,-333.89"/>
<text text-anchor="middle" x="182.17" y="-362.68" font-family="Times,serif" font-size="32.00">ben</text>
<text text-anchor="middle" x="182.17" y="-327.68" font-family="Times,serif" font-size="32.00">=prog perf</text>
</g>
</g>
</svg>
