<?xml version="1.0" encoding="UTF-8" standalone="no"?>
<!DOCTYPE svg PUBLIC "-//W3C//DTD SVG 1.1//EN"
 "http://www.w3.org/Graphics/SVG/1.1/DTD/svg11.dtd">
<!-- Generated by graphviz version 2.47.1 (20210417.1919)
 -->
<!-- Title: G Pages: 1 -->
<svg width="1934pt" height="676pt"
 viewBox="0.00 0.00 1934.00 676.00" xmlns="http://www.w3.org/2000/svg" xmlns:xlink="http://www.w3.org/1999/xlink">
<g id="graph0" class="graph" transform="scale(1 1) rotate(0) translate(4 672)">
<title>G</title>
<polygon fill="white" stroke="transparent" points="-4,4 -4,-672 1930,-672 1930,4 -4,4"/>
<!-- t -->
<g id="node1" class="node">
<title>t</title>
<ellipse fill="lightgray" stroke="black" cx="27" cy="-252" rx="27" ry="30.31"/>
<text text-anchor="middle" x="27" y="-243.9" font-family="Times,serif" font-size="32.00">t</text>
</g>
<!-- z0 -->
<g id="node2" class="node">
<title>z0</title>
<ellipse fill="none" stroke="black" stroke-dasharray="5,2" cx="1899" cy="-399" rx="27" ry="18"/>
</g>
<!-- d -->
<g id="node3" class="node">
<title>d</title>
<ellipse fill="none" stroke="black" cx="1739" cy="-399" rx="27" ry="30.31"/>
<text text-anchor="middle" x="1739" y="-390.9" font-family="Times,serif" font-size="32.00">d</text>
</g>
<!-- z0&#45;&gt;d -->
<g id="edge1" class="edge">
<title>z0&#45;&gt;d</title>
<path fill="none" stroke="#000000" d="M1871.91,-399C1845.84,-399 1805.53,-399 1776.34,-399"/>
<polygon fill="#000000" stroke="#000000" points="1776.13,-395.5 1766.13,-399 1776.13,-402.5 1776.13,-395.5"/>
<text text-anchor="middle" x="1819" y="-443.4" font-family="Times,serif" font-size="32.00">Mary</text>
<text text-anchor="middle" x="1819" y="-408.4" font-family="Times,serif" font-size="32.00">d &#45;k</text>
</g>
<!-- 5 -->
<g id="node12" class="node">
<title>5</title>
<ellipse fill="none" stroke="black" cx="1331" cy="-360" rx="27" ry="30.31"/>
<text text-anchor="middle" x="1331" y="-351.9" font-family="Times,serif" font-size="32.00">5</text>
</g>
<!-- d&#45;&gt;5 -->
<g id="edge24" class="edge">
<title>d&#45;&gt;5</title>
<path fill="none" stroke="#000000" d="M1722.08,-422.94C1714.69,-432.08 1705.07,-441.58 1694,-447 1566.84,-509.26 1493.75,-544.62 1376,-466 1354.2,-451.45 1343.19,-423.87 1337.63,-400.49"/>
<polygon fill="#000000" stroke="#000000" points="1341,-399.5 1335.51,-390.44 1334.15,-400.95 1341,-399.5"/>
<text text-anchor="middle" x="1529" y="-555.4" font-family="Times,serif" font-size="32.00">praise</text>
<text text-anchor="middle" x="1529" y="-520.4" font-family="Times,serif" font-size="32.00">=d *k 5</text>
</g>
<!-- 6 -->
<g id="node14" class="node">
<title>6</title>
<ellipse fill="none" stroke="black" cx="1529" cy="-281" rx="27" ry="30.31"/>
<text text-anchor="middle" x="1529" y="-272.9" font-family="Times,serif" font-size="32.00">6</text>
</g>
<!-- d&#45;&gt;6 -->
<g id="edge23" class="edge">
<title>d&#45;&gt;6</title>
<path fill="none" stroke="#000000" d="M1714.54,-385.69C1677.23,-364.52 1604.27,-323.13 1562.12,-299.22"/>
<polygon fill="#000000" stroke="#000000" points="1563.8,-296.15 1553.37,-294.26 1560.34,-302.24 1563.8,-296.15"/>
<text text-anchor="middle" x="1645" y="-417.4" font-family="Times,serif" font-size="32.00">hug</text>
<text text-anchor="middle" x="1645" y="-382.4" font-family="Times,serif" font-size="32.00">=d *k 6</text>
</g>
<!-- 0 -->
<g id="node4" class="node">
<title>0</title>
<ellipse fill="none" stroke="black" cx="229" cy="-380" rx="27" ry="30.31"/>
<text text-anchor="middle" x="229" y="-371.9" font-family="Times,serif" font-size="32.00">0</text>
</g>
<!-- 0&#45;&gt;t -->
<g id="edge2" class="edge">
<title>0&#45;&gt;t</title>
<path fill="none" stroke="#000000" d="M203.2,-370.52C171.05,-357.53 114.12,-332.11 72,-300 65.3,-294.89 58.77,-288.69 52.88,-282.46"/>
<polygon fill="#000000" stroke="#000000" points="55.11,-279.71 45.8,-274.64 49.92,-284.41 55.11,-279.71"/>
<text text-anchor="middle" x="128" y="-404.4" font-family="Times,serif" font-size="32.00">s</text>
<text text-anchor="middle" x="128" y="-369.4" font-family="Times,serif" font-size="32.00">=&gt;0 +k t</text>
</g>
<!-- v -->
<g id="node5" class="node">
<title>v</title>
<ellipse fill="none" stroke="black" cx="401" cy="-310" rx="27" ry="30.31"/>
<text text-anchor="middle" x="401" y="-301.9" font-family="Times,serif" font-size="32.00">v</text>
</g>
<!-- v&#45;&gt;0 -->
<g id="edge3" class="edge">
<title>v&#45;&gt;0</title>
<path fill="none" stroke="#000000" d="M373.88,-312.31C342.15,-315.46 290.77,-321.79 274,-331 266.15,-335.31 258.98,-341.57 252.82,-348.19"/>
<polygon fill="#000000" stroke="#000000" points="249.94,-346.16 246.06,-356.02 255.24,-350.73 249.94,-346.16"/>
<text text-anchor="middle" x="315" y="-375.4" font-family="Times,serif" font-size="32.00">will</text>
<text text-anchor="middle" x="315" y="-340.4" font-family="Times,serif" font-size="32.00">=v 0</text>
</g>
<!-- 1 -->
<g id="node6" class="node">
<title>1</title>
<ellipse fill="none" stroke="black" cx="229" cy="-160" rx="27" ry="30.31"/>
<text text-anchor="middle" x="229" y="-151.9" font-family="Times,serif" font-size="32.00">1</text>
</g>
<!-- v&#45;&gt;1 -->
<g id="edge5" class="edge">
<title>v&#45;&gt;1</title>
<path fill="none" stroke="#000000" d="M388.96,-282.77C381.67,-268.05 370.73,-250.74 356,-240 325.61,-217.83 305.25,-239.94 274,-219 264.41,-212.57 256.11,-203.34 249.38,-194.07"/>
<polygon fill="#000000" stroke="#000000" points="252.17,-191.94 243.65,-185.63 246.37,-195.87 252.17,-191.94"/>
<text text-anchor="middle" x="315" y="-284.4" font-family="Times,serif" font-size="32.00">will_1</text>
<text text-anchor="middle" x="315" y="-249.4" font-family="Times,serif" font-size="32.00">=v 1</text>
</g>
<!-- 1&#45;&gt;t -->
<g id="edge4" class="edge">
<title>1&#45;&gt;t</title>
<path fill="none" stroke="#000000" d="M203.54,-170.6C172.7,-184.05 118.14,-208.13 72,-230 68.45,-231.68 64.77,-233.47 61.1,-235.27"/>
<polygon fill="#000000" stroke="#000000" points="59.53,-232.14 52.12,-239.71 62.63,-238.41 59.53,-232.14"/>
<text text-anchor="middle" x="128" y="-274.4" font-family="Times,serif" font-size="32.00">d</text>
<text text-anchor="middle" x="128" y="-239.4" font-family="Times,serif" font-size="32.00">=&gt;1 +k t</text>
</g>
<!-- 2 -->
<g id="node7" class="node">
<title>2</title>
<ellipse fill="none" stroke="black" cx="401" cy="-427" rx="27" ry="30.31"/>
<text text-anchor="middle" x="401" y="-418.9" font-family="Times,serif" font-size="32.00">2</text>
</g>
<!-- 2&#45;&gt;0 -->
<g id="edge6" class="edge">
<title>2&#45;&gt;0</title>
<path fill="none" stroke="#000000" d="M373.75,-425.06C347.79,-422.53 307.23,-416.93 274,-405 270,-403.56 265.94,-401.78 261.99,-399.82"/>
<polygon fill="#000000" stroke="#000000" points="263.5,-396.67 253.03,-395.05 260.21,-402.84 263.5,-396.67"/>
<text text-anchor="middle" x="315" y="-466.4" font-family="Times,serif" font-size="32.00">e</text>
<text text-anchor="middle" x="315" y="-431.4" font-family="Times,serif" font-size="32.00">=&gt;2 0</text>
</g>
<!-- perf -->
<g id="node8" class="node">
<title>perf</title>
<ellipse fill="none" stroke="black" cx="608" cy="-330" rx="48.17" ry="30.31"/>
<text text-anchor="middle" x="608" y="-321.9" font-family="Times,serif" font-size="32.00">perf</text>
</g>
<!-- perf&#45;&gt;v -->
<g id="edge10" class="edge">
<title>perf&#45;&gt;v</title>
<path fill="none" stroke="#000000" d="M564.84,-316.19C556.68,-314.05 548.14,-312.16 540,-311 505.72,-306.11 466.16,-306.42 438.21,-307.62"/>
<polygon fill="#000000" stroke="#000000" points="437.91,-304.13 428.1,-308.12 438.26,-311.12 437.91,-304.13"/>
<text text-anchor="middle" x="493" y="-355.4" font-family="Times,serif" font-size="32.00">have</text>
<text text-anchor="middle" x="493" y="-320.4" font-family="Times,serif" font-size="32.00">=perf v</text>
</g>
<!-- perf&#45;&gt;2 -->
<g id="edge7" class="edge">
<title>perf&#45;&gt;2</title>
<path fill="none" stroke="#000000" d="M579.68,-354.87C568.14,-364.25 554.12,-374.26 540,-381 501.18,-399.53 486.24,-388.82 446,-404 442.21,-405.43 438.32,-407.11 434.51,-408.9"/>
<polygon fill="#000000" stroke="#000000" points="432.66,-405.92 425.26,-413.51 435.78,-412.18 432.66,-405.92"/>
<text text-anchor="middle" x="493" y="-448.4" font-family="Times,serif" font-size="32.00">hav</text>
<text text-anchor="middle" x="493" y="-413.4" font-family="Times,serif" font-size="32.00">=perf 2</text>
</g>
<!-- 3 -->
<g id="node9" class="node">
<title>3</title>
<ellipse fill="none" stroke="black" cx="401" cy="-148" rx="27" ry="30.31"/>
<text text-anchor="middle" x="401" y="-139.9" font-family="Times,serif" font-size="32.00">3</text>
</g>
<!-- perf&#45;&gt;3 -->
<g id="edge9" class="edge">
<title>perf&#45;&gt;3</title>
<path fill="none" stroke="#000000" d="M576.22,-306.82C569.52,-300.63 562.95,-293.55 558,-286 544.13,-264.84 555.77,-251.78 540,-232 512.79,-197.86 467.65,-174.18 436.45,-160.86"/>
<polygon fill="#000000" stroke="#000000" points="437.42,-157.48 426.84,-156.9 434.75,-163.95 437.42,-157.48"/>
<text text-anchor="middle" x="493" y="-276.4" font-family="Times,serif" font-size="32.00">hav_1</text>
<text text-anchor="middle" x="493" y="-241.4" font-family="Times,serif" font-size="32.00">=perf 3</text>
</g>
<!-- 3&#45;&gt;1 -->
<g id="edge8" class="edge">
<title>3&#45;&gt;1</title>
<path fill="none" stroke="#000000" d="M373.82,-146.41C348.25,-145.28 308.29,-144.64 274,-149 271.14,-149.36 268.21,-149.85 265.27,-150.41"/>
<polygon fill="#000000" stroke="#000000" points="264.42,-147.01 255.4,-152.56 265.91,-153.85 264.42,-147.01"/>
<text text-anchor="middle" x="315" y="-193.4" font-family="Times,serif" font-size="32.00">e_1</text>
<text text-anchor="middle" x="315" y="-158.4" font-family="Times,serif" font-size="32.00">=&gt;3 1</text>
</g>
<!-- prog -->
<g id="node10" class="node">
<title>prog</title>
<ellipse fill="none" stroke="black" cx="886" cy="-275" rx="52.15" ry="30.31"/>
<text text-anchor="middle" x="886" y="-266.9" font-family="Times,serif" font-size="32.00">prog</text>
</g>
<!-- prog&#45;&gt;v -->
<g id="edge13" class="edge">
<title>prog&#45;&gt;v</title>
<path fill="none" stroke="#000000" d="M840.72,-259.43C742.5,-226.11 510.02,-154.37 446,-198 422.56,-213.98 411.61,-244.52 406.49,-269.67"/>
<polygon fill="#000000" stroke="#000000" points="403.01,-269.25 404.69,-279.71 409.9,-270.49 403.01,-269.25"/>
<text text-anchor="middle" x="608" y="-250.4" font-family="Times,serif" font-size="32.00">be</text>
<text text-anchor="middle" x="608" y="-215.4" font-family="Times,serif" font-size="32.00">=prog v</text>
</g>
<!-- prog&#45;&gt;2 -->
<g id="edge11" class="edge">
<title>prog&#45;&gt;2</title>
<path fill="none" stroke="#000000" d="M862.76,-302.46C849.27,-317.86 831.02,-336.61 812,-350 703.36,-426.47 669.83,-445.8 540,-474 499.17,-482.87 484.33,-490.62 446,-474 438.04,-470.55 430.86,-464.87 424.72,-458.63"/>
<polygon fill="#000000" stroke="#000000" points="427.29,-456.25 418.01,-451.15 422.08,-460.93 427.29,-456.25"/>
<text text-anchor="middle" x="608" y="-513.4" font-family="Times,serif" font-size="32.00">b</text>
<text text-anchor="middle" x="608" y="-478.4" font-family="Times,serif" font-size="32.00">=prog 2</text>
</g>
<!-- prog&#45;&gt;perf -->
<g id="edge14" class="edge">
<title>prog&#45;&gt;perf</title>
<path fill="none" stroke="#000000" d="M835.7,-266.27C792.32,-260.66 728.14,-257.46 676,-276 668.67,-278.61 656.21,-288.03 644.01,-298.3"/>
<polygon fill="#000000" stroke="#000000" points="641.39,-295.93 636.08,-305.1 645.95,-301.24 641.39,-295.93"/>
<text text-anchor="middle" x="744" y="-320.4" font-family="Times,serif" font-size="32.00">ben</text>
<text text-anchor="middle" x="744" y="-285.4" font-family="Times,serif" font-size="32.00">=prog perf</text>
</g>
<!-- prog&#45;&gt;3 -->
<g id="edge12" class="edge">
<title>prog&#45;&gt;3</title>
<path fill="none" stroke="#000000" d="M860.3,-248.33C821.71,-209.01 742.71,-137.59 658,-114 580.62,-92.45 486.17,-117.71 436.43,-134.82"/>
<polygon fill="#000000" stroke="#000000" points="435.07,-131.59 426.81,-138.23 437.41,-138.19 435.07,-131.59"/>
<text text-anchor="middle" x="608" y="-158.4" font-family="Times,serif" font-size="32.00">b_1</text>
<text text-anchor="middle" x="608" y="-123.4" font-family="Times,serif" font-size="32.00">=prog 3</text>
</g>
<!-- 4 -->
<g id="node11" class="node">
<title>4</title>
<ellipse fill="none" stroke="black" cx="1123" cy="-360" rx="27" ry="30.31"/>
<text text-anchor="middle" x="1123" y="-351.9" font-family="Times,serif" font-size="32.00">4</text>
</g>
<!-- 4&#45;&gt;0 -->
<g id="edge15" class="edge">
<title>4&#45;&gt;0</title>
<path fill="none" stroke="#000000" d="M1110.7,-387.3C1082.8,-449.82 1004.3,-598 887,-598 887,-598 887,-598 400,-598 310.21,-598 260.86,-481.57 240.81,-418.89"/>
<polygon fill="#000000" stroke="#000000" points="244.03,-417.46 237.73,-408.95 237.34,-419.54 244.03,-417.46"/>
<text text-anchor="middle" x="608" y="-642.4" font-family="Times,serif" font-size="32.00">ε_0</text>
<text text-anchor="middle" x="608" y="-607.4" font-family="Times,serif" font-size="32.00">=&gt;4 0</text>
</g>
<!-- 4&#45;&gt;v -->
<g id="edge19" class="edge">
<title>4&#45;&gt;v</title>
<path fill="none" stroke="#000000" d="M1097.98,-372C1020.88,-409.19 772.13,-518.9 558,-499 507.57,-494.31 482.03,-513.6 446,-478 416.98,-449.33 438.47,-427.43 428,-388 424.47,-374.72 419.92,-360.4 415.62,-347.69"/>
<polygon fill="#000000" stroke="#000000" points="418.81,-346.22 412.24,-337.91 412.19,-348.5 418.81,-346.22"/>
<text text-anchor="middle" x="744" y="-542.4" font-family="Times,serif" font-size="32.00">ε_3</text>
<text text-anchor="middle" x="744" y="-507.4" font-family="Times,serif" font-size="32.00">=&gt;4 v</text>
</g>
<!-- 4&#45;&gt;1 -->
<g id="edge18" class="edge">
<title>4&#45;&gt;1</title>
<path fill="none" stroke="#000000" d="M1117.31,-330.23C1101.87,-243.98 1044.3,0 887,0 887,0 887,0 400,0 327.81,0 273.77,-77.46 247.58,-124.59"/>
<polygon fill="#000000" stroke="#000000" points="244.4,-123.12 242.72,-133.58 250.55,-126.45 244.4,-123.12"/>
<text text-anchor="middle" x="608" y="-44.4" font-family="Times,serif" font-size="32.00">ε_2</text>
<text text-anchor="middle" x="608" y="-9.4" font-family="Times,serif" font-size="32.00">=&gt;4 1</text>
</g>
<!-- 4&#45;&gt;perf -->
<g id="edge21" class="edge">
<title>4&#45;&gt;perf</title>
<path fill="none" stroke="#000000" d="M1095.71,-361.03C1026.58,-363.33 834.18,-367.15 676,-346 671.61,-345.41 667.1,-344.66 662.58,-343.81"/>
<polygon fill="#000000" stroke="#000000" points="663.23,-340.37 652.73,-341.79 661.82,-347.23 663.23,-340.37"/>
<text text-anchor="middle" x="886" y="-406.4" font-family="Times,serif" font-size="32.00">n</text>
<text text-anchor="middle" x="886" y="-371.4" font-family="Times,serif" font-size="32.00">=&gt;4 perf</text>
</g>
<!-- 4&#45;&gt;prog -->
<g id="edge20" class="edge">
<title>4&#45;&gt;prog</title>
<path fill="none" stroke="#000000" d="M1115.08,-330.86C1108.84,-311.64 1097.55,-287.9 1078,-276 1038.05,-251.68 984.14,-253.86 943.78,-260.71"/>
<polygon fill="#000000" stroke="#000000" points="943.03,-257.29 933.83,-262.54 944.3,-264.18 943.03,-257.29"/>
<text text-anchor="middle" x="1019" y="-320.4" font-family="Times,serif" font-size="32.00">ing</text>
<text text-anchor="middle" x="1019" y="-285.4" font-family="Times,serif" font-size="32.00">=&gt;4 prog</text>
</g>
<!-- 5&#45;&gt;4 -->
<g id="edge16" class="edge">
<title>5&#45;&gt;4</title>
<path fill="none" stroke="#000000" d="M1303.91,-360C1267.56,-360 1201.51,-360 1160.35,-360"/>
<polygon fill="#000000" stroke="#000000" points="1160.2,-356.5 1150.2,-360 1160.2,-363.5 1160.2,-356.5"/>
<text text-anchor="middle" x="1227" y="-404.4" font-family="Times,serif" font-size="32.00">ε_1</text>
<text text-anchor="middle" x="1227" y="-369.4" font-family="Times,serif" font-size="32.00">=&gt;5 =d 4</text>
</g>
<!-- z1 -->
<g id="node13" class="node">
<title>z1</title>
<ellipse fill="none" stroke="black" stroke-dasharray="5,2" cx="1529" cy="-360" rx="27" ry="18"/>
</g>
<!-- z1&#45;&gt;5 -->
<g id="edge17" class="edge">
<title>z1&#45;&gt;5</title>
<path fill="none" stroke="#000000" d="M1501.97,-360C1467.71,-360 1407.28,-360 1368.47,-360"/>
<polygon fill="#000000" stroke="#000000" points="1368.13,-356.5 1358.13,-360 1368.13,-363.5 1368.13,-356.5"/>
<text text-anchor="middle" x="1419" y="-439.4" font-family="Times,serif" font-size="32.00">laugh |</text>
<text text-anchor="middle" x="1419" y="-404.4" font-family="Times,serif" font-size="32.00"> dance</text>
<text text-anchor="middle" x="1419" y="-369.4" font-family="Times,serif" font-size="32.00">5</text>
</g>
<!-- 6&#45;&gt;5 -->
<g id="edge22" class="edge">
<title>6&#45;&gt;5</title>
<path fill="none" stroke="#000000" d="M1502.55,-274.85C1470.6,-268.62 1415.21,-262.83 1376,-286 1362.3,-294.09 1352.39,-308.25 1345.48,-322.03"/>
<polygon fill="#000000" stroke="#000000" points="1342.16,-320.88 1341.17,-331.42 1348.52,-323.79 1342.16,-320.88"/>
<text text-anchor="middle" x="1419" y="-330.4" font-family="Times,serif" font-size="32.00">ε_4</text>
<text text-anchor="middle" x="1419" y="-295.4" font-family="Times,serif" font-size="32.00">=&gt;6 5</text>
</g>
</g>
</svg>
