<?xml version="1.0" encoding="UTF-8" standalone="no"?>
<!DOCTYPE svg PUBLIC "-//W3C//DTD SVG 1.1//EN"
 "http://www.w3.org/Graphics/SVG/1.1/DTD/svg11.dtd">
<!-- Generated by graphviz version 2.47.1 (20210417.1919)
 -->
<!-- Title: G Pages: 1 -->
<svg width="1829pt" height="1259pt"
 viewBox="0.00 0.00 1829.44 1259.15" xmlns="http://www.w3.org/2000/svg" xmlns:xlink="http://www.w3.org/1999/xlink">
<g id="graph0" class="graph" transform="scale(1 1) rotate(0) translate(4 1255.15)">
<title>G</title>
<polygon fill="white" stroke="transparent" points="-4,4 -4,-1255.15 1825.44,-1255.15 1825.44,4 -4,4"/>
<!-- t -->
<g id="node1" class="node">
<title>t</title>
<ellipse fill="lightgray" stroke="black" cx="1794.44" cy="-736.15" rx="27" ry="30.31"/>
<text text-anchor="middle" x="1794.44" y="-728.05" font-family="Times,serif" font-size="32.00">t</text>
</g>
<!-- c2 -->
<g id="node17" class="node">
<title>c2</title>
<ellipse fill="none" stroke="black" cx="1606.21" cy="-602.15" rx="33.47" ry="30.31"/>
<text text-anchor="middle" x="1606.21" y="-594.05" font-family="Times,serif" font-size="32.00">c2</text>
</g>
<!-- t&#45;&gt;c2 -->
<g id="edge27" class="edge">
<title>t&#45;&gt;c2</title>
<path fill="none" stroke="#000000" d="M1771.35,-720.25C1739.1,-697.05 1678.87,-653.72 1641.03,-626.49"/>
<polygon fill="#000000" stroke="#000000" points="1643.01,-623.6 1632.85,-620.6 1638.92,-629.28 1643.01,-623.6"/>
<text text-anchor="middle" x="1703.44" y="-748.55" font-family="Times,serif" font-size="32.00">that</text>
<text text-anchor="middle" x="1703.44" y="-713.55" font-family="Times,serif" font-size="32.00">=t c2</text>
</g>
<!-- 0 -->
<g id="node2" class="node">
<title>0</title>
<ellipse fill="none" stroke="black" cx="1328.06" cy="-972.15" rx="27" ry="30.31"/>
<text text-anchor="middle" x="1328.06" y="-964.05" font-family="Times,serif" font-size="32.00">0</text>
</g>
<!-- d -->
<g id="node3" class="node">
<title>d</title>
<ellipse fill="none" stroke="black" cx="1081.15" cy="-972.15" rx="27" ry="30.31"/>
<text text-anchor="middle" x="1081.15" y="-964.05" font-family="Times,serif" font-size="32.00">d</text>
</g>
<!-- 0&#45;&gt;d -->
<g id="edge1" class="edge">
<title>0&#45;&gt;d</title>
<path fill="none" stroke="#000000" d="M1300.85,-972.15C1256.84,-972.15 1168.03,-972.15 1118.19,-972.15"/>
<polygon fill="#000000" stroke="#000000" points="1118.17,-968.65 1108.17,-972.15 1118.17,-975.65 1118.17,-968.65"/>
<text text-anchor="middle" x="1192.65" y="-1016.55" font-family="Times,serif" font-size="32.00">ε_0</text>
<text text-anchor="middle" x="1192.65" y="-981.55" font-family="Times,serif" font-size="32.00">=&gt;0 d &#45;k</text>
</g>
<!-- z0 -->
<g id="node4" class="node">
<title>z0</title>
<ellipse fill="none" stroke="black" stroke-dasharray="5,2" cx="1606.21" cy="-1071.15" rx="27" ry="18"/>
</g>
<!-- z0&#45;&gt;0 -->
<g id="edge2" class="edge">
<title>z0&#45;&gt;0</title>
<path fill="none" stroke="#000000" d="M1579.5,-1074.16C1538.42,-1077.77 1456.57,-1079.92 1396.97,-1049.15 1377.86,-1039.29 1361.68,-1021.61 1349.91,-1005.69"/>
<polygon fill="#000000" stroke="#000000" points="1352.46,-1003.23 1343.84,-997.08 1346.74,-1007.27 1352.46,-1003.23"/>
<text text-anchor="middle" x="1475.97" y="-1225.55" font-family="Times,serif" font-size="32.00">Mary |</text>
<text text-anchor="middle" x="1475.97" y="-1190.55" font-family="Times,serif" font-size="32.00"> John |</text>
<text text-anchor="middle" x="1475.97" y="-1155.55" font-family="Times,serif" font-size="32.00"> Alice |</text>
<text text-anchor="middle" x="1475.97" y="-1120.55" font-family="Times,serif" font-size="32.00"> Bob</text>
<text text-anchor="middle" x="1475.97" y="-1085.55" font-family="Times,serif" font-size="32.00">0</text>
</g>
<!-- n -->
<g id="node5" class="node">
<title>n</title>
<ellipse fill="none" stroke="black" cx="1606.21" cy="-873.15" rx="27" ry="30.31"/>
<text text-anchor="middle" x="1606.21" y="-865.05" font-family="Times,serif" font-size="32.00">n</text>
</g>
<!-- n&#45;&gt;0 -->
<g id="edge3" class="edge">
<title>n&#45;&gt;0</title>
<path fill="none" stroke="#000000" d="M1579.98,-865.39C1538.87,-854.29 1456.1,-838.49 1396.97,-870.15 1371.59,-883.75 1354.06,-911.48 1343.18,-934.6"/>
<polygon fill="#000000" stroke="#000000" points="1339.93,-933.29 1339.06,-943.84 1346.33,-936.14 1339.93,-933.29"/>
<text text-anchor="middle" x="1475.97" y="-1019.55" font-family="Times,serif" font-size="32.00">this |</text>
<text text-anchor="middle" x="1475.97" y="-984.55" font-family="Times,serif" font-size="32.00"> a |</text>
<text text-anchor="middle" x="1475.97" y="-949.55" font-family="Times,serif" font-size="32.00"> the |</text>
<text text-anchor="middle" x="1475.97" y="-914.55" font-family="Times,serif" font-size="32.00"> some</text>
<text text-anchor="middle" x="1475.97" y="-879.55" font-family="Times,serif" font-size="32.00">=n 0</text>
</g>
<!-- z1 -->
<g id="node6" class="node">
<title>z1</title>
<ellipse fill="none" stroke="black" stroke-dasharray="5,2" cx="1794.44" cy="-873.15" rx="27" ry="18"/>
</g>
<!-- z1&#45;&gt;n -->
<g id="edge4" class="edge">
<title>z1&#45;&gt;n</title>
<path fill="none" stroke="#000000" d="M1767.15,-873.15C1734.85,-873.15 1679.86,-873.15 1643.53,-873.15"/>
<polygon fill="#000000" stroke="#000000" points="1643.36,-869.65 1633.36,-873.15 1643.36,-876.65 1643.36,-869.65"/>
<text text-anchor="middle" x="1703.44" y="-952.55" font-family="Times,serif" font-size="32.00">boy |</text>
<text text-anchor="middle" x="1703.44" y="-917.55" font-family="Times,serif" font-size="32.00"> girl</text>
<text text-anchor="middle" x="1703.44" y="-882.55" font-family="Times,serif" font-size="32.00">n</text>
</g>
<!-- 1 -->
<g id="node7" class="node">
<title>1</title>
<ellipse fill="none" stroke="black" cx="28.99" cy="-730.15" rx="27" ry="30.31"/>
<text text-anchor="middle" x="28.99" y="-722.05" font-family="Times,serif" font-size="32.00">1</text>
</g>
<!-- 1&#45;&gt;t -->
<g id="edge5" class="edge">
<title>1&#45;&gt;t</title>
<path fill="none" stroke="#000000" d="M40.84,-757.85C48.34,-773.2 59.89,-791.15 75.98,-801.15 121.59,-829.5 142.29,-815.15 195.98,-815.15 1607.21,-815.15 1607.21,-815.15 1607.21,-815.15 1672.53,-815.15 1692.38,-809.94 1749.44,-778.15 1755.91,-774.55 1762.14,-769.77 1767.77,-764.72"/>
<polygon fill="#000000" stroke="#000000" points="1770.23,-767.21 1775.05,-757.77 1765.4,-762.15 1770.23,-767.21"/>
<text text-anchor="middle" x="844.15" y="-894.55" font-family="Times,serif" font-size="32.00">s |</text>
<text text-anchor="middle" x="844.15" y="-859.55" font-family="Times,serif" font-size="32.00"> d</text>
<text text-anchor="middle" x="844.15" y="-824.55" font-family="Times,serif" font-size="32.00">=&gt;1 +k t</text>
</g>
<!-- 2 -->
<g id="node8" class="node">
<title>2</title>
<ellipse fill="none" stroke="black" cx="1328.06" cy="-225.15" rx="27" ry="30.31"/>
<text text-anchor="middle" x="1328.06" y="-217.05" font-family="Times,serif" font-size="32.00">2</text>
</g>
<!-- 3 -->
<g id="node9" class="node">
<title>3</title>
<ellipse fill="none" stroke="black" cx="1081.15" cy="-565.15" rx="27" ry="30.31"/>
<text text-anchor="middle" x="1081.15" y="-557.05" font-family="Times,serif" font-size="32.00">3</text>
</g>
<!-- 2&#45;&gt;3 -->
<g id="edge6" class="edge">
<title>2&#45;&gt;3</title>
<path fill="none" stroke="#000000" d="M1301.39,-230.05C1257.91,-239.77 1170.2,-265.81 1126.15,-324.15 1102.76,-355.13 1090.35,-464.46 1085.16,-524.66"/>
<polygon fill="#000000" stroke="#000000" points="1081.65,-524.69 1084.3,-534.94 1088.62,-525.27 1081.65,-524.69"/>
<text text-anchor="middle" x="1192.65" y="-368.55" font-family="Times,serif" font-size="32.00">ε_1</text>
<text text-anchor="middle" x="1192.65" y="-333.55" font-family="Times,serif" font-size="32.00">=&gt;2 =d 3</text>
</g>
<!-- prog -->
<g id="node11" class="node">
<title>prog</title>
<ellipse fill="none" stroke="black" cx="844.15" cy="-545.15" rx="52.15" ry="30.31"/>
<text text-anchor="middle" x="844.15" y="-537.05" font-family="Times,serif" font-size="32.00">prog</text>
</g>
<!-- 3&#45;&gt;prog -->
<g id="edge8" class="edge">
<title>3&#45;&gt;prog</title>
<path fill="none" stroke="#000000" d="M1056.06,-552.69C1049.74,-550 1042.83,-547.55 1036.15,-546.15 993.43,-537.21 944.15,-537.19 906.34,-539.3"/>
<polygon fill="#000000" stroke="#000000" points="905.76,-535.83 896,-539.94 906.2,-542.81 905.76,-535.83"/>
<text text-anchor="middle" x="977.15" y="-590.55" font-family="Times,serif" font-size="32.00">ing</text>
<text text-anchor="middle" x="977.15" y="-555.55" font-family="Times,serif" font-size="32.00">=&gt;3 prog</text>
</g>
<!-- 4 -->
<g id="node12" class="node">
<title>4</title>
<ellipse fill="none" stroke="black" cx="625.15" cy="-626.15" rx="27" ry="30.31"/>
<text text-anchor="middle" x="625.15" y="-618.05" font-family="Times,serif" font-size="32.00">4</text>
</g>
<!-- 3&#45;&gt;4 -->
<g id="edge10" class="edge">
<title>3&#45;&gt;4</title>
<path fill="none" stroke="#000000" d="M1065.28,-590.09C1057.89,-600.09 1047.99,-610.55 1036.15,-616.15 909.76,-675.91 736.07,-649.89 661.98,-634.51"/>
<polygon fill="#000000" stroke="#000000" points="662.3,-631 651.79,-632.33 660.83,-637.85 662.3,-631"/>
<text text-anchor="middle" x="844.15" y="-698.55" font-family="Times,serif" font-size="32.00">ε_2</text>
<text text-anchor="middle" x="844.15" y="-663.55" font-family="Times,serif" font-size="32.00">=&gt;3 4</text>
</g>
<!-- z2 -->
<g id="node10" class="node">
<title>z2</title>
<ellipse fill="none" stroke="black" stroke-dasharray="5,2" cx="1606.21" cy="-20.15" rx="27" ry="18"/>
</g>
<!-- z2&#45;&gt;2 -->
<g id="edge7" class="edge">
<title>z2&#45;&gt;2</title>
<path fill="none" stroke="#000000" d="M1581.19,-12.83C1539.27,-1.65 1451.99,14.41 1396.97,-26.15 1347.26,-62.81 1333.59,-137.94 1330.04,-184.68"/>
<polygon fill="#000000" stroke="#000000" points="1326.54,-184.56 1329.4,-194.77 1333.53,-185.01 1326.54,-184.56"/>
<text text-anchor="middle" x="1475.97" y="-175.55" font-family="Times,serif" font-size="32.00">dance |</text>
<text text-anchor="middle" x="1475.97" y="-140.55" font-family="Times,serif" font-size="32.00"> laugh |</text>
<text text-anchor="middle" x="1475.97" y="-105.55" font-family="Times,serif" font-size="32.00"> smile |</text>
<text text-anchor="middle" x="1475.97" y="-70.55" font-family="Times,serif" font-size="32.00"> jump</text>
<text text-anchor="middle" x="1475.97" y="-35.55" font-family="Times,serif" font-size="32.00">2</text>
</g>
<!-- prog&#45;&gt;4 -->
<g id="edge16" class="edge">
<title>prog&#45;&gt;4</title>
<path fill="none" stroke="#000000" d="M796.03,-533.19C759.15,-526.57 707.96,-523.65 670.15,-546.15 654.81,-555.28 644.45,-571.86 637.66,-587.57"/>
<polygon fill="#000000" stroke="#000000" points="634.29,-586.58 633.88,-597.17 640.8,-589.14 634.29,-586.58"/>
<text text-anchor="middle" x="720.15" y="-590.55" font-family="Times,serif" font-size="32.00">be</text>
<text text-anchor="middle" x="720.15" y="-555.55" font-family="Times,serif" font-size="32.00">=prog 4</text>
</g>
<!-- perf -->
<g id="node13" class="node">
<title>perf</title>
<ellipse fill="none" stroke="black" cx="402.07" cy="-600.15" rx="48.17" ry="30.31"/>
<text text-anchor="middle" x="402.07" y="-592.05" font-family="Times,serif" font-size="32.00">perf</text>
</g>
<!-- 4&#45;&gt;perf -->
<g id="edge9" class="edge">
<title>4&#45;&gt;perf</title>
<path fill="none" stroke="#000000" d="M601.82,-610.56C595.15,-606.73 587.62,-603.15 580.15,-601.15 540.82,-590.64 494.79,-590.74 459.52,-593.28"/>
<polygon fill="#000000" stroke="#000000" points="459.09,-589.8 449.41,-594.09 459.66,-596.78 459.09,-589.8"/>
<text text-anchor="middle" x="524.15" y="-645.55" font-family="Times,serif" font-size="32.00">n</text>
<text text-anchor="middle" x="524.15" y="-610.55" font-family="Times,serif" font-size="32.00">=&gt;4 perf</text>
</g>
<!-- v -->
<g id="node18" class="node">
<title>v</title>
<ellipse fill="none" stroke="black" cx="196.98" cy="-637.15" rx="27" ry="30.31"/>
<text text-anchor="middle" x="196.98" y="-629.05" font-family="Times,serif" font-size="32.00">v</text>
</g>
<!-- 4&#45;&gt;v -->
<g id="edge17" class="edge">
<title>4&#45;&gt;v</title>
<path fill="none" stroke="#000000" d="M607.53,-649.77C600.2,-658.17 590.82,-666.66 580.15,-671.15 441.62,-729.45 384.22,-719.7 241.98,-671.15 236.36,-669.23 230.91,-666.28 225.85,-662.89"/>
<polygon fill="#000000" stroke="#000000" points="227.9,-660.04 217.78,-656.89 223.72,-665.66 227.9,-660.04"/>
<text text-anchor="middle" x="402.07" y="-756.55" font-family="Times,serif" font-size="32.00">ε_4</text>
<text text-anchor="middle" x="402.07" y="-721.55" font-family="Times,serif" font-size="32.00">=&gt;4 v</text>
</g>
<!-- perf&#45;&gt;v -->
<g id="edge23" class="edge">
<title>perf&#45;&gt;v</title>
<path fill="none" stroke="#000000" d="M355.43,-592.54C322.84,-588.98 278.49,-587.99 241.98,-601.15 236.01,-603.31 230.26,-606.65 225,-610.45"/>
<polygon fill="#000000" stroke="#000000" points="222.81,-607.72 217.18,-616.69 227.18,-613.19 222.81,-607.72"/>
<text text-anchor="middle" x="288.98" y="-645.55" font-family="Times,serif" font-size="32.00">have</text>
<text text-anchor="middle" x="288.98" y="-610.55" font-family="Times,serif" font-size="32.00">=perf v</text>
</g>
<!-- 5 -->
<g id="node14" class="node">
<title>5</title>
<ellipse fill="none" stroke="black" cx="1606.21" cy="-265.15" rx="27" ry="30.31"/>
<text text-anchor="middle" x="1606.21" y="-257.05" font-family="Times,serif" font-size="32.00">5</text>
</g>
<!-- 5&#45;&gt;2 -->
<g id="edge11" class="edge">
<title>5&#45;&gt;2</title>
<path fill="none" stroke="#000000" d="M1587.58,-242.9C1578.87,-233.69 1567.54,-224.04 1554.97,-219.15 1491.53,-194.49 1410.32,-206.01 1364.57,-216"/>
<polygon fill="#000000" stroke="#000000" points="1363.52,-212.65 1354.55,-218.29 1365.07,-219.47 1363.52,-212.65"/>
<text text-anchor="middle" x="1475.97" y="-263.55" font-family="Times,serif" font-size="32.00">ε_3</text>
<text text-anchor="middle" x="1475.97" y="-228.55" font-family="Times,serif" font-size="32.00">=&gt;5 =d *k 2</text>
</g>
<!-- pass -->
<g id="node16" class="node">
<title>pass</title>
<ellipse fill="none" stroke="black" cx="1328.06" cy="-375.15" rx="50.82" ry="30.31"/>
<text text-anchor="middle" x="1328.06" y="-367.05" font-family="Times,serif" font-size="32.00">pass</text>
</g>
<!-- 5&#45;&gt;pass -->
<g id="edge13" class="edge">
<title>5&#45;&gt;pass</title>
<path fill="none" stroke="#000000" d="M1581.78,-278.15C1573.52,-282.23 1564.04,-286.4 1554.97,-289.15 1487.08,-309.79 1460.99,-281.53 1396.97,-312.15 1382.83,-318.92 1369.61,-329.67 1358.66,-340.39"/>
<polygon fill="#000000" stroke="#000000" points="1355.94,-338.16 1351.46,-347.75 1360.95,-343.05 1355.94,-338.16"/>
<text text-anchor="middle" x="1475.97" y="-356.55" font-family="Times,serif" font-size="32.00">n_1</text>
<text text-anchor="middle" x="1475.97" y="-321.55" font-family="Times,serif" font-size="32.00">=&gt;5 =d pass</text>
</g>
<!-- z3 -->
<g id="node15" class="node">
<title>z3</title>
<ellipse fill="none" stroke="black" stroke-dasharray="5,2" cx="1794.44" cy="-265.15" rx="27" ry="18"/>
</g>
<!-- z3&#45;&gt;5 -->
<g id="edge12" class="edge">
<title>z3&#45;&gt;5</title>
<path fill="none" stroke="#000000" d="M1767.15,-265.15C1734.85,-265.15 1679.86,-265.15 1643.53,-265.15"/>
<polygon fill="#000000" stroke="#000000" points="1643.36,-261.65 1633.36,-265.15 1643.36,-268.65 1643.36,-261.65"/>
<text text-anchor="middle" x="1703.44" y="-414.55" font-family="Times,serif" font-size="32.00">praise |</text>
<text text-anchor="middle" x="1703.44" y="-379.55" font-family="Times,serif" font-size="32.00"> like |</text>
<text text-anchor="middle" x="1703.44" y="-344.55" font-family="Times,serif" font-size="32.00"> kiss |</text>
<text text-anchor="middle" x="1703.44" y="-309.55" font-family="Times,serif" font-size="32.00"> hug</text>
<text text-anchor="middle" x="1703.44" y="-274.55" font-family="Times,serif" font-size="32.00">5</text>
</g>
<!-- pass&#45;&gt;3 -->
<g id="edge18" class="edge">
<title>pass&#45;&gt;3</title>
<path fill="none" stroke="#000000" d="M1282.56,-388.84C1238.22,-404.39 1170.51,-433.55 1126.15,-478.15 1112.48,-491.9 1102.24,-510.75 1095.09,-527.4"/>
<polygon fill="#000000" stroke="#000000" points="1091.75,-526.31 1091.23,-536.89 1098.24,-528.94 1091.75,-526.31"/>
<text text-anchor="middle" x="1192.65" y="-522.55" font-family="Times,serif" font-size="32.00">be_1</text>
<text text-anchor="middle" x="1192.65" y="-487.55" font-family="Times,serif" font-size="32.00">=pass 3</text>
</g>
<!-- c2&#45;&gt;2 -->
<g id="edge14" class="edge">
<title>c2&#45;&gt;2</title>
<path fill="none" stroke="#000000" d="M1605.42,-571.61C1603.97,-531.82 1595.3,-462.7 1554.97,-423.15 1503.17,-372.36 1451.23,-430.31 1396.97,-382.15 1380.55,-367.58 1387.48,-356.39 1378.97,-336.15 1368.35,-310.87 1355.67,-282.69 1345.75,-261.05"/>
<polygon fill="#000000" stroke="#000000" points="1348.9,-259.53 1341.54,-251.9 1342.54,-262.45 1348.9,-259.53"/>
<text text-anchor="middle" x="1475.97" y="-572.55" font-family="Times,serif" font-size="32.00">declare |</text>
<text text-anchor="middle" x="1475.97" y="-537.55" font-family="Times,serif" font-size="32.00"> think |</text>
<text text-anchor="middle" x="1475.97" y="-502.55" font-family="Times,serif" font-size="32.00"> explain |</text>
<text text-anchor="middle" x="1475.97" y="-467.55" font-family="Times,serif" font-size="32.00"> say</text>
<text text-anchor="middle" x="1475.97" y="-432.55" font-family="Times,serif" font-size="32.00">=c2 2</text>
</g>
<!-- c1 -->
<g id="node24" class="node">
<title>c1</title>
<ellipse fill="none" stroke="black" cx="1328.06" cy="-602.15" rx="33.47" ry="30.31"/>
<text text-anchor="middle" x="1328.06" y="-594.05" font-family="Times,serif" font-size="32.00">c1</text>
</g>
<!-- c2&#45;&gt;c1 -->
<g id="edge26" class="edge">
<title>c2&#45;&gt;c1</title>
<path fill="none" stroke="#000000" d="M1572.72,-602.15C1522.76,-602.15 1427.05,-602.15 1371.62,-602.15"/>
<polygon fill="#000000" stroke="#000000" points="1371.43,-598.65 1361.43,-602.15 1371.43,-605.65 1371.43,-598.65"/>
<text text-anchor="middle" x="1475.97" y="-646.55" font-family="Times,serif" font-size="32.00">ε_8</text>
<text text-anchor="middle" x="1475.97" y="-611.55" font-family="Times,serif" font-size="32.00">=&gt;c2 =e c1</text>
</g>
<!-- v&#45;&gt;1 -->
<g id="edge15" class="edge">
<title>v&#45;&gt;1</title>
<path fill="none" stroke="#000000" d="M185.49,-664.82C178.33,-679.96 167.33,-697.71 151.98,-708.15 126.8,-725.28 92.19,-730.19 66.26,-731.16"/>
<polygon fill="#000000" stroke="#000000" points="66.01,-727.67 56.08,-731.36 66.15,-734.67 66.01,-727.67"/>
<text text-anchor="middle" x="113.98" y="-775.55" font-family="Times,serif" font-size="32.00">will</text>
<text text-anchor="middle" x="113.98" y="-740.55" font-family="Times,serif" font-size="32.00">=v 1</text>
</g>
<!-- v&#45;&gt;1 -->
<g id="edge22" class="edge">
<title>v&#45;&gt;1</title>
<path fill="none" stroke="#000000" d="M170.88,-628.96C145.02,-622.14 104.55,-616.16 75.98,-634.15 56.36,-646.51 44.93,-669.81 38.37,-690.37"/>
<polygon fill="#000000" stroke="#000000" points="34.95,-689.6 35.52,-700.17 41.67,-691.54 34.95,-689.6"/>
<text text-anchor="middle" x="113.98" y="-678.55" font-family="Times,serif" font-size="32.00">ε_7</text>
<text text-anchor="middle" x="113.98" y="-643.55" font-family="Times,serif" font-size="32.00">=&gt;v 1</text>
</g>
<!-- to -->
<g id="node23" class="node">
<title>to</title>
<ellipse fill="none" stroke="black" cx="28.99" cy="-544.15" rx="28.98" ry="30.31"/>
<text text-anchor="middle" x="28.99" y="-536.05" font-family="Times,serif" font-size="32.00">to</text>
</g>
<!-- v&#45;&gt;to -->
<g id="edge25" class="edge">
<title>v&#45;&gt;to</title>
<path fill="none" stroke="#000000" d="M189.57,-607.75C183.5,-587.6 172.21,-562.23 151.98,-549.15 127.27,-533.17 93.47,-533.05 67.71,-536.3"/>
<polygon fill="#000000" stroke="#000000" points="66.95,-532.87 57.57,-537.79 67.98,-539.79 66.95,-532.87"/>
<text text-anchor="middle" x="113.98" y="-593.55" font-family="Times,serif" font-size="32.00">to</text>
<text text-anchor="middle" x="113.98" y="-558.55" font-family="Times,serif" font-size="32.00">=v to</text>
</g>
<!-- 6 -->
<g id="node19" class="node">
<title>6</title>
<ellipse fill="none" stroke="black" cx="1328.06" cy="-681.15" rx="27" ry="30.31"/>
<text text-anchor="middle" x="1328.06" y="-673.05" font-family="Times,serif" font-size="32.00">6</text>
</g>
<!-- 6&#45;&gt;3 -->
<g id="edge19" class="edge">
<title>6&#45;&gt;3</title>
<path fill="none" stroke="#000000" d="M1301.16,-684.51C1260,-688.41 1178.96,-690.09 1126.15,-652.15 1110.03,-640.57 1099.44,-621.34 1092.7,-603.9"/>
<polygon fill="#000000" stroke="#000000" points="1095.99,-602.71 1089.35,-594.46 1089.4,-605.05 1095.99,-602.71"/>
<text text-anchor="middle" x="1192.65" y="-731.55" font-family="Times,serif" font-size="32.00">ε_5</text>
<text text-anchor="middle" x="1192.65" y="-696.55" font-family="Times,serif" font-size="32.00">=&gt;6 =to 3</text>
</g>
<!-- 6&#45;&gt;3 -->
<g id="edge21" class="edge">
<title>6&#45;&gt;3</title>
<path fill="none" stroke="#000000" d="M1303.99,-667.25C1294.45,-660.46 1284.04,-651.51 1277.15,-641.15 1261.03,-616.9 1281.74,-596.53 1259.15,-578.15 1219.44,-545.85 1156.71,-550 1117.58,-556.89"/>
<polygon fill="#000000" stroke="#000000" points="1116.85,-553.47 1107.68,-558.78 1118.16,-560.35 1116.85,-553.47"/>
<text text-anchor="middle" x="1192.65" y="-622.55" font-family="Times,serif" font-size="32.00">ε_6</text>
<text text-anchor="middle" x="1192.65" y="-587.55" font-family="Times,serif" font-size="32.00">=&gt;6 =c1 3</text>
</g>
<!-- z4 -->
<g id="node20" class="node">
<title>z4</title>
<ellipse fill="none" stroke="black" stroke-dasharray="5,2" cx="1606.21" cy="-695.15" rx="27" ry="18"/>
</g>
<!-- z4&#45;&gt;6 -->
<g id="edge20" class="edge">
<title>z4&#45;&gt;6</title>
<path fill="none" stroke="#000000" d="M1579.23,-693.84C1529.78,-691.33 1422.04,-685.87 1365.45,-683"/>
<polygon fill="#000000" stroke="#000000" points="1365.34,-679.49 1355.17,-682.48 1364.98,-686.48 1365.34,-679.49"/>
<text text-anchor="middle" x="1475.97" y="-772.55" font-family="Times,serif" font-size="32.00">seem |</text>
<text text-anchor="middle" x="1475.97" y="-737.55" font-family="Times,serif" font-size="32.00"> appear</text>
<text text-anchor="middle" x="1475.97" y="-702.55" font-family="Times,serif" font-size="32.00">6</text>
</g>
<!-- z5 -->
<g id="node21" class="node">
<title>z5</title>
<ellipse fill="none" stroke="black" stroke-dasharray="5,2" cx="1794.44" cy="-1137.15" rx="27" ry="18"/>
</g>
<!-- e -->
<g id="node22" class="node">
<title>e</title>
<ellipse fill="none" stroke="black" cx="1606.21" cy="-1137.15" rx="27" ry="30.31"/>
<text text-anchor="middle" x="1606.21" y="-1129.05" font-family="Times,serif" font-size="32.00">e</text>
</g>
<!-- z5&#45;&gt;e -->
<g id="edge24" class="edge">
<title>z5&#45;&gt;e</title>
<path fill="none" stroke="#000000" d="M1767.15,-1137.15C1734.85,-1137.15 1679.86,-1137.15 1643.53,-1137.15"/>
<polygon fill="#000000" stroke="#000000" points="1643.36,-1133.65 1633.36,-1137.15 1643.36,-1140.65 1643.36,-1133.65"/>
<text text-anchor="middle" x="1703.44" y="-1181.55" font-family="Times,serif" font-size="32.00">it</text>
<text text-anchor="middle" x="1703.44" y="-1146.55" font-family="Times,serif" font-size="32.00">e &#45;k</text>
</g>
</g>
</svg>
