<?xml version="1.0" encoding="UTF-8" standalone="no"?>
<!DOCTYPE svg PUBLIC "-//W3C//DTD SVG 1.1//EN"
 "http://www.w3.org/Graphics/SVG/1.1/DTD/svg11.dtd">
<!-- Generated by graphviz version 2.47.1 (20210417.1919)
 -->
<!-- Title: G Pages: 1 -->
<svg width="934pt" height="508pt"
 viewBox="0.00 0.00 933.65 507.59" xmlns="http://www.w3.org/2000/svg" xmlns:xlink="http://www.w3.org/1999/xlink">
<g id="graph0" class="graph" transform="scale(1 1) rotate(0) translate(4 503.59)">
<title>G</title>
<polygon fill="white" stroke="transparent" points="-4,4 -4,-503.59 929.65,-503.59 929.65,4 -4,4"/>
<!-- t -->
<g id="node1" class="node">
<title>t</title>
<ellipse fill="lightgray" stroke="black" cx="52.33" cy="-389.59" rx="27" ry="30.31"/>
<text text-anchor="middle" x="52.33" y="-381.49" font-family="Times,serif" font-size="32.00">t</text>
</g>
<!-- z0 -->
<g id="node2" class="node">
<title>z0</title>
<ellipse fill="none" stroke="black" stroke-dasharray="5,2" cx="898.65" cy="-211.59" rx="27" ry="18"/>
</g>
<!-- d -->
<g id="node3" class="node">
<title>d</title>
<ellipse fill="none" stroke="black" cx="738.65" cy="-211.59" rx="27" ry="30.31"/>
<text text-anchor="middle" x="738.65" y="-203.49" font-family="Times,serif" font-size="32.00">d</text>
</g>
<!-- z0&#45;&gt;d -->
<g id="edge1" class="edge">
<title>z0&#45;&gt;d</title>
<path fill="none" stroke="#000000" d="M871.56,-211.59C845.49,-211.59 805.19,-211.59 775.99,-211.59"/>
<polygon fill="#000000" stroke="#000000" points="775.78,-208.09 765.78,-211.59 775.78,-215.09 775.78,-208.09"/>
<text text-anchor="middle" x="818.65" y="-255.99" font-family="Times,serif" font-size="32.00">Mary</text>
<text text-anchor="middle" x="818.65" y="-220.99" font-family="Times,serif" font-size="32.00">d &#45;k</text>
</g>
<!-- v -->
<g id="node4" class="node">
<title>v</title>
<ellipse fill="none" stroke="black" cx="293.65" cy="-203.59" rx="27" ry="30.31"/>
<text text-anchor="middle" x="293.65" y="-195.49" font-family="Times,serif" font-size="32.00">v</text>
</g>
<!-- d&#45;&gt;v -->
<g id="edge7" class="edge">
<title>d&#45;&gt;v</title>
<path fill="none" stroke="#000000" d="M719.09,-232.8C711.89,-239.5 703.11,-246.07 693.65,-249.59 549.11,-303.37 490.87,-304.22 346.65,-249.59 336.85,-245.87 327.7,-239.37 319.9,-232.4"/>
<polygon fill="#000000" stroke="#000000" points="322.2,-229.77 312.57,-225.37 317.36,-234.82 322.2,-229.77"/>
<text text-anchor="middle" x="492.65" y="-368.99" font-family="Times,serif" font-size="32.00">laugh |</text>
<text text-anchor="middle" x="492.65" y="-333.99" font-family="Times,serif" font-size="32.00"> dance</text>
<text text-anchor="middle" x="492.65" y="-298.99" font-family="Times,serif" font-size="32.00">=d v</text>
</g>
<!-- 0 -->
<g id="node7" class="node">
<title>0</title>
<ellipse fill="none" stroke="black" cx="492.65" cy="-160.59" rx="27" ry="30.31"/>
<text text-anchor="middle" x="492.65" y="-152.49" font-family="Times,serif" font-size="32.00">0</text>
</g>
<!-- d&#45;&gt;0 -->
<g id="edge10" class="edge">
<title>d&#45;&gt;0</title>
<path fill="none" stroke="#000000" d="M717.07,-193.14C710.09,-187.88 701.96,-182.73 693.65,-179.59 639.34,-159.03 571.07,-157.18 529.97,-158.4"/>
<polygon fill="#000000" stroke="#000000" points="529.75,-154.9 519.89,-158.77 530.01,-161.9 529.75,-154.9"/>
<text text-anchor="middle" x="623.65" y="-223.99" font-family="Times,serif" font-size="32.00">ε_0</text>
<text text-anchor="middle" x="623.65" y="-188.99" font-family="Times,serif" font-size="32.00">=d *k =d 0</text>
</g>
<!-- v&#45;&gt;t -->
<g id="edge2" class="edge">
<title>v&#45;&gt;t</title>
<path fill="none" stroke="#000000" d="M291.6,-234.16C288.62,-270.17 277.91,-329.06 240.65,-360.59 198.36,-396.38 130.68,-397.64 89.3,-394.3"/>
<polygon fill="#000000" stroke="#000000" points="89.4,-390.8 79.12,-393.35 88.75,-397.77 89.4,-390.8"/>
<text text-anchor="middle" x="181.65" y="-473.99" font-family="Times,serif" font-size="32.00">s |</text>
<text text-anchor="middle" x="181.65" y="-438.99" font-family="Times,serif" font-size="32.00"> d</text>
<text text-anchor="middle" x="181.65" y="-403.99" font-family="Times,serif" font-size="32.00">=&gt;v +k t</text>
</g>
<!-- v&#45;&gt;v -->
<g id="edge3" class="edge">
<title>v&#45;&gt;v</title>
<path fill="none" stroke="#000000" d="M310.55,-227.5C313.42,-240.32 307.79,-251.99 293.65,-251.99 283.38,-251.99 277.6,-245.83 276.31,-237.54"/>
<polygon fill="#000000" stroke="#000000" points="279.8,-237.64 276.75,-227.5 272.81,-237.33 279.8,-237.64"/>
<text text-anchor="middle" x="293.65" y="-296.39" font-family="Times,serif" font-size="32.00">will</text>
<text text-anchor="middle" x="293.65" y="-261.39" font-family="Times,serif" font-size="32.00">=v v</text>
</g>
<!-- perf -->
<g id="node5" class="node">
<title>perf</title>
<ellipse fill="none" stroke="black" cx="52.33" cy="-249.59" rx="48.17" ry="30.31"/>
<text text-anchor="middle" x="52.33" y="-241.49" font-family="Times,serif" font-size="32.00">perf</text>
</g>
<!-- v&#45;&gt;perf -->
<g id="edge6" class="edge">
<title>v&#45;&gt;perf</title>
<path fill="none" stroke="#000000" d="M280.73,-230.64C272.1,-246.59 258.78,-265.4 240.65,-274.59 197.08,-296.68 140.83,-284.62 101.39,-270.66"/>
<polygon fill="#000000" stroke="#000000" points="102.33,-267.28 91.74,-267.09 99.9,-273.84 102.33,-267.28"/>
<text text-anchor="middle" x="181.65" y="-330.99" font-family="Times,serif" font-size="32.00">n</text>
<text text-anchor="middle" x="181.65" y="-295.99" font-family="Times,serif" font-size="32.00">=&gt;v perf</text>
</g>
<!-- prog -->
<g id="node6" class="node">
<title>prog</title>
<ellipse fill="none" stroke="black" cx="52.33" cy="-64.59" rx="52.15" ry="30.31"/>
<text text-anchor="middle" x="52.33" y="-56.49" font-family="Times,serif" font-size="32.00">prog</text>
</g>
<!-- v&#45;&gt;prog -->
<g id="edge8" class="edge">
<title>v&#45;&gt;prog</title>
<path fill="none" stroke="#000000" d="M281.59,-176.23C272.97,-158.21 259.32,-135.47 240.65,-121.59 196.95,-89.1 174.63,-104.84 122.65,-88.59 117.49,-86.97 112.12,-85.23 106.77,-83.45"/>
<polygon fill="#000000" stroke="#000000" points="107.8,-80.1 97.2,-80.23 105.56,-86.74 107.8,-80.1"/>
<text text-anchor="middle" x="181.65" y="-165.99" font-family="Times,serif" font-size="32.00">ing</text>
<text text-anchor="middle" x="181.65" y="-130.99" font-family="Times,serif" font-size="32.00">=&gt;v prog</text>
</g>
<!-- perf&#45;&gt;v -->
<g id="edge4" class="edge">
<title>perf&#45;&gt;v</title>
<path fill="none" stroke="#000000" d="M82.17,-225.6C93.96,-217.26 108.22,-208.91 122.65,-204.59 167.24,-191.24 221.4,-193.96 256.42,-198.01"/>
<polygon fill="#000000" stroke="#000000" points="256.28,-201.52 266.64,-199.3 257.16,-194.58 256.28,-201.52"/>
<text text-anchor="middle" x="181.65" y="-248.99" font-family="Times,serif" font-size="32.00">have</text>
<text text-anchor="middle" x="181.65" y="-213.99" font-family="Times,serif" font-size="32.00">=perf v</text>
</g>
<!-- prog&#45;&gt;v -->
<g id="edge5" class="edge">
<title>prog&#45;&gt;v</title>
<path fill="none" stroke="#000000" d="M82.75,-39.54C94.4,-31.17 108.41,-22.88 122.65,-18.59 172.86,-3.45 198.85,13.08 240.65,-18.59 263.68,-36.03 279.35,-114.54 287.08,-163.51"/>
<polygon fill="#000000" stroke="#000000" points="283.63,-164.12 288.6,-173.48 290.55,-163.06 283.63,-164.12"/>
<text text-anchor="middle" x="181.65" y="-62.99" font-family="Times,serif" font-size="32.00">be</text>
<text text-anchor="middle" x="181.65" y="-27.99" font-family="Times,serif" font-size="32.00">=prog v</text>
</g>
<!-- 0&#45;&gt;v -->
<g id="edge9" class="edge">
<title>0&#45;&gt;v</title>
<path fill="none" stroke="#000000" d="M467.1,-150.48C437.26,-139.81 386.01,-126.82 346.65,-144.59 334.38,-150.13 323.84,-160.16 315.53,-170.4"/>
<polygon fill="#000000" stroke="#000000" points="312.59,-168.48 309.35,-178.57 318.17,-172.71 312.59,-168.48"/>
<text text-anchor="middle" x="389.15" y="-223.99" font-family="Times,serif" font-size="32.00">hug |</text>
<text text-anchor="middle" x="389.15" y="-188.99" font-family="Times,serif" font-size="32.00"> praise</text>
<text text-anchor="middle" x="389.15" y="-153.99" font-family="Times,serif" font-size="32.00">=&gt;0 v</text>
</g>
</g>
</svg>
