<?xml version="1.0" encoding="UTF-8" standalone="no"?>
<!DOCTYPE svg PUBLIC "-//W3C//DTD SVG 1.1//EN"
 "http://www.w3.org/Graphics/SVG/1.1/DTD/svg11.dtd">
<!-- Generated by graphviz version 2.47.1 (20210417.1919)
 -->
<!-- Title: G Pages: 1 -->
<svg width="1320pt" height="557pt"
 viewBox="0.00 0.00 1319.65 556.98" xmlns="http://www.w3.org/2000/svg" xmlns:xlink="http://www.w3.org/1999/xlink">
<g id="graph0" class="graph" transform="scale(1 1) rotate(0) translate(4 552.98)">
<title>G</title>
<polygon fill="white" stroke="transparent" points="-4,4 -4,-552.98 1315.65,-552.98 1315.65,4 -4,4"/>
<!-- t -->
<g id="node1" class="node">
<title>t</title>
<ellipse fill="lightgray" stroke="black" cx="27" cy="-435.98" rx="27" ry="30.31"/>
<text text-anchor="middle" x="27" y="-427.88" font-family="Times,serif" font-size="32.00">t</text>
</g>
<!-- z0 -->
<g id="node2" class="node">
<title>z0</title>
<ellipse fill="none" stroke="black" stroke-dasharray="5,2" cx="1284.65" cy="-362.98" rx="27" ry="18"/>
</g>
<!-- d -->
<g id="node3" class="node">
<title>d</title>
<ellipse fill="none" stroke="black" cx="1109.65" cy="-362.98" rx="27" ry="30.31"/>
<text text-anchor="middle" x="1109.65" y="-354.88" font-family="Times,serif" font-size="32.00">d</text>
</g>
<!-- z0&#45;&gt;d -->
<g id="edge1" class="edge">
<title>z0&#45;&gt;d</title>
<path fill="none" stroke="#000000" d="M1257.38,-362.98C1227.95,-362.98 1180.06,-362.98 1147.05,-362.98"/>
<polygon fill="#000000" stroke="#000000" points="1146.89,-359.48 1136.89,-362.98 1146.89,-366.48 1146.89,-359.48"/>
<text text-anchor="middle" x="1197.15" y="-407.38" font-family="Times,serif" font-size="32.00">Mary</text>
<text text-anchor="middle" x="1197.15" y="-372.38" font-family="Times,serif" font-size="32.00">d &#45;k</text>
</g>
<!-- 0 -->
<g id="node4" class="node">
<title>0</title>
<ellipse fill="none" stroke="black" cx="229" cy="-435.98" rx="27" ry="30.31"/>
<text text-anchor="middle" x="229" y="-427.88" font-family="Times,serif" font-size="32.00">0</text>
</g>
<!-- 0&#45;&gt;t -->
<g id="edge2" class="edge">
<title>0&#45;&gt;t</title>
<path fill="none" stroke="#000000" d="M201.85,-435.98C166.67,-435.98 103.92,-435.98 64.21,-435.98"/>
<polygon fill="#000000" stroke="#000000" points="64.15,-432.48 54.15,-435.98 64.15,-439.48 64.15,-432.48"/>
<text text-anchor="middle" x="128" y="-480.38" font-family="Times,serif" font-size="32.00">ε_0</text>
<text text-anchor="middle" x="128" y="-445.38" font-family="Times,serif" font-size="32.00">=&gt;0 +k t</text>
</g>
<!-- 1 -->
<g id="node5" class="node">
<title>1</title>
<ellipse fill="none" stroke="black" cx="420.33" cy="-435.98" rx="27" ry="30.31"/>
<text text-anchor="middle" x="420.33" y="-427.88" font-family="Times,serif" font-size="32.00">1</text>
</g>
<!-- 1&#45;&gt;0 -->
<g id="edge3" class="edge">
<title>1&#45;&gt;0</title>
<path fill="none" stroke="#000000" d="M393,-435.98C360.08,-435.98 303.55,-435.98 266.47,-435.98"/>
<polygon fill="#000000" stroke="#000000" points="266.1,-432.48 256.1,-435.98 266.1,-439.48 266.1,-432.48"/>
<text text-anchor="middle" x="312" y="-515.38" font-family="Times,serif" font-size="32.00">s |</text>
<text text-anchor="middle" x="312" y="-480.38" font-family="Times,serif" font-size="32.00"> d</text>
<text text-anchor="middle" x="312" y="-445.38" font-family="Times,serif" font-size="32.00">=&gt;1 0</text>
</g>
<!-- v -->
<g id="node6" class="node">
<title>v</title>
<ellipse fill="none" stroke="black" cx="653.65" cy="-249.98" rx="27" ry="30.31"/>
<text text-anchor="middle" x="653.65" y="-241.88" font-family="Times,serif" font-size="32.00">v</text>
</g>
<!-- v&#45;&gt;1 -->
<g id="edge4" class="edge">
<title>v&#45;&gt;1</title>
<path fill="none" stroke="#000000" d="M650.89,-280.35C647.11,-333.19 636.24,-438.56 608.65,-460.98 564.7,-496.72 494.82,-472.88 453.98,-453.57"/>
<polygon fill="#000000" stroke="#000000" points="455.27,-450.3 444.75,-449.04 452.19,-456.59 455.27,-450.3"/>
<text text-anchor="middle" x="549.65" y="-523.38" font-family="Times,serif" font-size="32.00">will</text>
<text text-anchor="middle" x="549.65" y="-488.38" font-family="Times,serif" font-size="32.00">=v 1</text>
</g>
<!-- v&#45;&gt;1 -->
<g id="edge5" class="edge">
<title>v&#45;&gt;1</title>
<path fill="none" stroke="#000000" d="M648.09,-279.98C642.79,-304.46 631.63,-338.13 608.65,-357.98 567.78,-393.28 539.78,-364.56 490.65,-386.98 476.52,-393.43 462.27,-402.88 450.4,-411.76"/>
<polygon fill="#000000" stroke="#000000" points="447.99,-409.2 442.21,-418.08 452.26,-414.74 447.99,-409.2"/>
<text text-anchor="middle" x="549.65" y="-431.38" font-family="Times,serif" font-size="32.00">ε_1</text>
<text text-anchor="middle" x="549.65" y="-396.38" font-family="Times,serif" font-size="32.00">=&gt;v 1</text>
</g>
<!-- perf -->
<g id="node7" class="node">
<title>perf</title>
<ellipse fill="none" stroke="black" cx="420.33" cy="-249.98" rx="48.17" ry="30.31"/>
<text text-anchor="middle" x="420.33" y="-241.88" font-family="Times,serif" font-size="32.00">perf</text>
</g>
<!-- v&#45;&gt;perf -->
<g id="edge8" class="edge">
<title>v&#45;&gt;perf</title>
<path fill="none" stroke="#000000" d="M630.33,-265.6C623.66,-269.43 616.13,-273.01 608.65,-274.98 557.95,-288.38 542.31,-284.01 490.65,-274.98 483.96,-273.81 477.07,-272.05 470.34,-270"/>
<polygon fill="#000000" stroke="#000000" points="471.23,-266.61 460.64,-266.81 469.05,-273.26 471.23,-266.61"/>
<text text-anchor="middle" x="549.65" y="-328.38" font-family="Times,serif" font-size="32.00">n</text>
<text text-anchor="middle" x="549.65" y="-293.38" font-family="Times,serif" font-size="32.00">=&gt;v perf</text>
</g>
<!-- prog -->
<g id="node8" class="node">
<title>prog</title>
<ellipse fill="none" stroke="black" cx="420.33" cy="-64.98" rx="52.15" ry="30.31"/>
<text text-anchor="middle" x="420.33" y="-56.88" font-family="Times,serif" font-size="32.00">prog</text>
</g>
<!-- v&#45;&gt;prog -->
<g id="edge11" class="edge">
<title>v&#45;&gt;prog</title>
<path fill="none" stroke="#000000" d="M650.75,-219.55C647.21,-189.48 637.15,-144.27 608.65,-117.98 568.95,-81.37 542.45,-104.27 490.65,-88.98 485.46,-87.45 480.08,-85.76 474.72,-84.02"/>
<polygon fill="#000000" stroke="#000000" points="475.73,-80.66 465.14,-80.83 473.52,-87.31 475.73,-80.66"/>
<text text-anchor="middle" x="549.65" y="-162.38" font-family="Times,serif" font-size="32.00">ing</text>
<text text-anchor="middle" x="549.65" y="-127.38" font-family="Times,serif" font-size="32.00">=&gt;v prog</text>
</g>
<!-- perf&#45;&gt;v -->
<g id="edge6" class="edge">
<title>perf&#45;&gt;v</title>
<path fill="none" stroke="#000000" d="M450.15,-225.95C461.95,-217.6 476.21,-209.26 490.65,-204.98 540.94,-190.09 560.31,-184.64 608.65,-204.98 616.16,-208.14 623.02,-213.27 628.98,-218.96"/>
<polygon fill="#000000" stroke="#000000" points="626.6,-221.54 636.03,-226.36 631.67,-216.71 626.6,-221.54"/>
<text text-anchor="middle" x="549.65" y="-249.38" font-family="Times,serif" font-size="32.00">have</text>
<text text-anchor="middle" x="549.65" y="-214.38" font-family="Times,serif" font-size="32.00">=perf v</text>
</g>
<!-- prog&#45;&gt;v -->
<g id="edge7" class="edge">
<title>prog&#45;&gt;v</title>
<path fill="none" stroke="#000000" d="M450.75,-39.93C462.4,-31.56 476.41,-23.28 490.65,-18.98 540.86,-3.84 568.25,14.45 608.65,-18.98 637.28,-42.67 647.45,-149.51 650.93,-209.24"/>
<polygon fill="#000000" stroke="#000000" points="647.44,-209.67 651.48,-219.46 654.43,-209.28 647.44,-209.67"/>
<text text-anchor="middle" x="549.65" y="-63.38" font-family="Times,serif" font-size="32.00">be</text>
<text text-anchor="middle" x="549.65" y="-28.38" font-family="Times,serif" font-size="32.00">=prog v</text>
</g>
<!-- 2 -->
<g id="node9" class="node">
<title>2</title>
<ellipse fill="none" stroke="black" cx="861.65" cy="-249.98" rx="27" ry="30.31"/>
<text text-anchor="middle" x="861.65" y="-241.88" font-family="Times,serif" font-size="32.00">2</text>
</g>
<!-- 2&#45;&gt;v -->
<g id="edge9" class="edge">
<title>2&#45;&gt;v</title>
<path fill="none" stroke="#000000" d="M834.56,-249.98C798.21,-249.98 732.16,-249.98 691,-249.98"/>
<polygon fill="#000000" stroke="#000000" points="690.85,-246.48 680.85,-249.98 690.85,-253.48 690.85,-246.48"/>
<text text-anchor="middle" x="757.65" y="-294.38" font-family="Times,serif" font-size="32.00">ε_2</text>
<text text-anchor="middle" x="757.65" y="-259.38" font-family="Times,serif" font-size="32.00">=&gt;2 =d v</text>
</g>
<!-- z1 -->
<g id="node10" class="node">
<title>z1</title>
<ellipse fill="none" stroke="black" stroke-dasharray="5,2" cx="1109.65" cy="-296.98" rx="27" ry="18"/>
</g>
<!-- z1&#45;&gt;2 -->
<g id="edge10" class="edge">
<title>z1&#45;&gt;2</title>
<path fill="none" stroke="#000000" d="M1082.44,-297.48C1043.23,-297.48 967.41,-294.62 906.65,-274.98 902.51,-273.64 898.33,-271.89 894.27,-269.93"/>
<polygon fill="#000000" stroke="#000000" points="895.6,-266.67 885.12,-265.08 892.32,-272.85 895.6,-266.67"/>
<text text-anchor="middle" x="985.65" y="-376.38" font-family="Times,serif" font-size="32.00">laugh |</text>
<text text-anchor="middle" x="985.65" y="-341.38" font-family="Times,serif" font-size="32.00"> dance</text>
<text text-anchor="middle" x="985.65" y="-306.38" font-family="Times,serif" font-size="32.00">2</text>
</g>
<!-- 3 -->
<g id="node11" class="node">
<title>3</title>
<ellipse fill="none" stroke="black" cx="1109.65" cy="-203.98" rx="27" ry="30.31"/>
<text text-anchor="middle" x="1109.65" y="-195.88" font-family="Times,serif" font-size="32.00">3</text>
</g>
<!-- 3&#45;&gt;2 -->
<g id="edge12" class="edge">
<title>3&#45;&gt;2</title>
<path fill="none" stroke="#000000" d="M1083.16,-198.07C1043.57,-190.19 965.74,-179.94 906.65,-204.98 899.15,-208.16 892.29,-213.3 886.33,-218.99"/>
<polygon fill="#000000" stroke="#000000" points="883.65,-216.74 879.28,-226.39 888.72,-221.56 883.65,-216.74"/>
<text text-anchor="middle" x="985.65" y="-249.38" font-family="Times,serif" font-size="32.00">ε_3</text>
<text text-anchor="middle" x="985.65" y="-214.38" font-family="Times,serif" font-size="32.00">=&gt;3 =d *k 2</text>
</g>
<!-- z2 -->
<g id="node12" class="node">
<title>z2</title>
<ellipse fill="none" stroke="black" stroke-dasharray="5,2" cx="1284.65" cy="-203.98" rx="27" ry="18"/>
</g>
<!-- z2&#45;&gt;3 -->
<g id="edge13" class="edge">
<title>z2&#45;&gt;3</title>
<path fill="none" stroke="#000000" d="M1257.38,-203.98C1227.95,-203.98 1180.06,-203.98 1147.05,-203.98"/>
<polygon fill="#000000" stroke="#000000" points="1146.89,-200.48 1136.89,-203.98 1146.89,-207.48 1146.89,-200.48"/>
<text text-anchor="middle" x="1197.15" y="-283.38" font-family="Times,serif" font-size="32.00">hug |</text>
<text text-anchor="middle" x="1197.15" y="-248.38" font-family="Times,serif" font-size="32.00"> praise</text>
<text text-anchor="middle" x="1197.15" y="-213.38" font-family="Times,serif" font-size="32.00">3</text>
</g>
</g>
</svg>
