<?xml version="1.0" encoding="UTF-8" standalone="no"?>
<!DOCTYPE svg PUBLIC "-//W3C//DTD SVG 1.1//EN"
 "http://www.w3.org/Graphics/SVG/1.1/DTD/svg11.dtd">
<!-- Generated by graphviz version 2.47.1 (20210417.1919)
 -->
<!-- Title: G Pages: 1 -->
<svg width="1959pt" height="419pt"
 viewBox="0.00 0.00 1958.82 419.00" xmlns="http://www.w3.org/2000/svg" xmlns:xlink="http://www.w3.org/1999/xlink">
<g id="graph0" class="graph" transform="scale(1 1) rotate(0) translate(4 415)">
<title>G</title>
<polygon fill="white" stroke="transparent" points="-4,4 -4,-415 1954.82,-415 1954.82,4 -4,4"/>
<!-- t -->
<g id="node1" class="node">
<title>t</title>
<ellipse fill="lightgray" stroke="black" cx="27" cy="-242" rx="27" ry="30.31"/>
<text text-anchor="middle" x="27" y="-233.9" font-family="Times,serif" font-size="32.00">t</text>
</g>
<!-- z0 -->
<g id="node2" class="node">
<title>z0</title>
<ellipse fill="none" stroke="black" stroke-dasharray="5,2" cx="1923.82" cy="-188" rx="27" ry="18"/>
</g>
<!-- d -->
<g id="node3" class="node">
<title>d</title>
<ellipse fill="none" stroke="black" cx="1763.82" cy="-188" rx="27" ry="30.31"/>
<text text-anchor="middle" x="1763.82" y="-179.9" font-family="Times,serif" font-size="32.00">d</text>
</g>
<!-- z0&#45;&gt;d -->
<g id="edge1" class="edge">
<title>z0&#45;&gt;d</title>
<path fill="none" stroke="#000000" d="M1896.73,-188C1870.65,-188 1830.35,-188 1801.15,-188"/>
<polygon fill="#000000" stroke="#000000" points="1800.95,-184.5 1790.95,-188 1800.95,-191.5 1800.95,-184.5"/>
<text text-anchor="middle" x="1843.82" y="-232.4" font-family="Times,serif" font-size="32.00">Mary</text>
<text text-anchor="middle" x="1843.82" y="-197.4" font-family="Times,serif" font-size="32.00">d &#45;k</text>
</g>
<!-- 2 -->
<g id="node10" class="node">
<title>2</title>
<ellipse fill="none" stroke="black" cx="1355.82" cy="-146" rx="27" ry="30.31"/>
<text text-anchor="middle" x="1355.82" y="-137.9" font-family="Times,serif" font-size="32.00">2</text>
</g>
<!-- d&#45;&gt;2 -->
<g id="edge15" class="edge">
<title>d&#45;&gt;2</title>
<path fill="none" stroke="#000000" d="M1741.71,-205.48C1734.83,-210.16 1726.88,-214.58 1718.82,-217 1583.44,-257.6 1524.3,-285.75 1400.82,-217 1387.67,-209.68 1377.95,-196.62 1371.04,-183.68"/>
<polygon fill="#000000" stroke="#000000" points="1374.02,-181.82 1366.49,-174.37 1367.73,-184.89 1374.02,-181.82"/>
<text text-anchor="middle" x="1553.82" y="-302.4" font-family="Times,serif" font-size="32.00">praise</text>
<text text-anchor="middle" x="1553.82" y="-267.4" font-family="Times,serif" font-size="32.00">=d *k 2</text>
</g>
<!-- 4 -->
<g id="node13" class="node">
<title>4</title>
<ellipse fill="none" stroke="black" cx="1553.82" cy="-146" rx="27" ry="30.31"/>
<text text-anchor="middle" x="1553.82" y="-137.9" font-family="Times,serif" font-size="32.00">4</text>
</g>
<!-- d&#45;&gt;4 -->
<g id="edge13" class="edge">
<title>d&#45;&gt;4</title>
<path fill="none" stroke="#000000" d="M1744.95,-165.61C1737.71,-158.24 1728.72,-150.93 1718.82,-147 1677.21,-130.47 1624.85,-133.87 1590.64,-138.95"/>
<polygon fill="#000000" stroke="#000000" points="1589.95,-135.52 1580.63,-140.56 1591.06,-142.43 1589.95,-135.52"/>
<text text-anchor="middle" x="1669.82" y="-191.4" font-family="Times,serif" font-size="32.00">hug</text>
<text text-anchor="middle" x="1669.82" y="-156.4" font-family="Times,serif" font-size="32.00">=d *k 4</text>
</g>
<!-- 0 -->
<g id="node4" class="node">
<title>0</title>
<ellipse fill="none" stroke="black" cx="271" cy="-306" rx="27" ry="30.31"/>
<text text-anchor="middle" x="271" y="-297.9" font-family="Times,serif" font-size="32.00">0</text>
</g>
<!-- 0&#45;&gt;t -->
<g id="edge2" class="edge">
<title>0&#45;&gt;t</title>
<path fill="none" stroke="#000000" d="M243.91,-308.24C204.64,-310.5 128.89,-310.53 72,-284 65.29,-280.87 58.95,-276.3 53.29,-271.32"/>
<polygon fill="#000000" stroke="#000000" points="55.66,-268.75 46.01,-264.37 50.82,-273.81 55.66,-268.75"/>
<text text-anchor="middle" x="149" y="-353.4" font-family="Times,serif" font-size="32.00">ε_0</text>
<text text-anchor="middle" x="149" y="-318.4" font-family="Times,serif" font-size="32.00">=&gt;0 =v +k t</text>
</g>
<!-- z1 -->
<g id="node5" class="node">
<title>z1</title>
<ellipse fill="none" stroke="black" stroke-dasharray="5,2" cx="476.08" cy="-306" rx="27" ry="18"/>
</g>
<!-- z1&#45;&gt;0 -->
<g id="edge3" class="edge">
<title>z1&#45;&gt;0</title>
<path fill="none" stroke="#000000" d="M448.95,-306C413.15,-306 348.72,-306 308.27,-306"/>
<polygon fill="#000000" stroke="#000000" points="308.03,-302.5 298.03,-306 308.03,-309.5 308.03,-302.5"/>
<text text-anchor="middle" x="363" y="-385.4" font-family="Times,serif" font-size="32.00">wills |</text>
<text text-anchor="middle" x="363" y="-350.4" font-family="Times,serif" font-size="32.00"> willd</text>
<text text-anchor="middle" x="363" y="-315.4" font-family="Times,serif" font-size="32.00">0</text>
</g>
<!-- v -->
<g id="node6" class="node">
<title>v</title>
<ellipse fill="none" stroke="black" cx="271" cy="-178" rx="27" ry="30.31"/>
<text text-anchor="middle" x="271" y="-169.9" font-family="Times,serif" font-size="32.00">v</text>
</g>
<!-- v&#45;&gt;t -->
<g id="edge4" class="edge">
<title>v&#45;&gt;t</title>
<path fill="none" stroke="#000000" d="M244.71,-170.21C205.18,-159.57 127.52,-145.04 72,-175 59.7,-181.64 50.28,-193.37 43.38,-205.19"/>
<polygon fill="#000000" stroke="#000000" points="40.21,-203.69 38.58,-214.16 46.38,-206.99 40.21,-203.69"/>
<text text-anchor="middle" x="149" y="-254.4" font-family="Times,serif" font-size="32.00">s |</text>
<text text-anchor="middle" x="149" y="-219.4" font-family="Times,serif" font-size="32.00"> d</text>
<text text-anchor="middle" x="149" y="-184.4" font-family="Times,serif" font-size="32.00">=&gt;v +k t</text>
</g>
<!-- perf -->
<g id="node7" class="node">
<title>perf</title>
<ellipse fill="none" stroke="black" cx="476.08" cy="-104" rx="48.17" ry="30.31"/>
<text text-anchor="middle" x="476.08" y="-95.9" font-family="Times,serif" font-size="32.00">perf</text>
</g>
<!-- perf&#45;&gt;v -->
<g id="edge5" class="edge">
<title>perf&#45;&gt;v</title>
<path fill="none" stroke="#000000" d="M430.93,-93.23C397.22,-87.5 350.81,-85.19 316,-105 302.31,-112.79 292.4,-126.72 285.49,-140.34"/>
<polygon fill="#000000" stroke="#000000" points="282.21,-139.1 281.18,-149.64 288.56,-142.04 282.21,-139.1"/>
<text text-anchor="middle" x="363" y="-149.4" font-family="Times,serif" font-size="32.00">have</text>
<text text-anchor="middle" x="363" y="-114.4" font-family="Times,serif" font-size="32.00">=perf v</text>
</g>
<!-- 1 -->
<g id="node8" class="node">
<title>1</title>
<ellipse fill="none" stroke="black" cx="699.17" cy="-146" rx="27" ry="30.31"/>
<text text-anchor="middle" x="699.17" y="-137.9" font-family="Times,serif" font-size="32.00">1</text>
</g>
<!-- 1&#45;&gt;v -->
<g id="edge6" class="edge">
<title>1&#45;&gt;v</title>
<path fill="none" stroke="#000000" d="M677.04,-163.44C670.17,-168.12 662.22,-172.55 654.17,-175 531.6,-212.28 376.51,-195.03 307.69,-184.3"/>
<polygon fill="#000000" stroke="#000000" points="308.22,-180.84 297.79,-182.71 307.11,-187.75 308.22,-180.84"/>
<text text-anchor="middle" x="476.08" y="-241.4" font-family="Times,serif" font-size="32.00">ε_1</text>
<text text-anchor="middle" x="476.08" y="-206.4" font-family="Times,serif" font-size="32.00">=&gt;1 v</text>
</g>
<!-- 1&#45;&gt;perf -->
<g id="edge8" class="edge">
<title>1&#45;&gt;perf</title>
<path fill="none" stroke="#000000" d="M680.3,-123.61C673.06,-116.24 664.07,-108.93 654.17,-105 615.68,-89.72 568.66,-90.24 532.75,-94.17"/>
<polygon fill="#000000" stroke="#000000" points="531.97,-90.74 522.46,-95.42 532.81,-97.69 531.97,-90.74"/>
<text text-anchor="middle" x="598.17" y="-149.4" font-family="Times,serif" font-size="32.00">n</text>
<text text-anchor="middle" x="598.17" y="-114.4" font-family="Times,serif" font-size="32.00">=&gt;1 perf</text>
</g>
<!-- prog -->
<g id="node9" class="node">
<title>prog</title>
<ellipse fill="none" stroke="black" cx="914.49" cy="-104" rx="52.15" ry="30.31"/>
<text text-anchor="middle" x="914.49" y="-95.9" font-family="Times,serif" font-size="32.00">prog</text>
</g>
<!-- prog&#45;&gt;1 -->
<g id="edge7" class="edge">
<title>prog&#45;&gt;1</title>
<path fill="none" stroke="#000000" d="M864.26,-95.07C829.47,-90.94 782.42,-89.81 744.17,-105 737.52,-107.64 731.27,-111.81 725.7,-116.49"/>
<polygon fill="#000000" stroke="#000000" points="722.98,-114.24 718.03,-123.61 727.74,-119.37 722.98,-114.24"/>
<text text-anchor="middle" x="794.17" y="-149.4" font-family="Times,serif" font-size="32.00">be</text>
<text text-anchor="middle" x="794.17" y="-114.4" font-family="Times,serif" font-size="32.00">=prog 1</text>
</g>
<!-- 3 -->
<g id="node11" class="node">
<title>3</title>
<ellipse fill="none" stroke="black" cx="1147.82" cy="-146" rx="27" ry="30.31"/>
<text text-anchor="middle" x="1147.82" y="-137.9" font-family="Times,serif" font-size="32.00">3</text>
</g>
<!-- 2&#45;&gt;3 -->
<g id="edge9" class="edge">
<title>2&#45;&gt;3</title>
<path fill="none" stroke="#000000" d="M1328.73,-146C1292.38,-146 1226.33,-146 1185.17,-146"/>
<polygon fill="#000000" stroke="#000000" points="1185.02,-142.5 1175.02,-146 1185.02,-149.5 1185.02,-142.5"/>
<text text-anchor="middle" x="1251.82" y="-190.4" font-family="Times,serif" font-size="32.00">ε_2</text>
<text text-anchor="middle" x="1251.82" y="-155.4" font-family="Times,serif" font-size="32.00">=&gt;2 =d 3</text>
</g>
<!-- 3&#45;&gt;1 -->
<g id="edge12" class="edge">
<title>3&#45;&gt;1</title>
<path fill="none" stroke="#000000" d="M1125.71,-163.48C1118.83,-168.16 1110.88,-172.58 1102.82,-175 950.14,-220.79 896.85,-220.79 744.17,-175 739.38,-173.56 734.63,-171.42 730.13,-168.94"/>
<polygon fill="#000000" stroke="#000000" points="731.63,-165.75 721.28,-163.48 727.95,-171.71 731.63,-165.75"/>
<text text-anchor="middle" x="914.49" y="-253.4" font-family="Times,serif" font-size="32.00">ε_3</text>
<text text-anchor="middle" x="914.49" y="-218.4" font-family="Times,serif" font-size="32.00">=&gt;3 1</text>
</g>
<!-- 3&#45;&gt;prog -->
<g id="edge11" class="edge">
<title>3&#45;&gt;prog</title>
<path fill="none" stroke="#000000" d="M1128.95,-123.6C1121.71,-116.23 1112.72,-108.93 1102.82,-105 1062.34,-88.94 1012.95,-89.41 975.05,-93.51"/>
<polygon fill="#000000" stroke="#000000" points="974.2,-90.08 964.68,-94.75 975.03,-97.03 974.2,-90.08"/>
<text text-anchor="middle" x="1043.82" y="-149.4" font-family="Times,serif" font-size="32.00">ing</text>
<text text-anchor="middle" x="1043.82" y="-114.4" font-family="Times,serif" font-size="32.00">=&gt;3 prog</text>
</g>
<!-- z2 -->
<g id="node12" class="node">
<title>z2</title>
<ellipse fill="none" stroke="black" stroke-dasharray="5,2" cx="1553.82" cy="-18" rx="27" ry="18"/>
</g>
<!-- z2&#45;&gt;2 -->
<g id="edge10" class="edge">
<title>z2&#45;&gt;2</title>
<path fill="none" stroke="#000000" d="M1527.31,-13.91C1494.53,-10.15 1437.49,-8.78 1400.82,-37 1379.31,-53.55 1368.27,-82.32 1362.63,-106.15"/>
<polygon fill="#000000" stroke="#000000" points="1359.19,-105.5 1360.53,-116.01 1366.04,-106.96 1359.19,-105.5"/>
<text text-anchor="middle" x="1443.82" y="-116.4" font-family="Times,serif" font-size="32.00">laugh |</text>
<text text-anchor="middle" x="1443.82" y="-81.4" font-family="Times,serif" font-size="32.00"> dance</text>
<text text-anchor="middle" x="1443.82" y="-46.4" font-family="Times,serif" font-size="32.00">2</text>
</g>
<!-- 4&#45;&gt;2 -->
<g id="edge14" class="edge">
<title>4&#45;&gt;2</title>
<path fill="none" stroke="#000000" d="M1526.79,-146C1492.52,-146 1432.09,-146 1393.29,-146"/>
<polygon fill="#000000" stroke="#000000" points="1392.95,-142.5 1382.95,-146 1392.95,-149.5 1392.95,-142.5"/>
<text text-anchor="middle" x="1443.82" y="-190.4" font-family="Times,serif" font-size="32.00">ε_4</text>
<text text-anchor="middle" x="1443.82" y="-155.4" font-family="Times,serif" font-size="32.00">=&gt;4 2</text>
</g>
</g>
</svg>
