<?xml version="1.0" encoding="UTF-8" standalone="no"?>
<!DOCTYPE svg PUBLIC "-//W3C//DTD SVG 1.1//EN"
 "http://www.w3.org/Graphics/SVG/1.1/DTD/svg11.dtd">
<!-- Generated by graphviz version 2.47.1 (20210417.1919)
 -->
<!-- Title: G Pages: 1 -->
<svg width="2462pt" height="1990pt"
 viewBox="0.00 0.00 2461.69 1990.32" xmlns="http://www.w3.org/2000/svg" xmlns:xlink="http://www.w3.org/1999/xlink">
<g id="graph0" class="graph" transform="scale(1 1) rotate(0) translate(4 1986.32)">
<title>G</title>
<polygon fill="white" stroke="transparent" points="-4,4 -4,-1986.32 2457.69,-1986.32 2457.69,4 -4,4"/>
<!-- t -->
<g id="node1" class="node">
<title>t</title>
<ellipse fill="lightgray" stroke="black" cx="27" cy="-933.32" rx="27" ry="30.31"/>
<text text-anchor="middle" x="27" y="-925.22" font-family="Times,serif" font-size="32.00">t</text>
</g>
<!-- z0 -->
<g id="node2" class="node">
<title>z0</title>
<ellipse fill="none" stroke="black" stroke-dasharray="5,2" cx="2426.69" cy="-786.32" rx="27" ry="18"/>
</g>
<!-- da -->
<g id="node3" class="node">
<title>da</title>
<ellipse fill="none" stroke="black" cx="2190.36" cy="-786.32" rx="33.47" ry="30.31"/>
<text text-anchor="middle" x="2190.36" y="-778.22" font-family="Times,serif" font-size="32.00">da</text>
</g>
<!-- z0&#45;&gt;da -->
<g id="edge1" class="edge">
<title>z0&#45;&gt;da</title>
<path fill="none" stroke="#000000" d="M2399.26,-786.32C2359.01,-786.32 2281.93,-786.32 2233.78,-786.32"/>
<polygon fill="#000000" stroke="#000000" points="2233.67,-782.82 2223.67,-786.32 2233.67,-789.82 2233.67,-782.82"/>
<text text-anchor="middle" x="2321.19" y="-865.72" font-family="Times,serif" font-size="32.00">Mary |</text>
<text text-anchor="middle" x="2321.19" y="-830.72" font-family="Times,serif" font-size="32.00"> John</text>
<text text-anchor="middle" x="2321.19" y="-795.72" font-family="Times,serif" font-size="32.00">da &#45;k</text>
</g>
<!-- z1 -->
<g id="node4" class="node">
<title>z1</title>
<ellipse fill="none" stroke="black" stroke-dasharray="5,2" cx="2426.69" cy="-914.32" rx="27" ry="18"/>
</g>
<!-- poss -->
<g id="node5" class="node">
<title>poss</title>
<ellipse fill="none" stroke="black" cx="2190.36" cy="-914.32" rx="52.15" ry="30.31"/>
<text text-anchor="middle" x="2190.36" y="-906.22" font-family="Times,serif" font-size="32.00">poss</text>
</g>
<!-- z1&#45;&gt;poss -->
<g id="edge2" class="edge">
<title>z1&#45;&gt;poss</title>
<path fill="none" stroke="#000000" d="M2399.26,-914.32C2364.03,-914.32 2300.58,-914.32 2253.01,-914.32"/>
<polygon fill="#000000" stroke="#000000" points="2252.81,-910.82 2242.81,-914.32 2252.81,-917.82 2252.81,-910.82"/>
<text text-anchor="middle" x="2321.19" y="-993.72" font-family="Times,serif" font-size="32.00">Mary&#39;s |</text>
<text text-anchor="middle" x="2321.19" y="-958.72" font-family="Times,serif" font-size="32.00"> John&#39;s</text>
<text text-anchor="middle" x="2321.19" y="-923.72" font-family="Times,serif" font-size="32.00">poss</text>
</g>
<!-- z2 -->
<g id="node6" class="node">
<title>z2</title>
<ellipse fill="none" stroke="black" stroke-dasharray="5,2" cx="2426.69" cy="-693.32" rx="27" ry="18"/>
</g>
<!-- d -->
<g id="node7" class="node">
<title>d</title>
<ellipse fill="none" stroke="black" cx="2190.36" cy="-693.32" rx="27" ry="30.31"/>
<text text-anchor="middle" x="2190.36" y="-685.22" font-family="Times,serif" font-size="32.00">d</text>
</g>
<!-- z2&#45;&gt;d -->
<g id="edge3" class="edge">
<title>z2&#45;&gt;d</title>
<path fill="none" stroke="#000000" d="M2399.26,-693.32C2357.31,-693.32 2275.37,-693.32 2227.85,-693.32"/>
<polygon fill="#000000" stroke="#000000" points="2227.69,-689.82 2217.69,-693.32 2227.69,-696.82 2227.69,-689.82"/>
<text text-anchor="middle" x="2321.19" y="-737.72" font-family="Times,serif" font-size="32.00">the&#45;cause</text>
<text text-anchor="middle" x="2321.19" y="-702.72" font-family="Times,serif" font-size="32.00">d &#45;k</text>
</g>
<!-- d&#45;&gt;t -->
<g id="edge35" class="edge">
<title>d&#45;&gt;t</title>
<path fill="none" stroke="#000000" d="M2167.44,-709.79C2156.47,-719.4 2144.23,-732.53 2138.04,-747.32 2114.76,-802.9 2147.55,-1235.71 2120.04,-1289.32 2040.79,-1443.7 1984.05,-1527.32 1810.52,-1527.32 1810.52,-1527.32 1810.52,-1527.32 247.5,-1527.32 130.57,-1527.32 119.7,-1438.08 72,-1331.32 43.73,-1268.04 32.8,-1061.89 29.36,-973.81"/>
<polygon fill="#000000" stroke="#000000" points="32.85,-973.53 28.97,-963.67 25.85,-973.8 32.85,-973.53"/>
<text text-anchor="middle" x="969" y="-1956.72" font-family="Times,serif" font-size="32.00">fears |</text>
<text text-anchor="middle" x="969" y="-1921.72" font-family="Times,serif" font-size="32.00"> feard |</text>
<text text-anchor="middle" x="969" y="-1886.72" font-family="Times,serif" font-size="32.00"> neglects |</text>
<text text-anchor="middle" x="969" y="-1851.72" font-family="Times,serif" font-size="32.00"> neglectd |</text>
<text text-anchor="middle" x="969" y="-1816.72" font-family="Times,serif" font-size="32.00"> scorns |</text>
<text text-anchor="middle" x="969" y="-1781.72" font-family="Times,serif" font-size="32.00"> scornd |</text>
<text text-anchor="middle" x="969" y="-1746.72" font-family="Times,serif" font-size="32.00"> respects |</text>
<text text-anchor="middle" x="969" y="-1711.72" font-family="Times,serif" font-size="32.00"> respectd |</text>
<text text-anchor="middle" x="969" y="-1676.72" font-family="Times,serif" font-size="32.00"> disdains |</text>
<text text-anchor="middle" x="969" y="-1641.72" font-family="Times,serif" font-size="32.00"> disdaind |</text>
<text text-anchor="middle" x="969" y="-1606.72" font-family="Times,serif" font-size="32.00"> doubts |</text>
<text text-anchor="middle" x="969" y="-1571.72" font-family="Times,serif" font-size="32.00"> doubtd</text>
<text text-anchor="middle" x="969" y="-1536.72" font-family="Times,serif" font-size="32.00">=d *k =da +k t</text>
</g>
<!-- for -->
<g id="node8" class="node">
<title>for</title>
<ellipse fill="none" stroke="black" cx="1809.52" cy="-1189.32" rx="37.45" ry="30.31"/>
<text text-anchor="middle" x="1809.52" y="-1181.22" font-family="Times,serif" font-size="32.00">for</text>
</g>
<!-- d&#45;&gt;for -->
<g id="edge4" class="edge">
<title>d&#45;&gt;for</title>
<path fill="none" stroke="#000000" d="M2167.5,-709.81C2156.54,-719.43 2144.31,-732.56 2138.04,-747.32 2119.91,-790.01 2152.21,-1130.92 2120.04,-1164.32 2051.65,-1235.32 1923.03,-1217.65 1855.13,-1201.75"/>
<polygon fill="#000000" stroke="#000000" points="1855.71,-1198.29 1845.16,-1199.33 1854.05,-1205.09 1855.71,-1198.29"/>
<text text-anchor="middle" x="2004.54" y="-1259.72" font-family="Times,serif" font-size="32.00">for</text>
<text text-anchor="middle" x="2004.54" y="-1224.72" font-family="Times,serif" font-size="32.00">=d *k for</text>
</g>
<!-- of -->
<g id="node9" class="node">
<title>of</title>
<ellipse fill="none" stroke="black" cx="1809.52" cy="-647.32" rx="30.31" ry="30.31"/>
<text text-anchor="middle" x="1809.52" y="-639.22" font-family="Times,serif" font-size="32.00">of</text>
</g>
<!-- d&#45;&gt;of -->
<g id="edge5" class="edge">
<title>d&#45;&gt;of</title>
<path fill="none" stroke="#000000" d="M2168.5,-675.22C2155.51,-665.17 2137.91,-653.65 2120.04,-648.32 2026.51,-620.46 1909.93,-631.63 1850.06,-640.47"/>
<polygon fill="#000000" stroke="#000000" points="1849.26,-637.05 1839.9,-642.02 1850.32,-643.97 1849.26,-637.05"/>
<text text-anchor="middle" x="2004.54" y="-692.72" font-family="Times,serif" font-size="32.00">of</text>
<text text-anchor="middle" x="2004.54" y="-657.72" font-family="Times,serif" font-size="32.00">=d *k of</text>
</g>
<!-- about -->
<g id="node10" class="node">
<title>about</title>
<ellipse fill="none" stroke="black" cx="1809.52" cy="-426.32" rx="61.54" ry="30.31"/>
<text text-anchor="middle" x="1809.52" y="-418.22" font-family="Times,serif" font-size="32.00">about</text>
</g>
<!-- d&#45;&gt;about -->
<g id="edge6" class="edge">
<title>d&#45;&gt;about</title>
<path fill="none" stroke="#000000" d="M2186.05,-663C2178.43,-599.56 2157.37,-456.27 2120.04,-427.32 2049,-372.24 1938.65,-388.71 1870.69,-406.75"/>
<polygon fill="#000000" stroke="#000000" points="1869.7,-403.39 1860.98,-409.41 1871.55,-410.14 1869.7,-403.39"/>
<text text-anchor="middle" x="2004.54" y="-471.72" font-family="Times,serif" font-size="32.00">about</text>
<text text-anchor="middle" x="2004.54" y="-436.72" font-family="Times,serif" font-size="32.00">=d *k about</text>
</g>
<!-- v -->
<g id="node12" class="node">
<title>v</title>
<ellipse fill="none" stroke="black" cx="248.5" cy="-646.32" rx="27" ry="30.31"/>
<text text-anchor="middle" x="248.5" y="-638.22" font-family="Times,serif" font-size="32.00">v</text>
</g>
<!-- d&#45;&gt;v -->
<g id="edge36" class="edge">
<title>d&#45;&gt;v</title>
<path fill="none" stroke="#000000" d="M2189.55,-662.83C2189.5,-566.39 2184.01,-270.53 2120.04,-205.32 1795.97,124.97 1532.03,-17.69 1082,-125.32 900,-168.85 467.09,-377.87 331,-506.32 300.27,-535.32 277.54,-578.5 264,-609.23"/>
<polygon fill="#000000" stroke="#000000" points="260.65,-608.17 259.93,-618.74 267.09,-610.92 260.65,-608.17"/>
<text text-anchor="middle" x="1184.5" y="-344.72" font-family="Times,serif" font-size="32.00">fear |</text>
<text text-anchor="middle" x="1184.5" y="-309.72" font-family="Times,serif" font-size="32.00"> neglect |</text>
<text text-anchor="middle" x="1184.5" y="-274.72" font-family="Times,serif" font-size="32.00"> scorn |</text>
<text text-anchor="middle" x="1184.5" y="-239.72" font-family="Times,serif" font-size="32.00"> respect |</text>
<text text-anchor="middle" x="1184.5" y="-204.72" font-family="Times,serif" font-size="32.00"> disdain |</text>
<text text-anchor="middle" x="1184.5" y="-169.72" font-family="Times,serif" font-size="32.00"> doubt</text>
<text text-anchor="middle" x="1184.5" y="-134.72" font-family="Times,serif" font-size="32.00">=d *k =da v</text>
</g>
<!-- perf -->
<g id="node13" class="node">
<title>perf</title>
<ellipse fill="none" stroke="black" cx="559" cy="-863.32" rx="48.17" ry="30.31"/>
<text text-anchor="middle" x="559" y="-855.22" font-family="Times,serif" font-size="32.00">perf</text>
</g>
<!-- d&#45;&gt;perf -->
<g id="edge38" class="edge">
<title>d&#45;&gt;perf</title>
<path fill="none" stroke="#000000" d="M2167.49,-710.16C2156.68,-719.78 2144.57,-732.82 2138.04,-747.32 2119.07,-789.42 2153.16,-922.15 2120.04,-954.32 2054.97,-1017.52 1391.02,-972.54 1305,-1001.32 1295.88,-1004.37 1296.2,-1010.53 1287,-1013.32 1199.8,-1039.72 1172.69,-1022.08 1082,-1013.32 887.74,-994.57 829.99,-1007.11 651,-929.32 631.19,-920.71 611.49,-907.2 595.52,-894.65"/>
<polygon fill="#000000" stroke="#000000" points="597.5,-891.75 587.52,-888.2 593.11,-897.2 597.5,-891.75"/>
<text text-anchor="middle" x="1410.5" y="-1220.72" font-family="Times,serif" font-size="32.00">fearn |</text>
<text text-anchor="middle" x="1410.5" y="-1185.72" font-family="Times,serif" font-size="32.00"> neglectn |</text>
<text text-anchor="middle" x="1410.5" y="-1150.72" font-family="Times,serif" font-size="32.00"> scornn |</text>
<text text-anchor="middle" x="1410.5" y="-1115.72" font-family="Times,serif" font-size="32.00"> respectn |</text>
<text text-anchor="middle" x="1410.5" y="-1080.72" font-family="Times,serif" font-size="32.00"> disdainn |</text>
<text text-anchor="middle" x="1410.5" y="-1045.72" font-family="Times,serif" font-size="32.00"> doubtn</text>
<text text-anchor="middle" x="1410.5" y="-1010.72" font-family="Times,serif" font-size="32.00">=d *k =da perf</text>
</g>
<!-- prog -->
<g id="node14" class="node">
<title>prog</title>
<ellipse fill="none" stroke="black" cx="969" cy="-610.32" rx="52.15" ry="30.31"/>
<text text-anchor="middle" x="969" y="-602.22" font-family="Times,serif" font-size="32.00">prog</text>
</g>
<!-- d&#45;&gt;prog -->
<g id="edge37" class="edge">
<title>d&#45;&gt;prog</title>
<path fill="none" stroke="#000000" d="M2190.25,-662.54C2190.42,-603.17 2183.07,-471.21 2120.04,-386.32 2001.26,-226.35 1922.66,-216.11 1730,-165.32 1645.77,-143.12 1615.94,-135.75 1534,-165.32 1399.81,-213.75 1405.34,-290.64 1287,-370.32 1201.23,-428.07 1144.45,-397.91 1082,-480.32 1059.73,-509.71 1086.45,-532.06 1064,-561.32 1053.89,-574.5 1039.22,-584.48 1024.47,-591.87"/>
<polygon fill="#000000" stroke="#000000" points="1022.89,-588.75 1015.31,-596.15 1025.85,-595.09 1022.89,-588.75"/>
<text text-anchor="middle" x="1632" y="-384.72" font-family="Times,serif" font-size="32.00">fearing |</text>
<text text-anchor="middle" x="1632" y="-349.72" font-family="Times,serif" font-size="32.00"> neglecting |</text>
<text text-anchor="middle" x="1632" y="-314.72" font-family="Times,serif" font-size="32.00"> scorning |</text>
<text text-anchor="middle" x="1632" y="-279.72" font-family="Times,serif" font-size="32.00"> respecting |</text>
<text text-anchor="middle" x="1632" y="-244.72" font-family="Times,serif" font-size="32.00"> disdaining |</text>
<text text-anchor="middle" x="1632" y="-209.72" font-family="Times,serif" font-size="32.00"> doubting</text>
<text text-anchor="middle" x="1632" y="-174.72" font-family="Times,serif" font-size="32.00">=d *k =da prog</text>
</g>
<!-- for&#45;&gt;t -->
<g id="edge17" class="edge">
<title>for&#45;&gt;t</title>
<path fill="none" stroke="#000000" d="M1793.96,-1217.07C1780.32,-1240.63 1757.86,-1273.8 1730,-1294.32 1609.06,-1383.39 1561.7,-1407.32 1411.5,-1407.32 1411.5,-1407.32 1411.5,-1407.32 247.5,-1407.32 57.33,-1407.32 31.43,-1089.26 28.28,-974.22"/>
<polygon fill="#000000" stroke="#000000" points="31.78,-973.97 28.05,-964.06 24.78,-974.13 31.78,-973.97"/>
<text text-anchor="middle" x="753.5" y="-1486.72" font-family="Times,serif" font-size="32.00">hopes |</text>
<text text-anchor="middle" x="753.5" y="-1451.72" font-family="Times,serif" font-size="32.00"> hoped</text>
<text text-anchor="middle" x="753.5" y="-1416.72" font-family="Times,serif" font-size="32.00">=for =da +k t</text>
</g>
<!-- for&#45;&gt;d -->
<g id="edge21" class="edge">
<title>for&#45;&gt;d</title>
<path fill="none" stroke="#000000" d="M1815.2,-1159.03C1823,-1119.85 1842.67,-1052.81 1889.04,-1020.32 1931.24,-990.76 2083.88,-1037.03 2120.04,-1000.32 2159.59,-960.16 2115.28,-798.89 2138.04,-747.32 2143.04,-735.97 2151.5,-725.55 2160.12,-716.95"/>
<polygon fill="#000000" stroke="#000000" points="2162.76,-719.27 2167.66,-709.88 2157.97,-714.17 2162.76,-719.27"/>
<text text-anchor="middle" x="2004.54" y="-1134.72" font-family="Times,serif" font-size="32.00">hope_1 |</text>
<text text-anchor="middle" x="2004.54" y="-1099.72" font-family="Times,serif" font-size="32.00"> respect_1 |</text>
<text text-anchor="middle" x="2004.54" y="-1064.72" font-family="Times,serif" font-size="32.00"> disdain_1</text>
<text text-anchor="middle" x="2004.54" y="-1029.72" font-family="Times,serif" font-size="32.00">=for poss= d &#45;k</text>
</g>
<!-- a -->
<g id="node11" class="node">
<title>a</title>
<ellipse fill="none" stroke="black" cx="1410.5" cy="-859.32" rx="27" ry="30.31"/>
<text text-anchor="middle" x="1410.5" y="-851.22" font-family="Times,serif" font-size="32.00">a</text>
</g>
<!-- for&#45;&gt;a -->
<g id="edge22" class="edge">
<title>for&#45;&gt;a</title>
<path fill="none" stroke="#000000" d="M1778.22,-1171.99C1723.58,-1139.51 1607.41,-1064.73 1534,-976.32 1522.83,-962.86 1527.14,-954.81 1516,-941.32 1495.26,-916.2 1465.59,-893.84 1443.16,-878.84"/>
<polygon fill="#000000" stroke="#000000" points="1444.94,-875.81 1434.65,-873.26 1441.1,-881.67 1444.94,-875.81"/>
<text text-anchor="middle" x="1632" y="-1184.72" font-family="Times,serif" font-size="32.00">hopeful</text>
<text text-anchor="middle" x="1632" y="-1149.72" font-family="Times,serif" font-size="32.00">=for a</text>
</g>
<!-- for&#45;&gt;v -->
<g id="edge18" class="edge">
<title>for&#45;&gt;v</title>
<path fill="none" stroke="#000000" d="M1789.3,-1215.31C1775.02,-1232.45 1753.93,-1253.65 1730,-1264.32 1620.46,-1313.18 760.42,-1344.43 651,-1295.32 430.4,-1196.31 437.63,-1072.34 331,-855.32 302.54,-797.4 276.77,-726.89 262.14,-684.36"/>
<polygon fill="#000000" stroke="#000000" points="265.38,-683.02 258.84,-674.69 258.76,-685.28 265.38,-683.02"/>
<text text-anchor="middle" x="969" y="-1363.72" font-family="Times,serif" font-size="32.00">hope</text>
<text text-anchor="middle" x="969" y="-1328.72" font-family="Times,serif" font-size="32.00">=for =da v</text>
</g>
<!-- for&#45;&gt;perf -->
<g id="edge20" class="edge">
<title>for&#45;&gt;perf</title>
<path fill="none" stroke="#000000" d="M1776.86,-1204.42C1694.52,-1241.38 1468.72,-1327.9 1305,-1250.32 1293.58,-1244.91 1297.59,-1235.2 1287,-1228.32 1041.24,-1068.69 855.25,-1264.47 651,-1054.32 627.41,-1030.05 646.13,-1011.52 633,-980.32 620.82,-951.36 601.94,-921.34 586.43,-898.97"/>
<polygon fill="#000000" stroke="#000000" points="589.29,-896.95 580.68,-890.78 583.57,-900.98 589.29,-896.95"/>
<text text-anchor="middle" x="1184.5" y="-1272.72" font-family="Times,serif" font-size="32.00">hopen</text>
<text text-anchor="middle" x="1184.5" y="-1237.72" font-family="Times,serif" font-size="32.00">=for =da perf</text>
</g>
<!-- for&#45;&gt;prog -->
<g id="edge19" class="edge">
<title>for&#45;&gt;prog</title>
<path fill="none" stroke="#000000" d="M1806.1,-1158.99C1800.74,-1112.63 1783.68,-1024.49 1730,-976.32 1663.17,-916.35 1592.77,-995.21 1534,-927.32 1482.24,-867.54 1564.02,-813.14 1516,-750.32 1456.98,-673.11 1160.87,-631.43 1031.1,-616.63"/>
<polygon fill="#000000" stroke="#000000" points="1031.26,-613.13 1020.93,-615.49 1030.47,-620.08 1031.26,-613.13"/>
<text text-anchor="middle" x="1410.5" y="-794.72" font-family="Times,serif" font-size="32.00">hopeing</text>
<text text-anchor="middle" x="1410.5" y="-759.72" font-family="Times,serif" font-size="32.00">=for =da prog</text>
</g>
<!-- of&#45;&gt;t -->
<g id="edge23" class="edge">
<title>of&#45;&gt;t</title>
<path fill="none" stroke="#000000" d="M1805.03,-677.4C1797.68,-732.63 1777.2,-852.77 1730,-942.32 1667.69,-1060.53 1600.59,-1054.46 1534,-1170.32 1521.81,-1191.52 1535.92,-1208.13 1516,-1222.32 1477.8,-1249.52 1348.83,-1238.98 1305,-1222.32 1295,-1218.52 1296.94,-1210.28 1287,-1206.32 1067.04,-1118.65 991.29,-1189.32 754.5,-1189.32 754.5,-1189.32 754.5,-1189.32 247.5,-1189.32 133.99,-1189.32 66.51,-1042.49 40.45,-971.23"/>
<polygon fill="#000000" stroke="#000000" points="43.71,-969.94 37.05,-961.7 37.11,-972.29 43.71,-969.94"/>
<text text-anchor="middle" x="753.5" y="-1268.72" font-family="Times,serif" font-size="32.00">boasts |</text>
<text text-anchor="middle" x="753.5" y="-1233.72" font-family="Times,serif" font-size="32.00"> boastd</text>
<text text-anchor="middle" x="753.5" y="-1198.72" font-family="Times,serif" font-size="32.00">=of =da +k t</text>
</g>
<!-- of&#45;&gt;d -->
<g id="edge27" class="edge">
<title>of&#45;&gt;d</title>
<path fill="none" stroke="#000000" d="M1828.57,-671.09C1842.89,-687.83 1864.51,-708.88 1889.04,-718.32 1984.85,-755.21 2018.9,-736 2120.04,-718.32 2131.93,-716.24 2144.47,-712.3 2155.57,-708.15"/>
<polygon fill="#000000" stroke="#000000" points="2156.87,-711.4 2164.9,-704.49 2154.32,-704.88 2156.87,-711.4"/>
<text text-anchor="middle" x="2004.54" y="-924.72" font-family="Times,serif" font-size="32.00">boast_1 |</text>
<text text-anchor="middle" x="2004.54" y="-889.72" font-family="Times,serif" font-size="32.00"> fear_1 |</text>
<text text-anchor="middle" x="2004.54" y="-854.72" font-family="Times,serif" font-size="32.00"> neglect_1 |</text>
<text text-anchor="middle" x="2004.54" y="-819.72" font-family="Times,serif" font-size="32.00"> scorn_1 |</text>
<text text-anchor="middle" x="2004.54" y="-784.72" font-family="Times,serif" font-size="32.00"> doubt_1</text>
<text text-anchor="middle" x="2004.54" y="-749.72" font-family="Times,serif" font-size="32.00">=of poss= d &#45;k</text>
</g>
<!-- of&#45;&gt;a -->
<g id="edge28" class="edge">
<title>of&#45;&gt;a</title>
<path fill="none" stroke="#000000" d="M1779.51,-642.22C1716.44,-631.85 1569.62,-611.82 1534,-643.32 1509.51,-664.98 1533.13,-761.48 1516,-789.32 1499.81,-815.64 1469.59,-834.25 1445.79,-845.63"/>
<polygon fill="#000000" stroke="#000000" points="1444.03,-842.59 1436.38,-849.93 1446.93,-848.96 1444.03,-842.59"/>
<text text-anchor="middle" x="1632" y="-897.72" font-family="Times,serif" font-size="32.00">boastful |</text>
<text text-anchor="middle" x="1632" y="-862.72" font-family="Times,serif" font-size="32.00"> fearful |</text>
<text text-anchor="middle" x="1632" y="-827.72" font-family="Times,serif" font-size="32.00"> neglectful |</text>
<text text-anchor="middle" x="1632" y="-792.72" font-family="Times,serif" font-size="32.00"> scornful |</text>
<text text-anchor="middle" x="1632" y="-757.72" font-family="Times,serif" font-size="32.00"> respectful |</text>
<text text-anchor="middle" x="1632" y="-722.72" font-family="Times,serif" font-size="32.00"> disdainful |</text>
<text text-anchor="middle" x="1632" y="-687.72" font-family="Times,serif" font-size="32.00"> doubtful</text>
<text text-anchor="middle" x="1632" y="-652.72" font-family="Times,serif" font-size="32.00">=of a</text>
</g>
<!-- of&#45;&gt;v -->
<g id="edge24" class="edge">
<title>of&#45;&gt;v</title>
<path fill="none" stroke="#000000" d="M1785.12,-629.09C1770.18,-618.39 1749.92,-605.59 1730,-598.32 1688.67,-583.24 1564.94,-601.61 1534,-570.32 1490.82,-526.65 1562.17,-473.82 1516,-433.32 1419.87,-349 479.08,-586.82 284.58,-637.17"/>
<polygon fill="#000000" stroke="#000000" points="283.66,-633.79 274.86,-639.68 285.42,-640.56 283.66,-633.79"/>
<text text-anchor="middle" x="969" y="-542.72" font-family="Times,serif" font-size="32.00">boast</text>
<text text-anchor="middle" x="969" y="-507.72" font-family="Times,serif" font-size="32.00">=of =da v</text>
</g>
<!-- of&#45;&gt;perf -->
<g id="edge26" class="edge">
<title>of&#45;&gt;perf</title>
<path fill="none" stroke="#000000" d="M1804.39,-677.75C1794.87,-742.99 1769.13,-892.89 1730,-923.32 1715.39,-934.68 1082.51,-942.06 1064,-942.32 979.56,-943.52 957.8,-952.7 874,-942.32 779.94,-930.67 673.56,-900.09 611.9,-880.58"/>
<polygon fill="#000000" stroke="#000000" points="612.62,-877.13 602.03,-877.43 610.49,-883.8 612.62,-877.13"/>
<text text-anchor="middle" x="1184.5" y="-985.72" font-family="Times,serif" font-size="32.00">boastn</text>
<text text-anchor="middle" x="1184.5" y="-950.72" font-family="Times,serif" font-size="32.00">=of =da perf</text>
</g>
<!-- of&#45;&gt;prog -->
<g id="edge25" class="edge">
<title>of&#45;&gt;prog</title>
<path fill="none" stroke="#000000" d="M1780.45,-637.59C1765.6,-632.73 1746.97,-627.1 1730,-623.32 1644.11,-604.18 1617.4,-623.38 1534,-595.32 1525.33,-592.4 1524.86,-587.62 1516,-585.32 1342.83,-540.45 1128.6,-575.22 1027.71,-596.67"/>
<polygon fill="#000000" stroke="#000000" points="1026.75,-593.3 1017.72,-598.83 1028.23,-600.14 1026.75,-593.3"/>
<text text-anchor="middle" x="1410.5" y="-629.72" font-family="Times,serif" font-size="32.00">boasting</text>
<text text-anchor="middle" x="1410.5" y="-594.72" font-family="Times,serif" font-size="32.00">=of =da prog</text>
</g>
<!-- about&#45;&gt;t -->
<g id="edge29" class="edge">
<title>about&#45;&gt;t</title>
<path fill="none" stroke="#000000" d="M1766.87,-404.06C1755.16,-398.39 1742.28,-392.67 1730,-388.32 1645.66,-358.43 1612.49,-385.28 1534,-342.32 1399.73,-268.83 1427.53,-162.99 1287,-102.32 1157.53,-46.42 1111.03,-88.32 970,-88.32 970,-88.32 970,-88.32 247.5,-88.32 79.17,-88.32 37.7,-724.41 29.67,-892.82"/>
<polygon fill="#000000" stroke="#000000" points="26.17,-892.85 29.2,-903 33.16,-893.17 26.17,-892.85"/>
<text text-anchor="middle" x="753.5" y="-167.72" font-family="Times,serif" font-size="32.00">boasts_1 |</text>
<text text-anchor="middle" x="753.5" y="-132.72" font-family="Times,serif" font-size="32.00"> boastd_1</text>
<text text-anchor="middle" x="753.5" y="-97.72" font-family="Times,serif" font-size="32.00">=about =da +k t</text>
</g>
<!-- about&#45;&gt;d -->
<g id="edge33" class="edge">
<title>about&#45;&gt;d</title>
<path fill="none" stroke="#000000" d="M1833.68,-454.6C1847.94,-469.95 1867.57,-487.7 1889.04,-497.32 1983.27,-539.57 2037.62,-460.1 2120.04,-522.32 2161.19,-553.4 2178,-613.01 2184.81,-652.98"/>
<polygon fill="#000000" stroke="#000000" points="2181.37,-653.6 2186.37,-662.94 2188.28,-652.52 2181.37,-653.6"/>
<text text-anchor="middle" x="2004.54" y="-601.72" font-family="Times,serif" font-size="32.00">boast_3 |</text>
<text text-anchor="middle" x="2004.54" y="-566.72" font-family="Times,serif" font-size="32.00"> doubt_2</text>
<text text-anchor="middle" x="2004.54" y="-531.72" font-family="Times,serif" font-size="32.00">=about poss= d &#45;k</text>
</g>
<!-- about&#45;&gt;a -->
<g id="edge34" class="edge">
<title>about&#45;&gt;a</title>
<path fill="none" stroke="#000000" d="M1752.15,-437.53C1679.96,-453.12 1560.93,-483.39 1534,-518.32 1497.14,-566.12 1546.17,-737.05 1516,-789.32 1500.49,-816.2 1469.99,-834.81 1445.92,-846.05"/>
<polygon fill="#000000" stroke="#000000" points="1444.45,-842.87 1436.73,-850.14 1447.29,-849.27 1444.45,-842.87"/>
<text text-anchor="middle" x="1632" y="-597.72" font-family="Times,serif" font-size="32.00">boastful_1 |</text>
<text text-anchor="middle" x="1632" y="-562.72" font-family="Times,serif" font-size="32.00"> doubtful_1</text>
<text text-anchor="middle" x="1632" y="-527.72" font-family="Times,serif" font-size="32.00">=about a</text>
</g>
<!-- about&#45;&gt;v -->
<g id="edge30" class="edge">
<title>about&#45;&gt;v</title>
<path fill="none" stroke="#000000" d="M1753.37,-413.87C1745.56,-412.46 1737.6,-411.21 1730,-410.32 1541.02,-388.1 1061.3,-354.77 874,-388.32 620.7,-433.7 558.97,-469.94 331,-589.32 312.97,-598.76 294.27,-611.59 279.33,-622.69"/>
<polygon fill="#000000" stroke="#000000" points="276.87,-620.16 271.01,-628.99 281.09,-625.75 276.87,-620.16"/>
<text text-anchor="middle" x="969" y="-432.72" font-family="Times,serif" font-size="32.00">boast_2</text>
<text text-anchor="middle" x="969" y="-397.72" font-family="Times,serif" font-size="32.00">=about =da v</text>
</g>
<!-- about&#45;&gt;perf -->
<g id="edge32" class="edge">
<title>about&#45;&gt;perf</title>
<path fill="none" stroke="#000000" d="M1748.57,-421.67C1676.87,-417.56 1562.87,-416.09 1534,-445.32 1484.57,-495.36 1565.15,-711 1516,-761.32 1482.2,-795.93 1130.12,-791.3 1082,-796.32 911.9,-814.09 711.48,-841.69 616.01,-855.25"/>
<polygon fill="#000000" stroke="#000000" points="615.41,-851.8 606,-856.67 616.39,-858.73 615.41,-851.8"/>
<text text-anchor="middle" x="1184.5" y="-840.72" font-family="Times,serif" font-size="32.00">boastn_1</text>
<text text-anchor="middle" x="1184.5" y="-805.72" font-family="Times,serif" font-size="32.00">=about =da perf</text>
</g>
<!-- about&#45;&gt;prog -->
<g id="edge31" class="edge">
<title>about&#45;&gt;prog</title>
<path fill="none" stroke="#000000" d="M1749.52,-419.28C1693.68,-413.98 1607.67,-409.31 1534,-420.32 1336.46,-449.84 1115.65,-543.12 1019.36,-587.03"/>
<polygon fill="#000000" stroke="#000000" points="1017.79,-583.9 1010.16,-591.25 1020.71,-590.26 1017.79,-583.9"/>
<text text-anchor="middle" x="1410.5" y="-520.72" font-family="Times,serif" font-size="32.00">boasting_1</text>
<text text-anchor="middle" x="1410.5" y="-485.72" font-family="Times,serif" font-size="32.00">=about =da prog</text>
</g>
<!-- a&#45;&gt;t -->
<g id="edge7" class="edge">
<title>a&#45;&gt;t</title>
<path fill="none" stroke="#000000" d="M1386.11,-872.47C1362.69,-886.71 1327.04,-911.44 1305,-941.32 1291.72,-959.32 1305.15,-975.24 1287,-988.32 1229.8,-1029.55 1040.51,-1002.32 970,-1002.32 970,-1002.32 970,-1002.32 247.5,-1002.32 178.57,-1002.32 102.83,-970.97 60.79,-950.53"/>
<polygon fill="#000000" stroke="#000000" points="62.11,-947.28 51.59,-945.98 59,-953.55 62.11,-947.28"/>
<text text-anchor="middle" x="559" y="-1081.72" font-family="Times,serif" font-size="32.00">bes |</text>
<text text-anchor="middle" x="559" y="-1046.72" font-family="Times,serif" font-size="32.00"> bed</text>
<text text-anchor="middle" x="559" y="-1011.72" font-family="Times,serif" font-size="32.00">=a =da +k t</text>
</g>
<!-- a&#45;&gt;v -->
<g id="edge8" class="edge">
<title>a&#45;&gt;v</title>
<path fill="none" stroke="#000000" d="M1383.45,-859.89C1327.8,-860.75 1193.32,-860.85 1082,-845.32 979.72,-831.05 956.62,-814.59 856,-791.32 691.38,-753.24 649.17,-748.28 485,-708.32 413.58,-690.94 330.56,-668.57 284.62,-656.01"/>
<polygon fill="#000000" stroke="#000000" points="285.43,-652.6 274.86,-653.33 283.58,-659.35 285.43,-652.6"/>
<text text-anchor="middle" x="753.5" y="-835.72" font-family="Times,serif" font-size="32.00">be</text>
<text text-anchor="middle" x="753.5" y="-800.72" font-family="Times,serif" font-size="32.00">=a =da v</text>
</g>
<!-- a&#45;&gt;perf -->
<g id="edge9" class="edge">
<title>a&#45;&gt;perf</title>
<path fill="none" stroke="#000000" d="M1383.26,-862.36C1358.49,-865.07 1320.28,-868.83 1287,-870.32 1157.09,-876.14 765.31,-868.06 617.38,-864.68"/>
<polygon fill="#000000" stroke="#000000" points="617.24,-861.18 607.16,-864.45 617.08,-868.17 617.24,-861.18"/>
<text text-anchor="middle" x="969" y="-915.72" font-family="Times,serif" font-size="32.00">ben</text>
<text text-anchor="middle" x="969" y="-880.72" font-family="Times,serif" font-size="32.00">=a =da perf</text>
</g>
<!-- a&#45;&gt;prog -->
<g id="edge10" class="edge">
<title>a&#45;&gt;prog</title>
<path fill="none" stroke="#000000" d="M1387.7,-842.66C1363.86,-823.28 1326.22,-789.08 1305,-751.32 1289.47,-723.69 1310.96,-703.07 1287,-682.32 1252.35,-652.31 1126.28,-671.2 1082,-659.32 1060.16,-653.46 1037.09,-643.99 1017.61,-634.93"/>
<polygon fill="#000000" stroke="#000000" points="1018.88,-631.66 1008.35,-630.53 1015.88,-637.98 1018.88,-631.66"/>
<text text-anchor="middle" x="1184.5" y="-726.72" font-family="Times,serif" font-size="32.00">being</text>
<text text-anchor="middle" x="1184.5" y="-691.72" font-family="Times,serif" font-size="32.00">=a =da prog</text>
</g>
<!-- v&#45;&gt;t -->
<g id="edge11" class="edge">
<title>v&#45;&gt;t</title>
<path fill="none" stroke="#000000" d="M222.2,-653.54C183.6,-665.91 110.43,-694.92 72,-746.32 39.94,-789.2 30.79,-851.83 28.42,-892.58"/>
<polygon fill="#000000" stroke="#000000" points="24.92,-892.55 27.94,-902.7 31.91,-892.88 24.92,-892.55"/>
<text text-anchor="middle" x="119" y="-825.72" font-family="Times,serif" font-size="32.00">wills |</text>
<text text-anchor="middle" x="119" y="-790.72" font-family="Times,serif" font-size="32.00"> willd</text>
<text text-anchor="middle" x="119" y="-755.72" font-family="Times,serif" font-size="32.00">=v +k t</text>
</g>
<!-- perf&#45;&gt;t -->
<g id="edge12" class="edge">
<title>perf&#45;&gt;t</title>
<path fill="none" stroke="#000000" d="M510.9,-861.99C439.55,-860.85 300.07,-861.98 184,-883.32 140.97,-891.23 93.31,-907.69 62.14,-919.57"/>
<polygon fill="#000000" stroke="#000000" points="60.69,-916.38 52.62,-923.25 63.21,-922.91 60.69,-916.38"/>
<text text-anchor="middle" x="248.5" y="-962.72" font-family="Times,serif" font-size="32.00">haves |</text>
<text text-anchor="middle" x="248.5" y="-927.72" font-family="Times,serif" font-size="32.00"> haved</text>
<text text-anchor="middle" x="248.5" y="-892.72" font-family="Times,serif" font-size="32.00">=perf +k t</text>
</g>
<!-- perf&#45;&gt;v -->
<g id="edge13" class="edge">
<title>perf&#45;&gt;v</title>
<path fill="none" stroke="#000000" d="M535.72,-836.51C518.82,-818.01 493.95,-794.47 467,-781.32 411.84,-754.4 383.13,-789.72 331,-757.32 302.06,-739.34 280.09,-706.98 266.29,-681.83"/>
<polygon fill="#000000" stroke="#000000" points="269.35,-680.12 261.58,-672.92 263.16,-683.4 269.35,-680.12"/>
<text text-anchor="middle" x="399" y="-825.72" font-family="Times,serif" font-size="32.00">have</text>
<text text-anchor="middle" x="399" y="-790.72" font-family="Times,serif" font-size="32.00">=perf v</text>
</g>
<!-- prog&#45;&gt;t -->
<g id="edge14" class="edge">
<title>prog&#45;&gt;t</title>
<path fill="none" stroke="#000000" d="M924.84,-593.66C821.05,-555.97 549.86,-471.62 331,-527.32 202.73,-559.96 146.73,-565.08 72,-674.32 48.15,-709.18 35.78,-829.14 30.76,-892.84"/>
<polygon fill="#000000" stroke="#000000" points="27.26,-892.69 29.99,-902.93 34.24,-893.22 27.26,-892.69"/>
<text text-anchor="middle" x="399" y="-606.72" font-family="Times,serif" font-size="32.00">bes_1 |</text>
<text text-anchor="middle" x="399" y="-571.72" font-family="Times,serif" font-size="32.00"> bed_1</text>
<text text-anchor="middle" x="399" y="-536.72" font-family="Times,serif" font-size="32.00">=prog +k t</text>
</g>
<!-- prog&#45;&gt;v -->
<g id="edge15" class="edge">
<title>prog&#45;&gt;v</title>
<path fill="none" stroke="#000000" d="M916.62,-612.9C778.95,-619.79 404.25,-638.57 285.86,-644.5"/>
<polygon fill="#000000" stroke="#000000" points="285.35,-641.02 275.54,-645.02 285.7,-648.01 285.35,-641.02"/>
<text text-anchor="middle" x="559" y="-678.72" font-family="Times,serif" font-size="32.00">be_1</text>
<text text-anchor="middle" x="559" y="-643.72" font-family="Times,serif" font-size="32.00">=prog v</text>
</g>
<!-- prog&#45;&gt;perf -->
<g id="edge16" class="edge">
<title>prog&#45;&gt;perf</title>
<path fill="none" stroke="#000000" d="M918.42,-618.11C898.97,-621.1 876.45,-624.47 856,-627.32 810.52,-633.66 687.72,-625.75 651,-653.32 643.68,-658.81 599.76,-765.17 575.72,-824.37"/>
<polygon fill="#000000" stroke="#000000" points="572.41,-823.21 571.89,-833.79 578.9,-825.84 572.41,-823.21"/>
<text text-anchor="middle" x="753.5" y="-697.72" font-family="Times,serif" font-size="32.00">ben_1</text>
<text text-anchor="middle" x="753.5" y="-662.72" font-family="Times,serif" font-size="32.00">=prog perf</text>
</g>
</g>
</svg>
