<?xml version="1.0" encoding="UTF-8" standalone="no"?>
<!DOCTYPE svg PUBLIC "-//W3C//DTD SVG 1.1//EN"
 "http://www.w3.org/Graphics/SVG/1.1/DTD/svg11.dtd">
<!-- Generated by graphviz version 2.47.1 (20210417.1919)
 -->
<!-- Title: G Pages: 1 -->
<svg width="1455pt" height="1767pt"
 viewBox="0.00 0.00 1455.00 1767.42" xmlns="http://www.w3.org/2000/svg" xmlns:xlink="http://www.w3.org/1999/xlink">
<g id="graph0" class="graph" transform="scale(1 1) rotate(0) translate(4 1763.42)">
<title>G</title>
<polygon fill="white" stroke="transparent" points="-4,4 -4,-1763.42 1451,-1763.42 1451,4 -4,4"/>
<!-- t -->
<g id="node1" class="node">
<title>t</title>
<ellipse fill="lightgray" stroke="black" cx="27" cy="-575.42" rx="27" ry="30.31"/>
<text text-anchor="middle" x="27" y="-567.32" font-family="Times,serif" font-size="32.00">t</text>
</g>
<!-- z0 -->
<g id="node2" class="node">
<title>z0</title>
<ellipse fill="none" stroke="black" stroke-dasharray="5,2" cx="1420" cy="-503.42" rx="27" ry="18"/>
</g>
<!-- d -->
<g id="node3" class="node">
<title>d</title>
<ellipse fill="none" stroke="black" cx="1260" cy="-503.42" rx="27" ry="30.31"/>
<text text-anchor="middle" x="1260" y="-495.32" font-family="Times,serif" font-size="32.00">d</text>
</g>
<!-- z0&#45;&gt;d -->
<g id="edge1" class="edge">
<title>z0&#45;&gt;d</title>
<path fill="none" stroke="#000000" d="M1392.91,-503.42C1366.84,-503.42 1326.53,-503.42 1297.34,-503.42"/>
<polygon fill="#000000" stroke="#000000" points="1297.13,-499.92 1287.13,-503.42 1297.13,-506.92 1297.13,-499.92"/>
<text text-anchor="middle" x="1340" y="-547.82" font-family="Times,serif" font-size="32.00">Mary</text>
<text text-anchor="middle" x="1340" y="-512.82" font-family="Times,serif" font-size="32.00">d &#45;k</text>
</g>
<!-- d&#45;&gt;t -->
<g id="edge2" class="edge">
<title>d&#45;&gt;t</title>
<path fill="none" stroke="#000000" d="M1259.35,-533.9C1260.05,-633.43 1258.68,-947.72 1215,-1037.42 1138.51,-1194.49 1101.21,-1304.42 926.5,-1304.42 926.5,-1304.42 926.5,-1304.42 247.5,-1304.42 105.49,-1304.42 119.12,-1171.38 72,-1037.42 44.79,-960.05 33.03,-713.56 29.36,-615.86"/>
<polygon fill="#000000" stroke="#000000" points="32.85,-615.66 28.99,-605.79 25.86,-615.91 32.85,-615.66"/>
<text text-anchor="middle" x="572.5" y="-1733.82" font-family="Times,serif" font-size="32.00">dances |</text>
<text text-anchor="middle" x="572.5" y="-1698.82" font-family="Times,serif" font-size="32.00"> danced |</text>
<text text-anchor="middle" x="572.5" y="-1663.82" font-family="Times,serif" font-size="32.00"> smiles |</text>
<text text-anchor="middle" x="572.5" y="-1628.82" font-family="Times,serif" font-size="32.00"> smiled |</text>
<text text-anchor="middle" x="572.5" y="-1593.82" font-family="Times,serif" font-size="32.00"> jumps |</text>
<text text-anchor="middle" x="572.5" y="-1558.82" font-family="Times,serif" font-size="32.00"> jumped |</text>
<text text-anchor="middle" x="572.5" y="-1523.82" font-family="Times,serif" font-size="32.00"> laughs |</text>
<text text-anchor="middle" x="572.5" y="-1488.82" font-family="Times,serif" font-size="32.00"> laughed |</text>
<text text-anchor="middle" x="572.5" y="-1453.82" font-family="Times,serif" font-size="32.00"> brags |</text>
<text text-anchor="middle" x="572.5" y="-1418.82" font-family="Times,serif" font-size="32.00"> bragged |</text>
<text text-anchor="middle" x="572.5" y="-1383.82" font-family="Times,serif" font-size="32.00"> jogs |</text>
<text text-anchor="middle" x="572.5" y="-1348.82" font-family="Times,serif" font-size="32.00"> jogged</text>
<text text-anchor="middle" x="572.5" y="-1313.82" font-family="Times,serif" font-size="32.00">=d +k t</text>
</g>
<!-- d&#45;&gt;t -->
<g id="edge6" class="edge">
<title>d&#45;&gt;t</title>
<path fill="none" stroke="#000000" d="M1254.76,-533.62C1237.32,-644.6 1160.64,-1023.42 926.5,-1023.42 926.5,-1023.42 926.5,-1023.42 247.5,-1023.42 66.89,-1023.42 34.88,-726.18 29.21,-615.93"/>
<polygon fill="#000000" stroke="#000000" points="32.71,-615.68 28.74,-605.86 25.71,-616.01 32.71,-615.68"/>
<text text-anchor="middle" x="572.5" y="-1242.82" font-family="Times,serif" font-size="32.00">likes |</text>
<text text-anchor="middle" x="572.5" y="-1207.82" font-family="Times,serif" font-size="32.00"> liked |</text>
<text text-anchor="middle" x="572.5" y="-1172.82" font-family="Times,serif" font-size="32.00"> destroys |</text>
<text text-anchor="middle" x="572.5" y="-1137.82" font-family="Times,serif" font-size="32.00"> destroyed |</text>
<text text-anchor="middle" x="572.5" y="-1102.82" font-family="Times,serif" font-size="32.00"> hugs |</text>
<text text-anchor="middle" x="572.5" y="-1067.82" font-family="Times,serif" font-size="32.00"> hugged</text>
<text text-anchor="middle" x="572.5" y="-1032.82" font-family="Times,serif" font-size="32.00">=d *k =d +k t</text>
</g>
<!-- v -->
<g id="node4" class="node">
<title>v</title>
<ellipse fill="none" stroke="black" cx="248.5" cy="-575.42" rx="27" ry="30.31"/>
<text text-anchor="middle" x="248.5" y="-567.32" font-family="Times,serif" font-size="32.00">v</text>
</g>
<!-- d&#45;&gt;v -->
<g id="edge3" class="edge">
<title>d&#45;&gt;v</title>
<path fill="none" stroke="#000000" d="M1258.2,-533.88C1255.64,-566.62 1246.46,-617.91 1215,-647.42 1082.75,-771.46 998.1,-720.39 818,-741.42 595.83,-767.36 537.15,-701.23 331,-614.42 314.87,-607.63 297.32,-599.35 282.65,-592.17"/>
<polygon fill="#000000" stroke="#000000" points="283.99,-588.92 273.47,-587.63 280.89,-595.2 283.99,-588.92"/>
<text text-anchor="middle" x="748" y="-965.82" font-family="Times,serif" font-size="32.00">dance |</text>
<text text-anchor="middle" x="748" y="-930.82" font-family="Times,serif" font-size="32.00"> smile |</text>
<text text-anchor="middle" x="748" y="-895.82" font-family="Times,serif" font-size="32.00"> jump |</text>
<text text-anchor="middle" x="748" y="-860.82" font-family="Times,serif" font-size="32.00"> laugh |</text>
<text text-anchor="middle" x="748" y="-825.82" font-family="Times,serif" font-size="32.00"> brag |</text>
<text text-anchor="middle" x="748" y="-790.82" font-family="Times,serif" font-size="32.00"> jog</text>
<text text-anchor="middle" x="748" y="-755.82" font-family="Times,serif" font-size="32.00">=d v</text>
</g>
<!-- d&#45;&gt;v -->
<g id="edge7" class="edge">
<title>d&#45;&gt;v</title>
<path fill="none" stroke="#000000" d="M1256.8,-533.69C1253.01,-561.18 1242.74,-600.27 1215,-619.42 1148.43,-665.37 1113.78,-623.54 1033,-619.42 937.07,-614.52 913.84,-603.9 818,-597.42 670.26,-587.43 632.96,-592.32 485,-586.42 414.43,-583.6 331.99,-579.58 285.76,-577.26"/>
<polygon fill="#000000" stroke="#000000" points="285.8,-573.76 275.63,-576.75 285.44,-580.75 285.8,-573.76"/>
<text text-anchor="middle" x="748" y="-711.82" font-family="Times,serif" font-size="32.00">like |</text>
<text text-anchor="middle" x="748" y="-676.82" font-family="Times,serif" font-size="32.00"> destroy |</text>
<text text-anchor="middle" x="748" y="-641.82" font-family="Times,serif" font-size="32.00"> hug</text>
<text text-anchor="middle" x="748" y="-606.82" font-family="Times,serif" font-size="32.00">=d *k =d v</text>
</g>
<!-- prog -->
<g id="node5" class="node">
<title>prog</title>
<ellipse fill="none" stroke="black" cx="925.5" cy="-470.42" rx="52.15" ry="30.31"/>
<text text-anchor="middle" x="925.5" y="-462.32" font-family="Times,serif" font-size="32.00">prog</text>
</g>
<!-- d&#45;&gt;prog -->
<g id="edge4" class="edge">
<title>d&#45;&gt;prog</title>
<path fill="none" stroke="#000000" d="M1258.17,-473.03C1255.51,-442.46 1246.18,-396.72 1215,-374.42 1182.11,-350.88 1065.95,-350.96 1033,-374.42 1013.08,-388.6 1031.15,-408.05 1015,-426.42 1005.79,-436.89 993.51,-445.15 981.03,-451.54"/>
<polygon fill="#000000" stroke="#000000" points="979.47,-448.41 971.96,-455.87 982.49,-454.72 979.47,-448.41"/>
<text text-anchor="middle" x="1124" y="-593.82" font-family="Times,serif" font-size="32.00">dancing |</text>
<text text-anchor="middle" x="1124" y="-558.82" font-family="Times,serif" font-size="32.00"> smiling |</text>
<text text-anchor="middle" x="1124" y="-523.82" font-family="Times,serif" font-size="32.00"> jumping |</text>
<text text-anchor="middle" x="1124" y="-488.82" font-family="Times,serif" font-size="32.00"> laughing |</text>
<text text-anchor="middle" x="1124" y="-453.82" font-family="Times,serif" font-size="32.00"> bragging |</text>
<text text-anchor="middle" x="1124" y="-418.82" font-family="Times,serif" font-size="32.00"> jogging</text>
<text text-anchor="middle" x="1124" y="-383.82" font-family="Times,serif" font-size="32.00">=d prog</text>
</g>
<!-- d&#45;&gt;prog -->
<g id="edge8" class="edge">
<title>d&#45;&gt;prog</title>
<path fill="none" stroke="#000000" d="M1259.15,-472.88C1258.76,-405.34 1253.66,-246.66 1215,-213.42 1184.33,-187.05 1062.78,-186.05 1033,-213.42 998.03,-245.56 1041.7,-387.13 1015,-426.42 1007.08,-438.07 995.15,-446.77 982.58,-453.22"/>
<polygon fill="#000000" stroke="#000000" points="980.94,-450.12 973.37,-457.52 983.91,-456.46 980.94,-450.12"/>
<text text-anchor="middle" x="1124" y="-327.82" font-family="Times,serif" font-size="32.00">liking |</text>
<text text-anchor="middle" x="1124" y="-292.82" font-family="Times,serif" font-size="32.00"> destroying |</text>
<text text-anchor="middle" x="1124" y="-257.82" font-family="Times,serif" font-size="32.00"> hugging</text>
<text text-anchor="middle" x="1124" y="-222.82" font-family="Times,serif" font-size="32.00">=d *k =d prog</text>
</g>
<!-- perf -->
<g id="node6" class="node">
<title>perf</title>
<ellipse fill="none" stroke="black" cx="572.5" cy="-273.42" rx="48.17" ry="30.31"/>
<text text-anchor="middle" x="572.5" y="-265.32" font-family="Times,serif" font-size="32.00">perf</text>
</g>
<!-- d&#45;&gt;perf -->
<g id="edge5" class="edge">
<title>d&#45;&gt;perf</title>
<path fill="none" stroke="#000000" d="M1259.46,-472.8C1259.81,-401.61 1256.3,-228.22 1215,-191.42 1152.11,-135.38 919.15,-173 836,-186.42 758.81,-198.88 673.59,-230.69 621.8,-252.2"/>
<polygon fill="#000000" stroke="#000000" points="620.4,-248.99 612.53,-256.08 623.11,-255.45 620.4,-248.99"/>
<text text-anchor="middle" x="925.5" y="-405.82" font-family="Times,serif" font-size="32.00">danced_1 |</text>
<text text-anchor="middle" x="925.5" y="-370.82" font-family="Times,serif" font-size="32.00"> smiled_1 |</text>
<text text-anchor="middle" x="925.5" y="-335.82" font-family="Times,serif" font-size="32.00"> jumped_1 |</text>
<text text-anchor="middle" x="925.5" y="-300.82" font-family="Times,serif" font-size="32.00"> laughed_1 |</text>
<text text-anchor="middle" x="925.5" y="-265.82" font-family="Times,serif" font-size="32.00"> bragged_1 |</text>
<text text-anchor="middle" x="925.5" y="-230.82" font-family="Times,serif" font-size="32.00"> jogged_1</text>
<text text-anchor="middle" x="925.5" y="-195.82" font-family="Times,serif" font-size="32.00">=d perf</text>
</g>
<!-- d&#45;&gt;perf -->
<g id="edge9" class="edge">
<title>d&#45;&gt;perf</title>
<path fill="none" stroke="#000000" d="M1258.26,-473.01C1255.95,-398.87 1247.03,-211.02 1215,-158.42 1158.84,-66.17 1118.11,-52.54 1015,-20.42 939.04,3.24 909.78,9.35 836,-20.42 726.91,-64.43 637.86,-177.89 597.25,-236.76"/>
<polygon fill="#000000" stroke="#000000" points="594.35,-234.8 591.61,-245.03 600.14,-238.74 594.35,-234.8"/>
<text text-anchor="middle" x="925.5" y="-134.82" font-family="Times,serif" font-size="32.00">liked_1 |</text>
<text text-anchor="middle" x="925.5" y="-99.82" font-family="Times,serif" font-size="32.00"> destroyed_1 |</text>
<text text-anchor="middle" x="925.5" y="-64.82" font-family="Times,serif" font-size="32.00"> hugged_1</text>
<text text-anchor="middle" x="925.5" y="-29.82" font-family="Times,serif" font-size="32.00">=d *k =d perf</text>
</g>
<!-- v&#45;&gt;t -->
<g id="edge10" class="edge">
<title>v&#45;&gt;t</title>
<path fill="none" stroke="#000000" d="M221.46,-575.42C182.35,-575.42 108.32,-575.42 64.05,-575.42"/>
<polygon fill="#000000" stroke="#000000" points="64.01,-571.92 54.01,-575.42 64.01,-578.92 64.01,-571.92"/>
<text text-anchor="middle" x="119" y="-654.82" font-family="Times,serif" font-size="32.00">will |</text>
<text text-anchor="middle" x="119" y="-619.82" font-family="Times,serif" font-size="32.00"> would</text>
<text text-anchor="middle" x="119" y="-584.82" font-family="Times,serif" font-size="32.00">=v +k t</text>
</g>
<!-- prog&#45;&gt;t -->
<g id="edge13" class="edge">
<title>prog&#45;&gt;t</title>
<path fill="none" stroke="#000000" d="M879.42,-455.54C779.2,-424.7 531,-360.76 331,-411.42 221.97,-439.03 109.64,-514.56 57.68,-552.71"/>
<polygon fill="#000000" stroke="#000000" points="55.52,-549.96 49.57,-558.72 59.69,-555.58 55.52,-549.96"/>
<text text-anchor="middle" x="399" y="-490.82" font-family="Times,serif" font-size="32.00">is |</text>
<text text-anchor="middle" x="399" y="-455.82" font-family="Times,serif" font-size="32.00"> was</text>
<text text-anchor="middle" x="399" y="-420.82" font-family="Times,serif" font-size="32.00">=prog +k t</text>
</g>
<!-- prog&#45;&gt;v -->
<g id="edge14" class="edge">
<title>prog&#45;&gt;v</title>
<path fill="none" stroke="#000000" d="M873.42,-473.41C791.14,-478.77 624.39,-491.79 485,-516.42 412.84,-529.17 330.08,-551.81 284.4,-565.03"/>
<polygon fill="#000000" stroke="#000000" points="283.31,-561.7 274.69,-567.86 285.27,-568.42 283.31,-561.7"/>
<text text-anchor="middle" x="572.5" y="-560.82" font-family="Times,serif" font-size="32.00">be</text>
<text text-anchor="middle" x="572.5" y="-525.82" font-family="Times,serif" font-size="32.00">=prog v</text>
</g>
<!-- prog&#45;&gt;perf -->
<g id="edge15" class="edge">
<title>prog&#45;&gt;perf</title>
<path fill="none" stroke="#000000" d="M878.31,-457.04C862.63,-450.29 846.46,-440.45 836,-426.42 807.97,-388.8 850.73,-356.02 818,-322.42 769.66,-272.78 686.21,-266.06 630.43,-267.99"/>
<polygon fill="#000000" stroke="#000000" points="630.19,-264.5 620.35,-268.44 630.5,-271.49 630.19,-264.5"/>
<text text-anchor="middle" x="748" y="-366.82" font-family="Times,serif" font-size="32.00">been</text>
<text text-anchor="middle" x="748" y="-331.82" font-family="Times,serif" font-size="32.00">=prog perf</text>
</g>
<!-- perf&#45;&gt;t -->
<g id="edge11" class="edge">
<title>perf&#45;&gt;t</title>
<path fill="none" stroke="#000000" d="M526.05,-265.14C451.36,-253.66 299.43,-239.34 184,-287.42 121.01,-313.65 106.31,-333.44 72,-392.42 46.17,-436.82 35.47,-495.71 31.06,-534.54"/>
<polygon fill="#000000" stroke="#000000" points="27.53,-534.62 29.98,-544.93 34.5,-535.35 27.53,-534.62"/>
<text text-anchor="middle" x="248.5" y="-366.82" font-family="Times,serif" font-size="32.00">has |</text>
<text text-anchor="middle" x="248.5" y="-331.82" font-family="Times,serif" font-size="32.00"> had</text>
<text text-anchor="middle" x="248.5" y="-296.82" font-family="Times,serif" font-size="32.00">=perf +k t</text>
</g>
<!-- perf&#45;&gt;v -->
<g id="edge12" class="edge">
<title>perf&#45;&gt;v</title>
<path fill="none" stroke="#000000" d="M525.45,-279.96C457.65,-289.79 338.14,-307.89 331,-314.42 307.92,-335.51 321.89,-352.44 313,-382.42 296.89,-436.74 275.99,-498.89 262.66,-537.65"/>
<polygon fill="#000000" stroke="#000000" points="259.23,-536.86 259.28,-547.45 265.85,-539.14 259.23,-536.86"/>
<text text-anchor="middle" x="399" y="-358.82" font-family="Times,serif" font-size="32.00">have</text>
<text text-anchor="middle" x="399" y="-323.82" font-family="Times,serif" font-size="32.00">=perf v</text>
</g>
</g>
</svg>
