<?xml version="1.0" encoding="UTF-8" standalone="no"?>
<!DOCTYPE svg PUBLIC "-//W3C//DTD SVG 1.1//EN"
 "http://www.w3.org/Graphics/SVG/1.1/DTD/svg11.dtd">
<!-- Generated by graphviz version 2.47.1 (20210417.1919)
 -->
<!-- Title: G Pages: 1 -->
<svg width="2462pt" height="2033pt"
 viewBox="0.00 0.00 2461.69 2033.32" xmlns="http://www.w3.org/2000/svg" xmlns:xlink="http://www.w3.org/1999/xlink">
<g id="graph0" class="graph" transform="scale(1 1) rotate(0) translate(4 2029.32)">
<title>G</title>
<polygon fill="white" stroke="transparent" points="-4,4 -4,-2029.32 2457.69,-2029.32 2457.69,4 -4,4"/>
<text text-anchor="middle" x="1226.84" y="-13.4" font-family="Times,serif" font-size="32.00">original</text>
<!-- t -->
<g id="node1" class="node">
<title>t</title>
<ellipse fill="lightgray" stroke="black" cx="27" cy="-976.32" rx="27" ry="30.31"/>
<text text-anchor="middle" x="27" y="-968.22" font-family="Times,serif" font-size="32.00">t</text>
</g>
<!-- z0 -->
<g id="node2" class="node">
<title>z0</title>
<ellipse fill="none" stroke="black" stroke-dasharray="5,2" cx="2426.69" cy="-829.32" rx="27" ry="18"/>
</g>
<!-- da -->
<g id="node3" class="node">
<title>da</title>
<ellipse fill="none" stroke="black" cx="2190.36" cy="-829.32" rx="33.47" ry="30.31"/>
<text text-anchor="middle" x="2190.36" y="-821.22" font-family="Times,serif" font-size="32.00">da</text>
</g>
<!-- z0&#45;&gt;da -->
<g id="edge1" class="edge">
<title>z0&#45;&gt;da</title>
<path fill="none" stroke="#000000" d="M2399.26,-829.32C2359.01,-829.32 2281.93,-829.32 2233.78,-829.32"/>
<polygon fill="#000000" stroke="#000000" points="2233.67,-825.82 2223.67,-829.32 2233.67,-832.82 2233.67,-825.82"/>
<text text-anchor="middle" x="2321.19" y="-908.72" font-family="Times,serif" font-size="32.00">Mary |</text>
<text text-anchor="middle" x="2321.19" y="-873.72" font-family="Times,serif" font-size="32.00"> John</text>
<text text-anchor="middle" x="2321.19" y="-838.72" font-family="Times,serif" font-size="32.00">da &#45;k</text>
</g>
<!-- z1 -->
<g id="node4" class="node">
<title>z1</title>
<ellipse fill="none" stroke="black" stroke-dasharray="5,2" cx="2426.69" cy="-957.32" rx="27" ry="18"/>
</g>
<!-- poss -->
<g id="node5" class="node">
<title>poss</title>
<ellipse fill="none" stroke="black" cx="2190.36" cy="-957.32" rx="52.15" ry="30.31"/>
<text text-anchor="middle" x="2190.36" y="-949.22" font-family="Times,serif" font-size="32.00">poss</text>
</g>
<!-- z1&#45;&gt;poss -->
<g id="edge2" class="edge">
<title>z1&#45;&gt;poss</title>
<path fill="none" stroke="#000000" d="M2399.26,-957.32C2364.03,-957.32 2300.58,-957.32 2253.01,-957.32"/>
<polygon fill="#000000" stroke="#000000" points="2252.81,-953.82 2242.81,-957.32 2252.81,-960.82 2252.81,-953.82"/>
<text text-anchor="middle" x="2321.19" y="-1036.72" font-family="Times,serif" font-size="32.00">Mary&#39;s |</text>
<text text-anchor="middle" x="2321.19" y="-1001.72" font-family="Times,serif" font-size="32.00"> John&#39;s</text>
<text text-anchor="middle" x="2321.19" y="-966.72" font-family="Times,serif" font-size="32.00">poss</text>
</g>
<!-- z2 -->
<g id="node6" class="node">
<title>z2</title>
<ellipse fill="none" stroke="black" stroke-dasharray="5,2" cx="2426.69" cy="-736.32" rx="27" ry="18"/>
</g>
<!-- d -->
<g id="node7" class="node">
<title>d</title>
<ellipse fill="none" stroke="black" cx="2190.36" cy="-736.32" rx="27" ry="30.31"/>
<text text-anchor="middle" x="2190.36" y="-728.22" font-family="Times,serif" font-size="32.00">d</text>
</g>
<!-- z2&#45;&gt;d -->
<g id="edge3" class="edge">
<title>z2&#45;&gt;d</title>
<path fill="none" stroke="#000000" d="M2399.26,-736.32C2357.31,-736.32 2275.37,-736.32 2227.85,-736.32"/>
<polygon fill="#000000" stroke="#000000" points="2227.69,-732.82 2217.69,-736.32 2227.69,-739.82 2227.69,-732.82"/>
<text text-anchor="middle" x="2321.19" y="-780.72" font-family="Times,serif" font-size="32.00">the&#45;cause</text>
<text text-anchor="middle" x="2321.19" y="-745.72" font-family="Times,serif" font-size="32.00">d &#45;k</text>
</g>
<!-- d&#45;&gt;t -->
<g id="edge35" class="edge">
<title>d&#45;&gt;t</title>
<path fill="none" stroke="#000000" d="M2167.44,-752.79C2156.47,-762.4 2144.23,-775.53 2138.04,-790.32 2114.76,-845.9 2147.55,-1278.71 2120.04,-1332.32 2040.79,-1486.7 1984.05,-1570.32 1810.52,-1570.32 1810.52,-1570.32 1810.52,-1570.32 247.5,-1570.32 130.57,-1570.32 119.7,-1481.08 72,-1374.32 43.73,-1311.04 32.8,-1104.89 29.36,-1016.81"/>
<polygon fill="#000000" stroke="#000000" points="32.85,-1016.53 28.97,-1006.67 25.85,-1016.8 32.85,-1016.53"/>
<text text-anchor="middle" x="969" y="-1999.72" font-family="Times,serif" font-size="32.00">fears |</text>
<text text-anchor="middle" x="969" y="-1964.72" font-family="Times,serif" font-size="32.00"> feard |</text>
<text text-anchor="middle" x="969" y="-1929.72" font-family="Times,serif" font-size="32.00"> neglects |</text>
<text text-anchor="middle" x="969" y="-1894.72" font-family="Times,serif" font-size="32.00"> neglectd |</text>
<text text-anchor="middle" x="969" y="-1859.72" font-family="Times,serif" font-size="32.00"> scorns |</text>
<text text-anchor="middle" x="969" y="-1824.72" font-family="Times,serif" font-size="32.00"> scornd |</text>
<text text-anchor="middle" x="969" y="-1789.72" font-family="Times,serif" font-size="32.00"> respects |</text>
<text text-anchor="middle" x="969" y="-1754.72" font-family="Times,serif" font-size="32.00"> respectd |</text>
<text text-anchor="middle" x="969" y="-1719.72" font-family="Times,serif" font-size="32.00"> disdains |</text>
<text text-anchor="middle" x="969" y="-1684.72" font-family="Times,serif" font-size="32.00"> disdaind |</text>
<text text-anchor="middle" x="969" y="-1649.72" font-family="Times,serif" font-size="32.00"> doubts |</text>
<text text-anchor="middle" x="969" y="-1614.72" font-family="Times,serif" font-size="32.00"> doubtd</text>
<text text-anchor="middle" x="969" y="-1579.72" font-family="Times,serif" font-size="32.00">=d *k =da +k t</text>
</g>
<!-- for -->
<g id="node8" class="node">
<title>for</title>
<ellipse fill="none" stroke="black" cx="1809.52" cy="-1232.32" rx="37.45" ry="30.31"/>
<text text-anchor="middle" x="1809.52" y="-1224.22" font-family="Times,serif" font-size="32.00">for</text>
</g>
<!-- d&#45;&gt;for -->
<g id="edge4" class="edge">
<title>d&#45;&gt;for</title>
<path fill="none" stroke="#000000" d="M2167.5,-752.81C2156.54,-762.43 2144.31,-775.56 2138.04,-790.32 2119.91,-833.01 2152.21,-1173.92 2120.04,-1207.32 2051.65,-1278.32 1923.03,-1260.65 1855.13,-1244.75"/>
<polygon fill="#000000" stroke="#000000" points="1855.71,-1241.29 1845.16,-1242.33 1854.05,-1248.09 1855.71,-1241.29"/>
<text text-anchor="middle" x="2004.54" y="-1302.72" font-family="Times,serif" font-size="32.00">for</text>
<text text-anchor="middle" x="2004.54" y="-1267.72" font-family="Times,serif" font-size="32.00">=d *k for</text>
</g>
<!-- of -->
<g id="node9" class="node">
<title>of</title>
<ellipse fill="none" stroke="black" cx="1809.52" cy="-690.32" rx="30.31" ry="30.31"/>
<text text-anchor="middle" x="1809.52" y="-682.22" font-family="Times,serif" font-size="32.00">of</text>
</g>
<!-- d&#45;&gt;of -->
<g id="edge5" class="edge">
<title>d&#45;&gt;of</title>
<path fill="none" stroke="#000000" d="M2168.5,-718.22C2155.51,-708.17 2137.91,-696.65 2120.04,-691.32 2026.51,-663.46 1909.93,-674.63 1850.06,-683.47"/>
<polygon fill="#000000" stroke="#000000" points="1849.26,-680.05 1839.9,-685.02 1850.32,-686.97 1849.26,-680.05"/>
<text text-anchor="middle" x="2004.54" y="-735.72" font-family="Times,serif" font-size="32.00">of</text>
<text text-anchor="middle" x="2004.54" y="-700.72" font-family="Times,serif" font-size="32.00">=d *k of</text>
</g>
<!-- about -->
<g id="node10" class="node">
<title>about</title>
<ellipse fill="none" stroke="black" cx="1809.52" cy="-469.32" rx="61.54" ry="30.31"/>
<text text-anchor="middle" x="1809.52" y="-461.22" font-family="Times,serif" font-size="32.00">about</text>
</g>
<!-- d&#45;&gt;about -->
<g id="edge6" class="edge">
<title>d&#45;&gt;about</title>
<path fill="none" stroke="#000000" d="M2186.05,-706C2178.43,-642.56 2157.37,-499.27 2120.04,-470.32 2049,-415.24 1938.65,-431.71 1870.69,-449.75"/>
<polygon fill="#000000" stroke="#000000" points="1869.7,-446.39 1860.98,-452.41 1871.55,-453.14 1869.7,-446.39"/>
<text text-anchor="middle" x="2004.54" y="-514.72" font-family="Times,serif" font-size="32.00">about</text>
<text text-anchor="middle" x="2004.54" y="-479.72" font-family="Times,serif" font-size="32.00">=d *k about</text>
</g>
<!-- v -->
<g id="node12" class="node">
<title>v</title>
<ellipse fill="none" stroke="black" cx="248.5" cy="-689.32" rx="27" ry="30.31"/>
<text text-anchor="middle" x="248.5" y="-681.22" font-family="Times,serif" font-size="32.00">v</text>
</g>
<!-- d&#45;&gt;v -->
<g id="edge36" class="edge">
<title>d&#45;&gt;v</title>
<path fill="none" stroke="#000000" d="M2189.55,-705.83C2189.5,-609.39 2184.01,-313.53 2120.04,-248.32 1795.97,81.97 1532.03,-60.69 1082,-168.32 900,-211.85 467.09,-420.87 331,-549.32 300.27,-578.32 277.54,-621.5 264,-652.23"/>
<polygon fill="#000000" stroke="#000000" points="260.65,-651.17 259.93,-661.74 267.09,-653.92 260.65,-651.17"/>
<text text-anchor="middle" x="1184.5" y="-387.72" font-family="Times,serif" font-size="32.00">fear |</text>
<text text-anchor="middle" x="1184.5" y="-352.72" font-family="Times,serif" font-size="32.00"> neglect |</text>
<text text-anchor="middle" x="1184.5" y="-317.72" font-family="Times,serif" font-size="32.00"> scorn |</text>
<text text-anchor="middle" x="1184.5" y="-282.72" font-family="Times,serif" font-size="32.00"> respect |</text>
<text text-anchor="middle" x="1184.5" y="-247.72" font-family="Times,serif" font-size="32.00"> disdain |</text>
<text text-anchor="middle" x="1184.5" y="-212.72" font-family="Times,serif" font-size="32.00"> doubt</text>
<text text-anchor="middle" x="1184.5" y="-177.72" font-family="Times,serif" font-size="32.00">=d *k =da v</text>
</g>
<!-- perf -->
<g id="node13" class="node">
<title>perf</title>
<ellipse fill="none" stroke="black" cx="559" cy="-906.32" rx="48.17" ry="30.31"/>
<text text-anchor="middle" x="559" y="-898.22" font-family="Times,serif" font-size="32.00">perf</text>
</g>
<!-- d&#45;&gt;perf -->
<g id="edge38" class="edge">
<title>d&#45;&gt;perf</title>
<path fill="none" stroke="#000000" d="M2167.49,-753.16C2156.68,-762.78 2144.57,-775.82 2138.04,-790.32 2119.07,-832.42 2153.16,-965.15 2120.04,-997.32 2054.97,-1060.52 1391.02,-1015.54 1305,-1044.32 1295.88,-1047.37 1296.2,-1053.53 1287,-1056.32 1199.8,-1082.72 1172.69,-1065.08 1082,-1056.32 887.74,-1037.57 829.99,-1050.11 651,-972.32 631.19,-963.71 611.49,-950.2 595.52,-937.65"/>
<polygon fill="#000000" stroke="#000000" points="597.5,-934.75 587.52,-931.2 593.11,-940.2 597.5,-934.75"/>
<text text-anchor="middle" x="1410.5" y="-1263.72" font-family="Times,serif" font-size="32.00">fearn |</text>
<text text-anchor="middle" x="1410.5" y="-1228.72" font-family="Times,serif" font-size="32.00"> neglectn |</text>
<text text-anchor="middle" x="1410.5" y="-1193.72" font-family="Times,serif" font-size="32.00"> scornn |</text>
<text text-anchor="middle" x="1410.5" y="-1158.72" font-family="Times,serif" font-size="32.00"> respectn |</text>
<text text-anchor="middle" x="1410.5" y="-1123.72" font-family="Times,serif" font-size="32.00"> disdainn |</text>
<text text-anchor="middle" x="1410.5" y="-1088.72" font-family="Times,serif" font-size="32.00"> doubtn</text>
<text text-anchor="middle" x="1410.5" y="-1053.72" font-family="Times,serif" font-size="32.00">=d *k =da perf</text>
</g>
<!-- prog -->
<g id="node14" class="node">
<title>prog</title>
<ellipse fill="none" stroke="black" cx="969" cy="-653.32" rx="52.15" ry="30.31"/>
<text text-anchor="middle" x="969" y="-645.22" font-family="Times,serif" font-size="32.00">prog</text>
</g>
<!-- d&#45;&gt;prog -->
<g id="edge37" class="edge">
<title>d&#45;&gt;prog</title>
<path fill="none" stroke="#000000" d="M2190.25,-705.54C2190.42,-646.17 2183.07,-514.21 2120.04,-429.32 2001.26,-269.35 1922.66,-259.11 1730,-208.32 1645.77,-186.12 1615.94,-178.75 1534,-208.32 1399.81,-256.75 1405.34,-333.64 1287,-413.32 1201.23,-471.07 1144.45,-440.91 1082,-523.32 1059.73,-552.71 1086.45,-575.06 1064,-604.32 1053.89,-617.5 1039.22,-627.48 1024.47,-634.87"/>
<polygon fill="#000000" stroke="#000000" points="1022.89,-631.75 1015.31,-639.15 1025.85,-638.09 1022.89,-631.75"/>
<text text-anchor="middle" x="1632" y="-427.72" font-family="Times,serif" font-size="32.00">fearing |</text>
<text text-anchor="middle" x="1632" y="-392.72" font-family="Times,serif" font-size="32.00"> neglecting |</text>
<text text-anchor="middle" x="1632" y="-357.72" font-family="Times,serif" font-size="32.00"> scorning |</text>
<text text-anchor="middle" x="1632" y="-322.72" font-family="Times,serif" font-size="32.00"> respecting |</text>
<text text-anchor="middle" x="1632" y="-287.72" font-family="Times,serif" font-size="32.00"> disdaining |</text>
<text text-anchor="middle" x="1632" y="-252.72" font-family="Times,serif" font-size="32.00"> doubting</text>
<text text-anchor="middle" x="1632" y="-217.72" font-family="Times,serif" font-size="32.00">=d *k =da prog</text>
</g>
<!-- for&#45;&gt;t -->
<g id="edge17" class="edge">
<title>for&#45;&gt;t</title>
<path fill="none" stroke="#000000" d="M1793.96,-1260.07C1780.32,-1283.63 1757.86,-1316.8 1730,-1337.32 1609.06,-1426.39 1561.7,-1450.32 1411.5,-1450.32 1411.5,-1450.32 1411.5,-1450.32 247.5,-1450.32 57.33,-1450.32 31.43,-1132.26 28.28,-1017.22"/>
<polygon fill="#000000" stroke="#000000" points="31.78,-1016.97 28.05,-1007.06 24.78,-1017.13 31.78,-1016.97"/>
<text text-anchor="middle" x="753.5" y="-1529.72" font-family="Times,serif" font-size="32.00">hopes |</text>
<text text-anchor="middle" x="753.5" y="-1494.72" font-family="Times,serif" font-size="32.00"> hoped</text>
<text text-anchor="middle" x="753.5" y="-1459.72" font-family="Times,serif" font-size="32.00">=for =da +k t</text>
</g>
<!-- for&#45;&gt;d -->
<g id="edge21" class="edge">
<title>for&#45;&gt;d</title>
<path fill="none" stroke="#000000" d="M1815.2,-1202.03C1823,-1162.85 1842.67,-1095.81 1889.04,-1063.32 1931.24,-1033.76 2083.88,-1080.03 2120.04,-1043.32 2159.59,-1003.16 2115.28,-841.89 2138.04,-790.32 2143.04,-778.97 2151.5,-768.55 2160.12,-759.95"/>
<polygon fill="#000000" stroke="#000000" points="2162.76,-762.27 2167.66,-752.88 2157.97,-757.17 2162.76,-762.27"/>
<text text-anchor="middle" x="2004.54" y="-1177.72" font-family="Times,serif" font-size="32.00">hope_1 |</text>
<text text-anchor="middle" x="2004.54" y="-1142.72" font-family="Times,serif" font-size="32.00"> respect_1 |</text>
<text text-anchor="middle" x="2004.54" y="-1107.72" font-family="Times,serif" font-size="32.00"> disdain_1</text>
<text text-anchor="middle" x="2004.54" y="-1072.72" font-family="Times,serif" font-size="32.00">=for poss= d &#45;k</text>
</g>
<!-- a -->
<g id="node11" class="node">
<title>a</title>
<ellipse fill="none" stroke="black" cx="1410.5" cy="-902.32" rx="27" ry="30.31"/>
<text text-anchor="middle" x="1410.5" y="-894.22" font-family="Times,serif" font-size="32.00">a</text>
</g>
<!-- for&#45;&gt;a -->
<g id="edge22" class="edge">
<title>for&#45;&gt;a</title>
<path fill="none" stroke="#000000" d="M1778.22,-1214.99C1723.58,-1182.51 1607.41,-1107.73 1534,-1019.32 1522.83,-1005.86 1527.14,-997.81 1516,-984.32 1495.26,-959.2 1465.59,-936.84 1443.16,-921.84"/>
<polygon fill="#000000" stroke="#000000" points="1444.94,-918.81 1434.65,-916.26 1441.1,-924.67 1444.94,-918.81"/>
<text text-anchor="middle" x="1632" y="-1227.72" font-family="Times,serif" font-size="32.00">hopeful</text>
<text text-anchor="middle" x="1632" y="-1192.72" font-family="Times,serif" font-size="32.00">=for a</text>
</g>
<!-- for&#45;&gt;v -->
<g id="edge18" class="edge">
<title>for&#45;&gt;v</title>
<path fill="none" stroke="#000000" d="M1789.3,-1258.31C1775.02,-1275.45 1753.93,-1296.65 1730,-1307.32 1620.46,-1356.18 760.42,-1387.43 651,-1338.32 430.4,-1239.31 437.63,-1115.34 331,-898.32 302.54,-840.4 276.77,-769.89 262.14,-727.36"/>
<polygon fill="#000000" stroke="#000000" points="265.38,-726.02 258.84,-717.69 258.76,-728.28 265.38,-726.02"/>
<text text-anchor="middle" x="969" y="-1406.72" font-family="Times,serif" font-size="32.00">hope</text>
<text text-anchor="middle" x="969" y="-1371.72" font-family="Times,serif" font-size="32.00">=for =da v</text>
</g>
<!-- for&#45;&gt;perf -->
<g id="edge20" class="edge">
<title>for&#45;&gt;perf</title>
<path fill="none" stroke="#000000" d="M1776.86,-1247.42C1694.52,-1284.38 1468.72,-1370.9 1305,-1293.32 1293.58,-1287.91 1297.59,-1278.2 1287,-1271.32 1041.24,-1111.69 855.25,-1307.47 651,-1097.32 627.41,-1073.05 646.13,-1054.52 633,-1023.32 620.82,-994.36 601.94,-964.34 586.43,-941.97"/>
<polygon fill="#000000" stroke="#000000" points="589.29,-939.95 580.68,-933.78 583.57,-943.98 589.29,-939.95"/>
<text text-anchor="middle" x="1184.5" y="-1315.72" font-family="Times,serif" font-size="32.00">hopen</text>
<text text-anchor="middle" x="1184.5" y="-1280.72" font-family="Times,serif" font-size="32.00">=for =da perf</text>
</g>
<!-- for&#45;&gt;prog -->
<g id="edge19" class="edge">
<title>for&#45;&gt;prog</title>
<path fill="none" stroke="#000000" d="M1806.1,-1201.99C1800.74,-1155.63 1783.68,-1067.49 1730,-1019.32 1663.17,-959.35 1592.77,-1038.21 1534,-970.32 1482.24,-910.54 1564.02,-856.14 1516,-793.32 1456.98,-716.11 1160.87,-674.43 1031.1,-659.63"/>
<polygon fill="#000000" stroke="#000000" points="1031.26,-656.13 1020.93,-658.49 1030.47,-663.08 1031.26,-656.13"/>
<text text-anchor="middle" x="1410.5" y="-837.72" font-family="Times,serif" font-size="32.00">hopeing</text>
<text text-anchor="middle" x="1410.5" y="-802.72" font-family="Times,serif" font-size="32.00">=for =da prog</text>
</g>
<!-- of&#45;&gt;t -->
<g id="edge23" class="edge">
<title>of&#45;&gt;t</title>
<path fill="none" stroke="#000000" d="M1805.03,-720.4C1797.68,-775.63 1777.2,-895.77 1730,-985.32 1667.69,-1103.53 1600.59,-1097.46 1534,-1213.32 1521.81,-1234.52 1535.92,-1251.13 1516,-1265.32 1477.8,-1292.52 1348.83,-1281.98 1305,-1265.32 1295,-1261.52 1296.94,-1253.28 1287,-1249.32 1067.04,-1161.65 991.29,-1232.32 754.5,-1232.32 754.5,-1232.32 754.5,-1232.32 247.5,-1232.32 133.99,-1232.32 66.51,-1085.49 40.45,-1014.23"/>
<polygon fill="#000000" stroke="#000000" points="43.71,-1012.94 37.05,-1004.7 37.11,-1015.29 43.71,-1012.94"/>
<text text-anchor="middle" x="753.5" y="-1311.72" font-family="Times,serif" font-size="32.00">boasts |</text>
<text text-anchor="middle" x="753.5" y="-1276.72" font-family="Times,serif" font-size="32.00"> boastd</text>
<text text-anchor="middle" x="753.5" y="-1241.72" font-family="Times,serif" font-size="32.00">=of =da +k t</text>
</g>
<!-- of&#45;&gt;d -->
<g id="edge27" class="edge">
<title>of&#45;&gt;d</title>
<path fill="none" stroke="#000000" d="M1828.57,-714.09C1842.89,-730.83 1864.51,-751.88 1889.04,-761.32 1984.85,-798.21 2018.9,-779 2120.04,-761.32 2131.93,-759.24 2144.47,-755.3 2155.57,-751.15"/>
<polygon fill="#000000" stroke="#000000" points="2156.87,-754.4 2164.9,-747.49 2154.32,-747.88 2156.87,-754.4"/>
<text text-anchor="middle" x="2004.54" y="-967.72" font-family="Times,serif" font-size="32.00">boast_1 |</text>
<text text-anchor="middle" x="2004.54" y="-932.72" font-family="Times,serif" font-size="32.00"> fear_1 |</text>
<text text-anchor="middle" x="2004.54" y="-897.72" font-family="Times,serif" font-size="32.00"> neglect_1 |</text>
<text text-anchor="middle" x="2004.54" y="-862.72" font-family="Times,serif" font-size="32.00"> scorn_1 |</text>
<text text-anchor="middle" x="2004.54" y="-827.72" font-family="Times,serif" font-size="32.00"> doubt_1</text>
<text text-anchor="middle" x="2004.54" y="-792.72" font-family="Times,serif" font-size="32.00">=of poss= d &#45;k</text>
</g>
<!-- of&#45;&gt;a -->
<g id="edge28" class="edge">
<title>of&#45;&gt;a</title>
<path fill="none" stroke="#000000" d="M1779.51,-685.22C1716.44,-674.85 1569.62,-654.82 1534,-686.32 1509.51,-707.98 1533.13,-804.48 1516,-832.32 1499.81,-858.64 1469.59,-877.25 1445.79,-888.63"/>
<polygon fill="#000000" stroke="#000000" points="1444.03,-885.59 1436.38,-892.93 1446.93,-891.96 1444.03,-885.59"/>
<text text-anchor="middle" x="1632" y="-940.72" font-family="Times,serif" font-size="32.00">boastful |</text>
<text text-anchor="middle" x="1632" y="-905.72" font-family="Times,serif" font-size="32.00"> fearful |</text>
<text text-anchor="middle" x="1632" y="-870.72" font-family="Times,serif" font-size="32.00"> neglectful |</text>
<text text-anchor="middle" x="1632" y="-835.72" font-family="Times,serif" font-size="32.00"> scornful |</text>
<text text-anchor="middle" x="1632" y="-800.72" font-family="Times,serif" font-size="32.00"> respectful |</text>
<text text-anchor="middle" x="1632" y="-765.72" font-family="Times,serif" font-size="32.00"> disdainful |</text>
<text text-anchor="middle" x="1632" y="-730.72" font-family="Times,serif" font-size="32.00"> doubtful</text>
<text text-anchor="middle" x="1632" y="-695.72" font-family="Times,serif" font-size="32.00">=of a</text>
</g>
<!-- of&#45;&gt;v -->
<g id="edge24" class="edge">
<title>of&#45;&gt;v</title>
<path fill="none" stroke="#000000" d="M1785.12,-672.09C1770.18,-661.39 1749.92,-648.59 1730,-641.32 1688.67,-626.24 1564.94,-644.61 1534,-613.32 1490.82,-569.65 1562.17,-516.82 1516,-476.32 1419.87,-392 479.08,-629.82 284.58,-680.17"/>
<polygon fill="#000000" stroke="#000000" points="283.66,-676.79 274.86,-682.68 285.42,-683.56 283.66,-676.79"/>
<text text-anchor="middle" x="969" y="-585.72" font-family="Times,serif" font-size="32.00">boast</text>
<text text-anchor="middle" x="969" y="-550.72" font-family="Times,serif" font-size="32.00">=of =da v</text>
</g>
<!-- of&#45;&gt;perf -->
<g id="edge26" class="edge">
<title>of&#45;&gt;perf</title>
<path fill="none" stroke="#000000" d="M1804.39,-720.75C1794.87,-785.99 1769.13,-935.89 1730,-966.32 1715.39,-977.68 1082.51,-985.06 1064,-985.32 979.56,-986.52 957.8,-995.7 874,-985.32 779.94,-973.67 673.56,-943.09 611.9,-923.58"/>
<polygon fill="#000000" stroke="#000000" points="612.62,-920.13 602.03,-920.43 610.49,-926.8 612.62,-920.13"/>
<text text-anchor="middle" x="1184.5" y="-1028.72" font-family="Times,serif" font-size="32.00">boastn</text>
<text text-anchor="middle" x="1184.5" y="-993.72" font-family="Times,serif" font-size="32.00">=of =da perf</text>
</g>
<!-- of&#45;&gt;prog -->
<g id="edge25" class="edge">
<title>of&#45;&gt;prog</title>
<path fill="none" stroke="#000000" d="M1780.45,-680.59C1765.6,-675.73 1746.97,-670.1 1730,-666.32 1644.11,-647.18 1617.4,-666.38 1534,-638.32 1525.33,-635.4 1524.86,-630.62 1516,-628.32 1342.83,-583.45 1128.6,-618.22 1027.71,-639.67"/>
<polygon fill="#000000" stroke="#000000" points="1026.75,-636.3 1017.72,-641.83 1028.23,-643.14 1026.75,-636.3"/>
<text text-anchor="middle" x="1410.5" y="-672.72" font-family="Times,serif" font-size="32.00">boasting</text>
<text text-anchor="middle" x="1410.5" y="-637.72" font-family="Times,serif" font-size="32.00">=of =da prog</text>
</g>
<!-- about&#45;&gt;t -->
<g id="edge29" class="edge">
<title>about&#45;&gt;t</title>
<path fill="none" stroke="#000000" d="M1766.87,-447.06C1755.16,-441.39 1742.28,-435.67 1730,-431.32 1645.66,-401.43 1612.49,-428.28 1534,-385.32 1399.73,-311.83 1427.53,-205.99 1287,-145.32 1157.53,-89.42 1111.03,-131.32 970,-131.32 970,-131.32 970,-131.32 247.5,-131.32 79.17,-131.32 37.7,-767.41 29.67,-935.82"/>
<polygon fill="#000000" stroke="#000000" points="26.17,-935.85 29.2,-946 33.16,-936.17 26.17,-935.85"/>
<text text-anchor="middle" x="753.5" y="-210.72" font-family="Times,serif" font-size="32.00">boasts_1 |</text>
<text text-anchor="middle" x="753.5" y="-175.72" font-family="Times,serif" font-size="32.00"> boastd_1</text>
<text text-anchor="middle" x="753.5" y="-140.72" font-family="Times,serif" font-size="32.00">=about =da +k t</text>
</g>
<!-- about&#45;&gt;d -->
<g id="edge33" class="edge">
<title>about&#45;&gt;d</title>
<path fill="none" stroke="#000000" d="M1833.68,-497.6C1847.94,-512.95 1867.57,-530.7 1889.04,-540.32 1983.27,-582.57 2037.62,-503.1 2120.04,-565.32 2161.19,-596.4 2178,-656.01 2184.81,-695.98"/>
<polygon fill="#000000" stroke="#000000" points="2181.37,-696.6 2186.37,-705.94 2188.28,-695.52 2181.37,-696.6"/>
<text text-anchor="middle" x="2004.54" y="-644.72" font-family="Times,serif" font-size="32.00">boast_3 |</text>
<text text-anchor="middle" x="2004.54" y="-609.72" font-family="Times,serif" font-size="32.00"> doubt_2</text>
<text text-anchor="middle" x="2004.54" y="-574.72" font-family="Times,serif" font-size="32.00">=about poss= d &#45;k</text>
</g>
<!-- about&#45;&gt;a -->
<g id="edge34" class="edge">
<title>about&#45;&gt;a</title>
<path fill="none" stroke="#000000" d="M1752.15,-480.53C1679.96,-496.12 1560.93,-526.39 1534,-561.32 1497.14,-609.12 1546.17,-780.05 1516,-832.32 1500.49,-859.2 1469.99,-877.81 1445.92,-889.05"/>
<polygon fill="#000000" stroke="#000000" points="1444.45,-885.87 1436.73,-893.14 1447.29,-892.27 1444.45,-885.87"/>
<text text-anchor="middle" x="1632" y="-640.72" font-family="Times,serif" font-size="32.00">boastful_1 |</text>
<text text-anchor="middle" x="1632" y="-605.72" font-family="Times,serif" font-size="32.00"> doubtful_1</text>
<text text-anchor="middle" x="1632" y="-570.72" font-family="Times,serif" font-size="32.00">=about a</text>
</g>
<!-- about&#45;&gt;v -->
<g id="edge30" class="edge">
<title>about&#45;&gt;v</title>
<path fill="none" stroke="#000000" d="M1753.37,-456.87C1745.56,-455.46 1737.6,-454.21 1730,-453.32 1541.02,-431.1 1061.3,-397.77 874,-431.32 620.7,-476.7 558.97,-512.94 331,-632.32 312.97,-641.76 294.27,-654.59 279.33,-665.69"/>
<polygon fill="#000000" stroke="#000000" points="276.87,-663.16 271.01,-671.99 281.09,-668.75 276.87,-663.16"/>
<text text-anchor="middle" x="969" y="-475.72" font-family="Times,serif" font-size="32.00">boast_2</text>
<text text-anchor="middle" x="969" y="-440.72" font-family="Times,serif" font-size="32.00">=about =da v</text>
</g>
<!-- about&#45;&gt;perf -->
<g id="edge32" class="edge">
<title>about&#45;&gt;perf</title>
<path fill="none" stroke="#000000" d="M1748.57,-464.67C1676.87,-460.56 1562.87,-459.09 1534,-488.32 1484.57,-538.36 1565.15,-754 1516,-804.32 1482.2,-838.93 1130.12,-834.3 1082,-839.32 911.9,-857.09 711.48,-884.69 616.01,-898.25"/>
<polygon fill="#000000" stroke="#000000" points="615.41,-894.8 606,-899.67 616.39,-901.73 615.41,-894.8"/>
<text text-anchor="middle" x="1184.5" y="-883.72" font-family="Times,serif" font-size="32.00">boastn_1</text>
<text text-anchor="middle" x="1184.5" y="-848.72" font-family="Times,serif" font-size="32.00">=about =da perf</text>
</g>
<!-- about&#45;&gt;prog -->
<g id="edge31" class="edge">
<title>about&#45;&gt;prog</title>
<path fill="none" stroke="#000000" d="M1749.52,-462.28C1693.68,-456.98 1607.67,-452.31 1534,-463.32 1336.46,-492.84 1115.65,-586.12 1019.36,-630.03"/>
<polygon fill="#000000" stroke="#000000" points="1017.79,-626.9 1010.16,-634.25 1020.71,-633.26 1017.79,-626.9"/>
<text text-anchor="middle" x="1410.5" y="-563.72" font-family="Times,serif" font-size="32.00">boasting_1</text>
<text text-anchor="middle" x="1410.5" y="-528.72" font-family="Times,serif" font-size="32.00">=about =da prog</text>
</g>
<!-- a&#45;&gt;t -->
<g id="edge7" class="edge">
<title>a&#45;&gt;t</title>
<path fill="none" stroke="#000000" d="M1386.11,-915.47C1362.69,-929.71 1327.04,-954.44 1305,-984.32 1291.72,-1002.32 1305.15,-1018.24 1287,-1031.32 1229.8,-1072.55 1040.51,-1045.32 970,-1045.32 970,-1045.32 970,-1045.32 247.5,-1045.32 178.57,-1045.32 102.83,-1013.97 60.79,-993.53"/>
<polygon fill="#000000" stroke="#000000" points="62.11,-990.28 51.59,-988.98 59,-996.55 62.11,-990.28"/>
<text text-anchor="middle" x="559" y="-1124.72" font-family="Times,serif" font-size="32.00">bes |</text>
<text text-anchor="middle" x="559" y="-1089.72" font-family="Times,serif" font-size="32.00"> bed</text>
<text text-anchor="middle" x="559" y="-1054.72" font-family="Times,serif" font-size="32.00">=a =da +k t</text>
</g>
<!-- a&#45;&gt;v -->
<g id="edge8" class="edge">
<title>a&#45;&gt;v</title>
<path fill="none" stroke="#000000" d="M1383.45,-902.89C1327.8,-903.75 1193.32,-903.85 1082,-888.32 979.72,-874.05 956.62,-857.59 856,-834.32 691.38,-796.24 649.17,-791.28 485,-751.32 413.58,-733.94 330.56,-711.57 284.62,-699.01"/>
<polygon fill="#000000" stroke="#000000" points="285.43,-695.6 274.86,-696.33 283.58,-702.35 285.43,-695.6"/>
<text text-anchor="middle" x="753.5" y="-878.72" font-family="Times,serif" font-size="32.00">be</text>
<text text-anchor="middle" x="753.5" y="-843.72" font-family="Times,serif" font-size="32.00">=a =da v</text>
</g>
<!-- a&#45;&gt;perf -->
<g id="edge9" class="edge">
<title>a&#45;&gt;perf</title>
<path fill="none" stroke="#000000" d="M1383.26,-905.36C1358.49,-908.07 1320.28,-911.83 1287,-913.32 1157.09,-919.14 765.31,-911.06 617.38,-907.68"/>
<polygon fill="#000000" stroke="#000000" points="617.24,-904.18 607.16,-907.45 617.08,-911.17 617.24,-904.18"/>
<text text-anchor="middle" x="969" y="-958.72" font-family="Times,serif" font-size="32.00">ben</text>
<text text-anchor="middle" x="969" y="-923.72" font-family="Times,serif" font-size="32.00">=a =da perf</text>
</g>
<!-- a&#45;&gt;prog -->
<g id="edge10" class="edge">
<title>a&#45;&gt;prog</title>
<path fill="none" stroke="#000000" d="M1387.7,-885.66C1363.86,-866.28 1326.22,-832.08 1305,-794.32 1289.47,-766.69 1310.96,-746.07 1287,-725.32 1252.35,-695.31 1126.28,-714.2 1082,-702.32 1060.16,-696.46 1037.09,-686.99 1017.61,-677.93"/>
<polygon fill="#000000" stroke="#000000" points="1018.88,-674.66 1008.35,-673.53 1015.88,-680.98 1018.88,-674.66"/>
<text text-anchor="middle" x="1184.5" y="-769.72" font-family="Times,serif" font-size="32.00">being</text>
<text text-anchor="middle" x="1184.5" y="-734.72" font-family="Times,serif" font-size="32.00">=a =da prog</text>
</g>
<!-- v&#45;&gt;t -->
<g id="edge11" class="edge">
<title>v&#45;&gt;t</title>
<path fill="none" stroke="#000000" d="M222.2,-696.54C183.6,-708.91 110.43,-737.92 72,-789.32 39.94,-832.2 30.79,-894.83 28.42,-935.58"/>
<polygon fill="#000000" stroke="#000000" points="24.92,-935.55 27.94,-945.7 31.91,-935.88 24.92,-935.55"/>
<text text-anchor="middle" x="119" y="-868.72" font-family="Times,serif" font-size="32.00">wills |</text>
<text text-anchor="middle" x="119" y="-833.72" font-family="Times,serif" font-size="32.00"> willd</text>
<text text-anchor="middle" x="119" y="-798.72" font-family="Times,serif" font-size="32.00">=v +k t</text>
</g>
<!-- perf&#45;&gt;t -->
<g id="edge12" class="edge">
<title>perf&#45;&gt;t</title>
<path fill="none" stroke="#000000" d="M510.9,-904.99C439.55,-903.85 300.07,-904.98 184,-926.32 140.97,-934.23 93.31,-950.69 62.14,-962.57"/>
<polygon fill="#000000" stroke="#000000" points="60.69,-959.38 52.62,-966.25 63.21,-965.91 60.69,-959.38"/>
<text text-anchor="middle" x="248.5" y="-1005.72" font-family="Times,serif" font-size="32.00">haves |</text>
<text text-anchor="middle" x="248.5" y="-970.72" font-family="Times,serif" font-size="32.00"> haved</text>
<text text-anchor="middle" x="248.5" y="-935.72" font-family="Times,serif" font-size="32.00">=perf +k t</text>
</g>
<!-- perf&#45;&gt;v -->
<g id="edge13" class="edge">
<title>perf&#45;&gt;v</title>
<path fill="none" stroke="#000000" d="M535.72,-879.51C518.82,-861.01 493.95,-837.47 467,-824.32 411.84,-797.4 383.13,-832.72 331,-800.32 302.06,-782.34 280.09,-749.98 266.29,-724.83"/>
<polygon fill="#000000" stroke="#000000" points="269.35,-723.12 261.58,-715.92 263.16,-726.4 269.35,-723.12"/>
<text text-anchor="middle" x="399" y="-868.72" font-family="Times,serif" font-size="32.00">have</text>
<text text-anchor="middle" x="399" y="-833.72" font-family="Times,serif" font-size="32.00">=perf v</text>
</g>
<!-- prog&#45;&gt;t -->
<g id="edge14" class="edge">
<title>prog&#45;&gt;t</title>
<path fill="none" stroke="#000000" d="M924.84,-636.66C821.05,-598.97 549.86,-514.62 331,-570.32 202.73,-602.96 146.73,-608.08 72,-717.32 48.15,-752.18 35.78,-872.14 30.76,-935.84"/>
<polygon fill="#000000" stroke="#000000" points="27.26,-935.69 29.99,-945.93 34.24,-936.22 27.26,-935.69"/>
<text text-anchor="middle" x="399" y="-649.72" font-family="Times,serif" font-size="32.00">bes_1 |</text>
<text text-anchor="middle" x="399" y="-614.72" font-family="Times,serif" font-size="32.00"> bed_1</text>
<text text-anchor="middle" x="399" y="-579.72" font-family="Times,serif" font-size="32.00">=prog +k t</text>
</g>
<!-- prog&#45;&gt;v -->
<g id="edge15" class="edge">
<title>prog&#45;&gt;v</title>
<path fill="none" stroke="#000000" d="M916.62,-655.9C778.95,-662.79 404.25,-681.57 285.86,-687.5"/>
<polygon fill="#000000" stroke="#000000" points="285.35,-684.02 275.54,-688.02 285.7,-691.01 285.35,-684.02"/>
<text text-anchor="middle" x="559" y="-721.72" font-family="Times,serif" font-size="32.00">be_1</text>
<text text-anchor="middle" x="559" y="-686.72" font-family="Times,serif" font-size="32.00">=prog v</text>
</g>
<!-- prog&#45;&gt;perf -->
<g id="edge16" class="edge">
<title>prog&#45;&gt;perf</title>
<path fill="none" stroke="#000000" d="M918.42,-661.11C898.97,-664.1 876.45,-667.47 856,-670.32 810.52,-676.66 687.72,-668.75 651,-696.32 643.68,-701.81 599.76,-808.17 575.72,-867.37"/>
<polygon fill="#000000" stroke="#000000" points="572.41,-866.21 571.89,-876.79 578.9,-868.84 572.41,-866.21"/>
<text text-anchor="middle" x="753.5" y="-740.72" font-family="Times,serif" font-size="32.00">ben_1</text>
<text text-anchor="middle" x="753.5" y="-705.72" font-family="Times,serif" font-size="32.00">=prog perf</text>
</g>
</g>
</svg>
