<?xml version="1.0" encoding="UTF-8" standalone="no"?>
<!DOCTYPE svg PUBLIC "-//W3C//DTD SVG 1.1//EN"
 "http://www.w3.org/Graphics/SVG/1.1/DTD/svg11.dtd">
<!-- Generated by graphviz version 2.47.1 (20210417.1919)
 -->
<!-- Title: G Pages: 1 -->
<svg width="3126pt" height="2354pt"
 viewBox="0.00 0.00 3126.00 2354.00" xmlns="http://www.w3.org/2000/svg" xmlns:xlink="http://www.w3.org/1999/xlink">
<g id="graph0" class="graph" transform="scale(1 1) rotate(0) translate(4 2350)">
<title>G</title>
<polygon fill="white" stroke="transparent" points="-4,4 -4,-2350 3122,-2350 3122,4 -4,4"/>
<text text-anchor="middle" x="1559" y="-48.4" font-family="Times,serif" font-size="32.00">decomposition: bes =a =da +k t, hopes =for =da +k t, boasts =of =da +k t, boasts =about =da +k t, neglects =d *k =da +k t, respects =d *k =da +k t, doubts =d *k =da +k t, fears =d *k =da +k t, scorns =d *k =da +k t, disdains =d *k =da +k t</text>
<text text-anchor="middle" x="1559" y="-13.4" font-family="Times,serif" font-size="32.00">decomposition: bed =a =da +k t, hoped =for =da +k t, boastd =of =da +k t, boastd =about =da +k t, neglectd =d *k =da +k t, respectd =d *k =da +k t, doubtd =d *k =da +k t, feard =d *k =da +k t, scornd =d *k =da +k t, disdaind =d *k =da +k t</text>
<!-- t -->
<g id="node1" class="node">
<title>t</title>
<ellipse fill="lightgray" stroke="black" cx="412.16" cy="-1095" rx="27" ry="30.31"/>
<text text-anchor="middle" x="412.16" y="-1086.9" font-family="Times,serif" font-size="32.00">t</text>
</g>
<!-- z0 -->
<g id="node2" class="node">
<title>z0</title>
<ellipse fill="none" stroke="black" stroke-dasharray="5,2" cx="2705.84" cy="-1171" rx="27" ry="18"/>
</g>
<!-- da -->
<g id="node3" class="node">
<title>da</title>
<ellipse fill="none" stroke="black" cx="2469.52" cy="-1171" rx="33.47" ry="30.31"/>
<text text-anchor="middle" x="2469.52" y="-1162.9" font-family="Times,serif" font-size="32.00">da</text>
</g>
<!-- z0&#45;&gt;da -->
<g id="edge1" class="edge">
<title>z0&#45;&gt;da</title>
<path fill="none" stroke="#000000" d="M2678.42,-1171C2638.16,-1171 2561.09,-1171 2512.93,-1171"/>
<polygon fill="#000000" stroke="#000000" points="2512.83,-1167.5 2502.83,-1171 2512.83,-1174.5 2512.83,-1167.5"/>
<text text-anchor="middle" x="2600.34" y="-1250.4" font-family="Times,serif" font-size="32.00">Mary |</text>
<text text-anchor="middle" x="2600.34" y="-1215.4" font-family="Times,serif" font-size="32.00"> John</text>
<text text-anchor="middle" x="2600.34" y="-1180.4" font-family="Times,serif" font-size="32.00">da &#45;k</text>
</g>
<!-- z1 -->
<g id="node4" class="node">
<title>z1</title>
<ellipse fill="none" stroke="black" stroke-dasharray="5,2" cx="2705.84" cy="-1299" rx="27" ry="18"/>
</g>
<!-- poss -->
<g id="node5" class="node">
<title>poss</title>
<ellipse fill="none" stroke="black" cx="2469.52" cy="-1299" rx="52.15" ry="30.31"/>
<text text-anchor="middle" x="2469.52" y="-1290.9" font-family="Times,serif" font-size="32.00">poss</text>
</g>
<!-- z1&#45;&gt;poss -->
<g id="edge2" class="edge">
<title>z1&#45;&gt;poss</title>
<path fill="none" stroke="#000000" d="M2678.42,-1299C2643.18,-1299 2579.73,-1299 2532.16,-1299"/>
<polygon fill="#000000" stroke="#000000" points="2531.96,-1295.5 2521.96,-1299 2531.96,-1302.5 2531.96,-1295.5"/>
<text text-anchor="middle" x="2600.34" y="-1378.4" font-family="Times,serif" font-size="32.00">Mary&#39;s |</text>
<text text-anchor="middle" x="2600.34" y="-1343.4" font-family="Times,serif" font-size="32.00"> John&#39;s</text>
<text text-anchor="middle" x="2600.34" y="-1308.4" font-family="Times,serif" font-size="32.00">poss</text>
</g>
<!-- z2 -->
<g id="node6" class="node">
<title>z2</title>
<ellipse fill="none" stroke="black" stroke-dasharray="5,2" cx="2705.84" cy="-1078" rx="27" ry="18"/>
</g>
<!-- d -->
<g id="node7" class="node">
<title>d</title>
<ellipse fill="none" stroke="black" cx="2469.52" cy="-1078" rx="27" ry="30.31"/>
<text text-anchor="middle" x="2469.52" y="-1069.9" font-family="Times,serif" font-size="32.00">d</text>
</g>
<!-- z2&#45;&gt;d -->
<g id="edge3" class="edge">
<title>z2&#45;&gt;d</title>
<path fill="none" stroke="#000000" d="M2678.42,-1078C2636.47,-1078 2554.53,-1078 2507.01,-1078"/>
<polygon fill="#000000" stroke="#000000" points="2506.85,-1074.5 2496.85,-1078 2506.85,-1081.5 2506.85,-1074.5"/>
<text text-anchor="middle" x="2600.34" y="-1122.4" font-family="Times,serif" font-size="32.00">the&#45;cause</text>
<text text-anchor="middle" x="2600.34" y="-1087.4" font-family="Times,serif" font-size="32.00">d &#45;k</text>
</g>
<!-- for -->
<g id="node8" class="node">
<title>for</title>
<ellipse fill="none" stroke="black" cx="2088.67" cy="-1010" rx="37.45" ry="30.31"/>
<text text-anchor="middle" x="2088.67" y="-1001.9" font-family="Times,serif" font-size="32.00">for</text>
</g>
<!-- d&#45;&gt;for -->
<g id="edge4" class="edge">
<title>d&#45;&gt;for</title>
<path fill="none" stroke="#000000" d="M2442.22,-1077.6C2378.8,-1076.38 2218.99,-1071.8 2168.19,-1056 2153.36,-1051.39 2138.34,-1043.53 2125.46,-1035.61"/>
<polygon fill="#000000" stroke="#000000" points="2127.23,-1032.58 2116.92,-1030.15 2123.46,-1038.48 2127.23,-1032.58"/>
<text text-anchor="middle" x="2283.69" y="-1121.4" font-family="Times,serif" font-size="32.00">for</text>
<text text-anchor="middle" x="2283.69" y="-1086.4" font-family="Times,serif" font-size="32.00">=d *k for</text>
</g>
<!-- of -->
<g id="node9" class="node">
<title>of</title>
<ellipse fill="none" stroke="black" cx="2088.67" cy="-1431" rx="30.31" ry="30.31"/>
<text text-anchor="middle" x="2088.67" y="-1422.9" font-family="Times,serif" font-size="32.00">of</text>
</g>
<!-- d&#45;&gt;of -->
<g id="edge5" class="edge">
<title>d&#45;&gt;of</title>
<path fill="none" stroke="#000000" d="M2449.33,-1098.33C2429.93,-1118.76 2402.38,-1147.47 2399.19,-1149 2352.7,-1171.36 2208.05,-1139.25 2168.19,-1172 2102.92,-1225.64 2090.6,-1331.7 2089.05,-1390.08"/>
<polygon fill="#000000" stroke="#000000" points="2085.55,-1390.35 2088.88,-1400.41 2092.55,-1390.47 2085.55,-1390.35"/>
<text text-anchor="middle" x="2283.69" y="-1216.4" font-family="Times,serif" font-size="32.00">of</text>
<text text-anchor="middle" x="2283.69" y="-1181.4" font-family="Times,serif" font-size="32.00">=d *k of</text>
</g>
<!-- about -->
<g id="node10" class="node">
<title>about</title>
<ellipse fill="none" stroke="black" cx="2088.67" cy="-720" rx="61.54" ry="30.31"/>
<text text-anchor="middle" x="2088.67" y="-711.9" font-family="Times,serif" font-size="32.00">about</text>
</g>
<!-- d&#45;&gt;about -->
<g id="edge6" class="edge">
<title>d&#45;&gt;about</title>
<path fill="none" stroke="#000000" d="M2464.36,-1048.11C2455.43,-988.43 2432.48,-857.73 2399.19,-829 2320.86,-761.39 2260.92,-845.92 2168.19,-800 2148.14,-790.07 2130.27,-772.93 2116.66,-757.05"/>
<polygon fill="#000000" stroke="#000000" points="2119,-754.39 2109.94,-748.91 2113.6,-758.85 2119,-754.39"/>
<text text-anchor="middle" x="2283.69" y="-873.4" font-family="Times,serif" font-size="32.00">about</text>
<text text-anchor="middle" x="2283.69" y="-838.4" font-family="Times,serif" font-size="32.00">=d *k about</text>
</g>
<!-- 0 -->
<g id="node11" class="node">
<title>0</title>
<ellipse fill="none" stroke="black" cx="1258.66" cy="-1216" rx="27" ry="30.31"/>
<text text-anchor="middle" x="1258.66" y="-1207.9" font-family="Times,serif" font-size="32.00">0</text>
</g>
<!-- d&#45;&gt;0 -->
<g id="edge41" class="edge">
<title>d&#45;&gt;0</title>
<path fill="none" stroke="#00b9f1" stroke-width="2" d="M2446.71,-1094.51C2435.77,-1104.14 2423.53,-1117.27 2417.19,-1132 2402.11,-1167.06 2426.3,-1448.14 2399.19,-1475 2358.21,-1515.59 1408.07,-1530.56 1361.16,-1497 1283.43,-1441.39 1265.01,-1320.28 1260.79,-1256.75"/>
<polygon fill="#00b9f1" stroke="#00b9f1" stroke-width="2" points="1264.28,-1256.48 1260.21,-1246.7 1257.29,-1256.88 1264.28,-1256.48"/>
<text text-anchor="middle" x="1911.16" y="-1733.4" font-family="Times,serif" font-size="32.00">fear |</text>
<text text-anchor="middle" x="1911.16" y="-1698.4" font-family="Times,serif" font-size="32.00"> neglect |</text>
<text text-anchor="middle" x="1911.16" y="-1663.4" font-family="Times,serif" font-size="32.00"> scorn |</text>
<text text-anchor="middle" x="1911.16" y="-1628.4" font-family="Times,serif" font-size="32.00"> respect |</text>
<text text-anchor="middle" x="1911.16" y="-1593.4" font-family="Times,serif" font-size="32.00"> disdain |</text>
<text text-anchor="middle" x="1911.16" y="-1558.4" font-family="Times,serif" font-size="32.00"> doubt</text>
<text text-anchor="middle" x="1911.16" y="-1523.4" font-family="Times,serif" font-size="32.00">=d *k 0</text>
</g>
<!-- 1 -->
<g id="node13" class="node">
<title>1</title>
<ellipse fill="none" stroke="black" cx="1258.66" cy="-1549" rx="27" ry="30.31"/>
<text text-anchor="middle" x="1258.66" y="-1540.9" font-family="Times,serif" font-size="32.00">1</text>
</g>
<!-- d&#45;&gt;1 -->
<g id="edge42" class="edge">
<title>d&#45;&gt;1</title>
<path fill="none" stroke="#f7931d" stroke-width="2" d="M2446.68,-1094.5C2435.74,-1104.12 2423.5,-1117.25 2417.19,-1132 2384.73,-1207.89 2436.63,-1429.44 2399.19,-1503 2298.26,-1701.34 2219.04,-1743.01 2009.16,-1817 1877.99,-1863.24 1438.56,-1838.06 1361.16,-1783 1297.26,-1737.54 1273.19,-1643 1264.43,-1589.04"/>
<polygon fill="#f7931d" stroke="#f7931d" stroke-width="2" points="1267.89,-1588.49 1262.92,-1579.13 1260.97,-1589.55 1267.89,-1588.49"/>
<text text-anchor="middle" x="1911.16" y="-2059.4" font-family="Times,serif" font-size="32.00">fear_1 |</text>
<text text-anchor="middle" x="1911.16" y="-2024.4" font-family="Times,serif" font-size="32.00"> neglect_1 |</text>
<text text-anchor="middle" x="1911.16" y="-1989.4" font-family="Times,serif" font-size="32.00"> scorn_1 |</text>
<text text-anchor="middle" x="1911.16" y="-1954.4" font-family="Times,serif" font-size="32.00"> respect_1 |</text>
<text text-anchor="middle" x="1911.16" y="-1919.4" font-family="Times,serif" font-size="32.00"> disdain_1 |</text>
<text text-anchor="middle" x="1911.16" y="-1884.4" font-family="Times,serif" font-size="32.00"> doubt_1</text>
<text text-anchor="middle" x="1911.16" y="-1849.4" font-family="Times,serif" font-size="32.00">=d *k 1</text>
</g>
<!-- v -->
<g id="node14" class="node">
<title>v</title>
<ellipse fill="none" stroke="black" cx="633.66" cy="-1095" rx="27" ry="30.31"/>
<text text-anchor="middle" x="633.66" y="-1086.9" font-family="Times,serif" font-size="32.00">v</text>
</g>
<!-- d&#45;&gt;v -->
<g id="edge43" class="edge">
<title>d&#45;&gt;v</title>
<path fill="none" stroke="#000000" d="M2446.61,-1094.47C2435.64,-1104.08 2423.4,-1117.21 2417.19,-1132 2373.36,-1236.35 2434.13,-1533.35 2399.19,-1641 2323.13,-1875.38 2336.09,-2101 2089.67,-2101 2089.67,-2101 2089.67,-2101 951.16,-2101 754.09,-2101 782.55,-1910.54 716.16,-1725 640.26,-1512.89 633.59,-1238.16 634,-1135.79"/>
<polygon fill="#000000" stroke="#000000" points="637.5,-1135.61 634.06,-1125.58 630.5,-1135.56 637.5,-1135.61"/>
<text text-anchor="middle" x="1463.66" y="-2320.4" font-family="Times,serif" font-size="32.00">fear_2 |</text>
<text text-anchor="middle" x="1463.66" y="-2285.4" font-family="Times,serif" font-size="32.00"> neglect_2 |</text>
<text text-anchor="middle" x="1463.66" y="-2250.4" font-family="Times,serif" font-size="32.00"> scorn_2 |</text>
<text text-anchor="middle" x="1463.66" y="-2215.4" font-family="Times,serif" font-size="32.00"> respect_2 |</text>
<text text-anchor="middle" x="1463.66" y="-2180.4" font-family="Times,serif" font-size="32.00"> disdain_2 |</text>
<text text-anchor="middle" x="1463.66" y="-2145.4" font-family="Times,serif" font-size="32.00"> doubt_2</text>
<text text-anchor="middle" x="1463.66" y="-2110.4" font-family="Times,serif" font-size="32.00">=d *k =da v</text>
</g>
<!-- perf -->
<g id="node15" class="node">
<title>perf</title>
<ellipse fill="none" stroke="black" cx="952.16" cy="-822" rx="48.17" ry="30.31"/>
<text text-anchor="middle" x="952.16" y="-813.9" font-family="Times,serif" font-size="32.00">perf</text>
</g>
<!-- d&#45;&gt;perf -->
<g id="edge45" class="edge">
<title>d&#45;&gt;perf</title>
<path fill="none" stroke="#000000" d="M2467.31,-1047.46C2462.74,-940.54 2444.35,-583.88 2399.19,-480 2314.54,-285.25 2302.03,-116 2089.67,-116 2089.67,-116 2089.67,-116 1257.66,-116 1060,-116 1093.81,-308.58 1020.16,-492 980.23,-591.44 963.13,-717.66 956.64,-781.33"/>
<polygon fill="#000000" stroke="#000000" points="953.15,-781.07 955.65,-791.37 960.11,-781.76 953.15,-781.07"/>
<text text-anchor="middle" x="1689.66" y="-335.4" font-family="Times,serif" font-size="32.00">fearn |</text>
<text text-anchor="middle" x="1689.66" y="-300.4" font-family="Times,serif" font-size="32.00"> neglectn |</text>
<text text-anchor="middle" x="1689.66" y="-265.4" font-family="Times,serif" font-size="32.00"> scornn |</text>
<text text-anchor="middle" x="1689.66" y="-230.4" font-family="Times,serif" font-size="32.00"> respectn |</text>
<text text-anchor="middle" x="1689.66" y="-195.4" font-family="Times,serif" font-size="32.00"> disdainn |</text>
<text text-anchor="middle" x="1689.66" y="-160.4" font-family="Times,serif" font-size="32.00"> doubtn</text>
<text text-anchor="middle" x="1689.66" y="-125.4" font-family="Times,serif" font-size="32.00">=d *k =da perf</text>
</g>
<!-- prog -->
<g id="node16" class="node">
<title>prog</title>
<ellipse fill="none" stroke="black" cx="1258.66" cy="-878" rx="52.15" ry="30.31"/>
<text text-anchor="middle" x="1258.66" y="-869.9" font-family="Times,serif" font-size="32.00">prog</text>
</g>
<!-- d&#45;&gt;prog -->
<g id="edge44" class="edge">
<title>d&#45;&gt;prog</title>
<path fill="none" stroke="#000000" d="M2466.99,-1047.72C2462.14,-961.65 2444.61,-717.69 2399.19,-654 2284.88,-493.71 2200.06,-492.13 2009.16,-444 1924.69,-422.71 1894.99,-414.13 1813.16,-444 1678.34,-493.2 1697.33,-593.77 1566.16,-652 1482.11,-689.31 1436.19,-626.84 1361.16,-680 1307.97,-717.68 1280.8,-791.71 1268.46,-837.8"/>
<polygon fill="#000000" stroke="#000000" points="1265,-837.2 1265.91,-847.75 1271.78,-838.93 1265,-837.2"/>
<text text-anchor="middle" x="1911.16" y="-663.4" font-family="Times,serif" font-size="32.00">fearing |</text>
<text text-anchor="middle" x="1911.16" y="-628.4" font-family="Times,serif" font-size="32.00"> neglecting |</text>
<text text-anchor="middle" x="1911.16" y="-593.4" font-family="Times,serif" font-size="32.00"> scorning |</text>
<text text-anchor="middle" x="1911.16" y="-558.4" font-family="Times,serif" font-size="32.00"> respecting |</text>
<text text-anchor="middle" x="1911.16" y="-523.4" font-family="Times,serif" font-size="32.00"> disdaining |</text>
<text text-anchor="middle" x="1911.16" y="-488.4" font-family="Times,serif" font-size="32.00"> doubting</text>
<text text-anchor="middle" x="1911.16" y="-453.4" font-family="Times,serif" font-size="32.00">=d *k =da prog</text>
</g>
<!-- for&#45;&gt;d -->
<g id="edge25" class="edge">
<title>for&#45;&gt;d</title>
<path fill="none" stroke="#000000" d="M2103.23,-981.72C2116.24,-958.2 2138.32,-926.34 2168.19,-912 2191.33,-900.89 2377.83,-897.77 2399.19,-912 2440.95,-939.81 2457.6,-998.09 2464.21,-1037.64"/>
<polygon fill="#000000" stroke="#000000" points="2460.78,-1038.4 2465.75,-1047.76 2467.7,-1037.35 2460.78,-1038.4"/>
<text text-anchor="middle" x="2283.69" y="-1026.4" font-family="Times,serif" font-size="32.00">hope_3 |</text>
<text text-anchor="middle" x="2283.69" y="-991.4" font-family="Times,serif" font-size="32.00"> respect_3 |</text>
<text text-anchor="middle" x="2283.69" y="-956.4" font-family="Times,serif" font-size="32.00"> disdain_3</text>
<text text-anchor="middle" x="2283.69" y="-921.4" font-family="Times,serif" font-size="32.00">=for poss= d &#45;k</text>
</g>
<!-- for&#45;&gt;0 -->
<g id="edge20" class="edge">
<title>for&#45;&gt;0</title>
<path fill="none" stroke="#00b9f1" stroke-width="2" d="M2062.17,-1032.04C2047.59,-1043.43 2028.42,-1056.48 2009.16,-1064 1927.18,-1096 1877.72,-1032.21 1813.16,-1092 1786.1,-1117.06 1822.41,-1148.16 1795.16,-1173 1719.33,-1242.1 1668.37,-1193.21 1566.16,-1202 1468.73,-1210.38 1353.42,-1213.94 1295.98,-1215.28"/>
<polygon fill="#00b9f1" stroke="#00b9f1" stroke-width="2" points="1295.86,-1211.79 1285.94,-1215.51 1296.02,-1218.78 1295.86,-1211.79"/>
<text text-anchor="middle" x="1689.66" y="-1255.4" font-family="Times,serif" font-size="32.00">hope</text>
<text text-anchor="middle" x="1689.66" y="-1220.4" font-family="Times,serif" font-size="32.00">=for 0</text>
</g>
<!-- a -->
<g id="node12" class="node">
<title>a</title>
<ellipse fill="none" stroke="black" cx="1689.66" cy="-995" rx="27" ry="30.31"/>
<text text-anchor="middle" x="1689.66" y="-986.9" font-family="Times,serif" font-size="32.00">a</text>
</g>
<!-- for&#45;&gt;a -->
<g id="edge26" class="edge">
<title>for&#45;&gt;a</title>
<path fill="none" stroke="#000000" d="M2059.19,-990.87C2044.84,-982.37 2026.78,-973.32 2009.16,-969 1908.51,-944.31 1785.18,-969.49 1725.84,-984.91"/>
<polygon fill="#000000" stroke="#000000" points="1724.63,-981.61 1715.87,-987.57 1726.43,-988.38 1724.63,-981.61"/>
<text text-anchor="middle" x="1911.16" y="-1013.4" font-family="Times,serif" font-size="32.00">hopeful</text>
<text text-anchor="middle" x="1911.16" y="-978.4" font-family="Times,serif" font-size="32.00">=for a</text>
</g>
<!-- for&#45;&gt;1 -->
<g id="edge21" class="edge">
<title>for&#45;&gt;1</title>
<path fill="none" stroke="#f7931d" stroke-width="2" d="M2069.13,-1036.1C2054.87,-1054.05 2033.52,-1076.77 2009.16,-1089 1930.51,-1128.47 1872.34,-1051.88 1813.16,-1117 1784.13,-1148.94 1823.54,-1472.49 1795.16,-1505 1730.13,-1579.46 1405.73,-1560.79 1296,-1552.15"/>
<polygon fill="#f7931d" stroke="#f7931d" stroke-width="2" points="1296.02,-1548.64 1285.77,-1551.33 1295.46,-1555.62 1296.02,-1548.64"/>
<text text-anchor="middle" x="1689.66" y="-1602.4" font-family="Times,serif" font-size="32.00">hope_1</text>
<text text-anchor="middle" x="1689.66" y="-1567.4" font-family="Times,serif" font-size="32.00">=for 1</text>
</g>
<!-- for&#45;&gt;v -->
<g id="edge22" class="edge">
<title>for&#45;&gt;v</title>
<path fill="none" stroke="#000000" d="M2055.44,-1024.29C2041.49,-1029.85 2024.79,-1035.67 2009.16,-1039 1644.98,-1116.54 1524.27,-980.28 1174.16,-1107 1165.11,-1110.27 1165.36,-1116.21 1156.16,-1119 1098.3,-1136.52 1080.6,-1119.2 1020.16,-1119 885.04,-1118.56 850.04,-1135.2 716.16,-1117 700.61,-1114.89 683.82,-1110.7 669.54,-1106.53"/>
<polygon fill="#000000" stroke="#000000" points="670.23,-1103.08 659.64,-1103.54 668.2,-1109.78 670.23,-1103.08"/>
<text text-anchor="middle" x="1258.66" y="-1151.4" font-family="Times,serif" font-size="32.00">hope_2</text>
<text text-anchor="middle" x="1258.66" y="-1116.4" font-family="Times,serif" font-size="32.00">=for =da v</text>
</g>
<!-- for&#45;&gt;perf -->
<g id="edge24" class="edge">
<title>for&#45;&gt;perf</title>
<path fill="none" stroke="#000000" d="M2070.09,-983.59C2055.88,-964.26 2034.16,-938.92 2009.16,-924 1932.04,-878 1871.3,-943.43 1813.16,-875 1781.83,-838.12 1830.76,-690.77 1795.16,-658 1559.81,-441.37 1126.67,-703.69 993.3,-793.77"/>
<polygon fill="#000000" stroke="#000000" points="991.26,-790.93 984.96,-799.45 995.19,-796.72 991.26,-790.93"/>
<text text-anchor="middle" x="1463.66" y="-651.4" font-family="Times,serif" font-size="32.00">hopen</text>
<text text-anchor="middle" x="1463.66" y="-616.4" font-family="Times,serif" font-size="32.00">=for =da perf</text>
</g>
<!-- for&#45;&gt;prog -->
<g id="edge23" class="edge">
<title>for&#45;&gt;prog</title>
<path fill="none" stroke="#000000" d="M2062.49,-988.04C2047.86,-976.45 2028.54,-963 2009.16,-955 1927.43,-921.27 1884.4,-973.36 1813.16,-921 1799.06,-910.64 1810.02,-895.22 1795.16,-886 1717.54,-837.84 1443.63,-858.89 1320.46,-871.29"/>
<polygon fill="#000000" stroke="#000000" points="1320.03,-867.81 1310.43,-872.31 1320.74,-874.77 1320.03,-867.81"/>
<text text-anchor="middle" x="1689.66" y="-930.4" font-family="Times,serif" font-size="32.00">hopeing</text>
<text text-anchor="middle" x="1689.66" y="-895.4" font-family="Times,serif" font-size="32.00">=for =da prog</text>
</g>
<!-- of&#45;&gt;d -->
<g id="edge32" class="edge">
<title>of&#45;&gt;d</title>
<path fill="none" stroke="#000000" d="M2094.66,-1400.99C2102.76,-1362.54 2122.73,-1297.06 2168.19,-1265 2210.35,-1235.27 2361.58,-1277.31 2399.19,-1242 2435.31,-1208.09 2395.15,-1176.37 2417.19,-1132 2422.67,-1120.98 2431.16,-1110.69 2439.67,-1102.12"/>
<polygon fill="#000000" stroke="#000000" points="2442.27,-1104.48 2447.08,-1095.04 2437.43,-1099.42 2442.27,-1104.48"/>
<text text-anchor="middle" x="2283.69" y="-1449.4" font-family="Times,serif" font-size="32.00">boast_3 |</text>
<text text-anchor="middle" x="2283.69" y="-1414.4" font-family="Times,serif" font-size="32.00"> fear_3 |</text>
<text text-anchor="middle" x="2283.69" y="-1379.4" font-family="Times,serif" font-size="32.00"> neglect_3 |</text>
<text text-anchor="middle" x="2283.69" y="-1344.4" font-family="Times,serif" font-size="32.00"> scorn_3 |</text>
<text text-anchor="middle" x="2283.69" y="-1309.4" font-family="Times,serif" font-size="32.00"> doubt_3</text>
<text text-anchor="middle" x="2283.69" y="-1274.4" font-family="Times,serif" font-size="32.00">=of poss= d &#45;k</text>
</g>
<!-- of&#45;&gt;0 -->
<g id="edge27" class="edge">
<title>of&#45;&gt;0</title>
<path fill="none" stroke="#00b9f1" stroke-width="2" d="M2058.94,-1437.88C2008.21,-1448.78 1899.93,-1466.42 1813.16,-1442 1804.13,-1439.46 1803.86,-1434.49 1795.16,-1431 1706.08,-1395.26 1674.4,-1417.68 1584.16,-1385 1471.06,-1344.05 1347.72,-1271.21 1291.18,-1236.06"/>
<polygon fill="#00b9f1" stroke="#00b9f1" stroke-width="2" points="1293.02,-1233.09 1282.69,-1230.76 1289.31,-1239.03 1293.02,-1233.09"/>
<text text-anchor="middle" x="1689.66" y="-1475.4" font-family="Times,serif" font-size="32.00">boast</text>
<text text-anchor="middle" x="1689.66" y="-1440.4" font-family="Times,serif" font-size="32.00">=of 0</text>
</g>
<!-- of&#45;&gt;a -->
<g id="edge33" class="edge">
<title>of&#45;&gt;a</title>
<path fill="none" stroke="#000000" d="M2087.77,-1400.44C2086.35,-1342.28 2075.32,-1214.58 2009.16,-1137 1989.33,-1113.75 1802.73,-1038.87 1724.7,-1008.25"/>
<polygon fill="#000000" stroke="#000000" points="1725.89,-1004.95 1715.3,-1004.57 1723.34,-1011.47 1725.89,-1004.95"/>
<text text-anchor="middle" x="1911.16" y="-1391.4" font-family="Times,serif" font-size="32.00">boastful |</text>
<text text-anchor="middle" x="1911.16" y="-1356.4" font-family="Times,serif" font-size="32.00"> fearful |</text>
<text text-anchor="middle" x="1911.16" y="-1321.4" font-family="Times,serif" font-size="32.00"> neglectful |</text>
<text text-anchor="middle" x="1911.16" y="-1286.4" font-family="Times,serif" font-size="32.00"> scornful |</text>
<text text-anchor="middle" x="1911.16" y="-1251.4" font-family="Times,serif" font-size="32.00"> respectful |</text>
<text text-anchor="middle" x="1911.16" y="-1216.4" font-family="Times,serif" font-size="32.00"> disdainful |</text>
<text text-anchor="middle" x="1911.16" y="-1181.4" font-family="Times,serif" font-size="32.00"> doubtful</text>
<text text-anchor="middle" x="1911.16" y="-1146.4" font-family="Times,serif" font-size="32.00">=of a</text>
</g>
<!-- of&#45;&gt;1 -->
<g id="edge28" class="edge">
<title>of&#45;&gt;1</title>
<path fill="none" stroke="#f7931d" stroke-width="2" d="M2084.48,-1461.37C2076.41,-1531.5 2052.68,-1701.29 2009.16,-1735 1974.72,-1761.67 1848.49,-1760.47 1813.16,-1735 1792.63,-1720.21 1813.98,-1697.91 1795.16,-1681 1723.75,-1616.86 1677.46,-1657.52 1584.16,-1635 1478.38,-1609.47 1354.3,-1575.44 1294.87,-1558.88"/>
<polygon fill="#f7931d" stroke="#f7931d" stroke-width="2" points="1295.79,-1555.51 1285.22,-1556.19 1293.91,-1562.25 1295.79,-1555.51"/>
<text text-anchor="middle" x="1689.66" y="-1725.4" font-family="Times,serif" font-size="32.00">boast_1</text>
<text text-anchor="middle" x="1689.66" y="-1690.4" font-family="Times,serif" font-size="32.00">=of 1</text>
</g>
<!-- of&#45;&gt;v -->
<g id="edge29" class="edge">
<title>of&#45;&gt;v</title>
<path fill="none" stroke="#000000" d="M2083.09,-1461.05C2070.4,-1542.5 2034.03,-1762.8 2009.16,-1784 1955.19,-1829.99 1761.56,-1803 1690.66,-1803 1690.66,-1803 1690.66,-1803 951.16,-1803 656.63,-1803 634.35,-1286.05 634.1,-1135.61"/>
<polygon fill="#000000" stroke="#000000" points="637.6,-1135.43 634.12,-1125.42 630.6,-1135.42 637.6,-1135.43"/>
<text text-anchor="middle" x="1258.66" y="-1847.4" font-family="Times,serif" font-size="32.00">boast_2</text>
<text text-anchor="middle" x="1258.66" y="-1812.4" font-family="Times,serif" font-size="32.00">=of =da v</text>
</g>
<!-- of&#45;&gt;perf -->
<g id="edge31" class="edge">
<title>of&#45;&gt;perf</title>
<path fill="none" stroke="#000000" d="M2085.06,-1461.43C2078.02,-1535.37 2055.92,-1721.13 2009.16,-1758 1940.75,-1811.93 1900.26,-1759.33 1813.16,-1758 1711.34,-1756.44 1671.26,-1803.74 1584.16,-1751 1570.2,-1742.55 1578.74,-1729.39 1566.16,-1719 1424.54,-1602.01 1283.9,-1735.3 1174.16,-1588 1137.23,-1538.43 1185.08,-1086.63 1156.16,-1032 1121.17,-965.93 1070.7,-988.09 1020.16,-933 1000.23,-911.28 983.16,-882.73 971.23,-860.03"/>
<polygon fill="#000000" stroke="#000000" points="974.28,-858.31 966.6,-851.01 968.06,-861.51 974.28,-858.31"/>
<text text-anchor="middle" x="1463.66" y="-1763.4" font-family="Times,serif" font-size="32.00">boastn</text>
<text text-anchor="middle" x="1463.66" y="-1728.4" font-family="Times,serif" font-size="32.00">=of =da perf</text>
</g>
<!-- of&#45;&gt;prog -->
<g id="edge30" class="edge">
<title>of&#45;&gt;prog</title>
<path fill="none" stroke="#000000" d="M2058.39,-1434.16C1994.77,-1440.32 1846.91,-1450.57 1813.16,-1417 1762.97,-1367.09 1839.95,-1153.8 1795.16,-1099 1732.05,-1021.79 1434.51,-1052.55 1361.16,-985 1343.47,-968.72 1357.89,-952.99 1343.16,-934 1333.68,-921.78 1320.77,-911.32 1307.93,-902.85"/>
<polygon fill="#000000" stroke="#000000" points="1309.43,-899.66 1299.1,-897.32 1305.71,-905.59 1309.43,-899.66"/>
<text text-anchor="middle" x="1689.66" y="-1143.4" font-family="Times,serif" font-size="32.00">boasting</text>
<text text-anchor="middle" x="1689.66" y="-1108.4" font-family="Times,serif" font-size="32.00">=of =da prog</text>
</g>
<!-- about&#45;&gt;d -->
<g id="edge39" class="edge">
<title>about&#45;&gt;d</title>
<path fill="none" stroke="#000000" d="M2132.62,-698.69C2198.17,-669.56 2323.55,-627.7 2399.19,-691 2451.62,-734.87 2464.45,-947.04 2467.55,-1037.27"/>
<polygon fill="#000000" stroke="#000000" points="2464.05,-1037.51 2467.87,-1047.39 2471.05,-1037.28 2464.05,-1037.51"/>
<text text-anchor="middle" x="2283.69" y="-770.4" font-family="Times,serif" font-size="32.00">boast_7 |</text>
<text text-anchor="middle" x="2283.69" y="-735.4" font-family="Times,serif" font-size="32.00"> doubt_4</text>
<text text-anchor="middle" x="2283.69" y="-700.4" font-family="Times,serif" font-size="32.00">=about poss= d &#45;k</text>
</g>
<!-- about&#45;&gt;0 -->
<g id="edge34" class="edge">
<title>about&#45;&gt;0</title>
<path fill="none" stroke="#00b9f1" stroke-width="2" d="M2027.56,-724.46C1971.85,-728.89 1886.73,-736.4 1813.16,-746 1805.11,-747.05 1803.16,-747.71 1795.16,-749 1701.45,-764.14 1675,-754.5 1584.16,-782 1479.67,-813.63 1422.85,-794.93 1361.16,-885 1325.29,-937.35 1377.14,-1116.41 1343.16,-1170 1332.16,-1187.34 1312.22,-1198.67 1294.58,-1205.75"/>
<polygon fill="#00b9f1" stroke="#00b9f1" stroke-width="2" points="1293.26,-1202.51 1285.09,-1209.26 1295.68,-1209.08 1293.26,-1202.51"/>
<text text-anchor="middle" x="1689.66" y="-826.4" font-family="Times,serif" font-size="32.00">boast_4</text>
<text text-anchor="middle" x="1689.66" y="-791.4" font-family="Times,serif" font-size="32.00">=about 0</text>
</g>
<!-- about&#45;&gt;a -->
<g id="edge40" class="edge">
<title>about&#45;&gt;a</title>
<path fill="none" stroke="#000000" d="M2036.46,-736.35C2027.43,-738.84 2018.06,-741.19 2009.16,-743 1966.18,-751.75 1843.86,-734.68 1813.16,-766 1784.24,-795.5 1819.64,-917.74 1795.16,-951 1779.09,-972.82 1750.1,-983.89 1726.72,-989.47"/>
<polygon fill="#000000" stroke="#000000" points="1725.81,-986.09 1716.77,-991.6 1727.28,-992.93 1725.81,-986.09"/>
<text text-anchor="middle" x="1911.16" y="-845.4" font-family="Times,serif" font-size="32.00">boastful_1 |</text>
<text text-anchor="middle" x="1911.16" y="-810.4" font-family="Times,serif" font-size="32.00"> doubtful_1</text>
<text text-anchor="middle" x="1911.16" y="-775.4" font-family="Times,serif" font-size="32.00">=about a</text>
</g>
<!-- about&#45;&gt;1 -->
<g id="edge35" class="edge">
<title>about&#45;&gt;1</title>
<path fill="none" stroke="#f7931d" stroke-width="2" d="M2078.82,-750.19C2067.58,-783.73 2045.22,-837.53 2009.16,-871 1939.69,-935.47 1867.46,-877.33 1813.16,-955 1792.11,-985.09 1820.22,-1258.17 1795.16,-1285 1730.66,-1354.05 1649.73,-1242.97 1584.16,-1311 1551.8,-1344.56 1598.98,-1486.9 1566.16,-1520 1547.46,-1538.85 1373.21,-1545.91 1296.09,-1548.12"/>
<polygon fill="#f7931d" stroke="#f7931d" stroke-width="2" points="1295.78,-1544.63 1285.88,-1548.41 1295.97,-1551.63 1295.78,-1544.63"/>
<text text-anchor="middle" x="1689.66" y="-1355.4" font-family="Times,serif" font-size="32.00">boast_5</text>
<text text-anchor="middle" x="1689.66" y="-1320.4" font-family="Times,serif" font-size="32.00">=about 1</text>
</g>
<!-- about&#45;&gt;v -->
<g id="edge36" class="edge">
<title>about&#45;&gt;v</title>
<path fill="none" stroke="#000000" d="M2084.07,-689.64C2075.24,-620.79 2050.21,-456.08 2009.16,-421 1900.99,-328.58 1832.92,-389 1690.66,-389 1690.66,-389 1690.66,-389 951.16,-389 729.85,-389 786.91,-618.31 716.16,-828 700.04,-875.77 711.8,-891.47 698.16,-940 686.24,-982.37 666.22,-1028.81 651.84,-1059.71"/>
<polygon fill="#000000" stroke="#000000" points="648.67,-1058.24 647.58,-1068.78 655,-1061.22 648.67,-1058.24"/>
<text text-anchor="middle" x="1258.66" y="-433.4" font-family="Times,serif" font-size="32.00">boast_6</text>
<text text-anchor="middle" x="1258.66" y="-398.4" font-family="Times,serif" font-size="32.00">=about =da v</text>
</g>
<!-- about&#45;&gt;perf -->
<g id="edge38" class="edge">
<title>about&#45;&gt;perf</title>
<path fill="none" stroke="#000000" d="M2036.87,-703.22C2027.71,-700.55 2018.2,-698.02 2009.16,-696 1966.21,-686.43 1844.8,-698.57 1813.16,-668 1780.36,-636.32 1824.86,-601.6 1795.16,-567 1667.49,-418.3 1555.9,-467.01 1361.16,-489 1206.67,-506.44 1131.84,-458.84 1020.16,-567 989.63,-596.56 968.14,-717.37 958.64,-781.52"/>
<polygon fill="#000000" stroke="#000000" points="955.13,-781.29 957.16,-791.69 962.06,-782.29 955.13,-781.29"/>
<text text-anchor="middle" x="1463.66" y="-533.4" font-family="Times,serif" font-size="32.00">boastn_1</text>
<text text-anchor="middle" x="1463.66" y="-498.4" font-family="Times,serif" font-size="32.00">=about =da perf</text>
</g>
<!-- about&#45;&gt;prog -->
<g id="edge37" class="edge">
<title>about&#45;&gt;prog</title>
<path fill="none" stroke="#000000" d="M2027.13,-717.96C1958.34,-714.96 1850.74,-707.99 1813.16,-693 1803.74,-689.25 1804.74,-682.29 1795.16,-679 1706.45,-648.57 1676.61,-663.3 1584.16,-679 1480.64,-696.58 1447.54,-697.31 1361.16,-757 1328.89,-779.29 1301,-814.44 1282.66,-841.13"/>
<polygon fill="#000000" stroke="#000000" points="1279.73,-839.22 1277.05,-849.47 1285.54,-843.12 1279.73,-839.22"/>
<text text-anchor="middle" x="1689.66" y="-723.4" font-family="Times,serif" font-size="32.00">boasting_1</text>
<text text-anchor="middle" x="1689.66" y="-688.4" font-family="Times,serif" font-size="32.00">=about =da prog</text>
</g>
<!-- 0&#45;&gt;t -->
<g id="edge7" class="edge">
<title>0&#45;&gt;t</title>
<path fill="none" stroke="#00b9f1" stroke-width="2" d="M1232.54,-1224.47C1126.88,-1258.43 712.18,-1374.74 457.16,-1201 435.5,-1186.24 424.48,-1158.67 418.88,-1135.34"/>
<polygon fill="#00b9f1" stroke="#00b9f1" stroke-width="2" points="422.26,-1134.37 416.74,-1125.32 415.41,-1135.83 422.26,-1134.37"/>
<text text-anchor="middle" x="800.16" y="-1338.4" font-family="Times,serif" font-size="32.00">s</text>
<text text-anchor="middle" x="800.16" y="-1303.4" font-family="Times,serif" font-size="32.00">=&gt;0 =da +k t</text>
</g>
<!-- a&#45;&gt;0 -->
<g id="edge8" class="edge">
<title>a&#45;&gt;0</title>
<path fill="none" stroke="#00b9f1" stroke-width="2" d="M1665.32,-1009.33C1641.12,-1023.83 1601.87,-1046.27 1566.16,-1062 1478.04,-1100.8 1432.98,-1067.89 1361.16,-1132 1347.21,-1144.44 1355.96,-1156.39 1343.16,-1170 1329.6,-1184.41 1310.5,-1195.39 1293.98,-1203.01"/>
<polygon fill="#00b9f1" stroke="#00b9f1" stroke-width="2" points="1292.38,-1199.89 1284.62,-1207.1 1295.19,-1206.3 1292.38,-1199.89"/>
<text text-anchor="middle" x="1463.66" y="-1176.4" font-family="Times,serif" font-size="32.00">be</text>
<text text-anchor="middle" x="1463.66" y="-1141.4" font-family="Times,serif" font-size="32.00">=a 0</text>
</g>
<!-- a&#45;&gt;1 -->
<g id="edge10" class="edge">
<title>a&#45;&gt;1</title>
<path fill="none" stroke="#f7931d" stroke-width="2" d="M1664.72,-1006.7C1640.14,-1020.08 1602.9,-1044.42 1584.16,-1077 1555.29,-1127.18 1590.5,-1153.48 1566.16,-1206 1531.72,-1280.3 1355.74,-1455.7 1287.11,-1522.52"/>
<polygon fill="#f7931d" stroke="#f7931d" stroke-width="2" points="1284.4,-1520.27 1279.67,-1529.75 1289.28,-1525.29 1284.4,-1520.27"/>
<text text-anchor="middle" x="1463.66" y="-1490.4" font-family="Times,serif" font-size="32.00">be_1</text>
<text text-anchor="middle" x="1463.66" y="-1455.4" font-family="Times,serif" font-size="32.00">=a 1</text>
</g>
<!-- a&#45;&gt;v -->
<g id="edge11" class="edge">
<title>a&#45;&gt;v</title>
<path fill="none" stroke="#000000" d="M1662.71,-998.57C1605.26,-1006.33 1462.93,-1024.78 1343.16,-1034 1307.33,-1036.76 1050.74,-1030.15 1020.16,-1049 1006.27,-1057.56 1016.08,-1072.5 1002.16,-1081 947.46,-1114.4 752.58,-1104.03 670.99,-1097.99"/>
<polygon fill="#000000" stroke="#000000" points="670.95,-1094.48 660.71,-1097.21 670.42,-1101.46 670.95,-1094.48"/>
<text text-anchor="middle" x="1088.16" y="-1093.4" font-family="Times,serif" font-size="32.00">be_2</text>
<text text-anchor="middle" x="1088.16" y="-1058.4" font-family="Times,serif" font-size="32.00">=a =da v</text>
</g>
<!-- a&#45;&gt;perf -->
<g id="edge12" class="edge">
<title>a&#45;&gt;perf</title>
<path fill="none" stroke="#000000" d="M1662.69,-999.78C1605.51,-1009.09 1465.48,-1025.08 1361.16,-981 1351.02,-976.72 1353,-968.93 1343.16,-964 1278.02,-931.38 1082.63,-945.47 1020.16,-908 1000.94,-896.48 985.17,-877.22 973.77,-859.85"/>
<polygon fill="#000000" stroke="#000000" points="976.49,-857.6 968.21,-850.99 970.56,-861.32 976.49,-857.6"/>
<text text-anchor="middle" x="1258.66" y="-1008.4" font-family="Times,serif" font-size="32.00">ben</text>
<text text-anchor="middle" x="1258.66" y="-973.4" font-family="Times,serif" font-size="32.00">=a =da perf</text>
</g>
<!-- a&#45;&gt;prog -->
<g id="edge13" class="edge">
<title>a&#45;&gt;prog</title>
<path fill="none" stroke="#000000" d="M1662.89,-989.81C1639.69,-983.95 1605.99,-972.31 1584.16,-951 1570.2,-937.38 1581.94,-922.45 1566.16,-911 1563.69,-909.21 1409.34,-893.24 1320.65,-884.19"/>
<polygon fill="#000000" stroke="#000000" points="1320.74,-880.68 1310.44,-883.15 1320.03,-887.64 1320.74,-880.68"/>
<text text-anchor="middle" x="1463.66" y="-955.4" font-family="Times,serif" font-size="32.00">being</text>
<text text-anchor="middle" x="1463.66" y="-920.4" font-family="Times,serif" font-size="32.00">=a =da prog</text>
</g>
<!-- 1&#45;&gt;t -->
<g id="edge9" class="edge">
<title>1&#45;&gt;t</title>
<path fill="none" stroke="#f7931d" stroke-width="2" d="M1231.51,-1547.53C1118.96,-1539.69 671.74,-1493.11 457.16,-1240 432.17,-1210.52 421.37,-1167.13 416.7,-1135.5"/>
<polygon fill="#f7931d" stroke="#f7931d" stroke-width="2" points="420.13,-1134.71 415.34,-1125.26 413.19,-1135.64 420.13,-1134.71"/>
<text text-anchor="middle" x="800.16" y="-1528.4" font-family="Times,serif" font-size="32.00">d</text>
<text text-anchor="middle" x="800.16" y="-1493.4" font-family="Times,serif" font-size="32.00">=&gt;1 =da +k t</text>
</g>
<!-- v&#45;&gt;t -->
<g id="edge14" class="edge">
<title>v&#45;&gt;t</title>
<path fill="none" stroke="#000000" d="M606.61,-1095C567.5,-1095 493.48,-1095 449.2,-1095"/>
<polygon fill="#000000" stroke="#000000" points="449.16,-1091.5 439.16,-1095 449.16,-1098.5 449.16,-1091.5"/>
<text text-anchor="middle" x="504.16" y="-1174.4" font-family="Times,serif" font-size="32.00">wills |</text>
<text text-anchor="middle" x="504.16" y="-1139.4" font-family="Times,serif" font-size="32.00"> willd</text>
<text text-anchor="middle" x="504.16" y="-1104.4" font-family="Times,serif" font-size="32.00">=v +k t</text>
</g>
<!-- perf&#45;&gt;t -->
<g id="edge15" class="edge">
<title>perf&#45;&gt;t</title>
<path fill="none" stroke="#000000" d="M906.11,-813.07C832.46,-800.61 683.05,-784.4 569.16,-831 506,-856.84 492.46,-877.61 457.16,-936 434.86,-972.87 423.58,-1021.32 418.06,-1055"/>
<polygon fill="#000000" stroke="#000000" points="414.59,-1054.53 416.53,-1064.95 421.51,-1055.6 414.59,-1054.53"/>
<text text-anchor="middle" x="633.66" y="-910.4" font-family="Times,serif" font-size="32.00">haves |</text>
<text text-anchor="middle" x="633.66" y="-875.4" font-family="Times,serif" font-size="32.00"> haved</text>
<text text-anchor="middle" x="633.66" y="-840.4" font-family="Times,serif" font-size="32.00">=perf +k t</text>
</g>
<!-- perf&#45;&gt;v -->
<g id="edge16" class="edge">
<title>perf&#45;&gt;v</title>
<path fill="none" stroke="#000000" d="M905.03,-828.42C837.6,-837.9 719.66,-854.85 716.16,-858 692.9,-878.9 707.67,-896.22 698.16,-926 683.4,-972.2 663.29,-1024.29 649.68,-1058.27"/>
<polygon fill="#000000" stroke="#000000" points="646.34,-1057.2 645.85,-1067.78 652.83,-1059.81 646.34,-1057.2"/>
<text text-anchor="middle" x="800.16" y="-902.4" font-family="Times,serif" font-size="32.00">have</text>
<text text-anchor="middle" x="800.16" y="-867.4" font-family="Times,serif" font-size="32.00">=perf v</text>
</g>
<!-- prog&#45;&gt;t -->
<g id="edge17" class="edge">
<title>prog&#45;&gt;t</title>
<path fill="none" stroke="#000000" d="M1214.83,-894.93C1196.96,-901.31 1175.82,-907.99 1156.16,-912 1060.05,-931.61 810.77,-921.13 716.16,-947 610.72,-975.82 497.92,-1041.32 444.57,-1074.67"/>
<polygon fill="#000000" stroke="#000000" points="442.51,-1071.83 435.92,-1080.12 446.25,-1077.75 442.51,-1071.83"/>
<text text-anchor="middle" x="800.16" y="-1026.4" font-family="Times,serif" font-size="32.00">bes |</text>
<text text-anchor="middle" x="800.16" y="-991.4" font-family="Times,serif" font-size="32.00"> bed</text>
<text text-anchor="middle" x="800.16" y="-956.4" font-family="Times,serif" font-size="32.00">=prog +k t</text>
</g>
<!-- prog&#45;&gt;v -->
<g id="edge18" class="edge">
<title>prog&#45;&gt;v</title>
<path fill="none" stroke="#000000" d="M1218.31,-897.39C1202.79,-906.67 1185.91,-919.04 1174.16,-934 1159.82,-952.24 1174.42,-968.7 1156.16,-983 1066.73,-1053.02 992.57,-942.26 902.16,-1011 885.01,-1024.04 901,-1042.58 884.16,-1056 880.01,-1059.31 739.38,-1079.92 671.12,-1089.77"/>
<polygon fill="#000000" stroke="#000000" points="670.21,-1086.37 660.82,-1091.26 671.21,-1093.3 670.21,-1086.37"/>
<text text-anchor="middle" x="952.16" y="-1055.4" font-family="Times,serif" font-size="32.00">be_3</text>
<text text-anchor="middle" x="952.16" y="-1020.4" font-family="Times,serif" font-size="32.00">=prog v</text>
</g>
<!-- prog&#45;&gt;perf -->
<g id="edge19" class="edge">
<title>prog&#45;&gt;perf</title>
<path fill="none" stroke="#000000" d="M1217.55,-859.01C1199.23,-851.18 1177.01,-842.82 1156.16,-838 1107.89,-826.85 1051.64,-823.11 1010.61,-822.01"/>
<polygon fill="#000000" stroke="#000000" points="1010.6,-818.51 1000.52,-821.79 1010.44,-825.51 1010.6,-818.51"/>
<text text-anchor="middle" x="1088.16" y="-882.4" font-family="Times,serif" font-size="32.00">ben_1</text>
<text text-anchor="middle" x="1088.16" y="-847.4" font-family="Times,serif" font-size="32.00">=prog perf</text>
</g>
</g>
</svg>
