<?xml version="1.0" encoding="UTF-8" standalone="no"?>
<!DOCTYPE svg PUBLIC "-//W3C//DTD SVG 1.1//EN"
 "http://www.w3.org/Graphics/SVG/1.1/DTD/svg11.dtd">
<!-- Generated by graphviz version 2.47.1 (20210417.1919)
 -->
<!-- Title: G Pages: 1 -->
<svg width="3364pt" height="1339pt"
 viewBox="0.00 0.00 3363.74 1339.28" xmlns="http://www.w3.org/2000/svg" xmlns:xlink="http://www.w3.org/1999/xlink">
<g id="graph0" class="graph" transform="scale(1 1) rotate(0) translate(4 1335.28)">
<title>G</title>
<polygon fill="white" stroke="transparent" points="-4,4 -4,-1335.28 3359.74,-1335.28 3359.74,4 -4,4"/>
<text text-anchor="middle" x="1677.87" y="-13.4" font-family="Times,serif" font-size="32.00">decomposition: Mary da &#45;k, Mary 0</text>
<!-- t -->
<g id="node1" class="node">
<title>t</title>
<ellipse fill="lightgray" stroke="black" cx="27" cy="-801.28" rx="27" ry="30.31"/>
<text text-anchor="middle" x="27" y="-793.18" font-family="Times,serif" font-size="32.00">t</text>
</g>
<!-- 0 -->
<g id="node2" class="node">
<title>0</title>
<ellipse fill="none" stroke="black" cx="3158.8" cy="-1152.28" rx="27" ry="30.31"/>
<text text-anchor="middle" x="3158.8" y="-1144.18" font-family="Times,serif" font-size="32.00">0</text>
</g>
<!-- da -->
<g id="node3" class="node">
<title>da</title>
<ellipse fill="none" stroke="black" cx="2528.35" cy="-1153.28" rx="33.47" ry="30.31"/>
<text text-anchor="middle" x="2528.35" y="-1145.18" font-family="Times,serif" font-size="32.00">da</text>
</g>
<!-- 0&#45;&gt;da -->
<g id="edge1" class="edge">
<title>0&#45;&gt;da</title>
<path fill="none" stroke="#f7931d" stroke-width="2" d="M3131.62,-1151.09C3123.67,-1150.77 3114.91,-1150.47 3106.85,-1150.28 3047.31,-1148.89 3032.41,-1149.5 2972.85,-1149.28 2825.3,-1148.73 2788.4,-1149.24 2640.85,-1151.28 2618.17,-1151.59 2592.88,-1152.04 2572.14,-1152.43"/>
<polygon fill="#f7931d" stroke="#f7931d" stroke-width="2" points="2571.97,-1148.93 2562.04,-1152.62 2572.11,-1155.93 2571.97,-1148.93"/>
<text text-anchor="middle" x="2910.35" y="-1193.68" font-family="Times,serif" font-size="32.00">ε_0</text>
<text text-anchor="middle" x="2910.35" y="-1158.68" font-family="Times,serif" font-size="32.00">=&gt;0 da &#45;k</text>
</g>
<!-- 1 -->
<g id="node5" class="node">
<title>1</title>
<ellipse fill="none" stroke="black" cx="2910.35" cy="-1258.28" rx="27" ry="30.31"/>
<text text-anchor="middle" x="2910.35" y="-1250.18" font-family="Times,serif" font-size="32.00">1</text>
</g>
<!-- 0&#45;&gt;1 -->
<g id="edge6" class="edge">
<title>0&#45;&gt;1</title>
<path fill="none" stroke="#f7931d" stroke-width="2" d="M3131.6,-1151.7C3096.75,-1152.15 3034.48,-1157.26 2990.85,-1185.28 2979.34,-1192.68 2982.35,-1200.41 2972.85,-1210.28 2963.68,-1219.81 2952.56,-1229.06 2942.31,-1236.84"/>
<polygon fill="#f7931d" stroke="#f7931d" stroke-width="2" points="2939.92,-1234.26 2933.97,-1243.02 2944.09,-1239.88 2939.92,-1234.26"/>
<text text-anchor="middle" x="3048.85" y="-1229.68" font-family="Times,serif" font-size="32.00">ε_2</text>
<text text-anchor="middle" x="3048.85" y="-1194.68" font-family="Times,serif" font-size="32.00">=&gt;0 1</text>
</g>
<!-- z0 -->
<g id="node4" class="node">
<title>z0</title>
<ellipse fill="none" stroke="black" stroke-dasharray="5,2" cx="3328.74" cy="-1152.28" rx="27" ry="18"/>
</g>
<!-- z0&#45;&gt;0 -->
<g id="edge2" class="edge">
<title>z0&#45;&gt;0</title>
<path fill="none" stroke="#f7931d" stroke-width="2" d="M3301.5,-1152.28C3273.15,-1152.28 3227.79,-1152.28 3196.05,-1152.28"/>
<polygon fill="#f7931d" stroke="#f7931d" stroke-width="2" points="3195.85,-1148.78 3185.85,-1152.28 3195.85,-1155.78 3195.85,-1148.78"/>
<text text-anchor="middle" x="3247.24" y="-1196.68" font-family="Times,serif" font-size="32.00">Mary</text>
<text text-anchor="middle" x="3247.24" y="-1161.68" font-family="Times,serif" font-size="32.00">0</text>
</g>
<!-- 1&#45;&gt;da -->
<g id="edge3" class="edge">
<title>1&#45;&gt;da</title>
<path fill="none" stroke="#000000" d="M2886.66,-1243.1C2874.41,-1234.32 2859.48,-1222.59 2847.85,-1210.28 2838.21,-1200.06 2841.95,-1191.43 2829.85,-1184.28 2787.26,-1159.09 2644.16,-1154.19 2571.89,-1153.36"/>
<polygon fill="#000000" stroke="#000000" points="2571.79,-1149.86 2561.76,-1153.26 2571.72,-1156.86 2571.79,-1149.86"/>
<text text-anchor="middle" x="2735.35" y="-1228.68" font-family="Times,serif" font-size="32.00">ε_1</text>
<text text-anchor="middle" x="2735.35" y="-1193.68" font-family="Times,serif" font-size="32.00">=&gt;1 da &#45;k</text>
</g>
<!-- poss -->
<g id="node7" class="node">
<title>poss</title>
<ellipse fill="none" stroke="black" cx="2528.35" cy="-1262.28" rx="52.15" ry="30.31"/>
<text text-anchor="middle" x="2528.35" y="-1254.18" font-family="Times,serif" font-size="32.00">poss</text>
</g>
<!-- 1&#45;&gt;poss -->
<g id="edge5" class="edge">
<title>1&#45;&gt;poss</title>
<path fill="none" stroke="#000000" d="M2883.24,-1258.55C2823.52,-1259.18 2675.65,-1260.74 2591.16,-1261.63"/>
<polygon fill="#000000" stroke="#000000" points="2590.9,-1258.13 2580.93,-1261.74 2590.97,-1265.13 2590.9,-1258.13"/>
<text text-anchor="middle" x="2735.35" y="-1304.68" font-family="Times,serif" font-size="32.00">&#39;s</text>
<text text-anchor="middle" x="2735.35" y="-1269.68" font-family="Times,serif" font-size="32.00">=&gt;1 poss</text>
</g>
<!-- z1 -->
<g id="node6" class="node">
<title>z1</title>
<ellipse fill="none" stroke="black" stroke-dasharray="5,2" cx="3158.8" cy="-1262.28" rx="27" ry="18"/>
</g>
<!-- z1&#45;&gt;1 -->
<g id="edge4" class="edge">
<title>z1&#45;&gt;1</title>
<path fill="none" stroke="#000000" d="M3131.42,-1261.85C3087.14,-1261.13 2997.77,-1259.68 2947.62,-1258.87"/>
<polygon fill="#000000" stroke="#000000" points="2947.59,-1255.37 2937.54,-1258.7 2947.48,-1262.37 2947.59,-1255.37"/>
<text text-anchor="middle" x="3048.85" y="-1305.68" font-family="Times,serif" font-size="32.00">John</text>
<text text-anchor="middle" x="3048.85" y="-1270.68" font-family="Times,serif" font-size="32.00">1</text>
</g>
<!-- z2 -->
<g id="node8" class="node">
<title>z2</title>
<ellipse fill="none" stroke="black" stroke-dasharray="5,2" cx="2158.35" cy="-245.28" rx="27" ry="18"/>
</g>
<!-- d -->
<g id="node9" class="node">
<title>d</title>
<ellipse fill="none" stroke="black" cx="1806.85" cy="-338.28" rx="27" ry="30.31"/>
<text text-anchor="middle" x="1806.85" y="-330.18" font-family="Times,serif" font-size="32.00">d</text>
</g>
<!-- z2&#45;&gt;d -->
<g id="edge7" class="edge">
<title>z2&#45;&gt;d</title>
<path fill="none" stroke="#000000" d="M2132.5,-239.57C2077.32,-228.35 1942.33,-209.03 1851.85,-264.28 1838.28,-272.57 1828.38,-286.76 1821.46,-300.51"/>
<polygon fill="#000000" stroke="#000000" points="1818.15,-299.33 1817.13,-309.88 1824.5,-302.27 1818.15,-299.33"/>
<text text-anchor="middle" x="1948.85" y="-308.68" font-family="Times,serif" font-size="32.00">the&#45;cause</text>
<text text-anchor="middle" x="1948.85" y="-273.68" font-family="Times,serif" font-size="32.00">d &#45;k</text>
</g>
<!-- for -->
<g id="node10" class="node">
<title>for</title>
<ellipse fill="none" stroke="black" cx="1529.34" cy="-480.28" rx="37.45" ry="30.31"/>
<text text-anchor="middle" x="1529.34" y="-472.18" font-family="Times,serif" font-size="32.00">for</text>
</g>
<!-- d&#45;&gt;for -->
<g id="edge8" class="edge">
<title>d&#45;&gt;for</title>
<path fill="none" stroke="#000000" d="M1796.27,-366.42C1789.27,-382.67 1778.13,-402.04 1761.85,-413.28 1705.09,-452.47 1674.22,-417.27 1608.85,-439.28 1595.13,-443.9 1580.88,-450.67 1568.35,-457.38"/>
<polygon fill="#000000" stroke="#000000" points="1566.63,-454.33 1559.56,-462.22 1570.01,-460.46 1566.63,-454.33"/>
<text text-anchor="middle" x="1685.35" y="-483.68" font-family="Times,serif" font-size="32.00">for</text>
<text text-anchor="middle" x="1685.35" y="-448.68" font-family="Times,serif" font-size="32.00">=d *k for</text>
</g>
<!-- of -->
<g id="node11" class="node">
<title>of</title>
<ellipse fill="none" stroke="black" cx="1529.34" cy="-246.28" rx="30.31" ry="30.31"/>
<text text-anchor="middle" x="1529.34" y="-238.18" font-family="Times,serif" font-size="32.00">of</text>
</g>
<!-- d&#45;&gt;of -->
<g id="edge9" class="edge">
<title>d&#45;&gt;of</title>
<path fill="none" stroke="#000000" d="M1796.25,-310C1789.29,-294.08 1778.2,-275.42 1761.85,-265.28 1702.78,-228.64 1618.31,-232.73 1569.42,-239.3"/>
<polygon fill="#000000" stroke="#000000" points="1568.65,-235.88 1559.25,-240.78 1569.65,-242.81 1568.65,-235.88"/>
<text text-anchor="middle" x="1685.35" y="-309.68" font-family="Times,serif" font-size="32.00">of</text>
<text text-anchor="middle" x="1685.35" y="-274.68" font-family="Times,serif" font-size="32.00">=d *k of</text>
</g>
<!-- about -->
<g id="node12" class="node">
<title>about</title>
<ellipse fill="none" stroke="black" cx="1529.34" cy="-339.28" rx="61.54" ry="30.31"/>
<text text-anchor="middle" x="1529.34" y="-331.18" font-family="Times,serif" font-size="32.00">about</text>
</g>
<!-- d&#45;&gt;about -->
<g id="edge10" class="edge">
<title>d&#45;&gt;about</title>
<path fill="none" stroke="#000000" d="M1779.44,-338.37C1738.78,-338.52 1659.47,-338.81 1601.22,-339.02"/>
<polygon fill="#000000" stroke="#000000" points="1600.96,-335.52 1590.97,-339.06 1600.98,-342.52 1600.96,-335.52"/>
<text text-anchor="middle" x="1685.35" y="-383.68" font-family="Times,serif" font-size="32.00">about</text>
<text text-anchor="middle" x="1685.35" y="-348.68" font-family="Times,serif" font-size="32.00">=d *k about</text>
</g>
<!-- 6 -->
<g id="node21" class="node">
<title>6</title>
<ellipse fill="none" stroke="black" cx="2528.35" cy="-607.28" rx="27" ry="30.31"/>
<text text-anchor="middle" x="2528.35" y="-599.18" font-family="Times,serif" font-size="32.00">6</text>
</g>
<!-- for&#45;&gt;6 -->
<g id="edge23" class="edge">
<title>for&#45;&gt;6</title>
<path fill="none" stroke="#000000" d="M1562.52,-494.79C1576.47,-500.39 1593.17,-506.18 1608.85,-509.28 1799.52,-546.98 1851.97,-511.79 2045.85,-525.28 2128.31,-531.02 2336.49,-540.2 2415.85,-563.28 2424.44,-565.78 2425.66,-568.71 2433.85,-572.28 2452.85,-580.55 2474.49,-588.73 2492.17,-595.1"/>
<polygon fill="#000000" stroke="#000000" points="2491.47,-598.57 2502.07,-598.63 2493.82,-591.97 2491.47,-598.57"/>
<text text-anchor="middle" x="1948.85" y="-569.68" font-family="Times,serif" font-size="32.00">hope</text>
<text text-anchor="middle" x="1948.85" y="-534.68" font-family="Times,serif" font-size="32.00">=for 6</text>
</g>
<!-- 2 -->
<g id="node13" class="node">
<title>2</title>
<ellipse fill="none" stroke="black" cx="229" cy="-801.28" rx="27" ry="30.31"/>
<text text-anchor="middle" x="229" y="-793.18" font-family="Times,serif" font-size="32.00">2</text>
</g>
<!-- 2&#45;&gt;t -->
<g id="edge11" class="edge">
<title>2&#45;&gt;t</title>
<path fill="none" stroke="#000000" d="M201.85,-801.28C166.67,-801.28 103.92,-801.28 64.21,-801.28"/>
<polygon fill="#000000" stroke="#000000" points="64.15,-797.78 54.15,-801.28 64.15,-804.78 64.15,-797.78"/>
<text text-anchor="middle" x="128" y="-880.68" font-family="Times,serif" font-size="32.00">s |</text>
<text text-anchor="middle" x="128" y="-845.68" font-family="Times,serif" font-size="32.00"> d</text>
<text text-anchor="middle" x="128" y="-810.68" font-family="Times,serif" font-size="32.00">=&gt;2 +k t</text>
</g>
<!-- 3 -->
<g id="node14" class="node">
<title>3</title>
<ellipse fill="none" stroke="black" cx="1529.34" cy="-801.28" rx="27" ry="30.31"/>
<text text-anchor="middle" x="1529.34" y="-793.18" font-family="Times,serif" font-size="32.00">3</text>
</g>
<!-- 4 -->
<g id="node15" class="node">
<title>4</title>
<ellipse fill="none" stroke="black" cx="1271.82" cy="-801.28" rx="27" ry="30.31"/>
<text text-anchor="middle" x="1271.82" y="-793.18" font-family="Times,serif" font-size="32.00">4</text>
</g>
<!-- 3&#45;&gt;4 -->
<g id="edge12" class="edge">
<title>3&#45;&gt;4</title>
<path fill="none" stroke="#000000" d="M1501.95,-801.28C1456.03,-801.28 1361.32,-801.28 1309.19,-801.28"/>
<polygon fill="#000000" stroke="#000000" points="1309.06,-797.78 1299.06,-801.28 1309.06,-804.78 1309.06,-797.78"/>
<text text-anchor="middle" x="1383.32" y="-845.68" font-family="Times,serif" font-size="32.00">ε_3</text>
<text text-anchor="middle" x="1383.32" y="-810.68" font-family="Times,serif" font-size="32.00">=&gt;3 =da 4</text>
</g>
<!-- 5 -->
<g id="node17" class="node">
<title>5</title>
<ellipse fill="none" stroke="black" cx="823.17" cy="-801.28" rx="27" ry="30.31"/>
<text text-anchor="middle" x="823.17" y="-793.18" font-family="Times,serif" font-size="32.00">5</text>
</g>
<!-- 4&#45;&gt;5 -->
<g id="edge15" class="edge">
<title>4&#45;&gt;5</title>
<path fill="none" stroke="#000000" d="M1249.71,-818.76C1242.83,-823.44 1234.88,-827.86 1226.82,-830.28 1074.14,-876.07 1020.85,-876.07 868.17,-830.28 863.38,-828.84 858.63,-826.7 854.13,-824.22"/>
<polygon fill="#000000" stroke="#000000" points="855.63,-821.03 845.28,-818.76 851.95,-826.99 855.63,-821.03"/>
<text text-anchor="middle" x="1038.49" y="-909.68" font-family="Times,serif" font-size="32.00">ε_4</text>
<text text-anchor="middle" x="1038.49" y="-874.68" font-family="Times,serif" font-size="32.00">=&gt;4 5</text>
</g>
<!-- prog -->
<g id="node19" class="node">
<title>prog</title>
<ellipse fill="none" stroke="black" cx="1038.49" cy="-759.28" rx="52.15" ry="30.31"/>
<text text-anchor="middle" x="1038.49" y="-751.18" font-family="Times,serif" font-size="32.00">prog</text>
</g>
<!-- 4&#45;&gt;prog -->
<g id="edge16" class="edge">
<title>4&#45;&gt;prog</title>
<path fill="none" stroke="#000000" d="M1252.95,-778.88C1245.71,-771.51 1236.72,-764.21 1226.82,-760.28 1186.34,-744.22 1136.95,-744.68 1099.05,-748.78"/>
<polygon fill="#000000" stroke="#000000" points="1098.2,-745.36 1088.68,-750.03 1099.03,-752.31 1098.2,-745.36"/>
<text text-anchor="middle" x="1167.82" y="-804.68" font-family="Times,serif" font-size="32.00">ing</text>
<text text-anchor="middle" x="1167.82" y="-769.68" font-family="Times,serif" font-size="32.00">=&gt;4 prog</text>
</g>
<!-- a -->
<g id="node16" class="node">
<title>a</title>
<ellipse fill="none" stroke="black" cx="1806.85" cy="-801.28" rx="27" ry="30.31"/>
<text text-anchor="middle" x="1806.85" y="-793.18" font-family="Times,serif" font-size="32.00">a</text>
</g>
<!-- a&#45;&gt;3 -->
<g id="edge13" class="edge">
<title>a&#45;&gt;3</title>
<path fill="none" stroke="#000000" d="M1779.44,-801.28C1729.96,-801.28 1623.26,-801.28 1566.91,-801.28"/>
<polygon fill="#000000" stroke="#000000" points="1566.67,-797.78 1556.67,-801.28 1566.67,-804.78 1566.67,-797.78"/>
<text text-anchor="middle" x="1685.35" y="-845.68" font-family="Times,serif" font-size="32.00">be</text>
<text text-anchor="middle" x="1685.35" y="-810.68" font-family="Times,serif" font-size="32.00">=a 3</text>
</g>
<!-- perf -->
<g id="node18" class="node">
<title>perf</title>
<ellipse fill="none" stroke="black" cx="600.08" cy="-759.28" rx="48.17" ry="30.31"/>
<text text-anchor="middle" x="600.08" y="-751.18" font-family="Times,serif" font-size="32.00">perf</text>
</g>
<!-- 5&#45;&gt;perf -->
<g id="edge14" class="edge">
<title>5&#45;&gt;perf</title>
<path fill="none" stroke="#000000" d="M804.3,-778.88C797.06,-771.52 788.07,-764.21 778.17,-760.28 739.68,-745 692.66,-745.52 656.75,-749.45"/>
<polygon fill="#000000" stroke="#000000" points="655.97,-746.02 646.46,-750.7 656.81,-752.97 655.97,-746.02"/>
<text text-anchor="middle" x="722.17" y="-804.68" font-family="Times,serif" font-size="32.00">n</text>
<text text-anchor="middle" x="722.17" y="-769.68" font-family="Times,serif" font-size="32.00">=&gt;5 perf</text>
</g>
<!-- v -->
<g id="node20" class="node">
<title>v</title>
<ellipse fill="none" stroke="black" cx="395" cy="-801.28" rx="27" ry="30.31"/>
<text text-anchor="middle" x="395" y="-793.18" font-family="Times,serif" font-size="32.00">v</text>
</g>
<!-- 5&#45;&gt;v -->
<g id="edge21" class="edge">
<title>5&#45;&gt;v</title>
<path fill="none" stroke="#000000" d="M801.06,-818.76C794.18,-823.44 786.23,-827.86 778.17,-830.28 634.21,-873.45 583.96,-873.45 440,-830.28 435.21,-828.84 430.47,-826.7 425.96,-824.22"/>
<polygon fill="#000000" stroke="#000000" points="427.46,-821.03 417.11,-818.76 423.78,-826.99 427.46,-821.03"/>
<text text-anchor="middle" x="600.08" y="-907.68" font-family="Times,serif" font-size="32.00">ε_6</text>
<text text-anchor="middle" x="600.08" y="-872.68" font-family="Times,serif" font-size="32.00">=&gt;5 v</text>
</g>
<!-- perf&#45;&gt;v -->
<g id="edge18" class="edge">
<title>perf&#45;&gt;v</title>
<path fill="none" stroke="#000000" d="M553.53,-751C520.77,-747.06 476.19,-745.9 440,-760.28 433.35,-762.92 427.11,-767.09 421.53,-771.77"/>
<polygon fill="#000000" stroke="#000000" points="418.81,-769.52 413.87,-778.89 423.58,-774.65 418.81,-769.52"/>
<text text-anchor="middle" x="487" y="-804.68" font-family="Times,serif" font-size="32.00">have</text>
<text text-anchor="middle" x="487" y="-769.68" font-family="Times,serif" font-size="32.00">=perf v</text>
</g>
<!-- prog&#45;&gt;5 -->
<g id="edge20" class="edge">
<title>prog&#45;&gt;5</title>
<path fill="none" stroke="#000000" d="M988.26,-750.35C953.47,-746.21 906.42,-745.09 868.17,-760.28 861.52,-762.92 855.27,-767.08 849.7,-771.77"/>
<polygon fill="#000000" stroke="#000000" points="846.98,-769.52 842.03,-778.89 851.74,-774.65 846.98,-769.52"/>
<text text-anchor="middle" x="918.17" y="-804.68" font-family="Times,serif" font-size="32.00">be_1</text>
<text text-anchor="middle" x="918.17" y="-769.68" font-family="Times,serif" font-size="32.00">=prog 5</text>
</g>
<!-- v&#45;&gt;2 -->
<g id="edge17" class="edge">
<title>v&#45;&gt;2</title>
<path fill="none" stroke="#000000" d="M371.68,-816.9C365.01,-820.73 357.47,-824.3 350,-826.28 317.34,-834.91 306.66,-834.91 274,-826.28 269.8,-825.17 265.57,-823.55 261.49,-821.67"/>
<polygon fill="#000000" stroke="#000000" points="262.81,-818.4 252.32,-816.9 259.58,-824.61 262.81,-818.4"/>
<text text-anchor="middle" x="312" y="-877.68" font-family="Times,serif" font-size="32.00">will</text>
<text text-anchor="middle" x="312" y="-842.68" font-family="Times,serif" font-size="32.00">=v 2</text>
</g>
<!-- v&#45;&gt;2 -->
<g id="edge19" class="edge">
<title>v&#45;&gt;2</title>
<path fill="none" stroke="#000000" d="M378.8,-776.9C371.4,-767.35 361.59,-757.45 350,-752.28 319.15,-738.52 304.85,-738.52 274,-752.28 265.67,-755.99 258.26,-762.15 252,-768.87"/>
<polygon fill="#000000" stroke="#000000" points="248.99,-767.01 245.2,-776.9 254.33,-771.53 248.99,-767.01"/>
<text text-anchor="middle" x="312" y="-796.68" font-family="Times,serif" font-size="32.00">ε_5</text>
<text text-anchor="middle" x="312" y="-761.68" font-family="Times,serif" font-size="32.00">=&gt;v 2</text>
</g>
<!-- 6&#45;&gt;3 -->
<g id="edge22" class="edge">
<title>6&#45;&gt;3</title>
<path fill="none" stroke="#000000" d="M2501.38,-601.57C2478.88,-596.94 2445.4,-590.78 2415.85,-588.28 2351.64,-582.85 2334.67,-579.28 2270.85,-588.28 1990.78,-627.76 1668.22,-747.31 1564.39,-787.75"/>
<polygon fill="#000000" stroke="#000000" points="1563.07,-784.51 1555.04,-791.41 1565.62,-791.02 1563.07,-784.51"/>
<text text-anchor="middle" x="1948.85" y="-730.68" font-family="Times,serif" font-size="32.00">ε_7</text>
<text text-anchor="middle" x="1948.85" y="-695.68" font-family="Times,serif" font-size="32.00">=&gt;6 3</text>
</g>
<!-- 7 -->
<g id="node22" class="node">
<title>7</title>
<ellipse fill="none" stroke="black" cx="2158.35" cy="-338.28" rx="27" ry="30.31"/>
<text text-anchor="middle" x="2158.35" y="-330.18" font-family="Times,serif" font-size="32.00">7</text>
</g>
<!-- 6&#45;&gt;7 -->
<g id="edge25" class="edge">
<title>6&#45;&gt;7</title>
<path fill="none" stroke="#000000" d="M2501.41,-601.98C2479.94,-596.19 2450.38,-584.74 2433.85,-563.28 2406.83,-528.19 2445.25,-498.4 2415.85,-465.28 2371.07,-414.81 2331.09,-450.69 2270.85,-420.28 2240.42,-404.91 2209.48,-381.4 2187.93,-363.48"/>
<polygon fill="#000000" stroke="#000000" points="2190.05,-360.69 2180.16,-356.91 2185.54,-366.04 2190.05,-360.69"/>
<text text-anchor="middle" x="2343.35" y="-509.68" font-family="Times,serif" font-size="32.00">ε_9</text>
<text text-anchor="middle" x="2343.35" y="-474.68" font-family="Times,serif" font-size="32.00">=&gt;6 7</text>
</g>
<!-- 8 -->
<g id="node23" class="node">
<title>8</title>
<ellipse fill="none" stroke="black" cx="2158.35" cy="-801.28" rx="27" ry="30.31"/>
<text text-anchor="middle" x="2158.35" y="-793.18" font-family="Times,serif" font-size="32.00">8</text>
</g>
<!-- 6&#45;&gt;8 -->
<g id="edge27" class="edge">
<title>6&#45;&gt;8</title>
<path fill="none" stroke="#000000" d="M2506.23,-624.77C2484.85,-641.44 2450.15,-665.81 2415.85,-678.28 2354.77,-700.48 2329.65,-669.57 2270.85,-697.28 2235.36,-714.01 2203.58,-746.24 2183.12,-770.4"/>
<polygon fill="#000000" stroke="#000000" points="2180.3,-768.32 2176.63,-778.26 2185.7,-772.78 2180.3,-768.32"/>
<text text-anchor="middle" x="2343.35" y="-741.68" font-family="Times,serif" font-size="32.00">ε_10</text>
<text text-anchor="middle" x="2343.35" y="-706.68" font-family="Times,serif" font-size="32.00">=&gt;6 8</text>
</g>
<!-- 7&#45;&gt;d -->
<g id="edge24" class="edge">
<title>7&#45;&gt;d</title>
<path fill="none" stroke="#000000" d="M2131.09,-338.28C2069.33,-338.28 1914.81,-338.28 1844.15,-338.28"/>
<polygon fill="#000000" stroke="#000000" points="1843.95,-334.78 1833.95,-338.28 1843.95,-341.78 1843.95,-334.78"/>
<text text-anchor="middle" x="1948.85" y="-382.68" font-family="Times,serif" font-size="32.00">ε_8</text>
<text text-anchor="middle" x="1948.85" y="-347.68" font-family="Times,serif" font-size="32.00">=&gt;7 poss= d &#45;k</text>
</g>
<!-- 8&#45;&gt;a -->
<g id="edge26" class="edge">
<title>8&#45;&gt;a</title>
<path fill="none" stroke="#000000" d="M2131.09,-801.28C2069.33,-801.28 1914.81,-801.28 1844.15,-801.28"/>
<polygon fill="#000000" stroke="#000000" points="1843.95,-797.78 1833.95,-801.28 1843.95,-804.78 1843.95,-797.78"/>
<text text-anchor="middle" x="1948.85" y="-845.68" font-family="Times,serif" font-size="32.00">ful</text>
<text text-anchor="middle" x="1948.85" y="-810.68" font-family="Times,serif" font-size="32.00">=&gt;8 a</text>
</g>
<!-- 9 -->
<g id="node24" class="node">
<title>9</title>
<ellipse fill="none" stroke="black" cx="2528.35" cy="-903.28" rx="27" ry="30.31"/>
<text text-anchor="middle" x="2528.35" y="-895.18" font-family="Times,serif" font-size="32.00">9</text>
</g>
<!-- 9&#45;&gt;3 -->
<g id="edge28" class="edge">
<title>9&#45;&gt;3</title>
<path fill="none" stroke="#000000" d="M2501.51,-908.87C2389.52,-931.84 1937.11,-1011.41 1608.85,-875.28 1587,-866.21 1567.59,-848.08 1553.54,-832.03"/>
<polygon fill="#000000" stroke="#000000" points="1556.21,-829.76 1547.09,-824.36 1550.85,-834.27 1556.21,-829.76"/>
<text text-anchor="middle" x="1948.85" y="-997.68" font-family="Times,serif" font-size="32.00">ε_11</text>
<text text-anchor="middle" x="1948.85" y="-962.68" font-family="Times,serif" font-size="32.00">=&gt;9 3</text>
</g>
<!-- 9&#45;&gt;7 -->
<g id="edge31" class="edge">
<title>9&#45;&gt;7</title>
<path fill="none" stroke="#000000" d="M2509.03,-881.19C2487.14,-853.45 2451.27,-803.51 2433.85,-754.28 2411.47,-690.98 2455.65,-658.36 2415.85,-604.28 2374,-547.4 2322.87,-587.05 2270.85,-539.28 2221.12,-493.61 2188.42,-420.5 2171.97,-376.18"/>
<polygon fill="#000000" stroke="#000000" points="2175.21,-374.85 2168.51,-366.64 2168.63,-377.23 2175.21,-374.85"/>
<text text-anchor="middle" x="2343.35" y="-648.68" font-family="Times,serif" font-size="32.00">ε_13</text>
<text text-anchor="middle" x="2343.35" y="-613.68" font-family="Times,serif" font-size="32.00">=&gt;9 7</text>
</g>
<!-- 10 -->
<g id="node25" class="node">
<title>10</title>
<ellipse fill="none" stroke="black" cx="2910.35" cy="-912.28" rx="33.88" ry="30.31"/>
<text text-anchor="middle" x="2910.35" y="-904.18" font-family="Times,serif" font-size="32.00">10</text>
</g>
<!-- 10&#45;&gt;3 -->
<g id="edge34" class="edge">
<title>10&#45;&gt;3</title>
<path fill="none" stroke="#000000" d="M2892.91,-938.81C2878.65,-959.72 2856.2,-988.12 2829.85,-1005.28 2713.03,-1081.36 2668.77,-1095.28 2529.35,-1095.28 2529.35,-1095.28 2529.35,-1095.28 1805.85,-1095.28 1666.66,-1095.28 1577.39,-917.64 1544.53,-838.53"/>
<polygon fill="#000000" stroke="#000000" points="1547.64,-836.88 1540.63,-828.94 1541.16,-839.52 1547.64,-836.88"/>
<text text-anchor="middle" x="2158.35" y="-1139.68" font-family="Times,serif" font-size="32.00">ε_16</text>
<text text-anchor="middle" x="2158.35" y="-1104.68" font-family="Times,serif" font-size="32.00">=&gt;10 =about 3</text>
</g>
<!-- 10&#45;&gt;7 -->
<g id="edge35" class="edge">
<title>10&#45;&gt;7</title>
<path fill="none" stroke="#000000" d="M2905.52,-882.14C2896.18,-813.79 2870.06,-650.15 2829.85,-614.28 2766.5,-557.74 2702.52,-644.66 2640.85,-586.28 2611.87,-558.83 2651.27,-526.32 2622.85,-498.28 2561.98,-438.22 2500.5,-515.85 2433.85,-462.28 2418.03,-449.56 2430.88,-433.94 2415.85,-420.28 2352.93,-363.09 2249.95,-345.77 2195.59,-340.54"/>
<polygon fill="#000000" stroke="#000000" points="2195.66,-337.03 2185.39,-339.64 2195.05,-344 2195.66,-337.03"/>
<text text-anchor="middle" x="2528.35" y="-542.68" font-family="Times,serif" font-size="32.00">ε_17</text>
<text text-anchor="middle" x="2528.35" y="-507.68" font-family="Times,serif" font-size="32.00">=&gt;10 =about 7</text>
</g>
<!-- 10&#45;&gt;8 -->
<g id="edge36" class="edge">
<title>10&#45;&gt;8</title>
<path fill="none" stroke="#000000" d="M2890.09,-937.11C2875.57,-953.68 2854.06,-974.04 2829.85,-983.28 2751.37,-1013.22 2724.45,-991.48 2640.85,-983.28 2472.32,-966.75 2420.19,-972.14 2270.85,-892.28 2239.06,-875.28 2207.69,-848.54 2186.36,-828.43"/>
<polygon fill="#000000" stroke="#000000" points="2188.62,-825.75 2178.98,-821.36 2183.78,-830.8 2188.62,-825.75"/>
<text text-anchor="middle" x="2528.35" y="-1025.68" font-family="Times,serif" font-size="32.00">ε_18</text>
<text text-anchor="middle" x="2528.35" y="-990.68" font-family="Times,serif" font-size="32.00">=&gt;10 =about 8</text>
</g>
<!-- 10&#45;&gt;9 -->
<g id="edge29" class="edge">
<title>10&#45;&gt;9</title>
<path fill="none" stroke="#000000" d="M2876.3,-911.5C2805.39,-909.82 2639.16,-905.88 2565.54,-904.14"/>
<polygon fill="#000000" stroke="#000000" points="2565.46,-900.63 2555.38,-903.89 2565.29,-907.63 2565.46,-900.63"/>
<text text-anchor="middle" x="2735.35" y="-955.68" font-family="Times,serif" font-size="32.00">ε_12</text>
<text text-anchor="middle" x="2735.35" y="-920.68" font-family="Times,serif" font-size="32.00">=&gt;10 =of 9</text>
</g>
<!-- 11 -->
<g id="node27" class="node">
<title>11</title>
<ellipse fill="none" stroke="black" cx="2528.35" cy="-715.28" rx="33.88" ry="30.31"/>
<text text-anchor="middle" x="2528.35" y="-707.18" font-family="Times,serif" font-size="32.00">11</text>
</g>
<!-- 10&#45;&gt;11 -->
<g id="edge33" class="edge">
<title>10&#45;&gt;11</title>
<path fill="none" stroke="#000000" d="M2906.1,-881.76C2899.74,-839.06 2881.41,-762.74 2829.85,-727.28 2789.31,-699.4 2645.58,-706.07 2572.58,-711.52"/>
<polygon fill="#000000" stroke="#000000" points="2572.04,-708.06 2562.34,-712.32 2572.58,-715.03 2572.04,-708.06"/>
<text text-anchor="middle" x="2735.35" y="-771.68" font-family="Times,serif" font-size="32.00">ε_15</text>
<text text-anchor="middle" x="2735.35" y="-736.68" font-family="Times,serif" font-size="32.00">=&gt;10 11</text>
</g>
<!-- z3 -->
<g id="node26" class="node">
<title>z3</title>
<ellipse fill="none" stroke="black" stroke-dasharray="5,2" cx="3158.8" cy="-912.28" rx="27" ry="18"/>
</g>
<!-- z3&#45;&gt;10 -->
<g id="edge30" class="edge">
<title>z3&#45;&gt;10</title>
<path fill="none" stroke="#000000" d="M3131.42,-912.28C3089.14,-912.28 3005.75,-912.28 2954.64,-912.28"/>
<polygon fill="#000000" stroke="#000000" points="2954.56,-908.78 2944.56,-912.28 2954.56,-915.78 2954.56,-908.78"/>
<text text-anchor="middle" x="3048.85" y="-956.68" font-family="Times,serif" font-size="32.00">boast</text>
<text text-anchor="middle" x="3048.85" y="-921.68" font-family="Times,serif" font-size="32.00">10</text>
</g>
<!-- 11&#45;&gt;8 -->
<g id="edge32" class="edge">
<title>11&#45;&gt;8</title>
<path fill="none" stroke="#000000" d="M2500.07,-732.39C2478.16,-745.27 2446.15,-762.21 2415.85,-771.28 2375.54,-783.35 2256.42,-793.85 2195.75,-798.59"/>
<polygon fill="#000000" stroke="#000000" points="2195.19,-795.12 2185.48,-799.38 2195.72,-802.1 2195.19,-795.12"/>
<text text-anchor="middle" x="2343.35" y="-836.68" font-family="Times,serif" font-size="32.00">ε_14</text>
<text text-anchor="middle" x="2343.35" y="-801.68" font-family="Times,serif" font-size="32.00">=&gt;11 =of 8</text>
</g>
<!-- 12 -->
<g id="node28" class="node">
<title>12</title>
<ellipse fill="none" stroke="black" cx="2528.35" cy="-423.28" rx="33.88" ry="30.31"/>
<text text-anchor="middle" x="2528.35" y="-415.18" font-family="Times,serif" font-size="32.00">12</text>
</g>
<!-- 12&#45;&gt;3 -->
<g id="edge37" class="edge">
<title>12&#45;&gt;3</title>
<path fill="none" stroke="#000000" d="M2494.39,-421.2C2375.24,-414.18 1967.84,-394.69 1851.85,-448.28 1774.35,-484.09 1613.4,-690.83 1553.48,-770.23"/>
<polygon fill="#000000" stroke="#000000" points="1550.55,-768.3 1547.34,-778.39 1556.15,-772.5 1550.55,-768.3"/>
<text text-anchor="middle" x="1948.85" y="-492.68" font-family="Times,serif" font-size="32.00">ε_19</text>
<text text-anchor="middle" x="1948.85" y="-457.68" font-family="Times,serif" font-size="32.00">=&gt;12 =d *k 3</text>
</g>
<!-- z4 -->
<g id="node29" class="node">
<title>z4</title>
<ellipse fill="none" stroke="black" stroke-dasharray="5,2" cx="3158.8" cy="-486.28" rx="27" ry="18"/>
</g>
<!-- 13 -->
<g id="node30" class="node">
<title>13</title>
<ellipse fill="none" stroke="black" cx="2910.35" cy="-515.28" rx="33.88" ry="30.31"/>
<text text-anchor="middle" x="2910.35" y="-507.18" font-family="Times,serif" font-size="32.00">13</text>
</g>
<!-- z4&#45;&gt;13 -->
<g id="edge38" class="edge">
<title>z4&#45;&gt;13</title>
<path fill="none" stroke="#000000" d="M3131.82,-483.79C3098.79,-481.23 3040.11,-478.71 2990.85,-487.28 2977.55,-489.59 2963.5,-493.88 2950.97,-498.42"/>
<polygon fill="#000000" stroke="#000000" points="2949.41,-495.26 2941.3,-502.07 2951.89,-501.81 2949.41,-495.26"/>
<text text-anchor="middle" x="3048.85" y="-601.68" font-family="Times,serif" font-size="32.00">fear |</text>
<text text-anchor="middle" x="3048.85" y="-566.68" font-family="Times,serif" font-size="32.00"> neglect |</text>
<text text-anchor="middle" x="3048.85" y="-531.68" font-family="Times,serif" font-size="32.00"> scorn</text>
<text text-anchor="middle" x="3048.85" y="-496.68" font-family="Times,serif" font-size="32.00">13</text>
</g>
<!-- 13&#45;&gt;7 -->
<g id="edge39" class="edge">
<title>13&#45;&gt;7</title>
<path fill="none" stroke="#000000" d="M2896.76,-487.41C2883.72,-458.08 2863.16,-410.4 2847.85,-368.28 2838.64,-342.91 2851.59,-326.29 2829.85,-310.28 2778.65,-272.56 2327.07,-319.55 2195.3,-334.19"/>
<polygon fill="#000000" stroke="#000000" points="2194.86,-330.72 2185.31,-335.31 2195.64,-337.67 2194.86,-330.72"/>
<text text-anchor="middle" x="2528.35" y="-354.68" font-family="Times,serif" font-size="32.00">ε_20</text>
<text text-anchor="middle" x="2528.35" y="-319.68" font-family="Times,serif" font-size="32.00">=&gt;13 =of 7</text>
</g>
<!-- 13&#45;&gt;11 -->
<g id="edge41" class="edge">
<title>13&#45;&gt;11</title>
<path fill="none" stroke="#000000" d="M2889.62,-539.82C2874.87,-556.52 2853.29,-577.78 2829.85,-590.28 2753.84,-630.82 2719.2,-597.45 2640.85,-633.28 2639.75,-633.78 2595.88,-666.13 2563.51,-690.04"/>
<polygon fill="#000000" stroke="#000000" points="2561.11,-687.46 2555.14,-696.22 2565.26,-693.09 2561.11,-687.46"/>
<text text-anchor="middle" x="2735.35" y="-677.68" font-family="Times,serif" font-size="32.00">ε_22</text>
<text text-anchor="middle" x="2735.35" y="-642.68" font-family="Times,serif" font-size="32.00">=&gt;13 11</text>
</g>
<!-- 13&#45;&gt;12 -->
<g id="edge40" class="edge">
<title>13&#45;&gt;12</title>
<path fill="none" stroke="#000000" d="M2876.17,-516.03C2813.39,-516.89 2680.05,-515.9 2640.85,-493.28 2628.68,-486.25 2633.58,-476.36 2622.85,-467.28 2607.49,-454.27 2587.63,-444.21 2570.17,-437.02"/>
<polygon fill="#000000" stroke="#000000" points="2571.34,-433.72 2560.76,-433.31 2568.78,-440.23 2571.34,-433.72"/>
<text text-anchor="middle" x="2735.35" y="-560.68" font-family="Times,serif" font-size="32.00">ε_21</text>
<text text-anchor="middle" x="2735.35" y="-525.68" font-family="Times,serif" font-size="32.00">=&gt;13 12</text>
</g>
<!-- z5 -->
<g id="node31" class="node">
<title>z5</title>
<ellipse fill="none" stroke="black" stroke-dasharray="5,2" cx="3158.8" cy="-329.28" rx="27" ry="18"/>
</g>
<!-- 14 -->
<g id="node32" class="node">
<title>14</title>
<ellipse fill="none" stroke="black" cx="2910.35" cy="-329.28" rx="33.88" ry="30.31"/>
<text text-anchor="middle" x="2910.35" y="-321.18" font-family="Times,serif" font-size="32.00">14</text>
</g>
<!-- z5&#45;&gt;14 -->
<g id="edge42" class="edge">
<title>z5&#45;&gt;14</title>
<path fill="none" stroke="#000000" d="M3131.42,-329.28C3089.14,-329.28 3005.75,-329.28 2954.64,-329.28"/>
<polygon fill="#000000" stroke="#000000" points="2954.56,-325.78 2944.56,-329.28 2954.56,-332.78 2954.56,-325.78"/>
<text text-anchor="middle" x="3048.85" y="-408.68" font-family="Times,serif" font-size="32.00">respect |</text>
<text text-anchor="middle" x="3048.85" y="-373.68" font-family="Times,serif" font-size="32.00"> disdain</text>
<text text-anchor="middle" x="3048.85" y="-338.68" font-family="Times,serif" font-size="32.00">14</text>
</g>
<!-- 14&#45;&gt;7 -->
<g id="edge43" class="edge">
<title>14&#45;&gt;7</title>
<path fill="none" stroke="#000000" d="M2882.53,-311.49C2867.47,-301.99 2848.09,-290.59 2829.85,-282.28 2667.31,-208.16 2608.44,-175.4 2433.85,-213.28 2340.39,-233.56 2240.58,-288.52 2191.04,-318.36"/>
<polygon fill="#000000" stroke="#000000" points="2189.11,-315.44 2182.39,-323.62 2192.75,-321.42 2189.11,-315.44"/>
<text text-anchor="middle" x="2528.35" y="-257.68" font-family="Times,serif" font-size="32.00">ε_23</text>
<text text-anchor="middle" x="2528.35" y="-222.68" font-family="Times,serif" font-size="32.00">=&gt;14 =for 7</text>
</g>
<!-- 14&#45;&gt;11 -->
<g id="edge45" class="edge">
<title>14&#45;&gt;11</title>
<path fill="none" stroke="#000000" d="M2889.47,-353.72C2874.81,-369.88 2853.4,-389.92 2829.85,-400.28 2791.22,-417.28 2670.39,-389.12 2640.85,-419.28 2605.45,-455.44 2647.43,-602.04 2622.85,-646.28 2610.62,-668.3 2588.07,-685.26 2568.19,-696.85"/>
<polygon fill="#000000" stroke="#000000" points="2566.32,-693.88 2559.28,-701.8 2569.73,-700 2566.32,-693.88"/>
<text text-anchor="middle" x="2735.35" y="-463.68" font-family="Times,serif" font-size="32.00">ε_25</text>
<text text-anchor="middle" x="2735.35" y="-428.68" font-family="Times,serif" font-size="32.00">=&gt;14 11</text>
</g>
<!-- 14&#45;&gt;12 -->
<g id="edge44" class="edge">
<title>14&#45;&gt;12</title>
<path fill="none" stroke="#000000" d="M2878.21,-318.93C2824.38,-303.14 2712.81,-279.85 2640.85,-330.28 2621.85,-343.59 2638.52,-362.17 2622.85,-379.28 2609.05,-394.35 2589.02,-404.72 2571.04,-411.59"/>
<polygon fill="#000000" stroke="#000000" points="2569.56,-408.4 2561.31,-415.05 2571.91,-414.99 2569.56,-408.4"/>
<text text-anchor="middle" x="2735.35" y="-374.68" font-family="Times,serif" font-size="32.00">ε_24</text>
<text text-anchor="middle" x="2735.35" y="-339.68" font-family="Times,serif" font-size="32.00">=&gt;14 12</text>
</g>
<!-- z6 -->
<g id="node33" class="node">
<title>z6</title>
<ellipse fill="none" stroke="black" stroke-dasharray="5,2" cx="3328.74" cy="-649.28" rx="27" ry="18"/>
</g>
<!-- 15 -->
<g id="node34" class="node">
<title>15</title>
<ellipse fill="none" stroke="black" cx="3158.8" cy="-649.28" rx="33.88" ry="30.31"/>
<text text-anchor="middle" x="3158.8" y="-641.18" font-family="Times,serif" font-size="32.00">15</text>
</g>
<!-- z6&#45;&gt;15 -->
<g id="edge46" class="edge">
<title>z6&#45;&gt;15</title>
<path fill="none" stroke="#000000" d="M3301.5,-649.28C3275.14,-649.28 3234.07,-649.28 3202.92,-649.28"/>
<polygon fill="#000000" stroke="#000000" points="3202.78,-645.78 3192.78,-649.28 3202.78,-652.78 3202.78,-645.78"/>
<text text-anchor="middle" x="3247.24" y="-693.68" font-family="Times,serif" font-size="32.00">doubt</text>
<text text-anchor="middle" x="3247.24" y="-658.68" font-family="Times,serif" font-size="32.00">15</text>
</g>
<!-- 15&#45;&gt;7 -->
<g id="edge48" class="edge">
<title>15&#45;&gt;7</title>
<path fill="none" stroke="#000000" d="M3149.37,-619.82C3141.86,-592.44 3131.1,-550.41 3124.85,-513.28 3117.9,-471.89 3128.12,-361.46 3106.85,-325.28 3031.09,-196.35 2972.64,-178.73 2829.85,-134.28 2590.16,-59.65 2456.2,-45.97 2270.85,-215.28 2251.24,-233.2 2268.53,-250.83 2252.85,-272.28 2237.2,-293.7 2212.43,-310.74 2192.32,-322.13"/>
<polygon fill="#000000" stroke="#000000" points="2190.56,-319.1 2183.46,-326.96 2193.91,-325.25 2190.56,-319.1"/>
<text text-anchor="middle" x="2735.35" y="-178.68" font-family="Times,serif" font-size="32.00">ε_27</text>
<text text-anchor="middle" x="2735.35" y="-143.68" font-family="Times,serif" font-size="32.00">=&gt;15 =about 7</text>
</g>
<!-- 15&#45;&gt;8 -->
<g id="edge49" class="edge">
<title>15&#45;&gt;8</title>
<path fill="none" stroke="#000000" d="M3145.75,-677.72C3137.23,-694.53 3124.23,-714.88 3106.85,-727.28 3043.15,-772.75 2493.88,-858.01 2415.85,-864.28 2351.62,-869.44 2333.18,-880.67 2270.85,-864.28 2240.99,-856.43 2210.72,-838.55 2189.27,-823.84"/>
<polygon fill="#000000" stroke="#000000" points="2191.12,-820.87 2180.93,-817.98 2187.09,-826.59 2191.12,-820.87"/>
<text text-anchor="middle" x="2735.35" y="-875.68" font-family="Times,serif" font-size="32.00">ε_28</text>
<text text-anchor="middle" x="2735.35" y="-840.68" font-family="Times,serif" font-size="32.00">=&gt;15 =about 8</text>
</g>
<!-- 15&#45;&gt;13 -->
<g id="edge47" class="edge">
<title>15&#45;&gt;13</title>
<path fill="none" stroke="#000000" d="M3124.85,-652.37C3089.23,-654.1 3032.05,-652.1 2990.85,-627.28 2962.21,-610.02 2941.08,-578.04 2927.84,-552.67"/>
<polygon fill="#000000" stroke="#000000" points="2930.93,-551.02 2923.32,-543.65 2924.68,-554.16 2930.93,-551.02"/>
<text text-anchor="middle" x="3048.85" y="-697.68" font-family="Times,serif" font-size="32.00">ε_26</text>
<text text-anchor="middle" x="3048.85" y="-662.68" font-family="Times,serif" font-size="32.00">=&gt;15 13</text>
</g>
</g>
</svg>
