<?xml version="1.0" encoding="UTF-8" standalone="no"?>
<!DOCTYPE svg PUBLIC "-//W3C//DTD SVG 1.1//EN"
 "http://www.w3.org/Graphics/SVG/1.1/DTD/svg11.dtd">
<!-- Generated by graphviz version 2.47.1 (20210417.1919)
 -->
<!-- Title: G Pages: 1 -->
<svg width="2744pt" height="1521pt"
 viewBox="0.00 0.00 2743.64 1521.16" xmlns="http://www.w3.org/2000/svg" xmlns:xlink="http://www.w3.org/1999/xlink">
<g id="graph0" class="graph" transform="scale(1 1) rotate(0) translate(4 1517.16)">
<title>G</title>
<polygon fill="white" stroke="transparent" points="-4,4 -4,-1517.16 2739.64,-1517.16 2739.64,4 -4,4"/>
<text text-anchor="middle" x="1367.82" y="-13.4" font-family="Times,serif" font-size="32.00">decomposition: be =a =da v, hope =for =da v, boast =of =da v, boast =about =da v, &#160;=&gt;0 =da v</text>
<!-- t -->
<g id="node1" class="node">
<title>t</title>
<ellipse fill="lightgray" stroke="black" cx="27" cy="-477.16" rx="27" ry="30.31"/>
<text text-anchor="middle" x="27" y="-469.06" font-family="Times,serif" font-size="32.00">t</text>
</g>
<!-- z0 -->
<g id="node2" class="node">
<title>z0</title>
<ellipse fill="none" stroke="black" stroke-dasharray="5,2" cx="2698.17" cy="-1280.16" rx="27" ry="18"/>
</g>
<!-- da -->
<g id="node3" class="node">
<title>da</title>
<ellipse fill="none" stroke="black" cx="2375.36" cy="-1280.16" rx="33.47" ry="30.31"/>
<text text-anchor="middle" x="2375.36" y="-1272.06" font-family="Times,serif" font-size="32.00">da</text>
</g>
<!-- z0&#45;&gt;da -->
<g id="edge1" class="edge">
<title>z0&#45;&gt;da</title>
<path fill="none" stroke="#000000" d="M2670.91,-1280.16C2615.52,-1280.16 2486.24,-1280.16 2418.88,-1280.16"/>
<polygon fill="#000000" stroke="#000000" points="2418.62,-1276.66 2408.62,-1280.16 2418.62,-1283.66 2418.62,-1276.66"/>
<text text-anchor="middle" x="2544.19" y="-1359.56" font-family="Times,serif" font-size="32.00">Mary |</text>
<text text-anchor="middle" x="2544.19" y="-1324.56" font-family="Times,serif" font-size="32.00"> John</text>
<text text-anchor="middle" x="2544.19" y="-1289.56" font-family="Times,serif" font-size="32.00">da &#45;k</text>
</g>
<!-- z1 -->
<g id="node4" class="node">
<title>z1</title>
<ellipse fill="none" stroke="black" stroke-dasharray="5,2" cx="2698.17" cy="-1408.16" rx="27" ry="18"/>
</g>
<!-- poss -->
<g id="node5" class="node">
<title>poss</title>
<ellipse fill="none" stroke="black" cx="2375.36" cy="-1408.16" rx="52.15" ry="30.31"/>
<text text-anchor="middle" x="2375.36" y="-1400.06" font-family="Times,serif" font-size="32.00">poss</text>
</g>
<!-- z1&#45;&gt;poss -->
<g id="edge2" class="edge">
<title>z1&#45;&gt;poss</title>
<path fill="none" stroke="#000000" d="M2670.91,-1408.16C2620.35,-1408.16 2508.25,-1408.16 2437.84,-1408.16"/>
<polygon fill="#000000" stroke="#000000" points="2437.77,-1404.66 2427.77,-1408.16 2437.77,-1411.66 2437.77,-1404.66"/>
<text text-anchor="middle" x="2544.19" y="-1487.56" font-family="Times,serif" font-size="32.00">Mary&#39;s |</text>
<text text-anchor="middle" x="2544.19" y="-1452.56" font-family="Times,serif" font-size="32.00"> John&#39;s</text>
<text text-anchor="middle" x="2544.19" y="-1417.56" font-family="Times,serif" font-size="32.00">poss</text>
</g>
<!-- z2 -->
<g id="node6" class="node">
<title>z2</title>
<ellipse fill="none" stroke="black" stroke-dasharray="5,2" cx="2698.17" cy="-901.16" rx="27" ry="18"/>
</g>
<!-- d -->
<g id="node7" class="node">
<title>d</title>
<ellipse fill="none" stroke="black" cx="2375.36" cy="-738.16" rx="27" ry="30.31"/>
<text text-anchor="middle" x="2375.36" y="-730.06" font-family="Times,serif" font-size="32.00">d</text>
</g>
<!-- z2&#45;&gt;d -->
<g id="edge3" class="edge">
<title>z2&#45;&gt;d</title>
<path fill="none" stroke="#000000" d="M2672.03,-906.44C2623.53,-915.13 2515.65,-927.08 2445.69,-879.16 2411.53,-855.76 2393.5,-810.54 2384.49,-777.6"/>
<polygon fill="#000000" stroke="#000000" points="2387.85,-776.62 2381.97,-767.81 2381.07,-778.36 2387.85,-776.62"/>
<text text-anchor="middle" x="2544.19" y="-959.56" font-family="Times,serif" font-size="32.00">the&#45;cause</text>
<text text-anchor="middle" x="2544.19" y="-924.56" font-family="Times,serif" font-size="32.00">d &#45;k</text>
</g>
<!-- for -->
<g id="node8" class="node">
<title>for</title>
<ellipse fill="none" stroke="black" cx="2698.17" cy="-692.16" rx="37.45" ry="30.31"/>
<text text-anchor="middle" x="2698.17" y="-684.06" font-family="Times,serif" font-size="32.00">for</text>
</g>
<!-- d&#45;&gt;for -->
<g id="edge4" class="edge">
<title>d&#45;&gt;for</title>
<path fill="none" stroke="#000000" d="M2388.14,-711.23C2399.4,-689.22 2418.66,-659.64 2445.69,-646.16 2524.04,-607.09 2560.46,-616.09 2642.69,-646.16 2651.65,-649.44 2660.16,-654.92 2667.67,-660.97"/>
<polygon fill="#000000" stroke="#000000" points="2665.56,-663.77 2675.4,-667.69 2670.15,-658.49 2665.56,-663.77"/>
<text text-anchor="middle" x="2544.19" y="-690.56" font-family="Times,serif" font-size="32.00">for</text>
<text text-anchor="middle" x="2544.19" y="-655.56" font-family="Times,serif" font-size="32.00">=d *k for</text>
</g>
<!-- of -->
<g id="node9" class="node">
<title>of</title>
<ellipse fill="none" stroke="black" cx="1994.52" cy="-593.16" rx="30.31" ry="30.31"/>
<text text-anchor="middle" x="1994.52" y="-585.06" font-family="Times,serif" font-size="32.00">of</text>
</g>
<!-- d&#45;&gt;of -->
<g id="edge5" class="edge">
<title>d&#45;&gt;of</title>
<path fill="none" stroke="#000000" d="M2348.12,-737.58C2279.29,-735.85 2097.27,-730.02 2074.04,-716.16 2042.27,-697.21 2021.2,-659.87 2008.96,-631.28"/>
<polygon fill="#000000" stroke="#000000" points="2012.17,-629.89 2005.14,-621.96 2005.69,-632.54 2012.17,-629.89"/>
<text text-anchor="middle" x="2189.54" y="-781.56" font-family="Times,serif" font-size="32.00">of</text>
<text text-anchor="middle" x="2189.54" y="-746.56" font-family="Times,serif" font-size="32.00">=d *k of</text>
</g>
<!-- about -->
<g id="node10" class="node">
<title>about</title>
<ellipse fill="none" stroke="black" cx="1994.52" cy="-959.16" rx="61.54" ry="30.31"/>
<text text-anchor="middle" x="1994.52" y="-951.06" font-family="Times,serif" font-size="32.00">about</text>
</g>
<!-- d&#45;&gt;about -->
<g id="edge6" class="edge">
<title>d&#45;&gt;about</title>
<path fill="none" stroke="#000000" d="M2373.56,-768.66C2370.57,-813.64 2357.77,-896.8 2305.04,-937.16 2235.25,-990.57 2128.73,-984.85 2060.62,-973.67"/>
<polygon fill="#000000" stroke="#000000" points="2060.89,-970.16 2050.44,-971.91 2059.7,-977.06 2060.89,-970.16"/>
<text text-anchor="middle" x="2189.54" y="-1025.56" font-family="Times,serif" font-size="32.00">about</text>
<text text-anchor="middle" x="2189.54" y="-990.56" font-family="Times,serif" font-size="32.00">=d *k about</text>
</g>
<!-- 0 -->
<g id="node11" class="node">
<title>0</title>
<ellipse fill="none" stroke="black" cx="1281.5" cy="-407.16" rx="27" ry="30.31"/>
<text text-anchor="middle" x="1281.5" y="-399.06" font-family="Times,serif" font-size="32.00">0</text>
</g>
<!-- d&#45;&gt;0 -->
<g id="edge34" class="edge">
<title>d&#45;&gt;0</title>
<path fill="none" stroke="#000000" d="M2375.19,-707.37C2375.03,-651.31 2366.88,-531.7 2305.04,-459.16 2182.81,-315.8 2099.6,-330.81 1915,-293.16 1686.92,-246.65 1410.54,-351.65 1316.04,-392.11"/>
<polygon fill="#000000" stroke="#000000" points="1314.49,-388.97 1306.7,-396.15 1317.27,-395.39 1314.49,-388.97"/>
<text text-anchor="middle" x="1826" y="-512.56" font-family="Times,serif" font-size="32.00">fear |</text>
<text text-anchor="middle" x="1826" y="-477.56" font-family="Times,serif" font-size="32.00"> neglect |</text>
<text text-anchor="middle" x="1826" y="-442.56" font-family="Times,serif" font-size="32.00"> scorn |</text>
<text text-anchor="middle" x="1826" y="-407.56" font-family="Times,serif" font-size="32.00"> respect |</text>
<text text-anchor="middle" x="1826" y="-372.56" font-family="Times,serif" font-size="32.00"> disdain |</text>
<text text-anchor="middle" x="1826" y="-337.56" font-family="Times,serif" font-size="32.00"> doubt</text>
<text text-anchor="middle" x="1826" y="-302.56" font-family="Times,serif" font-size="32.00">=d *k 0</text>
</g>
<!-- for&#45;&gt;d -->
<g id="edge22" class="edge">
<title>for&#45;&gt;d</title>
<path fill="none" stroke="#000000" d="M2666.11,-707.96C2658.61,-711.17 2650.5,-714.18 2642.69,-716.16 2562.34,-736.57 2464.4,-739.21 2412.58,-738.94"/>
<polygon fill="#000000" stroke="#000000" points="2412.57,-735.44 2402.54,-738.85 2412.51,-742.44 2412.57,-735.44"/>
<text text-anchor="middle" x="2544.19" y="-853.56" font-family="Times,serif" font-size="32.00">hope_2 |</text>
<text text-anchor="middle" x="2544.19" y="-818.56" font-family="Times,serif" font-size="32.00"> respect_1 |</text>
<text text-anchor="middle" x="2544.19" y="-783.56" font-family="Times,serif" font-size="32.00"> disdain_1</text>
<text text-anchor="middle" x="2544.19" y="-748.56" font-family="Times,serif" font-size="32.00">=for poss= d &#45;k</text>
</g>
<!-- for&#45;&gt;0 -->
<g id="edge19" class="edge">
<title>for&#45;&gt;0</title>
<path fill="none" stroke="#000000" d="M2695.65,-661.62C2690.57,-565.41 2672.77,-273.22 2642.69,-244.16 2352.47,36.17 2135.21,-116.03 1737,-181.16 1570.42,-208.41 1518.09,-209.5 1377,-302.16 1347.79,-321.35 1321.82,-351.71 1304.53,-374.86"/>
<polygon fill="#000000" stroke="#000000" points="1301.64,-372.89 1298.56,-383.03 1307.29,-377.02 1301.64,-372.89"/>
<text text-anchor="middle" x="1994.52" y="-184.56" font-family="Times,serif" font-size="32.00">hope</text>
<text text-anchor="middle" x="1994.52" y="-149.56" font-family="Times,serif" font-size="32.00">=for 0</text>
</g>
<!-- a -->
<g id="node12" class="node">
<title>a</title>
<ellipse fill="none" stroke="black" cx="1662.5" cy="-971.16" rx="27" ry="30.31"/>
<text text-anchor="middle" x="1662.5" y="-963.06" font-family="Times,serif" font-size="32.00">a</text>
</g>
<!-- for&#45;&gt;a -->
<g id="edge23" class="edge">
<title>for&#45;&gt;a</title>
<path fill="none" stroke="#000000" d="M2690.77,-722.04C2683.16,-758.04 2670.28,-820.39 2660.69,-874.16 2656.15,-899.63 2660.63,-970.53 2642.69,-989.16 2502.34,-1134.92 1915.06,-1179.29 1737,-1083.16 1707.93,-1067.47 1688.49,-1034.7 1676.94,-1008.65"/>
<polygon fill="#000000" stroke="#000000" points="1680.15,-1007.25 1673.04,-999.4 1673.7,-1009.97 1680.15,-1007.25"/>
<text text-anchor="middle" x="2189.54" y="-1178.56" font-family="Times,serif" font-size="32.00">hopeful</text>
<text text-anchor="middle" x="2189.54" y="-1143.56" font-family="Times,serif" font-size="32.00">=for a</text>
</g>
<!-- 1 -->
<g id="node13" class="node">
<title>1</title>
<ellipse fill="none" stroke="black" cx="909" cy="-991.16" rx="27" ry="30.31"/>
<text text-anchor="middle" x="909" y="-983.06" font-family="Times,serif" font-size="32.00">1</text>
</g>
<!-- for&#45;&gt;1 -->
<g id="edge20" class="edge">
<title>for&#45;&gt;1</title>
<path fill="none" stroke="#f7931d" stroke-width="2" d="M2690.27,-721.96C2682.18,-757.87 2668.83,-820.15 2660.69,-874.16 2654.8,-913.26 2663.38,-1017.47 2642.69,-1051.16 2569.08,-1171.03 2517.03,-1222.16 2376.36,-1222.16 2376.36,-1222.16 2376.36,-1222.16 1280.5,-1222.16 1129.66,-1222.16 989.46,-1082.59 934.5,-1020.43"/>
<polygon fill="#f7931d" stroke="#f7931d" stroke-width="2" points="937.13,-1018.12 927.92,-1012.89 931.86,-1022.73 937.13,-1018.12"/>
<text text-anchor="middle" x="1826" y="-1266.56" font-family="Times,serif" font-size="32.00">hope_1</text>
<text text-anchor="middle" x="1826" y="-1231.56" font-family="Times,serif" font-size="32.00">=for 1</text>
</g>
<!-- prog -->
<g id="node16" class="node">
<title>prog</title>
<ellipse fill="none" stroke="black" cx="909" cy="-565.16" rx="52.15" ry="30.31"/>
<text text-anchor="middle" x="909" y="-557.06" font-family="Times,serif" font-size="32.00">prog</text>
</g>
<!-- for&#45;&gt;prog -->
<g id="edge21" class="edge">
<title>for&#45;&gt;prog</title>
<path fill="none" stroke="#000000" d="M2680.14,-665.37C2670.03,-650.28 2656.51,-631.46 2642.69,-616.16 2508.5,-467.65 2480.9,-413.74 2305.04,-318.16 2154.19,-236.18 2097.16,-264.43 1933,-214.16 1924.94,-211.69 1923.32,-209.51 1915,-208.16 1510.45,-142.51 1295.75,-95.4 1011,-390.16 984.47,-417.62 1010.47,-440.21 993,-474.16 981.63,-496.26 963.48,-517.04 947.05,-533.16"/>
<polygon fill="#000000" stroke="#000000" points="944.47,-530.78 939.65,-540.22 949.3,-535.84 944.47,-530.78"/>
<text text-anchor="middle" x="1826" y="-252.56" font-family="Times,serif" font-size="32.00">hopeing</text>
<text text-anchor="middle" x="1826" y="-217.56" font-family="Times,serif" font-size="32.00">=for =da prog</text>
</g>
<!-- of&#45;&gt;d -->
<g id="edge27" class="edge">
<title>of&#45;&gt;d</title>
<path fill="none" stroke="#000000" d="M2009.85,-566.41C2023.22,-544.58 2045.39,-515.28 2074.04,-502.16 2167.38,-459.41 2222.84,-440.64 2305.04,-502.16 2336.47,-525.69 2358.51,-637.16 2368.44,-698.11"/>
<polygon fill="#000000" stroke="#000000" points="2365.01,-698.83 2370.04,-708.15 2371.92,-697.73 2365.01,-698.83"/>
<text text-anchor="middle" x="2189.54" y="-686.56" font-family="Times,serif" font-size="32.00">boast_2 |</text>
<text text-anchor="middle" x="2189.54" y="-651.56" font-family="Times,serif" font-size="32.00"> fear_1 |</text>
<text text-anchor="middle" x="2189.54" y="-616.56" font-family="Times,serif" font-size="32.00"> neglect_1 |</text>
<text text-anchor="middle" x="2189.54" y="-581.56" font-family="Times,serif" font-size="32.00"> scorn_1 |</text>
<text text-anchor="middle" x="2189.54" y="-546.56" font-family="Times,serif" font-size="32.00"> doubt_1</text>
<text text-anchor="middle" x="2189.54" y="-511.56" font-family="Times,serif" font-size="32.00">=of poss= d &#45;k</text>
</g>
<!-- of&#45;&gt;0 -->
<g id="edge24" class="edge">
<title>of&#45;&gt;0</title>
<path fill="none" stroke="#000000" d="M1965.4,-583.97C1950.53,-579.35 1931.91,-573.95 1915,-570.16 1836.85,-552.65 1800.43,-591.05 1737,-542.16 1721.24,-530.01 1734.42,-513.75 1719,-501.16 1598.89,-403.11 1400,-400.9 1318.76,-404.62"/>
<polygon fill="#000000" stroke="#000000" points="1318.35,-401.13 1308.55,-405.14 1318.71,-408.12 1318.35,-401.13"/>
<text text-anchor="middle" x="1662.5" y="-545.56" font-family="Times,serif" font-size="32.00">boast</text>
<text text-anchor="middle" x="1662.5" y="-510.56" font-family="Times,serif" font-size="32.00">=of 0</text>
</g>
<!-- of&#45;&gt;a -->
<g id="edge28" class="edge">
<title>of&#45;&gt;a</title>
<path fill="none" stroke="#000000" d="M1965.6,-602.89C1899.95,-625.82 1740.99,-681.66 1737,-686.16 1713.41,-712.79 1727.61,-729.64 1719,-764.16 1704.28,-823.19 1685.72,-891.27 1674.23,-932.75"/>
<polygon fill="#000000" stroke="#000000" points="1670.84,-931.87 1671.54,-942.45 1677.59,-933.75 1670.84,-931.87"/>
<text text-anchor="middle" x="1826" y="-940.56" font-family="Times,serif" font-size="32.00">boastful |</text>
<text text-anchor="middle" x="1826" y="-905.56" font-family="Times,serif" font-size="32.00"> fearful |</text>
<text text-anchor="middle" x="1826" y="-870.56" font-family="Times,serif" font-size="32.00"> neglectful |</text>
<text text-anchor="middle" x="1826" y="-835.56" font-family="Times,serif" font-size="32.00"> scornful |</text>
<text text-anchor="middle" x="1826" y="-800.56" font-family="Times,serif" font-size="32.00"> respectful |</text>
<text text-anchor="middle" x="1826" y="-765.56" font-family="Times,serif" font-size="32.00"> disdainful |</text>
<text text-anchor="middle" x="1826" y="-730.56" font-family="Times,serif" font-size="32.00"> doubtful</text>
<text text-anchor="middle" x="1826" y="-695.56" font-family="Times,serif" font-size="32.00">=of a</text>
</g>
<!-- of&#45;&gt;1 -->
<g id="edge25" class="edge">
<title>of&#45;&gt;1</title>
<path fill="none" stroke="#f7931d" stroke-width="2" d="M1964.04,-592.52C1904.35,-591.8 1771.89,-593.36 1737,-620.16 1719.26,-633.79 1733.21,-649.89 1719,-667.16 1675.35,-720.2 1653.1,-727.26 1588,-749.16 1543.38,-764.17 1410.4,-734.98 1377,-768.16 1347.54,-797.43 1388.57,-925.01 1359,-954.16 1358.08,-955.07 1052.95,-979.67 946.29,-988.25"/>
<polygon fill="#f7931d" stroke="#f7931d" stroke-width="2" points="945.71,-984.78 936.02,-989.07 946.27,-991.76 945.71,-984.78"/>
<text text-anchor="middle" x="1482.5" y="-812.56" font-family="Times,serif" font-size="32.00">boast_1</text>
<text text-anchor="middle" x="1482.5" y="-777.56" font-family="Times,serif" font-size="32.00">=of 1</text>
</g>
<!-- of&#45;&gt;prog -->
<g id="edge26" class="edge">
<title>of&#45;&gt;prog</title>
<path fill="none" stroke="#000000" d="M1964.01,-592.28C1897.12,-590.3 1728.82,-585.41 1588,-582.16 1331.58,-576.24 1267.29,-581.21 1011,-571.16 998.19,-570.66 984.47,-569.96 971.41,-569.21"/>
<polygon fill="#000000" stroke="#000000" points="971.29,-565.69 961.1,-568.6 970.88,-572.68 971.29,-565.69"/>
<text text-anchor="middle" x="1482.5" y="-626.56" font-family="Times,serif" font-size="32.00">boasting</text>
<text text-anchor="middle" x="1482.5" y="-591.56" font-family="Times,serif" font-size="32.00">=of =da prog</text>
</g>
<!-- about&#45;&gt;d -->
<g id="edge32" class="edge">
<title>about&#45;&gt;d</title>
<path fill="none" stroke="#000000" d="M2004.55,-928.9C2015.54,-897.86 2037.34,-850.99 2074.04,-828.16 2117.77,-800.96 2258.43,-831.09 2305.04,-809.16 2323.58,-800.44 2339.86,-784.49 2351.98,-769.91"/>
<polygon fill="#000000" stroke="#000000" points="2354.78,-772.02 2358.27,-762.01 2349.3,-767.66 2354.78,-772.02"/>
<text text-anchor="middle" x="2189.54" y="-907.56" font-family="Times,serif" font-size="32.00">boast_5 |</text>
<text text-anchor="middle" x="2189.54" y="-872.56" font-family="Times,serif" font-size="32.00"> doubt_2</text>
<text text-anchor="middle" x="2189.54" y="-837.56" font-family="Times,serif" font-size="32.00">=about poss= d &#45;k</text>
</g>
<!-- about&#45;&gt;0 -->
<g id="edge29" class="edge">
<title>about&#45;&gt;0</title>
<path fill="none" stroke="#000000" d="M1989.96,-928.7C1981.07,-857.83 1955.63,-684.89 1915,-645.16 1814.33,-546.71 1738.23,-623.56 1606,-575.16 1602.19,-573.77 1397.2,-466.96 1315.54,-424.39"/>
<polygon fill="#000000" stroke="#000000" points="1316.7,-421.05 1306.22,-419.53 1313.47,-427.26 1316.7,-421.05"/>
<text text-anchor="middle" x="1662.5" y="-637.56" font-family="Times,serif" font-size="32.00">boast_3</text>
<text text-anchor="middle" x="1662.5" y="-602.56" font-family="Times,serif" font-size="32.00">=about 0</text>
</g>
<!-- about&#45;&gt;a -->
<g id="edge33" class="edge">
<title>about&#45;&gt;a</title>
<path fill="none" stroke="#000000" d="M1935.72,-968.16C1928.76,-968.98 1921.73,-969.68 1915,-970.16 1838.52,-975.65 1748.62,-974.08 1699.7,-972.55"/>
<polygon fill="#000000" stroke="#000000" points="1699.72,-969.05 1689.61,-972.22 1699.49,-976.05 1699.72,-969.05"/>
<text text-anchor="middle" x="1826" y="-1053.56" font-family="Times,serif" font-size="32.00">boastful_1 |</text>
<text text-anchor="middle" x="1826" y="-1018.56" font-family="Times,serif" font-size="32.00"> doubtful_1</text>
<text text-anchor="middle" x="1826" y="-983.56" font-family="Times,serif" font-size="32.00">=about a</text>
</g>
<!-- about&#45;&gt;1 -->
<g id="edge30" class="edge">
<title>about&#45;&gt;1</title>
<path fill="none" stroke="#f7931d" stroke-width="2" d="M1984.06,-989.27C1972.86,-1019.16 1951.05,-1063.32 1915,-1083.16 1856.26,-1115.49 1660.24,-1122.98 1204,-1060.16 1109.1,-1047.1 999.89,-1017.53 945.15,-1001.67"/>
<polygon fill="#f7931d" stroke="#f7931d" stroke-width="2" points="945.84,-998.23 935.26,-998.79 943.88,-1004.95 945.84,-998.23"/>
<text text-anchor="middle" x="1482.5" y="-1146.56" font-family="Times,serif" font-size="32.00">boast_4</text>
<text text-anchor="middle" x="1482.5" y="-1111.56" font-family="Times,serif" font-size="32.00">=about 1</text>
</g>
<!-- about&#45;&gt;prog -->
<g id="edge31" class="edge">
<title>about&#45;&gt;prog</title>
<path fill="none" stroke="#000000" d="M1934.12,-965.21C1880.91,-968.48 1801.54,-967.99 1737,-945.16 1727.7,-941.87 1727.36,-937.41 1719,-932.16 1662.93,-896.92 1651.4,-880.3 1588,-861.16 1497.86,-833.95 1466.59,-871.12 1377,-842.16 1202.83,-785.87 1024.2,-655.61 948.08,-595.98"/>
<polygon fill="#000000" stroke="#000000" points="950.19,-593.19 940.17,-589.75 945.86,-598.68 950.19,-593.19"/>
<text text-anchor="middle" x="1482.5" y="-905.56" font-family="Times,serif" font-size="32.00">boasting_1</text>
<text text-anchor="middle" x="1482.5" y="-870.56" font-family="Times,serif" font-size="32.00">=about =da prog</text>
</g>
<!-- 0&#45;&gt;t -->
<g id="edge7" class="edge">
<title>0&#45;&gt;t</title>
<path fill="none" stroke="#000000" d="M1262.18,-385.2C1212.16,-327.89 1066.53,-178.16 910,-178.16 910,-178.16 910,-178.16 247.5,-178.16 119.98,-178.16 58.4,-357.08 37.05,-438.11"/>
<polygon fill="#000000" stroke="#000000" points="33.62,-437.39 34.53,-447.95 40.4,-439.13 33.62,-437.39"/>
<text text-anchor="middle" x="569" y="-257.56" font-family="Times,serif" font-size="32.00">s |</text>
<text text-anchor="middle" x="569" y="-222.56" font-family="Times,serif" font-size="32.00"> d</text>
<text text-anchor="middle" x="569" y="-187.56" font-family="Times,serif" font-size="32.00">=&gt;0 =da +k t</text>
</g>
<!-- 0&#45;&gt;1 -->
<g id="edge35" class="edge">
<title>0&#45;&gt;1</title>
<path fill="none" stroke="#f7931d" stroke-width="2" d="M1265.05,-431.51C1206.5,-523.81 998.16,-852.2 931.02,-958.03"/>
<polygon fill="#f7931d" stroke="#f7931d" stroke-width="2" points="927.92,-956.39 925.51,-966.71 933.83,-960.14 927.92,-956.39"/>
<text text-anchor="middle" x="1098.5" y="-863.56" font-family="Times,serif" font-size="32.00">ε_1</text>
<text text-anchor="middle" x="1098.5" y="-828.56" font-family="Times,serif" font-size="32.00">=&gt;0 1</text>
</g>
<!-- perf -->
<g id="node15" class="node">
<title>perf</title>
<ellipse fill="none" stroke="black" cx="569" cy="-439.16" rx="48.17" ry="30.31"/>
<text text-anchor="middle" x="569" y="-431.06" font-family="Times,serif" font-size="32.00">perf</text>
</g>
<!-- 0&#45;&gt;perf -->
<g id="edge11" class="edge">
<title>0&#45;&gt;perf</title>
<path fill="none" stroke="#000000" d="M1255,-401.3C1236.07,-397.27 1209.58,-392.27 1186,-390.16 979.22,-371.71 733.08,-409.15 625.24,-428.53"/>
<polygon fill="#000000" stroke="#000000" points="624.45,-425.11 615.24,-430.35 625.7,-432 624.45,-425.11"/>
<text text-anchor="middle" x="909" y="-444.56" font-family="Times,serif" font-size="32.00">n</text>
<text text-anchor="middle" x="909" y="-409.56" font-family="Times,serif" font-size="32.00">=&gt;0 =da perf</text>
</g>
<!-- 0&#45;&gt;prog -->
<g id="edge36" class="edge">
<title>0&#45;&gt;prog</title>
<path fill="none" stroke="#000000" d="M1254.43,-403.79C1194.8,-396.61 1050.54,-382.49 1011,-408.16 994.65,-418.78 1002.69,-431.24 993,-448.16 976.76,-476.53 955.36,-506.56 938.36,-529.09"/>
<polygon fill="#000000" stroke="#000000" points="935.35,-527.26 932.08,-537.34 940.92,-531.5 935.35,-527.26"/>
<text text-anchor="middle" x="1098.5" y="-452.56" font-family="Times,serif" font-size="32.00">ing</text>
<text text-anchor="middle" x="1098.5" y="-417.56" font-family="Times,serif" font-size="32.00">=&gt;0 =da prog</text>
</g>
<!-- a&#45;&gt;0 -->
<g id="edge8" class="edge">
<title>a&#45;&gt;0</title>
<path fill="none" stroke="#000000" d="M1656.02,-941.56C1642.67,-870.84 1608.06,-696.63 1588,-679.16 1516.86,-617.22 1451.62,-713.87 1377,-656.16 1311.58,-605.56 1291.44,-504.11 1285.25,-447.57"/>
<polygon fill="#000000" stroke="#000000" points="1288.73,-447.16 1284.25,-437.56 1281.76,-447.86 1288.73,-447.16"/>
<text text-anchor="middle" x="1482.5" y="-723.56" font-family="Times,serif" font-size="32.00">be</text>
<text text-anchor="middle" x="1482.5" y="-688.56" font-family="Times,serif" font-size="32.00">=a 0</text>
</g>
<!-- a&#45;&gt;1 -->
<g id="edge10" class="edge">
<title>a&#45;&gt;1</title>
<path fill="none" stroke="#f7931d" stroke-width="2" d="M1635.2,-972.26C1582.71,-974.43 1461.17,-979.28 1359,-982.16 1205.66,-986.49 1022.81,-989.48 946.38,-990.63"/>
<polygon fill="#f7931d" stroke="#f7931d" stroke-width="2" points="946.27,-987.13 936.32,-990.78 946.37,-994.13 946.27,-987.13"/>
<text text-anchor="middle" x="1281.5" y="-1030.56" font-family="Times,serif" font-size="32.00">be_1</text>
<text text-anchor="middle" x="1281.5" y="-995.56" font-family="Times,serif" font-size="32.00">=a 1</text>
</g>
<!-- a&#45;&gt;prog -->
<g id="edge12" class="edge">
<title>a&#45;&gt;prog</title>
<path fill="none" stroke="#000000" d="M1635.49,-970.59C1573.68,-968.81 1419.97,-961.76 1377,-935.16 1364.74,-927.57 1370.98,-916.19 1359,-908.16 1227.96,-820.3 1130.9,-940.7 1011,-838.16 941.25,-778.52 919.64,-666.12 912.96,-605.82"/>
<polygon fill="#000000" stroke="#000000" points="916.41,-605.14 911.91,-595.55 909.45,-605.85 916.41,-605.14"/>
<text text-anchor="middle" x="1281.5" y="-952.56" font-family="Times,serif" font-size="32.00">being</text>
<text text-anchor="middle" x="1281.5" y="-917.56" font-family="Times,serif" font-size="32.00">=a =da prog</text>
</g>
<!-- v -->
<g id="node14" class="node">
<title>v</title>
<ellipse fill="none" stroke="black" cx="248.5" cy="-633.16" rx="27" ry="30.31"/>
<text text-anchor="middle" x="248.5" y="-625.06" font-family="Times,serif" font-size="32.00">v</text>
</g>
<!-- 1&#45;&gt;v -->
<g id="edge9" class="edge">
<title>1&#45;&gt;v</title>
<path fill="none" stroke="#f7931d" stroke-width="2" d="M884.17,-978.21C784.15,-923.83 398.01,-713.9 282.39,-651.04"/>
<polygon fill="#f7931d" stroke="#f7931d" stroke-width="2" points="283.75,-647.8 273.29,-646.1 280.41,-653.95 283.75,-647.8"/>
<text text-anchor="middle" x="569" y="-892.56" font-family="Times,serif" font-size="32.00">ε_0</text>
<text text-anchor="middle" x="569" y="-857.56" font-family="Times,serif" font-size="32.00">=&gt;1 =da v</text>
</g>
<!-- v&#45;&gt;t -->
<g id="edge13" class="edge">
<title>v&#45;&gt;t</title>
<path fill="none" stroke="#000000" d="M221.63,-627.8C184.57,-618.96 115.98,-598.2 72,-558.16 58.97,-546.3 49,-529.65 41.88,-514.53"/>
<polygon fill="#000000" stroke="#000000" points="45.07,-513.08 37.81,-505.37 38.67,-515.93 45.07,-513.08"/>
<text text-anchor="middle" x="119" y="-690.56" font-family="Times,serif" font-size="32.00">wills |</text>
<text text-anchor="middle" x="119" y="-655.56" font-family="Times,serif" font-size="32.00"> willd</text>
<text text-anchor="middle" x="119" y="-620.56" font-family="Times,serif" font-size="32.00">=v +k t</text>
</g>
<!-- perf&#45;&gt;t -->
<g id="edge14" class="edge">
<title>perf&#45;&gt;t</title>
<path fill="none" stroke="#000000" d="M522.12,-431.71C449.74,-421.25 304.83,-405.55 184,-425.16 140.65,-432.2 93.06,-449.56 61.98,-462.29"/>
<polygon fill="#000000" stroke="#000000" points="60.39,-459.17 52.5,-466.24 63.08,-465.63 60.39,-459.17"/>
<text text-anchor="middle" x="248.5" y="-504.56" font-family="Times,serif" font-size="32.00">haves |</text>
<text text-anchor="middle" x="248.5" y="-469.56" font-family="Times,serif" font-size="32.00"> haved</text>
<text text-anchor="middle" x="248.5" y="-434.56" font-family="Times,serif" font-size="32.00">=perf +k t</text>
</g>
<!-- perf&#45;&gt;v -->
<g id="edge15" class="edge">
<title>perf&#45;&gt;v</title>
<path fill="none" stroke="#000000" d="M521.27,-435.47C460.59,-431.71 359.12,-429.26 331,-452.16 306.76,-471.9 324.75,-491.19 313,-520.16 301.55,-548.39 284.46,-578.35 270.89,-600.33"/>
<polygon fill="#000000" stroke="#000000" points="267.84,-598.6 265.51,-608.93 273.78,-602.31 267.84,-598.6"/>
<text text-anchor="middle" x="399" y="-496.56" font-family="Times,serif" font-size="32.00">have</text>
<text text-anchor="middle" x="399" y="-461.56" font-family="Times,serif" font-size="32.00">=perf v</text>
</g>
<!-- prog&#45;&gt;t -->
<g id="edge16" class="edge">
<title>prog&#45;&gt;t</title>
<path fill="none" stroke="#000000" d="M856.75,-562.11C774.55,-557.28 608.12,-547.74 467,-541.16 404.13,-538.23 245.88,-541.63 184,-530.16 140.73,-522.15 93.13,-504.62 62.02,-491.91"/>
<polygon fill="#000000" stroke="#000000" points="63.11,-488.58 52.53,-487.98 60.43,-495.04 63.11,-488.58"/>
<text text-anchor="middle" x="399" y="-620.56" font-family="Times,serif" font-size="32.00">bes |</text>
<text text-anchor="middle" x="399" y="-585.56" font-family="Times,serif" font-size="32.00"> bed</text>
<text text-anchor="middle" x="399" y="-550.56" font-family="Times,serif" font-size="32.00">=prog +k t</text>
</g>
<!-- prog&#45;&gt;v -->
<g id="edge17" class="edge">
<title>prog&#45;&gt;v</title>
<path fill="none" stroke="#000000" d="M860.79,-577.34C780.55,-597.34 612.15,-636.3 467,-650.16 406.83,-655.91 391.13,-656.37 331,-650.16 315.73,-648.59 299.1,-645.39 284.87,-642.19"/>
<polygon fill="#000000" stroke="#000000" points="285.52,-638.75 274.98,-639.89 283.93,-645.57 285.52,-638.75"/>
<text text-anchor="middle" x="569" y="-692.56" font-family="Times,serif" font-size="32.00">be_2</text>
<text text-anchor="middle" x="569" y="-657.56" font-family="Times,serif" font-size="32.00">=prog v</text>
</g>
<!-- prog&#45;&gt;perf -->
<g id="edge18" class="edge">
<title>prog&#45;&gt;perf</title>
<path fill="none" stroke="#000000" d="M889.41,-536.45C871.55,-511.57 842.13,-476.99 807,-460.16 750.13,-432.93 676.82,-430.71 626.89,-433.35"/>
<polygon fill="#000000" stroke="#000000" points="626.37,-429.88 616.61,-433.98 626.8,-436.86 626.37,-429.88"/>
<text text-anchor="middle" x="739" y="-504.56" font-family="Times,serif" font-size="32.00">ben</text>
<text text-anchor="middle" x="739" y="-469.56" font-family="Times,serif" font-size="32.00">=prog perf</text>
</g>
</g>
</svg>
