<?xml version="1.0" encoding="UTF-8" standalone="no"?>
<!DOCTYPE svg PUBLIC "-//W3C//DTD SVG 1.1//EN"
 "http://www.w3.org/Graphics/SVG/1.1/DTD/svg11.dtd">
<!-- Generated by graphviz version 2.47.1 (20210417.1919)
 -->
<!-- Title: G Pages: 1 -->
<svg width="2744pt" height="1427pt"
 viewBox="0.00 0.00 2743.64 1427.00" xmlns="http://www.w3.org/2000/svg" xmlns:xlink="http://www.w3.org/1999/xlink">
<g id="graph0" class="graph" transform="scale(1 1) rotate(0) translate(4 1423)">
<title>G</title>
<polygon fill="white" stroke="transparent" points="-4,4 -4,-1423 2739.64,-1423 2739.64,4 -4,4"/>
<text text-anchor="middle" x="1367.82" y="-13.4" font-family="Times,serif" font-size="32.00">single contraction: 0 → 1</text>
<!-- t -->
<g id="node1" class="node">
<title>t</title>
<ellipse fill="lightgray" stroke="black" cx="27" cy="-478" rx="27" ry="30.31"/>
<text text-anchor="middle" x="27" y="-469.9" font-family="Times,serif" font-size="32.00">t</text>
</g>
<!-- z0 -->
<g id="node2" class="node">
<title>z0</title>
<ellipse fill="none" stroke="black" stroke-dasharray="5,2" cx="2698.17" cy="-1186" rx="27" ry="18"/>
</g>
<!-- da -->
<g id="node3" class="node">
<title>da</title>
<ellipse fill="none" stroke="black" cx="2375.36" cy="-1186" rx="33.47" ry="30.31"/>
<text text-anchor="middle" x="2375.36" y="-1177.9" font-family="Times,serif" font-size="32.00">da</text>
</g>
<!-- z0&#45;&gt;da -->
<g id="edge1" class="edge">
<title>z0&#45;&gt;da</title>
<path fill="none" stroke="#000000" d="M2670.91,-1186C2615.52,-1186 2486.24,-1186 2418.88,-1186"/>
<polygon fill="#000000" stroke="#000000" points="2418.62,-1182.5 2408.62,-1186 2418.62,-1189.5 2418.62,-1182.5"/>
<text text-anchor="middle" x="2544.19" y="-1265.4" font-family="Times,serif" font-size="32.00">Mary |</text>
<text text-anchor="middle" x="2544.19" y="-1230.4" font-family="Times,serif" font-size="32.00"> John</text>
<text text-anchor="middle" x="2544.19" y="-1195.4" font-family="Times,serif" font-size="32.00">da &#45;k</text>
</g>
<!-- z1 -->
<g id="node4" class="node">
<title>z1</title>
<ellipse fill="none" stroke="black" stroke-dasharray="5,2" cx="2698.17" cy="-1314" rx="27" ry="18"/>
</g>
<!-- poss -->
<g id="node5" class="node">
<title>poss</title>
<ellipse fill="none" stroke="black" cx="2375.36" cy="-1314" rx="52.15" ry="30.31"/>
<text text-anchor="middle" x="2375.36" y="-1305.9" font-family="Times,serif" font-size="32.00">poss</text>
</g>
<!-- z1&#45;&gt;poss -->
<g id="edge2" class="edge">
<title>z1&#45;&gt;poss</title>
<path fill="none" stroke="#000000" d="M2670.91,-1314C2620.35,-1314 2508.25,-1314 2437.84,-1314"/>
<polygon fill="#000000" stroke="#000000" points="2437.77,-1310.5 2427.77,-1314 2437.77,-1317.5 2437.77,-1310.5"/>
<text text-anchor="middle" x="2544.19" y="-1393.4" font-family="Times,serif" font-size="32.00">Mary&#39;s |</text>
<text text-anchor="middle" x="2544.19" y="-1358.4" font-family="Times,serif" font-size="32.00"> John&#39;s</text>
<text text-anchor="middle" x="2544.19" y="-1323.4" font-family="Times,serif" font-size="32.00">poss</text>
</g>
<!-- z2 -->
<g id="node6" class="node">
<title>z2</title>
<ellipse fill="none" stroke="black" stroke-dasharray="5,2" cx="2698.17" cy="-99" rx="27" ry="18"/>
</g>
<!-- d -->
<g id="node7" class="node">
<title>d</title>
<ellipse fill="none" stroke="black" cx="2375.36" cy="-524" rx="27" ry="30.31"/>
<text text-anchor="middle" x="2375.36" y="-515.9" font-family="Times,serif" font-size="32.00">d</text>
</g>
<!-- z2&#45;&gt;d -->
<g id="edge3" class="edge">
<title>z2&#45;&gt;d</title>
<path fill="none" stroke="#000000" d="M2684.07,-114.48C2645.86,-159.84 2531.81,-296.87 2445.69,-417 2428.42,-441.08 2410.26,-469.24 2396.85,-490.62"/>
<polygon fill="#000000" stroke="#000000" points="2393.74,-489 2391.42,-499.34 2399.68,-492.71 2393.74,-489"/>
<text text-anchor="middle" x="2544.19" y="-461.4" font-family="Times,serif" font-size="32.00">the&#45;cause</text>
<text text-anchor="middle" x="2544.19" y="-426.4" font-family="Times,serif" font-size="32.00">d &#45;k</text>
</g>
<!-- for -->
<g id="node8" class="node">
<title>for</title>
<ellipse fill="none" stroke="black" cx="2698.17" cy="-687" rx="37.45" ry="30.31"/>
<text text-anchor="middle" x="2698.17" y="-678.9" font-family="Times,serif" font-size="32.00">for</text>
</g>
<!-- d&#45;&gt;for -->
<g id="edge4" class="edge">
<title>d&#45;&gt;for</title>
<path fill="none" stroke="#000000" d="M2381.97,-553.65C2389.95,-586.79 2407.99,-639.18 2445.69,-665 2507,-707 2597.43,-703.01 2651.49,-695.53"/>
<polygon fill="#000000" stroke="#000000" points="2652.1,-698.98 2661.48,-694.05 2651.07,-692.05 2652.1,-698.98"/>
<text text-anchor="middle" x="2544.19" y="-745.4" font-family="Times,serif" font-size="32.00">for</text>
<text text-anchor="middle" x="2544.19" y="-710.4" font-family="Times,serif" font-size="32.00">=d *k for</text>
</g>
<!-- of -->
<g id="node9" class="node">
<title>of</title>
<ellipse fill="none" stroke="black" cx="1994.52" cy="-723" rx="30.31" ry="30.31"/>
<text text-anchor="middle" x="1994.52" y="-714.9" font-family="Times,serif" font-size="32.00">of</text>
</g>
<!-- d&#45;&gt;of -->
<g id="edge5" class="edge">
<title>d&#45;&gt;of</title>
<path fill="none" stroke="#000000" d="M2372.12,-554.32C2366.23,-624.34 2347.78,-793.91 2305.04,-828 2224.77,-892.02 2165.83,-873.98 2074.04,-828 2045.7,-813.81 2024.97,-784 2011.94,-759.76"/>
<polygon fill="#000000" stroke="#000000" points="2015.01,-758.08 2007.33,-750.78 2008.79,-761.28 2015.01,-758.08"/>
<text text-anchor="middle" x="2189.54" y="-914.4" font-family="Times,serif" font-size="32.00">of</text>
<text text-anchor="middle" x="2189.54" y="-879.4" font-family="Times,serif" font-size="32.00">=d *k of</text>
</g>
<!-- about -->
<g id="node10" class="node">
<title>about</title>
<ellipse fill="none" stroke="black" cx="1994.52" cy="-524" rx="61.54" ry="30.31"/>
<text text-anchor="middle" x="1994.52" y="-515.9" font-family="Times,serif" font-size="32.00">about</text>
</g>
<!-- d&#45;&gt;about -->
<g id="edge6" class="edge">
<title>d&#45;&gt;about</title>
<path fill="none" stroke="#000000" d="M2348.32,-524C2290.89,-524 2151.7,-524 2066.32,-524"/>
<polygon fill="#000000" stroke="#000000" points="2066.18,-520.5 2056.18,-524 2066.18,-527.5 2066.18,-520.5"/>
<text text-anchor="middle" x="2189.54" y="-568.4" font-family="Times,serif" font-size="32.00">about</text>
<text text-anchor="middle" x="2189.54" y="-533.4" font-family="Times,serif" font-size="32.00">=d *k about</text>
</g>
<!-- 0 -->
<g id="node11" class="node">
<title>0</title>
<ellipse fill="none" stroke="black" cx="1281.5" cy="-512" rx="27" ry="30.31"/>
<text text-anchor="middle" x="1281.5" y="-503.9" font-family="Times,serif" font-size="32.00">0</text>
</g>
<!-- d&#45;&gt;0 -->
<g id="edge30" class="edge">
<title>d&#45;&gt;0</title>
<path fill="none" stroke="#000000" d="M2368.51,-494.51C2360.25,-460.67 2341.87,-405.89 2305.04,-375 2206.72,-292.53 1861.53,-240.03 1737,-271 1563.28,-314.21 1382.99,-437.48 1312.9,-488.97"/>
<polygon fill="#000000" stroke="#000000" points="1310.47,-486.41 1304.52,-495.17 1314.64,-492.03 1310.47,-486.41"/>
<text text-anchor="middle" x="1826" y="-490.4" font-family="Times,serif" font-size="32.00">fear |</text>
<text text-anchor="middle" x="1826" y="-455.4" font-family="Times,serif" font-size="32.00"> neglect |</text>
<text text-anchor="middle" x="1826" y="-420.4" font-family="Times,serif" font-size="32.00"> scorn |</text>
<text text-anchor="middle" x="1826" y="-385.4" font-family="Times,serif" font-size="32.00"> respect |</text>
<text text-anchor="middle" x="1826" y="-350.4" font-family="Times,serif" font-size="32.00"> disdain |</text>
<text text-anchor="middle" x="1826" y="-315.4" font-family="Times,serif" font-size="32.00"> doubt</text>
<text text-anchor="middle" x="1826" y="-280.4" font-family="Times,serif" font-size="32.00">=d *k 0</text>
</g>
<!-- for&#45;&gt;d -->
<g id="edge20" class="edge">
<title>for&#45;&gt;d</title>
<path fill="none" stroke="#000000" d="M2697.13,-656.35C2695.24,-617.52 2685.43,-551.96 2642.69,-521 2573.59,-470.95 2465.74,-494.61 2410.9,-511.72"/>
<polygon fill="#000000" stroke="#000000" points="2409.74,-508.42 2401.3,-514.82 2411.89,-515.08 2409.74,-508.42"/>
<text text-anchor="middle" x="2544.19" y="-635.4" font-family="Times,serif" font-size="32.00">hope_1 |</text>
<text text-anchor="middle" x="2544.19" y="-600.4" font-family="Times,serif" font-size="32.00"> respect_1 |</text>
<text text-anchor="middle" x="2544.19" y="-565.4" font-family="Times,serif" font-size="32.00"> disdain_1</text>
<text text-anchor="middle" x="2544.19" y="-530.4" font-family="Times,serif" font-size="32.00">=for poss= d &#45;k</text>
</g>
<!-- for&#45;&gt;0 -->
<g id="edge18" class="edge">
<title>for&#45;&gt;0</title>
<path fill="none" stroke="#000000" d="M2692.92,-656.67C2675.86,-547.92 2601.9,-184 2376.36,-184 2376.36,-184 2376.36,-184 1661.5,-184 1520.77,-184 1476.97,-223.95 1377,-323 1334.03,-365.58 1307.21,-431.73 1293.56,-473.41"/>
<polygon fill="#000000" stroke="#000000" points="1290.14,-472.61 1290.45,-483.2 1296.81,-474.72 1290.14,-472.61"/>
<text text-anchor="middle" x="1994.52" y="-228.4" font-family="Times,serif" font-size="32.00">hope</text>
<text text-anchor="middle" x="1994.52" y="-193.4" font-family="Times,serif" font-size="32.00">=for 0</text>
</g>
<!-- a -->
<g id="node12" class="node">
<title>a</title>
<ellipse fill="none" stroke="black" cx="1662.5" cy="-774" rx="27" ry="30.31"/>
<text text-anchor="middle" x="1662.5" y="-765.9" font-family="Times,serif" font-size="32.00">a</text>
</g>
<!-- for&#45;&gt;a -->
<g id="edge21" class="edge">
<title>for&#45;&gt;a</title>
<path fill="none" stroke="#000000" d="M2684.58,-715.6C2675.19,-734.36 2660.86,-758.4 2642.69,-775 2391.97,-1004.05 2253.47,-980.42 1915,-1008 1836.15,-1014.43 1800.77,-1054.81 1737,-1008 1676.5,-963.59 1664.47,-869.41 1662.84,-815.05"/>
<polygon fill="#000000" stroke="#000000" points="1666.33,-814.66 1662.64,-804.73 1659.34,-814.8 1666.33,-814.66"/>
<text text-anchor="middle" x="2189.54" y="-1041.4" font-family="Times,serif" font-size="32.00">hopeful</text>
<text text-anchor="middle" x="2189.54" y="-1006.4" font-family="Times,serif" font-size="32.00">=for a</text>
</g>
<!-- prog -->
<g id="node15" class="node">
<title>prog</title>
<ellipse fill="none" stroke="black" cx="909" cy="-765" rx="52.15" ry="30.31"/>
<text text-anchor="middle" x="909" y="-756.9" font-family="Times,serif" font-size="32.00">prog</text>
</g>
<!-- for&#45;&gt;prog -->
<g id="edge19" class="edge">
<title>for&#45;&gt;prog</title>
<path fill="none" stroke="#000000" d="M2690.86,-716.97C2668.04,-816.22 2580.15,-1128 2376.36,-1128 2376.36,-1128 2376.36,-1128 1280.5,-1128 1096.58,-1128 970.31,-896.96 926.76,-803.52"/>
<polygon fill="#000000" stroke="#000000" points="929.92,-802.02 922.57,-794.4 923.56,-804.95 929.92,-802.02"/>
<text text-anchor="middle" x="1826" y="-1172.4" font-family="Times,serif" font-size="32.00">hopeing</text>
<text text-anchor="middle" x="1826" y="-1137.4" font-family="Times,serif" font-size="32.00">=for =da prog</text>
</g>
<!-- of&#45;&gt;d -->
<g id="edge24" class="edge">
<title>of&#45;&gt;d</title>
<path fill="none" stroke="#000000" d="M2007.12,-695.28C2019.56,-669.4 2041.95,-632.13 2074.04,-614 2163.72,-563.32 2211.82,-638.85 2305.04,-595 2323.58,-586.28 2339.86,-570.33 2351.98,-555.75"/>
<polygon fill="#000000" stroke="#000000" points="2354.78,-557.85 2358.27,-547.85 2349.3,-553.49 2354.78,-557.85"/>
<text text-anchor="middle" x="2189.54" y="-798.4" font-family="Times,serif" font-size="32.00">boast_1 |</text>
<text text-anchor="middle" x="2189.54" y="-763.4" font-family="Times,serif" font-size="32.00"> fear_1 |</text>
<text text-anchor="middle" x="2189.54" y="-728.4" font-family="Times,serif" font-size="32.00"> neglect_1 |</text>
<text text-anchor="middle" x="2189.54" y="-693.4" font-family="Times,serif" font-size="32.00"> scorn_1 |</text>
<text text-anchor="middle" x="2189.54" y="-658.4" font-family="Times,serif" font-size="32.00"> doubt_1</text>
<text text-anchor="middle" x="2189.54" y="-623.4" font-family="Times,serif" font-size="32.00">=of poss= d &#45;k</text>
</g>
<!-- of&#45;&gt;0 -->
<g id="edge22" class="edge">
<title>of&#45;&gt;0</title>
<path fill="none" stroke="#000000" d="M1964.9,-715.98C1950.06,-712.45 1931.61,-708.25 1915,-705 1836.34,-689.59 1812.16,-703.86 1737,-676 1728.21,-672.74 1727.47,-669.02 1719,-665 1575.56,-596.97 1393.34,-542.77 1317.78,-521.61"/>
<polygon fill="#000000" stroke="#000000" points="1318.42,-518.15 1307.85,-518.84 1316.54,-524.89 1318.42,-518.15"/>
<text text-anchor="middle" x="1662.5" y="-709.4" font-family="Times,serif" font-size="32.00">boast</text>
<text text-anchor="middle" x="1662.5" y="-674.4" font-family="Times,serif" font-size="32.00">=of 0</text>
</g>
<!-- of&#45;&gt;a -->
<g id="edge25" class="edge">
<title>of&#45;&gt;a</title>
<path fill="none" stroke="#000000" d="M1964.22,-717.68C1915.68,-710.06 1816.12,-699.47 1737,-724 1720.68,-729.06 1704.72,-739.1 1691.87,-748.86"/>
<polygon fill="#000000" stroke="#000000" points="1689.56,-746.23 1683.9,-755.18 1693.91,-751.71 1689.56,-746.23"/>
<text text-anchor="middle" x="1826" y="-978.4" font-family="Times,serif" font-size="32.00">boastful |</text>
<text text-anchor="middle" x="1826" y="-943.4" font-family="Times,serif" font-size="32.00"> fearful |</text>
<text text-anchor="middle" x="1826" y="-908.4" font-family="Times,serif" font-size="32.00"> neglectful |</text>
<text text-anchor="middle" x="1826" y="-873.4" font-family="Times,serif" font-size="32.00"> scornful |</text>
<text text-anchor="middle" x="1826" y="-838.4" font-family="Times,serif" font-size="32.00"> respectful |</text>
<text text-anchor="middle" x="1826" y="-803.4" font-family="Times,serif" font-size="32.00"> disdainful |</text>
<text text-anchor="middle" x="1826" y="-768.4" font-family="Times,serif" font-size="32.00"> doubtful</text>
<text text-anchor="middle" x="1826" y="-733.4" font-family="Times,serif" font-size="32.00">=of a</text>
</g>
<!-- of&#45;&gt;prog -->
<g id="edge23" class="edge">
<title>of&#45;&gt;prog</title>
<path fill="none" stroke="#000000" d="M1989.68,-753.06C1980.58,-819.09 1955.35,-973.38 1915,-1004 1814.07,-1080.59 1555.07,-1030.28 1204,-921 1108.16,-891.17 1007.02,-830 951.9,-793.75"/>
<polygon fill="#000000" stroke="#000000" points="953.73,-790.76 943.46,-788.15 949.86,-796.6 953.73,-790.76"/>
<text text-anchor="middle" x="1482.5" y="-1065.4" font-family="Times,serif" font-size="32.00">boasting</text>
<text text-anchor="middle" x="1482.5" y="-1030.4" font-family="Times,serif" font-size="32.00">=of =da prog</text>
</g>
<!-- about&#45;&gt;d -->
<g id="edge28" class="edge">
<title>about&#45;&gt;d</title>
<path fill="none" stroke="#000000" d="M2007.51,-494.18C2019.86,-467.96 2041.86,-431.48 2074.04,-415 2165.42,-368.2 2215.04,-365.58 2305.04,-415 2332.4,-430.03 2350.51,-460.95 2361.33,-486.03"/>
<polygon fill="#000000" stroke="#000000" points="2358.1,-487.38 2365.12,-495.31 2364.58,-484.73 2358.1,-487.38"/>
<text text-anchor="middle" x="2189.54" y="-494.4" font-family="Times,serif" font-size="32.00">boast_3 |</text>
<text text-anchor="middle" x="2189.54" y="-459.4" font-family="Times,serif" font-size="32.00"> doubt_2</text>
<text text-anchor="middle" x="2189.54" y="-424.4" font-family="Times,serif" font-size="32.00">=about poss= d &#45;k</text>
</g>
<!-- about&#45;&gt;0 -->
<g id="edge26" class="edge">
<title>about&#45;&gt;0</title>
<path fill="none" stroke="#000000" d="M1932.9,-522.98C1789.61,-520.56 1433.45,-514.55 1318.73,-512.61"/>
<polygon fill="#000000" stroke="#000000" points="1318.76,-509.11 1308.7,-512.44 1318.64,-516.11 1318.76,-509.11"/>
<text text-anchor="middle" x="1662.5" y="-564.4" font-family="Times,serif" font-size="32.00">boast_2</text>
<text text-anchor="middle" x="1662.5" y="-529.4" font-family="Times,serif" font-size="32.00">=about 0</text>
</g>
<!-- about&#45;&gt;a -->
<g id="edge29" class="edge">
<title>about&#45;&gt;a</title>
<path fill="none" stroke="#000000" d="M1941.6,-539.97C1932.73,-542.67 1923.6,-545.43 1915,-548 1836.03,-571.6 1790.85,-537.61 1737,-600 1698.89,-644.16 1747.93,-679.35 1719,-730 1713.3,-739.97 1704.37,-748.53 1695.33,-755.37"/>
<polygon fill="#000000" stroke="#000000" points="1693.25,-752.55 1687.08,-761.16 1697.28,-758.28 1693.25,-752.55"/>
<text text-anchor="middle" x="1826" y="-679.4" font-family="Times,serif" font-size="32.00">boastful_1 |</text>
<text text-anchor="middle" x="1826" y="-644.4" font-family="Times,serif" font-size="32.00"> doubtful_1</text>
<text text-anchor="middle" x="1826" y="-609.4" font-family="Times,serif" font-size="32.00">=about a</text>
</g>
<!-- about&#45;&gt;prog -->
<g id="edge27" class="edge">
<title>about&#45;&gt;prog</title>
<path fill="none" stroke="#000000" d="M1932.94,-523.43C1867.02,-523.99 1767,-528.68 1737,-551 1720.38,-563.37 1735.21,-581.09 1719,-594 1688.84,-618.02 1414.77,-645.22 1377,-653 1228.19,-683.65 1054.61,-727.41 966.92,-750.09"/>
<polygon fill="#000000" stroke="#000000" points="965.97,-746.72 957.17,-752.62 967.73,-753.5 965.97,-746.72"/>
<text text-anchor="middle" x="1482.5" y="-697.4" font-family="Times,serif" font-size="32.00">boasting_1</text>
<text text-anchor="middle" x="1482.5" y="-662.4" font-family="Times,serif" font-size="32.00">=about =da prog</text>
</g>
<!-- 0&#45;&gt;t -->
<g id="edge7" class="edge">
<title>0&#45;&gt;t</title>
<path fill="none" stroke="#000000" d="M1260.81,-492.29C1208.59,-442.21 1060.24,-314 910,-314 910,-314 910,-314 247.5,-314 158.16,-314 137.61,-351.36 72,-412 62.26,-421 53.63,-432.56 46.64,-443.49"/>
<polygon fill="#000000" stroke="#000000" points="43.64,-441.7 41.4,-452.05 49.61,-445.35 43.64,-441.7"/>
<text text-anchor="middle" x="569" y="-393.4" font-family="Times,serif" font-size="32.00">s |</text>
<text text-anchor="middle" x="569" y="-358.4" font-family="Times,serif" font-size="32.00"> d</text>
<text text-anchor="middle" x="569" y="-323.4" font-family="Times,serif" font-size="32.00">=&gt;0 =da +k t</text>
</g>
<!-- v -->
<g id="node13" class="node">
<title>v</title>
<ellipse fill="none" stroke="black" cx="248.5" cy="-555" rx="27" ry="30.31"/>
<text text-anchor="middle" x="248.5" y="-546.9" font-family="Times,serif" font-size="32.00">v</text>
</g>
<!-- 0&#45;&gt;v -->
<g id="edge9" class="edge">
<title>0&#45;&gt;v</title>
<path fill="none" stroke="#000000" d="M1254.34,-513.16C1203.83,-515.38 1089.35,-520.34 993,-524 849.91,-529.43 814.08,-529.16 671,-535 528.33,-540.82 358.57,-549.37 285.67,-553.12"/>
<polygon fill="#000000" stroke="#000000" points="285.44,-549.63 275.64,-553.64 285.8,-556.62 285.44,-549.63"/>
<text text-anchor="middle" x="739" y="-579.4" font-family="Times,serif" font-size="32.00">ε_0</text>
<text text-anchor="middle" x="739" y="-544.4" font-family="Times,serif" font-size="32.00">=&gt;0 =da v</text>
</g>
<!-- perf -->
<g id="node14" class="node">
<title>perf</title>
<ellipse fill="none" stroke="black" cx="569" cy="-467" rx="48.17" ry="30.31"/>
<text text-anchor="middle" x="569" y="-458.9" font-family="Times,serif" font-size="32.00">perf</text>
</g>
<!-- 0&#45;&gt;perf -->
<g id="edge10" class="edge">
<title>0&#45;&gt;perf</title>
<path fill="none" stroke="#000000" d="M1254.99,-505.07C1205.13,-491.92 1091.04,-463.79 993,-454 918.7,-446.58 899.64,-452.1 825,-454 757.01,-455.73 678.92,-460.06 627.26,-463.25"/>
<polygon fill="#000000" stroke="#000000" points="626.73,-459.77 616.97,-463.89 627.17,-466.76 626.73,-459.77"/>
<text text-anchor="middle" x="909" y="-498.4" font-family="Times,serif" font-size="32.00">n</text>
<text text-anchor="middle" x="909" y="-463.4" font-family="Times,serif" font-size="32.00">=&gt;0 =da perf</text>
</g>
<!-- 0&#45;&gt;prog -->
<g id="edge31" class="edge">
<title>0&#45;&gt;prog</title>
<path fill="none" stroke="#000000" d="M1256.17,-523.42C1237.4,-531.76 1210.57,-542.68 1186,-549 1110.03,-568.55 1075.31,-527.08 1011,-572 958.97,-608.34 931.76,-679.97 919.18,-725"/>
<polygon fill="#000000" stroke="#000000" points="915.78,-724.17 916.57,-734.74 922.54,-725.99 915.78,-724.17"/>
<text text-anchor="middle" x="1098.5" y="-616.4" font-family="Times,serif" font-size="32.00">ing</text>
<text text-anchor="middle" x="1098.5" y="-581.4" font-family="Times,serif" font-size="32.00">=&gt;0 =da prog</text>
</g>
<!-- a&#45;&gt;0 -->
<g id="edge8" class="edge">
<title>a&#45;&gt;0</title>
<path fill="none" stroke="#000000" d="M1636.68,-764.47C1622.6,-759.43 1604.53,-753.56 1588,-750 1541.89,-740.07 1415.04,-754.89 1377,-727 1320.21,-685.36 1297.03,-602.05 1287.97,-552.24"/>
<polygon fill="#000000" stroke="#000000" points="1291.37,-551.41 1286.24,-542.15 1284.47,-552.6 1291.37,-551.41"/>
<text text-anchor="middle" x="1482.5" y="-794.4" font-family="Times,serif" font-size="32.00">be</text>
<text text-anchor="middle" x="1482.5" y="-759.4" font-family="Times,serif" font-size="32.00">=a 0</text>
</g>
<!-- a&#45;&gt;prog -->
<g id="edge11" class="edge">
<title>a&#45;&gt;prog</title>
<path fill="none" stroke="#000000" d="M1640.23,-791.83C1626.33,-802.27 1607.24,-814.47 1588,-820 1363.83,-884.37 1082.02,-816.69 964.92,-782.39"/>
<polygon fill="#000000" stroke="#000000" points="965.69,-778.97 955.11,-779.48 963.7,-785.68 965.69,-778.97"/>
<text text-anchor="middle" x="1281.5" y="-891.4" font-family="Times,serif" font-size="32.00">being</text>
<text text-anchor="middle" x="1281.5" y="-856.4" font-family="Times,serif" font-size="32.00">=a =da prog</text>
</g>
<!-- v&#45;&gt;t -->
<g id="edge12" class="edge">
<title>v&#45;&gt;t</title>
<path fill="none" stroke="#000000" d="M222.32,-546.17C182.96,-532.36 106.76,-505.63 62.38,-490.06"/>
<polygon fill="#000000" stroke="#000000" points="63.48,-486.74 52.89,-486.73 61.16,-493.34 63.48,-486.74"/>
<text text-anchor="middle" x="119" y="-605.4" font-family="Times,serif" font-size="32.00">wills |</text>
<text text-anchor="middle" x="119" y="-570.4" font-family="Times,serif" font-size="32.00"> willd</text>
<text text-anchor="middle" x="119" y="-535.4" font-family="Times,serif" font-size="32.00">=v +k t</text>
</g>
<!-- perf&#45;&gt;t -->
<g id="edge13" class="edge">
<title>perf&#45;&gt;t</title>
<path fill="none" stroke="#000000" d="M530.5,-448.76C511.84,-440.47 488.68,-431.34 467,-426 344.7,-395.89 307.37,-385.63 184,-411 139,-420.26 90.96,-443.08 60.27,-459.52"/>
<polygon fill="#000000" stroke="#000000" points="58.43,-456.53 51.33,-464.39 61.78,-462.68 58.43,-456.53"/>
<text text-anchor="middle" x="248.5" y="-490.4" font-family="Times,serif" font-size="32.00">haves |</text>
<text text-anchor="middle" x="248.5" y="-455.4" font-family="Times,serif" font-size="32.00"> haved</text>
<text text-anchor="middle" x="248.5" y="-420.4" font-family="Times,serif" font-size="32.00">=perf +k t</text>
</g>
<!-- perf&#45;&gt;v -->
<g id="edge14" class="edge">
<title>perf&#45;&gt;v</title>
<path fill="none" stroke="#000000" d="M527.99,-450.65C477.03,-432.73 388.67,-411.74 331,-454 309.57,-469.7 328.77,-489.62 313,-511 304.96,-521.9 293.38,-531.05 282.31,-538.13"/>
<polygon fill="#000000" stroke="#000000" points="280.37,-535.21 273.61,-543.36 283.98,-541.21 280.37,-535.21"/>
<text text-anchor="middle" x="399" y="-498.4" font-family="Times,serif" font-size="32.00">have</text>
<text text-anchor="middle" x="399" y="-463.4" font-family="Times,serif" font-size="32.00">=perf v</text>
</g>
<!-- prog&#45;&gt;t -->
<g id="edge15" class="edge">
<title>prog&#45;&gt;t</title>
<path fill="none" stroke="#000000" d="M857.78,-771.27C778.14,-779.97 618.25,-792.38 485,-771 294.19,-740.39 205.55,-774.68 72,-635 42.13,-603.76 32.24,-553.92 29.12,-518.8"/>
<polygon fill="#000000" stroke="#000000" points="32.58,-518.12 28.35,-508.4 25.6,-518.63 32.58,-518.12"/>
<text text-anchor="middle" x="399" y="-847.4" font-family="Times,serif" font-size="32.00">bes |</text>
<text text-anchor="middle" x="399" y="-812.4" font-family="Times,serif" font-size="32.00"> bed</text>
<text text-anchor="middle" x="399" y="-777.4" font-family="Times,serif" font-size="32.00">=prog +k t</text>
</g>
<!-- prog&#45;&gt;v -->
<g id="edge16" class="edge">
<title>prog&#45;&gt;v</title>
<path fill="none" stroke="#000000" d="M860.49,-753.5C812.42,-741.59 736.12,-721.98 671,-702 525.58,-657.39 355.39,-594.78 283.88,-567.99"/>
<polygon fill="#000000" stroke="#000000" points="285.05,-564.69 274.46,-564.45 282.59,-571.24 285.05,-564.69"/>
<text text-anchor="middle" x="569" y="-741.4" font-family="Times,serif" font-size="32.00">be_1</text>
<text text-anchor="middle" x="569" y="-706.4" font-family="Times,serif" font-size="32.00">=prog v</text>
</g>
<!-- prog&#45;&gt;perf -->
<g id="edge17" class="edge">
<title>prog&#45;&gt;perf</title>
<path fill="none" stroke="#000000" d="M894.15,-735.64C877.87,-704.57 847.8,-656.7 807,-632 754.56,-600.25 722.94,-641.57 671,-609 631.81,-584.43 603.4,-538.55 586.88,-505.58"/>
<polygon fill="#000000" stroke="#000000" points="589.85,-503.7 582.33,-496.23 583.56,-506.76 589.85,-503.7"/>
<text text-anchor="middle" x="739" y="-676.4" font-family="Times,serif" font-size="32.00">ben</text>
<text text-anchor="middle" x="739" y="-641.4" font-family="Times,serif" font-size="32.00">=prog perf</text>
</g>
</g>
</svg>
