<?xml version="1.0" encoding="UTF-8" standalone="no"?>
<!DOCTYPE svg PUBLIC "-//W3C//DTD SVG 1.1//EN"
 "http://www.w3.org/Graphics/SVG/1.1/DTD/svg11.dtd">
<!-- Generated by graphviz version 2.47.1 (20210417.1919)
 -->
<!-- Title: G Pages: 1 -->
<svg width="2365pt" height="1175pt"
 viewBox="0.00 0.00 2364.69 1175.31" xmlns="http://www.w3.org/2000/svg" xmlns:xlink="http://www.w3.org/1999/xlink">
<g id="graph0" class="graph" transform="scale(1 1) rotate(0) translate(4 1171.31)">
<title>G</title>
<polygon fill="white" stroke="transparent" points="-4,4 -4,-1171.31 2360.69,-1171.31 2360.69,4 -4,4"/>
<text text-anchor="middle" x="1178.34" y="-13.4" font-family="Times,serif" font-size="32.00">single contraction: 0 → 1</text>
<!-- t -->
<g id="node1" class="node">
<title>t</title>
<ellipse fill="lightgray" stroke="black" cx="27" cy="-565.31" rx="27" ry="30.31"/>
<text text-anchor="middle" x="27" y="-557.21" font-family="Times,serif" font-size="32.00">t</text>
</g>
<!-- z0 -->
<g id="node2" class="node">
<title>z0</title>
<ellipse fill="none" stroke="black" stroke-dasharray="5,2" cx="2329.69" cy="-633.31" rx="27" ry="18"/>
</g>
<!-- da -->
<g id="node3" class="node">
<title>da</title>
<ellipse fill="none" stroke="black" cx="2093.36" cy="-633.31" rx="33.47" ry="30.31"/>
<text text-anchor="middle" x="2093.36" y="-625.21" font-family="Times,serif" font-size="32.00">da</text>
</g>
<!-- z0&#45;&gt;da -->
<g id="edge1" class="edge">
<title>z0&#45;&gt;da</title>
<path fill="none" stroke="#000000" d="M2302.26,-633.31C2262.01,-633.31 2184.93,-633.31 2136.78,-633.31"/>
<polygon fill="#000000" stroke="#000000" points="2136.67,-629.81 2126.67,-633.31 2136.67,-636.81 2136.67,-629.81"/>
<text text-anchor="middle" x="2224.19" y="-712.71" font-family="Times,serif" font-size="32.00">Mary |</text>
<text text-anchor="middle" x="2224.19" y="-677.71" font-family="Times,serif" font-size="32.00"> John</text>
<text text-anchor="middle" x="2224.19" y="-642.71" font-family="Times,serif" font-size="32.00">da &#45;k</text>
</g>
<!-- z1 -->
<g id="node4" class="node">
<title>z1</title>
<ellipse fill="none" stroke="black" stroke-dasharray="5,2" cx="2329.69" cy="-761.31" rx="27" ry="18"/>
</g>
<!-- poss -->
<g id="node5" class="node">
<title>poss</title>
<ellipse fill="none" stroke="black" cx="2093.36" cy="-761.31" rx="52.15" ry="30.31"/>
<text text-anchor="middle" x="2093.36" y="-753.21" font-family="Times,serif" font-size="32.00">poss</text>
</g>
<!-- z1&#45;&gt;poss -->
<g id="edge2" class="edge">
<title>z1&#45;&gt;poss</title>
<path fill="none" stroke="#000000" d="M2302.26,-761.31C2267.03,-761.31 2203.58,-761.31 2156.01,-761.31"/>
<polygon fill="#000000" stroke="#000000" points="2155.81,-757.81 2145.81,-761.31 2155.81,-764.81 2155.81,-757.81"/>
<text text-anchor="middle" x="2224.19" y="-840.71" font-family="Times,serif" font-size="32.00">Mary&#39;s |</text>
<text text-anchor="middle" x="2224.19" y="-805.71" font-family="Times,serif" font-size="32.00"> John&#39;s</text>
<text text-anchor="middle" x="2224.19" y="-770.71" font-family="Times,serif" font-size="32.00">poss</text>
</g>
<!-- z2 -->
<g id="node6" class="node">
<title>z2</title>
<ellipse fill="none" stroke="black" stroke-dasharray="5,2" cx="2329.69" cy="-540.31" rx="27" ry="18"/>
</g>
<!-- d -->
<g id="node7" class="node">
<title>d</title>
<ellipse fill="none" stroke="black" cx="2093.36" cy="-540.31" rx="27" ry="30.31"/>
<text text-anchor="middle" x="2093.36" y="-532.21" font-family="Times,serif" font-size="32.00">d</text>
</g>
<!-- z2&#45;&gt;d -->
<g id="edge3" class="edge">
<title>z2&#45;&gt;d</title>
<path fill="none" stroke="#000000" d="M2302.26,-540.31C2260.31,-540.31 2178.37,-540.31 2130.85,-540.31"/>
<polygon fill="#000000" stroke="#000000" points="2130.69,-536.81 2120.69,-540.31 2130.69,-543.81 2130.69,-536.81"/>
<text text-anchor="middle" x="2224.19" y="-584.71" font-family="Times,serif" font-size="32.00">the&#45;cause</text>
<text text-anchor="middle" x="2224.19" y="-549.71" font-family="Times,serif" font-size="32.00">d &#45;k</text>
</g>
<!-- for -->
<g id="node8" class="node">
<title>for</title>
<ellipse fill="none" stroke="black" cx="1712.52" cy="-727.31" rx="37.45" ry="30.31"/>
<text text-anchor="middle" x="1712.52" y="-719.21" font-family="Times,serif" font-size="32.00">for</text>
</g>
<!-- d&#45;&gt;for -->
<g id="edge4" class="edge">
<title>d&#45;&gt;for</title>
<path fill="none" stroke="#000000" d="M2071.38,-558.37C2061.08,-568.14 2049.17,-580.94 2041.04,-594.31 2028.32,-615.2 2042.23,-631.15 2023.04,-646.31 1982.55,-678.28 1840.17,-650.76 1792.04,-669.31 1775.14,-675.82 1758.67,-686.99 1745.22,-697.81"/>
<polygon fill="#000000" stroke="#000000" points="1742.69,-695.36 1737.26,-704.45 1747.18,-700.73 1742.69,-695.36"/>
<text text-anchor="middle" x="1907.54" y="-713.71" font-family="Times,serif" font-size="32.00">for</text>
<text text-anchor="middle" x="1907.54" y="-678.71" font-family="Times,serif" font-size="32.00">=d *k for</text>
</g>
<!-- of -->
<g id="node9" class="node">
<title>of</title>
<ellipse fill="none" stroke="black" cx="1712.52" cy="-209.31" rx="30.31" ry="30.31"/>
<text text-anchor="middle" x="1712.52" y="-201.21" font-family="Times,serif" font-size="32.00">of</text>
</g>
<!-- d&#45;&gt;of -->
<g id="edge5" class="edge">
<title>d&#45;&gt;of</title>
<path fill="none" stroke="#000000" d="M2092.16,-509.82C2090.88,-422.13 2082.02,-172.32 2023.04,-122.31 1944.73,-55.92 1885.85,-80.6 1792.04,-122.31 1767.74,-133.11 1747.79,-155.55 1734.08,-174.93"/>
<polygon fill="#000000" stroke="#000000" points="1731.13,-173.05 1728.41,-183.29 1736.92,-176.98 1731.13,-173.05"/>
<text text-anchor="middle" x="1907.54" y="-166.71" font-family="Times,serif" font-size="32.00">of</text>
<text text-anchor="middle" x="1907.54" y="-131.71" font-family="Times,serif" font-size="32.00">=d *k of</text>
</g>
<!-- about -->
<g id="node10" class="node">
<title>about</title>
<ellipse fill="none" stroke="black" cx="1712.52" cy="-540.31" rx="61.54" ry="30.31"/>
<text text-anchor="middle" x="1712.52" y="-532.21" font-family="Times,serif" font-size="32.00">about</text>
</g>
<!-- d&#45;&gt;about -->
<g id="edge6" class="edge">
<title>d&#45;&gt;about</title>
<path fill="none" stroke="#000000" d="M2080.58,-513.37C2069.33,-491.37 2050.06,-461.78 2023.04,-448.31 1977.1,-425.4 1838.65,-426.81 1792.04,-448.31 1767.95,-459.42 1748.52,-481.96 1735.01,-501.95"/>
<polygon fill="#000000" stroke="#000000" points="1731.9,-500.31 1729.41,-510.61 1737.78,-504.12 1731.9,-500.31"/>
<text text-anchor="middle" x="1907.54" y="-492.71" font-family="Times,serif" font-size="32.00">about</text>
<text text-anchor="middle" x="1907.54" y="-457.71" font-family="Times,serif" font-size="32.00">=d *k about</text>
</g>
<!-- 0 -->
<g id="node11" class="node">
<title>0</title>
<ellipse fill="none" stroke="black" cx="1231" cy="-660.31" rx="27" ry="30.31"/>
<text text-anchor="middle" x="1231" y="-652.21" font-family="Times,serif" font-size="32.00">0</text>
</g>
<!-- d&#45;&gt;0 -->
<g id="edge27" class="edge">
<title>d&#45;&gt;0</title>
<path fill="none" stroke="#000000" d="M2070.59,-556.84C2059.66,-566.47 2047.42,-579.59 2041.04,-594.31 2027.48,-625.55 2047.82,-876.94 2023.04,-900.31 1936.35,-982.05 1466.59,-919.06 1351,-846.31 1296.1,-811.76 1261.79,-741.62 1244.83,-698.04"/>
<polygon fill="#000000" stroke="#000000" points="1248.09,-696.75 1241.28,-688.63 1241.54,-699.22 1248.09,-696.75"/>
<text text-anchor="middle" x="1557.5" y="-1141.71" font-family="Times,serif" font-size="32.00">fear |</text>
<text text-anchor="middle" x="1557.5" y="-1106.71" font-family="Times,serif" font-size="32.00"> neglect |</text>
<text text-anchor="middle" x="1557.5" y="-1071.71" font-family="Times,serif" font-size="32.00"> scorn |</text>
<text text-anchor="middle" x="1557.5" y="-1036.71" font-family="Times,serif" font-size="32.00"> respect |</text>
<text text-anchor="middle" x="1557.5" y="-1001.71" font-family="Times,serif" font-size="32.00"> disdain |</text>
<text text-anchor="middle" x="1557.5" y="-966.71" font-family="Times,serif" font-size="32.00"> doubt</text>
<text text-anchor="middle" x="1557.5" y="-931.71" font-family="Times,serif" font-size="32.00">=d *k 0</text>
</g>
<!-- for&#45;&gt;d -->
<g id="edge19" class="edge">
<title>for&#45;&gt;d</title>
<path fill="none" stroke="#000000" d="M1748.94,-734.51C1821.45,-748.37 1983.34,-774.38 2023.04,-739.31 2047.37,-717.81 2027.15,-623.66 2041.04,-594.31 2046.3,-583.18 2054.74,-572.87 2063.26,-564.3"/>
<polygon fill="#000000" stroke="#000000" points="2065.86,-566.66 2070.7,-557.24 2061.04,-561.59 2065.86,-566.66"/>
<text text-anchor="middle" x="1907.54" y="-870.71" font-family="Times,serif" font-size="32.00">hope_1 |</text>
<text text-anchor="middle" x="1907.54" y="-835.71" font-family="Times,serif" font-size="32.00"> respect_1 |</text>
<text text-anchor="middle" x="1907.54" y="-800.71" font-family="Times,serif" font-size="32.00"> disdain_1</text>
<text text-anchor="middle" x="1907.54" y="-765.71" font-family="Times,serif" font-size="32.00">=for poss= d &#45;k</text>
</g>
<!-- for&#45;&gt;0 -->
<g id="edge18" class="edge">
<title>for&#45;&gt;0</title>
<path fill="none" stroke="#000000" d="M1681.69,-745.17C1667.47,-752.67 1649.91,-760.52 1633,-764.31 1510,-791.84 1467.54,-782.31 1351,-734.31 1318.89,-721.08 1285.58,-699.59 1262.4,-683.17"/>
<polygon fill="#000000" stroke="#000000" points="1264.2,-680.15 1254.04,-677.15 1260.11,-685.83 1264.2,-680.15"/>
<text text-anchor="middle" x="1407.5" y="-816.71" font-family="Times,serif" font-size="32.00">hope</text>
<text text-anchor="middle" x="1407.5" y="-781.71" font-family="Times,serif" font-size="32.00">=for 0</text>
</g>
<!-- a -->
<g id="node12" class="node">
<title>a</title>
<ellipse fill="none" stroke="black" cx="1407.5" cy="-549.31" rx="27" ry="30.31"/>
<text text-anchor="middle" x="1407.5" y="-541.21" font-family="Times,serif" font-size="32.00">a</text>
</g>
<!-- for&#45;&gt;a -->
<g id="edge20" class="edge">
<title>for&#45;&gt;a</title>
<path fill="none" stroke="#000000" d="M1679.37,-712.82C1665.29,-706.72 1648.47,-699.79 1633,-694.31 1567.12,-670.95 1539.19,-690.5 1482,-650.31 1458.25,-633.61 1439.24,-606.76 1426.5,-584.94"/>
<polygon fill="#000000" stroke="#000000" points="1429.39,-582.93 1421.44,-575.94 1423.29,-586.37 1429.39,-582.93"/>
<text text-anchor="middle" x="1557.5" y="-738.71" font-family="Times,serif" font-size="32.00">hopeful</text>
<text text-anchor="middle" x="1557.5" y="-703.71" font-family="Times,serif" font-size="32.00">=for a</text>
</g>
<!-- of&#45;&gt;d -->
<g id="edge22" class="edge">
<title>of&#45;&gt;d</title>
<path fill="none" stroke="#000000" d="M1742.94,-205.76C1811.88,-198.13 1981.19,-183.5 2023.04,-218.31 2065.84,-253.92 2083.64,-421.71 2089.71,-499.95"/>
<polygon fill="#000000" stroke="#000000" points="2086.22,-500.22 2090.46,-509.93 2093.2,-499.7 2086.22,-500.22"/>
<text text-anchor="middle" x="1907.54" y="-402.71" font-family="Times,serif" font-size="32.00">boast_1 |</text>
<text text-anchor="middle" x="1907.54" y="-367.71" font-family="Times,serif" font-size="32.00"> fear_1 |</text>
<text text-anchor="middle" x="1907.54" y="-332.71" font-family="Times,serif" font-size="32.00"> neglect_1 |</text>
<text text-anchor="middle" x="1907.54" y="-297.71" font-family="Times,serif" font-size="32.00"> scorn_1 |</text>
<text text-anchor="middle" x="1907.54" y="-262.71" font-family="Times,serif" font-size="32.00"> doubt_1</text>
<text text-anchor="middle" x="1907.54" y="-227.71" font-family="Times,serif" font-size="32.00">=of poss= d &#45;k</text>
</g>
<!-- of&#45;&gt;0 -->
<g id="edge21" class="edge">
<title>of&#45;&gt;0</title>
<path fill="none" stroke="#000000" d="M1682.69,-202.37C1636.74,-192.98 1545.6,-181.33 1482,-218.31 1328.44,-307.59 1261.74,-530.13 1240.29,-620.86"/>
<polygon fill="#000000" stroke="#000000" points="1236.85,-620.22 1238.01,-630.75 1243.67,-621.79 1236.85,-620.22"/>
<text text-anchor="middle" x="1407.5" y="-389.71" font-family="Times,serif" font-size="32.00">boast</text>
<text text-anchor="middle" x="1407.5" y="-354.71" font-family="Times,serif" font-size="32.00">=of 0</text>
</g>
<!-- of&#45;&gt;a -->
<g id="edge23" class="edge">
<title>of&#45;&gt;a</title>
<path fill="none" stroke="#000000" d="M1681.82,-211.38C1626.42,-215.84 1510.38,-228.24 1482,-255.31 1445.58,-290.05 1422.54,-437.1 1413.23,-509.16"/>
<polygon fill="#000000" stroke="#000000" points="1409.74,-508.87 1411.95,-519.23 1416.68,-509.75 1409.74,-508.87"/>
<text text-anchor="middle" x="1557.5" y="-509.71" font-family="Times,serif" font-size="32.00">boastful |</text>
<text text-anchor="middle" x="1557.5" y="-474.71" font-family="Times,serif" font-size="32.00"> fearful |</text>
<text text-anchor="middle" x="1557.5" y="-439.71" font-family="Times,serif" font-size="32.00"> neglectful |</text>
<text text-anchor="middle" x="1557.5" y="-404.71" font-family="Times,serif" font-size="32.00"> scornful |</text>
<text text-anchor="middle" x="1557.5" y="-369.71" font-family="Times,serif" font-size="32.00"> respectful |</text>
<text text-anchor="middle" x="1557.5" y="-334.71" font-family="Times,serif" font-size="32.00"> disdainful |</text>
<text text-anchor="middle" x="1557.5" y="-299.71" font-family="Times,serif" font-size="32.00"> doubtful</text>
<text text-anchor="middle" x="1557.5" y="-264.71" font-family="Times,serif" font-size="32.00">=of a</text>
</g>
<!-- about&#45;&gt;d -->
<g id="edge25" class="edge">
<title>about&#45;&gt;d</title>
<path fill="none" stroke="#000000" d="M1774.18,-540.31C1853.81,-540.31 1991.1,-540.31 2056.15,-540.31"/>
<polygon fill="#000000" stroke="#000000" points="2056.32,-543.81 2066.32,-540.31 2056.32,-536.81 2056.32,-543.81"/>
<text text-anchor="middle" x="1907.54" y="-619.71" font-family="Times,serif" font-size="32.00">boast_3 |</text>
<text text-anchor="middle" x="1907.54" y="-584.71" font-family="Times,serif" font-size="32.00"> doubt_2</text>
<text text-anchor="middle" x="1907.54" y="-549.71" font-family="Times,serif" font-size="32.00">=about poss= d &#45;k</text>
</g>
<!-- about&#45;&gt;0 -->
<g id="edge24" class="edge">
<title>about&#45;&gt;0</title>
<path fill="none" stroke="#000000" d="M1698.68,-570.06C1686,-595.32 1664.01,-630 1633,-646.31 1617.03,-654.71 1364.14,-658.68 1268.37,-659.89"/>
<polygon fill="#000000" stroke="#000000" points="1268.24,-656.39 1258.29,-660.02 1268.33,-663.39 1268.24,-656.39"/>
<text text-anchor="middle" x="1407.5" y="-703.71" font-family="Times,serif" font-size="32.00">boast_2</text>
<text text-anchor="middle" x="1407.5" y="-668.71" font-family="Times,serif" font-size="32.00">=about 0</text>
</g>
<!-- about&#45;&gt;a -->
<g id="edge26" class="edge">
<title>about&#45;&gt;a</title>
<path fill="none" stroke="#000000" d="M1651.06,-538.86C1604.75,-538.16 1539.29,-538.07 1482,-541.31 1469.81,-542 1456.53,-543.28 1444.65,-544.62"/>
<polygon fill="#000000" stroke="#000000" points="1444.16,-541.15 1434.64,-545.79 1444.98,-548.1 1444.16,-541.15"/>
<text text-anchor="middle" x="1557.5" y="-620.71" font-family="Times,serif" font-size="32.00">boastful_1 |</text>
<text text-anchor="middle" x="1557.5" y="-585.71" font-family="Times,serif" font-size="32.00"> doubtful_1</text>
<text text-anchor="middle" x="1557.5" y="-550.71" font-family="Times,serif" font-size="32.00">=about a</text>
</g>
<!-- 0&#45;&gt;t -->
<g id="edge7" class="edge">
<title>0&#45;&gt;t</title>
<path fill="none" stroke="#000000" d="M1213.59,-683.69C1206.11,-692.83 1196.57,-702.7 1186,-709.31 1077.82,-776.97 1037.59,-788.31 910,-788.31 910,-788.31 910,-788.31 247.5,-788.31 166.75,-788.31 128.62,-798.88 72,-741.31 53.26,-722.26 40.04,-651.15 33.24,-605.36"/>
<polygon fill="#000000" stroke="#000000" points="36.71,-604.83 31.81,-595.43 29.78,-605.83 36.71,-604.83"/>
<text text-anchor="middle" x="569" y="-867.71" font-family="Times,serif" font-size="32.00">s |</text>
<text text-anchor="middle" x="569" y="-832.71" font-family="Times,serif" font-size="32.00"> d</text>
<text text-anchor="middle" x="569" y="-797.71" font-family="Times,serif" font-size="32.00">=&gt;0 =da +k t</text>
</g>
<!-- v -->
<g id="node13" class="node">
<title>v</title>
<ellipse fill="none" stroke="black" cx="248.5" cy="-673.31" rx="27" ry="30.31"/>
<text text-anchor="middle" x="248.5" y="-665.21" font-family="Times,serif" font-size="32.00">v</text>
</g>
<!-- 0&#45;&gt;v -->
<g id="edge9" class="edge">
<title>0&#45;&gt;v</title>
<path fill="none" stroke="#000000" d="M1208.89,-677.79C1202.01,-682.46 1194.06,-686.89 1186,-689.31 1111.39,-711.68 562.84,-691.95 485,-689.31 414.33,-686.91 331.93,-680.47 285.72,-676.53"/>
<polygon fill="#000000" stroke="#000000" points="285.87,-673.03 275.61,-675.66 285.27,-680.01 285.87,-673.03"/>
<text text-anchor="middle" x="739" y="-742.71" font-family="Times,serif" font-size="32.00">ε_0</text>
<text text-anchor="middle" x="739" y="-707.71" font-family="Times,serif" font-size="32.00">=&gt;0 =da v</text>
</g>
<!-- perf -->
<g id="node14" class="node">
<title>perf</title>
<ellipse fill="none" stroke="black" cx="569" cy="-520.31" rx="48.17" ry="30.31"/>
<text text-anchor="middle" x="569" y="-512.21" font-family="Times,serif" font-size="32.00">perf</text>
</g>
<!-- 0&#45;&gt;perf -->
<g id="edge10" class="edge">
<title>0&#45;&gt;perf</title>
<path fill="none" stroke="#000000" d="M1221.56,-631.38C1214.57,-611.31 1203,-584.95 1186,-566.31 1119.02,-492.87 1088.93,-479.33 993,-453.31 860.18,-417.29 698.31,-468.37 618.82,-499.44"/>
<polygon fill="#000000" stroke="#000000" points="617.08,-496.36 609.08,-503.31 619.67,-502.87 617.08,-496.36"/>
<text text-anchor="middle" x="909" y="-497.71" font-family="Times,serif" font-size="32.00">n</text>
<text text-anchor="middle" x="909" y="-462.71" font-family="Times,serif" font-size="32.00">=&gt;0 =da perf</text>
</g>
<!-- prog -->
<g id="node15" class="node">
<title>prog</title>
<ellipse fill="none" stroke="black" cx="909" cy="-562.31" rx="52.15" ry="30.31"/>
<text text-anchor="middle" x="909" y="-554.21" font-family="Times,serif" font-size="32.00">prog</text>
</g>
<!-- 0&#45;&gt;prog -->
<g id="edge11" class="edge">
<title>0&#45;&gt;prog</title>
<path fill="none" stroke="#000000" d="M1211.66,-638.95C1204.37,-631.7 1195.46,-624.2 1186,-619.31 1117.83,-584.08 1029.6,-570.63 971.47,-565.48"/>
<polygon fill="#000000" stroke="#000000" points="971.59,-561.98 961.34,-564.65 971.01,-568.96 971.59,-561.98"/>
<text text-anchor="middle" x="1098.5" y="-663.71" font-family="Times,serif" font-size="32.00">ing</text>
<text text-anchor="middle" x="1098.5" y="-628.71" font-family="Times,serif" font-size="32.00">=&gt;0 =da prog</text>
</g>
<!-- a&#45;&gt;0 -->
<g id="edge8" class="edge">
<title>a&#45;&gt;0</title>
<path fill="none" stroke="#000000" d="M1380.31,-548.4C1351.88,-548.75 1306.48,-553.32 1276,-576.31 1260.95,-587.66 1250.56,-605.67 1243.67,-622.1"/>
<polygon fill="#000000" stroke="#000000" points="1240.36,-620.94 1240.01,-631.53 1246.89,-623.48 1240.36,-620.94"/>
<text text-anchor="middle" x="1304.5" y="-620.71" font-family="Times,serif" font-size="32.00">be</text>
<text text-anchor="middle" x="1304.5" y="-585.71" font-family="Times,serif" font-size="32.00">=a 0</text>
</g>
<!-- v&#45;&gt;t -->
<g id="edge12" class="edge">
<title>v&#45;&gt;t</title>
<path fill="none" stroke="#000000" d="M223.59,-661.54C184.28,-642.2 105.89,-603.63 61.21,-581.65"/>
<polygon fill="#000000" stroke="#000000" points="62.73,-578.5 52.21,-577.22 59.64,-584.78 62.73,-578.5"/>
<text text-anchor="middle" x="119" y="-711.71" font-family="Times,serif" font-size="32.00">wills |</text>
<text text-anchor="middle" x="119" y="-676.71" font-family="Times,serif" font-size="32.00"> willd</text>
<text text-anchor="middle" x="119" y="-641.71" font-family="Times,serif" font-size="32.00">=v +k t</text>
</g>
<!-- perf&#45;&gt;t -->
<g id="edge13" class="edge">
<title>perf&#45;&gt;t</title>
<path fill="none" stroke="#000000" d="M520.78,-518.34C448.1,-516.01 304.58,-514.14 184,-529.31 142,-534.59 94.77,-546.33 63.39,-554.97"/>
<polygon fill="#000000" stroke="#000000" points="62.07,-551.7 53.39,-557.77 63.96,-558.44 62.07,-551.7"/>
<text text-anchor="middle" x="248.5" y="-608.71" font-family="Times,serif" font-size="32.00">haves |</text>
<text text-anchor="middle" x="248.5" y="-573.71" font-family="Times,serif" font-size="32.00"> haved</text>
<text text-anchor="middle" x="248.5" y="-538.71" font-family="Times,serif" font-size="32.00">=perf +k t</text>
</g>
<!-- perf&#45;&gt;v -->
<g id="edge14" class="edge">
<title>perf&#45;&gt;v</title>
<path fill="none" stroke="#000000" d="M521.52,-525.62C454.51,-533.48 337.98,-547.95 331,-554.31 305.66,-577.39 332.36,-601.02 313,-629.31 305.29,-640.57 293.67,-649.84 282.47,-656.91"/>
<polygon fill="#000000" stroke="#000000" points="280.5,-654.01 273.66,-662.11 284.05,-660.04 280.5,-654.01"/>
<text text-anchor="middle" x="399" y="-598.71" font-family="Times,serif" font-size="32.00">have</text>
<text text-anchor="middle" x="399" y="-563.71" font-family="Times,serif" font-size="32.00">=perf v</text>
</g>
<!-- prog&#45;&gt;t -->
<g id="edge15" class="edge">
<title>prog&#45;&gt;t</title>
<path fill="none" stroke="#000000" d="M863.16,-547.35C850.26,-542.03 836.57,-535.32 825,-527.31 815.44,-520.68 816.92,-514.38 807,-508.31 622.62,-395.46 542.11,-361.78 331,-408.31 207.11,-435.61 179.05,-460.22 72,-528.31 66.58,-531.75 61.11,-535.8 55.95,-539.93"/>
<polygon fill="#000000" stroke="#000000" points="53.61,-537.33 48.16,-546.42 58.09,-542.71 53.61,-537.33"/>
<text text-anchor="middle" x="399" y="-487.71" font-family="Times,serif" font-size="32.00">bes |</text>
<text text-anchor="middle" x="399" y="-452.71" font-family="Times,serif" font-size="32.00"> bed</text>
<text text-anchor="middle" x="399" y="-417.71" font-family="Times,serif" font-size="32.00">=prog +k t</text>
</g>
<!-- prog&#45;&gt;v -->
<g id="edge16" class="edge">
<title>prog&#45;&gt;v</title>
<path fill="none" stroke="#000000" d="M863.19,-577.18C845.82,-582.42 825.66,-587.85 807,-591.31 665.75,-617.47 626.36,-593.75 485,-619.31 476.83,-620.78 475.05,-622.28 467,-624.31 403.36,-640.3 328.63,-656.6 285.4,-665.79"/>
<polygon fill="#000000" stroke="#000000" points="284.44,-662.41 275.38,-667.91 285.89,-669.26 284.44,-662.41"/>
<text text-anchor="middle" x="569" y="-663.71" font-family="Times,serif" font-size="32.00">be_1</text>
<text text-anchor="middle" x="569" y="-628.71" font-family="Times,serif" font-size="32.00">=prog v</text>
</g>
<!-- prog&#45;&gt;perf -->
<g id="edge17" class="edge">
<title>prog&#45;&gt;perf</title>
<path fill="none" stroke="#000000" d="M868.78,-542.31C850.51,-534.07 828.17,-525.49 807,-521.31 746.45,-509.35 675.49,-511.06 627.11,-514.53"/>
<polygon fill="#000000" stroke="#000000" points="626.54,-511.06 616.84,-515.32 627.08,-518.04 626.54,-511.06"/>
<text text-anchor="middle" x="739" y="-565.71" font-family="Times,serif" font-size="32.00">ben</text>
<text text-anchor="middle" x="739" y="-530.71" font-family="Times,serif" font-size="32.00">=prog perf</text>
</g>
</g>
</svg>
