<?xml version="1.0" encoding="UTF-8" standalone="no"?>
<!DOCTYPE svg PUBLIC "-//W3C//DTD SVG 1.1//EN"
 "http://www.w3.org/Graphics/SVG/1.1/DTD/svg11.dtd">
<!-- Generated by graphviz version 2.47.1 (20210417.1919)
 -->
<!-- Title: G Pages: 1 -->
<svg width="2593pt" height="1175pt"
 viewBox="0.00 0.00 2592.69 1175.31" xmlns="http://www.w3.org/2000/svg" xmlns:xlink="http://www.w3.org/1999/xlink">
<g id="graph0" class="graph" transform="scale(1 1) rotate(0) translate(4 1171.31)">
<title>G</title>
<polygon fill="white" stroke="transparent" points="-4,4 -4,-1171.31 2588.69,-1171.31 2588.69,4 -4,4"/>
<text text-anchor="middle" x="1292.34" y="-13.4" font-family="Times,serif" font-size="32.00">decomposition: haves =perf +k t, haved =perf +k t, have =perf v</text>
<!-- t -->
<g id="node1" class="node">
<title>t</title>
<ellipse fill="lightgray" stroke="black" cx="27" cy="-591.31" rx="27" ry="30.31"/>
<text text-anchor="middle" x="27" y="-583.21" font-family="Times,serif" font-size="32.00">t</text>
</g>
<!-- z0 -->
<g id="node2" class="node">
<title>z0</title>
<ellipse fill="none" stroke="black" stroke-dasharray="5,2" cx="2557.69" cy="-633.31" rx="27" ry="18"/>
</g>
<!-- da -->
<g id="node3" class="node">
<title>da</title>
<ellipse fill="none" stroke="black" cx="2321.36" cy="-633.31" rx="33.47" ry="30.31"/>
<text text-anchor="middle" x="2321.36" y="-625.21" font-family="Times,serif" font-size="32.00">da</text>
</g>
<!-- z0&#45;&gt;da -->
<g id="edge1" class="edge">
<title>z0&#45;&gt;da</title>
<path fill="none" stroke="#000000" d="M2530.26,-633.31C2490.01,-633.31 2412.93,-633.31 2364.78,-633.31"/>
<polygon fill="#000000" stroke="#000000" points="2364.67,-629.81 2354.67,-633.31 2364.67,-636.81 2364.67,-629.81"/>
<text text-anchor="middle" x="2452.19" y="-712.71" font-family="Times,serif" font-size="32.00">Mary |</text>
<text text-anchor="middle" x="2452.19" y="-677.71" font-family="Times,serif" font-size="32.00"> John</text>
<text text-anchor="middle" x="2452.19" y="-642.71" font-family="Times,serif" font-size="32.00">da &#45;k</text>
</g>
<!-- z1 -->
<g id="node4" class="node">
<title>z1</title>
<ellipse fill="none" stroke="black" stroke-dasharray="5,2" cx="2557.69" cy="-761.31" rx="27" ry="18"/>
</g>
<!-- poss -->
<g id="node5" class="node">
<title>poss</title>
<ellipse fill="none" stroke="black" cx="2321.36" cy="-761.31" rx="52.15" ry="30.31"/>
<text text-anchor="middle" x="2321.36" y="-753.21" font-family="Times,serif" font-size="32.00">poss</text>
</g>
<!-- z1&#45;&gt;poss -->
<g id="edge2" class="edge">
<title>z1&#45;&gt;poss</title>
<path fill="none" stroke="#000000" d="M2530.26,-761.31C2495.03,-761.31 2431.58,-761.31 2384.01,-761.31"/>
<polygon fill="#000000" stroke="#000000" points="2383.81,-757.81 2373.81,-761.31 2383.81,-764.81 2383.81,-757.81"/>
<text text-anchor="middle" x="2452.19" y="-840.71" font-family="Times,serif" font-size="32.00">Mary&#39;s |</text>
<text text-anchor="middle" x="2452.19" y="-805.71" font-family="Times,serif" font-size="32.00"> John&#39;s</text>
<text text-anchor="middle" x="2452.19" y="-770.71" font-family="Times,serif" font-size="32.00">poss</text>
</g>
<!-- z2 -->
<g id="node6" class="node">
<title>z2</title>
<ellipse fill="none" stroke="black" stroke-dasharray="5,2" cx="2557.69" cy="-540.31" rx="27" ry="18"/>
</g>
<!-- d -->
<g id="node7" class="node">
<title>d</title>
<ellipse fill="none" stroke="black" cx="2321.36" cy="-540.31" rx="27" ry="30.31"/>
<text text-anchor="middle" x="2321.36" y="-532.21" font-family="Times,serif" font-size="32.00">d</text>
</g>
<!-- z2&#45;&gt;d -->
<g id="edge3" class="edge">
<title>z2&#45;&gt;d</title>
<path fill="none" stroke="#000000" d="M2530.26,-540.31C2488.31,-540.31 2406.37,-540.31 2358.85,-540.31"/>
<polygon fill="#000000" stroke="#000000" points="2358.69,-536.81 2348.69,-540.31 2358.69,-543.81 2358.69,-536.81"/>
<text text-anchor="middle" x="2452.19" y="-584.71" font-family="Times,serif" font-size="32.00">the&#45;cause</text>
<text text-anchor="middle" x="2452.19" y="-549.71" font-family="Times,serif" font-size="32.00">d &#45;k</text>
</g>
<!-- for -->
<g id="node8" class="node">
<title>for</title>
<ellipse fill="none" stroke="black" cx="1940.52" cy="-727.31" rx="37.45" ry="30.31"/>
<text text-anchor="middle" x="1940.52" y="-719.21" font-family="Times,serif" font-size="32.00">for</text>
</g>
<!-- d&#45;&gt;for -->
<g id="edge4" class="edge">
<title>d&#45;&gt;for</title>
<path fill="none" stroke="#000000" d="M2299.38,-558.37C2289.08,-568.14 2277.17,-580.94 2269.04,-594.31 2256.32,-615.2 2270.23,-631.15 2251.04,-646.31 2210.55,-678.28 2068.17,-650.76 2020.04,-669.31 2003.14,-675.82 1986.67,-686.99 1973.22,-697.81"/>
<polygon fill="#000000" stroke="#000000" points="1970.69,-695.36 1965.26,-704.45 1975.18,-700.73 1970.69,-695.36"/>
<text text-anchor="middle" x="2135.54" y="-713.71" font-family="Times,serif" font-size="32.00">for</text>
<text text-anchor="middle" x="2135.54" y="-678.71" font-family="Times,serif" font-size="32.00">=d *k for</text>
</g>
<!-- of -->
<g id="node9" class="node">
<title>of</title>
<ellipse fill="none" stroke="black" cx="1940.52" cy="-209.31" rx="30.31" ry="30.31"/>
<text text-anchor="middle" x="1940.52" y="-201.21" font-family="Times,serif" font-size="32.00">of</text>
</g>
<!-- d&#45;&gt;of -->
<g id="edge5" class="edge">
<title>d&#45;&gt;of</title>
<path fill="none" stroke="#000000" d="M2320.16,-509.82C2318.88,-422.13 2310.02,-172.32 2251.04,-122.31 2172.73,-55.92 2113.85,-80.6 2020.04,-122.31 1995.74,-133.11 1975.79,-155.55 1962.08,-174.93"/>
<polygon fill="#000000" stroke="#000000" points="1959.13,-173.05 1956.41,-183.29 1964.92,-176.98 1959.13,-173.05"/>
<text text-anchor="middle" x="2135.54" y="-166.71" font-family="Times,serif" font-size="32.00">of</text>
<text text-anchor="middle" x="2135.54" y="-131.71" font-family="Times,serif" font-size="32.00">=d *k of</text>
</g>
<!-- about -->
<g id="node10" class="node">
<title>about</title>
<ellipse fill="none" stroke="black" cx="1940.52" cy="-540.31" rx="61.54" ry="30.31"/>
<text text-anchor="middle" x="1940.52" y="-532.21" font-family="Times,serif" font-size="32.00">about</text>
</g>
<!-- d&#45;&gt;about -->
<g id="edge6" class="edge">
<title>d&#45;&gt;about</title>
<path fill="none" stroke="#000000" d="M2308.58,-513.37C2297.33,-491.37 2278.06,-461.78 2251.04,-448.31 2205.1,-425.4 2066.65,-426.81 2020.04,-448.31 1995.95,-459.42 1976.52,-481.96 1963.01,-501.95"/>
<polygon fill="#000000" stroke="#000000" points="1959.9,-500.31 1957.41,-510.61 1965.78,-504.12 1959.9,-500.31"/>
<text text-anchor="middle" x="2135.54" y="-492.71" font-family="Times,serif" font-size="32.00">about</text>
<text text-anchor="middle" x="2135.54" y="-457.71" font-family="Times,serif" font-size="32.00">=d *k about</text>
</g>
<!-- 0 -->
<g id="node11" class="node">
<title>0</title>
<ellipse fill="none" stroke="black" cx="1459" cy="-660.31" rx="27" ry="30.31"/>
<text text-anchor="middle" x="1459" y="-652.21" font-family="Times,serif" font-size="32.00">0</text>
</g>
<!-- d&#45;&gt;0 -->
<g id="edge28" class="edge">
<title>d&#45;&gt;0</title>
<path fill="none" stroke="#000000" d="M2298.59,-556.84C2287.66,-566.47 2275.42,-579.59 2269.04,-594.31 2255.48,-625.55 2275.82,-876.94 2251.04,-900.31 2164.35,-982.05 1694.59,-919.06 1579,-846.31 1524.1,-811.76 1489.79,-741.62 1472.83,-698.04"/>
<polygon fill="#000000" stroke="#000000" points="1476.09,-696.75 1469.28,-688.63 1469.54,-699.22 1476.09,-696.75"/>
<text text-anchor="middle" x="1785.5" y="-1141.71" font-family="Times,serif" font-size="32.00">fear |</text>
<text text-anchor="middle" x="1785.5" y="-1106.71" font-family="Times,serif" font-size="32.00"> neglect |</text>
<text text-anchor="middle" x="1785.5" y="-1071.71" font-family="Times,serif" font-size="32.00"> scorn |</text>
<text text-anchor="middle" x="1785.5" y="-1036.71" font-family="Times,serif" font-size="32.00"> respect |</text>
<text text-anchor="middle" x="1785.5" y="-1001.71" font-family="Times,serif" font-size="32.00"> disdain |</text>
<text text-anchor="middle" x="1785.5" y="-966.71" font-family="Times,serif" font-size="32.00"> doubt</text>
<text text-anchor="middle" x="1785.5" y="-931.71" font-family="Times,serif" font-size="32.00">=d *k 0</text>
</g>
<!-- for&#45;&gt;d -->
<g id="edge20" class="edge">
<title>for&#45;&gt;d</title>
<path fill="none" stroke="#000000" d="M1976.94,-734.51C2049.45,-748.37 2211.34,-774.38 2251.04,-739.31 2275.37,-717.81 2255.15,-623.66 2269.04,-594.31 2274.3,-583.18 2282.74,-572.87 2291.26,-564.3"/>
<polygon fill="#000000" stroke="#000000" points="2293.86,-566.66 2298.7,-557.24 2289.04,-561.59 2293.86,-566.66"/>
<text text-anchor="middle" x="2135.54" y="-870.71" font-family="Times,serif" font-size="32.00">hope_1 |</text>
<text text-anchor="middle" x="2135.54" y="-835.71" font-family="Times,serif" font-size="32.00"> respect_1 |</text>
<text text-anchor="middle" x="2135.54" y="-800.71" font-family="Times,serif" font-size="32.00"> disdain_1</text>
<text text-anchor="middle" x="2135.54" y="-765.71" font-family="Times,serif" font-size="32.00">=for poss= d &#45;k</text>
</g>
<!-- for&#45;&gt;0 -->
<g id="edge19" class="edge">
<title>for&#45;&gt;0</title>
<path fill="none" stroke="#000000" d="M1909.69,-745.17C1895.47,-752.67 1877.91,-760.52 1861,-764.31 1738,-791.84 1695.54,-782.31 1579,-734.31 1546.89,-721.08 1513.58,-699.59 1490.4,-683.17"/>
<polygon fill="#000000" stroke="#000000" points="1492.2,-680.15 1482.04,-677.15 1488.11,-685.83 1492.2,-680.15"/>
<text text-anchor="middle" x="1635.5" y="-816.71" font-family="Times,serif" font-size="32.00">hope</text>
<text text-anchor="middle" x="1635.5" y="-781.71" font-family="Times,serif" font-size="32.00">=for 0</text>
</g>
<!-- a -->
<g id="node12" class="node">
<title>a</title>
<ellipse fill="none" stroke="black" cx="1635.5" cy="-549.31" rx="27" ry="30.31"/>
<text text-anchor="middle" x="1635.5" y="-541.21" font-family="Times,serif" font-size="32.00">a</text>
</g>
<!-- for&#45;&gt;a -->
<g id="edge21" class="edge">
<title>for&#45;&gt;a</title>
<path fill="none" stroke="#000000" d="M1907.37,-712.82C1893.29,-706.72 1876.47,-699.79 1861,-694.31 1795.12,-670.95 1767.19,-690.5 1710,-650.31 1686.25,-633.61 1667.24,-606.76 1654.5,-584.94"/>
<polygon fill="#000000" stroke="#000000" points="1657.39,-582.93 1649.44,-575.94 1651.29,-586.37 1657.39,-582.93"/>
<text text-anchor="middle" x="1785.5" y="-738.71" font-family="Times,serif" font-size="32.00">hopeful</text>
<text text-anchor="middle" x="1785.5" y="-703.71" font-family="Times,serif" font-size="32.00">=for a</text>
</g>
<!-- of&#45;&gt;d -->
<g id="edge23" class="edge">
<title>of&#45;&gt;d</title>
<path fill="none" stroke="#000000" d="M1970.94,-205.76C2039.88,-198.13 2209.19,-183.5 2251.04,-218.31 2293.84,-253.92 2311.64,-421.71 2317.71,-499.95"/>
<polygon fill="#000000" stroke="#000000" points="2314.22,-500.22 2318.46,-509.93 2321.2,-499.7 2314.22,-500.22"/>
<text text-anchor="middle" x="2135.54" y="-402.71" font-family="Times,serif" font-size="32.00">boast_1 |</text>
<text text-anchor="middle" x="2135.54" y="-367.71" font-family="Times,serif" font-size="32.00"> fear_1 |</text>
<text text-anchor="middle" x="2135.54" y="-332.71" font-family="Times,serif" font-size="32.00"> neglect_1 |</text>
<text text-anchor="middle" x="2135.54" y="-297.71" font-family="Times,serif" font-size="32.00"> scorn_1 |</text>
<text text-anchor="middle" x="2135.54" y="-262.71" font-family="Times,serif" font-size="32.00"> doubt_1</text>
<text text-anchor="middle" x="2135.54" y="-227.71" font-family="Times,serif" font-size="32.00">=of poss= d &#45;k</text>
</g>
<!-- of&#45;&gt;0 -->
<g id="edge22" class="edge">
<title>of&#45;&gt;0</title>
<path fill="none" stroke="#000000" d="M1910.69,-202.37C1864.74,-192.98 1773.6,-181.33 1710,-218.31 1556.44,-307.59 1489.74,-530.13 1468.29,-620.86"/>
<polygon fill="#000000" stroke="#000000" points="1464.85,-620.22 1466.01,-630.75 1471.67,-621.79 1464.85,-620.22"/>
<text text-anchor="middle" x="1635.5" y="-389.71" font-family="Times,serif" font-size="32.00">boast</text>
<text text-anchor="middle" x="1635.5" y="-354.71" font-family="Times,serif" font-size="32.00">=of 0</text>
</g>
<!-- of&#45;&gt;a -->
<g id="edge24" class="edge">
<title>of&#45;&gt;a</title>
<path fill="none" stroke="#000000" d="M1909.82,-211.38C1854.42,-215.84 1738.38,-228.24 1710,-255.31 1673.58,-290.05 1650.54,-437.1 1641.23,-509.16"/>
<polygon fill="#000000" stroke="#000000" points="1637.74,-508.87 1639.95,-519.23 1644.68,-509.75 1637.74,-508.87"/>
<text text-anchor="middle" x="1785.5" y="-509.71" font-family="Times,serif" font-size="32.00">boastful |</text>
<text text-anchor="middle" x="1785.5" y="-474.71" font-family="Times,serif" font-size="32.00"> fearful |</text>
<text text-anchor="middle" x="1785.5" y="-439.71" font-family="Times,serif" font-size="32.00"> neglectful |</text>
<text text-anchor="middle" x="1785.5" y="-404.71" font-family="Times,serif" font-size="32.00"> scornful |</text>
<text text-anchor="middle" x="1785.5" y="-369.71" font-family="Times,serif" font-size="32.00"> respectful |</text>
<text text-anchor="middle" x="1785.5" y="-334.71" font-family="Times,serif" font-size="32.00"> disdainful |</text>
<text text-anchor="middle" x="1785.5" y="-299.71" font-family="Times,serif" font-size="32.00"> doubtful</text>
<text text-anchor="middle" x="1785.5" y="-264.71" font-family="Times,serif" font-size="32.00">=of a</text>
</g>
<!-- about&#45;&gt;d -->
<g id="edge26" class="edge">
<title>about&#45;&gt;d</title>
<path fill="none" stroke="#000000" d="M2002.18,-540.31C2081.81,-540.31 2219.1,-540.31 2284.15,-540.31"/>
<polygon fill="#000000" stroke="#000000" points="2284.32,-543.81 2294.32,-540.31 2284.32,-536.81 2284.32,-543.81"/>
<text text-anchor="middle" x="2135.54" y="-619.71" font-family="Times,serif" font-size="32.00">boast_3 |</text>
<text text-anchor="middle" x="2135.54" y="-584.71" font-family="Times,serif" font-size="32.00"> doubt_2</text>
<text text-anchor="middle" x="2135.54" y="-549.71" font-family="Times,serif" font-size="32.00">=about poss= d &#45;k</text>
</g>
<!-- about&#45;&gt;0 -->
<g id="edge25" class="edge">
<title>about&#45;&gt;0</title>
<path fill="none" stroke="#000000" d="M1926.68,-570.06C1914,-595.32 1892.01,-630 1861,-646.31 1845.03,-654.71 1592.14,-658.68 1496.37,-659.89"/>
<polygon fill="#000000" stroke="#000000" points="1496.24,-656.39 1486.29,-660.02 1496.33,-663.39 1496.24,-656.39"/>
<text text-anchor="middle" x="1635.5" y="-703.71" font-family="Times,serif" font-size="32.00">boast_2</text>
<text text-anchor="middle" x="1635.5" y="-668.71" font-family="Times,serif" font-size="32.00">=about 0</text>
</g>
<!-- about&#45;&gt;a -->
<g id="edge27" class="edge">
<title>about&#45;&gt;a</title>
<path fill="none" stroke="#000000" d="M1879.06,-538.86C1832.75,-538.16 1767.29,-538.07 1710,-541.31 1697.81,-542 1684.53,-543.28 1672.65,-544.62"/>
<polygon fill="#000000" stroke="#000000" points="1672.16,-541.15 1662.64,-545.79 1672.98,-548.1 1672.16,-541.15"/>
<text text-anchor="middle" x="1785.5" y="-620.71" font-family="Times,serif" font-size="32.00">boastful_1 |</text>
<text text-anchor="middle" x="1785.5" y="-585.71" font-family="Times,serif" font-size="32.00"> doubtful_1</text>
<text text-anchor="middle" x="1785.5" y="-550.71" font-family="Times,serif" font-size="32.00">=about a</text>
</g>
<!-- 0&#45;&gt;t -->
<g id="edge7" class="edge">
<title>0&#45;&gt;t</title>
<path fill="none" stroke="#000000" d="M1445.15,-686.85C1437.68,-699.8 1427.13,-714.63 1414,-724.31 1310.58,-800.55 1266.48,-810.31 1138,-810.31 1138,-810.31 1138,-810.31 239,-810.31 160.13,-810.31 125.64,-808.13 72,-750.31 42.13,-718.11 32.25,-667.42 29.14,-631.96"/>
<polygon fill="#000000" stroke="#000000" points="32.63,-631.65 28.4,-621.94 25.65,-632.17 32.63,-631.65"/>
<text text-anchor="middle" x="646" y="-889.71" font-family="Times,serif" font-size="32.00">s |</text>
<text text-anchor="middle" x="646" y="-854.71" font-family="Times,serif" font-size="32.00"> d</text>
<text text-anchor="middle" x="646" y="-819.71" font-family="Times,serif" font-size="32.00">=&gt;0 =da +k t</text>
</g>
<!-- v -->
<g id="node13" class="node">
<title>v</title>
<ellipse fill="none" stroke="black" cx="240" cy="-668.31" rx="27" ry="30.31"/>
<text text-anchor="middle" x="240" y="-660.21" font-family="Times,serif" font-size="32.00">v</text>
</g>
<!-- 0&#45;&gt;v -->
<g id="edge9" class="edge">
<title>0&#45;&gt;v</title>
<path fill="none" stroke="#000000" d="M1439.33,-681.26C1432.13,-687.93 1423.37,-694.55 1414,-698.31 1300.01,-744.04 1260.82,-712.31 1138,-712.31 1138,-712.31 1138,-712.31 475,-712.31 403.33,-712.31 321.4,-692.12 275.99,-679.1"/>
<polygon fill="#000000" stroke="#000000" points="276.91,-675.72 266.33,-676.28 274.95,-682.44 276.91,-675.72"/>
<text text-anchor="middle" x="814.5" y="-756.71" font-family="Times,serif" font-size="32.00">ε_0</text>
<text text-anchor="middle" x="814.5" y="-721.71" font-family="Times,serif" font-size="32.00">=&gt;0 =da v</text>
</g>
<!-- perf -->
<g id="node14" class="node">
<title>perf</title>
<ellipse fill="none" stroke="black" cx="814.5" cy="-534.31" rx="48.17" ry="30.31"/>
<text text-anchor="middle" x="814.5" y="-526.21" font-family="Times,serif" font-size="32.00">perf</text>
</g>
<!-- 0&#45;&gt;perf -->
<g id="edge10" class="edge">
<title>0&#45;&gt;perf</title>
<path fill="none" stroke="#000000" d="M1447.84,-632.21C1440.45,-614.65 1429.1,-592.39 1414,-576.31 1345.32,-503.2 1317.61,-486.3 1221,-459.31 1093.55,-423.69 938.74,-478.61 862.53,-511.89"/>
<polygon fill="#000000" stroke="#000000" points="860.91,-508.78 853.19,-516.03 863.75,-515.18 860.91,-508.78"/>
<text text-anchor="middle" x="1137" y="-503.71" font-family="Times,serif" font-size="32.00">n</text>
<text text-anchor="middle" x="1137" y="-468.71" font-family="Times,serif" font-size="32.00">=&gt;0 =da perf</text>
</g>
<!-- prog -->
<g id="node15" class="node">
<title>prog</title>
<ellipse fill="none" stroke="black" cx="1137" cy="-568.31" rx="52.15" ry="30.31"/>
<text text-anchor="middle" x="1137" y="-560.21" font-family="Times,serif" font-size="32.00">prog</text>
</g>
<!-- 0&#45;&gt;prog -->
<g id="edge11" class="edge">
<title>0&#45;&gt;prog</title>
<path fill="none" stroke="#000000" d="M1436.73,-642.11C1429.84,-636.99 1421.93,-631.86 1414,-628.31 1343.93,-596.9 1256.31,-581.46 1198.83,-574.21"/>
<polygon fill="#000000" stroke="#000000" points="1199.16,-570.73 1188.81,-572.99 1198.31,-577.68 1199.16,-570.73"/>
<text text-anchor="middle" x="1326.5" y="-672.71" font-family="Times,serif" font-size="32.00">ing</text>
<text text-anchor="middle" x="1326.5" y="-637.71" font-family="Times,serif" font-size="32.00">=&gt;0 =da prog</text>
</g>
<!-- a&#45;&gt;0 -->
<g id="edge8" class="edge">
<title>a&#45;&gt;0</title>
<path fill="none" stroke="#000000" d="M1608.31,-548.4C1579.88,-548.75 1534.48,-553.32 1504,-576.31 1488.95,-587.66 1478.56,-605.67 1471.67,-622.1"/>
<polygon fill="#000000" stroke="#000000" points="1468.36,-620.94 1468.01,-631.53 1474.89,-623.48 1468.36,-620.94"/>
<text text-anchor="middle" x="1532.5" y="-620.71" font-family="Times,serif" font-size="32.00">be</text>
<text text-anchor="middle" x="1532.5" y="-585.71" font-family="Times,serif" font-size="32.00">=a 0</text>
</g>
<!-- v&#45;&gt;t -->
<g id="edge12" class="edge">
<title>v&#45;&gt;t</title>
<path fill="none" stroke="#000000" d="M213.97,-659.17C176.37,-645.45 105.21,-619.48 62.65,-603.95"/>
<polygon fill="#000000" stroke="#000000" points="63.59,-600.57 53,-600.43 61.19,-607.15 63.59,-600.57"/>
<text text-anchor="middle" x="119" y="-720.71" font-family="Times,serif" font-size="32.00">wills |</text>
<text text-anchor="middle" x="119" y="-685.71" font-family="Times,serif" font-size="32.00"> willd</text>
<text text-anchor="middle" x="119" y="-650.71" font-family="Times,serif" font-size="32.00">=v +k t</text>
</g>
<!-- 1 -->
<g id="node16" class="node">
<title>1</title>
<ellipse fill="none" stroke="black" cx="476" cy="-593.31" rx="27" ry="30.31"/>
<text text-anchor="middle" x="476" y="-585.21" font-family="Times,serif" font-size="32.00">1</text>
</g>
<!-- perf&#45;&gt;1 -->
<g id="edge14" class="edge">
<title>perf&#45;&gt;1</title>
<path fill="none" stroke="#f7931d" stroke-width="2" d="M767.97,-525.89C716.44,-518.29 630.72,-511.58 562,-535.31 552.42,-538.62 552.24,-543.41 544,-549.31 532.66,-557.42 519.93,-565.93 508.64,-573.27"/>
<polygon fill="#f7931d" stroke="#f7931d" stroke-width="2" points="506.45,-570.52 499.94,-578.88 510.24,-576.4 506.45,-570.52"/>
<text text-anchor="middle" x="646" y="-579.71" font-family="Times,serif" font-size="32.00">have</text>
<text text-anchor="middle" x="646" y="-544.71" font-family="Times,serif" font-size="32.00">=perf 1</text>
</g>
<!-- prog&#45;&gt;t -->
<g id="edge16" class="edge">
<title>prog&#45;&gt;t</title>
<path fill="none" stroke="#000000" d="M1094.17,-550.64C1010.71,-515.53 830.2,-440.31 815.5,-440.31 815.5,-440.31 815.5,-440.31 239,-440.31 155.72,-440.31 134.24,-469.97 72,-525.31 62.09,-534.12 53.42,-545.63 46.44,-556.58"/>
<polygon fill="#000000" stroke="#000000" points="43.43,-554.8 41.23,-565.17 49.41,-558.43 43.43,-554.8"/>
<text text-anchor="middle" x="476" y="-519.71" font-family="Times,serif" font-size="32.00">bes |</text>
<text text-anchor="middle" x="476" y="-484.71" font-family="Times,serif" font-size="32.00"> bed</text>
<text text-anchor="middle" x="476" y="-449.71" font-family="Times,serif" font-size="32.00">=prog +k t</text>
</g>
<!-- prog&#45;&gt;v -->
<g id="edge17" class="edge">
<title>prog&#45;&gt;v</title>
<path fill="none" stroke="#000000" d="M1098.37,-589.26C1079.87,-598.46 1056.89,-608.29 1035,-613.31 829.99,-660.32 770.68,-602.05 562,-628.31 553.87,-629.33 552.08,-630.93 544,-632.31 448.33,-648.58 334.42,-660 277.37,-665.18"/>
<polygon fill="#000000" stroke="#000000" points="276.71,-661.72 267.07,-666.1 277.34,-668.69 276.71,-661.72"/>
<text text-anchor="middle" x="646" y="-672.71" font-family="Times,serif" font-size="32.00">be_1</text>
<text text-anchor="middle" x="646" y="-637.71" font-family="Times,serif" font-size="32.00">=prog v</text>
</g>
<!-- prog&#45;&gt;perf -->
<g id="edge18" class="edge">
<title>prog&#45;&gt;perf</title>
<path fill="none" stroke="#000000" d="M1089.87,-554.81C1072.79,-550.37 1053.15,-545.9 1035,-543.31 980.36,-535.51 917.34,-533.65 872.89,-533.51"/>
<polygon fill="#000000" stroke="#000000" points="872.85,-530.01 862.85,-533.51 872.85,-537.01 872.85,-530.01"/>
<text text-anchor="middle" x="967" y="-587.71" font-family="Times,serif" font-size="32.00">ben</text>
<text text-anchor="middle" x="967" y="-552.71" font-family="Times,serif" font-size="32.00">=prog perf</text>
</g>
<!-- 1&#45;&gt;t -->
<g id="edge13" class="edge">
<title>1&#45;&gt;t</title>
<path fill="none" stroke="#f7931d" stroke-width="2" d="M451.83,-579.56C435.09,-570.07 411.7,-557.69 390,-549.31 303.97,-516.06 274.34,-505.73 184,-524.31 139,-533.56 90.96,-556.39 60.27,-572.83"/>
<polygon fill="#f7931d" stroke="#f7931d" stroke-width="2" points="58.43,-569.84 51.33,-577.7 61.78,-575.99 58.43,-569.84"/>
<text text-anchor="middle" x="240" y="-603.71" font-family="Times,serif" font-size="32.00">s_1 |</text>
<text text-anchor="middle" x="240" y="-568.71" font-family="Times,serif" font-size="32.00"> d_1</text>
<text text-anchor="middle" x="240" y="-533.71" font-family="Times,serif" font-size="32.00">=&gt;1 +k t</text>
</g>
<!-- 1&#45;&gt;v -->
<g id="edge15" class="edge">
<title>1&#45;&gt;v</title>
<path fill="none" stroke="#f7931d" stroke-width="2" d="M451.72,-579.83C418,-562.27 355.11,-537.18 314,-567.31 292.57,-583.01 311.02,-602.4 296,-624.31 289.76,-633.4 281.1,-641.55 272.49,-648.29"/>
<polygon fill="#f7931d" stroke="#f7931d" stroke-width="2" points="270.3,-645.55 264.33,-654.3 274.45,-651.19 270.3,-645.55"/>
<text text-anchor="middle" x="352" y="-611.71" font-family="Times,serif" font-size="32.00">ε_1</text>
<text text-anchor="middle" x="352" y="-576.71" font-family="Times,serif" font-size="32.00">=&gt;1 v</text>
</g>
</g>
</svg>
