<?xml version="1.0" encoding="UTF-8" standalone="no"?>
<!DOCTYPE svg PUBLIC "-//W3C//DTD SVG 1.1//EN"
 "http://www.w3.org/Graphics/SVG/1.1/DTD/svg11.dtd">
<!-- Generated by graphviz version 2.47.1 (20210417.1919)
 -->
<!-- Title: G Pages: 1 -->
<svg width="2308pt" height="1187pt"
 viewBox="0.00 0.00 2307.69 1187.37" xmlns="http://www.w3.org/2000/svg" xmlns:xlink="http://www.w3.org/1999/xlink">
<g id="graph0" class="graph" transform="scale(1 1) rotate(0) translate(4 1183.37)">
<title>G</title>
<polygon fill="white" stroke="transparent" points="-4,4 -4,-1183.37 2303.69,-1183.37 2303.69,4 -4,4"/>
<text text-anchor="middle" x="1149.84" y="-13.4" font-family="Times,serif" font-size="32.00">single contraction: 1 → v</text>
<!-- t -->
<g id="node1" class="node">
<title>t</title>
<ellipse fill="lightgray" stroke="black" cx="27" cy="-439.37" rx="27" ry="30.31"/>
<text text-anchor="middle" x="27" y="-431.27" font-family="Times,serif" font-size="32.00">t</text>
</g>
<!-- z0 -->
<g id="node2" class="node">
<title>z0</title>
<ellipse fill="none" stroke="black" stroke-dasharray="5,2" cx="2272.69" cy="-674.37" rx="27" ry="18"/>
</g>
<!-- da -->
<g id="node3" class="node">
<title>da</title>
<ellipse fill="none" stroke="black" cx="2036.36" cy="-674.37" rx="33.47" ry="30.31"/>
<text text-anchor="middle" x="2036.36" y="-666.27" font-family="Times,serif" font-size="32.00">da</text>
</g>
<!-- z0&#45;&gt;da -->
<g id="edge1" class="edge">
<title>z0&#45;&gt;da</title>
<path fill="none" stroke="#000000" d="M2245.26,-674.37C2205.01,-674.37 2127.93,-674.37 2079.78,-674.37"/>
<polygon fill="#000000" stroke="#000000" points="2079.67,-670.87 2069.67,-674.37 2079.67,-677.87 2079.67,-670.87"/>
<text text-anchor="middle" x="2167.19" y="-753.77" font-family="Times,serif" font-size="32.00">Mary |</text>
<text text-anchor="middle" x="2167.19" y="-718.77" font-family="Times,serif" font-size="32.00"> John</text>
<text text-anchor="middle" x="2167.19" y="-683.77" font-family="Times,serif" font-size="32.00">da &#45;k</text>
</g>
<!-- z1 -->
<g id="node4" class="node">
<title>z1</title>
<ellipse fill="none" stroke="black" stroke-dasharray="5,2" cx="2272.69" cy="-802.37" rx="27" ry="18"/>
</g>
<!-- poss -->
<g id="node5" class="node">
<title>poss</title>
<ellipse fill="none" stroke="black" cx="2036.36" cy="-802.37" rx="52.15" ry="30.31"/>
<text text-anchor="middle" x="2036.36" y="-794.27" font-family="Times,serif" font-size="32.00">poss</text>
</g>
<!-- z1&#45;&gt;poss -->
<g id="edge2" class="edge">
<title>z1&#45;&gt;poss</title>
<path fill="none" stroke="#000000" d="M2245.26,-802.37C2210.03,-802.37 2146.58,-802.37 2099.01,-802.37"/>
<polygon fill="#000000" stroke="#000000" points="2098.81,-798.87 2088.81,-802.37 2098.81,-805.87 2098.81,-798.87"/>
<text text-anchor="middle" x="2167.19" y="-881.77" font-family="Times,serif" font-size="32.00">Mary&#39;s |</text>
<text text-anchor="middle" x="2167.19" y="-846.77" font-family="Times,serif" font-size="32.00"> John&#39;s</text>
<text text-anchor="middle" x="2167.19" y="-811.77" font-family="Times,serif" font-size="32.00">poss</text>
</g>
<!-- z2 -->
<g id="node6" class="node">
<title>z2</title>
<ellipse fill="none" stroke="black" stroke-dasharray="5,2" cx="2272.69" cy="-581.37" rx="27" ry="18"/>
</g>
<!-- d -->
<g id="node7" class="node">
<title>d</title>
<ellipse fill="none" stroke="black" cx="2036.36" cy="-581.37" rx="27" ry="30.31"/>
<text text-anchor="middle" x="2036.36" y="-573.27" font-family="Times,serif" font-size="32.00">d</text>
</g>
<!-- z2&#45;&gt;d -->
<g id="edge3" class="edge">
<title>z2&#45;&gt;d</title>
<path fill="none" stroke="#000000" d="M2245.26,-581.37C2203.31,-581.37 2121.37,-581.37 2073.85,-581.37"/>
<polygon fill="#000000" stroke="#000000" points="2073.69,-577.87 2063.69,-581.37 2073.69,-584.87 2073.69,-577.87"/>
<text text-anchor="middle" x="2167.19" y="-625.77" font-family="Times,serif" font-size="32.00">the&#45;cause</text>
<text text-anchor="middle" x="2167.19" y="-590.77" font-family="Times,serif" font-size="32.00">d &#45;k</text>
</g>
<!-- for -->
<g id="node8" class="node">
<title>for</title>
<ellipse fill="none" stroke="black" cx="1655.52" cy="-782.37" rx="37.45" ry="30.31"/>
<text text-anchor="middle" x="1655.52" y="-774.27" font-family="Times,serif" font-size="32.00">for</text>
</g>
<!-- d&#45;&gt;for -->
<g id="edge4" class="edge">
<title>d&#45;&gt;for</title>
<path fill="none" stroke="#000000" d="M2013.56,-598.24C2002.77,-607.88 1990.67,-620.91 1984.04,-635.37 1967.28,-671.91 1995.84,-788.39 1966.04,-815.37 1927.98,-849.81 1785.36,-825.51 1735.04,-815.37 1722.11,-812.76 1708.67,-807.97 1696.63,-802.83"/>
<polygon fill="#000000" stroke="#000000" points="1697.87,-799.55 1687.31,-798.67 1695.02,-805.94 1697.87,-799.55"/>
<text text-anchor="middle" x="1850.54" y="-876.77" font-family="Times,serif" font-size="32.00">for</text>
<text text-anchor="middle" x="1850.54" y="-841.77" font-family="Times,serif" font-size="32.00">=d *k for</text>
</g>
<!-- of -->
<g id="node9" class="node">
<title>of</title>
<ellipse fill="none" stroke="black" cx="1655.52" cy="-419.37" rx="30.31" ry="30.31"/>
<text text-anchor="middle" x="1655.52" y="-411.27" font-family="Times,serif" font-size="32.00">of</text>
</g>
<!-- d&#45;&gt;of -->
<g id="edge5" class="edge">
<title>d&#45;&gt;of</title>
<path fill="none" stroke="#000000" d="M2009.08,-580.86C1940.14,-579.31 1757.87,-573.89 1735.04,-559.37 1699.23,-536.6 1678.25,-491.4 1667.11,-458.5"/>
<polygon fill="#000000" stroke="#000000" points="1670.36,-457.17 1663.97,-448.72 1663.7,-459.31 1670.36,-457.17"/>
<text text-anchor="middle" x="1850.54" y="-624.77" font-family="Times,serif" font-size="32.00">of</text>
<text text-anchor="middle" x="1850.54" y="-589.77" font-family="Times,serif" font-size="32.00">=d *k of</text>
</g>
<!-- about -->
<g id="node10" class="node">
<title>about</title>
<ellipse fill="none" stroke="black" cx="1655.52" cy="-252.37" rx="61.54" ry="30.31"/>
<text text-anchor="middle" x="1655.52" y="-244.27" font-family="Times,serif" font-size="32.00">about</text>
</g>
<!-- d&#45;&gt;about -->
<g id="edge6" class="edge">
<title>d&#45;&gt;about</title>
<path fill="none" stroke="#000000" d="M2033.64,-550.9C2028.77,-476.87 2012.09,-290.83 1966.04,-253.37 1930.46,-224.43 1804.71,-233.64 1724.86,-242.99"/>
<polygon fill="#000000" stroke="#000000" points="1724.39,-239.52 1714.88,-244.19 1725.22,-246.47 1724.39,-239.52"/>
<text text-anchor="middle" x="1850.54" y="-297.77" font-family="Times,serif" font-size="32.00">about</text>
<text text-anchor="middle" x="1850.54" y="-262.77" font-family="Times,serif" font-size="32.00">=d *k about</text>
</g>
<!-- 0 -->
<g id="node11" class="node">
<title>0</title>
<ellipse fill="none" stroke="black" cx="1174" cy="-521.37" rx="27" ry="30.31"/>
<text text-anchor="middle" x="1174" y="-513.27" font-family="Times,serif" font-size="32.00">0</text>
</g>
<!-- d&#45;&gt;0 -->
<g id="edge27" class="edge">
<title>d&#45;&gt;0</title>
<path fill="none" stroke="#000000" d="M2013.63,-597.92C2002.72,-607.55 1990.48,-620.68 1984.04,-635.37 1971.92,-663.01 1988.07,-885.75 1966.04,-906.37 1891.07,-976.52 1837.64,-910.09 1735.04,-906.37 1538.63,-899.25 1450.09,-993.79 1294,-874.37 1195.15,-798.74 1177.67,-637.33 1175.08,-561.85"/>
<polygon fill="#000000" stroke="#000000" points="1178.58,-561.69 1174.81,-551.79 1171.58,-561.88 1178.58,-561.69"/>
<text text-anchor="middle" x="1500.5" y="-1153.77" font-family="Times,serif" font-size="32.00">fear |</text>
<text text-anchor="middle" x="1500.5" y="-1118.77" font-family="Times,serif" font-size="32.00"> neglect |</text>
<text text-anchor="middle" x="1500.5" y="-1083.77" font-family="Times,serif" font-size="32.00"> scorn |</text>
<text text-anchor="middle" x="1500.5" y="-1048.77" font-family="Times,serif" font-size="32.00"> respect |</text>
<text text-anchor="middle" x="1500.5" y="-1013.77" font-family="Times,serif" font-size="32.00"> disdain |</text>
<text text-anchor="middle" x="1500.5" y="-978.77" font-family="Times,serif" font-size="32.00"> doubt</text>
<text text-anchor="middle" x="1500.5" y="-943.77" font-family="Times,serif" font-size="32.00">=d *k 0</text>
</g>
<!-- for&#45;&gt;d -->
<g id="edge19" class="edge">
<title>for&#45;&gt;d</title>
<path fill="none" stroke="#000000" d="M1668.22,-753.65C1680.61,-727.33 1702.85,-689.74 1735.04,-671.37 1824.5,-620.31 1872.82,-696.22 1966.04,-652.37 1968.86,-651.04 1990.66,-628.51 2009.07,-609.18"/>
<polygon fill="#000000" stroke="#000000" points="2011.82,-611.36 2016.18,-601.7 2006.75,-606.54 2011.82,-611.36"/>
<text text-anchor="middle" x="1850.54" y="-785.77" font-family="Times,serif" font-size="32.00">hope_1 |</text>
<text text-anchor="middle" x="1850.54" y="-750.77" font-family="Times,serif" font-size="32.00"> respect_1 |</text>
<text text-anchor="middle" x="1850.54" y="-715.77" font-family="Times,serif" font-size="32.00"> disdain_1</text>
<text text-anchor="middle" x="1850.54" y="-680.77" font-family="Times,serif" font-size="32.00">=for poss= d &#45;k</text>
</g>
<!-- for&#45;&gt;0 -->
<g id="edge18" class="edge">
<title>for&#45;&gt;0</title>
<path fill="none" stroke="#000000" d="M1621.88,-796.39C1576.01,-813.92 1490.72,-838.42 1425,-810.37 1307.81,-760.36 1225.75,-622.73 1192.07,-557.09"/>
<polygon fill="#000000" stroke="#000000" points="1195.08,-555.3 1187.45,-547.95 1188.83,-558.46 1195.08,-555.3"/>
<text text-anchor="middle" x="1350.5" y="-844.77" font-family="Times,serif" font-size="32.00">hope</text>
<text text-anchor="middle" x="1350.5" y="-809.77" font-family="Times,serif" font-size="32.00">=for 0</text>
</g>
<!-- a -->
<g id="node12" class="node">
<title>a</title>
<ellipse fill="none" stroke="black" cx="1350.5" cy="-521.37" rx="27" ry="30.31"/>
<text text-anchor="middle" x="1350.5" y="-513.27" font-family="Times,serif" font-size="32.00">a</text>
</g>
<!-- for&#45;&gt;a -->
<g id="edge20" class="edge">
<title>for&#45;&gt;a</title>
<path fill="none" stroke="#000000" d="M1625.39,-763.72C1611.04,-755.34 1593.16,-746.08 1576,-740.37 1511.59,-718.94 1477.72,-760.14 1425,-717.37 1377.74,-679.03 1360.86,-606.98 1354.84,-561.73"/>
<polygon fill="#000000" stroke="#000000" points="1358.29,-561.18 1353.62,-551.67 1351.34,-562.02 1358.29,-561.18"/>
<text text-anchor="middle" x="1500.5" y="-784.77" font-family="Times,serif" font-size="32.00">hopeful</text>
<text text-anchor="middle" x="1500.5" y="-749.77" font-family="Times,serif" font-size="32.00">=for a</text>
</g>
<!-- of&#45;&gt;d -->
<g id="edge22" class="edge">
<title>of&#45;&gt;d</title>
<path fill="none" stroke="#000000" d="M1674.06,-394.99C1688.26,-377.49 1709.97,-355.32 1735.04,-345.37 1782.75,-326.43 1924.94,-314.61 1966.04,-345.37 1997.47,-368.89 2019.51,-480.36 2029.44,-541.32"/>
<polygon fill="#000000" stroke="#000000" points="2026.01,-542.04 2031.04,-551.36 2032.92,-540.93 2026.01,-542.04"/>
<text text-anchor="middle" x="1850.54" y="-529.77" font-family="Times,serif" font-size="32.00">boast_1 |</text>
<text text-anchor="middle" x="1850.54" y="-494.77" font-family="Times,serif" font-size="32.00"> fear_1 |</text>
<text text-anchor="middle" x="1850.54" y="-459.77" font-family="Times,serif" font-size="32.00"> neglect_1 |</text>
<text text-anchor="middle" x="1850.54" y="-424.77" font-family="Times,serif" font-size="32.00"> scorn_1 |</text>
<text text-anchor="middle" x="1850.54" y="-389.77" font-family="Times,serif" font-size="32.00"> doubt_1</text>
<text text-anchor="middle" x="1850.54" y="-354.77" font-family="Times,serif" font-size="32.00">=of poss= d &#45;k</text>
</g>
<!-- of&#45;&gt;0 -->
<g id="edge21" class="edge">
<title>of&#45;&gt;0</title>
<path fill="none" stroke="#000000" d="M1625.24,-415.97C1550.44,-407.73 1354.03,-389.03 1294,-412.37 1254.01,-427.92 1219.27,-463.87 1197.82,-490.26"/>
<polygon fill="#000000" stroke="#000000" points="1195.07,-488.09 1191.6,-498.1 1200.56,-492.44 1195.07,-488.09"/>
<text text-anchor="middle" x="1350.5" y="-456.77" font-family="Times,serif" font-size="32.00">boast</text>
<text text-anchor="middle" x="1350.5" y="-421.77" font-family="Times,serif" font-size="32.00">=of 0</text>
</g>
<!-- of&#45;&gt;a -->
<g id="edge23" class="edge">
<title>of&#45;&gt;a</title>
<path fill="none" stroke="#000000" d="M1624.97,-418.06C1570.39,-416.21 1456.46,-415.23 1425,-437.37 1409.06,-448.59 1418.98,-461.99 1407,-477.37 1400.19,-486.12 1391.29,-494.16 1382.62,-500.91"/>
<polygon fill="#000000" stroke="#000000" points="1380.39,-498.2 1374.45,-506.97 1384.56,-503.83 1380.39,-498.2"/>
<text text-anchor="middle" x="1500.5" y="-691.77" font-family="Times,serif" font-size="32.00">boastful |</text>
<text text-anchor="middle" x="1500.5" y="-656.77" font-family="Times,serif" font-size="32.00"> fearful |</text>
<text text-anchor="middle" x="1500.5" y="-621.77" font-family="Times,serif" font-size="32.00"> neglectful |</text>
<text text-anchor="middle" x="1500.5" y="-586.77" font-family="Times,serif" font-size="32.00"> scornful |</text>
<text text-anchor="middle" x="1500.5" y="-551.77" font-family="Times,serif" font-size="32.00"> respectful |</text>
<text text-anchor="middle" x="1500.5" y="-516.77" font-family="Times,serif" font-size="32.00"> disdainful |</text>
<text text-anchor="middle" x="1500.5" y="-481.77" font-family="Times,serif" font-size="32.00"> doubtful</text>
<text text-anchor="middle" x="1500.5" y="-446.77" font-family="Times,serif" font-size="32.00">=of a</text>
</g>
<!-- about&#45;&gt;d -->
<g id="edge25" class="edge">
<title>about&#45;&gt;d</title>
<path fill="none" stroke="#000000" d="M1665.57,-222.13C1676.52,-191.52 1698.24,-145.88 1735.04,-125.37 1824.71,-75.38 1888.18,-58.45 1966.04,-125.37 2028.28,-178.87 2035.29,-439.08 2035.62,-540.65"/>
<polygon fill="#000000" stroke="#000000" points="2032.12,-540.82 2035.63,-550.82 2039.12,-540.82 2032.12,-540.82"/>
<text text-anchor="middle" x="1850.54" y="-204.77" font-family="Times,serif" font-size="32.00">boast_3 |</text>
<text text-anchor="middle" x="1850.54" y="-169.77" font-family="Times,serif" font-size="32.00"> doubt_2</text>
<text text-anchor="middle" x="1850.54" y="-134.77" font-family="Times,serif" font-size="32.00">=about poss= d &#45;k</text>
</g>
<!-- about&#45;&gt;0 -->
<g id="edge24" class="edge">
<title>about&#45;&gt;0</title>
<path fill="none" stroke="#000000" d="M1594.1,-249.1C1547.24,-248.09 1481.05,-250.04 1425,-264.37 1362.41,-280.37 1344.84,-287.51 1294,-327.37 1252.75,-359.7 1246.24,-373.59 1219,-418.37 1206.49,-438.93 1195.8,-463.68 1188.08,-483.76"/>
<polygon fill="#000000" stroke="#000000" points="1184.77,-482.62 1184.54,-493.21 1191.33,-485.08 1184.77,-482.62"/>
<text text-anchor="middle" x="1350.5" y="-371.77" font-family="Times,serif" font-size="32.00">boast_2</text>
<text text-anchor="middle" x="1350.5" y="-336.77" font-family="Times,serif" font-size="32.00">=about 0</text>
</g>
<!-- about&#45;&gt;a -->
<g id="edge26" class="edge">
<title>about&#45;&gt;a</title>
<path fill="none" stroke="#000000" d="M1595.48,-259.06C1535.11,-267.19 1447.15,-283.06 1425,-308.37 1400.13,-336.79 1425.22,-444.28 1407,-477.37 1401.46,-487.43 1392.57,-496.01 1383.52,-502.84"/>
<polygon fill="#000000" stroke="#000000" points="1381.44,-500.03 1375.25,-508.62 1385.45,-505.76 1381.44,-500.03"/>
<text text-anchor="middle" x="1500.5" y="-387.77" font-family="Times,serif" font-size="32.00">boastful_1 |</text>
<text text-anchor="middle" x="1500.5" y="-352.77" font-family="Times,serif" font-size="32.00"> doubtful_1</text>
<text text-anchor="middle" x="1500.5" y="-317.77" font-family="Times,serif" font-size="32.00">=about a</text>
</g>
<!-- 0&#45;&gt;t -->
<g id="edge7" class="edge">
<title>0&#45;&gt;t</title>
<path fill="none" stroke="#000000" d="M1152.59,-540.52C1145.5,-546.49 1137.25,-552.71 1129,-557.37 1015.62,-621.31 983.17,-655.37 853,-655.37 853,-655.37 853,-655.37 228,-655.37 154.48,-655.37 122.07,-654.19 72,-600.37 41.55,-567.64 31.82,-515.89 28.9,-479.93"/>
<polygon fill="#000000" stroke="#000000" points="32.38,-479.52 28.22,-469.77 25.39,-479.99 32.38,-479.52"/>
<text text-anchor="middle" x="512" y="-734.77" font-family="Times,serif" font-size="32.00">s |</text>
<text text-anchor="middle" x="512" y="-699.77" font-family="Times,serif" font-size="32.00"> d</text>
<text text-anchor="middle" x="512" y="-664.77" font-family="Times,serif" font-size="32.00">=&gt;0 =da +k t</text>
</g>
<!-- v -->
<g id="node13" class="node">
<title>v</title>
<ellipse fill="none" stroke="black" cx="229" cy="-472.37" rx="27" ry="30.31"/>
<text text-anchor="middle" x="229" y="-464.27" font-family="Times,serif" font-size="32.00">v</text>
</g>
<!-- 0&#45;&gt;v -->
<g id="edge9" class="edge">
<title>0&#45;&gt;v</title>
<path fill="none" stroke="#000000" d="M1147.19,-526.45C1103.79,-534.71 1013.36,-550.69 936,-556.37 755.8,-569.6 315.35,-570.45 274,-546.37 260.15,-538.3 250.18,-524.01 243.27,-510.12"/>
<polygon fill="#000000" stroke="#000000" points="246.29,-508.3 238.97,-500.65 239.92,-511.2 246.29,-508.3"/>
<text text-anchor="middle" x="682" y="-610.77" font-family="Times,serif" font-size="32.00">ε_0</text>
<text text-anchor="middle" x="682" y="-575.77" font-family="Times,serif" font-size="32.00">=&gt;0 =da v</text>
</g>
<!-- perf -->
<g id="node14" class="node">
<title>perf</title>
<ellipse fill="none" stroke="black" cx="512" cy="-472.37" rx="48.17" ry="30.31"/>
<text text-anchor="middle" x="512" y="-464.27" font-family="Times,serif" font-size="32.00">perf</text>
</g>
<!-- 0&#45;&gt;perf -->
<g id="edge10" class="edge">
<title>0&#45;&gt;perf</title>
<path fill="none" stroke="#000000" d="M1147.16,-516.57C1103.73,-508.72 1013.26,-493.33 936,-486.37 805.64,-474.62 651.89,-472.45 570.42,-472.21"/>
<polygon fill="#000000" stroke="#000000" points="570.38,-468.71 560.37,-472.19 570.36,-475.71 570.38,-468.71"/>
<text text-anchor="middle" x="852" y="-530.77" font-family="Times,serif" font-size="32.00">n</text>
<text text-anchor="middle" x="852" y="-495.77" font-family="Times,serif" font-size="32.00">=&gt;0 =da perf</text>
</g>
<!-- prog -->
<g id="node15" class="node">
<title>prog</title>
<ellipse fill="none" stroke="black" cx="852" cy="-371.37" rx="52.15" ry="30.31"/>
<text text-anchor="middle" x="852" y="-363.27" font-family="Times,serif" font-size="32.00">prog</text>
</g>
<!-- 0&#45;&gt;prog -->
<g id="edge11" class="edge">
<title>0&#45;&gt;prog</title>
<path fill="none" stroke="#000000" d="M1172.21,-490.76C1169.6,-459.58 1160.31,-412.49 1129,-388.37 1066.8,-340.46 971.44,-346.82 910.66,-357.67"/>
<polygon fill="#000000" stroke="#000000" points="909.66,-354.3 900.48,-359.59 910.95,-361.18 909.66,-354.3"/>
<text text-anchor="middle" x="1041.5" y="-432.77" font-family="Times,serif" font-size="32.00">ing</text>
<text text-anchor="middle" x="1041.5" y="-397.77" font-family="Times,serif" font-size="32.00">=&gt;0 =da prog</text>
</g>
<!-- a&#45;&gt;0 -->
<g id="edge8" class="edge">
<title>a&#45;&gt;0</title>
<path fill="none" stroke="#000000" d="M1323.38,-521.37C1293.61,-521.37 1244.76,-521.37 1211.3,-521.37"/>
<polygon fill="#000000" stroke="#000000" points="1211.02,-517.87 1201.02,-521.37 1211.02,-524.87 1211.02,-517.87"/>
<text text-anchor="middle" x="1247.5" y="-565.77" font-family="Times,serif" font-size="32.00">be</text>
<text text-anchor="middle" x="1247.5" y="-530.77" font-family="Times,serif" font-size="32.00">=a 0</text>
</g>
<!-- v&#45;&gt;t -->
<g id="edge12" class="edge">
<title>v&#45;&gt;t</title>
<path fill="none" stroke="#000000" d="M202.9,-480.17C171.17,-488.64 115.44,-498.77 72,-481.37 64.99,-478.56 58.46,-474.04 52.7,-468.99"/>
<polygon fill="#000000" stroke="#000000" points="54.96,-466.31 45.33,-461.89 50.1,-471.35 54.96,-466.31"/>
<text text-anchor="middle" x="128" y="-570.77" font-family="Times,serif" font-size="32.00">wills |</text>
<text text-anchor="middle" x="128" y="-535.77" font-family="Times,serif" font-size="32.00"> willd</text>
<text text-anchor="middle" x="128" y="-500.77" font-family="Times,serif" font-size="32.00">=v +k t</text>
</g>
<!-- v&#45;&gt;t -->
<g id="edge13" class="edge">
<title>v&#45;&gt;t</title>
<path fill="none" stroke="#000000" d="M223.67,-442.18C218.54,-418.74 207.51,-387.71 184,-372.37 142.31,-345.17 115.81,-348.73 72,-372.37 59.7,-379 50.28,-390.74 43.38,-402.56"/>
<polygon fill="#000000" stroke="#000000" points="40.21,-401.06 38.58,-411.53 46.38,-404.36 40.21,-401.06"/>
<text text-anchor="middle" x="128" y="-451.77" font-family="Times,serif" font-size="32.00">s_1 |</text>
<text text-anchor="middle" x="128" y="-416.77" font-family="Times,serif" font-size="32.00"> d_1</text>
<text text-anchor="middle" x="128" y="-381.77" font-family="Times,serif" font-size="32.00">=&gt;v +k t</text>
</g>
<!-- perf&#45;&gt;v -->
<g id="edge14" class="edge">
<title>perf&#45;&gt;v</title>
<path fill="none" stroke="#000000" d="M463.65,-472.37C408.01,-472.37 316.91,-472.37 266.47,-472.37"/>
<polygon fill="#000000" stroke="#000000" points="266.36,-468.87 256.36,-472.37 266.36,-475.87 266.36,-468.87"/>
<text text-anchor="middle" x="342" y="-516.77" font-family="Times,serif" font-size="32.00">have</text>
<text text-anchor="middle" x="342" y="-481.77" font-family="Times,serif" font-size="32.00">=perf v</text>
</g>
<!-- prog&#45;&gt;t -->
<g id="edge15" class="edge">
<title>prog&#45;&gt;t</title>
<path fill="none" stroke="#000000" d="M810.68,-352.51C716.52,-310.88 474.89,-218.07 274,-260.37 178,-280.58 142.73,-281.39 72,-349.37 57.29,-363.5 46.83,-383.58 39.8,-401.18"/>
<polygon fill="#000000" stroke="#000000" points="36.48,-400.06 36.25,-410.65 43.04,-402.52 36.48,-400.06"/>
<text text-anchor="middle" x="342" y="-339.77" font-family="Times,serif" font-size="32.00">bes |</text>
<text text-anchor="middle" x="342" y="-304.77" font-family="Times,serif" font-size="32.00"> bed</text>
<text text-anchor="middle" x="342" y="-269.77" font-family="Times,serif" font-size="32.00">=prog +k t</text>
</g>
<!-- prog&#45;&gt;v -->
<g id="edge16" class="edge">
<title>prog&#45;&gt;v</title>
<path fill="none" stroke="#000000" d="M802.13,-362.11C722.34,-348.83 559.78,-329.49 428,-363.37 363.26,-380.01 297.01,-422.77 259.92,-449.52"/>
<polygon fill="#000000" stroke="#000000" points="257.59,-446.89 251.58,-455.62 261.72,-452.54 257.59,-446.89"/>
<text text-anchor="middle" x="512" y="-407.77" font-family="Times,serif" font-size="32.00">be_1</text>
<text text-anchor="middle" x="512" y="-372.77" font-family="Times,serif" font-size="32.00">=prog v</text>
</g>
<!-- prog&#45;&gt;perf -->
<g id="edge17" class="edge">
<title>prog&#45;&gt;perf</title>
<path fill="none" stroke="#000000" d="M799.79,-369.07C739.23,-367.37 642.96,-368.14 614,-388.37 598.02,-399.53 609.33,-414.15 596,-428.37 586.85,-438.14 575.03,-446.16 563.2,-452.56"/>
<polygon fill="#000000" stroke="#000000" points="561.52,-449.49 554.19,-457.14 564.69,-455.73 561.52,-449.49"/>
<text text-anchor="middle" x="682" y="-432.77" font-family="Times,serif" font-size="32.00">ben</text>
<text text-anchor="middle" x="682" y="-397.77" font-family="Times,serif" font-size="32.00">=prog perf</text>
</g>
</g>
</svg>
