<?xml version="1.0" encoding="UTF-8" standalone="no"?>
<!DOCTYPE svg PUBLIC "-//W3C//DTD SVG 1.1//EN"
 "http://www.w3.org/Graphics/SVG/1.1/DTD/svg11.dtd">
<!-- Generated by graphviz version 2.47.1 (20210417.1919)
 -->
<!-- Title: G Pages: 1 -->
<svg width="2284pt" height="1406pt"
 viewBox="0.00 0.00 2283.69 1405.92" xmlns="http://www.w3.org/2000/svg" xmlns:xlink="http://www.w3.org/1999/xlink">
<g id="graph0" class="graph" transform="scale(1 1) rotate(0) translate(4 1401.92)">
<title>G</title>
<polygon fill="white" stroke="transparent" points="-4,4 -4,-1401.92 2279.69,-1401.92 2279.69,4 -4,4"/>
<text text-anchor="middle" x="1137.84" y="-13.4" font-family="Times,serif" font-size="32.00">decomposition: boastful =of a, neglectful =of a, respectful =of a, doubtful =of a, fearful =of a, scornful =of a, disdainful =of a</text>
<!-- t -->
<g id="node1" class="node">
<title>t</title>
<ellipse fill="lightgray" stroke="black" cx="27" cy="-725.92" rx="27" ry="30.31"/>
<text text-anchor="middle" x="27" y="-717.82" font-family="Times,serif" font-size="32.00">t</text>
</g>
<!-- z0 -->
<g id="node2" class="node">
<title>z0</title>
<ellipse fill="none" stroke="black" stroke-dasharray="5,2" cx="2248.69" cy="-885.92" rx="27" ry="18"/>
</g>
<!-- da -->
<g id="node3" class="node">
<title>da</title>
<ellipse fill="none" stroke="black" cx="2012.36" cy="-885.92" rx="33.47" ry="30.31"/>
<text text-anchor="middle" x="2012.36" y="-877.82" font-family="Times,serif" font-size="32.00">da</text>
</g>
<!-- z0&#45;&gt;da -->
<g id="edge1" class="edge">
<title>z0&#45;&gt;da</title>
<path fill="none" stroke="#000000" d="M2221.26,-885.92C2181.01,-885.92 2103.93,-885.92 2055.78,-885.92"/>
<polygon fill="#000000" stroke="#000000" points="2055.67,-882.42 2045.67,-885.92 2055.67,-889.42 2055.67,-882.42"/>
<text text-anchor="middle" x="2143.19" y="-965.32" font-family="Times,serif" font-size="32.00">Mary |</text>
<text text-anchor="middle" x="2143.19" y="-930.32" font-family="Times,serif" font-size="32.00"> John</text>
<text text-anchor="middle" x="2143.19" y="-895.32" font-family="Times,serif" font-size="32.00">da &#45;k</text>
</g>
<!-- z1 -->
<g id="node4" class="node">
<title>z1</title>
<ellipse fill="none" stroke="black" stroke-dasharray="5,2" cx="2248.69" cy="-1013.92" rx="27" ry="18"/>
</g>
<!-- poss -->
<g id="node5" class="node">
<title>poss</title>
<ellipse fill="none" stroke="black" cx="2012.36" cy="-1013.92" rx="52.15" ry="30.31"/>
<text text-anchor="middle" x="2012.36" y="-1005.82" font-family="Times,serif" font-size="32.00">poss</text>
</g>
<!-- z1&#45;&gt;poss -->
<g id="edge2" class="edge">
<title>z1&#45;&gt;poss</title>
<path fill="none" stroke="#000000" d="M2221.26,-1013.92C2186.03,-1013.92 2122.58,-1013.92 2075.01,-1013.92"/>
<polygon fill="#000000" stroke="#000000" points="2074.81,-1010.42 2064.81,-1013.92 2074.81,-1017.42 2074.81,-1010.42"/>
<text text-anchor="middle" x="2143.19" y="-1093.32" font-family="Times,serif" font-size="32.00">Mary&#39;s |</text>
<text text-anchor="middle" x="2143.19" y="-1058.32" font-family="Times,serif" font-size="32.00"> John&#39;s</text>
<text text-anchor="middle" x="2143.19" y="-1023.32" font-family="Times,serif" font-size="32.00">poss</text>
</g>
<!-- z2 -->
<g id="node6" class="node">
<title>z2</title>
<ellipse fill="none" stroke="black" stroke-dasharray="5,2" cx="2248.69" cy="-792.92" rx="27" ry="18"/>
</g>
<!-- d -->
<g id="node7" class="node">
<title>d</title>
<ellipse fill="none" stroke="black" cx="2012.36" cy="-792.92" rx="27" ry="30.31"/>
<text text-anchor="middle" x="2012.36" y="-784.82" font-family="Times,serif" font-size="32.00">d</text>
</g>
<!-- z2&#45;&gt;d -->
<g id="edge3" class="edge">
<title>z2&#45;&gt;d</title>
<path fill="none" stroke="#000000" d="M2221.26,-792.92C2179.31,-792.92 2097.37,-792.92 2049.85,-792.92"/>
<polygon fill="#000000" stroke="#000000" points="2049.69,-789.42 2039.69,-792.92 2049.69,-796.42 2049.69,-789.42"/>
<text text-anchor="middle" x="2143.19" y="-837.32" font-family="Times,serif" font-size="32.00">the&#45;cause</text>
<text text-anchor="middle" x="2143.19" y="-802.32" font-family="Times,serif" font-size="32.00">d &#45;k</text>
</g>
<!-- for -->
<g id="node8" class="node">
<title>for</title>
<ellipse fill="none" stroke="black" cx="1631.52" cy="-560.92" rx="37.45" ry="30.31"/>
<text text-anchor="middle" x="1631.52" y="-552.82" font-family="Times,serif" font-size="32.00">for</text>
</g>
<!-- d&#45;&gt;for -->
<g id="edge4" class="edge">
<title>d&#45;&gt;for</title>
<path fill="none" stroke="#000000" d="M2011.98,-762.16C2011.11,-712.86 2001.37,-617.13 1942.04,-571.92 1902.06,-541.46 1755.4,-549.62 1679.19,-556.24"/>
<polygon fill="#000000" stroke="#000000" points="1678.57,-552.78 1668.93,-557.16 1679.2,-559.76 1678.57,-552.78"/>
<text text-anchor="middle" x="1826.54" y="-616.32" font-family="Times,serif" font-size="32.00">for</text>
<text text-anchor="middle" x="1826.54" y="-581.32" font-family="Times,serif" font-size="32.00">=d *k for</text>
</g>
<!-- of -->
<g id="node9" class="node">
<title>of</title>
<ellipse fill="none" stroke="black" cx="1631.52" cy="-896.92" rx="30.31" ry="30.31"/>
<text text-anchor="middle" x="1631.52" y="-888.82" font-family="Times,serif" font-size="32.00">of</text>
</g>
<!-- d&#45;&gt;of -->
<g id="edge5" class="edge">
<title>d&#45;&gt;of</title>
<path fill="none" stroke="#000000" d="M1992.17,-813.25C1972.78,-833.68 1945.22,-862.39 1942.04,-863.92 1895.55,-886.28 1762.29,-881.11 1711.04,-886.92 1698.34,-888.36 1684.51,-890.07 1672.05,-891.67"/>
<polygon fill="#000000" stroke="#000000" points="1671.42,-888.22 1661.95,-892.98 1672.32,-895.17 1671.42,-888.22"/>
<text text-anchor="middle" x="1826.54" y="-931.32" font-family="Times,serif" font-size="32.00">of</text>
<text text-anchor="middle" x="1826.54" y="-896.32" font-family="Times,serif" font-size="32.00">=d *k of</text>
</g>
<!-- about -->
<g id="node10" class="node">
<title>about</title>
<ellipse fill="none" stroke="black" cx="1631.52" cy="-721.92" rx="61.54" ry="30.31"/>
<text text-anchor="middle" x="1631.52" y="-713.82" font-family="Times,serif" font-size="32.00">about</text>
</g>
<!-- d&#45;&gt;about -->
<g id="edge6" class="edge">
<title>d&#45;&gt;about</title>
<path fill="none" stroke="#000000" d="M1985.03,-792.61C1921.55,-791.59 1761.61,-787.43 1711.04,-770.92 1698.26,-766.75 1685.44,-760.07 1673.98,-752.97"/>
<polygon fill="#000000" stroke="#000000" points="1675.8,-749.98 1665.5,-747.49 1672,-755.86 1675.8,-749.98"/>
<text text-anchor="middle" x="1826.54" y="-836.32" font-family="Times,serif" font-size="32.00">about</text>
<text text-anchor="middle" x="1826.54" y="-801.32" font-family="Times,serif" font-size="32.00">=d *k about</text>
</g>
<!-- 0 -->
<g id="node11" class="node">
<title>0</title>
<ellipse fill="none" stroke="black" cx="1174" cy="-790.92" rx="27" ry="30.31"/>
<text text-anchor="middle" x="1174" y="-782.82" font-family="Times,serif" font-size="32.00">0</text>
</g>
<!-- d&#45;&gt;0 -->
<g id="edge28" class="edge">
<title>d&#45;&gt;0</title>
<path fill="none" stroke="#000000" d="M1989.55,-809.43C1978.61,-819.06 1966.37,-832.19 1960.04,-846.92 1944.96,-881.98 1969.72,-1163.65 1942.04,-1189.92 1756.38,-1366.09 1319.91,-996.88 1294,-973.92 1246.74,-932.04 1210.58,-867.14 1191.1,-826.94"/>
<polygon fill="#000000" stroke="#000000" points="1194.19,-825.3 1186.74,-817.77 1187.87,-828.3 1194.19,-825.3"/>
<text text-anchor="middle" x="1488.5" y="-1372.32" font-family="Times,serif" font-size="32.00">fear |</text>
<text text-anchor="middle" x="1488.5" y="-1337.32" font-family="Times,serif" font-size="32.00"> neglect |</text>
<text text-anchor="middle" x="1488.5" y="-1302.32" font-family="Times,serif" font-size="32.00"> scorn |</text>
<text text-anchor="middle" x="1488.5" y="-1267.32" font-family="Times,serif" font-size="32.00"> respect |</text>
<text text-anchor="middle" x="1488.5" y="-1232.32" font-family="Times,serif" font-size="32.00"> disdain |</text>
<text text-anchor="middle" x="1488.5" y="-1197.32" font-family="Times,serif" font-size="32.00"> doubt</text>
<text text-anchor="middle" x="1488.5" y="-1162.32" font-family="Times,serif" font-size="32.00">=d *k 0</text>
</g>
<!-- for&#45;&gt;d -->
<g id="edge19" class="edge">
<title>for&#45;&gt;d</title>
<path fill="none" stroke="#000000" d="M1638.11,-530.77C1646.71,-494.13 1667.02,-433.89 1711.04,-406.92 1732.92,-393.51 1922.35,-390.45 1942.04,-406.92 1994.35,-450.67 2007.24,-662.3 2010.37,-752.29"/>
<polygon fill="#000000" stroke="#000000" points="2006.88,-752.51 2010.7,-762.39 2013.88,-752.28 2006.88,-752.51"/>
<text text-anchor="middle" x="1826.54" y="-521.32" font-family="Times,serif" font-size="32.00">hope_1 |</text>
<text text-anchor="middle" x="1826.54" y="-486.32" font-family="Times,serif" font-size="32.00"> respect_1 |</text>
<text text-anchor="middle" x="1826.54" y="-451.32" font-family="Times,serif" font-size="32.00"> disdain_1</text>
<text text-anchor="middle" x="1826.54" y="-416.32" font-family="Times,serif" font-size="32.00">=for poss= d &#45;k</text>
</g>
<!-- for&#45;&gt;0 -->
<g id="edge18" class="edge">
<title>for&#45;&gt;0</title>
<path fill="none" stroke="#000000" d="M1594.33,-556.24C1518.28,-547.1 1344.7,-530.07 1294,-557.92 1222.6,-597.14 1192.84,-695.76 1181.42,-751.3"/>
<polygon fill="#000000" stroke="#000000" points="1177.97,-750.66 1179.49,-761.15 1184.84,-752.01 1177.97,-750.66"/>
<text text-anchor="middle" x="1350.5" y="-602.32" font-family="Times,serif" font-size="32.00">hope</text>
<text text-anchor="middle" x="1350.5" y="-567.32" font-family="Times,serif" font-size="32.00">=for 0</text>
</g>
<!-- a -->
<g id="node12" class="node">
<title>a</title>
<ellipse fill="none" stroke="black" cx="1350.5" cy="-666.92" rx="27" ry="30.31"/>
<text text-anchor="middle" x="1350.5" y="-658.82" font-family="Times,serif" font-size="32.00">a</text>
</g>
<!-- for&#45;&gt;a -->
<g id="edge20" class="edge">
<title>for&#45;&gt;a</title>
<path fill="none" stroke="#000000" d="M1593.99,-561.18C1542.45,-562.22 1451.68,-566.66 1425,-584.92 1410.89,-594.58 1417.65,-605.54 1407,-618.92 1399.65,-628.15 1390.35,-636.99 1381.48,-644.51"/>
<polygon fill="#000000" stroke="#000000" points="1379.04,-641.98 1373.52,-651.02 1383.47,-647.4 1379.04,-641.98"/>
<text text-anchor="middle" x="1488.5" y="-629.32" font-family="Times,serif" font-size="32.00">hopeful</text>
<text text-anchor="middle" x="1488.5" y="-594.32" font-family="Times,serif" font-size="32.00">=for a</text>
</g>
<!-- of&#45;&gt;d -->
<g id="edge22" class="edge">
<title>of&#45;&gt;d</title>
<path fill="none" stroke="#000000" d="M1652.89,-918.58C1667.55,-932.49 1688.61,-949.33 1711.04,-956.92 1759.66,-973.37 1902.92,-990.16 1942.04,-956.92 1979.79,-924.84 1937.99,-891.29 1960.04,-846.92 1965.51,-835.9 1974.01,-825.61 1982.52,-817.04"/>
<polygon fill="#000000" stroke="#000000" points="1985.11,-819.4 1989.93,-809.97 1980.28,-814.34 1985.11,-819.4"/>
<text text-anchor="middle" x="1826.54" y="-1160.32" font-family="Times,serif" font-size="32.00">boast_1 |</text>
<text text-anchor="middle" x="1826.54" y="-1125.32" font-family="Times,serif" font-size="32.00"> fear_1 |</text>
<text text-anchor="middle" x="1826.54" y="-1090.32" font-family="Times,serif" font-size="32.00"> neglect_1 |</text>
<text text-anchor="middle" x="1826.54" y="-1055.32" font-family="Times,serif" font-size="32.00"> scorn_1 |</text>
<text text-anchor="middle" x="1826.54" y="-1020.32" font-family="Times,serif" font-size="32.00"> doubt_1</text>
<text text-anchor="middle" x="1826.54" y="-985.32" font-family="Times,serif" font-size="32.00">=of poss= d &#45;k</text>
</g>
<!-- of&#45;&gt;0 -->
<g id="edge21" class="edge">
<title>of&#45;&gt;0</title>
<path fill="none" stroke="#000000" d="M1601.1,-900.21C1541.26,-905.79 1401.91,-913.09 1294,-874.92 1259.02,-862.55 1225.06,-836.77 1202.43,-817.02"/>
<polygon fill="#000000" stroke="#000000" points="1204.7,-814.36 1194.91,-810.31 1200.04,-819.58 1204.7,-814.36"/>
<text text-anchor="middle" x="1350.5" y="-944.32" font-family="Times,serif" font-size="32.00">boast</text>
<text text-anchor="middle" x="1350.5" y="-909.32" font-family="Times,serif" font-size="32.00">=of 0</text>
</g>
<!-- about&#45;&gt;d -->
<g id="edge26" class="edge">
<title>about&#45;&gt;d</title>
<path fill="none" stroke="#000000" d="M1658.94,-694.7C1673.06,-682.12 1691.54,-668.52 1711.04,-661.92 1759.66,-645.47 1898.06,-635.44 1942.04,-661.92 1974.86,-681.68 1992.95,-722.77 2002.35,-753.69"/>
<polygon fill="#000000" stroke="#000000" points="1998.99,-754.68 2005.1,-763.33 2005.72,-752.76 1998.99,-754.68"/>
<text text-anchor="middle" x="1826.54" y="-741.32" font-family="Times,serif" font-size="32.00">boast_4 |</text>
<text text-anchor="middle" x="1826.54" y="-706.32" font-family="Times,serif" font-size="32.00"> doubt_3</text>
<text text-anchor="middle" x="1826.54" y="-671.32" font-family="Times,serif" font-size="32.00">=about poss= d &#45;k</text>
</g>
<!-- about&#45;&gt;0 -->
<g id="edge25" class="edge">
<title>about&#45;&gt;0</title>
<path fill="none" stroke="#000000" d="M1601.08,-748.63C1587.22,-759.51 1569.83,-770.93 1552,-776.92 1432.66,-817.01 1279.99,-804.79 1211.32,-796.21"/>
<polygon fill="#000000" stroke="#000000" points="1211.41,-792.69 1201.04,-794.88 1210.51,-799.64 1211.41,-792.69"/>
<text text-anchor="middle" x="1350.5" y="-849.32" font-family="Times,serif" font-size="32.00">boast_3</text>
<text text-anchor="middle" x="1350.5" y="-814.32" font-family="Times,serif" font-size="32.00">=about 0</text>
</g>
<!-- about&#45;&gt;a -->
<g id="edge27" class="edge">
<title>about&#45;&gt;a</title>
<path fill="none" stroke="#000000" d="M1598.49,-695.95C1584.97,-686.53 1568.54,-676.96 1552,-671.92 1496.54,-655.01 1428.41,-657.98 1387.55,-662.13"/>
<polygon fill="#000000" stroke="#000000" points="1387.08,-658.66 1377.52,-663.22 1387.84,-665.62 1387.08,-658.66"/>
<text text-anchor="middle" x="1488.5" y="-751.32" font-family="Times,serif" font-size="32.00">boastful |</text>
<text text-anchor="middle" x="1488.5" y="-716.32" font-family="Times,serif" font-size="32.00"> doubtful</text>
<text text-anchor="middle" x="1488.5" y="-681.32" font-family="Times,serif" font-size="32.00">=about a</text>
</g>
<!-- 0&#45;&gt;t -->
<g id="edge7" class="edge">
<title>0&#45;&gt;t</title>
<path fill="none" stroke="#000000" d="M1154.91,-812.66C1147.52,-820.5 1138.48,-828.89 1129,-834.92 1020.26,-904.11 981.89,-923.92 853,-923.92 853,-923.92 853,-923.92 228,-923.92 157.22,-923.92 123.45,-940.53 72,-891.92 37.93,-859.73 29.11,-804.47 27.38,-766.62"/>
<polygon fill="#000000" stroke="#000000" points="30.87,-766.32 27.06,-756.43 23.87,-766.54 30.87,-766.32"/>
<text text-anchor="middle" x="512" y="-1003.32" font-family="Times,serif" font-size="32.00">s |</text>
<text text-anchor="middle" x="512" y="-968.32" font-family="Times,serif" font-size="32.00"> d</text>
<text text-anchor="middle" x="512" y="-933.32" font-family="Times,serif" font-size="32.00">=&gt;0 =da +k t</text>
</g>
<!-- v -->
<g id="node13" class="node">
<title>v</title>
<ellipse fill="none" stroke="black" cx="229" cy="-721.92" rx="27" ry="30.31"/>
<text text-anchor="middle" x="229" y="-713.82" font-family="Times,serif" font-size="32.00">v</text>
</g>
<!-- 0&#45;&gt;v -->
<g id="edge9" class="edge">
<title>0&#45;&gt;v</title>
<path fill="none" stroke="#000000" d="M1163.77,-762.37C1156.76,-744.77 1145.48,-722.96 1129,-708.92 993.33,-593.35 925.76,-607.44 750,-577.92 630.46,-557.84 294.69,-585.36 274,-600.92 248.97,-619.74 238.16,-654.2 233.5,-681.55"/>
<polygon fill="#000000" stroke="#000000" points="230.01,-681.23 232,-691.63 236.93,-682.26 230.01,-681.23"/>
<text text-anchor="middle" x="682" y="-622.32" font-family="Times,serif" font-size="32.00">ε_0</text>
<text text-anchor="middle" x="682" y="-587.32" font-family="Times,serif" font-size="32.00">=&gt;0 =da v</text>
</g>
<!-- perf -->
<g id="node14" class="node">
<title>perf</title>
<ellipse fill="none" stroke="black" cx="512" cy="-825.92" rx="48.17" ry="30.31"/>
<text text-anchor="middle" x="512" y="-817.82" font-family="Times,serif" font-size="32.00">perf</text>
</g>
<!-- 0&#45;&gt;perf -->
<g id="edge10" class="edge">
<title>0&#45;&gt;perf</title>
<path fill="none" stroke="#000000" d="M1149.47,-804.39C1143.03,-807.44 1135.92,-810.27 1129,-811.92 1024.14,-836.92 702.59,-831.23 570.53,-827.68"/>
<polygon fill="#000000" stroke="#000000" points="570.32,-824.18 560.23,-827.4 570.13,-831.17 570.32,-824.18"/>
<text text-anchor="middle" x="852" y="-875.32" font-family="Times,serif" font-size="32.00">n</text>
<text text-anchor="middle" x="852" y="-840.32" font-family="Times,serif" font-size="32.00">=&gt;0 =da perf</text>
</g>
<!-- prog -->
<g id="node15" class="node">
<title>prog</title>
<ellipse fill="none" stroke="black" cx="852" cy="-723.92" rx="52.15" ry="30.31"/>
<text text-anchor="middle" x="852" y="-715.82" font-family="Times,serif" font-size="32.00">prog</text>
</g>
<!-- 0&#45;&gt;prog -->
<g id="edge11" class="edge">
<title>0&#45;&gt;prog</title>
<path fill="none" stroke="#000000" d="M1157.43,-766.65C1150.03,-757.23 1140.31,-747.42 1129,-741.92 1060.54,-708.67 971.07,-709.69 912.83,-715.29"/>
<polygon fill="#000000" stroke="#000000" points="912.28,-711.83 902.69,-716.35 913,-718.8 912.28,-711.83"/>
<text text-anchor="middle" x="1041.5" y="-786.32" font-family="Times,serif" font-size="32.00">ing</text>
<text text-anchor="middle" x="1041.5" y="-751.32" font-family="Times,serif" font-size="32.00">=&gt;0 =da prog</text>
</g>
<!-- a&#45;&gt;0 -->
<g id="edge8" class="edge">
<title>a&#45;&gt;0</title>
<path fill="none" stroke="#000000" d="M1323.42,-668.99C1294.88,-672.49 1249.18,-681.87 1219,-706.92 1204.6,-718.88 1194.31,-736.78 1187.32,-752.99"/>
<polygon fill="#000000" stroke="#000000" points="1184.07,-751.7 1183.58,-762.28 1190.56,-754.31 1184.07,-751.7"/>
<text text-anchor="middle" x="1247.5" y="-751.32" font-family="Times,serif" font-size="32.00">be</text>
<text text-anchor="middle" x="1247.5" y="-716.32" font-family="Times,serif" font-size="32.00">=a 0</text>
</g>
<!-- v&#45;&gt;t -->
<g id="edge12" class="edge">
<title>v&#45;&gt;t</title>
<path fill="none" stroke="#000000" d="M211.89,-745.57C204.52,-754.31 194.98,-763.23 184,-767.92 138.23,-787.48 118.21,-786.43 72,-767.92 64.99,-765.11 58.46,-760.6 52.7,-755.55"/>
<polygon fill="#000000" stroke="#000000" points="54.96,-752.86 45.33,-748.44 50.1,-757.9 54.96,-752.86"/>
<text text-anchor="middle" x="128" y="-862.32" font-family="Times,serif" font-size="32.00">wills |</text>
<text text-anchor="middle" x="128" y="-827.32" font-family="Times,serif" font-size="32.00"> willd</text>
<text text-anchor="middle" x="128" y="-792.32" font-family="Times,serif" font-size="32.00">=v +k t</text>
</g>
<!-- v&#45;&gt;t -->
<g id="edge13" class="edge">
<title>v&#45;&gt;t</title>
<path fill="none" stroke="#000000" d="M216.49,-694.72C209.28,-681.35 198.55,-666.51 184,-658.92 139.86,-635.91 115.81,-635.28 72,-658.92 59.7,-665.56 50.28,-677.29 43.38,-689.11"/>
<polygon fill="#000000" stroke="#000000" points="40.21,-687.61 38.58,-698.08 46.38,-690.91 40.21,-687.61"/>
<text text-anchor="middle" x="128" y="-738.32" font-family="Times,serif" font-size="32.00">s_1 |</text>
<text text-anchor="middle" x="128" y="-703.32" font-family="Times,serif" font-size="32.00"> d_1</text>
<text text-anchor="middle" x="128" y="-668.32" font-family="Times,serif" font-size="32.00">=&gt;v +k t</text>
</g>
<!-- perf&#45;&gt;v -->
<g id="edge14" class="edge">
<title>perf&#45;&gt;v</title>
<path fill="none" stroke="#000000" d="M470.14,-810.8C414.66,-790.26 316.46,-753.92 264.49,-734.69"/>
<polygon fill="#000000" stroke="#000000" points="265.63,-731.38 255.04,-731.19 263.2,-737.94 265.63,-731.38"/>
<text text-anchor="middle" x="342" y="-831.32" font-family="Times,serif" font-size="32.00">have</text>
<text text-anchor="middle" x="342" y="-796.32" font-family="Times,serif" font-size="32.00">=perf v</text>
</g>
<!-- prog&#45;&gt;t -->
<g id="edge15" class="edge">
<title>prog&#45;&gt;t</title>
<path fill="none" stroke="#000000" d="M806.67,-708.32C728.01,-681.56 558.33,-627.94 410,-608.92 350.05,-601.23 334.29,-604.62 274,-608.92 183.53,-615.38 145.56,-584.86 72,-637.92 55.64,-649.72 45,-669.37 38.3,-687.11"/>
<polygon fill="#000000" stroke="#000000" points="34.94,-686.11 34.97,-696.71 41.56,-688.41 34.94,-686.11"/>
<text text-anchor="middle" x="342" y="-688.32" font-family="Times,serif" font-size="32.00">bes |</text>
<text text-anchor="middle" x="342" y="-653.32" font-family="Times,serif" font-size="32.00"> bed</text>
<text text-anchor="middle" x="342" y="-618.32" font-family="Times,serif" font-size="32.00">=prog +k t</text>
</g>
<!-- prog&#45;&gt;v -->
<g id="edge16" class="edge">
<title>prog&#45;&gt;v</title>
<path fill="none" stroke="#000000" d="M799.72,-722.1C748.24,-720.37 666.63,-717.89 596,-716.92 521.34,-715.9 502.66,-715.98 428,-716.92 371.5,-717.63 305.96,-719.49 266.26,-720.73"/>
<polygon fill="#000000" stroke="#000000" points="266.14,-717.23 256.26,-721.05 266.36,-724.23 266.14,-717.23"/>
<text text-anchor="middle" x="512" y="-761.32" font-family="Times,serif" font-size="32.00">be_1</text>
<text text-anchor="middle" x="512" y="-726.32" font-family="Times,serif" font-size="32.00">=prog v</text>
</g>
<!-- prog&#45;&gt;perf -->
<g id="edge17" class="edge">
<title>prog&#45;&gt;perf</title>
<path fill="none" stroke="#000000" d="M799.78,-721.86C739.2,-720.43 642.92,-721.63 614,-741.92 598.04,-753.12 609.33,-767.7 596,-781.92 586.85,-791.69 575.03,-799.71 563.2,-806.11"/>
<polygon fill="#000000" stroke="#000000" points="561.52,-803.04 554.19,-810.69 564.69,-809.28 561.52,-803.04"/>
<text text-anchor="middle" x="682" y="-786.32" font-family="Times,serif" font-size="32.00">ben</text>
<text text-anchor="middle" x="682" y="-751.32" font-family="Times,serif" font-size="32.00">=prog perf</text>
</g>
<!-- 1 -->
<g id="node16" class="node">
<title>1</title>
<ellipse fill="none" stroke="black" cx="1631.52" cy="-202.92" rx="27" ry="30.31"/>
<text text-anchor="middle" x="1631.52" y="-194.82" font-family="Times,serif" font-size="32.00">1</text>
</g>
<!-- 1&#45;&gt;a -->
<g id="edge23" class="edge">
<title>1&#45;&gt;a</title>
<path fill="none" stroke="#f7931d" stroke-width="2" d="M1610.89,-222.67C1568.8,-266.34 1470.06,-376.23 1425,-488.92 1403.35,-543.08 1434.84,-567.67 1407,-618.92 1401.17,-629.66 1391.92,-639.09 1382.63,-646.68"/>
<polygon fill="#f7931d" stroke="#f7931d" stroke-width="2" points="1380.35,-644.01 1374.54,-652.87 1384.6,-649.57 1380.35,-644.01"/>
<text text-anchor="middle" x="1488.5" y="-533.32" font-family="Times,serif" font-size="32.00">ful</text>
<text text-anchor="middle" x="1488.5" y="-498.32" font-family="Times,serif" font-size="32.00">=&gt;1 =of a</text>
</g>
<!-- z3 -->
<g id="node17" class="node">
<title>z3</title>
<ellipse fill="none" stroke="black" stroke-dasharray="5,2" cx="2012.36" cy="-105.92" rx="27" ry="18"/>
</g>
<!-- z3&#45;&gt;1 -->
<g id="edge24" class="edge">
<title>z3&#45;&gt;1</title>
<path fill="none" stroke="#f7931d" stroke-width="2" d="M1986.86,-99.32C1933.58,-86.34 1804.49,-62.44 1711.04,-106.92 1684.55,-119.53 1664.02,-145.9 1650.6,-167.82"/>
<polygon fill="#f7931d" stroke="#f7931d" stroke-width="2" points="1647.51,-166.18 1645.47,-176.58 1653.55,-169.73 1647.51,-166.18"/>
<text text-anchor="middle" x="1826.54" y="-361.32" font-family="Times,serif" font-size="32.00">boast_2 |</text>
<text text-anchor="middle" x="1826.54" y="-326.32" font-family="Times,serif" font-size="32.00"> fear_2 |</text>
<text text-anchor="middle" x="1826.54" y="-291.32" font-family="Times,serif" font-size="32.00"> neglect_2 |</text>
<text text-anchor="middle" x="1826.54" y="-256.32" font-family="Times,serif" font-size="32.00"> scorn_2 |</text>
<text text-anchor="middle" x="1826.54" y="-221.32" font-family="Times,serif" font-size="32.00"> respect_2 |</text>
<text text-anchor="middle" x="1826.54" y="-186.32" font-family="Times,serif" font-size="32.00"> disdain_2 |</text>
<text text-anchor="middle" x="1826.54" y="-151.32" font-family="Times,serif" font-size="32.00"> doubt_2</text>
<text text-anchor="middle" x="1826.54" y="-116.32" font-family="Times,serif" font-size="32.00">1</text>
</g>
</g>
</svg>
