<?xml version="1.0" encoding="UTF-8" standalone="no"?>
<!DOCTYPE svg PUBLIC "-//W3C//DTD SVG 1.1//EN"
 "http://www.w3.org/Graphics/SVG/1.1/DTD/svg11.dtd">
<!-- Generated by graphviz version 2.47.1 (20210417.1919)
 -->
<!-- Title: G Pages: 1 -->
<svg width="2482pt" height="1361pt"
 viewBox="0.00 0.00 2481.64 1361.07" xmlns="http://www.w3.org/2000/svg" xmlns:xlink="http://www.w3.org/1999/xlink">
<g id="graph0" class="graph" transform="scale(1 1) rotate(0) translate(4 1357.07)">
<title>G</title>
<polygon fill="white" stroke="transparent" points="-4,4 -4,-1357.07 2477.64,-1357.07 2477.64,4 -4,4"/>
<text text-anchor="middle" x="1236.82" y="-13.4" font-family="Times,serif" font-size="32.00">decomposition: fear =d *k 0, neglect =d *k 0, respect =d *k 0, doubt =d *k 0, scorn =d *k 0, disdain =d *k 0</text>
<!-- t -->
<g id="node1" class="node">
<title>t</title>
<ellipse fill="lightgray" stroke="black" cx="27" cy="-435.07" rx="27" ry="30.31"/>
<text text-anchor="middle" x="27" y="-426.97" font-family="Times,serif" font-size="32.00">t</text>
</g>
<!-- z0 -->
<g id="node2" class="node">
<title>z0</title>
<ellipse fill="none" stroke="black" stroke-dasharray="5,2" cx="2436.17" cy="-1120.07" rx="27" ry="18"/>
</g>
<!-- da -->
<g id="node3" class="node">
<title>da</title>
<ellipse fill="none" stroke="black" cx="2113.36" cy="-1120.07" rx="33.47" ry="30.31"/>
<text text-anchor="middle" x="2113.36" y="-1111.97" font-family="Times,serif" font-size="32.00">da</text>
</g>
<!-- z0&#45;&gt;da -->
<g id="edge1" class="edge">
<title>z0&#45;&gt;da</title>
<path fill="none" stroke="#000000" d="M2408.91,-1120.07C2353.52,-1120.07 2224.24,-1120.07 2156.88,-1120.07"/>
<polygon fill="#000000" stroke="#000000" points="2156.62,-1116.57 2146.62,-1120.07 2156.62,-1123.57 2156.62,-1116.57"/>
<text text-anchor="middle" x="2282.19" y="-1199.47" font-family="Times,serif" font-size="32.00">Mary |</text>
<text text-anchor="middle" x="2282.19" y="-1164.47" font-family="Times,serif" font-size="32.00"> John</text>
<text text-anchor="middle" x="2282.19" y="-1129.47" font-family="Times,serif" font-size="32.00">da &#45;k</text>
</g>
<!-- z1 -->
<g id="node4" class="node">
<title>z1</title>
<ellipse fill="none" stroke="black" stroke-dasharray="5,2" cx="2436.17" cy="-1248.07" rx="27" ry="18"/>
</g>
<!-- poss -->
<g id="node5" class="node">
<title>poss</title>
<ellipse fill="none" stroke="black" cx="2113.36" cy="-1248.07" rx="52.15" ry="30.31"/>
<text text-anchor="middle" x="2113.36" y="-1239.97" font-family="Times,serif" font-size="32.00">poss</text>
</g>
<!-- z1&#45;&gt;poss -->
<g id="edge2" class="edge">
<title>z1&#45;&gt;poss</title>
<path fill="none" stroke="#000000" d="M2408.91,-1248.07C2358.35,-1248.07 2246.25,-1248.07 2175.84,-1248.07"/>
<polygon fill="#000000" stroke="#000000" points="2175.77,-1244.57 2165.77,-1248.07 2175.77,-1251.57 2175.77,-1244.57"/>
<text text-anchor="middle" x="2282.19" y="-1327.47" font-family="Times,serif" font-size="32.00">Mary&#39;s |</text>
<text text-anchor="middle" x="2282.19" y="-1292.47" font-family="Times,serif" font-size="32.00"> John&#39;s</text>
<text text-anchor="middle" x="2282.19" y="-1257.47" font-family="Times,serif" font-size="32.00">poss</text>
</g>
<!-- z2 -->
<g id="node6" class="node">
<title>z2</title>
<ellipse fill="none" stroke="black" stroke-dasharray="5,2" cx="2436.17" cy="-517.07" rx="27" ry="18"/>
</g>
<!-- d -->
<g id="node7" class="node">
<title>d</title>
<ellipse fill="none" stroke="black" cx="2113.36" cy="-517.07" rx="27" ry="30.31"/>
<text text-anchor="middle" x="2113.36" y="-508.97" font-family="Times,serif" font-size="32.00">d</text>
</g>
<!-- z2&#45;&gt;d -->
<g id="edge3" class="edge">
<title>z2&#45;&gt;d</title>
<path fill="none" stroke="#000000" d="M2408.91,-517.07C2351.79,-517.07 2216.1,-517.07 2150.76,-517.07"/>
<polygon fill="#000000" stroke="#000000" points="2150.53,-513.57 2140.53,-517.07 2150.53,-520.57 2150.53,-513.57"/>
<text text-anchor="middle" x="2282.19" y="-561.47" font-family="Times,serif" font-size="32.00">the&#45;cause</text>
<text text-anchor="middle" x="2282.19" y="-526.47" font-family="Times,serif" font-size="32.00">d &#45;k</text>
</g>
<!-- for -->
<g id="node8" class="node">
<title>for</title>
<ellipse fill="none" stroke="black" cx="2436.17" cy="-920.07" rx="37.45" ry="30.31"/>
<text text-anchor="middle" x="2436.17" y="-911.97" font-family="Times,serif" font-size="32.00">for</text>
</g>
<!-- d&#45;&gt;for -->
<g id="edge4" class="edge">
<title>d&#45;&gt;for</title>
<path fill="none" stroke="#000000" d="M2127.17,-543.82C2139,-569.65 2156.14,-610.19 2165.69,-647.07 2181.08,-706.53 2148.87,-733.49 2183.69,-784.07 2190.37,-793.78 2325.62,-863.97 2394.94,-899.54"/>
<polygon fill="#000000" stroke="#000000" points="2393.36,-902.66 2403.86,-904.11 2396.56,-896.43 2393.36,-902.66"/>
<text text-anchor="middle" x="2282.19" y="-934.47" font-family="Times,serif" font-size="32.00">for</text>
<text text-anchor="middle" x="2282.19" y="-899.47" font-family="Times,serif" font-size="32.00">=d *k for</text>
</g>
<!-- of -->
<g id="node9" class="node">
<title>of</title>
<ellipse fill="none" stroke="black" cx="1732.52" cy="-220.07" rx="30.31" ry="30.31"/>
<text text-anchor="middle" x="1732.52" y="-211.97" font-family="Times,serif" font-size="32.00">of</text>
</g>
<!-- d&#45;&gt;of -->
<g id="edge5" class="edge">
<title>d&#45;&gt;of</title>
<path fill="none" stroke="#000000" d="M2111.75,-486.61C2109.37,-403.15 2097.86,-173.99 2043.04,-128.07 1964.33,-62.15 1896.03,-69.04 1812.04,-128.07 1792.71,-141.65 1808.42,-159.34 1794.04,-178.07 1787.12,-187.08 1777.72,-194.9 1768.39,-201.26"/>
<polygon fill="#000000" stroke="#000000" points="1766.45,-198.35 1759.91,-206.69 1770.22,-204.24 1766.45,-198.35"/>
<text text-anchor="middle" x="1927.54" y="-172.47" font-family="Times,serif" font-size="32.00">of</text>
<text text-anchor="middle" x="1927.54" y="-137.47" font-family="Times,serif" font-size="32.00">=d *k of</text>
</g>
<!-- about -->
<g id="node10" class="node">
<title>about</title>
<ellipse fill="none" stroke="black" cx="1732.52" cy="-534.07" rx="61.54" ry="30.31"/>
<text text-anchor="middle" x="1732.52" y="-525.97" font-family="Times,serif" font-size="32.00">about</text>
</g>
<!-- d&#45;&gt;about -->
<g id="edge6" class="edge">
<title>d&#45;&gt;about</title>
<path fill="none" stroke="#000000" d="M2091.01,-534.22C2077.99,-543.56 2060.52,-554.19 2043.04,-559.07 1944.15,-586.69 1913.49,-574.83 1812.04,-559.07 1805.48,-558.06 1798.73,-556.59 1792.06,-554.86"/>
<polygon fill="#000000" stroke="#000000" points="1792.96,-551.48 1782.39,-552.18 1791.09,-558.22 1792.96,-551.48"/>
<text text-anchor="middle" x="1927.54" y="-620.47" font-family="Times,serif" font-size="32.00">about</text>
<text text-anchor="middle" x="1927.54" y="-585.47" font-family="Times,serif" font-size="32.00">=d *k about</text>
</g>
<!-- for&#45;&gt;d -->
<g id="edge19" class="edge">
<title>for&#45;&gt;d</title>
<path fill="none" stroke="#000000" d="M2433.28,-889.44C2428.65,-824.43 2414.53,-675.71 2380.69,-640.07 2318.56,-574.65 2261.49,-636.75 2183.69,-591.07 2165.63,-580.47 2149.38,-563.74 2137.16,-548.87"/>
<polygon fill="#000000" stroke="#000000" points="2139.76,-546.51 2130.8,-540.85 2134.27,-550.86 2139.76,-546.51"/>
<text text-anchor="middle" x="2282.19" y="-754.47" font-family="Times,serif" font-size="32.00">hope_1 |</text>
<text text-anchor="middle" x="2282.19" y="-719.47" font-family="Times,serif" font-size="32.00"> respect_1 |</text>
<text text-anchor="middle" x="2282.19" y="-684.47" font-family="Times,serif" font-size="32.00"> disdain_1</text>
<text text-anchor="middle" x="2282.19" y="-649.47" font-family="Times,serif" font-size="32.00">=for poss= d &#45;k</text>
</g>
<!-- 0 -->
<g id="node11" class="node">
<title>0</title>
<ellipse fill="none" stroke="black" cx="1174" cy="-517.07" rx="27" ry="30.31"/>
<text text-anchor="middle" x="1174" y="-508.97" font-family="Times,serif" font-size="32.00">0</text>
</g>
<!-- for&#45;&gt;0 -->
<g id="edge18" class="edge">
<title>for&#45;&gt;0</title>
<path fill="none" stroke="#000000" d="M2417.05,-946.28C2407.48,-958.39 2394.81,-972.05 2380.69,-981.07 2276.43,-1047.68 2238.08,-1062.07 2114.36,-1062.07 2114.36,-1062.07 2114.36,-1062.07 1450.5,-1062.07 1224.41,-1062.07 1183.82,-683.88 1176.57,-557.58"/>
<polygon fill="#000000" stroke="#000000" points="1180.06,-557.34 1176.03,-547.54 1173.07,-557.72 1180.06,-557.34"/>
<text text-anchor="middle" x="1732.52" y="-1106.47" font-family="Times,serif" font-size="32.00">hope</text>
<text text-anchor="middle" x="1732.52" y="-1071.47" font-family="Times,serif" font-size="32.00">=for 0</text>
</g>
<!-- a -->
<g id="node12" class="node">
<title>a</title>
<ellipse fill="none" stroke="black" cx="1451.5" cy="-656.07" rx="27" ry="30.31"/>
<text text-anchor="middle" x="1451.5" y="-647.97" font-family="Times,serif" font-size="32.00">a</text>
</g>
<!-- for&#45;&gt;a -->
<g id="edge20" class="edge">
<title>for&#45;&gt;a</title>
<path fill="none" stroke="#000000" d="M2412.35,-943.66C2403.31,-951.4 2392.3,-959.04 2380.69,-963.07 2346.45,-974.96 1859.6,-971.23 1812.04,-955.07 1659.44,-903.25 1527.31,-752.01 1475.67,-686.7"/>
<polygon fill="#000000" stroke="#000000" points="1478.41,-684.52 1469.48,-678.8 1472.89,-688.83 1478.41,-684.52"/>
<text text-anchor="middle" x="1927.54" y="-1013.47" font-family="Times,serif" font-size="32.00">hopeful</text>
<text text-anchor="middle" x="1927.54" y="-978.47" font-family="Times,serif" font-size="32.00">=for a</text>
</g>
<!-- of&#45;&gt;d -->
<g id="edge22" class="edge">
<title>of&#45;&gt;d</title>
<path fill="none" stroke="#000000" d="M1762.85,-215.85C1831.59,-206.64 2000.5,-188.15 2043.04,-222.07 2082.49,-253.53 2101.74,-403.47 2108.91,-476.67"/>
<polygon fill="#000000" stroke="#000000" points="2105.45,-477.27 2109.89,-486.9 2112.42,-476.61 2105.45,-477.27"/>
<text text-anchor="middle" x="1927.54" y="-406.47" font-family="Times,serif" font-size="32.00">boast_1 |</text>
<text text-anchor="middle" x="1927.54" y="-371.47" font-family="Times,serif" font-size="32.00"> fear_1 |</text>
<text text-anchor="middle" x="1927.54" y="-336.47" font-family="Times,serif" font-size="32.00"> neglect_1 |</text>
<text text-anchor="middle" x="1927.54" y="-301.47" font-family="Times,serif" font-size="32.00"> scorn_1 |</text>
<text text-anchor="middle" x="1927.54" y="-266.47" font-family="Times,serif" font-size="32.00"> doubt_1</text>
<text text-anchor="middle" x="1927.54" y="-231.47" font-family="Times,serif" font-size="32.00">=of poss= d &#45;k</text>
</g>
<!-- of&#45;&gt;0 -->
<g id="edge21" class="edge">
<title>of&#45;&gt;0</title>
<path fill="none" stroke="#000000" d="M1726.81,-250.25C1718.91,-290.22 1699.08,-359.97 1653,-397.07 1561.83,-470.49 1508.45,-421.21 1395,-450.07 1328.91,-466.89 1253.07,-491.09 1209.92,-505.34"/>
<polygon fill="#000000" stroke="#000000" points="1208.58,-502.09 1200.19,-508.56 1210.78,-508.74 1208.58,-502.09"/>
<text text-anchor="middle" x="1451.5" y="-494.47" font-family="Times,serif" font-size="32.00">boast</text>
<text text-anchor="middle" x="1451.5" y="-459.47" font-family="Times,serif" font-size="32.00">=of 0</text>
</g>
<!-- about&#45;&gt;d -->
<g id="edge26" class="edge">
<title>about&#45;&gt;d</title>
<path fill="none" stroke="#000000" d="M1751.48,-504.82C1765.32,-485.28 1786.4,-461.2 1812.04,-450.07 1859.12,-429.63 1995.44,-430.83 2043.04,-450.07 2061.2,-457.42 2077.24,-472.05 2089.31,-485.77"/>
<polygon fill="#000000" stroke="#000000" points="2086.84,-488.26 2095.94,-493.68 2092.2,-483.77 2086.84,-488.26"/>
<text text-anchor="middle" x="1927.54" y="-529.47" font-family="Times,serif" font-size="32.00">boast_4 |</text>
<text text-anchor="middle" x="1927.54" y="-494.47" font-family="Times,serif" font-size="32.00"> doubt_3</text>
<text text-anchor="middle" x="1927.54" y="-459.47" font-family="Times,serif" font-size="32.00">=about poss= d &#45;k</text>
</g>
<!-- about&#45;&gt;0 -->
<g id="edge25" class="edge">
<title>about&#45;&gt;0</title>
<path fill="none" stroke="#000000" d="M1671.08,-531.71C1664.97,-531.49 1658.86,-531.27 1653,-531.07 1488.03,-525.51 1290.98,-520.14 1211.19,-518.02"/>
<polygon fill="#000000" stroke="#000000" points="1211.26,-514.52 1201.17,-517.76 1211.07,-521.52 1211.26,-514.52"/>
<text text-anchor="middle" x="1451.5" y="-571.47" font-family="Times,serif" font-size="32.00">boast_3</text>
<text text-anchor="middle" x="1451.5" y="-536.47" font-family="Times,serif" font-size="32.00">=about 0</text>
</g>
<!-- about&#45;&gt;a -->
<g id="edge27" class="edge">
<title>about&#45;&gt;a</title>
<path fill="none" stroke="#000000" d="M1670.91,-533.18C1618.84,-533.57 1548.68,-537.21 1526,-553.07 1510.69,-563.78 1518.16,-575.39 1508,-591.07 1499.56,-604.1 1488.76,-617.34 1478.92,-628.43"/>
<polygon fill="#000000" stroke="#000000" points="1476.1,-626.34 1471.98,-636.1 1481.29,-631.04 1476.1,-626.34"/>
<text text-anchor="middle" x="1589.5" y="-632.47" font-family="Times,serif" font-size="32.00">boastful |</text>
<text text-anchor="middle" x="1589.5" y="-597.47" font-family="Times,serif" font-size="32.00"> doubtful</text>
<text text-anchor="middle" x="1589.5" y="-562.47" font-family="Times,serif" font-size="32.00">=about a</text>
</g>
<!-- 0&#45;&gt;t -->
<g id="edge7" class="edge">
<title>0&#45;&gt;t</title>
<path fill="none" stroke="#000000" d="M1152.59,-536.23C1145.5,-542.19 1137.25,-548.42 1129,-553.07 1015.62,-617.01 983.17,-651.07 853,-651.07 853,-651.07 853,-651.07 228,-651.07 154.48,-651.07 122.07,-649.9 72,-596.07 41.55,-563.34 31.82,-511.59 28.9,-475.63"/>
<polygon fill="#000000" stroke="#000000" points="32.38,-475.22 28.22,-465.48 25.39,-475.69 32.38,-475.22"/>
<text text-anchor="middle" x="512" y="-730.47" font-family="Times,serif" font-size="32.00">s |</text>
<text text-anchor="middle" x="512" y="-695.47" font-family="Times,serif" font-size="32.00"> d</text>
<text text-anchor="middle" x="512" y="-660.47" font-family="Times,serif" font-size="32.00">=&gt;0 =da +k t</text>
</g>
<!-- v -->
<g id="node13" class="node">
<title>v</title>
<ellipse fill="none" stroke="black" cx="229" cy="-468.07" rx="27" ry="30.31"/>
<text text-anchor="middle" x="229" y="-459.97" font-family="Times,serif" font-size="32.00">v</text>
</g>
<!-- 0&#45;&gt;v -->
<g id="edge9" class="edge">
<title>0&#45;&gt;v</title>
<path fill="none" stroke="#000000" d="M1147.19,-522.16C1103.79,-530.41 1013.36,-546.39 936,-552.07 755.8,-565.31 315.35,-566.15 274,-542.07 260.15,-534.01 250.18,-519.71 243.27,-505.82"/>
<polygon fill="#000000" stroke="#000000" points="246.29,-504.01 238.97,-496.35 239.92,-506.9 246.29,-504.01"/>
<text text-anchor="middle" x="682" y="-606.47" font-family="Times,serif" font-size="32.00">ε_0</text>
<text text-anchor="middle" x="682" y="-571.47" font-family="Times,serif" font-size="32.00">=&gt;0 =da v</text>
</g>
<!-- perf -->
<g id="node14" class="node">
<title>perf</title>
<ellipse fill="none" stroke="black" cx="512" cy="-468.07" rx="48.17" ry="30.31"/>
<text text-anchor="middle" x="512" y="-459.97" font-family="Times,serif" font-size="32.00">perf</text>
</g>
<!-- 0&#45;&gt;perf -->
<g id="edge10" class="edge">
<title>0&#45;&gt;perf</title>
<path fill="none" stroke="#000000" d="M1147.16,-512.27C1103.73,-504.43 1013.26,-489.03 936,-482.07 805.64,-470.33 651.89,-468.15 570.42,-467.91"/>
<polygon fill="#000000" stroke="#000000" points="570.38,-464.41 560.37,-467.89 570.36,-471.41 570.38,-464.41"/>
<text text-anchor="middle" x="852" y="-526.47" font-family="Times,serif" font-size="32.00">n</text>
<text text-anchor="middle" x="852" y="-491.47" font-family="Times,serif" font-size="32.00">=&gt;0 =da perf</text>
</g>
<!-- prog -->
<g id="node15" class="node">
<title>prog</title>
<ellipse fill="none" stroke="black" cx="852" cy="-367.07" rx="52.15" ry="30.31"/>
<text text-anchor="middle" x="852" y="-358.97" font-family="Times,serif" font-size="32.00">prog</text>
</g>
<!-- 0&#45;&gt;prog -->
<g id="edge11" class="edge">
<title>0&#45;&gt;prog</title>
<path fill="none" stroke="#000000" d="M1172.21,-486.46C1169.6,-455.28 1160.31,-408.19 1129,-384.07 1066.8,-336.16 971.44,-342.53 910.66,-353.37"/>
<polygon fill="#000000" stroke="#000000" points="909.66,-350 900.48,-355.29 910.95,-356.88 909.66,-350"/>
<text text-anchor="middle" x="1041.5" y="-428.47" font-family="Times,serif" font-size="32.00">ing</text>
<text text-anchor="middle" x="1041.5" y="-393.47" font-family="Times,serif" font-size="32.00">=&gt;0 =da prog</text>
</g>
<!-- a&#45;&gt;0 -->
<g id="edge8" class="edge">
<title>a&#45;&gt;0</title>
<path fill="none" stroke="#000000" d="M1426.53,-643.98C1377.28,-619.13 1264.59,-562.27 1208.29,-533.87"/>
<polygon fill="#000000" stroke="#000000" points="1209.61,-530.62 1199.11,-529.24 1206.46,-536.87 1209.61,-530.62"/>
<text text-anchor="middle" x="1298" y="-663.47" font-family="Times,serif" font-size="32.00">be</text>
<text text-anchor="middle" x="1298" y="-628.47" font-family="Times,serif" font-size="32.00">=a 0</text>
</g>
<!-- v&#45;&gt;t -->
<g id="edge12" class="edge">
<title>v&#45;&gt;t</title>
<path fill="none" stroke="#000000" d="M202.9,-475.88C171.17,-484.34 115.44,-494.48 72,-477.07 64.99,-474.27 58.46,-469.75 52.7,-464.7"/>
<polygon fill="#000000" stroke="#000000" points="54.96,-462.02 45.33,-457.59 50.1,-467.05 54.96,-462.02"/>
<text text-anchor="middle" x="128" y="-566.47" font-family="Times,serif" font-size="32.00">wills |</text>
<text text-anchor="middle" x="128" y="-531.47" font-family="Times,serif" font-size="32.00"> willd</text>
<text text-anchor="middle" x="128" y="-496.47" font-family="Times,serif" font-size="32.00">=v +k t</text>
</g>
<!-- v&#45;&gt;t -->
<g id="edge13" class="edge">
<title>v&#45;&gt;t</title>
<path fill="none" stroke="#000000" d="M223.67,-437.89C218.54,-414.44 207.51,-383.41 184,-368.07 142.31,-340.87 115.81,-344.43 72,-368.07 59.7,-374.71 50.28,-386.45 43.38,-398.26"/>
<polygon fill="#000000" stroke="#000000" points="40.21,-396.76 38.58,-407.23 46.38,-400.06 40.21,-396.76"/>
<text text-anchor="middle" x="128" y="-447.47" font-family="Times,serif" font-size="32.00">s_1 |</text>
<text text-anchor="middle" x="128" y="-412.47" font-family="Times,serif" font-size="32.00"> d_1</text>
<text text-anchor="middle" x="128" y="-377.47" font-family="Times,serif" font-size="32.00">=&gt;v +k t</text>
</g>
<!-- perf&#45;&gt;v -->
<g id="edge14" class="edge">
<title>perf&#45;&gt;v</title>
<path fill="none" stroke="#000000" d="M463.65,-468.07C408.01,-468.07 316.91,-468.07 266.47,-468.07"/>
<polygon fill="#000000" stroke="#000000" points="266.36,-464.57 256.36,-468.07 266.36,-471.57 266.36,-464.57"/>
<text text-anchor="middle" x="342" y="-512.47" font-family="Times,serif" font-size="32.00">have</text>
<text text-anchor="middle" x="342" y="-477.47" font-family="Times,serif" font-size="32.00">=perf v</text>
</g>
<!-- prog&#45;&gt;t -->
<g id="edge15" class="edge">
<title>prog&#45;&gt;t</title>
<path fill="none" stroke="#000000" d="M810.68,-348.21C716.52,-306.58 474.89,-213.78 274,-256.07 178,-276.28 142.73,-277.09 72,-345.07 57.29,-359.21 46.83,-379.28 39.8,-396.88"/>
<polygon fill="#000000" stroke="#000000" points="36.48,-395.76 36.25,-406.36 43.04,-398.22 36.48,-395.76"/>
<text text-anchor="middle" x="342" y="-335.47" font-family="Times,serif" font-size="32.00">bes |</text>
<text text-anchor="middle" x="342" y="-300.47" font-family="Times,serif" font-size="32.00"> bed</text>
<text text-anchor="middle" x="342" y="-265.47" font-family="Times,serif" font-size="32.00">=prog +k t</text>
</g>
<!-- prog&#45;&gt;v -->
<g id="edge16" class="edge">
<title>prog&#45;&gt;v</title>
<path fill="none" stroke="#000000" d="M802.13,-357.82C722.34,-344.54 559.78,-325.2 428,-359.07 363.26,-375.72 297.01,-418.47 259.92,-445.22"/>
<polygon fill="#000000" stroke="#000000" points="257.59,-442.59 251.58,-451.32 261.72,-448.24 257.59,-442.59"/>
<text text-anchor="middle" x="512" y="-403.47" font-family="Times,serif" font-size="32.00">be_1</text>
<text text-anchor="middle" x="512" y="-368.47" font-family="Times,serif" font-size="32.00">=prog v</text>
</g>
<!-- prog&#45;&gt;perf -->
<g id="edge17" class="edge">
<title>prog&#45;&gt;perf</title>
<path fill="none" stroke="#000000" d="M799.79,-364.78C739.23,-363.07 642.96,-363.85 614,-384.07 598.02,-395.24 609.33,-409.85 596,-424.07 586.85,-433.84 575.03,-441.87 563.2,-448.27"/>
<polygon fill="#000000" stroke="#000000" points="561.52,-445.19 554.19,-452.84 564.69,-451.43 561.52,-445.19"/>
<text text-anchor="middle" x="682" y="-428.47" font-family="Times,serif" font-size="32.00">ben</text>
<text text-anchor="middle" x="682" y="-393.47" font-family="Times,serif" font-size="32.00">=prog perf</text>
</g>
<!-- 1 -->
<g id="node16" class="node">
<title>1</title>
<ellipse fill="none" stroke="black" cx="1732.52" cy="-676.07" rx="27" ry="30.31"/>
<text text-anchor="middle" x="1732.52" y="-667.97" font-family="Times,serif" font-size="32.00">1</text>
</g>
<!-- 1&#45;&gt;a -->
<g id="edge23" class="edge">
<title>1&#45;&gt;a</title>
<path fill="none" stroke="#000000" d="M1705.52,-674.21C1655.47,-670.62 1545.64,-662.75 1488.55,-658.66"/>
<polygon fill="#000000" stroke="#000000" points="1488.76,-655.16 1478.53,-657.94 1488.26,-662.15 1488.76,-655.16"/>
<text text-anchor="middle" x="1589.5" y="-715.47" font-family="Times,serif" font-size="32.00">ful</text>
<text text-anchor="middle" x="1589.5" y="-680.47" font-family="Times,serif" font-size="32.00">=&gt;1 =of a</text>
</g>
<!-- z3 -->
<g id="node17" class="node">
<title>z3</title>
<ellipse fill="none" stroke="black" stroke-dasharray="5,2" cx="2113.36" cy="-674.07" rx="27" ry="18"/>
</g>
<!-- z3&#45;&gt;1 -->
<g id="edge24" class="edge">
<title>z3&#45;&gt;1</title>
<path fill="none" stroke="#000000" d="M2086.25,-674.08C2034.12,-674.1 1913.45,-674.26 1812.04,-675.07 1798.27,-675.18 1783.14,-675.36 1769.87,-675.54"/>
<polygon fill="#000000" stroke="#000000" points="1769.64,-672.04 1759.69,-675.68 1769.74,-679.04 1769.64,-672.04"/>
<text text-anchor="middle" x="1927.54" y="-929.47" font-family="Times,serif" font-size="32.00">boast_2 |</text>
<text text-anchor="middle" x="1927.54" y="-894.47" font-family="Times,serif" font-size="32.00"> fear_2 |</text>
<text text-anchor="middle" x="1927.54" y="-859.47" font-family="Times,serif" font-size="32.00"> neglect_2 |</text>
<text text-anchor="middle" x="1927.54" y="-824.47" font-family="Times,serif" font-size="32.00"> scorn_2 |</text>
<text text-anchor="middle" x="1927.54" y="-789.47" font-family="Times,serif" font-size="32.00"> respect_2 |</text>
<text text-anchor="middle" x="1927.54" y="-754.47" font-family="Times,serif" font-size="32.00"> disdain_2 |</text>
<text text-anchor="middle" x="1927.54" y="-719.47" font-family="Times,serif" font-size="32.00"> doubt_2</text>
<text text-anchor="middle" x="1927.54" y="-684.47" font-family="Times,serif" font-size="32.00">1</text>
</g>
<!-- 2 -->
<g id="node18" class="node">
<title>2</title>
<ellipse fill="none" stroke="black" cx="1451.5" cy="-195.07" rx="27" ry="30.31"/>
<text text-anchor="middle" x="1451.5" y="-186.97" font-family="Times,serif" font-size="32.00">2</text>
</g>
<!-- 2&#45;&gt;0 -->
<g id="edge28" class="edge">
<title>2&#45;&gt;0</title>
<path fill="none" stroke="#f7931d" stroke-width="2" d="M1425.03,-202.11C1376.83,-216.8 1272.33,-255.46 1219,-327.07 1186.28,-371.01 1177.34,-435.3 1175.2,-476.67"/>
<polygon fill="#f7931d" stroke="#f7931d" stroke-width="2" points="1171.7,-476.53 1174.79,-486.66 1178.69,-476.82 1171.7,-476.53"/>
<text text-anchor="middle" x="1298" y="-371.47" font-family="Times,serif" font-size="32.00">ε_1</text>
<text text-anchor="middle" x="1298" y="-336.47" font-family="Times,serif" font-size="32.00">=&gt;2 =d *k 0</text>
</g>
<!-- z4 -->
<g id="node19" class="node">
<title>z4</title>
<ellipse fill="none" stroke="black" stroke-dasharray="5,2" cx="1732.52" cy="-151.07" rx="27" ry="18"/>
</g>
<!-- z4&#45;&gt;2 -->
<g id="edge29" class="edge">
<title>z4&#45;&gt;2</title>
<path fill="none" stroke="#f7931d" stroke-width="2" d="M1705.95,-147.02C1666.51,-141.7 1588.81,-134.89 1526,-152.07 1510.71,-156.26 1495.33,-164.48 1482.62,-172.63"/>
<polygon fill="#f7931d" stroke="#f7931d" stroke-width="2" points="1480.65,-169.74 1474.28,-178.21 1484.54,-175.56 1480.65,-169.74"/>
<text text-anchor="middle" x="1589.5" y="-371.47" font-family="Times,serif" font-size="32.00">fear |</text>
<text text-anchor="middle" x="1589.5" y="-336.47" font-family="Times,serif" font-size="32.00"> neglect |</text>
<text text-anchor="middle" x="1589.5" y="-301.47" font-family="Times,serif" font-size="32.00"> scorn |</text>
<text text-anchor="middle" x="1589.5" y="-266.47" font-family="Times,serif" font-size="32.00"> respect |</text>
<text text-anchor="middle" x="1589.5" y="-231.47" font-family="Times,serif" font-size="32.00"> disdain |</text>
<text text-anchor="middle" x="1589.5" y="-196.47" font-family="Times,serif" font-size="32.00"> doubt</text>
<text text-anchor="middle" x="1589.5" y="-161.47" font-family="Times,serif" font-size="32.00">2</text>
</g>
</g>
</svg>
