<?xml version="1.0" encoding="UTF-8" standalone="no"?>
<!DOCTYPE svg PUBLIC "-//W3C//DTD SVG 1.1//EN"
 "http://www.w3.org/Graphics/SVG/1.1/DTD/svg11.dtd">
<!-- Generated by graphviz version 2.47.1 (20210417.1919)
 -->
<!-- Title: G Pages: 1 -->
<svg width="2799pt" height="1344pt"
 viewBox="0.00 0.00 2798.99 1343.54" xmlns="http://www.w3.org/2000/svg" xmlns:xlink="http://www.w3.org/1999/xlink">
<g id="graph0" class="graph" transform="scale(1 1) rotate(0) translate(4 1339.54)">
<title>G</title>
<polygon fill="white" stroke="transparent" points="-4,4 -4,-1339.54 2794.99,-1339.54 2794.99,4 -4,4"/>
<text text-anchor="middle" x="1395.49" y="-13.4" font-family="Times,serif" font-size="32.00">decomposition: s =&gt;0 =da +k t, d =&gt;0 =da +k t, &#160;=&gt;0 =da v, n =&gt;0 =da perf, ing =&gt;0 =da prog</text>
<!-- t -->
<g id="node1" class="node">
<title>t</title>
<ellipse fill="lightgray" stroke="black" cx="27" cy="-525.54" rx="27" ry="30.31"/>
<text text-anchor="middle" x="27" y="-517.44" font-family="Times,serif" font-size="32.00">t</text>
</g>
<!-- z0 -->
<g id="node2" class="node">
<title>z0</title>
<ellipse fill="none" stroke="black" stroke-dasharray="5,2" cx="2753.51" cy="-1102.54" rx="27" ry="18"/>
</g>
<!-- da -->
<g id="node3" class="node">
<title>da</title>
<ellipse fill="none" stroke="black" cx="2474.54" cy="-1102.54" rx="33.47" ry="30.31"/>
<text text-anchor="middle" x="2474.54" y="-1094.44" font-family="Times,serif" font-size="32.00">da</text>
</g>
<!-- z0&#45;&gt;da -->
<g id="edge1" class="edge">
<title>z0&#45;&gt;da</title>
<path fill="none" stroke="#000000" d="M2726.46,-1102.54C2678.66,-1102.54 2576.56,-1102.54 2518.41,-1102.54"/>
<polygon fill="#000000" stroke="#000000" points="2518.08,-1099.04 2508.08,-1102.54 2518.08,-1106.04 2518.08,-1099.04"/>
<text text-anchor="middle" x="2625.04" y="-1181.94" font-family="Times,serif" font-size="32.00">Mary |</text>
<text text-anchor="middle" x="2625.04" y="-1146.94" font-family="Times,serif" font-size="32.00"> John</text>
<text text-anchor="middle" x="2625.04" y="-1111.94" font-family="Times,serif" font-size="32.00">da &#45;k</text>
</g>
<!-- z1 -->
<g id="node4" class="node">
<title>z1</title>
<ellipse fill="none" stroke="black" stroke-dasharray="5,2" cx="2753.51" cy="-1230.54" rx="27" ry="18"/>
</g>
<!-- poss -->
<g id="node5" class="node">
<title>poss</title>
<ellipse fill="none" stroke="black" cx="2474.54" cy="-1230.54" rx="52.15" ry="30.31"/>
<text text-anchor="middle" x="2474.54" y="-1222.44" font-family="Times,serif" font-size="32.00">poss</text>
</g>
<!-- z1&#45;&gt;poss -->
<g id="edge2" class="edge">
<title>z1&#45;&gt;poss</title>
<path fill="none" stroke="#000000" d="M2726.46,-1230.54C2683.43,-1230.54 2596.38,-1230.54 2537.02,-1230.54"/>
<polygon fill="#000000" stroke="#000000" points="2537.01,-1227.04 2527.01,-1230.54 2537.01,-1234.04 2537.01,-1227.04"/>
<text text-anchor="middle" x="2625.04" y="-1309.94" font-family="Times,serif" font-size="32.00">Mary&#39;s |</text>
<text text-anchor="middle" x="2625.04" y="-1274.94" font-family="Times,serif" font-size="32.00"> John&#39;s</text>
<text text-anchor="middle" x="2625.04" y="-1239.94" font-family="Times,serif" font-size="32.00">poss</text>
</g>
<!-- z2 -->
<g id="node6" class="node">
<title>z2</title>
<ellipse fill="none" stroke="black" stroke-dasharray="5,2" cx="2474.54" cy="-960.54" rx="27" ry="18"/>
</g>
<!-- d -->
<g id="node7" class="node">
<title>d</title>
<ellipse fill="none" stroke="black" cx="2111.04" cy="-959.54" rx="27" ry="30.31"/>
<text text-anchor="middle" x="2111.04" y="-951.44" font-family="Times,serif" font-size="32.00">d</text>
</g>
<!-- z2&#45;&gt;d -->
<g id="edge3" class="edge">
<title>z2&#45;&gt;d</title>
<path fill="none" stroke="#000000" d="M2447.25,-960.47C2383.6,-960.29 2221.12,-959.84 2148.3,-959.64"/>
<polygon fill="#000000" stroke="#000000" points="2148.24,-956.14 2138.23,-959.61 2148.22,-963.14 2148.24,-956.14"/>
<text text-anchor="middle" x="2300.04" y="-1004.94" font-family="Times,serif" font-size="32.00">the&#45;cause</text>
<text text-anchor="middle" x="2300.04" y="-969.94" font-family="Times,serif" font-size="32.00">d &#45;k</text>
</g>
<!-- for -->
<g id="node8" class="node">
<title>for</title>
<ellipse fill="none" stroke="black" cx="2753.51" cy="-777.54" rx="37.45" ry="30.31"/>
<text text-anchor="middle" x="2753.51" y="-769.44" font-family="Times,serif" font-size="32.00">for</text>
</g>
<!-- d&#45;&gt;for -->
<g id="edge4" class="edge">
<title>d&#45;&gt;for</title>
<path fill="none" stroke="#000000" d="M2136.68,-949.63C2187.68,-929.58 2308.91,-884.39 2415.04,-863.54 2538.86,-839.22 2585.5,-897.63 2698.04,-840.54 2710.57,-834.18 2721.44,-823.56 2730.11,-812.84"/>
<polygon fill="#000000" stroke="#000000" points="2733.04,-814.77 2736.29,-804.69 2727.46,-810.54 2733.04,-814.77"/>
<text text-anchor="middle" x="2474.54" y="-907.94" font-family="Times,serif" font-size="32.00">for</text>
<text text-anchor="middle" x="2474.54" y="-872.94" font-family="Times,serif" font-size="32.00">=d *k for</text>
</g>
<!-- of -->
<g id="node9" class="node">
<title>of</title>
<ellipse fill="none" stroke="black" cx="1786.52" cy="-713.54" rx="30.31" ry="30.31"/>
<text text-anchor="middle" x="1786.52" y="-705.44" font-family="Times,serif" font-size="32.00">of</text>
</g>
<!-- d&#45;&gt;of -->
<g id="edge5" class="edge">
<title>d&#45;&gt;of</title>
<path fill="none" stroke="#000000" d="M2086.5,-946.46C2071.94,-938.1 2053.03,-926.75 2037.04,-915.54 1954.16,-857.43 1863.31,-780.12 1817.5,-740.09"/>
<polygon fill="#000000" stroke="#000000" points="1819.57,-737.25 1809.74,-733.29 1814.96,-742.51 1819.57,-737.25"/>
<text text-anchor="middle" x="1942.54" y="-944.94" font-family="Times,serif" font-size="32.00">of</text>
<text text-anchor="middle" x="1942.54" y="-909.94" font-family="Times,serif" font-size="32.00">=d *k of</text>
</g>
<!-- about -->
<g id="node10" class="node">
<title>about</title>
<ellipse fill="none" stroke="black" cx="1786.52" cy="-584.54" rx="61.54" ry="30.31"/>
<text text-anchor="middle" x="1786.52" y="-576.44" font-family="Times,serif" font-size="32.00">about</text>
</g>
<!-- d&#45;&gt;about -->
<g id="edge6" class="edge">
<title>d&#45;&gt;about</title>
<path fill="none" stroke="#000000" d="M2084.7,-951.15C2068.22,-944.3 2047.85,-932.86 2037.04,-915.54 1988.61,-837.95 2069.16,-787.04 2019.04,-710.54 1980.79,-652.16 1905.95,-618.62 1851.69,-601.04"/>
<polygon fill="#000000" stroke="#000000" points="1852.4,-597.6 1841.81,-597.95 1850.3,-604.28 1852.4,-597.6"/>
<text text-anchor="middle" x="1942.54" y="-754.94" font-family="Times,serif" font-size="32.00">about</text>
<text text-anchor="middle" x="1942.54" y="-719.94" font-family="Times,serif" font-size="32.00">=d *k about</text>
</g>
<!-- 1 -->
<g id="node12" class="node">
<title>1</title>
<ellipse fill="none" stroke="black" cx="1228" cy="-607.54" rx="27" ry="30.31"/>
<text text-anchor="middle" x="1228" y="-599.44" font-family="Times,serif" font-size="32.00">1</text>
</g>
<!-- for&#45;&gt;1 -->
<g id="edge19" class="edge">
<title>for&#45;&gt;1</title>
<path fill="none" stroke="#000000" d="M2739.86,-805.86C2707,-874.58 2611.96,-1044.54 2475.54,-1044.54 2475.54,-1044.54 2475.54,-1044.54 1504.5,-1044.54 1317.89,-1044.54 1252.63,-755.85 1234.73,-647.76"/>
<polygon fill="#000000" stroke="#000000" points="1238.14,-646.9 1233.1,-637.58 1231.23,-648 1238.14,-646.9"/>
<text text-anchor="middle" x="1942.54" y="-1088.94" font-family="Times,serif" font-size="32.00">hope</text>
<text text-anchor="middle" x="1942.54" y="-1053.94" font-family="Times,serif" font-size="32.00">=for 1</text>
</g>
<!-- a -->
<g id="node13" class="node">
<title>a</title>
<ellipse fill="none" stroke="black" cx="1505.5" cy="-471.54" rx="27" ry="30.31"/>
<text text-anchor="middle" x="1505.5" y="-463.44" font-family="Times,serif" font-size="32.00">a</text>
</g>
<!-- for&#45;&gt;a -->
<g id="edge22" class="edge">
<title>for&#45;&gt;a</title>
<path fill="none" stroke="#000000" d="M2743.26,-748.02C2716.21,-668.28 2629.37,-454.54 2475.54,-454.54 2475.54,-454.54 2475.54,-454.54 1785.52,-454.54 1698.35,-454.54 1596.14,-462.91 1542.91,-467.9"/>
<polygon fill="#000000" stroke="#000000" points="1542.25,-464.45 1532.63,-468.88 1542.91,-471.42 1542.25,-464.45"/>
<text text-anchor="middle" x="2111.04" y="-498.94" font-family="Times,serif" font-size="32.00">hopeful</text>
<text text-anchor="middle" x="2111.04" y="-463.94" font-family="Times,serif" font-size="32.00">=for a</text>
</g>
<!-- 2 -->
<g id="node17" class="node">
<title>2</title>
<ellipse fill="none" stroke="black" cx="2474.54" cy="-700.54" rx="27" ry="30.31"/>
<text text-anchor="middle" x="2474.54" y="-692.44" font-family="Times,serif" font-size="32.00">2</text>
</g>
<!-- for&#45;&gt;2 -->
<g id="edge21" class="edge">
<title>for&#45;&gt;2</title>
<path fill="none" stroke="#000000" d="M2740.47,-748.62C2731.54,-731.25 2717.52,-710.62 2698.04,-700.54 2638.23,-669.59 2556.71,-680.79 2510.77,-691.09"/>
<polygon fill="#000000" stroke="#000000" points="2509.92,-687.69 2500.99,-693.39 2511.52,-694.51 2509.92,-687.69"/>
<text text-anchor="middle" x="2625.04" y="-814.94" font-family="Times,serif" font-size="32.00">hope_1 |</text>
<text text-anchor="middle" x="2625.04" y="-779.94" font-family="Times,serif" font-size="32.00"> respect_1 |</text>
<text text-anchor="middle" x="2625.04" y="-744.94" font-family="Times,serif" font-size="32.00"> disdain_1</text>
<text text-anchor="middle" x="2625.04" y="-709.94" font-family="Times,serif" font-size="32.00">=for 2</text>
</g>
<!-- of&#45;&gt;1 -->
<g id="edge23" class="edge">
<title>of&#45;&gt;1</title>
<path fill="none" stroke="#000000" d="M1755.93,-712.69C1696.94,-710.52 1560.74,-703.18 1449,-679.54 1381.52,-665.26 1305.64,-637.77 1262.95,-621.19"/>
<polygon fill="#000000" stroke="#000000" points="1264.18,-617.92 1253.6,-617.53 1261.63,-624.44 1264.18,-617.92"/>
<text text-anchor="middle" x="1505.5" y="-742.94" font-family="Times,serif" font-size="32.00">boast</text>
<text text-anchor="middle" x="1505.5" y="-707.94" font-family="Times,serif" font-size="32.00">=of 1</text>
</g>
<!-- of&#45;&gt;2 -->
<g id="edge24" class="edge">
<title>of&#45;&gt;2</title>
<path fill="none" stroke="#000000" d="M1817,-712.98C1927.39,-710.89 2316.19,-703.52 2437.27,-701.23"/>
<polygon fill="#000000" stroke="#000000" points="2437.55,-704.72 2447.48,-701.03 2437.42,-697.72 2437.55,-704.72"/>
<text text-anchor="middle" x="2111.04" y="-893.94" font-family="Times,serif" font-size="32.00">boast_1 |</text>
<text text-anchor="middle" x="2111.04" y="-858.94" font-family="Times,serif" font-size="32.00"> fear_1 |</text>
<text text-anchor="middle" x="2111.04" y="-823.94" font-family="Times,serif" font-size="32.00"> neglect_1 |</text>
<text text-anchor="middle" x="2111.04" y="-788.94" font-family="Times,serif" font-size="32.00"> scorn_1 |</text>
<text text-anchor="middle" x="2111.04" y="-753.94" font-family="Times,serif" font-size="32.00"> doubt_1</text>
<text text-anchor="middle" x="2111.04" y="-718.94" font-family="Times,serif" font-size="32.00">=of 2</text>
</g>
<!-- about&#45;&gt;1 -->
<g id="edge27" class="edge">
<title>about&#45;&gt;1</title>
<path fill="none" stroke="#000000" d="M1726.4,-591.86C1719.86,-592.51 1713.3,-593.09 1707,-593.54 1542.36,-605.36 1345.13,-607.27 1265.24,-607.53"/>
<polygon fill="#000000" stroke="#000000" points="1265.2,-604.03 1255.21,-607.55 1265.22,-611.03 1265.2,-604.03"/>
<text text-anchor="middle" x="1505.5" y="-649.94" font-family="Times,serif" font-size="32.00">boast_3</text>
<text text-anchor="middle" x="1505.5" y="-614.94" font-family="Times,serif" font-size="32.00">=about 1</text>
</g>
<!-- about&#45;&gt;a -->
<g id="edge29" class="edge">
<title>about&#45;&gt;a</title>
<path fill="none" stroke="#000000" d="M1770.17,-555.17C1756.74,-532.76 1735,-503.29 1707,-488.54 1679.37,-473.98 1592.54,-471.47 1542.68,-471.27"/>
<polygon fill="#000000" stroke="#000000" points="1542.64,-467.77 1532.63,-471.26 1542.63,-474.77 1542.64,-467.77"/>
<text text-anchor="middle" x="1643.5" y="-567.94" font-family="Times,serif" font-size="32.00">boastful |</text>
<text text-anchor="middle" x="1643.5" y="-532.94" font-family="Times,serif" font-size="32.00"> doubtful</text>
<text text-anchor="middle" x="1643.5" y="-497.94" font-family="Times,serif" font-size="32.00">=about a</text>
</g>
<!-- about&#45;&gt;2 -->
<g id="edge28" class="edge">
<title>about&#45;&gt;2</title>
<path fill="none" stroke="#000000" d="M1847.75,-580.77C1926.18,-577.16 2067.17,-575.14 2185.04,-597.54 2280.7,-615.72 2387.11,-660.59 2439.95,-684.66"/>
<polygon fill="#000000" stroke="#000000" points="2438.63,-687.91 2449.18,-688.91 2441.56,-681.55 2438.63,-687.91"/>
<text text-anchor="middle" x="2111.04" y="-676.94" font-family="Times,serif" font-size="32.00">boast_4 |</text>
<text text-anchor="middle" x="2111.04" y="-641.94" font-family="Times,serif" font-size="32.00"> doubt_3</text>
<text text-anchor="middle" x="2111.04" y="-606.94" font-family="Times,serif" font-size="32.00">=about 2</text>
</g>
<!-- 0 -->
<g id="node11" class="node">
<title>0</title>
<ellipse fill="none" stroke="black" cx="1005" cy="-607.54" rx="27" ry="30.31"/>
<text text-anchor="middle" x="1005" y="-599.44" font-family="Times,serif" font-size="32.00">0</text>
</g>
<!-- 0&#45;&gt;t -->
<g id="edge7" class="edge">
<title>0&#45;&gt;t</title>
<path fill="none" stroke="#f7931d" stroke-width="2" d="M984.78,-627.89C947.18,-665.38 859.64,-741.54 769,-741.54 769,-741.54 769,-741.54 228,-741.54 154.48,-741.54 122.07,-740.36 72,-686.54 41.55,-653.81 31.82,-602.06 28.9,-566.1"/>
<polygon fill="#f7931d" stroke="#f7931d" stroke-width="2" points="32.38,-565.69 28.22,-555.94 25.39,-566.16 32.38,-565.69"/>
<text text-anchor="middle" x="484" y="-820.94" font-family="Times,serif" font-size="32.00">s |</text>
<text text-anchor="middle" x="484" y="-785.94" font-family="Times,serif" font-size="32.00"> d</text>
<text text-anchor="middle" x="484" y="-750.94" font-family="Times,serif" font-size="32.00">=&gt;0 +k t</text>
</g>
<!-- v -->
<g id="node14" class="node">
<title>v</title>
<ellipse fill="none" stroke="black" cx="229" cy="-558.54" rx="27" ry="30.31"/>
<text text-anchor="middle" x="229" y="-550.44" font-family="Times,serif" font-size="32.00">v</text>
</g>
<!-- 0&#45;&gt;v -->
<g id="edge10" class="edge">
<title>0&#45;&gt;v</title>
<path fill="none" stroke="#f7931d" stroke-width="2" d="M978.59,-614.08C943.94,-622.64 879.77,-637.17 824,-642.54 743.15,-650.33 313.77,-655.77 274,-632.54 260.16,-624.45 250.19,-610.16 243.28,-596.27"/>
<polygon fill="#f7931d" stroke="#f7931d" stroke-width="2" points="246.3,-594.46 238.98,-586.8 239.93,-597.35 246.3,-594.46"/>
<text text-anchor="middle" x="626" y="-693.94" font-family="Times,serif" font-size="32.00">ε_1</text>
<text text-anchor="middle" x="626" y="-658.94" font-family="Times,serif" font-size="32.00">=&gt;0 v</text>
</g>
<!-- perf -->
<g id="node15" class="node">
<title>perf</title>
<ellipse fill="none" stroke="black" cx="484" cy="-558.54" rx="48.17" ry="30.31"/>
<text text-anchor="middle" x="484" y="-550.44" font-family="Times,serif" font-size="32.00">perf</text>
</g>
<!-- 0&#45;&gt;perf -->
<g id="edge11" class="edge">
<title>0&#45;&gt;perf</title>
<path fill="none" stroke="#f7931d" stroke-width="2" d="M978.56,-601.33C943.86,-593.16 879.65,-579.06 824,-572.54 725.5,-561 609.94,-558.58 542.36,-558.28"/>
<polygon fill="#f7931d" stroke="#f7931d" stroke-width="2" points="542.35,-554.78 532.34,-558.25 542.33,-561.78 542.35,-554.78"/>
<text text-anchor="middle" x="768" y="-616.94" font-family="Times,serif" font-size="32.00">n</text>
<text text-anchor="middle" x="768" y="-581.94" font-family="Times,serif" font-size="32.00">=&gt;0 perf</text>
</g>
<!-- prog -->
<g id="node16" class="node">
<title>prog</title>
<ellipse fill="none" stroke="black" cx="768" cy="-456.54" rx="52.15" ry="30.31"/>
<text text-anchor="middle" x="768" y="-448.44" font-family="Times,serif" font-size="32.00">prog</text>
</g>
<!-- 0&#45;&gt;prog -->
<g id="edge12" class="edge">
<title>0&#45;&gt;prog</title>
<path fill="none" stroke="#f7931d" stroke-width="2" d="M1003.05,-577.13C1000.31,-546.12 990.91,-499.16 960,-474.54 923.49,-445.46 869.73,-442.82 828.53,-446.39"/>
<polygon fill="#f7931d" stroke="#f7931d" stroke-width="2" points="827.95,-442.93 818.35,-447.42 828.65,-449.9 827.95,-442.93"/>
<text text-anchor="middle" x="901" y="-518.94" font-family="Times,serif" font-size="32.00">ing</text>
<text text-anchor="middle" x="901" y="-483.94" font-family="Times,serif" font-size="32.00">=&gt;0 prog</text>
</g>
<!-- 1&#45;&gt;0 -->
<g id="edge8" class="edge">
<title>1&#45;&gt;0</title>
<path fill="none" stroke="#f7931d" stroke-width="2" d="M1200.78,-607.54C1161.4,-607.54 1086.87,-607.54 1042.3,-607.54"/>
<polygon fill="#f7931d" stroke="#f7931d" stroke-width="2" points="1042.19,-604.04 1032.19,-607.54 1042.19,-611.04 1042.19,-604.04"/>
<text text-anchor="middle" x="1116.5" y="-651.94" font-family="Times,serif" font-size="32.00">ε_0</text>
<text text-anchor="middle" x="1116.5" y="-616.94" font-family="Times,serif" font-size="32.00">=&gt;1 =da 0</text>
</g>
<!-- a&#45;&gt;1 -->
<g id="edge9" class="edge">
<title>a&#45;&gt;1</title>
<path fill="none" stroke="#000000" d="M1479,-477.5C1464.87,-480.79 1446.97,-484.92 1431,-488.54 1360.85,-504.42 1330.12,-479.83 1273,-523.54 1258.03,-535 1247.64,-553.01 1240.74,-569.43"/>
<polygon fill="#000000" stroke="#000000" points="1237.44,-568.26 1237.07,-578.85 1243.96,-570.8 1237.44,-568.26"/>
<text text-anchor="middle" x="1352" y="-567.94" font-family="Times,serif" font-size="32.00">be</text>
<text text-anchor="middle" x="1352" y="-532.94" font-family="Times,serif" font-size="32.00">=a 1</text>
</g>
<!-- v&#45;&gt;t -->
<g id="edge13" class="edge">
<title>v&#45;&gt;t</title>
<path fill="none" stroke="#000000" d="M202.9,-566.34C171.17,-574.81 115.44,-584.94 72,-567.54 64.99,-564.73 58.46,-560.22 52.7,-555.16"/>
<polygon fill="#000000" stroke="#000000" points="54.96,-552.48 45.33,-548.06 50.1,-557.52 54.96,-552.48"/>
<text text-anchor="middle" x="128" y="-656.94" font-family="Times,serif" font-size="32.00">wills |</text>
<text text-anchor="middle" x="128" y="-621.94" font-family="Times,serif" font-size="32.00"> willd</text>
<text text-anchor="middle" x="128" y="-586.94" font-family="Times,serif" font-size="32.00">=v +k t</text>
</g>
<!-- v&#45;&gt;t -->
<g id="edge14" class="edge">
<title>v&#45;&gt;t</title>
<path fill="none" stroke="#000000" d="M223.67,-528.35C218.54,-504.91 207.51,-473.88 184,-458.54 142.31,-431.34 115.81,-434.9 72,-458.54 59.7,-465.17 50.28,-476.91 43.38,-488.73"/>
<polygon fill="#000000" stroke="#000000" points="40.21,-487.23 38.58,-497.7 46.38,-490.53 40.21,-487.23"/>
<text text-anchor="middle" x="128" y="-537.94" font-family="Times,serif" font-size="32.00">s_1 |</text>
<text text-anchor="middle" x="128" y="-502.94" font-family="Times,serif" font-size="32.00"> d_1</text>
<text text-anchor="middle" x="128" y="-467.94" font-family="Times,serif" font-size="32.00">=&gt;v +k t</text>
</g>
<!-- perf&#45;&gt;v -->
<g id="edge15" class="edge">
<title>perf&#45;&gt;v</title>
<path fill="none" stroke="#000000" d="M435.71,-558.54C386.59,-558.54 310.8,-558.54 266.23,-558.54"/>
<polygon fill="#000000" stroke="#000000" points="266.14,-555.04 256.14,-558.54 266.14,-562.04 266.14,-555.04"/>
<text text-anchor="middle" x="342" y="-602.94" font-family="Times,serif" font-size="32.00">have</text>
<text text-anchor="middle" x="342" y="-567.94" font-family="Times,serif" font-size="32.00">=perf v</text>
</g>
<!-- prog&#45;&gt;t -->
<g id="edge16" class="edge">
<title>prog&#45;&gt;t</title>
<path fill="none" stroke="#000000" d="M728.4,-436.5C645.4,-395.92 443.7,-310.81 274,-346.54 178,-366.75 142.73,-367.56 72,-435.54 57.29,-449.67 46.83,-469.75 39.8,-487.35"/>
<polygon fill="#000000" stroke="#000000" points="36.48,-486.23 36.25,-496.82 43.04,-488.69 36.48,-486.23"/>
<text text-anchor="middle" x="342" y="-425.94" font-family="Times,serif" font-size="32.00">bes |</text>
<text text-anchor="middle" x="342" y="-390.94" font-family="Times,serif" font-size="32.00"> bed</text>
<text text-anchor="middle" x="342" y="-355.94" font-family="Times,serif" font-size="32.00">=prog +k t</text>
</g>
<!-- prog&#45;&gt;v -->
<g id="edge17" class="edge">
<title>prog&#45;&gt;v</title>
<path fill="none" stroke="#000000" d="M718.06,-447.4C651.29,-436.76 528.49,-423.71 428,-449.54 363.26,-466.18 297.01,-508.94 259.92,-535.69"/>
<polygon fill="#000000" stroke="#000000" points="257.59,-533.06 251.58,-541.79 261.72,-538.71 257.59,-533.06"/>
<text text-anchor="middle" x="484" y="-493.94" font-family="Times,serif" font-size="32.00">be_1</text>
<text text-anchor="middle" x="484" y="-458.94" font-family="Times,serif" font-size="32.00">=prog v</text>
</g>
<!-- prog&#45;&gt;perf -->
<g id="edge18" class="edge">
<title>prog&#45;&gt;perf</title>
<path fill="none" stroke="#000000" d="M715.35,-455.15C661.76,-454.72 582.43,-457.21 558,-474.54 542.1,-485.82 551.94,-499.13 540,-514.54 535.77,-519.99 530.73,-525.18 525.45,-529.96"/>
<polygon fill="#000000" stroke="#000000" points="522.95,-527.49 517.6,-536.64 527.48,-532.82 522.95,-527.49"/>
<text text-anchor="middle" x="626" y="-518.94" font-family="Times,serif" font-size="32.00">ben</text>
<text text-anchor="middle" x="626" y="-483.94" font-family="Times,serif" font-size="32.00">=prog perf</text>
</g>
<!-- 2&#45;&gt;d -->
<g id="edge20" class="edge">
<title>2&#45;&gt;d</title>
<path fill="none" stroke="#000000" d="M2447.56,-705.54C2383.03,-718.21 2219.44,-751.86 2203.04,-770.54 2160.19,-819.34 2220.4,-861.08 2185.04,-915.54 2175.91,-929.59 2160.58,-939.82 2146.32,-946.86"/>
<polygon fill="#000000" stroke="#000000" points="2144.82,-943.69 2137.18,-951.03 2147.73,-950.06 2144.82,-943.69"/>
<text text-anchor="middle" x="2300.04" y="-814.94" font-family="Times,serif" font-size="32.00">ε_2</text>
<text text-anchor="middle" x="2300.04" y="-779.94" font-family="Times,serif" font-size="32.00">=&gt;2 poss= d &#45;k</text>
</g>
<!-- 3 -->
<g id="node18" class="node">
<title>3</title>
<ellipse fill="none" stroke="black" cx="1786.52" cy="-268.54" rx="27" ry="30.31"/>
<text text-anchor="middle" x="1786.52" y="-260.44" font-family="Times,serif" font-size="32.00">3</text>
</g>
<!-- 3&#45;&gt;a -->
<g id="edge25" class="edge">
<title>3&#45;&gt;a</title>
<path fill="none" stroke="#000000" d="M1768.91,-291.75C1754.62,-309.9 1732.33,-334.23 1707,-347.54 1656.22,-374.22 1628.59,-340.05 1580,-370.54 1555.14,-386.14 1536.02,-413.48 1523.52,-435.78"/>
<polygon fill="#000000" stroke="#000000" points="1520.39,-434.2 1518.73,-444.67 1526.56,-437.52 1520.39,-434.2"/>
<text text-anchor="middle" x="1643.5" y="-414.94" font-family="Times,serif" font-size="32.00">ful</text>
<text text-anchor="middle" x="1643.5" y="-379.94" font-family="Times,serif" font-size="32.00">=&gt;3 =of a</text>
</g>
<!-- z3 -->
<g id="node19" class="node">
<title>z3</title>
<ellipse fill="none" stroke="black" stroke-dasharray="5,2" cx="2111.04" cy="-159.54" rx="27" ry="18"/>
</g>
<!-- z3&#45;&gt;3 -->
<g id="edge26" class="edge">
<title>z3&#45;&gt;3</title>
<path fill="none" stroke="#000000" d="M2085.84,-152.83C2040.01,-141.54 1938.62,-123.38 1866.04,-160.54 1836.94,-175.43 1816.08,-206.68 1803.21,-231.75"/>
<polygon fill="#000000" stroke="#000000" points="1799.93,-230.49 1798.66,-241.01 1806.21,-233.57 1799.93,-230.49"/>
<text text-anchor="middle" x="1942.54" y="-414.94" font-family="Times,serif" font-size="32.00">boast_2 |</text>
<text text-anchor="middle" x="1942.54" y="-379.94" font-family="Times,serif" font-size="32.00"> fear_2 |</text>
<text text-anchor="middle" x="1942.54" y="-344.94" font-family="Times,serif" font-size="32.00"> neglect_2 |</text>
<text text-anchor="middle" x="1942.54" y="-309.94" font-family="Times,serif" font-size="32.00"> scorn_2 |</text>
<text text-anchor="middle" x="1942.54" y="-274.94" font-family="Times,serif" font-size="32.00"> respect_2 |</text>
<text text-anchor="middle" x="1942.54" y="-239.94" font-family="Times,serif" font-size="32.00"> disdain_2 |</text>
<text text-anchor="middle" x="1942.54" y="-204.94" font-family="Times,serif" font-size="32.00"> doubt_2</text>
<text text-anchor="middle" x="1942.54" y="-169.94" font-family="Times,serif" font-size="32.00">3</text>
</g>
<!-- 4 -->
<g id="node20" class="node">
<title>4</title>
<ellipse fill="none" stroke="black" cx="1505.5" cy="-239.54" rx="27" ry="30.31"/>
<text text-anchor="middle" x="1505.5" y="-231.44" font-family="Times,serif" font-size="32.00">4</text>
</g>
<!-- 4&#45;&gt;1 -->
<g id="edge30" class="edge">
<title>4&#45;&gt;1</title>
<path fill="none" stroke="#000000" d="M1480.05,-250.74C1432.19,-273.98 1326.2,-332.24 1273,-414.54 1242.9,-461.1 1233.27,-525.63 1230.25,-566.98"/>
<polygon fill="#000000" stroke="#000000" points="1226.76,-566.77 1229.62,-576.97 1233.75,-567.21 1226.76,-566.77"/>
<text text-anchor="middle" x="1352" y="-458.94" font-family="Times,serif" font-size="32.00">ε_3</text>
<text text-anchor="middle" x="1352" y="-423.94" font-family="Times,serif" font-size="32.00">=&gt;4 =d *k 1</text>
</g>
<!-- z4 -->
<g id="node21" class="node">
<title>z4</title>
<ellipse fill="none" stroke="black" stroke-dasharray="5,2" cx="1786.52" cy="-101.54" rx="27" ry="18"/>
</g>
<!-- z4&#45;&gt;4 -->
<g id="edge31" class="edge">
<title>z4&#45;&gt;4</title>
<path fill="none" stroke="#000000" d="M1761.56,-94.31C1720.93,-83.55 1637.33,-68.05 1580,-102.54 1544.89,-123.66 1525.58,-167.9 1515.67,-200.42"/>
<polygon fill="#000000" stroke="#000000" points="1512.29,-199.52 1512.89,-210.1 1519.01,-201.45 1512.29,-199.52"/>
<text text-anchor="middle" x="1643.5" y="-321.94" font-family="Times,serif" font-size="32.00">fear |</text>
<text text-anchor="middle" x="1643.5" y="-286.94" font-family="Times,serif" font-size="32.00"> neglect |</text>
<text text-anchor="middle" x="1643.5" y="-251.94" font-family="Times,serif" font-size="32.00"> scorn |</text>
<text text-anchor="middle" x="1643.5" y="-216.94" font-family="Times,serif" font-size="32.00"> respect |</text>
<text text-anchor="middle" x="1643.5" y="-181.94" font-family="Times,serif" font-size="32.00"> disdain |</text>
<text text-anchor="middle" x="1643.5" y="-146.94" font-family="Times,serif" font-size="32.00"> doubt</text>
<text text-anchor="middle" x="1643.5" y="-111.94" font-family="Times,serif" font-size="32.00">4</text>
</g>
</g>
</svg>
