<?xml version="1.0" encoding="UTF-8" standalone="no"?>
<!DOCTYPE svg PUBLIC "-//W3C//DTD SVG 1.1//EN"
 "http://www.w3.org/Graphics/SVG/1.1/DTD/svg11.dtd">
<!-- Generated by graphviz version 2.47.1 (20210417.1919)
 -->
<!-- Title: G Pages: 1 -->
<svg width="2923pt" height="1344pt"
 viewBox="0.00 0.00 2922.99 1343.54" xmlns="http://www.w3.org/2000/svg" xmlns:xlink="http://www.w3.org/1999/xlink">
<g id="graph0" class="graph" transform="scale(1 1) rotate(0) translate(4 1339.54)">
<title>G</title>
<polygon fill="white" stroke="transparent" points="-4,4 -4,-1339.54 2918.99,-1339.54 2918.99,4 -4,4"/>
<text text-anchor="middle" x="1457.49" y="-13.4" font-family="Times,serif" font-size="32.00">replacement: =&gt;1 0 with =&gt;1 v, =&gt;v 0; =&gt;1 3 with =&gt;1 v, =&gt;v 3</text>
<!-- t -->
<g id="node1" class="node">
<title>t</title>
<ellipse fill="lightgray" stroke="black" cx="27" cy="-345.54" rx="27" ry="30.31"/>
<text text-anchor="middle" x="27" y="-337.44" font-family="Times,serif" font-size="32.00">t</text>
</g>
<!-- z0 -->
<g id="node2" class="node">
<title>z0</title>
<ellipse fill="none" stroke="black" stroke-dasharray="5,2" cx="2877.51" cy="-1102.54" rx="27" ry="18"/>
</g>
<!-- da -->
<g id="node3" class="node">
<title>da</title>
<ellipse fill="none" stroke="black" cx="2598.54" cy="-1102.54" rx="33.47" ry="30.31"/>
<text text-anchor="middle" x="2598.54" y="-1094.44" font-family="Times,serif" font-size="32.00">da</text>
</g>
<!-- z0&#45;&gt;da -->
<g id="edge1" class="edge">
<title>z0&#45;&gt;da</title>
<path fill="none" stroke="#000000" d="M2850.46,-1102.54C2802.66,-1102.54 2700.56,-1102.54 2642.41,-1102.54"/>
<polygon fill="#000000" stroke="#000000" points="2642.08,-1099.04 2632.08,-1102.54 2642.08,-1106.04 2642.08,-1099.04"/>
<text text-anchor="middle" x="2749.04" y="-1181.94" font-family="Times,serif" font-size="32.00">Mary |</text>
<text text-anchor="middle" x="2749.04" y="-1146.94" font-family="Times,serif" font-size="32.00"> John</text>
<text text-anchor="middle" x="2749.04" y="-1111.94" font-family="Times,serif" font-size="32.00">da &#45;k</text>
</g>
<!-- z1 -->
<g id="node4" class="node">
<title>z1</title>
<ellipse fill="none" stroke="black" stroke-dasharray="5,2" cx="2877.51" cy="-1230.54" rx="27" ry="18"/>
</g>
<!-- poss -->
<g id="node5" class="node">
<title>poss</title>
<ellipse fill="none" stroke="black" cx="2598.54" cy="-1230.54" rx="52.15" ry="30.31"/>
<text text-anchor="middle" x="2598.54" y="-1222.44" font-family="Times,serif" font-size="32.00">poss</text>
</g>
<!-- z1&#45;&gt;poss -->
<g id="edge2" class="edge">
<title>z1&#45;&gt;poss</title>
<path fill="none" stroke="#000000" d="M2850.46,-1230.54C2807.43,-1230.54 2720.38,-1230.54 2661.02,-1230.54"/>
<polygon fill="#000000" stroke="#000000" points="2661.01,-1227.04 2651.01,-1230.54 2661.01,-1234.04 2661.01,-1227.04"/>
<text text-anchor="middle" x="2749.04" y="-1309.94" font-family="Times,serif" font-size="32.00">Mary&#39;s |</text>
<text text-anchor="middle" x="2749.04" y="-1274.94" font-family="Times,serif" font-size="32.00"> John&#39;s</text>
<text text-anchor="middle" x="2749.04" y="-1239.94" font-family="Times,serif" font-size="32.00">poss</text>
</g>
<!-- z2 -->
<g id="node6" class="node">
<title>z2</title>
<ellipse fill="none" stroke="black" stroke-dasharray="5,2" cx="2598.54" cy="-960.54" rx="27" ry="18"/>
</g>
<!-- d -->
<g id="node7" class="node">
<title>d</title>
<ellipse fill="none" stroke="black" cx="2235.04" cy="-959.54" rx="27" ry="30.31"/>
<text text-anchor="middle" x="2235.04" y="-951.44" font-family="Times,serif" font-size="32.00">d</text>
</g>
<!-- z2&#45;&gt;d -->
<g id="edge3" class="edge">
<title>z2&#45;&gt;d</title>
<path fill="none" stroke="#000000" d="M2571.25,-960.47C2507.6,-960.29 2345.12,-959.84 2272.3,-959.64"/>
<polygon fill="#000000" stroke="#000000" points="2272.24,-956.14 2262.23,-959.61 2272.22,-963.14 2272.24,-956.14"/>
<text text-anchor="middle" x="2424.04" y="-1004.94" font-family="Times,serif" font-size="32.00">the&#45;cause</text>
<text text-anchor="middle" x="2424.04" y="-969.94" font-family="Times,serif" font-size="32.00">d &#45;k</text>
</g>
<!-- for -->
<g id="node8" class="node">
<title>for</title>
<ellipse fill="none" stroke="black" cx="2877.51" cy="-777.54" rx="37.45" ry="30.31"/>
<text text-anchor="middle" x="2877.51" y="-769.44" font-family="Times,serif" font-size="32.00">for</text>
</g>
<!-- d&#45;&gt;for -->
<g id="edge4" class="edge">
<title>d&#45;&gt;for</title>
<path fill="none" stroke="#000000" d="M2260.68,-949.63C2311.68,-929.58 2432.91,-884.39 2539.04,-863.54 2662.86,-839.22 2709.5,-897.63 2822.04,-840.54 2834.57,-834.18 2845.44,-823.56 2854.11,-812.84"/>
<polygon fill="#000000" stroke="#000000" points="2857.04,-814.77 2860.29,-804.69 2851.46,-810.54 2857.04,-814.77"/>
<text text-anchor="middle" x="2598.54" y="-907.94" font-family="Times,serif" font-size="32.00">for</text>
<text text-anchor="middle" x="2598.54" y="-872.94" font-family="Times,serif" font-size="32.00">=d *k for</text>
</g>
<!-- of -->
<g id="node9" class="node">
<title>of</title>
<ellipse fill="none" stroke="black" cx="1910.52" cy="-713.54" rx="30.31" ry="30.31"/>
<text text-anchor="middle" x="1910.52" y="-705.44" font-family="Times,serif" font-size="32.00">of</text>
</g>
<!-- d&#45;&gt;of -->
<g id="edge5" class="edge">
<title>d&#45;&gt;of</title>
<path fill="none" stroke="#000000" d="M2210.5,-946.46C2195.94,-938.1 2177.03,-926.75 2161.04,-915.54 2078.16,-857.43 1987.31,-780.12 1941.5,-740.09"/>
<polygon fill="#000000" stroke="#000000" points="1943.57,-737.25 1933.74,-733.29 1938.96,-742.51 1943.57,-737.25"/>
<text text-anchor="middle" x="2066.54" y="-944.94" font-family="Times,serif" font-size="32.00">of</text>
<text text-anchor="middle" x="2066.54" y="-909.94" font-family="Times,serif" font-size="32.00">=d *k of</text>
</g>
<!-- about -->
<g id="node10" class="node">
<title>about</title>
<ellipse fill="none" stroke="black" cx="1910.52" cy="-598.54" rx="61.54" ry="30.31"/>
<text text-anchor="middle" x="1910.52" y="-590.44" font-family="Times,serif" font-size="32.00">about</text>
</g>
<!-- d&#45;&gt;about -->
<g id="edge6" class="edge">
<title>d&#45;&gt;about</title>
<path fill="none" stroke="#000000" d="M2208.7,-951.15C2192.22,-944.3 2171.85,-932.86 2161.04,-915.54 2112.61,-837.95 2194.97,-785.82 2143.04,-710.54 2104.96,-655.35 2031.91,-626.37 1978,-611.84"/>
<polygon fill="#000000" stroke="#000000" points="1978.73,-608.42 1968.17,-609.3 1976.97,-615.19 1978.73,-608.42"/>
<text text-anchor="middle" x="2066.54" y="-754.94" font-family="Times,serif" font-size="32.00">about</text>
<text text-anchor="middle" x="2066.54" y="-719.94" font-family="Times,serif" font-size="32.00">=d *k about</text>
</g>
<!-- 1 -->
<g id="node12" class="node">
<title>1</title>
<ellipse fill="none" stroke="black" cx="1352" cy="-607.54" rx="27" ry="30.31"/>
<text text-anchor="middle" x="1352" y="-599.44" font-family="Times,serif" font-size="32.00">1</text>
</g>
<!-- for&#45;&gt;1 -->
<g id="edge23" class="edge">
<title>for&#45;&gt;1</title>
<path fill="none" stroke="#000000" d="M2863.86,-805.86C2831,-874.58 2735.96,-1044.54 2599.54,-1044.54 2599.54,-1044.54 2599.54,-1044.54 1628.5,-1044.54 1441.89,-1044.54 1376.63,-755.85 1358.73,-647.76"/>
<polygon fill="#000000" stroke="#000000" points="1362.14,-646.9 1357.1,-637.58 1355.23,-648 1362.14,-646.9"/>
<text text-anchor="middle" x="2066.54" y="-1088.94" font-family="Times,serif" font-size="32.00">hope</text>
<text text-anchor="middle" x="2066.54" y="-1053.94" font-family="Times,serif" font-size="32.00">=for 1</text>
</g>
<!-- a -->
<g id="node14" class="node">
<title>a</title>
<ellipse fill="none" stroke="black" cx="1629.5" cy="-471.54" rx="27" ry="30.31"/>
<text text-anchor="middle" x="1629.5" y="-463.44" font-family="Times,serif" font-size="32.00">a</text>
</g>
<!-- for&#45;&gt;a -->
<g id="edge26" class="edge">
<title>for&#45;&gt;a</title>
<path fill="none" stroke="#000000" d="M2867.26,-748.02C2840.21,-668.28 2753.37,-454.54 2599.54,-454.54 2599.54,-454.54 2599.54,-454.54 1909.52,-454.54 1822.35,-454.54 1720.14,-462.91 1666.91,-467.9"/>
<polygon fill="#000000" stroke="#000000" points="1666.25,-464.45 1656.63,-468.88 1666.91,-471.42 1666.25,-464.45"/>
<text text-anchor="middle" x="2235.04" y="-498.94" font-family="Times,serif" font-size="32.00">hopeful</text>
<text text-anchor="middle" x="2235.04" y="-463.94" font-family="Times,serif" font-size="32.00">=for a</text>
</g>
<!-- 4 -->
<g id="node19" class="node">
<title>4</title>
<ellipse fill="none" stroke="black" cx="2598.54" cy="-700.54" rx="27" ry="30.31"/>
<text text-anchor="middle" x="2598.54" y="-692.44" font-family="Times,serif" font-size="32.00">4</text>
</g>
<!-- for&#45;&gt;4 -->
<g id="edge25" class="edge">
<title>for&#45;&gt;4</title>
<path fill="none" stroke="#000000" d="M2864.47,-748.62C2855.54,-731.25 2841.52,-710.62 2822.04,-700.54 2762.23,-669.59 2680.71,-680.79 2634.77,-691.09"/>
<polygon fill="#000000" stroke="#000000" points="2633.92,-687.69 2624.99,-693.39 2635.52,-694.51 2633.92,-687.69"/>
<text text-anchor="middle" x="2749.04" y="-814.94" font-family="Times,serif" font-size="32.00">hope_1 |</text>
<text text-anchor="middle" x="2749.04" y="-779.94" font-family="Times,serif" font-size="32.00"> respect_1 |</text>
<text text-anchor="middle" x="2749.04" y="-744.94" font-family="Times,serif" font-size="32.00"> disdain_1</text>
<text text-anchor="middle" x="2749.04" y="-709.94" font-family="Times,serif" font-size="32.00">=for 4</text>
</g>
<!-- of&#45;&gt;1 -->
<g id="edge27" class="edge">
<title>of&#45;&gt;1</title>
<path fill="none" stroke="#000000" d="M1879.94,-712.53C1820.96,-710.07 1684.79,-702.12 1573,-678.54 1505.6,-664.32 1429.69,-637.25 1386.97,-620.96"/>
<polygon fill="#000000" stroke="#000000" points="1388.21,-617.68 1377.62,-617.36 1385.69,-624.22 1388.21,-617.68"/>
<text text-anchor="middle" x="1629.5" y="-741.94" font-family="Times,serif" font-size="32.00">boast</text>
<text text-anchor="middle" x="1629.5" y="-706.94" font-family="Times,serif" font-size="32.00">=of 1</text>
</g>
<!-- of&#45;&gt;4 -->
<g id="edge28" class="edge">
<title>of&#45;&gt;4</title>
<path fill="none" stroke="#000000" d="M1941,-712.98C2051.39,-710.89 2440.19,-703.52 2561.27,-701.23"/>
<polygon fill="#000000" stroke="#000000" points="2561.55,-704.72 2571.48,-701.03 2561.42,-697.72 2561.55,-704.72"/>
<text text-anchor="middle" x="2235.04" y="-893.94" font-family="Times,serif" font-size="32.00">boast_1 |</text>
<text text-anchor="middle" x="2235.04" y="-858.94" font-family="Times,serif" font-size="32.00"> fear_1 |</text>
<text text-anchor="middle" x="2235.04" y="-823.94" font-family="Times,serif" font-size="32.00"> neglect_1 |</text>
<text text-anchor="middle" x="2235.04" y="-788.94" font-family="Times,serif" font-size="32.00"> scorn_1 |</text>
<text text-anchor="middle" x="2235.04" y="-753.94" font-family="Times,serif" font-size="32.00"> doubt_1</text>
<text text-anchor="middle" x="2235.04" y="-718.94" font-family="Times,serif" font-size="32.00">=of 4</text>
</g>
<!-- about&#45;&gt;1 -->
<g id="edge31" class="edge">
<title>about&#45;&gt;1</title>
<path fill="none" stroke="#000000" d="M1848.9,-599.52C1732.94,-601.39 1482.9,-605.44 1389.33,-606.95"/>
<polygon fill="#000000" stroke="#000000" points="1389.16,-603.45 1379.22,-607.12 1389.28,-610.45 1389.16,-603.45"/>
<text text-anchor="middle" x="1629.5" y="-648.94" font-family="Times,serif" font-size="32.00">boast_3</text>
<text text-anchor="middle" x="1629.5" y="-613.94" font-family="Times,serif" font-size="32.00">=about 1</text>
</g>
<!-- about&#45;&gt;a -->
<g id="edge33" class="edge">
<title>about&#45;&gt;a</title>
<path fill="none" stroke="#000000" d="M1897.13,-568.84C1884.58,-542.83 1862.5,-506.48 1831,-488.54 1803.86,-473.08 1716.84,-470.92 1666.81,-471.03"/>
<polygon fill="#000000" stroke="#000000" points="1666.72,-467.53 1656.73,-471.08 1666.75,-474.53 1666.72,-467.53"/>
<text text-anchor="middle" x="1767.5" y="-567.94" font-family="Times,serif" font-size="32.00">boastful |</text>
<text text-anchor="middle" x="1767.5" y="-532.94" font-family="Times,serif" font-size="32.00"> doubtful</text>
<text text-anchor="middle" x="1767.5" y="-497.94" font-family="Times,serif" font-size="32.00">=about a</text>
</g>
<!-- about&#45;&gt;4 -->
<g id="edge32" class="edge">
<title>about&#45;&gt;4</title>
<path fill="none" stroke="#000000" d="M1970.65,-592.05C2048.78,-584.92 2190.37,-576.99 2309.04,-597.54 2405.24,-614.2 2511.82,-659.93 2564.43,-684.47"/>
<polygon fill="#000000" stroke="#000000" points="2563.07,-687.7 2573.61,-688.8 2566.05,-681.37 2563.07,-687.7"/>
<text text-anchor="middle" x="2235.04" y="-676.94" font-family="Times,serif" font-size="32.00">boast_4 |</text>
<text text-anchor="middle" x="2235.04" y="-641.94" font-family="Times,serif" font-size="32.00"> doubt_3</text>
<text text-anchor="middle" x="2235.04" y="-606.94" font-family="Times,serif" font-size="32.00">=about 4</text>
</g>
<!-- 0 -->
<g id="node11" class="node">
<title>0</title>
<ellipse fill="none" stroke="black" cx="229" cy="-440.54" rx="27" ry="30.31"/>
<text text-anchor="middle" x="229" y="-432.44" font-family="Times,serif" font-size="32.00">0</text>
</g>
<!-- 0&#45;&gt;t -->
<g id="edge7" class="edge">
<title>0&#45;&gt;t</title>
<path fill="none" stroke="#000000" d="M202.03,-436.5C169.64,-430.57 113.47,-417.31 72,-391.54 65,-387.19 58.35,-381.48 52.44,-375.56"/>
<polygon fill="#000000" stroke="#000000" points="54.77,-372.93 45.37,-368.04 49.67,-377.73 54.77,-372.93"/>
<text text-anchor="middle" x="128" y="-476.94" font-family="Times,serif" font-size="32.00">s</text>
<text text-anchor="middle" x="128" y="-441.94" font-family="Times,serif" font-size="32.00">=&gt;0 +k t</text>
</g>
<!-- 2 -->
<g id="node13" class="node">
<title>2</title>
<ellipse fill="none" stroke="black" cx="1129" cy="-607.54" rx="27" ry="30.31"/>
<text text-anchor="middle" x="1129" y="-599.44" font-family="Times,serif" font-size="32.00">2</text>
</g>
<!-- 1&#45;&gt;2 -->
<g id="edge8" class="edge">
<title>1&#45;&gt;2</title>
<path fill="none" stroke="#000000" d="M1324.78,-607.54C1285.4,-607.54 1210.87,-607.54 1166.3,-607.54"/>
<polygon fill="#000000" stroke="#000000" points="1166.19,-604.04 1156.19,-607.54 1166.19,-611.04 1166.19,-604.04"/>
<text text-anchor="middle" x="1240.5" y="-651.94" font-family="Times,serif" font-size="32.00">ε_0</text>
<text text-anchor="middle" x="1240.5" y="-616.94" font-family="Times,serif" font-size="32.00">=&gt;1 =da 2</text>
</g>
<!-- v -->
<g id="node16" class="node">
<title>v</title>
<ellipse fill="none" stroke="black" cx="401" cy="-509.54" rx="27" ry="30.31"/>
<text text-anchor="middle" x="401" y="-501.44" font-family="Times,serif" font-size="32.00">v</text>
</g>
<!-- 2&#45;&gt;v -->
<g id="edge11" class="edge">
<title>2&#45;&gt;v</title>
<path fill="none" stroke="#000000" d="M1104.48,-620.72C1070.98,-638.66 1007,-669.88 948,-681.54 806.6,-709.47 511.48,-702.83 446,-650.54 416.07,-626.64 406.09,-582.65 402.96,-550.13"/>
<polygon fill="#000000" stroke="#000000" points="406.44,-549.71 402.17,-540.02 399.46,-550.26 406.44,-549.71"/>
<text text-anchor="middle" x="750" y="-742.94" font-family="Times,serif" font-size="32.00">ε_1</text>
<text text-anchor="middle" x="750" y="-707.94" font-family="Times,serif" font-size="32.00">=&gt;2 v</text>
</g>
<!-- perf -->
<g id="node17" class="node">
<title>perf</title>
<ellipse fill="none" stroke="black" cx="614" cy="-607.54" rx="48.17" ry="30.31"/>
<text text-anchor="middle" x="614" y="-599.44" font-family="Times,serif" font-size="32.00">perf</text>
</g>
<!-- 2&#45;&gt;perf -->
<g id="edge12" class="edge">
<title>2&#45;&gt;perf</title>
<path fill="none" stroke="#000000" d="M1101.85,-607.54C1022.54,-607.54 783.31,-607.54 672.5,-607.54"/>
<polygon fill="#000000" stroke="#000000" points="672.18,-604.04 662.18,-607.54 672.18,-611.04 672.18,-604.04"/>
<text text-anchor="middle" x="892" y="-651.94" font-family="Times,serif" font-size="32.00">n</text>
<text text-anchor="middle" x="892" y="-616.94" font-family="Times,serif" font-size="32.00">=&gt;2 perf</text>
</g>
<!-- prog -->
<g id="node18" class="node">
<title>prog</title>
<ellipse fill="none" stroke="black" cx="892" cy="-489.54" rx="52.15" ry="30.31"/>
<text text-anchor="middle" x="892" y="-481.44" font-family="Times,serif" font-size="32.00">prog</text>
</g>
<!-- 2&#45;&gt;prog -->
<g id="edge13" class="edge">
<title>2&#45;&gt;prog</title>
<path fill="none" stroke="#000000" d="M1120.11,-578.6C1113.52,-559.99 1102.19,-536.87 1084,-523.54 1046.88,-496.35 994.99,-488.5 954.66,-487.09"/>
<polygon fill="#000000" stroke="#000000" points="954.49,-483.58 944.41,-486.85 954.33,-490.58 954.49,-483.58"/>
<text text-anchor="middle" x="1025" y="-567.94" font-family="Times,serif" font-size="32.00">ing</text>
<text text-anchor="middle" x="1025" y="-532.94" font-family="Times,serif" font-size="32.00">=&gt;2 prog</text>
</g>
<!-- a&#45;&gt;1 -->
<g id="edge9" class="edge">
<title>a&#45;&gt;1</title>
<path fill="none" stroke="#000000" d="M1603,-477.5C1588.87,-480.79 1570.97,-484.92 1555,-488.54 1484.85,-504.42 1454.12,-479.83 1397,-523.54 1382.03,-535 1371.64,-553.01 1364.74,-569.43"/>
<polygon fill="#000000" stroke="#000000" points="1361.44,-568.26 1361.07,-578.85 1367.96,-570.8 1361.44,-568.26"/>
<text text-anchor="middle" x="1476" y="-567.94" font-family="Times,serif" font-size="32.00">be</text>
<text text-anchor="middle" x="1476" y="-532.94" font-family="Times,serif" font-size="32.00">=a 1</text>
</g>
<!-- 3 -->
<g id="node15" class="node">
<title>3</title>
<ellipse fill="none" stroke="black" cx="229" cy="-257.54" rx="27" ry="30.31"/>
<text text-anchor="middle" x="229" y="-249.44" font-family="Times,serif" font-size="32.00">3</text>
</g>
<!-- 3&#45;&gt;t -->
<g id="edge10" class="edge">
<title>3&#45;&gt;t</title>
<path fill="none" stroke="#000000" d="M203.05,-266.8C171.94,-278.57 117.33,-299.96 72,-321.54 68.2,-323.35 64.26,-325.33 60.38,-327.36"/>
<polygon fill="#000000" stroke="#000000" points="58.67,-324.3 51.5,-332.1 61.97,-330.48 58.67,-324.3"/>
<text text-anchor="middle" x="128" y="-365.94" font-family="Times,serif" font-size="32.00">d</text>
<text text-anchor="middle" x="128" y="-330.94" font-family="Times,serif" font-size="32.00">=&gt;3 +k t</text>
</g>
<!-- v&#45;&gt;0 -->
<g id="edge14" class="edge">
<title>v&#45;&gt;0</title>
<path fill="none" stroke="#000000" d="M376.3,-521.87C349.47,-533.96 305.43,-547.96 274,-528.54 256.63,-517.81 245.89,-497.91 239.38,-479.75"/>
<polygon fill="#000000" stroke="#000000" points="242.69,-478.62 236.26,-470.19 236.03,-480.79 242.69,-478.62"/>
<text text-anchor="middle" x="315" y="-582.94" font-family="Times,serif" font-size="32.00">will</text>
<text text-anchor="middle" x="315" y="-547.94" font-family="Times,serif" font-size="32.00">=v 0</text>
</g>
<!-- v&#45;&gt;0 -->
<g id="edge16" class="edge">
<title>v&#45;&gt;0</title>
<path fill="none" stroke="#000000" d="M385.87,-484.04C378.45,-473.11 368.32,-461.32 356,-454.54 328.72,-439.52 293.1,-436.82 266.7,-437.42"/>
<polygon fill="#000000" stroke="#000000" points="266.21,-433.94 256.35,-437.83 266.48,-440.93 266.21,-433.94"/>
<text text-anchor="middle" x="315" y="-498.94" font-family="Times,serif" font-size="32.00">ε_2</text>
<text text-anchor="middle" x="315" y="-463.94" font-family="Times,serif" font-size="32.00">=&gt;v 0</text>
</g>
<!-- v&#45;&gt;3 -->
<g id="edge15" class="edge">
<title>v&#45;&gt;3</title>
<path fill="none" stroke="#000000" d="M397.53,-479.35C393.52,-447.49 383.09,-397.3 356,-363.54 329.85,-330.95 305.29,-345.24 274,-317.54 265.34,-309.87 257.35,-300.22 250.62,-290.92"/>
<polygon fill="#000000" stroke="#000000" points="253.39,-288.76 244.82,-282.54 247.64,-292.75 253.39,-288.76"/>
<text text-anchor="middle" x="315" y="-407.94" font-family="Times,serif" font-size="32.00">will_1</text>
<text text-anchor="middle" x="315" y="-372.94" font-family="Times,serif" font-size="32.00">=v 3</text>
</g>
<!-- v&#45;&gt;3 -->
<g id="edge18" class="edge">
<title>v&#45;&gt;3</title>
<path fill="none" stroke="#000000" d="M399.68,-478.9C398.3,-415.52 391.25,-273.44 356,-243.54 330.62,-222.02 291.28,-230.8 263.31,-241.59"/>
<polygon fill="#000000" stroke="#000000" points="261.85,-238.41 253.94,-245.45 264.52,-244.88 261.85,-238.41"/>
<text text-anchor="middle" x="315" y="-287.94" font-family="Times,serif" font-size="32.00">ε_3</text>
<text text-anchor="middle" x="315" y="-252.94" font-family="Times,serif" font-size="32.00">=&gt;v 3</text>
</g>
<!-- perf&#45;&gt;v -->
<g id="edge17" class="edge">
<title>perf&#45;&gt;v</title>
<path fill="none" stroke="#000000" d="M574.79,-589.79C534.94,-571.28 473.1,-542.56 435.22,-524.97"/>
<polygon fill="#000000" stroke="#000000" points="436.67,-521.78 426.13,-520.75 433.73,-528.13 436.67,-521.78"/>
<text text-anchor="middle" x="496" y="-620.94" font-family="Times,serif" font-size="32.00">have</text>
<text text-anchor="middle" x="496" y="-585.94" font-family="Times,serif" font-size="32.00">=perf v</text>
</g>
<!-- prog&#45;&gt;0 -->
<g id="edge19" class="edge">
<title>prog&#45;&gt;0</title>
<path fill="none" stroke="#000000" d="M843.38,-478.02C777.17,-462.65 653.33,-436.26 546,-426.54 501.74,-422.53 490.42,-425.1 446,-426.54 382.81,-428.58 309.38,-433.99 266.47,-437.45"/>
<polygon fill="#000000" stroke="#000000" points="265.92,-433.99 256.24,-438.29 266.49,-440.96 265.92,-433.99"/>
<text text-anchor="middle" x="496" y="-470.94" font-family="Times,serif" font-size="32.00">be_1</text>
<text text-anchor="middle" x="496" y="-435.94" font-family="Times,serif" font-size="32.00">=prog 0</text>
</g>
<!-- prog&#45;&gt;3 -->
<g id="edge20" class="edge">
<title>prog&#45;&gt;3</title>
<path fill="none" stroke="#000000" d="M858.06,-466.33C777.29,-411.07 560.99,-272.9 356,-227.54 320.42,-219.66 308.83,-216.8 274,-227.54 269.05,-229.07 264.15,-231.36 259.53,-234.02"/>
<polygon fill="#000000" stroke="#000000" points="257.56,-231.12 251.03,-239.46 261.34,-237.02 257.56,-231.12"/>
<text text-anchor="middle" x="496" y="-335.94" font-family="Times,serif" font-size="32.00">be_2</text>
<text text-anchor="middle" x="496" y="-300.94" font-family="Times,serif" font-size="32.00">=prog 3</text>
</g>
<!-- prog&#45;&gt;v -->
<g id="edge21" class="edge">
<title>prog&#45;&gt;v</title>
<path fill="none" stroke="#000000" d="M839.44,-490.32C774.98,-491.44 661.29,-493.9 564,-498.54 520.68,-500.61 470.92,-504.16 438.1,-506.67"/>
<polygon fill="#000000" stroke="#000000" points="437.78,-503.18 428.08,-507.44 438.31,-510.16 437.78,-503.18"/>
<text text-anchor="middle" x="614" y="-542.94" font-family="Times,serif" font-size="32.00">be_3</text>
<text text-anchor="middle" x="614" y="-507.94" font-family="Times,serif" font-size="32.00">=prog v</text>
</g>
<!-- prog&#45;&gt;perf -->
<g id="edge22" class="edge">
<title>prog&#45;&gt;perf</title>
<path fill="none" stroke="#000000" d="M841.12,-497.06C780.31,-506.32 685.17,-521.11 682,-523.54 666.53,-535.41 675.5,-547.8 664,-563.54 660.54,-568.27 656.51,-572.87 652.26,-577.2"/>
<polygon fill="#000000" stroke="#000000" points="649.76,-574.76 644.98,-584.22 654.61,-579.8 649.76,-574.76"/>
<text text-anchor="middle" x="750" y="-567.94" font-family="Times,serif" font-size="32.00">ben</text>
<text text-anchor="middle" x="750" y="-532.94" font-family="Times,serif" font-size="32.00">=prog perf</text>
</g>
<!-- 4&#45;&gt;d -->
<g id="edge24" class="edge">
<title>4&#45;&gt;d</title>
<path fill="none" stroke="#000000" d="M2571.56,-705.54C2507.03,-718.21 2343.44,-751.86 2327.04,-770.54 2284.19,-819.34 2344.4,-861.08 2309.04,-915.54 2299.91,-929.59 2284.58,-939.82 2270.32,-946.86"/>
<polygon fill="#000000" stroke="#000000" points="2268.82,-943.69 2261.18,-951.03 2271.73,-950.06 2268.82,-943.69"/>
<text text-anchor="middle" x="2424.04" y="-814.94" font-family="Times,serif" font-size="32.00">ε_4</text>
<text text-anchor="middle" x="2424.04" y="-779.94" font-family="Times,serif" font-size="32.00">=&gt;4 poss= d &#45;k</text>
</g>
<!-- 5 -->
<g id="node20" class="node">
<title>5</title>
<ellipse fill="none" stroke="black" cx="1910.52" cy="-268.54" rx="27" ry="30.31"/>
<text text-anchor="middle" x="1910.52" y="-260.44" font-family="Times,serif" font-size="32.00">5</text>
</g>
<!-- 5&#45;&gt;a -->
<g id="edge29" class="edge">
<title>5&#45;&gt;a</title>
<path fill="none" stroke="#000000" d="M1892.91,-291.75C1878.62,-309.9 1856.33,-334.23 1831,-347.54 1780.22,-374.22 1752.59,-340.05 1704,-370.54 1679.14,-386.14 1660.02,-413.48 1647.52,-435.78"/>
<polygon fill="#000000" stroke="#000000" points="1644.39,-434.2 1642.73,-444.67 1650.56,-437.52 1644.39,-434.2"/>
<text text-anchor="middle" x="1767.5" y="-414.94" font-family="Times,serif" font-size="32.00">ful</text>
<text text-anchor="middle" x="1767.5" y="-379.94" font-family="Times,serif" font-size="32.00">=&gt;5 =of a</text>
</g>
<!-- z3 -->
<g id="node21" class="node">
<title>z3</title>
<ellipse fill="none" stroke="black" stroke-dasharray="5,2" cx="2235.04" cy="-159.54" rx="27" ry="18"/>
</g>
<!-- z3&#45;&gt;5 -->
<g id="edge30" class="edge">
<title>z3&#45;&gt;5</title>
<path fill="none" stroke="#000000" d="M2209.84,-152.83C2164.01,-141.54 2062.62,-123.38 1990.04,-160.54 1960.94,-175.43 1940.08,-206.68 1927.21,-231.75"/>
<polygon fill="#000000" stroke="#000000" points="1923.93,-230.49 1922.66,-241.01 1930.21,-233.57 1923.93,-230.49"/>
<text text-anchor="middle" x="2066.54" y="-414.94" font-family="Times,serif" font-size="32.00">boast_2 |</text>
<text text-anchor="middle" x="2066.54" y="-379.94" font-family="Times,serif" font-size="32.00"> fear_2 |</text>
<text text-anchor="middle" x="2066.54" y="-344.94" font-family="Times,serif" font-size="32.00"> neglect_2 |</text>
<text text-anchor="middle" x="2066.54" y="-309.94" font-family="Times,serif" font-size="32.00"> scorn_2 |</text>
<text text-anchor="middle" x="2066.54" y="-274.94" font-family="Times,serif" font-size="32.00"> respect_2 |</text>
<text text-anchor="middle" x="2066.54" y="-239.94" font-family="Times,serif" font-size="32.00"> disdain_2 |</text>
<text text-anchor="middle" x="2066.54" y="-204.94" font-family="Times,serif" font-size="32.00"> doubt_2</text>
<text text-anchor="middle" x="2066.54" y="-169.94" font-family="Times,serif" font-size="32.00">5</text>
</g>
<!-- 6 -->
<g id="node22" class="node">
<title>6</title>
<ellipse fill="none" stroke="black" cx="1629.5" cy="-239.54" rx="27" ry="30.31"/>
<text text-anchor="middle" x="1629.5" y="-231.44" font-family="Times,serif" font-size="32.00">6</text>
</g>
<!-- 6&#45;&gt;1 -->
<g id="edge34" class="edge">
<title>6&#45;&gt;1</title>
<path fill="none" stroke="#000000" d="M1604.05,-250.74C1556.19,-273.98 1450.2,-332.24 1397,-414.54 1366.9,-461.1 1357.27,-525.63 1354.25,-566.98"/>
<polygon fill="#000000" stroke="#000000" points="1350.76,-566.77 1353.62,-576.97 1357.75,-567.21 1350.76,-566.77"/>
<text text-anchor="middle" x="1476" y="-458.94" font-family="Times,serif" font-size="32.00">ε_5</text>
<text text-anchor="middle" x="1476" y="-423.94" font-family="Times,serif" font-size="32.00">=&gt;6 =d *k 1</text>
</g>
<!-- z4 -->
<g id="node23" class="node">
<title>z4</title>
<ellipse fill="none" stroke="black" stroke-dasharray="5,2" cx="1910.52" cy="-101.54" rx="27" ry="18"/>
</g>
<!-- z4&#45;&gt;6 -->
<g id="edge35" class="edge">
<title>z4&#45;&gt;6</title>
<path fill="none" stroke="#000000" d="M1885.56,-94.31C1844.93,-83.55 1761.33,-68.05 1704,-102.54 1668.89,-123.66 1649.58,-167.9 1639.67,-200.42"/>
<polygon fill="#000000" stroke="#000000" points="1636.29,-199.52 1636.89,-210.1 1643.01,-201.45 1636.29,-199.52"/>
<text text-anchor="middle" x="1767.5" y="-321.94" font-family="Times,serif" font-size="32.00">fear |</text>
<text text-anchor="middle" x="1767.5" y="-286.94" font-family="Times,serif" font-size="32.00"> neglect |</text>
<text text-anchor="middle" x="1767.5" y="-251.94" font-family="Times,serif" font-size="32.00"> scorn |</text>
<text text-anchor="middle" x="1767.5" y="-216.94" font-family="Times,serif" font-size="32.00"> respect |</text>
<text text-anchor="middle" x="1767.5" y="-181.94" font-family="Times,serif" font-size="32.00"> disdain |</text>
<text text-anchor="middle" x="1767.5" y="-146.94" font-family="Times,serif" font-size="32.00"> doubt</text>
<text text-anchor="middle" x="1767.5" y="-111.94" font-family="Times,serif" font-size="32.00">6</text>
</g>
</g>
</svg>
