<?xml version="1.0" encoding="UTF-8" standalone="no"?>
<!DOCTYPE svg PUBLIC "-//W3C//DTD SVG 1.1//EN"
 "http://www.w3.org/Graphics/SVG/1.1/DTD/svg11.dtd">
<!-- Generated by graphviz version 2.47.1 (20210417.1919)
 -->
<!-- Title: G Pages: 1 -->
<svg width="3127pt" height="1343pt"
 viewBox="0.00 0.00 3126.99 1343.48" xmlns="http://www.w3.org/2000/svg" xmlns:xlink="http://www.w3.org/1999/xlink">
<g id="graph0" class="graph" transform="scale(1 1) rotate(0) translate(4 1339.48)">
<title>G</title>
<polygon fill="white" stroke="transparent" points="-4,4 -4,-1339.48 3122.99,-1339.48 3122.99,4 -4,4"/>
<text text-anchor="middle" x="1559.49" y="-13.4" font-family="Times,serif" font-size="32.00">decomposition: will =v 0, will =v 3</text>
<!-- t -->
<g id="node1" class="node">
<title>t</title>
<ellipse fill="lightgray" stroke="black" cx="27" cy="-320.48" rx="27" ry="30.31"/>
<text text-anchor="middle" x="27" y="-312.38" font-family="Times,serif" font-size="32.00">t</text>
</g>
<!-- z0 -->
<g id="node2" class="node">
<title>z0</title>
<ellipse fill="none" stroke="black" stroke-dasharray="5,2" cx="3081.51" cy="-1102.48" rx="27" ry="18"/>
</g>
<!-- da -->
<g id="node3" class="node">
<title>da</title>
<ellipse fill="none" stroke="black" cx="2802.54" cy="-1102.48" rx="33.47" ry="30.31"/>
<text text-anchor="middle" x="2802.54" y="-1094.38" font-family="Times,serif" font-size="32.00">da</text>
</g>
<!-- z0&#45;&gt;da -->
<g id="edge1" class="edge">
<title>z0&#45;&gt;da</title>
<path fill="none" stroke="#000000" d="M3054.46,-1102.48C3006.66,-1102.48 2904.56,-1102.48 2846.41,-1102.48"/>
<polygon fill="#000000" stroke="#000000" points="2846.08,-1098.99 2836.08,-1102.48 2846.08,-1105.99 2846.08,-1098.99"/>
<text text-anchor="middle" x="2953.04" y="-1181.88" font-family="Times,serif" font-size="32.00">Mary |</text>
<text text-anchor="middle" x="2953.04" y="-1146.88" font-family="Times,serif" font-size="32.00"> John</text>
<text text-anchor="middle" x="2953.04" y="-1111.88" font-family="Times,serif" font-size="32.00">da &#45;k</text>
</g>
<!-- z1 -->
<g id="node4" class="node">
<title>z1</title>
<ellipse fill="none" stroke="black" stroke-dasharray="5,2" cx="3081.51" cy="-1230.48" rx="27" ry="18"/>
</g>
<!-- poss -->
<g id="node5" class="node">
<title>poss</title>
<ellipse fill="none" stroke="black" cx="2802.54" cy="-1230.48" rx="52.15" ry="30.31"/>
<text text-anchor="middle" x="2802.54" y="-1222.38" font-family="Times,serif" font-size="32.00">poss</text>
</g>
<!-- z1&#45;&gt;poss -->
<g id="edge2" class="edge">
<title>z1&#45;&gt;poss</title>
<path fill="none" stroke="#000000" d="M3054.46,-1230.48C3011.43,-1230.48 2924.38,-1230.48 2865.02,-1230.48"/>
<polygon fill="#000000" stroke="#000000" points="2865.01,-1226.99 2855.01,-1230.48 2865.01,-1233.99 2865.01,-1226.99"/>
<text text-anchor="middle" x="2953.04" y="-1309.88" font-family="Times,serif" font-size="32.00">Mary&#39;s |</text>
<text text-anchor="middle" x="2953.04" y="-1274.88" font-family="Times,serif" font-size="32.00"> John&#39;s</text>
<text text-anchor="middle" x="2953.04" y="-1239.88" font-family="Times,serif" font-size="32.00">poss</text>
</g>
<!-- z2 -->
<g id="node6" class="node">
<title>z2</title>
<ellipse fill="none" stroke="black" stroke-dasharray="5,2" cx="2802.54" cy="-960.48" rx="27" ry="18"/>
</g>
<!-- d -->
<g id="node7" class="node">
<title>d</title>
<ellipse fill="none" stroke="black" cx="2439.04" cy="-959.48" rx="27" ry="30.31"/>
<text text-anchor="middle" x="2439.04" y="-951.38" font-family="Times,serif" font-size="32.00">d</text>
</g>
<!-- z2&#45;&gt;d -->
<g id="edge3" class="edge">
<title>z2&#45;&gt;d</title>
<path fill="none" stroke="#000000" d="M2775.25,-960.41C2711.6,-960.24 2549.12,-959.79 2476.3,-959.59"/>
<polygon fill="#000000" stroke="#000000" points="2476.24,-956.09 2466.23,-959.56 2476.22,-963.09 2476.24,-956.09"/>
<text text-anchor="middle" x="2628.04" y="-1004.88" font-family="Times,serif" font-size="32.00">the&#45;cause</text>
<text text-anchor="middle" x="2628.04" y="-969.88" font-family="Times,serif" font-size="32.00">d &#45;k</text>
</g>
<!-- for -->
<g id="node8" class="node">
<title>for</title>
<ellipse fill="none" stroke="black" cx="3081.51" cy="-777.48" rx="37.45" ry="30.31"/>
<text text-anchor="middle" x="3081.51" y="-769.38" font-family="Times,serif" font-size="32.00">for</text>
</g>
<!-- d&#45;&gt;for -->
<g id="edge4" class="edge">
<title>d&#45;&gt;for</title>
<path fill="none" stroke="#000000" d="M2464.68,-949.57C2515.68,-929.53 2636.91,-884.33 2743.04,-863.48 2866.86,-839.16 2913.5,-897.57 3026.04,-840.48 3038.57,-834.13 3049.44,-823.51 3058.11,-812.79"/>
<polygon fill="#000000" stroke="#000000" points="3061.04,-814.72 3064.29,-804.64 3055.46,-810.49 3061.04,-814.72"/>
<text text-anchor="middle" x="2802.54" y="-907.88" font-family="Times,serif" font-size="32.00">for</text>
<text text-anchor="middle" x="2802.54" y="-872.88" font-family="Times,serif" font-size="32.00">=d *k for</text>
</g>
<!-- of -->
<g id="node9" class="node">
<title>of</title>
<ellipse fill="none" stroke="black" cx="2114.52" cy="-713.48" rx="30.31" ry="30.31"/>
<text text-anchor="middle" x="2114.52" y="-705.38" font-family="Times,serif" font-size="32.00">of</text>
</g>
<!-- d&#45;&gt;of -->
<g id="edge5" class="edge">
<title>d&#45;&gt;of</title>
<path fill="none" stroke="#000000" d="M2414.5,-946.41C2399.94,-938.05 2381.03,-926.7 2365.04,-915.48 2282.16,-857.38 2191.31,-780.06 2145.5,-740.03"/>
<polygon fill="#000000" stroke="#000000" points="2147.57,-737.19 2137.74,-733.24 2142.96,-742.46 2147.57,-737.19"/>
<text text-anchor="middle" x="2270.54" y="-944.88" font-family="Times,serif" font-size="32.00">of</text>
<text text-anchor="middle" x="2270.54" y="-909.88" font-family="Times,serif" font-size="32.00">=d *k of</text>
</g>
<!-- about -->
<g id="node10" class="node">
<title>about</title>
<ellipse fill="none" stroke="black" cx="2114.52" cy="-600.48" rx="61.54" ry="30.31"/>
<text text-anchor="middle" x="2114.52" y="-592.38" font-family="Times,serif" font-size="32.00">about</text>
</g>
<!-- d&#45;&gt;about -->
<g id="edge6" class="edge">
<title>d&#45;&gt;about</title>
<path fill="none" stroke="#000000" d="M2412.7,-951.1C2396.22,-944.24 2375.85,-932.81 2365.04,-915.48 2340.82,-876.69 2373.14,-748.04 2347.04,-710.48 2308.96,-655.7 2236.08,-627.36 2182.22,-613.28"/>
<polygon fill="#000000" stroke="#000000" points="2182.95,-609.85 2172.4,-610.81 2181.24,-616.64 2182.95,-609.85"/>
<text text-anchor="middle" x="2270.54" y="-754.88" font-family="Times,serif" font-size="32.00">about</text>
<text text-anchor="middle" x="2270.54" y="-719.88" font-family="Times,serif" font-size="32.00">=d *k about</text>
</g>
<!-- 1 -->
<g id="node12" class="node">
<title>1</title>
<ellipse fill="none" stroke="black" cx="1556" cy="-607.48" rx="27" ry="30.31"/>
<text text-anchor="middle" x="1556" y="-599.38" font-family="Times,serif" font-size="32.00">1</text>
</g>
<!-- for&#45;&gt;1 -->
<g id="edge24" class="edge">
<title>for&#45;&gt;1</title>
<path fill="none" stroke="#000000" d="M3067.86,-805.81C3035,-874.52 2939.96,-1044.48 2803.54,-1044.48 2803.54,-1044.48 2803.54,-1044.48 1832.5,-1044.48 1645.89,-1044.48 1580.63,-755.8 1562.73,-647.7"/>
<polygon fill="#000000" stroke="#000000" points="1566.14,-646.84 1561.1,-637.52 1559.23,-647.95 1566.14,-646.84"/>
<text text-anchor="middle" x="2270.54" y="-1088.88" font-family="Times,serif" font-size="32.00">hope</text>
<text text-anchor="middle" x="2270.54" y="-1053.88" font-family="Times,serif" font-size="32.00">=for 1</text>
</g>
<!-- a -->
<g id="node14" class="node">
<title>a</title>
<ellipse fill="none" stroke="black" cx="1833.5" cy="-470.48" rx="27" ry="30.31"/>
<text text-anchor="middle" x="1833.5" y="-462.38" font-family="Times,serif" font-size="32.00">a</text>
</g>
<!-- for&#45;&gt;a -->
<g id="edge27" class="edge">
<title>for&#45;&gt;a</title>
<path fill="none" stroke="#000000" d="M3071.26,-747.96C3044.21,-668.23 2957.37,-454.48 2803.54,-454.48 2803.54,-454.48 2803.54,-454.48 2113.52,-454.48 2026.36,-454.48 1924.15,-462.36 1870.91,-467.06"/>
<polygon fill="#000000" stroke="#000000" points="1870.28,-463.61 1860.63,-467.98 1870.9,-470.58 1870.28,-463.61"/>
<text text-anchor="middle" x="2439.04" y="-498.88" font-family="Times,serif" font-size="32.00">hopeful</text>
<text text-anchor="middle" x="2439.04" y="-463.88" font-family="Times,serif" font-size="32.00">=for a</text>
</g>
<!-- 5 -->
<g id="node20" class="node">
<title>5</title>
<ellipse fill="none" stroke="black" cx="2802.54" cy="-700.48" rx="27" ry="30.31"/>
<text text-anchor="middle" x="2802.54" y="-692.38" font-family="Times,serif" font-size="32.00">5</text>
</g>
<!-- for&#45;&gt;5 -->
<g id="edge26" class="edge">
<title>for&#45;&gt;5</title>
<path fill="none" stroke="#000000" d="M3068.47,-748.56C3059.54,-731.19 3045.52,-710.57 3026.04,-700.48 2966.23,-669.54 2884.71,-680.74 2838.77,-691.03"/>
<polygon fill="#000000" stroke="#000000" points="2837.92,-687.64 2828.99,-693.34 2839.52,-694.45 2837.92,-687.64"/>
<text text-anchor="middle" x="2953.04" y="-814.88" font-family="Times,serif" font-size="32.00">hope_1 |</text>
<text text-anchor="middle" x="2953.04" y="-779.88" font-family="Times,serif" font-size="32.00"> respect_1 |</text>
<text text-anchor="middle" x="2953.04" y="-744.88" font-family="Times,serif" font-size="32.00"> disdain_1</text>
<text text-anchor="middle" x="2953.04" y="-709.88" font-family="Times,serif" font-size="32.00">=for 5</text>
</g>
<!-- of&#45;&gt;1 -->
<g id="edge28" class="edge">
<title>of&#45;&gt;1</title>
<path fill="none" stroke="#000000" d="M2083.93,-712.63C2024.94,-710.47 1888.74,-703.12 1777,-679.48 1709.52,-665.21 1633.64,-637.71 1590.95,-621.14"/>
<polygon fill="#000000" stroke="#000000" points="1592.18,-617.86 1581.6,-617.48 1589.63,-624.38 1592.18,-617.86"/>
<text text-anchor="middle" x="1833.5" y="-742.88" font-family="Times,serif" font-size="32.00">boast</text>
<text text-anchor="middle" x="1833.5" y="-707.88" font-family="Times,serif" font-size="32.00">=of 1</text>
</g>
<!-- of&#45;&gt;5 -->
<g id="edge29" class="edge">
<title>of&#45;&gt;5</title>
<path fill="none" stroke="#000000" d="M2145,-712.93C2255.39,-710.83 2644.19,-703.47 2765.27,-701.17"/>
<polygon fill="#000000" stroke="#000000" points="2765.55,-704.67 2775.48,-700.98 2765.42,-697.67 2765.55,-704.67"/>
<text text-anchor="middle" x="2439.04" y="-893.88" font-family="Times,serif" font-size="32.00">boast_1 |</text>
<text text-anchor="middle" x="2439.04" y="-858.88" font-family="Times,serif" font-size="32.00"> fear_1 |</text>
<text text-anchor="middle" x="2439.04" y="-823.88" font-family="Times,serif" font-size="32.00"> neglect_1 |</text>
<text text-anchor="middle" x="2439.04" y="-788.88" font-family="Times,serif" font-size="32.00"> scorn_1 |</text>
<text text-anchor="middle" x="2439.04" y="-753.88" font-family="Times,serif" font-size="32.00"> doubt_1</text>
<text text-anchor="middle" x="2439.04" y="-718.88" font-family="Times,serif" font-size="32.00">=of 5</text>
</g>
<!-- about&#45;&gt;1 -->
<g id="edge32" class="edge">
<title>about&#45;&gt;1</title>
<path fill="none" stroke="#000000" d="M2052.9,-601.25C1936.94,-602.71 1686.9,-605.85 1593.33,-607.03"/>
<polygon fill="#000000" stroke="#000000" points="1593.18,-603.53 1583.22,-607.16 1593.27,-610.53 1593.18,-603.53"/>
<text text-anchor="middle" x="1833.5" y="-649.88" font-family="Times,serif" font-size="32.00">boast_3</text>
<text text-anchor="middle" x="1833.5" y="-614.88" font-family="Times,serif" font-size="32.00">=about 1</text>
</g>
<!-- about&#45;&gt;a -->
<g id="edge34" class="edge">
<title>about&#45;&gt;a</title>
<path fill="none" stroke="#000000" d="M2101.37,-570.55C2088.92,-544.09 2066.86,-506.92 2035,-488.48 2007.96,-472.84 1920.9,-470.27 1870.84,-470.14"/>
<polygon fill="#000000" stroke="#000000" points="1870.75,-466.64 1860.75,-470.15 1870.76,-473.64 1870.75,-466.64"/>
<text text-anchor="middle" x="1971.5" y="-567.88" font-family="Times,serif" font-size="32.00">boastful |</text>
<text text-anchor="middle" x="1971.5" y="-532.88" font-family="Times,serif" font-size="32.00"> doubtful</text>
<text text-anchor="middle" x="1971.5" y="-497.88" font-family="Times,serif" font-size="32.00">=about a</text>
</g>
<!-- about&#45;&gt;5 -->
<g id="edge33" class="edge">
<title>about&#45;&gt;5</title>
<path fill="none" stroke="#000000" d="M2174.65,-593.52C2252.78,-585.8 2394.37,-576.94 2513.04,-597.48 2609.24,-614.14 2715.82,-659.87 2768.43,-684.42"/>
<polygon fill="#000000" stroke="#000000" points="2767.07,-687.65 2777.61,-688.74 2770.05,-681.31 2767.07,-687.65"/>
<text text-anchor="middle" x="2439.04" y="-676.88" font-family="Times,serif" font-size="32.00">boast_4 |</text>
<text text-anchor="middle" x="2439.04" y="-641.88" font-family="Times,serif" font-size="32.00"> doubt_3</text>
<text text-anchor="middle" x="2439.04" y="-606.88" font-family="Times,serif" font-size="32.00">=about 5</text>
</g>
<!-- 0 -->
<g id="node11" class="node">
<title>0</title>
<ellipse fill="none" stroke="black" cx="229" cy="-418.48" rx="27" ry="30.31"/>
<text text-anchor="middle" x="229" y="-410.38" font-family="Times,serif" font-size="32.00">0</text>
</g>
<!-- 0&#45;&gt;t -->
<g id="edge7" class="edge">
<title>0&#45;&gt;t</title>
<path fill="none" stroke="#000000" d="M203.08,-408.96C171.76,-396.65 116.71,-373.89 72,-349.48 67.71,-347.14 63.29,-344.51 58.99,-341.82"/>
<polygon fill="#000000" stroke="#000000" points="60.69,-338.76 50.39,-336.28 56.9,-344.64 60.69,-338.76"/>
<text text-anchor="middle" x="128" y="-445.88" font-family="Times,serif" font-size="32.00">s</text>
<text text-anchor="middle" x="128" y="-410.88" font-family="Times,serif" font-size="32.00">=&gt;0 +k t</text>
</g>
<!-- 2 -->
<g id="node13" class="node">
<title>2</title>
<ellipse fill="none" stroke="black" cx="1333" cy="-607.48" rx="27" ry="30.31"/>
<text text-anchor="middle" x="1333" y="-599.38" font-family="Times,serif" font-size="32.00">2</text>
</g>
<!-- 1&#45;&gt;2 -->
<g id="edge8" class="edge">
<title>1&#45;&gt;2</title>
<path fill="none" stroke="#000000" d="M1528.78,-607.48C1489.4,-607.48 1414.87,-607.48 1370.3,-607.48"/>
<polygon fill="#000000" stroke="#000000" points="1370.19,-603.99 1360.19,-607.48 1370.19,-610.99 1370.19,-603.99"/>
<text text-anchor="middle" x="1444.5" y="-651.88" font-family="Times,serif" font-size="32.00">ε_0</text>
<text text-anchor="middle" x="1444.5" y="-616.88" font-family="Times,serif" font-size="32.00">=&gt;1 =da 2</text>
</g>
<!-- v -->
<g id="node16" class="node">
<title>v</title>
<ellipse fill="none" stroke="black" cx="588" cy="-561.48" rx="27" ry="30.31"/>
<text text-anchor="middle" x="588" y="-553.38" font-family="Times,serif" font-size="32.00">v</text>
</g>
<!-- 2&#45;&gt;v -->
<g id="edge11" class="edge">
<title>2&#45;&gt;v</title>
<path fill="none" stroke="#000000" d="M1308.48,-620.66C1274.98,-638.61 1211,-669.83 1152,-681.48 1028.41,-705.9 768.38,-733.22 656,-668.48 629.84,-653.42 612.44,-623.6 601.94,-599.25"/>
<polygon fill="#000000" stroke="#000000" points="605.14,-597.83 598.12,-589.9 598.66,-600.48 605.14,-597.83"/>
<text text-anchor="middle" x="954" y="-753.88" font-family="Times,serif" font-size="32.00">ε_1</text>
<text text-anchor="middle" x="954" y="-718.88" font-family="Times,serif" font-size="32.00">=&gt;2 v</text>
</g>
<!-- perf -->
<g id="node17" class="node">
<title>perf</title>
<ellipse fill="none" stroke="black" cx="818" cy="-607.48" rx="48.17" ry="30.31"/>
<text text-anchor="middle" x="818" y="-599.38" font-family="Times,serif" font-size="32.00">perf</text>
</g>
<!-- 2&#45;&gt;perf -->
<g id="edge12" class="edge">
<title>2&#45;&gt;perf</title>
<path fill="none" stroke="#000000" d="M1305.85,-607.48C1226.54,-607.48 987.31,-607.48 876.5,-607.48"/>
<polygon fill="#000000" stroke="#000000" points="876.18,-603.99 866.18,-607.48 876.18,-610.99 876.18,-603.99"/>
<text text-anchor="middle" x="1096" y="-651.88" font-family="Times,serif" font-size="32.00">n</text>
<text text-anchor="middle" x="1096" y="-616.88" font-family="Times,serif" font-size="32.00">=&gt;2 perf</text>
</g>
<!-- prog -->
<g id="node18" class="node">
<title>prog</title>
<ellipse fill="none" stroke="black" cx="1096" cy="-489.48" rx="52.15" ry="30.31"/>
<text text-anchor="middle" x="1096" y="-481.38" font-family="Times,serif" font-size="32.00">prog</text>
</g>
<!-- 2&#45;&gt;prog -->
<g id="edge13" class="edge">
<title>2&#45;&gt;prog</title>
<path fill="none" stroke="#000000" d="M1324.11,-578.55C1317.52,-559.93 1306.19,-536.81 1288,-523.48 1250.88,-496.3 1198.99,-488.44 1158.66,-487.03"/>
<polygon fill="#000000" stroke="#000000" points="1158.49,-483.53 1148.41,-486.8 1158.33,-490.52 1158.49,-483.53"/>
<text text-anchor="middle" x="1229" y="-567.88" font-family="Times,serif" font-size="32.00">ing</text>
<text text-anchor="middle" x="1229" y="-532.88" font-family="Times,serif" font-size="32.00">=&gt;2 prog</text>
</g>
<!-- a&#45;&gt;1 -->
<g id="edge9" class="edge">
<title>a&#45;&gt;1</title>
<path fill="none" stroke="#000000" d="M1806.28,-469.7C1760,-469.66 1662.88,-475.79 1601,-523.48 1586.07,-534.99 1575.69,-553.02 1568.78,-569.42"/>
<polygon fill="#000000" stroke="#000000" points="1565.48,-568.24 1565.1,-578.83 1572,-570.79 1565.48,-568.24"/>
<text text-anchor="middle" x="1680" y="-567.88" font-family="Times,serif" font-size="32.00">be</text>
<text text-anchor="middle" x="1680" y="-532.88" font-family="Times,serif" font-size="32.00">=a 1</text>
</g>
<!-- 3 -->
<g id="node15" class="node">
<title>3</title>
<ellipse fill="none" stroke="black" cx="229" cy="-266.48" rx="27" ry="30.31"/>
<text text-anchor="middle" x="229" y="-258.38" font-family="Times,serif" font-size="32.00">3</text>
</g>
<!-- 3&#45;&gt;t -->
<g id="edge10" class="edge">
<title>3&#45;&gt;t</title>
<path fill="none" stroke="#000000" d="M201.88,-263.61C169.83,-261.2 114.5,-260.68 72,-279.48 65.46,-282.38 59.26,-286.66 53.7,-291.38"/>
<polygon fill="#000000" stroke="#000000" points="50.98,-289.13 46.04,-298.5 55.75,-294.26 50.98,-289.13"/>
<text text-anchor="middle" x="128" y="-323.88" font-family="Times,serif" font-size="32.00">d</text>
<text text-anchor="middle" x="128" y="-288.88" font-family="Times,serif" font-size="32.00">=&gt;3 +k t</text>
</g>
<!-- v&#45;&gt;0 -->
<g id="edge17" class="edge">
<title>v&#45;&gt;0</title>
<path fill="none" stroke="#000000" d="M560.78,-559.85C503.92,-555.18 366.9,-537.79 274,-475.48 264.87,-469.36 256.83,-460.73 250.19,-452.02"/>
<polygon fill="#000000" stroke="#000000" points="252.94,-449.84 244.28,-443.73 247.24,-453.91 252.94,-449.84"/>
<text text-anchor="middle" x="406" y="-586.88" font-family="Times,serif" font-size="32.00">ε_4</text>
<text text-anchor="middle" x="406" y="-551.88" font-family="Times,serif" font-size="32.00">=&gt;v 0</text>
</g>
<!-- v&#45;&gt;3 -->
<g id="edge19" class="edge">
<title>v&#45;&gt;3</title>
<path fill="none" stroke="#000000" d="M564.18,-546.5C554.54,-538.96 544.15,-528.98 538,-517.48 511.71,-468.39 538.75,-445.92 520,-393.48 497.98,-331.91 500.6,-300.24 444,-267.48 388.36,-235.28 310.18,-246.15 265.34,-256.58"/>
<polygon fill="#000000" stroke="#000000" points="264.38,-253.22 255.49,-258.99 266.04,-260.01 264.38,-253.22"/>
<text text-anchor="middle" x="406" y="-311.88" font-family="Times,serif" font-size="32.00">ε_5</text>
<text text-anchor="middle" x="406" y="-276.88" font-family="Times,serif" font-size="32.00">=&gt;v 3</text>
</g>
<!-- 4 -->
<g id="node19" class="node">
<title>4</title>
<ellipse fill="none" stroke="black" cx="406" cy="-376.48" rx="27" ry="30.31"/>
<text text-anchor="middle" x="406" y="-368.38" font-family="Times,serif" font-size="32.00">4</text>
</g>
<!-- v&#45;&gt;4 -->
<g id="edge15" class="edge">
<title>v&#45;&gt;4</title>
<path fill="none" stroke="#f7931d" stroke-width="2" d="M564.64,-546.23C555.1,-538.64 544.65,-528.69 538,-517.48 520.28,-487.64 540.75,-469.31 520,-441.48 500.53,-415.38 467.25,-398.08 441.83,-387.94"/>
<polygon fill="#f7931d" stroke="#f7931d" stroke-width="2" points="442.76,-384.55 432.17,-384.28 440.28,-391.1 442.76,-384.55"/>
<text text-anchor="middle" x="491" y="-485.88" font-family="Times,serif" font-size="32.00">will</text>
<text text-anchor="middle" x="491" y="-450.88" font-family="Times,serif" font-size="32.00">=v 4</text>
</g>
<!-- perf&#45;&gt;v -->
<g id="edge18" class="edge">
<title>perf&#45;&gt;v</title>
<path fill="none" stroke="#000000" d="M771.95,-598.4C728.83,-589.7 664.61,-576.74 624.85,-568.72"/>
<polygon fill="#000000" stroke="#000000" points="625.31,-565.24 614.81,-566.69 623.92,-572.1 625.31,-565.24"/>
<text text-anchor="middle" x="703" y="-638.88" font-family="Times,serif" font-size="32.00">have</text>
<text text-anchor="middle" x="703" y="-603.88" font-family="Times,serif" font-size="32.00">=perf v</text>
</g>
<!-- prog&#45;&gt;0 -->
<g id="edge20" class="edge">
<title>prog&#45;&gt;0</title>
<path fill="none" stroke="#000000" d="M1044.77,-482.96C1037.15,-482.06 1029.37,-481.21 1022,-480.48 851.7,-463.79 808.96,-459.89 638,-452.48 617.79,-451.61 293.33,-453.43 274,-447.48 269.33,-446.05 264.69,-443.95 260.27,-441.52"/>
<polygon fill="#000000" stroke="#000000" points="261.94,-438.44 251.58,-436.2 258.28,-444.41 261.94,-438.44"/>
<text text-anchor="middle" x="588" y="-496.88" font-family="Times,serif" font-size="32.00">be_1</text>
<text text-anchor="middle" x="588" y="-461.88" font-family="Times,serif" font-size="32.00">=prog 0</text>
</g>
<!-- prog&#45;&gt;3 -->
<g id="edge21" class="edge">
<title>prog&#45;&gt;3</title>
<path fill="none" stroke="#000000" d="M1083.2,-459.79C1052.02,-386.8 960.03,-204.48 819,-204.48 819,-204.48 819,-204.48 405,-204.48 352.7,-204.48 296.4,-229.39 262.18,-247.63"/>
<polygon fill="#000000" stroke="#000000" points="260.23,-244.7 253.13,-252.57 263.59,-250.85 260.23,-244.7"/>
<text text-anchor="middle" x="588" y="-248.88" font-family="Times,serif" font-size="32.00">be_2</text>
<text text-anchor="middle" x="588" y="-213.88" font-family="Times,serif" font-size="32.00">=prog 3</text>
</g>
<!-- prog&#45;&gt;v -->
<g id="edge22" class="edge">
<title>prog&#45;&gt;v</title>
<path fill="none" stroke="#000000" d="M1043.79,-486.03C978.98,-482.76 864.19,-480.69 768,-498.48 715.59,-508.18 657.93,-530.79 622.59,-546.11"/>
<polygon fill="#000000" stroke="#000000" points="620.98,-542.99 613.24,-550.22 623.8,-549.4 620.98,-542.99"/>
<text text-anchor="middle" x="818" y="-542.88" font-family="Times,serif" font-size="32.00">be_3</text>
<text text-anchor="middle" x="818" y="-507.88" font-family="Times,serif" font-size="32.00">=prog v</text>
</g>
<!-- prog&#45;&gt;perf -->
<g id="edge23" class="edge">
<title>prog&#45;&gt;perf</title>
<path fill="none" stroke="#000000" d="M1045.12,-497.01C984.31,-506.26 889.17,-521.05 886,-523.48 870.53,-535.35 879.5,-547.74 868,-563.48 864.54,-568.22 860.51,-572.82 856.26,-577.15"/>
<polygon fill="#000000" stroke="#000000" points="853.76,-574.7 848.98,-584.16 858.61,-579.74 853.76,-574.7"/>
<text text-anchor="middle" x="954" y="-567.88" font-family="Times,serif" font-size="32.00">ben</text>
<text text-anchor="middle" x="954" y="-532.88" font-family="Times,serif" font-size="32.00">=prog perf</text>
</g>
<!-- 4&#45;&gt;0 -->
<g id="edge14" class="edge">
<title>4&#45;&gt;0</title>
<path fill="none" stroke="#f7931d" stroke-width="2" d="M379.33,-371.36C352.13,-367.12 308.44,-363.77 274,-377.48 267.35,-380.13 261.11,-384.3 255.53,-388.98"/>
<polygon fill="#f7931d" stroke="#f7931d" stroke-width="2" points="252.82,-386.73 247.87,-396.1 257.58,-391.86 252.82,-386.73"/>
<text text-anchor="middle" x="312" y="-421.88" font-family="Times,serif" font-size="32.00">ε_2</text>
<text text-anchor="middle" x="312" y="-386.88" font-family="Times,serif" font-size="32.00">=&gt;4 0</text>
</g>
<!-- 4&#45;&gt;3 -->
<g id="edge16" class="edge">
<title>4&#45;&gt;3</title>
<path fill="none" stroke="#f7931d" stroke-width="2" d="M388.03,-353.46C381.6,-344.52 374.31,-334.13 368,-324.48 359.49,-311.47 362.57,-303.64 350,-294.48 325.69,-276.77 291.88,-270.06 266.34,-267.62"/>
<polygon fill="#f7931d" stroke="#f7931d" stroke-width="2" points="266.54,-264.13 256.3,-266.84 266,-271.11 266.54,-264.13"/>
<text text-anchor="middle" x="312" y="-338.88" font-family="Times,serif" font-size="32.00">ε_3</text>
<text text-anchor="middle" x="312" y="-303.88" font-family="Times,serif" font-size="32.00">=&gt;4 3</text>
</g>
<!-- 5&#45;&gt;d -->
<g id="edge25" class="edge">
<title>5&#45;&gt;d</title>
<path fill="none" stroke="#000000" d="M2775.56,-705.49C2711.03,-718.15 2547.44,-751.8 2531.04,-770.48 2488.19,-819.28 2548.4,-861.02 2513.04,-915.48 2503.91,-929.53 2488.58,-939.76 2474.32,-946.8"/>
<polygon fill="#000000" stroke="#000000" points="2472.82,-943.64 2465.18,-950.97 2475.73,-950.01 2472.82,-943.64"/>
<text text-anchor="middle" x="2628.04" y="-814.88" font-family="Times,serif" font-size="32.00">ε_6</text>
<text text-anchor="middle" x="2628.04" y="-779.88" font-family="Times,serif" font-size="32.00">=&gt;5 poss= d &#45;k</text>
</g>
<!-- 6 -->
<g id="node21" class="node">
<title>6</title>
<ellipse fill="none" stroke="black" cx="2114.52" cy="-268.48" rx="27" ry="30.31"/>
<text text-anchor="middle" x="2114.52" y="-260.38" font-family="Times,serif" font-size="32.00">6</text>
</g>
<!-- 6&#45;&gt;a -->
<g id="edge30" class="edge">
<title>6&#45;&gt;a</title>
<path fill="none" stroke="#000000" d="M2096.91,-291.69C2082.62,-309.85 2060.33,-334.17 2035,-347.48 1984.22,-374.17 1956.66,-340.11 1908,-370.48 1883.26,-385.93 1864.14,-413 1851.6,-435.08"/>
<polygon fill="#000000" stroke="#000000" points="1848.52,-433.42 1846.8,-443.88 1854.66,-436.78 1848.52,-433.42"/>
<text text-anchor="middle" x="1971.5" y="-414.88" font-family="Times,serif" font-size="32.00">ful</text>
<text text-anchor="middle" x="1971.5" y="-379.88" font-family="Times,serif" font-size="32.00">=&gt;6 =of a</text>
</g>
<!-- z3 -->
<g id="node22" class="node">
<title>z3</title>
<ellipse fill="none" stroke="black" stroke-dasharray="5,2" cx="2439.04" cy="-159.48" rx="27" ry="18"/>
</g>
<!-- z3&#45;&gt;6 -->
<g id="edge31" class="edge">
<title>z3&#45;&gt;6</title>
<path fill="none" stroke="#000000" d="M2413.84,-152.78C2368.01,-141.49 2266.62,-123.33 2194.04,-160.48 2164.94,-175.38 2144.08,-206.62 2131.21,-231.69"/>
<polygon fill="#000000" stroke="#000000" points="2127.93,-230.43 2126.66,-240.95 2134.21,-233.52 2127.93,-230.43"/>
<text text-anchor="middle" x="2270.54" y="-414.88" font-family="Times,serif" font-size="32.00">boast_2 |</text>
<text text-anchor="middle" x="2270.54" y="-379.88" font-family="Times,serif" font-size="32.00"> fear_2 |</text>
<text text-anchor="middle" x="2270.54" y="-344.88" font-family="Times,serif" font-size="32.00"> neglect_2 |</text>
<text text-anchor="middle" x="2270.54" y="-309.88" font-family="Times,serif" font-size="32.00"> scorn_2 |</text>
<text text-anchor="middle" x="2270.54" y="-274.88" font-family="Times,serif" font-size="32.00"> respect_2 |</text>
<text text-anchor="middle" x="2270.54" y="-239.88" font-family="Times,serif" font-size="32.00"> disdain_2 |</text>
<text text-anchor="middle" x="2270.54" y="-204.88" font-family="Times,serif" font-size="32.00"> doubt_2</text>
<text text-anchor="middle" x="2270.54" y="-169.88" font-family="Times,serif" font-size="32.00">6</text>
</g>
<!-- 7 -->
<g id="node23" class="node">
<title>7</title>
<ellipse fill="none" stroke="black" cx="1833.5" cy="-238.48" rx="27" ry="30.31"/>
<text text-anchor="middle" x="1833.5" y="-230.38" font-family="Times,serif" font-size="32.00">7</text>
</g>
<!-- 7&#45;&gt;1 -->
<g id="edge35" class="edge">
<title>7&#45;&gt;1</title>
<path fill="none" stroke="#000000" d="M1807.58,-248.21C1759.36,-268.37 1653.48,-319.56 1601,-398.48 1567.07,-449.51 1558.61,-521.75 1556.88,-566.55"/>
<polygon fill="#000000" stroke="#000000" points="1553.37,-566.68 1556.58,-576.77 1560.37,-566.88 1553.37,-566.68"/>
<text text-anchor="middle" x="1680" y="-442.88" font-family="Times,serif" font-size="32.00">ε_7</text>
<text text-anchor="middle" x="1680" y="-407.88" font-family="Times,serif" font-size="32.00">=&gt;7 =d *k 1</text>
</g>
<!-- z4 -->
<g id="node24" class="node">
<title>z4</title>
<ellipse fill="none" stroke="black" stroke-dasharray="5,2" cx="2114.52" cy="-101.48" rx="27" ry="18"/>
</g>
<!-- z4&#45;&gt;7 -->
<g id="edge36" class="edge">
<title>z4&#45;&gt;7</title>
<path fill="none" stroke="#000000" d="M2089.57,-94.27C2048.96,-83.54 1965.38,-68.08 1908,-102.48 1873.06,-123.43 1853.71,-167.36 1843.75,-199.64"/>
<polygon fill="#000000" stroke="#000000" points="1840.39,-198.67 1840.96,-209.25 1847.11,-200.63 1840.39,-198.67"/>
<text text-anchor="middle" x="1971.5" y="-321.88" font-family="Times,serif" font-size="32.00">fear |</text>
<text text-anchor="middle" x="1971.5" y="-286.88" font-family="Times,serif" font-size="32.00"> neglect |</text>
<text text-anchor="middle" x="1971.5" y="-251.88" font-family="Times,serif" font-size="32.00"> scorn |</text>
<text text-anchor="middle" x="1971.5" y="-216.88" font-family="Times,serif" font-size="32.00"> respect |</text>
<text text-anchor="middle" x="1971.5" y="-181.88" font-family="Times,serif" font-size="32.00"> disdain |</text>
<text text-anchor="middle" x="1971.5" y="-146.88" font-family="Times,serif" font-size="32.00"> doubt</text>
<text text-anchor="middle" x="1971.5" y="-111.88" font-family="Times,serif" font-size="32.00">7</text>
</g>
</g>
</svg>
