<?xml version="1.0" encoding="UTF-8" standalone="no"?>
<!DOCTYPE svg PUBLIC "-//W3C//DTD SVG 1.1//EN"
 "http://www.w3.org/Graphics/SVG/1.1/DTD/svg11.dtd">
<!-- Generated by graphviz version 2.47.1 (20210417.1919)
 -->
<!-- Title: G Pages: 1 -->
<svg width="2884pt" height="2910pt"
 viewBox="0.00 0.00 2883.64 2909.86" xmlns="http://www.w3.org/2000/svg" xmlns:xlink="http://www.w3.org/1999/xlink">
<g id="graph0" class="graph" transform="scale(1 1) rotate(0) translate(4 2905.86)">
<title>G</title>
<polygon fill="white" stroke="transparent" points="-4,4 -4,-2905.86 2879.64,-2905.86 2879.64,4 -4,4"/>
<text text-anchor="middle" x="1437.82" y="-13.4" font-family="Times,serif" font-size="32.00">single contraction: 5 → 1</text>
<!-- t -->
<g id="node1" class="node">
<title>t</title>
<ellipse fill="lightgray" stroke="black" cx="27" cy="-784.86" rx="27" ry="30.31"/>
<text text-anchor="middle" x="27" y="-776.76" font-family="Times,serif" font-size="32.00">t</text>
</g>
<!-- z0 -->
<g id="node2" class="node">
<title>z0</title>
<ellipse fill="none" stroke="black" stroke-dasharray="5,2" cx="2838.17" cy="-2668.86" rx="27" ry="18"/>
</g>
<!-- da -->
<g id="node3" class="node">
<title>da</title>
<ellipse fill="none" stroke="black" cx="2515.36" cy="-2668.86" rx="33.47" ry="30.31"/>
<text text-anchor="middle" x="2515.36" y="-2660.76" font-family="Times,serif" font-size="32.00">da</text>
</g>
<!-- z0&#45;&gt;da -->
<g id="edge1" class="edge">
<title>z0&#45;&gt;da</title>
<path fill="none" stroke="#000000" d="M2810.91,-2668.86C2755.52,-2668.86 2626.24,-2668.86 2558.88,-2668.86"/>
<polygon fill="#000000" stroke="#000000" points="2558.62,-2665.36 2548.62,-2668.86 2558.62,-2672.36 2558.62,-2665.36"/>
<text text-anchor="middle" x="2684.19" y="-2748.26" font-family="Times,serif" font-size="32.00">Mary |</text>
<text text-anchor="middle" x="2684.19" y="-2713.26" font-family="Times,serif" font-size="32.00"> John</text>
<text text-anchor="middle" x="2684.19" y="-2678.26" font-family="Times,serif" font-size="32.00">da &#45;k</text>
</g>
<!-- z1 -->
<g id="node4" class="node">
<title>z1</title>
<ellipse fill="none" stroke="black" stroke-dasharray="5,2" cx="2838.17" cy="-2796.86" rx="27" ry="18"/>
</g>
<!-- poss -->
<g id="node5" class="node">
<title>poss</title>
<ellipse fill="none" stroke="black" cx="2515.36" cy="-2796.86" rx="52.15" ry="30.31"/>
<text text-anchor="middle" x="2515.36" y="-2788.76" font-family="Times,serif" font-size="32.00">poss</text>
</g>
<!-- z1&#45;&gt;poss -->
<g id="edge2" class="edge">
<title>z1&#45;&gt;poss</title>
<path fill="none" stroke="#000000" d="M2810.91,-2796.86C2760.35,-2796.86 2648.25,-2796.86 2577.84,-2796.86"/>
<polygon fill="#000000" stroke="#000000" points="2577.77,-2793.36 2567.77,-2796.86 2577.77,-2800.36 2577.77,-2793.36"/>
<text text-anchor="middle" x="2684.19" y="-2876.26" font-family="Times,serif" font-size="32.00">Mary&#39;s |</text>
<text text-anchor="middle" x="2684.19" y="-2841.26" font-family="Times,serif" font-size="32.00"> John&#39;s</text>
<text text-anchor="middle" x="2684.19" y="-2806.26" font-family="Times,serif" font-size="32.00">poss</text>
</g>
<!-- z2 -->
<g id="node6" class="node">
<title>z2</title>
<ellipse fill="none" stroke="black" stroke-dasharray="5,2" cx="2838.17" cy="-2338.86" rx="27" ry="18"/>
</g>
<!-- d -->
<g id="node7" class="node">
<title>d</title>
<ellipse fill="none" stroke="black" cx="2515.36" cy="-1446.86" rx="27" ry="30.31"/>
<text text-anchor="middle" x="2515.36" y="-1438.76" font-family="Times,serif" font-size="32.00">d</text>
</g>
<!-- z2&#45;&gt;d -->
<g id="edge3" class="edge">
<title>z2&#45;&gt;d</title>
<path fill="none" stroke="#000000" d="M2830.9,-2321.44C2792.13,-2213.63 2584.73,-1636.97 2529.75,-1484.08"/>
<polygon fill="#000000" stroke="#000000" points="2533.03,-1482.86 2526.35,-1474.63 2526.44,-1485.23 2533.03,-1482.86"/>
<text text-anchor="middle" x="2684.19" y="-2213.26" font-family="Times,serif" font-size="32.00">the&#45;cause</text>
<text text-anchor="middle" x="2684.19" y="-2178.26" font-family="Times,serif" font-size="32.00">d &#45;k</text>
</g>
<!-- for -->
<g id="node8" class="node">
<title>for</title>
<ellipse fill="none" stroke="black" cx="2838.17" cy="-1135.86" rx="37.45" ry="30.31"/>
<text text-anchor="middle" x="2838.17" y="-1127.76" font-family="Times,serif" font-size="32.00">for</text>
</g>
<!-- d&#45;&gt;for -->
<g id="edge4" class="edge">
<title>d&#45;&gt;for</title>
<path fill="none" stroke="#000000" d="M2542.31,-1443.64C2595.57,-1435.63 2717.72,-1409.8 2782.69,-1335.86 2821.94,-1291.18 2833.22,-1220.85 2836.28,-1176.59"/>
<polygon fill="#000000" stroke="#000000" points="2839.78,-1176.67 2836.87,-1166.48 2832.79,-1176.26 2839.78,-1176.67"/>
<text text-anchor="middle" x="2684.19" y="-1480.26" font-family="Times,serif" font-size="32.00">for</text>
<text text-anchor="middle" x="2684.19" y="-1445.26" font-family="Times,serif" font-size="32.00">=d *k for</text>
</g>
<!-- of -->
<g id="node9" class="node">
<title>of</title>
<ellipse fill="none" stroke="black" cx="2134.52" cy="-1572.86" rx="30.31" ry="30.31"/>
<text text-anchor="middle" x="2134.52" y="-1564.76" font-family="Times,serif" font-size="32.00">of</text>
</g>
<!-- d&#45;&gt;of -->
<g id="edge5" class="edge">
<title>d&#45;&gt;of</title>
<path fill="none" stroke="#000000" d="M2488.41,-1451.34C2475.41,-1453.5 2459.42,-1456 2445.04,-1457.86 2393.87,-1464.46 2255.91,-1450.73 2214.04,-1480.86 2198.21,-1492.24 2207.71,-1505.24 2196.04,-1520.86 2188.12,-1531.45 2177.69,-1541.38 2167.72,-1549.66"/>
<polygon fill="#000000" stroke="#000000" points="2165.51,-1546.95 2159.88,-1555.93 2169.88,-1552.41 2165.51,-1546.95"/>
<text text-anchor="middle" x="2329.54" y="-1525.26" font-family="Times,serif" font-size="32.00">of</text>
<text text-anchor="middle" x="2329.54" y="-1490.26" font-family="Times,serif" font-size="32.00">=d *k of</text>
</g>
<!-- about -->
<g id="node10" class="node">
<title>about</title>
<ellipse fill="none" stroke="black" cx="2134.52" cy="-1924.86" rx="61.54" ry="30.31"/>
<text text-anchor="middle" x="2134.52" y="-1916.76" font-family="Times,serif" font-size="32.00">about</text>
</g>
<!-- d&#45;&gt;about -->
<g id="edge6" class="edge">
<title>d&#45;&gt;about</title>
<path fill="none" stroke="#000000" d="M2512.63,-1477.22C2507.64,-1552.99 2490.59,-1747.4 2445.04,-1789.86 2369.3,-1860.45 2303.42,-1767.62 2214.04,-1819.86 2187.84,-1835.17 2167.64,-1863.01 2154.29,-1886.17"/>
<polygon fill="#000000" stroke="#000000" points="2151.12,-1884.67 2149.33,-1895.11 2157.24,-1888.06 2151.12,-1884.67"/>
<text text-anchor="middle" x="2329.54" y="-1864.26" font-family="Times,serif" font-size="32.00">about</text>
<text text-anchor="middle" x="2329.54" y="-1829.26" font-family="Times,serif" font-size="32.00">=d *k about</text>
</g>
<!-- 1 -->
<g id="node13" class="node">
<title>1</title>
<ellipse fill="none" stroke="black" cx="1338.5" cy="-989.86" rx="27" ry="30.31"/>
<text text-anchor="middle" x="1338.5" y="-981.76" font-family="Times,serif" font-size="32.00">1</text>
</g>
<!-- d&#45;&gt;1 -->
<g id="edge60" class="edge">
<title>d&#45;&gt;1</title>
<path fill="none" stroke="#000000" d="M2506.47,-1418.01C2496.82,-1388.15 2477.63,-1342.26 2445.04,-1315.86 2378.24,-1261.75 2131.66,-1272.7 2073,-1209.86 2046.65,-1181.63 2082.61,-1151.86 2055,-1124.86 1956.55,-1028.57 1507.42,-998.39 1375.83,-991.54"/>
<polygon fill="#000000" stroke="#000000" points="1375.66,-988.03 1365.5,-991.02 1375.31,-995.02 1375.66,-988.03"/>
<text text-anchor="middle" x="1966" y="-1169.26" font-family="Times,serif" font-size="32.00">respect</text>
<text text-anchor="middle" x="1966" y="-1134.26" font-family="Times,serif" font-size="32.00">=d *k 1</text>
</g>
<!-- 2 -->
<g id="node17" class="node">
<title>2</title>
<ellipse fill="none" stroke="black" cx="1773.5" cy="-2155.86" rx="27" ry="30.31"/>
<text text-anchor="middle" x="1773.5" y="-2147.76" font-family="Times,serif" font-size="32.00">2</text>
</g>
<!-- d&#45;&gt;2 -->
<g id="edge42" class="edge">
<title>d&#45;&gt;2</title>
<path fill="none" stroke="#000000" d="M2513.02,-1477.4C2507.57,-1594.71 2485.47,-2011.89 2445.04,-2053.86 2271.11,-2234.38 1922.76,-2185.2 1810.36,-2163.52"/>
<polygon fill="#000000" stroke="#000000" points="1810.72,-2160.02 1800.23,-2161.51 1809.36,-2166.89 1810.72,-2160.02"/>
<text text-anchor="middle" x="2134.52" y="-2230.26" font-family="Times,serif" font-size="32.00">fear</text>
<text text-anchor="middle" x="2134.52" y="-2195.26" font-family="Times,serif" font-size="32.00">=d *k 2</text>
</g>
<!-- 3 -->
<g id="node18" class="node">
<title>3</title>
<ellipse fill="none" stroke="black" cx="1773.5" cy="-1166.86" rx="27" ry="30.31"/>
<text text-anchor="middle" x="1773.5" y="-1158.76" font-family="Times,serif" font-size="32.00">3</text>
</g>
<!-- d&#45;&gt;3 -->
<g id="edge48" class="edge">
<title>d&#45;&gt;3</title>
<path fill="none" stroke="#000000" d="M2489.76,-1435.74C2421.52,-1405.09 2223.72,-1317.57 2055,-1255.86 1967.78,-1223.96 1862.99,-1192.48 1809.56,-1176.92"/>
<polygon fill="#000000" stroke="#000000" points="1810.47,-1173.54 1799.89,-1174.11 1808.52,-1180.26 1810.47,-1173.54"/>
<text text-anchor="middle" x="2134.52" y="-1352.26" font-family="Times,serif" font-size="32.00">neglect</text>
<text text-anchor="middle" x="2134.52" y="-1317.26" font-family="Times,serif" font-size="32.00">=d *k 3</text>
</g>
<!-- 4 -->
<g id="node19" class="node">
<title>4</title>
<ellipse fill="none" stroke="black" cx="1773.5" cy="-817.86" rx="27" ry="30.31"/>
<text text-anchor="middle" x="1773.5" y="-809.76" font-family="Times,serif" font-size="32.00">4</text>
</g>
<!-- d&#45;&gt;4 -->
<g id="edge54" class="edge">
<title>d&#45;&gt;4</title>
<path fill="none" stroke="#000000" d="M2514.52,-1416.22C2513.05,-1365.8 2502.54,-1265.41 2445.04,-1209.86 2368.83,-1136.24 2310.73,-1194.2 2214.04,-1150.86 2205.42,-1146.99 2080.62,-1061.45 2073,-1055.86 1971.55,-981.43 1856.41,-886.5 1803.67,-842.41"/>
<polygon fill="#000000" stroke="#000000" points="1805.67,-839.52 1795.76,-835.79 1801.18,-844.89 1805.67,-839.52"/>
<text text-anchor="middle" x="2134.52" y="-1184.26" font-family="Times,serif" font-size="32.00">scorn</text>
<text text-anchor="middle" x="2134.52" y="-1149.26" font-family="Times,serif" font-size="32.00">=d *k 4</text>
</g>
<!-- 5 -->
<g id="node20" class="node">
<title>5</title>
<ellipse fill="none" stroke="black" cx="1773.5" cy="-621.86" rx="27" ry="30.31"/>
<text text-anchor="middle" x="1773.5" y="-613.76" font-family="Times,serif" font-size="32.00">5</text>
</g>
<!-- d&#45;&gt;5 -->
<g id="edge65" class="edge">
<title>d&#45;&gt;5</title>
<path fill="none" stroke="#000000" d="M2512.02,-1416.69C2505.29,-1336.03 2483.85,-1117.51 2445.04,-1057.86 2282.77,-808.45 1922.35,-671.09 1809.19,-632.95"/>
<polygon fill="#000000" stroke="#000000" points="1810.22,-629.61 1799.63,-629.77 1808.01,-636.25 1810.22,-629.61"/>
<text text-anchor="middle" x="2134.52" y="-864.26" font-family="Times,serif" font-size="32.00">disdain</text>
<text text-anchor="middle" x="2134.52" y="-829.26" font-family="Times,serif" font-size="32.00">=d *k 5</text>
</g>
<!-- 6 -->
<g id="node21" class="node">
<title>6</title>
<ellipse fill="none" stroke="black" cx="1773.5" cy="-1490.86" rx="27" ry="30.31"/>
<text text-anchor="middle" x="1773.5" y="-1482.76" font-family="Times,serif" font-size="32.00">6</text>
</g>
<!-- d&#45;&gt;6 -->
<g id="edge71" class="edge">
<title>d&#45;&gt;6</title>
<path fill="none" stroke="#000000" d="M2488.22,-1447.39C2419.91,-1448.89 2230.45,-1453.71 2073,-1463.86 1978.12,-1469.97 1866.61,-1481.11 1810.55,-1486.99"/>
<polygon fill="#000000" stroke="#000000" points="1810,-1483.53 1800.42,-1488.06 1810.73,-1490.49 1810,-1483.53"/>
<text text-anchor="middle" x="2134.52" y="-1508.26" font-family="Times,serif" font-size="32.00">doubt</text>
<text text-anchor="middle" x="2134.52" y="-1473.26" font-family="Times,serif" font-size="32.00">=d *k 6</text>
</g>
<!-- for&#45;&gt;d -->
<g id="edge25" class="edge">
<title>for&#45;&gt;d</title>
<path fill="none" stroke="#000000" d="M2800.59,-1133.08C2746.27,-1131.08 2644.41,-1135.8 2585.69,-1191.86 2554.81,-1221.34 2532.18,-1342.76 2522.13,-1406.84"/>
<polygon fill="#000000" stroke="#000000" points="2518.63,-1406.56 2520.57,-1416.98 2525.55,-1407.63 2518.63,-1406.56"/>
<text text-anchor="middle" x="2684.19" y="-1306.26" font-family="Times,serif" font-size="32.00">hope_3 |</text>
<text text-anchor="middle" x="2684.19" y="-1271.26" font-family="Times,serif" font-size="32.00"> respect_1 |</text>
<text text-anchor="middle" x="2684.19" y="-1236.26" font-family="Times,serif" font-size="32.00"> disdain_1</text>
<text text-anchor="middle" x="2684.19" y="-1201.26" font-family="Times,serif" font-size="32.00">=for poss= d &#45;k</text>
</g>
<!-- 0 -->
<g id="node11" class="node">
<title>0</title>
<ellipse fill="none" stroke="black" cx="941" cy="-507.86" rx="27" ry="30.31"/>
<text text-anchor="middle" x="941" y="-499.76" font-family="Times,serif" font-size="32.00">0</text>
</g>
<!-- for&#45;&gt;0 -->
<g id="edge20" class="edge">
<title>for&#45;&gt;0</title>
<path fill="none" stroke="#000000" d="M2837.31,-1105.37C2837.72,-959.85 2836.28,-340.23 2782.69,-274.86 2705.02,-180.12 2638.86,-203.86 2516.36,-203.86 2516.36,-203.86 2516.36,-203.86 1563.5,-203.86 1327.15,-203.86 1231.2,-169.89 1043,-312.86 991.77,-351.77 964.2,-424.11 951.35,-468.9"/>
<polygon fill="#000000" stroke="#000000" points="947.97,-467.99 948.68,-478.56 954.72,-469.85 947.97,-467.99"/>
<text text-anchor="middle" x="1966" y="-248.26" font-family="Times,serif" font-size="32.00">hope</text>
<text text-anchor="middle" x="1966" y="-213.26" font-family="Times,serif" font-size="32.00">=for 0</text>
</g>
<!-- a -->
<g id="node12" class="node">
<title>a</title>
<ellipse fill="none" stroke="black" cx="1773.5" cy="-1737.86" rx="27" ry="30.31"/>
<text text-anchor="middle" x="1773.5" y="-1729.76" font-family="Times,serif" font-size="32.00">a</text>
</g>
<!-- for&#45;&gt;a -->
<g id="edge26" class="edge">
<title>for&#45;&gt;a</title>
<path fill="none" stroke="#000000" d="M2801.79,-1127.81C2666.58,-1097.93 2184.48,-999.86 2073,-1093.86 2036.8,-1124.38 2070.11,-1153.99 2055,-1198.86 2045.95,-1225.72 1854.33,-1587.5 1793.12,-1702.81"/>
<polygon fill="#000000" stroke="#000000" points="1789.87,-1701.46 1788.27,-1711.94 1796.05,-1704.75 1789.87,-1701.46"/>
<text text-anchor="middle" x="2329.54" y="-1110.26" font-family="Times,serif" font-size="32.00">hopeful</text>
<text text-anchor="middle" x="2329.54" y="-1075.26" font-family="Times,serif" font-size="32.00">=for a</text>
</g>
<!-- for&#45;&gt;1 -->
<g id="edge21" class="edge">
<title>for&#45;&gt;1</title>
<path fill="none" stroke="#000000" d="M2815.56,-1111.38C2806.18,-1101.84 2794.62,-1091.41 2782.69,-1083.86 2675.56,-1016.11 2643.11,-981.86 2516.36,-981.86 2516.36,-981.86 2516.36,-981.86 1772.5,-981.86 1625.59,-981.86 1450.7,-986.52 1376.12,-988.73"/>
<polygon fill="#000000" stroke="#000000" points="1375.75,-985.23 1365.86,-989.03 1375.96,-992.23 1375.75,-985.23"/>
<text text-anchor="middle" x="2134.52" y="-1026.26" font-family="Times,serif" font-size="32.00">hope_1</text>
<text text-anchor="middle" x="2134.52" y="-991.26" font-family="Times,serif" font-size="32.00">=for 1</text>
</g>
<!-- v -->
<g id="node14" class="node">
<title>v</title>
<ellipse fill="none" stroke="black" cx="248.5" cy="-1933.86" rx="27" ry="30.31"/>
<text text-anchor="middle" x="248.5" y="-1925.76" font-family="Times,serif" font-size="32.00">v</text>
</g>
<!-- for&#45;&gt;v -->
<g id="edge22" class="edge">
<title>for&#45;&gt;v</title>
<path fill="none" stroke="#000000" d="M2836.7,-1166.46C2834,-1334.25 2819.22,-2138.87 2782.69,-2242.86 2715.77,-2433.34 2718.26,-2610.86 2516.36,-2610.86 2516.36,-2610.86 2516.36,-2610.86 1337.5,-2610.86 1225,-2610.86 407.97,-2582.91 331,-2500.86 259.58,-2424.72 250.49,-2092.12 249.53,-1974.91"/>
<polygon fill="#000000" stroke="#000000" points="253.03,-1974.56 249.46,-1964.58 246.03,-1974.6 253.03,-1974.56"/>
<text text-anchor="middle" x="1564.5" y="-2655.26" font-family="Times,serif" font-size="32.00">hope_2</text>
<text text-anchor="middle" x="1564.5" y="-2620.26" font-family="Times,serif" font-size="32.00">=for =da v</text>
</g>
<!-- perf -->
<g id="node15" class="node">
<title>perf</title>
<ellipse fill="none" stroke="black" cx="601" cy="-1159.86" rx="48.17" ry="30.31"/>
<text text-anchor="middle" x="601" y="-1151.76" font-family="Times,serif" font-size="32.00">perf</text>
</g>
<!-- for&#45;&gt;perf -->
<g id="edge24" class="edge">
<title>for&#45;&gt;perf</title>
<path fill="none" stroke="#000000" d="M2831.81,-1105.84C2824.84,-1073.12 2810.14,-1020.42 2782.69,-982.86 2478.27,-566.35 2347.85,-444.73 1859,-279.86 1786.99,-255.57 1763.98,-277.93 1688,-279.86 1309.36,-289.49 1077.66,-161.01 857,-468.86 777.12,-580.3 652.14,-989.9 613.66,-1119.95"/>
<polygon fill="#000000" stroke="#000000" points="610.2,-1119.31 610.73,-1129.89 616.92,-1121.29 610.2,-1119.31"/>
<text text-anchor="middle" x="1773.5" y="-324.26" font-family="Times,serif" font-size="32.00">hopen</text>
<text text-anchor="middle" x="1773.5" y="-289.26" font-family="Times,serif" font-size="32.00">=for =da perf</text>
</g>
<!-- prog -->
<g id="node16" class="node">
<title>prog</title>
<ellipse fill="none" stroke="black" cx="941" cy="-1843.86" rx="52.15" ry="30.31"/>
<text text-anchor="middle" x="941" y="-1835.76" font-family="Times,serif" font-size="32.00">prog</text>
</g>
<!-- for&#45;&gt;prog -->
<g id="edge23" class="edge">
<title>for&#45;&gt;prog</title>
<path fill="none" stroke="#000000" d="M2835.59,-1166.25C2825.29,-1350.12 2760.03,-2305.86 2516.36,-2305.86 2516.36,-2305.86 2516.36,-2305.86 1563.5,-2305.86 1505.59,-2305.86 1084.26,-2320.49 1043,-2279.86 1021.1,-2258.29 1033.25,-2033.46 1025,-2003.86 1012.5,-1959 986.48,-1912.23 966.89,-1880.93"/>
<polygon fill="#000000" stroke="#000000" points="969.62,-1878.69 961.3,-1872.13 963.71,-1882.44 969.62,-1878.69"/>
<text text-anchor="middle" x="1966" y="-2350.26" font-family="Times,serif" font-size="32.00">hopeing</text>
<text text-anchor="middle" x="1966" y="-2315.26" font-family="Times,serif" font-size="32.00">=for =da prog</text>
</g>
<!-- of&#45;&gt;d -->
<g id="edge32" class="edge">
<title>of&#45;&gt;d</title>
<path fill="none" stroke="#000000" d="M2165,-1573.99C2232.89,-1576.1 2398.06,-1578.18 2445.04,-1550.86 2470.59,-1535.99 2488.58,-1507.5 2499.82,-1484.09"/>
<polygon fill="#000000" stroke="#000000" points="2503.11,-1485.3 2504.08,-1474.75 2496.74,-1482.39 2503.11,-1485.3"/>
<text text-anchor="middle" x="2329.54" y="-1760.26" font-family="Times,serif" font-size="32.00">boast_3 |</text>
<text text-anchor="middle" x="2329.54" y="-1725.26" font-family="Times,serif" font-size="32.00"> fear_1 |</text>
<text text-anchor="middle" x="2329.54" y="-1690.26" font-family="Times,serif" font-size="32.00"> neglect_1 |</text>
<text text-anchor="middle" x="2329.54" y="-1655.26" font-family="Times,serif" font-size="32.00"> scorn_1 |</text>
<text text-anchor="middle" x="2329.54" y="-1620.26" font-family="Times,serif" font-size="32.00"> doubt_1</text>
<text text-anchor="middle" x="2329.54" y="-1585.26" font-family="Times,serif" font-size="32.00">=of poss= d &#45;k</text>
</g>
<!-- of&#45;&gt;0 -->
<g id="edge27" class="edge">
<title>of&#45;&gt;0</title>
<path fill="none" stroke="#000000" d="M2105.51,-1563.74C2093.34,-1558.25 2080.24,-1549.94 2073,-1537.86 2041.86,-1485.88 2067.05,-1052.24 2055,-992.86 2006.77,-755.29 2004.58,-677.69 1859,-483.86 1801.67,-407.52 1749.35,-427.01 1688,-353.86 1676.76,-340.46 1684.93,-327.97 1670,-318.86 1628.27,-293.39 1097.02,-309.5 1043,-341.86 995.78,-370.15 967.72,-429.81 953.58,-469.37"/>
<polygon fill="#000000" stroke="#000000" points="950.23,-468.36 950.28,-478.96 956.85,-470.64 950.23,-468.36"/>
<text text-anchor="middle" x="1564.5" y="-363.26" font-family="Times,serif" font-size="32.00">boast</text>
<text text-anchor="middle" x="1564.5" y="-328.26" font-family="Times,serif" font-size="32.00">=of 0</text>
</g>
<!-- of&#45;&gt;a -->
<g id="edge33" class="edge">
<title>of&#45;&gt;a</title>
<path fill="none" stroke="#000000" d="M2105.12,-1564.61C2055.31,-1551.88 1950.54,-1532.91 1877,-1573.86 1829,-1600.59 1800.48,-1660.15 1786.16,-1699.65"/>
<polygon fill="#000000" stroke="#000000" points="1782.8,-1698.64 1782.81,-1709.23 1789.41,-1700.94 1782.8,-1698.64"/>
<text text-anchor="middle" x="1966" y="-1828.26" font-family="Times,serif" font-size="32.00">boastful |</text>
<text text-anchor="middle" x="1966" y="-1793.26" font-family="Times,serif" font-size="32.00"> fearful |</text>
<text text-anchor="middle" x="1966" y="-1758.26" font-family="Times,serif" font-size="32.00"> neglectful |</text>
<text text-anchor="middle" x="1966" y="-1723.26" font-family="Times,serif" font-size="32.00"> scornful |</text>
<text text-anchor="middle" x="1966" y="-1688.26" font-family="Times,serif" font-size="32.00"> respectful |</text>
<text text-anchor="middle" x="1966" y="-1653.26" font-family="Times,serif" font-size="32.00"> disdainful |</text>
<text text-anchor="middle" x="1966" y="-1618.26" font-family="Times,serif" font-size="32.00"> doubtful</text>
<text text-anchor="middle" x="1966" y="-1583.26" font-family="Times,serif" font-size="32.00">=of a</text>
</g>
<!-- of&#45;&gt;1 -->
<g id="edge28" class="edge">
<title>of&#45;&gt;1</title>
<path fill="none" stroke="#000000" d="M2106.88,-1560.09C2095.82,-1554.14 2083.21,-1546.46 2073,-1537.86 1959.35,-1442.06 1988.88,-1353.13 1859,-1280.86 1702.14,-1193.57 1584.53,-1353.18 1459,-1224.86 1435.06,-1200.39 1457.54,-1101.83 1441,-1071.86 1425.35,-1043.49 1395.51,-1021.23 1372.21,-1007.1"/>
<polygon fill="#000000" stroke="#000000" points="1373.73,-1003.93 1363.33,-1001.91 1370.2,-1009.98 1373.73,-1003.93"/>
<text text-anchor="middle" x="1773.5" y="-1325.26" font-family="Times,serif" font-size="32.00">boast_1</text>
<text text-anchor="middle" x="1773.5" y="-1290.26" font-family="Times,serif" font-size="32.00">=of 1</text>
</g>
<!-- of&#45;&gt;v -->
<g id="edge29" class="edge">
<title>of&#45;&gt;v</title>
<path fill="none" stroke="#000000" d="M2126.96,-1602.5C2114.87,-1657.91 2088.89,-1781.07 2073,-1885.86 2067.54,-1921.89 2073.12,-2017.24 2055,-2048.86 1999.65,-2145.46 1585.22,-2430.15 1441,-2473.86 1353.81,-2500.28 1312.51,-2523.33 1236,-2473.86 1219.63,-2463.27 1233.51,-2445.67 1218,-2433.86 1088.84,-2335.48 1011.8,-2426.83 857,-2377.86 696.3,-2327.02 666.32,-2288.04 517,-2209.86 433.28,-2166.03 395.6,-2175.83 331,-2106.86 294.75,-2068.15 272.01,-2010.4 260.03,-1972.43"/>
<polygon fill="#000000" stroke="#000000" points="263.34,-1971.3 257.07,-1962.76 256.65,-1973.34 263.34,-1971.3"/>
<text text-anchor="middle" x="1130.5" y="-2478.26" font-family="Times,serif" font-size="32.00">boast_2</text>
<text text-anchor="middle" x="1130.5" y="-2443.26" font-family="Times,serif" font-size="32.00">=of =da v</text>
</g>
<!-- of&#45;&gt;perf -->
<g id="edge31" class="edge">
<title>of&#45;&gt;perf</title>
<path fill="none" stroke="#000000" d="M2129.39,-1603.13C2119.77,-1668.87 2093.71,-1821.39 2055,-1853.86 2028.74,-1875.88 1475.23,-1912.19 1441,-1913.86 1350,-1918.29 1317.5,-1954.58 1236,-1913.86 1096.29,-1844.05 1132.6,-1746.05 1025,-1632.86 950.86,-1554.86 922.17,-1546.14 839,-1477.86 778.92,-1428.53 751.36,-1428.73 703,-1367.86 661.44,-1315.55 631.24,-1243.36 615.18,-1199.23"/>
<polygon fill="#000000" stroke="#000000" points="618.45,-1197.96 611.78,-1189.72 611.85,-1200.32 618.45,-1197.96"/>
<text text-anchor="middle" x="1338.5" y="-1978.26" font-family="Times,serif" font-size="32.00">boastn</text>
<text text-anchor="middle" x="1338.5" y="-1943.26" font-family="Times,serif" font-size="32.00">=of =da perf</text>
</g>
<!-- of&#45;&gt;prog -->
<g id="edge30" class="edge">
<title>of&#45;&gt;prog</title>
<path fill="none" stroke="#000000" d="M2129.91,-1603.16C2120.96,-1673.2 2095.48,-1843.3 2055,-1881.86 2006.07,-1928.47 1517.26,-1968.63 1459,-2002.86 1448.4,-2009.09 1452.17,-2018.72 1441,-2023.86 1272.81,-2101.21 1061.08,-1946.11 977.89,-1875.91"/>
<polygon fill="#000000" stroke="#000000" points="980.13,-1873.22 970.25,-1869.39 975.59,-1878.54 980.13,-1873.22"/>
<text text-anchor="middle" x="1564.5" y="-2047.26" font-family="Times,serif" font-size="32.00">boasting</text>
<text text-anchor="middle" x="1564.5" y="-2012.26" font-family="Times,serif" font-size="32.00">=of =da prog</text>
</g>
<!-- about&#45;&gt;d -->
<g id="edge39" class="edge">
<title>about&#45;&gt;d</title>
<path fill="none" stroke="#000000" d="M2191.33,-1936.72C2260.56,-1947.85 2377.68,-1954.4 2445.04,-1889.86 2502.32,-1834.97 2512.33,-1586.66 2514.04,-1487.72"/>
<polygon fill="#000000" stroke="#000000" points="2517.54,-1487.57 2514.19,-1477.52 2510.54,-1487.47 2517.54,-1487.57"/>
<text text-anchor="middle" x="2329.54" y="-2024.26" font-family="Times,serif" font-size="32.00">boast_7 |</text>
<text text-anchor="middle" x="2329.54" y="-1989.26" font-family="Times,serif" font-size="32.00"> doubt_2</text>
<text text-anchor="middle" x="2329.54" y="-1954.26" font-family="Times,serif" font-size="32.00">=about poss= d &#45;k</text>
</g>
<!-- about&#45;&gt;0 -->
<g id="edge34" class="edge">
<title>about&#45;&gt;0</title>
<path fill="none" stroke="#000000" d="M2125.96,-1894.45C2112.51,-1838.8 2084.73,-1716.64 2073,-1611.86 2066.04,-1549.66 2073.3,-1108.71 2055,-1048.86 2011.56,-906.76 1925.11,-906.44 1877,-765.86 1850.54,-688.54 1896.33,-655.56 1859,-582.86 1812.82,-492.93 1755.97,-507.69 1688,-432.86 1678.79,-422.72 1681.89,-414.64 1670,-407.86 1588.21,-361.21 1543.74,-429.91 1459,-388.86 1448.53,-383.79 1451.69,-374.45 1441,-369.86 1357.3,-333.86 1327.09,-367.97 1236,-369.86 1150.17,-371.64 1119.31,-338.53 1043,-377.86 1003.98,-397.97 975.42,-440.75 958.82,-471.76"/>
<polygon fill="#000000" stroke="#000000" points="955.54,-470.47 954.05,-480.96 961.76,-473.69 955.54,-470.47"/>
<text text-anchor="middle" x="1564.5" y="-452.26" font-family="Times,serif" font-size="32.00">boast_4</text>
<text text-anchor="middle" x="1564.5" y="-417.26" font-family="Times,serif" font-size="32.00">=about 0</text>
</g>
<!-- about&#45;&gt;a -->
<g id="edge40" class="edge">
<title>about&#45;&gt;a</title>
<path fill="none" stroke="#000000" d="M2076.52,-1935.05C2021.34,-1941.83 1937.41,-1943.71 1877,-1906.86 1828.83,-1877.47 1800.25,-1816.1 1785.97,-1775.97"/>
<polygon fill="#000000" stroke="#000000" points="1789.28,-1774.83 1782.73,-1766.5 1782.66,-1777.1 1789.28,-1774.83"/>
<text text-anchor="middle" x="1966" y="-2019.26" font-family="Times,serif" font-size="32.00">boastful_1 |</text>
<text text-anchor="middle" x="1966" y="-1984.26" font-family="Times,serif" font-size="32.00"> doubtful_1</text>
<text text-anchor="middle" x="1966" y="-1949.26" font-family="Times,serif" font-size="32.00">=about a</text>
</g>
<!-- about&#45;&gt;1 -->
<g id="edge35" class="edge">
<title>about&#45;&gt;1</title>
<path fill="none" stroke="#000000" d="M2078.37,-1912.21C2004.92,-1895.12 1883.41,-1865.84 1877,-1857.86 1843.86,-1816.59 1893.68,-1421.84 1859,-1381.86 1808.38,-1323.52 1751.22,-1395.23 1688,-1350.86 1674.96,-1341.7 1682.71,-1329.47 1670,-1319.86 1592.8,-1261.46 1521.83,-1339.5 1459,-1265.86 1430.9,-1232.92 1461.45,-1110.02 1441,-1071.86 1425.7,-1043.3 1395.82,-1021.06 1372.42,-1006.99"/>
<polygon fill="#000000" stroke="#000000" points="1373.9,-1003.8 1363.49,-1001.82 1370.39,-1009.86 1373.9,-1003.8"/>
<text text-anchor="middle" x="1773.5" y="-1426.26" font-family="Times,serif" font-size="32.00">boast_5</text>
<text text-anchor="middle" x="1773.5" y="-1391.26" font-family="Times,serif" font-size="32.00">=about 1</text>
</g>
<!-- about&#45;&gt;v -->
<g id="edge36" class="edge">
<title>about&#45;&gt;v</title>
<path fill="none" stroke="#000000" d="M2124.44,-1954.95C2110.89,-2001.14 2085.63,-2092.5 2073,-2171.86 2064.66,-2224.24 2086.12,-2366.91 2055,-2409.86 1975.84,-2519.1 1909.41,-2525.86 1774.5,-2525.86 1774.5,-2525.86 1774.5,-2525.86 600,-2525.86 475.4,-2525.86 413.29,-2540.43 331,-2446.86 269.19,-2376.57 254.03,-2082.96 250.51,-1974.42"/>
<polygon fill="#000000" stroke="#000000" points="254,-1974.09 250.2,-1964.21 247,-1974.31 254,-1974.09"/>
<text text-anchor="middle" x="1130.5" y="-2570.26" font-family="Times,serif" font-size="32.00">boast_6</text>
<text text-anchor="middle" x="1130.5" y="-2535.26" font-family="Times,serif" font-size="32.00">=about =da v</text>
</g>
<!-- about&#45;&gt;perf -->
<g id="edge38" class="edge">
<title>about&#45;&gt;perf</title>
<path fill="none" stroke="#000000" d="M2124.56,-1954.97C2111.17,-2001.18 2086.11,-2092.58 2073,-2171.86 2069.27,-2194.42 2071.86,-2361.41 2055,-2376.86 2005.8,-2421.93 1230.36,-2491.11 1043,-2304.86 1012.14,-2274.18 1048.06,-2146.76 1025,-2109.86 978.7,-2035.78 925.36,-2062.23 857,-2007.86 780.26,-1946.82 746.44,-1937.77 703,-1849.86 645.68,-1733.86 613.67,-1330.56 604.66,-1200.57"/>
<polygon fill="#000000" stroke="#000000" points="608.13,-1200.01 603.96,-1190.27 601.15,-1200.49 608.13,-1200.01"/>
<text text-anchor="middle" x="1338.5" y="-2466.26" font-family="Times,serif" font-size="32.00">boastn_1</text>
<text text-anchor="middle" x="1338.5" y="-2431.26" font-family="Times,serif" font-size="32.00">=about =da perf</text>
</g>
<!-- about&#45;&gt;prog -->
<g id="edge37" class="edge">
<title>about&#45;&gt;prog</title>
<path fill="none" stroke="#000000" d="M2123.87,-1955.08C2112.57,-1984.85 2090.73,-2028.7 2055,-2048.86 2006.03,-2076.49 1085.48,-2098.7 1043,-2061.86 1021.63,-2043.33 1037,-1961.47 1025,-1935.86 1014.32,-1913.05 996.05,-1891.86 979.37,-1875.58"/>
<polygon fill="#000000" stroke="#000000" points="981.51,-1872.8 971.84,-1868.46 976.7,-1877.88 981.51,-1872.8"/>
<text text-anchor="middle" x="1564.5" y="-2125.26" font-family="Times,serif" font-size="32.00">boasting_1</text>
<text text-anchor="middle" x="1564.5" y="-2090.26" font-family="Times,serif" font-size="32.00">=about =da prog</text>
</g>
<!-- 0&#45;&gt;t -->
<g id="edge7" class="edge">
<title>0&#45;&gt;t</title>
<path fill="none" stroke="#000000" d="M913.75,-505.69C799.42,-497.69 338.78,-480.68 72,-697.86 56.86,-710.19 46.43,-729.07 39.54,-746.1"/>
<polygon fill="#000000" stroke="#000000" points="36.12,-745.25 35.88,-755.84 42.67,-747.71 36.12,-745.25"/>
<text text-anchor="middle" x="415" y="-609.26" font-family="Times,serif" font-size="32.00">s</text>
<text text-anchor="middle" x="415" y="-574.26" font-family="Times,serif" font-size="32.00">=&gt;0 =da +k t</text>
</g>
<!-- a&#45;&gt;0 -->
<g id="edge8" class="edge">
<title>a&#45;&gt;0</title>
<path fill="none" stroke="#000000" d="M1746.15,-1738.74C1677.75,-1740.41 1497.18,-1740.69 1459,-1698.86 1417.56,-1653.45 1480.27,-1193.16 1441,-1145.86 1325.28,-1006.47 1159.88,-1196.27 1043,-1057.86 1016.8,-1026.83 1034.47,-732.34 1025,-692.86 1011.69,-637.4 981.98,-578.03 961.96,-541.93"/>
<polygon fill="#000000" stroke="#000000" points="964.8,-539.82 956.85,-532.82 958.7,-543.25 964.8,-539.82"/>
<text text-anchor="middle" x="1338.5" y="-1190.26" font-family="Times,serif" font-size="32.00">be</text>
<text text-anchor="middle" x="1338.5" y="-1155.26" font-family="Times,serif" font-size="32.00">=a 0</text>
</g>
<!-- a&#45;&gt;1 -->
<g id="edge10" class="edge">
<title>a&#45;&gt;1</title>
<path fill="none" stroke="#000000" d="M1763.86,-1709.31C1749.91,-1667.12 1718.94,-1587.55 1670,-1535.86 1595.52,-1457.2 1515.58,-1506.23 1459,-1413.86 1419.25,-1348.96 1475.6,-1139.64 1441,-1071.86 1426.27,-1043 1396.32,-1020.79 1372.75,-1006.81"/>
<polygon fill="#000000" stroke="#000000" points="1374.18,-1003.6 1363.76,-1001.68 1370.71,-1009.68 1374.18,-1003.6"/>
<text text-anchor="middle" x="1564.5" y="-1580.26" font-family="Times,serif" font-size="32.00">be_1</text>
<text text-anchor="middle" x="1564.5" y="-1545.26" font-family="Times,serif" font-size="32.00">=a 1</text>
</g>
<!-- a&#45;&gt;v -->
<g id="edge11" class="edge">
<title>a&#45;&gt;v</title>
<path fill="none" stroke="#000000" d="M1769.3,-1768.18C1759.73,-1852.37 1728.31,-2085.81 1670,-2130.86 1640.97,-2153.28 834.14,-2140.23 517,-2063.86 425.56,-2041.84 328.81,-1985.33 280.6,-1954.57"/>
<polygon fill="#000000" stroke="#000000" points="282.48,-1951.61 272.18,-1949.14 278.69,-1957.5 282.48,-1951.61"/>
<text text-anchor="middle" x="941" y="-2170.26" font-family="Times,serif" font-size="32.00">be_2</text>
<text text-anchor="middle" x="941" y="-2135.26" font-family="Times,serif" font-size="32.00">=a =da v</text>
</g>
<!-- a&#45;&gt;perf -->
<g id="edge12" class="edge">
<title>a&#45;&gt;perf</title>
<path fill="none" stroke="#000000" d="M1746.38,-1741.87C1678.54,-1751.64 1499.21,-1773.12 1459,-1733.86 1420.02,-1695.8 1480.22,-1281.67 1441,-1243.86 1408.2,-1212.24 1278.09,-1226.42 1236,-1243.86 1225.55,-1248.19 1227.95,-1256.46 1218,-1261.86 1148.12,-1299.75 1112.37,-1260.02 1043,-1298.86 1032.85,-1304.54 1035.69,-1313.26 1025,-1317.86 956.41,-1347.36 928.81,-1338.3 857,-1317.86 770.11,-1293.12 683.89,-1229.36 637.33,-1190.82"/>
<polygon fill="#000000" stroke="#000000" points="639.57,-1188.13 629.66,-1184.4 635.08,-1193.5 639.57,-1188.13"/>
<text text-anchor="middle" x="1130.5" y="-1343.26" font-family="Times,serif" font-size="32.00">ben</text>
<text text-anchor="middle" x="1130.5" y="-1308.26" font-family="Times,serif" font-size="32.00">=a =da perf</text>
</g>
<!-- a&#45;&gt;prog -->
<g id="edge13" class="edge">
<title>a&#45;&gt;prog</title>
<path fill="none" stroke="#000000" d="M1748.13,-1748.81C1727.66,-1757.6 1697.43,-1769.63 1670,-1776.86 1429.45,-1840.24 1130.53,-1845.84 1003.6,-1844.99"/>
<polygon fill="#000000" stroke="#000000" points="1003.34,-1841.48 993.31,-1844.9 1003.28,-1848.48 1003.34,-1841.48"/>
<text text-anchor="middle" x="1338.5" y="-1884.26" font-family="Times,serif" font-size="32.00">being</text>
<text text-anchor="middle" x="1338.5" y="-1849.26" font-family="Times,serif" font-size="32.00">=a =da prog</text>
</g>
<!-- 1&#45;&gt;t -->
<g id="edge9" class="edge">
<title>1&#45;&gt;t</title>
<path fill="none" stroke="#000000" d="M1311.24,-987.7C1288.19,-984.39 1255.39,-976.02 1236,-954.86 1213.71,-930.54 1243.14,-904.21 1218,-882.86 1172.83,-844.5 258.82,-796.47 64.23,-786.66"/>
<polygon fill="#000000" stroke="#000000" points="64.14,-783.15 53.98,-786.14 63.79,-790.14 64.14,-783.15"/>
<text text-anchor="middle" x="601" y="-867.26" font-family="Times,serif" font-size="32.00">d</text>
<text text-anchor="middle" x="601" y="-832.26" font-family="Times,serif" font-size="32.00">=&gt;1 =da +k t</text>
</g>
<!-- 1&#45;&gt;0 -->
<g id="edge59" class="edge">
<title>1&#45;&gt;0</title>
<path fill="none" stroke="#000000" d="M1316.74,-971.74C1293.24,-950 1255.68,-911.26 1236,-869.86 1217.36,-830.65 1249.52,-803.7 1218,-773.86 1161.03,-719.92 1102.99,-801.41 1043,-750.86 1022.36,-733.46 1034.54,-718.11 1025,-692.86 1004.95,-639.81 977.27,-580.26 959.5,-543.41"/>
<polygon fill="#000000" stroke="#000000" points="962.49,-541.56 954.98,-534.09 956.19,-544.61 962.49,-541.56"/>
<text text-anchor="middle" x="1130.5" y="-818.26" font-family="Times,serif" font-size="32.00">ε_9</text>
<text text-anchor="middle" x="1130.5" y="-783.26" font-family="Times,serif" font-size="32.00">=&gt;1 0</text>
</g>
<!-- 1&#45;&gt;v -->
<g id="edge61" class="edge">
<title>1&#45;&gt;v</title>
<path fill="none" stroke="#000000" d="M1311.82,-995.15C1289.16,-1001.03 1256.61,-1012.65 1236,-1033.86 1220.99,-1049.31 1233.26,-1063.65 1218,-1078.86 1095.77,-1200.68 1010.11,-1142.24 857,-1221.86 608.74,-1350.95 489.93,-1337.55 331,-1567.86 260.87,-1669.48 249.92,-1821.43 248.96,-1893.35"/>
<polygon fill="#000000" stroke="#000000" points="245.46,-1893.34 248.88,-1903.36 252.46,-1893.39 245.46,-1893.34"/>
<text text-anchor="middle" x="771" y="-1338.26" font-family="Times,serif" font-size="32.00">ε_10</text>
<text text-anchor="middle" x="771" y="-1303.26" font-family="Times,serif" font-size="32.00">=&gt;1 =da v</text>
</g>
<!-- 1&#45;&gt;perf -->
<g id="edge63" class="edge">
<title>1&#45;&gt;perf</title>
<path fill="none" stroke="#000000" d="M1312.06,-997.3C1290.46,-1004.43 1259.34,-1016.64 1236,-1033.86 1226.11,-1041.16 1229.01,-1049.4 1218,-1054.86 1146,-1090.54 935.94,-1060.83 857,-1075.86 783.44,-1089.86 701.79,-1119.37 651.16,-1139.41"/>
<polygon fill="#000000" stroke="#000000" points="649.76,-1136.2 641.77,-1143.16 652.36,-1142.7 649.76,-1136.2"/>
<text text-anchor="middle" x="941" y="-1120.26" font-family="Times,serif" font-size="32.00">n_3</text>
<text text-anchor="middle" x="941" y="-1085.26" font-family="Times,serif" font-size="32.00">=&gt;1 =da perf</text>
</g>
<!-- 1&#45;&gt;prog -->
<g id="edge62" class="edge">
<title>1&#45;&gt;prog</title>
<path fill="none" stroke="#000000" d="M1313.29,-1001.71C1288.98,-1015.06 1252.8,-1039.23 1236,-1071.86 1205.32,-1131.43 1260.21,-1320.81 1218,-1372.86 1167.2,-1435.5 1093.76,-1358.18 1043,-1420.86 1021.43,-1447.5 1036.49,-1696.56 1025,-1728.86 1014.2,-1759.23 992.73,-1788.61 974.34,-1810.08"/>
<polygon fill="#000000" stroke="#000000" points="971.69,-1807.79 967.73,-1817.61 976.96,-1812.4 971.69,-1807.79"/>
<text text-anchor="middle" x="1130.5" y="-1465.26" font-family="Times,serif" font-size="32.00">ing_3</text>
<text text-anchor="middle" x="1130.5" y="-1430.26" font-family="Times,serif" font-size="32.00">=&gt;1 =da prog</text>
</g>
<!-- v&#45;&gt;t -->
<g id="edge14" class="edge">
<title>v&#45;&gt;t</title>
<path fill="none" stroke="#000000" d="M241.85,-1904.3C211.72,-1746.57 69.95,-1004.47 35.54,-824.33"/>
<polygon fill="#000000" stroke="#000000" points="38.97,-823.65 33.66,-814.48 32.1,-824.96 38.97,-823.65"/>
<text text-anchor="middle" x="119" y="-1576.26" font-family="Times,serif" font-size="32.00">wills |</text>
<text text-anchor="middle" x="119" y="-1541.26" font-family="Times,serif" font-size="32.00"> willd</text>
<text text-anchor="middle" x="119" y="-1506.26" font-family="Times,serif" font-size="32.00">=v +k t</text>
</g>
<!-- perf&#45;&gt;t -->
<g id="edge15" class="edge">
<title>perf&#45;&gt;t</title>
<path fill="none" stroke="#000000" d="M566.77,-1138.08C464.94,-1071.31 158.08,-870.14 59.12,-805.26"/>
<polygon fill="#000000" stroke="#000000" points="61.02,-802.32 50.74,-799.77 57.19,-808.18 61.02,-802.32"/>
<text text-anchor="middle" x="248.5" y="-1046.26" font-family="Times,serif" font-size="32.00">haves |</text>
<text text-anchor="middle" x="248.5" y="-1011.26" font-family="Times,serif" font-size="32.00"> haved</text>
<text text-anchor="middle" x="248.5" y="-976.26" font-family="Times,serif" font-size="32.00">=perf +k t</text>
</g>
<!-- perf&#45;&gt;v -->
<g id="edge16" class="edge">
<title>perf&#45;&gt;v</title>
<path fill="none" stroke="#000000" d="M553,-1162.75C491.49,-1169.25 385.18,-1190.36 331,-1258.86 252.75,-1357.8 248.35,-1762.07 249.03,-1892.84"/>
<polygon fill="#000000" stroke="#000000" points="245.53,-1893.23 249.1,-1903.21 252.53,-1893.18 245.53,-1893.23"/>
<text text-anchor="middle" x="415" y="-1303.26" font-family="Times,serif" font-size="32.00">have</text>
<text text-anchor="middle" x="415" y="-1268.26" font-family="Times,serif" font-size="32.00">=perf v</text>
</g>
<!-- prog&#45;&gt;t -->
<g id="edge17" class="edge">
<title>prog&#45;&gt;t</title>
<path fill="none" stroke="#000000" d="M923.69,-1872.76C905.85,-1902.44 874.95,-1948.6 839,-1979.86 780.16,-2031.01 760.55,-2044.59 685,-2063.86 465.71,-2119.78 346.36,-2130.51 184,-1972.86 61.65,-1854.06 101.67,-1773.79 72,-1605.86 45.05,-1453.3 32.17,-969.18 28.87,-825.46"/>
<polygon fill="#000000" stroke="#000000" points="32.37,-825.24 28.64,-815.32 25.37,-825.4 32.37,-825.24"/>
<text text-anchor="middle" x="415" y="-2181.26" font-family="Times,serif" font-size="32.00">bes |</text>
<text text-anchor="middle" x="415" y="-2146.26" font-family="Times,serif" font-size="32.00"> bed</text>
<text text-anchor="middle" x="415" y="-2111.26" font-family="Times,serif" font-size="32.00">=prog +k t</text>
</g>
<!-- prog&#45;&gt;v -->
<g id="edge18" class="edge">
<title>prog&#45;&gt;v</title>
<path fill="none" stroke="#000000" d="M922.02,-1872.55C904.38,-1897.74 874.93,-1932.67 839,-1947.86 643.83,-2030.38 378.88,-1970.3 284.58,-1944.27"/>
<polygon fill="#000000" stroke="#000000" points="285.29,-1940.84 274.71,-1941.5 283.39,-1947.57 285.29,-1940.84"/>
<text text-anchor="middle" x="601" y="-2034.26" font-family="Times,serif" font-size="32.00">be_3</text>
<text text-anchor="middle" x="601" y="-1999.26" font-family="Times,serif" font-size="32.00">=prog v</text>
</g>
<!-- prog&#45;&gt;perf -->
<g id="edge19" class="edge">
<title>prog&#45;&gt;perf</title>
<path fill="none" stroke="#000000" d="M918.89,-1815.95C901.72,-1792.93 877.13,-1759.24 857,-1728.86 784.09,-1618.8 757.75,-1594.99 703,-1474.86 659.77,-1380.01 627.07,-1261.32 611.7,-1200.27"/>
<polygon fill="#000000" stroke="#000000" points="615.02,-1199.12 609.21,-1190.26 608.23,-1200.81 615.02,-1199.12"/>
<text text-anchor="middle" x="771" y="-1743.26" font-family="Times,serif" font-size="32.00">ben_1</text>
<text text-anchor="middle" x="771" y="-1708.26" font-family="Times,serif" font-size="32.00">=prog perf</text>
</g>
<!-- 2&#45;&gt;0 -->
<g id="edge41" class="edge">
<title>2&#45;&gt;0</title>
<path fill="none" stroke="#000000" d="M1765,-2126.69C1751.67,-2078.68 1720.39,-1981.51 1670,-1912.86 1597.23,-1813.72 1515.75,-1842.96 1459,-1733.86 1438.92,-1695.25 1470.56,-1570.79 1441,-1538.86 1378.21,-1471.03 1298.43,-1572.02 1236,-1503.86 1202.72,-1467.52 1249.25,-1320.96 1218,-1282.86 1166.71,-1220.31 1092.78,-1296.62 1043,-1232.86 1024.53,-1209.2 1031.77,-722.1 1025,-692.86 1012.13,-637.29 982.31,-577.96 962.14,-541.88"/>
<polygon fill="#000000" stroke="#000000" points="964.96,-539.76 956.99,-532.79 958.87,-543.21 964.96,-539.76"/>
<text text-anchor="middle" x="1338.5" y="-1583.26" font-family="Times,serif" font-size="32.00">ε_0</text>
<text text-anchor="middle" x="1338.5" y="-1548.26" font-family="Times,serif" font-size="32.00">=&gt;2 0</text>
</g>
<!-- 2&#45;&gt;1 -->
<g id="edge43" class="edge">
<title>2&#45;&gt;1</title>
<path fill="none" stroke="#000000" d="M1771.61,-2125.47C1768.18,-2054.68 1751.44,-1875.75 1670,-1756.86 1604.83,-1661.72 1513.44,-1707.52 1459,-1605.86 1430.97,-1553.52 1467.49,-1124.99 1441,-1071.86 1426.48,-1042.74 1396.3,-1020.48 1372.6,-1006.55"/>
<polygon fill="#000000" stroke="#000000" points="1374.31,-1003.49 1363.88,-1001.62 1370.87,-1009.59 1374.31,-1003.49"/>
<text text-anchor="middle" x="1564.5" y="-1801.26" font-family="Times,serif" font-size="32.00">ε_1</text>
<text text-anchor="middle" x="1564.5" y="-1766.26" font-family="Times,serif" font-size="32.00">=&gt;2 1</text>
</g>
<!-- 2&#45;&gt;v -->
<g id="edge44" class="edge">
<title>2&#45;&gt;v</title>
<path fill="none" stroke="#000000" d="M1750.88,-2172.5C1723.52,-2193.43 1678.88,-2227.1 1670,-2230.86 1411.43,-2340.25 1319.13,-2358.63 1043,-2307.86 709.99,-2246.63 604.08,-2237.03 331,-2036.86 305.67,-2018.29 284.01,-1989.89 269.4,-1967.61"/>
<polygon fill="#000000" stroke="#000000" points="272.29,-1965.64 263.96,-1959.1 266.39,-1969.41 272.29,-1965.64"/>
<text text-anchor="middle" x="941" y="-2348.26" font-family="Times,serif" font-size="32.00">ε_2</text>
<text text-anchor="middle" x="941" y="-2313.26" font-family="Times,serif" font-size="32.00">=&gt;2 =da v</text>
</g>
<!-- 2&#45;&gt;perf -->
<g id="edge46" class="edge">
<title>2&#45;&gt;perf</title>
<path fill="none" stroke="#000000" d="M1747.59,-2164.97C1692.99,-2184.4 1558.27,-2229.39 1441,-2244.86 1350.67,-2256.77 1324.2,-2267.71 1236,-2244.86 1227.14,-2242.56 1226.05,-2239.21 1218,-2234.86 1140.7,-2193.07 1097.06,-2212.13 1043,-2142.86 1022.18,-2116.17 1042.2,-2098.01 1025,-2068.86 1025,-2068.86 703,-1772.86 703,-1772.86 648.87,-1672.69 615.33,-1320.8 605.23,-1200.52"/>
<polygon fill="#000000" stroke="#000000" points="608.7,-1199.96 604.38,-1190.28 601.72,-1200.53 608.7,-1199.96"/>
<text text-anchor="middle" x="1130.5" y="-2279.26" font-family="Times,serif" font-size="32.00">n</text>
<text text-anchor="middle" x="1130.5" y="-2244.26" font-family="Times,serif" font-size="32.00">=&gt;2 =da perf</text>
</g>
<!-- 2&#45;&gt;prog -->
<g id="edge45" class="edge">
<title>2&#45;&gt;prog</title>
<path fill="none" stroke="#000000" d="M1746.33,-2158.07C1628.1,-2167.46 1145.1,-2199.16 1043,-2099.86 1016.72,-2074.3 1040.01,-1969.31 1025,-1935.86 1014.69,-1912.88 996.45,-1891.68 979.7,-1875.43"/>
<polygon fill="#000000" stroke="#000000" points="981.82,-1872.63 972.13,-1868.33 977.03,-1877.73 981.82,-1872.63"/>
<text text-anchor="middle" x="1338.5" y="-2215.26" font-family="Times,serif" font-size="32.00">ing</text>
<text text-anchor="middle" x="1338.5" y="-2180.26" font-family="Times,serif" font-size="32.00">=&gt;2 =da prog</text>
</g>
<!-- 3&#45;&gt;0 -->
<g id="edge47" class="edge">
<title>3&#45;&gt;0</title>
<path fill="none" stroke="#000000" d="M1765.51,-1137.75C1746.56,-1059.92 1694.02,-851.51 1670,-830.86 1598.14,-769.05 1527.33,-865.55 1459,-799.86 1427.7,-769.77 1473.41,-732.74 1441,-703.86 1308.61,-585.89 1194.19,-768.52 1043,-675.86 995.52,-646.76 967.47,-586.22 953.41,-546.32"/>
<polygon fill="#000000" stroke="#000000" points="956.66,-545 950.14,-536.66 950.03,-547.25 956.66,-545"/>
<text text-anchor="middle" x="1338.5" y="-748.26" font-family="Times,serif" font-size="32.00">ε_3</text>
<text text-anchor="middle" x="1338.5" y="-713.26" font-family="Times,serif" font-size="32.00">=&gt;3 0</text>
</g>
<!-- 3&#45;&gt;1 -->
<g id="edge49" class="edge">
<title>3&#45;&gt;1</title>
<path fill="none" stroke="#000000" d="M1746.66,-1163.26C1679.52,-1153.42 1501.75,-1124.18 1459,-1084.86 1441.31,-1068.59 1457.39,-1051.44 1441,-1033.86 1423.59,-1015.18 1396.88,-1004.04 1375.24,-997.64"/>
<polygon fill="#000000" stroke="#000000" points="1375.96,-994.21 1365.39,-994.95 1374.11,-1000.96 1375.96,-994.21"/>
<text text-anchor="middle" x="1564.5" y="-1195.26" font-family="Times,serif" font-size="32.00">ε_4</text>
<text text-anchor="middle" x="1564.5" y="-1160.26" font-family="Times,serif" font-size="32.00">=&gt;3 1</text>
</g>
<!-- 3&#45;&gt;v -->
<g id="edge50" class="edge">
<title>3&#45;&gt;v</title>
<path fill="none" stroke="#000000" d="M1749.87,-1182.02C1693.29,-1217.88 1544.09,-1299.5 1459,-1224.86 1412.83,-1184.36 1487.17,-1128.36 1441,-1087.86 1372.51,-1027.78 1304.36,-1027.62 1236,-1087.86 1188.27,-1129.92 1262.24,-1184.15 1218,-1229.86 1163.22,-1286.45 1111.13,-1218.33 1043,-1257.86 928.99,-1324.01 914.45,-1370.22 857,-1488.86 841.31,-1521.27 862.31,-1540.41 839,-1567.86 813.99,-1597.3 552.26,-1683.08 517,-1698.86 432.99,-1736.44 398,-1726.76 331,-1789.86 299.25,-1819.75 276.5,-1864.83 263.24,-1896.56"/>
<polygon fill="#000000" stroke="#000000" points="259.94,-1895.37 259.43,-1905.96 266.43,-1898.01 259.94,-1895.37"/>
<text text-anchor="middle" x="941" y="-1533.26" font-family="Times,serif" font-size="32.00">ε_5</text>
<text text-anchor="middle" x="941" y="-1498.26" font-family="Times,serif" font-size="32.00">=&gt;3 =da v</text>
</g>
<!-- 3&#45;&gt;perf -->
<g id="edge52" class="edge">
<title>3&#45;&gt;perf</title>
<path fill="none" stroke="#000000" d="M1752.74,-1147.15C1704.63,-1100.85 1575.49,-986.37 1441,-950.86 1352.91,-927.6 1323.71,-926.18 1236,-950.86 1226.97,-953.4 1226.87,-958.83 1218,-961.86 1143.94,-987.09 1119.8,-965.95 1043,-980.86 888.86,-1010.77 842.16,-1004.14 703,-1076.86 678.01,-1089.92 653.48,-1109.85 634.86,-1126.91"/>
<polygon fill="#000000" stroke="#000000" points="632.17,-1124.63 627.26,-1134.02 636.95,-1129.75 632.17,-1124.63"/>
<text text-anchor="middle" x="1130.5" y="-1025.26" font-family="Times,serif" font-size="32.00">n_1</text>
<text text-anchor="middle" x="1130.5" y="-990.26" font-family="Times,serif" font-size="32.00">=&gt;3 =da perf</text>
</g>
<!-- 3&#45;&gt;prog -->
<g id="edge51" class="edge">
<title>3&#45;&gt;prog</title>
<path fill="none" stroke="#000000" d="M1749.55,-1181.86C1729.33,-1196.51 1701.12,-1220.81 1688,-1249.86 1672.84,-1283.42 1695.01,-1553.82 1670,-1580.86 1637.88,-1615.58 1505.38,-1599.58 1459,-1608.86 1267.99,-1647.06 1206.51,-1640.98 1043,-1746.86 1016.4,-1764.08 990.7,-1788.91 971.89,-1809.14"/>
<polygon fill="#000000" stroke="#000000" points="969.19,-1806.9 965.02,-1816.64 974.36,-1811.63 969.19,-1806.9"/>
<text text-anchor="middle" x="1338.5" y="-1698.26" font-family="Times,serif" font-size="32.00">ing_1</text>
<text text-anchor="middle" x="1338.5" y="-1663.26" font-family="Times,serif" font-size="32.00">=&gt;3 =da prog</text>
</g>
<!-- 4&#45;&gt;0 -->
<g id="edge53" class="edge">
<title>4&#45;&gt;0</title>
<path fill="none" stroke="#000000" d="M1758.98,-791.8C1734.31,-744.61 1683.3,-648.86 1670,-637.86 1458.64,-463.16 1093.22,-489.48 977.93,-502.99"/>
<polygon fill="#000000" stroke="#000000" points="977.38,-499.53 967.87,-504.22 978.22,-506.48 977.38,-499.53"/>
<text text-anchor="middle" x="1338.5" y="-570.26" font-family="Times,serif" font-size="32.00">ε_6</text>
<text text-anchor="middle" x="1338.5" y="-535.26" font-family="Times,serif" font-size="32.00">=&gt;4 0</text>
</g>
<!-- 4&#45;&gt;1 -->
<g id="edge55" class="edge">
<title>4&#45;&gt;1</title>
<path fill="none" stroke="#000000" d="M1746.5,-820.88C1691.18,-828.05 1558.75,-849.31 1459,-897.86 1439.96,-907.13 1397.25,-941.43 1368.4,-965.42"/>
<polygon fill="#000000" stroke="#000000" points="1366.1,-962.78 1360.66,-971.88 1370.58,-968.15 1366.1,-962.78"/>
<text text-anchor="middle" x="1564.5" y="-942.26" font-family="Times,serif" font-size="32.00">ε_7</text>
<text text-anchor="middle" x="1564.5" y="-907.26" font-family="Times,serif" font-size="32.00">=&gt;4 1</text>
</g>
<!-- 4&#45;&gt;v -->
<g id="edge56" class="edge">
<title>4&#45;&gt;v</title>
<path fill="none" stroke="#000000" d="M1747.33,-809.85C1674.79,-786.67 1469.75,-720.53 1459,-709.86 1441.94,-692.93 1460.62,-672.74 1441,-658.86 1366.62,-606.23 1312.06,-608.7 1236,-658.86 1219.05,-670.04 1233.38,-687.6 1218,-700.86 1157.09,-753.37 1119.51,-722.08 1043,-746.86 693.04,-860.19 521.67,-854.28 331,-1168.86 256.19,-1292.29 249.61,-1752.53 249.37,-1892.93"/>
<polygon fill="#000000" stroke="#000000" points="245.87,-1893.24 249.36,-1903.24 252.87,-1893.25 245.87,-1893.24"/>
<text text-anchor="middle" x="941" y="-847.26" font-family="Times,serif" font-size="32.00">ε_8</text>
<text text-anchor="middle" x="941" y="-812.26" font-family="Times,serif" font-size="32.00">=&gt;4 =da v</text>
</g>
<!-- 4&#45;&gt;perf -->
<g id="edge58" class="edge">
<title>4&#45;&gt;perf</title>
<path fill="none" stroke="#000000" d="M1747.13,-810.35C1689.57,-794.98 1547.25,-766.5 1459,-830.86 1440.25,-844.53 1459.89,-866.39 1441,-879.86 1422.99,-892.7 1064.71,-883.65 1043,-887.86 884.33,-918.6 830.75,-917.86 703,-1016.86 666.7,-1044.99 638.07,-1089.72 620.7,-1121.66"/>
<polygon fill="#000000" stroke="#000000" points="617.49,-1120.25 615.88,-1130.72 623.67,-1123.53 617.49,-1120.25"/>
<text text-anchor="middle" x="1130.5" y="-932.26" font-family="Times,serif" font-size="32.00">n_2</text>
<text text-anchor="middle" x="1130.5" y="-897.26" font-family="Times,serif" font-size="32.00">=&gt;4 =da perf</text>
</g>
<!-- 4&#45;&gt;prog -->
<g id="edge57" class="edge">
<title>4&#45;&gt;prog</title>
<path fill="none" stroke="#000000" d="M1764.28,-846.84C1748.82,-901.61 1714.58,-1024.11 1688,-1127.86 1679.49,-1161.07 1691.1,-1175.84 1670,-1202.86 1604.92,-1286.22 1532.73,-1237.05 1459,-1312.86 1446.25,-1325.97 1454.34,-1337.35 1441,-1349.86 1369.19,-1417.22 1299.36,-1358.49 1236,-1433.86 1211.99,-1462.42 1237.7,-1484.17 1218,-1515.86 1165.42,-1600.46 1096.66,-1571.94 1043,-1655.86 1025,-1684.01 1039.04,-1698.53 1025,-1728.86 1011.52,-1757.98 990.25,-1787.26 972.62,-1808.99"/>
<polygon fill="#000000" stroke="#000000" points="969.73,-1806.99 966.06,-1816.93 975.13,-1811.45 969.73,-1806.99"/>
<text text-anchor="middle" x="1338.5" y="-1478.26" font-family="Times,serif" font-size="32.00">ing_2</text>
<text text-anchor="middle" x="1338.5" y="-1443.26" font-family="Times,serif" font-size="32.00">=&gt;4 =da prog</text>
</g>
<!-- 5&#45;&gt;0 -->
<g id="edge64" class="edge">
<title>5&#45;&gt;0</title>
<path fill="none" stroke="#000000" d="M1757.47,-597.09C1739.99,-570.68 1708.56,-529.97 1670,-509.86 1586.13,-466.11 1530.23,-544.11 1459,-481.86 1436.11,-461.85 1465.16,-434.31 1441,-415.86 1295.78,-304.94 1058.26,-434.19 973.37,-487.21"/>
<polygon fill="#000000" stroke="#000000" points="971.3,-484.38 964.72,-492.69 975.04,-490.3 971.3,-484.38"/>
<text text-anchor="middle" x="1338.5" y="-460.26" font-family="Times,serif" font-size="32.00">ε_11</text>
<text text-anchor="middle" x="1338.5" y="-425.26" font-family="Times,serif" font-size="32.00">=&gt;5 0</text>
</g>
<!-- 5&#45;&gt;1 -->
<g id="edge66" class="edge">
<title>5&#45;&gt;1</title>
<path fill="none" stroke="#000000" d="M1746.36,-625.11C1685.24,-634.19 1532.6,-665.74 1459,-760.86 1428.95,-799.69 1461.6,-825.29 1441,-869.86 1423.72,-907.24 1391.54,-942.26 1368.03,-964.7"/>
<polygon fill="#000000" stroke="#000000" points="1365.33,-962.43 1360.42,-971.82 1370.11,-967.54 1365.33,-962.43"/>
<text text-anchor="middle" x="1564.5" y="-805.26" font-family="Times,serif" font-size="32.00">ε_12</text>
<text text-anchor="middle" x="1564.5" y="-770.26" font-family="Times,serif" font-size="32.00">=&gt;5 1</text>
</g>
<!-- 5&#45;&gt;v -->
<g id="edge67" class="edge">
<title>5&#45;&gt;v</title>
<path fill="none" stroke="#000000" d="M1763.62,-593.51C1739.26,-515.84 1672.98,-305.2 1670,-302.86 1332.03,-37.12 939.81,29.98 703,-328.86 674.4,-372.2 715.84,-754.08 685,-795.86 638.01,-859.53 588.87,-821.73 517,-854.86 430.19,-894.87 382.12,-882.08 331,-962.86 318.33,-982.88 265.36,-1712.32 252.38,-1893.46"/>
<polygon fill="#000000" stroke="#000000" points="248.88,-1893.4 251.65,-1903.62 255.86,-1893.9 248.88,-1893.4"/>
<text text-anchor="middle" x="941" y="-207.26" font-family="Times,serif" font-size="32.00">ε_13</text>
<text text-anchor="middle" x="941" y="-172.26" font-family="Times,serif" font-size="32.00">=&gt;5 =da v</text>
</g>
<!-- 5&#45;&gt;perf -->
<g id="edge69" class="edge">
<title>5&#45;&gt;perf</title>
<path fill="none" stroke="#000000" d="M1746.42,-619.69C1628.56,-610.51 1146.96,-579.53 1043,-676.86 1006.2,-711.31 1055.81,-748.95 1025,-788.86 929.42,-912.67 813.6,-820.26 703,-930.86 649.96,-983.89 622.53,-1069.52 610.29,-1119.67"/>
<polygon fill="#000000" stroke="#000000" points="606.85,-1118.98 607.97,-1129.51 613.67,-1120.58 606.85,-1118.98"/>
<text text-anchor="middle" x="1130.5" y="-721.26" font-family="Times,serif" font-size="32.00">n_4</text>
<text text-anchor="middle" x="1130.5" y="-686.26" font-family="Times,serif" font-size="32.00">=&gt;5 =da perf</text>
</g>
<!-- 5&#45;&gt;prog -->
<g id="edge68" class="edge">
<title>5&#45;&gt;prog</title>
<path fill="none" stroke="#000000" d="M1755.75,-644.9C1735.44,-674.31 1702.17,-727.54 1688,-778.86 1676.19,-821.64 1699.99,-1145.15 1670,-1177.86 1638.04,-1212.72 1505.18,-1195.63 1459,-1205.86 1357.58,-1228.33 1300.92,-1194.76 1236,-1275.86 1206.04,-1313.29 1250.61,-1455.71 1218,-1490.86 1164.43,-1548.61 1096.62,-1461.16 1043,-1518.86 1011.11,-1553.17 1041.3,-1684.95 1025,-1728.86 1013.78,-1759.08 992.33,-1788.47 974.05,-1809.97"/>
<polygon fill="#000000" stroke="#000000" points="971.4,-1807.68 967.48,-1817.52 976.68,-1812.27 971.4,-1807.68"/>
<text text-anchor="middle" x="1338.5" y="-1320.26" font-family="Times,serif" font-size="32.00">ing_4</text>
<text text-anchor="middle" x="1338.5" y="-1285.26" font-family="Times,serif" font-size="32.00">=&gt;5 =da prog</text>
</g>
<!-- 6&#45;&gt;0 -->
<g id="edge70" class="edge">
<title>6&#45;&gt;0</title>
<path fill="none" stroke="#000000" d="M1746.49,-1487.53C1726.95,-1483.54 1701.34,-1474.82 1688,-1455.86 1640,-1387.62 1711.44,-1153.27 1670,-1080.86 1614.34,-983.6 1525.65,-1032.93 1459,-942.86 1441.93,-919.79 1459.18,-903.06 1441,-880.86 1375.89,-801.34 1317.22,-836.83 1236,-773.86 1226.55,-766.53 1228.14,-760.19 1218,-753.86 1149.39,-711.02 1105.56,-755.14 1043,-703.86 993.29,-663.11 965.34,-591.49 951.99,-547.03"/>
<polygon fill="#000000" stroke="#000000" points="955.27,-545.79 949.13,-537.16 948.55,-547.74 955.27,-545.79"/>
<text text-anchor="middle" x="1338.5" y="-925.26" font-family="Times,serif" font-size="32.00">ε_14</text>
<text text-anchor="middle" x="1338.5" y="-890.26" font-family="Times,serif" font-size="32.00">=&gt;6 0</text>
</g>
<!-- 6&#45;&gt;1 -->
<g id="edge72" class="edge">
<title>6&#45;&gt;1</title>
<path fill="none" stroke="#000000" d="M1746.97,-1484.29C1727.69,-1477.95 1702.2,-1466.39 1688,-1446.86 1659.64,-1407.85 1705.08,-1372.95 1670,-1339.86 1635.69,-1307.49 1491.76,-1350.79 1459,-1316.86 1421.08,-1277.58 1466.32,-1120.22 1441,-1071.86 1425.97,-1043.16 1396.06,-1020.93 1372.58,-1006.9"/>
<polygon fill="#000000" stroke="#000000" points="1374.03,-1003.7 1363.62,-1001.76 1370.55,-1009.77 1374.03,-1003.7"/>
<text text-anchor="middle" x="1564.5" y="-1384.26" font-family="Times,serif" font-size="32.00">ε_15</text>
<text text-anchor="middle" x="1564.5" y="-1349.26" font-family="Times,serif" font-size="32.00">=&gt;6 1</text>
</g>
<!-- 6&#45;&gt;v -->
<g id="edge73" class="edge">
<title>6&#45;&gt;v</title>
<path fill="none" stroke="#000000" d="M1746.63,-1487.52C1668.36,-1478.22 1427.72,-1455.49 1236,-1499.86 838.03,-1591.95 401.4,-1842.59 281.47,-1914.4"/>
<polygon fill="#000000" stroke="#000000" points="279.52,-1911.49 272.75,-1919.64 283.12,-1917.49 279.52,-1911.49"/>
<text text-anchor="middle" x="941" y="-1666.26" font-family="Times,serif" font-size="32.00">ε_16</text>
<text text-anchor="middle" x="941" y="-1631.26" font-family="Times,serif" font-size="32.00">=&gt;6 =da v</text>
</g>
<!-- 6&#45;&gt;perf -->
<g id="edge75" class="edge">
<title>6&#45;&gt;perf</title>
<path fill="none" stroke="#000000" d="M1746.84,-1483.69C1726.13,-1477.95 1696.23,-1469.73 1670,-1462.86 1576.47,-1438.34 1521.92,-1483.27 1459,-1409.86 1430.82,-1376.98 1472.01,-1246.07 1441,-1215.86 1412.99,-1188.56 843.82,-1167.72 659.24,-1161.66"/>
<polygon fill="#000000" stroke="#000000" points="659.3,-1158.16 649.19,-1161.33 659.07,-1165.15 659.3,-1158.16"/>
<text text-anchor="middle" x="1130.5" y="-1232.26" font-family="Times,serif" font-size="32.00">n_5</text>
<text text-anchor="middle" x="1130.5" y="-1197.26" font-family="Times,serif" font-size="32.00">=&gt;6 =da perf</text>
</g>
<!-- 6&#45;&gt;prog -->
<g id="edge74" class="edge">
<title>6&#45;&gt;prog</title>
<path fill="none" stroke="#000000" d="M1762.21,-1518.51C1739.99,-1577.5 1688.09,-1711.36 1670,-1723.86 1630.27,-1751.31 1283.46,-1737.94 1236,-1746.86 1148.43,-1763.32 1051,-1799.13 993.19,-1822.34"/>
<polygon fill="#000000" stroke="#000000" points="991.87,-1819.1 983.91,-1826.09 994.49,-1825.58 991.87,-1819.1"/>
<text text-anchor="middle" x="1338.5" y="-1791.26" font-family="Times,serif" font-size="32.00">ing_5</text>
<text text-anchor="middle" x="1338.5" y="-1756.26" font-family="Times,serif" font-size="32.00">=&gt;6 =da prog</text>
</g>
</g>
</svg>
