<?xml version="1.0" encoding="UTF-8" standalone="no"?>
<!DOCTYPE svg PUBLIC "-//W3C//DTD SVG 1.1//EN"
 "http://www.w3.org/Graphics/SVG/1.1/DTD/svg11.dtd">
<!-- Generated by graphviz version 2.47.1 (20210417.1919)
 -->
<!-- Title: G Pages: 1 -->
<svg width="3187pt" height="1344pt"
 viewBox="0.00 0.00 3186.99 1343.54" xmlns="http://www.w3.org/2000/svg" xmlns:xlink="http://www.w3.org/1999/xlink">
<g id="graph0" class="graph" transform="scale(1 1) rotate(0) translate(4 1339.54)">
<title>G</title>
<polygon fill="white" stroke="transparent" points="-4,4 -4,-1339.54 3182.99,-1339.54 3182.99,4 -4,4"/>
<text text-anchor="middle" x="1589.49" y="-13.4" font-family="Times,serif" font-size="32.00">replacement: =&gt;v 0 with =&gt;v 3, =&gt;3 0</text>
<!-- t -->
<g id="node1" class="node">
<title>t</title>
<ellipse fill="lightgray" stroke="black" cx="27" cy="-810.54" rx="27" ry="30.31"/>
<text text-anchor="middle" x="27" y="-802.44" font-family="Times,serif" font-size="32.00">t</text>
</g>
<!-- z0 -->
<g id="node2" class="node">
<title>z0</title>
<ellipse fill="none" stroke="black" stroke-dasharray="5,2" cx="3141.51" cy="-1102.54" rx="27" ry="18"/>
</g>
<!-- da -->
<g id="node3" class="node">
<title>da</title>
<ellipse fill="none" stroke="black" cx="2862.54" cy="-1102.54" rx="33.47" ry="30.31"/>
<text text-anchor="middle" x="2862.54" y="-1094.44" font-family="Times,serif" font-size="32.00">da</text>
</g>
<!-- z0&#45;&gt;da -->
<g id="edge1" class="edge">
<title>z0&#45;&gt;da</title>
<path fill="none" stroke="#000000" d="M3114.46,-1102.54C3066.66,-1102.54 2964.56,-1102.54 2906.41,-1102.54"/>
<polygon fill="#000000" stroke="#000000" points="2906.08,-1099.04 2896.08,-1102.54 2906.08,-1106.04 2906.08,-1099.04"/>
<text text-anchor="middle" x="3013.04" y="-1181.94" font-family="Times,serif" font-size="32.00">Mary |</text>
<text text-anchor="middle" x="3013.04" y="-1146.94" font-family="Times,serif" font-size="32.00"> John</text>
<text text-anchor="middle" x="3013.04" y="-1111.94" font-family="Times,serif" font-size="32.00">da &#45;k</text>
</g>
<!-- z1 -->
<g id="node4" class="node">
<title>z1</title>
<ellipse fill="none" stroke="black" stroke-dasharray="5,2" cx="3141.51" cy="-1230.54" rx="27" ry="18"/>
</g>
<!-- poss -->
<g id="node5" class="node">
<title>poss</title>
<ellipse fill="none" stroke="black" cx="2862.54" cy="-1230.54" rx="52.15" ry="30.31"/>
<text text-anchor="middle" x="2862.54" y="-1222.44" font-family="Times,serif" font-size="32.00">poss</text>
</g>
<!-- z1&#45;&gt;poss -->
<g id="edge2" class="edge">
<title>z1&#45;&gt;poss</title>
<path fill="none" stroke="#000000" d="M3114.46,-1230.54C3071.43,-1230.54 2984.38,-1230.54 2925.02,-1230.54"/>
<polygon fill="#000000" stroke="#000000" points="2925.01,-1227.04 2915.01,-1230.54 2925.01,-1234.04 2925.01,-1227.04"/>
<text text-anchor="middle" x="3013.04" y="-1309.94" font-family="Times,serif" font-size="32.00">Mary&#39;s |</text>
<text text-anchor="middle" x="3013.04" y="-1274.94" font-family="Times,serif" font-size="32.00"> John&#39;s</text>
<text text-anchor="middle" x="3013.04" y="-1239.94" font-family="Times,serif" font-size="32.00">poss</text>
</g>
<!-- z2 -->
<g id="node6" class="node">
<title>z2</title>
<ellipse fill="none" stroke="black" stroke-dasharray="5,2" cx="2862.54" cy="-960.54" rx="27" ry="18"/>
</g>
<!-- d -->
<g id="node7" class="node">
<title>d</title>
<ellipse fill="none" stroke="black" cx="2499.04" cy="-959.54" rx="27" ry="30.31"/>
<text text-anchor="middle" x="2499.04" y="-951.44" font-family="Times,serif" font-size="32.00">d</text>
</g>
<!-- z2&#45;&gt;d -->
<g id="edge3" class="edge">
<title>z2&#45;&gt;d</title>
<path fill="none" stroke="#000000" d="M2835.25,-960.47C2771.6,-960.29 2609.12,-959.84 2536.3,-959.64"/>
<polygon fill="#000000" stroke="#000000" points="2536.24,-956.14 2526.23,-959.61 2536.22,-963.14 2536.24,-956.14"/>
<text text-anchor="middle" x="2688.04" y="-1004.94" font-family="Times,serif" font-size="32.00">the&#45;cause</text>
<text text-anchor="middle" x="2688.04" y="-969.94" font-family="Times,serif" font-size="32.00">d &#45;k</text>
</g>
<!-- for -->
<g id="node8" class="node">
<title>for</title>
<ellipse fill="none" stroke="black" cx="3141.51" cy="-777.54" rx="37.45" ry="30.31"/>
<text text-anchor="middle" x="3141.51" y="-769.44" font-family="Times,serif" font-size="32.00">for</text>
</g>
<!-- d&#45;&gt;for -->
<g id="edge4" class="edge">
<title>d&#45;&gt;for</title>
<path fill="none" stroke="#000000" d="M2524.68,-949.63C2575.68,-929.58 2696.91,-884.39 2803.04,-863.54 2926.86,-839.22 2973.5,-897.63 3086.04,-840.54 3098.57,-834.18 3109.44,-823.56 3118.11,-812.84"/>
<polygon fill="#000000" stroke="#000000" points="3121.04,-814.77 3124.29,-804.69 3115.46,-810.54 3121.04,-814.77"/>
<text text-anchor="middle" x="2862.54" y="-907.94" font-family="Times,serif" font-size="32.00">for</text>
<text text-anchor="middle" x="2862.54" y="-872.94" font-family="Times,serif" font-size="32.00">=d *k for</text>
</g>
<!-- of -->
<g id="node9" class="node">
<title>of</title>
<ellipse fill="none" stroke="black" cx="2174.52" cy="-713.54" rx="30.31" ry="30.31"/>
<text text-anchor="middle" x="2174.52" y="-705.44" font-family="Times,serif" font-size="32.00">of</text>
</g>
<!-- d&#45;&gt;of -->
<g id="edge5" class="edge">
<title>d&#45;&gt;of</title>
<path fill="none" stroke="#000000" d="M2472.52,-952.19C2424.9,-937.44 2321.26,-900.34 2254.04,-839.54 2226.51,-814.64 2205.1,-777.88 2191.64,-750.48"/>
<polygon fill="#000000" stroke="#000000" points="2194.69,-748.73 2187.22,-741.22 2188.37,-751.75 2194.69,-748.73"/>
<text text-anchor="middle" x="2330.54" y="-971.94" font-family="Times,serif" font-size="32.00">of</text>
<text text-anchor="middle" x="2330.54" y="-936.94" font-family="Times,serif" font-size="32.00">=d *k of</text>
</g>
<!-- about -->
<g id="node10" class="node">
<title>about</title>
<ellipse fill="none" stroke="black" cx="2174.52" cy="-584.54" rx="61.54" ry="30.31"/>
<text text-anchor="middle" x="2174.52" y="-576.44" font-family="Times,serif" font-size="32.00">about</text>
</g>
<!-- d&#45;&gt;about -->
<g id="edge6" class="edge">
<title>d&#45;&gt;about</title>
<path fill="none" stroke="#000000" d="M2472.87,-951.04C2456.47,-944.13 2436.12,-932.69 2425.04,-915.54 2388.58,-859.15 2440.01,-824.03 2407.04,-765.54 2366.1,-692.92 2283.09,-639.26 2228.41,-609.95"/>
<polygon fill="#000000" stroke="#000000" points="2230.03,-606.84 2219.55,-605.28 2226.76,-613.04 2230.03,-606.84"/>
<text text-anchor="middle" x="2330.54" y="-809.94" font-family="Times,serif" font-size="32.00">about</text>
<text text-anchor="middle" x="2330.54" y="-774.94" font-family="Times,serif" font-size="32.00">=d *k about</text>
</g>
<!-- 1 -->
<g id="node12" class="node">
<title>1</title>
<ellipse fill="none" stroke="black" cx="1616" cy="-607.54" rx="27" ry="30.31"/>
<text text-anchor="middle" x="1616" y="-599.44" font-family="Times,serif" font-size="32.00">1</text>
</g>
<!-- for&#45;&gt;1 -->
<g id="edge22" class="edge">
<title>for&#45;&gt;1</title>
<path fill="none" stroke="#000000" d="M3127.86,-805.86C3095,-874.58 2999.96,-1044.54 2863.54,-1044.54 2863.54,-1044.54 2863.54,-1044.54 1892.5,-1044.54 1705.89,-1044.54 1640.63,-755.85 1622.73,-647.76"/>
<polygon fill="#000000" stroke="#000000" points="1626.14,-646.9 1621.1,-637.58 1619.23,-648 1626.14,-646.9"/>
<text text-anchor="middle" x="2330.54" y="-1088.94" font-family="Times,serif" font-size="32.00">hope</text>
<text text-anchor="middle" x="2330.54" y="-1053.94" font-family="Times,serif" font-size="32.00">=for 1</text>
</g>
<!-- a -->
<g id="node14" class="node">
<title>a</title>
<ellipse fill="none" stroke="black" cx="1893.5" cy="-471.54" rx="27" ry="30.31"/>
<text text-anchor="middle" x="1893.5" y="-463.44" font-family="Times,serif" font-size="32.00">a</text>
</g>
<!-- for&#45;&gt;a -->
<g id="edge25" class="edge">
<title>for&#45;&gt;a</title>
<path fill="none" stroke="#000000" d="M3131.26,-748.02C3104.21,-668.28 3017.37,-454.54 2863.54,-454.54 2863.54,-454.54 2863.54,-454.54 2173.52,-454.54 2086.35,-454.54 1984.14,-462.91 1930.91,-467.9"/>
<polygon fill="#000000" stroke="#000000" points="1930.25,-464.45 1920.63,-468.88 1930.91,-471.42 1930.25,-464.45"/>
<text text-anchor="middle" x="2499.04" y="-498.94" font-family="Times,serif" font-size="32.00">hopeful</text>
<text text-anchor="middle" x="2499.04" y="-463.94" font-family="Times,serif" font-size="32.00">=for a</text>
</g>
<!-- 4 -->
<g id="node19" class="node">
<title>4</title>
<ellipse fill="none" stroke="black" cx="2862.54" cy="-700.54" rx="27" ry="30.31"/>
<text text-anchor="middle" x="2862.54" y="-692.44" font-family="Times,serif" font-size="32.00">4</text>
</g>
<!-- for&#45;&gt;4 -->
<g id="edge24" class="edge">
<title>for&#45;&gt;4</title>
<path fill="none" stroke="#000000" d="M3128.47,-748.62C3119.54,-731.25 3105.52,-710.62 3086.04,-700.54 3026.23,-669.59 2944.71,-680.79 2898.77,-691.09"/>
<polygon fill="#000000" stroke="#000000" points="2897.92,-687.69 2888.99,-693.39 2899.52,-694.51 2897.92,-687.69"/>
<text text-anchor="middle" x="3013.04" y="-814.94" font-family="Times,serif" font-size="32.00">hope_1 |</text>
<text text-anchor="middle" x="3013.04" y="-779.94" font-family="Times,serif" font-size="32.00"> respect_1 |</text>
<text text-anchor="middle" x="3013.04" y="-744.94" font-family="Times,serif" font-size="32.00"> disdain_1</text>
<text text-anchor="middle" x="3013.04" y="-709.94" font-family="Times,serif" font-size="32.00">=for 4</text>
</g>
<!-- of&#45;&gt;1 -->
<g id="edge26" class="edge">
<title>of&#45;&gt;1</title>
<path fill="none" stroke="#000000" d="M2143.93,-712.69C2084.94,-710.52 1948.74,-703.18 1837,-679.54 1769.52,-665.26 1693.64,-637.77 1650.95,-621.19"/>
<polygon fill="#000000" stroke="#000000" points="1652.18,-617.92 1641.6,-617.53 1649.63,-624.44 1652.18,-617.92"/>
<text text-anchor="middle" x="1893.5" y="-742.94" font-family="Times,serif" font-size="32.00">boast</text>
<text text-anchor="middle" x="1893.5" y="-707.94" font-family="Times,serif" font-size="32.00">=of 1</text>
</g>
<!-- of&#45;&gt;4 -->
<g id="edge27" class="edge">
<title>of&#45;&gt;4</title>
<path fill="none" stroke="#000000" d="M2205,-712.98C2315.39,-710.89 2704.19,-703.52 2825.27,-701.23"/>
<polygon fill="#000000" stroke="#000000" points="2825.55,-704.72 2835.48,-701.03 2825.42,-697.72 2825.55,-704.72"/>
<text text-anchor="middle" x="2499.04" y="-893.94" font-family="Times,serif" font-size="32.00">boast_1 |</text>
<text text-anchor="middle" x="2499.04" y="-858.94" font-family="Times,serif" font-size="32.00"> fear_1 |</text>
<text text-anchor="middle" x="2499.04" y="-823.94" font-family="Times,serif" font-size="32.00"> neglect_1 |</text>
<text text-anchor="middle" x="2499.04" y="-788.94" font-family="Times,serif" font-size="32.00"> scorn_1 |</text>
<text text-anchor="middle" x="2499.04" y="-753.94" font-family="Times,serif" font-size="32.00"> doubt_1</text>
<text text-anchor="middle" x="2499.04" y="-718.94" font-family="Times,serif" font-size="32.00">=of 4</text>
</g>
<!-- about&#45;&gt;1 -->
<g id="edge30" class="edge">
<title>about&#45;&gt;1</title>
<path fill="none" stroke="#000000" d="M2114.4,-591.86C2107.86,-592.51 2101.3,-593.09 2095,-593.54 1930.36,-605.36 1733.13,-607.27 1653.24,-607.53"/>
<polygon fill="#000000" stroke="#000000" points="1653.2,-604.03 1643.21,-607.55 1653.22,-611.03 1653.2,-604.03"/>
<text text-anchor="middle" x="1893.5" y="-649.94" font-family="Times,serif" font-size="32.00">boast_3</text>
<text text-anchor="middle" x="1893.5" y="-614.94" font-family="Times,serif" font-size="32.00">=about 1</text>
</g>
<!-- about&#45;&gt;a -->
<g id="edge32" class="edge">
<title>about&#45;&gt;a</title>
<path fill="none" stroke="#000000" d="M2158.17,-555.17C2144.74,-532.76 2123,-503.29 2095,-488.54 2067.37,-473.98 1980.54,-471.47 1930.68,-471.27"/>
<polygon fill="#000000" stroke="#000000" points="1930.64,-467.77 1920.63,-471.26 1930.63,-474.77 1930.64,-467.77"/>
<text text-anchor="middle" x="2031.5" y="-567.94" font-family="Times,serif" font-size="32.00">boastful |</text>
<text text-anchor="middle" x="2031.5" y="-532.94" font-family="Times,serif" font-size="32.00"> doubtful</text>
<text text-anchor="middle" x="2031.5" y="-497.94" font-family="Times,serif" font-size="32.00">=about a</text>
</g>
<!-- about&#45;&gt;4 -->
<g id="edge31" class="edge">
<title>about&#45;&gt;4</title>
<path fill="none" stroke="#000000" d="M2235.75,-580.77C2314.18,-577.16 2455.17,-575.14 2573.04,-597.54 2668.7,-615.72 2775.11,-660.59 2827.95,-684.66"/>
<polygon fill="#000000" stroke="#000000" points="2826.63,-687.91 2837.18,-688.91 2829.56,-681.55 2826.63,-687.91"/>
<text text-anchor="middle" x="2499.04" y="-676.94" font-family="Times,serif" font-size="32.00">boast_4 |</text>
<text text-anchor="middle" x="2499.04" y="-641.94" font-family="Times,serif" font-size="32.00"> doubt_3</text>
<text text-anchor="middle" x="2499.04" y="-606.94" font-family="Times,serif" font-size="32.00">=about 4</text>
</g>
<!-- 0 -->
<g id="node11" class="node">
<title>0</title>
<ellipse fill="none" stroke="black" cx="258" cy="-768.54" rx="27" ry="30.31"/>
<text text-anchor="middle" x="258" y="-760.44" font-family="Times,serif" font-size="32.00">0</text>
</g>
<!-- 0&#45;&gt;t -->
<g id="edge7" class="edge">
<title>0&#45;&gt;t</title>
<path fill="none" stroke="#000000" d="M231.36,-763C194.59,-756.29 125.44,-748.33 72,-769.54 65.35,-772.18 59.11,-776.34 53.53,-781.03"/>
<polygon fill="#000000" stroke="#000000" points="50.81,-778.77 45.86,-788.14 55.57,-783.9 50.81,-778.77"/>
<text text-anchor="middle" x="128" y="-813.94" font-family="Times,serif" font-size="32.00">s</text>
<text text-anchor="middle" x="128" y="-778.94" font-family="Times,serif" font-size="32.00">=&gt;0 +k t</text>
</g>
<!-- 2 -->
<g id="node13" class="node">
<title>2</title>
<ellipse fill="none" stroke="black" cx="1393" cy="-607.54" rx="27" ry="30.31"/>
<text text-anchor="middle" x="1393" y="-599.44" font-family="Times,serif" font-size="32.00">2</text>
</g>
<!-- 1&#45;&gt;2 -->
<g id="edge8" class="edge">
<title>1&#45;&gt;2</title>
<path fill="none" stroke="#000000" d="M1588.78,-607.54C1549.4,-607.54 1474.87,-607.54 1430.3,-607.54"/>
<polygon fill="#000000" stroke="#000000" points="1430.19,-604.04 1420.19,-607.54 1430.19,-611.04 1430.19,-604.04"/>
<text text-anchor="middle" x="1504.5" y="-651.94" font-family="Times,serif" font-size="32.00">ε_0</text>
<text text-anchor="middle" x="1504.5" y="-616.94" font-family="Times,serif" font-size="32.00">=&gt;1 =da 2</text>
</g>
<!-- v -->
<g id="node16" class="node">
<title>v</title>
<ellipse fill="none" stroke="black" cx="642" cy="-645.54" rx="27" ry="30.31"/>
<text text-anchor="middle" x="642" y="-637.44" font-family="Times,serif" font-size="32.00">v</text>
</g>
<!-- 2&#45;&gt;v -->
<g id="edge11" class="edge">
<title>2&#45;&gt;v</title>
<path fill="none" stroke="#000000" d="M1367.3,-597.49C1299.76,-571.29 1106.32,-504.86 946,-533.54 843.66,-551.85 730.66,-602.37 676.1,-628.85"/>
<polygon fill="#000000" stroke="#000000" points="674.36,-625.8 666.92,-633.35 677.44,-632.09 674.36,-625.8"/>
<text text-anchor="middle" x="1014" y="-577.94" font-family="Times,serif" font-size="32.00">ε_1</text>
<text text-anchor="middle" x="1014" y="-542.94" font-family="Times,serif" font-size="32.00">=&gt;2 v</text>
</g>
<!-- perf -->
<g id="node17" class="node">
<title>perf</title>
<ellipse fill="none" stroke="black" cx="878" cy="-640.54" rx="48.17" ry="30.31"/>
<text text-anchor="middle" x="878" y="-632.44" font-family="Times,serif" font-size="32.00">perf</text>
</g>
<!-- 2&#45;&gt;perf -->
<g id="edge12" class="edge">
<title>2&#45;&gt;perf</title>
<path fill="none" stroke="#000000" d="M1365.65,-606.12C1296.39,-602.89 1103.69,-597 946,-621.54 941.18,-622.29 936.21,-623.28 931.26,-624.41"/>
<polygon fill="#000000" stroke="#000000" points="930.05,-621.1 921.19,-626.89 931.73,-627.89 930.05,-621.1"/>
<text text-anchor="middle" x="1156" y="-650.94" font-family="Times,serif" font-size="32.00">n</text>
<text text-anchor="middle" x="1156" y="-615.94" font-family="Times,serif" font-size="32.00">=&gt;2 perf</text>
</g>
<!-- prog -->
<g id="node18" class="node">
<title>prog</title>
<ellipse fill="none" stroke="black" cx="1156" cy="-725.54" rx="52.15" ry="30.31"/>
<text text-anchor="middle" x="1156" y="-717.44" font-family="Times,serif" font-size="32.00">prog</text>
</g>
<!-- 2&#45;&gt;prog -->
<g id="edge13" class="edge">
<title>2&#45;&gt;prog</title>
<path fill="none" stroke="#000000" d="M1368.17,-619.5C1330.06,-638.64 1254.61,-676.52 1204.99,-701.44"/>
<polygon fill="#000000" stroke="#000000" points="1203.41,-698.32 1196.04,-705.93 1206.55,-704.57 1203.41,-698.32"/>
<text text-anchor="middle" x="1289" y="-731.94" font-family="Times,serif" font-size="32.00">ing</text>
<text text-anchor="middle" x="1289" y="-696.94" font-family="Times,serif" font-size="32.00">=&gt;2 prog</text>
</g>
<!-- a&#45;&gt;1 -->
<g id="edge9" class="edge">
<title>a&#45;&gt;1</title>
<path fill="none" stroke="#000000" d="M1867,-477.5C1852.87,-480.79 1834.97,-484.92 1819,-488.54 1748.85,-504.42 1718.12,-479.83 1661,-523.54 1646.03,-535 1635.64,-553.01 1628.74,-569.43"/>
<polygon fill="#000000" stroke="#000000" points="1625.44,-568.26 1625.07,-578.85 1631.96,-570.8 1625.44,-568.26"/>
<text text-anchor="middle" x="1740" y="-567.94" font-family="Times,serif" font-size="32.00">be</text>
<text text-anchor="middle" x="1740" y="-532.94" font-family="Times,serif" font-size="32.00">=a 1</text>
</g>
<!-- 3 -->
<g id="node15" class="node">
<title>3</title>
<ellipse fill="none" stroke="black" cx="453" cy="-768.54" rx="27" ry="30.31"/>
<text text-anchor="middle" x="453" y="-760.44" font-family="Times,serif" font-size="32.00">3</text>
</g>
<!-- 3&#45;&gt;t -->
<g id="edge10" class="edge">
<title>3&#45;&gt;t</title>
<path fill="none" stroke="#000000" d="M442.33,-796.9C435.39,-812.48 424.34,-830.44 408,-839.54 277.52,-912.18 215.04,-882.44 72,-839.54 67.21,-838.1 62.47,-835.96 57.96,-833.48"/>
<polygon fill="#000000" stroke="#000000" points="59.46,-830.29 49.11,-828.02 55.78,-836.25 59.46,-830.29"/>
<text text-anchor="middle" x="258" y="-928.94" font-family="Times,serif" font-size="32.00">d</text>
<text text-anchor="middle" x="258" y="-893.94" font-family="Times,serif" font-size="32.00">=&gt;3 +k t</text>
</g>
<!-- 3&#45;&gt;0 -->
<g id="edge14" class="edge">
<title>3&#45;&gt;0</title>
<path fill="none" stroke="#000000" d="M425.97,-768.54C392.3,-768.54 333.46,-768.54 295.38,-768.54"/>
<polygon fill="#000000" stroke="#000000" points="295.23,-765.04 285.23,-768.54 295.23,-772.04 295.23,-765.04"/>
<text text-anchor="middle" x="370" y="-812.94" font-family="Times,serif" font-size="32.00">ε_2</text>
<text text-anchor="middle" x="370" y="-777.94" font-family="Times,serif" font-size="32.00">=&gt;3 0</text>
</g>
<!-- v&#45;&gt;3 -->
<g id="edge15" class="edge">
<title>v&#45;&gt;3</title>
<path fill="none" stroke="#000000" d="M624.36,-668.71C612.06,-684.28 594.03,-704.14 574,-716.54 543.99,-735.11 529.95,-724.56 498,-739.54 493.57,-741.61 489.08,-744.09 484.73,-746.7"/>
<polygon fill="#000000" stroke="#000000" points="482.67,-743.86 476.1,-752.18 486.42,-749.77 482.67,-743.86"/>
<text text-anchor="middle" x="536" y="-783.94" font-family="Times,serif" font-size="32.00">will</text>
<text text-anchor="middle" x="536" y="-748.94" font-family="Times,serif" font-size="32.00">=v 3</text>
</g>
<!-- v&#45;&gt;3 -->
<g id="edge17" class="edge">
<title>v&#45;&gt;3</title>
<path fill="none" stroke="#000000" d="M615.89,-636.72C585.1,-627.61 532.72,-617.88 498,-642.54 470.99,-661.71 460.43,-698.76 456.36,-727.74"/>
<polygon fill="#000000" stroke="#000000" points="452.85,-727.66 455.14,-738.01 459.8,-728.49 452.85,-727.66"/>
<text text-anchor="middle" x="536" y="-686.94" font-family="Times,serif" font-size="32.00">ε_3</text>
<text text-anchor="middle" x="536" y="-651.94" font-family="Times,serif" font-size="32.00">=&gt;v 3</text>
</g>
<!-- perf&#45;&gt;v -->
<g id="edge16" class="edge">
<title>perf&#45;&gt;v</title>
<path fill="none" stroke="#000000" d="M829.84,-640.15C796.38,-640.03 750.42,-640.21 710,-641.54 699.97,-641.87 689.11,-642.43 679.11,-643.03"/>
<polygon fill="#000000" stroke="#000000" points="678.84,-639.54 669.08,-643.66 679.28,-646.52 678.84,-639.54"/>
<text text-anchor="middle" x="760" y="-685.94" font-family="Times,serif" font-size="32.00">have</text>
<text text-anchor="middle" x="760" y="-650.94" font-family="Times,serif" font-size="32.00">=perf v</text>
</g>
<!-- prog&#45;&gt;0 -->
<g id="edge18" class="edge">
<title>prog&#45;&gt;0</title>
<path fill="none" stroke="#000000" d="M1133.24,-753.33C1090.48,-804.53 989.96,-908.54 879,-908.54 879,-908.54 879,-908.54 452,-908.54 378.61,-908.54 314.31,-841.4 281.7,-800.11"/>
<polygon fill="#000000" stroke="#000000" points="284.31,-797.75 275.42,-791.97 278.76,-802.03 284.31,-797.75"/>
<text text-anchor="middle" x="642" y="-952.94" font-family="Times,serif" font-size="32.00">be_1</text>
<text text-anchor="middle" x="642" y="-917.94" font-family="Times,serif" font-size="32.00">=prog 0</text>
</g>
<!-- prog&#45;&gt;3 -->
<g id="edge19" class="edge">
<title>prog&#45;&gt;3</title>
<path fill="none" stroke="#000000" d="M1115.15,-744.66C1070.69,-764.86 996.07,-795.42 928,-807.54 773.1,-835.11 731.34,-809.09 574,-809.54 540.22,-809.63 529.43,-821.91 498,-809.54 491.34,-806.92 485.1,-802.76 479.52,-798.08"/>
<polygon fill="#000000" stroke="#000000" points="481.56,-795.2 471.85,-790.96 476.8,-800.33 481.56,-795.2"/>
<text text-anchor="middle" x="760" y="-864.94" font-family="Times,serif" font-size="32.00">be_2</text>
<text text-anchor="middle" x="760" y="-829.94" font-family="Times,serif" font-size="32.00">=prog 3</text>
</g>
<!-- prog&#45;&gt;v -->
<g id="edge20" class="edge">
<title>prog&#45;&gt;v</title>
<path fill="none" stroke="#000000" d="M1103.82,-728.55C1002.35,-733.76 779.45,-741.29 710,-711.54 692.85,-704.19 677.66,-690.25 666.1,-677.07"/>
<polygon fill="#000000" stroke="#000000" points="668.48,-674.46 659.38,-669.03 663.1,-678.95 668.48,-674.46"/>
<text text-anchor="middle" x="878" y="-777.94" font-family="Times,serif" font-size="32.00">be_3</text>
<text text-anchor="middle" x="878" y="-742.94" font-family="Times,serif" font-size="32.00">=prog v</text>
</g>
<!-- prog&#45;&gt;perf -->
<g id="edge21" class="edge">
<title>prog&#45;&gt;perf</title>
<path fill="none" stroke="#000000" d="M1121.26,-702.71C1113.61,-696.47 1105.99,-689.27 1100,-681.54 1088.06,-666.13 1098.34,-652.16 1082,-641.54 1037.73,-612.76 975.74,-617.32 931.94,-626.06"/>
<polygon fill="#000000" stroke="#000000" points="931.11,-622.66 922.06,-628.17 932.56,-629.51 931.11,-622.66"/>
<text text-anchor="middle" x="1014" y="-685.94" font-family="Times,serif" font-size="32.00">ben</text>
<text text-anchor="middle" x="1014" y="-650.94" font-family="Times,serif" font-size="32.00">=prog perf</text>
</g>
<!-- 4&#45;&gt;d -->
<g id="edge23" class="edge">
<title>4&#45;&gt;d</title>
<path fill="none" stroke="#000000" d="M2835.56,-705.54C2771.03,-718.21 2607.44,-751.86 2591.04,-770.54 2548.19,-819.34 2608.4,-861.08 2573.04,-915.54 2563.91,-929.59 2548.58,-939.82 2534.32,-946.86"/>
<polygon fill="#000000" stroke="#000000" points="2532.82,-943.69 2525.18,-951.03 2535.73,-950.06 2532.82,-943.69"/>
<text text-anchor="middle" x="2688.04" y="-814.94" font-family="Times,serif" font-size="32.00">ε_4</text>
<text text-anchor="middle" x="2688.04" y="-779.94" font-family="Times,serif" font-size="32.00">=&gt;4 poss= d &#45;k</text>
</g>
<!-- 5 -->
<g id="node20" class="node">
<title>5</title>
<ellipse fill="none" stroke="black" cx="2174.52" cy="-268.54" rx="27" ry="30.31"/>
<text text-anchor="middle" x="2174.52" y="-260.44" font-family="Times,serif" font-size="32.00">5</text>
</g>
<!-- 5&#45;&gt;a -->
<g id="edge28" class="edge">
<title>5&#45;&gt;a</title>
<path fill="none" stroke="#000000" d="M2156.91,-291.75C2142.62,-309.9 2120.33,-334.23 2095,-347.54 2044.22,-374.22 2016.59,-340.05 1968,-370.54 1943.14,-386.14 1924.02,-413.48 1911.52,-435.78"/>
<polygon fill="#000000" stroke="#000000" points="1908.39,-434.2 1906.73,-444.67 1914.56,-437.52 1908.39,-434.2"/>
<text text-anchor="middle" x="2031.5" y="-414.94" font-family="Times,serif" font-size="32.00">ful</text>
<text text-anchor="middle" x="2031.5" y="-379.94" font-family="Times,serif" font-size="32.00">=&gt;5 =of a</text>
</g>
<!-- z3 -->
<g id="node21" class="node">
<title>z3</title>
<ellipse fill="none" stroke="black" stroke-dasharray="5,2" cx="2499.04" cy="-159.54" rx="27" ry="18"/>
</g>
<!-- z3&#45;&gt;5 -->
<g id="edge29" class="edge">
<title>z3&#45;&gt;5</title>
<path fill="none" stroke="#000000" d="M2473.84,-152.83C2428.01,-141.54 2326.62,-123.38 2254.04,-160.54 2224.94,-175.43 2204.08,-206.68 2191.21,-231.75"/>
<polygon fill="#000000" stroke="#000000" points="2187.93,-230.49 2186.66,-241.01 2194.21,-233.57 2187.93,-230.49"/>
<text text-anchor="middle" x="2330.54" y="-414.94" font-family="Times,serif" font-size="32.00">boast_2 |</text>
<text text-anchor="middle" x="2330.54" y="-379.94" font-family="Times,serif" font-size="32.00"> fear_2 |</text>
<text text-anchor="middle" x="2330.54" y="-344.94" font-family="Times,serif" font-size="32.00"> neglect_2 |</text>
<text text-anchor="middle" x="2330.54" y="-309.94" font-family="Times,serif" font-size="32.00"> scorn_2 |</text>
<text text-anchor="middle" x="2330.54" y="-274.94" font-family="Times,serif" font-size="32.00"> respect_2 |</text>
<text text-anchor="middle" x="2330.54" y="-239.94" font-family="Times,serif" font-size="32.00"> disdain_2 |</text>
<text text-anchor="middle" x="2330.54" y="-204.94" font-family="Times,serif" font-size="32.00"> doubt_2</text>
<text text-anchor="middle" x="2330.54" y="-169.94" font-family="Times,serif" font-size="32.00">5</text>
</g>
<!-- 6 -->
<g id="node22" class="node">
<title>6</title>
<ellipse fill="none" stroke="black" cx="1893.5" cy="-239.54" rx="27" ry="30.31"/>
<text text-anchor="middle" x="1893.5" y="-231.44" font-family="Times,serif" font-size="32.00">6</text>
</g>
<!-- 6&#45;&gt;1 -->
<g id="edge33" class="edge">
<title>6&#45;&gt;1</title>
<path fill="none" stroke="#000000" d="M1868.05,-250.74C1820.19,-273.98 1714.2,-332.24 1661,-414.54 1630.9,-461.1 1621.27,-525.63 1618.25,-566.98"/>
<polygon fill="#000000" stroke="#000000" points="1614.76,-566.77 1617.62,-576.97 1621.75,-567.21 1614.76,-566.77"/>
<text text-anchor="middle" x="1740" y="-458.94" font-family="Times,serif" font-size="32.00">ε_5</text>
<text text-anchor="middle" x="1740" y="-423.94" font-family="Times,serif" font-size="32.00">=&gt;6 =d *k 1</text>
</g>
<!-- z4 -->
<g id="node23" class="node">
<title>z4</title>
<ellipse fill="none" stroke="black" stroke-dasharray="5,2" cx="2174.52" cy="-101.54" rx="27" ry="18"/>
</g>
<!-- z4&#45;&gt;6 -->
<g id="edge34" class="edge">
<title>z4&#45;&gt;6</title>
<path fill="none" stroke="#000000" d="M2149.56,-94.31C2108.93,-83.55 2025.33,-68.05 1968,-102.54 1932.89,-123.66 1913.58,-167.9 1903.67,-200.42"/>
<polygon fill="#000000" stroke="#000000" points="1900.29,-199.52 1900.89,-210.1 1907.01,-201.45 1900.29,-199.52"/>
<text text-anchor="middle" x="2031.5" y="-321.94" font-family="Times,serif" font-size="32.00">fear |</text>
<text text-anchor="middle" x="2031.5" y="-286.94" font-family="Times,serif" font-size="32.00"> neglect |</text>
<text text-anchor="middle" x="2031.5" y="-251.94" font-family="Times,serif" font-size="32.00"> scorn |</text>
<text text-anchor="middle" x="2031.5" y="-216.94" font-family="Times,serif" font-size="32.00"> respect |</text>
<text text-anchor="middle" x="2031.5" y="-181.94" font-family="Times,serif" font-size="32.00"> disdain |</text>
<text text-anchor="middle" x="2031.5" y="-146.94" font-family="Times,serif" font-size="32.00"> doubt</text>
<text text-anchor="middle" x="2031.5" y="-111.94" font-family="Times,serif" font-size="32.00">6</text>
</g>
</g>
</svg>
