<?xml version="1.0" encoding="UTF-8" standalone="no"?>
<!DOCTYPE svg PUBLIC "-//W3C//DTD SVG 1.1//EN"
 "http://www.w3.org/Graphics/SVG/1.1/DTD/svg11.dtd">
<!-- Generated by graphviz version 2.47.1 (20210417.1919)
 -->
<!-- Title: G Pages: 1 -->
<svg width="3372pt" height="1108pt"
 viewBox="0.00 0.00 3371.76 1108.00" xmlns="http://www.w3.org/2000/svg" xmlns:xlink="http://www.w3.org/1999/xlink">
<g id="graph0" class="graph" transform="scale(1 1) rotate(0) translate(4 1104)">
<title>G</title>
<polygon fill="white" stroke="transparent" points="-4,4 -4,-1104 3367.76,-1104 3367.76,4 -4,4"/>
<text text-anchor="middle" x="1681.88" y="-13.4" font-family="Times,serif" font-size="32.00">decomposition: hope =for 1, hope =for 4, hopeful =for a</text>
<!-- t -->
<g id="node1" class="node">
<title>t</title>
<ellipse fill="lightgray" stroke="black" cx="27" cy="-681" rx="27" ry="30.31"/>
<text text-anchor="middle" x="27" y="-672.9" font-family="Times,serif" font-size="32.00">t</text>
</g>
<!-- z0 -->
<g id="node2" class="node">
<title>z0</title>
<ellipse fill="none" stroke="black" stroke-dasharray="5,2" cx="3333.36" cy="-867" rx="27" ry="18"/>
</g>
<!-- da -->
<g id="node3" class="node">
<title>da</title>
<ellipse fill="none" stroke="black" cx="3064.45" cy="-867" rx="33.47" ry="30.31"/>
<text text-anchor="middle" x="3064.45" y="-858.9" font-family="Times,serif" font-size="32.00">da</text>
</g>
<!-- z0&#45;&gt;da -->
<g id="edge1" class="edge">
<title>z0&#45;&gt;da</title>
<path fill="none" stroke="#000000" d="M3306.28,-867C3260.19,-867 3163.95,-867 3108.09,-867"/>
<polygon fill="#000000" stroke="#000000" points="3107.82,-863.5 3097.82,-867 3107.82,-870.5 3107.82,-863.5"/>
<text text-anchor="middle" x="3210.95" y="-946.4" font-family="Times,serif" font-size="32.00">Mary |</text>
<text text-anchor="middle" x="3210.95" y="-911.4" font-family="Times,serif" font-size="32.00"> John</text>
<text text-anchor="middle" x="3210.95" y="-876.4" font-family="Times,serif" font-size="32.00">da &#45;k</text>
</g>
<!-- z1 -->
<g id="node4" class="node">
<title>z1</title>
<ellipse fill="none" stroke="black" stroke-dasharray="5,2" cx="3333.36" cy="-995" rx="27" ry="18"/>
</g>
<!-- poss -->
<g id="node5" class="node">
<title>poss</title>
<ellipse fill="none" stroke="black" cx="3064.45" cy="-995" rx="52.15" ry="30.31"/>
<text text-anchor="middle" x="3064.45" y="-986.9" font-family="Times,serif" font-size="32.00">poss</text>
</g>
<!-- z1&#45;&gt;poss -->
<g id="edge2" class="edge">
<title>z1&#45;&gt;poss</title>
<path fill="none" stroke="#000000" d="M3306.28,-995C3265.1,-995 3183.87,-995 3127.19,-995"/>
<polygon fill="#000000" stroke="#000000" points="3126.91,-991.5 3116.91,-995 3126.91,-998.5 3126.91,-991.5"/>
<text text-anchor="middle" x="3210.95" y="-1074.4" font-family="Times,serif" font-size="32.00">Mary&#39;s |</text>
<text text-anchor="middle" x="3210.95" y="-1039.4" font-family="Times,serif" font-size="32.00"> John&#39;s</text>
<text text-anchor="middle" x="3210.95" y="-1004.4" font-family="Times,serif" font-size="32.00">poss</text>
</g>
<!-- z2 -->
<g id="node6" class="node">
<title>z2</title>
<ellipse fill="none" stroke="black" stroke-dasharray="5,2" cx="3064.45" cy="-763" rx="27" ry="18"/>
</g>
<!-- d -->
<g id="node7" class="node">
<title>d</title>
<ellipse fill="none" stroke="black" cx="2710.95" cy="-692" rx="27" ry="30.31"/>
<text text-anchor="middle" x="2710.95" y="-683.9" font-family="Times,serif" font-size="32.00">d</text>
</g>
<!-- z2&#45;&gt;d -->
<g id="edge3" class="edge">
<title>z2&#45;&gt;d</title>
<path fill="none" stroke="#000000" d="M3044.58,-750.46C3030.64,-741.84 3010.87,-730.91 2991.95,-725 2907.42,-698.58 2802.51,-693.02 2748.25,-692.03"/>
<polygon fill="#000000" stroke="#000000" points="2748.14,-688.53 2738.1,-691.89 2748.05,-695.53 2748.14,-688.53"/>
<text text-anchor="middle" x="2894.95" y="-769.4" font-family="Times,serif" font-size="32.00">the&#45;cause</text>
<text text-anchor="middle" x="2894.95" y="-734.4" font-family="Times,serif" font-size="32.00">d &#45;k</text>
</g>
<!-- for -->
<g id="node8" class="node">
<title>for</title>
<ellipse fill="none" stroke="black" cx="2415.48" cy="-378" rx="37.45" ry="30.31"/>
<text text-anchor="middle" x="2415.48" y="-369.9" font-family="Times,serif" font-size="32.00">for</text>
</g>
<!-- d&#45;&gt;for -->
<g id="edge4" class="edge">
<title>d&#45;&gt;for</title>
<path fill="none" stroke="#000000" d="M2685.91,-680.13C2671.9,-672.37 2654.56,-661.23 2641.95,-648 2630.96,-636.47 2633.17,-630 2623.95,-617 2556.31,-521.6 2530.92,-504.17 2452.95,-417 2450.73,-414.51 2448.41,-411.95 2446.06,-409.39"/>
<polygon fill="#000000" stroke="#000000" points="2448.38,-406.74 2439.02,-401.77 2443.24,-411.49 2448.38,-406.74"/>
<text text-anchor="middle" x="2547.45" y="-661.4" font-family="Times,serif" font-size="32.00">for</text>
<text text-anchor="middle" x="2547.45" y="-626.4" font-family="Times,serif" font-size="32.00">=d *k for</text>
</g>
<!-- of -->
<g id="node9" class="node">
<title>of</title>
<ellipse fill="none" stroke="black" cx="3333.36" cy="-657" rx="30.31" ry="30.31"/>
<text text-anchor="middle" x="3333.36" y="-648.9" font-family="Times,serif" font-size="32.00">of</text>
</g>
<!-- d&#45;&gt;of -->
<g id="edge5" class="edge">
<title>d&#45;&gt;of</title>
<path fill="none" stroke="#000000" d="M2738.23,-689.18C2790.1,-683.73 2909.37,-671.79 3009.95,-666 3111.47,-660.16 3231.2,-658.08 3292.21,-657.36"/>
<polygon fill="#000000" stroke="#000000" points="3292.59,-660.85 3302.55,-657.24 3292.51,-653.86 3292.59,-660.85"/>
<text text-anchor="middle" x="3064.45" y="-710.4" font-family="Times,serif" font-size="32.00">of</text>
<text text-anchor="middle" x="3064.45" y="-675.4" font-family="Times,serif" font-size="32.00">=d *k of</text>
</g>
<!-- about -->
<g id="node10" class="node">
<title>about</title>
<ellipse fill="none" stroke="black" cx="2286" cy="-759" rx="61.54" ry="30.31"/>
<text text-anchor="middle" x="2286" y="-750.9" font-family="Times,serif" font-size="32.00">about</text>
</g>
<!-- d&#45;&gt;about -->
<g id="edge6" class="edge">
<title>d&#45;&gt;about</title>
<path fill="none" stroke="#000000" d="M2684.08,-695.18C2640.16,-700.67 2548.28,-712.52 2470.95,-725 2432,-731.29 2388.58,-739.26 2353.71,-745.91"/>
<polygon fill="#000000" stroke="#000000" points="2352.81,-742.52 2343.65,-747.84 2354.13,-749.4 2352.81,-742.52"/>
<text text-anchor="middle" x="2547.45" y="-769.4" font-family="Times,serif" font-size="32.00">about</text>
<text text-anchor="middle" x="2547.45" y="-734.4" font-family="Times,serif" font-size="32.00">=d *k about</text>
</g>
<!-- 4 -->
<g id="node19" class="node">
<title>4</title>
<ellipse fill="none" stroke="black" cx="2135" cy="-355" rx="27" ry="30.31"/>
<text text-anchor="middle" x="2135" y="-346.9" font-family="Times,serif" font-size="32.00">4</text>
</g>
<!-- for&#45;&gt;4 -->
<g id="edge23" class="edge">
<title>for&#45;&gt;4</title>
<path fill="none" stroke="#f7931d" stroke-width="2" d="M2380.83,-365.92C2374.01,-363.92 2366.84,-362.14 2360,-361 2294.45,-350.11 2216.65,-351.08 2172.13,-352.93"/>
<polygon fill="#f7931d" stroke="#f7931d" stroke-width="2" points="2171.92,-349.44 2162.09,-353.39 2172.24,-356.43 2171.92,-349.44"/>
<text text-anchor="middle" x="2286" y="-405.4" font-family="Times,serif" font-size="32.00">hope</text>
<text text-anchor="middle" x="2286" y="-370.4" font-family="Times,serif" font-size="32.00">=for 4</text>
</g>
<!-- 5 -->
<g id="node20" class="node">
<title>5</title>
<ellipse fill="none" stroke="black" cx="3064.45" cy="-432" rx="27" ry="30.31"/>
<text text-anchor="middle" x="3064.45" y="-423.9" font-family="Times,serif" font-size="32.00">5</text>
</g>
<!-- for&#45;&gt;5 -->
<g id="edge36" class="edge">
<title>for&#45;&gt;5</title>
<path fill="none" stroke="#000000" d="M2452.8,-382.15C2458.86,-382.8 2465.08,-383.44 2470.95,-384 2681.44,-404.11 2934.53,-422.78 3027.2,-429.43"/>
<polygon fill="#000000" stroke="#000000" points="3027.22,-432.94 3037.44,-430.16 3027.72,-425.96 3027.22,-432.94"/>
<text text-anchor="middle" x="2710.95" y="-490.4" font-family="Times,serif" font-size="32.00">respect_1 |</text>
<text text-anchor="middle" x="2710.95" y="-455.4" font-family="Times,serif" font-size="32.00"> disdain_1</text>
<text text-anchor="middle" x="2710.95" y="-420.4" font-family="Times,serif" font-size="32.00">=for 5</text>
</g>
<!-- 1 -->
<g id="node12" class="node">
<title>1</title>
<ellipse fill="none" stroke="black" cx="1616" cy="-485" rx="27" ry="30.31"/>
<text text-anchor="middle" x="1616" y="-476.9" font-family="Times,serif" font-size="32.00">1</text>
</g>
<!-- of&#45;&gt;1 -->
<g id="edge27" class="edge">
<title>of&#45;&gt;1</title>
<path fill="none" stroke="#000000" d="M3311.83,-678.78C3269.87,-720.81 3169.44,-809 3065.45,-809 3065.45,-809 3065.45,-809 1874,-809 1746.85,-809 1730.65,-724.38 1661,-618 1642.31,-589.46 1630.89,-552.26 1624.39,-524.47"/>
<polygon fill="#000000" stroke="#000000" points="1627.8,-523.68 1622.21,-514.68 1620.97,-525.21 1627.8,-523.68"/>
<text text-anchor="middle" x="2415.48" y="-853.4" font-family="Times,serif" font-size="32.00">boast</text>
<text text-anchor="middle" x="2415.48" y="-818.4" font-family="Times,serif" font-size="32.00">=of 1</text>
</g>
<!-- of&#45;&gt;5 -->
<g id="edge28" class="edge">
<title>of&#45;&gt;5</title>
<path fill="none" stroke="#000000" d="M3330.5,-626.52C3326.41,-571.05 3314.54,-457.1 3284.95,-433 3232.65,-390.41 3147.73,-406.24 3100.31,-420.06"/>
<polygon fill="#000000" stroke="#000000" points="3099.05,-416.79 3090.5,-423.05 3101.09,-423.48 3099.05,-416.79"/>
<text text-anchor="middle" x="3210.95" y="-617.4" font-family="Times,serif" font-size="32.00">boast_1 |</text>
<text text-anchor="middle" x="3210.95" y="-582.4" font-family="Times,serif" font-size="32.00"> fear_1 |</text>
<text text-anchor="middle" x="3210.95" y="-547.4" font-family="Times,serif" font-size="32.00"> neglect_1 |</text>
<text text-anchor="middle" x="3210.95" y="-512.4" font-family="Times,serif" font-size="32.00"> scorn_1 |</text>
<text text-anchor="middle" x="3210.95" y="-477.4" font-family="Times,serif" font-size="32.00"> doubt_1</text>
<text text-anchor="middle" x="3210.95" y="-442.4" font-family="Times,serif" font-size="32.00">=of 5</text>
</g>
<!-- about&#45;&gt;1 -->
<g id="edge31" class="edge">
<title>about&#45;&gt;1</title>
<path fill="none" stroke="#000000" d="M2229.59,-746.79C2187.23,-737.07 2127.54,-722.56 2076,-707 1888.53,-650.4 1812.22,-683.42 1661,-559 1648.9,-549.05 1639.34,-534.84 1632.25,-521.53"/>
<polygon fill="#000000" stroke="#000000" points="1635.35,-519.9 1627.75,-512.52 1629.09,-523.03 1635.35,-519.9"/>
<text text-anchor="middle" x="1994.5" y="-746.4" font-family="Times,serif" font-size="32.00">boast_3</text>
<text text-anchor="middle" x="1994.5" y="-711.4" font-family="Times,serif" font-size="32.00">=about 1</text>
</g>
<!-- a -->
<g id="node14" class="node">
<title>a</title>
<ellipse fill="none" stroke="black" cx="1875" cy="-485" rx="27" ry="30.31"/>
<text text-anchor="middle" x="1875" y="-476.9" font-family="Times,serif" font-size="32.00">a</text>
</g>
<!-- about&#45;&gt;a -->
<g id="edge33" class="edge">
<title>about&#45;&gt;a</title>
<path fill="none" stroke="#000000" d="M2233.89,-742.54C2225.48,-737.77 2217.67,-731.69 2212,-724 2179.48,-679.88 2232.16,-641.34 2194,-602 2111.32,-516.77 2032.79,-616.13 1931,-555 1916.54,-546.32 1904.42,-532.32 1895.27,-519.12"/>
<polygon fill="#000000" stroke="#000000" points="1898.1,-517.06 1889.69,-510.62 1892.25,-520.9 1898.1,-517.06"/>
<text text-anchor="middle" x="2135" y="-681.4" font-family="Times,serif" font-size="32.00">boastful |</text>
<text text-anchor="middle" x="2135" y="-646.4" font-family="Times,serif" font-size="32.00"> doubtful</text>
<text text-anchor="middle" x="2135" y="-611.4" font-family="Times,serif" font-size="32.00">=about a</text>
</g>
<!-- about&#45;&gt;5 -->
<g id="edge32" class="edge">
<title>about&#45;&gt;5</title>
<path fill="none" stroke="#000000" d="M2335.29,-740.51C2344.06,-735.9 2352.72,-730.4 2360,-724 2428.04,-664.18 2393.98,-600.79 2470.95,-553 2588.42,-480.07 2644.55,-544.96 2779.95,-517 2871.43,-498.11 2975.94,-463.19 3028.85,-444.53"/>
<polygon fill="#000000" stroke="#000000" points="3030.17,-447.77 3038.42,-441.13 3027.83,-441.18 3030.17,-447.77"/>
<text text-anchor="middle" x="2710.95" y="-604.4" font-family="Times,serif" font-size="32.00">boast_4 |</text>
<text text-anchor="middle" x="2710.95" y="-569.4" font-family="Times,serif" font-size="32.00"> doubt_3</text>
<text text-anchor="middle" x="2710.95" y="-534.4" font-family="Times,serif" font-size="32.00">=about 5</text>
</g>
<!-- 0 -->
<g id="node11" class="node">
<title>0</title>
<ellipse fill="none" stroke="black" cx="258" cy="-783" rx="27" ry="30.31"/>
<text text-anchor="middle" x="258" y="-774.9" font-family="Times,serif" font-size="32.00">0</text>
</g>
<!-- 0&#45;&gt;t -->
<g id="edge7" class="edge">
<title>0&#45;&gt;t</title>
<path fill="none" stroke="#000000" d="M232.49,-772.08C191.34,-753.76 108.3,-716.77 61.7,-696.01"/>
<polygon fill="#000000" stroke="#000000" points="62.89,-692.71 52.33,-691.84 60.04,-699.1 62.89,-692.71"/>
<text text-anchor="middle" x="128" y="-795.4" font-family="Times,serif" font-size="32.00">s</text>
<text text-anchor="middle" x="128" y="-760.4" font-family="Times,serif" font-size="32.00">=&gt;0 +k t</text>
</g>
<!-- 2 -->
<g id="node13" class="node">
<title>2</title>
<ellipse fill="none" stroke="black" cx="1393" cy="-485" rx="27" ry="30.31"/>
<text text-anchor="middle" x="1393" y="-476.9" font-family="Times,serif" font-size="32.00">2</text>
</g>
<!-- 1&#45;&gt;2 -->
<g id="edge8" class="edge">
<title>1&#45;&gt;2</title>
<path fill="none" stroke="#000000" d="M1588.78,-485C1549.4,-485 1474.87,-485 1430.3,-485"/>
<polygon fill="#000000" stroke="#000000" points="1430.19,-481.5 1420.19,-485 1430.19,-488.5 1430.19,-481.5"/>
<text text-anchor="middle" x="1504.5" y="-529.4" font-family="Times,serif" font-size="32.00">ε_0</text>
<text text-anchor="middle" x="1504.5" y="-494.4" font-family="Times,serif" font-size="32.00">=&gt;1 =da 2</text>
</g>
<!-- v -->
<g id="node16" class="node">
<title>v</title>
<ellipse fill="none" stroke="black" cx="642" cy="-546" rx="27" ry="30.31"/>
<text text-anchor="middle" x="642" y="-537.9" font-family="Times,serif" font-size="32.00">v</text>
</g>
<!-- 2&#45;&gt;v -->
<g id="edge11" class="edge">
<title>2&#45;&gt;v</title>
<path fill="none" stroke="#000000" d="M1365.76,-482.8C1296.77,-477.47 1104.65,-465.43 946,-482 847.58,-492.28 734.07,-520.86 678.03,-536.11"/>
<polygon fill="#000000" stroke="#000000" points="676.97,-532.77 668.25,-538.8 678.82,-539.52 676.97,-532.77"/>
<text text-anchor="middle" x="1014" y="-526.4" font-family="Times,serif" font-size="32.00">ε_1</text>
<text text-anchor="middle" x="1014" y="-491.4" font-family="Times,serif" font-size="32.00">=&gt;2 v</text>
</g>
<!-- perf -->
<g id="node17" class="node">
<title>perf</title>
<ellipse fill="none" stroke="black" cx="878" cy="-400" rx="48.17" ry="30.31"/>
<text text-anchor="middle" x="878" y="-391.9" font-family="Times,serif" font-size="32.00">perf</text>
</g>
<!-- 2&#45;&gt;perf -->
<g id="edge12" class="edge">
<title>2&#45;&gt;perf</title>
<path fill="none" stroke="#000000" d="M1369.29,-470.43C1336.24,-450.17 1272.24,-414.46 1212,-401 1116.8,-379.73 1002.44,-386.06 935.53,-392.85"/>
<polygon fill="#000000" stroke="#000000" points="934.78,-389.41 925.21,-393.94 935.52,-396.37 934.78,-389.41"/>
<text text-anchor="middle" x="1156" y="-445.4" font-family="Times,serif" font-size="32.00">n</text>
<text text-anchor="middle" x="1156" y="-410.4" font-family="Times,serif" font-size="32.00">=&gt;2 perf</text>
</g>
<!-- prog -->
<g id="node18" class="node">
<title>prog</title>
<ellipse fill="none" stroke="black" cx="1156" cy="-663" rx="52.15" ry="30.31"/>
<text text-anchor="middle" x="1156" y="-654.9" font-family="Times,serif" font-size="32.00">prog</text>
</g>
<!-- 2&#45;&gt;prog -->
<g id="edge13" class="edge">
<title>2&#45;&gt;prog</title>
<path fill="none" stroke="#000000" d="M1369.89,-501.75C1330.28,-531.75 1246.7,-595.06 1196.86,-632.81"/>
<polygon fill="#000000" stroke="#000000" points="1194.72,-630.04 1188.86,-638.87 1198.94,-635.62 1194.72,-630.04"/>
<text text-anchor="middle" x="1289" y="-650.4" font-family="Times,serif" font-size="32.00">ing</text>
<text text-anchor="middle" x="1289" y="-615.4" font-family="Times,serif" font-size="32.00">=&gt;2 prog</text>
</g>
<!-- a&#45;&gt;1 -->
<g id="edge9" class="edge">
<title>a&#45;&gt;1</title>
<path fill="none" stroke="#000000" d="M1847.94,-485C1801.86,-485 1705.9,-485 1653.34,-485"/>
<polygon fill="#000000" stroke="#000000" points="1653.13,-481.5 1643.13,-485 1653.13,-488.5 1653.13,-481.5"/>
<text text-anchor="middle" x="1740" y="-529.4" font-family="Times,serif" font-size="32.00">be</text>
<text text-anchor="middle" x="1740" y="-494.4" font-family="Times,serif" font-size="32.00">=a 1</text>
</g>
<!-- 3 -->
<g id="node15" class="node">
<title>3</title>
<ellipse fill="none" stroke="black" cx="453" cy="-665" rx="27" ry="30.31"/>
<text text-anchor="middle" x="453" y="-656.9" font-family="Times,serif" font-size="32.00">3</text>
</g>
<!-- 3&#45;&gt;t -->
<g id="edge10" class="edge">
<title>3&#45;&gt;t</title>
<path fill="none" stroke="#000000" d="M425.72,-665.91C380.17,-667.49 283.59,-670.89 202,-674 154.5,-675.81 99.71,-678.04 64.5,-679.49"/>
<polygon fill="#000000" stroke="#000000" points="64.08,-676 54.23,-679.91 64.37,-682.99 64.08,-676"/>
<text text-anchor="middle" x="258" y="-718.4" font-family="Times,serif" font-size="32.00">d</text>
<text text-anchor="middle" x="258" y="-683.4" font-family="Times,serif" font-size="32.00">=&gt;3 +k t</text>
</g>
<!-- 3&#45;&gt;0 -->
<g id="edge14" class="edge">
<title>3&#45;&gt;0</title>
<path fill="none" stroke="#000000" d="M427.29,-675.53C402.44,-686.54 363.43,-704.97 332,-725 329.6,-726.53 307.73,-743.94 288.55,-759.29"/>
<polygon fill="#000000" stroke="#000000" points="286.18,-756.71 280.56,-765.69 290.56,-762.17 286.18,-756.71"/>
<text text-anchor="middle" x="370" y="-769.4" font-family="Times,serif" font-size="32.00">ε_2</text>
<text text-anchor="middle" x="370" y="-734.4" font-family="Times,serif" font-size="32.00">=&gt;3 0</text>
</g>
<!-- v&#45;&gt;3 -->
<g id="edge15" class="edge">
<title>v&#45;&gt;3</title>
<path fill="none" stroke="#000000" d="M624.36,-569.17C612.06,-584.74 594.03,-604.6 574,-617 543.99,-635.57 530.43,-626.09 498,-640 494.09,-641.68 490.09,-643.61 486.17,-645.65"/>
<polygon fill="#000000" stroke="#000000" points="484.36,-642.65 477.25,-650.51 487.71,-648.8 484.36,-642.65"/>
<text text-anchor="middle" x="536" y="-684.4" font-family="Times,serif" font-size="32.00">will</text>
<text text-anchor="middle" x="536" y="-649.4" font-family="Times,serif" font-size="32.00">=v 3</text>
</g>
<!-- v&#45;&gt;3 -->
<g id="edge17" class="edge">
<title>v&#45;&gt;3</title>
<path fill="none" stroke="#000000" d="M615.94,-537.23C585.18,-528.19 532.85,-518.52 498,-543 471.91,-561.33 461.22,-596.71 456.88,-624.67"/>
<polygon fill="#000000" stroke="#000000" points="453.41,-624.21 455.55,-634.59 460.34,-625.14 453.41,-624.21"/>
<text text-anchor="middle" x="536" y="-587.4" font-family="Times,serif" font-size="32.00">ε_3</text>
<text text-anchor="middle" x="536" y="-552.4" font-family="Times,serif" font-size="32.00">=&gt;v 3</text>
</g>
<!-- perf&#45;&gt;v -->
<g id="edge16" class="edge">
<title>perf&#45;&gt;v</title>
<path fill="none" stroke="#000000" d="M833.62,-388.26C797.62,-381.16 746.57,-377.46 710,-401 674.29,-423.99 657.33,-471.37 649.46,-505.73"/>
<polygon fill="#000000" stroke="#000000" points="645.95,-505.42 647.3,-515.93 652.8,-506.87 645.95,-505.42"/>
<text text-anchor="middle" x="760" y="-445.4" font-family="Times,serif" font-size="32.00">have</text>
<text text-anchor="middle" x="760" y="-410.4" font-family="Times,serif" font-size="32.00">=perf v</text>
</g>
<!-- prog&#45;&gt;0 -->
<g id="edge18" class="edge">
<title>prog&#45;&gt;0</title>
<path fill="none" stroke="#000000" d="M1128.12,-688.77C1081.45,-730.68 980.64,-809 879,-809 879,-809 879,-809 452,-809 396.84,-809 333.59,-798.44 294.97,-790.78"/>
<polygon fill="#000000" stroke="#000000" points="295.26,-787.26 284.76,-788.71 293.87,-794.12 295.26,-787.26"/>
<text text-anchor="middle" x="642" y="-853.4" font-family="Times,serif" font-size="32.00">be_1</text>
<text text-anchor="middle" x="642" y="-818.4" font-family="Times,serif" font-size="32.00">=prog 0</text>
</g>
<!-- prog&#45;&gt;3 -->
<g id="edge19" class="edge">
<title>prog&#45;&gt;3</title>
<path fill="none" stroke="#000000" d="M1108.05,-675.65C1062.45,-687.24 991.06,-703.54 928,-710 880.47,-714.87 542.04,-728.53 498,-710 490.49,-706.84 483.63,-701.71 477.67,-696.02"/>
<polygon fill="#000000" stroke="#000000" points="480.05,-693.44 470.62,-688.62 474.98,-698.27 480.05,-693.44"/>
<text text-anchor="middle" x="760" y="-763.4" font-family="Times,serif" font-size="32.00">be_2</text>
<text text-anchor="middle" x="760" y="-728.4" font-family="Times,serif" font-size="32.00">=prog 3</text>
</g>
<!-- prog&#45;&gt;v -->
<g id="edge20" class="edge">
<title>prog&#45;&gt;v</title>
<path fill="none" stroke="#000000" d="M1103.39,-665.15C1060.51,-665.62 998.29,-663.21 946,-649 937.37,-646.66 936.27,-643.41 928,-640 840.21,-603.8 732.97,-571.5 678.47,-555.9"/>
<polygon fill="#000000" stroke="#000000" points="679.19,-552.46 668.61,-553.09 677.27,-559.19 679.19,-552.46"/>
<text text-anchor="middle" x="878" y="-684.4" font-family="Times,serif" font-size="32.00">be_3</text>
<text text-anchor="middle" x="878" y="-649.4" font-family="Times,serif" font-size="32.00">=prog v</text>
</g>
<!-- prog&#45;&gt;perf -->
<g id="edge21" class="edge">
<title>prog&#45;&gt;perf</title>
<path fill="none" stroke="#000000" d="M1137.59,-634.23C1124.65,-615.44 1105.25,-592.05 1082,-579 1028.54,-549 994.19,-593.89 946,-556 910.15,-527.81 893.16,-476.71 885.33,-440.69"/>
<polygon fill="#000000" stroke="#000000" points="888.68,-439.61 883.27,-430.5 881.82,-441 888.68,-439.61"/>
<text text-anchor="middle" x="1014" y="-623.4" font-family="Times,serif" font-size="32.00">ben</text>
<text text-anchor="middle" x="1014" y="-588.4" font-family="Times,serif" font-size="32.00">=prog perf</text>
</g>
<!-- 4&#45;&gt;1 -->
<g id="edge22" class="edge">
<title>4&#45;&gt;1</title>
<path fill="none" stroke="#f7931d" stroke-width="2" d="M2108.02,-353.51C2055.68,-351.22 1934.27,-349.57 1837,-376 1765.34,-395.47 1689.32,-438.92 1648.07,-464.7"/>
<polygon fill="#f7931d" stroke="#f7931d" stroke-width="2" points="1646.15,-461.77 1639.57,-470.07 1649.89,-467.69 1646.15,-461.77"/>
<text text-anchor="middle" x="1875" y="-420.4" font-family="Times,serif" font-size="32.00">ε_4</text>
<text text-anchor="middle" x="1875" y="-385.4" font-family="Times,serif" font-size="32.00">=&gt;4 1</text>
</g>
<!-- 4&#45;&gt;a -->
<g id="edge26" class="edge">
<title>4&#45;&gt;a</title>
<path fill="none" stroke="#f7931d" stroke-width="2" d="M2108.01,-360.2C2054.04,-371.05 1934.54,-395.29 1931,-398 1917.1,-408.62 1922.09,-418.06 1913,-433 1908.75,-439.99 1903.87,-447.27 1899.08,-454.1"/>
<polygon fill="#f7931d" stroke="#f7931d" stroke-width="2" points="1896.09,-452.27 1893.12,-462.44 1901.78,-456.34 1896.09,-452.27"/>
<text text-anchor="middle" x="1994.5" y="-442.4" font-family="Times,serif" font-size="32.00">ful</text>
<text text-anchor="middle" x="1994.5" y="-407.4" font-family="Times,serif" font-size="32.00">=&gt;4 a</text>
</g>
<!-- 4&#45;&gt;5 -->
<g id="edge25" class="edge">
<title>4&#45;&gt;5</title>
<path fill="none" stroke="#f7931d" stroke-width="2" d="M2161.94,-350.31C2218.06,-340.43 2355.04,-317.75 2470.95,-310 2706.13,-294.27 2765.9,-342.28 2991.95,-409 3003.95,-412.54 3016.99,-416.66 3028.61,-420.42"/>
<polygon fill="#f7931d" stroke="#f7931d" stroke-width="2" points="3027.8,-423.84 3038.4,-423.61 3029.98,-417.18 3027.8,-423.84"/>
<text text-anchor="middle" x="2547.45" y="-354.4" font-family="Times,serif" font-size="32.00">ε_6</text>
<text text-anchor="middle" x="2547.45" y="-319.4" font-family="Times,serif" font-size="32.00">=&gt;4 5</text>
</g>
<!-- 5&#45;&gt;d -->
<g id="edge24" class="edge">
<title>5&#45;&gt;d</title>
<path fill="none" stroke="#000000" d="M3054.52,-460.32C3044.18,-488.09 3024.28,-529.19 2991.95,-550 2918.95,-597 2862.85,-515.32 2797.95,-573 2772.33,-595.77 2799.76,-620.02 2779.95,-648 2771.26,-660.28 2757.95,-669.99 2745.4,-677.12"/>
<polygon fill="#000000" stroke="#000000" points="2743.67,-674.08 2736.48,-681.86 2746.95,-680.26 2743.67,-674.08"/>
<text text-anchor="middle" x="2894.95" y="-617.4" font-family="Times,serif" font-size="32.00">ε_5</text>
<text text-anchor="middle" x="2894.95" y="-582.4" font-family="Times,serif" font-size="32.00">=&gt;5 poss= d &#45;k</text>
</g>
<!-- 6 -->
<g id="node21" class="node">
<title>6</title>
<ellipse fill="none" stroke="black" cx="2135" cy="-466" rx="27" ry="30.31"/>
<text text-anchor="middle" x="2135" y="-457.9" font-family="Times,serif" font-size="32.00">6</text>
</g>
<!-- 6&#45;&gt;a -->
<g id="edge29" class="edge">
<title>6&#45;&gt;a</title>
<path fill="none" stroke="#000000" d="M2107.84,-467.93C2061.58,-471.33 1965.24,-478.43 1912.48,-482.31"/>
<polygon fill="#000000" stroke="#000000" points="1911.94,-478.84 1902.23,-483.07 1912.46,-485.82 1911.94,-478.84"/>
<text text-anchor="middle" x="1994.5" y="-525.4" font-family="Times,serif" font-size="32.00">ful_1</text>
<text text-anchor="middle" x="1994.5" y="-490.4" font-family="Times,serif" font-size="32.00">=&gt;6 =of a</text>
</g>
<!-- z3 -->
<g id="node22" class="node">
<title>z3</title>
<ellipse fill="none" stroke="black" stroke-dasharray="5,2" cx="2415.48" cy="-444" rx="27" ry="18"/>
</g>
<!-- z3&#45;&gt;6 -->
<g id="edge30" class="edge">
<title>z3&#45;&gt;6</title>
<path fill="none" stroke="#000000" d="M2388.69,-440.48C2350,-435.88 2274.78,-429.56 2212,-440 2197.86,-442.35 2182.82,-447.01 2169.88,-451.74"/>
<polygon fill="#000000" stroke="#000000" points="2168.55,-448.5 2160.45,-455.33 2171.04,-455.04 2168.55,-448.5"/>
<text text-anchor="middle" x="2286" y="-694.4" font-family="Times,serif" font-size="32.00">boast_2 |</text>
<text text-anchor="middle" x="2286" y="-659.4" font-family="Times,serif" font-size="32.00"> fear_2 |</text>
<text text-anchor="middle" x="2286" y="-624.4" font-family="Times,serif" font-size="32.00"> neglect_2 |</text>
<text text-anchor="middle" x="2286" y="-589.4" font-family="Times,serif" font-size="32.00"> scorn_2 |</text>
<text text-anchor="middle" x="2286" y="-554.4" font-family="Times,serif" font-size="32.00"> respect_2 |</text>
<text text-anchor="middle" x="2286" y="-519.4" font-family="Times,serif" font-size="32.00"> disdain_2 |</text>
<text text-anchor="middle" x="2286" y="-484.4" font-family="Times,serif" font-size="32.00"> doubt_2</text>
<text text-anchor="middle" x="2286" y="-449.4" font-family="Times,serif" font-size="32.00">6</text>
</g>
<!-- 7 -->
<g id="node23" class="node">
<title>7</title>
<ellipse fill="none" stroke="black" cx="1875" cy="-143" rx="27" ry="30.31"/>
<text text-anchor="middle" x="1875" y="-134.9" font-family="Times,serif" font-size="32.00">7</text>
</g>
<!-- 7&#45;&gt;1 -->
<g id="edge34" class="edge">
<title>7&#45;&gt;1</title>
<path fill="none" stroke="#000000" d="M1848.64,-151.17C1803.29,-167.18 1708.56,-207.13 1661,-275 1625.5,-325.66 1617.54,-398.96 1616.33,-444.21"/>
<polygon fill="#000000" stroke="#000000" points="1612.83,-444.2 1616.16,-454.25 1619.83,-444.31 1612.83,-444.2"/>
<text text-anchor="middle" x="1740" y="-319.4" font-family="Times,serif" font-size="32.00">ε_7</text>
<text text-anchor="middle" x="1740" y="-284.4" font-family="Times,serif" font-size="32.00">=&gt;7 =d *k 1</text>
</g>
<!-- z4 -->
<g id="node24" class="node">
<title>z4</title>
<ellipse fill="none" stroke="black" stroke-dasharray="5,2" cx="2135" cy="-99" rx="27" ry="18"/>
</g>
<!-- z4&#45;&gt;7 -->
<g id="edge35" class="edge">
<title>z4&#45;&gt;7</title>
<path fill="none" stroke="#000000" d="M2108.76,-94.04C2069.48,-87.42 1991.93,-78.84 1931,-100 1921.04,-103.46 1911.5,-109.53 1903.24,-116.05"/>
<polygon fill="#000000" stroke="#000000" points="1900.83,-113.5 1895.44,-122.62 1905.34,-118.85 1900.83,-113.5"/>
<text text-anchor="middle" x="1994.5" y="-319.4" font-family="Times,serif" font-size="32.00">fear |</text>
<text text-anchor="middle" x="1994.5" y="-284.4" font-family="Times,serif" font-size="32.00"> neglect |</text>
<text text-anchor="middle" x="1994.5" y="-249.4" font-family="Times,serif" font-size="32.00"> scorn |</text>
<text text-anchor="middle" x="1994.5" y="-214.4" font-family="Times,serif" font-size="32.00"> respect |</text>
<text text-anchor="middle" x="1994.5" y="-179.4" font-family="Times,serif" font-size="32.00"> disdain |</text>
<text text-anchor="middle" x="1994.5" y="-144.4" font-family="Times,serif" font-size="32.00"> doubt</text>
<text text-anchor="middle" x="1994.5" y="-109.4" font-family="Times,serif" font-size="32.00">7</text>
</g>
</g>
</svg>
