<?xml version="1.0" encoding="UTF-8" standalone="no"?>
<!DOCTYPE svg PUBLIC "-//W3C//DTD SVG 1.1//EN"
 "http://www.w3.org/Graphics/SVG/1.1/DTD/svg11.dtd">
<!-- Generated by graphviz version 2.47.1 (20210417.1919)
 -->
<!-- Title: G Pages: 1 -->
<svg width="3102pt" height="1193pt"
 viewBox="0.00 0.00 3101.76 1192.81" xmlns="http://www.w3.org/2000/svg" xmlns:xlink="http://www.w3.org/1999/xlink">
<g id="graph0" class="graph" transform="scale(1 1) rotate(0) translate(4 1188.81)">
<title>G</title>
<polygon fill="white" stroke="transparent" points="-4,4 -4,-1188.81 3097.76,-1188.81 3097.76,4 -4,4"/>
<text text-anchor="middle" x="1546.88" y="-13.4" font-family="Times,serif" font-size="32.00">single contraction: 3 → 0</text>
<!-- t -->
<g id="node1" class="node">
<title>t</title>
<ellipse fill="lightgray" stroke="black" cx="27" cy="-342.81" rx="27" ry="30.31"/>
<text text-anchor="middle" x="27" y="-334.71" font-family="Times,serif" font-size="32.00">t</text>
</g>
<!-- z0 -->
<g id="node2" class="node">
<title>z0</title>
<ellipse fill="none" stroke="black" stroke-dasharray="5,2" cx="3063.36" cy="-951.81" rx="27" ry="18"/>
</g>
<!-- da -->
<g id="node3" class="node">
<title>da</title>
<ellipse fill="none" stroke="black" cx="2794.45" cy="-951.81" rx="33.47" ry="30.31"/>
<text text-anchor="middle" x="2794.45" y="-943.71" font-family="Times,serif" font-size="32.00">da</text>
</g>
<!-- z0&#45;&gt;da -->
<g id="edge1" class="edge">
<title>z0&#45;&gt;da</title>
<path fill="none" stroke="#000000" d="M3036.28,-951.81C2990.19,-951.81 2893.95,-951.81 2838.09,-951.81"/>
<polygon fill="#000000" stroke="#000000" points="2837.82,-948.31 2827.82,-951.81 2837.82,-955.31 2837.82,-948.31"/>
<text text-anchor="middle" x="2940.95" y="-1031.21" font-family="Times,serif" font-size="32.00">Mary |</text>
<text text-anchor="middle" x="2940.95" y="-996.21" font-family="Times,serif" font-size="32.00"> John</text>
<text text-anchor="middle" x="2940.95" y="-961.21" font-family="Times,serif" font-size="32.00">da &#45;k</text>
</g>
<!-- z1 -->
<g id="node4" class="node">
<title>z1</title>
<ellipse fill="none" stroke="black" stroke-dasharray="5,2" cx="3063.36" cy="-1079.81" rx="27" ry="18"/>
</g>
<!-- poss -->
<g id="node5" class="node">
<title>poss</title>
<ellipse fill="none" stroke="black" cx="2794.45" cy="-1079.81" rx="52.15" ry="30.31"/>
<text text-anchor="middle" x="2794.45" y="-1071.71" font-family="Times,serif" font-size="32.00">poss</text>
</g>
<!-- z1&#45;&gt;poss -->
<g id="edge2" class="edge">
<title>z1&#45;&gt;poss</title>
<path fill="none" stroke="#000000" d="M3036.28,-1079.81C2995.1,-1079.81 2913.87,-1079.81 2857.19,-1079.81"/>
<polygon fill="#000000" stroke="#000000" points="2856.91,-1076.31 2846.91,-1079.81 2856.91,-1083.31 2856.91,-1076.31"/>
<text text-anchor="middle" x="2940.95" y="-1159.21" font-family="Times,serif" font-size="32.00">Mary&#39;s |</text>
<text text-anchor="middle" x="2940.95" y="-1124.21" font-family="Times,serif" font-size="32.00"> John&#39;s</text>
<text text-anchor="middle" x="2940.95" y="-1089.21" font-family="Times,serif" font-size="32.00">poss</text>
</g>
<!-- z2 -->
<g id="node6" class="node">
<title>z2</title>
<ellipse fill="none" stroke="black" stroke-dasharray="5,2" cx="2794.45" cy="-847.81" rx="27" ry="18"/>
</g>
<!-- d -->
<g id="node7" class="node">
<title>d</title>
<ellipse fill="none" stroke="black" cx="2440.95" cy="-776.81" rx="27" ry="30.31"/>
<text text-anchor="middle" x="2440.95" y="-768.71" font-family="Times,serif" font-size="32.00">d</text>
</g>
<!-- z2&#45;&gt;d -->
<g id="edge3" class="edge">
<title>z2&#45;&gt;d</title>
<path fill="none" stroke="#000000" d="M2774.58,-835.27C2760.64,-826.65 2740.87,-815.72 2721.95,-809.81 2637.42,-783.39 2532.51,-777.83 2478.25,-776.84"/>
<polygon fill="#000000" stroke="#000000" points="2478.14,-773.34 2468.1,-776.7 2478.05,-780.34 2478.14,-773.34"/>
<text text-anchor="middle" x="2624.95" y="-854.21" font-family="Times,serif" font-size="32.00">the&#45;cause</text>
<text text-anchor="middle" x="2624.95" y="-819.21" font-family="Times,serif" font-size="32.00">d &#45;k</text>
</g>
<!-- for -->
<g id="node8" class="node">
<title>for</title>
<ellipse fill="none" stroke="black" cx="2145.48" cy="-482.81" rx="37.45" ry="30.31"/>
<text text-anchor="middle" x="2145.48" y="-474.71" font-family="Times,serif" font-size="32.00">for</text>
</g>
<!-- d&#45;&gt;for -->
<g id="edge4" class="edge">
<title>d&#45;&gt;for</title>
<path fill="none" stroke="#000000" d="M2415.08,-766.91C2400.2,-759.68 2382.25,-748.42 2371.95,-732.81 2345.88,-693.28 2379.32,-667.79 2353.95,-627.81 2314.34,-565.36 2237.15,-522.36 2188.91,-500.22"/>
<polygon fill="#000000" stroke="#000000" points="2190.22,-496.97 2179.67,-496.07 2187.36,-503.36 2190.22,-496.97"/>
<text text-anchor="middle" x="2277.45" y="-672.21" font-family="Times,serif" font-size="32.00">for</text>
<text text-anchor="middle" x="2277.45" y="-637.21" font-family="Times,serif" font-size="32.00">=d *k for</text>
</g>
<!-- of -->
<g id="node9" class="node">
<title>of</title>
<ellipse fill="none" stroke="black" cx="3063.36" cy="-741.81" rx="30.31" ry="30.31"/>
<text text-anchor="middle" x="3063.36" y="-733.71" font-family="Times,serif" font-size="32.00">of</text>
</g>
<!-- d&#45;&gt;of -->
<g id="edge5" class="edge">
<title>d&#45;&gt;of</title>
<path fill="none" stroke="#000000" d="M2468.23,-773.99C2520.1,-768.54 2639.37,-756.59 2739.95,-750.81 2841.47,-744.97 2961.2,-742.88 3022.21,-742.16"/>
<polygon fill="#000000" stroke="#000000" points="3022.59,-745.66 3032.55,-742.05 3022.51,-738.66 3022.59,-745.66"/>
<text text-anchor="middle" x="2794.45" y="-795.21" font-family="Times,serif" font-size="32.00">of</text>
<text text-anchor="middle" x="2794.45" y="-760.21" font-family="Times,serif" font-size="32.00">=d *k of</text>
</g>
<!-- about -->
<g id="node10" class="node">
<title>about</title>
<ellipse fill="none" stroke="black" cx="2016" cy="-667.81" rx="61.54" ry="30.31"/>
<text text-anchor="middle" x="2016" y="-659.71" font-family="Times,serif" font-size="32.00">about</text>
</g>
<!-- d&#45;&gt;about -->
<g id="edge6" class="edge">
<title>d&#45;&gt;about</title>
<path fill="none" stroke="#000000" d="M2414.45,-770.23C2349.33,-753.45 2175.41,-708.63 2080.67,-684.21"/>
<polygon fill="#000000" stroke="#000000" points="2081.47,-680.81 2070.91,-681.7 2079.72,-687.59 2081.47,-680.81"/>
<text text-anchor="middle" x="2277.45" y="-798.21" font-family="Times,serif" font-size="32.00">about</text>
<text text-anchor="middle" x="2277.45" y="-763.21" font-family="Times,serif" font-size="32.00">=d *k about</text>
</g>
<!-- 3 -->
<g id="node18" class="node">
<title>3</title>
<ellipse fill="none" stroke="black" cx="1865" cy="-426.81" rx="27" ry="30.31"/>
<text text-anchor="middle" x="1865" y="-418.71" font-family="Times,serif" font-size="32.00">3</text>
</g>
<!-- for&#45;&gt;3 -->
<g id="edge20" class="edge">
<title>for&#45;&gt;3</title>
<path fill="none" stroke="#000000" d="M2108.92,-475.66C2055.59,-464.93 1955.42,-444.79 1901.89,-434.02"/>
<polygon fill="#000000" stroke="#000000" points="1902.33,-430.54 1891.83,-432 1900.95,-437.4 1902.33,-430.54"/>
<text text-anchor="middle" x="2016" y="-515.21" font-family="Times,serif" font-size="32.00">hope</text>
<text text-anchor="middle" x="2016" y="-480.21" font-family="Times,serif" font-size="32.00">=for 3</text>
</g>
<!-- 4 -->
<g id="node19" class="node">
<title>4</title>
<ellipse fill="none" stroke="black" cx="2794.45" cy="-516.81" rx="27" ry="30.31"/>
<text text-anchor="middle" x="2794.45" y="-508.71" font-family="Times,serif" font-size="32.00">4</text>
</g>
<!-- for&#45;&gt;4 -->
<g id="edge33" class="edge">
<title>for&#45;&gt;4</title>
<path fill="none" stroke="#000000" d="M2183.13,-483.83C2248.71,-485.75 2390.46,-490.29 2509.95,-496.81 2598.87,-501.65 2703.31,-509.61 2757.2,-513.88"/>
<polygon fill="#000000" stroke="#000000" points="2757.04,-517.37 2767.28,-514.68 2757.59,-510.4 2757.04,-517.37"/>
<text text-anchor="middle" x="2440.95" y="-576.21" font-family="Times,serif" font-size="32.00">respect_1 |</text>
<text text-anchor="middle" x="2440.95" y="-541.21" font-family="Times,serif" font-size="32.00"> disdain_1</text>
<text text-anchor="middle" x="2440.95" y="-506.21" font-family="Times,serif" font-size="32.00">=for 4</text>
</g>
<!-- 1 -->
<g id="node12" class="node">
<title>1</title>
<ellipse fill="none" stroke="black" cx="1346" cy="-493.81" rx="27" ry="30.31"/>
<text text-anchor="middle" x="1346" y="-485.71" font-family="Times,serif" font-size="32.00">1</text>
</g>
<!-- of&#45;&gt;1 -->
<g id="edge24" class="edge">
<title>of&#45;&gt;1</title>
<path fill="none" stroke="#000000" d="M3041.83,-763.58C2999.87,-805.61 2899.44,-893.81 2795.45,-893.81 2795.45,-893.81 2795.45,-893.81 1604,-893.81 1434.02,-893.81 1371.21,-634.98 1353.14,-533.73"/>
<polygon fill="#000000" stroke="#000000" points="1356.59,-533.13 1351.44,-523.87 1349.69,-534.32 1356.59,-533.13"/>
<text text-anchor="middle" x="2145.48" y="-938.21" font-family="Times,serif" font-size="32.00">boast</text>
<text text-anchor="middle" x="2145.48" y="-903.21" font-family="Times,serif" font-size="32.00">=of 1</text>
</g>
<!-- of&#45;&gt;4 -->
<g id="edge25" class="edge">
<title>of&#45;&gt;4</title>
<path fill="none" stroke="#000000" d="M3060.5,-711.32C3056.41,-655.85 3044.54,-541.9 3014.95,-517.81 2962.65,-475.21 2877.73,-491.04 2830.31,-504.87"/>
<polygon fill="#000000" stroke="#000000" points="2829.05,-501.59 2820.5,-507.85 2831.09,-508.29 2829.05,-501.59"/>
<text text-anchor="middle" x="2940.95" y="-702.21" font-family="Times,serif" font-size="32.00">boast_1 |</text>
<text text-anchor="middle" x="2940.95" y="-667.21" font-family="Times,serif" font-size="32.00"> fear_1 |</text>
<text text-anchor="middle" x="2940.95" y="-632.21" font-family="Times,serif" font-size="32.00"> neglect_1 |</text>
<text text-anchor="middle" x="2940.95" y="-597.21" font-family="Times,serif" font-size="32.00"> scorn_1 |</text>
<text text-anchor="middle" x="2940.95" y="-562.21" font-family="Times,serif" font-size="32.00"> doubt_1</text>
<text text-anchor="middle" x="2940.95" y="-527.21" font-family="Times,serif" font-size="32.00">=of 4</text>
</g>
<!-- about&#45;&gt;1 -->
<g id="edge28" class="edge">
<title>about&#45;&gt;1</title>
<path fill="none" stroke="#000000" d="M1967.54,-686.61C1953.72,-691.21 1938.45,-695.49 1924,-697.81 1872.22,-706.12 1857.84,-705.74 1806,-697.81 1614.94,-668.58 1542.62,-687.67 1391,-567.81 1378.71,-558.09 1369.11,-543.93 1362.05,-530.58"/>
<polygon fill="#000000" stroke="#000000" points="1365.15,-528.95 1357.57,-521.54 1358.88,-532.06 1365.15,-528.95"/>
<text text-anchor="middle" x="1724.5" y="-739.21" font-family="Times,serif" font-size="32.00">boast_3</text>
<text text-anchor="middle" x="1724.5" y="-704.21" font-family="Times,serif" font-size="32.00">=about 1</text>
</g>
<!-- a -->
<g id="node14" class="node">
<title>a</title>
<ellipse fill="none" stroke="black" cx="1605" cy="-493.81" rx="27" ry="30.31"/>
<text text-anchor="middle" x="1605" y="-485.71" font-family="Times,serif" font-size="32.00">a</text>
</g>
<!-- about&#45;&gt;a -->
<g id="edge30" class="edge">
<title>about&#45;&gt;a</title>
<path fill="none" stroke="#000000" d="M1989.93,-640.18C1973.04,-623.48 1949.29,-603.43 1924,-592.81 1815.62,-547.28 1763.65,-622.08 1661,-564.81 1646.03,-556.46 1633.78,-542.19 1624.67,-528.62"/>
<polygon fill="#000000" stroke="#000000" points="1627.44,-526.46 1619.14,-519.88 1621.52,-530.2 1627.44,-526.46"/>
<text text-anchor="middle" x="1865" y="-672.21" font-family="Times,serif" font-size="32.00">boastful |</text>
<text text-anchor="middle" x="1865" y="-637.21" font-family="Times,serif" font-size="32.00"> doubtful</text>
<text text-anchor="middle" x="1865" y="-602.21" font-family="Times,serif" font-size="32.00">=about a</text>
</g>
<!-- about&#45;&gt;4 -->
<g id="edge29" class="edge">
<title>about&#45;&gt;4</title>
<path fill="none" stroke="#000000" d="M2076.71,-662.88C2169.96,-654.51 2355.48,-635.08 2509.95,-601.81 2601.27,-582.13 2705.85,-547.54 2758.81,-529.14"/>
<polygon fill="#000000" stroke="#000000" points="2760.11,-532.39 2768.39,-525.79 2757.8,-525.78 2760.11,-532.39"/>
<text text-anchor="middle" x="2440.95" y="-706.21" font-family="Times,serif" font-size="32.00">boast_4 |</text>
<text text-anchor="middle" x="2440.95" y="-671.21" font-family="Times,serif" font-size="32.00"> doubt_3</text>
<text text-anchor="middle" x="2440.95" y="-636.21" font-family="Times,serif" font-size="32.00">=about 4</text>
</g>
<!-- 0 -->
<g id="node11" class="node">
<title>0</title>
<ellipse fill="none" stroke="black" cx="229" cy="-342.81" rx="27" ry="30.31"/>
<text text-anchor="middle" x="229" y="-334.71" font-family="Times,serif" font-size="32.00">0</text>
</g>
<!-- 0&#45;&gt;t -->
<g id="edge7" class="edge">
<title>0&#45;&gt;t</title>
<path fill="none" stroke="#000000" d="M201.85,-342.81C166.67,-342.81 103.92,-342.81 64.21,-342.81"/>
<polygon fill="#000000" stroke="#000000" points="64.15,-339.31 54.15,-342.81 64.15,-346.31 64.15,-339.31"/>
<text text-anchor="middle" x="128" y="-422.21" font-family="Times,serif" font-size="32.00">s |</text>
<text text-anchor="middle" x="128" y="-387.21" font-family="Times,serif" font-size="32.00"> d</text>
<text text-anchor="middle" x="128" y="-352.21" font-family="Times,serif" font-size="32.00">=&gt;0 +k t</text>
</g>
<!-- 2 -->
<g id="node13" class="node">
<title>2</title>
<ellipse fill="none" stroke="black" cx="1123" cy="-493.81" rx="27" ry="30.31"/>
<text text-anchor="middle" x="1123" y="-485.71" font-family="Times,serif" font-size="32.00">2</text>
</g>
<!-- 1&#45;&gt;2 -->
<g id="edge8" class="edge">
<title>1&#45;&gt;2</title>
<path fill="none" stroke="#000000" d="M1318.78,-493.81C1279.4,-493.81 1204.87,-493.81 1160.3,-493.81"/>
<polygon fill="#000000" stroke="#000000" points="1160.19,-490.31 1150.19,-493.81 1160.19,-497.31 1160.19,-490.31"/>
<text text-anchor="middle" x="1234.5" y="-538.21" font-family="Times,serif" font-size="32.00">ε_0</text>
<text text-anchor="middle" x="1234.5" y="-503.21" font-family="Times,serif" font-size="32.00">=&gt;1 =da 2</text>
</g>
<!-- v -->
<g id="node15" class="node">
<title>v</title>
<ellipse fill="none" stroke="black" cx="395" cy="-435.81" rx="27" ry="30.31"/>
<text text-anchor="middle" x="395" y="-427.71" font-family="Times,serif" font-size="32.00">v</text>
</g>
<!-- 2&#45;&gt;v -->
<g id="edge10" class="edge">
<title>2&#45;&gt;v</title>
<path fill="none" stroke="#000000" d="M1098.48,-506.98C1064.98,-524.93 1001,-556.15 942,-567.81 808.68,-594.14 530.94,-615.32 440,-549.81 416.55,-532.91 405.6,-501.72 400.48,-476.22"/>
<polygon fill="#000000" stroke="#000000" points="403.87,-475.3 398.68,-466.06 396.98,-476.52 403.87,-475.3"/>
<text text-anchor="middle" x="744" y="-638.21" font-family="Times,serif" font-size="32.00">ε_1</text>
<text text-anchor="middle" x="744" y="-603.21" font-family="Times,serif" font-size="32.00">=&gt;2 v</text>
</g>
<!-- perf -->
<g id="node16" class="node">
<title>perf</title>
<ellipse fill="none" stroke="black" cx="608" cy="-493.81" rx="48.17" ry="30.31"/>
<text text-anchor="middle" x="608" y="-485.71" font-family="Times,serif" font-size="32.00">perf</text>
</g>
<!-- 2&#45;&gt;perf -->
<g id="edge11" class="edge">
<title>2&#45;&gt;perf</title>
<path fill="none" stroke="#000000" d="M1095.85,-493.81C1016.54,-493.81 777.31,-493.81 666.5,-493.81"/>
<polygon fill="#000000" stroke="#000000" points="666.18,-490.31 656.18,-493.81 666.18,-497.31 666.18,-490.31"/>
<text text-anchor="middle" x="886" y="-538.21" font-family="Times,serif" font-size="32.00">n</text>
<text text-anchor="middle" x="886" y="-503.21" font-family="Times,serif" font-size="32.00">=&gt;2 perf</text>
</g>
<!-- prog -->
<g id="node17" class="node">
<title>prog</title>
<ellipse fill="none" stroke="black" cx="886" cy="-391.81" rx="52.15" ry="30.31"/>
<text text-anchor="middle" x="886" y="-383.71" font-family="Times,serif" font-size="32.00">prog</text>
</g>
<!-- 2&#45;&gt;prog -->
<g id="edge12" class="edge">
<title>2&#45;&gt;prog</title>
<path fill="none" stroke="#000000" d="M1114.6,-464.79C1108.18,-445.89 1096.86,-422.47 1078,-409.81 1039.76,-384.14 987.1,-380.95 946.76,-383.44"/>
<polygon fill="#000000" stroke="#000000" points="946.5,-379.95 936.79,-384.19 947.02,-386.93 946.5,-379.95"/>
<text text-anchor="middle" x="1019" y="-454.21" font-family="Times,serif" font-size="32.00">ing</text>
<text text-anchor="middle" x="1019" y="-419.21" font-family="Times,serif" font-size="32.00">=&gt;2 prog</text>
</g>
<!-- a&#45;&gt;1 -->
<g id="edge9" class="edge">
<title>a&#45;&gt;1</title>
<path fill="none" stroke="#000000" d="M1577.94,-493.81C1531.86,-493.81 1435.9,-493.81 1383.34,-493.81"/>
<polygon fill="#000000" stroke="#000000" points="1383.13,-490.31 1373.13,-493.81 1383.13,-497.31 1383.13,-490.31"/>
<text text-anchor="middle" x="1470" y="-538.21" font-family="Times,serif" font-size="32.00">be</text>
<text text-anchor="middle" x="1470" y="-503.21" font-family="Times,serif" font-size="32.00">=a 1</text>
</g>
<!-- v&#45;&gt;0 -->
<g id="edge13" class="edge">
<title>v&#45;&gt;0</title>
<path fill="none" stroke="#000000" d="M367.84,-436.9C341.87,-436.72 302,-432.9 274,-413.81 261.66,-405.39 252.13,-392.25 245.14,-379.55"/>
<polygon fill="#000000" stroke="#000000" points="248.16,-377.78 240.5,-370.46 241.93,-380.96 248.16,-377.78"/>
<text text-anchor="middle" x="312" y="-481.21" font-family="Times,serif" font-size="32.00">will</text>
<text text-anchor="middle" x="312" y="-446.21" font-family="Times,serif" font-size="32.00">=v 0</text>
</g>
<!-- v&#45;&gt;0 -->
<g id="edge15" class="edge">
<title>v&#45;&gt;0</title>
<path fill="none" stroke="#000000" d="M389.09,-405.87C383.67,-383.45 372.53,-354.26 350,-339.81 325.03,-323.78 290.71,-326.51 265.17,-332.09"/>
<polygon fill="#000000" stroke="#000000" points="264.06,-328.76 255.16,-334.51 265.71,-335.56 264.06,-328.76"/>
<text text-anchor="middle" x="312" y="-384.21" font-family="Times,serif" font-size="32.00">ε_2</text>
<text text-anchor="middle" x="312" y="-349.21" font-family="Times,serif" font-size="32.00">=&gt;v 0</text>
</g>
<!-- perf&#45;&gt;v -->
<g id="edge14" class="edge">
<title>perf&#45;&gt;v</title>
<path fill="none" stroke="#000000" d="M563.54,-481.86C524.39,-471.1 467.57,-455.48 431.2,-445.48"/>
<polygon fill="#000000" stroke="#000000" points="432.09,-442.1 421.52,-442.82 430.23,-448.85 432.09,-442.1"/>
<text text-anchor="middle" x="490" y="-520.21" font-family="Times,serif" font-size="32.00">have</text>
<text text-anchor="middle" x="490" y="-485.21" font-family="Times,serif" font-size="32.00">=perf v</text>
</g>
<!-- prog&#45;&gt;0 -->
<g id="edge16" class="edge">
<title>prog&#45;&gt;0</title>
<path fill="none" stroke="#000000" d="M837.95,-379.23C829.34,-377.02 820.41,-374.8 812,-372.81 691.72,-344.34 662.93,-327.77 540,-314.81 495.8,-310.15 484.43,-313.6 440,-314.81 366.14,-316.81 345.93,-306.9 274,-323.81 270.58,-324.61 267.08,-325.67 263.64,-326.87"/>
<polygon fill="#000000" stroke="#000000" points="262.19,-323.68 254.14,-330.57 264.73,-330.2 262.19,-323.68"/>
<text text-anchor="middle" x="490" y="-359.21" font-family="Times,serif" font-size="32.00">be_1</text>
<text text-anchor="middle" x="490" y="-324.21" font-family="Times,serif" font-size="32.00">=prog 0</text>
</g>
<!-- prog&#45;&gt;v -->
<g id="edge17" class="edge">
<title>prog&#45;&gt;v</title>
<path fill="none" stroke="#000000" d="M834.79,-385.37C770.3,-378.33 655.1,-369.88 558,-384.81 512.44,-391.81 462.11,-409.28 429.83,-421.82"/>
<polygon fill="#000000" stroke="#000000" points="428.43,-418.61 420.42,-425.53 431,-425.12 428.43,-418.61"/>
<text text-anchor="middle" x="608" y="-429.21" font-family="Times,serif" font-size="32.00">be_2</text>
<text text-anchor="middle" x="608" y="-394.21" font-family="Times,serif" font-size="32.00">=prog v</text>
</g>
<!-- prog&#45;&gt;perf -->
<g id="edge18" class="edge">
<title>prog&#45;&gt;perf</title>
<path fill="none" stroke="#000000" d="M833.35,-390.42C779.76,-389.99 700.43,-392.48 676,-409.81 660.1,-421.08 669.5,-434.06 658,-449.81 654.54,-454.54 650.51,-459.14 646.26,-463.47"/>
<polygon fill="#000000" stroke="#000000" points="643.76,-461.02 638.98,-470.48 648.61,-466.06 643.76,-461.02"/>
<text text-anchor="middle" x="744" y="-454.21" font-family="Times,serif" font-size="32.00">ben</text>
<text text-anchor="middle" x="744" y="-419.21" font-family="Times,serif" font-size="32.00">=prog perf</text>
</g>
<!-- 3&#45;&gt;1 -->
<g id="edge19" class="edge">
<title>3&#45;&gt;1</title>
<path fill="none" stroke="#000000" d="M1842.5,-409.81C1828.01,-399.49 1807.97,-387.27 1788,-381.81 1693.26,-355.86 1662.28,-360.89 1567,-384.81 1494.97,-402.89 1419.09,-446.84 1377.96,-473.08"/>
<polygon fill="#000000" stroke="#000000" points="1375.99,-470.19 1369.48,-478.55 1379.78,-476.07 1375.99,-470.19"/>
<text text-anchor="middle" x="1605" y="-429.21" font-family="Times,serif" font-size="32.00">ε_3</text>
<text text-anchor="middle" x="1605" y="-394.21" font-family="Times,serif" font-size="32.00">=&gt;3 1</text>
</g>
<!-- 3&#45;&gt;a -->
<g id="edge23" class="edge">
<title>3&#45;&gt;a</title>
<path fill="none" stroke="#000000" d="M1841.93,-443.22C1827.37,-453.18 1807.46,-465.2 1788,-471.81 1739.45,-488.3 1679.93,-492.74 1642.48,-493.78"/>
<polygon fill="#000000" stroke="#000000" points="1641.99,-490.29 1632.06,-493.99 1642.13,-497.28 1641.99,-490.29"/>
<text text-anchor="middle" x="1724.5" y="-538.21" font-family="Times,serif" font-size="32.00">ful</text>
<text text-anchor="middle" x="1724.5" y="-503.21" font-family="Times,serif" font-size="32.00">=&gt;3 a</text>
</g>
<!-- 3&#45;&gt;4 -->
<g id="edge22" class="edge">
<title>3&#45;&gt;4</title>
<path fill="none" stroke="#000000" d="M1892.04,-425.14C1948.36,-421.62 2085.71,-413.56 2200.95,-410.81 2268.93,-409.18 2286.38,-403.19 2353.95,-410.81 2520.66,-429.59 2559.89,-451.44 2721.95,-494.81 2733.99,-498.03 2747.04,-501.92 2758.66,-505.53"/>
<polygon fill="#000000" stroke="#000000" points="2757.85,-508.95 2768.44,-508.61 2759.95,-502.27 2757.85,-508.95"/>
<text text-anchor="middle" x="2277.45" y="-455.21" font-family="Times,serif" font-size="32.00">ε_5</text>
<text text-anchor="middle" x="2277.45" y="-420.21" font-family="Times,serif" font-size="32.00">=&gt;3 4</text>
</g>
<!-- 4&#45;&gt;d -->
<g id="edge21" class="edge">
<title>4&#45;&gt;d</title>
<path fill="none" stroke="#000000" d="M2784.52,-545.13C2774.18,-572.9 2754.28,-613.99 2721.95,-634.81 2648.95,-681.81 2592.85,-600.12 2527.95,-657.81 2502.33,-680.58 2529.76,-704.83 2509.95,-732.81 2501.26,-745.09 2487.95,-754.79 2475.4,-761.93"/>
<polygon fill="#000000" stroke="#000000" points="2473.67,-758.88 2466.48,-766.67 2476.95,-765.07 2473.67,-758.88"/>
<text text-anchor="middle" x="2624.95" y="-702.21" font-family="Times,serif" font-size="32.00">ε_4</text>
<text text-anchor="middle" x="2624.95" y="-667.21" font-family="Times,serif" font-size="32.00">=&gt;4 poss= d &#45;k</text>
</g>
<!-- 5 -->
<g id="node20" class="node">
<title>5</title>
<ellipse fill="none" stroke="black" cx="1865" cy="-290.81" rx="27" ry="30.31"/>
<text text-anchor="middle" x="1865" y="-282.71" font-family="Times,serif" font-size="32.00">5</text>
</g>
<!-- 5&#45;&gt;a -->
<g id="edge26" class="edge">
<title>5&#45;&gt;a</title>
<path fill="none" stroke="#000000" d="M1845.15,-311.53C1830.76,-326.26 1809.75,-345.53 1788,-357.81 1736.46,-386.89 1704.55,-357.74 1661,-397.81 1645.45,-412.11 1653.19,-423.3 1643,-441.81 1639.05,-448.97 1634.31,-456.33 1629.55,-463.17"/>
<polygon fill="#000000" stroke="#000000" points="1626.55,-461.34 1623.58,-471.51 1632.24,-465.42 1626.55,-461.34"/>
<text text-anchor="middle" x="1724.5" y="-442.21" font-family="Times,serif" font-size="32.00">ful_1</text>
<text text-anchor="middle" x="1724.5" y="-407.21" font-family="Times,serif" font-size="32.00">=&gt;5 =of a</text>
</g>
<!-- z3 -->
<g id="node21" class="node">
<title>z3</title>
<ellipse fill="none" stroke="black" stroke-dasharray="5,2" cx="2145.48" cy="-102.81" rx="27" ry="18"/>
</g>
<!-- z3&#45;&gt;5 -->
<g id="edge27" class="edge">
<title>z3&#45;&gt;5</title>
<path fill="none" stroke="#000000" d="M2120.79,-95.14C2080.28,-83.59 1996.74,-66.77 1942,-103.81 1935.43,-108.25 1900.07,-200.11 1879.98,-253.4"/>
<polygon fill="#000000" stroke="#000000" points="1876.67,-252.28 1876.42,-262.87 1883.22,-254.74 1876.67,-252.28"/>
<text text-anchor="middle" x="2016" y="-358.21" font-family="Times,serif" font-size="32.00">boast_2 |</text>
<text text-anchor="middle" x="2016" y="-323.21" font-family="Times,serif" font-size="32.00"> fear_2 |</text>
<text text-anchor="middle" x="2016" y="-288.21" font-family="Times,serif" font-size="32.00"> neglect_2 |</text>
<text text-anchor="middle" x="2016" y="-253.21" font-family="Times,serif" font-size="32.00"> scorn_2 |</text>
<text text-anchor="middle" x="2016" y="-218.21" font-family="Times,serif" font-size="32.00"> respect_2 |</text>
<text text-anchor="middle" x="2016" y="-183.21" font-family="Times,serif" font-size="32.00"> disdain_2 |</text>
<text text-anchor="middle" x="2016" y="-148.21" font-family="Times,serif" font-size="32.00"> doubt_2</text>
<text text-anchor="middle" x="2016" y="-113.21" font-family="Times,serif" font-size="32.00">5</text>
</g>
<!-- 6 -->
<g id="node22" class="node">
<title>6</title>
<ellipse fill="none" stroke="black" cx="1605" cy="-151.81" rx="27" ry="30.31"/>
<text text-anchor="middle" x="1605" y="-143.71" font-family="Times,serif" font-size="32.00">6</text>
</g>
<!-- 6&#45;&gt;1 -->
<g id="edge31" class="edge">
<title>6&#45;&gt;1</title>
<path fill="none" stroke="#000000" d="M1578.64,-159.98C1533.29,-175.98 1438.56,-215.94 1391,-283.81 1355.5,-334.46 1347.54,-407.77 1346.33,-453.02"/>
<polygon fill="#000000" stroke="#000000" points="1342.83,-453 1346.16,-463.06 1349.83,-453.12 1342.83,-453"/>
<text text-anchor="middle" x="1470" y="-328.21" font-family="Times,serif" font-size="32.00">ε_6</text>
<text text-anchor="middle" x="1470" y="-293.21" font-family="Times,serif" font-size="32.00">=&gt;6 =d *k 1</text>
</g>
<!-- z4 -->
<g id="node23" class="node">
<title>z4</title>
<ellipse fill="none" stroke="black" stroke-dasharray="5,2" cx="1865" cy="-107.81" rx="27" ry="18"/>
</g>
<!-- z4&#45;&gt;6 -->
<g id="edge32" class="edge">
<title>z4&#45;&gt;6</title>
<path fill="none" stroke="#000000" d="M1838.76,-102.84C1799.48,-96.23 1721.93,-87.65 1661,-108.81 1651.04,-112.27 1641.5,-118.34 1633.24,-124.85"/>
<polygon fill="#000000" stroke="#000000" points="1630.83,-122.31 1625.44,-131.43 1635.34,-127.66 1630.83,-122.31"/>
<text text-anchor="middle" x="1724.5" y="-328.21" font-family="Times,serif" font-size="32.00">fear |</text>
<text text-anchor="middle" x="1724.5" y="-293.21" font-family="Times,serif" font-size="32.00"> neglect |</text>
<text text-anchor="middle" x="1724.5" y="-258.21" font-family="Times,serif" font-size="32.00"> scorn |</text>
<text text-anchor="middle" x="1724.5" y="-223.21" font-family="Times,serif" font-size="32.00"> respect |</text>
<text text-anchor="middle" x="1724.5" y="-188.21" font-family="Times,serif" font-size="32.00"> disdain |</text>
<text text-anchor="middle" x="1724.5" y="-153.21" font-family="Times,serif" font-size="32.00"> doubt</text>
<text text-anchor="middle" x="1724.5" y="-118.21" font-family="Times,serif" font-size="32.00">6</text>
</g>
</g>
</svg>
