<?xml version="1.0" encoding="UTF-8" standalone="no"?>
<!DOCTYPE svg PUBLIC "-//W3C//DTD SVG 1.1//EN"
 "http://www.w3.org/Graphics/SVG/1.1/DTD/svg11.dtd">
<!-- Generated by graphviz version 2.47.1 (20210417.1919)
 -->
<!-- Title: G Pages: 1 -->
<svg width="3324pt" height="1512pt"
 viewBox="0.00 0.00 3323.65 1512.27" xmlns="http://www.w3.org/2000/svg" xmlns:xlink="http://www.w3.org/1999/xlink">
<g id="graph0" class="graph" transform="scale(1 1) rotate(0) translate(4 1508.27)">
<title>G</title>
<polygon fill="white" stroke="transparent" points="-4,4 -4,-1508.27 3319.65,-1508.27 3319.65,4 -4,4"/>
<text text-anchor="middle" x="1657.83" y="-13.4" font-family="Times,serif" font-size="32.00">decomposition: doubt =of 4, doubt 5, doubt =about 4, doubtful =about a, doubt 6</text>
<!-- t -->
<g id="node1" class="node">
<title>t</title>
<ellipse fill="lightgray" stroke="black" cx="27" cy="-404.27" rx="27" ry="30.31"/>
<text text-anchor="middle" x="27" y="-396.17" font-family="Times,serif" font-size="32.00">t</text>
</g>
<!-- z0 -->
<g id="node2" class="node">
<title>z0</title>
<ellipse fill="none" stroke="black" stroke-dasharray="5,2" cx="3288.65" cy="-1271.27" rx="27" ry="18"/>
</g>
<!-- da -->
<g id="node3" class="node">
<title>da</title>
<ellipse fill="none" stroke="black" cx="3070.33" cy="-1271.27" rx="33.47" ry="30.31"/>
<text text-anchor="middle" x="3070.33" y="-1263.17" font-family="Times,serif" font-size="32.00">da</text>
</g>
<!-- z0&#45;&gt;da -->
<g id="edge1" class="edge">
<title>z0&#45;&gt;da</title>
<path fill="none" stroke="#000000" d="M3261.56,-1271.27C3224.94,-1271.27 3157.87,-1271.27 3113.95,-1271.27"/>
<polygon fill="#000000" stroke="#000000" points="3113.86,-1267.77 3103.86,-1271.27 3113.86,-1274.77 3113.86,-1267.77"/>
<text text-anchor="middle" x="3192.15" y="-1350.67" font-family="Times,serif" font-size="32.00">Mary |</text>
<text text-anchor="middle" x="3192.15" y="-1315.67" font-family="Times,serif" font-size="32.00"> John</text>
<text text-anchor="middle" x="3192.15" y="-1280.67" font-family="Times,serif" font-size="32.00">da &#45;k</text>
</g>
<!-- z1 -->
<g id="node4" class="node">
<title>z1</title>
<ellipse fill="none" stroke="black" stroke-dasharray="5,2" cx="3288.65" cy="-1399.27" rx="27" ry="18"/>
</g>
<!-- poss -->
<g id="node5" class="node">
<title>poss</title>
<ellipse fill="none" stroke="black" cx="3070.33" cy="-1399.27" rx="52.15" ry="30.31"/>
<text text-anchor="middle" x="3070.33" y="-1391.17" font-family="Times,serif" font-size="32.00">poss</text>
</g>
<!-- z1&#45;&gt;poss -->
<g id="edge2" class="edge">
<title>z1&#45;&gt;poss</title>
<path fill="none" stroke="#000000" d="M3261.56,-1399.27C3229.89,-1399.27 3175.47,-1399.27 3132.92,-1399.27"/>
<polygon fill="#000000" stroke="#000000" points="3132.66,-1395.77 3122.66,-1399.27 3132.66,-1402.77 3132.66,-1395.77"/>
<text text-anchor="middle" x="3192.15" y="-1478.67" font-family="Times,serif" font-size="32.00">Mary&#39;s |</text>
<text text-anchor="middle" x="3192.15" y="-1443.67" font-family="Times,serif" font-size="32.00"> John&#39;s</text>
<text text-anchor="middle" x="3192.15" y="-1408.67" font-family="Times,serif" font-size="32.00">poss</text>
</g>
<!-- z2 -->
<g id="node6" class="node">
<title>z2</title>
<ellipse fill="none" stroke="black" stroke-dasharray="5,2" cx="2754.5" cy="-1234.27" rx="27" ry="18"/>
</g>
<!-- d -->
<g id="node7" class="node">
<title>d</title>
<ellipse fill="none" stroke="black" cx="2401" cy="-964.27" rx="27" ry="30.31"/>
<text text-anchor="middle" x="2401" y="-956.17" font-family="Times,serif" font-size="32.00">d</text>
</g>
<!-- z2&#45;&gt;d -->
<g id="edge3" class="edge">
<title>z2&#45;&gt;d</title>
<path fill="none" stroke="#000000" d="M2734.02,-1222.43C2719.95,-1214.25 2700.28,-1203.57 2682,-1196.27 2598.88,-1163.07 2556.68,-1199.66 2488,-1142.27 2445.15,-1106.46 2422.03,-1044.26 2410.87,-1003.69"/>
<polygon fill="#000000" stroke="#000000" points="2414.21,-1002.65 2408.28,-993.87 2407.44,-1004.43 2414.21,-1002.65"/>
<text text-anchor="middle" x="2585" y="-1240.67" font-family="Times,serif" font-size="32.00">the&#45;cause</text>
<text text-anchor="middle" x="2585" y="-1205.67" font-family="Times,serif" font-size="32.00">d &#45;k</text>
</g>
<!-- for -->
<g id="node8" class="node">
<title>for</title>
<ellipse fill="none" stroke="black" cx="2060.5" cy="-705.27" rx="37.45" ry="30.31"/>
<text text-anchor="middle" x="2060.5" y="-697.17" font-family="Times,serif" font-size="32.00">for</text>
</g>
<!-- d&#45;&gt;for -->
<g id="edge4" class="edge">
<title>d&#45;&gt;for</title>
<path fill="none" stroke="#000000" d="M2375.3,-954.25C2360.49,-946.99 2342.55,-935.71 2332,-920.27 2309.49,-887.3 2338.26,-863.97 2314,-832.27 2262.23,-764.63 2164.58,-730.33 2107.07,-715.25"/>
<polygon fill="#000000" stroke="#000000" points="2107.72,-711.81 2097.16,-712.74 2106,-718.59 2107.72,-711.81"/>
<text text-anchor="middle" x="2228" y="-876.67" font-family="Times,serif" font-size="32.00">for</text>
<text text-anchor="middle" x="2228" y="-841.67" font-family="Times,serif" font-size="32.00">=d *k for</text>
</g>
<!-- of -->
<g id="node9" class="node">
<title>of</title>
<ellipse fill="none" stroke="black" cx="3070.33" cy="-1192.27" rx="30.31" ry="30.31"/>
<text text-anchor="middle" x="3070.33" y="-1184.17" font-family="Times,serif" font-size="32.00">of</text>
</g>
<!-- d&#45;&gt;of -->
<g id="edge5" class="edge">
<title>d&#45;&gt;of</title>
<path fill="none" stroke="#000000" d="M2425.85,-976.83C2442.98,-985.69 2466.7,-997.65 2488,-1007.27 2628.28,-1070.63 2698.6,-1030.01 2809,-1137.27 2823.27,-1151.14 2810.66,-1166.91 2827,-1178.27 2887.7,-1220.46 2978.99,-1211.4 3030.45,-1201.52"/>
<polygon fill="#000000" stroke="#000000" points="3031.39,-1204.9 3040.5,-1199.49 3030,-1198.04 3031.39,-1204.9"/>
<text text-anchor="middle" x="2754.5" y="-1181.67" font-family="Times,serif" font-size="32.00">of</text>
<text text-anchor="middle" x="2754.5" y="-1146.67" font-family="Times,serif" font-size="32.00">=d *k of</text>
</g>
<!-- about -->
<g id="node10" class="node">
<title>about</title>
<ellipse fill="none" stroke="black" cx="1900" cy="-828.27" rx="61.54" ry="30.31"/>
<text text-anchor="middle" x="1900" y="-820.17" font-family="Times,serif" font-size="32.00">about</text>
</g>
<!-- d&#45;&gt;about -->
<g id="edge6" class="edge">
<title>d&#45;&gt;about</title>
<path fill="none" stroke="#000000" d="M2374.37,-958.31C2310.34,-943.27 2138.37,-902.02 1997,-860.27 1985.28,-856.81 1972.85,-852.87 1960.95,-848.96"/>
<polygon fill="#000000" stroke="#000000" points="1961.71,-845.53 1951.11,-845.7 1959.51,-852.17 1961.71,-845.53"/>
<text text-anchor="middle" x="2228" y="-987.67" font-family="Times,serif" font-size="32.00">about</text>
<text text-anchor="middle" x="2228" y="-952.67" font-family="Times,serif" font-size="32.00">=d *k about</text>
</g>
<!-- 3 -->
<g id="node18" class="node">
<title>3</title>
<ellipse fill="none" stroke="black" cx="1747" cy="-598.27" rx="27" ry="30.31"/>
<text text-anchor="middle" x="1747" y="-590.17" font-family="Times,serif" font-size="32.00">3</text>
</g>
<!-- for&#45;&gt;3 -->
<g id="edge20" class="edge">
<title>for&#45;&gt;3</title>
<path fill="none" stroke="#000000" d="M2024.12,-696.73C1976.99,-684.92 1891.38,-661.87 1821,-634.27 1807.48,-628.97 1793.04,-622.12 1780.61,-615.82"/>
<polygon fill="#000000" stroke="#000000" points="1782.03,-612.62 1771.54,-611.15 1778.83,-618.84 1782.03,-612.62"/>
<text text-anchor="middle" x="1900" y="-729.67" font-family="Times,serif" font-size="32.00">hope</text>
<text text-anchor="middle" x="1900" y="-694.67" font-family="Times,serif" font-size="32.00">=for 3</text>
</g>
<!-- 4 -->
<g id="node19" class="node">
<title>4</title>
<ellipse fill="none" stroke="black" cx="2754.5" cy="-846.27" rx="27" ry="30.31"/>
<text text-anchor="middle" x="2754.5" y="-838.17" font-family="Times,serif" font-size="32.00">4</text>
</g>
<!-- for&#45;&gt;4 -->
<g id="edge33" class="edge">
<title>for&#45;&gt;4</title>
<path fill="none" stroke="#000000" d="M2097.9,-701.89C2170.02,-696.2 2335.72,-688.15 2470,-719.27 2566.45,-741.62 2670.35,-797.22 2721.42,-826.89"/>
<polygon fill="#000000" stroke="#000000" points="2719.94,-830.08 2730.33,-832.12 2723.48,-824.04 2719.94,-830.08"/>
<text text-anchor="middle" x="2401" y="-798.67" font-family="Times,serif" font-size="32.00">respect_1 |</text>
<text text-anchor="middle" x="2401" y="-763.67" font-family="Times,serif" font-size="32.00"> disdain_1</text>
<text text-anchor="middle" x="2401" y="-728.67" font-family="Times,serif" font-size="32.00">=for 4</text>
</g>
<!-- 1 -->
<g id="node12" class="node">
<title>1</title>
<ellipse fill="none" stroke="black" cx="1346" cy="-555.27" rx="27" ry="30.31"/>
<text text-anchor="middle" x="1346" y="-547.17" font-family="Times,serif" font-size="32.00">1</text>
</g>
<!-- of&#45;&gt;1 -->
<g id="edge24" class="edge">
<title>of&#45;&gt;1</title>
<path fill="none" stroke="#000000" d="M3042.34,-1205.25C2988.9,-1229.73 2865.28,-1280.27 2755.5,-1280.27 2755.5,-1280.27 2755.5,-1280.27 1503,-1280.27 1362.02,-1280.27 1348.08,-749.72 1347,-596.34"/>
<polygon fill="#000000" stroke="#000000" points="1350.5,-595.94 1346.94,-585.96 1343.5,-595.98 1350.5,-595.94"/>
<text text-anchor="middle" x="2060.5" y="-1324.67" font-family="Times,serif" font-size="32.00">boast</text>
<text text-anchor="middle" x="2060.5" y="-1289.67" font-family="Times,serif" font-size="32.00">=of 1</text>
</g>
<!-- of&#45;&gt;4 -->
<g id="edge25" class="edge">
<title>of&#45;&gt;4</title>
<path fill="none" stroke="#000000" d="M3067.53,-1161.88C3063.26,-1119.21 3048.81,-1042.4 3000,-1003.27 2939.48,-954.76 2890.74,-1024.48 2827,-980.27 2794.64,-957.83 2775.71,-915.97 2765.54,-884.98"/>
<polygon fill="#000000" stroke="#000000" points="2768.86,-883.85 2762.54,-875.34 2762.17,-885.93 2768.86,-883.85"/>
<text text-anchor="middle" x="2913.5" y="-1152.67" font-family="Times,serif" font-size="32.00">boast_1 |</text>
<text text-anchor="middle" x="2913.5" y="-1117.67" font-family="Times,serif" font-size="32.00"> fear_1 |</text>
<text text-anchor="middle" x="2913.5" y="-1082.67" font-family="Times,serif" font-size="32.00"> neglect_1 |</text>
<text text-anchor="middle" x="2913.5" y="-1047.67" font-family="Times,serif" font-size="32.00"> scorn_1</text>
<text text-anchor="middle" x="2913.5" y="-1012.67" font-family="Times,serif" font-size="32.00">=of 4</text>
</g>
<!-- about&#45;&gt;1 -->
<g id="edge28" class="edge">
<title>about&#45;&gt;1</title>
<path fill="none" stroke="#000000" d="M1838.94,-824.3C1796.66,-820.17 1739.23,-811.86 1691,-795.27 1546.91,-745.69 1500.41,-735.34 1391,-629.27 1379.95,-618.55 1370.66,-604.48 1363.52,-591.49"/>
<polygon fill="#000000" stroke="#000000" points="1366.44,-589.52 1358.7,-582.28 1360.24,-592.77 1366.44,-589.52"/>
<text text-anchor="middle" x="1616.5" y="-833.67" font-family="Times,serif" font-size="32.00">boast_3</text>
<text text-anchor="middle" x="1616.5" y="-798.67" font-family="Times,serif" font-size="32.00">=about 1</text>
</g>
<!-- a -->
<g id="node14" class="node">
<title>a</title>
<ellipse fill="none" stroke="black" cx="1504" cy="-555.27" rx="27" ry="30.31"/>
<text text-anchor="middle" x="1504" y="-547.17" font-family="Times,serif" font-size="32.00">a</text>
</g>
<!-- about&#45;&gt;a -->
<g id="edge30" class="edge">
<title>about&#45;&gt;a</title>
<path fill="none" stroke="#000000" d="M1865.39,-803.08C1850.61,-790.92 1833.75,-775.47 1821,-759.27 1810.43,-745.83 1816.35,-735.95 1803,-725.27 1715.6,-655.38 1647.39,-729.18 1560,-659.27 1539.16,-642.6 1525.27,-615.85 1516.66,-593.66"/>
<polygon fill="#000000" stroke="#000000" points="1519.9,-592.34 1513.18,-584.15 1513.33,-594.75 1519.9,-592.34"/>
<text text-anchor="middle" x="1747" y="-769.67" font-family="Times,serif" font-size="32.00">boastful</text>
<text text-anchor="middle" x="1747" y="-734.67" font-family="Times,serif" font-size="32.00">=about a</text>
</g>
<!-- about&#45;&gt;4 -->
<g id="edge29" class="edge">
<title>about&#45;&gt;4</title>
<path fill="none" stroke="#000000" d="M1961.51,-829.55C2127.14,-833.04 2584.39,-842.7 2717,-845.5"/>
<polygon fill="#000000" stroke="#000000" points="2716.98,-849 2727.05,-845.71 2717.13,-842 2716.98,-849"/>
<text text-anchor="middle" x="2401" y="-884.67" font-family="Times,serif" font-size="32.00">boast_4</text>
<text text-anchor="middle" x="2401" y="-849.67" font-family="Times,serif" font-size="32.00">=about 4</text>
</g>
<!-- 0 -->
<g id="node11" class="node">
<title>0</title>
<ellipse fill="none" stroke="black" cx="229" cy="-404.27" rx="27" ry="30.31"/>
<text text-anchor="middle" x="229" y="-396.17" font-family="Times,serif" font-size="32.00">0</text>
</g>
<!-- 0&#45;&gt;t -->
<g id="edge7" class="edge">
<title>0&#45;&gt;t</title>
<path fill="none" stroke="#000000" d="M201.85,-404.27C166.67,-404.27 103.92,-404.27 64.21,-404.27"/>
<polygon fill="#000000" stroke="#000000" points="64.15,-400.77 54.15,-404.27 64.15,-407.77 64.15,-400.77"/>
<text text-anchor="middle" x="128" y="-483.67" font-family="Times,serif" font-size="32.00">s |</text>
<text text-anchor="middle" x="128" y="-448.67" font-family="Times,serif" font-size="32.00"> d</text>
<text text-anchor="middle" x="128" y="-413.67" font-family="Times,serif" font-size="32.00">=&gt;0 +k t</text>
</g>
<!-- 2 -->
<g id="node13" class="node">
<title>2</title>
<ellipse fill="none" stroke="black" cx="1123" cy="-555.27" rx="27" ry="30.31"/>
<text text-anchor="middle" x="1123" y="-547.17" font-family="Times,serif" font-size="32.00">2</text>
</g>
<!-- 1&#45;&gt;2 -->
<g id="edge8" class="edge">
<title>1&#45;&gt;2</title>
<path fill="none" stroke="#000000" d="M1318.78,-555.27C1279.4,-555.27 1204.87,-555.27 1160.3,-555.27"/>
<polygon fill="#000000" stroke="#000000" points="1160.19,-551.77 1150.19,-555.27 1160.19,-558.77 1160.19,-551.77"/>
<text text-anchor="middle" x="1234.5" y="-599.67" font-family="Times,serif" font-size="32.00">ε_0</text>
<text text-anchor="middle" x="1234.5" y="-564.67" font-family="Times,serif" font-size="32.00">=&gt;1 =da 2</text>
</g>
<!-- v -->
<g id="node15" class="node">
<title>v</title>
<ellipse fill="none" stroke="black" cx="395" cy="-497.27" rx="27" ry="30.31"/>
<text text-anchor="middle" x="395" y="-489.17" font-family="Times,serif" font-size="32.00">v</text>
</g>
<!-- 2&#45;&gt;v -->
<g id="edge10" class="edge">
<title>2&#45;&gt;v</title>
<path fill="none" stroke="#000000" d="M1098.48,-568.45C1064.98,-586.39 1001,-617.62 942,-629.27 808.68,-655.61 530.94,-676.78 440,-611.27 416.55,-594.38 405.6,-563.18 400.48,-537.69"/>
<polygon fill="#000000" stroke="#000000" points="403.87,-536.76 398.68,-527.53 396.98,-537.98 403.87,-536.76"/>
<text text-anchor="middle" x="744" y="-699.67" font-family="Times,serif" font-size="32.00">ε_1</text>
<text text-anchor="middle" x="744" y="-664.67" font-family="Times,serif" font-size="32.00">=&gt;2 v</text>
</g>
<!-- perf -->
<g id="node16" class="node">
<title>perf</title>
<ellipse fill="none" stroke="black" cx="608" cy="-555.27" rx="48.17" ry="30.31"/>
<text text-anchor="middle" x="608" y="-547.17" font-family="Times,serif" font-size="32.00">perf</text>
</g>
<!-- 2&#45;&gt;perf -->
<g id="edge11" class="edge">
<title>2&#45;&gt;perf</title>
<path fill="none" stroke="#000000" d="M1095.85,-555.27C1016.54,-555.27 777.31,-555.27 666.5,-555.27"/>
<polygon fill="#000000" stroke="#000000" points="666.18,-551.77 656.18,-555.27 666.18,-558.77 666.18,-551.77"/>
<text text-anchor="middle" x="886" y="-599.67" font-family="Times,serif" font-size="32.00">n</text>
<text text-anchor="middle" x="886" y="-564.67" font-family="Times,serif" font-size="32.00">=&gt;2 perf</text>
</g>
<!-- prog -->
<g id="node17" class="node">
<title>prog</title>
<ellipse fill="none" stroke="black" cx="886" cy="-453.27" rx="52.15" ry="30.31"/>
<text text-anchor="middle" x="886" y="-445.17" font-family="Times,serif" font-size="32.00">prog</text>
</g>
<!-- 2&#45;&gt;prog -->
<g id="edge12" class="edge">
<title>2&#45;&gt;prog</title>
<path fill="none" stroke="#000000" d="M1114.6,-526.25C1108.18,-507.35 1096.86,-483.93 1078,-471.27 1039.76,-445.6 987.1,-442.41 946.76,-444.91"/>
<polygon fill="#000000" stroke="#000000" points="946.5,-441.42 936.79,-445.65 947.02,-448.4 946.5,-441.42"/>
<text text-anchor="middle" x="1019" y="-515.67" font-family="Times,serif" font-size="32.00">ing</text>
<text text-anchor="middle" x="1019" y="-480.67" font-family="Times,serif" font-size="32.00">=&gt;2 prog</text>
</g>
<!-- a&#45;&gt;1 -->
<g id="edge9" class="edge">
<title>a&#45;&gt;1</title>
<path fill="none" stroke="#000000" d="M1476.89,-555.27C1451.24,-555.27 1411.9,-555.27 1383.23,-555.27"/>
<polygon fill="#000000" stroke="#000000" points="1383.2,-551.77 1373.2,-555.27 1383.2,-558.77 1383.2,-551.77"/>
<text text-anchor="middle" x="1419.5" y="-599.67" font-family="Times,serif" font-size="32.00">be</text>
<text text-anchor="middle" x="1419.5" y="-564.67" font-family="Times,serif" font-size="32.00">=a 1</text>
</g>
<!-- v&#45;&gt;0 -->
<g id="edge13" class="edge">
<title>v&#45;&gt;0</title>
<path fill="none" stroke="#000000" d="M367.84,-498.37C341.87,-498.19 302,-494.37 274,-475.27 261.66,-466.85 252.13,-453.72 245.14,-441.02"/>
<polygon fill="#000000" stroke="#000000" points="248.16,-439.24 240.5,-431.92 241.93,-442.42 248.16,-439.24"/>
<text text-anchor="middle" x="312" y="-542.67" font-family="Times,serif" font-size="32.00">will</text>
<text text-anchor="middle" x="312" y="-507.67" font-family="Times,serif" font-size="32.00">=v 0</text>
</g>
<!-- v&#45;&gt;0 -->
<g id="edge15" class="edge">
<title>v&#45;&gt;0</title>
<path fill="none" stroke="#000000" d="M389.09,-467.34C383.67,-444.92 372.53,-415.73 350,-401.27 325.03,-385.25 290.71,-387.97 265.17,-393.55"/>
<polygon fill="#000000" stroke="#000000" points="264.06,-390.22 255.16,-395.98 265.71,-397.02 264.06,-390.22"/>
<text text-anchor="middle" x="312" y="-445.67" font-family="Times,serif" font-size="32.00">ε_2</text>
<text text-anchor="middle" x="312" y="-410.67" font-family="Times,serif" font-size="32.00">=&gt;v 0</text>
</g>
<!-- perf&#45;&gt;v -->
<g id="edge14" class="edge">
<title>perf&#45;&gt;v</title>
<path fill="none" stroke="#000000" d="M563.54,-543.32C524.39,-532.56 467.57,-516.94 431.2,-506.95"/>
<polygon fill="#000000" stroke="#000000" points="432.09,-503.56 421.52,-504.28 430.23,-510.31 432.09,-503.56"/>
<text text-anchor="middle" x="490" y="-581.67" font-family="Times,serif" font-size="32.00">have</text>
<text text-anchor="middle" x="490" y="-546.67" font-family="Times,serif" font-size="32.00">=perf v</text>
</g>
<!-- prog&#45;&gt;0 -->
<g id="edge16" class="edge">
<title>prog&#45;&gt;0</title>
<path fill="none" stroke="#000000" d="M837.95,-440.7C829.34,-438.49 820.41,-436.26 812,-434.27 691.72,-405.81 662.93,-389.23 540,-376.27 495.8,-371.61 484.43,-375.07 440,-376.27 366.14,-378.27 345.93,-368.36 274,-385.27 270.58,-386.08 267.08,-387.13 263.64,-388.34"/>
<polygon fill="#000000" stroke="#000000" points="262.19,-385.14 254.14,-392.03 264.73,-391.67 262.19,-385.14"/>
<text text-anchor="middle" x="490" y="-420.67" font-family="Times,serif" font-size="32.00">be_1</text>
<text text-anchor="middle" x="490" y="-385.67" font-family="Times,serif" font-size="32.00">=prog 0</text>
</g>
<!-- prog&#45;&gt;v -->
<g id="edge17" class="edge">
<title>prog&#45;&gt;v</title>
<path fill="none" stroke="#000000" d="M834.79,-446.83C770.3,-439.79 655.1,-431.35 558,-446.27 512.44,-453.27 462.11,-470.74 429.83,-483.28"/>
<polygon fill="#000000" stroke="#000000" points="428.43,-480.07 420.42,-487 431,-486.58 428.43,-480.07"/>
<text text-anchor="middle" x="608" y="-490.67" font-family="Times,serif" font-size="32.00">be_2</text>
<text text-anchor="middle" x="608" y="-455.67" font-family="Times,serif" font-size="32.00">=prog v</text>
</g>
<!-- prog&#45;&gt;perf -->
<g id="edge18" class="edge">
<title>prog&#45;&gt;perf</title>
<path fill="none" stroke="#000000" d="M833.35,-451.88C779.76,-451.45 700.43,-453.94 676,-471.27 660.1,-482.55 669.5,-495.53 658,-511.27 654.54,-516 650.51,-520.6 646.26,-524.93"/>
<polygon fill="#000000" stroke="#000000" points="643.76,-522.49 638.98,-531.95 648.61,-527.53 643.76,-522.49"/>
<text text-anchor="middle" x="744" y="-515.67" font-family="Times,serif" font-size="32.00">ben</text>
<text text-anchor="middle" x="744" y="-480.67" font-family="Times,serif" font-size="32.00">=prog perf</text>
</g>
<!-- 3&#45;&gt;1 -->
<g id="edge19" class="edge">
<title>3&#45;&gt;1</title>
<path fill="none" stroke="#000000" d="M1727.15,-577.33C1693.89,-542.13 1620.81,-472.4 1542,-446.27 1509.94,-435.64 1497.48,-434.03 1466,-446.27 1426.01,-461.82 1391.27,-497.78 1369.82,-524.16"/>
<polygon fill="#000000" stroke="#000000" points="1367.07,-521.99 1363.6,-532 1372.56,-526.34 1367.07,-521.99"/>
<text text-anchor="middle" x="1504" y="-490.67" font-family="Times,serif" font-size="32.00">ε_3</text>
<text text-anchor="middle" x="1504" y="-455.67" font-family="Times,serif" font-size="32.00">=&gt;3 1</text>
</g>
<!-- 3&#45;&gt;a -->
<g id="edge23" class="edge">
<title>3&#45;&gt;a</title>
<path fill="none" stroke="#000000" d="M1720.21,-593.67C1677.02,-585.96 1589.97,-570.43 1540.85,-561.67"/>
<polygon fill="#000000" stroke="#000000" points="1541.43,-558.21 1530.97,-559.9 1540.2,-565.11 1541.43,-558.21"/>
<text text-anchor="middle" x="1616.5" y="-629.67" font-family="Times,serif" font-size="32.00">ful</text>
<text text-anchor="middle" x="1616.5" y="-594.67" font-family="Times,serif" font-size="32.00">=&gt;3 a</text>
</g>
<!-- 3&#45;&gt;4 -->
<g id="edge22" class="edge">
<title>3&#45;&gt;4</title>
<path fill="none" stroke="#000000" d="M1774.14,-597.45C1854.98,-595.35 2107.85,-591.92 2314,-623.27 2481.22,-648.7 2547.98,-617.08 2682,-720.27 2710.88,-742.51 2729.97,-779.94 2741.11,-808.25"/>
<polygon fill="#000000" stroke="#000000" points="2737.92,-809.71 2744.72,-817.84 2744.47,-807.24 2737.92,-809.71"/>
<text text-anchor="middle" x="2228" y="-667.67" font-family="Times,serif" font-size="32.00">ε_5</text>
<text text-anchor="middle" x="2228" y="-632.67" font-family="Times,serif" font-size="32.00">=&gt;3 4</text>
</g>
<!-- 4&#45;&gt;d -->
<g id="edge21" class="edge">
<title>4&#45;&gt;d</title>
<path fill="none" stroke="#000000" d="M2728.5,-854.66C2666.91,-875.34 2507.74,-928.77 2436.89,-952.56"/>
<polygon fill="#000000" stroke="#000000" points="2435.47,-949.34 2427.1,-955.84 2437.7,-955.98 2435.47,-949.34"/>
<text text-anchor="middle" x="2585" y="-977.67" font-family="Times,serif" font-size="32.00">ε_4</text>
<text text-anchor="middle" x="2585" y="-942.67" font-family="Times,serif" font-size="32.00">=&gt;4 poss= d &#45;k</text>
</g>
<!-- 5 -->
<g id="node20" class="node">
<title>5</title>
<ellipse fill="none" stroke="black" cx="2754.5" cy="-522.27" rx="27" ry="30.31"/>
<text text-anchor="middle" x="2754.5" y="-514.17" font-family="Times,serif" font-size="32.00">5</text>
</g>
<!-- 5&#45;&gt;a -->
<g id="edge26" class="edge">
<title>5&#45;&gt;a</title>
<path fill="none" stroke="#000000" d="M2727.48,-522.27C2669.21,-522.27 2523.74,-522.27 2402,-522.27 2402,-522.27 2402,-522.27 1746,-522.27 1672.38,-522.27 1587.28,-537.57 1540.47,-547.33"/>
<polygon fill="#000000" stroke="#000000" points="1539.58,-543.95 1530.52,-549.45 1541.03,-550.79 1539.58,-543.95"/>
<text text-anchor="middle" x="2060.5" y="-566.67" font-family="Times,serif" font-size="32.00">ful_1</text>
<text text-anchor="middle" x="2060.5" y="-531.67" font-family="Times,serif" font-size="32.00">=&gt;5 =of a</text>
</g>
<!-- z3 -->
<g id="node21" class="node">
<title>z3</title>
<ellipse fill="none" stroke="black" stroke-dasharray="5,2" cx="3070.33" cy="-548.27" rx="27" ry="18"/>
</g>
<!-- z3&#45;&gt;5 -->
<g id="edge27" class="edge">
<title>z3&#45;&gt;5</title>
<path fill="none" stroke="#000000" d="M3043.38,-546.12C2987.46,-541.49 2855.47,-530.55 2791.51,-525.25"/>
<polygon fill="#000000" stroke="#000000" points="2791.73,-521.76 2781.48,-524.42 2791.16,-528.74 2791.73,-521.76"/>
<text text-anchor="middle" x="2913.5" y="-761.67" font-family="Times,serif" font-size="32.00">boast_2 |</text>
<text text-anchor="middle" x="2913.5" y="-726.67" font-family="Times,serif" font-size="32.00"> fear_2 |</text>
<text text-anchor="middle" x="2913.5" y="-691.67" font-family="Times,serif" font-size="32.00"> neglect_2 |</text>
<text text-anchor="middle" x="2913.5" y="-656.67" font-family="Times,serif" font-size="32.00"> scorn_2 |</text>
<text text-anchor="middle" x="2913.5" y="-621.67" font-family="Times,serif" font-size="32.00"> respect_2 |</text>
<text text-anchor="middle" x="2913.5" y="-586.67" font-family="Times,serif" font-size="32.00"> disdain_2</text>
<text text-anchor="middle" x="2913.5" y="-551.67" font-family="Times,serif" font-size="32.00">5</text>
</g>
<!-- 6 -->
<g id="node22" class="node">
<title>6</title>
<ellipse fill="none" stroke="black" cx="2754.5" cy="-337.27" rx="27" ry="30.31"/>
<text text-anchor="middle" x="2754.5" y="-329.17" font-family="Times,serif" font-size="32.00">6</text>
</g>
<!-- 6&#45;&gt;1 -->
<g id="edge31" class="edge">
<title>6&#45;&gt;1</title>
<path fill="none" stroke="#000000" d="M2727.48,-337.27C2669.21,-337.27 2523.74,-337.27 2402,-337.27 2402,-337.27 2402,-337.27 1503,-337.27 1416.15,-337.27 1373.03,-453.11 1356.03,-515.9"/>
<polygon fill="#000000" stroke="#000000" points="1352.57,-515.31 1353.43,-525.87 1359.34,-517.08 1352.57,-515.31"/>
<text text-anchor="middle" x="1900" y="-381.67" font-family="Times,serif" font-size="32.00">ε_6</text>
<text text-anchor="middle" x="1900" y="-346.67" font-family="Times,serif" font-size="32.00">=&gt;6 =d *k 1</text>
</g>
<!-- z4 -->
<g id="node23" class="node">
<title>z4</title>
<ellipse fill="none" stroke="black" stroke-dasharray="5,2" cx="3070.33" cy="-104.27" rx="27" ry="18"/>
</g>
<!-- z4&#45;&gt;6 -->
<g id="edge32" class="edge">
<title>z4&#45;&gt;6</title>
<path fill="none" stroke="#000000" d="M3045.39,-96.88C2998.24,-83.91 2892.27,-62.85 2827,-112.27 2769.98,-155.44 2757.47,-244.28 2755.29,-296.49"/>
<polygon fill="#000000" stroke="#000000" points="2751.78,-296.62 2754.97,-306.73 2758.78,-296.84 2751.78,-296.62"/>
<text text-anchor="middle" x="2913.5" y="-296.67" font-family="Times,serif" font-size="32.00">fear |</text>
<text text-anchor="middle" x="2913.5" y="-261.67" font-family="Times,serif" font-size="32.00"> neglect |</text>
<text text-anchor="middle" x="2913.5" y="-226.67" font-family="Times,serif" font-size="32.00"> scorn |</text>
<text text-anchor="middle" x="2913.5" y="-191.67" font-family="Times,serif" font-size="32.00"> respect |</text>
<text text-anchor="middle" x="2913.5" y="-156.67" font-family="Times,serif" font-size="32.00"> disdain</text>
<text text-anchor="middle" x="2913.5" y="-121.67" font-family="Times,serif" font-size="32.00">6</text>
</g>
<!-- 7 -->
<g id="node24" class="node">
<title>7</title>
<ellipse fill="none" stroke="black" cx="3070.33" cy="-455.27" rx="27" ry="30.31"/>
<text text-anchor="middle" x="3070.33" y="-447.17" font-family="Times,serif" font-size="32.00">7</text>
</g>
<!-- 7&#45;&gt;a -->
<g id="edge39" class="edge">
<title>7&#45;&gt;a</title>
<path fill="none" stroke="#f7931d" stroke-width="2" d="M3044.25,-447.03C3031.2,-443.09 3014.9,-438.71 3000,-436.27 2892.59,-418.68 2864.34,-422.27 2755.5,-422.27 2755.5,-422.27 2755.5,-422.27 1746,-422.27 1700.62,-422.27 1589.92,-495.48 1535.81,-533.26"/>
<polygon fill="#f7931d" stroke="#f7931d" stroke-width="2" points="1533.49,-530.62 1527.32,-539.23 1537.51,-536.34 1533.49,-530.62"/>
<text text-anchor="middle" x="2228" y="-466.67" font-family="Times,serif" font-size="32.00">ful_2</text>
<text text-anchor="middle" x="2228" y="-431.67" font-family="Times,serif" font-size="32.00">=&gt;7 =about a</text>
</g>
<!-- 7&#45;&gt;4 -->
<g id="edge36" class="edge">
<title>7&#45;&gt;4</title>
<path fill="none" stroke="#f7931d" stroke-width="2" d="M3049.29,-474.36C3037.9,-486.58 3024.61,-503.44 3018,-521.27 3003.85,-559.45 3029.49,-859.2 3000,-887.27 2972.16,-913.78 2864.15,-897.17 2827,-887.27 2812.54,-883.42 2797.95,-875.87 2785.76,-868.28"/>
<polygon fill="#f7931d" stroke="#f7931d" stroke-width="2" points="2787.64,-865.33 2777.35,-862.81 2783.82,-871.2 2787.64,-865.33"/>
<text text-anchor="middle" x="2913.5" y="-946.67" font-family="Times,serif" font-size="32.00">ε_8</text>
<text text-anchor="middle" x="2913.5" y="-911.67" font-family="Times,serif" font-size="32.00">=&gt;7 =of 4</text>
</g>
<!-- 7&#45;&gt;4 -->
<g id="edge38" class="edge">
<title>7&#45;&gt;4</title>
<path fill="none" stroke="#f7931d" stroke-width="2" d="M3049.14,-474.68C3037.84,-486.89 3024.71,-503.64 3018,-521.27 3007.3,-549.37 3020.61,-769.38 3000,-791.27 2973.43,-819.48 2864.25,-802.58 2827,-813.27 2813.83,-817.05 2800.02,-822.93 2788.08,-828.68"/>
<polygon fill="#f7931d" stroke="#f7931d" stroke-width="2" points="2786.35,-825.63 2778.96,-833.22 2789.47,-831.9 2786.35,-825.63"/>
<text text-anchor="middle" x="2913.5" y="-857.67" font-family="Times,serif" font-size="32.00">ε_10</text>
<text text-anchor="middle" x="2913.5" y="-822.67" font-family="Times,serif" font-size="32.00">=&gt;7 =about 4</text>
</g>
<!-- 7&#45;&gt;5 -->
<g id="edge37" class="edge">
<title>7&#45;&gt;5</title>
<path fill="none" stroke="#f7931d" stroke-width="2" d="M3043.77,-449.34C2998.3,-440.04 2901.14,-425.96 2827,-455.27 2808.35,-462.64 2791.72,-477.43 2779.2,-491.24"/>
<polygon fill="#f7931d" stroke="#f7931d" stroke-width="2" points="2776.21,-489.34 2772.32,-499.19 2781.51,-493.92 2776.21,-489.34"/>
<text text-anchor="middle" x="2913.5" y="-499.67" font-family="Times,serif" font-size="32.00">ε_9</text>
<text text-anchor="middle" x="2913.5" y="-464.67" font-family="Times,serif" font-size="32.00">=&gt;7 5</text>
</g>
<!-- 7&#45;&gt;6 -->
<g id="edge34" class="edge">
<title>7&#45;&gt;6</title>
<path fill="none" stroke="#f7931d" stroke-width="2" d="M3061.31,-426.43C3051.79,-398.31 3032.89,-357.1 3000,-338.27 2965.51,-318.52 2850.66,-327.13 2791.46,-333.18"/>
<polygon fill="#f7931d" stroke="#f7931d" stroke-width="2" points="2791.01,-329.7 2781.43,-334.23 2791.74,-336.67 2791.01,-329.7"/>
<text text-anchor="middle" x="2913.5" y="-382.67" font-family="Times,serif" font-size="32.00">ε_7</text>
<text text-anchor="middle" x="2913.5" y="-347.67" font-family="Times,serif" font-size="32.00">=&gt;7 6</text>
</g>
<!-- z5 -->
<g id="node25" class="node">
<title>z5</title>
<ellipse fill="none" stroke="black" stroke-dasharray="5,2" cx="3288.65" cy="-455.27" rx="27" ry="18"/>
</g>
<!-- z5&#45;&gt;7 -->
<g id="edge35" class="edge">
<title>z5&#45;&gt;7</title>
<path fill="none" stroke="#f7931d" stroke-width="2" d="M3261.56,-455.27C3223.15,-455.27 3151.24,-455.27 3107.67,-455.27"/>
<polygon fill="#f7931d" stroke="#f7931d" stroke-width="2" points="3107.51,-451.77 3097.51,-455.27 3107.51,-458.77 3107.51,-451.77"/>
<text text-anchor="middle" x="3192.15" y="-499.67" font-family="Times,serif" font-size="32.00">doubt</text>
<text text-anchor="middle" x="3192.15" y="-464.67" font-family="Times,serif" font-size="32.00">7</text>
</g>
</g>
</svg>
