<?xml version="1.0" encoding="UTF-8" standalone="no"?>
<!DOCTYPE svg PUBLIC "-//W3C//DTD SVG 1.1//EN"
 "http://www.w3.org/Graphics/SVG/1.1/DTD/svg11.dtd">
<!-- Generated by graphviz version 2.47.1 (20210417.1919)
 -->
<!-- Title: G Pages: 1 -->
<svg width="3299pt" height="1970pt"
 viewBox="0.00 0.00 3298.65 1970.41" xmlns="http://www.w3.org/2000/svg" xmlns:xlink="http://www.w3.org/1999/xlink">
<g id="graph0" class="graph" transform="scale(1 1) rotate(0) translate(4 1966.41)">
<title>G</title>
<polygon fill="white" stroke="transparent" points="-4,4 -4,-1966.41 3294.65,-1966.41 3294.65,4 -4,4"/>
<text text-anchor="middle" x="1645.33" y="-48.4" font-family="Times,serif" font-size="32.00">decomposition: respect =for 4, respect 5, respect 6</text>
<text text-anchor="middle" x="1645.33" y="-13.4" font-family="Times,serif" font-size="32.00">decomposition: disdain =for 4, disdain 5, disdain 6</text>
<!-- t -->
<g id="node1" class="node">
<title>t</title>
<ellipse fill="lightgray" stroke="black" cx="27" cy="-1227.41" rx="27" ry="30.31"/>
<text text-anchor="middle" x="27" y="-1219.31" font-family="Times,serif" font-size="32.00">t</text>
</g>
<!-- z0 -->
<g id="node2" class="node">
<title>z0</title>
<ellipse fill="none" stroke="black" stroke-dasharray="5,2" cx="3263.65" cy="-1729.41" rx="27" ry="18"/>
</g>
<!-- da -->
<g id="node3" class="node">
<title>da</title>
<ellipse fill="none" stroke="black" cx="3045.33" cy="-1729.41" rx="33.47" ry="30.31"/>
<text text-anchor="middle" x="3045.33" y="-1721.31" font-family="Times,serif" font-size="32.00">da</text>
</g>
<!-- z0&#45;&gt;da -->
<g id="edge1" class="edge">
<title>z0&#45;&gt;da</title>
<path fill="none" stroke="#000000" d="M3236.56,-1729.41C3199.94,-1729.41 3132.87,-1729.41 3088.95,-1729.41"/>
<polygon fill="#000000" stroke="#000000" points="3088.86,-1725.91 3078.86,-1729.41 3088.86,-1732.91 3088.86,-1725.91"/>
<text text-anchor="middle" x="3167.15" y="-1808.81" font-family="Times,serif" font-size="32.00">Mary |</text>
<text text-anchor="middle" x="3167.15" y="-1773.81" font-family="Times,serif" font-size="32.00"> John</text>
<text text-anchor="middle" x="3167.15" y="-1738.81" font-family="Times,serif" font-size="32.00">da &#45;k</text>
</g>
<!-- z1 -->
<g id="node4" class="node">
<title>z1</title>
<ellipse fill="none" stroke="black" stroke-dasharray="5,2" cx="3263.65" cy="-1857.41" rx="27" ry="18"/>
</g>
<!-- poss -->
<g id="node5" class="node">
<title>poss</title>
<ellipse fill="none" stroke="black" cx="3045.33" cy="-1857.41" rx="52.15" ry="30.31"/>
<text text-anchor="middle" x="3045.33" y="-1849.31" font-family="Times,serif" font-size="32.00">poss</text>
</g>
<!-- z1&#45;&gt;poss -->
<g id="edge2" class="edge">
<title>z1&#45;&gt;poss</title>
<path fill="none" stroke="#000000" d="M3236.56,-1857.41C3204.89,-1857.41 3150.47,-1857.41 3107.92,-1857.41"/>
<polygon fill="#000000" stroke="#000000" points="3107.66,-1853.91 3097.66,-1857.41 3107.66,-1860.91 3107.66,-1853.91"/>
<text text-anchor="middle" x="3167.15" y="-1936.81" font-family="Times,serif" font-size="32.00">Mary&#39;s |</text>
<text text-anchor="middle" x="3167.15" y="-1901.81" font-family="Times,serif" font-size="32.00"> John&#39;s</text>
<text text-anchor="middle" x="3167.15" y="-1866.81" font-family="Times,serif" font-size="32.00">poss</text>
</g>
<!-- z2 -->
<g id="node6" class="node">
<title>z2</title>
<ellipse fill="none" stroke="black" stroke-dasharray="5,2" cx="2729.5" cy="-1287.41" rx="27" ry="18"/>
</g>
<!-- d -->
<g id="node7" class="node">
<title>d</title>
<ellipse fill="none" stroke="black" cx="2388.5" cy="-1446.41" rx="27" ry="30.31"/>
<text text-anchor="middle" x="2388.5" y="-1438.31" font-family="Times,serif" font-size="32.00">d</text>
</g>
<!-- z2&#45;&gt;d -->
<g id="edge3" class="edge">
<title>z2&#45;&gt;d</title>
<path fill="none" stroke="#000000" d="M2703.31,-1282.14C2652.99,-1273.07 2538.42,-1259.94 2463,-1309.41 2428.99,-1331.72 2409.55,-1375.23 2399.31,-1407.26"/>
<polygon fill="#000000" stroke="#000000" points="2395.85,-1406.63 2396.31,-1417.21 2402.55,-1408.65 2395.85,-1406.63"/>
<text text-anchor="middle" x="2560" y="-1353.81" font-family="Times,serif" font-size="32.00">the&#45;cause</text>
<text text-anchor="middle" x="2560" y="-1318.81" font-family="Times,serif" font-size="32.00">d &#45;k</text>
</g>
<!-- for -->
<g id="node8" class="node">
<title>for</title>
<ellipse fill="none" stroke="black" cx="2060.5" cy="-1436.41" rx="37.45" ry="30.31"/>
<text text-anchor="middle" x="2060.5" y="-1428.31" font-family="Times,serif" font-size="32.00">for</text>
</g>
<!-- d&#45;&gt;for -->
<g id="edge4" class="edge">
<title>d&#45;&gt;for</title>
<path fill="none" stroke="#000000" d="M2361.37,-1445.61C2306.33,-1443.92 2177.8,-1439.98 2108.23,-1437.84"/>
<polygon fill="#000000" stroke="#000000" points="2108.1,-1434.34 2098,-1437.53 2107.88,-1441.34 2108.1,-1434.34"/>
<text text-anchor="middle" x="2228" y="-1488.81" font-family="Times,serif" font-size="32.00">for</text>
<text text-anchor="middle" x="2228" y="-1453.81" font-family="Times,serif" font-size="32.00">=d *k for</text>
</g>
<!-- of -->
<g id="node9" class="node">
<title>of</title>
<ellipse fill="none" stroke="black" cx="3045.33" cy="-1650.41" rx="30.31" ry="30.31"/>
<text text-anchor="middle" x="3045.33" y="-1642.31" font-family="Times,serif" font-size="32.00">of</text>
</g>
<!-- d&#45;&gt;of -->
<g id="edge5" class="edge">
<title>d&#45;&gt;of</title>
<path fill="none" stroke="#000000" d="M2410.34,-1464.35C2424.53,-1475.96 2444.09,-1490.82 2463,-1501.41 2604.48,-1580.68 2643.68,-1601.28 2802,-1636.41 2872.14,-1651.97 2956.33,-1653.02 3004.75,-1651.98"/>
<polygon fill="#000000" stroke="#000000" points="3004.91,-1655.47 3014.82,-1651.72 3004.73,-1648.48 3004.91,-1655.47"/>
<text text-anchor="middle" x="2729.5" y="-1676.81" font-family="Times,serif" font-size="32.00">of</text>
<text text-anchor="middle" x="2729.5" y="-1641.81" font-family="Times,serif" font-size="32.00">=d *k of</text>
</g>
<!-- about -->
<g id="node10" class="node">
<title>about</title>
<ellipse fill="none" stroke="black" cx="1900" cy="-1531.41" rx="61.54" ry="30.31"/>
<text text-anchor="middle" x="1900" y="-1523.31" font-family="Times,serif" font-size="32.00">about</text>
</g>
<!-- d&#45;&gt;about -->
<g id="edge6" class="edge">
<title>d&#45;&gt;about</title>
<path fill="none" stroke="#000000" d="M2370.83,-1469.91C2357.55,-1486.51 2337.36,-1507.51 2314,-1517.41 2254.29,-1542.72 2072.94,-1539.27 1971.53,-1535.05"/>
<polygon fill="#000000" stroke="#000000" points="1971.52,-1531.55 1961.38,-1534.61 1971.22,-1538.54 1971.52,-1531.55"/>
<text text-anchor="middle" x="2228" y="-1582.81" font-family="Times,serif" font-size="32.00">about</text>
<text text-anchor="middle" x="2228" y="-1547.81" font-family="Times,serif" font-size="32.00">=d *k about</text>
</g>
<!-- 3 -->
<g id="node18" class="node">
<title>3</title>
<ellipse fill="none" stroke="black" cx="1747" cy="-1358.41" rx="27" ry="30.31"/>
<text text-anchor="middle" x="1747" y="-1350.31" font-family="Times,serif" font-size="32.00">3</text>
</g>
<!-- for&#45;&gt;3 -->
<g id="edge20" class="edge">
<title>for&#45;&gt;3</title>
<path fill="none" stroke="#000000" d="M2024.37,-1427.61C1964.51,-1412.62 1843.39,-1382.3 1783.36,-1367.27"/>
<polygon fill="#000000" stroke="#000000" points="1784.14,-1363.85 1773.58,-1364.82 1782.43,-1370.64 1784.14,-1363.85"/>
<text text-anchor="middle" x="1900" y="-1460.81" font-family="Times,serif" font-size="32.00">hope</text>
<text text-anchor="middle" x="1900" y="-1425.81" font-family="Times,serif" font-size="32.00">=for 3</text>
</g>
<!-- 1 -->
<g id="node12" class="node">
<title>1</title>
<ellipse fill="none" stroke="black" cx="1346" cy="-1363.41" rx="27" ry="30.31"/>
<text text-anchor="middle" x="1346" y="-1355.31" font-family="Times,serif" font-size="32.00">1</text>
</g>
<!-- of&#45;&gt;1 -->
<g id="edge24" class="edge">
<title>of&#45;&gt;1</title>
<path fill="none" stroke="#000000" d="M3018.32,-1664.45C2965.63,-1691.55 2841.8,-1748.41 2730.5,-1748.41 2730.5,-1748.41 2730.5,-1748.41 1503,-1748.41 1428.99,-1748.41 1373.38,-1500.96 1354.24,-1402.82"/>
<polygon fill="#000000" stroke="#000000" points="1357.67,-1402.14 1352.34,-1392.98 1350.8,-1403.46 1357.67,-1402.14"/>
<text text-anchor="middle" x="2060.5" y="-1792.81" font-family="Times,serif" font-size="32.00">boast</text>
<text text-anchor="middle" x="2060.5" y="-1757.81" font-family="Times,serif" font-size="32.00">=of 1</text>
</g>
<!-- 4 -->
<g id="node19" class="node">
<title>4</title>
<ellipse fill="none" stroke="black" cx="2729.5" cy="-1365.41" rx="27" ry="30.31"/>
<text text-anchor="middle" x="2729.5" y="-1357.31" font-family="Times,serif" font-size="32.00">4</text>
</g>
<!-- of&#45;&gt;4 -->
<g id="edge25" class="edge">
<title>of&#45;&gt;4</title>
<path fill="none" stroke="#000000" d="M3042.53,-1620.02C3038.26,-1577.35 3023.81,-1500.54 2975,-1461.41 2914.48,-1412.9 2871.37,-1473.12 2802,-1438.41 2782.86,-1428.83 2765.88,-1412.07 2753.27,-1397.02"/>
<polygon fill="#000000" stroke="#000000" points="2755.73,-1394.49 2746.73,-1388.89 2750.27,-1398.87 2755.73,-1394.49"/>
<text text-anchor="middle" x="2888.5" y="-1610.81" font-family="Times,serif" font-size="32.00">boast_1 |</text>
<text text-anchor="middle" x="2888.5" y="-1575.81" font-family="Times,serif" font-size="32.00"> fear_1 |</text>
<text text-anchor="middle" x="2888.5" y="-1540.81" font-family="Times,serif" font-size="32.00"> neglect_1 |</text>
<text text-anchor="middle" x="2888.5" y="-1505.81" font-family="Times,serif" font-size="32.00"> scorn_1</text>
<text text-anchor="middle" x="2888.5" y="-1470.81" font-family="Times,serif" font-size="32.00">=of 4</text>
</g>
<!-- about&#45;&gt;1 -->
<g id="edge28" class="edge">
<title>about&#45;&gt;1</title>
<path fill="none" stroke="#000000" d="M1838.38,-1529.19C1796.59,-1526.79 1739.98,-1521.79 1691,-1511.41 1587.88,-1489.56 1561.55,-1480.93 1466,-1436.41 1434.64,-1421.8 1401.25,-1400.78 1377.84,-1385.05"/>
<polygon fill="#000000" stroke="#000000" points="1379.62,-1382.03 1369.39,-1379.3 1375.69,-1387.82 1379.62,-1382.03"/>
<text text-anchor="middle" x="1616.5" y="-1551.81" font-family="Times,serif" font-size="32.00">boast_3</text>
<text text-anchor="middle" x="1616.5" y="-1516.81" font-family="Times,serif" font-size="32.00">=about 1</text>
</g>
<!-- a -->
<g id="node14" class="node">
<title>a</title>
<ellipse fill="none" stroke="black" cx="1504" cy="-1278.41" rx="27" ry="30.31"/>
<text text-anchor="middle" x="1504" y="-1270.31" font-family="Times,serif" font-size="32.00">a</text>
</g>
<!-- about&#45;&gt;a -->
<g id="edge30" class="edge">
<title>about&#45;&gt;a</title>
<path fill="none" stroke="#000000" d="M1850.53,-1512.97C1839.71,-1507.07 1829.06,-1499.62 1821,-1490.41 1805.71,-1472.96 1819.44,-1457.78 1803,-1441.41 1782.65,-1421.15 1582.99,-1370.62 1560,-1353.41 1545.55,-1342.59 1533.23,-1326.92 1523.94,-1312.69"/>
<polygon fill="#000000" stroke="#000000" points="1526.82,-1310.7 1518.55,-1304.08 1520.89,-1314.41 1526.82,-1310.7"/>
<text text-anchor="middle" x="1747" y="-1485.81" font-family="Times,serif" font-size="32.00">boastful</text>
<text text-anchor="middle" x="1747" y="-1450.81" font-family="Times,serif" font-size="32.00">=about a</text>
</g>
<!-- about&#45;&gt;4 -->
<g id="edge29" class="edge">
<title>about&#45;&gt;4</title>
<path fill="none" stroke="#000000" d="M1947.01,-1551.35C1994.72,-1570.87 2072,-1599.23 2142,-1610.41 2217.49,-1622.47 2238.46,-1622.12 2314,-1610.41 2472.07,-1585.9 2534.37,-1604.12 2657,-1501.41 2687.35,-1475.99 2706.55,-1434.32 2717.32,-1403.8"/>
<polygon fill="#000000" stroke="#000000" points="2720.63,-1404.91 2720.52,-1394.31 2714,-1402.67 2720.63,-1404.91"/>
<text text-anchor="middle" x="2388.5" y="-1651.81" font-family="Times,serif" font-size="32.00">boast_4</text>
<text text-anchor="middle" x="2388.5" y="-1616.81" font-family="Times,serif" font-size="32.00">=about 4</text>
</g>
<!-- 0 -->
<g id="node11" class="node">
<title>0</title>
<ellipse fill="none" stroke="black" cx="229" cy="-1227.41" rx="27" ry="30.31"/>
<text text-anchor="middle" x="229" y="-1219.31" font-family="Times,serif" font-size="32.00">0</text>
</g>
<!-- 0&#45;&gt;t -->
<g id="edge7" class="edge">
<title>0&#45;&gt;t</title>
<path fill="none" stroke="#000000" d="M201.85,-1227.41C166.67,-1227.41 103.92,-1227.41 64.21,-1227.41"/>
<polygon fill="#000000" stroke="#000000" points="64.15,-1223.91 54.15,-1227.41 64.15,-1230.91 64.15,-1223.91"/>
<text text-anchor="middle" x="128" y="-1306.81" font-family="Times,serif" font-size="32.00">s |</text>
<text text-anchor="middle" x="128" y="-1271.81" font-family="Times,serif" font-size="32.00"> d</text>
<text text-anchor="middle" x="128" y="-1236.81" font-family="Times,serif" font-size="32.00">=&gt;0 +k t</text>
</g>
<!-- 2 -->
<g id="node13" class="node">
<title>2</title>
<ellipse fill="none" stroke="black" cx="1123" cy="-1363.41" rx="27" ry="30.31"/>
<text text-anchor="middle" x="1123" y="-1355.31" font-family="Times,serif" font-size="32.00">2</text>
</g>
<!-- 1&#45;&gt;2 -->
<g id="edge8" class="edge">
<title>1&#45;&gt;2</title>
<path fill="none" stroke="#000000" d="M1318.78,-1363.41C1279.4,-1363.41 1204.87,-1363.41 1160.3,-1363.41"/>
<polygon fill="#000000" stroke="#000000" points="1160.19,-1359.91 1150.19,-1363.41 1160.19,-1366.91 1160.19,-1359.91"/>
<text text-anchor="middle" x="1234.5" y="-1407.81" font-family="Times,serif" font-size="32.00">ε_0</text>
<text text-anchor="middle" x="1234.5" y="-1372.81" font-family="Times,serif" font-size="32.00">=&gt;1 =da 2</text>
</g>
<!-- v -->
<g id="node15" class="node">
<title>v</title>
<ellipse fill="none" stroke="black" cx="395" cy="-1320.41" rx="27" ry="30.31"/>
<text text-anchor="middle" x="395" y="-1312.31" font-family="Times,serif" font-size="32.00">v</text>
</g>
<!-- 2&#45;&gt;v -->
<g id="edge10" class="edge">
<title>2&#45;&gt;v</title>
<path fill="none" stroke="#000000" d="M1095.76,-1363.29C999.29,-1362.76 664.34,-1360.19 558,-1349.41 514.14,-1344.97 464.3,-1335.34 431.62,-1328.4"/>
<polygon fill="#000000" stroke="#000000" points="432.16,-1324.94 421.64,-1326.25 430.68,-1331.78 432.16,-1324.94"/>
<text text-anchor="middle" x="744" y="-1404.81" font-family="Times,serif" font-size="32.00">ε_1</text>
<text text-anchor="middle" x="744" y="-1369.81" font-family="Times,serif" font-size="32.00">=&gt;2 v</text>
</g>
<!-- perf -->
<g id="node16" class="node">
<title>perf</title>
<ellipse fill="none" stroke="black" cx="608" cy="-1421.41" rx="48.17" ry="30.31"/>
<text text-anchor="middle" x="608" y="-1413.31" font-family="Times,serif" font-size="32.00">perf</text>
</g>
<!-- 2&#45;&gt;perf -->
<g id="edge11" class="edge">
<title>2&#45;&gt;perf</title>
<path fill="none" stroke="#000000" d="M1096.99,-1371.83C1090.82,-1373.78 1084.2,-1375.76 1078,-1377.41 903.59,-1423.73 855.63,-1451.68 676,-1434.41 671.89,-1434.02 667.65,-1433.49 663.4,-1432.87"/>
<polygon fill="#000000" stroke="#000000" points="663.94,-1429.41 653.52,-1431.28 662.83,-1436.32 663.94,-1429.41"/>
<text text-anchor="middle" x="886" y="-1481.81" font-family="Times,serif" font-size="32.00">n</text>
<text text-anchor="middle" x="886" y="-1446.81" font-family="Times,serif" font-size="32.00">=&gt;2 perf</text>
</g>
<!-- prog -->
<g id="node17" class="node">
<title>prog</title>
<ellipse fill="none" stroke="black" cx="886" cy="-1253.41" rx="52.15" ry="30.31"/>
<text text-anchor="middle" x="886" y="-1245.31" font-family="Times,serif" font-size="32.00">prog</text>
</g>
<!-- 2&#45;&gt;prog -->
<g id="edge12" class="edge">
<title>2&#45;&gt;prog</title>
<path fill="none" stroke="#000000" d="M1114.29,-1334.23C1107.77,-1315.51 1096.46,-1292.36 1078,-1279.41 1040.45,-1253.07 988.35,-1247.48 948.05,-1247.97"/>
<polygon fill="#000000" stroke="#000000" points="947.72,-1244.48 937.82,-1248.23 947.9,-1251.48 947.72,-1244.48"/>
<text text-anchor="middle" x="1019" y="-1323.81" font-family="Times,serif" font-size="32.00">ing</text>
<text text-anchor="middle" x="1019" y="-1288.81" font-family="Times,serif" font-size="32.00">=&gt;2 prog</text>
</g>
<!-- a&#45;&gt;1 -->
<g id="edge9" class="edge">
<title>a&#45;&gt;1</title>
<path fill="none" stroke="#000000" d="M1477.39,-1271.6C1453.27,-1266.72 1417.05,-1263.49 1391,-1279.41 1374.68,-1289.39 1364.11,-1307.61 1357.43,-1324.54"/>
<polygon fill="#000000" stroke="#000000" points="1354.02,-1323.69 1353.94,-1334.29 1360.61,-1326.06 1354.02,-1323.69"/>
<text text-anchor="middle" x="1419.5" y="-1323.81" font-family="Times,serif" font-size="32.00">be</text>
<text text-anchor="middle" x="1419.5" y="-1288.81" font-family="Times,serif" font-size="32.00">=a 1</text>
</g>
<!-- v&#45;&gt;0 -->
<g id="edge13" class="edge">
<title>v&#45;&gt;0</title>
<path fill="none" stroke="#000000" d="M388.46,-1290.85C382.75,-1269.49 371.51,-1242.09 350,-1228.41 325.12,-1212.59 291.09,-1213.95 265.61,-1218.34"/>
<polygon fill="#000000" stroke="#000000" points="264.76,-1214.94 255.62,-1220.28 266.1,-1221.81 264.76,-1214.94"/>
<text text-anchor="middle" x="312" y="-1272.81" font-family="Times,serif" font-size="32.00">will</text>
<text text-anchor="middle" x="312" y="-1237.81" font-family="Times,serif" font-size="32.00">=v 0</text>
</g>
<!-- v&#45;&gt;0 -->
<g id="edge15" class="edge">
<title>v&#45;&gt;0</title>
<path fill="none" stroke="#000000" d="M367.84,-1321.51C341.87,-1321.33 302,-1317.51 274,-1298.41 261.66,-1289.99 252.13,-1276.86 245.14,-1264.16"/>
<polygon fill="#000000" stroke="#000000" points="248.16,-1262.38 240.5,-1255.07 241.93,-1265.56 248.16,-1262.38"/>
<text text-anchor="middle" x="312" y="-1365.81" font-family="Times,serif" font-size="32.00">ε_2</text>
<text text-anchor="middle" x="312" y="-1330.81" font-family="Times,serif" font-size="32.00">=&gt;v 0</text>
</g>
<!-- perf&#45;&gt;v -->
<g id="edge14" class="edge">
<title>perf&#45;&gt;v</title>
<path fill="none" stroke="#000000" d="M560.11,-1417.27C524.66,-1412.29 476.11,-1401.35 440,-1377.41 430.84,-1371.34 422.78,-1362.71 416.15,-1354.01"/>
<polygon fill="#000000" stroke="#000000" points="418.9,-1351.83 410.24,-1345.72 413.2,-1355.89 418.9,-1351.83"/>
<text text-anchor="middle" x="490" y="-1458.81" font-family="Times,serif" font-size="32.00">have</text>
<text text-anchor="middle" x="490" y="-1423.81" font-family="Times,serif" font-size="32.00">=perf v</text>
</g>
<!-- prog&#45;&gt;0 -->
<g id="edge16" class="edge">
<title>prog&#45;&gt;0</title>
<path fill="none" stroke="#000000" d="M835.48,-1245.28C768.63,-1234.75 645.73,-1216.97 540,-1210.41 495.64,-1207.66 484.44,-1210.14 440,-1210.41 366.22,-1210.85 346.72,-1199.91 274,-1212.41 270.92,-1212.94 267.76,-1213.65 264.62,-1214.48"/>
<polygon fill="#000000" stroke="#000000" points="263.34,-1211.21 254.77,-1217.44 265.36,-1217.92 263.34,-1211.21"/>
<text text-anchor="middle" x="490" y="-1254.81" font-family="Times,serif" font-size="32.00">be_1</text>
<text text-anchor="middle" x="490" y="-1219.81" font-family="Times,serif" font-size="32.00">=prog 0</text>
</g>
<!-- prog&#45;&gt;v -->
<g id="edge17" class="edge">
<title>prog&#45;&gt;v</title>
<path fill="none" stroke="#000000" d="M833.56,-1251.82C826.32,-1251.65 818.97,-1251.51 812,-1251.41 751.56,-1250.58 736.03,-1244.39 676,-1251.41 622.46,-1257.68 610.35,-1266.58 558,-1279.41 514.4,-1290.1 464.31,-1302.85 431.51,-1311.26"/>
<polygon fill="#000000" stroke="#000000" points="430.32,-1307.95 421.5,-1313.83 432.06,-1314.73 430.32,-1307.95"/>
<text text-anchor="middle" x="608" y="-1323.81" font-family="Times,serif" font-size="32.00">be_2</text>
<text text-anchor="middle" x="608" y="-1288.81" font-family="Times,serif" font-size="32.00">=prog v</text>
</g>
<!-- prog&#45;&gt;perf -->
<g id="edge18" class="edge">
<title>prog&#45;&gt;perf</title>
<path fill="none" stroke="#000000" d="M833.34,-1252.01C779.75,-1251.57 700.41,-1254.05 676,-1271.41 675.69,-1271.63 645.91,-1338.45 626.17,-1382.82"/>
<polygon fill="#000000" stroke="#000000" points="622.87,-1381.63 622,-1392.19 629.26,-1384.48 622.87,-1381.63"/>
<text text-anchor="middle" x="744" y="-1315.81" font-family="Times,serif" font-size="32.00">ben</text>
<text text-anchor="middle" x="744" y="-1280.81" font-family="Times,serif" font-size="32.00">=prog perf</text>
</g>
<!-- 3&#45;&gt;1 -->
<g id="edge19" class="edge">
<title>3&#45;&gt;1</title>
<path fill="none" stroke="#000000" d="M1719.82,-1358.74C1650.55,-1359.61 1462.34,-1361.97 1383.02,-1362.96"/>
<polygon fill="#000000" stroke="#000000" points="1382.97,-1359.46 1373.02,-1363.08 1383.06,-1366.46 1382.97,-1359.46"/>
<text text-anchor="middle" x="1504" y="-1406.81" font-family="Times,serif" font-size="32.00">ε_3</text>
<text text-anchor="middle" x="1504" y="-1371.81" font-family="Times,serif" font-size="32.00">=&gt;3 1</text>
</g>
<!-- 3&#45;&gt;a -->
<g id="edge23" class="edge">
<title>3&#45;&gt;a</title>
<path fill="none" stroke="#000000" d="M1731.23,-1333.67C1718.46,-1314.89 1698.12,-1290.49 1673,-1279.41 1630.56,-1260.69 1576.01,-1264.84 1540.77,-1270.68"/>
<polygon fill="#000000" stroke="#000000" points="1539.72,-1267.31 1530.5,-1272.52 1540.96,-1274.2 1539.72,-1267.31"/>
<text text-anchor="middle" x="1616.5" y="-1323.81" font-family="Times,serif" font-size="32.00">ful</text>
<text text-anchor="middle" x="1616.5" y="-1288.81" font-family="Times,serif" font-size="32.00">=&gt;3 a</text>
</g>
<!-- 3&#45;&gt;4 -->
<g id="edge22" class="edge">
<title>3&#45;&gt;4</title>
<path fill="none" stroke="#000000" d="M1774.31,-1358.6C1910.4,-1359.57 2534.32,-1364.02 2692.14,-1365.15"/>
<polygon fill="#000000" stroke="#000000" points="2692.25,-1368.65 2702.27,-1365.22 2692.3,-1361.65 2692.25,-1368.65"/>
<text text-anchor="middle" x="2228" y="-1406.81" font-family="Times,serif" font-size="32.00">ε_5</text>
<text text-anchor="middle" x="2228" y="-1371.81" font-family="Times,serif" font-size="32.00">=&gt;3 4</text>
</g>
<!-- 4&#45;&gt;d -->
<g id="edge21" class="edge">
<title>4&#45;&gt;d</title>
<path fill="none" stroke="#000000" d="M2703.02,-1371.5C2643.26,-1385.78 2493.97,-1421.45 2425.21,-1437.88"/>
<polygon fill="#000000" stroke="#000000" points="2424.19,-1434.52 2415.28,-1440.25 2425.82,-1441.33 2424.19,-1434.52"/>
<text text-anchor="middle" x="2560" y="-1471.81" font-family="Times,serif" font-size="32.00">ε_4</text>
<text text-anchor="middle" x="2560" y="-1436.81" font-family="Times,serif" font-size="32.00">=&gt;4 poss= d &#45;k</text>
</g>
<!-- 5 -->
<g id="node20" class="node">
<title>5</title>
<ellipse fill="none" stroke="black" cx="2729.5" cy="-784.41" rx="27" ry="30.31"/>
<text text-anchor="middle" x="2729.5" y="-776.31" font-family="Times,serif" font-size="32.00">5</text>
</g>
<!-- 5&#45;&gt;a -->
<g id="edge26" class="edge">
<title>5&#45;&gt;a</title>
<path fill="none" stroke="#000000" d="M2709.37,-805.28C2661.04,-855.58 2528.01,-979.41 2389.5,-979.41 2389.5,-979.41 2389.5,-979.41 1746,-979.41 1613.81,-979.41 1541.82,-1158.76 1516.07,-1239.65"/>
<polygon fill="#000000" stroke="#000000" points="1512.65,-1238.88 1513.02,-1249.47 1519.33,-1240.96 1512.65,-1238.88"/>
<text text-anchor="middle" x="2060.5" y="-1023.81" font-family="Times,serif" font-size="32.00">ful_1</text>
<text text-anchor="middle" x="2060.5" y="-988.81" font-family="Times,serif" font-size="32.00">=&gt;5 =of a</text>
</g>
<!-- z3 -->
<g id="node21" class="node">
<title>z3</title>
<ellipse fill="none" stroke="black" stroke-dasharray="5,2" cx="3045.33" cy="-493.41" rx="27" ry="18"/>
</g>
<!-- z3&#45;&gt;5 -->
<g id="edge27" class="edge">
<title>z3&#45;&gt;5</title>
<path fill="none" stroke="#000000" d="M3020.44,-486.28C2972.92,-473.69 2865.62,-453.46 2802,-505.41 2765.25,-535.42 2743.7,-674.23 2735,-744.06"/>
<polygon fill="#000000" stroke="#000000" points="2731.5,-743.9 2733.77,-754.25 2738.45,-744.74 2731.5,-743.9"/>
<text text-anchor="middle" x="2888.5" y="-654.81" font-family="Times,serif" font-size="32.00">boast_2 |</text>
<text text-anchor="middle" x="2888.5" y="-619.81" font-family="Times,serif" font-size="32.00"> fear_2 |</text>
<text text-anchor="middle" x="2888.5" y="-584.81" font-family="Times,serif" font-size="32.00"> neglect_2 |</text>
<text text-anchor="middle" x="2888.5" y="-549.81" font-family="Times,serif" font-size="32.00"> scorn_2</text>
<text text-anchor="middle" x="2888.5" y="-514.81" font-family="Times,serif" font-size="32.00">5</text>
</g>
<!-- 6 -->
<g id="node22" class="node">
<title>6</title>
<ellipse fill="none" stroke="black" cx="2729.5" cy="-400.41" rx="27" ry="30.31"/>
<text text-anchor="middle" x="2729.5" y="-392.31" font-family="Times,serif" font-size="32.00">6</text>
</g>
<!-- 6&#45;&gt;1 -->
<g id="edge31" class="edge">
<title>6&#45;&gt;1</title>
<path fill="none" stroke="#000000" d="M2707.64,-419.02C2657.01,-462.17 2522.05,-565.41 2389.5,-565.41 2389.5,-565.41 2389.5,-565.41 1503,-565.41 1424.96,-565.41 1365.34,-1160.9 1350.55,-1323.06"/>
<polygon fill="#000000" stroke="#000000" points="1347.05,-1322.83 1349.64,-1333.1 1354.03,-1323.46 1347.05,-1322.83"/>
<text text-anchor="middle" x="1900" y="-609.81" font-family="Times,serif" font-size="32.00">ε_6</text>
<text text-anchor="middle" x="1900" y="-574.81" font-family="Times,serif" font-size="32.00">=&gt;6 =d *k 1</text>
</g>
<!-- z4 -->
<g id="node23" class="node">
<title>z4</title>
<ellipse fill="none" stroke="black" stroke-dasharray="5,2" cx="3045.33" cy="-144.41" rx="27" ry="18"/>
</g>
<!-- z4&#45;&gt;6 -->
<g id="edge32" class="edge">
<title>z4&#45;&gt;6</title>
<path fill="none" stroke="#000000" d="M3021.08,-136.2C2974.25,-121.28 2867.44,-95.58 2802,-145.41 2767.8,-171.45 2745.41,-295.51 2735.83,-360.49"/>
<polygon fill="#000000" stroke="#000000" points="2732.36,-359.99 2734.4,-370.39 2739.29,-360.99 2732.36,-359.99"/>
<text text-anchor="middle" x="2888.5" y="-259.81" font-family="Times,serif" font-size="32.00">fear |</text>
<text text-anchor="middle" x="2888.5" y="-224.81" font-family="Times,serif" font-size="32.00"> neglect |</text>
<text text-anchor="middle" x="2888.5" y="-189.81" font-family="Times,serif" font-size="32.00"> scorn</text>
<text text-anchor="middle" x="2888.5" y="-154.81" font-family="Times,serif" font-size="32.00">6</text>
</g>
<!-- 7 -->
<g id="node24" class="node">
<title>7</title>
<ellipse fill="none" stroke="black" cx="3045.33" cy="-784.41" rx="27" ry="30.31"/>
<text text-anchor="middle" x="3045.33" y="-776.31" font-family="Times,serif" font-size="32.00">7</text>
</g>
<!-- 7&#45;&gt;4 -->
<g id="edge35" class="edge">
<title>7&#45;&gt;4</title>
<path fill="none" stroke="#f7931d" stroke-width="2" d="M3042.39,-814.78C3036.9,-891.13 3018.73,-1088.27 2975,-1134.41 2920.42,-1191.99 2854.71,-1119.11 2802,-1178.41 2761.49,-1223.98 2811.64,-1260.06 2784,-1314.41 2778.47,-1325.29 2769.66,-1335.13 2760.77,-1343.2"/>
<polygon fill="#f7931d" stroke="#f7931d" stroke-width="2" points="2758.36,-1340.65 2753.02,-1349.81 2762.9,-1345.98 2758.36,-1340.65"/>
<text text-anchor="middle" x="2888.5" y="-1222.81" font-family="Times,serif" font-size="32.00">ε_8</text>
<text text-anchor="middle" x="2888.5" y="-1187.81" font-family="Times,serif" font-size="32.00">=&gt;7 =for 4</text>
</g>
<!-- 7&#45;&gt;5 -->
<g id="edge36" class="edge">
<title>7&#45;&gt;5</title>
<path fill="none" stroke="#f7931d" stroke-width="2" d="M3018.11,-784.41C2962.15,-784.41 2830.92,-784.41 2766.9,-784.41"/>
<polygon fill="#f7931d" stroke="#f7931d" stroke-width="2" points="2766.86,-780.91 2756.86,-784.41 2766.86,-787.91 2766.86,-780.91"/>
<text text-anchor="middle" x="2888.5" y="-828.81" font-family="Times,serif" font-size="32.00">ε_9</text>
<text text-anchor="middle" x="2888.5" y="-793.81" font-family="Times,serif" font-size="32.00">=&gt;7 5</text>
</g>
<!-- 7&#45;&gt;6 -->
<g id="edge33" class="edge">
<title>7&#45;&gt;6</title>
<path fill="none" stroke="#f7931d" stroke-width="2" d="M3022.53,-767.89C3011.59,-758.27 2999.35,-745.14 2993,-730.41 2978.37,-696.49 3001.82,-423.82 2975,-398.41 2945.94,-370.88 2827.01,-385 2766.39,-394.34"/>
<polygon fill="#f7931d" stroke="#f7931d" stroke-width="2" points="2765.81,-390.89 2756.48,-395.91 2766.9,-397.8 2765.81,-390.89"/>
<text text-anchor="middle" x="2888.5" y="-442.81" font-family="Times,serif" font-size="32.00">ε_7</text>
<text text-anchor="middle" x="2888.5" y="-407.81" font-family="Times,serif" font-size="32.00">=&gt;7 6</text>
</g>
<!-- z5 -->
<g id="node25" class="node">
<title>z5</title>
<ellipse fill="none" stroke="black" stroke-dasharray="5,2" cx="3263.65" cy="-784.41" rx="27" ry="18"/>
</g>
<!-- z5&#45;&gt;7 -->
<g id="edge34" class="edge">
<title>z5&#45;&gt;7</title>
<path fill="none" stroke="#f7931d" stroke-width="2" d="M3236.56,-784.41C3198.15,-784.41 3126.24,-784.41 3082.67,-784.41"/>
<polygon fill="#f7931d" stroke="#f7931d" stroke-width="2" points="3082.51,-780.91 3072.51,-784.41 3082.51,-787.91 3082.51,-780.91"/>
<text text-anchor="middle" x="3167.15" y="-828.81" font-family="Times,serif" font-size="32.00">respect</text>
<text text-anchor="middle" x="3167.15" y="-793.81" font-family="Times,serif" font-size="32.00">7</text>
</g>
<!-- 8 -->
<g id="node26" class="node">
<title>8</title>
<ellipse fill="none" stroke="black" cx="3045.33" cy="-691.41" rx="27" ry="30.31"/>
<text text-anchor="middle" x="3045.33" y="-683.31" font-family="Times,serif" font-size="32.00">8</text>
</g>
<!-- 8&#45;&gt;4 -->
<g id="edge39" class="edge">
<title>8&#45;&gt;4</title>
<path fill="none" stroke="#00b9f1" stroke-width="2" d="M3022.56,-707.95C3011.64,-717.57 2999.4,-730.7 2993,-745.41 2979.85,-775.62 2997.73,-1017.55 2975,-1041.41 2921.65,-1097.42 2855.63,-1004.67 2802,-1060.41 2762.77,-1101.19 2808.1,-1263.21 2784,-1314.41 2778.76,-1325.55 2769.93,-1335.49 2760.95,-1343.58"/>
<polygon fill="#00b9f1" stroke="#00b9f1" stroke-width="2" points="2758.49,-1341.08 2753.1,-1350.2 2763,-1346.43 2758.49,-1341.08"/>
<text text-anchor="middle" x="2888.5" y="-1104.81" font-family="Times,serif" font-size="32.00">ε_11</text>
<text text-anchor="middle" x="2888.5" y="-1069.81" font-family="Times,serif" font-size="32.00">=&gt;8 =for 4</text>
</g>
<!-- 8&#45;&gt;5 -->
<g id="edge40" class="edge">
<title>8&#45;&gt;5</title>
<path fill="none" stroke="#00b9f1" stroke-width="2" d="M3018.41,-687.69C2972.36,-682.29 2874.34,-676.32 2802,-710.41 2782.5,-719.6 2765.5,-736.56 2752.97,-751.94"/>
<polygon fill="#00b9f1" stroke="#00b9f1" stroke-width="2" points="2749.88,-750.21 2746.49,-760.25 2755.4,-754.52 2749.88,-750.21"/>
<text text-anchor="middle" x="2888.5" y="-754.81" font-family="Times,serif" font-size="32.00">ε_12</text>
<text text-anchor="middle" x="2888.5" y="-719.81" font-family="Times,serif" font-size="32.00">=&gt;8 5</text>
</g>
<!-- 8&#45;&gt;6 -->
<g id="edge37" class="edge">
<title>8&#45;&gt;6</title>
<path fill="none" stroke="#00b9f1" stroke-width="2" d="M3034.07,-663.71C3022.14,-630.25 3002.83,-572.02 2993,-520.41 2988.58,-497.19 2992.41,-324.4 2975,-308.41 2946.69,-282.4 2836.53,-291.51 2802,-308.41 2778.1,-320.11 2759.88,-344.07 2747.82,-364.61"/>
<polygon fill="#00b9f1" stroke="#00b9f1" stroke-width="2" points="2744.7,-363.02 2742.87,-373.45 2750.81,-366.43 2744.7,-363.02"/>
<text text-anchor="middle" x="2888.5" y="-352.81" font-family="Times,serif" font-size="32.00">ε_10</text>
<text text-anchor="middle" x="2888.5" y="-317.81" font-family="Times,serif" font-size="32.00">=&gt;8 6</text>
</g>
<!-- z6 -->
<g id="node27" class="node">
<title>z6</title>
<ellipse fill="none" stroke="black" stroke-dasharray="5,2" cx="3263.65" cy="-691.41" rx="27" ry="18"/>
</g>
<!-- z6&#45;&gt;8 -->
<g id="edge38" class="edge">
<title>z6&#45;&gt;8</title>
<path fill="none" stroke="#00b9f1" stroke-width="2" d="M3236.56,-691.41C3198.15,-691.41 3126.24,-691.41 3082.67,-691.41"/>
<polygon fill="#00b9f1" stroke="#00b9f1" stroke-width="2" points="3082.51,-687.91 3072.51,-691.41 3082.51,-694.91 3082.51,-687.91"/>
<text text-anchor="middle" x="3167.15" y="-735.81" font-family="Times,serif" font-size="32.00">disdain</text>
<text text-anchor="middle" x="3167.15" y="-700.81" font-family="Times,serif" font-size="32.00">8</text>
</g>
<!-- 9 -->
<g id="node28" class="node">
<title>9</title>
<ellipse fill="none" stroke="black" cx="3045.33" cy="-1241.41" rx="27" ry="30.31"/>
<text text-anchor="middle" x="3045.33" y="-1233.31" font-family="Times,serif" font-size="32.00">9</text>
</g>
<!-- 9&#45;&gt;a -->
<g id="edge46" class="edge">
<title>9&#45;&gt;a</title>
<path fill="none" stroke="#000000" d="M3018.29,-1241.41C2964.52,-1241.41 2837.29,-1241.41 2730.5,-1241.41 2730.5,-1241.41 2730.5,-1241.41 1746,-1241.41 1662.81,-1241.41 1641.57,-1246.07 1560,-1262.41 1553.54,-1263.71 1546.73,-1265.4 1540.2,-1267.21"/>
<polygon fill="#000000" stroke="#000000" points="1538.88,-1263.95 1530.24,-1270.09 1540.82,-1270.67 1538.88,-1263.95"/>
<text text-anchor="middle" x="2228" y="-1285.81" font-family="Times,serif" font-size="32.00">ful_2</text>
<text text-anchor="middle" x="2228" y="-1250.81" font-family="Times,serif" font-size="32.00">=&gt;9 =about a</text>
</g>
<!-- 9&#45;&gt;4 -->
<g id="edge43" class="edge">
<title>9&#45;&gt;4</title>
<path fill="none" stroke="#000000" d="M3018.34,-1245.69C3005.34,-1247.79 2989.35,-1250.32 2975,-1252.41 2936.62,-1258.01 2833.22,-1252.4 2802,-1275.41 2786.63,-1286.74 2795.11,-1298.88 2784,-1314.41 2777.01,-1324.18 2767.99,-1333.62 2759.34,-1341.67"/>
<polygon fill="#000000" stroke="#000000" points="2757,-1339.07 2751.91,-1348.36 2761.68,-1344.27 2757,-1339.07"/>
<text text-anchor="middle" x="2888.5" y="-1319.81" font-family="Times,serif" font-size="32.00">ε_14</text>
<text text-anchor="middle" x="2888.5" y="-1284.81" font-family="Times,serif" font-size="32.00">=&gt;9 =of 4</text>
</g>
<!-- 9&#45;&gt;4 -->
<g id="edge45" class="edge">
<title>9&#45;&gt;4</title>
<path fill="none" stroke="#000000" d="M3034,-1269.23C3023.28,-1293.82 3003.98,-1328.34 2975,-1345.41 2940.73,-1365.59 2826.3,-1366.97 2766.94,-1366.24"/>
<polygon fill="#000000" stroke="#000000" points="2766.92,-1362.74 2756.87,-1366.09 2766.82,-1369.74 2766.92,-1362.74"/>
<text text-anchor="middle" x="2888.5" y="-1410.81" font-family="Times,serif" font-size="32.00">ε_16</text>
<text text-anchor="middle" x="2888.5" y="-1375.81" font-family="Times,serif" font-size="32.00">=&gt;9 =about 4</text>
</g>
<!-- 9&#45;&gt;5 -->
<g id="edge44" class="edge">
<title>9&#45;&gt;5</title>
<path fill="none" stroke="#000000" d="M3040.78,-1211.01C3032.71,-1147.34 3010.84,-1003.21 2975,-971.41 2916.98,-919.93 2863.94,-995.1 2802,-948.41 2762.66,-918.76 2744.63,-862.91 2736.59,-824.7"/>
<polygon fill="#000000" stroke="#000000" points="2739.94,-823.56 2734.58,-814.42 2733.07,-824.91 2739.94,-823.56"/>
<text text-anchor="middle" x="2888.5" y="-1015.81" font-family="Times,serif" font-size="32.00">ε_15</text>
<text text-anchor="middle" x="2888.5" y="-980.81" font-family="Times,serif" font-size="32.00">=&gt;9 5</text>
</g>
<!-- 9&#45;&gt;6 -->
<g id="edge41" class="edge">
<title>9&#45;&gt;6</title>
<path fill="none" stroke="#000000" d="M3043.08,-1210.94C3039.15,-1131.3 3024.19,-919.94 2975,-874.41 2918.23,-821.87 2857.95,-908.82 2802,-855.41 2801.05,-854.51 2753.88,-551.09 2736.69,-440.3"/>
<polygon fill="#000000" stroke="#000000" points="2740.11,-439.54 2735.12,-430.2 2733.19,-440.61 2740.11,-439.54"/>
<text text-anchor="middle" x="2888.5" y="-918.81" font-family="Times,serif" font-size="32.00">ε_13</text>
<text text-anchor="middle" x="2888.5" y="-883.81" font-family="Times,serif" font-size="32.00">=&gt;9 6</text>
</g>
<!-- z7 -->
<g id="node29" class="node">
<title>z7</title>
<ellipse fill="none" stroke="black" stroke-dasharray="5,2" cx="3263.65" cy="-1241.41" rx="27" ry="18"/>
</g>
<!-- z7&#45;&gt;9 -->
<g id="edge42" class="edge">
<title>z7&#45;&gt;9</title>
<path fill="none" stroke="#000000" d="M3236.56,-1241.41C3198.15,-1241.41 3126.24,-1241.41 3082.67,-1241.41"/>
<polygon fill="#000000" stroke="#000000" points="3082.51,-1237.91 3072.51,-1241.41 3082.51,-1244.91 3082.51,-1237.91"/>
<text text-anchor="middle" x="3167.15" y="-1285.81" font-family="Times,serif" font-size="32.00">doubt</text>
<text text-anchor="middle" x="3167.15" y="-1250.81" font-family="Times,serif" font-size="32.00">9</text>
</g>
</g>
</svg>
