<?xml version="1.0" encoding="UTF-8" standalone="no"?>
<!DOCTYPE svg PUBLIC "-//W3C//DTD SVG 1.1//EN"
 "http://www.w3.org/Graphics/SVG/1.1/DTD/svg11.dtd">
<!-- Generated by graphviz version 2.47.1 (20210417.1919)
 -->
<!-- Title: G Pages: 1 -->
<svg width="2884pt" height="2435pt"
 viewBox="0.00 0.00 2883.64 2435.41" xmlns="http://www.w3.org/2000/svg" xmlns:xlink="http://www.w3.org/1999/xlink">
<g id="graph0" class="graph" transform="scale(1 1) rotate(0) translate(4 2431.41)">
<title>G</title>
<polygon fill="white" stroke="transparent" points="-4,4 -4,-2431.41 2879.64,-2431.41 2879.64,4 -4,4"/>
<text text-anchor="middle" x="1437.82" y="-13.4" font-family="Times,serif" font-size="32.00">single contraction: 4 → 1</text>
<!-- t -->
<g id="node1" class="node">
<title>t</title>
<ellipse fill="lightgray" stroke="black" cx="27" cy="-1511.41" rx="27" ry="30.31"/>
<text text-anchor="middle" x="27" y="-1503.31" font-family="Times,serif" font-size="32.00">t</text>
</g>
<!-- z0 -->
<g id="node2" class="node">
<title>z0</title>
<ellipse fill="none" stroke="black" stroke-dasharray="5,2" cx="2838.17" cy="-2194.41" rx="27" ry="18"/>
</g>
<!-- da -->
<g id="node3" class="node">
<title>da</title>
<ellipse fill="none" stroke="black" cx="2515.36" cy="-2194.41" rx="33.47" ry="30.31"/>
<text text-anchor="middle" x="2515.36" y="-2186.31" font-family="Times,serif" font-size="32.00">da</text>
</g>
<!-- z0&#45;&gt;da -->
<g id="edge1" class="edge">
<title>z0&#45;&gt;da</title>
<path fill="none" stroke="#000000" d="M2810.91,-2194.41C2755.52,-2194.41 2626.24,-2194.41 2558.88,-2194.41"/>
<polygon fill="#000000" stroke="#000000" points="2558.62,-2190.91 2548.62,-2194.41 2558.62,-2197.91 2558.62,-2190.91"/>
<text text-anchor="middle" x="2684.19" y="-2273.81" font-family="Times,serif" font-size="32.00">Mary |</text>
<text text-anchor="middle" x="2684.19" y="-2238.81" font-family="Times,serif" font-size="32.00"> John</text>
<text text-anchor="middle" x="2684.19" y="-2203.81" font-family="Times,serif" font-size="32.00">da &#45;k</text>
</g>
<!-- z1 -->
<g id="node4" class="node">
<title>z1</title>
<ellipse fill="none" stroke="black" stroke-dasharray="5,2" cx="2838.17" cy="-2322.41" rx="27" ry="18"/>
</g>
<!-- poss -->
<g id="node5" class="node">
<title>poss</title>
<ellipse fill="none" stroke="black" cx="2515.36" cy="-2322.41" rx="52.15" ry="30.31"/>
<text text-anchor="middle" x="2515.36" y="-2314.31" font-family="Times,serif" font-size="32.00">poss</text>
</g>
<!-- z1&#45;&gt;poss -->
<g id="edge2" class="edge">
<title>z1&#45;&gt;poss</title>
<path fill="none" stroke="#000000" d="M2810.91,-2322.41C2760.35,-2322.41 2648.25,-2322.41 2577.84,-2322.41"/>
<polygon fill="#000000" stroke="#000000" points="2577.77,-2318.91 2567.77,-2322.41 2577.77,-2325.91 2577.77,-2318.91"/>
<text text-anchor="middle" x="2684.19" y="-2401.81" font-family="Times,serif" font-size="32.00">Mary&#39;s |</text>
<text text-anchor="middle" x="2684.19" y="-2366.81" font-family="Times,serif" font-size="32.00"> John&#39;s</text>
<text text-anchor="middle" x="2684.19" y="-2331.81" font-family="Times,serif" font-size="32.00">poss</text>
</g>
<!-- z2 -->
<g id="node6" class="node">
<title>z2</title>
<ellipse fill="none" stroke="black" stroke-dasharray="5,2" cx="2838.17" cy="-1618.41" rx="27" ry="18"/>
</g>
<!-- d -->
<g id="node7" class="node">
<title>d</title>
<ellipse fill="none" stroke="black" cx="2515.36" cy="-1055.41" rx="27" ry="30.31"/>
<text text-anchor="middle" x="2515.36" y="-1047.31" font-family="Times,serif" font-size="32.00">d</text>
</g>
<!-- z2&#45;&gt;d -->
<g id="edge3" class="edge">
<title>z2&#45;&gt;d</title>
<path fill="none" stroke="#000000" d="M2827.56,-1601.56C2783.09,-1523.51 2596.71,-1196.42 2535.75,-1089.43"/>
<polygon fill="#000000" stroke="#000000" points="2538.74,-1087.61 2530.75,-1080.65 2532.66,-1091.07 2538.74,-1087.61"/>
<text text-anchor="middle" x="2684.19" y="-1555.81" font-family="Times,serif" font-size="32.00">the&#45;cause</text>
<text text-anchor="middle" x="2684.19" y="-1520.81" font-family="Times,serif" font-size="32.00">d &#45;k</text>
</g>
<!-- for -->
<g id="node8" class="node">
<title>for</title>
<ellipse fill="none" stroke="black" cx="2838.17" cy="-587.41" rx="37.45" ry="30.31"/>
<text text-anchor="middle" x="2838.17" y="-579.31" font-family="Times,serif" font-size="32.00">for</text>
</g>
<!-- d&#45;&gt;for -->
<g id="edge4" class="edge">
<title>d&#45;&gt;for</title>
<path fill="none" stroke="#000000" d="M2541.86,-1049.42C2595.94,-1035.29 2722.16,-994.47 2782.69,-909.41 2814.44,-864.79 2829.29,-704.18 2834.67,-628.02"/>
<polygon fill="#000000" stroke="#000000" points="2838.17,-628.07 2835.37,-617.86 2831.19,-627.59 2838.17,-628.07"/>
<text text-anchor="middle" x="2684.19" y="-1080.81" font-family="Times,serif" font-size="32.00">for</text>
<text text-anchor="middle" x="2684.19" y="-1045.81" font-family="Times,serif" font-size="32.00">=d *k for</text>
</g>
<!-- of -->
<g id="node9" class="node">
<title>of</title>
<ellipse fill="none" stroke="black" cx="2134.52" cy="-685.41" rx="30.31" ry="30.31"/>
<text text-anchor="middle" x="2134.52" y="-677.31" font-family="Times,serif" font-size="32.00">of</text>
</g>
<!-- d&#45;&gt;of -->
<g id="edge5" class="edge">
<title>d&#45;&gt;of</title>
<path fill="none" stroke="#000000" d="M2502.81,-1028.38C2491.48,-1005.17 2471.98,-972.66 2445.04,-954.41 2357.91,-895.39 2292.98,-972 2214.04,-902.41 2162.41,-856.9 2144.71,-774.76 2138.66,-725.64"/>
<polygon fill="#000000" stroke="#000000" points="2142.13,-725.23 2137.53,-715.68 2135.18,-726.01 2142.13,-725.23"/>
<text text-anchor="middle" x="2329.54" y="-998.81" font-family="Times,serif" font-size="32.00">of</text>
<text text-anchor="middle" x="2329.54" y="-963.81" font-family="Times,serif" font-size="32.00">=d *k of</text>
</g>
<!-- about -->
<g id="node10" class="node">
<title>about</title>
<ellipse fill="none" stroke="black" cx="2134.52" cy="-1208.41" rx="61.54" ry="30.31"/>
<text text-anchor="middle" x="2134.52" y="-1200.31" font-family="Times,serif" font-size="32.00">about</text>
</g>
<!-- d&#45;&gt;about -->
<g id="edge6" class="edge">
<title>d&#45;&gt;about</title>
<path fill="none" stroke="#000000" d="M2507.31,-1084.63C2498.33,-1114.9 2479.66,-1160.85 2445.04,-1183.41 2372.54,-1230.65 2269.27,-1228.48 2202.32,-1220.29"/>
<polygon fill="#000000" stroke="#000000" points="2202.68,-1216.8 2192.31,-1218.98 2201.77,-1223.75 2202.68,-1216.8"/>
<text text-anchor="middle" x="2329.54" y="-1269.81" font-family="Times,serif" font-size="32.00">about</text>
<text text-anchor="middle" x="2329.54" y="-1234.81" font-family="Times,serif" font-size="32.00">=d *k about</text>
</g>
<!-- 1 -->
<g id="node13" class="node">
<title>1</title>
<ellipse fill="none" stroke="black" cx="1338.5" cy="-1384.41" rx="27" ry="30.31"/>
<text text-anchor="middle" x="1338.5" y="-1376.31" font-family="Times,serif" font-size="32.00">1</text>
</g>
<!-- d&#45;&gt;1 -->
<g id="edge54" class="edge">
<title>d&#45;&gt;1</title>
<path fill="none" stroke="#000000" d="M2514.98,-1085.83C2514.27,-1137.49 2504.99,-1242.31 2445.04,-1299.41 2251.41,-1483.81 2124.65,-1404.99 1859,-1435.41 1783.49,-1444.06 1755.64,-1470.06 1688,-1435.41 1675.81,-1429.17 1681.93,-1417.13 1670,-1410.41 1620.64,-1382.63 1451.82,-1382.2 1376.41,-1383.48"/>
<polygon fill="#000000" stroke="#000000" points="1375.91,-1379.99 1365.98,-1383.68 1376.05,-1386.99 1375.91,-1379.99"/>
<text text-anchor="middle" x="1966" y="-1513.81" font-family="Times,serif" font-size="32.00">scorn |</text>
<text text-anchor="middle" x="1966" y="-1478.81" font-family="Times,serif" font-size="32.00"> respect</text>
<text text-anchor="middle" x="1966" y="-1443.81" font-family="Times,serif" font-size="32.00">=d *k 1</text>
</g>
<!-- 2 -->
<g id="node17" class="node">
<title>2</title>
<ellipse fill="none" stroke="black" cx="1773.5" cy="-1081.41" rx="27" ry="30.31"/>
<text text-anchor="middle" x="1773.5" y="-1073.31" font-family="Times,serif" font-size="32.00">2</text>
</g>
<!-- d&#45;&gt;2 -->
<g id="edge42" class="edge">
<title>d&#45;&gt;2</title>
<path fill="none" stroke="#000000" d="M2488.38,-1052.66C2401.36,-1044 2112.38,-1019.75 1877,-1052.41 1853.91,-1055.61 1828.72,-1062.69 1809.08,-1069.05"/>
<polygon fill="#000000" stroke="#000000" points="1807.74,-1065.81 1799.36,-1072.29 1809.95,-1072.45 1807.74,-1065.81"/>
<text text-anchor="middle" x="2134.52" y="-1081.81" font-family="Times,serif" font-size="32.00">fear</text>
<text text-anchor="middle" x="2134.52" y="-1046.81" font-family="Times,serif" font-size="32.00">=d *k 2</text>
</g>
<!-- 3 -->
<g id="node18" class="node">
<title>3</title>
<ellipse fill="none" stroke="black" cx="1773.5" cy="-1863.41" rx="27" ry="30.31"/>
<text text-anchor="middle" x="1773.5" y="-1855.31" font-family="Times,serif" font-size="32.00">3</text>
</g>
<!-- d&#45;&gt;3 -->
<g id="edge48" class="edge">
<title>d&#45;&gt;3</title>
<path fill="none" stroke="#000000" d="M2512.32,-1085.79C2506.15,-1171 2485.55,-1410.34 2445.04,-1476.41 2294.47,-1721.94 1926.16,-1827.58 1810.12,-1855.49"/>
<polygon fill="#000000" stroke="#000000" points="1809.24,-1852.1 1800.32,-1857.8 1810.85,-1858.91 1809.24,-1852.1"/>
<text text-anchor="middle" x="2134.52" y="-1807.81" font-family="Times,serif" font-size="32.00">neglect</text>
<text text-anchor="middle" x="2134.52" y="-1772.81" font-family="Times,serif" font-size="32.00">=d *k 3</text>
</g>
<!-- 4 -->
<g id="node19" class="node">
<title>4</title>
<ellipse fill="none" stroke="black" cx="1773.5" cy="-1713.41" rx="27" ry="30.31"/>
<text text-anchor="middle" x="1773.5" y="-1705.31" font-family="Times,serif" font-size="32.00">4</text>
</g>
<!-- d&#45;&gt;4 -->
<g id="edge59" class="edge">
<title>d&#45;&gt;4</title>
<path fill="none" stroke="#000000" d="M2513.35,-1085.85C2509.94,-1168.18 2496.07,-1392.32 2445.04,-1441.41 2324.71,-1557.15 2197.92,-1382.64 2073,-1493.41 2049.61,-1514.15 2074.33,-1536.84 2055,-1561.41 2021.55,-1603.94 1875.76,-1670.1 1808.6,-1699.04"/>
<polygon fill="#000000" stroke="#000000" points="1807.1,-1695.87 1799.28,-1703.03 1809.85,-1702.31 1807.1,-1695.87"/>
<text text-anchor="middle" x="2134.52" y="-1537.81" font-family="Times,serif" font-size="32.00">disdain</text>
<text text-anchor="middle" x="2134.52" y="-1502.81" font-family="Times,serif" font-size="32.00">=d *k 4</text>
</g>
<!-- 5 -->
<g id="node20" class="node">
<title>5</title>
<ellipse fill="none" stroke="black" cx="1773.5" cy="-435.41" rx="27" ry="30.31"/>
<text text-anchor="middle" x="1773.5" y="-427.31" font-family="Times,serif" font-size="32.00">5</text>
</g>
<!-- d&#45;&gt;5 -->
<g id="edge65" class="edge">
<title>d&#45;&gt;5</title>
<path fill="none" stroke="#000000" d="M2514.83,-1024.89C2515.71,-924.65 2512.95,-608 2445.04,-538.41 2433.75,-526.84 1948.72,-459.37 1810.76,-440.38"/>
<polygon fill="#000000" stroke="#000000" points="1811.08,-436.89 1800.7,-439 1810.13,-443.83 1811.08,-436.89"/>
<text text-anchor="middle" x="2134.52" y="-539.81" font-family="Times,serif" font-size="32.00">doubt</text>
<text text-anchor="middle" x="2134.52" y="-504.81" font-family="Times,serif" font-size="32.00">=d *k 5</text>
</g>
<!-- for&#45;&gt;d -->
<g id="edge25" class="edge">
<title>for&#45;&gt;d</title>
<path fill="none" stroke="#000000" d="M2804.42,-601.18C2750.08,-625.77 2641.73,-682.56 2585.69,-765.41 2533.43,-842.67 2520.39,-954.83 2517.25,-1014.5"/>
<polygon fill="#000000" stroke="#000000" points="2513.75,-1014.51 2516.79,-1024.66 2520.74,-1014.83 2513.75,-1014.51"/>
<text text-anchor="middle" x="2684.19" y="-879.81" font-family="Times,serif" font-size="32.00">hope_3 |</text>
<text text-anchor="middle" x="2684.19" y="-844.81" font-family="Times,serif" font-size="32.00"> respect_1 |</text>
<text text-anchor="middle" x="2684.19" y="-809.81" font-family="Times,serif" font-size="32.00"> disdain_1</text>
<text text-anchor="middle" x="2684.19" y="-774.81" font-family="Times,serif" font-size="32.00">=for poss= d &#45;k</text>
</g>
<!-- 0 -->
<g id="node11" class="node">
<title>0</title>
<ellipse fill="none" stroke="black" cx="941" cy="-705.41" rx="27" ry="30.31"/>
<text text-anchor="middle" x="941" y="-697.31" font-family="Times,serif" font-size="32.00">0</text>
</g>
<!-- for&#45;&gt;0 -->
<g id="edge20" class="edge">
<title>for&#45;&gt;0</title>
<path fill="none" stroke="#000000" d="M2817.29,-562.08C2771.02,-506.23 2649.83,-377.41 2516.36,-377.41 2516.36,-377.41 2516.36,-377.41 1965,-376.41 1925.89,-376.41 1916.06,-374.49 1877,-376.41 1591.08,-390.43 1520.58,-408.47 1236,-439.41 1150.12,-448.75 1109.39,-407.14 1043,-462.41 1022.26,-479.68 1034.54,-495.16 1025,-520.41 1004.95,-573.46 977.27,-633.01 959.5,-669.86"/>
<polygon fill="#000000" stroke="#000000" points="956.19,-668.65 954.98,-679.18 962.49,-671.71 956.19,-668.65"/>
<text text-anchor="middle" x="1966" y="-421.81" font-family="Times,serif" font-size="32.00">hope</text>
<text text-anchor="middle" x="1966" y="-386.81" font-family="Times,serif" font-size="32.00">=for 0</text>
</g>
<!-- a -->
<g id="node12" class="node">
<title>a</title>
<ellipse fill="none" stroke="black" cx="1773.5" cy="-758.41" rx="27" ry="30.31"/>
<text text-anchor="middle" x="1773.5" y="-750.31" font-family="Times,serif" font-size="32.00">a</text>
</g>
<!-- for&#45;&gt;a -->
<g id="edge26" class="edge">
<title>for&#45;&gt;a</title>
<path fill="none" stroke="#000000" d="M2800.79,-582.91C2704.54,-571.8 2435.39,-545.99 2214.04,-574.41 2060.48,-594.13 2012.56,-587.64 1877,-662.41 1846.39,-679.29 1817.91,-707.38 1798.78,-728.83"/>
<polygon fill="#000000" stroke="#000000" points="1796.11,-726.56 1792.17,-736.39 1801.38,-731.17 1796.11,-726.56"/>
<text text-anchor="middle" x="2329.54" y="-618.81" font-family="Times,serif" font-size="32.00">hopeful</text>
<text text-anchor="middle" x="2329.54" y="-583.81" font-family="Times,serif" font-size="32.00">=for a</text>
</g>
<!-- for&#45;&gt;1 -->
<g id="edge21" class="edge">
<title>for&#45;&gt;1</title>
<path fill="none" stroke="#000000" d="M2835.62,-617.85C2830.41,-715.1 2812.21,-1017.42 2782.69,-1110.41 2709.45,-1341.09 2758.39,-1585.41 2516.36,-1585.41 2516.36,-1585.41 2516.36,-1585.41 1965,-1585.41 1829.57,-1585.41 1794.3,-1542.33 1688,-1458.41 1677.81,-1450.37 1681.27,-1441.85 1670,-1435.41 1587.87,-1388.46 1552.38,-1422.58 1459,-1407.41 1430.84,-1402.84 1399.15,-1396.69 1375.47,-1391.9"/>
<polygon fill="#000000" stroke="#000000" points="1376.03,-1388.44 1365.53,-1389.87 1374.63,-1395.3 1376.03,-1388.44"/>
<text text-anchor="middle" x="2134.52" y="-1629.81" font-family="Times,serif" font-size="32.00">hope_1</text>
<text text-anchor="middle" x="2134.52" y="-1594.81" font-family="Times,serif" font-size="32.00">=for 1</text>
</g>
<!-- v -->
<g id="node14" class="node">
<title>v</title>
<ellipse fill="none" stroke="black" cx="248.5" cy="-1239.41" rx="27" ry="30.31"/>
<text text-anchor="middle" x="248.5" y="-1231.31" font-family="Times,serif" font-size="32.00">v</text>
</g>
<!-- for&#45;&gt;v -->
<g id="edge22" class="edge">
<title>for&#45;&gt;v</title>
<path fill="none" stroke="#000000" d="M2837.22,-556.75C2836.75,-470.86 2831.05,-230.3 2782.69,-171.41 2703.39,-74.85 2641.31,-81.41 2516.36,-81.41 2516.36,-81.41 2516.36,-81.41 770,-81.41 763.84,-81.41 335.2,-141.9 331,-146.41 258.07,-224.83 250.38,-1010.54 249.59,-1198.96"/>
<polygon fill="#000000" stroke="#000000" points="246.09,-1198.98 249.55,-1208.99 253.09,-1199.01 246.09,-1198.98"/>
<text text-anchor="middle" x="1564.5" y="-125.81" font-family="Times,serif" font-size="32.00">hope_2</text>
<text text-anchor="middle" x="1564.5" y="-90.81" font-family="Times,serif" font-size="32.00">=for =da v</text>
</g>
<!-- perf -->
<g id="node15" class="node">
<title>perf</title>
<ellipse fill="none" stroke="black" cx="601" cy="-1356.41" rx="48.17" ry="30.31"/>
<text text-anchor="middle" x="601" y="-1348.31" font-family="Times,serif" font-size="32.00">perf</text>
</g>
<!-- for&#45;&gt;perf -->
<g id="edge24" class="edge">
<title>for&#45;&gt;perf</title>
<path fill="none" stroke="#000000" d="M2834.76,-557.01C2830.24,-515.32 2817.54,-439.43 2782.69,-385.41 2699.6,-256.64 2669.61,-166.41 2516.36,-166.41 2516.36,-166.41 2516.36,-166.41 1563.5,-166.41 1331.88,-166.41 1247.52,-83.69 1043,-192.41 1031.23,-198.67 1035.73,-208.5 1025,-216.41 902.67,-306.57 795.92,-211.16 703,-331.41 675.17,-367.42 689.29,-490.1 685,-535.41 656.63,-835.14 618.9,-1196.05 606.3,-1315.69"/>
<polygon fill="#000000" stroke="#000000" points="602.8,-1315.55 605.23,-1325.86 609.76,-1316.28 602.8,-1315.55"/>
<text text-anchor="middle" x="1773.5" y="-210.81" font-family="Times,serif" font-size="32.00">hopen</text>
<text text-anchor="middle" x="1773.5" y="-175.81" font-family="Times,serif" font-size="32.00">=for =da perf</text>
</g>
<!-- prog -->
<g id="node16" class="node">
<title>prog</title>
<ellipse fill="none" stroke="black" cx="941" cy="-1486.41" rx="52.15" ry="30.31"/>
<text text-anchor="middle" x="941" y="-1478.31" font-family="Times,serif" font-size="32.00">prog</text>
</g>
<!-- for&#45;&gt;prog -->
<g id="edge23" class="edge">
<title>for&#45;&gt;prog</title>
<path fill="none" stroke="#000000" d="M2837.11,-617.98C2836.61,-764.51 2831.6,-1395.75 2782.69,-1585.41 2714.77,-1848.79 2788.36,-2136.41 2516.36,-2136.41 2516.36,-2136.41 2516.36,-2136.41 1772.5,-2136.41 1533.78,-2136.41 1426.23,-2254.64 1236,-2110.41 1215.84,-2095.13 1232.76,-2076.95 1218,-2056.41 1161.14,-1977.3 1096.03,-2006.13 1043,-1924.41 1021.16,-1890.75 969.21,-1628.43 949.64,-1526.62"/>
<polygon fill="#000000" stroke="#000000" points="953.06,-1525.87 947.74,-1516.71 946.19,-1527.19 953.06,-1525.87"/>
<text text-anchor="middle" x="1966" y="-2180.81" font-family="Times,serif" font-size="32.00">hopeing</text>
<text text-anchor="middle" x="1966" y="-2145.81" font-family="Times,serif" font-size="32.00">=for =da prog</text>
</g>
<!-- of&#45;&gt;d -->
<g id="edge32" class="edge">
<title>of&#45;&gt;d</title>
<path fill="none" stroke="#000000" d="M2163.42,-675.29C2222.91,-655.67 2363.44,-620.12 2445.04,-688.41 2494.44,-729.76 2508.92,-928.04 2512.92,-1014.71"/>
<polygon fill="#000000" stroke="#000000" points="2509.44,-1015.12 2513.37,-1024.95 2516.43,-1014.81 2509.44,-1015.12"/>
<text text-anchor="middle" x="2329.54" y="-872.81" font-family="Times,serif" font-size="32.00">boast_3 |</text>
<text text-anchor="middle" x="2329.54" y="-837.81" font-family="Times,serif" font-size="32.00"> fear_1 |</text>
<text text-anchor="middle" x="2329.54" y="-802.81" font-family="Times,serif" font-size="32.00"> neglect_1 |</text>
<text text-anchor="middle" x="2329.54" y="-767.81" font-family="Times,serif" font-size="32.00"> scorn_1 |</text>
<text text-anchor="middle" x="2329.54" y="-732.81" font-family="Times,serif" font-size="32.00"> doubt_1</text>
<text text-anchor="middle" x="2329.54" y="-697.81" font-family="Times,serif" font-size="32.00">=of poss= d &#45;k</text>
</g>
<!-- of&#45;&gt;0 -->
<g id="edge27" class="edge">
<title>of&#45;&gt;0</title>
<path fill="none" stroke="#000000" d="M2105.53,-675.43C2034.13,-650.56 1838.9,-586.36 1670,-565.41 1576.94,-553.87 1552.14,-554.48 1459,-565.41 1364.62,-576.49 1133.51,-635.46 1043,-664.41 1020.18,-671.71 995.23,-681.82 975.83,-690.17"/>
<polygon fill="#000000" stroke="#000000" points="974.29,-687.03 966.52,-694.23 977.08,-693.44 974.29,-687.03"/>
<text text-anchor="middle" x="1564.5" y="-609.81" font-family="Times,serif" font-size="32.00">boast</text>
<text text-anchor="middle" x="1564.5" y="-574.81" font-family="Times,serif" font-size="32.00">=of 0</text>
</g>
<!-- of&#45;&gt;a -->
<g id="edge33" class="edge">
<title>of&#45;&gt;a</title>
<path fill="none" stroke="#000000" d="M2104.49,-678.87C2055.93,-669.25 1955.79,-655.11 1877,-681.41 1847.87,-691.13 1820.36,-712.75 1801.19,-730.61"/>
<polygon fill="#000000" stroke="#000000" points="1798.55,-728.29 1793.76,-737.73 1803.4,-733.34 1798.55,-728.29"/>
<text text-anchor="middle" x="1966" y="-935.81" font-family="Times,serif" font-size="32.00">boastful |</text>
<text text-anchor="middle" x="1966" y="-900.81" font-family="Times,serif" font-size="32.00"> fearful |</text>
<text text-anchor="middle" x="1966" y="-865.81" font-family="Times,serif" font-size="32.00"> neglectful |</text>
<text text-anchor="middle" x="1966" y="-830.81" font-family="Times,serif" font-size="32.00"> scornful |</text>
<text text-anchor="middle" x="1966" y="-795.81" font-family="Times,serif" font-size="32.00"> respectful |</text>
<text text-anchor="middle" x="1966" y="-760.81" font-family="Times,serif" font-size="32.00"> disdainful |</text>
<text text-anchor="middle" x="1966" y="-725.81" font-family="Times,serif" font-size="32.00"> doubtful</text>
<text text-anchor="middle" x="1966" y="-690.81" font-family="Times,serif" font-size="32.00">=of a</text>
</g>
<!-- of&#45;&gt;1 -->
<g id="edge28" class="edge">
<title>of&#45;&gt;1</title>
<path fill="none" stroke="#000000" d="M2129.78,-715.45C2120.59,-784.48 2094.7,-951.36 2055,-989.41 1996.6,-1045.38 1933.65,-969.66 1877,-1027.41 1847.52,-1057.46 1880.45,-1084.18 1859,-1120.41 1808.68,-1205.42 1740.87,-1178.96 1688,-1262.41 1670.81,-1289.55 1694.03,-1311.1 1670,-1332.41 1634.61,-1363.79 1505.66,-1352.64 1459,-1360.41 1430.64,-1365.13 1398.71,-1371.61 1375,-1376.64"/>
<polygon fill="#000000" stroke="#000000" points="1374.1,-1373.25 1365.05,-1378.77 1375.56,-1380.1 1374.1,-1373.25"/>
<text text-anchor="middle" x="1773.5" y="-1306.81" font-family="Times,serif" font-size="32.00">boast_1</text>
<text text-anchor="middle" x="1773.5" y="-1271.81" font-family="Times,serif" font-size="32.00">=of 1</text>
</g>
<!-- of&#45;&gt;v -->
<g id="edge29" class="edge">
<title>of&#45;&gt;v</title>
<path fill="none" stroke="#000000" d="M2115.8,-660.91C2101.36,-642.6 2079.41,-618.27 2055,-603.41 1909.75,-515.03 1849.98,-547.09 1688,-495.41 1577.4,-460.12 1552.01,-444.4 1441,-410.41 1342.86,-380.36 1319.75,-363.86 1218,-350.41 1140.89,-340.22 1118.44,-331.49 1043,-350.41 667.94,-444.48 499.1,-502.18 331,-850.41 308.51,-897 322.85,-914.62 313,-965.41 296.66,-1049.68 272.82,-1147.41 259.49,-1200.38"/>
<polygon fill="#000000" stroke="#000000" points="256.02,-1199.81 256.96,-1210.36 262.81,-1201.52 256.02,-1199.81"/>
<text text-anchor="middle" x="1130.5" y="-394.81" font-family="Times,serif" font-size="32.00">boast_2</text>
<text text-anchor="middle" x="1130.5" y="-359.81" font-family="Times,serif" font-size="32.00">=of =da v</text>
</g>
<!-- of&#45;&gt;perf -->
<g id="edge31" class="edge">
<title>of&#45;&gt;perf</title>
<path fill="none" stroke="#000000" d="M2118.93,-659.01C2106.25,-635.7 2087.66,-600.67 2073,-569.41 2064.2,-550.65 2071.4,-539.07 2055,-526.41 1924.61,-425.72 1846.71,-518.57 1688,-474.41 1573.08,-442.44 1557.88,-393.22 1441,-369.41 1351.72,-351.22 1323.87,-345.32 1236,-369.41 1103.2,-405.82 779.9,-571.19 703,-685.41 685.17,-711.9 625.09,-1174.86 607.12,-1315.94"/>
<polygon fill="#000000" stroke="#000000" points="603.64,-1315.55 605.85,-1325.91 610.58,-1316.43 603.64,-1315.55"/>
<text text-anchor="middle" x="1338.5" y="-413.81" font-family="Times,serif" font-size="32.00">boastn</text>
<text text-anchor="middle" x="1338.5" y="-378.81" font-family="Times,serif" font-size="32.00">=of =da perf</text>
</g>
<!-- of&#45;&gt;prog -->
<g id="edge30" class="edge">
<title>of&#45;&gt;prog</title>
<path fill="none" stroke="#000000" d="M2129.4,-715.85C2119.9,-781.12 2094.2,-931.07 2055,-961.41 2002.61,-1001.95 1507.44,-930.23 1459,-975.41 1427.5,-1004.79 1471.61,-1138.11 1441,-1168.41 1377.92,-1230.84 1105.46,-1138.36 1043,-1201.41 1004.58,-1240.19 1055.71,-1401.28 1025,-1446.41 1018.39,-1456.13 1008.73,-1463.56 998.33,-1469.22"/>
<polygon fill="#000000" stroke="#000000" points="996.5,-1466.22 989.05,-1473.75 999.57,-1472.51 996.5,-1466.22"/>
<text text-anchor="middle" x="1564.5" y="-1019.81" font-family="Times,serif" font-size="32.00">boasting</text>
<text text-anchor="middle" x="1564.5" y="-984.81" font-family="Times,serif" font-size="32.00">=of =da prog</text>
</g>
<!-- about&#45;&gt;d -->
<g id="edge39" class="edge">
<title>about&#45;&gt;d</title>
<path fill="none" stroke="#000000" d="M2154.99,-1179.55C2167.34,-1160.77 2183.32,-1135.55 2196.04,-1112.41 2205.04,-1096.03 2198.57,-1084.9 2214.04,-1074.41 2235.37,-1059.95 2402.2,-1056.49 2477.59,-1055.67"/>
<polygon fill="#000000" stroke="#000000" points="2478.06,-1059.16 2488.03,-1055.56 2477.99,-1052.16 2478.06,-1059.16"/>
<text text-anchor="middle" x="2329.54" y="-1153.81" font-family="Times,serif" font-size="32.00">boast_7 |</text>
<text text-anchor="middle" x="2329.54" y="-1118.81" font-family="Times,serif" font-size="32.00"> doubt_2</text>
<text text-anchor="middle" x="2329.54" y="-1083.81" font-family="Times,serif" font-size="32.00">=about poss= d &#45;k</text>
</g>
<!-- about&#45;&gt;0 -->
<g id="edge34" class="edge">
<title>about&#45;&gt;0</title>
<path fill="none" stroke="#000000" d="M2073.22,-1204.97C2001.8,-1200.3 1890.72,-1190.97 1877,-1177.41 1833.94,-1134.87 1888.12,-1095.47 1859,-1042.41 1806.18,-946.18 1773.13,-921.02 1670,-883.41 1581.9,-851.28 1534.93,-828.37 1459,-883.41 1438.18,-898.51 1461.82,-923.31 1441,-938.41 1367.23,-991.89 1322.04,-968.37 1236,-938.41 1118.7,-897.57 1013.01,-788.27 966.73,-735.18"/>
<polygon fill="#000000" stroke="#000000" points="969.26,-732.75 960.08,-727.46 963.95,-737.32 969.26,-732.75"/>
<text text-anchor="middle" x="1564.5" y="-927.81" font-family="Times,serif" font-size="32.00">boast_4</text>
<text text-anchor="middle" x="1564.5" y="-892.81" font-family="Times,serif" font-size="32.00">=about 0</text>
</g>
<!-- about&#45;&gt;a -->
<g id="edge40" class="edge">
<title>about&#45;&gt;a</title>
<path fill="none" stroke="#000000" d="M2113.89,-1179.63C2101.48,-1160.88 2085.49,-1135.67 2073,-1112.41 2063.78,-1095.23 2067.95,-1086.99 2055,-1072.41 1993.71,-1003.39 1939.56,-1033.28 1877,-965.41 1831.14,-915.65 1801.2,-841.56 1786.12,-796.82"/>
<polygon fill="#000000" stroke="#000000" points="1789.41,-795.61 1782.96,-787.2 1782.76,-797.79 1789.41,-795.61"/>
<text text-anchor="middle" x="1966" y="-1151.81" font-family="Times,serif" font-size="32.00">boastful_1 |</text>
<text text-anchor="middle" x="1966" y="-1116.81" font-family="Times,serif" font-size="32.00"> doubtful_1</text>
<text text-anchor="middle" x="1966" y="-1081.81" font-family="Times,serif" font-size="32.00">=about a</text>
</g>
<!-- about&#45;&gt;1 -->
<g id="edge35" class="edge">
<title>about&#45;&gt;1</title>
<path fill="none" stroke="#000000" d="M2094.18,-1231.79C2042.26,-1261.45 1947.1,-1311.7 1859,-1336.41 1767.72,-1362.02 1478.34,-1377.84 1375.88,-1382.76"/>
<polygon fill="#000000" stroke="#000000" points="1375.55,-1379.27 1365.73,-1383.24 1375.88,-1386.26 1375.55,-1379.27"/>
<text text-anchor="middle" x="1773.5" y="-1405.81" font-family="Times,serif" font-size="32.00">boast_5</text>
<text text-anchor="middle" x="1773.5" y="-1370.81" font-family="Times,serif" font-size="32.00">=about 1</text>
</g>
<!-- about&#45;&gt;v -->
<g id="edge36" class="edge">
<title>about&#45;&gt;v</title>
<path fill="none" stroke="#000000" d="M2072.86,-1207.42C1957.82,-1206.12 1716.84,-1206.35 1688,-1230.41 1661.01,-1252.92 1697.53,-1285.57 1670,-1307.41 1596.53,-1365.69 1532.82,-1365.24 1459,-1307.41 1432.69,-1286.8 1466.83,-1255.61 1441,-1234.41 1334.55,-1147.07 1269.2,-1220.41 1131.5,-1220.41 1131.5,-1220.41 1131.5,-1220.41 600,-1220.41 485.36,-1220.41 349.94,-1230.67 286.18,-1236.11"/>
<polygon fill="#000000" stroke="#000000" points="285.52,-1232.65 275.85,-1237 286.12,-1239.63 285.52,-1232.65"/>
<text text-anchor="middle" x="1130.5" y="-1264.81" font-family="Times,serif" font-size="32.00">boast_6</text>
<text text-anchor="middle" x="1130.5" y="-1229.81" font-family="Times,serif" font-size="32.00">=about =da v</text>
</g>
<!-- about&#45;&gt;perf -->
<g id="edge38" class="edge">
<title>about&#45;&gt;perf</title>
<path fill="none" stroke="#000000" d="M2125.2,-1238.54C2112.75,-1284.29 2089.03,-1374.15 2073,-1451.41 2063.11,-1499.06 2071.33,-1513.57 2055,-1559.41 1996.09,-1724.81 2007.31,-1808.44 1859,-1902.41 1552.07,-2096.87 1372.04,-2106.53 1043,-1952.41 989.56,-1927.38 730.48,-1596.63 703,-1544.41 689.24,-1518.26 697.37,-1507.24 685,-1480.41 670.25,-1448.42 647.76,-1415.43 629.9,-1391.53"/>
<polygon fill="#000000" stroke="#000000" points="632.63,-1389.33 623.8,-1383.47 627.05,-1393.56 632.63,-1389.33"/>
<text text-anchor="middle" x="1338.5" y="-2103.81" font-family="Times,serif" font-size="32.00">boastn_1</text>
<text text-anchor="middle" x="1338.5" y="-2068.81" font-family="Times,serif" font-size="32.00">=about =da perf</text>
</g>
<!-- about&#45;&gt;prog -->
<g id="edge37" class="edge">
<title>about&#45;&gt;prog</title>
<path fill="none" stroke="#000000" d="M2125.7,-1238.65C2113.89,-1284.55 2091,-1374.58 2073,-1451.41 2064.49,-1487.74 2084.07,-1510.02 2055,-1533.41 1993.35,-1582.99 1956.11,-1534.17 1877,-1533.41 1830.55,-1532.97 1497.02,-1552.1 1459,-1525.41 1440.69,-1512.56 1459.43,-1491.09 1441,-1478.41 1365.93,-1426.77 1311.25,-1427.05 1236,-1478.41 1217.87,-1490.79 1236.13,-1512.03 1218,-1524.41 1149.17,-1571.39 1047.98,-1537.92 989.16,-1511.01"/>
<polygon fill="#000000" stroke="#000000" points="990.64,-1507.84 980.1,-1506.77 987.67,-1514.18 990.64,-1507.84"/>
<text text-anchor="middle" x="1564.5" y="-1584.81" font-family="Times,serif" font-size="32.00">boasting_1</text>
<text text-anchor="middle" x="1564.5" y="-1549.81" font-family="Times,serif" font-size="32.00">=about =da prog</text>
</g>
<!-- 0&#45;&gt;t -->
<g id="edge7" class="edge">
<title>0&#45;&gt;t</title>
<path fill="none" stroke="#000000" d="M913.9,-705.66C823.67,-707.81 520.16,-725.76 331,-867.41 153.34,-1000.46 152.81,-1087.68 72,-1294.41 48.94,-1353.41 37.33,-1426.37 31.99,-1470.87"/>
<polygon fill="#000000" stroke="#000000" points="28.49,-1470.66 30.83,-1481 35.45,-1471.46 28.49,-1470.66"/>
<text text-anchor="middle" x="415" y="-911.81" font-family="Times,serif" font-size="32.00">s</text>
<text text-anchor="middle" x="415" y="-876.81" font-family="Times,serif" font-size="32.00">=&gt;0 =da +k t</text>
</g>
<!-- a&#45;&gt;0 -->
<g id="edge8" class="edge">
<title>a&#45;&gt;0</title>
<path fill="none" stroke="#000000" d="M1746.24,-762.39C1678.9,-771.99 1502.26,-793.07 1459,-757.41 1427.19,-731.19 1472.86,-692.58 1441,-666.41 1370.6,-608.57 1326.91,-660.41 1236,-666.41 1142.36,-672.59 1033.04,-689.74 977.82,-699.1"/>
<polygon fill="#000000" stroke="#000000" points="977.11,-695.68 967.84,-700.81 978.29,-702.58 977.11,-695.68"/>
<text text-anchor="middle" x="1338.5" y="-710.81" font-family="Times,serif" font-size="32.00">be</text>
<text text-anchor="middle" x="1338.5" y="-675.81" font-family="Times,serif" font-size="32.00">=a 0</text>
</g>
<!-- a&#45;&gt;1 -->
<g id="edge10" class="edge">
<title>a&#45;&gt;1</title>
<path fill="none" stroke="#000000" d="M1769.75,-788.88C1762.98,-846.82 1740.55,-973.85 1670,-1049.41 1600.3,-1124.06 1518.89,-1057.69 1459,-1140.41 1406.66,-1212.7 1493.27,-1268.07 1441,-1340.41 1425.68,-1361.6 1397.95,-1372.7 1375.34,-1378.44"/>
<polygon fill="#000000" stroke="#000000" points="1374.34,-1375.08 1365.37,-1380.72 1375.9,-1381.91 1374.34,-1375.08"/>
<text text-anchor="middle" x="1564.5" y="-1184.81" font-family="Times,serif" font-size="32.00">be_1</text>
<text text-anchor="middle" x="1564.5" y="-1149.81" font-family="Times,serif" font-size="32.00">=a 1</text>
</g>
<!-- a&#45;&gt;v -->
<g id="edge11" class="edge">
<title>a&#45;&gt;v</title>
<path fill="none" stroke="#000000" d="M1766.07,-729.06C1754.7,-684.24 1726.67,-599.13 1670,-553.41 1594.66,-492.63 1528.83,-566.44 1459,-499.41 1438.92,-480.13 1463.34,-456.03 1441,-439.41 1330.15,-356.94 897.71,-501.42 857,-524.41 551.47,-696.96 329.98,-1085.39 267.43,-1204.21"/>
<polygon fill="#000000" stroke="#000000" points="264.23,-1202.78 262.7,-1213.26 270.43,-1206.02 264.23,-1202.78"/>
<text text-anchor="middle" x="941" y="-568.81" font-family="Times,serif" font-size="32.00">be_2</text>
<text text-anchor="middle" x="941" y="-533.81" font-family="Times,serif" font-size="32.00">=a =da v</text>
</g>
<!-- a&#45;&gt;perf -->
<g id="edge12" class="edge">
<title>a&#45;&gt;perf</title>
<path fill="none" stroke="#000000" d="M1746.31,-758.03C1674.79,-756.74 1480.12,-751.5 1459,-732.41 1426.47,-703.01 1472.03,-666.39 1441,-635.41 1349.03,-543.59 948.19,-573.81 857,-666.41 668.9,-857.42 617.82,-1199.11 605.53,-1315.95"/>
<polygon fill="#000000" stroke="#000000" points="602.05,-1315.6 604.52,-1325.9 609.01,-1316.31 602.05,-1315.6"/>
<text text-anchor="middle" x="1130.5" y="-637.81" font-family="Times,serif" font-size="32.00">ben</text>
<text text-anchor="middle" x="1130.5" y="-602.81" font-family="Times,serif" font-size="32.00">=a =da perf</text>
</g>
<!-- a&#45;&gt;prog -->
<g id="edge13" class="edge">
<title>a&#45;&gt;prog</title>
<path fill="none" stroke="#000000" d="M1746.98,-765.16C1675.84,-784.2 1479.22,-838.33 1459,-860.41 1434.97,-886.65 1460.12,-908.41 1441,-938.41 1378.88,-1035.87 1303.79,-1004.8 1236,-1098.41 1222.15,-1117.54 1236.19,-1133.34 1218,-1148.41 1157.35,-1198.67 1096.07,-1118.21 1043,-1176.41 1002.48,-1220.84 1058.66,-1396.58 1025,-1446.41 1018.42,-1456.15 1008.78,-1463.59 998.38,-1469.26"/>
<polygon fill="#000000" stroke="#000000" points="996.55,-1466.25 989.1,-1473.79 999.62,-1472.54 996.55,-1466.25"/>
<text text-anchor="middle" x="1338.5" y="-1142.81" font-family="Times,serif" font-size="32.00">being</text>
<text text-anchor="middle" x="1338.5" y="-1107.81" font-family="Times,serif" font-size="32.00">=a =da prog</text>
</g>
<!-- 1&#45;&gt;t -->
<g id="edge9" class="edge">
<title>1&#45;&gt;t</title>
<path fill="none" stroke="#000000" d="M1315.18,-1400C1292.42,-1416.94 1257.47,-1445.96 1236,-1478.41 1222.96,-1498.11 1235.15,-1512.17 1218,-1528.41 975.76,-1757.68 829.02,-1695.12 499,-1743.41 298.93,-1772.68 213.94,-1730.41 72,-1586.41 60.98,-1575.23 51.65,-1560.75 44.46,-1547.51"/>
<polygon fill="#000000" stroke="#000000" points="47.54,-1545.85 39.83,-1538.59 41.33,-1549.08 47.54,-1545.85"/>
<text text-anchor="middle" x="601" y="-1784.81" font-family="Times,serif" font-size="32.00">d</text>
<text text-anchor="middle" x="601" y="-1749.81" font-family="Times,serif" font-size="32.00">=&gt;1 =da +k t</text>
</g>
<!-- 1&#45;&gt;0 -->
<g id="edge53" class="edge">
<title>1&#45;&gt;0</title>
<path fill="none" stroke="#000000" d="M1311.41,-1380.88C1287.46,-1376.12 1253.18,-1365.19 1236,-1340.41 1191,-1275.49 1267.97,-1046.59 1218,-985.41 1167.2,-923.21 1103.99,-992.65 1043,-940.41 983.72,-889.63 958.23,-797.79 948.07,-745.21"/>
<polygon fill="#000000" stroke="#000000" points="951.49,-744.45 946.24,-735.25 944.61,-745.72 951.49,-744.45"/>
<text text-anchor="middle" x="1130.5" y="-1029.81" font-family="Times,serif" font-size="32.00">ε_6</text>
<text text-anchor="middle" x="1130.5" y="-994.81" font-family="Times,serif" font-size="32.00">=&gt;1 0</text>
</g>
<!-- 1&#45;&gt;v -->
<g id="edge55" class="edge">
<title>1&#45;&gt;v</title>
<path fill="none" stroke="#000000" d="M1311.99,-1378.32C1238.83,-1361.08 1021.84,-1311.59 839,-1286.41 630.86,-1257.75 378.78,-1244.88 286.02,-1240.86"/>
<polygon fill="#000000" stroke="#000000" points="285.9,-1237.36 275.76,-1240.43 285.61,-1244.35 285.9,-1237.36"/>
<text text-anchor="middle" x="771" y="-1330.81" font-family="Times,serif" font-size="32.00">ε_7</text>
<text text-anchor="middle" x="771" y="-1295.81" font-family="Times,serif" font-size="32.00">=&gt;1 =da v</text>
</g>
<!-- 1&#45;&gt;perf -->
<g id="edge57" class="edge">
<title>1&#45;&gt;perf</title>
<path fill="none" stroke="#000000" d="M1311.32,-1383.41C1205.61,-1379.39 808.75,-1364.28 659.36,-1358.59"/>
<polygon fill="#000000" stroke="#000000" points="659.16,-1355.08 649.04,-1358.2 658.9,-1362.08 659.16,-1355.08"/>
<text text-anchor="middle" x="941" y="-1416.81" font-family="Times,serif" font-size="32.00">n_2</text>
<text text-anchor="middle" x="941" y="-1381.81" font-family="Times,serif" font-size="32.00">=&gt;1 =da perf</text>
</g>
<!-- 1&#45;&gt;prog -->
<g id="edge56" class="edge">
<title>1&#45;&gt;prog</title>
<path fill="none" stroke="#000000" d="M1311.73,-1389.87C1260.33,-1400.9 1141.51,-1427.14 1043,-1454.41 1027.88,-1458.6 1011.62,-1463.55 996.66,-1468.29"/>
<polygon fill="#000000" stroke="#000000" points="995.5,-1464.98 987.04,-1471.36 997.63,-1471.65 995.5,-1464.98"/>
<text text-anchor="middle" x="1130.5" y="-1498.81" font-family="Times,serif" font-size="32.00">ing_2</text>
<text text-anchor="middle" x="1130.5" y="-1463.81" font-family="Times,serif" font-size="32.00">=&gt;1 =da prog</text>
</g>
<!-- v&#45;&gt;t -->
<g id="edge14" class="edge">
<title>v&#45;&gt;t</title>
<path fill="none" stroke="#000000" d="M224.59,-1253.79C187.6,-1278.08 114.58,-1330.69 72,-1392.41 55.29,-1416.63 44.04,-1447.98 37.1,-1472.42"/>
<polygon fill="#000000" stroke="#000000" points="33.71,-1471.52 34.47,-1482.09 40.47,-1473.36 33.71,-1471.52"/>
<text text-anchor="middle" x="119" y="-1471.81" font-family="Times,serif" font-size="32.00">wills |</text>
<text text-anchor="middle" x="119" y="-1436.81" font-family="Times,serif" font-size="32.00"> willd</text>
<text text-anchor="middle" x="119" y="-1401.81" font-family="Times,serif" font-size="32.00">=v +k t</text>
</g>
<!-- perf&#45;&gt;t -->
<g id="edge15" class="edge">
<title>perf&#45;&gt;t</title>
<path fill="none" stroke="#000000" d="M562.1,-1374.29C543.34,-1382.78 520.22,-1392.73 499,-1400.41 354.04,-1452.85 317.31,-1467.95 166,-1497.41 131.84,-1504.06 92.26,-1507.66 64.27,-1509.54"/>
<polygon fill="#000000" stroke="#000000" points="63.91,-1506.06 54.15,-1510.18 64.35,-1513.04 63.91,-1506.06"/>
<text text-anchor="middle" x="248.5" y="-1573.81" font-family="Times,serif" font-size="32.00">haves |</text>
<text text-anchor="middle" x="248.5" y="-1538.81" font-family="Times,serif" font-size="32.00"> haved</text>
<text text-anchor="middle" x="248.5" y="-1503.81" font-family="Times,serif" font-size="32.00">=perf +k t</text>
</g>
<!-- perf&#45;&gt;v -->
<g id="edge16" class="edge">
<title>perf&#45;&gt;v</title>
<path fill="none" stroke="#000000" d="M556.78,-1344.1C503.33,-1328.61 409.77,-1300.6 331,-1272.41 315.24,-1266.77 298.02,-1259.9 283.49,-1253.9"/>
<polygon fill="#000000" stroke="#000000" points="284.48,-1250.52 273.91,-1249.9 281.79,-1256.98 284.48,-1250.52"/>
<text text-anchor="middle" x="415" y="-1370.81" font-family="Times,serif" font-size="32.00">have</text>
<text text-anchor="middle" x="415" y="-1335.81" font-family="Times,serif" font-size="32.00">=perf v</text>
</g>
<!-- prog&#45;&gt;t -->
<g id="edge17" class="edge">
<title>prog&#45;&gt;t</title>
<path fill="none" stroke="#000000" d="M899.54,-1505.27C850.12,-1527.33 763.4,-1562.94 685,-1579.41 466.84,-1625.24 399.06,-1662.1 184,-1603.41 135.96,-1590.3 87.66,-1558.2 57.8,-1535.63"/>
<polygon fill="#000000" stroke="#000000" points="59.58,-1532.58 49.52,-1529.25 55.31,-1538.12 59.58,-1532.58"/>
<text text-anchor="middle" x="415" y="-1713.81" font-family="Times,serif" font-size="32.00">bes |</text>
<text text-anchor="middle" x="415" y="-1678.81" font-family="Times,serif" font-size="32.00"> bed</text>
<text text-anchor="middle" x="415" y="-1643.81" font-family="Times,serif" font-size="32.00">=prog +k t</text>
</g>
<!-- prog&#45;&gt;v -->
<g id="edge18" class="edge">
<title>prog&#45;&gt;v</title>
<path fill="none" stroke="#000000" d="M890.21,-1494.28C777.96,-1509.15 501.65,-1529.25 331,-1400.41 291.46,-1370.56 269.67,-1316.15 258.79,-1278.92"/>
<polygon fill="#000000" stroke="#000000" points="262.06,-1277.6 256.01,-1268.91 255.31,-1279.48 262.06,-1277.6"/>
<text text-anchor="middle" x="601" y="-1549.81" font-family="Times,serif" font-size="32.00">be_3</text>
<text text-anchor="middle" x="601" y="-1514.81" font-family="Times,serif" font-size="32.00">=prog v</text>
</g>
<!-- prog&#45;&gt;perf -->
<g id="edge19" class="edge">
<title>prog&#45;&gt;perf</title>
<path fill="none" stroke="#000000" d="M896.67,-1470.14C882.66,-1463.25 867.93,-1454.07 857,-1442.41 843.67,-1428.19 854.43,-1414.33 839,-1402.41 790.49,-1364.93 763.13,-1391.33 703,-1379.41 687.66,-1376.37 671.09,-1372.74 655.89,-1369.27"/>
<polygon fill="#000000" stroke="#000000" points="656.66,-1365.86 646.13,-1367.03 655.09,-1372.68 656.66,-1365.86"/>
<text text-anchor="middle" x="771" y="-1446.81" font-family="Times,serif" font-size="32.00">ben_1</text>
<text text-anchor="middle" x="771" y="-1411.81" font-family="Times,serif" font-size="32.00">=prog perf</text>
</g>
<!-- 2&#45;&gt;0 -->
<g id="edge41" class="edge">
<title>2&#45;&gt;0</title>
<path fill="none" stroke="#000000" d="M1766.37,-1051.73C1755.21,-1004.83 1727.23,-913.45 1670,-860.41 1596.55,-792.35 1550.8,-821.41 1459,-781.41 1450.8,-777.84 1449.55,-775.04 1441,-772.41 1353.95,-745.62 1077.93,-718.04 978.3,-708.72"/>
<polygon fill="#000000" stroke="#000000" points="978.41,-705.21 968.13,-707.77 977.77,-712.18 978.41,-705.21"/>
<text text-anchor="middle" x="1338.5" y="-816.81" font-family="Times,serif" font-size="32.00">ε_0</text>
<text text-anchor="middle" x="1338.5" y="-781.81" font-family="Times,serif" font-size="32.00">=&gt;2 0</text>
</g>
<!-- 2&#45;&gt;1 -->
<g id="edge43" class="edge">
<title>2&#45;&gt;1</title>
<path fill="none" stroke="#000000" d="M1759.56,-1107.58C1743.07,-1138.11 1711.63,-1187.79 1670,-1214.41 1588.98,-1266.22 1527.11,-1194.51 1459,-1262.41 1433.8,-1287.53 1463.76,-1313.07 1441,-1340.41 1424.48,-1360.25 1397.33,-1371.39 1375.26,-1377.49"/>
<polygon fill="#000000" stroke="#000000" points="1374.37,-1374.1 1365.54,-1379.95 1376.09,-1380.89 1374.37,-1374.1"/>
<text text-anchor="middle" x="1564.5" y="-1306.81" font-family="Times,serif" font-size="32.00">ε_1</text>
<text text-anchor="middle" x="1564.5" y="-1271.81" font-family="Times,serif" font-size="32.00">=&gt;2 1</text>
</g>
<!-- 2&#45;&gt;v -->
<g id="edge44" class="edge">
<title>2&#45;&gt;v</title>
<path fill="none" stroke="#000000" d="M1746.4,-1079.46C1725.69,-1078.02 1696.01,-1076.17 1670,-1075.41 1576.26,-1072.67 1546.14,-1040.76 1459,-1075.41 1448.77,-1079.48 1451.23,-1088.34 1441,-1092.41 1398.67,-1109.24 1270.4,-1122.28 1236,-1092.41 1192.95,-1055.03 1261.05,-1002.79 1218,-965.41 1159.27,-914.42 1119.74,-952.77 1043,-965.41 736.24,-1015.92 389.77,-1172.49 282.74,-1223.31"/>
<polygon fill="#000000" stroke="#000000" points="281.24,-1220.15 273.72,-1227.61 284.25,-1226.47 281.24,-1220.15"/>
<text text-anchor="middle" x="941" y="-1050.81" font-family="Times,serif" font-size="32.00">ε_2</text>
<text text-anchor="middle" x="941" y="-1015.81" font-family="Times,serif" font-size="32.00">=&gt;2 =da v</text>
</g>
<!-- 2&#45;&gt;perf -->
<g id="edge46" class="edge">
<title>2&#45;&gt;perf</title>
<path fill="none" stroke="#000000" d="M1746.09,-1080.32C1679.98,-1077.99 1509.08,-1074.61 1459,-1099.41 1447.98,-1104.86 1452.12,-1115.16 1441,-1120.41 1281.01,-1195.95 1206.02,-1059.67 1043,-1128.41 925.72,-1177.86 953.85,-1274.54 839,-1329.41 808.23,-1344.11 718.93,-1351.07 659.17,-1354.17"/>
<polygon fill="#000000" stroke="#000000" points="658.92,-1350.68 649.11,-1354.67 659.27,-1357.67 658.92,-1350.68"/>
<text text-anchor="middle" x="1130.5" y="-1172.81" font-family="Times,serif" font-size="32.00">n</text>
<text text-anchor="middle" x="1130.5" y="-1137.81" font-family="Times,serif" font-size="32.00">=&gt;2 =da perf</text>
</g>
<!-- 2&#45;&gt;prog -->
<g id="edge45" class="edge">
<title>2&#45;&gt;prog</title>
<path fill="none" stroke="#000000" d="M1756.93,-1105.76C1739.21,-1131.24 1707.76,-1170.14 1670,-1189.41 1585.73,-1232.4 1551.84,-1199.25 1459,-1217.41 1358.5,-1237.07 1324.18,-1223.34 1236,-1275.41 1225.98,-1281.32 1226.95,-1286.98 1218,-1294.41 1146.77,-1353.55 1103.69,-1337.5 1043,-1407.41 1030.49,-1421.83 1038.39,-1432.8 1025,-1446.41 1016.85,-1454.7 1006.63,-1461.51 996.18,-1467.01"/>
<polygon fill="#000000" stroke="#000000" points="994.43,-1463.97 986.98,-1471.51 997.5,-1470.26 994.43,-1463.97"/>
<text text-anchor="middle" x="1338.5" y="-1319.81" font-family="Times,serif" font-size="32.00">ing</text>
<text text-anchor="middle" x="1338.5" y="-1284.81" font-family="Times,serif" font-size="32.00">=&gt;2 =da prog</text>
</g>
<!-- 3&#45;&gt;0 -->
<g id="edge47" class="edge">
<title>3&#45;&gt;0</title>
<path fill="none" stroke="#000000" d="M1747.01,-1856.66C1679.05,-1838.14 1496.16,-1784.69 1459,-1736.41 1420.2,-1686 1486.41,-1638.96 1441,-1594.41 1408.29,-1562.32 1275.83,-1595.06 1236,-1572.41 1224.41,-1565.82 1229,-1555.94 1218,-1548.41 1151.35,-1502.79 1092.82,-1562.98 1043,-1499.41 1023.46,-1474.47 1031.08,-960.5 1025,-929.41 1011.49,-860.35 979.43,-784.44 959.34,-741.09"/>
<polygon fill="#000000" stroke="#000000" points="962.42,-739.4 955,-731.83 956.08,-742.37 962.42,-739.4"/>
<text text-anchor="middle" x="1338.5" y="-1638.81" font-family="Times,serif" font-size="32.00">ε_3</text>
<text text-anchor="middle" x="1338.5" y="-1603.81" font-family="Times,serif" font-size="32.00">=&gt;3 0</text>
</g>
<!-- 3&#45;&gt;1 -->
<g id="edge49" class="edge">
<title>3&#45;&gt;1</title>
<path fill="none" stroke="#000000" d="M1752.92,-1843.55C1733.45,-1822.64 1704.2,-1787.88 1688,-1752.41 1671.77,-1716.89 1697.56,-1694.07 1670,-1666.41 1602.33,-1598.48 1523.52,-1692.34 1459,-1621.41 1435.67,-1595.76 1457.73,-1496.78 1441,-1466.41 1425.37,-1438.03 1395.53,-1415.77 1372.23,-1401.65"/>
<polygon fill="#000000" stroke="#000000" points="1373.74,-1398.48 1363.34,-1396.46 1370.21,-1404.52 1373.74,-1398.48"/>
<text text-anchor="middle" x="1564.5" y="-1710.81" font-family="Times,serif" font-size="32.00">ε_4</text>
<text text-anchor="middle" x="1564.5" y="-1675.81" font-family="Times,serif" font-size="32.00">=&gt;3 1</text>
</g>
<!-- 3&#45;&gt;v -->
<g id="edge50" class="edge">
<title>3&#45;&gt;v</title>
<path fill="none" stroke="#000000" d="M1761.18,-1890.74C1745.64,-1924.93 1714.46,-1982.92 1670,-2015.41 1440.29,-2183.27 1321.39,-2203.05 1043,-2144.41 954.6,-2125.79 931.47,-2113.55 857,-2062.41 767.62,-2001.03 765.21,-1962.36 685,-1889.41 527.21,-1745.91 429.18,-1754.75 331,-1565.41 309.41,-1523.77 323.47,-1507.14 313,-1461.41 298.07,-1396.15 275.59,-1321.57 261.77,-1277.59"/>
<polygon fill="#000000" stroke="#000000" points="265.06,-1276.37 258.71,-1267.89 258.39,-1278.48 265.06,-1276.37"/>
<text text-anchor="middle" x="941" y="-2183.81" font-family="Times,serif" font-size="32.00">ε_5</text>
<text text-anchor="middle" x="941" y="-2148.81" font-family="Times,serif" font-size="32.00">=&gt;3 =da v</text>
</g>
<!-- 3&#45;&gt;perf -->
<g id="edge52" class="edge">
<title>3&#45;&gt;perf</title>
<path fill="none" stroke="#000000" d="M1751.55,-1881.72C1701.88,-1923.74 1571.35,-2026.29 1441,-2062.41 1338.19,-2090.9 889.47,-2050.86 857,-2037.41 772.91,-2002.57 742.33,-1984.49 703,-1902.41 662.44,-1817.76 714.19,-1569.62 685,-1480.41 674.05,-1446.93 651.31,-1414.04 632.4,-1390.55"/>
<polygon fill="#000000" stroke="#000000" points="634.96,-1388.14 625.9,-1382.65 629.55,-1392.59 634.96,-1388.14"/>
<text text-anchor="middle" x="1130.5" y="-2114.81" font-family="Times,serif" font-size="32.00">n_1</text>
<text text-anchor="middle" x="1130.5" y="-2079.81" font-family="Times,serif" font-size="32.00">=&gt;3 =da perf</text>
</g>
<!-- 3&#45;&gt;prog -->
<g id="edge51" class="edge">
<title>3&#45;&gt;prog</title>
<path fill="none" stroke="#000000" d="M1746.51,-1864.51C1666.43,-1866.89 1417.81,-1866.75 1236,-1784.41 1109.92,-1727.31 1008.72,-1590.24 965.16,-1523.79"/>
<polygon fill="#000000" stroke="#000000" points="968.02,-1521.77 959.64,-1515.28 962.14,-1525.57 968.02,-1521.77"/>
<text text-anchor="middle" x="1338.5" y="-1888.81" font-family="Times,serif" font-size="32.00">ing_1</text>
<text text-anchor="middle" x="1338.5" y="-1853.81" font-family="Times,serif" font-size="32.00">=&gt;3 =da prog</text>
</g>
<!-- 4&#45;&gt;0 -->
<g id="edge58" class="edge">
<title>4&#45;&gt;0</title>
<path fill="none" stroke="#000000" d="M1751.27,-1695.4C1731.55,-1679.73 1700.69,-1657.8 1670,-1646.41 1625.66,-1629.95 1492.81,-1651.49 1459,-1618.41 1421.7,-1581.93 1479.4,-1537.73 1441,-1502.41 1375.74,-1442.39 1104.52,-1538.26 1043,-1474.41 1021.98,-1452.59 1030.84,-959.14 1025,-929.41 1011.44,-860.36 979.4,-784.45 959.32,-741.09"/>
<polygon fill="#000000" stroke="#000000" points="962.4,-739.41 954.99,-731.83 956.06,-742.38 962.4,-739.41"/>
<text text-anchor="middle" x="1338.5" y="-1546.81" font-family="Times,serif" font-size="32.00">ε_8</text>
<text text-anchor="middle" x="1338.5" y="-1511.81" font-family="Times,serif" font-size="32.00">=&gt;4 0</text>
</g>
<!-- 4&#45;&gt;1 -->
<g id="edge60" class="edge">
<title>4&#45;&gt;1</title>
<path fill="none" stroke="#000000" d="M1752.69,-1693.57C1732.74,-1672.27 1702.84,-1636.46 1688,-1599.41 1676,-1569.47 1692.98,-1478.03 1670,-1455.41 1636.39,-1422.32 1504.76,-1443.86 1459,-1432.41 1428.88,-1424.87 1396.28,-1411.39 1372.74,-1400.63"/>
<polygon fill="#000000" stroke="#000000" points="1374.11,-1397.4 1363.56,-1396.36 1371.15,-1403.75 1374.11,-1397.4"/>
<text text-anchor="middle" x="1564.5" y="-1499.81" font-family="Times,serif" font-size="32.00">ε_9</text>
<text text-anchor="middle" x="1564.5" y="-1464.81" font-family="Times,serif" font-size="32.00">=&gt;4 1</text>
</g>
<!-- 4&#45;&gt;v -->
<g id="edge61" class="edge">
<title>4&#45;&gt;v</title>
<path fill="none" stroke="#000000" d="M1754.81,-1735.56C1737.34,-1757.69 1710.09,-1792.87 1688,-1824.41 1679.51,-1836.53 1681.97,-1843.72 1670,-1852.41 1441.8,-2018.05 1312.03,-2033.88 1043,-1949.41 675.05,-1833.88 568.4,-1757.34 331,-1453.41 289.82,-1400.69 267.56,-1324.81 257.14,-1279"/>
<polygon fill="#000000" stroke="#000000" points="260.54,-1278.17 254.98,-1269.15 253.71,-1279.67 260.54,-1278.17"/>
<text text-anchor="middle" x="941" y="-1987.81" font-family="Times,serif" font-size="32.00">ε_10</text>
<text text-anchor="middle" x="941" y="-1952.81" font-family="Times,serif" font-size="32.00">=&gt;4 =da v</text>
</g>
<!-- 4&#45;&gt;perf -->
<g id="edge63" class="edge">
<title>4&#45;&gt;perf</title>
<path fill="none" stroke="#000000" d="M1751.23,-1730.64C1678.87,-1787.07 1435.71,-1958.86 1236,-1890.41 1218.27,-1884.33 716.51,-1489.4 703,-1476.41 675.67,-1450.13 648.18,-1416.93 628.8,-1392.12"/>
<polygon fill="#000000" stroke="#000000" points="631.44,-1389.81 622.55,-1384.05 625.91,-1394.1 631.44,-1389.81"/>
<text text-anchor="middle" x="1130.5" y="-1922.81" font-family="Times,serif" font-size="32.00">n_3</text>
<text text-anchor="middle" x="1130.5" y="-1887.81" font-family="Times,serif" font-size="32.00">=&gt;4 =da perf</text>
</g>
<!-- 4&#45;&gt;prog -->
<g id="edge62" class="edge">
<title>4&#45;&gt;prog</title>
<path fill="none" stroke="#000000" d="M1747.95,-1724C1692.69,-1746.11 1555.78,-1791.12 1459,-1740.41 1446.55,-1733.89 1452.66,-1722.26 1441,-1714.41 1363.57,-1662.23 1322.68,-1703.13 1236,-1668.41 1143.1,-1631.2 1127.79,-1605.57 1043,-1552.41 1023.78,-1540.36 1002.75,-1526.7 984.88,-1514.94"/>
<polygon fill="#000000" stroke="#000000" points="986.66,-1511.92 976.38,-1509.34 982.81,-1517.76 986.66,-1511.92"/>
<text text-anchor="middle" x="1338.5" y="-1758.81" font-family="Times,serif" font-size="32.00">ing_3</text>
<text text-anchor="middle" x="1338.5" y="-1723.81" font-family="Times,serif" font-size="32.00">=&gt;4 =da prog</text>
</g>
<!-- 5&#45;&gt;0 -->
<g id="edge64" class="edge">
<title>5&#45;&gt;0</title>
<path fill="none" stroke="#000000" d="M1746.18,-435.13C1629.37,-434.37 1158.45,-436.63 1043,-520.41 993.65,-556.22 965.75,-623.8 952.29,-666.61"/>
<polygon fill="#000000" stroke="#000000" points="948.87,-665.82 949.32,-676.4 955.57,-667.85 948.87,-665.82"/>
<text text-anchor="middle" x="1338.5" y="-507.81" font-family="Times,serif" font-size="32.00">ε_11</text>
<text text-anchor="middle" x="1338.5" y="-472.81" font-family="Times,serif" font-size="32.00">=&gt;5 0</text>
</g>
<!-- 5&#45;&gt;1 -->
<g id="edge66" class="edge">
<title>5&#45;&gt;1</title>
<path fill="none" stroke="#000000" d="M1763.27,-463.64C1748.56,-505.49 1716.63,-584.89 1670,-639.41 1595.04,-727.04 1513.39,-688.73 1459,-790.41 1430.16,-844.32 1475.38,-1289.85 1441,-1340.41 1426.3,-1362.03 1398.52,-1373.1 1375.74,-1378.73"/>
<polygon fill="#000000" stroke="#000000" points="1374.7,-1375.37 1365.69,-1380.94 1376.21,-1382.21 1374.7,-1375.37"/>
<text text-anchor="middle" x="1564.5" y="-834.81" font-family="Times,serif" font-size="32.00">ε_12</text>
<text text-anchor="middle" x="1564.5" y="-799.81" font-family="Times,serif" font-size="32.00">=&gt;5 1</text>
</g>
<!-- 5&#45;&gt;v -->
<g id="edge67" class="edge">
<title>5&#45;&gt;v</title>
<path fill="none" stroke="#000000" d="M1766.67,-405.85C1756.04,-360.37 1728.93,-274.04 1670,-231.41 1586.64,-171.1 1542.9,-211.71 1441,-197.41 1256.31,-171.49 1211.1,-154.66 1025,-142.41 870.33,-132.23 434.51,-97.03 331,-212.41 303.06,-243.56 318.25,-923.9 313,-965.41 302.2,-1050.79 276.17,-1148.48 261,-1201.06"/>
<polygon fill="#000000" stroke="#000000" points="257.56,-1200.38 258.12,-1210.96 264.28,-1202.34 257.56,-1200.38"/>
<text text-anchor="middle" x="941" y="-186.81" font-family="Times,serif" font-size="32.00">ε_13</text>
<text text-anchor="middle" x="941" y="-151.81" font-family="Times,serif" font-size="32.00">=&gt;5 =da v</text>
</g>
<!-- 5&#45;&gt;perf -->
<g id="edge69" class="edge">
<title>5&#45;&gt;perf</title>
<path fill="none" stroke="#000000" d="M1751.41,-417.29C1701.44,-375.54 1570.32,-272.78 1441,-228.41 1399.1,-214.04 1077.87,-178.09 1043,-205.41 1016.69,-226.02 1048.19,-254.35 1025,-278.41 971.1,-334.31 927.24,-293.29 857,-326.41 781.84,-361.84 745.61,-361.07 703,-432.41 612,-584.77 602.81,-1157.39 602.03,-1315.66"/>
<polygon fill="#000000" stroke="#000000" points="598.53,-1315.89 601.99,-1325.9 605.53,-1315.91 598.53,-1315.89"/>
<text text-anchor="middle" x="1130.5" y="-249.81" font-family="Times,serif" font-size="32.00">n_4</text>
<text text-anchor="middle" x="1130.5" y="-214.81" font-family="Times,serif" font-size="32.00">=&gt;5 =da perf</text>
</g>
<!-- 5&#45;&gt;prog -->
<g id="edge68" class="edge">
<title>5&#45;&gt;prog</title>
<path fill="none" stroke="#000000" d="M1746.89,-440.7C1678.62,-455.35 1495.04,-498.56 1459,-546.41 1419.35,-599.05 1486.51,-794.75 1441,-842.41 1409.36,-875.55 1280.59,-853.88 1236,-864.41 1146.9,-885.46 1096.53,-862.14 1043,-936.41 1009.85,-982.41 1056,-1398.93 1025,-1446.41 1018.44,-1456.45 1008.6,-1464.05 997.97,-1469.76"/>
<polygon fill="#000000" stroke="#000000" points="996.39,-1466.64 988.9,-1474.13 999.43,-1472.94 996.39,-1466.64"/>
<text text-anchor="middle" x="1338.5" y="-908.81" font-family="Times,serif" font-size="32.00">ing_4</text>
<text text-anchor="middle" x="1338.5" y="-873.81" font-family="Times,serif" font-size="32.00">=&gt;5 =da prog</text>
</g>
</g>
</svg>
