<?xml version="1.0" encoding="UTF-8" standalone="no"?>
<!DOCTYPE svg PUBLIC "-//W3C//DTD SVG 1.1//EN"
 "http://www.w3.org/Graphics/SVG/1.1/DTD/svg11.dtd">
<!-- Generated by graphviz version 2.47.1 (20210417.1919)
 -->
<!-- Title: G Pages: 1 -->
<svg width="3330pt" height="2110pt"
 viewBox="0.00 0.00 3329.65 2110.23" xmlns="http://www.w3.org/2000/svg" xmlns:xlink="http://www.w3.org/1999/xlink">
<g id="graph0" class="graph" transform="scale(1 1) rotate(0) translate(4 2106.23)">
<title>G</title>
<polygon fill="white" stroke="transparent" points="-4,4 -4,-2106.23 3325.65,-2106.23 3325.65,4 -4,4"/>
<text text-anchor="middle" x="1660.83" y="-13.4" font-family="Times,serif" font-size="32.00">decomposition: neglect =of 4, neglect 5, neglect 6</text>
<!-- t -->
<g id="node1" class="node">
<title>t</title>
<ellipse fill="lightgray" stroke="black" cx="27" cy="-1396.23" rx="27" ry="30.31"/>
<text text-anchor="middle" x="27" y="-1388.13" font-family="Times,serif" font-size="32.00">t</text>
</g>
<!-- z0 -->
<g id="node2" class="node">
<title>z0</title>
<ellipse fill="none" stroke="black" stroke-dasharray="5,2" cx="3294.65" cy="-1869.23" rx="27" ry="18"/>
</g>
<!-- da -->
<g id="node3" class="node">
<title>da</title>
<ellipse fill="none" stroke="black" cx="3076.33" cy="-1869.23" rx="33.47" ry="30.31"/>
<text text-anchor="middle" x="3076.33" y="-1861.13" font-family="Times,serif" font-size="32.00">da</text>
</g>
<!-- z0&#45;&gt;da -->
<g id="edge1" class="edge">
<title>z0&#45;&gt;da</title>
<path fill="none" stroke="#000000" d="M3267.56,-1869.23C3230.94,-1869.23 3163.87,-1869.23 3119.95,-1869.23"/>
<polygon fill="#000000" stroke="#000000" points="3119.86,-1865.73 3109.86,-1869.23 3119.86,-1872.73 3119.86,-1865.73"/>
<text text-anchor="middle" x="3198.15" y="-1948.63" font-family="Times,serif" font-size="32.00">Mary |</text>
<text text-anchor="middle" x="3198.15" y="-1913.63" font-family="Times,serif" font-size="32.00"> John</text>
<text text-anchor="middle" x="3198.15" y="-1878.63" font-family="Times,serif" font-size="32.00">da &#45;k</text>
</g>
<!-- z1 -->
<g id="node4" class="node">
<title>z1</title>
<ellipse fill="none" stroke="black" stroke-dasharray="5,2" cx="3294.65" cy="-1997.23" rx="27" ry="18"/>
</g>
<!-- poss -->
<g id="node5" class="node">
<title>poss</title>
<ellipse fill="none" stroke="black" cx="3076.33" cy="-1997.23" rx="52.15" ry="30.31"/>
<text text-anchor="middle" x="3076.33" y="-1989.13" font-family="Times,serif" font-size="32.00">poss</text>
</g>
<!-- z1&#45;&gt;poss -->
<g id="edge2" class="edge">
<title>z1&#45;&gt;poss</title>
<path fill="none" stroke="#000000" d="M3267.56,-1997.23C3235.89,-1997.23 3181.47,-1997.23 3138.92,-1997.23"/>
<polygon fill="#000000" stroke="#000000" points="3138.66,-1993.73 3128.66,-1997.23 3138.66,-2000.73 3138.66,-1993.73"/>
<text text-anchor="middle" x="3198.15" y="-2076.63" font-family="Times,serif" font-size="32.00">Mary&#39;s |</text>
<text text-anchor="middle" x="3198.15" y="-2041.63" font-family="Times,serif" font-size="32.00"> John&#39;s</text>
<text text-anchor="middle" x="3198.15" y="-2006.63" font-family="Times,serif" font-size="32.00">poss</text>
</g>
<!-- z2 -->
<g id="node6" class="node">
<title>z2</title>
<ellipse fill="none" stroke="black" stroke-dasharray="5,2" cx="2744.5" cy="-1447.23" rx="27" ry="18"/>
</g>
<!-- d -->
<g id="node7" class="node">
<title>d</title>
<ellipse fill="none" stroke="black" cx="2403.5" cy="-1587.23" rx="27" ry="30.31"/>
<text text-anchor="middle" x="2403.5" y="-1579.13" font-family="Times,serif" font-size="32.00">d</text>
</g>
<!-- z2&#45;&gt;d -->
<g id="edge3" class="edge">
<title>z2&#45;&gt;d</title>
<path fill="none" stroke="#000000" d="M2718.93,-1441.19C2669.25,-1430.45 2555.03,-1413.26 2478,-1460.23 2445.95,-1479.77 2426.45,-1518.89 2415.66,-1548.57"/>
<polygon fill="#000000" stroke="#000000" points="2412.28,-1547.64 2412.33,-1558.24 2418.9,-1549.92 2412.28,-1547.64"/>
<text text-anchor="middle" x="2575" y="-1504.63" font-family="Times,serif" font-size="32.00">the&#45;cause</text>
<text text-anchor="middle" x="2575" y="-1469.63" font-family="Times,serif" font-size="32.00">d &#45;k</text>
</g>
<!-- for -->
<g id="node8" class="node">
<title>for</title>
<ellipse fill="none" stroke="black" cx="2060.5" cy="-1570.23" rx="37.45" ry="30.31"/>
<text text-anchor="middle" x="2060.5" y="-1562.13" font-family="Times,serif" font-size="32.00">for</text>
</g>
<!-- d&#45;&gt;for -->
<g id="edge4" class="edge">
<title>d&#45;&gt;for</title>
<path fill="none" stroke="#000000" d="M2376.31,-1585.92C2318.86,-1583.06 2181.11,-1576.19 2108.35,-1572.56"/>
<polygon fill="#000000" stroke="#000000" points="2108.27,-1569.06 2098.11,-1572.05 2107.92,-1576.05 2108.27,-1569.06"/>
<text text-anchor="middle" x="2235.5" y="-1628.63" font-family="Times,serif" font-size="32.00">for</text>
<text text-anchor="middle" x="2235.5" y="-1593.63" font-family="Times,serif" font-size="32.00">=d *k for</text>
</g>
<!-- of -->
<g id="node9" class="node">
<title>of</title>
<ellipse fill="none" stroke="black" cx="3076.33" cy="-1790.23" rx="30.31" ry="30.31"/>
<text text-anchor="middle" x="3076.33" y="-1782.13" font-family="Times,serif" font-size="32.00">of</text>
</g>
<!-- d&#45;&gt;of -->
<g id="edge5" class="edge">
<title>d&#45;&gt;of</title>
<path fill="none" stroke="#000000" d="M2424.84,-1606.02C2438.97,-1618.36 2458.66,-1634.19 2478,-1645.23 2618.3,-1725.26 2659.07,-1742.33 2817,-1776.23 2893.05,-1792.55 2984.43,-1793.2 3035.59,-1791.91"/>
<polygon fill="#000000" stroke="#000000" points="3035.98,-1795.4 3045.88,-1791.61 3035.78,-1788.4 3035.98,-1795.4"/>
<text text-anchor="middle" x="2744.5" y="-1815.63" font-family="Times,serif" font-size="32.00">of</text>
<text text-anchor="middle" x="2744.5" y="-1780.63" font-family="Times,serif" font-size="32.00">=d *k of</text>
</g>
<!-- about -->
<g id="node10" class="node">
<title>about</title>
<ellipse fill="none" stroke="black" cx="1900" cy="-1669.23" rx="61.54" ry="30.31"/>
<text text-anchor="middle" x="1900" y="-1661.13" font-family="Times,serif" font-size="32.00">about</text>
</g>
<!-- d&#45;&gt;about -->
<g id="edge6" class="edge">
<title>d&#45;&gt;about</title>
<path fill="none" stroke="#000000" d="M2385.86,-1610.78C2372.59,-1627.42 2352.4,-1648.42 2329,-1658.23 2266.47,-1684.44 2075.72,-1678.88 1971.24,-1673.52"/>
<polygon fill="#000000" stroke="#000000" points="1971.27,-1670.02 1961.1,-1672.99 1970.9,-1677.01 1971.27,-1670.02"/>
<text text-anchor="middle" x="2235.5" y="-1722.63" font-family="Times,serif" font-size="32.00">about</text>
<text text-anchor="middle" x="2235.5" y="-1687.63" font-family="Times,serif" font-size="32.00">=d *k about</text>
</g>
<!-- 3 -->
<g id="node18" class="node">
<title>3</title>
<ellipse fill="none" stroke="black" cx="1747" cy="-1496.23" rx="27" ry="30.31"/>
<text text-anchor="middle" x="1747" y="-1488.13" font-family="Times,serif" font-size="32.00">3</text>
</g>
<!-- for&#45;&gt;3 -->
<g id="edge20" class="edge">
<title>for&#45;&gt;3</title>
<path fill="none" stroke="#000000" d="M2024.37,-1561.88C1964.51,-1547.66 1843.39,-1518.89 1783.36,-1504.63"/>
<polygon fill="#000000" stroke="#000000" points="1784.12,-1501.21 1773.58,-1502.31 1782.5,-1508.02 1784.12,-1501.21"/>
<text text-anchor="middle" x="1900" y="-1595.63" font-family="Times,serif" font-size="32.00">hope</text>
<text text-anchor="middle" x="1900" y="-1560.63" font-family="Times,serif" font-size="32.00">=for 3</text>
</g>
<!-- 1 -->
<g id="node12" class="node">
<title>1</title>
<ellipse fill="none" stroke="black" cx="1346" cy="-1532.23" rx="27" ry="30.31"/>
<text text-anchor="middle" x="1346" y="-1524.13" font-family="Times,serif" font-size="32.00">1</text>
</g>
<!-- of&#45;&gt;1 -->
<g id="edge24" class="edge">
<title>of&#45;&gt;1</title>
<path fill="none" stroke="#000000" d="M3048.76,-1803.86C2993.72,-1830.78 2862.58,-1888.23 2745.5,-1888.23 2745.5,-1888.23 2745.5,-1888.23 1503,-1888.23 1366.71,-1888.23 1348.37,-1666.65 1346.7,-1573.11"/>
<polygon fill="#000000" stroke="#000000" points="1350.2,-1572.85 1346.58,-1562.89 1343.2,-1572.93 1350.2,-1572.85"/>
<text text-anchor="middle" x="2060.5" y="-1932.63" font-family="Times,serif" font-size="32.00">boast</text>
<text text-anchor="middle" x="2060.5" y="-1897.63" font-family="Times,serif" font-size="32.00">=of 1</text>
</g>
<!-- 4 -->
<g id="node19" class="node">
<title>4</title>
<ellipse fill="none" stroke="black" cx="2744.5" cy="-1519.23" rx="27" ry="30.31"/>
<text text-anchor="middle" x="2744.5" y="-1511.13" font-family="Times,serif" font-size="32.00">4</text>
</g>
<!-- of&#45;&gt;4 -->
<g id="edge25" class="edge">
<title>of&#45;&gt;4</title>
<path fill="none" stroke="#000000" d="M3070.58,-1760.33C3063.28,-1724.82 3045.72,-1666.59 3006,-1636.23 2938.43,-1584.58 2890.8,-1648.5 2817,-1606.23 2795.32,-1593.81 2777.48,-1572.12 2765.03,-1553.5"/>
<polygon fill="#000000" stroke="#000000" points="2767.88,-1551.46 2759.53,-1544.94 2761.99,-1555.24 2767.88,-1551.46"/>
<text text-anchor="middle" x="2911.5" y="-1750.63" font-family="Times,serif" font-size="32.00">boast_1 |</text>
<text text-anchor="middle" x="2911.5" y="-1715.63" font-family="Times,serif" font-size="32.00"> fear_1 |</text>
<text text-anchor="middle" x="2911.5" y="-1680.63" font-family="Times,serif" font-size="32.00"> scorn_1</text>
<text text-anchor="middle" x="2911.5" y="-1645.63" font-family="Times,serif" font-size="32.00">=of 4</text>
</g>
<!-- about&#45;&gt;1 -->
<g id="edge28" class="edge">
<title>about&#45;&gt;1</title>
<path fill="none" stroke="#000000" d="M1838.14,-1669.83C1752.11,-1668.67 1591.41,-1659.05 1466,-1608.23 1433.22,-1594.95 1399.59,-1572.49 1376.48,-1555.43"/>
<polygon fill="#000000" stroke="#000000" points="1378.56,-1552.61 1368.46,-1549.41 1374.36,-1558.21 1378.56,-1552.61"/>
<text text-anchor="middle" x="1616.5" y="-1702.63" font-family="Times,serif" font-size="32.00">boast_3</text>
<text text-anchor="middle" x="1616.5" y="-1667.63" font-family="Times,serif" font-size="32.00">=about 1</text>
</g>
<!-- a -->
<g id="node14" class="node">
<title>a</title>
<ellipse fill="none" stroke="black" cx="1504" cy="-1447.23" rx="27" ry="30.31"/>
<text text-anchor="middle" x="1504" y="-1439.13" font-family="Times,serif" font-size="32.00">a</text>
</g>
<!-- about&#45;&gt;a -->
<g id="edge30" class="edge">
<title>about&#45;&gt;a</title>
<path fill="none" stroke="#000000" d="M1852.55,-1649.45C1841.17,-1642.98 1829.76,-1634.91 1821,-1625.23 1807.65,-1610.47 1818.18,-1597.1 1803,-1584.23 1718,-1512.13 1652.37,-1584.6 1560,-1522.23 1545.04,-1512.13 1532.66,-1496.54 1523.45,-1482.2"/>
<polygon fill="#000000" stroke="#000000" points="1526.33,-1480.2 1518.14,-1473.48 1520.36,-1483.84 1526.33,-1480.2"/>
<text text-anchor="middle" x="1747" y="-1628.63" font-family="Times,serif" font-size="32.00">boastful</text>
<text text-anchor="middle" x="1747" y="-1593.63" font-family="Times,serif" font-size="32.00">=about a</text>
</g>
<!-- about&#45;&gt;4 -->
<g id="edge29" class="edge">
<title>about&#45;&gt;4</title>
<path fill="none" stroke="#000000" d="M1946.05,-1689.55C1993.62,-1709.81 2071.36,-1739.54 2142,-1751.23 2224,-1764.8 2246.82,-1763.64 2329,-1751.23 2486.77,-1727.41 2547.65,-1745.21 2672,-1645.23 2700.32,-1622.46 2719.44,-1585.26 2730.74,-1557.17"/>
<polygon fill="#000000" stroke="#000000" points="2734.07,-1558.25 2734.41,-1547.66 2727.54,-1555.73 2734.07,-1558.25"/>
<text text-anchor="middle" x="2403.5" y="-1792.63" font-family="Times,serif" font-size="32.00">boast_4</text>
<text text-anchor="middle" x="2403.5" y="-1757.63" font-family="Times,serif" font-size="32.00">=about 4</text>
</g>
<!-- 0 -->
<g id="node11" class="node">
<title>0</title>
<ellipse fill="none" stroke="black" cx="229" cy="-1396.23" rx="27" ry="30.31"/>
<text text-anchor="middle" x="229" y="-1388.13" font-family="Times,serif" font-size="32.00">0</text>
</g>
<!-- 0&#45;&gt;t -->
<g id="edge7" class="edge">
<title>0&#45;&gt;t</title>
<path fill="none" stroke="#000000" d="M201.85,-1396.23C166.67,-1396.23 103.92,-1396.23 64.21,-1396.23"/>
<polygon fill="#000000" stroke="#000000" points="64.15,-1392.73 54.15,-1396.23 64.15,-1399.73 64.15,-1392.73"/>
<text text-anchor="middle" x="128" y="-1475.63" font-family="Times,serif" font-size="32.00">s |</text>
<text text-anchor="middle" x="128" y="-1440.63" font-family="Times,serif" font-size="32.00"> d</text>
<text text-anchor="middle" x="128" y="-1405.63" font-family="Times,serif" font-size="32.00">=&gt;0 +k t</text>
</g>
<!-- 2 -->
<g id="node13" class="node">
<title>2</title>
<ellipse fill="none" stroke="black" cx="1123" cy="-1532.23" rx="27" ry="30.31"/>
<text text-anchor="middle" x="1123" y="-1524.13" font-family="Times,serif" font-size="32.00">2</text>
</g>
<!-- 1&#45;&gt;2 -->
<g id="edge8" class="edge">
<title>1&#45;&gt;2</title>
<path fill="none" stroke="#000000" d="M1318.78,-1532.23C1279.4,-1532.23 1204.87,-1532.23 1160.3,-1532.23"/>
<polygon fill="#000000" stroke="#000000" points="1160.19,-1528.73 1150.19,-1532.23 1160.19,-1535.73 1160.19,-1528.73"/>
<text text-anchor="middle" x="1234.5" y="-1576.63" font-family="Times,serif" font-size="32.00">ε_0</text>
<text text-anchor="middle" x="1234.5" y="-1541.63" font-family="Times,serif" font-size="32.00">=&gt;1 =da 2</text>
</g>
<!-- v -->
<g id="node15" class="node">
<title>v</title>
<ellipse fill="none" stroke="black" cx="395" cy="-1489.23" rx="27" ry="30.31"/>
<text text-anchor="middle" x="395" y="-1481.13" font-family="Times,serif" font-size="32.00">v</text>
</g>
<!-- 2&#45;&gt;v -->
<g id="edge10" class="edge">
<title>2&#45;&gt;v</title>
<path fill="none" stroke="#000000" d="M1095.76,-1532.11C999.29,-1531.58 664.34,-1529 558,-1518.23 514.14,-1513.78 464.3,-1504.16 431.62,-1497.22"/>
<polygon fill="#000000" stroke="#000000" points="432.16,-1493.75 421.64,-1495.07 430.68,-1500.6 432.16,-1493.75"/>
<text text-anchor="middle" x="744" y="-1573.63" font-family="Times,serif" font-size="32.00">ε_1</text>
<text text-anchor="middle" x="744" y="-1538.63" font-family="Times,serif" font-size="32.00">=&gt;2 v</text>
</g>
<!-- perf -->
<g id="node16" class="node">
<title>perf</title>
<ellipse fill="none" stroke="black" cx="608" cy="-1590.23" rx="48.17" ry="30.31"/>
<text text-anchor="middle" x="608" y="-1582.13" font-family="Times,serif" font-size="32.00">perf</text>
</g>
<!-- 2&#45;&gt;perf -->
<g id="edge11" class="edge">
<title>2&#45;&gt;perf</title>
<path fill="none" stroke="#000000" d="M1096.99,-1540.65C1090.82,-1542.6 1084.2,-1544.58 1078,-1546.23 903.59,-1592.55 855.63,-1620.49 676,-1603.23 671.89,-1602.83 667.65,-1602.3 663.4,-1601.69"/>
<polygon fill="#000000" stroke="#000000" points="663.94,-1598.23 653.52,-1600.1 662.83,-1605.14 663.94,-1598.23"/>
<text text-anchor="middle" x="886" y="-1650.63" font-family="Times,serif" font-size="32.00">n</text>
<text text-anchor="middle" x="886" y="-1615.63" font-family="Times,serif" font-size="32.00">=&gt;2 perf</text>
</g>
<!-- prog -->
<g id="node17" class="node">
<title>prog</title>
<ellipse fill="none" stroke="black" cx="886" cy="-1422.23" rx="52.15" ry="30.31"/>
<text text-anchor="middle" x="886" y="-1414.13" font-family="Times,serif" font-size="32.00">prog</text>
</g>
<!-- 2&#45;&gt;prog -->
<g id="edge12" class="edge">
<title>2&#45;&gt;prog</title>
<path fill="none" stroke="#000000" d="M1114.29,-1503.05C1107.77,-1484.33 1096.46,-1461.18 1078,-1448.23 1040.45,-1421.88 988.35,-1416.3 948.05,-1416.79"/>
<polygon fill="#000000" stroke="#000000" points="947.72,-1413.3 937.82,-1417.05 947.9,-1420.3 947.72,-1413.3"/>
<text text-anchor="middle" x="1019" y="-1492.63" font-family="Times,serif" font-size="32.00">ing</text>
<text text-anchor="middle" x="1019" y="-1457.63" font-family="Times,serif" font-size="32.00">=&gt;2 prog</text>
</g>
<!-- a&#45;&gt;1 -->
<g id="edge9" class="edge">
<title>a&#45;&gt;1</title>
<path fill="none" stroke="#000000" d="M1477.39,-1440.42C1453.27,-1435.54 1417.05,-1432.31 1391,-1448.23 1374.68,-1458.2 1364.11,-1476.43 1357.43,-1493.36"/>
<polygon fill="#000000" stroke="#000000" points="1354.02,-1492.51 1353.94,-1503.11 1360.61,-1494.88 1354.02,-1492.51"/>
<text text-anchor="middle" x="1419.5" y="-1492.63" font-family="Times,serif" font-size="32.00">be</text>
<text text-anchor="middle" x="1419.5" y="-1457.63" font-family="Times,serif" font-size="32.00">=a 1</text>
</g>
<!-- v&#45;&gt;0 -->
<g id="edge13" class="edge">
<title>v&#45;&gt;0</title>
<path fill="none" stroke="#000000" d="M388.46,-1459.67C382.75,-1438.31 371.51,-1410.91 350,-1397.23 325.12,-1381.41 291.09,-1382.77 265.61,-1387.15"/>
<polygon fill="#000000" stroke="#000000" points="264.76,-1383.75 255.62,-1389.1 266.1,-1390.63 264.76,-1383.75"/>
<text text-anchor="middle" x="312" y="-1441.63" font-family="Times,serif" font-size="32.00">will</text>
<text text-anchor="middle" x="312" y="-1406.63" font-family="Times,serif" font-size="32.00">=v 0</text>
</g>
<!-- v&#45;&gt;0 -->
<g id="edge15" class="edge">
<title>v&#45;&gt;0</title>
<path fill="none" stroke="#000000" d="M367.84,-1490.32C341.87,-1490.15 302,-1486.33 274,-1467.23 261.66,-1458.81 252.13,-1445.67 245.14,-1432.98"/>
<polygon fill="#000000" stroke="#000000" points="248.16,-1431.2 240.5,-1423.88 241.93,-1434.38 248.16,-1431.2"/>
<text text-anchor="middle" x="312" y="-1534.63" font-family="Times,serif" font-size="32.00">ε_2</text>
<text text-anchor="middle" x="312" y="-1499.63" font-family="Times,serif" font-size="32.00">=&gt;v 0</text>
</g>
<!-- perf&#45;&gt;v -->
<g id="edge14" class="edge">
<title>perf&#45;&gt;v</title>
<path fill="none" stroke="#000000" d="M560.11,-1586.08C524.66,-1581.1 476.11,-1570.17 440,-1546.23 430.84,-1540.16 422.78,-1531.53 416.15,-1522.83"/>
<polygon fill="#000000" stroke="#000000" points="418.9,-1520.65 410.24,-1514.53 413.2,-1524.71 418.9,-1520.65"/>
<text text-anchor="middle" x="490" y="-1627.63" font-family="Times,serif" font-size="32.00">have</text>
<text text-anchor="middle" x="490" y="-1592.63" font-family="Times,serif" font-size="32.00">=perf v</text>
</g>
<!-- prog&#45;&gt;0 -->
<g id="edge16" class="edge">
<title>prog&#45;&gt;0</title>
<path fill="none" stroke="#000000" d="M835.48,-1414.09C768.63,-1403.57 645.73,-1385.79 540,-1379.23 495.64,-1376.47 484.44,-1378.96 440,-1379.23 366.22,-1379.67 346.72,-1368.72 274,-1381.23 270.92,-1381.76 267.76,-1382.47 264.62,-1383.3"/>
<polygon fill="#000000" stroke="#000000" points="263.34,-1380.03 254.77,-1386.26 265.36,-1386.73 263.34,-1380.03"/>
<text text-anchor="middle" x="490" y="-1423.63" font-family="Times,serif" font-size="32.00">be_1</text>
<text text-anchor="middle" x="490" y="-1388.63" font-family="Times,serif" font-size="32.00">=prog 0</text>
</g>
<!-- prog&#45;&gt;v -->
<g id="edge17" class="edge">
<title>prog&#45;&gt;v</title>
<path fill="none" stroke="#000000" d="M833.56,-1420.64C826.32,-1420.47 818.97,-1420.32 812,-1420.23 751.56,-1419.4 736.03,-1413.2 676,-1420.23 622.46,-1426.49 610.35,-1435.39 558,-1448.23 514.4,-1458.92 464.31,-1471.67 431.51,-1480.08"/>
<polygon fill="#000000" stroke="#000000" points="430.32,-1476.77 421.5,-1482.65 432.06,-1483.55 430.32,-1476.77"/>
<text text-anchor="middle" x="608" y="-1492.63" font-family="Times,serif" font-size="32.00">be_2</text>
<text text-anchor="middle" x="608" y="-1457.63" font-family="Times,serif" font-size="32.00">=prog v</text>
</g>
<!-- prog&#45;&gt;perf -->
<g id="edge18" class="edge">
<title>prog&#45;&gt;perf</title>
<path fill="none" stroke="#000000" d="M833.34,-1420.83C779.75,-1420.38 700.41,-1422.87 676,-1440.23 675.69,-1440.45 645.91,-1507.27 626.17,-1551.64"/>
<polygon fill="#000000" stroke="#000000" points="622.87,-1550.45 622,-1561.01 629.26,-1553.3 622.87,-1550.45"/>
<text text-anchor="middle" x="744" y="-1484.63" font-family="Times,serif" font-size="32.00">ben</text>
<text text-anchor="middle" x="744" y="-1449.63" font-family="Times,serif" font-size="32.00">=prog perf</text>
</g>
<!-- 3&#45;&gt;1 -->
<g id="edge19" class="edge">
<title>3&#45;&gt;1</title>
<path fill="none" stroke="#000000" d="M1721.03,-1505.44C1707.1,-1510.16 1689.31,-1515.47 1673,-1518.23 1568.94,-1535.86 1443.67,-1535.24 1383.19,-1533.6"/>
<polygon fill="#000000" stroke="#000000" points="1383.11,-1530.1 1373.01,-1533.3 1382.9,-1537.09 1383.11,-1530.1"/>
<text text-anchor="middle" x="1504" y="-1578.63" font-family="Times,serif" font-size="32.00">ε_3</text>
<text text-anchor="middle" x="1504" y="-1543.63" font-family="Times,serif" font-size="32.00">=&gt;3 1</text>
</g>
<!-- 3&#45;&gt;a -->
<g id="edge23" class="edge">
<title>3&#45;&gt;a</title>
<path fill="none" stroke="#000000" d="M1725.32,-1477.93C1711.54,-1466.99 1692.45,-1454.11 1673,-1448.23 1629.1,-1434.95 1575.75,-1437.6 1541.12,-1441.63"/>
<polygon fill="#000000" stroke="#000000" points="1540.49,-1438.18 1531.01,-1442.91 1541.37,-1445.13 1540.49,-1438.18"/>
<text text-anchor="middle" x="1616.5" y="-1492.63" font-family="Times,serif" font-size="32.00">ful</text>
<text text-anchor="middle" x="1616.5" y="-1457.63" font-family="Times,serif" font-size="32.00">=&gt;3 a</text>
</g>
<!-- 3&#45;&gt;4 -->
<g id="edge22" class="edge">
<title>3&#45;&gt;4</title>
<path fill="none" stroke="#000000" d="M1774.06,-1496.13C1855.85,-1495.89 2114.72,-1495.66 2329,-1501.23 2468.72,-1504.86 2634.77,-1513.33 2706.96,-1517.21"/>
<polygon fill="#000000" stroke="#000000" points="2707.15,-1520.73 2717.32,-1517.78 2707.53,-1513.74 2707.15,-1520.73"/>
<text text-anchor="middle" x="2235.5" y="-1545.63" font-family="Times,serif" font-size="32.00">ε_5</text>
<text text-anchor="middle" x="2235.5" y="-1510.63" font-family="Times,serif" font-size="32.00">=&gt;3 4</text>
</g>
<!-- 4&#45;&gt;d -->
<g id="edge21" class="edge">
<title>4&#45;&gt;d</title>
<path fill="none" stroke="#000000" d="M2717.74,-1524.4C2657.78,-1536.42 2508.75,-1566.32 2440.13,-1580.08"/>
<polygon fill="#000000" stroke="#000000" points="2439.34,-1576.67 2430.22,-1582.07 2440.71,-1583.53 2439.34,-1576.67"/>
<text text-anchor="middle" x="2575" y="-1615.63" font-family="Times,serif" font-size="32.00">ε_4</text>
<text text-anchor="middle" x="2575" y="-1580.63" font-family="Times,serif" font-size="32.00">=&gt;4 poss= d &#45;k</text>
</g>
<!-- 5 -->
<g id="node20" class="node">
<title>5</title>
<ellipse fill="none" stroke="black" cx="2744.5" cy="-819.23" rx="27" ry="30.31"/>
<text text-anchor="middle" x="2744.5" y="-811.13" font-family="Times,serif" font-size="32.00">5</text>
</g>
<!-- 5&#45;&gt;a -->
<g id="edge26" class="edge">
<title>5&#45;&gt;a</title>
<path fill="none" stroke="#000000" d="M2728.82,-844.51C2687.32,-912.35 2561.9,-1093.23 2404.5,-1093.23 2404.5,-1093.23 2404.5,-1093.23 1746,-1093.23 1595.15,-1093.23 1532.03,-1315.59 1512.34,-1407.85"/>
<polygon fill="#000000" stroke="#000000" points="1508.91,-1407.15 1510.3,-1417.66 1515.76,-1408.57 1508.91,-1407.15"/>
<text text-anchor="middle" x="2060.5" y="-1137.63" font-family="Times,serif" font-size="32.00">ful_1</text>
<text text-anchor="middle" x="2060.5" y="-1102.63" font-family="Times,serif" font-size="32.00">=&gt;5 =of a</text>
</g>
<!-- z3 -->
<g id="node21" class="node">
<title>z3</title>
<ellipse fill="none" stroke="black" stroke-dasharray="5,2" cx="3076.33" cy="-610.23" rx="27" ry="18"/>
</g>
<!-- z3&#45;&gt;5 -->
<g id="edge27" class="edge">
<title>z3&#45;&gt;5</title>
<path fill="none" stroke="#000000" d="M3049.3,-607.23C2991.24,-601.1 2853.4,-589.82 2817,-616.23 2765.58,-653.54 2750.92,-730.83 2746.88,-778.54"/>
<polygon fill="#000000" stroke="#000000" points="2743.39,-778.31 2746.15,-788.54 2750.37,-778.82 2743.39,-778.31"/>
<text text-anchor="middle" x="2911.5" y="-730.63" font-family="Times,serif" font-size="32.00">boast_2 |</text>
<text text-anchor="middle" x="2911.5" y="-695.63" font-family="Times,serif" font-size="32.00"> fear_2 |</text>
<text text-anchor="middle" x="2911.5" y="-660.63" font-family="Times,serif" font-size="32.00"> scorn_2</text>
<text text-anchor="middle" x="2911.5" y="-625.63" font-family="Times,serif" font-size="32.00">5</text>
</g>
<!-- 6 -->
<g id="node22" class="node">
<title>6</title>
<ellipse fill="none" stroke="black" cx="2744.5" cy="-378.23" rx="27" ry="30.31"/>
<text text-anchor="middle" x="2744.5" y="-370.13" font-family="Times,serif" font-size="32.00">6</text>
</g>
<!-- 6&#45;&gt;1 -->
<g id="edge31" class="edge">
<title>6&#45;&gt;1</title>
<path fill="none" stroke="#000000" d="M2725.4,-399.91C2678.43,-453.57 2546.42,-588.23 2404.5,-588.23 2404.5,-588.23 2404.5,-588.23 1503,-588.23 1409.96,-588.23 1360.29,-1311.22 1349.34,-1491.76"/>
<polygon fill="#000000" stroke="#000000" points="1345.83,-1491.7 1348.73,-1501.89 1352.82,-1492.12 1345.83,-1491.7"/>
<text text-anchor="middle" x="1900" y="-632.63" font-family="Times,serif" font-size="32.00">ε_6</text>
<text text-anchor="middle" x="1900" y="-597.63" font-family="Times,serif" font-size="32.00">=&gt;6 =d *k 1</text>
</g>
<!-- z4 -->
<g id="node23" class="node">
<title>z4</title>
<ellipse fill="none" stroke="black" stroke-dasharray="5,2" cx="3076.33" cy="-110.23" rx="27" ry="18"/>
</g>
<!-- z4&#45;&gt;6 -->
<g id="edge32" class="edge">
<title>z4&#45;&gt;6</title>
<path fill="none" stroke="#000000" d="M3051.99,-102.13C3002.75,-86.64 2887.01,-58.96 2817,-113.23 2781.61,-140.66 2759.65,-270.65 2750.47,-337.82"/>
<polygon fill="#000000" stroke="#000000" points="2746.96,-337.66 2749.11,-348.04 2753.9,-338.59 2746.96,-337.66"/>
<text text-anchor="middle" x="2911.5" y="-192.63" font-family="Times,serif" font-size="32.00">fear |</text>
<text text-anchor="middle" x="2911.5" y="-157.63" font-family="Times,serif" font-size="32.00"> scorn</text>
<text text-anchor="middle" x="2911.5" y="-122.63" font-family="Times,serif" font-size="32.00">6</text>
</g>
<!-- 7 -->
<g id="node24" class="node">
<title>7</title>
<ellipse fill="none" stroke="black" cx="3076.33" cy="-517.23" rx="27" ry="30.31"/>
<text text-anchor="middle" x="3076.33" y="-509.13" font-family="Times,serif" font-size="32.00">7</text>
</g>
<!-- 7&#45;&gt;4 -->
<g id="edge35" class="edge">
<title>7&#45;&gt;4</title>
<path fill="none" stroke="#f7931d" stroke-width="2" d="M3055.19,-536.28C3043.76,-548.48 3030.47,-565.35 3024,-583.23 3013.79,-611.45 3026.5,-1101.31 3006,-1123.23 2977.17,-1154.06 2846.15,-1111.7 2817,-1142.23 2791.49,-1168.95 2815.49,-1441.17 2799,-1474.23 2794.03,-1484.19 2785.76,-1492.78 2777.19,-1499.72"/>
<polygon fill="#f7931d" stroke="#f7931d" stroke-width="2" points="2774.89,-1497.06 2768.97,-1505.85 2779.08,-1502.67 2774.89,-1497.06"/>
<text text-anchor="middle" x="2911.5" y="-1186.63" font-family="Times,serif" font-size="32.00">ε_8</text>
<text text-anchor="middle" x="2911.5" y="-1151.63" font-family="Times,serif" font-size="32.00">=&gt;7 =of 4</text>
</g>
<!-- 7&#45;&gt;5 -->
<g id="edge36" class="edge">
<title>7&#45;&gt;5</title>
<path fill="none" stroke="#f7931d" stroke-width="2" d="M3049.09,-514.31C2990.59,-508.4 2851.89,-497.83 2817,-526.23 2778.1,-557.89 2757.38,-706.25 2749.41,-778.92"/>
<polygon fill="#f7931d" stroke="#f7931d" stroke-width="2" points="2745.91,-778.75 2748.33,-789.07 2752.87,-779.49 2745.91,-778.75"/>
<text text-anchor="middle" x="2911.5" y="-570.63" font-family="Times,serif" font-size="32.00">ε_9</text>
<text text-anchor="middle" x="2911.5" y="-535.63" font-family="Times,serif" font-size="32.00">=&gt;7 5</text>
</g>
<!-- 7&#45;&gt;6 -->
<g id="edge33" class="edge">
<title>7&#45;&gt;6</title>
<path fill="none" stroke="#f7931d" stroke-width="2" d="M3072.4,-487.05C3065.36,-421.54 3045.1,-269.78 3006,-239.23 2972.9,-213.37 2852.85,-217.35 2817,-239.23 2781.73,-260.75 2763.12,-305.84 2753.83,-338.85"/>
<polygon fill="#f7931d" stroke="#f7931d" stroke-width="2" points="2750.41,-338.1 2751.24,-348.66 2757.18,-339.89 2750.41,-338.1"/>
<text text-anchor="middle" x="2911.5" y="-283.63" font-family="Times,serif" font-size="32.00">ε_7</text>
<text text-anchor="middle" x="2911.5" y="-248.63" font-family="Times,serif" font-size="32.00">=&gt;7 6</text>
</g>
<!-- z5 -->
<g id="node25" class="node">
<title>z5</title>
<ellipse fill="none" stroke="black" stroke-dasharray="5,2" cx="3294.65" cy="-517.23" rx="27" ry="18"/>
</g>
<!-- z5&#45;&gt;7 -->
<g id="edge34" class="edge">
<title>z5&#45;&gt;7</title>
<path fill="none" stroke="#f7931d" stroke-width="2" d="M3267.56,-517.23C3229.15,-517.23 3157.24,-517.23 3113.67,-517.23"/>
<polygon fill="#f7931d" stroke="#f7931d" stroke-width="2" points="3113.51,-513.73 3103.51,-517.23 3113.51,-520.73 3113.51,-513.73"/>
<text text-anchor="middle" x="3198.15" y="-561.63" font-family="Times,serif" font-size="32.00">neglect</text>
<text text-anchor="middle" x="3198.15" y="-526.63" font-family="Times,serif" font-size="32.00">7</text>
</g>
<!-- 8 -->
<g id="node26" class="node">
<title>8</title>
<ellipse fill="none" stroke="black" cx="3076.33" cy="-773.23" rx="27" ry="30.31"/>
<text text-anchor="middle" x="3076.33" y="-765.13" font-family="Times,serif" font-size="32.00">8</text>
</g>
<!-- 8&#45;&gt;4 -->
<g id="edge39" class="edge">
<title>8&#45;&gt;4</title>
<path fill="none" stroke="#000000" d="M3053.48,-789.73C3042.53,-799.35 3030.29,-812.48 3024,-827.23 3007.03,-867.03 3035.76,-1184.82 3006,-1216.23 2976.97,-1246.87 2846.47,-1205.01 2817,-1235.23 2779.81,-1273.36 2823.28,-1426.82 2799,-1474.23 2793.93,-1484.13 2785.62,-1492.72 2777.06,-1499.65"/>
<polygon fill="#000000" stroke="#000000" points="2774.77,-1497 2768.86,-1505.79 2778.96,-1502.6 2774.77,-1497"/>
<text text-anchor="middle" x="2911.5" y="-1279.63" font-family="Times,serif" font-size="32.00">ε_11</text>
<text text-anchor="middle" x="2911.5" y="-1244.63" font-family="Times,serif" font-size="32.00">=&gt;8 =for 4</text>
</g>
<!-- 8&#45;&gt;5 -->
<g id="edge40" class="edge">
<title>8&#45;&gt;5</title>
<path fill="none" stroke="#000000" d="M3049.36,-768.71C3002.03,-761.48 2899.04,-750.39 2817,-774.23 2802.15,-778.54 2787.41,-786.93 2775.2,-795.31"/>
<polygon fill="#000000" stroke="#000000" points="2772.87,-792.68 2766.8,-801.35 2776.96,-798.36 2772.87,-792.68"/>
<text text-anchor="middle" x="2911.5" y="-818.63" font-family="Times,serif" font-size="32.00">ε_12</text>
<text text-anchor="middle" x="2911.5" y="-783.63" font-family="Times,serif" font-size="32.00">=&gt;8 5</text>
</g>
<!-- 8&#45;&gt;6 -->
<g id="edge37" class="edge">
<title>8&#45;&gt;6</title>
<path fill="none" stroke="#000000" d="M3062.64,-746.86C3050.36,-719.97 3032.41,-676.72 3024,-637.23 3016.93,-604.03 3030.7,-355.52 3006,-332.23 2975.44,-303.42 2857.3,-320.39 2817,-332.23 2801.81,-336.69 2786.8,-345.49 2774.48,-354.21"/>
<polygon fill="#000000" stroke="#000000" points="2772.38,-351.41 2766.42,-360.17 2776.54,-357.04 2772.38,-351.41"/>
<text text-anchor="middle" x="2911.5" y="-376.63" font-family="Times,serif" font-size="32.00">ε_10</text>
<text text-anchor="middle" x="2911.5" y="-341.63" font-family="Times,serif" font-size="32.00">=&gt;8 6</text>
</g>
<!-- z6 -->
<g id="node27" class="node">
<title>z6</title>
<ellipse fill="none" stroke="black" stroke-dasharray="5,2" cx="3294.65" cy="-773.23" rx="27" ry="18"/>
</g>
<!-- z6&#45;&gt;8 -->
<g id="edge38" class="edge">
<title>z6&#45;&gt;8</title>
<path fill="none" stroke="#000000" d="M3267.56,-773.23C3229.15,-773.23 3157.24,-773.23 3113.67,-773.23"/>
<polygon fill="#000000" stroke="#000000" points="3113.51,-769.73 3103.51,-773.23 3113.51,-776.73 3113.51,-769.73"/>
<text text-anchor="middle" x="3198.15" y="-817.63" font-family="Times,serif" font-size="32.00">respect</text>
<text text-anchor="middle" x="3198.15" y="-782.63" font-family="Times,serif" font-size="32.00">8</text>
</g>
<!-- 9 -->
<g id="node28" class="node">
<title>9</title>
<ellipse fill="none" stroke="black" cx="3076.33" cy="-866.23" rx="27" ry="30.31"/>
<text text-anchor="middle" x="3076.33" y="-858.13" font-family="Times,serif" font-size="32.00">9</text>
</g>
<!-- 9&#45;&gt;4 -->
<g id="edge43" class="edge">
<title>9&#45;&gt;4</title>
<path fill="none" stroke="#000000" d="M3074.83,-896.9C3072.75,-987.13 3061.9,-1249.06 3006,-1309.23 2947.3,-1372.41 2875.46,-1289.82 2817,-1353.23 2780.14,-1393.2 2825.52,-1426.77 2799,-1474.23 2793.62,-1483.86 2785.31,-1492.33 2776.83,-1499.25"/>
<polygon fill="#000000" stroke="#000000" points="2774.59,-1496.55 2768.74,-1505.39 2778.82,-1502.13 2774.59,-1496.55"/>
<text text-anchor="middle" x="2911.5" y="-1397.63" font-family="Times,serif" font-size="32.00">ε_14</text>
<text text-anchor="middle" x="2911.5" y="-1362.63" font-family="Times,serif" font-size="32.00">=&gt;9 =for 4</text>
</g>
<!-- 9&#45;&gt;5 -->
<g id="edge44" class="edge">
<title>9&#45;&gt;5</title>
<path fill="none" stroke="#000000" d="M3048.97,-866.16C3001.88,-865.55 2900.41,-862.06 2817,-844.23 2804.54,-841.56 2791.27,-837.34 2779.59,-833.11"/>
<polygon fill="#000000" stroke="#000000" points="2780.8,-829.82 2770.21,-829.59 2778.34,-836.38 2780.8,-829.82"/>
<text text-anchor="middle" x="2911.5" y="-909.63" font-family="Times,serif" font-size="32.00">ε_15</text>
<text text-anchor="middle" x="2911.5" y="-874.63" font-family="Times,serif" font-size="32.00">=&gt;9 5</text>
</g>
<!-- 9&#45;&gt;6 -->
<g id="edge41" class="edge">
<title>9&#45;&gt;6</title>
<path fill="none" stroke="#000000" d="M3053.49,-849.73C3042.54,-840.11 3030.3,-826.98 3024,-812.23 3007.48,-773.56 3033.89,-465.69 3006,-434.23 2977.74,-402.35 2858.32,-412.59 2817,-402.23 2804.82,-399.17 2791.73,-395.04 2780.12,-391.06"/>
<polygon fill="#000000" stroke="#000000" points="2780.96,-387.65 2770.36,-387.64 2778.64,-394.25 2780.96,-387.65"/>
<text text-anchor="middle" x="2911.5" y="-478.63" font-family="Times,serif" font-size="32.00">ε_13</text>
<text text-anchor="middle" x="2911.5" y="-443.63" font-family="Times,serif" font-size="32.00">=&gt;9 6</text>
</g>
<!-- z7 -->
<g id="node29" class="node">
<title>z7</title>
<ellipse fill="none" stroke="black" stroke-dasharray="5,2" cx="3294.65" cy="-866.23" rx="27" ry="18"/>
</g>
<!-- z7&#45;&gt;9 -->
<g id="edge42" class="edge">
<title>z7&#45;&gt;9</title>
<path fill="none" stroke="#000000" d="M3267.56,-866.23C3229.15,-866.23 3157.24,-866.23 3113.67,-866.23"/>
<polygon fill="#000000" stroke="#000000" points="3113.51,-862.73 3103.51,-866.23 3113.51,-869.73 3113.51,-862.73"/>
<text text-anchor="middle" x="3198.15" y="-910.63" font-family="Times,serif" font-size="32.00">disdain</text>
<text text-anchor="middle" x="3198.15" y="-875.63" font-family="Times,serif" font-size="32.00">9</text>
</g>
<!-- 10 -->
<g id="node30" class="node">
<title>10</title>
<ellipse fill="none" stroke="black" cx="3076.33" cy="-1416.23" rx="33.88" ry="30.31"/>
<text text-anchor="middle" x="3076.33" y="-1408.13" font-family="Times,serif" font-size="32.00">10</text>
</g>
<!-- 10&#45;&gt;a -->
<g id="edge50" class="edge">
<title>10&#45;&gt;a</title>
<path fill="none" stroke="#000000" d="M3042.32,-1414.55C2962.36,-1410.64 2751.84,-1401.23 2576,-1401.23 2576,-1401.23 2576,-1401.23 1746,-1401.23 1671.59,-1401.23 1586.52,-1422.65 1539.98,-1436.25"/>
<polygon fill="#000000" stroke="#000000" points="1538.96,-1432.9 1530.38,-1439.11 1540.96,-1439.61 1538.96,-1432.9"/>
<text text-anchor="middle" x="2235.5" y="-1445.63" font-family="Times,serif" font-size="32.00">ful_2</text>
<text text-anchor="middle" x="2235.5" y="-1410.63" font-family="Times,serif" font-size="32.00">=&gt;10 =about a</text>
</g>
<!-- 10&#45;&gt;4 -->
<g id="edge47" class="edge">
<title>10&#45;&gt;4</title>
<path fill="none" stroke="#000000" d="M3042.91,-1421.62C3031.29,-1423.49 3018.07,-1425.54 3006,-1427.23 2964.1,-1433.1 2853.63,-1429.05 2817,-1450.23 2805.46,-1456.9 2808.16,-1464.54 2799,-1474.23 2791.74,-1481.9 2783.24,-1489.56 2775.18,-1496.32"/>
<polygon fill="#000000" stroke="#000000" points="2772.84,-1493.71 2767.32,-1502.75 2777.28,-1499.12 2772.84,-1493.71"/>
<text text-anchor="middle" x="2911.5" y="-1494.63" font-family="Times,serif" font-size="32.00">ε_17</text>
<text text-anchor="middle" x="2911.5" y="-1459.63" font-family="Times,serif" font-size="32.00">=&gt;10 =of 4</text>
</g>
<!-- 10&#45;&gt;4 -->
<g id="edge49" class="edge">
<title>10&#45;&gt;4</title>
<path fill="none" stroke="#000000" d="M3065.11,-1445.09C3054.57,-1470.03 3035.46,-1504.46 3006,-1520.23 2968.31,-1540.4 2844.21,-1530.23 2781.89,-1523.54"/>
<polygon fill="#000000" stroke="#000000" points="2782.04,-1520.03 2771.72,-1522.41 2781.27,-1526.99 2782.04,-1520.03"/>
<text text-anchor="middle" x="2911.5" y="-1576.63" font-family="Times,serif" font-size="32.00">ε_19</text>
<text text-anchor="middle" x="2911.5" y="-1541.63" font-family="Times,serif" font-size="32.00">=&gt;10 =about 4</text>
</g>
<!-- 10&#45;&gt;5 -->
<g id="edge48" class="edge">
<title>10&#45;&gt;5</title>
<path fill="none" stroke="#000000" d="M3073.98,-1385.84C3069.82,-1306.91 3054.4,-1098.46 3006,-1053.23 2944.18,-995.45 2882.66,-1083.61 2817,-1030.23 2765.69,-988.52 2751.03,-908.42 2746.94,-859.81"/>
<polygon fill="#000000" stroke="#000000" points="2750.42,-859.36 2746.2,-849.64 2743.44,-859.87 2750.42,-859.36"/>
<text text-anchor="middle" x="2911.5" y="-1097.63" font-family="Times,serif" font-size="32.00">ε_18</text>
<text text-anchor="middle" x="2911.5" y="-1062.63" font-family="Times,serif" font-size="32.00">=&gt;10 5</text>
</g>
<!-- 10&#45;&gt;6 -->
<g id="edge45" class="edge">
<title>10&#45;&gt;6</title>
<path fill="none" stroke="#000000" d="M3075.38,-1385.69C3074.88,-1292.63 3068.08,-1015.32 3006,-956.23 2975.42,-927.13 2847.06,-966.87 2817,-937.23 2792,-912.57 2803.32,-815.08 2799,-780.23 2782.56,-647.53 2761.07,-490.48 2751.07,-418.24"/>
<polygon fill="#000000" stroke="#000000" points="2754.52,-417.64 2749.68,-408.21 2747.59,-418.6 2754.52,-417.64"/>
<text text-anchor="middle" x="2911.5" y="-1000.63" font-family="Times,serif" font-size="32.00">ε_16</text>
<text text-anchor="middle" x="2911.5" y="-965.63" font-family="Times,serif" font-size="32.00">=&gt;10 6</text>
</g>
<!-- z8 -->
<g id="node31" class="node">
<title>z8</title>
<ellipse fill="none" stroke="black" stroke-dasharray="5,2" cx="3294.65" cy="-1416.23" rx="27" ry="18"/>
</g>
<!-- z8&#45;&gt;10 -->
<g id="edge46" class="edge">
<title>z8&#45;&gt;10</title>
<path fill="none" stroke="#000000" d="M3267.56,-1416.23C3231.15,-1416.23 3164.63,-1416.23 3120.7,-1416.23"/>
<polygon fill="#000000" stroke="#000000" points="3120.6,-1412.73 3110.6,-1416.23 3120.6,-1419.73 3120.6,-1412.73"/>
<text text-anchor="middle" x="3198.15" y="-1460.63" font-family="Times,serif" font-size="32.00">doubt</text>
<text text-anchor="middle" x="3198.15" y="-1425.63" font-family="Times,serif" font-size="32.00">10</text>
</g>
</g>
</svg>
