<?xml version="1.0" encoding="UTF-8" standalone="no"?>
<!DOCTYPE svg PUBLIC "-//W3C//DTD SVG 1.1//EN"
 "http://www.w3.org/Graphics/SVG/1.1/DTD/svg11.dtd">
<!-- Generated by graphviz version 2.47.1 (20210417.1919)
 -->
<!-- Title: G Pages: 1 -->
<svg width="2737pt" height="2447pt"
 viewBox="0.00 0.00 2736.69 2446.63" xmlns="http://www.w3.org/2000/svg" xmlns:xlink="http://www.w3.org/1999/xlink">
<g id="graph0" class="graph" transform="scale(1 1) rotate(0) translate(4 2442.63)">
<title>G</title>
<polygon fill="white" stroke="transparent" points="-4,4 -4,-2442.63 2732.69,-2442.63 2732.69,4 -4,4"/>
<text text-anchor="middle" x="1364.34" y="-13.4" font-family="Times,serif" font-size="32.00">decomposition: boast =of 1, boast =of 4, boast 5, boast =about 1, boast =about 4, boastful =about a</text>
<!-- t -->
<g id="node1" class="node">
<title>t</title>
<ellipse fill="lightgray" stroke="black" cx="27" cy="-321.63" rx="27" ry="30.31"/>
<text text-anchor="middle" x="27" y="-313.53" font-family="Times,serif" font-size="32.00">t</text>
</g>
<!-- z0 -->
<g id="node2" class="node">
<title>z0</title>
<ellipse fill="none" stroke="black" stroke-dasharray="5,2" cx="2701.69" cy="-2205.63" rx="27" ry="18"/>
</g>
<!-- da -->
<g id="node3" class="node">
<title>da</title>
<ellipse fill="none" stroke="black" cx="2483.36" cy="-2205.63" rx="33.47" ry="30.31"/>
<text text-anchor="middle" x="2483.36" y="-2197.53" font-family="Times,serif" font-size="32.00">da</text>
</g>
<!-- z0&#45;&gt;da -->
<g id="edge1" class="edge">
<title>z0&#45;&gt;da</title>
<path fill="none" stroke="#000000" d="M2674.59,-2205.63C2637.97,-2205.63 2570.91,-2205.63 2526.98,-2205.63"/>
<polygon fill="#000000" stroke="#000000" points="2526.9,-2202.13 2516.89,-2205.63 2526.89,-2209.13 2526.9,-2202.13"/>
<text text-anchor="middle" x="2605.19" y="-2285.03" font-family="Times,serif" font-size="32.00">Mary |</text>
<text text-anchor="middle" x="2605.19" y="-2250.03" font-family="Times,serif" font-size="32.00"> John</text>
<text text-anchor="middle" x="2605.19" y="-2215.03" font-family="Times,serif" font-size="32.00">da &#45;k</text>
</g>
<!-- z1 -->
<g id="node4" class="node">
<title>z1</title>
<ellipse fill="none" stroke="black" stroke-dasharray="5,2" cx="2701.69" cy="-2333.63" rx="27" ry="18"/>
</g>
<!-- poss -->
<g id="node5" class="node">
<title>poss</title>
<ellipse fill="none" stroke="black" cx="2483.36" cy="-2333.63" rx="52.15" ry="30.31"/>
<text text-anchor="middle" x="2483.36" y="-2325.53" font-family="Times,serif" font-size="32.00">poss</text>
</g>
<!-- z1&#45;&gt;poss -->
<g id="edge2" class="edge">
<title>z1&#45;&gt;poss</title>
<path fill="none" stroke="#000000" d="M2674.59,-2333.63C2642.93,-2333.63 2588.5,-2333.63 2545.96,-2333.63"/>
<polygon fill="#000000" stroke="#000000" points="2545.7,-2330.13 2535.7,-2333.63 2545.7,-2337.13 2545.7,-2330.13"/>
<text text-anchor="middle" x="2605.19" y="-2413.03" font-family="Times,serif" font-size="32.00">Mary&#39;s |</text>
<text text-anchor="middle" x="2605.19" y="-2378.03" font-family="Times,serif" font-size="32.00"> John&#39;s</text>
<text text-anchor="middle" x="2605.19" y="-2343.03" font-family="Times,serif" font-size="32.00">poss</text>
</g>
<!-- z2 -->
<g id="node6" class="node">
<title>z2</title>
<ellipse fill="none" stroke="black" stroke-dasharray="5,2" cx="2112.54" cy="-1639.63" rx="27" ry="18"/>
</g>
<!-- d -->
<g id="node7" class="node">
<title>d</title>
<ellipse fill="none" stroke="black" cx="1710.04" cy="-905.63" rx="27" ry="30.31"/>
<text text-anchor="middle" x="1710.04" y="-897.53" font-family="Times,serif" font-size="32.00">d</text>
</g>
<!-- z2&#45;&gt;d -->
<g id="edge3" class="edge">
<title>z2&#45;&gt;d</title>
<path fill="none" stroke="#000000" d="M2086.8,-1634.17C2026.85,-1619.51 1873.83,-1573.16 1807.04,-1469.63 1750.64,-1382.22 1722.26,-1060.27 1713.81,-946.1"/>
<polygon fill="#000000" stroke="#000000" points="1717.29,-945.75 1713.08,-936.03 1710.31,-946.26 1717.29,-945.75"/>
<text text-anchor="middle" x="1904.04" y="-1651.03" font-family="Times,serif" font-size="32.00">the&#45;cause</text>
<text text-anchor="middle" x="1904.04" y="-1616.03" font-family="Times,serif" font-size="32.00">d &#45;k</text>
</g>
<!-- for -->
<g id="node8" class="node">
<title>for</title>
<ellipse fill="none" stroke="black" cx="1380.52" cy="-334.63" rx="37.45" ry="30.31"/>
<text text-anchor="middle" x="1380.52" y="-326.53" font-family="Times,serif" font-size="32.00">for</text>
</g>
<!-- d&#45;&gt;for -->
<g id="edge4" class="edge">
<title>d&#45;&gt;for</title>
<path fill="none" stroke="#000000" d="M1685.85,-891.97C1668.26,-880.44 1644.83,-862.35 1631.04,-840.63 1614.05,-813.87 1636.87,-792.51 1613.04,-771.63 1561.5,-726.47 1507.2,-802.34 1460.04,-752.63 1440.64,-732.18 1447.95,-527.18 1442.04,-499.63 1432.34,-454.42 1412.92,-404.91 1398.68,-372.04"/>
<polygon fill="#000000" stroke="#000000" points="1401.85,-370.56 1394.63,-362.81 1395.44,-373.38 1401.85,-370.56"/>
<text text-anchor="middle" x="1536.54" y="-816.03" font-family="Times,serif" font-size="32.00">for</text>
<text text-anchor="middle" x="1536.54" y="-781.03" font-family="Times,serif" font-size="32.00">=d *k for</text>
</g>
<!-- of -->
<g id="node9" class="node">
<title>of</title>
<ellipse fill="none" stroke="black" cx="1380.52" cy="-757.63" rx="30.31" ry="30.31"/>
<text text-anchor="middle" x="1380.52" y="-749.53" font-family="Times,serif" font-size="32.00">of</text>
</g>
<!-- d&#45;&gt;of -->
<g id="edge5" class="edge">
<title>d&#45;&gt;of</title>
<path fill="none" stroke="#000000" d="M1685.24,-893.24C1666.21,-883.89 1638.58,-871.52 1613.04,-864.63 1546.88,-846.77 1520.72,-877.45 1460.04,-845.63 1436.5,-833.29 1416.65,-810.84 1402.79,-791.7"/>
<polygon fill="#000000" stroke="#000000" points="1405.64,-789.67 1397.04,-783.47 1399.9,-793.67 1405.64,-789.67"/>
<text text-anchor="middle" x="1536.54" y="-909.03" font-family="Times,serif" font-size="32.00">of</text>
<text text-anchor="middle" x="1536.54" y="-874.03" font-family="Times,serif" font-size="32.00">=d *k of</text>
</g>
<!-- about -->
<g id="node10" class="node">
<title>about</title>
<ellipse fill="none" stroke="black" cx="1380.52" cy="-960.63" rx="61.54" ry="30.31"/>
<text text-anchor="middle" x="1380.52" y="-952.53" font-family="Times,serif" font-size="32.00">about</text>
</g>
<!-- d&#45;&gt;about -->
<g id="edge6" class="edge">
<title>d&#45;&gt;about</title>
<path fill="none" stroke="#000000" d="M1684.23,-915.97C1665.12,-923.49 1637.84,-933.26 1613.04,-938.63 1559.84,-950.13 1498.47,-955.62 1452.29,-958.24"/>
<polygon fill="#000000" stroke="#000000" points="1451.88,-954.75 1442.08,-958.78 1452.25,-961.74 1451.88,-954.75"/>
<text text-anchor="middle" x="1536.54" y="-1002.03" font-family="Times,serif" font-size="32.00">about</text>
<text text-anchor="middle" x="1536.54" y="-967.03" font-family="Times,serif" font-size="32.00">=d *k about</text>
</g>
<!-- 3 -->
<g id="node18" class="node">
<title>3</title>
<ellipse fill="none" stroke="black" cx="2483.36" cy="-252.63" rx="27" ry="30.31"/>
<text text-anchor="middle" x="2483.36" y="-244.53" font-family="Times,serif" font-size="32.00">3</text>
</g>
<!-- for&#45;&gt;3 -->
<g id="edge20" class="edge">
<title>for&#45;&gt;3</title>
<path fill="none" stroke="#000000" d="M1409.46,-314.92C1423.97,-305.47 1442.33,-294.7 1460.04,-287.63 1606.82,-228.96 1649.93,-227.07 1807.04,-209.63 2050.63,-182.59 2345.68,-228.17 2446.56,-245.97"/>
<polygon fill="#000000" stroke="#000000" points="2446.07,-249.44 2456.52,-247.76 2447.3,-242.55 2446.07,-249.44"/>
<text text-anchor="middle" x="1904.04" y="-254.03" font-family="Times,serif" font-size="32.00">hope</text>
<text text-anchor="middle" x="1904.04" y="-219.03" font-family="Times,serif" font-size="32.00">=for 3</text>
</g>
<!-- 4 -->
<g id="node19" class="node">
<title>4</title>
<ellipse fill="none" stroke="black" cx="2112.54" cy="-905.63" rx="27" ry="30.31"/>
<text text-anchor="middle" x="2112.54" y="-897.53" font-family="Times,serif" font-size="32.00">4</text>
</g>
<!-- of&#45;&gt;4 -->
<g id="edge34" class="edge">
<title>of&#45;&gt;4</title>
<path fill="none" stroke="#000000" d="M1395.14,-730.85C1408.32,-708.13 1430.62,-677 1460.04,-662.63 1591.42,-598.4 1650.58,-610.55 1789.04,-657.63 1918.42,-701.62 2036.45,-820.78 2086.38,-876.35"/>
<polygon fill="#000000" stroke="#000000" points="2083.99,-878.93 2093.25,-884.07 2089.22,-874.28 2083.99,-878.93"/>
<text text-anchor="middle" x="1710.04" y="-737.03" font-family="Times,serif" font-size="32.00">fear_1 |</text>
<text text-anchor="middle" x="1710.04" y="-702.03" font-family="Times,serif" font-size="32.00"> scorn_1</text>
<text text-anchor="middle" x="1710.04" y="-667.03" font-family="Times,serif" font-size="32.00">=of 4</text>
</g>
<!-- 0 -->
<g id="node11" class="node">
<title>0</title>
<ellipse fill="none" stroke="black" cx="229" cy="-321.63" rx="27" ry="30.31"/>
<text text-anchor="middle" x="229" y="-313.53" font-family="Times,serif" font-size="32.00">0</text>
</g>
<!-- 0&#45;&gt;t -->
<g id="edge7" class="edge">
<title>0&#45;&gt;t</title>
<path fill="none" stroke="#000000" d="M201.85,-321.63C166.67,-321.63 103.92,-321.63 64.21,-321.63"/>
<polygon fill="#000000" stroke="#000000" points="64.15,-318.13 54.15,-321.63 64.15,-325.13 64.15,-318.13"/>
<text text-anchor="middle" x="128" y="-401.03" font-family="Times,serif" font-size="32.00">s |</text>
<text text-anchor="middle" x="128" y="-366.03" font-family="Times,serif" font-size="32.00"> d</text>
<text text-anchor="middle" x="128" y="-331.03" font-family="Times,serif" font-size="32.00">=&gt;0 +k t</text>
</g>
<!-- 1 -->
<g id="node12" class="node">
<title>1</title>
<ellipse fill="none" stroke="black" cx="1380.52" cy="-538.63" rx="27" ry="30.31"/>
<text text-anchor="middle" x="1380.52" y="-530.53" font-family="Times,serif" font-size="32.00">1</text>
</g>
<!-- 2 -->
<g id="node13" class="node">
<title>2</title>
<ellipse fill="none" stroke="black" cx="1123" cy="-538.63" rx="27" ry="30.31"/>
<text text-anchor="middle" x="1123" y="-530.53" font-family="Times,serif" font-size="32.00">2</text>
</g>
<!-- 1&#45;&gt;2 -->
<g id="edge8" class="edge">
<title>1&#45;&gt;2</title>
<path fill="none" stroke="#000000" d="M1353.14,-538.63C1307.21,-538.63 1212.5,-538.63 1160.38,-538.63"/>
<polygon fill="#000000" stroke="#000000" points="1160.24,-535.13 1150.24,-538.63 1160.24,-542.13 1160.24,-535.13"/>
<text text-anchor="middle" x="1234.5" y="-583.03" font-family="Times,serif" font-size="32.00">ε_0</text>
<text text-anchor="middle" x="1234.5" y="-548.03" font-family="Times,serif" font-size="32.00">=&gt;1 =da 2</text>
</g>
<!-- v -->
<g id="node15" class="node">
<title>v</title>
<ellipse fill="none" stroke="black" cx="395" cy="-414.63" rx="27" ry="30.31"/>
<text text-anchor="middle" x="395" y="-406.53" font-family="Times,serif" font-size="32.00">v</text>
</g>
<!-- 2&#45;&gt;v -->
<g id="edge10" class="edge">
<title>2&#45;&gt;v</title>
<path fill="none" stroke="#000000" d="M1096.22,-542.53C1014.9,-553.85 757.4,-582.25 558,-521.63 505.6,-505.7 454.46,-466.89 424.08,-440.65"/>
<polygon fill="#000000" stroke="#000000" points="426.28,-437.92 416.45,-433.95 421.65,-443.18 426.28,-437.92"/>
<text text-anchor="middle" x="744" y="-603.03" font-family="Times,serif" font-size="32.00">ε_1</text>
<text text-anchor="middle" x="744" y="-568.03" font-family="Times,serif" font-size="32.00">=&gt;2 v</text>
</g>
<!-- perf -->
<g id="node16" class="node">
<title>perf</title>
<ellipse fill="none" stroke="black" cx="608" cy="-355.63" rx="48.17" ry="30.31"/>
<text text-anchor="middle" x="608" y="-347.53" font-family="Times,serif" font-size="32.00">perf</text>
</g>
<!-- 2&#45;&gt;perf -->
<g id="edge11" class="edge">
<title>2&#45;&gt;perf</title>
<path fill="none" stroke="#000000" d="M1099.24,-553.26C1026.98,-597.72 800.26,-721.5 676,-609.63 647.6,-584.06 669.99,-474.91 658,-438.63 652.57,-422.18 643.51,-405.46 634.66,-391.38"/>
<polygon fill="#000000" stroke="#000000" points="637.59,-389.46 629.21,-382.98 631.72,-393.28 637.59,-389.46"/>
<text text-anchor="middle" x="886" y="-699.03" font-family="Times,serif" font-size="32.00">n</text>
<text text-anchor="middle" x="886" y="-664.03" font-family="Times,serif" font-size="32.00">=&gt;2 perf</text>
</g>
<!-- prog -->
<g id="node17" class="node">
<title>prog</title>
<ellipse fill="none" stroke="black" cx="886" cy="-397.63" rx="52.15" ry="30.31"/>
<text text-anchor="middle" x="886" y="-389.53" font-family="Times,serif" font-size="32.00">prog</text>
</g>
<!-- 2&#45;&gt;prog -->
<g id="edge12" class="edge">
<title>2&#45;&gt;prog</title>
<path fill="none" stroke="#000000" d="M1113.45,-509.94C1106.62,-491.68 1095.28,-468.86 1078,-454.63 1041.19,-424.3 988.66,-410.11 948,-403.46"/>
<polygon fill="#000000" stroke="#000000" points="948.35,-399.98 937.93,-401.93 947.29,-406.9 948.35,-399.98"/>
<text text-anchor="middle" x="1019" y="-499.03" font-family="Times,serif" font-size="32.00">ing</text>
<text text-anchor="middle" x="1019" y="-464.03" font-family="Times,serif" font-size="32.00">=&gt;2 prog</text>
</g>
<!-- a -->
<g id="node14" class="node">
<title>a</title>
<ellipse fill="none" stroke="black" cx="1710.04" cy="-801.63" rx="27" ry="30.31"/>
<text text-anchor="middle" x="1710.04" y="-793.53" font-family="Times,serif" font-size="32.00">a</text>
</g>
<!-- a&#45;&gt;1 -->
<g id="edge9" class="edge">
<title>a&#45;&gt;1</title>
<path fill="none" stroke="#000000" d="M1683.95,-793.56C1666.56,-786.7 1644.24,-775.13 1631.04,-757.63 1610.39,-730.26 1633.09,-710.43 1613.04,-682.63 1562.8,-612.99 1467.51,-569.74 1416.24,-550.44"/>
<polygon fill="#000000" stroke="#000000" points="1417.19,-547.06 1406.6,-546.9 1414.78,-553.64 1417.19,-547.06"/>
<text text-anchor="middle" x="1536.54" y="-727.03" font-family="Times,serif" font-size="32.00">be</text>
<text text-anchor="middle" x="1536.54" y="-692.03" font-family="Times,serif" font-size="32.00">=a 1</text>
</g>
<!-- v&#45;&gt;0 -->
<g id="edge13" class="edge">
<title>v&#45;&gt;0</title>
<path fill="none" stroke="#000000" d="M388.46,-385.06C382.75,-363.71 371.51,-336.31 350,-322.63 325.12,-306.8 291.09,-308.17 265.61,-312.55"/>
<polygon fill="#000000" stroke="#000000" points="264.76,-309.15 255.62,-314.5 266.1,-316.02 264.76,-309.15"/>
<text text-anchor="middle" x="312" y="-367.03" font-family="Times,serif" font-size="32.00">will</text>
<text text-anchor="middle" x="312" y="-332.03" font-family="Times,serif" font-size="32.00">=v 0</text>
</g>
<!-- v&#45;&gt;0 -->
<g id="edge15" class="edge">
<title>v&#45;&gt;0</title>
<path fill="none" stroke="#000000" d="M367.84,-415.72C341.87,-415.54 302,-411.72 274,-392.63 261.66,-384.21 252.13,-371.07 245.14,-358.38"/>
<polygon fill="#000000" stroke="#000000" points="248.16,-356.6 240.5,-349.28 241.93,-359.78 248.16,-356.6"/>
<text text-anchor="middle" x="312" y="-460.03" font-family="Times,serif" font-size="32.00">ε_2</text>
<text text-anchor="middle" x="312" y="-425.03" font-family="Times,serif" font-size="32.00">=&gt;v 0</text>
</g>
<!-- perf&#45;&gt;v -->
<g id="edge14" class="edge">
<title>perf&#45;&gt;v</title>
<path fill="none" stroke="#000000" d="M562.33,-345.59C527.19,-340.04 477.99,-337.62 440,-356.63 429.7,-361.78 421.16,-370.61 414.43,-379.85"/>
<polygon fill="#000000" stroke="#000000" points="411.39,-378.09 408.76,-388.36 417.22,-381.98 411.39,-378.09"/>
<text text-anchor="middle" x="490" y="-401.03" font-family="Times,serif" font-size="32.00">have</text>
<text text-anchor="middle" x="490" y="-366.03" font-family="Times,serif" font-size="32.00">=perf v</text>
</g>
<!-- prog&#45;&gt;0 -->
<g id="edge16" class="edge">
<title>prog&#45;&gt;0</title>
<path fill="none" stroke="#000000" d="M856.48,-372.17C843.63,-361.78 827.8,-350.4 812,-342.63 660.68,-268.15 607.54,-248.21 440,-267.63 376.95,-274.93 305.87,-296.04 264.67,-309.6"/>
<polygon fill="#000000" stroke="#000000" points="263.49,-306.3 255.12,-312.78 265.71,-312.94 263.49,-306.3"/>
<text text-anchor="middle" x="490" y="-312.03" font-family="Times,serif" font-size="32.00">be_1</text>
<text text-anchor="middle" x="490" y="-277.03" font-family="Times,serif" font-size="32.00">=prog 0</text>
</g>
<!-- prog&#45;&gt;v -->
<g id="edge17" class="edge">
<title>prog&#45;&gt;v</title>
<path fill="none" stroke="#000000" d="M844.89,-416.69C834.42,-420.79 822.98,-424.53 812,-426.63 649.61,-457.7 603.87,-448.57 440,-426.63 437.13,-426.24 434.18,-425.72 431.24,-425.12"/>
<polygon fill="#000000" stroke="#000000" points="431.89,-421.67 421.36,-422.77 430.28,-428.49 431.89,-421.67"/>
<text text-anchor="middle" x="608" y="-492.03" font-family="Times,serif" font-size="32.00">be_2</text>
<text text-anchor="middle" x="608" y="-457.03" font-family="Times,serif" font-size="32.00">=prog v</text>
</g>
<!-- prog&#45;&gt;perf -->
<g id="edge18" class="edge">
<title>prog&#45;&gt;perf</title>
<path fill="none" stroke="#000000" d="M852.01,-374.43C839.98,-367.27 825.91,-360.3 812,-356.63 763.78,-343.89 706.84,-344.93 665.56,-348.4"/>
<polygon fill="#000000" stroke="#000000" points="665.05,-344.93 655.42,-349.33 665.69,-351.91 665.05,-344.93"/>
<text text-anchor="middle" x="744" y="-401.03" font-family="Times,serif" font-size="32.00">ben</text>
<text text-anchor="middle" x="744" y="-366.03" font-family="Times,serif" font-size="32.00">=prog perf</text>
</g>
<!-- 3&#45;&gt;1 -->
<g id="edge19" class="edge">
<title>3&#45;&gt;1</title>
<path fill="none" stroke="#000000" d="M2456.35,-254.07C2340.1,-260.57 1871.12,-287.54 1807.04,-302.63 1644.83,-340.81 1594.52,-346.23 1460.04,-444.63 1437.31,-461.25 1417.09,-485.83 1402.86,-505.68"/>
<polygon fill="#000000" stroke="#000000" points="1399.81,-503.94 1396.95,-514.14 1405.55,-507.95 1399.81,-503.94"/>
<text text-anchor="middle" x="1904.04" y="-347.03" font-family="Times,serif" font-size="32.00">ε_3</text>
<text text-anchor="middle" x="1904.04" y="-312.03" font-family="Times,serif" font-size="32.00">=&gt;3 1</text>
</g>
<!-- 3&#45;&gt;a -->
<g id="edge23" class="edge">
<title>3&#45;&gt;a</title>
<path fill="none" stroke="#000000" d="M2464.12,-231.27C2451.34,-218.01 2433.02,-202.11 2413.04,-194.63 2160.76,-100.23 2000.43,0.86 1807.04,-186.63 1760.74,-231.51 1824.91,-713.05 1789.04,-766.63 1779.49,-780.89 1762.64,-789.41 1747.05,-794.47"/>
<polygon fill="#000000" stroke="#000000" points="1745.72,-791.2 1737.07,-797.31 1747.64,-797.93 1745.72,-791.2"/>
<text text-anchor="middle" x="2112.54" y="-158.03" font-family="Times,serif" font-size="32.00">ful</text>
<text text-anchor="middle" x="2112.54" y="-123.03" font-family="Times,serif" font-size="32.00">=&gt;3 a</text>
</g>
<!-- 3&#45;&gt;4 -->
<g id="edge22" class="edge">
<title>3&#45;&gt;4</title>
<path fill="none" stroke="#000000" d="M2459.79,-268.09C2446.34,-277.18 2428.86,-288.79 2413.04,-298.63 2330.51,-349.96 2279.39,-328.74 2224.04,-408.63 2196.82,-447.9 2215.54,-467.8 2206.04,-514.63 2179.72,-644.29 2141.62,-796.45 2123.65,-866.6"/>
<polygon fill="#000000" stroke="#000000" points="2120.24,-865.78 2121.15,-876.34 2127.02,-867.52 2120.24,-865.78"/>
<text text-anchor="middle" x="2318.54" y="-453.03" font-family="Times,serif" font-size="32.00">ε_5</text>
<text text-anchor="middle" x="2318.54" y="-418.03" font-family="Times,serif" font-size="32.00">=&gt;3 4</text>
</g>
<!-- 4&#45;&gt;d -->
<g id="edge21" class="edge">
<title>4&#45;&gt;d</title>
<path fill="none" stroke="#000000" d="M2085.26,-905.63C2015.73,-905.63 1826.81,-905.63 1747.19,-905.63"/>
<polygon fill="#000000" stroke="#000000" points="1747.15,-902.13 1737.15,-905.63 1747.15,-909.13 1747.15,-902.13"/>
<text text-anchor="middle" x="1904.04" y="-950.03" font-family="Times,serif" font-size="32.00">ε_4</text>
<text text-anchor="middle" x="1904.04" y="-915.03" font-family="Times,serif" font-size="32.00">=&gt;4 poss= d &#45;k</text>
</g>
<!-- 5 -->
<g id="node20" class="node">
<title>5</title>
<ellipse fill="none" stroke="black" cx="2483.36" cy="-482.63" rx="27" ry="30.31"/>
<text text-anchor="middle" x="2483.36" y="-474.53" font-family="Times,serif" font-size="32.00">5</text>
</g>
<!-- 5&#45;&gt;1 -->
<g id="edge24" class="edge">
<title>5&#45;&gt;1</title>
<path fill="none" stroke="#f7931d" stroke-width="2" d="M2457.31,-473.72C2407.86,-457.86 2296.27,-430.72 2224.04,-479.63 2206.2,-491.7 2223.77,-512.4 2206.04,-524.63 2076.24,-614.12 1559.53,-559.99 1417.69,-543.12"/>
<polygon fill="#f7931d" stroke="#f7931d" stroke-width="2" points="1418.11,-539.65 1407.76,-541.93 1417.27,-546.6 1418.11,-539.65"/>
<text text-anchor="middle" x="1904.04" y="-620.03" font-family="Times,serif" font-size="32.00">ε_6</text>
<text text-anchor="middle" x="1904.04" y="-585.03" font-family="Times,serif" font-size="32.00">=&gt;5 =of 1</text>
</g>
<!-- 5&#45;&gt;1 -->
<g id="edge29" class="edge">
<title>5&#45;&gt;1</title>
<path fill="none" stroke="#f7931d" stroke-width="2" d="M2459.16,-468.34C2446.08,-460.95 2429.17,-452.49 2413.04,-447.63 2154.34,-369.59 2073.84,-355.86 1807.04,-398.63 1655.95,-422.84 1485.76,-492.53 1415.07,-523.49"/>
<polygon fill="#f7931d" stroke="#f7931d" stroke-width="2" points="1413.51,-520.35 1405.77,-527.59 1416.33,-526.76 1413.51,-520.35"/>
<text text-anchor="middle" x="1904.04" y="-443.03" font-family="Times,serif" font-size="32.00">ε_9</text>
<text text-anchor="middle" x="1904.04" y="-408.03" font-family="Times,serif" font-size="32.00">=&gt;5 =about 1</text>
</g>
<!-- 5&#45;&gt;a -->
<g id="edge31" class="edge">
<title>5&#45;&gt;a</title>
<path fill="none" stroke="#f7931d" stroke-width="2" d="M2458.36,-470.27C2445.33,-464.26 2428.71,-457.67 2413.04,-454.63 2346.59,-441.72 1853.05,-466.99 1807.04,-516.63 1769.17,-557.47 1820.97,-720.99 1789.04,-766.63 1779.2,-780.69 1762.32,-789.19 1746.79,-794.29"/>
<polygon fill="#f7931d" stroke="#f7931d" stroke-width="2" points="1745.48,-791.02 1736.85,-797.17 1747.43,-797.74 1745.48,-791.02"/>
<text text-anchor="middle" x="2112.54" y="-515.03" font-family="Times,serif" font-size="32.00">ful_2</text>
<text text-anchor="middle" x="2112.54" y="-480.03" font-family="Times,serif" font-size="32.00">=&gt;5 =about a</text>
</g>
<!-- 5&#45;&gt;4 -->
<g id="edge26" class="edge">
<title>5&#45;&gt;4</title>
<path fill="none" stroke="#f7931d" stroke-width="2" d="M2469.08,-508.57C2457.26,-528.79 2437.99,-555.68 2413.04,-569.63 2339.17,-610.9 2290.03,-539.67 2224.04,-592.63 2139.78,-660.24 2119.67,-796.68 2114.94,-864.88"/>
<polygon fill="#f7931d" stroke="#f7931d" stroke-width="2" points="2111.42,-865.03 2114.3,-875.22 2118.41,-865.46 2111.42,-865.03"/>
<text text-anchor="middle" x="2318.54" y="-637.03" font-family="Times,serif" font-size="32.00">ε_7</text>
<text text-anchor="middle" x="2318.54" y="-602.03" font-family="Times,serif" font-size="32.00">=&gt;5 =of 4</text>
</g>
<!-- 5&#45;&gt;4 -->
<g id="edge30" class="edge">
<title>5&#45;&gt;4</title>
<path fill="none" stroke="#f7931d" stroke-width="2" d="M2456.01,-482.23C2393.82,-481.53 2241.77,-481.32 2224.04,-495.63 2220.32,-498.62 2150.28,-765.19 2123.67,-866.84"/>
<polygon fill="#f7931d" stroke="#f7931d" stroke-width="2" points="2120.23,-866.16 2121.09,-876.72 2127.01,-867.93 2120.23,-866.16"/>
<text text-anchor="middle" x="2318.54" y="-540.03" font-family="Times,serif" font-size="32.00">ε_10</text>
<text text-anchor="middle" x="2318.54" y="-505.03" font-family="Times,serif" font-size="32.00">=&gt;5 =about 4</text>
</g>
<!-- 6 -->
<g id="node22" class="node">
<title>6</title>
<ellipse fill="none" stroke="black" cx="2112.54" cy="-998.63" rx="27" ry="30.31"/>
<text text-anchor="middle" x="2112.54" y="-990.53" font-family="Times,serif" font-size="32.00">6</text>
</g>
<!-- 5&#45;&gt;6 -->
<g id="edge28" class="edge">
<title>5&#45;&gt;6</title>
<path fill="none" stroke="#f7931d" stroke-width="2" d="M2479.82,-512.85C2474.68,-553.64 2459.21,-625.46 2413.04,-662.63 2346.83,-715.91 2281.64,-629.14 2224.04,-691.63 2185.83,-733.07 2235.82,-896.77 2206.04,-944.63 2193.06,-965.48 2168.85,-979.19 2148.45,-987.58"/>
<polygon fill="#f7931d" stroke="#f7931d" stroke-width="2" points="2147.19,-984.31 2139.11,-991.17 2149.7,-990.85 2147.19,-984.31"/>
<text text-anchor="middle" x="2318.54" y="-736.03" font-family="Times,serif" font-size="32.00">ε_8</text>
<text text-anchor="middle" x="2318.54" y="-701.03" font-family="Times,serif" font-size="32.00">=&gt;5 6</text>
</g>
<!-- z3 -->
<g id="node21" class="node">
<title>z3</title>
<ellipse fill="none" stroke="black" stroke-dasharray="5,2" cx="2701.69" cy="-482.63" rx="27" ry="18"/>
</g>
<!-- z3&#45;&gt;5 -->
<g id="edge25" class="edge">
<title>z3&#45;&gt;5</title>
<path fill="none" stroke="#f7931d" stroke-width="2" d="M2674.59,-482.63C2636.18,-482.63 2564.27,-482.63 2520.71,-482.63"/>
<polygon fill="#f7931d" stroke="#f7931d" stroke-width="2" points="2520.55,-479.13 2510.55,-482.63 2520.55,-486.13 2520.55,-479.13"/>
<text text-anchor="middle" x="2605.19" y="-527.03" font-family="Times,serif" font-size="32.00">boast</text>
<text text-anchor="middle" x="2605.19" y="-492.03" font-family="Times,serif" font-size="32.00">5</text>
</g>
<!-- 6&#45;&gt;a -->
<g id="edge27" class="edge">
<title>6&#45;&gt;a</title>
<path fill="none" stroke="#000000" d="M2086.3,-1005.97C2028.55,-1021.07 1885.68,-1048.49 1807.04,-976.63 1770.47,-943.21 1813.61,-909.64 1789.04,-866.63 1778.19,-847.64 1759.54,-831.8 1743.2,-820.5"/>
<polygon fill="#000000" stroke="#000000" points="1744.7,-817.3 1734.42,-814.71 1740.84,-823.14 1744.7,-817.3"/>
<text text-anchor="middle" x="1904.04" y="-1069.03" font-family="Times,serif" font-size="32.00">ful_1</text>
<text text-anchor="middle" x="1904.04" y="-1034.03" font-family="Times,serif" font-size="32.00">=&gt;6 =of a</text>
</g>
<!-- 7 -->
<g id="node23" class="node">
<title>7</title>
<ellipse fill="none" stroke="black" cx="2112.54" cy="-1573.63" rx="27" ry="30.31"/>
<text text-anchor="middle" x="2112.54" y="-1565.53" font-family="Times,serif" font-size="32.00">7</text>
</g>
<!-- 7&#45;&gt;1 -->
<g id="edge32" class="edge">
<title>7&#45;&gt;1</title>
<path fill="none" stroke="#000000" d="M2087.13,-1562.65C1986.84,-1516.06 1604.98,-1323.51 1460.04,-1031.63 1429.05,-969.23 1455.26,-787.03 1442.04,-718.63 1432.17,-667.59 1411.5,-611.14 1397.08,-575.3"/>
<polygon fill="#000000" stroke="#000000" points="1400.21,-573.7 1393.19,-565.76 1393.72,-576.34 1400.21,-573.7"/>
<text text-anchor="middle" x="1710.04" y="-1427.03" font-family="Times,serif" font-size="32.00">ε_11</text>
<text text-anchor="middle" x="1710.04" y="-1392.03" font-family="Times,serif" font-size="32.00">=&gt;7 =d *k 1</text>
</g>
<!-- z4 -->
<g id="node24" class="node">
<title>z4</title>
<ellipse fill="none" stroke="black" stroke-dasharray="5,2" cx="2483.36" cy="-2139.63" rx="27" ry="18"/>
</g>
<!-- z4&#45;&gt;7 -->
<g id="edge33" class="edge">
<title>z4&#45;&gt;7</title>
<path fill="none" stroke="#000000" d="M2458.04,-2146.58C2406.36,-2159.7 2285.38,-2181.32 2224.04,-2116.63 2185.48,-2075.97 2237.85,-1658.76 2206.04,-1612.63 2193.17,-1593.97 2169.51,-1584.21 2149.34,-1579.11"/>
<polygon fill="#000000" stroke="#000000" points="2150.01,-1575.67 2139.48,-1576.91 2148.48,-1582.51 2150.01,-1575.67"/>
<text text-anchor="middle" x="2318.54" y="-2240.03" font-family="Times,serif" font-size="32.00">fear |</text>
<text text-anchor="middle" x="2318.54" y="-2205.03" font-family="Times,serif" font-size="32.00"> scorn</text>
<text text-anchor="middle" x="2318.54" y="-2170.03" font-family="Times,serif" font-size="32.00">7</text>
</g>
<!-- z5 -->
<g id="node25" class="node">
<title>z5</title>
<ellipse fill="none" stroke="black" stroke-dasharray="5,2" cx="2483.36" cy="-777.63" rx="27" ry="18"/>
</g>
<!-- z5&#45;&gt;6 -->
<g id="edge35" class="edge">
<title>z5&#45;&gt;6</title>
<path fill="none" stroke="#000000" d="M2456.75,-774.29C2398.25,-767.27 2257.33,-754.05 2224.04,-784.63 2197.69,-808.83 2225.56,-914.64 2206.04,-944.63 2192.69,-965.12 2168.66,-978.8 2148.43,-987.27"/>
<polygon fill="#000000" stroke="#000000" points="2146.9,-984.11 2138.87,-991.01 2149.46,-990.63 2146.9,-984.11"/>
<text text-anchor="middle" x="2318.54" y="-864.03" font-family="Times,serif" font-size="32.00">fear_2 |</text>
<text text-anchor="middle" x="2318.54" y="-829.03" font-family="Times,serif" font-size="32.00"> scorn_2</text>
<text text-anchor="middle" x="2318.54" y="-794.03" font-family="Times,serif" font-size="32.00">6</text>
</g>
<!-- 8 -->
<g id="node26" class="node">
<title>8</title>
<ellipse fill="none" stroke="black" cx="2483.36" cy="-1953.63" rx="27" ry="30.31"/>
<text text-anchor="middle" x="2483.36" y="-1945.53" font-family="Times,serif" font-size="32.00">8</text>
</g>
<!-- 8&#45;&gt;4 -->
<g id="edge38" class="edge">
<title>8&#45;&gt;4</title>
<path fill="none" stroke="#000000" d="M2470.7,-1926.76C2459.41,-1904.26 2440.03,-1873.37 2413.04,-1857.63 2376.53,-1836.34 2252.54,-1867.82 2224.04,-1836.63 2191.16,-1800.65 2230.73,-1001.64 2206.04,-959.63 2193.51,-938.32 2169.05,-924.58 2148.42,-916.29"/>
<polygon fill="#000000" stroke="#000000" points="2149.57,-912.98 2138.98,-912.76 2147.12,-919.54 2149.57,-912.98"/>
<text text-anchor="middle" x="2318.54" y="-1902.03" font-family="Times,serif" font-size="32.00">ε_13</text>
<text text-anchor="middle" x="2318.54" y="-1867.03" font-family="Times,serif" font-size="32.00">=&gt;8 =of 4</text>
</g>
<!-- 8&#45;&gt;6 -->
<g id="edge39" class="edge">
<title>8&#45;&gt;6</title>
<path fill="none" stroke="#000000" d="M2456.17,-1952.33C2392.07,-1949.02 2231.97,-1939.96 2224.04,-1931.63 2204.94,-1911.58 2209.43,-1461.1 2206.04,-1433.63 2187.74,-1285.43 2144.3,-1112.87 2124.14,-1037.35"/>
<polygon fill="#000000" stroke="#000000" points="2127.43,-1036.1 2121.46,-1027.35 2120.67,-1037.92 2127.43,-1036.1"/>
<text text-anchor="middle" x="2318.54" y="-1995.03" font-family="Times,serif" font-size="32.00">ε_14</text>
<text text-anchor="middle" x="2318.54" y="-1960.03" font-family="Times,serif" font-size="32.00">=&gt;8 6</text>
</g>
<!-- 8&#45;&gt;7 -->
<g id="edge36" class="edge">
<title>8&#45;&gt;7</title>
<path fill="none" stroke="#000000" d="M2466.78,-1977.68C2454.45,-1994.32 2435.58,-2015.13 2413.04,-2024.63 2374.33,-2040.93 2254.38,-2053.67 2224.04,-2024.63 2190.94,-1992.94 2232.2,-1650.24 2206.04,-1612.63 2193.1,-1594.02 2169.44,-1584.26 2149.29,-1579.15"/>
<polygon fill="#000000" stroke="#000000" points="2149.97,-1575.71 2139.44,-1576.94 2148.43,-1582.54 2149.97,-1575.71"/>
<text text-anchor="middle" x="2318.54" y="-2087.03" font-family="Times,serif" font-size="32.00">ε_12</text>
<text text-anchor="middle" x="2318.54" y="-2052.03" font-family="Times,serif" font-size="32.00">=&gt;8 7</text>
</g>
<!-- z6 -->
<g id="node27" class="node">
<title>z6</title>
<ellipse fill="none" stroke="black" stroke-dasharray="5,2" cx="2701.69" cy="-1953.63" rx="27" ry="18"/>
</g>
<!-- z6&#45;&gt;8 -->
<g id="edge37" class="edge">
<title>z6&#45;&gt;8</title>
<path fill="none" stroke="#000000" d="M2674.59,-1953.63C2636.18,-1953.63 2564.27,-1953.63 2520.71,-1953.63"/>
<polygon fill="#000000" stroke="#000000" points="2520.55,-1950.13 2510.55,-1953.63 2520.55,-1957.13 2520.55,-1950.13"/>
<text text-anchor="middle" x="2605.19" y="-1998.03" font-family="Times,serif" font-size="32.00">neglect</text>
<text text-anchor="middle" x="2605.19" y="-1963.03" font-family="Times,serif" font-size="32.00">8</text>
</g>
<!-- 9 -->
<g id="node28" class="node">
<title>9</title>
<ellipse fill="none" stroke="black" cx="2483.36" cy="-1674.63" rx="27" ry="30.31"/>
<text text-anchor="middle" x="2483.36" y="-1666.53" font-family="Times,serif" font-size="32.00">9</text>
</g>
<!-- 9&#45;&gt;4 -->
<g id="edge42" class="edge">
<title>9&#45;&gt;4</title>
<path fill="none" stroke="#000000" d="M2470.74,-1647.69C2459.47,-1625.15 2440.11,-1594.23 2413.04,-1578.63 2376.46,-1557.55 2252.82,-1590.5 2224.04,-1559.63 2178.56,-1510.84 2240.11,-1016.96 2206.04,-959.63 2193.41,-938.37 2168.95,-924.63 2148.35,-916.33"/>
<polygon fill="#000000" stroke="#000000" points="2149.51,-913.03 2138.92,-912.79 2147.05,-919.58 2149.51,-913.03"/>
<text text-anchor="middle" x="2318.54" y="-1623.03" font-family="Times,serif" font-size="32.00">ε_16</text>
<text text-anchor="middle" x="2318.54" y="-1588.03" font-family="Times,serif" font-size="32.00">=&gt;9 =for 4</text>
</g>
<!-- 9&#45;&gt;6 -->
<g id="edge43" class="edge">
<title>9&#45;&gt;6</title>
<path fill="none" stroke="#000000" d="M2456.19,-1673.3C2392.15,-1669.94 2232.16,-1660.77 2224.04,-1652.63 2206.8,-1635.34 2209.58,-1457.78 2206.04,-1433.63 2184.37,-1286.07 2142.74,-1113.52 2123.6,-1037.71"/>
<polygon fill="#000000" stroke="#000000" points="2126.91,-1036.5 2121.06,-1027.67 2120.12,-1038.22 2126.91,-1036.5"/>
<text text-anchor="middle" x="2318.54" y="-1716.03" font-family="Times,serif" font-size="32.00">ε_17</text>
<text text-anchor="middle" x="2318.54" y="-1681.03" font-family="Times,serif" font-size="32.00">=&gt;9 6</text>
</g>
<!-- 9&#45;&gt;7 -->
<g id="edge40" class="edge">
<title>9&#45;&gt;7</title>
<path fill="none" stroke="#000000" d="M2466.78,-1698.68C2454.45,-1715.32 2435.58,-1736.13 2413.04,-1745.63 2374.33,-1761.93 2255.66,-1773.26 2224.04,-1745.63 2179.12,-1706.38 2242.29,-1660 2206.04,-1612.63 2192.42,-1594.83 2169.14,-1585.07 2149.35,-1579.77"/>
<polygon fill="#000000" stroke="#000000" points="2149.92,-1576.31 2139.38,-1577.38 2148.29,-1583.11 2149.92,-1576.31"/>
<text text-anchor="middle" x="2318.54" y="-1807.03" font-family="Times,serif" font-size="32.00">ε_15</text>
<text text-anchor="middle" x="2318.54" y="-1772.03" font-family="Times,serif" font-size="32.00">=&gt;9 7</text>
</g>
<!-- z7 -->
<g id="node29" class="node">
<title>z7</title>
<ellipse fill="none" stroke="black" stroke-dasharray="5,2" cx="2701.69" cy="-1674.63" rx="27" ry="18"/>
</g>
<!-- z7&#45;&gt;9 -->
<g id="edge41" class="edge">
<title>z7&#45;&gt;9</title>
<path fill="none" stroke="#000000" d="M2674.59,-1674.63C2636.18,-1674.63 2564.27,-1674.63 2520.71,-1674.63"/>
<polygon fill="#000000" stroke="#000000" points="2520.55,-1671.13 2510.55,-1674.63 2520.55,-1678.13 2520.55,-1671.13"/>
<text text-anchor="middle" x="2605.19" y="-1719.03" font-family="Times,serif" font-size="32.00">respect</text>
<text text-anchor="middle" x="2605.19" y="-1684.03" font-family="Times,serif" font-size="32.00">9</text>
</g>
<!-- 10 -->
<g id="node30" class="node">
<title>10</title>
<ellipse fill="none" stroke="black" cx="2483.36" cy="-998.63" rx="33.88" ry="30.31"/>
<text text-anchor="middle" x="2483.36" y="-990.53" font-family="Times,serif" font-size="32.00">10</text>
</g>
<!-- 10&#45;&gt;4 -->
<g id="edge46" class="edge">
<title>10&#45;&gt;4</title>
<path fill="none" stroke="#000000" d="M2465.76,-972.56C2453.44,-955.68 2435.01,-934.99 2413.04,-924.63 2325.86,-883.52 2208.29,-891.9 2149.77,-899.71"/>
<polygon fill="#000000" stroke="#000000" points="2148.96,-896.29 2139.55,-901.15 2149.94,-903.22 2148.96,-896.29"/>
<text text-anchor="middle" x="2318.54" y="-969.03" font-family="Times,serif" font-size="32.00">ε_19</text>
<text text-anchor="middle" x="2318.54" y="-934.03" font-family="Times,serif" font-size="32.00">=&gt;10 =for 4</text>
</g>
<!-- 10&#45;&gt;6 -->
<g id="edge47" class="edge">
<title>10&#45;&gt;6</title>
<path fill="none" stroke="#000000" d="M2449.31,-998.63C2380.35,-998.63 2221.64,-998.63 2149.91,-998.63"/>
<polygon fill="#000000" stroke="#000000" points="2149.57,-995.13 2139.57,-998.63 2149.57,-1002.13 2149.57,-995.13"/>
<text text-anchor="middle" x="2318.54" y="-1043.03" font-family="Times,serif" font-size="32.00">ε_20</text>
<text text-anchor="middle" x="2318.54" y="-1008.03" font-family="Times,serif" font-size="32.00">=&gt;10 6</text>
</g>
<!-- 10&#45;&gt;7 -->
<g id="edge44" class="edge">
<title>10&#45;&gt;7</title>
<path fill="none" stroke="#000000" d="M2464.58,-1024.46C2452.12,-1040.34 2433.99,-1059.54 2413.04,-1069.63 2375,-1087.94 2252.99,-1057.91 2224.04,-1088.63 2190.4,-1124.32 2233.07,-1488.71 2206.04,-1529.63 2193.29,-1548.92 2169.63,-1559.97 2149.43,-1566.17"/>
<polygon fill="#000000" stroke="#000000" points="2148.25,-1562.86 2139.55,-1568.91 2150.13,-1569.6 2148.25,-1562.86"/>
<text text-anchor="middle" x="2318.54" y="-1133.03" font-family="Times,serif" font-size="32.00">ε_18</text>
<text text-anchor="middle" x="2318.54" y="-1098.03" font-family="Times,serif" font-size="32.00">=&gt;10 7</text>
</g>
<!-- z8 -->
<g id="node31" class="node">
<title>z8</title>
<ellipse fill="none" stroke="black" stroke-dasharray="5,2" cx="2701.69" cy="-998.63" rx="27" ry="18"/>
</g>
<!-- z8&#45;&gt;10 -->
<g id="edge45" class="edge">
<title>z8&#45;&gt;10</title>
<path fill="none" stroke="#000000" d="M2674.59,-998.63C2638.18,-998.63 2571.67,-998.63 2527.74,-998.63"/>
<polygon fill="#000000" stroke="#000000" points="2527.63,-995.13 2517.63,-998.63 2527.63,-1002.13 2527.63,-995.13"/>
<text text-anchor="middle" x="2605.19" y="-1043.03" font-family="Times,serif" font-size="32.00">disdain</text>
<text text-anchor="middle" x="2605.19" y="-1008.03" font-family="Times,serif" font-size="32.00">10</text>
</g>
<!-- 11 -->
<g id="node32" class="node">
<title>11</title>
<ellipse fill="none" stroke="black" cx="2483.36" cy="-1370.63" rx="33.88" ry="30.31"/>
<text text-anchor="middle" x="2483.36" y="-1362.53" font-family="Times,serif" font-size="32.00">11</text>
</g>
<!-- 11&#45;&gt;a -->
<g id="edge53" class="edge">
<title>11&#45;&gt;a</title>
<path fill="none" stroke="#000000" d="M2465.18,-1396.81C2452.85,-1413.06 2434.63,-1432.53 2413.04,-1441.63 2335.62,-1474.23 2303.11,-1469.97 2224.04,-1441.63 1998.14,-1360.66 1917.84,-1311.49 1807.04,-1098.63 1759.28,-1006.89 1836.5,-958.52 1789.04,-866.63 1778.91,-847.02 1760.04,-831.05 1743.39,-819.84"/>
<polygon fill="#000000" stroke="#000000" points="1745.26,-816.88 1734.95,-814.42 1741.47,-822.77 1745.26,-816.88"/>
<text text-anchor="middle" x="2112.54" y="-1479.03" font-family="Times,serif" font-size="32.00">ful_3</text>
<text text-anchor="middle" x="2112.54" y="-1444.03" font-family="Times,serif" font-size="32.00">=&gt;11 =about a</text>
</g>
<!-- 11&#45;&gt;4 -->
<g id="edge50" class="edge">
<title>11&#45;&gt;4</title>
<path fill="none" stroke="#000000" d="M2480.34,-1340.08C2475.79,-1298.07 2461.02,-1223.38 2413.04,-1185.63 2346.54,-1133.3 2282.89,-1223.43 2224.04,-1162.63 2192.54,-1130.08 2230.3,-997.87 2206.04,-959.63 2192.94,-938.98 2168.89,-925.3 2148.6,-916.87"/>
<polygon fill="#000000" stroke="#000000" points="2149.6,-913.5 2139.01,-913.15 2147.06,-920.03 2149.6,-913.5"/>
<text text-anchor="middle" x="2318.54" y="-1230.03" font-family="Times,serif" font-size="32.00">ε_22</text>
<text text-anchor="middle" x="2318.54" y="-1195.03" font-family="Times,serif" font-size="32.00">=&gt;11 =of 4</text>
</g>
<!-- 11&#45;&gt;4 -->
<g id="edge52" class="edge">
<title>11&#45;&gt;4</title>
<path fill="none" stroke="#000000" d="M2470.06,-1342.35C2458.71,-1319.93 2439.58,-1289.92 2413.04,-1274.63 2376.46,-1253.55 2253.29,-1286.06 2224.04,-1255.63 2178.37,-1208.12 2240.57,-1015.75 2206.04,-959.63 2193.17,-938.71 2168.95,-925 2148.53,-916.63"/>
<polygon fill="#000000" stroke="#000000" points="2149.76,-913.36 2139.17,-913.05 2147.26,-919.89 2149.76,-913.36"/>
<text text-anchor="middle" x="2318.54" y="-1319.03" font-family="Times,serif" font-size="32.00">ε_24</text>
<text text-anchor="middle" x="2318.54" y="-1284.03" font-family="Times,serif" font-size="32.00">=&gt;11 =about 4</text>
</g>
<!-- 11&#45;&gt;6 -->
<g id="edge51" class="edge">
<title>11&#45;&gt;6</title>
<path fill="none" stroke="#000000" d="M2449.28,-1369.84C2383.53,-1367.98 2241.26,-1362.41 2224.04,-1348.63 2128.73,-1272.35 2114.19,-1114.22 2112.9,-1039.47"/>
<polygon fill="#000000" stroke="#000000" points="2116.4,-1039.03 2112.8,-1029.07 2109.4,-1039.1 2116.4,-1039.03"/>
<text text-anchor="middle" x="2318.54" y="-1413.03" font-family="Times,serif" font-size="32.00">ε_23</text>
<text text-anchor="middle" x="2318.54" y="-1378.03" font-family="Times,serif" font-size="32.00">=&gt;11 6</text>
</g>
<!-- 11&#45;&gt;7 -->
<g id="edge48" class="edge">
<title>11&#45;&gt;7</title>
<path fill="none" stroke="#000000" d="M2469.98,-1398.76C2458.57,-1421.09 2439.42,-1451.06 2413.04,-1466.63 2340.16,-1509.64 2292.19,-1439.47 2224.04,-1489.63 2208.34,-1501.18 2219.68,-1515.7 2206.04,-1529.63 2190.36,-1545.64 2167.7,-1556.55 2148.73,-1563.5"/>
<polygon fill="#000000" stroke="#000000" points="2147.52,-1560.22 2139.2,-1566.78 2149.8,-1566.84 2147.52,-1560.22"/>
<text text-anchor="middle" x="2318.54" y="-1534.03" font-family="Times,serif" font-size="32.00">ε_21</text>
<text text-anchor="middle" x="2318.54" y="-1499.03" font-family="Times,serif" font-size="32.00">=&gt;11 7</text>
</g>
<!-- z9 -->
<g id="node33" class="node">
<title>z9</title>
<ellipse fill="none" stroke="black" stroke-dasharray="5,2" cx="2701.69" cy="-1370.63" rx="27" ry="18"/>
</g>
<!-- z9&#45;&gt;11 -->
<g id="edge49" class="edge">
<title>z9&#45;&gt;11</title>
<path fill="none" stroke="#000000" d="M2674.59,-1370.63C2638.18,-1370.63 2571.67,-1370.63 2527.74,-1370.63"/>
<polygon fill="#000000" stroke="#000000" points="2527.63,-1367.13 2517.63,-1370.63 2527.63,-1374.13 2527.63,-1367.13"/>
<text text-anchor="middle" x="2605.19" y="-1415.03" font-family="Times,serif" font-size="32.00">doubt</text>
<text text-anchor="middle" x="2605.19" y="-1380.03" font-family="Times,serif" font-size="32.00">11</text>
</g>
</g>
</svg>
