<?xml version="1.0" encoding="UTF-8" standalone="no"?>
<!DOCTYPE svg PUBLIC "-//W3C//DTD SVG 1.1//EN"
 "http://www.w3.org/Graphics/SVG/1.1/DTD/svg11.dtd">
<!-- Generated by graphviz version 2.47.1 (20210417.1919)
 -->
<!-- Title: G Pages: 1 -->
<svg width="2942pt" height="2051pt"
 viewBox="0.00 0.00 2941.69 2050.58" xmlns="http://www.w3.org/2000/svg" xmlns:xlink="http://www.w3.org/1999/xlink">
<g id="graph0" class="graph" transform="scale(1 1) rotate(0) translate(4 2046.58)">
<title>G</title>
<polygon fill="white" stroke="transparent" points="-4,4 -4,-2046.58 2937.69,-2046.58 2937.69,4 -4,4"/>
<text text-anchor="middle" x="1466.84" y="-13.4" font-family="Times,serif" font-size="32.00">single contraction: 11 → 10</text>
<!-- t -->
<g id="node1" class="node">
<title>t</title>
<ellipse fill="lightgray" stroke="black" cx="27" cy="-1642.58" rx="27" ry="30.31"/>
<text text-anchor="middle" x="27" y="-1634.48" font-family="Times,serif" font-size="32.00">t</text>
</g>
<!-- z0 -->
<g id="node2" class="node">
<title>z0</title>
<ellipse fill="none" stroke="black" stroke-dasharray="5,2" cx="2906.69" cy="-1809.58" rx="27" ry="18"/>
</g>
<!-- da -->
<g id="node3" class="node">
<title>da</title>
<ellipse fill="none" stroke="black" cx="2688.36" cy="-1809.58" rx="33.47" ry="30.31"/>
<text text-anchor="middle" x="2688.36" y="-1801.48" font-family="Times,serif" font-size="32.00">da</text>
</g>
<!-- z0&#45;&gt;da -->
<g id="edge1" class="edge">
<title>z0&#45;&gt;da</title>
<path fill="none" stroke="#000000" d="M2879.59,-1809.58C2842.97,-1809.58 2775.91,-1809.58 2731.98,-1809.58"/>
<polygon fill="#000000" stroke="#000000" points="2731.9,-1806.08 2721.89,-1809.58 2731.89,-1813.08 2731.9,-1806.08"/>
<text text-anchor="middle" x="2810.19" y="-1888.98" font-family="Times,serif" font-size="32.00">Mary |</text>
<text text-anchor="middle" x="2810.19" y="-1853.98" font-family="Times,serif" font-size="32.00"> John</text>
<text text-anchor="middle" x="2810.19" y="-1818.98" font-family="Times,serif" font-size="32.00">da &#45;k</text>
</g>
<!-- z1 -->
<g id="node4" class="node">
<title>z1</title>
<ellipse fill="none" stroke="black" stroke-dasharray="5,2" cx="2906.69" cy="-1937.58" rx="27" ry="18"/>
</g>
<!-- poss -->
<g id="node5" class="node">
<title>poss</title>
<ellipse fill="none" stroke="black" cx="2688.36" cy="-1937.58" rx="52.15" ry="30.31"/>
<text text-anchor="middle" x="2688.36" y="-1929.48" font-family="Times,serif" font-size="32.00">poss</text>
</g>
<!-- z1&#45;&gt;poss -->
<g id="edge2" class="edge">
<title>z1&#45;&gt;poss</title>
<path fill="none" stroke="#000000" d="M2879.59,-1937.58C2847.93,-1937.58 2793.5,-1937.58 2750.96,-1937.58"/>
<polygon fill="#000000" stroke="#000000" points="2750.7,-1934.08 2740.7,-1937.58 2750.7,-1941.08 2750.7,-1934.08"/>
<text text-anchor="middle" x="2810.19" y="-2016.98" font-family="Times,serif" font-size="32.00">Mary&#39;s |</text>
<text text-anchor="middle" x="2810.19" y="-1981.98" font-family="Times,serif" font-size="32.00"> John&#39;s</text>
<text text-anchor="middle" x="2810.19" y="-1946.98" font-family="Times,serif" font-size="32.00">poss</text>
</g>
<!-- z2 -->
<g id="node6" class="node">
<title>z2</title>
<ellipse fill="none" stroke="black" stroke-dasharray="5,2" cx="2112.54" cy="-384.58" rx="27" ry="18"/>
</g>
<!-- d -->
<g id="node7" class="node">
<title>d</title>
<ellipse fill="none" stroke="black" cx="1710.04" cy="-1062.58" rx="27" ry="30.31"/>
<text text-anchor="middle" x="1710.04" y="-1054.48" font-family="Times,serif" font-size="32.00">d</text>
</g>
<!-- z2&#45;&gt;d -->
<g id="edge3" class="edge">
<title>z2&#45;&gt;d</title>
<path fill="none" stroke="#000000" d="M2085.27,-386.47C2065.09,-389.17 2037.62,-395.72 2019.04,-411.58 1819.82,-581.58 1740.41,-909.21 1718.12,-1022.71"/>
<polygon fill="#000000" stroke="#000000" points="1714.65,-1022.22 1716.2,-1032.7 1721.52,-1023.55 1714.65,-1022.22"/>
<text text-anchor="middle" x="1904.04" y="-757.98" font-family="Times,serif" font-size="32.00">the&#45;cause</text>
<text text-anchor="middle" x="1904.04" y="-722.98" font-family="Times,serif" font-size="32.00">d &#45;k</text>
</g>
<!-- for -->
<g id="node8" class="node">
<title>for</title>
<ellipse fill="none" stroke="black" cx="1380.52" cy="-1420.58" rx="37.45" ry="30.31"/>
<text text-anchor="middle" x="1380.52" y="-1412.48" font-family="Times,serif" font-size="32.00">for</text>
</g>
<!-- d&#45;&gt;for -->
<g id="edge4" class="edge">
<title>d&#45;&gt;for</title>
<path fill="none" stroke="#000000" d="M1684.92,-1074.01C1668.63,-1082.44 1647.22,-1094.95 1631.04,-1109.58 1621.14,-1118.52 1623.92,-1125.88 1613.04,-1133.58 1554.85,-1174.73 1510.77,-1131.52 1460.04,-1181.58 1405.68,-1235.21 1388.95,-1327.07 1383.8,-1379.92"/>
<polygon fill="#000000" stroke="#000000" points="1380.31,-1379.68 1382.92,-1389.95 1387.28,-1380.29 1380.31,-1379.68"/>
<text text-anchor="middle" x="1536.54" y="-1225.98" font-family="Times,serif" font-size="32.00">for</text>
<text text-anchor="middle" x="1536.54" y="-1190.98" font-family="Times,serif" font-size="32.00">=d *k for</text>
</g>
<!-- of -->
<g id="node9" class="node">
<title>of</title>
<ellipse fill="none" stroke="black" cx="1380.52" cy="-1151.58" rx="30.31" ry="30.31"/>
<text text-anchor="middle" x="1380.52" y="-1143.48" font-family="Times,serif" font-size="32.00">of</text>
</g>
<!-- d&#45;&gt;of -->
<g id="edge5" class="edge">
<title>d&#45;&gt;of</title>
<path fill="none" stroke="#000000" d="M1683.59,-1056.18C1636.88,-1045.8 1535.32,-1029.67 1460.04,-1063.58 1435.64,-1074.56 1415.7,-1097.26 1402.01,-1116.85"/>
<polygon fill="#000000" stroke="#000000" points="1399.01,-1115.04 1396.35,-1125.3 1404.83,-1118.94 1399.01,-1115.04"/>
<text text-anchor="middle" x="1536.54" y="-1107.98" font-family="Times,serif" font-size="32.00">of</text>
<text text-anchor="middle" x="1536.54" y="-1072.98" font-family="Times,serif" font-size="32.00">=d *k of</text>
</g>
<!-- about -->
<g id="node10" class="node">
<title>about</title>
<ellipse fill="none" stroke="black" cx="1380.52" cy="-969.58" rx="61.54" ry="30.31"/>
<text text-anchor="middle" x="1380.52" y="-961.48" font-family="Times,serif" font-size="32.00">about</text>
</g>
<!-- d&#45;&gt;about -->
<g id="edge6" class="edge">
<title>d&#45;&gt;about</title>
<path fill="none" stroke="#000000" d="M1692.86,-1038.6C1675.99,-1015.95 1647.23,-983.43 1613.04,-969.58 1560.34,-948.24 1495.2,-950.48 1447.46,-956.76"/>
<polygon fill="#000000" stroke="#000000" points="1446.96,-953.29 1437.54,-958.15 1447.93,-960.23 1446.96,-953.29"/>
<text text-anchor="middle" x="1536.54" y="-1013.98" font-family="Times,serif" font-size="32.00">about</text>
<text text-anchor="middle" x="1536.54" y="-978.98" font-family="Times,serif" font-size="32.00">=d *k about</text>
</g>
<!-- 3 -->
<g id="node18" class="node">
<title>3</title>
<ellipse fill="none" stroke="black" cx="2469.04" cy="-1562.58" rx="27" ry="30.31"/>
<text text-anchor="middle" x="2469.04" y="-1554.48" font-family="Times,serif" font-size="32.00">3</text>
</g>
<!-- for&#45;&gt;3 -->
<g id="edge20" class="edge">
<title>for&#45;&gt;3</title>
<path fill="none" stroke="#000000" d="M1405.52,-1443.59C1448,-1483.28 1540.48,-1565.18 1631.04,-1615.58 1784.13,-1700.77 1875.87,-1628.98 2001.04,-1751.58 2016.72,-1766.94 2000.9,-1785.2 2019.04,-1797.58 2055.25,-1822.29 2379.89,-1805.27 2413.04,-1776.58 2437.98,-1754.99 2422.88,-1736.54 2431.04,-1704.58 2439.93,-1669.73 2450.27,-1630.14 2457.75,-1601.63"/>
<polygon fill="#000000" stroke="#000000" points="2461.21,-1602.22 2460.37,-1591.66 2454.44,-1600.44 2461.21,-1602.22"/>
<text text-anchor="middle" x="1904.04" y="-1795.98" font-family="Times,serif" font-size="32.00">hope</text>
<text text-anchor="middle" x="1904.04" y="-1760.98" font-family="Times,serif" font-size="32.00">=for 3</text>
</g>
<!-- 4 -->
<g id="node19" class="node">
<title>4</title>
<ellipse fill="none" stroke="black" cx="2112.54" cy="-1240.58" rx="27" ry="30.31"/>
<text text-anchor="middle" x="2112.54" y="-1232.48" font-family="Times,serif" font-size="32.00">4</text>
</g>
<!-- of&#45;&gt;4 -->
<g id="edge34" class="edge">
<title>of&#45;&gt;4</title>
<path fill="none" stroke="#000000" d="M1399.05,-1176.13C1413.24,-1193.77 1434.95,-1216.21 1460.04,-1226.58 1516.86,-1250.07 1946.97,-1243.76 2075.42,-1241.32"/>
<polygon fill="#000000" stroke="#000000" points="2075.6,-1244.82 2085.53,-1241.13 2075.46,-1237.82 2075.6,-1244.82"/>
<text text-anchor="middle" x="1710.04" y="-1323.98" font-family="Times,serif" font-size="32.00">fear_1 |</text>
<text text-anchor="middle" x="1710.04" y="-1288.98" font-family="Times,serif" font-size="32.00"> scorn_1</text>
<text text-anchor="middle" x="1710.04" y="-1253.98" font-family="Times,serif" font-size="32.00">=of 4</text>
</g>
<!-- 0 -->
<g id="node11" class="node">
<title>0</title>
<ellipse fill="none" stroke="black" cx="229" cy="-1642.58" rx="27" ry="30.31"/>
<text text-anchor="middle" x="229" y="-1634.48" font-family="Times,serif" font-size="32.00">0</text>
</g>
<!-- 0&#45;&gt;t -->
<g id="edge7" class="edge">
<title>0&#45;&gt;t</title>
<path fill="none" stroke="#000000" d="M201.85,-1642.58C166.67,-1642.58 103.92,-1642.58 64.21,-1642.58"/>
<polygon fill="#000000" stroke="#000000" points="64.15,-1639.08 54.15,-1642.58 64.15,-1646.08 64.15,-1639.08"/>
<text text-anchor="middle" x="128" y="-1721.98" font-family="Times,serif" font-size="32.00">s |</text>
<text text-anchor="middle" x="128" y="-1686.98" font-family="Times,serif" font-size="32.00"> d</text>
<text text-anchor="middle" x="128" y="-1651.98" font-family="Times,serif" font-size="32.00">=&gt;0 +k t</text>
</g>
<!-- 1 -->
<g id="node12" class="node">
<title>1</title>
<ellipse fill="none" stroke="black" cx="1380.52" cy="-1764.58" rx="27" ry="30.31"/>
<text text-anchor="middle" x="1380.52" y="-1756.48" font-family="Times,serif" font-size="32.00">1</text>
</g>
<!-- 2 -->
<g id="node13" class="node">
<title>2</title>
<ellipse fill="none" stroke="black" cx="1123" cy="-1764.58" rx="27" ry="30.31"/>
<text text-anchor="middle" x="1123" y="-1756.48" font-family="Times,serif" font-size="32.00">2</text>
</g>
<!-- 1&#45;&gt;2 -->
<g id="edge8" class="edge">
<title>1&#45;&gt;2</title>
<path fill="none" stroke="#000000" d="M1353.14,-1764.58C1307.21,-1764.58 1212.5,-1764.58 1160.38,-1764.58"/>
<polygon fill="#000000" stroke="#000000" points="1160.24,-1761.08 1150.24,-1764.58 1160.24,-1768.08 1160.24,-1761.08"/>
<text text-anchor="middle" x="1234.5" y="-1808.98" font-family="Times,serif" font-size="32.00">ε_0</text>
<text text-anchor="middle" x="1234.5" y="-1773.98" font-family="Times,serif" font-size="32.00">=&gt;1 =da 2</text>
</g>
<!-- v -->
<g id="node15" class="node">
<title>v</title>
<ellipse fill="none" stroke="black" cx="395" cy="-1735.58" rx="27" ry="30.31"/>
<text text-anchor="middle" x="395" y="-1727.48" font-family="Times,serif" font-size="32.00">v</text>
</g>
<!-- 2&#45;&gt;v -->
<g id="edge10" class="edge">
<title>2&#45;&gt;v</title>
<path fill="none" stroke="#000000" d="M1095.83,-1764.56C1015.45,-1764.35 765.05,-1762.72 558,-1750.58 514.62,-1748.03 464.87,-1743.13 432.08,-1739.62"/>
<polygon fill="#000000" stroke="#000000" points="432.37,-1736.13 422.05,-1738.54 431.62,-1743.09 432.37,-1736.13"/>
<text text-anchor="middle" x="744" y="-1804.98" font-family="Times,serif" font-size="32.00">ε_1</text>
<text text-anchor="middle" x="744" y="-1769.98" font-family="Times,serif" font-size="32.00">=&gt;2 v</text>
</g>
<!-- perf -->
<g id="node16" class="node">
<title>perf</title>
<ellipse fill="none" stroke="black" cx="608" cy="-1857.58" rx="48.17" ry="30.31"/>
<text text-anchor="middle" x="608" y="-1849.48" font-family="Times,serif" font-size="32.00">perf</text>
</g>
<!-- 2&#45;&gt;perf -->
<g id="edge11" class="edge">
<title>2&#45;&gt;perf</title>
<path fill="none" stroke="#000000" d="M1100.23,-1781.01C1051.69,-1816.48 929.6,-1899.39 812,-1928.58 753.34,-1943.14 731.5,-1952.52 676,-1928.58 659.09,-1921.28 644.46,-1907.39 633.23,-1893.81"/>
<polygon fill="#000000" stroke="#000000" points="635.94,-1891.6 627.01,-1885.9 630.44,-1895.93 635.94,-1891.6"/>
<text text-anchor="middle" x="886" y="-1966.98" font-family="Times,serif" font-size="32.00">n</text>
<text text-anchor="middle" x="886" y="-1931.98" font-family="Times,serif" font-size="32.00">=&gt;2 perf</text>
</g>
<!-- prog -->
<g id="node17" class="node">
<title>prog</title>
<ellipse fill="none" stroke="black" cx="886" cy="-1672.58" rx="52.15" ry="30.31"/>
<text text-anchor="middle" x="886" y="-1664.48" font-family="Times,serif" font-size="32.00">prog</text>
</g>
<!-- 2&#45;&gt;prog -->
<g id="edge12" class="edge">
<title>2&#45;&gt;prog</title>
<path fill="none" stroke="#000000" d="M1114.8,-1735.24C1108.47,-1716.2 1097.19,-1692.74 1078,-1680.58 1038.85,-1655.76 985.57,-1655.64 945.23,-1660.66"/>
<polygon fill="#000000" stroke="#000000" points="944.7,-1657.2 935.27,-1662.03 945.65,-1664.13 944.7,-1657.2"/>
<text text-anchor="middle" x="1019" y="-1724.98" font-family="Times,serif" font-size="32.00">ing</text>
<text text-anchor="middle" x="1019" y="-1689.98" font-family="Times,serif" font-size="32.00">=&gt;2 prog</text>
</g>
<!-- a -->
<g id="node14" class="node">
<title>a</title>
<ellipse fill="none" stroke="black" cx="1710.04" cy="-1576.58" rx="27" ry="30.31"/>
<text text-anchor="middle" x="1710.04" y="-1568.48" font-family="Times,serif" font-size="32.00">a</text>
</g>
<!-- a&#45;&gt;1 -->
<g id="edge9" class="edge">
<title>a&#45;&gt;1</title>
<path fill="none" stroke="#000000" d="M1685.74,-1589.95C1628.24,-1622.96 1479.43,-1708.37 1413.63,-1746.15"/>
<polygon fill="#000000" stroke="#000000" points="1411.84,-1743.14 1404.91,-1751.15 1415.33,-1749.21 1411.84,-1743.14"/>
<text text-anchor="middle" x="1536.54" y="-1763.98" font-family="Times,serif" font-size="32.00">be</text>
<text text-anchor="middle" x="1536.54" y="-1728.98" font-family="Times,serif" font-size="32.00">=a 1</text>
</g>
<!-- v&#45;&gt;0 -->
<g id="edge13" class="edge">
<title>v&#45;&gt;0</title>
<path fill="none" stroke="#000000" d="M388.46,-1706.01C382.75,-1684.66 371.51,-1657.26 350,-1643.58 325.12,-1627.76 291.09,-1629.12 265.61,-1633.5"/>
<polygon fill="#000000" stroke="#000000" points="264.76,-1630.1 255.62,-1635.45 266.1,-1636.97 264.76,-1630.1"/>
<text text-anchor="middle" x="312" y="-1687.98" font-family="Times,serif" font-size="32.00">will</text>
<text text-anchor="middle" x="312" y="-1652.98" font-family="Times,serif" font-size="32.00">=v 0</text>
</g>
<!-- v&#45;&gt;0 -->
<g id="edge15" class="edge">
<title>v&#45;&gt;0</title>
<path fill="none" stroke="#000000" d="M367.84,-1736.67C341.87,-1736.49 302,-1732.68 274,-1713.58 261.66,-1705.16 252.13,-1692.02 245.14,-1679.33"/>
<polygon fill="#000000" stroke="#000000" points="248.16,-1677.55 240.5,-1670.23 241.93,-1680.73 248.16,-1677.55"/>
<text text-anchor="middle" x="312" y="-1780.98" font-family="Times,serif" font-size="32.00">ε_2</text>
<text text-anchor="middle" x="312" y="-1745.98" font-family="Times,serif" font-size="32.00">=&gt;v 0</text>
</g>
<!-- perf&#45;&gt;v -->
<g id="edge14" class="edge">
<title>perf&#45;&gt;v</title>
<path fill="none" stroke="#000000" d="M565.83,-1842.57C530.71,-1828.75 479.75,-1806.24 440,-1778.58 433.85,-1774.3 427.77,-1769.14 422.18,-1763.9"/>
<polygon fill="#000000" stroke="#000000" points="424.5,-1761.27 414.9,-1756.78 419.61,-1766.28 424.5,-1761.27"/>
<text text-anchor="middle" x="490" y="-1873.98" font-family="Times,serif" font-size="32.00">have</text>
<text text-anchor="middle" x="490" y="-1838.98" font-family="Times,serif" font-size="32.00">=perf v</text>
</g>
<!-- prog&#45;&gt;0 -->
<g id="edge16" class="edge">
<title>prog&#45;&gt;0</title>
<path fill="none" stroke="#000000" d="M837.07,-1661.36C770.77,-1646.47 647.1,-1620.97 540,-1611.58 495.73,-1607.69 484.39,-1609.44 440,-1611.58 365.97,-1615.14 346.46,-1611.96 274,-1627.58 270.94,-1628.24 267.8,-1629.04 264.68,-1629.93"/>
<polygon fill="#000000" stroke="#000000" points="263.35,-1626.67 254.85,-1632.99 265.43,-1633.36 263.35,-1626.67"/>
<text text-anchor="middle" x="490" y="-1655.98" font-family="Times,serif" font-size="32.00">be_1</text>
<text text-anchor="middle" x="490" y="-1620.98" font-family="Times,serif" font-size="32.00">=prog 0</text>
</g>
<!-- prog&#45;&gt;v -->
<g id="edge17" class="edge">
<title>prog&#45;&gt;v</title>
<path fill="none" stroke="#000000" d="M833.83,-1669.09C769.06,-1665.76 654.31,-1663.46 558,-1680.58 512.28,-1688.7 461.99,-1707.41 429.76,-1720.75"/>
<polygon fill="#000000" stroke="#000000" points="428.22,-1717.6 420.36,-1724.7 430.94,-1724.05 428.22,-1717.6"/>
<text text-anchor="middle" x="608" y="-1724.98" font-family="Times,serif" font-size="32.00">be_2</text>
<text text-anchor="middle" x="608" y="-1689.98" font-family="Times,serif" font-size="32.00">=prog v</text>
</g>
<!-- prog&#45;&gt;perf -->
<g id="edge18" class="edge">
<title>prog&#45;&gt;perf</title>
<path fill="none" stroke="#000000" d="M880.64,-1702.92C873.47,-1740.68 855.38,-1804.03 812,-1835.58 789.49,-1851.95 718.21,-1856.51 666.47,-1857.6"/>
<polygon fill="#000000" stroke="#000000" points="666.34,-1854.1 656.4,-1857.77 666.46,-1861.1 666.34,-1854.1"/>
<text text-anchor="middle" x="744" y="-1900.98" font-family="Times,serif" font-size="32.00">ben</text>
<text text-anchor="middle" x="744" y="-1865.98" font-family="Times,serif" font-size="32.00">=prog perf</text>
</g>
<!-- 3&#45;&gt;1 -->
<g id="edge19" class="edge">
<title>3&#45;&gt;1</title>
<path fill="none" stroke="#000000" d="M2441.75,-1561.76C2350.21,-1558.67 2049.37,-1546.29 2019.04,-1516.58 1972.33,-1470.83 2050.01,-1413.89 2001.04,-1370.58 1936.45,-1313.46 1888.89,-1343.48 1807.04,-1370.58 1624.59,-1430.97 1587.84,-1485.05 1460.04,-1628.58 1433.32,-1658.58 1411.35,-1699.1 1397.51,-1728.09"/>
<polygon fill="#000000" stroke="#000000" points="1394.2,-1726.91 1393.13,-1737.45 1400.54,-1729.87 1394.2,-1726.91"/>
<text text-anchor="middle" x="1904.04" y="-1414.98" font-family="Times,serif" font-size="32.00">ε_3</text>
<text text-anchor="middle" x="1904.04" y="-1379.98" font-family="Times,serif" font-size="32.00">=&gt;3 1</text>
</g>
<!-- 3&#45;&gt;a -->
<g id="edge23" class="edge">
<title>3&#45;&gt;a</title>
<path fill="none" stroke="#000000" d="M2441.98,-1563.06C2328.82,-1565.15 1879.8,-1573.46 1747.75,-1575.9"/>
<polygon fill="#000000" stroke="#000000" points="1747.31,-1572.41 1737.38,-1576.09 1747.44,-1579.41 1747.31,-1572.41"/>
<text text-anchor="middle" x="2112.54" y="-1615.98" font-family="Times,serif" font-size="32.00">ful</text>
<text text-anchor="middle" x="2112.54" y="-1580.98" font-family="Times,serif" font-size="32.00">=&gt;3 a</text>
</g>
<!-- 3&#45;&gt;4 -->
<g id="edge22" class="edge">
<title>3&#45;&gt;4</title>
<path fill="none" stroke="#000000" d="M2458.91,-1534.38C2450.43,-1512.63 2435.65,-1483.49 2413.04,-1466.58 2343.89,-1414.86 2293.9,-1472.32 2224.04,-1421.58 2174.54,-1385.62 2142.74,-1320.08 2126.52,-1278.51"/>
<polygon fill="#000000" stroke="#000000" points="2129.73,-1277.11 2122.92,-1269 2123.19,-1279.59 2129.73,-1277.11"/>
<text text-anchor="middle" x="2318.54" y="-1510.98" font-family="Times,serif" font-size="32.00">ε_5</text>
<text text-anchor="middle" x="2318.54" y="-1475.98" font-family="Times,serif" font-size="32.00">=&gt;3 4</text>
</g>
<!-- 4&#45;&gt;d -->
<g id="edge21" class="edge">
<title>4&#45;&gt;d</title>
<path fill="none" stroke="#000000" d="M2090.99,-1221.54C2069.83,-1202.79 2035.21,-1174.44 2001.04,-1156.58 1914.93,-1111.56 1803.2,-1082.77 1746.86,-1070.08"/>
<polygon fill="#000000" stroke="#000000" points="1747.53,-1066.65 1737.01,-1067.9 1746.01,-1073.48 1747.53,-1066.65"/>
<text text-anchor="middle" x="1904.04" y="-1200.98" font-family="Times,serif" font-size="32.00">ε_4</text>
<text text-anchor="middle" x="1904.04" y="-1165.98" font-family="Times,serif" font-size="32.00">=&gt;4 poss= d &#45;k</text>
</g>
<!-- 5 -->
<g id="node20" class="node">
<title>5</title>
<ellipse fill="none" stroke="black" cx="2469.04" cy="-1743.58" rx="27" ry="30.31"/>
<text text-anchor="middle" x="2469.04" y="-1735.48" font-family="Times,serif" font-size="32.00">5</text>
</g>
<!-- 5&#45;&gt;1 -->
<g id="edge24" class="edge">
<title>5&#45;&gt;1</title>
<path fill="none" stroke="#000000" d="M2462.8,-1773.37C2456.24,-1801.33 2442.1,-1841.98 2413.04,-1863.58 2195.93,-2024.97 2076.66,-1942.58 1807.04,-1920.58 1651.27,-1907.87 1594.76,-1942.79 1460.04,-1863.58 1434.27,-1848.43 1413.7,-1821.37 1400.08,-1799.36"/>
<polygon fill="#000000" stroke="#000000" points="1402.98,-1797.4 1394.85,-1790.6 1396.97,-1800.98 1402.98,-1797.4"/>
<text text-anchor="middle" x="1904.04" y="-1988.98" font-family="Times,serif" font-size="32.00">ε_6</text>
<text text-anchor="middle" x="1904.04" y="-1953.98" font-family="Times,serif" font-size="32.00">=&gt;5 =of 1</text>
</g>
<!-- 5&#45;&gt;1 -->
<g id="edge29" class="edge">
<title>5&#45;&gt;1</title>
<path fill="none" stroke="#000000" d="M2457.62,-1771.47C2448.88,-1790.48 2434.36,-1814.2 2413.04,-1825.58 2294.22,-1888.95 1941.56,-1831.77 1807.04,-1825.58 1652.32,-1818.46 1611.08,-1827.81 1460.04,-1793.58 1444.98,-1790.17 1428.9,-1784.59 1415.24,-1779.24"/>
<polygon fill="#000000" stroke="#000000" points="1416.35,-1775.91 1405.77,-1775.41 1413.73,-1782.4 1416.35,-1775.91"/>
<text text-anchor="middle" x="1904.04" y="-1885.98" font-family="Times,serif" font-size="32.00">ε_9</text>
<text text-anchor="middle" x="1904.04" y="-1850.98" font-family="Times,serif" font-size="32.00">=&gt;5 =about 1</text>
</g>
<!-- 5&#45;&gt;a -->
<g id="edge31" class="edge">
<title>5&#45;&gt;a</title>
<path fill="none" stroke="#000000" d="M2445.49,-1758.64C2435.91,-1764.18 2424.35,-1769.78 2413.04,-1772.58 2331.5,-1792.76 2306.6,-1788.07 2224.04,-1772.58 2215.6,-1771 2214.05,-1768.66 2206.04,-1765.58 2033.17,-1698.97 1825.95,-1620.19 1745.41,-1589.62"/>
<polygon fill="#000000" stroke="#000000" points="1746.37,-1586.24 1735.78,-1585.96 1743.89,-1592.78 1746.37,-1586.24"/>
<text text-anchor="middle" x="2112.54" y="-1809.98" font-family="Times,serif" font-size="32.00">ful_2</text>
<text text-anchor="middle" x="2112.54" y="-1774.98" font-family="Times,serif" font-size="32.00">=&gt;5 =about a</text>
</g>
<!-- 5&#45;&gt;4 -->
<g id="edge26" class="edge">
<title>5&#45;&gt;4</title>
<path fill="none" stroke="#000000" d="M2447.93,-1724.6C2438.14,-1716.46 2425.75,-1707.67 2413.04,-1702.58 2373.76,-1686.85 2253.13,-1710.3 2224.04,-1679.58 2203.44,-1657.83 2214.39,-1439.35 2206.04,-1410.58 2190.94,-1358.59 2158.21,-1304.71 2136.02,-1271.91"/>
<polygon fill="#000000" stroke="#000000" points="2138.89,-1269.9 2130.35,-1263.64 2133.12,-1273.86 2138.89,-1269.9"/>
<text text-anchor="middle" x="2318.54" y="-1746.98" font-family="Times,serif" font-size="32.00">ε_7</text>
<text text-anchor="middle" x="2318.54" y="-1711.98" font-family="Times,serif" font-size="32.00">=&gt;5 =of 4</text>
</g>
<!-- 5&#45;&gt;4 -->
<g id="edge30" class="edge">
<title>5&#45;&gt;4</title>
<path fill="none" stroke="#000000" d="M2463.58,-1713.66C2457.44,-1682.6 2443.47,-1634.58 2413.04,-1605.58 2348.74,-1544.29 2280.48,-1609.17 2224.04,-1540.58 2186.97,-1495.54 2224.27,-1465.98 2206.04,-1410.58 2189.23,-1359.52 2157.31,-1305.9 2135.73,-1272.85"/>
<polygon fill="#000000" stroke="#000000" points="2138.37,-1270.5 2129.94,-1264.09 2132.53,-1274.36 2138.37,-1270.5"/>
<text text-anchor="middle" x="2318.54" y="-1649.98" font-family="Times,serif" font-size="32.00">ε_10</text>
<text text-anchor="middle" x="2318.54" y="-1614.98" font-family="Times,serif" font-size="32.00">=&gt;5 =about 4</text>
</g>
<!-- 6 -->
<g id="node22" class="node">
<title>6</title>
<ellipse fill="none" stroke="black" cx="2112.54" cy="-847.58" rx="27" ry="30.31"/>
<text text-anchor="middle" x="2112.54" y="-839.48" font-family="Times,serif" font-size="32.00">6</text>
</g>
<!-- 5&#45;&gt;6 -->
<g id="edge28" class="edge">
<title>5&#45;&gt;6</title>
<path fill="none" stroke="#000000" d="M2458.95,-1715.08C2450.29,-1686.65 2437.6,-1641.55 2431.04,-1601.58 2426.45,-1573.66 2432.43,-1368.18 2413.04,-1347.58 2354.97,-1285.87 2284.43,-1382.01 2224.04,-1322.58 2204.66,-1303.51 2211.48,-1228.21 2206.04,-1201.58 2182.31,-1085.5 2144.05,-950.65 2125.04,-886"/>
<polygon fill="#000000" stroke="#000000" points="2128.34,-884.84 2122.15,-876.24 2121.63,-886.82 2128.34,-884.84"/>
<text text-anchor="middle" x="2318.54" y="-1391.98" font-family="Times,serif" font-size="32.00">ε_8</text>
<text text-anchor="middle" x="2318.54" y="-1356.98" font-family="Times,serif" font-size="32.00">=&gt;5 6</text>
</g>
<!-- z3 -->
<g id="node21" class="node">
<title>z3</title>
<ellipse fill="none" stroke="black" stroke-dasharray="5,2" cx="2688.36" cy="-1743.58" rx="27" ry="18"/>
</g>
<!-- z3&#45;&gt;5 -->
<g id="edge25" class="edge">
<title>z3&#45;&gt;5</title>
<path fill="none" stroke="#000000" d="M2661.15,-1743.58C2622.56,-1743.58 2550.32,-1743.58 2506.55,-1743.58"/>
<polygon fill="#000000" stroke="#000000" points="2506.34,-1740.08 2496.34,-1743.58 2506.34,-1747.08 2506.34,-1740.08"/>
<text text-anchor="middle" x="2571.54" y="-1787.98" font-family="Times,serif" font-size="32.00">boast</text>
<text text-anchor="middle" x="2571.54" y="-1752.98" font-family="Times,serif" font-size="32.00">5</text>
</g>
<!-- 6&#45;&gt;a -->
<g id="edge27" class="edge">
<title>6&#45;&gt;a</title>
<path fill="none" stroke="#000000" d="M2102.19,-876.1C2083.05,-935.77 2039.51,-1078.45 2019.04,-1201.58 2014.6,-1228.29 2019.75,-1425.02 2001.04,-1444.58 1971.02,-1475.94 1845.48,-1447.4 1807.04,-1467.58 1774.48,-1484.67 1747.87,-1517.65 1730.99,-1542.88"/>
<polygon fill="#000000" stroke="#000000" points="1727.94,-1541.14 1725.43,-1551.44 1733.81,-1544.96 1727.94,-1541.14"/>
<text text-anchor="middle" x="1904.04" y="-1511.98" font-family="Times,serif" font-size="32.00">ful_1</text>
<text text-anchor="middle" x="1904.04" y="-1476.98" font-family="Times,serif" font-size="32.00">=&gt;6 =of a</text>
</g>
<!-- 7 -->
<g id="node23" class="node">
<title>7</title>
<ellipse fill="none" stroke="black" cx="2112.54" cy="-450.58" rx="27" ry="30.31"/>
<text text-anchor="middle" x="2112.54" y="-442.48" font-family="Times,serif" font-size="32.00">7</text>
</g>
<!-- 7&#45;&gt;1 -->
<g id="edge32" class="edge">
<title>7&#45;&gt;1</title>
<path fill="none" stroke="#000000" d="M2104.81,-480.03C2090.5,-539.94 2053.97,-679.47 2001.04,-787.58 1926.98,-938.81 1919.01,-994.52 1789.04,-1101.58 1730.16,-1150.07 1679.69,-1109.83 1631.04,-1168.58 1606.96,-1197.65 1633.88,-1220.1 1613.04,-1251.58 1567.09,-1320.98 1504.75,-1289.37 1460.04,-1359.58 1435.78,-1397.67 1450.43,-1415.21 1442.04,-1459.58 1423.95,-1555.15 1401.35,-1667.28 1389.54,-1725.32"/>
<polygon fill="#000000" stroke="#000000" points="1386.1,-1724.67 1387.53,-1735.17 1392.96,-1726.07 1386.1,-1724.67"/>
<text text-anchor="middle" x="1710.04" y="-1212.98" font-family="Times,serif" font-size="32.00">ε_11</text>
<text text-anchor="middle" x="1710.04" y="-1177.98" font-family="Times,serif" font-size="32.00">=&gt;7 =d *k 1</text>
</g>
<!-- z4 -->
<g id="node24" class="node">
<title>z4</title>
<ellipse fill="none" stroke="black" stroke-dasharray="5,2" cx="2469.04" cy="-111.58" rx="27" ry="18"/>
</g>
<!-- z4&#45;&gt;7 -->
<g id="edge33" class="edge">
<title>z4&#45;&gt;7</title>
<path fill="none" stroke="#000000" d="M2445.11,-103.05C2396.9,-86.76 2284.5,-57.74 2224.04,-115.58 2176.42,-161.13 2244.13,-357.8 2206.04,-411.58 2193.02,-429.95 2169.59,-439.71 2149.57,-444.87"/>
<polygon fill="#000000" stroke="#000000" points="2148.74,-441.47 2139.78,-447.12 2150.31,-448.29 2148.74,-441.47"/>
<text text-anchor="middle" x="2318.54" y="-194.98" font-family="Times,serif" font-size="32.00">fear |</text>
<text text-anchor="middle" x="2318.54" y="-159.98" font-family="Times,serif" font-size="32.00"> scorn</text>
<text text-anchor="middle" x="2318.54" y="-124.98" font-family="Times,serif" font-size="32.00">7</text>
</g>
<!-- z5 -->
<g id="node25" class="node">
<title>z5</title>
<ellipse fill="none" stroke="black" stroke-dasharray="5,2" cx="2469.04" cy="-1033.58" rx="27" ry="18"/>
</g>
<!-- z5&#45;&gt;6 -->
<g id="edge35" class="edge">
<title>z5&#45;&gt;6</title>
<path fill="none" stroke="#000000" d="M2441.72,-1034C2386.42,-1034.45 2260.28,-1033.01 2224.04,-1011.58 2175.68,-982.99 2143.99,-923.94 2127.42,-885.06"/>
<polygon fill="#000000" stroke="#000000" points="2130.59,-883.54 2123.54,-875.63 2124.12,-886.21 2130.59,-883.54"/>
<text text-anchor="middle" x="2318.54" y="-1113.98" font-family="Times,serif" font-size="32.00">fear_2 |</text>
<text text-anchor="middle" x="2318.54" y="-1078.98" font-family="Times,serif" font-size="32.00"> scorn_2</text>
<text text-anchor="middle" x="2318.54" y="-1043.98" font-family="Times,serif" font-size="32.00">6</text>
</g>
<!-- 8 -->
<g id="node26" class="node">
<title>8</title>
<ellipse fill="none" stroke="black" cx="2469.04" cy="-661.58" rx="27" ry="30.31"/>
<text text-anchor="middle" x="2469.04" y="-653.48" font-family="Times,serif" font-size="32.00">8</text>
</g>
<!-- 8&#45;&gt;4 -->
<g id="edge38" class="edge">
<title>8&#45;&gt;4</title>
<path fill="none" stroke="#000000" d="M2465.92,-691.93C2460.97,-753.26 2446.44,-888.68 2413.04,-918.58 2381.58,-946.73 2257.37,-911.68 2224.04,-937.58 2141.57,-1001.66 2120.61,-1133.21 2115.31,-1199.9"/>
<polygon fill="#000000" stroke="#000000" points="2111.81,-1199.8 2114.59,-1210.02 2118.79,-1200.3 2111.81,-1199.8"/>
<text text-anchor="middle" x="2318.54" y="-981.98" font-family="Times,serif" font-size="32.00">ε_13</text>
<text text-anchor="middle" x="2318.54" y="-946.98" font-family="Times,serif" font-size="32.00">=&gt;8 =of 4</text>
</g>
<!-- 8&#45;&gt;6 -->
<g id="edge39" class="edge">
<title>8&#45;&gt;6</title>
<path fill="none" stroke="#000000" d="M2442.17,-658.55C2387.14,-652.62 2260.56,-641.75 2224.04,-662.58 2169.05,-693.93 2138.48,-764.66 2124.07,-809.01"/>
<polygon fill="#000000" stroke="#000000" points="2120.71,-808.01 2121.07,-818.59 2127.4,-810.09 2120.71,-808.01"/>
<text text-anchor="middle" x="2318.54" y="-706.98" font-family="Times,serif" font-size="32.00">ε_14</text>
<text text-anchor="middle" x="2318.54" y="-671.98" font-family="Times,serif" font-size="32.00">=&gt;8 6</text>
</g>
<!-- 8&#45;&gt;7 -->
<g id="edge36" class="edge">
<title>8&#45;&gt;7</title>
<path fill="none" stroke="#000000" d="M2449.45,-640.44C2442.57,-631.5 2435.4,-620.6 2431.04,-609.58 2420.07,-581.84 2434.63,-497.16 2413.04,-476.58 2376.2,-441.47 2221.72,-444.76 2150.18,-448.32"/>
<polygon fill="#000000" stroke="#000000" points="2149.65,-444.85 2139.85,-448.87 2150.02,-451.84 2149.65,-444.85"/>
<text text-anchor="middle" x="2318.54" y="-520.98" font-family="Times,serif" font-size="32.00">ε_12</text>
<text text-anchor="middle" x="2318.54" y="-485.98" font-family="Times,serif" font-size="32.00">=&gt;8 7</text>
</g>
<!-- z6 -->
<g id="node27" class="node">
<title>z6</title>
<ellipse fill="none" stroke="black" stroke-dasharray="5,2" cx="2688.36" cy="-661.58" rx="27" ry="18"/>
</g>
<!-- z6&#45;&gt;8 -->
<g id="edge37" class="edge">
<title>z6&#45;&gt;8</title>
<path fill="none" stroke="#000000" d="M2661.15,-661.58C2622.56,-661.58 2550.32,-661.58 2506.55,-661.58"/>
<polygon fill="#000000" stroke="#000000" points="2506.34,-658.08 2496.34,-661.58 2506.34,-665.08 2506.34,-658.08"/>
<text text-anchor="middle" x="2571.54" y="-705.98" font-family="Times,serif" font-size="32.00">neglect</text>
<text text-anchor="middle" x="2571.54" y="-670.98" font-family="Times,serif" font-size="32.00">8</text>
</g>
<!-- 9 -->
<g id="node28" class="node">
<title>9</title>
<ellipse fill="none" stroke="black" cx="2688.36" cy="-324.58" rx="27" ry="30.31"/>
<text text-anchor="middle" x="2688.36" y="-316.48" font-family="Times,serif" font-size="32.00">9</text>
</g>
<!-- 9&#45;&gt;6 -->
<g id="edge44" class="edge">
<title>9&#45;&gt;6</title>
<path fill="none" stroke="#000000" d="M2667.42,-344.23C2624.83,-384.93 2520.09,-478.2 2413.04,-521.58 2334.33,-553.46 2289.99,-496.09 2224.04,-549.58 2144.67,-613.94 2122.31,-741.13 2116.01,-806.57"/>
<polygon fill="#000000" stroke="#000000" points="2112.49,-806.63 2115.1,-816.9 2119.46,-807.24 2112.49,-806.63"/>
<text text-anchor="middle" x="2469.04" y="-558.98" font-family="Times,serif" font-size="32.00">ε_18</text>
<text text-anchor="middle" x="2469.04" y="-523.98" font-family="Times,serif" font-size="32.00">=&gt;9 6</text>
</g>
<!-- 9&#45;&gt;7 -->
<g id="edge40" class="edge">
<title>9&#45;&gt;7</title>
<path fill="none" stroke="#000000" d="M2661.07,-323.55C2568.01,-320.18 2258.03,-311.11 2224.04,-338.58 2198.05,-359.58 2227.74,-386.17 2206.04,-411.58 2191.68,-428.39 2168.83,-438.12 2149.43,-443.66"/>
<polygon fill="#000000" stroke="#000000" points="2148.47,-440.29 2139.67,-446.18 2150.23,-447.07 2148.47,-440.29"/>
<text text-anchor="middle" x="2469.04" y="-364.98" font-family="Times,serif" font-size="32.00">ε_15</text>
<text text-anchor="middle" x="2469.04" y="-329.98" font-family="Times,serif" font-size="32.00">=&gt;9 7</text>
</g>
<!-- 10 -->
<g id="node30" class="node">
<title>10</title>
<ellipse fill="none" stroke="black" cx="2469.04" cy="-239.58" rx="33.88" ry="30.31"/>
<text text-anchor="middle" x="2469.04" y="-231.48" font-family="Times,serif" font-size="32.00">10</text>
</g>
<!-- 9&#45;&gt;10 -->
<g id="edge43" class="edge">
<title>9&#45;&gt;10</title>
<path fill="none" stroke="#000000" d="M2674.01,-298.35C2662.27,-278.44 2643.14,-252.51 2618.04,-240.58 2584.99,-224.87 2542.91,-226.33 2512.08,-230.71"/>
<polygon fill="#000000" stroke="#000000" points="2511.41,-227.27 2502.08,-232.29 2512.51,-234.19 2511.41,-227.27"/>
<text text-anchor="middle" x="2571.54" y="-284.98" font-family="Times,serif" font-size="32.00">ε_17</text>
<text text-anchor="middle" x="2571.54" y="-249.98" font-family="Times,serif" font-size="32.00">=&gt;9 10</text>
</g>
<!-- z7 -->
<g id="node29" class="node">
<title>z7</title>
<ellipse fill="none" stroke="black" stroke-dasharray="5,2" cx="2906.69" cy="-324.58" rx="27" ry="18"/>
</g>
<!-- z7&#45;&gt;9 -->
<g id="edge41" class="edge">
<title>z7&#45;&gt;9</title>
<path fill="none" stroke="#000000" d="M2879.59,-324.58C2841.18,-324.58 2769.27,-324.58 2725.71,-324.58"/>
<polygon fill="#000000" stroke="#000000" points="2725.55,-321.08 2715.55,-324.58 2725.55,-328.08 2725.55,-321.08"/>
<text text-anchor="middle" x="2810.19" y="-368.98" font-family="Times,serif" font-size="32.00">respect</text>
<text text-anchor="middle" x="2810.19" y="-333.98" font-family="Times,serif" font-size="32.00">9</text>
</g>
<!-- 10&#45;&gt;4 -->
<g id="edge42" class="edge">
<title>10&#45;&gt;4</title>
<path fill="none" stroke="#000000" d="M2449.71,-264.68C2442.61,-275.75 2435.19,-289.26 2431.04,-302.58 2414.85,-354.48 2449.84,-506.56 2413.04,-546.58 2355.47,-609.18 2281.11,-513.52 2224.04,-576.58 2200.88,-602.16 2211.42,-852.5 2206.04,-886.58 2187.54,-1003.61 2146.89,-1138.02 2126.19,-1202.37"/>
<polygon fill="#000000" stroke="#000000" points="2122.8,-1201.49 2123.05,-1212.08 2129.46,-1203.64 2122.8,-1201.49"/>
<text text-anchor="middle" x="2318.54" y="-620.98" font-family="Times,serif" font-size="32.00">ε_16</text>
<text text-anchor="middle" x="2318.54" y="-585.98" font-family="Times,serif" font-size="32.00">=&gt;10 =for 4</text>
</g>
<!-- 10&#45;&gt;6 -->
<g id="edge47" class="edge">
<title>10&#45;&gt;6</title>
<path fill="none" stroke="#000000" d="M2453.84,-266.99C2444.28,-282.97 2430.28,-302.32 2413.04,-314.58 2341.42,-365.48 2281.5,-306.11 2224.04,-372.58 2206.83,-392.48 2211.33,-463.81 2206.04,-489.58 2181.86,-607.16 2143.65,-743.98 2124.81,-809.2"/>
<polygon fill="#000000" stroke="#000000" points="2121.38,-808.46 2121.95,-819.03 2128.1,-810.41 2121.38,-808.46"/>
<text text-anchor="middle" x="2318.54" y="-416.98" font-family="Times,serif" font-size="32.00">ε_20</text>
<text text-anchor="middle" x="2318.54" y="-381.98" font-family="Times,serif" font-size="32.00">=&gt;10 6</text>
</g>
<!-- 10&#45;&gt;7 -->
<g id="edge45" class="edge">
<title>10&#45;&gt;7</title>
<path fill="none" stroke="#000000" d="M2435.1,-234.56C2375.73,-226.31 2254.13,-213.38 2224.04,-240.58 2195.69,-266.2 2228.8,-380.89 2206.04,-411.58 2192.68,-429.58 2169.41,-439.33 2149.55,-444.59"/>
<polygon fill="#000000" stroke="#000000" points="2148.47,-441.24 2139.54,-446.94 2150.08,-448.06 2148.47,-441.24"/>
<text text-anchor="middle" x="2318.54" y="-284.98" font-family="Times,serif" font-size="32.00">ε_19</text>
<text text-anchor="middle" x="2318.54" y="-249.98" font-family="Times,serif" font-size="32.00">=&gt;10 7</text>
</g>
<!-- z8 -->
<g id="node31" class="node">
<title>z8</title>
<ellipse fill="none" stroke="black" stroke-dasharray="5,2" cx="2688.36" cy="-146.58" rx="27" ry="18"/>
</g>
<!-- z8&#45;&gt;10 -->
<g id="edge46" class="edge">
<title>z8&#45;&gt;10</title>
<path fill="none" stroke="#000000" d="M2662.32,-141.17C2628.65,-135.3 2568.06,-129.78 2525.04,-154.58 2507.05,-164.95 2493.95,-183.84 2485.06,-201.19"/>
<polygon fill="#000000" stroke="#000000" points="2481.71,-200.08 2480.55,-210.61 2488.03,-203.1 2481.71,-200.08"/>
<text text-anchor="middle" x="2571.54" y="-198.98" font-family="Times,serif" font-size="32.00">disdain</text>
<text text-anchor="middle" x="2571.54" y="-163.98" font-family="Times,serif" font-size="32.00">10</text>
</g>
<!-- 11 -->
<g id="node32" class="node">
<title>11</title>
<ellipse fill="none" stroke="black" cx="2469.04" cy="-1161.58" rx="33.88" ry="30.31"/>
<text text-anchor="middle" x="2469.04" y="-1153.48" font-family="Times,serif" font-size="32.00">11</text>
</g>
<!-- 11&#45;&gt;a -->
<g id="edge53" class="edge">
<title>11&#45;&gt;a</title>
<path fill="none" stroke="#000000" d="M2465.76,-1192.27C2460.56,-1253.59 2445.65,-1387.98 2413.04,-1418.58 2382.07,-1447.63 2265.76,-1438.72 2224.04,-1446.58 2132.18,-1463.88 2090.29,-1433.08 2019.04,-1493.58 2002.93,-1507.25 2017.75,-1524.66 2001.04,-1537.58 1991.07,-1545.28 1822.34,-1564.47 1746.94,-1572.72"/>
<polygon fill="#000000" stroke="#000000" points="1746.51,-1569.24 1736.95,-1573.8 1747.27,-1576.2 1746.51,-1569.24"/>
<text text-anchor="middle" x="2112.54" y="-1537.98" font-family="Times,serif" font-size="32.00">ful_3</text>
<text text-anchor="middle" x="2112.54" y="-1502.98" font-family="Times,serif" font-size="32.00">=&gt;11 =about a</text>
</g>
<!-- 11&#45;&gt;4 -->
<g id="edge50" class="edge">
<title>11&#45;&gt;4</title>
<path fill="none" stroke="#000000" d="M2435.49,-1155.65C2387.79,-1148.3 2296.67,-1139.36 2224.04,-1162.58 2192.3,-1172.72 2161.8,-1195.58 2140.92,-1213.94"/>
<polygon fill="#000000" stroke="#000000" points="2138.48,-1211.43 2133.4,-1220.72 2143.17,-1216.62 2138.48,-1211.43"/>
<text text-anchor="middle" x="2318.54" y="-1206.98" font-family="Times,serif" font-size="32.00">ε_22</text>
<text text-anchor="middle" x="2318.54" y="-1171.98" font-family="Times,serif" font-size="32.00">=&gt;11 =of 4</text>
</g>
<!-- 11&#45;&gt;4 -->
<g id="edge52" class="edge">
<title>11&#45;&gt;4</title>
<path fill="none" stroke="#000000" d="M2454.53,-1189.22C2445.23,-1204.97 2431.25,-1223.34 2413.04,-1232.58 2368.03,-1255.4 2219.18,-1248.22 2149.77,-1243.41"/>
<polygon fill="#000000" stroke="#000000" points="2149.96,-1239.91 2139.73,-1242.69 2149.46,-1246.9 2149.96,-1239.91"/>
<text text-anchor="middle" x="2318.54" y="-1292.98" font-family="Times,serif" font-size="32.00">ε_24</text>
<text text-anchor="middle" x="2318.54" y="-1257.98" font-family="Times,serif" font-size="32.00">=&gt;11 =about 4</text>
</g>
<!-- 11&#45;&gt;6 -->
<g id="edge51" class="edge">
<title>11&#45;&gt;6</title>
<path fill="none" stroke="#000000" d="M2455.43,-1133.45C2447.07,-1113.52 2436.65,-1085.92 2431.04,-1060.58 2425.93,-1037.5 2430.42,-864.6 2413.04,-848.58 2375.67,-814.14 2220.76,-831.71 2149.59,-841.94"/>
<polygon fill="#000000" stroke="#000000" points="2148.7,-838.53 2139.32,-843.45 2149.72,-845.46 2148.7,-838.53"/>
<text text-anchor="middle" x="2318.54" y="-892.98" font-family="Times,serif" font-size="32.00">ε_23</text>
<text text-anchor="middle" x="2318.54" y="-857.98" font-family="Times,serif" font-size="32.00">=&gt;11 6</text>
</g>
<!-- 11&#45;&gt;7 -->
<g id="edge48" class="edge">
<title>11&#45;&gt;7</title>
<path fill="none" stroke="#000000" d="M2455.23,-1133.5C2446.77,-1113.58 2436.32,-1085.99 2431.04,-1060.58 2424.1,-1027.23 2436.42,-779.34 2413.04,-754.58 2384,-723.84 2257.53,-758.39 2224.04,-732.58 2147.66,-673.71 2124,-554.47 2116.73,-491.56"/>
<polygon fill="#000000" stroke="#000000" points="2120.17,-490.8 2115.62,-481.23 2113.21,-491.55 2120.17,-490.8"/>
<text text-anchor="middle" x="2318.54" y="-798.98" font-family="Times,serif" font-size="32.00">ε_21</text>
<text text-anchor="middle" x="2318.54" y="-763.98" font-family="Times,serif" font-size="32.00">=&gt;11 7</text>
</g>
<!-- z9 -->
<g id="node33" class="node">
<title>z9</title>
<ellipse fill="none" stroke="black" stroke-dasharray="5,2" cx="2688.36" cy="-1161.58" rx="27" ry="18"/>
</g>
<!-- z9&#45;&gt;11 -->
<g id="edge49" class="edge">
<title>z9&#45;&gt;11</title>
<path fill="none" stroke="#000000" d="M2661.15,-1161.58C2624.46,-1161.58 2557.36,-1161.58 2513.23,-1161.58"/>
<polygon fill="#000000" stroke="#000000" points="2513.09,-1158.08 2503.09,-1161.58 2513.09,-1165.08 2513.09,-1158.08"/>
<text text-anchor="middle" x="2571.54" y="-1205.98" font-family="Times,serif" font-size="32.00">doubt</text>
<text text-anchor="middle" x="2571.54" y="-1170.98" font-family="Times,serif" font-size="32.00">11</text>
</g>
</g>
</svg>
