<?xml version="1.0" encoding="UTF-8" standalone="no"?>
<!DOCTYPE svg PUBLIC "-//W3C//DTD SVG 1.1//EN"
 "http://www.w3.org/Graphics/SVG/1.1/DTD/svg11.dtd">
<!-- Generated by graphviz version 2.47.1 (20210417.1919)
 -->
<!-- Title: G Pages: 1 -->
<svg width="2884pt" height="2203pt"
 viewBox="0.00 0.00 2883.64 2203.00" xmlns="http://www.w3.org/2000/svg" xmlns:xlink="http://www.w3.org/1999/xlink">
<g id="graph0" class="graph" transform="scale(1 1) rotate(0) translate(4 2199)">
<title>G</title>
<polygon fill="white" stroke="transparent" points="-4,4 -4,-2199 2879.64,-2199 2879.64,4 -4,4"/>
<text text-anchor="middle" x="1437.82" y="-13.4" font-family="Times,serif" font-size="32.00">single contraction: 3 → 1</text>
<!-- t -->
<g id="node1" class="node">
<title>t</title>
<ellipse fill="lightgray" stroke="black" cx="27" cy="-728" rx="27" ry="30.31"/>
<text text-anchor="middle" x="27" y="-719.9" font-family="Times,serif" font-size="32.00">t</text>
</g>
<!-- z0 -->
<g id="node2" class="node">
<title>z0</title>
<ellipse fill="none" stroke="black" stroke-dasharray="5,2" cx="2838.17" cy="-1962" rx="27" ry="18"/>
</g>
<!-- da -->
<g id="node3" class="node">
<title>da</title>
<ellipse fill="none" stroke="black" cx="2515.36" cy="-1962" rx="33.47" ry="30.31"/>
<text text-anchor="middle" x="2515.36" y="-1953.9" font-family="Times,serif" font-size="32.00">da</text>
</g>
<!-- z0&#45;&gt;da -->
<g id="edge1" class="edge">
<title>z0&#45;&gt;da</title>
<path fill="none" stroke="#000000" d="M2810.91,-1962C2755.52,-1962 2626.24,-1962 2558.88,-1962"/>
<polygon fill="#000000" stroke="#000000" points="2558.62,-1958.5 2548.62,-1962 2558.62,-1965.5 2558.62,-1958.5"/>
<text text-anchor="middle" x="2684.19" y="-2041.4" font-family="Times,serif" font-size="32.00">Mary |</text>
<text text-anchor="middle" x="2684.19" y="-2006.4" font-family="Times,serif" font-size="32.00"> John</text>
<text text-anchor="middle" x="2684.19" y="-1971.4" font-family="Times,serif" font-size="32.00">da &#45;k</text>
</g>
<!-- z1 -->
<g id="node4" class="node">
<title>z1</title>
<ellipse fill="none" stroke="black" stroke-dasharray="5,2" cx="2838.17" cy="-2090" rx="27" ry="18"/>
</g>
<!-- poss -->
<g id="node5" class="node">
<title>poss</title>
<ellipse fill="none" stroke="black" cx="2515.36" cy="-2090" rx="52.15" ry="30.31"/>
<text text-anchor="middle" x="2515.36" y="-2081.9" font-family="Times,serif" font-size="32.00">poss</text>
</g>
<!-- z1&#45;&gt;poss -->
<g id="edge2" class="edge">
<title>z1&#45;&gt;poss</title>
<path fill="none" stroke="#000000" d="M2810.91,-2090C2760.35,-2090 2648.25,-2090 2577.84,-2090"/>
<polygon fill="#000000" stroke="#000000" points="2577.77,-2086.5 2567.77,-2090 2577.77,-2093.5 2577.77,-2086.5"/>
<text text-anchor="middle" x="2684.19" y="-2169.4" font-family="Times,serif" font-size="32.00">Mary&#39;s |</text>
<text text-anchor="middle" x="2684.19" y="-2134.4" font-family="Times,serif" font-size="32.00"> John&#39;s</text>
<text text-anchor="middle" x="2684.19" y="-2099.4" font-family="Times,serif" font-size="32.00">poss</text>
</g>
<!-- z2 -->
<g id="node6" class="node">
<title>z2</title>
<ellipse fill="none" stroke="black" stroke-dasharray="5,2" cx="2838.17" cy="-1819" rx="27" ry="18"/>
</g>
<!-- d -->
<g id="node7" class="node">
<title>d</title>
<ellipse fill="none" stroke="black" cx="2515.36" cy="-993" rx="27" ry="30.31"/>
<text text-anchor="middle" x="2515.36" y="-984.9" font-family="Times,serif" font-size="32.00">d</text>
</g>
<!-- z2&#45;&gt;d -->
<g id="edge3" class="edge">
<title>z2&#45;&gt;d</title>
<path fill="none" stroke="#000000" d="M2830.32,-1801.37C2790.33,-1698.4 2586.86,-1174.53 2530.73,-1029.98"/>
<polygon fill="#000000" stroke="#000000" points="2533.98,-1028.68 2527.09,-1020.63 2527.45,-1031.22 2533.98,-1028.68"/>
<text text-anchor="middle" x="2684.19" y="-1705.4" font-family="Times,serif" font-size="32.00">the&#45;cause</text>
<text text-anchor="middle" x="2684.19" y="-1670.4" font-family="Times,serif" font-size="32.00">d &#45;k</text>
</g>
<!-- for -->
<g id="node8" class="node">
<title>for</title>
<ellipse fill="none" stroke="black" cx="2838.17" cy="-883" rx="37.45" ry="30.31"/>
<text text-anchor="middle" x="2838.17" y="-874.9" font-family="Times,serif" font-size="32.00">for</text>
</g>
<!-- d&#45;&gt;for -->
<g id="edge4" class="edge">
<title>d&#45;&gt;for</title>
<path fill="none" stroke="#000000" d="M2528.62,-966.12C2540.06,-944.46 2559.34,-915.34 2585.69,-901 2619.83,-882.42 2727.65,-880.96 2790.47,-881.8"/>
<polygon fill="#000000" stroke="#000000" points="2790.47,-885.3 2800.53,-881.96 2790.58,-878.31 2790.47,-885.3"/>
<text text-anchor="middle" x="2684.19" y="-945.4" font-family="Times,serif" font-size="32.00">for</text>
<text text-anchor="middle" x="2684.19" y="-910.4" font-family="Times,serif" font-size="32.00">=d *k for</text>
</g>
<!-- of -->
<g id="node9" class="node">
<title>of</title>
<ellipse fill="none" stroke="black" cx="2134.52" cy="-951" rx="30.31" ry="30.31"/>
<text text-anchor="middle" x="2134.52" y="-942.9" font-family="Times,serif" font-size="32.00">of</text>
</g>
<!-- d&#45;&gt;of -->
<g id="edge5" class="edge">
<title>d&#45;&gt;of</title>
<path fill="none" stroke="#000000" d="M2491.15,-979.44C2478.07,-972.53 2461.16,-964.82 2445.04,-961 2350.27,-938.57 2234.66,-942.88 2175.14,-947.31"/>
<polygon fill="#000000" stroke="#000000" points="2174.74,-943.83 2165.05,-948.11 2175.29,-950.81 2174.74,-943.83"/>
<text text-anchor="middle" x="2329.54" y="-1005.4" font-family="Times,serif" font-size="32.00">of</text>
<text text-anchor="middle" x="2329.54" y="-970.4" font-family="Times,serif" font-size="32.00">=d *k of</text>
</g>
<!-- about -->
<g id="node10" class="node">
<title>about</title>
<ellipse fill="none" stroke="black" cx="2134.52" cy="-1408" rx="61.54" ry="30.31"/>
<text text-anchor="middle" x="2134.52" y="-1399.9" font-family="Times,serif" font-size="32.00">about</text>
</g>
<!-- d&#45;&gt;about -->
<g id="edge6" class="edge">
<title>d&#45;&gt;about</title>
<path fill="none" stroke="#000000" d="M2513.77,-1023.48C2511.43,-1108.16 2500.02,-1343.27 2445.04,-1392 2377.97,-1451.44 2267.15,-1440.31 2197.9,-1425.27"/>
<polygon fill="#000000" stroke="#000000" points="2198.52,-1421.83 2188,-1423.04 2196.98,-1428.65 2198.52,-1421.83"/>
<text text-anchor="middle" x="2329.54" y="-1482.4" font-family="Times,serif" font-size="32.00">about</text>
<text text-anchor="middle" x="2329.54" y="-1447.4" font-family="Times,serif" font-size="32.00">=d *k about</text>
</g>
<!-- 1 -->
<g id="node13" class="node">
<title>1</title>
<ellipse fill="none" stroke="black" cx="1338.5" cy="-660" rx="27" ry="30.31"/>
<text text-anchor="middle" x="1338.5" y="-651.9" font-family="Times,serif" font-size="32.00">1</text>
</g>
<!-- d&#45;&gt;1 -->
<g id="edge48" class="edge">
<title>d&#45;&gt;1</title>
<path fill="none" stroke="#000000" d="M2514.13,-962.29C2511.99,-913.9 2500.44,-820.26 2445.04,-770 2319.97,-656.55 2206.85,-795.94 2073,-693 2058.82,-682.09 2070.22,-666.4 2055,-657 1987.7,-615.41 1956.11,-656.62 1877,-657 1785,-657.44 1762,-658.42 1670,-659 1563.1,-659.68 1436.74,-659.9 1375.87,-659.97"/>
<polygon fill="#000000" stroke="#000000" points="1375.63,-656.47 1365.64,-659.98 1375.64,-663.47 1375.63,-656.47"/>
<text text-anchor="middle" x="1966" y="-771.4" font-family="Times,serif" font-size="32.00">neglect |</text>
<text text-anchor="middle" x="1966" y="-736.4" font-family="Times,serif" font-size="32.00"> scorn |</text>
<text text-anchor="middle" x="1966" y="-701.4" font-family="Times,serif" font-size="32.00"> respect</text>
<text text-anchor="middle" x="1966" y="-666.4" font-family="Times,serif" font-size="32.00">=d *k 1</text>
</g>
<!-- 2 -->
<g id="node17" class="node">
<title>2</title>
<ellipse fill="none" stroke="black" cx="1773.5" cy="-1597" rx="27" ry="30.31"/>
<text text-anchor="middle" x="1773.5" y="-1588.9" font-family="Times,serif" font-size="32.00">2</text>
</g>
<!-- d&#45;&gt;2 -->
<g id="edge42" class="edge">
<title>d&#45;&gt;2</title>
<path fill="none" stroke="#000000" d="M2514.94,-1023.73C2516.14,-1124.61 2514.29,-1443.21 2445.04,-1512 2267.81,-1688.05 1921.65,-1630.08 1810.07,-1605.56"/>
<polygon fill="#000000" stroke="#000000" points="1810.55,-1602.08 1800.02,-1603.3 1809.01,-1608.91 1810.55,-1602.08"/>
<text text-anchor="middle" x="2134.52" y="-1679.4" font-family="Times,serif" font-size="32.00">fear</text>
<text text-anchor="middle" x="2134.52" y="-1644.4" font-family="Times,serif" font-size="32.00">=d *k 2</text>
</g>
<!-- 3 -->
<g id="node18" class="node">
<title>3</title>
<ellipse fill="none" stroke="black" cx="1773.5" cy="-500" rx="27" ry="30.31"/>
<text text-anchor="middle" x="1773.5" y="-491.9" font-family="Times,serif" font-size="32.00">3</text>
</g>
<!-- d&#45;&gt;3 -->
<g id="edge53" class="edge">
<title>d&#45;&gt;3</title>
<path fill="none" stroke="#000000" d="M2510.69,-962.72C2502.23,-897.67 2479.41,-747.54 2445.04,-711 2326.37,-584.84 2238.2,-647.04 2073,-595 1977.53,-564.93 1865.05,-528.99 1809.36,-511.17"/>
<polygon fill="#000000" stroke="#000000" points="1810.23,-507.77 1799.64,-508.06 1808.1,-514.44 1810.23,-507.77"/>
<text text-anchor="middle" x="2134.52" y="-663.4" font-family="Times,serif" font-size="32.00">disdain</text>
<text text-anchor="middle" x="2134.52" y="-628.4" font-family="Times,serif" font-size="32.00">=d *k 3</text>
</g>
<!-- 4 -->
<g id="node19" class="node">
<title>4</title>
<ellipse fill="none" stroke="black" cx="1773.5" cy="-323" rx="27" ry="30.31"/>
<text text-anchor="middle" x="1773.5" y="-314.9" font-family="Times,serif" font-size="32.00">4</text>
</g>
<!-- d&#45;&gt;4 -->
<g id="edge59" class="edge">
<title>d&#45;&gt;4</title>
<path fill="none" stroke="#000000" d="M2511.63,-962.8C2504.07,-884.2 2481.05,-675.31 2445.04,-617 2302.07,-385.48 1929.34,-335.58 1811.07,-325.45"/>
<polygon fill="#000000" stroke="#000000" points="1811,-321.93 1800.75,-324.61 1810.44,-328.91 1811,-321.93"/>
<text text-anchor="middle" x="2134.52" y="-462.4" font-family="Times,serif" font-size="32.00">doubt</text>
<text text-anchor="middle" x="2134.52" y="-427.4" font-family="Times,serif" font-size="32.00">=d *k 4</text>
</g>
<!-- for&#45;&gt;d -->
<g id="edge25" class="edge">
<title>for&#45;&gt;d</title>
<path fill="none" stroke="#000000" d="M2827.14,-912.31C2818.63,-932.42 2804.29,-957.77 2782.69,-971 2710.73,-1015.07 2606.59,-1007.62 2552.32,-999.62"/>
<polygon fill="#000000" stroke="#000000" points="2552.57,-996.12 2542.15,-998.02 2551.49,-1003.03 2552.57,-996.12"/>
<text text-anchor="middle" x="2684.19" y="-1120.4" font-family="Times,serif" font-size="32.00">hope_3 |</text>
<text text-anchor="middle" x="2684.19" y="-1085.4" font-family="Times,serif" font-size="32.00"> respect_1 |</text>
<text text-anchor="middle" x="2684.19" y="-1050.4" font-family="Times,serif" font-size="32.00"> disdain_1</text>
<text text-anchor="middle" x="2684.19" y="-1015.4" font-family="Times,serif" font-size="32.00">=for poss= d &#45;k</text>
</g>
<!-- 0 -->
<g id="node11" class="node">
<title>0</title>
<ellipse fill="none" stroke="black" cx="941" cy="-1438" rx="27" ry="30.31"/>
<text text-anchor="middle" x="941" y="-1429.9" font-family="Times,serif" font-size="32.00">0</text>
</g>
<!-- for&#45;&gt;0 -->
<g id="edge20" class="edge">
<title>for&#45;&gt;0</title>
<path fill="none" stroke="#000000" d="M2836.84,-913.82C2835.08,-1058.13 2825.21,-1663.18 2782.69,-1735 2711.26,-1855.63 2656.55,-1904 2516.36,-1904 2516.36,-1904 2516.36,-1904 1772.5,-1904 1633.03,-1904 1590.86,-1935.46 1459,-1890 1343.92,-1850.32 1300.89,-1833.99 1236,-1731 1211.23,-1691.68 1243.36,-1666.94 1218,-1628 1166.94,-1549.6 1119.82,-1564.41 1043,-1511 1018.91,-1494.25 992,-1474.76 972.01,-1460.13"/>
<polygon fill="#000000" stroke="#000000" points="974.04,-1457.27 963.9,-1454.18 969.9,-1462.92 974.04,-1457.27"/>
<text text-anchor="middle" x="1966" y="-1948.4" font-family="Times,serif" font-size="32.00">hope</text>
<text text-anchor="middle" x="1966" y="-1913.4" font-family="Times,serif" font-size="32.00">=for 0</text>
</g>
<!-- a -->
<g id="node12" class="node">
<title>a</title>
<ellipse fill="none" stroke="black" cx="1773.5" cy="-1074" rx="27" ry="30.31"/>
<text text-anchor="middle" x="1773.5" y="-1065.9" font-family="Times,serif" font-size="32.00">a</text>
</g>
<!-- for&#45;&gt;a -->
<g id="edge26" class="edge">
<title>for&#45;&gt;a</title>
<path fill="none" stroke="#000000" d="M2803.84,-870.51C2666.5,-821.41 2139.28,-656.79 1877,-917 1838.09,-955.6 1892.7,-995.78 1859,-1039 1847.16,-1054.18 1827.59,-1062.83 1810.27,-1067.73"/>
<polygon fill="#000000" stroke="#000000" points="1809.25,-1064.38 1800.4,-1070.21 1810.95,-1071.17 1809.25,-1064.38"/>
<text text-anchor="middle" x="2329.54" y="-828.4" font-family="Times,serif" font-size="32.00">hopeful</text>
<text text-anchor="middle" x="2329.54" y="-793.4" font-family="Times,serif" font-size="32.00">=for a</text>
</g>
<!-- for&#45;&gt;1 -->
<g id="edge21" class="edge">
<title>for&#45;&gt;1</title>
<path fill="none" stroke="#000000" d="M2822.15,-855.37C2812.42,-839.28 2798.62,-819.39 2782.69,-805 2567.71,-610.83 2480.83,-574 2196.04,-521 1960.95,-477.25 1905.44,-592.14 1670,-634 1564.42,-652.77 1437.46,-657.99 1376.17,-659.44"/>
<polygon fill="#000000" stroke="#000000" points="1375.78,-655.95 1365.86,-659.66 1375.93,-662.95 1375.78,-655.95"/>
<text text-anchor="middle" x="2134.52" y="-565.4" font-family="Times,serif" font-size="32.00">hope_1</text>
<text text-anchor="middle" x="2134.52" y="-530.4" font-family="Times,serif" font-size="32.00">=for 1</text>
</g>
<!-- v -->
<g id="node14" class="node">
<title>v</title>
<ellipse fill="none" stroke="black" cx="248.5" cy="-881" rx="27" ry="30.31"/>
<text text-anchor="middle" x="248.5" y="-872.9" font-family="Times,serif" font-size="32.00">v</text>
</g>
<!-- for&#45;&gt;v -->
<g id="edge22" class="edge">
<title>for&#45;&gt;v</title>
<path fill="none" stroke="#000000" d="M2835.48,-913.64C2831.7,-964.81 2819.7,-1069.91 2782.69,-1150 2680.6,-1370.89 2632.63,-1426 2445.04,-1581 2349.11,-1660.26 2314.17,-1669.92 2196.04,-1709 1704.73,-1871.53 1555.98,-1939.18 1043,-1871 702.43,-1825.74 496.71,-1870.96 331,-1570 268.91,-1457.24 253.69,-1052.47 250.35,-921.91"/>
<polygon fill="#000000" stroke="#000000" points="253.84,-921.47 250.1,-911.56 246.85,-921.64 253.84,-921.47"/>
<text text-anchor="middle" x="1564.5" y="-1939.4" font-family="Times,serif" font-size="32.00">hope_2</text>
<text text-anchor="middle" x="1564.5" y="-1904.4" font-family="Times,serif" font-size="32.00">=for =da v</text>
</g>
<!-- perf -->
<g id="node15" class="node">
<title>perf</title>
<ellipse fill="none" stroke="black" cx="601" cy="-745" rx="48.17" ry="30.31"/>
<text text-anchor="middle" x="601" y="-736.9" font-family="Times,serif" font-size="32.00">perf</text>
</g>
<!-- for&#45;&gt;perf -->
<g id="edge24" class="edge">
<title>for&#45;&gt;perf</title>
<path fill="none" stroke="#000000" d="M2836.64,-852.34C2834.22,-725.03 2822.45,-242.14 2782.69,-188 2707.18,-85.19 2643.93,-81 2516.36,-81 2516.36,-81 2516.36,-81 940,-81 838.19,-81 726.03,-291.18 703,-339 642.65,-464.32 616.07,-629.33 606.51,-704.53"/>
<polygon fill="#000000" stroke="#000000" points="603.03,-704.17 605.27,-714.53 609.98,-705.03 603.03,-704.17"/>
<text text-anchor="middle" x="1773.5" y="-125.4" font-family="Times,serif" font-size="32.00">hopen</text>
<text text-anchor="middle" x="1773.5" y="-90.4" font-family="Times,serif" font-size="32.00">=for =da perf</text>
</g>
<!-- prog -->
<g id="node16" class="node">
<title>prog</title>
<ellipse fill="none" stroke="black" cx="941" cy="-745" rx="52.15" ry="30.31"/>
<text text-anchor="middle" x="941" y="-736.9" font-family="Times,serif" font-size="32.00">prog</text>
</g>
<!-- for&#45;&gt;prog -->
<g id="edge23" class="edge">
<title>for&#45;&gt;prog</title>
<path fill="none" stroke="#000000" d="M2837.48,-852.3C2837.15,-716.8 2816.89,-179 2516.36,-179 2516.36,-179 2516.36,-179 1772.5,-179 1690.19,-179 1097.29,-246.13 1043,-308 1013.51,-341.61 1050.55,-673.31 1025,-710 1018.71,-719.04 1009.59,-725.75 999.69,-730.74"/>
<polygon fill="#000000" stroke="#000000" points="998.15,-727.59 990.42,-734.85 1000.98,-733.99 998.15,-727.59"/>
<text text-anchor="middle" x="1966" y="-223.4" font-family="Times,serif" font-size="32.00">hopeing</text>
<text text-anchor="middle" x="1966" y="-188.4" font-family="Times,serif" font-size="32.00">=for =da prog</text>
</g>
<!-- of&#45;&gt;d -->
<g id="edge32" class="edge">
<title>of&#45;&gt;d</title>
<path fill="none" stroke="#000000" d="M2151.75,-976.14C2165.68,-995.19 2187.66,-1019.93 2214.04,-1031 2261.37,-1050.87 2395.31,-1043.74 2445.04,-1031 2458.36,-1027.59 2471.88,-1021.02 2483.39,-1014.3"/>
<polygon fill="#000000" stroke="#000000" points="2485.46,-1017.14 2492.16,-1008.93 2481.8,-1011.17 2485.46,-1017.14"/>
<text text-anchor="middle" x="2329.54" y="-1228.4" font-family="Times,serif" font-size="32.00">boast_3 |</text>
<text text-anchor="middle" x="2329.54" y="-1193.4" font-family="Times,serif" font-size="32.00"> fear_1 |</text>
<text text-anchor="middle" x="2329.54" y="-1158.4" font-family="Times,serif" font-size="32.00"> neglect_1 |</text>
<text text-anchor="middle" x="2329.54" y="-1123.4" font-family="Times,serif" font-size="32.00"> scorn_1 |</text>
<text text-anchor="middle" x="2329.54" y="-1088.4" font-family="Times,serif" font-size="32.00"> doubt_1</text>
<text text-anchor="middle" x="2329.54" y="-1053.4" font-family="Times,serif" font-size="32.00">=of poss= d &#45;k</text>
</g>
<!-- of&#45;&gt;0 -->
<g id="edge27" class="edge">
<title>of&#45;&gt;0</title>
<path fill="none" stroke="#000000" d="M2132.85,-981.4C2130.17,-1071.34 2117.07,-1333.15 2055,-1385 1994.28,-1435.72 1956.11,-1385.76 1877,-1385 1784.99,-1384.11 1762.01,-1381.89 1670,-1381 1623.11,-1380.55 1499.32,-1357.06 1459,-1381 1444.63,-1389.53 1455.16,-1405.13 1441,-1414 1364.07,-1462.2 1079.28,-1447.62 978.02,-1440.7"/>
<polygon fill="#000000" stroke="#000000" points="978.2,-1437.21 967.98,-1440 977.71,-1444.19 978.2,-1437.21"/>
<text text-anchor="middle" x="1564.5" y="-1425.4" font-family="Times,serif" font-size="32.00">boast</text>
<text text-anchor="middle" x="1564.5" y="-1390.4" font-family="Times,serif" font-size="32.00">=of 0</text>
</g>
<!-- of&#45;&gt;a -->
<g id="edge33" class="edge">
<title>of&#45;&gt;a</title>
<path fill="none" stroke="#000000" d="M2105.4,-941.14C2054.65,-925.26 1946.57,-900.44 1877,-949 1857.98,-962.28 1872.01,-978.79 1859,-998 1844.65,-1019.2 1823.13,-1038.44 1805.4,-1052.25"/>
<polygon fill="#000000" stroke="#000000" points="1802.91,-1049.75 1797.05,-1058.58 1807.14,-1055.33 1802.91,-1049.75"/>
<text text-anchor="middle" x="1966" y="-1203.4" font-family="Times,serif" font-size="32.00">boastful |</text>
<text text-anchor="middle" x="1966" y="-1168.4" font-family="Times,serif" font-size="32.00"> fearful |</text>
<text text-anchor="middle" x="1966" y="-1133.4" font-family="Times,serif" font-size="32.00"> neglectful |</text>
<text text-anchor="middle" x="1966" y="-1098.4" font-family="Times,serif" font-size="32.00"> scornful |</text>
<text text-anchor="middle" x="1966" y="-1063.4" font-family="Times,serif" font-size="32.00"> respectful |</text>
<text text-anchor="middle" x="1966" y="-1028.4" font-family="Times,serif" font-size="32.00"> disdainful |</text>
<text text-anchor="middle" x="1966" y="-993.4" font-family="Times,serif" font-size="32.00"> doubtful</text>
<text text-anchor="middle" x="1966" y="-958.4" font-family="Times,serif" font-size="32.00">=of a</text>
</g>
<!-- of&#45;&gt;1 -->
<g id="edge28" class="edge">
<title>of&#45;&gt;1</title>
<path fill="none" stroke="#000000" d="M2123.25,-922.48C2111.41,-893.95 2089.08,-851.21 2055,-829 1987.9,-785.28 1939.61,-850.93 1877,-801 1860.16,-787.57 1875.74,-769.55 1859,-756 1718.79,-642.49 1635.93,-722.22 1459,-687 1430.65,-681.36 1398.73,-674.1 1375.01,-668.53"/>
<polygon fill="#000000" stroke="#000000" points="1375.6,-665.07 1365.06,-666.18 1373.99,-671.88 1375.6,-665.07"/>
<text text-anchor="middle" x="1773.5" y="-800.4" font-family="Times,serif" font-size="32.00">boast_1</text>
<text text-anchor="middle" x="1773.5" y="-765.4" font-family="Times,serif" font-size="32.00">=of 1</text>
</g>
<!-- of&#45;&gt;v -->
<g id="edge29" class="edge">
<title>of&#45;&gt;v</title>
<path fill="none" stroke="#000000" d="M2132.39,-981.53C2128.51,-1067.53 2112.6,-1308.65 2055,-1357 2004.27,-1399.58 1519.62,-1340.32 1459,-1367 1448.35,-1371.69 1451.69,-1381.4 1441,-1386 1357.3,-1422 1321.67,-1417.02 1236,-1386 1226.21,-1382.45 1227.18,-1375.91 1218,-1371 931.51,-1217.85 821.02,-1278.47 517,-1164 431.77,-1131.91 394.07,-1143.7 331,-1078 288.52,-1033.75 266.89,-964.24 256.91,-920.72"/>
<polygon fill="#000000" stroke="#000000" points="260.29,-919.79 254.73,-910.77 253.45,-921.29 260.29,-919.79"/>
<text text-anchor="middle" x="1130.5" y="-1415.4" font-family="Times,serif" font-size="32.00">boast_2</text>
<text text-anchor="middle" x="1130.5" y="-1380.4" font-family="Times,serif" font-size="32.00">=of =da v</text>
</g>
<!-- of&#45;&gt;perf -->
<g id="edge31" class="edge">
<title>of&#45;&gt;perf</title>
<path fill="none" stroke="#000000" d="M2107.36,-936.66C2057.49,-911.47 1947.48,-866.5 1877,-917 1856.78,-931.49 1878.94,-955.12 1859,-970 1803.48,-1011.42 1297.35,-961.83 1236,-994 1224.19,-1000.19 1229.93,-1012.04 1218,-1018 1148.43,-1052.78 1118.07,-1038.35 1043,-1018 873.96,-972.17 707.21,-838.39 636.85,-776.76"/>
<polygon fill="#000000" stroke="#000000" points="638.97,-773.96 629.15,-769.96 634.34,-779.2 638.97,-773.96"/>
<text text-anchor="middle" x="1338.5" y="-1038.4" font-family="Times,serif" font-size="32.00">boastn</text>
<text text-anchor="middle" x="1338.5" y="-1003.4" font-family="Times,serif" font-size="32.00">=of =da perf</text>
</g>
<!-- of&#45;&gt;prog -->
<g id="edge30" class="edge">
<title>of&#45;&gt;prog</title>
<path fill="none" stroke="#000000" d="M2120.39,-923.94C2107.39,-900.59 2085.09,-868.42 2055,-854 2047.53,-850.42 1465.26,-857.41 1459,-852 1418.19,-816.74 1481.86,-767.19 1441,-732 1371.96,-672.54 1327.09,-729.99 1236,-732 1155.65,-733.78 1063.04,-738.28 1003.57,-741.48"/>
<polygon fill="#000000" stroke="#000000" points="1003.02,-738.01 993.23,-742.05 1003.4,-745 1003.02,-738.01"/>
<text text-anchor="middle" x="1564.5" y="-899.4" font-family="Times,serif" font-size="32.00">boasting</text>
<text text-anchor="middle" x="1564.5" y="-864.4" font-family="Times,serif" font-size="32.00">=of =da prog</text>
</g>
<!-- about&#45;&gt;d -->
<g id="edge39" class="edge">
<title>about&#45;&gt;d</title>
<path fill="none" stroke="#000000" d="M2145.59,-1377.9C2157.15,-1348.41 2179.16,-1304.81 2214.04,-1283 2301.59,-1228.25 2366.82,-1325.42 2445.04,-1258 2478.8,-1228.9 2500.29,-1100.31 2509.38,-1033.55"/>
<polygon fill="#000000" stroke="#000000" points="2512.88,-1033.76 2510.73,-1023.39 2505.94,-1032.84 2512.88,-1033.76"/>
<text text-anchor="middle" x="2329.54" y="-1362.4" font-family="Times,serif" font-size="32.00">boast_7 |</text>
<text text-anchor="middle" x="2329.54" y="-1327.4" font-family="Times,serif" font-size="32.00"> doubt_2</text>
<text text-anchor="middle" x="2329.54" y="-1292.4" font-family="Times,serif" font-size="32.00">=about poss= d &#45;k</text>
</g>
<!-- about&#45;&gt;0 -->
<g id="edge34" class="edge">
<title>about&#45;&gt;0</title>
<path fill="none" stroke="#000000" d="M2090.42,-1429.39C2079.15,-1434.06 2066.84,-1438.39 2055,-1441 1887.8,-1477.88 1841.2,-1451.89 1670,-1455 1534.03,-1457.47 1045.7,-1452.2 1043,-1452 1021.4,-1450.43 997.38,-1447.16 978.18,-1444.18"/>
<polygon fill="#000000" stroke="#000000" points="978.49,-1440.69 968.06,-1442.57 977.38,-1447.6 978.49,-1440.69"/>
<text text-anchor="middle" x="1564.5" y="-1500.4" font-family="Times,serif" font-size="32.00">boast_4</text>
<text text-anchor="middle" x="1564.5" y="-1465.4" font-family="Times,serif" font-size="32.00">=about 0</text>
</g>
<!-- about&#45;&gt;a -->
<g id="edge40" class="edge">
<title>about&#45;&gt;a</title>
<path fill="none" stroke="#000000" d="M2123.18,-1377.9C2111.33,-1347.92 2089.06,-1302.74 2055,-1277 1989.63,-1227.6 1943.45,-1276.94 1877,-1229 1835.39,-1198.98 1805.92,-1146.43 1789.56,-1110.94"/>
<polygon fill="#000000" stroke="#000000" points="1792.58,-1109.11 1785.3,-1101.41 1786.19,-1111.97 1792.58,-1109.11"/>
<text text-anchor="middle" x="1966" y="-1356.4" font-family="Times,serif" font-size="32.00">boastful_1 |</text>
<text text-anchor="middle" x="1966" y="-1321.4" font-family="Times,serif" font-size="32.00"> doubtful_1</text>
<text text-anchor="middle" x="1966" y="-1286.4" font-family="Times,serif" font-size="32.00">=about a</text>
</g>
<!-- about&#45;&gt;1 -->
<g id="edge35" class="edge">
<title>about&#45;&gt;1</title>
<path fill="none" stroke="#000000" d="M2129,-1377.67C2121.33,-1337.57 2101.75,-1267.81 2055,-1232 1991.42,-1183.31 1931.29,-1262.87 1877,-1204 1840.89,-1164.85 1884.01,-1012.02 1859,-965 1813.53,-879.51 1741.12,-910.96 1688,-830 1670.85,-803.86 1692.1,-784.11 1670,-762 1601.42,-693.37 1551.3,-735.92 1459,-706 1429.63,-696.48 1396.96,-683.75 1373.22,-674.1"/>
<polygon fill="#000000" stroke="#000000" points="1374.52,-670.85 1363.94,-670.3 1371.87,-677.33 1374.52,-670.85"/>
<text text-anchor="middle" x="1773.5" y="-1009.4" font-family="Times,serif" font-size="32.00">boast_5</text>
<text text-anchor="middle" x="1773.5" y="-974.4" font-family="Times,serif" font-size="32.00">=about 1</text>
</g>
<!-- about&#45;&gt;v -->
<g id="edge36" class="edge">
<title>about&#45;&gt;v</title>
<path fill="none" stroke="#000000" d="M2126.65,-1438.43C2116.74,-1475.96 2095.07,-1539.61 2055,-1579 1987.17,-1645.69 1949.68,-1636.25 1859,-1665 1645.21,-1732.79 1074.86,-1839.31 857,-1786 588.47,-1720.29 465.64,-1695.45 331,-1454 279.69,-1361.98 257.75,-1036.23 251.5,-921.41"/>
<polygon fill="#000000" stroke="#000000" points="254.99,-921.09 250.96,-911.29 248,-921.46 254.99,-921.09"/>
<text text-anchor="middle" x="1130.5" y="-1845.4" font-family="Times,serif" font-size="32.00">boast_6</text>
<text text-anchor="middle" x="1130.5" y="-1810.4" font-family="Times,serif" font-size="32.00">=about =da v</text>
</g>
<!-- about&#45;&gt;perf -->
<g id="edge38" class="edge">
<title>about&#45;&gt;perf</title>
<path fill="none" stroke="#000000" d="M2111.27,-1436.45C2068.84,-1488.11 1970.59,-1595.7 1859,-1636 1646.95,-1712.58 1017.9,-1634.93 857,-1477 716.9,-1339.48 746.2,-1254.51 703,-1063 682.88,-973.78 717.27,-943.58 685,-858 673.81,-828.31 652.49,-799.56 634.27,-778.49"/>
<polygon fill="#000000" stroke="#000000" points="636.71,-775.97 627.46,-770.8 631.47,-780.61 636.71,-775.97"/>
<text text-anchor="middle" x="1338.5" y="-1701.4" font-family="Times,serif" font-size="32.00">boastn_1</text>
<text text-anchor="middle" x="1338.5" y="-1666.4" font-family="Times,serif" font-size="32.00">=about =da perf</text>
</g>
<!-- about&#45;&gt;prog -->
<g id="edge37" class="edge">
<title>about&#45;&gt;prog</title>
<path fill="none" stroke="#000000" d="M2072.93,-1408.22C2020.16,-1406.93 1942.1,-1401.39 1877,-1382 1838.56,-1370.55 1262.06,-1080.48 1236,-1050 1219.56,-1030.77 1237.29,-1012.37 1218,-996 1157.95,-945.03 1105.61,-1015.8 1043,-968 984.38,-923.24 958.82,-836.69 948.44,-785.57"/>
<polygon fill="#000000" stroke="#000000" points="951.83,-784.69 946.5,-775.54 944.96,-786.02 951.83,-784.69"/>
<text text-anchor="middle" x="1564.5" y="-1327.4" font-family="Times,serif" font-size="32.00">boasting_1</text>
<text text-anchor="middle" x="1564.5" y="-1292.4" font-family="Times,serif" font-size="32.00">=about =da prog</text>
</g>
<!-- 0&#45;&gt;t -->
<g id="edge7" class="edge">
<title>0&#45;&gt;t</title>
<path fill="none" stroke="#000000" d="M913.97,-1438.61C824.63,-1439.48 525.23,-1432.02 331,-1302 164.19,-1190.34 152.3,-1115.97 72,-932 48.48,-878.12 37.1,-810.6 31.92,-768.36"/>
<polygon fill="#000000" stroke="#000000" points="35.37,-767.72 30.73,-758.19 28.42,-768.53 35.37,-767.72"/>
<text text-anchor="middle" x="415" y="-1424.4" font-family="Times,serif" font-size="32.00">s</text>
<text text-anchor="middle" x="415" y="-1389.4" font-family="Times,serif" font-size="32.00">=&gt;0 =da +k t</text>
</g>
<!-- a&#45;&gt;0 -->
<g id="edge8" class="edge">
<title>a&#45;&gt;0</title>
<path fill="none" stroke="#000000" d="M1764.47,-1102.83C1751.76,-1142.24 1722.84,-1211.43 1670,-1241 1588.16,-1286.79 1540.27,-1287.79 1459,-1241 1445.19,-1233.05 1454.81,-1217.95 1441,-1210 1362.04,-1164.54 1304.18,-1149.56 1236,-1210 1186.09,-1254.25 1261.28,-1308.25 1218,-1359 1186.76,-1395.63 1045.53,-1421.96 978.07,-1432.68"/>
<polygon fill="#000000" stroke="#000000" points="977.25,-1429.26 967.91,-1434.26 978.33,-1436.18 977.25,-1429.26"/>
<text text-anchor="middle" x="1338.5" y="-1254.4" font-family="Times,serif" font-size="32.00">be</text>
<text text-anchor="middle" x="1338.5" y="-1219.4" font-family="Times,serif" font-size="32.00">=a 0</text>
</g>
<!-- a&#45;&gt;1 -->
<g id="edge10" class="edge">
<title>a&#45;&gt;1</title>
<path fill="none" stroke="#000000" d="M1752.52,-1054.23C1732.42,-1032.98 1702.41,-997.22 1688,-960 1673.65,-922.92 1698,-810.22 1670,-782 1636.78,-748.52 1501.82,-778.78 1459,-759 1449.01,-754.39 1449.29,-749.24 1441,-742 1417.46,-721.43 1389.81,-699.21 1369.32,-683.1"/>
<polygon fill="#000000" stroke="#000000" points="1371.31,-680.22 1361.28,-676.8 1367,-685.73 1371.31,-680.22"/>
<text text-anchor="middle" x="1564.5" y="-826.4" font-family="Times,serif" font-size="32.00">be_1</text>
<text text-anchor="middle" x="1564.5" y="-791.4" font-family="Times,serif" font-size="32.00">=a 1</text>
</g>
<!-- a&#45;&gt;v -->
<g id="edge11" class="edge">
<title>a&#45;&gt;v</title>
<path fill="none" stroke="#000000" d="M1748.79,-1086.31C1728.47,-1096.23 1698.11,-1109.54 1670,-1116 1436.29,-1169.73 1371.31,-1150 1131.5,-1150 1131.5,-1150 1131.5,-1150 600,-1150 446.63,-1150 319.02,-985.9 270.49,-914.04"/>
<polygon fill="#000000" stroke="#000000" points="273.16,-911.73 264.7,-905.35 267.33,-915.61 273.16,-911.73"/>
<text text-anchor="middle" x="941" y="-1194.4" font-family="Times,serif" font-size="32.00">be_2</text>
<text text-anchor="middle" x="941" y="-1159.4" font-family="Times,serif" font-size="32.00">=a =da v</text>
</g>
<!-- a&#45;&gt;perf -->
<g id="edge12" class="edge">
<title>a&#45;&gt;perf</title>
<path fill="none" stroke="#000000" d="M1747.09,-1081.67C1726.52,-1087.46 1696.69,-1094.92 1670,-1098 1576.84,-1108.76 1552.57,-1104.19 1459,-1098 1351.18,-1090.87 1325.61,-1075.74 1218,-1066 1189.47,-1063.42 723.75,-1060.75 703,-1041 673.4,-1012.83 699.62,-896.16 685,-858 673.65,-828.37 652.34,-799.62 634.16,-778.53"/>
<polygon fill="#000000" stroke="#000000" points="636.61,-776.02 627.37,-770.84 631.36,-780.65 636.61,-776.02"/>
<text text-anchor="middle" x="1130.5" y="-1110.4" font-family="Times,serif" font-size="32.00">ben</text>
<text text-anchor="middle" x="1130.5" y="-1075.4" font-family="Times,serif" font-size="32.00">=a =da perf</text>
</g>
<!-- a&#45;&gt;prog -->
<g id="edge13" class="edge">
<title>a&#45;&gt;prog</title>
<path fill="none" stroke="#000000" d="M1755.89,-1050.34C1737.74,-1026.51 1706.35,-990.79 1670,-973 1585.02,-931.43 1530.87,-1006.51 1459,-945 1437.52,-926.62 1461.64,-903.32 1441,-884 1372.82,-820.19 1326.15,-862.33 1236,-838 1151.47,-815.19 1054.96,-783.57 996.27,-763.71"/>
<polygon fill="#000000" stroke="#000000" points="997.07,-760.28 986.48,-760.38 994.82,-766.91 997.07,-760.28"/>
<text text-anchor="middle" x="1338.5" y="-928.4" font-family="Times,serif" font-size="32.00">being</text>
<text text-anchor="middle" x="1338.5" y="-893.4" font-family="Times,serif" font-size="32.00">=a =da prog</text>
</g>
<!-- 1&#45;&gt;t -->
<g id="edge9" class="edge">
<title>1&#45;&gt;t</title>
<path fill="none" stroke="#000000" d="M1311.52,-658.49C1288,-655.65 1254.31,-647.59 1236,-625 1195.11,-574.55 1250.09,-536.46 1218,-480 1164.32,-385.55 1123.6,-375.61 1025,-330 818.09,-234.29 743.58,-233.8 517,-259 366.22,-275.77 313.06,-254.25 184,-334 117.1,-375.34 104.6,-399.43 72,-471 39.52,-542.3 30.85,-634.66 28.64,-687.02"/>
<polygon fill="#000000" stroke="#000000" points="25.13,-687.13 28.27,-697.25 32.12,-687.38 25.13,-687.13"/>
<text text-anchor="middle" x="601" y="-303.4" font-family="Times,serif" font-size="32.00">d</text>
<text text-anchor="middle" x="601" y="-268.4" font-family="Times,serif" font-size="32.00">=&gt;1 =da +k t</text>
</g>
<!-- 1&#45;&gt;0 -->
<g id="edge47" class="edge">
<title>1&#45;&gt;0</title>
<path fill="none" stroke="#000000" d="M1314.77,-674.85C1256.18,-714.65 1100.55,-830.48 1043,-973 1001.12,-1076.71 1049.49,-1114.87 1025,-1224 1010.35,-1289.29 979.2,-1361 959.51,-1402.62"/>
<polygon fill="#000000" stroke="#000000" points="956.29,-1401.25 955.13,-1411.78 962.6,-1404.27 956.29,-1401.25"/>
<text text-anchor="middle" x="1130.5" y="-1017.4" font-family="Times,serif" font-size="32.00">ε_3</text>
<text text-anchor="middle" x="1130.5" y="-982.4" font-family="Times,serif" font-size="32.00">=&gt;1 0</text>
</g>
<!-- 1&#45;&gt;v -->
<g id="edge49" class="edge">
<title>1&#45;&gt;v</title>
<path fill="none" stroke="#000000" d="M1312.51,-651.36C1278.18,-639.5 1220.39,-619.57 1218,-619 994.19,-565.78 927.4,-516.33 703,-567 524.4,-607.32 441.91,-598.32 331,-744 303.12,-780.63 339.78,-808.56 313,-846 305.86,-855.98 294.96,-863.43 284.19,-868.84"/>
<polygon fill="#000000" stroke="#000000" points="282.52,-865.75 274.86,-873.07 285.41,-872.13 282.52,-865.75"/>
<text text-anchor="middle" x="771" y="-611.4" font-family="Times,serif" font-size="32.00">ε_4</text>
<text text-anchor="middle" x="771" y="-576.4" font-family="Times,serif" font-size="32.00">=&gt;1 =da v</text>
</g>
<!-- 1&#45;&gt;perf -->
<g id="edge51" class="edge">
<title>1&#45;&gt;perf</title>
<path fill="none" stroke="#000000" d="M1311.89,-654.27C1239.55,-639.05 1027.81,-601.02 857,-636 778.85,-652 695.04,-692.95 645.64,-719.85"/>
<polygon fill="#000000" stroke="#000000" points="643.9,-716.81 636.82,-724.7 647.27,-722.95 643.9,-716.81"/>
<text text-anchor="middle" x="941" y="-680.4" font-family="Times,serif" font-size="32.00">n_1</text>
<text text-anchor="middle" x="941" y="-645.4" font-family="Times,serif" font-size="32.00">=&gt;1 =da perf</text>
</g>
<!-- 1&#45;&gt;prog -->
<g id="edge50" class="edge">
<title>1&#45;&gt;prog</title>
<path fill="none" stroke="#000000" d="M1311.4,-656.59C1247.78,-648.83 1086.75,-632.61 1043,-661 1026.65,-671.61 1038.33,-686.78 1025,-701 1016.37,-710.2 1005.39,-717.86 994.25,-724.06"/>
<polygon fill="#000000" stroke="#000000" points="992.57,-721 985.33,-728.73 995.81,-727.2 992.57,-721"/>
<text text-anchor="middle" x="1130.5" y="-705.4" font-family="Times,serif" font-size="32.00">ing_1</text>
<text text-anchor="middle" x="1130.5" y="-670.4" font-family="Times,serif" font-size="32.00">=&gt;1 =da prog</text>
</g>
<!-- v&#45;&gt;t -->
<g id="edge14" class="edge">
<title>v&#45;&gt;t</title>
<path fill="none" stroke="#000000" d="M225.15,-865.55C212.98,-857.12 197.65,-846.5 184,-837 140.49,-806.73 90.26,-771.59 58.81,-749.58"/>
<polygon fill="#000000" stroke="#000000" points="60.66,-746.6 50.46,-743.73 56.64,-752.33 60.66,-746.6"/>
<text text-anchor="middle" x="119" y="-902.4" font-family="Times,serif" font-size="32.00">wills |</text>
<text text-anchor="middle" x="119" y="-867.4" font-family="Times,serif" font-size="32.00"> willd</text>
<text text-anchor="middle" x="119" y="-832.4" font-family="Times,serif" font-size="32.00">=v +k t</text>
</g>
<!-- perf&#45;&gt;t -->
<g id="edge15" class="edge">
<title>perf&#45;&gt;t</title>
<path fill="none" stroke="#000000" d="M552.7,-743.59C441.27,-740.28 164.12,-732.05 64.44,-729.08"/>
<polygon fill="#000000" stroke="#000000" points="64.37,-725.58 54.27,-728.78 64.16,-732.58 64.37,-725.58"/>
<text text-anchor="middle" x="248.5" y="-816.4" font-family="Times,serif" font-size="32.00">haves |</text>
<text text-anchor="middle" x="248.5" y="-781.4" font-family="Times,serif" font-size="32.00"> haved</text>
<text text-anchor="middle" x="248.5" y="-746.4" font-family="Times,serif" font-size="32.00">=perf +k t</text>
</g>
<!-- perf&#45;&gt;v -->
<g id="edge16" class="edge">
<title>perf&#45;&gt;v</title>
<path fill="none" stroke="#000000" d="M552.68,-745.21C484.62,-746.47 363.68,-752.64 331,-780 310.63,-797.06 328.77,-815.62 313,-837 304.96,-847.9 293.38,-857.05 282.31,-864.13"/>
<polygon fill="#000000" stroke="#000000" points="280.37,-861.21 273.61,-869.36 283.98,-867.21 280.37,-861.21"/>
<text text-anchor="middle" x="415" y="-824.4" font-family="Times,serif" font-size="32.00">have</text>
<text text-anchor="middle" x="415" y="-789.4" font-family="Times,serif" font-size="32.00">=perf v</text>
</g>
<!-- prog&#45;&gt;t -->
<g id="edge17" class="edge">
<title>prog&#45;&gt;t</title>
<path fill="none" stroke="#000000" d="M891.42,-734.48C878.26,-729.27 865.36,-721.52 857,-710 828.85,-671.19 866.03,-534.6 839,-495 744.1,-355.94 662.99,-366.1 499,-328 426.27,-311.1 397.86,-294.77 331,-328 174.35,-405.86 77.02,-607.67 42.34,-691.09"/>
<polygon fill="#000000" stroke="#000000" points="39.07,-689.84 38.51,-700.42 45.54,-692.5 39.07,-689.84"/>
<text text-anchor="middle" x="415" y="-407.4" font-family="Times,serif" font-size="32.00">bes |</text>
<text text-anchor="middle" x="415" y="-372.4" font-family="Times,serif" font-size="32.00"> bed</text>
<text text-anchor="middle" x="415" y="-337.4" font-family="Times,serif" font-size="32.00">=prog +k t</text>
</g>
<!-- prog&#45;&gt;v -->
<g id="edge18" class="edge">
<title>prog&#45;&gt;v</title>
<path fill="none" stroke="#000000" d="M913.24,-770.78C894.15,-787.53 866.98,-808.19 839,-819 641.42,-895.31 380.5,-888.99 285.8,-883.58"/>
<polygon fill="#000000" stroke="#000000" points="285.8,-880.08 275.6,-882.97 285.37,-887.06 285.8,-880.08"/>
<text text-anchor="middle" x="601" y="-926.4" font-family="Times,serif" font-size="32.00">be_3</text>
<text text-anchor="middle" x="601" y="-891.4" font-family="Times,serif" font-size="32.00">=prog v</text>
</g>
<!-- prog&#45;&gt;perf -->
<g id="edge19" class="edge">
<title>prog&#45;&gt;perf</title>
<path fill="none" stroke="#000000" d="M888.67,-745C827,-745 723.84,-745 659.54,-745"/>
<polygon fill="#000000" stroke="#000000" points="659.17,-741.5 649.17,-745 659.17,-748.5 659.17,-741.5"/>
<text text-anchor="middle" x="771" y="-789.4" font-family="Times,serif" font-size="32.00">ben_1</text>
<text text-anchor="middle" x="771" y="-754.4" font-family="Times,serif" font-size="32.00">=prog perf</text>
</g>
<!-- 2&#45;&gt;0 -->
<g id="edge41" class="edge">
<title>2&#45;&gt;0</title>
<path fill="none" stroke="#000000" d="M1746.13,-1598.25C1679.31,-1600.91 1505.38,-1604.54 1459,-1573 1443.88,-1562.72 1455.92,-1546.57 1441,-1536 1368.36,-1484.52 1128.18,-1515.91 1043,-1490 1018.4,-1482.52 992.67,-1469.17 973.33,-1457.88"/>
<polygon fill="#000000" stroke="#000000" points="975.04,-1454.82 964.66,-1452.69 971.45,-1460.83 975.04,-1454.82"/>
<text text-anchor="middle" x="1338.5" y="-1580.4" font-family="Times,serif" font-size="32.00">ε_0</text>
<text text-anchor="middle" x="1338.5" y="-1545.4" font-family="Times,serif" font-size="32.00">=&gt;2 0</text>
</g>
<!-- 2&#45;&gt;1 -->
<g id="edge43" class="edge">
<title>2&#45;&gt;1</title>
<path fill="none" stroke="#000000" d="M1769.72,-1566.88C1760.17,-1468.6 1726.17,-1158.92 1670,-1078 1607.19,-987.52 1516.84,-1041.74 1459,-948 1410.74,-869.79 1484.19,-823.12 1441,-742 1425.78,-713.4 1395.88,-691.17 1372.46,-677.11"/>
<polygon fill="#000000" stroke="#000000" points="1373.94,-673.92 1363.53,-671.95 1370.44,-679.98 1373.94,-673.92"/>
<text text-anchor="middle" x="1564.5" y="-1122.4" font-family="Times,serif" font-size="32.00">ε_1</text>
<text text-anchor="middle" x="1564.5" y="-1087.4" font-family="Times,serif" font-size="32.00">=&gt;2 1</text>
</g>
<!-- 2&#45;&gt;v -->
<g id="edge44" class="edge">
<title>2&#45;&gt;v</title>
<path fill="none" stroke="#000000" d="M1748.95,-1610.25C1695.98,-1639.19 1562.56,-1707.36 1441,-1731 1351.56,-1748.39 1327.02,-1735 1236,-1731 1149.97,-1727.22 1128.35,-1725.39 1043,-1714 890.83,-1693.69 840.09,-1722.11 703,-1653 500.02,-1550.67 434.56,-1504.35 331,-1302 303.22,-1247.72 323.64,-1226.04 313,-1166 297.29,-1077.37 272.83,-974.59 259.31,-919.91"/>
<polygon fill="#000000" stroke="#000000" points="262.64,-918.82 256.84,-909.96 255.85,-920.51 262.64,-918.82"/>
<text text-anchor="middle" x="941" y="-1756.4" font-family="Times,serif" font-size="32.00">ε_2</text>
<text text-anchor="middle" x="941" y="-1721.4" font-family="Times,serif" font-size="32.00">=&gt;2 =da v</text>
</g>
<!-- 2&#45;&gt;perf -->
<g id="edge46" class="edge">
<title>2&#45;&gt;perf</title>
<path fill="none" stroke="#000000" d="M1746.3,-1598.91C1585.86,-1610.51 741.47,-1669.59 703,-1632 672.23,-1601.94 698.87,-898.71 685,-858 674.77,-827.97 653.44,-799.22 634.96,-778.24"/>
<polygon fill="#000000" stroke="#000000" points="637.35,-775.66 628.05,-770.59 632.16,-780.36 637.35,-775.66"/>
<text text-anchor="middle" x="1130.5" y="-1684.4" font-family="Times,serif" font-size="32.00">n</text>
<text text-anchor="middle" x="1130.5" y="-1649.4" font-family="Times,serif" font-size="32.00">=&gt;2 =da perf</text>
</g>
<!-- 2&#45;&gt;prog -->
<g id="edge45" class="edge">
<title>2&#45;&gt;prog</title>
<path fill="none" stroke="#000000" d="M1746.9,-1591.23C1726.22,-1586.7 1696.33,-1580.44 1670,-1576 1623.36,-1568.14 1492.77,-1581.12 1459,-1548 1421.12,-1510.85 1468.51,-1475.36 1441,-1430 1382.45,-1333.47 1290.86,-1378.67 1236,-1280 1210.33,-1233.84 1251.38,-1083.93 1218,-1043 1166.88,-980.31 1103.21,-1047.01 1043,-993 981.72,-938.03 956.89,-840.44 947.41,-785.5"/>
<polygon fill="#000000" stroke="#000000" points="950.83,-784.73 945.76,-775.43 943.92,-785.86 950.83,-784.73"/>
<text text-anchor="middle" x="1338.5" y="-1474.4" font-family="Times,serif" font-size="32.00">ing</text>
<text text-anchor="middle" x="1338.5" y="-1439.4" font-family="Times,serif" font-size="32.00">=&gt;2 =da prog</text>
</g>
<!-- 3&#45;&gt;0 -->
<g id="edge52" class="edge">
<title>3&#45;&gt;0</title>
<path fill="none" stroke="#000000" d="M1759.68,-526.46C1743.19,-557.69 1711.66,-609.05 1670,-638 1649.38,-652.33 1251.55,-744.29 1236,-764 1210.16,-796.75 1237.83,-1102.3 1218,-1139 1172.31,-1223.54 1107.59,-1194.84 1043,-1266 1005.51,-1307.31 975.2,-1364.74 957.89,-1401.65"/>
<polygon fill="#000000" stroke="#000000" points="954.58,-1400.48 953.56,-1411.02 960.93,-1403.41 954.58,-1400.48"/>
<text text-anchor="middle" x="1338.5" y="-808.4" font-family="Times,serif" font-size="32.00">ε_5</text>
<text text-anchor="middle" x="1338.5" y="-773.4" font-family="Times,serif" font-size="32.00">=&gt;3 0</text>
</g>
<!-- 3&#45;&gt;1 -->
<g id="edge54" class="edge">
<title>3&#45;&gt;1</title>
<path fill="none" stroke="#000000" d="M1748.27,-511.88C1727.88,-521.33 1697.71,-534.09 1670,-541 1624.24,-552.42 1495.88,-534.6 1459,-564 1439.88,-579.25 1457.63,-598.06 1441,-616 1423.64,-634.73 1396.94,-645.87 1375.28,-652.25"/>
<polygon fill="#000000" stroke="#000000" points="1374.15,-648.93 1365.42,-654.94 1375.99,-655.69 1374.15,-648.93"/>
<text text-anchor="middle" x="1564.5" y="-608.4" font-family="Times,serif" font-size="32.00">ε_6</text>
<text text-anchor="middle" x="1564.5" y="-573.4" font-family="Times,serif" font-size="32.00">=&gt;3 1</text>
</g>
<!-- 3&#45;&gt;v -->
<g id="edge55" class="edge">
<title>3&#45;&gt;v</title>
<path fill="none" stroke="#000000" d="M1757.62,-475.15C1740.27,-448.76 1708.95,-408.38 1670,-390 1506.52,-312.87 1033,-374.78 857,-416 614.24,-472.86 481.12,-411.93 331,-611 299.47,-652.82 341.34,-801.95 313,-846 306.19,-856.59 295.01,-864.24 283.91,-869.64"/>
<polygon fill="#000000" stroke="#000000" points="282.47,-866.45 274.71,-873.66 285.28,-872.87 282.47,-866.45"/>
<text text-anchor="middle" x="941" y="-460.4" font-family="Times,serif" font-size="32.00">ε_7</text>
<text text-anchor="middle" x="941" y="-425.4" font-family="Times,serif" font-size="32.00">=&gt;3 =da v</text>
</g>
<!-- 3&#45;&gt;perf -->
<g id="edge57" class="edge">
<title>3&#45;&gt;perf</title>
<path fill="none" stroke="#000000" d="M1752.71,-479.77C1733.51,-461.71 1702.58,-436.53 1670,-426 1580.77,-397.16 1534.78,-370.76 1459,-426 1437.87,-441.4 1462.09,-466.55 1441,-482 1436.54,-485.27 1048.37,-482.7 1043,-484 944.11,-508.02 932.39,-547.56 839,-588 780.04,-613.53 756.66,-601.66 703,-637 673.66,-656.32 646.82,-685.85 628.2,-709.16"/>
<polygon fill="#000000" stroke="#000000" points="625.38,-707.08 621.96,-717.11 630.89,-711.4 625.38,-707.08"/>
<text text-anchor="middle" x="1130.5" y="-528.4" font-family="Times,serif" font-size="32.00">n_2</text>
<text text-anchor="middle" x="1130.5" y="-493.4" font-family="Times,serif" font-size="32.00">=&gt;3 =da perf</text>
</g>
<!-- 3&#45;&gt;prog -->
<g id="edge56" class="edge">
<title>3&#45;&gt;prog</title>
<path fill="none" stroke="#000000" d="M1749.31,-486.01C1693.34,-454.26 1548.87,-384.46 1459,-451 1436.97,-467.31 1461.32,-491.59 1441,-510 1372.14,-572.38 1324.29,-522.05 1236,-551 1146.07,-580.49 1103.6,-568.3 1043,-641 1022.71,-665.35 1045.74,-686.04 1025,-710 1018.02,-718.06 1008.87,-724.32 999.2,-729.15"/>
<polygon fill="#000000" stroke="#000000" points="997.51,-726.07 989.82,-733.36 1000.37,-732.46 997.51,-726.07"/>
<text text-anchor="middle" x="1338.5" y="-595.4" font-family="Times,serif" font-size="32.00">ing_2</text>
<text text-anchor="middle" x="1338.5" y="-560.4" font-family="Times,serif" font-size="32.00">=&gt;3 =da prog</text>
</g>
<!-- 4&#45;&gt;0 -->
<g id="edge58" class="edge">
<title>4&#45;&gt;0</title>
<path fill="none" stroke="#000000" d="M1746.53,-326.75C1644.21,-341.77 1272.72,-398.52 1236,-436 1205.92,-466.69 1242.21,-495.49 1218,-531 1166.25,-606.9 1088.67,-561.29 1043,-641 1010.78,-697.23 1037.9,-1160.49 1025,-1224 1011.64,-1289.76 979.95,-1361.59 959.82,-1403.06"/>
<polygon fill="#000000" stroke="#000000" points="956.6,-1401.67 955.34,-1412.19 962.89,-1404.75 956.6,-1401.67"/>
<text text-anchor="middle" x="1338.5" y="-480.4" font-family="Times,serif" font-size="32.00">ε_8</text>
<text text-anchor="middle" x="1338.5" y="-445.4" font-family="Times,serif" font-size="32.00">=&gt;4 0</text>
</g>
<!-- 4&#45;&gt;1 -->
<g id="edge60" class="edge">
<title>4&#45;&gt;1</title>
<path fill="none" stroke="#000000" d="M1751.99,-342.08C1732.28,-359.53 1700.99,-384.99 1670,-401 1582.7,-446.1 1521.84,-391.47 1459,-467 1416.34,-518.28 1480.89,-562.54 1441,-616 1425.46,-636.82 1398,-647.93 1375.56,-653.77"/>
<polygon fill="#000000" stroke="#000000" points="1374.59,-650.4 1365.66,-656.1 1376.2,-657.21 1374.59,-650.4"/>
<text text-anchor="middle" x="1564.5" y="-511.4" font-family="Times,serif" font-size="32.00">ε_9</text>
<text text-anchor="middle" x="1564.5" y="-476.4" font-family="Times,serif" font-size="32.00">=&gt;4 1</text>
</g>
<!-- 4&#45;&gt;v -->
<g id="edge61" class="edge">
<title>4&#45;&gt;v</title>
<path fill="none" stroke="#000000" d="M1756.49,-298.99C1738.62,-274.41 1707.25,-237.42 1670,-220 1577.46,-176.72 1542.84,-208.12 1441,-200 1181.92,-179.35 1107.2,-99.67 857,-170 770.78,-194.24 770.12,-247.14 685,-275 609.97,-299.56 385.38,-247.76 331,-305 289.58,-348.6 344.44,-794.73 313,-846 306.42,-856.73 295.29,-864.42 284.17,-869.8"/>
<polygon fill="#000000" stroke="#000000" points="282.72,-866.62 274.93,-873.8 285.5,-873.04 282.72,-866.62"/>
<text text-anchor="middle" x="941" y="-214.4" font-family="Times,serif" font-size="32.00">ε_10</text>
<text text-anchor="middle" x="941" y="-179.4" font-family="Times,serif" font-size="32.00">=&gt;4 =da v</text>
</g>
<!-- 4&#45;&gt;perf -->
<g id="edge63" class="edge">
<title>4&#45;&gt;perf</title>
<path fill="none" stroke="#000000" d="M1748.94,-309.34C1728.71,-298.32 1698.4,-283.46 1670,-276 1399.98,-205.06 1314.85,-174.44 1043,-238 845.33,-284.21 808.21,-369.39 703,-543 669.73,-597.91 637.7,-665.22 618.93,-706.6"/>
<polygon fill="#000000" stroke="#000000" points="615.71,-705.23 614.79,-715.78 622.09,-708.1 615.71,-705.23"/>
<text text-anchor="middle" x="1130.5" y="-282.4" font-family="Times,serif" font-size="32.00">n_3</text>
<text text-anchor="middle" x="1130.5" y="-247.4" font-family="Times,serif" font-size="32.00">=&gt;4 =da perf</text>
</g>
<!-- 4&#45;&gt;prog -->
<g id="edge62" class="edge">
<title>4&#45;&gt;prog</title>
<path fill="none" stroke="#000000" d="M1746.88,-316.52C1668.34,-297.82 1424.83,-248.7 1236,-306 1137.27,-335.96 1094.58,-345.64 1043,-435 1012.39,-488.04 1060.51,-660.1 1025,-710 1018.61,-718.97 1009.46,-725.66 999.54,-730.64"/>
<polygon fill="#000000" stroke="#000000" points="998,-727.49 990.27,-734.74 1000.84,-733.89 998,-727.49"/>
<text text-anchor="middle" x="1338.5" y="-350.4" font-family="Times,serif" font-size="32.00">ing_3</text>
<text text-anchor="middle" x="1338.5" y="-315.4" font-family="Times,serif" font-size="32.00">=&gt;4 =da prog</text>
</g>
</g>
</svg>
