<?xml version="1.0" encoding="UTF-8" standalone="no"?>
<!DOCTYPE svg PUBLIC "-//W3C//DTD SVG 1.1//EN"
 "http://www.w3.org/Graphics/SVG/1.1/DTD/svg11.dtd">
<!-- Generated by graphviz version 2.47.1 (20210417.1919)
 -->
<!-- Title: G Pages: 1 -->
<svg width="2934pt" height="2298pt"
 viewBox="0.00 0.00 2933.57 2298.41" xmlns="http://www.w3.org/2000/svg" xmlns:xlink="http://www.w3.org/1999/xlink">
<g id="graph0" class="graph" transform="scale(1 1) rotate(0) translate(4 2294.41)">
<title>G</title>
<polygon fill="white" stroke="transparent" points="-4,4 -4,-2294.41 2929.57,-2294.41 2929.57,4 -4,4"/>
<text text-anchor="middle" x="1462.79" y="-13.4" font-family="Times,serif" font-size="32.00">replacement: =&gt;9 7 with =&gt;9 10, =&gt;10 7; =&gt;9 6 with =&gt;9 10, =&gt;10 6</text>
<!-- t -->
<g id="node1" class="node">
<title>t</title>
<ellipse fill="lightgray" stroke="black" cx="27" cy="-1258.41" rx="27" ry="30.31"/>
<text text-anchor="middle" x="27" y="-1250.31" font-family="Times,serif" font-size="32.00">t</text>
</g>
<!-- z0 -->
<g id="node2" class="node">
<title>z0</title>
<ellipse fill="none" stroke="black" stroke-dasharray="5,2" cx="2898.57" cy="-2002.41" rx="27" ry="18"/>
</g>
<!-- da -->
<g id="node3" class="node">
<title>da</title>
<ellipse fill="none" stroke="black" cx="2680.24" cy="-2002.41" rx="33.47" ry="30.31"/>
<text text-anchor="middle" x="2680.24" y="-1994.31" font-family="Times,serif" font-size="32.00">da</text>
</g>
<!-- z0&#45;&gt;da -->
<g id="edge1" class="edge">
<title>z0&#45;&gt;da</title>
<path fill="none" stroke="#000000" d="M2871.48,-2002.41C2834.86,-2002.41 2767.79,-2002.41 2723.87,-2002.41"/>
<polygon fill="#000000" stroke="#000000" points="2723.78,-1998.91 2713.78,-2002.41 2723.78,-2005.91 2723.78,-1998.91"/>
<text text-anchor="middle" x="2802.07" y="-2081.81" font-family="Times,serif" font-size="32.00">Mary |</text>
<text text-anchor="middle" x="2802.07" y="-2046.81" font-family="Times,serif" font-size="32.00"> John</text>
<text text-anchor="middle" x="2802.07" y="-2011.81" font-family="Times,serif" font-size="32.00">da &#45;k</text>
</g>
<!-- z1 -->
<g id="node4" class="node">
<title>z1</title>
<ellipse fill="none" stroke="black" stroke-dasharray="5,2" cx="2898.57" cy="-2130.41" rx="27" ry="18"/>
</g>
<!-- poss -->
<g id="node5" class="node">
<title>poss</title>
<ellipse fill="none" stroke="black" cx="2680.24" cy="-2130.41" rx="52.15" ry="30.31"/>
<text text-anchor="middle" x="2680.24" y="-2122.31" font-family="Times,serif" font-size="32.00">poss</text>
</g>
<!-- z1&#45;&gt;poss -->
<g id="edge2" class="edge">
<title>z1&#45;&gt;poss</title>
<path fill="none" stroke="#000000" d="M2871.48,-2130.41C2839.81,-2130.41 2785.39,-2130.41 2742.84,-2130.41"/>
<polygon fill="#000000" stroke="#000000" points="2742.58,-2126.91 2732.58,-2130.41 2742.58,-2133.91 2742.58,-2126.91"/>
<text text-anchor="middle" x="2802.07" y="-2209.81" font-family="Times,serif" font-size="32.00">Mary&#39;s |</text>
<text text-anchor="middle" x="2802.07" y="-2174.81" font-family="Times,serif" font-size="32.00"> John&#39;s</text>
<text text-anchor="middle" x="2802.07" y="-2139.81" font-family="Times,serif" font-size="32.00">poss</text>
</g>
<!-- z2 -->
<g id="node6" class="node">
<title>z2</title>
<ellipse fill="none" stroke="black" stroke-dasharray="5,2" cx="2112.54" cy="-242.41" rx="27" ry="18"/>
</g>
<!-- d -->
<g id="node7" class="node">
<title>d</title>
<ellipse fill="none" stroke="black" cx="1710.04" cy="-242.41" rx="27" ry="30.31"/>
<text text-anchor="middle" x="1710.04" y="-234.31" font-family="Times,serif" font-size="32.00">d</text>
</g>
<!-- z2&#45;&gt;d -->
<g id="edge3" class="edge">
<title>z2&#45;&gt;d</title>
<path fill="none" stroke="#000000" d="M2085.26,-242.41C2015.73,-242.41 1826.81,-242.41 1747.19,-242.41"/>
<polygon fill="#000000" stroke="#000000" points="1747.15,-238.91 1737.15,-242.41 1747.15,-245.91 1747.15,-238.91"/>
<text text-anchor="middle" x="1904.04" y="-286.81" font-family="Times,serif" font-size="32.00">the&#45;cause</text>
<text text-anchor="middle" x="1904.04" y="-251.81" font-family="Times,serif" font-size="32.00">d &#45;k</text>
</g>
<!-- for -->
<g id="node8" class="node">
<title>for</title>
<ellipse fill="none" stroke="black" cx="1380.52" cy="-111.41" rx="37.45" ry="30.31"/>
<text text-anchor="middle" x="1380.52" y="-103.31" font-family="Times,serif" font-size="32.00">for</text>
</g>
<!-- d&#45;&gt;for -->
<g id="edge4" class="edge">
<title>d&#45;&gt;for</title>
<path fill="none" stroke="#000000" d="M1693.08,-218.39C1676.16,-195.06 1647.21,-160.72 1613.04,-143.41 1554.36,-113.67 1477.17,-108.76 1428.43,-109.16"/>
<polygon fill="#000000" stroke="#000000" points="1428.12,-105.67 1418.18,-109.33 1428.23,-112.67 1428.12,-105.67"/>
<text text-anchor="middle" x="1536.54" y="-187.81" font-family="Times,serif" font-size="32.00">for</text>
<text text-anchor="middle" x="1536.54" y="-152.81" font-family="Times,serif" font-size="32.00">=d *k for</text>
</g>
<!-- of -->
<g id="node9" class="node">
<title>of</title>
<ellipse fill="none" stroke="black" cx="1380.52" cy="-445.41" rx="30.31" ry="30.31"/>
<text text-anchor="middle" x="1380.52" y="-437.31" font-family="Times,serif" font-size="32.00">of</text>
</g>
<!-- d&#45;&gt;of -->
<g id="edge5" class="edge">
<title>d&#45;&gt;of</title>
<path fill="none" stroke="#000000" d="M1686.32,-257C1667.44,-268.43 1639.48,-283.8 1613.04,-292.41 1547.65,-313.69 1517.24,-277.24 1460.04,-315.41 1427.48,-337.13 1406.28,-377.36 1394.21,-407.34"/>
<polygon fill="#000000" stroke="#000000" points="1390.94,-406.09 1390.61,-416.68 1397.48,-408.61 1390.94,-406.09"/>
<text text-anchor="middle" x="1536.54" y="-359.81" font-family="Times,serif" font-size="32.00">of</text>
<text text-anchor="middle" x="1536.54" y="-324.81" font-family="Times,serif" font-size="32.00">=d *k of</text>
</g>
<!-- about -->
<g id="node10" class="node">
<title>about</title>
<ellipse fill="none" stroke="black" cx="1380.52" cy="-221.41" rx="61.54" ry="30.31"/>
<text text-anchor="middle" x="1380.52" y="-213.31" font-family="Times,serif" font-size="32.00">about</text>
</g>
<!-- d&#45;&gt;about -->
<g id="edge6" class="edge">
<title>d&#45;&gt;about</title>
<path fill="none" stroke="#000000" d="M1683.59,-235.64C1664.37,-230.9 1637.25,-224.95 1613.04,-222.41 1559.34,-216.75 1498.24,-216.76 1452.3,-218.04"/>
<polygon fill="#000000" stroke="#000000" points="1452.03,-214.55 1442.15,-218.35 1452.25,-221.54 1452.03,-214.55"/>
<text text-anchor="middle" x="1536.54" y="-266.81" font-family="Times,serif" font-size="32.00">about</text>
<text text-anchor="middle" x="1536.54" y="-231.81" font-family="Times,serif" font-size="32.00">=d *k about</text>
</g>
<!-- 3 -->
<g id="node18" class="node">
<title>3</title>
<ellipse fill="none" stroke="black" cx="2464.98" cy="-342.41" rx="27" ry="30.31"/>
<text text-anchor="middle" x="2464.98" y="-334.31" font-family="Times,serif" font-size="32.00">3</text>
</g>
<!-- for&#45;&gt;3 -->
<g id="edge20" class="edge">
<title>for&#45;&gt;3</title>
<path fill="none" stroke="#000000" d="M1418.07,-109.2C1463.75,-106.87 1544.3,-104.21 1613.04,-109.41 1880.01,-129.59 1953.76,-125.76 2206.04,-215.41 2290.7,-245.49 2383.83,-296.06 2431.66,-323.43"/>
<polygon fill="#000000" stroke="#000000" points="2430.19,-326.62 2440.61,-328.58 2433.69,-320.56 2430.19,-326.62"/>
<text text-anchor="middle" x="1904.04" y="-197.81" font-family="Times,serif" font-size="32.00">hope</text>
<text text-anchor="middle" x="1904.04" y="-162.81" font-family="Times,serif" font-size="32.00">=for 3</text>
</g>
<!-- 4 -->
<g id="node19" class="node">
<title>4</title>
<ellipse fill="none" stroke="black" cx="2112.54" cy="-997.41" rx="27" ry="30.31"/>
<text text-anchor="middle" x="2112.54" y="-989.31" font-family="Times,serif" font-size="32.00">4</text>
</g>
<!-- of&#45;&gt;4 -->
<g id="edge34" class="edge">
<title>of&#45;&gt;4</title>
<path fill="none" stroke="#000000" d="M1405.46,-463.51C1514.18,-545.72 1961.28,-883.79 2081.6,-974.77"/>
<polygon fill="#000000" stroke="#000000" points="2079.6,-977.65 2089.69,-980.89 2083.82,-972.06 2079.6,-977.65"/>
<text text-anchor="middle" x="1710.04" y="-828.81" font-family="Times,serif" font-size="32.00">fear_1 |</text>
<text text-anchor="middle" x="1710.04" y="-793.81" font-family="Times,serif" font-size="32.00"> scorn_1</text>
<text text-anchor="middle" x="1710.04" y="-758.81" font-family="Times,serif" font-size="32.00">=of 4</text>
</g>
<!-- 0 -->
<g id="node11" class="node">
<title>0</title>
<ellipse fill="none" stroke="black" cx="229" cy="-1258.41" rx="27" ry="30.31"/>
<text text-anchor="middle" x="229" y="-1250.31" font-family="Times,serif" font-size="32.00">0</text>
</g>
<!-- 0&#45;&gt;t -->
<g id="edge7" class="edge">
<title>0&#45;&gt;t</title>
<path fill="none" stroke="#000000" d="M201.85,-1258.41C166.67,-1258.41 103.92,-1258.41 64.21,-1258.41"/>
<polygon fill="#000000" stroke="#000000" points="64.15,-1254.91 54.15,-1258.41 64.15,-1261.91 64.15,-1254.91"/>
<text text-anchor="middle" x="128" y="-1337.81" font-family="Times,serif" font-size="32.00">s |</text>
<text text-anchor="middle" x="128" y="-1302.81" font-family="Times,serif" font-size="32.00"> d</text>
<text text-anchor="middle" x="128" y="-1267.81" font-family="Times,serif" font-size="32.00">=&gt;0 +k t</text>
</g>
<!-- 1 -->
<g id="node12" class="node">
<title>1</title>
<ellipse fill="none" stroke="black" cx="1380.52" cy="-1377.41" rx="27" ry="30.31"/>
<text text-anchor="middle" x="1380.52" y="-1369.31" font-family="Times,serif" font-size="32.00">1</text>
</g>
<!-- 2 -->
<g id="node13" class="node">
<title>2</title>
<ellipse fill="none" stroke="black" cx="1123" cy="-1377.41" rx="27" ry="30.31"/>
<text text-anchor="middle" x="1123" y="-1369.31" font-family="Times,serif" font-size="32.00">2</text>
</g>
<!-- 1&#45;&gt;2 -->
<g id="edge8" class="edge">
<title>1&#45;&gt;2</title>
<path fill="none" stroke="#000000" d="M1353.14,-1377.41C1307.21,-1377.41 1212.5,-1377.41 1160.38,-1377.41"/>
<polygon fill="#000000" stroke="#000000" points="1160.24,-1373.91 1150.24,-1377.41 1160.24,-1380.91 1160.24,-1373.91"/>
<text text-anchor="middle" x="1234.5" y="-1421.81" font-family="Times,serif" font-size="32.00">ε_0</text>
<text text-anchor="middle" x="1234.5" y="-1386.81" font-family="Times,serif" font-size="32.00">=&gt;1 =da 2</text>
</g>
<!-- v -->
<g id="node15" class="node">
<title>v</title>
<ellipse fill="none" stroke="black" cx="395" cy="-1351.41" rx="27" ry="30.31"/>
<text text-anchor="middle" x="395" y="-1343.31" font-family="Times,serif" font-size="32.00">v</text>
</g>
<!-- 2&#45;&gt;v -->
<g id="edge10" class="edge">
<title>2&#45;&gt;v</title>
<path fill="none" stroke="#000000" d="M1113.07,-1405.75C1106.27,-1422.2 1095.1,-1441.57 1078,-1451.41 877.65,-1566.63 780.5,-1517.93 558,-1455.41 505.72,-1440.72 454.55,-1402.78 424.13,-1377.02"/>
<polygon fill="#000000" stroke="#000000" points="426.35,-1374.31 416.49,-1370.43 421.78,-1379.61 426.35,-1374.31"/>
<text text-anchor="middle" x="744" y="-1562.81" font-family="Times,serif" font-size="32.00">ε_1</text>
<text text-anchor="middle" x="744" y="-1527.81" font-family="Times,serif" font-size="32.00">=&gt;2 v</text>
</g>
<!-- perf -->
<g id="node16" class="node">
<title>perf</title>
<ellipse fill="none" stroke="black" cx="608" cy="-1292.41" rx="48.17" ry="30.31"/>
<text text-anchor="middle" x="608" y="-1284.31" font-family="Times,serif" font-size="32.00">perf</text>
</g>
<!-- 2&#45;&gt;perf -->
<g id="edge11" class="edge">
<title>2&#45;&gt;perf</title>
<path fill="none" stroke="#000000" d="M1101.1,-1359.4C1069.3,-1333.31 1005.69,-1286.19 942,-1268.41 916.56,-1261.3 685.57,-1271.92 676,-1273.41 671.18,-1274.16 666.21,-1275.14 661.26,-1276.27"/>
<polygon fill="#000000" stroke="#000000" points="660.05,-1272.96 651.19,-1278.76 661.73,-1279.76 660.05,-1272.96"/>
<text text-anchor="middle" x="886" y="-1312.81" font-family="Times,serif" font-size="32.00">n</text>
<text text-anchor="middle" x="886" y="-1277.81" font-family="Times,serif" font-size="32.00">=&gt;2 perf</text>
</g>
<!-- prog -->
<g id="node17" class="node">
<title>prog</title>
<ellipse fill="none" stroke="black" cx="886" cy="-1377.41" rx="52.15" ry="30.31"/>
<text text-anchor="middle" x="886" y="-1369.31" font-family="Times,serif" font-size="32.00">prog</text>
</g>
<!-- 2&#45;&gt;prog -->
<g id="edge12" class="edge">
<title>2&#45;&gt;prog</title>
<path fill="none" stroke="#000000" d="M1095.95,-1377.41C1060.66,-1377.41 996.56,-1377.41 948.63,-1377.41"/>
<polygon fill="#000000" stroke="#000000" points="948.36,-1373.91 938.36,-1377.41 948.36,-1380.91 948.36,-1373.91"/>
<text text-anchor="middle" x="1019" y="-1421.81" font-family="Times,serif" font-size="32.00">ing</text>
<text text-anchor="middle" x="1019" y="-1386.81" font-family="Times,serif" font-size="32.00">=&gt;2 prog</text>
</g>
<!-- a -->
<g id="node14" class="node">
<title>a</title>
<ellipse fill="none" stroke="black" cx="1710.04" cy="-1377.41" rx="27" ry="30.31"/>
<text text-anchor="middle" x="1710.04" y="-1369.31" font-family="Times,serif" font-size="32.00">a</text>
</g>
<!-- a&#45;&gt;1 -->
<g id="edge9" class="edge">
<title>a&#45;&gt;1</title>
<path fill="none" stroke="#000000" d="M1682.79,-1377.41C1624.58,-1377.41 1484.56,-1377.41 1417.93,-1377.41"/>
<polygon fill="#000000" stroke="#000000" points="1417.89,-1373.91 1407.89,-1377.41 1417.89,-1380.91 1417.89,-1373.91"/>
<text text-anchor="middle" x="1536.54" y="-1421.81" font-family="Times,serif" font-size="32.00">be</text>
<text text-anchor="middle" x="1536.54" y="-1386.81" font-family="Times,serif" font-size="32.00">=a 1</text>
</g>
<!-- v&#45;&gt;0 -->
<g id="edge13" class="edge">
<title>v&#45;&gt;0</title>
<path fill="none" stroke="#000000" d="M367.84,-1352.5C341.87,-1352.32 302,-1348.5 274,-1329.41 261.66,-1320.99 252.13,-1307.85 245.14,-1295.15"/>
<polygon fill="#000000" stroke="#000000" points="248.16,-1293.38 240.5,-1286.06 241.93,-1296.56 248.16,-1293.38"/>
<text text-anchor="middle" x="312" y="-1396.81" font-family="Times,serif" font-size="32.00">will</text>
<text text-anchor="middle" x="312" y="-1361.81" font-family="Times,serif" font-size="32.00">=v 0</text>
</g>
<!-- v&#45;&gt;0 -->
<g id="edge15" class="edge">
<title>v&#45;&gt;0</title>
<path fill="none" stroke="#000000" d="M389.09,-1321.47C383.67,-1299.05 372.53,-1269.86 350,-1255.41 325.03,-1239.38 290.71,-1242.11 265.17,-1247.69"/>
<polygon fill="#000000" stroke="#000000" points="264.06,-1244.36 255.16,-1250.11 265.71,-1251.16 264.06,-1244.36"/>
<text text-anchor="middle" x="312" y="-1299.81" font-family="Times,serif" font-size="32.00">ε_2</text>
<text text-anchor="middle" x="312" y="-1264.81" font-family="Times,serif" font-size="32.00">=&gt;v 0</text>
</g>
<!-- perf&#45;&gt;v -->
<g id="edge14" class="edge">
<title>perf&#45;&gt;v</title>
<path fill="none" stroke="#000000" d="M562.33,-1282.37C527.19,-1276.82 477.99,-1274.4 440,-1293.41 429.7,-1298.56 421.16,-1307.39 414.43,-1316.63"/>
<polygon fill="#000000" stroke="#000000" points="411.39,-1314.87 408.76,-1325.13 417.22,-1318.75 411.39,-1314.87"/>
<text text-anchor="middle" x="490" y="-1337.81" font-family="Times,serif" font-size="32.00">have</text>
<text text-anchor="middle" x="490" y="-1302.81" font-family="Times,serif" font-size="32.00">=perf v</text>
</g>
<!-- prog&#45;&gt;0 -->
<g id="edge16" class="edge">
<title>prog&#45;&gt;0</title>
<path fill="none" stroke="#000000" d="M845.69,-1357.82C839.75,-1353.44 834.21,-1348.3 830,-1342.41 810.09,-1314.5 836.34,-1291.55 812,-1267.41 723.91,-1180.01 663.29,-1218.5 540,-1204.41 421.53,-1190.86 387.64,-1203.29 274,-1239.41 270.65,-1240.47 267.2,-1241.7 263.79,-1243.02"/>
<polygon fill="#000000" stroke="#000000" points="262.28,-1239.85 254.34,-1246.87 264.92,-1246.33 262.28,-1239.85"/>
<text text-anchor="middle" x="490" y="-1248.81" font-family="Times,serif" font-size="32.00">be_1</text>
<text text-anchor="middle" x="490" y="-1213.81" font-family="Times,serif" font-size="32.00">=prog 0</text>
</g>
<!-- prog&#45;&gt;v -->
<g id="edge17" class="edge">
<title>prog&#45;&gt;v</title>
<path fill="none" stroke="#000000" d="M833.59,-1379.68C750.38,-1382.49 581.22,-1384.58 440,-1363.41 437.14,-1362.98 434.19,-1362.42 431.25,-1361.79"/>
<polygon fill="#000000" stroke="#000000" points="431.92,-1358.35 421.38,-1359.41 430.28,-1365.16 431.92,-1358.35"/>
<text text-anchor="middle" x="608" y="-1425.81" font-family="Times,serif" font-size="32.00">be_2</text>
<text text-anchor="middle" x="608" y="-1390.81" font-family="Times,serif" font-size="32.00">=prog v</text>
</g>
<!-- prog&#45;&gt;perf -->
<g id="edge18" class="edge">
<title>prog&#45;&gt;perf</title>
<path fill="none" stroke="#000000" d="M851.26,-1354.57C843.61,-1348.33 835.99,-1341.14 830,-1333.41 818.06,-1318 828.34,-1304.03 812,-1293.41 767.73,-1264.62 705.74,-1269.19 661.94,-1277.93"/>
<polygon fill="#000000" stroke="#000000" points="661.11,-1274.53 652.06,-1280.03 662.56,-1281.37 661.11,-1274.53"/>
<text text-anchor="middle" x="744" y="-1337.81" font-family="Times,serif" font-size="32.00">ben</text>
<text text-anchor="middle" x="744" y="-1302.81" font-family="Times,serif" font-size="32.00">=prog perf</text>
</g>
<!-- 3&#45;&gt;1 -->
<g id="edge19" class="edge">
<title>3&#45;&gt;1</title>
<path fill="none" stroke="#000000" d="M2437.97,-340.41C2331.35,-332.55 1927.66,-305.91 1807.04,-343.41 1628.45,-398.91 1555.22,-420.43 1460.04,-581.41 1383.33,-711.14 1380.25,-1193.17 1381.09,-1336.78"/>
<polygon fill="#000000" stroke="#000000" points="1377.59,-1336.94 1381.16,-1346.91 1384.59,-1336.89 1377.59,-1336.94"/>
<text text-anchor="middle" x="1904.04" y="-387.81" font-family="Times,serif" font-size="32.00">ε_3</text>
<text text-anchor="middle" x="1904.04" y="-352.81" font-family="Times,serif" font-size="32.00">=&gt;3 1</text>
</g>
<!-- 3&#45;&gt;a -->
<g id="edge23" class="edge">
<title>3&#45;&gt;a</title>
<path fill="none" stroke="#000000" d="M2438.75,-350.51C2430.6,-352.94 2421.49,-355.48 2413.04,-357.41 2326.49,-377.17 2079.32,-358.23 2019.04,-423.41 1989.19,-455.68 2010.99,-577.59 2001.04,-620.41 1933.81,-909.49 1780.55,-1235.99 1728.62,-1342.1"/>
<polygon fill="#000000" stroke="#000000" points="1725.47,-1340.57 1724.2,-1351.09 1731.75,-1343.66 1725.47,-1340.57"/>
<text text-anchor="middle" x="2112.54" y="-467.81" font-family="Times,serif" font-size="32.00">ful</text>
<text text-anchor="middle" x="2112.54" y="-432.81" font-family="Times,serif" font-size="32.00">=&gt;3 a</text>
</g>
<!-- 3&#45;&gt;4 -->
<g id="edge22" class="edge">
<title>3&#45;&gt;4</title>
<path fill="none" stroke="#000000" d="M2443.88,-361.43C2438.83,-367.33 2434.01,-374.2 2431.04,-381.41 2412.17,-427.16 2446.76,-567.18 2413.04,-603.41 2355.13,-665.6 2288.23,-576.72 2224.04,-632.41 2127.67,-716 2113.77,-880.54 2112.79,-956.81"/>
<polygon fill="#000000" stroke="#000000" points="2109.29,-956.95 2112.73,-966.97 2116.29,-956.99 2109.29,-956.95"/>
<text text-anchor="middle" x="2318.54" y="-676.81" font-family="Times,serif" font-size="32.00">ε_5</text>
<text text-anchor="middle" x="2318.54" y="-641.81" font-family="Times,serif" font-size="32.00">=&gt;3 4</text>
</g>
<!-- 4&#45;&gt;d -->
<g id="edge21" class="edge">
<title>4&#45;&gt;d</title>
<path fill="none" stroke="#000000" d="M2111.43,-966.94C2109.73,-889.5 2096,-681.66 2001.04,-546.41 1941.54,-461.66 1877.07,-493.67 1807.04,-417.41 1769.27,-376.29 1741.02,-317.62 1725.26,-279.77"/>
<polygon fill="#000000" stroke="#000000" points="1728.36,-278.09 1721.34,-270.15 1721.88,-280.73 1728.36,-278.09"/>
<text text-anchor="middle" x="1904.04" y="-590.81" font-family="Times,serif" font-size="32.00">ε_4</text>
<text text-anchor="middle" x="1904.04" y="-555.81" font-family="Times,serif" font-size="32.00">=&gt;4 poss= d &#45;k</text>
</g>
<!-- 5 -->
<g id="node20" class="node">
<title>5</title>
<ellipse fill="none" stroke="black" cx="2464.98" cy="-1936.41" rx="27" ry="30.31"/>
<text text-anchor="middle" x="2464.98" y="-1928.31" font-family="Times,serif" font-size="32.00">5</text>
</g>
<!-- 5&#45;&gt;1 -->
<g id="edge24" class="edge">
<title>5&#45;&gt;1</title>
<path fill="none" stroke="#000000" d="M2453.85,-1964.58C2445.72,-1982.96 2432.43,-2005.8 2413.04,-2018.41 2057.87,-2249.17 1753.34,-2323.97 1460.04,-2018.41 1418.32,-1974.94 1391.31,-1552.64 1383.71,-1418.25"/>
<polygon fill="#000000" stroke="#000000" points="1387.19,-1417.77 1383.14,-1407.98 1380.2,-1418.16 1387.19,-1417.77"/>
<text text-anchor="middle" x="1904.04" y="-2264.81" font-family="Times,serif" font-size="32.00">ε_6</text>
<text text-anchor="middle" x="1904.04" y="-2229.81" font-family="Times,serif" font-size="32.00">=&gt;5 =of 1</text>
</g>
<!-- 5&#45;&gt;1 -->
<g id="edge29" class="edge">
<title>5&#45;&gt;1</title>
<path fill="none" stroke="#000000" d="M2448.37,-1960.46C2439.52,-1971.83 2427.36,-1984.23 2413.04,-1990.41 2332.64,-2025.09 2100.25,-2023.12 2019.04,-1990.41 1713.23,-1867.23 1471.93,-1519.45 1402.05,-1410.48"/>
<polygon fill="#000000" stroke="#000000" points="1404.89,-1408.42 1396.57,-1401.87 1398.99,-1412.18 1404.89,-1408.42"/>
<text text-anchor="middle" x="1904.04" y="-2024.81" font-family="Times,serif" font-size="32.00">ε_9</text>
<text text-anchor="middle" x="1904.04" y="-1989.81" font-family="Times,serif" font-size="32.00">=&gt;5 =about 1</text>
</g>
<!-- 5&#45;&gt;a -->
<g id="edge31" class="edge">
<title>5&#45;&gt;a</title>
<path fill="none" stroke="#000000" d="M2441.75,-1952.38C2433.2,-1957.61 2423.07,-1962.75 2413.04,-1965.41 2331.83,-1986.9 2293.59,-2012.5 2224.04,-1965.41 2206.2,-1953.33 2217.95,-1938.35 2206.04,-1920.41 2068.19,-1712.78 1964.14,-1719.87 1807.04,-1526.41 1777.02,-1489.44 1748.22,-1442.73 1730.13,-1411.56"/>
<polygon fill="#000000" stroke="#000000" points="1733.12,-1409.73 1725.09,-1402.8 1727.05,-1413.22 1733.12,-1409.73"/>
<text text-anchor="middle" x="2112.54" y="-1964.81" font-family="Times,serif" font-size="32.00">ful_2</text>
<text text-anchor="middle" x="2112.54" y="-1929.81" font-family="Times,serif" font-size="32.00">=&gt;5 =about a</text>
</g>
<!-- 5&#45;&gt;4 -->
<g id="edge26" class="edge">
<title>5&#45;&gt;4</title>
<path fill="none" stroke="#000000" d="M2459.79,-1906.48C2447.74,-1820.39 2413.78,-1578.12 2413.04,-1577.41 2382.65,-1548.08 2253.55,-1587.61 2224.04,-1557.41 2207.05,-1540.02 2210.23,-1363.35 2206.04,-1339.41 2186.4,-1227.2 2146.77,-1098.36 2126.35,-1035.67"/>
<polygon fill="#000000" stroke="#000000" points="2129.56,-1034.25 2123.12,-1025.83 2122.91,-1036.43 2129.56,-1034.25"/>
<text text-anchor="middle" x="2318.54" y="-1621.81" font-family="Times,serif" font-size="32.00">ε_7</text>
<text text-anchor="middle" x="2318.54" y="-1586.81" font-family="Times,serif" font-size="32.00">=&gt;5 =of 4</text>
</g>
<!-- 5&#45;&gt;4 -->
<g id="edge30" class="edge">
<title>5&#45;&gt;4</title>
<path fill="none" stroke="#000000" d="M2461.84,-1905.97C2457.82,-1873.77 2446.26,-1824.12 2413.04,-1798.41 2379.66,-1772.57 2252.99,-1810.13 2224.04,-1779.41 2207.26,-1761.6 2209.75,-1363.59 2206.04,-1339.41 2188.69,-1226.53 2147.85,-1097.49 2126.72,-1035.11"/>
<polygon fill="#000000" stroke="#000000" points="2129.92,-1033.66 2123.38,-1025.32 2123.3,-1035.92 2129.92,-1033.66"/>
<text text-anchor="middle" x="2318.54" y="-1842.81" font-family="Times,serif" font-size="32.00">ε_10</text>
<text text-anchor="middle" x="2318.54" y="-1807.81" font-family="Times,serif" font-size="32.00">=&gt;5 =about 4</text>
</g>
<!-- 6 -->
<g id="node22" class="node">
<title>6</title>
<ellipse fill="none" stroke="black" cx="2112.54" cy="-1483.41" rx="27" ry="30.31"/>
<text text-anchor="middle" x="2112.54" y="-1475.31" font-family="Times,serif" font-size="32.00">6</text>
</g>
<!-- 5&#45;&gt;6 -->
<g id="edge28" class="edge">
<title>5&#45;&gt;6</title>
<path fill="none" stroke="#000000" d="M2444.4,-1916.35C2435.56,-1908.51 2424.54,-1900.26 2413.04,-1895.41 2374.06,-1878.95 2256.19,-1899.91 2224.04,-1872.41 2170.47,-1826.59 2132.95,-1613.32 2119.26,-1523.47"/>
<polygon fill="#000000" stroke="#000000" points="2122.7,-1522.77 2117.75,-1513.4 2115.77,-1523.81 2122.7,-1522.77"/>
<text text-anchor="middle" x="2318.54" y="-1939.81" font-family="Times,serif" font-size="32.00">ε_8</text>
<text text-anchor="middle" x="2318.54" y="-1904.81" font-family="Times,serif" font-size="32.00">=&gt;5 6</text>
</g>
<!-- z3 -->
<g id="node21" class="node">
<title>z3</title>
<ellipse fill="none" stroke="black" stroke-dasharray="5,2" cx="2680.24" cy="-1936.41" rx="27" ry="18"/>
</g>
<!-- z3&#45;&gt;5 -->
<g id="edge25" class="edge">
<title>z3&#45;&gt;5</title>
<path fill="none" stroke="#000000" d="M2653.09,-1936.41C2615.26,-1936.41 2545.1,-1936.41 2502.27,-1936.41"/>
<polygon fill="#000000" stroke="#000000" points="2502.01,-1932.91 2492.01,-1936.41 2502.01,-1939.91 2502.01,-1932.91"/>
<text text-anchor="middle" x="2563.42" y="-1980.81" font-family="Times,serif" font-size="32.00">boast</text>
<text text-anchor="middle" x="2563.42" y="-1945.81" font-family="Times,serif" font-size="32.00">5</text>
</g>
<!-- 6&#45;&gt;a -->
<g id="edge27" class="edge">
<title>6&#45;&gt;a</title>
<path fill="none" stroke="#000000" d="M2086.18,-1476.69C2017.23,-1458.45 1826.17,-1407.88 1746.57,-1386.81"/>
<polygon fill="#000000" stroke="#000000" points="1747.1,-1383.33 1736.54,-1384.16 1745.31,-1390.1 1747.1,-1383.33"/>
<text text-anchor="middle" x="1904.04" y="-1496.81" font-family="Times,serif" font-size="32.00">ful_1</text>
<text text-anchor="middle" x="1904.04" y="-1461.81" font-family="Times,serif" font-size="32.00">=&gt;6 =of a</text>
</g>
<!-- 7 -->
<g id="node23" class="node">
<title>7</title>
<ellipse fill="none" stroke="black" cx="2112.54" cy="-532.41" rx="27" ry="30.31"/>
<text text-anchor="middle" x="2112.54" y="-524.31" font-family="Times,serif" font-size="32.00">7</text>
</g>
<!-- 7&#45;&gt;1 -->
<g id="edge32" class="edge">
<title>7&#45;&gt;1</title>
<path fill="none" stroke="#000000" d="M2085.5,-530.54C1995.89,-524.67 1701.83,-510.15 1631.04,-566.41 1504.89,-666.65 1412.14,-1187.73 1387.82,-1337.26"/>
<polygon fill="#000000" stroke="#000000" points="1384.32,-1336.94 1386.18,-1347.37 1391.23,-1338.06 1384.32,-1336.94"/>
<text text-anchor="middle" x="1710.04" y="-610.81" font-family="Times,serif" font-size="32.00">ε_11</text>
<text text-anchor="middle" x="1710.04" y="-575.81" font-family="Times,serif" font-size="32.00">=&gt;7 =d *k 1</text>
</g>
<!-- z4 -->
<g id="node24" class="node">
<title>z4</title>
<ellipse fill="none" stroke="black" stroke-dasharray="5,2" cx="2464.98" cy="-408.41" rx="27" ry="18"/>
</g>
<!-- z4&#45;&gt;7 -->
<g id="edge33" class="edge">
<title>z4&#45;&gt;7</title>
<path fill="none" stroke="#000000" d="M2438.45,-404.23C2383.57,-395.86 2256.71,-379.9 2224.04,-405.41 2198.04,-425.7 2225.73,-450.94 2206.04,-477.41 2191.47,-496.99 2167.68,-510.9 2147.88,-519.84"/>
<polygon fill="#000000" stroke="#000000" points="2146.36,-516.68 2138.54,-523.83 2149.11,-523.12 2146.36,-516.68"/>
<text text-anchor="middle" x="2318.54" y="-484.81" font-family="Times,serif" font-size="32.00">fear |</text>
<text text-anchor="middle" x="2318.54" y="-449.81" font-family="Times,serif" font-size="32.00"> scorn</text>
<text text-anchor="middle" x="2318.54" y="-414.81" font-family="Times,serif" font-size="32.00">7</text>
</g>
<!-- z5 -->
<g id="node25" class="node">
<title>z5</title>
<ellipse fill="none" stroke="black" stroke-dasharray="5,2" cx="2464.98" cy="-1673.41" rx="27" ry="18"/>
</g>
<!-- z5&#45;&gt;6 -->
<g id="edge35" class="edge">
<title>z5&#45;&gt;6</title>
<path fill="none" stroke="#000000" d="M2437.67,-1673.81C2383.04,-1674.21 2259.46,-1672.65 2224.04,-1651.41 2174.67,-1621.8 2143.05,-1560.62 2126.8,-1520.84"/>
<polygon fill="#000000" stroke="#000000" points="2130.03,-1519.47 2123.09,-1511.46 2123.52,-1522.05 2130.03,-1519.47"/>
<text text-anchor="middle" x="2318.54" y="-1753.81" font-family="Times,serif" font-size="32.00">fear_2 |</text>
<text text-anchor="middle" x="2318.54" y="-1718.81" font-family="Times,serif" font-size="32.00"> scorn_2</text>
<text text-anchor="middle" x="2318.54" y="-1683.81" font-family="Times,serif" font-size="32.00">6</text>
</g>
<!-- 8 -->
<g id="node26" class="node">
<title>8</title>
<ellipse fill="none" stroke="black" cx="2464.98" cy="-997.41" rx="27" ry="30.31"/>
<text text-anchor="middle" x="2464.98" y="-989.31" font-family="Times,serif" font-size="32.00">8</text>
</g>
<!-- 8&#45;&gt;4 -->
<g id="edge38" class="edge">
<title>8&#45;&gt;4</title>
<path fill="none" stroke="#000000" d="M2437.92,-997.41C2376.21,-997.41 2221,-997.41 2150.01,-997.41"/>
<polygon fill="#000000" stroke="#000000" points="2149.76,-993.91 2139.76,-997.41 2149.76,-1000.91 2149.76,-993.91"/>
<text text-anchor="middle" x="2318.54" y="-1041.81" font-family="Times,serif" font-size="32.00">ε_13</text>
<text text-anchor="middle" x="2318.54" y="-1006.81" font-family="Times,serif" font-size="32.00">=&gt;8 =of 4</text>
</g>
<!-- 8&#45;&gt;6 -->
<g id="edge39" class="edge">
<title>8&#45;&gt;6</title>
<path fill="none" stroke="#000000" d="M2459.86,-1027.35C2448.22,-1111.7 2415.77,-1345.44 2413.04,-1348.41 2354.59,-1411.7 2289.75,-1335.71 2224.04,-1391.41 2207.92,-1405.07 2220.29,-1419.81 2206.04,-1435.41 2190.55,-1452.35 2167.7,-1464.29 2148.58,-1472.03"/>
<polygon fill="#000000" stroke="#000000" points="2147.07,-1468.85 2138.98,-1475.69 2149.57,-1475.39 2147.07,-1468.85"/>
<text text-anchor="middle" x="2318.54" y="-1435.81" font-family="Times,serif" font-size="32.00">ε_14</text>
<text text-anchor="middle" x="2318.54" y="-1400.81" font-family="Times,serif" font-size="32.00">=&gt;8 6</text>
</g>
<!-- 8&#45;&gt;7 -->
<g id="edge36" class="edge">
<title>8&#45;&gt;7</title>
<path fill="none" stroke="#000000" d="M2459.78,-967.25C2452.58,-920.18 2436.37,-832.53 2413.04,-812.41 2348.95,-757.15 2291.76,-840.14 2224.04,-789.41 2153.81,-736.8 2127.67,-630.46 2118.37,-572.42"/>
<polygon fill="#000000" stroke="#000000" points="2121.83,-571.87 2116.87,-562.51 2114.91,-572.92 2121.83,-571.87"/>
<text text-anchor="middle" x="2318.54" y="-856.81" font-family="Times,serif" font-size="32.00">ε_12</text>
<text text-anchor="middle" x="2318.54" y="-821.81" font-family="Times,serif" font-size="32.00">=&gt;8 7</text>
</g>
<!-- z6 -->
<g id="node27" class="node">
<title>z6</title>
<ellipse fill="none" stroke="black" stroke-dasharray="5,2" cx="2680.24" cy="-997.41" rx="27" ry="18"/>
</g>
<!-- z6&#45;&gt;8 -->
<g id="edge37" class="edge">
<title>z6&#45;&gt;8</title>
<path fill="none" stroke="#000000" d="M2653.09,-997.41C2615.26,-997.41 2545.1,-997.41 2502.27,-997.41"/>
<polygon fill="#000000" stroke="#000000" points="2502.01,-993.91 2492.01,-997.41 2502.01,-1000.91 2502.01,-993.91"/>
<text text-anchor="middle" x="2563.42" y="-1041.81" font-family="Times,serif" font-size="32.00">neglect</text>
<text text-anchor="middle" x="2563.42" y="-1006.81" font-family="Times,serif" font-size="32.00">8</text>
</g>
<!-- z7 -->
<g id="node28" class="node">
<title>z7</title>
<ellipse fill="none" stroke="black" stroke-dasharray="5,2" cx="2898.57" cy="-765.41" rx="27" ry="18"/>
</g>
<!-- 9 -->
<g id="node29" class="node">
<title>9</title>
<ellipse fill="none" stroke="black" cx="2680.24" cy="-765.41" rx="27" ry="30.31"/>
<text text-anchor="middle" x="2680.24" y="-757.31" font-family="Times,serif" font-size="32.00">9</text>
</g>
<!-- z7&#45;&gt;9 -->
<g id="edge40" class="edge">
<title>z7&#45;&gt;9</title>
<path fill="none" stroke="#000000" d="M2871.48,-765.41C2833.06,-765.41 2761.15,-765.41 2717.59,-765.41"/>
<polygon fill="#000000" stroke="#000000" points="2717.43,-761.91 2707.43,-765.41 2717.43,-768.91 2717.43,-761.91"/>
<text text-anchor="middle" x="2802.07" y="-809.81" font-family="Times,serif" font-size="32.00">respect</text>
<text text-anchor="middle" x="2802.07" y="-774.81" font-family="Times,serif" font-size="32.00">9</text>
</g>
<!-- 10 -->
<g id="node30" class="node">
<title>10</title>
<ellipse fill="none" stroke="black" cx="2464.98" cy="-718.41" rx="33.88" ry="30.31"/>
<text text-anchor="middle" x="2464.98" y="-710.31" font-family="Times,serif" font-size="32.00">10</text>
</g>
<!-- 9&#45;&gt;10 -->
<g id="edge42" class="edge">
<title>9&#45;&gt;10</title>
<path fill="none" stroke="#000000" d="M2653.11,-764.44C2620.57,-762.65 2563.58,-757.61 2516.92,-743.41 2512.51,-742.06 2508,-740.37 2503.59,-738.51"/>
<polygon fill="#000000" stroke="#000000" points="2504.7,-735.17 2494.14,-734.22 2501.8,-741.54 2504.7,-735.17"/>
<text text-anchor="middle" x="2563.42" y="-805.81" font-family="Times,serif" font-size="32.00">ε_16</text>
<text text-anchor="middle" x="2563.42" y="-770.81" font-family="Times,serif" font-size="32.00">=&gt;9 10</text>
</g>
<!-- 10&#45;&gt;4 -->
<g id="edge41" class="edge">
<title>10&#45;&gt;4</title>
<path fill="none" stroke="#000000" d="M2431.33,-714.18C2373.68,-707.42 2256.82,-697.06 2224.04,-719.41 2144.97,-773.3 2122.48,-893.62 2116.08,-956.83"/>
<polygon fill="#000000" stroke="#000000" points="2112.59,-956.55 2115.15,-966.83 2119.56,-957.2 2112.59,-956.55"/>
<text text-anchor="middle" x="2318.54" y="-763.81" font-family="Times,serif" font-size="32.00">ε_15</text>
<text text-anchor="middle" x="2318.54" y="-728.81" font-family="Times,serif" font-size="32.00">=&gt;10 =for 4</text>
</g>
<!-- 10&#45;&gt;6 -->
<g id="edge45" class="edge">
<title>10&#45;&gt;6</title>
<path fill="none" stroke="#000000" d="M2459.83,-748.58C2448.21,-833 2415.94,-1065.63 2413.04,-1068.41 2382.53,-1097.58 2253.15,-1056.84 2224.04,-1087.41 2197.33,-1115.44 2226.99,-1402.85 2206.04,-1435.41 2193.16,-1455.41 2169.11,-1467.53 2148.76,-1474.58"/>
<polygon fill="#000000" stroke="#000000" points="2147.6,-1471.28 2139.13,-1477.65 2149.72,-1477.95 2147.6,-1471.28"/>
<text text-anchor="middle" x="2318.54" y="-1131.81" font-family="Times,serif" font-size="32.00">ε_18</text>
<text text-anchor="middle" x="2318.54" y="-1096.81" font-family="Times,serif" font-size="32.00">=&gt;10 6</text>
</g>
<!-- 10&#45;&gt;7 -->
<g id="edge43" class="edge">
<title>10&#45;&gt;7</title>
<path fill="none" stroke="#000000" d="M2460.1,-688.31C2453.3,-640.88 2437.58,-552.17 2413.04,-533.41 2372.76,-502.62 2220.08,-518.15 2149.6,-527.3"/>
<polygon fill="#000000" stroke="#000000" points="2148.87,-523.87 2139.42,-528.65 2149.79,-530.81 2148.87,-523.87"/>
<text text-anchor="middle" x="2318.54" y="-577.81" font-family="Times,serif" font-size="32.00">ε_17</text>
<text text-anchor="middle" x="2318.54" y="-542.81" font-family="Times,serif" font-size="32.00">=&gt;10 7</text>
</g>
<!-- z8 -->
<g id="node31" class="node">
<title>z8</title>
<ellipse fill="none" stroke="black" stroke-dasharray="5,2" cx="2680.24" cy="-672.41" rx="27" ry="18"/>
</g>
<!-- z8&#45;&gt;10 -->
<g id="edge44" class="edge">
<title>z8&#45;&gt;10</title>
<path fill="none" stroke="#000000" d="M2654.33,-667.31C2621.59,-661.77 2562.86,-655.86 2516.92,-673.41 2508.68,-676.55 2500.91,-681.7 2494.03,-687.41"/>
<polygon fill="#000000" stroke="#000000" points="2491.49,-684.99 2486.4,-694.28 2496.18,-690.19 2491.49,-684.99"/>
<text text-anchor="middle" x="2563.42" y="-717.81" font-family="Times,serif" font-size="32.00">disdain</text>
<text text-anchor="middle" x="2563.42" y="-682.81" font-family="Times,serif" font-size="32.00">10</text>
</g>
<!-- 11 -->
<g id="node32" class="node">
<title>11</title>
<ellipse fill="none" stroke="black" cx="2464.98" cy="-1276.41" rx="33.88" ry="30.31"/>
<text text-anchor="middle" x="2464.98" y="-1268.31" font-family="Times,serif" font-size="32.00">11</text>
</g>
<!-- 11&#45;&gt;a -->
<g id="edge51" class="edge">
<title>11&#45;&gt;a</title>
<path fill="none" stroke="#000000" d="M2451.52,-1304.62C2443.05,-1320.14 2430.25,-1338.1 2413.04,-1347.41 2383.56,-1363.34 1887.31,-1374.03 1747.46,-1376.73"/>
<polygon fill="#000000" stroke="#000000" points="1747.2,-1373.23 1737.27,-1376.93 1747.33,-1380.23 1747.2,-1373.23"/>
<text text-anchor="middle" x="2112.54" y="-1414.81" font-family="Times,serif" font-size="32.00">ful_3</text>
<text text-anchor="middle" x="2112.54" y="-1379.81" font-family="Times,serif" font-size="32.00">=&gt;11 =about a</text>
</g>
<!-- 11&#45;&gt;4 -->
<g id="edge48" class="edge">
<title>11&#45;&gt;4</title>
<path fill="none" stroke="#000000" d="M2430.98,-1275.24C2369.12,-1272.78 2240.41,-1266.3 2224.04,-1254.41 2153.04,-1202.85 2127.22,-1096.08 2118.17,-1037.69"/>
<polygon fill="#000000" stroke="#000000" points="2121.62,-1037.11 2116.71,-1027.72 2114.69,-1038.12 2121.62,-1037.11"/>
<text text-anchor="middle" x="2318.54" y="-1318.81" font-family="Times,serif" font-size="32.00">ε_20</text>
<text text-anchor="middle" x="2318.54" y="-1283.81" font-family="Times,serif" font-size="32.00">=&gt;11 =of 4</text>
</g>
<!-- 11&#45;&gt;4 -->
<g id="edge50" class="edge">
<title>11&#45;&gt;4</title>
<path fill="none" stroke="#000000" d="M2456.36,-1246.52C2449.07,-1224.43 2435.75,-1195.66 2413.04,-1180.41 2342.96,-1133.33 2296.49,-1204.74 2224.04,-1161.41 2175.82,-1132.57 2144.1,-1073.59 2127.48,-1034.79"/>
<polygon fill="#000000" stroke="#000000" points="2130.65,-1033.28 2123.58,-1025.39 2124.18,-1035.96 2130.65,-1033.28"/>
<text text-anchor="middle" x="2318.54" y="-1224.81" font-family="Times,serif" font-size="32.00">ε_22</text>
<text text-anchor="middle" x="2318.54" y="-1189.81" font-family="Times,serif" font-size="32.00">=&gt;11 =about 4</text>
</g>
<!-- 11&#45;&gt;6 -->
<g id="edge49" class="edge">
<title>11&#45;&gt;6</title>
<path fill="none" stroke="#000000" d="M2460.13,-1306.59C2453.33,-1354.72 2437.54,-1445.44 2413.04,-1465.41 2393.12,-1481.64 2226.01,-1483.54 2150.42,-1483.56"/>
<polygon fill="#000000" stroke="#000000" points="2149.96,-1480.06 2139.96,-1483.55 2149.95,-1487.06 2149.96,-1480.06"/>
<text text-anchor="middle" x="2318.54" y="-1527.81" font-family="Times,serif" font-size="32.00">ε_21</text>
<text text-anchor="middle" x="2318.54" y="-1492.81" font-family="Times,serif" font-size="32.00">=&gt;11 6</text>
</g>
<!-- 11&#45;&gt;7 -->
<g id="edge46" class="edge">
<title>11&#45;&gt;7</title>
<path fill="none" stroke="#000000" d="M2459.86,-1246.29C2448.23,-1161.45 2415.8,-926.37 2413.04,-923.41 2354.43,-860.53 2287.55,-940.32 2224.04,-882.41 2134.28,-800.56 2116.92,-646.54 2113.91,-573.21"/>
<polygon fill="#000000" stroke="#000000" points="2117.4,-572.87 2113.57,-563 2110.41,-573.11 2117.4,-572.87"/>
<text text-anchor="middle" x="2318.54" y="-967.81" font-family="Times,serif" font-size="32.00">ε_19</text>
<text text-anchor="middle" x="2318.54" y="-932.81" font-family="Times,serif" font-size="32.00">=&gt;11 7</text>
</g>
<!-- z9 -->
<g id="node33" class="node">
<title>z9</title>
<ellipse fill="none" stroke="black" stroke-dasharray="5,2" cx="2680.24" cy="-1276.41" rx="27" ry="18"/>
</g>
<!-- z9&#45;&gt;11 -->
<g id="edge47" class="edge">
<title>z9&#45;&gt;11</title>
<path fill="none" stroke="#000000" d="M2653.09,-1276.41C2617.23,-1276.41 2552.34,-1276.41 2509.19,-1276.41"/>
<polygon fill="#000000" stroke="#000000" points="2508.99,-1272.91 2498.99,-1276.41 2508.99,-1279.91 2508.99,-1272.91"/>
<text text-anchor="middle" x="2563.42" y="-1320.81" font-family="Times,serif" font-size="32.00">doubt</text>
<text text-anchor="middle" x="2563.42" y="-1285.81" font-family="Times,serif" font-size="32.00">11</text>
</g>
</g>
</svg>
