<?xml version="1.0" encoding="UTF-8" standalone="no"?>
<!DOCTYPE svg PUBLIC "-//W3C//DTD SVG 1.1//EN"
 "http://www.w3.org/Graphics/SVG/1.1/DTD/svg11.dtd">
<!-- Generated by graphviz version 2.47.1 (20210417.1919)
 -->
<!-- Title: G Pages: 1 -->
<svg width="2986pt" height="1580pt"
 viewBox="0.00 0.00 2985.57 1580.33" xmlns="http://www.w3.org/2000/svg" xmlns:xlink="http://www.w3.org/1999/xlink">
<g id="graph0" class="graph" transform="scale(1 1) rotate(0) translate(4 1576.33)">
<title>G</title>
<polygon fill="white" stroke="transparent" points="-4,4 -4,-1576.33 2981.57,-1576.33 2981.57,4 -4,4"/>
<text text-anchor="middle" x="1488.79" y="-13.4" font-family="Times,serif" font-size="32.00">decomposition: &#160;=&gt;5 =of 1, &#160;=&gt;5 =of 4</text>
<!-- t -->
<g id="node1" class="node">
<title>t</title>
<ellipse fill="lightgray" stroke="black" cx="27" cy="-967.33" rx="27" ry="30.31"/>
<text text-anchor="middle" x="27" y="-959.23" font-family="Times,serif" font-size="32.00">t</text>
</g>
<!-- z0 -->
<g id="node2" class="node">
<title>z0</title>
<ellipse fill="none" stroke="black" stroke-dasharray="5,2" cx="2950.57" cy="-1339.33" rx="27" ry="18"/>
</g>
<!-- da -->
<g id="node3" class="node">
<title>da</title>
<ellipse fill="none" stroke="black" cx="2732.24" cy="-1339.33" rx="33.47" ry="30.31"/>
<text text-anchor="middle" x="2732.24" y="-1331.23" font-family="Times,serif" font-size="32.00">da</text>
</g>
<!-- z0&#45;&gt;da -->
<g id="edge1" class="edge">
<title>z0&#45;&gt;da</title>
<path fill="none" stroke="#000000" d="M2923.48,-1339.33C2886.86,-1339.33 2819.79,-1339.33 2775.87,-1339.33"/>
<polygon fill="#000000" stroke="#000000" points="2775.78,-1335.83 2765.78,-1339.33 2775.78,-1342.83 2775.78,-1335.83"/>
<text text-anchor="middle" x="2854.07" y="-1418.73" font-family="Times,serif" font-size="32.00">Mary |</text>
<text text-anchor="middle" x="2854.07" y="-1383.73" font-family="Times,serif" font-size="32.00"> John</text>
<text text-anchor="middle" x="2854.07" y="-1348.73" font-family="Times,serif" font-size="32.00">da &#45;k</text>
</g>
<!-- z1 -->
<g id="node4" class="node">
<title>z1</title>
<ellipse fill="none" stroke="black" stroke-dasharray="5,2" cx="2950.57" cy="-1467.33" rx="27" ry="18"/>
</g>
<!-- poss -->
<g id="node5" class="node">
<title>poss</title>
<ellipse fill="none" stroke="black" cx="2732.24" cy="-1467.33" rx="52.15" ry="30.31"/>
<text text-anchor="middle" x="2732.24" y="-1459.23" font-family="Times,serif" font-size="32.00">poss</text>
</g>
<!-- z1&#45;&gt;poss -->
<g id="edge2" class="edge">
<title>z1&#45;&gt;poss</title>
<path fill="none" stroke="#000000" d="M2923.48,-1467.33C2891.81,-1467.33 2837.39,-1467.33 2794.84,-1467.33"/>
<polygon fill="#000000" stroke="#000000" points="2794.58,-1463.83 2784.58,-1467.33 2794.58,-1470.83 2794.58,-1463.83"/>
<text text-anchor="middle" x="2854.07" y="-1546.73" font-family="Times,serif" font-size="32.00">Mary&#39;s |</text>
<text text-anchor="middle" x="2854.07" y="-1511.73" font-family="Times,serif" font-size="32.00"> John&#39;s</text>
<text text-anchor="middle" x="2854.07" y="-1476.73" font-family="Times,serif" font-size="32.00">poss</text>
</g>
<!-- z2 -->
<g id="node6" class="node">
<title>z2</title>
<ellipse fill="none" stroke="black" stroke-dasharray="5,2" cx="1826.04" cy="-498.33" rx="27" ry="18"/>
</g>
<!-- d -->
<g id="node7" class="node">
<title>d</title>
<ellipse fill="none" stroke="black" cx="1462.54" cy="-592.33" rx="27" ry="30.31"/>
<text text-anchor="middle" x="1462.54" y="-584.23" font-family="Times,serif" font-size="32.00">d</text>
</g>
<!-- z2&#45;&gt;d -->
<g id="edge3" class="edge">
<title>z2&#45;&gt;d</title>
<path fill="none" stroke="#000000" d="M1800.88,-491.65C1749,-478.7 1624.39,-455.13 1535.04,-499.33 1510.87,-511.29 1492.57,-535.75 1480.54,-556.59"/>
<polygon fill="#000000" stroke="#000000" points="1477.36,-555.1 1475.61,-565.55 1483.5,-558.48 1477.36,-555.1"/>
<text text-anchor="middle" x="1632.04" y="-543.73" font-family="Times,serif" font-size="32.00">the&#45;cause</text>
<text text-anchor="middle" x="1632.04" y="-508.73" font-family="Times,serif" font-size="32.00">d &#45;k</text>
</g>
<!-- for -->
<g id="node8" class="node">
<title>for</title>
<ellipse fill="none" stroke="black" cx="1157.52" cy="-886.33" rx="37.45" ry="30.31"/>
<text text-anchor="middle" x="1157.52" y="-878.23" font-family="Times,serif" font-size="32.00">for</text>
</g>
<!-- d&#45;&gt;for -->
<g id="edge4" class="edge">
<title>d&#45;&gt;for</title>
<path fill="none" stroke="#000000" d="M1456.91,-622.36C1449.43,-661.18 1431.14,-728.64 1390.04,-769.33 1338.13,-820.71 1301.11,-794.26 1237.04,-829.33 1221.62,-837.77 1205.72,-848.8 1192.3,-858.9"/>
<polygon fill="#000000" stroke="#000000" points="1190.1,-856.18 1184.29,-865.05 1194.36,-861.74 1190.1,-856.18"/>
<text text-anchor="middle" x="1313.54" y="-873.73" font-family="Times,serif" font-size="32.00">for</text>
<text text-anchor="middle" x="1313.54" y="-838.73" font-family="Times,serif" font-size="32.00">=d *k for</text>
</g>
<!-- of -->
<g id="node9" class="node">
<title>of</title>
<ellipse fill="none" stroke="black" cx="1157.52" cy="-735.33" rx="30.31" ry="30.31"/>
<text text-anchor="middle" x="1157.52" y="-727.23" font-family="Times,serif" font-size="32.00">of</text>
</g>
<!-- d&#45;&gt;of -->
<g id="edge5" class="edge">
<title>d&#45;&gt;of</title>
<path fill="none" stroke="#000000" d="M1445.18,-615.76C1432.19,-632.53 1412.52,-654.2 1390.04,-666.33 1329.13,-699.2 1302.53,-672.95 1237.04,-695.33 1221.98,-700.47 1206.2,-708.04 1192.77,-715.21"/>
<polygon fill="#000000" stroke="#000000" points="1190.97,-712.2 1183.88,-720.08 1194.33,-718.34 1190.97,-712.2"/>
<text text-anchor="middle" x="1313.54" y="-739.73" font-family="Times,serif" font-size="32.00">of</text>
<text text-anchor="middle" x="1313.54" y="-704.73" font-family="Times,serif" font-size="32.00">=d *k of</text>
</g>
<!-- about -->
<g id="node10" class="node">
<title>about</title>
<ellipse fill="none" stroke="black" cx="1157.52" cy="-592.33" rx="61.54" ry="30.31"/>
<text text-anchor="middle" x="1157.52" y="-584.23" font-family="Times,serif" font-size="32.00">about</text>
</g>
<!-- d&#45;&gt;about -->
<g id="edge6" class="edge">
<title>d&#45;&gt;about</title>
<path fill="none" stroke="#000000" d="M1435.44,-592.33C1390.13,-592.33 1295.45,-592.33 1229.49,-592.33"/>
<polygon fill="#000000" stroke="#000000" points="1229.16,-588.83 1219.16,-592.33 1229.16,-595.83 1229.16,-588.83"/>
<text text-anchor="middle" x="1313.54" y="-636.73" font-family="Times,serif" font-size="32.00">about</text>
<text text-anchor="middle" x="1313.54" y="-601.73" font-family="Times,serif" font-size="32.00">=d *k about</text>
</g>
<!-- 3 -->
<g id="node18" class="node">
<title>3</title>
<ellipse fill="none" stroke="black" cx="2208.54" cy="-924.33" rx="27" ry="30.31"/>
<text text-anchor="middle" x="2208.54" y="-916.23" font-family="Times,serif" font-size="32.00">3</text>
</g>
<!-- for&#45;&gt;3 -->
<g id="edge20" class="edge">
<title>for&#45;&gt;3</title>
<path fill="none" stroke="#000000" d="M1194.34,-893.36C1207.69,-895.69 1223,-898.02 1237.04,-899.33 1454.81,-919.69 1510.39,-904.69 1729.04,-910.33 1894.22,-914.59 2091.45,-920.68 2171.31,-923.18"/>
<polygon fill="#000000" stroke="#000000" points="2171.24,-926.68 2181.34,-923.5 2171.46,-919.69 2171.24,-926.68"/>
<text text-anchor="middle" x="1632.04" y="-954.73" font-family="Times,serif" font-size="32.00">hope</text>
<text text-anchor="middle" x="1632.04" y="-919.73" font-family="Times,serif" font-size="32.00">=for 3</text>
</g>
<!-- 4 -->
<g id="node19" class="node">
<title>4</title>
<ellipse fill="none" stroke="black" cx="1826.04" cy="-793.33" rx="27" ry="30.31"/>
<text text-anchor="middle" x="1826.04" y="-785.23" font-family="Times,serif" font-size="32.00">4</text>
</g>
<!-- of&#45;&gt;4 -->
<g id="edge35" class="edge">
<title>of&#45;&gt;4</title>
<path fill="none" stroke="#000000" d="M1185.49,-748.08C1200.35,-754.47 1219.33,-761.62 1237.04,-765.33 1343.27,-787.56 1677.99,-792.18 1788.92,-793.1"/>
<polygon fill="#000000" stroke="#000000" points="1788.92,-796.6 1798.94,-793.18 1788.97,-789.6 1788.92,-796.6"/>
<text text-anchor="middle" x="1462.54" y="-866.73" font-family="Times,serif" font-size="32.00">fear_1 |</text>
<text text-anchor="middle" x="1462.54" y="-831.73" font-family="Times,serif" font-size="32.00"> scorn_1</text>
<text text-anchor="middle" x="1462.54" y="-796.73" font-family="Times,serif" font-size="32.00">=of 4</text>
</g>
<!-- 0 -->
<g id="node11" class="node">
<title>0</title>
<ellipse fill="none" stroke="black" cx="229" cy="-967.33" rx="27" ry="30.31"/>
<text text-anchor="middle" x="229" y="-959.23" font-family="Times,serif" font-size="32.00">0</text>
</g>
<!-- 0&#45;&gt;t -->
<g id="edge7" class="edge">
<title>0&#45;&gt;t</title>
<path fill="none" stroke="#000000" d="M201.85,-967.33C166.67,-967.33 103.92,-967.33 64.21,-967.33"/>
<polygon fill="#000000" stroke="#000000" points="64.15,-963.83 54.15,-967.33 64.15,-970.83 64.15,-963.83"/>
<text text-anchor="middle" x="128" y="-1046.73" font-family="Times,serif" font-size="32.00">s |</text>
<text text-anchor="middle" x="128" y="-1011.73" font-family="Times,serif" font-size="32.00"> d</text>
<text text-anchor="middle" x="128" y="-976.73" font-family="Times,serif" font-size="32.00">=&gt;0 +k t</text>
</g>
<!-- 1 -->
<g id="node12" class="node">
<title>1</title>
<ellipse fill="none" stroke="black" cx="1462.54" cy="-1086.33" rx="27" ry="30.31"/>
<text text-anchor="middle" x="1462.54" y="-1078.23" font-family="Times,serif" font-size="32.00">1</text>
</g>
<!-- 2 -->
<g id="node13" class="node">
<title>2</title>
<ellipse fill="none" stroke="black" cx="1157.52" cy="-1086.33" rx="27" ry="30.31"/>
<text text-anchor="middle" x="1157.52" y="-1078.23" font-family="Times,serif" font-size="32.00">2</text>
</g>
<!-- 1&#45;&gt;2 -->
<g id="edge8" class="edge">
<title>1&#45;&gt;2</title>
<path fill="none" stroke="#000000" d="M1435.44,-1086.33C1381.29,-1086.33 1256.64,-1086.33 1194.75,-1086.33"/>
<polygon fill="#000000" stroke="#000000" points="1194.66,-1082.83 1184.66,-1086.33 1194.66,-1089.83 1194.66,-1082.83"/>
<text text-anchor="middle" x="1313.54" y="-1130.73" font-family="Times,serif" font-size="32.00">ε_0</text>
<text text-anchor="middle" x="1313.54" y="-1095.73" font-family="Times,serif" font-size="32.00">=&gt;1 =da 2</text>
</g>
<!-- v -->
<g id="node15" class="node">
<title>v</title>
<ellipse fill="none" stroke="black" cx="395" cy="-1060.33" rx="27" ry="30.31"/>
<text text-anchor="middle" x="395" y="-1052.23" font-family="Times,serif" font-size="32.00">v</text>
</g>
<!-- 2&#45;&gt;v -->
<g id="edge10" class="edge">
<title>2&#45;&gt;v</title>
<path fill="none" stroke="#000000" d="M1139.83,-1109.56C1125.64,-1127.17 1103.54,-1150.05 1078,-1160.33 863.6,-1246.63 780.5,-1226.85 558,-1164.33 505.72,-1149.64 454.55,-1111.7 424.13,-1085.95"/>
<polygon fill="#000000" stroke="#000000" points="426.35,-1083.24 416.49,-1079.36 421.78,-1088.54 426.35,-1083.24"/>
<text text-anchor="middle" x="744" y="-1262.73" font-family="Times,serif" font-size="32.00">ε_1</text>
<text text-anchor="middle" x="744" y="-1227.73" font-family="Times,serif" font-size="32.00">=&gt;2 v</text>
</g>
<!-- perf -->
<g id="node16" class="node">
<title>perf</title>
<ellipse fill="none" stroke="black" cx="608" cy="-1001.33" rx="48.17" ry="30.31"/>
<text text-anchor="middle" x="608" y="-993.23" font-family="Times,serif" font-size="32.00">perf</text>
</g>
<!-- 2&#45;&gt;perf -->
<g id="edge11" class="edge">
<title>2&#45;&gt;perf</title>
<path fill="none" stroke="#000000" d="M1134.12,-1070.4C1096.57,-1044.77 1017.56,-995.43 942,-977.33 914,-970.62 682.05,-981.39 676,-982.33 671.18,-983.08 666.21,-984.07 661.26,-985.2"/>
<polygon fill="#000000" stroke="#000000" points="660.05,-981.89 651.19,-987.68 661.73,-988.68 660.05,-981.89"/>
<text text-anchor="middle" x="886" y="-1021.73" font-family="Times,serif" font-size="32.00">n</text>
<text text-anchor="middle" x="886" y="-986.73" font-family="Times,serif" font-size="32.00">=&gt;2 perf</text>
</g>
<!-- prog -->
<g id="node17" class="node">
<title>prog</title>
<ellipse fill="none" stroke="black" cx="886" cy="-1086.33" rx="52.15" ry="30.31"/>
<text text-anchor="middle" x="886" y="-1078.23" font-family="Times,serif" font-size="32.00">prog</text>
</g>
<!-- 2&#45;&gt;prog -->
<g id="edge12" class="edge">
<title>2&#45;&gt;prog</title>
<path fill="none" stroke="#000000" d="M1130.19,-1086.33C1088.39,-1086.33 1005.74,-1086.33 948.47,-1086.33"/>
<polygon fill="#000000" stroke="#000000" points="948.44,-1082.83 938.44,-1086.33 948.44,-1089.83 948.44,-1082.83"/>
<text text-anchor="middle" x="1019" y="-1130.73" font-family="Times,serif" font-size="32.00">ing</text>
<text text-anchor="middle" x="1019" y="-1095.73" font-family="Times,serif" font-size="32.00">=&gt;2 prog</text>
</g>
<!-- a -->
<g id="node14" class="node">
<title>a</title>
<ellipse fill="none" stroke="black" cx="1826.04" cy="-1086.33" rx="27" ry="30.31"/>
<text text-anchor="middle" x="1826.04" y="-1078.23" font-family="Times,serif" font-size="32.00">a</text>
</g>
<!-- a&#45;&gt;1 -->
<g id="edge9" class="edge">
<title>a&#45;&gt;1</title>
<path fill="none" stroke="#000000" d="M1798.75,-1086.33C1735.1,-1086.33 1572.62,-1086.33 1499.8,-1086.33"/>
<polygon fill="#000000" stroke="#000000" points="1499.73,-1082.83 1489.73,-1086.33 1499.73,-1089.83 1499.73,-1082.83"/>
<text text-anchor="middle" x="1632.04" y="-1130.73" font-family="Times,serif" font-size="32.00">be</text>
<text text-anchor="middle" x="1632.04" y="-1095.73" font-family="Times,serif" font-size="32.00">=a 1</text>
</g>
<!-- v&#45;&gt;0 -->
<g id="edge13" class="edge">
<title>v&#45;&gt;0</title>
<path fill="none" stroke="#000000" d="M367.84,-1061.43C341.87,-1061.25 302,-1057.43 274,-1038.33 261.66,-1029.91 252.13,-1016.77 245.14,-1004.08"/>
<polygon fill="#000000" stroke="#000000" points="248.16,-1002.3 240.5,-994.98 241.93,-1005.48 248.16,-1002.3"/>
<text text-anchor="middle" x="312" y="-1105.73" font-family="Times,serif" font-size="32.00">will</text>
<text text-anchor="middle" x="312" y="-1070.73" font-family="Times,serif" font-size="32.00">=v 0</text>
</g>
<!-- v&#45;&gt;0 -->
<g id="edge15" class="edge">
<title>v&#45;&gt;0</title>
<path fill="none" stroke="#000000" d="M389.09,-1030.4C383.67,-1007.98 372.53,-978.79 350,-964.33 325.03,-948.3 290.71,-951.03 265.17,-956.61"/>
<polygon fill="#000000" stroke="#000000" points="264.06,-953.28 255.16,-959.04 265.71,-960.08 264.06,-953.28"/>
<text text-anchor="middle" x="312" y="-1008.73" font-family="Times,serif" font-size="32.00">ε_2</text>
<text text-anchor="middle" x="312" y="-973.73" font-family="Times,serif" font-size="32.00">=&gt;v 0</text>
</g>
<!-- perf&#45;&gt;v -->
<g id="edge14" class="edge">
<title>perf&#45;&gt;v</title>
<path fill="none" stroke="#000000" d="M562.33,-991.29C527.19,-985.74 477.99,-983.32 440,-1002.33 429.7,-1007.48 421.16,-1016.31 414.43,-1025.55"/>
<polygon fill="#000000" stroke="#000000" points="411.39,-1023.8 408.76,-1034.06 417.22,-1027.68 411.39,-1023.8"/>
<text text-anchor="middle" x="490" y="-1046.73" font-family="Times,serif" font-size="32.00">have</text>
<text text-anchor="middle" x="490" y="-1011.73" font-family="Times,serif" font-size="32.00">=perf v</text>
</g>
<!-- prog&#45;&gt;0 -->
<g id="edge16" class="edge">
<title>prog&#45;&gt;0</title>
<path fill="none" stroke="#000000" d="M845.69,-1066.75C839.75,-1062.36 834.21,-1057.23 830,-1051.33 810.09,-1023.43 836.34,-1000.47 812,-976.33 723.91,-888.93 663.29,-927.42 540,-913.33 421.53,-899.79 387.64,-912.21 274,-948.33 270.65,-949.4 267.2,-950.63 263.79,-951.94"/>
<polygon fill="#000000" stroke="#000000" points="262.28,-948.78 254.34,-955.79 264.92,-955.26 262.28,-948.78"/>
<text text-anchor="middle" x="490" y="-957.73" font-family="Times,serif" font-size="32.00">be_1</text>
<text text-anchor="middle" x="490" y="-922.73" font-family="Times,serif" font-size="32.00">=prog 0</text>
</g>
<!-- prog&#45;&gt;v -->
<g id="edge17" class="edge">
<title>prog&#45;&gt;v</title>
<path fill="none" stroke="#000000" d="M833.59,-1088.6C750.38,-1091.41 581.22,-1093.51 440,-1072.33 437.14,-1071.9 434.19,-1071.35 431.25,-1070.72"/>
<polygon fill="#000000" stroke="#000000" points="431.92,-1067.28 421.38,-1068.34 430.28,-1074.08 431.92,-1067.28"/>
<text text-anchor="middle" x="608" y="-1134.73" font-family="Times,serif" font-size="32.00">be_2</text>
<text text-anchor="middle" x="608" y="-1099.73" font-family="Times,serif" font-size="32.00">=prog v</text>
</g>
<!-- prog&#45;&gt;perf -->
<g id="edge18" class="edge">
<title>prog&#45;&gt;perf</title>
<path fill="none" stroke="#000000" d="M851.26,-1063.5C843.61,-1057.26 835.99,-1050.06 830,-1042.33 818.06,-1026.92 828.34,-1012.96 812,-1002.33 767.73,-973.55 705.74,-978.11 661.94,-986.85"/>
<polygon fill="#000000" stroke="#000000" points="661.11,-983.45 652.06,-988.96 662.56,-990.3 661.11,-983.45"/>
<text text-anchor="middle" x="744" y="-1046.73" font-family="Times,serif" font-size="32.00">ben</text>
<text text-anchor="middle" x="744" y="-1011.73" font-family="Times,serif" font-size="32.00">=prog perf</text>
</g>
<!-- 3&#45;&gt;1 -->
<g id="edge19" class="edge">
<title>3&#45;&gt;1</title>
<path fill="none" stroke="#000000" d="M2181.35,-924.77C2110.3,-926.51 1908.39,-935.1 1747.04,-977.33 1738.73,-979.5 1737.04,-981.23 1729.04,-984.33 1646.13,-1016.37 1548.55,-1053.78 1497.92,-1073.17"/>
<polygon fill="#000000" stroke="#000000" points="1496.53,-1069.96 1488.44,-1076.8 1499.03,-1076.49 1496.53,-1069.96"/>
<text text-anchor="middle" x="1826.04" y="-1021.73" font-family="Times,serif" font-size="32.00">ε_3</text>
<text text-anchor="middle" x="1826.04" y="-986.73" font-family="Times,serif" font-size="32.00">=&gt;3 1</text>
</g>
<!-- 3&#45;&gt;a -->
<g id="edge23" class="edge">
<title>3&#45;&gt;a</title>
<path fill="none" stroke="#000000" d="M2181.98,-930.74C2159.46,-936.22 2125.72,-944.04 2096.04,-949.33 2057.86,-956.13 1952.34,-946.92 1923.04,-972.33 1900.71,-991.69 1922.62,-1012.58 1905.04,-1036.33 1893.78,-1051.53 1876.41,-1063.32 1860.91,-1071.62"/>
<polygon fill="#000000" stroke="#000000" points="1858.92,-1068.7 1851.58,-1076.33 1862.08,-1074.95 1858.92,-1068.7"/>
<text text-anchor="middle" x="2009.54" y="-1016.73" font-family="Times,serif" font-size="32.00">ful</text>
<text text-anchor="middle" x="2009.54" y="-981.73" font-family="Times,serif" font-size="32.00">=&gt;3 a</text>
</g>
<!-- 3&#45;&gt;4 -->
<g id="edge22" class="edge">
<title>3&#45;&gt;4</title>
<path fill="none" stroke="#000000" d="M2182,-918.21C2161.08,-911.97 2132.08,-900.29 2114.04,-880.33 2097.92,-862.5 2114.7,-844.48 2096.04,-829.33 2065.93,-804.89 1961.47,-811.49 1923.04,-806.33 1903.25,-803.67 1881.17,-800.69 1863.18,-798.25"/>
<polygon fill="#000000" stroke="#000000" points="1863.49,-794.76 1853.11,-796.88 1862.55,-801.69 1863.49,-794.76"/>
<text text-anchor="middle" x="2009.54" y="-873.73" font-family="Times,serif" font-size="32.00">ε_5</text>
<text text-anchor="middle" x="2009.54" y="-838.73" font-family="Times,serif" font-size="32.00">=&gt;3 4</text>
</g>
<!-- 4&#45;&gt;d -->
<g id="edge21" class="edge">
<title>4&#45;&gt;d</title>
<path fill="none" stroke="#000000" d="M1800.03,-784.76C1782.91,-777.71 1760.88,-766.12 1747.04,-749.33 1730.94,-729.81 1746.49,-713.65 1729.04,-695.33 1666.11,-629.28 1555.96,-604.94 1499.36,-596.49"/>
<polygon fill="#000000" stroke="#000000" points="1499.83,-593.02 1489.44,-595.09 1498.85,-599.95 1499.83,-593.02"/>
<text text-anchor="middle" x="1632.04" y="-739.73" font-family="Times,serif" font-size="32.00">ε_4</text>
<text text-anchor="middle" x="1632.04" y="-704.73" font-family="Times,serif" font-size="32.00">=&gt;4 poss= d &#45;k</text>
</g>
<!-- 5 -->
<g id="node20" class="node">
<title>5</title>
<ellipse fill="none" stroke="black" cx="2208.54" cy="-1292.33" rx="27" ry="30.31"/>
<text text-anchor="middle" x="2208.54" y="-1284.23" font-family="Times,serif" font-size="32.00">5</text>
</g>
<!-- 5&#45;&gt;1 -->
<g id="edge24" class="edge">
<title>5&#45;&gt;1</title>
<path fill="none" stroke="#f7931d" stroke-width="2" d="M2182.7,-1301.33C2160.37,-1308.91 2126.5,-1319.17 2096.04,-1323.33 2019.85,-1333.72 1998.41,-1338.52 1923.04,-1323.33 1739.68,-1286.38 1689.39,-1265.97 1535.04,-1160.33 1517.37,-1148.24 1500.58,-1131.26 1487.72,-1116.61"/>
<polygon fill="#f7931d" stroke="#f7931d" stroke-width="2" points="1490.15,-1114.08 1480.99,-1108.76 1484.84,-1118.63 1490.15,-1114.08"/>
<text text-anchor="middle" x="1826.04" y="-1363.73" font-family="Times,serif" font-size="32.00">ε_6</text>
<text text-anchor="middle" x="1826.04" y="-1328.73" font-family="Times,serif" font-size="32.00">=&gt;5 1</text>
</g>
<!-- 5&#45;&gt;4 -->
<g id="edge27" class="edge">
<title>5&#45;&gt;4</title>
<path fill="none" stroke="#f7931d" stroke-width="2" d="M2182.82,-1282.56C2160.27,-1273.71 2126.01,-1260.39 2096.04,-1249.33 2019.55,-1221.1 1972.51,-1253.13 1923.04,-1188.33 1889.5,-1144.41 1920.31,-993.43 1905.04,-940.33 1892.87,-898.06 1867.59,-854.07 1849.09,-825.36"/>
<polygon fill="#f7931d" stroke="#f7931d" stroke-width="2" points="1852,-823.41 1843.59,-816.96 1846.14,-827.25 1852,-823.41"/>
<text text-anchor="middle" x="2009.54" y="-1293.73" font-family="Times,serif" font-size="32.00">ε_8</text>
<text text-anchor="middle" x="2009.54" y="-1258.73" font-family="Times,serif" font-size="32.00">=&gt;5 4</text>
</g>
<!-- 6 -->
<g id="node21" class="node">
<title>6</title>
<ellipse fill="none" stroke="black" cx="2501.98" cy="-1273.33" rx="27" ry="30.31"/>
<text text-anchor="middle" x="2501.98" y="-1265.23" font-family="Times,serif" font-size="32.00">6</text>
</g>
<!-- 6&#45;&gt;1 -->
<g id="edge30" class="edge">
<title>6&#45;&gt;1</title>
<path fill="none" stroke="#000000" d="M2491.05,-1301.41C2482.75,-1321.44 2469.17,-1347.83 2450.04,-1365.33 2397.32,-1413.54 2372.93,-1415.57 2303.04,-1430.33 2060.73,-1481.51 1977.21,-1484.72 1747.04,-1393.33 1636.57,-1349.47 1610.52,-1322.14 1535.04,-1230.33 1508.64,-1198.23 1488.77,-1154.76 1476.75,-1124"/>
<polygon fill="#000000" stroke="#000000" points="1479.96,-1122.59 1473.13,-1114.49 1473.42,-1125.09 1479.96,-1122.59"/>
<text text-anchor="middle" x="2009.54" y="-1509.73" font-family="Times,serif" font-size="32.00">ε_10</text>
<text text-anchor="middle" x="2009.54" y="-1474.73" font-family="Times,serif" font-size="32.00">=&gt;6 =about 1</text>
</g>
<!-- 6&#45;&gt;a -->
<g id="edge32" class="edge">
<title>6&#45;&gt;a</title>
<path fill="none" stroke="#000000" d="M2489.43,-1300.37C2481.04,-1316.31 2467.99,-1335.12 2450.04,-1344.33 2397.88,-1371.1 1970.7,-1353.46 1923.04,-1319.33 1860.34,-1274.44 1838.47,-1180.92 1830.93,-1127.01"/>
<polygon fill="#000000" stroke="#000000" points="1834.36,-1126.25 1829.6,-1116.78 1827.42,-1127.15 1834.36,-1126.25"/>
<text text-anchor="middle" x="2208.54" y="-1400.73" font-family="Times,serif" font-size="32.00">ful_2</text>
<text text-anchor="middle" x="2208.54" y="-1365.73" font-family="Times,serif" font-size="32.00">=&gt;6 =about a</text>
</g>
<!-- 6&#45;&gt;4 -->
<g id="edge31" class="edge">
<title>6&#45;&gt;4</title>
<path fill="none" stroke="#000000" d="M2475.19,-1269.47C2431.18,-1262.42 2344.08,-1246.33 2321.04,-1226.33 2305.39,-1212.75 2319.93,-1195.32 2303.04,-1183.33 2234.06,-1134.35 1983.53,-1219.47 1923.04,-1160.33 1888.59,-1126.66 1918.35,-990.62 1905.04,-944.33 1892.55,-900.9 1867.09,-855.39 1848.64,-825.83"/>
<polygon fill="#000000" stroke="#000000" points="1851.47,-823.76 1843.16,-817.19 1845.56,-827.51 1851.47,-823.76"/>
<text text-anchor="middle" x="2208.54" y="-1227.73" font-family="Times,serif" font-size="32.00">ε_11</text>
<text text-anchor="middle" x="2208.54" y="-1192.73" font-family="Times,serif" font-size="32.00">=&gt;6 =about 4</text>
</g>
<!-- 6&#45;&gt;5 -->
<g id="edge25" class="edge">
<title>6&#45;&gt;5</title>
<path fill="none" stroke="#f7931d" stroke-width="2" d="M2474.7,-1272.21C2439.6,-1271 2375.52,-1269.81 2321.04,-1274.33 2295.68,-1276.43 2267.38,-1281.03 2245.64,-1285.05"/>
<polygon fill="#f7931d" stroke="#f7931d" stroke-width="2" points="2244.7,-1281.67 2235.53,-1286.97 2246.01,-1288.54 2244.7,-1281.67"/>
<text text-anchor="middle" x="2385.54" y="-1318.73" font-family="Times,serif" font-size="32.00">ε_7</text>
<text text-anchor="middle" x="2385.54" y="-1283.73" font-family="Times,serif" font-size="32.00">=&gt;6 =of 5</text>
</g>
<!-- 7 -->
<g id="node23" class="node">
<title>7</title>
<ellipse fill="none" stroke="black" cx="2208.54" cy="-1108.33" rx="27" ry="30.31"/>
<text text-anchor="middle" x="2208.54" y="-1100.23" font-family="Times,serif" font-size="32.00">7</text>
</g>
<!-- 6&#45;&gt;7 -->
<g id="edge29" class="edge">
<title>6&#45;&gt;7</title>
<path fill="none" stroke="#000000" d="M2496.15,-1243.52C2490.15,-1216.51 2477.16,-1177.75 2450.04,-1156.33 2404.33,-1120.24 2378.13,-1144.81 2321.04,-1133.33 2295.52,-1128.2 2266.86,-1121.76 2244.99,-1116.7"/>
<polygon fill="#000000" stroke="#000000" points="2245.69,-1113.27 2235.15,-1114.41 2244.1,-1120.09 2245.69,-1113.27"/>
<text text-anchor="middle" x="2385.54" y="-1200.73" font-family="Times,serif" font-size="32.00">ε_9</text>
<text text-anchor="middle" x="2385.54" y="-1165.73" font-family="Times,serif" font-size="32.00">=&gt;6 7</text>
</g>
<!-- z3 -->
<g id="node22" class="node">
<title>z3</title>
<ellipse fill="none" stroke="black" stroke-dasharray="5,2" cx="2732.24" cy="-1273.33" rx="27" ry="18"/>
</g>
<!-- z3&#45;&gt;6 -->
<g id="edge26" class="edge">
<title>z3&#45;&gt;6</title>
<path fill="none" stroke="#000000" d="M2705.06,-1273.33C2664.32,-1273.33 2585.64,-1273.33 2539.39,-1273.33"/>
<polygon fill="#000000" stroke="#000000" points="2539.21,-1269.83 2529.21,-1273.33 2539.21,-1276.83 2539.21,-1269.83"/>
<text text-anchor="middle" x="2607.92" y="-1317.73" font-family="Times,serif" font-size="32.00">boast</text>
<text text-anchor="middle" x="2607.92" y="-1282.73" font-family="Times,serif" font-size="32.00">6</text>
</g>
<!-- 7&#45;&gt;a -->
<g id="edge28" class="edge">
<title>7&#45;&gt;a</title>
<path fill="none" stroke="#000000" d="M2181.38,-1106.82C2114.91,-1102.97 1939.39,-1092.83 1863.19,-1088.42"/>
<polygon fill="#000000" stroke="#000000" points="1863.31,-1084.92 1853.12,-1087.84 1862.9,-1091.91 1863.31,-1084.92"/>
<text text-anchor="middle" x="2009.54" y="-1146.73" font-family="Times,serif" font-size="32.00">ful_1</text>
<text text-anchor="middle" x="2009.54" y="-1111.73" font-family="Times,serif" font-size="32.00">=&gt;7 =of a</text>
</g>
<!-- 8 -->
<g id="node24" class="node">
<title>8</title>
<ellipse fill="none" stroke="black" cx="2208.54" cy="-475.33" rx="27" ry="30.31"/>
<text text-anchor="middle" x="2208.54" y="-467.23" font-family="Times,serif" font-size="32.00">8</text>
</g>
<!-- 8&#45;&gt;1 -->
<g id="edge33" class="edge">
<title>8&#45;&gt;1</title>
<path fill="none" stroke="#000000" d="M2182.25,-483.32C2110.09,-506.82 1898.69,-580.63 1747.04,-684.33 1638.33,-758.66 1606.59,-780.77 1535.04,-891.33 1503.16,-940.59 1482.92,-1006 1472.4,-1047.14"/>
<polygon fill="#000000" stroke="#000000" points="1468.95,-1046.5 1469.94,-1057.05 1475.75,-1048.19 1468.95,-1046.5"/>
<text text-anchor="middle" x="1826.04" y="-728.73" font-family="Times,serif" font-size="32.00">ε_12</text>
<text text-anchor="middle" x="1826.04" y="-693.73" font-family="Times,serif" font-size="32.00">=&gt;8 =d *k 1</text>
</g>
<!-- z4 -->
<g id="node25" class="node">
<title>z4</title>
<ellipse fill="none" stroke="black" stroke-dasharray="5,2" cx="2501.98" cy="-475.33" rx="27" ry="18"/>
</g>
<!-- z4&#45;&gt;8 -->
<g id="edge34" class="edge">
<title>z4&#45;&gt;8</title>
<path fill="none" stroke="#000000" d="M2474.86,-475.33C2422.66,-475.33 2305.39,-475.33 2245.79,-475.33"/>
<polygon fill="#000000" stroke="#000000" points="2245.7,-471.83 2235.7,-475.33 2245.7,-478.83 2245.7,-471.83"/>
<text text-anchor="middle" x="2385.54" y="-554.73" font-family="Times,serif" font-size="32.00">fear |</text>
<text text-anchor="middle" x="2385.54" y="-519.73" font-family="Times,serif" font-size="32.00"> scorn</text>
<text text-anchor="middle" x="2385.54" y="-484.73" font-family="Times,serif" font-size="32.00">8</text>
</g>
<!-- z5 -->
<g id="node26" class="node">
<title>z5</title>
<ellipse fill="none" stroke="black" stroke-dasharray="5,2" cx="2501.98" cy="-1027.33" rx="27" ry="18"/>
</g>
<!-- z5&#45;&gt;7 -->
<g id="edge36" class="edge">
<title>z5&#45;&gt;7</title>
<path fill="none" stroke="#000000" d="M2476.97,-1020.08C2440.29,-1010.53 2369.45,-998.22 2321.04,-1028.33 2305.85,-1037.78 2315.84,-1051.83 2303.04,-1064.33 2286.75,-1080.23 2263.64,-1091.18 2244.47,-1098.18"/>
<polygon fill="#000000" stroke="#000000" points="2243.18,-1094.92 2234.86,-1101.48 2245.46,-1101.54 2243.18,-1094.92"/>
<text text-anchor="middle" x="2385.54" y="-1107.73" font-family="Times,serif" font-size="32.00">fear_2 |</text>
<text text-anchor="middle" x="2385.54" y="-1072.73" font-family="Times,serif" font-size="32.00"> scorn_2</text>
<text text-anchor="middle" x="2385.54" y="-1037.73" font-family="Times,serif" font-size="32.00">7</text>
</g>
<!-- 9 -->
<g id="node27" class="node">
<title>9</title>
<ellipse fill="none" stroke="black" cx="2501.98" cy="-196.33" rx="27" ry="30.31"/>
<text text-anchor="middle" x="2501.98" y="-188.23" font-family="Times,serif" font-size="32.00">9</text>
</g>
<!-- 9&#45;&gt;4 -->
<g id="edge39" class="edge">
<title>9&#45;&gt;4</title>
<path fill="none" stroke="#000000" d="M2481.76,-175.99C2472.83,-167.59 2461.63,-158.4 2450.04,-152.33 2316.92,-82.57 2251.27,-53.06 2114.04,-114.33 1997.93,-166.17 1971,-209.57 1923.04,-327.33 1905.33,-370.79 1929.56,-709.32 1905.04,-749.33 1895.41,-765.03 1878,-775.62 1862.07,-782.47"/>
<polygon fill="#000000" stroke="#000000" points="1860.45,-779.34 1852.42,-786.26 1863.01,-785.86 1860.45,-779.34"/>
<text text-anchor="middle" x="2208.54" y="-158.73" font-family="Times,serif" font-size="32.00">ε_14</text>
<text text-anchor="middle" x="2208.54" y="-123.73" font-family="Times,serif" font-size="32.00">=&gt;9 =of 4</text>
</g>
<!-- 9&#45;&gt;7 -->
<g id="edge40" class="edge">
<title>9&#45;&gt;7</title>
<path fill="none" stroke="#000000" d="M2487.7,-222.58C2478.88,-237.61 2465.99,-255.74 2450.04,-267.33 2401.36,-302.68 2357.13,-260.2 2321.04,-308.33 2270.63,-375.55 2348.9,-993.93 2303.04,-1064.33 2290.16,-1084.09 2265.85,-1095.16 2245.24,-1101.26"/>
<polygon fill="#000000" stroke="#000000" points="2244.25,-1097.9 2235.49,-1103.86 2246.05,-1104.66 2244.25,-1097.9"/>
<text text-anchor="middle" x="2385.54" y="-352.73" font-family="Times,serif" font-size="32.00">ε_15</text>
<text text-anchor="middle" x="2385.54" y="-317.73" font-family="Times,serif" font-size="32.00">=&gt;9 7</text>
</g>
<!-- 9&#45;&gt;8 -->
<g id="edge37" class="edge">
<title>9&#45;&gt;8</title>
<path fill="none" stroke="#000000" d="M2475.73,-188.35C2438.38,-178.19 2367.79,-165.52 2321.04,-197.33 2318.39,-199.13 2253.69,-363.03 2224.09,-438.29"/>
<polygon fill="#000000" stroke="#000000" points="2220.72,-437.29 2220.32,-447.87 2227.24,-439.85 2220.72,-437.29"/>
<text text-anchor="middle" x="2385.54" y="-241.73" font-family="Times,serif" font-size="32.00">ε_13</text>
<text text-anchor="middle" x="2385.54" y="-206.73" font-family="Times,serif" font-size="32.00">=&gt;9 8</text>
</g>
<!-- z6 -->
<g id="node28" class="node">
<title>z6</title>
<ellipse fill="none" stroke="black" stroke-dasharray="5,2" cx="2732.24" cy="-196.33" rx="27" ry="18"/>
</g>
<!-- z6&#45;&gt;9 -->
<g id="edge38" class="edge">
<title>z6&#45;&gt;9</title>
<path fill="none" stroke="#000000" d="M2705.06,-196.33C2664.32,-196.33 2585.64,-196.33 2539.39,-196.33"/>
<polygon fill="#000000" stroke="#000000" points="2539.21,-192.83 2529.21,-196.33 2539.21,-199.83 2539.21,-192.83"/>
<text text-anchor="middle" x="2607.92" y="-240.73" font-family="Times,serif" font-size="32.00">neglect</text>
<text text-anchor="middle" x="2607.92" y="-205.73" font-family="Times,serif" font-size="32.00">9</text>
</g>
<!-- z7 -->
<g id="node29" class="node">
<title>z7</title>
<ellipse fill="none" stroke="black" stroke-dasharray="5,2" cx="2950.57" cy="-335.33" rx="27" ry="18"/>
</g>
<!-- 10 -->
<g id="node30" class="node">
<title>10</title>
<ellipse fill="none" stroke="black" cx="2732.24" cy="-335.33" rx="33.88" ry="30.31"/>
<text text-anchor="middle" x="2732.24" y="-327.23" font-family="Times,serif" font-size="32.00">10</text>
</g>
<!-- z7&#45;&gt;10 -->
<g id="edge41" class="edge">
<title>z7&#45;&gt;10</title>
<path fill="none" stroke="#000000" d="M2923.48,-335.33C2887.06,-335.33 2820.55,-335.33 2776.62,-335.33"/>
<polygon fill="#000000" stroke="#000000" points="2776.51,-331.83 2766.51,-335.33 2776.51,-338.83 2776.51,-331.83"/>
<text text-anchor="middle" x="2854.07" y="-379.73" font-family="Times,serif" font-size="32.00">respect</text>
<text text-anchor="middle" x="2854.07" y="-344.73" font-family="Times,serif" font-size="32.00">10</text>
</g>
<!-- 11 -->
<g id="node31" class="node">
<title>11</title>
<ellipse fill="none" stroke="black" cx="2501.98" cy="-382.33" rx="33.88" ry="30.31"/>
<text text-anchor="middle" x="2501.98" y="-374.23" font-family="Times,serif" font-size="32.00">11</text>
</g>
<!-- 10&#45;&gt;11 -->
<g id="edge43" class="edge">
<title>10&#45;&gt;11</title>
<path fill="none" stroke="#000000" d="M2699.44,-327.51C2662.84,-320.12 2601.66,-312.82 2553.92,-332.33 2544.46,-336.2 2535.8,-342.77 2528.42,-349.89"/>
<polygon fill="#000000" stroke="#000000" points="2525.87,-347.49 2521.47,-357.12 2530.92,-352.33 2525.87,-347.49"/>
<text text-anchor="middle" x="2607.92" y="-376.73" font-family="Times,serif" font-size="32.00">ε_17</text>
<text text-anchor="middle" x="2607.92" y="-341.73" font-family="Times,serif" font-size="32.00">=&gt;10 11</text>
</g>
<!-- 11&#45;&gt;4 -->
<g id="edge42" class="edge">
<title>11&#45;&gt;4</title>
<path fill="none" stroke="#000000" d="M2494.6,-352.62C2482.55,-297.12 2457.02,-182.79 2450.04,-177.33 2404.87,-142.01 2374.49,-156.6 2321.04,-177.33 2052.65,-281.42 2038.09,-424.45 1923.04,-688.33 1911.74,-714.24 1922.64,-727.21 1905.04,-749.33 1893.81,-763.44 1876.76,-773.79 1861.45,-780.9"/>
<polygon fill="#000000" stroke="#000000" points="1860,-777.71 1852.22,-784.91 1862.79,-784.13 1860,-777.71"/>
<text text-anchor="middle" x="2208.54" y="-351.73" font-family="Times,serif" font-size="32.00">ε_16</text>
<text text-anchor="middle" x="2208.54" y="-316.73" font-family="Times,serif" font-size="32.00">=&gt;11 =for 4</text>
</g>
<!-- 11&#45;&gt;7 -->
<g id="edge46" class="edge">
<title>11&#45;&gt;7</title>
<path fill="none" stroke="#000000" d="M2484.91,-408.68C2478.54,-420.41 2471.84,-434.63 2468.04,-448.33 2441.04,-545.41 2486.75,-580.5 2450.04,-674.33 2416.24,-760.69 2354.83,-751.97 2321.04,-838.33 2302.68,-885.25 2331.7,-1022.9 2303.04,-1064.33 2289.7,-1083.6 2265.63,-1094.66 2245.26,-1100.87"/>
<polygon fill="#000000" stroke="#000000" points="2244.31,-1097.5 2235.61,-1103.55 2246.18,-1104.25 2244.31,-1097.5"/>
<text text-anchor="middle" x="2385.54" y="-882.73" font-family="Times,serif" font-size="32.00">ε_19</text>
<text text-anchor="middle" x="2385.54" y="-847.73" font-family="Times,serif" font-size="32.00">=&gt;11 7</text>
</g>
<!-- 11&#45;&gt;8 -->
<g id="edge44" class="edge">
<title>11&#45;&gt;8</title>
<path fill="none" stroke="#000000" d="M2467.75,-381.17C2430.83,-380.94 2369.95,-383.72 2321.04,-401.33 2290.35,-412.38 2259.8,-433.56 2238.45,-450.44"/>
<polygon fill="#000000" stroke="#000000" points="2236.04,-447.89 2230.46,-456.9 2240.44,-453.33 2236.04,-447.89"/>
<text text-anchor="middle" x="2385.54" y="-445.73" font-family="Times,serif" font-size="32.00">ε_18</text>
<text text-anchor="middle" x="2385.54" y="-410.73" font-family="Times,serif" font-size="32.00">=&gt;11 8</text>
</g>
<!-- z8 -->
<g id="node32" class="node">
<title>z8</title>
<ellipse fill="none" stroke="black" stroke-dasharray="5,2" cx="2732.24" cy="-428.33" rx="27" ry="18"/>
</g>
<!-- z8&#45;&gt;11 -->
<g id="edge45" class="edge">
<title>z8&#45;&gt;11</title>
<path fill="none" stroke="#000000" d="M2705.18,-427.66C2670.15,-426.19 2606.21,-421.47 2553.92,-406.33 2549.58,-405.07 2545.14,-403.49 2540.78,-401.73"/>
<polygon fill="#000000" stroke="#000000" points="2542.02,-398.45 2531.45,-397.68 2539.23,-404.87 2542.02,-398.45"/>
<text text-anchor="middle" x="2607.92" y="-469.73" font-family="Times,serif" font-size="32.00">disdain</text>
<text text-anchor="middle" x="2607.92" y="-434.73" font-family="Times,serif" font-size="32.00">11</text>
</g>
<!-- 12 -->
<g id="node33" class="node">
<title>12</title>
<ellipse fill="none" stroke="black" cx="2501.98" cy="-806.33" rx="33.88" ry="30.31"/>
<text text-anchor="middle" x="2501.98" y="-798.23" font-family="Times,serif" font-size="32.00">12</text>
</g>
<!-- 12&#45;&gt;a -->
<g id="edge52" class="edge">
<title>12&#45;&gt;a</title>
<path fill="none" stroke="#000000" d="M2470.25,-817.52C2430.55,-833.45 2361.73,-866.27 2321.04,-915.33 2306.49,-932.87 2320.46,-948.65 2303.04,-963.33 2237.64,-1018.42 2180.46,-945.48 2114.04,-999.33 2097.94,-1012.38 2112.3,-1029.49 2096.04,-1042.33 2060.59,-1070.31 1928.46,-1081.03 1863.52,-1084.67"/>
<polygon fill="#000000" stroke="#000000" points="1863.13,-1081.18 1853.33,-1085.21 1863.5,-1088.17 1863.13,-1081.18"/>
<text text-anchor="middle" x="2208.54" y="-1043.73" font-family="Times,serif" font-size="32.00">ful_3</text>
<text text-anchor="middle" x="2208.54" y="-1008.73" font-family="Times,serif" font-size="32.00">=&gt;12 =about a</text>
</g>
<!-- 12&#45;&gt;4 -->
<g id="edge49" class="edge">
<title>12&#45;&gt;4</title>
<path fill="none" stroke="#000000" d="M2468.02,-805.69C2354.74,-803.51 1981.91,-796.32 1863.49,-794.03"/>
<polygon fill="#000000" stroke="#000000" points="1863.22,-790.53 1853.15,-793.83 1863.08,-797.53 1863.22,-790.53"/>
<text text-anchor="middle" x="2208.54" y="-847.73" font-family="Times,serif" font-size="32.00">ε_21</text>
<text text-anchor="middle" x="2208.54" y="-812.73" font-family="Times,serif" font-size="32.00">=&gt;12 =of 4</text>
</g>
<!-- 12&#45;&gt;4 -->
<g id="edge51" class="edge">
<title>12&#45;&gt;4</title>
<path fill="none" stroke="#000000" d="M2468.18,-800.89C2419.42,-792.57 2332.32,-776.63 2321.04,-767.33 2305.37,-754.41 2319.99,-736.51 2303.04,-725.33 2160.27,-631.19 1941.19,-731.26 1859.35,-775"/>
<polygon fill="#000000" stroke="#000000" points="1857.63,-771.95 1850.51,-779.79 1860.97,-778.1 1857.63,-771.95"/>
<text text-anchor="middle" x="2208.54" y="-769.73" font-family="Times,serif" font-size="32.00">ε_23</text>
<text text-anchor="middle" x="2208.54" y="-734.73" font-family="Times,serif" font-size="32.00">=&gt;12 =about 4</text>
</g>
<!-- 12&#45;&gt;7 -->
<g id="edge50" class="edge">
<title>12&#45;&gt;7</title>
<path fill="none" stroke="#000000" d="M2494.55,-836.27C2487.72,-860.6 2474.42,-893.8 2450.04,-912.33 2403.66,-947.56 2361.43,-893.38 2321.04,-935.33 2280.88,-977.03 2337.37,-1017.72 2303.04,-1064.33 2289.2,-1083.11 2265.3,-1094.17 2245.13,-1100.5"/>
<polygon fill="#000000" stroke="#000000" points="2243.94,-1097.2 2235.29,-1103.32 2245.86,-1103.93 2243.94,-1097.2"/>
<text text-anchor="middle" x="2385.54" y="-979.73" font-family="Times,serif" font-size="32.00">ε_22</text>
<text text-anchor="middle" x="2385.54" y="-944.73" font-family="Times,serif" font-size="32.00">=&gt;12 7</text>
</g>
<!-- 12&#45;&gt;8 -->
<g id="edge47" class="edge">
<title>12&#45;&gt;8</title>
<path fill="none" stroke="#000000" d="M2497.37,-776.05C2490.72,-725.58 2474.91,-627.51 2450.04,-604.33 2407.43,-564.63 2373,-607.62 2321.04,-581.33 2285.7,-563.46 2253.9,-530.74 2233.39,-506.36"/>
<polygon fill="#000000" stroke="#000000" points="2235.94,-503.95 2226.88,-498.45 2230.53,-508.39 2235.94,-503.95"/>
<text text-anchor="middle" x="2385.54" y="-648.73" font-family="Times,serif" font-size="32.00">ε_20</text>
<text text-anchor="middle" x="2385.54" y="-613.73" font-family="Times,serif" font-size="32.00">=&gt;12 8</text>
</g>
<!-- z9 -->
<g id="node34" class="node">
<title>z9</title>
<ellipse fill="none" stroke="black" stroke-dasharray="5,2" cx="2732.24" cy="-806.33" rx="27" ry="18"/>
</g>
<!-- z9&#45;&gt;12 -->
<g id="edge48" class="edge">
<title>z9&#45;&gt;12</title>
<path fill="none" stroke="#000000" d="M2705.06,-806.33C2666.3,-806.33 2593.21,-806.33 2546.37,-806.33"/>
<polygon fill="#000000" stroke="#000000" points="2546.22,-802.83 2536.22,-806.33 2546.22,-809.83 2546.22,-802.83"/>
<text text-anchor="middle" x="2607.92" y="-850.73" font-family="Times,serif" font-size="32.00">doubt</text>
<text text-anchor="middle" x="2607.92" y="-815.73" font-family="Times,serif" font-size="32.00">12</text>
</g>
</g>
</svg>
