<?xml version="1.0" encoding="UTF-8" standalone="no"?>
<!DOCTYPE svg PUBLIC "-//W3C//DTD SVG 1.1//EN"
 "http://www.w3.org/Graphics/SVG/1.1/DTD/svg11.dtd">
<!-- Generated by graphviz version 2.47.1 (20210417.1919)
 -->
<!-- Title: G Pages: 1 -->
<svg width="2777pt" height="1605pt"
 viewBox="0.00 0.00 2776.69 1604.74" xmlns="http://www.w3.org/2000/svg" xmlns:xlink="http://www.w3.org/1999/xlink">
<g id="graph0" class="graph" transform="scale(1 1) rotate(0) translate(4 1600.74)">
<title>G</title>
<polygon fill="white" stroke="transparent" points="-4,4 -4,-1600.74 2772.69,-1600.74 2772.69,4 -4,4"/>
<text text-anchor="middle" x="1384.34" y="-13.4" font-family="Times,serif" font-size="32.00">single contraction: 10 → 11</text>
<!-- t -->
<g id="node1" class="node">
<title>t</title>
<ellipse fill="lightgray" stroke="black" cx="27" cy="-964.74" rx="27" ry="30.31"/>
<text text-anchor="middle" x="27" y="-956.64" font-family="Times,serif" font-size="32.00">t</text>
</g>
<!-- z0 -->
<g id="node2" class="node">
<title>z0</title>
<ellipse fill="none" stroke="black" stroke-dasharray="5,2" cx="2741.69" cy="-1363.74" rx="27" ry="18"/>
</g>
<!-- da -->
<g id="node3" class="node">
<title>da</title>
<ellipse fill="none" stroke="black" cx="2520.36" cy="-1363.74" rx="33.47" ry="30.31"/>
<text text-anchor="middle" x="2520.36" y="-1355.64" font-family="Times,serif" font-size="32.00">da</text>
</g>
<!-- z0&#45;&gt;da -->
<g id="edge1" class="edge">
<title>z0&#45;&gt;da</title>
<path fill="none" stroke="#000000" d="M2714.67,-1363.74C2677.48,-1363.74 2608.7,-1363.74 2564.01,-1363.74"/>
<polygon fill="#000000" stroke="#000000" points="2563.75,-1360.24 2553.75,-1363.74 2563.75,-1367.24 2563.75,-1360.24"/>
<text text-anchor="middle" x="2643.69" y="-1443.14" font-family="Times,serif" font-size="32.00">Mary |</text>
<text text-anchor="middle" x="2643.69" y="-1408.14" font-family="Times,serif" font-size="32.00"> John</text>
<text text-anchor="middle" x="2643.69" y="-1373.14" font-family="Times,serif" font-size="32.00">da &#45;k</text>
</g>
<!-- z1 -->
<g id="node4" class="node">
<title>z1</title>
<ellipse fill="none" stroke="black" stroke-dasharray="5,2" cx="2741.69" cy="-1491.74" rx="27" ry="18"/>
</g>
<!-- poss -->
<g id="node5" class="node">
<title>poss</title>
<ellipse fill="none" stroke="black" cx="2520.36" cy="-1491.74" rx="52.15" ry="30.31"/>
<text text-anchor="middle" x="2520.36" y="-1483.64" font-family="Times,serif" font-size="32.00">poss</text>
</g>
<!-- z1&#45;&gt;poss -->
<g id="edge2" class="edge">
<title>z1&#45;&gt;poss</title>
<path fill="none" stroke="#000000" d="M2714.67,-1491.74C2682.42,-1491.74 2626.41,-1491.74 2582.95,-1491.74"/>
<polygon fill="#000000" stroke="#000000" points="2582.76,-1488.24 2572.76,-1491.74 2582.76,-1495.24 2582.76,-1488.24"/>
<text text-anchor="middle" x="2643.69" y="-1571.14" font-family="Times,serif" font-size="32.00">Mary&#39;s |</text>
<text text-anchor="middle" x="2643.69" y="-1536.14" font-family="Times,serif" font-size="32.00"> John&#39;s</text>
<text text-anchor="middle" x="2643.69" y="-1501.14" font-family="Times,serif" font-size="32.00">poss</text>
</g>
<!-- z2 -->
<g id="node6" class="node">
<title>z2</title>
<ellipse fill="none" stroke="black" stroke-dasharray="5,2" cx="1826.04" cy="-495.74" rx="27" ry="18"/>
</g>
<!-- d -->
<g id="node7" class="node">
<title>d</title>
<ellipse fill="none" stroke="black" cx="1462.54" cy="-589.74" rx="27" ry="30.31"/>
<text text-anchor="middle" x="1462.54" y="-581.64" font-family="Times,serif" font-size="32.00">d</text>
</g>
<!-- z2&#45;&gt;d -->
<g id="edge3" class="edge">
<title>z2&#45;&gt;d</title>
<path fill="none" stroke="#000000" d="M1800.88,-489.06C1749,-476.11 1624.39,-452.53 1535.04,-496.74 1510.87,-508.69 1492.57,-533.16 1480.54,-554"/>
<polygon fill="#000000" stroke="#000000" points="1477.36,-552.51 1475.61,-562.96 1483.5,-555.88 1477.36,-552.51"/>
<text text-anchor="middle" x="1632.04" y="-541.14" font-family="Times,serif" font-size="32.00">the&#45;cause</text>
<text text-anchor="middle" x="1632.04" y="-506.14" font-family="Times,serif" font-size="32.00">d &#45;k</text>
</g>
<!-- for -->
<g id="node8" class="node">
<title>for</title>
<ellipse fill="none" stroke="black" cx="1157.52" cy="-883.74" rx="37.45" ry="30.31"/>
<text text-anchor="middle" x="1157.52" y="-875.64" font-family="Times,serif" font-size="32.00">for</text>
</g>
<!-- d&#45;&gt;for -->
<g id="edge4" class="edge">
<title>d&#45;&gt;for</title>
<path fill="none" stroke="#000000" d="M1456.91,-619.76C1449.43,-658.59 1431.14,-726.05 1390.04,-766.74 1338.13,-818.12 1301.11,-791.66 1237.04,-826.74 1221.62,-835.17 1205.72,-846.2 1192.3,-856.31"/>
<polygon fill="#000000" stroke="#000000" points="1190.1,-853.59 1184.29,-862.45 1194.36,-859.14 1190.1,-853.59"/>
<text text-anchor="middle" x="1313.54" y="-871.14" font-family="Times,serif" font-size="32.00">for</text>
<text text-anchor="middle" x="1313.54" y="-836.14" font-family="Times,serif" font-size="32.00">=d *k for</text>
</g>
<!-- of -->
<g id="node9" class="node">
<title>of</title>
<ellipse fill="none" stroke="black" cx="1157.52" cy="-732.74" rx="30.31" ry="30.31"/>
<text text-anchor="middle" x="1157.52" y="-724.64" font-family="Times,serif" font-size="32.00">of</text>
</g>
<!-- d&#45;&gt;of -->
<g id="edge5" class="edge">
<title>d&#45;&gt;of</title>
<path fill="none" stroke="#000000" d="M1445.18,-613.17C1432.19,-629.93 1412.52,-651.6 1390.04,-663.74 1329.13,-696.61 1302.53,-670.36 1237.04,-692.74 1221.98,-697.88 1206.2,-705.45 1192.77,-712.62"/>
<polygon fill="#000000" stroke="#000000" points="1190.97,-709.61 1183.88,-717.48 1194.33,-715.75 1190.97,-709.61"/>
<text text-anchor="middle" x="1313.54" y="-737.14" font-family="Times,serif" font-size="32.00">of</text>
<text text-anchor="middle" x="1313.54" y="-702.14" font-family="Times,serif" font-size="32.00">=d *k of</text>
</g>
<!-- about -->
<g id="node10" class="node">
<title>about</title>
<ellipse fill="none" stroke="black" cx="1157.52" cy="-589.74" rx="61.54" ry="30.31"/>
<text text-anchor="middle" x="1157.52" y="-581.64" font-family="Times,serif" font-size="32.00">about</text>
</g>
<!-- d&#45;&gt;about -->
<g id="edge6" class="edge">
<title>d&#45;&gt;about</title>
<path fill="none" stroke="#000000" d="M1435.44,-589.74C1390.13,-589.74 1295.45,-589.74 1229.49,-589.74"/>
<polygon fill="#000000" stroke="#000000" points="1229.16,-586.24 1219.16,-589.74 1229.16,-593.24 1229.16,-586.24"/>
<text text-anchor="middle" x="1313.54" y="-634.14" font-family="Times,serif" font-size="32.00">about</text>
<text text-anchor="middle" x="1313.54" y="-599.14" font-family="Times,serif" font-size="32.00">=d *k about</text>
</g>
<!-- 3 -->
<g id="node18" class="node">
<title>3</title>
<ellipse fill="none" stroke="black" cx="2208.54" cy="-921.74" rx="27" ry="30.31"/>
<text text-anchor="middle" x="2208.54" y="-913.64" font-family="Times,serif" font-size="32.00">3</text>
</g>
<!-- for&#45;&gt;3 -->
<g id="edge20" class="edge">
<title>for&#45;&gt;3</title>
<path fill="none" stroke="#000000" d="M1194.34,-890.76C1207.69,-893.09 1223,-895.42 1237.04,-896.74 1454.81,-917.09 1510.39,-902.09 1729.04,-907.74 1894.22,-912 2091.45,-918.08 2171.31,-920.59"/>
<polygon fill="#000000" stroke="#000000" points="2171.24,-924.09 2181.34,-920.91 2171.46,-917.09 2171.24,-924.09"/>
<text text-anchor="middle" x="1632.04" y="-952.14" font-family="Times,serif" font-size="32.00">hope</text>
<text text-anchor="middle" x="1632.04" y="-917.14" font-family="Times,serif" font-size="32.00">=for 3</text>
</g>
<!-- 4 -->
<g id="node19" class="node">
<title>4</title>
<ellipse fill="none" stroke="black" cx="1826.04" cy="-790.74" rx="27" ry="30.31"/>
<text text-anchor="middle" x="1826.04" y="-782.64" font-family="Times,serif" font-size="32.00">4</text>
</g>
<!-- of&#45;&gt;4 -->
<g id="edge35" class="edge">
<title>of&#45;&gt;4</title>
<path fill="none" stroke="#000000" d="M1185.49,-745.48C1200.35,-751.87 1219.33,-759.03 1237.04,-762.74 1343.27,-784.96 1677.99,-789.58 1788.92,-790.51"/>
<polygon fill="#000000" stroke="#000000" points="1788.92,-794.01 1798.94,-790.59 1788.97,-787.01 1788.92,-794.01"/>
<text text-anchor="middle" x="1462.54" y="-864.14" font-family="Times,serif" font-size="32.00">fear_1 |</text>
<text text-anchor="middle" x="1462.54" y="-829.14" font-family="Times,serif" font-size="32.00"> scorn_1</text>
<text text-anchor="middle" x="1462.54" y="-794.14" font-family="Times,serif" font-size="32.00">=of 4</text>
</g>
<!-- 0 -->
<g id="node11" class="node">
<title>0</title>
<ellipse fill="none" stroke="black" cx="229" cy="-964.74" rx="27" ry="30.31"/>
<text text-anchor="middle" x="229" y="-956.64" font-family="Times,serif" font-size="32.00">0</text>
</g>
<!-- 0&#45;&gt;t -->
<g id="edge7" class="edge">
<title>0&#45;&gt;t</title>
<path fill="none" stroke="#000000" d="M201.85,-964.74C166.67,-964.74 103.92,-964.74 64.21,-964.74"/>
<polygon fill="#000000" stroke="#000000" points="64.15,-961.24 54.15,-964.74 64.15,-968.24 64.15,-961.24"/>
<text text-anchor="middle" x="128" y="-1044.14" font-family="Times,serif" font-size="32.00">s |</text>
<text text-anchor="middle" x="128" y="-1009.14" font-family="Times,serif" font-size="32.00"> d</text>
<text text-anchor="middle" x="128" y="-974.14" font-family="Times,serif" font-size="32.00">=&gt;0 +k t</text>
</g>
<!-- 1 -->
<g id="node12" class="node">
<title>1</title>
<ellipse fill="none" stroke="black" cx="1462.54" cy="-1083.74" rx="27" ry="30.31"/>
<text text-anchor="middle" x="1462.54" y="-1075.64" font-family="Times,serif" font-size="32.00">1</text>
</g>
<!-- 2 -->
<g id="node13" class="node">
<title>2</title>
<ellipse fill="none" stroke="black" cx="1157.52" cy="-1083.74" rx="27" ry="30.31"/>
<text text-anchor="middle" x="1157.52" y="-1075.64" font-family="Times,serif" font-size="32.00">2</text>
</g>
<!-- 1&#45;&gt;2 -->
<g id="edge8" class="edge">
<title>1&#45;&gt;2</title>
<path fill="none" stroke="#000000" d="M1435.44,-1083.74C1381.29,-1083.74 1256.64,-1083.74 1194.75,-1083.74"/>
<polygon fill="#000000" stroke="#000000" points="1194.66,-1080.24 1184.66,-1083.74 1194.66,-1087.24 1194.66,-1080.24"/>
<text text-anchor="middle" x="1313.54" y="-1128.14" font-family="Times,serif" font-size="32.00">ε_0</text>
<text text-anchor="middle" x="1313.54" y="-1093.14" font-family="Times,serif" font-size="32.00">=&gt;1 =da 2</text>
</g>
<!-- v -->
<g id="node15" class="node">
<title>v</title>
<ellipse fill="none" stroke="black" cx="395" cy="-1057.74" rx="27" ry="30.31"/>
<text text-anchor="middle" x="395" y="-1049.64" font-family="Times,serif" font-size="32.00">v</text>
</g>
<!-- 2&#45;&gt;v -->
<g id="edge10" class="edge">
<title>2&#45;&gt;v</title>
<path fill="none" stroke="#000000" d="M1139.83,-1106.97C1125.64,-1124.58 1103.54,-1147.45 1078,-1157.74 863.6,-1244.03 780.5,-1224.26 558,-1161.74 505.72,-1147.04 454.55,-1109.11 424.13,-1083.35"/>
<polygon fill="#000000" stroke="#000000" points="426.35,-1080.64 416.49,-1076.76 421.78,-1085.94 426.35,-1080.64"/>
<text text-anchor="middle" x="744" y="-1260.14" font-family="Times,serif" font-size="32.00">ε_1</text>
<text text-anchor="middle" x="744" y="-1225.14" font-family="Times,serif" font-size="32.00">=&gt;2 v</text>
</g>
<!-- perf -->
<g id="node16" class="node">
<title>perf</title>
<ellipse fill="none" stroke="black" cx="608" cy="-998.74" rx="48.17" ry="30.31"/>
<text text-anchor="middle" x="608" y="-990.64" font-family="Times,serif" font-size="32.00">perf</text>
</g>
<!-- 2&#45;&gt;perf -->
<g id="edge11" class="edge">
<title>2&#45;&gt;perf</title>
<path fill="none" stroke="#000000" d="M1134.12,-1067.8C1096.57,-1042.17 1017.56,-992.83 942,-974.74 914,-968.03 682.05,-978.79 676,-979.74 671.18,-980.49 666.21,-981.47 661.26,-982.6"/>
<polygon fill="#000000" stroke="#000000" points="660.05,-979.29 651.19,-985.09 661.73,-986.09 660.05,-979.29"/>
<text text-anchor="middle" x="886" y="-1019.14" font-family="Times,serif" font-size="32.00">n</text>
<text text-anchor="middle" x="886" y="-984.14" font-family="Times,serif" font-size="32.00">=&gt;2 perf</text>
</g>
<!-- prog -->
<g id="node17" class="node">
<title>prog</title>
<ellipse fill="none" stroke="black" cx="886" cy="-1083.74" rx="52.15" ry="30.31"/>
<text text-anchor="middle" x="886" y="-1075.64" font-family="Times,serif" font-size="32.00">prog</text>
</g>
<!-- 2&#45;&gt;prog -->
<g id="edge12" class="edge">
<title>2&#45;&gt;prog</title>
<path fill="none" stroke="#000000" d="M1130.19,-1083.74C1088.39,-1083.74 1005.74,-1083.74 948.47,-1083.74"/>
<polygon fill="#000000" stroke="#000000" points="948.44,-1080.24 938.44,-1083.74 948.44,-1087.24 948.44,-1080.24"/>
<text text-anchor="middle" x="1019" y="-1128.14" font-family="Times,serif" font-size="32.00">ing</text>
<text text-anchor="middle" x="1019" y="-1093.14" font-family="Times,serif" font-size="32.00">=&gt;2 prog</text>
</g>
<!-- a -->
<g id="node14" class="node">
<title>a</title>
<ellipse fill="none" stroke="black" cx="1826.04" cy="-1083.74" rx="27" ry="30.31"/>
<text text-anchor="middle" x="1826.04" y="-1075.64" font-family="Times,serif" font-size="32.00">a</text>
</g>
<!-- a&#45;&gt;1 -->
<g id="edge9" class="edge">
<title>a&#45;&gt;1</title>
<path fill="none" stroke="#000000" d="M1798.75,-1083.74C1735.1,-1083.74 1572.62,-1083.74 1499.8,-1083.74"/>
<polygon fill="#000000" stroke="#000000" points="1499.73,-1080.24 1489.73,-1083.74 1499.73,-1087.24 1499.73,-1080.24"/>
<text text-anchor="middle" x="1632.04" y="-1128.14" font-family="Times,serif" font-size="32.00">be</text>
<text text-anchor="middle" x="1632.04" y="-1093.14" font-family="Times,serif" font-size="32.00">=a 1</text>
</g>
<!-- v&#45;&gt;0 -->
<g id="edge13" class="edge">
<title>v&#45;&gt;0</title>
<path fill="none" stroke="#000000" d="M367.84,-1058.83C341.87,-1058.65 302,-1054.83 274,-1035.74 261.66,-1027.32 252.13,-1014.18 245.14,-1001.48"/>
<polygon fill="#000000" stroke="#000000" points="248.16,-999.71 240.5,-992.39 241.93,-1002.89 248.16,-999.71"/>
<text text-anchor="middle" x="312" y="-1103.14" font-family="Times,serif" font-size="32.00">will</text>
<text text-anchor="middle" x="312" y="-1068.14" font-family="Times,serif" font-size="32.00">=v 0</text>
</g>
<!-- v&#45;&gt;0 -->
<g id="edge15" class="edge">
<title>v&#45;&gt;0</title>
<path fill="none" stroke="#000000" d="M389.09,-1027.8C383.67,-1005.38 372.53,-976.19 350,-961.74 325.03,-945.71 290.71,-948.44 265.17,-954.02"/>
<polygon fill="#000000" stroke="#000000" points="264.06,-950.69 255.16,-956.44 265.71,-957.49 264.06,-950.69"/>
<text text-anchor="middle" x="312" y="-1006.14" font-family="Times,serif" font-size="32.00">ε_2</text>
<text text-anchor="middle" x="312" y="-971.14" font-family="Times,serif" font-size="32.00">=&gt;v 0</text>
</g>
<!-- perf&#45;&gt;v -->
<g id="edge14" class="edge">
<title>perf&#45;&gt;v</title>
<path fill="none" stroke="#000000" d="M562.33,-988.7C527.19,-983.15 477.99,-980.73 440,-999.74 429.7,-1004.89 421.16,-1013.72 414.43,-1022.96"/>
<polygon fill="#000000" stroke="#000000" points="411.39,-1021.2 408.76,-1031.46 417.22,-1025.08 411.39,-1021.2"/>
<text text-anchor="middle" x="490" y="-1044.14" font-family="Times,serif" font-size="32.00">have</text>
<text text-anchor="middle" x="490" y="-1009.14" font-family="Times,serif" font-size="32.00">=perf v</text>
</g>
<!-- prog&#45;&gt;0 -->
<g id="edge16" class="edge">
<title>prog&#45;&gt;0</title>
<path fill="none" stroke="#000000" d="M845.69,-1064.15C839.75,-1059.77 834.21,-1054.63 830,-1048.74 810.09,-1020.83 836.34,-997.88 812,-973.74 723.91,-886.34 663.29,-924.83 540,-910.74 421.53,-897.19 387.64,-909.62 274,-945.74 270.65,-946.8 267.2,-948.03 263.79,-949.35"/>
<polygon fill="#000000" stroke="#000000" points="262.28,-946.18 254.34,-953.2 264.92,-952.66 262.28,-946.18"/>
<text text-anchor="middle" x="490" y="-955.14" font-family="Times,serif" font-size="32.00">be_1</text>
<text text-anchor="middle" x="490" y="-920.14" font-family="Times,serif" font-size="32.00">=prog 0</text>
</g>
<!-- prog&#45;&gt;v -->
<g id="edge17" class="edge">
<title>prog&#45;&gt;v</title>
<path fill="none" stroke="#000000" d="M833.59,-1086.01C750.38,-1088.82 581.22,-1090.91 440,-1069.74 437.14,-1069.31 434.19,-1068.75 431.25,-1068.12"/>
<polygon fill="#000000" stroke="#000000" points="431.92,-1064.68 421.38,-1065.74 430.28,-1071.49 431.92,-1064.68"/>
<text text-anchor="middle" x="608" y="-1132.14" font-family="Times,serif" font-size="32.00">be_2</text>
<text text-anchor="middle" x="608" y="-1097.14" font-family="Times,serif" font-size="32.00">=prog v</text>
</g>
<!-- prog&#45;&gt;perf -->
<g id="edge18" class="edge">
<title>prog&#45;&gt;perf</title>
<path fill="none" stroke="#000000" d="M851.26,-1060.9C843.61,-1054.66 835.99,-1047.47 830,-1039.74 818.06,-1024.33 828.34,-1010.36 812,-999.74 767.73,-970.95 705.74,-975.52 661.94,-984.26"/>
<polygon fill="#000000" stroke="#000000" points="661.11,-980.86 652.06,-986.36 662.56,-987.7 661.11,-980.86"/>
<text text-anchor="middle" x="744" y="-1044.14" font-family="Times,serif" font-size="32.00">ben</text>
<text text-anchor="middle" x="744" y="-1009.14" font-family="Times,serif" font-size="32.00">=prog perf</text>
</g>
<!-- 3&#45;&gt;1 -->
<g id="edge19" class="edge">
<title>3&#45;&gt;1</title>
<path fill="none" stroke="#000000" d="M2181.35,-922.17C2110.3,-923.91 1908.39,-932.5 1747.04,-974.74 1738.73,-976.91 1737.04,-978.64 1729.04,-981.74 1646.13,-1013.78 1548.55,-1051.19 1497.92,-1070.58"/>
<polygon fill="#000000" stroke="#000000" points="1496.53,-1067.36 1488.44,-1074.21 1499.03,-1073.9 1496.53,-1067.36"/>
<text text-anchor="middle" x="1826.04" y="-1019.14" font-family="Times,serif" font-size="32.00">ε_3</text>
<text text-anchor="middle" x="1826.04" y="-984.14" font-family="Times,serif" font-size="32.00">=&gt;3 1</text>
</g>
<!-- 3&#45;&gt;a -->
<g id="edge23" class="edge">
<title>3&#45;&gt;a</title>
<path fill="none" stroke="#000000" d="M2181.98,-928.14C2159.46,-933.62 2125.72,-941.44 2096.04,-946.74 2057.86,-953.54 1952.34,-944.33 1923.04,-969.74 1900.71,-989.09 1922.62,-1009.99 1905.04,-1033.74 1893.78,-1048.94 1876.41,-1060.72 1860.91,-1069.02"/>
<polygon fill="#000000" stroke="#000000" points="1858.92,-1066.11 1851.58,-1073.74 1862.08,-1072.35 1858.92,-1066.11"/>
<text text-anchor="middle" x="2009.54" y="-1014.14" font-family="Times,serif" font-size="32.00">ful</text>
<text text-anchor="middle" x="2009.54" y="-979.14" font-family="Times,serif" font-size="32.00">=&gt;3 a</text>
</g>
<!-- 3&#45;&gt;4 -->
<g id="edge22" class="edge">
<title>3&#45;&gt;4</title>
<path fill="none" stroke="#000000" d="M2182,-915.62C2161.08,-909.37 2132.08,-897.7 2114.04,-877.74 2097.92,-859.91 2114.7,-841.88 2096.04,-826.74 2065.93,-802.29 1961.47,-808.89 1923.04,-803.74 1903.25,-801.08 1881.17,-798.09 1863.18,-795.65"/>
<polygon fill="#000000" stroke="#000000" points="1863.49,-792.16 1853.11,-794.28 1862.55,-799.1 1863.49,-792.16"/>
<text text-anchor="middle" x="2009.54" y="-871.14" font-family="Times,serif" font-size="32.00">ε_5</text>
<text text-anchor="middle" x="2009.54" y="-836.14" font-family="Times,serif" font-size="32.00">=&gt;3 4</text>
</g>
<!-- 4&#45;&gt;d -->
<g id="edge21" class="edge">
<title>4&#45;&gt;d</title>
<path fill="none" stroke="#000000" d="M1800.03,-782.16C1782.91,-775.11 1760.88,-763.53 1747.04,-746.74 1730.94,-727.22 1746.49,-711.05 1729.04,-692.74 1666.11,-626.69 1555.96,-602.34 1499.36,-593.89"/>
<polygon fill="#000000" stroke="#000000" points="1499.83,-590.43 1489.44,-592.5 1498.85,-597.36 1499.83,-590.43"/>
<text text-anchor="middle" x="1632.04" y="-737.14" font-family="Times,serif" font-size="32.00">ε_4</text>
<text text-anchor="middle" x="1632.04" y="-702.14" font-family="Times,serif" font-size="32.00">=&gt;4 poss= d &#45;k</text>
</g>
<!-- 5 -->
<g id="node20" class="node">
<title>5</title>
<ellipse fill="none" stroke="black" cx="2208.54" cy="-1289.74" rx="27" ry="30.31"/>
<text text-anchor="middle" x="2208.54" y="-1281.64" font-family="Times,serif" font-size="32.00">5</text>
</g>
<!-- 5&#45;&gt;1 -->
<g id="edge24" class="edge">
<title>5&#45;&gt;1</title>
<path fill="none" stroke="#000000" d="M2182.7,-1298.73C2160.37,-1306.32 2126.5,-1316.58 2096.04,-1320.74 2019.85,-1331.13 1998.41,-1335.92 1923.04,-1320.74 1739.68,-1283.78 1689.39,-1263.37 1535.04,-1157.74 1517.37,-1145.65 1500.58,-1128.66 1487.72,-1114.02"/>
<polygon fill="#000000" stroke="#000000" points="1490.15,-1111.48 1480.99,-1106.17 1484.84,-1116.04 1490.15,-1111.48"/>
<text text-anchor="middle" x="1826.04" y="-1360.14" font-family="Times,serif" font-size="32.00">ε_6</text>
<text text-anchor="middle" x="1826.04" y="-1325.14" font-family="Times,serif" font-size="32.00">=&gt;5 1</text>
</g>
<!-- 5&#45;&gt;4 -->
<g id="edge27" class="edge">
<title>5&#45;&gt;4</title>
<path fill="none" stroke="#000000" d="M2182.82,-1279.96C2160.27,-1271.11 2126.01,-1257.8 2096.04,-1246.74 2019.55,-1218.51 1972.51,-1250.53 1923.04,-1185.74 1889.5,-1141.82 1920.31,-990.84 1905.04,-937.74 1892.87,-895.46 1867.59,-851.48 1849.09,-822.77"/>
<polygon fill="#000000" stroke="#000000" points="1852,-820.82 1843.59,-814.37 1846.14,-824.65 1852,-820.82"/>
<text text-anchor="middle" x="2009.54" y="-1291.14" font-family="Times,serif" font-size="32.00">ε_8</text>
<text text-anchor="middle" x="2009.54" y="-1256.14" font-family="Times,serif" font-size="32.00">=&gt;5 4</text>
</g>
<!-- 6 -->
<g id="node21" class="node">
<title>6</title>
<ellipse fill="none" stroke="black" cx="2520.36" cy="-1270.74" rx="27" ry="30.31"/>
<text text-anchor="middle" x="2520.36" y="-1262.64" font-family="Times,serif" font-size="32.00">6</text>
</g>
<!-- 6&#45;&gt;1 -->
<g id="edge30" class="edge">
<title>6&#45;&gt;1</title>
<path fill="none" stroke="#000000" d="M2498.84,-1289.51C2488.79,-1299.37 2476.95,-1312.03 2468.04,-1324.74 2457.76,-1339.38 2462.95,-1348.35 2450.04,-1360.74 2398.35,-1410.31 2373.06,-1411.74 2303.04,-1426.74 2060.87,-1478.6 1977.35,-1480.79 1747.04,-1389.74 1636.76,-1346.14 1610.48,-1319.22 1535.04,-1227.74 1508.6,-1195.67 1488.73,-1152.2 1476.73,-1121.43"/>
<polygon fill="#000000" stroke="#000000" points="1479.94,-1120.02 1473.11,-1111.92 1473.39,-1122.51 1479.94,-1120.02"/>
<text text-anchor="middle" x="2009.54" y="-1506.14" font-family="Times,serif" font-size="32.00">ε_10</text>
<text text-anchor="middle" x="2009.54" y="-1471.14" font-family="Times,serif" font-size="32.00">=&gt;6 =about 1</text>
</g>
<!-- 6&#45;&gt;a -->
<g id="edge32" class="edge">
<title>6&#45;&gt;a</title>
<path fill="none" stroke="#000000" d="M2500.2,-1291.12C2480.83,-1311.61 2453.29,-1340.36 2450.04,-1341.74 2396.01,-1364.49 1970.7,-1350.86 1923.04,-1316.74 1860.34,-1271.85 1838.47,-1178.33 1830.93,-1124.41"/>
<polygon fill="#000000" stroke="#000000" points="1834.36,-1123.65 1829.6,-1114.19 1827.42,-1124.55 1834.36,-1123.65"/>
<text text-anchor="middle" x="2208.54" y="-1397.14" font-family="Times,serif" font-size="32.00">ful_2</text>
<text text-anchor="middle" x="2208.54" y="-1362.14" font-family="Times,serif" font-size="32.00">=&gt;6 =about a</text>
</g>
<!-- 6&#45;&gt;4 -->
<g id="edge31" class="edge">
<title>6&#45;&gt;4</title>
<path fill="none" stroke="#000000" d="M2493.23,-1267.51C2445.55,-1261.16 2346.94,-1245.71 2321.04,-1223.74 2305.24,-1210.33 2319.93,-1192.73 2303.04,-1180.74 2234.06,-1131.76 1983.53,-1216.87 1923.04,-1157.74 1888.59,-1124.06 1918.35,-988.03 1905.04,-941.74 1892.55,-898.3 1867.09,-852.79 1848.64,-823.24"/>
<polygon fill="#000000" stroke="#000000" points="1851.47,-821.17 1843.16,-814.6 1845.56,-824.92 1851.47,-821.17"/>
<text text-anchor="middle" x="2208.54" y="-1225.14" font-family="Times,serif" font-size="32.00">ε_11</text>
<text text-anchor="middle" x="2208.54" y="-1190.14" font-family="Times,serif" font-size="32.00">=&gt;6 =about 4</text>
</g>
<!-- 6&#45;&gt;5 -->
<g id="edge25" class="edge">
<title>6&#45;&gt;5</title>
<path fill="none" stroke="#000000" d="M2493.32,-1269.58C2455.35,-1268.2 2382.63,-1266.64 2321.04,-1271.74 2295.68,-1273.83 2267.38,-1278.43 2245.64,-1282.45"/>
<polygon fill="#000000" stroke="#000000" points="2244.7,-1279.07 2235.53,-1284.37 2246.01,-1285.94 2244.7,-1279.07"/>
<text text-anchor="middle" x="2385.54" y="-1316.14" font-family="Times,serif" font-size="32.00">ε_7</text>
<text text-anchor="middle" x="2385.54" y="-1281.14" font-family="Times,serif" font-size="32.00">=&gt;6 =of 5</text>
</g>
<!-- 7 -->
<g id="node23" class="node">
<title>7</title>
<ellipse fill="none" stroke="black" cx="2208.54" cy="-1105.74" rx="27" ry="30.31"/>
<text text-anchor="middle" x="2208.54" y="-1097.64" font-family="Times,serif" font-size="32.00">7</text>
</g>
<!-- 6&#45;&gt;7 -->
<g id="edge29" class="edge">
<title>6&#45;&gt;7</title>
<path fill="none" stroke="#000000" d="M2510.33,-1242.28C2500.16,-1215.08 2480.89,-1175.12 2450.04,-1153.74 2402.17,-1120.56 2378.13,-1142.22 2321.04,-1130.74 2295.52,-1125.6 2266.86,-1119.16 2244.99,-1114.1"/>
<polygon fill="#000000" stroke="#000000" points="2245.69,-1110.67 2235.15,-1111.82 2244.1,-1117.49 2245.69,-1110.67"/>
<text text-anchor="middle" x="2385.54" y="-1198.14" font-family="Times,serif" font-size="32.00">ε_9</text>
<text text-anchor="middle" x="2385.54" y="-1163.14" font-family="Times,serif" font-size="32.00">=&gt;6 7</text>
</g>
<!-- z3 -->
<g id="node22" class="node">
<title>z3</title>
<ellipse fill="none" stroke="black" stroke-dasharray="5,2" cx="2741.69" cy="-1270.74" rx="27" ry="18"/>
</g>
<!-- z3&#45;&gt;6 -->
<g id="edge26" class="edge">
<title>z3&#45;&gt;6</title>
<path fill="none" stroke="#000000" d="M2714.67,-1270.74C2675.69,-1270.74 2602.02,-1270.74 2557.74,-1270.74"/>
<polygon fill="#000000" stroke="#000000" points="2557.69,-1267.24 2547.69,-1270.74 2557.69,-1274.24 2557.69,-1267.24"/>
<text text-anchor="middle" x="2643.69" y="-1315.14" font-family="Times,serif" font-size="32.00">boast</text>
<text text-anchor="middle" x="2643.69" y="-1280.14" font-family="Times,serif" font-size="32.00">6</text>
</g>
<!-- 7&#45;&gt;a -->
<g id="edge28" class="edge">
<title>7&#45;&gt;a</title>
<path fill="none" stroke="#000000" d="M2181.38,-1104.22C2114.91,-1100.38 1939.39,-1090.23 1863.19,-1085.83"/>
<polygon fill="#000000" stroke="#000000" points="1863.31,-1082.33 1853.12,-1085.24 1862.9,-1089.31 1863.31,-1082.33"/>
<text text-anchor="middle" x="2009.54" y="-1144.14" font-family="Times,serif" font-size="32.00">ful_1</text>
<text text-anchor="middle" x="2009.54" y="-1109.14" font-family="Times,serif" font-size="32.00">=&gt;7 =of a</text>
</g>
<!-- 8 -->
<g id="node24" class="node">
<title>8</title>
<ellipse fill="none" stroke="black" cx="2208.54" cy="-472.74" rx="27" ry="30.31"/>
<text text-anchor="middle" x="2208.54" y="-464.64" font-family="Times,serif" font-size="32.00">8</text>
</g>
<!-- 8&#45;&gt;1 -->
<g id="edge33" class="edge">
<title>8&#45;&gt;1</title>
<path fill="none" stroke="#000000" d="M2182.25,-480.72C2110.09,-504.23 1898.69,-578.04 1747.04,-681.74 1638.33,-756.07 1606.59,-778.18 1535.04,-888.74 1503.16,-937.99 1482.92,-1003.41 1472.4,-1044.55"/>
<polygon fill="#000000" stroke="#000000" points="1468.95,-1043.91 1469.94,-1054.46 1475.75,-1045.6 1468.95,-1043.91"/>
<text text-anchor="middle" x="1826.04" y="-726.14" font-family="Times,serif" font-size="32.00">ε_12</text>
<text text-anchor="middle" x="1826.04" y="-691.14" font-family="Times,serif" font-size="32.00">=&gt;8 =d *k 1</text>
</g>
<!-- z4 -->
<g id="node25" class="node">
<title>z4</title>
<ellipse fill="none" stroke="black" stroke-dasharray="5,2" cx="2520.36" cy="-472.74" rx="27" ry="18"/>
</g>
<!-- z4&#45;&gt;8 -->
<g id="edge34" class="edge">
<title>z4&#45;&gt;8</title>
<path fill="none" stroke="#000000" d="M2493.21,-472.74C2438.05,-472.74 2309.64,-472.74 2246.26,-472.74"/>
<polygon fill="#000000" stroke="#000000" points="2245.94,-469.24 2235.94,-472.74 2245.94,-476.24 2245.94,-469.24"/>
<text text-anchor="middle" x="2385.54" y="-552.14" font-family="Times,serif" font-size="32.00">fear |</text>
<text text-anchor="middle" x="2385.54" y="-517.14" font-family="Times,serif" font-size="32.00"> scorn</text>
<text text-anchor="middle" x="2385.54" y="-482.14" font-family="Times,serif" font-size="32.00">8</text>
</g>
<!-- z5 -->
<g id="node26" class="node">
<title>z5</title>
<ellipse fill="none" stroke="black" stroke-dasharray="5,2" cx="2520.36" cy="-1024.74" rx="27" ry="18"/>
</g>
<!-- z5&#45;&gt;7 -->
<g id="edge36" class="edge">
<title>z5&#45;&gt;7</title>
<path fill="none" stroke="#000000" d="M2495.51,-1017.42C2455.91,-1006.8 2375.58,-991.84 2321.04,-1025.74 2305.84,-1035.18 2315.84,-1049.24 2303.04,-1061.74 2286.75,-1077.64 2263.64,-1088.59 2244.47,-1095.58"/>
<polygon fill="#000000" stroke="#000000" points="2243.18,-1092.33 2234.86,-1098.89 2245.46,-1098.95 2243.18,-1092.33"/>
<text text-anchor="middle" x="2385.54" y="-1105.14" font-family="Times,serif" font-size="32.00">fear_2 |</text>
<text text-anchor="middle" x="2385.54" y="-1070.14" font-family="Times,serif" font-size="32.00"> scorn_2</text>
<text text-anchor="middle" x="2385.54" y="-1035.14" font-family="Times,serif" font-size="32.00">7</text>
</g>
<!-- 9 -->
<g id="node27" class="node">
<title>9</title>
<ellipse fill="none" stroke="black" cx="2520.36" cy="-193.74" rx="27" ry="30.31"/>
<text text-anchor="middle" x="2520.36" y="-185.64" font-family="Times,serif" font-size="32.00">9</text>
</g>
<!-- 9&#45;&gt;4 -->
<g id="edge39" class="edge">
<title>9&#45;&gt;4</title>
<path fill="none" stroke="#000000" d="M2497.18,-177.62C2484.01,-168.67 2466.68,-157.92 2450.04,-150.74 2312,-91.19 2251.31,-50.45 2114.04,-111.74 1997.93,-163.57 1971,-206.98 1923.04,-324.74 1905.33,-368.2 1929.56,-706.72 1905.04,-746.74 1895.41,-762.43 1878,-773.02 1862.07,-779.87"/>
<polygon fill="#000000" stroke="#000000" points="1860.45,-776.75 1852.42,-783.66 1863.01,-783.26 1860.45,-776.75"/>
<text text-anchor="middle" x="2208.54" y="-156.14" font-family="Times,serif" font-size="32.00">ε_14</text>
<text text-anchor="middle" x="2208.54" y="-121.14" font-family="Times,serif" font-size="32.00">=&gt;9 =of 4</text>
</g>
<!-- 9&#45;&gt;7 -->
<g id="edge40" class="edge">
<title>9&#45;&gt;7</title>
<path fill="none" stroke="#000000" d="M2502.23,-216.5C2489.42,-232.09 2470.61,-252.15 2450.04,-264.74 2398.83,-296.06 2357.22,-256.84 2321.04,-304.74 2270.32,-371.87 2348.96,-991.24 2303.04,-1061.74 2290.16,-1081.5 2265.85,-1092.57 2245.24,-1098.66"/>
<polygon fill="#000000" stroke="#000000" points="2244.25,-1095.3 2235.49,-1101.27 2246.05,-1102.07 2244.25,-1095.3"/>
<text text-anchor="middle" x="2385.54" y="-349.14" font-family="Times,serif" font-size="32.00">ε_15</text>
<text text-anchor="middle" x="2385.54" y="-314.14" font-family="Times,serif" font-size="32.00">=&gt;9 7</text>
</g>
<!-- 9&#45;&gt;8 -->
<g id="edge37" class="edge">
<title>9&#45;&gt;8</title>
<path fill="none" stroke="#000000" d="M2494.21,-185.66C2453.83,-174.34 2373.71,-158.92 2321.04,-194.74 2318.39,-196.54 2253.69,-360.44 2224.09,-435.7"/>
<polygon fill="#000000" stroke="#000000" points="2220.72,-434.69 2220.32,-445.28 2227.24,-437.25 2220.72,-434.69"/>
<text text-anchor="middle" x="2385.54" y="-239.14" font-family="Times,serif" font-size="32.00">ε_13</text>
<text text-anchor="middle" x="2385.54" y="-204.14" font-family="Times,serif" font-size="32.00">=&gt;9 8</text>
</g>
<!-- z6 -->
<g id="node28" class="node">
<title>z6</title>
<ellipse fill="none" stroke="black" stroke-dasharray="5,2" cx="2741.69" cy="-193.74" rx="27" ry="18"/>
</g>
<!-- z6&#45;&gt;9 -->
<g id="edge38" class="edge">
<title>z6&#45;&gt;9</title>
<path fill="none" stroke="#000000" d="M2714.67,-193.74C2675.69,-193.74 2602.02,-193.74 2557.74,-193.74"/>
<polygon fill="#000000" stroke="#000000" points="2557.69,-190.24 2547.69,-193.74 2557.69,-197.24 2557.69,-190.24"/>
<text text-anchor="middle" x="2643.69" y="-238.14" font-family="Times,serif" font-size="32.00">neglect</text>
<text text-anchor="middle" x="2643.69" y="-203.14" font-family="Times,serif" font-size="32.00">9</text>
</g>
<!-- z7 -->
<g id="node29" class="node">
<title>z7</title>
<ellipse fill="none" stroke="black" stroke-dasharray="5,2" cx="2741.69" cy="-379.74" rx="27" ry="18"/>
</g>
<!-- 10 -->
<g id="node30" class="node">
<title>10</title>
<ellipse fill="none" stroke="black" cx="2520.36" cy="-379.74" rx="33.88" ry="30.31"/>
<text text-anchor="middle" x="2520.36" y="-371.64" font-family="Times,serif" font-size="32.00">10</text>
</g>
<!-- z7&#45;&gt;10 -->
<g id="edge41" class="edge">
<title>z7&#45;&gt;10</title>
<path fill="none" stroke="#000000" d="M2714.67,-379.74C2677.69,-379.74 2609.48,-379.74 2564.77,-379.74"/>
<polygon fill="#000000" stroke="#000000" points="2564.49,-376.24 2554.49,-379.74 2564.49,-383.24 2564.49,-376.24"/>
<text text-anchor="middle" x="2643.69" y="-459.14" font-family="Times,serif" font-size="32.00">respect |</text>
<text text-anchor="middle" x="2643.69" y="-424.14" font-family="Times,serif" font-size="32.00"> disdain</text>
<text text-anchor="middle" x="2643.69" y="-389.14" font-family="Times,serif" font-size="32.00">10</text>
</g>
<!-- 10&#45;&gt;4 -->
<g id="edge42" class="edge">
<title>10&#45;&gt;4</title>
<path fill="none" stroke="#000000" d="M2508.93,-350.83C2498.35,-321.26 2481.62,-273.94 2468.04,-232.74 2459.59,-207.1 2471.77,-190.74 2450.04,-174.74 2403.88,-140.73 2374.49,-154 2321.04,-174.74 2052.65,-278.83 2038.09,-421.86 1923.04,-685.74 1911.74,-711.65 1922.64,-724.62 1905.04,-746.74 1893.81,-760.84 1876.76,-771.19 1861.45,-778.3"/>
<polygon fill="#000000" stroke="#000000" points="1860,-775.12 1852.22,-782.31 1862.79,-781.54 1860,-775.12"/>
<text text-anchor="middle" x="2208.54" y="-349.14" font-family="Times,serif" font-size="32.00">ε_16</text>
<text text-anchor="middle" x="2208.54" y="-314.14" font-family="Times,serif" font-size="32.00">=&gt;10 =for 4</text>
</g>
<!-- 10&#45;&gt;7 -->
<g id="edge44" class="edge">
<title>10&#45;&gt;7</title>
<path fill="none" stroke="#000000" d="M2496.9,-401.78C2486.21,-413.72 2474.39,-429.36 2468.04,-445.74 2431.58,-539.67 2486.75,-577.9 2450.04,-671.74 2416.24,-758.09 2354.83,-749.38 2321.04,-835.74 2302.68,-882.65 2331.7,-1020.3 2303.04,-1061.74 2289.7,-1081.01 2265.63,-1092.07 2245.26,-1098.28"/>
<polygon fill="#000000" stroke="#000000" points="2244.31,-1094.91 2235.61,-1100.95 2246.18,-1101.65 2244.31,-1094.91"/>
<text text-anchor="middle" x="2385.54" y="-880.14" font-family="Times,serif" font-size="32.00">ε_18</text>
<text text-anchor="middle" x="2385.54" y="-845.14" font-family="Times,serif" font-size="32.00">=&gt;10 7</text>
</g>
<!-- 10&#45;&gt;8 -->
<g id="edge43" class="edge">
<title>10&#45;&gt;8</title>
<path fill="none" stroke="#000000" d="M2486.37,-378.08C2446.14,-377.14 2376.62,-379.03 2321.04,-398.74 2290.3,-409.63 2259.75,-430.83 2238.42,-447.75"/>
<polygon fill="#000000" stroke="#000000" points="2235.99,-445.21 2230.43,-454.23 2240.4,-450.65 2235.99,-445.21"/>
<text text-anchor="middle" x="2385.54" y="-443.14" font-family="Times,serif" font-size="32.00">ε_17</text>
<text text-anchor="middle" x="2385.54" y="-408.14" font-family="Times,serif" font-size="32.00">=&gt;10 8</text>
</g>
<!-- 11 -->
<g id="node31" class="node">
<title>11</title>
<ellipse fill="none" stroke="black" cx="2520.36" cy="-803.74" rx="33.88" ry="30.31"/>
<text text-anchor="middle" x="2520.36" y="-795.64" font-family="Times,serif" font-size="32.00">11</text>
</g>
<!-- 11&#45;&gt;a -->
<g id="edge50" class="edge">
<title>11&#45;&gt;a</title>
<path fill="none" stroke="#000000" d="M2488.1,-813.2C2444.81,-827.82 2366.81,-859.86 2321.04,-912.74 2306.12,-929.96 2320.46,-946.06 2303.04,-960.74 2237.64,-1015.83 2180.46,-942.88 2114.04,-996.74 2097.94,-1009.78 2112.3,-1026.9 2096.04,-1039.74 2060.59,-1067.72 1928.46,-1078.43 1863.52,-1082.07"/>
<polygon fill="#000000" stroke="#000000" points="1863.13,-1078.59 1853.33,-1082.62 1863.5,-1085.58 1863.13,-1078.59"/>
<text text-anchor="middle" x="2208.54" y="-1041.14" font-family="Times,serif" font-size="32.00">ful_3</text>
<text text-anchor="middle" x="2208.54" y="-1006.14" font-family="Times,serif" font-size="32.00">=&gt;11 =about a</text>
</g>
<!-- 11&#45;&gt;4 -->
<g id="edge47" class="edge">
<title>11&#45;&gt;4</title>
<path fill="none" stroke="#000000" d="M2485.97,-803.11C2369.82,-800.93 1983.96,-793.68 1863.37,-791.42"/>
<polygon fill="#000000" stroke="#000000" points="1863.26,-787.91 1853.19,-791.23 1863.13,-794.91 1863.26,-787.91"/>
<text text-anchor="middle" x="2208.54" y="-844.14" font-family="Times,serif" font-size="32.00">ε_20</text>
<text text-anchor="middle" x="2208.54" y="-809.14" font-family="Times,serif" font-size="32.00">=&gt;11 =of 4</text>
</g>
<!-- 11&#45;&gt;4 -->
<g id="edge49" class="edge">
<title>11&#45;&gt;4</title>
<path fill="none" stroke="#000000" d="M2486.69,-799.01C2433.74,-791.11 2333.79,-775.05 2321.04,-764.74 2305.25,-751.96 2319.99,-733.91 2303.04,-722.74 2160.27,-628.6 1941.19,-728.66 1859.35,-772.4"/>
<polygon fill="#000000" stroke="#000000" points="1857.63,-769.35 1850.51,-777.2 1860.97,-775.51 1857.63,-769.35"/>
<text text-anchor="middle" x="2208.54" y="-767.14" font-family="Times,serif" font-size="32.00">ε_22</text>
<text text-anchor="middle" x="2208.54" y="-732.14" font-family="Times,serif" font-size="32.00">=&gt;11 =about 4</text>
</g>
<!-- 11&#45;&gt;7 -->
<g id="edge48" class="edge">
<title>11&#45;&gt;7</title>
<path fill="none" stroke="#000000" d="M2508.39,-832.45C2497.44,-857.03 2478.17,-891.29 2450.04,-909.74 2401.4,-941.62 2361.51,-889.97 2321.04,-931.74 2280.44,-973.62 2337.6,-1014.75 2303.04,-1061.74 2289.21,-1080.53 2265.31,-1091.58 2245.13,-1097.91"/>
<polygon fill="#000000" stroke="#000000" points="2243.94,-1094.61 2235.29,-1100.73 2245.87,-1101.34 2243.94,-1094.61"/>
<text text-anchor="middle" x="2385.54" y="-976.14" font-family="Times,serif" font-size="32.00">ε_21</text>
<text text-anchor="middle" x="2385.54" y="-941.14" font-family="Times,serif" font-size="32.00">=&gt;11 7</text>
</g>
<!-- 11&#45;&gt;8 -->
<g id="edge45" class="edge">
<title>11&#45;&gt;8</title>
<path fill="none" stroke="#000000" d="M2518.12,-773.12C2514.56,-728.29 2501,-645.39 2450.04,-601.74 2405.81,-563.85 2373,-605.02 2321.04,-578.74 2285.7,-560.86 2253.9,-528.15 2233.39,-503.77"/>
<polygon fill="#000000" stroke="#000000" points="2235.94,-501.35 2226.88,-495.85 2230.53,-505.8 2235.94,-501.35"/>
<text text-anchor="middle" x="2385.54" y="-646.14" font-family="Times,serif" font-size="32.00">ε_19</text>
<text text-anchor="middle" x="2385.54" y="-611.14" font-family="Times,serif" font-size="32.00">=&gt;11 8</text>
</g>
<!-- z8 -->
<g id="node32" class="node">
<title>z8</title>
<ellipse fill="none" stroke="black" stroke-dasharray="5,2" cx="2741.69" cy="-803.74" rx="27" ry="18"/>
</g>
<!-- z8&#45;&gt;11 -->
<g id="edge46" class="edge">
<title>z8&#45;&gt;11</title>
<path fill="none" stroke="#000000" d="M2714.67,-803.74C2677.69,-803.74 2609.48,-803.74 2564.77,-803.74"/>
<polygon fill="#000000" stroke="#000000" points="2564.49,-800.24 2554.49,-803.74 2564.49,-807.24 2564.49,-800.24"/>
<text text-anchor="middle" x="2643.69" y="-848.14" font-family="Times,serif" font-size="32.00">doubt</text>
<text text-anchor="middle" x="2643.69" y="-813.14" font-family="Times,serif" font-size="32.00">11</text>
</g>
</g>
</svg>
