<?xml version="1.0" encoding="UTF-8" standalone="no"?>
<!DOCTYPE svg PUBLIC "-//W3C//DTD SVG 1.1//EN"
 "http://www.w3.org/Graphics/SVG/1.1/DTD/svg11.dtd">
<!-- Generated by graphviz version 2.47.1 (20210417.1919)
 -->
<!-- Title: G Pages: 1 -->
<svg width="2722pt" height="1874pt"
 viewBox="0.00 0.00 2721.69 1873.94" xmlns="http://www.w3.org/2000/svg" xmlns:xlink="http://www.w3.org/1999/xlink">
<g id="graph0" class="graph" transform="scale(1 1) rotate(0) translate(4 1869.94)">
<title>G</title>
<polygon fill="white" stroke="transparent" points="-4,4 -4,-1869.94 2717.69,-1869.94 2717.69,4 -4,4"/>
<text text-anchor="middle" x="1356.84" y="-13.4" font-family="Times,serif" font-size="32.00">decomposition: fear =of 4, &#160;=&gt;9 =of 4, scorn =of 4, &#160;=&gt;11 =of 4</text>
<!-- t -->
<g id="node1" class="node">
<title>t</title>
<ellipse fill="lightgray" stroke="black" cx="27" cy="-292.94" rx="27" ry="30.31"/>
<text text-anchor="middle" x="27" y="-284.84" font-family="Times,serif" font-size="32.00">t</text>
</g>
<!-- z0 -->
<g id="node2" class="node">
<title>z0</title>
<ellipse fill="none" stroke="black" stroke-dasharray="5,2" cx="2686.69" cy="-1632.94" rx="27" ry="18"/>
</g>
<!-- da -->
<g id="node3" class="node">
<title>da</title>
<ellipse fill="none" stroke="black" cx="2465.36" cy="-1632.94" rx="33.47" ry="30.31"/>
<text text-anchor="middle" x="2465.36" y="-1624.84" font-family="Times,serif" font-size="32.00">da</text>
</g>
<!-- z0&#45;&gt;da -->
<g id="edge1" class="edge">
<title>z0&#45;&gt;da</title>
<path fill="none" stroke="#000000" d="M2659.67,-1632.94C2622.48,-1632.94 2553.7,-1632.94 2509.01,-1632.94"/>
<polygon fill="#000000" stroke="#000000" points="2508.75,-1629.44 2498.75,-1632.94 2508.75,-1636.44 2508.75,-1629.44"/>
<text text-anchor="middle" x="2588.69" y="-1712.34" font-family="Times,serif" font-size="32.00">Mary |</text>
<text text-anchor="middle" x="2588.69" y="-1677.34" font-family="Times,serif" font-size="32.00"> John</text>
<text text-anchor="middle" x="2588.69" y="-1642.34" font-family="Times,serif" font-size="32.00">da &#45;k</text>
</g>
<!-- z1 -->
<g id="node4" class="node">
<title>z1</title>
<ellipse fill="none" stroke="black" stroke-dasharray="5,2" cx="2686.69" cy="-1760.94" rx="27" ry="18"/>
</g>
<!-- poss -->
<g id="node5" class="node">
<title>poss</title>
<ellipse fill="none" stroke="black" cx="2465.36" cy="-1760.94" rx="52.15" ry="30.31"/>
<text text-anchor="middle" x="2465.36" y="-1752.84" font-family="Times,serif" font-size="32.00">poss</text>
</g>
<!-- z1&#45;&gt;poss -->
<g id="edge2" class="edge">
<title>z1&#45;&gt;poss</title>
<path fill="none" stroke="#000000" d="M2659.67,-1760.94C2627.42,-1760.94 2571.41,-1760.94 2527.95,-1760.94"/>
<polygon fill="#000000" stroke="#000000" points="2527.76,-1757.44 2517.76,-1760.94 2527.76,-1764.44 2527.76,-1757.44"/>
<text text-anchor="middle" x="2588.69" y="-1840.34" font-family="Times,serif" font-size="32.00">Mary&#39;s |</text>
<text text-anchor="middle" x="2588.69" y="-1805.34" font-family="Times,serif" font-size="32.00"> John&#39;s</text>
<text text-anchor="middle" x="2588.69" y="-1770.34" font-family="Times,serif" font-size="32.00">poss</text>
</g>
<!-- z2 -->
<g id="node6" class="node">
<title>z2</title>
<ellipse fill="none" stroke="black" stroke-dasharray="5,2" cx="1771.04" cy="-1324.94" rx="27" ry="18"/>
</g>
<!-- d -->
<g id="node7" class="node">
<title>d</title>
<ellipse fill="none" stroke="black" cx="1435.04" cy="-1231.94" rx="27" ry="30.31"/>
<text text-anchor="middle" x="1435.04" y="-1223.84" font-family="Times,serif" font-size="32.00">d</text>
</g>
<!-- z2&#45;&gt;d -->
<g id="edge3" class="edge">
<title>z2&#45;&gt;d</title>
<path fill="none" stroke="#000000" d="M1744.88,-1330.13C1691.59,-1339.7 1565.27,-1354.72 1480.04,-1302.94 1467.17,-1295.13 1457.5,-1281.98 1450.56,-1269.1"/>
<polygon fill="#000000" stroke="#000000" points="1453.55,-1267.26 1445.97,-1259.86 1447.28,-1270.37 1453.55,-1267.26"/>
<text text-anchor="middle" x="1577.04" y="-1384.34" font-family="Times,serif" font-size="32.00">the&#45;cause</text>
<text text-anchor="middle" x="1577.04" y="-1349.34" font-family="Times,serif" font-size="32.00">d &#45;k</text>
</g>
<!-- for -->
<g id="node8" class="node">
<title>for</title>
<ellipse fill="none" stroke="black" cx="1157.52" cy="-625.94" rx="37.45" ry="30.31"/>
<text text-anchor="middle" x="1157.52" y="-617.84" font-family="Times,serif" font-size="32.00">for</text>
</g>
<!-- d&#45;&gt;for -->
<g id="edge4" class="edge">
<title>d&#45;&gt;for</title>
<path fill="none" stroke="#000000" d="M1426.53,-1202.91C1418.68,-1173.87 1405.37,-1128.15 1390.04,-1089.94 1323.98,-925.36 1222.5,-739.32 1179.22,-662.3"/>
<polygon fill="#000000" stroke="#000000" points="1182.2,-660.45 1174.24,-653.46 1176.1,-663.89 1182.2,-660.45"/>
<text text-anchor="middle" x="1313.54" y="-1134.34" font-family="Times,serif" font-size="32.00">for</text>
<text text-anchor="middle" x="1313.54" y="-1099.34" font-family="Times,serif" font-size="32.00">=d *k for</text>
</g>
<!-- of -->
<g id="node9" class="node">
<title>of</title>
<ellipse fill="none" stroke="black" cx="1157.52" cy="-1277.94" rx="30.31" ry="30.31"/>
<text text-anchor="middle" x="1157.52" y="-1269.84" font-family="Times,serif" font-size="32.00">of</text>
</g>
<!-- d&#45;&gt;of -->
<g id="edge5" class="edge">
<title>d&#45;&gt;of</title>
<path fill="none" stroke="#000000" d="M1411.06,-1246.74C1404.51,-1250.33 1397.19,-1253.75 1390.04,-1255.94 1324.89,-1275.89 1245.04,-1279.1 1198.17,-1278.97"/>
<polygon fill="#000000" stroke="#000000" points="1198.15,-1275.47 1188.12,-1278.89 1198.1,-1282.47 1198.15,-1275.47"/>
<text text-anchor="middle" x="1313.54" y="-1323.34" font-family="Times,serif" font-size="32.00">of</text>
<text text-anchor="middle" x="1313.54" y="-1288.34" font-family="Times,serif" font-size="32.00">=d *k of</text>
</g>
<!-- about -->
<g id="node10" class="node">
<title>about</title>
<ellipse fill="none" stroke="black" cx="1157.52" cy="-1184.94" rx="61.54" ry="30.31"/>
<text text-anchor="middle" x="1157.52" y="-1176.84" font-family="Times,serif" font-size="32.00">about</text>
</g>
<!-- d&#45;&gt;about -->
<g id="edge6" class="edge">
<title>d&#45;&gt;about</title>
<path fill="none" stroke="#000000" d="M1419.13,-1207.35C1411.73,-1197.52 1401.84,-1187.28 1390.04,-1181.94 1337.55,-1158.22 1271.27,-1161.99 1223.1,-1169.92"/>
<polygon fill="#000000" stroke="#000000" points="1222.35,-1166.49 1213.1,-1171.66 1223.56,-1173.39 1222.35,-1166.49"/>
<text text-anchor="middle" x="1313.54" y="-1226.34" font-family="Times,serif" font-size="32.00">about</text>
<text text-anchor="middle" x="1313.54" y="-1191.34" font-family="Times,serif" font-size="32.00">=d *k about</text>
</g>
<!-- 3 -->
<g id="node18" class="node">
<title>3</title>
<ellipse fill="none" stroke="black" cx="2153.54" cy="-423.94" rx="27" ry="30.31"/>
<text text-anchor="middle" x="2153.54" y="-415.84" font-family="Times,serif" font-size="32.00">3</text>
</g>
<!-- for&#45;&gt;3 -->
<g id="edge20" class="edge">
<title>for&#45;&gt;3</title>
<path fill="none" stroke="#000000" d="M1190.27,-611.08C1272.28,-572.96 1498.33,-469.6 1692.04,-396.94 1761.13,-371.03 1791.18,-390.45 1850.04,-345.94 1861.54,-337.25 1855.32,-325.75 1868.04,-318.94 1901.93,-300.8 2010.08,-296.14 2041.04,-318.94 2062.77,-334.95 2041.59,-356.35 2059.04,-376.94 2074.11,-394.73 2097.56,-406.5 2117.21,-413.81"/>
<polygon fill="#000000" stroke="#000000" points="2116.19,-417.16 2126.78,-417.14 2118.49,-410.55 2116.19,-417.16"/>
<text text-anchor="middle" x="1577.04" y="-526.34" font-family="Times,serif" font-size="32.00">hope</text>
<text text-anchor="middle" x="1577.04" y="-491.34" font-family="Times,serif" font-size="32.00">=for 3</text>
</g>
<!-- 0 -->
<g id="node11" class="node">
<title>0</title>
<ellipse fill="none" stroke="black" cx="229" cy="-292.94" rx="27" ry="30.31"/>
<text text-anchor="middle" x="229" y="-284.84" font-family="Times,serif" font-size="32.00">0</text>
</g>
<!-- 0&#45;&gt;t -->
<g id="edge7" class="edge">
<title>0&#45;&gt;t</title>
<path fill="none" stroke="#000000" d="M201.85,-292.94C166.67,-292.94 103.92,-292.94 64.21,-292.94"/>
<polygon fill="#000000" stroke="#000000" points="64.15,-289.44 54.15,-292.94 64.15,-296.44 64.15,-289.44"/>
<text text-anchor="middle" x="128" y="-372.34" font-family="Times,serif" font-size="32.00">s |</text>
<text text-anchor="middle" x="128" y="-337.34" font-family="Times,serif" font-size="32.00"> d</text>
<text text-anchor="middle" x="128" y="-302.34" font-family="Times,serif" font-size="32.00">=&gt;0 +k t</text>
</g>
<!-- 1 -->
<g id="node12" class="node">
<title>1</title>
<ellipse fill="none" stroke="black" cx="1435.04" cy="-279.94" rx="27" ry="30.31"/>
<text text-anchor="middle" x="1435.04" y="-271.84" font-family="Times,serif" font-size="32.00">1</text>
</g>
<!-- 2 -->
<g id="node13" class="node">
<title>2</title>
<ellipse fill="none" stroke="black" cx="1157.52" cy="-279.94" rx="27" ry="30.31"/>
<text text-anchor="middle" x="1157.52" y="-271.84" font-family="Times,serif" font-size="32.00">2</text>
</g>
<!-- 1&#45;&gt;2 -->
<g id="edge8" class="edge">
<title>1&#45;&gt;2</title>
<path fill="none" stroke="#000000" d="M1407.62,-279.94C1358.14,-279.94 1251.44,-279.94 1195.09,-279.94"/>
<polygon fill="#000000" stroke="#000000" points="1194.86,-276.44 1184.86,-279.94 1194.86,-283.44 1194.86,-276.44"/>
<text text-anchor="middle" x="1313.54" y="-324.34" font-family="Times,serif" font-size="32.00">ε_0</text>
<text text-anchor="middle" x="1313.54" y="-289.34" font-family="Times,serif" font-size="32.00">=&gt;1 =da 2</text>
</g>
<!-- v -->
<g id="node15" class="node">
<title>v</title>
<ellipse fill="none" stroke="black" cx="395" cy="-279.94" rx="27" ry="30.31"/>
<text text-anchor="middle" x="395" y="-271.84" font-family="Times,serif" font-size="32.00">v</text>
</g>
<!-- 2&#45;&gt;v -->
<g id="edge10" class="edge">
<title>2&#45;&gt;v</title>
<path fill="none" stroke="#000000" d="M1139.86,-303.24C1125.68,-320.89 1103.59,-343.79 1078,-353.94 863.19,-439.22 783.83,-403.08 558,-353.94 510.15,-343.53 459.51,-317.68 427.84,-299.48"/>
<polygon fill="#000000" stroke="#000000" points="429.43,-296.36 419.03,-294.34 425.9,-302.4 429.43,-296.36"/>
<text text-anchor="middle" x="744" y="-448.34" font-family="Times,serif" font-size="32.00">ε_1</text>
<text text-anchor="middle" x="744" y="-413.34" font-family="Times,serif" font-size="32.00">=&gt;2 v</text>
</g>
<!-- perf -->
<g id="node16" class="node">
<title>perf</title>
<ellipse fill="none" stroke="black" cx="608" cy="-194.94" rx="48.17" ry="30.31"/>
<text text-anchor="middle" x="608" y="-186.84" font-family="Times,serif" font-size="32.00">perf</text>
</g>
<!-- 2&#45;&gt;perf -->
<g id="edge11" class="edge">
<title>2&#45;&gt;perf</title>
<path fill="none" stroke="#000000" d="M1134.12,-264.01C1096.57,-238.38 1017.56,-189.04 942,-170.94 914,-164.24 682.05,-175 676,-175.94 671.18,-176.7 666.21,-177.68 661.26,-178.81"/>
<polygon fill="#000000" stroke="#000000" points="660.05,-175.5 651.19,-181.3 661.73,-182.3 660.05,-175.5"/>
<text text-anchor="middle" x="886" y="-215.34" font-family="Times,serif" font-size="32.00">n</text>
<text text-anchor="middle" x="886" y="-180.34" font-family="Times,serif" font-size="32.00">=&gt;2 perf</text>
</g>
<!-- prog -->
<g id="node17" class="node">
<title>prog</title>
<ellipse fill="none" stroke="black" cx="886" cy="-279.94" rx="52.15" ry="30.31"/>
<text text-anchor="middle" x="886" y="-271.84" font-family="Times,serif" font-size="32.00">prog</text>
</g>
<!-- 2&#45;&gt;prog -->
<g id="edge12" class="edge">
<title>2&#45;&gt;prog</title>
<path fill="none" stroke="#000000" d="M1130.19,-279.94C1088.39,-279.94 1005.74,-279.94 948.47,-279.94"/>
<polygon fill="#000000" stroke="#000000" points="948.44,-276.44 938.44,-279.94 948.44,-283.44 948.44,-276.44"/>
<text text-anchor="middle" x="1019" y="-324.34" font-family="Times,serif" font-size="32.00">ing</text>
<text text-anchor="middle" x="1019" y="-289.34" font-family="Times,serif" font-size="32.00">=&gt;2 prog</text>
</g>
<!-- a -->
<g id="node14" class="node">
<title>a</title>
<ellipse fill="none" stroke="black" cx="1771.04" cy="-435.94" rx="27" ry="30.31"/>
<text text-anchor="middle" x="1771.04" y="-427.84" font-family="Times,serif" font-size="32.00">a</text>
</g>
<!-- a&#45;&gt;1 -->
<g id="edge9" class="edge">
<title>a&#45;&gt;1</title>
<path fill="none" stroke="#000000" d="M1749.11,-417.68C1732.11,-402.04 1708.36,-378.24 1692.04,-353.94 1681.16,-337.76 1689.75,-325.48 1674.04,-313.94 1639.03,-288.26 1522.74,-298.78 1480.04,-290.94 1477.2,-290.42 1474.28,-289.83 1471.36,-289.19"/>
<polygon fill="#000000" stroke="#000000" points="1472.04,-285.76 1461.51,-286.9 1470.45,-292.57 1472.04,-285.76"/>
<text text-anchor="middle" x="1577.04" y="-358.34" font-family="Times,serif" font-size="32.00">be</text>
<text text-anchor="middle" x="1577.04" y="-323.34" font-family="Times,serif" font-size="32.00">=a 1</text>
</g>
<!-- v&#45;&gt;0 -->
<g id="edge13" class="edge">
<title>v&#45;&gt;0</title>
<path fill="none" stroke="#000000" d="M368.01,-282C340.62,-284.18 297.27,-287.61 266.46,-290.05"/>
<polygon fill="#000000" stroke="#000000" points="265.83,-286.59 256.14,-290.87 266.38,-293.57 265.83,-286.59"/>
<text text-anchor="middle" x="312" y="-334.34" font-family="Times,serif" font-size="32.00">will</text>
<text text-anchor="middle" x="312" y="-299.34" font-family="Times,serif" font-size="32.00">=v 0</text>
</g>
<!-- v&#45;&gt;0 -->
<g id="edge15" class="edge">
<title>v&#45;&gt;0</title>
<path fill="none" stroke="#000000" d="M384.22,-251.97C377.25,-236.6 366.21,-218.9 350,-209.94 320.44,-193.61 302.94,-192.53 274,-209.94 257.88,-219.64 247.35,-237.46 240.65,-254.1"/>
<polygon fill="#000000" stroke="#000000" points="237.29,-253.1 237.14,-263.69 243.86,-255.51 237.29,-253.1"/>
<text text-anchor="middle" x="312" y="-254.34" font-family="Times,serif" font-size="32.00">ε_2</text>
<text text-anchor="middle" x="312" y="-219.34" font-family="Times,serif" font-size="32.00">=&gt;v 0</text>
</g>
<!-- perf&#45;&gt;v -->
<g id="edge14" class="edge">
<title>perf&#45;&gt;v</title>
<path fill="none" stroke="#000000" d="M563.2,-183.54C527.41,-176.82 476.89,-173.47 440,-195.94 423.66,-205.9 413.09,-224.12 406.42,-241.05"/>
<polygon fill="#000000" stroke="#000000" points="403,-240.21 402.92,-250.81 409.59,-242.57 403,-240.21"/>
<text text-anchor="middle" x="490" y="-240.34" font-family="Times,serif" font-size="32.00">have</text>
<text text-anchor="middle" x="490" y="-205.34" font-family="Times,serif" font-size="32.00">=perf v</text>
</g>
<!-- prog&#45;&gt;0 -->
<g id="edge16" class="edge">
<title>prog&#45;&gt;0</title>
<path fill="none" stroke="#000000" d="M843.24,-297.52C798.38,-315.46 724.55,-342.26 658,-353.94 489.85,-383.47 423.17,-446.99 274,-363.94 260.85,-356.62 251.13,-343.56 244.22,-330.63"/>
<polygon fill="#000000" stroke="#000000" points="247.2,-328.76 239.67,-321.31 240.91,-331.83 247.2,-328.76"/>
<text text-anchor="middle" x="490" y="-448.34" font-family="Times,serif" font-size="32.00">be_1</text>
<text text-anchor="middle" x="490" y="-413.34" font-family="Times,serif" font-size="32.00">=prog 0</text>
</g>
<!-- prog&#45;&gt;v -->
<g id="edge17" class="edge">
<title>prog&#45;&gt;v</title>
<path fill="none" stroke="#000000" d="M833.59,-279.94C734.26,-279.94 518.17,-279.94 432.27,-279.94"/>
<polygon fill="#000000" stroke="#000000" points="432.22,-276.44 422.22,-279.94 432.22,-283.44 432.22,-276.44"/>
<text text-anchor="middle" x="608" y="-324.34" font-family="Times,serif" font-size="32.00">be_2</text>
<text text-anchor="middle" x="608" y="-289.34" font-family="Times,serif" font-size="32.00">=prog v</text>
</g>
<!-- prog&#45;&gt;perf -->
<g id="edge18" class="edge">
<title>prog&#45;&gt;perf</title>
<path fill="none" stroke="#000000" d="M851.26,-257.11C843.61,-250.87 835.99,-243.68 830,-235.94 818.06,-220.54 828.34,-206.57 812,-195.94 767.73,-167.16 705.74,-171.73 661.94,-180.47"/>
<polygon fill="#000000" stroke="#000000" points="661.11,-177.07 652.06,-182.57 662.56,-183.91 661.11,-177.07"/>
<text text-anchor="middle" x="744" y="-240.34" font-family="Times,serif" font-size="32.00">ben</text>
<text text-anchor="middle" x="744" y="-205.34" font-family="Times,serif" font-size="32.00">=prog perf</text>
</g>
<!-- 3&#45;&gt;1 -->
<g id="edge19" class="edge">
<title>3&#45;&gt;1</title>
<path fill="none" stroke="#000000" d="M2126.73,-417.65C2105.35,-411.08 2075.84,-398.63 2059.04,-376.94 2035.91,-347.11 2070.14,-317.98 2041.04,-293.94 1997.25,-257.79 1595.92,-272.72 1472.19,-278.23"/>
<polygon fill="#000000" stroke="#000000" points="1471.92,-274.74 1462.09,-278.69 1472.24,-281.73 1471.92,-274.74"/>
<text text-anchor="middle" x="1771.04" y="-316.34" font-family="Times,serif" font-size="32.00">ε_3</text>
<text text-anchor="middle" x="1771.04" y="-281.34" font-family="Times,serif" font-size="32.00">=&gt;3 1</text>
</g>
<!-- 3&#45;&gt;a -->
<g id="edge23" class="edge">
<title>3&#45;&gt;a</title>
<path fill="none" stroke="#000000" d="M2126.25,-424.56C2076.06,-425.78 1963.1,-428.63 1868.04,-431.94 1848.25,-432.64 1826.17,-433.55 1808.18,-434.32"/>
<polygon fill="#000000" stroke="#000000" points="1807.95,-430.83 1798.11,-434.76 1808.25,-437.82 1807.95,-430.83"/>
<text text-anchor="middle" x="1954.54" y="-476.34" font-family="Times,serif" font-size="32.00">ful</text>
<text text-anchor="middle" x="1954.54" y="-441.34" font-family="Times,serif" font-size="32.00">=&gt;3 a</text>
</g>
<!-- 4 -->
<g id="node19" class="node">
<title>4</title>
<ellipse fill="none" stroke="black" cx="1771.04" cy="-726.94" rx="27" ry="30.31"/>
<text text-anchor="middle" x="1771.04" y="-718.84" font-family="Times,serif" font-size="32.00">4</text>
</g>
<!-- 3&#45;&gt;4 -->
<g id="edge22" class="edge">
<title>3&#45;&gt;4</title>
<path fill="none" stroke="#000000" d="M2127.18,-430.81C2105.48,-438.07 2075.25,-451.76 2059.04,-474.94 2028.13,-519.14 2079.49,-557.13 2041.04,-594.94 1985.73,-649.33 1936.46,-581.41 1868.04,-617.94 1835.6,-635.26 1808.97,-668.21 1792.06,-693.37"/>
<polygon fill="#000000" stroke="#000000" points="1789.02,-691.62 1786.48,-701.91 1794.88,-695.45 1789.02,-691.62"/>
<text text-anchor="middle" x="1954.54" y="-662.34" font-family="Times,serif" font-size="32.00">ε_5</text>
<text text-anchor="middle" x="1954.54" y="-627.34" font-family="Times,serif" font-size="32.00">=&gt;3 4</text>
</g>
<!-- 4&#45;&gt;d -->
<g id="edge21" class="edge">
<title>4&#45;&gt;d</title>
<path fill="none" stroke="#000000" d="M1754.15,-750.96C1699.58,-833.47 1519.73,-1105.4 1457.47,-1199.53"/>
<polygon fill="#000000" stroke="#000000" points="1454.42,-1197.8 1451.82,-1208.07 1460.26,-1201.66 1454.42,-1197.8"/>
<text text-anchor="middle" x="1577.04" y="-1203.34" font-family="Times,serif" font-size="32.00">ε_4</text>
<text text-anchor="middle" x="1577.04" y="-1168.34" font-family="Times,serif" font-size="32.00">=&gt;4 poss= d &#45;k</text>
</g>
<!-- 5 -->
<g id="node20" class="node">
<title>5</title>
<ellipse fill="none" stroke="black" cx="2153.54" cy="-337.94" rx="27" ry="30.31"/>
<text text-anchor="middle" x="2153.54" y="-329.84" font-family="Times,serif" font-size="32.00">5</text>
</g>
<!-- 5&#45;&gt;1 -->
<g id="edge24" class="edge">
<title>5&#45;&gt;1</title>
<path fill="none" stroke="#000000" d="M2127.32,-330.4C2107.13,-323.42 2079,-311.45 2059.04,-293.94 2047.91,-284.19 2052.41,-275.4 2041.04,-265.94 1970.53,-207.32 1940.01,-205.61 1850.04,-187.94 1781.13,-174.42 1761.22,-175.89 1692.04,-187.94 1608.9,-202.43 1517.1,-241.52 1469.23,-263.8"/>
<polygon fill="#000000" stroke="#000000" points="1467.54,-260.73 1459.98,-268.16 1470.52,-267.07 1467.54,-260.73"/>
<text text-anchor="middle" x="1771.04" y="-232.34" font-family="Times,serif" font-size="32.00">ε_6</text>
<text text-anchor="middle" x="1771.04" y="-197.34" font-family="Times,serif" font-size="32.00">=&gt;5 1</text>
</g>
<!-- 5&#45;&gt;4 -->
<g id="edge27" class="edge">
<title>5&#45;&gt;4</title>
<path fill="none" stroke="#000000" d="M2127.33,-329.99C2072.36,-314.37 1940.82,-286.69 1868.04,-352.94 1847.77,-371.39 1856.11,-448.22 1850.04,-474.94 1832.43,-552.45 1802.85,-640.68 1785.62,-689.48"/>
<polygon fill="#000000" stroke="#000000" points="1782.29,-688.39 1782.24,-698.98 1788.89,-690.73 1782.29,-688.39"/>
<text text-anchor="middle" x="1954.54" y="-397.34" font-family="Times,serif" font-size="32.00">ε_8</text>
<text text-anchor="middle" x="1954.54" y="-362.34" font-family="Times,serif" font-size="32.00">=&gt;5 4</text>
</g>
<!-- 6 -->
<g id="node21" class="node">
<title>6</title>
<ellipse fill="none" stroke="black" cx="2465.36" cy="-280.94" rx="27" ry="30.31"/>
<text text-anchor="middle" x="2465.36" y="-272.84" font-family="Times,serif" font-size="32.00">6</text>
</g>
<!-- 6&#45;&gt;1 -->
<g id="edge30" class="edge">
<title>6&#45;&gt;1</title>
<path fill="none" stroke="#000000" d="M2444.19,-262.02C2431.04,-250.53 2413.03,-236.32 2395.04,-226.94 2249.03,-150.89 2203.83,-142.44 2041.04,-117.94 1792.57,-80.56 1679.82,-35.56 1480.04,-187.94 1463.01,-200.93 1452.26,-222.17 1445.64,-240.98"/>
<polygon fill="#000000" stroke="#000000" points="1442.3,-239.94 1442.55,-250.53 1448.96,-242.1 1442.3,-239.94"/>
<text text-anchor="middle" x="1954.54" y="-162.34" font-family="Times,serif" font-size="32.00">ε_10</text>
<text text-anchor="middle" x="1954.54" y="-127.34" font-family="Times,serif" font-size="32.00">=&gt;6 =about 1</text>
</g>
<!-- 6&#45;&gt;a -->
<g id="edge32" class="edge">
<title>6&#45;&gt;a</title>
<path fill="none" stroke="#000000" d="M2439.04,-272.08C2374.97,-250.88 2201.4,-201 2059.04,-228.94 1969.06,-246.61 1934.31,-243.57 1868.04,-306.94 1854.24,-320.14 1860.39,-329.91 1850.04,-345.94 1835.35,-368.69 1815.28,-391.72 1799.18,-408.78"/>
<polygon fill="#000000" stroke="#000000" points="1796.48,-406.54 1792.09,-416.18 1801.54,-411.38 1796.48,-406.54"/>
<text text-anchor="middle" x="2153.54" y="-273.34" font-family="Times,serif" font-size="32.00">ful_2</text>
<text text-anchor="middle" x="2153.54" y="-238.34" font-family="Times,serif" font-size="32.00">=&gt;6 =about a</text>
</g>
<!-- 6&#45;&gt;4 -->
<g id="edge31" class="edge">
<title>6&#45;&gt;4</title>
<path fill="none" stroke="#000000" d="M2447.56,-304.27C2434.89,-320.13 2416.14,-340.26 2395.04,-351.94 2343.71,-380.36 2307.52,-338.46 2266.04,-379.94 2239.35,-406.64 2274.39,-435.92 2248.04,-462.94 2187.68,-524.84 2115.79,-443.73 2059.04,-508.94 2032.79,-539.1 2068.68,-659.06 2041.04,-687.94 2033.05,-696.29 1879.81,-714.7 1808.27,-722.88"/>
<polygon fill="#000000" stroke="#000000" points="1807.87,-719.4 1798.33,-724.01 1808.66,-726.36 1807.87,-719.4"/>
<text text-anchor="middle" x="2153.54" y="-553.34" font-family="Times,serif" font-size="32.00">ε_11</text>
<text text-anchor="middle" x="2153.54" y="-518.34" font-family="Times,serif" font-size="32.00">=&gt;6 =about 4</text>
</g>
<!-- 6&#45;&gt;5 -->
<g id="edge25" class="edge">
<title>6&#45;&gt;5</title>
<path fill="none" stroke="#000000" d="M2438.62,-276.46C2400.1,-270.77 2325.64,-263.73 2266.04,-281.94 2256.84,-284.75 2256.41,-289.22 2248.04,-293.94 2228.92,-304.73 2206.72,-315.26 2188.75,-323.31"/>
<polygon fill="#000000" stroke="#000000" points="2186.98,-320.27 2179.25,-327.51 2189.81,-326.67 2186.98,-320.27"/>
<text text-anchor="middle" x="2330.54" y="-326.34" font-family="Times,serif" font-size="32.00">ε_7</text>
<text text-anchor="middle" x="2330.54" y="-291.34" font-family="Times,serif" font-size="32.00">=&gt;6 =of 5</text>
</g>
<!-- 7 -->
<g id="node23" class="node">
<title>7</title>
<ellipse fill="none" stroke="black" cx="2153.54" cy="-617.94" rx="27" ry="30.31"/>
<text text-anchor="middle" x="2153.54" y="-609.84" font-family="Times,serif" font-size="32.00">7</text>
</g>
<!-- 6&#45;&gt;7 -->
<g id="edge29" class="edge">
<title>6&#45;&gt;7</title>
<path fill="none" stroke="#000000" d="M2452.02,-307.52C2440.41,-329.52 2420.95,-359.85 2395.04,-376.94 2345.99,-409.31 2305.19,-362.12 2266.04,-405.94 2216.89,-460.96 2290.1,-510.35 2248.04,-570.94 2234.5,-590.44 2210.44,-602.28 2190.11,-609.19"/>
<polygon fill="#000000" stroke="#000000" points="2188.99,-605.88 2180.49,-612.21 2191.08,-612.56 2188.99,-605.88"/>
<text text-anchor="middle" x="2330.54" y="-450.34" font-family="Times,serif" font-size="32.00">ε_9</text>
<text text-anchor="middle" x="2330.54" y="-415.34" font-family="Times,serif" font-size="32.00">=&gt;6 7</text>
</g>
<!-- z3 -->
<g id="node22" class="node">
<title>z3</title>
<ellipse fill="none" stroke="black" stroke-dasharray="5,2" cx="2686.69" cy="-280.94" rx="27" ry="18"/>
</g>
<!-- z3&#45;&gt;6 -->
<g id="edge26" class="edge">
<title>z3&#45;&gt;6</title>
<path fill="none" stroke="#000000" d="M2659.67,-280.94C2620.69,-280.94 2547.02,-280.94 2502.74,-280.94"/>
<polygon fill="#000000" stroke="#000000" points="2502.69,-277.44 2492.69,-280.94 2502.69,-284.44 2502.69,-277.44"/>
<text text-anchor="middle" x="2588.69" y="-325.34" font-family="Times,serif" font-size="32.00">boast</text>
<text text-anchor="middle" x="2588.69" y="-290.34" font-family="Times,serif" font-size="32.00">6</text>
</g>
<!-- 7&#45;&gt;a -->
<g id="edge28" class="edge">
<title>7&#45;&gt;a</title>
<path fill="none" stroke="#000000" d="M2127.16,-610.8C2106.34,-603.76 2077.39,-591.09 2059.04,-570.94 2044.25,-554.72 2058.31,-538.49 2041.04,-524.94 1980,-477.08 1940.43,-529.79 1868.04,-501.94 1843.32,-492.44 1818.77,-475.39 1800.68,-461"/>
<polygon fill="#000000" stroke="#000000" points="1802.81,-458.22 1792.85,-454.61 1798.39,-463.64 1802.81,-458.22"/>
<text text-anchor="middle" x="1954.54" y="-569.34" font-family="Times,serif" font-size="32.00">ful_1</text>
<text text-anchor="middle" x="1954.54" y="-534.34" font-family="Times,serif" font-size="32.00">=&gt;7 =of a</text>
</g>
<!-- 8 -->
<g id="node24" class="node">
<title>8</title>
<ellipse fill="none" stroke="black" cx="2153.54" cy="-989.94" rx="27" ry="30.31"/>
<text text-anchor="middle" x="2153.54" y="-981.84" font-family="Times,serif" font-size="32.00">8</text>
</g>
<!-- 8&#45;&gt;1 -->
<g id="edge33" class="edge">
<title>8&#45;&gt;1</title>
<path fill="none" stroke="#000000" d="M2126.37,-992.36C2104.77,-995.84 2075.13,-1004.31 2059.04,-1024.94 2037.03,-1053.16 2067.71,-1161.1 2041.04,-1184.94 1983.71,-1236.18 1934.23,-1224.07 1868.04,-1184.94 1540.91,-991.59 1457.57,-470.09 1440.11,-320.54"/>
<polygon fill="#000000" stroke="#000000" points="1443.56,-319.97 1438.96,-310.43 1436.61,-320.76 1443.56,-319.97"/>
<text text-anchor="middle" x="1771.04" y="-1214.34" font-family="Times,serif" font-size="32.00">ε_12</text>
<text text-anchor="middle" x="1771.04" y="-1179.34" font-family="Times,serif" font-size="32.00">=&gt;8 =d *k 1</text>
</g>
<!-- z4 -->
<g id="node25" class="node">
<title>z4</title>
<ellipse fill="none" stroke="black" stroke-dasharray="5,2" cx="2465.36" cy="-830.94" rx="27" ry="18"/>
</g>
<!-- z4&#45;&gt;8 -->
<g id="edge34" class="edge">
<title>z4&#45;&gt;8</title>
<path fill="none" stroke="#000000" d="M2440.09,-824.34C2400.94,-815.09 2322.52,-802.49 2266.04,-831.94 2217.46,-857.27 2185.51,-914.5 2168.73,-952.68"/>
<polygon fill="#000000" stroke="#000000" points="2165.48,-951.37 2164.78,-961.94 2171.92,-954.11 2165.48,-951.37"/>
<text text-anchor="middle" x="2330.54" y="-911.34" font-family="Times,serif" font-size="32.00">fear |</text>
<text text-anchor="middle" x="2330.54" y="-876.34" font-family="Times,serif" font-size="32.00"> scorn</text>
<text text-anchor="middle" x="2330.54" y="-841.34" font-family="Times,serif" font-size="32.00">8</text>
</g>
<!-- 9 -->
<g id="node26" class="node">
<title>9</title>
<ellipse fill="none" stroke="black" cx="2153.54" cy="-1376.94" rx="27" ry="30.31"/>
<text text-anchor="middle" x="2153.54" y="-1368.84" font-family="Times,serif" font-size="32.00">9</text>
</g>
<!-- 9&#45;&gt;4 -->
<g id="edge35" class="edge">
<title>9&#45;&gt;4</title>
<path fill="none" stroke="#f7931d" stroke-width="2" d="M2130.08,-1361.18C2076.17,-1322.12 1938.66,-1215.05 1868.04,-1091.94 1806.63,-984.91 1783.62,-837.82 1775.74,-767.53"/>
<polygon fill="#f7931d" stroke="#f7931d" stroke-width="2" points="1779.19,-766.9 1774.65,-757.33 1772.23,-767.65 1779.19,-766.9"/>
<text text-anchor="middle" x="1954.54" y="-1331.34" font-family="Times,serif" font-size="32.00">ε_13</text>
<text text-anchor="middle" x="1954.54" y="-1296.34" font-family="Times,serif" font-size="32.00">=&gt;9 =of 4</text>
</g>
<!-- z5 -->
<g id="node27" class="node">
<title>z5</title>
<ellipse fill="none" stroke="black" stroke-dasharray="5,2" cx="2465.36" cy="-1566.94" rx="27" ry="18"/>
</g>
<!-- z5&#45;&gt;9 -->
<g id="edge36" class="edge">
<title>z5&#45;&gt;9</title>
<path fill="none" stroke="#f7931d" stroke-width="2" d="M2438.71,-1569.91C2398.67,-1573.23 2320.29,-1574.36 2266.04,-1540.94 2218.07,-1511.4 2185.87,-1452.62 2168.87,-1414.05"/>
<polygon fill="#f7931d" stroke="#f7931d" stroke-width="2" points="2172.03,-1412.53 2164.88,-1404.71 2165.59,-1415.28 2172.03,-1412.53"/>
<text text-anchor="middle" x="2330.54" y="-1650.34" font-family="Times,serif" font-size="32.00">fear_1 |</text>
<text text-anchor="middle" x="2330.54" y="-1615.34" font-family="Times,serif" font-size="32.00"> scorn_1</text>
<text text-anchor="middle" x="2330.54" y="-1580.34" font-family="Times,serif" font-size="32.00">9</text>
</g>
<!-- z6 -->
<g id="node28" class="node">
<title>z6</title>
<ellipse fill="none" stroke="black" stroke-dasharray="5,2" cx="2465.36" cy="-491.94" rx="27" ry="18"/>
</g>
<!-- z6&#45;&gt;7 -->
<g id="edge37" class="edge">
<title>z6&#45;&gt;7</title>
<path fill="none" stroke="#000000" d="M2438.96,-488.02C2391.53,-481.3 2291.98,-470.19 2266.04,-490.94 2237.58,-513.71 2270.47,-542.22 2248.04,-570.94 2233.59,-589.44 2209.92,-601.24 2190,-608.39"/>
<polygon fill="#000000" stroke="#000000" points="2188.68,-605.14 2180.3,-611.62 2190.89,-611.78 2188.68,-605.14"/>
<text text-anchor="middle" x="2330.54" y="-570.34" font-family="Times,serif" font-size="32.00">fear_2 |</text>
<text text-anchor="middle" x="2330.54" y="-535.34" font-family="Times,serif" font-size="32.00"> scorn_2</text>
<text text-anchor="middle" x="2330.54" y="-500.34" font-family="Times,serif" font-size="32.00">7</text>
</g>
<!-- 10 -->
<g id="node29" class="node">
<title>10</title>
<ellipse fill="none" stroke="black" cx="2465.36" cy="-1380.94" rx="33.88" ry="30.31"/>
<text text-anchor="middle" x="2465.36" y="-1372.84" font-family="Times,serif" font-size="32.00">10</text>
</g>
<!-- 10&#45;&gt;7 -->
<g id="edge41" class="edge">
<title>10&#45;&gt;7</title>
<path fill="none" stroke="#000000" d="M2451.87,-1352.98C2440.41,-1330.76 2421.22,-1300.85 2395.04,-1284.94 2345.5,-1254.86 2304.59,-1309.22 2266.04,-1265.94 2223.07,-1217.72 2278.43,-741.93 2248.04,-684.94 2235.27,-661 2209.71,-643.6 2188.54,-632.54"/>
<polygon fill="#000000" stroke="#000000" points="2189.99,-629.36 2179.48,-628.04 2186.88,-635.63 2189.99,-629.36"/>
<text text-anchor="middle" x="2330.54" y="-1329.34" font-family="Times,serif" font-size="32.00">ε_16</text>
<text text-anchor="middle" x="2330.54" y="-1294.34" font-family="Times,serif" font-size="32.00">=&gt;10 7</text>
</g>
<!-- 10&#45;&gt;8 -->
<g id="edge38" class="edge">
<title>10&#45;&gt;8</title>
<path fill="none" stroke="#000000" d="M2431.33,-1379.58C2377.86,-1377.02 2277.17,-1370.71 2266.04,-1358.94 2241.18,-1332.68 2268.25,-1063.93 2248.04,-1033.94 2234.85,-1014.39 2210.55,-1003.31 2190.02,-997.16"/>
<polygon fill="#000000" stroke="#000000" points="2190.88,-993.77 2180.31,-994.53 2189.05,-1000.53 2190.88,-993.77"/>
<text text-anchor="middle" x="2330.54" y="-1422.34" font-family="Times,serif" font-size="32.00">ε_14</text>
<text text-anchor="middle" x="2330.54" y="-1387.34" font-family="Times,serif" font-size="32.00">=&gt;10 8</text>
</g>
<!-- 10&#45;&gt;9 -->
<g id="edge40" class="edge">
<title>10&#45;&gt;9</title>
<path fill="none" stroke="#f7931d" stroke-width="2" d="M2447.18,-1407.13C2434.85,-1423.38 2416.63,-1442.85 2395.04,-1451.94 2342.2,-1474.2 2320.88,-1468.67 2266.04,-1451.94 2234.38,-1442.29 2203.56,-1420.3 2182.38,-1402.61"/>
<polygon fill="#f7931d" stroke="#f7931d" stroke-width="2" points="2184.63,-1399.93 2174.75,-1396.08 2180.07,-1405.24 2184.63,-1399.93"/>
<text text-anchor="middle" x="2330.54" y="-1511.34" font-family="Times,serif" font-size="32.00">ε_15</text>
<text text-anchor="middle" x="2330.54" y="-1476.34" font-family="Times,serif" font-size="32.00">=&gt;10 9</text>
</g>
<!-- z7 -->
<g id="node30" class="node">
<title>z7</title>
<ellipse fill="none" stroke="black" stroke-dasharray="5,2" cx="2686.69" cy="-1380.94" rx="27" ry="18"/>
</g>
<!-- z7&#45;&gt;10 -->
<g id="edge39" class="edge">
<title>z7&#45;&gt;10</title>
<path fill="none" stroke="#000000" d="M2659.67,-1380.94C2622.69,-1380.94 2554.48,-1380.94 2509.77,-1380.94"/>
<polygon fill="#000000" stroke="#000000" points="2509.49,-1377.44 2499.49,-1380.94 2509.49,-1384.44 2509.49,-1377.44"/>
<text text-anchor="middle" x="2588.69" y="-1425.34" font-family="Times,serif" font-size="32.00">neglect</text>
<text text-anchor="middle" x="2588.69" y="-1390.34" font-family="Times,serif" font-size="32.00">10</text>
</g>
<!-- z8 -->
<g id="node31" class="node">
<title>z8</title>
<ellipse fill="none" stroke="black" stroke-dasharray="5,2" cx="2686.69" cy="-704.94" rx="27" ry="18"/>
</g>
<!-- 11 -->
<g id="node32" class="node">
<title>11</title>
<ellipse fill="none" stroke="black" cx="2465.36" cy="-704.94" rx="33.88" ry="30.31"/>
<text text-anchor="middle" x="2465.36" y="-696.84" font-family="Times,serif" font-size="32.00">11</text>
</g>
<!-- z8&#45;&gt;11 -->
<g id="edge42" class="edge">
<title>z8&#45;&gt;11</title>
<path fill="none" stroke="#000000" d="M2659.67,-704.94C2622.69,-704.94 2554.48,-704.94 2509.77,-704.94"/>
<polygon fill="#000000" stroke="#000000" points="2509.49,-701.44 2499.49,-704.94 2509.49,-708.44 2509.49,-701.44"/>
<text text-anchor="middle" x="2588.69" y="-784.34" font-family="Times,serif" font-size="32.00">respect |</text>
<text text-anchor="middle" x="2588.69" y="-749.34" font-family="Times,serif" font-size="32.00"> disdain</text>
<text text-anchor="middle" x="2588.69" y="-714.34" font-family="Times,serif" font-size="32.00">11</text>
</g>
<!-- 11&#45;&gt;4 -->
<g id="edge43" class="edge">
<title>11&#45;&gt;4</title>
<path fill="none" stroke="#000000" d="M2431.44,-705.99C2315.88,-709.66 1929.29,-721.95 1808.45,-725.79"/>
<polygon fill="#000000" stroke="#000000" points="1808.13,-722.3 1798.25,-726.11 1808.36,-729.29 1808.13,-722.3"/>
<text text-anchor="middle" x="2153.54" y="-762.34" font-family="Times,serif" font-size="32.00">ε_17</text>
<text text-anchor="middle" x="2153.54" y="-727.34" font-family="Times,serif" font-size="32.00">=&gt;11 =for 4</text>
</g>
<!-- 11&#45;&gt;7 -->
<g id="edge45" class="edge">
<title>11&#45;&gt;7</title>
<path fill="none" stroke="#000000" d="M2450.27,-677.53C2438.46,-657.81 2419.59,-632.71 2395.04,-620.94 2328.37,-589.02 2238.91,-599.81 2190.06,-609.51"/>
<polygon fill="#000000" stroke="#000000" points="2189.06,-606.14 2179.98,-611.61 2190.49,-612.99 2189.06,-606.14"/>
<text text-anchor="middle" x="2330.54" y="-665.34" font-family="Times,serif" font-size="32.00">ε_19</text>
<text text-anchor="middle" x="2330.54" y="-630.34" font-family="Times,serif" font-size="32.00">=&gt;11 7</text>
</g>
<!-- 11&#45;&gt;8 -->
<g id="edge44" class="edge">
<title>11&#45;&gt;8</title>
<path fill="none" stroke="#000000" d="M2431.83,-710.28C2376.4,-719.44 2269.29,-737.39 2266.04,-739.94 2250.39,-752.24 2256.1,-762.75 2248.04,-780.94 2221.07,-841.8 2189.37,-912.47 2170.68,-954.07"/>
<polygon fill="#000000" stroke="#000000" points="2167.46,-952.69 2166.55,-963.25 2173.84,-955.56 2167.46,-952.69"/>
<text text-anchor="middle" x="2330.54" y="-784.34" font-family="Times,serif" font-size="32.00">ε_18</text>
<text text-anchor="middle" x="2330.54" y="-749.34" font-family="Times,serif" font-size="32.00">=&gt;11 8</text>
</g>
<!-- 12 -->
<g id="node33" class="node">
<title>12</title>
<ellipse fill="none" stroke="black" cx="2465.36" cy="-1136.94" rx="33.88" ry="30.31"/>
<text text-anchor="middle" x="2465.36" y="-1128.84" font-family="Times,serif" font-size="32.00">12</text>
</g>
<!-- 12&#45;&gt;a -->
<g id="edge51" class="edge">
<title>12&#45;&gt;a</title>
<path fill="none" stroke="#000000" d="M2431.12,-1139.08C2381.28,-1141.56 2290.41,-1143.03 2266.04,-1122.94 2242.24,-1103.33 2271.11,-1076.39 2248.04,-1055.94 2184.53,-999.67 2129.14,-1076.75 2059.04,-1028.94 1958.17,-960.15 1825.93,-593.66 1784.8,-473.86"/>
<polygon fill="#000000" stroke="#000000" points="1788.1,-472.69 1781.55,-464.36 1781.47,-474.95 1788.1,-472.69"/>
<text text-anchor="middle" x="2153.54" y="-1100.34" font-family="Times,serif" font-size="32.00">ful_3</text>
<text text-anchor="middle" x="2153.54" y="-1065.34" font-family="Times,serif" font-size="32.00">=&gt;12 =about a</text>
</g>
<!-- 12&#45;&gt;4 -->
<g id="edge50" class="edge">
<title>12&#45;&gt;4</title>
<path fill="none" stroke="#000000" d="M2432.04,-1143.15C2420.42,-1145.1 2407.19,-1146.99 2395.04,-1147.94 2337.88,-1152.45 2323.32,-1150.43 2266.04,-1147.94 2173.78,-1143.94 2135.71,-1181.42 2059.04,-1129.94 2044.51,-1120.19 2055.19,-1105.22 2041.04,-1094.94 1978.01,-1049.17 1926.18,-1118.77 1868.04,-1066.94 1823.07,-1026.86 1790.59,-848.11 1777.91,-767.09"/>
<polygon fill="#000000" stroke="#000000" points="1781.3,-766.14 1776.32,-756.79 1774.38,-767.21 1781.3,-766.14"/>
<text text-anchor="middle" x="2153.54" y="-1202.34" font-family="Times,serif" font-size="32.00">ε_23</text>
<text text-anchor="middle" x="2153.54" y="-1167.34" font-family="Times,serif" font-size="32.00">=&gt;12 =about 4</text>
</g>
<!-- 12&#45;&gt;7 -->
<g id="edge49" class="edge">
<title>12&#45;&gt;7</title>
<path fill="none" stroke="#000000" d="M2461.91,-1106.51C2456.86,-1065.46 2441.51,-993.19 2395.04,-955.94 2349.82,-919.7 2305.45,-979.43 2266.04,-936.94 2227.85,-895.79 2275.45,-733.94 2248.04,-684.94 2234.78,-661.26 2209.26,-643.84 2188.22,-632.71"/>
<polygon fill="#000000" stroke="#000000" points="2189.73,-629.56 2179.23,-628.18 2186.58,-635.81 2189.73,-629.56"/>
<text text-anchor="middle" x="2330.54" y="-1000.34" font-family="Times,serif" font-size="32.00">ε_22</text>
<text text-anchor="middle" x="2330.54" y="-965.34" font-family="Times,serif" font-size="32.00">=&gt;12 7</text>
</g>
<!-- 12&#45;&gt;8 -->
<g id="edge46" class="edge">
<title>12&#45;&gt;8</title>
<path fill="none" stroke="#000000" d="M2449.16,-1109.86C2437.02,-1090.85 2418.22,-1066.49 2395.04,-1052.94 2344.75,-1023.57 2322.31,-1044.94 2266.04,-1029.94 2239.67,-1022.92 2210.68,-1012.43 2188.88,-1003.96"/>
<polygon fill="#000000" stroke="#000000" points="2189.98,-1000.63 2179.4,-1000.22 2187.42,-1007.14 2189.98,-1000.63"/>
<text text-anchor="middle" x="2330.54" y="-1097.34" font-family="Times,serif" font-size="32.00">ε_20</text>
<text text-anchor="middle" x="2330.54" y="-1062.34" font-family="Times,serif" font-size="32.00">=&gt;12 8</text>
</g>
<!-- 12&#45;&gt;9 -->
<g id="edge48" class="edge">
<title>12&#45;&gt;9</title>
<path fill="none" stroke="#f7931d" stroke-width="2" d="M2436.88,-1153.66C2424.48,-1160.55 2409.42,-1168.06 2395.04,-1172.94 2339.9,-1191.69 2311.97,-1160.14 2266.04,-1195.94 2250.66,-1207.93 2257.45,-1218.88 2248.04,-1235.94 2226.43,-1275.1 2197.45,-1317.55 2177.51,-1345.53"/>
<polygon fill="#f7931d" stroke="#f7931d" stroke-width="2" points="2174.62,-1343.57 2171.64,-1353.73 2180.31,-1347.64 2174.62,-1343.57"/>
<text text-anchor="middle" x="2330.54" y="-1240.34" font-family="Times,serif" font-size="32.00">ε_21</text>
<text text-anchor="middle" x="2330.54" y="-1205.34" font-family="Times,serif" font-size="32.00">=&gt;12 9</text>
</g>
<!-- z9 -->
<g id="node34" class="node">
<title>z9</title>
<ellipse fill="none" stroke="black" stroke-dasharray="5,2" cx="2686.69" cy="-1136.94" rx="27" ry="18"/>
</g>
<!-- z9&#45;&gt;12 -->
<g id="edge47" class="edge">
<title>z9&#45;&gt;12</title>
<path fill="none" stroke="#000000" d="M2659.67,-1136.94C2622.69,-1136.94 2554.48,-1136.94 2509.77,-1136.94"/>
<polygon fill="#000000" stroke="#000000" points="2509.49,-1133.44 2499.49,-1136.94 2509.49,-1140.44 2509.49,-1133.44"/>
<text text-anchor="middle" x="2588.69" y="-1181.34" font-family="Times,serif" font-size="32.00">doubt</text>
<text text-anchor="middle" x="2588.69" y="-1146.34" font-family="Times,serif" font-size="32.00">12</text>
</g>
</g>
</svg>
