<?xml version="1.0" encoding="UTF-8" standalone="no"?>
<!DOCTYPE svg PUBLIC "-//W3C//DTD SVG 1.1//EN"
 "http://www.w3.org/Graphics/SVG/1.1/DTD/svg11.dtd">
<!-- Generated by graphviz version 2.47.1 (20210417.1919)
 -->
<!-- Title: G Pages: 1 -->
<svg width="3007pt" height="1382pt"
 viewBox="0.00 0.00 3006.69 1382.00" xmlns="http://www.w3.org/2000/svg" xmlns:xlink="http://www.w3.org/1999/xlink">
<g id="graph0" class="graph" transform="scale(1 1) rotate(0) translate(4 1378)">
<title>G</title>
<polygon fill="white" stroke="transparent" points="-4,4 -4,-1378 3002.69,-1378 3002.69,4 -4,4"/>
<text text-anchor="middle" x="1499.34" y="-13.4" font-family="Times,serif" font-size="32.00">single contraction: 10 → 9</text>
<!-- t -->
<g id="node1" class="node">
<title>t</title>
<ellipse fill="lightgray" stroke="black" cx="27" cy="-575" rx="27" ry="30.31"/>
<text text-anchor="middle" x="27" y="-566.9" font-family="Times,serif" font-size="32.00">t</text>
</g>
<!-- z0 -->
<g id="node2" class="node">
<title>z0</title>
<ellipse fill="none" stroke="black" stroke-dasharray="5,2" cx="2971.69" cy="-1080" rx="27" ry="18"/>
</g>
<!-- da -->
<g id="node3" class="node">
<title>da</title>
<ellipse fill="none" stroke="black" cx="2753.36" cy="-1080" rx="33.47" ry="30.31"/>
<text text-anchor="middle" x="2753.36" y="-1071.9" font-family="Times,serif" font-size="32.00">da</text>
</g>
<!-- z0&#45;&gt;da -->
<g id="edge1" class="edge">
<title>z0&#45;&gt;da</title>
<path fill="none" stroke="#000000" d="M2944.59,-1080C2907.97,-1080 2840.91,-1080 2796.98,-1080"/>
<polygon fill="#000000" stroke="#000000" points="2796.9,-1076.5 2786.89,-1080 2796.89,-1083.5 2796.9,-1076.5"/>
<text text-anchor="middle" x="2875.19" y="-1159.4" font-family="Times,serif" font-size="32.00">Mary |</text>
<text text-anchor="middle" x="2875.19" y="-1124.4" font-family="Times,serif" font-size="32.00"> John</text>
<text text-anchor="middle" x="2875.19" y="-1089.4" font-family="Times,serif" font-size="32.00">da &#45;k</text>
</g>
<!-- z1 -->
<g id="node4" class="node">
<title>z1</title>
<ellipse fill="none" stroke="black" stroke-dasharray="5,2" cx="2971.69" cy="-1208" rx="27" ry="18"/>
</g>
<!-- poss -->
<g id="node5" class="node">
<title>poss</title>
<ellipse fill="none" stroke="black" cx="2753.36" cy="-1208" rx="52.15" ry="30.31"/>
<text text-anchor="middle" x="2753.36" y="-1199.9" font-family="Times,serif" font-size="32.00">poss</text>
</g>
<!-- z1&#45;&gt;poss -->
<g id="edge2" class="edge">
<title>z1&#45;&gt;poss</title>
<path fill="none" stroke="#000000" d="M2944.59,-1208C2912.93,-1208 2858.5,-1208 2815.96,-1208"/>
<polygon fill="#000000" stroke="#000000" points="2815.7,-1204.5 2805.7,-1208 2815.7,-1211.5 2815.7,-1204.5"/>
<text text-anchor="middle" x="2875.19" y="-1287.4" font-family="Times,serif" font-size="32.00">Mary&#39;s |</text>
<text text-anchor="middle" x="2875.19" y="-1252.4" font-family="Times,serif" font-size="32.00"> John&#39;s</text>
<text text-anchor="middle" x="2875.19" y="-1217.4" font-family="Times,serif" font-size="32.00">poss</text>
</g>
<!-- z2 -->
<g id="node6" class="node">
<title>z2</title>
<ellipse fill="none" stroke="black" stroke-dasharray="5,2" cx="1771.04" cy="-260" rx="27" ry="18"/>
</g>
<!-- d -->
<g id="node7" class="node">
<title>d</title>
<ellipse fill="none" stroke="black" cx="1435.04" cy="-313" rx="27" ry="30.31"/>
<text text-anchor="middle" x="1435.04" y="-304.9" font-family="Times,serif" font-size="32.00">d</text>
</g>
<!-- z2&#45;&gt;d -->
<g id="edge3" class="edge">
<title>z2&#45;&gt;d</title>
<path fill="none" stroke="#000000" d="M1745.93,-252.9C1694.14,-239.05 1569.7,-213.42 1480.04,-257 1470.18,-261.79 1461.87,-269.98 1455.22,-278.64"/>
<polygon fill="#000000" stroke="#000000" points="1452.24,-276.8 1449.36,-286.99 1457.97,-280.82 1452.24,-276.8"/>
<text text-anchor="middle" x="1577.04" y="-301.4" font-family="Times,serif" font-size="32.00">the&#45;cause</text>
<text text-anchor="middle" x="1577.04" y="-266.4" font-family="Times,serif" font-size="32.00">d &#45;k</text>
</g>
<!-- for -->
<g id="node8" class="node">
<title>for</title>
<ellipse fill="none" stroke="black" cx="1157.52" cy="-448" rx="37.45" ry="30.31"/>
<text text-anchor="middle" x="1157.52" y="-439.9" font-family="Times,serif" font-size="32.00">for</text>
</g>
<!-- d&#45;&gt;for -->
<g id="edge4" class="edge">
<title>d&#45;&gt;for</title>
<path fill="none" stroke="#000000" d="M1423.66,-340.84C1416.54,-356.04 1405.54,-373.79 1390.04,-384 1332.62,-421.83 1302.41,-385.68 1237.04,-407 1223.27,-411.49 1209.01,-418.22 1196.48,-424.94"/>
<polygon fill="#000000" stroke="#000000" points="1194.75,-421.9 1187.7,-429.8 1198.14,-428.02 1194.75,-421.9"/>
<text text-anchor="middle" x="1313.54" y="-451.4" font-family="Times,serif" font-size="32.00">for</text>
<text text-anchor="middle" x="1313.54" y="-416.4" font-family="Times,serif" font-size="32.00">=d *k for</text>
</g>
<!-- of -->
<g id="node9" class="node">
<title>of</title>
<ellipse fill="none" stroke="black" cx="1157.52" cy="-220" rx="30.31" ry="30.31"/>
<text text-anchor="middle" x="1157.52" y="-211.9" font-family="Times,serif" font-size="32.00">of</text>
</g>
<!-- d&#45;&gt;of -->
<g id="edge5" class="edge">
<title>d&#45;&gt;of</title>
<path fill="none" stroke="#000000" d="M1424.69,-284.72C1417.78,-268.5 1406.65,-249.37 1390.04,-239 1331.08,-202.19 1246.57,-206.33 1197.63,-212.97"/>
<polygon fill="#000000" stroke="#000000" points="1196.85,-209.55 1187.46,-214.46 1197.86,-216.47 1196.85,-209.55"/>
<text text-anchor="middle" x="1313.54" y="-283.4" font-family="Times,serif" font-size="32.00">of</text>
<text text-anchor="middle" x="1313.54" y="-248.4" font-family="Times,serif" font-size="32.00">=d *k of</text>
</g>
<!-- about -->
<g id="node10" class="node">
<title>about</title>
<ellipse fill="none" stroke="black" cx="1157.52" cy="-313" rx="61.54" ry="30.31"/>
<text text-anchor="middle" x="1157.52" y="-304.9" font-family="Times,serif" font-size="32.00">about</text>
</g>
<!-- d&#45;&gt;about -->
<g id="edge6" class="edge">
<title>d&#45;&gt;about</title>
<path fill="none" stroke="#000000" d="M1407.62,-313C1366.96,-313 1287.65,-313 1229.4,-313"/>
<polygon fill="#000000" stroke="#000000" points="1229.15,-309.5 1219.15,-313 1229.15,-316.5 1229.15,-309.5"/>
<text text-anchor="middle" x="1313.54" y="-357.4" font-family="Times,serif" font-size="32.00">about</text>
<text text-anchor="middle" x="1313.54" y="-322.4" font-family="Times,serif" font-size="32.00">=d *k about</text>
</g>
<!-- 3 -->
<g id="node18" class="node">
<title>3</title>
<ellipse fill="none" stroke="black" cx="2145.54" cy="-684" rx="27" ry="30.31"/>
<text text-anchor="middle" x="2145.54" y="-675.9" font-family="Times,serif" font-size="32.00">3</text>
</g>
<!-- for&#45;&gt;3 -->
<g id="edge20" class="edge">
<title>for&#45;&gt;3</title>
<path fill="none" stroke="#000000" d="M1190.98,-461.72C1290.16,-502.89 1598.85,-625.36 1868.04,-672 1953.08,-686.73 2054.91,-686.7 2108.1,-685.37"/>
<polygon fill="#000000" stroke="#000000" points="2108.48,-688.86 2118.38,-685.08 2108.28,-681.86 2108.48,-688.86"/>
<text text-anchor="middle" x="1577.04" y="-672.4" font-family="Times,serif" font-size="32.00">hope</text>
<text text-anchor="middle" x="1577.04" y="-637.4" font-family="Times,serif" font-size="32.00">=for 3</text>
</g>
<!-- 0 -->
<g id="node11" class="node">
<title>0</title>
<ellipse fill="none" stroke="black" cx="229" cy="-575" rx="27" ry="30.31"/>
<text text-anchor="middle" x="229" y="-566.9" font-family="Times,serif" font-size="32.00">0</text>
</g>
<!-- 0&#45;&gt;t -->
<g id="edge7" class="edge">
<title>0&#45;&gt;t</title>
<path fill="none" stroke="#000000" d="M201.85,-575C166.67,-575 103.92,-575 64.21,-575"/>
<polygon fill="#000000" stroke="#000000" points="64.15,-571.5 54.15,-575 64.15,-578.5 64.15,-571.5"/>
<text text-anchor="middle" x="128" y="-654.4" font-family="Times,serif" font-size="32.00">s |</text>
<text text-anchor="middle" x="128" y="-619.4" font-family="Times,serif" font-size="32.00"> d</text>
<text text-anchor="middle" x="128" y="-584.4" font-family="Times,serif" font-size="32.00">=&gt;0 +k t</text>
</g>
<!-- 1 -->
<g id="node12" class="node">
<title>1</title>
<ellipse fill="none" stroke="black" cx="1435.04" cy="-711" rx="27" ry="30.31"/>
<text text-anchor="middle" x="1435.04" y="-702.9" font-family="Times,serif" font-size="32.00">1</text>
</g>
<!-- 2 -->
<g id="node13" class="node">
<title>2</title>
<ellipse fill="none" stroke="black" cx="1157.52" cy="-711" rx="27" ry="30.31"/>
<text text-anchor="middle" x="1157.52" y="-702.9" font-family="Times,serif" font-size="32.00">2</text>
</g>
<!-- 1&#45;&gt;2 -->
<g id="edge8" class="edge">
<title>1&#45;&gt;2</title>
<path fill="none" stroke="#000000" d="M1407.62,-711C1358.14,-711 1251.44,-711 1195.09,-711"/>
<polygon fill="#000000" stroke="#000000" points="1194.86,-707.5 1184.86,-711 1194.86,-714.5 1194.86,-707.5"/>
<text text-anchor="middle" x="1313.54" y="-755.4" font-family="Times,serif" font-size="32.00">ε_0</text>
<text text-anchor="middle" x="1313.54" y="-720.4" font-family="Times,serif" font-size="32.00">=&gt;1 =da 2</text>
</g>
<!-- v -->
<g id="node15" class="node">
<title>v</title>
<ellipse fill="none" stroke="black" cx="395" cy="-668" rx="27" ry="30.31"/>
<text text-anchor="middle" x="395" y="-659.9" font-family="Times,serif" font-size="32.00">v</text>
</g>
<!-- 2&#45;&gt;v -->
<g id="edge10" class="edge">
<title>2&#45;&gt;v</title>
<path fill="none" stroke="#000000" d="M1130.41,-710.92C1030.38,-710.55 671.5,-708.42 558,-697 514.13,-692.59 464.29,-682.96 431.62,-676"/>
<polygon fill="#000000" stroke="#000000" points="432.15,-672.54 421.64,-673.85 430.68,-679.38 432.15,-672.54"/>
<text text-anchor="middle" x="744" y="-752.4" font-family="Times,serif" font-size="32.00">ε_1</text>
<text text-anchor="middle" x="744" y="-717.4" font-family="Times,serif" font-size="32.00">=&gt;2 v</text>
</g>
<!-- perf -->
<g id="node16" class="node">
<title>perf</title>
<ellipse fill="none" stroke="black" cx="608" cy="-769" rx="48.17" ry="30.31"/>
<text text-anchor="middle" x="608" y="-760.9" font-family="Times,serif" font-size="32.00">perf</text>
</g>
<!-- 2&#45;&gt;perf -->
<g id="edge11" class="edge">
<title>2&#45;&gt;perf</title>
<path fill="none" stroke="#000000" d="M1130.87,-718.16C1074.02,-733.61 932.9,-769.67 812,-782 751.87,-788.13 736.17,-787.78 676,-782 671.89,-781.6 667.65,-781.08 663.4,-780.46"/>
<polygon fill="#000000" stroke="#000000" points="663.94,-777 653.52,-778.87 662.83,-783.91 663.94,-777"/>
<text text-anchor="middle" x="886" y="-824.4" font-family="Times,serif" font-size="32.00">n</text>
<text text-anchor="middle" x="886" y="-789.4" font-family="Times,serif" font-size="32.00">=&gt;2 perf</text>
</g>
<!-- prog -->
<g id="node17" class="node">
<title>prog</title>
<ellipse fill="none" stroke="black" cx="886" cy="-602" rx="52.15" ry="30.31"/>
<text text-anchor="middle" x="886" y="-593.9" font-family="Times,serif" font-size="32.00">prog</text>
</g>
<!-- 2&#45;&gt;prog -->
<g id="edge12" class="edge">
<title>2&#45;&gt;prog</title>
<path fill="none" stroke="#000000" d="M1140.98,-686.76C1127.01,-667.17 1104.63,-640.68 1078,-627 1038.13,-606.52 987.66,-600.63 948.61,-599.67"/>
<polygon fill="#000000" stroke="#000000" points="948.48,-596.17 938.43,-599.52 948.38,-603.16 948.48,-596.17"/>
<text text-anchor="middle" x="1019" y="-671.4" font-family="Times,serif" font-size="32.00">ing</text>
<text text-anchor="middle" x="1019" y="-636.4" font-family="Times,serif" font-size="32.00">=&gt;2 prog</text>
</g>
<!-- a -->
<g id="node14" class="node">
<title>a</title>
<ellipse fill="none" stroke="black" cx="1771.04" cy="-829" rx="27" ry="30.31"/>
<text text-anchor="middle" x="1771.04" y="-820.9" font-family="Times,serif" font-size="32.00">a</text>
</g>
<!-- a&#45;&gt;1 -->
<g id="edge9" class="edge">
<title>a&#45;&gt;1</title>
<path fill="none" stroke="#000000" d="M1744.93,-820.13C1685.91,-799.28 1538.25,-747.11 1470.72,-723.25"/>
<polygon fill="#000000" stroke="#000000" points="1471.57,-719.84 1460.98,-719.81 1469.24,-726.44 1471.57,-719.84"/>
<text text-anchor="middle" x="1577.04" y="-839.4" font-family="Times,serif" font-size="32.00">be</text>
<text text-anchor="middle" x="1577.04" y="-804.4" font-family="Times,serif" font-size="32.00">=a 1</text>
</g>
<!-- v&#45;&gt;0 -->
<g id="edge13" class="edge">
<title>v&#45;&gt;0</title>
<path fill="none" stroke="#000000" d="M388.46,-638.44C382.75,-617.08 371.51,-589.68 350,-576 325.12,-560.18 291.09,-561.54 265.61,-565.93"/>
<polygon fill="#000000" stroke="#000000" points="264.76,-562.53 255.62,-567.87 266.1,-569.4 264.76,-562.53"/>
<text text-anchor="middle" x="312" y="-620.4" font-family="Times,serif" font-size="32.00">will</text>
<text text-anchor="middle" x="312" y="-585.4" font-family="Times,serif" font-size="32.00">=v 0</text>
</g>
<!-- v&#45;&gt;0 -->
<g id="edge15" class="edge">
<title>v&#45;&gt;0</title>
<path fill="none" stroke="#000000" d="M367.84,-669.1C341.87,-668.92 302,-665.1 274,-646 261.66,-637.58 252.13,-624.45 245.14,-611.75"/>
<polygon fill="#000000" stroke="#000000" points="248.16,-609.97 240.5,-602.65 241.93,-613.15 248.16,-609.97"/>
<text text-anchor="middle" x="312" y="-713.4" font-family="Times,serif" font-size="32.00">ε_2</text>
<text text-anchor="middle" x="312" y="-678.4" font-family="Times,serif" font-size="32.00">=&gt;v 0</text>
</g>
<!-- perf&#45;&gt;v -->
<g id="edge14" class="edge">
<title>perf&#45;&gt;v</title>
<path fill="none" stroke="#000000" d="M560.11,-764.86C524.66,-759.87 476.11,-748.94 440,-725 430.84,-718.93 422.78,-710.3 416.15,-701.6"/>
<polygon fill="#000000" stroke="#000000" points="418.9,-699.42 410.24,-693.31 413.2,-703.48 418.9,-699.42"/>
<text text-anchor="middle" x="490" y="-806.4" font-family="Times,serif" font-size="32.00">have</text>
<text text-anchor="middle" x="490" y="-771.4" font-family="Times,serif" font-size="32.00">=perf v</text>
</g>
<!-- prog&#45;&gt;0 -->
<g id="edge16" class="edge">
<title>prog&#45;&gt;0</title>
<path fill="none" stroke="#000000" d="M834.75,-595.04C827.13,-594 819.36,-592.96 812,-592 691.2,-576.18 661.59,-565.57 540,-558 495.64,-555.24 484.44,-557.73 440,-558 366.22,-558.44 346.72,-547.5 274,-560 270.92,-560.53 267.76,-561.24 264.62,-562.07"/>
<polygon fill="#000000" stroke="#000000" points="263.34,-558.8 254.77,-565.03 265.36,-565.51 263.34,-558.8"/>
<text text-anchor="middle" x="490" y="-602.4" font-family="Times,serif" font-size="32.00">be_1</text>
<text text-anchor="middle" x="490" y="-567.4" font-family="Times,serif" font-size="32.00">=prog 0</text>
</g>
<!-- prog&#45;&gt;v -->
<g id="edge17" class="edge">
<title>prog&#45;&gt;v</title>
<path fill="none" stroke="#000000" d="M833.56,-599.62C826.32,-599.36 818.97,-599.14 812,-599 751.57,-597.76 736.03,-591.97 676,-599 622.46,-605.26 610.35,-614.17 558,-627 514.4,-637.69 464.31,-650.44 431.51,-658.85"/>
<polygon fill="#000000" stroke="#000000" points="430.32,-655.54 421.5,-661.42 432.06,-662.32 430.32,-655.54"/>
<text text-anchor="middle" x="608" y="-671.4" font-family="Times,serif" font-size="32.00">be_2</text>
<text text-anchor="middle" x="608" y="-636.4" font-family="Times,serif" font-size="32.00">=prog v</text>
</g>
<!-- prog&#45;&gt;perf -->
<g id="edge18" class="edge">
<title>prog&#45;&gt;perf</title>
<path fill="none" stroke="#000000" d="M833.35,-600.33C779.77,-599.61 700.44,-601.7 676,-619 675.69,-619.22 645.91,-686.04 626.17,-730.41"/>
<polygon fill="#000000" stroke="#000000" points="622.87,-729.22 622,-739.78 629.26,-732.07 622.87,-729.22"/>
<text text-anchor="middle" x="744" y="-663.4" font-family="Times,serif" font-size="32.00">ben</text>
<text text-anchor="middle" x="744" y="-628.4" font-family="Times,serif" font-size="32.00">=prog perf</text>
</g>
<!-- 3&#45;&gt;1 -->
<g id="edge19" class="edge">
<title>3&#45;&gt;1</title>
<path fill="none" stroke="#000000" d="M2118.66,-687.99C2097.77,-691.04 2067.59,-695.03 2041.04,-697 1825.9,-712.96 1566.65,-712.32 1472.47,-711.45"/>
<polygon fill="#000000" stroke="#000000" points="1472.36,-707.95 1462.32,-711.35 1472.29,-714.95 1472.36,-707.95"/>
<text text-anchor="middle" x="1771.04" y="-755.4" font-family="Times,serif" font-size="32.00">ε_3</text>
<text text-anchor="middle" x="1771.04" y="-720.4" font-family="Times,serif" font-size="32.00">=&gt;3 1</text>
</g>
<!-- 3&#45;&gt;a -->
<g id="edge23" class="edge">
<title>3&#45;&gt;a</title>
<path fill="none" stroke="#000000" d="M2119.92,-694.78C2099.25,-703.41 2068.73,-715.16 2041.04,-722 1965.73,-740.59 1930.25,-698.67 1868.04,-745 1852.4,-756.64 1863.18,-770.6 1850.04,-785 1838.08,-798.09 1821.3,-808.25 1806.37,-815.49"/>
<polygon fill="#000000" stroke="#000000" points="1804.53,-812.48 1796.89,-819.83 1807.44,-818.85 1804.53,-812.48"/>
<text text-anchor="middle" x="1954.54" y="-789.4" font-family="Times,serif" font-size="32.00">ful</text>
<text text-anchor="middle" x="1954.54" y="-754.4" font-family="Times,serif" font-size="32.00">=&gt;3 a</text>
</g>
<!-- 4 -->
<g id="node19" class="node">
<title>4</title>
<ellipse fill="none" stroke="black" cx="1771.04" cy="-353" rx="27" ry="30.31"/>
<text text-anchor="middle" x="1771.04" y="-344.9" font-family="Times,serif" font-size="32.00">4</text>
</g>
<!-- 3&#45;&gt;4 -->
<g id="edge22" class="edge">
<title>3&#45;&gt;4</title>
<path fill="none" stroke="#000000" d="M2124.7,-664.48C2105.27,-644.28 2076.15,-610.98 2059.04,-577 2044.98,-549.08 2064.5,-529.66 2041.04,-509 1982.83,-457.73 1927.83,-535.41 1868.04,-486 1848.54,-469.88 1863.27,-453.56 1850.04,-432 1837.13,-410.96 1817.62,-391.21 1801.34,-376.71"/>
<polygon fill="#000000" stroke="#000000" points="1803.5,-373.95 1793.65,-370.04 1798.91,-379.24 1803.5,-373.95"/>
<text text-anchor="middle" x="1954.54" y="-553.4" font-family="Times,serif" font-size="32.00">ε_5</text>
<text text-anchor="middle" x="1954.54" y="-518.4" font-family="Times,serif" font-size="32.00">=&gt;3 4</text>
</g>
<!-- 4&#45;&gt;d -->
<g id="edge21" class="edge">
<title>4&#45;&gt;d</title>
<path fill="none" stroke="#000000" d="M1744.02,-353.72C1692.75,-354.54 1575.37,-353.52 1480.04,-331 1476.64,-330.2 1473.17,-329.17 1469.73,-328.01"/>
<polygon fill="#000000" stroke="#000000" points="1470.85,-324.69 1460.26,-324.49 1468.41,-331.25 1470.85,-324.69"/>
<text text-anchor="middle" x="1577.04" y="-398.4" font-family="Times,serif" font-size="32.00">ε_4</text>
<text text-anchor="middle" x="1577.04" y="-363.4" font-family="Times,serif" font-size="32.00">=&gt;4 poss= d &#45;k</text>
</g>
<!-- 5 -->
<g id="node20" class="node">
<title>5</title>
<ellipse fill="none" stroke="black" cx="2145.54" cy="-331" rx="27" ry="30.31"/>
<text text-anchor="middle" x="2145.54" y="-322.9" font-family="Times,serif" font-size="32.00">5</text>
</g>
<!-- 5&#45;&gt;1 -->
<g id="edge24" class="edge">
<title>5&#45;&gt;1</title>
<path fill="none" stroke="#000000" d="M2121.17,-344.86C2100.5,-356.83 2069.31,-374.16 2041.04,-387 1890.33,-455.44 1810.47,-401.37 1692.04,-517 1676.62,-532.05 1690.96,-548.68 1674.04,-562 1605.58,-615.88 1547.63,-535.04 1480.04,-590 1455.89,-609.63 1445,-643.69 1440.08,-670.69"/>
<polygon fill="#000000" stroke="#000000" points="1436.61,-670.21 1438.47,-680.64 1443.52,-671.33 1436.61,-670.21"/>
<text text-anchor="middle" x="1771.04" y="-561.4" font-family="Times,serif" font-size="32.00">ε_6</text>
<text text-anchor="middle" x="1771.04" y="-526.4" font-family="Times,serif" font-size="32.00">=&gt;5 1</text>
</g>
<!-- 5&#45;&gt;4 -->
<g id="edge27" class="edge">
<title>5&#45;&gt;4</title>
<path fill="none" stroke="#000000" d="M2118.7,-324.87C2069.43,-314.17 1958.84,-294.84 1868.04,-313 1846.02,-317.4 1822.75,-326.96 1804.63,-335.63"/>
<polygon fill="#000000" stroke="#000000" points="1803.08,-332.49 1795.66,-340.05 1806.18,-338.77 1803.08,-332.49"/>
<text text-anchor="middle" x="1954.54" y="-357.4" font-family="Times,serif" font-size="32.00">ε_8</text>
<text text-anchor="middle" x="1954.54" y="-322.4" font-family="Times,serif" font-size="32.00">=&gt;5 4</text>
</g>
<!-- 6 -->
<g id="node21" class="node">
<title>6</title>
<ellipse fill="none" stroke="black" cx="2503.04" cy="-345" rx="27" ry="30.31"/>
<text text-anchor="middle" x="2503.04" y="-336.9" font-family="Times,serif" font-size="32.00">6</text>
</g>
<!-- 6&#45;&gt;1 -->
<g id="edge30" class="edge">
<title>6&#45;&gt;1</title>
<path fill="none" stroke="#000000" d="M2478.08,-357.49C2466.56,-363.02 2452.37,-369.13 2439.04,-373 2398.26,-384.84 2279.29,-370.23 2250.04,-401 2221.43,-431.1 2261.37,-557.61 2232.04,-587 2174.62,-644.54 1948.41,-610.87 1868.04,-623 1719.8,-645.37 1545.51,-685.02 1471.81,-702.42"/>
<polygon fill="#000000" stroke="#000000" points="1470.6,-699.11 1461.68,-704.82 1472.22,-705.92 1470.6,-699.11"/>
<text text-anchor="middle" x="1954.54" y="-667.4" font-family="Times,serif" font-size="32.00">ε_10</text>
<text text-anchor="middle" x="1954.54" y="-632.4" font-family="Times,serif" font-size="32.00">=&gt;6 =about 1</text>
</g>
<!-- 6&#45;&gt;a -->
<g id="edge32" class="edge">
<title>6&#45;&gt;a</title>
<path fill="none" stroke="#000000" d="M2483.05,-365.86C2471.47,-377.24 2455.72,-390.49 2439.04,-398 2361.61,-432.88 2307.43,-363.41 2250.04,-426 2205.35,-474.73 2275.29,-672.99 2232.04,-723 2180.66,-782.4 2117.43,-706.48 2059.04,-759 2039.6,-776.48 2061.75,-799.06 2041.04,-815 2005.67,-842.22 1873.5,-836.63 1808.54,-832.03"/>
<polygon fill="#000000" stroke="#000000" points="1808.57,-828.52 1798.34,-831.27 1808.06,-835.5 1808.57,-828.52"/>
<text text-anchor="middle" x="2145.54" y="-803.4" font-family="Times,serif" font-size="32.00">ful_2</text>
<text text-anchor="middle" x="2145.54" y="-768.4" font-family="Times,serif" font-size="32.00">=&gt;6 =about a</text>
</g>
<!-- 6&#45;&gt;4 -->
<g id="edge31" class="edge">
<title>6&#45;&gt;4</title>
<path fill="none" stroke="#000000" d="M2483.8,-323.28C2472.24,-310.98 2456.27,-296.41 2439.04,-288 2362.41,-250.59 2319.33,-304.69 2250.04,-255 2236.46,-245.26 2246.4,-230.53 2232.04,-222 2165.92,-182.75 2134.42,-206.85 2059.04,-222 1960,-241.9 1854.71,-301.12 1803.57,-332.67"/>
<polygon fill="#000000" stroke="#000000" points="1801.59,-329.78 1794.96,-338.04 1805.3,-335.72 1801.59,-329.78"/>
<text text-anchor="middle" x="2145.54" y="-266.4" font-family="Times,serif" font-size="32.00">ε_11</text>
<text text-anchor="middle" x="2145.54" y="-231.4" font-family="Times,serif" font-size="32.00">=&gt;6 =about 4</text>
</g>
<!-- 6&#45;&gt;5 -->
<g id="edge25" class="edge">
<title>6&#45;&gt;5</title>
<path fill="none" stroke="#000000" d="M2481.22,-326.56C2469.66,-317.56 2454.51,-307.69 2439.04,-303 2348.95,-275.72 2236.77,-302.31 2181.15,-319.29"/>
<polygon fill="#000000" stroke="#000000" points="2179.93,-316 2171.44,-322.33 2182.03,-322.68 2179.93,-316"/>
<text text-anchor="middle" x="2344.54" y="-347.4" font-family="Times,serif" font-size="32.00">ε_7</text>
<text text-anchor="middle" x="2344.54" y="-312.4" font-family="Times,serif" font-size="32.00">=&gt;6 =of 5</text>
</g>
<!-- 7 -->
<g id="node23" class="node">
<title>7</title>
<ellipse fill="none" stroke="black" cx="2145.54" cy="-868" rx="27" ry="30.31"/>
<text text-anchor="middle" x="2145.54" y="-859.9" font-family="Times,serif" font-size="32.00">7</text>
</g>
<!-- 6&#45;&gt;7 -->
<g id="edge29" class="edge">
<title>6&#45;&gt;7</title>
<path fill="none" stroke="#000000" d="M2488.09,-370.37C2477,-388.33 2459.9,-411.69 2439.04,-426 2366.69,-475.64 2304.2,-413.98 2250.04,-483 2203.19,-542.7 2273.25,-760.28 2232.04,-824 2220.66,-841.59 2199.9,-852.5 2181.69,-859.06"/>
<polygon fill="#000000" stroke="#000000" points="2180.59,-855.74 2172.18,-862.19 2182.78,-862.39 2180.59,-855.74"/>
<text text-anchor="middle" x="2344.54" y="-527.4" font-family="Times,serif" font-size="32.00">ε_9</text>
<text text-anchor="middle" x="2344.54" y="-492.4" font-family="Times,serif" font-size="32.00">=&gt;6 7</text>
</g>
<!-- z3 -->
<g id="node22" class="node">
<title>z3</title>
<ellipse fill="none" stroke="black" stroke-dasharray="5,2" cx="2753.36" cy="-99" rx="27" ry="18"/>
</g>
<!-- z3&#45;&gt;6 -->
<g id="edge26" class="edge">
<title>z3&#45;&gt;6</title>
<path fill="none" stroke="#000000" d="M2737.57,-113.65C2696.97,-153.88 2583.32,-266.46 2531.01,-318.28"/>
<polygon fill="#000000" stroke="#000000" points="2528.4,-315.94 2523.76,-325.47 2533.32,-320.91 2528.4,-315.94"/>
<text text-anchor="middle" x="2625.04" y="-324.4" font-family="Times,serif" font-size="32.00">boast</text>
<text text-anchor="middle" x="2625.04" y="-289.4" font-family="Times,serif" font-size="32.00">6</text>
</g>
<!-- 7&#45;&gt;a -->
<g id="edge28" class="edge">
<title>7&#45;&gt;a</title>
<path fill="none" stroke="#000000" d="M2118.57,-866.13C2069.52,-862.49 1959.94,-853.85 1868.04,-843 1848.18,-840.66 1826.1,-837.48 1808.12,-834.74"/>
<polygon fill="#000000" stroke="#000000" points="1808.48,-831.25 1798.06,-833.19 1807.41,-838.17 1808.48,-831.25"/>
<text text-anchor="middle" x="1954.54" y="-904.4" font-family="Times,serif" font-size="32.00">ful_1</text>
<text text-anchor="middle" x="1954.54" y="-869.4" font-family="Times,serif" font-size="32.00">=&gt;7 =of a</text>
</g>
<!-- 8 -->
<g id="node24" class="node">
<title>8</title>
<ellipse fill="none" stroke="black" cx="2145.54" cy="-1113" rx="27" ry="30.31"/>
<text text-anchor="middle" x="2145.54" y="-1104.9" font-family="Times,serif" font-size="32.00">8</text>
</g>
<!-- 8&#45;&gt;1 -->
<g id="edge33" class="edge">
<title>8&#45;&gt;1</title>
<path fill="none" stroke="#000000" d="M2118.37,-1111.88C2018.47,-1106.13 1657.74,-1071.55 1480.04,-869 1451.45,-836.41 1441.3,-786.7 1437.77,-751.76"/>
<polygon fill="#000000" stroke="#000000" points="1441.23,-751.09 1436.88,-741.43 1434.25,-751.69 1441.23,-751.09"/>
<text text-anchor="middle" x="1771.04" y="-1113.4" font-family="Times,serif" font-size="32.00">ε_12</text>
<text text-anchor="middle" x="1771.04" y="-1078.4" font-family="Times,serif" font-size="32.00">=&gt;8 =d *k 1</text>
</g>
<!-- z4 -->
<g id="node25" class="node">
<title>z4</title>
<ellipse fill="none" stroke="black" stroke-dasharray="5,2" cx="2503.04" cy="-1206" rx="27" ry="18"/>
</g>
<!-- z4&#45;&gt;8 -->
<g id="edge34" class="edge">
<title>z4&#45;&gt;8</title>
<path fill="none" stroke="#000000" d="M2475.82,-1205.39C2419.98,-1203.83 2291.07,-1198.71 2250.04,-1184 2222.04,-1173.96 2194.47,-1154.44 2174.84,-1138.41"/>
<polygon fill="#000000" stroke="#000000" points="2176.84,-1135.52 2166.93,-1131.79 2172.35,-1140.89 2176.84,-1135.52"/>
<text text-anchor="middle" x="2344.54" y="-1282.4" font-family="Times,serif" font-size="32.00">fear |</text>
<text text-anchor="middle" x="2344.54" y="-1247.4" font-family="Times,serif" font-size="32.00"> scorn</text>
<text text-anchor="middle" x="2344.54" y="-1212.4" font-family="Times,serif" font-size="32.00">8</text>
</g>
<!-- 9 -->
<g id="node26" class="node">
<title>9</title>
<ellipse fill="none" stroke="black" cx="2503.04" cy="-902" rx="27" ry="30.31"/>
<text text-anchor="middle" x="2503.04" y="-893.9" font-family="Times,serif" font-size="32.00">9</text>
</g>
<!-- 9&#45;&gt;4 -->
<g id="edge35" class="edge">
<title>9&#45;&gt;4</title>
<path fill="none" stroke="#000000" d="M2494.34,-872.94C2484.57,-835.16 2467.68,-767.04 2457.04,-708 2451.51,-677.35 2460.86,-591.22 2439.04,-569 2409.29,-538.7 2291.42,-550.5 2250.04,-541 2074.1,-500.6 2031.82,-478.9 1868.04,-403 1846.6,-393.06 1823.05,-380.82 1804.65,-370.94"/>
<polygon fill="#000000" stroke="#000000" points="1806.26,-367.83 1795.8,-366.16 1802.93,-373.99 1806.26,-367.83"/>
<text text-anchor="middle" x="2145.54" y="-580.4" font-family="Times,serif" font-size="32.00">ε_13</text>
<text text-anchor="middle" x="2145.54" y="-545.4" font-family="Times,serif" font-size="32.00">=&gt;9 =of 4</text>
</g>
<!-- 9&#45;&gt;7 -->
<g id="edge39" class="edge">
<title>9&#45;&gt;7</title>
<path fill="none" stroke="#000000" d="M2475.89,-899.96C2430.1,-896.34 2332.4,-888.37 2250.04,-880 2227.61,-877.72 2202.5,-874.82 2182.62,-872.44"/>
<polygon fill="#000000" stroke="#000000" points="2182.81,-868.94 2172.46,-871.21 2181.97,-875.88 2182.81,-868.94"/>
<text text-anchor="middle" x="2344.54" y="-941.4" font-family="Times,serif" font-size="32.00">ε_15</text>
<text text-anchor="middle" x="2344.54" y="-906.4" font-family="Times,serif" font-size="32.00">=&gt;9 7</text>
</g>
<!-- 9&#45;&gt;8 -->
<g id="edge38" class="edge">
<title>9&#45;&gt;8</title>
<path fill="none" stroke="#000000" d="M2483.2,-922.92C2473.81,-934.51 2463.19,-949.65 2457.04,-965 2446.52,-991.26 2459.69,-1071.68 2439.04,-1091 2429.81,-1099.63 2259.17,-1108.1 2182.88,-1111.47"/>
<polygon fill="#000000" stroke="#000000" points="2182.6,-1107.98 2172.76,-1111.91 2182.91,-1114.97 2182.6,-1107.98"/>
<text text-anchor="middle" x="2344.54" y="-1152.4" font-family="Times,serif" font-size="32.00">ε_14</text>
<text text-anchor="middle" x="2344.54" y="-1117.4" font-family="Times,serif" font-size="32.00">=&gt;9 8</text>
</g>
<!-- z5 -->
<g id="node27" class="node">
<title>z5</title>
<ellipse fill="none" stroke="black" stroke-dasharray="5,2" cx="2753.36" cy="-739" rx="27" ry="18"/>
</g>
<!-- z5&#45;&gt;9 -->
<g id="edge36" class="edge">
<title>z5&#45;&gt;9</title>
<path fill="none" stroke="#000000" d="M2728.47,-732C2690.5,-722.42 2615.74,-710.02 2567.04,-744 2528.96,-770.57 2513.89,-824.09 2507.93,-861.45"/>
<polygon fill="#000000" stroke="#000000" points="2504.44,-861.12 2506.48,-871.52 2511.37,-862.12 2504.44,-861.12"/>
<text text-anchor="middle" x="2625.04" y="-858.4" font-family="Times,serif" font-size="32.00">fear_1 |</text>
<text text-anchor="middle" x="2625.04" y="-823.4" font-family="Times,serif" font-size="32.00"> neglect |</text>
<text text-anchor="middle" x="2625.04" y="-788.4" font-family="Times,serif" font-size="32.00"> scorn_1</text>
<text text-anchor="middle" x="2625.04" y="-753.4" font-family="Times,serif" font-size="32.00">9</text>
</g>
<!-- z6 -->
<g id="node28" class="node">
<title>z6</title>
<ellipse fill="none" stroke="black" stroke-dasharray="5,2" cx="2503.04" cy="-681" rx="27" ry="18"/>
</g>
<!-- z6&#45;&gt;7 -->
<g id="edge37" class="edge">
<title>z6&#45;&gt;7</title>
<path fill="none" stroke="#000000" d="M2476.27,-677.02C2418.86,-668.78 2282.88,-652.94 2250.04,-682 2226.21,-703.08 2250.28,-797.94 2232.04,-824 2220.16,-840.96 2199.72,-851.82 2181.81,-858.5"/>
<polygon fill="#000000" stroke="#000000" points="2180.51,-855.24 2172.18,-861.8 2182.78,-861.87 2180.51,-855.24"/>
<text text-anchor="middle" x="2344.54" y="-761.4" font-family="Times,serif" font-size="32.00">fear_2 |</text>
<text text-anchor="middle" x="2344.54" y="-726.4" font-family="Times,serif" font-size="32.00"> scorn_2</text>
<text text-anchor="middle" x="2344.54" y="-691.4" font-family="Times,serif" font-size="32.00">7</text>
</g>
<!-- z7 -->
<g id="node29" class="node">
<title>z7</title>
<ellipse fill="none" stroke="black" stroke-dasharray="5,2" cx="2753.36" cy="-588" rx="27" ry="18"/>
</g>
<!-- 10 -->
<g id="node30" class="node">
<title>10</title>
<ellipse fill="none" stroke="black" cx="2503.04" cy="-588" rx="33.88" ry="30.31"/>
<text text-anchor="middle" x="2503.04" y="-579.9" font-family="Times,serif" font-size="32.00">10</text>
</g>
<!-- z7&#45;&gt;10 -->
<g id="edge40" class="edge">
<title>z7&#45;&gt;10</title>
<path fill="none" stroke="#000000" d="M2726.26,-588C2683.73,-588 2599.09,-588 2547.42,-588"/>
<polygon fill="#000000" stroke="#000000" points="2547.23,-584.5 2537.23,-588 2547.23,-591.5 2547.23,-584.5"/>
<text text-anchor="middle" x="2625.04" y="-667.4" font-family="Times,serif" font-size="32.00">respect |</text>
<text text-anchor="middle" x="2625.04" y="-632.4" font-family="Times,serif" font-size="32.00"> disdain</text>
<text text-anchor="middle" x="2625.04" y="-597.4" font-family="Times,serif" font-size="32.00">10</text>
</g>
<!-- 10&#45;&gt;4 -->
<g id="edge41" class="edge">
<title>10&#45;&gt;4</title>
<path fill="none" stroke="#000000" d="M2496.56,-557.91C2489.17,-526.27 2472.81,-477.5 2439.04,-451 2373.24,-399.37 1929.13,-394.74 1868.04,-383 1847.2,-379 1824.52,-372.04 1806.44,-365.83"/>
<polygon fill="#000000" stroke="#000000" points="1807.5,-362.49 1796.9,-362.48 1805.18,-369.09 1807.5,-362.49"/>
<text text-anchor="middle" x="2145.54" y="-453.4" font-family="Times,serif" font-size="32.00">ε_16</text>
<text text-anchor="middle" x="2145.54" y="-418.4" font-family="Times,serif" font-size="32.00">=&gt;10 =for 4</text>
</g>
<!-- 10&#45;&gt;7 -->
<g id="edge43" class="edge">
<title>10&#45;&gt;7</title>
<path fill="none" stroke="#000000" d="M2471.25,-576.9C2418.35,-560.04 2310.13,-535.5 2250.04,-592 2212.36,-627.42 2260.65,-780.93 2232.04,-824 2220.5,-841.36 2199.87,-852.26 2181.77,-858.86"/>
<polygon fill="#000000" stroke="#000000" points="2180.43,-855.62 2172.05,-862.1 2182.64,-862.26 2180.43,-855.62"/>
<text text-anchor="middle" x="2344.54" y="-636.4" font-family="Times,serif" font-size="32.00">ε_18</text>
<text text-anchor="middle" x="2344.54" y="-601.4" font-family="Times,serif" font-size="32.00">=&gt;10 7</text>
</g>
<!-- 10&#45;&gt;8 -->
<g id="edge42" class="edge">
<title>10&#45;&gt;8</title>
<path fill="none" stroke="#000000" d="M2481.79,-611.85C2472.75,-623.76 2462.85,-638.85 2457.04,-654 2446.35,-681.84 2460.48,-766.28 2439.04,-787 2408.68,-816.33 2281,-777.31 2250.04,-806 2216.59,-836.99 2244.85,-863.24 2232.04,-907 2213.95,-968.75 2183.32,-1037.14 2164.05,-1077.52"/>
<polygon fill="#000000" stroke="#000000" points="2160.83,-1076.15 2159.65,-1086.68 2167.13,-1079.18 2160.83,-1076.15"/>
<text text-anchor="middle" x="2344.54" y="-850.4" font-family="Times,serif" font-size="32.00">ε_17</text>
<text text-anchor="middle" x="2344.54" y="-815.4" font-family="Times,serif" font-size="32.00">=&gt;10 8</text>
</g>
<!-- 11 -->
<g id="node31" class="node">
<title>11</title>
<ellipse fill="none" stroke="black" cx="2753.36" cy="-987" rx="33.88" ry="30.31"/>
<text text-anchor="middle" x="2753.36" y="-978.9" font-family="Times,serif" font-size="32.00">11</text>
</g>
<!-- 11&#45;&gt;a -->
<g id="edge49" class="edge">
<title>11&#45;&gt;a</title>
<path fill="none" stroke="#000000" d="M2727.36,-1007C2673.2,-1047.76 2542.97,-1131.57 2457.04,-1070 2436.81,-1055.51 2458.51,-1032.48 2439.04,-1017 2406,-990.73 2291.87,-1003.6 2250.04,-998 2079.41,-975.16 2019.27,-1016.24 1868.04,-934 1836.92,-917.08 1810.55,-886.17 1793.36,-862.26"/>
<polygon fill="#000000" stroke="#000000" points="1796.05,-859.99 1787.45,-853.8 1790.31,-864 1796.05,-859.99"/>
<text text-anchor="middle" x="2344.54" y="-1061.4" font-family="Times,serif" font-size="32.00">ful_3</text>
<text text-anchor="middle" x="2344.54" y="-1026.4" font-family="Times,serif" font-size="32.00">=&gt;11 =about a</text>
</g>
<!-- 11&#45;&gt;4 -->
<g id="edge48" class="edge">
<title>11&#45;&gt;4</title>
<path fill="none" stroke="#000000" d="M2744.24,-957.57C2732.91,-915.45 2712.47,-835.37 2701.04,-766 2687.81,-685.8 2705.02,-662.25 2683.04,-584 2645.94,-451.95 2634.49,-413.29 2549.04,-306 2510.03,-257.03 2498.12,-238.72 2439.04,-218 2359.77,-190.2 2320.37,-172.07 2250.04,-218 2233.37,-228.88 2248.03,-247.16 2232.04,-259 2166.58,-307.47 1945.78,-277.7 1868.04,-302 1845.33,-309.1 1821.72,-321.57 1803.59,-332.4"/>
<polygon fill="#000000" stroke="#000000" points="1801.34,-329.67 1794.64,-337.88 1805,-335.64 1801.34,-329.67"/>
<text text-anchor="middle" x="2344.54" y="-262.4" font-family="Times,serif" font-size="32.00">ε_22</text>
<text text-anchor="middle" x="2344.54" y="-227.4" font-family="Times,serif" font-size="32.00">=&gt;11 =about 4</text>
</g>
<!-- 11&#45;&gt;7 -->
<g id="edge47" class="edge">
<title>11&#45;&gt;7</title>
<path fill="none" stroke="#000000" d="M2719.44,-989.05C2621.68,-994.66 2334.65,-1007.52 2250.04,-971 2215.89,-956.26 2186.89,-924.59 2168.35,-900.23"/>
<polygon fill="#000000" stroke="#000000" points="2171,-897.93 2162.24,-891.96 2165.37,-902.09 2171,-897.93"/>
<text text-anchor="middle" x="2503.04" y="-1040.4" font-family="Times,serif" font-size="32.00">ε_21</text>
<text text-anchor="middle" x="2503.04" y="-1005.4" font-family="Times,serif" font-size="32.00">=&gt;11 7</text>
</g>
<!-- 11&#45;&gt;8 -->
<g id="edge44" class="edge">
<title>11&#45;&gt;8</title>
<path fill="none" stroke="#000000" d="M2728.35,-1007.68C2718.72,-1017.03 2708.23,-1028.73 2701.04,-1041 2687.38,-1064.28 2696.99,-1075.89 2683.04,-1099 2608.64,-1222.23 2576.06,-1267.89 2439.04,-1312 2359.08,-1337.74 2321.84,-1355.59 2250.04,-1312 2192.97,-1277.36 2165.92,-1199.88 2154.28,-1152.47"/>
<polygon fill="#000000" stroke="#000000" points="2157.64,-1151.49 2151.96,-1142.55 2150.83,-1153.08 2157.64,-1151.49"/>
<text text-anchor="middle" x="2503.04" y="-1348.4" font-family="Times,serif" font-size="32.00">ε_19</text>
<text text-anchor="middle" x="2503.04" y="-1313.4" font-family="Times,serif" font-size="32.00">=&gt;11 8</text>
</g>
<!-- 11&#45;&gt;9 -->
<g id="edge46" class="edge">
<title>11&#45;&gt;9</title>
<path fill="none" stroke="#000000" d="M2738.29,-959.54C2726.49,-939.79 2707.63,-914.68 2683.04,-903 2637.23,-881.26 2577.1,-886.82 2539.51,-893.72"/>
<polygon fill="#000000" stroke="#000000" points="2538.68,-890.32 2529.54,-895.68 2540.03,-897.19 2538.68,-890.32"/>
<text text-anchor="middle" x="2625.04" y="-947.4" font-family="Times,serif" font-size="32.00">ε_20</text>
<text text-anchor="middle" x="2625.04" y="-912.4" font-family="Times,serif" font-size="32.00">=&gt;11 9</text>
</g>
<!-- z8 -->
<g id="node32" class="node">
<title>z8</title>
<ellipse fill="none" stroke="black" stroke-dasharray="5,2" cx="2971.69" cy="-987" rx="27" ry="18"/>
</g>
<!-- z8&#45;&gt;11 -->
<g id="edge45" class="edge">
<title>z8&#45;&gt;11</title>
<path fill="none" stroke="#000000" d="M2944.59,-987C2908.18,-987 2841.67,-987 2797.74,-987"/>
<polygon fill="#000000" stroke="#000000" points="2797.63,-983.5 2787.63,-987 2797.63,-990.5 2797.63,-983.5"/>
<text text-anchor="middle" x="2875.19" y="-1031.4" font-family="Times,serif" font-size="32.00">doubt</text>
<text text-anchor="middle" x="2875.19" y="-996.4" font-family="Times,serif" font-size="32.00">11</text>
</g>
</g>
</svg>
