<?xml version="1.0" encoding="UTF-8" standalone="no"?>
<!DOCTYPE svg PUBLIC "-//W3C//DTD SVG 1.1//EN"
 "http://www.w3.org/Graphics/SVG/1.1/DTD/svg11.dtd">
<!-- Generated by graphviz version 2.47.1 (20210417.1919)
 -->
<!-- Title: G Pages: 1 -->
<svg width="2884pt" height="1980pt"
 viewBox="0.00 0.00 2883.64 1979.63" xmlns="http://www.w3.org/2000/svg" xmlns:xlink="http://www.w3.org/1999/xlink">
<g id="graph0" class="graph" transform="scale(1 1) rotate(0) translate(4 1975.63)">
<title>G</title>
<polygon fill="white" stroke="transparent" points="-4,4 -4,-1975.63 2879.64,-1975.63 2879.64,4 -4,4"/>
<text text-anchor="middle" x="1437.82" y="-13.4" font-family="Times,serif" font-size="32.00">single contraction: 2 → 1</text>
<!-- t -->
<g id="node1" class="node">
<title>t</title>
<ellipse fill="lightgray" stroke="black" cx="27" cy="-997.63" rx="27" ry="30.31"/>
<text text-anchor="middle" x="27" y="-989.53" font-family="Times,serif" font-size="32.00">t</text>
</g>
<!-- z0 -->
<g id="node2" class="node">
<title>z0</title>
<ellipse fill="none" stroke="black" stroke-dasharray="5,2" cx="2838.17" cy="-1738.63" rx="27" ry="18"/>
</g>
<!-- da -->
<g id="node3" class="node">
<title>da</title>
<ellipse fill="none" stroke="black" cx="2515.36" cy="-1738.63" rx="33.47" ry="30.31"/>
<text text-anchor="middle" x="2515.36" y="-1730.53" font-family="Times,serif" font-size="32.00">da</text>
</g>
<!-- z0&#45;&gt;da -->
<g id="edge1" class="edge">
<title>z0&#45;&gt;da</title>
<path fill="none" stroke="#000000" d="M2810.91,-1738.63C2755.52,-1738.63 2626.24,-1738.63 2558.88,-1738.63"/>
<polygon fill="#000000" stroke="#000000" points="2558.62,-1735.13 2548.62,-1738.63 2558.62,-1742.13 2558.62,-1735.13"/>
<text text-anchor="middle" x="2684.19" y="-1818.03" font-family="Times,serif" font-size="32.00">Mary |</text>
<text text-anchor="middle" x="2684.19" y="-1783.03" font-family="Times,serif" font-size="32.00"> John</text>
<text text-anchor="middle" x="2684.19" y="-1748.03" font-family="Times,serif" font-size="32.00">da &#45;k</text>
</g>
<!-- z1 -->
<g id="node4" class="node">
<title>z1</title>
<ellipse fill="none" stroke="black" stroke-dasharray="5,2" cx="2838.17" cy="-1866.63" rx="27" ry="18"/>
</g>
<!-- poss -->
<g id="node5" class="node">
<title>poss</title>
<ellipse fill="none" stroke="black" cx="2515.36" cy="-1866.63" rx="52.15" ry="30.31"/>
<text text-anchor="middle" x="2515.36" y="-1858.53" font-family="Times,serif" font-size="32.00">poss</text>
</g>
<!-- z1&#45;&gt;poss -->
<g id="edge2" class="edge">
<title>z1&#45;&gt;poss</title>
<path fill="none" stroke="#000000" d="M2810.91,-1866.63C2760.35,-1866.63 2648.25,-1866.63 2577.84,-1866.63"/>
<polygon fill="#000000" stroke="#000000" points="2577.77,-1863.13 2567.77,-1866.63 2577.77,-1870.13 2577.77,-1863.13"/>
<text text-anchor="middle" x="2684.19" y="-1946.03" font-family="Times,serif" font-size="32.00">Mary&#39;s |</text>
<text text-anchor="middle" x="2684.19" y="-1911.03" font-family="Times,serif" font-size="32.00"> John&#39;s</text>
<text text-anchor="middle" x="2684.19" y="-1876.03" font-family="Times,serif" font-size="32.00">poss</text>
</g>
<!-- z2 -->
<g id="node6" class="node">
<title>z2</title>
<ellipse fill="none" stroke="black" stroke-dasharray="5,2" cx="2838.17" cy="-853.63" rx="27" ry="18"/>
</g>
<!-- d -->
<g id="node7" class="node">
<title>d</title>
<ellipse fill="none" stroke="black" cx="2515.36" cy="-853.63" rx="27" ry="30.31"/>
<text text-anchor="middle" x="2515.36" y="-845.53" font-family="Times,serif" font-size="32.00">d</text>
</g>
<!-- z2&#45;&gt;d -->
<g id="edge3" class="edge">
<title>z2&#45;&gt;d</title>
<path fill="none" stroke="#000000" d="M2810.91,-853.63C2753.79,-853.63 2618.1,-853.63 2552.76,-853.63"/>
<polygon fill="#000000" stroke="#000000" points="2552.53,-850.13 2542.53,-853.63 2552.53,-857.13 2552.53,-850.13"/>
<text text-anchor="middle" x="2684.19" y="-898.03" font-family="Times,serif" font-size="32.00">the&#45;cause</text>
<text text-anchor="middle" x="2684.19" y="-863.03" font-family="Times,serif" font-size="32.00">d &#45;k</text>
</g>
<!-- for -->
<g id="node8" class="node">
<title>for</title>
<ellipse fill="none" stroke="black" cx="2838.17" cy="-406.63" rx="37.45" ry="30.31"/>
<text text-anchor="middle" x="2838.17" y="-398.53" font-family="Times,serif" font-size="32.00">for</text>
</g>
<!-- d&#45;&gt;for -->
<g id="edge4" class="edge">
<title>d&#45;&gt;for</title>
<path fill="none" stroke="#000000" d="M2534.86,-831.96C2548.33,-816.68 2567.34,-796.09 2585.69,-779.63 2667.21,-706.51 2722.49,-723.12 2782.69,-631.63 2819.97,-574.98 2831.77,-495.26 2835.49,-447.49"/>
<polygon fill="#000000" stroke="#000000" points="2839,-447.45 2836.2,-437.23 2832.01,-446.96 2839,-447.45"/>
<text text-anchor="middle" x="2684.19" y="-824.03" font-family="Times,serif" font-size="32.00">for</text>
<text text-anchor="middle" x="2684.19" y="-789.03" font-family="Times,serif" font-size="32.00">=d *k for</text>
</g>
<!-- of -->
<g id="node9" class="node">
<title>of</title>
<ellipse fill="none" stroke="black" cx="2134.52" cy="-620.63" rx="30.31" ry="30.31"/>
<text text-anchor="middle" x="2134.52" y="-612.53" font-family="Times,serif" font-size="32.00">of</text>
</g>
<!-- d&#45;&gt;of -->
<g id="edge5" class="edge">
<title>d&#45;&gt;of</title>
<path fill="none" stroke="#000000" d="M2488.7,-860.14C2432.57,-872.74 2297.24,-894.08 2214.04,-831.63 2160.34,-791.33 2143.35,-710.11 2137.98,-661.03"/>
<polygon fill="#000000" stroke="#000000" points="2141.47,-660.68 2137.01,-651.07 2134.5,-661.37 2141.47,-660.68"/>
<text text-anchor="middle" x="2329.54" y="-919.03" font-family="Times,serif" font-size="32.00">of</text>
<text text-anchor="middle" x="2329.54" y="-884.03" font-family="Times,serif" font-size="32.00">=d *k of</text>
</g>
<!-- about -->
<g id="node10" class="node">
<title>about</title>
<ellipse fill="none" stroke="black" cx="2134.52" cy="-1238.63" rx="61.54" ry="30.31"/>
<text text-anchor="middle" x="2134.52" y="-1230.53" font-family="Times,serif" font-size="32.00">about</text>
</g>
<!-- d&#45;&gt;about -->
<g id="edge6" class="edge">
<title>d&#45;&gt;about</title>
<path fill="none" stroke="#000000" d="M2512.23,-883.99C2507.54,-927.23 2492.6,-1006.21 2445.04,-1050.63 2367.18,-1123.36 2299.6,-1051.16 2214.04,-1114.63 2185.02,-1136.16 2164.06,-1171.88 2151.13,-1199.47"/>
<polygon fill="#000000" stroke="#000000" points="2147.82,-1198.29 2146.9,-1208.85 2154.2,-1201.17 2147.82,-1198.29"/>
<text text-anchor="middle" x="2329.54" y="-1159.03" font-family="Times,serif" font-size="32.00">about</text>
<text text-anchor="middle" x="2329.54" y="-1124.03" font-family="Times,serif" font-size="32.00">=d *k about</text>
</g>
<!-- 1 -->
<g id="node13" class="node">
<title>1</title>
<ellipse fill="none" stroke="black" cx="1338.5" cy="-970.63" rx="27" ry="30.31"/>
<text text-anchor="middle" x="1338.5" y="-962.53" font-family="Times,serif" font-size="32.00">1</text>
</g>
<!-- d&#45;&gt;1 -->
<g id="edge42" class="edge">
<title>d&#45;&gt;1</title>
<path fill="none" stroke="#000000" d="M2502.34,-880.56C2490.94,-902.73 2471.59,-932.97 2445.04,-948.63 2218.92,-1082.03 2121.01,-1006.16 1859,-1022.63 1783.15,-1027.4 1750.93,-1065.24 1688,-1022.63 1670.16,-1010.56 1687.71,-989.9 1670,-977.63 1623.31,-945.29 1451.23,-958.78 1375.58,-966.56"/>
<polygon fill="#000000" stroke="#000000" points="1375.15,-963.09 1365.57,-967.62 1375.88,-970.05 1375.15,-963.09"/>
<text text-anchor="middle" x="1966" y="-1174.03" font-family="Times,serif" font-size="32.00">fear |</text>
<text text-anchor="middle" x="1966" y="-1139.03" font-family="Times,serif" font-size="32.00"> neglect |</text>
<text text-anchor="middle" x="1966" y="-1104.03" font-family="Times,serif" font-size="32.00"> scorn |</text>
<text text-anchor="middle" x="1966" y="-1069.03" font-family="Times,serif" font-size="32.00"> respect</text>
<text text-anchor="middle" x="1966" y="-1034.03" font-family="Times,serif" font-size="32.00">=d *k 1</text>
</g>
<!-- 2 -->
<g id="node17" class="node">
<title>2</title>
<ellipse fill="none" stroke="black" cx="1773.5" cy="-439.63" rx="27" ry="30.31"/>
<text text-anchor="middle" x="1773.5" y="-431.53" font-family="Times,serif" font-size="32.00">2</text>
</g>
<!-- d&#45;&gt;2 -->
<g id="edge47" class="edge">
<title>d&#45;&gt;2</title>
<path fill="none" stroke="#000000" d="M2510.63,-823.52C2502.12,-759.62 2479.32,-613.46 2445.04,-578.63 2399.47,-532.33 1942.88,-463.76 1810.37,-444.71"/>
<polygon fill="#000000" stroke="#000000" points="1810.73,-441.22 1800.33,-443.27 1809.74,-448.15 1810.73,-441.22"/>
<text text-anchor="middle" x="2134.52" y="-551.03" font-family="Times,serif" font-size="32.00">disdain</text>
<text text-anchor="middle" x="2134.52" y="-516.03" font-family="Times,serif" font-size="32.00">=d *k 2</text>
</g>
<!-- 3 -->
<g id="node18" class="node">
<title>3</title>
<ellipse fill="none" stroke="black" cx="1773.5" cy="-1422.63" rx="27" ry="30.31"/>
<text text-anchor="middle" x="1773.5" y="-1414.53" font-family="Times,serif" font-size="32.00">3</text>
</g>
<!-- d&#45;&gt;3 -->
<g id="edge53" class="edge">
<title>d&#45;&gt;3</title>
<path fill="none" stroke="#000000" d="M2514.88,-884.25C2515.85,-983.24 2513.27,-1292.08 2445.04,-1357.63 2265.49,-1530.13 1920.87,-1460.69 1809.88,-1432.4"/>
<polygon fill="#000000" stroke="#000000" points="1810.44,-1428.93 1799.88,-1429.8 1808.68,-1435.71 1810.44,-1428.93"/>
<text text-anchor="middle" x="2134.52" y="-1515.03" font-family="Times,serif" font-size="32.00">doubt</text>
<text text-anchor="middle" x="2134.52" y="-1480.03" font-family="Times,serif" font-size="32.00">=d *k 3</text>
</g>
<!-- for&#45;&gt;d -->
<g id="edge25" class="edge">
<title>for&#45;&gt;d</title>
<path fill="none" stroke="#000000" d="M2813.34,-429.49C2804.35,-436.96 2793.64,-444.62 2782.69,-449.63 2701.61,-486.76 2648.63,-424.48 2585.69,-487.63 2540.44,-533.04 2523.7,-727.58 2518.45,-813.07"/>
<polygon fill="#000000" stroke="#000000" points="2514.95,-812.99 2517.85,-823.18 2521.93,-813.4 2514.95,-812.99"/>
<text text-anchor="middle" x="2684.19" y="-602.03" font-family="Times,serif" font-size="32.00">hope_3 |</text>
<text text-anchor="middle" x="2684.19" y="-567.03" font-family="Times,serif" font-size="32.00"> respect_1 |</text>
<text text-anchor="middle" x="2684.19" y="-532.03" font-family="Times,serif" font-size="32.00"> disdain_1</text>
<text text-anchor="middle" x="2684.19" y="-497.03" font-family="Times,serif" font-size="32.00">=for poss= d &#45;k</text>
</g>
<!-- 0 -->
<g id="node11" class="node">
<title>0</title>
<ellipse fill="none" stroke="black" cx="941" cy="-1196.63" rx="27" ry="30.31"/>
<text text-anchor="middle" x="941" y="-1188.53" font-family="Times,serif" font-size="32.00">0</text>
</g>
<!-- for&#45;&gt;0 -->
<g id="edge20" class="edge">
<title>for&#45;&gt;0</title>
<path fill="none" stroke="#000000" d="M2834.93,-437.12C2827.68,-533.82 2804.07,-832.94 2782.69,-927.63 2704.5,-1273.9 2871.34,-1680.63 2516.36,-1680.63 2516.36,-1680.63 2516.36,-1680.63 1563.5,-1680.63 1313.38,-1680.63 1174.5,-1679.4 1043,-1466.63 1020.41,-1430.08 1038.32,-1412.49 1025,-1371.63 1008.43,-1320.79 980.41,-1265.57 961.57,-1231.04"/>
<polygon fill="#000000" stroke="#000000" points="964.4,-1228.94 956.51,-1221.87 958.27,-1232.32 964.4,-1228.94"/>
<text text-anchor="middle" x="1966" y="-1725.03" font-family="Times,serif" font-size="32.00">hope</text>
<text text-anchor="middle" x="1966" y="-1690.03" font-family="Times,serif" font-size="32.00">=for 0</text>
</g>
<!-- a -->
<g id="node12" class="node">
<title>a</title>
<ellipse fill="none" stroke="black" cx="1773.5" cy="-776.63" rx="27" ry="30.31"/>
<text text-anchor="middle" x="1773.5" y="-768.53" font-family="Times,serif" font-size="32.00">a</text>
</g>
<!-- for&#45;&gt;a -->
<g id="edge26" class="edge">
<title>for&#45;&gt;a</title>
<path fill="none" stroke="#000000" d="M2800.67,-405.55C2704.11,-403.3 2434.29,-401.17 2214.04,-438.63 2060.13,-464.82 1978.99,-419.43 1877,-537.63 1839.18,-581.46 1881.37,-613.24 1859,-666.63 1845.71,-698.34 1820.97,-728.89 1801.67,-749.72"/>
<polygon fill="#000000" stroke="#000000" points="1798.92,-747.54 1794.58,-757.21 1804,-752.35 1798.92,-747.54"/>
<text text-anchor="middle" x="2329.54" y="-483.03" font-family="Times,serif" font-size="32.00">hopeful</text>
<text text-anchor="middle" x="2329.54" y="-448.03" font-family="Times,serif" font-size="32.00">=for a</text>
</g>
<!-- for&#45;&gt;1 -->
<g id="edge21" class="edge">
<title>for&#45;&gt;1</title>
<path fill="none" stroke="#000000" d="M2801.11,-401.18C2668.61,-381.7 2209.29,-319.29 2073,-368.63 2063.21,-372.18 2064.04,-378.46 2055,-383.63 1982.04,-425.4 1941.57,-393.8 1877,-447.63 1864.76,-457.84 1867.39,-465.09 1859,-478.63 1786.34,-595.88 1745.36,-612.19 1688,-737.63 1675.71,-764.51 1692.33,-782.28 1670,-801.63 1598.52,-863.6 1527.09,-763.97 1459,-829.63 1424.6,-862.81 1471.91,-899.19 1441,-935.63 1424.87,-954.66 1397.87,-963.35 1375.77,-967.33"/>
<polygon fill="#000000" stroke="#000000" points="1375.05,-963.89 1365.7,-968.88 1376.12,-970.81 1375.05,-963.89"/>
<text text-anchor="middle" x="2134.52" y="-413.03" font-family="Times,serif" font-size="32.00">hope_1</text>
<text text-anchor="middle" x="2134.52" y="-378.03" font-family="Times,serif" font-size="32.00">=for 1</text>
</g>
<!-- v -->
<g id="node14" class="node">
<title>v</title>
<ellipse fill="none" stroke="black" cx="248.5" cy="-808.63" rx="27" ry="30.31"/>
<text text-anchor="middle" x="248.5" y="-800.53" font-family="Times,serif" font-size="32.00">v</text>
</g>
<!-- for&#45;&gt;v -->
<g id="edge22" class="edge">
<title>for&#45;&gt;v</title>
<path fill="none" stroke="#000000" d="M2829.22,-376.63C2821.38,-353.17 2806.97,-321.76 2782.69,-304.63 2254.99,67.47 1985.2,-137.63 1339.5,-137.63 1339.5,-137.63 1339.5,-137.63 600,-137.63 465.83,-137.63 403.16,-161.53 331,-274.63 301.16,-321.41 342.07,-726.38 313,-773.63 306.4,-784.36 295.27,-792.04 284.15,-797.43"/>
<polygon fill="#000000" stroke="#000000" points="282.7,-794.24 274.92,-801.43 285.49,-800.67 282.7,-794.24"/>
<text text-anchor="middle" x="1564.5" y="-180.03" font-family="Times,serif" font-size="32.00">hope_2</text>
<text text-anchor="middle" x="1564.5" y="-145.03" font-family="Times,serif" font-size="32.00">=for =da v</text>
</g>
<!-- perf -->
<g id="node15" class="node">
<title>perf</title>
<ellipse fill="none" stroke="black" cx="601" cy="-576.63" rx="48.17" ry="30.31"/>
<text text-anchor="middle" x="601" y="-568.53" font-family="Times,serif" font-size="32.00">perf</text>
</g>
<!-- for&#45;&gt;perf -->
<g id="edge24" class="edge">
<title>for&#45;&gt;perf</title>
<path fill="none" stroke="#000000" d="M2828.33,-377.12C2820.04,-354.25 2805.46,-323.41 2782.69,-304.63 2687.13,-225.85 2640.21,-222.63 2516.36,-222.63 2516.36,-222.63 2516.36,-222.63 940,-222.63 767.24,-222.63 655.71,-445.9 617.11,-537.81"/>
<polygon fill="#000000" stroke="#000000" points="613.87,-536.48 613.29,-547.06 620.34,-539.16 613.87,-536.48"/>
<text text-anchor="middle" x="1773.5" y="-267.03" font-family="Times,serif" font-size="32.00">hopen</text>
<text text-anchor="middle" x="1773.5" y="-232.03" font-family="Times,serif" font-size="32.00">=for =da perf</text>
</g>
<!-- prog -->
<g id="node16" class="node">
<title>prog</title>
<ellipse fill="none" stroke="black" cx="941" cy="-694.63" rx="52.15" ry="30.31"/>
<text text-anchor="middle" x="941" y="-686.53" font-family="Times,serif" font-size="32.00">prog</text>
</g>
<!-- for&#45;&gt;prog -->
<g id="edge23" class="edge">
<title>for&#45;&gt;prog</title>
<path fill="none" stroke="#000000" d="M2811.5,-385.24C2802.86,-379.15 2792.82,-373.21 2782.69,-369.63 2402.3,-235.31 2275.81,-248.86 1877,-309.63 1581.97,-354.59 1435.42,-287.61 1236,-509.63 1208.45,-540.31 1247.2,-571.53 1218,-600.63 1161.88,-656.57 1117.04,-606.43 1043,-634.63 1022.39,-642.49 1001.17,-654.41 983.53,-665.57"/>
<polygon fill="#000000" stroke="#000000" points="981.15,-662.94 974.65,-671.31 984.95,-668.82 981.15,-662.94"/>
<text text-anchor="middle" x="1966" y="-354.03" font-family="Times,serif" font-size="32.00">hopeing</text>
<text text-anchor="middle" x="1966" y="-319.03" font-family="Times,serif" font-size="32.00">=for =da prog</text>
</g>
<!-- of&#45;&gt;d -->
<g id="edge32" class="edge">
<title>of&#45;&gt;d</title>
<path fill="none" stroke="#000000" d="M2163.31,-610.27C2221.98,-590.35 2360.07,-554.04 2445.04,-617.63 2476.47,-641.16 2498.51,-752.63 2508.44,-813.58"/>
<polygon fill="#000000" stroke="#000000" points="2505.01,-814.3 2510.04,-823.63 2511.92,-813.2 2505.01,-814.3"/>
<text text-anchor="middle" x="2329.54" y="-802.03" font-family="Times,serif" font-size="32.00">boast_3 |</text>
<text text-anchor="middle" x="2329.54" y="-767.03" font-family="Times,serif" font-size="32.00"> fear_1 |</text>
<text text-anchor="middle" x="2329.54" y="-732.03" font-family="Times,serif" font-size="32.00"> neglect_1 |</text>
<text text-anchor="middle" x="2329.54" y="-697.03" font-family="Times,serif" font-size="32.00"> scorn_1 |</text>
<text text-anchor="middle" x="2329.54" y="-662.03" font-family="Times,serif" font-size="32.00"> doubt_1</text>
<text text-anchor="middle" x="2329.54" y="-627.03" font-family="Times,serif" font-size="32.00">=of poss= d &#45;k</text>
</g>
<!-- of&#45;&gt;0 -->
<g id="edge27" class="edge">
<title>of&#45;&gt;0</title>
<path fill="none" stroke="#000000" d="M2131.4,-650.89C2125.17,-730.52 2104.2,-943 2055,-989.63 1996.87,-1044.72 1953.27,-993.22 1877,-1017.63 1868.48,-1020.36 1867.17,-1023 1859,-1026.63 1784.42,-1059.81 1752.96,-1044.21 1688,-1093.63 1677.39,-1101.71 1681.65,-1111.14 1670,-1117.63 1587.76,-1163.48 1542.19,-1092.54 1459,-1136.63 1447.84,-1142.55 1452.2,-1152.79 1441,-1158.63 1400.27,-1179.87 1086.36,-1191.95 978.36,-1195.51"/>
<polygon fill="#000000" stroke="#000000" points="978.16,-1192.02 968.28,-1195.84 978.38,-1199.01 978.16,-1192.02"/>
<text text-anchor="middle" x="1564.5" y="-1181.03" font-family="Times,serif" font-size="32.00">boast</text>
<text text-anchor="middle" x="1564.5" y="-1146.03" font-family="Times,serif" font-size="32.00">=of 0</text>
</g>
<!-- of&#45;&gt;a -->
<g id="edge33" class="edge">
<title>of&#45;&gt;a</title>
<path fill="none" stroke="#000000" d="M2108.77,-604.39C2097.44,-596.53 2084.1,-586.63 2073,-576.63 2064.12,-568.63 2065.92,-561.5 2055,-556.63 2018.87,-540.54 1907.14,-531.02 1877,-556.63 1839.25,-588.71 1878.68,-621.17 1859,-666.63 1845.34,-698.18 1820.64,-728.75 1801.46,-749.63"/>
<polygon fill="#000000" stroke="#000000" points="1798.7,-747.45 1794.41,-757.13 1803.8,-752.24 1798.7,-747.45"/>
<text text-anchor="middle" x="1966" y="-811.03" font-family="Times,serif" font-size="32.00">boastful |</text>
<text text-anchor="middle" x="1966" y="-776.03" font-family="Times,serif" font-size="32.00"> fearful |</text>
<text text-anchor="middle" x="1966" y="-741.03" font-family="Times,serif" font-size="32.00"> neglectful |</text>
<text text-anchor="middle" x="1966" y="-706.03" font-family="Times,serif" font-size="32.00"> scornful |</text>
<text text-anchor="middle" x="1966" y="-671.03" font-family="Times,serif" font-size="32.00"> respectful |</text>
<text text-anchor="middle" x="1966" y="-636.03" font-family="Times,serif" font-size="32.00"> disdainful |</text>
<text text-anchor="middle" x="1966" y="-601.03" font-family="Times,serif" font-size="32.00"> doubtful</text>
<text text-anchor="middle" x="1966" y="-566.03" font-family="Times,serif" font-size="32.00">=of a</text>
</g>
<!-- of&#45;&gt;1 -->
<g id="edge28" class="edge">
<title>of&#45;&gt;1</title>
<path fill="none" stroke="#000000" d="M2131.3,-650.93C2125.01,-727.48 2104.21,-925.39 2055,-964.63 1993.15,-1013.96 1952.72,-987.56 1877,-964.63 1867.8,-961.85 1868.2,-955.42 1859,-952.63 1688.85,-901.12 1636.28,-939.36 1459,-952.63 1430.75,-954.75 1399.06,-959.64 1375.41,-963.79"/>
<polygon fill="#000000" stroke="#000000" points="1374.71,-960.36 1365.48,-965.57 1375.94,-967.25 1374.71,-960.36"/>
<text text-anchor="middle" x="1773.5" y="-997.03" font-family="Times,serif" font-size="32.00">boast_1</text>
<text text-anchor="middle" x="1773.5" y="-962.03" font-family="Times,serif" font-size="32.00">=of 1</text>
</g>
<!-- of&#45;&gt;v -->
<g id="edge29" class="edge">
<title>of&#45;&gt;v</title>
<path fill="none" stroke="#000000" d="M2106.39,-608.28C2094.57,-601.63 2081.49,-592.37 2073,-580.63 2055.17,-556 2078.23,-534.25 2055,-514.63 1992.38,-461.77 1769.17,-489.87 1688,-478.63 1485.84,-450.65 1396.32,-523.93 1236,-397.63 1220.37,-385.32 1234.66,-367.52 1218,-356.63 1152.88,-314.1 1109.63,-316.52 1043,-356.63 1028.35,-365.45 1038.44,-380.06 1025,-390.63 908.94,-481.95 844.39,-430.01 703,-472.63 619.16,-497.91 599.32,-507.77 517,-537.63 433.97,-567.76 385.12,-537.83 331,-607.63 285.53,-666.29 354.14,-711.87 313,-773.63 306.15,-783.93 295.2,-791.47 284.32,-796.87"/>
<polygon fill="#000000" stroke="#000000" points="282.59,-793.81 274.87,-801.07 285.43,-800.2 282.59,-793.81"/>
<text text-anchor="middle" x="1130.5" y="-401.03" font-family="Times,serif" font-size="32.00">boast_2</text>
<text text-anchor="middle" x="1130.5" y="-366.03" font-family="Times,serif" font-size="32.00">=of =da v</text>
</g>
<!-- of&#45;&gt;perf -->
<g id="edge31" class="edge">
<title>of&#45;&gt;perf</title>
<path fill="none" stroke="#000000" d="M2106.29,-608.74C2094.29,-602.14 2081.1,-592.79 2073,-580.63 2049.41,-545.24 2081.52,-519.89 2055,-486.63 1995.68,-412.26 1950.83,-425.45 1859,-400.63 1507.49,-305.65 1385.37,-203.68 1043,-327.63 1033.21,-331.18 1033.94,-337.29 1025,-342.63 892.56,-421.88 831.08,-386.53 703,-472.63 674.91,-491.52 648.46,-519.26 629.68,-541.35"/>
<polygon fill="#000000" stroke="#000000" points="626.84,-539.28 623.12,-549.2 632.21,-543.77 626.84,-539.28"/>
<text text-anchor="middle" x="1338.5" y="-325.03" font-family="Times,serif" font-size="32.00">boastn</text>
<text text-anchor="middle" x="1338.5" y="-290.03" font-family="Times,serif" font-size="32.00">=of =da perf</text>
</g>
<!-- of&#45;&gt;prog -->
<g id="edge30" class="edge">
<title>of&#45;&gt;prog</title>
<path fill="none" stroke="#000000" d="M2106.77,-607.57C2095.16,-600.83 2082.16,-591.69 2073,-580.63 2059.79,-564.68 2072.25,-549.11 2055,-537.63 1989.14,-493.81 1956.09,-535.74 1877,-537.63 1784.03,-539.86 1529.42,-496.9 1459,-557.63 1427.78,-584.56 1471.64,-621.05 1441,-648.63 1408,-678.34 1087.2,-680.45 1043,-684.63 1029.93,-685.87 1015.91,-687.24 1002.61,-688.55"/>
<polygon fill="#000000" stroke="#000000" points="1002.2,-685.07 992.6,-689.54 1002.89,-692.04 1002.2,-685.07"/>
<text text-anchor="middle" x="1564.5" y="-602.03" font-family="Times,serif" font-size="32.00">boasting</text>
<text text-anchor="middle" x="1564.5" y="-567.03" font-family="Times,serif" font-size="32.00">=of =da prog</text>
</g>
<!-- about&#45;&gt;d -->
<g id="edge39" class="edge">
<title>about&#45;&gt;d</title>
<path fill="none" stroke="#000000" d="M2194.27,-1246.27C2263.75,-1251.75 2378.37,-1249.09 2445.04,-1184.63 2486.24,-1144.8 2504.92,-973.21 2511.46,-894"/>
<polygon fill="#000000" stroke="#000000" points="2514.96,-894.15 2512.27,-883.91 2507.98,-893.59 2514.96,-894.15"/>
<text text-anchor="middle" x="2329.54" y="-1328.03" font-family="Times,serif" font-size="32.00">boast_7 |</text>
<text text-anchor="middle" x="2329.54" y="-1293.03" font-family="Times,serif" font-size="32.00"> doubt_2</text>
<text text-anchor="middle" x="2329.54" y="-1258.03" font-family="Times,serif" font-size="32.00">=about poss= d &#45;k</text>
</g>
<!-- about&#45;&gt;0 -->
<g id="edge34" class="edge">
<title>about&#45;&gt;0</title>
<path fill="none" stroke="#000000" d="M2085.43,-1257.14C2075.49,-1260.41 2065,-1263.45 2055,-1265.63 1887.01,-1302.28 1841.73,-1295.18 1670,-1303.63 1576.34,-1308.25 1532.31,-1362.12 1459,-1303.63 1430.85,-1281.18 1468.51,-1247.87 1441,-1224.63 1423.36,-1209.74 1089.99,-1200.25 978.2,-1197.48"/>
<polygon fill="#000000" stroke="#000000" points="978.17,-1193.98 968.09,-1197.23 978,-1200.98 978.17,-1193.98"/>
<text text-anchor="middle" x="1564.5" y="-1376.03" font-family="Times,serif" font-size="32.00">boast_4</text>
<text text-anchor="middle" x="1564.5" y="-1341.03" font-family="Times,serif" font-size="32.00">=about 0</text>
</g>
<!-- about&#45;&gt;a -->
<g id="edge40" class="edge">
<title>about&#45;&gt;a</title>
<path fill="none" stroke="#000000" d="M2129.83,-1208.26C2120.49,-1135.7 2093.81,-954.97 2055,-909.63 1999.4,-844.68 1953.64,-874.55 1877,-836.63 1852.64,-824.58 1826.19,-809.04 1806.26,-796.79"/>
<polygon fill="#000000" stroke="#000000" points="1807.94,-793.71 1797.6,-791.42 1804.25,-799.66 1807.94,-793.71"/>
<text text-anchor="middle" x="1966" y="-989.03" font-family="Times,serif" font-size="32.00">boastful_1 |</text>
<text text-anchor="middle" x="1966" y="-954.03" font-family="Times,serif" font-size="32.00"> doubtful_1</text>
<text text-anchor="middle" x="1966" y="-919.03" font-family="Times,serif" font-size="32.00">=about a</text>
</g>
<!-- about&#45;&gt;1 -->
<g id="edge35" class="edge">
<title>about&#45;&gt;1</title>
<path fill="none" stroke="#000000" d="M2072.96,-1239.83C2006.8,-1239.89 1906.29,-1235.94 1877,-1212.63 1857.53,-1197.14 1874.36,-1179.21 1859,-1159.63 1803.36,-1088.73 1752.93,-1113.14 1688,-1050.63 1677.87,-1040.89 1681.88,-1032.14 1670,-1024.63 1621.52,-993.99 1451.46,-978.51 1376.02,-973.02"/>
<polygon fill="#000000" stroke="#000000" points="1375.82,-969.49 1365.6,-972.28 1375.33,-976.48 1375.82,-969.49"/>
<text text-anchor="middle" x="1773.5" y="-1204.03" font-family="Times,serif" font-size="32.00">boast_5</text>
<text text-anchor="middle" x="1773.5" y="-1169.03" font-family="Times,serif" font-size="32.00">=about 1</text>
</g>
<!-- about&#45;&gt;v -->
<g id="edge36" class="edge">
<title>about&#45;&gt;v</title>
<path fill="none" stroke="#000000" d="M2125.48,-1268.9C2114.67,-1304.55 2092.37,-1363.71 2055,-1401.63 1986.64,-1471.01 1949.98,-1464.87 1859,-1499.63 1442.32,-1658.83 1246.37,-1774.24 857,-1556.63 652.44,-1442.31 608.61,-1369.33 517,-1153.63 501.72,-1117.65 525.76,-1007.13 499,-978.63 447.18,-923.46 393.15,-993.84 331,-950.63 295.36,-925.86 273.24,-880.12 261.19,-847.24"/>
<polygon fill="#000000" stroke="#000000" points="264.38,-845.76 257.77,-837.48 257.78,-848.08 264.38,-845.76"/>
<text text-anchor="middle" x="1130.5" y="-1719.03" font-family="Times,serif" font-size="32.00">boast_6</text>
<text text-anchor="middle" x="1130.5" y="-1684.03" font-family="Times,serif" font-size="32.00">=about =da v</text>
</g>
<!-- about&#45;&gt;perf -->
<g id="edge38" class="edge">
<title>about&#45;&gt;perf</title>
<path fill="none" stroke="#000000" d="M2108.68,-1266.63C2063.97,-1315.04 1964.73,-1413.79 1859,-1461.63 1693.65,-1536.46 1207.01,-1573.35 1043,-1495.63 1031.58,-1490.22 1033.37,-1483.1 1025,-1473.63 887.75,-1318.47 784.65,-1327.02 703,-1136.63 669.86,-1059.35 704.8,-840.36 685,-758.63 672.24,-705.96 644.19,-649.88 624.24,-614.11"/>
<polygon fill="#000000" stroke="#000000" points="627.07,-612.01 619.1,-605.03 620.98,-615.45 627.07,-612.01"/>
<text text-anchor="middle" x="1338.5" y="-1584.03" font-family="Times,serif" font-size="32.00">boastn_1</text>
<text text-anchor="middle" x="1338.5" y="-1549.03" font-family="Times,serif" font-size="32.00">=about =da perf</text>
</g>
<!-- about&#45;&gt;prog -->
<g id="edge37" class="edge">
<title>about&#45;&gt;prog</title>
<path fill="none" stroke="#000000" d="M2074.87,-1246.69C1966.76,-1260.1 1742.11,-1280.78 1688,-1229.63 1658.46,-1201.72 1698.9,-1076.21 1670,-1047.63 1601.16,-979.56 1304.9,-1077.65 1236,-1009.63 1207.55,-981.55 1245.43,-859.72 1218,-830.63 1163.95,-773.33 1102.04,-854.78 1043,-802.63 1021.49,-783.64 1042.9,-763.06 1025,-740.63 1016.89,-730.47 1005.89,-722.21 994.56,-715.63"/>
<polygon fill="#000000" stroke="#000000" points="995.91,-712.38 985.45,-710.72 992.59,-718.55 995.91,-712.38"/>
<text text-anchor="middle" x="1564.5" y="-1092.03" font-family="Times,serif" font-size="32.00">boasting_1</text>
<text text-anchor="middle" x="1564.5" y="-1057.03" font-family="Times,serif" font-size="32.00">=about =da prog</text>
</g>
<!-- 0&#45;&gt;t -->
<g id="edge7" class="edge">
<title>0&#45;&gt;t</title>
<path fill="none" stroke="#000000" d="M914.63,-1203.96C801.18,-1235.04 334.34,-1344.96 72,-1131.63 44.26,-1109.08 33.85,-1068.67 30.03,-1038.1"/>
<polygon fill="#000000" stroke="#000000" points="33.51,-1037.73 28.97,-1028.16 26.55,-1038.47 33.51,-1037.73"/>
<text text-anchor="middle" x="415" y="-1305.03" font-family="Times,serif" font-size="32.00">s</text>
<text text-anchor="middle" x="415" y="-1270.03" font-family="Times,serif" font-size="32.00">=&gt;0 =da +k t</text>
</g>
<!-- a&#45;&gt;0 -->
<g id="edge8" class="edge">
<title>a&#45;&gt;0</title>
<path fill="none" stroke="#000000" d="M1760.82,-803.49C1744.9,-837.18 1713.32,-894.64 1670,-928.63 1629.57,-960.36 1271.66,-1051.63 1236,-1088.63 1218.15,-1107.15 1237.56,-1126.94 1218,-1143.63 1158.09,-1194.77 1120.19,-1155.94 1043,-1171.63 1021.09,-1176.09 996.76,-1182.08 977.47,-1187.08"/>
<polygon fill="#000000" stroke="#000000" points="976.39,-1183.75 967.6,-1189.67 978.16,-1190.52 976.39,-1183.75"/>
<text text-anchor="middle" x="1338.5" y="-1133.03" font-family="Times,serif" font-size="32.00">be</text>
<text text-anchor="middle" x="1338.5" y="-1098.03" font-family="Times,serif" font-size="32.00">=a 0</text>
</g>
<!-- a&#45;&gt;1 -->
<g id="edge10" class="edge">
<title>a&#45;&gt;1</title>
<path fill="none" stroke="#000000" d="M1749.51,-791.59C1729.39,-803.92 1698.92,-820.77 1670,-829.63 1624.86,-843.48 1494.44,-823.43 1459,-854.63 1434.24,-876.43 1462.33,-901.48 1441,-926.63 1424.3,-946.32 1397.16,-957.47 1375.14,-963.61"/>
<polygon fill="#000000" stroke="#000000" points="1374.26,-960.22 1365.44,-966.09 1376,-967 1374.26,-960.22"/>
<text text-anchor="middle" x="1564.5" y="-899.03" font-family="Times,serif" font-size="32.00">be_1</text>
<text text-anchor="middle" x="1564.5" y="-864.03" font-family="Times,serif" font-size="32.00">=a 1</text>
</g>
<!-- a&#45;&gt;v -->
<g id="edge11" class="edge">
<title>a&#45;&gt;v</title>
<path fill="none" stroke="#000000" d="M1746.51,-778.48C1668.9,-784.03 1432.02,-801.45 1236,-820.63 917.5,-851.8 835.61,-889.74 517,-859.63 432.89,-851.69 335.87,-829.99 284.94,-817.61"/>
<polygon fill="#000000" stroke="#000000" points="285.64,-814.17 275.09,-815.19 283.97,-820.97 285.64,-814.17"/>
<text text-anchor="middle" x="941" y="-910.03" font-family="Times,serif" font-size="32.00">be_2</text>
<text text-anchor="middle" x="941" y="-875.03" font-family="Times,serif" font-size="32.00">=a =da v</text>
</g>
<!-- a&#45;&gt;perf -->
<g id="edge12" class="edge">
<title>a&#45;&gt;perf</title>
<path fill="none" stroke="#000000" d="M1746.95,-769.92C1726.3,-764.67 1696.43,-757.47 1670,-752.63 1623.47,-744.12 1491.8,-758.72 1459,-724.63 1429.29,-693.76 1472.68,-561.49 1441,-532.63 1383.38,-480.16 837.18,-545.97 658.37,-569.14"/>
<polygon fill="#000000" stroke="#000000" points="657.84,-565.68 648.37,-570.44 658.74,-572.62 657.84,-565.68"/>
<text text-anchor="middle" x="1130.5" y="-571.03" font-family="Times,serif" font-size="32.00">ben</text>
<text text-anchor="middle" x="1130.5" y="-536.03" font-family="Times,serif" font-size="32.00">=a =da perf</text>
</g>
<!-- a&#45;&gt;prog -->
<g id="edge13" class="edge">
<title>a&#45;&gt;prog</title>
<path fill="none" stroke="#000000" d="M1746.35,-777.23C1680.07,-778.31 1507.31,-778.22 1459,-749.63 1446.59,-742.29 1453.52,-729.79 1441,-722.63 1368.07,-680.93 1119.93,-686.3 1003.39,-691.39"/>
<polygon fill="#000000" stroke="#000000" points="1003.04,-687.9 993.21,-691.85 1003.36,-694.89 1003.04,-687.9"/>
<text text-anchor="middle" x="1338.5" y="-767.03" font-family="Times,serif" font-size="32.00">being</text>
<text text-anchor="middle" x="1338.5" y="-732.03" font-family="Times,serif" font-size="32.00">=a =da prog</text>
</g>
<!-- 1&#45;&gt;t -->
<g id="edge9" class="edge">
<title>1&#45;&gt;t</title>
<path fill="none" stroke="#000000" d="M1311.8,-977.15C1197.14,-1005.38 720.79,-1113.69 331,-1068.63 232.22,-1057.22 118.86,-1025.52 62.95,-1008.6"/>
<polygon fill="#000000" stroke="#000000" points="63.78,-1005.2 53.19,-1005.62 61.73,-1011.89 63.78,-1005.2"/>
<text text-anchor="middle" x="601" y="-1124.03" font-family="Times,serif" font-size="32.00">d</text>
<text text-anchor="middle" x="601" y="-1089.03" font-family="Times,serif" font-size="32.00">=&gt;1 =da +k t</text>
</g>
<!-- 1&#45;&gt;0 -->
<g id="edge41" class="edge">
<title>1&#45;&gt;0</title>
<path fill="none" stroke="#000000" d="M1316.72,-988.96C1294.12,-1007.78 1256.08,-1036.29 1218,-1050.63 1144.59,-1078.29 1111.58,-1035.55 1043,-1073.63 1006.49,-1093.91 977.89,-1133.12 960.58,-1161.84"/>
<polygon fill="#000000" stroke="#000000" points="957.39,-1160.36 955.36,-1170.76 963.43,-1163.89 957.39,-1160.36"/>
<text text-anchor="middle" x="1130.5" y="-1118.03" font-family="Times,serif" font-size="32.00">ε_0</text>
<text text-anchor="middle" x="1130.5" y="-1083.03" font-family="Times,serif" font-size="32.00">=&gt;1 0</text>
</g>
<!-- 1&#45;&gt;v -->
<g id="edge43" class="edge">
<title>1&#45;&gt;v</title>
<path fill="none" stroke="#000000" d="M1311.26,-969.9C1161.81,-965.56 421.47,-941.95 331,-897.63 305.81,-885.3 284.68,-861.52 270.25,-841.65"/>
<polygon fill="#000000" stroke="#000000" points="273.09,-839.6 264.48,-833.42 267.35,-843.61 273.09,-839.6"/>
<text text-anchor="middle" x="771" y="-996.03" font-family="Times,serif" font-size="32.00">ε_1</text>
<text text-anchor="middle" x="771" y="-961.03" font-family="Times,serif" font-size="32.00">=&gt;1 =da v</text>
</g>
<!-- 1&#45;&gt;perf -->
<g id="edge45" class="edge">
<title>1&#45;&gt;perf</title>
<path fill="none" stroke="#000000" d="M1312.83,-961.13C1291.98,-952.81 1261.52,-940.01 1236,-926.63 1146.53,-879.75 1112.84,-879.61 1043,-806.63 1031.72,-794.85 1038.49,-783.81 1025,-774.63 905.55,-693.42 825.14,-807.73 703,-730.63 660.43,-703.77 632.03,-651.7 616.46,-615.6"/>
<polygon fill="#000000" stroke="#000000" points="619.67,-614.21 612.59,-606.33 613.21,-616.9 619.67,-614.21"/>
<text text-anchor="middle" x="941" y="-819.03" font-family="Times,serif" font-size="32.00">n</text>
<text text-anchor="middle" x="941" y="-784.03" font-family="Times,serif" font-size="32.00">=&gt;1 =da perf</text>
</g>
<!-- 1&#45;&gt;prog -->
<g id="edge44" class="edge">
<title>1&#45;&gt;prog</title>
<path fill="none" stroke="#000000" d="M1311.64,-966.94C1287.86,-962.07 1253.69,-951.05 1236,-926.63 1210.59,-891.58 1248.03,-763.83 1218,-732.63 1190.8,-704.38 1081.84,-715.07 1043,-709.63 1029.71,-707.77 1015.45,-705.7 1001.95,-703.71"/>
<polygon fill="#000000" stroke="#000000" points="1002.21,-700.21 991.81,-702.2 1001.18,-707.13 1002.21,-700.21"/>
<text text-anchor="middle" x="1130.5" y="-777.03" font-family="Times,serif" font-size="32.00">ing</text>
<text text-anchor="middle" x="1130.5" y="-742.03" font-family="Times,serif" font-size="32.00">=&gt;1 =da prog</text>
</g>
<!-- v&#45;&gt;t -->
<g id="edge14" class="edge">
<title>v&#45;&gt;t</title>
<path fill="none" stroke="#000000" d="M221.49,-812.25C183.63,-818.83 113.33,-836.24 72,-878.63 51.19,-899.98 40.08,-932.02 34.24,-957.48"/>
<polygon fill="#000000" stroke="#000000" points="30.75,-957.08 32.11,-967.58 37.6,-958.52 30.75,-957.08"/>
<text text-anchor="middle" x="119" y="-958.03" font-family="Times,serif" font-size="32.00">wills |</text>
<text text-anchor="middle" x="119" y="-923.03" font-family="Times,serif" font-size="32.00"> willd</text>
<text text-anchor="middle" x="119" y="-888.03" font-family="Times,serif" font-size="32.00">=v +k t</text>
</g>
<!-- perf&#45;&gt;t -->
<g id="edge15" class="edge">
<title>perf&#45;&gt;t</title>
<path fill="none" stroke="#000000" d="M553.04,-573.97C469.73,-571.72 294.48,-578.53 184,-664.63 116.11,-717.55 108,-744.45 72,-822.63 51.79,-866.53 39.96,-921.08 33.75,-957.49"/>
<polygon fill="#000000" stroke="#000000" points="30.23,-957.28 32.07,-967.72 37.14,-958.42 30.23,-957.28"/>
<text text-anchor="middle" x="248.5" y="-744.03" font-family="Times,serif" font-size="32.00">haves |</text>
<text text-anchor="middle" x="248.5" y="-709.03" font-family="Times,serif" font-size="32.00"> haved</text>
<text text-anchor="middle" x="248.5" y="-674.03" font-family="Times,serif" font-size="32.00">=perf +k t</text>
</g>
<!-- perf&#45;&gt;v -->
<g id="edge16" class="edge">
<title>perf&#45;&gt;v</title>
<path fill="none" stroke="#000000" d="M556.86,-589.45C500.57,-607.69 401.02,-645.31 331,-701.63 305.78,-721.92 283.98,-751.61 269.29,-774.57"/>
<polygon fill="#000000" stroke="#000000" points="266.15,-772.98 263.82,-783.32 272.09,-776.69 266.15,-772.98"/>
<text text-anchor="middle" x="415" y="-746.03" font-family="Times,serif" font-size="32.00">have</text>
<text text-anchor="middle" x="415" y="-711.03" font-family="Times,serif" font-size="32.00">=perf v</text>
</g>
<!-- prog&#45;&gt;t -->
<g id="edge17" class="edge">
<title>prog&#45;&gt;t</title>
<path fill="none" stroke="#000000" d="M900.18,-713.79C886.01,-721.35 870.29,-730.62 857,-740.63 847.96,-747.44 847.78,-751.5 839,-758.63 775.51,-810.29 760.15,-827.2 685,-859.63 461.76,-956 166.06,-986.95 64.25,-995.11"/>
<polygon fill="#000000" stroke="#000000" points="63.88,-991.62 54.18,-995.89 64.42,-998.6 63.88,-991.62"/>
<text text-anchor="middle" x="415" y="-1039.03" font-family="Times,serif" font-size="32.00">bes |</text>
<text text-anchor="middle" x="415" y="-1004.03" font-family="Times,serif" font-size="32.00"> bed</text>
<text text-anchor="middle" x="415" y="-969.03" font-family="Times,serif" font-size="32.00">=prog +k t</text>
</g>
<!-- prog&#45;&gt;v -->
<g id="edge18" class="edge">
<title>prog&#45;&gt;v</title>
<path fill="none" stroke="#000000" d="M897.85,-711.9C879.96,-718.64 858.72,-725.87 839,-730.63 633.19,-780.34 378.78,-800.47 285.74,-806.51"/>
<polygon fill="#000000" stroke="#000000" points="285.47,-803.02 275.72,-807.14 285.92,-810 285.47,-803.02"/>
<text text-anchor="middle" x="601" y="-830.03" font-family="Times,serif" font-size="32.00">be_3</text>
<text text-anchor="middle" x="601" y="-795.03" font-family="Times,serif" font-size="32.00">=prog v</text>
</g>
<!-- prog&#45;&gt;perf -->
<g id="edge19" class="edge">
<title>prog&#45;&gt;perf</title>
<path fill="none" stroke="#000000" d="M895.81,-679.21C833.35,-657.4 719.48,-617.65 653.34,-594.56"/>
<polygon fill="#000000" stroke="#000000" points="654.14,-591.13 643.55,-591.14 651.83,-597.74 654.14,-591.13"/>
<text text-anchor="middle" x="771" y="-701.03" font-family="Times,serif" font-size="32.00">ben_1</text>
<text text-anchor="middle" x="771" y="-666.03" font-family="Times,serif" font-size="32.00">=prog perf</text>
</g>
<!-- 2&#45;&gt;0 -->
<g id="edge46" class="edge">
<title>2&#45;&gt;0</title>
<path fill="none" stroke="#000000" d="M1763.67,-468.16C1750.16,-506.56 1720.49,-573.83 1670,-606.63 1590.67,-658.17 1525.18,-567.03 1459,-634.63 1408.32,-686.4 1486.96,-740.63 1441,-796.63 1380.37,-870.52 1318.19,-812.85 1236,-861.63 1105.77,-938.93 1002.83,-1093.84 961.57,-1162.51"/>
<polygon fill="#000000" stroke="#000000" points="958.49,-1160.84 956.39,-1171.22 964.51,-1164.42 958.49,-1160.84"/>
<text text-anchor="middle" x="1338.5" y="-906.03" font-family="Times,serif" font-size="32.00">ε_2</text>
<text text-anchor="middle" x="1338.5" y="-871.03" font-family="Times,serif" font-size="32.00">=&gt;2 0</text>
</g>
<!-- 2&#45;&gt;1 -->
<g id="edge48" class="edge">
<title>2&#45;&gt;1</title>
<path fill="none" stroke="#000000" d="M1763.66,-468.29C1749.73,-509.27 1719.09,-584.83 1670,-631.63 1594.89,-703.24 1518.46,-646.58 1459,-731.63 1409.13,-802.97 1492.06,-856.15 1441,-926.63 1425.66,-947.81 1397.93,-958.91 1375.32,-964.66"/>
<polygon fill="#000000" stroke="#000000" points="1374.33,-961.29 1365.36,-966.94 1375.89,-968.12 1374.33,-961.29"/>
<text text-anchor="middle" x="1564.5" y="-776.03" font-family="Times,serif" font-size="32.00">ε_3</text>
<text text-anchor="middle" x="1564.5" y="-741.03" font-family="Times,serif" font-size="32.00">=&gt;2 1</text>
</g>
<!-- 2&#45;&gt;v -->
<g id="edge49" class="edge">
<title>2&#45;&gt;v</title>
<path fill="none" stroke="#000000" d="M1746.39,-435.27C1725.67,-431.82 1695.99,-426.89 1670,-422.63 1477.18,-391.1 1402.23,-455.31 1236,-352.63 1224.35,-345.44 1230.07,-334.1 1218,-327.63 1142.33,-287.12 1110.82,-322.19 1025,-320.63 715.04,-315.02 540.66,-162.27 331,-390.63 302.19,-422.02 335.52,-737.47 313,-773.63 306.35,-784.32 295.2,-792 284.09,-797.39"/>
<polygon fill="#000000" stroke="#000000" points="282.64,-794.2 274.86,-801.39 285.43,-800.62 282.64,-794.2"/>
<text text-anchor="middle" x="941" y="-365.03" font-family="Times,serif" font-size="32.00">ε_4</text>
<text text-anchor="middle" x="941" y="-330.03" font-family="Times,serif" font-size="32.00">=&gt;2 =da v</text>
</g>
<!-- 2&#45;&gt;perf -->
<g id="edge51" class="edge">
<title>2&#45;&gt;perf</title>
<path fill="none" stroke="#000000" d="M1746.53,-437.73C1651.88,-431.2 1316.63,-411.89 1043,-443.63 889,-461.5 847.98,-466.72 703,-521.63 682.97,-529.22 661.98,-540.11 644.37,-550.2"/>
<polygon fill="#000000" stroke="#000000" points="642.36,-547.32 635.48,-555.38 645.88,-553.37 642.36,-547.32"/>
<text text-anchor="middle" x="1130.5" y="-488.03" font-family="Times,serif" font-size="32.00">n_1</text>
<text text-anchor="middle" x="1130.5" y="-453.03" font-family="Times,serif" font-size="32.00">=&gt;2 =da perf</text>
</g>
<!-- 2&#45;&gt;prog -->
<g id="edge50" class="edge">
<title>2&#45;&gt;prog</title>
<path fill="none" stroke="#000000" d="M1746.62,-444.8C1644.65,-465.34 1274.32,-541.96 1236,-578.63 1218.03,-595.84 1237.01,-615.59 1218,-631.63 1157.81,-682.44 1119.39,-640.44 1043,-659.63 1027.2,-663.6 1010.36,-668.97 995.06,-674.3"/>
<polygon fill="#000000" stroke="#000000" points="993.5,-671.14 985.24,-677.78 995.84,-677.73 993.5,-671.14"/>
<text text-anchor="middle" x="1338.5" y="-623.03" font-family="Times,serif" font-size="32.00">ing_1</text>
<text text-anchor="middle" x="1338.5" y="-588.03" font-family="Times,serif" font-size="32.00">=&gt;2 =da prog</text>
</g>
<!-- 3&#45;&gt;0 -->
<g id="edge52" class="edge">
<title>3&#45;&gt;0</title>
<path fill="none" stroke="#000000" d="M1746.6,-1426.14C1680.11,-1434.59 1505.37,-1453.14 1459,-1421.63 1441.18,-1409.53 1457.4,-1390.6 1441,-1376.63 1369.91,-1316.09 1324.51,-1360.38 1236,-1330.63 1137.69,-1297.6 1028.02,-1242.38 974.69,-1214.26"/>
<polygon fill="#000000" stroke="#000000" points="976.18,-1211.09 965.71,-1209.5 972.9,-1217.27 976.18,-1211.09"/>
<text text-anchor="middle" x="1338.5" y="-1421.03" font-family="Times,serif" font-size="32.00">ε_5</text>
<text text-anchor="middle" x="1338.5" y="-1386.03" font-family="Times,serif" font-size="32.00">=&gt;3 0</text>
</g>
<!-- 3&#45;&gt;1 -->
<g id="edge54" class="edge">
<title>3&#45;&gt;1</title>
<path fill="none" stroke="#000000" d="M1765.71,-1393.17C1754.11,-1350.18 1726.09,-1271.29 1670,-1233.63 1630.84,-1207.35 1492.43,-1243.91 1459,-1210.63 1433.95,-1185.71 1458.01,-1083.61 1441,-1052.63 1425.4,-1024.24 1395.55,-1001.98 1372.25,-987.86"/>
<polygon fill="#000000" stroke="#000000" points="1373.76,-984.69 1363.36,-982.67 1370.23,-990.74 1373.76,-984.69"/>
<text text-anchor="middle" x="1564.5" y="-1278.03" font-family="Times,serif" font-size="32.00">ε_6</text>
<text text-anchor="middle" x="1564.5" y="-1243.03" font-family="Times,serif" font-size="32.00">=&gt;3 1</text>
</g>
<!-- 3&#45;&gt;v -->
<g id="edge55" class="edge">
<title>3&#45;&gt;v</title>
<path fill="none" stroke="#000000" d="M1748.28,-1434.21C1727.89,-1443.37 1697.72,-1455.58 1670,-1461.63 1533.72,-1491.38 1171.29,-1546.4 1043,-1491.63 842.08,-1405.86 810.98,-1326.55 703,-1136.63 688.18,-1110.58 702.85,-1095.72 685,-1071.63 626.71,-992.98 590.44,-988.6 499,-953.63 428.3,-926.6 394.98,-966.08 331,-925.63 300.77,-906.52 278.71,-871.72 265.22,-845.03"/>
<polygon fill="#000000" stroke="#000000" points="268.33,-843.42 260.8,-835.96 262.03,-846.48 268.33,-843.42"/>
<text text-anchor="middle" x="941" y="-1527.03" font-family="Times,serif" font-size="32.00">ε_7</text>
<text text-anchor="middle" x="941" y="-1492.03" font-family="Times,serif" font-size="32.00">=&gt;3 =da v</text>
</g>
<!-- 3&#45;&gt;perf -->
<g id="edge57" class="edge">
<title>3&#45;&gt;perf</title>
<path fill="none" stroke="#000000" d="M1747.04,-1429.61C1726.44,-1434.88 1696.59,-1441.7 1670,-1444.63 1568.83,-1455.82 1542.78,-1446.19 1441,-1446.63 1349.89,-1447.03 1317.09,-1488.17 1236,-1446.63 1223.81,-1440.39 1228.37,-1430.57 1218,-1421.63 1081.27,-1303.81 994.24,-1352.86 857,-1235.63 768.99,-1160.46 742.69,-1134.36 703,-1025.63 662.21,-913.91 714.15,-873.94 685,-758.63 671.72,-706.09 643.79,-649.98 624,-614.17"/>
<polygon fill="#000000" stroke="#000000" points="626.85,-612.09 618.91,-605.07 620.74,-615.51 626.85,-612.09"/>
<text text-anchor="middle" x="1130.5" y="-1466.03" font-family="Times,serif" font-size="32.00">n_2</text>
<text text-anchor="middle" x="1130.5" y="-1431.03" font-family="Times,serif" font-size="32.00">=&gt;3 =da perf</text>
</g>
<!-- 3&#45;&gt;prog -->
<g id="edge56" class="edge">
<title>3&#45;&gt;prog</title>
<path fill="none" stroke="#000000" d="M1746.25,-1422.31C1674.59,-1421.18 1479.58,-1416.31 1459,-1396.63 1413.65,-1353.29 1478.18,-1307.16 1441,-1256.63 1381.6,-1175.9 1296.45,-1242.59 1236,-1162.63 1204.53,-1121.02 1239.15,-1094.33 1218,-1046.63 1167.91,-933.69 1095.53,-942.46 1043,-830.63 1025.66,-793.71 1049.07,-773.57 1025,-740.63 1017.33,-730.14 1006.5,-721.74 995.19,-715.15"/>
<polygon fill="#000000" stroke="#000000" points="996.54,-711.9 986.07,-710.24 993.22,-718.06 996.54,-711.9"/>
<text text-anchor="middle" x="1338.5" y="-1301.03" font-family="Times,serif" font-size="32.00">ing_2</text>
<text text-anchor="middle" x="1338.5" y="-1266.03" font-family="Times,serif" font-size="32.00">=&gt;3 =da prog</text>
</g>
</g>
</svg>
