<?xml version="1.0" encoding="UTF-8" standalone="no"?>
<!DOCTYPE svg PUBLIC "-//W3C//DTD SVG 1.1//EN"
 "http://www.w3.org/Graphics/SVG/1.1/DTD/svg11.dtd">
<!-- Generated by graphviz version 2.47.1 (20210417.1919)
 -->
<!-- Title: G Pages: 1 -->
<svg width="2983pt" height="1446pt"
 viewBox="0.00 0.00 2982.57 1446.00" xmlns="http://www.w3.org/2000/svg" xmlns:xlink="http://www.w3.org/1999/xlink">
<g id="graph0" class="graph" transform="scale(1 1) rotate(0) translate(4 1442)">
<title>G</title>
<polygon fill="white" stroke="transparent" points="-4,4 -4,-1442 2978.57,-1442 2978.57,4 -4,4"/>
<text text-anchor="middle" x="1487.29" y="-13.4" font-family="Times,serif" font-size="32.00">replacement: =&gt;11 8 with =&gt;11 9, =&gt;9 8; =&gt;11 7 with =&gt;11 9, =&gt;9 7</text>
<!-- t -->
<g id="node1" class="node">
<title>t</title>
<ellipse fill="lightgray" stroke="black" cx="27" cy="-643" rx="27" ry="30.31"/>
<text text-anchor="middle" x="27" y="-634.9" font-family="Times,serif" font-size="32.00">t</text>
</g>
<!-- z0 -->
<g id="node2" class="node">
<title>z0</title>
<ellipse fill="none" stroke="black" stroke-dasharray="5,2" cx="2947.57" cy="-1205" rx="27" ry="18"/>
</g>
<!-- da -->
<g id="node3" class="node">
<title>da</title>
<ellipse fill="none" stroke="black" cx="2729.24" cy="-1205" rx="33.47" ry="30.31"/>
<text text-anchor="middle" x="2729.24" y="-1196.9" font-family="Times,serif" font-size="32.00">da</text>
</g>
<!-- z0&#45;&gt;da -->
<g id="edge1" class="edge">
<title>z0&#45;&gt;da</title>
<path fill="none" stroke="#000000" d="M2920.48,-1205C2883.86,-1205 2816.79,-1205 2772.87,-1205"/>
<polygon fill="#000000" stroke="#000000" points="2772.78,-1201.5 2762.78,-1205 2772.78,-1208.5 2772.78,-1201.5"/>
<text text-anchor="middle" x="2851.07" y="-1284.4" font-family="Times,serif" font-size="32.00">Mary |</text>
<text text-anchor="middle" x="2851.07" y="-1249.4" font-family="Times,serif" font-size="32.00"> John</text>
<text text-anchor="middle" x="2851.07" y="-1214.4" font-family="Times,serif" font-size="32.00">da &#45;k</text>
</g>
<!-- z1 -->
<g id="node4" class="node">
<title>z1</title>
<ellipse fill="none" stroke="black" stroke-dasharray="5,2" cx="2947.57" cy="-1333" rx="27" ry="18"/>
</g>
<!-- poss -->
<g id="node5" class="node">
<title>poss</title>
<ellipse fill="none" stroke="black" cx="2729.24" cy="-1333" rx="52.15" ry="30.31"/>
<text text-anchor="middle" x="2729.24" y="-1324.9" font-family="Times,serif" font-size="32.00">poss</text>
</g>
<!-- z1&#45;&gt;poss -->
<g id="edge2" class="edge">
<title>z1&#45;&gt;poss</title>
<path fill="none" stroke="#000000" d="M2920.48,-1333C2888.81,-1333 2834.39,-1333 2791.84,-1333"/>
<polygon fill="#000000" stroke="#000000" points="2791.58,-1329.5 2781.58,-1333 2791.58,-1336.5 2791.58,-1329.5"/>
<text text-anchor="middle" x="2851.07" y="-1412.4" font-family="Times,serif" font-size="32.00">Mary&#39;s |</text>
<text text-anchor="middle" x="2851.07" y="-1377.4" font-family="Times,serif" font-size="32.00"> John&#39;s</text>
<text text-anchor="middle" x="2851.07" y="-1342.4" font-family="Times,serif" font-size="32.00">poss</text>
</g>
<!-- z2 -->
<g id="node6" class="node">
<title>z2</title>
<ellipse fill="none" stroke="black" stroke-dasharray="5,2" cx="1771.04" cy="-295" rx="27" ry="18"/>
</g>
<!-- d -->
<g id="node7" class="node">
<title>d</title>
<ellipse fill="none" stroke="black" cx="1435.04" cy="-388" rx="27" ry="30.31"/>
<text text-anchor="middle" x="1435.04" y="-379.9" font-family="Times,serif" font-size="32.00">d</text>
</g>
<!-- z2&#45;&gt;d -->
<g id="edge3" class="edge">
<title>z2&#45;&gt;d</title>
<path fill="none" stroke="#000000" d="M1745.24,-289.44C1692.11,-278.98 1565.21,-261.79 1480.04,-314 1466.47,-322.31 1456.58,-336.51 1449.65,-350.25"/>
<polygon fill="#000000" stroke="#000000" points="1446.34,-349.07 1445.32,-359.62 1452.7,-352.01 1446.34,-349.07"/>
<text text-anchor="middle" x="1577.04" y="-358.4" font-family="Times,serif" font-size="32.00">the&#45;cause</text>
<text text-anchor="middle" x="1577.04" y="-323.4" font-family="Times,serif" font-size="32.00">d &#45;k</text>
</g>
<!-- for -->
<g id="node8" class="node">
<title>for</title>
<ellipse fill="none" stroke="black" cx="1157.52" cy="-1019" rx="37.45" ry="30.31"/>
<text text-anchor="middle" x="1157.52" y="-1010.9" font-family="Times,serif" font-size="32.00">for</text>
</g>
<!-- d&#45;&gt;for -->
<g id="edge4" class="edge">
<title>d&#45;&gt;for</title>
<path fill="none" stroke="#000000" d="M1426.36,-417.22C1419.02,-442.66 1406.62,-480.06 1390.04,-510 1336.67,-606.37 1281.11,-604.04 1237.04,-705 1216.69,-751.61 1230.39,-768.43 1219.04,-818 1205.94,-875.14 1185.41,-939.84 1171.96,-980.03"/>
<polygon fill="#000000" stroke="#000000" points="1168.57,-979.11 1168.7,-989.7 1175.21,-981.34 1168.57,-979.11"/>
<text text-anchor="middle" x="1313.54" y="-749.4" font-family="Times,serif" font-size="32.00">for</text>
<text text-anchor="middle" x="1313.54" y="-714.4" font-family="Times,serif" font-size="32.00">=d *k for</text>
</g>
<!-- of -->
<g id="node9" class="node">
<title>of</title>
<ellipse fill="none" stroke="black" cx="1157.52" cy="-435" rx="30.31" ry="30.31"/>
<text text-anchor="middle" x="1157.52" y="-426.9" font-family="Times,serif" font-size="32.00">of</text>
</g>
<!-- d&#45;&gt;of -->
<g id="edge5" class="edge">
<title>d&#45;&gt;of</title>
<path fill="none" stroke="#000000" d="M1411.59,-403.16C1404.91,-406.99 1397.41,-410.67 1390.04,-413 1325.07,-433.51 1245.16,-436.54 1198.23,-436.22"/>
<polygon fill="#000000" stroke="#000000" points="1198.21,-432.72 1188.17,-436.1 1198.13,-439.72 1198.21,-432.72"/>
<text text-anchor="middle" x="1313.54" y="-480.4" font-family="Times,serif" font-size="32.00">of</text>
<text text-anchor="middle" x="1313.54" y="-445.4" font-family="Times,serif" font-size="32.00">=d *k of</text>
</g>
<!-- about -->
<g id="node10" class="node">
<title>about</title>
<ellipse fill="none" stroke="black" cx="1157.52" cy="-342" rx="61.54" ry="30.31"/>
<text text-anchor="middle" x="1157.52" y="-333.9" font-family="Times,serif" font-size="32.00">about</text>
</g>
<!-- d&#45;&gt;about -->
<g id="edge6" class="edge">
<title>d&#45;&gt;about</title>
<path fill="none" stroke="#000000" d="M1417.41,-364.41C1410.08,-356.01 1400.7,-347.52 1390.04,-343 1337.68,-320.84 1272.51,-322.86 1224.66,-329.11"/>
<polygon fill="#000000" stroke="#000000" points="1224.14,-325.64 1214.72,-330.5 1225.11,-332.58 1224.14,-325.64"/>
<text text-anchor="middle" x="1313.54" y="-387.4" font-family="Times,serif" font-size="32.00">about</text>
<text text-anchor="middle" x="1313.54" y="-352.4" font-family="Times,serif" font-size="32.00">=d *k about</text>
</g>
<!-- 3 -->
<g id="node18" class="node">
<title>3</title>
<ellipse fill="none" stroke="black" cx="2145.54" cy="-1025" rx="27" ry="30.31"/>
<text text-anchor="middle" x="2145.54" y="-1016.9" font-family="Times,serif" font-size="32.00">3</text>
</g>
<!-- for&#45;&gt;3 -->
<g id="edge20" class="edge">
<title>for&#45;&gt;3</title>
<path fill="none" stroke="#000000" d="M1192.27,-1030.78C1292.39,-1064.28 1596.57,-1155.63 1850.04,-1123 1937.07,-1111.8 1958.46,-1102.69 2041.04,-1073 2065.33,-1064.26 2091.72,-1051.98 2111.77,-1042.02"/>
<polygon fill="#000000" stroke="#000000" points="2113.43,-1045.11 2120.79,-1037.49 2110.28,-1038.86 2113.43,-1045.11"/>
<text text-anchor="middle" x="1577.04" y="-1172.4" font-family="Times,serif" font-size="32.00">hope</text>
<text text-anchor="middle" x="1577.04" y="-1137.4" font-family="Times,serif" font-size="32.00">=for 3</text>
</g>
<!-- 0 -->
<g id="node11" class="node">
<title>0</title>
<ellipse fill="none" stroke="black" cx="229" cy="-643" rx="27" ry="30.31"/>
<text text-anchor="middle" x="229" y="-634.9" font-family="Times,serif" font-size="32.00">0</text>
</g>
<!-- 0&#45;&gt;t -->
<g id="edge7" class="edge">
<title>0&#45;&gt;t</title>
<path fill="none" stroke="#000000" d="M201.85,-643C166.67,-643 103.92,-643 64.21,-643"/>
<polygon fill="#000000" stroke="#000000" points="64.15,-639.5 54.15,-643 64.15,-646.5 64.15,-639.5"/>
<text text-anchor="middle" x="128" y="-722.4" font-family="Times,serif" font-size="32.00">s |</text>
<text text-anchor="middle" x="128" y="-687.4" font-family="Times,serif" font-size="32.00"> d</text>
<text text-anchor="middle" x="128" y="-652.4" font-family="Times,serif" font-size="32.00">=&gt;0 +k t</text>
</g>
<!-- 1 -->
<g id="node12" class="node">
<title>1</title>
<ellipse fill="none" stroke="black" cx="1435.04" cy="-779" rx="27" ry="30.31"/>
<text text-anchor="middle" x="1435.04" y="-770.9" font-family="Times,serif" font-size="32.00">1</text>
</g>
<!-- 2 -->
<g id="node13" class="node">
<title>2</title>
<ellipse fill="none" stroke="black" cx="1157.52" cy="-779" rx="27" ry="30.31"/>
<text text-anchor="middle" x="1157.52" y="-770.9" font-family="Times,serif" font-size="32.00">2</text>
</g>
<!-- 1&#45;&gt;2 -->
<g id="edge8" class="edge">
<title>1&#45;&gt;2</title>
<path fill="none" stroke="#000000" d="M1407.62,-779C1358.14,-779 1251.44,-779 1195.09,-779"/>
<polygon fill="#000000" stroke="#000000" points="1194.86,-775.5 1184.86,-779 1194.86,-782.5 1194.86,-775.5"/>
<text text-anchor="middle" x="1313.54" y="-823.4" font-family="Times,serif" font-size="32.00">ε_0</text>
<text text-anchor="middle" x="1313.54" y="-788.4" font-family="Times,serif" font-size="32.00">=&gt;1 =da 2</text>
</g>
<!-- v -->
<g id="node15" class="node">
<title>v</title>
<ellipse fill="none" stroke="black" cx="395" cy="-736" rx="27" ry="30.31"/>
<text text-anchor="middle" x="395" y="-727.9" font-family="Times,serif" font-size="32.00">v</text>
</g>
<!-- 2&#45;&gt;v -->
<g id="edge10" class="edge">
<title>2&#45;&gt;v</title>
<path fill="none" stroke="#000000" d="M1130.41,-778.92C1030.38,-778.55 671.5,-776.42 558,-765 514.13,-760.59 464.29,-750.96 431.62,-744"/>
<polygon fill="#000000" stroke="#000000" points="432.15,-740.54 421.64,-741.85 430.68,-747.38 432.15,-740.54"/>
<text text-anchor="middle" x="744" y="-820.4" font-family="Times,serif" font-size="32.00">ε_1</text>
<text text-anchor="middle" x="744" y="-785.4" font-family="Times,serif" font-size="32.00">=&gt;2 v</text>
</g>
<!-- perf -->
<g id="node16" class="node">
<title>perf</title>
<ellipse fill="none" stroke="black" cx="608" cy="-837" rx="48.17" ry="30.31"/>
<text text-anchor="middle" x="608" y="-828.9" font-family="Times,serif" font-size="32.00">perf</text>
</g>
<!-- 2&#45;&gt;perf -->
<g id="edge11" class="edge">
<title>2&#45;&gt;perf</title>
<path fill="none" stroke="#000000" d="M1130.87,-786.16C1074.02,-801.61 932.9,-837.67 812,-850 751.87,-856.13 736.17,-855.78 676,-850 671.89,-849.6 667.65,-849.08 663.4,-848.46"/>
<polygon fill="#000000" stroke="#000000" points="663.94,-845 653.52,-846.87 662.83,-851.91 663.94,-845"/>
<text text-anchor="middle" x="886" y="-892.4" font-family="Times,serif" font-size="32.00">n</text>
<text text-anchor="middle" x="886" y="-857.4" font-family="Times,serif" font-size="32.00">=&gt;2 perf</text>
</g>
<!-- prog -->
<g id="node17" class="node">
<title>prog</title>
<ellipse fill="none" stroke="black" cx="886" cy="-670" rx="52.15" ry="30.31"/>
<text text-anchor="middle" x="886" y="-661.9" font-family="Times,serif" font-size="32.00">prog</text>
</g>
<!-- 2&#45;&gt;prog -->
<g id="edge12" class="edge">
<title>2&#45;&gt;prog</title>
<path fill="none" stroke="#000000" d="M1140.98,-754.76C1127.01,-735.17 1104.63,-708.68 1078,-695 1038.13,-674.52 987.66,-668.63 948.61,-667.67"/>
<polygon fill="#000000" stroke="#000000" points="948.48,-664.17 938.43,-667.52 948.38,-671.16 948.48,-664.17"/>
<text text-anchor="middle" x="1019" y="-739.4" font-family="Times,serif" font-size="32.00">ing</text>
<text text-anchor="middle" x="1019" y="-704.4" font-family="Times,serif" font-size="32.00">=&gt;2 prog</text>
</g>
<!-- a -->
<g id="node14" class="node">
<title>a</title>
<ellipse fill="none" stroke="black" cx="1771.04" cy="-779" rx="27" ry="30.31"/>
<text text-anchor="middle" x="1771.04" y="-770.9" font-family="Times,serif" font-size="32.00">a</text>
</g>
<!-- a&#45;&gt;1 -->
<g id="edge9" class="edge">
<title>a&#45;&gt;1</title>
<path fill="none" stroke="#000000" d="M1743.83,-779C1684.56,-779 1540.13,-779 1472.32,-779"/>
<polygon fill="#000000" stroke="#000000" points="1472.12,-775.5 1462.12,-779 1472.12,-782.5 1472.12,-775.5"/>
<text text-anchor="middle" x="1577.04" y="-823.4" font-family="Times,serif" font-size="32.00">be</text>
<text text-anchor="middle" x="1577.04" y="-788.4" font-family="Times,serif" font-size="32.00">=a 1</text>
</g>
<!-- v&#45;&gt;0 -->
<g id="edge13" class="edge">
<title>v&#45;&gt;0</title>
<path fill="none" stroke="#000000" d="M388.46,-706.44C382.75,-685.08 371.51,-657.68 350,-644 325.12,-628.18 291.09,-629.54 265.61,-633.93"/>
<polygon fill="#000000" stroke="#000000" points="264.76,-630.53 255.62,-635.87 266.1,-637.4 264.76,-630.53"/>
<text text-anchor="middle" x="312" y="-688.4" font-family="Times,serif" font-size="32.00">will</text>
<text text-anchor="middle" x="312" y="-653.4" font-family="Times,serif" font-size="32.00">=v 0</text>
</g>
<!-- v&#45;&gt;0 -->
<g id="edge15" class="edge">
<title>v&#45;&gt;0</title>
<path fill="none" stroke="#000000" d="M367.84,-737.1C341.87,-736.92 302,-733.1 274,-714 261.66,-705.58 252.13,-692.45 245.14,-679.75"/>
<polygon fill="#000000" stroke="#000000" points="248.16,-677.97 240.5,-670.65 241.93,-681.15 248.16,-677.97"/>
<text text-anchor="middle" x="312" y="-781.4" font-family="Times,serif" font-size="32.00">ε_2</text>
<text text-anchor="middle" x="312" y="-746.4" font-family="Times,serif" font-size="32.00">=&gt;v 0</text>
</g>
<!-- perf&#45;&gt;v -->
<g id="edge14" class="edge">
<title>perf&#45;&gt;v</title>
<path fill="none" stroke="#000000" d="M560.11,-832.86C524.66,-827.87 476.11,-816.94 440,-793 430.84,-786.93 422.78,-778.3 416.15,-769.6"/>
<polygon fill="#000000" stroke="#000000" points="418.9,-767.42 410.24,-761.31 413.2,-771.48 418.9,-767.42"/>
<text text-anchor="middle" x="490" y="-874.4" font-family="Times,serif" font-size="32.00">have</text>
<text text-anchor="middle" x="490" y="-839.4" font-family="Times,serif" font-size="32.00">=perf v</text>
</g>
<!-- prog&#45;&gt;0 -->
<g id="edge16" class="edge">
<title>prog&#45;&gt;0</title>
<path fill="none" stroke="#000000" d="M834.75,-663.04C827.13,-662 819.36,-660.96 812,-660 691.2,-644.18 661.59,-633.57 540,-626 495.64,-623.24 484.44,-625.73 440,-626 366.22,-626.44 346.72,-615.5 274,-628 270.92,-628.53 267.76,-629.24 264.62,-630.07"/>
<polygon fill="#000000" stroke="#000000" points="263.34,-626.8 254.77,-633.03 265.36,-633.51 263.34,-626.8"/>
<text text-anchor="middle" x="490" y="-670.4" font-family="Times,serif" font-size="32.00">be_1</text>
<text text-anchor="middle" x="490" y="-635.4" font-family="Times,serif" font-size="32.00">=prog 0</text>
</g>
<!-- prog&#45;&gt;v -->
<g id="edge17" class="edge">
<title>prog&#45;&gt;v</title>
<path fill="none" stroke="#000000" d="M833.56,-667.62C826.32,-667.36 818.97,-667.14 812,-667 751.57,-665.76 736.03,-659.97 676,-667 622.46,-673.26 610.35,-682.17 558,-695 514.4,-705.69 464.31,-718.44 431.51,-726.85"/>
<polygon fill="#000000" stroke="#000000" points="430.32,-723.54 421.5,-729.42 432.06,-730.32 430.32,-723.54"/>
<text text-anchor="middle" x="608" y="-739.4" font-family="Times,serif" font-size="32.00">be_2</text>
<text text-anchor="middle" x="608" y="-704.4" font-family="Times,serif" font-size="32.00">=prog v</text>
</g>
<!-- prog&#45;&gt;perf -->
<g id="edge18" class="edge">
<title>prog&#45;&gt;perf</title>
<path fill="none" stroke="#000000" d="M833.35,-668.33C779.77,-667.61 700.44,-669.7 676,-687 675.69,-687.22 645.91,-754.04 626.17,-798.41"/>
<polygon fill="#000000" stroke="#000000" points="622.87,-797.22 622,-807.78 629.26,-800.07 622.87,-797.22"/>
<text text-anchor="middle" x="744" y="-731.4" font-family="Times,serif" font-size="32.00">ben</text>
<text text-anchor="middle" x="744" y="-696.4" font-family="Times,serif" font-size="32.00">=prog perf</text>
</g>
<!-- 3&#45;&gt;1 -->
<g id="edge19" class="edge">
<title>3&#45;&gt;1</title>
<path fill="none" stroke="#000000" d="M2119.4,-1033.81C2098.67,-1040.58 2068.35,-1049.37 2041.04,-1053 1964.82,-1063.13 1942.76,-1071.13 1868.04,-1053 1679.5,-1007.27 1621.31,-985.97 1480.04,-853 1468.83,-842.45 1459.51,-828.41 1452.39,-815.39"/>
<polygon fill="#000000" stroke="#000000" points="1455.31,-813.42 1447.59,-806.17 1449.1,-816.65 1455.31,-813.42"/>
<text text-anchor="middle" x="1771.04" y="-1093.4" font-family="Times,serif" font-size="32.00">ε_3</text>
<text text-anchor="middle" x="1771.04" y="-1058.4" font-family="Times,serif" font-size="32.00">=&gt;3 1</text>
</g>
<!-- 3&#45;&gt;a -->
<g id="edge23" class="edge">
<title>3&#45;&gt;a</title>
<path fill="none" stroke="#000000" d="M2120.46,-1013.19C2099.86,-1003.59 2069.16,-990.45 2041.04,-983 1966.05,-963.15 1931.72,-1004.29 1868.04,-960 1819.64,-926.35 1793.68,-860.42 1781.38,-818.1"/>
<polygon fill="#000000" stroke="#000000" points="1784.73,-817.1 1778.68,-808.41 1777.99,-818.98 1784.73,-817.1"/>
<text text-anchor="middle" x="1954.54" y="-1027.4" font-family="Times,serif" font-size="32.00">ful</text>
<text text-anchor="middle" x="1954.54" y="-992.4" font-family="Times,serif" font-size="32.00">=&gt;3 a</text>
</g>
<!-- 4 -->
<g id="node19" class="node">
<title>4</title>
<ellipse fill="none" stroke="black" cx="1771.04" cy="-388" rx="27" ry="30.31"/>
<text text-anchor="middle" x="1771.04" y="-379.9" font-family="Times,serif" font-size="32.00">4</text>
</g>
<!-- 3&#45;&gt;4 -->
<g id="edge22" class="edge">
<title>3&#45;&gt;4</title>
<path fill="none" stroke="#000000" d="M2132.79,-997.95C2117.05,-965.31 2085.81,-911.64 2041.04,-886 2007.47,-866.78 1894.47,-895.24 1868.04,-867 1836.42,-833.22 1870.88,-492.3 1850.04,-451 1840.31,-431.72 1821.7,-416.34 1805.1,-405.6"/>
<polygon fill="#000000" stroke="#000000" points="1806.5,-402.35 1796.15,-400.11 1802.84,-408.32 1806.5,-402.35"/>
<text text-anchor="middle" x="1954.54" y="-930.4" font-family="Times,serif" font-size="32.00">ε_5</text>
<text text-anchor="middle" x="1954.54" y="-895.4" font-family="Times,serif" font-size="32.00">=&gt;3 4</text>
</g>
<!-- 4&#45;&gt;d -->
<g id="edge21" class="edge">
<title>4&#45;&gt;d</title>
<path fill="none" stroke="#000000" d="M1743.83,-388C1684.56,-388 1540.13,-388 1472.32,-388"/>
<polygon fill="#000000" stroke="#000000" points="1472.12,-384.5 1462.12,-388 1472.12,-391.5 1472.12,-384.5"/>
<text text-anchor="middle" x="1577.04" y="-432.4" font-family="Times,serif" font-size="32.00">ε_4</text>
<text text-anchor="middle" x="1577.04" y="-397.4" font-family="Times,serif" font-size="32.00">=&gt;4 poss= d &#45;k</text>
</g>
<!-- 5 -->
<g id="node20" class="node">
<title>5</title>
<ellipse fill="none" stroke="black" cx="2145.54" cy="-473" rx="27" ry="30.31"/>
<text text-anchor="middle" x="2145.54" y="-464.9" font-family="Times,serif" font-size="32.00">5</text>
</g>
<!-- 5&#45;&gt;1 -->
<g id="edge24" class="edge">
<title>5&#45;&gt;1</title>
<path fill="none" stroke="#000000" d="M2118.54,-471.98C2006.4,-468.21 1565.9,-459.85 1480.04,-557 1456.64,-583.47 1444.41,-682.28 1439.19,-738.75"/>
<polygon fill="#000000" stroke="#000000" points="1435.7,-738.5 1438.3,-748.77 1442.67,-739.12 1435.7,-738.5"/>
<text text-anchor="middle" x="1771.04" y="-530.4" font-family="Times,serif" font-size="32.00">ε_6</text>
<text text-anchor="middle" x="1771.04" y="-495.4" font-family="Times,serif" font-size="32.00">=&gt;5 1</text>
</g>
<!-- 5&#45;&gt;4 -->
<g id="edge27" class="edge">
<title>5&#45;&gt;4</title>
<path fill="none" stroke="#000000" d="M2119.26,-465.12C2100.57,-458.18 2075.58,-446.44 2059.04,-429 2045.62,-414.86 2057.39,-399.62 2041.04,-389 2003.65,-364.73 1872.47,-376.1 1808.15,-383.45"/>
<polygon fill="#000000" stroke="#000000" points="1807.58,-379.99 1798.05,-384.63 1808.39,-386.94 1807.58,-379.99"/>
<text text-anchor="middle" x="1954.54" y="-433.4" font-family="Times,serif" font-size="32.00">ε_8</text>
<text text-anchor="middle" x="1954.54" y="-398.4" font-family="Times,serif" font-size="32.00">=&gt;5 4</text>
</g>
<!-- 6 -->
<g id="node21" class="node">
<title>6</title>
<ellipse fill="none" stroke="black" cx="2490.98" cy="-488" rx="27" ry="30.31"/>
<text text-anchor="middle" x="2490.98" y="-479.9" font-family="Times,serif" font-size="32.00">6</text>
</g>
<!-- 6&#45;&gt;1 -->
<g id="edge30" class="edge">
<title>6&#45;&gt;1</title>
<path fill="none" stroke="#000000" d="M2467.72,-503.86C2459.16,-509.07 2449.04,-514.24 2439.04,-517 2377.86,-533.88 1923.41,-498.01 1868.04,-529 1855.13,-536.23 1860.9,-546.96 1850.04,-557 1730.79,-667.17 1546.67,-740.24 1470.67,-767.29"/>
<polygon fill="#000000" stroke="#000000" points="1469.37,-764.03 1461.1,-770.65 1471.7,-770.64 1469.37,-764.03"/>
<text text-anchor="middle" x="1954.54" y="-573.4" font-family="Times,serif" font-size="32.00">ε_10</text>
<text text-anchor="middle" x="1954.54" y="-538.4" font-family="Times,serif" font-size="32.00">=&gt;6 =about 1</text>
</g>
<!-- 6&#45;&gt;a -->
<g id="edge32" class="edge">
<title>6&#45;&gt;a</title>
<path fill="none" stroke="#000000" d="M2473.79,-511.58C2464.87,-522.67 2452.82,-534.98 2439.04,-542 2287.32,-619.33 2218.76,-531.96 2059.04,-591 2051.96,-593.62 1876.06,-710.02 1803.2,-758.33"/>
<polygon fill="#000000" stroke="#000000" points="1801.24,-755.42 1794.84,-763.87 1805.11,-761.26 1801.24,-755.42"/>
<text text-anchor="middle" x="2145.54" y="-635.4" font-family="Times,serif" font-size="32.00">ful_2</text>
<text text-anchor="middle" x="2145.54" y="-600.4" font-family="Times,serif" font-size="32.00">=&gt;6 =about a</text>
</g>
<!-- 6&#45;&gt;4 -->
<g id="edge31" class="edge">
<title>6&#45;&gt;4</title>
<path fill="none" stroke="#000000" d="M2473.35,-464.59C2436.64,-415.27 2343.04,-302.01 2232.04,-263 2073.73,-207.36 1877.63,-318.27 1802.91,-366.81"/>
<polygon fill="#000000" stroke="#000000" points="1800.84,-363.98 1794.41,-372.4 1804.69,-369.83 1800.84,-363.98"/>
<text text-anchor="middle" x="2145.54" y="-307.4" font-family="Times,serif" font-size="32.00">ε_11</text>
<text text-anchor="middle" x="2145.54" y="-272.4" font-family="Times,serif" font-size="32.00">=&gt;6 =about 4</text>
</g>
<!-- 6&#45;&gt;5 -->
<g id="edge25" class="edge">
<title>6&#45;&gt;5</title>
<path fill="none" stroke="#000000" d="M2470.66,-467.25C2461.88,-459.3 2450.81,-451.15 2439.04,-447 2350.32,-415.73 2237.53,-443.04 2181.47,-460.74"/>
<polygon fill="#000000" stroke="#000000" points="2180.11,-457.5 2171.68,-463.91 2182.27,-464.16 2180.11,-457.5"/>
<text text-anchor="middle" x="2344.54" y="-491.4" font-family="Times,serif" font-size="32.00">ε_7</text>
<text text-anchor="middle" x="2344.54" y="-456.4" font-family="Times,serif" font-size="32.00">=&gt;6 =of 5</text>
</g>
<!-- 7 -->
<g id="node23" class="node">
<title>7</title>
<ellipse fill="none" stroke="black" cx="2145.54" cy="-839" rx="27" ry="30.31"/>
<text text-anchor="middle" x="2145.54" y="-830.9" font-family="Times,serif" font-size="32.00">7</text>
</g>
<!-- 6&#45;&gt;7 -->
<g id="edge29" class="edge">
<title>6&#45;&gt;7</title>
<path fill="none" stroke="#000000" d="M2486.2,-517.93C2479.36,-567.27 2463.32,-662.48 2439.04,-685 2376.46,-743.04 2317.82,-667.13 2250.04,-719 2235.2,-730.36 2242.96,-741.84 2232.04,-757 2216.19,-779 2193.99,-800.08 2176.19,-815.36"/>
<polygon fill="#000000" stroke="#000000" points="2173.75,-812.84 2168.36,-821.95 2178.26,-818.19 2173.75,-812.84"/>
<text text-anchor="middle" x="2344.54" y="-763.4" font-family="Times,serif" font-size="32.00">ε_9</text>
<text text-anchor="middle" x="2344.54" y="-728.4" font-family="Times,serif" font-size="32.00">=&gt;6 7</text>
</g>
<!-- z3 -->
<g id="node22" class="node">
<title>z3</title>
<ellipse fill="none" stroke="black" stroke-dasharray="5,2" cx="2729.24" cy="-99" rx="27" ry="18"/>
</g>
<!-- z3&#45;&gt;6 -->
<g id="edge26" class="edge">
<title>z3&#45;&gt;6</title>
<path fill="none" stroke="#000000" d="M2718.09,-115.71C2682.2,-174.81 2560.86,-374.59 2512.31,-454.53"/>
<polygon fill="#000000" stroke="#000000" points="2509.23,-452.86 2507.03,-463.22 2515.21,-456.49 2509.23,-452.86"/>
<text text-anchor="middle" x="2600.92" y="-448.4" font-family="Times,serif" font-size="32.00">boast</text>
<text text-anchor="middle" x="2600.92" y="-413.4" font-family="Times,serif" font-size="32.00">6</text>
</g>
<!-- 7&#45;&gt;a -->
<g id="edge28" class="edge">
<title>7&#45;&gt;a</title>
<path fill="none" stroke="#000000" d="M2120.58,-826.72C2100.05,-816.82 2069.38,-803.52 2041.04,-797 1959.32,-778.2 1860.23,-776.9 1808.11,-777.81"/>
<polygon fill="#000000" stroke="#000000" points="1807.95,-774.31 1798.03,-778.02 1808.1,-781.31 1807.95,-774.31"/>
<text text-anchor="middle" x="1954.54" y="-841.4" font-family="Times,serif" font-size="32.00">ful_1</text>
<text text-anchor="middle" x="1954.54" y="-806.4" font-family="Times,serif" font-size="32.00">=&gt;7 =of a</text>
</g>
<!-- 8 -->
<g id="node24" class="node">
<title>8</title>
<ellipse fill="none" stroke="black" cx="2145.54" cy="-1232" rx="27" ry="30.31"/>
<text text-anchor="middle" x="2145.54" y="-1223.9" font-family="Times,serif" font-size="32.00">8</text>
</g>
<!-- 8&#45;&gt;1 -->
<g id="edge33" class="edge">
<title>8&#45;&gt;1</title>
<path fill="none" stroke="#000000" d="M2119.87,-1241.47C2023.22,-1276.8 1666.48,-1390.29 1480.04,-1218 1451.08,-1191.24 1440.24,-923.47 1437.1,-819.74"/>
<polygon fill="#000000" stroke="#000000" points="1440.6,-819.55 1436.81,-809.65 1433.6,-819.75 1440.6,-819.55"/>
<text text-anchor="middle" x="1771.04" y="-1354.4" font-family="Times,serif" font-size="32.00">ε_12</text>
<text text-anchor="middle" x="1771.04" y="-1319.4" font-family="Times,serif" font-size="32.00">=&gt;8 =d *k 1</text>
</g>
<!-- z4 -->
<g id="node25" class="node">
<title>z4</title>
<ellipse fill="none" stroke="black" stroke-dasharray="5,2" cx="2490.98" cy="-1325" rx="27" ry="18"/>
</g>
<!-- z4&#45;&gt;8 -->
<g id="edge34" class="edge">
<title>z4&#45;&gt;8</title>
<path fill="none" stroke="#000000" d="M2463.84,-1326.82C2418.74,-1329.05 2324.01,-1329.7 2250.04,-1303 2222.06,-1292.9 2194.49,-1273.39 2174.85,-1257.37"/>
<polygon fill="#000000" stroke="#000000" points="2176.86,-1254.48 2166.94,-1250.76 2172.37,-1259.85 2176.86,-1254.48"/>
<text text-anchor="middle" x="2344.54" y="-1406.4" font-family="Times,serif" font-size="32.00">fear |</text>
<text text-anchor="middle" x="2344.54" y="-1371.4" font-family="Times,serif" font-size="32.00"> scorn</text>
<text text-anchor="middle" x="2344.54" y="-1336.4" font-family="Times,serif" font-size="32.00">8</text>
</g>
<!-- 9 -->
<g id="node26" class="node">
<title>9</title>
<ellipse fill="none" stroke="black" cx="2490.98" cy="-897" rx="27" ry="30.31"/>
<text text-anchor="middle" x="2490.98" y="-888.9" font-family="Times,serif" font-size="32.00">9</text>
</g>
<!-- 9&#45;&gt;4 -->
<g id="edge35" class="edge">
<title>9&#45;&gt;4</title>
<path fill="none" stroke="#000000" d="M2475.46,-871.92C2468.65,-858.94 2461.16,-842.58 2457.04,-827 2443.81,-777.01 2469.81,-636.55 2439.04,-595 2385.34,-522.51 2305.05,-592.49 2250.04,-521 2228.62,-493.17 2258.24,-387.37 2232.04,-364 2169.92,-308.6 1904.67,-359.16 1807.71,-380"/>
<polygon fill="#000000" stroke="#000000" points="1806.83,-376.61 1797.8,-382.15 1808.32,-383.45 1806.83,-376.61"/>
<text text-anchor="middle" x="2145.54" y="-408.4" font-family="Times,serif" font-size="32.00">ε_13</text>
<text text-anchor="middle" x="2145.54" y="-373.4" font-family="Times,serif" font-size="32.00">=&gt;9 =of 4</text>
</g>
<!-- 9&#45;&gt;7 -->
<g id="edge39" class="edge">
<title>9&#45;&gt;7</title>
<path fill="none" stroke="#000000" d="M2464.45,-903.19C2419.87,-912.86 2325.39,-928.26 2250.04,-906 2222.2,-897.78 2194.8,-879.46 2175.2,-864.05"/>
<polygon fill="#000000" stroke="#000000" points="2177.28,-861.23 2167.3,-857.67 2172.88,-866.68 2177.28,-861.23"/>
<text text-anchor="middle" x="2344.54" y="-962.4" font-family="Times,serif" font-size="32.00">ε_15</text>
<text text-anchor="middle" x="2344.54" y="-927.4" font-family="Times,serif" font-size="32.00">=&gt;9 7</text>
</g>
<!-- 9&#45;&gt;8 -->
<g id="edge38" class="edge">
<title>9&#45;&gt;8</title>
<path fill="none" stroke="#000000" d="M2481.54,-925.58C2473.81,-946.89 2460.29,-975.13 2439.04,-992 2370.9,-1046.1 2318.41,-989.2 2250.04,-1043 2236.65,-1053.54 2189.91,-1144.77 2164.06,-1196.53"/>
<polygon fill="#000000" stroke="#000000" points="2160.81,-1195.19 2159.49,-1205.71 2167.08,-1198.32 2160.81,-1195.19"/>
<text text-anchor="middle" x="2344.54" y="-1087.4" font-family="Times,serif" font-size="32.00">ε_14</text>
<text text-anchor="middle" x="2344.54" y="-1052.4" font-family="Times,serif" font-size="32.00">=&gt;9 8</text>
</g>
<!-- z5 -->
<g id="node27" class="node">
<title>z5</title>
<ellipse fill="none" stroke="black" stroke-dasharray="5,2" cx="2729.24" cy="-897" rx="27" ry="18"/>
</g>
<!-- z5&#45;&gt;9 -->
<g id="edge36" class="edge">
<title>z5&#45;&gt;9</title>
<path fill="none" stroke="#000000" d="M2702.06,-897C2659.84,-897 2576.6,-897 2528.55,-897"/>
<polygon fill="#000000" stroke="#000000" points="2528.28,-893.5 2518.28,-897 2528.28,-900.5 2528.28,-893.5"/>
<text text-anchor="middle" x="2600.92" y="-1011.4" font-family="Times,serif" font-size="32.00">fear_1 |</text>
<text text-anchor="middle" x="2600.92" y="-976.4" font-family="Times,serif" font-size="32.00"> neglect |</text>
<text text-anchor="middle" x="2600.92" y="-941.4" font-family="Times,serif" font-size="32.00"> scorn_1</text>
<text text-anchor="middle" x="2600.92" y="-906.4" font-family="Times,serif" font-size="32.00">9</text>
</g>
<!-- z6 -->
<g id="node28" class="node">
<title>z6</title>
<ellipse fill="none" stroke="black" stroke-dasharray="5,2" cx="2490.98" cy="-800" rx="27" ry="18"/>
</g>
<!-- z6&#45;&gt;7 -->
<g id="edge37" class="edge">
<title>z6&#45;&gt;7</title>
<path fill="none" stroke="#000000" d="M2464.15,-797.21C2419.89,-793.06 2326.91,-787.17 2250.04,-801 2225.75,-805.37 2199.68,-814.97 2179.78,-823.43"/>
<polygon fill="#000000" stroke="#000000" points="2178.31,-820.26 2170.54,-827.47 2181.11,-826.67 2178.31,-820.26"/>
<text text-anchor="middle" x="2344.54" y="-880.4" font-family="Times,serif" font-size="32.00">fear_2 |</text>
<text text-anchor="middle" x="2344.54" y="-845.4" font-family="Times,serif" font-size="32.00"> scorn_2</text>
<text text-anchor="middle" x="2344.54" y="-810.4" font-family="Times,serif" font-size="32.00">7</text>
</g>
<!-- z7 -->
<g id="node29" class="node">
<title>z7</title>
<ellipse fill="none" stroke="black" stroke-dasharray="5,2" cx="2729.24" cy="-1139" rx="27" ry="18"/>
</g>
<!-- 10 -->
<g id="node30" class="node">
<title>10</title>
<ellipse fill="none" stroke="black" cx="2490.98" cy="-1139" rx="33.88" ry="30.31"/>
<text text-anchor="middle" x="2490.98" y="-1130.9" font-family="Times,serif" font-size="32.00">10</text>
</g>
<!-- z7&#45;&gt;10 -->
<g id="edge40" class="edge">
<title>z7&#45;&gt;10</title>
<path fill="none" stroke="#000000" d="M2702.06,-1139C2661.76,-1139 2584.11,-1139 2535.34,-1139"/>
<polygon fill="#000000" stroke="#000000" points="2535.09,-1135.5 2525.09,-1139 2535.09,-1142.5 2535.09,-1135.5"/>
<text text-anchor="middle" x="2600.92" y="-1218.4" font-family="Times,serif" font-size="32.00">respect |</text>
<text text-anchor="middle" x="2600.92" y="-1183.4" font-family="Times,serif" font-size="32.00"> disdain</text>
<text text-anchor="middle" x="2600.92" y="-1148.4" font-family="Times,serif" font-size="32.00">10</text>
</g>
<!-- 10&#45;&gt;4 -->
<g id="edge41" class="edge">
<title>10&#45;&gt;4</title>
<path fill="none" stroke="#000000" d="M2484.38,-1108.97C2477.95,-1083.2 2464.78,-1047.13 2439.04,-1027 2371.73,-974.39 2306.89,-1055.76 2250.04,-992 2211.2,-948.44 2267.55,-776.31 2232.04,-730 2127.93,-594.28 1976.43,-737.33 1868.04,-605 1829.68,-558.17 1876.17,-524.6 1850.04,-470 1839.03,-447 1819.14,-426.25 1802.2,-411.38"/>
<polygon fill="#000000" stroke="#000000" points="1804.06,-408.37 1794.17,-404.56 1799.53,-413.7 1804.06,-408.37"/>
<text text-anchor="middle" x="2145.54" y="-774.4" font-family="Times,serif" font-size="32.00">ε_16</text>
<text text-anchor="middle" x="2145.54" y="-739.4" font-family="Times,serif" font-size="32.00">=&gt;10 =for 4</text>
</g>
<!-- 10&#45;&gt;7 -->
<g id="edge43" class="edge">
<title>10&#45;&gt;7</title>
<path fill="none" stroke="#000000" d="M2456.86,-1137.05C2392.77,-1133.12 2257.41,-1124.05 2250.04,-1117 2228.8,-1096.7 2241.61,-1013.78 2232.04,-986 2217.31,-943.25 2189.6,-899.03 2169.72,-870.41"/>
<polygon fill="#000000" stroke="#000000" points="2172.44,-868.2 2163.82,-862.05 2166.72,-872.24 2172.44,-868.2"/>
<text text-anchor="middle" x="2344.54" y="-1180.4" font-family="Times,serif" font-size="32.00">ε_18</text>
<text text-anchor="middle" x="2344.54" y="-1145.4" font-family="Times,serif" font-size="32.00">=&gt;10 7</text>
</g>
<!-- 10&#45;&gt;8 -->
<g id="edge42" class="edge">
<title>10&#45;&gt;8</title>
<path fill="none" stroke="#000000" d="M2477.4,-1167.01C2468.9,-1182.46 2456.1,-1200.42 2439.04,-1210 2417.19,-1222.27 2256.04,-1228.68 2182.7,-1230.98"/>
<polygon fill="#000000" stroke="#000000" points="2182.43,-1227.49 2172.54,-1231.29 2182.65,-1234.49 2182.43,-1227.49"/>
<text text-anchor="middle" x="2344.54" y="-1272.4" font-family="Times,serif" font-size="32.00">ε_17</text>
<text text-anchor="middle" x="2344.54" y="-1237.4" font-family="Times,serif" font-size="32.00">=&gt;10 8</text>
</g>
<!-- z8 -->
<g id="node31" class="node">
<title>z8</title>
<ellipse fill="none" stroke="black" stroke-dasharray="5,2" cx="2947.57" cy="-614" rx="27" ry="18"/>
</g>
<!-- 11 -->
<g id="node32" class="node">
<title>11</title>
<ellipse fill="none" stroke="black" cx="2729.24" cy="-614" rx="33.88" ry="30.31"/>
<text text-anchor="middle" x="2729.24" y="-605.9" font-family="Times,serif" font-size="32.00">11</text>
</g>
<!-- z8&#45;&gt;11 -->
<g id="edge44" class="edge">
<title>z8&#45;&gt;11</title>
<path fill="none" stroke="#000000" d="M2920.48,-614C2884.06,-614 2817.55,-614 2773.62,-614"/>
<polygon fill="#000000" stroke="#000000" points="2773.51,-610.5 2763.51,-614 2773.51,-617.5 2773.51,-610.5"/>
<text text-anchor="middle" x="2851.07" y="-658.4" font-family="Times,serif" font-size="32.00">doubt</text>
<text text-anchor="middle" x="2851.07" y="-623.4" font-family="Times,serif" font-size="32.00">11</text>
</g>
<!-- 11&#45;&gt;a -->
<g id="edge47" class="edge">
<title>11&#45;&gt;a</title>
<path fill="none" stroke="#000000" d="M2695.28,-613.55C2641.6,-612.83 2531.93,-611.48 2439.04,-611 2355.04,-610.56 2312.75,-555.11 2250.04,-611 2197.93,-657.44 2283.53,-719.89 2232.04,-767 2230.09,-768.78 1916.79,-775.82 1808.42,-778.21"/>
<polygon fill="#000000" stroke="#000000" points="1808.21,-774.71 1798.29,-778.43 1808.37,-781.71 1808.21,-774.71"/>
<text text-anchor="middle" x="2344.54" y="-655.4" font-family="Times,serif" font-size="32.00">ful_3</text>
<text text-anchor="middle" x="2344.54" y="-620.4" font-family="Times,serif" font-size="32.00">=&gt;11 =about a</text>
</g>
<!-- 11&#45;&gt;4 -->
<g id="edge46" class="edge">
<title>11&#45;&gt;4</title>
<path fill="none" stroke="#000000" d="M2718.78,-584.77C2691.06,-504.69 2601.59,-282.08 2439.04,-197 2322.25,-135.87 1903.96,-224.96 1868.04,-257 1845.66,-276.95 1866.2,-296.75 1850.04,-322 1838.26,-340.41 1819.75,-356.38 1803.72,-368"/>
<polygon fill="#000000" stroke="#000000" points="1801.33,-365.4 1795.13,-374 1805.33,-371.14 1801.33,-365.4"/>
<text text-anchor="middle" x="2344.54" y="-241.4" font-family="Times,serif" font-size="32.00">ε_20</text>
<text text-anchor="middle" x="2344.54" y="-206.4" font-family="Times,serif" font-size="32.00">=&gt;11 =about 4</text>
</g>
<!-- 11&#45;&gt;9 -->
<g id="edge45" class="edge">
<title>11&#45;&gt;9</title>
<path fill="none" stroke="#000000" d="M2706.44,-636.7C2670.77,-674.25 2598.37,-752.16 2542.92,-823 2532.69,-836.07 2522.16,-851.07 2513.35,-864.12"/>
<polygon fill="#000000" stroke="#000000" points="2510.19,-862.55 2507.54,-872.81 2516.01,-866.44 2510.19,-862.55"/>
<text text-anchor="middle" x="2600.92" y="-867.4" font-family="Times,serif" font-size="32.00">ε_19</text>
<text text-anchor="middle" x="2600.92" y="-832.4" font-family="Times,serif" font-size="32.00">=&gt;11 9</text>
</g>
</g>
</svg>
