<?xml version="1.0" encoding="UTF-8" standalone="no"?>
<!DOCTYPE svg PUBLIC "-//W3C//DTD SVG 1.1//EN"
 "http://www.w3.org/Graphics/SVG/1.1/DTD/svg11.dtd">
<!-- Generated by graphviz version 2.47.1 (20210417.1919)
 -->
<!-- Title: G Pages: 1 -->
<svg width="2983pt" height="1285pt"
 viewBox="0.00 0.00 2982.69 1285.26" xmlns="http://www.w3.org/2000/svg" xmlns:xlink="http://www.w3.org/1999/xlink">
<g id="graph0" class="graph" transform="scale(1 1) rotate(0) translate(4 1281.26)">
<title>G</title>
<polygon fill="white" stroke="transparent" points="-4,4 -4,-1281.26 2978.69,-1281.26 2978.69,4 -4,4"/>
<text text-anchor="middle" x="1487.34" y="-13.4" font-family="Times,serif" font-size="32.00">single contraction: 11 → 10</text>
<!-- t -->
<g id="node1" class="node">
<title>t</title>
<ellipse fill="lightgray" stroke="black" cx="27" cy="-919.26" rx="27" ry="30.31"/>
<text text-anchor="middle" x="27" y="-911.16" font-family="Times,serif" font-size="32.00">t</text>
</g>
<!-- z0 -->
<g id="node2" class="node">
<title>z0</title>
<ellipse fill="none" stroke="black" stroke-dasharray="5,2" cx="2947.69" cy="-1044.26" rx="27" ry="18"/>
</g>
<!-- da -->
<g id="node3" class="node">
<title>da</title>
<ellipse fill="none" stroke="black" cx="2729.36" cy="-1044.26" rx="33.47" ry="30.31"/>
<text text-anchor="middle" x="2729.36" y="-1036.16" font-family="Times,serif" font-size="32.00">da</text>
</g>
<!-- z0&#45;&gt;da -->
<g id="edge1" class="edge">
<title>z0&#45;&gt;da</title>
<path fill="none" stroke="#000000" d="M2920.59,-1044.26C2883.97,-1044.26 2816.91,-1044.26 2772.98,-1044.26"/>
<polygon fill="#000000" stroke="#000000" points="2772.9,-1040.76 2762.89,-1044.26 2772.89,-1047.76 2772.9,-1040.76"/>
<text text-anchor="middle" x="2851.19" y="-1123.66" font-family="Times,serif" font-size="32.00">Mary |</text>
<text text-anchor="middle" x="2851.19" y="-1088.66" font-family="Times,serif" font-size="32.00"> John</text>
<text text-anchor="middle" x="2851.19" y="-1053.66" font-family="Times,serif" font-size="32.00">da &#45;k</text>
</g>
<!-- z1 -->
<g id="node4" class="node">
<title>z1</title>
<ellipse fill="none" stroke="black" stroke-dasharray="5,2" cx="2947.69" cy="-1172.26" rx="27" ry="18"/>
</g>
<!-- poss -->
<g id="node5" class="node">
<title>poss</title>
<ellipse fill="none" stroke="black" cx="2729.36" cy="-1172.26" rx="52.15" ry="30.31"/>
<text text-anchor="middle" x="2729.36" y="-1164.16" font-family="Times,serif" font-size="32.00">poss</text>
</g>
<!-- z1&#45;&gt;poss -->
<g id="edge2" class="edge">
<title>z1&#45;&gt;poss</title>
<path fill="none" stroke="#000000" d="M2920.59,-1172.26C2888.93,-1172.26 2834.5,-1172.26 2791.96,-1172.26"/>
<polygon fill="#000000" stroke="#000000" points="2791.7,-1168.76 2781.7,-1172.26 2791.7,-1175.76 2791.7,-1168.76"/>
<text text-anchor="middle" x="2851.19" y="-1251.66" font-family="Times,serif" font-size="32.00">Mary&#39;s |</text>
<text text-anchor="middle" x="2851.19" y="-1216.66" font-family="Times,serif" font-size="32.00"> John&#39;s</text>
<text text-anchor="middle" x="2851.19" y="-1181.66" font-family="Times,serif" font-size="32.00">poss</text>
</g>
<!-- z2 -->
<g id="node6" class="node">
<title>z2</title>
<ellipse fill="none" stroke="black" stroke-dasharray="5,2" cx="1771.04" cy="-144.26" rx="27" ry="18"/>
</g>
<!-- d -->
<g id="node7" class="node">
<title>d</title>
<ellipse fill="none" stroke="black" cx="1435.04" cy="-237.26" rx="27" ry="30.31"/>
<text text-anchor="middle" x="1435.04" y="-229.16" font-family="Times,serif" font-size="32.00">d</text>
</g>
<!-- z2&#45;&gt;d -->
<g id="edge3" class="edge">
<title>z2&#45;&gt;d</title>
<path fill="none" stroke="#000000" d="M1746.3,-136.54C1693.62,-120.95 1564.92,-91.56 1480.04,-145.26 1461.69,-156.87 1450.82,-178.46 1444.48,-197.82"/>
<polygon fill="#000000" stroke="#000000" points="1441.05,-197.08 1441.56,-207.67 1447.76,-199.07 1441.05,-197.08"/>
<text text-anchor="middle" x="1577.04" y="-189.66" font-family="Times,serif" font-size="32.00">the&#45;cause</text>
<text text-anchor="middle" x="1577.04" y="-154.66" font-family="Times,serif" font-size="32.00">d &#45;k</text>
</g>
<!-- for -->
<g id="node8" class="node">
<title>for</title>
<ellipse fill="none" stroke="black" cx="1157.52" cy="-722.26" rx="37.45" ry="30.31"/>
<text text-anchor="middle" x="1157.52" y="-714.16" font-family="Times,serif" font-size="32.00">for</text>
</g>
<!-- d&#45;&gt;for -->
<g id="edge4" class="edge">
<title>d&#45;&gt;for</title>
<path fill="none" stroke="#000000" d="M1425.63,-266.1C1417.82,-291.3 1405.14,-328.55 1390.04,-359.26 1327.2,-487.07 1229.65,-625.72 1183.87,-688.26"/>
<polygon fill="#000000" stroke="#000000" points="1180.86,-686.44 1177.76,-696.58 1186.5,-690.59 1180.86,-686.44"/>
<text text-anchor="middle" x="1313.54" y="-649.66" font-family="Times,serif" font-size="32.00">for</text>
<text text-anchor="middle" x="1313.54" y="-614.66" font-family="Times,serif" font-size="32.00">=d *k for</text>
</g>
<!-- of -->
<g id="node9" class="node">
<title>of</title>
<ellipse fill="none" stroke="black" cx="1157.52" cy="-284.26" rx="30.31" ry="30.31"/>
<text text-anchor="middle" x="1157.52" y="-276.16" font-family="Times,serif" font-size="32.00">of</text>
</g>
<!-- d&#45;&gt;of -->
<g id="edge5" class="edge">
<title>d&#45;&gt;of</title>
<path fill="none" stroke="#000000" d="M1411.59,-252.42C1404.91,-256.25 1397.41,-259.93 1390.04,-262.26 1325.07,-282.77 1245.16,-285.8 1198.23,-285.48"/>
<polygon fill="#000000" stroke="#000000" points="1198.21,-281.98 1188.17,-285.36 1198.13,-288.98 1198.21,-281.98"/>
<text text-anchor="middle" x="1313.54" y="-329.66" font-family="Times,serif" font-size="32.00">of</text>
<text text-anchor="middle" x="1313.54" y="-294.66" font-family="Times,serif" font-size="32.00">=d *k of</text>
</g>
<!-- about -->
<g id="node10" class="node">
<title>about</title>
<ellipse fill="none" stroke="black" cx="1157.52" cy="-191.26" rx="61.54" ry="30.31"/>
<text text-anchor="middle" x="1157.52" y="-183.16" font-family="Times,serif" font-size="32.00">about</text>
</g>
<!-- d&#45;&gt;about -->
<g id="edge6" class="edge">
<title>d&#45;&gt;about</title>
<path fill="none" stroke="#000000" d="M1417.41,-213.67C1410.08,-205.27 1400.7,-196.78 1390.04,-192.26 1337.68,-170.1 1272.51,-172.12 1224.66,-178.37"/>
<polygon fill="#000000" stroke="#000000" points="1224.14,-174.9 1214.72,-179.76 1225.11,-181.84 1224.14,-174.9"/>
<text text-anchor="middle" x="1313.54" y="-236.66" font-family="Times,serif" font-size="32.00">about</text>
<text text-anchor="middle" x="1313.54" y="-201.66" font-family="Times,serif" font-size="32.00">=d *k about</text>
</g>
<!-- 3 -->
<g id="node18" class="node">
<title>3</title>
<ellipse fill="none" stroke="black" cx="2145.54" cy="-909.26" rx="27" ry="30.31"/>
<text text-anchor="middle" x="2145.54" y="-901.16" font-family="Times,serif" font-size="32.00">3</text>
</g>
<!-- for&#45;&gt;3 -->
<g id="edge20" class="edge">
<title>for&#45;&gt;3</title>
<path fill="none" stroke="#000000" d="M1194.86,-725.54C1282.44,-734.73 1510.01,-766.27 1674.04,-857.26 1683.66,-862.6 1683.53,-867.28 1692.04,-874.26 1766.2,-935.12 1776.63,-970.1 1868.04,-999.26 1941.29,-1022.63 1978.13,-1043.47 2041.04,-999.26 2060.36,-985.68 2043.12,-966.71 2059.04,-949.26 2072.33,-934.68 2092.03,-924.97 2109.16,-918.77"/>
<polygon fill="#000000" stroke="#000000" points="2110.52,-922.01 2118.89,-915.52 2108.3,-915.37 2110.52,-922.01"/>
<text text-anchor="middle" x="1577.04" y="-901.66" font-family="Times,serif" font-size="32.00">hope</text>
<text text-anchor="middle" x="1577.04" y="-866.66" font-family="Times,serif" font-size="32.00">=for 3</text>
</g>
<!-- 0 -->
<g id="node11" class="node">
<title>0</title>
<ellipse fill="none" stroke="black" cx="229" cy="-919.26" rx="27" ry="30.31"/>
<text text-anchor="middle" x="229" y="-911.16" font-family="Times,serif" font-size="32.00">0</text>
</g>
<!-- 0&#45;&gt;t -->
<g id="edge7" class="edge">
<title>0&#45;&gt;t</title>
<path fill="none" stroke="#000000" d="M201.85,-919.26C166.67,-919.26 103.92,-919.26 64.21,-919.26"/>
<polygon fill="#000000" stroke="#000000" points="64.15,-915.76 54.15,-919.26 64.15,-922.76 64.15,-915.76"/>
<text text-anchor="middle" x="128" y="-998.66" font-family="Times,serif" font-size="32.00">s |</text>
<text text-anchor="middle" x="128" y="-963.66" font-family="Times,serif" font-size="32.00"> d</text>
<text text-anchor="middle" x="128" y="-928.66" font-family="Times,serif" font-size="32.00">=&gt;0 +k t</text>
</g>
<!-- 1 -->
<g id="node12" class="node">
<title>1</title>
<ellipse fill="none" stroke="black" cx="1435.04" cy="-1038.26" rx="27" ry="30.31"/>
<text text-anchor="middle" x="1435.04" y="-1030.16" font-family="Times,serif" font-size="32.00">1</text>
</g>
<!-- 2 -->
<g id="node13" class="node">
<title>2</title>
<ellipse fill="none" stroke="black" cx="1157.52" cy="-1038.26" rx="27" ry="30.31"/>
<text text-anchor="middle" x="1157.52" y="-1030.16" font-family="Times,serif" font-size="32.00">2</text>
</g>
<!-- 1&#45;&gt;2 -->
<g id="edge8" class="edge">
<title>1&#45;&gt;2</title>
<path fill="none" stroke="#000000" d="M1407.62,-1038.26C1358.14,-1038.26 1251.44,-1038.26 1195.09,-1038.26"/>
<polygon fill="#000000" stroke="#000000" points="1194.86,-1034.76 1184.86,-1038.26 1194.86,-1041.76 1194.86,-1034.76"/>
<text text-anchor="middle" x="1313.54" y="-1082.66" font-family="Times,serif" font-size="32.00">ε_0</text>
<text text-anchor="middle" x="1313.54" y="-1047.66" font-family="Times,serif" font-size="32.00">=&gt;1 =da 2</text>
</g>
<!-- v -->
<g id="node15" class="node">
<title>v</title>
<ellipse fill="none" stroke="black" cx="395" cy="-1012.26" rx="27" ry="30.31"/>
<text text-anchor="middle" x="395" y="-1004.16" font-family="Times,serif" font-size="32.00">v</text>
</g>
<!-- 2&#45;&gt;v -->
<g id="edge10" class="edge">
<title>2&#45;&gt;v</title>
<path fill="none" stroke="#000000" d="M1139.84,-1061.51C1125.65,-1079.13 1103.56,-1102.01 1078,-1112.26 863.5,-1198.3 780.5,-1177.78 558,-1115.26 505.87,-1100.61 454.65,-1063.07 424.19,-1037.59"/>
<polygon fill="#000000" stroke="#000000" points="426.42,-1034.89 416.54,-1031.07 421.88,-1040.22 426.42,-1034.89"/>
<text text-anchor="middle" x="744" y="-1212.66" font-family="Times,serif" font-size="32.00">ε_1</text>
<text text-anchor="middle" x="744" y="-1177.66" font-family="Times,serif" font-size="32.00">=&gt;2 v</text>
</g>
<!-- perf -->
<g id="node16" class="node">
<title>perf</title>
<ellipse fill="none" stroke="black" cx="608" cy="-953.26" rx="48.17" ry="30.31"/>
<text text-anchor="middle" x="608" y="-945.16" font-family="Times,serif" font-size="32.00">perf</text>
</g>
<!-- 2&#45;&gt;perf -->
<g id="edge11" class="edge">
<title>2&#45;&gt;perf</title>
<path fill="none" stroke="#000000" d="M1134.12,-1022.33C1096.57,-996.7 1017.56,-947.36 942,-929.26 914,-922.56 682.05,-933.32 676,-934.26 671.18,-935.01 666.21,-936 661.26,-937.13"/>
<polygon fill="#000000" stroke="#000000" points="660.05,-933.82 651.19,-939.62 661.73,-940.61 660.05,-933.82"/>
<text text-anchor="middle" x="886" y="-973.66" font-family="Times,serif" font-size="32.00">n</text>
<text text-anchor="middle" x="886" y="-938.66" font-family="Times,serif" font-size="32.00">=&gt;2 perf</text>
</g>
<!-- prog -->
<g id="node17" class="node">
<title>prog</title>
<ellipse fill="none" stroke="black" cx="886" cy="-1038.26" rx="52.15" ry="30.31"/>
<text text-anchor="middle" x="886" y="-1030.16" font-family="Times,serif" font-size="32.00">prog</text>
</g>
<!-- 2&#45;&gt;prog -->
<g id="edge12" class="edge">
<title>2&#45;&gt;prog</title>
<path fill="none" stroke="#000000" d="M1130.19,-1038.26C1088.39,-1038.26 1005.74,-1038.26 948.47,-1038.26"/>
<polygon fill="#000000" stroke="#000000" points="948.44,-1034.76 938.44,-1038.26 948.44,-1041.76 948.44,-1034.76"/>
<text text-anchor="middle" x="1019" y="-1082.66" font-family="Times,serif" font-size="32.00">ing</text>
<text text-anchor="middle" x="1019" y="-1047.66" font-family="Times,serif" font-size="32.00">=&gt;2 prog</text>
</g>
<!-- a -->
<g id="node14" class="node">
<title>a</title>
<ellipse fill="none" stroke="black" cx="1771.04" cy="-835.26" rx="27" ry="30.31"/>
<text text-anchor="middle" x="1771.04" y="-827.16" font-family="Times,serif" font-size="32.00">a</text>
</g>
<!-- a&#45;&gt;1 -->
<g id="edge9" class="edge">
<title>a&#45;&gt;1</title>
<path fill="none" stroke="#000000" d="M1753.66,-859.12C1736.62,-881.83 1707.75,-914.9 1674.04,-931.26 1595.92,-969.16 1551.54,-905.01 1480.04,-954.26 1464.4,-965.03 1453.92,-983.15 1447.12,-999.81"/>
<polygon fill="#000000" stroke="#000000" points="1443.77,-998.79 1443.54,-1009.39 1450.32,-1001.25 1443.77,-998.79"/>
<text text-anchor="middle" x="1577.04" y="-998.66" font-family="Times,serif" font-size="32.00">be</text>
<text text-anchor="middle" x="1577.04" y="-963.66" font-family="Times,serif" font-size="32.00">=a 1</text>
</g>
<!-- v&#45;&gt;0 -->
<g id="edge13" class="edge">
<title>v&#45;&gt;0</title>
<path fill="none" stroke="#000000" d="M367.84,-1013.36C341.87,-1013.18 302,-1009.36 274,-990.26 261.66,-981.84 252.13,-968.71 245.14,-956.01"/>
<polygon fill="#000000" stroke="#000000" points="248.16,-954.23 240.5,-946.92 241.93,-957.41 248.16,-954.23"/>
<text text-anchor="middle" x="312" y="-1057.66" font-family="Times,serif" font-size="32.00">will</text>
<text text-anchor="middle" x="312" y="-1022.66" font-family="Times,serif" font-size="32.00">=v 0</text>
</g>
<!-- v&#45;&gt;0 -->
<g id="edge15" class="edge">
<title>v&#45;&gt;0</title>
<path fill="none" stroke="#000000" d="M389.09,-982.33C383.67,-959.91 372.53,-930.72 350,-916.26 325.03,-900.24 290.71,-902.96 265.17,-908.54"/>
<polygon fill="#000000" stroke="#000000" points="264.06,-905.21 255.16,-910.97 265.71,-912.01 264.06,-905.21"/>
<text text-anchor="middle" x="312" y="-960.66" font-family="Times,serif" font-size="32.00">ε_2</text>
<text text-anchor="middle" x="312" y="-925.66" font-family="Times,serif" font-size="32.00">=&gt;v 0</text>
</g>
<!-- perf&#45;&gt;v -->
<g id="edge14" class="edge">
<title>perf&#45;&gt;v</title>
<path fill="none" stroke="#000000" d="M562.33,-943.22C527.19,-937.67 477.99,-935.26 440,-954.26 429.7,-959.41 421.16,-968.24 414.43,-977.48"/>
<polygon fill="#000000" stroke="#000000" points="411.39,-975.73 408.76,-985.99 417.22,-979.61 411.39,-975.73"/>
<text text-anchor="middle" x="490" y="-998.66" font-family="Times,serif" font-size="32.00">have</text>
<text text-anchor="middle" x="490" y="-963.66" font-family="Times,serif" font-size="32.00">=perf v</text>
</g>
<!-- prog&#45;&gt;0 -->
<g id="edge16" class="edge">
<title>prog&#45;&gt;0</title>
<path fill="none" stroke="#000000" d="M845.69,-1018.68C839.75,-1014.29 834.21,-1009.16 830,-1003.26 810.09,-975.36 836.34,-952.4 812,-928.26 723.91,-840.87 663.29,-879.35 540,-865.26 421.53,-851.72 387.64,-864.14 274,-900.26 270.65,-901.33 267.2,-902.56 263.79,-903.87"/>
<polygon fill="#000000" stroke="#000000" points="262.28,-900.71 254.34,-907.72 264.92,-907.19 262.28,-900.71"/>
<text text-anchor="middle" x="490" y="-909.66" font-family="Times,serif" font-size="32.00">be_1</text>
<text text-anchor="middle" x="490" y="-874.66" font-family="Times,serif" font-size="32.00">=prog 0</text>
</g>
<!-- prog&#45;&gt;v -->
<g id="edge17" class="edge">
<title>prog&#45;&gt;v</title>
<path fill="none" stroke="#000000" d="M833.59,-1040.53C750.38,-1043.34 581.22,-1045.44 440,-1024.26 437.14,-1023.83 434.19,-1023.28 431.25,-1022.65"/>
<polygon fill="#000000" stroke="#000000" points="431.92,-1019.21 421.38,-1020.27 430.28,-1026.01 431.92,-1019.21"/>
<text text-anchor="middle" x="608" y="-1085.66" font-family="Times,serif" font-size="32.00">be_2</text>
<text text-anchor="middle" x="608" y="-1050.66" font-family="Times,serif" font-size="32.00">=prog v</text>
</g>
<!-- prog&#45;&gt;perf -->
<g id="edge18" class="edge">
<title>prog&#45;&gt;perf</title>
<path fill="none" stroke="#000000" d="M851.26,-1015.43C843.61,-1009.19 835.99,-1001.99 830,-994.26 818.06,-978.85 828.34,-964.89 812,-954.26 767.73,-925.48 705.74,-930.05 661.94,-938.78"/>
<polygon fill="#000000" stroke="#000000" points="661.11,-935.38 652.06,-940.89 662.56,-942.23 661.11,-935.38"/>
<text text-anchor="middle" x="744" y="-998.66" font-family="Times,serif" font-size="32.00">ben</text>
<text text-anchor="middle" x="744" y="-963.66" font-family="Times,serif" font-size="32.00">=prog perf</text>
</g>
<!-- 3&#45;&gt;1 -->
<g id="edge19" class="edge">
<title>3&#45;&gt;1</title>
<path fill="none" stroke="#000000" d="M2118.73,-914.92C2099.49,-920.46 2074.06,-930.85 2059.04,-949.26 2037.37,-975.82 2067.71,-1002.73 2041.04,-1024.26 2029.93,-1033.23 1601.42,-1037.06 1472.42,-1038.01"/>
<polygon fill="#000000" stroke="#000000" points="1472.24,-1034.51 1462.26,-1038.09 1472.29,-1041.51 1472.24,-1034.51"/>
<text text-anchor="middle" x="1771.04" y="-1079.66" font-family="Times,serif" font-size="32.00">ε_3</text>
<text text-anchor="middle" x="1771.04" y="-1044.66" font-family="Times,serif" font-size="32.00">=&gt;3 1</text>
</g>
<!-- 3&#45;&gt;a -->
<g id="edge23" class="edge">
<title>3&#45;&gt;a</title>
<path fill="none" stroke="#000000" d="M2119.52,-900.57C2101.2,-893.28 2076.58,-881.45 2059.04,-865.26 2047.89,-854.97 2054.28,-843.66 2041.04,-836.26 2002.22,-814.57 1872.34,-824.59 1808.33,-831.15"/>
<polygon fill="#000000" stroke="#000000" points="1807.86,-827.68 1798.28,-832.21 1808.59,-834.64 1807.86,-827.68"/>
<text text-anchor="middle" x="1954.54" y="-880.66" font-family="Times,serif" font-size="32.00">ful</text>
<text text-anchor="middle" x="1954.54" y="-845.66" font-family="Times,serif" font-size="32.00">=&gt;3 a</text>
</g>
<!-- 4 -->
<g id="node19" class="node">
<title>4</title>
<ellipse fill="none" stroke="black" cx="1771.04" cy="-591.26" rx="27" ry="30.31"/>
<text text-anchor="middle" x="1771.04" y="-583.16" font-family="Times,serif" font-size="32.00">4</text>
</g>
<!-- 3&#45;&gt;4 -->
<g id="edge22" class="edge">
<title>3&#45;&gt;4</title>
<path fill="none" stroke="#000000" d="M2119.05,-903.35C2099.19,-897.3 2072.76,-885.81 2059.04,-865.26 2031.92,-824.65 2075.09,-681.26 2041.04,-646.26 2014.07,-618.54 1905.66,-636.23 1868.04,-627.26 1846.85,-622.21 1823.99,-613.76 1805.89,-606.32"/>
<polygon fill="#000000" stroke="#000000" points="1806.95,-602.97 1796.37,-602.32 1804.23,-609.42 1806.95,-602.97"/>
<text text-anchor="middle" x="1954.54" y="-690.66" font-family="Times,serif" font-size="32.00">ε_5</text>
<text text-anchor="middle" x="1954.54" y="-655.66" font-family="Times,serif" font-size="32.00">=&gt;3 4</text>
</g>
<!-- 4&#45;&gt;d -->
<g id="edge21" class="edge">
<title>4&#45;&gt;d</title>
<path fill="none" stroke="#000000" d="M1750.88,-570.96C1694.29,-510.98 1527.76,-334.48 1462.6,-265.42"/>
<polygon fill="#000000" stroke="#000000" points="1464.94,-262.8 1455.53,-257.92 1459.85,-267.6 1464.94,-262.8"/>
<text text-anchor="middle" x="1577.04" y="-531.66" font-family="Times,serif" font-size="32.00">ε_4</text>
<text text-anchor="middle" x="1577.04" y="-496.66" font-family="Times,serif" font-size="32.00">=&gt;4 poss= d &#45;k</text>
</g>
<!-- 5 -->
<g id="node20" class="node">
<title>5</title>
<ellipse fill="none" stroke="black" cx="2145.54" cy="-988.26" rx="27" ry="30.31"/>
<text text-anchor="middle" x="2145.54" y="-980.16" font-family="Times,serif" font-size="32.00">5</text>
</g>
<!-- 5&#45;&gt;1 -->
<g id="edge24" class="edge">
<title>5&#45;&gt;1</title>
<path fill="none" stroke="#000000" d="M2121.61,-1002.49C2091.45,-1021.19 2042.1,-1051.77 2041.04,-1052.26 1960.12,-1089.28 1937.99,-1098.77 1850.04,-1112.26 1685.37,-1137.52 1639.58,-1100.21 1480.04,-1052.26 1477.06,-1051.37 1473.98,-1050.42 1470.89,-1049.46"/>
<polygon fill="#000000" stroke="#000000" points="1471.71,-1046.05 1461.12,-1046.4 1469.61,-1052.73 1471.71,-1046.05"/>
<text text-anchor="middle" x="1771.04" y="-1164.66" font-family="Times,serif" font-size="32.00">ε_6</text>
<text text-anchor="middle" x="1771.04" y="-1129.66" font-family="Times,serif" font-size="32.00">=&gt;5 1</text>
</g>
<!-- 5&#45;&gt;4 -->
<g id="edge27" class="edge">
<title>5&#45;&gt;4</title>
<path fill="none" stroke="#000000" d="M2118.67,-984.15C2056.57,-973.75 1901.72,-944.48 1868.04,-906.26 1835.28,-869.09 1862.91,-844.1 1850.04,-796.26 1833.67,-735.45 1805.9,-667.67 1788.29,-627.29"/>
<polygon fill="#000000" stroke="#000000" points="1791.38,-625.62 1784.15,-617.88 1784.97,-628.44 1791.38,-625.62"/>
<text text-anchor="middle" x="1954.54" y="-1013.66" font-family="Times,serif" font-size="32.00">ε_8</text>
<text text-anchor="middle" x="1954.54" y="-978.66" font-family="Times,serif" font-size="32.00">=&gt;5 4</text>
</g>
<!-- 6 -->
<g id="node21" class="node">
<title>6</title>
<ellipse fill="none" stroke="black" cx="2495.04" cy="-978.26" rx="27" ry="30.31"/>
<text text-anchor="middle" x="2495.04" y="-970.16" font-family="Times,serif" font-size="32.00">6</text>
</g>
<!-- 6&#45;&gt;1 -->
<g id="edge30" class="edge">
<title>6&#45;&gt;1</title>
<path fill="none" stroke="#000000" d="M2484.79,-1006.61C2476.16,-1029.05 2461.24,-1059.77 2439.04,-1079.26 2238.6,-1255.23 2116.48,-1182.08 1850.04,-1194.26 1679.99,-1202.03 1612.92,-1201.66 1480.04,-1095.26 1471.53,-1088.45 1463.72,-1079.67 1457.11,-1071.05"/>
<polygon fill="#000000" stroke="#000000" points="1459.89,-1068.92 1451.16,-1062.91 1454.24,-1073.05 1459.89,-1068.92"/>
<text text-anchor="middle" x="1954.54" y="-1240.66" font-family="Times,serif" font-size="32.00">ε_10</text>
<text text-anchor="middle" x="1954.54" y="-1205.66" font-family="Times,serif" font-size="32.00">=&gt;6 =about 1</text>
</g>
<!-- 6&#45;&gt;a -->
<g id="edge32" class="edge">
<title>6&#45;&gt;a</title>
<path fill="none" stroke="#000000" d="M2481.46,-1004.64C2472.2,-1020.76 2457.94,-1039.99 2439.04,-1049.26 2361.83,-1087.12 1971.27,-1110.46 1868.04,-1043.26 1810.62,-1005.89 1787.01,-924.64 1777.7,-875.48"/>
<polygon fill="#000000" stroke="#000000" points="1781.13,-874.74 1775.93,-865.5 1774.23,-875.96 1781.13,-874.74"/>
<text text-anchor="middle" x="2145.54" y="-1129.66" font-family="Times,serif" font-size="32.00">ful_2</text>
<text text-anchor="middle" x="2145.54" y="-1094.66" font-family="Times,serif" font-size="32.00">=&gt;6 =about a</text>
</g>
<!-- 6&#45;&gt;4 -->
<g id="edge31" class="edge">
<title>6&#45;&gt;4</title>
<path fill="none" stroke="#000000" d="M2470.02,-966.54C2424.04,-943.37 2321.8,-888.31 2250.04,-823.26 2240.42,-814.54 2243.16,-806.96 2232.04,-800.26 2165.12,-759.96 2112.91,-825.82 2059.04,-769.26 2016.07,-724.16 2084.75,-674.64 2041.04,-630.26 2032.95,-622.05 1880.39,-603.64 1808.69,-595.39"/>
<polygon fill="#000000" stroke="#000000" points="1808.65,-591.87 1798.32,-594.21 1807.85,-598.82 1808.65,-591.87"/>
<text text-anchor="middle" x="2145.54" y="-844.66" font-family="Times,serif" font-size="32.00">ε_11</text>
<text text-anchor="middle" x="2145.54" y="-809.66" font-family="Times,serif" font-size="32.00">=&gt;6 =about 4</text>
</g>
<!-- 6&#45;&gt;5 -->
<g id="edge25" class="edge">
<title>6&#45;&gt;5</title>
<path fill="none" stroke="#000000" d="M2468.02,-977.66C2423.39,-976.79 2329.38,-975.65 2250.04,-979.26 2227.59,-980.28 2202.47,-982.44 2182.6,-984.39"/>
<polygon fill="#000000" stroke="#000000" points="2182.04,-980.93 2172.44,-985.41 2182.74,-987.89 2182.04,-980.93"/>
<text text-anchor="middle" x="2344.54" y="-1023.66" font-family="Times,serif" font-size="32.00">ε_7</text>
<text text-anchor="middle" x="2344.54" y="-988.66" font-family="Times,serif" font-size="32.00">=&gt;6 =of 5</text>
</g>
<!-- 7 -->
<g id="node23" class="node">
<title>7</title>
<ellipse fill="none" stroke="black" cx="2145.54" cy="-619.26" rx="27" ry="30.31"/>
<text text-anchor="middle" x="2145.54" y="-611.16" font-family="Times,serif" font-size="32.00">7</text>
</g>
<!-- 6&#45;&gt;7 -->
<g id="edge29" class="edge">
<title>6&#45;&gt;7</title>
<path fill="none" stroke="#000000" d="M2490.45,-948.08C2483.37,-893.7 2465.94,-782.35 2439.04,-755.26 2377.97,-693.77 2315.44,-764.12 2250.04,-707.26 2234.09,-693.4 2246.31,-678.84 2232.04,-663.26 2218.46,-648.45 2198.74,-637.84 2181.67,-630.75"/>
<polygon fill="#000000" stroke="#000000" points="2182.57,-627.35 2171.99,-626.98 2180.03,-633.87 2182.57,-627.35"/>
<text text-anchor="middle" x="2344.54" y="-799.66" font-family="Times,serif" font-size="32.00">ε_9</text>
<text text-anchor="middle" x="2344.54" y="-764.66" font-family="Times,serif" font-size="32.00">=&gt;6 7</text>
</g>
<!-- z3 -->
<g id="node22" class="node">
<title>z3</title>
<ellipse fill="none" stroke="black" stroke-dasharray="5,2" cx="2729.36" cy="-978.26" rx="27" ry="18"/>
</g>
<!-- z3&#45;&gt;6 -->
<g id="edge26" class="edge">
<title>z3&#45;&gt;6</title>
<path fill="none" stroke="#000000" d="M2702.16,-978.26C2660.57,-978.26 2579.33,-978.26 2532.21,-978.26"/>
<polygon fill="#000000" stroke="#000000" points="2532.14,-974.76 2522.14,-978.26 2532.14,-981.76 2532.14,-974.76"/>
<text text-anchor="middle" x="2605.04" y="-1022.66" font-family="Times,serif" font-size="32.00">boast</text>
<text text-anchor="middle" x="2605.04" y="-987.66" font-family="Times,serif" font-size="32.00">6</text>
</g>
<!-- 7&#45;&gt;a -->
<g id="edge28" class="edge">
<title>7&#45;&gt;a</title>
<path fill="none" stroke="#000000" d="M2119.06,-626.47C2100,-633.1 2074.64,-644.76 2059.04,-663.26 2041.91,-683.57 2061.09,-702.83 2041.04,-720.26 1982.19,-771.4 1938.29,-715.47 1868.04,-749.26 1840.39,-762.56 1814.82,-786.28 1797.03,-805.45"/>
<polygon fill="#000000" stroke="#000000" points="1794.25,-803.31 1790.14,-813.07 1799.44,-808 1794.25,-803.31"/>
<text text-anchor="middle" x="1954.54" y="-793.66" font-family="Times,serif" font-size="32.00">ful_1</text>
<text text-anchor="middle" x="1954.54" y="-758.66" font-family="Times,serif" font-size="32.00">=&gt;7 =of a</text>
</g>
<!-- 8 -->
<g id="node24" class="node">
<title>8</title>
<ellipse fill="none" stroke="black" cx="2145.54" cy="-457.26" rx="27" ry="30.31"/>
<text text-anchor="middle" x="2145.54" y="-449.16" font-family="Times,serif" font-size="32.00">8</text>
</g>
<!-- 8&#45;&gt;1 -->
<g id="edge33" class="edge">
<title>8&#45;&gt;1</title>
<path fill="none" stroke="#000000" d="M2118.87,-450.93C2045.8,-434.41 1832.87,-396.99 1692.04,-482.26 1503.55,-596.38 1452.45,-890.38 1439.84,-998.01"/>
<polygon fill="#000000" stroke="#000000" points="1436.34,-997.8 1438.7,-1008.13 1443.3,-998.58 1436.34,-997.8"/>
<text text-anchor="middle" x="1771.04" y="-526.66" font-family="Times,serif" font-size="32.00">ε_12</text>
<text text-anchor="middle" x="1771.04" y="-491.66" font-family="Times,serif" font-size="32.00">=&gt;8 =d *k 1</text>
</g>
<!-- 9 -->
<g id="node25" class="node">
<title>9</title>
<ellipse fill="none" stroke="black" cx="2729.36" cy="-520.26" rx="27" ry="30.31"/>
<text text-anchor="middle" x="2729.36" y="-512.16" font-family="Times,serif" font-size="32.00">9</text>
</g>
<!-- 9&#45;&gt;7 -->
<g id="edge38" class="edge">
<title>9&#45;&gt;7</title>
<path fill="none" stroke="#000000" d="M2703.43,-529.17C2666.64,-541.98 2595.41,-565.45 2533.04,-578.26 2405.99,-604.35 2251.83,-614.38 2182.9,-617.75"/>
<polygon fill="#000000" stroke="#000000" points="2182.41,-614.27 2172.58,-618.24 2182.74,-621.26 2182.41,-614.27"/>
<text text-anchor="middle" x="2495.04" y="-636.66" font-family="Times,serif" font-size="32.00">ε_16</text>
<text text-anchor="middle" x="2495.04" y="-601.66" font-family="Times,serif" font-size="32.00">=&gt;9 7</text>
</g>
<!-- 9&#45;&gt;8 -->
<g id="edge34" class="edge">
<title>9&#45;&gt;8</title>
<path fill="none" stroke="#000000" d="M2702.2,-518.5C2667.58,-516.1 2604.67,-511.49 2551.04,-506.26 2416.99,-493.18 2383.66,-488.07 2250.04,-471.26 2227.62,-468.44 2202.5,-465.05 2182.63,-462.31"/>
<polygon fill="#000000" stroke="#000000" points="2182.85,-458.81 2172.47,-460.9 2181.89,-465.74 2182.85,-458.81"/>
<text text-anchor="middle" x="2495.04" y="-548.66" font-family="Times,serif" font-size="32.00">ε_13</text>
<text text-anchor="middle" x="2495.04" y="-513.66" font-family="Times,serif" font-size="32.00">=&gt;9 8</text>
</g>
<!-- 10 -->
<g id="node27" class="node">
<title>10</title>
<ellipse fill="none" stroke="black" cx="2495.04" cy="-307.26" rx="33.88" ry="30.31"/>
<text text-anchor="middle" x="2495.04" y="-299.16" font-family="Times,serif" font-size="32.00">10</text>
</g>
<!-- 9&#45;&gt;10 -->
<g id="edge37" class="edge">
<title>9&#45;&gt;10</title>
<path fill="none" stroke="#000000" d="M2714.04,-494.99C2701.87,-475.89 2682.64,-450.58 2659.04,-436.26 2617.08,-410.8 2590.08,-443 2551.04,-413.26 2529.39,-396.77 2515.48,-369.33 2507.07,-346.49"/>
<polygon fill="#000000" stroke="#000000" points="2510.37,-345.34 2503.79,-337.04 2503.76,-347.63 2510.37,-345.34"/>
<text text-anchor="middle" x="2605.04" y="-480.66" font-family="Times,serif" font-size="32.00">ε_15</text>
<text text-anchor="middle" x="2605.04" y="-445.66" font-family="Times,serif" font-size="32.00">=&gt;9 10</text>
</g>
<!-- z4 -->
<g id="node26" class="node">
<title>z4</title>
<ellipse fill="none" stroke="black" stroke-dasharray="5,2" cx="2947.69" cy="-520.26" rx="27" ry="18"/>
</g>
<!-- z4&#45;&gt;9 -->
<g id="edge35" class="edge">
<title>z4&#45;&gt;9</title>
<path fill="none" stroke="#000000" d="M2920.59,-520.26C2882.18,-520.26 2810.27,-520.26 2766.71,-520.26"/>
<polygon fill="#000000" stroke="#000000" points="2766.55,-516.76 2756.55,-520.26 2766.55,-523.76 2766.55,-516.76"/>
<text text-anchor="middle" x="2851.19" y="-564.66" font-family="Times,serif" font-size="32.00">fear</text>
<text text-anchor="middle" x="2851.19" y="-529.66" font-family="Times,serif" font-size="32.00">9</text>
</g>
<!-- 10&#45;&gt;4 -->
<g id="edge36" class="edge">
<title>10&#45;&gt;4</title>
<path fill="none" stroke="#000000" d="M2463.63,-295.42C2455.74,-292.87 2447.17,-290.56 2439.04,-289.26 2270.26,-262.34 2208.94,-266.16 2059.04,-348.26 1950.33,-407.8 1845.02,-512.67 1797.85,-562.89"/>
<polygon fill="#000000" stroke="#000000" points="1795.05,-560.77 1790.79,-570.47 1800.17,-565.54 1795.05,-560.77"/>
<text text-anchor="middle" x="2145.54" y="-392.66" font-family="Times,serif" font-size="32.00">ε_14</text>
<text text-anchor="middle" x="2145.54" y="-357.66" font-family="Times,serif" font-size="32.00">=&gt;10 =of 4</text>
</g>
<!-- 10&#45;&gt;7 -->
<g id="edge41" class="edge">
<title>10&#45;&gt;7</title>
<path fill="none" stroke="#000000" d="M2479.36,-334.33C2469.8,-349.46 2455.97,-367.4 2439.04,-378.26 2366.44,-424.82 2311.32,-361.58 2250.04,-422.26 2225.98,-446.08 2245.93,-465.4 2232.04,-496.26 2216.37,-531.05 2190.58,-566.36 2171.42,-590.17"/>
<polygon fill="#000000" stroke="#000000" points="2168.56,-588.13 2164.94,-598.09 2173.98,-592.56 2168.56,-588.13"/>
<text text-anchor="middle" x="2344.54" y="-466.66" font-family="Times,serif" font-size="32.00">ε_18</text>
<text text-anchor="middle" x="2344.54" y="-431.66" font-family="Times,serif" font-size="32.00">=&gt;10 7</text>
</g>
<!-- 10&#45;&gt;8 -->
<g id="edge39" class="edge">
<title>10&#45;&gt;8</title>
<path fill="none" stroke="#000000" d="M2461.41,-302.6C2402.54,-294.94 2281.73,-282.94 2250.04,-308.26 2222.24,-330.47 2250.7,-355.97 2232.04,-386.26 2218.9,-407.58 2197.11,-425.52 2178.82,-438.04"/>
<polygon fill="#000000" stroke="#000000" points="2176.6,-435.32 2170.17,-443.74 2180.45,-441.16 2176.6,-435.32"/>
<text text-anchor="middle" x="2344.54" y="-352.66" font-family="Times,serif" font-size="32.00">ε_17</text>
<text text-anchor="middle" x="2344.54" y="-317.66" font-family="Times,serif" font-size="32.00">=&gt;10 8</text>
</g>
<!-- z5 -->
<g id="node28" class="node">
<title>z5</title>
<ellipse fill="none" stroke="black" stroke-dasharray="5,2" cx="2729.36" cy="-307.26" rx="27" ry="18"/>
</g>
<!-- z5&#45;&gt;10 -->
<g id="edge40" class="edge">
<title>z5&#45;&gt;10</title>
<path fill="none" stroke="#000000" d="M2702.16,-307.26C2662.58,-307.26 2587.1,-307.26 2539.29,-307.26"/>
<polygon fill="#000000" stroke="#000000" points="2539.23,-303.76 2529.23,-307.26 2539.23,-310.76 2539.23,-303.76"/>
<text text-anchor="middle" x="2605.04" y="-386.66" font-family="Times,serif" font-size="32.00">neglect |</text>
<text text-anchor="middle" x="2605.04" y="-351.66" font-family="Times,serif" font-size="32.00"> scorn</text>
<text text-anchor="middle" x="2605.04" y="-316.66" font-family="Times,serif" font-size="32.00">10</text>
</g>
<!-- z6 -->
<g id="node29" class="node">
<title>z6</title>
<ellipse fill="none" stroke="black" stroke-dasharray="5,2" cx="2729.36" cy="-721.26" rx="27" ry="18"/>
</g>
<!-- 11 -->
<g id="node30" class="node">
<title>11</title>
<ellipse fill="none" stroke="black" cx="2495.04" cy="-721.26" rx="33.88" ry="30.31"/>
<text text-anchor="middle" x="2495.04" y="-713.16" font-family="Times,serif" font-size="32.00">11</text>
</g>
<!-- z6&#45;&gt;11 -->
<g id="edge42" class="edge">
<title>z6&#45;&gt;11</title>
<path fill="none" stroke="#000000" d="M2702.16,-721.26C2662.58,-721.26 2587.1,-721.26 2539.29,-721.26"/>
<polygon fill="#000000" stroke="#000000" points="2539.23,-717.76 2529.23,-721.26 2539.23,-724.76 2539.23,-717.76"/>
<text text-anchor="middle" x="2605.04" y="-800.66" font-family="Times,serif" font-size="32.00">respect |</text>
<text text-anchor="middle" x="2605.04" y="-765.66" font-family="Times,serif" font-size="32.00"> disdain</text>
<text text-anchor="middle" x="2605.04" y="-730.66" font-family="Times,serif" font-size="32.00">11</text>
</g>
<!-- 11&#45;&gt;4 -->
<g id="edge43" class="edge">
<title>11&#45;&gt;4</title>
<path fill="none" stroke="#000000" d="M2482.59,-749.73C2473.66,-767.78 2459.33,-789.66 2439.04,-800.26 2401.81,-819.7 2282.24,-827.23 2250.04,-800.26 2215.08,-770.98 2263.36,-732.4 2232.04,-699.26 2177.76,-641.83 2117.49,-711.43 2059.04,-658.26 2040.63,-641.52 2060.88,-620.27 2041.04,-605.26 1972.22,-553.2 1862.86,-568.91 1807.15,-581.75"/>
<polygon fill="#000000" stroke="#000000" points="1806.3,-578.35 1797.39,-584.09 1807.94,-585.16 1806.3,-578.35"/>
<text text-anchor="middle" x="2145.54" y="-743.66" font-family="Times,serif" font-size="32.00">ε_19</text>
<text text-anchor="middle" x="2145.54" y="-708.66" font-family="Times,serif" font-size="32.00">=&gt;11 =for 4</text>
</g>
<!-- 11&#45;&gt;7 -->
<g id="edge45" class="edge">
<title>11&#45;&gt;7</title>
<path fill="none" stroke="#000000" d="M2472.41,-697.98C2467.01,-691.54 2461.5,-684.36 2457.04,-677.26 2446.66,-660.75 2455.07,-648.34 2439.04,-637.26 2398.51,-609.26 2251.94,-613.32 2182.94,-616.96"/>
<polygon fill="#000000" stroke="#000000" points="2182.35,-613.49 2172.55,-617.53 2182.73,-620.48 2182.35,-613.49"/>
<text text-anchor="middle" x="2344.54" y="-681.66" font-family="Times,serif" font-size="32.00">ε_21</text>
<text text-anchor="middle" x="2344.54" y="-646.66" font-family="Times,serif" font-size="32.00">=&gt;11 7</text>
</g>
<!-- 11&#45;&gt;8 -->
<g id="edge44" class="edge">
<title>11&#45;&gt;8</title>
<path fill="none" stroke="#000000" d="M2471.34,-699.21C2465.81,-692.66 2460.5,-685.11 2457.04,-677.26 2432.43,-621.47 2479.89,-586.52 2439.04,-541.26 2381.18,-477.17 2332.6,-521.53 2250.04,-496.26 2226.53,-489.06 2200.64,-479.31 2180.64,-471.36"/>
<polygon fill="#000000" stroke="#000000" points="2181.91,-468.1 2171.33,-467.62 2179.3,-474.59 2181.91,-468.1"/>
<text text-anchor="middle" x="2344.54" y="-585.66" font-family="Times,serif" font-size="32.00">ε_20</text>
<text text-anchor="middle" x="2344.54" y="-550.66" font-family="Times,serif" font-size="32.00">=&gt;11 8</text>
</g>
<!-- z7 -->
<g id="node31" class="node">
<title>z7</title>
<ellipse fill="none" stroke="black" stroke-dasharray="5,2" cx="2947.69" cy="-181.26" rx="27" ry="18"/>
</g>
<!-- 12 -->
<g id="node32" class="node">
<title>12</title>
<ellipse fill="none" stroke="black" cx="2729.36" cy="-181.26" rx="33.88" ry="30.31"/>
<text text-anchor="middle" x="2729.36" y="-173.16" font-family="Times,serif" font-size="32.00">12</text>
</g>
<!-- z7&#45;&gt;12 -->
<g id="edge46" class="edge">
<title>z7&#45;&gt;12</title>
<path fill="none" stroke="#000000" d="M2920.59,-181.26C2884.18,-181.26 2817.67,-181.26 2773.74,-181.26"/>
<polygon fill="#000000" stroke="#000000" points="2773.63,-177.76 2763.63,-181.26 2773.63,-184.76 2773.63,-177.76"/>
<text text-anchor="middle" x="2851.19" y="-225.66" font-family="Times,serif" font-size="32.00">doubt</text>
<text text-anchor="middle" x="2851.19" y="-190.66" font-family="Times,serif" font-size="32.00">12</text>
</g>
<!-- 12&#45;&gt;a -->
<g id="edge49" class="edge">
<title>12&#45;&gt;a</title>
<path fill="none" stroke="#000000" d="M2695.47,-178.78C2598.03,-172.17 2313.77,-158.59 2250.04,-219.26 2204.92,-262.21 2271.35,-309.93 2232.04,-358.26 2180.68,-421.39 2127.23,-373.85 2059.04,-418.26 1954.69,-486.22 1937.07,-519.62 1868.04,-623.26 1830.34,-679.84 1800.73,-753.64 1784.85,-797.57"/>
<polygon fill="#000000" stroke="#000000" points="1781.55,-796.41 1781.49,-807.01 1788.14,-798.76 1781.55,-796.41"/>
<text text-anchor="middle" x="2344.54" y="-263.66" font-family="Times,serif" font-size="32.00">ful_3</text>
<text text-anchor="middle" x="2344.54" y="-228.66" font-family="Times,serif" font-size="32.00">=&gt;12 =about a</text>
</g>
<!-- 12&#45;&gt;4 -->
<g id="edge48" class="edge">
<title>12&#45;&gt;4</title>
<path fill="none" stroke="#000000" d="M2699.2,-166.81C2623.61,-131.32 2415.67,-46.4 2250.04,-97.26 2053.95,-157.47 1972.15,-179.53 1868.04,-356.26 1845.39,-394.71 1875.94,-519.93 1850.04,-556.26 1840.07,-570.24 1823.19,-578.73 1807.67,-583.84"/>
<polygon fill="#000000" stroke="#000000" points="1806.38,-580.57 1797.76,-586.73 1808.34,-587.29 1806.38,-580.57"/>
<text text-anchor="middle" x="2344.54" y="-141.66" font-family="Times,serif" font-size="32.00">ε_23</text>
<text text-anchor="middle" x="2344.54" y="-106.66" font-family="Times,serif" font-size="32.00">=&gt;12 =about 4</text>
</g>
<!-- 12&#45;&gt;10 -->
<g id="edge47" class="edge">
<title>12&#45;&gt;10</title>
<path fill="none" stroke="#000000" d="M2696.28,-188.09C2651.91,-197.96 2574.6,-216.85 2551.04,-233.26 2537.03,-243.02 2525.15,-257.49 2516.05,-271.05"/>
<polygon fill="#000000" stroke="#000000" points="2512.91,-269.46 2510.48,-279.77 2518.81,-273.23 2512.91,-269.46"/>
<text text-anchor="middle" x="2605.04" y="-277.66" font-family="Times,serif" font-size="32.00">ε_22</text>
<text text-anchor="middle" x="2605.04" y="-242.66" font-family="Times,serif" font-size="32.00">=&gt;12 10</text>
</g>
</g>
</svg>
