<?xml version="1.0" encoding="UTF-8" standalone="no"?>
<!DOCTYPE svg PUBLIC "-//W3C//DTD SVG 1.1//EN"
 "http://www.w3.org/Graphics/SVG/1.1/DTD/svg11.dtd">
<!-- Generated by graphviz version 2.47.1 (20210417.1919)
 -->
<!-- Title: G Pages: 1 -->
<svg width="2975pt" height="1228pt"
 viewBox="0.00 0.00 2974.57 1228.03" xmlns="http://www.w3.org/2000/svg" xmlns:xlink="http://www.w3.org/1999/xlink">
<g id="graph0" class="graph" transform="scale(1 1) rotate(0) translate(4 1224.03)">
<title>G</title>
<polygon fill="white" stroke="transparent" points="-4,4 -4,-1224.03 2970.57,-1224.03 2970.57,4 -4,4"/>
<text text-anchor="middle" x="1483.29" y="-13.4" font-family="Times,serif" font-size="32.00">replacement: =&gt;9 8 with =&gt;9 10, =&gt;10 8; =&gt;9 7 with =&gt;9 10, =&gt;10 7</text>
<!-- t -->
<g id="node1" class="node">
<title>t</title>
<ellipse fill="lightgray" stroke="black" cx="27" cy="-776.03" rx="27" ry="30.31"/>
<text text-anchor="middle" x="27" y="-767.93" font-family="Times,serif" font-size="32.00">t</text>
</g>
<!-- z0 -->
<g id="node2" class="node">
<title>z0</title>
<ellipse fill="none" stroke="black" stroke-dasharray="5,2" cx="2939.57" cy="-987.03" rx="27" ry="18"/>
</g>
<!-- da -->
<g id="node3" class="node">
<title>da</title>
<ellipse fill="none" stroke="black" cx="2721.24" cy="-987.03" rx="33.47" ry="30.31"/>
<text text-anchor="middle" x="2721.24" y="-978.93" font-family="Times,serif" font-size="32.00">da</text>
</g>
<!-- z0&#45;&gt;da -->
<g id="edge1" class="edge">
<title>z0&#45;&gt;da</title>
<path fill="none" stroke="#000000" d="M2912.48,-987.03C2875.86,-987.03 2808.79,-987.03 2764.87,-987.03"/>
<polygon fill="#000000" stroke="#000000" points="2764.78,-983.53 2754.78,-987.03 2764.78,-990.53 2764.78,-983.53"/>
<text text-anchor="middle" x="2843.07" y="-1066.43" font-family="Times,serif" font-size="32.00">Mary |</text>
<text text-anchor="middle" x="2843.07" y="-1031.43" font-family="Times,serif" font-size="32.00"> John</text>
<text text-anchor="middle" x="2843.07" y="-996.43" font-family="Times,serif" font-size="32.00">da &#45;k</text>
</g>
<!-- z1 -->
<g id="node4" class="node">
<title>z1</title>
<ellipse fill="none" stroke="black" stroke-dasharray="5,2" cx="2939.57" cy="-1115.03" rx="27" ry="18"/>
</g>
<!-- poss -->
<g id="node5" class="node">
<title>poss</title>
<ellipse fill="none" stroke="black" cx="2721.24" cy="-1115.03" rx="52.15" ry="30.31"/>
<text text-anchor="middle" x="2721.24" y="-1106.93" font-family="Times,serif" font-size="32.00">poss</text>
</g>
<!-- z1&#45;&gt;poss -->
<g id="edge2" class="edge">
<title>z1&#45;&gt;poss</title>
<path fill="none" stroke="#000000" d="M2912.48,-1115.03C2880.81,-1115.03 2826.39,-1115.03 2783.84,-1115.03"/>
<polygon fill="#000000" stroke="#000000" points="2783.58,-1111.53 2773.58,-1115.03 2783.58,-1118.53 2783.58,-1111.53"/>
<text text-anchor="middle" x="2843.07" y="-1194.43" font-family="Times,serif" font-size="32.00">Mary&#39;s |</text>
<text text-anchor="middle" x="2843.07" y="-1159.43" font-family="Times,serif" font-size="32.00"> John&#39;s</text>
<text text-anchor="middle" x="2843.07" y="-1124.43" font-family="Times,serif" font-size="32.00">poss</text>
</g>
<!-- z2 -->
<g id="node6" class="node">
<title>z2</title>
<ellipse fill="none" stroke="black" stroke-dasharray="5,2" cx="1771.04" cy="-251.03" rx="27" ry="18"/>
</g>
<!-- d -->
<g id="node7" class="node">
<title>d</title>
<ellipse fill="none" stroke="black" cx="1435.04" cy="-292.03" rx="27" ry="30.31"/>
<text text-anchor="middle" x="1435.04" y="-283.93" font-family="Times,serif" font-size="32.00">d</text>
</g>
<!-- z2&#45;&gt;d -->
<g id="edge3" class="edge">
<title>z2&#45;&gt;d</title>
<path fill="none" stroke="#000000" d="M1745.27,-245.36C1693.76,-234.78 1572.25,-216.19 1480.04,-252.03 1473.44,-254.59 1467.23,-258.65 1461.66,-263.21"/>
<polygon fill="#000000" stroke="#000000" points="1459.05,-260.85 1453.99,-270.16 1463.75,-266.04 1459.05,-260.85"/>
<text text-anchor="middle" x="1577.04" y="-296.43" font-family="Times,serif" font-size="32.00">the&#45;cause</text>
<text text-anchor="middle" x="1577.04" y="-261.43" font-family="Times,serif" font-size="32.00">d &#45;k</text>
</g>
<!-- for -->
<g id="node8" class="node">
<title>for</title>
<ellipse fill="none" stroke="black" cx="1157.52" cy="-427.03" rx="37.45" ry="30.31"/>
<text text-anchor="middle" x="1157.52" y="-418.93" font-family="Times,serif" font-size="32.00">for</text>
</g>
<!-- d&#45;&gt;for -->
<g id="edge4" class="edge">
<title>d&#45;&gt;for</title>
<path fill="none" stroke="#000000" d="M1423.66,-319.87C1416.54,-335.06 1405.54,-352.81 1390.04,-363.03 1332.62,-400.86 1302.41,-364.71 1237.04,-386.03 1223.27,-390.51 1209.01,-397.25 1196.48,-403.97"/>
<polygon fill="#000000" stroke="#000000" points="1194.75,-400.92 1187.7,-408.82 1198.14,-407.05 1194.75,-400.92"/>
<text text-anchor="middle" x="1313.54" y="-430.43" font-family="Times,serif" font-size="32.00">for</text>
<text text-anchor="middle" x="1313.54" y="-395.43" font-family="Times,serif" font-size="32.00">=d *k for</text>
</g>
<!-- of -->
<g id="node9" class="node">
<title>of</title>
<ellipse fill="none" stroke="black" cx="1157.52" cy="-292.03" rx="30.31" ry="30.31"/>
<text text-anchor="middle" x="1157.52" y="-283.93" font-family="Times,serif" font-size="32.00">of</text>
</g>
<!-- d&#45;&gt;of -->
<g id="edge5" class="edge">
<title>d&#45;&gt;of</title>
<path fill="none" stroke="#000000" d="M1407.62,-292.03C1359.06,-292.03 1255.36,-292.03 1198.26,-292.03"/>
<polygon fill="#000000" stroke="#000000" points="1198.17,-288.53 1188.17,-292.03 1198.16,-295.53 1198.17,-288.53"/>
<text text-anchor="middle" x="1313.54" y="-336.43" font-family="Times,serif" font-size="32.00">of</text>
<text text-anchor="middle" x="1313.54" y="-301.43" font-family="Times,serif" font-size="32.00">=d *k of</text>
</g>
<!-- about -->
<g id="node10" class="node">
<title>about</title>
<ellipse fill="none" stroke="black" cx="1157.52" cy="-199.03" rx="61.54" ry="30.31"/>
<text text-anchor="middle" x="1157.52" y="-190.93" font-family="Times,serif" font-size="32.00">about</text>
</g>
<!-- d&#45;&gt;about -->
<g id="edge6" class="edge">
<title>d&#45;&gt;about</title>
<path fill="none" stroke="#000000" d="M1424.69,-263.74C1417.78,-247.53 1406.65,-228.39 1390.04,-218.03 1341.49,-187.72 1275.63,-185.17 1226.56,-188.92"/>
<polygon fill="#000000" stroke="#000000" points="1226.02,-185.46 1216.36,-189.81 1226.62,-192.43 1226.02,-185.46"/>
<text text-anchor="middle" x="1313.54" y="-262.43" font-family="Times,serif" font-size="32.00">about</text>
<text text-anchor="middle" x="1313.54" y="-227.43" font-family="Times,serif" font-size="32.00">=d *k about</text>
</g>
<!-- 3 -->
<g id="node18" class="node">
<title>3</title>
<ellipse fill="none" stroke="black" cx="2145.54" cy="-614.03" rx="27" ry="30.31"/>
<text text-anchor="middle" x="2145.54" y="-605.93" font-family="Times,serif" font-size="32.00">3</text>
</g>
<!-- for&#45;&gt;3 -->
<g id="edge20" class="edge">
<title>for&#45;&gt;3</title>
<path fill="none" stroke="#000000" d="M1191.29,-440.79C1205.2,-446.2 1221.71,-452.04 1237.04,-456.03 1587.06,-546.9 1689.05,-498.07 2041.04,-581.03 2064.44,-586.54 2090.19,-594.74 2110.16,-601.59"/>
<polygon fill="#000000" stroke="#000000" points="2109.15,-604.95 2119.74,-604.93 2111.45,-598.34 2109.15,-604.95"/>
<text text-anchor="middle" x="1577.04" y="-569.43" font-family="Times,serif" font-size="32.00">hope</text>
<text text-anchor="middle" x="1577.04" y="-534.43" font-family="Times,serif" font-size="32.00">=for 3</text>
</g>
<!-- 0 -->
<g id="node11" class="node">
<title>0</title>
<ellipse fill="none" stroke="black" cx="229" cy="-776.03" rx="27" ry="30.31"/>
<text text-anchor="middle" x="229" y="-767.93" font-family="Times,serif" font-size="32.00">0</text>
</g>
<!-- 0&#45;&gt;t -->
<g id="edge7" class="edge">
<title>0&#45;&gt;t</title>
<path fill="none" stroke="#000000" d="M201.85,-776.03C166.67,-776.03 103.92,-776.03 64.21,-776.03"/>
<polygon fill="#000000" stroke="#000000" points="64.15,-772.53 54.15,-776.03 64.15,-779.53 64.15,-772.53"/>
<text text-anchor="middle" x="128" y="-855.43" font-family="Times,serif" font-size="32.00">s |</text>
<text text-anchor="middle" x="128" y="-820.43" font-family="Times,serif" font-size="32.00"> d</text>
<text text-anchor="middle" x="128" y="-785.43" font-family="Times,serif" font-size="32.00">=&gt;0 +k t</text>
</g>
<!-- 1 -->
<g id="node12" class="node">
<title>1</title>
<ellipse fill="none" stroke="black" cx="1435.04" cy="-810.03" rx="27" ry="30.31"/>
<text text-anchor="middle" x="1435.04" y="-801.93" font-family="Times,serif" font-size="32.00">1</text>
</g>
<!-- 2 -->
<g id="node13" class="node">
<title>2</title>
<ellipse fill="none" stroke="black" cx="1157.52" cy="-810.03" rx="27" ry="30.31"/>
<text text-anchor="middle" x="1157.52" y="-801.93" font-family="Times,serif" font-size="32.00">2</text>
</g>
<!-- 1&#45;&gt;2 -->
<g id="edge8" class="edge">
<title>1&#45;&gt;2</title>
<path fill="none" stroke="#000000" d="M1407.62,-810.03C1358.14,-810.03 1251.44,-810.03 1195.09,-810.03"/>
<polygon fill="#000000" stroke="#000000" points="1194.86,-806.53 1184.86,-810.03 1194.86,-813.53 1194.86,-806.53"/>
<text text-anchor="middle" x="1313.54" y="-854.43" font-family="Times,serif" font-size="32.00">ε_0</text>
<text text-anchor="middle" x="1313.54" y="-819.43" font-family="Times,serif" font-size="32.00">=&gt;1 =da 2</text>
</g>
<!-- v -->
<g id="node15" class="node">
<title>v</title>
<ellipse fill="none" stroke="black" cx="395" cy="-869.03" rx="27" ry="30.31"/>
<text text-anchor="middle" x="395" y="-860.93" font-family="Times,serif" font-size="32.00">v</text>
</g>
<!-- 2&#45;&gt;v -->
<g id="edge10" class="edge">
<title>2&#45;&gt;v</title>
<path fill="none" stroke="#000000" d="M1138.91,-832.26C1124.37,-849.08 1102.24,-871.37 1078,-884.03 908.93,-972.29 847.7,-952.37 658,-972.03 613.79,-976.61 600.82,-983.92 558,-972.03 499.03,-955.65 491.02,-934.84 440,-901.03 435.59,-898.1 430.99,-894.92 426.52,-891.74"/>
<polygon fill="#000000" stroke="#000000" points="428.28,-888.7 418.12,-885.69 424.18,-894.37 428.28,-888.7"/>
<text text-anchor="middle" x="744" y="-1013.43" font-family="Times,serif" font-size="32.00">ε_1</text>
<text text-anchor="middle" x="744" y="-978.43" font-family="Times,serif" font-size="32.00">=&gt;2 v</text>
</g>
<!-- perf -->
<g id="node16" class="node">
<title>perf</title>
<ellipse fill="none" stroke="black" cx="608" cy="-810.03" rx="48.17" ry="30.31"/>
<text text-anchor="middle" x="608" y="-801.93" font-family="Times,serif" font-size="32.00">perf</text>
</g>
<!-- 2&#45;&gt;perf -->
<g id="edge11" class="edge">
<title>2&#45;&gt;perf</title>
<path fill="none" stroke="#000000" d="M1134.12,-794.09C1096.57,-768.46 1017.56,-719.12 942,-701.03 893.59,-689.43 878.48,-689.72 830,-701.03 762.96,-716.66 692.88,-755.71 650.07,-782.55"/>
<polygon fill="#000000" stroke="#000000" points="648.19,-779.6 641.62,-787.92 651.94,-785.51 648.19,-779.6"/>
<text text-anchor="middle" x="886" y="-745.43" font-family="Times,serif" font-size="32.00">n</text>
<text text-anchor="middle" x="886" y="-710.43" font-family="Times,serif" font-size="32.00">=&gt;2 perf</text>
</g>
<!-- prog -->
<g id="node17" class="node">
<title>prog</title>
<ellipse fill="none" stroke="black" cx="886" cy="-810.03" rx="52.15" ry="30.31"/>
<text text-anchor="middle" x="886" y="-801.93" font-family="Times,serif" font-size="32.00">prog</text>
</g>
<!-- 2&#45;&gt;prog -->
<g id="edge12" class="edge">
<title>2&#45;&gt;prog</title>
<path fill="none" stroke="#000000" d="M1130.19,-810.03C1088.39,-810.03 1005.74,-810.03 948.47,-810.03"/>
<polygon fill="#000000" stroke="#000000" points="948.44,-806.53 938.44,-810.03 948.44,-813.53 948.44,-806.53"/>
<text text-anchor="middle" x="1019" y="-854.43" font-family="Times,serif" font-size="32.00">ing</text>
<text text-anchor="middle" x="1019" y="-819.43" font-family="Times,serif" font-size="32.00">=&gt;2 prog</text>
</g>
<!-- a -->
<g id="node14" class="node">
<title>a</title>
<ellipse fill="none" stroke="black" cx="1771.04" cy="-810.03" rx="27" ry="30.31"/>
<text text-anchor="middle" x="1771.04" y="-801.93" font-family="Times,serif" font-size="32.00">a</text>
</g>
<!-- a&#45;&gt;1 -->
<g id="edge9" class="edge">
<title>a&#45;&gt;1</title>
<path fill="none" stroke="#000000" d="M1743.83,-810.03C1684.56,-810.03 1540.13,-810.03 1472.32,-810.03"/>
<polygon fill="#000000" stroke="#000000" points="1472.12,-806.53 1462.12,-810.03 1472.12,-813.53 1472.12,-806.53"/>
<text text-anchor="middle" x="1577.04" y="-854.43" font-family="Times,serif" font-size="32.00">be</text>
<text text-anchor="middle" x="1577.04" y="-819.43" font-family="Times,serif" font-size="32.00">=a 1</text>
</g>
<!-- v&#45;&gt;0 -->
<g id="edge13" class="edge">
<title>v&#45;&gt;0</title>
<path fill="none" stroke="#000000" d="M367.84,-870.12C341.87,-869.94 302,-866.12 274,-847.03 261.66,-838.61 252.13,-825.47 245.14,-812.77"/>
<polygon fill="#000000" stroke="#000000" points="248.16,-811 240.5,-803.68 241.93,-814.18 248.16,-811"/>
<text text-anchor="middle" x="312" y="-914.43" font-family="Times,serif" font-size="32.00">will</text>
<text text-anchor="middle" x="312" y="-879.43" font-family="Times,serif" font-size="32.00">=v 0</text>
</g>
<!-- v&#45;&gt;0 -->
<g id="edge15" class="edge">
<title>v&#45;&gt;0</title>
<path fill="none" stroke="#000000" d="M389.09,-839.09C383.67,-816.67 372.53,-787.48 350,-773.03 325.03,-757 290.71,-759.73 265.17,-765.31"/>
<polygon fill="#000000" stroke="#000000" points="264.06,-761.98 255.16,-767.73 265.71,-768.78 264.06,-761.98"/>
<text text-anchor="middle" x="312" y="-817.43" font-family="Times,serif" font-size="32.00">ε_2</text>
<text text-anchor="middle" x="312" y="-782.43" font-family="Times,serif" font-size="32.00">=&gt;v 0</text>
</g>
<!-- perf&#45;&gt;v -->
<g id="edge14" class="edge">
<title>perf&#45;&gt;v</title>
<path fill="none" stroke="#000000" d="M562.33,-799.99C527.19,-794.44 477.99,-792.02 440,-811.03 429.7,-816.18 421.16,-825.01 414.43,-834.25"/>
<polygon fill="#000000" stroke="#000000" points="411.39,-832.49 408.76,-842.75 417.22,-836.37 411.39,-832.49"/>
<text text-anchor="middle" x="490" y="-855.43" font-family="Times,serif" font-size="32.00">have</text>
<text text-anchor="middle" x="490" y="-820.43" font-family="Times,serif" font-size="32.00">=perf v</text>
</g>
<!-- prog&#45;&gt;0 -->
<g id="edge16" class="edge">
<title>prog&#45;&gt;0</title>
<path fill="none" stroke="#000000" d="M842.44,-792.87C763.68,-763.09 589.61,-706.43 440,-722.03 365.01,-729.85 345.86,-734.19 274,-757.03 270.65,-758.09 267.2,-759.32 263.79,-760.64"/>
<polygon fill="#000000" stroke="#000000" points="262.28,-757.47 254.34,-764.49 264.92,-763.95 262.28,-757.47"/>
<text text-anchor="middle" x="490" y="-766.43" font-family="Times,serif" font-size="32.00">be_1</text>
<text text-anchor="middle" x="490" y="-731.43" font-family="Times,serif" font-size="32.00">=prog 0</text>
</g>
<!-- prog&#45;&gt;v -->
<g id="edge17" class="edge">
<title>prog&#45;&gt;v</title>
<path fill="none" stroke="#000000" d="M865.13,-838.04C852.07,-853.92 833.46,-872.31 812,-881.03 735.41,-912.13 521.94,-892 440,-881.03 437.13,-880.64 434.18,-880.12 431.24,-879.51"/>
<polygon fill="#000000" stroke="#000000" points="431.89,-876.07 421.36,-877.17 430.28,-882.88 431.89,-876.07"/>
<text text-anchor="middle" x="608" y="-942.43" font-family="Times,serif" font-size="32.00">be_2</text>
<text text-anchor="middle" x="608" y="-907.43" font-family="Times,serif" font-size="32.00">=prog v</text>
</g>
<!-- prog&#45;&gt;perf -->
<g id="edge18" class="edge">
<title>prog&#45;&gt;perf</title>
<path fill="none" stroke="#000000" d="M833.41,-810.03C785.92,-810.03 715.6,-810.03 666.36,-810.03"/>
<polygon fill="#000000" stroke="#000000" points="666.19,-806.53 656.19,-810.03 666.19,-813.53 666.19,-806.53"/>
<text text-anchor="middle" x="744" y="-854.43" font-family="Times,serif" font-size="32.00">ben</text>
<text text-anchor="middle" x="744" y="-819.43" font-family="Times,serif" font-size="32.00">=prog perf</text>
</g>
<!-- 3&#45;&gt;1 -->
<g id="edge19" class="edge">
<title>3&#45;&gt;1</title>
<path fill="none" stroke="#000000" d="M2118.97,-606.94C2069.69,-594.41 1958.44,-571.59 1868.04,-593.03 1705.86,-631.47 1535.34,-740.85 1467.01,-787.98"/>
<polygon fill="#000000" stroke="#000000" points="1464.65,-785.36 1458.43,-793.94 1468.64,-791.1 1464.65,-785.36"/>
<text text-anchor="middle" x="1771.04" y="-700.43" font-family="Times,serif" font-size="32.00">ε_3</text>
<text text-anchor="middle" x="1771.04" y="-665.43" font-family="Times,serif" font-size="32.00">=&gt;3 1</text>
</g>
<!-- 3&#45;&gt;a -->
<g id="edge23" class="edge">
<title>3&#45;&gt;a</title>
<path fill="none" stroke="#000000" d="M2123.61,-632.43C2103.8,-648.71 2072.5,-671.59 2041.04,-683.03 1968.34,-709.45 1936.76,-666.53 1868.04,-702.03 1835.54,-718.81 1808.92,-751.51 1792.02,-776.55"/>
<polygon fill="#000000" stroke="#000000" points="1789,-774.77 1786.46,-785.05 1794.86,-778.6 1789,-774.77"/>
<text text-anchor="middle" x="1954.54" y="-746.43" font-family="Times,serif" font-size="32.00">ful</text>
<text text-anchor="middle" x="1954.54" y="-711.43" font-family="Times,serif" font-size="32.00">=&gt;3 a</text>
</g>
<!-- 4 -->
<g id="node19" class="node">
<title>4</title>
<ellipse fill="none" stroke="black" cx="1771.04" cy="-344.03" rx="27" ry="30.31"/>
<text text-anchor="middle" x="1771.04" y="-335.93" font-family="Times,serif" font-size="32.00">4</text>
</g>
<!-- 3&#45;&gt;4 -->
<g id="edge22" class="edge">
<title>3&#45;&gt;4</title>
<path fill="none" stroke="#000000" d="M2118.77,-607.49C2099.3,-601.18 2073.53,-589.62 2059.04,-570.03 2032.18,-533.72 2071.73,-503.15 2041.04,-470.03 1987.04,-411.74 1938.59,-461.55 1868.04,-425.03 1853.42,-417.46 1822.67,-390.66 1799.89,-369.93"/>
<polygon fill="#000000" stroke="#000000" points="1802.24,-367.34 1792.5,-363.17 1797.52,-372.51 1802.24,-367.34"/>
<text text-anchor="middle" x="1954.54" y="-514.43" font-family="Times,serif" font-size="32.00">ε_5</text>
<text text-anchor="middle" x="1954.54" y="-479.43" font-family="Times,serif" font-size="32.00">=&gt;3 4</text>
</g>
<!-- 4&#45;&gt;d -->
<g id="edge21" class="edge">
<title>4&#45;&gt;d</title>
<path fill="none" stroke="#000000" d="M1743.91,-346.45C1691.97,-350.33 1572.72,-354.5 1480.04,-322.03 1475.14,-320.31 1470.29,-317.91 1465.68,-315.2"/>
<polygon fill="#000000" stroke="#000000" points="1467.49,-312.21 1457.19,-309.72 1463.69,-318.09 1467.49,-312.21"/>
<text text-anchor="middle" x="1577.04" y="-394.43" font-family="Times,serif" font-size="32.00">ε_4</text>
<text text-anchor="middle" x="1577.04" y="-359.43" font-family="Times,serif" font-size="32.00">=&gt;4 poss= d &#45;k</text>
</g>
<!-- 5 -->
<g id="node20" class="node">
<title>5</title>
<ellipse fill="none" stroke="black" cx="2145.54" cy="-908.03" rx="27" ry="30.31"/>
<text text-anchor="middle" x="2145.54" y="-899.93" font-family="Times,serif" font-size="32.00">5</text>
</g>
<!-- 5&#45;&gt;1 -->
<g id="edge24" class="edge">
<title>5&#45;&gt;1</title>
<path fill="none" stroke="#000000" d="M2119.27,-915.08C2026.17,-939.53 1696.5,-1012.38 1480.04,-884.03 1466.35,-875.91 1456.44,-861.75 1449.53,-847.98"/>
<polygon fill="#000000" stroke="#000000" points="1452.57,-846.21 1445.22,-838.58 1446.21,-849.13 1452.57,-846.21"/>
<text text-anchor="middle" x="1771.04" y="-1002.43" font-family="Times,serif" font-size="32.00">ε_6</text>
<text text-anchor="middle" x="1771.04" y="-967.43" font-family="Times,serif" font-size="32.00">=&gt;5 1</text>
</g>
<!-- 5&#45;&gt;4 -->
<g id="edge27" class="edge">
<title>5&#45;&gt;4</title>
<path fill="none" stroke="#000000" d="M2127.08,-885.39C2107,-858.03 2074.79,-809.84 2059.04,-763.03 2048.05,-730.37 2062.27,-636.16 2041.04,-609.03 1990.43,-544.33 1919.33,-608.18 1868.04,-544.03 1831.61,-498.47 1877.41,-465.53 1850.04,-414.03 1839.27,-393.78 1820.2,-376.5 1803.61,-364.17"/>
<polygon fill="#000000" stroke="#000000" points="1805.4,-361.15 1795.22,-358.19 1801.33,-366.85 1805.4,-361.15"/>
<text text-anchor="middle" x="1954.54" y="-653.43" font-family="Times,serif" font-size="32.00">ε_8</text>
<text text-anchor="middle" x="1954.54" y="-618.43" font-family="Times,serif" font-size="32.00">=&gt;5 4</text>
</g>
<!-- 6 -->
<g id="node21" class="node">
<title>6</title>
<ellipse fill="none" stroke="black" cx="2490.98" cy="-921.03" rx="27" ry="30.31"/>
<text text-anchor="middle" x="2490.98" y="-912.93" font-family="Times,serif" font-size="32.00">6</text>
</g>
<!-- 6&#45;&gt;1 -->
<g id="edge30" class="edge">
<title>6&#45;&gt;1</title>
<path fill="none" stroke="#000000" d="M2481.47,-949.96C2473.76,-971.11 2460.3,-998.83 2439.04,-1015.03 2363.91,-1072.26 2325.87,-1052.29 2232.04,-1063.03 1993.2,-1090.35 1923.95,-1095.3 1692.04,-1032.03 1591.16,-1004.5 1550.3,-1007.46 1480.04,-930.03 1459.85,-907.78 1448.71,-875.52 1442.7,-850.04"/>
<polygon fill="#000000" stroke="#000000" points="1446.04,-848.97 1440.49,-839.94 1439.2,-850.46 1446.04,-848.97"/>
<text text-anchor="middle" x="1954.54" y="-1126.43" font-family="Times,serif" font-size="32.00">ε_10</text>
<text text-anchor="middle" x="1954.54" y="-1091.43" font-family="Times,serif" font-size="32.00">=&gt;6 =about 1</text>
</g>
<!-- 6&#45;&gt;a -->
<g id="edge32" class="edge">
<title>6&#45;&gt;a</title>
<path fill="none" stroke="#000000" d="M2478.43,-948.07C2470.04,-964.01 2456.99,-982.81 2439.04,-992.03 2364.31,-1030.38 2333.48,-1001.72 2250.04,-992.03 2076.26,-971.83 2021.89,-980.31 1868.04,-897.03 1840.92,-882.34 1815.31,-858.43 1797.37,-839.39"/>
<polygon fill="#000000" stroke="#000000" points="1799.76,-836.82 1790.41,-831.83 1794.61,-841.56 1799.76,-836.82"/>
<text text-anchor="middle" x="2145.54" y="-1033.43" font-family="Times,serif" font-size="32.00">ful_2</text>
<text text-anchor="middle" x="2145.54" y="-998.43" font-family="Times,serif" font-size="32.00">=&gt;6 =about a</text>
</g>
<!-- 6&#45;&gt;4 -->
<g id="edge31" class="edge">
<title>6&#45;&gt;4</title>
<path fill="none" stroke="#000000" d="M2489.15,-890.52C2486.62,-822.18 2476.7,-659.86 2439.04,-623.03 2378.33,-563.65 2311.57,-653.54 2250.04,-595.03 2220.48,-566.92 2260.77,-533.98 2232.04,-505.03 2176.72,-449.28 2119.42,-519.25 2059.04,-469.03 2042.79,-455.51 2056.68,-439.23 2041.04,-425.03 1974.73,-364.79 1865.11,-349.29 1808.45,-345.34"/>
<polygon fill="#000000" stroke="#000000" points="1808.38,-341.83 1798.18,-344.72 1807.95,-348.82 1808.38,-341.83"/>
<text text-anchor="middle" x="2145.54" y="-549.43" font-family="Times,serif" font-size="32.00">ε_11</text>
<text text-anchor="middle" x="2145.54" y="-514.43" font-family="Times,serif" font-size="32.00">=&gt;6 =about 4</text>
</g>
<!-- 6&#45;&gt;5 -->
<g id="edge25" class="edge">
<title>6&#45;&gt;5</title>
<path fill="none" stroke="#000000" d="M2463.88,-920.04C2403.13,-917.74 2252.16,-912.02 2182.63,-909.39"/>
<polygon fill="#000000" stroke="#000000" points="2182.72,-905.89 2172.59,-909.01 2182.45,-912.89 2182.72,-905.89"/>
<text text-anchor="middle" x="2344.54" y="-963.43" font-family="Times,serif" font-size="32.00">ε_7</text>
<text text-anchor="middle" x="2344.54" y="-928.43" font-family="Times,serif" font-size="32.00">=&gt;6 =of 5</text>
</g>
<!-- 7 -->
<g id="node23" class="node">
<title>7</title>
<ellipse fill="none" stroke="black" cx="2145.54" cy="-724.03" rx="27" ry="30.31"/>
<text text-anchor="middle" x="2145.54" y="-715.93" font-family="Times,serif" font-size="32.00">7</text>
</g>
<!-- 6&#45;&gt;7 -->
<g id="edge29" class="edge">
<title>6&#45;&gt;7</title>
<path fill="none" stroke="#000000" d="M2486.02,-891.04C2479.11,-843.75 2463.23,-755.25 2439.04,-736.03 2400.43,-705.35 2252.31,-714.28 2182.86,-720.4"/>
<polygon fill="#000000" stroke="#000000" points="2182.46,-716.92 2172.82,-721.32 2183.09,-723.9 2182.46,-716.92"/>
<text text-anchor="middle" x="2344.54" y="-780.43" font-family="Times,serif" font-size="32.00">ε_9</text>
<text text-anchor="middle" x="2344.54" y="-745.43" font-family="Times,serif" font-size="32.00">=&gt;6 7</text>
</g>
<!-- z3 -->
<g id="node22" class="node">
<title>z3</title>
<ellipse fill="none" stroke="black" stroke-dasharray="5,2" cx="2721.24" cy="-921.03" rx="27" ry="18"/>
</g>
<!-- z3&#45;&gt;6 -->
<g id="edge26" class="edge">
<title>z3&#45;&gt;6</title>
<path fill="none" stroke="#000000" d="M2694.06,-921.03C2653.32,-921.03 2574.64,-921.03 2528.39,-921.03"/>
<polygon fill="#000000" stroke="#000000" points="2528.21,-917.53 2518.21,-921.03 2528.21,-924.53 2528.21,-917.53"/>
<text text-anchor="middle" x="2596.92" y="-965.43" font-family="Times,serif" font-size="32.00">boast</text>
<text text-anchor="middle" x="2596.92" y="-930.43" font-family="Times,serif" font-size="32.00">6</text>
</g>
<!-- 7&#45;&gt;a -->
<g id="edge28" class="edge">
<title>7&#45;&gt;a</title>
<path fill="none" stroke="#000000" d="M2121.65,-738.39C2101.28,-750.46 2070.28,-767.12 2041.04,-776.03 2030.03,-779.38 1879.01,-797.43 1808.2,-805.78"/>
<polygon fill="#000000" stroke="#000000" points="1807.48,-802.34 1797.96,-806.99 1808.3,-809.3 1807.48,-802.34"/>
<text text-anchor="middle" x="1954.54" y="-843.43" font-family="Times,serif" font-size="32.00">ful_1</text>
<text text-anchor="middle" x="1954.54" y="-808.43" font-family="Times,serif" font-size="32.00">=&gt;7 =of a</text>
</g>
<!-- 8 -->
<g id="node24" class="node">
<title>8</title>
<ellipse fill="none" stroke="black" cx="2145.54" cy="-430.03" rx="27" ry="30.31"/>
<text text-anchor="middle" x="2145.54" y="-421.93" font-family="Times,serif" font-size="32.00">8</text>
</g>
<!-- 8&#45;&gt;1 -->
<g id="edge33" class="edge">
<title>8&#45;&gt;1</title>
<path fill="none" stroke="#000000" d="M2118.17,-429.07C2068.47,-427.9 1957.85,-428.28 1868.04,-450.03 1785.4,-470.03 1763.86,-479.52 1692.04,-525.03 1682.99,-530.75 1682.57,-534.57 1674.04,-541.03 1592.43,-602.77 1541.83,-583.46 1480.04,-665.03 1456.84,-695.64 1445.79,-738.49 1440.58,-769.67"/>
<polygon fill="#000000" stroke="#000000" points="1437.09,-769.35 1439.03,-779.76 1444.01,-770.41 1437.09,-769.35"/>
<text text-anchor="middle" x="1771.04" y="-569.43" font-family="Times,serif" font-size="32.00">ε_12</text>
<text text-anchor="middle" x="1771.04" y="-534.43" font-family="Times,serif" font-size="32.00">=&gt;8 =d *k 1</text>
</g>
<!-- z4 -->
<g id="node25" class="node">
<title>z4</title>
<ellipse fill="none" stroke="black" stroke-dasharray="5,2" cx="2939.57" cy="-661.03" rx="27" ry="18"/>
</g>
<!-- 9 -->
<g id="node26" class="node">
<title>9</title>
<ellipse fill="none" stroke="black" cx="2721.24" cy="-661.03" rx="27" ry="30.31"/>
<text text-anchor="middle" x="2721.24" y="-652.93" font-family="Times,serif" font-size="32.00">9</text>
</g>
<!-- z4&#45;&gt;9 -->
<g id="edge34" class="edge">
<title>z4&#45;&gt;9</title>
<path fill="none" stroke="#000000" d="M2912.48,-661.03C2874.06,-661.03 2802.15,-661.03 2758.59,-661.03"/>
<polygon fill="#000000" stroke="#000000" points="2758.43,-657.53 2748.43,-661.03 2758.43,-664.53 2758.43,-657.53"/>
<text text-anchor="middle" x="2843.07" y="-705.43" font-family="Times,serif" font-size="32.00">fear</text>
<text text-anchor="middle" x="2843.07" y="-670.43" font-family="Times,serif" font-size="32.00">9</text>
</g>
<!-- 10 -->
<g id="node27" class="node">
<title>10</title>
<ellipse fill="none" stroke="black" cx="2490.98" cy="-533.03" rx="33.88" ry="30.31"/>
<text text-anchor="middle" x="2490.98" y="-524.93" font-family="Times,serif" font-size="32.00">10</text>
</g>
<!-- 9&#45;&gt;10 -->
<g id="edge36" class="edge">
<title>9&#45;&gt;10</title>
<path fill="none" stroke="#000000" d="M2694.32,-664.42C2657.13,-667.85 2588.15,-668.71 2542.92,-636.03 2521.93,-620.86 2509.13,-594.6 2501.61,-572.39"/>
<polygon fill="#000000" stroke="#000000" points="2504.95,-571.33 2498.61,-562.84 2498.27,-573.43 2504.95,-571.33"/>
<text text-anchor="middle" x="2596.92" y="-710.43" font-family="Times,serif" font-size="32.00">ε_14</text>
<text text-anchor="middle" x="2596.92" y="-675.43" font-family="Times,serif" font-size="32.00">=&gt;9 10</text>
</g>
<!-- 10&#45;&gt;4 -->
<g id="edge35" class="edge">
<title>10&#45;&gt;4</title>
<path fill="none" stroke="#000000" d="M2483.83,-502.9C2471.94,-445.32 2446.32,-324.78 2439.04,-319.03 2389.4,-279.82 1939.25,-325.67 1807.88,-340.02"/>
<polygon fill="#000000" stroke="#000000" points="1807.48,-336.54 1797.92,-341.11 1808.24,-343.5 1807.48,-336.54"/>
<text text-anchor="middle" x="2145.54" y="-360.43" font-family="Times,serif" font-size="32.00">ε_13</text>
<text text-anchor="middle" x="2145.54" y="-325.43" font-family="Times,serif" font-size="32.00">=&gt;10 =of 4</text>
</g>
<!-- 10&#45;&gt;7 -->
<g id="edge39" class="edge">
<title>10&#45;&gt;7</title>
<path fill="none" stroke="#000000" d="M2475.14,-560.17C2466.36,-573.79 2454.01,-589.4 2439.04,-599.03 2366.48,-645.65 2327.83,-605.79 2250.04,-643.03 2234.16,-650.63 2199.82,-678.49 2175.04,-699.43"/>
<polygon fill="#000000" stroke="#000000" points="2172.72,-696.81 2167.37,-705.95 2177.26,-702.14 2172.72,-696.81"/>
<text text-anchor="middle" x="2344.54" y="-687.43" font-family="Times,serif" font-size="32.00">ε_16</text>
<text text-anchor="middle" x="2344.54" y="-652.43" font-family="Times,serif" font-size="32.00">=&gt;10 7</text>
</g>
<!-- 10&#45;&gt;8 -->
<g id="edge37" class="edge">
<title>10&#45;&gt;8</title>
<path fill="none" stroke="#000000" d="M2457.39,-527.74C2451.3,-526.8 2444.98,-525.85 2439.04,-525.03 2397.13,-519.19 2285.88,-524.51 2250.04,-502.03 2237.5,-494.16 2242.99,-483.97 2232.04,-474.03 2217.26,-460.61 2197.65,-450.13 2180.93,-442.77"/>
<polygon fill="#000000" stroke="#000000" points="2182.05,-439.44 2171.48,-438.79 2179.34,-445.9 2182.05,-439.44"/>
<text text-anchor="middle" x="2344.54" y="-569.43" font-family="Times,serif" font-size="32.00">ε_15</text>
<text text-anchor="middle" x="2344.54" y="-534.43" font-family="Times,serif" font-size="32.00">=&gt;10 8</text>
</g>
<!-- z5 -->
<g id="node28" class="node">
<title>z5</title>
<ellipse fill="none" stroke="black" stroke-dasharray="5,2" cx="2721.24" cy="-440.03" rx="27" ry="18"/>
</g>
<!-- z5&#45;&gt;10 -->
<g id="edge38" class="edge">
<title>z5&#45;&gt;10</title>
<path fill="none" stroke="#000000" d="M2696.69,-432.26C2660.69,-421.92 2591.07,-408.06 2542.92,-437.03 2522.4,-449.37 2509.71,-473.06 2502.12,-493.82"/>
<polygon fill="#000000" stroke="#000000" points="2498.77,-492.81 2498.89,-503.41 2505.4,-495.05 2498.77,-492.81"/>
<text text-anchor="middle" x="2596.92" y="-516.43" font-family="Times,serif" font-size="32.00">neglect |</text>
<text text-anchor="middle" x="2596.92" y="-481.43" font-family="Times,serif" font-size="32.00"> scorn</text>
<text text-anchor="middle" x="2596.92" y="-446.43" font-family="Times,serif" font-size="32.00">10</text>
</g>
<!-- z6 -->
<g id="node29" class="node">
<title>z6</title>
<ellipse fill="none" stroke="black" stroke-dasharray="5,2" cx="2721.24" cy="-312.03" rx="27" ry="18"/>
</g>
<!-- 11 -->
<g id="node30" class="node">
<title>11</title>
<ellipse fill="none" stroke="black" cx="2490.98" cy="-329.03" rx="33.88" ry="30.31"/>
<text text-anchor="middle" x="2490.98" y="-320.93" font-family="Times,serif" font-size="32.00">11</text>
</g>
<!-- z6&#45;&gt;11 -->
<g id="edge40" class="edge">
<title>z6&#45;&gt;11</title>
<path fill="none" stroke="#000000" d="M2694.21,-309.76C2659.47,-307.3 2596.15,-304.71 2542.92,-313.03 2539.47,-313.56 2535.94,-314.29 2532.41,-315.14"/>
<polygon fill="#000000" stroke="#000000" points="2531.35,-311.8 2522.6,-317.79 2533.17,-318.56 2531.35,-311.8"/>
<text text-anchor="middle" x="2596.92" y="-392.43" font-family="Times,serif" font-size="32.00">respect |</text>
<text text-anchor="middle" x="2596.92" y="-357.43" font-family="Times,serif" font-size="32.00"> disdain</text>
<text text-anchor="middle" x="2596.92" y="-322.43" font-family="Times,serif" font-size="32.00">11</text>
</g>
<!-- 11&#45;&gt;4 -->
<g id="edge41" class="edge">
<title>11&#45;&gt;4</title>
<path fill="none" stroke="#000000" d="M2465.62,-308.45C2457.51,-302.28 2448.21,-295.87 2439.04,-291.03 2287.09,-210.82 2227.63,-186.93 2059.04,-220.03 1960.81,-239.31 1855.16,-295.16 1803.76,-324.89"/>
<polygon fill="#000000" stroke="#000000" points="1801.97,-321.88 1795.1,-329.95 1805.5,-327.93 1801.97,-321.88"/>
<text text-anchor="middle" x="2145.54" y="-264.43" font-family="Times,serif" font-size="32.00">ε_17</text>
<text text-anchor="middle" x="2145.54" y="-229.43" font-family="Times,serif" font-size="32.00">=&gt;11 =for 4</text>
</g>
<!-- 11&#45;&gt;7 -->
<g id="edge43" class="edge">
<title>11&#45;&gt;7</title>
<path fill="none" stroke="#000000" d="M2479.28,-357.94C2471.1,-375.76 2457.96,-397.37 2439.04,-409.03 2403.09,-431.16 2279.58,-397.87 2250.04,-428.03 2214.93,-463.85 2255.15,-608.51 2232.04,-653.03 2220.3,-675.64 2197.91,-693.82 2178.99,-706.12"/>
<polygon fill="#000000" stroke="#000000" points="2176.96,-703.26 2170.32,-711.52 2180.66,-709.21 2176.96,-703.26"/>
<text text-anchor="middle" x="2344.54" y="-472.43" font-family="Times,serif" font-size="32.00">ε_19</text>
<text text-anchor="middle" x="2344.54" y="-437.43" font-family="Times,serif" font-size="32.00">=&gt;11 7</text>
</g>
<!-- 11&#45;&gt;8 -->
<g id="edge42" class="edge">
<title>11&#45;&gt;8</title>
<path fill="none" stroke="#000000" d="M2458.09,-320.23C2408.5,-308.59 2312.15,-294.36 2250.04,-339.03 2231.88,-352.08 2246.96,-369.37 2232.04,-386.03 2218.53,-401.1 2198.65,-411.76 2181.45,-418.81"/>
<polygon fill="#000000" stroke="#000000" points="2179.79,-415.7 2171.71,-422.55 2182.3,-422.23 2179.79,-415.7"/>
<text text-anchor="middle" x="2344.54" y="-383.43" font-family="Times,serif" font-size="32.00">ε_18</text>
<text text-anchor="middle" x="2344.54" y="-348.43" font-family="Times,serif" font-size="32.00">=&gt;11 8</text>
</g>
<!-- z7 -->
<g id="node31" class="node">
<title>z7</title>
<ellipse fill="none" stroke="black" stroke-dasharray="5,2" cx="2939.57" cy="-568.03" rx="27" ry="18"/>
</g>
<!-- 12 -->
<g id="node32" class="node">
<title>12</title>
<ellipse fill="none" stroke="black" cx="2721.24" cy="-568.03" rx="33.88" ry="30.31"/>
<text text-anchor="middle" x="2721.24" y="-559.93" font-family="Times,serif" font-size="32.00">12</text>
</g>
<!-- z7&#45;&gt;12 -->
<g id="edge44" class="edge">
<title>z7&#45;&gt;12</title>
<path fill="none" stroke="#000000" d="M2912.48,-568.03C2876.06,-568.03 2809.55,-568.03 2765.62,-568.03"/>
<polygon fill="#000000" stroke="#000000" points="2765.51,-564.53 2755.51,-568.03 2765.51,-571.53 2765.51,-564.53"/>
<text text-anchor="middle" x="2843.07" y="-612.43" font-family="Times,serif" font-size="32.00">doubt</text>
<text text-anchor="middle" x="2843.07" y="-577.43" font-family="Times,serif" font-size="32.00">12</text>
</g>
<!-- 12&#45;&gt;a -->
<g id="edge47" class="edge">
<title>12&#45;&gt;a</title>
<path fill="none" stroke="#000000" d="M2695.58,-587.96C2685.73,-597.27 2675.24,-609.13 2668.92,-622.03 2645.57,-669.66 2685.5,-699.8 2650.92,-740.03 2586.62,-814.82 2535.08,-783.59 2439.04,-806.03 2395.44,-816.21 2085.67,-865.51 2041.04,-869.03 1964.38,-875.05 1942.03,-889.94 1868.04,-869.03 1843.77,-862.16 1819.6,-847.25 1801.58,-834.14"/>
<polygon fill="#000000" stroke="#000000" points="1803.36,-831.09 1793.26,-827.89 1799.15,-836.69 1803.36,-831.09"/>
<text text-anchor="middle" x="2344.54" y="-883.43" font-family="Times,serif" font-size="32.00">ful_3</text>
<text text-anchor="middle" x="2344.54" y="-848.43" font-family="Times,serif" font-size="32.00">=&gt;12 =about a</text>
</g>
<!-- 12&#45;&gt;4 -->
<g id="edge46" class="edge">
<title>12&#45;&gt;4</title>
<path fill="none" stroke="#000000" d="M2703.53,-541.7C2691.83,-521.94 2676.91,-493.79 2668.92,-467.03 2648.07,-397.19 2686.47,-367.65 2650.92,-304.03 2592.7,-199.83 2551.92,-177.79 2439.04,-139.03 2196.62,-55.77 2057.42,-47.3 1868.04,-220.03 1848.09,-238.21 1864.93,-255.52 1850.04,-278.03 1838.06,-296.12 1819.71,-312 1803.82,-323.64"/>
<polygon fill="#000000" stroke="#000000" points="1801.45,-321.03 1795.31,-329.66 1805.49,-326.75 1801.45,-321.03"/>
<text text-anchor="middle" x="2344.54" y="-183.43" font-family="Times,serif" font-size="32.00">ε_21</text>
<text text-anchor="middle" x="2344.54" y="-148.43" font-family="Times,serif" font-size="32.00">=&gt;12 =about 4</text>
</g>
<!-- 12&#45;&gt;10 -->
<g id="edge45" class="edge">
<title>12&#45;&gt;10</title>
<path fill="none" stroke="#000000" d="M2687.37,-565.2C2651.63,-561.84 2592.91,-555.47 2542.92,-546.03 2539.88,-545.45 2536.75,-544.8 2533.61,-544.1"/>
<polygon fill="#000000" stroke="#000000" points="2534.17,-540.64 2523.63,-541.76 2532.57,-547.46 2534.17,-540.64"/>
<text text-anchor="middle" x="2596.92" y="-606.43" font-family="Times,serif" font-size="32.00">ε_20</text>
<text text-anchor="middle" x="2596.92" y="-571.43" font-family="Times,serif" font-size="32.00">=&gt;12 10</text>
</g>
</g>
</svg>
