<?xml version="1.0" encoding="UTF-8" standalone="no"?>
<!DOCTYPE svg PUBLIC "-//W3C//DTD SVG 1.1//EN"
 "http://www.w3.org/Graphics/SVG/1.1/DTD/svg11.dtd">
<!-- Generated by graphviz version 2.47.1 (20210417.1919)
 -->
<!-- Title: G Pages: 1 -->
<svg width="3157pt" height="1228pt"
 viewBox="0.00 0.00 3157.39 1228.03" xmlns="http://www.w3.org/2000/svg" xmlns:xlink="http://www.w3.org/1999/xlink">
<g id="graph0" class="graph" transform="scale(1 1) rotate(0) translate(4 1224.03)">
<title>G</title>
<polygon fill="white" stroke="transparent" points="-4,4 -4,-1224.03 3153.39,-1224.03 3153.39,4 -4,4"/>
<text text-anchor="middle" x="1574.69" y="-13.4" font-family="Times,serif" font-size="32.00">decomposition: be =prog 0, be =prog v, ben =prog perf</text>
<!-- t -->
<g id="node1" class="node">
<title>t</title>
<ellipse fill="lightgray" stroke="black" cx="27" cy="-788.03" rx="27" ry="30.31"/>
<text text-anchor="middle" x="27" y="-779.93" font-family="Times,serif" font-size="32.00">t</text>
</g>
<!-- z0 -->
<g id="node2" class="node">
<title>z0</title>
<ellipse fill="none" stroke="black" stroke-dasharray="5,2" cx="3122.39" cy="-987.03" rx="27" ry="18"/>
</g>
<!-- da -->
<g id="node3" class="node">
<title>da</title>
<ellipse fill="none" stroke="black" cx="2904.06" cy="-987.03" rx="33.47" ry="30.31"/>
<text text-anchor="middle" x="2904.06" y="-978.93" font-family="Times,serif" font-size="32.00">da</text>
</g>
<!-- z0&#45;&gt;da -->
<g id="edge1" class="edge">
<title>z0&#45;&gt;da</title>
<path fill="none" stroke="#000000" d="M3095.3,-987.03C3058.67,-987.03 2991.61,-987.03 2947.69,-987.03"/>
<polygon fill="#000000" stroke="#000000" points="2947.6,-983.53 2937.6,-987.03 2947.6,-990.53 2947.6,-983.53"/>
<text text-anchor="middle" x="3025.89" y="-1066.43" font-family="Times,serif" font-size="32.00">Mary |</text>
<text text-anchor="middle" x="3025.89" y="-1031.43" font-family="Times,serif" font-size="32.00"> John</text>
<text text-anchor="middle" x="3025.89" y="-996.43" font-family="Times,serif" font-size="32.00">da &#45;k</text>
</g>
<!-- z1 -->
<g id="node4" class="node">
<title>z1</title>
<ellipse fill="none" stroke="black" stroke-dasharray="5,2" cx="3122.39" cy="-1115.03" rx="27" ry="18"/>
</g>
<!-- poss -->
<g id="node5" class="node">
<title>poss</title>
<ellipse fill="none" stroke="black" cx="2904.06" cy="-1115.03" rx="52.15" ry="30.31"/>
<text text-anchor="middle" x="2904.06" y="-1106.93" font-family="Times,serif" font-size="32.00">poss</text>
</g>
<!-- z1&#45;&gt;poss -->
<g id="edge2" class="edge">
<title>z1&#45;&gt;poss</title>
<path fill="none" stroke="#000000" d="M3095.3,-1115.03C3063.63,-1115.03 3009.2,-1115.03 2966.66,-1115.03"/>
<polygon fill="#000000" stroke="#000000" points="2966.4,-1111.53 2956.4,-1115.03 2966.4,-1118.53 2966.4,-1111.53"/>
<text text-anchor="middle" x="3025.89" y="-1194.43" font-family="Times,serif" font-size="32.00">Mary&#39;s |</text>
<text text-anchor="middle" x="3025.89" y="-1159.43" font-family="Times,serif" font-size="32.00"> John&#39;s</text>
<text text-anchor="middle" x="3025.89" y="-1124.43" font-family="Times,serif" font-size="32.00">poss</text>
</g>
<!-- z2 -->
<g id="node6" class="node">
<title>z2</title>
<ellipse fill="none" stroke="black" stroke-dasharray="5,2" cx="1953.85" cy="-251.03" rx="27" ry="18"/>
</g>
<!-- d -->
<g id="node7" class="node">
<title>d</title>
<ellipse fill="none" stroke="black" cx="1617.85" cy="-292.03" rx="27" ry="30.31"/>
<text text-anchor="middle" x="1617.85" y="-283.93" font-family="Times,serif" font-size="32.00">d</text>
</g>
<!-- z2&#45;&gt;d -->
<g id="edge3" class="edge">
<title>z2&#45;&gt;d</title>
<path fill="none" stroke="#000000" d="M1928.08,-245.36C1876.58,-234.78 1755.07,-216.19 1662.85,-252.03 1656.26,-254.59 1650.04,-258.65 1644.47,-263.21"/>
<polygon fill="#000000" stroke="#000000" points="1641.87,-260.85 1636.81,-270.16 1646.57,-266.04 1641.87,-260.85"/>
<text text-anchor="middle" x="1759.85" y="-296.43" font-family="Times,serif" font-size="32.00">the&#45;cause</text>
<text text-anchor="middle" x="1759.85" y="-261.43" font-family="Times,serif" font-size="32.00">d &#45;k</text>
</g>
<!-- for -->
<g id="node8" class="node">
<title>for</title>
<ellipse fill="none" stroke="black" cx="1340.34" cy="-427.03" rx="37.45" ry="30.31"/>
<text text-anchor="middle" x="1340.34" y="-418.93" font-family="Times,serif" font-size="32.00">for</text>
</g>
<!-- d&#45;&gt;for -->
<g id="edge4" class="edge">
<title>d&#45;&gt;for</title>
<path fill="none" stroke="#000000" d="M1606.48,-319.87C1599.35,-335.06 1588.35,-352.81 1572.85,-363.03 1515.43,-400.86 1485.23,-364.71 1419.85,-386.03 1406.09,-390.51 1391.83,-397.25 1379.3,-403.97"/>
<polygon fill="#000000" stroke="#000000" points="1377.57,-400.92 1370.51,-408.82 1380.96,-407.05 1377.57,-400.92"/>
<text text-anchor="middle" x="1496.35" y="-430.43" font-family="Times,serif" font-size="32.00">for</text>
<text text-anchor="middle" x="1496.35" y="-395.43" font-family="Times,serif" font-size="32.00">=d *k for</text>
</g>
<!-- of -->
<g id="node9" class="node">
<title>of</title>
<ellipse fill="none" stroke="black" cx="1340.34" cy="-292.03" rx="30.31" ry="30.31"/>
<text text-anchor="middle" x="1340.34" y="-283.93" font-family="Times,serif" font-size="32.00">of</text>
</g>
<!-- d&#45;&gt;of -->
<g id="edge5" class="edge">
<title>d&#45;&gt;of</title>
<path fill="none" stroke="#000000" d="M1590.44,-292.03C1541.87,-292.03 1438.17,-292.03 1381.08,-292.03"/>
<polygon fill="#000000" stroke="#000000" points="1380.98,-288.53 1370.98,-292.03 1380.98,-295.53 1380.98,-288.53"/>
<text text-anchor="middle" x="1496.35" y="-336.43" font-family="Times,serif" font-size="32.00">of</text>
<text text-anchor="middle" x="1496.35" y="-301.43" font-family="Times,serif" font-size="32.00">=d *k of</text>
</g>
<!-- about -->
<g id="node10" class="node">
<title>about</title>
<ellipse fill="none" stroke="black" cx="1340.34" cy="-199.03" rx="61.54" ry="30.31"/>
<text text-anchor="middle" x="1340.34" y="-190.93" font-family="Times,serif" font-size="32.00">about</text>
</g>
<!-- d&#45;&gt;about -->
<g id="edge6" class="edge">
<title>d&#45;&gt;about</title>
<path fill="none" stroke="#000000" d="M1607.51,-263.74C1600.6,-247.53 1589.46,-228.39 1572.85,-218.03 1524.31,-187.72 1458.44,-185.17 1409.38,-188.92"/>
<polygon fill="#000000" stroke="#000000" points="1408.83,-185.46 1399.17,-189.81 1409.44,-192.43 1408.83,-185.46"/>
<text text-anchor="middle" x="1496.35" y="-262.43" font-family="Times,serif" font-size="32.00">about</text>
<text text-anchor="middle" x="1496.35" y="-227.43" font-family="Times,serif" font-size="32.00">=d *k about</text>
</g>
<!-- 4 -->
<g id="node19" class="node">
<title>4</title>
<ellipse fill="none" stroke="black" cx="2328.35" cy="-614.03" rx="27" ry="30.31"/>
<text text-anchor="middle" x="2328.35" y="-605.93" font-family="Times,serif" font-size="32.00">4</text>
</g>
<!-- for&#45;&gt;4 -->
<g id="edge21" class="edge">
<title>for&#45;&gt;4</title>
<path fill="none" stroke="#000000" d="M1374.11,-440.79C1388.01,-446.2 1404.52,-452.04 1419.85,-456.03 1769.88,-546.9 1871.87,-498.07 2223.85,-581.03 2247.25,-586.54 2273.01,-594.74 2292.98,-601.59"/>
<polygon fill="#000000" stroke="#000000" points="2291.97,-604.95 2302.56,-604.93 2294.27,-598.34 2291.97,-604.95"/>
<text text-anchor="middle" x="1759.85" y="-569.43" font-family="Times,serif" font-size="32.00">hope</text>
<text text-anchor="middle" x="1759.85" y="-534.43" font-family="Times,serif" font-size="32.00">=for 4</text>
</g>
<!-- 0 -->
<g id="node11" class="node">
<title>0</title>
<ellipse fill="none" stroke="black" cx="229" cy="-788.03" rx="27" ry="30.31"/>
<text text-anchor="middle" x="229" y="-779.93" font-family="Times,serif" font-size="32.00">0</text>
</g>
<!-- 0&#45;&gt;t -->
<g id="edge7" class="edge">
<title>0&#45;&gt;t</title>
<path fill="none" stroke="#000000" d="M201.85,-788.03C166.67,-788.03 103.92,-788.03 64.21,-788.03"/>
<polygon fill="#000000" stroke="#000000" points="64.15,-784.53 54.15,-788.03 64.15,-791.53 64.15,-784.53"/>
<text text-anchor="middle" x="128" y="-867.43" font-family="Times,serif" font-size="32.00">s |</text>
<text text-anchor="middle" x="128" y="-832.43" font-family="Times,serif" font-size="32.00"> d</text>
<text text-anchor="middle" x="128" y="-797.43" font-family="Times,serif" font-size="32.00">=&gt;0 +k t</text>
</g>
<!-- 1 -->
<g id="node12" class="node">
<title>1</title>
<ellipse fill="none" stroke="black" cx="1617.85" cy="-810.03" rx="27" ry="30.31"/>
<text text-anchor="middle" x="1617.85" y="-801.93" font-family="Times,serif" font-size="32.00">1</text>
</g>
<!-- 2 -->
<g id="node13" class="node">
<title>2</title>
<ellipse fill="none" stroke="black" cx="1340.34" cy="-810.03" rx="27" ry="30.31"/>
<text text-anchor="middle" x="1340.34" y="-801.93" font-family="Times,serif" font-size="32.00">2</text>
</g>
<!-- 1&#45;&gt;2 -->
<g id="edge8" class="edge">
<title>1&#45;&gt;2</title>
<path fill="none" stroke="#000000" d="M1590.44,-810.03C1540.96,-810.03 1434.26,-810.03 1377.91,-810.03"/>
<polygon fill="#000000" stroke="#000000" points="1377.67,-806.53 1367.67,-810.03 1377.67,-813.53 1377.67,-806.53"/>
<text text-anchor="middle" x="1496.35" y="-854.43" font-family="Times,serif" font-size="32.00">ε_0</text>
<text text-anchor="middle" x="1496.35" y="-819.43" font-family="Times,serif" font-size="32.00">=&gt;1 =da 2</text>
</g>
<!-- v -->
<g id="node15" class="node">
<title>v</title>
<ellipse fill="none" stroke="black" cx="395" cy="-881.03" rx="27" ry="30.31"/>
<text text-anchor="middle" x="395" y="-872.93" font-family="Times,serif" font-size="32.00">v</text>
</g>
<!-- 2&#45;&gt;v -->
<g id="edge10" class="edge">
<title>2&#45;&gt;v</title>
<path fill="none" stroke="#000000" d="M1323.17,-833.94C1285.83,-886.01 1187.97,-1005.03 1073.49,-1005.03 1073.49,-1005.03 1073.49,-1005.03 599.08,-1005.03 526.38,-1005.03 457.67,-946.43 421.81,-909.8"/>
<polygon fill="#000000" stroke="#000000" points="424.12,-907.14 414.67,-902.34 419.06,-911.98 424.12,-907.14"/>
<text text-anchor="middle" x="834.17" y="-1049.43" font-family="Times,serif" font-size="32.00">ε_1</text>
<text text-anchor="middle" x="834.17" y="-1014.43" font-family="Times,serif" font-size="32.00">=&gt;2 v</text>
</g>
<!-- perf -->
<g id="node16" class="node">
<title>perf</title>
<ellipse fill="none" stroke="black" cx="600.08" cy="-810.03" rx="48.17" ry="30.31"/>
<text text-anchor="middle" x="600.08" y="-801.93" font-family="Times,serif" font-size="32.00">perf</text>
</g>
<!-- 2&#45;&gt;perf -->
<g id="edge11" class="edge">
<title>2&#45;&gt;perf</title>
<path fill="none" stroke="#000000" d="M1314.11,-800.68C1245.98,-776.58 1052.48,-715.58 890.17,-736.03 805.38,-746.71 709.83,-774.35 652.59,-792.66"/>
<polygon fill="#000000" stroke="#000000" points="651.5,-789.33 643.05,-795.74 653.65,-795.99 651.5,-789.33"/>
<text text-anchor="middle" x="946.17" y="-780.43" font-family="Times,serif" font-size="32.00">n</text>
<text text-anchor="middle" x="946.17" y="-745.43" font-family="Times,serif" font-size="32.00">=&gt;2 perf</text>
</g>
<!-- prog -->
<g id="node17" class="node">
<title>prog</title>
<ellipse fill="none" stroke="black" cx="1072.49" cy="-810.03" rx="52.15" ry="30.31"/>
<text text-anchor="middle" x="1072.49" y="-801.93" font-family="Times,serif" font-size="32.00">prog</text>
</g>
<!-- 2&#45;&gt;prog -->
<g id="edge12" class="edge">
<title>2&#45;&gt;prog</title>
<path fill="none" stroke="#000000" d="M1312.87,-810.03C1271.77,-810.03 1191.45,-810.03 1135.23,-810.03"/>
<polygon fill="#000000" stroke="#000000" points="1135.03,-806.53 1125.03,-810.03 1135.03,-813.53 1135.03,-806.53"/>
<text text-anchor="middle" x="1201.82" y="-854.43" font-family="Times,serif" font-size="32.00">ing</text>
<text text-anchor="middle" x="1201.82" y="-819.43" font-family="Times,serif" font-size="32.00">=&gt;2 prog</text>
</g>
<!-- a -->
<g id="node14" class="node">
<title>a</title>
<ellipse fill="none" stroke="black" cx="1953.85" cy="-810.03" rx="27" ry="30.31"/>
<text text-anchor="middle" x="1953.85" y="-801.93" font-family="Times,serif" font-size="32.00">a</text>
</g>
<!-- a&#45;&gt;1 -->
<g id="edge9" class="edge">
<title>a&#45;&gt;1</title>
<path fill="none" stroke="#000000" d="M1926.65,-810.03C1867.38,-810.03 1722.95,-810.03 1655.14,-810.03"/>
<polygon fill="#000000" stroke="#000000" points="1654.94,-806.53 1644.94,-810.03 1654.94,-813.53 1654.94,-806.53"/>
<text text-anchor="middle" x="1759.85" y="-854.43" font-family="Times,serif" font-size="32.00">be</text>
<text text-anchor="middle" x="1759.85" y="-819.43" font-family="Times,serif" font-size="32.00">=a 1</text>
</g>
<!-- v&#45;&gt;0 -->
<g id="edge13" class="edge">
<title>v&#45;&gt;0</title>
<path fill="none" stroke="#000000" d="M367.84,-882.12C341.87,-881.94 302,-878.12 274,-859.03 261.66,-850.61 252.13,-837.47 245.14,-824.77"/>
<polygon fill="#000000" stroke="#000000" points="248.16,-823 240.5,-815.68 241.93,-826.18 248.16,-823"/>
<text text-anchor="middle" x="312" y="-926.43" font-family="Times,serif" font-size="32.00">will</text>
<text text-anchor="middle" x="312" y="-891.43" font-family="Times,serif" font-size="32.00">=v 0</text>
</g>
<!-- v&#45;&gt;0 -->
<g id="edge15" class="edge">
<title>v&#45;&gt;0</title>
<path fill="none" stroke="#000000" d="M389.09,-851.09C383.67,-828.67 372.53,-799.48 350,-785.03 325.03,-769 290.71,-771.73 265.17,-777.31"/>
<polygon fill="#000000" stroke="#000000" points="264.06,-773.98 255.16,-779.73 265.71,-780.78 264.06,-773.98"/>
<text text-anchor="middle" x="312" y="-829.43" font-family="Times,serif" font-size="32.00">ε_2</text>
<text text-anchor="middle" x="312" y="-794.43" font-family="Times,serif" font-size="32.00">=&gt;v 0</text>
</g>
<!-- perf&#45;&gt;v -->
<g id="edge14" class="edge">
<title>perf&#45;&gt;v</title>
<path fill="none" stroke="#000000" d="M552.71,-804.18C519.36,-802.19 474.38,-804.17 440,-823.03 429.99,-828.52 421.56,-837.36 414.85,-846.5"/>
<polygon fill="#000000" stroke="#000000" points="411.88,-844.64 409.17,-854.89 417.68,-848.57 411.88,-844.64"/>
<text text-anchor="middle" x="487" y="-867.43" font-family="Times,serif" font-size="32.00">have</text>
<text text-anchor="middle" x="487" y="-832.43" font-family="Times,serif" font-size="32.00">=perf v</text>
</g>
<!-- 3 -->
<g id="node18" class="node">
<title>3</title>
<ellipse fill="none" stroke="black" cx="834.17" cy="-810.03" rx="27" ry="30.31"/>
<text text-anchor="middle" x="834.17" y="-801.93" font-family="Times,serif" font-size="32.00">3</text>
</g>
<!-- prog&#45;&gt;3 -->
<g id="edge17" class="edge">
<title>prog&#45;&gt;3</title>
<path fill="none" stroke="#f7931d" stroke-width="2" d="M1019.92,-810.03C975.04,-810.03 911.13,-810.03 871.45,-810.03"/>
<polygon fill="#f7931d" stroke="#f7931d" stroke-width="2" points="871.42,-806.53 861.42,-810.03 871.42,-813.53 871.42,-806.53"/>
<text text-anchor="middle" x="946.17" y="-854.43" font-family="Times,serif" font-size="32.00">be_1</text>
<text text-anchor="middle" x="946.17" y="-819.43" font-family="Times,serif" font-size="32.00">=prog 3</text>
</g>
<!-- 3&#45;&gt;0 -->
<g id="edge16" class="edge">
<title>3&#45;&gt;0</title>
<path fill="none" stroke="#f7931d" stroke-width="2" d="M808.56,-799.44C747.01,-774.18 581.16,-713.67 440,-730.03 364.72,-738.75 345.96,-745.24 274,-769.03 270.66,-770.13 267.22,-771.39 263.81,-772.72"/>
<polygon fill="#f7931d" stroke="#f7931d" stroke-width="2" points="262.29,-769.56 254.37,-776.59 264.95,-776.03 262.29,-769.56"/>
<text text-anchor="middle" x="487" y="-774.43" font-family="Times,serif" font-size="32.00">ε_3</text>
<text text-anchor="middle" x="487" y="-739.43" font-family="Times,serif" font-size="32.00">=&gt;3 0</text>
</g>
<!-- 3&#45;&gt;v -->
<g id="edge18" class="edge">
<title>3&#45;&gt;v</title>
<path fill="none" stroke="#f7931d" stroke-width="2" d="M820.94,-836.88C811.75,-853.64 797.43,-873.89 778.17,-884.03 663.43,-944.38 501.21,-910.86 430.83,-891.6"/>
<polygon fill="#f7931d" stroke="#f7931d" stroke-width="2" points="431.7,-888.21 421.13,-888.87 429.81,-894.95 431.7,-888.21"/>
<text text-anchor="middle" x="600.08" y="-963.43" font-family="Times,serif" font-size="32.00">ε_4</text>
<text text-anchor="middle" x="600.08" y="-928.43" font-family="Times,serif" font-size="32.00">=&gt;3 v</text>
</g>
<!-- 3&#45;&gt;perf -->
<g id="edge19" class="edge">
<title>3&#45;&gt;perf</title>
<path fill="none" stroke="#f7931d" stroke-width="2" d="M806.99,-810.03C771.21,-810.03 706.05,-810.03 658.59,-810.03"/>
<polygon fill="#f7931d" stroke="#f7931d" stroke-width="2" points="658.45,-806.53 648.45,-810.03 658.45,-813.53 658.45,-806.53"/>
<text text-anchor="middle" x="722.17" y="-854.43" font-family="Times,serif" font-size="32.00">n_1</text>
<text text-anchor="middle" x="722.17" y="-819.43" font-family="Times,serif" font-size="32.00">=&gt;3 perf</text>
</g>
<!-- 4&#45;&gt;1 -->
<g id="edge20" class="edge">
<title>4&#45;&gt;1</title>
<path fill="none" stroke="#000000" d="M2301.79,-606.94C2252.51,-594.41 2141.26,-571.59 2050.85,-593.03 1888.68,-631.47 1718.16,-740.85 1649.83,-787.98"/>
<polygon fill="#000000" stroke="#000000" points="1647.46,-785.36 1641.25,-793.94 1651.46,-791.1 1647.46,-785.36"/>
<text text-anchor="middle" x="1953.85" y="-700.43" font-family="Times,serif" font-size="32.00">ε_5</text>
<text text-anchor="middle" x="1953.85" y="-665.43" font-family="Times,serif" font-size="32.00">=&gt;4 1</text>
</g>
<!-- 4&#45;&gt;a -->
<g id="edge24" class="edge">
<title>4&#45;&gt;a</title>
<path fill="none" stroke="#000000" d="M2305.56,-630.36C2280.62,-648.72 2241.01,-676.79 2223.85,-683.03 2151.16,-709.45 2119.58,-666.53 2050.85,-702.03 2018.36,-718.81 1991.73,-751.51 1974.84,-776.55"/>
<polygon fill="#000000" stroke="#000000" points="1971.82,-774.77 1969.27,-785.05 1977.68,-778.6 1971.82,-774.77"/>
<text text-anchor="middle" x="2137.35" y="-746.43" font-family="Times,serif" font-size="32.00">ful</text>
<text text-anchor="middle" x="2137.35" y="-711.43" font-family="Times,serif" font-size="32.00">=&gt;4 a</text>
</g>
<!-- 5 -->
<g id="node20" class="node">
<title>5</title>
<ellipse fill="none" stroke="black" cx="1953.85" cy="-344.03" rx="27" ry="30.31"/>
<text text-anchor="middle" x="1953.85" y="-335.93" font-family="Times,serif" font-size="32.00">5</text>
</g>
<!-- 4&#45;&gt;5 -->
<g id="edge23" class="edge">
<title>4&#45;&gt;5</title>
<path fill="none" stroke="#000000" d="M2301.59,-607.49C2282.12,-601.18 2256.35,-589.62 2241.85,-570.03 2215,-533.72 2254.54,-503.15 2223.85,-470.03 2169.86,-411.74 2121.41,-461.55 2050.85,-425.03 2036.24,-417.46 2005.49,-390.66 1982.71,-369.93"/>
<polygon fill="#000000" stroke="#000000" points="1985.06,-367.34 1975.32,-363.17 1980.33,-372.51 1985.06,-367.34"/>
<text text-anchor="middle" x="2137.35" y="-514.43" font-family="Times,serif" font-size="32.00">ε_7</text>
<text text-anchor="middle" x="2137.35" y="-479.43" font-family="Times,serif" font-size="32.00">=&gt;4 5</text>
</g>
<!-- 5&#45;&gt;d -->
<g id="edge22" class="edge">
<title>5&#45;&gt;d</title>
<path fill="none" stroke="#000000" d="M1926.73,-346.45C1874.79,-350.33 1755.54,-354.5 1662.85,-322.03 1657.96,-320.31 1653.1,-317.91 1648.5,-315.2"/>
<polygon fill="#000000" stroke="#000000" points="1650.31,-312.21 1640.01,-309.72 1646.51,-318.09 1650.31,-312.21"/>
<text text-anchor="middle" x="1759.85" y="-394.43" font-family="Times,serif" font-size="32.00">ε_6</text>
<text text-anchor="middle" x="1759.85" y="-359.43" font-family="Times,serif" font-size="32.00">=&gt;5 poss= d &#45;k</text>
</g>
<!-- 6 -->
<g id="node21" class="node">
<title>6</title>
<ellipse fill="none" stroke="black" cx="2328.35" cy="-908.03" rx="27" ry="30.31"/>
<text text-anchor="middle" x="2328.35" y="-899.93" font-family="Times,serif" font-size="32.00">6</text>
</g>
<!-- 6&#45;&gt;1 -->
<g id="edge25" class="edge">
<title>6&#45;&gt;1</title>
<path fill="none" stroke="#000000" d="M2302.09,-915.08C2208.99,-939.53 1879.32,-1012.38 1662.85,-884.03 1649.17,-875.91 1639.26,-861.75 1632.35,-847.98"/>
<polygon fill="#000000" stroke="#000000" points="1635.39,-846.21 1628.04,-838.58 1629.03,-849.13 1635.39,-846.21"/>
<text text-anchor="middle" x="1953.85" y="-1002.43" font-family="Times,serif" font-size="32.00">ε_8</text>
<text text-anchor="middle" x="1953.85" y="-967.43" font-family="Times,serif" font-size="32.00">=&gt;6 1</text>
</g>
<!-- 6&#45;&gt;5 -->
<g id="edge28" class="edge">
<title>6&#45;&gt;5</title>
<path fill="none" stroke="#000000" d="M2310.71,-884.64C2290.79,-855.37 2258.1,-803 2241.85,-753.03 2231.89,-722.36 2243.83,-634.35 2223.85,-609.03 2172.99,-544.54 2102.15,-608.18 2050.85,-544.03 2014.43,-498.47 2060.23,-465.53 2032.85,-414.03 2022.09,-393.78 2003.02,-376.5 1986.43,-364.17"/>
<polygon fill="#000000" stroke="#000000" points="1988.22,-361.15 1978.04,-358.19 1984.15,-366.85 1988.22,-361.15"/>
<text text-anchor="middle" x="2137.35" y="-653.43" font-family="Times,serif" font-size="32.00">ε_10</text>
<text text-anchor="middle" x="2137.35" y="-618.43" font-family="Times,serif" font-size="32.00">=&gt;6 5</text>
</g>
<!-- 7 -->
<g id="node22" class="node">
<title>7</title>
<ellipse fill="none" stroke="black" cx="2673.8" cy="-921.03" rx="27" ry="30.31"/>
<text text-anchor="middle" x="2673.8" y="-912.93" font-family="Times,serif" font-size="32.00">7</text>
</g>
<!-- 7&#45;&gt;1 -->
<g id="edge31" class="edge">
<title>7&#45;&gt;1</title>
<path fill="none" stroke="#000000" d="M2664.29,-949.96C2656.58,-971.11 2643.12,-998.83 2621.85,-1015.03 2546.73,-1072.26 2508.68,-1052.29 2414.85,-1063.03 2176.02,-1090.35 2106.77,-1095.3 1874.85,-1032.03 1773.98,-1004.5 1733.12,-1007.46 1662.85,-930.03 1642.67,-907.78 1631.53,-875.52 1625.51,-850.04"/>
<polygon fill="#000000" stroke="#000000" points="1628.86,-848.97 1623.31,-839.94 1622.02,-850.46 1628.86,-848.97"/>
<text text-anchor="middle" x="2137.35" y="-1126.43" font-family="Times,serif" font-size="32.00">ε_12</text>
<text text-anchor="middle" x="2137.35" y="-1091.43" font-family="Times,serif" font-size="32.00">=&gt;7 =about 1</text>
</g>
<!-- 7&#45;&gt;a -->
<g id="edge33" class="edge">
<title>7&#45;&gt;a</title>
<path fill="none" stroke="#000000" d="M2661.25,-948.07C2652.85,-964.01 2639.81,-982.81 2621.85,-992.03 2547.12,-1030.38 2516.29,-1001.72 2432.85,-992.03 2259.08,-971.83 2204.71,-980.31 2050.85,-897.03 2023.73,-882.34 1998.13,-858.43 1980.19,-839.39"/>
<polygon fill="#000000" stroke="#000000" points="1982.58,-836.82 1973.23,-831.83 1977.43,-841.56 1982.58,-836.82"/>
<text text-anchor="middle" x="2328.35" y="-1033.43" font-family="Times,serif" font-size="32.00">ful_2</text>
<text text-anchor="middle" x="2328.35" y="-998.43" font-family="Times,serif" font-size="32.00">=&gt;7 =about a</text>
</g>
<!-- 7&#45;&gt;5 -->
<g id="edge32" class="edge">
<title>7&#45;&gt;5</title>
<path fill="none" stroke="#000000" d="M2671.96,-890.52C2669.44,-822.18 2659.52,-659.86 2621.85,-623.03 2561.15,-563.65 2494.39,-653.54 2432.85,-595.03 2403.29,-566.92 2443.59,-533.98 2414.85,-505.03 2359.54,-449.28 2302.23,-519.25 2241.85,-469.03 2225.61,-455.51 2239.49,-439.23 2223.85,-425.03 2157.55,-364.79 2047.93,-349.29 1991.27,-345.34"/>
<polygon fill="#000000" stroke="#000000" points="1991.2,-341.83 1981,-344.72 1990.77,-348.82 1991.2,-341.83"/>
<text text-anchor="middle" x="2328.35" y="-549.43" font-family="Times,serif" font-size="32.00">ε_13</text>
<text text-anchor="middle" x="2328.35" y="-514.43" font-family="Times,serif" font-size="32.00">=&gt;7 =about 5</text>
</g>
<!-- 7&#45;&gt;6 -->
<g id="edge26" class="edge">
<title>7&#45;&gt;6</title>
<path fill="none" stroke="#000000" d="M2646.7,-920.04C2585.95,-917.74 2434.98,-912.02 2365.45,-909.39"/>
<polygon fill="#000000" stroke="#000000" points="2365.54,-905.89 2355.41,-909.01 2365.27,-912.89 2365.54,-905.89"/>
<text text-anchor="middle" x="2527.35" y="-963.43" font-family="Times,serif" font-size="32.00">ε_9</text>
<text text-anchor="middle" x="2527.35" y="-928.43" font-family="Times,serif" font-size="32.00">=&gt;7 =of 6</text>
</g>
<!-- 8 -->
<g id="node24" class="node">
<title>8</title>
<ellipse fill="none" stroke="black" cx="2328.35" cy="-714.03" rx="27" ry="30.31"/>
<text text-anchor="middle" x="2328.35" y="-705.93" font-family="Times,serif" font-size="32.00">8</text>
</g>
<!-- 7&#45;&gt;8 -->
<g id="edge30" class="edge">
<title>7&#45;&gt;8</title>
<path fill="none" stroke="#000000" d="M2668.76,-891.13C2661.74,-843.98 2645.71,-755.66 2621.85,-736.03 2602.51,-720.1 2440.01,-715.66 2365.92,-714.46"/>
<polygon fill="#000000" stroke="#000000" points="2365.71,-710.95 2355.66,-714.3 2365.6,-717.95 2365.71,-710.95"/>
<text text-anchor="middle" x="2527.35" y="-780.43" font-family="Times,serif" font-size="32.00">ε_11</text>
<text text-anchor="middle" x="2527.35" y="-745.43" font-family="Times,serif" font-size="32.00">=&gt;7 8</text>
</g>
<!-- z3 -->
<g id="node23" class="node">
<title>z3</title>
<ellipse fill="none" stroke="black" stroke-dasharray="5,2" cx="2904.06" cy="-921.03" rx="27" ry="18"/>
</g>
<!-- z3&#45;&gt;7 -->
<g id="edge27" class="edge">
<title>z3&#45;&gt;7</title>
<path fill="none" stroke="#000000" d="M2876.88,-921.03C2836.14,-921.03 2757.46,-921.03 2711.21,-921.03"/>
<polygon fill="#000000" stroke="#000000" points="2711.03,-917.53 2701.03,-921.03 2711.03,-924.53 2711.03,-917.53"/>
<text text-anchor="middle" x="2779.74" y="-965.43" font-family="Times,serif" font-size="32.00">boast</text>
<text text-anchor="middle" x="2779.74" y="-930.43" font-family="Times,serif" font-size="32.00">7</text>
</g>
<!-- 8&#45;&gt;a -->
<g id="edge29" class="edge">
<title>8&#45;&gt;a</title>
<path fill="none" stroke="#000000" d="M2305.68,-730.69C2285.6,-745.19 2254.34,-765.49 2223.85,-776.03 2212.98,-779.78 2061.89,-797.62 1991.04,-805.85"/>
<polygon fill="#000000" stroke="#000000" points="1990.32,-802.41 1980.79,-807.04 1991.13,-809.36 1990.32,-802.41"/>
<text text-anchor="middle" x="2137.35" y="-843.43" font-family="Times,serif" font-size="32.00">ful_1</text>
<text text-anchor="middle" x="2137.35" y="-808.43" font-family="Times,serif" font-size="32.00">=&gt;8 =of a</text>
</g>
<!-- 9 -->
<g id="node25" class="node">
<title>9</title>
<ellipse fill="none" stroke="black" cx="2328.35" cy="-430.03" rx="27" ry="30.31"/>
<text text-anchor="middle" x="2328.35" y="-421.93" font-family="Times,serif" font-size="32.00">9</text>
</g>
<!-- 9&#45;&gt;1 -->
<g id="edge34" class="edge">
<title>9&#45;&gt;1</title>
<path fill="none" stroke="#000000" d="M2300.99,-429.07C2251.29,-427.9 2140.67,-428.28 2050.85,-450.03 1968.21,-470.03 1946.68,-479.52 1874.85,-525.03 1865.81,-530.75 1865.39,-534.57 1856.85,-541.03 1775.25,-602.77 1724.65,-583.46 1662.85,-665.03 1639.66,-695.64 1628.61,-738.49 1623.4,-769.67"/>
<polygon fill="#000000" stroke="#000000" points="1619.91,-769.35 1621.85,-779.76 1626.83,-770.41 1619.91,-769.35"/>
<text text-anchor="middle" x="1953.85" y="-569.43" font-family="Times,serif" font-size="32.00">ε_14</text>
<text text-anchor="middle" x="1953.85" y="-534.43" font-family="Times,serif" font-size="32.00">=&gt;9 =d *k 1</text>
</g>
<!-- z4 -->
<g id="node26" class="node">
<title>z4</title>
<ellipse fill="none" stroke="black" stroke-dasharray="5,2" cx="3122.39" cy="-661.03" rx="27" ry="18"/>
</g>
<!-- 10 -->
<g id="node27" class="node">
<title>10</title>
<ellipse fill="none" stroke="black" cx="2904.06" cy="-661.03" rx="33.88" ry="30.31"/>
<text text-anchor="middle" x="2904.06" y="-652.93" font-family="Times,serif" font-size="32.00">10</text>
</g>
<!-- z4&#45;&gt;10 -->
<g id="edge35" class="edge">
<title>z4&#45;&gt;10</title>
<path fill="none" stroke="#000000" d="M3095.3,-661.03C3058.88,-661.03 2992.37,-661.03 2948.44,-661.03"/>
<polygon fill="#000000" stroke="#000000" points="2948.33,-657.53 2938.33,-661.03 2948.33,-664.53 2948.33,-657.53"/>
<text text-anchor="middle" x="3025.89" y="-705.43" font-family="Times,serif" font-size="32.00">fear</text>
<text text-anchor="middle" x="3025.89" y="-670.43" font-family="Times,serif" font-size="32.00">10</text>
</g>
<!-- 11 -->
<g id="node28" class="node">
<title>11</title>
<ellipse fill="none" stroke="black" cx="2673.8" cy="-533.03" rx="33.88" ry="30.31"/>
<text text-anchor="middle" x="2673.8" y="-524.93" font-family="Times,serif" font-size="32.00">11</text>
</g>
<!-- 10&#45;&gt;11 -->
<g id="edge37" class="edge">
<title>10&#45;&gt;11</title>
<path fill="none" stroke="#000000" d="M2870.3,-664.99C2831.96,-667.84 2768.32,-666.8 2725.74,-636.03 2704.75,-620.86 2691.95,-594.6 2684.43,-572.39"/>
<polygon fill="#000000" stroke="#000000" points="2687.77,-571.33 2681.43,-562.84 2681.09,-573.43 2687.77,-571.33"/>
<text text-anchor="middle" x="2779.74" y="-710.43" font-family="Times,serif" font-size="32.00">ε_16</text>
<text text-anchor="middle" x="2779.74" y="-675.43" font-family="Times,serif" font-size="32.00">=&gt;10 11</text>
</g>
<!-- 11&#45;&gt;5 -->
<g id="edge36" class="edge">
<title>11&#45;&gt;5</title>
<path fill="none" stroke="#000000" d="M2666.65,-502.9C2654.76,-445.32 2629.14,-324.78 2621.85,-319.03 2572.22,-279.82 2122.07,-325.67 1990.69,-340.02"/>
<polygon fill="#000000" stroke="#000000" points="1990.29,-336.54 1980.74,-341.11 1991.06,-343.5 1990.29,-336.54"/>
<text text-anchor="middle" x="2328.35" y="-360.43" font-family="Times,serif" font-size="32.00">ε_15</text>
<text text-anchor="middle" x="2328.35" y="-325.43" font-family="Times,serif" font-size="32.00">=&gt;11 =of 5</text>
</g>
<!-- 11&#45;&gt;8 -->
<g id="edge40" class="edge">
<title>11&#45;&gt;8</title>
<path fill="none" stroke="#000000" d="M2657.96,-560.17C2649.18,-573.79 2636.83,-589.4 2621.85,-599.03 2549.3,-645.65 2511.78,-608.25 2432.85,-643.03 2417.78,-649.67 2384.42,-673.22 2359.62,-691.4"/>
<polygon fill="#000000" stroke="#000000" points="2357.23,-688.82 2351.25,-697.57 2361.38,-694.45 2357.23,-688.82"/>
<text text-anchor="middle" x="2527.35" y="-687.43" font-family="Times,serif" font-size="32.00">ε_18</text>
<text text-anchor="middle" x="2527.35" y="-652.43" font-family="Times,serif" font-size="32.00">=&gt;11 8</text>
</g>
<!-- 11&#45;&gt;9 -->
<g id="edge38" class="edge">
<title>11&#45;&gt;9</title>
<path fill="none" stroke="#000000" d="M2640.21,-527.74C2634.12,-526.8 2627.8,-525.85 2621.85,-525.03 2579.95,-519.19 2468.7,-524.51 2432.85,-502.03 2420.32,-494.16 2425.81,-483.97 2414.85,-474.03 2400.08,-460.61 2380.46,-450.13 2363.75,-442.77"/>
<polygon fill="#000000" stroke="#000000" points="2364.87,-439.44 2354.3,-438.79 2362.16,-445.9 2364.87,-439.44"/>
<text text-anchor="middle" x="2527.35" y="-569.43" font-family="Times,serif" font-size="32.00">ε_17</text>
<text text-anchor="middle" x="2527.35" y="-534.43" font-family="Times,serif" font-size="32.00">=&gt;11 9</text>
</g>
<!-- z5 -->
<g id="node29" class="node">
<title>z5</title>
<ellipse fill="none" stroke="black" stroke-dasharray="5,2" cx="2904.06" cy="-440.03" rx="27" ry="18"/>
</g>
<!-- z5&#45;&gt;11 -->
<g id="edge39" class="edge">
<title>z5&#45;&gt;11</title>
<path fill="none" stroke="#000000" d="M2879.51,-432.26C2843.51,-421.92 2773.89,-408.06 2725.74,-437.03 2705.22,-449.37 2692.52,-473.06 2684.94,-493.82"/>
<polygon fill="#000000" stroke="#000000" points="2681.59,-492.81 2681.71,-503.41 2688.22,-495.05 2681.59,-492.81"/>
<text text-anchor="middle" x="2779.74" y="-516.43" font-family="Times,serif" font-size="32.00">neglect |</text>
<text text-anchor="middle" x="2779.74" y="-481.43" font-family="Times,serif" font-size="32.00"> scorn</text>
<text text-anchor="middle" x="2779.74" y="-446.43" font-family="Times,serif" font-size="32.00">11</text>
</g>
<!-- z6 -->
<g id="node30" class="node">
<title>z6</title>
<ellipse fill="none" stroke="black" stroke-dasharray="5,2" cx="2904.06" cy="-312.03" rx="27" ry="18"/>
</g>
<!-- 12 -->
<g id="node31" class="node">
<title>12</title>
<ellipse fill="none" stroke="black" cx="2673.8" cy="-329.03" rx="33.88" ry="30.31"/>
<text text-anchor="middle" x="2673.8" y="-320.93" font-family="Times,serif" font-size="32.00">12</text>
</g>
<!-- z6&#45;&gt;12 -->
<g id="edge41" class="edge">
<title>z6&#45;&gt;12</title>
<path fill="none" stroke="#000000" d="M2877.03,-309.76C2842.29,-307.3 2778.97,-304.71 2725.74,-313.03 2722.29,-313.56 2718.75,-314.29 2715.23,-315.14"/>
<polygon fill="#000000" stroke="#000000" points="2714.16,-311.8 2705.42,-317.79 2715.99,-318.56 2714.16,-311.8"/>
<text text-anchor="middle" x="2779.74" y="-392.43" font-family="Times,serif" font-size="32.00">respect |</text>
<text text-anchor="middle" x="2779.74" y="-357.43" font-family="Times,serif" font-size="32.00"> disdain</text>
<text text-anchor="middle" x="2779.74" y="-322.43" font-family="Times,serif" font-size="32.00">12</text>
</g>
<!-- 12&#45;&gt;5 -->
<g id="edge42" class="edge">
<title>12&#45;&gt;5</title>
<path fill="none" stroke="#000000" d="M2648.43,-308.45C2640.33,-302.28 2631.03,-295.87 2621.85,-291.03 2469.91,-210.82 2410.45,-186.93 2241.85,-220.03 2143.63,-239.31 2037.98,-295.16 1986.58,-324.89"/>
<polygon fill="#000000" stroke="#000000" points="1984.79,-321.88 1977.92,-329.95 1988.32,-327.93 1984.79,-321.88"/>
<text text-anchor="middle" x="2328.35" y="-264.43" font-family="Times,serif" font-size="32.00">ε_19</text>
<text text-anchor="middle" x="2328.35" y="-229.43" font-family="Times,serif" font-size="32.00">=&gt;12 =for 5</text>
</g>
<!-- 12&#45;&gt;8 -->
<g id="edge44" class="edge">
<title>12&#45;&gt;8</title>
<path fill="none" stroke="#000000" d="M2662.1,-357.94C2653.91,-375.76 2640.78,-397.37 2621.85,-409.03 2585.91,-431.16 2462.4,-397.87 2432.85,-428.03 2397.75,-463.85 2439.58,-609.38 2414.85,-653.03 2403.24,-673.52 2381.58,-688.86 2362.97,-699.03"/>
<polygon fill="#000000" stroke="#000000" points="2361.13,-696.04 2353.86,-703.75 2364.35,-702.26 2361.13,-696.04"/>
<text text-anchor="middle" x="2527.35" y="-472.43" font-family="Times,serif" font-size="32.00">ε_21</text>
<text text-anchor="middle" x="2527.35" y="-437.43" font-family="Times,serif" font-size="32.00">=&gt;12 8</text>
</g>
<!-- 12&#45;&gt;9 -->
<g id="edge43" class="edge">
<title>12&#45;&gt;9</title>
<path fill="none" stroke="#000000" d="M2640.91,-320.23C2591.32,-308.59 2494.97,-294.36 2432.85,-339.03 2414.69,-352.08 2429.78,-369.37 2414.85,-386.03 2401.35,-401.1 2381.47,-411.76 2364.27,-418.81"/>
<polygon fill="#000000" stroke="#000000" points="2362.61,-415.7 2354.53,-422.55 2365.12,-422.23 2362.61,-415.7"/>
<text text-anchor="middle" x="2527.35" y="-383.43" font-family="Times,serif" font-size="32.00">ε_20</text>
<text text-anchor="middle" x="2527.35" y="-348.43" font-family="Times,serif" font-size="32.00">=&gt;12 9</text>
</g>
<!-- z7 -->
<g id="node32" class="node">
<title>z7</title>
<ellipse fill="none" stroke="black" stroke-dasharray="5,2" cx="3122.39" cy="-568.03" rx="27" ry="18"/>
</g>
<!-- 13 -->
<g id="node33" class="node">
<title>13</title>
<ellipse fill="none" stroke="black" cx="2904.06" cy="-568.03" rx="33.88" ry="30.31"/>
<text text-anchor="middle" x="2904.06" y="-559.93" font-family="Times,serif" font-size="32.00">13</text>
</g>
<!-- z7&#45;&gt;13 -->
<g id="edge45" class="edge">
<title>z7&#45;&gt;13</title>
<path fill="none" stroke="#000000" d="M3095.3,-568.03C3058.88,-568.03 2992.37,-568.03 2948.44,-568.03"/>
<polygon fill="#000000" stroke="#000000" points="2948.33,-564.53 2938.33,-568.03 2948.33,-571.53 2948.33,-564.53"/>
<text text-anchor="middle" x="3025.89" y="-612.43" font-family="Times,serif" font-size="32.00">doubt</text>
<text text-anchor="middle" x="3025.89" y="-577.43" font-family="Times,serif" font-size="32.00">13</text>
</g>
<!-- 13&#45;&gt;a -->
<g id="edge48" class="edge">
<title>13&#45;&gt;a</title>
<path fill="none" stroke="#000000" d="M2878.4,-587.96C2868.54,-597.27 2858.06,-609.13 2851.74,-622.03 2828.39,-669.66 2868.32,-699.8 2833.74,-740.03 2769.44,-814.82 2717.9,-783.59 2621.85,-806.03 2578.26,-816.21 2268.49,-865.51 2223.85,-869.03 2147.2,-875.05 2124.84,-889.94 2050.85,-869.03 2026.59,-862.16 2002.42,-847.25 1984.4,-834.14"/>
<polygon fill="#000000" stroke="#000000" points="1986.18,-831.09 1976.08,-827.89 1981.97,-836.69 1986.18,-831.09"/>
<text text-anchor="middle" x="2527.35" y="-883.43" font-family="Times,serif" font-size="32.00">ful_3</text>
<text text-anchor="middle" x="2527.35" y="-848.43" font-family="Times,serif" font-size="32.00">=&gt;13 =about a</text>
</g>
<!-- 13&#45;&gt;5 -->
<g id="edge47" class="edge">
<title>13&#45;&gt;5</title>
<path fill="none" stroke="#000000" d="M2886.35,-541.7C2874.64,-521.94 2859.73,-493.79 2851.74,-467.03 2830.89,-397.19 2869.29,-367.65 2833.74,-304.03 2775.52,-199.83 2734.74,-177.79 2621.85,-139.03 2379.43,-55.77 2240.24,-47.3 2050.85,-220.03 2030.91,-238.21 2047.75,-255.52 2032.85,-278.03 2020.88,-296.12 2002.53,-312 1986.64,-323.64"/>
<polygon fill="#000000" stroke="#000000" points="1984.27,-321.03 1978.12,-329.66 1988.31,-326.75 1984.27,-321.03"/>
<text text-anchor="middle" x="2527.35" y="-183.43" font-family="Times,serif" font-size="32.00">ε_23</text>
<text text-anchor="middle" x="2527.35" y="-148.43" font-family="Times,serif" font-size="32.00">=&gt;13 =about 5</text>
</g>
<!-- 13&#45;&gt;11 -->
<g id="edge46" class="edge">
<title>13&#45;&gt;11</title>
<path fill="none" stroke="#000000" d="M2870.19,-565.2C2834.44,-561.84 2775.73,-555.47 2725.74,-546.03 2722.7,-545.45 2719.57,-544.8 2716.43,-544.1"/>
<polygon fill="#000000" stroke="#000000" points="2716.99,-540.64 2706.45,-541.76 2715.39,-547.46 2716.99,-540.64"/>
<text text-anchor="middle" x="2779.74" y="-606.43" font-family="Times,serif" font-size="32.00">ε_22</text>
<text text-anchor="middle" x="2779.74" y="-571.43" font-family="Times,serif" font-size="32.00">=&gt;13 11</text>
</g>
</g>
</svg>
