<?xml version="1.0" encoding="UTF-8" standalone="no"?>
<!DOCTYPE svg PUBLIC "-//W3C//DTD SVG 1.1//EN"
 "http://www.w3.org/Graphics/SVG/1.1/DTD/svg11.dtd">
<!-- Generated by graphviz version 2.47.1 (20210417.1919)
 -->
<!-- Title: G Pages: 1 -->
<svg width="3165pt" height="1232pt"
 viewBox="0.00 0.00 3165.39 1232.26" xmlns="http://www.w3.org/2000/svg" xmlns:xlink="http://www.w3.org/1999/xlink">
<g id="graph0" class="graph" transform="scale(1 1) rotate(0) translate(4 1228.26)">
<title>G</title>
<polygon fill="white" stroke="transparent" points="-4,4 -4,-1228.26 3161.39,-1228.26 3161.39,4 -4,4"/>
<text text-anchor="middle" x="1578.69" y="-13.4" font-family="Times,serif" font-size="32.00">single contraction: 10 → 11</text>
<!-- t -->
<g id="node1" class="node">
<title>t</title>
<ellipse fill="lightgray" stroke="black" cx="27" cy="-686.26" rx="27" ry="30.31"/>
<text text-anchor="middle" x="27" y="-678.16" font-family="Times,serif" font-size="32.00">t</text>
</g>
<!-- z0 -->
<g id="node2" class="node">
<title>z0</title>
<ellipse fill="none" stroke="black" stroke-dasharray="5,2" cx="3130.39" cy="-991.26" rx="27" ry="18"/>
</g>
<!-- da -->
<g id="node3" class="node">
<title>da</title>
<ellipse fill="none" stroke="black" cx="2912.06" cy="-991.26" rx="33.47" ry="30.31"/>
<text text-anchor="middle" x="2912.06" y="-983.16" font-family="Times,serif" font-size="32.00">da</text>
</g>
<!-- z0&#45;&gt;da -->
<g id="edge1" class="edge">
<title>z0&#45;&gt;da</title>
<path fill="none" stroke="#000000" d="M3103.3,-991.26C3066.67,-991.26 2999.61,-991.26 2955.69,-991.26"/>
<polygon fill="#000000" stroke="#000000" points="2955.6,-987.76 2945.6,-991.26 2955.6,-994.76 2955.6,-987.76"/>
<text text-anchor="middle" x="3033.89" y="-1070.66" font-family="Times,serif" font-size="32.00">Mary |</text>
<text text-anchor="middle" x="3033.89" y="-1035.66" font-family="Times,serif" font-size="32.00"> John</text>
<text text-anchor="middle" x="3033.89" y="-1000.66" font-family="Times,serif" font-size="32.00">da &#45;k</text>
</g>
<!-- z1 -->
<g id="node4" class="node">
<title>z1</title>
<ellipse fill="none" stroke="black" stroke-dasharray="5,2" cx="3130.39" cy="-1119.26" rx="27" ry="18"/>
</g>
<!-- poss -->
<g id="node5" class="node">
<title>poss</title>
<ellipse fill="none" stroke="black" cx="2912.06" cy="-1119.26" rx="52.15" ry="30.31"/>
<text text-anchor="middle" x="2912.06" y="-1111.16" font-family="Times,serif" font-size="32.00">poss</text>
</g>
<!-- z1&#45;&gt;poss -->
<g id="edge2" class="edge">
<title>z1&#45;&gt;poss</title>
<path fill="none" stroke="#000000" d="M3103.3,-1119.26C3071.63,-1119.26 3017.2,-1119.26 2974.66,-1119.26"/>
<polygon fill="#000000" stroke="#000000" points="2974.4,-1115.76 2964.4,-1119.26 2974.4,-1122.76 2974.4,-1115.76"/>
<text text-anchor="middle" x="3033.89" y="-1198.66" font-family="Times,serif" font-size="32.00">Mary&#39;s |</text>
<text text-anchor="middle" x="3033.89" y="-1163.66" font-family="Times,serif" font-size="32.00"> John&#39;s</text>
<text text-anchor="middle" x="3033.89" y="-1128.66" font-family="Times,serif" font-size="32.00">poss</text>
</g>
<!-- z2 -->
<g id="node6" class="node">
<title>z2</title>
<ellipse fill="none" stroke="black" stroke-dasharray="5,2" cx="1953.85" cy="-259.26" rx="27" ry="18"/>
</g>
<!-- d -->
<g id="node7" class="node">
<title>d</title>
<ellipse fill="none" stroke="black" cx="1617.85" cy="-300.26" rx="27" ry="30.31"/>
<text text-anchor="middle" x="1617.85" y="-292.16" font-family="Times,serif" font-size="32.00">d</text>
</g>
<!-- z2&#45;&gt;d -->
<g id="edge3" class="edge">
<title>z2&#45;&gt;d</title>
<path fill="none" stroke="#000000" d="M1928.08,-253.59C1876.58,-243.02 1755.07,-224.43 1662.85,-260.26 1656.26,-262.83 1650.04,-266.88 1644.47,-271.45"/>
<polygon fill="#000000" stroke="#000000" points="1641.87,-269.09 1636.81,-278.39 1646.57,-274.27 1641.87,-269.09"/>
<text text-anchor="middle" x="1759.85" y="-304.66" font-family="Times,serif" font-size="32.00">the&#45;cause</text>
<text text-anchor="middle" x="1759.85" y="-269.66" font-family="Times,serif" font-size="32.00">d &#45;k</text>
</g>
<!-- for -->
<g id="node8" class="node">
<title>for</title>
<ellipse fill="none" stroke="black" cx="1340.34" cy="-435.26" rx="37.45" ry="30.31"/>
<text text-anchor="middle" x="1340.34" y="-427.16" font-family="Times,serif" font-size="32.00">for</text>
</g>
<!-- d&#45;&gt;for -->
<g id="edge4" class="edge">
<title>d&#45;&gt;for</title>
<path fill="none" stroke="#000000" d="M1606.48,-328.1C1599.35,-343.3 1588.35,-361.05 1572.85,-371.26 1515.43,-409.1 1485.23,-372.94 1419.85,-394.26 1406.09,-398.75 1391.83,-405.48 1379.3,-412.2"/>
<polygon fill="#000000" stroke="#000000" points="1377.57,-409.16 1370.51,-417.06 1380.96,-415.28 1377.57,-409.16"/>
<text text-anchor="middle" x="1496.35" y="-438.66" font-family="Times,serif" font-size="32.00">for</text>
<text text-anchor="middle" x="1496.35" y="-403.66" font-family="Times,serif" font-size="32.00">=d *k for</text>
</g>
<!-- of -->
<g id="node9" class="node">
<title>of</title>
<ellipse fill="none" stroke="black" cx="1340.34" cy="-300.26" rx="30.31" ry="30.31"/>
<text text-anchor="middle" x="1340.34" y="-292.16" font-family="Times,serif" font-size="32.00">of</text>
</g>
<!-- d&#45;&gt;of -->
<g id="edge5" class="edge">
<title>d&#45;&gt;of</title>
<path fill="none" stroke="#000000" d="M1590.44,-300.26C1541.87,-300.26 1438.17,-300.26 1381.08,-300.26"/>
<polygon fill="#000000" stroke="#000000" points="1380.98,-296.76 1370.98,-300.26 1380.98,-303.76 1380.98,-296.76"/>
<text text-anchor="middle" x="1496.35" y="-344.66" font-family="Times,serif" font-size="32.00">of</text>
<text text-anchor="middle" x="1496.35" y="-309.66" font-family="Times,serif" font-size="32.00">=d *k of</text>
</g>
<!-- about -->
<g id="node10" class="node">
<title>about</title>
<ellipse fill="none" stroke="black" cx="1340.34" cy="-207.26" rx="61.54" ry="30.31"/>
<text text-anchor="middle" x="1340.34" y="-199.16" font-family="Times,serif" font-size="32.00">about</text>
</g>
<!-- d&#45;&gt;about -->
<g id="edge6" class="edge">
<title>d&#45;&gt;about</title>
<path fill="none" stroke="#000000" d="M1607.51,-271.98C1600.6,-255.77 1589.46,-236.63 1572.85,-226.26 1524.31,-195.95 1458.44,-193.41 1409.38,-197.16"/>
<polygon fill="#000000" stroke="#000000" points="1408.83,-193.69 1399.17,-198.05 1409.44,-200.67 1408.83,-193.69"/>
<text text-anchor="middle" x="1496.35" y="-270.66" font-family="Times,serif" font-size="32.00">about</text>
<text text-anchor="middle" x="1496.35" y="-235.66" font-family="Times,serif" font-size="32.00">=d *k about</text>
</g>
<!-- 4 -->
<g id="node19" class="node">
<title>4</title>
<ellipse fill="none" stroke="black" cx="2328.35" cy="-620.26" rx="27" ry="30.31"/>
<text text-anchor="middle" x="2328.35" y="-612.16" font-family="Times,serif" font-size="32.00">4</text>
</g>
<!-- for&#45;&gt;4 -->
<g id="edge21" class="edge">
<title>for&#45;&gt;4</title>
<path fill="none" stroke="#000000" d="M1374.11,-449.04C1388.01,-454.45 1404.52,-460.29 1419.85,-464.26 1769.87,-554.91 1871.53,-507.09 2223.85,-588.26 2247.06,-593.61 2272.63,-601.49 2292.55,-608.1"/>
<polygon fill="#000000" stroke="#000000" points="2291.52,-611.45 2302.12,-611.32 2293.76,-604.81 2291.52,-611.45"/>
<text text-anchor="middle" x="1759.85" y="-577.66" font-family="Times,serif" font-size="32.00">hope</text>
<text text-anchor="middle" x="1759.85" y="-542.66" font-family="Times,serif" font-size="32.00">=for 4</text>
</g>
<!-- 0 -->
<g id="node11" class="node">
<title>0</title>
<ellipse fill="none" stroke="black" cx="229" cy="-686.26" rx="27" ry="30.31"/>
<text text-anchor="middle" x="229" y="-678.16" font-family="Times,serif" font-size="32.00">0</text>
</g>
<!-- 0&#45;&gt;t -->
<g id="edge7" class="edge">
<title>0&#45;&gt;t</title>
<path fill="none" stroke="#000000" d="M201.85,-686.26C166.67,-686.26 103.92,-686.26 64.21,-686.26"/>
<polygon fill="#000000" stroke="#000000" points="64.15,-682.76 54.15,-686.26 64.15,-689.76 64.15,-682.76"/>
<text text-anchor="middle" x="128" y="-765.66" font-family="Times,serif" font-size="32.00">s |</text>
<text text-anchor="middle" x="128" y="-730.66" font-family="Times,serif" font-size="32.00"> d</text>
<text text-anchor="middle" x="128" y="-695.66" font-family="Times,serif" font-size="32.00">=&gt;0 +k t</text>
</g>
<!-- 1 -->
<g id="node12" class="node">
<title>1</title>
<ellipse fill="none" stroke="black" cx="1617.85" cy="-818.26" rx="27" ry="30.31"/>
<text text-anchor="middle" x="1617.85" y="-810.16" font-family="Times,serif" font-size="32.00">1</text>
</g>
<!-- 2 -->
<g id="node13" class="node">
<title>2</title>
<ellipse fill="none" stroke="black" cx="1340.34" cy="-818.26" rx="27" ry="30.31"/>
<text text-anchor="middle" x="1340.34" y="-810.16" font-family="Times,serif" font-size="32.00">2</text>
</g>
<!-- 1&#45;&gt;2 -->
<g id="edge8" class="edge">
<title>1&#45;&gt;2</title>
<path fill="none" stroke="#000000" d="M1590.44,-818.26C1540.96,-818.26 1434.26,-818.26 1377.91,-818.26"/>
<polygon fill="#000000" stroke="#000000" points="1377.67,-814.76 1367.67,-818.26 1377.67,-821.76 1377.67,-814.76"/>
<text text-anchor="middle" x="1496.35" y="-862.66" font-family="Times,serif" font-size="32.00">ε_0</text>
<text text-anchor="middle" x="1496.35" y="-827.66" font-family="Times,serif" font-size="32.00">=&gt;1 =da 2</text>
</g>
<!-- v -->
<g id="node15" class="node">
<title>v</title>
<ellipse fill="none" stroke="black" cx="395" cy="-779.26" rx="27" ry="30.31"/>
<text text-anchor="middle" x="395" y="-771.16" font-family="Times,serif" font-size="32.00">v</text>
</g>
<!-- 2&#45;&gt;v -->
<g id="edge10" class="edge">
<title>2&#45;&gt;v</title>
<path fill="none" stroke="#000000" d="M1313.3,-818.26C1265.69,-818.26 1161.41,-818.26 1073.49,-818.26 1073.49,-818.26 1073.49,-818.26 599.08,-818.26 539.3,-818.26 471.38,-801.76 431.19,-790.23"/>
<polygon fill="#000000" stroke="#000000" points="431.93,-786.8 421.35,-787.34 429.96,-793.52 431.93,-786.8"/>
<text text-anchor="middle" x="834.17" y="-862.66" font-family="Times,serif" font-size="32.00">ε_1</text>
<text text-anchor="middle" x="834.17" y="-827.66" font-family="Times,serif" font-size="32.00">=&gt;2 v</text>
</g>
<!-- perf -->
<g id="node16" class="node">
<title>perf</title>
<ellipse fill="none" stroke="black" cx="600.08" cy="-876.26" rx="48.17" ry="30.31"/>
<text text-anchor="middle" x="600.08" y="-868.16" font-family="Times,serif" font-size="32.00">perf</text>
</g>
<!-- 2&#45;&gt;perf -->
<g id="edge11" class="edge">
<title>2&#45;&gt;perf</title>
<path fill="none" stroke="#000000" d="M1313.76,-825.01C1236.27,-844.75 997.05,-900.49 796.17,-892.26 749.57,-890.36 696.87,-885.89 658,-882.17"/>
<polygon fill="#000000" stroke="#000000" points="658.22,-878.67 647.92,-881.19 657.54,-885.64 658.22,-878.67"/>
<text text-anchor="middle" x="946.17" y="-936.66" font-family="Times,serif" font-size="32.00">n</text>
<text text-anchor="middle" x="946.17" y="-901.66" font-family="Times,serif" font-size="32.00">=&gt;2 perf</text>
</g>
<!-- prog -->
<g id="node17" class="node">
<title>prog</title>
<ellipse fill="none" stroke="black" cx="1072.49" cy="-725.26" rx="52.15" ry="30.31"/>
<text text-anchor="middle" x="1072.49" y="-717.16" font-family="Times,serif" font-size="32.00">prog</text>
</g>
<!-- 2&#45;&gt;prog -->
<g id="edge12" class="edge">
<title>2&#45;&gt;prog</title>
<path fill="none" stroke="#000000" d="M1324.08,-793.45C1310.28,-773.52 1287.99,-746.84 1260.82,-734.26 1221.25,-715.95 1171.82,-714.33 1133.68,-716.95"/>
<polygon fill="#000000" stroke="#000000" points="1132.92,-713.5 1123.23,-717.8 1133.48,-720.48 1132.92,-713.5"/>
<text text-anchor="middle" x="1201.82" y="-778.66" font-family="Times,serif" font-size="32.00">ing</text>
<text text-anchor="middle" x="1201.82" y="-743.66" font-family="Times,serif" font-size="32.00">=&gt;2 prog</text>
</g>
<!-- a -->
<g id="node14" class="node">
<title>a</title>
<ellipse fill="none" stroke="black" cx="1953.85" cy="-818.26" rx="27" ry="30.31"/>
<text text-anchor="middle" x="1953.85" y="-810.16" font-family="Times,serif" font-size="32.00">a</text>
</g>
<!-- a&#45;&gt;1 -->
<g id="edge9" class="edge">
<title>a&#45;&gt;1</title>
<path fill="none" stroke="#000000" d="M1926.65,-818.26C1867.38,-818.26 1722.95,-818.26 1655.14,-818.26"/>
<polygon fill="#000000" stroke="#000000" points="1654.94,-814.76 1644.94,-818.26 1654.94,-821.76 1654.94,-814.76"/>
<text text-anchor="middle" x="1759.85" y="-862.66" font-family="Times,serif" font-size="32.00">be</text>
<text text-anchor="middle" x="1759.85" y="-827.66" font-family="Times,serif" font-size="32.00">=a 1</text>
</g>
<!-- v&#45;&gt;0 -->
<g id="edge13" class="edge">
<title>v&#45;&gt;0</title>
<path fill="none" stroke="#000000" d="M367.84,-780.36C341.87,-780.18 302,-776.36 274,-757.26 261.66,-748.85 252.13,-735.71 245.14,-723.01"/>
<polygon fill="#000000" stroke="#000000" points="248.16,-721.23 240.5,-713.92 241.93,-724.42 248.16,-721.23"/>
<text text-anchor="middle" x="312" y="-824.66" font-family="Times,serif" font-size="32.00">will</text>
<text text-anchor="middle" x="312" y="-789.66" font-family="Times,serif" font-size="32.00">=v 0</text>
</g>
<!-- v&#45;&gt;0 -->
<g id="edge15" class="edge">
<title>v&#45;&gt;0</title>
<path fill="none" stroke="#000000" d="M389.09,-749.33C383.67,-726.91 372.53,-697.72 350,-683.26 325.03,-667.24 290.71,-669.97 265.17,-675.55"/>
<polygon fill="#000000" stroke="#000000" points="264.06,-672.21 255.16,-677.97 265.71,-679.02 264.06,-672.21"/>
<text text-anchor="middle" x="312" y="-727.66" font-family="Times,serif" font-size="32.00">ε_2</text>
<text text-anchor="middle" x="312" y="-692.66" font-family="Times,serif" font-size="32.00">=&gt;v 0</text>
</g>
<!-- perf&#45;&gt;v -->
<g id="edge14" class="edge">
<title>perf&#45;&gt;v</title>
<path fill="none" stroke="#000000" d="M552.51,-870.94C519.06,-865.4 474.05,-854.28 440,-832.26 431.74,-826.92 424.24,-819.54 417.88,-811.99"/>
<polygon fill="#000000" stroke="#000000" points="420.37,-809.49 411.43,-803.8 414.87,-813.82 420.37,-809.49"/>
<text text-anchor="middle" x="487" y="-911.66" font-family="Times,serif" font-size="32.00">have</text>
<text text-anchor="middle" x="487" y="-876.66" font-family="Times,serif" font-size="32.00">=perf v</text>
</g>
<!-- 3 -->
<g id="node18" class="node">
<title>3</title>
<ellipse fill="none" stroke="black" cx="834.17" cy="-716.26" rx="27" ry="30.31"/>
<text text-anchor="middle" x="834.17" y="-708.16" font-family="Times,serif" font-size="32.00">3</text>
</g>
<!-- prog&#45;&gt;3 -->
<g id="edge17" class="edge">
<title>prog&#45;&gt;3</title>
<path fill="none" stroke="#000000" d="M1020.21,-723.31C975.23,-721.6 910.95,-719.15 871.21,-717.64"/>
<polygon fill="#000000" stroke="#000000" points="871.3,-714.14 861.17,-717.25 871.03,-721.13 871.3,-714.14"/>
<text text-anchor="middle" x="946.17" y="-767.66" font-family="Times,serif" font-size="32.00">be_1</text>
<text text-anchor="middle" x="946.17" y="-732.66" font-family="Times,serif" font-size="32.00">=prog 3</text>
</g>
<!-- 3&#45;&gt;0 -->
<g id="edge16" class="edge">
<title>3&#45;&gt;0</title>
<path fill="none" stroke="#000000" d="M807.35,-710.23C755.77,-698.51 636.16,-673.08 534,-664.26 492.38,-660.67 481.78,-663.89 440,-664.26 366.21,-664.93 346.12,-651.68 274,-667.26 270.56,-668.01 267.06,-669.02 263.61,-670.2"/>
<polygon fill="#000000" stroke="#000000" points="262.18,-667 254.11,-673.86 264.7,-673.53 262.18,-667"/>
<text text-anchor="middle" x="487" y="-708.66" font-family="Times,serif" font-size="32.00">ε_3</text>
<text text-anchor="middle" x="487" y="-673.66" font-family="Times,serif" font-size="32.00">=&gt;3 0</text>
</g>
<!-- 3&#45;&gt;v -->
<g id="edge18" class="edge">
<title>3&#45;&gt;v</title>
<path fill="none" stroke="#000000" d="M806.97,-716.05C757,-716.07 644.76,-718.11 552,-734.26 509.4,-741.68 461.84,-756.37 430.56,-766.95"/>
<polygon fill="#000000" stroke="#000000" points="429.33,-763.67 421,-770.22 431.6,-770.29 429.33,-763.67"/>
<text text-anchor="middle" x="600.08" y="-778.66" font-family="Times,serif" font-size="32.00">ε_4</text>
<text text-anchor="middle" x="600.08" y="-743.66" font-family="Times,serif" font-size="32.00">=&gt;3 v</text>
</g>
<!-- 3&#45;&gt;perf -->
<g id="edge19" class="edge">
<title>3&#45;&gt;perf</title>
<path fill="none" stroke="#000000" d="M810.49,-731.9C771.43,-758.82 690.95,-814.31 641.92,-848.11"/>
<polygon fill="#000000" stroke="#000000" points="639.69,-845.39 633.45,-853.95 643.67,-851.16 639.69,-845.39"/>
<text text-anchor="middle" x="722.17" y="-873.66" font-family="Times,serif" font-size="32.00">n_1</text>
<text text-anchor="middle" x="722.17" y="-838.66" font-family="Times,serif" font-size="32.00">=&gt;3 perf</text>
</g>
<!-- 4&#45;&gt;1 -->
<g id="edge20" class="edge">
<title>4&#45;&gt;1</title>
<path fill="none" stroke="#000000" d="M2301.78,-613.49C2252.49,-601.52 2141.22,-579.84 2050.85,-601.26 1888.68,-639.71 1718.16,-749.08 1649.83,-796.21"/>
<polygon fill="#000000" stroke="#000000" points="1647.46,-793.59 1641.25,-802.17 1651.46,-799.34 1647.46,-793.59"/>
<text text-anchor="middle" x="1953.85" y="-708.66" font-family="Times,serif" font-size="32.00">ε_5</text>
<text text-anchor="middle" x="1953.85" y="-673.66" font-family="Times,serif" font-size="32.00">=&gt;4 1</text>
</g>
<!-- 4&#45;&gt;a -->
<g id="edge24" class="edge">
<title>4&#45;&gt;a</title>
<path fill="none" stroke="#000000" d="M2303.25,-632.13C2285.39,-641.5 2260.95,-655.57 2241.85,-671.26 2232.62,-678.86 2234.5,-685.81 2223.85,-691.26 2155.02,-726.55 2119.58,-674.77 2050.85,-710.26 2018.36,-727.05 1991.73,-759.75 1974.84,-784.79"/>
<polygon fill="#000000" stroke="#000000" points="1971.82,-783.01 1969.27,-793.29 1977.68,-786.84 1971.82,-783.01"/>
<text text-anchor="middle" x="2137.35" y="-754.66" font-family="Times,serif" font-size="32.00">ful</text>
<text text-anchor="middle" x="2137.35" y="-719.66" font-family="Times,serif" font-size="32.00">=&gt;4 a</text>
</g>
<!-- 5 -->
<g id="node20" class="node">
<title>5</title>
<ellipse fill="none" stroke="black" cx="1953.85" cy="-352.26" rx="27" ry="30.31"/>
<text text-anchor="middle" x="1953.85" y="-344.16" font-family="Times,serif" font-size="32.00">5</text>
</g>
<!-- 4&#45;&gt;5 -->
<g id="edge23" class="edge">
<title>4&#45;&gt;5</title>
<path fill="none" stroke="#000000" d="M2301.61,-613.71C2282.15,-607.39 2256.38,-595.83 2241.85,-576.26 2215.46,-540.71 2254.01,-510.7 2223.85,-478.26 2169.76,-420.08 2121.41,-469.79 2050.85,-433.26 2036.24,-425.7 2005.49,-398.9 1982.71,-378.17"/>
<polygon fill="#000000" stroke="#000000" points="1985.06,-375.58 1975.32,-371.41 1980.33,-380.74 1985.06,-375.58"/>
<text text-anchor="middle" x="2137.35" y="-522.66" font-family="Times,serif" font-size="32.00">ε_7</text>
<text text-anchor="middle" x="2137.35" y="-487.66" font-family="Times,serif" font-size="32.00">=&gt;4 5</text>
</g>
<!-- 5&#45;&gt;d -->
<g id="edge22" class="edge">
<title>5&#45;&gt;d</title>
<path fill="none" stroke="#000000" d="M1926.73,-354.69C1874.79,-358.57 1755.54,-362.74 1662.85,-330.26 1657.96,-328.55 1653.1,-326.15 1648.5,-323.44"/>
<polygon fill="#000000" stroke="#000000" points="1650.31,-320.44 1640.01,-317.96 1646.51,-326.32 1650.31,-320.44"/>
<text text-anchor="middle" x="1759.85" y="-402.66" font-family="Times,serif" font-size="32.00">ε_6</text>
<text text-anchor="middle" x="1759.85" y="-367.66" font-family="Times,serif" font-size="32.00">=&gt;5 poss= d &#45;k</text>
</g>
<!-- 6 -->
<g id="node21" class="node">
<title>6</title>
<ellipse fill="none" stroke="black" cx="2328.35" cy="-916.26" rx="27" ry="30.31"/>
<text text-anchor="middle" x="2328.35" y="-908.16" font-family="Times,serif" font-size="32.00">6</text>
</g>
<!-- 6&#45;&gt;1 -->
<g id="edge25" class="edge">
<title>6&#45;&gt;1</title>
<path fill="none" stroke="#000000" d="M2302.09,-923.32C2208.99,-947.77 1879.32,-1020.62 1662.85,-892.26 1649.17,-884.15 1639.26,-869.99 1632.35,-856.22"/>
<polygon fill="#000000" stroke="#000000" points="1635.39,-854.45 1628.04,-846.82 1629.03,-857.37 1635.39,-854.45"/>
<text text-anchor="middle" x="1953.85" y="-1010.66" font-family="Times,serif" font-size="32.00">ε_8</text>
<text text-anchor="middle" x="1953.85" y="-975.66" font-family="Times,serif" font-size="32.00">=&gt;6 1</text>
</g>
<!-- 6&#45;&gt;5 -->
<g id="edge28" class="edge">
<title>6&#45;&gt;5</title>
<path fill="none" stroke="#000000" d="M2311.72,-892.21C2292.04,-860.72 2258.79,-803.18 2241.85,-749.26 2224.11,-692.77 2260.78,-663.55 2223.85,-617.26 2172.63,-553.06 2102.15,-616.41 2050.85,-552.26 2014.43,-506.71 2060.23,-473.77 2032.85,-422.26 2022.09,-402.01 2003.02,-384.74 1986.43,-372.41"/>
<polygon fill="#000000" stroke="#000000" points="1988.22,-369.38 1978.04,-366.43 1984.15,-375.08 1988.22,-369.38"/>
<text text-anchor="middle" x="2137.35" y="-661.66" font-family="Times,serif" font-size="32.00">ε_10</text>
<text text-anchor="middle" x="2137.35" y="-626.66" font-family="Times,serif" font-size="32.00">=&gt;6 5</text>
</g>
<!-- 7 -->
<g id="node22" class="node">
<title>7</title>
<ellipse fill="none" stroke="black" cx="2673.8" cy="-925.26" rx="27" ry="30.31"/>
<text text-anchor="middle" x="2673.8" y="-917.16" font-family="Times,serif" font-size="32.00">7</text>
</g>
<!-- 7&#45;&gt;1 -->
<g id="edge31" class="edge">
<title>7&#45;&gt;1</title>
<path fill="none" stroke="#000000" d="M2664.26,-954.17C2656.54,-975.31 2643.08,-1003.02 2621.85,-1019.26 2546.78,-1076.73 2508.76,-1057.3 2414.85,-1068.26 2176.15,-1096.13 2106.96,-1102.58 1874.85,-1040.26 1773.87,-1013.15 1733.12,-1015.7 1662.85,-938.26 1642.67,-916.02 1631.53,-883.75 1625.51,-858.28"/>
<polygon fill="#000000" stroke="#000000" points="1628.86,-857.2 1623.31,-848.18 1622.02,-858.7 1628.86,-857.2"/>
<text text-anchor="middle" x="2137.35" y="-1132.66" font-family="Times,serif" font-size="32.00">ε_12</text>
<text text-anchor="middle" x="2137.35" y="-1097.66" font-family="Times,serif" font-size="32.00">=&gt;7 =about 1</text>
</g>
<!-- 7&#45;&gt;a -->
<g id="edge33" class="edge">
<title>7&#45;&gt;a</title>
<path fill="none" stroke="#000000" d="M2661.25,-952.3C2652.85,-968.25 2639.81,-987.05 2621.85,-996.26 2547.12,-1034.62 2516.39,-1005.13 2432.85,-996.26 2259.3,-977.85 2204.34,-988.35 2050.85,-905.26 2023.73,-890.58 1998.13,-866.67 1980.19,-847.63"/>
<polygon fill="#000000" stroke="#000000" points="1982.58,-845.06 1973.23,-840.07 1977.43,-849.8 1982.58,-845.06"/>
<text text-anchor="middle" x="2328.35" y="-1038.66" font-family="Times,serif" font-size="32.00">ful_2</text>
<text text-anchor="middle" x="2328.35" y="-1003.66" font-family="Times,serif" font-size="32.00">=&gt;7 =about a</text>
</g>
<!-- 7&#45;&gt;5 -->
<g id="edge32" class="edge">
<title>7&#45;&gt;5</title>
<path fill="none" stroke="#000000" d="M2671.96,-894.76C2669.44,-826.41 2659.52,-664.1 2621.85,-627.26 2561.15,-567.89 2494.52,-657.64 2432.85,-599.26 2403.87,-571.82 2443.04,-539.54 2414.85,-511.26 2359.42,-455.64 2302.65,-524.98 2241.85,-475.26 2226.13,-462.41 2239,-446.79 2223.85,-433.26 2157.06,-373.58 2047.65,-357.84 1991.15,-353.71"/>
<polygon fill="#000000" stroke="#000000" points="1991.12,-350.2 1980.91,-353.05 1990.66,-357.19 1991.12,-350.2"/>
<text text-anchor="middle" x="2328.35" y="-555.66" font-family="Times,serif" font-size="32.00">ε_13</text>
<text text-anchor="middle" x="2328.35" y="-520.66" font-family="Times,serif" font-size="32.00">=&gt;7 =about 5</text>
</g>
<!-- 7&#45;&gt;6 -->
<g id="edge26" class="edge">
<title>7&#45;&gt;6</title>
<path fill="none" stroke="#000000" d="M2646.7,-924.58C2585.95,-922.99 2434.98,-919.03 2365.45,-917.21"/>
<polygon fill="#000000" stroke="#000000" points="2365.5,-913.71 2355.41,-916.95 2365.32,-920.71 2365.5,-913.71"/>
<text text-anchor="middle" x="2527.35" y="-968.66" font-family="Times,serif" font-size="32.00">ε_9</text>
<text text-anchor="middle" x="2527.35" y="-933.66" font-family="Times,serif" font-size="32.00">=&gt;7 =of 6</text>
</g>
<!-- 8 -->
<g id="node24" class="node">
<title>8</title>
<ellipse fill="none" stroke="black" cx="2328.35" cy="-710.26" rx="27" ry="30.31"/>
<text text-anchor="middle" x="2328.35" y="-702.16" font-family="Times,serif" font-size="32.00">8</text>
</g>
<!-- 7&#45;&gt;8 -->
<g id="edge30" class="edge">
<title>7&#45;&gt;8</title>
<path fill="none" stroke="#000000" d="M2668.64,-895.06C2661.51,-847.92 2645.38,-760.17 2621.85,-740.26 2612.19,-732.09 2441.79,-718.56 2365.63,-712.89"/>
<polygon fill="#000000" stroke="#000000" points="2365.76,-709.39 2355.53,-712.15 2365.25,-716.37 2365.76,-709.39"/>
<text text-anchor="middle" x="2527.35" y="-784.66" font-family="Times,serif" font-size="32.00">ε_11</text>
<text text-anchor="middle" x="2527.35" y="-749.66" font-family="Times,serif" font-size="32.00">=&gt;7 8</text>
</g>
<!-- z3 -->
<g id="node23" class="node">
<title>z3</title>
<ellipse fill="none" stroke="black" stroke-dasharray="5,2" cx="2912.06" cy="-925.26" rx="27" ry="18"/>
</g>
<!-- z3&#45;&gt;7 -->
<g id="edge27" class="edge">
<title>z3&#45;&gt;7</title>
<path fill="none" stroke="#000000" d="M2884.88,-925.26C2842.65,-925.26 2759.42,-925.26 2711.37,-925.26"/>
<polygon fill="#000000" stroke="#000000" points="2711.1,-921.76 2701.1,-925.26 2711.1,-928.76 2711.1,-921.76"/>
<text text-anchor="middle" x="2783.74" y="-969.66" font-family="Times,serif" font-size="32.00">boast</text>
<text text-anchor="middle" x="2783.74" y="-934.66" font-family="Times,serif" font-size="32.00">7</text>
</g>
<!-- 8&#45;&gt;a -->
<g id="edge29" class="edge">
<title>8&#45;&gt;a</title>
<path fill="none" stroke="#000000" d="M2307,-729.56C2287.36,-746.97 2255.94,-771.7 2223.85,-784.26 2213.15,-788.46 2061.97,-806.07 1991.07,-814.16"/>
<polygon fill="#000000" stroke="#000000" points="1990.35,-810.72 1980.81,-815.33 1991.15,-817.68 1990.35,-810.72"/>
<text text-anchor="middle" x="2137.35" y="-851.66" font-family="Times,serif" font-size="32.00">ful_1</text>
<text text-anchor="middle" x="2137.35" y="-816.66" font-family="Times,serif" font-size="32.00">=&gt;8 =of a</text>
</g>
<!-- 9 -->
<g id="node25" class="node">
<title>9</title>
<ellipse fill="none" stroke="black" cx="2328.35" cy="-436.26" rx="27" ry="30.31"/>
<text text-anchor="middle" x="2328.35" y="-428.16" font-family="Times,serif" font-size="32.00">9</text>
</g>
<!-- 9&#45;&gt;1 -->
<g id="edge34" class="edge">
<title>9&#45;&gt;1</title>
<path fill="none" stroke="#000000" d="M2300.99,-435.56C2251.28,-434.85 2140.64,-436.19 2050.85,-458.26 1968.29,-478.57 1946.68,-487.76 1874.85,-533.26 1865.81,-538.99 1865.39,-542.81 1856.85,-549.26 1775.25,-611 1724.65,-591.7 1662.85,-673.26 1639.66,-703.88 1628.61,-746.73 1623.4,-777.91"/>
<polygon fill="#000000" stroke="#000000" points="1619.91,-777.58 1621.85,-788 1626.83,-778.65 1619.91,-777.58"/>
<text text-anchor="middle" x="1953.85" y="-577.66" font-family="Times,serif" font-size="32.00">ε_14</text>
<text text-anchor="middle" x="1953.85" y="-542.66" font-family="Times,serif" font-size="32.00">=&gt;9 =d *k 1</text>
</g>
<!-- z4 -->
<g id="node26" class="node">
<title>z4</title>
<ellipse fill="none" stroke="black" stroke-dasharray="5,2" cx="2912.06" cy="-592.26" rx="27" ry="18"/>
</g>
<!-- 10 -->
<g id="node27" class="node">
<title>10</title>
<ellipse fill="none" stroke="black" cx="2673.8" cy="-528.26" rx="33.88" ry="30.31"/>
<text text-anchor="middle" x="2673.8" y="-520.16" font-family="Times,serif" font-size="32.00">10</text>
</g>
<!-- z4&#45;&gt;10 -->
<g id="edge35" class="edge">
<title>z4&#45;&gt;10</title>
<path fill="none" stroke="#000000" d="M2885.01,-593.68C2848.04,-594.72 2778.92,-592.99 2725.74,-570.26 2718.33,-567.1 2711.14,-562.5 2704.62,-557.5"/>
<polygon fill="#000000" stroke="#000000" points="2706.7,-554.67 2696.75,-551.03 2702.25,-560.08 2706.7,-554.67"/>
<text text-anchor="middle" x="2783.74" y="-707.66" font-family="Times,serif" font-size="32.00">fear |</text>
<text text-anchor="middle" x="2783.74" y="-672.66" font-family="Times,serif" font-size="32.00"> neglect |</text>
<text text-anchor="middle" x="2783.74" y="-637.66" font-family="Times,serif" font-size="32.00"> scorn</text>
<text text-anchor="middle" x="2783.74" y="-602.66" font-family="Times,serif" font-size="32.00">10</text>
</g>
<!-- 10&#45;&gt;5 -->
<g id="edge36" class="edge">
<title>10&#45;&gt;5</title>
<path fill="none" stroke="#000000" d="M2666.42,-498.55C2654.37,-443.05 2628.84,-328.73 2621.85,-323.26 2572.01,-284.29 2122.01,-332.89 1990.68,-348.03"/>
<polygon fill="#000000" stroke="#000000" points="1990.26,-344.56 1980.73,-349.19 1991.06,-351.51 1990.26,-344.56"/>
<text text-anchor="middle" x="2328.35" y="-367.66" font-family="Times,serif" font-size="32.00">ε_15</text>
<text text-anchor="middle" x="2328.35" y="-332.66" font-family="Times,serif" font-size="32.00">=&gt;10 =of 5</text>
</g>
<!-- 10&#45;&gt;8 -->
<g id="edge38" class="edge">
<title>10&#45;&gt;8</title>
<path fill="none" stroke="#000000" d="M2660.18,-556.47C2651.6,-572.53 2638.73,-591.68 2621.85,-603.26 2550.74,-652.06 2512.01,-613.01 2432.85,-647.26 2424.03,-651.08 2422.99,-654.13 2414.85,-659.26 2397.5,-670.21 2377.86,-681.97 2361.78,-691.44"/>
<polygon fill="#000000" stroke="#000000" points="2359.63,-688.64 2352.77,-696.72 2363.17,-694.68 2359.63,-688.64"/>
<text text-anchor="middle" x="2527.35" y="-691.66" font-family="Times,serif" font-size="32.00">ε_17</text>
<text text-anchor="middle" x="2527.35" y="-656.66" font-family="Times,serif" font-size="32.00">=&gt;10 8</text>
</g>
<!-- 10&#45;&gt;9 -->
<g id="edge37" class="edge">
<title>10&#45;&gt;9</title>
<path fill="none" stroke="#000000" d="M2639.56,-528.63C2582.11,-528.7 2467.09,-526.24 2432.85,-506.26 2420.72,-499.18 2425.42,-489.53 2414.85,-480.26 2399.96,-467.19 2380.5,-456.78 2363.9,-449.38"/>
<polygon fill="#000000" stroke="#000000" points="2365.09,-446.08 2354.52,-445.37 2362.34,-452.52 2365.09,-446.08"/>
<text text-anchor="middle" x="2527.35" y="-573.66" font-family="Times,serif" font-size="32.00">ε_16</text>
<text text-anchor="middle" x="2527.35" y="-538.66" font-family="Times,serif" font-size="32.00">=&gt;10 9</text>
</g>
<!-- z5 -->
<g id="node28" class="node">
<title>z5</title>
<ellipse fill="none" stroke="black" stroke-dasharray="5,2" cx="2912.06" cy="-342.26" rx="27" ry="18"/>
</g>
<!-- 11 -->
<g id="node29" class="node">
<title>11</title>
<ellipse fill="none" stroke="black" cx="2673.8" cy="-342.26" rx="33.88" ry="30.31"/>
<text text-anchor="middle" x="2673.8" y="-334.16" font-family="Times,serif" font-size="32.00">11</text>
</g>
<!-- z5&#45;&gt;11 -->
<g id="edge39" class="edge">
<title>z5&#45;&gt;11</title>
<path fill="none" stroke="#000000" d="M2884.88,-342.26C2844.58,-342.26 2766.93,-342.26 2718.16,-342.26"/>
<polygon fill="#000000" stroke="#000000" points="2717.91,-338.76 2707.91,-342.26 2717.91,-345.76 2717.91,-338.76"/>
<text text-anchor="middle" x="2783.74" y="-421.66" font-family="Times,serif" font-size="32.00">respect |</text>
<text text-anchor="middle" x="2783.74" y="-386.66" font-family="Times,serif" font-size="32.00"> disdain</text>
<text text-anchor="middle" x="2783.74" y="-351.66" font-family="Times,serif" font-size="32.00">11</text>
</g>
<!-- 11&#45;&gt;5 -->
<g id="edge40" class="edge">
<title>11&#45;&gt;5</title>
<path fill="none" stroke="#000000" d="M2651.64,-318.96C2643.06,-310.58 2632.63,-301.63 2621.85,-295.26 2474.06,-207.98 2410.29,-193.2 2241.85,-226.26 2143.38,-245.6 2037.84,-302.47 1986.52,-332.76"/>
<polygon fill="#000000" stroke="#000000" points="1984.67,-329.78 1977.88,-337.91 1988.26,-335.8 1984.67,-329.78"/>
<text text-anchor="middle" x="2328.35" y="-270.66" font-family="Times,serif" font-size="32.00">ε_18</text>
<text text-anchor="middle" x="2328.35" y="-235.66" font-family="Times,serif" font-size="32.00">=&gt;11 =for 5</text>
</g>
<!-- 11&#45;&gt;8 -->
<g id="edge42" class="edge">
<title>11&#45;&gt;8</title>
<path fill="none" stroke="#000000" d="M2660.13,-370.11C2651.6,-385.51 2638.8,-403.47 2621.85,-413.26 2585.31,-434.39 2462.39,-402.1 2432.85,-432.26 2397.45,-468.42 2441.56,-616.28 2414.85,-659.26 2403.28,-677.89 2382.17,-690.58 2363.83,-698.64"/>
<polygon fill="#000000" stroke="#000000" points="2362.48,-695.41 2354.55,-702.45 2365.14,-701.89 2362.48,-695.41"/>
<text text-anchor="middle" x="2527.35" y="-476.66" font-family="Times,serif" font-size="32.00">ε_20</text>
<text text-anchor="middle" x="2527.35" y="-441.66" font-family="Times,serif" font-size="32.00">=&gt;11 8</text>
</g>
<!-- 11&#45;&gt;9 -->
<g id="edge41" class="edge">
<title>11&#45;&gt;9</title>
<path fill="none" stroke="#000000" d="M2641.43,-332.01C2592.11,-318 2495.62,-299.26 2432.85,-343.26 2413.86,-356.58 2430.22,-374.88 2414.85,-392.26 2401.45,-407.43 2381.58,-418.09 2364.36,-425.12"/>
<polygon fill="#000000" stroke="#000000" points="2362.69,-422.01 2354.6,-428.85 2365.19,-428.55 2362.69,-422.01"/>
<text text-anchor="middle" x="2527.35" y="-387.66" font-family="Times,serif" font-size="32.00">ε_19</text>
<text text-anchor="middle" x="2527.35" y="-352.66" font-family="Times,serif" font-size="32.00">=&gt;11 9</text>
</g>
<!-- z6 -->
<g id="node30" class="node">
<title>z6</title>
<ellipse fill="none" stroke="black" stroke-dasharray="5,2" cx="3130.39" cy="-499.26" rx="27" ry="18"/>
</g>
<!-- 12 -->
<g id="node31" class="node">
<title>12</title>
<ellipse fill="none" stroke="black" cx="2912.06" cy="-499.26" rx="33.88" ry="30.31"/>
<text text-anchor="middle" x="2912.06" y="-491.16" font-family="Times,serif" font-size="32.00">12</text>
</g>
<!-- z6&#45;&gt;12 -->
<g id="edge43" class="edge">
<title>z6&#45;&gt;12</title>
<path fill="none" stroke="#000000" d="M3103.3,-499.26C3066.88,-499.26 3000.37,-499.26 2956.44,-499.26"/>
<polygon fill="#000000" stroke="#000000" points="2956.33,-495.76 2946.33,-499.26 2956.33,-502.76 2956.33,-495.76"/>
<text text-anchor="middle" x="3033.89" y="-543.66" font-family="Times,serif" font-size="32.00">doubt</text>
<text text-anchor="middle" x="3033.89" y="-508.66" font-family="Times,serif" font-size="32.00">12</text>
</g>
<!-- 12&#45;&gt;a -->
<g id="edge46" class="edge">
<title>12&#45;&gt;a</title>
<path fill="none" stroke="#000000" d="M2888.5,-521.67C2877.92,-533.59 2866.24,-549.1 2859.74,-565.26 2845.39,-600.91 2865.82,-707.31 2841.74,-737.26 2777.21,-817.51 2721.78,-785.42 2621.85,-810.26 2578.34,-821.08 2268.54,-873.53 2223.85,-877.26 2147.23,-883.67 2124.84,-898.18 2050.85,-877.26 2026.59,-870.4 2002.42,-855.49 1984.4,-842.38"/>
<polygon fill="#000000" stroke="#000000" points="1986.18,-839.33 1976.08,-836.13 1981.97,-844.93 1986.18,-839.33"/>
<text text-anchor="middle" x="2527.35" y="-889.66" font-family="Times,serif" font-size="32.00">ful_3</text>
<text text-anchor="middle" x="2527.35" y="-854.66" font-family="Times,serif" font-size="32.00">=&gt;12 =about a</text>
</g>
<!-- 12&#45;&gt;5 -->
<g id="edge45" class="edge">
<title>12&#45;&gt;5</title>
<path fill="none" stroke="#000000" d="M2900.46,-470.67C2885.35,-430.67 2857.68,-360.44 2841.74,-338.26 2765.13,-231.73 2744.41,-188.13 2621.85,-141.26 2382.21,-49.61 2238.74,-51.53 2050.85,-226.26 2030.47,-245.22 2048.11,-262.98 2032.85,-286.26 2020.88,-304.54 2002.37,-320.51 1986.38,-332.16"/>
<polygon fill="#000000" stroke="#000000" points="1983.99,-329.56 1977.82,-338.18 1988.02,-335.29 1983.99,-329.56"/>
<text text-anchor="middle" x="2527.35" y="-185.66" font-family="Times,serif" font-size="32.00">ε_22</text>
<text text-anchor="middle" x="2527.35" y="-150.66" font-family="Times,serif" font-size="32.00">=&gt;12 =about 5</text>
</g>
<!-- 12&#45;&gt;10 -->
<g id="edge44" class="edge">
<title>12&#45;&gt;10</title>
<path fill="none" stroke="#000000" d="M2878.3,-494.65C2840.77,-490.45 2777.75,-486.76 2725.74,-500.26 2720.68,-501.58 2715.58,-503.5 2710.67,-505.75"/>
<polygon fill="#000000" stroke="#000000" points="2708.86,-502.74 2701.5,-510.36 2712.01,-508.99 2708.86,-502.74"/>
<text text-anchor="middle" x="2783.74" y="-544.66" font-family="Times,serif" font-size="32.00">ε_21</text>
<text text-anchor="middle" x="2783.74" y="-509.66" font-family="Times,serif" font-size="32.00">=&gt;12 10</text>
</g>
</g>
</svg>
