<?xml version="1.0" encoding="UTF-8" standalone="no"?>
<!DOCTYPE svg PUBLIC "-//W3C//DTD SVG 1.1//EN"
 "http://www.w3.org/Graphics/SVG/1.1/DTD/svg11.dtd">
<!-- Generated by graphviz version 2.47.1 (20210417.1919)
 -->
<!-- Title: G Pages: 1 -->
<svg width="3153pt" height="1232pt"
 viewBox="0.00 0.00 3153.39 1232.26" xmlns="http://www.w3.org/2000/svg" xmlns:xlink="http://www.w3.org/1999/xlink">
<g id="graph0" class="graph" transform="scale(1 1) rotate(0) translate(4 1228.26)">
<title>G</title>
<polygon fill="white" stroke="transparent" points="-4,4 -4,-1228.26 3149.39,-1228.26 3149.39,4 -4,4"/>
<text text-anchor="middle" x="1572.69" y="-13.4" font-family="Times,serif" font-size="32.00">single contraction: 4 → 3</text>
<!-- t -->
<g id="node1" class="node">
<title>t</title>
<ellipse fill="lightgray" stroke="black" cx="27" cy="-818.26" rx="27" ry="30.31"/>
<text text-anchor="middle" x="27" y="-810.16" font-family="Times,serif" font-size="32.00">t</text>
</g>
<!-- z0 -->
<g id="node2" class="node">
<title>z0</title>
<ellipse fill="none" stroke="black" stroke-dasharray="5,2" cx="3118.39" cy="-991.26" rx="27" ry="18"/>
</g>
<!-- da -->
<g id="node3" class="node">
<title>da</title>
<ellipse fill="none" stroke="black" cx="2900.06" cy="-991.26" rx="33.47" ry="30.31"/>
<text text-anchor="middle" x="2900.06" y="-983.16" font-family="Times,serif" font-size="32.00">da</text>
</g>
<!-- z0&#45;&gt;da -->
<g id="edge1" class="edge">
<title>z0&#45;&gt;da</title>
<path fill="none" stroke="#000000" d="M3091.3,-991.26C3054.67,-991.26 2987.61,-991.26 2943.69,-991.26"/>
<polygon fill="#000000" stroke="#000000" points="2943.6,-987.76 2933.6,-991.26 2943.6,-994.76 2943.6,-987.76"/>
<text text-anchor="middle" x="3021.89" y="-1070.66" font-family="Times,serif" font-size="32.00">Mary |</text>
<text text-anchor="middle" x="3021.89" y="-1035.66" font-family="Times,serif" font-size="32.00"> John</text>
<text text-anchor="middle" x="3021.89" y="-1000.66" font-family="Times,serif" font-size="32.00">da &#45;k</text>
</g>
<!-- z1 -->
<g id="node4" class="node">
<title>z1</title>
<ellipse fill="none" stroke="black" stroke-dasharray="5,2" cx="3118.39" cy="-1119.26" rx="27" ry="18"/>
</g>
<!-- poss -->
<g id="node5" class="node">
<title>poss</title>
<ellipse fill="none" stroke="black" cx="2900.06" cy="-1119.26" rx="52.15" ry="30.31"/>
<text text-anchor="middle" x="2900.06" y="-1111.16" font-family="Times,serif" font-size="32.00">poss</text>
</g>
<!-- z1&#45;&gt;poss -->
<g id="edge2" class="edge">
<title>z1&#45;&gt;poss</title>
<path fill="none" stroke="#000000" d="M3091.3,-1119.26C3059.63,-1119.26 3005.2,-1119.26 2962.66,-1119.26"/>
<polygon fill="#000000" stroke="#000000" points="2962.4,-1115.76 2952.4,-1119.26 2962.4,-1122.76 2962.4,-1115.76"/>
<text text-anchor="middle" x="3021.89" y="-1198.66" font-family="Times,serif" font-size="32.00">Mary&#39;s |</text>
<text text-anchor="middle" x="3021.89" y="-1163.66" font-family="Times,serif" font-size="32.00"> John&#39;s</text>
<text text-anchor="middle" x="3021.89" y="-1128.66" font-family="Times,serif" font-size="32.00">poss</text>
</g>
<!-- z2 -->
<g id="node6" class="node">
<title>z2</title>
<ellipse fill="none" stroke="black" stroke-dasharray="5,2" cx="1941.85" cy="-259.26" rx="27" ry="18"/>
</g>
<!-- d -->
<g id="node7" class="node">
<title>d</title>
<ellipse fill="none" stroke="black" cx="1605.85" cy="-300.26" rx="27" ry="30.31"/>
<text text-anchor="middle" x="1605.85" y="-292.16" font-family="Times,serif" font-size="32.00">d</text>
</g>
<!-- z2&#45;&gt;d -->
<g id="edge3" class="edge">
<title>z2&#45;&gt;d</title>
<path fill="none" stroke="#000000" d="M1916.08,-253.59C1864.58,-243.02 1743.07,-224.43 1650.85,-260.26 1644.26,-262.83 1638.04,-266.88 1632.47,-271.45"/>
<polygon fill="#000000" stroke="#000000" points="1629.87,-269.09 1624.81,-278.39 1634.57,-274.27 1629.87,-269.09"/>
<text text-anchor="middle" x="1747.85" y="-304.66" font-family="Times,serif" font-size="32.00">the&#45;cause</text>
<text text-anchor="middle" x="1747.85" y="-269.66" font-family="Times,serif" font-size="32.00">d &#45;k</text>
</g>
<!-- for -->
<g id="node8" class="node">
<title>for</title>
<ellipse fill="none" stroke="black" cx="1328.34" cy="-436.26" rx="37.45" ry="30.31"/>
<text text-anchor="middle" x="1328.34" y="-428.16" font-family="Times,serif" font-size="32.00">for</text>
</g>
<!-- d&#45;&gt;for -->
<g id="edge4" class="edge">
<title>d&#45;&gt;for</title>
<path fill="none" stroke="#000000" d="M1594.48,-328.1C1587.35,-343.3 1576.35,-361.05 1560.85,-371.26 1503.43,-409.1 1473.12,-372.62 1407.85,-394.26 1394.04,-398.84 1379.77,-405.74 1367.24,-412.62"/>
<polygon fill="#000000" stroke="#000000" points="1365.43,-409.62 1358.46,-417.6 1368.89,-415.71 1365.43,-409.62"/>
<text text-anchor="middle" x="1484.35" y="-438.66" font-family="Times,serif" font-size="32.00">for</text>
<text text-anchor="middle" x="1484.35" y="-403.66" font-family="Times,serif" font-size="32.00">=d *k for</text>
</g>
<!-- of -->
<g id="node9" class="node">
<title>of</title>
<ellipse fill="none" stroke="black" cx="1328.34" cy="-300.26" rx="30.31" ry="30.31"/>
<text text-anchor="middle" x="1328.34" y="-292.16" font-family="Times,serif" font-size="32.00">of</text>
</g>
<!-- d&#45;&gt;of -->
<g id="edge5" class="edge">
<title>d&#45;&gt;of</title>
<path fill="none" stroke="#000000" d="M1578.44,-300.26C1529.87,-300.26 1426.17,-300.26 1369.08,-300.26"/>
<polygon fill="#000000" stroke="#000000" points="1368.98,-296.76 1358.98,-300.26 1368.98,-303.76 1368.98,-296.76"/>
<text text-anchor="middle" x="1484.35" y="-344.66" font-family="Times,serif" font-size="32.00">of</text>
<text text-anchor="middle" x="1484.35" y="-309.66" font-family="Times,serif" font-size="32.00">=d *k of</text>
</g>
<!-- about -->
<g id="node10" class="node">
<title>about</title>
<ellipse fill="none" stroke="black" cx="1328.34" cy="-207.26" rx="61.54" ry="30.31"/>
<text text-anchor="middle" x="1328.34" y="-199.16" font-family="Times,serif" font-size="32.00">about</text>
</g>
<!-- d&#45;&gt;about -->
<g id="edge6" class="edge">
<title>d&#45;&gt;about</title>
<path fill="none" stroke="#000000" d="M1595.51,-271.98C1588.6,-255.77 1577.46,-236.63 1560.85,-226.26 1512.31,-195.95 1446.44,-193.41 1397.38,-197.16"/>
<polygon fill="#000000" stroke="#000000" points="1396.83,-193.69 1387.17,-198.05 1397.44,-200.67 1396.83,-193.69"/>
<text text-anchor="middle" x="1484.35" y="-270.66" font-family="Times,serif" font-size="32.00">about</text>
<text text-anchor="middle" x="1484.35" y="-235.66" font-family="Times,serif" font-size="32.00">=d *k about</text>
</g>
<!-- 4 -->
<g id="node19" class="node">
<title>4</title>
<ellipse fill="none" stroke="black" cx="2316.35" cy="-620.26" rx="27" ry="30.31"/>
<text text-anchor="middle" x="2316.35" y="-612.16" font-family="Times,serif" font-size="32.00">4</text>
</g>
<!-- for&#45;&gt;4 -->
<g id="edge20" class="edge">
<title>for&#45;&gt;4</title>
<path fill="none" stroke="#000000" d="M1362.15,-449.53C1376.06,-454.74 1392.56,-460.39 1407.85,-464.26 1758.37,-552.94 1859.53,-507.09 2211.85,-588.26 2235.06,-593.61 2260.63,-601.49 2280.55,-608.1"/>
<polygon fill="#000000" stroke="#000000" points="2279.52,-611.45 2290.12,-611.32 2281.76,-604.81 2279.52,-611.45"/>
<text text-anchor="middle" x="1747.85" y="-576.66" font-family="Times,serif" font-size="32.00">hope</text>
<text text-anchor="middle" x="1747.85" y="-541.66" font-family="Times,serif" font-size="32.00">=for 4</text>
</g>
<!-- 0 -->
<g id="node11" class="node">
<title>0</title>
<ellipse fill="none" stroke="black" cx="229" cy="-818.26" rx="27" ry="30.31"/>
<text text-anchor="middle" x="229" y="-810.16" font-family="Times,serif" font-size="32.00">0</text>
</g>
<!-- 0&#45;&gt;t -->
<g id="edge7" class="edge">
<title>0&#45;&gt;t</title>
<path fill="none" stroke="#000000" d="M201.85,-818.26C166.67,-818.26 103.92,-818.26 64.21,-818.26"/>
<polygon fill="#000000" stroke="#000000" points="64.15,-814.76 54.15,-818.26 64.15,-821.76 64.15,-814.76"/>
<text text-anchor="middle" x="128" y="-897.66" font-family="Times,serif" font-size="32.00">s |</text>
<text text-anchor="middle" x="128" y="-862.66" font-family="Times,serif" font-size="32.00"> d</text>
<text text-anchor="middle" x="128" y="-827.66" font-family="Times,serif" font-size="32.00">=&gt;0 +k t</text>
</g>
<!-- 1 -->
<g id="node12" class="node">
<title>1</title>
<ellipse fill="none" stroke="black" cx="1605.85" cy="-818.26" rx="27" ry="30.31"/>
<text text-anchor="middle" x="1605.85" y="-810.16" font-family="Times,serif" font-size="32.00">1</text>
</g>
<!-- 2 -->
<g id="node13" class="node">
<title>2</title>
<ellipse fill="none" stroke="black" cx="1328.34" cy="-818.26" rx="27" ry="30.31"/>
<text text-anchor="middle" x="1328.34" y="-810.16" font-family="Times,serif" font-size="32.00">2</text>
</g>
<!-- 1&#45;&gt;2 -->
<g id="edge8" class="edge">
<title>1&#45;&gt;2</title>
<path fill="none" stroke="#000000" d="M1578.44,-818.26C1528.96,-818.26 1422.26,-818.26 1365.91,-818.26"/>
<polygon fill="#000000" stroke="#000000" points="1365.67,-814.76 1355.67,-818.26 1365.67,-821.76 1365.67,-814.76"/>
<text text-anchor="middle" x="1484.35" y="-862.66" font-family="Times,serif" font-size="32.00">ε_0</text>
<text text-anchor="middle" x="1484.35" y="-827.66" font-family="Times,serif" font-size="32.00">=&gt;1 =da 2</text>
</g>
<!-- v -->
<g id="node15" class="node">
<title>v</title>
<ellipse fill="none" stroke="black" cx="395" cy="-818.26" rx="27" ry="30.31"/>
<text text-anchor="middle" x="395" y="-810.16" font-family="Times,serif" font-size="32.00">v</text>
</g>
<!-- 2&#45;&gt;v -->
<g id="edge10" class="edge">
<title>2&#45;&gt;v</title>
<path fill="none" stroke="#000000" d="M1304.56,-832.93C1259.85,-860.27 1156.67,-916.26 1061.49,-916.26 1061.49,-916.26 1061.49,-916.26 599.08,-916.26 531.39,-916.26 462.49,-871.55 424.89,-842.53"/>
<polygon fill="#000000" stroke="#000000" points="426.94,-839.68 416.92,-836.24 422.6,-845.18 426.94,-839.68"/>
<text text-anchor="middle" x="834.17" y="-960.66" font-family="Times,serif" font-size="32.00">ε_1</text>
<text text-anchor="middle" x="834.17" y="-925.66" font-family="Times,serif" font-size="32.00">=&gt;2 v</text>
</g>
<!-- 3 -->
<g id="node16" class="node">
<title>3</title>
<ellipse fill="none" stroke="black" cx="834.17" cy="-775.26" rx="27" ry="30.31"/>
<text text-anchor="middle" x="834.17" y="-767.16" font-family="Times,serif" font-size="32.00">3</text>
</g>
<!-- 2&#45;&gt;3 -->
<g id="edge12" class="edge">
<title>2&#45;&gt;3</title>
<path fill="none" stroke="#000000" d="M1301.13,-821.45C1232.32,-828.96 1041.39,-844.27 890.17,-804.26 882.24,-802.17 874.18,-798.76 866.76,-795.01"/>
<polygon fill="#000000" stroke="#000000" points="868.22,-791.82 857.76,-790.14 864.89,-797.98 868.22,-791.82"/>
<text text-anchor="middle" x="1060.49" y="-875.66" font-family="Times,serif" font-size="32.00">ε_2</text>
<text text-anchor="middle" x="1060.49" y="-840.66" font-family="Times,serif" font-size="32.00">=&gt;2 3</text>
</g>
<!-- prog -->
<g id="node18" class="node">
<title>prog</title>
<ellipse fill="none" stroke="black" cx="1060.49" cy="-733.26" rx="52.15" ry="30.31"/>
<text text-anchor="middle" x="1060.49" y="-725.16" font-family="Times,serif" font-size="32.00">prog</text>
</g>
<!-- 2&#45;&gt;prog -->
<g id="edge13" class="edge">
<title>2&#45;&gt;prog</title>
<path fill="none" stroke="#000000" d="M1312.48,-793.56C1298.79,-773.39 1276.44,-746.34 1248.82,-734.26 1208.47,-716.62 1158.4,-717.36 1120.18,-721.97"/>
<polygon fill="#000000" stroke="#000000" points="1119.69,-718.51 1110.23,-723.29 1120.61,-725.45 1119.69,-718.51"/>
<text text-anchor="middle" x="1189.82" y="-778.66" font-family="Times,serif" font-size="32.00">ing</text>
<text text-anchor="middle" x="1189.82" y="-743.66" font-family="Times,serif" font-size="32.00">=&gt;2 prog</text>
</g>
<!-- a -->
<g id="node14" class="node">
<title>a</title>
<ellipse fill="none" stroke="black" cx="1941.85" cy="-818.26" rx="27" ry="30.31"/>
<text text-anchor="middle" x="1941.85" y="-810.16" font-family="Times,serif" font-size="32.00">a</text>
</g>
<!-- a&#45;&gt;1 -->
<g id="edge9" class="edge">
<title>a&#45;&gt;1</title>
<path fill="none" stroke="#000000" d="M1914.65,-818.26C1855.38,-818.26 1710.95,-818.26 1643.14,-818.26"/>
<polygon fill="#000000" stroke="#000000" points="1642.94,-814.76 1632.94,-818.26 1642.94,-821.76 1642.94,-814.76"/>
<text text-anchor="middle" x="1747.85" y="-862.66" font-family="Times,serif" font-size="32.00">be</text>
<text text-anchor="middle" x="1747.85" y="-827.66" font-family="Times,serif" font-size="32.00">=a 1</text>
</g>
<!-- v&#45;&gt;0 -->
<g id="edge14" class="edge">
<title>v&#45;&gt;0</title>
<path fill="none" stroke="#000000" d="M371.68,-833.88C365.01,-837.72 357.47,-841.29 350,-843.26 317.34,-851.89 306.66,-851.89 274,-843.26 269.8,-842.15 265.57,-840.54 261.49,-838.65"/>
<polygon fill="#000000" stroke="#000000" points="262.81,-835.39 252.32,-833.88 259.58,-841.6 262.81,-835.39"/>
<text text-anchor="middle" x="312" y="-894.66" font-family="Times,serif" font-size="32.00">will</text>
<text text-anchor="middle" x="312" y="-859.66" font-family="Times,serif" font-size="32.00">=v 0</text>
</g>
<!-- v&#45;&gt;0 -->
<g id="edge16" class="edge">
<title>v&#45;&gt;0</title>
<path fill="none" stroke="#000000" d="M378.8,-793.89C371.4,-784.33 361.59,-774.43 350,-769.26 319.15,-755.5 304.85,-755.5 274,-769.26 265.67,-772.98 258.26,-779.14 252,-785.86"/>
<polygon fill="#000000" stroke="#000000" points="248.99,-783.99 245.2,-793.89 254.33,-788.52 248.99,-783.99"/>
<text text-anchor="middle" x="312" y="-813.66" font-family="Times,serif" font-size="32.00">ε_3</text>
<text text-anchor="middle" x="312" y="-778.66" font-family="Times,serif" font-size="32.00">=&gt;v 0</text>
</g>
<!-- 3&#45;&gt;v -->
<g id="edge18" class="edge">
<title>3&#45;&gt;v</title>
<path fill="none" stroke="#000000" d="M810.57,-790.12C800.98,-795.62 789.43,-801.26 778.17,-804.26 654.87,-837.18 501.27,-828.56 432.39,-822.22"/>
<polygon fill="#000000" stroke="#000000" points="432.37,-818.7 422.08,-821.23 431.7,-825.67 432.37,-818.7"/>
<text text-anchor="middle" x="600.08" y="-872.66" font-family="Times,serif" font-size="32.00">ε_4</text>
<text text-anchor="middle" x="600.08" y="-837.66" font-family="Times,serif" font-size="32.00">=&gt;3 v</text>
</g>
<!-- perf -->
<g id="node17" class="node">
<title>perf</title>
<ellipse fill="none" stroke="black" cx="600.08" cy="-733.26" rx="48.17" ry="30.31"/>
<text text-anchor="middle" x="600.08" y="-725.16" font-family="Times,serif" font-size="32.00">perf</text>
</g>
<!-- 3&#45;&gt;perf -->
<g id="edge11" class="edge">
<title>3&#45;&gt;perf</title>
<path fill="none" stroke="#000000" d="M813.31,-755.61C803.57,-747.33 791.15,-738.61 778.17,-734.26 739.16,-721.2 692.56,-721.52 656.95,-724.8"/>
<polygon fill="#000000" stroke="#000000" points="656.34,-721.34 646.75,-725.85 657.05,-728.31 656.34,-721.34"/>
<text text-anchor="middle" x="722.17" y="-778.66" font-family="Times,serif" font-size="32.00">n</text>
<text text-anchor="middle" x="722.17" y="-743.66" font-family="Times,serif" font-size="32.00">=&gt;3 perf</text>
</g>
<!-- perf&#45;&gt;v -->
<g id="edge15" class="edge">
<title>perf&#45;&gt;v</title>
<path fill="none" stroke="#000000" d="M555.28,-722.04C521.33,-715.91 474.43,-713.28 440,-734.26 423.66,-744.22 413.09,-762.44 406.42,-779.38"/>
<polygon fill="#000000" stroke="#000000" points="403,-778.53 402.93,-789.13 409.59,-780.89 403,-778.53"/>
<text text-anchor="middle" x="487" y="-778.66" font-family="Times,serif" font-size="32.00">have</text>
<text text-anchor="middle" x="487" y="-743.66" font-family="Times,serif" font-size="32.00">=perf v</text>
</g>
<!-- prog&#45;&gt;3 -->
<g id="edge17" class="edge">
<title>prog&#45;&gt;3</title>
<path fill="none" stroke="#000000" d="M1009.62,-725.53C975.17,-722.1 928.77,-721.33 890.17,-734.26 880.53,-737.49 871.2,-743.13 863.05,-749.2"/>
<polygon fill="#000000" stroke="#000000" points="860.66,-746.64 855.02,-755.61 865.02,-752.11 860.66,-746.64"/>
<text text-anchor="middle" x="940.17" y="-778.66" font-family="Times,serif" font-size="32.00">be_1</text>
<text text-anchor="middle" x="940.17" y="-743.66" font-family="Times,serif" font-size="32.00">=prog 3</text>
</g>
<!-- 4&#45;&gt;1 -->
<g id="edge19" class="edge">
<title>4&#45;&gt;1</title>
<path fill="none" stroke="#000000" d="M2289.78,-613.49C2240.49,-601.52 2129.22,-579.84 2038.85,-601.26 1876.68,-639.71 1706.16,-749.08 1637.83,-796.21"/>
<polygon fill="#000000" stroke="#000000" points="1635.46,-793.59 1629.25,-802.17 1639.46,-799.34 1635.46,-793.59"/>
<text text-anchor="middle" x="1941.85" y="-708.66" font-family="Times,serif" font-size="32.00">ε_5</text>
<text text-anchor="middle" x="1941.85" y="-673.66" font-family="Times,serif" font-size="32.00">=&gt;4 1</text>
</g>
<!-- 4&#45;&gt;a -->
<g id="edge23" class="edge">
<title>4&#45;&gt;a</title>
<path fill="none" stroke="#000000" d="M2291.25,-632.13C2273.39,-641.5 2248.95,-655.57 2229.85,-671.26 2220.62,-678.86 2222.5,-685.81 2211.85,-691.26 2143.02,-726.55 2107.58,-674.77 2038.85,-710.26 2006.36,-727.05 1979.73,-759.75 1962.84,-784.79"/>
<polygon fill="#000000" stroke="#000000" points="1959.82,-783.01 1957.27,-793.29 1965.68,-786.84 1959.82,-783.01"/>
<text text-anchor="middle" x="2125.35" y="-754.66" font-family="Times,serif" font-size="32.00">ful</text>
<text text-anchor="middle" x="2125.35" y="-719.66" font-family="Times,serif" font-size="32.00">=&gt;4 a</text>
</g>
<!-- 5 -->
<g id="node20" class="node">
<title>5</title>
<ellipse fill="none" stroke="black" cx="1941.85" cy="-352.26" rx="27" ry="30.31"/>
<text text-anchor="middle" x="1941.85" y="-344.16" font-family="Times,serif" font-size="32.00">5</text>
</g>
<!-- 4&#45;&gt;5 -->
<g id="edge22" class="edge">
<title>4&#45;&gt;5</title>
<path fill="none" stroke="#000000" d="M2289.61,-613.71C2270.15,-607.39 2244.38,-595.83 2229.85,-576.26 2203.46,-540.71 2242.01,-510.7 2211.85,-478.26 2157.76,-420.08 2109.41,-469.79 2038.85,-433.26 2024.24,-425.7 1993.49,-398.9 1970.71,-378.17"/>
<polygon fill="#000000" stroke="#000000" points="1973.06,-375.58 1963.32,-371.41 1968.33,-380.74 1973.06,-375.58"/>
<text text-anchor="middle" x="2125.35" y="-522.66" font-family="Times,serif" font-size="32.00">ε_7</text>
<text text-anchor="middle" x="2125.35" y="-487.66" font-family="Times,serif" font-size="32.00">=&gt;4 5</text>
</g>
<!-- 5&#45;&gt;d -->
<g id="edge21" class="edge">
<title>5&#45;&gt;d</title>
<path fill="none" stroke="#000000" d="M1914.73,-354.69C1862.79,-358.57 1743.54,-362.74 1650.85,-330.26 1645.96,-328.55 1641.1,-326.15 1636.5,-323.44"/>
<polygon fill="#000000" stroke="#000000" points="1638.31,-320.44 1628.01,-317.96 1634.51,-326.32 1638.31,-320.44"/>
<text text-anchor="middle" x="1747.85" y="-402.66" font-family="Times,serif" font-size="32.00">ε_6</text>
<text text-anchor="middle" x="1747.85" y="-367.66" font-family="Times,serif" font-size="32.00">=&gt;5 poss= d &#45;k</text>
</g>
<!-- 6 -->
<g id="node21" class="node">
<title>6</title>
<ellipse fill="none" stroke="black" cx="2316.35" cy="-916.26" rx="27" ry="30.31"/>
<text text-anchor="middle" x="2316.35" y="-908.16" font-family="Times,serif" font-size="32.00">6</text>
</g>
<!-- 6&#45;&gt;1 -->
<g id="edge24" class="edge">
<title>6&#45;&gt;1</title>
<path fill="none" stroke="#000000" d="M2290.09,-923.32C2196.99,-947.77 1867.32,-1020.62 1650.85,-892.26 1637.17,-884.15 1627.26,-869.99 1620.35,-856.22"/>
<polygon fill="#000000" stroke="#000000" points="1623.39,-854.45 1616.04,-846.82 1617.03,-857.37 1623.39,-854.45"/>
<text text-anchor="middle" x="1941.85" y="-1010.66" font-family="Times,serif" font-size="32.00">ε_8</text>
<text text-anchor="middle" x="1941.85" y="-975.66" font-family="Times,serif" font-size="32.00">=&gt;6 1</text>
</g>
<!-- 6&#45;&gt;5 -->
<g id="edge27" class="edge">
<title>6&#45;&gt;5</title>
<path fill="none" stroke="#000000" d="M2299.72,-892.21C2280.04,-860.72 2246.79,-803.18 2229.85,-749.26 2212.11,-692.77 2248.78,-663.55 2211.85,-617.26 2160.63,-553.06 2090.15,-616.41 2038.85,-552.26 2002.43,-506.71 2048.23,-473.77 2020.85,-422.26 2010.09,-402.01 1991.02,-384.74 1974.43,-372.41"/>
<polygon fill="#000000" stroke="#000000" points="1976.22,-369.38 1966.04,-366.43 1972.15,-375.08 1976.22,-369.38"/>
<text text-anchor="middle" x="2125.35" y="-661.66" font-family="Times,serif" font-size="32.00">ε_10</text>
<text text-anchor="middle" x="2125.35" y="-626.66" font-family="Times,serif" font-size="32.00">=&gt;6 5</text>
</g>
<!-- 7 -->
<g id="node22" class="node">
<title>7</title>
<ellipse fill="none" stroke="black" cx="2661.8" cy="-925.26" rx="27" ry="30.31"/>
<text text-anchor="middle" x="2661.8" y="-917.16" font-family="Times,serif" font-size="32.00">7</text>
</g>
<!-- 7&#45;&gt;1 -->
<g id="edge30" class="edge">
<title>7&#45;&gt;1</title>
<path fill="none" stroke="#000000" d="M2652.26,-954.17C2644.54,-975.31 2631.08,-1003.02 2609.85,-1019.26 2534.78,-1076.73 2496.76,-1057.3 2402.85,-1068.26 2164.15,-1096.13 2094.96,-1102.58 1862.85,-1040.26 1761.87,-1013.15 1721.12,-1015.7 1650.85,-938.26 1630.67,-916.02 1619.53,-883.75 1613.51,-858.28"/>
<polygon fill="#000000" stroke="#000000" points="1616.86,-857.2 1611.31,-848.18 1610.02,-858.7 1616.86,-857.2"/>
<text text-anchor="middle" x="2125.35" y="-1132.66" font-family="Times,serif" font-size="32.00">ε_12</text>
<text text-anchor="middle" x="2125.35" y="-1097.66" font-family="Times,serif" font-size="32.00">=&gt;7 =about 1</text>
</g>
<!-- 7&#45;&gt;a -->
<g id="edge32" class="edge">
<title>7&#45;&gt;a</title>
<path fill="none" stroke="#000000" d="M2649.25,-952.3C2640.85,-968.25 2627.81,-987.05 2609.85,-996.26 2535.12,-1034.62 2504.39,-1005.13 2420.85,-996.26 2247.3,-977.85 2192.34,-988.35 2038.85,-905.26 2011.73,-890.58 1986.13,-866.67 1968.19,-847.63"/>
<polygon fill="#000000" stroke="#000000" points="1970.58,-845.06 1961.23,-840.07 1965.43,-849.8 1970.58,-845.06"/>
<text text-anchor="middle" x="2316.35" y="-1038.66" font-family="Times,serif" font-size="32.00">ful_2</text>
<text text-anchor="middle" x="2316.35" y="-1003.66" font-family="Times,serif" font-size="32.00">=&gt;7 =about a</text>
</g>
<!-- 7&#45;&gt;5 -->
<g id="edge31" class="edge">
<title>7&#45;&gt;5</title>
<path fill="none" stroke="#000000" d="M2659.96,-894.76C2657.44,-826.41 2647.52,-664.1 2609.85,-627.26 2549.15,-567.89 2482.52,-657.64 2420.85,-599.26 2391.87,-571.82 2431.04,-539.54 2402.85,-511.26 2347.42,-455.64 2290.65,-524.98 2229.85,-475.26 2214.13,-462.41 2227,-446.79 2211.85,-433.26 2145.06,-373.58 2035.65,-357.84 1979.15,-353.71"/>
<polygon fill="#000000" stroke="#000000" points="1979.12,-350.2 1968.91,-353.05 1978.66,-357.19 1979.12,-350.2"/>
<text text-anchor="middle" x="2316.35" y="-555.66" font-family="Times,serif" font-size="32.00">ε_13</text>
<text text-anchor="middle" x="2316.35" y="-520.66" font-family="Times,serif" font-size="32.00">=&gt;7 =about 5</text>
</g>
<!-- 7&#45;&gt;6 -->
<g id="edge25" class="edge">
<title>7&#45;&gt;6</title>
<path fill="none" stroke="#000000" d="M2634.7,-924.58C2573.95,-922.99 2422.98,-919.03 2353.45,-917.21"/>
<polygon fill="#000000" stroke="#000000" points="2353.5,-913.71 2343.41,-916.95 2353.32,-920.71 2353.5,-913.71"/>
<text text-anchor="middle" x="2515.35" y="-968.66" font-family="Times,serif" font-size="32.00">ε_9</text>
<text text-anchor="middle" x="2515.35" y="-933.66" font-family="Times,serif" font-size="32.00">=&gt;7 =of 6</text>
</g>
<!-- 8 -->
<g id="node24" class="node">
<title>8</title>
<ellipse fill="none" stroke="black" cx="2316.35" cy="-710.26" rx="27" ry="30.31"/>
<text text-anchor="middle" x="2316.35" y="-702.16" font-family="Times,serif" font-size="32.00">8</text>
</g>
<!-- 7&#45;&gt;8 -->
<g id="edge29" class="edge">
<title>7&#45;&gt;8</title>
<path fill="none" stroke="#000000" d="M2656.64,-895.06C2649.51,-847.92 2633.38,-760.17 2609.85,-740.26 2600.19,-732.09 2429.79,-718.56 2353.63,-712.89"/>
<polygon fill="#000000" stroke="#000000" points="2353.76,-709.39 2343.53,-712.15 2353.25,-716.37 2353.76,-709.39"/>
<text text-anchor="middle" x="2515.35" y="-784.66" font-family="Times,serif" font-size="32.00">ε_11</text>
<text text-anchor="middle" x="2515.35" y="-749.66" font-family="Times,serif" font-size="32.00">=&gt;7 8</text>
</g>
<!-- z3 -->
<g id="node23" class="node">
<title>z3</title>
<ellipse fill="none" stroke="black" stroke-dasharray="5,2" cx="2900.06" cy="-925.26" rx="27" ry="18"/>
</g>
<!-- z3&#45;&gt;7 -->
<g id="edge26" class="edge">
<title>z3&#45;&gt;7</title>
<path fill="none" stroke="#000000" d="M2872.88,-925.26C2830.65,-925.26 2747.42,-925.26 2699.37,-925.26"/>
<polygon fill="#000000" stroke="#000000" points="2699.1,-921.76 2689.1,-925.26 2699.1,-928.76 2699.1,-921.76"/>
<text text-anchor="middle" x="2771.74" y="-969.66" font-family="Times,serif" font-size="32.00">boast</text>
<text text-anchor="middle" x="2771.74" y="-934.66" font-family="Times,serif" font-size="32.00">7</text>
</g>
<!-- 8&#45;&gt;a -->
<g id="edge28" class="edge">
<title>8&#45;&gt;a</title>
<path fill="none" stroke="#000000" d="M2295,-729.56C2275.36,-746.97 2243.94,-771.7 2211.85,-784.26 2201.15,-788.46 2049.97,-806.07 1979.07,-814.16"/>
<polygon fill="#000000" stroke="#000000" points="1978.35,-810.72 1968.81,-815.33 1979.15,-817.68 1978.35,-810.72"/>
<text text-anchor="middle" x="2125.35" y="-851.66" font-family="Times,serif" font-size="32.00">ful_1</text>
<text text-anchor="middle" x="2125.35" y="-816.66" font-family="Times,serif" font-size="32.00">=&gt;8 =of a</text>
</g>
<!-- 9 -->
<g id="node25" class="node">
<title>9</title>
<ellipse fill="none" stroke="black" cx="2316.35" cy="-436.26" rx="27" ry="30.31"/>
<text text-anchor="middle" x="2316.35" y="-428.16" font-family="Times,serif" font-size="32.00">9</text>
</g>
<!-- 9&#45;&gt;1 -->
<g id="edge33" class="edge">
<title>9&#45;&gt;1</title>
<path fill="none" stroke="#000000" d="M2288.99,-435.56C2239.28,-434.85 2128.64,-436.19 2038.85,-458.26 1956.29,-478.57 1934.68,-487.76 1862.85,-533.26 1853.81,-538.99 1853.39,-542.81 1844.85,-549.26 1763.25,-611 1712.65,-591.7 1650.85,-673.26 1627.66,-703.88 1616.61,-746.73 1611.4,-777.91"/>
<polygon fill="#000000" stroke="#000000" points="1607.91,-777.58 1609.85,-788 1614.83,-778.65 1607.91,-777.58"/>
<text text-anchor="middle" x="1941.85" y="-577.66" font-family="Times,serif" font-size="32.00">ε_14</text>
<text text-anchor="middle" x="1941.85" y="-542.66" font-family="Times,serif" font-size="32.00">=&gt;9 =d *k 1</text>
</g>
<!-- z4 -->
<g id="node26" class="node">
<title>z4</title>
<ellipse fill="none" stroke="black" stroke-dasharray="5,2" cx="2900.06" cy="-592.26" rx="27" ry="18"/>
</g>
<!-- 10 -->
<g id="node27" class="node">
<title>10</title>
<ellipse fill="none" stroke="black" cx="2661.8" cy="-528.26" rx="33.88" ry="30.31"/>
<text text-anchor="middle" x="2661.8" y="-520.16" font-family="Times,serif" font-size="32.00">10</text>
</g>
<!-- z4&#45;&gt;10 -->
<g id="edge34" class="edge">
<title>z4&#45;&gt;10</title>
<path fill="none" stroke="#000000" d="M2873.01,-593.68C2836.04,-594.72 2766.92,-592.99 2713.74,-570.26 2706.33,-567.1 2699.14,-562.5 2692.62,-557.5"/>
<polygon fill="#000000" stroke="#000000" points="2694.7,-554.67 2684.75,-551.03 2690.25,-560.08 2694.7,-554.67"/>
<text text-anchor="middle" x="2771.74" y="-707.66" font-family="Times,serif" font-size="32.00">fear |</text>
<text text-anchor="middle" x="2771.74" y="-672.66" font-family="Times,serif" font-size="32.00"> neglect |</text>
<text text-anchor="middle" x="2771.74" y="-637.66" font-family="Times,serif" font-size="32.00"> scorn</text>
<text text-anchor="middle" x="2771.74" y="-602.66" font-family="Times,serif" font-size="32.00">10</text>
</g>
<!-- 10&#45;&gt;5 -->
<g id="edge35" class="edge">
<title>10&#45;&gt;5</title>
<path fill="none" stroke="#000000" d="M2654.42,-498.55C2642.37,-443.05 2616.84,-328.73 2609.85,-323.26 2560.01,-284.29 2110.01,-332.89 1978.68,-348.03"/>
<polygon fill="#000000" stroke="#000000" points="1978.26,-344.56 1968.73,-349.19 1979.06,-351.51 1978.26,-344.56"/>
<text text-anchor="middle" x="2316.35" y="-367.66" font-family="Times,serif" font-size="32.00">ε_15</text>
<text text-anchor="middle" x="2316.35" y="-332.66" font-family="Times,serif" font-size="32.00">=&gt;10 =of 5</text>
</g>
<!-- 10&#45;&gt;8 -->
<g id="edge37" class="edge">
<title>10&#45;&gt;8</title>
<path fill="none" stroke="#000000" d="M2648.18,-556.47C2639.6,-572.53 2626.73,-591.68 2609.85,-603.26 2538.74,-652.06 2500.01,-613.01 2420.85,-647.26 2412.03,-651.08 2410.99,-654.13 2402.85,-659.26 2385.5,-670.21 2365.86,-681.97 2349.78,-691.44"/>
<polygon fill="#000000" stroke="#000000" points="2347.63,-688.64 2340.77,-696.72 2351.17,-694.68 2347.63,-688.64"/>
<text text-anchor="middle" x="2515.35" y="-691.66" font-family="Times,serif" font-size="32.00">ε_17</text>
<text text-anchor="middle" x="2515.35" y="-656.66" font-family="Times,serif" font-size="32.00">=&gt;10 8</text>
</g>
<!-- 10&#45;&gt;9 -->
<g id="edge36" class="edge">
<title>10&#45;&gt;9</title>
<path fill="none" stroke="#000000" d="M2627.56,-528.63C2570.11,-528.7 2455.09,-526.24 2420.85,-506.26 2408.72,-499.18 2413.42,-489.53 2402.85,-480.26 2387.96,-467.19 2368.5,-456.78 2351.9,-449.38"/>
<polygon fill="#000000" stroke="#000000" points="2353.09,-446.08 2342.52,-445.37 2350.34,-452.52 2353.09,-446.08"/>
<text text-anchor="middle" x="2515.35" y="-573.66" font-family="Times,serif" font-size="32.00">ε_16</text>
<text text-anchor="middle" x="2515.35" y="-538.66" font-family="Times,serif" font-size="32.00">=&gt;10 9</text>
</g>
<!-- z5 -->
<g id="node28" class="node">
<title>z5</title>
<ellipse fill="none" stroke="black" stroke-dasharray="5,2" cx="2900.06" cy="-342.26" rx="27" ry="18"/>
</g>
<!-- 11 -->
<g id="node29" class="node">
<title>11</title>
<ellipse fill="none" stroke="black" cx="2661.8" cy="-342.26" rx="33.88" ry="30.31"/>
<text text-anchor="middle" x="2661.8" y="-334.16" font-family="Times,serif" font-size="32.00">11</text>
</g>
<!-- z5&#45;&gt;11 -->
<g id="edge38" class="edge">
<title>z5&#45;&gt;11</title>
<path fill="none" stroke="#000000" d="M2872.88,-342.26C2832.58,-342.26 2754.93,-342.26 2706.16,-342.26"/>
<polygon fill="#000000" stroke="#000000" points="2705.91,-338.76 2695.91,-342.26 2705.91,-345.76 2705.91,-338.76"/>
<text text-anchor="middle" x="2771.74" y="-421.66" font-family="Times,serif" font-size="32.00">respect |</text>
<text text-anchor="middle" x="2771.74" y="-386.66" font-family="Times,serif" font-size="32.00"> disdain</text>
<text text-anchor="middle" x="2771.74" y="-351.66" font-family="Times,serif" font-size="32.00">11</text>
</g>
<!-- 11&#45;&gt;5 -->
<g id="edge39" class="edge">
<title>11&#45;&gt;5</title>
<path fill="none" stroke="#000000" d="M2639.64,-318.96C2631.06,-310.58 2620.63,-301.63 2609.85,-295.26 2462.06,-207.98 2398.29,-193.2 2229.85,-226.26 2131.38,-245.6 2025.84,-302.47 1974.52,-332.76"/>
<polygon fill="#000000" stroke="#000000" points="1972.67,-329.78 1965.88,-337.91 1976.26,-335.8 1972.67,-329.78"/>
<text text-anchor="middle" x="2316.35" y="-270.66" font-family="Times,serif" font-size="32.00">ε_18</text>
<text text-anchor="middle" x="2316.35" y="-235.66" font-family="Times,serif" font-size="32.00">=&gt;11 =for 5</text>
</g>
<!-- 11&#45;&gt;8 -->
<g id="edge41" class="edge">
<title>11&#45;&gt;8</title>
<path fill="none" stroke="#000000" d="M2648.13,-370.11C2639.6,-385.51 2626.8,-403.47 2609.85,-413.26 2573.31,-434.39 2450.39,-402.1 2420.85,-432.26 2385.45,-468.42 2429.56,-616.28 2402.85,-659.26 2391.28,-677.89 2370.17,-690.58 2351.83,-698.64"/>
<polygon fill="#000000" stroke="#000000" points="2350.48,-695.41 2342.55,-702.45 2353.14,-701.89 2350.48,-695.41"/>
<text text-anchor="middle" x="2515.35" y="-476.66" font-family="Times,serif" font-size="32.00">ε_20</text>
<text text-anchor="middle" x="2515.35" y="-441.66" font-family="Times,serif" font-size="32.00">=&gt;11 8</text>
</g>
<!-- 11&#45;&gt;9 -->
<g id="edge40" class="edge">
<title>11&#45;&gt;9</title>
<path fill="none" stroke="#000000" d="M2629.43,-332.01C2580.11,-318 2483.62,-299.26 2420.85,-343.26 2401.86,-356.58 2418.22,-374.88 2402.85,-392.26 2389.45,-407.43 2369.58,-418.09 2352.36,-425.12"/>
<polygon fill="#000000" stroke="#000000" points="2350.69,-422.01 2342.6,-428.85 2353.19,-428.55 2350.69,-422.01"/>
<text text-anchor="middle" x="2515.35" y="-387.66" font-family="Times,serif" font-size="32.00">ε_19</text>
<text text-anchor="middle" x="2515.35" y="-352.66" font-family="Times,serif" font-size="32.00">=&gt;11 9</text>
</g>
<!-- z6 -->
<g id="node30" class="node">
<title>z6</title>
<ellipse fill="none" stroke="black" stroke-dasharray="5,2" cx="3118.39" cy="-499.26" rx="27" ry="18"/>
</g>
<!-- 12 -->
<g id="node31" class="node">
<title>12</title>
<ellipse fill="none" stroke="black" cx="2900.06" cy="-499.26" rx="33.88" ry="30.31"/>
<text text-anchor="middle" x="2900.06" y="-491.16" font-family="Times,serif" font-size="32.00">12</text>
</g>
<!-- z6&#45;&gt;12 -->
<g id="edge42" class="edge">
<title>z6&#45;&gt;12</title>
<path fill="none" stroke="#000000" d="M3091.3,-499.26C3054.88,-499.26 2988.37,-499.26 2944.44,-499.26"/>
<polygon fill="#000000" stroke="#000000" points="2944.33,-495.76 2934.33,-499.26 2944.33,-502.76 2944.33,-495.76"/>
<text text-anchor="middle" x="3021.89" y="-543.66" font-family="Times,serif" font-size="32.00">doubt</text>
<text text-anchor="middle" x="3021.89" y="-508.66" font-family="Times,serif" font-size="32.00">12</text>
</g>
<!-- 12&#45;&gt;a -->
<g id="edge45" class="edge">
<title>12&#45;&gt;a</title>
<path fill="none" stroke="#000000" d="M2876.5,-521.67C2865.92,-533.59 2854.24,-549.1 2847.74,-565.26 2833.39,-600.91 2853.82,-707.31 2829.74,-737.26 2765.21,-817.51 2709.78,-785.42 2609.85,-810.26 2566.34,-821.08 2256.54,-873.53 2211.85,-877.26 2135.23,-883.67 2112.84,-898.18 2038.85,-877.26 2014.59,-870.4 1990.42,-855.49 1972.4,-842.38"/>
<polygon fill="#000000" stroke="#000000" points="1974.18,-839.33 1964.08,-836.13 1969.97,-844.93 1974.18,-839.33"/>
<text text-anchor="middle" x="2515.35" y="-889.66" font-family="Times,serif" font-size="32.00">ful_3</text>
<text text-anchor="middle" x="2515.35" y="-854.66" font-family="Times,serif" font-size="32.00">=&gt;12 =about a</text>
</g>
<!-- 12&#45;&gt;5 -->
<g id="edge44" class="edge">
<title>12&#45;&gt;5</title>
<path fill="none" stroke="#000000" d="M2888.46,-470.67C2873.35,-430.67 2845.68,-360.44 2829.74,-338.26 2753.13,-231.73 2732.41,-188.13 2609.85,-141.26 2370.21,-49.61 2226.74,-51.53 2038.85,-226.26 2018.47,-245.22 2036.11,-262.98 2020.85,-286.26 2008.88,-304.54 1990.37,-320.51 1974.38,-332.16"/>
<polygon fill="#000000" stroke="#000000" points="1971.99,-329.56 1965.82,-338.18 1976.02,-335.29 1971.99,-329.56"/>
<text text-anchor="middle" x="2515.35" y="-185.66" font-family="Times,serif" font-size="32.00">ε_22</text>
<text text-anchor="middle" x="2515.35" y="-150.66" font-family="Times,serif" font-size="32.00">=&gt;12 =about 5</text>
</g>
<!-- 12&#45;&gt;10 -->
<g id="edge43" class="edge">
<title>12&#45;&gt;10</title>
<path fill="none" stroke="#000000" d="M2866.3,-494.65C2828.77,-490.45 2765.75,-486.76 2713.74,-500.26 2708.68,-501.58 2703.58,-503.5 2698.67,-505.75"/>
<polygon fill="#000000" stroke="#000000" points="2696.86,-502.74 2689.5,-510.36 2700.01,-508.99 2696.86,-502.74"/>
<text text-anchor="middle" x="2771.74" y="-544.66" font-family="Times,serif" font-size="32.00">ε_21</text>
<text text-anchor="middle" x="2771.74" y="-509.66" font-family="Times,serif" font-size="32.00">=&gt;12 10</text>
</g>
</g>
</svg>
