<?xml version="1.0" encoding="UTF-8" standalone="no"?>
<!DOCTYPE svg PUBLIC "-//W3C//DTD SVG 1.1//EN"
 "http://www.w3.org/Graphics/SVG/1.1/DTD/svg11.dtd">
<!-- Generated by graphviz version 2.47.1 (20210417.1919)
 -->
<!-- Title: G Pages: 1 -->
<svg width="3131pt" height="1232pt"
 viewBox="0.00 0.00 3131.39 1232.26" xmlns="http://www.w3.org/2000/svg" xmlns:xlink="http://www.w3.org/1999/xlink">
<g id="graph0" class="graph" transform="scale(1 1) rotate(0) translate(4 1228.26)">
<title>G</title>
<polygon fill="white" stroke="transparent" points="-4,4 -4,-1228.26 3127.39,-1228.26 3127.39,4 -4,4"/>
<text text-anchor="middle" x="1561.69" y="-13.4" font-family="Times,serif" font-size="32.00">replacement: =&gt;2 v with =&gt;2 3, =&gt;3 v</text>
<!-- t -->
<g id="node1" class="node">
<title>t</title>
<ellipse fill="lightgray" stroke="black" cx="27" cy="-817.26" rx="27" ry="30.31"/>
<text text-anchor="middle" x="27" y="-809.16" font-family="Times,serif" font-size="32.00">t</text>
</g>
<!-- z0 -->
<g id="node2" class="node">
<title>z0</title>
<ellipse fill="none" stroke="black" stroke-dasharray="5,2" cx="3096.39" cy="-991.26" rx="27" ry="18"/>
</g>
<!-- da -->
<g id="node3" class="node">
<title>da</title>
<ellipse fill="none" stroke="black" cx="2878.06" cy="-991.26" rx="33.47" ry="30.31"/>
<text text-anchor="middle" x="2878.06" y="-983.16" font-family="Times,serif" font-size="32.00">da</text>
</g>
<!-- z0&#45;&gt;da -->
<g id="edge1" class="edge">
<title>z0&#45;&gt;da</title>
<path fill="none" stroke="#000000" d="M3069.3,-991.26C3032.67,-991.26 2965.61,-991.26 2921.69,-991.26"/>
<polygon fill="#000000" stroke="#000000" points="2921.6,-987.76 2911.6,-991.26 2921.6,-994.76 2921.6,-987.76"/>
<text text-anchor="middle" x="2999.89" y="-1070.66" font-family="Times,serif" font-size="32.00">Mary |</text>
<text text-anchor="middle" x="2999.89" y="-1035.66" font-family="Times,serif" font-size="32.00"> John</text>
<text text-anchor="middle" x="2999.89" y="-1000.66" font-family="Times,serif" font-size="32.00">da &#45;k</text>
</g>
<!-- z1 -->
<g id="node4" class="node">
<title>z1</title>
<ellipse fill="none" stroke="black" stroke-dasharray="5,2" cx="3096.39" cy="-1119.26" rx="27" ry="18"/>
</g>
<!-- poss -->
<g id="node5" class="node">
<title>poss</title>
<ellipse fill="none" stroke="black" cx="2878.06" cy="-1119.26" rx="52.15" ry="30.31"/>
<text text-anchor="middle" x="2878.06" y="-1111.16" font-family="Times,serif" font-size="32.00">poss</text>
</g>
<!-- z1&#45;&gt;poss -->
<g id="edge2" class="edge">
<title>z1&#45;&gt;poss</title>
<path fill="none" stroke="#000000" d="M3069.3,-1119.26C3037.63,-1119.26 2983.2,-1119.26 2940.66,-1119.26"/>
<polygon fill="#000000" stroke="#000000" points="2940.4,-1115.76 2930.4,-1119.26 2940.4,-1122.76 2940.4,-1115.76"/>
<text text-anchor="middle" x="2999.89" y="-1198.66" font-family="Times,serif" font-size="32.00">Mary&#39;s |</text>
<text text-anchor="middle" x="2999.89" y="-1163.66" font-family="Times,serif" font-size="32.00"> John&#39;s</text>
<text text-anchor="middle" x="2999.89" y="-1128.66" font-family="Times,serif" font-size="32.00">poss</text>
</g>
<!-- z2 -->
<g id="node6" class="node">
<title>z2</title>
<ellipse fill="none" stroke="black" stroke-dasharray="5,2" cx="1919.85" cy="-259.26" rx="27" ry="18"/>
</g>
<!-- d -->
<g id="node7" class="node">
<title>d</title>
<ellipse fill="none" stroke="black" cx="1583.85" cy="-300.26" rx="27" ry="30.31"/>
<text text-anchor="middle" x="1583.85" y="-292.16" font-family="Times,serif" font-size="32.00">d</text>
</g>
<!-- z2&#45;&gt;d -->
<g id="edge3" class="edge">
<title>z2&#45;&gt;d</title>
<path fill="none" stroke="#000000" d="M1894.08,-253.59C1842.58,-243.02 1721.07,-224.43 1628.85,-260.26 1622.26,-262.83 1616.04,-266.88 1610.47,-271.45"/>
<polygon fill="#000000" stroke="#000000" points="1607.87,-269.09 1602.81,-278.39 1612.57,-274.27 1607.87,-269.09"/>
<text text-anchor="middle" x="1725.85" y="-304.66" font-family="Times,serif" font-size="32.00">the&#45;cause</text>
<text text-anchor="middle" x="1725.85" y="-269.66" font-family="Times,serif" font-size="32.00">d &#45;k</text>
</g>
<!-- for -->
<g id="node8" class="node">
<title>for</title>
<ellipse fill="none" stroke="black" cx="1306.34" cy="-436.26" rx="37.45" ry="30.31"/>
<text text-anchor="middle" x="1306.34" y="-428.16" font-family="Times,serif" font-size="32.00">for</text>
</g>
<!-- d&#45;&gt;for -->
<g id="edge4" class="edge">
<title>d&#45;&gt;for</title>
<path fill="none" stroke="#000000" d="M1572.48,-328.1C1565.35,-343.3 1554.35,-361.05 1538.85,-371.26 1481.43,-409.1 1451.12,-372.62 1385.85,-394.26 1372.04,-398.84 1357.77,-405.74 1345.24,-412.62"/>
<polygon fill="#000000" stroke="#000000" points="1343.43,-409.62 1336.46,-417.6 1346.89,-415.71 1343.43,-409.62"/>
<text text-anchor="middle" x="1462.35" y="-438.66" font-family="Times,serif" font-size="32.00">for</text>
<text text-anchor="middle" x="1462.35" y="-403.66" font-family="Times,serif" font-size="32.00">=d *k for</text>
</g>
<!-- of -->
<g id="node9" class="node">
<title>of</title>
<ellipse fill="none" stroke="black" cx="1306.34" cy="-300.26" rx="30.31" ry="30.31"/>
<text text-anchor="middle" x="1306.34" y="-292.16" font-family="Times,serif" font-size="32.00">of</text>
</g>
<!-- d&#45;&gt;of -->
<g id="edge5" class="edge">
<title>d&#45;&gt;of</title>
<path fill="none" stroke="#000000" d="M1556.44,-300.26C1507.87,-300.26 1404.17,-300.26 1347.08,-300.26"/>
<polygon fill="#000000" stroke="#000000" points="1346.98,-296.76 1336.98,-300.26 1346.98,-303.76 1346.98,-296.76"/>
<text text-anchor="middle" x="1462.35" y="-344.66" font-family="Times,serif" font-size="32.00">of</text>
<text text-anchor="middle" x="1462.35" y="-309.66" font-family="Times,serif" font-size="32.00">=d *k of</text>
</g>
<!-- about -->
<g id="node10" class="node">
<title>about</title>
<ellipse fill="none" stroke="black" cx="1306.34" cy="-207.26" rx="61.54" ry="30.31"/>
<text text-anchor="middle" x="1306.34" y="-199.16" font-family="Times,serif" font-size="32.00">about</text>
</g>
<!-- d&#45;&gt;about -->
<g id="edge6" class="edge">
<title>d&#45;&gt;about</title>
<path fill="none" stroke="#000000" d="M1573.51,-271.98C1566.6,-255.77 1555.46,-236.63 1538.85,-226.26 1490.31,-195.95 1424.44,-193.41 1375.38,-197.16"/>
<polygon fill="#000000" stroke="#000000" points="1374.83,-193.69 1365.17,-198.05 1375.44,-200.67 1374.83,-193.69"/>
<text text-anchor="middle" x="1462.35" y="-270.66" font-family="Times,serif" font-size="32.00">about</text>
<text text-anchor="middle" x="1462.35" y="-235.66" font-family="Times,serif" font-size="32.00">=d *k about</text>
</g>
<!-- 4 -->
<g id="node19" class="node">
<title>4</title>
<ellipse fill="none" stroke="black" cx="2294.35" cy="-620.26" rx="27" ry="30.31"/>
<text text-anchor="middle" x="2294.35" y="-612.16" font-family="Times,serif" font-size="32.00">4</text>
</g>
<!-- for&#45;&gt;4 -->
<g id="edge19" class="edge">
<title>for&#45;&gt;4</title>
<path fill="none" stroke="#000000" d="M1340.15,-449.53C1354.06,-454.74 1370.56,-460.39 1385.85,-464.26 1736.37,-552.94 1837.53,-507.09 2189.85,-588.26 2213.06,-593.61 2238.63,-601.49 2258.55,-608.1"/>
<polygon fill="#000000" stroke="#000000" points="2257.52,-611.45 2268.12,-611.32 2259.76,-604.81 2257.52,-611.45"/>
<text text-anchor="middle" x="1725.85" y="-576.66" font-family="Times,serif" font-size="32.00">hope</text>
<text text-anchor="middle" x="1725.85" y="-541.66" font-family="Times,serif" font-size="32.00">=for 4</text>
</g>
<!-- 0 -->
<g id="node11" class="node">
<title>0</title>
<ellipse fill="none" stroke="black" cx="229" cy="-817.26" rx="27" ry="30.31"/>
<text text-anchor="middle" x="229" y="-809.16" font-family="Times,serif" font-size="32.00">0</text>
</g>
<!-- 0&#45;&gt;t -->
<g id="edge7" class="edge">
<title>0&#45;&gt;t</title>
<path fill="none" stroke="#000000" d="M201.85,-817.26C166.67,-817.26 103.92,-817.26 64.21,-817.26"/>
<polygon fill="#000000" stroke="#000000" points="64.15,-813.76 54.15,-817.26 64.15,-820.76 64.15,-813.76"/>
<text text-anchor="middle" x="128" y="-896.66" font-family="Times,serif" font-size="32.00">s |</text>
<text text-anchor="middle" x="128" y="-861.66" font-family="Times,serif" font-size="32.00"> d</text>
<text text-anchor="middle" x="128" y="-826.66" font-family="Times,serif" font-size="32.00">=&gt;0 +k t</text>
</g>
<!-- 1 -->
<g id="node12" class="node">
<title>1</title>
<ellipse fill="none" stroke="black" cx="1583.85" cy="-818.26" rx="27" ry="30.31"/>
<text text-anchor="middle" x="1583.85" y="-810.16" font-family="Times,serif" font-size="32.00">1</text>
</g>
<!-- 2 -->
<g id="node13" class="node">
<title>2</title>
<ellipse fill="none" stroke="black" cx="1306.34" cy="-818.26" rx="27" ry="30.31"/>
<text text-anchor="middle" x="1306.34" y="-810.16" font-family="Times,serif" font-size="32.00">2</text>
</g>
<!-- 1&#45;&gt;2 -->
<g id="edge8" class="edge">
<title>1&#45;&gt;2</title>
<path fill="none" stroke="#000000" d="M1556.44,-818.26C1506.96,-818.26 1400.26,-818.26 1343.91,-818.26"/>
<polygon fill="#000000" stroke="#000000" points="1343.67,-814.76 1333.67,-818.26 1343.67,-821.76 1343.67,-814.76"/>
<text text-anchor="middle" x="1462.35" y="-862.66" font-family="Times,serif" font-size="32.00">ε_0</text>
<text text-anchor="middle" x="1462.35" y="-827.66" font-family="Times,serif" font-size="32.00">=&gt;1 =da 2</text>
</g>
<!-- 3 -->
<g id="node15" class="node">
<title>3</title>
<ellipse fill="none" stroke="black" cx="823.17" cy="-817.26" rx="27" ry="30.31"/>
<text text-anchor="middle" x="823.17" y="-809.16" font-family="Times,serif" font-size="32.00">3</text>
</g>
<!-- 2&#45;&gt;3 -->
<g id="edge11" class="edge">
<title>2&#45;&gt;3</title>
<path fill="none" stroke="#000000" d="M1281.17,-829.32C1265.93,-835.66 1245.64,-843.01 1226.82,-846.26 1069.75,-873.43 1020.85,-892.05 868.17,-846.26 863.38,-844.83 858.63,-842.68 854.13,-840.2"/>
<polygon fill="#000000" stroke="#000000" points="855.63,-837.01 845.28,-834.74 851.95,-842.97 855.63,-837.01"/>
<text text-anchor="middle" x="1038.49" y="-918.66" font-family="Times,serif" font-size="32.00">ε_1</text>
<text text-anchor="middle" x="1038.49" y="-883.66" font-family="Times,serif" font-size="32.00">=&gt;2 3</text>
</g>
<!-- prog -->
<g id="node17" class="node">
<title>prog</title>
<ellipse fill="none" stroke="black" cx="1038.49" cy="-775.26" rx="52.15" ry="30.31"/>
<text text-anchor="middle" x="1038.49" y="-767.16" font-family="Times,serif" font-size="32.00">prog</text>
</g>
<!-- 2&#45;&gt;prog -->
<g id="edge12" class="edge">
<title>2&#45;&gt;prog</title>
<path fill="none" stroke="#000000" d="M1282.85,-802.42C1267.78,-792.79 1247.05,-781.39 1226.82,-776.26 1185.47,-765.78 1137.31,-765.78 1100.18,-768.27"/>
<polygon fill="#000000" stroke="#000000" points="1099.73,-764.79 1090.02,-769.03 1100.25,-771.77 1099.73,-764.79"/>
<text text-anchor="middle" x="1167.82" y="-820.66" font-family="Times,serif" font-size="32.00">ing</text>
<text text-anchor="middle" x="1167.82" y="-785.66" font-family="Times,serif" font-size="32.00">=&gt;2 prog</text>
</g>
<!-- a -->
<g id="node14" class="node">
<title>a</title>
<ellipse fill="none" stroke="black" cx="1919.85" cy="-818.26" rx="27" ry="30.31"/>
<text text-anchor="middle" x="1919.85" y="-810.16" font-family="Times,serif" font-size="32.00">a</text>
</g>
<!-- a&#45;&gt;1 -->
<g id="edge9" class="edge">
<title>a&#45;&gt;1</title>
<path fill="none" stroke="#000000" d="M1892.65,-818.26C1833.38,-818.26 1688.95,-818.26 1621.14,-818.26"/>
<polygon fill="#000000" stroke="#000000" points="1620.94,-814.76 1610.94,-818.26 1620.94,-821.76 1620.94,-814.76"/>
<text text-anchor="middle" x="1725.85" y="-862.66" font-family="Times,serif" font-size="32.00">be</text>
<text text-anchor="middle" x="1725.85" y="-827.66" font-family="Times,serif" font-size="32.00">=a 1</text>
</g>
<!-- perf -->
<g id="node16" class="node">
<title>perf</title>
<ellipse fill="none" stroke="black" cx="600.08" cy="-775.26" rx="48.17" ry="30.31"/>
<text text-anchor="middle" x="600.08" y="-767.16" font-family="Times,serif" font-size="32.00">perf</text>
</g>
<!-- 3&#45;&gt;perf -->
<g id="edge10" class="edge">
<title>3&#45;&gt;perf</title>
<path fill="none" stroke="#000000" d="M804.3,-794.87C797.06,-787.5 788.07,-780.19 778.17,-776.26 739.68,-760.98 692.66,-761.51 656.75,-765.43"/>
<polygon fill="#000000" stroke="#000000" points="655.97,-762 646.46,-766.68 656.81,-768.95 655.97,-762"/>
<text text-anchor="middle" x="722.17" y="-820.66" font-family="Times,serif" font-size="32.00">n</text>
<text text-anchor="middle" x="722.17" y="-785.66" font-family="Times,serif" font-size="32.00">=&gt;3 perf</text>
</g>
<!-- v -->
<g id="node18" class="node">
<title>v</title>
<ellipse fill="none" stroke="black" cx="395" cy="-817.26" rx="27" ry="30.31"/>
<text text-anchor="middle" x="395" y="-809.16" font-family="Times,serif" font-size="32.00">v</text>
</g>
<!-- 3&#45;&gt;v -->
<g id="edge17" class="edge">
<title>3&#45;&gt;v</title>
<path fill="none" stroke="#000000" d="M801.06,-834.74C794.18,-839.42 786.23,-843.85 778.17,-846.26 634.21,-889.44 583.96,-889.44 440,-846.26 435.21,-844.83 430.47,-842.68 425.96,-840.2"/>
<polygon fill="#000000" stroke="#000000" points="427.46,-837.01 417.11,-834.74 423.78,-842.97 427.46,-837.01"/>
<text text-anchor="middle" x="600.08" y="-923.66" font-family="Times,serif" font-size="32.00">ε_3</text>
<text text-anchor="middle" x="600.08" y="-888.66" font-family="Times,serif" font-size="32.00">=&gt;3 v</text>
</g>
<!-- perf&#45;&gt;v -->
<g id="edge14" class="edge">
<title>perf&#45;&gt;v</title>
<path fill="none" stroke="#000000" d="M553.53,-766.98C520.77,-763.04 476.19,-761.88 440,-776.26 433.35,-778.91 427.11,-783.07 421.53,-787.76"/>
<polygon fill="#000000" stroke="#000000" points="418.81,-785.5 413.87,-794.87 423.58,-790.63 418.81,-785.5"/>
<text text-anchor="middle" x="487" y="-820.66" font-family="Times,serif" font-size="32.00">have</text>
<text text-anchor="middle" x="487" y="-785.66" font-family="Times,serif" font-size="32.00">=perf v</text>
</g>
<!-- prog&#45;&gt;3 -->
<g id="edge16" class="edge">
<title>prog&#45;&gt;3</title>
<path fill="none" stroke="#000000" d="M988.26,-766.34C953.47,-762.2 906.42,-761.07 868.17,-776.26 861.52,-778.9 855.27,-783.07 849.7,-787.75"/>
<polygon fill="#000000" stroke="#000000" points="846.98,-785.5 842.03,-794.87 851.74,-790.63 846.98,-785.5"/>
<text text-anchor="middle" x="918.17" y="-820.66" font-family="Times,serif" font-size="32.00">be_1</text>
<text text-anchor="middle" x="918.17" y="-785.66" font-family="Times,serif" font-size="32.00">=prog 3</text>
</g>
<!-- v&#45;&gt;0 -->
<g id="edge13" class="edge">
<title>v&#45;&gt;0</title>
<path fill="none" stroke="#000000" d="M371.68,-832.88C365.01,-836.72 357.47,-840.29 350,-842.26 317.34,-850.89 306.66,-850.89 274,-842.26 269.8,-841.15 265.57,-839.54 261.49,-837.65"/>
<polygon fill="#000000" stroke="#000000" points="262.81,-834.39 252.32,-832.88 259.58,-840.6 262.81,-834.39"/>
<text text-anchor="middle" x="312" y="-893.66" font-family="Times,serif" font-size="32.00">will</text>
<text text-anchor="middle" x="312" y="-858.66" font-family="Times,serif" font-size="32.00">=v 0</text>
</g>
<!-- v&#45;&gt;0 -->
<g id="edge15" class="edge">
<title>v&#45;&gt;0</title>
<path fill="none" stroke="#000000" d="M378.8,-792.89C371.4,-783.33 361.59,-773.43 350,-768.26 319.15,-754.5 304.85,-754.5 274,-768.26 265.67,-771.98 258.26,-778.14 252,-784.86"/>
<polygon fill="#000000" stroke="#000000" points="248.99,-782.99 245.2,-792.89 254.33,-787.52 248.99,-782.99"/>
<text text-anchor="middle" x="312" y="-812.66" font-family="Times,serif" font-size="32.00">ε_2</text>
<text text-anchor="middle" x="312" y="-777.66" font-family="Times,serif" font-size="32.00">=&gt;v 0</text>
</g>
<!-- 4&#45;&gt;1 -->
<g id="edge18" class="edge">
<title>4&#45;&gt;1</title>
<path fill="none" stroke="#000000" d="M2267.78,-613.49C2218.49,-601.52 2107.22,-579.84 2016.85,-601.26 1854.68,-639.71 1684.16,-749.08 1615.83,-796.21"/>
<polygon fill="#000000" stroke="#000000" points="1613.46,-793.59 1607.25,-802.17 1617.46,-799.34 1613.46,-793.59"/>
<text text-anchor="middle" x="1919.85" y="-708.66" font-family="Times,serif" font-size="32.00">ε_4</text>
<text text-anchor="middle" x="1919.85" y="-673.66" font-family="Times,serif" font-size="32.00">=&gt;4 1</text>
</g>
<!-- 4&#45;&gt;a -->
<g id="edge22" class="edge">
<title>4&#45;&gt;a</title>
<path fill="none" stroke="#000000" d="M2269.25,-632.13C2251.39,-641.5 2226.95,-655.57 2207.85,-671.26 2198.62,-678.86 2200.5,-685.81 2189.85,-691.26 2121.02,-726.55 2085.58,-674.77 2016.85,-710.26 1984.36,-727.05 1957.73,-759.75 1940.84,-784.79"/>
<polygon fill="#000000" stroke="#000000" points="1937.82,-783.01 1935.27,-793.29 1943.68,-786.84 1937.82,-783.01"/>
<text text-anchor="middle" x="2103.35" y="-754.66" font-family="Times,serif" font-size="32.00">ful</text>
<text text-anchor="middle" x="2103.35" y="-719.66" font-family="Times,serif" font-size="32.00">=&gt;4 a</text>
</g>
<!-- 5 -->
<g id="node20" class="node">
<title>5</title>
<ellipse fill="none" stroke="black" cx="1919.85" cy="-352.26" rx="27" ry="30.31"/>
<text text-anchor="middle" x="1919.85" y="-344.16" font-family="Times,serif" font-size="32.00">5</text>
</g>
<!-- 4&#45;&gt;5 -->
<g id="edge21" class="edge">
<title>4&#45;&gt;5</title>
<path fill="none" stroke="#000000" d="M2267.61,-613.71C2248.15,-607.39 2222.38,-595.83 2207.85,-576.26 2181.46,-540.71 2220.01,-510.7 2189.85,-478.26 2135.76,-420.08 2087.41,-469.79 2016.85,-433.26 2002.24,-425.7 1971.49,-398.9 1948.71,-378.17"/>
<polygon fill="#000000" stroke="#000000" points="1951.06,-375.58 1941.32,-371.41 1946.33,-380.74 1951.06,-375.58"/>
<text text-anchor="middle" x="2103.35" y="-522.66" font-family="Times,serif" font-size="32.00">ε_6</text>
<text text-anchor="middle" x="2103.35" y="-487.66" font-family="Times,serif" font-size="32.00">=&gt;4 5</text>
</g>
<!-- 5&#45;&gt;d -->
<g id="edge20" class="edge">
<title>5&#45;&gt;d</title>
<path fill="none" stroke="#000000" d="M1892.73,-354.69C1840.79,-358.57 1721.54,-362.74 1628.85,-330.26 1623.96,-328.55 1619.1,-326.15 1614.5,-323.44"/>
<polygon fill="#000000" stroke="#000000" points="1616.31,-320.44 1606.01,-317.96 1612.51,-326.32 1616.31,-320.44"/>
<text text-anchor="middle" x="1725.85" y="-402.66" font-family="Times,serif" font-size="32.00">ε_5</text>
<text text-anchor="middle" x="1725.85" y="-367.66" font-family="Times,serif" font-size="32.00">=&gt;5 poss= d &#45;k</text>
</g>
<!-- 6 -->
<g id="node21" class="node">
<title>6</title>
<ellipse fill="none" stroke="black" cx="2294.35" cy="-916.26" rx="27" ry="30.31"/>
<text text-anchor="middle" x="2294.35" y="-908.16" font-family="Times,serif" font-size="32.00">6</text>
</g>
<!-- 6&#45;&gt;1 -->
<g id="edge23" class="edge">
<title>6&#45;&gt;1</title>
<path fill="none" stroke="#000000" d="M2268.09,-923.32C2174.99,-947.77 1845.32,-1020.62 1628.85,-892.26 1615.17,-884.15 1605.26,-869.99 1598.35,-856.22"/>
<polygon fill="#000000" stroke="#000000" points="1601.39,-854.45 1594.04,-846.82 1595.03,-857.37 1601.39,-854.45"/>
<text text-anchor="middle" x="1919.85" y="-1010.66" font-family="Times,serif" font-size="32.00">ε_7</text>
<text text-anchor="middle" x="1919.85" y="-975.66" font-family="Times,serif" font-size="32.00">=&gt;6 1</text>
</g>
<!-- 6&#45;&gt;5 -->
<g id="edge26" class="edge">
<title>6&#45;&gt;5</title>
<path fill="none" stroke="#000000" d="M2277.72,-892.21C2258.04,-860.72 2224.79,-803.18 2207.85,-749.26 2190.11,-692.77 2226.78,-663.55 2189.85,-617.26 2138.63,-553.06 2068.15,-616.41 2016.85,-552.26 1980.43,-506.71 2026.23,-473.77 1998.85,-422.26 1988.09,-402.01 1969.02,-384.74 1952.43,-372.41"/>
<polygon fill="#000000" stroke="#000000" points="1954.22,-369.38 1944.04,-366.43 1950.15,-375.08 1954.22,-369.38"/>
<text text-anchor="middle" x="2103.35" y="-661.66" font-family="Times,serif" font-size="32.00">ε_9</text>
<text text-anchor="middle" x="2103.35" y="-626.66" font-family="Times,serif" font-size="32.00">=&gt;6 5</text>
</g>
<!-- 7 -->
<g id="node22" class="node">
<title>7</title>
<ellipse fill="none" stroke="black" cx="2639.8" cy="-925.26" rx="27" ry="30.31"/>
<text text-anchor="middle" x="2639.8" y="-917.16" font-family="Times,serif" font-size="32.00">7</text>
</g>
<!-- 7&#45;&gt;1 -->
<g id="edge29" class="edge">
<title>7&#45;&gt;1</title>
<path fill="none" stroke="#000000" d="M2630.26,-954.17C2622.54,-975.31 2609.08,-1003.02 2587.85,-1019.26 2512.78,-1076.73 2474.76,-1057.3 2380.85,-1068.26 2142.15,-1096.13 2072.96,-1102.58 1840.85,-1040.26 1739.87,-1013.15 1699.12,-1015.7 1628.85,-938.26 1608.67,-916.02 1597.53,-883.75 1591.51,-858.28"/>
<polygon fill="#000000" stroke="#000000" points="1594.86,-857.2 1589.31,-848.18 1588.02,-858.7 1594.86,-857.2"/>
<text text-anchor="middle" x="2103.35" y="-1132.66" font-family="Times,serif" font-size="32.00">ε_11</text>
<text text-anchor="middle" x="2103.35" y="-1097.66" font-family="Times,serif" font-size="32.00">=&gt;7 =about 1</text>
</g>
<!-- 7&#45;&gt;a -->
<g id="edge31" class="edge">
<title>7&#45;&gt;a</title>
<path fill="none" stroke="#000000" d="M2627.25,-952.3C2618.85,-968.25 2605.81,-987.05 2587.85,-996.26 2513.12,-1034.62 2482.39,-1005.13 2398.85,-996.26 2225.3,-977.85 2170.34,-988.35 2016.85,-905.26 1989.73,-890.58 1964.13,-866.67 1946.19,-847.63"/>
<polygon fill="#000000" stroke="#000000" points="1948.58,-845.06 1939.23,-840.07 1943.43,-849.8 1948.58,-845.06"/>
<text text-anchor="middle" x="2294.35" y="-1038.66" font-family="Times,serif" font-size="32.00">ful_2</text>
<text text-anchor="middle" x="2294.35" y="-1003.66" font-family="Times,serif" font-size="32.00">=&gt;7 =about a</text>
</g>
<!-- 7&#45;&gt;5 -->
<g id="edge30" class="edge">
<title>7&#45;&gt;5</title>
<path fill="none" stroke="#000000" d="M2637.96,-894.76C2635.44,-826.41 2625.52,-664.1 2587.85,-627.26 2527.15,-567.89 2460.52,-657.64 2398.85,-599.26 2369.87,-571.82 2409.04,-539.54 2380.85,-511.26 2325.42,-455.64 2268.65,-524.98 2207.85,-475.26 2192.13,-462.41 2205,-446.79 2189.85,-433.26 2123.06,-373.58 2013.65,-357.84 1957.15,-353.71"/>
<polygon fill="#000000" stroke="#000000" points="1957.12,-350.2 1946.91,-353.05 1956.66,-357.19 1957.12,-350.2"/>
<text text-anchor="middle" x="2294.35" y="-555.66" font-family="Times,serif" font-size="32.00">ε_12</text>
<text text-anchor="middle" x="2294.35" y="-520.66" font-family="Times,serif" font-size="32.00">=&gt;7 =about 5</text>
</g>
<!-- 7&#45;&gt;6 -->
<g id="edge24" class="edge">
<title>7&#45;&gt;6</title>
<path fill="none" stroke="#000000" d="M2612.7,-924.58C2551.95,-922.99 2400.98,-919.03 2331.45,-917.21"/>
<polygon fill="#000000" stroke="#000000" points="2331.5,-913.71 2321.41,-916.95 2331.32,-920.71 2331.5,-913.71"/>
<text text-anchor="middle" x="2493.35" y="-968.66" font-family="Times,serif" font-size="32.00">ε_8</text>
<text text-anchor="middle" x="2493.35" y="-933.66" font-family="Times,serif" font-size="32.00">=&gt;7 =of 6</text>
</g>
<!-- 8 -->
<g id="node24" class="node">
<title>8</title>
<ellipse fill="none" stroke="black" cx="2294.35" cy="-710.26" rx="27" ry="30.31"/>
<text text-anchor="middle" x="2294.35" y="-702.16" font-family="Times,serif" font-size="32.00">8</text>
</g>
<!-- 7&#45;&gt;8 -->
<g id="edge28" class="edge">
<title>7&#45;&gt;8</title>
<path fill="none" stroke="#000000" d="M2634.64,-895.06C2627.51,-847.92 2611.38,-760.17 2587.85,-740.26 2578.19,-732.09 2407.79,-718.56 2331.63,-712.89"/>
<polygon fill="#000000" stroke="#000000" points="2331.76,-709.39 2321.53,-712.15 2331.25,-716.37 2331.76,-709.39"/>
<text text-anchor="middle" x="2493.35" y="-784.66" font-family="Times,serif" font-size="32.00">ε_10</text>
<text text-anchor="middle" x="2493.35" y="-749.66" font-family="Times,serif" font-size="32.00">=&gt;7 8</text>
</g>
<!-- z3 -->
<g id="node23" class="node">
<title>z3</title>
<ellipse fill="none" stroke="black" stroke-dasharray="5,2" cx="2878.06" cy="-925.26" rx="27" ry="18"/>
</g>
<!-- z3&#45;&gt;7 -->
<g id="edge25" class="edge">
<title>z3&#45;&gt;7</title>
<path fill="none" stroke="#000000" d="M2850.88,-925.26C2808.65,-925.26 2725.42,-925.26 2677.37,-925.26"/>
<polygon fill="#000000" stroke="#000000" points="2677.1,-921.76 2667.1,-925.26 2677.1,-928.76 2677.1,-921.76"/>
<text text-anchor="middle" x="2749.74" y="-969.66" font-family="Times,serif" font-size="32.00">boast</text>
<text text-anchor="middle" x="2749.74" y="-934.66" font-family="Times,serif" font-size="32.00">7</text>
</g>
<!-- 8&#45;&gt;a -->
<g id="edge27" class="edge">
<title>8&#45;&gt;a</title>
<path fill="none" stroke="#000000" d="M2273,-729.56C2253.36,-746.97 2221.94,-771.7 2189.85,-784.26 2179.15,-788.46 2027.97,-806.07 1957.07,-814.16"/>
<polygon fill="#000000" stroke="#000000" points="1956.35,-810.72 1946.81,-815.33 1957.15,-817.68 1956.35,-810.72"/>
<text text-anchor="middle" x="2103.35" y="-851.66" font-family="Times,serif" font-size="32.00">ful_1</text>
<text text-anchor="middle" x="2103.35" y="-816.66" font-family="Times,serif" font-size="32.00">=&gt;8 =of a</text>
</g>
<!-- 9 -->
<g id="node25" class="node">
<title>9</title>
<ellipse fill="none" stroke="black" cx="2294.35" cy="-436.26" rx="27" ry="30.31"/>
<text text-anchor="middle" x="2294.35" y="-428.16" font-family="Times,serif" font-size="32.00">9</text>
</g>
<!-- 9&#45;&gt;1 -->
<g id="edge32" class="edge">
<title>9&#45;&gt;1</title>
<path fill="none" stroke="#000000" d="M2266.99,-435.56C2217.28,-434.85 2106.64,-436.19 2016.85,-458.26 1934.29,-478.57 1912.68,-487.76 1840.85,-533.26 1831.81,-538.99 1831.39,-542.81 1822.85,-549.26 1741.25,-611 1690.65,-591.7 1628.85,-673.26 1605.66,-703.88 1594.61,-746.73 1589.4,-777.91"/>
<polygon fill="#000000" stroke="#000000" points="1585.91,-777.58 1587.85,-788 1592.83,-778.65 1585.91,-777.58"/>
<text text-anchor="middle" x="1919.85" y="-577.66" font-family="Times,serif" font-size="32.00">ε_13</text>
<text text-anchor="middle" x="1919.85" y="-542.66" font-family="Times,serif" font-size="32.00">=&gt;9 =d *k 1</text>
</g>
<!-- z4 -->
<g id="node26" class="node">
<title>z4</title>
<ellipse fill="none" stroke="black" stroke-dasharray="5,2" cx="2878.06" cy="-592.26" rx="27" ry="18"/>
</g>
<!-- 10 -->
<g id="node27" class="node">
<title>10</title>
<ellipse fill="none" stroke="black" cx="2639.8" cy="-528.26" rx="33.88" ry="30.31"/>
<text text-anchor="middle" x="2639.8" y="-520.16" font-family="Times,serif" font-size="32.00">10</text>
</g>
<!-- z4&#45;&gt;10 -->
<g id="edge33" class="edge">
<title>z4&#45;&gt;10</title>
<path fill="none" stroke="#000000" d="M2851.01,-593.68C2814.04,-594.72 2744.92,-592.99 2691.74,-570.26 2684.33,-567.1 2677.14,-562.5 2670.62,-557.5"/>
<polygon fill="#000000" stroke="#000000" points="2672.7,-554.67 2662.75,-551.03 2668.25,-560.08 2672.7,-554.67"/>
<text text-anchor="middle" x="2749.74" y="-707.66" font-family="Times,serif" font-size="32.00">fear |</text>
<text text-anchor="middle" x="2749.74" y="-672.66" font-family="Times,serif" font-size="32.00"> neglect |</text>
<text text-anchor="middle" x="2749.74" y="-637.66" font-family="Times,serif" font-size="32.00"> scorn</text>
<text text-anchor="middle" x="2749.74" y="-602.66" font-family="Times,serif" font-size="32.00">10</text>
</g>
<!-- 10&#45;&gt;5 -->
<g id="edge34" class="edge">
<title>10&#45;&gt;5</title>
<path fill="none" stroke="#000000" d="M2632.42,-498.55C2620.37,-443.05 2594.84,-328.73 2587.85,-323.26 2538.01,-284.29 2088.01,-332.89 1956.68,-348.03"/>
<polygon fill="#000000" stroke="#000000" points="1956.26,-344.56 1946.73,-349.19 1957.06,-351.51 1956.26,-344.56"/>
<text text-anchor="middle" x="2294.35" y="-367.66" font-family="Times,serif" font-size="32.00">ε_14</text>
<text text-anchor="middle" x="2294.35" y="-332.66" font-family="Times,serif" font-size="32.00">=&gt;10 =of 5</text>
</g>
<!-- 10&#45;&gt;8 -->
<g id="edge36" class="edge">
<title>10&#45;&gt;8</title>
<path fill="none" stroke="#000000" d="M2626.18,-556.47C2617.6,-572.53 2604.73,-591.68 2587.85,-603.26 2516.74,-652.06 2478.01,-613.01 2398.85,-647.26 2390.03,-651.08 2388.99,-654.13 2380.85,-659.26 2363.5,-670.21 2343.86,-681.97 2327.78,-691.44"/>
<polygon fill="#000000" stroke="#000000" points="2325.63,-688.64 2318.77,-696.72 2329.17,-694.68 2325.63,-688.64"/>
<text text-anchor="middle" x="2493.35" y="-691.66" font-family="Times,serif" font-size="32.00">ε_16</text>
<text text-anchor="middle" x="2493.35" y="-656.66" font-family="Times,serif" font-size="32.00">=&gt;10 8</text>
</g>
<!-- 10&#45;&gt;9 -->
<g id="edge35" class="edge">
<title>10&#45;&gt;9</title>
<path fill="none" stroke="#000000" d="M2605.56,-528.63C2548.11,-528.7 2433.09,-526.24 2398.85,-506.26 2386.72,-499.18 2391.42,-489.53 2380.85,-480.26 2365.96,-467.19 2346.5,-456.78 2329.9,-449.38"/>
<polygon fill="#000000" stroke="#000000" points="2331.09,-446.08 2320.52,-445.37 2328.34,-452.52 2331.09,-446.08"/>
<text text-anchor="middle" x="2493.35" y="-573.66" font-family="Times,serif" font-size="32.00">ε_15</text>
<text text-anchor="middle" x="2493.35" y="-538.66" font-family="Times,serif" font-size="32.00">=&gt;10 9</text>
</g>
<!-- z5 -->
<g id="node28" class="node">
<title>z5</title>
<ellipse fill="none" stroke="black" stroke-dasharray="5,2" cx="2878.06" cy="-342.26" rx="27" ry="18"/>
</g>
<!-- 11 -->
<g id="node29" class="node">
<title>11</title>
<ellipse fill="none" stroke="black" cx="2639.8" cy="-342.26" rx="33.88" ry="30.31"/>
<text text-anchor="middle" x="2639.8" y="-334.16" font-family="Times,serif" font-size="32.00">11</text>
</g>
<!-- z5&#45;&gt;11 -->
<g id="edge37" class="edge">
<title>z5&#45;&gt;11</title>
<path fill="none" stroke="#000000" d="M2850.88,-342.26C2810.58,-342.26 2732.93,-342.26 2684.16,-342.26"/>
<polygon fill="#000000" stroke="#000000" points="2683.91,-338.76 2673.91,-342.26 2683.91,-345.76 2683.91,-338.76"/>
<text text-anchor="middle" x="2749.74" y="-421.66" font-family="Times,serif" font-size="32.00">respect |</text>
<text text-anchor="middle" x="2749.74" y="-386.66" font-family="Times,serif" font-size="32.00"> disdain</text>
<text text-anchor="middle" x="2749.74" y="-351.66" font-family="Times,serif" font-size="32.00">11</text>
</g>
<!-- 11&#45;&gt;5 -->
<g id="edge38" class="edge">
<title>11&#45;&gt;5</title>
<path fill="none" stroke="#000000" d="M2617.64,-318.96C2609.06,-310.58 2598.63,-301.63 2587.85,-295.26 2440.06,-207.98 2376.29,-193.2 2207.85,-226.26 2109.38,-245.6 2003.84,-302.47 1952.52,-332.76"/>
<polygon fill="#000000" stroke="#000000" points="1950.67,-329.78 1943.88,-337.91 1954.26,-335.8 1950.67,-329.78"/>
<text text-anchor="middle" x="2294.35" y="-270.66" font-family="Times,serif" font-size="32.00">ε_17</text>
<text text-anchor="middle" x="2294.35" y="-235.66" font-family="Times,serif" font-size="32.00">=&gt;11 =for 5</text>
</g>
<!-- 11&#45;&gt;8 -->
<g id="edge40" class="edge">
<title>11&#45;&gt;8</title>
<path fill="none" stroke="#000000" d="M2626.13,-370.11C2617.6,-385.51 2604.8,-403.47 2587.85,-413.26 2551.31,-434.39 2428.39,-402.1 2398.85,-432.26 2363.45,-468.42 2407.56,-616.28 2380.85,-659.26 2369.28,-677.89 2348.17,-690.58 2329.83,-698.64"/>
<polygon fill="#000000" stroke="#000000" points="2328.48,-695.41 2320.55,-702.45 2331.14,-701.89 2328.48,-695.41"/>
<text text-anchor="middle" x="2493.35" y="-476.66" font-family="Times,serif" font-size="32.00">ε_19</text>
<text text-anchor="middle" x="2493.35" y="-441.66" font-family="Times,serif" font-size="32.00">=&gt;11 8</text>
</g>
<!-- 11&#45;&gt;9 -->
<g id="edge39" class="edge">
<title>11&#45;&gt;9</title>
<path fill="none" stroke="#000000" d="M2607.43,-332.01C2558.11,-318 2461.62,-299.26 2398.85,-343.26 2379.86,-356.58 2396.22,-374.88 2380.85,-392.26 2367.45,-407.43 2347.58,-418.09 2330.36,-425.12"/>
<polygon fill="#000000" stroke="#000000" points="2328.69,-422.01 2320.6,-428.85 2331.19,-428.55 2328.69,-422.01"/>
<text text-anchor="middle" x="2493.35" y="-387.66" font-family="Times,serif" font-size="32.00">ε_18</text>
<text text-anchor="middle" x="2493.35" y="-352.66" font-family="Times,serif" font-size="32.00">=&gt;11 9</text>
</g>
<!-- z6 -->
<g id="node30" class="node">
<title>z6</title>
<ellipse fill="none" stroke="black" stroke-dasharray="5,2" cx="3096.39" cy="-499.26" rx="27" ry="18"/>
</g>
<!-- 12 -->
<g id="node31" class="node">
<title>12</title>
<ellipse fill="none" stroke="black" cx="2878.06" cy="-499.26" rx="33.88" ry="30.31"/>
<text text-anchor="middle" x="2878.06" y="-491.16" font-family="Times,serif" font-size="32.00">12</text>
</g>
<!-- z6&#45;&gt;12 -->
<g id="edge41" class="edge">
<title>z6&#45;&gt;12</title>
<path fill="none" stroke="#000000" d="M3069.3,-499.26C3032.88,-499.26 2966.37,-499.26 2922.44,-499.26"/>
<polygon fill="#000000" stroke="#000000" points="2922.33,-495.76 2912.33,-499.26 2922.33,-502.76 2922.33,-495.76"/>
<text text-anchor="middle" x="2999.89" y="-543.66" font-family="Times,serif" font-size="32.00">doubt</text>
<text text-anchor="middle" x="2999.89" y="-508.66" font-family="Times,serif" font-size="32.00">12</text>
</g>
<!-- 12&#45;&gt;a -->
<g id="edge44" class="edge">
<title>12&#45;&gt;a</title>
<path fill="none" stroke="#000000" d="M2854.5,-521.67C2843.92,-533.59 2832.24,-549.1 2825.74,-565.26 2811.39,-600.91 2831.82,-707.31 2807.74,-737.26 2743.21,-817.51 2687.78,-785.42 2587.85,-810.26 2544.34,-821.08 2234.54,-873.53 2189.85,-877.26 2113.23,-883.67 2090.84,-898.18 2016.85,-877.26 1992.59,-870.4 1968.42,-855.49 1950.4,-842.38"/>
<polygon fill="#000000" stroke="#000000" points="1952.18,-839.33 1942.08,-836.13 1947.97,-844.93 1952.18,-839.33"/>
<text text-anchor="middle" x="2493.35" y="-889.66" font-family="Times,serif" font-size="32.00">ful_3</text>
<text text-anchor="middle" x="2493.35" y="-854.66" font-family="Times,serif" font-size="32.00">=&gt;12 =about a</text>
</g>
<!-- 12&#45;&gt;5 -->
<g id="edge43" class="edge">
<title>12&#45;&gt;5</title>
<path fill="none" stroke="#000000" d="M2866.46,-470.67C2851.35,-430.67 2823.68,-360.44 2807.74,-338.26 2731.13,-231.73 2710.41,-188.13 2587.85,-141.26 2348.21,-49.61 2204.74,-51.53 2016.85,-226.26 1996.47,-245.22 2014.11,-262.98 1998.85,-286.26 1986.88,-304.54 1968.37,-320.51 1952.38,-332.16"/>
<polygon fill="#000000" stroke="#000000" points="1949.99,-329.56 1943.82,-338.18 1954.02,-335.29 1949.99,-329.56"/>
<text text-anchor="middle" x="2493.35" y="-185.66" font-family="Times,serif" font-size="32.00">ε_21</text>
<text text-anchor="middle" x="2493.35" y="-150.66" font-family="Times,serif" font-size="32.00">=&gt;12 =about 5</text>
</g>
<!-- 12&#45;&gt;10 -->
<g id="edge42" class="edge">
<title>12&#45;&gt;10</title>
<path fill="none" stroke="#000000" d="M2844.3,-494.65C2806.77,-490.45 2743.75,-486.76 2691.74,-500.26 2686.68,-501.58 2681.58,-503.5 2676.67,-505.75"/>
<polygon fill="#000000" stroke="#000000" points="2674.86,-502.74 2667.5,-510.36 2678.01,-508.99 2674.86,-502.74"/>
<text text-anchor="middle" x="2749.74" y="-544.66" font-family="Times,serif" font-size="32.00">ε_20</text>
<text text-anchor="middle" x="2749.74" y="-509.66" font-family="Times,serif" font-size="32.00">=&gt;12 10</text>
</g>
</g>
</svg>
