<?xml version="1.0" encoding="UTF-8" standalone="no"?>
<!DOCTYPE svg PUBLIC "-//W3C//DTD SVG 1.1//EN"
 "http://www.w3.org/Graphics/SVG/1.1/DTD/svg11.dtd">
<!-- Generated by graphviz version 2.47.1 (20210417.1919)
 -->
<!-- Title: G Pages: 1 -->
<svg width="3162pt" height="1226pt"
 viewBox="0.00 0.00 3162.39 1225.94" xmlns="http://www.w3.org/2000/svg" xmlns:xlink="http://www.w3.org/1999/xlink">
<g id="graph0" class="graph" transform="scale(1 1) rotate(0) translate(4 1221.94)">
<title>G</title>
<polygon fill="white" stroke="transparent" points="-4,4 -4,-1221.94 3158.39,-1221.94 3158.39,4 -4,4"/>
<text text-anchor="middle" x="1577.19" y="-13.4" font-family="Times,serif" font-size="32.00">decomposition: Mary&#39;s poss, John&#39;s poss</text>
<!-- t -->
<g id="node1" class="node">
<title>t</title>
<ellipse fill="lightgray" stroke="black" cx="27" cy="-806.94" rx="27" ry="30.31"/>
<text text-anchor="middle" x="27" y="-798.84" font-family="Times,serif" font-size="32.00">t</text>
</g>
<!-- z0 -->
<g id="node2" class="node">
<title>z0</title>
<ellipse fill="none" stroke="black" stroke-dasharray="5,2" cx="3127.39" cy="-984.94" rx="27" ry="18"/>
</g>
<!-- da -->
<g id="node3" class="node">
<title>da</title>
<ellipse fill="none" stroke="black" cx="2914.45" cy="-984.94" rx="33.47" ry="30.31"/>
<text text-anchor="middle" x="2914.45" y="-976.84" font-family="Times,serif" font-size="32.00">da</text>
</g>
<!-- z0&#45;&gt;da -->
<g id="edge1" class="edge">
<title>z0&#45;&gt;da</title>
<path fill="none" stroke="#000000" d="M3100.1,-984.94C3064.49,-984.94 3000.51,-984.94 2958,-984.94"/>
<polygon fill="#000000" stroke="#000000" points="2957.96,-981.44 2947.96,-984.94 2957.96,-988.44 2957.96,-981.44"/>
<text text-anchor="middle" x="3024.39" y="-1064.34" font-family="Times,serif" font-size="32.00">Mary |</text>
<text text-anchor="middle" x="3024.39" y="-1029.34" font-family="Times,serif" font-size="32.00"> John</text>
<text text-anchor="middle" x="3024.39" y="-994.34" font-family="Times,serif" font-size="32.00">da &#45;k</text>
</g>
<!-- 0 -->
<g id="node4" class="node">
<title>0</title>
<ellipse fill="none" stroke="black" cx="2914.45" cy="-1112.94" rx="27" ry="30.31"/>
<text text-anchor="middle" x="2914.45" y="-1104.84" font-family="Times,serif" font-size="32.00">0</text>
</g>
<!-- poss -->
<g id="node5" class="node">
<title>poss</title>
<ellipse fill="none" stroke="black" cx="2674.18" cy="-1112.94" rx="52.15" ry="30.31"/>
<text text-anchor="middle" x="2674.18" y="-1104.84" font-family="Times,serif" font-size="32.00">poss</text>
</g>
<!-- 0&#45;&gt;poss -->
<g id="edge2" class="edge">
<title>0&#45;&gt;poss</title>
<path fill="none" stroke="#f7931d" stroke-width="2" d="M2887.04,-1112.94C2851.07,-1112.94 2785.58,-1112.94 2736.9,-1112.94"/>
<polygon fill="#f7931d" stroke="#f7931d" stroke-width="2" points="2736.78,-1109.44 2726.78,-1112.94 2736.78,-1116.44 2736.78,-1109.44"/>
<text text-anchor="middle" x="2803.51" y="-1157.34" font-family="Times,serif" font-size="32.00">&#39;s</text>
<text text-anchor="middle" x="2803.51" y="-1122.34" font-family="Times,serif" font-size="32.00">=&gt;0 poss</text>
</g>
<!-- z1 -->
<g id="node6" class="node">
<title>z1</title>
<ellipse fill="none" stroke="black" stroke-dasharray="5,2" cx="3127.39" cy="-1112.94" rx="27" ry="18"/>
</g>
<!-- z1&#45;&gt;0 -->
<g id="edge3" class="edge">
<title>z1&#45;&gt;0</title>
<path fill="none" stroke="#f7931d" stroke-width="2" d="M3100.1,-1112.94C3062.73,-1112.94 2994.12,-1112.94 2951.87,-1112.94"/>
<polygon fill="#f7931d" stroke="#f7931d" stroke-width="2" points="2951.74,-1109.44 2941.74,-1112.94 2951.74,-1116.44 2951.74,-1109.44"/>
<text text-anchor="middle" x="3024.39" y="-1192.34" font-family="Times,serif" font-size="32.00">Mary_1 |</text>
<text text-anchor="middle" x="3024.39" y="-1157.34" font-family="Times,serif" font-size="32.00"> John_1</text>
<text text-anchor="middle" x="3024.39" y="-1122.34" font-family="Times,serif" font-size="32.00">0</text>
</g>
<!-- z2 -->
<g id="node7" class="node">
<title>z2</title>
<ellipse fill="none" stroke="black" stroke-dasharray="5,2" cx="1927.85" cy="-248.94" rx="27" ry="18"/>
</g>
<!-- d -->
<g id="node8" class="node">
<title>d</title>
<ellipse fill="none" stroke="black" cx="1583.85" cy="-289.94" rx="27" ry="30.31"/>
<text text-anchor="middle" x="1583.85" y="-281.84" font-family="Times,serif" font-size="32.00">d</text>
</g>
<!-- z2&#45;&gt;d -->
<g id="edge4" class="edge">
<title>z2&#45;&gt;d</title>
<path fill="none" stroke="#000000" d="M1902.2,-243.27C1849.75,-232.43 1724.1,-212.93 1628.85,-249.94 1622.26,-252.5 1616.04,-256.56 1610.47,-261.12"/>
<polygon fill="#000000" stroke="#000000" points="1607.87,-258.76 1602.81,-268.07 1612.57,-263.95 1607.87,-258.76"/>
<text text-anchor="middle" x="1725.85" y="-294.34" font-family="Times,serif" font-size="32.00">the&#45;cause</text>
<text text-anchor="middle" x="1725.85" y="-259.34" font-family="Times,serif" font-size="32.00">d &#45;k</text>
</g>
<!-- for -->
<g id="node9" class="node">
<title>for</title>
<ellipse fill="none" stroke="black" cx="1306.34" cy="-424.94" rx="37.45" ry="30.31"/>
<text text-anchor="middle" x="1306.34" y="-416.84" font-family="Times,serif" font-size="32.00">for</text>
</g>
<!-- d&#45;&gt;for -->
<g id="edge5" class="edge">
<title>d&#45;&gt;for</title>
<path fill="none" stroke="#000000" d="M1572.48,-317.78C1565.35,-332.97 1554.35,-350.72 1538.85,-360.94 1481.43,-398.77 1451.23,-362.62 1385.85,-383.94 1372.09,-388.43 1357.83,-395.16 1345.3,-401.88"/>
<polygon fill="#000000" stroke="#000000" points="1343.57,-398.83 1336.51,-406.73 1346.96,-404.96 1343.57,-398.83"/>
<text text-anchor="middle" x="1462.35" y="-428.34" font-family="Times,serif" font-size="32.00">for</text>
<text text-anchor="middle" x="1462.35" y="-393.34" font-family="Times,serif" font-size="32.00">=d *k for</text>
</g>
<!-- of -->
<g id="node10" class="node">
<title>of</title>
<ellipse fill="none" stroke="black" cx="1306.34" cy="-289.94" rx="30.31" ry="30.31"/>
<text text-anchor="middle" x="1306.34" y="-281.84" font-family="Times,serif" font-size="32.00">of</text>
</g>
<!-- d&#45;&gt;of -->
<g id="edge6" class="edge">
<title>d&#45;&gt;of</title>
<path fill="none" stroke="#000000" d="M1556.44,-289.94C1507.87,-289.94 1404.17,-289.94 1347.08,-289.94"/>
<polygon fill="#000000" stroke="#000000" points="1346.98,-286.44 1336.98,-289.94 1346.98,-293.44 1346.98,-286.44"/>
<text text-anchor="middle" x="1462.35" y="-334.34" font-family="Times,serif" font-size="32.00">of</text>
<text text-anchor="middle" x="1462.35" y="-299.34" font-family="Times,serif" font-size="32.00">=d *k of</text>
</g>
<!-- about -->
<g id="node11" class="node">
<title>about</title>
<ellipse fill="none" stroke="black" cx="1306.34" cy="-196.94" rx="61.54" ry="30.31"/>
<text text-anchor="middle" x="1306.34" y="-188.84" font-family="Times,serif" font-size="32.00">about</text>
</g>
<!-- d&#45;&gt;about -->
<g id="edge7" class="edge">
<title>d&#45;&gt;about</title>
<path fill="none" stroke="#000000" d="M1573.51,-261.65C1566.6,-245.44 1555.46,-226.31 1538.85,-215.94 1490.31,-185.63 1424.44,-183.08 1375.38,-186.83"/>
<polygon fill="#000000" stroke="#000000" points="1374.83,-183.37 1365.17,-187.72 1375.44,-190.34 1374.83,-183.37"/>
<text text-anchor="middle" x="1462.35" y="-260.34" font-family="Times,serif" font-size="32.00">about</text>
<text text-anchor="middle" x="1462.35" y="-225.34" font-family="Times,serif" font-size="32.00">=d *k about</text>
</g>
<!-- 5 -->
<g id="node20" class="node">
<title>5</title>
<ellipse fill="none" stroke="black" cx="2310.35" cy="-611.94" rx="27" ry="30.31"/>
<text text-anchor="middle" x="2310.35" y="-603.84" font-family="Times,serif" font-size="32.00">5</text>
</g>
<!-- for&#45;&gt;5 -->
<g id="edge20" class="edge">
<title>for&#45;&gt;5</title>
<path fill="none" stroke="#000000" d="M1340.1,-438.73C1354.01,-444.13 1370.52,-449.98 1385.85,-453.94 1742.82,-546.05 1846.91,-494.91 2205.85,-578.94 2229.26,-584.42 2255.02,-592.62 2274.98,-599.48"/>
<polygon fill="#000000" stroke="#000000" points="2273.97,-602.83 2284.57,-602.82 2276.28,-596.22 2273.97,-602.83"/>
<text text-anchor="middle" x="1725.85" y="-566.34" font-family="Times,serif" font-size="32.00">hope</text>
<text text-anchor="middle" x="1725.85" y="-531.34" font-family="Times,serif" font-size="32.00">=for 5</text>
</g>
<!-- 1 -->
<g id="node12" class="node">
<title>1</title>
<ellipse fill="none" stroke="black" cx="229" cy="-806.94" rx="27" ry="30.31"/>
<text text-anchor="middle" x="229" y="-798.84" font-family="Times,serif" font-size="32.00">1</text>
</g>
<!-- 1&#45;&gt;t -->
<g id="edge8" class="edge">
<title>1&#45;&gt;t</title>
<path fill="none" stroke="#000000" d="M201.85,-806.94C166.67,-806.94 103.92,-806.94 64.21,-806.94"/>
<polygon fill="#000000" stroke="#000000" points="64.15,-803.44 54.15,-806.94 64.15,-810.44 64.15,-803.44"/>
<text text-anchor="middle" x="128" y="-886.34" font-family="Times,serif" font-size="32.00">s |</text>
<text text-anchor="middle" x="128" y="-851.34" font-family="Times,serif" font-size="32.00"> d</text>
<text text-anchor="middle" x="128" y="-816.34" font-family="Times,serif" font-size="32.00">=&gt;1 +k t</text>
</g>
<!-- 2 -->
<g id="node13" class="node">
<title>2</title>
<ellipse fill="none" stroke="black" cx="1583.85" cy="-807.94" rx="27" ry="30.31"/>
<text text-anchor="middle" x="1583.85" y="-799.84" font-family="Times,serif" font-size="32.00">2</text>
</g>
<!-- 3 -->
<g id="node14" class="node">
<title>3</title>
<ellipse fill="none" stroke="black" cx="1306.34" cy="-807.94" rx="27" ry="30.31"/>
<text text-anchor="middle" x="1306.34" y="-799.84" font-family="Times,serif" font-size="32.00">3</text>
</g>
<!-- 2&#45;&gt;3 -->
<g id="edge9" class="edge">
<title>2&#45;&gt;3</title>
<path fill="none" stroke="#000000" d="M1556.44,-807.94C1506.96,-807.94 1400.26,-807.94 1343.91,-807.94"/>
<polygon fill="#000000" stroke="#000000" points="1343.67,-804.44 1333.67,-807.94 1343.67,-811.44 1343.67,-804.44"/>
<text text-anchor="middle" x="1462.35" y="-852.34" font-family="Times,serif" font-size="32.00">ε_0</text>
<text text-anchor="middle" x="1462.35" y="-817.34" font-family="Times,serif" font-size="32.00">=&gt;2 =da 3</text>
</g>
<!-- 4 -->
<g id="node16" class="node">
<title>4</title>
<ellipse fill="none" stroke="black" cx="823.17" cy="-806.94" rx="27" ry="30.31"/>
<text text-anchor="middle" x="823.17" y="-798.84" font-family="Times,serif" font-size="32.00">4</text>
</g>
<!-- 3&#45;&gt;4 -->
<g id="edge12" class="edge">
<title>3&#45;&gt;4</title>
<path fill="none" stroke="#000000" d="M1281.17,-818.99C1265.93,-825.34 1245.64,-832.68 1226.82,-835.94 1069.75,-863.11 1020.85,-881.73 868.17,-835.94 863.38,-834.5 858.63,-832.36 854.13,-829.87"/>
<polygon fill="#000000" stroke="#000000" points="855.63,-826.69 845.28,-824.42 851.95,-832.65 855.63,-826.69"/>
<text text-anchor="middle" x="1038.49" y="-908.34" font-family="Times,serif" font-size="32.00">ε_1</text>
<text text-anchor="middle" x="1038.49" y="-873.34" font-family="Times,serif" font-size="32.00">=&gt;3 4</text>
</g>
<!-- prog -->
<g id="node18" class="node">
<title>prog</title>
<ellipse fill="none" stroke="black" cx="1038.49" cy="-764.94" rx="52.15" ry="30.31"/>
<text text-anchor="middle" x="1038.49" y="-756.84" font-family="Times,serif" font-size="32.00">prog</text>
</g>
<!-- 3&#45;&gt;prog -->
<g id="edge13" class="edge">
<title>3&#45;&gt;prog</title>
<path fill="none" stroke="#000000" d="M1282.85,-792.1C1267.78,-782.47 1247.05,-771.07 1226.82,-765.94 1185.47,-755.46 1137.31,-755.45 1100.18,-757.94"/>
<polygon fill="#000000" stroke="#000000" points="1099.73,-754.47 1090.02,-758.7 1100.25,-761.45 1099.73,-754.47"/>
<text text-anchor="middle" x="1167.82" y="-810.34" font-family="Times,serif" font-size="32.00">ing</text>
<text text-anchor="middle" x="1167.82" y="-775.34" font-family="Times,serif" font-size="32.00">=&gt;3 prog</text>
</g>
<!-- a -->
<g id="node15" class="node">
<title>a</title>
<ellipse fill="none" stroke="black" cx="1927.85" cy="-807.94" rx="27" ry="30.31"/>
<text text-anchor="middle" x="1927.85" y="-799.84" font-family="Times,serif" font-size="32.00">a</text>
</g>
<!-- a&#45;&gt;2 -->
<g id="edge10" class="edge">
<title>a&#45;&gt;2</title>
<path fill="none" stroke="#000000" d="M1900.59,-807.94C1840.03,-807.94 1690.55,-807.94 1621.23,-807.94"/>
<polygon fill="#000000" stroke="#000000" points="1621.21,-804.44 1611.21,-807.94 1621.21,-811.44 1621.21,-804.44"/>
<text text-anchor="middle" x="1725.85" y="-852.34" font-family="Times,serif" font-size="32.00">be</text>
<text text-anchor="middle" x="1725.85" y="-817.34" font-family="Times,serif" font-size="32.00">=a 2</text>
</g>
<!-- perf -->
<g id="node17" class="node">
<title>perf</title>
<ellipse fill="none" stroke="black" cx="600.08" cy="-764.94" rx="48.17" ry="30.31"/>
<text text-anchor="middle" x="600.08" y="-756.84" font-family="Times,serif" font-size="32.00">perf</text>
</g>
<!-- 4&#45;&gt;perf -->
<g id="edge11" class="edge">
<title>4&#45;&gt;perf</title>
<path fill="none" stroke="#000000" d="M804.3,-784.54C797.06,-777.17 788.07,-769.87 778.17,-765.94 739.68,-750.66 692.66,-751.18 656.75,-755.11"/>
<polygon fill="#000000" stroke="#000000" points="655.97,-751.68 646.46,-756.36 656.81,-758.63 655.97,-751.68"/>
<text text-anchor="middle" x="722.17" y="-810.34" font-family="Times,serif" font-size="32.00">n</text>
<text text-anchor="middle" x="722.17" y="-775.34" font-family="Times,serif" font-size="32.00">=&gt;4 perf</text>
</g>
<!-- v -->
<g id="node19" class="node">
<title>v</title>
<ellipse fill="none" stroke="black" cx="395" cy="-806.94" rx="27" ry="30.31"/>
<text text-anchor="middle" x="395" y="-798.84" font-family="Times,serif" font-size="32.00">v</text>
</g>
<!-- 4&#45;&gt;v -->
<g id="edge18" class="edge">
<title>4&#45;&gt;v</title>
<path fill="none" stroke="#000000" d="M801.06,-824.42C794.18,-829.09 786.23,-833.52 778.17,-835.94 634.21,-879.11 583.96,-879.11 440,-835.94 435.21,-834.5 430.47,-832.36 425.96,-829.87"/>
<polygon fill="#000000" stroke="#000000" points="427.46,-826.69 417.11,-824.42 423.78,-832.65 427.46,-826.69"/>
<text text-anchor="middle" x="600.08" y="-913.34" font-family="Times,serif" font-size="32.00">ε_3</text>
<text text-anchor="middle" x="600.08" y="-878.34" font-family="Times,serif" font-size="32.00">=&gt;4 v</text>
</g>
<!-- perf&#45;&gt;v -->
<g id="edge15" class="edge">
<title>perf&#45;&gt;v</title>
<path fill="none" stroke="#000000" d="M553.53,-756.66C520.77,-752.71 476.19,-751.56 440,-765.94 433.35,-768.58 427.11,-772.75 421.53,-777.43"/>
<polygon fill="#000000" stroke="#000000" points="418.81,-775.18 413.87,-784.55 423.58,-780.31 418.81,-775.18"/>
<text text-anchor="middle" x="487" y="-810.34" font-family="Times,serif" font-size="32.00">have</text>
<text text-anchor="middle" x="487" y="-775.34" font-family="Times,serif" font-size="32.00">=perf v</text>
</g>
<!-- prog&#45;&gt;4 -->
<g id="edge17" class="edge">
<title>prog&#45;&gt;4</title>
<path fill="none" stroke="#000000" d="M988.26,-756.01C953.47,-751.87 906.42,-750.75 868.17,-765.94 861.52,-768.58 855.27,-772.74 849.7,-777.43"/>
<polygon fill="#000000" stroke="#000000" points="846.98,-775.18 842.03,-784.54 851.74,-780.3 846.98,-775.18"/>
<text text-anchor="middle" x="918.17" y="-810.34" font-family="Times,serif" font-size="32.00">be_1</text>
<text text-anchor="middle" x="918.17" y="-775.34" font-family="Times,serif" font-size="32.00">=prog 4</text>
</g>
<!-- v&#45;&gt;1 -->
<g id="edge14" class="edge">
<title>v&#45;&gt;1</title>
<path fill="none" stroke="#000000" d="M371.68,-822.55C365.01,-826.39 357.47,-829.96 350,-831.94 317.34,-840.57 306.66,-840.57 274,-831.94 269.8,-830.83 265.57,-829.21 261.49,-827.33"/>
<polygon fill="#000000" stroke="#000000" points="262.81,-824.06 252.32,-822.55 259.58,-830.27 262.81,-824.06"/>
<text text-anchor="middle" x="312" y="-883.34" font-family="Times,serif" font-size="32.00">will</text>
<text text-anchor="middle" x="312" y="-848.34" font-family="Times,serif" font-size="32.00">=v 1</text>
</g>
<!-- v&#45;&gt;1 -->
<g id="edge16" class="edge">
<title>v&#45;&gt;1</title>
<path fill="none" stroke="#000000" d="M378.8,-782.56C371.4,-773.01 361.59,-763.11 350,-757.94 319.15,-744.18 304.85,-744.18 274,-757.94 265.67,-761.65 258.26,-767.81 252,-774.53"/>
<polygon fill="#000000" stroke="#000000" points="248.99,-772.67 245.2,-782.56 254.33,-777.19 248.99,-772.67"/>
<text text-anchor="middle" x="312" y="-802.34" font-family="Times,serif" font-size="32.00">ε_2</text>
<text text-anchor="middle" x="312" y="-767.34" font-family="Times,serif" font-size="32.00">=&gt;v 1</text>
</g>
<!-- 5&#45;&gt;2 -->
<g id="edge19" class="edge">
<title>5&#45;&gt;2</title>
<path fill="none" stroke="#000000" d="M2283.81,-604.97C2234.58,-592.65 2123.42,-570.16 2032.85,-590.94 1864.43,-629.58 1685.81,-740.24 1615.66,-786.84"/>
<polygon fill="#000000" stroke="#000000" points="1613.63,-783.99 1607.26,-792.46 1617.52,-789.81 1613.63,-783.99"/>
<text text-anchor="middle" x="1927.85" y="-704.34" font-family="Times,serif" font-size="32.00">ε_4</text>
<text text-anchor="middle" x="1927.85" y="-669.34" font-family="Times,serif" font-size="32.00">=&gt;5 2</text>
</g>
<!-- 5&#45;&gt;a -->
<g id="edge23" class="edge">
<title>5&#45;&gt;a</title>
<path fill="none" stroke="#000000" d="M2288.43,-630.34C2268.62,-646.62 2237.31,-669.5 2205.85,-680.94 2133.16,-707.37 2102.27,-665.82 2032.85,-699.94 1998.43,-716.86 1969.18,-750.08 1950.55,-775.23"/>
<polygon fill="#000000" stroke="#000000" points="1947.66,-773.26 1944.65,-783.41 1953.34,-777.35 1947.66,-773.26"/>
<text text-anchor="middle" x="2119.35" y="-744.34" font-family="Times,serif" font-size="32.00">ful</text>
<text text-anchor="middle" x="2119.35" y="-709.34" font-family="Times,serif" font-size="32.00">=&gt;5 a</text>
</g>
<!-- 6 -->
<g id="node21" class="node">
<title>6</title>
<ellipse fill="none" stroke="black" cx="1927.85" cy="-341.94" rx="27" ry="30.31"/>
<text text-anchor="middle" x="1927.85" y="-333.84" font-family="Times,serif" font-size="32.00">6</text>
</g>
<!-- 5&#45;&gt;6 -->
<g id="edge22" class="edge">
<title>5&#45;&gt;6</title>
<path fill="none" stroke="#000000" d="M2283.59,-605.4C2264.12,-599.09 2238.35,-587.53 2223.85,-567.94 2197,-531.63 2236.54,-501.07 2205.85,-467.94 2151.86,-409.66 2104.11,-458.07 2032.85,-422.94 2017.02,-415.13 1982.49,-387.31 1957.56,-366.43"/>
<polygon fill="#000000" stroke="#000000" points="1959.74,-363.7 1949.83,-359.94 1955.23,-369.05 1959.74,-363.7"/>
<text text-anchor="middle" x="2119.35" y="-512.34" font-family="Times,serif" font-size="32.00">ε_6</text>
<text text-anchor="middle" x="2119.35" y="-477.34" font-family="Times,serif" font-size="32.00">=&gt;5 6</text>
</g>
<!-- 6&#45;&gt;d -->
<g id="edge21" class="edge">
<title>6&#45;&gt;d</title>
<path fill="none" stroke="#000000" d="M1900.83,-344.44C1847.9,-348.58 1724.6,-353.38 1628.85,-319.94 1623.96,-318.23 1619.1,-315.83 1614.49,-313.12"/>
<polygon fill="#000000" stroke="#000000" points="1616.3,-310.13 1606,-307.65 1612.51,-316.01 1616.3,-310.13"/>
<text text-anchor="middle" x="1725.85" y="-392.34" font-family="Times,serif" font-size="32.00">ε_5</text>
<text text-anchor="middle" x="1725.85" y="-357.34" font-family="Times,serif" font-size="32.00">=&gt;6 poss= d &#45;k</text>
</g>
<!-- 7 -->
<g id="node22" class="node">
<title>7</title>
<ellipse fill="none" stroke="black" cx="2310.35" cy="-905.94" rx="27" ry="30.31"/>
<text text-anchor="middle" x="2310.35" y="-897.84" font-family="Times,serif" font-size="32.00">7</text>
</g>
<!-- 7&#45;&gt;2 -->
<g id="edge24" class="edge">
<title>7&#45;&gt;2</title>
<path fill="none" stroke="#000000" d="M2283.81,-913.1C2188.92,-938.16 1850.83,-1013.44 1628.85,-881.94 1615.17,-873.83 1605.26,-859.67 1598.35,-845.9"/>
<polygon fill="#000000" stroke="#000000" points="1601.39,-844.13 1594.03,-836.5 1595.02,-847.05 1601.39,-844.13"/>
<text text-anchor="middle" x="1927.85" y="-1002.34" font-family="Times,serif" font-size="32.00">ε_7</text>
<text text-anchor="middle" x="1927.85" y="-967.34" font-family="Times,serif" font-size="32.00">=&gt;7 2</text>
</g>
<!-- 7&#45;&gt;6 -->
<g id="edge27" class="edge">
<title>7&#45;&gt;6</title>
<path fill="none" stroke="#000000" d="M2291.9,-883.3C2271.82,-855.95 2239.6,-807.75 2223.85,-760.94 2212.87,-728.28 2227.09,-634.07 2205.85,-606.94 2155.24,-542.25 2084.15,-606.09 2032.85,-541.94 1996.43,-496.38 2043.46,-462.77 2014.85,-411.94 2002.47,-389.92 1980.18,-372.09 1961.4,-359.93"/>
<polygon fill="#000000" stroke="#000000" points="1963.14,-356.88 1952.8,-354.58 1959.45,-362.83 1963.14,-356.88"/>
<text text-anchor="middle" x="2119.35" y="-651.34" font-family="Times,serif" font-size="32.00">ε_9</text>
<text text-anchor="middle" x="2119.35" y="-616.34" font-family="Times,serif" font-size="32.00">=&gt;7 6</text>
</g>
<!-- 8 -->
<g id="node23" class="node">
<title>8</title>
<ellipse fill="none" stroke="black" cx="2674.18" cy="-918.94" rx="27" ry="30.31"/>
<text text-anchor="middle" x="2674.18" y="-910.84" font-family="Times,serif" font-size="32.00">8</text>
</g>
<!-- 8&#45;&gt;2 -->
<g id="edge30" class="edge">
<title>8&#45;&gt;2</title>
<path fill="none" stroke="#000000" d="M2660.42,-945.32C2648.67,-966.78 2629.23,-996.17 2603.85,-1012.94 2524.98,-1065.06 2490.76,-1050.97 2396.85,-1061.94 2151.05,-1090.63 2079.67,-1096.8 1840.85,-1031.94 1739.76,-1004.48 1699,-1006.74 1628.85,-928.94 1608.44,-906.29 1597.29,-873.43 1591.33,-847.67"/>
<polygon fill="#000000" stroke="#000000" points="1594.73,-846.87 1589.22,-837.82 1587.89,-848.33 1594.73,-846.87"/>
<text text-anchor="middle" x="2119.35" y="-1127.34" font-family="Times,serif" font-size="32.00">ε_11</text>
<text text-anchor="middle" x="2119.35" y="-1092.34" font-family="Times,serif" font-size="32.00">=&gt;8 =about 2</text>
</g>
<!-- 8&#45;&gt;a -->
<g id="edge32" class="edge">
<title>8&#45;&gt;a</title>
<path fill="none" stroke="#000000" d="M2657.59,-942.99C2645.26,-959.63 2626.4,-980.44 2603.85,-989.94 2526.44,-1022.55 2498.29,-999.63 2414.85,-989.94 2241.08,-969.74 2188.33,-975.16 2032.85,-894.94 2003.36,-879.72 1974.81,-854.88 1955.11,-835.62"/>
<polygon fill="#000000" stroke="#000000" points="1957.56,-833.13 1948.01,-828.55 1952.62,-838.09 1957.56,-833.13"/>
<text text-anchor="middle" x="2310.35" y="-1032.34" font-family="Times,serif" font-size="32.00">ful_2</text>
<text text-anchor="middle" x="2310.35" y="-997.34" font-family="Times,serif" font-size="32.00">=&gt;8 =about a</text>
</g>
<!-- 8&#45;&gt;6 -->
<g id="edge31" class="edge">
<title>8&#45;&gt;6</title>
<path fill="none" stroke="#000000" d="M2670.39,-888.59C2663.46,-820.19 2643.11,-657.12 2603.85,-620.94 2541.41,-563.39 2476.39,-651.45 2414.85,-592.94 2385.29,-564.83 2425.59,-531.89 2396.85,-502.94 2341.54,-447.19 2284.23,-517.16 2223.85,-466.94 2207.61,-453.43 2221.55,-437.08 2205.85,-422.94 2137,-360.89 2023.02,-346.22 1965.08,-342.85"/>
<polygon fill="#000000" stroke="#000000" points="1965.1,-339.35 1954.94,-342.35 1964.75,-346.34 1965.1,-339.35"/>
<text text-anchor="middle" x="2310.35" y="-547.34" font-family="Times,serif" font-size="32.00">ε_12</text>
<text text-anchor="middle" x="2310.35" y="-512.34" font-family="Times,serif" font-size="32.00">=&gt;8 =about 6</text>
</g>
<!-- 8&#45;&gt;7 -->
<g id="edge25" class="edge">
<title>8&#45;&gt;7</title>
<path fill="none" stroke="#000000" d="M2647.16,-918C2583.68,-915.72 2420.76,-909.87 2347.73,-907.24"/>
<polygon fill="#000000" stroke="#000000" points="2347.75,-903.74 2337.63,-906.88 2347.49,-910.74 2347.75,-903.74"/>
<text text-anchor="middle" x="2509.35" y="-961.34" font-family="Times,serif" font-size="32.00">ε_8</text>
<text text-anchor="middle" x="2509.35" y="-926.34" font-family="Times,serif" font-size="32.00">=&gt;8 =of 7</text>
</g>
<!-- 9 -->
<g id="node25" class="node">
<title>9</title>
<ellipse fill="none" stroke="black" cx="2310.35" cy="-721.94" rx="27" ry="30.31"/>
<text text-anchor="middle" x="2310.35" y="-713.84" font-family="Times,serif" font-size="32.00">9</text>
</g>
<!-- 8&#45;&gt;9 -->
<g id="edge29" class="edge">
<title>8&#45;&gt;9</title>
<path fill="none" stroke="#000000" d="M2671.64,-888.57C2667.66,-846.04 2653.59,-769.94 2603.85,-733.94 2563.91,-705.02 2416.48,-713.05 2347.45,-718.62"/>
<polygon fill="#000000" stroke="#000000" points="2347.13,-715.14 2337.46,-719.46 2347.72,-722.11 2347.13,-715.14"/>
<text text-anchor="middle" x="2509.35" y="-778.34" font-family="Times,serif" font-size="32.00">ε_10</text>
<text text-anchor="middle" x="2509.35" y="-743.34" font-family="Times,serif" font-size="32.00">=&gt;8 9</text>
</g>
<!-- z3 -->
<g id="node24" class="node">
<title>z3</title>
<ellipse fill="none" stroke="black" stroke-dasharray="5,2" cx="2914.45" cy="-918.94" rx="27" ry="18"/>
</g>
<!-- z3&#45;&gt;8 -->
<g id="edge26" class="edge">
<title>z3&#45;&gt;8</title>
<path fill="none" stroke="#000000" d="M2887.04,-918.94C2844.26,-918.94 2759.72,-918.94 2711.37,-918.94"/>
<polygon fill="#000000" stroke="#000000" points="2711.35,-915.44 2701.35,-918.94 2711.35,-922.44 2711.35,-915.44"/>
<text text-anchor="middle" x="2803.51" y="-963.34" font-family="Times,serif" font-size="32.00">boast</text>
<text text-anchor="middle" x="2803.51" y="-928.34" font-family="Times,serif" font-size="32.00">8</text>
</g>
<!-- 9&#45;&gt;a -->
<g id="edge28" class="edge">
<title>9&#45;&gt;a</title>
<path fill="none" stroke="#000000" d="M2286.47,-736.33C2266.11,-748.41 2235.11,-765.08 2205.85,-773.94 2183.3,-780.76 2035.1,-796.84 1965.21,-804.18"/>
<polygon fill="#000000" stroke="#000000" points="1964.68,-800.71 1955.1,-805.23 1965.41,-807.68 1964.68,-800.71"/>
<text text-anchor="middle" x="2119.35" y="-841.34" font-family="Times,serif" font-size="32.00">ful_1</text>
<text text-anchor="middle" x="2119.35" y="-806.34" font-family="Times,serif" font-size="32.00">=&gt;9 =of a</text>
</g>
<!-- 10 -->
<g id="node26" class="node">
<title>10</title>
<ellipse fill="none" stroke="black" cx="2310.35" cy="-427.94" rx="33.88" ry="30.31"/>
<text text-anchor="middle" x="2310.35" y="-419.84" font-family="Times,serif" font-size="32.00">10</text>
</g>
<!-- 10&#45;&gt;2 -->
<g id="edge33" class="edge">
<title>10&#45;&gt;2</title>
<path fill="none" stroke="#000000" d="M2276.11,-427.16C2223.71,-426.63 2119,-428.47 2032.85,-447.94 1943.5,-468.14 1918.98,-475.09 1840.85,-522.94 1831.73,-528.53 1831.36,-532.43 1822.85,-538.94 1741.01,-601.56 1690.88,-583.64 1628.85,-665.94 1606.41,-695.71 1595.29,-737.1 1589.85,-767.52"/>
<polygon fill="#000000" stroke="#000000" points="1586.34,-767.35 1588.16,-777.78 1593.24,-768.49 1586.34,-767.35"/>
<text text-anchor="middle" x="1927.85" y="-567.34" font-family="Times,serif" font-size="32.00">ε_13</text>
<text text-anchor="middle" x="1927.85" y="-532.34" font-family="Times,serif" font-size="32.00">=&gt;10 =d *k 2</text>
</g>
<!-- z4 -->
<g id="node27" class="node">
<title>z4</title>
<ellipse fill="none" stroke="black" stroke-dasharray="5,2" cx="2914.45" cy="-585.94" rx="27" ry="18"/>
</g>
<!-- 11 -->
<g id="node28" class="node">
<title>11</title>
<ellipse fill="none" stroke="black" cx="2674.18" cy="-521.94" rx="33.88" ry="30.31"/>
<text text-anchor="middle" x="2674.18" y="-513.84" font-family="Times,serif" font-size="32.00">11</text>
</g>
<!-- z4&#45;&gt;11 -->
<g id="edge34" class="edge">
<title>z4&#45;&gt;11</title>
<path fill="none" stroke="#000000" d="M2887.21,-585.84C2853.32,-584.98 2792.94,-580.91 2744.51,-563.94 2732.47,-559.72 2720.27,-553.22 2709.53,-546.59"/>
<polygon fill="#000000" stroke="#000000" points="2711.19,-543.5 2700.88,-541.04 2707.4,-549.39 2711.19,-543.5"/>
<text text-anchor="middle" x="2803.51" y="-699.34" font-family="Times,serif" font-size="32.00">fear |</text>
<text text-anchor="middle" x="2803.51" y="-664.34" font-family="Times,serif" font-size="32.00"> neglect |</text>
<text text-anchor="middle" x="2803.51" y="-629.34" font-family="Times,serif" font-size="32.00"> scorn</text>
<text text-anchor="middle" x="2803.51" y="-594.34" font-family="Times,serif" font-size="32.00">11</text>
</g>
<!-- 11&#45;&gt;6 -->
<g id="edge35" class="edge">
<title>11&#45;&gt;6</title>
<path fill="none" stroke="#000000" d="M2662.75,-493.03C2652.16,-463.46 2635.44,-416.14 2621.85,-374.94 2613.41,-349.3 2625.59,-332.95 2603.85,-316.94 2552.32,-278.97 2097.69,-323.95 1965.04,-338.01"/>
<polygon fill="#000000" stroke="#000000" points="1964.56,-334.54 1954.99,-339.08 1965.3,-341.5 1964.56,-334.54"/>
<text text-anchor="middle" x="2310.35" y="-358.34" font-family="Times,serif" font-size="32.00">ε_14</text>
<text text-anchor="middle" x="2310.35" y="-323.34" font-family="Times,serif" font-size="32.00">=&gt;11 =of 6</text>
</g>
<!-- 11&#45;&gt;9 -->
<g id="edge37" class="edge">
<title>11&#45;&gt;9</title>
<path fill="none" stroke="#000000" d="M2655.8,-547.61C2643.26,-564.15 2624.89,-584.78 2603.85,-596.94 2529.28,-640.06 2492.54,-602.71 2414.85,-639.94 2398.91,-647.58 2364.58,-675.8 2339.83,-697.01"/>
<polygon fill="#000000" stroke="#000000" points="2337.45,-694.44 2332.16,-703.62 2342.02,-699.74 2337.45,-694.44"/>
<text text-anchor="middle" x="2509.35" y="-684.34" font-family="Times,serif" font-size="32.00">ε_16</text>
<text text-anchor="middle" x="2509.35" y="-649.34" font-family="Times,serif" font-size="32.00">=&gt;11 9</text>
</g>
<!-- 11&#45;&gt;10 -->
<g id="edge36" class="edge">
<title>11&#45;&gt;10</title>
<path fill="none" stroke="#000000" d="M2640.23,-522.67C2579.33,-523.47 2451.96,-522.29 2414.85,-499.94 2402.18,-492.3 2407.81,-481.88 2396.85,-471.94 2383.76,-460.04 2366.85,-450.45 2351.53,-443.3"/>
<polygon fill="#000000" stroke="#000000" points="2352.8,-440.04 2342.24,-439.16 2349.95,-446.43 2352.8,-440.04"/>
<text text-anchor="middle" x="2509.35" y="-567.34" font-family="Times,serif" font-size="32.00">ε_15</text>
<text text-anchor="middle" x="2509.35" y="-532.34" font-family="Times,serif" font-size="32.00">=&gt;11 10</text>
</g>
<!-- z5 -->
<g id="node29" class="node">
<title>z5</title>
<ellipse fill="none" stroke="black" stroke-dasharray="5,2" cx="2914.45" cy="-335.94" rx="27" ry="18"/>
</g>
<!-- 12 -->
<g id="node30" class="node">
<title>12</title>
<ellipse fill="none" stroke="black" cx="2674.18" cy="-335.94" rx="33.88" ry="30.31"/>
<text text-anchor="middle" x="2674.18" y="-327.84" font-family="Times,serif" font-size="32.00">12</text>
</g>
<!-- z5&#45;&gt;12 -->
<g id="edge38" class="edge">
<title>z5&#45;&gt;12</title>
<path fill="none" stroke="#000000" d="M2887.04,-335.94C2846.2,-335.94 2767.33,-335.94 2718.19,-335.94"/>
<polygon fill="#000000" stroke="#000000" points="2718.18,-332.44 2708.18,-335.94 2718.18,-339.44 2718.18,-332.44"/>
<text text-anchor="middle" x="2803.51" y="-415.34" font-family="Times,serif" font-size="32.00">respect |</text>
<text text-anchor="middle" x="2803.51" y="-380.34" font-family="Times,serif" font-size="32.00"> disdain</text>
<text text-anchor="middle" x="2803.51" y="-345.34" font-family="Times,serif" font-size="32.00">12</text>
</g>
<!-- 12&#45;&gt;6 -->
<g id="edge39" class="edge">
<title>12&#45;&gt;6</title>
<path fill="none" stroke="#000000" d="M2647.85,-316.37C2635.13,-307.19 2619.21,-296.6 2603.85,-288.94 2450.14,-212.19 2392.45,-184.84 2223.85,-217.94 2123.06,-237.73 2013.97,-293.62 1961.16,-323.13"/>
<polygon fill="#000000" stroke="#000000" points="1959.25,-320.19 1952.27,-328.15 1962.69,-326.29 1959.25,-320.19"/>
<text text-anchor="middle" x="2310.35" y="-262.34" font-family="Times,serif" font-size="32.00">ε_17</text>
<text text-anchor="middle" x="2310.35" y="-227.34" font-family="Times,serif" font-size="32.00">=&gt;12 =for 6</text>
</g>
<!-- 12&#45;&gt;9 -->
<g id="edge41" class="edge">
<title>12&#45;&gt;9</title>
<path fill="none" stroke="#000000" d="M2655.4,-361.77C2642.94,-377.65 2624.81,-396.85 2603.85,-406.94 2565.82,-425.25 2444.4,-395.79 2414.85,-425.94 2379.75,-461.77 2419.96,-606.42 2396.85,-650.94 2385.11,-673.56 2362.73,-691.73 2343.81,-704.03"/>
<polygon fill="#000000" stroke="#000000" points="2341.78,-701.18 2335.13,-709.43 2345.47,-707.12 2341.78,-701.18"/>
<text text-anchor="middle" x="2509.35" y="-470.34" font-family="Times,serif" font-size="32.00">ε_19</text>
<text text-anchor="middle" x="2509.35" y="-435.34" font-family="Times,serif" font-size="32.00">=&gt;12 9</text>
</g>
<!-- 12&#45;&gt;10 -->
<g id="edge40" class="edge">
<title>12&#45;&gt;10</title>
<path fill="none" stroke="#000000" d="M2642.04,-325.73C2589.89,-310.71 2483.86,-289.27 2414.85,-336.94 2396.45,-349.65 2411.78,-367.28 2396.85,-383.94 2384.86,-397.32 2367.83,-407.23 2352.13,-414.22"/>
<polygon fill="#000000" stroke="#000000" points="2350.46,-411.12 2342.58,-418.2 2353.15,-417.58 2350.46,-411.12"/>
<text text-anchor="middle" x="2509.35" y="-381.34" font-family="Times,serif" font-size="32.00">ε_18</text>
<text text-anchor="middle" x="2509.35" y="-346.34" font-family="Times,serif" font-size="32.00">=&gt;12 10</text>
</g>
<!-- z6 -->
<g id="node31" class="node">
<title>z6</title>
<ellipse fill="none" stroke="black" stroke-dasharray="5,2" cx="3127.39" cy="-492.94" rx="27" ry="18"/>
</g>
<!-- 13 -->
<g id="node32" class="node">
<title>13</title>
<ellipse fill="none" stroke="black" cx="2914.45" cy="-492.94" rx="33.88" ry="30.31"/>
<text text-anchor="middle" x="2914.45" y="-484.84" font-family="Times,serif" font-size="32.00">13</text>
</g>
<!-- z6&#45;&gt;13 -->
<g id="edge42" class="edge">
<title>z6&#45;&gt;13</title>
<path fill="none" stroke="#000000" d="M3100.1,-492.94C3064.7,-492.94 3001.24,-492.94 2958.74,-492.94"/>
<polygon fill="#000000" stroke="#000000" points="2958.68,-489.44 2948.68,-492.94 2958.68,-496.44 2958.68,-489.44"/>
<text text-anchor="middle" x="3024.39" y="-537.34" font-family="Times,serif" font-size="32.00">doubt</text>
<text text-anchor="middle" x="3024.39" y="-502.34" font-family="Times,serif" font-size="32.00">13</text>
</g>
<!-- 13&#45;&gt;a -->
<g id="edge45" class="edge">
<title>13&#45;&gt;a</title>
<path fill="none" stroke="#000000" d="M2897.55,-519.34C2891.22,-531.07 2884.49,-545.29 2880.51,-558.94 2869.85,-595.4 2886.89,-699.81 2862.51,-728.94 2785.67,-820.71 2720.67,-777.86 2603.85,-803.94 2582.01,-808.81 2228.17,-865.18 2205.85,-866.94 2129.2,-872.97 2107.2,-886.56 2032.85,-866.94 2005.93,-859.83 1978.66,-843.97 1958.81,-830.48"/>
<polygon fill="#000000" stroke="#000000" points="1960.71,-827.54 1950.51,-824.69 1956.7,-833.28 1960.71,-827.54"/>
<text text-anchor="middle" x="2509.35" y="-879.34" font-family="Times,serif" font-size="32.00">ful_3</text>
<text text-anchor="middle" x="2509.35" y="-844.34" font-family="Times,serif" font-size="32.00">=&gt;13 =about a</text>
</g>
<!-- 13&#45;&gt;6 -->
<g id="edge44" class="edge">
<title>13&#45;&gt;6</title>
<path fill="none" stroke="#000000" d="M2909.53,-462.57C2903.88,-428.22 2890.83,-371.87 2862.51,-331.94 2779.38,-214.72 2740.18,-183.38 2603.85,-137.94 2360.69,-56.88 2222.67,-46.69 2032.85,-218.94 2013.18,-236.79 2030.1,-254.18 2014.85,-275.94 2000.94,-295.81 1979.23,-312.4 1961.11,-323.98"/>
<polygon fill="#000000" stroke="#000000" points="1959.22,-321.03 1952.55,-329.25 1962.9,-326.99 1959.22,-321.03"/>
<text text-anchor="middle" x="2509.35" y="-182.34" font-family="Times,serif" font-size="32.00">ε_21</text>
<text text-anchor="middle" x="2509.35" y="-147.34" font-family="Times,serif" font-size="32.00">=&gt;13 =about 6</text>
</g>
<!-- 13&#45;&gt;11 -->
<g id="edge43" class="edge">
<title>13&#45;&gt;11</title>
<path fill="none" stroke="#000000" d="M2880.7,-489.52C2846.39,-486.78 2791.12,-484.74 2744.51,-493.94 2734.19,-495.97 2723.46,-499.52 2713.62,-503.43"/>
<polygon fill="#000000" stroke="#000000" points="2711.99,-500.32 2704.11,-507.41 2714.69,-506.77 2711.99,-500.32"/>
<text text-anchor="middle" x="2803.51" y="-538.34" font-family="Times,serif" font-size="32.00">ε_20</text>
<text text-anchor="middle" x="2803.51" y="-503.34" font-family="Times,serif" font-size="32.00">=&gt;13 11</text>
</g>
</g>
</svg>
