<?xml version="1.0" encoding="UTF-8" standalone="no"?>
<!DOCTYPE svg PUBLIC "-//W3C//DTD SVG 1.1//EN"
 "http://www.w3.org/Graphics/SVG/1.1/DTD/svg11.dtd">
<!-- Generated by graphviz version 2.47.1 (20210417.1919)
 -->
<!-- Title: G Pages: 1 -->
<svg width="3356pt" height="1221pt"
 viewBox="0.00 0.00 3356.39 1221.34" xmlns="http://www.w3.org/2000/svg" xmlns:xlink="http://www.w3.org/1999/xlink">
<g id="graph0" class="graph" transform="scale(1 1) rotate(0) translate(4 1217.34)">
<title>G</title>
<polygon fill="white" stroke="transparent" points="-4,4 -4,-1217.34 3352.39,-1217.34 3352.39,4 -4,4"/>
<text text-anchor="middle" x="1674.19" y="-13.4" font-family="Times,serif" font-size="32.00">decomposition: ful =&gt;5 a, ful =&gt;9 =of a, ful =&gt;8 =about a, ful =&gt;13 =about a</text>
<!-- t -->
<g id="node1" class="node">
<title>t</title>
<ellipse fill="lightgray" stroke="black" cx="27" cy="-803.34" rx="27" ry="30.31"/>
<text text-anchor="middle" x="27" y="-795.24" font-family="Times,serif" font-size="32.00">t</text>
</g>
<!-- z0 -->
<g id="node2" class="node">
<title>z0</title>
<ellipse fill="none" stroke="black" stroke-dasharray="5,2" cx="3321.39" cy="-980.34" rx="27" ry="18"/>
</g>
<!-- da -->
<g id="node3" class="node">
<title>da</title>
<ellipse fill="none" stroke="black" cx="3108.45" cy="-980.34" rx="33.47" ry="30.31"/>
<text text-anchor="middle" x="3108.45" y="-972.24" font-family="Times,serif" font-size="32.00">da</text>
</g>
<!-- z0&#45;&gt;da -->
<g id="edge1" class="edge">
<title>z0&#45;&gt;da</title>
<path fill="none" stroke="#000000" d="M3294.1,-980.34C3258.49,-980.34 3194.51,-980.34 3152,-980.34"/>
<polygon fill="#000000" stroke="#000000" points="3151.96,-976.84 3141.96,-980.34 3151.96,-983.84 3151.96,-976.84"/>
<text text-anchor="middle" x="3218.39" y="-1059.74" font-family="Times,serif" font-size="32.00">Mary |</text>
<text text-anchor="middle" x="3218.39" y="-1024.74" font-family="Times,serif" font-size="32.00"> John</text>
<text text-anchor="middle" x="3218.39" y="-989.74" font-family="Times,serif" font-size="32.00">da &#45;k</text>
</g>
<!-- 0 -->
<g id="node4" class="node">
<title>0</title>
<ellipse fill="none" stroke="black" cx="3108.45" cy="-1108.34" rx="27" ry="30.31"/>
<text text-anchor="middle" x="3108.45" y="-1100.24" font-family="Times,serif" font-size="32.00">0</text>
</g>
<!-- poss -->
<g id="node5" class="node">
<title>poss</title>
<ellipse fill="none" stroke="black" cx="2868.18" cy="-1108.34" rx="52.15" ry="30.31"/>
<text text-anchor="middle" x="2868.18" y="-1100.24" font-family="Times,serif" font-size="32.00">poss</text>
</g>
<!-- 0&#45;&gt;poss -->
<g id="edge2" class="edge">
<title>0&#45;&gt;poss</title>
<path fill="none" stroke="#000000" d="M3081.04,-1108.34C3045.07,-1108.34 2979.58,-1108.34 2930.9,-1108.34"/>
<polygon fill="#000000" stroke="#000000" points="2930.78,-1104.84 2920.78,-1108.34 2930.78,-1111.84 2930.78,-1104.84"/>
<text text-anchor="middle" x="2997.51" y="-1152.74" font-family="Times,serif" font-size="32.00">&#39;s</text>
<text text-anchor="middle" x="2997.51" y="-1117.74" font-family="Times,serif" font-size="32.00">=&gt;0 poss</text>
</g>
<!-- z1 -->
<g id="node6" class="node">
<title>z1</title>
<ellipse fill="none" stroke="black" stroke-dasharray="5,2" cx="3321.39" cy="-1108.34" rx="27" ry="18"/>
</g>
<!-- z1&#45;&gt;0 -->
<g id="edge3" class="edge">
<title>z1&#45;&gt;0</title>
<path fill="none" stroke="#000000" d="M3294.1,-1108.34C3256.73,-1108.34 3188.12,-1108.34 3145.87,-1108.34"/>
<polygon fill="#000000" stroke="#000000" points="3145.74,-1104.84 3135.74,-1108.34 3145.74,-1111.84 3145.74,-1104.84"/>
<text text-anchor="middle" x="3218.39" y="-1187.74" font-family="Times,serif" font-size="32.00">Mary_1 |</text>
<text text-anchor="middle" x="3218.39" y="-1152.74" font-family="Times,serif" font-size="32.00"> John_1</text>
<text text-anchor="middle" x="3218.39" y="-1117.74" font-family="Times,serif" font-size="32.00">0</text>
</g>
<!-- z2 -->
<g id="node7" class="node">
<title>z2</title>
<ellipse fill="none" stroke="black" stroke-dasharray="5,2" cx="2150.35" cy="-247.34" rx="27" ry="18"/>
</g>
<!-- d -->
<g id="node8" class="node">
<title>d</title>
<ellipse fill="none" stroke="black" cx="1806.85" cy="-340.34" rx="27" ry="30.31"/>
<text text-anchor="middle" x="1806.85" y="-332.24" font-family="Times,serif" font-size="32.00">d</text>
</g>
<!-- z2&#45;&gt;d -->
<g id="edge4" class="edge">
<title>z2&#45;&gt;d</title>
<path fill="none" stroke="#000000" d="M2124.33,-241.67C2070.09,-230.84 1939.49,-212.73 1851.85,-266.34 1838.28,-274.65 1828.39,-288.84 1821.47,-302.59"/>
<polygon fill="#000000" stroke="#000000" points="1818.15,-301.41 1817.14,-311.95 1824.51,-304.35 1818.15,-301.41"/>
<text text-anchor="middle" x="1948.85" y="-310.74" font-family="Times,serif" font-size="32.00">the&#45;cause</text>
<text text-anchor="middle" x="1948.85" y="-275.74" font-family="Times,serif" font-size="32.00">d &#45;k</text>
</g>
<!-- for -->
<g id="node9" class="node">
<title>for</title>
<ellipse fill="none" stroke="black" cx="1529.34" cy="-481.34" rx="37.45" ry="30.31"/>
<text text-anchor="middle" x="1529.34" y="-473.24" font-family="Times,serif" font-size="32.00">for</text>
</g>
<!-- d&#45;&gt;for -->
<g id="edge5" class="edge">
<title>d&#45;&gt;for</title>
<path fill="none" stroke="#000000" d="M1796.27,-368.49C1789.27,-384.73 1778.13,-404.11 1761.85,-415.34 1705.09,-454.53 1674.33,-419.66 1608.85,-441.34 1595.43,-445.79 1581.46,-452.24 1569.1,-458.67"/>
<polygon fill="#000000" stroke="#000000" points="1567.15,-455.74 1559.99,-463.54 1570.45,-461.91 1567.15,-455.74"/>
<text text-anchor="middle" x="1685.35" y="-485.74" font-family="Times,serif" font-size="32.00">for</text>
<text text-anchor="middle" x="1685.35" y="-450.74" font-family="Times,serif" font-size="32.00">=d *k for</text>
</g>
<!-- of -->
<g id="node10" class="node">
<title>of</title>
<ellipse fill="none" stroke="black" cx="1529.34" cy="-248.34" rx="30.31" ry="30.31"/>
<text text-anchor="middle" x="1529.34" y="-240.24" font-family="Times,serif" font-size="32.00">of</text>
</g>
<!-- d&#45;&gt;of -->
<g id="edge6" class="edge">
<title>d&#45;&gt;of</title>
<path fill="none" stroke="#000000" d="M1796.25,-312.07C1789.29,-296.15 1778.2,-277.48 1761.85,-267.34 1702.78,-230.71 1618.31,-234.79 1569.42,-241.37"/>
<polygon fill="#000000" stroke="#000000" points="1568.65,-237.95 1559.25,-242.84 1569.65,-244.87 1568.65,-237.95"/>
<text text-anchor="middle" x="1685.35" y="-311.74" font-family="Times,serif" font-size="32.00">of</text>
<text text-anchor="middle" x="1685.35" y="-276.74" font-family="Times,serif" font-size="32.00">=d *k of</text>
</g>
<!-- about -->
<g id="node11" class="node">
<title>about</title>
<ellipse fill="none" stroke="black" cx="1529.34" cy="-341.34" rx="61.54" ry="30.31"/>
<text text-anchor="middle" x="1529.34" y="-333.24" font-family="Times,serif" font-size="32.00">about</text>
</g>
<!-- d&#45;&gt;about -->
<g id="edge7" class="edge">
<title>d&#45;&gt;about</title>
<path fill="none" stroke="#000000" d="M1779.44,-340.44C1738.78,-340.59 1659.47,-340.88 1601.22,-341.09"/>
<polygon fill="#000000" stroke="#000000" points="1600.96,-337.59 1590.97,-341.12 1600.98,-344.59 1600.96,-337.59"/>
<text text-anchor="middle" x="1685.35" y="-385.74" font-family="Times,serif" font-size="32.00">about</text>
<text text-anchor="middle" x="1685.35" y="-350.74" font-family="Times,serif" font-size="32.00">=d *k about</text>
</g>
<!-- 5 -->
<g id="node20" class="node">
<title>5</title>
<ellipse fill="none" stroke="black" cx="2504.35" cy="-609.34" rx="27" ry="30.31"/>
<text text-anchor="middle" x="2504.35" y="-601.24" font-family="Times,serif" font-size="32.00">5</text>
</g>
<!-- for&#45;&gt;5 -->
<g id="edge20" class="edge">
<title>for&#45;&gt;5</title>
<path fill="none" stroke="#000000" d="M1562.09,-496.21C1576.11,-502.04 1592.98,-508.11 1608.85,-511.34 1704.08,-530.72 1948.93,-520.38 2045.85,-527.34 2124.77,-533.02 2323.93,-543.08 2399.85,-565.34 2408.44,-567.86 2409.71,-570.65 2417.85,-574.34 2434.55,-581.92 2453.37,-589.71 2469.1,-596.01"/>
<polygon fill="#000000" stroke="#000000" points="2467.87,-599.28 2478.45,-599.72 2470.45,-592.78 2467.87,-599.28"/>
<text text-anchor="middle" x="1948.85" y="-571.74" font-family="Times,serif" font-size="32.00">hope</text>
<text text-anchor="middle" x="1948.85" y="-536.74" font-family="Times,serif" font-size="32.00">=for 5</text>
</g>
<!-- 1 -->
<g id="node12" class="node">
<title>1</title>
<ellipse fill="none" stroke="black" cx="229" cy="-803.34" rx="27" ry="30.31"/>
<text text-anchor="middle" x="229" y="-795.24" font-family="Times,serif" font-size="32.00">1</text>
</g>
<!-- 1&#45;&gt;t -->
<g id="edge8" class="edge">
<title>1&#45;&gt;t</title>
<path fill="none" stroke="#000000" d="M201.85,-803.34C166.67,-803.34 103.92,-803.34 64.21,-803.34"/>
<polygon fill="#000000" stroke="#000000" points="64.15,-799.84 54.15,-803.34 64.15,-806.84 64.15,-799.84"/>
<text text-anchor="middle" x="128" y="-882.74" font-family="Times,serif" font-size="32.00">s |</text>
<text text-anchor="middle" x="128" y="-847.74" font-family="Times,serif" font-size="32.00"> d</text>
<text text-anchor="middle" x="128" y="-812.74" font-family="Times,serif" font-size="32.00">=&gt;1 +k t</text>
</g>
<!-- 2 -->
<g id="node13" class="node">
<title>2</title>
<ellipse fill="none" stroke="black" cx="1529.34" cy="-803.34" rx="27" ry="30.31"/>
<text text-anchor="middle" x="1529.34" y="-795.24" font-family="Times,serif" font-size="32.00">2</text>
</g>
<!-- 3 -->
<g id="node14" class="node">
<title>3</title>
<ellipse fill="none" stroke="black" cx="1271.82" cy="-803.34" rx="27" ry="30.31"/>
<text text-anchor="middle" x="1271.82" y="-795.24" font-family="Times,serif" font-size="32.00">3</text>
</g>
<!-- 2&#45;&gt;3 -->
<g id="edge9" class="edge">
<title>2&#45;&gt;3</title>
<path fill="none" stroke="#000000" d="M1501.95,-803.34C1456.03,-803.34 1361.32,-803.34 1309.19,-803.34"/>
<polygon fill="#000000" stroke="#000000" points="1309.06,-799.84 1299.06,-803.34 1309.06,-806.84 1309.06,-799.84"/>
<text text-anchor="middle" x="1383.32" y="-847.74" font-family="Times,serif" font-size="32.00">ε_0</text>
<text text-anchor="middle" x="1383.32" y="-812.74" font-family="Times,serif" font-size="32.00">=&gt;2 =da 3</text>
</g>
<!-- 4 -->
<g id="node16" class="node">
<title>4</title>
<ellipse fill="none" stroke="black" cx="823.17" cy="-803.34" rx="27" ry="30.31"/>
<text text-anchor="middle" x="823.17" y="-795.24" font-family="Times,serif" font-size="32.00">4</text>
</g>
<!-- 3&#45;&gt;4 -->
<g id="edge12" class="edge">
<title>3&#45;&gt;4</title>
<path fill="none" stroke="#000000" d="M1249.71,-820.82C1242.83,-825.5 1234.88,-829.93 1226.82,-832.34 1074.14,-878.13 1020.85,-878.13 868.17,-832.34 863.38,-830.91 858.63,-828.77 854.13,-826.28"/>
<polygon fill="#000000" stroke="#000000" points="855.63,-823.09 845.28,-820.82 851.95,-829.05 855.63,-823.09"/>
<text text-anchor="middle" x="1038.49" y="-911.74" font-family="Times,serif" font-size="32.00">ε_1</text>
<text text-anchor="middle" x="1038.49" y="-876.74" font-family="Times,serif" font-size="32.00">=&gt;3 4</text>
</g>
<!-- prog -->
<g id="node18" class="node">
<title>prog</title>
<ellipse fill="none" stroke="black" cx="1038.49" cy="-761.34" rx="52.15" ry="30.31"/>
<text text-anchor="middle" x="1038.49" y="-753.24" font-family="Times,serif" font-size="32.00">prog</text>
</g>
<!-- 3&#45;&gt;prog -->
<g id="edge13" class="edge">
<title>3&#45;&gt;prog</title>
<path fill="none" stroke="#000000" d="M1252.95,-780.95C1245.71,-773.58 1236.72,-766.27 1226.82,-762.34 1186.34,-746.28 1136.95,-746.75 1099.05,-750.85"/>
<polygon fill="#000000" stroke="#000000" points="1098.2,-747.43 1088.68,-752.09 1099.03,-754.38 1098.2,-747.43"/>
<text text-anchor="middle" x="1167.82" y="-806.74" font-family="Times,serif" font-size="32.00">ing</text>
<text text-anchor="middle" x="1167.82" y="-771.74" font-family="Times,serif" font-size="32.00">=&gt;3 prog</text>
</g>
<!-- a -->
<g id="node15" class="node">
<title>a</title>
<ellipse fill="none" stroke="black" cx="1806.85" cy="-803.34" rx="27" ry="30.31"/>
<text text-anchor="middle" x="1806.85" y="-795.24" font-family="Times,serif" font-size="32.00">a</text>
</g>
<!-- a&#45;&gt;2 -->
<g id="edge10" class="edge">
<title>a&#45;&gt;2</title>
<path fill="none" stroke="#000000" d="M1779.44,-803.34C1729.96,-803.34 1623.26,-803.34 1566.91,-803.34"/>
<polygon fill="#000000" stroke="#000000" points="1566.67,-799.84 1556.67,-803.34 1566.67,-806.84 1566.67,-799.84"/>
<text text-anchor="middle" x="1685.35" y="-847.74" font-family="Times,serif" font-size="32.00">be</text>
<text text-anchor="middle" x="1685.35" y="-812.74" font-family="Times,serif" font-size="32.00">=a 2</text>
</g>
<!-- perf -->
<g id="node17" class="node">
<title>perf</title>
<ellipse fill="none" stroke="black" cx="600.08" cy="-761.34" rx="48.17" ry="30.31"/>
<text text-anchor="middle" x="600.08" y="-753.24" font-family="Times,serif" font-size="32.00">perf</text>
</g>
<!-- 4&#45;&gt;perf -->
<g id="edge11" class="edge">
<title>4&#45;&gt;perf</title>
<path fill="none" stroke="#000000" d="M804.3,-780.95C797.06,-773.58 788.07,-766.27 778.17,-762.34 739.68,-747.06 692.66,-747.59 656.75,-751.51"/>
<polygon fill="#000000" stroke="#000000" points="655.97,-748.08 646.46,-752.76 656.81,-755.03 655.97,-748.08"/>
<text text-anchor="middle" x="722.17" y="-806.74" font-family="Times,serif" font-size="32.00">n</text>
<text text-anchor="middle" x="722.17" y="-771.74" font-family="Times,serif" font-size="32.00">=&gt;4 perf</text>
</g>
<!-- v -->
<g id="node19" class="node">
<title>v</title>
<ellipse fill="none" stroke="black" cx="395" cy="-803.34" rx="27" ry="30.31"/>
<text text-anchor="middle" x="395" y="-795.24" font-family="Times,serif" font-size="32.00">v</text>
</g>
<!-- 4&#45;&gt;v -->
<g id="edge18" class="edge">
<title>4&#45;&gt;v</title>
<path fill="none" stroke="#000000" d="M801.06,-820.82C794.18,-825.5 786.23,-829.93 778.17,-832.34 634.21,-875.52 583.96,-875.52 440,-832.34 435.21,-830.91 430.47,-828.77 425.96,-826.28"/>
<polygon fill="#000000" stroke="#000000" points="427.46,-823.09 417.11,-820.82 423.78,-829.05 427.46,-823.09"/>
<text text-anchor="middle" x="600.08" y="-909.74" font-family="Times,serif" font-size="32.00">ε_3</text>
<text text-anchor="middle" x="600.08" y="-874.74" font-family="Times,serif" font-size="32.00">=&gt;4 v</text>
</g>
<!-- perf&#45;&gt;v -->
<g id="edge15" class="edge">
<title>perf&#45;&gt;v</title>
<path fill="none" stroke="#000000" d="M553.53,-753.06C520.77,-749.12 476.19,-747.96 440,-762.34 433.35,-764.99 427.11,-769.15 421.53,-773.84"/>
<polygon fill="#000000" stroke="#000000" points="418.81,-771.58 413.87,-780.95 423.58,-776.71 418.81,-771.58"/>
<text text-anchor="middle" x="487" y="-806.74" font-family="Times,serif" font-size="32.00">have</text>
<text text-anchor="middle" x="487" y="-771.74" font-family="Times,serif" font-size="32.00">=perf v</text>
</g>
<!-- prog&#45;&gt;4 -->
<g id="edge17" class="edge">
<title>prog&#45;&gt;4</title>
<path fill="none" stroke="#000000" d="M988.26,-752.42C953.47,-748.28 906.42,-747.15 868.17,-762.34 861.52,-764.99 855.27,-769.15 849.7,-773.83"/>
<polygon fill="#000000" stroke="#000000" points="846.98,-771.58 842.03,-780.95 851.74,-776.71 846.98,-771.58"/>
<text text-anchor="middle" x="918.17" y="-806.74" font-family="Times,serif" font-size="32.00">be_1</text>
<text text-anchor="middle" x="918.17" y="-771.74" font-family="Times,serif" font-size="32.00">=prog 4</text>
</g>
<!-- v&#45;&gt;1 -->
<g id="edge14" class="edge">
<title>v&#45;&gt;1</title>
<path fill="none" stroke="#000000" d="M371.68,-818.96C365.01,-822.8 357.47,-826.37 350,-828.34 317.34,-836.97 306.66,-836.97 274,-828.34 269.8,-827.23 265.57,-825.62 261.49,-823.73"/>
<polygon fill="#000000" stroke="#000000" points="262.81,-820.47 252.32,-818.96 259.58,-826.68 262.81,-820.47"/>
<text text-anchor="middle" x="312" y="-879.74" font-family="Times,serif" font-size="32.00">will</text>
<text text-anchor="middle" x="312" y="-844.74" font-family="Times,serif" font-size="32.00">=v 1</text>
</g>
<!-- v&#45;&gt;1 -->
<g id="edge16" class="edge">
<title>v&#45;&gt;1</title>
<path fill="none" stroke="#000000" d="M378.8,-778.97C371.4,-769.41 361.59,-759.51 350,-754.34 319.15,-740.58 304.85,-740.58 274,-754.34 265.67,-758.06 258.26,-764.22 252,-770.94"/>
<polygon fill="#000000" stroke="#000000" points="248.99,-769.07 245.2,-778.97 254.33,-773.6 248.99,-769.07"/>
<text text-anchor="middle" x="312" y="-798.74" font-family="Times,serif" font-size="32.00">ε_2</text>
<text text-anchor="middle" x="312" y="-763.74" font-family="Times,serif" font-size="32.00">=&gt;v 1</text>
</g>
<!-- 5&#45;&gt;2 -->
<g id="edge19" class="edge">
<title>5&#45;&gt;2</title>
<path fill="none" stroke="#000000" d="M2477.59,-603.27C2456.76,-598.68 2426.6,-592.78 2399.85,-590.34 2335.68,-584.5 2318.64,-581.16 2254.85,-590.34 1981.39,-629.71 1667.2,-748.6 1564.63,-789.41"/>
<polygon fill="#000000" stroke="#000000" points="1563.09,-786.26 1555.1,-793.22 1565.69,-792.76 1563.09,-786.26"/>
<text text-anchor="middle" x="1948.85" y="-730.74" font-family="Times,serif" font-size="32.00">ε_4</text>
<text text-anchor="middle" x="1948.85" y="-695.74" font-family="Times,serif" font-size="32.00">=&gt;5 2</text>
</g>
<!-- 6 -->
<g id="node21" class="node">
<title>6</title>
<ellipse fill="none" stroke="black" cx="2150.35" cy="-340.34" rx="27" ry="30.31"/>
<text text-anchor="middle" x="2150.35" y="-332.24" font-family="Times,serif" font-size="32.00">6</text>
</g>
<!-- 5&#45;&gt;6 -->
<g id="edge22" class="edge">
<title>5&#45;&gt;6</title>
<path fill="none" stroke="#000000" d="M2477.61,-602.79C2458.15,-596.47 2432.38,-584.91 2417.85,-565.34 2391.46,-529.79 2429.25,-500.47 2399.85,-467.34 2355.07,-416.87 2314.54,-453.83 2254.85,-422.34 2226.57,-407.42 2198.38,-384.42 2178.58,-366.57"/>
<polygon fill="#000000" stroke="#000000" points="2180.9,-363.94 2171.16,-359.76 2176.17,-369.1 2180.9,-363.94"/>
<text text-anchor="middle" x="2327.35" y="-511.74" font-family="Times,serif" font-size="32.00">ε_6</text>
<text text-anchor="middle" x="2327.35" y="-476.74" font-family="Times,serif" font-size="32.00">=&gt;5 6</text>
</g>
<!-- 7 -->
<g id="node22" class="node">
<title>7</title>
<ellipse fill="none" stroke="black" cx="2150.35" cy="-803.34" rx="27" ry="30.31"/>
<text text-anchor="middle" x="2150.35" y="-795.24" font-family="Times,serif" font-size="32.00">7</text>
</g>
<!-- 5&#45;&gt;7 -->
<g id="edge24" class="edge">
<title>5&#45;&gt;7</title>
<path fill="none" stroke="#f7931d" stroke-width="2" d="M2482.85,-627.82C2463.09,-644.48 2431.6,-668.19 2399.85,-680.34 2339.16,-703.59 2313.12,-670.55 2254.85,-699.34 2221.56,-715.8 2192.61,-747.25 2173.87,-771.27"/>
<polygon fill="#f7931d" stroke="#f7931d" stroke-width="2" points="2170.94,-769.35 2167.67,-779.42 2176.51,-773.58 2170.94,-769.35"/>
<text text-anchor="middle" x="2327.35" y="-743.74" font-family="Times,serif" font-size="32.00">ε_7</text>
<text text-anchor="middle" x="2327.35" y="-708.74" font-family="Times,serif" font-size="32.00">=&gt;5 7</text>
</g>
<!-- 6&#45;&gt;d -->
<g id="edge21" class="edge">
<title>6&#45;&gt;d</title>
<path fill="none" stroke="#000000" d="M2123.13,-340.34C2062.66,-340.34 1913.39,-340.34 1844.18,-340.34"/>
<polygon fill="#000000" stroke="#000000" points="1844.17,-336.84 1834.17,-340.34 1844.17,-343.84 1844.17,-336.84"/>
<text text-anchor="middle" x="1948.85" y="-384.74" font-family="Times,serif" font-size="32.00">ε_5</text>
<text text-anchor="middle" x="1948.85" y="-349.74" font-family="Times,serif" font-size="32.00">=&gt;6 poss= d &#45;k</text>
</g>
<!-- 7&#45;&gt;a -->
<g id="edge23" class="edge">
<title>7&#45;&gt;a</title>
<path fill="none" stroke="#f7931d" stroke-width="2" d="M2123.13,-803.34C2062.66,-803.34 1913.39,-803.34 1844.18,-803.34"/>
<polygon fill="#f7931d" stroke="#f7931d" stroke-width="2" points="1844.17,-799.84 1834.17,-803.34 1844.17,-806.84 1844.17,-799.84"/>
<text text-anchor="middle" x="1948.85" y="-847.74" font-family="Times,serif" font-size="32.00">ful</text>
<text text-anchor="middle" x="1948.85" y="-812.74" font-family="Times,serif" font-size="32.00">=&gt;7 a</text>
</g>
<!-- 8 -->
<g id="node23" class="node">
<title>8</title>
<ellipse fill="none" stroke="black" cx="2504.35" cy="-905.34" rx="27" ry="30.31"/>
<text text-anchor="middle" x="2504.35" y="-897.24" font-family="Times,serif" font-size="32.00">8</text>
</g>
<!-- 8&#45;&gt;2 -->
<g id="edge25" class="edge">
<title>8&#45;&gt;2</title>
<path fill="none" stroke="#000000" d="M2477.44,-910.92C2367.14,-933.36 1927.77,-1009.76 1608.85,-877.34 1587,-868.27 1567.59,-850.13 1553.54,-834.08"/>
<polygon fill="#000000" stroke="#000000" points="1556.21,-831.82 1547.09,-826.42 1550.86,-836.33 1556.21,-831.82"/>
<text text-anchor="middle" x="1948.85" y="-997.74" font-family="Times,serif" font-size="32.00">ε_8</text>
<text text-anchor="middle" x="1948.85" y="-962.74" font-family="Times,serif" font-size="32.00">=&gt;8 2</text>
</g>
<!-- 8&#45;&gt;6 -->
<g id="edge28" class="edge">
<title>8&#45;&gt;6</title>
<path fill="none" stroke="#000000" d="M2486.29,-882.49C2466.28,-854.38 2433.81,-804.47 2417.85,-756.34 2396.72,-692.61 2439.65,-660.42 2399.85,-606.34 2358,-549.46 2306.13,-589.91 2254.85,-541.34 2206.77,-495.8 2177.11,-422.97 2162.47,-378.61"/>
<polygon fill="#000000" stroke="#000000" points="2165.8,-377.51 2159.41,-369.06 2159.13,-379.65 2165.8,-377.51"/>
<text text-anchor="middle" x="2327.35" y="-650.74" font-family="Times,serif" font-size="32.00">ε_10</text>
<text text-anchor="middle" x="2327.35" y="-615.74" font-family="Times,serif" font-size="32.00">=&gt;8 6</text>
</g>
<!-- 9 -->
<g id="node24" class="node">
<title>9</title>
<ellipse fill="none" stroke="black" cx="2868.18" cy="-914.34" rx="27" ry="30.31"/>
<text text-anchor="middle" x="2868.18" y="-906.24" font-family="Times,serif" font-size="32.00">9</text>
</g>
<!-- 9&#45;&gt;2 -->
<g id="edge31" class="edge">
<title>9&#45;&gt;2</title>
<path fill="none" stroke="#000000" d="M2853.9,-940.74C2841.96,-961.92 2822.53,-990.9 2797.85,-1008.34 2686.9,-1086.78 2641.24,-1097.34 2505.35,-1097.34 2505.35,-1097.34 2505.35,-1097.34 1805.85,-1097.34 1666.66,-1097.34 1577.39,-919.71 1544.53,-840.59"/>
<polygon fill="#000000" stroke="#000000" points="1547.64,-838.94 1540.63,-831 1541.16,-841.58 1547.64,-838.94"/>
<text text-anchor="middle" x="2150.35" y="-1141.74" font-family="Times,serif" font-size="32.00">ε_13</text>
<text text-anchor="middle" x="2150.35" y="-1106.74" font-family="Times,serif" font-size="32.00">=&gt;9 =about 2</text>
</g>
<!-- 9&#45;&gt;6 -->
<g id="edge32" class="edge">
<title>9&#45;&gt;6</title>
<path fill="none" stroke="#000000" d="M2864.39,-884C2857.46,-815.6 2837.11,-652.52 2797.85,-616.34 2735.41,-558.79 2670.52,-646.73 2608.85,-588.34 2579.87,-560.9 2619.04,-528.62 2590.85,-500.34 2535.42,-444.72 2478.65,-514.06 2417.85,-464.34 2402.13,-451.49 2414.82,-436.07 2399.85,-422.34 2339.41,-366.89 2240.61,-348.87 2187.63,-343.06"/>
<polygon fill="#000000" stroke="#000000" points="2187.66,-339.55 2177.36,-342.03 2186.96,-346.51 2187.66,-339.55"/>
<text text-anchor="middle" x="2504.35" y="-544.74" font-family="Times,serif" font-size="32.00">ε_14</text>
<text text-anchor="middle" x="2504.35" y="-509.74" font-family="Times,serif" font-size="32.00">=&gt;9 =about 6</text>
</g>
<!-- 9&#45;&gt;7 -->
<g id="edge33" class="edge">
<title>9&#45;&gt;7</title>
<path fill="none" stroke="#f7931d" stroke-width="2" d="M2851.59,-938.39C2839.26,-955.04 2820.4,-975.85 2797.85,-985.34 2720.44,-1017.95 2692.39,-994.21 2608.85,-985.34 2447.31,-968.2 2396.68,-973.57 2254.85,-894.34 2225.22,-877.79 2196.64,-851.63 2177.05,-831.6"/>
<polygon fill="#f7931d" stroke="#f7931d" stroke-width="2" points="2179.45,-829.05 2170,-824.26 2174.4,-833.9 2179.45,-829.05"/>
<text text-anchor="middle" x="2504.35" y="-1027.74" font-family="Times,serif" font-size="32.00">ε_15</text>
<text text-anchor="middle" x="2504.35" y="-992.74" font-family="Times,serif" font-size="32.00">=&gt;9 =about 7</text>
</g>
<!-- 9&#45;&gt;8 -->
<g id="edge26" class="edge">
<title>9&#45;&gt;8</title>
<path fill="none" stroke="#000000" d="M2841.16,-913.7C2777.68,-912.12 2614.76,-908.07 2541.73,-906.25"/>
<polygon fill="#000000" stroke="#000000" points="2541.71,-902.75 2531.63,-906 2541.54,-909.75 2541.71,-902.75"/>
<text text-anchor="middle" x="2703.35" y="-957.74" font-family="Times,serif" font-size="32.00">ε_9</text>
<text text-anchor="middle" x="2703.35" y="-922.74" font-family="Times,serif" font-size="32.00">=&gt;9 =of 8</text>
</g>
<!-- 10 -->
<g id="node26" class="node">
<title>10</title>
<ellipse fill="none" stroke="black" cx="2504.35" cy="-717.34" rx="33.88" ry="30.31"/>
<text text-anchor="middle" x="2504.35" y="-709.24" font-family="Times,serif" font-size="32.00">10</text>
</g>
<!-- 9&#45;&gt;10 -->
<g id="edge30" class="edge">
<title>9&#45;&gt;10</title>
<path fill="none" stroke="#000000" d="M2865.64,-883.97C2861.66,-841.45 2847.59,-765.35 2797.85,-729.34 2759.21,-701.36 2619.9,-707.97 2548.38,-713.48"/>
<polygon fill="#000000" stroke="#000000" points="2548.03,-710 2538.34,-714.28 2548.59,-716.98 2548.03,-710"/>
<text text-anchor="middle" x="2703.35" y="-773.74" font-family="Times,serif" font-size="32.00">ε_12</text>
<text text-anchor="middle" x="2703.35" y="-738.74" font-family="Times,serif" font-size="32.00">=&gt;9 10</text>
</g>
<!-- z3 -->
<g id="node25" class="node">
<title>z3</title>
<ellipse fill="none" stroke="black" stroke-dasharray="5,2" cx="3108.45" cy="-914.34" rx="27" ry="18"/>
</g>
<!-- z3&#45;&gt;9 -->
<g id="edge27" class="edge">
<title>z3&#45;&gt;9</title>
<path fill="none" stroke="#000000" d="M3081.04,-914.34C3038.26,-914.34 2953.72,-914.34 2905.37,-914.34"/>
<polygon fill="#000000" stroke="#000000" points="2905.35,-910.84 2895.35,-914.34 2905.35,-917.84 2905.35,-910.84"/>
<text text-anchor="middle" x="2997.51" y="-958.74" font-family="Times,serif" font-size="32.00">boast</text>
<text text-anchor="middle" x="2997.51" y="-923.74" font-family="Times,serif" font-size="32.00">9</text>
</g>
<!-- 10&#45;&gt;7 -->
<g id="edge29" class="edge">
<title>10&#45;&gt;7</title>
<path fill="none" stroke="#f7931d" stroke-width="2" d="M2476.93,-735.27C2456.73,-748.05 2427.69,-764.49 2399.85,-773.34 2361.18,-785.65 2246.65,-795.97 2187.55,-800.65"/>
<polygon fill="#f7931d" stroke="#f7931d" stroke-width="2" points="2187.23,-797.16 2177.53,-801.43 2187.77,-804.14 2187.23,-797.16"/>
<text text-anchor="middle" x="2327.35" y="-839.74" font-family="Times,serif" font-size="32.00">ε_11</text>
<text text-anchor="middle" x="2327.35" y="-804.74" font-family="Times,serif" font-size="32.00">=&gt;10 =of 7</text>
</g>
<!-- 11 -->
<g id="node27" class="node">
<title>11</title>
<ellipse fill="none" stroke="black" cx="2504.35" cy="-425.34" rx="33.88" ry="30.31"/>
<text text-anchor="middle" x="2504.35" y="-417.24" font-family="Times,serif" font-size="32.00">11</text>
</g>
<!-- 11&#45;&gt;2 -->
<g id="edge34" class="edge">
<title>11&#45;&gt;2</title>
<path fill="none" stroke="#000000" d="M2470.37,-423.33C2353.96,-416.73 1963.4,-398.97 1851.85,-450.34 1774.31,-486.06 1613.38,-692.86 1553.47,-772.29"/>
<polygon fill="#000000" stroke="#000000" points="1550.55,-770.35 1547.33,-780.45 1556.14,-774.56 1550.55,-770.35"/>
<text text-anchor="middle" x="1948.85" y="-494.74" font-family="Times,serif" font-size="32.00">ε_16</text>
<text text-anchor="middle" x="1948.85" y="-459.74" font-family="Times,serif" font-size="32.00">=&gt;11 =d *k 2</text>
</g>
<!-- z4 -->
<g id="node28" class="node">
<title>z4</title>
<ellipse fill="none" stroke="black" stroke-dasharray="5,2" cx="3108.45" cy="-488.34" rx="27" ry="18"/>
</g>
<!-- 12 -->
<g id="node29" class="node">
<title>12</title>
<ellipse fill="none" stroke="black" cx="2868.18" cy="-517.34" rx="33.88" ry="30.31"/>
<text text-anchor="middle" x="2868.18" y="-509.24" font-family="Times,serif" font-size="32.00">12</text>
</g>
<!-- z4&#45;&gt;12 -->
<g id="edge35" class="edge">
<title>z4&#45;&gt;12</title>
<path fill="none" stroke="#000000" d="M3081.68,-485.52C3048.28,-482.53 2988.43,-479.49 2938.51,-489.34 2928.19,-491.38 2917.46,-494.93 2907.62,-498.83"/>
<polygon fill="#000000" stroke="#000000" points="2905.99,-495.72 2898.11,-502.81 2908.69,-502.18 2905.99,-495.72"/>
<text text-anchor="middle" x="2997.51" y="-603.74" font-family="Times,serif" font-size="32.00">fear |</text>
<text text-anchor="middle" x="2997.51" y="-568.74" font-family="Times,serif" font-size="32.00"> neglect |</text>
<text text-anchor="middle" x="2997.51" y="-533.74" font-family="Times,serif" font-size="32.00"> scorn</text>
<text text-anchor="middle" x="2997.51" y="-498.74" font-family="Times,serif" font-size="32.00">12</text>
</g>
<!-- 12&#45;&gt;6 -->
<g id="edge36" class="edge">
<title>12&#45;&gt;6</title>
<path fill="none" stroke="#000000" d="M2856.75,-488.44C2846.16,-458.87 2829.44,-411.55 2815.85,-370.34 2807.41,-344.71 2819.59,-328.35 2797.85,-312.34 2748.7,-276.13 2316.84,-321.61 2187.68,-336.15"/>
<polygon fill="#000000" stroke="#000000" points="2187.07,-332.7 2177.52,-337.3 2187.86,-339.66 2187.07,-332.7"/>
<text text-anchor="middle" x="2504.35" y="-357.74" font-family="Times,serif" font-size="32.00">ε_17</text>
<text text-anchor="middle" x="2504.35" y="-322.74" font-family="Times,serif" font-size="32.00">=&gt;12 =of 6</text>
</g>
<!-- 12&#45;&gt;10 -->
<g id="edge38" class="edge">
<title>12&#45;&gt;10</title>
<path fill="none" stroke="#000000" d="M2849.8,-543.01C2837.26,-559.56 2818.89,-580.19 2797.85,-592.34 2723.28,-635.46 2686.54,-598.12 2608.85,-635.34 2604.79,-637.29 2566.68,-667.77 2537.88,-691.01"/>
<polygon fill="#000000" stroke="#000000" points="2535.62,-688.33 2530.04,-697.34 2540.02,-693.78 2535.62,-688.33"/>
<text text-anchor="middle" x="2703.35" y="-679.74" font-family="Times,serif" font-size="32.00">ε_19</text>
<text text-anchor="middle" x="2703.35" y="-644.74" font-family="Times,serif" font-size="32.00">=&gt;12 10</text>
</g>
<!-- 12&#45;&gt;11 -->
<g id="edge37" class="edge">
<title>12&#45;&gt;11</title>
<path fill="none" stroke="#000000" d="M2833.83,-517.97C2772.86,-518.55 2646.24,-517.01 2608.85,-495.34 2596.69,-488.3 2601.42,-478.61 2590.85,-469.34 2577.55,-457.67 2560.61,-448.12 2545.32,-440.94"/>
<polygon fill="#000000" stroke="#000000" points="2546.61,-437.68 2536.06,-436.77 2543.74,-444.07 2546.61,-437.68"/>
<text text-anchor="middle" x="2703.35" y="-562.74" font-family="Times,serif" font-size="32.00">ε_18</text>
<text text-anchor="middle" x="2703.35" y="-527.74" font-family="Times,serif" font-size="32.00">=&gt;12 11</text>
</g>
<!-- z5 -->
<g id="node30" class="node">
<title>z5</title>
<ellipse fill="none" stroke="black" stroke-dasharray="5,2" cx="3108.45" cy="-331.34" rx="27" ry="18"/>
</g>
<!-- 13 -->
<g id="node31" class="node">
<title>13</title>
<ellipse fill="none" stroke="black" cx="2868.18" cy="-331.34" rx="33.88" ry="30.31"/>
<text text-anchor="middle" x="2868.18" y="-323.24" font-family="Times,serif" font-size="32.00">13</text>
</g>
<!-- z5&#45;&gt;13 -->
<g id="edge39" class="edge">
<title>z5&#45;&gt;13</title>
<path fill="none" stroke="#000000" d="M3081.04,-331.34C3040.2,-331.34 2961.33,-331.34 2912.19,-331.34"/>
<polygon fill="#000000" stroke="#000000" points="2912.18,-327.84 2902.18,-331.34 2912.18,-334.84 2912.18,-327.84"/>
<text text-anchor="middle" x="2997.51" y="-410.74" font-family="Times,serif" font-size="32.00">respect |</text>
<text text-anchor="middle" x="2997.51" y="-375.74" font-family="Times,serif" font-size="32.00"> disdain</text>
<text text-anchor="middle" x="2997.51" y="-340.74" font-family="Times,serif" font-size="32.00">13</text>
</g>
<!-- 13&#45;&gt;6 -->
<g id="edge40" class="edge">
<title>13&#45;&gt;6</title>
<path fill="none" stroke="#000000" d="M2841.88,-311.72C2829.17,-302.52 2813.24,-291.94 2797.85,-284.34 2643.95,-208.33 2585.39,-178 2417.85,-215.34 2327.18,-235.55 2230.9,-290.09 2182.7,-320.01"/>
<polygon fill="#000000" stroke="#000000" points="2180.6,-317.2 2173.99,-325.48 2184.32,-323.13 2180.6,-317.2"/>
<text text-anchor="middle" x="2504.35" y="-259.74" font-family="Times,serif" font-size="32.00">ε_20</text>
<text text-anchor="middle" x="2504.35" y="-224.74" font-family="Times,serif" font-size="32.00">=&gt;13 =for 6</text>
</g>
<!-- 13&#45;&gt;10 -->
<g id="edge42" class="edge">
<title>13&#45;&gt;10</title>
<path fill="none" stroke="#000000" d="M2849.4,-357.17C2836.94,-373.06 2818.81,-392.25 2797.85,-402.34 2759.82,-420.66 2638.39,-391.18 2608.85,-421.34 2573.45,-457.5 2614.47,-603.59 2590.85,-648.34 2580.07,-668.79 2560.34,-685.34 2542.55,-697.1"/>
<polygon fill="#000000" stroke="#000000" points="2540.6,-694.19 2534.02,-702.48 2544.34,-700.1 2540.6,-694.19"/>
<text text-anchor="middle" x="2703.35" y="-465.74" font-family="Times,serif" font-size="32.00">ε_22</text>
<text text-anchor="middle" x="2703.35" y="-430.74" font-family="Times,serif" font-size="32.00">=&gt;13 10</text>
</g>
<!-- 13&#45;&gt;11 -->
<g id="edge41" class="edge">
<title>13&#45;&gt;11</title>
<path fill="none" stroke="#000000" d="M2835.97,-321.03C2783.72,-305.86 2677.53,-284.21 2608.85,-332.34 2589.86,-345.66 2606.22,-363.96 2590.85,-381.34 2578.95,-394.81 2561.94,-404.73 2546.22,-411.71"/>
<polygon fill="#000000" stroke="#000000" points="2544.55,-408.61 2536.66,-415.68 2547.24,-415.08 2544.55,-408.61"/>
<text text-anchor="middle" x="2703.35" y="-376.74" font-family="Times,serif" font-size="32.00">ε_21</text>
<text text-anchor="middle" x="2703.35" y="-341.74" font-family="Times,serif" font-size="32.00">=&gt;13 11</text>
</g>
<!-- z6 -->
<g id="node32" class="node">
<title>z6</title>
<ellipse fill="none" stroke="black" stroke-dasharray="5,2" cx="3321.39" cy="-651.34" rx="27" ry="18"/>
</g>
<!-- 14 -->
<g id="node33" class="node">
<title>14</title>
<ellipse fill="none" stroke="black" cx="3108.45" cy="-651.34" rx="33.88" ry="30.31"/>
<text text-anchor="middle" x="3108.45" y="-643.24" font-family="Times,serif" font-size="32.00">14</text>
</g>
<!-- z6&#45;&gt;14 -->
<g id="edge43" class="edge">
<title>z6&#45;&gt;14</title>
<path fill="none" stroke="#000000" d="M3294.1,-651.34C3258.7,-651.34 3195.24,-651.34 3152.74,-651.34"/>
<polygon fill="#000000" stroke="#000000" points="3152.68,-647.84 3142.68,-651.34 3152.68,-654.84 3152.68,-647.84"/>
<text text-anchor="middle" x="3218.39" y="-695.74" font-family="Times,serif" font-size="32.00">doubt</text>
<text text-anchor="middle" x="3218.39" y="-660.74" font-family="Times,serif" font-size="32.00">14</text>
</g>
<!-- 14&#45;&gt;6 -->
<g id="edge45" class="edge">
<title>14&#45;&gt;6</title>
<path fill="none" stroke="#000000" d="M3099.03,-621.88C3091.51,-594.5 3080.75,-552.48 3074.51,-515.34 3067.55,-473.96 3077.04,-363.94 3056.51,-327.34 2986.19,-202.03 2934.18,-178.79 2797.85,-133.34 2566.18,-56.12 2433.71,-51.07 2254.85,-217.34 2235.4,-235.43 2252.07,-252.56 2236.85,-274.34 2223.01,-294.16 2201.43,-310.76 2183.42,-322.35"/>
<polygon fill="#000000" stroke="#000000" points="2181.56,-319.38 2174.91,-327.63 2185.25,-325.33 2181.56,-319.38"/>
<text text-anchor="middle" x="2703.35" y="-177.74" font-family="Times,serif" font-size="32.00">ε_24</text>
<text text-anchor="middle" x="2703.35" y="-142.74" font-family="Times,serif" font-size="32.00">=&gt;14 =about 6</text>
</g>
<!-- 14&#45;&gt;7 -->
<g id="edge46" class="edge">
<title>14&#45;&gt;7</title>
<path fill="none" stroke="#f7931d" stroke-width="2" d="M3095.62,-679.68C3087.12,-696.74 3074.05,-717.57 3056.51,-730.34 2960.33,-800.38 2914.12,-774.11 2797.85,-799.34 2754.03,-808.86 2444.54,-862.61 2399.85,-866.34 2335.63,-871.71 2316.91,-883.74 2254.85,-866.34 2227.68,-858.73 2200.57,-841.79 2180.91,-827.4"/>
<polygon fill="#f7931d" stroke="#f7931d" stroke-width="2" points="2182.79,-824.43 2172.7,-821.21 2178.58,-830.02 2182.79,-824.43"/>
<text text-anchor="middle" x="2703.35" y="-877.74" font-family="Times,serif" font-size="32.00">ε_25</text>
<text text-anchor="middle" x="2703.35" y="-842.74" font-family="Times,serif" font-size="32.00">=&gt;14 =about 7</text>
</g>
<!-- 14&#45;&gt;12 -->
<g id="edge44" class="edge">
<title>14&#45;&gt;12</title>
<path fill="none" stroke="#000000" d="M3074.46,-654.99C3038.2,-657.3 2979.64,-655.88 2938.51,-629.34 2911.93,-612.19 2893.83,-580.88 2882.81,-555.71"/>
<polygon fill="#000000" stroke="#000000" points="2886.01,-554.29 2878.93,-546.41 2879.55,-556.99 2886.01,-554.29"/>
<text text-anchor="middle" x="2997.51" y="-700.74" font-family="Times,serif" font-size="32.00">ε_23</text>
<text text-anchor="middle" x="2997.51" y="-665.74" font-family="Times,serif" font-size="32.00">=&gt;14 12</text>
</g>
</g>
</svg>
