<?xml version="1.0" encoding="UTF-8" standalone="no"?>
<!DOCTYPE svg PUBLIC "-//W3C//DTD SVG 1.1//EN"
 "http://www.w3.org/Graphics/SVG/1.1/DTD/svg11.dtd">
<!-- Generated by graphviz version 2.47.1 (20210417.1919)
 -->
<!-- Title: G Pages: 1 -->
<svg width="2764pt" height="2131pt"
 viewBox="0.00 0.00 2764.48 2131.00" xmlns="http://www.w3.org/2000/svg" xmlns:xlink="http://www.w3.org/1999/xlink">
<g id="graph0" class="graph" transform="scale(1 1) rotate(0) translate(4 2127)">
<title>G</title>
<polygon fill="white" stroke="transparent" points="-4,4 -4,-2127 2760.48,-2127 2760.48,4 -4,4"/>
<text text-anchor="middle" x="1378.24" y="-13.4" font-family="Times,serif" font-size="32.00">single contraction: 1 → 0</text>
<!-- t -->
<g id="node1" class="node">
<title>t</title>
<ellipse fill="lightgray" stroke="black" cx="1902.65" cy="-693" rx="27" ry="30.31"/>
<text text-anchor="middle" x="1902.65" y="-684.9" font-family="Times,serif" font-size="32.00">t</text>
</g>
<!-- c2 -->
<g id="node15" class="node">
<title>c2</title>
<ellipse fill="none" stroke="black" cx="1630.65" cy="-1053" rx="33.47" ry="30.31"/>
<text text-anchor="middle" x="1630.65" y="-1044.9" font-family="Times,serif" font-size="32.00">c2</text>
</g>
<!-- t&#45;&gt;c2 -->
<g id="edge51" class="edge">
<title>t&#45;&gt;c2</title>
<path fill="none" stroke="#000000" d="M1890.94,-720.85C1866.61,-781.04 1801.85,-924.92 1707.65,-1013 1697.15,-1022.82 1683.78,-1030.92 1671.19,-1037.19"/>
<polygon fill="#000000" stroke="#000000" points="1669.32,-1034.21 1661.77,-1041.64 1672.31,-1040.54 1669.32,-1034.21"/>
<text text-anchor="middle" x="1780.65" y="-1036.4" font-family="Times,serif" font-size="32.00">that_1</text>
<text text-anchor="middle" x="1780.65" y="-1001.4" font-family="Times,serif" font-size="32.00">=t c2</text>
</g>
<!-- c1 -->
<g id="node17" class="node">
<title>c1</title>
<ellipse fill="none" stroke="black" cx="1311.65" cy="-588" rx="33.47" ry="30.31"/>
<text text-anchor="middle" x="1311.65" y="-579.9" font-family="Times,serif" font-size="32.00">c1</text>
</g>
<!-- t&#45;&gt;c1 -->
<g id="edge50" class="edge">
<title>t&#45;&gt;c1</title>
<path fill="none" stroke="#000000" d="M1875.87,-688.68C1818.13,-678.98 1674.04,-654.62 1553.65,-633 1483.79,-620.46 1402.68,-605.16 1354.62,-596.02"/>
<polygon fill="#000000" stroke="#000000" points="1355.07,-592.54 1344.59,-594.11 1353.76,-599.42 1355.07,-592.54"/>
<text text-anchor="middle" x="1630.65" y="-704.4" font-family="Times,serif" font-size="32.00">that</text>
<text text-anchor="middle" x="1630.65" y="-669.4" font-family="Times,serif" font-size="32.00">=t =e c1</text>
</g>
<!-- z0 -->
<g id="node2" class="node">
<title>z0</title>
<ellipse fill="none" stroke="black" stroke-dasharray="5,2" cx="2576.48" cy="-1426" rx="27" ry="18"/>
</g>
<!-- d -->
<g id="node3" class="node">
<title>d</title>
<ellipse fill="none" stroke="black" cx="2393.48" cy="-1327" rx="27" ry="30.31"/>
<text text-anchor="middle" x="2393.48" y="-1318.9" font-family="Times,serif" font-size="32.00">d</text>
</g>
<!-- z0&#45;&gt;d -->
<g id="edge1" class="edge">
<title>z0&#45;&gt;d</title>
<path fill="none" stroke="#000000" d="M2549.57,-1428.16C2520.06,-1429.3 2471.65,-1426.96 2438.48,-1404 2424.77,-1394.51 2414.78,-1379.27 2407.83,-1364.85"/>
<polygon fill="#000000" stroke="#000000" points="2410.95,-1363.26 2403.68,-1355.55 2404.56,-1366.11 2410.95,-1363.26"/>
<text text-anchor="middle" x="2484.98" y="-1577.4" font-family="Times,serif" font-size="32.00">Mary |</text>
<text text-anchor="middle" x="2484.98" y="-1542.4" font-family="Times,serif" font-size="32.00"> John |</text>
<text text-anchor="middle" x="2484.98" y="-1507.4" font-family="Times,serif" font-size="32.00"> Alice |</text>
<text text-anchor="middle" x="2484.98" y="-1472.4" font-family="Times,serif" font-size="32.00"> Bob</text>
<text text-anchor="middle" x="2484.98" y="-1437.4" font-family="Times,serif" font-size="32.00">d &#45;k</text>
</g>
<!-- 0 -->
<g id="node6" class="node">
<title>0</title>
<ellipse fill="none" stroke="black" cx="1311.65" cy="-1348" rx="27" ry="30.31"/>
<text text-anchor="middle" x="1311.65" y="-1339.9" font-family="Times,serif" font-size="32.00">0</text>
</g>
<!-- d&#45;&gt;0 -->
<g id="edge9" class="edge">
<title>d&#45;&gt;0</title>
<path fill="none" stroke="#000000" d="M2375.78,-1350.5C2342.53,-1394.3 2263.34,-1484 2172.56,-1484 2172.56,-1484 2172.56,-1484 1629.65,-1484 1580,-1484 1444.15,-1502.54 1406.65,-1470 1376.83,-1444.12 1413.22,-1413.91 1388.65,-1383 1378.52,-1370.25 1362.68,-1361.95 1348.08,-1356.66"/>
<polygon fill="#000000" stroke="#000000" points="1348.85,-1353.23 1338.26,-1353.45 1346.68,-1359.88 1348.85,-1353.23"/>
<text text-anchor="middle" x="1902.65" y="-1528.4" font-family="Times,serif" font-size="32.00">praise</text>
<text text-anchor="middle" x="1902.65" y="-1493.4" font-family="Times,serif" font-size="32.00">=d *k 0</text>
</g>
<!-- v -->
<g id="node8" class="node">
<title>v</title>
<ellipse fill="none" stroke="black" cx="629.65" cy="-901" rx="27" ry="30.31"/>
<text text-anchor="middle" x="629.65" y="-892.9" font-family="Times,serif" font-size="32.00">v</text>
</g>
<!-- d&#45;&gt;v -->
<g id="edge6" class="edge">
<title>d&#45;&gt;v</title>
<path fill="none" stroke="#000000" d="M2392.27,-1296.36C2391.22,-1207.99 2385.03,-945.27 2348.48,-731 2298.14,-435.98 2471.84,-81 2172.56,-81 2172.56,-81 2172.56,-81 1779.65,-81 1483.09,-81 1382.6,-208.98 1234.65,-466 1210.38,-508.17 1251.71,-540.26 1216.65,-574 1177.43,-611.75 773.37,-602.26 730.65,-636 660.75,-691.2 639.71,-800.94 633.37,-860.42"/>
<polygon fill="#000000" stroke="#000000" points="629.87,-860.27 632.38,-870.56 636.84,-860.95 629.87,-860.27"/>
<text text-anchor="middle" x="1630.65" y="-267.4" font-family="Times,serif" font-size="32.00">dance_1 |</text>
<text text-anchor="middle" x="1630.65" y="-232.4" font-family="Times,serif" font-size="32.00"> laugh_1 |</text>
<text text-anchor="middle" x="1630.65" y="-197.4" font-family="Times,serif" font-size="32.00"> smile_1 |</text>
<text text-anchor="middle" x="1630.65" y="-162.4" font-family="Times,serif" font-size="32.00"> jump_1</text>
<text text-anchor="middle" x="1630.65" y="-127.4" font-family="Times,serif" font-size="32.00">=d v</text>
</g>
<!-- prog -->
<g id="node9" class="node">
<title>prog</title>
<ellipse fill="none" stroke="black" cx="52.33" cy="-1046" rx="52.15" ry="30.31"/>
<text text-anchor="middle" x="52.33" y="-1037.9" font-family="Times,serif" font-size="32.00">prog</text>
</g>
<!-- d&#45;&gt;prog -->
<g id="edge7" class="edge">
<title>d&#45;&gt;prog</title>
<path fill="none" stroke="#000000" d="M2388.59,-1356.95C2371.66,-1481 2299.52,-1948 2172.56,-1948 2172.56,-1948 2172.56,-1948 323.65,-1948 187.9,-1948 176.83,-1842.48 122.65,-1718 72.8,-1603.46 57.91,-1214.27 54.32,-1086.79"/>
<polygon fill="#000000" stroke="#000000" points="57.81,-1086.58 54.04,-1076.68 50.81,-1086.77 57.81,-1086.58"/>
<text text-anchor="middle" x="1311.65" y="-2097.4" font-family="Times,serif" font-size="32.00">danceing |</text>
<text text-anchor="middle" x="1311.65" y="-2062.4" font-family="Times,serif" font-size="32.00"> laughing |</text>
<text text-anchor="middle" x="1311.65" y="-2027.4" font-family="Times,serif" font-size="32.00"> smileing |</text>
<text text-anchor="middle" x="1311.65" y="-1992.4" font-family="Times,serif" font-size="32.00"> jumping</text>
<text text-anchor="middle" x="1311.65" y="-1957.4" font-family="Times,serif" font-size="32.00">=d prog</text>
</g>
<!-- perf -->
<g id="node10" class="node">
<title>perf</title>
<ellipse fill="none" stroke="black" cx="976.65" cy="-1021" rx="48.17" ry="30.31"/>
<text text-anchor="middle" x="976.65" y="-1012.9" font-family="Times,serif" font-size="32.00">perf</text>
</g>
<!-- d&#45;&gt;perf -->
<g id="edge8" class="edge">
<title>d&#45;&gt;perf</title>
<path fill="none" stroke="#000000" d="M2369.29,-1313.42C2330.13,-1291.81 2247.79,-1252 2172.56,-1252 2172.56,-1252 2172.56,-1252 1779.65,-1252 1729.33,-1252 1589.28,-1273.53 1553.65,-1238 1509.66,-1194.12 1580.98,-1001.49 1535.65,-959 1493.83,-919.79 1451.84,-923.72 1406.65,-959 1380.65,-979.3 1414.65,-1010.7 1388.65,-1031 1283.13,-1113.39 1111.59,-1069.68 1027.43,-1040.42"/>
<polygon fill="#000000" stroke="#000000" points="1028.45,-1037.07 1017.85,-1037.02 1026.11,-1043.67 1028.45,-1037.07"/>
<text text-anchor="middle" x="1780.65" y="-1401.4" font-family="Times,serif" font-size="32.00">dancen |</text>
<text text-anchor="middle" x="1780.65" y="-1366.4" font-family="Times,serif" font-size="32.00"> laughn |</text>
<text text-anchor="middle" x="1780.65" y="-1331.4" font-family="Times,serif" font-size="32.00"> smilen |</text>
<text text-anchor="middle" x="1780.65" y="-1296.4" font-family="Times,serif" font-size="32.00"> jumpn</text>
<text text-anchor="middle" x="1780.65" y="-1261.4" font-family="Times,serif" font-size="32.00">=d perf</text>
</g>
<!-- pass -->
<g id="node11" class="node">
<title>pass</title>
<ellipse fill="none" stroke="black" cx="2171.56" cy="-693" rx="50.82" ry="30.31"/>
<text text-anchor="middle" x="2171.56" y="-684.9" font-family="Times,serif" font-size="32.00">pass</text>
</g>
<!-- d&#45;&gt;pass -->
<g id="edge13" class="edge">
<title>d&#45;&gt;pass</title>
<path fill="none" stroke="#000000" d="M2392.63,-1296.53C2392.65,-1203.44 2389.23,-924.32 2348.48,-845 2319.63,-788.86 2260.39,-744.59 2218.65,-718.64"/>
<polygon fill="#000000" stroke="#000000" points="2220.38,-715.59 2210.02,-713.38 2216.74,-721.57 2220.38,-715.59"/>
<text text-anchor="middle" x="2294.48" y="-994.4" font-family="Times,serif" font-size="32.00">praisen |</text>
<text text-anchor="middle" x="2294.48" y="-959.4" font-family="Times,serif" font-size="32.00"> liken |</text>
<text text-anchor="middle" x="2294.48" y="-924.4" font-family="Times,serif" font-size="32.00"> kissn |</text>
<text text-anchor="middle" x="2294.48" y="-889.4" font-family="Times,serif" font-size="32.00"> hugn</text>
<text text-anchor="middle" x="2294.48" y="-854.4" font-family="Times,serif" font-size="32.00">=d pass</text>
</g>
<!-- 1 -->
<g id="node12" class="node">
<title>1</title>
<ellipse fill="none" stroke="black" cx="1630.65" cy="-1770" rx="27" ry="30.31"/>
<text text-anchor="middle" x="1630.65" y="-1761.9" font-family="Times,serif" font-size="32.00">1</text>
</g>
<!-- d&#45;&gt;1 -->
<g id="edge15" class="edge">
<title>d&#45;&gt;1</title>
<path fill="none" stroke="#000000" d="M2392.73,-1357.46C2391.41,-1395.02 2383.64,-1458.71 2348.48,-1498 2158.68,-1710.09 1785.85,-1757.64 1668.15,-1767.55"/>
<polygon fill="#000000" stroke="#000000" points="1667.58,-1764.09 1657.89,-1768.38 1668.14,-1771.07 1667.58,-1764.09"/>
<text text-anchor="middle" x="2036.15" y="-1754.4" font-family="Times,serif" font-size="32.00">like</text>
<text text-anchor="middle" x="2036.15" y="-1719.4" font-family="Times,serif" font-size="32.00">=d *k 1</text>
</g>
<!-- 2 -->
<g id="node13" class="node">
<title>2</title>
<ellipse fill="none" stroke="black" cx="1630.65" cy="-974" rx="27" ry="30.31"/>
<text text-anchor="middle" x="1630.65" y="-965.9" font-family="Times,serif" font-size="32.00">2</text>
</g>
<!-- d&#45;&gt;2 -->
<g id="edge20" class="edge">
<title>d&#45;&gt;2</title>
<path fill="none" stroke="#000000" d="M2384.55,-1298.17C2377.85,-1278.75 2366.42,-1253.87 2348.48,-1238 2128.8,-1043.7 1996.24,-1133.1 1725.65,-1020 1705.14,-1011.43 1682.77,-1000.54 1664.99,-991.51"/>
<polygon fill="#000000" stroke="#000000" points="1666.13,-988.16 1655.63,-986.71 1662.94,-994.39 1666.13,-988.16"/>
<text text-anchor="middle" x="2036.15" y="-1151.4" font-family="Times,serif" font-size="32.00">kiss</text>
<text text-anchor="middle" x="2036.15" y="-1116.4" font-family="Times,serif" font-size="32.00">=d *k 2</text>
</g>
<!-- 3 -->
<g id="node14" class="node">
<title>3</title>
<ellipse fill="none" stroke="black" cx="1630.65" cy="-1602" rx="27" ry="30.31"/>
<text text-anchor="middle" x="1630.65" y="-1593.9" font-family="Times,serif" font-size="32.00">3</text>
</g>
<!-- d&#45;&gt;3 -->
<g id="edge25" class="edge">
<title>d&#45;&gt;3</title>
<path fill="none" stroke="#000000" d="M2366.57,-1330.51C2287.21,-1341.88 2041.41,-1381.71 1853.65,-1462 1779.92,-1493.53 1702.65,-1547.87 1661.55,-1578.76"/>
<polygon fill="#000000" stroke="#000000" points="1659.2,-1576.15 1653.34,-1584.98 1663.43,-1581.73 1659.2,-1576.15"/>
<text text-anchor="middle" x="2036.15" y="-1461.4" font-family="Times,serif" font-size="32.00">hug</text>
<text text-anchor="middle" x="2036.15" y="-1426.4" font-family="Times,serif" font-size="32.00">=d *k 3</text>
</g>
<!-- n -->
<g id="node4" class="node">
<title>n</title>
<ellipse fill="none" stroke="black" cx="2576.48" cy="-1228" rx="27" ry="30.31"/>
<text text-anchor="middle" x="2576.48" y="-1219.9" font-family="Times,serif" font-size="32.00">n</text>
</g>
<!-- n&#45;&gt;d -->
<g id="edge2" class="edge">
<title>n&#45;&gt;d</title>
<path fill="none" stroke="#000000" d="M2550.4,-1219.54C2521.01,-1211.29 2472.07,-1202.91 2438.48,-1225 2417.66,-1238.69 2406.64,-1264.55 2400.84,-1286.8"/>
<polygon fill="#000000" stroke="#000000" points="2397.39,-1286.18 2398.53,-1296.71 2404.21,-1287.77 2397.39,-1286.18"/>
<text text-anchor="middle" x="2484.98" y="-1374.4" font-family="Times,serif" font-size="32.00">this |</text>
<text text-anchor="middle" x="2484.98" y="-1339.4" font-family="Times,serif" font-size="32.00"> a |</text>
<text text-anchor="middle" x="2484.98" y="-1304.4" font-family="Times,serif" font-size="32.00"> the |</text>
<text text-anchor="middle" x="2484.98" y="-1269.4" font-family="Times,serif" font-size="32.00"> some</text>
<text text-anchor="middle" x="2484.98" y="-1234.4" font-family="Times,serif" font-size="32.00">=n d &#45;k</text>
</g>
<!-- z1 -->
<g id="node5" class="node">
<title>z1</title>
<ellipse fill="none" stroke="black" stroke-dasharray="5,2" cx="2729.48" cy="-1228" rx="27" ry="18"/>
</g>
<!-- z1&#45;&gt;n -->
<g id="edge3" class="edge">
<title>z1&#45;&gt;n</title>
<path fill="none" stroke="#000000" d="M2702.17,-1228C2677.71,-1228 2641.03,-1228 2613.78,-1228"/>
<polygon fill="#000000" stroke="#000000" points="2613.48,-1224.5 2603.48,-1228 2613.48,-1231.5 2613.48,-1224.5"/>
<text text-anchor="middle" x="2652.98" y="-1307.4" font-family="Times,serif" font-size="32.00">boy |</text>
<text text-anchor="middle" x="2652.98" y="-1272.4" font-family="Times,serif" font-size="32.00"> girl</text>
<text text-anchor="middle" x="2652.98" y="-1237.4" font-family="Times,serif" font-size="32.00">n</text>
</g>
<!-- 0&#45;&gt;t -->
<g id="edge4" class="edge">
<title>0&#45;&gt;t</title>
<path fill="none" stroke="#000000" d="M1333.65,-1329.62C1351.84,-1314.57 1379.43,-1293.76 1406.65,-1281 1460.33,-1255.83 1494.55,-1289.74 1535.65,-1247 1561.21,-1220.42 1529.21,-1193.62 1553.65,-1166 1641.77,-1066.41 1749.72,-1167.49 1835.65,-1066 1877.82,-1016.19 1894.27,-819.42 1899.54,-733.5"/>
<polygon fill="#000000" stroke="#000000" points="1903.04,-733.53 1900.14,-723.34 1896.06,-733.12 1903.04,-733.53"/>
<text text-anchor="middle" x="1630.65" y="-1245.4" font-family="Times,serif" font-size="32.00">s |</text>
<text text-anchor="middle" x="1630.65" y="-1210.4" font-family="Times,serif" font-size="32.00"> d</text>
<text text-anchor="middle" x="1630.65" y="-1175.4" font-family="Times,serif" font-size="32.00">=&gt;0 =d +k t</text>
</g>
<!-- 0&#45;&gt;v -->
<g id="edge10" class="edge">
<title>0&#45;&gt;v</title>
<path fill="none" stroke="#000000" d="M1284.63,-1351.1C1237.86,-1355.53 1137.51,-1359.77 1062.65,-1326 865.79,-1237.19 706.88,-1017.55 651.63,-933.99"/>
<polygon fill="#000000" stroke="#000000" points="654.42,-931.86 646.01,-925.41 648.56,-935.69 654.42,-931.86"/>
<text text-anchor="middle" x="976.65" y="-1359.4" font-family="Times,serif" font-size="32.00">ε_0</text>
<text text-anchor="middle" x="976.65" y="-1324.4" font-family="Times,serif" font-size="32.00">=&gt;0 =d v</text>
</g>
<!-- 0&#45;&gt;prog -->
<g id="edge11" class="edge">
<title>0&#45;&gt;prog</title>
<path fill="none" stroke="#000000" d="M1284.73,-1352.84C1267.54,-1357.49 1246.12,-1366.38 1234.65,-1383 1201.87,-1430.48 1258.84,-1602.64 1216.65,-1642 1166.6,-1688.69 1128.92,-1659.11 1062.65,-1642 600.37,-1522.66 497.39,-1417.84 122.65,-1122 107.77,-1110.25 93.31,-1095.18 81.48,-1081.56"/>
<polygon fill="#000000" stroke="#000000" points="83.98,-1079.09 74.83,-1073.74 78.64,-1083.63 83.98,-1079.09"/>
<text text-anchor="middle" x="629.65" y="-1570.4" font-family="Times,serif" font-size="32.00">ing</text>
<text text-anchor="middle" x="629.65" y="-1535.4" font-family="Times,serif" font-size="32.00">=&gt;0 =d prog</text>
</g>
<!-- 0&#45;&gt;perf -->
<g id="edge12" class="edge">
<title>0&#45;&gt;perf</title>
<path fill="none" stroke="#000000" d="M1290.82,-1328.52C1235.56,-1274.27 1079.45,-1120.96 1010.77,-1053.52"/>
<polygon fill="#000000" stroke="#000000" points="1013.21,-1051.01 1003.62,-1046.5 1008.3,-1056.01 1013.21,-1051.01"/>
<text text-anchor="middle" x="1139.65" y="-1296.4" font-family="Times,serif" font-size="32.00">n</text>
<text text-anchor="middle" x="1139.65" y="-1261.4" font-family="Times,serif" font-size="32.00">=&gt;0 =d perf</text>
</g>
<!-- z2 -->
<g id="node7" class="node">
<title>z2</title>
<ellipse fill="none" stroke="black" stroke-dasharray="5,2" cx="1630.65" cy="-1298" rx="27" ry="18"/>
</g>
<!-- z2&#45;&gt;0 -->
<g id="edge5" class="edge">
<title>z2&#45;&gt;0</title>
<path fill="none" stroke="#000000" d="M1604.37,-1293.35C1562.47,-1286.58 1476.31,-1276.72 1406.65,-1295 1383.81,-1300.99 1360.68,-1313.93 1343.08,-1325.52"/>
<polygon fill="#000000" stroke="#000000" points="1340.71,-1322.9 1334.41,-1331.42 1344.64,-1328.69 1340.71,-1322.9"/>
<text text-anchor="middle" x="1471.15" y="-1444.4" font-family="Times,serif" font-size="32.00">dance |</text>
<text text-anchor="middle" x="1471.15" y="-1409.4" font-family="Times,serif" font-size="32.00"> laugh |</text>
<text text-anchor="middle" x="1471.15" y="-1374.4" font-family="Times,serif" font-size="32.00"> smile |</text>
<text text-anchor="middle" x="1471.15" y="-1339.4" font-family="Times,serif" font-size="32.00"> jump</text>
<text text-anchor="middle" x="1471.15" y="-1304.4" font-family="Times,serif" font-size="32.00">0</text>
</g>
<!-- v&#45;&gt;t -->
<g id="edge30" class="edge">
<title>v&#45;&gt;t</title>
<path fill="none" stroke="#000000" d="M655.39,-891.76C675.43,-884.61 704.52,-874.94 730.65,-869 757.23,-862.96 1197.14,-821.03 1216.65,-802 1252.12,-767.41 1196.9,-724.08 1234.65,-692 1286.81,-647.68 1320.67,-684.02 1388.65,-692 1455.35,-699.83 1471.54,-707 1535.65,-727 1543.85,-729.56 1545.22,-732.42 1553.65,-734 1667.21,-755.3 1803.82,-722.43 1866.77,-704.04"/>
<polygon fill="#000000" stroke="#000000" points="1867.99,-707.33 1876.58,-701.12 1866,-700.62 1867.99,-707.33"/>
<text text-anchor="middle" x="1311.65" y="-771.4" font-family="Times,serif" font-size="32.00">wills |</text>
<text text-anchor="middle" x="1311.65" y="-736.4" font-family="Times,serif" font-size="32.00"> willd</text>
<text text-anchor="middle" x="1311.65" y="-701.4" font-family="Times,serif" font-size="32.00">=v +k t</text>
</g>
<!-- to -->
<g id="node16" class="node">
<title>to</title>
<ellipse fill="none" stroke="black" cx="324.65" cy="-901" rx="28.98" ry="30.31"/>
<text text-anchor="middle" x="324.65" y="-892.9" font-family="Times,serif" font-size="32.00">to</text>
</g>
<!-- v&#45;&gt;to -->
<g id="edge49" class="edge">
<title>v&#45;&gt;to</title>
<path fill="none" stroke="#000000" d="M609.44,-880.78C590.78,-862.72 560.65,-837.55 528.65,-827 471.25,-808.07 447.9,-802.49 392.65,-827 373.94,-835.3 358.23,-851.7 346.74,-866.95"/>
<polygon fill="#000000" stroke="#000000" points="343.77,-865.08 340.79,-875.25 349.46,-869.16 343.77,-865.08"/>
<text text-anchor="middle" x="460.65" y="-871.4" font-family="Times,serif" font-size="32.00">to</text>
<text text-anchor="middle" x="460.65" y="-836.4" font-family="Times,serif" font-size="32.00">=v to</text>
</g>
<!-- prog&#45;&gt;t -->
<g id="edge31" class="edge">
<title>prog&#45;&gt;t</title>
<path fill="none" stroke="#000000" d="M53.38,-1015.57C54.09,-905.67 61.06,-530.46 122.65,-431 178.67,-340.55 217.26,-301 323.65,-301 811.65,-301 811.65,-301 811.65,-301 915.21,-301 952.48,-253.79 1044.65,-301 1056.84,-307.24 1050.74,-319.25 1062.65,-326 1125.24,-361.43 1636.5,-369.56 1707.65,-380 1765.18,-388.44 1795.08,-365.35 1835.65,-407 1866.55,-438.72 1844.17,-461.74 1853.65,-505 1865.03,-556.88 1880.6,-616.17 1890.88,-654.06"/>
<polygon fill="#000000" stroke="#000000" points="1887.63,-655.43 1893.63,-664.16 1894.38,-653.59 1887.63,-655.43"/>
<text text-anchor="middle" x="976.65" y="-380.4" font-family="Times,serif" font-size="32.00">bes |</text>
<text text-anchor="middle" x="976.65" y="-345.4" font-family="Times,serif" font-size="32.00"> bed</text>
<text text-anchor="middle" x="976.65" y="-310.4" font-family="Times,serif" font-size="32.00">=prog +k t</text>
</g>
<!-- prog&#45;&gt;v -->
<g id="edge32" class="edge">
<title>prog&#45;&gt;v</title>
<path fill="none" stroke="#000000" d="M102.94,-1053.73C192.96,-1065.36 387.01,-1079.22 528.65,-1010 562.65,-993.39 590.64,-959.79 608.27,-934.26"/>
<polygon fill="#000000" stroke="#000000" points="611.18,-936.2 613.85,-925.95 605.37,-932.3 611.18,-936.2"/>
<text text-anchor="middle" x="324.65" y="-1107.4" font-family="Times,serif" font-size="32.00">be</text>
<text text-anchor="middle" x="324.65" y="-1072.4" font-family="Times,serif" font-size="32.00">=prog v</text>
</g>
<!-- prog&#45;&gt;perf -->
<g id="edge33" class="edge">
<title>prog&#45;&gt;perf</title>
<path fill="none" stroke="#000000" d="M92.05,-1066.13C194.46,-1116.71 480.52,-1240.67 712.65,-1177 801.46,-1152.64 890.67,-1089.67 938.96,-1051.59"/>
<polygon fill="#000000" stroke="#000000" points="941.28,-1054.22 946.92,-1045.25 936.92,-1048.74 941.28,-1054.22"/>
<text text-anchor="middle" x="460.65" y="-1238.4" font-family="Times,serif" font-size="32.00">ben</text>
<text text-anchor="middle" x="460.65" y="-1203.4" font-family="Times,serif" font-size="32.00">=prog perf</text>
</g>
<!-- perf&#45;&gt;t -->
<g id="edge46" class="edge">
<title>perf&#45;&gt;t</title>
<path fill="none" stroke="#000000" d="M984.31,-990.72C994.37,-952.6 1017.29,-888.13 1062.65,-855 1121.95,-811.69 1332.24,-848.01 1388.65,-801 1406.8,-785.88 1387.33,-764.58 1406.65,-751 1453.56,-718.03 1482.06,-730.62 1535.65,-751 1545.66,-754.8 1543.65,-763.2 1553.65,-767 1670.8,-811.54 1721.27,-818.25 1835.65,-767 1854.34,-758.63 1869.91,-742.05 1881.23,-726.71"/>
<polygon fill="#000000" stroke="#000000" points="1884.2,-728.57 1887.07,-718.37 1878.47,-724.56 1884.2,-728.57"/>
<text text-anchor="middle" x="1471.15" y="-830.4" font-family="Times,serif" font-size="32.00">haves |</text>
<text text-anchor="middle" x="1471.15" y="-795.4" font-family="Times,serif" font-size="32.00"> haved</text>
<text text-anchor="middle" x="1471.15" y="-760.4" font-family="Times,serif" font-size="32.00">=perf +k t</text>
</g>
<!-- perf&#45;&gt;v -->
<g id="edge47" class="edge">
<title>perf&#45;&gt;v</title>
<path fill="none" stroke="#000000" d="M955.48,-993.22C940,-974.12 916.88,-949.95 890.65,-937 880.72,-932.1 735.77,-913.86 666.72,-905.38"/>
<polygon fill="#000000" stroke="#000000" points="667.07,-901.9 656.72,-904.16 666.22,-908.85 667.07,-901.9"/>
<text text-anchor="middle" x="810.65" y="-981.4" font-family="Times,serif" font-size="32.00">have</text>
<text text-anchor="middle" x="810.65" y="-946.4" font-family="Times,serif" font-size="32.00">=perf v</text>
</g>
<!-- pass&#45;&gt;t -->
<g id="edge34" class="edge">
<title>pass&#45;&gt;t</title>
<path fill="none" stroke="#000000" d="M2120.36,-693C2067.82,-693 1986.63,-693 1939.98,-693"/>
<polygon fill="#000000" stroke="#000000" points="1939.73,-689.5 1929.73,-693 1939.73,-696.5 1939.73,-689.5"/>
<text text-anchor="middle" x="2036.15" y="-772.4" font-family="Times,serif" font-size="32.00">bes_1 |</text>
<text text-anchor="middle" x="2036.15" y="-737.4" font-family="Times,serif" font-size="32.00"> bed_1</text>
<text text-anchor="middle" x="2036.15" y="-702.4" font-family="Times,serif" font-size="32.00">=pass +k t</text>
</g>
<!-- pass&#45;&gt;v -->
<g id="edge35" class="edge">
<title>pass&#45;&gt;v</title>
<path fill="none" stroke="#000000" d="M2143.23,-667.37C2039.94,-573.7 1666.13,-263.79 1406.65,-428 1390.86,-437.99 1401.52,-452.45 1388.65,-466 1335.12,-522.39 1285.39,-490.09 1234.65,-549 1219.24,-566.9 1234.68,-583.74 1216.65,-599 1163.56,-643.95 1131.02,-614.13 1062.65,-627 914.09,-654.98 848.7,-606.56 730.65,-701 679.36,-742.03 652.19,-816.2 639.65,-861.77"/>
<polygon fill="#000000" stroke="#000000" points="636.23,-861.03 637.06,-871.59 643,-862.82 636.23,-861.03"/>
<text text-anchor="middle" x="1471.15" y="-472.4" font-family="Times,serif" font-size="32.00">be_1</text>
<text text-anchor="middle" x="1471.15" y="-437.4" font-family="Times,serif" font-size="32.00">=pass v</text>
</g>
<!-- pass&#45;&gt;prog -->
<g id="edge37" class="edge">
<title>pass&#45;&gt;prog</title>
<path fill="none" stroke="#000000" d="M2164.85,-662.6C2156.71,-626.82 2138.59,-567.53 2102.65,-530 2012.02,-435.38 1959.17,-448.71 1835.65,-405 1568.49,-310.47 1497.96,-286.25 1216.65,-252 1111.2,-239.16 1083.88,-255 977.65,-255 977.65,-255 977.65,-255 323.65,-255 231.49,-255 182.58,-235.98 122.65,-306 76.97,-359.38 58.84,-857.56 54.44,-1005.05"/>
<polygon fill="#000000" stroke="#000000" points="50.93,-1005.35 54.14,-1015.45 57.93,-1005.56 50.93,-1005.35"/>
<text text-anchor="middle" x="1139.65" y="-296.4" font-family="Times,serif" font-size="32.00">being</text>
<text text-anchor="middle" x="1139.65" y="-261.4" font-family="Times,serif" font-size="32.00">=pass prog</text>
</g>
<!-- pass&#45;&gt;perf -->
<g id="edge36" class="edge">
<title>pass&#45;&gt;perf</title>
<path fill="none" stroke="#000000" d="M2160.62,-722.77C2150.37,-748.39 2131.75,-783.99 2102.65,-802 1995.03,-868.62 1661.89,-846.79 1535.65,-856 1483.17,-859.83 1107.8,-852.97 1062.65,-880 1025.27,-902.38 1002.26,-948.11 989.77,-981.44"/>
<polygon fill="#000000" stroke="#000000" points="986.46,-980.32 986.38,-990.92 993.05,-982.68 986.46,-980.32"/>
<text text-anchor="middle" x="1630.65" y="-899.4" font-family="Times,serif" font-size="32.00">ben_1</text>
<text text-anchor="middle" x="1630.65" y="-864.4" font-family="Times,serif" font-size="32.00">=pass perf</text>
</g>
<!-- 1&#45;&gt;0 -->
<g id="edge14" class="edge">
<title>1&#45;&gt;0</title>
<path fill="none" stroke="#000000" d="M1609.26,-1750.71C1590.56,-1733.28 1561.87,-1707.18 1535.65,-1686 1480.47,-1641.42 1441.75,-1653.65 1406.65,-1592 1364.47,-1517.9 1431.6,-1474.66 1388.65,-1401 1378.97,-1384.39 1361.75,-1371.73 1346.16,-1362.96"/>
<polygon fill="#000000" stroke="#000000" points="1347.71,-1359.82 1337.23,-1358.25 1344.44,-1366.01 1347.71,-1359.82"/>
<text text-anchor="middle" x="1471.15" y="-1730.4" font-family="Times,serif" font-size="32.00">ε_1</text>
<text text-anchor="middle" x="1471.15" y="-1695.4" font-family="Times,serif" font-size="32.00">=&gt;1 0</text>
</g>
<!-- 1&#45;&gt;v -->
<g id="edge16" class="edge">
<title>1&#45;&gt;v</title>
<path fill="none" stroke="#000000" d="M1603.77,-1773.15C1584.91,-1775.28 1558.74,-1777.9 1535.65,-1779 1321.12,-1789.25 1243.6,-1795.7 1062.65,-1680 1046.49,-1669.67 736.62,-1309.41 730.65,-1295 689.73,-1196.17 742.43,-1157.74 712.65,-1055 699.57,-1009.85 672.22,-962.85 652.7,-932.84"/>
<polygon fill="#000000" stroke="#000000" points="655.6,-930.88 647.17,-924.46 649.76,-934.73 655.6,-930.88"/>
<text text-anchor="middle" x="1139.65" y="-1801.4" font-family="Times,serif" font-size="32.00">ε_2</text>
<text text-anchor="middle" x="1139.65" y="-1766.4" font-family="Times,serif" font-size="32.00">=&gt;1 =d v</text>
</g>
<!-- 1&#45;&gt;prog -->
<g id="edge17" class="edge">
<title>1&#45;&gt;prog</title>
<path fill="none" stroke="#000000" d="M1605.7,-1782.16C1553.74,-1807.37 1426.21,-1863 1312.65,-1863 1312.65,-1863 1312.65,-1863 323.65,-1863 162.05,-1863 179.56,-1711.25 122.65,-1560 59.65,-1392.57 52.68,-1175.44 52.72,-1086.59"/>
<polygon fill="#000000" stroke="#000000" points="56.22,-1086.42 52.76,-1076.41 49.22,-1086.39 56.22,-1086.42"/>
<text text-anchor="middle" x="810.65" y="-1907.4" font-family="Times,serif" font-size="32.00">ing_1</text>
<text text-anchor="middle" x="810.65" y="-1872.4" font-family="Times,serif" font-size="32.00">=&gt;1 =d prog</text>
</g>
<!-- 1&#45;&gt;perf -->
<g id="edge18" class="edge">
<title>1&#45;&gt;perf</title>
<path fill="none" stroke="#000000" d="M1603.64,-1771.83C1551.59,-1774.95 1436.98,-1778.92 1406.65,-1756 1387.47,-1741.51 1401.3,-1725.44 1388.65,-1705 1279.01,-1527.79 1152.65,-1555.95 1062.65,-1368 1034.8,-1309.83 1058.83,-1286.92 1044.65,-1224 1031.5,-1165.63 1008.35,-1100.28 993,-1059.88"/>
<polygon fill="#000000" stroke="#000000" points="996.22,-1058.5 989.37,-1050.41 989.68,-1061 996.22,-1058.5"/>
<text text-anchor="middle" x="1311.65" y="-1749.4" font-family="Times,serif" font-size="32.00">n_1</text>
<text text-anchor="middle" x="1311.65" y="-1714.4" font-family="Times,serif" font-size="32.00">=&gt;1 =d perf</text>
</g>
<!-- 2&#45;&gt;0 -->
<g id="edge19" class="edge">
<title>2&#45;&gt;0</title>
<path fill="none" stroke="#000000" d="M1604.68,-965.66C1559.72,-952.35 1464.47,-932.2 1406.65,-978 1393.44,-988.46 1341.9,-1215.82 1321.26,-1308.85"/>
<polygon fill="#000000" stroke="#000000" points="1317.82,-1308.21 1319.07,-1318.73 1324.65,-1309.72 1317.82,-1308.21"/>
<text text-anchor="middle" x="1471.15" y="-1022.4" font-family="Times,serif" font-size="32.00">ε_3</text>
<text text-anchor="middle" x="1471.15" y="-987.4" font-family="Times,serif" font-size="32.00">=&gt;2 0</text>
</g>
<!-- 2&#45;&gt;v -->
<g id="edge21" class="edge">
<title>2&#45;&gt;v</title>
<path fill="none" stroke="#000000" d="M1607.22,-958.68C1588.85,-946.99 1561.73,-931.64 1535.65,-924 1210.3,-828.65 790.68,-877.66 666.66,-895.45"/>
<polygon fill="#000000" stroke="#000000" points="665.97,-892.01 656.58,-896.92 666.98,-898.94 665.97,-892.01"/>
<text text-anchor="middle" x="1139.65" y="-916.4" font-family="Times,serif" font-size="32.00">ε_4</text>
<text text-anchor="middle" x="1139.65" y="-881.4" font-family="Times,serif" font-size="32.00">=&gt;2 =d v</text>
</g>
<!-- 2&#45;&gt;prog -->
<g id="edge22" class="edge">
<title>2&#45;&gt;prog</title>
<path fill="none" stroke="#000000" d="M1604.41,-965.98C1587.08,-959.07 1565.2,-947.28 1553.65,-929 1530.05,-891.65 1561.52,-766.82 1535.65,-731 1493.94,-673.23 1457.84,-684.03 1388.65,-667 1104.26,-596.98 1017.53,-572.03 730.65,-631 442.61,-690.21 332.4,-685.89 122.65,-892 90.77,-923.33 72.27,-971.96 62.53,-1006.17"/>
<polygon fill="#000000" stroke="#000000" points="59.14,-1005.28 59.89,-1015.85 65.9,-1007.12 59.14,-1005.28"/>
<text text-anchor="middle" x="810.65" y="-675.4" font-family="Times,serif" font-size="32.00">ing_2</text>
<text text-anchor="middle" x="810.65" y="-640.4" font-family="Times,serif" font-size="32.00">=&gt;2 =d prog</text>
</g>
<!-- 2&#45;&gt;perf -->
<g id="edge23" class="edge">
<title>2&#45;&gt;perf</title>
<path fill="none" stroke="#000000" d="M1606.17,-960.86C1587.66,-951.29 1560.85,-939.14 1535.65,-934 1479.47,-922.54 1463.81,-929.54 1406.65,-934 1329.51,-940.02 1307.28,-934.31 1234.65,-961 1225.85,-964.23 1225.37,-968.56 1216.65,-972 1156.87,-995.56 1084.01,-1008.4 1034.56,-1014.96"/>
<polygon fill="#000000" stroke="#000000" points="1033.86,-1011.52 1024.38,-1016.26 1034.75,-1018.46 1033.86,-1011.52"/>
<text text-anchor="middle" x="1311.65" y="-1005.4" font-family="Times,serif" font-size="32.00">n_2</text>
<text text-anchor="middle" x="1311.65" y="-970.4" font-family="Times,serif" font-size="32.00">=&gt;2 =d perf</text>
</g>
<!-- 3&#45;&gt;0 -->
<g id="edge24" class="edge">
<title>3&#45;&gt;0</title>
<path fill="none" stroke="#000000" d="M1611.55,-1580.02C1594.18,-1560.51 1566.16,-1532.84 1535.65,-1518 1483.28,-1492.52 1448.09,-1535.92 1406.65,-1495 1376.38,-1465.11 1411.8,-1436.68 1388.65,-1401 1378.36,-1385.13 1361.48,-1372.66 1346.25,-1363.81"/>
<polygon fill="#000000" stroke="#000000" points="1347.5,-1360.5 1337.05,-1358.77 1344.14,-1366.64 1347.5,-1360.5"/>
<text text-anchor="middle" x="1471.15" y="-1562.4" font-family="Times,serif" font-size="32.00">ε_5</text>
<text text-anchor="middle" x="1471.15" y="-1527.4" font-family="Times,serif" font-size="32.00">=&gt;3 0</text>
</g>
<!-- 3&#45;&gt;v -->
<g id="edge26" class="edge">
<title>3&#45;&gt;v</title>
<path fill="none" stroke="#000000" d="M1603.92,-1608.31C1539.78,-1622.87 1368.31,-1654.49 1234.65,-1613 942.14,-1522.19 853.88,-1423.4 730.65,-1143 714.59,-1106.45 726.17,-1092.56 712.65,-1055 696.85,-1011.09 670.37,-964.26 651.78,-933.92"/>
<polygon fill="#000000" stroke="#000000" points="654.53,-931.71 646.29,-925.06 648.58,-935.4 654.53,-931.71"/>
<text text-anchor="middle" x="1139.65" y="-1650.4" font-family="Times,serif" font-size="32.00">ε_6</text>
<text text-anchor="middle" x="1139.65" y="-1615.4" font-family="Times,serif" font-size="32.00">=&gt;3 =d v</text>
</g>
<!-- 3&#45;&gt;prog -->
<g id="edge27" class="edge">
<title>3&#45;&gt;prog</title>
<path fill="none" stroke="#000000" d="M1618.43,-1629.31C1604.19,-1660.05 1576.46,-1708.6 1535.65,-1731 1448.59,-1778.77 1411.96,-1745 1312.65,-1745 1312.65,-1745 1312.65,-1745 323.65,-1745 181.5,-1745 85.07,-1235.76 59.88,-1086.59"/>
<polygon fill="#000000" stroke="#000000" points="63.29,-1085.77 58.18,-1076.48 56.38,-1086.93 63.29,-1085.77"/>
<text text-anchor="middle" x="810.65" y="-1789.4" font-family="Times,serif" font-size="32.00">ing_3</text>
<text text-anchor="middle" x="810.65" y="-1754.4" font-family="Times,serif" font-size="32.00">=&gt;3 =d prog</text>
</g>
<!-- 3&#45;&gt;perf -->
<g id="edge28" class="edge">
<title>3&#45;&gt;perf</title>
<path fill="none" stroke="#000000" d="M1603.6,-1604.33C1550.91,-1608.42 1434.34,-1614.19 1406.65,-1588 1357.54,-1541.56 1431.56,-1489.22 1388.65,-1437 1342.97,-1381.4 1302.79,-1410.14 1234.65,-1387 1157.85,-1360.92 1115.05,-1387.91 1062.65,-1326 1032.91,-1290.86 1055.89,-1268.64 1044.65,-1224 1030.04,-1165.98 1007.26,-1100.54 992.4,-1060.02"/>
<polygon fill="#000000" stroke="#000000" points="995.64,-1058.7 988.89,-1050.53 989.07,-1061.12 995.64,-1058.7"/>
<text text-anchor="middle" x="1311.65" y="-1481.4" font-family="Times,serif" font-size="32.00">n_3</text>
<text text-anchor="middle" x="1311.65" y="-1446.4" font-family="Times,serif" font-size="32.00">=&gt;3 =d perf</text>
</g>
<!-- c2&#45;&gt;0 -->
<g id="edge29" class="edge">
<title>c2&#45;&gt;0</title>
<path fill="none" stroke="#000000" d="M1597.33,-1051.56C1542.77,-1049.8 1435.5,-1049.44 1406.65,-1072 1333.72,-1129.04 1317.02,-1245.48 1313.43,-1307.31"/>
<polygon fill="#000000" stroke="#000000" points="1309.92,-1307.31 1312.93,-1317.47 1316.92,-1307.65 1309.92,-1307.31"/>
<text text-anchor="middle" x="1471.15" y="-1221.4" font-family="Times,serif" font-size="32.00">declare |</text>
<text text-anchor="middle" x="1471.15" y="-1186.4" font-family="Times,serif" font-size="32.00"> think |</text>
<text text-anchor="middle" x="1471.15" y="-1151.4" font-family="Times,serif" font-size="32.00"> explain |</text>
<text text-anchor="middle" x="1471.15" y="-1116.4" font-family="Times,serif" font-size="32.00"> say</text>
<text text-anchor="middle" x="1471.15" y="-1081.4" font-family="Times,serif" font-size="32.00">=c2 0</text>
</g>
<!-- to&#45;&gt;t -->
<g id="edge38" class="edge">
<title>to&#45;&gt;t</title>
<path fill="none" stroke="#000000" d="M340.27,-874.89C352.45,-854.7 371.23,-826.93 392.65,-807 644.4,-572.73 730.43,-508.8 1062.65,-420 1228.88,-375.57 1713.52,-343.79 1835.65,-465 1849.23,-478.47 1877.83,-592.33 1892.52,-653.88"/>
<polygon fill="#000000" stroke="#000000" points="1889.12,-654.72 1894.84,-663.64 1895.93,-653.1 1889.12,-654.72"/>
<text text-anchor="middle" x="1139.65" y="-569.4" font-family="Times,serif" font-size="32.00">seems |</text>
<text text-anchor="middle" x="1139.65" y="-534.4" font-family="Times,serif" font-size="32.00"> seemd |</text>
<text text-anchor="middle" x="1139.65" y="-499.4" font-family="Times,serif" font-size="32.00"> appears |</text>
<text text-anchor="middle" x="1139.65" y="-464.4" font-family="Times,serif" font-size="32.00"> appeard</text>
<text text-anchor="middle" x="1139.65" y="-429.4" font-family="Times,serif" font-size="32.00">=to +k t</text>
</g>
<!-- to&#45;&gt;v -->
<g id="edge39" class="edge">
<title>to&#45;&gt;v</title>
<path fill="none" stroke="#000000" d="M353.98,-901C409.19,-901 531.12,-901 592.23,-901"/>
<polygon fill="#000000" stroke="#000000" points="592.56,-904.5 602.56,-901 592.56,-897.5 592.56,-904.5"/>
<text text-anchor="middle" x="460.65" y="-980.4" font-family="Times,serif" font-size="32.00">seem |</text>
<text text-anchor="middle" x="460.65" y="-945.4" font-family="Times,serif" font-size="32.00"> appear</text>
<text text-anchor="middle" x="460.65" y="-910.4" font-family="Times,serif" font-size="32.00">=to v</text>
</g>
<!-- to&#45;&gt;prog -->
<g id="edge41" class="edge">
<title>to&#45;&gt;prog</title>
<path fill="none" stroke="#000000" d="M295.67,-897.32C254.22,-893.37 175.72,-891.78 122.65,-927 94.71,-945.55 76.57,-979.5 65.89,-1006.4"/>
<polygon fill="#000000" stroke="#000000" points="62.54,-1005.36 62.28,-1015.95 69.09,-1007.83 62.54,-1005.36"/>
<text text-anchor="middle" x="189.65" y="-1006.4" font-family="Times,serif" font-size="32.00">seeming |</text>
<text text-anchor="middle" x="189.65" y="-971.4" font-family="Times,serif" font-size="32.00"> appearing</text>
<text text-anchor="middle" x="189.65" y="-936.4" font-family="Times,serif" font-size="32.00">=to prog</text>
</g>
<!-- to&#45;&gt;perf -->
<g id="edge40" class="edge">
<title>to&#45;&gt;perf</title>
<path fill="none" stroke="#000000" d="M335,-929.71C344.92,-955.01 363.29,-990.36 392.65,-1007 564.81,-1104.56 813.91,-1061.31 922.12,-1035.4"/>
<polygon fill="#000000" stroke="#000000" points="923.26,-1038.72 932.15,-1032.95 921.6,-1031.92 923.26,-1038.72"/>
<text text-anchor="middle" x="629.65" y="-1147.4" font-family="Times,serif" font-size="32.00">seemn |</text>
<text text-anchor="middle" x="629.65" y="-1112.4" font-family="Times,serif" font-size="32.00"> appearn</text>
<text text-anchor="middle" x="629.65" y="-1077.4" font-family="Times,serif" font-size="32.00">=to perf</text>
</g>
<!-- c1&#45;&gt;t -->
<g id="edge42" class="edge">
<title>c1&#45;&gt;t</title>
<path fill="none" stroke="#000000" d="M1344.65,-583.78C1392.25,-575.91 1481.86,-554.71 1535.65,-502 1550.74,-487.21 1536.11,-469.78 1553.65,-458 1610.48,-419.85 1645.74,-428.83 1707.65,-458 1795.42,-499.36 1857,-602.06 1884.87,-656.99"/>
<polygon fill="#000000" stroke="#000000" points="1881.77,-658.63 1889.36,-666.02 1888.04,-655.51 1881.77,-658.63"/>
<text text-anchor="middle" x="1630.65" y="-607.4" font-family="Times,serif" font-size="32.00">seems_1 |</text>
<text text-anchor="middle" x="1630.65" y="-572.4" font-family="Times,serif" font-size="32.00"> seemd_1 |</text>
<text text-anchor="middle" x="1630.65" y="-537.4" font-family="Times,serif" font-size="32.00"> appears_1 |</text>
<text text-anchor="middle" x="1630.65" y="-502.4" font-family="Times,serif" font-size="32.00"> appeard_1</text>
<text text-anchor="middle" x="1630.65" y="-467.4" font-family="Times,serif" font-size="32.00">=c1 +k t</text>
</g>
<!-- c1&#45;&gt;v -->
<g id="edge43" class="edge">
<title>c1&#45;&gt;v</title>
<path fill="none" stroke="#000000" d="M1281.5,-601.6C1263.17,-609.77 1238.87,-619.92 1216.65,-627 1082.89,-669.61 1039.11,-645.16 908.65,-697 823.29,-730.92 803.4,-745.93 730.65,-802 703.2,-823.16 675.46,-851.27 656.19,-872.13"/>
<polygon fill="#000000" stroke="#000000" points="653.39,-870 649.23,-879.74 658.56,-874.72 653.39,-870"/>
<text text-anchor="middle" x="976.65" y="-776.4" font-family="Times,serif" font-size="32.00">seem_1 |</text>
<text text-anchor="middle" x="976.65" y="-741.4" font-family="Times,serif" font-size="32.00"> appear_1</text>
<text text-anchor="middle" x="976.65" y="-706.4" font-family="Times,serif" font-size="32.00">=c1 v</text>
</g>
<!-- c1&#45;&gt;prog -->
<g id="edge45" class="edge">
<title>c1&#45;&gt;prog</title>
<path fill="none" stroke="#000000" d="M1307.17,-557.53C1299.91,-509.82 1278.29,-418.86 1216.65,-379 1159.18,-341.83 1121.97,-344.85 1062.65,-379 1048.84,-386.95 1058.39,-401.94 1044.65,-410 1020.78,-424 574.09,-414.43 546.65,-418 354.14,-443.05 252.1,-378.32 122.65,-523 59.12,-594 53.06,-895 53.02,-1005.28"/>
<polygon fill="#000000" stroke="#000000" points="49.52,-1005.35 53.04,-1015.35 56.52,-1005.34 49.52,-1005.35"/>
<text text-anchor="middle" x="629.65" y="-497.4" font-family="Times,serif" font-size="32.00">seeming_1 |</text>
<text text-anchor="middle" x="629.65" y="-462.4" font-family="Times,serif" font-size="32.00"> appearing_1</text>
<text text-anchor="middle" x="629.65" y="-427.4" font-family="Times,serif" font-size="32.00">=c1 prog</text>
</g>
<!-- c1&#45;&gt;perf -->
<g id="edge44" class="edge">
<title>c1&#45;&gt;perf</title>
<path fill="none" stroke="#000000" d="M1290.45,-611.52C1272.75,-630.78 1245.42,-657.47 1216.65,-674 1154.49,-709.72 1112.7,-670.67 1062.65,-722 1060.33,-724.38 1011.21,-900.28 988.72,-981.14"/>
<polygon fill="#000000" stroke="#000000" points="985.29,-980.4 985.99,-990.97 992.04,-982.28 985.29,-980.4"/>
<text text-anchor="middle" x="1139.65" y="-801.4" font-family="Times,serif" font-size="32.00">seemn_1 |</text>
<text text-anchor="middle" x="1139.65" y="-766.4" font-family="Times,serif" font-size="32.00"> appearn_1</text>
<text text-anchor="middle" x="1139.65" y="-731.4" font-family="Times,serif" font-size="32.00">=c1 perf</text>
</g>
<!-- z3 -->
<g id="node18" class="node">
<title>z3</title>
<ellipse fill="none" stroke="black" stroke-dasharray="5,2" cx="2729.48" cy="-1492" rx="27" ry="18"/>
</g>
<!-- e -->
<g id="node19" class="node">
<title>e</title>
<ellipse fill="none" stroke="black" cx="2576.48" cy="-1492" rx="27" ry="30.31"/>
<text text-anchor="middle" x="2576.48" y="-1483.9" font-family="Times,serif" font-size="32.00">e</text>
</g>
<!-- z3&#45;&gt;e -->
<g id="edge48" class="edge">
<title>z3&#45;&gt;e</title>
<path fill="none" stroke="#000000" d="M2702.17,-1492C2677.71,-1492 2641.03,-1492 2613.78,-1492"/>
<polygon fill="#000000" stroke="#000000" points="2613.48,-1488.5 2603.48,-1492 2613.48,-1495.5 2613.48,-1488.5"/>
<text text-anchor="middle" x="2652.98" y="-1536.4" font-family="Times,serif" font-size="32.00">it</text>
<text text-anchor="middle" x="2652.98" y="-1501.4" font-family="Times,serif" font-size="32.00">e &#45;k</text>
</g>
</g>
</svg>
