<?xml version="1.0" encoding="UTF-8" standalone="no"?>
<!DOCTYPE svg PUBLIC "-//W3C//DTD SVG 1.1//EN"
 "http://www.w3.org/Graphics/SVG/1.1/DTD/svg11.dtd">
<!-- Generated by graphviz version 2.47.1 (20210417.1919)
 -->
<!-- Title: G Pages: 1 -->
<svg width="2764pt" height="1859pt"
 viewBox="0.00 0.00 2764.48 1859.00" xmlns="http://www.w3.org/2000/svg" xmlns:xlink="http://www.w3.org/1999/xlink">
<g id="graph0" class="graph" transform="scale(1 1) rotate(0) translate(4 1855)">
<title>G</title>
<polygon fill="white" stroke="transparent" points="-4,4 -4,-1855 2760.48,-1855 2760.48,4 -4,4"/>
<text text-anchor="middle" x="1378.24" y="-13.4" font-family="Times,serif" font-size="32.00">single contraction: 1 → 0</text>
<!-- t -->
<g id="node1" class="node">
<title>t</title>
<ellipse fill="lightgray" stroke="black" cx="1902.65" cy="-495" rx="27" ry="30.31"/>
<text text-anchor="middle" x="1902.65" y="-486.9" font-family="Times,serif" font-size="32.00">t</text>
</g>
<!-- c2 -->
<g id="node14" class="node">
<title>c2</title>
<ellipse fill="none" stroke="black" cx="1630.65" cy="-693" rx="33.47" ry="30.31"/>
<text text-anchor="middle" x="1630.65" y="-684.9" font-family="Times,serif" font-size="32.00">c2</text>
</g>
<!-- t&#45;&gt;c2 -->
<g id="edge46" class="edge">
<title>t&#45;&gt;c2</title>
<path fill="none" stroke="#000000" d="M1897.23,-524.82C1890.4,-559.96 1873.82,-617.56 1835.65,-649 1829.37,-654.18 1731.38,-673.77 1673.53,-684.99"/>
<polygon fill="#000000" stroke="#000000" points="1672.73,-681.58 1663.57,-686.91 1674.06,-688.45 1672.73,-681.58"/>
<text text-anchor="middle" x="1780.65" y="-718.4" font-family="Times,serif" font-size="32.00">that_1</text>
<text text-anchor="middle" x="1780.65" y="-683.4" font-family="Times,serif" font-size="32.00">=t c2</text>
</g>
<!-- c1 -->
<g id="node16" class="node">
<title>c1</title>
<ellipse fill="none" stroke="black" cx="1311.65" cy="-432" rx="33.47" ry="30.31"/>
<text text-anchor="middle" x="1311.65" y="-423.9" font-family="Times,serif" font-size="32.00">c1</text>
</g>
<!-- t&#45;&gt;c1 -->
<g id="edge45" class="edge">
<title>t&#45;&gt;c1</title>
<path fill="none" stroke="#000000" d="M1886.15,-470.67C1873.82,-452.44 1855.41,-427.55 1835.65,-409 1785.69,-362.09 1773.21,-342.98 1707.65,-323 1575.77,-282.81 1417.19,-365.94 1347.92,-408.7"/>
<polygon fill="#000000" stroke="#000000" points="1345.76,-405.93 1339.14,-414.21 1349.47,-411.86 1345.76,-405.93"/>
<text text-anchor="middle" x="1630.65" y="-367.4" font-family="Times,serif" font-size="32.00">that</text>
<text text-anchor="middle" x="1630.65" y="-332.4" font-family="Times,serif" font-size="32.00">=t =e c1</text>
</g>
<!-- z0 -->
<g id="node2" class="node">
<title>z0</title>
<ellipse fill="none" stroke="black" stroke-dasharray="5,2" cx="2576.48" cy="-1366" rx="27" ry="18"/>
</g>
<!-- d -->
<g id="node3" class="node">
<title>d</title>
<ellipse fill="none" stroke="black" cx="2393.48" cy="-1267" rx="27" ry="30.31"/>
<text text-anchor="middle" x="2393.48" y="-1258.9" font-family="Times,serif" font-size="32.00">d</text>
</g>
<!-- z0&#45;&gt;d -->
<g id="edge1" class="edge">
<title>z0&#45;&gt;d</title>
<path fill="none" stroke="#000000" d="M2549.57,-1368.16C2520.06,-1369.3 2471.65,-1366.96 2438.48,-1344 2424.77,-1334.51 2414.78,-1319.27 2407.83,-1304.85"/>
<polygon fill="#000000" stroke="#000000" points="2410.95,-1303.26 2403.68,-1295.55 2404.56,-1306.11 2410.95,-1303.26"/>
<text text-anchor="middle" x="2484.98" y="-1517.4" font-family="Times,serif" font-size="32.00">Mary |</text>
<text text-anchor="middle" x="2484.98" y="-1482.4" font-family="Times,serif" font-size="32.00"> John |</text>
<text text-anchor="middle" x="2484.98" y="-1447.4" font-family="Times,serif" font-size="32.00"> Alice |</text>
<text text-anchor="middle" x="2484.98" y="-1412.4" font-family="Times,serif" font-size="32.00"> Bob</text>
<text text-anchor="middle" x="2484.98" y="-1377.4" font-family="Times,serif" font-size="32.00">d &#45;k</text>
</g>
<!-- 0 -->
<g id="node6" class="node">
<title>0</title>
<ellipse fill="none" stroke="black" cx="1311.65" cy="-1192" rx="27" ry="30.31"/>
<text text-anchor="middle" x="1311.65" y="-1183.9" font-family="Times,serif" font-size="32.00">0</text>
</g>
<!-- d&#45;&gt;0 -->
<g id="edge9" class="edge">
<title>d&#45;&gt;0</title>
<path fill="none" stroke="#000000" d="M2377.87,-1292.17C2346.9,-1341.9 2269.48,-1448 2172.56,-1448 2172.56,-1448 2172.56,-1448 1629.65,-1448 1580,-1448 1446.73,-1463.31 1406.65,-1434 1341.89,-1386.63 1321.74,-1288.11 1315.48,-1232.49"/>
<polygon fill="#000000" stroke="#000000" points="1318.93,-1231.89 1314.43,-1222.3 1311.97,-1232.6 1318.93,-1231.89"/>
<text text-anchor="middle" x="1902.65" y="-1527.4" font-family="Times,serif" font-size="32.00">praise |</text>
<text text-anchor="middle" x="1902.65" y="-1492.4" font-family="Times,serif" font-size="32.00"> like</text>
<text text-anchor="middle" x="1902.65" y="-1457.4" font-family="Times,serif" font-size="32.00">=d *k 0</text>
</g>
<!-- v -->
<g id="node8" class="node">
<title>v</title>
<ellipse fill="none" stroke="black" cx="629.65" cy="-801" rx="27" ry="30.31"/>
<text text-anchor="middle" x="629.65" y="-792.9" font-family="Times,serif" font-size="32.00">v</text>
</g>
<!-- d&#45;&gt;v -->
<g id="edge6" class="edge">
<title>d&#45;&gt;v</title>
<path fill="none" stroke="#000000" d="M2366.54,-1264.26C2246.41,-1251.44 1749,-1197.14 1725.65,-1174 1687.03,-1135.73 1743.14,-1094.19 1707.65,-1053 1660.94,-998.78 1599,-1061.36 1553.65,-1006 1527.76,-974.39 1565.93,-850.44 1535.65,-823 1514.41,-803.75 1428.4,-804.32 1406.65,-823 1366.41,-857.57 1427.87,-905.28 1388.65,-941 1335.07,-989.8 1134.67,-959.14 1062.65,-951 912.24,-934 868.18,-938.25 730.65,-875 704.04,-862.76 677.56,-842.72 658.54,-826.58"/>
<polygon fill="#000000" stroke="#000000" points="660.71,-823.84 650.86,-819.93 656.13,-829.13 660.71,-823.84"/>
<text text-anchor="middle" x="1630.65" y="-1202.4" font-family="Times,serif" font-size="32.00">dance_1 |</text>
<text text-anchor="middle" x="1630.65" y="-1167.4" font-family="Times,serif" font-size="32.00"> laugh_1 |</text>
<text text-anchor="middle" x="1630.65" y="-1132.4" font-family="Times,serif" font-size="32.00"> smile_1 |</text>
<text text-anchor="middle" x="1630.65" y="-1097.4" font-family="Times,serif" font-size="32.00"> jump_1</text>
<text text-anchor="middle" x="1630.65" y="-1062.4" font-family="Times,serif" font-size="32.00">=d v</text>
</g>
<!-- prog -->
<g id="node9" class="node">
<title>prog</title>
<ellipse fill="none" stroke="black" cx="52.33" cy="-945" rx="52.15" ry="30.31"/>
<text text-anchor="middle" x="52.33" y="-936.9" font-family="Times,serif" font-size="32.00">prog</text>
</g>
<!-- d&#45;&gt;prog -->
<g id="edge7" class="edge">
<title>d&#45;&gt;prog</title>
<path fill="none" stroke="#000000" d="M2393.02,-1297.67C2392.61,-1346.16 2386.53,-1442.18 2348.48,-1512 2297.32,-1605.85 2279.45,-1676 2172.56,-1676 2172.56,-1676 2172.56,-1676 323.65,-1676 197.32,-1676 178.48,-1588.33 122.65,-1475 80.14,-1388.7 61.01,-1094.51 55.28,-985.8"/>
<polygon fill="#000000" stroke="#000000" points="58.76,-985.38 54.75,-975.58 51.77,-985.74 58.76,-985.38"/>
<text text-anchor="middle" x="1311.65" y="-1825.4" font-family="Times,serif" font-size="32.00">danceing |</text>
<text text-anchor="middle" x="1311.65" y="-1790.4" font-family="Times,serif" font-size="32.00"> laughing |</text>
<text text-anchor="middle" x="1311.65" y="-1755.4" font-family="Times,serif" font-size="32.00"> smileing |</text>
<text text-anchor="middle" x="1311.65" y="-1720.4" font-family="Times,serif" font-size="32.00"> jumping</text>
<text text-anchor="middle" x="1311.65" y="-1685.4" font-family="Times,serif" font-size="32.00">=d prog</text>
</g>
<!-- perf -->
<g id="node10" class="node">
<title>perf</title>
<ellipse fill="none" stroke="black" cx="976.65" cy="-798" rx="48.17" ry="30.31"/>
<text text-anchor="middle" x="976.65" y="-789.9" font-family="Times,serif" font-size="32.00">perf</text>
</g>
<!-- d&#45;&gt;perf -->
<g id="edge8" class="edge">
<title>d&#45;&gt;perf</title>
<path fill="none" stroke="#000000" d="M2384.17,-1238.21C2362.2,-1168.82 2295.62,-998 2172.56,-998 2172.56,-998 2172.56,-998 1779.65,-998 1754.49,-998 1571.75,-1001.48 1553.65,-984 1523.78,-955.15 1566.4,-825.91 1535.65,-798 1499.26,-764.96 1169.83,-784.31 1034.89,-793.75"/>
<polygon fill="#000000" stroke="#000000" points="1034.48,-790.27 1024.75,-794.46 1034.97,-797.25 1034.48,-790.27"/>
<text text-anchor="middle" x="1780.65" y="-1147.4" font-family="Times,serif" font-size="32.00">dancen |</text>
<text text-anchor="middle" x="1780.65" y="-1112.4" font-family="Times,serif" font-size="32.00"> laughn |</text>
<text text-anchor="middle" x="1780.65" y="-1077.4" font-family="Times,serif" font-size="32.00"> smilen |</text>
<text text-anchor="middle" x="1780.65" y="-1042.4" font-family="Times,serif" font-size="32.00"> jumpn</text>
<text text-anchor="middle" x="1780.65" y="-1007.4" font-family="Times,serif" font-size="32.00">=d perf</text>
</g>
<!-- pass -->
<g id="node11" class="node">
<title>pass</title>
<ellipse fill="none" stroke="black" cx="2171.56" cy="-495" rx="50.82" ry="30.31"/>
<text text-anchor="middle" x="2171.56" y="-486.9" font-family="Times,serif" font-size="32.00">pass</text>
</g>
<!-- d&#45;&gt;pass -->
<g id="edge13" class="edge">
<title>d&#45;&gt;pass</title>
<path fill="none" stroke="#000000" d="M2391.19,-1236.66C2387.18,-1147.8 2373.61,-889.33 2348.48,-809 2314.4,-700.09 2239.42,-586.77 2199.24,-530.76"/>
<polygon fill="#000000" stroke="#000000" points="2202.03,-528.65 2193.33,-522.59 2196.36,-532.75 2202.03,-528.65"/>
<text text-anchor="middle" x="2294.48" y="-958.4" font-family="Times,serif" font-size="32.00">praisen |</text>
<text text-anchor="middle" x="2294.48" y="-923.4" font-family="Times,serif" font-size="32.00"> liken |</text>
<text text-anchor="middle" x="2294.48" y="-888.4" font-family="Times,serif" font-size="32.00"> kissn |</text>
<text text-anchor="middle" x="2294.48" y="-853.4" font-family="Times,serif" font-size="32.00"> hugn</text>
<text text-anchor="middle" x="2294.48" y="-818.4" font-family="Times,serif" font-size="32.00">=d pass</text>
</g>
<!-- 1 -->
<g id="node12" class="node">
<title>1</title>
<ellipse fill="none" stroke="black" cx="1630.65" cy="-1267" rx="27" ry="30.31"/>
<text text-anchor="middle" x="1630.65" y="-1258.9" font-family="Times,serif" font-size="32.00">1</text>
</g>
<!-- d&#45;&gt;1 -->
<g id="edge15" class="edge">
<title>d&#45;&gt;1</title>
<path fill="none" stroke="#000000" d="M2366.29,-1267C2252.43,-1267 1800.26,-1267 1668.1,-1267"/>
<polygon fill="#000000" stroke="#000000" points="1667.73,-1263.5 1657.73,-1267 1667.73,-1270.5 1667.73,-1263.5"/>
<text text-anchor="middle" x="2036.15" y="-1311.4" font-family="Times,serif" font-size="32.00">kiss</text>
<text text-anchor="middle" x="2036.15" y="-1276.4" font-family="Times,serif" font-size="32.00">=d *k 1</text>
</g>
<!-- 2 -->
<g id="node13" class="node">
<title>2</title>
<ellipse fill="none" stroke="black" cx="1630.65" cy="-1566" rx="27" ry="30.31"/>
<text text-anchor="middle" x="1630.65" y="-1557.9" font-family="Times,serif" font-size="32.00">2</text>
</g>
<!-- d&#45;&gt;2 -->
<g id="edge20" class="edge">
<title>d&#45;&gt;2</title>
<path fill="none" stroke="#000000" d="M2389.53,-1297.22C2384.17,-1346 2371.21,-1438.97 2348.48,-1462 2221.08,-1591.07 2131.43,-1533.21 1951.65,-1557 1849.52,-1570.51 1727.51,-1569.18 1667.96,-1567.41"/>
<polygon fill="#000000" stroke="#000000" points="1668.04,-1563.91 1657.93,-1567.09 1667.81,-1570.91 1668.04,-1563.91"/>
<text text-anchor="middle" x="2036.15" y="-1598.4" font-family="Times,serif" font-size="32.00">hug</text>
<text text-anchor="middle" x="2036.15" y="-1563.4" font-family="Times,serif" font-size="32.00">=d *k 2</text>
</g>
<!-- n -->
<g id="node4" class="node">
<title>n</title>
<ellipse fill="none" stroke="black" cx="2576.48" cy="-1168" rx="27" ry="30.31"/>
<text text-anchor="middle" x="2576.48" y="-1159.9" font-family="Times,serif" font-size="32.00">n</text>
</g>
<!-- n&#45;&gt;d -->
<g id="edge2" class="edge">
<title>n&#45;&gt;d</title>
<path fill="none" stroke="#000000" d="M2550.4,-1159.54C2521.01,-1151.29 2472.07,-1142.91 2438.48,-1165 2417.66,-1178.69 2406.64,-1204.55 2400.84,-1226.8"/>
<polygon fill="#000000" stroke="#000000" points="2397.39,-1226.18 2398.53,-1236.71 2404.21,-1227.77 2397.39,-1226.18"/>
<text text-anchor="middle" x="2484.98" y="-1314.4" font-family="Times,serif" font-size="32.00">this |</text>
<text text-anchor="middle" x="2484.98" y="-1279.4" font-family="Times,serif" font-size="32.00"> a |</text>
<text text-anchor="middle" x="2484.98" y="-1244.4" font-family="Times,serif" font-size="32.00"> the |</text>
<text text-anchor="middle" x="2484.98" y="-1209.4" font-family="Times,serif" font-size="32.00"> some</text>
<text text-anchor="middle" x="2484.98" y="-1174.4" font-family="Times,serif" font-size="32.00">=n d &#45;k</text>
</g>
<!-- z1 -->
<g id="node5" class="node">
<title>z1</title>
<ellipse fill="none" stroke="black" stroke-dasharray="5,2" cx="2729.48" cy="-1168" rx="27" ry="18"/>
</g>
<!-- z1&#45;&gt;n -->
<g id="edge3" class="edge">
<title>z1&#45;&gt;n</title>
<path fill="none" stroke="#000000" d="M2702.17,-1168C2677.71,-1168 2641.03,-1168 2613.78,-1168"/>
<polygon fill="#000000" stroke="#000000" points="2613.48,-1164.5 2603.48,-1168 2613.48,-1171.5 2613.48,-1164.5"/>
<text text-anchor="middle" x="2652.98" y="-1247.4" font-family="Times,serif" font-size="32.00">boy |</text>
<text text-anchor="middle" x="2652.98" y="-1212.4" font-family="Times,serif" font-size="32.00"> girl</text>
<text text-anchor="middle" x="2652.98" y="-1177.4" font-family="Times,serif" font-size="32.00">n</text>
</g>
<!-- 0&#45;&gt;t -->
<g id="edge4" class="edge">
<title>0&#45;&gt;t</title>
<path fill="none" stroke="#000000" d="M1334.27,-1174.91C1353.3,-1159.88 1381.77,-1137.43 1406.65,-1118 1463.82,-1073.34 1498.11,-1080.08 1535.65,-1018 1559.25,-978.98 1527.01,-954.01 1553.65,-917 1599.2,-853.72 1640.89,-873.27 1707.65,-833 1766.13,-797.73 1795.98,-803.58 1835.65,-748 1881.76,-683.4 1895.67,-589.02 1899.86,-535.68"/>
<polygon fill="#000000" stroke="#000000" points="1903.36,-535.8 1900.57,-525.58 1896.38,-535.31 1903.36,-535.8"/>
<text text-anchor="middle" x="1630.65" y="-996.4" font-family="Times,serif" font-size="32.00">s |</text>
<text text-anchor="middle" x="1630.65" y="-961.4" font-family="Times,serif" font-size="32.00"> d</text>
<text text-anchor="middle" x="1630.65" y="-926.4" font-family="Times,serif" font-size="32.00">=&gt;0 =d +k t</text>
</g>
<!-- 0&#45;&gt;v -->
<g id="edge10" class="edge">
<title>0&#45;&gt;v</title>
<path fill="none" stroke="#000000" d="M1284.98,-1197.85C1195.78,-1216.53 895.73,-1265.48 730.65,-1121 648.37,-1048.99 633,-910.35 630.65,-841.64"/>
<polygon fill="#000000" stroke="#000000" points="634.15,-841.54 630.38,-831.63 627.15,-841.72 634.15,-841.54"/>
<text text-anchor="middle" x="976.65" y="-1265.4" font-family="Times,serif" font-size="32.00">ε_0</text>
<text text-anchor="middle" x="976.65" y="-1230.4" font-family="Times,serif" font-size="32.00">=&gt;0 =d v</text>
</g>
<!-- 0&#45;&gt;prog -->
<g id="edge11" class="edge">
<title>0&#45;&gt;prog</title>
<path fill="none" stroke="#000000" d="M1288.47,-1207.78C1236.7,-1243.01 1102.78,-1325 977.65,-1325 977.65,-1325 977.65,-1325 323.65,-1325 158.07,-1325 84.53,-1082.48 61.64,-984.93"/>
<polygon fill="#000000" stroke="#000000" points="65.04,-984.1 59.4,-975.14 58.22,-985.66 65.04,-984.1"/>
<text text-anchor="middle" x="629.65" y="-1369.4" font-family="Times,serif" font-size="32.00">ing</text>
<text text-anchor="middle" x="629.65" y="-1334.4" font-family="Times,serif" font-size="32.00">=&gt;0 =d prog</text>
</g>
<!-- 0&#45;&gt;perf -->
<g id="edge12" class="edge">
<title>0&#45;&gt;perf</title>
<path fill="none" stroke="#000000" d="M1292.62,-1170.14C1275.53,-1148.46 1250.24,-1113.7 1234.65,-1080 1222.07,-1052.79 1232.37,-1040.53 1216.65,-1015 1189.36,-970.67 1075.83,-876.42 1015.59,-828.03"/>
<polygon fill="#000000" stroke="#000000" points="1017.45,-825.04 1007.46,-821.52 1013.07,-830.5 1017.45,-825.04"/>
<text text-anchor="middle" x="1139.65" y="-1059.4" font-family="Times,serif" font-size="32.00">n</text>
<text text-anchor="middle" x="1139.65" y="-1024.4" font-family="Times,serif" font-size="32.00">=&gt;0 =d perf</text>
</g>
<!-- z2 -->
<g id="node7" class="node">
<title>z2</title>
<ellipse fill="none" stroke="black" stroke-dasharray="5,2" cx="1630.65" cy="-1333" rx="27" ry="18"/>
</g>
<!-- z2&#45;&gt;0 -->
<g id="edge5" class="edge">
<title>z2&#45;&gt;0</title>
<path fill="none" stroke="#000000" d="M1603.83,-1329.45C1587.58,-1325.99 1567.18,-1319.2 1553.65,-1306 1537.64,-1290.38 1552.04,-1274.22 1535.65,-1259 1508.25,-1233.56 1404.01,-1209.9 1348.29,-1198.73"/>
<polygon fill="#000000" stroke="#000000" points="1348.96,-1195.3 1338.48,-1196.8 1347.61,-1202.17 1348.96,-1195.3"/>
<text text-anchor="middle" x="1471.15" y="-1408.4" font-family="Times,serif" font-size="32.00">dance |</text>
<text text-anchor="middle" x="1471.15" y="-1373.4" font-family="Times,serif" font-size="32.00"> laugh |</text>
<text text-anchor="middle" x="1471.15" y="-1338.4" font-family="Times,serif" font-size="32.00"> smile |</text>
<text text-anchor="middle" x="1471.15" y="-1303.4" font-family="Times,serif" font-size="32.00"> jump</text>
<text text-anchor="middle" x="1471.15" y="-1268.4" font-family="Times,serif" font-size="32.00">0</text>
</g>
<!-- v&#45;&gt;t -->
<g id="edge25" class="edge">
<title>v&#45;&gt;t</title>
<path fill="none" stroke="#000000" d="M656.55,-796.17C758.11,-776.81 1127.93,-702.16 1216.65,-626 1230.83,-613.83 1218.91,-598.08 1234.65,-588 1411.71,-474.64 1502.4,-628.51 1707.65,-583 1768.07,-569.6 1832.38,-536.13 1869.69,-514.54"/>
<polygon fill="#000000" stroke="#000000" points="1871.72,-517.41 1878.57,-509.33 1868.18,-511.37 1871.72,-517.41"/>
<text text-anchor="middle" x="1311.65" y="-667.4" font-family="Times,serif" font-size="32.00">wills |</text>
<text text-anchor="middle" x="1311.65" y="-632.4" font-family="Times,serif" font-size="32.00"> willd</text>
<text text-anchor="middle" x="1311.65" y="-597.4" font-family="Times,serif" font-size="32.00">=v +k t</text>
</g>
<!-- to -->
<g id="node15" class="node">
<title>to</title>
<ellipse fill="none" stroke="black" cx="324.65" cy="-673" rx="28.98" ry="30.31"/>
<text text-anchor="middle" x="324.65" y="-664.9" font-family="Times,serif" font-size="32.00">to</text>
</g>
<!-- v&#45;&gt;to -->
<g id="edge44" class="edge">
<title>v&#45;&gt;to</title>
<path fill="none" stroke="#000000" d="M602.33,-801.41C548.33,-801.79 427.21,-800.19 392.65,-779 367.53,-763.6 350.24,-734.85 339.53,-711.18"/>
<polygon fill="#000000" stroke="#000000" points="342.63,-709.53 335.47,-701.73 336.2,-712.3 342.63,-709.53"/>
<text text-anchor="middle" x="460.65" y="-845.4" font-family="Times,serif" font-size="32.00">to</text>
<text text-anchor="middle" x="460.65" y="-810.4" font-family="Times,serif" font-size="32.00">=v to</text>
</g>
<!-- prog&#45;&gt;t -->
<g id="edge26" class="edge">
<title>prog&#45;&gt;t</title>
<path fill="none" stroke="#000000" d="M57.05,-914.46C75.44,-770.44 162.24,-166 323.65,-166 1140.65,-166 1140.65,-166 1140.65,-166 1204.09,-166 1645.52,-220.2 1707.65,-233 1765.77,-244.97 1793.73,-229 1835.65,-271 1884.85,-320.3 1897.74,-404.29 1900.9,-454.23"/>
<polygon fill="#000000" stroke="#000000" points="1897.41,-454.54 1901.43,-464.34 1904.4,-454.17 1897.41,-454.54"/>
<text text-anchor="middle" x="976.65" y="-245.4" font-family="Times,serif" font-size="32.00">bes |</text>
<text text-anchor="middle" x="976.65" y="-210.4" font-family="Times,serif" font-size="32.00"> bed</text>
<text text-anchor="middle" x="976.65" y="-175.4" font-family="Times,serif" font-size="32.00">=prog +k t</text>
</g>
<!-- prog&#45;&gt;v -->
<g id="edge27" class="edge">
<title>prog&#45;&gt;v</title>
<path fill="none" stroke="#000000" d="M102.43,-935.58C147.2,-927.17 215.22,-914.86 274.65,-906 387.14,-889.24 423.01,-917.11 528.65,-875 555.86,-864.16 582.31,-844.03 601.16,-827.5"/>
<polygon fill="#000000" stroke="#000000" points="603.66,-829.97 608.76,-820.68 598.98,-824.76 603.66,-829.97"/>
<text text-anchor="middle" x="324.65" y="-950.4" font-family="Times,serif" font-size="32.00">be</text>
<text text-anchor="middle" x="324.65" y="-915.4" font-family="Times,serif" font-size="32.00">=prog v</text>
</g>
<!-- prog&#45;&gt;perf -->
<g id="edge28" class="edge">
<title>prog&#45;&gt;perf</title>
<path fill="none" stroke="#000000" d="M102.78,-953.94C147.5,-961.54 215.24,-971.86 274.65,-976 551.41,-995.29 642.64,-999.33 890.65,-875 911.46,-864.57 930.98,-847.62 946.06,-832.27"/>
<polygon fill="#000000" stroke="#000000" points="948.72,-834.55 953.09,-824.9 943.65,-829.72 948.72,-834.55"/>
<text text-anchor="middle" x="460.65" y="-1031.4" font-family="Times,serif" font-size="32.00">ben</text>
<text text-anchor="middle" x="460.65" y="-996.4" font-family="Times,serif" font-size="32.00">=prog perf</text>
</g>
<!-- perf&#45;&gt;t -->
<g id="edge41" class="edge">
<title>perf&#45;&gt;t</title>
<path fill="none" stroke="#000000" d="M1007.94,-774.84C1023.49,-764.09 1043.22,-752.13 1062.65,-745 1200.13,-694.53 1277.17,-791.97 1388.65,-697 1408.88,-679.77 1385.77,-656.42 1406.65,-640 1481.77,-580.95 1754.72,-661.8 1835.65,-611 1863.32,-593.63 1880.53,-560.21 1890.41,-533.69"/>
<polygon fill="#000000" stroke="#000000" points="1893.83,-534.5 1893.85,-523.91 1887.23,-532.18 1893.83,-534.5"/>
<text text-anchor="middle" x="1471.15" y="-719.4" font-family="Times,serif" font-size="32.00">haves |</text>
<text text-anchor="middle" x="1471.15" y="-684.4" font-family="Times,serif" font-size="32.00"> haved</text>
<text text-anchor="middle" x="1471.15" y="-649.4" font-family="Times,serif" font-size="32.00">=perf +k t</text>
</g>
<!-- perf&#45;&gt;v -->
<g id="edge42" class="edge">
<title>perf&#45;&gt;v</title>
<path fill="none" stroke="#000000" d="M928.4,-798.41C858.8,-799.02 730.16,-800.13 667.24,-800.68"/>
<polygon fill="#000000" stroke="#000000" points="666.97,-797.18 657,-800.77 667.03,-804.18 666.97,-797.18"/>
<text text-anchor="middle" x="810.65" y="-845.4" font-family="Times,serif" font-size="32.00">have</text>
<text text-anchor="middle" x="810.65" y="-810.4" font-family="Times,serif" font-size="32.00">=perf v</text>
</g>
<!-- pass&#45;&gt;t -->
<g id="edge29" class="edge">
<title>pass&#45;&gt;t</title>
<path fill="none" stroke="#000000" d="M2120.36,-495C2067.82,-495 1986.63,-495 1939.98,-495"/>
<polygon fill="#000000" stroke="#000000" points="1939.73,-491.5 1929.73,-495 1939.73,-498.5 1939.73,-491.5"/>
<text text-anchor="middle" x="2036.15" y="-574.4" font-family="Times,serif" font-size="32.00">bes_1 |</text>
<text text-anchor="middle" x="2036.15" y="-539.4" font-family="Times,serif" font-size="32.00"> bed_1</text>
<text text-anchor="middle" x="2036.15" y="-504.4" font-family="Times,serif" font-size="32.00">=pass +k t</text>
</g>
<!-- pass&#45;&gt;v -->
<g id="edge30" class="edge">
<title>pass&#45;&gt;v</title>
<path fill="none" stroke="#000000" d="M2149.97,-467.13C2102.45,-405.19 1978.25,-256.37 1835.65,-190 1662.04,-109.19 1597.1,-130.02 1406.65,-150 1328.93,-158.16 1121.23,-171.28 1062.65,-223 1044.32,-239.19 1058.78,-255.04 1044.65,-275 941.61,-420.62 814.05,-367.31 730.65,-525 705.54,-572.47 743.9,-722.32 712.65,-766 701.91,-781.01 683.39,-789.63 666.66,-794.56"/>
<polygon fill="#000000" stroke="#000000" points="665.36,-791.28 656.56,-797.17 667.12,-798.06 665.36,-791.28"/>
<text text-anchor="middle" x="1471.15" y="-194.4" font-family="Times,serif" font-size="32.00">be_1</text>
<text text-anchor="middle" x="1471.15" y="-159.4" font-family="Times,serif" font-size="32.00">=pass v</text>
</g>
<!-- pass&#45;&gt;prog -->
<g id="edge32" class="edge">
<title>pass&#45;&gt;prog</title>
<path fill="none" stroke="#000000" d="M2166.03,-464.56C2149.92,-368.95 2086.23,-81 1903.65,-81 1903.65,-81 1903.65,-81 323.65,-81 218.92,-81 178.06,-115.12 122.65,-204 85.47,-263.63 61.42,-757.07 55.03,-903.92"/>
<polygon fill="#000000" stroke="#000000" points="51.52,-904.14 54.59,-914.28 58.51,-904.44 51.52,-904.14"/>
<text text-anchor="middle" x="1139.65" y="-125.4" font-family="Times,serif" font-size="32.00">being</text>
<text text-anchor="middle" x="1139.65" y="-90.4" font-family="Times,serif" font-size="32.00">=pass prog</text>
</g>
<!-- pass&#45;&gt;perf -->
<g id="edge31" class="edge">
<title>pass&#45;&gt;perf</title>
<path fill="none" stroke="#000000" d="M2157.87,-524.52C2126.05,-593.41 2035.8,-759 1903.65,-759 1903.65,-759 1903.65,-759 1310.65,-759 1212.44,-759 1099.04,-775.94 1033.13,-787.49"/>
<polygon fill="#000000" stroke="#000000" points="1032.2,-784.1 1022.97,-789.3 1033.43,-790.99 1032.2,-784.1"/>
<text text-anchor="middle" x="1630.65" y="-803.4" font-family="Times,serif" font-size="32.00">ben_1</text>
<text text-anchor="middle" x="1630.65" y="-768.4" font-family="Times,serif" font-size="32.00">=pass perf</text>
</g>
<!-- 1&#45;&gt;0 -->
<g id="edge14" class="edge">
<title>1&#45;&gt;0</title>
<path fill="none" stroke="#000000" d="M1604.37,-1258.55C1587.49,-1251.61 1566.15,-1240.11 1553.65,-1223 1531.64,-1192.87 1564.73,-1164.38 1535.65,-1141 1479.25,-1095.64 1390.13,-1140.71 1343.47,-1170.45"/>
<polygon fill="#000000" stroke="#000000" points="1341.45,-1167.58 1334.99,-1175.98 1345.28,-1173.44 1341.45,-1167.58"/>
<text text-anchor="middle" x="1471.15" y="-1185.4" font-family="Times,serif" font-size="32.00">ε_1</text>
<text text-anchor="middle" x="1471.15" y="-1150.4" font-family="Times,serif" font-size="32.00">=&gt;1 0</text>
</g>
<!-- 1&#45;&gt;v -->
<g id="edge16" class="edge">
<title>1&#45;&gt;v</title>
<path fill="none" stroke="#000000" d="M1604.52,-1258.86C1587.47,-1252.01 1565.89,-1240.49 1553.65,-1223 1527.27,-1185.28 1569.51,-1152.19 1535.65,-1121 1486.24,-1075.48 1301,-1103.54 1234.65,-1093 1007.84,-1056.96 914.76,-1116.28 730.65,-979 683.92,-944.16 655.97,-880.63 641.94,-839.65"/>
<polygon fill="#000000" stroke="#000000" points="645.22,-838.4 638.76,-830 638.57,-840.59 645.22,-838.4"/>
<text text-anchor="middle" x="1139.65" y="-1134.4" font-family="Times,serif" font-size="32.00">ε_2</text>
<text text-anchor="middle" x="1139.65" y="-1099.4" font-family="Times,serif" font-size="32.00">=&gt;1 =d v</text>
</g>
<!-- 1&#45;&gt;prog -->
<g id="edge17" class="edge">
<title>1&#45;&gt;prog</title>
<path fill="none" stroke="#000000" d="M1604.2,-1273.59C1587.23,-1279.33 1565.88,-1289.4 1553.65,-1306 1526.09,-1343.42 1570.27,-1378 1535.65,-1409 1461.67,-1475.24 1411.96,-1423 1312.65,-1423 1312.65,-1423 1312.65,-1423 323.65,-1423 206.94,-1423 183.28,-1353.73 122.65,-1254 70.55,-1168.29 57.5,-1047.8 54.3,-985.64"/>
<polygon fill="#000000" stroke="#000000" points="57.79,-985.29 53.84,-975.46 50.8,-985.6 57.79,-985.29"/>
<text text-anchor="middle" x="810.65" y="-1467.4" font-family="Times,serif" font-size="32.00">ing_1</text>
<text text-anchor="middle" x="810.65" y="-1432.4" font-family="Times,serif" font-size="32.00">=&gt;1 =d prog</text>
</g>
<!-- 1&#45;&gt;perf -->
<g id="edge18" class="edge">
<title>1&#45;&gt;perf</title>
<path fill="none" stroke="#000000" d="M1604.21,-1259.07C1587.01,-1252.32 1565.38,-1240.83 1553.65,-1223 1516.26,-1166.17 1577.51,-1124.62 1535.65,-1071 1497.91,-1022.66 1445.52,-1069.44 1406.65,-1022 1375.81,-984.36 1418.3,-952.59 1388.65,-914 1337.51,-847.44 1297.04,-860.14 1216.65,-836 1183.42,-826.02 1093.55,-813.1 1033.99,-805.18"/>
<polygon fill="#000000" stroke="#000000" points="1034.34,-801.7 1023.97,-803.86 1033.43,-808.64 1034.34,-801.7"/>
<text text-anchor="middle" x="1311.65" y="-958.4" font-family="Times,serif" font-size="32.00">n_1</text>
<text text-anchor="middle" x="1311.65" y="-923.4" font-family="Times,serif" font-size="32.00">=&gt;1 =d perf</text>
</g>
<!-- 2&#45;&gt;0 -->
<g id="edge19" class="edge">
<title>2&#45;&gt;0</title>
<path fill="none" stroke="#000000" d="M1611.55,-1544.02C1594.18,-1524.51 1566.16,-1496.84 1535.65,-1482 1483.28,-1456.52 1451.03,-1496.71 1406.65,-1459 1339,-1401.51 1320.02,-1292.2 1314.71,-1232.83"/>
<polygon fill="#000000" stroke="#000000" points="1318.18,-1232.39 1313.89,-1222.7 1311.2,-1232.95 1318.18,-1232.39"/>
<text text-anchor="middle" x="1471.15" y="-1526.4" font-family="Times,serif" font-size="32.00">ε_3</text>
<text text-anchor="middle" x="1471.15" y="-1491.4" font-family="Times,serif" font-size="32.00">=&gt;2 0</text>
</g>
<!-- 2&#45;&gt;v -->
<g id="edge21" class="edge">
<title>2&#45;&gt;v</title>
<path fill="none" stroke="#000000" d="M1603.67,-1567.78C1561.48,-1569.91 1475.82,-1571.11 1406.65,-1552 1074.86,-1460.33 930.06,-1454.59 730.65,-1174 656.8,-1070.09 637.49,-914.75 632.44,-841.72"/>
<polygon fill="#000000" stroke="#000000" points="635.92,-841.31 631.79,-831.55 628.93,-841.76 635.92,-841.31"/>
<text text-anchor="middle" x="1139.65" y="-1545.4" font-family="Times,serif" font-size="32.00">ε_4</text>
<text text-anchor="middle" x="1139.65" y="-1510.4" font-family="Times,serif" font-size="32.00">=&gt;2 =d v</text>
</g>
<!-- 2&#45;&gt;prog -->
<g id="edge22" class="edge">
<title>2&#45;&gt;prog</title>
<path fill="none" stroke="#000000" d="M1603.82,-1569.42C1549.85,-1576.27 1421.13,-1591 1312.65,-1591 1312.65,-1591 1312.65,-1591 323.65,-1591 182.81,-1591 181.25,-1474.07 122.65,-1346 66.55,-1223.38 55.56,-1060.7 53.61,-985.86"/>
<polygon fill="#000000" stroke="#000000" points="57.1,-985.39 53.38,-975.47 50.1,-985.54 57.1,-985.39"/>
<text text-anchor="middle" x="810.65" y="-1635.4" font-family="Times,serif" font-size="32.00">ing_2</text>
<text text-anchor="middle" x="810.65" y="-1600.4" font-family="Times,serif" font-size="32.00">=&gt;2 =d prog</text>
</g>
<!-- 2&#45;&gt;perf -->
<g id="edge23" class="edge">
<title>2&#45;&gt;perf</title>
<path fill="none" stroke="#000000" d="M1617.09,-1539.4C1599.52,-1500.83 1568.13,-1426.68 1553.65,-1360 1542.21,-1307.3 1566.74,-1162.06 1535.65,-1118 1499.51,-1066.79 1463.92,-1086.47 1406.65,-1061 1330.12,-1026.96 1285.3,-1050.71 1234.65,-984 1202.04,-941.05 1253.83,-903.07 1216.65,-864 1168.53,-813.42 1129.46,-853.27 1062.65,-833 1050.36,-829.27 1037.4,-824.43 1025.4,-819.54"/>
<polygon fill="#000000" stroke="#000000" points="1026.59,-816.24 1016.01,-815.63 1023.9,-822.7 1026.59,-816.24"/>
<text text-anchor="middle" x="1311.65" y="-1098.4" font-family="Times,serif" font-size="32.00">n_2</text>
<text text-anchor="middle" x="1311.65" y="-1063.4" font-family="Times,serif" font-size="32.00">=&gt;2 =d perf</text>
</g>
<!-- c2&#45;&gt;0 -->
<g id="edge24" class="edge">
<title>c2&#45;&gt;0</title>
<path fill="none" stroke="#000000" d="M1601.81,-708.23C1587.26,-716.42 1569.26,-726.89 1553.65,-737 1486.05,-780.79 1446.04,-772.74 1406.65,-843 1380.82,-889.07 1406.07,-1030.14 1388.65,-1080 1377.73,-1111.28 1355.79,-1142.07 1338.27,-1163.43"/>
<polygon fill="#000000" stroke="#000000" points="1335.56,-1161.23 1331.81,-1171.14 1340.92,-1165.73 1335.56,-1161.23"/>
<text text-anchor="middle" x="1471.15" y="-992.4" font-family="Times,serif" font-size="32.00">declare |</text>
<text text-anchor="middle" x="1471.15" y="-957.4" font-family="Times,serif" font-size="32.00"> think |</text>
<text text-anchor="middle" x="1471.15" y="-922.4" font-family="Times,serif" font-size="32.00"> explain |</text>
<text text-anchor="middle" x="1471.15" y="-887.4" font-family="Times,serif" font-size="32.00"> say</text>
<text text-anchor="middle" x="1471.15" y="-852.4" font-family="Times,serif" font-size="32.00">=c2 0</text>
</g>
<!-- to&#45;&gt;t -->
<g id="edge33" class="edge">
<title>to&#45;&gt;t</title>
<path fill="none" stroke="#000000" d="M349.99,-657.72C362.62,-649.88 378.37,-640.27 392.65,-632 678.52,-466.4 780.29,-473.14 1044.65,-275 1053.7,-268.21 1052.2,-261.33 1062.65,-257 1221.97,-191.01 1699.68,-218.94 1835.65,-325 1875.64,-356.19 1891.43,-414.91 1897.64,-454.49"/>
<polygon fill="#000000" stroke="#000000" points="1894.21,-455.21 1899.09,-464.61 1901.14,-454.22 1894.21,-455.21"/>
<text text-anchor="middle" x="1139.65" y="-406.4" font-family="Times,serif" font-size="32.00">seems |</text>
<text text-anchor="middle" x="1139.65" y="-371.4" font-family="Times,serif" font-size="32.00"> seemd |</text>
<text text-anchor="middle" x="1139.65" y="-336.4" font-family="Times,serif" font-size="32.00"> appears |</text>
<text text-anchor="middle" x="1139.65" y="-301.4" font-family="Times,serif" font-size="32.00"> appeard</text>
<text text-anchor="middle" x="1139.65" y="-266.4" font-family="Times,serif" font-size="32.00">=to +k t</text>
</g>
<!-- to&#45;&gt;v -->
<g id="edge34" class="edge">
<title>to&#45;&gt;v</title>
<path fill="none" stroke="#000000" d="M352.95,-666C393.59,-657.1 471.33,-646 528.65,-674 567.27,-692.86 595.47,-734.61 611.9,-765.11"/>
<polygon fill="#000000" stroke="#000000" points="608.9,-766.92 616.62,-774.18 615.11,-763.69 608.9,-766.92"/>
<text text-anchor="middle" x="460.65" y="-753.4" font-family="Times,serif" font-size="32.00">seem |</text>
<text text-anchor="middle" x="460.65" y="-718.4" font-family="Times,serif" font-size="32.00"> appear</text>
<text text-anchor="middle" x="460.65" y="-683.4" font-family="Times,serif" font-size="32.00">=to v</text>
</g>
<!-- to&#45;&gt;prog -->
<g id="edge36" class="edge">
<title>to&#45;&gt;prog</title>
<path fill="none" stroke="#000000" d="M296.09,-679.72C253.4,-691.47 171.16,-719.63 122.65,-772 87.94,-809.48 69.67,-866.54 60.77,-904.76"/>
<polygon fill="#000000" stroke="#000000" points="57.35,-904.01 58.6,-914.53 64.19,-905.53 57.35,-904.01"/>
<text text-anchor="middle" x="189.65" y="-851.4" font-family="Times,serif" font-size="32.00">seeming |</text>
<text text-anchor="middle" x="189.65" y="-816.4" font-family="Times,serif" font-size="32.00"> appearing</text>
<text text-anchor="middle" x="189.65" y="-781.4" font-family="Times,serif" font-size="32.00">=to prog</text>
</g>
<!-- to&#45;&gt;perf -->
<g id="edge35" class="edge">
<title>to&#45;&gt;perf</title>
<path fill="none" stroke="#000000" d="M352.31,-663.11C364.43,-659.11 379.08,-654.98 392.65,-653 533.39,-632.44 575.09,-620.86 712.65,-657 798.21,-679.48 886.64,-734.7 936.04,-768.98"/>
<polygon fill="#000000" stroke="#000000" points="934.31,-772.05 944.51,-774.92 938.33,-766.31 934.31,-772.05"/>
<text text-anchor="middle" x="629.65" y="-736.4" font-family="Times,serif" font-size="32.00">seemn |</text>
<text text-anchor="middle" x="629.65" y="-701.4" font-family="Times,serif" font-size="32.00"> appearn</text>
<text text-anchor="middle" x="629.65" y="-666.4" font-family="Times,serif" font-size="32.00">=to perf</text>
</g>
<!-- c1&#45;&gt;t -->
<g id="edge37" class="edge">
<title>c1&#45;&gt;t</title>
<path fill="none" stroke="#000000" d="M1344.06,-424.42C1411.5,-409.38 1574.8,-379.57 1707.65,-408 1768.05,-420.92 1832.37,-454.12 1869.68,-475.57"/>
<polygon fill="#000000" stroke="#000000" points="1868.17,-478.73 1878.57,-480.75 1871.69,-472.69 1868.17,-478.73"/>
<text text-anchor="middle" x="1630.65" y="-557.4" font-family="Times,serif" font-size="32.00">seems_1 |</text>
<text text-anchor="middle" x="1630.65" y="-522.4" font-family="Times,serif" font-size="32.00"> seemd_1 |</text>
<text text-anchor="middle" x="1630.65" y="-487.4" font-family="Times,serif" font-size="32.00"> appears_1 |</text>
<text text-anchor="middle" x="1630.65" y="-452.4" font-family="Times,serif" font-size="32.00"> appeard_1</text>
<text text-anchor="middle" x="1630.65" y="-417.4" font-family="Times,serif" font-size="32.00">=c1 +k t</text>
</g>
<!-- c1&#45;&gt;v -->
<g id="edge38" class="edge">
<title>c1&#45;&gt;v</title>
<path fill="none" stroke="#000000" d="M1278.78,-437.71C1196.24,-452.73 977.23,-493.97 908.65,-521 823.2,-554.68 781.21,-549.32 730.65,-626 696.12,-678.38 750.5,-715.97 712.65,-766 701.59,-780.62 683.22,-789.2 666.66,-794.21"/>
<polygon fill="#000000" stroke="#000000" points="665.43,-790.91 656.67,-796.88 667.24,-797.68 665.43,-790.91"/>
<text text-anchor="middle" x="976.65" y="-600.4" font-family="Times,serif" font-size="32.00">seem_1 |</text>
<text text-anchor="middle" x="976.65" y="-565.4" font-family="Times,serif" font-size="32.00"> appear_1</text>
<text text-anchor="middle" x="976.65" y="-530.4" font-family="Times,serif" font-size="32.00">=c1 v</text>
</g>
<!-- c1&#45;&gt;prog -->
<g id="edge40" class="edge">
<title>c1&#45;&gt;prog</title>
<path fill="none" stroke="#000000" d="M1278.07,-432.85C1230.59,-434.31 1139.64,-437.95 1062.65,-446 633.37,-490.88 411.31,-369.1 122.65,-690 68.32,-750.4 55.98,-849.26 53.54,-904.47"/>
<polygon fill="#000000" stroke="#000000" points="50.04,-904.46 53.18,-914.57 57.03,-904.7 50.04,-904.46"/>
<text text-anchor="middle" x="629.65" y="-543.4" font-family="Times,serif" font-size="32.00">seeming_1 |</text>
<text text-anchor="middle" x="629.65" y="-508.4" font-family="Times,serif" font-size="32.00"> appearing_1</text>
<text text-anchor="middle" x="629.65" y="-473.4" font-family="Times,serif" font-size="32.00">=c1 prog</text>
</g>
<!-- c1&#45;&gt;perf -->
<g id="edge39" class="edge">
<title>c1&#45;&gt;perf</title>
<path fill="none" stroke="#000000" d="M1284.81,-450.34C1265.97,-463.65 1239.81,-482.05 1216.65,-498 1148.63,-544.84 1115.41,-538.46 1062.65,-602 1023.82,-648.76 999.88,-715.96 987.67,-758.28"/>
<polygon fill="#000000" stroke="#000000" points="984.29,-757.38 984.96,-767.95 991.03,-759.27 984.29,-757.38"/>
<text text-anchor="middle" x="1139.65" y="-681.4" font-family="Times,serif" font-size="32.00">seemn_1 |</text>
<text text-anchor="middle" x="1139.65" y="-646.4" font-family="Times,serif" font-size="32.00"> appearn_1</text>
<text text-anchor="middle" x="1139.65" y="-611.4" font-family="Times,serif" font-size="32.00">=c1 perf</text>
</g>
<!-- z3 -->
<g id="node17" class="node">
<title>z3</title>
<ellipse fill="none" stroke="black" stroke-dasharray="5,2" cx="2729.48" cy="-1432" rx="27" ry="18"/>
</g>
<!-- e -->
<g id="node18" class="node">
<title>e</title>
<ellipse fill="none" stroke="black" cx="2576.48" cy="-1432" rx="27" ry="30.31"/>
<text text-anchor="middle" x="2576.48" y="-1423.9" font-family="Times,serif" font-size="32.00">e</text>
</g>
<!-- z3&#45;&gt;e -->
<g id="edge43" class="edge">
<title>z3&#45;&gt;e</title>
<path fill="none" stroke="#000000" d="M2702.17,-1432C2677.71,-1432 2641.03,-1432 2613.78,-1432"/>
<polygon fill="#000000" stroke="#000000" points="2613.48,-1428.5 2603.48,-1432 2613.48,-1435.5 2613.48,-1428.5"/>
<text text-anchor="middle" x="2652.98" y="-1476.4" font-family="Times,serif" font-size="32.00">it</text>
<text text-anchor="middle" x="2652.98" y="-1441.4" font-family="Times,serif" font-size="32.00">e &#45;k</text>
</g>
</g>
</svg>
