<?xml version="1.0" encoding="UTF-8" standalone="no"?>
<!DOCTYPE svg PUBLIC "-//W3C//DTD SVG 1.1//EN"
 "http://www.w3.org/Graphics/SVG/1.1/DTD/svg11.dtd">
<!-- Generated by graphviz version 2.47.1 (20210417.1919)
 -->
<!-- Title: G Pages: 1 -->
<svg width="2764pt" height="1858pt"
 viewBox="0.00 0.00 2764.48 1858.00" xmlns="http://www.w3.org/2000/svg" xmlns:xlink="http://www.w3.org/1999/xlink">
<g id="graph0" class="graph" transform="scale(1 1) rotate(0) translate(4 1854)">
<title>G</title>
<polygon fill="white" stroke="transparent" points="-4,4 -4,-1854 2760.48,-1854 2760.48,4 -4,4"/>
<text text-anchor="middle" x="1378.24" y="-13.4" font-family="Times,serif" font-size="32.00">single contraction: 1 → 0</text>
<!-- t -->
<g id="node1" class="node">
<title>t</title>
<ellipse fill="lightgray" stroke="black" cx="1902.65" cy="-742" rx="27" ry="30.31"/>
<text text-anchor="middle" x="1902.65" y="-733.9" font-family="Times,serif" font-size="32.00">t</text>
</g>
<!-- c2 -->
<g id="node13" class="node">
<title>c2</title>
<ellipse fill="none" stroke="black" cx="1630.65" cy="-1104" rx="33.47" ry="30.31"/>
<text text-anchor="middle" x="1630.65" y="-1095.9" font-family="Times,serif" font-size="32.00">c2</text>
</g>
<!-- t&#45;&gt;c2 -->
<g id="edge41" class="edge">
<title>t&#45;&gt;c2</title>
<path fill="none" stroke="#000000" d="M1890.71,-769.48C1865.92,-828.9 1800.32,-971.17 1707.65,-1060 1696.76,-1070.44 1682.93,-1079.39 1670.06,-1086.43"/>
<polygon fill="#000000" stroke="#000000" points="1668.15,-1083.48 1660.92,-1091.22 1671.4,-1089.68 1668.15,-1083.48"/>
<text text-anchor="middle" x="1780.65" y="-1083.4" font-family="Times,serif" font-size="32.00">that_1</text>
<text text-anchor="middle" x="1780.65" y="-1048.4" font-family="Times,serif" font-size="32.00">=t c2</text>
</g>
<!-- c1 -->
<g id="node15" class="node">
<title>c1</title>
<ellipse fill="none" stroke="black" cx="1311.65" cy="-467" rx="33.47" ry="30.31"/>
<text text-anchor="middle" x="1311.65" y="-458.9" font-family="Times,serif" font-size="32.00">c1</text>
</g>
<!-- t&#45;&gt;c1 -->
<g id="edge40" class="edge">
<title>t&#45;&gt;c1</title>
<path fill="none" stroke="#000000" d="M1896.69,-712.03C1888.84,-670.88 1870.71,-595.75 1835.65,-541 1793.77,-475.59 1779.94,-450.41 1707.65,-422 1584.64,-373.65 1424.64,-422.81 1351.82,-450.66"/>
<polygon fill="#000000" stroke="#000000" points="1350.18,-447.54 1342.14,-454.43 1352.73,-454.06 1350.18,-447.54"/>
<text text-anchor="middle" x="1630.65" y="-466.4" font-family="Times,serif" font-size="32.00">that</text>
<text text-anchor="middle" x="1630.65" y="-431.4" font-family="Times,serif" font-size="32.00">=t =e c1</text>
</g>
<!-- z0 -->
<g id="node2" class="node">
<title>z0</title>
<ellipse fill="none" stroke="black" stroke-dasharray="5,2" cx="2576.48" cy="-1391" rx="27" ry="18"/>
</g>
<!-- d -->
<g id="node3" class="node">
<title>d</title>
<ellipse fill="none" stroke="black" cx="2393.48" cy="-1292" rx="27" ry="30.31"/>
<text text-anchor="middle" x="2393.48" y="-1283.9" font-family="Times,serif" font-size="32.00">d</text>
</g>
<!-- z0&#45;&gt;d -->
<g id="edge1" class="edge">
<title>z0&#45;&gt;d</title>
<path fill="none" stroke="#000000" d="M2549.57,-1393.16C2520.06,-1394.3 2471.65,-1391.96 2438.48,-1369 2424.77,-1359.51 2414.78,-1344.27 2407.83,-1329.85"/>
<polygon fill="#000000" stroke="#000000" points="2410.95,-1328.26 2403.68,-1320.55 2404.56,-1331.11 2410.95,-1328.26"/>
<text text-anchor="middle" x="2484.98" y="-1542.4" font-family="Times,serif" font-size="32.00">Mary |</text>
<text text-anchor="middle" x="2484.98" y="-1507.4" font-family="Times,serif" font-size="32.00"> John |</text>
<text text-anchor="middle" x="2484.98" y="-1472.4" font-family="Times,serif" font-size="32.00"> Alice |</text>
<text text-anchor="middle" x="2484.98" y="-1437.4" font-family="Times,serif" font-size="32.00"> Bob</text>
<text text-anchor="middle" x="2484.98" y="-1402.4" font-family="Times,serif" font-size="32.00">d &#45;k</text>
</g>
<!-- 0 -->
<g id="node6" class="node">
<title>0</title>
<ellipse fill="none" stroke="black" cx="1311.65" cy="-1158" rx="27" ry="30.31"/>
<text text-anchor="middle" x="1311.65" y="-1149.9" font-family="Times,serif" font-size="32.00">0</text>
</g>
<!-- d&#45;&gt;0 -->
<g id="edge9" class="edge">
<title>d&#45;&gt;0</title>
<path fill="none" stroke="#000000" d="M2373.53,-1312.89C2338,-1349.63 2257.27,-1422 2172.56,-1422 2172.56,-1422 2172.56,-1422 1629.65,-1422 1580,-1422 1444.27,-1440.41 1406.65,-1408 1377.73,-1383.08 1400.67,-1360.24 1388.65,-1324 1373.08,-1277.04 1348.24,-1225.63 1331.23,-1192.66"/>
<polygon fill="#000000" stroke="#000000" points="1334.16,-1190.71 1326.43,-1183.45 1327.95,-1193.94 1334.16,-1190.71"/>
<text text-anchor="middle" x="1902.65" y="-1536.4" font-family="Times,serif" font-size="32.00">praise |</text>
<text text-anchor="middle" x="1902.65" y="-1501.4" font-family="Times,serif" font-size="32.00"> like |</text>
<text text-anchor="middle" x="1902.65" y="-1466.4" font-family="Times,serif" font-size="32.00"> kiss</text>
<text text-anchor="middle" x="1902.65" y="-1431.4" font-family="Times,serif" font-size="32.00">=d *k 0</text>
</g>
<!-- v -->
<g id="node8" class="node">
<title>v</title>
<ellipse fill="none" stroke="black" cx="629.65" cy="-669" rx="27" ry="30.31"/>
<text text-anchor="middle" x="629.65" y="-660.9" font-family="Times,serif" font-size="32.00">v</text>
</g>
<!-- d&#45;&gt;v -->
<g id="edge6" class="edge">
<title>d&#45;&gt;v</title>
<path fill="none" stroke="#000000" d="M2391.41,-1261.54C2388.36,-1184.97 2377.85,-978.45 2348.48,-809 2295.01,-500.57 2485.6,-127 2172.56,-127 2172.56,-127 2172.56,-127 1779.65,-127 1578.58,-127 1057.45,-175.29 908.65,-247 810.66,-294.23 778.55,-317.33 730.65,-415 694.48,-488.78 750.66,-526.15 712.65,-599 701.42,-620.53 680.5,-638.22 662.61,-650.43"/>
<polygon fill="#000000" stroke="#000000" points="660.58,-647.58 654.12,-655.98 664.41,-653.44 660.58,-647.58"/>
<text text-anchor="middle" x="1630.65" y="-287.4" font-family="Times,serif" font-size="32.00">dance_1 |</text>
<text text-anchor="middle" x="1630.65" y="-252.4" font-family="Times,serif" font-size="32.00"> laugh_1 |</text>
<text text-anchor="middle" x="1630.65" y="-217.4" font-family="Times,serif" font-size="32.00"> smile_1 |</text>
<text text-anchor="middle" x="1630.65" y="-182.4" font-family="Times,serif" font-size="32.00"> jump_1</text>
<text text-anchor="middle" x="1630.65" y="-147.4" font-family="Times,serif" font-size="32.00">=d v</text>
</g>
<!-- prog -->
<g id="node9" class="node">
<title>prog</title>
<ellipse fill="none" stroke="black" cx="52.33" cy="-838" rx="52.15" ry="30.31"/>
<text text-anchor="middle" x="52.33" y="-829.9" font-family="Times,serif" font-size="32.00">prog</text>
</g>
<!-- d&#45;&gt;prog -->
<g id="edge7" class="edge">
<title>d&#45;&gt;prog</title>
<path fill="none" stroke="#000000" d="M2389.59,-1322.37C2379.15,-1412.96 2334.92,-1675 2172.56,-1675 2172.56,-1675 2172.56,-1675 323.65,-1675 189.56,-1675 177.45,-1572.38 122.65,-1450 76.58,-1347.09 59.37,-998.43 54.73,-878.73"/>
<polygon fill="#000000" stroke="#000000" points="58.22,-878.4 54.35,-868.53 51.23,-878.66 58.22,-878.4"/>
<text text-anchor="middle" x="1311.65" y="-1824.4" font-family="Times,serif" font-size="32.00">danceing |</text>
<text text-anchor="middle" x="1311.65" y="-1789.4" font-family="Times,serif" font-size="32.00"> laughing |</text>
<text text-anchor="middle" x="1311.65" y="-1754.4" font-family="Times,serif" font-size="32.00"> smileing |</text>
<text text-anchor="middle" x="1311.65" y="-1719.4" font-family="Times,serif" font-size="32.00"> jumping</text>
<text text-anchor="middle" x="1311.65" y="-1684.4" font-family="Times,serif" font-size="32.00">=d prog</text>
</g>
<!-- perf -->
<g id="node10" class="node">
<title>perf</title>
<ellipse fill="none" stroke="black" cx="976.65" cy="-1001" rx="48.17" ry="30.31"/>
<text text-anchor="middle" x="976.65" y="-992.9" font-family="Times,serif" font-size="32.00">perf</text>
</g>
<!-- d&#45;&gt;perf -->
<g id="edge8" class="edge">
<title>d&#45;&gt;perf</title>
<path fill="none" stroke="#000000" d="M2373.53,-1271.11C2338,-1234.37 2257.27,-1162 2172.56,-1162 2172.56,-1162 2172.56,-1162 1779.65,-1162 1678.85,-1162 1626.89,-1212.26 1553.65,-1143 1511.91,-1103.53 1578.85,-1052.87 1535.65,-1015 1530.71,-1010.67 1069.21,-1011.41 1062.65,-1011 1053.39,-1010.42 1043.6,-1009.53 1034.08,-1008.51"/>
<polygon fill="#000000" stroke="#000000" points="1034.22,-1005 1023.89,-1007.36 1033.44,-1011.96 1034.22,-1005"/>
<text text-anchor="middle" x="1780.65" y="-1311.4" font-family="Times,serif" font-size="32.00">dancen |</text>
<text text-anchor="middle" x="1780.65" y="-1276.4" font-family="Times,serif" font-size="32.00"> laughn |</text>
<text text-anchor="middle" x="1780.65" y="-1241.4" font-family="Times,serif" font-size="32.00"> smilen |</text>
<text text-anchor="middle" x="1780.65" y="-1206.4" font-family="Times,serif" font-size="32.00"> jumpn</text>
<text text-anchor="middle" x="1780.65" y="-1171.4" font-family="Times,serif" font-size="32.00">=d perf</text>
</g>
<!-- pass -->
<g id="node11" class="node">
<title>pass</title>
<ellipse fill="none" stroke="black" cx="2171.56" cy="-742" rx="50.82" ry="30.31"/>
<text text-anchor="middle" x="2171.56" y="-733.9" font-family="Times,serif" font-size="32.00">pass</text>
</g>
<!-- d&#45;&gt;pass -->
<g id="edge13" class="edge">
<title>d&#45;&gt;pass</title>
<path fill="none" stroke="#000000" d="M2393.32,-1261.2C2393.85,-1202.67 2389.78,-1072.38 2348.48,-973 2315.25,-893.08 2247.47,-816.46 2206.43,-774.66"/>
<polygon fill="#000000" stroke="#000000" points="2208.86,-772.14 2199.33,-767.51 2203.89,-777.07 2208.86,-772.14"/>
<text text-anchor="middle" x="2294.48" y="-1122.4" font-family="Times,serif" font-size="32.00">praisen |</text>
<text text-anchor="middle" x="2294.48" y="-1087.4" font-family="Times,serif" font-size="32.00"> liken |</text>
<text text-anchor="middle" x="2294.48" y="-1052.4" font-family="Times,serif" font-size="32.00"> kissn |</text>
<text text-anchor="middle" x="2294.48" y="-1017.4" font-family="Times,serif" font-size="32.00"> hugn</text>
<text text-anchor="middle" x="2294.48" y="-982.4" font-family="Times,serif" font-size="32.00">=d pass</text>
</g>
<!-- 1 -->
<g id="node12" class="node">
<title>1</title>
<ellipse fill="none" stroke="black" cx="1630.65" cy="-1565" rx="27" ry="30.31"/>
<text text-anchor="middle" x="1630.65" y="-1556.9" font-family="Times,serif" font-size="32.00">1</text>
</g>
<!-- d&#45;&gt;1 -->
<g id="edge15" class="edge">
<title>d&#45;&gt;1</title>
<path fill="none" stroke="#000000" d="M2391.14,-1322.56C2388.1,-1354.9 2378.48,-1405.38 2348.48,-1436 2218.57,-1568.54 2134.92,-1536.75 1951.65,-1566 1849.7,-1582.27 1727.13,-1574.39 1667.61,-1568.85"/>
<polygon fill="#000000" stroke="#000000" points="1667.88,-1565.36 1657.59,-1567.88 1667.2,-1572.33 1667.88,-1565.36"/>
<text text-anchor="middle" x="2036.15" y="-1606.4" font-family="Times,serif" font-size="32.00">hug</text>
<text text-anchor="middle" x="2036.15" y="-1571.4" font-family="Times,serif" font-size="32.00">=d *k 1</text>
</g>
<!-- n -->
<g id="node4" class="node">
<title>n</title>
<ellipse fill="none" stroke="black" cx="2576.48" cy="-1193" rx="27" ry="30.31"/>
<text text-anchor="middle" x="2576.48" y="-1184.9" font-family="Times,serif" font-size="32.00">n</text>
</g>
<!-- n&#45;&gt;d -->
<g id="edge2" class="edge">
<title>n&#45;&gt;d</title>
<path fill="none" stroke="#000000" d="M2550.4,-1184.54C2521.01,-1176.29 2472.07,-1167.91 2438.48,-1190 2417.66,-1203.69 2406.64,-1229.55 2400.84,-1251.8"/>
<polygon fill="#000000" stroke="#000000" points="2397.39,-1251.18 2398.53,-1261.71 2404.21,-1252.77 2397.39,-1251.18"/>
<text text-anchor="middle" x="2484.98" y="-1339.4" font-family="Times,serif" font-size="32.00">this |</text>
<text text-anchor="middle" x="2484.98" y="-1304.4" font-family="Times,serif" font-size="32.00"> a |</text>
<text text-anchor="middle" x="2484.98" y="-1269.4" font-family="Times,serif" font-size="32.00"> the |</text>
<text text-anchor="middle" x="2484.98" y="-1234.4" font-family="Times,serif" font-size="32.00"> some</text>
<text text-anchor="middle" x="2484.98" y="-1199.4" font-family="Times,serif" font-size="32.00">=n d &#45;k</text>
</g>
<!-- z1 -->
<g id="node5" class="node">
<title>z1</title>
<ellipse fill="none" stroke="black" stroke-dasharray="5,2" cx="2729.48" cy="-1193" rx="27" ry="18"/>
</g>
<!-- z1&#45;&gt;n -->
<g id="edge3" class="edge">
<title>z1&#45;&gt;n</title>
<path fill="none" stroke="#000000" d="M2702.17,-1193C2677.71,-1193 2641.03,-1193 2613.78,-1193"/>
<polygon fill="#000000" stroke="#000000" points="2613.48,-1189.5 2603.48,-1193 2613.48,-1196.5 2613.48,-1189.5"/>
<text text-anchor="middle" x="2652.98" y="-1272.4" font-family="Times,serif" font-size="32.00">boy |</text>
<text text-anchor="middle" x="2652.98" y="-1237.4" font-family="Times,serif" font-size="32.00"> girl</text>
<text text-anchor="middle" x="2652.98" y="-1202.4" font-family="Times,serif" font-size="32.00">n</text>
</g>
<!-- 0&#45;&gt;t -->
<g id="edge4" class="edge">
<title>0&#45;&gt;t</title>
<path fill="none" stroke="#000000" d="M1326.13,-1132.09C1342.72,-1101.54 1372.86,-1050.13 1406.65,-1012 1456.06,-956.25 1492.03,-965.38 1535.65,-905 1548.51,-887.2 1536.58,-872.8 1553.65,-859 1652.42,-779.17 1723.71,-872.96 1835.65,-813 1852.89,-803.77 1868.08,-788.29 1879.52,-774.14"/>
<polygon fill="#000000" stroke="#000000" points="1882.46,-776.06 1885.82,-766.01 1876.92,-771.77 1882.46,-776.06"/>
<text text-anchor="middle" x="1630.65" y="-938.4" font-family="Times,serif" font-size="32.00">s |</text>
<text text-anchor="middle" x="1630.65" y="-903.4" font-family="Times,serif" font-size="32.00"> d</text>
<text text-anchor="middle" x="1630.65" y="-868.4" font-family="Times,serif" font-size="32.00">=&gt;0 =d +k t</text>
</g>
<!-- 0&#45;&gt;v -->
<g id="edge10" class="edge">
<title>0&#45;&gt;v</title>
<path fill="none" stroke="#000000" d="M1294.96,-1133.96C1277.73,-1108.69 1248.26,-1068.69 1216.65,-1040 1156.22,-985.15 1113.76,-1003.62 1062.65,-940 1048.38,-922.24 1059,-909.7 1044.65,-892 993.55,-828.99 961.56,-833.42 890.65,-794 811.65,-750.08 714.83,-705.96 664.57,-683.75"/>
<polygon fill="#000000" stroke="#000000" points="665.72,-680.44 655.15,-679.61 662.9,-686.84 665.72,-680.44"/>
<text text-anchor="middle" x="976.65" y="-936.4" font-family="Times,serif" font-size="32.00">ε_0</text>
<text text-anchor="middle" x="976.65" y="-901.4" font-family="Times,serif" font-size="32.00">=&gt;0 =d v</text>
</g>
<!-- 0&#45;&gt;prog -->
<g id="edge11" class="edge">
<title>0&#45;&gt;prog</title>
<path fill="none" stroke="#000000" d="M1298.42,-1184.77C1261.7,-1260.71 1144.52,-1472 977.65,-1472 977.65,-1472 977.65,-1472 323.65,-1472 193.93,-1472 90.03,-1017.2 61.27,-878"/>
<polygon fill="#000000" stroke="#000000" points="64.69,-877.25 59.25,-868.15 57.83,-878.65 64.69,-877.25"/>
<text text-anchor="middle" x="629.65" y="-1516.4" font-family="Times,serif" font-size="32.00">ing</text>
<text text-anchor="middle" x="629.65" y="-1481.4" font-family="Times,serif" font-size="32.00">=&gt;0 =d prog</text>
</g>
<!-- 0&#45;&gt;perf -->
<g id="edge12" class="edge">
<title>0&#45;&gt;perf</title>
<path fill="none" stroke="#000000" d="M1286.44,-1146.58C1231.58,-1120.72 1097.01,-1057.27 1024.97,-1023.31"/>
<polygon fill="#000000" stroke="#000000" points="1026.2,-1020.02 1015.66,-1018.92 1023.22,-1026.35 1026.2,-1020.02"/>
<text text-anchor="middle" x="1139.65" y="-1156.4" font-family="Times,serif" font-size="32.00">n</text>
<text text-anchor="middle" x="1139.65" y="-1121.4" font-family="Times,serif" font-size="32.00">=&gt;0 =d perf</text>
</g>
<!-- z2 -->
<g id="node7" class="node">
<title>z2</title>
<ellipse fill="none" stroke="black" stroke-dasharray="5,2" cx="1630.65" cy="-1232" rx="27" ry="18"/>
</g>
<!-- z2&#45;&gt;0 -->
<g id="edge5" class="edge">
<title>z2&#45;&gt;0</title>
<path fill="none" stroke="#000000" d="M1603.56,-1232.8C1561.23,-1233.36 1475.37,-1231.39 1406.65,-1210 1384.36,-1203.06 1361.39,-1190.47 1343.74,-1179.42"/>
<polygon fill="#000000" stroke="#000000" points="1345.33,-1176.28 1335.03,-1173.82 1341.55,-1182.17 1345.33,-1176.28"/>
<text text-anchor="middle" x="1471.15" y="-1380.4" font-family="Times,serif" font-size="32.00">dance |</text>
<text text-anchor="middle" x="1471.15" y="-1345.4" font-family="Times,serif" font-size="32.00"> laugh |</text>
<text text-anchor="middle" x="1471.15" y="-1310.4" font-family="Times,serif" font-size="32.00"> smile |</text>
<text text-anchor="middle" x="1471.15" y="-1275.4" font-family="Times,serif" font-size="32.00"> jump</text>
<text text-anchor="middle" x="1471.15" y="-1240.4" font-family="Times,serif" font-size="32.00">0</text>
</g>
<!-- v&#45;&gt;t -->
<g id="edge20" class="edge">
<title>v&#45;&gt;t</title>
<path fill="none" stroke="#000000" d="M656.84,-664.49C724,-653.18 907.97,-623.81 1062.65,-614 1207.78,-604.8 1248.64,-602.71 1388.65,-642 1464.86,-663.38 1476.77,-690.18 1553.65,-709 1664.82,-736.22 1801.06,-741.24 1865.09,-742"/>
<polygon fill="#000000" stroke="#000000" points="1865.43,-745.51 1875.47,-742.1 1865.5,-738.51 1865.43,-745.51"/>
<text text-anchor="middle" x="1311.65" y="-721.4" font-family="Times,serif" font-size="32.00">wills |</text>
<text text-anchor="middle" x="1311.65" y="-686.4" font-family="Times,serif" font-size="32.00"> willd</text>
<text text-anchor="middle" x="1311.65" y="-651.4" font-family="Times,serif" font-size="32.00">=v +k t</text>
</g>
<!-- to -->
<g id="node14" class="node">
<title>to</title>
<ellipse fill="none" stroke="black" cx="324.65" cy="-838" rx="28.98" ry="30.31"/>
<text text-anchor="middle" x="324.65" y="-829.9" font-family="Times,serif" font-size="32.00">to</text>
</g>
<!-- v&#45;&gt;to -->
<g id="edge39" class="edge">
<title>v&#45;&gt;to</title>
<path fill="none" stroke="#000000" d="M602.48,-667.04C548.2,-663.52 425.66,-658.5 392.65,-682 375.44,-694.26 382.89,-706.54 374.65,-726 363.99,-751.2 351.64,-779.42 342,-801.23"/>
<polygon fill="#000000" stroke="#000000" points="338.76,-799.9 337.92,-810.46 345.17,-802.73 338.76,-799.9"/>
<text text-anchor="middle" x="460.65" y="-726.4" font-family="Times,serif" font-size="32.00">to</text>
<text text-anchor="middle" x="460.65" y="-691.4" font-family="Times,serif" font-size="32.00">=v to</text>
</g>
<!-- prog&#45;&gt;t -->
<g id="edge21" class="edge">
<title>prog&#45;&gt;t</title>
<path fill="none" stroke="#000000" d="M53.19,-807.21C54.39,-686.23 75.91,-250 323.65,-250 811.65,-250 811.65,-250 811.65,-250 1134.89,-250 1220.23,-248.37 1535.65,-319 1673.94,-349.96 1742.65,-320.08 1835.65,-427 1844.73,-437.44 1879.26,-620.22 1894.43,-702.46"/>
<polygon fill="#000000" stroke="#000000" points="1891.01,-703.24 1896.26,-712.44 1897.9,-701.98 1891.01,-703.24"/>
<text text-anchor="middle" x="976.65" y="-331.4" font-family="Times,serif" font-size="32.00">bes |</text>
<text text-anchor="middle" x="976.65" y="-296.4" font-family="Times,serif" font-size="32.00"> bed</text>
<text text-anchor="middle" x="976.65" y="-261.4" font-family="Times,serif" font-size="32.00">=prog +k t</text>
</g>
<!-- prog&#45;&gt;v -->
<g id="edge22" class="edge">
<title>prog&#45;&gt;v</title>
<path fill="none" stroke="#000000" d="M86.4,-814.47C144.82,-774.51 271.56,-694.94 392.65,-666 461.94,-649.44 545.96,-656.76 592.75,-663.16"/>
<polygon fill="#000000" stroke="#000000" points="592.31,-666.63 602.7,-664.58 593.3,-659.7 592.31,-666.63"/>
<text text-anchor="middle" x="324.65" y="-750.4" font-family="Times,serif" font-size="32.00">be</text>
<text text-anchor="middle" x="324.65" y="-715.4" font-family="Times,serif" font-size="32.00">=prog v</text>
</g>
<!-- prog&#45;&gt;perf -->
<g id="edge23" class="edge">
<title>prog&#45;&gt;perf</title>
<path fill="none" stroke="#000000" d="M65.71,-867.67C77.23,-892 96.55,-925.78 122.65,-947 278.94,-1074.05 348.51,-1070.86 546.65,-1107 619.23,-1120.24 640.22,-1121.05 712.65,-1107 792.73,-1091.47 879.32,-1051.64 930.45,-1025.47"/>
<polygon fill="#000000" stroke="#000000" points="932.3,-1028.45 939.57,-1020.75 929.08,-1022.24 932.3,-1028.45"/>
<text text-anchor="middle" x="460.65" y="-1147.4" font-family="Times,serif" font-size="32.00">ben</text>
<text text-anchor="middle" x="460.65" y="-1112.4" font-family="Times,serif" font-size="32.00">=prog perf</text>
</g>
<!-- perf&#45;&gt;t -->
<g id="edge36" class="edge">
<title>perf&#45;&gt;t</title>
<path fill="none" stroke="#000000" d="M1015.5,-982.86C1029.99,-976.47 1046.84,-969.72 1062.65,-965 1129.31,-945.09 1152.83,-964.68 1216.65,-937 1313.13,-895.17 1307.64,-831.43 1406.65,-796 1496.52,-763.84 1743.32,-799.19 1835.65,-775 1847.35,-771.94 1859.39,-766.65 1869.93,-761.19"/>
<polygon fill="#000000" stroke="#000000" points="1871.64,-764.25 1878.76,-756.4 1868.3,-758.09 1871.64,-764.25"/>
<text text-anchor="middle" x="1471.15" y="-875.4" font-family="Times,serif" font-size="32.00">haves |</text>
<text text-anchor="middle" x="1471.15" y="-840.4" font-family="Times,serif" font-size="32.00"> haved</text>
<text text-anchor="middle" x="1471.15" y="-805.4" font-family="Times,serif" font-size="32.00">=perf +k t</text>
</g>
<!-- perf&#45;&gt;v -->
<g id="edge37" class="edge">
<title>perf&#45;&gt;v</title>
<path fill="none" stroke="#000000" d="M957.73,-972.84C941.93,-949.43 917.34,-916.16 890.65,-892 828.31,-835.56 793.67,-846.68 730.65,-791 700.23,-764.12 671.51,-727.46 652.72,-701.36"/>
<polygon fill="#000000" stroke="#000000" points="655.38,-699.07 646.74,-692.95 649.68,-703.13 655.38,-699.07"/>
<text text-anchor="middle" x="810.65" y="-936.4" font-family="Times,serif" font-size="32.00">have</text>
<text text-anchor="middle" x="810.65" y="-901.4" font-family="Times,serif" font-size="32.00">=perf v</text>
</g>
<!-- pass&#45;&gt;t -->
<g id="edge24" class="edge">
<title>pass&#45;&gt;t</title>
<path fill="none" stroke="#000000" d="M2120.36,-742C2067.82,-742 1986.63,-742 1939.98,-742"/>
<polygon fill="#000000" stroke="#000000" points="1939.73,-738.5 1929.73,-742 1939.73,-745.5 1939.73,-738.5"/>
<text text-anchor="middle" x="2036.15" y="-821.4" font-family="Times,serif" font-size="32.00">bes_1 |</text>
<text text-anchor="middle" x="2036.15" y="-786.4" font-family="Times,serif" font-size="32.00"> bed_1</text>
<text text-anchor="middle" x="2036.15" y="-751.4" font-family="Times,serif" font-size="32.00">=pass +k t</text>
</g>
<!-- pass&#45;&gt;v -->
<g id="edge25" class="edge">
<title>pass&#45;&gt;v</title>
<path fill="none" stroke="#000000" d="M2148.88,-714.55C2099.61,-653.97 1972.87,-507.81 1835.65,-427 1715.02,-355.96 1673.97,-352.59 1535.65,-331 1239.32,-284.74 760.45,-452.12 730.65,-484 695.32,-521.79 737.89,-553.84 712.65,-599 700.88,-620.06 680.17,-637.66 662.51,-649.94"/>
<polygon fill="#000000" stroke="#000000" points="660.51,-647.07 654.14,-655.54 664.4,-652.89 660.51,-647.07"/>
<text text-anchor="middle" x="1471.15" y="-375.4" font-family="Times,serif" font-size="32.00">be_1</text>
<text text-anchor="middle" x="1471.15" y="-340.4" font-family="Times,serif" font-size="32.00">=pass v</text>
</g>
<!-- pass&#45;&gt;prog -->
<g id="edge27" class="edge">
<title>pass&#45;&gt;prog</title>
<path fill="none" stroke="#000000" d="M2165.2,-711.44C2141.54,-581.45 2041.49,-81 1903.65,-81 1903.65,-81 1903.65,-81 323.65,-81 203.14,-81 178.03,-155.97 122.65,-263 74.26,-356.53 58.65,-681.95 54.57,-797.17"/>
<polygon fill="#000000" stroke="#000000" points="51.06,-797.22 54.22,-807.34 58.06,-797.46 51.06,-797.22"/>
<text text-anchor="middle" x="1139.65" y="-125.4" font-family="Times,serif" font-size="32.00">being</text>
<text text-anchor="middle" x="1139.65" y="-90.4" font-family="Times,serif" font-size="32.00">=pass prog</text>
</g>
<!-- pass&#45;&gt;perf -->
<g id="edge26" class="edge">
<title>pass&#45;&gt;perf</title>
<path fill="none" stroke="#000000" d="M2157.98,-771.73C2146.54,-795.77 2127.64,-829.11 2102.65,-851 2004.67,-936.86 1962.52,-942.34 1835.65,-972 1816.14,-976.56 1223.9,-993.92 1034.97,-999.36"/>
<polygon fill="#000000" stroke="#000000" points="1034.59,-995.87 1024.69,-999.66 1034.79,-1002.87 1034.59,-995.87"/>
<text text-anchor="middle" x="1630.65" y="-1028.4" font-family="Times,serif" font-size="32.00">ben_1</text>
<text text-anchor="middle" x="1630.65" y="-993.4" font-family="Times,serif" font-size="32.00">=pass perf</text>
</g>
<!-- 1&#45;&gt;0 -->
<g id="edge14" class="edge">
<title>1&#45;&gt;0</title>
<path fill="none" stroke="#000000" d="M1615.17,-1539.81C1599.13,-1514.36 1570.83,-1476.04 1535.65,-1456 1485.05,-1427.17 1450.86,-1470.91 1406.65,-1433 1336.96,-1373.23 1318.85,-1259.48 1314.2,-1198.69"/>
<polygon fill="#000000" stroke="#000000" points="1317.69,-1198.43 1313.53,-1188.69 1310.71,-1198.91 1317.69,-1198.43"/>
<text text-anchor="middle" x="1471.15" y="-1500.4" font-family="Times,serif" font-size="32.00">ε_1</text>
<text text-anchor="middle" x="1471.15" y="-1465.4" font-family="Times,serif" font-size="32.00">=&gt;1 0</text>
</g>
<!-- 1&#45;&gt;v -->
<g id="edge16" class="edge">
<title>1&#45;&gt;v</title>
<path fill="none" stroke="#000000" d="M1603.58,-1566.17C1525.7,-1569.19 1296.31,-1574.54 1234.65,-1536 1221.47,-1527.76 1225.87,-1518.52 1216.65,-1506 1024.39,-1244.95 894.28,-1241.89 730.65,-962 681.65,-878.17 652.01,-766.75 638.81,-708.42"/>
<polygon fill="#000000" stroke="#000000" points="642.19,-707.51 636.6,-698.5 635.35,-709.03 642.19,-707.51"/>
<text text-anchor="middle" x="1139.65" y="-1550.4" font-family="Times,serif" font-size="32.00">ε_2</text>
<text text-anchor="middle" x="1139.65" y="-1515.4" font-family="Times,serif" font-size="32.00">=&gt;1 =d v</text>
</g>
<!-- 1&#45;&gt;prog -->
<g id="edge17" class="edge">
<title>1&#45;&gt;prog</title>
<path fill="none" stroke="#000000" d="M1603.82,-1568.42C1549.85,-1575.27 1421.13,-1590 1312.65,-1590 1312.65,-1590 1312.65,-1590 323.65,-1590 165.73,-1590 180.58,-1443.91 122.65,-1297 64.95,-1150.66 54.94,-960.63 53.43,-878.62"/>
<polygon fill="#000000" stroke="#000000" points="56.93,-878.41 53.28,-868.47 49.93,-878.52 56.93,-878.41"/>
<text text-anchor="middle" x="810.65" y="-1634.4" font-family="Times,serif" font-size="32.00">ing_1</text>
<text text-anchor="middle" x="810.65" y="-1599.4" font-family="Times,serif" font-size="32.00">=&gt;1 =d prog</text>
</g>
<!-- 1&#45;&gt;perf -->
<g id="edge18" class="edge">
<title>1&#45;&gt;perf</title>
<path fill="none" stroke="#000000" d="M1603.58,-1561.99C1547.91,-1555.35 1421.27,-1538.98 1406.65,-1526 1385.84,-1507.51 1403.82,-1489.34 1388.65,-1466 1284.57,-1305.85 1177.62,-1338.52 1062.65,-1186 1028.62,-1140.86 1003.93,-1079.91 990.2,-1040.52"/>
<polygon fill="#000000" stroke="#000000" points="993.49,-1039.33 986.94,-1031 986.87,-1041.59 993.49,-1039.33"/>
<text text-anchor="middle" x="1311.65" y="-1510.4" font-family="Times,serif" font-size="32.00">n_1</text>
<text text-anchor="middle" x="1311.65" y="-1475.4" font-family="Times,serif" font-size="32.00">=&gt;1 =d perf</text>
</g>
<!-- c2&#45;&gt;0 -->
<g id="edge19" class="edge">
<title>c2&#45;&gt;0</title>
<path fill="none" stroke="#000000" d="M1600.32,-1090.72C1585.35,-1083.06 1567.44,-1072.48 1553.65,-1060 1543.5,-1050.81 1547.84,-1041.24 1535.65,-1035 1484.62,-1008.86 1458.05,-1009.59 1406.65,-1035 1370.35,-1052.95 1344.21,-1092.39 1328.85,-1121.79"/>
<polygon fill="#000000" stroke="#000000" points="1325.62,-1120.44 1324.25,-1130.95 1331.87,-1123.59 1325.62,-1120.44"/>
<text text-anchor="middle" x="1471.15" y="-1184.4" font-family="Times,serif" font-size="32.00">declare |</text>
<text text-anchor="middle" x="1471.15" y="-1149.4" font-family="Times,serif" font-size="32.00"> think |</text>
<text text-anchor="middle" x="1471.15" y="-1114.4" font-family="Times,serif" font-size="32.00"> explain |</text>
<text text-anchor="middle" x="1471.15" y="-1079.4" font-family="Times,serif" font-size="32.00"> say</text>
<text text-anchor="middle" x="1471.15" y="-1044.4" font-family="Times,serif" font-size="32.00">=c2 0</text>
</g>
<!-- to&#45;&gt;t -->
<g id="edge28" class="edge">
<title>to&#45;&gt;t</title>
<path fill="none" stroke="#000000" d="M347.1,-857.7C359.44,-867.68 375.81,-878.77 392.65,-884 498.35,-916.79 780.04,-887.59 890.65,-884 959.2,-881.78 994.04,-920.29 1044.65,-874 1083.15,-838.79 1023.28,-792.23 1062.65,-758 1078.86,-743.91 1814.2,-747.96 1835.65,-747 1845.35,-746.56 1855.83,-745.87 1865.52,-745.14"/>
<polygon fill="#000000" stroke="#000000" points="1865.96,-748.62 1875.66,-744.34 1865.41,-741.64 1865.96,-748.62"/>
<text text-anchor="middle" x="1139.65" y="-907.4" font-family="Times,serif" font-size="32.00">seems |</text>
<text text-anchor="middle" x="1139.65" y="-872.4" font-family="Times,serif" font-size="32.00"> seemd |</text>
<text text-anchor="middle" x="1139.65" y="-837.4" font-family="Times,serif" font-size="32.00"> appears |</text>
<text text-anchor="middle" x="1139.65" y="-802.4" font-family="Times,serif" font-size="32.00"> appeard</text>
<text text-anchor="middle" x="1139.65" y="-767.4" font-family="Times,serif" font-size="32.00">=to +k t</text>
</g>
<!-- to&#45;&gt;v -->
<g id="edge29" class="edge">
<title>to&#45;&gt;v</title>
<path fill="none" stroke="#000000" d="M344.86,-815.79C357.21,-802.98 374.32,-787.74 392.65,-779 447.99,-752.62 473.23,-782.21 528.65,-756 557.67,-742.28 584.75,-717.68 603.4,-698.13"/>
<polygon fill="#000000" stroke="#000000" points="606.11,-700.36 610.36,-690.65 600.98,-695.59 606.11,-700.36"/>
<text text-anchor="middle" x="460.65" y="-858.4" font-family="Times,serif" font-size="32.00">seem |</text>
<text text-anchor="middle" x="460.65" y="-823.4" font-family="Times,serif" font-size="32.00"> appear</text>
<text text-anchor="middle" x="460.65" y="-788.4" font-family="Times,serif" font-size="32.00">=to v</text>
</g>
<!-- to&#45;&gt;prog -->
<g id="edge31" class="edge">
<title>to&#45;&gt;prog</title>
<path fill="none" stroke="#000000" d="M295.49,-838C253.03,-838 171.59,-838 114.93,-838"/>
<polygon fill="#000000" stroke="#000000" points="114.66,-834.5 104.66,-838 114.66,-841.5 114.66,-834.5"/>
<text text-anchor="middle" x="189.65" y="-917.4" font-family="Times,serif" font-size="32.00">seeming |</text>
<text text-anchor="middle" x="189.65" y="-882.4" font-family="Times,serif" font-size="32.00"> appearing</text>
<text text-anchor="middle" x="189.65" y="-847.4" font-family="Times,serif" font-size="32.00">=to prog</text>
</g>
<!-- to&#45;&gt;perf -->
<g id="edge30" class="edge">
<title>to&#45;&gt;perf</title>
<path fill="none" stroke="#000000" d="M341.55,-863.09C353.5,-879.76 371.43,-900.59 392.65,-912 566.51,-1005.46 809.13,-1008.63 918.36,-1004.5"/>
<polygon fill="#000000" stroke="#000000" points="918.66,-1007.99 928.51,-1004.08 918.37,-1000.99 918.66,-1007.99"/>
<text text-anchor="middle" x="629.65" y="-1077.4" font-family="Times,serif" font-size="32.00">seemn |</text>
<text text-anchor="middle" x="629.65" y="-1042.4" font-family="Times,serif" font-size="32.00"> appearn</text>
<text text-anchor="middle" x="629.65" y="-1007.4" font-family="Times,serif" font-size="32.00">=to perf</text>
</g>
<!-- c1&#45;&gt;t -->
<g id="edge32" class="edge">
<title>c1&#45;&gt;t</title>
<path fill="none" stroke="#000000" d="M1344.75,-469.78C1427.24,-477.34 1644.58,-500.02 1707.65,-534 1785.66,-576.02 1849.62,-661.32 1880.91,-708.59"/>
<polygon fill="#000000" stroke="#000000" points="1878.15,-710.77 1886.54,-717.23 1884.01,-706.94 1878.15,-710.77"/>
<text text-anchor="middle" x="1630.65" y="-683.4" font-family="Times,serif" font-size="32.00">seems_1 |</text>
<text text-anchor="middle" x="1630.65" y="-648.4" font-family="Times,serif" font-size="32.00"> seemd_1 |</text>
<text text-anchor="middle" x="1630.65" y="-613.4" font-family="Times,serif" font-size="32.00"> appears_1 |</text>
<text text-anchor="middle" x="1630.65" y="-578.4" font-family="Times,serif" font-size="32.00"> appeard_1</text>
<text text-anchor="middle" x="1630.65" y="-543.4" font-family="Times,serif" font-size="32.00">=c1 +k t</text>
</g>
<!-- c1&#45;&gt;v -->
<g id="edge33" class="edge">
<title>c1&#45;&gt;v</title>
<path fill="none" stroke="#000000" d="M1278.54,-462.87C1209.28,-455.08 1041.39,-442.27 908.65,-481 804.01,-511.53 703.84,-597.84 657.49,-642.1"/>
<polygon fill="#000000" stroke="#000000" points="655.02,-639.62 650.26,-649.08 659.89,-644.66 655.02,-639.62"/>
<text text-anchor="middle" x="976.65" y="-560.4" font-family="Times,serif" font-size="32.00">seem_1 |</text>
<text text-anchor="middle" x="976.65" y="-525.4" font-family="Times,serif" font-size="32.00"> appear_1</text>
<text text-anchor="middle" x="976.65" y="-490.4" font-family="Times,serif" font-size="32.00">=c1 v</text>
</g>
<!-- c1&#45;&gt;prog -->
<g id="edge35" class="edge">
<title>c1&#45;&gt;prog</title>
<path fill="none" stroke="#000000" d="M1279.06,-460.25C1260.9,-456.72 1237.6,-452.77 1216.65,-451 1080.24,-439.47 1044.95,-441.26 908.65,-454 542.3,-488.25 394.33,-465.85 122.65,-714 97.27,-737.18 78.98,-771.88 67.58,-798.68"/>
<polygon fill="#000000" stroke="#000000" points="64.24,-797.58 63.69,-808.16 70.72,-800.24 64.24,-797.58"/>
<text text-anchor="middle" x="629.65" y="-569.4" font-family="Times,serif" font-size="32.00">seeming_1 |</text>
<text text-anchor="middle" x="629.65" y="-534.4" font-family="Times,serif" font-size="32.00"> appearing_1</text>
<text text-anchor="middle" x="629.65" y="-499.4" font-family="Times,serif" font-size="32.00">=c1 prog</text>
</g>
<!-- c1&#45;&gt;perf -->
<g id="edge34" class="edge">
<title>c1&#45;&gt;perf</title>
<path fill="none" stroke="#000000" d="M1280.05,-477.44C1225.52,-497.84 1112.55,-548.63 1062.65,-634 1037.34,-677.3 1057.56,-810.53 1044.65,-859 1034.69,-896.39 1015.18,-935.98 999.77,-963.83"/>
<polygon fill="#000000" stroke="#000000" points="996.57,-962.37 994.72,-972.8 1002.67,-965.8 996.57,-962.37"/>
<text text-anchor="middle" x="1139.65" y="-713.4" font-family="Times,serif" font-size="32.00">seemn_1 |</text>
<text text-anchor="middle" x="1139.65" y="-678.4" font-family="Times,serif" font-size="32.00"> appearn_1</text>
<text text-anchor="middle" x="1139.65" y="-643.4" font-family="Times,serif" font-size="32.00">=c1 perf</text>
</g>
<!-- z3 -->
<g id="node16" class="node">
<title>z3</title>
<ellipse fill="none" stroke="black" stroke-dasharray="5,2" cx="2729.48" cy="-1457" rx="27" ry="18"/>
</g>
<!-- e -->
<g id="node17" class="node">
<title>e</title>
<ellipse fill="none" stroke="black" cx="2576.48" cy="-1457" rx="27" ry="30.31"/>
<text text-anchor="middle" x="2576.48" y="-1448.9" font-family="Times,serif" font-size="32.00">e</text>
</g>
<!-- z3&#45;&gt;e -->
<g id="edge38" class="edge">
<title>z3&#45;&gt;e</title>
<path fill="none" stroke="#000000" d="M2702.17,-1457C2677.71,-1457 2641.03,-1457 2613.78,-1457"/>
<polygon fill="#000000" stroke="#000000" points="2613.48,-1453.5 2603.48,-1457 2613.48,-1460.5 2613.48,-1453.5"/>
<text text-anchor="middle" x="2652.98" y="-1501.4" font-family="Times,serif" font-size="32.00">it</text>
<text text-anchor="middle" x="2652.98" y="-1466.4" font-family="Times,serif" font-size="32.00">e &#45;k</text>
</g>
</g>
</svg>
