<?xml version="1.0" encoding="UTF-8" standalone="no"?>
<!DOCTYPE svg PUBLIC "-//W3C//DTD SVG 1.1//EN"
 "http://www.w3.org/Graphics/SVG/1.1/DTD/svg11.dtd">
<!-- Generated by graphviz version 2.47.1 (20210417.1919)
 -->
<!-- Title: G Pages: 1 -->
<svg width="2679pt" height="1729pt"
 viewBox="0.00 0.00 2679.48 1729.28" xmlns="http://www.w3.org/2000/svg" xmlns:xlink="http://www.w3.org/1999/xlink">
<g id="graph0" class="graph" transform="scale(1 1) rotate(0) translate(4 1725.28)">
<title>G</title>
<polygon fill="white" stroke="transparent" points="-4,4 -4,-1725.28 2675.48,-1725.28 2675.48,4 -4,4"/>
<text text-anchor="middle" x="1335.74" y="-13.4" font-family="Times,serif" font-size="32.00">single contraction: 1 → 0</text>
<!-- t -->
<g id="node1" class="node">
<title>t</title>
<ellipse fill="lightgray" stroke="black" cx="1817.65" cy="-736.28" rx="27" ry="30.31"/>
<text text-anchor="middle" x="1817.65" y="-728.18" font-family="Times,serif" font-size="32.00">t</text>
</g>
<!-- c2 -->
<g id="node12" class="node">
<title>c2</title>
<ellipse fill="none" stroke="black" cx="1545.65" cy="-437.28" rx="33.47" ry="30.31"/>
<text text-anchor="middle" x="1545.65" y="-429.18" font-family="Times,serif" font-size="32.00">c2</text>
</g>
<!-- t&#45;&gt;c2 -->
<g id="edge36" class="edge">
<title>t&#45;&gt;c2</title>
<path fill="none" stroke="#000000" d="M1809.29,-707.17C1794.97,-651.33 1763.59,-533.4 1750.65,-519.28 1707.85,-472.59 1634.82,-451.98 1588.73,-443.25"/>
<polygon fill="#000000" stroke="#000000" points="1589.22,-439.78 1578.76,-441.47 1587.99,-446.67 1589.22,-439.78"/>
<text text-anchor="middle" x="1695.65" y="-563.68" font-family="Times,serif" font-size="32.00">that_1</text>
<text text-anchor="middle" x="1695.65" y="-528.68" font-family="Times,serif" font-size="32.00">=t c2</text>
</g>
<!-- c1 -->
<g id="node14" class="node">
<title>c1</title>
<ellipse fill="none" stroke="black" cx="1236.15" cy="-914.28" rx="33.47" ry="30.31"/>
<text text-anchor="middle" x="1236.15" y="-906.18" font-family="Times,serif" font-size="32.00">c1</text>
</g>
<!-- t&#45;&gt;c1 -->
<g id="edge35" class="edge">
<title>t&#45;&gt;c1</title>
<path fill="none" stroke="#000000" d="M1804.36,-763.26C1779.03,-815.14 1715.5,-927.54 1622.65,-971.28 1504.63,-1026.9 1345.67,-966.38 1274.42,-933.14"/>
<polygon fill="#000000" stroke="#000000" points="1275.9,-929.96 1265.36,-928.84 1272.89,-936.29 1275.9,-929.96"/>
<text text-anchor="middle" x="1545.65" y="-1037.68" font-family="Times,serif" font-size="32.00">that</text>
<text text-anchor="middle" x="1545.65" y="-1002.68" font-family="Times,serif" font-size="32.00">=t =e c1</text>
</g>
<!-- z0 -->
<g id="node2" class="node">
<title>z0</title>
<ellipse fill="none" stroke="black" stroke-dasharray="5,2" cx="2491.48" cy="-737.28" rx="27" ry="18"/>
</g>
<!-- d -->
<g id="node3" class="node">
<title>d</title>
<ellipse fill="none" stroke="black" cx="2308.48" cy="-638.28" rx="27" ry="30.31"/>
<text text-anchor="middle" x="2308.48" y="-630.18" font-family="Times,serif" font-size="32.00">d</text>
</g>
<!-- z0&#45;&gt;d -->
<g id="edge1" class="edge">
<title>z0&#45;&gt;d</title>
<path fill="none" stroke="#000000" d="M2464.57,-739.45C2435.06,-740.58 2386.65,-738.25 2353.48,-715.28 2339.77,-705.8 2329.78,-690.56 2322.83,-676.13"/>
<polygon fill="#000000" stroke="#000000" points="2325.95,-674.55 2318.68,-666.84 2319.56,-677.4 2325.95,-674.55"/>
<text text-anchor="middle" x="2399.98" y="-888.68" font-family="Times,serif" font-size="32.00">Mary |</text>
<text text-anchor="middle" x="2399.98" y="-853.68" font-family="Times,serif" font-size="32.00"> John |</text>
<text text-anchor="middle" x="2399.98" y="-818.68" font-family="Times,serif" font-size="32.00"> Alice |</text>
<text text-anchor="middle" x="2399.98" y="-783.68" font-family="Times,serif" font-size="32.00"> Bob</text>
<text text-anchor="middle" x="2399.98" y="-748.68" font-family="Times,serif" font-size="32.00">d &#45;k</text>
</g>
<!-- 0 -->
<g id="node6" class="node">
<title>0</title>
<ellipse fill="none" stroke="black" cx="1236.15" cy="-513.28" rx="27" ry="30.31"/>
<text text-anchor="middle" x="1236.15" y="-505.18" font-family="Times,serif" font-size="32.00">0</text>
</g>
<!-- d&#45;&gt;0 -->
<g id="edge9" class="edge">
<title>d&#45;&gt;0</title>
<path fill="none" stroke="#000000" d="M2284.82,-623.11C2211.37,-574.75 1971.8,-423.37 1750.65,-354.28 1629.94,-316.57 1589.51,-353.51 1468.65,-316.28 1460.1,-313.65 1459.36,-309.34 1450.65,-307.28 1394.85,-294.11 1369.27,-275.35 1321.65,-307.28 1306.93,-317.16 1269.9,-418.7 1250.11,-475.44"/>
<polygon fill="#000000" stroke="#000000" points="1246.71,-474.55 1246.74,-485.14 1253.32,-476.84 1246.71,-474.55"/>
<text text-anchor="middle" x="1817.65" y="-545.68" font-family="Times,serif" font-size="32.00">praise |</text>
<text text-anchor="middle" x="1817.65" y="-510.68" font-family="Times,serif" font-size="32.00"> like |</text>
<text text-anchor="middle" x="1817.65" y="-475.68" font-family="Times,serif" font-size="32.00"> kiss |</text>
<text text-anchor="middle" x="1817.65" y="-440.68" font-family="Times,serif" font-size="32.00"> hug</text>
<text text-anchor="middle" x="1817.65" y="-405.68" font-family="Times,serif" font-size="32.00">=d *k 0</text>
</g>
<!-- v -->
<g id="node8" class="node">
<title>v</title>
<ellipse fill="none" stroke="black" cx="629.65" cy="-867.28" rx="27" ry="30.31"/>
<text text-anchor="middle" x="629.65" y="-859.18" font-family="Times,serif" font-size="32.00">v</text>
</g>
<!-- d&#45;&gt;v -->
<g id="edge6" class="edge">
<title>d&#45;&gt;v</title>
<path fill="none" stroke="#000000" d="M2304.76,-668.58C2291.83,-803.52 2231.16,-1343.28 2087.56,-1343.28 2087.56,-1343.28 2087.56,-1343.28 909.65,-1343.28 879.23,-1343.28 866.43,-1348.25 842.65,-1329.28 833.53,-1322.01 694.63,-1011.08 646.74,-903.48"/>
<polygon fill="#000000" stroke="#000000" points="649.92,-902.02 642.66,-894.31 643.52,-904.86 649.92,-902.02"/>
<text text-anchor="middle" x="1545.65" y="-1492.68" font-family="Times,serif" font-size="32.00">dance_1 |</text>
<text text-anchor="middle" x="1545.65" y="-1457.68" font-family="Times,serif" font-size="32.00"> laugh_1 |</text>
<text text-anchor="middle" x="1545.65" y="-1422.68" font-family="Times,serif" font-size="32.00"> smile_1 |</text>
<text text-anchor="middle" x="1545.65" y="-1387.68" font-family="Times,serif" font-size="32.00"> jump_1</text>
<text text-anchor="middle" x="1545.65" y="-1352.68" font-family="Times,serif" font-size="32.00">=d v</text>
</g>
<!-- prog -->
<g id="node9" class="node">
<title>prog</title>
<ellipse fill="none" stroke="black" cx="52.33" cy="-829.28" rx="52.15" ry="30.31"/>
<text text-anchor="middle" x="52.33" y="-821.18" font-family="Times,serif" font-size="32.00">prog</text>
</g>
<!-- d&#45;&gt;prog -->
<g id="edge7" class="edge">
<title>d&#45;&gt;prog</title>
<path fill="none" stroke="#000000" d="M2306.79,-668.75C2302.42,-826.84 2272.37,-1546.28 2087.56,-1546.28 2087.56,-1546.28 2087.56,-1546.28 323.65,-1546.28 177.99,-1546.28 83.72,-1021.59 59.51,-869.9"/>
<polygon fill="#000000" stroke="#000000" points="62.9,-868.97 57.89,-859.64 55.99,-870.06 62.9,-868.97"/>
<text text-anchor="middle" x="1236.15" y="-1695.68" font-family="Times,serif" font-size="32.00">danceing |</text>
<text text-anchor="middle" x="1236.15" y="-1660.68" font-family="Times,serif" font-size="32.00"> laughing |</text>
<text text-anchor="middle" x="1236.15" y="-1625.68" font-family="Times,serif" font-size="32.00"> smileing |</text>
<text text-anchor="middle" x="1236.15" y="-1590.68" font-family="Times,serif" font-size="32.00"> jumping</text>
<text text-anchor="middle" x="1236.15" y="-1555.68" font-family="Times,serif" font-size="32.00">=d prog</text>
</g>
<!-- perf -->
<g id="node10" class="node">
<title>perf</title>
<ellipse fill="none" stroke="black" cx="910.65" cy="-601.28" rx="48.17" ry="30.31"/>
<text text-anchor="middle" x="910.65" y="-593.18" font-family="Times,serif" font-size="32.00">perf</text>
</g>
<!-- d&#45;&gt;perf -->
<g id="edge8" class="edge">
<title>d&#45;&gt;perf</title>
<path fill="none" stroke="#000000" d="M2298.66,-609.79C2291.37,-589.15 2279.6,-561.3 2263.48,-540.28 2084.48,-307 2027.67,-220.88 1750.65,-122.28 1560.25,-54.52 1268.89,-143.77 1168.65,-255.28 1136.71,-290.82 1184.24,-327.3 1150.65,-361.28 1101.75,-410.76 1050.54,-345.29 996.65,-389.28 944.14,-432.16 923.86,-512.31 916.18,-560.83"/>
<polygon fill="#000000" stroke="#000000" points="912.68,-560.57 914.68,-570.98 919.6,-561.6 912.68,-560.57"/>
<text text-anchor="middle" x="1695.65" y="-271.68" font-family="Times,serif" font-size="32.00">dancen |</text>
<text text-anchor="middle" x="1695.65" y="-236.68" font-family="Times,serif" font-size="32.00"> laughn |</text>
<text text-anchor="middle" x="1695.65" y="-201.68" font-family="Times,serif" font-size="32.00"> smilen |</text>
<text text-anchor="middle" x="1695.65" y="-166.68" font-family="Times,serif" font-size="32.00"> jumpn</text>
<text text-anchor="middle" x="1695.65" y="-131.68" font-family="Times,serif" font-size="32.00">=d perf</text>
</g>
<!-- pass -->
<g id="node11" class="node">
<title>pass</title>
<ellipse fill="none" stroke="black" cx="2086.56" cy="-638.28" rx="50.82" ry="30.31"/>
<text text-anchor="middle" x="2086.56" y="-630.18" font-family="Times,serif" font-size="32.00">pass</text>
</g>
<!-- d&#45;&gt;pass -->
<g id="edge13" class="edge">
<title>d&#45;&gt;pass</title>
<path fill="none" stroke="#000000" d="M2281.38,-638.28C2248.73,-638.28 2191.79,-638.28 2148.04,-638.28"/>
<polygon fill="#000000" stroke="#000000" points="2147.8,-634.78 2137.8,-638.28 2147.8,-641.78 2147.8,-634.78"/>
<text text-anchor="middle" x="2209.48" y="-787.68" font-family="Times,serif" font-size="32.00">praisen |</text>
<text text-anchor="middle" x="2209.48" y="-752.68" font-family="Times,serif" font-size="32.00"> liken |</text>
<text text-anchor="middle" x="2209.48" y="-717.68" font-family="Times,serif" font-size="32.00"> kissn |</text>
<text text-anchor="middle" x="2209.48" y="-682.68" font-family="Times,serif" font-size="32.00"> hugn</text>
<text text-anchor="middle" x="2209.48" y="-647.68" font-family="Times,serif" font-size="32.00">=d pass</text>
</g>
<!-- n -->
<g id="node4" class="node">
<title>n</title>
<ellipse fill="none" stroke="black" cx="2491.48" cy="-539.28" rx="27" ry="30.31"/>
<text text-anchor="middle" x="2491.48" y="-531.18" font-family="Times,serif" font-size="32.00">n</text>
</g>
<!-- n&#45;&gt;d -->
<g id="edge2" class="edge">
<title>n&#45;&gt;d</title>
<path fill="none" stroke="#000000" d="M2465.4,-530.83C2436.01,-522.58 2387.07,-514.19 2353.48,-536.28 2332.66,-549.98 2321.64,-575.83 2315.84,-598.08"/>
<polygon fill="#000000" stroke="#000000" points="2312.39,-597.46 2313.53,-608 2319.21,-599.06 2312.39,-597.46"/>
<text text-anchor="middle" x="2399.98" y="-685.68" font-family="Times,serif" font-size="32.00">this |</text>
<text text-anchor="middle" x="2399.98" y="-650.68" font-family="Times,serif" font-size="32.00"> a |</text>
<text text-anchor="middle" x="2399.98" y="-615.68" font-family="Times,serif" font-size="32.00"> the |</text>
<text text-anchor="middle" x="2399.98" y="-580.68" font-family="Times,serif" font-size="32.00"> some</text>
<text text-anchor="middle" x="2399.98" y="-545.68" font-family="Times,serif" font-size="32.00">=n d &#45;k</text>
</g>
<!-- z1 -->
<g id="node5" class="node">
<title>z1</title>
<ellipse fill="none" stroke="black" stroke-dasharray="5,2" cx="2644.48" cy="-539.28" rx="27" ry="18"/>
</g>
<!-- z1&#45;&gt;n -->
<g id="edge3" class="edge">
<title>z1&#45;&gt;n</title>
<path fill="none" stroke="#000000" d="M2617.17,-539.28C2592.71,-539.28 2556.03,-539.28 2528.78,-539.28"/>
<polygon fill="#000000" stroke="#000000" points="2528.48,-535.78 2518.48,-539.28 2528.48,-542.78 2528.48,-535.78"/>
<text text-anchor="middle" x="2567.98" y="-618.68" font-family="Times,serif" font-size="32.00">boy |</text>
<text text-anchor="middle" x="2567.98" y="-583.68" font-family="Times,serif" font-size="32.00"> girl</text>
<text text-anchor="middle" x="2567.98" y="-548.68" font-family="Times,serif" font-size="32.00">n</text>
</g>
<!-- 0&#45;&gt;t -->
<g id="edge4" class="edge">
<title>0&#45;&gt;t</title>
<path fill="none" stroke="#000000" d="M1241.68,-543.4C1249.68,-584.62 1270.59,-657.16 1321.65,-689.28 1370.18,-719.82 1405.46,-724.57 1450.65,-689.28 1476.65,-668.99 1442.65,-637.58 1468.65,-617.28 1522.6,-575.16 1556.78,-598.69 1622.65,-617.28 1687.43,-635.57 1751.9,-682.21 1787.78,-711.37"/>
<polygon fill="#000000" stroke="#000000" points="1785.91,-714.36 1795.85,-718.03 1790.36,-708.96 1785.91,-714.36"/>
<text text-anchor="middle" x="1545.65" y="-696.68" font-family="Times,serif" font-size="32.00">s |</text>
<text text-anchor="middle" x="1545.65" y="-661.68" font-family="Times,serif" font-size="32.00"> d</text>
<text text-anchor="middle" x="1545.65" y="-626.68" font-family="Times,serif" font-size="32.00">=&gt;0 =d +k t</text>
</g>
<!-- 0&#45;&gt;v -->
<g id="edge10" class="edge">
<title>0&#45;&gt;v</title>
<path fill="none" stroke="#000000" d="M1224.65,-540.94C1211.61,-571.92 1186.61,-621.77 1150.65,-652.28 1038.14,-747.76 978.91,-719.62 842.65,-776.28 779.48,-802.55 706.23,-834.28 664.47,-852.49"/>
<polygon fill="#000000" stroke="#000000" points="662.82,-849.39 655.06,-856.59 665.62,-855.8 662.82,-849.39"/>
<text text-anchor="middle" x="910.65" y="-820.68" font-family="Times,serif" font-size="32.00">ε_0</text>
<text text-anchor="middle" x="910.65" y="-785.68" font-family="Times,serif" font-size="32.00">=&gt;0 =d v</text>
</g>
<!-- 0&#45;&gt;prog -->
<g id="edge11" class="edge">
<title>0&#45;&gt;prog</title>
<path fill="none" stroke="#000000" d="M1209.14,-509.15C1117.95,-495.25 804.29,-452.42 546.65,-477.28 477.24,-483.98 459.94,-489 392.65,-507.28 269.89,-540.65 210.7,-510.47 122.65,-602.28 73.53,-653.51 59.12,-738.57 54.96,-788.74"/>
<polygon fill="#000000" stroke="#000000" points="51.45,-788.67 54.21,-798.89 58.43,-789.18 51.45,-788.67"/>
<text text-anchor="middle" x="629.65" y="-521.68" font-family="Times,serif" font-size="32.00">ing</text>
<text text-anchor="middle" x="629.65" y="-486.68" font-family="Times,serif" font-size="32.00">=&gt;0 =d prog</text>
</g>
<!-- 0&#45;&gt;perf -->
<g id="edge12" class="edge">
<title>0&#45;&gt;perf</title>
<path fill="none" stroke="#000000" d="M1209.77,-520.19C1157.24,-534.48 1035.64,-567.56 965.04,-586.76"/>
<polygon fill="#000000" stroke="#000000" points="963.74,-583.49 955.01,-589.49 965.58,-590.24 963.74,-583.49"/>
<text text-anchor="middle" x="1073.65" y="-622.68" font-family="Times,serif" font-size="32.00">n</text>
<text text-anchor="middle" x="1073.65" y="-587.68" font-family="Times,serif" font-size="32.00">=&gt;0 =d perf</text>
</g>
<!-- z2 -->
<g id="node7" class="node">
<title>z2</title>
<ellipse fill="none" stroke="black" stroke-dasharray="5,2" cx="1545.65" cy="-513.28" rx="27" ry="18"/>
</g>
<!-- z2&#45;&gt;0 -->
<g id="edge5" class="edge">
<title>z2&#45;&gt;0</title>
<path fill="none" stroke="#000000" d="M1518.43,-513.28C1463.52,-513.28 1336.3,-513.28 1273.52,-513.28"/>
<polygon fill="#000000" stroke="#000000" points="1273.3,-509.78 1263.3,-513.28 1273.3,-516.78 1273.3,-509.78"/>
<text text-anchor="middle" x="1386.15" y="-662.68" font-family="Times,serif" font-size="32.00">dance |</text>
<text text-anchor="middle" x="1386.15" y="-627.68" font-family="Times,serif" font-size="32.00"> laugh |</text>
<text text-anchor="middle" x="1386.15" y="-592.68" font-family="Times,serif" font-size="32.00"> smile |</text>
<text text-anchor="middle" x="1386.15" y="-557.68" font-family="Times,serif" font-size="32.00"> jump</text>
<text text-anchor="middle" x="1386.15" y="-522.68" font-family="Times,serif" font-size="32.00">0</text>
</g>
<!-- v&#45;&gt;t -->
<g id="edge15" class="edge">
<title>v&#45;&gt;t</title>
<path fill="none" stroke="#000000" d="M652.33,-883.98C689.09,-911.2 767.06,-964.32 842.65,-986.28 1039.69,-1043.55 1102.18,-972.39 1303.65,-1011.28 1379.69,-1025.96 1392.24,-1054.67 1468.65,-1067.28 1536.18,-1078.43 1560.26,-1095.43 1622.65,-1067.28 1740.37,-1014.18 1791.05,-851.66 1808.72,-775.91"/>
<polygon fill="#000000" stroke="#000000" points="1812.21,-776.35 1811,-765.82 1805.38,-774.81 1812.21,-776.35"/>
<text text-anchor="middle" x="1236.15" y="-1090.68" font-family="Times,serif" font-size="32.00">wills |</text>
<text text-anchor="middle" x="1236.15" y="-1055.68" font-family="Times,serif" font-size="32.00"> willd</text>
<text text-anchor="middle" x="1236.15" y="-1020.68" font-family="Times,serif" font-size="32.00">=v +k t</text>
</g>
<!-- to -->
<g id="node13" class="node">
<title>to</title>
<ellipse fill="none" stroke="black" cx="324.65" cy="-677.28" rx="28.98" ry="30.31"/>
<text text-anchor="middle" x="324.65" y="-669.18" font-family="Times,serif" font-size="32.00">to</text>
</g>
<!-- v&#45;&gt;to -->
<g id="edge34" class="edge">
<title>v&#45;&gt;to</title>
<path fill="none" stroke="#000000" d="M606.89,-850.62C587.43,-836.58 557.61,-817.11 528.65,-806.28 471.23,-784.82 443.68,-817.25 392.65,-783.28 368.12,-766.96 350.8,-738.26 339.92,-714.84"/>
<polygon fill="#000000" stroke="#000000" points="343.04,-713.24 335.79,-705.51 336.64,-716.07 343.04,-713.24"/>
<text text-anchor="middle" x="460.65" y="-850.68" font-family="Times,serif" font-size="32.00">to</text>
<text text-anchor="middle" x="460.65" y="-815.68" font-family="Times,serif" font-size="32.00">=v to</text>
</g>
<!-- prog&#45;&gt;t -->
<g id="edge16" class="edge">
<title>prog&#45;&gt;t</title>
<path fill="none" stroke="#000000" d="M59.37,-859.5C79.33,-949.61 151.91,-1210.28 323.65,-1210.28 778.65,-1210.28 778.65,-1210.28 778.65,-1210.28 1077.38,-1210.28 1164.22,-1281.11 1450.65,-1196.28 1601.08,-1151.74 1658.72,-1137.41 1750.65,-1010.28 1801.8,-939.55 1813.71,-834.34 1816.23,-777.06"/>
<polygon fill="#000000" stroke="#000000" points="1819.74,-777.06 1816.6,-766.94 1812.74,-776.8 1819.74,-777.06"/>
<text text-anchor="middle" x="910.65" y="-1299.68" font-family="Times,serif" font-size="32.00">bes |</text>
<text text-anchor="middle" x="910.65" y="-1264.68" font-family="Times,serif" font-size="32.00"> bed</text>
<text text-anchor="middle" x="910.65" y="-1229.68" font-family="Times,serif" font-size="32.00">=prog +k t</text>
</g>
<!-- prog&#45;&gt;v -->
<g id="edge17" class="edge">
<title>prog&#45;&gt;v</title>
<path fill="none" stroke="#000000" d="M82,-854.37C93.77,-863.09 108.06,-871.8 122.65,-876.28 292.38,-928.39 509.43,-892.63 593.34,-875.25"/>
<polygon fill="#000000" stroke="#000000" points="594.08,-878.67 603.14,-873.18 592.63,-871.83 594.08,-878.67"/>
<text text-anchor="middle" x="324.65" y="-947.68" font-family="Times,serif" font-size="32.00">be</text>
<text text-anchor="middle" x="324.65" y="-912.68" font-family="Times,serif" font-size="32.00">=prog v</text>
</g>
<!-- prog&#45;&gt;perf -->
<g id="edge18" class="edge">
<title>prog&#45;&gt;perf</title>
<path fill="none" stroke="#000000" d="M63.32,-799.31C74.11,-770.78 93.75,-728.18 122.65,-700.28 218.9,-607.39 262.37,-597.63 392.65,-567.28 558.11,-528.74 760.83,-565.58 855.78,-587.55"/>
<polygon fill="#000000" stroke="#000000" points="855.18,-591 865.72,-589.88 856.78,-584.19 855.18,-591"/>
<text text-anchor="middle" x="460.65" y="-611.68" font-family="Times,serif" font-size="32.00">ben</text>
<text text-anchor="middle" x="460.65" y="-576.68" font-family="Times,serif" font-size="32.00">=prog perf</text>
</g>
<!-- perf&#45;&gt;t -->
<g id="edge31" class="edge">
<title>perf&#45;&gt;t</title>
<path fill="none" stroke="#000000" d="M943.38,-623.98C958.8,-634.03 978,-645.17 996.65,-652.28 1194.79,-727.88 1256.82,-712.26 1468.65,-722.28 1582.27,-727.66 1716.82,-732.7 1780.19,-734.99"/>
<polygon fill="#000000" stroke="#000000" points="1780.33,-738.5 1790.45,-735.36 1780.59,-731.5 1780.33,-738.5"/>
<text text-anchor="middle" x="1386.15" y="-800.68" font-family="Times,serif" font-size="32.00">haves |</text>
<text text-anchor="middle" x="1386.15" y="-765.68" font-family="Times,serif" font-size="32.00"> haved</text>
<text text-anchor="middle" x="1386.15" y="-730.68" font-family="Times,serif" font-size="32.00">=perf +k t</text>
</g>
<!-- perf&#45;&gt;v -->
<g id="edge32" class="edge">
<title>perf&#45;&gt;v</title>
<path fill="none" stroke="#000000" d="M878.27,-624.2C862.77,-634.63 843.4,-646.38 824.65,-654.28 785.02,-670.98 760.95,-646.76 730.65,-677.28 706.2,-701.92 727.06,-721.7 712.65,-753.28 698.29,-784.75 674.66,-816.36 656.45,-838.28"/>
<polygon fill="#000000" stroke="#000000" points="653.55,-836.29 649.77,-846.19 658.89,-840.81 653.55,-836.29"/>
<text text-anchor="middle" x="777.65" y="-721.68" font-family="Times,serif" font-size="32.00">have</text>
<text text-anchor="middle" x="777.65" y="-686.68" font-family="Times,serif" font-size="32.00">=perf v</text>
</g>
<!-- pass&#45;&gt;t -->
<g id="edge19" class="edge">
<title>pass&#45;&gt;t</title>
<path fill="none" stroke="#000000" d="M2042.68,-654.03C1990.02,-673.37 1901.72,-705.78 1853.2,-723.6"/>
<polygon fill="#000000" stroke="#000000" points="1851.94,-720.33 1843.76,-727.07 1854.35,-726.91 1851.94,-720.33"/>
<text text-anchor="middle" x="1951.15" y="-788.68" font-family="Times,serif" font-size="32.00">bes_1 |</text>
<text text-anchor="middle" x="1951.15" y="-753.68" font-family="Times,serif" font-size="32.00"> bed_1</text>
<text text-anchor="middle" x="1951.15" y="-718.68" font-family="Times,serif" font-size="32.00">=pass +k t</text>
</g>
<!-- pass&#45;&gt;v -->
<g id="edge20" class="edge">
<title>pass&#45;&gt;v</title>
<path fill="none" stroke="#000000" d="M2079.79,-668.65C2071.35,-706.73 2052.71,-772.56 2017.65,-818.28 1888.27,-987.05 1824.68,-1021.91 1622.65,-1088.28 1526.62,-1119.83 1268.51,-1131.97 1168.65,-1116.28 1018.28,-1092.67 986.79,-1060.22 842.65,-1011.28 792.6,-994.29 775.04,-999.99 730.65,-971.28 700.49,-951.78 672.74,-921.5 654.17,-898.63"/>
<polygon fill="#000000" stroke="#000000" points="656.72,-896.22 647.75,-890.57 651.25,-900.58 656.72,-896.22"/>
<text text-anchor="middle" x="1386.15" y="-1166.68" font-family="Times,serif" font-size="32.00">be_1</text>
<text text-anchor="middle" x="1386.15" y="-1131.68" font-family="Times,serif" font-size="32.00">=pass v</text>
</g>
<!-- pass&#45;&gt;prog -->
<g id="edge22" class="edge">
<title>pass&#45;&gt;prog</title>
<path fill="none" stroke="#000000" d="M2077.18,-608.06C2049.3,-513.96 1949.96,-225.41 1750.65,-106.28 1672.64,-59.66 1637.53,-92.28 1546.65,-92.28 1546.65,-92.28 1546.65,-92.28 323.65,-92.28 173.94,-92.28 82.09,-635.1 59.06,-789.04"/>
<polygon fill="#000000" stroke="#000000" points="55.58,-788.61 57.58,-799.02 62.51,-789.64 55.58,-788.61"/>
<text text-anchor="middle" x="1073.65" y="-136.68" font-family="Times,serif" font-size="32.00">being</text>
<text text-anchor="middle" x="1073.65" y="-101.68" font-family="Times,serif" font-size="32.00">=pass prog</text>
</g>
<!-- pass&#45;&gt;perf -->
<g id="edge21" class="edge">
<title>pass&#45;&gt;perf</title>
<path fill="none" stroke="#000000" d="M2035.8,-635.17C1964.21,-627.8 1833.61,-602.96 1768.65,-519.28 1723.42,-461.01 1793.23,-414.53 1750.65,-354.28 1719.33,-309.97 1685.35,-332.06 1640.65,-301.28 1631.59,-295.04 1632.38,-289.44 1622.65,-284.28 1553.47,-247.64 1528.48,-254.78 1450.65,-246.28 1393.66,-240.06 1375.37,-226.26 1321.65,-246.28 1298.7,-254.84 1042.02,-484.17 946.87,-569.61"/>
<polygon fill="#000000" stroke="#000000" points="944.33,-567.18 939.23,-576.46 949.01,-572.39 944.33,-567.18"/>
<text text-anchor="middle" x="1545.65" y="-328.68" font-family="Times,serif" font-size="32.00">ben_1</text>
<text text-anchor="middle" x="1545.65" y="-293.68" font-family="Times,serif" font-size="32.00">=pass perf</text>
</g>
<!-- c2&#45;&gt;0 -->
<g id="edge14" class="edge">
<title>c2&#45;&gt;0</title>
<path fill="none" stroke="#000000" d="M1516.5,-422.44C1500.59,-412.83 1481.39,-398.99 1468.65,-382.28 1454.83,-364.17 1469.38,-347.26 1450.65,-334.28 1403.53,-301.63 1370.08,-303.59 1321.65,-334.28 1273.65,-364.7 1252.41,-430.51 1243.38,-473.3"/>
<polygon fill="#000000" stroke="#000000" points="1239.89,-472.89 1241.39,-483.38 1246.76,-474.25 1239.89,-472.89"/>
<text text-anchor="middle" x="1386.15" y="-483.68" font-family="Times,serif" font-size="32.00">declare |</text>
<text text-anchor="middle" x="1386.15" y="-448.68" font-family="Times,serif" font-size="32.00"> think |</text>
<text text-anchor="middle" x="1386.15" y="-413.68" font-family="Times,serif" font-size="32.00"> explain |</text>
<text text-anchor="middle" x="1386.15" y="-378.68" font-family="Times,serif" font-size="32.00"> say</text>
<text text-anchor="middle" x="1386.15" y="-343.68" font-family="Times,serif" font-size="32.00">=c2 0</text>
</g>
<!-- to&#45;&gt;t -->
<g id="edge23" class="edge">
<title>to&#45;&gt;t</title>
<path fill="none" stroke="#000000" d="M332.32,-647.66C340.84,-617.21 358.72,-570.98 392.65,-547.28 510.16,-465.22 575.88,-550.16 712.65,-507.28 848.67,-464.65 861.32,-403.04 996.65,-358.28 1135.47,-312.37 1175.88,-318.65 1321.65,-307.28 1378.81,-302.83 1403.41,-274.79 1450.65,-307.28 1469.08,-319.96 1452.16,-339.17 1468.65,-354.28 1521.14,-402.37 1555.67,-374.19 1622.65,-398.28 1681.08,-419.31 1712.77,-405.08 1750.65,-454.28 1782.48,-495.62 1757.38,-519.34 1768.65,-570.28 1778.49,-614.75 1793.54,-664.85 1804.16,-698.27"/>
<polygon fill="#000000" stroke="#000000" points="1800.92,-699.62 1807.3,-708.08 1807.58,-697.48 1800.92,-699.62"/>
<text text-anchor="middle" x="1073.65" y="-507.68" font-family="Times,serif" font-size="32.00">seems |</text>
<text text-anchor="middle" x="1073.65" y="-472.68" font-family="Times,serif" font-size="32.00"> seemd |</text>
<text text-anchor="middle" x="1073.65" y="-437.68" font-family="Times,serif" font-size="32.00"> appears |</text>
<text text-anchor="middle" x="1073.65" y="-402.68" font-family="Times,serif" font-size="32.00"> appeard</text>
<text text-anchor="middle" x="1073.65" y="-367.68" font-family="Times,serif" font-size="32.00">=to +k t</text>
</g>
<!-- to&#45;&gt;v -->
<g id="edge24" class="edge">
<title>to&#45;&gt;v</title>
<path fill="none" stroke="#000000" d="M353.55,-673.35C402.78,-667.06 502.34,-657.44 528.65,-678.28 555.52,-699.57 532.38,-722.12 546.65,-753.28 561.06,-784.73 584.68,-816.34 602.88,-838.27"/>
<polygon fill="#000000" stroke="#000000" points="600.43,-840.79 609.56,-846.18 605.78,-836.28 600.43,-840.79"/>
<text text-anchor="middle" x="460.65" y="-757.68" font-family="Times,serif" font-size="32.00">seem |</text>
<text text-anchor="middle" x="460.65" y="-722.68" font-family="Times,serif" font-size="32.00"> appear</text>
<text text-anchor="middle" x="460.65" y="-687.68" font-family="Times,serif" font-size="32.00">=to v</text>
</g>
<!-- to&#45;&gt;prog -->
<g id="edge26" class="edge">
<title>to&#45;&gt;prog</title>
<path fill="none" stroke="#000000" d="M297.15,-687.12C257.59,-702.35 181.47,-733.83 122.65,-771.28 110.94,-778.74 99.05,-787.97 88.5,-796.85"/>
<polygon fill="#000000" stroke="#000000" points="86.01,-794.37 80.71,-803.55 90.58,-799.68 86.01,-794.37"/>
<text text-anchor="middle" x="189.65" y="-850.68" font-family="Times,serif" font-size="32.00">seeming |</text>
<text text-anchor="middle" x="189.65" y="-815.68" font-family="Times,serif" font-size="32.00"> appearing</text>
<text text-anchor="middle" x="189.65" y="-780.68" font-family="Times,serif" font-size="32.00">=to prog</text>
</g>
<!-- to&#45;&gt;perf -->
<g id="edge25" class="edge">
<title>to&#45;&gt;perf</title>
<path fill="none" stroke="#000000" d="M352.88,-670.01C364.99,-666.97 379.46,-663.62 392.65,-661.28 558.56,-631.95 757.05,-613.52 852.65,-605.67"/>
<polygon fill="#000000" stroke="#000000" points="853,-609.15 862.69,-604.85 852.44,-602.18 853,-609.15"/>
<text text-anchor="middle" x="629.65" y="-717.68" font-family="Times,serif" font-size="32.00">seemn |</text>
<text text-anchor="middle" x="629.65" y="-682.68" font-family="Times,serif" font-size="32.00"> appearn</text>
<text text-anchor="middle" x="629.65" y="-647.68" font-family="Times,serif" font-size="32.00">=to perf</text>
</g>
<!-- c1&#45;&gt;t -->
<g id="edge27" class="edge">
<title>c1&#45;&gt;t</title>
<path fill="none" stroke="#000000" d="M1269.34,-911.82C1315.31,-906.64 1399.83,-890.74 1450.65,-842.28 1466.54,-827.14 1451.58,-810.08 1468.65,-796.28 1567.42,-716.46 1625.84,-773.69 1750.65,-750.28 1760.56,-748.43 1771.27,-746.23 1781.12,-744.14"/>
<polygon fill="#000000" stroke="#000000" points="1781.97,-747.54 1791.01,-742.02 1780.49,-740.7 1781.97,-747.54"/>
<text text-anchor="middle" x="1545.65" y="-945.68" font-family="Times,serif" font-size="32.00">seems_1 |</text>
<text text-anchor="middle" x="1545.65" y="-910.68" font-family="Times,serif" font-size="32.00"> seemd_1 |</text>
<text text-anchor="middle" x="1545.65" y="-875.68" font-family="Times,serif" font-size="32.00"> appears_1 |</text>
<text text-anchor="middle" x="1545.65" y="-840.68" font-family="Times,serif" font-size="32.00"> appeard_1</text>
<text text-anchor="middle" x="1545.65" y="-805.68" font-family="Times,serif" font-size="32.00">=c1 +k t</text>
</g>
<!-- c1&#45;&gt;v -->
<g id="edge28" class="edge">
<title>c1&#45;&gt;v</title>
<path fill="none" stroke="#000000" d="M1203.26,-919.54C1155.76,-925.84 1064.72,-931.96 996.65,-900.28 986.11,-895.38 989.24,-886.09 978.65,-881.28 873.83,-833.68 732.43,-849.14 666.84,-860.19"/>
<polygon fill="#000000" stroke="#000000" points="665.86,-856.81 656.62,-861.99 667.07,-863.71 665.86,-856.81"/>
<text text-anchor="middle" x="910.65" y="-960.68" font-family="Times,serif" font-size="32.00">seem_1 |</text>
<text text-anchor="middle" x="910.65" y="-925.68" font-family="Times,serif" font-size="32.00"> appear_1</text>
<text text-anchor="middle" x="910.65" y="-890.68" font-family="Times,serif" font-size="32.00">=c1 v</text>
</g>
<!-- c1&#45;&gt;prog -->
<g id="edge30" class="edge">
<title>c1&#45;&gt;prog</title>
<path fill="none" stroke="#000000" d="M1212.04,-935.59C1161.6,-979.78 1036.17,-1077.28 911.65,-1077.28 911.65,-1077.28 911.65,-1077.28 323.65,-1077.28 201.14,-1077.28 110.11,-937.26 72.42,-867.64"/>
<polygon fill="#000000" stroke="#000000" points="75.46,-865.89 67.67,-858.71 69.28,-869.18 75.46,-865.89"/>
<text text-anchor="middle" x="629.65" y="-1156.68" font-family="Times,serif" font-size="32.00">seeming_1 |</text>
<text text-anchor="middle" x="629.65" y="-1121.68" font-family="Times,serif" font-size="32.00"> appearing_1</text>
<text text-anchor="middle" x="629.65" y="-1086.68" font-family="Times,serif" font-size="32.00">=c1 prog</text>
</g>
<!-- c1&#45;&gt;perf -->
<g id="edge29" class="edge">
<title>c1&#45;&gt;perf</title>
<path fill="none" stroke="#000000" d="M1222.35,-886.55C1208.43,-859.41 1183.68,-818.8 1150.65,-795.28 1092.57,-753.92 1052.62,-794.47 996.65,-750.28 960.91,-722.07 937.54,-674.4 924.52,-640.59"/>
<polygon fill="#000000" stroke="#000000" points="927.72,-639.16 920.96,-631.01 921.16,-641.6 927.72,-639.16"/>
<text text-anchor="middle" x="1073.65" y="-874.68" font-family="Times,serif" font-size="32.00">seemn_1 |</text>
<text text-anchor="middle" x="1073.65" y="-839.68" font-family="Times,serif" font-size="32.00"> appearn_1</text>
<text text-anchor="middle" x="1073.65" y="-804.68" font-family="Times,serif" font-size="32.00">=c1 perf</text>
</g>
<!-- z3 -->
<g id="node15" class="node">
<title>z3</title>
<ellipse fill="none" stroke="black" stroke-dasharray="5,2" cx="2644.48" cy="-803.28" rx="27" ry="18"/>
</g>
<!-- e -->
<g id="node16" class="node">
<title>e</title>
<ellipse fill="none" stroke="black" cx="2491.48" cy="-803.28" rx="27" ry="30.31"/>
<text text-anchor="middle" x="2491.48" y="-795.18" font-family="Times,serif" font-size="32.00">e</text>
</g>
<!-- z3&#45;&gt;e -->
<g id="edge33" class="edge">
<title>z3&#45;&gt;e</title>
<path fill="none" stroke="#000000" d="M2617.17,-803.28C2592.71,-803.28 2556.03,-803.28 2528.78,-803.28"/>
<polygon fill="#000000" stroke="#000000" points="2528.48,-799.78 2518.48,-803.28 2528.48,-806.78 2528.48,-799.78"/>
<text text-anchor="middle" x="2567.98" y="-847.68" font-family="Times,serif" font-size="32.00">it</text>
<text text-anchor="middle" x="2567.98" y="-812.68" font-family="Times,serif" font-size="32.00">e &#45;k</text>
</g>
</g>
</svg>
