<?xml version="1.0" encoding="UTF-8" standalone="no"?>
<!DOCTYPE svg PUBLIC "-//W3C//DTD SVG 1.1//EN"
 "http://www.w3.org/Graphics/SVG/1.1/DTD/svg11.dtd">
<!-- Generated by graphviz version 2.47.1 (20210417.1919)
 -->
<!-- Title: G Pages: 1 -->
<svg width="2734pt" height="1925pt"
 viewBox="0.00 0.00 2734.48 1925.00" xmlns="http://www.w3.org/2000/svg" xmlns:xlink="http://www.w3.org/1999/xlink">
<g id="graph0" class="graph" transform="scale(1 1) rotate(0) translate(4 1921)">
<title>G</title>
<polygon fill="white" stroke="transparent" points="-4,4 -4,-1921 2730.48,-1921 2730.48,4 -4,4"/>
<text text-anchor="middle" x="1363.24" y="-118.4" font-family="Times,serif" font-size="32.00">decomposition: smile 0, smile =d v, smileing =d prog, smilen =d perf</text>
<text text-anchor="middle" x="1363.24" y="-83.4" font-family="Times,serif" font-size="32.00">decomposition: dance 0, dance =d v, danceing =d prog, dancen =d perf</text>
<text text-anchor="middle" x="1363.24" y="-48.4" font-family="Times,serif" font-size="32.00">decomposition: laugh 0, laugh =d v, laughing =d prog, laughn =d perf</text>
<text text-anchor="middle" x="1363.24" y="-13.4" font-family="Times,serif" font-size="32.00">decomposition: jump 0, jump =d v, jumping =d prog, jumpn =d perf</text>
<!-- t -->
<g id="node1" class="node">
<title>t</title>
<ellipse fill="lightgray" stroke="black" cx="1872.65" cy="-591" rx="27" ry="30.31"/>
<text text-anchor="middle" x="1872.65" y="-582.9" font-family="Times,serif" font-size="32.00">t</text>
</g>
<!-- c2 -->
<g id="node19" class="node">
<title>c2</title>
<ellipse fill="none" stroke="black" cx="1630.65" cy="-978" rx="33.47" ry="30.31"/>
<text text-anchor="middle" x="1630.65" y="-969.9" font-family="Times,serif" font-size="32.00">c2</text>
</g>
<!-- t&#45;&gt;c2 -->
<g id="edge52" class="edge">
<title>t&#45;&gt;c2</title>
<path fill="none" stroke="#000000" d="M1859.14,-617.76C1848.17,-642.28 1832.62,-679.86 1823.65,-714 1809.27,-768.71 1833.81,-790.94 1805.65,-840 1773.8,-895.49 1710.13,-937.03 1669.27,-959.39"/>
<polygon fill="#000000" stroke="#000000" points="1667.58,-956.32 1660.42,-964.13 1670.88,-962.49 1667.58,-956.32"/>
<text text-anchor="middle" x="1765.65" y="-967.4" font-family="Times,serif" font-size="32.00">that_1</text>
<text text-anchor="middle" x="1765.65" y="-932.4" font-family="Times,serif" font-size="32.00">=t c2</text>
</g>
<!-- c1 -->
<g id="node21" class="node">
<title>c1</title>
<ellipse fill="none" stroke="black" cx="1311.65" cy="-603" rx="33.47" ry="30.31"/>
<text text-anchor="middle" x="1311.65" y="-594.9" font-family="Times,serif" font-size="32.00">c1</text>
</g>
<!-- t&#45;&gt;c1 -->
<g id="edge51" class="edge">
<title>t&#45;&gt;c1</title>
<path fill="none" stroke="#000000" d="M1855.77,-567.1C1829.87,-530.65 1774.67,-462.79 1707.65,-438 1643.46,-414.25 1619.85,-420.6 1553.65,-438 1466.16,-460.99 1383.58,-532.07 1341.55,-573.04"/>
<polygon fill="#000000" stroke="#000000" points="1338.83,-570.81 1334.18,-580.33 1343.75,-575.79 1338.83,-570.81"/>
<text text-anchor="middle" x="1630.65" y="-482.4" font-family="Times,serif" font-size="32.00">that</text>
<text text-anchor="middle" x="1630.65" y="-447.4" font-family="Times,serif" font-size="32.00">=t =e c1</text>
</g>
<!-- z0 -->
<g id="node2" class="node">
<title>z0</title>
<ellipse fill="none" stroke="black" stroke-dasharray="5,2" cx="2546.48" cy="-1069" rx="27" ry="18"/>
</g>
<!-- d -->
<g id="node3" class="node">
<title>d</title>
<ellipse fill="none" stroke="black" cx="2363.48" cy="-970" rx="27" ry="30.31"/>
<text text-anchor="middle" x="2363.48" y="-961.9" font-family="Times,serif" font-size="32.00">d</text>
</g>
<!-- z0&#45;&gt;d -->
<g id="edge1" class="edge">
<title>z0&#45;&gt;d</title>
<path fill="none" stroke="#000000" d="M2519.57,-1071.16C2490.06,-1072.3 2441.65,-1069.96 2408.48,-1047 2394.77,-1037.51 2384.78,-1022.27 2377.83,-1007.85"/>
<polygon fill="#000000" stroke="#000000" points="2380.95,-1006.26 2373.68,-998.55 2374.56,-1009.11 2380.95,-1006.26"/>
<text text-anchor="middle" x="2454.98" y="-1220.4" font-family="Times,serif" font-size="32.00">Mary |</text>
<text text-anchor="middle" x="2454.98" y="-1185.4" font-family="Times,serif" font-size="32.00"> John |</text>
<text text-anchor="middle" x="2454.98" y="-1150.4" font-family="Times,serif" font-size="32.00"> Alice |</text>
<text text-anchor="middle" x="2454.98" y="-1115.4" font-family="Times,serif" font-size="32.00"> Bob</text>
<text text-anchor="middle" x="2454.98" y="-1080.4" font-family="Times,serif" font-size="32.00">d &#45;k</text>
</g>
<!-- 0 -->
<g id="node6" class="node">
<title>0</title>
<ellipse fill="none" stroke="black" cx="1311.65" cy="-1271" rx="27" ry="30.31"/>
<text text-anchor="middle" x="1311.65" y="-1262.9" font-family="Times,serif" font-size="32.00">0</text>
</g>
<!-- d&#45;&gt;0 -->
<g id="edge25" class="edge">
<title>d&#45;&gt;0</title>
<path fill="none" stroke="#000000" d="M2360.99,-1000.49C2354.46,-1097.71 2320.02,-1394 2142.56,-1394 2142.56,-1394 2142.56,-1394 1764.65,-1394 1670.27,-1394 1646.72,-1385.69 1553.65,-1370 1487.62,-1358.87 1467.89,-1364.09 1406.65,-1337 1383.14,-1326.6 1359.48,-1309.94 1341.77,-1295.96"/>
<polygon fill="#000000" stroke="#000000" points="1343.56,-1292.91 1333.58,-1289.35 1339.17,-1298.36 1343.56,-1292.91"/>
<text text-anchor="middle" x="1872.65" y="-1543.4" font-family="Times,serif" font-size="32.00">praise |</text>
<text text-anchor="middle" x="1872.65" y="-1508.4" font-family="Times,serif" font-size="32.00"> like |</text>
<text text-anchor="middle" x="1872.65" y="-1473.4" font-family="Times,serif" font-size="32.00"> kiss |</text>
<text text-anchor="middle" x="1872.65" y="-1438.4" font-family="Times,serif" font-size="32.00"> hug</text>
<text text-anchor="middle" x="1872.65" y="-1403.4" font-family="Times,serif" font-size="32.00">=d *k 0</text>
</g>
<!-- pass -->
<g id="node18" class="node">
<title>pass</title>
<ellipse fill="none" stroke="black" cx="2141.56" cy="-591" rx="50.82" ry="30.31"/>
<text text-anchor="middle" x="2141.56" y="-582.9" font-family="Times,serif" font-size="32.00">pass</text>
</g>
<!-- d&#45;&gt;pass -->
<g id="edge29" class="edge">
<title>d&#45;&gt;pass</title>
<path fill="none" stroke="#000000" d="M2347.88,-944.84C2310.13,-879.78 2209.13,-705.72 2164.4,-628.63"/>
<polygon fill="#000000" stroke="#000000" points="2167.28,-626.62 2159.23,-619.73 2161.22,-630.13 2167.28,-626.62"/>
<text text-anchor="middle" x="2264.48" y="-1038.4" font-family="Times,serif" font-size="32.00">praisen |</text>
<text text-anchor="middle" x="2264.48" y="-1003.4" font-family="Times,serif" font-size="32.00"> liken |</text>
<text text-anchor="middle" x="2264.48" y="-968.4" font-family="Times,serif" font-size="32.00"> kissn |</text>
<text text-anchor="middle" x="2264.48" y="-933.4" font-family="Times,serif" font-size="32.00"> hugn</text>
<text text-anchor="middle" x="2264.48" y="-898.4" font-family="Times,serif" font-size="32.00">=d pass</text>
</g>
<!-- n -->
<g id="node4" class="node">
<title>n</title>
<ellipse fill="none" stroke="black" cx="2546.48" cy="-871" rx="27" ry="30.31"/>
<text text-anchor="middle" x="2546.48" y="-862.9" font-family="Times,serif" font-size="32.00">n</text>
</g>
<!-- n&#45;&gt;d -->
<g id="edge2" class="edge">
<title>n&#45;&gt;d</title>
<path fill="none" stroke="#000000" d="M2520.4,-862.54C2491.01,-854.29 2442.07,-845.91 2408.48,-868 2387.66,-881.69 2376.64,-907.55 2370.84,-929.8"/>
<polygon fill="#000000" stroke="#000000" points="2367.39,-929.18 2368.53,-939.71 2374.21,-930.77 2367.39,-929.18"/>
<text text-anchor="middle" x="2454.98" y="-1017.4" font-family="Times,serif" font-size="32.00">this |</text>
<text text-anchor="middle" x="2454.98" y="-982.4" font-family="Times,serif" font-size="32.00"> a |</text>
<text text-anchor="middle" x="2454.98" y="-947.4" font-family="Times,serif" font-size="32.00"> the |</text>
<text text-anchor="middle" x="2454.98" y="-912.4" font-family="Times,serif" font-size="32.00"> some</text>
<text text-anchor="middle" x="2454.98" y="-877.4" font-family="Times,serif" font-size="32.00">=n d &#45;k</text>
</g>
<!-- z1 -->
<g id="node5" class="node">
<title>z1</title>
<ellipse fill="none" stroke="black" stroke-dasharray="5,2" cx="2699.48" cy="-871" rx="27" ry="18"/>
</g>
<!-- z1&#45;&gt;n -->
<g id="edge3" class="edge">
<title>z1&#45;&gt;n</title>
<path fill="none" stroke="#000000" d="M2672.17,-871C2647.71,-871 2611.03,-871 2583.78,-871"/>
<polygon fill="#000000" stroke="#000000" points="2583.48,-867.5 2573.48,-871 2583.48,-874.5 2583.48,-867.5"/>
<text text-anchor="middle" x="2622.98" y="-950.4" font-family="Times,serif" font-size="32.00">boy |</text>
<text text-anchor="middle" x="2622.98" y="-915.4" font-family="Times,serif" font-size="32.00"> girl</text>
<text text-anchor="middle" x="2622.98" y="-880.4" font-family="Times,serif" font-size="32.00">n</text>
</g>
<!-- 0&#45;&gt;t -->
<g id="edge4" class="edge">
<title>0&#45;&gt;t</title>
<path fill="none" stroke="#000000" d="M1338.44,-1265.77C1396.77,-1253.9 1533.96,-1225.83 1535.65,-1224 1577.65,-1178.59 1514.74,-1134.08 1553.65,-1086 1628.39,-993.68 1734.01,-1091.74 1805.65,-997 1824.65,-971.87 1816.84,-744.76 1823.65,-714 1830.43,-683.37 1843.68,-650.35 1854.54,-626.23"/>
<polygon fill="#000000" stroke="#000000" points="1857.73,-627.68 1858.72,-617.13 1851.37,-624.76 1857.73,-627.68"/>
<text text-anchor="middle" x="1630.65" y="-1165.4" font-family="Times,serif" font-size="32.00">s |</text>
<text text-anchor="middle" x="1630.65" y="-1130.4" font-family="Times,serif" font-size="32.00"> d</text>
<text text-anchor="middle" x="1630.65" y="-1095.4" font-family="Times,serif" font-size="32.00">=&gt;0 =d +k t</text>
</g>
<!-- v -->
<g id="node9" class="node">
<title>v</title>
<ellipse fill="none" stroke="black" cx="629.65" cy="-991" rx="27" ry="30.31"/>
<text text-anchor="middle" x="629.65" y="-982.9" font-family="Times,serif" font-size="32.00">v</text>
</g>
<!-- 0&#45;&gt;v -->
<g id="edge26" class="edge">
<title>0&#45;&gt;v</title>
<path fill="none" stroke="#000000" d="M1287.94,-1256.45C1242.92,-1228.08 1138.62,-1164.6 1044.65,-1124 909.24,-1065.49 739.36,-1018.82 666.51,-1000"/>
<polygon fill="#000000" stroke="#000000" points="667.04,-996.52 656.48,-997.42 665.3,-1003.3 667.04,-996.52"/>
<text text-anchor="middle" x="976.65" y="-1168.4" font-family="Times,serif" font-size="32.00">ε_8</text>
<text text-anchor="middle" x="976.65" y="-1133.4" font-family="Times,serif" font-size="32.00">=&gt;0 =d v</text>
</g>
<!-- prog -->
<g id="node10" class="node">
<title>prog</title>
<ellipse fill="none" stroke="black" cx="52.33" cy="-1097" rx="52.15" ry="30.31"/>
<text text-anchor="middle" x="52.33" y="-1088.9" font-family="Times,serif" font-size="32.00">prog</text>
</g>
<!-- 0&#45;&gt;prog -->
<g id="edge27" class="edge">
<title>0&#45;&gt;prog</title>
<path fill="none" stroke="#000000" d="M1292.96,-1293.17C1275.64,-1315.94 1249.72,-1353.04 1234.65,-1389 1220.57,-1422.61 1241.64,-1442.47 1216.65,-1469 1140.84,-1549.48 1088.21,-1538 977.65,-1538 977.65,-1538 977.65,-1538 323.65,-1538 136.61,-1538 74.98,-1246.08 58.51,-1137.26"/>
<polygon fill="#000000" stroke="#000000" points="61.96,-1136.7 57.05,-1127.31 55.04,-1137.71 61.96,-1136.7"/>
<text text-anchor="middle" x="629.65" y="-1582.4" font-family="Times,serif" font-size="32.00">ing_4</text>
<text text-anchor="middle" x="629.65" y="-1547.4" font-family="Times,serif" font-size="32.00">=&gt;0 =d prog</text>
</g>
<!-- perf -->
<g id="node11" class="node">
<title>perf</title>
<ellipse fill="none" stroke="black" cx="976.65" cy="-1271" rx="48.17" ry="30.31"/>
<text text-anchor="middle" x="976.65" y="-1262.9" font-family="Times,serif" font-size="32.00">perf</text>
</g>
<!-- 0&#45;&gt;perf -->
<g id="edge28" class="edge">
<title>0&#45;&gt;perf</title>
<path fill="none" stroke="#000000" d="M1284.52,-1271C1231.11,-1271 1108.32,-1271 1035.28,-1271"/>
<polygon fill="#000000" stroke="#000000" points="1034.88,-1267.5 1024.88,-1271 1034.88,-1274.5 1034.88,-1267.5"/>
<text text-anchor="middle" x="1139.65" y="-1315.4" font-family="Times,serif" font-size="32.00">n_4</text>
<text text-anchor="middle" x="1139.65" y="-1280.4" font-family="Times,serif" font-size="32.00">=&gt;0 =d perf</text>
</g>
<!-- 1 -->
<g id="node7" class="node">
<title>1</title>
<ellipse fill="none" stroke="black" cx="1630.65" cy="-1230" rx="27" ry="30.31"/>
<text text-anchor="middle" x="1630.65" y="-1221.9" font-family="Times,serif" font-size="32.00">1</text>
</g>
<!-- 1&#45;&gt;0 -->
<g id="edge5" class="edge">
<title>1&#45;&gt;0</title>
<path fill="none" stroke="#00b9f1" stroke-width="2" d="M1603.84,-1235.95C1585.03,-1240.11 1558.87,-1245.52 1535.65,-1249 1470.12,-1258.83 1393.06,-1265.32 1348.83,-1268.56"/>
<polygon fill="#00b9f1" stroke="#00b9f1" stroke-width="2" points="1348.57,-1265.07 1338.85,-1269.28 1349.07,-1272.05 1348.57,-1265.07"/>
<text text-anchor="middle" x="1471.15" y="-1307.4" font-family="Times,serif" font-size="32.00">ε_0</text>
<text text-anchor="middle" x="1471.15" y="-1272.4" font-family="Times,serif" font-size="32.00">=&gt;1 0</text>
</g>
<!-- 1&#45;&gt;v -->
<g id="edge7" class="edge">
<title>1&#45;&gt;v</title>
<path fill="none" stroke="#00b9f1" stroke-width="2" d="M1603.86,-1225.07C1586.73,-1220.37 1565.33,-1211.47 1553.65,-1195 1529.12,-1160.4 1566.8,-1033.78 1535.65,-1005 1471.13,-945.39 828.83,-979.23 667.35,-988.75"/>
<polygon fill="#00b9f1" stroke="#00b9f1" stroke-width="2" points="666.76,-985.28 656.99,-989.37 667.18,-992.27 666.76,-985.28"/>
<text text-anchor="middle" x="1139.65" y="-1017.4" font-family="Times,serif" font-size="32.00">ε_1</text>
<text text-anchor="middle" x="1139.65" y="-982.4" font-family="Times,serif" font-size="32.00">=&gt;1 =d v</text>
</g>
<!-- 1&#45;&gt;prog -->
<g id="edge8" class="edge">
<title>1&#45;&gt;prog</title>
<path fill="none" stroke="#00b9f1" stroke-width="2" d="M1611.08,-1251.29C1593.33,-1272.87 1567.33,-1307.98 1553.65,-1343 1534.51,-1392.01 1571.96,-1421.93 1535.65,-1460 1529.76,-1466.17 1242.78,-1518.39 1234.65,-1521 1115.49,-1559.22 1102.79,-1636 977.65,-1636 977.65,-1636 977.65,-1636 323.65,-1636 100.88,-1636 61.68,-1263.57 54.79,-1137.87"/>
<polygon fill="#00b9f1" stroke="#00b9f1" stroke-width="2" points="58.27,-1137.33 54.27,-1127.52 51.28,-1137.69 58.27,-1137.33"/>
<text text-anchor="middle" x="810.65" y="-1680.4" font-family="Times,serif" font-size="32.00">ing</text>
<text text-anchor="middle" x="810.65" y="-1645.4" font-family="Times,serif" font-size="32.00">=&gt;1 =d prog</text>
</g>
<!-- 1&#45;&gt;perf -->
<g id="edge9" class="edge">
<title>1&#45;&gt;perf</title>
<path fill="none" stroke="#00b9f1" stroke-width="2" d="M1604.19,-1222.08C1586.98,-1215.34 1565.35,-1203.85 1553.65,-1186 1534.4,-1156.63 1561.86,-1052.37 1535.65,-1029 1492.86,-990.84 1462.11,-1014.44 1406.65,-1029 1248.1,-1070.64 1086.43,-1185.62 1015.23,-1240.75"/>
<polygon fill="#00b9f1" stroke="#00b9f1" stroke-width="2" points="1012.74,-1238.26 1007.01,-1247.17 1017.04,-1243.78 1012.74,-1238.26"/>
<text text-anchor="middle" x="1311.65" y="-1139.4" font-family="Times,serif" font-size="32.00">n</text>
<text text-anchor="middle" x="1311.65" y="-1104.4" font-family="Times,serif" font-size="32.00">=&gt;1 =d perf</text>
</g>
<!-- z2 -->
<g id="node8" class="node">
<title>z2</title>
<ellipse fill="none" stroke="black" stroke-dasharray="5,2" cx="1872.65" cy="-1211" rx="27" ry="18"/>
</g>
<!-- z2&#45;&gt;1 -->
<g id="edge6" class="edge">
<title>z2&#45;&gt;1</title>
<path fill="none" stroke="#00b9f1" stroke-width="2" d="M1845.47,-1209.75C1816.19,-1208.68 1767.4,-1207.89 1725.65,-1212 1706.16,-1213.92 1684.69,-1217.88 1667.2,-1221.61"/>
<polygon fill="#00b9f1" stroke="#00b9f1" stroke-width="2" points="1666.42,-1218.19 1657.4,-1223.75 1667.92,-1225.03 1666.42,-1218.19"/>
<text text-anchor="middle" x="1765.65" y="-1256.4" font-family="Times,serif" font-size="32.00">dance</text>
<text text-anchor="middle" x="1765.65" y="-1221.4" font-family="Times,serif" font-size="32.00">1</text>
</g>
<!-- v&#45;&gt;t -->
<g id="edge31" class="edge">
<title>v&#45;&gt;t</title>
<path fill="none" stroke="#000000" d="M645.44,-966.03C662.81,-938.55 693.97,-894.6 730.65,-867 851.62,-775.98 941.12,-845.45 1044.65,-735 1061.38,-717.16 1043.32,-697.98 1062.65,-683 1123.27,-636.01 1158.02,-672.11 1234.65,-669 1303.04,-666.22 1320.43,-663.46 1388.65,-669 1530.47,-680.53 1571.1,-735.97 1707.65,-696 1760.37,-680.57 1812.23,-642.43 1843.09,-616.62"/>
<polygon fill="#000000" stroke="#000000" points="1845.5,-619.17 1850.84,-610.02 1840.96,-613.84 1845.5,-619.17"/>
<text text-anchor="middle" x="1311.65" y="-748.4" font-family="Times,serif" font-size="32.00">wills |</text>
<text text-anchor="middle" x="1311.65" y="-713.4" font-family="Times,serif" font-size="32.00"> willd</text>
<text text-anchor="middle" x="1311.65" y="-678.4" font-family="Times,serif" font-size="32.00">=v +k t</text>
</g>
<!-- to -->
<g id="node20" class="node">
<title>to</title>
<ellipse fill="none" stroke="black" cx="324.65" cy="-1097" rx="28.98" ry="30.31"/>
<text text-anchor="middle" x="324.65" y="-1088.9" font-family="Times,serif" font-size="32.00">to</text>
</g>
<!-- v&#45;&gt;to -->
<g id="edge50" class="edge">
<title>v&#45;&gt;to</title>
<path fill="none" stroke="#000000" d="M602.48,-989.17C548.18,-985.89 425.62,-981.42 392.65,-1005 375.47,-1017.29 386.44,-1031.47 374.65,-1049 369.28,-1056.98 362.42,-1064.71 355.55,-1071.54"/>
<polygon fill="#000000" stroke="#000000" points="352.99,-1069.15 348.15,-1078.58 357.81,-1074.22 352.99,-1069.15"/>
<text text-anchor="middle" x="460.65" y="-1049.4" font-family="Times,serif" font-size="32.00">to</text>
<text text-anchor="middle" x="460.65" y="-1014.4" font-family="Times,serif" font-size="32.00">=v to</text>
</g>
<!-- prog&#45;&gt;t -->
<g id="edge32" class="edge">
<title>prog&#45;&gt;t</title>
<path fill="none" stroke="#000000" d="M54.89,-1066.28C60.39,-965.18 80.84,-643.9 122.65,-550 178.29,-425.06 186.89,-317 323.65,-317 1631.65,-317 1631.65,-317 1631.65,-317 1716.58,-317 1748.67,-333.02 1805.65,-396 1845.08,-439.58 1861.09,-507.63 1867.5,-550.74"/>
<polygon fill="#000000" stroke="#000000" points="1864.06,-551.43 1868.89,-560.86 1870.99,-550.48 1864.06,-551.43"/>
<text text-anchor="middle" x="976.65" y="-396.4" font-family="Times,serif" font-size="32.00">bes |</text>
<text text-anchor="middle" x="976.65" y="-361.4" font-family="Times,serif" font-size="32.00"> bed</text>
<text text-anchor="middle" x="976.65" y="-326.4" font-family="Times,serif" font-size="32.00">=prog +k t</text>
</g>
<!-- prog&#45;&gt;v -->
<g id="edge33" class="edge">
<title>prog&#45;&gt;v</title>
<path fill="none" stroke="#000000" d="M87.1,-1074.19C128.97,-1047.41 203.53,-1004.56 274.65,-988 388.34,-961.52 528.18,-975.98 592.8,-985.21"/>
<polygon fill="#000000" stroke="#000000" points="592.47,-988.7 602.87,-986.7 593.49,-981.78 592.47,-988.7"/>
<text text-anchor="middle" x="324.65" y="-1032.4" font-family="Times,serif" font-size="32.00">be</text>
<text text-anchor="middle" x="324.65" y="-997.4" font-family="Times,serif" font-size="32.00">=prog v</text>
</g>
<!-- prog&#45;&gt;perf -->
<g id="edge34" class="edge">
<title>prog&#45;&gt;perf</title>
<path fill="none" stroke="#000000" d="M66.46,-1126.55C78.32,-1150.48 97.71,-1183.76 122.65,-1206 279.01,-1345.45 342.48,-1365.03 546.65,-1412 700.45,-1447.38 752.79,-1400.81 890.65,-1324 904.98,-1316.01 920.29,-1306.72 933.92,-1298.16"/>
<polygon fill="#000000" stroke="#000000" points="936.02,-1300.97 942.6,-1292.66 932.28,-1295.06 936.02,-1300.97"/>
<text text-anchor="middle" x="460.65" y="-1451.4" font-family="Times,serif" font-size="32.00">ben</text>
<text text-anchor="middle" x="460.65" y="-1416.4" font-family="Times,serif" font-size="32.00">=prog perf</text>
</g>
<!-- perf&#45;&gt;t -->
<g id="edge47" class="edge">
<title>perf&#45;&gt;t</title>
<path fill="none" stroke="#000000" d="M1006.42,-1246.69C1020.06,-1233.63 1035.36,-1216.43 1044.65,-1198 1063.6,-1160.41 1035.77,-1137.4 1062.65,-1105 1109.65,-1048.34 1151.44,-1078.16 1216.65,-1044 1225.17,-1039.54 1226.15,-1036.49 1234.65,-1032 1299.91,-997.58 1344.6,-1029.19 1388.65,-970 1414.77,-934.91 1374.34,-803.48 1406.65,-774 1427.83,-754.68 1511,-759.37 1535.65,-774 1550.02,-782.53 1539.41,-798.26 1553.65,-807 1618.84,-846.99 1649.18,-810.89 1725.65,-812 1761.2,-812.52 1778.33,-834.76 1805.65,-812 1839.68,-783.66 1811.55,-756.6 1823.65,-714 1832.13,-684.16 1845.06,-651.49 1855.37,-627.32"/>
<polygon fill="#000000" stroke="#000000" points="1858.71,-628.42 1859.46,-617.85 1852.28,-625.64 1858.71,-628.42"/>
<text text-anchor="middle" x="1471.15" y="-853.4" font-family="Times,serif" font-size="32.00">haves |</text>
<text text-anchor="middle" x="1471.15" y="-818.4" font-family="Times,serif" font-size="32.00"> haved</text>
<text text-anchor="middle" x="1471.15" y="-783.4" font-family="Times,serif" font-size="32.00">=perf +k t</text>
</g>
<!-- perf&#45;&gt;v -->
<g id="edge48" class="edge">
<title>perf&#45;&gt;v</title>
<path fill="none" stroke="#000000" d="M937.43,-1252.9C923.04,-1246.72 906.35,-1240.29 890.65,-1236 821.35,-1217.07 788.05,-1256.2 730.65,-1213 671.88,-1168.77 646.8,-1082.1 636.77,-1031.12"/>
<polygon fill="#000000" stroke="#000000" points="640.18,-1030.3 634.9,-1021.11 633.3,-1031.59 640.18,-1030.3"/>
<text text-anchor="middle" x="810.65" y="-1280.4" font-family="Times,serif" font-size="32.00">have</text>
<text text-anchor="middle" x="810.65" y="-1245.4" font-family="Times,serif" font-size="32.00">=perf v</text>
</g>
<!-- 2 -->
<g id="node12" class="node">
<title>2</title>
<ellipse fill="none" stroke="black" cx="1630.65" cy="-1752" rx="27" ry="30.31"/>
<text text-anchor="middle" x="1630.65" y="-1743.9" font-family="Times,serif" font-size="32.00">2</text>
</g>
<!-- 2&#45;&gt;0 -->
<g id="edge10" class="edge">
<title>2&#45;&gt;0</title>
<path fill="none" stroke="#ecde38" stroke-width="2" d="M1610.48,-1731.05C1562.54,-1678.43 1439,-1541.14 1406.65,-1489 1369.99,-1429.9 1340.82,-1354 1325.19,-1309.12"/>
<polygon fill="#ecde38" stroke="#ecde38" stroke-width="2" points="1328.44,-1307.81 1321.88,-1299.49 1321.82,-1310.08 1328.44,-1307.81"/>
<text text-anchor="middle" x="1471.15" y="-1688.4" font-family="Times,serif" font-size="32.00">ε_2</text>
<text text-anchor="middle" x="1471.15" y="-1653.4" font-family="Times,serif" font-size="32.00">=&gt;2 0</text>
</g>
<!-- 2&#45;&gt;v -->
<g id="edge12" class="edge">
<title>2&#45;&gt;v</title>
<path fill="none" stroke="#ecde38" stroke-width="2" d="M1604.06,-1758.11C1539.51,-1772.27 1365.87,-1802.47 1234.65,-1753 955.6,-1647.79 893.28,-1559.99 730.65,-1310 672.34,-1220.36 646.17,-1094.52 636.07,-1031.01"/>
<polygon fill="#ecde38" stroke="#ecde38" stroke-width="2" points="639.51,-1030.35 634.53,-1021 632.59,-1031.42 639.51,-1030.35"/>
<text text-anchor="middle" x="1139.65" y="-1789.4" font-family="Times,serif" font-size="32.00">ε_3</text>
<text text-anchor="middle" x="1139.65" y="-1754.4" font-family="Times,serif" font-size="32.00">=&gt;2 =d v</text>
</g>
<!-- 2&#45;&gt;prog -->
<g id="edge13" class="edge">
<title>2&#45;&gt;prog</title>
<path fill="none" stroke="#ecde38" stroke-width="2" d="M1605.73,-1764.42C1553.83,-1790.17 1426.41,-1847 1312.65,-1847 1312.65,-1847 1312.65,-1847 323.65,-1847 199.8,-1847 178.16,-1764.71 122.65,-1654 77.11,-1563.18 59.76,-1250.75 54.9,-1137.99"/>
<polygon fill="#ecde38" stroke="#ecde38" stroke-width="2" points="58.38,-1137.56 54.46,-1127.72 51.39,-1137.86 58.38,-1137.56"/>
<text text-anchor="middle" x="810.65" y="-1891.4" font-family="Times,serif" font-size="32.00">ing_1</text>
<text text-anchor="middle" x="810.65" y="-1856.4" font-family="Times,serif" font-size="32.00">=&gt;2 =d prog</text>
</g>
<!-- 2&#45;&gt;perf -->
<g id="edge14" class="edge">
<title>2&#45;&gt;perf</title>
<path fill="none" stroke="#ecde38" stroke-width="2" d="M1603.38,-1750.95C1551.39,-1748.39 1437.73,-1740.35 1406.65,-1718 1392.45,-1707.79 1401.19,-1695.2 1388.65,-1683 1272.85,-1570.29 1163.47,-1648.29 1062.65,-1522 1042.07,-1496.22 1054.45,-1481.5 1044.65,-1450 1029.43,-1401.05 1008.18,-1346 993.72,-1310.03"/>
<polygon fill="#ecde38" stroke="#ecde38" stroke-width="2" points="996.83,-1308.38 989.84,-1300.42 990.34,-1311 996.83,-1308.38"/>
<text text-anchor="middle" x="1311.65" y="-1727.4" font-family="Times,serif" font-size="32.00">n_1</text>
<text text-anchor="middle" x="1311.65" y="-1692.4" font-family="Times,serif" font-size="32.00">=&gt;2 =d perf</text>
</g>
<!-- z3 -->
<g id="node13" class="node">
<title>z3</title>
<ellipse fill="none" stroke="black" stroke-dasharray="5,2" cx="1872.65" cy="-1752" rx="27" ry="18"/>
</g>
<!-- z3&#45;&gt;2 -->
<g id="edge11" class="edge">
<title>z3&#45;&gt;2</title>
<path fill="none" stroke="#ecde38" stroke-width="2" d="M1845.51,-1752C1802.5,-1752 1716.72,-1752 1667.88,-1752"/>
<polygon fill="#ecde38" stroke="#ecde38" stroke-width="2" points="1667.76,-1748.5 1657.76,-1752 1667.76,-1755.5 1667.76,-1748.5"/>
<text text-anchor="middle" x="1765.65" y="-1796.4" font-family="Times,serif" font-size="32.00">laugh</text>
<text text-anchor="middle" x="1765.65" y="-1761.4" font-family="Times,serif" font-size="32.00">2</text>
</g>
<!-- 3 -->
<g id="node14" class="node">
<title>3</title>
<ellipse fill="none" stroke="black" cx="1630.65" cy="-1549" rx="27" ry="30.31"/>
<text text-anchor="middle" x="1630.65" y="-1540.9" font-family="Times,serif" font-size="32.00">3</text>
</g>
<!-- 3&#45;&gt;0 -->
<g id="edge15" class="edge">
<title>3&#45;&gt;0</title>
<path fill="none" stroke="#00a875" stroke-width="2" d="M1617.22,-1522.46C1601.94,-1492.48 1573.32,-1444.09 1535.65,-1415 1487.24,-1377.61 1457.95,-1400.32 1406.65,-1367 1379.37,-1349.28 1353.91,-1322.37 1336.39,-1301.54"/>
<polygon fill="#00a875" stroke="#00a875" stroke-width="2" points="1338.91,-1299.1 1329.84,-1293.61 1333.51,-1303.55 1338.91,-1299.1"/>
<text text-anchor="middle" x="1471.15" y="-1459.4" font-family="Times,serif" font-size="32.00">ε_4</text>
<text text-anchor="middle" x="1471.15" y="-1424.4" font-family="Times,serif" font-size="32.00">=&gt;3 0</text>
</g>
<!-- 3&#45;&gt;v -->
<g id="edge17" class="edge">
<title>3&#45;&gt;v</title>
<path fill="none" stroke="#00a875" stroke-width="2" d="M1604.13,-1543.12C1562.24,-1533.14 1476.55,-1511.39 1406.65,-1485 1319.23,-1452 1303.49,-1429.5 1216.65,-1395 1149.77,-1368.43 1109.42,-1399.69 1062.65,-1345 1029.6,-1306.35 1078.5,-1269.96 1044.65,-1232 1002.89,-1185.16 965.12,-1221.39 908.65,-1194 808.05,-1145.21 706.02,-1059.31 658.37,-1016.61"/>
<polygon fill="#00a875" stroke="#00a875" stroke-width="2" points="660.7,-1013.99 650.93,-1009.89 656.01,-1019.19 660.7,-1013.99"/>
<text text-anchor="middle" x="1139.65" y="-1439.4" font-family="Times,serif" font-size="32.00">ε_5</text>
<text text-anchor="middle" x="1139.65" y="-1404.4" font-family="Times,serif" font-size="32.00">=&gt;3 =d v</text>
</g>
<!-- 3&#45;&gt;prog -->
<g id="edge18" class="edge">
<title>3&#45;&gt;prog</title>
<path fill="none" stroke="#00a875" stroke-width="2" d="M1620.43,-1577.25C1607.46,-1612.02 1580.31,-1669.9 1535.65,-1698 1500.65,-1720.02 1198.65,-1729 1140.65,-1729 1140.65,-1729 1140.65,-1729 323.65,-1729 207.51,-1729 179.63,-1663.21 122.65,-1562 81.8,-1489.43 62.02,-1237.09 55.68,-1137.69"/>
<polygon fill="#00a875" stroke="#00a875" stroke-width="2" points="59.16,-1137.21 55.04,-1127.45 52.17,-1137.65 59.16,-1137.21"/>
<text text-anchor="middle" x="810.65" y="-1773.4" font-family="Times,serif" font-size="32.00">ing_2</text>
<text text-anchor="middle" x="810.65" y="-1738.4" font-family="Times,serif" font-size="32.00">=&gt;3 =d prog</text>
</g>
<!-- 3&#45;&gt;perf -->
<g id="edge19" class="edge">
<title>3&#45;&gt;perf</title>
<path fill="none" stroke="#00a875" stroke-width="2" d="M1603.53,-1548.05C1497.87,-1543.97 1105.76,-1526.69 1062.65,-1493 1060.75,-1491.52 1016.27,-1373.75 992.44,-1310.37"/>
<polygon fill="#00a875" stroke="#00a875" stroke-width="2" points="995.59,-1308.82 988.8,-1300.69 989.04,-1311.28 995.59,-1308.82"/>
<text text-anchor="middle" x="1311.65" y="-1580.4" font-family="Times,serif" font-size="32.00">n_2</text>
<text text-anchor="middle" x="1311.65" y="-1545.4" font-family="Times,serif" font-size="32.00">=&gt;3 =d perf</text>
</g>
<!-- z4 -->
<g id="node15" class="node">
<title>z4</title>
<ellipse fill="none" stroke="black" stroke-dasharray="5,2" cx="1872.65" cy="-1605" rx="27" ry="18"/>
</g>
<!-- z4&#45;&gt;3 -->
<g id="edge16" class="edge">
<title>z4&#45;&gt;3</title>
<path fill="none" stroke="#00a875" stroke-width="2" d="M1846.87,-1599.22C1804.16,-1589.25 1716.53,-1568.8 1667.28,-1557.31"/>
<polygon fill="#00a875" stroke="#00a875" stroke-width="2" points="1667.92,-1553.87 1657.38,-1555 1666.33,-1560.68 1667.92,-1553.87"/>
<text text-anchor="middle" x="1765.65" y="-1632.4" font-family="Times,serif" font-size="32.00">smile</text>
<text text-anchor="middle" x="1765.65" y="-1597.4" font-family="Times,serif" font-size="32.00">3</text>
</g>
<!-- 4 -->
<g id="node16" class="node">
<title>4</title>
<ellipse fill="none" stroke="black" cx="1630.65" cy="-768" rx="27" ry="30.31"/>
<text text-anchor="middle" x="1630.65" y="-759.9" font-family="Times,serif" font-size="32.00">4</text>
</g>
<!-- 4&#45;&gt;0 -->
<g id="edge20" class="edge">
<title>4&#45;&gt;0</title>
<path fill="none" stroke="#f7931d" stroke-width="2" d="M1615.57,-793.71C1599.68,-820.23 1571.33,-860.78 1535.65,-883 1485.69,-914.12 1445.01,-868.35 1406.65,-913 1372.81,-952.39 1404.58,-1096.57 1388.65,-1146 1377.3,-1181.25 1354.22,-1216.89 1336.46,-1241.05"/>
<polygon fill="#f7931d" stroke="#f7931d" stroke-width="2" points="1333.63,-1239 1330.43,-1249.1 1339.23,-1243.2 1333.63,-1239"/>
<text text-anchor="middle" x="1471.15" y="-957.4" font-family="Times,serif" font-size="32.00">ε_6</text>
<text text-anchor="middle" x="1471.15" y="-922.4" font-family="Times,serif" font-size="32.00">=&gt;4 0</text>
</g>
<!-- 4&#45;&gt;v -->
<g id="edge22" class="edge">
<title>4&#45;&gt;v</title>
<path fill="none" stroke="#f7931d" stroke-width="2" d="M1606.15,-754.44C1562.75,-731.38 1468.8,-690.93 1406.65,-733 1388.81,-745.08 1405.38,-764.43 1388.65,-778 1328.39,-826.88 1293.41,-796.58 1216.65,-808 1148.44,-818.15 1129.99,-812.13 1062.65,-827 911.27,-860.42 872.53,-871.5 730.65,-934 706.81,-944.5 681.32,-959.09 662.04,-970.88"/>
<polygon fill="#f7931d" stroke="#f7931d" stroke-width="2" points="660.04,-968 653.38,-976.24 663.73,-973.95 660.04,-968"/>
<text text-anchor="middle" x="1139.65" y="-871.4" font-family="Times,serif" font-size="32.00">ε_7</text>
<text text-anchor="middle" x="1139.65" y="-836.4" font-family="Times,serif" font-size="32.00">=&gt;4 =d v</text>
</g>
<!-- 4&#45;&gt;prog -->
<g id="edge23" class="edge">
<title>4&#45;&gt;prog</title>
<path fill="none" stroke="#f7931d" stroke-width="2" d="M1608.79,-749.76C1552.67,-700.76 1401.77,-569.57 1388.65,-564 1254.61,-507.07 1205.97,-556.84 1062.65,-531 984.89,-516.98 969.02,-496.08 890.65,-486 617.36,-450.84 546.77,-512.74 274.65,-556 207.04,-566.75 170.34,-531.88 122.65,-581 57.22,-648.39 52.34,-946.44 52.82,-1056.22"/>
<polygon fill="#f7931d" stroke="#f7931d" stroke-width="2" points="49.32,-1056.57 52.88,-1066.55 56.32,-1056.53 49.32,-1056.57"/>
<text text-anchor="middle" x="810.65" y="-530.4" font-family="Times,serif" font-size="32.00">ing_3</text>
<text text-anchor="middle" x="810.65" y="-495.4" font-family="Times,serif" font-size="32.00">=&gt;4 =d prog</text>
</g>
<!-- 4&#45;&gt;perf -->
<g id="edge24" class="edge">
<title>4&#45;&gt;perf</title>
<path fill="none" stroke="#f7931d" stroke-width="2" d="M1605.11,-757.58C1560.41,-740.43 1465,-712.45 1406.65,-758 1380.65,-778.3 1410.21,-805.03 1388.65,-830 1334.61,-892.6 1296,-877.69 1216.65,-901 1149.9,-920.6 1108.99,-877.11 1062.65,-929 1022.75,-973.69 1068.24,-1142.93 1044.65,-1198 1037.92,-1213.71 1026.32,-1228.23 1014.64,-1240.11"/>
<polygon fill="#f7931d" stroke="#f7931d" stroke-width="2" points="1012.13,-1237.67 1007.41,-1247.15 1017.01,-1242.68 1012.13,-1237.67"/>
<text text-anchor="middle" x="1311.65" y="-940.4" font-family="Times,serif" font-size="32.00">n_3</text>
<text text-anchor="middle" x="1311.65" y="-905.4" font-family="Times,serif" font-size="32.00">=&gt;4 =d perf</text>
</g>
<!-- z5 -->
<g id="node17" class="node">
<title>z5</title>
<ellipse fill="none" stroke="black" stroke-dasharray="5,2" cx="1872.65" cy="-741" rx="27" ry="18"/>
</g>
<!-- z5&#45;&gt;4 -->
<g id="edge21" class="edge">
<title>z5&#45;&gt;4</title>
<path fill="none" stroke="#f7931d" stroke-width="2" d="M1845.97,-743.89C1803.16,-748.71 1717.08,-758.39 1668.04,-763.91"/>
<polygon fill="#f7931d" stroke="#f7931d" stroke-width="2" points="1667.42,-760.45 1657.88,-765.05 1668.21,-767.41 1667.42,-760.45"/>
<text text-anchor="middle" x="1765.65" y="-801.4" font-family="Times,serif" font-size="32.00">jump</text>
<text text-anchor="middle" x="1765.65" y="-766.4" font-family="Times,serif" font-size="32.00">4</text>
</g>
<!-- pass&#45;&gt;t -->
<g id="edge35" class="edge">
<title>pass&#45;&gt;t</title>
<path fill="none" stroke="#000000" d="M2090.36,-591C2037.82,-591 1956.63,-591 1909.98,-591"/>
<polygon fill="#000000" stroke="#000000" points="1909.73,-587.5 1899.73,-591 1909.73,-594.5 1909.73,-587.5"/>
<text text-anchor="middle" x="2006.15" y="-670.4" font-family="Times,serif" font-size="32.00">bes_1 |</text>
<text text-anchor="middle" x="2006.15" y="-635.4" font-family="Times,serif" font-size="32.00"> bed_1</text>
<text text-anchor="middle" x="2006.15" y="-600.4" font-family="Times,serif" font-size="32.00">=pass +k t</text>
</g>
<!-- pass&#45;&gt;v -->
<g id="edge36" class="edge">
<title>pass&#45;&gt;v</title>
<path fill="none" stroke="#000000" d="M2117.5,-564.19C2066.96,-507.17 1940.19,-373.38 1805.65,-303 1572.99,-181.29 1477.2,-224.47 1216.65,-257 1148.22,-265.54 956.49,-245.33 908.65,-295 876.01,-328.9 912.9,-464.53 890.65,-506 847.72,-586 780.87,-557.36 730.65,-633 712.73,-659.99 661.4,-864.9 640.1,-952.01"/>
<polygon fill="#000000" stroke="#000000" points="636.68,-951.24 637.71,-961.78 643.48,-952.9 636.68,-951.24"/>
<text text-anchor="middle" x="1471.15" y="-275.4" font-family="Times,serif" font-size="32.00">be_1</text>
<text text-anchor="middle" x="1471.15" y="-240.4" font-family="Times,serif" font-size="32.00">=pass v</text>
</g>
<!-- pass&#45;&gt;prog -->
<g id="edge38" class="edge">
<title>pass&#45;&gt;prog</title>
<path fill="none" stroke="#000000" d="M2135.68,-560.56C2118.68,-466.37 2053.02,-186 1873.65,-186 1873.65,-186 1873.65,-186 323.65,-186 214.78,-186 177.32,-231.85 122.65,-326 85.79,-389.49 61.35,-906.29 54.98,-1056.31"/>
<polygon fill="#000000" stroke="#000000" points="51.48,-1056.33 54.55,-1066.47 58.47,-1056.63 51.48,-1056.33"/>
<text text-anchor="middle" x="1139.65" y="-230.4" font-family="Times,serif" font-size="32.00">being</text>
<text text-anchor="middle" x="1139.65" y="-195.4" font-family="Times,serif" font-size="32.00">=pass prog</text>
</g>
<!-- pass&#45;&gt;perf -->
<g id="edge37" class="edge">
<title>pass&#45;&gt;perf</title>
<path fill="none" stroke="#000000" d="M2138.02,-621.47C2128.21,-721.31 2084.84,-1043.28 1921.65,-1238 1801.81,-1381 1675.33,-1298.56 1553.65,-1440 1538.52,-1457.59 1554.68,-1475.72 1535.65,-1489 1516.64,-1502.27 1100.23,-1491.48 1062.65,-1465 1012.17,-1429.44 991.35,-1357.06 982.99,-1311.46"/>
<polygon fill="#000000" stroke="#000000" points="986.39,-1310.59 981.25,-1301.33 979.49,-1311.77 986.39,-1310.59"/>
<text text-anchor="middle" x="1630.65" y="-1484.4" font-family="Times,serif" font-size="32.00">ben_1</text>
<text text-anchor="middle" x="1630.65" y="-1449.4" font-family="Times,serif" font-size="32.00">=pass perf</text>
</g>
<!-- c2&#45;&gt;0 -->
<g id="edge30" class="edge">
<title>c2&#45;&gt;0</title>
<path fill="none" stroke="#000000" d="M1597.19,-978.45C1548.16,-980.99 1455.71,-993.4 1406.65,-1049 1377.64,-1081.88 1404.3,-1105.04 1388.65,-1146 1375.58,-1180.23 1353.1,-1215.58 1335.97,-1239.92"/>
<polygon fill="#000000" stroke="#000000" points="1332.9,-1238.19 1329.93,-1248.36 1338.59,-1242.27 1332.9,-1238.19"/>
<text text-anchor="middle" x="1471.15" y="-1198.4" font-family="Times,serif" font-size="32.00">declare |</text>
<text text-anchor="middle" x="1471.15" y="-1163.4" font-family="Times,serif" font-size="32.00"> think |</text>
<text text-anchor="middle" x="1471.15" y="-1128.4" font-family="Times,serif" font-size="32.00"> explain |</text>
<text text-anchor="middle" x="1471.15" y="-1093.4" font-family="Times,serif" font-size="32.00"> say</text>
<text text-anchor="middle" x="1471.15" y="-1058.4" font-family="Times,serif" font-size="32.00">=c2 0</text>
</g>
<!-- to&#45;&gt;t -->
<g id="edge39" class="edge">
<title>to&#45;&gt;t</title>
<path fill="none" stroke="#000000" d="M351.1,-1083.88C359.76,-1078.24 368.74,-1070.88 374.65,-1062 394.61,-1032.02 374.84,-1014.3 392.65,-983 489.7,-812.52 603.18,-841.78 712.65,-679 724.9,-660.78 716.71,-649.96 730.65,-633 784.21,-567.86 820.25,-577.43 890.65,-531 959.81,-485.4 988.23,-486.66 1044.65,-426 1055.5,-414.33 1048.84,-402.95 1062.65,-395 1206.03,-312.46 1678.28,-336.41 1805.65,-442 1838.91,-469.57 1855.98,-517.27 1864.33,-551.27"/>
<polygon fill="#000000" stroke="#000000" points="1861,-552.38 1866.65,-561.34 1867.82,-550.81 1861,-552.38"/>
<text text-anchor="middle" x="1139.65" y="-544.4" font-family="Times,serif" font-size="32.00">seems |</text>
<text text-anchor="middle" x="1139.65" y="-509.4" font-family="Times,serif" font-size="32.00"> seemd |</text>
<text text-anchor="middle" x="1139.65" y="-474.4" font-family="Times,serif" font-size="32.00"> appears |</text>
<text text-anchor="middle" x="1139.65" y="-439.4" font-family="Times,serif" font-size="32.00"> appeard</text>
<text text-anchor="middle" x="1139.65" y="-404.4" font-family="Times,serif" font-size="32.00">=to +k t</text>
</g>
<!-- to&#45;&gt;v -->
<g id="edge40" class="edge">
<title>to&#45;&gt;v</title>
<path fill="none" stroke="#000000" d="M353.56,-1099.84C393.96,-1102.81 470.28,-1104.03 528.65,-1079 558.49,-1066.21 585.67,-1040.99 604.14,-1020.81"/>
<polygon fill="#000000" stroke="#000000" points="606.98,-1022.88 611.02,-1013.09 601.75,-1018.23 606.98,-1022.88"/>
<text text-anchor="middle" x="460.65" y="-1180.4" font-family="Times,serif" font-size="32.00">seem |</text>
<text text-anchor="middle" x="460.65" y="-1145.4" font-family="Times,serif" font-size="32.00"> appear</text>
<text text-anchor="middle" x="460.65" y="-1110.4" font-family="Times,serif" font-size="32.00">=to v</text>
</g>
<!-- to&#45;&gt;prog -->
<g id="edge42" class="edge">
<title>to&#45;&gt;prog</title>
<path fill="none" stroke="#000000" d="M295.49,-1097C253.03,-1097 171.59,-1097 114.93,-1097"/>
<polygon fill="#000000" stroke="#000000" points="114.66,-1093.5 104.66,-1097 114.66,-1100.5 114.66,-1093.5"/>
<text text-anchor="middle" x="189.65" y="-1176.4" font-family="Times,serif" font-size="32.00">seeming |</text>
<text text-anchor="middle" x="189.65" y="-1141.4" font-family="Times,serif" font-size="32.00"> appearing</text>
<text text-anchor="middle" x="189.65" y="-1106.4" font-family="Times,serif" font-size="32.00">=to prog</text>
</g>
<!-- to&#45;&gt;perf -->
<g id="edge41" class="edge">
<title>to&#45;&gt;perf</title>
<path fill="none" stroke="#000000" d="M335.43,-1125.32C345.75,-1151.08 364.46,-1188.29 392.65,-1210 516.39,-1305.27 575.98,-1284.46 730.65,-1306 801.08,-1315.81 820.89,-1319.8 890.65,-1306 903.5,-1303.46 916.84,-1298.95 929.05,-1294"/>
<polygon fill="#000000" stroke="#000000" points="930.72,-1297.09 938.56,-1289.96 927.99,-1290.64 930.72,-1297.09"/>
<text text-anchor="middle" x="629.65" y="-1382.4" font-family="Times,serif" font-size="32.00">seemn |</text>
<text text-anchor="middle" x="629.65" y="-1347.4" font-family="Times,serif" font-size="32.00"> appearn</text>
<text text-anchor="middle" x="629.65" y="-1312.4" font-family="Times,serif" font-size="32.00">=to perf</text>
</g>
<!-- c1&#45;&gt;t -->
<g id="edge43" class="edge">
<title>c1&#45;&gt;t</title>
<path fill="none" stroke="#000000" d="M1341.9,-589.54C1386.45,-569.84 1474.51,-534.09 1553.65,-521 1621.18,-509.83 1640.6,-507.29 1707.65,-521 1755.68,-530.82 1807.05,-555.28 1839.24,-572.51"/>
<polygon fill="#000000" stroke="#000000" points="1837.74,-575.67 1848.2,-577.38 1841.08,-569.52 1837.74,-575.67"/>
<text text-anchor="middle" x="1630.65" y="-670.4" font-family="Times,serif" font-size="32.00">seems_1 |</text>
<text text-anchor="middle" x="1630.65" y="-635.4" font-family="Times,serif" font-size="32.00"> seemd_1 |</text>
<text text-anchor="middle" x="1630.65" y="-600.4" font-family="Times,serif" font-size="32.00"> appears_1 |</text>
<text text-anchor="middle" x="1630.65" y="-565.4" font-family="Times,serif" font-size="32.00"> appeard_1</text>
<text text-anchor="middle" x="1630.65" y="-530.4" font-family="Times,serif" font-size="32.00">=c1 +k t</text>
</g>
<!-- c1&#45;&gt;v -->
<g id="edge44" class="edge">
<title>c1&#45;&gt;v</title>
<path fill="none" stroke="#000000" d="M1278.47,-600.23C1209.08,-595.3 1040.96,-589.07 908.65,-630 820.9,-657.14 790.18,-665.05 730.65,-735 675.89,-799.35 649.04,-897.17 637.69,-951.36"/>
<polygon fill="#000000" stroke="#000000" points="634.24,-950.78 635.68,-961.28 641.1,-952.17 634.24,-950.78"/>
<text text-anchor="middle" x="976.65" y="-709.4" font-family="Times,serif" font-size="32.00">seem_1 |</text>
<text text-anchor="middle" x="976.65" y="-674.4" font-family="Times,serif" font-size="32.00"> appear_1</text>
<text text-anchor="middle" x="976.65" y="-639.4" font-family="Times,serif" font-size="32.00">=c1 v</text>
</g>
<!-- c1&#45;&gt;prog -->
<g id="edge46" class="edge">
<title>c1&#45;&gt;prog</title>
<path fill="none" stroke="#000000" d="M1278.61,-597.7C1219.37,-588.37 1088.61,-570 977.65,-570 977.65,-570 977.65,-570 323.65,-570 105.34,-570 63.2,-932.48 55.18,-1056.19"/>
<polygon fill="#000000" stroke="#000000" points="51.68,-1056.19 54.56,-1066.39 58.66,-1056.62 51.68,-1056.19"/>
<text text-anchor="middle" x="629.65" y="-649.4" font-family="Times,serif" font-size="32.00">seeming_1 |</text>
<text text-anchor="middle" x="629.65" y="-614.4" font-family="Times,serif" font-size="32.00"> appearing_1</text>
<text text-anchor="middle" x="629.65" y="-579.4" font-family="Times,serif" font-size="32.00">=c1 prog</text>
</g>
<!-- c1&#45;&gt;perf -->
<g id="edge45" class="edge">
<title>c1&#45;&gt;perf</title>
<path fill="none" stroke="#000000" d="M1280.27,-613.19C1217.02,-634.68 1075.93,-684.24 1062.65,-703 1036.69,-739.67 1054.29,-1063.11 1044.65,-1107 1034.74,-1152.11 1013.4,-1200.73 997.45,-1233.22"/>
<polygon fill="#000000" stroke="#000000" points="994.23,-1231.84 992.9,-1242.35 1000.5,-1234.96 994.23,-1231.84"/>
<text text-anchor="middle" x="1139.65" y="-782.4" font-family="Times,serif" font-size="32.00">seemn_1 |</text>
<text text-anchor="middle" x="1139.65" y="-747.4" font-family="Times,serif" font-size="32.00"> appearn_1</text>
<text text-anchor="middle" x="1139.65" y="-712.4" font-family="Times,serif" font-size="32.00">=c1 perf</text>
</g>
<!-- z6 -->
<g id="node22" class="node">
<title>z6</title>
<ellipse fill="none" stroke="black" stroke-dasharray="5,2" cx="2699.48" cy="-1135" rx="27" ry="18"/>
</g>
<!-- e -->
<g id="node23" class="node">
<title>e</title>
<ellipse fill="none" stroke="black" cx="2546.48" cy="-1135" rx="27" ry="30.31"/>
<text text-anchor="middle" x="2546.48" y="-1126.9" font-family="Times,serif" font-size="32.00">e</text>
</g>
<!-- z6&#45;&gt;e -->
<g id="edge49" class="edge">
<title>z6&#45;&gt;e</title>
<path fill="none" stroke="#000000" d="M2672.17,-1135C2647.71,-1135 2611.03,-1135 2583.78,-1135"/>
<polygon fill="#000000" stroke="#000000" points="2583.48,-1131.5 2573.48,-1135 2583.48,-1138.5 2583.48,-1131.5"/>
<text text-anchor="middle" x="2622.98" y="-1179.4" font-family="Times,serif" font-size="32.00">it</text>
<text text-anchor="middle" x="2622.98" y="-1144.4" font-family="Times,serif" font-size="32.00">e &#45;k</text>
</g>
</g>
</svg>
