<?xml version="1.0" encoding="UTF-8" standalone="no"?>
<!DOCTYPE svg PUBLIC "-//W3C//DTD SVG 1.1//EN"
 "http://www.w3.org/Graphics/SVG/1.1/DTD/svg11.dtd">
<!-- Generated by graphviz version 2.47.1 (20210417.1919)
 -->
<!-- Title: G Pages: 1 -->
<svg width="2734pt" height="1771pt"
 viewBox="0.00 0.00 2734.48 1771.00" xmlns="http://www.w3.org/2000/svg" xmlns:xlink="http://www.w3.org/1999/xlink">
<g id="graph0" class="graph" transform="scale(1 1) rotate(0) translate(4 1767)">
<title>G</title>
<polygon fill="white" stroke="transparent" points="-4,4 -4,-1767 2730.48,-1767 2730.48,4 -4,4"/>
<text text-anchor="middle" x="1363.24" y="-13.4" font-family="Times,serif" font-size="32.00">single contraction: 2 → 0</text>
<!-- t -->
<g id="node1" class="node">
<title>t</title>
<ellipse fill="lightgray" stroke="black" cx="1872.65" cy="-627" rx="27" ry="30.31"/>
<text text-anchor="middle" x="1872.65" y="-618.9" font-family="Times,serif" font-size="32.00">t</text>
</g>
<!-- c2 -->
<g id="node18" class="node">
<title>c2</title>
<ellipse fill="none" stroke="black" cx="1630.65" cy="-1068" rx="33.47" ry="30.31"/>
<text text-anchor="middle" x="1630.65" y="-1059.9" font-family="Times,serif" font-size="32.00">c2</text>
</g>
<!-- t&#45;&gt;c2 -->
<g id="edge48" class="edge">
<title>t&#45;&gt;c2</title>
<path fill="none" stroke="#000000" d="M1866.74,-656.76C1853.49,-728.5 1810.82,-913.22 1707.65,-1024 1697.37,-1035.04 1683.68,-1044.12 1670.75,-1051.11"/>
<polygon fill="#000000" stroke="#000000" points="1668.84,-1048.15 1661.53,-1055.82 1672.03,-1054.39 1668.84,-1048.15"/>
<text text-anchor="middle" x="1765.65" y="-1042.4" font-family="Times,serif" font-size="32.00">that_1</text>
<text text-anchor="middle" x="1765.65" y="-1007.4" font-family="Times,serif" font-size="32.00">=t c2</text>
</g>
<!-- c1 -->
<g id="node20" class="node">
<title>c1</title>
<ellipse fill="none" stroke="black" cx="1311.65" cy="-568" rx="33.47" ry="30.31"/>
<text text-anchor="middle" x="1311.65" y="-559.9" font-family="Times,serif" font-size="32.00">c1</text>
</g>
<!-- t&#45;&gt;c1 -->
<g id="edge47" class="edge">
<title>t&#45;&gt;c1</title>
<path fill="none" stroke="#000000" d="M1845.62,-625.93C1791.25,-623.55 1661.73,-617.01 1553.65,-605 1483.49,-597.2 1402.47,-583.86 1354.51,-575.51"/>
<polygon fill="#000000" stroke="#000000" points="1354.96,-572.04 1344.51,-573.76 1353.75,-578.93 1354.96,-572.04"/>
<text text-anchor="middle" x="1630.65" y="-662.4" font-family="Times,serif" font-size="32.00">that</text>
<text text-anchor="middle" x="1630.65" y="-627.4" font-family="Times,serif" font-size="32.00">=t =e c1</text>
</g>
<!-- z0 -->
<g id="node2" class="node">
<title>z0</title>
<ellipse fill="none" stroke="black" stroke-dasharray="5,2" cx="2546.48" cy="-1241" rx="27" ry="18"/>
</g>
<!-- d -->
<g id="node3" class="node">
<title>d</title>
<ellipse fill="none" stroke="black" cx="2363.48" cy="-1142" rx="27" ry="30.31"/>
<text text-anchor="middle" x="2363.48" y="-1133.9" font-family="Times,serif" font-size="32.00">d</text>
</g>
<!-- z0&#45;&gt;d -->
<g id="edge1" class="edge">
<title>z0&#45;&gt;d</title>
<path fill="none" stroke="#000000" d="M2519.57,-1243.16C2490.06,-1244.3 2441.65,-1241.96 2408.48,-1219 2394.77,-1209.51 2384.78,-1194.27 2377.83,-1179.85"/>
<polygon fill="#000000" stroke="#000000" points="2380.95,-1178.26 2373.68,-1170.55 2374.56,-1181.11 2380.95,-1178.26"/>
<text text-anchor="middle" x="2454.98" y="-1392.4" font-family="Times,serif" font-size="32.00">Mary |</text>
<text text-anchor="middle" x="2454.98" y="-1357.4" font-family="Times,serif" font-size="32.00"> John |</text>
<text text-anchor="middle" x="2454.98" y="-1322.4" font-family="Times,serif" font-size="32.00"> Alice |</text>
<text text-anchor="middle" x="2454.98" y="-1287.4" font-family="Times,serif" font-size="32.00"> Bob</text>
<text text-anchor="middle" x="2454.98" y="-1252.4" font-family="Times,serif" font-size="32.00">d &#45;k</text>
</g>
<!-- 0 -->
<g id="node6" class="node">
<title>0</title>
<ellipse fill="none" stroke="black" cx="1311.65" cy="-1199" rx="27" ry="30.31"/>
<text text-anchor="middle" x="1311.65" y="-1190.9" font-family="Times,serif" font-size="32.00">0</text>
</g>
<!-- d&#45;&gt;0 -->
<g id="edge24" class="edge">
<title>d&#45;&gt;0</title>
<path fill="none" stroke="#000000" d="M2355.01,-1171.08C2348.35,-1192.28 2336.76,-1220.59 2318.48,-1240 2257.98,-1304.23 2230.79,-1332 2142.56,-1332 2142.56,-1332 2142.56,-1332 1629.65,-1332 1530.25,-1332 1494.68,-1361.16 1406.65,-1315 1397.14,-1310.01 1360.56,-1262.89 1335.94,-1230.26"/>
<polygon fill="#000000" stroke="#000000" points="1338.46,-1227.79 1329.65,-1221.9 1332.87,-1232 1338.46,-1227.79"/>
<text text-anchor="middle" x="1872.65" y="-1481.4" font-family="Times,serif" font-size="32.00">praise |</text>
<text text-anchor="middle" x="1872.65" y="-1446.4" font-family="Times,serif" font-size="32.00"> like |</text>
<text text-anchor="middle" x="1872.65" y="-1411.4" font-family="Times,serif" font-size="32.00"> kiss |</text>
<text text-anchor="middle" x="1872.65" y="-1376.4" font-family="Times,serif" font-size="32.00"> hug</text>
<text text-anchor="middle" x="1872.65" y="-1341.4" font-family="Times,serif" font-size="32.00">=d *k 0</text>
</g>
<!-- pass -->
<g id="node17" class="node">
<title>pass</title>
<ellipse fill="none" stroke="black" cx="2141.56" cy="-763" rx="50.82" ry="30.31"/>
<text text-anchor="middle" x="2141.56" y="-754.9" font-family="Times,serif" font-size="32.00">pass</text>
</g>
<!-- d&#45;&gt;pass -->
<g id="edge25" class="edge">
<title>d&#45;&gt;pass</title>
<path fill="none" stroke="#000000" d="M2347.88,-1116.84C2310.13,-1051.78 2209.13,-877.72 2164.4,-800.63"/>
<polygon fill="#000000" stroke="#000000" points="2167.28,-798.62 2159.23,-791.73 2161.22,-802.13 2167.28,-798.62"/>
<text text-anchor="middle" x="2264.48" y="-1210.4" font-family="Times,serif" font-size="32.00">praisen |</text>
<text text-anchor="middle" x="2264.48" y="-1175.4" font-family="Times,serif" font-size="32.00"> liken |</text>
<text text-anchor="middle" x="2264.48" y="-1140.4" font-family="Times,serif" font-size="32.00"> kissn |</text>
<text text-anchor="middle" x="2264.48" y="-1105.4" font-family="Times,serif" font-size="32.00"> hugn</text>
<text text-anchor="middle" x="2264.48" y="-1070.4" font-family="Times,serif" font-size="32.00">=d pass</text>
</g>
<!-- n -->
<g id="node4" class="node">
<title>n</title>
<ellipse fill="none" stroke="black" cx="2546.48" cy="-1043" rx="27" ry="30.31"/>
<text text-anchor="middle" x="2546.48" y="-1034.9" font-family="Times,serif" font-size="32.00">n</text>
</g>
<!-- n&#45;&gt;d -->
<g id="edge2" class="edge">
<title>n&#45;&gt;d</title>
<path fill="none" stroke="#000000" d="M2520.4,-1034.54C2491.01,-1026.29 2442.07,-1017.91 2408.48,-1040 2387.66,-1053.69 2376.64,-1079.55 2370.84,-1101.8"/>
<polygon fill="#000000" stroke="#000000" points="2367.39,-1101.18 2368.53,-1111.71 2374.21,-1102.77 2367.39,-1101.18"/>
<text text-anchor="middle" x="2454.98" y="-1189.4" font-family="Times,serif" font-size="32.00">this |</text>
<text text-anchor="middle" x="2454.98" y="-1154.4" font-family="Times,serif" font-size="32.00"> a |</text>
<text text-anchor="middle" x="2454.98" y="-1119.4" font-family="Times,serif" font-size="32.00"> the |</text>
<text text-anchor="middle" x="2454.98" y="-1084.4" font-family="Times,serif" font-size="32.00"> some</text>
<text text-anchor="middle" x="2454.98" y="-1049.4" font-family="Times,serif" font-size="32.00">=n d &#45;k</text>
</g>
<!-- z1 -->
<g id="node5" class="node">
<title>z1</title>
<ellipse fill="none" stroke="black" stroke-dasharray="5,2" cx="2699.48" cy="-1043" rx="27" ry="18"/>
</g>
<!-- z1&#45;&gt;n -->
<g id="edge3" class="edge">
<title>z1&#45;&gt;n</title>
<path fill="none" stroke="#000000" d="M2672.17,-1043C2647.71,-1043 2611.03,-1043 2583.78,-1043"/>
<polygon fill="#000000" stroke="#000000" points="2583.48,-1039.5 2573.48,-1043 2583.48,-1046.5 2583.48,-1039.5"/>
<text text-anchor="middle" x="2622.98" y="-1122.4" font-family="Times,serif" font-size="32.00">boy |</text>
<text text-anchor="middle" x="2622.98" y="-1087.4" font-family="Times,serif" font-size="32.00"> girl</text>
<text text-anchor="middle" x="2622.98" y="-1052.4" font-family="Times,serif" font-size="32.00">n</text>
</g>
<!-- 0&#45;&gt;t -->
<g id="edge4" class="edge">
<title>0&#45;&gt;t</title>
<path fill="none" stroke="#000000" d="M1329.26,-1175.71C1347.01,-1149.58 1374.48,-1105.32 1388.65,-1063 1407.31,-1007.27 1376.71,-982.57 1406.65,-932 1417.01,-914.5 1535.61,-832.39 1553.65,-823 1658.37,-768.49 1713.85,-813.24 1805.65,-739 1829.67,-719.58 1846.86,-688.92 1857.67,-664.59"/>
<polygon fill="#000000" stroke="#000000" points="1860.94,-665.84 1861.64,-655.27 1854.5,-663.1 1860.94,-665.84"/>
<text text-anchor="middle" x="1630.65" y="-902.4" font-family="Times,serif" font-size="32.00">s |</text>
<text text-anchor="middle" x="1630.65" y="-867.4" font-family="Times,serif" font-size="32.00"> d</text>
<text text-anchor="middle" x="1630.65" y="-832.4" font-family="Times,serif" font-size="32.00">=&gt;0 =d +k t</text>
</g>
<!-- v -->
<g id="node9" class="node">
<title>v</title>
<ellipse fill="none" stroke="black" cx="629.65" cy="-908" rx="27" ry="30.31"/>
<text text-anchor="middle" x="629.65" y="-899.9" font-family="Times,serif" font-size="32.00">v</text>
</g>
<!-- 0&#45;&gt;v -->
<g id="edge11" class="edge">
<title>0&#45;&gt;v</title>
<path fill="none" stroke="#000000" d="M1289.92,-1180.3C1247.21,-1142.78 1144.99,-1057.95 1044.65,-1012 913,-951.71 741.14,-922.87 667.14,-912.59"/>
<polygon fill="#000000" stroke="#000000" points="667.33,-909.08 656.95,-911.21 666.39,-916.02 667.33,-909.08"/>
<text text-anchor="middle" x="976.65" y="-1056.4" font-family="Times,serif" font-size="32.00">ε_2</text>
<text text-anchor="middle" x="976.65" y="-1021.4" font-family="Times,serif" font-size="32.00">=&gt;0 =d v</text>
</g>
<!-- prog -->
<g id="node10" class="node">
<title>prog</title>
<ellipse fill="none" stroke="black" cx="52.33" cy="-1194" rx="52.15" ry="30.31"/>
<text text-anchor="middle" x="52.33" y="-1185.9" font-family="Times,serif" font-size="32.00">prog</text>
</g>
<!-- 0&#45;&gt;prog -->
<g id="edge12" class="edge">
<title>0&#45;&gt;prog</title>
<path fill="none" stroke="#000000" d="M1288.6,-1215.61C1237.1,-1252.69 1103.71,-1339 977.65,-1339 977.65,-1339 977.65,-1339 323.65,-1339 227.5,-1339 203.81,-1310.56 122.65,-1259 109.06,-1250.36 95.75,-1238.86 84.49,-1227.94"/>
<polygon fill="#000000" stroke="#000000" points="86.96,-1225.45 77.4,-1220.88 82.02,-1230.41 86.96,-1225.45"/>
<text text-anchor="middle" x="629.65" y="-1383.4" font-family="Times,serif" font-size="32.00">ing_1</text>
<text text-anchor="middle" x="629.65" y="-1348.4" font-family="Times,serif" font-size="32.00">=&gt;0 =d prog</text>
</g>
<!-- perf -->
<g id="node11" class="node">
<title>perf</title>
<ellipse fill="none" stroke="black" cx="976.65" cy="-1121" rx="48.17" ry="30.31"/>
<text text-anchor="middle" x="976.65" y="-1112.9" font-family="Times,serif" font-size="32.00">perf</text>
</g>
<!-- 0&#45;&gt;perf -->
<g id="edge13" class="edge">
<title>0&#45;&gt;perf</title>
<path fill="none" stroke="#000000" d="M1285.07,-1193.01C1231.11,-1180.37 1104.6,-1150.74 1031.8,-1133.68"/>
<polygon fill="#000000" stroke="#000000" points="1032.43,-1130.24 1021.9,-1131.36 1030.84,-1137.05 1032.43,-1130.24"/>
<text text-anchor="middle" x="1139.65" y="-1220.4" font-family="Times,serif" font-size="32.00">n_1</text>
<text text-anchor="middle" x="1139.65" y="-1185.4" font-family="Times,serif" font-size="32.00">=&gt;0 =d perf</text>
</g>
<!-- 1 -->
<g id="node7" class="node">
<title>1</title>
<ellipse fill="none" stroke="black" cx="1630.65" cy="-1500" rx="27" ry="30.31"/>
<text text-anchor="middle" x="1630.65" y="-1491.9" font-family="Times,serif" font-size="32.00">1</text>
</g>
<!-- 1&#45;&gt;0 -->
<g id="edge5" class="edge">
<title>1&#45;&gt;0</title>
<path fill="none" stroke="#000000" d="M1614.07,-1475.6C1597.34,-1451.16 1568.68,-1413.97 1535.65,-1391 1485.43,-1356.07 1449.68,-1386.49 1406.65,-1343 1390.04,-1326.21 1400.24,-1313.58 1388.65,-1293 1375.08,-1268.89 1355.34,-1244.69 1339.37,-1226.88"/>
<polygon fill="#000000" stroke="#000000" points="1341.67,-1224.2 1332.34,-1219.17 1336.5,-1228.92 1341.67,-1224.2"/>
<text text-anchor="middle" x="1471.15" y="-1435.4" font-family="Times,serif" font-size="32.00">ε_0</text>
<text text-anchor="middle" x="1471.15" y="-1400.4" font-family="Times,serif" font-size="32.00">=&gt;1 0</text>
</g>
<!-- 1&#45;&gt;v -->
<g id="edge7" class="edge">
<title>1&#45;&gt;v</title>
<path fill="none" stroke="#000000" d="M1603.88,-1494.23C1559.73,-1485.85 1468.42,-1475.23 1406.65,-1514 1392.83,-1522.68 1402.74,-1537.76 1388.65,-1546 1329.57,-1580.55 1286.43,-1590.76 1234.65,-1546 1192.85,-1509.87 1249.86,-1467.16 1216.65,-1423 1171.47,-1362.91 1127.59,-1390.89 1062.65,-1353 904.95,-1260.97 848.19,-1250.74 730.65,-1111 688.3,-1060.65 658.57,-989.31 643.07,-945.99"/>
<polygon fill="#000000" stroke="#000000" points="646.32,-944.67 639.7,-936.39 639.71,-946.99 646.32,-944.67"/>
<text text-anchor="middle" x="1139.65" y="-1467.4" font-family="Times,serif" font-size="32.00">ε_1</text>
<text text-anchor="middle" x="1139.65" y="-1432.4" font-family="Times,serif" font-size="32.00">=&gt;1 =d v</text>
</g>
<!-- 1&#45;&gt;prog -->
<g id="edge8" class="edge">
<title>1&#45;&gt;prog</title>
<path fill="none" stroke="#000000" d="M1603.75,-1503.22C1548.42,-1510.27 1422.4,-1527.41 1406.65,-1539 1392.56,-1549.37 1403.26,-1564.37 1388.65,-1574 1378.43,-1580.73 1034.12,-1600 977.65,-1600 977.65,-1600 977.65,-1600 323.65,-1600 149.27,-1600 80.52,-1337.29 60.29,-1234.52"/>
<polygon fill="#000000" stroke="#000000" points="63.69,-1233.68 58.38,-1224.52 56.82,-1235 63.69,-1233.68"/>
<text text-anchor="middle" x="810.65" y="-1644.4" font-family="Times,serif" font-size="32.00">ing</text>
<text text-anchor="middle" x="810.65" y="-1609.4" font-family="Times,serif" font-size="32.00">=&gt;1 =d prog</text>
</g>
<!-- 1&#45;&gt;perf -->
<g id="edge9" class="edge">
<title>1&#45;&gt;perf</title>
<path fill="none" stroke="#000000" d="M1603.49,-1497.09C1547.63,-1490.65 1420.63,-1474.67 1406.65,-1461 1377.18,-1432.17 1415.42,-1401.35 1388.65,-1370 1288.4,-1252.58 1183.63,-1345.93 1062.65,-1250 1032.35,-1225.97 1009.21,-1188.08 994.79,-1159.57"/>
<polygon fill="#000000" stroke="#000000" points="997.78,-1157.73 990.23,-1150.3 991.5,-1160.81 997.78,-1157.73"/>
<text text-anchor="middle" x="1311.65" y="-1414.4" font-family="Times,serif" font-size="32.00">n</text>
<text text-anchor="middle" x="1311.65" y="-1379.4" font-family="Times,serif" font-size="32.00">=&gt;1 =d perf</text>
</g>
<!-- z2 -->
<g id="node8" class="node">
<title>z2</title>
<ellipse fill="none" stroke="black" stroke-dasharray="5,2" cx="1872.65" cy="-1543" rx="27" ry="18"/>
</g>
<!-- z2&#45;&gt;1 -->
<g id="edge6" class="edge">
<title>z2&#45;&gt;1</title>
<path fill="none" stroke="#000000" d="M1846.42,-1538.48C1803.61,-1530.81 1716.63,-1515.22 1667.51,-1506.42"/>
<polygon fill="#000000" stroke="#000000" points="1668.09,-1502.97 1657.63,-1504.65 1666.86,-1509.86 1668.09,-1502.97"/>
<text text-anchor="middle" x="1765.65" y="-1574.4" font-family="Times,serif" font-size="32.00">dance</text>
<text text-anchor="middle" x="1765.65" y="-1539.4" font-family="Times,serif" font-size="32.00">1</text>
</g>
<!-- v&#45;&gt;t -->
<g id="edge27" class="edge">
<title>v&#45;&gt;t</title>
<path fill="none" stroke="#000000" d="M632.45,-877.65C637.53,-820.12 656.93,-695.01 730.65,-628 812.97,-553.18 1139.09,-587.75 1216.65,-508 1243.27,-480.63 1205.53,-448.69 1234.65,-424 1331.45,-341.91 1713.43,-349.8 1805.65,-437 1847.38,-476.45 1862.73,-543.62 1868.38,-586.61"/>
<polygon fill="#000000" stroke="#000000" points="1864.92,-587.21 1869.58,-596.73 1871.87,-586.38 1864.92,-587.21"/>
<text text-anchor="middle" x="1311.65" y="-503.4" font-family="Times,serif" font-size="32.00">wills |</text>
<text text-anchor="middle" x="1311.65" y="-468.4" font-family="Times,serif" font-size="32.00"> willd</text>
<text text-anchor="middle" x="1311.65" y="-433.4" font-family="Times,serif" font-size="32.00">=v +k t</text>
</g>
<!-- to -->
<g id="node19" class="node">
<title>to</title>
<ellipse fill="none" stroke="black" cx="324.65" cy="-1036" rx="28.98" ry="30.31"/>
<text text-anchor="middle" x="324.65" y="-1027.9" font-family="Times,serif" font-size="32.00">to</text>
</g>
<!-- v&#45;&gt;to -->
<g id="edge46" class="edge">
<title>v&#45;&gt;to</title>
<path fill="none" stroke="#000000" d="M613.27,-932.54C596.02,-957.69 565.58,-995.65 528.65,-1014 500.64,-1027.92 414.81,-1033.1 364.16,-1034.98"/>
<polygon fill="#000000" stroke="#000000" points="363.8,-1031.49 353.92,-1035.33 364.04,-1038.49 363.8,-1031.49"/>
<text text-anchor="middle" x="460.65" y="-1078.4" font-family="Times,serif" font-size="32.00">to</text>
<text text-anchor="middle" x="460.65" y="-1043.4" font-family="Times,serif" font-size="32.00">=v to</text>
</g>
<!-- prog&#45;&gt;t -->
<g id="edge28" class="edge">
<title>prog&#45;&gt;t</title>
<path fill="none" stroke="#000000" d="M54.37,-1163.37C59.5,-1018.51 83.39,-406.09 122.65,-331 176.21,-228.58 208.07,-166 323.65,-166 1631.65,-166 1631.65,-166 1631.65,-166 1820.24,-166 1860.86,-473.29 1869.42,-586.1"/>
<polygon fill="#000000" stroke="#000000" points="1865.96,-586.67 1870.16,-596.4 1872.94,-586.17 1865.96,-586.67"/>
<text text-anchor="middle" x="976.65" y="-245.4" font-family="Times,serif" font-size="32.00">bes |</text>
<text text-anchor="middle" x="976.65" y="-210.4" font-family="Times,serif" font-size="32.00"> bed</text>
<text text-anchor="middle" x="976.65" y="-175.4" font-family="Times,serif" font-size="32.00">=prog +k t</text>
</g>
<!-- prog&#45;&gt;v -->
<g id="edge29" class="edge">
<title>prog&#45;&gt;v</title>
<path fill="none" stroke="#000000" d="M64.99,-1164.42C76.95,-1136.19 97.37,-1093.29 122.65,-1061 178.18,-990.1 195.68,-970.3 274.65,-927 378.39,-870.12 525.92,-887.95 592.99,-900.36"/>
<polygon fill="#000000" stroke="#000000" points="592.57,-903.84 603.05,-902.29 593.89,-896.97 592.57,-903.84"/>
<text text-anchor="middle" x="324.65" y="-971.4" font-family="Times,serif" font-size="32.00">be</text>
<text text-anchor="middle" x="324.65" y="-936.4" font-family="Times,serif" font-size="32.00">=prog v</text>
</g>
<!-- prog&#45;&gt;perf -->
<g id="edge30" class="edge">
<title>prog&#45;&gt;perf</title>
<path fill="none" stroke="#000000" d="M82.75,-1219.05C94.4,-1227.42 108.41,-1235.7 122.65,-1240 185.42,-1258.93 648.57,-1253.82 712.65,-1240 794.91,-1222.26 882.41,-1176.59 932.89,-1147.27"/>
<polygon fill="#000000" stroke="#000000" points="934.72,-1150.25 941.57,-1142.17 931.17,-1144.21 934.72,-1150.25"/>
<text text-anchor="middle" x="460.65" y="-1296.4" font-family="Times,serif" font-size="32.00">ben</text>
<text text-anchor="middle" x="460.65" y="-1261.4" font-family="Times,serif" font-size="32.00">=prog perf</text>
</g>
<!-- perf&#45;&gt;t -->
<g id="edge43" class="edge">
<title>perf&#45;&gt;t</title>
<path fill="none" stroke="#000000" d="M1019.89,-1107.12C1029.51,-1101.98 1038.66,-1095.1 1044.65,-1086 1074.06,-1041.33 1034.75,-891.63 1062.65,-846 1109.37,-769.59 1320.43,-660.24 1406.65,-636 1461.85,-620.48 1489.32,-602.23 1535.65,-636 1556.78,-651.4 1532.53,-676.6 1553.65,-692 1608.96,-732.32 1640.42,-704.84 1707.65,-692 1755.29,-682.9 1806.75,-660.19 1839.07,-644.18"/>
<polygon fill="#000000" stroke="#000000" points="1840.7,-647.28 1848.06,-639.66 1837.56,-641.03 1840.7,-647.28"/>
<text text-anchor="middle" x="1471.15" y="-715.4" font-family="Times,serif" font-size="32.00">haves |</text>
<text text-anchor="middle" x="1471.15" y="-680.4" font-family="Times,serif" font-size="32.00"> haved</text>
<text text-anchor="middle" x="1471.15" y="-645.4" font-family="Times,serif" font-size="32.00">=perf +k t</text>
</g>
<!-- perf&#45;&gt;v -->
<g id="edge44" class="edge">
<title>perf&#45;&gt;v</title>
<path fill="none" stroke="#000000" d="M938.62,-1101.96C927.95,-1095.16 916.96,-1086.74 908.65,-1077 896,-1062.17 906.23,-1048.73 890.65,-1037 833.26,-993.79 794.42,-1047.09 730.65,-1014 697.91,-997.01 670.02,-964.99 652.08,-940.57"/>
<polygon fill="#000000" stroke="#000000" points="654.83,-938.38 646.16,-932.28 649.13,-942.45 654.83,-938.38"/>
<text text-anchor="middle" x="810.65" y="-1081.4" font-family="Times,serif" font-size="32.00">have</text>
<text text-anchor="middle" x="810.65" y="-1046.4" font-family="Times,serif" font-size="32.00">=perf v</text>
</g>
<!-- z3 -->
<g id="node12" class="node">
<title>z3</title>
<ellipse fill="none" stroke="black" stroke-dasharray="5,2" cx="1630.65" cy="-1247" rx="27" ry="18"/>
</g>
<!-- z3&#45;&gt;0 -->
<g id="edge10" class="edge">
<title>z3&#45;&gt;0</title>
<path fill="none" stroke="#000000" d="M1603.7,-1245.88C1561.9,-1243.77 1477.22,-1238.14 1406.65,-1225 1386.89,-1221.32 1365.25,-1215.46 1347.71,-1210.24"/>
<polygon fill="#000000" stroke="#000000" points="1348.5,-1206.82 1337.91,-1207.26 1346.46,-1213.52 1348.5,-1206.82"/>
<text text-anchor="middle" x="1471.15" y="-1285.4" font-family="Times,serif" font-size="32.00">laugh</text>
<text text-anchor="middle" x="1471.15" y="-1250.4" font-family="Times,serif" font-size="32.00">0</text>
</g>
<!-- 2 -->
<g id="node13" class="node">
<title>2</title>
<ellipse fill="none" stroke="black" cx="1630.65" cy="-1655" rx="27" ry="30.31"/>
<text text-anchor="middle" x="1630.65" y="-1646.9" font-family="Times,serif" font-size="32.00">2</text>
</g>
<!-- 2&#45;&gt;0 -->
<g id="edge14" class="edge">
<title>2&#45;&gt;0</title>
<path fill="none" stroke="#000000" d="M1610.78,-1633.78C1592.43,-1613.63 1563.36,-1582.95 1535.65,-1559 1481.98,-1512.61 1442.07,-1526.47 1406.65,-1465 1368.28,-1398.4 1418.02,-1364.03 1388.65,-1293 1377.94,-1267.1 1357.72,-1242.64 1340.83,-1225.17"/>
<polygon fill="#000000" stroke="#000000" points="1342.89,-1222.27 1333.35,-1217.65 1337.92,-1227.21 1342.89,-1222.27"/>
<text text-anchor="middle" x="1471.15" y="-1603.4" font-family="Times,serif" font-size="32.00">ε_3</text>
<text text-anchor="middle" x="1471.15" y="-1568.4" font-family="Times,serif" font-size="32.00">=&gt;2 0</text>
</g>
<!-- 2&#45;&gt;v -->
<g id="edge16" class="edge">
<title>2&#45;&gt;v</title>
<path fill="none" stroke="#000000" d="M1603.5,-1658.46C1561.42,-1663.22 1476.36,-1669.58 1406.65,-1654 1241.91,-1617.18 1203.55,-1585.97 1062.65,-1493 897.9,-1384.28 833.78,-1366.3 730.65,-1198 714.09,-1170.98 722.18,-1159.23 712.65,-1129 691.9,-1063.14 662.88,-988.08 645.51,-944.57"/>
<polygon fill="#000000" stroke="#000000" points="648.74,-943.24 641.77,-935.26 642.24,-945.84 648.74,-943.24"/>
<text text-anchor="middle" x="1139.65" y="-1632.4" font-family="Times,serif" font-size="32.00">ε_4</text>
<text text-anchor="middle" x="1139.65" y="-1597.4" font-family="Times,serif" font-size="32.00">=&gt;2 =d v</text>
</g>
<!-- 2&#45;&gt;prog -->
<g id="edge17" class="edge">
<title>2&#45;&gt;prog</title>
<path fill="none" stroke="#000000" d="M1603.89,-1660.2C1550.05,-1670.61 1421.57,-1693 1312.65,-1693 1312.65,-1693 1312.65,-1693 323.65,-1693 115.63,-1693 66.86,-1353.6 56.16,-1234.62"/>
<polygon fill="#000000" stroke="#000000" points="59.63,-1234.13 55.29,-1224.46 52.65,-1234.73 59.63,-1234.13"/>
<text text-anchor="middle" x="810.65" y="-1737.4" font-family="Times,serif" font-size="32.00">ing_2</text>
<text text-anchor="middle" x="810.65" y="-1702.4" font-family="Times,serif" font-size="32.00">=&gt;2 =d prog</text>
</g>
<!-- 2&#45;&gt;perf -->
<g id="edge18" class="edge">
<title>2&#45;&gt;perf</title>
<path fill="none" stroke="#000000" d="M1603.42,-1655.49C1550.95,-1655.92 1435.61,-1653.91 1406.65,-1629 1383.6,-1609.17 1405.35,-1588.41 1388.65,-1563 1340.53,-1489.8 1283.37,-1512.8 1234.65,-1440 1218.7,-1416.15 1234.35,-1400.59 1216.65,-1378 1167.89,-1315.78 1116.97,-1346.43 1062.65,-1289 1027.54,-1251.88 1003.62,-1197.46 990.31,-1160.7"/>
<polygon fill="#000000" stroke="#000000" points="993.46,-1159.11 986.84,-1150.83 986.86,-1161.43 993.46,-1159.11"/>
<text text-anchor="middle" x="1311.65" y="-1607.4" font-family="Times,serif" font-size="32.00">n_2</text>
<text text-anchor="middle" x="1311.65" y="-1572.4" font-family="Times,serif" font-size="32.00">=&gt;2 =d perf</text>
</g>
<!-- z4 -->
<g id="node14" class="node">
<title>z4</title>
<ellipse fill="none" stroke="black" stroke-dasharray="5,2" cx="1872.65" cy="-1655" rx="27" ry="18"/>
</g>
<!-- z4&#45;&gt;2 -->
<g id="edge15" class="edge">
<title>z4&#45;&gt;2</title>
<path fill="none" stroke="#000000" d="M1845.51,-1655C1802.5,-1655 1716.72,-1655 1667.88,-1655"/>
<polygon fill="#000000" stroke="#000000" points="1667.76,-1651.5 1657.76,-1655 1667.76,-1658.5 1667.76,-1651.5"/>
<text text-anchor="middle" x="1765.65" y="-1699.4" font-family="Times,serif" font-size="32.00">smile</text>
<text text-anchor="middle" x="1765.65" y="-1664.4" font-family="Times,serif" font-size="32.00">2</text>
</g>
<!-- 3 -->
<g id="node15" class="node">
<title>3</title>
<ellipse fill="none" stroke="black" cx="1630.65" cy="-1150" rx="27" ry="30.31"/>
<text text-anchor="middle" x="1630.65" y="-1141.9" font-family="Times,serif" font-size="32.00">3</text>
</g>
<!-- 3&#45;&gt;0 -->
<g id="edge19" class="edge">
<title>3&#45;&gt;0</title>
<path fill="none" stroke="#000000" d="M1603.77,-1146.29C1561.72,-1141.1 1476.25,-1134.09 1406.65,-1151 1384.36,-1156.41 1361.4,-1168.01 1343.74,-1178.45"/>
<polygon fill="#000000" stroke="#000000" points="1341.74,-1175.57 1335.03,-1183.76 1345.39,-1181.54 1341.74,-1175.57"/>
<text text-anchor="middle" x="1471.15" y="-1195.4" font-family="Times,serif" font-size="32.00">ε_5</text>
<text text-anchor="middle" x="1471.15" y="-1160.4" font-family="Times,serif" font-size="32.00">=&gt;3 0</text>
</g>
<!-- 3&#45;&gt;v -->
<g id="edge21" class="edge">
<title>3&#45;&gt;v</title>
<path fill="none" stroke="#000000" d="M1604.46,-1142.62C1587.15,-1136.16 1565.28,-1124.94 1553.65,-1107 1530.47,-1071.22 1567.05,-944.84 1535.65,-916 1470.96,-856.59 828.79,-894.86 667.34,-905.5"/>
<polygon fill="#000000" stroke="#000000" points="666.73,-902.03 656.98,-906.19 667.19,-909.02 666.73,-902.03"/>
<text text-anchor="middle" x="1139.65" y="-931.4" font-family="Times,serif" font-size="32.00">ε_6</text>
<text text-anchor="middle" x="1139.65" y="-896.4" font-family="Times,serif" font-size="32.00">=&gt;3 =d v</text>
</g>
<!-- 3&#45;&gt;prog -->
<g id="edge22" class="edge">
<title>3&#45;&gt;prog</title>
<path fill="none" stroke="#000000" d="M1606.71,-1164.13C1588.89,-1176.48 1565.31,-1196.15 1553.65,-1220 1532.49,-1263.27 1571.1,-1403.39 1535.65,-1436 1535.65,-1436 1234.65,-1436 1234.65,-1436 1220.57,-1444.24 1230.49,-1459.35 1216.65,-1468 1171.53,-1496.19 1030.85,-1482 977.65,-1482 977.65,-1482 977.65,-1482 323.65,-1482 188.84,-1482 101.66,-1312.16 68.46,-1233.33"/>
<polygon fill="#000000" stroke="#000000" points="71.55,-1231.64 64.5,-1223.74 65.08,-1234.32 71.55,-1231.64"/>
<text text-anchor="middle" x="810.65" y="-1526.4" font-family="Times,serif" font-size="32.00">ing_3</text>
<text text-anchor="middle" x="810.65" y="-1491.4" font-family="Times,serif" font-size="32.00">=&gt;3 =d prog</text>
</g>
<!-- 3&#45;&gt;perf -->
<g id="edge23" class="edge">
<title>3&#45;&gt;perf</title>
<path fill="none" stroke="#000000" d="M1604.15,-1142.44C1586.93,-1135.94 1565.3,-1124.74 1553.65,-1107 1532.81,-1075.24 1563.89,-962.41 1535.65,-937 1457.03,-866.27 1139.71,-1030.82 1021.93,-1095.92"/>
<polygon fill="#000000" stroke="#000000" points="1020.19,-1092.89 1013.14,-1100.8 1023.59,-1099.01 1020.19,-1092.89"/>
<text text-anchor="middle" x="1311.65" y="-1033.4" font-family="Times,serif" font-size="32.00">n_3</text>
<text text-anchor="middle" x="1311.65" y="-998.4" font-family="Times,serif" font-size="32.00">=&gt;3 =d perf</text>
</g>
<!-- z5 -->
<g id="node16" class="node">
<title>z5</title>
<ellipse fill="none" stroke="black" stroke-dasharray="5,2" cx="1872.65" cy="-1150" rx="27" ry="18"/>
</g>
<!-- z5&#45;&gt;3 -->
<g id="edge20" class="edge">
<title>z5&#45;&gt;3</title>
<path fill="none" stroke="#000000" d="M1845.51,-1150C1802.5,-1150 1716.72,-1150 1667.88,-1150"/>
<polygon fill="#000000" stroke="#000000" points="1667.76,-1146.5 1657.76,-1150 1667.76,-1153.5 1667.76,-1146.5"/>
<text text-anchor="middle" x="1765.65" y="-1194.4" font-family="Times,serif" font-size="32.00">jump</text>
<text text-anchor="middle" x="1765.65" y="-1159.4" font-family="Times,serif" font-size="32.00">3</text>
</g>
<!-- pass&#45;&gt;t -->
<g id="edge31" class="edge">
<title>pass&#45;&gt;t</title>
<path fill="none" stroke="#000000" d="M2132.25,-732.93C2122.77,-704.83 2104.32,-664.24 2072.65,-644 2023.23,-612.41 1952.23,-615.15 1909.75,-620.64"/>
<polygon fill="#000000" stroke="#000000" points="1909.01,-617.21 1899.59,-622.07 1909.99,-624.14 1909.01,-617.21"/>
<text text-anchor="middle" x="2006.15" y="-723.4" font-family="Times,serif" font-size="32.00">bes_1 |</text>
<text text-anchor="middle" x="2006.15" y="-688.4" font-family="Times,serif" font-size="32.00"> bed_1</text>
<text text-anchor="middle" x="2006.15" y="-653.4" font-family="Times,serif" font-size="32.00">=pass +k t</text>
</g>
<!-- pass&#45;&gt;v -->
<g id="edge32" class="edge">
<title>pass&#45;&gt;v</title>
<path fill="none" stroke="#000000" d="M2090.39,-763C2036.74,-763 1949.18,-763 1873.65,-763 1873.65,-763 1873.65,-763 975.65,-763 850.82,-763 719.03,-844.68 661.04,-885.43"/>
<polygon fill="#000000" stroke="#000000" points="658.82,-882.71 652.71,-891.37 662.89,-888.42 658.82,-882.71"/>
<text text-anchor="middle" x="1471.15" y="-807.4" font-family="Times,serif" font-size="32.00">be_1</text>
<text text-anchor="middle" x="1471.15" y="-772.4" font-family="Times,serif" font-size="32.00">=pass v</text>
</g>
<!-- pass&#45;&gt;prog -->
<g id="edge34" class="edge">
<title>pass&#45;&gt;prog</title>
<path fill="none" stroke="#000000" d="M2135.54,-732.37C2112.95,-599.67 2015.58,-81 1873.65,-81 1873.65,-81 1873.65,-81 323.65,-81 225.41,-81 178.5,-92.17 122.65,-173 66.14,-254.78 55.45,-973.83 53.66,-1153.47"/>
<polygon fill="#000000" stroke="#000000" points="50.16,-1153.52 53.56,-1163.55 57.16,-1153.58 50.16,-1153.52"/>
<text text-anchor="middle" x="1139.65" y="-125.4" font-family="Times,serif" font-size="32.00">being</text>
<text text-anchor="middle" x="1139.65" y="-90.4" font-family="Times,serif" font-size="32.00">=pass prog</text>
</g>
<!-- pass&#45;&gt;perf -->
<g id="edge33" class="edge">
<title>pass&#45;&gt;perf</title>
<path fill="none" stroke="#000000" d="M2102.84,-782.81C2029.29,-820.18 1860.52,-899.86 1707.65,-928 1640.34,-940.39 1610.96,-965.43 1553.65,-928 1536.99,-917.12 1552.19,-898.06 1535.65,-887 1417.78,-808.16 1358.46,-881.56 1216.65,-880 1148.21,-879.25 1113.11,-833.76 1062.65,-880 1028.77,-911.05 1070.15,-1047.77 1044.65,-1086 1040.5,-1092.23 1034.86,-1097.42 1028.62,-1101.73"/>
<polygon fill="#000000" stroke="#000000" points="1026.55,-1098.89 1019.81,-1107.07 1030.18,-1104.88 1026.55,-1098.89"/>
<text text-anchor="middle" x="1630.65" y="-992.4" font-family="Times,serif" font-size="32.00">ben_1</text>
<text text-anchor="middle" x="1630.65" y="-957.4" font-family="Times,serif" font-size="32.00">=pass perf</text>
</g>
<!-- c2&#45;&gt;0 -->
<g id="edge26" class="edge">
<title>c2&#45;&gt;0</title>
<path fill="none" stroke="#000000" d="M1599.55,-1057.01C1583.8,-1049.85 1565.4,-1039.01 1553.65,-1024 1535.96,-1001.41 1558.6,-979.23 1535.65,-962 1489.81,-927.57 1451.79,-926.64 1406.65,-962 1380.35,-982.61 1399.73,-1003.47 1388.65,-1035 1372.51,-1080.94 1348.01,-1131.45 1331.22,-1164.1"/>
<polygon fill="#000000" stroke="#000000" points="1327.98,-1162.74 1326.49,-1173.23 1334.2,-1165.96 1327.98,-1162.74"/>
<text text-anchor="middle" x="1471.15" y="-1111.4" font-family="Times,serif" font-size="32.00">declare |</text>
<text text-anchor="middle" x="1471.15" y="-1076.4" font-family="Times,serif" font-size="32.00"> think |</text>
<text text-anchor="middle" x="1471.15" y="-1041.4" font-family="Times,serif" font-size="32.00"> explain |</text>
<text text-anchor="middle" x="1471.15" y="-1006.4" font-family="Times,serif" font-size="32.00"> say</text>
<text text-anchor="middle" x="1471.15" y="-971.4" font-family="Times,serif" font-size="32.00">=c2 0</text>
</g>
<!-- to&#45;&gt;t -->
<g id="edge35" class="edge">
<title>to&#45;&gt;t</title>
<path fill="none" stroke="#000000" d="M351.13,-1023.23C359.91,-1017.59 368.95,-1010.14 374.65,-1001 400.41,-959.72 369.69,-935.91 392.65,-893 576.28,-549.8 693.15,-451.37 1062.65,-329 1377.29,-224.8 1571.68,-158.24 1805.65,-393 1857.5,-445.03 1869.36,-534.44 1871.63,-586.38"/>
<polygon fill="#000000" stroke="#000000" points="1868.14,-586.68 1871.98,-596.55 1875.14,-586.44 1868.14,-586.68"/>
<text text-anchor="middle" x="1139.65" y="-478.4" font-family="Times,serif" font-size="32.00">seems |</text>
<text text-anchor="middle" x="1139.65" y="-443.4" font-family="Times,serif" font-size="32.00"> seemd |</text>
<text text-anchor="middle" x="1139.65" y="-408.4" font-family="Times,serif" font-size="32.00"> appears |</text>
<text text-anchor="middle" x="1139.65" y="-373.4" font-family="Times,serif" font-size="32.00"> appeard</text>
<text text-anchor="middle" x="1139.65" y="-338.4" font-family="Times,serif" font-size="32.00">=to +k t</text>
</g>
<!-- to&#45;&gt;v -->
<g id="edge36" class="edge">
<title>to&#45;&gt;v</title>
<path fill="none" stroke="#000000" d="M340.85,-1010.44C350.85,-993.28 364.02,-970.04 374.65,-949 383.44,-931.6 376.3,-919.62 392.65,-909 424.59,-888.25 534.62,-897.11 592.47,-903.52"/>
<polygon fill="#000000" stroke="#000000" points="592.3,-907.02 602.63,-904.68 593.09,-900.07 592.3,-907.02"/>
<text text-anchor="middle" x="460.65" y="-988.4" font-family="Times,serif" font-size="32.00">seem |</text>
<text text-anchor="middle" x="460.65" y="-953.4" font-family="Times,serif" font-size="32.00"> appear</text>
<text text-anchor="middle" x="460.65" y="-918.4" font-family="Times,serif" font-size="32.00">=to v</text>
</g>
<!-- to&#45;&gt;prog -->
<g id="edge38" class="edge">
<title>to&#45;&gt;prog</title>
<path fill="none" stroke="#000000" d="M297.16,-1046.56C257.61,-1062.85 181.49,-1096.33 122.65,-1135 110.86,-1142.75 98.87,-1152.26 88.24,-1161.37"/>
<polygon fill="#000000" stroke="#000000" points="85.63,-1159.01 80.41,-1168.22 90.24,-1164.27 85.63,-1159.01"/>
<text text-anchor="middle" x="189.65" y="-1214.4" font-family="Times,serif" font-size="32.00">seeming |</text>
<text text-anchor="middle" x="189.65" y="-1179.4" font-family="Times,serif" font-size="32.00"> appearing</text>
<text text-anchor="middle" x="189.65" y="-1144.4" font-family="Times,serif" font-size="32.00">=to prog</text>
</g>
<!-- to&#45;&gt;perf -->
<g id="edge37" class="edge">
<title>to&#45;&gt;perf</title>
<path fill="none" stroke="#000000" d="M341.36,-1060.93C353.23,-1077.3 371.13,-1097.41 392.65,-1107 485.39,-1148.33 790.67,-1133.49 918.53,-1125.13"/>
<polygon fill="#000000" stroke="#000000" points="918.78,-1128.62 928.52,-1124.46 918.31,-1121.63 918.78,-1128.62"/>
<text text-anchor="middle" x="629.65" y="-1214.4" font-family="Times,serif" font-size="32.00">seemn |</text>
<text text-anchor="middle" x="629.65" y="-1179.4" font-family="Times,serif" font-size="32.00"> appearn</text>
<text text-anchor="middle" x="629.65" y="-1144.4" font-family="Times,serif" font-size="32.00">=to perf</text>
</g>
<!-- c1&#45;&gt;t -->
<g id="edge39" class="edge">
<title>c1&#45;&gt;t</title>
<path fill="none" stroke="#000000" d="M1336.46,-547C1398.95,-494.55 1572.15,-366.5 1707.65,-430 1778.86,-463.37 1829.91,-544.55 1854.7,-591.62"/>
<polygon fill="#000000" stroke="#000000" points="1851.61,-593.27 1859.3,-600.56 1857.83,-590.07 1851.61,-593.27"/>
<text text-anchor="middle" x="1630.65" y="-579.4" font-family="Times,serif" font-size="32.00">seems_1 |</text>
<text text-anchor="middle" x="1630.65" y="-544.4" font-family="Times,serif" font-size="32.00"> seemd_1 |</text>
<text text-anchor="middle" x="1630.65" y="-509.4" font-family="Times,serif" font-size="32.00"> appears_1 |</text>
<text text-anchor="middle" x="1630.65" y="-474.4" font-family="Times,serif" font-size="32.00"> appeard_1</text>
<text text-anchor="middle" x="1630.65" y="-439.4" font-family="Times,serif" font-size="32.00">=c1 +k t</text>
</g>
<!-- c1&#45;&gt;v -->
<g id="edge40" class="edge">
<title>c1&#45;&gt;v</title>
<path fill="none" stroke="#000000" d="M1278.09,-566.5C1230.24,-565.04 1138.41,-565.09 1062.65,-582 901.45,-617.98 849.1,-633.88 730.65,-749 693.67,-784.94 664.22,-837.15 647.11,-871.81"/>
<polygon fill="#000000" stroke="#000000" points="643.82,-870.57 642.61,-881.1 650.12,-873.62 643.82,-870.57"/>
<text text-anchor="middle" x="976.65" y="-703.4" font-family="Times,serif" font-size="32.00">seem_1 |</text>
<text text-anchor="middle" x="976.65" y="-668.4" font-family="Times,serif" font-size="32.00"> appear_1</text>
<text text-anchor="middle" x="976.65" y="-633.4" font-family="Times,serif" font-size="32.00">=c1 v</text>
</g>
<!-- c1&#45;&gt;prog -->
<g id="edge42" class="edge">
<title>c1&#45;&gt;prog</title>
<path fill="none" stroke="#000000" d="M1279.11,-561.45C1263.13,-556.43 1244.98,-547.76 1234.65,-533 1206.53,-492.81 1251.74,-347.28 1216.65,-313 1140.55,-238.64 1084.06,-299 977.65,-299 977.65,-299 977.65,-299 323.65,-299 142.62,-299 71.82,-978.54 56.61,-1153.38"/>
<polygon fill="#000000" stroke="#000000" points="53.11,-1153.19 55.74,-1163.45 60.09,-1153.79 53.11,-1153.19"/>
<text text-anchor="middle" x="629.65" y="-378.4" font-family="Times,serif" font-size="32.00">seeming_1 |</text>
<text text-anchor="middle" x="629.65" y="-343.4" font-family="Times,serif" font-size="32.00"> appearing_1</text>
<text text-anchor="middle" x="629.65" y="-308.4" font-family="Times,serif" font-size="32.00">=c1 prog</text>
</g>
<!-- c1&#45;&gt;perf -->
<g id="edge41" class="edge">
<title>c1&#45;&gt;perf</title>
<path fill="none" stroke="#000000" d="M1278.54,-571.86C1212.27,-579.9 1066.26,-598.02 1062.65,-602 1027.19,-641.14 1070.61,-1031 1044.65,-1077 1039.98,-1085.28 1033.03,-1092.27 1025.36,-1098.07"/>
<polygon fill="#000000" stroke="#000000" points="1023.1,-1095.38 1016.81,-1103.91 1027.04,-1101.16 1023.1,-1095.38"/>
<text text-anchor="middle" x="1139.65" y="-681.4" font-family="Times,serif" font-size="32.00">seemn_1 |</text>
<text text-anchor="middle" x="1139.65" y="-646.4" font-family="Times,serif" font-size="32.00"> appearn_1</text>
<text text-anchor="middle" x="1139.65" y="-611.4" font-family="Times,serif" font-size="32.00">=c1 perf</text>
</g>
<!-- z6 -->
<g id="node21" class="node">
<title>z6</title>
<ellipse fill="none" stroke="black" stroke-dasharray="5,2" cx="2699.48" cy="-1307" rx="27" ry="18"/>
</g>
<!-- e -->
<g id="node22" class="node">
<title>e</title>
<ellipse fill="none" stroke="black" cx="2546.48" cy="-1307" rx="27" ry="30.31"/>
<text text-anchor="middle" x="2546.48" y="-1298.9" font-family="Times,serif" font-size="32.00">e</text>
</g>
<!-- z6&#45;&gt;e -->
<g id="edge45" class="edge">
<title>z6&#45;&gt;e</title>
<path fill="none" stroke="#000000" d="M2672.17,-1307C2647.71,-1307 2611.03,-1307 2583.78,-1307"/>
<polygon fill="#000000" stroke="#000000" points="2583.48,-1303.5 2573.48,-1307 2583.48,-1310.5 2583.48,-1303.5"/>
<text text-anchor="middle" x="2622.98" y="-1351.4" font-family="Times,serif" font-size="32.00">it</text>
<text text-anchor="middle" x="2622.98" y="-1316.4" font-family="Times,serif" font-size="32.00">e &#45;k</text>
</g>
</g>
</svg>
