<?xml version="1.0" encoding="UTF-8" standalone="no"?>
<!DOCTYPE svg PUBLIC "-//W3C//DTD SVG 1.1//EN"
 "http://www.w3.org/Graphics/SVG/1.1/DTD/svg11.dtd">
<!-- Generated by graphviz version 2.47.1 (20210417.1919)
 -->
<!-- Title: G Pages: 1 -->
<svg width="2734pt" height="1616pt"
 viewBox="0.00 0.00 2734.48 1616.00" xmlns="http://www.w3.org/2000/svg" xmlns:xlink="http://www.w3.org/1999/xlink">
<g id="graph0" class="graph" transform="scale(1 1) rotate(0) translate(4 1612)">
<title>G</title>
<polygon fill="white" stroke="transparent" points="-4,4 -4,-1612 2730.48,-1612 2730.48,4 -4,4"/>
<text text-anchor="middle" x="1363.24" y="-13.4" font-family="Times,serif" font-size="32.00">single contraction: 1 → 0</text>
<!-- t -->
<g id="node1" class="node">
<title>t</title>
<ellipse fill="lightgray" stroke="black" cx="1872.65" cy="-569" rx="27" ry="30.31"/>
<text text-anchor="middle" x="1872.65" y="-560.9" font-family="Times,serif" font-size="32.00">t</text>
</g>
<!-- c2 -->
<g id="node16" class="node">
<title>c2</title>
<ellipse fill="none" stroke="black" cx="1630.65" cy="-855" rx="33.47" ry="30.31"/>
<text text-anchor="middle" x="1630.65" y="-846.9" font-family="Times,serif" font-size="32.00">c2</text>
</g>
<!-- t&#45;&gt;c2 -->
<g id="edge43" class="edge">
<title>t&#45;&gt;c2</title>
<path fill="none" stroke="#000000" d="M1862.51,-597.47C1851.79,-628.37 1832.07,-678.32 1805.65,-716 1770.83,-765.67 1756.04,-774.42 1707.65,-811 1695.71,-820.03 1681.75,-828.6 1669.08,-835.74"/>
<polygon fill="#000000" stroke="#000000" points="1667.2,-832.78 1660.13,-840.67 1670.57,-838.91 1667.2,-832.78"/>
<text text-anchor="middle" x="1765.65" y="-842.4" font-family="Times,serif" font-size="32.00">that_1</text>
<text text-anchor="middle" x="1765.65" y="-807.4" font-family="Times,serif" font-size="32.00">=t c2</text>
</g>
<!-- c1 -->
<g id="node18" class="node">
<title>c1</title>
<ellipse fill="none" stroke="black" cx="1311.65" cy="-511" rx="33.47" ry="30.31"/>
<text text-anchor="middle" x="1311.65" y="-502.9" font-family="Times,serif" font-size="32.00">c1</text>
</g>
<!-- t&#45;&gt;c1 -->
<g id="edge42" class="edge">
<title>t&#45;&gt;c1</title>
<path fill="none" stroke="#000000" d="M1846.3,-562.33C1814.25,-554.2 1757.28,-540.7 1707.65,-534 1580.16,-516.79 1427.79,-512.45 1355.19,-511.36"/>
<polygon fill="#000000" stroke="#000000" points="1355.12,-507.86 1345.07,-511.22 1355.02,-514.86 1355.12,-507.86"/>
<text text-anchor="middle" x="1630.65" y="-578.4" font-family="Times,serif" font-size="32.00">that</text>
<text text-anchor="middle" x="1630.65" y="-543.4" font-family="Times,serif" font-size="32.00">=t =e c1</text>
</g>
<!-- z0 -->
<g id="node2" class="node">
<title>z0</title>
<ellipse fill="none" stroke="black" stroke-dasharray="5,2" cx="2546.48" cy="-1010" rx="27" ry="18"/>
</g>
<!-- d -->
<g id="node3" class="node">
<title>d</title>
<ellipse fill="none" stroke="black" cx="2363.48" cy="-911" rx="27" ry="30.31"/>
<text text-anchor="middle" x="2363.48" y="-902.9" font-family="Times,serif" font-size="32.00">d</text>
</g>
<!-- z0&#45;&gt;d -->
<g id="edge1" class="edge">
<title>z0&#45;&gt;d</title>
<path fill="none" stroke="#000000" d="M2519.57,-1012.16C2490.06,-1013.3 2441.65,-1010.96 2408.48,-988 2394.77,-978.51 2384.78,-963.27 2377.83,-948.85"/>
<polygon fill="#000000" stroke="#000000" points="2380.95,-947.26 2373.68,-939.55 2374.56,-950.11 2380.95,-947.26"/>
<text text-anchor="middle" x="2454.98" y="-1161.4" font-family="Times,serif" font-size="32.00">Mary |</text>
<text text-anchor="middle" x="2454.98" y="-1126.4" font-family="Times,serif" font-size="32.00"> John |</text>
<text text-anchor="middle" x="2454.98" y="-1091.4" font-family="Times,serif" font-size="32.00"> Alice |</text>
<text text-anchor="middle" x="2454.98" y="-1056.4" font-family="Times,serif" font-size="32.00"> Bob</text>
<text text-anchor="middle" x="2454.98" y="-1021.4" font-family="Times,serif" font-size="32.00">d &#45;k</text>
</g>
<!-- 0 -->
<g id="node6" class="node">
<title>0</title>
<ellipse fill="none" stroke="black" cx="1311.65" cy="-1074" rx="27" ry="30.31"/>
<text text-anchor="middle" x="1311.65" y="-1065.9" font-family="Times,serif" font-size="32.00">0</text>
</g>
<!-- d&#45;&gt;0 -->
<g id="edge19" class="edge">
<title>d&#45;&gt;0</title>
<path fill="none" stroke="#000000" d="M2357.16,-941C2351.47,-964.7 2340.15,-997 2318.48,-1017 2258.08,-1072.74 2224.75,-1074 2142.56,-1074 2142.56,-1074 2142.56,-1074 1629.65,-1074 1528.1,-1074 1408.26,-1074 1349.25,-1074"/>
<polygon fill="#000000" stroke="#000000" points="1348.95,-1070.5 1338.95,-1074 1348.95,-1077.5 1348.95,-1070.5"/>
<text text-anchor="middle" x="1872.65" y="-1223.4" font-family="Times,serif" font-size="32.00">praise |</text>
<text text-anchor="middle" x="1872.65" y="-1188.4" font-family="Times,serif" font-size="32.00"> like |</text>
<text text-anchor="middle" x="1872.65" y="-1153.4" font-family="Times,serif" font-size="32.00"> kiss |</text>
<text text-anchor="middle" x="1872.65" y="-1118.4" font-family="Times,serif" font-size="32.00"> hug</text>
<text text-anchor="middle" x="1872.65" y="-1083.4" font-family="Times,serif" font-size="32.00">=d *k 0</text>
</g>
<!-- pass -->
<g id="node15" class="node">
<title>pass</title>
<ellipse fill="none" stroke="black" cx="2141.56" cy="-569" rx="50.82" ry="30.31"/>
<text text-anchor="middle" x="2141.56" y="-560.9" font-family="Times,serif" font-size="32.00">pass</text>
</g>
<!-- d&#45;&gt;pass -->
<g id="edge20" class="edge">
<title>d&#45;&gt;pass</title>
<path fill="none" stroke="#000000" d="M2346.84,-886.68C2308.82,-827.56 2211.37,-676.01 2166.2,-605.77"/>
<polygon fill="#000000" stroke="#000000" points="2169.06,-603.73 2160.7,-597.21 2163.17,-607.52 2169.06,-603.73"/>
<text text-anchor="middle" x="2264.48" y="-987.4" font-family="Times,serif" font-size="32.00">praisen |</text>
<text text-anchor="middle" x="2264.48" y="-952.4" font-family="Times,serif" font-size="32.00"> liken |</text>
<text text-anchor="middle" x="2264.48" y="-917.4" font-family="Times,serif" font-size="32.00"> kissn |</text>
<text text-anchor="middle" x="2264.48" y="-882.4" font-family="Times,serif" font-size="32.00"> hugn</text>
<text text-anchor="middle" x="2264.48" y="-847.4" font-family="Times,serif" font-size="32.00">=d pass</text>
</g>
<!-- n -->
<g id="node4" class="node">
<title>n</title>
<ellipse fill="none" stroke="black" cx="2546.48" cy="-812" rx="27" ry="30.31"/>
<text text-anchor="middle" x="2546.48" y="-803.9" font-family="Times,serif" font-size="32.00">n</text>
</g>
<!-- n&#45;&gt;d -->
<g id="edge2" class="edge">
<title>n&#45;&gt;d</title>
<path fill="none" stroke="#000000" d="M2520.4,-803.54C2491.01,-795.29 2442.07,-786.91 2408.48,-809 2387.66,-822.69 2376.64,-848.55 2370.84,-870.8"/>
<polygon fill="#000000" stroke="#000000" points="2367.39,-870.18 2368.53,-880.71 2374.21,-871.77 2367.39,-870.18"/>
<text text-anchor="middle" x="2454.98" y="-958.4" font-family="Times,serif" font-size="32.00">this |</text>
<text text-anchor="middle" x="2454.98" y="-923.4" font-family="Times,serif" font-size="32.00"> a |</text>
<text text-anchor="middle" x="2454.98" y="-888.4" font-family="Times,serif" font-size="32.00"> the |</text>
<text text-anchor="middle" x="2454.98" y="-853.4" font-family="Times,serif" font-size="32.00"> some</text>
<text text-anchor="middle" x="2454.98" y="-818.4" font-family="Times,serif" font-size="32.00">=n d &#45;k</text>
</g>
<!-- z1 -->
<g id="node5" class="node">
<title>z1</title>
<ellipse fill="none" stroke="black" stroke-dasharray="5,2" cx="2699.48" cy="-812" rx="27" ry="18"/>
</g>
<!-- z1&#45;&gt;n -->
<g id="edge3" class="edge">
<title>z1&#45;&gt;n</title>
<path fill="none" stroke="#000000" d="M2672.17,-812C2647.71,-812 2611.03,-812 2583.78,-812"/>
<polygon fill="#000000" stroke="#000000" points="2583.48,-808.5 2573.48,-812 2583.48,-815.5 2583.48,-808.5"/>
<text text-anchor="middle" x="2622.98" y="-891.4" font-family="Times,serif" font-size="32.00">boy |</text>
<text text-anchor="middle" x="2622.98" y="-856.4" font-family="Times,serif" font-size="32.00"> girl</text>
<text text-anchor="middle" x="2622.98" y="-821.4" font-family="Times,serif" font-size="32.00">n</text>
</g>
<!-- 0&#45;&gt;t -->
<g id="edge4" class="edge">
<title>0&#45;&gt;t</title>
<path fill="none" stroke="#000000" d="M1338.06,-1066.42C1355.47,-1059.79 1377.38,-1048.31 1388.65,-1030 1425.06,-970.86 1359.09,-768.61 1406.65,-718 1467.81,-652.92 1729.79,-717.12 1805.65,-670 1829.47,-655.2 1846.43,-628.26 1857.19,-605.92"/>
<polygon fill="#000000" stroke="#000000" points="1860.44,-607.23 1861.42,-596.68 1854.07,-604.32 1860.44,-607.23"/>
<text text-anchor="middle" x="1630.65" y="-768.4" font-family="Times,serif" font-size="32.00">s |</text>
<text text-anchor="middle" x="1630.65" y="-733.4" font-family="Times,serif" font-size="32.00"> d</text>
<text text-anchor="middle" x="1630.65" y="-698.4" font-family="Times,serif" font-size="32.00">=&gt;0 =d +k t</text>
</g>
<!-- v -->
<g id="node8" class="node">
<title>v</title>
<ellipse fill="none" stroke="black" cx="629.65" cy="-956" rx="27" ry="30.31"/>
<text text-anchor="middle" x="629.65" y="-947.9" font-family="Times,serif" font-size="32.00">v</text>
</g>
<!-- 0&#45;&gt;v -->
<g id="edge6" class="edge">
<title>0&#45;&gt;v</title>
<path fill="none" stroke="#000000" d="M1285.08,-1068.06C1237.78,-1057.21 1133.39,-1033.83 1044.65,-1018 905.8,-993.24 870.07,-993.36 730.65,-972 709.39,-968.74 685.61,-964.94 666.58,-961.87"/>
<polygon fill="#000000" stroke="#000000" points="666.97,-958.38 656.54,-960.24 665.85,-965.29 666.97,-958.38"/>
<text text-anchor="middle" x="976.65" y="-1062.4" font-family="Times,serif" font-size="32.00">ε_0</text>
<text text-anchor="middle" x="976.65" y="-1027.4" font-family="Times,serif" font-size="32.00">=&gt;0 =d v</text>
</g>
<!-- prog -->
<g id="node9" class="node">
<title>prog</title>
<ellipse fill="none" stroke="black" cx="52.33" cy="-690" rx="52.15" ry="30.31"/>
<text text-anchor="middle" x="52.33" y="-681.9" font-family="Times,serif" font-size="32.00">prog</text>
</g>
<!-- 0&#45;&gt;prog -->
<g id="edge7" class="edge">
<title>0&#45;&gt;prog</title>
<path fill="none" stroke="#000000" d="M1284.81,-1077.66C1228.91,-1085.25 1092.52,-1102 977.65,-1102 977.65,-1102 977.65,-1102 323.65,-1102 147.07,-1102 79.5,-834.16 59.95,-730.39"/>
<polygon fill="#000000" stroke="#000000" points="63.34,-729.5 58.1,-720.3 56.46,-730.76 63.34,-729.5"/>
<text text-anchor="middle" x="629.65" y="-1146.4" font-family="Times,serif" font-size="32.00">ing</text>
<text text-anchor="middle" x="629.65" y="-1111.4" font-family="Times,serif" font-size="32.00">=&gt;0 =d prog</text>
</g>
<!-- perf -->
<g id="node10" class="node">
<title>perf</title>
<ellipse fill="none" stroke="black" cx="976.65" cy="-674" rx="48.17" ry="30.31"/>
<text text-anchor="middle" x="976.65" y="-665.9" font-family="Times,serif" font-size="32.00">perf</text>
</g>
<!-- 0&#45;&gt;perf -->
<g id="edge8" class="edge">
<title>0&#45;&gt;perf</title>
<path fill="none" stroke="#000000" d="M1285.47,-1066.28C1268.17,-1059.58 1246.3,-1048.07 1234.65,-1030 1212.75,-996.03 1244.52,-878.28 1216.65,-849 1168.93,-798.88 1115.29,-870.93 1062.65,-826 1042.45,-808.75 1056.45,-792.8 1044.65,-769 1034.18,-747.86 1019.3,-726.23 1006.23,-708.95"/>
<polygon fill="#000000" stroke="#000000" points="1008.86,-706.63 999.98,-700.84 1003.31,-710.9 1008.86,-706.63"/>
<text text-anchor="middle" x="1139.65" y="-893.4" font-family="Times,serif" font-size="32.00">n</text>
<text text-anchor="middle" x="1139.65" y="-858.4" font-family="Times,serif" font-size="32.00">=&gt;0 =d perf</text>
</g>
<!-- z2 -->
<g id="node7" class="node">
<title>z2</title>
<ellipse fill="none" stroke="black" stroke-dasharray="5,2" cx="1630.65" cy="-954" rx="27" ry="18"/>
</g>
<!-- z2&#45;&gt;0 -->
<g id="edge5" class="edge">
<title>z2&#45;&gt;0</title>
<path fill="none" stroke="#000000" d="M1606.43,-945.72C1562.23,-931.6 1465.23,-908.61 1406.65,-955 1379.78,-976.28 1409.14,-1002.52 1388.65,-1030 1378.26,-1043.94 1362.05,-1054.19 1347.26,-1061.27"/>
<polygon fill="#000000" stroke="#000000" points="1345.54,-1058.21 1337.83,-1065.47 1348.39,-1064.6 1345.54,-1058.21"/>
<text text-anchor="middle" x="1471.15" y="-1034.4" font-family="Times,serif" font-size="32.00">dance |</text>
<text text-anchor="middle" x="1471.15" y="-999.4" font-family="Times,serif" font-size="32.00"> laugh</text>
<text text-anchor="middle" x="1471.15" y="-964.4" font-family="Times,serif" font-size="32.00">0</text>
</g>
<!-- v&#45;&gt;t -->
<g id="edge22" class="edge">
<title>v&#45;&gt;t</title>
<path fill="none" stroke="#000000" d="M656.7,-955.3C739.03,-952.92 1000.89,-944.09 1216.65,-923 1293.47,-915.49 1335.57,-955.03 1388.65,-899 1421.17,-864.68 1375.08,-722.19 1406.65,-687 1408.54,-684.9 1803.02,-610.02 1805.65,-609 1817.76,-604.32 1830.15,-597.45 1840.88,-590.73"/>
<polygon fill="#000000" stroke="#000000" points="1842.98,-593.54 1849.47,-585.16 1839.17,-587.66 1842.98,-593.54"/>
<text text-anchor="middle" x="1311.65" y="-1009.4" font-family="Times,serif" font-size="32.00">wills |</text>
<text text-anchor="middle" x="1311.65" y="-974.4" font-family="Times,serif" font-size="32.00"> willd</text>
<text text-anchor="middle" x="1311.65" y="-939.4" font-family="Times,serif" font-size="32.00">=v +k t</text>
</g>
<!-- to -->
<g id="node17" class="node">
<title>to</title>
<ellipse fill="none" stroke="black" cx="324.65" cy="-690" rx="28.98" ry="30.31"/>
<text text-anchor="middle" x="324.65" y="-681.9" font-family="Times,serif" font-size="32.00">to</text>
</g>
<!-- v&#45;&gt;to -->
<g id="edge41" class="edge">
<title>v&#45;&gt;to</title>
<path fill="none" stroke="#000000" d="M615.05,-930.1C597.82,-896.68 567.81,-836.47 546.65,-783 537.03,-758.69 548.31,-744.24 528.65,-727 504.65,-705.95 415.68,-696.28 363.83,-692.34"/>
<polygon fill="#000000" stroke="#000000" points="363.91,-688.84 353.68,-691.61 363.4,-695.82 363.91,-688.84"/>
<text text-anchor="middle" x="460.65" y="-771.4" font-family="Times,serif" font-size="32.00">to</text>
<text text-anchor="middle" x="460.65" y="-736.4" font-family="Times,serif" font-size="32.00">=v to</text>
</g>
<!-- prog&#45;&gt;t -->
<g id="edge23" class="edge">
<title>prog&#45;&gt;t</title>
<path fill="none" stroke="#000000" d="M55.2,-659.29C63.66,-550.08 108.03,-187 323.65,-187 1140.65,-187 1140.65,-187 1140.65,-187 1393.92,-187 1461.09,-186.11 1707.65,-244 1752.98,-254.64 1775.04,-245.92 1805.65,-281 1837.65,-317.67 1858.48,-458.22 1867.11,-528.5"/>
<polygon fill="#000000" stroke="#000000" points="1863.67,-529.23 1868.34,-538.74 1870.62,-528.39 1863.67,-529.23"/>
<text text-anchor="middle" x="976.65" y="-266.4" font-family="Times,serif" font-size="32.00">bes |</text>
<text text-anchor="middle" x="976.65" y="-231.4" font-family="Times,serif" font-size="32.00"> bed</text>
<text text-anchor="middle" x="976.65" y="-196.4" font-family="Times,serif" font-size="32.00">=prog +k t</text>
</g>
<!-- prog&#45;&gt;v -->
<g id="edge24" class="edge">
<title>prog&#45;&gt;v</title>
<path fill="none" stroke="#000000" d="M66.65,-719.34C78.62,-743.15 98.07,-776.36 122.65,-799 222.39,-890.85 262.12,-904.34 392.65,-941 461.37,-960.3 545.59,-960.3 592.57,-958.32"/>
<polygon fill="#000000" stroke="#000000" points="592.75,-961.82 602.57,-957.84 592.41,-954.82 592.75,-961.82"/>
<text text-anchor="middle" x="324.65" y="-980.4" font-family="Times,serif" font-size="32.00">be</text>
<text text-anchor="middle" x="324.65" y="-945.4" font-family="Times,serif" font-size="32.00">=prog v</text>
</g>
<!-- prog&#45;&gt;perf -->
<g id="edge25" class="edge">
<title>prog&#45;&gt;perf</title>
<path fill="none" stroke="#000000" d="M98.86,-676.07C163.45,-657.1 285.74,-624.13 392.65,-612 587.43,-589.9 819.09,-636.14 921.91,-660.4"/>
<polygon fill="#000000" stroke="#000000" points="921.21,-663.83 931.75,-662.75 922.83,-657.03 921.21,-663.83"/>
<text text-anchor="middle" x="460.65" y="-656.4" font-family="Times,serif" font-size="32.00">ben</text>
<text text-anchor="middle" x="460.65" y="-621.4" font-family="Times,serif" font-size="32.00">=prog perf</text>
</g>
<!-- perf&#45;&gt;t -->
<g id="edge38" class="edge">
<title>perf&#45;&gt;t</title>
<path fill="none" stroke="#000000" d="M1022.44,-664.53C1070.69,-654.04 1149.57,-636.08 1216.65,-617 1302.22,-592.66 1318.82,-568.18 1406.65,-554 1463.25,-544.86 1488.74,-521.03 1535.65,-554 1554.98,-567.58 1534.33,-590.42 1553.65,-604 1609.65,-643.36 1639.59,-611.18 1707.65,-604 1752.59,-599.26 1803.32,-587.4 1836.3,-578.8"/>
<polygon fill="#000000" stroke="#000000" points="1837.58,-582.08 1846.35,-576.13 1835.79,-575.31 1837.58,-582.08"/>
<text text-anchor="middle" x="1471.15" y="-633.4" font-family="Times,serif" font-size="32.00">haves |</text>
<text text-anchor="middle" x="1471.15" y="-598.4" font-family="Times,serif" font-size="32.00"> haved</text>
<text text-anchor="middle" x="1471.15" y="-563.4" font-family="Times,serif" font-size="32.00">=perf +k t</text>
</g>
<!-- perf&#45;&gt;v -->
<g id="edge39" class="edge">
<title>perf&#45;&gt;v</title>
<path fill="none" stroke="#000000" d="M929.42,-680.09C858.93,-689.41 732.49,-706.34 730.65,-708 705.26,-731.03 724.05,-750.67 712.65,-783 695.12,-832.71 667.84,-887.22 649.62,-921.51"/>
<polygon fill="#000000" stroke="#000000" points="646.37,-920.16 644.73,-930.62 652.54,-923.46 646.37,-920.16"/>
<text text-anchor="middle" x="810.65" y="-752.4" font-family="Times,serif" font-size="32.00">have</text>
<text text-anchor="middle" x="810.65" y="-717.4" font-family="Times,serif" font-size="32.00">=perf v</text>
</g>
<!-- 1 -->
<g id="node11" class="node">
<title>1</title>
<ellipse fill="none" stroke="black" cx="1630.65" cy="-1440" rx="27" ry="30.31"/>
<text text-anchor="middle" x="1630.65" y="-1431.9" font-family="Times,serif" font-size="32.00">1</text>
</g>
<!-- 1&#45;&gt;0 -->
<g id="edge9" class="edge">
<title>1&#45;&gt;0</title>
<path fill="none" stroke="#000000" d="M1621.44,-1411.09C1608.79,-1370.89 1581.09,-1297.8 1535.65,-1251 1490.36,-1204.35 1457.5,-1222.52 1406.65,-1182 1378.95,-1159.92 1352.96,-1128.96 1335.36,-1105.85"/>
<polygon fill="#000000" stroke="#000000" points="1338.07,-1103.62 1329.27,-1097.71 1332.47,-1107.82 1338.07,-1103.62"/>
<text text-anchor="middle" x="1471.15" y="-1295.4" font-family="Times,serif" font-size="32.00">ε_1</text>
<text text-anchor="middle" x="1471.15" y="-1260.4" font-family="Times,serif" font-size="32.00">=&gt;1 0</text>
</g>
<!-- 1&#45;&gt;v -->
<g id="edge11" class="edge">
<title>1&#45;&gt;v</title>
<path fill="none" stroke="#000000" d="M1603.63,-1441.8C1468.78,-1450.54 851.15,-1482.83 730.65,-1351 710.29,-1328.73 722.3,-1108.59 712.65,-1080 700.55,-1044.12 675.39,-1008.64 656.11,-984.89"/>
<polygon fill="#000000" stroke="#000000" points="658.65,-982.46 649.57,-976.99 653.26,-986.93 658.65,-982.46"/>
<text text-anchor="middle" x="1139.65" y="-1494.4" font-family="Times,serif" font-size="32.00">ε_2</text>
<text text-anchor="middle" x="1139.65" y="-1459.4" font-family="Times,serif" font-size="32.00">=&gt;1 =d v</text>
</g>
<!-- 1&#45;&gt;prog -->
<g id="edge12" class="edge">
<title>1&#45;&gt;prog</title>
<path fill="none" stroke="#000000" d="M1605.77,-1452.81C1553.97,-1479.38 1426.71,-1538 1312.65,-1538 1312.65,-1538 1312.65,-1538 323.65,-1538 150.4,-1538 180.09,-1367.45 122.65,-1204 63.42,-1035.43 54.36,-819.36 53.28,-730.71"/>
<polygon fill="#000000" stroke="#000000" points="56.78,-730.51 53.19,-720.54 49.78,-730.58 56.78,-730.51"/>
<text text-anchor="middle" x="810.65" y="-1582.4" font-family="Times,serif" font-size="32.00">ing_1</text>
<text text-anchor="middle" x="810.65" y="-1547.4" font-family="Times,serif" font-size="32.00">=&gt;1 =d prog</text>
</g>
<!-- 1&#45;&gt;perf -->
<g id="edge13" class="edge">
<title>1&#45;&gt;perf</title>
<path fill="none" stroke="#000000" d="M1603.64,-1440.21C1551.59,-1440.12 1436.99,-1437.21 1406.65,-1414 1389.55,-1400.91 1399.05,-1387.87 1388.65,-1369 1269.44,-1152.71 1150.61,-1149.77 1062.65,-919 1034.49,-845.11 1078.31,-813.55 1044.65,-742 1038,-727.87 1027.17,-714.92 1016.13,-704.21"/>
<polygon fill="#000000" stroke="#000000" points="1018.23,-701.38 1008.51,-697.16 1013.47,-706.52 1018.23,-701.38"/>
<text text-anchor="middle" x="1311.65" y="-1413.4" font-family="Times,serif" font-size="32.00">n_1</text>
<text text-anchor="middle" x="1311.65" y="-1378.4" font-family="Times,serif" font-size="32.00">=&gt;1 =d perf</text>
</g>
<!-- z3 -->
<g id="node12" class="node">
<title>z3</title>
<ellipse fill="none" stroke="black" stroke-dasharray="5,2" cx="1872.65" cy="-1440" rx="27" ry="18"/>
</g>
<!-- z3&#45;&gt;1 -->
<g id="edge10" class="edge">
<title>z3&#45;&gt;1</title>
<path fill="none" stroke="#000000" d="M1845.51,-1440C1802.5,-1440 1716.72,-1440 1667.88,-1440"/>
<polygon fill="#000000" stroke="#000000" points="1667.76,-1436.5 1657.76,-1440 1667.76,-1443.5 1667.76,-1436.5"/>
<text text-anchor="middle" x="1765.65" y="-1484.4" font-family="Times,serif" font-size="32.00">smile</text>
<text text-anchor="middle" x="1765.65" y="-1449.4" font-family="Times,serif" font-size="32.00">1</text>
</g>
<!-- 2 -->
<g id="node13" class="node">
<title>2</title>
<ellipse fill="none" stroke="black" cx="1630.65" cy="-1192" rx="27" ry="30.31"/>
<text text-anchor="middle" x="1630.65" y="-1183.9" font-family="Times,serif" font-size="32.00">2</text>
</g>
<!-- 2&#45;&gt;0 -->
<g id="edge14" class="edge">
<title>2&#45;&gt;0</title>
<path fill="none" stroke="#000000" d="M1611.63,-1169.84C1594.33,-1150.2 1566.34,-1122.46 1535.65,-1108 1519.07,-1100.19 1407.43,-1085.61 1348.67,-1078.35"/>
<polygon fill="#000000" stroke="#000000" points="1349.04,-1074.87 1338.69,-1077.12 1348.19,-1081.82 1349.04,-1074.87"/>
<text text-anchor="middle" x="1471.15" y="-1152.4" font-family="Times,serif" font-size="32.00">ε_3</text>
<text text-anchor="middle" x="1471.15" y="-1117.4" font-family="Times,serif" font-size="32.00">=&gt;2 0</text>
</g>
<!-- 2&#45;&gt;v -->
<g id="edge16" class="edge">
<title>2&#45;&gt;v</title>
<path fill="none" stroke="#000000" d="M1603.38,-1191.64C1507.75,-1189.64 1170.16,-1176.63 908.65,-1092 815.05,-1061.71 713.13,-1005.17 662.67,-975.43"/>
<polygon fill="#000000" stroke="#000000" points="664.25,-972.3 653.86,-970.2 660.67,-978.32 664.25,-972.3"/>
<text text-anchor="middle" x="1139.65" y="-1203.4" font-family="Times,serif" font-size="32.00">ε_4</text>
<text text-anchor="middle" x="1139.65" y="-1168.4" font-family="Times,serif" font-size="32.00">=&gt;2 =d v</text>
</g>
<!-- 2&#45;&gt;prog -->
<g id="edge17" class="edge">
<title>2&#45;&gt;prog</title>
<path fill="none" stroke="#000000" d="M1615.51,-1217.3C1599.76,-1242.6 1571.69,-1280 1535.65,-1296 1483.25,-1319.27 1456.34,-1324.61 1406.65,-1296 1392.84,-1288.05 1402.46,-1272.95 1388.65,-1265 1329.33,-1230.85 1303.08,-1263.4 1234.65,-1265 1120.34,-1267.67 1092,-1277 977.65,-1277 977.65,-1277 977.65,-1277 323.65,-1277 82.78,-1277 55.79,-864.18 53.35,-730.93"/>
<polygon fill="#000000" stroke="#000000" points="56.85,-730.68 53.21,-720.73 49.85,-730.78 56.85,-730.68"/>
<text text-anchor="middle" x="810.65" y="-1321.4" font-family="Times,serif" font-size="32.00">ing_2</text>
<text text-anchor="middle" x="810.65" y="-1286.4" font-family="Times,serif" font-size="32.00">=&gt;2 =d prog</text>
</g>
<!-- 2&#45;&gt;perf -->
<g id="edge18" class="edge">
<title>2&#45;&gt;perf</title>
<path fill="none" stroke="#000000" d="M1619.53,-1163.77C1595.7,-1097.42 1537.92,-936.98 1535.65,-935 1491.43,-896.45 1448.41,-948.21 1406.65,-907 1381.33,-882.01 1412.07,-855.78 1388.65,-829 1296.09,-723.14 1123.64,-689.36 1034.41,-678.75"/>
<polygon fill="#000000" stroke="#000000" points="1034.8,-675.27 1024.47,-677.62 1034.01,-682.23 1034.8,-675.27"/>
<text text-anchor="middle" x="1311.65" y="-873.4" font-family="Times,serif" font-size="32.00">n_2</text>
<text text-anchor="middle" x="1311.65" y="-838.4" font-family="Times,serif" font-size="32.00">=&gt;2 =d perf</text>
</g>
<!-- z4 -->
<g id="node14" class="node">
<title>z4</title>
<ellipse fill="none" stroke="black" stroke-dasharray="5,2" cx="1872.65" cy="-1285" rx="27" ry="18"/>
</g>
<!-- z4&#45;&gt;2 -->
<g id="edge15" class="edge">
<title>z4&#45;&gt;2</title>
<path fill="none" stroke="#000000" d="M1849.06,-1276.05C1836.33,-1271.02 1820.11,-1264.63 1805.65,-1259 1757.33,-1240.18 1701.36,-1218.68 1666.22,-1205.22"/>
<polygon fill="#000000" stroke="#000000" points="1667.05,-1201.79 1656.46,-1201.48 1664.54,-1208.33 1667.05,-1201.79"/>
<text text-anchor="middle" x="1765.65" y="-1303.4" font-family="Times,serif" font-size="32.00">jump</text>
<text text-anchor="middle" x="1765.65" y="-1268.4" font-family="Times,serif" font-size="32.00">2</text>
</g>
<!-- pass&#45;&gt;t -->
<g id="edge26" class="edge">
<title>pass&#45;&gt;t</title>
<path fill="none" stroke="#000000" d="M2090.36,-569C2037.82,-569 1956.63,-569 1909.98,-569"/>
<polygon fill="#000000" stroke="#000000" points="1909.73,-565.5 1899.73,-569 1909.73,-572.5 1909.73,-565.5"/>
<text text-anchor="middle" x="2006.15" y="-648.4" font-family="Times,serif" font-size="32.00">bes_1 |</text>
<text text-anchor="middle" x="2006.15" y="-613.4" font-family="Times,serif" font-size="32.00"> bed_1</text>
<text text-anchor="middle" x="2006.15" y="-578.4" font-family="Times,serif" font-size="32.00">=pass +k t</text>
</g>
<!-- pass&#45;&gt;v -->
<g id="edge27" class="edge">
<title>pass&#45;&gt;v</title>
<path fill="none" stroke="#000000" d="M2136.04,-599.23C2116.4,-726.16 2034.5,-1214.04 1921.65,-1312 1882.3,-1346.16 1857.35,-1322.49 1805.65,-1329 1628.73,-1351.27 1576.68,-1317.29 1406.65,-1371 1397.93,-1373.76 1397.51,-1378.7 1388.65,-1381 1322.4,-1398.17 1300.42,-1399.96 1234.65,-1381 980.39,-1307.69 934.3,-1232.98 730.65,-1064 702.15,-1040.35 673.88,-1008.87 654.7,-986"/>
<polygon fill="#000000" stroke="#000000" points="657.39,-983.76 648.31,-978.3 652,-988.23 657.39,-983.76"/>
<text text-anchor="middle" x="1471.15" y="-1415.4" font-family="Times,serif" font-size="32.00">be_1</text>
<text text-anchor="middle" x="1471.15" y="-1380.4" font-family="Times,serif" font-size="32.00">=pass v</text>
</g>
<!-- pass&#45;&gt;prog -->
<g id="edge29" class="edge">
<title>pass&#45;&gt;prog</title>
<path fill="none" stroke="#000000" d="M2138.46,-538.47C2129.28,-431.64 2083.2,-81 1873.65,-81 1873.65,-81 1873.65,-81 323.65,-81 220.29,-81 180.32,-112.21 122.65,-198 73.1,-271.71 58.41,-545.19 54.56,-649.36"/>
<polygon fill="#000000" stroke="#000000" points="51.06,-649.36 54.2,-659.47 58.05,-649.6 51.06,-649.36"/>
<text text-anchor="middle" x="1139.65" y="-125.4" font-family="Times,serif" font-size="32.00">being</text>
<text text-anchor="middle" x="1139.65" y="-90.4" font-family="Times,serif" font-size="32.00">=pass prog</text>
</g>
<!-- pass&#45;&gt;perf -->
<g id="edge28" class="edge">
<title>pass&#45;&gt;perf</title>
<path fill="none" stroke="#000000" d="M2121.84,-540.76C2075.97,-473.7 1951.02,-303.59 1805.65,-211 1710.43,-150.35 1660.41,-142.27 1553.65,-179 1374,-240.81 1383.39,-350.92 1216.65,-442 1153,-476.77 1116.64,-447.56 1062.65,-496 1021.53,-532.9 998.48,-593.98 987.06,-634.11"/>
<polygon fill="#000000" stroke="#000000" points="983.66,-633.27 984.4,-643.84 990.41,-635.11 983.66,-633.27"/>
<text text-anchor="middle" x="1630.65" y="-223.4" font-family="Times,serif" font-size="32.00">ben_1</text>
<text text-anchor="middle" x="1630.65" y="-188.4" font-family="Times,serif" font-size="32.00">=pass perf</text>
</g>
<!-- c2&#45;&gt;0 -->
<g id="edge21" class="edge">
<title>c2&#45;&gt;0</title>
<path fill="none" stroke="#000000" d="M1599.55,-844.01C1583.8,-836.85 1565.4,-826.01 1553.65,-811 1535.96,-788.41 1558.6,-766.23 1535.65,-749 1489.81,-714.57 1448.47,-709.78 1406.65,-749 1361.01,-791.81 1421.62,-976.82 1388.65,-1030 1379.27,-1045.13 1362.64,-1055.61 1347.32,-1062.54"/>
<polygon fill="#000000" stroke="#000000" points="1345.92,-1059.33 1338.03,-1066.4 1348.6,-1065.79 1345.92,-1059.33"/>
<text text-anchor="middle" x="1471.15" y="-898.4" font-family="Times,serif" font-size="32.00">declare |</text>
<text text-anchor="middle" x="1471.15" y="-863.4" font-family="Times,serif" font-size="32.00"> think |</text>
<text text-anchor="middle" x="1471.15" y="-828.4" font-family="Times,serif" font-size="32.00"> explain |</text>
<text text-anchor="middle" x="1471.15" y="-793.4" font-family="Times,serif" font-size="32.00"> say</text>
<text text-anchor="middle" x="1471.15" y="-758.4" font-family="Times,serif" font-size="32.00">=c2 0</text>
</g>
<!-- to&#45;&gt;t -->
<g id="edge30" class="edge">
<title>to&#45;&gt;t</title>
<path fill="none" stroke="#000000" d="M340.13,-664.01C370.88,-611.33 448.04,-491.82 546.65,-431 741.84,-310.62 841.22,-401.84 1044.65,-296 1053.89,-291.19 1052.86,-284.55 1062.65,-281 1218.25,-224.66 1690.2,-212.44 1805.65,-331 1857.85,-384.6 1869.55,-475.69 1871.71,-528.27"/>
<polygon fill="#000000" stroke="#000000" points="1868.23,-528.68 1872.04,-538.57 1875.22,-528.46 1868.23,-528.68"/>
<text text-anchor="middle" x="1139.65" y="-430.4" font-family="Times,serif" font-size="32.00">seems |</text>
<text text-anchor="middle" x="1139.65" y="-395.4" font-family="Times,serif" font-size="32.00"> seemd |</text>
<text text-anchor="middle" x="1139.65" y="-360.4" font-family="Times,serif" font-size="32.00"> appears |</text>
<text text-anchor="middle" x="1139.65" y="-325.4" font-family="Times,serif" font-size="32.00"> appeard</text>
<text text-anchor="middle" x="1139.65" y="-290.4" font-family="Times,serif" font-size="32.00">=to +k t</text>
</g>
<!-- to&#45;&gt;v -->
<g id="edge31" class="edge">
<title>to&#45;&gt;v</title>
<path fill="none" stroke="#000000" d="M335.64,-718.47C346.01,-743.87 364.66,-780.17 392.65,-801 442.72,-838.26 475.9,-802.64 528.65,-836 562.98,-857.71 591.37,-895.1 609.02,-922.39"/>
<polygon fill="#000000" stroke="#000000" points="606.07,-924.27 614.37,-930.86 611.99,-920.53 606.07,-924.27"/>
<text text-anchor="middle" x="460.65" y="-915.4" font-family="Times,serif" font-size="32.00">seem |</text>
<text text-anchor="middle" x="460.65" y="-880.4" font-family="Times,serif" font-size="32.00"> appear</text>
<text text-anchor="middle" x="460.65" y="-845.4" font-family="Times,serif" font-size="32.00">=to v</text>
</g>
<!-- to&#45;&gt;prog -->
<g id="edge33" class="edge">
<title>to&#45;&gt;prog</title>
<path fill="none" stroke="#000000" d="M295.49,-690C253.03,-690 171.59,-690 114.93,-690"/>
<polygon fill="#000000" stroke="#000000" points="114.66,-686.5 104.66,-690 114.66,-693.5 114.66,-686.5"/>
<text text-anchor="middle" x="189.65" y="-769.4" font-family="Times,serif" font-size="32.00">seeming |</text>
<text text-anchor="middle" x="189.65" y="-734.4" font-family="Times,serif" font-size="32.00"> appearing</text>
<text text-anchor="middle" x="189.65" y="-699.4" font-family="Times,serif" font-size="32.00">=to prog</text>
</g>
<!-- to&#45;&gt;perf -->
<g id="edge32" class="edge">
<title>to&#45;&gt;perf</title>
<path fill="none" stroke="#000000" d="M353.83,-689.31C452.51,-686.88 783.88,-678.72 918.29,-675.41"/>
<polygon fill="#000000" stroke="#000000" points="918.47,-678.91 928.38,-675.16 918.3,-671.91 918.47,-678.91"/>
<text text-anchor="middle" x="629.65" y="-764.4" font-family="Times,serif" font-size="32.00">seemn |</text>
<text text-anchor="middle" x="629.65" y="-729.4" font-family="Times,serif" font-size="32.00"> appearn</text>
<text text-anchor="middle" x="629.65" y="-694.4" font-family="Times,serif" font-size="32.00">=to perf</text>
</g>
<!-- c1&#45;&gt;t -->
<g id="edge34" class="edge">
<title>c1&#45;&gt;t</title>
<path fill="none" stroke="#000000" d="M1333.13,-487.21C1392.15,-421.63 1567.37,-247.92 1707.65,-323 1790.26,-367.21 1838.45,-473.45 1859.3,-530.78"/>
<polygon fill="#000000" stroke="#000000" points="1856.12,-532.29 1862.76,-540.55 1862.72,-529.96 1856.12,-532.29"/>
<text text-anchor="middle" x="1630.65" y="-472.4" font-family="Times,serif" font-size="32.00">seems_1 |</text>
<text text-anchor="middle" x="1630.65" y="-437.4" font-family="Times,serif" font-size="32.00"> seemd_1 |</text>
<text text-anchor="middle" x="1630.65" y="-402.4" font-family="Times,serif" font-size="32.00"> appears_1 |</text>
<text text-anchor="middle" x="1630.65" y="-367.4" font-family="Times,serif" font-size="32.00"> appeard_1</text>
<text text-anchor="middle" x="1630.65" y="-332.4" font-family="Times,serif" font-size="32.00">=c1 +k t</text>
</g>
<!-- c1&#45;&gt;v -->
<g id="edge35" class="edge">
<title>c1&#45;&gt;v</title>
<path fill="none" stroke="#000000" d="M1292.98,-536.34C1275.5,-560.18 1247.03,-595.85 1216.65,-621 1028.56,-776.72 758.42,-900.89 664.42,-941.7"/>
<polygon fill="#000000" stroke="#000000" points="662.91,-938.54 655.11,-945.72 665.68,-944.97 662.91,-938.54"/>
<text text-anchor="middle" x="976.65" y="-901.4" font-family="Times,serif" font-size="32.00">seem_1 |</text>
<text text-anchor="middle" x="976.65" y="-866.4" font-family="Times,serif" font-size="32.00"> appear_1</text>
<text text-anchor="middle" x="976.65" y="-831.4" font-family="Times,serif" font-size="32.00">=c1 v</text>
</g>
<!-- c1&#45;&gt;prog -->
<g id="edge37" class="edge">
<title>c1&#45;&gt;prog</title>
<path fill="none" stroke="#000000" d="M1279.75,-501.94C1221.3,-485.62 1090.32,-453 977.65,-453 977.65,-453 977.65,-453 323.65,-453 204.43,-453 112.62,-584.95 73.69,-651.94"/>
<polygon fill="#000000" stroke="#000000" points="70.47,-650.52 68.55,-660.94 76.55,-653.99 70.47,-650.52"/>
<text text-anchor="middle" x="629.65" y="-532.4" font-family="Times,serif" font-size="32.00">seeming_1 |</text>
<text text-anchor="middle" x="629.65" y="-497.4" font-family="Times,serif" font-size="32.00"> appearing_1</text>
<text text-anchor="middle" x="629.65" y="-462.4" font-family="Times,serif" font-size="32.00">=c1 prog</text>
</g>
<!-- c1&#45;&gt;perf -->
<g id="edge36" class="edge">
<title>c1&#45;&gt;perf</title>
<path fill="none" stroke="#000000" d="M1278.53,-507.13C1219.82,-500.71 1097.98,-490.54 1062.65,-512 1019.29,-538.34 996.95,-594.87 986.28,-633.67"/>
<polygon fill="#000000" stroke="#000000" points="982.82,-633.06 983.69,-643.61 989.6,-634.82 982.82,-633.06"/>
<text text-anchor="middle" x="1139.65" y="-591.4" font-family="Times,serif" font-size="32.00">seemn_1 |</text>
<text text-anchor="middle" x="1139.65" y="-556.4" font-family="Times,serif" font-size="32.00"> appearn_1</text>
<text text-anchor="middle" x="1139.65" y="-521.4" font-family="Times,serif" font-size="32.00">=c1 perf</text>
</g>
<!-- z5 -->
<g id="node19" class="node">
<title>z5</title>
<ellipse fill="none" stroke="black" stroke-dasharray="5,2" cx="2699.48" cy="-1076" rx="27" ry="18"/>
</g>
<!-- e -->
<g id="node20" class="node">
<title>e</title>
<ellipse fill="none" stroke="black" cx="2546.48" cy="-1076" rx="27" ry="30.31"/>
<text text-anchor="middle" x="2546.48" y="-1067.9" font-family="Times,serif" font-size="32.00">e</text>
</g>
<!-- z5&#45;&gt;e -->
<g id="edge40" class="edge">
<title>z5&#45;&gt;e</title>
<path fill="none" stroke="#000000" d="M2672.17,-1076C2647.71,-1076 2611.03,-1076 2583.78,-1076"/>
<polygon fill="#000000" stroke="#000000" points="2583.48,-1072.5 2573.48,-1076 2583.48,-1079.5 2583.48,-1072.5"/>
<text text-anchor="middle" x="2622.98" y="-1120.4" font-family="Times,serif" font-size="32.00">it</text>
<text text-anchor="middle" x="2622.98" y="-1085.4" font-family="Times,serif" font-size="32.00">e &#45;k</text>
</g>
</g>
</svg>
