<?xml version="1.0" encoding="UTF-8" standalone="no"?>
<!DOCTYPE svg PUBLIC "-//W3C//DTD SVG 1.1//EN"
 "http://www.w3.org/Graphics/SVG/1.1/DTD/svg11.dtd">
<!-- Generated by graphviz version 2.47.1 (20210417.1919)
 -->
<!-- Title: G Pages: 1 -->
<svg width="2734pt" height="1322pt"
 viewBox="0.00 0.00 2734.48 1322.00" xmlns="http://www.w3.org/2000/svg" xmlns:xlink="http://www.w3.org/1999/xlink">
<g id="graph0" class="graph" transform="scale(1 1) rotate(0) translate(4 1318)">
<title>G</title>
<polygon fill="white" stroke="transparent" points="-4,4 -4,-1318 2730.48,-1318 2730.48,4 -4,4"/>
<text text-anchor="middle" x="1363.24" y="-13.4" font-family="Times,serif" font-size="32.00">single contraction: 2 → 0</text>
<!-- t -->
<g id="node1" class="node">
<title>t</title>
<ellipse fill="lightgray" stroke="black" cx="1872.65" cy="-394" rx="27" ry="30.31"/>
<text text-anchor="middle" x="1872.65" y="-385.9" font-family="Times,serif" font-size="32.00">t</text>
</g>
<!-- c2 -->
<g id="node14" class="node">
<title>c2</title>
<ellipse fill="none" stroke="black" cx="1630.65" cy="-655" rx="33.47" ry="30.31"/>
<text text-anchor="middle" x="1630.65" y="-646.9" font-family="Times,serif" font-size="32.00">c2</text>
</g>
<!-- t&#45;&gt;c2 -->
<g id="edge38" class="edge">
<title>t&#45;&gt;c2</title>
<path fill="none" stroke="#000000" d="M1871.08,-424.61C1868.51,-470.95 1856.7,-558.72 1805.65,-608 1803.2,-610.37 1723.36,-631.32 1672.69,-644.43"/>
<polygon fill="#000000" stroke="#000000" points="1671.78,-641.05 1662.98,-646.95 1673.54,-647.83 1671.78,-641.05"/>
<text text-anchor="middle" x="1765.65" y="-675.4" font-family="Times,serif" font-size="32.00">that_1</text>
<text text-anchor="middle" x="1765.65" y="-640.4" font-family="Times,serif" font-size="32.00">=t c2</text>
</g>
<!-- c1 -->
<g id="node16" class="node">
<title>c1</title>
<ellipse fill="none" stroke="black" cx="1311.65" cy="-417" rx="33.47" ry="30.31"/>
<text text-anchor="middle" x="1311.65" y="-408.9" font-family="Times,serif" font-size="32.00">c1</text>
</g>
<!-- t&#45;&gt;c1 -->
<g id="edge37" class="edge">
<title>t&#45;&gt;c1</title>
<path fill="none" stroke="#000000" d="M1848.49,-380.33C1817.61,-362.98 1760.67,-333.98 1707.65,-323 1640.63,-309.12 1620.92,-310.35 1553.65,-323 1478.3,-337.18 1396.26,-374.26 1349.97,-397.38"/>
<polygon fill="#000000" stroke="#000000" points="1348.27,-394.32 1340.92,-401.95 1351.43,-400.57 1348.27,-394.32"/>
<text text-anchor="middle" x="1630.65" y="-367.4" font-family="Times,serif" font-size="32.00">that</text>
<text text-anchor="middle" x="1630.65" y="-332.4" font-family="Times,serif" font-size="32.00">=t =e c1</text>
</g>
<!-- z0 -->
<g id="node2" class="node">
<title>z0</title>
<ellipse fill="none" stroke="black" stroke-dasharray="5,2" cx="2546.48" cy="-1057" rx="27" ry="18"/>
</g>
<!-- d -->
<g id="node3" class="node">
<title>d</title>
<ellipse fill="none" stroke="black" cx="2363.48" cy="-958" rx="27" ry="30.31"/>
<text text-anchor="middle" x="2363.48" y="-949.9" font-family="Times,serif" font-size="32.00">d</text>
</g>
<!-- z0&#45;&gt;d -->
<g id="edge1" class="edge">
<title>z0&#45;&gt;d</title>
<path fill="none" stroke="#000000" d="M2519.57,-1059.16C2490.06,-1060.3 2441.65,-1057.96 2408.48,-1035 2394.77,-1025.51 2384.78,-1010.27 2377.83,-995.85"/>
<polygon fill="#000000" stroke="#000000" points="2380.95,-994.26 2373.68,-986.55 2374.56,-997.11 2380.95,-994.26"/>
<text text-anchor="middle" x="2454.98" y="-1208.4" font-family="Times,serif" font-size="32.00">Mary |</text>
<text text-anchor="middle" x="2454.98" y="-1173.4" font-family="Times,serif" font-size="32.00"> John |</text>
<text text-anchor="middle" x="2454.98" y="-1138.4" font-family="Times,serif" font-size="32.00"> Alice |</text>
<text text-anchor="middle" x="2454.98" y="-1103.4" font-family="Times,serif" font-size="32.00"> Bob</text>
<text text-anchor="middle" x="2454.98" y="-1068.4" font-family="Times,serif" font-size="32.00">d &#45;k</text>
</g>
<!-- 0 -->
<g id="node6" class="node">
<title>0</title>
<ellipse fill="none" stroke="black" cx="1311.65" cy="-900" rx="27" ry="30.31"/>
<text text-anchor="middle" x="1311.65" y="-891.9" font-family="Times,serif" font-size="32.00">0</text>
</g>
<!-- d&#45;&gt;0 -->
<g id="edge14" class="edge">
<title>d&#45;&gt;0</title>
<path fill="none" stroke="#000000" d="M2354.8,-986.83C2348.3,-1005.26 2337,-1027.89 2318.48,-1040 2252.82,-1082.91 2220.99,-1054 2142.56,-1054 2142.56,-1054 2142.56,-1054 1629.65,-1054 1530.35,-1054 1492.78,-1089.44 1406.65,-1040 1367.25,-1017.38 1341.08,-970.74 1326.57,-937.51"/>
<polygon fill="#000000" stroke="#000000" points="1329.72,-935.97 1322.62,-928.1 1323.27,-938.68 1329.72,-935.97"/>
<text text-anchor="middle" x="1872.65" y="-1203.4" font-family="Times,serif" font-size="32.00">praise |</text>
<text text-anchor="middle" x="1872.65" y="-1168.4" font-family="Times,serif" font-size="32.00"> like |</text>
<text text-anchor="middle" x="1872.65" y="-1133.4" font-family="Times,serif" font-size="32.00"> kiss |</text>
<text text-anchor="middle" x="1872.65" y="-1098.4" font-family="Times,serif" font-size="32.00"> hug</text>
<text text-anchor="middle" x="1872.65" y="-1063.4" font-family="Times,serif" font-size="32.00">=d *k 0</text>
</g>
<!-- pass -->
<g id="node13" class="node">
<title>pass</title>
<ellipse fill="none" stroke="black" cx="2141.56" cy="-715" rx="50.82" ry="30.31"/>
<text text-anchor="middle" x="2141.56" y="-706.9" font-family="Times,serif" font-size="32.00">pass</text>
</g>
<!-- d&#45;&gt;pass -->
<g id="edge15" class="edge">
<title>d&#45;&gt;pass</title>
<path fill="none" stroke="#000000" d="M2352.76,-929.83C2345.24,-910.44 2333.57,-884.71 2318.48,-865 2280.49,-815.37 2223.62,-770.62 2184.9,-743.17"/>
<polygon fill="#000000" stroke="#000000" points="2186.65,-740.12 2176.45,-737.25 2182.63,-745.85 2186.65,-740.12"/>
<text text-anchor="middle" x="2264.48" y="-1014.4" font-family="Times,serif" font-size="32.00">praisen |</text>
<text text-anchor="middle" x="2264.48" y="-979.4" font-family="Times,serif" font-size="32.00"> liken |</text>
<text text-anchor="middle" x="2264.48" y="-944.4" font-family="Times,serif" font-size="32.00"> kissn |</text>
<text text-anchor="middle" x="2264.48" y="-909.4" font-family="Times,serif" font-size="32.00"> hugn</text>
<text text-anchor="middle" x="2264.48" y="-874.4" font-family="Times,serif" font-size="32.00">=d pass</text>
</g>
<!-- n -->
<g id="node4" class="node">
<title>n</title>
<ellipse fill="none" stroke="black" cx="2546.48" cy="-859" rx="27" ry="30.31"/>
<text text-anchor="middle" x="2546.48" y="-850.9" font-family="Times,serif" font-size="32.00">n</text>
</g>
<!-- n&#45;&gt;d -->
<g id="edge2" class="edge">
<title>n&#45;&gt;d</title>
<path fill="none" stroke="#000000" d="M2520.4,-850.54C2491.01,-842.29 2442.07,-833.91 2408.48,-856 2387.66,-869.69 2376.64,-895.55 2370.84,-917.8"/>
<polygon fill="#000000" stroke="#000000" points="2367.39,-917.18 2368.53,-927.71 2374.21,-918.77 2367.39,-917.18"/>
<text text-anchor="middle" x="2454.98" y="-1005.4" font-family="Times,serif" font-size="32.00">this |</text>
<text text-anchor="middle" x="2454.98" y="-970.4" font-family="Times,serif" font-size="32.00"> a |</text>
<text text-anchor="middle" x="2454.98" y="-935.4" font-family="Times,serif" font-size="32.00"> the |</text>
<text text-anchor="middle" x="2454.98" y="-900.4" font-family="Times,serif" font-size="32.00"> some</text>
<text text-anchor="middle" x="2454.98" y="-865.4" font-family="Times,serif" font-size="32.00">=n d &#45;k</text>
</g>
<!-- z1 -->
<g id="node5" class="node">
<title>z1</title>
<ellipse fill="none" stroke="black" stroke-dasharray="5,2" cx="2699.48" cy="-859" rx="27" ry="18"/>
</g>
<!-- z1&#45;&gt;n -->
<g id="edge3" class="edge">
<title>z1&#45;&gt;n</title>
<path fill="none" stroke="#000000" d="M2672.17,-859C2647.71,-859 2611.03,-859 2583.78,-859"/>
<polygon fill="#000000" stroke="#000000" points="2583.48,-855.5 2573.48,-859 2583.48,-862.5 2583.48,-855.5"/>
<text text-anchor="middle" x="2622.98" y="-938.4" font-family="Times,serif" font-size="32.00">boy |</text>
<text text-anchor="middle" x="2622.98" y="-903.4" font-family="Times,serif" font-size="32.00"> girl</text>
<text text-anchor="middle" x="2622.98" y="-868.4" font-family="Times,serif" font-size="32.00">n</text>
</g>
<!-- 0&#45;&gt;t -->
<g id="edge4" class="edge">
<title>0&#45;&gt;t</title>
<path fill="none" stroke="#000000" d="M1338.56,-895.16C1357.42,-891.68 1383.6,-886.92 1406.65,-883 1473.43,-871.64 1649.61,-869.91 1707.65,-835 1848.35,-750.37 1869.21,-526.77 1871.68,-434.6"/>
<polygon fill="#000000" stroke="#000000" points="1875.18,-434.61 1871.89,-424.54 1868.18,-434.47 1875.18,-434.61"/>
<text text-anchor="middle" x="1630.65" y="-948.4" font-family="Times,serif" font-size="32.00">s |</text>
<text text-anchor="middle" x="1630.65" y="-913.4" font-family="Times,serif" font-size="32.00"> d</text>
<text text-anchor="middle" x="1630.65" y="-878.4" font-family="Times,serif" font-size="32.00">=&gt;0 =d +k t</text>
</g>
<!-- v -->
<g id="node8" class="node">
<title>v</title>
<ellipse fill="none" stroke="black" cx="629.65" cy="-749" rx="27" ry="30.31"/>
<text text-anchor="middle" x="629.65" y="-740.9" font-family="Times,serif" font-size="32.00">v</text>
</g>
<!-- 0&#45;&gt;v -->
<g id="edge6" class="edge">
<title>0&#45;&gt;v</title>
<path fill="none" stroke="#000000" d="M1286.27,-889.17C1240.08,-869.12 1136.26,-826.23 1044.65,-804 907.88,-770.81 870.12,-781.87 730.65,-763 709.4,-760.12 685.62,-756.8 666.58,-754.11"/>
<polygon fill="#000000" stroke="#000000" points="666.93,-750.63 656.54,-752.69 665.95,-757.56 666.93,-750.63"/>
<text text-anchor="middle" x="976.65" y="-848.4" font-family="Times,serif" font-size="32.00">ε_0</text>
<text text-anchor="middle" x="976.65" y="-813.4" font-family="Times,serif" font-size="32.00">=&gt;0 =d v</text>
</g>
<!-- prog -->
<g id="node9" class="node">
<title>prog</title>
<ellipse fill="none" stroke="black" cx="52.33" cy="-719" rx="52.15" ry="30.31"/>
<text text-anchor="middle" x="52.33" y="-710.9" font-family="Times,serif" font-size="32.00">prog</text>
</g>
<!-- 0&#45;&gt;prog -->
<g id="edge7" class="edge">
<title>0&#45;&gt;prog</title>
<path fill="none" stroke="#000000" d="M1293.6,-922.71C1248.72,-979.66 1120.83,-1124 977.65,-1124 977.65,-1124 977.65,-1124 323.65,-1124 149.57,-1124 80.63,-861.94 60.33,-759.42"/>
<polygon fill="#000000" stroke="#000000" points="63.73,-758.6 58.4,-749.44 56.86,-759.92 63.73,-758.6"/>
<text text-anchor="middle" x="629.65" y="-1168.4" font-family="Times,serif" font-size="32.00">ing</text>
<text text-anchor="middle" x="629.65" y="-1133.4" font-family="Times,serif" font-size="32.00">=&gt;0 =d prog</text>
</g>
<!-- perf -->
<g id="node10" class="node">
<title>perf</title>
<ellipse fill="none" stroke="black" cx="976.65" cy="-913" rx="48.17" ry="30.31"/>
<text text-anchor="middle" x="976.65" y="-904.9" font-family="Times,serif" font-size="32.00">perf</text>
</g>
<!-- 0&#45;&gt;perf -->
<g id="edge8" class="edge">
<title>0&#45;&gt;perf</title>
<path fill="none" stroke="#000000" d="M1284.52,-901.02C1231.11,-903.11 1108.32,-907.9 1035.28,-910.75"/>
<polygon fill="#000000" stroke="#000000" points="1034.74,-907.27 1024.88,-911.16 1035.01,-914.26 1034.74,-907.27"/>
<text text-anchor="middle" x="1139.65" y="-954.4" font-family="Times,serif" font-size="32.00">n</text>
<text text-anchor="middle" x="1139.65" y="-919.4" font-family="Times,serif" font-size="32.00">=&gt;0 =d perf</text>
</g>
<!-- z2 -->
<g id="node7" class="node">
<title>z2</title>
<ellipse fill="none" stroke="black" stroke-dasharray="5,2" cx="1630.65" cy="-1008" rx="27" ry="18"/>
</g>
<!-- z2&#45;&gt;0 -->
<g id="edge5" class="edge">
<title>z2&#45;&gt;0</title>
<path fill="none" stroke="#000000" d="M1604.23,-1003.48C1587.5,-999.2 1566.42,-991.08 1553.65,-976 1531.23,-949.5 1562.88,-921.53 1535.65,-900 1507.69,-877.89 1404.59,-887.59 1348.9,-894.77"/>
<polygon fill="#000000" stroke="#000000" points="1348.21,-891.33 1338.75,-896.12 1349.13,-898.27 1348.21,-891.33"/>
<text text-anchor="middle" x="1471.15" y="-1014.4" font-family="Times,serif" font-size="32.00">dance |</text>
<text text-anchor="middle" x="1471.15" y="-979.4" font-family="Times,serif" font-size="32.00"> laugh |</text>
<text text-anchor="middle" x="1471.15" y="-944.4" font-family="Times,serif" font-size="32.00"> jump</text>
<text text-anchor="middle" x="1471.15" y="-909.4" font-family="Times,serif" font-size="32.00">0</text>
</g>
<!-- v&#45;&gt;t -->
<g id="edge17" class="edge">
<title>v&#45;&gt;t</title>
<path fill="none" stroke="#000000" d="M638.17,-719.99C650.7,-676.79 679.66,-595.24 730.65,-545 792.97,-483.6 826.54,-491.17 908.65,-461 941.92,-448.78 1192.79,-404.21 1216.65,-378 1248.53,-342.99 1198.45,-303.52 1234.65,-273 1332.05,-190.88 1692.56,-265.36 1805.65,-324 1822.88,-332.93 1838.07,-348.18 1849.52,-362.17"/>
<polygon fill="#000000" stroke="#000000" points="1846.89,-364.49 1855.81,-370.2 1852.4,-360.17 1846.89,-364.49"/>
<text text-anchor="middle" x="1311.65" y="-352.4" font-family="Times,serif" font-size="32.00">wills |</text>
<text text-anchor="middle" x="1311.65" y="-317.4" font-family="Times,serif" font-size="32.00"> willd</text>
<text text-anchor="middle" x="1311.65" y="-282.4" font-family="Times,serif" font-size="32.00">=v +k t</text>
</g>
<!-- to -->
<g id="node15" class="node">
<title>to</title>
<ellipse fill="none" stroke="black" cx="324.65" cy="-778" rx="28.98" ry="30.31"/>
<text text-anchor="middle" x="324.65" y="-769.9" font-family="Times,serif" font-size="32.00">to</text>
</g>
<!-- v&#45;&gt;to -->
<g id="edge36" class="edge">
<title>v&#45;&gt;to</title>
<path fill="none" stroke="#000000" d="M605.99,-764.18C586.45,-776.29 556.99,-792.31 528.65,-799 469.82,-812.89 452.4,-808.14 392.65,-799 382.35,-797.42 371.46,-794.56 361.51,-791.44"/>
<polygon fill="#000000" stroke="#000000" points="362.54,-788.09 351.95,-788.28 360.34,-794.74 362.54,-788.09"/>
<text text-anchor="middle" x="460.65" y="-852.4" font-family="Times,serif" font-size="32.00">to</text>
<text text-anchor="middle" x="460.65" y="-817.4" font-family="Times,serif" font-size="32.00">=v to</text>
</g>
<!-- prog&#45;&gt;t -->
<g id="edge18" class="edge">
<title>prog&#45;&gt;t</title>
<path fill="none" stroke="#000000" d="M53.94,-688.48C58.03,-572.55 89.09,-166 323.65,-166 1631.65,-166 1631.65,-166 1631.65,-166 1717.33,-166 1745.61,-187.87 1805.65,-249 1834.6,-278.47 1852.23,-322.9 1861.9,-354.81"/>
<polygon fill="#000000" stroke="#000000" points="1858.62,-356.06 1864.76,-364.69 1865.34,-354.11 1858.62,-356.06"/>
<text text-anchor="middle" x="976.65" y="-245.4" font-family="Times,serif" font-size="32.00">bes |</text>
<text text-anchor="middle" x="976.65" y="-210.4" font-family="Times,serif" font-size="32.00"> bed</text>
<text text-anchor="middle" x="976.65" y="-175.4" font-family="Times,serif" font-size="32.00">=prog +k t</text>
</g>
<!-- prog&#45;&gt;v -->
<g id="edge19" class="edge">
<title>prog&#45;&gt;v</title>
<path fill="none" stroke="#000000" d="M97.1,-702.87C182.7,-673.88 377.14,-620.75 528.65,-674 556.6,-683.82 583.17,-704.49 601.89,-721.65"/>
<polygon fill="#000000" stroke="#000000" points="599.74,-724.43 609.42,-728.75 604.54,-719.34 599.74,-724.43"/>
<text text-anchor="middle" x="324.65" y="-704.4" font-family="Times,serif" font-size="32.00">be</text>
<text text-anchor="middle" x="324.65" y="-669.4" font-family="Times,serif" font-size="32.00">=prog v</text>
</g>
<!-- prog&#45;&gt;perf -->
<g id="edge20" class="edge">
<title>prog&#45;&gt;perf</title>
<path fill="none" stroke="#000000" d="M59.51,-749.41C68.02,-783.74 86.57,-839.08 122.65,-872 270,-1006.42 349.97,-985.87 546.65,-1019 619.4,-1031.25 640.22,-1033.05 712.65,-1019 792.73,-1003.47 879.32,-963.64 930.45,-937.47"/>
<polygon fill="#000000" stroke="#000000" points="932.3,-940.45 939.57,-932.75 929.08,-934.24 932.3,-940.45"/>
<text text-anchor="middle" x="460.65" y="-1059.4" font-family="Times,serif" font-size="32.00">ben</text>
<text text-anchor="middle" x="460.65" y="-1024.4" font-family="Times,serif" font-size="32.00">=prog perf</text>
</g>
<!-- perf&#45;&gt;t -->
<g id="edge33" class="edge">
<title>perf&#45;&gt;t</title>
<path fill="none" stroke="#000000" d="M1018.76,-897.83C1028.29,-892.73 1037.67,-886.19 1044.65,-878 1061.06,-858.74 1050.01,-845.91 1062.65,-824 1171.86,-634.74 1245.1,-620.73 1388.65,-456 1396.73,-446.73 1395.48,-440.14 1406.65,-435 1458.74,-411.04 1492.69,-397.04 1535.65,-435 1584.32,-478 1504.99,-537 1553.65,-580 1604.94,-625.32 1645.27,-608.16 1707.65,-580 1776.3,-549.01 1827.71,-473.51 1853.39,-428.81"/>
<polygon fill="#000000" stroke="#000000" points="1856.47,-430.46 1858.32,-420.03 1850.37,-427.03 1856.47,-430.46"/>
<text text-anchor="middle" x="1471.15" y="-514.4" font-family="Times,serif" font-size="32.00">haves |</text>
<text text-anchor="middle" x="1471.15" y="-479.4" font-family="Times,serif" font-size="32.00"> haved</text>
<text text-anchor="middle" x="1471.15" y="-444.4" font-family="Times,serif" font-size="32.00">=perf +k t</text>
</g>
<!-- perf&#45;&gt;v -->
<g id="edge34" class="edge">
<title>perf&#45;&gt;v</title>
<path fill="none" stroke="#000000" d="M938.62,-893.96C927.95,-887.16 916.96,-878.74 908.65,-869 896,-854.17 906.23,-840.73 890.65,-829 833.26,-785.79 798.61,-829.31 730.65,-806 706.01,-797.55 680.54,-782.92 661.47,-770.61"/>
<polygon fill="#000000" stroke="#000000" points="663.19,-767.55 652.92,-764.96 659.33,-773.39 663.19,-767.55"/>
<text text-anchor="middle" x="810.65" y="-873.4" font-family="Times,serif" font-size="32.00">have</text>
<text text-anchor="middle" x="810.65" y="-838.4" font-family="Times,serif" font-size="32.00">=perf v</text>
</g>
<!-- 1 -->
<g id="node11" class="node">
<title>1</title>
<ellipse fill="none" stroke="black" cx="1630.65" cy="-1197" rx="27" ry="30.31"/>
<text text-anchor="middle" x="1630.65" y="-1188.9" font-family="Times,serif" font-size="32.00">1</text>
</g>
<!-- 1&#45;&gt;0 -->
<g id="edge9" class="edge">
<title>1&#45;&gt;0</title>
<path fill="none" stroke="#000000" d="M1615.17,-1171.81C1599.13,-1146.36 1570.83,-1108.04 1535.65,-1088 1485.05,-1059.17 1454.23,-1098.59 1406.65,-1065 1363.26,-1034.37 1337.26,-976.95 1323.94,-938.58"/>
<polygon fill="#000000" stroke="#000000" points="1327.16,-937.16 1320.67,-928.79 1320.52,-939.38 1327.16,-937.16"/>
<text text-anchor="middle" x="1471.15" y="-1132.4" font-family="Times,serif" font-size="32.00">ε_1</text>
<text text-anchor="middle" x="1471.15" y="-1097.4" font-family="Times,serif" font-size="32.00">=&gt;1 0</text>
</g>
<!-- 1&#45;&gt;v -->
<g id="edge11" class="edge">
<title>1&#45;&gt;v</title>
<path fill="none" stroke="#000000" d="M1604.12,-1203.34C1538.24,-1218.26 1359,-1249.5 1234.65,-1183 1222.58,-1176.54 1226.96,-1167.01 1216.65,-1158 1032.35,-996.94 912.02,-1063.35 730.65,-899 694.45,-866.2 665.22,-817.63 647.91,-784.72"/>
<polygon fill="#000000" stroke="#000000" points="650.84,-782.74 643.14,-775.46 644.61,-785.95 650.84,-782.74"/>
<text text-anchor="middle" x="1139.65" y="-1202.4" font-family="Times,serif" font-size="32.00">ε_2</text>
<text text-anchor="middle" x="1139.65" y="-1167.4" font-family="Times,serif" font-size="32.00">=&gt;1 =d v</text>
</g>
<!-- 1&#45;&gt;prog -->
<g id="edge12" class="edge">
<title>1&#45;&gt;prog</title>
<path fill="none" stroke="#000000" d="M1604.98,-1207.07C1586.28,-1214.22 1559.78,-1223.34 1535.65,-1228 1438.14,-1246.82 1411.96,-1242 1312.65,-1242 1312.65,-1242 1312.65,-1242 323.65,-1242 106.65,-1242 63.65,-882.27 55.3,-759.5"/>
<polygon fill="#000000" stroke="#000000" points="58.78,-759.14 54.65,-749.38 51.8,-759.58 58.78,-759.14"/>
<text text-anchor="middle" x="810.65" y="-1286.4" font-family="Times,serif" font-size="32.00">ing_1</text>
<text text-anchor="middle" x="810.65" y="-1251.4" font-family="Times,serif" font-size="32.00">=&gt;1 =d prog</text>
</g>
<!-- 1&#45;&gt;perf -->
<g id="edge13" class="edge">
<title>1&#45;&gt;perf</title>
<path fill="none" stroke="#000000" d="M1603.67,-1193.89C1548.16,-1187.05 1421.83,-1170.32 1406.65,-1158 1389.93,-1144.43 1403.91,-1128.2 1388.65,-1113 1278.27,-1003.02 1196.59,-1063.62 1062.65,-984 1044.35,-973.12 1025.99,-958.38 1011.03,-945.14"/>
<polygon fill="#000000" stroke="#000000" points="1013.31,-942.48 1003.54,-938.39 1008.62,-947.68 1013.31,-942.48"/>
<text text-anchor="middle" x="1311.65" y="-1157.4" font-family="Times,serif" font-size="32.00">n_1</text>
<text text-anchor="middle" x="1311.65" y="-1122.4" font-family="Times,serif" font-size="32.00">=&gt;1 =d perf</text>
</g>
<!-- z3 -->
<g id="node12" class="node">
<title>z3</title>
<ellipse fill="none" stroke="black" stroke-dasharray="5,2" cx="1872.65" cy="-1265" rx="27" ry="18"/>
</g>
<!-- z3&#45;&gt;1 -->
<g id="edge10" class="edge">
<title>z3&#45;&gt;1</title>
<path fill="none" stroke="#000000" d="M1847.32,-1258.11C1804.71,-1246.03 1716.43,-1221.02 1667.05,-1207.03"/>
<polygon fill="#000000" stroke="#000000" points="1667.71,-1203.58 1657.13,-1204.22 1665.8,-1210.31 1667.71,-1203.58"/>
<text text-anchor="middle" x="1765.65" y="-1288.4" font-family="Times,serif" font-size="32.00">smile</text>
<text text-anchor="middle" x="1765.65" y="-1253.4" font-family="Times,serif" font-size="32.00">1</text>
</g>
<!-- pass&#45;&gt;t -->
<g id="edge21" class="edge">
<title>pass&#45;&gt;t</title>
<path fill="none" stroke="#000000" d="M2126.61,-685.81C2114.07,-660.89 2094.34,-624.63 2072.65,-596 2019.43,-525.73 1943.3,-454.94 1902.35,-418.73"/>
<polygon fill="#000000" stroke="#000000" points="1904.47,-415.93 1894.64,-411.96 1899.85,-421.19 1904.47,-415.93"/>
<text text-anchor="middle" x="2006.15" y="-675.4" font-family="Times,serif" font-size="32.00">bes_1 |</text>
<text text-anchor="middle" x="2006.15" y="-640.4" font-family="Times,serif" font-size="32.00"> bed_1</text>
<text text-anchor="middle" x="2006.15" y="-605.4" font-family="Times,serif" font-size="32.00">=pass +k t</text>
</g>
<!-- pass&#45;&gt;v -->
<g id="edge22" class="edge">
<title>pass&#45;&gt;v</title>
<path fill="none" stroke="#000000" d="M2090.38,-716.44C1986.73,-719.39 1741.51,-726.23 1535.65,-731 1198.24,-738.82 790.01,-746.19 667.26,-748.36"/>
<polygon fill="#000000" stroke="#000000" points="666.87,-744.86 656.94,-748.54 667,-751.86 666.87,-744.86"/>
<text text-anchor="middle" x="1471.15" y="-778.4" font-family="Times,serif" font-size="32.00">be_1</text>
<text text-anchor="middle" x="1471.15" y="-743.4" font-family="Times,serif" font-size="32.00">=pass v</text>
</g>
<!-- pass&#45;&gt;prog -->
<g id="edge24" class="edge">
<title>pass&#45;&gt;prog</title>
<path fill="none" stroke="#000000" d="M2134.79,-684.85C2109.82,-558.85 2006.36,-81 1873.65,-81 1873.65,-81 1873.65,-81 323.65,-81 224.46,-81 180.63,-97.52 122.65,-178 64.94,-258.1 55.25,-566.66 53.64,-678.35"/>
<polygon fill="#000000" stroke="#000000" points="50.14,-678.48 53.51,-688.53 57.14,-678.57 50.14,-678.48"/>
<text text-anchor="middle" x="1139.65" y="-125.4" font-family="Times,serif" font-size="32.00">being</text>
<text text-anchor="middle" x="1139.65" y="-90.4" font-family="Times,serif" font-size="32.00">=pass prog</text>
</g>
<!-- pass&#45;&gt;perf -->
<g id="edge23" class="edge">
<title>pass&#45;&gt;perf</title>
<path fill="none" stroke="#000000" d="M2093.58,-725.58C2086.59,-726.9 2079.45,-728.09 2072.65,-729 2015.38,-736.63 1598.68,-724.8 1553.65,-761 1530.95,-779.24 1557.78,-805.08 1535.65,-824 1484.43,-867.8 1301.17,-850.2 1234.65,-861 1164.3,-872.42 1083.88,-889.32 1032.01,-900.73"/>
<polygon fill="#000000" stroke="#000000" points="1031.04,-897.36 1022.03,-902.93 1032.55,-904.19 1031.04,-897.36"/>
<text text-anchor="middle" x="1630.65" y="-805.4" font-family="Times,serif" font-size="32.00">ben_1</text>
<text text-anchor="middle" x="1630.65" y="-770.4" font-family="Times,serif" font-size="32.00">=pass perf</text>
</g>
<!-- c2&#45;&gt;0 -->
<g id="edge16" class="edge">
<title>c2&#45;&gt;0</title>
<path fill="none" stroke="#000000" d="M1599.37,-643.68C1583.76,-636.47 1565.56,-625.69 1553.65,-611 1537.46,-591.02 1556.48,-571.1 1535.65,-556 1512.44,-539.17 1429.44,-538.61 1406.65,-556 1358.1,-593.06 1328.55,-777.35 1317.55,-859.89"/>
<polygon fill="#000000" stroke="#000000" points="1314.07,-859.54 1316.24,-869.91 1321.01,-860.45 1314.07,-859.54"/>
<text text-anchor="middle" x="1471.15" y="-705.4" font-family="Times,serif" font-size="32.00">declare |</text>
<text text-anchor="middle" x="1471.15" y="-670.4" font-family="Times,serif" font-size="32.00"> think |</text>
<text text-anchor="middle" x="1471.15" y="-635.4" font-family="Times,serif" font-size="32.00"> explain |</text>
<text text-anchor="middle" x="1471.15" y="-600.4" font-family="Times,serif" font-size="32.00"> say</text>
<text text-anchor="middle" x="1471.15" y="-565.4" font-family="Times,serif" font-size="32.00">=c2 0</text>
</g>
<!-- to&#45;&gt;t -->
<g id="edge25" class="edge">
<title>to&#45;&gt;t</title>
<path fill="none" stroke="#000000" d="M349.22,-761.34C358.28,-753.89 368.04,-744.43 374.65,-734 389.56,-710.49 375.73,-696.11 392.65,-674 500.13,-533.55 579.77,-556.27 730.65,-464 869.61,-379.02 948.59,-406.54 1044.65,-275 1065.12,-246.97 1035.42,-220.53 1062.65,-199 1119.03,-154.42 1638.05,-230.07 1707.65,-248 1753.54,-259.82 1769.56,-259.29 1805.65,-290 1827.31,-308.43 1844.28,-335.78 1855.58,-357.81"/>
<polygon fill="#000000" stroke="#000000" points="1852.5,-359.48 1860.08,-366.88 1858.78,-356.37 1852.5,-359.48"/>
<text text-anchor="middle" x="1139.65" y="-348.4" font-family="Times,serif" font-size="32.00">seems |</text>
<text text-anchor="middle" x="1139.65" y="-313.4" font-family="Times,serif" font-size="32.00"> seemd |</text>
<text text-anchor="middle" x="1139.65" y="-278.4" font-family="Times,serif" font-size="32.00"> appears |</text>
<text text-anchor="middle" x="1139.65" y="-243.4" font-family="Times,serif" font-size="32.00"> appeard</text>
<text text-anchor="middle" x="1139.65" y="-208.4" font-family="Times,serif" font-size="32.00">=to +k t</text>
</g>
<!-- to&#45;&gt;v -->
<g id="edge26" class="edge">
<title>to&#45;&gt;v</title>
<path fill="none" stroke="#000000" d="M349.04,-760.46C357.87,-753.01 367.5,-743.79 374.65,-734 386.15,-718.26 376.28,-704.59 392.65,-694 457.21,-652.26 549.84,-698.13 597.58,-727.8"/>
<polygon fill="#000000" stroke="#000000" points="595.92,-730.89 606.23,-733.31 599.68,-724.99 595.92,-730.89"/>
<text text-anchor="middle" x="460.65" y="-773.4" font-family="Times,serif" font-size="32.00">seem |</text>
<text text-anchor="middle" x="460.65" y="-738.4" font-family="Times,serif" font-size="32.00"> appear</text>
<text text-anchor="middle" x="460.65" y="-703.4" font-family="Times,serif" font-size="32.00">=to v</text>
</g>
<!-- to&#45;&gt;prog -->
<g id="edge28" class="edge">
<title>to&#45;&gt;prog</title>
<path fill="none" stroke="#000000" d="M295.99,-771.96C252.83,-762.54 168.52,-744.14 111.55,-731.71"/>
<polygon fill="#000000" stroke="#000000" points="112.11,-728.25 101.59,-729.53 110.62,-735.09 112.11,-728.25"/>
<text text-anchor="middle" x="189.65" y="-842.4" font-family="Times,serif" font-size="32.00">seeming |</text>
<text text-anchor="middle" x="189.65" y="-807.4" font-family="Times,serif" font-size="32.00"> appearing</text>
<text text-anchor="middle" x="189.65" y="-772.4" font-family="Times,serif" font-size="32.00">=to prog</text>
</g>
<!-- to&#45;&gt;perf -->
<g id="edge27" class="edge">
<title>to&#45;&gt;perf</title>
<path fill="none" stroke="#000000" d="M335.5,-806.41C345.67,-831.03 364.12,-865.27 392.65,-882 437.18,-908.11 779.95,-912.29 918.16,-912.92"/>
<polygon fill="#000000" stroke="#000000" points="918.52,-916.42 928.53,-912.96 918.55,-909.42 918.52,-916.42"/>
<text text-anchor="middle" x="629.65" y="-989.4" font-family="Times,serif" font-size="32.00">seemn |</text>
<text text-anchor="middle" x="629.65" y="-954.4" font-family="Times,serif" font-size="32.00"> appearn</text>
<text text-anchor="middle" x="629.65" y="-919.4" font-family="Times,serif" font-size="32.00">=to perf</text>
</g>
<!-- c1&#45;&gt;t -->
<g id="edge29" class="edge">
<title>c1&#45;&gt;t</title>
<path fill="none" stroke="#000000" d="M1344.8,-413.4C1362.94,-411.5 1386.04,-409.3 1406.65,-408 1566.01,-397.98 1756.56,-395.09 1835.08,-394.29"/>
<polygon fill="#000000" stroke="#000000" points="1835.44,-397.79 1845.4,-394.19 1835.37,-390.79 1835.44,-397.79"/>
<text text-anchor="middle" x="1630.65" y="-550.4" font-family="Times,serif" font-size="32.00">seems_1 |</text>
<text text-anchor="middle" x="1630.65" y="-515.4" font-family="Times,serif" font-size="32.00"> seemd_1 |</text>
<text text-anchor="middle" x="1630.65" y="-480.4" font-family="Times,serif" font-size="32.00"> appears_1 |</text>
<text text-anchor="middle" x="1630.65" y="-445.4" font-family="Times,serif" font-size="32.00"> appeard_1</text>
<text text-anchor="middle" x="1630.65" y="-410.4" font-family="Times,serif" font-size="32.00">=c1 +k t</text>
</g>
<!-- c1&#45;&gt;v -->
<g id="edge30" class="edge">
<title>c1&#45;&gt;v</title>
<path fill="none" stroke="#000000" d="M1278.49,-421.26C1215.96,-429.65 1082.42,-448.2 1062.65,-456 893.71,-522.69 724.5,-664.55 659,-723"/>
<polygon fill="#000000" stroke="#000000" points="656.28,-720.74 651.17,-730.03 660.95,-725.95 656.28,-720.74"/>
<text text-anchor="middle" x="976.65" y="-611.4" font-family="Times,serif" font-size="32.00">seem_1 |</text>
<text text-anchor="middle" x="976.65" y="-576.4" font-family="Times,serif" font-size="32.00"> appear_1</text>
<text text-anchor="middle" x="976.65" y="-541.4" font-family="Times,serif" font-size="32.00">=c1 v</text>
</g>
<!-- c1&#45;&gt;prog -->
<g id="edge32" class="edge">
<title>c1&#45;&gt;prog</title>
<path fill="none" stroke="#000000" d="M1278.48,-412.06C1157.69,-394.85 721.29,-344.63 392.65,-461 261.13,-507.57 139.29,-625.48 84.2,-684.39"/>
<polygon fill="#000000" stroke="#000000" points="81.42,-682.25 77.19,-691.96 86.55,-687 81.42,-682.25"/>
<text text-anchor="middle" x="629.65" y="-498.4" font-family="Times,serif" font-size="32.00">seeming_1 |</text>
<text text-anchor="middle" x="629.65" y="-463.4" font-family="Times,serif" font-size="32.00"> appearing_1</text>
<text text-anchor="middle" x="629.65" y="-428.4" font-family="Times,serif" font-size="32.00">=c1 prog</text>
</g>
<!-- c1&#45;&gt;perf -->
<g id="edge31" class="edge">
<title>c1&#45;&gt;perf</title>
<path fill="none" stroke="#000000" d="M1281.56,-430.03C1263.26,-437.75 1238.96,-447.14 1216.65,-453 1183.19,-461.8 1085.83,-450.31 1062.65,-476 1033.37,-508.45 1066.29,-831.02 1044.65,-869 1039.95,-877.26 1032.99,-884.24 1025.3,-890.04"/>
<polygon fill="#000000" stroke="#000000" points="1023.04,-887.35 1016.76,-895.88 1026.99,-893.13 1023.04,-887.35"/>
<text text-anchor="middle" x="1139.65" y="-555.4" font-family="Times,serif" font-size="32.00">seemn_1 |</text>
<text text-anchor="middle" x="1139.65" y="-520.4" font-family="Times,serif" font-size="32.00"> appearn_1</text>
<text text-anchor="middle" x="1139.65" y="-485.4" font-family="Times,serif" font-size="32.00">=c1 perf</text>
</g>
<!-- z4 -->
<g id="node17" class="node">
<title>z4</title>
<ellipse fill="none" stroke="black" stroke-dasharray="5,2" cx="2699.48" cy="-1123" rx="27" ry="18"/>
</g>
<!-- e -->
<g id="node18" class="node">
<title>e</title>
<ellipse fill="none" stroke="black" cx="2546.48" cy="-1123" rx="27" ry="30.31"/>
<text text-anchor="middle" x="2546.48" y="-1114.9" font-family="Times,serif" font-size="32.00">e</text>
</g>
<!-- z4&#45;&gt;e -->
<g id="edge35" class="edge">
<title>z4&#45;&gt;e</title>
<path fill="none" stroke="#000000" d="M2672.17,-1123C2647.71,-1123 2611.03,-1123 2583.78,-1123"/>
<polygon fill="#000000" stroke="#000000" points="2583.48,-1119.5 2573.48,-1123 2583.48,-1126.5 2583.48,-1119.5"/>
<text text-anchor="middle" x="2622.98" y="-1167.4" font-family="Times,serif" font-size="32.00">it</text>
<text text-anchor="middle" x="2622.98" y="-1132.4" font-family="Times,serif" font-size="32.00">e &#45;k</text>
</g>
</g>
</svg>
