<?xml version="1.0" encoding="UTF-8" standalone="no"?>
<!DOCTYPE svg PUBLIC "-//W3C//DTD SVG 1.1//EN"
 "http://www.w3.org/Graphics/SVG/1.1/DTD/svg11.dtd">
<!-- Generated by graphviz version 2.47.1 (20210417.1919)
 -->
<!-- Title: G Pages: 1 -->
<svg width="2617pt" height="1402pt"
 viewBox="0.00 0.00 2617.48 1402.00" xmlns="http://www.w3.org/2000/svg" xmlns:xlink="http://www.w3.org/1999/xlink">
<g id="graph0" class="graph" transform="scale(1 1) rotate(0) translate(4 1398)">
<title>G</title>
<polygon fill="white" stroke="transparent" points="-4,4 -4,-1398 2613.48,-1398 2613.48,4 -4,4"/>
<text text-anchor="middle" x="1304.74" y="-13.4" font-family="Times,serif" font-size="32.00">decomposition: seemn =to perf, appearn =to perf</text>
<!-- t -->
<g id="node1" class="node">
<title>t</title>
<ellipse fill="lightgray" stroke="black" cx="1755.65" cy="-730" rx="27" ry="30.31"/>
<text text-anchor="middle" x="1755.65" y="-721.9" font-family="Times,serif" font-size="32.00">t</text>
</g>
<!-- c2 -->
<g id="node12" class="node">
<title>c2</title>
<ellipse fill="none" stroke="black" cx="1513.65" cy="-811" rx="33.47" ry="30.31"/>
<text text-anchor="middle" x="1513.65" y="-802.9" font-family="Times,serif" font-size="32.00">c2</text>
</g>
<!-- t&#45;&gt;c2 -->
<g id="edge34" class="edge">
<title>t&#45;&gt;c2</title>
<path fill="none" stroke="#000000" d="M1729.42,-738.52C1687.79,-752.57 1604.37,-780.72 1554.64,-797.51"/>
<polygon fill="#000000" stroke="#000000" points="1553.52,-794.19 1545.16,-800.7 1555.76,-800.82 1553.52,-794.19"/>
<text text-anchor="middle" x="1648.65" y="-822.4" font-family="Times,serif" font-size="32.00">that_1</text>
<text text-anchor="middle" x="1648.65" y="-787.4" font-family="Times,serif" font-size="32.00">=t c2</text>
</g>
<!-- c1 -->
<g id="node16" class="node">
<title>c1</title>
<ellipse fill="none" stroke="black" cx="1224.65" cy="-632" rx="33.47" ry="30.31"/>
<text text-anchor="middle" x="1224.65" y="-623.9" font-family="Times,serif" font-size="32.00">c1</text>
</g>
<!-- t&#45;&gt;c1 -->
<g id="edge33" class="edge">
<title>t&#45;&gt;c1</title>
<path fill="none" stroke="#000000" d="M1728.69,-725.43C1653.92,-712.23 1443.01,-674.76 1436.65,-671 1425.78,-664.57 1429.82,-654.91 1418.65,-649 1371.6,-624.12 1308.99,-623.5 1268.02,-626.66"/>
<polygon fill="#000000" stroke="#000000" points="1267.49,-623.19 1257.83,-627.55 1268.1,-630.16 1267.49,-623.19"/>
<text text-anchor="middle" x="1513.65" y="-745.4" font-family="Times,serif" font-size="32.00">that</text>
<text text-anchor="middle" x="1513.65" y="-710.4" font-family="Times,serif" font-size="32.00">=t =e c1</text>
</g>
<!-- z0 -->
<g id="node2" class="node">
<title>z0</title>
<ellipse fill="none" stroke="black" stroke-dasharray="5,2" cx="2429.48" cy="-1217" rx="27" ry="18"/>
</g>
<!-- d -->
<g id="node3" class="node">
<title>d</title>
<ellipse fill="none" stroke="black" cx="2246.48" cy="-1118" rx="27" ry="30.31"/>
<text text-anchor="middle" x="2246.48" y="-1109.9" font-family="Times,serif" font-size="32.00">d</text>
</g>
<!-- z0&#45;&gt;d -->
<g id="edge1" class="edge">
<title>z0&#45;&gt;d</title>
<path fill="none" stroke="#000000" d="M2402.57,-1219.16C2373.06,-1220.3 2324.65,-1217.96 2291.48,-1195 2277.77,-1185.51 2267.78,-1170.27 2260.83,-1155.85"/>
<polygon fill="#000000" stroke="#000000" points="2263.95,-1154.26 2256.68,-1146.55 2257.56,-1157.11 2263.95,-1154.26"/>
<text text-anchor="middle" x="2337.98" y="-1368.4" font-family="Times,serif" font-size="32.00">Mary |</text>
<text text-anchor="middle" x="2337.98" y="-1333.4" font-family="Times,serif" font-size="32.00"> John |</text>
<text text-anchor="middle" x="2337.98" y="-1298.4" font-family="Times,serif" font-size="32.00"> Alice |</text>
<text text-anchor="middle" x="2337.98" y="-1263.4" font-family="Times,serif" font-size="32.00"> Bob</text>
<text text-anchor="middle" x="2337.98" y="-1228.4" font-family="Times,serif" font-size="32.00">d &#45;k</text>
</g>
<!-- 0 -->
<g id="node6" class="node">
<title>0</title>
<ellipse fill="none" stroke="black" cx="1224.65" cy="-855" rx="27" ry="30.31"/>
<text text-anchor="middle" x="1224.65" y="-846.9" font-family="Times,serif" font-size="32.00">0</text>
</g>
<!-- d&#45;&gt;0 -->
<g id="edge9" class="edge">
<title>d&#45;&gt;0</title>
<path fill="none" stroke="#000000" d="M2238.36,-1147.03C2232.03,-1166.26 2220.72,-1190.22 2201.48,-1203 2136.14,-1246.39 2103.99,-1217 2025.56,-1217 2025.56,-1217 2025.56,-1217 1512.65,-1217 1392.96,-1217 1360.66,-1162.36 1289.65,-1066 1251.84,-1014.68 1236.14,-940.84 1229.78,-895.5"/>
<polygon fill="#000000" stroke="#000000" points="1233.23,-894.9 1228.46,-885.45 1226.29,-895.82 1233.23,-894.9"/>
<text text-anchor="middle" x="1755.65" y="-1366.4" font-family="Times,serif" font-size="32.00">praise |</text>
<text text-anchor="middle" x="1755.65" y="-1331.4" font-family="Times,serif" font-size="32.00"> like |</text>
<text text-anchor="middle" x="1755.65" y="-1296.4" font-family="Times,serif" font-size="32.00"> kiss |</text>
<text text-anchor="middle" x="1755.65" y="-1261.4" font-family="Times,serif" font-size="32.00"> hug</text>
<text text-anchor="middle" x="1755.65" y="-1226.4" font-family="Times,serif" font-size="32.00">=d *k 0</text>
</g>
<!-- pass -->
<g id="node11" class="node">
<title>pass</title>
<ellipse fill="none" stroke="black" cx="2024.56" cy="-730" rx="50.82" ry="30.31"/>
<text text-anchor="middle" x="2024.56" y="-721.9" font-family="Times,serif" font-size="32.00">pass</text>
</g>
<!-- d&#45;&gt;pass -->
<g id="edge10" class="edge">
<title>d&#45;&gt;pass</title>
<path fill="none" stroke="#000000" d="M2233.12,-1091.34C2224.58,-1073.28 2212.77,-1048.98 2201.48,-1028 2149.94,-932.3 2083.38,-823.02 2048.78,-767.16"/>
<polygon fill="#000000" stroke="#000000" points="2051.55,-764.99 2043.3,-758.34 2045.6,-768.68 2051.55,-764.99"/>
<text text-anchor="middle" x="2147.48" y="-1177.4" font-family="Times,serif" font-size="32.00">praisen |</text>
<text text-anchor="middle" x="2147.48" y="-1142.4" font-family="Times,serif" font-size="32.00"> liken |</text>
<text text-anchor="middle" x="2147.48" y="-1107.4" font-family="Times,serif" font-size="32.00"> kissn |</text>
<text text-anchor="middle" x="2147.48" y="-1072.4" font-family="Times,serif" font-size="32.00"> hugn</text>
<text text-anchor="middle" x="2147.48" y="-1037.4" font-family="Times,serif" font-size="32.00">=d pass</text>
</g>
<!-- n -->
<g id="node4" class="node">
<title>n</title>
<ellipse fill="none" stroke="black" cx="2429.48" cy="-1019" rx="27" ry="30.31"/>
<text text-anchor="middle" x="2429.48" y="-1010.9" font-family="Times,serif" font-size="32.00">n</text>
</g>
<!-- n&#45;&gt;d -->
<g id="edge2" class="edge">
<title>n&#45;&gt;d</title>
<path fill="none" stroke="#000000" d="M2403.4,-1010.54C2374.01,-1002.29 2325.07,-993.91 2291.48,-1016 2270.66,-1029.69 2259.64,-1055.55 2253.84,-1077.8"/>
<polygon fill="#000000" stroke="#000000" points="2250.39,-1077.18 2251.53,-1087.71 2257.21,-1078.77 2250.39,-1077.18"/>
<text text-anchor="middle" x="2337.98" y="-1165.4" font-family="Times,serif" font-size="32.00">this |</text>
<text text-anchor="middle" x="2337.98" y="-1130.4" font-family="Times,serif" font-size="32.00"> a |</text>
<text text-anchor="middle" x="2337.98" y="-1095.4" font-family="Times,serif" font-size="32.00"> the |</text>
<text text-anchor="middle" x="2337.98" y="-1060.4" font-family="Times,serif" font-size="32.00"> some</text>
<text text-anchor="middle" x="2337.98" y="-1025.4" font-family="Times,serif" font-size="32.00">=n d &#45;k</text>
</g>
<!-- z1 -->
<g id="node5" class="node">
<title>z1</title>
<ellipse fill="none" stroke="black" stroke-dasharray="5,2" cx="2582.48" cy="-1019" rx="27" ry="18"/>
</g>
<!-- z1&#45;&gt;n -->
<g id="edge3" class="edge">
<title>z1&#45;&gt;n</title>
<path fill="none" stroke="#000000" d="M2555.17,-1019C2530.71,-1019 2494.03,-1019 2466.78,-1019"/>
<polygon fill="#000000" stroke="#000000" points="2466.48,-1015.5 2456.48,-1019 2466.48,-1022.5 2466.48,-1015.5"/>
<text text-anchor="middle" x="2505.98" y="-1098.4" font-family="Times,serif" font-size="32.00">boy |</text>
<text text-anchor="middle" x="2505.98" y="-1063.4" font-family="Times,serif" font-size="32.00"> girl</text>
<text text-anchor="middle" x="2505.98" y="-1028.4" font-family="Times,serif" font-size="32.00">n</text>
</g>
<!-- 0&#45;&gt;t -->
<g id="edge4" class="edge">
<title>0&#45;&gt;t</title>
<path fill="none" stroke="#000000" d="M1234.66,-883.66C1250.68,-934.2 1283.07,-1034.32 1289.65,-1039 1336.38,-1072.22 1373.88,-1074.82 1418.65,-1039 1447.11,-1016.23 1412.5,-986.29 1436.65,-959 1484.82,-904.58 1524.16,-933.33 1590.65,-904 1635.77,-884.1 1653.65,-886.72 1688.65,-852 1712.6,-828.24 1730.11,-793.95 1741.05,-767.77"/>
<polygon fill="#000000" stroke="#000000" points="1744.42,-768.75 1744.92,-758.17 1737.93,-766.13 1744.42,-768.75"/>
<text text-anchor="middle" x="1513.65" y="-1038.4" font-family="Times,serif" font-size="32.00">s |</text>
<text text-anchor="middle" x="1513.65" y="-1003.4" font-family="Times,serif" font-size="32.00"> d</text>
<text text-anchor="middle" x="1513.65" y="-968.4" font-family="Times,serif" font-size="32.00">=&gt;0 =d +k t</text>
</g>
<!-- v -->
<g id="node8" class="node">
<title>v</title>
<ellipse fill="none" stroke="black" cx="629.65" cy="-482" rx="27" ry="30.31"/>
<text text-anchor="middle" x="629.65" y="-473.9" font-family="Times,serif" font-size="32.00">v</text>
</g>
<!-- 0&#45;&gt;v -->
<g id="edge6" class="edge">
<title>0&#45;&gt;v</title>
<path fill="none" stroke="#000000" d="M1198.52,-846.39C1123.94,-820.59 905.15,-743.11 842.65,-701 762.91,-647.28 689.57,-559.5 653.71,-513.06"/>
<polygon fill="#000000" stroke="#000000" points="656.32,-510.71 647.46,-504.89 650.76,-514.96 656.32,-510.71"/>
<text text-anchor="middle" x="910.65" y="-808.4" font-family="Times,serif" font-size="32.00">ε_0</text>
<text text-anchor="middle" x="910.65" y="-773.4" font-family="Times,serif" font-size="32.00">=&gt;0 =d v</text>
</g>
<!-- prog -->
<g id="node9" class="node">
<title>prog</title>
<ellipse fill="none" stroke="black" cx="52.33" cy="-711" rx="52.15" ry="30.31"/>
<text text-anchor="middle" x="52.33" y="-702.9" font-family="Times,serif" font-size="32.00">prog</text>
</g>
<!-- 0&#45;&gt;prog -->
<g id="edge7" class="edge">
<title>0&#45;&gt;prog</title>
<path fill="none" stroke="#000000" d="M1197.32,-853.97C1135.42,-851.52 975.88,-845.02 842.65,-838 711.04,-831.06 677.18,-838.27 546.65,-820 386.32,-797.55 200.73,-750.81 109.65,-726.48"/>
<polygon fill="#000000" stroke="#000000" points="110.38,-723.05 99.82,-723.84 108.57,-729.81 110.38,-723.05"/>
<text text-anchor="middle" x="629.65" y="-878.4" font-family="Times,serif" font-size="32.00">ing</text>
<text text-anchor="middle" x="629.65" y="-843.4" font-family="Times,serif" font-size="32.00">=&gt;0 =d prog</text>
</g>
<!-- perf -->
<g id="node10" class="node">
<title>perf</title>
<ellipse fill="none" stroke="black" cx="910.65" cy="-327" rx="48.17" ry="30.31"/>
<text text-anchor="middle" x="910.65" y="-318.9" font-family="Times,serif" font-size="32.00">perf</text>
</g>
<!-- 0&#45;&gt;perf -->
<g id="edge8" class="edge">
<title>0&#45;&gt;perf</title>
<path fill="none" stroke="#000000" d="M1219.15,-825.12C1212.1,-786.58 1195.37,-719.05 1159.65,-673 1106.24,-604.14 1050.28,-632.69 996.65,-564 950.22,-504.53 927.76,-417.51 918.05,-367.13"/>
<polygon fill="#000000" stroke="#000000" points="921.49,-366.45 916.23,-357.26 914.61,-367.73 921.49,-366.45"/>
<text text-anchor="middle" x="1078.15" y="-717.4" font-family="Times,serif" font-size="32.00">n</text>
<text text-anchor="middle" x="1078.15" y="-682.4" font-family="Times,serif" font-size="32.00">=&gt;0 =d perf</text>
</g>
<!-- z2 -->
<g id="node7" class="node">
<title>z2</title>
<ellipse fill="none" stroke="black" stroke-dasharray="5,2" cx="1513.65" cy="-877" rx="27" ry="18"/>
</g>
<!-- z2&#45;&gt;0 -->
<g id="edge5" class="edge">
<title>z2&#45;&gt;0</title>
<path fill="none" stroke="#000000" d="M1487.19,-872.84C1468.32,-869.91 1441.95,-866.15 1418.65,-864 1364.31,-858.99 1301.08,-856.71 1262.22,-855.72"/>
<polygon fill="#000000" stroke="#000000" points="1262.01,-852.21 1251.93,-855.47 1261.84,-859.21 1262.01,-852.21"/>
<text text-anchor="middle" x="1354.15" y="-1013.4" font-family="Times,serif" font-size="32.00">dance |</text>
<text text-anchor="middle" x="1354.15" y="-978.4" font-family="Times,serif" font-size="32.00"> laugh |</text>
<text text-anchor="middle" x="1354.15" y="-943.4" font-family="Times,serif" font-size="32.00"> smile |</text>
<text text-anchor="middle" x="1354.15" y="-908.4" font-family="Times,serif" font-size="32.00"> jump</text>
<text text-anchor="middle" x="1354.15" y="-873.4" font-family="Times,serif" font-size="32.00">0</text>
</g>
<!-- v&#45;&gt;t -->
<g id="edge12" class="edge">
<title>v&#45;&gt;t</title>
<path fill="none" stroke="#000000" d="M656.74,-477.87C716.62,-468.63 868.59,-446.5 996.65,-439 1260.68,-423.54 1330.48,-427.44 1590.65,-475 1635.21,-483.15 1656.55,-471.04 1688.65,-503 1738.76,-552.87 1751.31,-638.4 1754.17,-689.02"/>
<polygon fill="#000000" stroke="#000000" points="1750.69,-689.44 1754.64,-699.27 1757.68,-689.12 1750.69,-689.44"/>
<text text-anchor="middle" x="1224.65" y="-512.4" font-family="Times,serif" font-size="32.00">wills |</text>
<text text-anchor="middle" x="1224.65" y="-477.4" font-family="Times,serif" font-size="32.00"> willd</text>
<text text-anchor="middle" x="1224.65" y="-442.4" font-family="Times,serif" font-size="32.00">=v +k t</text>
</g>
<!-- to -->
<g id="node13" class="node">
<title>to</title>
<ellipse fill="none" stroke="black" cx="324.65" cy="-591" rx="28.98" ry="30.31"/>
<text text-anchor="middle" x="324.65" y="-582.9" font-family="Times,serif" font-size="32.00">to</text>
</g>
<!-- v&#45;&gt;to -->
<g id="edge32" class="edge">
<title>v&#45;&gt;to</title>
<path fill="none" stroke="#000000" d="M602.48,-480.04C548.2,-476.52 425.66,-471.5 392.65,-495 375.44,-507.26 386.09,-521.23 374.65,-539 368.91,-547.92 361.54,-556.68 354.27,-564.39"/>
<polygon fill="#000000" stroke="#000000" points="351.58,-562.13 347.09,-571.73 356.59,-567.03 351.58,-562.13"/>
<text text-anchor="middle" x="460.65" y="-539.4" font-family="Times,serif" font-size="32.00">to</text>
<text text-anchor="middle" x="460.65" y="-504.4" font-family="Times,serif" font-size="32.00">=v to</text>
</g>
<!-- prog&#45;&gt;t -->
<g id="edge13" class="edge">
<title>prog&#45;&gt;t</title>
<path fill="none" stroke="#000000" d="M58.65,-741.24C76.91,-834.12 145.95,-1109 323.65,-1109 778.65,-1109 778.65,-1109 778.65,-1109 867.76,-1109 890.47,-1110.19 978.65,-1123 986.76,-1124.18 988.51,-1126.11 996.65,-1127 1068.66,-1134.9 1087.24,-1129.27 1159.65,-1127 1351.49,-1121 1412.17,-1170.59 1590.65,-1100 1643.2,-1079.22 1659.01,-1067.11 1688.65,-1019 1737.18,-940.26 1750.1,-829.65 1753.49,-770.72"/>
<polygon fill="#000000" stroke="#000000" points="1756.99,-770.85 1754,-760.68 1750,-770.49 1756.99,-770.85"/>
<text text-anchor="middle" x="910.65" y="-1202.4" font-family="Times,serif" font-size="32.00">bes |</text>
<text text-anchor="middle" x="910.65" y="-1167.4" font-family="Times,serif" font-size="32.00"> bed</text>
<text text-anchor="middle" x="910.65" y="-1132.4" font-family="Times,serif" font-size="32.00">=prog +k t</text>
</g>
<!-- prog&#45;&gt;v -->
<g id="edge14" class="edge">
<title>prog&#45;&gt;v</title>
<path fill="none" stroke="#000000" d="M61.94,-681.08C72.19,-649.8 91.88,-600.79 122.65,-568 175.77,-511.4 199.85,-502.71 274.65,-482 387.14,-450.85 527.57,-465.92 592.56,-475.77"/>
<polygon fill="#000000" stroke="#000000" points="592.27,-479.27 602.7,-477.36 593.36,-472.36 592.27,-479.27"/>
<text text-anchor="middle" x="324.65" y="-526.4" font-family="Times,serif" font-size="32.00">be</text>
<text text-anchor="middle" x="324.65" y="-491.4" font-family="Times,serif" font-size="32.00">=prog v</text>
</g>
<!-- prog&#45;&gt;perf -->
<g id="edge15" class="edge">
<title>prog&#45;&gt;perf</title>
<path fill="none" stroke="#000000" d="M54.19,-680.59C57.2,-632.51 69.94,-538.79 122.65,-484 321.46,-277.36 709.27,-301.5 853.69,-318.91"/>
<polygon fill="#000000" stroke="#000000" points="853.3,-322.39 863.66,-320.15 854.17,-315.44 853.3,-322.39"/>
<text text-anchor="middle" x="460.65" y="-383.4" font-family="Times,serif" font-size="32.00">ben</text>
<text text-anchor="middle" x="460.65" y="-348.4" font-family="Times,serif" font-size="32.00">=prog perf</text>
</g>
<!-- perf&#45;&gt;t -->
<g id="edge29" class="edge">
<title>perf&#45;&gt;t</title>
<path fill="none" stroke="#000000" d="M958.92,-325.09C1067.32,-321.05 1331.23,-313.13 1418.65,-328 1543.92,-349.31 1604.54,-326.76 1688.65,-422 1723.41,-461.36 1743.16,-615.01 1750.86,-689.32"/>
<polygon fill="#000000" stroke="#000000" points="1747.42,-690.08 1751.91,-699.68 1754.39,-689.38 1747.42,-690.08"/>
<text text-anchor="middle" x="1354.15" y="-407.4" font-family="Times,serif" font-size="32.00">haves |</text>
<text text-anchor="middle" x="1354.15" y="-372.4" font-family="Times,serif" font-size="32.00"> haved</text>
<text text-anchor="middle" x="1354.15" y="-337.4" font-family="Times,serif" font-size="32.00">=perf +k t</text>
</g>
<!-- perf&#45;&gt;v -->
<g id="edge30" class="edge">
<title>perf&#45;&gt;v</title>
<path fill="none" stroke="#000000" d="M863.54,-320.32C825.42,-317.1 771.19,-318.01 730.65,-341 689.91,-364.11 661.67,-411.46 645.84,-444.9"/>
<polygon fill="#000000" stroke="#000000" points="642.49,-443.81 641.51,-454.36 648.85,-446.72 642.49,-443.81"/>
<text text-anchor="middle" x="777.65" y="-385.4" font-family="Times,serif" font-size="32.00">have</text>
<text text-anchor="middle" x="777.65" y="-350.4" font-family="Times,serif" font-size="32.00">=perf v</text>
</g>
<!-- pass&#45;&gt;t -->
<g id="edge16" class="edge">
<title>pass&#45;&gt;t</title>
<path fill="none" stroke="#000000" d="M1973.36,-730C1920.82,-730 1839.63,-730 1792.98,-730"/>
<polygon fill="#000000" stroke="#000000" points="1792.73,-726.5 1782.73,-730 1792.73,-733.5 1792.73,-726.5"/>
<text text-anchor="middle" x="1889.15" y="-809.4" font-family="Times,serif" font-size="32.00">bes_1 |</text>
<text text-anchor="middle" x="1889.15" y="-774.4" font-family="Times,serif" font-size="32.00"> bed_1</text>
<text text-anchor="middle" x="1889.15" y="-739.4" font-family="Times,serif" font-size="32.00">=pass +k t</text>
</g>
<!-- pass&#45;&gt;v -->
<g id="edge17" class="edge">
<title>pass&#45;&gt;v</title>
<path fill="none" stroke="#000000" d="M2023.54,-699.28C2022.9,-595.95 2016.09,-262.69 1955.65,-178 1898.5,-97.91 1855.04,-81 1756.65,-81 1756.65,-81 1756.65,-81 909.65,-81 734.8,-81 660.63,-341.08 638.37,-442.33"/>
<polygon fill="#000000" stroke="#000000" points="634.94,-441.68 636.26,-452.19 641.78,-443.14 634.94,-441.68"/>
<text text-anchor="middle" x="1354.15" y="-125.4" font-family="Times,serif" font-size="32.00">be_1</text>
<text text-anchor="middle" x="1354.15" y="-90.4" font-family="Times,serif" font-size="32.00">=pass v</text>
</g>
<!-- pass&#45;&gt;prog -->
<g id="edge19" class="edge">
<title>pass&#45;&gt;prog</title>
<path fill="none" stroke="#000000" d="M2008.7,-758.91C1996.18,-781.85 1976.95,-814.09 1955.65,-839 1714.82,-1120.68 1596.25,-1242 1225.65,-1242 1225.65,-1242 1225.65,-1242 323.65,-1242 103.77,-1242 62.66,-875.94 55.04,-751.69"/>
<polygon fill="#000000" stroke="#000000" points="58.52,-751.24 54.46,-741.46 51.53,-751.64 58.52,-751.24"/>
<text text-anchor="middle" x="1078.15" y="-1286.4" font-family="Times,serif" font-size="32.00">being</text>
<text text-anchor="middle" x="1078.15" y="-1251.4" font-family="Times,serif" font-size="32.00">=pass prog</text>
</g>
<!-- pass&#45;&gt;perf -->
<g id="edge18" class="edge">
<title>pass&#45;&gt;perf</title>
<path fill="none" stroke="#000000" d="M2023.34,-699.28C2020.74,-581.58 1994.7,-166 1756.65,-166 1756.65,-166 1756.65,-166 1223.65,-166 1120.05,-166 1084.06,-163.38 996.65,-219 969.34,-236.38 947.1,-265.67 932.23,-289.37"/>
<polygon fill="#000000" stroke="#000000" points="929.11,-287.77 926.9,-298.14 935.09,-291.41 929.11,-287.77"/>
<text text-anchor="middle" x="1513.65" y="-210.4" font-family="Times,serif" font-size="32.00">ben_1</text>
<text text-anchor="middle" x="1513.65" y="-175.4" font-family="Times,serif" font-size="32.00">=pass perf</text>
</g>
<!-- c2&#45;&gt;0 -->
<g id="edge11" class="edge">
<title>c2&#45;&gt;0</title>
<path fill="none" stroke="#000000" d="M1482.43,-800.56C1466.44,-793.51 1447.86,-782.6 1436.65,-767 1413.11,-734.22 1449.89,-703.55 1418.65,-678 1374.27,-641.7 1336.58,-645.07 1289.65,-678 1246.01,-708.63 1232,-772.12 1227.58,-814.14"/>
<polygon fill="#000000" stroke="#000000" points="1224.07,-814.05 1226.65,-824.33 1231.04,-814.69 1224.07,-814.05"/>
<text text-anchor="middle" x="1354.15" y="-827.4" font-family="Times,serif" font-size="32.00">declare |</text>
<text text-anchor="middle" x="1354.15" y="-792.4" font-family="Times,serif" font-size="32.00"> think |</text>
<text text-anchor="middle" x="1354.15" y="-757.4" font-family="Times,serif" font-size="32.00"> explain |</text>
<text text-anchor="middle" x="1354.15" y="-722.4" font-family="Times,serif" font-size="32.00"> say</text>
<text text-anchor="middle" x="1354.15" y="-687.4" font-family="Times,serif" font-size="32.00">=c2 0</text>
</g>
<!-- to&#45;&gt;t -->
<g id="edge20" class="edge">
<title>to&#45;&gt;t</title>
<path fill="none" stroke="#000000" d="M335.54,-619.56C359.73,-684.5 428.7,-842.64 546.65,-908 785.57,-1040.38 907.16,-847.8 1159.65,-952 1230.15,-981.09 1218.16,-1037.45 1289.65,-1064 1415.06,-1110.57 1475.24,-1131.65 1590.65,-1064 1697.91,-1001.14 1736.58,-844.03 1749.18,-769.91"/>
<polygon fill="#000000" stroke="#000000" points="1752.64,-770.45 1750.79,-760.02 1745.73,-769.33 1752.64,-770.45"/>
<text text-anchor="middle" x="1078.15" y="-1101.4" font-family="Times,serif" font-size="32.00">seems |</text>
<text text-anchor="middle" x="1078.15" y="-1066.4" font-family="Times,serif" font-size="32.00"> seemd |</text>
<text text-anchor="middle" x="1078.15" y="-1031.4" font-family="Times,serif" font-size="32.00"> appears |</text>
<text text-anchor="middle" x="1078.15" y="-996.4" font-family="Times,serif" font-size="32.00"> appeard</text>
<text text-anchor="middle" x="1078.15" y="-961.4" font-family="Times,serif" font-size="32.00">=to +k t</text>
</g>
<!-- to&#45;&gt;v -->
<g id="edge21" class="edge">
<title>to&#45;&gt;v</title>
<path fill="none" stroke="#000000" d="M353.78,-590.02C401.94,-588.01 497.95,-582.41 528.65,-569 558.06,-556.15 585.11,-531.47 603.64,-511.67"/>
<polygon fill="#000000" stroke="#000000" points="606.41,-513.84 610.56,-504.09 601.23,-509.12 606.41,-513.84"/>
<text text-anchor="middle" x="460.65" y="-667.4" font-family="Times,serif" font-size="32.00">seem |</text>
<text text-anchor="middle" x="460.65" y="-632.4" font-family="Times,serif" font-size="32.00"> appear</text>
<text text-anchor="middle" x="460.65" y="-597.4" font-family="Times,serif" font-size="32.00">=to v</text>
</g>
<!-- to&#45;&gt;prog -->
<g id="edge24" class="edge">
<title>to&#45;&gt;prog</title>
<path fill="none" stroke="#000000" d="M296.42,-583.15C255.6,-573.05 177.49,-560.3 122.65,-592 93.34,-608.94 75.24,-643.56 64.92,-671.1"/>
<polygon fill="#000000" stroke="#000000" points="61.5,-670.29 61.47,-680.89 68.1,-672.62 61.5,-670.29"/>
<text text-anchor="middle" x="189.65" y="-671.4" font-family="Times,serif" font-size="32.00">seeming |</text>
<text text-anchor="middle" x="189.65" y="-636.4" font-family="Times,serif" font-size="32.00"> appearing</text>
<text text-anchor="middle" x="189.65" y="-601.4" font-family="Times,serif" font-size="32.00">=to prog</text>
</g>
<!-- 1 -->
<g id="node14" class="node">
<title>1</title>
<ellipse fill="none" stroke="black" cx="1224.65" cy="-233" rx="27" ry="30.31"/>
<text text-anchor="middle" x="1224.65" y="-224.9" font-family="Times,serif" font-size="32.00">1</text>
</g>
<!-- 1&#45;&gt;perf -->
<g id="edge22" class="edge">
<title>1&#45;&gt;perf</title>
<path fill="none" stroke="#f7931d" stroke-width="2" d="M1197.8,-228.35C1154.22,-221.75 1064.25,-213.48 996.65,-243 973.07,-253.3 952.39,-273.33 937.34,-291.25"/>
<polygon fill="#f7931d" stroke="#f7931d" stroke-width="2" points="934.4,-289.32 930.82,-299.29 939.84,-293.72 934.4,-289.32"/>
<text text-anchor="middle" x="1078.15" y="-287.4" font-family="Times,serif" font-size="32.00">n_1</text>
<text text-anchor="middle" x="1078.15" y="-252.4" font-family="Times,serif" font-size="32.00">=&gt;1 =to perf</text>
</g>
<!-- z3 -->
<g id="node15" class="node">
<title>z3</title>
<ellipse fill="none" stroke="black" stroke-dasharray="5,2" cx="1513.65" cy="-272" rx="27" ry="18"/>
</g>
<!-- z3&#45;&gt;1 -->
<g id="edge23" class="edge">
<title>z3&#45;&gt;1</title>
<path fill="none" stroke="#f7931d" stroke-width="2" d="M1487.75,-266.56C1471.47,-261.9 1450.69,-253.7 1436.65,-240 1422.7,-226.38 1435.02,-210.59 1418.65,-200 1370.51,-168.87 1345.37,-186.48 1289.65,-200 1278.49,-202.71 1267.1,-207.72 1257.08,-213.04"/>
<polygon fill="#f7931d" stroke="#f7931d" stroke-width="2" points="1255.32,-210.01 1248.3,-217.95 1258.74,-216.12 1255.32,-210.01"/>
<text text-anchor="middle" x="1354.15" y="-279.4" font-family="Times,serif" font-size="32.00">seem_1 |</text>
<text text-anchor="middle" x="1354.15" y="-244.4" font-family="Times,serif" font-size="32.00"> appear_1</text>
<text text-anchor="middle" x="1354.15" y="-209.4" font-family="Times,serif" font-size="32.00">1</text>
</g>
<!-- c1&#45;&gt;t -->
<g id="edge25" class="edge">
<title>c1&#45;&gt;t</title>
<path fill="none" stroke="#000000" d="M1248.7,-610.34C1307.6,-557.72 1467.67,-432.01 1590.65,-496 1670.36,-537.47 1719.38,-637.4 1741.23,-692.3"/>
<polygon fill="#000000" stroke="#000000" points="1737.99,-693.63 1744.87,-701.68 1744.51,-691.09 1737.99,-693.63"/>
<text text-anchor="middle" x="1513.65" y="-645.4" font-family="Times,serif" font-size="32.00">seems_1 |</text>
<text text-anchor="middle" x="1513.65" y="-610.4" font-family="Times,serif" font-size="32.00"> seemd_1 |</text>
<text text-anchor="middle" x="1513.65" y="-575.4" font-family="Times,serif" font-size="32.00"> appears_1 |</text>
<text text-anchor="middle" x="1513.65" y="-540.4" font-family="Times,serif" font-size="32.00"> appeard_1</text>
<text text-anchor="middle" x="1513.65" y="-505.4" font-family="Times,serif" font-size="32.00">=c1 +k t</text>
</g>
<!-- c1&#45;&gt;v -->
<g id="edge26" class="edge">
<title>c1&#45;&gt;v</title>
<path fill="none" stroke="#000000" d="M1195.18,-646.6C1148.58,-668.22 1055.34,-701.65 996.65,-657 972.79,-638.85 999.46,-613.57 978.65,-592 893.29,-503.51 737.4,-485.97 666.94,-482.66"/>
<polygon fill="#000000" stroke="#000000" points="666.92,-479.16 656.79,-482.26 666.64,-486.15 666.92,-479.16"/>
<text text-anchor="middle" x="910.65" y="-671.4" font-family="Times,serif" font-size="32.00">seem_2 |</text>
<text text-anchor="middle" x="910.65" y="-636.4" font-family="Times,serif" font-size="32.00"> appear_2</text>
<text text-anchor="middle" x="910.65" y="-601.4" font-family="Times,serif" font-size="32.00">=c1 v</text>
</g>
<!-- c1&#45;&gt;prog -->
<g id="edge28" class="edge">
<title>c1&#45;&gt;prog</title>
<path fill="none" stroke="#000000" d="M1201.99,-654.36C1190.45,-664.86 1175.4,-676.48 1159.65,-683 1057.17,-725.44 1022.57,-711 911.65,-711 911.65,-711 911.65,-711 323.65,-711 252.12,-711 169.93,-711 115.14,-711"/>
<polygon fill="#000000" stroke="#000000" points="114.9,-707.5 104.9,-711 114.9,-714.5 114.9,-707.5"/>
<text text-anchor="middle" x="629.65" y="-790.4" font-family="Times,serif" font-size="32.00">seeming_1 |</text>
<text text-anchor="middle" x="629.65" y="-755.4" font-family="Times,serif" font-size="32.00"> appearing_1</text>
<text text-anchor="middle" x="629.65" y="-720.4" font-family="Times,serif" font-size="32.00">=c1 prog</text>
</g>
<!-- c1&#45;&gt;perf -->
<g id="edge27" class="edge">
<title>c1&#45;&gt;perf</title>
<path fill="none" stroke="#000000" d="M1207.88,-605.64C1197.98,-588.12 1185.62,-564.31 1177.65,-542 1164.96,-506.45 1182.42,-489.1 1159.65,-459 1111.25,-395.02 1022.67,-358.76 965.52,-341.02"/>
<polygon fill="#000000" stroke="#000000" points="966.51,-337.66 955.93,-338.12 964.49,-344.36 966.51,-337.66"/>
<text text-anchor="middle" x="1078.15" y="-538.4" font-family="Times,serif" font-size="32.00">seemn |</text>
<text text-anchor="middle" x="1078.15" y="-503.4" font-family="Times,serif" font-size="32.00"> appearn</text>
<text text-anchor="middle" x="1078.15" y="-468.4" font-family="Times,serif" font-size="32.00">=c1 perf</text>
</g>
<!-- z4 -->
<g id="node17" class="node">
<title>z4</title>
<ellipse fill="none" stroke="black" stroke-dasharray="5,2" cx="2582.48" cy="-1283" rx="27" ry="18"/>
</g>
<!-- e -->
<g id="node18" class="node">
<title>e</title>
<ellipse fill="none" stroke="black" cx="2429.48" cy="-1283" rx="27" ry="30.31"/>
<text text-anchor="middle" x="2429.48" y="-1274.9" font-family="Times,serif" font-size="32.00">e</text>
</g>
<!-- z4&#45;&gt;e -->
<g id="edge31" class="edge">
<title>z4&#45;&gt;e</title>
<path fill="none" stroke="#000000" d="M2555.17,-1283C2530.71,-1283 2494.03,-1283 2466.78,-1283"/>
<polygon fill="#000000" stroke="#000000" points="2466.48,-1279.5 2456.48,-1283 2466.48,-1286.5 2466.48,-1279.5"/>
<text text-anchor="middle" x="2505.98" y="-1327.4" font-family="Times,serif" font-size="32.00">it</text>
<text text-anchor="middle" x="2505.98" y="-1292.4" font-family="Times,serif" font-size="32.00">e &#45;k</text>
</g>
</g>
</svg>
