<?xml version="1.0" encoding="UTF-8" standalone="no"?>
<!DOCTYPE svg PUBLIC "-//W3C//DTD SVG 1.1//EN"
 "http://www.w3.org/Graphics/SVG/1.1/DTD/svg11.dtd">
<!-- Generated by graphviz version 2.47.1 (20210417.1919)
 -->
<!-- Title: G Pages: 1 -->
<svg width="2597pt" height="1929pt"
 viewBox="0.00 0.00 2596.81 1929.00" xmlns="http://www.w3.org/2000/svg" xmlns:xlink="http://www.w3.org/1999/xlink">
<g id="graph0" class="graph" transform="scale(1 1) rotate(0) translate(4 1925)">
<title>G</title>
<polygon fill="white" stroke="transparent" points="-4,4 -4,-1925 2592.81,-1925 2592.81,4 -4,4"/>
<text text-anchor="middle" x="1294.4" y="-48.4" font-family="Times,serif" font-size="32.00">decomposition: appears =to +k t, appears =c1 +k t, appeard =to +k t, appeard =c1 +k t, appear =to v, appearing =to prog, appearing =c1 prog, appear 1, appear =c1 v, appearn =c1 perf</text>
<text text-anchor="middle" x="1294.4" y="-13.4" font-family="Times,serif" font-size="32.00">decomposition: seems =to +k t, seems =c1 +k t, seemd =to +k t, seemd =c1 +k t, seem =to v, seeming =to prog, seeming =c1 prog, seem 1, seem =c1 v, seemn =c1 perf</text>
<!-- t -->
<g id="node1" class="node">
<title>t</title>
<ellipse fill="lightgray" stroke="black" cx="1699.98" cy="-831" rx="27" ry="30.31"/>
<text text-anchor="middle" x="1699.98" y="-822.9" font-family="Times,serif" font-size="32.00">t</text>
</g>
<!-- c2 -->
<g id="node12" class="node">
<title>c2</title>
<ellipse fill="none" stroke="black" cx="1421.48" cy="-1008" rx="33.47" ry="30.31"/>
<text text-anchor="middle" x="1421.48" y="-999.9" font-family="Times,serif" font-size="32.00">c2</text>
</g>
<!-- t&#45;&gt;c2 -->
<g id="edge44" class="edge">
<title>t&#45;&gt;c2</title>
<path fill="none" stroke="#000000" d="M1677.14,-847.81C1642.49,-874.13 1572.33,-925.97 1508.98,-964 1493.55,-973.26 1475.94,-982.46 1460.65,-990.03"/>
<polygon fill="#000000" stroke="#000000" points="1458.91,-986.98 1451.47,-994.52 1461.99,-993.27 1458.91,-986.98"/>
<text text-anchor="middle" x="1579.98" y="-995.4" font-family="Times,serif" font-size="32.00">that_1</text>
<text text-anchor="middle" x="1579.98" y="-960.4" font-family="Times,serif" font-size="32.00">=t c2</text>
</g>
<!-- c1 -->
<g id="node21" class="node">
<title>c1</title>
<ellipse fill="none" stroke="black" cx="1421.48" cy="-789" rx="33.47" ry="30.31"/>
<text text-anchor="middle" x="1421.48" y="-780.9" font-family="Times,serif" font-size="32.00">c1</text>
</g>
<!-- t&#45;&gt;c1 -->
<g id="edge43" class="edge">
<title>t&#45;&gt;c1</title>
<path fill="none" stroke="#000000" d="M1681.76,-808.51C1669.77,-794.81 1652.48,-778.54 1632.98,-771 1576.81,-749.28 1506.09,-762.83 1462.6,-775.34"/>
<polygon fill="#000000" stroke="#000000" points="1461.53,-772.01 1452.95,-778.23 1463.53,-778.71 1461.53,-772.01"/>
<text text-anchor="middle" x="1579.98" y="-815.4" font-family="Times,serif" font-size="32.00">that</text>
<text text-anchor="middle" x="1579.98" y="-780.4" font-family="Times,serif" font-size="32.00">=t =e c1</text>
</g>
<!-- z0 -->
<g id="node2" class="node">
<title>z0</title>
<ellipse fill="none" stroke="black" stroke-dasharray="5,2" cx="2408.81" cy="-1281" rx="27" ry="18"/>
</g>
<!-- d -->
<g id="node3" class="node">
<title>d</title>
<ellipse fill="none" stroke="black" cx="2225.81" cy="-1182" rx="27" ry="30.31"/>
<text text-anchor="middle" x="2225.81" y="-1173.9" font-family="Times,serif" font-size="32.00">d</text>
</g>
<!-- z0&#45;&gt;d -->
<g id="edge1" class="edge">
<title>z0&#45;&gt;d</title>
<path fill="none" stroke="#000000" d="M2381.9,-1283.16C2352.4,-1284.3 2303.98,-1281.96 2270.81,-1259 2257.1,-1249.51 2247.11,-1234.27 2240.16,-1219.85"/>
<polygon fill="#000000" stroke="#000000" points="2243.28,-1218.26 2236.01,-1210.55 2236.89,-1221.11 2243.28,-1218.26"/>
<text text-anchor="middle" x="2317.31" y="-1432.4" font-family="Times,serif" font-size="32.00">Mary |</text>
<text text-anchor="middle" x="2317.31" y="-1397.4" font-family="Times,serif" font-size="32.00"> John |</text>
<text text-anchor="middle" x="2317.31" y="-1362.4" font-family="Times,serif" font-size="32.00"> Alice |</text>
<text text-anchor="middle" x="2317.31" y="-1327.4" font-family="Times,serif" font-size="32.00"> Bob</text>
<text text-anchor="middle" x="2317.31" y="-1292.4" font-family="Times,serif" font-size="32.00">d &#45;k</text>
</g>
<!-- 0 -->
<g id="node6" class="node">
<title>0</title>
<ellipse fill="none" stroke="black" cx="1048.48" cy="-1030" rx="27" ry="30.31"/>
<text text-anchor="middle" x="1048.48" y="-1021.9" font-family="Times,serif" font-size="32.00">0</text>
</g>
<!-- d&#45;&gt;0 -->
<g id="edge9" class="edge">
<title>d&#45;&gt;0</title>
<path fill="none" stroke="#000000" d="M2200.19,-1171.69C2150.93,-1151.68 2036.23,-1108.19 1934.98,-1093 1861.14,-1081.92 1841.08,-1083.82 1766.98,-1093 1570.04,-1117.41 1479.86,-1067.46 1333.98,-1202 1315.7,-1218.87 1336.21,-1240.51 1315.98,-1255 1285.63,-1276.74 1179.23,-1275.43 1147.98,-1255 1147.85,-1254.91 1093.25,-1130.09 1065.41,-1066.42"/>
<polygon fill="#000000" stroke="#000000" points="1068.56,-1064.89 1061.34,-1057.13 1062.14,-1067.69 1068.56,-1064.89"/>
<text text-anchor="middle" x="1699.98" y="-1251.4" font-family="Times,serif" font-size="32.00">praise |</text>
<text text-anchor="middle" x="1699.98" y="-1216.4" font-family="Times,serif" font-size="32.00"> like |</text>
<text text-anchor="middle" x="1699.98" y="-1181.4" font-family="Times,serif" font-size="32.00"> kiss |</text>
<text text-anchor="middle" x="1699.98" y="-1146.4" font-family="Times,serif" font-size="32.00"> hug</text>
<text text-anchor="middle" x="1699.98" y="-1111.4" font-family="Times,serif" font-size="32.00">=d *k 0</text>
</g>
<!-- pass -->
<g id="node11" class="node">
<title>pass</title>
<ellipse fill="none" stroke="black" cx="2003.89" cy="-1460" rx="50.82" ry="30.31"/>
<text text-anchor="middle" x="2003.89" y="-1451.9" font-family="Times,serif" font-size="32.00">pass</text>
</g>
<!-- d&#45;&gt;pass -->
<g id="edge10" class="edge">
<title>d&#45;&gt;pass</title>
<path fill="none" stroke="#000000" d="M2207.18,-1204.28C2169.2,-1252.3 2079.34,-1365.89 2033.24,-1424.16"/>
<polygon fill="#000000" stroke="#000000" points="2030.23,-1422.33 2026.77,-1432.34 2035.72,-1426.67 2030.23,-1422.33"/>
<text text-anchor="middle" x="2126.81" y="-1519.4" font-family="Times,serif" font-size="32.00">praisen |</text>
<text text-anchor="middle" x="2126.81" y="-1484.4" font-family="Times,serif" font-size="32.00"> liken |</text>
<text text-anchor="middle" x="2126.81" y="-1449.4" font-family="Times,serif" font-size="32.00"> kissn |</text>
<text text-anchor="middle" x="2126.81" y="-1414.4" font-family="Times,serif" font-size="32.00"> hugn</text>
<text text-anchor="middle" x="2126.81" y="-1379.4" font-family="Times,serif" font-size="32.00">=d pass</text>
</g>
<!-- n -->
<g id="node4" class="node">
<title>n</title>
<ellipse fill="none" stroke="black" cx="2408.81" cy="-1083" rx="27" ry="30.31"/>
<text text-anchor="middle" x="2408.81" y="-1074.9" font-family="Times,serif" font-size="32.00">n</text>
</g>
<!-- n&#45;&gt;d -->
<g id="edge2" class="edge">
<title>n&#45;&gt;d</title>
<path fill="none" stroke="#000000" d="M2382.73,-1074.54C2353.34,-1066.29 2304.4,-1057.91 2270.81,-1080 2249.99,-1093.69 2238.97,-1119.55 2233.17,-1141.8"/>
<polygon fill="#000000" stroke="#000000" points="2229.72,-1141.18 2230.86,-1151.71 2236.54,-1142.77 2229.72,-1141.18"/>
<text text-anchor="middle" x="2317.31" y="-1229.4" font-family="Times,serif" font-size="32.00">this |</text>
<text text-anchor="middle" x="2317.31" y="-1194.4" font-family="Times,serif" font-size="32.00"> a |</text>
<text text-anchor="middle" x="2317.31" y="-1159.4" font-family="Times,serif" font-size="32.00"> the |</text>
<text text-anchor="middle" x="2317.31" y="-1124.4" font-family="Times,serif" font-size="32.00"> some</text>
<text text-anchor="middle" x="2317.31" y="-1089.4" font-family="Times,serif" font-size="32.00">=n d &#45;k</text>
</g>
<!-- z1 -->
<g id="node5" class="node">
<title>z1</title>
<ellipse fill="none" stroke="black" stroke-dasharray="5,2" cx="2561.81" cy="-1083" rx="27" ry="18"/>
</g>
<!-- z1&#45;&gt;n -->
<g id="edge3" class="edge">
<title>z1&#45;&gt;n</title>
<path fill="none" stroke="#000000" d="M2534.5,-1083C2510.04,-1083 2473.36,-1083 2446.11,-1083"/>
<polygon fill="#000000" stroke="#000000" points="2445.81,-1079.5 2435.81,-1083 2445.81,-1086.5 2445.81,-1079.5"/>
<text text-anchor="middle" x="2485.31" y="-1162.4" font-family="Times,serif" font-size="32.00">boy |</text>
<text text-anchor="middle" x="2485.31" y="-1127.4" font-family="Times,serif" font-size="32.00"> girl</text>
<text text-anchor="middle" x="2485.31" y="-1092.4" font-family="Times,serif" font-size="32.00">n</text>
</g>
<!-- 0&#45;&gt;t -->
<g id="edge4" class="edge">
<title>0&#45;&gt;t</title>
<path fill="none" stroke="#000000" d="M1057.31,-1001.06C1069.52,-962.22 1097.15,-894.56 1147.98,-864 1240.45,-808.4 1525.61,-851.65 1632.98,-841 1642.72,-840.03 1653.22,-838.62 1662.91,-837.15"/>
<polygon fill="#000000" stroke="#000000" points="1663.71,-840.57 1673.04,-835.56 1662.62,-833.65 1663.71,-840.57"/>
<text text-anchor="middle" x="1421.48" y="-920.4" font-family="Times,serif" font-size="32.00">s |</text>
<text text-anchor="middle" x="1421.48" y="-885.4" font-family="Times,serif" font-size="32.00"> d</text>
<text text-anchor="middle" x="1421.48" y="-850.4" font-family="Times,serif" font-size="32.00">=&gt;0 =d +k t</text>
</g>
<!-- v -->
<g id="node8" class="node">
<title>v</title>
<ellipse fill="none" stroke="black" cx="187.98" cy="-1385" rx="27" ry="30.31"/>
<text text-anchor="middle" x="187.98" y="-1376.9" font-family="Times,serif" font-size="32.00">v</text>
</g>
<!-- 0&#45;&gt;v -->
<g id="edge6" class="edge">
<title>0&#45;&gt;v</title>
<path fill="none" stroke="#000000" d="M1026.44,-1047.74C1007.06,-1063.59 977.13,-1086.9 948.98,-1104 736.62,-1233.03 682.41,-1272.71 444.98,-1346 368.78,-1369.52 275.27,-1379.17 225.03,-1382.88"/>
<polygon fill="#000000" stroke="#000000" points="224.71,-1379.39 214.98,-1383.58 225.2,-1386.38 224.71,-1379.39"/>
<text text-anchor="middle" x="530.98" y="-1383.4" font-family="Times,serif" font-size="32.00">ε_0</text>
<text text-anchor="middle" x="530.98" y="-1348.4" font-family="Times,serif" font-size="32.00">=&gt;0 =d v</text>
</g>
<!-- prog -->
<g id="node9" class="node">
<title>prog</title>
<ellipse fill="none" stroke="black" cx="693.98" cy="-1030" rx="52.15" ry="30.31"/>
<text text-anchor="middle" x="693.98" y="-1021.9" font-family="Times,serif" font-size="32.00">prog</text>
</g>
<!-- 0&#45;&gt;prog -->
<g id="edge7" class="edge">
<title>0&#45;&gt;prog</title>
<path fill="none" stroke="#000000" d="M1021.28,-1030C965.69,-1030 834.7,-1030 756.64,-1030"/>
<polygon fill="#000000" stroke="#000000" points="756.45,-1026.5 746.45,-1030 756.45,-1033.5 756.45,-1026.5"/>
<text text-anchor="middle" x="868.98" y="-1074.4" font-family="Times,serif" font-size="32.00">ing</text>
<text text-anchor="middle" x="868.98" y="-1039.4" font-family="Times,serif" font-size="32.00">=&gt;0 =d prog</text>
</g>
<!-- perf -->
<g id="node10" class="node">
<title>perf</title>
<ellipse fill="none" stroke="black" cx="394.98" cy="-673" rx="48.17" ry="30.31"/>
<text text-anchor="middle" x="394.98" y="-664.9" font-family="Times,serif" font-size="32.00">perf</text>
</g>
<!-- 0&#45;&gt;perf -->
<g id="edge8" class="edge">
<title>0&#45;&gt;perf</title>
<path fill="none" stroke="#000000" d="M1023.91,-1017.08C928.32,-964.7 568.63,-767.61 441.13,-697.74"/>
<polygon fill="#000000" stroke="#000000" points="442.46,-694.48 432.01,-692.74 439.09,-700.62 442.46,-694.48"/>
<text text-anchor="middle" x="693.98" y="-920.4" font-family="Times,serif" font-size="32.00">n</text>
<text text-anchor="middle" x="693.98" y="-885.4" font-family="Times,serif" font-size="32.00">=&gt;0 =d perf</text>
</g>
<!-- z2 -->
<g id="node7" class="node">
<title>z2</title>
<ellipse fill="none" stroke="black" stroke-dasharray="5,2" cx="1421.48" cy="-1080" rx="27" ry="18"/>
</g>
<!-- z2&#45;&gt;0 -->
<g id="edge5" class="edge">
<title>z2&#45;&gt;0</title>
<path fill="none" stroke="#000000" d="M1394.34,-1079.59C1345.54,-1078.45 1237.43,-1074.16 1147.98,-1058 1126.48,-1054.11 1102.92,-1047.51 1084.23,-1041.68"/>
<polygon fill="#000000" stroke="#000000" points="1085.26,-1038.34 1074.67,-1038.64 1083.14,-1045.01 1085.26,-1038.34"/>
<text text-anchor="middle" x="1231.98" y="-1225.4" font-family="Times,serif" font-size="32.00">dance |</text>
<text text-anchor="middle" x="1231.98" y="-1190.4" font-family="Times,serif" font-size="32.00"> laugh |</text>
<text text-anchor="middle" x="1231.98" y="-1155.4" font-family="Times,serif" font-size="32.00"> smile |</text>
<text text-anchor="middle" x="1231.98" y="-1120.4" font-family="Times,serif" font-size="32.00"> jump</text>
<text text-anchor="middle" x="1231.98" y="-1085.4" font-family="Times,serif" font-size="32.00">0</text>
</g>
<!-- v&#45;&gt;t -->
<g id="edge12" class="edge">
<title>v&#45;&gt;t</title>
<path fill="none" stroke="#000000" d="M215.02,-1388.68C220.93,-1389.48 227.17,-1390.29 232.98,-1391 294.05,-1398.43 1272.55,-1505.72 1333.98,-1509 1411.65,-1513.15 1447.01,-1555.99 1508.98,-1509 1561.84,-1468.92 1661.66,-1009.35 1690.8,-870.49"/>
<polygon fill="#000000" stroke="#000000" points="1694.23,-871.19 1692.86,-860.68 1687.38,-869.75 1694.23,-871.19"/>
<text text-anchor="middle" x="868.98" y="-1547.4" font-family="Times,serif" font-size="32.00">wills |</text>
<text text-anchor="middle" x="868.98" y="-1512.4" font-family="Times,serif" font-size="32.00"> willd</text>
<text text-anchor="middle" x="868.98" y="-1477.4" font-family="Times,serif" font-size="32.00">=v +k t</text>
</g>
<!-- to -->
<g id="node20" class="node">
<title>to</title>
<ellipse fill="none" stroke="black" cx="28.99" cy="-1385" rx="28.98" ry="30.31"/>
<text text-anchor="middle" x="28.99" y="-1376.9" font-family="Times,serif" font-size="32.00">to</text>
</g>
<!-- v&#45;&gt;to -->
<g id="edge42" class="edge">
<title>v&#45;&gt;to</title>
<path fill="none" stroke="#000000" d="M160.71,-1385C135.44,-1385 96.96,-1385 68.29,-1385"/>
<polygon fill="#000000" stroke="#000000" points="68.21,-1381.5 58.21,-1385 68.21,-1388.5 68.21,-1381.5"/>
<text text-anchor="middle" x="109.48" y="-1429.4" font-family="Times,serif" font-size="32.00">to</text>
<text text-anchor="middle" x="109.48" y="-1394.4" font-family="Times,serif" font-size="32.00">=v to</text>
</g>
<!-- prog&#45;&gt;t -->
<g id="edge13" class="edge">
<title>prog&#45;&gt;t</title>
<path fill="none" stroke="#000000" d="M734.34,-1010.46C814.5,-969.47 1000.07,-868.46 1129.98,-750 1139.57,-741.25 1136.31,-732.69 1147.98,-727 1196.51,-703.35 1584.86,-731.54 1632.98,-756 1651.38,-765.35 1666.93,-782.21 1678.31,-797.57"/>
<polygon fill="#000000" stroke="#000000" points="1675.56,-799.75 1684.19,-805.9 1681.28,-795.71 1675.56,-799.75"/>
<text text-anchor="middle" x="1231.98" y="-806.4" font-family="Times,serif" font-size="32.00">bes |</text>
<text text-anchor="middle" x="1231.98" y="-771.4" font-family="Times,serif" font-size="32.00"> bed</text>
<text text-anchor="middle" x="1231.98" y="-736.4" font-family="Times,serif" font-size="32.00">=prog +k t</text>
</g>
<!-- prog&#45;&gt;v -->
<g id="edge14" class="edge">
<title>prog&#45;&gt;v</title>
<path fill="none" stroke="#000000" d="M659.91,-1053.29C567.72,-1118.23 308.76,-1300.64 219.6,-1363.44"/>
<polygon fill="#000000" stroke="#000000" points="217.43,-1360.68 211.27,-1369.3 221.46,-1366.41 217.43,-1360.68"/>
<text text-anchor="middle" x="394.98" y="-1316.4" font-family="Times,serif" font-size="32.00">be</text>
<text text-anchor="middle" x="394.98" y="-1281.4" font-family="Times,serif" font-size="32.00">=prog v</text>
</g>
<!-- prog&#45;&gt;perf -->
<g id="edge15" class="edge">
<title>prog&#45;&gt;perf</title>
<path fill="none" stroke="#000000" d="M653.09,-1010.95C602.08,-984.67 514.26,-932.65 462.98,-864 429.06,-818.58 411.28,-754.55 402.78,-713.41"/>
<polygon fill="#000000" stroke="#000000" points="406.18,-712.6 400.81,-703.47 399.32,-713.96 406.18,-712.6"/>
<text text-anchor="middle" x="530.98" y="-1022.4" font-family="Times,serif" font-size="32.00">ben</text>
<text text-anchor="middle" x="530.98" y="-987.4" font-family="Times,serif" font-size="32.00">=prog perf</text>
</g>
<!-- perf&#45;&gt;t -->
<g id="edge39" class="edge">
<title>perf&#45;&gt;t</title>
<path fill="none" stroke="#000000" d="M442.03,-666.72C557.84,-651.86 870.52,-617.47 1129.98,-641 1186.57,-646.13 1585.44,-701.89 1632.98,-733 1655.56,-747.78 1672.36,-773.24 1683.36,-794.51"/>
<polygon fill="#000000" stroke="#000000" points="1680.3,-796.21 1687.86,-803.63 1686.57,-793.11 1680.3,-796.21"/>
<text text-anchor="middle" x="1048.48" y="-720.4" font-family="Times,serif" font-size="32.00">haves |</text>
<text text-anchor="middle" x="1048.48" y="-685.4" font-family="Times,serif" font-size="32.00"> haved</text>
<text text-anchor="middle" x="1048.48" y="-650.4" font-family="Times,serif" font-size="32.00">=perf +k t</text>
</g>
<!-- perf&#45;&gt;v -->
<g id="edge40" class="edge">
<title>perf&#45;&gt;v</title>
<path fill="none" stroke="#000000" d="M376.35,-701.18C342.31,-757.1 267.8,-887.07 232.98,-1007 198.38,-1126.19 190.87,-1274 189.32,-1344.25"/>
<polygon fill="#000000" stroke="#000000" points="185.82,-1344.37 189.13,-1354.44 192.82,-1344.5 185.82,-1344.37"/>
<text text-anchor="middle" x="279.98" y="-1051.4" font-family="Times,serif" font-size="32.00">have</text>
<text text-anchor="middle" x="279.98" y="-1016.4" font-family="Times,serif" font-size="32.00">=perf v</text>
</g>
<!-- pass&#45;&gt;t -->
<g id="edge16" class="edge">
<title>pass&#45;&gt;t</title>
<path fill="none" stroke="#000000" d="M1986.71,-1430.98C1973.12,-1406.79 1953.08,-1371.47 1934.98,-1341 1862.43,-1218.83 1823.87,-1199.2 1766.98,-1069 1737.8,-1002.19 1718.26,-919.14 1708.44,-870.9"/>
<polygon fill="#000000" stroke="#000000" points="1711.82,-869.98 1706.43,-860.86 1704.96,-871.35 1711.82,-869.98"/>
<text text-anchor="middle" x="1850.98" y="-1420.4" font-family="Times,serif" font-size="32.00">bes_1 |</text>
<text text-anchor="middle" x="1850.98" y="-1385.4" font-family="Times,serif" font-size="32.00"> bed_1</text>
<text text-anchor="middle" x="1850.98" y="-1350.4" font-family="Times,serif" font-size="32.00">=pass +k t</text>
</g>
<!-- pass&#45;&gt;v -->
<g id="edge17" class="edge">
<title>pass&#45;&gt;v</title>
<path fill="none" stroke="#000000" d="M2003.47,-1490.7C2002.9,-1546.05 1994.22,-1663.59 1934.98,-1737 1862.34,-1827.03 1816.67,-1851 1700.98,-1851 1700.98,-1851 1700.98,-1851 393.98,-1851 208.85,-1851 189.43,-1539.03 188.49,-1425.6"/>
<polygon fill="#000000" stroke="#000000" points="191.99,-1425.56 188.45,-1415.58 184.99,-1425.59 191.99,-1425.56"/>
<text text-anchor="middle" x="1048.48" y="-1895.4" font-family="Times,serif" font-size="32.00">be_1</text>
<text text-anchor="middle" x="1048.48" y="-1860.4" font-family="Times,serif" font-size="32.00">=pass v</text>
</g>
<!-- pass&#45;&gt;prog -->
<g id="edge19" class="edge">
<title>pass&#45;&gt;prog</title>
<path fill="none" stroke="#000000" d="M1952.79,-1460.14C1800.8,-1459.25 1332.92,-1446.87 966.98,-1334 883.57,-1308.27 849.64,-1313.77 788.98,-1251 739.48,-1199.78 714.18,-1118.49 702.83,-1070.09"/>
<polygon fill="#000000" stroke="#000000" points="706.24,-1069.26 700.62,-1060.28 699.41,-1070.8 706.24,-1069.26"/>
<text text-anchor="middle" x="1421.48" y="-1479.4" font-family="Times,serif" font-size="32.00">being</text>
<text text-anchor="middle" x="1421.48" y="-1444.4" font-family="Times,serif" font-size="32.00">=pass prog</text>
</g>
<!-- pass&#45;&gt;perf -->
<g id="edge18" class="edge">
<title>pass&#45;&gt;perf</title>
<path fill="none" stroke="#000000" d="M2001.92,-1490.45C1998.78,-1537.62 1986.02,-1628.47 1934.98,-1682 1858.74,-1761.98 1811.48,-1766 1700.98,-1766 1700.98,-1766 1700.98,-1766 692.98,-1766 505.73,-1766 523.96,-1590.05 462.98,-1413 432.62,-1324.85 453.27,-1296.86 444.98,-1204 428.66,-1021.02 408.2,-802.67 399.83,-713.72"/>
<polygon fill="#000000" stroke="#000000" points="403.29,-713.15 398.87,-703.52 396.32,-713.81 403.29,-713.15"/>
<text text-anchor="middle" x="1231.98" y="-1810.4" font-family="Times,serif" font-size="32.00">ben_1</text>
<text text-anchor="middle" x="1231.98" y="-1775.4" font-family="Times,serif" font-size="32.00">=pass perf</text>
</g>
<!-- c2&#45;&gt;0 -->
<g id="edge11" class="edge">
<title>c2&#45;&gt;0</title>
<path fill="none" stroke="#000000" d="M1389.27,-999.55C1370.52,-992.89 1347.71,-981.71 1333.98,-964 1311.39,-934.85 1344.75,-906.08 1315.98,-883 1286.86,-859.64 1180.92,-865.42 1147.98,-883 1105,-905.94 1077.47,-956.87 1062.74,-992.31"/>
<polygon fill="#000000" stroke="#000000" points="1059.39,-991.27 1058.93,-1001.86 1065.89,-993.87 1059.39,-991.27"/>
<text text-anchor="middle" x="1231.98" y="-1032.4" font-family="Times,serif" font-size="32.00">declare |</text>
<text text-anchor="middle" x="1231.98" y="-997.4" font-family="Times,serif" font-size="32.00"> think |</text>
<text text-anchor="middle" x="1231.98" y="-962.4" font-family="Times,serif" font-size="32.00"> explain |</text>
<text text-anchor="middle" x="1231.98" y="-927.4" font-family="Times,serif" font-size="32.00"> say</text>
<text text-anchor="middle" x="1231.98" y="-892.4" font-family="Times,serif" font-size="32.00">=c2 0</text>
</g>
<!-- 1 -->
<g id="node13" class="node">
<title>1</title>
<ellipse fill="none" stroke="black" cx="2003.89" cy="-403" rx="27" ry="30.31"/>
<text text-anchor="middle" x="2003.89" y="-394.9" font-family="Times,serif" font-size="32.00">1</text>
</g>
<!-- 1&#45;&gt;t -->
<g id="edge20" class="edge">
<title>1&#45;&gt;t</title>
<path fill="none" stroke="#f7931d" stroke-width="2" d="M1995.46,-431.98C1986.35,-461.24 1967.9,-505.26 1934.98,-528 1872.98,-570.84 1822.75,-500.31 1766.98,-551 1732,-582.79 1712.67,-720.64 1704.97,-790.34"/>
<polygon fill="#f7931d" stroke="#f7931d" stroke-width="2" points="1701.46,-790.19 1703.87,-800.51 1708.42,-790.94 1701.46,-790.19"/>
<text text-anchor="middle" x="1850.98" y="-630.4" font-family="Times,serif" font-size="32.00">s_1 |</text>
<text text-anchor="middle" x="1850.98" y="-595.4" font-family="Times,serif" font-size="32.00"> d_1</text>
<text text-anchor="middle" x="1850.98" y="-560.4" font-family="Times,serif" font-size="32.00">=&gt;1 =to +k t</text>
</g>
<!-- 1&#45;&gt;t -->
<g id="edge26" class="edge">
<title>1&#45;&gt;t</title>
<path fill="none" stroke="#f7931d" stroke-width="2" d="M2003.62,-433.61C2003.16,-486.26 1994.44,-594.24 1934.98,-656 1880.77,-712.31 1827.3,-658.29 1766.98,-708 1740.42,-729.89 1723.01,-765.36 1712.78,-792.6"/>
<polygon fill="#f7931d" stroke="#f7931d" stroke-width="2" points="1709.41,-791.63 1709.33,-802.22 1716,-793.99 1709.41,-791.63"/>
<text text-anchor="middle" x="1850.98" y="-787.4" font-family="Times,serif" font-size="32.00">s_2 |</text>
<text text-anchor="middle" x="1850.98" y="-752.4" font-family="Times,serif" font-size="32.00"> d_2</text>
<text text-anchor="middle" x="1850.98" y="-717.4" font-family="Times,serif" font-size="32.00">=&gt;1 =c1 +k t</text>
</g>
<!-- 1&#45;&gt;v -->
<g id="edge22" class="edge">
<title>1&#45;&gt;v</title>
<path fill="none" stroke="#f7931d" stroke-width="2" d="M1997.44,-373.23C1989.67,-339.85 1972.02,-286.78 1934.98,-259 1850.75,-195.83 1806.27,-222 1700.98,-222 1700.98,-222 1700.98,-222 393.98,-222 133.73,-222 278.52,-528.76 232.98,-785 196,-993.11 189.99,-1247.15 189.1,-1344.44"/>
<polygon fill="#f7931d" stroke="#f7931d" stroke-width="2" points="185.6,-1344.42 189.02,-1354.45 192.6,-1344.47 185.6,-1344.42"/>
<text text-anchor="middle" x="1048.48" y="-266.4" font-family="Times,serif" font-size="32.00">ε_1</text>
<text text-anchor="middle" x="1048.48" y="-231.4" font-family="Times,serif" font-size="32.00">=&gt;1 =to v</text>
</g>
<!-- 1&#45;&gt;v -->
<g id="edge27" class="edge">
<title>1&#45;&gt;v</title>
<path fill="none" stroke="#f7931d" stroke-width="2" d="M1999.69,-372.72C1993.83,-331.55 1977.72,-257.92 1934.98,-213 1857.38,-131.44 1813.56,-116 1700.98,-116 1700.98,-116 1700.98,-116 393.98,-116 306.05,-116 274.7,-153.59 232.98,-231 206.06,-280.96 192.34,-1145.48 189.53,-1344.41"/>
<polygon fill="#f7931d" stroke="#f7931d" stroke-width="2" points="186.03,-1344.4 189.39,-1354.44 193.03,-1344.49 186.03,-1344.4"/>
<text text-anchor="middle" x="1048.48" y="-160.4" font-family="Times,serif" font-size="32.00">ε_3</text>
<text text-anchor="middle" x="1048.48" y="-125.4" font-family="Times,serif" font-size="32.00">=&gt;1 =c1 v</text>
</g>
<!-- 1&#45;&gt;prog -->
<g id="edge25" class="edge">
<title>1&#45;&gt;prog</title>
<path fill="none" stroke="#f7931d" stroke-width="2" d="M1987.92,-428.07C1975.99,-445.5 1957.57,-467.41 1934.98,-478 1813.95,-534.73 1456.39,-449.29 1333.98,-503 1323.62,-507.55 1326.16,-516.06 1315.98,-521 1103.8,-624.07 949.86,-411.48 788.98,-584 761.22,-613.78 787.01,-912.57 770.98,-950 763.03,-968.57 748.73,-985.42 734.67,-998.81"/>
<polygon fill="#f7931d" stroke="#f7931d" stroke-width="2" points="731.94,-996.56 726.92,-1005.89 736.66,-1001.73 731.94,-996.56"/>
<text text-anchor="middle" x="1421.48" y="-547.4" font-family="Times,serif" font-size="32.00">ing_1</text>
<text text-anchor="middle" x="1421.48" y="-512.4" font-family="Times,serif" font-size="32.00">=&gt;1 =to prog</text>
</g>
<!-- 1&#45;&gt;prog -->
<g id="edge29" class="edge">
<title>1&#45;&gt;prog</title>
<path fill="none" stroke="#f7931d" stroke-width="2" d="M1991.69,-430.6C1980.76,-453.79 1961.86,-485.83 1934.98,-503 1933.72,-503.81 1510.47,-572.8 1508.98,-573 1268.93,-605.32 1175.7,-507.1 966.98,-630 848.2,-699.94 847.54,-759.21 788.98,-884 776.07,-911.52 785.91,-923.51 770.98,-950 760.99,-967.74 746.19,-984.55 732.3,-998.13"/>
<polygon fill="#f7931d" stroke="#f7931d" stroke-width="2" points="729.55,-995.91 724.71,-1005.33 734.37,-1000.99 729.55,-995.91"/>
<text text-anchor="middle" x="1421.48" y="-624.4" font-family="Times,serif" font-size="32.00">ing_2</text>
<text text-anchor="middle" x="1421.48" y="-589.4" font-family="Times,serif" font-size="32.00">=&gt;1 =c1 prog</text>
</g>
<!-- 1&#45;&gt;perf -->
<g id="edge28" class="edge">
<title>1&#45;&gt;perf</title>
<path fill="none" stroke="#f7931d" stroke-width="2" d="M1993.86,-374.72C1983.93,-348.87 1965.24,-312.13 1934.98,-295 1815.26,-227.21 1453.56,-283.44 1315.98,-282 1241.32,-281.22 1218.61,-257.77 1147.98,-282 1138.4,-285.29 1139.38,-292.2 1129.98,-296 853.56,-407.78 684.96,-168.93 462.98,-368 424.1,-402.87 405.79,-558.04 399.11,-632.66"/>
<polygon fill="#f7931d" stroke="#f7931d" stroke-width="2" points="395.63,-632.37 398.25,-642.63 402.6,-632.97 395.63,-632.37"/>
<text text-anchor="middle" x="1231.98" y="-326.4" font-family="Times,serif" font-size="32.00">n_2</text>
<text text-anchor="middle" x="1231.98" y="-291.4" font-family="Times,serif" font-size="32.00">=&gt;1 =c1 perf</text>
</g>
<!-- 2 -->
<g id="node15" class="node">
<title>2</title>
<ellipse fill="none" stroke="black" cx="1699.98" cy="-366" rx="27" ry="30.31"/>
<text text-anchor="middle" x="1699.98" y="-357.9" font-family="Times,serif" font-size="32.00">2</text>
</g>
<!-- 1&#45;&gt;2 -->
<g id="edge24" class="edge">
<title>1&#45;&gt;2</title>
<path fill="none" stroke="#f7931d" stroke-width="2" d="M1990.74,-376.38C1979.56,-355.41 1960.79,-327.68 1934.98,-315 1867.97,-282.07 1837.65,-290.88 1766.98,-315 1752.65,-319.89 1739.01,-329.3 1727.89,-338.72"/>
<polygon fill="#f7931d" stroke="#f7931d" stroke-width="2" points="1725.4,-336.25 1720.26,-345.52 1730.06,-341.48 1725.4,-336.25"/>
<text text-anchor="middle" x="1850.98" y="-359.4" font-family="Times,serif" font-size="32.00">ε_2</text>
<text text-anchor="middle" x="1850.98" y="-324.4" font-family="Times,serif" font-size="32.00">=&gt;1 2</text>
</g>
<!-- z3 -->
<g id="node14" class="node">
<title>z3</title>
<ellipse fill="none" stroke="black" stroke-dasharray="5,2" cx="2225.81" cy="-403" rx="27" ry="18"/>
</g>
<!-- z3&#45;&gt;1 -->
<g id="edge21" class="edge">
<title>z3&#45;&gt;1</title>
<path fill="none" stroke="#f7931d" stroke-width="2" d="M2198.72,-403C2159.53,-403 2085.37,-403 2041.01,-403"/>
<polygon fill="#f7931d" stroke="#f7931d" stroke-width="2" points="2040.95,-399.5 2030.95,-403 2040.95,-406.5 2040.95,-399.5"/>
<text text-anchor="middle" x="2126.81" y="-447.4" font-family="Times,serif" font-size="32.00">seem</text>
<text text-anchor="middle" x="2126.81" y="-412.4" font-family="Times,serif" font-size="32.00">1</text>
</g>
<!-- 2&#45;&gt;perf -->
<g id="edge23" class="edge">
<title>2&#45;&gt;perf</title>
<path fill="none" stroke="#000000" d="M1672.68,-366C1623.53,-366 1514.41,-366 1422.48,-366 1422.48,-366 1422.48,-366 692.98,-366 584.16,-366 537.66,-370.84 462.98,-450 415.46,-500.38 401.54,-583.19 397.53,-632.47"/>
<polygon fill="#000000" stroke="#000000" points="394.03,-632.23 396.81,-642.46 401.02,-632.73 394.03,-632.23"/>
<text text-anchor="middle" x="1048.48" y="-410.4" font-family="Times,serif" font-size="32.00">n_1</text>
<text text-anchor="middle" x="1048.48" y="-375.4" font-family="Times,serif" font-size="32.00">=&gt;2 =to perf</text>
</g>
<!-- 3 -->
<g id="node16" class="node">
<title>3</title>
<ellipse fill="none" stroke="black" cx="2003.89" cy="-977" rx="27" ry="30.31"/>
<text text-anchor="middle" x="2003.89" y="-968.9" font-family="Times,serif" font-size="32.00">3</text>
</g>
<!-- 3&#45;&gt;t -->
<g id="edge30" class="edge">
<title>3&#45;&gt;t</title>
<path fill="none" stroke="#00b9f1" stroke-width="2" d="M1977.56,-969.96C1964.86,-966.61 1949.18,-962.74 1934.98,-960 1860.99,-945.72 1830.23,-977.98 1766.98,-937 1742.36,-921.04 1725.32,-892.33 1714.74,-868.81"/>
<polygon fill="#00b9f1" stroke="#00b9f1" stroke-width="2" points="1717.87,-867.24 1710.72,-859.43 1711.44,-870 1717.87,-867.24"/>
<text text-anchor="middle" x="1850.98" y="-1039.4" font-family="Times,serif" font-size="32.00">s_3 |</text>
<text text-anchor="middle" x="1850.98" y="-1004.4" font-family="Times,serif" font-size="32.00"> d_3</text>
<text text-anchor="middle" x="1850.98" y="-969.4" font-family="Times,serif" font-size="32.00">=&gt;3 =to +k t</text>
</g>
<!-- 3&#45;&gt;t -->
<g id="edge35" class="edge">
<title>3&#45;&gt;t</title>
<path fill="none" stroke="#00b9f1" stroke-width="2" d="M1998.87,-947.02C1992.34,-911.61 1975.75,-854.22 1934.98,-828 1903.3,-807.62 1794.71,-818.34 1737.28,-825.8"/>
<polygon fill="#00b9f1" stroke="#00b9f1" stroke-width="2" points="1736.63,-822.36 1727.18,-827.15 1737.55,-829.29 1736.63,-822.36"/>
<text text-anchor="middle" x="1850.98" y="-907.4" font-family="Times,serif" font-size="32.00">s_4 |</text>
<text text-anchor="middle" x="1850.98" y="-872.4" font-family="Times,serif" font-size="32.00"> d_4</text>
<text text-anchor="middle" x="1850.98" y="-837.4" font-family="Times,serif" font-size="32.00">=&gt;3 =c1 +k t</text>
</g>
<!-- 3&#45;&gt;v -->
<g id="edge32" class="edge">
<title>3&#45;&gt;v</title>
<path fill="none" stroke="#00b9f1" stroke-width="2" d="M2002.19,-1007.5C1999.48,-1100.6 1987.1,-1379.04 1934.98,-1450 1866.73,-1542.93 1816.28,-1562 1700.98,-1562 1700.98,-1562 1700.98,-1562 1230.98,-1562 1105.5,-1562 1074.43,-1572.89 948.98,-1576 877.89,-1577.76 859.35,-1586.28 788.98,-1576 533.8,-1538.72 470.17,-1511.24 232.98,-1410 229.07,-1408.33 225.07,-1406.4 221.15,-1404.37"/>
<polygon fill="#00b9f1" stroke="#00b9f1" stroke-width="2" points="222.68,-1401.22 212.23,-1399.51 219.34,-1407.36 222.68,-1401.22"/>
<text text-anchor="middle" x="1048.48" y="-1619.4" font-family="Times,serif" font-size="32.00">ε_4</text>
<text text-anchor="middle" x="1048.48" y="-1584.4" font-family="Times,serif" font-size="32.00">=&gt;3 =to v</text>
</g>
<!-- 3&#45;&gt;v -->
<g id="edge36" class="edge">
<title>3&#45;&gt;v</title>
<path fill="none" stroke="#00b9f1" stroke-width="2" d="M1999.8,-1007.4C1988.41,-1118.35 1948.76,-1496.16 1934.98,-1518 1869.07,-1622.48 1824.52,-1668 1700.98,-1668 1700.98,-1668 1700.98,-1668 393.98,-1668 275.1,-1668 218.1,-1502.19 197.91,-1424.41"/>
<polygon fill="#00b9f1" stroke="#00b9f1" stroke-width="2" points="201.24,-1423.33 195.41,-1414.49 194.46,-1425.04 201.24,-1423.33"/>
<text text-anchor="middle" x="1048.48" y="-1712.4" font-family="Times,serif" font-size="32.00">ε_6</text>
<text text-anchor="middle" x="1048.48" y="-1677.4" font-family="Times,serif" font-size="32.00">=&gt;3 =c1 v</text>
</g>
<!-- 3&#45;&gt;prog -->
<g id="edge34" class="edge">
<title>3&#45;&gt;prog</title>
<path fill="none" stroke="#00b9f1" stroke-width="2" d="M1989.65,-1003.27C1957.89,-1062.83 1870.88,-1206.94 1748.98,-1258 1649.83,-1299.53 1615.9,-1239.17 1508.98,-1228 1431.63,-1219.92 1397.21,-1182.7 1333.98,-1228 1313.76,-1242.49 1336.21,-1266.51 1315.98,-1281 1255.29,-1324.49 1220.7,-1297.95 1147.98,-1281 974.73,-1240.61 939.47,-1198.87 788.98,-1104 769.2,-1091.53 748.64,-1075.72 731.81,-1061.91"/>
<polygon fill="#00b9f1" stroke="#00b9f1" stroke-width="2" points="733.8,-1059.01 723.87,-1055.32 729.33,-1064.4 733.8,-1059.01"/>
<text text-anchor="middle" x="1421.48" y="-1272.4" font-family="Times,serif" font-size="32.00">ing_3</text>
<text text-anchor="middle" x="1421.48" y="-1237.4" font-family="Times,serif" font-size="32.00">=&gt;3 =to prog</text>
</g>
<!-- 3&#45;&gt;prog -->
<g id="edge38" class="edge">
<title>3&#45;&gt;prog</title>
<path fill="none" stroke="#00b9f1" stroke-width="2" d="M2000.35,-1007.17C1995.18,-1051.26 1979.79,-1133.71 1934.98,-1186 1825.52,-1313.74 1749.21,-1320 1580.98,-1320 1580.98,-1320 1580.98,-1320 1047.48,-1320 914.65,-1320 885.93,-1260.8 788.98,-1170 757.42,-1140.44 730.98,-1098.38 714.27,-1068.09"/>
<polygon fill="#00b9f1" stroke="#00b9f1" stroke-width="2" points="717.23,-1066.22 709.4,-1059.09 711.08,-1069.55 717.23,-1066.22"/>
<text text-anchor="middle" x="1421.48" y="-1364.4" font-family="Times,serif" font-size="32.00">ing_4</text>
<text text-anchor="middle" x="1421.48" y="-1329.4" font-family="Times,serif" font-size="32.00">=&gt;3 =c1 prog</text>
</g>
<!-- 3&#45;&gt;perf -->
<g id="edge37" class="edge">
<title>3&#45;&gt;perf</title>
<path fill="none" stroke="#00b9f1" stroke-width="2" d="M1999.24,-946.96C1993,-909.49 1976.62,-846.3 1934.98,-813 1875.81,-765.68 1832.81,-821.53 1766.98,-784 1613.33,-696.39 1662.48,-568.87 1508.98,-481 1433.39,-437.73 1402.75,-454.58 1315.98,-447 973.17,-417.03 576.18,-587.01 442.56,-650.12"/>
<polygon fill="#00b9f1" stroke="#00b9f1" stroke-width="2" points="440.93,-647.02 433.4,-654.48 443.93,-653.35 440.93,-647.02"/>
<text text-anchor="middle" x="1231.98" y="-491.4" font-family="Times,serif" font-size="32.00">n_3</text>
<text text-anchor="middle" x="1231.98" y="-456.4" font-family="Times,serif" font-size="32.00">=&gt;3 =c1 perf</text>
</g>
<!-- 3&#45;&gt;2 -->
<g id="edge33" class="edge">
<title>3&#45;&gt;2</title>
<path fill="none" stroke="#00b9f1" stroke-width="2" d="M2002.93,-946.29C2002.43,-846.13 1995.97,-530.96 1934.98,-454 1922.12,-437.77 1798.35,-396.82 1736.21,-377.04"/>
<polygon fill="#00b9f1" stroke="#00b9f1" stroke-width="2" points="1737.03,-373.62 1726.44,-373.94 1734.91,-380.3 1737.03,-373.62"/>
<text text-anchor="middle" x="1850.98" y="-498.4" font-family="Times,serif" font-size="32.00">ε_5</text>
<text text-anchor="middle" x="1850.98" y="-463.4" font-family="Times,serif" font-size="32.00">=&gt;3 2</text>
</g>
<!-- z4 -->
<g id="node17" class="node">
<title>z4</title>
<ellipse fill="none" stroke="black" stroke-dasharray="5,2" cx="2225.81" cy="-977" rx="27" ry="18"/>
</g>
<!-- z4&#45;&gt;3 -->
<g id="edge31" class="edge">
<title>z4&#45;&gt;3</title>
<path fill="none" stroke="#00b9f1" stroke-width="2" d="M2198.72,-977C2159.53,-977 2085.37,-977 2041.01,-977"/>
<polygon fill="#00b9f1" stroke="#00b9f1" stroke-width="2" points="2040.95,-973.5 2030.95,-977 2040.95,-980.5 2040.95,-973.5"/>
<text text-anchor="middle" x="2126.81" y="-1021.4" font-family="Times,serif" font-size="32.00">appear</text>
<text text-anchor="middle" x="2126.81" y="-986.4" font-family="Times,serif" font-size="32.00">3</text>
</g>
<!-- z5 -->
<g id="node18" class="node">
<title>z5</title>
<ellipse fill="none" stroke="black" stroke-dasharray="5,2" cx="2561.81" cy="-1347" rx="27" ry="18"/>
</g>
<!-- e -->
<g id="node19" class="node">
<title>e</title>
<ellipse fill="none" stroke="black" cx="2408.81" cy="-1347" rx="27" ry="30.31"/>
<text text-anchor="middle" x="2408.81" y="-1338.9" font-family="Times,serif" font-size="32.00">e</text>
</g>
<!-- z5&#45;&gt;e -->
<g id="edge41" class="edge">
<title>z5&#45;&gt;e</title>
<path fill="none" stroke="#000000" d="M2534.5,-1347C2510.04,-1347 2473.36,-1347 2446.11,-1347"/>
<polygon fill="#000000" stroke="#000000" points="2445.81,-1343.5 2435.81,-1347 2445.81,-1350.5 2445.81,-1343.5"/>
<text text-anchor="middle" x="2485.31" y="-1391.4" font-family="Times,serif" font-size="32.00">it</text>
<text text-anchor="middle" x="2485.31" y="-1356.4" font-family="Times,serif" font-size="32.00">e &#45;k</text>
</g>
</g>
</svg>
