<?xml version="1.0" encoding="UTF-8" standalone="no"?>
<!DOCTYPE svg PUBLIC "-//W3C//DTD SVG 1.1//EN"
 "http://www.w3.org/Graphics/SVG/1.1/DTD/svg11.dtd">
<!-- Generated by graphviz version 2.47.1 (20210417.1919)
 -->
<!-- Title: G Pages: 1 -->
<svg width="2702pt" height="1652pt"
 viewBox="0.00 0.00 2701.98 1652.35" xmlns="http://www.w3.org/2000/svg" xmlns:xlink="http://www.w3.org/1999/xlink">
<g id="graph0" class="graph" transform="scale(1 1) rotate(0) translate(4 1648.35)">
<title>G</title>
<polygon fill="white" stroke="transparent" points="-4,4 -4,-1648.35 2697.98,-1648.35 2697.98,4 -4,4"/>
<text text-anchor="middle" x="1346.99" y="-13.4" font-family="Times,serif" font-size="32.00">single contraction: 1 → 2</text>
<!-- t -->
<g id="node1" class="node">
<title>t</title>
<ellipse fill="lightgray" stroke="black" cx="1738.98" cy="-797.35" rx="27" ry="30.31"/>
<text text-anchor="middle" x="1738.98" y="-789.25" font-family="Times,serif" font-size="32.00">t</text>
</g>
<!-- c2 -->
<g id="node12" class="node">
<title>c2</title>
<ellipse fill="none" stroke="black" cx="1391.48" cy="-745.35" rx="33.47" ry="30.31"/>
<text text-anchor="middle" x="1391.48" y="-737.25" font-family="Times,serif" font-size="32.00">c2</text>
</g>
<!-- t&#45;&gt;c2 -->
<g id="edge43" class="edge">
<title>t&#45;&gt;c2</title>
<path fill="none" stroke="#000000" d="M1724.52,-771.48C1713.26,-752.88 1695.3,-729.25 1671.98,-718.35 1592.83,-681.33 1487.5,-709.39 1431.45,-729.54"/>
<polygon fill="#000000" stroke="#000000" points="1430.07,-726.32 1421.91,-733.07 1432.5,-732.88 1430.07,-726.32"/>
<text text-anchor="middle" x="1584.48" y="-762.75" font-family="Times,serif" font-size="32.00">that_1</text>
<text text-anchor="middle" x="1584.48" y="-727.75" font-family="Times,serif" font-size="32.00">=t c2</text>
</g>
<!-- c1 -->
<g id="node20" class="node">
<title>c1</title>
<ellipse fill="none" stroke="black" cx="1391.48" cy="-824.35" rx="33.47" ry="30.31"/>
<text text-anchor="middle" x="1391.48" y="-816.25" font-family="Times,serif" font-size="32.00">c1</text>
</g>
<!-- t&#45;&gt;c1 -->
<g id="edge42" class="edge">
<title>t&#45;&gt;c1</title>
<path fill="none" stroke="#000000" d="M1711.82,-795.42C1667.43,-792.6 1574.62,-788.67 1496.98,-798.35 1475.5,-801.03 1452.06,-806.6 1432.84,-811.91"/>
<polygon fill="#000000" stroke="#000000" points="1431.88,-808.54 1423.21,-814.64 1433.78,-815.28 1431.88,-808.54"/>
<text text-anchor="middle" x="1584.48" y="-842.75" font-family="Times,serif" font-size="32.00">that</text>
<text text-anchor="middle" x="1584.48" y="-807.75" font-family="Times,serif" font-size="32.00">=t =e c1</text>
</g>
<!-- z0 -->
<g id="node2" class="node">
<title>z0</title>
<ellipse fill="none" stroke="black" stroke-dasharray="5,2" cx="2513.98" cy="-351.35" rx="27" ry="18"/>
</g>
<!-- d -->
<g id="node3" class="node">
<title>d</title>
<ellipse fill="none" stroke="black" cx="2330.98" cy="-252.35" rx="27" ry="30.31"/>
<text text-anchor="middle" x="2330.98" y="-244.25" font-family="Times,serif" font-size="32.00">d</text>
</g>
<!-- z0&#45;&gt;d -->
<g id="edge1" class="edge">
<title>z0&#45;&gt;d</title>
<path fill="none" stroke="#000000" d="M2487.08,-353.51C2457.57,-354.64 2409.16,-352.31 2375.98,-329.35 2362.27,-319.86 2352.29,-304.62 2345.33,-290.2"/>
<polygon fill="#000000" stroke="#000000" points="2348.46,-288.61 2341.19,-280.9 2342.07,-291.46 2348.46,-288.61"/>
<text text-anchor="middle" x="2422.48" y="-503.75" font-family="Times,serif" font-size="32.00">Mary |</text>
<text text-anchor="middle" x="2422.48" y="-468.75" font-family="Times,serif" font-size="32.00"> John |</text>
<text text-anchor="middle" x="2422.48" y="-433.75" font-family="Times,serif" font-size="32.00"> Alice |</text>
<text text-anchor="middle" x="2422.48" y="-398.75" font-family="Times,serif" font-size="32.00"> Bob</text>
<text text-anchor="middle" x="2422.48" y="-363.75" font-family="Times,serif" font-size="32.00">d &#45;k</text>
</g>
<!-- 0 -->
<g id="node6" class="node">
<title>0</title>
<ellipse fill="none" stroke="black" cx="1033.48" cy="-659.35" rx="27" ry="30.31"/>
<text text-anchor="middle" x="1033.48" y="-651.25" font-family="Times,serif" font-size="32.00">0</text>
</g>
<!-- d&#45;&gt;0 -->
<g id="edge9" class="edge">
<title>d&#45;&gt;0</title>
<path fill="none" stroke="#000000" d="M2322.12,-281.31C2315.58,-299.48 2304.31,-321.6 2285.98,-333.35 2207.61,-383.59 2170.08,-347.35 2076.98,-347.35 2076.98,-347.35 2076.98,-347.35 1583.48,-347.35 1458.76,-347.35 1424.96,-342.05 1303.98,-372.35 1216.86,-394.17 1180.86,-387.21 1117.98,-451.35 1072.02,-498.24 1050.37,-573.68 1040.95,-619.66"/>
<polygon fill="#000000" stroke="#000000" points="1037.5,-619.08 1039.02,-629.57 1044.37,-620.42 1037.5,-619.08"/>
<text text-anchor="middle" x="1738.98" y="-496.75" font-family="Times,serif" font-size="32.00">praise |</text>
<text text-anchor="middle" x="1738.98" y="-461.75" font-family="Times,serif" font-size="32.00"> like |</text>
<text text-anchor="middle" x="1738.98" y="-426.75" font-family="Times,serif" font-size="32.00"> kiss |</text>
<text text-anchor="middle" x="1738.98" y="-391.75" font-family="Times,serif" font-size="32.00"> hug</text>
<text text-anchor="middle" x="1738.98" y="-356.75" font-family="Times,serif" font-size="32.00">=d *k 0</text>
</g>
<!-- pass -->
<g id="node11" class="node">
<title>pass</title>
<ellipse fill="none" stroke="black" cx="2075.98" cy="-289.35" rx="50.82" ry="30.31"/>
<text text-anchor="middle" x="2075.98" y="-281.25" font-family="Times,serif" font-size="32.00">pass</text>
</g>
<!-- d&#45;&gt;pass -->
<g id="edge10" class="edge">
<title>d&#45;&gt;pass</title>
<path fill="none" stroke="#000000" d="M2324.77,-222.56C2319.22,-200.66 2308.03,-172.37 2285.98,-158.35 2245.48,-132.59 2221.06,-137.17 2177.98,-158.35 2139.05,-177.49 2110.89,-219.67 2094.35,-251.02"/>
<polygon fill="#000000" stroke="#000000" points="2091.22,-249.46 2089.79,-259.96 2097.45,-252.64 2091.22,-249.46"/>
<text text-anchor="middle" x="2231.98" y="-307.75" font-family="Times,serif" font-size="32.00">praisen |</text>
<text text-anchor="middle" x="2231.98" y="-272.75" font-family="Times,serif" font-size="32.00"> liken |</text>
<text text-anchor="middle" x="2231.98" y="-237.75" font-family="Times,serif" font-size="32.00"> kissn |</text>
<text text-anchor="middle" x="2231.98" y="-202.75" font-family="Times,serif" font-size="32.00"> hugn</text>
<text text-anchor="middle" x="2231.98" y="-167.75" font-family="Times,serif" font-size="32.00">=d pass</text>
</g>
<!-- n -->
<g id="node4" class="node">
<title>n</title>
<ellipse fill="none" stroke="black" cx="2513.98" cy="-153.35" rx="27" ry="30.31"/>
<text text-anchor="middle" x="2513.98" y="-145.25" font-family="Times,serif" font-size="32.00">n</text>
</g>
<!-- n&#45;&gt;d -->
<g id="edge2" class="edge">
<title>n&#45;&gt;d</title>
<path fill="none" stroke="#000000" d="M2487.91,-144.89C2458.52,-136.64 2409.57,-128.25 2375.98,-150.35 2355.16,-164.04 2344.15,-189.9 2338.35,-212.15"/>
<polygon fill="#000000" stroke="#000000" points="2334.9,-211.53 2336.03,-222.06 2341.72,-213.12 2334.9,-211.53"/>
<text text-anchor="middle" x="2422.48" y="-299.75" font-family="Times,serif" font-size="32.00">this |</text>
<text text-anchor="middle" x="2422.48" y="-264.75" font-family="Times,serif" font-size="32.00"> a |</text>
<text text-anchor="middle" x="2422.48" y="-229.75" font-family="Times,serif" font-size="32.00"> the |</text>
<text text-anchor="middle" x="2422.48" y="-194.75" font-family="Times,serif" font-size="32.00"> some</text>
<text text-anchor="middle" x="2422.48" y="-159.75" font-family="Times,serif" font-size="32.00">=n d &#45;k</text>
</g>
<!-- z1 -->
<g id="node5" class="node">
<title>z1</title>
<ellipse fill="none" stroke="black" stroke-dasharray="5,2" cx="2666.98" cy="-153.35" rx="27" ry="18"/>
</g>
<!-- z1&#45;&gt;n -->
<g id="edge3" class="edge">
<title>z1&#45;&gt;n</title>
<path fill="none" stroke="#000000" d="M2639.68,-153.35C2615.21,-153.35 2578.54,-153.35 2551.29,-153.35"/>
<polygon fill="#000000" stroke="#000000" points="2550.98,-149.85 2540.98,-153.35 2550.98,-156.85 2550.98,-149.85"/>
<text text-anchor="middle" x="2590.48" y="-232.75" font-family="Times,serif" font-size="32.00">boy |</text>
<text text-anchor="middle" x="2590.48" y="-197.75" font-family="Times,serif" font-size="32.00"> girl</text>
<text text-anchor="middle" x="2590.48" y="-162.75" font-family="Times,serif" font-size="32.00">n</text>
</g>
<!-- 0&#45;&gt;t -->
<g id="edge4" class="edge">
<title>0&#45;&gt;t</title>
<path fill="none" stroke="#000000" d="M1060.64,-661.3C1117.56,-665.02 1250.46,-670.66 1285.98,-645.35 1303.19,-633.09 1286.44,-613.12 1303.98,-601.35 1368.56,-558 1403.23,-583.71 1478.98,-601.35 1572.1,-623.02 1600.4,-632.97 1671.98,-696.35 1692.47,-714.49 1709.24,-740.43 1720.75,-761.47"/>
<polygon fill="#000000" stroke="#000000" points="1717.73,-763.25 1725.51,-770.45 1723.92,-759.98 1717.73,-763.25"/>
<text text-anchor="middle" x="1391.48" y="-680.75" font-family="Times,serif" font-size="32.00">s |</text>
<text text-anchor="middle" x="1391.48" y="-645.75" font-family="Times,serif" font-size="32.00"> d</text>
<text text-anchor="middle" x="1391.48" y="-610.75" font-family="Times,serif" font-size="32.00">=&gt;0 =d +k t</text>
</g>
<!-- v -->
<g id="node8" class="node">
<title>v</title>
<ellipse fill="none" stroke="black" cx="187.98" cy="-855.35" rx="27" ry="30.31"/>
<text text-anchor="middle" x="187.98" y="-847.25" font-family="Times,serif" font-size="32.00">v</text>
</g>
<!-- 0&#45;&gt;v -->
<g id="edge6" class="edge">
<title>0&#45;&gt;v</title>
<path fill="none" stroke="#000000" d="M1006.5,-657.52C924.53,-652.56 664.89,-643.06 462.98,-704.35 367.37,-733.37 267.69,-798.65 219.15,-833.1"/>
<polygon fill="#000000" stroke="#000000" points="217.07,-830.28 210.98,-838.95 221.15,-835.98 217.07,-830.28"/>
<text text-anchor="middle" x="530.98" y="-748.75" font-family="Times,serif" font-size="32.00">ε_0</text>
<text text-anchor="middle" x="530.98" y="-713.75" font-family="Times,serif" font-size="32.00">=&gt;0 =d v</text>
</g>
<!-- prog -->
<g id="node9" class="node">
<title>prog</title>
<ellipse fill="none" stroke="black" cx="693.98" cy="-1064.35" rx="52.15" ry="30.31"/>
<text text-anchor="middle" x="693.98" y="-1056.25" font-family="Times,serif" font-size="32.00">prog</text>
</g>
<!-- 0&#45;&gt;prog -->
<g id="edge7" class="edge">
<title>0&#45;&gt;prog</title>
<path fill="none" stroke="#000000" d="M1011.48,-677.19C966.96,-715.66 861.3,-810.55 788.98,-904.35 758.96,-943.3 731.32,-992.68 713.89,-1026.21"/>
<polygon fill="#000000" stroke="#000000" points="710.72,-1024.74 709.26,-1035.23 716.94,-1027.94 710.72,-1024.74"/>
<text text-anchor="middle" x="868.98" y="-948.75" font-family="Times,serif" font-size="32.00">ing</text>
<text text-anchor="middle" x="868.98" y="-913.75" font-family="Times,serif" font-size="32.00">=&gt;0 =d prog</text>
</g>
<!-- perf -->
<g id="node10" class="node">
<title>perf</title>
<ellipse fill="none" stroke="black" cx="394.98" cy="-855.35" rx="48.17" ry="30.31"/>
<text text-anchor="middle" x="394.98" y="-847.25" font-family="Times,serif" font-size="32.00">perf</text>
</g>
<!-- 0&#45;&gt;perf -->
<g id="edge8" class="edge">
<title>0&#45;&gt;perf</title>
<path fill="none" stroke="#000000" d="M1006.93,-665.29C941.48,-680.72 762.68,-724.15 616.98,-771.35 557.14,-790.73 489.74,-817.01 445.29,-834.98"/>
<polygon fill="#000000" stroke="#000000" points="443.83,-831.8 435.88,-838.8 446.46,-838.28 443.83,-831.8"/>
<text text-anchor="middle" x="693.98" y="-815.75" font-family="Times,serif" font-size="32.00">n</text>
<text text-anchor="middle" x="693.98" y="-780.75" font-family="Times,serif" font-size="32.00">=&gt;0 =d perf</text>
</g>
<!-- z2 -->
<g id="node7" class="node">
<title>z2</title>
<ellipse fill="none" stroke="black" stroke-dasharray="5,2" cx="1391.48" cy="-538.35" rx="27" ry="18"/>
</g>
<!-- z2&#45;&gt;0 -->
<g id="edge5" class="edge">
<title>z2&#45;&gt;0</title>
<path fill="none" stroke="#000000" d="M1365.16,-534.17C1346.38,-529.94 1321.15,-521.74 1303.98,-506.35 1290.66,-494.41 1301.2,-479.75 1285.98,-470.35 1254.23,-450.72 1149.26,-449.97 1117.98,-470.35 1091.48,-487.61 1061.87,-570.78 1046.01,-620.86"/>
<polygon fill="#000000" stroke="#000000" points="1042.57,-620.12 1042.93,-630.71 1049.25,-622.21 1042.57,-620.12"/>
<text text-anchor="middle" x="1201.98" y="-619.75" font-family="Times,serif" font-size="32.00">dance |</text>
<text text-anchor="middle" x="1201.98" y="-584.75" font-family="Times,serif" font-size="32.00"> laugh |</text>
<text text-anchor="middle" x="1201.98" y="-549.75" font-family="Times,serif" font-size="32.00"> smile |</text>
<text text-anchor="middle" x="1201.98" y="-514.75" font-family="Times,serif" font-size="32.00"> jump</text>
<text text-anchor="middle" x="1201.98" y="-479.75" font-family="Times,serif" font-size="32.00">0</text>
</g>
<!-- v&#45;&gt;t -->
<g id="edge12" class="edge">
<title>v&#45;&gt;t</title>
<path fill="none" stroke="#000000" d="M188.38,-824.94C188.03,-721.01 201.82,-386.35 393.98,-386.35 1034.48,-386.35 1034.48,-386.35 1034.48,-386.35 1149.93,-386.35 1184.94,-395.5 1285.98,-451.35 1295.61,-456.67 1294.32,-463.08 1303.98,-468.35 1374.31,-506.67 1403.5,-484.58 1478.98,-511.35 1568.36,-543.04 1608.86,-531.57 1671.98,-602.35 1710.99,-646.09 1727.11,-713.8 1733.65,-756.83"/>
<polygon fill="#000000" stroke="#000000" points="1730.22,-757.53 1735.08,-766.94 1737.15,-756.55 1730.22,-757.53"/>
<text text-anchor="middle" x="868.98" y="-465.75" font-family="Times,serif" font-size="32.00">wills |</text>
<text text-anchor="middle" x="868.98" y="-430.75" font-family="Times,serif" font-size="32.00"> willd</text>
<text text-anchor="middle" x="868.98" y="-395.75" font-family="Times,serif" font-size="32.00">=v +k t</text>
</g>
<!-- to -->
<g id="node19" class="node">
<title>to</title>
<ellipse fill="none" stroke="black" cx="28.99" cy="-855.35" rx="28.98" ry="30.31"/>
<text text-anchor="middle" x="28.99" y="-847.25" font-family="Times,serif" font-size="32.00">to</text>
</g>
<!-- v&#45;&gt;to -->
<g id="edge41" class="edge">
<title>v&#45;&gt;to</title>
<path fill="none" stroke="#000000" d="M160.71,-855.35C135.44,-855.35 96.96,-855.35 68.29,-855.35"/>
<polygon fill="#000000" stroke="#000000" points="68.21,-851.85 58.21,-855.35 68.21,-858.85 68.21,-851.85"/>
<text text-anchor="middle" x="109.48" y="-899.75" font-family="Times,serif" font-size="32.00">to</text>
<text text-anchor="middle" x="109.48" y="-864.75" font-family="Times,serif" font-size="32.00">=v to</text>
</g>
<!-- prog&#45;&gt;t -->
<g id="edge13" class="edge">
<title>prog&#45;&gt;t</title>
<path fill="none" stroke="#000000" d="M729.32,-1041.51C746.56,-1031.07 768.16,-1019.46 788.98,-1012.35 921.33,-967.13 990.84,-1051.8 1099.98,-964.35 1117.12,-950.62 1100.1,-931.08 1117.98,-918.35 1168.17,-882.62 1618.26,-926.49 1671.98,-896.35 1695.94,-882.91 1712.82,-856.71 1723.51,-834.64"/>
<polygon fill="#000000" stroke="#000000" points="1726.72,-836.03 1727.71,-825.48 1720.36,-833.11 1726.72,-836.03"/>
<text text-anchor="middle" x="1201.98" y="-997.75" font-family="Times,serif" font-size="32.00">bes |</text>
<text text-anchor="middle" x="1201.98" y="-962.75" font-family="Times,serif" font-size="32.00"> bed</text>
<text text-anchor="middle" x="1201.98" y="-927.75" font-family="Times,serif" font-size="32.00">=prog +k t</text>
</g>
<!-- prog&#45;&gt;v -->
<g id="edge14" class="edge">
<title>prog&#45;&gt;v</title>
<path fill="none" stroke="#000000" d="M643.93,-1073.92C596.63,-1081.22 523.53,-1087.43 462.98,-1070.35 347.59,-1037.79 317.19,-1014.7 232.98,-929.35 222.17,-918.39 212.94,-904.27 205.76,-891.31"/>
<polygon fill="#000000" stroke="#000000" points="208.68,-889.33 200.91,-882.13 202.49,-892.61 208.68,-889.33"/>
<text text-anchor="middle" x="394.98" y="-1108.75" font-family="Times,serif" font-size="32.00">be</text>
<text text-anchor="middle" x="394.98" y="-1073.75" font-family="Times,serif" font-size="32.00">=prog v</text>
</g>
<!-- prog&#45;&gt;perf -->
<g id="edge15" class="edge">
<title>prog&#45;&gt;perf</title>
<path fill="none" stroke="#000000" d="M660.06,-1041.18C605.22,-1002.59 495.33,-925.26 436.06,-883.55"/>
<polygon fill="#000000" stroke="#000000" points="437.89,-880.56 427.7,-877.67 433.86,-886.28 437.89,-880.56"/>
<text text-anchor="middle" x="530.98" y="-1040.75" font-family="Times,serif" font-size="32.00">ben</text>
<text text-anchor="middle" x="530.98" y="-1005.75" font-family="Times,serif" font-size="32.00">=prog perf</text>
</g>
<!-- perf&#45;&gt;t -->
<g id="edge38" class="edge">
<title>perf&#45;&gt;t</title>
<path fill="none" stroke="#000000" d="M443.14,-853.67C590.77,-848.65 1037.98,-835.3 1099.98,-855.35 1109.37,-858.38 1108.59,-865.31 1117.98,-868.35 1176.55,-887.29 1615.55,-892.94 1671.98,-868.35 1690.04,-860.48 1705.38,-844.97 1716.71,-830.44"/>
<polygon fill="#000000" stroke="#000000" points="1719.77,-832.19 1722.91,-822.07 1714.15,-828.03 1719.77,-832.19"/>
<text text-anchor="middle" x="1033.48" y="-934.75" font-family="Times,serif" font-size="32.00">haves |</text>
<text text-anchor="middle" x="1033.48" y="-899.75" font-family="Times,serif" font-size="32.00"> haved</text>
<text text-anchor="middle" x="1033.48" y="-864.75" font-family="Times,serif" font-size="32.00">=perf +k t</text>
</g>
<!-- perf&#45;&gt;v -->
<g id="edge39" class="edge">
<title>perf&#45;&gt;v</title>
<path fill="none" stroke="#000000" d="M346.69,-855.35C309.78,-855.35 259.24,-855.35 225.42,-855.35"/>
<polygon fill="#000000" stroke="#000000" points="225.07,-851.85 215.07,-855.35 225.07,-858.85 225.07,-851.85"/>
<text text-anchor="middle" x="279.98" y="-899.75" font-family="Times,serif" font-size="32.00">have</text>
<text text-anchor="middle" x="279.98" y="-864.75" font-family="Times,serif" font-size="32.00">=perf v</text>
</g>
<!-- pass&#45;&gt;t -->
<g id="edge16" class="edge">
<title>pass&#45;&gt;t</title>
<path fill="none" stroke="#000000" d="M2045.35,-313.79C1990.35,-360.66 1872.1,-468.85 1805.98,-584.35 1774.04,-640.14 1755.77,-713.18 1746.87,-757.61"/>
<polygon fill="#000000" stroke="#000000" points="1743.43,-756.97 1744.96,-767.45 1750.3,-758.3 1743.43,-756.97"/>
<text text-anchor="middle" x="1889.98" y="-663.75" font-family="Times,serif" font-size="32.00">bes_1 |</text>
<text text-anchor="middle" x="1889.98" y="-628.75" font-family="Times,serif" font-size="32.00"> bed_1</text>
<text text-anchor="middle" x="1889.98" y="-593.75" font-family="Times,serif" font-size="32.00">=pass +k t</text>
</g>
<!-- pass&#45;&gt;v -->
<g id="edge17" class="edge">
<title>pass&#45;&gt;v</title>
<path fill="none" stroke="#000000" d="M2025.43,-285.59C2009.06,-284.43 1990.75,-283.24 1973.98,-282.35 1585.82,-261.8 1488.62,-257.46 1099.98,-250.35 997.78,-248.48 972.2,-250.35 869.98,-250.35 869.98,-250.35 869.98,-250.35 393.98,-250.35 295.88,-250.35 276.27,-313.31 232.98,-401.35 197.45,-473.6 190.61,-717.51 189.29,-814.79"/>
<polygon fill="#000000" stroke="#000000" points="185.79,-814.79 189.17,-824.83 192.79,-814.87 185.79,-814.79"/>
<text text-anchor="middle" x="1033.48" y="-294.75" font-family="Times,serif" font-size="32.00">be_1</text>
<text text-anchor="middle" x="1033.48" y="-259.75" font-family="Times,serif" font-size="32.00">=pass v</text>
</g>
<!-- pass&#45;&gt;prog -->
<g id="edge19" class="edge">
<title>pass&#45;&gt;prog</title>
<path fill="none" stroke="#000000" d="M2074.06,-319.92C2070.56,-391.18 2053.84,-571.51 1973.98,-693.35 1882.67,-832.67 1826.29,-852.58 1671.98,-915.35 1518.14,-977.93 1433.69,-876.61 1303.98,-980.35 1287.8,-993.29 1302.91,-1011.41 1285.98,-1023.35 1240.79,-1055.22 844,-1044.77 788.98,-1050.35 777.92,-1051.47 766.17,-1052.97 754.86,-1054.57"/>
<polygon fill="#000000" stroke="#000000" points="754.02,-1051.16 744.63,-1056.07 755.03,-1058.09 754.02,-1051.16"/>
<text text-anchor="middle" x="1391.48" y="-1024.75" font-family="Times,serif" font-size="32.00">being</text>
<text text-anchor="middle" x="1391.48" y="-989.75" font-family="Times,serif" font-size="32.00">=pass prog</text>
</g>
<!-- pass&#45;&gt;perf -->
<g id="edge18" class="edge">
<title>pass&#45;&gt;perf</title>
<path fill="none" stroke="#000000" d="M2025.01,-288.21C1853.99,-284.71 1293.04,-276.61 1117.98,-316.35 1109.45,-318.29 1108.41,-321.99 1099.98,-324.35 965.79,-361.93 919.12,-314.5 788.98,-364.35 693.2,-401.03 693.32,-455.09 598.98,-495.35 542.22,-519.57 506.53,-479.63 462.98,-523.35 422.52,-563.96 404.83,-735.33 398.69,-814.69"/>
<polygon fill="#000000" stroke="#000000" points="395.19,-814.57 397.93,-824.81 402.17,-815.1 395.19,-814.57"/>
<text text-anchor="middle" x="1201.98" y="-360.75" font-family="Times,serif" font-size="32.00">ben_1</text>
<text text-anchor="middle" x="1201.98" y="-325.75" font-family="Times,serif" font-size="32.00">=pass perf</text>
</g>
<!-- c2&#45;&gt;0 -->
<g id="edge11" class="edge">
<title>c2&#45;&gt;0</title>
<path fill="none" stroke="#000000" d="M1362.25,-730.71C1334.08,-716.19 1293.88,-695.77 1285.98,-693.35 1283.42,-692.56 1139.55,-673.34 1070.59,-664.15"/>
<polygon fill="#000000" stroke="#000000" points="1070.97,-660.67 1060.6,-662.82 1070.05,-667.61 1070.97,-660.67"/>
<text text-anchor="middle" x="1201.98" y="-842.75" font-family="Times,serif" font-size="32.00">declare |</text>
<text text-anchor="middle" x="1201.98" y="-807.75" font-family="Times,serif" font-size="32.00"> think |</text>
<text text-anchor="middle" x="1201.98" y="-772.75" font-family="Times,serif" font-size="32.00"> explain |</text>
<text text-anchor="middle" x="1201.98" y="-737.75" font-family="Times,serif" font-size="32.00"> say</text>
<text text-anchor="middle" x="1201.98" y="-702.75" font-family="Times,serif" font-size="32.00">=c2 0</text>
</g>
<!-- 1 -->
<g id="node13" class="node">
<title>1</title>
<ellipse fill="none" stroke="black" cx="2075.98" cy="-1331.35" rx="27" ry="30.31"/>
<text text-anchor="middle" x="2075.98" y="-1323.25" font-family="Times,serif" font-size="32.00">1</text>
</g>
<!-- 1&#45;&gt;t -->
<g id="edge20" class="edge">
<title>1&#45;&gt;t</title>
<path fill="none" stroke="#000000" d="M2068.75,-1301.69C2056.55,-1247.86 2026.04,-1131.73 1973.98,-1046.35 1943.68,-996.64 1822.3,-876.79 1767.31,-823.57"/>
<polygon fill="#000000" stroke="#000000" points="1769.63,-820.95 1760,-816.52 1764.77,-825.98 1769.63,-820.95"/>
<text text-anchor="middle" x="1889.98" y="-1125.75" font-family="Times,serif" font-size="32.00">s_1 |</text>
<text text-anchor="middle" x="1889.98" y="-1090.75" font-family="Times,serif" font-size="32.00"> d_1</text>
<text text-anchor="middle" x="1889.98" y="-1055.75" font-family="Times,serif" font-size="32.00">=&gt;1 =to +k t</text>
</g>
<!-- 1&#45;&gt;t -->
<g id="edge25" class="edge">
<title>1&#45;&gt;t</title>
<path fill="none" stroke="#000000" d="M2065.41,-1303.3C2051.44,-1267.01 2021.81,-1204.84 1973.98,-1174.35 1910.44,-1133.83 1860.54,-1203.34 1805.98,-1151.35 1761.33,-1108.8 1746.3,-921.55 1741.76,-837.92"/>
<polygon fill="#000000" stroke="#000000" points="1745.25,-837.59 1741.23,-827.78 1738.26,-837.95 1745.25,-837.59"/>
<text text-anchor="middle" x="1889.98" y="-1253.75" font-family="Times,serif" font-size="32.00">s_2 |</text>
<text text-anchor="middle" x="1889.98" y="-1218.75" font-family="Times,serif" font-size="32.00"> d_2</text>
<text text-anchor="middle" x="1889.98" y="-1183.75" font-family="Times,serif" font-size="32.00">=&gt;1 =c1 +k t</text>
</g>
<!-- 1&#45;&gt;v -->
<g id="edge22" class="edge">
<title>1&#45;&gt;v</title>
<path fill="none" stroke="#000000" d="M2059.85,-1356.28C2042.55,-1382.38 2011.72,-1422.3 1973.98,-1442.35 1881.18,-1491.66 1845.07,-1476.35 1739.98,-1476.35 1739.98,-1476.35 1739.98,-1476.35 393.98,-1476.35 311.57,-1476.35 277.27,-1453.85 232.98,-1384.35 206.96,-1343.51 194.01,-1013.12 190.21,-896.18"/>
<polygon fill="#000000" stroke="#000000" points="193.69,-895.75 189.88,-885.87 186.7,-895.98 193.69,-895.75"/>
<text text-anchor="middle" x="1033.48" y="-1520.75" font-family="Times,serif" font-size="32.00">ε_1</text>
<text text-anchor="middle" x="1033.48" y="-1485.75" font-family="Times,serif" font-size="32.00">=&gt;1 =to v</text>
</g>
<!-- 1&#45;&gt;v -->
<g id="edge26" class="edge">
<title>1&#45;&gt;v</title>
<path fill="none" stroke="#000000" d="M2051.77,-1345.07C2031.83,-1356.19 2001.96,-1371.28 1973.98,-1379.35 1894,-1402.41 1870.68,-1391.82 1787.98,-1401.35 1736.45,-1407.28 1723.78,-1411.45 1671.98,-1414.35 1594.33,-1418.69 1574.76,-1415.27 1496.98,-1414.35 1328.5,-1412.35 1270.21,-1477.57 1117.98,-1405.35 1106.88,-1400.08 1110.99,-1389.82 1099.98,-1384.35 1008.28,-1338.75 972.39,-1370.35 869.98,-1370.35 869.98,-1370.35 869.98,-1370.35 393.98,-1370.35 291.83,-1370.35 218.11,-1016.12 195.93,-895.22"/>
<polygon fill="#000000" stroke="#000000" points="199.35,-894.48 194.12,-885.26 192.46,-895.73 199.35,-894.48"/>
<text text-anchor="middle" x="1033.48" y="-1428.75" font-family="Times,serif" font-size="32.00">ε_2</text>
<text text-anchor="middle" x="1033.48" y="-1393.75" font-family="Times,serif" font-size="32.00">=&gt;1 =c1 v</text>
</g>
<!-- 1&#45;&gt;prog -->
<g id="edge24" class="edge">
<title>1&#45;&gt;prog</title>
<path fill="none" stroke="#000000" d="M2048.97,-1332.25C2000.91,-1333.67 1894.96,-1335.67 1805.98,-1329.35 1577.46,-1313.12 988.76,-1272.48 788.98,-1160.35 762.59,-1145.53 738.8,-1121.07 721.75,-1100.54"/>
<polygon fill="#000000" stroke="#000000" points="724.34,-1098.18 715.33,-1092.61 718.9,-1102.59 724.34,-1098.18"/>
<text text-anchor="middle" x="1391.48" y="-1345.75" font-family="Times,serif" font-size="32.00">ing_1</text>
<text text-anchor="middle" x="1391.48" y="-1310.75" font-family="Times,serif" font-size="32.00">=&gt;1 =to prog</text>
</g>
<!-- 1&#45;&gt;prog -->
<g id="edge28" class="edge">
<title>1&#45;&gt;prog</title>
<path fill="none" stroke="#000000" d="M2048.82,-1330.13C2000.5,-1327.58 1894.16,-1320.51 1805.98,-1304.35 1666.11,-1278.72 1626.52,-1280.01 1496.98,-1221.35 1488.22,-1217.38 1488.18,-1212.15 1478.98,-1209.35 1474.19,-1207.89 1122.95,-1209.05 1117.98,-1208.35 1040.66,-1197.47 1024.18,-1181.37 948.98,-1160.35 877.95,-1140.49 857.28,-1144.17 788.98,-1116.35 772.09,-1109.47 754.38,-1100.25 738.95,-1091.49"/>
<polygon fill="#000000" stroke="#000000" points="740.56,-1088.38 730.15,-1086.41 737.06,-1094.44 740.56,-1088.38"/>
<text text-anchor="middle" x="1391.48" y="-1253.75" font-family="Times,serif" font-size="32.00">ing_2</text>
<text text-anchor="middle" x="1391.48" y="-1218.75" font-family="Times,serif" font-size="32.00">=&gt;1 =c1 prog</text>
</g>
<!-- 1&#45;&gt;perf -->
<g id="edge23" class="edge">
<title>1&#45;&gt;perf</title>
<path fill="none" stroke="#000000" d="M2049.35,-1324.75C2029,-1319.63 1999.78,-1312.56 1973.98,-1307.35 1899.78,-1292.37 1878.59,-1300.76 1805.98,-1279.35 1743.74,-1260.99 1734.7,-1238.03 1671.98,-1221.35 1216.02,-1100.08 1082.68,-1179.09 616.98,-1103.35 547.89,-1092.11 514.68,-1117.54 462.98,-1070.35 459.64,-1067.3 426.07,-956.15 407.76,-894.9"/>
<polygon fill="#000000" stroke="#000000" points="411.06,-893.74 404.85,-885.16 404.36,-895.74 411.06,-893.74"/>
<text text-anchor="middle" x="1201.98" y="-1196.75" font-family="Times,serif" font-size="32.00">n_1</text>
<text text-anchor="middle" x="1201.98" y="-1161.75" font-family="Times,serif" font-size="32.00">=&gt;1 =to perf</text>
</g>
<!-- 1&#45;&gt;perf -->
<g id="edge27" class="edge">
<title>1&#45;&gt;perf</title>
<path fill="none" stroke="#000000" d="M2049.38,-1336.73C1930.24,-1361.19 1430.64,-1457.24 1303.98,-1375.35 1287.61,-1364.76 1300.72,-1348.11 1285.98,-1335.35 1250.02,-1304.21 495.67,-1133.9 462.98,-1099.35 438.23,-1073.19 454.11,-1055.18 444.98,-1020.35 433.69,-977.26 418.93,-928.4 408.57,-895.1"/>
<polygon fill="#000000" stroke="#000000" points="411.83,-893.79 405.51,-885.29 405.15,-895.88 411.83,-893.79"/>
<text text-anchor="middle" x="1201.98" y="-1379.75" font-family="Times,serif" font-size="32.00">n_2</text>
<text text-anchor="middle" x="1201.98" y="-1344.75" font-family="Times,serif" font-size="32.00">=&gt;1 =c1 perf</text>
</g>
<!-- z3 -->
<g id="node14" class="node">
<title>z3</title>
<ellipse fill="none" stroke="black" stroke-dasharray="5,2" cx="2330.98" cy="-1607.35" rx="27" ry="18"/>
</g>
<!-- z3&#45;&gt;1 -->
<g id="edge21" class="edge">
<title>z3&#45;&gt;1</title>
<path fill="none" stroke="#000000" d="M2316.02,-1592.12C2275.26,-1547.65 2155.96,-1417.51 2102.92,-1359.64"/>
<polygon fill="#000000" stroke="#000000" points="2105.23,-1356.98 2095.89,-1351.98 2100.07,-1361.71 2105.23,-1356.98"/>
<text text-anchor="middle" x="2231.98" y="-1598.75" font-family="Times,serif" font-size="32.00">seem</text>
<text text-anchor="middle" x="2231.98" y="-1563.75" font-family="Times,serif" font-size="32.00">1</text>
</g>
<!-- 2 -->
<g id="node15" class="node">
<title>2</title>
<ellipse fill="none" stroke="black" cx="2330.98" cy="-910.35" rx="27" ry="30.31"/>
<text text-anchor="middle" x="2330.98" y="-902.25" font-family="Times,serif" font-size="32.00">2</text>
</g>
<!-- 2&#45;&gt;t -->
<g id="edge29" class="edge">
<title>2&#45;&gt;t</title>
<path fill="none" stroke="#000000" d="M2304.96,-901.38C2272.09,-889.9 2212.38,-870.1 2159.98,-858.35 2019.85,-826.93 1849.63,-807.99 1776.37,-800.74"/>
<polygon fill="#000000" stroke="#000000" points="1776.58,-797.25 1766.29,-799.76 1775.9,-804.21 1776.58,-797.25"/>
<text text-anchor="middle" x="2075.98" y="-937.75" font-family="Times,serif" font-size="32.00">s_3 |</text>
<text text-anchor="middle" x="2075.98" y="-902.75" font-family="Times,serif" font-size="32.00"> d_3</text>
<text text-anchor="middle" x="2075.98" y="-867.75" font-family="Times,serif" font-size="32.00">=&gt;2 =to +k t</text>
</g>
<!-- 2&#45;&gt;t -->
<g id="edge34" class="edge">
<title>2&#45;&gt;t</title>
<path fill="none" stroke="#000000" d="M2316.51,-884.26C2292.17,-840.39 2236.22,-753.3 2159.98,-719.35 2024.8,-659.14 1845.18,-740.18 1772.53,-778.85"/>
<polygon fill="#000000" stroke="#000000" points="1770.54,-775.95 1763.41,-783.79 1773.87,-782.11 1770.54,-775.95"/>
<text text-anchor="middle" x="2075.98" y="-798.75" font-family="Times,serif" font-size="32.00">s_4 |</text>
<text text-anchor="middle" x="2075.98" y="-763.75" font-family="Times,serif" font-size="32.00"> d_4</text>
<text text-anchor="middle" x="2075.98" y="-728.75" font-family="Times,serif" font-size="32.00">=&gt;2 =c1 +k t</text>
</g>
<!-- 2&#45;&gt;v -->
<g id="edge31" class="edge">
<title>2&#45;&gt;v</title>
<path fill="none" stroke="#000000" d="M2328.15,-940.69C2323.31,-1016.22 2308.91,-1210.91 2285.98,-1271.35 2227.96,-1424.31 2240.58,-1574.35 2076.98,-1574.35 2076.98,-1574.35 2076.98,-1574.35 393.98,-1574.35 300.6,-1574.35 275.62,-1522.43 232.98,-1439.35 208.32,-1391.28 194.28,-1020.43 190.22,-895.94"/>
<polygon fill="#000000" stroke="#000000" points="193.71,-895.58 189.89,-885.7 186.72,-895.81 193.71,-895.58"/>
<text text-anchor="middle" x="1201.98" y="-1618.75" font-family="Times,serif" font-size="32.00">ε_3</text>
<text text-anchor="middle" x="1201.98" y="-1583.75" font-family="Times,serif" font-size="32.00">=&gt;2 =to v</text>
</g>
<!-- 2&#45;&gt;v -->
<g id="edge35" class="edge">
<title>2&#45;&gt;v</title>
<path fill="none" stroke="#000000" d="M2327.34,-880.09C2322.31,-827.72 2309.7,-717.1 2285.98,-626.35 2251.31,-493.68 2215.99,-469.1 2177.98,-337.35 2167.04,-299.41 2189.54,-276.53 2159.98,-250.35 1784.82,82.07 1535.73,-178.35 1034.48,-178.35 1034.48,-178.35 1034.48,-178.35 393.98,-178.35 313.27,-178.35 277.35,-194.93 232.98,-262.35 202.76,-308.27 192.37,-688.34 189.73,-814.68"/>
<polygon fill="#000000" stroke="#000000" points="186.23,-814.66 189.53,-824.73 193.23,-814.8 186.23,-814.66"/>
<text text-anchor="middle" x="1201.98" y="-220.75" font-family="Times,serif" font-size="32.00">ε_5</text>
<text text-anchor="middle" x="1201.98" y="-185.75" font-family="Times,serif" font-size="32.00">=&gt;2 =c1 v</text>
</g>
<!-- 2&#45;&gt;prog -->
<g id="edge33" class="edge">
<title>2&#45;&gt;prog</title>
<path fill="none" stroke="#000000" d="M2305.1,-920.12C2272.39,-932.5 2212.85,-953.41 2159.98,-963.35 2014.84,-990.62 1617.76,-924.36 1496.98,-1009.35 1480.71,-1020.8 1495.55,-1039.32 1478.98,-1050.35 1419.51,-1089.95 930.31,-1074.01 756.21,-1067"/>
<polygon fill="#000000" stroke="#000000" points="756.32,-1063.5 746.18,-1066.59 756.03,-1070.49 756.32,-1063.5"/>
<text text-anchor="middle" x="1584.48" y="-1053.75" font-family="Times,serif" font-size="32.00">ing_3</text>
<text text-anchor="middle" x="1584.48" y="-1018.75" font-family="Times,serif" font-size="32.00">=&gt;2 =to prog</text>
</g>
<!-- 2&#45;&gt;prog -->
<g id="edge37" class="edge">
<title>2&#45;&gt;prog</title>
<path fill="none" stroke="#000000" d="M2312.97,-933.46C2305.59,-941.9 2296.27,-950.75 2285.98,-956.35 2235.9,-983.57 2216.27,-971.34 2159.98,-980.35 2003.32,-1005.42 1959.59,-986.65 1805.98,-1026.35 1743.98,-1042.37 1734.75,-1066.63 1671.98,-1079.35 1503.8,-1113.44 1457.57,-1086.35 1285.98,-1088.35 1144.21,-1090 1108.75,-1089.94 966.98,-1088.35 887.86,-1087.46 867.58,-1093.51 788.98,-1084.35 777.07,-1082.96 764.44,-1080.77 752.43,-1078.35"/>
<polygon fill="#000000" stroke="#000000" points="753.02,-1074.9 742.52,-1076.27 751.58,-1081.75 753.02,-1074.9"/>
<text text-anchor="middle" x="1584.48" y="-1140.75" font-family="Times,serif" font-size="32.00">ing_4</text>
<text text-anchor="middle" x="1584.48" y="-1105.75" font-family="Times,serif" font-size="32.00">=&gt;2 =c1 prog</text>
</g>
<!-- 2&#45;&gt;perf -->
<g id="edge36" class="edge">
<title>2&#45;&gt;perf</title>
<path fill="none" stroke="#000000" d="M2330.16,-879.67C2328.85,-840.2 2321.17,-771.38 2285.98,-726.35 2189.78,-603.23 2122.97,-611.41 1973.98,-564.35 1852.55,-525.99 1813.12,-558.84 1689.98,-526.35 1592.23,-500.55 1578.24,-460.59 1478.98,-441.35 1321.41,-410.8 1273.26,-410.72 1117.98,-451.35 803.97,-533.51 717.61,-573.06 462.98,-774.35 447.04,-786.95 432.28,-803.92 420.71,-819.07"/>
<polygon fill="#000000" stroke="#000000" points="417.77,-817.15 414.61,-827.26 423.39,-821.33 417.77,-817.15"/>
<text text-anchor="middle" x="1391.48" y="-485.75" font-family="Times,serif" font-size="32.00">n_3</text>
<text text-anchor="middle" x="1391.48" y="-450.75" font-family="Times,serif" font-size="32.00">=&gt;2 =c1 perf</text>
</g>
<!-- 2&#45;&gt;1 -->
<g id="edge32" class="edge">
<title>2&#45;&gt;1</title>
<path fill="none" stroke="#000000" d="M2321.6,-939.09C2313.88,-963.74 2301.33,-999.84 2285.98,-1029.35 2230.53,-1135.92 2143.49,-1249.22 2101.39,-1301.6"/>
<polygon fill="#000000" stroke="#000000" points="2098.6,-1299.5 2095.04,-1309.48 2104.04,-1303.9 2098.6,-1299.5"/>
<text text-anchor="middle" x="2231.98" y="-1241.75" font-family="Times,serif" font-size="32.00">ε_4</text>
<text text-anchor="middle" x="2231.98" y="-1206.75" font-family="Times,serif" font-size="32.00">=&gt;2 1</text>
</g>
<!-- z4 -->
<g id="node16" class="node">
<title>z4</title>
<ellipse fill="none" stroke="black" stroke-dasharray="5,2" cx="2513.98" cy="-910.35" rx="27" ry="18"/>
</g>
<!-- z4&#45;&gt;2 -->
<g id="edge30" class="edge">
<title>z4&#45;&gt;2</title>
<path fill="none" stroke="#000000" d="M2486.66,-910.35C2455.48,-910.35 2403.34,-910.35 2368.32,-910.35"/>
<polygon fill="#000000" stroke="#000000" points="2368.04,-906.85 2358.04,-910.35 2368.04,-913.85 2368.04,-906.85"/>
<text text-anchor="middle" x="2422.48" y="-954.75" font-family="Times,serif" font-size="32.00">appear</text>
<text text-anchor="middle" x="2422.48" y="-919.75" font-family="Times,serif" font-size="32.00">2</text>
</g>
<!-- z5 -->
<g id="node17" class="node">
<title>z5</title>
<ellipse fill="none" stroke="black" stroke-dasharray="5,2" cx="2666.98" cy="-976.35" rx="27" ry="18"/>
</g>
<!-- e -->
<g id="node18" class="node">
<title>e</title>
<ellipse fill="none" stroke="black" cx="2513.98" cy="-976.35" rx="27" ry="30.31"/>
<text text-anchor="middle" x="2513.98" y="-968.25" font-family="Times,serif" font-size="32.00">e</text>
</g>
<!-- z5&#45;&gt;e -->
<g id="edge40" class="edge">
<title>z5&#45;&gt;e</title>
<path fill="none" stroke="#000000" d="M2639.68,-976.35C2615.21,-976.35 2578.54,-976.35 2551.29,-976.35"/>
<polygon fill="#000000" stroke="#000000" points="2550.98,-972.85 2540.98,-976.35 2550.98,-979.85 2550.98,-972.85"/>
<text text-anchor="middle" x="2590.48" y="-1020.75" font-family="Times,serif" font-size="32.00">it</text>
<text text-anchor="middle" x="2590.48" y="-985.75" font-family="Times,serif" font-size="32.00">e &#45;k</text>
</g>
</g>
</svg>
