<?xml version="1.0" encoding="UTF-8" standalone="no"?>
<!DOCTYPE svg PUBLIC "-//W3C//DTD SVG 1.1//EN"
 "http://www.w3.org/Graphics/SVG/1.1/DTD/svg11.dtd">
<!-- Generated by graphviz version 2.47.1 (20210417.1919)
 -->
<!-- Title: G Pages: 1 -->
<svg width="2567pt" height="1397pt"
 viewBox="0.00 0.00 2566.81 1397.00" xmlns="http://www.w3.org/2000/svg" xmlns:xlink="http://www.w3.org/1999/xlink">
<g id="graph0" class="graph" transform="scale(1 1) rotate(0) translate(4 1393)">
<title>G</title>
<polygon fill="white" stroke="transparent" points="-4,4 -4,-1393 2562.81,-1393 2562.81,4 -4,4"/>
<text text-anchor="middle" x="1279.4" y="-13.4" font-family="Times,serif" font-size="32.00">single contraction: 2 → 1</text>
<!-- t -->
<g id="node1" class="node">
<title>t</title>
<ellipse fill="lightgray" stroke="black" cx="1669.98" cy="-589" rx="27" ry="30.31"/>
<text text-anchor="middle" x="1669.98" y="-580.9" font-family="Times,serif" font-size="32.00">t</text>
</g>
<!-- c2 -->
<g id="node12" class="node">
<title>c2</title>
<ellipse fill="none" stroke="black" cx="1391.48" cy="-866" rx="33.47" ry="30.31"/>
<text text-anchor="middle" x="1391.48" y="-857.9" font-family="Times,serif" font-size="32.00">c2</text>
</g>
<!-- t&#45;&gt;c2 -->
<g id="edge34" class="edge">
<title>t&#45;&gt;c2</title>
<path fill="none" stroke="#000000" d="M1659.88,-617.37C1649.44,-646.92 1630.17,-693.49 1602.98,-727 1555.87,-785.07 1477.97,-827.51 1431.3,-849.34"/>
<polygon fill="#000000" stroke="#000000" points="1429.75,-846.2 1422.12,-853.55 1432.67,-852.56 1429.75,-846.2"/>
<text text-anchor="middle" x="1549.98" y="-858.4" font-family="Times,serif" font-size="32.00">that_1</text>
<text text-anchor="middle" x="1549.98" y="-823.4" font-family="Times,serif" font-size="32.00">=t c2</text>
</g>
<!-- c1 -->
<g id="node18" class="node">
<title>c1</title>
<ellipse fill="none" stroke="black" cx="1391.48" cy="-647" rx="33.47" ry="30.31"/>
<text text-anchor="middle" x="1391.48" y="-638.9" font-family="Times,serif" font-size="32.00">c1</text>
</g>
<!-- t&#45;&gt;c1 -->
<g id="edge33" class="edge">
<title>t&#45;&gt;c1</title>
<path fill="none" stroke="#000000" d="M1643.28,-594.47C1631.08,-597.06 1616.28,-600.2 1602.98,-603 1544.42,-615.33 1476.68,-629.47 1434.2,-638.32"/>
<polygon fill="#000000" stroke="#000000" points="1433.3,-634.93 1424.23,-640.39 1434.73,-641.78 1433.3,-634.93"/>
<text text-anchor="middle" x="1549.98" y="-669.4" font-family="Times,serif" font-size="32.00">that</text>
<text text-anchor="middle" x="1549.98" y="-634.4" font-family="Times,serif" font-size="32.00">=t =e c1</text>
</g>
<!-- z0 -->
<g id="node2" class="node">
<title>z0</title>
<ellipse fill="none" stroke="black" stroke-dasharray="5,2" cx="2378.81" cy="-1212" rx="27" ry="18"/>
</g>
<!-- d -->
<g id="node3" class="node">
<title>d</title>
<ellipse fill="none" stroke="black" cx="2195.81" cy="-1113" rx="27" ry="30.31"/>
<text text-anchor="middle" x="2195.81" y="-1104.9" font-family="Times,serif" font-size="32.00">d</text>
</g>
<!-- z0&#45;&gt;d -->
<g id="edge1" class="edge">
<title>z0&#45;&gt;d</title>
<path fill="none" stroke="#000000" d="M2351.9,-1214.16C2322.4,-1215.3 2273.98,-1212.96 2240.81,-1190 2227.1,-1180.51 2217.11,-1165.27 2210.16,-1150.85"/>
<polygon fill="#000000" stroke="#000000" points="2213.28,-1149.26 2206.01,-1141.55 2206.89,-1152.11 2213.28,-1149.26"/>
<text text-anchor="middle" x="2287.31" y="-1363.4" font-family="Times,serif" font-size="32.00">Mary |</text>
<text text-anchor="middle" x="2287.31" y="-1328.4" font-family="Times,serif" font-size="32.00"> John |</text>
<text text-anchor="middle" x="2287.31" y="-1293.4" font-family="Times,serif" font-size="32.00"> Alice |</text>
<text text-anchor="middle" x="2287.31" y="-1258.4" font-family="Times,serif" font-size="32.00"> Bob</text>
<text text-anchor="middle" x="2287.31" y="-1223.4" font-family="Times,serif" font-size="32.00">d &#45;k</text>
</g>
<!-- 0 -->
<g id="node6" class="node">
<title>0</title>
<ellipse fill="none" stroke="black" cx="1033.48" cy="-802" rx="27" ry="30.31"/>
<text text-anchor="middle" x="1033.48" y="-793.9" font-family="Times,serif" font-size="32.00">0</text>
</g>
<!-- d&#45;&gt;0 -->
<g id="edge9" class="edge">
<title>d&#45;&gt;0</title>
<path fill="none" stroke="#000000" d="M2170.17,-1102.92C2120.85,-1083.35 2006.08,-1040.85 1904.98,-1026 1780.1,-1007.66 1746.12,-1009.48 1620.98,-1026 1468.14,-1046.17 1438.83,-1095.83 1285.98,-1116 1211.96,-1125.77 1177.18,-1161.51 1117.98,-1116 1074.58,-1082.63 1048.99,-919.32 1039.15,-842.32"/>
<polygon fill="#000000" stroke="#000000" points="1042.58,-841.54 1037.87,-832.05 1035.64,-842.41 1042.58,-841.54"/>
<text text-anchor="middle" x="1669.98" y="-1175.4" font-family="Times,serif" font-size="32.00">praise |</text>
<text text-anchor="middle" x="1669.98" y="-1140.4" font-family="Times,serif" font-size="32.00"> like |</text>
<text text-anchor="middle" x="1669.98" y="-1105.4" font-family="Times,serif" font-size="32.00"> kiss |</text>
<text text-anchor="middle" x="1669.98" y="-1070.4" font-family="Times,serif" font-size="32.00"> hug</text>
<text text-anchor="middle" x="1669.98" y="-1035.4" font-family="Times,serif" font-size="32.00">=d *k 0</text>
</g>
<!-- pass -->
<g id="node11" class="node">
<title>pass</title>
<ellipse fill="none" stroke="black" cx="1973.89" cy="-1215" rx="50.82" ry="30.31"/>
<text text-anchor="middle" x="1973.89" y="-1206.9" font-family="Times,serif" font-size="32.00">pass</text>
</g>
<!-- d&#45;&gt;pass -->
<g id="edge10" class="edge">
<title>d&#45;&gt;pass</title>
<path fill="none" stroke="#000000" d="M2170.43,-1124.31C2135.17,-1140.66 2069.19,-1171.26 2023.7,-1192.36"/>
<polygon fill="#000000" stroke="#000000" points="2022.2,-1189.2 2014.6,-1196.58 2025.15,-1195.55 2022.2,-1189.2"/>
<text text-anchor="middle" x="2096.81" y="-1331.4" font-family="Times,serif" font-size="32.00">praisen |</text>
<text text-anchor="middle" x="2096.81" y="-1296.4" font-family="Times,serif" font-size="32.00"> liken |</text>
<text text-anchor="middle" x="2096.81" y="-1261.4" font-family="Times,serif" font-size="32.00"> kissn |</text>
<text text-anchor="middle" x="2096.81" y="-1226.4" font-family="Times,serif" font-size="32.00"> hugn</text>
<text text-anchor="middle" x="2096.81" y="-1191.4" font-family="Times,serif" font-size="32.00">=d pass</text>
</g>
<!-- n -->
<g id="node4" class="node">
<title>n</title>
<ellipse fill="none" stroke="black" cx="2378.81" cy="-1014" rx="27" ry="30.31"/>
<text text-anchor="middle" x="2378.81" y="-1005.9" font-family="Times,serif" font-size="32.00">n</text>
</g>
<!-- n&#45;&gt;d -->
<g id="edge2" class="edge">
<title>n&#45;&gt;d</title>
<path fill="none" stroke="#000000" d="M2352.73,-1005.54C2323.34,-997.29 2274.4,-988.91 2240.81,-1011 2219.99,-1024.69 2208.97,-1050.55 2203.17,-1072.8"/>
<polygon fill="#000000" stroke="#000000" points="2199.72,-1072.18 2200.86,-1082.71 2206.54,-1073.77 2199.72,-1072.18"/>
<text text-anchor="middle" x="2287.31" y="-1160.4" font-family="Times,serif" font-size="32.00">this |</text>
<text text-anchor="middle" x="2287.31" y="-1125.4" font-family="Times,serif" font-size="32.00"> a |</text>
<text text-anchor="middle" x="2287.31" y="-1090.4" font-family="Times,serif" font-size="32.00"> the |</text>
<text text-anchor="middle" x="2287.31" y="-1055.4" font-family="Times,serif" font-size="32.00"> some</text>
<text text-anchor="middle" x="2287.31" y="-1020.4" font-family="Times,serif" font-size="32.00">=n d &#45;k</text>
</g>
<!-- z1 -->
<g id="node5" class="node">
<title>z1</title>
<ellipse fill="none" stroke="black" stroke-dasharray="5,2" cx="2531.81" cy="-1014" rx="27" ry="18"/>
</g>
<!-- z1&#45;&gt;n -->
<g id="edge3" class="edge">
<title>z1&#45;&gt;n</title>
<path fill="none" stroke="#000000" d="M2504.5,-1014C2480.04,-1014 2443.36,-1014 2416.11,-1014"/>
<polygon fill="#000000" stroke="#000000" points="2415.81,-1010.5 2405.81,-1014 2415.81,-1017.5 2415.81,-1010.5"/>
<text text-anchor="middle" x="2455.31" y="-1093.4" font-family="Times,serif" font-size="32.00">boy |</text>
<text text-anchor="middle" x="2455.31" y="-1058.4" font-family="Times,serif" font-size="32.00"> girl</text>
<text text-anchor="middle" x="2455.31" y="-1023.4" font-family="Times,serif" font-size="32.00">n</text>
</g>
<!-- 0&#45;&gt;t -->
<g id="edge4" class="edge">
<title>0&#45;&gt;t</title>
<path fill="none" stroke="#000000" d="M1051.93,-779.19C1067.18,-761.19 1091.05,-737.29 1117.98,-726 1217.53,-684.26 1510.56,-754.78 1602.98,-699 1629.41,-683.05 1646.57,-652.13 1656.75,-627.12"/>
<polygon fill="#000000" stroke="#000000" points="1660.11,-628.11 1660.44,-617.52 1653.58,-625.6 1660.11,-628.11"/>
<text text-anchor="middle" x="1391.48" y="-801.4" font-family="Times,serif" font-size="32.00">s |</text>
<text text-anchor="middle" x="1391.48" y="-766.4" font-family="Times,serif" font-size="32.00"> d</text>
<text text-anchor="middle" x="1391.48" y="-731.4" font-family="Times,serif" font-size="32.00">=&gt;0 =d +k t</text>
</g>
<!-- v -->
<g id="node8" class="node">
<title>v</title>
<ellipse fill="none" stroke="black" cx="187.98" cy="-567" rx="27" ry="30.31"/>
<text text-anchor="middle" x="187.98" y="-558.9" font-family="Times,serif" font-size="32.00">v</text>
</g>
<!-- 0&#45;&gt;v -->
<g id="edge6" class="edge">
<title>0&#45;&gt;v</title>
<path fill="none" stroke="#000000" d="M1007.69,-811.36C991.1,-817.58 968.77,-825.88 948.98,-833 807.74,-883.81 764.64,-922.02 616.98,-895 425.22,-859.91 339.94,-845.99 232.98,-683 217.47,-659.37 206.3,-629.47 199.1,-605.95"/>
<polygon fill="#000000" stroke="#000000" points="202.43,-604.9 196.25,-596.3 195.72,-606.88 202.43,-604.9"/>
<text text-anchor="middle" x="530.98" y="-936.4" font-family="Times,serif" font-size="32.00">ε_0</text>
<text text-anchor="middle" x="530.98" y="-901.4" font-family="Times,serif" font-size="32.00">=&gt;0 =d v</text>
</g>
<!-- prog -->
<g id="node9" class="node">
<title>prog</title>
<ellipse fill="none" stroke="black" cx="693.98" cy="-684" rx="52.15" ry="30.31"/>
<text text-anchor="middle" x="693.98" y="-675.9" font-family="Times,serif" font-size="32.00">prog</text>
</g>
<!-- 0&#45;&gt;prog -->
<g id="edge7" class="edge">
<title>0&#45;&gt;prog</title>
<path fill="none" stroke="#000000" d="M1016.2,-778.55C1001.17,-758.9 976.98,-731.9 948.98,-718 940.4,-713.74 828.34,-699.82 755.96,-691.16"/>
<polygon fill="#000000" stroke="#000000" points="755.93,-687.64 745.59,-689.93 755.1,-694.59 755.93,-687.64"/>
<text text-anchor="middle" x="868.98" y="-762.4" font-family="Times,serif" font-size="32.00">ing</text>
<text text-anchor="middle" x="868.98" y="-727.4" font-family="Times,serif" font-size="32.00">=&gt;0 =d prog</text>
</g>
<!-- perf -->
<g id="node10" class="node">
<title>perf</title>
<ellipse fill="none" stroke="black" cx="394.98" cy="-567" rx="48.17" ry="30.31"/>
<text text-anchor="middle" x="394.98" y="-558.9" font-family="Times,serif" font-size="32.00">perf</text>
</g>
<!-- 0&#45;&gt;perf -->
<g id="edge8" class="edge">
<title>0&#45;&gt;perf</title>
<path fill="none" stroke="#000000" d="M1006.78,-806.74C919.42,-821.3 630.11,-856.59 462.98,-721 444.42,-705.94 422.15,-646.99 408.53,-606.55"/>
<polygon fill="#000000" stroke="#000000" points="411.82,-605.35 405.35,-596.96 405.18,-607.56 411.82,-605.35"/>
<text text-anchor="middle" x="693.98" y="-865.4" font-family="Times,serif" font-size="32.00">n</text>
<text text-anchor="middle" x="693.98" y="-830.4" font-family="Times,serif" font-size="32.00">=&gt;0 =d perf</text>
</g>
<!-- z2 -->
<g id="node7" class="node">
<title>z2</title>
<ellipse fill="none" stroke="black" stroke-dasharray="5,2" cx="1391.48" cy="-940" rx="27" ry="18"/>
</g>
<!-- z2&#45;&gt;0 -->
<g id="edge5" class="edge">
<title>z2&#45;&gt;0</title>
<path fill="none" stroke="#000000" d="M1364.35,-940.63C1304.54,-941.64 1159.63,-941.5 1117.98,-918 1086.57,-900.27 1063.91,-865.28 1050.19,-838.34"/>
<polygon fill="#000000" stroke="#000000" points="1053.25,-836.63 1045.71,-829.19 1046.96,-839.71 1053.25,-836.63"/>
<text text-anchor="middle" x="1201.98" y="-1090.4" font-family="Times,serif" font-size="32.00">dance |</text>
<text text-anchor="middle" x="1201.98" y="-1055.4" font-family="Times,serif" font-size="32.00"> laugh |</text>
<text text-anchor="middle" x="1201.98" y="-1020.4" font-family="Times,serif" font-size="32.00"> smile |</text>
<text text-anchor="middle" x="1201.98" y="-985.4" font-family="Times,serif" font-size="32.00"> jump</text>
<text text-anchor="middle" x="1201.98" y="-950.4" font-family="Times,serif" font-size="32.00">0</text>
</g>
<!-- v&#45;&gt;t -->
<g id="edge12" class="edge">
<title>v&#45;&gt;t</title>
<path fill="none" stroke="#000000" d="M214.59,-560.33C245.45,-552.35 298.9,-538.74 344.98,-528 609.7,-466.31 678.35,-406.68 948.98,-432 1108.85,-446.95 1145.95,-470.61 1303.98,-499 1436.67,-522.83 1476.41,-503.61 1602.98,-550 1615.09,-554.44 1627.48,-561.1 1638.22,-567.67"/>
<polygon fill="#000000" stroke="#000000" points="1636.48,-570.71 1646.8,-573.12 1640.23,-564.8 1636.48,-570.71"/>
<text text-anchor="middle" x="868.98" y="-511.4" font-family="Times,serif" font-size="32.00">wills |</text>
<text text-anchor="middle" x="868.98" y="-476.4" font-family="Times,serif" font-size="32.00"> willd</text>
<text text-anchor="middle" x="868.98" y="-441.4" font-family="Times,serif" font-size="32.00">=v +k t</text>
</g>
<!-- to -->
<g id="node17" class="node">
<title>to</title>
<ellipse fill="none" stroke="black" cx="28.99" cy="-567" rx="28.98" ry="30.31"/>
<text text-anchor="middle" x="28.99" y="-558.9" font-family="Times,serif" font-size="32.00">to</text>
</g>
<!-- v&#45;&gt;to -->
<g id="edge32" class="edge">
<title>v&#45;&gt;to</title>
<path fill="none" stroke="#000000" d="M160.71,-567C135.44,-567 96.96,-567 68.29,-567"/>
<polygon fill="#000000" stroke="#000000" points="68.21,-563.5 58.21,-567 68.21,-570.5 68.21,-563.5"/>
<text text-anchor="middle" x="109.48" y="-611.4" font-family="Times,serif" font-size="32.00">to</text>
<text text-anchor="middle" x="109.48" y="-576.4" font-family="Times,serif" font-size="32.00">=v to</text>
</g>
<!-- prog&#45;&gt;t -->
<g id="edge13" class="edge">
<title>prog&#45;&gt;t</title>
<path fill="none" stroke="#000000" d="M745.99,-687.87C842.3,-694.1 1046.13,-701.75 1099.98,-660 1120.64,-643.98 1097.07,-619.69 1117.98,-604 1199.11,-543.15 1523.57,-572.78 1632.85,-584.77"/>
<polygon fill="#000000" stroke="#000000" points="1632.71,-588.28 1643.03,-585.91 1633.48,-581.32 1632.71,-588.28"/>
<text text-anchor="middle" x="1201.98" y="-683.4" font-family="Times,serif" font-size="32.00">bes |</text>
<text text-anchor="middle" x="1201.98" y="-648.4" font-family="Times,serif" font-size="32.00"> bed</text>
<text text-anchor="middle" x="1201.98" y="-613.4" font-family="Times,serif" font-size="32.00">=prog +k t</text>
</g>
<!-- prog&#45;&gt;v -->
<g id="edge14" class="edge">
<title>prog&#45;&gt;v</title>
<path fill="none" stroke="#000000" d="M653.26,-703.46C636.87,-710.46 617.42,-717.5 598.98,-721 539.6,-732.27 522.58,-731.07 462.98,-721 356.27,-702.97 316.83,-709.44 232.98,-641 220.85,-631.09 211.27,-616.9 204.2,-603.58"/>
<polygon fill="#000000" stroke="#000000" points="207.29,-601.95 199.7,-594.56 201.03,-605.08 207.29,-601.95"/>
<text text-anchor="middle" x="394.98" y="-762.4" font-family="Times,serif" font-size="32.00">be</text>
<text text-anchor="middle" x="394.98" y="-727.4" font-family="Times,serif" font-size="32.00">=prog v</text>
</g>
<!-- prog&#45;&gt;perf -->
<g id="edge15" class="edge">
<title>prog&#45;&gt;perf</title>
<path fill="none" stroke="#000000" d="M650.11,-667.11C596.05,-645.82 503.27,-609.26 446.02,-586.71"/>
<polygon fill="#000000" stroke="#000000" points="447.04,-583.35 436.46,-582.94 444.48,-589.87 447.04,-583.35"/>
<text text-anchor="middle" x="530.98" y="-691.4" font-family="Times,serif" font-size="32.00">ben</text>
<text text-anchor="middle" x="530.98" y="-656.4" font-family="Times,serif" font-size="32.00">=prog perf</text>
</g>
<!-- perf&#45;&gt;t -->
<g id="edge29" class="edge">
<title>perf&#45;&gt;t</title>
<path fill="none" stroke="#000000" d="M442.75,-562.92C501.23,-558.18 604.42,-551 692.98,-551 1392.48,-551 1392.48,-551 1392.48,-551 1486.38,-551 1510.77,-551.29 1602.98,-569 1613.3,-570.98 1624.3,-573.95 1634.3,-577.01"/>
<polygon fill="#000000" stroke="#000000" points="1633.32,-580.37 1643.91,-580.05 1635.43,-573.69 1633.32,-580.37"/>
<text text-anchor="middle" x="1033.48" y="-630.4" font-family="Times,serif" font-size="32.00">haves |</text>
<text text-anchor="middle" x="1033.48" y="-595.4" font-family="Times,serif" font-size="32.00"> haved</text>
<text text-anchor="middle" x="1033.48" y="-560.4" font-family="Times,serif" font-size="32.00">=perf +k t</text>
</g>
<!-- perf&#45;&gt;v -->
<g id="edge30" class="edge">
<title>perf&#45;&gt;v</title>
<path fill="none" stroke="#000000" d="M346.69,-567C309.78,-567 259.24,-567 225.42,-567"/>
<polygon fill="#000000" stroke="#000000" points="225.07,-563.5 215.07,-567 225.07,-570.5 225.07,-563.5"/>
<text text-anchor="middle" x="279.98" y="-611.4" font-family="Times,serif" font-size="32.00">have</text>
<text text-anchor="middle" x="279.98" y="-576.4" font-family="Times,serif" font-size="32.00">=perf v</text>
</g>
<!-- pass&#45;&gt;t -->
<g id="edge16" class="edge">
<title>pass&#45;&gt;t</title>
<path fill="none" stroke="#000000" d="M1958.74,-1185.65C1909.01,-1082.53 1742.41,-737.09 1688.19,-624.68"/>
<polygon fill="#000000" stroke="#000000" points="1691.24,-622.94 1683.74,-615.46 1684.93,-625.98 1691.24,-622.94"/>
<text text-anchor="middle" x="1820.98" y="-1143.4" font-family="Times,serif" font-size="32.00">bes_1 |</text>
<text text-anchor="middle" x="1820.98" y="-1108.4" font-family="Times,serif" font-size="32.00"> bed_1</text>
<text text-anchor="middle" x="1820.98" y="-1073.4" font-family="Times,serif" font-size="32.00">=pass +k t</text>
</g>
<!-- pass&#45;&gt;v -->
<g id="edge17" class="edge">
<title>pass&#45;&gt;v</title>
<path fill="none" stroke="#000000" d="M1937.55,-1236.46C1927.34,-1241.9 1915.97,-1247.26 1904.98,-1251 1805.11,-1285.03 1776.49,-1291 1670.98,-1291 1670.98,-1291 1670.98,-1291 393.98,-1291 250.94,-1291 202.61,-761.19 191.63,-608.01"/>
<polygon fill="#000000" stroke="#000000" points="195.09,-607.38 190.9,-597.65 188.11,-607.87 195.09,-607.38"/>
<text text-anchor="middle" x="1033.48" y="-1335.4" font-family="Times,serif" font-size="32.00">be_1</text>
<text text-anchor="middle" x="1033.48" y="-1300.4" font-family="Times,serif" font-size="32.00">=pass v</text>
</g>
<!-- pass&#45;&gt;prog -->
<g id="edge19" class="edge">
<title>pass&#45;&gt;prog</title>
<path fill="none" stroke="#000000" d="M1922.82,-1215.86C1854.36,-1216.39 1727.83,-1215.05 1620.98,-1201 1556.84,-1192.57 1542.95,-1178.64 1478.98,-1169 1399.42,-1157.01 1190.57,-1175.72 1117.98,-1141 1016.13,-1092.28 798.88,-818.82 722.35,-719.8"/>
<polygon fill="#000000" stroke="#000000" points="725.11,-717.65 716.23,-711.87 719.57,-721.93 725.11,-717.65"/>
<text text-anchor="middle" x="1391.48" y="-1213.4" font-family="Times,serif" font-size="32.00">being</text>
<text text-anchor="middle" x="1391.48" y="-1178.4" font-family="Times,serif" font-size="32.00">=pass prog</text>
</g>
<!-- pass&#45;&gt;perf -->
<g id="edge18" class="edge">
<title>pass&#45;&gt;perf</title>
<path fill="none" stroke="#000000" d="M1925.16,-1224.34C1918.4,-1225.4 1911.53,-1226.33 1904.98,-1227 1772.09,-1240.54 1419.29,-1306.44 1303.98,-1239 1289.9,-1230.76 1298.98,-1216.86 1285.98,-1207 1224.75,-1160.55 1189.82,-1193.31 1117.98,-1166 1009.49,-1124.75 669.33,-944.7 616.98,-892 605.21,-880.15 610.35,-871.25 598.98,-859 550.02,-806.22 504.76,-829.63 462.98,-771 443.59,-743.79 454.85,-729.93 444.98,-698 435.25,-666.53 422.07,-631.62 411.83,-605.76"/>
<polygon fill="#000000" stroke="#000000" points="415.02,-604.31 408.07,-596.32 408.52,-606.9 415.02,-604.31"/>
<text text-anchor="middle" x="1201.98" y="-1251.4" font-family="Times,serif" font-size="32.00">ben_1</text>
<text text-anchor="middle" x="1201.98" y="-1216.4" font-family="Times,serif" font-size="32.00">=pass perf</text>
</g>
<!-- c2&#45;&gt;0 -->
<g id="edge11" class="edge">
<title>c2&#45;&gt;0</title>
<path fill="none" stroke="#000000" d="M1359.31,-857.53C1340.57,-850.86 1317.76,-839.67 1303.98,-822 1281.84,-793.6 1314.13,-765.46 1285.98,-743 1256.8,-719.72 1153.56,-731.7 1117.98,-743 1097.43,-749.53 1077.58,-763.15 1062.39,-775.66"/>
<polygon fill="#000000" stroke="#000000" points="1059.78,-773.29 1054.46,-782.45 1064.33,-778.61 1059.78,-773.29"/>
<text text-anchor="middle" x="1201.98" y="-892.4" font-family="Times,serif" font-size="32.00">declare |</text>
<text text-anchor="middle" x="1201.98" y="-857.4" font-family="Times,serif" font-size="32.00"> think |</text>
<text text-anchor="middle" x="1201.98" y="-822.4" font-family="Times,serif" font-size="32.00"> explain |</text>
<text text-anchor="middle" x="1201.98" y="-787.4" font-family="Times,serif" font-size="32.00"> say</text>
<text text-anchor="middle" x="1201.98" y="-752.4" font-family="Times,serif" font-size="32.00">=c2 0</text>
</g>
<!-- 1 -->
<g id="node13" class="node">
<title>1</title>
<ellipse fill="none" stroke="black" cx="1973.89" cy="-286" rx="27" ry="30.31"/>
<text text-anchor="middle" x="1973.89" y="-277.9" font-family="Times,serif" font-size="32.00">1</text>
</g>
<!-- 1&#45;&gt;t -->
<g id="edge20" class="edge">
<title>1&#45;&gt;t</title>
<path fill="none" stroke="#000000" d="M1969.69,-316.5C1962.24,-381.14 1941.55,-528.67 1904.98,-561 1850.18,-609.45 1757.79,-603.88 1707.05,-596.12"/>
<polygon fill="#000000" stroke="#000000" points="1707.32,-592.61 1696.88,-594.45 1706.18,-599.52 1707.32,-592.61"/>
<text text-anchor="middle" x="1820.98" y="-681.4" font-family="Times,serif" font-size="32.00">s_1 |</text>
<text text-anchor="middle" x="1820.98" y="-646.4" font-family="Times,serif" font-size="32.00"> d_1</text>
<text text-anchor="middle" x="1820.98" y="-611.4" font-family="Times,serif" font-size="32.00">=&gt;1 =to +k t</text>
</g>
<!-- 1&#45;&gt;t -->
<g id="edge25" class="edge">
<title>1&#45;&gt;t</title>
<path fill="none" stroke="#000000" d="M1967.48,-315.71C1959.74,-348.98 1942.13,-401.81 1904.98,-429 1844.16,-473.51 1797.92,-407.66 1736.98,-452 1705.1,-475.19 1687.96,-517.95 1679.2,-549.55"/>
<polygon fill="#000000" stroke="#000000" points="1675.78,-548.82 1676.65,-559.38 1682.55,-550.58 1675.78,-548.82"/>
<text text-anchor="middle" x="1820.98" y="-531.4" font-family="Times,serif" font-size="32.00">s_2 |</text>
<text text-anchor="middle" x="1820.98" y="-496.4" font-family="Times,serif" font-size="32.00"> d_2</text>
<text text-anchor="middle" x="1820.98" y="-461.4" font-family="Times,serif" font-size="32.00">=&gt;1 =c1 +k t</text>
</g>
<!-- 1&#45;&gt;v -->
<g id="edge22" class="edge">
<title>1&#45;&gt;v</title>
<path fill="none" stroke="#000000" d="M1962.38,-258.3C1951.5,-232.98 1932.24,-196.06 1904.98,-173 1819.67,-100.83 1782.73,-81 1670.98,-81 1670.98,-81 1670.98,-81 393.98,-81 311.57,-81 278.25,-104.13 232.98,-173 195.3,-230.34 189.62,-437.38 188.96,-526.14"/>
<polygon fill="#000000" stroke="#000000" points="185.46,-526.34 188.9,-536.36 192.46,-526.38 185.46,-526.34"/>
<text text-anchor="middle" x="1033.48" y="-125.4" font-family="Times,serif" font-size="32.00">ε_1</text>
<text text-anchor="middle" x="1033.48" y="-90.4" font-family="Times,serif" font-size="32.00">=&gt;1 =to v</text>
</g>
<!-- 1&#45;&gt;v -->
<g id="edge26" class="edge">
<title>1&#45;&gt;v</title>
<path fill="none" stroke="#000000" d="M1955.1,-263.72C1942.61,-249.7 1924.67,-232.52 1904.98,-223 1810.25,-177.21 1776.21,-187 1670.98,-187 1670.98,-187 1670.98,-187 393.98,-187 241.02,-187 201.66,-428.46 191.98,-526.43"/>
<polygon fill="#000000" stroke="#000000" points="188.48,-526.26 191.04,-536.55 195.45,-526.91 188.48,-526.26"/>
<text text-anchor="middle" x="1033.48" y="-231.4" font-family="Times,serif" font-size="32.00">ε_2</text>
<text text-anchor="middle" x="1033.48" y="-196.4" font-family="Times,serif" font-size="32.00">=&gt;1 =c1 v</text>
</g>
<!-- 1&#45;&gt;prog -->
<g id="edge24" class="edge">
<title>1&#45;&gt;prog</title>
<path fill="none" stroke="#000000" d="M1950.1,-300.54C1937.26,-308.17 1920.7,-317.13 1904.98,-323 1505.15,-472.37 1362.98,-369.74 966.98,-529 958.28,-532.5 957.06,-535.24 948.98,-540 877.08,-582.34 792.62,-629.77 741.49,-658.24"/>
<polygon fill="#000000" stroke="#000000" points="739.68,-655.24 732.65,-663.15 743.09,-661.35 739.68,-655.24"/>
<text text-anchor="middle" x="1391.48" y="-481.4" font-family="Times,serif" font-size="32.00">ing_1</text>
<text text-anchor="middle" x="1391.48" y="-446.4" font-family="Times,serif" font-size="32.00">=&gt;1 =to prog</text>
</g>
<!-- 1&#45;&gt;prog -->
<g id="edge28" class="edge">
<title>1&#45;&gt;prog</title>
<path fill="none" stroke="#000000" d="M1946.57,-284.87C1835.9,-280.61 1409.23,-269.46 1303.98,-345 1287.82,-356.6 1302.35,-374.69 1285.98,-386 1195,-448.87 877.35,-345.5 788.98,-412 716.15,-466.81 699.39,-581.65 695.77,-643.11"/>
<polygon fill="#000000" stroke="#000000" points="692.26,-643.06 695.26,-653.22 699.26,-643.41 692.26,-643.06"/>
<text text-anchor="middle" x="1391.48" y="-389.4" font-family="Times,serif" font-size="32.00">ing_2</text>
<text text-anchor="middle" x="1391.48" y="-354.4" font-family="Times,serif" font-size="32.00">=&gt;1 =c1 prog</text>
</g>
<!-- 1&#45;&gt;perf -->
<g id="edge23" class="edge">
<title>1&#45;&gt;perf</title>
<path fill="none" stroke="#000000" d="M1950.45,-270.37C1937.73,-262.41 1921.16,-253.48 1904.98,-249 1820.67,-225.63 1191.91,-176.21 1117.98,-223 1102.19,-232.99 1115.04,-249.94 1099.98,-261 869.61,-430.25 680.68,-164.74 462.98,-350 411.4,-393.9 398.88,-476.59 396.22,-526.25"/>
<polygon fill="#000000" stroke="#000000" points="392.72,-526.18 395.79,-536.32 399.71,-526.48 392.72,-526.18"/>
<text text-anchor="middle" x="1201.98" y="-267.4" font-family="Times,serif" font-size="32.00">n_1</text>
<text text-anchor="middle" x="1201.98" y="-232.4" font-family="Times,serif" font-size="32.00">=&gt;1 =to perf</text>
</g>
<!-- 1&#45;&gt;perf -->
<g id="edge27" class="edge">
<title>1&#45;&gt;perf</title>
<path fill="none" stroke="#000000" d="M1946.84,-282.21C1934.23,-280.55 1918.85,-278.81 1904.98,-278 1778.98,-270.6 1747.18,-276.42 1620.98,-279 1565.85,-280.13 1552.07,-280.68 1496.98,-283 1411.17,-286.61 1389.62,-286.41 1303.98,-293 1072.16,-310.84 1009.25,-310.53 788.98,-385 658.1,-429.25 512.63,-503.74 440.95,-542.27"/>
<polygon fill="#000000" stroke="#000000" points="438.88,-539.4 431.75,-547.23 442.21,-545.56 438.88,-539.4"/>
<text text-anchor="middle" x="1201.98" y="-353.4" font-family="Times,serif" font-size="32.00">n_2</text>
<text text-anchor="middle" x="1201.98" y="-318.4" font-family="Times,serif" font-size="32.00">=&gt;1 =c1 perf</text>
</g>
<!-- z3 -->
<g id="node14" class="node">
<title>z3</title>
<ellipse fill="none" stroke="black" stroke-dasharray="5,2" cx="2195.81" cy="-286" rx="27" ry="18"/>
</g>
<!-- z3&#45;&gt;1 -->
<g id="edge21" class="edge">
<title>z3&#45;&gt;1</title>
<path fill="none" stroke="#000000" d="M2168.72,-286C2129.53,-286 2055.37,-286 2011.01,-286"/>
<polygon fill="#000000" stroke="#000000" points="2010.95,-282.5 2000.95,-286 2010.95,-289.5 2010.95,-282.5"/>
<text text-anchor="middle" x="2096.81" y="-365.4" font-family="Times,serif" font-size="32.00">seem |</text>
<text text-anchor="middle" x="2096.81" y="-330.4" font-family="Times,serif" font-size="32.00"> appear</text>
<text text-anchor="middle" x="2096.81" y="-295.4" font-family="Times,serif" font-size="32.00">1</text>
</g>
<!-- z4 -->
<g id="node15" class="node">
<title>z4</title>
<ellipse fill="none" stroke="black" stroke-dasharray="5,2" cx="2531.81" cy="-1278" rx="27" ry="18"/>
</g>
<!-- e -->
<g id="node16" class="node">
<title>e</title>
<ellipse fill="none" stroke="black" cx="2378.81" cy="-1278" rx="27" ry="30.31"/>
<text text-anchor="middle" x="2378.81" y="-1269.9" font-family="Times,serif" font-size="32.00">e</text>
</g>
<!-- z4&#45;&gt;e -->
<g id="edge31" class="edge">
<title>z4&#45;&gt;e</title>
<path fill="none" stroke="#000000" d="M2504.5,-1278C2480.04,-1278 2443.36,-1278 2416.11,-1278"/>
<polygon fill="#000000" stroke="#000000" points="2415.81,-1274.5 2405.81,-1278 2415.81,-1281.5 2415.81,-1274.5"/>
<text text-anchor="middle" x="2455.31" y="-1322.4" font-family="Times,serif" font-size="32.00">it</text>
<text text-anchor="middle" x="2455.31" y="-1287.4" font-family="Times,serif" font-size="32.00">e &#45;k</text>
</g>
</g>
</svg>
