<?xml version="1.0" encoding="UTF-8" standalone="no"?>
<!DOCTYPE svg PUBLIC "-//W3C//DTD SVG 1.1//EN"
 "http://www.w3.org/Graphics/SVG/1.1/DTD/svg11.dtd">
<!-- Generated by graphviz version 2.47.1 (20210417.1919)
 -->
<!-- Title: G Pages: 1 -->
<svg width="1986pt" height="1507pt"
 viewBox="0.00 0.00 1986.27 1507.21" xmlns="http://www.w3.org/2000/svg" xmlns:xlink="http://www.w3.org/1999/xlink">
<g id="graph0" class="graph" transform="scale(1 1) rotate(0) translate(4 1503.21)">
<title>G</title>
<polygon fill="white" stroke="transparent" points="-4,4 -4,-1503.21 1982.27,-1503.21 1982.27,4 -4,4"/>
<text text-anchor="middle" x="989.14" y="-13.4" font-family="Times,serif" font-size="32.00">single contraction: 3 → 2</text>
<!-- t -->
<g id="node1" class="node">
<title>t</title>
<ellipse fill="lightgray" stroke="black" cx="1798.27" cy="-1327.21" rx="27" ry="30.31"/>
<text text-anchor="middle" x="1798.27" y="-1319.11" font-family="Times,serif" font-size="32.00">t</text>
</g>
<!-- c2 -->
<g id="node14" class="node">
<title>c2</title>
<ellipse fill="none" stroke="black" cx="1596.04" cy="-843.21" rx="33.47" ry="30.31"/>
<text text-anchor="middle" x="1596.04" y="-835.11" font-family="Times,serif" font-size="32.00">c2</text>
</g>
<!-- t&#45;&gt;c2 -->
<g id="edge43" class="edge">
<title>t&#45;&gt;c2</title>
<path fill="none" stroke="#000000" d="M1785.94,-1299.8C1752.06,-1217.91 1651.53,-974.93 1612.65,-880.93"/>
<polygon fill="#000000" stroke="#000000" points="1615.81,-879.43 1608.75,-871.52 1609.34,-882.1 1615.81,-879.43"/>
<text text-anchor="middle" x="1700.27" y="-1255.61" font-family="Times,serif" font-size="32.00">that_1</text>
<text text-anchor="middle" x="1700.27" y="-1220.61" font-family="Times,serif" font-size="32.00">=t c2</text>
</g>
<!-- c1 -->
<g id="node20" class="node">
<title>c1</title>
<ellipse fill="none" stroke="black" cx="1596.04" cy="-1369.21" rx="33.47" ry="30.31"/>
<text text-anchor="middle" x="1596.04" y="-1361.11" font-family="Times,serif" font-size="32.00">c1</text>
</g>
<!-- t&#45;&gt;c1 -->
<g id="edge42" class="edge">
<title>t&#45;&gt;c1</title>
<path fill="none" stroke="#000000" d="M1771.02,-1327.78C1740.66,-1329.03 1689.46,-1332.96 1647.27,-1345.21 1642.93,-1346.47 1638.49,-1348.08 1634.14,-1349.85"/>
<polygon fill="#000000" stroke="#000000" points="1632.57,-1346.72 1624.83,-1353.96 1635.39,-1353.13 1632.57,-1346.72"/>
<text text-anchor="middle" x="1700.27" y="-1389.61" font-family="Times,serif" font-size="32.00">that</text>
<text text-anchor="middle" x="1700.27" y="-1354.61" font-family="Times,serif" font-size="32.00">=t =e c1</text>
</g>
<!-- z0 -->
<g id="node2" class="node">
<title>z0</title>
<ellipse fill="none" stroke="black" stroke-dasharray="5,2" cx="1798.27" cy="-300.21" rx="27" ry="18"/>
</g>
<!-- d -->
<g id="node3" class="node">
<title>d</title>
<ellipse fill="none" stroke="black" cx="1596.04" cy="-399.21" rx="27" ry="30.31"/>
<text text-anchor="middle" x="1596.04" y="-391.11" font-family="Times,serif" font-size="32.00">d</text>
</g>
<!-- z0&#45;&gt;d -->
<g id="edge1" class="edge">
<title>z0&#45;&gt;d</title>
<path fill="none" stroke="#000000" d="M1773.11,-293.2C1741.61,-285.57 1685.97,-277.38 1647.27,-301.21 1626.47,-314.02 1613.92,-338.45 1606.57,-359.72"/>
<polygon fill="#000000" stroke="#000000" points="1603.15,-358.93 1603.45,-369.52 1609.82,-361.05 1603.15,-358.93"/>
<text text-anchor="middle" x="1700.27" y="-450.61" font-family="Times,serif" font-size="32.00">Mary |</text>
<text text-anchor="middle" x="1700.27" y="-415.61" font-family="Times,serif" font-size="32.00"> John |</text>
<text text-anchor="middle" x="1700.27" y="-380.61" font-family="Times,serif" font-size="32.00"> Alice |</text>
<text text-anchor="middle" x="1700.27" y="-345.61" font-family="Times,serif" font-size="32.00"> Bob</text>
<text text-anchor="middle" x="1700.27" y="-310.61" font-family="Times,serif" font-size="32.00">d &#45;k</text>
</g>
<!-- 1 -->
<g id="node7" class="node">
<title>1</title>
<ellipse fill="none" stroke="black" cx="1357.89" cy="-300.21" rx="27" ry="30.31"/>
<text text-anchor="middle" x="1357.89" y="-292.11" font-family="Times,serif" font-size="32.00">1</text>
</g>
<!-- d&#45;&gt;1 -->
<g id="edge12" class="edge">
<title>d&#45;&gt;1</title>
<path fill="none" stroke="#000000" d="M1589.27,-369.27C1582.87,-345.18 1569.95,-312.85 1544.81,-297.21 1498.92,-268.66 1433.53,-278.74 1393.78,-289.13"/>
<polygon fill="#000000" stroke="#000000" points="1392.72,-285.79 1384.01,-291.82 1394.58,-292.54 1392.72,-285.79"/>
<text text-anchor="middle" x="1485.81" y="-446.61" font-family="Times,serif" font-size="32.00">praise |</text>
<text text-anchor="middle" x="1485.81" y="-411.61" font-family="Times,serif" font-size="32.00"> like |</text>
<text text-anchor="middle" x="1485.81" y="-376.61" font-family="Times,serif" font-size="32.00"> kiss |</text>
<text text-anchor="middle" x="1485.81" y="-341.61" font-family="Times,serif" font-size="32.00"> hug</text>
<text text-anchor="middle" x="1485.81" y="-306.61" font-family="Times,serif" font-size="32.00">=d *k 1</text>
</g>
<!-- pass -->
<g id="node13" class="node">
<title>pass</title>
<ellipse fill="none" stroke="black" cx="1357.89" cy="-438.21" rx="50.82" ry="30.31"/>
<text text-anchor="middle" x="1357.89" y="-430.11" font-family="Times,serif" font-size="32.00">pass</text>
</g>
<!-- d&#45;&gt;pass -->
<g id="edge13" class="edge">
<title>d&#45;&gt;pass</title>
<path fill="none" stroke="#000000" d="M1584.86,-427.29C1576.88,-444.79 1563.89,-465.87 1544.81,-476.21 1498.69,-501.19 1477.55,-489.44 1426.81,-476.21 1418.07,-473.93 1409.26,-470.25 1401.02,-466.06"/>
<polygon fill="#000000" stroke="#000000" points="1402.45,-462.85 1391.99,-461.15 1399.11,-469 1402.45,-462.85"/>
<text text-anchor="middle" x="1485.81" y="-640.61" font-family="Times,serif" font-size="32.00">praisen |</text>
<text text-anchor="middle" x="1485.81" y="-605.61" font-family="Times,serif" font-size="32.00"> liken |</text>
<text text-anchor="middle" x="1485.81" y="-570.61" font-family="Times,serif" font-size="32.00"> kissn |</text>
<text text-anchor="middle" x="1485.81" y="-535.61" font-family="Times,serif" font-size="32.00"> hugn</text>
<text text-anchor="middle" x="1485.81" y="-500.61" font-family="Times,serif" font-size="32.00">=d pass</text>
</g>
<!-- n -->
<g id="node4" class="node">
<title>n</title>
<ellipse fill="none" stroke="black" cx="1798.27" cy="-498.21" rx="27" ry="30.31"/>
<text text-anchor="middle" x="1798.27" y="-490.11" font-family="Times,serif" font-size="32.00">n</text>
</g>
<!-- n&#45;&gt;d -->
<g id="edge2" class="edge">
<title>n&#45;&gt;d</title>
<path fill="none" stroke="#000000" d="M1771.18,-500.57C1739.38,-502.13 1685.19,-500.47 1647.27,-476.21 1632.24,-466.59 1620.76,-450.69 1612.59,-435.83"/>
<polygon fill="#000000" stroke="#000000" points="1615.62,-434.06 1607.93,-426.77 1609.4,-437.26 1615.62,-434.06"/>
<text text-anchor="middle" x="1700.27" y="-650.61" font-family="Times,serif" font-size="32.00">this |</text>
<text text-anchor="middle" x="1700.27" y="-615.61" font-family="Times,serif" font-size="32.00"> a |</text>
<text text-anchor="middle" x="1700.27" y="-580.61" font-family="Times,serif" font-size="32.00"> the |</text>
<text text-anchor="middle" x="1700.27" y="-545.61" font-family="Times,serif" font-size="32.00"> some</text>
<text text-anchor="middle" x="1700.27" y="-510.61" font-family="Times,serif" font-size="32.00">=n d &#45;k</text>
</g>
<!-- z1 -->
<g id="node5" class="node">
<title>z1</title>
<ellipse fill="none" stroke="black" stroke-dasharray="5,2" cx="1951.27" cy="-498.21" rx="27" ry="18"/>
</g>
<!-- z1&#45;&gt;n -->
<g id="edge3" class="edge">
<title>z1&#45;&gt;n</title>
<path fill="none" stroke="#000000" d="M1923.97,-498.21C1899.5,-498.21 1862.83,-498.21 1835.58,-498.21"/>
<polygon fill="#000000" stroke="#000000" points="1835.27,-494.71 1825.27,-498.21 1835.27,-501.71 1835.27,-494.71"/>
<text text-anchor="middle" x="1874.77" y="-577.61" font-family="Times,serif" font-size="32.00">boy |</text>
<text text-anchor="middle" x="1874.77" y="-542.61" font-family="Times,serif" font-size="32.00"> girl</text>
<text text-anchor="middle" x="1874.77" y="-507.61" font-family="Times,serif" font-size="32.00">n</text>
</g>
<!-- 0 -->
<g id="node6" class="node">
<title>0</title>
<ellipse fill="none" stroke="black" cx="27" cy="-613.21" rx="27" ry="30.31"/>
<text text-anchor="middle" x="27" y="-605.11" font-family="Times,serif" font-size="32.00">0</text>
</g>
<!-- 0&#45;&gt;t -->
<g id="edge4" class="edge">
<title>0&#45;&gt;t</title>
<path fill="none" stroke="#000000" d="M27.58,-643.71C26.33,-791.85 30.45,-1429.21 193.99,-1429.21 1597.04,-1429.21 1597.04,-1429.21 1597.04,-1429.21 1666.76,-1429.21 1697.8,-1457.44 1753.27,-1415.21 1771.4,-1401.41 1761,-1387.55 1771.27,-1367.21 1772.57,-1364.65 1773.99,-1362.04 1775.48,-1359.46"/>
<polygon fill="#000000" stroke="#000000" points="1778.53,-1361.18 1780.72,-1350.82 1772.54,-1357.55 1778.53,-1361.18"/>
<text text-anchor="middle" x="841.98" y="-1473.61" font-family="Times,serif" font-size="32.00">s</text>
<text text-anchor="middle" x="841.98" y="-1438.61" font-family="Times,serif" font-size="32.00">=&gt;0 +k t</text>
</g>
<!-- 1&#45;&gt;0 -->
<g id="edge5" class="edge">
<title>1&#45;&gt;0</title>
<path fill="none" stroke="#000000" d="M1348.83,-271.46C1339.29,-242.88 1320.57,-199.95 1288.98,-176.21 1188.78,-100.9 1138.33,-118.21 1012.98,-118.21 1012.98,-118.21 1012.98,-118.21 193.99,-118.21 98.31,-118.21 47.55,-454.89 32.69,-572.92"/>
<polygon fill="#000000" stroke="#000000" points="29.2,-572.64 31.45,-582.99 36.15,-573.5 29.2,-572.64"/>
<text text-anchor="middle" x="538.48" y="-162.61" font-family="Times,serif" font-size="32.00">ε_0</text>
<text text-anchor="middle" x="538.48" y="-127.61" font-family="Times,serif" font-size="32.00">=&gt;1 =d 0</text>
</g>
<!-- 2 -->
<g id="node9" class="node">
<title>2</title>
<ellipse fill="none" stroke="black" cx="194.99" cy="-731.21" rx="27" ry="30.31"/>
<text text-anchor="middle" x="194.99" y="-723.11" font-family="Times,serif" font-size="32.00">2</text>
</g>
<!-- 1&#45;&gt;2 -->
<g id="edge8" class="edge">
<title>1&#45;&gt;2</title>
<path fill="none" stroke="#000000" d="M1336.99,-280.44C1324.32,-269.08 1306.96,-255.64 1288.98,-248.21 1013.93,-134.5 909.49,-97.6 622.98,-178.21 613.96,-180.75 613.67,-185.69 604.98,-189.21 548.83,-211.98 526.73,-193.24 471.98,-219.21 354.7,-274.84 304.2,-285.29 241.98,-399.21 221.34,-437.01 230.24,-549.59 223.98,-592.21 219,-626.12 211.16,-664.25 205.04,-691.99"/>
<polygon fill="#000000" stroke="#000000" points="201.55,-691.56 202.79,-702.08 208.39,-693.08 201.55,-691.56"/>
<text text-anchor="middle" x="689.48" y="-222.61" font-family="Times,serif" font-size="32.00">ε_1</text>
<text text-anchor="middle" x="689.48" y="-187.61" font-family="Times,serif" font-size="32.00">=&gt;1 =d 2</text>
</g>
<!-- v -->
<g id="node10" class="node">
<title>v</title>
<ellipse fill="none" stroke="black" cx="403.98" cy="-645.21" rx="27" ry="30.31"/>
<text text-anchor="middle" x="403.98" y="-637.11" font-family="Times,serif" font-size="32.00">v</text>
</g>
<!-- 1&#45;&gt;v -->
<g id="edge9" class="edge">
<title>1&#45;&gt;v</title>
<path fill="none" stroke="#000000" d="M1330.98,-296.74C1248.55,-286.44 985.43,-259.3 773.98,-301.21 702.82,-315.31 680.69,-319.24 622.98,-363.21 574.58,-400.09 471.89,-546.74 426.88,-612.73"/>
<polygon fill="#000000" stroke="#000000" points="423.91,-610.88 421.18,-621.12 429.7,-614.82 423.91,-610.88"/>
<text text-anchor="middle" x="841.98" y="-345.61" font-family="Times,serif" font-size="32.00">ε_2</text>
<text text-anchor="middle" x="841.98" y="-310.61" font-family="Times,serif" font-size="32.00">=&gt;1 =d v</text>
</g>
<!-- prog -->
<g id="node11" class="node">
<title>prog</title>
<ellipse fill="none" stroke="black" cx="1011.98" cy="-858.21" rx="52.15" ry="30.31"/>
<text text-anchor="middle" x="1011.98" y="-850.11" font-family="Times,serif" font-size="32.00">prog</text>
</g>
<!-- 1&#45;&gt;prog -->
<g id="edge10" class="edge">
<title>1&#45;&gt;prog</title>
<path fill="none" stroke="#000000" d="M1344.91,-326.91C1330.23,-358.54 1305.29,-408.53 1288.98,-421.21 1225.4,-470.64 1164.63,-405.6 1113.98,-468.21 1065.56,-528.07 1137.38,-749.29 1095.98,-814.21 1089.13,-824.95 1078.73,-833.24 1067.59,-839.56"/>
<polygon fill="#000000" stroke="#000000" points="1065.83,-836.53 1058.55,-844.22 1069.04,-842.75 1065.83,-836.53"/>
<text text-anchor="middle" x="1201.48" y="-512.61" font-family="Times,serif" font-size="32.00">ing</text>
<text text-anchor="middle" x="1201.48" y="-477.61" font-family="Times,serif" font-size="32.00">=&gt;1 =d prog</text>
</g>
<!-- perf -->
<g id="node12" class="node">
<title>perf</title>
<ellipse fill="none" stroke="black" cx="689.48" cy="-637.21" rx="48.17" ry="30.31"/>
<text text-anchor="middle" x="689.48" y="-629.11" font-family="Times,serif" font-size="32.00">perf</text>
</g>
<!-- 1&#45;&gt;perf -->
<g id="edge11" class="edge">
<title>1&#45;&gt;perf</title>
<path fill="none" stroke="#000000" d="M1331.59,-307.08C1249.63,-329.7 993.07,-403.52 927.98,-458.21 915.79,-468.46 922.05,-478.81 909.98,-489.21 860.72,-531.67 827.24,-505.89 773.98,-543.21 751.46,-558.99 730.88,-582.01 715.79,-601.32"/>
<polygon fill="#000000" stroke="#000000" points="712.95,-599.26 709.66,-609.33 718.52,-603.51 712.95,-599.26"/>
<text text-anchor="middle" x="1011.98" y="-502.61" font-family="Times,serif" font-size="32.00">n</text>
<text text-anchor="middle" x="1011.98" y="-467.61" font-family="Times,serif" font-size="32.00">=&gt;1 =d perf</text>
</g>
<!-- z2 -->
<g id="node8" class="node">
<title>z2</title>
<ellipse fill="none" stroke="black" stroke-dasharray="5,2" cx="1596.04" cy="-102.21" rx="27" ry="18"/>
</g>
<!-- z2&#45;&gt;1 -->
<g id="edge6" class="edge">
<title>z2&#45;&gt;1</title>
<path fill="none" stroke="#000000" d="M1571.83,-94.04C1536.82,-83.32 1470.02,-69.25 1426.81,-100.21 1376.37,-136.35 1362.94,-212.09 1359.63,-259.29"/>
<polygon fill="#000000" stroke="#000000" points="1356.12,-259.3 1359.04,-269.48 1363.11,-259.7 1356.12,-259.3"/>
<text text-anchor="middle" x="1485.81" y="-249.61" font-family="Times,serif" font-size="32.00">dance |</text>
<text text-anchor="middle" x="1485.81" y="-214.61" font-family="Times,serif" font-size="32.00"> laugh |</text>
<text text-anchor="middle" x="1485.81" y="-179.61" font-family="Times,serif" font-size="32.00"> smile |</text>
<text text-anchor="middle" x="1485.81" y="-144.61" font-family="Times,serif" font-size="32.00"> jump</text>
<text text-anchor="middle" x="1485.81" y="-109.61" font-family="Times,serif" font-size="32.00">1</text>
</g>
<!-- 2&#45;&gt;t -->
<g id="edge7" class="edge">
<title>2&#45;&gt;t</title>
<path fill="none" stroke="#000000" d="M199.58,-761.44C213.18,-860.47 271.38,-1175.77 471.98,-1297.21 554.47,-1347.15 592.06,-1311.21 688.48,-1311.21 1597.04,-1311.21 1597.04,-1311.21 1597.04,-1311.21 1654.66,-1311.21 1721.32,-1317.88 1761.34,-1322.6"/>
<polygon fill="#000000" stroke="#000000" points="1761.06,-1326.09 1771.41,-1323.82 1761.9,-1319.14 1761.06,-1326.09"/>
<text text-anchor="middle" x="1011.98" y="-1355.61" font-family="Times,serif" font-size="32.00">d</text>
<text text-anchor="middle" x="1011.98" y="-1320.61" font-family="Times,serif" font-size="32.00">=&gt;2 +k t</text>
</g>
<!-- 2&#45;&gt;0 -->
<g id="edge15" class="edge">
<title>2&#45;&gt;0</title>
<path fill="none" stroke="#000000" d="M171.61,-715.3C142.44,-694.56 91.33,-658.23 58.6,-634.96"/>
<polygon fill="#000000" stroke="#000000" points="60.47,-632 50.3,-629.06 56.42,-637.71 60.47,-632"/>
<text text-anchor="middle" x="110" y="-741.61" font-family="Times,serif" font-size="32.00">ε_3</text>
<text text-anchor="middle" x="110" y="-706.61" font-family="Times,serif" font-size="32.00">=&gt;2 0</text>
</g>
<!-- v&#45;&gt;2 -->
<g id="edge16" class="edge">
<title>v&#45;&gt;2</title>
<path fill="none" stroke="#000000" d="M377.71,-638.18C344.09,-630.38 284.03,-621.94 241.98,-647.21 225.42,-657.16 214.42,-675.38 207.34,-692.32"/>
<polygon fill="#000000" stroke="#000000" points="203.92,-691.48 203.62,-702.07 210.46,-693.98 203.92,-691.48"/>
<text text-anchor="middle" x="288.98" y="-691.61" font-family="Times,serif" font-size="32.00">will</text>
<text text-anchor="middle" x="288.98" y="-656.61" font-family="Times,serif" font-size="32.00">=v 2</text>
</g>
<!-- to -->
<g id="node19" class="node">
<title>to</title>
<ellipse fill="none" stroke="black" cx="194.99" cy="-553.21" rx="28.98" ry="30.31"/>
<text text-anchor="middle" x="194.99" y="-545.11" font-family="Times,serif" font-size="32.00">to</text>
</g>
<!-- v&#45;&gt;to -->
<g id="edge41" class="edge">
<title>v&#45;&gt;to</title>
<path fill="none" stroke="#000000" d="M390.77,-618.37C379.71,-597.57 361.26,-570.19 335.98,-557.21 304.25,-540.92 262.91,-541.99 233.4,-545.87"/>
<polygon fill="#000000" stroke="#000000" points="232.87,-542.41 223.49,-547.33 233.9,-549.33 232.87,-542.41"/>
<text text-anchor="middle" x="288.98" y="-601.61" font-family="Times,serif" font-size="32.00">to</text>
<text text-anchor="middle" x="288.98" y="-566.61" font-family="Times,serif" font-size="32.00">=v to</text>
</g>
<!-- prog&#45;&gt;0 -->
<g id="edge17" class="edge">
<title>prog&#45;&gt;0</title>
<path fill="none" stroke="#000000" d="M976,-835.99C961.1,-826.38 943.58,-814.91 927.98,-804.21 919.84,-798.63 919.02,-795.18 909.98,-791.21 853.49,-766.37 826.44,-795.72 773.98,-763.21 762.95,-756.37 766.1,-748.35 755.98,-740.21 704.88,-699.08 668.77,-723.19 622.98,-676.21 609.38,-662.25 617.61,-651.07 604.98,-636.21 552.86,-574.87 529.86,-563.06 453.98,-536.21 332.97,-493.38 288.2,-474.91 166,-514.21 122.5,-528.2 81.1,-561.53 55.19,-585.66"/>
<polygon fill="#000000" stroke="#000000" points="52.5,-583.39 47.66,-592.82 57.32,-588.46 52.5,-583.39"/>
<text text-anchor="middle" x="403.98" y="-580.61" font-family="Times,serif" font-size="32.00">be</text>
<text text-anchor="middle" x="403.98" y="-545.61" font-family="Times,serif" font-size="32.00">=prog 0</text>
</g>
<!-- prog&#45;&gt;2 -->
<g id="edge18" class="edge">
<title>prog&#45;&gt;2</title>
<path fill="none" stroke="#000000" d="M959.45,-859.01C825.11,-860.58 466.83,-861.34 353.98,-827.21 304.84,-812.35 255.43,-778.58 225.27,-755.33"/>
<polygon fill="#000000" stroke="#000000" points="227.32,-752.49 217.29,-749.08 223,-758 227.32,-752.49"/>
<text text-anchor="middle" x="538.48" y="-899.61" font-family="Times,serif" font-size="32.00">be_1</text>
<text text-anchor="middle" x="538.48" y="-864.61" font-family="Times,serif" font-size="32.00">=prog 2</text>
</g>
<!-- prog&#45;&gt;v -->
<g id="edge19" class="edge">
<title>prog&#45;&gt;v</title>
<path fill="none" stroke="#000000" d="M960.89,-850.86C910.82,-841.86 832.99,-823.28 773.98,-788.21 764.26,-782.43 766,-775.47 755.98,-770.21 642.36,-710.58 584.31,-780.25 471.98,-718.21 454.2,-708.38 438.56,-692.08 426.87,-677.38"/>
<polygon fill="#000000" stroke="#000000" points="429.65,-675.24 420.8,-669.42 424.09,-679.49 429.65,-675.24"/>
<text text-anchor="middle" x="689.48" y="-814.61" font-family="Times,serif" font-size="32.00">be_2</text>
<text text-anchor="middle" x="689.48" y="-779.61" font-family="Times,serif" font-size="32.00">=prog v</text>
</g>
<!-- prog&#45;&gt;perf -->
<g id="edge20" class="edge">
<title>prog&#45;&gt;perf</title>
<path fill="none" stroke="#000000" d="M965.71,-843.53C951.54,-836.77 937.21,-827.26 927.98,-814.21 896.59,-769.82 948.04,-732.03 909.98,-693.21 867.07,-649.43 833.03,-686.68 773.98,-670.21 762.37,-666.97 750.15,-662.68 738.76,-658.26"/>
<polygon fill="#000000" stroke="#000000" points="739.99,-654.99 729.41,-654.54 737.41,-661.49 739.99,-654.99"/>
<text text-anchor="middle" x="841.98" y="-737.61" font-family="Times,serif" font-size="32.00">ben</text>
<text text-anchor="middle" x="841.98" y="-702.61" font-family="Times,serif" font-size="32.00">=prog perf</text>
</g>
<!-- perf&#45;&gt;0 -->
<g id="edge37" class="edge">
<title>perf&#45;&gt;0</title>
<path fill="none" stroke="#000000" d="M680.44,-607.16C669.37,-571.71 646.01,-513.51 604.98,-481.21 507.92,-404.79 458.52,-426.89 335.98,-411.21 215.58,-395.8 154.82,-392.48 72,-481.21 48.59,-506.3 37.61,-544.19 32.47,-572.95"/>
<polygon fill="#000000" stroke="#000000" points="28.98,-572.66 30.84,-583.09 35.89,-573.77 28.98,-572.66"/>
<text text-anchor="middle" x="288.98" y="-455.61" font-family="Times,serif" font-size="32.00">have</text>
<text text-anchor="middle" x="288.98" y="-420.61" font-family="Times,serif" font-size="32.00">=perf 0</text>
</g>
<!-- perf&#45;&gt;2 -->
<g id="edge38" class="edge">
<title>perf&#45;&gt;2</title>
<path fill="none" stroke="#000000" d="M668.54,-664.87C653.43,-683.39 630.88,-706.29 604.98,-717.21 476.76,-771.29 305.33,-750.81 231.86,-738.21"/>
<polygon fill="#000000" stroke="#000000" points="232.21,-734.71 221.75,-736.41 230.99,-741.61 232.21,-734.71"/>
<text text-anchor="middle" x="403.98" y="-797.61" font-family="Times,serif" font-size="32.00">have_1</text>
<text text-anchor="middle" x="403.98" y="-762.61" font-family="Times,serif" font-size="32.00">=perf 2</text>
</g>
<!-- perf&#45;&gt;v -->
<g id="edge39" class="edge">
<title>perf&#45;&gt;v</title>
<path fill="none" stroke="#000000" d="M641.35,-638.54C585.2,-640.12 492.59,-642.74 441.56,-644.18"/>
<polygon fill="#000000" stroke="#000000" points="441.22,-640.69 431.33,-644.47 441.42,-647.68 441.22,-640.69"/>
<text text-anchor="middle" x="538.48" y="-688.61" font-family="Times,serif" font-size="32.00">have_2</text>
<text text-anchor="middle" x="538.48" y="-653.61" font-family="Times,serif" font-size="32.00">=perf v</text>
</g>
<!-- pass&#45;&gt;0 -->
<g id="edge21" class="edge">
<title>pass&#45;&gt;0</title>
<path fill="none" stroke="#000000" d="M1336.13,-410.58C1323.92,-396.2 1307.3,-379.5 1288.98,-369.21 1138.14,-284.44 1081.86,-300.12 909.98,-280.21 716.24,-257.77 663.83,-272.08 471.98,-307.21 290.39,-340.46 199.23,-285.45 72,-419.21 51.33,-440.94 38.46,-522.45 32.31,-572.64"/>
<polygon fill="#000000" stroke="#000000" points="28.81,-572.5 31.1,-582.85 35.76,-573.33 28.81,-572.5"/>
<text text-anchor="middle" x="538.48" y="-351.61" font-family="Times,serif" font-size="32.00">be_3</text>
<text text-anchor="middle" x="538.48" y="-316.61" font-family="Times,serif" font-size="32.00">=pass 0</text>
</g>
<!-- pass&#45;&gt;2 -->
<g id="edge22" class="edge">
<title>pass&#45;&gt;2</title>
<path fill="none" stroke="#000000" d="M1334.35,-410.9C1322.32,-398.46 1306.42,-385.02 1288.98,-378.21 1254.51,-364.75 659.09,-377.13 622.98,-385.21 496.09,-413.59 435.06,-398.56 353.98,-500.21 326.09,-535.17 365.83,-565.9 335.98,-599.21 306.89,-631.68 274.7,-598.4 241.98,-627.21 222.97,-643.95 211.46,-670.05 204.71,-691.91"/>
<polygon fill="#000000" stroke="#000000" points="201.32,-691.03 201.93,-701.61 208.05,-692.96 201.32,-691.03"/>
<text text-anchor="middle" x="689.48" y="-429.61" font-family="Times,serif" font-size="32.00">be_4</text>
<text text-anchor="middle" x="689.48" y="-394.61" font-family="Times,serif" font-size="32.00">=pass 2</text>
</g>
<!-- pass&#45;&gt;v -->
<g id="edge23" class="edge">
<title>pass&#45;&gt;v</title>
<path fill="none" stroke="#000000" d="M1312.97,-423.5C1305.04,-421.17 1296.81,-418.96 1288.98,-417.21 1131.95,-382.19 1086.8,-364.44 927.98,-390.21 919.66,-391.56 918.19,-394.29 909.98,-396.21 850.56,-410.14 822.17,-377.76 773.98,-415.21 757.3,-428.17 770.17,-443.55 755.98,-459.21 665.75,-558.85 509.44,-614.58 439.99,-635.51"/>
<polygon fill="#000000" stroke="#000000" points="438.99,-632.16 430.39,-638.35 440.97,-638.87 438.99,-632.16"/>
<text text-anchor="middle" x="841.98" y="-459.61" font-family="Times,serif" font-size="32.00">be_5</text>
<text text-anchor="middle" x="841.98" y="-424.61" font-family="Times,serif" font-size="32.00">=pass v</text>
</g>
<!-- pass&#45;&gt;prog -->
<g id="edge25" class="edge">
<title>pass&#45;&gt;prog</title>
<path fill="none" stroke="#000000" d="M1340.92,-467.01C1328.23,-488.74 1309.28,-518.71 1288.98,-542.21 1221.08,-620.85 1163.73,-605.99 1113.98,-697.21 1088.79,-743.4 1126.47,-771.33 1095.98,-814.21 1088.68,-824.49 1078.21,-832.57 1067.16,-838.85"/>
<polygon fill="#000000" stroke="#000000" points="1065.48,-835.78 1058.22,-843.5 1068.71,-841.99 1065.48,-835.78"/>
<text text-anchor="middle" x="1201.48" y="-741.61" font-family="Times,serif" font-size="32.00">being</text>
<text text-anchor="middle" x="1201.48" y="-706.61" font-family="Times,serif" font-size="32.00">=pass prog</text>
</g>
<!-- pass&#45;&gt;perf -->
<g id="edge24" class="edge">
<title>pass&#45;&gt;perf</title>
<path fill="none" stroke="#000000" d="M1339.54,-466.76C1327.58,-483.67 1310.08,-503.77 1288.98,-514.21 1144.75,-585.58 1084.71,-505.69 927.98,-542.21 858.99,-558.29 783.77,-591.21 736.87,-613.75"/>
<polygon fill="#000000" stroke="#000000" points="735.06,-610.74 727.59,-618.25 738.11,-617.03 735.06,-610.74"/>
<text text-anchor="middle" x="1011.98" y="-586.61" font-family="Times,serif" font-size="32.00">ben_1</text>
<text text-anchor="middle" x="1011.98" y="-551.61" font-family="Times,serif" font-size="32.00">=pass perf</text>
</g>
<!-- c2&#45;&gt;1 -->
<g id="edge14" class="edge">
<title>c2&#45;&gt;1</title>
<path fill="none" stroke="#000000" d="M1572.35,-821.6C1528.38,-779.48 1435.11,-688.87 1426.81,-670.21 1402.26,-615.07 1424.71,-457.43 1408.81,-399.21 1402.44,-375.91 1390.33,-351.67 1379.63,-333.01"/>
<polygon fill="#000000" stroke="#000000" points="1382.61,-331.17 1374.52,-324.32 1376.57,-334.72 1382.61,-331.17"/>
<text text-anchor="middle" x="1485.81" y="-943.61" font-family="Times,serif" font-size="32.00">declare |</text>
<text text-anchor="middle" x="1485.81" y="-908.61" font-family="Times,serif" font-size="32.00"> think |</text>
<text text-anchor="middle" x="1485.81" y="-873.61" font-family="Times,serif" font-size="32.00"> explain |</text>
<text text-anchor="middle" x="1485.81" y="-838.61" font-family="Times,serif" font-size="32.00"> say</text>
<text text-anchor="middle" x="1485.81" y="-803.61" font-family="Times,serif" font-size="32.00">=c2 1</text>
</g>
<!-- 3 -->
<g id="node15" class="node">
<title>3</title>
<ellipse fill="none" stroke="black" cx="1357.89" cy="-975.21" rx="27" ry="30.31"/>
<text text-anchor="middle" x="1357.89" y="-967.11" font-family="Times,serif" font-size="32.00">3</text>
</g>
<!-- 3&#45;&gt;0 -->
<g id="edge26" class="edge">
<title>3&#45;&gt;0</title>
<path fill="none" stroke="#000000" d="M1343.87,-1001.25C1332.29,-1021.64 1313.4,-1049.01 1288.98,-1064.21 1161.78,-1143.38 750.88,-1247.25 622.98,-1169.21 608.05,-1160.1 617.33,-1146.6 604.98,-1134.21 516.28,-1045.25 460.19,-1071.32 353.98,-1004.21 301.16,-970.83 290.46,-958.64 241.98,-919.21 164.27,-856.01 125.46,-855.92 72,-771.21 49.21,-735.09 38.02,-687.06 32.66,-653.48"/>
<polygon fill="#000000" stroke="#000000" points="36.12,-652.92 31.18,-643.55 29.19,-653.95 36.12,-652.92"/>
<text text-anchor="middle" x="538.48" y="-1178.61" font-family="Times,serif" font-size="32.00">ε_4</text>
<text text-anchor="middle" x="538.48" y="-1143.61" font-family="Times,serif" font-size="32.00">=&gt;3 =to 0</text>
</g>
<!-- 3&#45;&gt;0 -->
<g id="edge32" class="edge">
<title>3&#45;&gt;0</title>
<path fill="none" stroke="#000000" d="M1349.45,-1004.23C1340.11,-1035.27 1321.28,-1084.06 1288.98,-1114.21 1192.2,-1204.53 1145.36,-1226.21 1012.98,-1226.21 1012.98,-1226.21 1012.98,-1226.21 193.99,-1226.21 74.98,-1226.21 38.65,-790.31 30.18,-653.67"/>
<polygon fill="#000000" stroke="#000000" points="33.67,-653.38 29.58,-643.61 26.69,-653.8 33.67,-653.38"/>
<text text-anchor="middle" x="538.48" y="-1270.61" font-family="Times,serif" font-size="32.00">ε_7</text>
<text text-anchor="middle" x="538.48" y="-1235.61" font-family="Times,serif" font-size="32.00">=&gt;3 =c1 0</text>
</g>
<!-- 3&#45;&gt;2 -->
<g id="edge28" class="edge">
<title>3&#45;&gt;2</title>
<path fill="none" stroke="#000000" d="M1331.65,-982.86C1231.79,-1012.48 865.41,-1114.71 773.98,-1049.21 753.76,-1034.72 774.39,-1012.94 755.98,-996.21 660,-909 593.53,-974.44 471.98,-929.21 363.92,-888.99 325.6,-888.6 241.98,-809.21 229.64,-797.49 219.51,-781.73 211.93,-767.44"/>
<polygon fill="#000000" stroke="#000000" points="214.95,-765.67 207.32,-758.33 208.71,-768.83 214.95,-765.67"/>
<text text-anchor="middle" x="689.48" y="-1040.61" font-family="Times,serif" font-size="32.00">ε_5</text>
<text text-anchor="middle" x="689.48" y="-1005.61" font-family="Times,serif" font-size="32.00">=&gt;3 =to 2</text>
</g>
<!-- 3&#45;&gt;2 -->
<g id="edge33" class="edge">
<title>3&#45;&gt;2</title>
<path fill="none" stroke="#000000" d="M1337.64,-995.52C1324.95,-1007.7 1307.33,-1022.47 1288.98,-1031.21 1209.97,-1068.84 1182.96,-1060.56 1095.98,-1070.21 887.03,-1093.38 825.24,-1123.56 622.98,-1066.21 437.38,-1013.58 367.63,-1004.61 241.98,-858.21 220.72,-833.44 208.98,-798.05 202.7,-770.92"/>
<polygon fill="#000000" stroke="#000000" points="206.08,-770 200.55,-760.96 199.24,-771.48 206.08,-770"/>
<text text-anchor="middle" x="689.48" y="-1139.61" font-family="Times,serif" font-size="32.00">ε_8</text>
<text text-anchor="middle" x="689.48" y="-1104.61" font-family="Times,serif" font-size="32.00">=&gt;3 =c1 2</text>
</g>
<!-- 3&#45;&gt;v -->
<g id="edge29" class="edge">
<title>3&#45;&gt;v</title>
<path fill="none" stroke="#000000" d="M1330.8,-973.84C1286.09,-971.18 1192.08,-964.2 1113.98,-949.21 1029.68,-933.03 1008.07,-928.1 927.98,-897.21 919.64,-893.99 918.51,-890.92 909.98,-888.21 787.01,-849.1 743.58,-890.14 622.98,-844.21 548.22,-815.73 528.84,-802.5 471.98,-746.21 452.44,-726.87 435.4,-700.96 423.39,-680.22"/>
<polygon fill="#000000" stroke="#000000" points="426.36,-678.38 418.39,-671.4 420.27,-681.82 426.36,-678.38"/>
<text text-anchor="middle" x="841.98" y="-932.61" font-family="Times,serif" font-size="32.00">ε_6</text>
<text text-anchor="middle" x="841.98" y="-897.61" font-family="Times,serif" font-size="32.00">=&gt;3 =to v</text>
</g>
<!-- 3&#45;&gt;v -->
<g id="edge34" class="edge">
<title>3&#45;&gt;v</title>
<path fill="none" stroke="#000000" d="M1330.6,-976.01C1231.57,-978.79 881.21,-986.35 773.98,-958.21 755.81,-953.44 484.09,-820.57 471.98,-806.21 454.31,-785.25 463.95,-772.75 453.98,-747.21 445.09,-724.4 433.24,-699.63 423.42,-680.21"/>
<polygon fill="#000000" stroke="#000000" points="426.46,-678.46 418.79,-671.14 420.22,-681.64 426.46,-678.46"/>
<text text-anchor="middle" x="841.98" y="-1019.61" font-family="Times,serif" font-size="32.00">ε_9</text>
<text text-anchor="middle" x="841.98" y="-984.61" font-family="Times,serif" font-size="32.00">=&gt;3 =c1 v</text>
</g>
<!-- 3&#45;&gt;prog -->
<g id="edge31" class="edge">
<title>3&#45;&gt;prog</title>
<path fill="none" stroke="#000000" d="M1356.07,-944.67C1353.04,-901.08 1340.32,-822.31 1288.98,-786.21 1257.17,-763.84 1148.12,-767.57 1113.98,-786.21 1101,-793.3 1106.87,-804.2 1095.98,-814.21 1086.7,-822.75 1075.45,-830.14 1064.27,-836.3"/>
<polygon fill="#000000" stroke="#000000" points="1062.59,-833.23 1055.36,-840.98 1065.84,-839.43 1062.59,-833.23"/>
<text text-anchor="middle" x="1201.48" y="-830.61" font-family="Times,serif" font-size="32.00">ing_1</text>
<text text-anchor="middle" x="1201.48" y="-795.61" font-family="Times,serif" font-size="32.00">=&gt;3 =to prog</text>
</g>
<!-- 3&#45;&gt;prog -->
<g id="edge36" class="edge">
<title>3&#45;&gt;prog</title>
<path fill="none" stroke="#000000" d="M1345.53,-947.68C1334.61,-925.08 1315.8,-894.41 1288.98,-879.21 1253.62,-859.17 1144.46,-856.45 1074.48,-856.9"/>
<polygon fill="#000000" stroke="#000000" points="1074.42,-853.4 1064.46,-856.99 1074.49,-860.4 1074.42,-853.4"/>
<text text-anchor="middle" x="1201.48" y="-923.61" font-family="Times,serif" font-size="32.00">ing_2</text>
<text text-anchor="middle" x="1201.48" y="-888.61" font-family="Times,serif" font-size="32.00">=&gt;3 =c1 prog</text>
</g>
<!-- 3&#45;&gt;perf -->
<g id="edge30" class="edge">
<title>3&#45;&gt;perf</title>
<path fill="none" stroke="#000000" d="M1355.26,-944.89C1350.6,-871.19 1334.51,-685.96 1288.98,-648.21 1248.01,-614.24 889.3,-627.6 747.66,-634.29"/>
<polygon fill="#000000" stroke="#000000" points="747.26,-630.8 737.44,-634.77 747.6,-637.79 747.26,-630.8"/>
<text text-anchor="middle" x="1011.98" y="-672.61" font-family="Times,serif" font-size="32.00">n_1</text>
<text text-anchor="middle" x="1011.98" y="-637.61" font-family="Times,serif" font-size="32.00">=&gt;3 =to perf</text>
</g>
<!-- 3&#45;&gt;perf -->
<g id="edge35" class="edge">
<title>3&#45;&gt;perf</title>
<path fill="none" stroke="#000000" d="M1354.74,-944.83C1349.1,-875.13 1331.31,-707.08 1288.98,-673.21 1258.62,-648.91 1147.97,-654.3 1113.98,-673.21 1100.73,-680.58 1109.24,-694.84 1095.98,-702.21 1030.73,-738.51 993.23,-738.51 927.98,-702.21 914.73,-694.84 922.6,-681.64 909.98,-673.21 896.61,-664.27 807.67,-651.72 747.19,-644.04"/>
<polygon fill="#000000" stroke="#000000" points="747.36,-640.54 737,-642.76 746.48,-647.48 747.36,-640.54"/>
<text text-anchor="middle" x="1011.98" y="-774.61" font-family="Times,serif" font-size="32.00">n_2</text>
<text text-anchor="middle" x="1011.98" y="-739.61" font-family="Times,serif" font-size="32.00">=&gt;3 =c1 perf</text>
</g>
<!-- z3 -->
<g id="node16" class="node">
<title>z3</title>
<ellipse fill="none" stroke="black" stroke-dasharray="5,2" cx="1596.04" cy="-975.21" rx="27" ry="18"/>
</g>
<!-- z3&#45;&gt;3 -->
<g id="edge27" class="edge">
<title>z3&#45;&gt;3</title>
<path fill="none" stroke="#000000" d="M1568.87,-975.21C1526.67,-975.21 1443.48,-975.21 1395.45,-975.21"/>
<polygon fill="#000000" stroke="#000000" points="1395.19,-971.71 1385.19,-975.21 1395.19,-978.71 1395.19,-971.71"/>
<text text-anchor="middle" x="1485.81" y="-1054.61" font-family="Times,serif" font-size="32.00">seem |</text>
<text text-anchor="middle" x="1485.81" y="-1019.61" font-family="Times,serif" font-size="32.00"> appear</text>
<text text-anchor="middle" x="1485.81" y="-984.61" font-family="Times,serif" font-size="32.00">3</text>
</g>
<!-- z4 -->
<g id="node17" class="node">
<title>z4</title>
<ellipse fill="none" stroke="black" stroke-dasharray="5,2" cx="1951.27" cy="-1406.21" rx="27" ry="18"/>
</g>
<!-- e -->
<g id="node18" class="node">
<title>e</title>
<ellipse fill="none" stroke="black" cx="1798.27" cy="-1406.21" rx="27" ry="30.31"/>
<text text-anchor="middle" x="1798.27" y="-1398.11" font-family="Times,serif" font-size="32.00">e</text>
</g>
<!-- z4&#45;&gt;e -->
<g id="edge40" class="edge">
<title>z4&#45;&gt;e</title>
<path fill="none" stroke="#000000" d="M1923.97,-1406.21C1899.5,-1406.21 1862.83,-1406.21 1835.58,-1406.21"/>
<polygon fill="#000000" stroke="#000000" points="1835.27,-1402.71 1825.27,-1406.21 1835.27,-1409.71 1835.27,-1402.71"/>
<text text-anchor="middle" x="1874.77" y="-1450.61" font-family="Times,serif" font-size="32.00">it</text>
<text text-anchor="middle" x="1874.77" y="-1415.61" font-family="Times,serif" font-size="32.00">e &#45;k</text>
</g>
</g>
</svg>
