<?xml version="1.0" encoding="UTF-8" standalone="no"?>
<!DOCTYPE svg PUBLIC "-//W3C//DTD SVG 1.1//EN"
 "http://www.w3.org/Graphics/SVG/1.1/DTD/svg11.dtd">
<!-- Generated by graphviz version 2.47.1 (20210417.1919)
 -->
<!-- Title: G Pages: 1 -->
<svg width="3172pt" height="2671pt"
 viewBox="0.00 0.00 3172.48 2670.63" xmlns="http://www.w3.org/2000/svg" xmlns:xlink="http://www.w3.org/1999/xlink">
<g id="graph0" class="graph" transform="scale(1 1) rotate(0) translate(4 2666.63)">
<title>G</title>
<polygon fill="white" stroke="transparent" points="-4,4 -4,-2666.63 3168.48,-2666.63 3168.48,4 -4,4"/>
<text text-anchor="middle" x="1582.24" y="-13.4" font-family="Times,serif" font-size="32.00">single contraction: 5 → 1</text>
<!-- t -->
<g id="node1" class="node">
<title>t</title>
<ellipse fill="lightgray" stroke="black" cx="2301.65" cy="-1379.63" rx="27" ry="30.31"/>
<text text-anchor="middle" x="2301.65" y="-1371.53" font-family="Times,serif" font-size="32.00">t</text>
</g>
<!-- c2 -->
<g id="node15" class="node">
<title>c2</title>
<ellipse fill="none" stroke="black" cx="2027.15" cy="-1265.63" rx="33.47" ry="30.31"/>
<text text-anchor="middle" x="2027.15" y="-1257.53" font-family="Times,serif" font-size="32.00">c2</text>
</g>
<!-- t&#45;&gt;c2 -->
<g id="edge61" class="edge">
<title>t&#45;&gt;c2</title>
<path fill="none" stroke="#000000" d="M2275.99,-1369.32C2228.55,-1349.47 2124.28,-1305.85 2067.27,-1282"/>
<polygon fill="#000000" stroke="#000000" points="2068.44,-1278.69 2057.87,-1278.06 2065.74,-1285.15 2068.44,-1278.69"/>
<text text-anchor="middle" x="2194.65" y="-1405.03" font-family="Times,serif" font-size="32.00">that_1</text>
<text text-anchor="middle" x="2194.65" y="-1370.03" font-family="Times,serif" font-size="32.00">=t c2</text>
</g>
<!-- c1 -->
<g id="node19" class="node">
<title>c1</title>
<ellipse fill="none" stroke="black" cx="1300.65" cy="-1779.63" rx="33.47" ry="30.31"/>
<text text-anchor="middle" x="1300.65" y="-1771.53" font-family="Times,serif" font-size="32.00">c1</text>
</g>
<!-- t&#45;&gt;c1 -->
<g id="edge60" class="edge">
<title>t&#45;&gt;c1</title>
<path fill="none" stroke="#000000" d="M2297.42,-1409.92C2291.76,-1457.26 2278.52,-1545.65 2256.65,-1567.63 2154.48,-1670.36 2039.81,-1538.95 1939.65,-1643.63 1910.55,-1674.05 1953.18,-1708.73 1921.65,-1736.63 1900.02,-1755.78 1480.64,-1772.98 1344.17,-1778.1"/>
<polygon fill="#000000" stroke="#000000" points="1343.95,-1774.6 1334.09,-1778.47 1344.21,-1781.6 1343.95,-1774.6"/>
<text text-anchor="middle" x="1844.65" y="-1801.03" font-family="Times,serif" font-size="32.00">that</text>
<text text-anchor="middle" x="1844.65" y="-1766.03" font-family="Times,serif" font-size="32.00">=t =e c1</text>
</g>
<!-- z0 -->
<g id="node2" class="node">
<title>z0</title>
<ellipse fill="none" stroke="black" stroke-dasharray="5,2" cx="2984.48" cy="-1768.63" rx="27" ry="18"/>
</g>
<!-- d -->
<g id="node3" class="node">
<title>d</title>
<ellipse fill="none" stroke="black" cx="2801.48" cy="-1669.63" rx="27" ry="30.31"/>
<text text-anchor="middle" x="2801.48" y="-1661.53" font-family="Times,serif" font-size="32.00">d</text>
</g>
<!-- z0&#45;&gt;d -->
<g id="edge1" class="edge">
<title>z0&#45;&gt;d</title>
<path fill="none" stroke="#000000" d="M2957.57,-1770.8C2928.06,-1771.93 2879.65,-1769.6 2846.48,-1746.63 2832.77,-1737.14 2822.78,-1721.91 2815.83,-1707.48"/>
<polygon fill="#000000" stroke="#000000" points="2818.95,-1705.9 2811.68,-1698.19 2812.56,-1708.75 2818.95,-1705.9"/>
<text text-anchor="middle" x="2892.98" y="-1920.03" font-family="Times,serif" font-size="32.00">Mary |</text>
<text text-anchor="middle" x="2892.98" y="-1885.03" font-family="Times,serif" font-size="32.00"> John |</text>
<text text-anchor="middle" x="2892.98" y="-1850.03" font-family="Times,serif" font-size="32.00"> Alice |</text>
<text text-anchor="middle" x="2892.98" y="-1815.03" font-family="Times,serif" font-size="32.00"> Bob</text>
<text text-anchor="middle" x="2892.98" y="-1780.03" font-family="Times,serif" font-size="32.00">d &#45;k</text>
</g>
<!-- 0 -->
<g id="node6" class="node">
<title>0</title>
<ellipse fill="none" stroke="black" cx="971.15" cy="-1219.63" rx="27" ry="30.31"/>
<text text-anchor="middle" x="971.15" y="-1211.53" font-family="Times,serif" font-size="32.00">0</text>
</g>
<!-- d&#45;&gt;0 -->
<g id="edge11" class="edge">
<title>d&#45;&gt;0</title>
<path fill="none" stroke="#000000" d="M2774.27,-1666.92C2643.81,-1654.01 2065.7,-1604.01 1939.65,-1717.63 1902.2,-1751.39 1960.03,-1796.93 1921.65,-1829.63 1892,-1854.9 1315.41,-1903.9 1223.65,-1818.63 1192.26,-1789.46 1233.23,-1659.44 1205.65,-1626.63 1160,-1572.33 1100.5,-1636.08 1051.65,-1584.63 1007.39,-1538.02 984.01,-1344.74 975.71,-1259.88"/>
<polygon fill="#000000" stroke="#000000" points="979.18,-1259.47 974.75,-1249.85 972.22,-1260.14 979.18,-1259.47"/>
<text text-anchor="middle" x="2027.15" y="-1867.03" font-family="Times,serif" font-size="32.00">praise |</text>
<text text-anchor="middle" x="2027.15" y="-1832.03" font-family="Times,serif" font-size="32.00"> like |</text>
<text text-anchor="middle" x="2027.15" y="-1797.03" font-family="Times,serif" font-size="32.00"> kiss |</text>
<text text-anchor="middle" x="2027.15" y="-1762.03" font-family="Times,serif" font-size="32.00"> hug</text>
<text text-anchor="middle" x="2027.15" y="-1727.03" font-family="Times,serif" font-size="32.00">=d *k 0</text>
</g>
<!-- 1 -->
<g id="node8" class="node">
<title>1</title>
<ellipse fill="none" stroke="black" cx="1300.65" cy="-707.63" rx="27" ry="30.31"/>
<text text-anchor="middle" x="1300.65" y="-699.53" font-family="Times,serif" font-size="32.00">1</text>
</g>
<!-- d&#45;&gt;1 -->
<g id="edge12" class="edge">
<title>d&#45;&gt;1</title>
<path fill="none" stroke="#000000" d="M2800.13,-1639.12C2797.71,-1433.2 2782.71,-254.08 2756.48,-228.63 2603.54,-80.3 2566.22,-280.71 2114.65,-499.63 1955.59,-576.75 1922.75,-621.78 1749.65,-657.63 1682.63,-671.52 1648.16,-701.54 1595.65,-657.63 1561.01,-628.67 1612.3,-586.6 1577.65,-557.63 1546.62,-531.69 1431.04,-538.05 1395.65,-557.63 1353.01,-581.23 1327.13,-633.16 1313.6,-669.26"/>
<polygon fill="#000000" stroke="#000000" points="1310.2,-668.39 1310.11,-678.98 1316.78,-670.75 1310.2,-668.39"/>
<text text-anchor="middle" x="2194.65" y="-640.03" font-family="Times,serif" font-size="32.00">praise_1 |</text>
<text text-anchor="middle" x="2194.65" y="-605.03" font-family="Times,serif" font-size="32.00"> like_1 |</text>
<text text-anchor="middle" x="2194.65" y="-570.03" font-family="Times,serif" font-size="32.00"> kiss_1 |</text>
<text text-anchor="middle" x="2194.65" y="-535.03" font-family="Times,serif" font-size="32.00"> hug_1</text>
<text text-anchor="middle" x="2194.65" y="-500.03" font-family="Times,serif" font-size="32.00">=d *k 1</text>
</g>
<!-- v -->
<g id="node10" class="node">
<title>v</title>
<ellipse fill="none" stroke="black" cx="629.65" cy="-1158.63" rx="27" ry="30.31"/>
<text text-anchor="middle" x="629.65" y="-1150.53" font-family="Times,serif" font-size="32.00">v</text>
</g>
<!-- d&#45;&gt;v -->
<g id="edge8" class="edge">
<title>d&#45;&gt;v</title>
<path fill="none" stroke="#000000" d="M2797.71,-1700.1C2791.99,-1758.4 2777.63,-1883.3 2756.48,-1920.63 2696.52,-2026.42 2671.16,-2099.63 2549.56,-2099.63 2549.56,-2099.63 2549.56,-2099.63 2026.15,-2099.63 1910.85,-2099.63 1881.19,-2097.72 1767.65,-2077.63 1590.78,-2046.33 1553.25,-2009.42 1377.65,-1971.63 1171.28,-1927.22 1068.85,-2034.1 908.65,-1896.63 888.81,-1879.61 909.58,-1858.67 890.65,-1840.63 837.34,-1789.84 779.85,-1852.42 730.65,-1797.63 725.57,-1791.98 657.5,-1338.42 636.67,-1198.97"/>
<polygon fill="#000000" stroke="#000000" points="640.07,-1198.09 635.14,-1188.72 633.15,-1199.13 640.07,-1198.09"/>
<text text-anchor="middle" x="1844.65" y="-2247.03" font-family="Times,serif" font-size="32.00">dance_2 |</text>
<text text-anchor="middle" x="1844.65" y="-2212.03" font-family="Times,serif" font-size="32.00"> laugh_2 |</text>
<text text-anchor="middle" x="1844.65" y="-2177.03" font-family="Times,serif" font-size="32.00"> smile_2 |</text>
<text text-anchor="middle" x="1844.65" y="-2142.03" font-family="Times,serif" font-size="32.00"> jump_2</text>
<text text-anchor="middle" x="1844.65" y="-2107.03" font-family="Times,serif" font-size="32.00">=d v</text>
</g>
<!-- d&#45;&gt;v -->
<g id="edge13" class="edge">
<title>d&#45;&gt;v</title>
<path fill="none" stroke="#000000" d="M2788.08,-1696.36C2757.28,-1758.34 2670.9,-1906.63 2549.56,-1906.63 2549.56,-1906.63 2549.56,-1906.63 2193.65,-1906.63 2193.65,-1906.63 908.65,-1868.63 908.65,-1868.63 884.16,-1849.2 910.32,-1824.93 890.65,-1800.63 840.51,-1738.68 778.2,-1783.6 730.65,-1719.63 668.84,-1636.48 641.23,-1313.83 633.24,-1199.27"/>
<polygon fill="#000000" stroke="#000000" points="636.72,-1198.9 632.54,-1189.16 629.74,-1199.38 636.72,-1198.9"/>
<text text-anchor="middle" x="1844.65" y="-2047.03" font-family="Times,serif" font-size="32.00">praise_2 |</text>
<text text-anchor="middle" x="1844.65" y="-2012.03" font-family="Times,serif" font-size="32.00"> like_2 |</text>
<text text-anchor="middle" x="1844.65" y="-1977.03" font-family="Times,serif" font-size="32.00"> kiss_2 |</text>
<text text-anchor="middle" x="1844.65" y="-1942.03" font-family="Times,serif" font-size="32.00"> hug_2</text>
<text text-anchor="middle" x="1844.65" y="-1907.03" font-family="Times,serif" font-size="32.00">=d *k =d v</text>
</g>
<!-- prog -->
<g id="node11" class="node">
<title>prog</title>
<ellipse fill="none" stroke="black" cx="52.33" cy="-982.63" rx="52.15" ry="30.31"/>
<text text-anchor="middle" x="52.33" y="-974.53" font-family="Times,serif" font-size="32.00">prog</text>
</g>
<!-- d&#45;&gt;prog -->
<g id="edge9" class="edge">
<title>d&#45;&gt;prog</title>
<path fill="none" stroke="#000000" d="M2799.71,-1700.08C2796.53,-1819.11 2783.26,-2249.1 2756.48,-2303.63 2702.22,-2414.09 2672.63,-2487.63 2549.56,-2487.63 2549.56,-2487.63 2549.56,-2487.63 323.65,-2487.63 202.54,-2487.63 174.35,-2413.16 122.65,-2303.63 66.89,-2185.49 55.48,-1233.72 53.64,-1023.59"/>
<polygon fill="#000000" stroke="#000000" points="57.14,-1023.28 53.55,-1013.31 50.14,-1023.34 57.14,-1023.28"/>
<text text-anchor="middle" x="1486.65" y="-2637.03" font-family="Times,serif" font-size="32.00">danceing |</text>
<text text-anchor="middle" x="1486.65" y="-2602.03" font-family="Times,serif" font-size="32.00"> laughing |</text>
<text text-anchor="middle" x="1486.65" y="-2567.03" font-family="Times,serif" font-size="32.00"> smileing |</text>
<text text-anchor="middle" x="1486.65" y="-2532.03" font-family="Times,serif" font-size="32.00"> jumping</text>
<text text-anchor="middle" x="1486.65" y="-2497.03" font-family="Times,serif" font-size="32.00">=d prog</text>
</g>
<!-- d&#45;&gt;prog -->
<g id="edge14" class="edge">
<title>d&#45;&gt;prog</title>
<path fill="none" stroke="#000000" d="M2798.66,-1700.03C2793.93,-1773.75 2779.95,-1960.21 2756.48,-2017.63 2699,-2158.23 2701.45,-2289.63 2549.56,-2289.63 2549.56,-2289.63 2549.56,-2289.63 323.65,-2289.63 58.48,-2289.63 51.38,-1244.92 52.86,-1023.54"/>
<polygon fill="#000000" stroke="#000000" points="56.36,-1023.36 52.93,-1013.33 49.36,-1023.31 56.36,-1023.36"/>
<text text-anchor="middle" x="1486.65" y="-2439.03" font-family="Times,serif" font-size="32.00">praiseing |</text>
<text text-anchor="middle" x="1486.65" y="-2404.03" font-family="Times,serif" font-size="32.00"> likeing |</text>
<text text-anchor="middle" x="1486.65" y="-2369.03" font-family="Times,serif" font-size="32.00"> kissing |</text>
<text text-anchor="middle" x="1486.65" y="-2334.03" font-family="Times,serif" font-size="32.00"> huging</text>
<text text-anchor="middle" x="1486.65" y="-2299.03" font-family="Times,serif" font-size="32.00">=d *k =d prog</text>
</g>
<!-- perf -->
<g id="node12" class="node">
<title>perf</title>
<ellipse fill="none" stroke="black" cx="971.15" cy="-666.63" rx="48.17" ry="30.31"/>
<text text-anchor="middle" x="971.15" y="-658.53" font-family="Times,serif" font-size="32.00">perf</text>
</g>
<!-- d&#45;&gt;perf -->
<g id="edge10" class="edge">
<title>d&#45;&gt;perf</title>
<path fill="none" stroke="#000000" d="M2799.93,-1639.25C2797.47,-1512.47 2786.24,-1025.16 2756.48,-874.63 2702.24,-600.39 2829.12,-280.63 2549.56,-280.63 2549.56,-280.63 2549.56,-280.63 2193.65,-280.63 2080.38,-280.63 2046.46,-263.91 1939.65,-301.63 1843.41,-335.62 1845.27,-394.93 1749.65,-430.63 1456.99,-539.93 1308.61,-335.96 1051.65,-513.63 1013.28,-540.17 992.16,-591.1 981.52,-626.89"/>
<polygon fill="#000000" stroke="#000000" points="978.14,-625.97 978.78,-636.55 984.87,-627.88 978.14,-625.97"/>
<text text-anchor="middle" x="2027.15" y="-451.03" font-family="Times,serif" font-size="32.00">dancen |</text>
<text text-anchor="middle" x="2027.15" y="-416.03" font-family="Times,serif" font-size="32.00"> laughn |</text>
<text text-anchor="middle" x="2027.15" y="-381.03" font-family="Times,serif" font-size="32.00"> smilen |</text>
<text text-anchor="middle" x="2027.15" y="-346.03" font-family="Times,serif" font-size="32.00"> jumpn</text>
<text text-anchor="middle" x="2027.15" y="-311.03" font-family="Times,serif" font-size="32.00">=d perf</text>
</g>
<!-- d&#45;&gt;perf -->
<g id="edge15" class="edge">
<title>d&#45;&gt;perf</title>
<path fill="none" stroke="#000000" d="M2800.51,-1639.17C2800.62,-1441.05 2799.28,-341.93 2756.48,-286.63 2710.98,-227.88 2188.21,-109.18 2114.65,-98.63 2037.66,-87.59 2009.98,-65.43 1939.65,-98.63 1830.87,-149.99 1818.67,-198.69 1767.65,-307.63 1749.43,-346.55 1781.93,-374.26 1749.65,-402.63 1691.3,-453.92 1113.8,-397.02 1051.65,-443.63 1036.47,-455.02 1001.81,-566.08 983.68,-627.04"/>
<polygon fill="#000000" stroke="#000000" points="980.29,-626.15 980.81,-636.73 987.01,-628.13 980.29,-626.15"/>
<text text-anchor="middle" x="2027.15" y="-248.03" font-family="Times,serif" font-size="32.00">praisen |</text>
<text text-anchor="middle" x="2027.15" y="-213.03" font-family="Times,serif" font-size="32.00"> liken |</text>
<text text-anchor="middle" x="2027.15" y="-178.03" font-family="Times,serif" font-size="32.00"> kissn |</text>
<text text-anchor="middle" x="2027.15" y="-143.03" font-family="Times,serif" font-size="32.00"> hugn</text>
<text text-anchor="middle" x="2027.15" y="-108.03" font-family="Times,serif" font-size="32.00">=d *k =d perf</text>
</g>
<!-- pass -->
<g id="node13" class="node">
<title>pass</title>
<ellipse fill="none" stroke="black" cx="2548.56" cy="-546.63" rx="50.82" ry="30.31"/>
<text text-anchor="middle" x="2548.56" y="-538.53" font-family="Times,serif" font-size="32.00">pass</text>
</g>
<!-- d&#45;&gt;pass -->
<g id="edge16" class="edge">
<title>d&#45;&gt;pass</title>
<path fill="none" stroke="#000000" d="M2793.89,-1640.17C2759.29,-1485.28 2598.47,-765.51 2558.55,-586.85"/>
<polygon fill="#000000" stroke="#000000" points="2561.91,-585.82 2556.31,-576.83 2555.07,-587.35 2561.91,-585.82"/>
<text text-anchor="middle" x="2686.98" y="-1605.03" font-family="Times,serif" font-size="32.00">praisen_1 |</text>
<text text-anchor="middle" x="2686.98" y="-1570.03" font-family="Times,serif" font-size="32.00"> liken_1 |</text>
<text text-anchor="middle" x="2686.98" y="-1535.03" font-family="Times,serif" font-size="32.00"> kissn_1 |</text>
<text text-anchor="middle" x="2686.98" y="-1500.03" font-family="Times,serif" font-size="32.00"> hugn_1</text>
<text text-anchor="middle" x="2686.98" y="-1465.03" font-family="Times,serif" font-size="32.00">=d pass</text>
</g>
<!-- n -->
<g id="node4" class="node">
<title>n</title>
<ellipse fill="none" stroke="black" cx="2984.48" cy="-1570.63" rx="27" ry="30.31"/>
<text text-anchor="middle" x="2984.48" y="-1562.53" font-family="Times,serif" font-size="32.00">n</text>
</g>
<!-- n&#45;&gt;d -->
<g id="edge2" class="edge">
<title>n&#45;&gt;d</title>
<path fill="none" stroke="#000000" d="M2958.4,-1562.17C2929.01,-1553.92 2880.07,-1545.54 2846.48,-1567.63 2825.66,-1581.33 2814.64,-1607.18 2808.84,-1629.43"/>
<polygon fill="#000000" stroke="#000000" points="2805.39,-1628.81 2806.53,-1639.35 2812.21,-1630.41 2805.39,-1628.81"/>
<text text-anchor="middle" x="2892.98" y="-1717.03" font-family="Times,serif" font-size="32.00">this |</text>
<text text-anchor="middle" x="2892.98" y="-1682.03" font-family="Times,serif" font-size="32.00"> a |</text>
<text text-anchor="middle" x="2892.98" y="-1647.03" font-family="Times,serif" font-size="32.00"> the |</text>
<text text-anchor="middle" x="2892.98" y="-1612.03" font-family="Times,serif" font-size="32.00"> some</text>
<text text-anchor="middle" x="2892.98" y="-1577.03" font-family="Times,serif" font-size="32.00">=n d &#45;k</text>
</g>
<!-- z1 -->
<g id="node5" class="node">
<title>z1</title>
<ellipse fill="none" stroke="black" stroke-dasharray="5,2" cx="3137.48" cy="-1570.63" rx="27" ry="18"/>
</g>
<!-- z1&#45;&gt;n -->
<g id="edge3" class="edge">
<title>z1&#45;&gt;n</title>
<path fill="none" stroke="#000000" d="M3110.17,-1570.63C3085.71,-1570.63 3049.03,-1570.63 3021.78,-1570.63"/>
<polygon fill="#000000" stroke="#000000" points="3021.48,-1567.13 3011.48,-1570.63 3021.48,-1574.13 3021.48,-1567.13"/>
<text text-anchor="middle" x="3060.98" y="-1650.03" font-family="Times,serif" font-size="32.00">boy |</text>
<text text-anchor="middle" x="3060.98" y="-1615.03" font-family="Times,serif" font-size="32.00"> girl</text>
<text text-anchor="middle" x="3060.98" y="-1580.03" font-family="Times,serif" font-size="32.00">n</text>
</g>
<!-- 0&#45;&gt;t -->
<g id="edge4" class="edge">
<title>0&#45;&gt;t</title>
<path fill="none" stroke="#000000" d="M979,-1248.84C997.8,-1328.86 1048.97,-1545.9 1051.65,-1548.63 1107,-1605.03 1145.28,-1583.55 1223.65,-1593.63 1291.54,-1602.37 1309.75,-1602.22 1377.65,-1593.63 1476.9,-1581.09 1497.67,-1557.8 1595.65,-1537.63 1632.05,-1530.14 2224.5,-1453.27 2256.65,-1434.63 2265.78,-1429.34 2273.75,-1421.38 2280.31,-1413.13"/>
<polygon fill="#000000" stroke="#000000" points="2283.27,-1415.02 2286.38,-1404.89 2277.63,-1410.86 2283.27,-1415.02"/>
<text text-anchor="middle" x="1672.65" y="-1582.03" font-family="Times,serif" font-size="32.00">s</text>
<text text-anchor="middle" x="1672.65" y="-1547.03" font-family="Times,serif" font-size="32.00">=&gt;0 =d +k t</text>
</g>
<!-- z2 -->
<g id="node7" class="node">
<title>z2</title>
<ellipse fill="none" stroke="black" stroke-dasharray="5,2" cx="1300.65" cy="-1417.63" rx="27" ry="18"/>
</g>
<!-- z2&#45;&gt;0 -->
<g id="edge5" class="edge">
<title>z2&#45;&gt;0</title>
<path fill="none" stroke="#000000" d="M1273.99,-1413.69C1256.93,-1409.65 1235.54,-1401.59 1223.65,-1385.63 1201.61,-1356.06 1233.06,-1245.32 1205.65,-1220.63 1177.58,-1195.35 1066.6,-1206.35 1008.32,-1214.21"/>
<polygon fill="#000000" stroke="#000000" points="1007.51,-1210.79 998.09,-1215.63 1008.47,-1217.72 1007.51,-1210.79"/>
<text text-anchor="middle" x="1128.65" y="-1370.03" font-family="Times,serif" font-size="32.00">dance |</text>
<text text-anchor="middle" x="1128.65" y="-1335.03" font-family="Times,serif" font-size="32.00"> laugh |</text>
<text text-anchor="middle" x="1128.65" y="-1300.03" font-family="Times,serif" font-size="32.00"> smile |</text>
<text text-anchor="middle" x="1128.65" y="-1265.03" font-family="Times,serif" font-size="32.00"> jump</text>
<text text-anchor="middle" x="1128.65" y="-1230.03" font-family="Times,serif" font-size="32.00">0</text>
</g>
<!-- 1&#45;&gt;t -->
<g id="edge6" class="edge">
<title>1&#45;&gt;t</title>
<path fill="none" stroke="#000000" d="M1325.21,-721.31C1343.76,-731.48 1370.59,-744.89 1395.65,-752.63 1473.85,-776.78 1497.09,-766.25 1577.65,-780.63 1654.45,-794.35 1674.27,-795.55 1749.65,-815.63 1827.47,-836.37 1856.01,-825.98 1921.65,-872.63 2105.94,-1003.59 2238.78,-1251.48 2283.86,-1343.8"/>
<polygon fill="#000000" stroke="#000000" points="2280.81,-1345.53 2288.32,-1353 2287.11,-1342.48 2280.81,-1345.53"/>
<text text-anchor="middle" x="1844.65" y="-917.03" font-family="Times,serif" font-size="32.00">d</text>
<text text-anchor="middle" x="1844.65" y="-882.03" font-family="Times,serif" font-size="32.00">=&gt;1 =d +k t</text>
</g>
<!-- 1&#45;&gt;0 -->
<g id="edge35" class="edge">
<title>1&#45;&gt;0</title>
<path fill="none" stroke="#000000" d="M1274.62,-716.27C1257.85,-723.29 1236.55,-734.82 1223.65,-751.63 1204.89,-776.1 1225.4,-794.96 1205.65,-818.63 1157.13,-876.79 1099.45,-832.88 1051.65,-891.63 1033.37,-914.11 995.88,-1097.65 979.78,-1179.96"/>
<polygon fill="#000000" stroke="#000000" points="976.31,-1179.46 977.83,-1189.94 983.18,-1180.79 976.31,-1179.46"/>
<text text-anchor="middle" x="1128.65" y="-936.03" font-family="Times,serif" font-size="32.00">ε_9</text>
<text text-anchor="middle" x="1128.65" y="-901.03" font-family="Times,serif" font-size="32.00">=&gt;1 0</text>
</g>
<!-- 1&#45;&gt;v -->
<g id="edge37" class="edge">
<title>1&#45;&gt;v</title>
<path fill="none" stroke="#000000" d="M1274.98,-718.2C1167.96,-764.11 748.56,-945.13 730.65,-969.63 692.33,-1022.06 749.37,-1061.07 712.65,-1114.63 701.58,-1130.79 682.61,-1141.51 665.7,-1148.32"/>
<polygon fill="#000000" stroke="#000000" points="664.22,-1145.13 656.06,-1151.89 666.65,-1151.7 664.22,-1145.13"/>
<text text-anchor="middle" x="971.15" y="-922.03" font-family="Times,serif" font-size="32.00">ε_10</text>
<text text-anchor="middle" x="971.15" y="-887.03" font-family="Times,serif" font-size="32.00">=&gt;1 =d v</text>
</g>
<!-- 1&#45;&gt;prog -->
<g id="edge38" class="edge">
<title>1&#45;&gt;prog</title>
<path fill="none" stroke="#000000" d="M1280.86,-686.94C1233.96,-637.69 1105.92,-517.63 972.15,-517.63 972.15,-517.63 972.15,-517.63 323.65,-517.63 128.06,-517.63 71.56,-828.93 57.49,-942.12"/>
<polygon fill="#000000" stroke="#000000" points="54,-941.78 56.29,-952.12 60.95,-942.61 54,-941.78"/>
<text text-anchor="middle" x="629.65" y="-562.03" font-family="Times,serif" font-size="32.00">ing_3</text>
<text text-anchor="middle" x="629.65" y="-527.03" font-family="Times,serif" font-size="32.00">=&gt;1 =d prog</text>
</g>
<!-- 1&#45;&gt;perf -->
<g id="edge39" class="edge">
<title>1&#45;&gt;perf</title>
<path fill="none" stroke="#000000" d="M1275.51,-696.49C1256.87,-688.49 1230.2,-678.32 1205.65,-673.63 1146.27,-662.3 1076.87,-661.79 1029.26,-663.35"/>
<polygon fill="#000000" stroke="#000000" points="1029.01,-659.85 1019.14,-663.72 1029.26,-666.85 1029.01,-659.85"/>
<text text-anchor="middle" x="1128.65" y="-718.03" font-family="Times,serif" font-size="32.00">n_3</text>
<text text-anchor="middle" x="1128.65" y="-683.03" font-family="Times,serif" font-size="32.00">=&gt;1 =d perf</text>
</g>
<!-- z3 -->
<g id="node9" class="node">
<title>z3</title>
<ellipse fill="none" stroke="black" stroke-dasharray="5,2" cx="1672.65" cy="-717.63" rx="27" ry="18"/>
</g>
<!-- z3&#45;&gt;1 -->
<g id="edge7" class="edge">
<title>z3&#45;&gt;1</title>
<path fill="none" stroke="#000000" d="M1646.27,-713.47C1629.33,-709.34 1607.99,-701.25 1595.65,-685.63 1565.48,-647.45 1614.78,-609.09 1577.65,-577.63 1546.79,-551.49 1431.67,-559.23 1395.65,-577.63 1357.78,-596.98 1331.64,-639.5 1316.72,-670.67"/>
<polygon fill="#000000" stroke="#000000" points="1313.45,-669.39 1312.44,-679.94 1319.81,-672.32 1313.45,-669.39"/>
<text text-anchor="middle" x="1486.65" y="-727.03" font-family="Times,serif" font-size="32.00">dance_1 |</text>
<text text-anchor="middle" x="1486.65" y="-692.03" font-family="Times,serif" font-size="32.00"> laugh_1 |</text>
<text text-anchor="middle" x="1486.65" y="-657.03" font-family="Times,serif" font-size="32.00"> smile_1 |</text>
<text text-anchor="middle" x="1486.65" y="-622.03" font-family="Times,serif" font-size="32.00"> jump_1</text>
<text text-anchor="middle" x="1486.65" y="-587.03" font-family="Times,serif" font-size="32.00">1</text>
</g>
<!-- v&#45;&gt;t -->
<g id="edge40" class="edge">
<title>v&#45;&gt;t</title>
<path fill="none" stroke="#000000" d="M638.43,-1187.42C652,-1234.35 683.18,-1329.02 730.65,-1397.63 842.28,-1558.97 869.34,-1628.18 1051.65,-1700.63 1197.16,-1758.46 1242.66,-1657.92 1395.65,-1624.63 1434.13,-1616.26 1718.94,-1632.28 1749.65,-1607.63 1773.36,-1588.6 1744.93,-1561.83 1767.65,-1541.63 1782.22,-1528.68 2095.45,-1492.96 2114.65,-1489.63 2178.03,-1478.64 2204.92,-1499.87 2256.65,-1461.63 2271.28,-1450.82 2281.56,-1433.65 2288.48,-1417.81"/>
<polygon fill="#000000" stroke="#000000" points="2291.86,-1418.77 2292.36,-1408.19 2285.37,-1416.15 2291.86,-1418.77"/>
<text text-anchor="middle" x="1486.65" y="-1704.03" font-family="Times,serif" font-size="32.00">wills |</text>
<text text-anchor="middle" x="1486.65" y="-1669.03" font-family="Times,serif" font-size="32.00"> willd</text>
<text text-anchor="middle" x="1486.65" y="-1634.03" font-family="Times,serif" font-size="32.00">=v +k t</text>
</g>
<!-- to -->
<g id="node18" class="node">
<title>to</title>
<ellipse fill="none" stroke="black" cx="324.65" cy="-1123.63" rx="28.98" ry="30.31"/>
<text text-anchor="middle" x="324.65" y="-1115.53" font-family="Times,serif" font-size="32.00">to</text>
</g>
<!-- v&#45;&gt;to -->
<g id="edge59" class="edge">
<title>v&#45;&gt;to</title>
<path fill="none" stroke="#000000" d="M604.06,-1148.69C586.86,-1140.99 563.96,-1129.2 546.65,-1114.63 536.72,-1106.27 540.32,-1097.32 528.65,-1091.63 474.31,-1065.16 451.6,-1078.28 392.65,-1091.63 381.29,-1094.21 369.61,-1098.95 359.24,-1104.01"/>
<polygon fill="#000000" stroke="#000000" points="357.43,-1101 350.14,-1108.69 360.63,-1107.23 357.43,-1101"/>
<text text-anchor="middle" x="460.65" y="-1136.03" font-family="Times,serif" font-size="32.00">to</text>
<text text-anchor="middle" x="460.65" y="-1101.03" font-family="Times,serif" font-size="32.00">=v to</text>
</g>
<!-- prog&#45;&gt;t -->
<g id="edge41" class="edge">
<title>prog&#45;&gt;t</title>
<path fill="none" stroke="#000000" d="M52.66,-952.18C52.12,-877.31 57.5,-679.71 122.65,-532.63 180.11,-402.91 181.77,-284.63 323.65,-284.63 972.15,-284.63 972.15,-284.63 972.15,-284.63 1075.98,-284.63 1109.76,-251.83 1205.65,-291.63 1215.82,-295.85 1213.97,-303.4 1223.65,-308.63 1504.22,-460.39 1629.29,-348.07 1921.65,-475.63 1930.46,-479.48 1930.68,-484.18 1939.65,-487.63 1972.88,-500.43 2232.7,-508.29 2256.65,-534.63 2283.97,-564.68 2296.92,-1173.38 2299.95,-1338.58"/>
<polygon fill="#000000" stroke="#000000" points="2296.45,-1338.87 2300.13,-1348.81 2303.45,-1338.74 2296.45,-1338.87"/>
<text text-anchor="middle" x="1128.65" y="-371.03" font-family="Times,serif" font-size="32.00">bes |</text>
<text text-anchor="middle" x="1128.65" y="-336.03" font-family="Times,serif" font-size="32.00"> bed</text>
<text text-anchor="middle" x="1128.65" y="-301.03" font-family="Times,serif" font-size="32.00">=prog +k t</text>
</g>
<!-- prog&#45;&gt;v -->
<g id="edge42" class="edge">
<title>prog&#45;&gt;v</title>
<path fill="none" stroke="#000000" d="M104.64,-983.63C168.64,-985.82 281.03,-992.74 374.65,-1014.63 445.87,-1031.29 475.79,-1022.09 528.65,-1072.63 543.33,-1086.67 532.93,-1099.66 546.65,-1114.63 559.48,-1128.64 577.83,-1139.07 593.92,-1146.24"/>
<polygon fill="#000000" stroke="#000000" points="593,-1149.65 603.57,-1150.29 595.7,-1143.2 593,-1149.65"/>
<text text-anchor="middle" x="324.65" y="-1059.03" font-family="Times,serif" font-size="32.00">be</text>
<text text-anchor="middle" x="324.65" y="-1024.03" font-family="Times,serif" font-size="32.00">=prog v</text>
</g>
<!-- prog&#45;&gt;perf -->
<g id="edge43" class="edge">
<title>prog&#45;&gt;perf</title>
<path fill="none" stroke="#000000" d="M54.87,-952.08C58.82,-907.25 72.86,-823.95 122.65,-777.63 348.63,-567.45 766.77,-625.51 915.72,-654.69"/>
<polygon fill="#000000" stroke="#000000" points="915.06,-658.13 925.55,-656.66 916.43,-651.27 915.06,-658.13"/>
<text text-anchor="middle" x="460.65" y="-691.03" font-family="Times,serif" font-size="32.00">ben</text>
<text text-anchor="middle" x="460.65" y="-656.03" font-family="Times,serif" font-size="32.00">=prog perf</text>
</g>
<!-- perf&#45;&gt;t -->
<g id="edge56" class="edge">
<title>perf&#45;&gt;t</title>
<path fill="none" stroke="#000000" d="M1011.46,-649.69C1085.13,-618.97 1249.7,-555.17 1395.65,-532.63 1551.39,-508.58 1608.74,-482.1 1749.65,-552.63 1760.05,-557.84 1759.33,-563.51 1767.65,-571.63 1916.3,-716.69 1977.85,-728.36 2114.65,-884.63 2188.14,-968.58 2215.64,-987.88 2256.65,-1091.63 2289.73,-1175.33 2298.09,-1281.8 2300.1,-1338.96"/>
<polygon fill="#000000" stroke="#000000" points="2296.61,-1339.16 2300.41,-1349.05 2303.6,-1338.94 2296.61,-1339.16"/>
<text text-anchor="middle" x="1672.65" y="-632.03" font-family="Times,serif" font-size="32.00">haves |</text>
<text text-anchor="middle" x="1672.65" y="-597.03" font-family="Times,serif" font-size="32.00"> haved</text>
<text text-anchor="middle" x="1672.65" y="-562.03" font-family="Times,serif" font-size="32.00">=perf +k t</text>
</g>
<!-- perf&#45;&gt;v -->
<g id="edge57" class="edge">
<title>perf&#45;&gt;v</title>
<path fill="none" stroke="#000000" d="M923.8,-672.65C854.62,-681.67 732.27,-697.85 730.65,-699.63 699.58,-733.76 737.2,-1075.55 712.65,-1114.63 702.16,-1131.33 683.04,-1142.11 665.9,-1148.81"/>
<polygon fill="#000000" stroke="#000000" points="664.35,-1145.65 656.11,-1152.31 666.71,-1152.24 664.35,-1145.65"/>
<text text-anchor="middle" x="810.65" y="-744.03" font-family="Times,serif" font-size="32.00">have</text>
<text text-anchor="middle" x="810.65" y="-709.03" font-family="Times,serif" font-size="32.00">=perf v</text>
</g>
<!-- pass&#45;&gt;t -->
<g id="edge44" class="edge">
<title>pass&#45;&gt;t</title>
<path fill="none" stroke="#000000" d="M2538.7,-576.77C2501.23,-704.24 2355.76,-1199.02 2313.95,-1341.21"/>
<polygon fill="#000000" stroke="#000000" points="2310.58,-1340.25 2311.12,-1350.83 2317.3,-1342.23 2310.58,-1340.25"/>
<text text-anchor="middle" x="2413.15" y="-1300.03" font-family="Times,serif" font-size="32.00">bes_1 |</text>
<text text-anchor="middle" x="2413.15" y="-1265.03" font-family="Times,serif" font-size="32.00"> bed_1</text>
<text text-anchor="middle" x="2413.15" y="-1230.03" font-family="Times,serif" font-size="32.00">=pass +k t</text>
</g>
<!-- pass&#45;&gt;v -->
<g id="edge45" class="edge">
<title>pass&#45;&gt;v</title>
<path fill="none" stroke="#000000" d="M2497.32,-545.65C2456.51,-544.24 2397.57,-540.84 2346.65,-532.63 2305.89,-526.06 2297.09,-517.97 2256.65,-509.63 2116.96,-480.83 2079.17,-489.27 1939.65,-459.63 1854.13,-441.46 1836.24,-420.76 1749.65,-408.63 1585.9,-385.69 1543,-403.97 1377.65,-402.63 1305.12,-402.05 1118.95,-391.59 1051.65,-418.63 882.58,-486.56 815.07,-512.16 730.65,-673.63 701.66,-729.08 726.5,-893.61 712.65,-954.63 698.62,-1016.49 668.25,-1084 648.67,-1123.76"/>
<polygon fill="#000000" stroke="#000000" points="645.51,-1122.26 644.18,-1132.77 651.77,-1125.38 645.51,-1122.26"/>
<text text-anchor="middle" x="1672.65" y="-453.03" font-family="Times,serif" font-size="32.00">be_1</text>
<text text-anchor="middle" x="1672.65" y="-418.03" font-family="Times,serif" font-size="32.00">=pass v</text>
</g>
<!-- pass&#45;&gt;prog -->
<g id="edge47" class="edge">
<title>pass&#45;&gt;prog</title>
<path fill="none" stroke="#000000" d="M2518.42,-521.98C2451.83,-467.16 2281.38,-335.12 2114.65,-273.63 2001.31,-231.83 1966.46,-234.63 1845.65,-234.63 1845.65,-234.63 1845.65,-234.63 323.65,-234.63 230.42,-234.63 182.04,-222.76 122.65,-294.63 81.29,-344.69 60.32,-801.58 54.82,-941.86"/>
<polygon fill="#000000" stroke="#000000" points="51.31,-942.04 54.42,-952.17 58.31,-942.31 51.31,-942.04"/>
<text text-anchor="middle" x="1300.65" y="-279.03" font-family="Times,serif" font-size="32.00">being</text>
<text text-anchor="middle" x="1300.65" y="-244.03" font-family="Times,serif" font-size="32.00">=pass prog</text>
</g>
<!-- pass&#45;&gt;perf -->
<g id="edge46" class="edge">
<title>pass&#45;&gt;perf</title>
<path fill="none" stroke="#000000" d="M2500.58,-536.06C2493.59,-534.74 2486.45,-533.54 2479.65,-532.63 2001.99,-468.74 1875.74,-464.71 1395.65,-506.63 1240.31,-520.2 1184.68,-494.28 1051.65,-575.63 1029.36,-589.27 1009.94,-611.18 995.87,-630.08"/>
<polygon fill="#000000" stroke="#000000" points="993,-628.08 989.99,-638.24 998.68,-632.18 993,-628.08"/>
<text text-anchor="middle" x="1844.65" y="-526.03" font-family="Times,serif" font-size="32.00">ben_1</text>
<text text-anchor="middle" x="1844.65" y="-491.03" font-family="Times,serif" font-size="32.00">=pass perf</text>
</g>
<!-- 2 -->
<g id="node14" class="node">
<title>2</title>
<ellipse fill="none" stroke="black" cx="1672.65" cy="-1388.63" rx="27" ry="30.31"/>
<text text-anchor="middle" x="1672.65" y="-1380.53" font-family="Times,serif" font-size="32.00">2</text>
</g>
<!-- 2&#45;&gt;0 -->
<g id="edge17" class="edge">
<title>2&#45;&gt;0</title>
<path fill="none" stroke="#000000" d="M1646.94,-1398.5C1578.33,-1425.28 1379.11,-1499.01 1205.65,-1523.63 1137.89,-1533.25 1105.83,-1565.46 1051.65,-1523.63 1009.95,-1491.43 985.92,-1334.75 976.63,-1259.77"/>
<polygon fill="#000000" stroke="#000000" points="980.1,-1259.26 975.42,-1249.75 973.15,-1260.1 980.1,-1259.26"/>
<text text-anchor="middle" x="1300.65" y="-1565.03" font-family="Times,serif" font-size="32.00">ε_0</text>
<text text-anchor="middle" x="1300.65" y="-1530.03" font-family="Times,serif" font-size="32.00">=&gt;2 0</text>
</g>
<!-- 2&#45;&gt;1 -->
<g id="edge19" class="edge">
<title>2&#45;&gt;1</title>
<path fill="none" stroke="#000000" d="M1652.51,-1367.99C1594.7,-1305.11 1424.06,-1115.58 1395.65,-1038.63 1373.52,-978.69 1411.29,-805.97 1377.65,-751.63 1368.28,-736.5 1351.65,-726.01 1336.33,-719.09"/>
<polygon fill="#000000" stroke="#000000" points="1337.61,-715.83 1327.03,-715.23 1334.92,-722.3 1337.61,-715.83"/>
<text text-anchor="middle" x="1486.65" y="-1329.03" font-family="Times,serif" font-size="32.00">ε_1</text>
<text text-anchor="middle" x="1486.65" y="-1294.03" font-family="Times,serif" font-size="32.00">=&gt;2 1</text>
</g>
<!-- 2&#45;&gt;v -->
<g id="edge20" class="edge">
<title>2&#45;&gt;v</title>
<path fill="none" stroke="#000000" d="M1651.07,-1407.41C1632.48,-1424.01 1604.06,-1448.49 1577.65,-1467.63 1500.57,-1523.52 1473.78,-1526.22 1395.65,-1580.63 1387.34,-1586.43 1387.24,-1591.34 1377.65,-1594.63 1240.4,-1641.73 1182.75,-1638.84 1051.65,-1576.63 861.09,-1486.21 706,-1272.97 651.58,-1191.27"/>
<polygon fill="#000000" stroke="#000000" points="654.46,-1189.29 646.03,-1182.87 648.62,-1193.15 654.46,-1189.29"/>
<text text-anchor="middle" x="1128.65" y="-1671.03" font-family="Times,serif" font-size="32.00">ε_2</text>
<text text-anchor="middle" x="1128.65" y="-1636.03" font-family="Times,serif" font-size="32.00">=&gt;2 =d v</text>
</g>
<!-- 2&#45;&gt;prog -->
<g id="edge21" class="edge">
<title>2&#45;&gt;prog</title>
<path fill="none" stroke="#000000" d="M1656.48,-1413.26C1630.59,-1455.2 1580.41,-1536.25 1577.65,-1538.63 1510.79,-1596.4 1474.35,-1578.46 1395.65,-1618.63 1354.14,-1639.82 1078.23,-1817.02 1033.65,-1830.63 939.1,-1859.51 910.51,-1844.63 811.65,-1844.63 811.65,-1844.63 811.65,-1844.63 323.65,-1844.63 149.19,-1844.63 73.8,-1193.67 57.05,-1023.13"/>
<polygon fill="#000000" stroke="#000000" points="60.52,-1022.67 56.07,-1013.06 53.55,-1023.35 60.52,-1022.67"/>
<text text-anchor="middle" x="810.65" y="-1891.03" font-family="Times,serif" font-size="32.00">ing</text>
<text text-anchor="middle" x="810.65" y="-1856.03" font-family="Times,serif" font-size="32.00">=&gt;2 =d prog</text>
</g>
<!-- 2&#45;&gt;perf -->
<g id="edge22" class="edge">
<title>2&#45;&gt;perf</title>
<path fill="none" stroke="#000000" d="M1649.24,-1372.66C1601.16,-1338.85 1483.83,-1258.79 1377.65,-1205.63 1311.97,-1172.75 1268.06,-1204.15 1223.65,-1145.63 1199.22,-1113.44 1233.06,-994.35 1205.65,-964.63 1158.49,-913.5 1100.2,-986.46 1051.65,-936.63 1033.45,-917.95 1040.53,-845.8 1033.65,-820.63 1022.58,-780.17 1004.19,-735.87 990.39,-705.21"/>
<polygon fill="#000000" stroke="#000000" points="993.42,-703.41 986.09,-695.76 987.05,-706.31 993.42,-703.41"/>
<text text-anchor="middle" x="1300.65" y="-1250.03" font-family="Times,serif" font-size="32.00">n</text>
<text text-anchor="middle" x="1300.65" y="-1215.03" font-family="Times,serif" font-size="32.00">=&gt;2 =d perf</text>
</g>
<!-- c2&#45;&gt;1 -->
<g id="edge36" class="edge">
<title>c2&#45;&gt;1</title>
<path fill="none" stroke="#000000" d="M2010.2,-1239.21C1959.26,-1157.52 1791.22,-908.43 1577.65,-805.63 1503.91,-770.14 1466.28,-818.99 1395.65,-777.63 1384.45,-771.07 1387.32,-763.29 1377.65,-754.63 1364.76,-743.09 1348.67,-732.68 1334.62,-724.61"/>
<polygon fill="#000000" stroke="#000000" points="1336.17,-721.47 1325.73,-719.66 1332.76,-727.58 1336.17,-721.47"/>
<text text-anchor="middle" x="1672.65" y="-965.03" font-family="Times,serif" font-size="32.00">say</text>
<text text-anchor="middle" x="1672.65" y="-930.03" font-family="Times,serif" font-size="32.00">=c2 1</text>
</g>
<!-- c2&#45;&gt;2 -->
<g id="edge18" class="edge">
<title>c2&#45;&gt;2</title>
<path fill="none" stroke="#000000" d="M2002.6,-1286.76C1982.49,-1303.64 1952.09,-1326.56 1921.65,-1339.63 1850.46,-1370.21 1759.51,-1381.92 1709.92,-1386.24"/>
<polygon fill="#000000" stroke="#000000" points="1709.37,-1382.77 1699.69,-1387.07 1709.94,-1389.75 1709.37,-1382.77"/>
<text text-anchor="middle" x="1844.65" y="-1424.03" font-family="Times,serif" font-size="32.00">declare</text>
<text text-anchor="middle" x="1844.65" y="-1389.03" font-family="Times,serif" font-size="32.00">=c2 2</text>
</g>
<!-- 3 -->
<g id="node16" class="node">
<title>3</title>
<ellipse fill="none" stroke="black" cx="1672.65" cy="-1094.63" rx="27" ry="30.31"/>
<text text-anchor="middle" x="1672.65" y="-1086.53" font-family="Times,serif" font-size="32.00">3</text>
</g>
<!-- c2&#45;&gt;3 -->
<g id="edge24" class="edge">
<title>c2&#45;&gt;3</title>
<path fill="none" stroke="#000000" d="M2001.51,-1245.57C1981.01,-1229.54 1950.61,-1207.25 1921.65,-1191.63 1849.28,-1152.61 1757.77,-1120.99 1708.64,-1105.32"/>
<polygon fill="#000000" stroke="#000000" points="1709.41,-1101.9 1698.82,-1102.23 1707.31,-1108.57 1709.41,-1101.9"/>
<text text-anchor="middle" x="1844.65" y="-1236.03" font-family="Times,serif" font-size="32.00">think</text>
<text text-anchor="middle" x="1844.65" y="-1201.03" font-family="Times,serif" font-size="32.00">=c2 3</text>
</g>
<!-- 4 -->
<g id="node17" class="node">
<title>4</title>
<ellipse fill="none" stroke="black" cx="1672.65" cy="-1265.63" rx="27" ry="30.31"/>
<text text-anchor="middle" x="1672.65" y="-1257.53" font-family="Times,serif" font-size="32.00">4</text>
</g>
<!-- c2&#45;&gt;4 -->
<g id="edge30" class="edge">
<title>c2&#45;&gt;4</title>
<path fill="none" stroke="#000000" d="M1993.62,-1265.63C1927.78,-1265.63 1779.12,-1265.63 1710.12,-1265.63"/>
<polygon fill="#000000" stroke="#000000" points="1709.75,-1262.13 1699.75,-1265.63 1709.75,-1269.13 1709.75,-1262.13"/>
<text text-anchor="middle" x="1844.65" y="-1310.03" font-family="Times,serif" font-size="32.00">explain</text>
<text text-anchor="middle" x="1844.65" y="-1275.03" font-family="Times,serif" font-size="32.00">=c2 4</text>
</g>
<!-- 3&#45;&gt;0 -->
<g id="edge23" class="edge">
<title>3&#45;&gt;0</title>
<path fill="none" stroke="#000000" d="M1654.94,-1117.89C1638.15,-1139.06 1610.16,-1168.9 1577.65,-1181.63 1502.34,-1211.14 1457.45,-1233.82 1395.65,-1181.63 1359.14,-1150.8 1414.16,-1106.46 1377.65,-1075.63 1325.36,-1031.47 1277.6,-1033.51 1223.65,-1075.63 1197.65,-1095.93 1229.72,-1125.08 1205.65,-1147.63 1154.89,-1195.2 1117.17,-1152.26 1051.65,-1175.63 1035.08,-1181.55 1017.85,-1190.66 1003.69,-1199.07"/>
<polygon fill="#000000" stroke="#000000" points="1001.58,-1196.25 994.86,-1204.44 1005.22,-1202.23 1001.58,-1196.25"/>
<text text-anchor="middle" x="1300.65" y="-1120.03" font-family="Times,serif" font-size="32.00">ε_3</text>
<text text-anchor="middle" x="1300.65" y="-1085.03" font-family="Times,serif" font-size="32.00">=&gt;3 0</text>
</g>
<!-- 3&#45;&gt;1 -->
<g id="edge25" class="edge">
<title>3&#45;&gt;1</title>
<path fill="none" stroke="#000000" d="M1659.27,-1068.06C1642.91,-1032.09 1613.99,-965.63 1595.65,-906.63 1584.7,-871.42 1604.91,-850.47 1577.65,-825.63 1517.38,-770.72 1459.12,-853.81 1395.65,-802.63 1376.94,-787.54 1393,-770.13 1377.65,-751.63 1366.63,-738.35 1350.5,-728.21 1335.92,-721.03"/>
<polygon fill="#000000" stroke="#000000" points="1337.19,-717.76 1326.64,-716.74 1334.25,-724.12 1337.19,-717.76"/>
<text text-anchor="middle" x="1486.65" y="-870.03" font-family="Times,serif" font-size="32.00">ε_4</text>
<text text-anchor="middle" x="1486.65" y="-835.03" font-family="Times,serif" font-size="32.00">=&gt;3 1</text>
</g>
<!-- 3&#45;&gt;v -->
<g id="edge26" class="edge">
<title>3&#45;&gt;v</title>
<path fill="none" stroke="#000000" d="M1651.1,-1113.38C1633.18,-1128.37 1605.74,-1148.2 1577.65,-1156.63 1538.91,-1168.26 1426.35,-1182.97 1395.65,-1156.63 1355.72,-1122.38 1413.16,-1078.46 1377.65,-1039.63 1330.08,-987.61 1285.54,-1035.39 1223.65,-1001.63 1213.99,-996.36 1215.88,-988.7 1205.65,-984.63 1142.05,-959.35 1120.08,-983.25 1051.65,-984.63 908.9,-987.52 854.01,-925.73 730.65,-997.63 684.72,-1024.4 656.94,-1081.51 642.69,-1120"/>
<polygon fill="#000000" stroke="#000000" points="639.24,-1119.24 639.19,-1129.84 645.84,-1121.59 639.24,-1119.24"/>
<text text-anchor="middle" x="1128.65" y="-1029.03" font-family="Times,serif" font-size="32.00">ε_5</text>
<text text-anchor="middle" x="1128.65" y="-994.03" font-family="Times,serif" font-size="32.00">=&gt;3 =d v</text>
</g>
<!-- 3&#45;&gt;prog -->
<g id="edge27" class="edge">
<title>3&#45;&gt;prog</title>
<path fill="none" stroke="#000000" d="M1649.2,-1078.89C1630.81,-1066.78 1603.68,-1050.64 1577.65,-1041.63 1500.31,-1014.88 1455.71,-1069.23 1395.65,-1013.63 1369.86,-989.76 1399.29,-964.33 1377.65,-936.63 1330.29,-876.02 1275.9,-914.09 1223.65,-857.63 1209.58,-842.43 1222.9,-826.11 1205.65,-814.63 1148.67,-776.71 1120.1,-814.53 1051.65,-814.63 908.98,-814.86 872.51,-800.41 730.65,-815.63 455.9,-845.11 382.19,-850.76 122.65,-945.63 114.64,-948.56 106.4,-952.27 98.54,-956.2"/>
<polygon fill="#000000" stroke="#000000" points="96.77,-953.17 89.5,-960.88 99.99,-959.38 96.77,-953.17"/>
<text text-anchor="middle" x="810.65" y="-860.03" font-family="Times,serif" font-size="32.00">ing_1</text>
<text text-anchor="middle" x="810.65" y="-825.03" font-family="Times,serif" font-size="32.00">=&gt;3 =d prog</text>
</g>
<!-- 3&#45;&gt;perf -->
<g id="edge28" class="edge">
<title>3&#45;&gt;perf</title>
<path fill="none" stroke="#000000" d="M1664.36,-1065.65C1652.91,-1026.59 1626.79,-958 1577.65,-923.63 1510.59,-876.72 1453.88,-953.14 1395.65,-895.63 1361.03,-861.44 1412.59,-821.51 1377.65,-787.63 1325.17,-736.75 1117.42,-775.55 1051.65,-743.63 1031.63,-733.92 1013.45,-717.23 999.55,-701.88"/>
<polygon fill="#000000" stroke="#000000" points="1001.9,-699.24 992.68,-694.01 996.62,-703.84 1001.9,-699.24"/>
<text text-anchor="middle" x="1300.65" y="-832.03" font-family="Times,serif" font-size="32.00">n_1</text>
<text text-anchor="middle" x="1300.65" y="-797.03" font-family="Times,serif" font-size="32.00">=&gt;3 =d perf</text>
</g>
<!-- 4&#45;&gt;0 -->
<g id="edge29" class="edge">
<title>4&#45;&gt;0</title>
<path fill="none" stroke="#000000" d="M1645.9,-1270.6C1560.61,-1286.44 1289.12,-1331.71 1223.65,-1279.63 1195.81,-1257.48 1233.49,-1223.78 1205.65,-1201.63 1148.08,-1155.83 1055.25,-1183.77 1005.76,-1204.09"/>
<polygon fill="#000000" stroke="#000000" points="1004.3,-1200.9 996.46,-1208.02 1007.03,-1207.35 1004.3,-1200.9"/>
<text text-anchor="middle" x="1300.65" y="-1349.03" font-family="Times,serif" font-size="32.00">ε_6</text>
<text text-anchor="middle" x="1300.65" y="-1314.03" font-family="Times,serif" font-size="32.00">=&gt;4 0</text>
</g>
<!-- 4&#45;&gt;1 -->
<g id="edge31" class="edge">
<title>4&#45;&gt;1</title>
<path fill="none" stroke="#000000" d="M1654.47,-1242.72C1636.52,-1217.44 1609.11,-1174.86 1595.65,-1133.63 1584.21,-1098.57 1600.22,-997.8 1577.65,-968.63 1524.71,-900.22 1449.01,-967.72 1395.65,-899.63 1354.78,-847.48 1414.16,-806.93 1377.65,-751.63 1368,-737.02 1351.72,-726.66 1336.69,-719.69"/>
<polygon fill="#000000" stroke="#000000" points="1337.65,-716.29 1327.08,-715.58 1334.9,-722.73 1337.65,-716.29"/>
<text text-anchor="middle" x="1486.65" y="-1013.03" font-family="Times,serif" font-size="32.00">ε_7</text>
<text text-anchor="middle" x="1486.65" y="-978.03" font-family="Times,serif" font-size="32.00">=&gt;4 1</text>
</g>
<!-- 4&#45;&gt;v -->
<g id="edge32" class="edge">
<title>4&#45;&gt;v</title>
<path fill="none" stroke="#000000" d="M1645.48,-1266.75C1554.35,-1270.39 1254.78,-1280.08 1223.65,-1251.63 1174.74,-1206.93 1255.25,-1147.57 1205.65,-1103.63 1154.42,-1058.25 1119.95,-1099.19 1051.65,-1103.63 908.28,-1112.96 739.17,-1139.97 666.64,-1152.33"/>
<polygon fill="#000000" stroke="#000000" points="665.91,-1148.9 656.65,-1154.04 667.1,-1155.8 665.91,-1148.9"/>
<text text-anchor="middle" x="1128.65" y="-1148.03" font-family="Times,serif" font-size="32.00">ε_8</text>
<text text-anchor="middle" x="1128.65" y="-1113.03" font-family="Times,serif" font-size="32.00">=&gt;4 =d v</text>
</g>
<!-- 4&#45;&gt;prog -->
<g id="edge33" class="edge">
<title>4&#45;&gt;prog</title>
<path fill="none" stroke="#000000" d="M1649.61,-1282.14C1602.24,-1316.91 1486.19,-1398.29 1377.65,-1444.63 1312.51,-1472.45 1274.19,-1436.01 1223.65,-1485.63 1202.88,-1506.04 1228.9,-1531.1 1205.65,-1548.63 1178.33,-1569.24 1078.85,-1569.41 1051.65,-1548.63 1027.49,-1530.18 1045.15,-1510.78 1033.65,-1482.63 1032.88,-1480.75 891.74,-1228.36 890.65,-1226.63 817.47,-1110.24 834.67,-1036.98 712.65,-973.63 609.69,-920.18 256.49,-957.01 113.82,-974.67"/>
<polygon fill="#000000" stroke="#000000" points="113,-971.24 103.51,-975.96 113.87,-978.19 113,-971.24"/>
<text text-anchor="middle" x="810.65" y="-1271.03" font-family="Times,serif" font-size="32.00">ing_2</text>
<text text-anchor="middle" x="810.65" y="-1236.03" font-family="Times,serif" font-size="32.00">=&gt;4 =d prog</text>
</g>
<!-- 4&#45;&gt;perf -->
<g id="edge34" class="edge">
<title>4&#45;&gt;perf</title>
<path fill="none" stroke="#000000" d="M1645.79,-1261.54C1589.65,-1251.17 1456.79,-1218.23 1395.65,-1131.63 1353.87,-1072.45 1427.17,-1022.51 1377.65,-969.63 1327.35,-915.93 1104.18,-963.16 1051.65,-911.63 1022.22,-882.76 1045.35,-860.17 1033.65,-820.63 1021.75,-780.4 1003.47,-736.07 989.93,-705.34"/>
<polygon fill="#000000" stroke="#000000" points="992.98,-703.58 985.71,-695.87 986.58,-706.43 992.98,-703.58"/>
<text text-anchor="middle" x="1300.65" y="-1014.03" font-family="Times,serif" font-size="32.00">n_2</text>
<text text-anchor="middle" x="1300.65" y="-979.03" font-family="Times,serif" font-size="32.00">=&gt;4 =d perf</text>
</g>
<!-- to&#45;&gt;t -->
<g id="edge48" class="edge">
<title>to&#45;&gt;t</title>
<path fill="none" stroke="#000000" d="M336.2,-1151.69C348.75,-1184.46 370.76,-1240.13 392.65,-1286.63 528.63,-1575.55 482.88,-1719.2 730.65,-1920.63 794.6,-1972.62 827.06,-1960.96 908.65,-1972.63 963.65,-1980.5 978.1,-1972.71 1033.65,-1972.63 1186.54,-1972.41 1225.75,-1988.97 1377.65,-1971.63 1554.29,-1951.47 1592.33,-1912.14 1767.65,-1882.63 1844.15,-1869.76 2049.5,-1886.74 2114.65,-1844.63 2262.29,-1749.23 2292.74,-1514.5 2299.02,-1420.01"/>
<polygon fill="#000000" stroke="#000000" points="2302.52,-1420.18 2299.63,-1409.99 2295.53,-1419.76 2302.52,-1420.18"/>
<text text-anchor="middle" x="1300.65" y="-2128.03" font-family="Times,serif" font-size="32.00">seems |</text>
<text text-anchor="middle" x="1300.65" y="-2093.03" font-family="Times,serif" font-size="32.00"> seemd |</text>
<text text-anchor="middle" x="1300.65" y="-2058.03" font-family="Times,serif" font-size="32.00"> appears |</text>
<text text-anchor="middle" x="1300.65" y="-2023.03" font-family="Times,serif" font-size="32.00"> appeard</text>
<text text-anchor="middle" x="1300.65" y="-1988.03" font-family="Times,serif" font-size="32.00">=to +k t</text>
</g>
<!-- to&#45;&gt;v -->
<g id="edge49" class="edge">
<title>to&#45;&gt;v</title>
<path fill="none" stroke="#000000" d="M347.97,-1142.08C360.32,-1151.09 376.42,-1160.97 392.65,-1165.63 461.32,-1185.38 545.9,-1174.99 592.88,-1166.35"/>
<polygon fill="#000000" stroke="#000000" points="593.71,-1169.75 602.87,-1164.43 592.39,-1162.88 593.71,-1169.75"/>
<text text-anchor="middle" x="460.65" y="-1257.03" font-family="Times,serif" font-size="32.00">seem |</text>
<text text-anchor="middle" x="460.65" y="-1222.03" font-family="Times,serif" font-size="32.00"> appear</text>
<text text-anchor="middle" x="460.65" y="-1187.03" font-family="Times,serif" font-size="32.00">=to v</text>
</g>
<!-- to&#45;&gt;prog -->
<g id="edge51" class="edge">
<title>to&#45;&gt;prog</title>
<path fill="none" stroke="#000000" d="M298.21,-1110.6C260.02,-1091.01 185.6,-1052.72 122.65,-1019.63 115.52,-1015.88 107.99,-1011.9 100.62,-1007.98"/>
<polygon fill="#000000" stroke="#000000" points="101.89,-1004.69 91.42,-1003.08 98.6,-1010.87 101.89,-1004.69"/>
<text text-anchor="middle" x="189.65" y="-1169.03" font-family="Times,serif" font-size="32.00">seeming |</text>
<text text-anchor="middle" x="189.65" y="-1134.03" font-family="Times,serif" font-size="32.00"> appearing</text>
<text text-anchor="middle" x="189.65" y="-1099.03" font-family="Times,serif" font-size="32.00">=to prog</text>
</g>
<!-- to&#45;&gt;perf -->
<g id="edge50" class="edge">
<title>to&#45;&gt;perf</title>
<path fill="none" stroke="#000000" d="M349.94,-1107.97C358.11,-1102.27 367.07,-1095.52 374.65,-1088.63 553.04,-926.6 514.11,-785.41 730.65,-679.63 788.41,-651.42 863.59,-652.5 914.19,-657.81"/>
<polygon fill="#000000" stroke="#000000" points="913.95,-661.31 924.28,-658.96 914.74,-654.35 913.95,-661.31"/>
<text text-anchor="middle" x="629.65" y="-925.03" font-family="Times,serif" font-size="32.00">seemn |</text>
<text text-anchor="middle" x="629.65" y="-890.03" font-family="Times,serif" font-size="32.00"> appearn</text>
<text text-anchor="middle" x="629.65" y="-855.03" font-family="Times,serif" font-size="32.00">=to perf</text>
</g>
<!-- c1&#45;&gt;t -->
<g id="edge52" class="edge">
<title>c1&#45;&gt;t</title>
<path fill="none" stroke="#000000" d="M1333.36,-1773.26C1351.56,-1769.68 1374.86,-1765.22 1395.65,-1761.63 1476.3,-1747.71 1500.37,-1760.56 1577.65,-1733.63 1660.74,-1704.68 1696.7,-1705.9 1749.65,-1635.63 1770.02,-1608.6 1741.47,-1583.09 1767.65,-1561.63 1851.77,-1492.7 2171.62,-1609.45 2256.65,-1541.63 2275.6,-1526.52 2288.49,-1462.69 2295.21,-1419.81"/>
<polygon fill="#000000" stroke="#000000" points="2298.71,-1420.08 2296.74,-1409.67 2291.79,-1419.03 2298.71,-1420.08"/>
<text text-anchor="middle" x="1844.65" y="-1711.03" font-family="Times,serif" font-size="32.00">seems_1 |</text>
<text text-anchor="middle" x="1844.65" y="-1676.03" font-family="Times,serif" font-size="32.00"> seemd_1 |</text>
<text text-anchor="middle" x="1844.65" y="-1641.03" font-family="Times,serif" font-size="32.00"> appears_1 |</text>
<text text-anchor="middle" x="1844.65" y="-1606.03" font-family="Times,serif" font-size="32.00"> appeard_1</text>
<text text-anchor="middle" x="1844.65" y="-1571.03" font-family="Times,serif" font-size="32.00">=c1 +k t</text>
</g>
<!-- c1&#45;&gt;v -->
<g id="edge53" class="edge">
<title>c1&#45;&gt;v</title>
<path fill="none" stroke="#000000" d="M1267.32,-1780.12C1219.76,-1780.33 1128.29,-1778.88 1051.65,-1766.63 1015.16,-1760.8 755.78,-1706.72 730.65,-1679.63 665.5,-1609.4 640.2,-1309.24 633.01,-1199.25"/>
<polygon fill="#000000" stroke="#000000" points="636.5,-1198.96 632.37,-1189.21 629.51,-1199.41 636.5,-1198.96"/>
<text text-anchor="middle" x="971.15" y="-1842.03" font-family="Times,serif" font-size="32.00">seem_1 |</text>
<text text-anchor="middle" x="971.15" y="-1807.03" font-family="Times,serif" font-size="32.00"> appear_1</text>
<text text-anchor="middle" x="971.15" y="-1772.03" font-family="Times,serif" font-size="32.00">=c1 v</text>
</g>
<!-- c1&#45;&gt;prog -->
<g id="edge55" class="edge">
<title>c1&#45;&gt;prog</title>
<path fill="none" stroke="#000000" d="M1271.3,-1794.69C1124.99,-1870.13 449.71,-2190.47 122.65,-1858.63 63.45,-1798.56 54.8,-1188.58 53.54,-1023.59"/>
<polygon fill="#000000" stroke="#000000" points="57.04,-1023.35 53.47,-1013.37 50.04,-1023.4 57.04,-1023.35"/>
<text text-anchor="middle" x="629.65" y="-2085.03" font-family="Times,serif" font-size="32.00">seeming_1 |</text>
<text text-anchor="middle" x="629.65" y="-2050.03" font-family="Times,serif" font-size="32.00"> appearing_1</text>
<text text-anchor="middle" x="629.65" y="-2015.03" font-family="Times,serif" font-size="32.00">=c1 prog</text>
</g>
<!-- c1&#45;&gt;perf -->
<g id="edge54" class="edge">
<title>c1&#45;&gt;perf</title>
<path fill="none" stroke="#000000" d="M1287.01,-1751.6C1270.48,-1714.03 1241.53,-1644.95 1223.65,-1583.63 1212.24,-1544.47 1228.71,-1527.28 1205.65,-1493.63 1159.79,-1426.71 1091.83,-1466.12 1051.65,-1395.63 1020.77,-1341.45 1045.52,-895.86 1033.65,-834.63 1024.75,-788.7 1005.03,-738.66 990.31,-705.24"/>
<polygon fill="#000000" stroke="#000000" points="993.38,-703.56 986.11,-695.86 986.99,-706.41 993.38,-703.56"/>
<text text-anchor="middle" x="1128.65" y="-1573.03" font-family="Times,serif" font-size="32.00">seemn_1 |</text>
<text text-anchor="middle" x="1128.65" y="-1538.03" font-family="Times,serif" font-size="32.00"> appearn_1</text>
<text text-anchor="middle" x="1128.65" y="-1503.03" font-family="Times,serif" font-size="32.00">=c1 perf</text>
</g>
<!-- z4 -->
<g id="node20" class="node">
<title>z4</title>
<ellipse fill="none" stroke="black" stroke-dasharray="5,2" cx="3137.48" cy="-1834.63" rx="27" ry="18"/>
</g>
<!-- e -->
<g id="node21" class="node">
<title>e</title>
<ellipse fill="none" stroke="black" cx="2984.48" cy="-1834.63" rx="27" ry="30.31"/>
<text text-anchor="middle" x="2984.48" y="-1826.53" font-family="Times,serif" font-size="32.00">e</text>
</g>
<!-- z4&#45;&gt;e -->
<g id="edge58" class="edge">
<title>z4&#45;&gt;e</title>
<path fill="none" stroke="#000000" d="M3110.17,-1834.63C3085.71,-1834.63 3049.03,-1834.63 3021.78,-1834.63"/>
<polygon fill="#000000" stroke="#000000" points="3021.48,-1831.13 3011.48,-1834.63 3021.48,-1838.13 3021.48,-1831.13"/>
<text text-anchor="middle" x="3060.98" y="-1879.03" font-family="Times,serif" font-size="32.00">it</text>
<text text-anchor="middle" x="3060.98" y="-1844.03" font-family="Times,serif" font-size="32.00">e &#45;k</text>
</g>
</g>
</svg>
