<?xml version="1.0" encoding="UTF-8" standalone="no"?>
<!DOCTYPE svg PUBLIC "-//W3C//DTD SVG 1.1//EN"
 "http://www.w3.org/Graphics/SVG/1.1/DTD/svg11.dtd">
<!-- Generated by graphviz version 2.47.1 (20210417.1919)
 -->
<!-- Title: G Pages: 1 -->
<svg width="1754pt" height="1235pt"
 viewBox="0.00 0.00 1754.27 1235.00" xmlns="http://www.w3.org/2000/svg" xmlns:xlink="http://www.w3.org/1999/xlink">
<g id="graph0" class="graph" transform="scale(1 1) rotate(0) translate(4 1231)">
<title>G</title>
<polygon fill="white" stroke="transparent" points="-4,4 -4,-1231 1750.27,-1231 1750.27,4 -4,4"/>
<text text-anchor="middle" x="873.14" y="-13.4" font-family="Times,serif" font-size="32.00">single contraction: 2 → 0</text>
<!-- t -->
<g id="node1" class="node">
<title>t</title>
<ellipse fill="lightgray" stroke="black" cx="1566.27" cy="-932" rx="27" ry="30.31"/>
<text text-anchor="middle" x="1566.27" y="-923.9" font-family="Times,serif" font-size="32.00">t</text>
</g>
<!-- c2 -->
<g id="node13" class="node">
<title>c2</title>
<ellipse fill="none" stroke="black" cx="1364.04" cy="-932" rx="33.47" ry="30.31"/>
<text text-anchor="middle" x="1364.04" y="-923.9" font-family="Times,serif" font-size="32.00">c2</text>
</g>
<!-- t&#45;&gt;c2 -->
<g id="edge35" class="edge">
<title>t&#45;&gt;c2</title>
<path fill="none" stroke="#000000" d="M1539.1,-932C1505.72,-932 1447.57,-932 1407.74,-932"/>
<polygon fill="#000000" stroke="#000000" points="1407.53,-928.5 1397.53,-932 1407.53,-935.5 1407.53,-928.5"/>
<text text-anchor="middle" x="1468.27" y="-976.4" font-family="Times,serif" font-size="32.00">that_1</text>
<text text-anchor="middle" x="1468.27" y="-941.4" font-family="Times,serif" font-size="32.00">=t c2</text>
</g>
<!-- c1 -->
<g id="node19" class="node">
<title>c1</title>
<ellipse fill="none" stroke="black" cx="1364.04" cy="-668" rx="33.47" ry="30.31"/>
<text text-anchor="middle" x="1364.04" y="-659.9" font-family="Times,serif" font-size="32.00">c1</text>
</g>
<!-- t&#45;&gt;c1 -->
<g id="edge34" class="edge">
<title>t&#45;&gt;c1</title>
<path fill="none" stroke="#000000" d="M1551.32,-906.4C1543.09,-891.87 1532.18,-873.54 1521.27,-858 1479.99,-799.18 1425.48,-735.59 1392.96,-698.92"/>
<polygon fill="#000000" stroke="#000000" points="1395.24,-696.22 1385.98,-691.08 1390.01,-700.87 1395.24,-696.22"/>
<text text-anchor="middle" x="1468.27" y="-902.4" font-family="Times,serif" font-size="32.00">that</text>
<text text-anchor="middle" x="1468.27" y="-867.4" font-family="Times,serif" font-size="32.00">=t =e c1</text>
</g>
<!-- z0 -->
<g id="node2" class="node">
<title>z0</title>
<ellipse fill="none" stroke="black" stroke-dasharray="5,2" cx="1566.27" cy="-206" rx="27" ry="18"/>
</g>
<!-- d -->
<g id="node3" class="node">
<title>d</title>
<ellipse fill="none" stroke="black" cx="1364.04" cy="-272" rx="27" ry="30.31"/>
<text text-anchor="middle" x="1364.04" y="-263.9" font-family="Times,serif" font-size="32.00">d</text>
</g>
<!-- z0&#45;&gt;d -->
<g id="edge1" class="edge">
<title>z0&#45;&gt;d</title>
<path fill="none" stroke="#000000" d="M1540.66,-199.89C1509.64,-193.54 1455.53,-187.07 1415.27,-207 1402.11,-213.52 1391.41,-225.31 1383.32,-237.08"/>
<polygon fill="#000000" stroke="#000000" points="1380.32,-235.26 1377.89,-245.58 1386.22,-239.03 1380.32,-235.26"/>
<text text-anchor="middle" x="1468.27" y="-356.4" font-family="Times,serif" font-size="32.00">Mary |</text>
<text text-anchor="middle" x="1468.27" y="-321.4" font-family="Times,serif" font-size="32.00"> John |</text>
<text text-anchor="middle" x="1468.27" y="-286.4" font-family="Times,serif" font-size="32.00"> Alice |</text>
<text text-anchor="middle" x="1468.27" y="-251.4" font-family="Times,serif" font-size="32.00"> Bob</text>
<text text-anchor="middle" x="1468.27" y="-216.4" font-family="Times,serif" font-size="32.00">d &#45;k</text>
</g>
<!-- 1 -->
<g id="node7" class="node">
<title>1</title>
<ellipse fill="none" stroke="black" cx="1125.89" cy="-905" rx="27" ry="30.31"/>
<text text-anchor="middle" x="1125.89" y="-896.9" font-family="Times,serif" font-size="32.00">1</text>
</g>
<!-- d&#45;&gt;1 -->
<g id="edge10" class="edge">
<title>d&#45;&gt;1</title>
<path fill="none" stroke="#000000" d="M1355.46,-301.27C1348.14,-323.93 1334.85,-354.48 1312.81,-373 1270.92,-408.19 1229.33,-365.57 1194.81,-408 1179.68,-426.6 1179.9,-599.23 1176.81,-623 1165.48,-710.08 1146.02,-811.23 1135.05,-865.59"/>
<polygon fill="#000000" stroke="#000000" points="1131.6,-865 1133.04,-875.5 1138.46,-866.4 1131.6,-865"/>
<text text-anchor="middle" x="1253.81" y="-557.4" font-family="Times,serif" font-size="32.00">praise |</text>
<text text-anchor="middle" x="1253.81" y="-522.4" font-family="Times,serif" font-size="32.00"> like |</text>
<text text-anchor="middle" x="1253.81" y="-487.4" font-family="Times,serif" font-size="32.00"> kiss |</text>
<text text-anchor="middle" x="1253.81" y="-452.4" font-family="Times,serif" font-size="32.00"> hug</text>
<text text-anchor="middle" x="1253.81" y="-417.4" font-family="Times,serif" font-size="32.00">=d *k 1</text>
</g>
<!-- pass -->
<g id="node12" class="node">
<title>pass</title>
<ellipse fill="none" stroke="black" cx="1125.89" cy="-197" rx="50.82" ry="30.31"/>
<text text-anchor="middle" x="1125.89" y="-188.9" font-family="Times,serif" font-size="32.00">pass</text>
</g>
<!-- d&#45;&gt;pass -->
<g id="edge11" class="edge">
<title>d&#45;&gt;pass</title>
<path fill="none" stroke="#000000" d="M1352.2,-244.27C1344.07,-227.61 1331.17,-207.79 1312.81,-198 1273.33,-176.95 1222.1,-178.4 1183.41,-184.16"/>
<polygon fill="#000000" stroke="#000000" points="1182.67,-180.73 1173.36,-185.79 1183.79,-187.64 1182.67,-180.73"/>
<text text-anchor="middle" x="1253.81" y="-347.4" font-family="Times,serif" font-size="32.00">praisen |</text>
<text text-anchor="middle" x="1253.81" y="-312.4" font-family="Times,serif" font-size="32.00"> liken |</text>
<text text-anchor="middle" x="1253.81" y="-277.4" font-family="Times,serif" font-size="32.00"> kissn |</text>
<text text-anchor="middle" x="1253.81" y="-242.4" font-family="Times,serif" font-size="32.00"> hugn</text>
<text text-anchor="middle" x="1253.81" y="-207.4" font-family="Times,serif" font-size="32.00">=d pass</text>
</g>
<!-- n -->
<g id="node4" class="node">
<title>n</title>
<ellipse fill="none" stroke="black" cx="1566.27" cy="-404" rx="27" ry="30.31"/>
<text text-anchor="middle" x="1566.27" y="-395.9" font-family="Times,serif" font-size="32.00">n</text>
</g>
<!-- n&#45;&gt;d -->
<g id="edge2" class="edge">
<title>n&#45;&gt;d</title>
<path fill="none" stroke="#000000" d="M1539.4,-407.21C1507.07,-409.77 1451.58,-409.26 1415.27,-382 1392.8,-365.12 1380.09,-335.82 1373.08,-311.69"/>
<polygon fill="#000000" stroke="#000000" points="1376.38,-310.48 1370.42,-301.73 1369.62,-312.29 1376.38,-310.48"/>
<text text-anchor="middle" x="1468.27" y="-558.4" font-family="Times,serif" font-size="32.00">this |</text>
<text text-anchor="middle" x="1468.27" y="-523.4" font-family="Times,serif" font-size="32.00"> a |</text>
<text text-anchor="middle" x="1468.27" y="-488.4" font-family="Times,serif" font-size="32.00"> the |</text>
<text text-anchor="middle" x="1468.27" y="-453.4" font-family="Times,serif" font-size="32.00"> some</text>
<text text-anchor="middle" x="1468.27" y="-418.4" font-family="Times,serif" font-size="32.00">=n d &#45;k</text>
</g>
<!-- z1 -->
<g id="node5" class="node">
<title>z1</title>
<ellipse fill="none" stroke="black" stroke-dasharray="5,2" cx="1719.27" cy="-404" rx="27" ry="18"/>
</g>
<!-- z1&#45;&gt;n -->
<g id="edge3" class="edge">
<title>z1&#45;&gt;n</title>
<path fill="none" stroke="#000000" d="M1691.97,-404C1667.5,-404 1630.83,-404 1603.58,-404"/>
<polygon fill="#000000" stroke="#000000" points="1603.27,-400.5 1593.27,-404 1603.27,-407.5 1603.27,-400.5"/>
<text text-anchor="middle" x="1642.77" y="-483.4" font-family="Times,serif" font-size="32.00">boy |</text>
<text text-anchor="middle" x="1642.77" y="-448.4" font-family="Times,serif" font-size="32.00"> girl</text>
<text text-anchor="middle" x="1642.77" y="-413.4" font-family="Times,serif" font-size="32.00">n</text>
</g>
<!-- 0 -->
<g id="node6" class="node">
<title>0</title>
<ellipse fill="none" stroke="black" cx="28.99" cy="-783" rx="27" ry="30.31"/>
<text text-anchor="middle" x="28.99" y="-774.9" font-family="Times,serif" font-size="32.00">0</text>
</g>
<!-- 0&#45;&gt;t -->
<g id="edge4" class="edge">
<title>0&#45;&gt;t</title>
<path fill="none" stroke="#000000" d="M31.69,-813.38C38.14,-896.59 68.39,-1122 206.98,-1122 1365.04,-1122 1365.04,-1122 1365.04,-1122 1451.52,-1122 1464.93,-1071.61 1521.27,-1006 1532.41,-993.03 1530.61,-986.74 1539.27,-972 1540.73,-969.52 1542.27,-966.98 1543.84,-964.44"/>
<polygon fill="#000000" stroke="#000000" points="1546.86,-966.22 1549.25,-955.89 1540.94,-962.48 1546.86,-966.22"/>
<text text-anchor="middle" x="779.98" y="-1201.4" font-family="Times,serif" font-size="32.00">s |</text>
<text text-anchor="middle" x="779.98" y="-1166.4" font-family="Times,serif" font-size="32.00"> d</text>
<text text-anchor="middle" x="779.98" y="-1131.4" font-family="Times,serif" font-size="32.00">=&gt;0 +k t</text>
</g>
<!-- 1&#45;&gt;0 -->
<g id="edge5" class="edge">
<title>1&#45;&gt;0</title>
<path fill="none" stroke="#000000" d="M1101.68,-919.12C1047.56,-950.64 907.97,-1024 780.98,-1024 780.98,-1024 780.98,-1024 206.98,-1024 132.64,-1024 118.68,-980.85 75.98,-920 55.42,-890.7 43.49,-851.5 36.96,-822.54"/>
<polygon fill="#000000" stroke="#000000" points="40.38,-821.81 34.87,-812.76 33.54,-823.27 40.38,-821.81"/>
<text text-anchor="middle" x="457.48" y="-1068.4" font-family="Times,serif" font-size="32.00">ε_0</text>
<text text-anchor="middle" x="457.48" y="-1033.4" font-family="Times,serif" font-size="32.00">=&gt;1 =d 0</text>
</g>
<!-- v -->
<g id="node9" class="node">
<title>v</title>
<ellipse fill="none" stroke="black" cx="207.98" cy="-482" rx="27" ry="30.31"/>
<text text-anchor="middle" x="207.98" y="-473.9" font-family="Times,serif" font-size="32.00">v</text>
</g>
<!-- 1&#45;&gt;v -->
<g id="edge7" class="edge">
<title>1&#45;&gt;v</title>
<path fill="none" stroke="#000000" d="M1099.28,-911.71C1086.63,-914.75 1071.1,-918.09 1056.98,-920 971.87,-931.52 949.85,-927.78 863.98,-930 789.34,-931.93 769.82,-941.12 695.98,-930 625.85,-919.44 457.7,-860.07 390.98,-836 337.57,-816.73 307.07,-832.41 272.98,-787 251.24,-758.03 262.57,-660.42 254.98,-625 247.12,-588.27 233.54,-547.61 223.17,-519.07"/>
<polygon fill="#000000" stroke="#000000" points="226.39,-517.68 219.65,-509.5 219.82,-520.09 226.39,-517.68"/>
<text text-anchor="middle" x="609.98" y="-971.4" font-family="Times,serif" font-size="32.00">ε_1</text>
<text text-anchor="middle" x="609.98" y="-936.4" font-family="Times,serif" font-size="32.00">=&gt;1 =d v</text>
</g>
<!-- prog -->
<g id="node10" class="node">
<title>prog</title>
<ellipse fill="none" stroke="black" cx="779.98" cy="-677" rx="52.15" ry="30.31"/>
<text text-anchor="middle" x="779.98" y="-668.9" font-family="Times,serif" font-size="32.00">prog</text>
</g>
<!-- 1&#45;&gt;prog -->
<g id="edge8" class="edge">
<title>1&#45;&gt;prog</title>
<path fill="none" stroke="#000000" d="M1109.75,-880.04C1097.48,-861.61 1078.71,-837.03 1056.98,-821 989.58,-771.26 955.24,-791.63 881.98,-751 859.89,-738.75 837.05,-722.37 818.68,-708.14"/>
<polygon fill="#000000" stroke="#000000" points="820.61,-705.2 810.58,-701.77 816.28,-710.7 820.61,-705.2"/>
<text text-anchor="middle" x="969.48" y="-865.4" font-family="Times,serif" font-size="32.00">ing</text>
<text text-anchor="middle" x="969.48" y="-830.4" font-family="Times,serif" font-size="32.00">=&gt;1 =d prog</text>
</g>
<!-- perf -->
<g id="node11" class="node">
<title>perf</title>
<ellipse fill="none" stroke="black" cx="457.48" cy="-552" rx="48.17" ry="30.31"/>
<text text-anchor="middle" x="457.48" y="-543.9" font-family="Times,serif" font-size="32.00">perf</text>
</g>
<!-- 1&#45;&gt;perf -->
<g id="edge9" class="edge">
<title>1&#45;&gt;perf</title>
<path fill="none" stroke="#000000" d="M1099.16,-910.92C1052.11,-920.25 950.72,-933.25 881.98,-891 868.41,-882.66 875.13,-871.38 863.98,-860 746.75,-740.31 645.69,-795.58 541.98,-664 525.8,-643.47 538.47,-629.76 523.98,-608 517.25,-597.88 508.19,-588.54 498.96,-580.51"/>
<polygon fill="#000000" stroke="#000000" points="501.15,-577.78 491.22,-574.08 496.68,-583.16 501.15,-577.78"/>
<text text-anchor="middle" x="779.98" y="-904.4" font-family="Times,serif" font-size="32.00">n</text>
<text text-anchor="middle" x="779.98" y="-869.4" font-family="Times,serif" font-size="32.00">=&gt;1 =d perf</text>
</g>
<!-- z2 -->
<g id="node8" class="node">
<title>z2</title>
<ellipse fill="none" stroke="black" stroke-dasharray="5,2" cx="1364.04" cy="-734" rx="27" ry="18"/>
</g>
<!-- z2&#45;&gt;1 -->
<g id="edge6" class="edge">
<title>z2&#45;&gt;1</title>
<path fill="none" stroke="#000000" d="M1339.44,-726.35C1304.53,-716.6 1238.55,-704.31 1194.81,-734 1152.02,-763.05 1136.19,-823.75 1130.33,-864.45"/>
<polygon fill="#000000" stroke="#000000" points="1126.83,-864.22 1129.02,-874.59 1133.77,-865.12 1126.83,-864.22"/>
<text text-anchor="middle" x="1253.81" y="-883.4" font-family="Times,serif" font-size="32.00">dance |</text>
<text text-anchor="middle" x="1253.81" y="-848.4" font-family="Times,serif" font-size="32.00"> laugh |</text>
<text text-anchor="middle" x="1253.81" y="-813.4" font-family="Times,serif" font-size="32.00"> smile |</text>
<text text-anchor="middle" x="1253.81" y="-778.4" font-family="Times,serif" font-size="32.00"> jump</text>
<text text-anchor="middle" x="1253.81" y="-743.4" font-family="Times,serif" font-size="32.00">1</text>
</g>
<!-- v&#45;&gt;0 -->
<g id="edge13" class="edge">
<title>v&#45;&gt;0</title>
<path fill="none" stroke="#000000" d="M187.4,-501.85C175.42,-513.11 159.3,-526.75 142.98,-536 115.59,-551.53 96.77,-535.36 75.98,-559 52.41,-585.8 39.26,-685.46 33.52,-742.41"/>
<polygon fill="#000000" stroke="#000000" points="30.03,-742.22 32.54,-752.52 36.99,-742.9 30.03,-742.22"/>
<text text-anchor="middle" x="109.48" y="-603.4" font-family="Times,serif" font-size="32.00">will</text>
<text text-anchor="middle" x="109.48" y="-568.4" font-family="Times,serif" font-size="32.00">=v 0</text>
</g>
<!-- to -->
<g id="node18" class="node">
<title>to</title>
<ellipse fill="none" stroke="black" cx="28.99" cy="-465" rx="28.98" ry="30.31"/>
<text text-anchor="middle" x="28.99" y="-456.9" font-family="Times,serif" font-size="32.00">to</text>
</g>
<!-- v&#45;&gt;to -->
<g id="edge33" class="edge">
<title>v&#45;&gt;to</title>
<path fill="none" stroke="#000000" d="M181.71,-474.22C170.04,-471.01 155.93,-467.65 142.98,-466 118.23,-462.84 90.19,-462.57 68.23,-463.11"/>
<polygon fill="#000000" stroke="#000000" points="67.86,-459.62 57.98,-463.42 68.08,-466.61 67.86,-459.62"/>
<text text-anchor="middle" x="109.48" y="-510.4" font-family="Times,serif" font-size="32.00">to</text>
<text text-anchor="middle" x="109.48" y="-475.4" font-family="Times,serif" font-size="32.00">=v to</text>
</g>
<!-- prog&#45;&gt;0 -->
<g id="edge14" class="edge">
<title>prog&#45;&gt;0</title>
<path fill="none" stroke="#000000" d="M728.69,-683.2C618.85,-696.8 360.37,-729.02 272.98,-742 199.22,-752.96 113.24,-768 65.89,-776.49"/>
<polygon fill="#000000" stroke="#000000" points="65.05,-773.08 55.83,-778.3 66.29,-779.97 65.05,-773.08"/>
<text text-anchor="middle" x="322.98" y="-786.4" font-family="Times,serif" font-size="32.00">be</text>
<text text-anchor="middle" x="322.98" y="-751.4" font-family="Times,serif" font-size="32.00">=prog 0</text>
</g>
<!-- prog&#45;&gt;v -->
<g id="edge15" class="edge">
<title>prog&#45;&gt;v</title>
<path fill="none" stroke="#000000" d="M729.36,-685.66C678.6,-691.86 599.28,-694 541.98,-660 529.26,-652.45 536.52,-639.85 523.98,-632 428.75,-572.4 365.72,-665.43 272.98,-602 245.3,-583.06 228.63,-548.19 219.28,-520.9"/>
<polygon fill="#000000" stroke="#000000" points="222.56,-519.68 216.16,-511.24 215.9,-521.83 222.56,-519.68"/>
<text text-anchor="middle" x="457.48" y="-676.4" font-family="Times,serif" font-size="32.00">be_1</text>
<text text-anchor="middle" x="457.48" y="-641.4" font-family="Times,serif" font-size="32.00">=prog v</text>
</g>
<!-- prog&#45;&gt;perf -->
<g id="edge16" class="edge">
<title>prog&#45;&gt;perf</title>
<path fill="none" stroke="#000000" d="M735.47,-660.9C721.45,-654.02 706.76,-644.8 695.98,-633 682.01,-617.7 694.21,-602.88 677.98,-590 629.97,-551.89 602.37,-577.53 541.98,-567 532.93,-565.42 523.32,-563.72 513.97,-562.05"/>
<polygon fill="#000000" stroke="#000000" points="514.43,-558.58 503.97,-560.26 513.2,-565.47 514.43,-558.58"/>
<text text-anchor="middle" x="609.98" y="-634.4" font-family="Times,serif" font-size="32.00">ben</text>
<text text-anchor="middle" x="609.98" y="-599.4" font-family="Times,serif" font-size="32.00">=prog perf</text>
</g>
<!-- perf&#45;&gt;0 -->
<g id="edge30" class="edge">
<title>perf&#45;&gt;0</title>
<path fill="none" stroke="#000000" d="M424.31,-574.22C409.25,-583.83 390.75,-594.56 372.98,-602 283.2,-639.61 247.71,-612.8 160.98,-657 116.4,-679.73 76.78,-722.65 53.09,-752.02"/>
<polygon fill="#000000" stroke="#000000" points="50.3,-749.91 46.84,-759.92 55.79,-754.25 50.3,-749.91"/>
<text text-anchor="middle" x="207.98" y="-701.4" font-family="Times,serif" font-size="32.00">have</text>
<text text-anchor="middle" x="207.98" y="-666.4" font-family="Times,serif" font-size="32.00">=perf 0</text>
</g>
<!-- perf&#45;&gt;v -->
<g id="edge31" class="edge">
<title>perf&#45;&gt;v</title>
<path fill="none" stroke="#000000" d="M413.37,-539.81C365.32,-526.22 288.53,-504.5 244.02,-491.91"/>
<polygon fill="#000000" stroke="#000000" points="244.81,-488.5 234.23,-489.14 242.9,-495.23 244.81,-488.5"/>
<text text-anchor="middle" x="322.98" y="-572.4" font-family="Times,serif" font-size="32.00">have_1</text>
<text text-anchor="middle" x="322.98" y="-537.4" font-family="Times,serif" font-size="32.00">=perf v</text>
</g>
<!-- pass&#45;&gt;0 -->
<g id="edge17" class="edge">
<title>pass&#45;&gt;0</title>
<path fill="none" stroke="#000000" d="M1088.6,-175.99C1027.32,-142.57 898.5,-81 780.98,-81 780.98,-81 780.98,-81 206.98,-81 29.18,-81 117.78,-286.18 75.98,-459 51.68,-559.49 38.69,-680.83 33.21,-742.6"/>
<polygon fill="#000000" stroke="#000000" points="29.71,-742.44 32.33,-752.71 36.68,-743.05 29.71,-742.44"/>
<text text-anchor="middle" x="457.48" y="-125.4" font-family="Times,serif" font-size="32.00">be_2</text>
<text text-anchor="middle" x="457.48" y="-90.4" font-family="Times,serif" font-size="32.00">=pass 0</text>
</g>
<!-- pass&#45;&gt;v -->
<g id="edge18" class="edge">
<title>pass&#45;&gt;v</title>
<path fill="none" stroke="#000000" d="M1075.7,-191.04C974.79,-180.04 737.4,-160.51 541.98,-193 417.34,-213.73 361.64,-194.97 272.98,-285 231.17,-327.46 216.67,-397.5 211.65,-441.62"/>
<polygon fill="#000000" stroke="#000000" points="208.15,-441.4 210.61,-451.7 215.11,-442.11 208.15,-441.4"/>
<text text-anchor="middle" x="609.98" y="-237.4" font-family="Times,serif" font-size="32.00">be_3</text>
<text text-anchor="middle" x="609.98" y="-202.4" font-family="Times,serif" font-size="32.00">=pass v</text>
</g>
<!-- pass&#45;&gt;prog -->
<g id="edge20" class="edge">
<title>pass&#45;&gt;prog</title>
<path fill="none" stroke="#000000" d="M1100.17,-223.27C1043.79,-283.76 908.56,-432.37 881.98,-494 857.31,-551.2 899.47,-581.8 863.98,-633 856.8,-643.37 846.38,-651.48 835.34,-657.77"/>
<polygon fill="#000000" stroke="#000000" points="833.66,-654.7 826.4,-662.42 836.89,-660.91 833.66,-654.7"/>
<text text-anchor="middle" x="969.48" y="-538.4" font-family="Times,serif" font-size="32.00">being</text>
<text text-anchor="middle" x="969.48" y="-503.4" font-family="Times,serif" font-size="32.00">=pass prog</text>
</g>
<!-- pass&#45;&gt;perf -->
<g id="edge19" class="edge">
<title>pass&#45;&gt;perf</title>
<path fill="none" stroke="#000000" d="M1077.39,-206.96C1027.39,-218.38 947.05,-239.42 881.98,-269 792.86,-309.52 757.45,-310.8 695.98,-387 681.42,-405.06 695.24,-420.5 677.98,-436 631.63,-477.64 596.34,-439.55 541.98,-470 520.81,-481.86 501.21,-500.51 486.34,-517.02"/>
<polygon fill="#000000" stroke="#000000" points="483.38,-515.09 479.42,-524.92 488.64,-519.7 483.38,-515.09"/>
<text text-anchor="middle" x="779.98" y="-431.4" font-family="Times,serif" font-size="32.00">ben_1</text>
<text text-anchor="middle" x="779.98" y="-396.4" font-family="Times,serif" font-size="32.00">=pass perf</text>
</g>
<!-- c2&#45;&gt;1 -->
<g id="edge12" class="edge">
<title>c2&#45;&gt;1</title>
<path fill="none" stroke="#000000" d="M1330.7,-928.3C1286.87,-923.29 1208.85,-914.37 1163.11,-909.14"/>
<polygon fill="#000000" stroke="#000000" points="1163.37,-905.65 1153.03,-907.99 1162.57,-912.6 1163.37,-905.65"/>
<text text-anchor="middle" x="1253.81" y="-1076.4" font-family="Times,serif" font-size="32.00">declare |</text>
<text text-anchor="middle" x="1253.81" y="-1041.4" font-family="Times,serif" font-size="32.00"> think |</text>
<text text-anchor="middle" x="1253.81" y="-1006.4" font-family="Times,serif" font-size="32.00"> explain |</text>
<text text-anchor="middle" x="1253.81" y="-971.4" font-family="Times,serif" font-size="32.00"> say</text>
<text text-anchor="middle" x="1253.81" y="-936.4" font-family="Times,serif" font-size="32.00">=c2 1</text>
</g>
<!-- 2 -->
<g id="node14" class="node">
<title>2</title>
<ellipse fill="none" stroke="black" cx="1125.89" cy="-584" rx="27" ry="30.31"/>
<text text-anchor="middle" x="1125.89" y="-575.9" font-family="Times,serif" font-size="32.00">2</text>
</g>
<!-- 2&#45;&gt;0 -->
<g id="edge21" class="edge">
<title>2&#45;&gt;0</title>
<path fill="none" stroke="#000000" d="M1121.76,-614.33C1116.07,-652.43 1100.25,-716.6 1056.98,-748 1024.42,-771.63 736.04,-772.22 695.98,-776 552.18,-789.59 517.2,-803.99 372.98,-812 328.61,-814.47 317.35,-814.64 272.98,-812 199.05,-807.6 113.14,-795.75 65.84,-788.63"/>
<polygon fill="#000000" stroke="#000000" points="66.21,-785.15 55.79,-787.1 65.15,-792.07 66.21,-785.15"/>
<text text-anchor="middle" x="457.48" y="-855.4" font-family="Times,serif" font-size="32.00">ε_2</text>
<text text-anchor="middle" x="457.48" y="-820.4" font-family="Times,serif" font-size="32.00">=&gt;2 =to 0</text>
</g>
<!-- 2&#45;&gt;0 -->
<g id="edge26" class="edge">
<title>2&#45;&gt;0</title>
<path fill="none" stroke="#000000" d="M1123.16,-614.56C1119.01,-657.06 1104.89,-733.28 1056.98,-773 996.35,-823.27 938.69,-746.33 881.98,-801 852.3,-829.61 895.1,-864.96 863.98,-892 778.98,-965.87 723.6,-906 610.98,-906 610.98,-906 610.98,-906 206.98,-906 142.45,-906 84.54,-850.18 53.62,-813.75"/>
<polygon fill="#000000" stroke="#000000" points="56.15,-811.32 47.07,-805.85 50.76,-815.78 56.15,-811.32"/>
<text text-anchor="middle" x="457.48" y="-950.4" font-family="Times,serif" font-size="32.00">ε_4</text>
<text text-anchor="middle" x="457.48" y="-915.4" font-family="Times,serif" font-size="32.00">=&gt;2 =c1 0</text>
</g>
<!-- 2&#45;&gt;v -->
<g id="edge23" class="edge">
<title>2&#45;&gt;v</title>
<path fill="none" stroke="#000000" d="M1122.6,-553.67C1116.69,-484.48 1098.4,-318.34 1056.98,-284 990.9,-229.22 949.78,-279.48 863.98,-277 781.33,-274.61 760.66,-273.89 677.98,-273 494.69,-271.03 413.27,-233.01 272.98,-351 244.91,-374.61 228.11,-413.47 218.82,-442.74"/>
<polygon fill="#000000" stroke="#000000" points="215.37,-442.08 215.84,-452.66 222.07,-444.09 215.37,-442.08"/>
<text text-anchor="middle" x="609.98" y="-317.4" font-family="Times,serif" font-size="32.00">ε_3</text>
<text text-anchor="middle" x="609.98" y="-282.4" font-family="Times,serif" font-size="32.00">=&gt;2 =to v</text>
</g>
<!-- 2&#45;&gt;v -->
<g id="edge27" class="edge">
<title>2&#45;&gt;v</title>
<path fill="none" stroke="#000000" d="M1115.52,-555.57C1105.35,-529.36 1086.49,-491.51 1056.98,-471 962.12,-405.06 656.67,-386.09 541.98,-400 431.07,-413.45 303.84,-451.24 243.81,-470.46"/>
<polygon fill="#000000" stroke="#000000" points="242.52,-467.2 234.08,-473.6 244.67,-473.86 242.52,-467.2"/>
<text text-anchor="middle" x="609.98" y="-444.4" font-family="Times,serif" font-size="32.00">ε_5</text>
<text text-anchor="middle" x="609.98" y="-409.4" font-family="Times,serif" font-size="32.00">=&gt;2 =c1 v</text>
</g>
<!-- 2&#45;&gt;prog -->
<g id="edge25" class="edge">
<title>2&#45;&gt;prog</title>
<path fill="none" stroke="#000000" d="M1108.99,-608.21C1096.84,-624.48 1078.55,-644.75 1056.98,-655 1020.38,-672.39 912.28,-676.42 842.73,-677.14"/>
<polygon fill="#000000" stroke="#000000" points="842.31,-673.64 832.34,-677.23 842.37,-680.64 842.31,-673.64"/>
<text text-anchor="middle" x="969.48" y="-721.4" font-family="Times,serif" font-size="32.00">ing_1</text>
<text text-anchor="middle" x="969.48" y="-686.4" font-family="Times,serif" font-size="32.00">=&gt;2 =to prog</text>
</g>
<!-- 2&#45;&gt;prog -->
<g id="edge29" class="edge">
<title>2&#45;&gt;prog</title>
<path fill="none" stroke="#000000" d="M1098.8,-579.94C1043.35,-571.9 916.08,-556.72 881.98,-581 862.06,-595.19 879.89,-614.43 863.98,-633 855.78,-642.58 844.96,-650.38 833.85,-656.62"/>
<polygon fill="#000000" stroke="#000000" points="832.17,-653.55 824.92,-661.28 835.41,-659.75 832.17,-653.55"/>
<text text-anchor="middle" x="969.48" y="-625.4" font-family="Times,serif" font-size="32.00">ing_2</text>
<text text-anchor="middle" x="969.48" y="-590.4" font-family="Times,serif" font-size="32.00">=&gt;2 =c1 prog</text>
</g>
<!-- 2&#45;&gt;perf -->
<g id="edge24" class="edge">
<title>2&#45;&gt;perf</title>
<path fill="none" stroke="#000000" d="M1099.75,-575.34C1087.08,-571.39 1071.39,-567.14 1056.98,-565 859.99,-535.78 622.58,-543.02 515.62,-548.51"/>
<polygon fill="#000000" stroke="#000000" points="515.18,-545.03 505.38,-549.05 515.55,-552.02 515.18,-545.03"/>
<text text-anchor="middle" x="779.98" y="-591.4" font-family="Times,serif" font-size="32.00">n_1</text>
<text text-anchor="middle" x="779.98" y="-556.4" font-family="Times,serif" font-size="32.00">=&gt;2 =to perf</text>
</g>
<!-- 2&#45;&gt;perf -->
<g id="edge28" class="edge">
<title>2&#45;&gt;perf</title>
<path fill="none" stroke="#000000" d="M1101.96,-569.67C1057.91,-543.16 957.51,-487.53 863.98,-470 790.59,-456.24 769.62,-457.65 695.98,-470 627.97,-481.41 553.37,-510.01 506.27,-530.2"/>
<polygon fill="#000000" stroke="#000000" points="504.72,-527.06 496.94,-534.25 507.51,-533.48 504.72,-527.06"/>
<text text-anchor="middle" x="779.98" y="-514.4" font-family="Times,serif" font-size="32.00">n_2</text>
<text text-anchor="middle" x="779.98" y="-479.4" font-family="Times,serif" font-size="32.00">=&gt;2 =c1 perf</text>
</g>
<!-- z3 -->
<g id="node15" class="node">
<title>z3</title>
<ellipse fill="none" stroke="black" stroke-dasharray="5,2" cx="1364.04" cy="-593" rx="27" ry="18"/>
</g>
<!-- z3&#45;&gt;2 -->
<g id="edge22" class="edge">
<title>z3&#45;&gt;2</title>
<path fill="none" stroke="#000000" d="M1336.87,-592C1294.67,-590.39 1211.48,-587.22 1163.45,-585.39"/>
<polygon fill="#000000" stroke="#000000" points="1163.31,-581.89 1153.19,-585 1163.05,-588.88 1163.31,-581.89"/>
<text text-anchor="middle" x="1253.81" y="-671.4" font-family="Times,serif" font-size="32.00">seem |</text>
<text text-anchor="middle" x="1253.81" y="-636.4" font-family="Times,serif" font-size="32.00"> appear</text>
<text text-anchor="middle" x="1253.81" y="-601.4" font-family="Times,serif" font-size="32.00">2</text>
</g>
<!-- z4 -->
<g id="node16" class="node">
<title>z4</title>
<ellipse fill="none" stroke="black" stroke-dasharray="5,2" cx="1719.27" cy="-1011" rx="27" ry="18"/>
</g>
<!-- e -->
<g id="node17" class="node">
<title>e</title>
<ellipse fill="none" stroke="black" cx="1566.27" cy="-1011" rx="27" ry="30.31"/>
<text text-anchor="middle" x="1566.27" y="-1002.9" font-family="Times,serif" font-size="32.00">e</text>
</g>
<!-- z4&#45;&gt;e -->
<g id="edge32" class="edge">
<title>z4&#45;&gt;e</title>
<path fill="none" stroke="#000000" d="M1691.97,-1011C1667.5,-1011 1630.83,-1011 1603.58,-1011"/>
<polygon fill="#000000" stroke="#000000" points="1603.27,-1007.5 1593.27,-1011 1603.27,-1014.5 1603.27,-1007.5"/>
<text text-anchor="middle" x="1642.77" y="-1055.4" font-family="Times,serif" font-size="32.00">it</text>
<text text-anchor="middle" x="1642.77" y="-1020.4" font-family="Times,serif" font-size="32.00">e &#45;k</text>
</g>
</g>
</svg>
