<?xml version="1.0" encoding="UTF-8" standalone="no"?>
<!DOCTYPE svg PUBLIC "-//W3C//DTD SVG 1.1//EN"
 "http://www.w3.org/Graphics/SVG/1.1/DTD/svg11.dtd">
<!-- Generated by graphviz version 2.47.1 (20210417.1919)
 -->
<!-- Title: G Pages: 1 -->
<svg width="1981pt" height="1311pt"
 viewBox="0.00 0.00 1981.27 1311.00" xmlns="http://www.w3.org/2000/svg" xmlns:xlink="http://www.w3.org/1999/xlink">
<g id="graph0" class="graph" transform="scale(1 1) rotate(0) translate(4 1307)">
<title>G</title>
<polygon fill="white" stroke="transparent" points="-4,4 -4,-1307 1977.27,-1307 1977.27,4 -4,4"/>
<text text-anchor="middle" x="986.64" y="-13.4" font-family="Times,serif" font-size="32.00">decomposition: have =perf 0, have =perf v</text>
<!-- t -->
<g id="node1" class="node">
<title>t</title>
<ellipse fill="lightgray" stroke="black" cx="1793.27" cy="-1110" rx="27" ry="30.31"/>
<text text-anchor="middle" x="1793.27" y="-1101.9" font-family="Times,serif" font-size="32.00">t</text>
</g>
<!-- c2 -->
<g id="node13" class="node">
<title>c2</title>
<ellipse fill="none" stroke="black" cx="1591.04" cy="-1011" rx="33.47" ry="30.31"/>
<text text-anchor="middle" x="1591.04" y="-1002.9" font-family="Times,serif" font-size="32.00">c2</text>
</g>
<!-- t&#45;&gt;c2 -->
<g id="edge36" class="edge">
<title>t&#45;&gt;c2</title>
<path fill="none" stroke="#000000" d="M1782.47,-1081.8C1775.44,-1065.83 1764.35,-1046.92 1748.27,-1036 1714.85,-1013.3 1668.26,-1008.43 1634.67,-1008.4"/>
<polygon fill="#000000" stroke="#000000" points="1634.2,-1004.91 1624.25,-1008.54 1634.3,-1011.91 1634.2,-1004.91"/>
<text text-anchor="middle" x="1695.27" y="-1080.4" font-family="Times,serif" font-size="32.00">that_1</text>
<text text-anchor="middle" x="1695.27" y="-1045.4" font-family="Times,serif" font-size="32.00">=t c2</text>
</g>
<!-- c1 -->
<g id="node20" class="node">
<title>c1</title>
<ellipse fill="none" stroke="black" cx="1591.04" cy="-1110" rx="33.47" ry="30.31"/>
<text text-anchor="middle" x="1591.04" y="-1101.9" font-family="Times,serif" font-size="32.00">c1</text>
</g>
<!-- t&#45;&gt;c1 -->
<g id="edge35" class="edge">
<title>t&#45;&gt;c1</title>
<path fill="none" stroke="#000000" d="M1766.1,-1110C1732.72,-1110 1674.57,-1110 1634.74,-1110"/>
<polygon fill="#000000" stroke="#000000" points="1634.53,-1106.5 1624.53,-1110 1634.53,-1113.5 1634.53,-1106.5"/>
<text text-anchor="middle" x="1695.27" y="-1154.4" font-family="Times,serif" font-size="32.00">that</text>
<text text-anchor="middle" x="1695.27" y="-1119.4" font-family="Times,serif" font-size="32.00">=t =e c1</text>
</g>
<!-- z0 -->
<g id="node2" class="node">
<title>z0</title>
<ellipse fill="none" stroke="black" stroke-dasharray="5,2" cx="1793.27" cy="-714" rx="27" ry="18"/>
</g>
<!-- d -->
<g id="node3" class="node">
<title>d</title>
<ellipse fill="none" stroke="black" cx="1591.04" cy="-564" rx="27" ry="30.31"/>
<text text-anchor="middle" x="1591.04" y="-555.9" font-family="Times,serif" font-size="32.00">d</text>
</g>
<!-- z0&#45;&gt;d -->
<g id="edge1" class="edge">
<title>z0&#45;&gt;d</title>
<path fill="none" stroke="#000000" d="M1766.72,-717.47C1734.22,-720.41 1678.03,-720.4 1642.27,-692 1615.44,-670.68 1602.9,-633.02 1597.07,-604.04"/>
<polygon fill="#000000" stroke="#000000" points="1600.51,-603.41 1595.27,-594.2 1593.62,-604.67 1600.51,-603.41"/>
<text text-anchor="middle" x="1695.27" y="-868.4" font-family="Times,serif" font-size="32.00">Mary |</text>
<text text-anchor="middle" x="1695.27" y="-833.4" font-family="Times,serif" font-size="32.00"> John |</text>
<text text-anchor="middle" x="1695.27" y="-798.4" font-family="Times,serif" font-size="32.00"> Alice |</text>
<text text-anchor="middle" x="1695.27" y="-763.4" font-family="Times,serif" font-size="32.00"> Bob</text>
<text text-anchor="middle" x="1695.27" y="-728.4" font-family="Times,serif" font-size="32.00">d &#45;k</text>
</g>
<!-- 1 -->
<g id="node7" class="node">
<title>1</title>
<ellipse fill="none" stroke="black" cx="1352.89" cy="-810" rx="27" ry="30.31"/>
<text text-anchor="middle" x="1352.89" y="-801.9" font-family="Times,serif" font-size="32.00">1</text>
</g>
<!-- d&#45;&gt;1 -->
<g id="edge10" class="edge">
<title>d&#45;&gt;1</title>
<path fill="none" stroke="#000000" d="M1566.61,-577.01C1558.27,-581.4 1548.74,-586.16 1539.81,-590 1488.8,-611.93 1456.89,-587.97 1421.81,-631 1383.28,-678.26 1432.8,-713.36 1403.81,-767 1399.21,-775.5 1392.22,-783.07 1384.91,-789.4"/>
<polygon fill="#000000" stroke="#000000" points="1382.57,-786.79 1376.95,-795.77 1386.94,-792.25 1382.57,-786.79"/>
<text text-anchor="middle" x="1480.81" y="-780.4" font-family="Times,serif" font-size="32.00">praise |</text>
<text text-anchor="middle" x="1480.81" y="-745.4" font-family="Times,serif" font-size="32.00"> like |</text>
<text text-anchor="middle" x="1480.81" y="-710.4" font-family="Times,serif" font-size="32.00"> kiss |</text>
<text text-anchor="middle" x="1480.81" y="-675.4" font-family="Times,serif" font-size="32.00"> hug</text>
<text text-anchor="middle" x="1480.81" y="-640.4" font-family="Times,serif" font-size="32.00">=d *k 1</text>
</g>
<!-- pass -->
<g id="node12" class="node">
<title>pass</title>
<ellipse fill="none" stroke="black" cx="1352.89" cy="-728" rx="50.82" ry="30.31"/>
<text text-anchor="middle" x="1352.89" y="-719.9" font-family="Times,serif" font-size="32.00">pass</text>
</g>
<!-- d&#45;&gt;pass -->
<g id="edge11" class="edge">
<title>d&#45;&gt;pass</title>
<path fill="none" stroke="#000000" d="M1589.56,-533.4C1587.17,-498.23 1577.28,-441.91 1539.81,-415 1497.21,-384.41 1462.63,-382.08 1421.81,-415 1379.9,-448.79 1362.53,-610.55 1356.56,-687.35"/>
<polygon fill="#000000" stroke="#000000" points="1353.05,-687.36 1355.79,-697.6 1360.03,-687.89 1353.05,-687.36"/>
<text text-anchor="middle" x="1480.81" y="-564.4" font-family="Times,serif" font-size="32.00">praisen |</text>
<text text-anchor="middle" x="1480.81" y="-529.4" font-family="Times,serif" font-size="32.00"> liken |</text>
<text text-anchor="middle" x="1480.81" y="-494.4" font-family="Times,serif" font-size="32.00"> kissn |</text>
<text text-anchor="middle" x="1480.81" y="-459.4" font-family="Times,serif" font-size="32.00"> hugn</text>
<text text-anchor="middle" x="1480.81" y="-424.4" font-family="Times,serif" font-size="32.00">=d pass</text>
</g>
<!-- n -->
<g id="node4" class="node">
<title>n</title>
<ellipse fill="none" stroke="black" cx="1793.27" cy="-516" rx="27" ry="30.31"/>
<text text-anchor="middle" x="1793.27" y="-507.9" font-family="Times,serif" font-size="32.00">n</text>
</g>
<!-- n&#45;&gt;d -->
<g id="edge2" class="edge">
<title>n&#45;&gt;d</title>
<path fill="none" stroke="#000000" d="M1766.51,-510.67C1735.74,-505.51 1683.28,-500.65 1642.27,-517 1632.99,-520.7 1624.4,-527.01 1617.05,-533.82"/>
<polygon fill="#000000" stroke="#000000" points="1614.17,-531.76 1609.59,-541.31 1619.13,-536.7 1614.17,-531.76"/>
<text text-anchor="middle" x="1695.27" y="-666.4" font-family="Times,serif" font-size="32.00">this |</text>
<text text-anchor="middle" x="1695.27" y="-631.4" font-family="Times,serif" font-size="32.00"> a |</text>
<text text-anchor="middle" x="1695.27" y="-596.4" font-family="Times,serif" font-size="32.00"> the |</text>
<text text-anchor="middle" x="1695.27" y="-561.4" font-family="Times,serif" font-size="32.00"> some</text>
<text text-anchor="middle" x="1695.27" y="-526.4" font-family="Times,serif" font-size="32.00">=n d &#45;k</text>
</g>
<!-- z1 -->
<g id="node5" class="node">
<title>z1</title>
<ellipse fill="none" stroke="black" stroke-dasharray="5,2" cx="1946.27" cy="-516" rx="27" ry="18"/>
</g>
<!-- z1&#45;&gt;n -->
<g id="edge3" class="edge">
<title>z1&#45;&gt;n</title>
<path fill="none" stroke="#000000" d="M1918.97,-516C1894.5,-516 1857.83,-516 1830.58,-516"/>
<polygon fill="#000000" stroke="#000000" points="1830.27,-512.5 1820.27,-516 1830.27,-519.5 1830.27,-512.5"/>
<text text-anchor="middle" x="1869.77" y="-595.4" font-family="Times,serif" font-size="32.00">boy |</text>
<text text-anchor="middle" x="1869.77" y="-560.4" font-family="Times,serif" font-size="32.00"> girl</text>
<text text-anchor="middle" x="1869.77" y="-525.4" font-family="Times,serif" font-size="32.00">n</text>
</g>
<!-- 0 -->
<g id="node6" class="node">
<title>0</title>
<ellipse fill="none" stroke="black" cx="28.99" cy="-709" rx="27" ry="30.31"/>
<text text-anchor="middle" x="28.99" y="-700.9" font-family="Times,serif" font-size="32.00">0</text>
</g>
<!-- 0&#45;&gt;t -->
<g id="edge4" class="edge">
<title>0&#45;&gt;t</title>
<path fill="none" stroke="#000000" d="M33.67,-739.22C47.48,-845.83 100.47,-1198 197.98,-1198 1592.04,-1198 1592.04,-1198 1592.04,-1198 1661.76,-1198 1690.21,-1222.59 1748.27,-1184 1762.51,-1174.54 1757.61,-1164.74 1766.27,-1150 1767.73,-1147.52 1769.27,-1144.98 1770.84,-1142.44"/>
<polygon fill="#000000" stroke="#000000" points="1773.86,-1144.22 1776.25,-1133.89 1767.94,-1140.48 1773.86,-1144.22"/>
<text text-anchor="middle" x="836.98" y="-1277.4" font-family="Times,serif" font-size="32.00">s |</text>
<text text-anchor="middle" x="836.98" y="-1242.4" font-family="Times,serif" font-size="32.00"> d</text>
<text text-anchor="middle" x="836.98" y="-1207.4" font-family="Times,serif" font-size="32.00">=&gt;0 +k t</text>
</g>
<!-- 1&#45;&gt;0 -->
<g id="edge5" class="edge">
<title>1&#45;&gt;0</title>
<path fill="none" stroke="#000000" d="M1333.34,-831.44C1320.67,-844.85 1302.82,-861.52 1283.98,-872 1172.59,-933.97 1135.45,-950 1007.98,-950 1007.98,-950 1007.98,-950 197.98,-950 100.96,-950 55.37,-816.92 38.35,-748.54"/>
<polygon fill="#000000" stroke="#000000" points="41.68,-747.46 35.95,-738.55 34.88,-749.09 41.68,-747.46"/>
<text text-anchor="middle" x="533.48" y="-994.4" font-family="Times,serif" font-size="32.00">ε_0</text>
<text text-anchor="middle" x="533.48" y="-959.4" font-family="Times,serif" font-size="32.00">=&gt;1 =d 0</text>
</g>
<!-- v -->
<g id="node9" class="node">
<title>v</title>
<ellipse fill="none" stroke="black" cx="198.98" cy="-472" rx="27" ry="30.31"/>
<text text-anchor="middle" x="198.98" y="-463.9" font-family="Times,serif" font-size="32.00">v</text>
</g>
<!-- 1&#45;&gt;v -->
<g id="edge7" class="edge">
<title>1&#45;&gt;v</title>
<path fill="none" stroke="#000000" d="M1330.44,-827.58C1317.76,-836.81 1300.92,-847.19 1283.98,-852 1209.17,-873.27 1186.25,-860.93 1108.98,-852 761.67,-811.87 678.48,-765.91 348.98,-649 306.82,-634.04 286.71,-644.54 254.98,-613 227.61,-585.79 213.54,-543.38 206.52,-512.18"/>
<polygon fill="#000000" stroke="#000000" points="209.88,-511.13 204.4,-502.06 203.03,-512.57 209.88,-511.13"/>
<text text-anchor="middle" x="684.48" y="-831.4" font-family="Times,serif" font-size="32.00">ε_1</text>
<text text-anchor="middle" x="684.48" y="-796.4" font-family="Times,serif" font-size="32.00">=&gt;1 =d v</text>
</g>
<!-- prog -->
<g id="node10" class="node">
<title>prog</title>
<ellipse fill="none" stroke="black" cx="1006.98" cy="-530" rx="52.15" ry="30.31"/>
<text text-anchor="middle" x="1006.98" y="-521.9" font-family="Times,serif" font-size="32.00">prog</text>
</g>
<!-- 1&#45;&gt;prog -->
<g id="edge8" class="edge">
<title>1&#45;&gt;prog</title>
<path fill="none" stroke="#000000" d="M1329.23,-794.84C1319.65,-787.43 1309.1,-777.79 1301.98,-767 1287.36,-744.82 1301.16,-730.27 1283.98,-710 1227.56,-643.44 1167.37,-685.85 1108.98,-621 1094.02,-604.38 1105.81,-590.75 1090.98,-574 1082.62,-564.56 1071.74,-556.8 1060.62,-550.58"/>
<polygon fill="#000000" stroke="#000000" points="1062.18,-547.45 1051.7,-545.92 1058.94,-553.65 1062.18,-547.45"/>
<text text-anchor="middle" x="1196.48" y="-754.4" font-family="Times,serif" font-size="32.00">ing</text>
<text text-anchor="middle" x="1196.48" y="-719.4" font-family="Times,serif" font-size="32.00">=&gt;1 =d prog</text>
</g>
<!-- perf -->
<g id="node11" class="node">
<title>perf</title>
<ellipse fill="none" stroke="black" cx="684.48" cy="-515" rx="48.17" ry="30.31"/>
<text text-anchor="middle" x="684.48" y="-506.9" font-family="Times,serif" font-size="32.00">perf</text>
</g>
<!-- 1&#45;&gt;perf -->
<g id="edge9" class="edge">
<title>1&#45;&gt;perf</title>
<path fill="none" stroke="#000000" d="M1325.79,-806.37C1238.85,-793.19 954.16,-741.26 768.98,-604 748.32,-588.68 728.47,-567.88 713.32,-550.23"/>
<polygon fill="#000000" stroke="#000000" points="715.82,-547.77 706.7,-542.38 710.47,-552.28 715.82,-547.77"/>
<text text-anchor="middle" x="1006.98" y="-797.4" font-family="Times,serif" font-size="32.00">n</text>
<text text-anchor="middle" x="1006.98" y="-762.4" font-family="Times,serif" font-size="32.00">=&gt;1 =d perf</text>
</g>
<!-- z2 -->
<g id="node8" class="node">
<title>z2</title>
<ellipse fill="none" stroke="black" stroke-dasharray="5,2" cx="1591.04" cy="-810" rx="27" ry="18"/>
</g>
<!-- z2&#45;&gt;1 -->
<g id="edge6" class="edge">
<title>z2&#45;&gt;1</title>
<path fill="none" stroke="#000000" d="M1563.87,-810C1521.67,-810 1438.48,-810 1390.45,-810"/>
<polygon fill="#000000" stroke="#000000" points="1390.19,-806.5 1380.19,-810 1390.19,-813.5 1390.19,-806.5"/>
<text text-anchor="middle" x="1480.81" y="-959.4" font-family="Times,serif" font-size="32.00">dance |</text>
<text text-anchor="middle" x="1480.81" y="-924.4" font-family="Times,serif" font-size="32.00"> laugh |</text>
<text text-anchor="middle" x="1480.81" y="-889.4" font-family="Times,serif" font-size="32.00"> smile |</text>
<text text-anchor="middle" x="1480.81" y="-854.4" font-family="Times,serif" font-size="32.00"> jump</text>
<text text-anchor="middle" x="1480.81" y="-819.4" font-family="Times,serif" font-size="32.00">1</text>
</g>
<!-- v&#45;&gt;0 -->
<g id="edge13" class="edge">
<title>v&#45;&gt;0</title>
<path fill="none" stroke="#000000" d="M174.96,-486.09C147.7,-503.88 102.66,-536.92 75.98,-576 56.6,-604.4 44.63,-641.76 37.78,-669.65"/>
<polygon fill="#000000" stroke="#000000" points="34.35,-668.93 35.48,-679.47 41.17,-670.53 34.35,-668.93"/>
<text text-anchor="middle" x="109.48" y="-620.4" font-family="Times,serif" font-size="32.00">will</text>
<text text-anchor="middle" x="109.48" y="-585.4" font-family="Times,serif" font-size="32.00">=v 0</text>
</g>
<!-- to -->
<g id="node19" class="node">
<title>to</title>
<ellipse fill="none" stroke="black" cx="28.99" cy="-114" rx="28.98" ry="30.31"/>
<text text-anchor="middle" x="28.99" y="-105.9" font-family="Times,serif" font-size="32.00">to</text>
</g>
<!-- v&#45;&gt;to -->
<g id="edge34" class="edge">
<title>v&#45;&gt;to</title>
<path fill="none" stroke="#000000" d="M185.49,-445.38C155.8,-382.11 80.96,-222.61 47.1,-150.45"/>
<polygon fill="#000000" stroke="#000000" points="50.21,-148.85 42.79,-141.28 43.87,-151.82 50.21,-148.85"/>
<text text-anchor="middle" x="109.48" y="-390.4" font-family="Times,serif" font-size="32.00">to</text>
<text text-anchor="middle" x="109.48" y="-355.4" font-family="Times,serif" font-size="32.00">=v to</text>
</g>
<!-- prog&#45;&gt;0 -->
<g id="edge14" class="edge">
<title>prog&#45;&gt;0</title>
<path fill="none" stroke="#000000" d="M962.61,-546.37C949.35,-552.27 935.09,-559.59 922.98,-568 913.69,-574.46 913.73,-578.82 904.98,-586 841.34,-638.25 828.63,-661.59 750.98,-689 534.71,-765.35 466.11,-724.77 236.98,-735 203.24,-736.51 194.6,-738.3 160.98,-735 128.19,-731.78 91.43,-724.12 65.22,-717.94"/>
<polygon fill="#000000" stroke="#000000" points="65.91,-714.51 55.37,-715.58 64.28,-721.32 65.91,-714.51"/>
<text text-anchor="middle" x="398.98" y="-781.4" font-family="Times,serif" font-size="32.00">be</text>
<text text-anchor="middle" x="398.98" y="-746.4" font-family="Times,serif" font-size="32.00">=prog 0</text>
</g>
<!-- prog&#45;&gt;v -->
<g id="edge15" class="edge">
<title>prog&#45;&gt;v</title>
<path fill="none" stroke="#000000" d="M958.52,-518.42C941.64,-514.38 922.49,-509.89 904.98,-506 712.99,-463.37 663.37,-432.37 466.98,-443 384.01,-447.49 287.16,-459.79 235.97,-466.84"/>
<polygon fill="#000000" stroke="#000000" points="235.48,-463.37 226.06,-468.22 236.44,-470.31 235.48,-463.37"/>
<text text-anchor="middle" x="533.48" y="-487.4" font-family="Times,serif" font-size="32.00">be_1</text>
<text text-anchor="middle" x="533.48" y="-452.4" font-family="Times,serif" font-size="32.00">=prog v</text>
</g>
<!-- prog&#45;&gt;perf -->
<g id="edge16" class="edge">
<title>prog&#45;&gt;perf</title>
<path fill="none" stroke="#000000" d="M957.67,-519.6C941.05,-516.5 922.28,-513.53 904.98,-512 844.77,-506.68 829.42,-510.91 768.98,-512 760.54,-512.15 751.62,-512.39 742.87,-512.67"/>
<polygon fill="#000000" stroke="#000000" points="742.6,-509.17 732.73,-513.01 742.84,-516.17 742.6,-509.17"/>
<text text-anchor="middle" x="836.98" y="-556.4" font-family="Times,serif" font-size="32.00">ben</text>
<text text-anchor="middle" x="836.98" y="-521.4" font-family="Times,serif" font-size="32.00">=prog perf</text>
</g>
<!-- 3 -->
<g id="node16" class="node">
<title>3</title>
<ellipse fill="none" stroke="black" cx="398.98" cy="-519" rx="27" ry="30.31"/>
<text text-anchor="middle" x="398.98" y="-510.9" font-family="Times,serif" font-size="32.00">3</text>
</g>
<!-- perf&#45;&gt;3 -->
<g id="edge31" class="edge">
<title>perf&#45;&gt;3</title>
<path fill="none" stroke="#f7931d" stroke-width="2" d="M636.35,-515.67C580.2,-516.46 487.59,-517.76 436.56,-518.48"/>
<polygon fill="#f7931d" stroke="#f7931d" stroke-width="2" points="436.28,-514.99 426.33,-518.63 436.38,-521.99 436.28,-514.99"/>
<text text-anchor="middle" x="533.48" y="-563.4" font-family="Times,serif" font-size="32.00">have</text>
<text text-anchor="middle" x="533.48" y="-528.4" font-family="Times,serif" font-size="32.00">=perf 3</text>
</g>
<!-- pass&#45;&gt;0 -->
<g id="edge17" class="edge">
<title>pass&#45;&gt;0</title>
<path fill="none" stroke="#000000" d="M1322.31,-752.41C1315.48,-758.33 1308.36,-764.76 1301.98,-771 1293.44,-779.36 1294.66,-785.61 1283.98,-791 1134.73,-866.37 701.68,-857 534.48,-857 534.48,-857 534.48,-857 197.98,-857 129.62,-857 75.9,-787.14 48.97,-743.41"/>
<polygon fill="#000000" stroke="#000000" points="51.93,-741.55 43.79,-734.78 45.93,-745.16 51.93,-741.55"/>
<text text-anchor="middle" x="533.48" y="-902.4" font-family="Times,serif" font-size="32.00">be_2</text>
<text text-anchor="middle" x="533.48" y="-867.4" font-family="Times,serif" font-size="32.00">=pass 0</text>
</g>
<!-- pass&#45;&gt;v -->
<g id="edge18" class="edge">
<title>pass&#45;&gt;v</title>
<path fill="none" stroke="#000000" d="M1310.7,-745.12C1233.1,-774.87 1060.7,-829 922.98,-786 834.25,-758.3 836.88,-702.54 750.98,-667 543.96,-581.33 435.5,-709.7 254.98,-577 233.17,-560.97 219.26,-533.69 210.88,-510.96"/>
<polygon fill="#000000" stroke="#000000" points="214.09,-509.52 207.51,-501.21 207.47,-511.81 214.09,-509.52"/>
<text text-anchor="middle" x="684.48" y="-711.4" font-family="Times,serif" font-size="32.00">be_3</text>
<text text-anchor="middle" x="684.48" y="-676.4" font-family="Times,serif" font-size="32.00">=pass v</text>
</g>
<!-- pass&#45;&gt;prog -->
<g id="edge20" class="edge">
<title>pass&#45;&gt;prog</title>
<path fill="none" stroke="#000000" d="M1349.79,-697.43C1345.2,-656.69 1330.57,-585.7 1283.98,-551 1267.24,-538.53 1145.98,-533.31 1069.87,-531.25"/>
<polygon fill="#000000" stroke="#000000" points="1069.53,-527.74 1059.44,-530.98 1069.35,-534.73 1069.53,-527.74"/>
<text text-anchor="middle" x="1196.48" y="-595.4" font-family="Times,serif" font-size="32.00">being</text>
<text text-anchor="middle" x="1196.48" y="-560.4" font-family="Times,serif" font-size="32.00">=pass prog</text>
</g>
<!-- pass&#45;&gt;perf -->
<g id="edge19" class="edge">
<title>pass&#45;&gt;perf</title>
<path fill="none" stroke="#000000" d="M1306.21,-740.51C1252.1,-752.29 1162.57,-761.81 1108.98,-714 1073.98,-682.77 1125.53,-641.74 1090.98,-610 985.2,-512.81 902.31,-635.48 768.98,-582 750.06,-574.41 732.03,-561.02 717.59,-548.2"/>
<polygon fill="#000000" stroke="#000000" points="719.68,-545.37 709.96,-541.18 714.94,-550.53 719.68,-545.37"/>
<text text-anchor="middle" x="1006.98" y="-654.4" font-family="Times,serif" font-size="32.00">ben_1</text>
<text text-anchor="middle" x="1006.98" y="-619.4" font-family="Times,serif" font-size="32.00">=pass perf</text>
</g>
<!-- c2&#45;&gt;1 -->
<g id="edge12" class="edge">
<title>c2&#45;&gt;1</title>
<path fill="none" stroke="#000000" d="M1557.87,-1007.97C1512.02,-1003.39 1432.24,-994.35 1421.81,-986 1380.41,-952.86 1364.21,-891.24 1357.9,-850.42"/>
<polygon fill="#000000" stroke="#000000" points="1361.33,-849.68 1356.46,-840.27 1354.39,-850.66 1361.33,-849.68"/>
<text text-anchor="middle" x="1480.81" y="-1156.4" font-family="Times,serif" font-size="32.00">declare |</text>
<text text-anchor="middle" x="1480.81" y="-1121.4" font-family="Times,serif" font-size="32.00"> think |</text>
<text text-anchor="middle" x="1480.81" y="-1086.4" font-family="Times,serif" font-size="32.00"> explain |</text>
<text text-anchor="middle" x="1480.81" y="-1051.4" font-family="Times,serif" font-size="32.00"> say</text>
<text text-anchor="middle" x="1480.81" y="-1016.4" font-family="Times,serif" font-size="32.00">=c2 1</text>
</g>
<!-- 2 -->
<g id="node14" class="node">
<title>2</title>
<ellipse fill="none" stroke="black" cx="1352.89" cy="-273" rx="27" ry="30.31"/>
<text text-anchor="middle" x="1352.89" y="-264.9" font-family="Times,serif" font-size="32.00">2</text>
</g>
<!-- 2&#45;&gt;0 -->
<g id="edge21" class="edge">
<title>2&#45;&gt;0</title>
<path fill="none" stroke="#000000" d="M1341.71,-245.23C1331.06,-219.96 1311.96,-183.43 1283.98,-162 1182.49,-84.27 1135.82,-81 1007.98,-81 1007.98,-81 1007.98,-81 197.98,-81 117.11,-81 108.51,-141.96 75.98,-216 40.47,-296.84 32.33,-565.44 30.51,-668.37"/>
<polygon fill="#000000" stroke="#000000" points="27.01,-668.32 30.34,-678.38 34.01,-668.44 27.01,-668.32"/>
<text text-anchor="middle" x="533.48" y="-125.4" font-family="Times,serif" font-size="32.00">ε_2</text>
<text text-anchor="middle" x="533.48" y="-90.4" font-family="Times,serif" font-size="32.00">=&gt;2 =to 0</text>
</g>
<!-- 2&#45;&gt;0 -->
<g id="edge26" class="edge">
<title>2&#45;&gt;0</title>
<path fill="none" stroke="#000000" d="M1331.14,-254.75C1318.43,-244.7 1301.32,-233.06 1283.98,-227 1198.11,-196.98 552.4,-142.7 466.98,-174 253.2,-252.33 193.99,-310.29 75.98,-505 45.21,-555.77 34.99,-624.91 31.61,-668.24"/>
<polygon fill="#000000" stroke="#000000" points="28.11,-668.19 30.91,-678.41 35.09,-668.67 28.11,-668.19"/>
<text text-anchor="middle" x="533.48" y="-218.4" font-family="Times,serif" font-size="32.00">ε_4</text>
<text text-anchor="middle" x="533.48" y="-183.4" font-family="Times,serif" font-size="32.00">=&gt;2 =c1 0</text>
</g>
<!-- 2&#45;&gt;v -->
<g id="edge23" class="edge">
<title>2&#45;&gt;v</title>
<path fill="none" stroke="#000000" d="M1325.64,-272.54C1281.08,-271.9 1187.79,-271.09 1108.98,-274 1026.17,-277.06 1004.85,-274.13 922.98,-287 620.88,-334.5 547.54,-362.95 254.98,-452 248.26,-454.05 241.15,-456.45 234.35,-458.86"/>
<polygon fill="#000000" stroke="#000000" points="232.91,-455.67 224.71,-462.37 235.3,-462.24 232.91,-455.67"/>
<text text-anchor="middle" x="684.48" y="-390.4" font-family="Times,serif" font-size="32.00">ε_3</text>
<text text-anchor="middle" x="684.48" y="-355.4" font-family="Times,serif" font-size="32.00">=&gt;2 =to v</text>
</g>
<!-- 2&#45;&gt;v -->
<g id="edge27" class="edge">
<title>2&#45;&gt;v</title>
<path fill="none" stroke="#000000" d="M1326.39,-267.03C1231.26,-245.81 888.75,-178.61 617.98,-243 442.21,-284.8 405.94,-326.72 254.98,-426 245.76,-432.06 236.33,-439.45 227.94,-446.51"/>
<polygon fill="#000000" stroke="#000000" points="225.55,-443.94 220.26,-453.12 230.12,-449.25 225.55,-443.94"/>
<text text-anchor="middle" x="684.48" y="-287.4" font-family="Times,serif" font-size="32.00">ε_5</text>
<text text-anchor="middle" x="684.48" y="-252.4" font-family="Times,serif" font-size="32.00">=&gt;2 =c1 v</text>
</g>
<!-- 2&#45;&gt;prog -->
<g id="edge25" class="edge">
<title>2&#45;&gt;prog</title>
<path fill="none" stroke="#000000" d="M1335.41,-296.54C1323.12,-312.14 1304.9,-331.59 1283.98,-342 1213.76,-376.97 1164.92,-310 1108.98,-365 1070.21,-403.12 1122.37,-441.61 1090.98,-486 1083.7,-496.3 1073.25,-504.39 1062.2,-510.67"/>
<polygon fill="#000000" stroke="#000000" points="1060.51,-507.6 1053.26,-515.32 1063.75,-513.81 1060.51,-507.6"/>
<text text-anchor="middle" x="1196.48" y="-409.4" font-family="Times,serif" font-size="32.00">ing_1</text>
<text text-anchor="middle" x="1196.48" y="-374.4" font-family="Times,serif" font-size="32.00">=&gt;2 =to prog</text>
</g>
<!-- 2&#45;&gt;prog -->
<g id="edge29" class="edge">
<title>2&#45;&gt;prog</title>
<path fill="none" stroke="#000000" d="M1348.25,-303.23C1342.03,-340.54 1325.7,-402.95 1283.98,-435 1221.73,-482.83 1175.52,-417.33 1108.98,-459 1096.76,-466.66 1101.68,-476.33 1090.98,-486 1081.63,-494.46 1070.35,-501.82 1059.17,-507.98"/>
<polygon fill="#000000" stroke="#000000" points="1057.48,-504.91 1050.26,-512.66 1060.74,-511.11 1057.48,-504.91"/>
<text text-anchor="middle" x="1196.48" y="-503.4" font-family="Times,serif" font-size="32.00">ing_2</text>
<text text-anchor="middle" x="1196.48" y="-468.4" font-family="Times,serif" font-size="32.00">=&gt;2 =c1 prog</text>
</g>
<!-- 2&#45;&gt;perf -->
<g id="edge24" class="edge">
<title>2&#45;&gt;perf</title>
<path fill="none" stroke="#000000" d="M1325.64,-274.04C1244.22,-277.57 997,-290.49 922.98,-320 835.38,-354.93 755.52,-434.6 714.47,-480.57"/>
<polygon fill="#000000" stroke="#000000" points="711.74,-478.38 707.75,-488.19 716.99,-483.01 711.74,-478.38"/>
<text text-anchor="middle" x="1006.98" y="-364.4" font-family="Times,serif" font-size="32.00">n_1</text>
<text text-anchor="middle" x="1006.98" y="-329.4" font-family="Times,serif" font-size="32.00">=&gt;2 =to perf</text>
</g>
<!-- 2&#45;&gt;perf -->
<g id="edge28" class="edge">
<title>2&#45;&gt;perf</title>
<path fill="none" stroke="#000000" d="M1326.88,-282.32C1314.12,-286.96 1298.3,-292.51 1283.98,-297 1207.02,-321.12 1169.14,-291.28 1108.98,-345 1092.92,-359.35 1107.65,-376.35 1090.98,-390 1032.25,-438.12 995.96,-400.04 922.98,-421 855.4,-440.41 780.41,-471.84 733.13,-492.95"/>
<polygon fill="#000000" stroke="#000000" points="731.45,-489.87 723.76,-497.16 734.32,-496.26 731.45,-489.87"/>
<text text-anchor="middle" x="1006.98" y="-465.4" font-family="Times,serif" font-size="32.00">n_2</text>
<text text-anchor="middle" x="1006.98" y="-430.4" font-family="Times,serif" font-size="32.00">=&gt;2 =c1 perf</text>
</g>
<!-- z3 -->
<g id="node15" class="node">
<title>z3</title>
<ellipse fill="none" stroke="black" stroke-dasharray="5,2" cx="1591.04" cy="-273" rx="27" ry="18"/>
</g>
<!-- z3&#45;&gt;2 -->
<g id="edge22" class="edge">
<title>z3&#45;&gt;2</title>
<path fill="none" stroke="#000000" d="M1563.87,-273C1521.67,-273 1438.48,-273 1390.45,-273"/>
<polygon fill="#000000" stroke="#000000" points="1390.19,-269.5 1380.19,-273 1390.19,-276.5 1390.19,-269.5"/>
<text text-anchor="middle" x="1480.81" y="-352.4" font-family="Times,serif" font-size="32.00">seem |</text>
<text text-anchor="middle" x="1480.81" y="-317.4" font-family="Times,serif" font-size="32.00"> appear</text>
<text text-anchor="middle" x="1480.81" y="-282.4" font-family="Times,serif" font-size="32.00">2</text>
</g>
<!-- 3&#45;&gt;0 -->
<g id="edge30" class="edge">
<title>3&#45;&gt;0</title>
<path fill="none" stroke="#f7931d" stroke-width="2" d="M378.43,-538.73C365.69,-550.84 348.28,-566.07 330.98,-577 241.1,-633.78 122.62,-677.83 64.78,-697.6"/>
<polygon fill="#f7931d" stroke="#f7931d" stroke-width="2" points="63.39,-694.38 55.04,-700.9 65.63,-701.01 63.39,-694.38"/>
<text text-anchor="middle" x="198.98" y="-705.4" font-family="Times,serif" font-size="32.00">ε_6</text>
<text text-anchor="middle" x="198.98" y="-670.4" font-family="Times,serif" font-size="32.00">=&gt;3 0</text>
</g>
<!-- 3&#45;&gt;v -->
<g id="edge32" class="edge">
<title>3&#45;&gt;v</title>
<path fill="none" stroke="#f7931d" stroke-width="2" d="M372.5,-512.95C337.63,-504.67 274.86,-489.77 235.41,-480.41"/>
<polygon fill="#f7931d" stroke="#f7931d" stroke-width="2" points="236.22,-477 225.68,-478.1 234.6,-483.81 236.22,-477"/>
<text text-anchor="middle" x="292.98" y="-547.4" font-family="Times,serif" font-size="32.00">ε_7</text>
<text text-anchor="middle" x="292.98" y="-512.4" font-family="Times,serif" font-size="32.00">=&gt;3 v</text>
</g>
<!-- z4 -->
<g id="node17" class="node">
<title>z4</title>
<ellipse fill="none" stroke="black" stroke-dasharray="5,2" cx="1946.27" cy="-1189" rx="27" ry="18"/>
</g>
<!-- e -->
<g id="node18" class="node">
<title>e</title>
<ellipse fill="none" stroke="black" cx="1793.27" cy="-1189" rx="27" ry="30.31"/>
<text text-anchor="middle" x="1793.27" y="-1180.9" font-family="Times,serif" font-size="32.00">e</text>
</g>
<!-- z4&#45;&gt;e -->
<g id="edge33" class="edge">
<title>z4&#45;&gt;e</title>
<path fill="none" stroke="#000000" d="M1918.97,-1189C1894.5,-1189 1857.83,-1189 1830.58,-1189"/>
<polygon fill="#000000" stroke="#000000" points="1830.27,-1185.5 1820.27,-1189 1830.27,-1192.5 1830.27,-1185.5"/>
<text text-anchor="middle" x="1869.77" y="-1233.4" font-family="Times,serif" font-size="32.00">it</text>
<text text-anchor="middle" x="1869.77" y="-1198.4" font-family="Times,serif" font-size="32.00">e &#45;k</text>
</g>
</g>
</svg>
