<?xml version="1.0" encoding="UTF-8" standalone="no"?>
<!DOCTYPE svg PUBLIC "-//W3C//DTD SVG 1.1//EN"
 "http://www.w3.org/Graphics/SVG/1.1/DTD/svg11.dtd">
<!-- Generated by graphviz version 2.47.1 (20210417.1919)
 -->
<!-- Title: G Pages: 1 -->
<svg width="1723pt" height="1202pt"
 viewBox="0.00 0.00 1723.27 1202.00" xmlns="http://www.w3.org/2000/svg" xmlns:xlink="http://www.w3.org/1999/xlink">
<g id="graph0" class="graph" transform="scale(1 1) rotate(0) translate(4 1198)">
<title>G</title>
<polygon fill="white" stroke="transparent" points="-4,4 -4,-1198 1719.27,-1198 1719.27,4 -4,4"/>
<text text-anchor="middle" x="857.64" y="-13.4" font-family="Times,serif" font-size="32.00">single contraction: 3 → v</text>
<!-- t -->
<g id="node1" class="node">
<title>t</title>
<ellipse fill="lightgray" stroke="black" cx="1535.27" cy="-899" rx="27" ry="30.31"/>
<text text-anchor="middle" x="1535.27" y="-890.9" font-family="Times,serif" font-size="32.00">t</text>
</g>
<!-- c2 -->
<g id="node13" class="node">
<title>c2</title>
<ellipse fill="none" stroke="black" cx="1333.04" cy="-899" rx="33.47" ry="30.31"/>
<text text-anchor="middle" x="1333.04" y="-890.9" font-family="Times,serif" font-size="32.00">c2</text>
</g>
<!-- t&#45;&gt;c2 -->
<g id="edge35" class="edge">
<title>t&#45;&gt;c2</title>
<path fill="none" stroke="#000000" d="M1508.1,-899C1474.72,-899 1416.57,-899 1376.74,-899"/>
<polygon fill="#000000" stroke="#000000" points="1376.53,-895.5 1366.53,-899 1376.53,-902.5 1376.53,-895.5"/>
<text text-anchor="middle" x="1437.27" y="-943.4" font-family="Times,serif" font-size="32.00">that_1</text>
<text text-anchor="middle" x="1437.27" y="-908.4" font-family="Times,serif" font-size="32.00">=t c2</text>
</g>
<!-- c1 -->
<g id="node19" class="node">
<title>c1</title>
<ellipse fill="none" stroke="black" cx="1333.04" cy="-637" rx="33.47" ry="30.31"/>
<text text-anchor="middle" x="1333.04" y="-628.9" font-family="Times,serif" font-size="32.00">c1</text>
</g>
<!-- t&#45;&gt;c1 -->
<g id="edge34" class="edge">
<title>t&#45;&gt;c1</title>
<path fill="none" stroke="#000000" d="M1520.36,-873.38C1512.14,-858.84 1501.22,-840.51 1490.27,-825 1449.19,-766.83 1394.84,-704.14 1362.26,-667.85"/>
<polygon fill="#000000" stroke="#000000" points="1364.56,-665.17 1355.26,-660.08 1359.36,-669.86 1364.56,-665.17"/>
<text text-anchor="middle" x="1437.27" y="-869.4" font-family="Times,serif" font-size="32.00">that</text>
<text text-anchor="middle" x="1437.27" y="-834.4" font-family="Times,serif" font-size="32.00">=t =e c1</text>
</g>
<!-- z0 -->
<g id="node2" class="node">
<title>z0</title>
<ellipse fill="none" stroke="black" stroke-dasharray="5,2" cx="1535.27" cy="-208" rx="27" ry="18"/>
</g>
<!-- d -->
<g id="node3" class="node">
<title>d</title>
<ellipse fill="none" stroke="black" cx="1333.04" cy="-291" rx="27" ry="30.31"/>
<text text-anchor="middle" x="1333.04" y="-282.9" font-family="Times,serif" font-size="32.00">d</text>
</g>
<!-- z0&#45;&gt;d -->
<g id="edge1" class="edge">
<title>z0&#45;&gt;d</title>
<path fill="none" stroke="#000000" d="M1510.11,-201.39C1478.85,-194.27 1423.73,-186.72 1384.27,-209 1367.38,-218.54 1355.47,-236.31 1347.51,-252.88"/>
<polygon fill="#000000" stroke="#000000" points="1344.13,-251.86 1343.26,-262.42 1350.52,-254.71 1344.13,-251.86"/>
<text text-anchor="middle" x="1437.27" y="-358.4" font-family="Times,serif" font-size="32.00">Mary |</text>
<text text-anchor="middle" x="1437.27" y="-323.4" font-family="Times,serif" font-size="32.00"> John |</text>
<text text-anchor="middle" x="1437.27" y="-288.4" font-family="Times,serif" font-size="32.00"> Alice |</text>
<text text-anchor="middle" x="1437.27" y="-253.4" font-family="Times,serif" font-size="32.00"> Bob</text>
<text text-anchor="middle" x="1437.27" y="-218.4" font-family="Times,serif" font-size="32.00">d &#45;k</text>
</g>
<!-- 1 -->
<g id="node7" class="node">
<title>1</title>
<ellipse fill="none" stroke="black" cx="1094.89" cy="-867" rx="27" ry="30.31"/>
<text text-anchor="middle" x="1094.89" y="-858.9" font-family="Times,serif" font-size="32.00">1</text>
</g>
<!-- d&#45;&gt;1 -->
<g id="edge10" class="edge">
<title>d&#45;&gt;1</title>
<path fill="none" stroke="#000000" d="M1317.08,-315.83C1308.32,-328.26 1296.16,-342.45 1281.81,-351 1235.83,-378.39 1199.41,-335.04 1163.81,-375 1148.23,-392.49 1148.85,-561.78 1145.81,-585 1134.39,-672.07 1114.97,-773.22 1104.02,-827.59"/>
<polygon fill="#000000" stroke="#000000" points="1100.57,-827 1102.02,-837.5 1107.43,-828.39 1100.57,-827"/>
<text text-anchor="middle" x="1222.81" y="-524.4" font-family="Times,serif" font-size="32.00">praise |</text>
<text text-anchor="middle" x="1222.81" y="-489.4" font-family="Times,serif" font-size="32.00"> like |</text>
<text text-anchor="middle" x="1222.81" y="-454.4" font-family="Times,serif" font-size="32.00"> kiss |</text>
<text text-anchor="middle" x="1222.81" y="-419.4" font-family="Times,serif" font-size="32.00"> hug</text>
<text text-anchor="middle" x="1222.81" y="-384.4" font-family="Times,serif" font-size="32.00">=d *k 1</text>
</g>
<!-- pass -->
<g id="node12" class="node">
<title>pass</title>
<ellipse fill="none" stroke="black" cx="1094.89" cy="-179" rx="50.82" ry="30.31"/>
<text text-anchor="middle" x="1094.89" y="-170.9" font-family="Times,serif" font-size="32.00">pass</text>
</g>
<!-- d&#45;&gt;pass -->
<g id="edge11" class="edge">
<title>d&#45;&gt;pass</title>
<path fill="none" stroke="#000000" d="M1328.1,-260.85C1322.76,-233.49 1310.34,-194.67 1281.81,-176 1243.21,-150.74 1189.78,-154.62 1150.1,-162.97"/>
<polygon fill="#000000" stroke="#000000" points="1149.31,-159.56 1140.32,-165.17 1150.85,-166.39 1149.31,-159.56"/>
<text text-anchor="middle" x="1222.81" y="-325.4" font-family="Times,serif" font-size="32.00">praisen |</text>
<text text-anchor="middle" x="1222.81" y="-290.4" font-family="Times,serif" font-size="32.00"> liken |</text>
<text text-anchor="middle" x="1222.81" y="-255.4" font-family="Times,serif" font-size="32.00"> kissn |</text>
<text text-anchor="middle" x="1222.81" y="-220.4" font-family="Times,serif" font-size="32.00"> hugn</text>
<text text-anchor="middle" x="1222.81" y="-185.4" font-family="Times,serif" font-size="32.00">=d pass</text>
</g>
<!-- n -->
<g id="node4" class="node">
<title>n</title>
<ellipse fill="none" stroke="black" cx="1535.27" cy="-406" rx="27" ry="30.31"/>
<text text-anchor="middle" x="1535.27" y="-397.9" font-family="Times,serif" font-size="32.00">n</text>
</g>
<!-- n&#45;&gt;d -->
<g id="edge2" class="edge">
<title>n&#45;&gt;d</title>
<path fill="none" stroke="#000000" d="M1508.12,-408.85C1476.01,-410.96 1421.26,-409.88 1384.27,-384 1365.75,-371.04 1353.42,-349.02 1345.62,-329.66"/>
<polygon fill="#000000" stroke="#000000" points="1348.83,-328.26 1342.04,-320.13 1342.28,-330.72 1348.83,-328.26"/>
<text text-anchor="middle" x="1437.27" y="-559.4" font-family="Times,serif" font-size="32.00">this |</text>
<text text-anchor="middle" x="1437.27" y="-524.4" font-family="Times,serif" font-size="32.00"> a |</text>
<text text-anchor="middle" x="1437.27" y="-489.4" font-family="Times,serif" font-size="32.00"> the |</text>
<text text-anchor="middle" x="1437.27" y="-454.4" font-family="Times,serif" font-size="32.00"> some</text>
<text text-anchor="middle" x="1437.27" y="-419.4" font-family="Times,serif" font-size="32.00">=n d &#45;k</text>
</g>
<!-- z1 -->
<g id="node5" class="node">
<title>z1</title>
<ellipse fill="none" stroke="black" stroke-dasharray="5,2" cx="1688.27" cy="-406" rx="27" ry="18"/>
</g>
<!-- z1&#45;&gt;n -->
<g id="edge3" class="edge">
<title>z1&#45;&gt;n</title>
<path fill="none" stroke="#000000" d="M1660.97,-406C1636.5,-406 1599.83,-406 1572.58,-406"/>
<polygon fill="#000000" stroke="#000000" points="1572.27,-402.5 1562.27,-406 1572.27,-409.5 1572.27,-402.5"/>
<text text-anchor="middle" x="1611.77" y="-485.4" font-family="Times,serif" font-size="32.00">boy |</text>
<text text-anchor="middle" x="1611.77" y="-450.4" font-family="Times,serif" font-size="32.00"> girl</text>
<text text-anchor="middle" x="1611.77" y="-415.4" font-family="Times,serif" font-size="32.00">n</text>
</g>
<!-- 0 -->
<g id="node6" class="node">
<title>0</title>
<ellipse fill="none" stroke="black" cx="28.99" cy="-733" rx="27" ry="30.31"/>
<text text-anchor="middle" x="28.99" y="-724.9" font-family="Times,serif" font-size="32.00">0</text>
</g>
<!-- 0&#45;&gt;t -->
<g id="edge4" class="edge">
<title>0&#45;&gt;t</title>
<path fill="none" stroke="#000000" d="M30.28,-763.66C32.87,-850.01 52.95,-1089 195.98,-1089 1334.04,-1089 1334.04,-1089 1334.04,-1089 1420.52,-1089 1433.93,-1038.61 1490.27,-973 1501.41,-960.03 1499.61,-953.74 1508.27,-939 1509.73,-936.52 1511.27,-933.98 1512.84,-931.44"/>
<polygon fill="#000000" stroke="#000000" points="1515.86,-933.22 1518.25,-922.89 1509.94,-929.48 1515.86,-933.22"/>
<text text-anchor="middle" x="748.98" y="-1168.4" font-family="Times,serif" font-size="32.00">s |</text>
<text text-anchor="middle" x="748.98" y="-1133.4" font-family="Times,serif" font-size="32.00"> d</text>
<text text-anchor="middle" x="748.98" y="-1098.4" font-family="Times,serif" font-size="32.00">=&gt;0 +k t</text>
</g>
<!-- 1&#45;&gt;0 -->
<g id="edge5" class="edge">
<title>1&#45;&gt;0</title>
<path fill="none" stroke="#000000" d="M1070.68,-881.12C1016.56,-912.64 876.97,-986 749.98,-986 749.98,-986 749.98,-986 195.98,-986 95.34,-986 52.37,-844.31 37.12,-773"/>
<polygon fill="#000000" stroke="#000000" points="40.51,-772.11 35.06,-763.02 33.65,-773.52 40.51,-772.11"/>
<text text-anchor="middle" x="426.48" y="-1030.4" font-family="Times,serif" font-size="32.00">ε_0</text>
<text text-anchor="middle" x="426.48" y="-995.4" font-family="Times,serif" font-size="32.00">=&gt;1 =d 0</text>
</g>
<!-- v -->
<g id="node9" class="node">
<title>v</title>
<ellipse fill="none" stroke="black" cx="196.98" cy="-495" rx="27" ry="30.31"/>
<text text-anchor="middle" x="196.98" y="-486.9" font-family="Times,serif" font-size="32.00">v</text>
</g>
<!-- 1&#45;&gt;v -->
<g id="edge7" class="edge">
<title>1&#45;&gt;v</title>
<path fill="none" stroke="#000000" d="M1068.28,-873.71C1055.63,-876.75 1040.1,-880.09 1025.98,-882 940.87,-893.52 918.85,-889.78 832.98,-892 758.34,-893.93 738.82,-903.12 664.98,-892 594.85,-881.44 426.7,-822.07 359.98,-798 306.57,-778.73 277.44,-793.36 241.98,-749 216.17,-716.71 204.7,-598.78 200.31,-535.6"/>
<polygon fill="#000000" stroke="#000000" points="203.8,-535.33 199.65,-525.59 196.82,-535.8 203.8,-535.33"/>
<text text-anchor="middle" x="578.98" y="-933.4" font-family="Times,serif" font-size="32.00">ε_1</text>
<text text-anchor="middle" x="578.98" y="-898.4" font-family="Times,serif" font-size="32.00">=&gt;1 =d v</text>
</g>
<!-- prog -->
<g id="node10" class="node">
<title>prog</title>
<ellipse fill="none" stroke="black" cx="748.98" cy="-635" rx="52.15" ry="30.31"/>
<text text-anchor="middle" x="748.98" y="-626.9" font-family="Times,serif" font-size="32.00">prog</text>
</g>
<!-- 1&#45;&gt;prog -->
<g id="edge8" class="edge">
<title>1&#45;&gt;prog</title>
<path fill="none" stroke="#000000" d="M1078.68,-842.13C1066.38,-823.75 1047.59,-799.19 1025.98,-783 958.54,-732.47 924.24,-751.65 850.98,-710 828.92,-697.46 806.08,-680.85 787.71,-666.45"/>
<polygon fill="#000000" stroke="#000000" points="789.61,-663.49 779.6,-660.01 785.25,-668.97 789.61,-663.49"/>
<text text-anchor="middle" x="938.48" y="-827.4" font-family="Times,serif" font-size="32.00">ing</text>
<text text-anchor="middle" x="938.48" y="-792.4" font-family="Times,serif" font-size="32.00">=&gt;1 =d prog</text>
</g>
<!-- perf -->
<g id="node11" class="node">
<title>perf</title>
<ellipse fill="none" stroke="black" cx="426.48" cy="-505" rx="48.17" ry="30.31"/>
<text text-anchor="middle" x="426.48" y="-496.9" font-family="Times,serif" font-size="32.00">perf</text>
</g>
<!-- 1&#45;&gt;perf -->
<g id="edge9" class="edge">
<title>1&#45;&gt;perf</title>
<path fill="none" stroke="#000000" d="M1068.16,-872.92C1021.11,-882.25 919.72,-895.25 850.98,-853 837.41,-844.66 844.02,-833.49 832.98,-822 715.5,-699.61 619.77,-747.18 510.98,-617 497.43,-600.79 504.52,-590.7 492.98,-573 484.55,-560.06 473.45,-547.43 462.78,-536.63"/>
<polygon fill="#000000" stroke="#000000" points="465.09,-533.99 455.51,-529.47 460.18,-538.98 465.09,-533.99"/>
<text text-anchor="middle" x="748.98" y="-866.4" font-family="Times,serif" font-size="32.00">n</text>
<text text-anchor="middle" x="748.98" y="-831.4" font-family="Times,serif" font-size="32.00">=&gt;1 =d perf</text>
</g>
<!-- z2 -->
<g id="node8" class="node">
<title>z2</title>
<ellipse fill="none" stroke="black" stroke-dasharray="5,2" cx="1333.04" cy="-703" rx="27" ry="18"/>
</g>
<!-- z2&#45;&gt;1 -->
<g id="edge6" class="edge">
<title>z2&#45;&gt;1</title>
<path fill="none" stroke="#000000" d="M1309.04,-694.52C1274.31,-683.31 1207.87,-668.22 1163.81,-698 1121.51,-726.59 1105.55,-786.33 1099.53,-826.57"/>
<polygon fill="#000000" stroke="#000000" points="1096.05,-826.22 1098.18,-836.6 1102.99,-827.15 1096.05,-826.22"/>
<text text-anchor="middle" x="1222.81" y="-847.4" font-family="Times,serif" font-size="32.00">dance |</text>
<text text-anchor="middle" x="1222.81" y="-812.4" font-family="Times,serif" font-size="32.00"> laugh |</text>
<text text-anchor="middle" x="1222.81" y="-777.4" font-family="Times,serif" font-size="32.00"> smile |</text>
<text text-anchor="middle" x="1222.81" y="-742.4" font-family="Times,serif" font-size="32.00"> jump</text>
<text text-anchor="middle" x="1222.81" y="-707.4" font-family="Times,serif" font-size="32.00">1</text>
</g>
<!-- v&#45;&gt;0 -->
<g id="edge13" class="edge">
<title>v&#45;&gt;0</title>
<path fill="none" stroke="#000000" d="M185.95,-522.79C178.79,-538.99 167.64,-558.6 151.98,-571 124.32,-592.91 101.26,-569.37 75.98,-594 49.33,-619.98 38.12,-661.72 33.4,-692.69"/>
<polygon fill="#000000" stroke="#000000" points="29.92,-692.37 32.04,-702.74 36.85,-693.31 29.92,-692.37"/>
<text text-anchor="middle" x="113.98" y="-638.4" font-family="Times,serif" font-size="32.00">will</text>
<text text-anchor="middle" x="113.98" y="-603.4" font-family="Times,serif" font-size="32.00">=v 0</text>
</g>
<!-- v&#45;&gt;0 -->
<g id="edge30" class="edge">
<title>v&#45;&gt;0</title>
<path fill="none" stroke="#000000" d="M170.78,-487.09C144.06,-480.4 102.17,-475.05 75.98,-497 46.72,-521.52 35.8,-631.49 31.94,-692.28"/>
<polygon fill="#000000" stroke="#000000" points="28.45,-692.12 31.34,-702.31 35.43,-692.53 28.45,-692.12"/>
<text text-anchor="middle" x="113.98" y="-541.4" font-family="Times,serif" font-size="32.00">ε_6</text>
<text text-anchor="middle" x="113.98" y="-506.4" font-family="Times,serif" font-size="32.00">=&gt;v 0</text>
</g>
<!-- to -->
<g id="node18" class="node">
<title>to</title>
<ellipse fill="none" stroke="black" cx="28.99" cy="-407" rx="28.98" ry="30.31"/>
<text text-anchor="middle" x="28.99" y="-398.9" font-family="Times,serif" font-size="32.00">to</text>
</g>
<!-- v&#45;&gt;to -->
<g id="edge33" class="edge">
<title>v&#45;&gt;to</title>
<path fill="none" stroke="#000000" d="M189.6,-465.72C183.55,-445.7 172.26,-420.58 151.98,-408 126.99,-392.49 93.22,-393.51 67.54,-397.7"/>
<polygon fill="#000000" stroke="#000000" points="66.63,-394.31 57.44,-399.57 67.91,-401.19 66.63,-394.31"/>
<text text-anchor="middle" x="113.98" y="-452.4" font-family="Times,serif" font-size="32.00">to</text>
<text text-anchor="middle" x="113.98" y="-417.4" font-family="Times,serif" font-size="32.00">=v to</text>
</g>
<!-- prog&#45;&gt;0 -->
<g id="edge14" class="edge">
<title>prog&#45;&gt;0</title>
<path fill="none" stroke="#000000" d="M697.71,-641.85C606.77,-654.24 408.89,-681.2 241.98,-704 180.23,-712.43 108.36,-722.27 66.16,-728.05"/>
<polygon fill="#000000" stroke="#000000" points="65.53,-724.6 56.1,-729.42 66.48,-731.54 65.53,-724.6"/>
<text text-anchor="middle" x="291.98" y="-748.4" font-family="Times,serif" font-size="32.00">be</text>
<text text-anchor="middle" x="291.98" y="-713.4" font-family="Times,serif" font-size="32.00">=prog 0</text>
</g>
<!-- prog&#45;&gt;v -->
<g id="edge15" class="edge">
<title>prog&#45;&gt;v</title>
<path fill="none" stroke="#000000" d="M697.14,-640.29C647.19,-643.26 570.07,-641.73 510.98,-613 500.52,-607.91 503.4,-599.18 492.98,-594 392.49,-543.99 336.87,-625.96 241.98,-566 229.36,-558.02 219.77,-544.97 212.82,-532.22"/>
<polygon fill="#000000" stroke="#000000" points="215.83,-530.43 208.21,-523.06 209.58,-533.57 215.83,-530.43"/>
<text text-anchor="middle" x="426.48" y="-638.4" font-family="Times,serif" font-size="32.00">be_1</text>
<text text-anchor="middle" x="426.48" y="-603.4" font-family="Times,serif" font-size="32.00">=prog v</text>
</g>
<!-- prog&#45;&gt;perf -->
<g id="edge16" class="edge">
<title>prog&#45;&gt;perf</title>
<path fill="none" stroke="#000000" d="M704.22,-619.13C690.17,-612.27 675.53,-603.01 664.98,-591 649.94,-573.89 664.56,-557.5 646.98,-543 599.69,-503.99 571.37,-530.53 510.98,-520 501.93,-518.42 492.32,-516.72 482.97,-515.05"/>
<polygon fill="#000000" stroke="#000000" points="483.43,-511.58 472.97,-513.26 482.2,-518.47 483.43,-511.58"/>
<text text-anchor="middle" x="578.98" y="-587.4" font-family="Times,serif" font-size="32.00">ben</text>
<text text-anchor="middle" x="578.98" y="-552.4" font-family="Times,serif" font-size="32.00">=prog perf</text>
</g>
<!-- perf&#45;&gt;v -->
<g id="edge31" class="edge">
<title>perf&#45;&gt;v</title>
<path fill="none" stroke="#000000" d="M379.18,-499.17C367.09,-497.88 354.06,-496.69 341.98,-496 305.3,-493.9 263.28,-493.88 234.14,-494.25"/>
<polygon fill="#000000" stroke="#000000" points="233.97,-490.75 224.02,-494.4 234.07,-497.75 233.97,-490.75"/>
<text text-anchor="middle" x="291.98" y="-540.4" font-family="Times,serif" font-size="32.00">have</text>
<text text-anchor="middle" x="291.98" y="-505.4" font-family="Times,serif" font-size="32.00">=perf v</text>
</g>
<!-- pass&#45;&gt;0 -->
<g id="edge17" class="edge">
<title>pass&#45;&gt;0</title>
<path fill="none" stroke="#000000" d="M1054.69,-160.1C991.9,-131.63 864.22,-81 749.98,-81 749.98,-81 749.98,-81 195.98,-81 47.83,-81 112.8,-248.49 75.98,-392 48.7,-498.33 36.89,-627.72 32.39,-692.27"/>
<polygon fill="#000000" stroke="#000000" points="28.89,-692.22 31.71,-702.44 35.87,-692.69 28.89,-692.22"/>
<text text-anchor="middle" x="426.48" y="-125.4" font-family="Times,serif" font-size="32.00">be_2</text>
<text text-anchor="middle" x="426.48" y="-90.4" font-family="Times,serif" font-size="32.00">=pass 0</text>
</g>
<!-- pass&#45;&gt;v -->
<g id="edge18" class="edge">
<title>pass&#45;&gt;v</title>
<path fill="none" stroke="#000000" d="M1044.19,-174.35C942.33,-166.26 703.29,-154.77 510.98,-203 379.65,-235.94 325.13,-239.14 241.98,-346 217.47,-377.5 206.59,-422.37 201.78,-454.63"/>
<polygon fill="#000000" stroke="#000000" points="198.3,-454.25 200.42,-464.63 205.24,-455.19 198.3,-454.25"/>
<text text-anchor="middle" x="578.98" y="-247.4" font-family="Times,serif" font-size="32.00">be_3</text>
<text text-anchor="middle" x="578.98" y="-212.4" font-family="Times,serif" font-size="32.00">=pass v</text>
</g>
<!-- pass&#45;&gt;prog -->
<g id="edge20" class="edge">
<title>pass&#45;&gt;prog</title>
<path fill="none" stroke="#000000" d="M1067.48,-205.14C1010.16,-262.47 877.39,-398.78 850.98,-457 826.16,-511.72 867.33,-541.69 832.98,-591 825.77,-601.35 815.35,-609.46 804.3,-615.74"/>
<polygon fill="#000000" stroke="#000000" points="802.62,-612.67 795.37,-620.39 805.85,-618.88 802.62,-612.67"/>
<text text-anchor="middle" x="938.48" y="-501.4" font-family="Times,serif" font-size="32.00">being</text>
<text text-anchor="middle" x="938.48" y="-466.4" font-family="Times,serif" font-size="32.00">=pass prog</text>
</g>
<!-- pass&#45;&gt;perf -->
<g id="edge19" class="edge">
<title>pass&#45;&gt;perf</title>
<path fill="none" stroke="#000000" d="M1047.21,-189.68C997.87,-201.43 918.08,-221.76 850.98,-245 766.12,-274.4 720.35,-253.28 664.98,-324 633.9,-363.7 681.85,-399.58 646.98,-436 604.31,-480.58 569.37,-444.02 510.98,-464 498.08,-468.42 484.6,-474.38 472.33,-480.39"/>
<polygon fill="#000000" stroke="#000000" points="470.57,-477.36 463.21,-484.98 473.72,-483.61 470.57,-477.36"/>
<text text-anchor="middle" x="748.98" y="-368.4" font-family="Times,serif" font-size="32.00">ben_1</text>
<text text-anchor="middle" x="748.98" y="-333.4" font-family="Times,serif" font-size="32.00">=pass perf</text>
</g>
<!-- c2&#45;&gt;1 -->
<g id="edge12" class="edge">
<title>c2&#45;&gt;1</title>
<path fill="none" stroke="#000000" d="M1300.08,-894.98C1266.22,-890.68 1211.22,-883.59 1163.81,-877 1153.36,-875.55 1142.02,-873.9 1131.65,-872.38"/>
<polygon fill="#000000" stroke="#000000" points="1132.08,-868.9 1121.68,-870.9 1131.06,-875.83 1132.08,-868.9"/>
<text text-anchor="middle" x="1222.81" y="-1042.4" font-family="Times,serif" font-size="32.00">declare |</text>
<text text-anchor="middle" x="1222.81" y="-1007.4" font-family="Times,serif" font-size="32.00"> think |</text>
<text text-anchor="middle" x="1222.81" y="-972.4" font-family="Times,serif" font-size="32.00"> explain |</text>
<text text-anchor="middle" x="1222.81" y="-937.4" font-family="Times,serif" font-size="32.00"> say</text>
<text text-anchor="middle" x="1222.81" y="-902.4" font-family="Times,serif" font-size="32.00">=c2 1</text>
</g>
<!-- 2 -->
<g id="node14" class="node">
<title>2</title>
<ellipse fill="none" stroke="black" cx="1094.89" cy="-546" rx="27" ry="30.31"/>
<text text-anchor="middle" x="1094.89" y="-537.9" font-family="Times,serif" font-size="32.00">2</text>
</g>
<!-- 2&#45;&gt;0 -->
<g id="edge21" class="edge">
<title>2&#45;&gt;0</title>
<path fill="none" stroke="#000000" d="M1090.76,-576.33C1085.07,-614.43 1069.25,-678.6 1025.98,-710 993.42,-733.63 705.04,-734.22 664.98,-738 521.18,-751.59 486.2,-765.99 341.98,-774 297.61,-776.47 286.22,-778.24 241.98,-774 179.2,-767.98 107.38,-752.17 65.52,-742.03"/>
<polygon fill="#000000" stroke="#000000" points="66.09,-738.57 55.54,-739.58 64.42,-745.37 66.09,-738.57"/>
<text text-anchor="middle" x="426.48" y="-817.4" font-family="Times,serif" font-size="32.00">ε_2</text>
<text text-anchor="middle" x="426.48" y="-782.4" font-family="Times,serif" font-size="32.00">=&gt;2 =to 0</text>
</g>
<!-- 2&#45;&gt;0 -->
<g id="edge26" class="edge">
<title>2&#45;&gt;0</title>
<path fill="none" stroke="#000000" d="M1092.16,-576.56C1088.01,-619.06 1073.89,-695.28 1025.98,-735 965.35,-785.27 907.69,-708.33 850.98,-763 821.3,-791.61 864.1,-826.96 832.98,-854 747.98,-927.87 692.6,-868 579.98,-868 579.98,-868 579.98,-868 195.98,-868 131.62,-868 78.33,-806.14 50.62,-766.17"/>
<polygon fill="#000000" stroke="#000000" points="53.44,-764.09 44.94,-757.76 47.64,-768.01 53.44,-764.09"/>
<text text-anchor="middle" x="426.48" y="-912.4" font-family="Times,serif" font-size="32.00">ε_4</text>
<text text-anchor="middle" x="426.48" y="-877.4" font-family="Times,serif" font-size="32.00">=&gt;2 =c1 0</text>
</g>
<!-- 2&#45;&gt;v -->
<g id="edge23" class="edge">
<title>2&#45;&gt;v</title>
<path fill="none" stroke="#000000" d="M1091.45,-515.61C1086.47,-476.39 1071.43,-409.58 1025.98,-379 994.99,-358.15 666.88,-358.97 510.98,-387 405.62,-405.94 287.92,-454.48 231.58,-479.53"/>
<polygon fill="#000000" stroke="#000000" points="230.13,-476.34 222.43,-483.63 232.99,-482.73 230.13,-476.34"/>
<text text-anchor="middle" x="578.98" y="-431.4" font-family="Times,serif" font-size="32.00">ε_3</text>
<text text-anchor="middle" x="578.98" y="-396.4" font-family="Times,serif" font-size="32.00">=&gt;2 =to v</text>
</g>
<!-- 2&#45;&gt;v -->
<g id="edge27" class="edge">
<title>2&#45;&gt;v</title>
<path fill="none" stroke="#000000" d="M1092.03,-515.59C1087.71,-473.73 1073.4,-399.21 1025.98,-361 899.86,-259.36 815.31,-371.31 664.98,-311 655.82,-307.33 656.37,-301.04 646.98,-298 466.58,-239.67 385.56,-308.18 241.98,-432 232.61,-440.09 224.24,-450.59 217.4,-460.7"/>
<polygon fill="#000000" stroke="#000000" points="214.26,-459.1 211.78,-469.4 220.14,-462.9 214.26,-459.1"/>
<text text-anchor="middle" x="578.98" y="-342.4" font-family="Times,serif" font-size="32.00">ε_5</text>
<text text-anchor="middle" x="578.98" y="-307.4" font-family="Times,serif" font-size="32.00">=&gt;2 =c1 v</text>
</g>
<!-- 2&#45;&gt;prog -->
<g id="edge25" class="edge">
<title>2&#45;&gt;prog</title>
<path fill="none" stroke="#000000" d="M1078.03,-570.31C1065.91,-586.62 1047.63,-606.91 1025.98,-617 989.3,-634.11 881.23,-636.49 811.7,-636.12"/>
<polygon fill="#000000" stroke="#000000" points="811.34,-632.62 801.32,-636.04 811.29,-639.62 811.34,-632.62"/>
<text text-anchor="middle" x="938.48" y="-680.4" font-family="Times,serif" font-size="32.00">ing_1</text>
<text text-anchor="middle" x="938.48" y="-645.4" font-family="Times,serif" font-size="32.00">=&gt;2 =to prog</text>
</g>
<!-- 2&#45;&gt;prog -->
<g id="edge29" class="edge">
<title>2&#45;&gt;prog</title>
<path fill="none" stroke="#000000" d="M1067.84,-542.01C1012.48,-534.09 885.39,-519.16 850.98,-543 832.26,-555.98 848.02,-573.89 832.98,-591 824.66,-600.47 813.79,-608.24 802.67,-614.46"/>
<polygon fill="#000000" stroke="#000000" points="800.99,-611.39 793.75,-619.13 804.23,-617.6 800.99,-611.39"/>
<text text-anchor="middle" x="938.48" y="-587.4" font-family="Times,serif" font-size="32.00">ing_2</text>
<text text-anchor="middle" x="938.48" y="-552.4" font-family="Times,serif" font-size="32.00">=&gt;2 =c1 prog</text>
</g>
<!-- 2&#45;&gt;perf -->
<g id="edge24" class="edge">
<title>2&#45;&gt;perf</title>
<path fill="none" stroke="#000000" d="M1068.73,-537.43C1056.06,-533.51 1040.38,-529.25 1025.98,-527 829.37,-496.33 592.25,-499.22 485.06,-502.63"/>
<polygon fill="#000000" stroke="#000000" points="484.67,-499.14 474.79,-502.98 484.9,-506.14 484.67,-499.14"/>
<text text-anchor="middle" x="748.98" y="-551.4" font-family="Times,serif" font-size="32.00">n_1</text>
<text text-anchor="middle" x="748.98" y="-516.4" font-family="Times,serif" font-size="32.00">=&gt;2 =to perf</text>
</g>
<!-- 2&#45;&gt;perf -->
<g id="edge28" class="edge">
<title>2&#45;&gt;perf</title>
<path fill="none" stroke="#000000" d="M1071.64,-529.91C1058.85,-521.35 1042.14,-511.32 1025.98,-505 952.04,-476.06 912.51,-519.2 850.98,-469 835.25,-456.16 849.94,-438.18 832.98,-427 770.65,-385.9 728.95,-388.49 664.98,-427 650.33,-435.82 660.69,-450.78 646.98,-461 621.76,-479.81 540.63,-492.43 484.41,-499.16"/>
<polygon fill="#000000" stroke="#000000" points="483.74,-495.72 474.22,-500.35 484.56,-502.67 483.74,-495.72"/>
<text text-anchor="middle" x="748.98" y="-471.4" font-family="Times,serif" font-size="32.00">n_2</text>
<text text-anchor="middle" x="748.98" y="-436.4" font-family="Times,serif" font-size="32.00">=&gt;2 =c1 perf</text>
</g>
<!-- z3 -->
<g id="node15" class="node">
<title>z3</title>
<ellipse fill="none" stroke="black" stroke-dasharray="5,2" cx="1333.04" cy="-571" rx="27" ry="18"/>
</g>
<!-- z3&#45;&gt;2 -->
<g id="edge22" class="edge">
<title>z3&#45;&gt;2</title>
<path fill="none" stroke="#000000" d="M1306.32,-568.28C1264.11,-563.81 1180.04,-554.91 1131.92,-549.81"/>
<polygon fill="#000000" stroke="#000000" points="1132.26,-546.33 1121.94,-548.76 1131.52,-553.29 1132.26,-546.33"/>
<text text-anchor="middle" x="1222.81" y="-645.4" font-family="Times,serif" font-size="32.00">seem |</text>
<text text-anchor="middle" x="1222.81" y="-610.4" font-family="Times,serif" font-size="32.00"> appear</text>
<text text-anchor="middle" x="1222.81" y="-575.4" font-family="Times,serif" font-size="32.00">2</text>
</g>
<!-- z4 -->
<g id="node16" class="node">
<title>z4</title>
<ellipse fill="none" stroke="black" stroke-dasharray="5,2" cx="1688.27" cy="-978" rx="27" ry="18"/>
</g>
<!-- e -->
<g id="node17" class="node">
<title>e</title>
<ellipse fill="none" stroke="black" cx="1535.27" cy="-978" rx="27" ry="30.31"/>
<text text-anchor="middle" x="1535.27" y="-969.9" font-family="Times,serif" font-size="32.00">e</text>
</g>
<!-- z4&#45;&gt;e -->
<g id="edge32" class="edge">
<title>z4&#45;&gt;e</title>
<path fill="none" stroke="#000000" d="M1660.97,-978C1636.5,-978 1599.83,-978 1572.58,-978"/>
<polygon fill="#000000" stroke="#000000" points="1572.27,-974.5 1562.27,-978 1572.27,-981.5 1572.27,-974.5"/>
<text text-anchor="middle" x="1611.77" y="-1022.4" font-family="Times,serif" font-size="32.00">it</text>
<text text-anchor="middle" x="1611.77" y="-987.4" font-family="Times,serif" font-size="32.00">e &#45;k</text>
</g>
</g>
</svg>
