<?xml version="1.0" encoding="UTF-8" standalone="no"?>
<!DOCTYPE svg PUBLIC "-//W3C//DTD SVG 1.1//EN"
 "http://www.w3.org/Graphics/SVG/1.1/DTD/svg11.dtd">
<!-- Generated by graphviz version 2.47.1 (20210417.1919)
 -->
<!-- Title: G Pages: 1 -->
<svg width="3172pt" height="2433pt"
 viewBox="0.00 0.00 3172.48 2432.79" xmlns="http://www.w3.org/2000/svg" xmlns:xlink="http://www.w3.org/1999/xlink">
<g id="graph0" class="graph" transform="scale(1 1) rotate(0) translate(4 2428.79)">
<title>G</title>
<polygon fill="white" stroke="transparent" points="-4,4 -4,-2428.79 3168.48,-2428.79 3168.48,4 -4,4"/>
<text text-anchor="middle" x="1582.24" y="-13.4" font-family="Times,serif" font-size="32.00">single contraction: 2 → 1</text>
<!-- t -->
<g id="node1" class="node">
<title>t</title>
<ellipse fill="lightgray" stroke="black" cx="2301.65" cy="-993.79" rx="27" ry="30.31"/>
<text text-anchor="middle" x="2301.65" y="-985.69" font-family="Times,serif" font-size="32.00">t</text>
</g>
<!-- c2 -->
<g id="node14" class="node">
<title>c2</title>
<ellipse fill="none" stroke="black" cx="2027.15" cy="-1255.79" rx="33.47" ry="30.31"/>
<text text-anchor="middle" x="2027.15" y="-1247.69" font-family="Times,serif" font-size="32.00">c2</text>
</g>
<!-- t&#45;&gt;c2 -->
<g id="edge55" class="edge">
<title>t&#45;&gt;c2</title>
<path fill="none" stroke="#000000" d="M2280.61,-1013.05C2233.31,-1058.54 2114.45,-1172.81 2058.36,-1226.74"/>
<polygon fill="#000000" stroke="#000000" points="2055.65,-1224.49 2050.87,-1233.94 2060.51,-1229.53 2055.65,-1224.49"/>
<text text-anchor="middle" x="2194.65" y="-1193.19" font-family="Times,serif" font-size="32.00">that_1</text>
<text text-anchor="middle" x="2194.65" y="-1158.19" font-family="Times,serif" font-size="32.00">=t c2</text>
</g>
<!-- c1 -->
<g id="node18" class="node">
<title>c1</title>
<ellipse fill="none" stroke="black" cx="1300.65" cy="-672.79" rx="33.47" ry="30.31"/>
<text text-anchor="middle" x="1300.65" y="-664.69" font-family="Times,serif" font-size="32.00">c1</text>
</g>
<!-- t&#45;&gt;c1 -->
<g id="edge54" class="edge">
<title>t&#45;&gt;c1</title>
<path fill="none" stroke="#000000" d="M2279.94,-975.27C2272.95,-969.87 2264.85,-964.45 2256.65,-960.79 2118.04,-898.81 2071.23,-919.9 1921.65,-893.79 1853.48,-881.88 1834.57,-888.42 1767.65,-870.79 1596.37,-825.66 1554.54,-806.07 1395.65,-727.79 1387.24,-723.64 1385.71,-721.58 1377.65,-716.79 1364.79,-709.13 1350.61,-700.88 1338.03,-693.61"/>
<polygon fill="#000000" stroke="#000000" points="1339.59,-690.47 1329.18,-688.51 1336.1,-696.54 1339.59,-690.47"/>
<text text-anchor="middle" x="1844.65" y="-938.19" font-family="Times,serif" font-size="32.00">that</text>
<text text-anchor="middle" x="1844.65" y="-903.19" font-family="Times,serif" font-size="32.00">=t =e c1</text>
</g>
<!-- z0 -->
<g id="node2" class="node">
<title>z0</title>
<ellipse fill="none" stroke="black" stroke-dasharray="5,2" cx="2984.48" cy="-1786.79" rx="27" ry="18"/>
</g>
<!-- d -->
<g id="node3" class="node">
<title>d</title>
<ellipse fill="none" stroke="black" cx="2801.48" cy="-1687.79" rx="27" ry="30.31"/>
<text text-anchor="middle" x="2801.48" y="-1679.69" font-family="Times,serif" font-size="32.00">d</text>
</g>
<!-- z0&#45;&gt;d -->
<g id="edge1" class="edge">
<title>z0&#45;&gt;d</title>
<path fill="none" stroke="#000000" d="M2957.57,-1788.95C2928.06,-1790.08 2879.65,-1787.75 2846.48,-1764.79 2832.77,-1755.3 2822.78,-1740.06 2815.83,-1725.63"/>
<polygon fill="#000000" stroke="#000000" points="2818.95,-1724.05 2811.68,-1716.34 2812.56,-1726.9 2818.95,-1724.05"/>
<text text-anchor="middle" x="2892.98" y="-1938.19" font-family="Times,serif" font-size="32.00">Mary |</text>
<text text-anchor="middle" x="2892.98" y="-1903.19" font-family="Times,serif" font-size="32.00"> John |</text>
<text text-anchor="middle" x="2892.98" y="-1868.19" font-family="Times,serif" font-size="32.00"> Alice |</text>
<text text-anchor="middle" x="2892.98" y="-1833.19" font-family="Times,serif" font-size="32.00"> Bob</text>
<text text-anchor="middle" x="2892.98" y="-1798.19" font-family="Times,serif" font-size="32.00">d &#45;k</text>
</g>
<!-- 0 -->
<g id="node6" class="node">
<title>0</title>
<ellipse fill="none" stroke="black" cx="971.15" cy="-1594.79" rx="27" ry="30.31"/>
<text text-anchor="middle" x="971.15" y="-1586.69" font-family="Times,serif" font-size="32.00">0</text>
</g>
<!-- d&#45;&gt;0 -->
<g id="edge11" class="edge">
<title>d&#45;&gt;0</title>
<path fill="none" stroke="#000000" d="M2775.54,-1696.49C2769.36,-1698.43 2762.72,-1700.34 2756.48,-1701.79 2643.19,-1727.94 2607,-1700.27 2497.65,-1739.79 2379.65,-1782.42 2377.44,-1852.85 2256.65,-1886.79 2203.59,-1901.69 2181.94,-1911.43 2132.65,-1886.79 2120.73,-1880.82 2126.25,-1869.36 2114.65,-1862.79 2039.61,-1820.29 2007.5,-1850.92 1921.65,-1842.79 1776.88,-1829.07 1740.35,-1829.32 1595.65,-1814.79 1506.62,-1805.85 1484.13,-1805.09 1395.65,-1791.79 1318.76,-1780.23 1299.63,-1776.33 1223.65,-1759.79 1146.66,-1743.02 1106.22,-1773.63 1051.65,-1716.79 1024.31,-1688.3 1056.87,-1661.72 1033.65,-1629.79 1026.79,-1620.35 1016.56,-1613.1 1006.41,-1607.71"/>
<polygon fill="#000000" stroke="#000000" points="1007.73,-1604.46 997.2,-1603.28 1004.69,-1610.77 1007.73,-1604.46"/>
<text text-anchor="middle" x="2027.15" y="-2012.19" font-family="Times,serif" font-size="32.00">praise |</text>
<text text-anchor="middle" x="2027.15" y="-1977.19" font-family="Times,serif" font-size="32.00"> like |</text>
<text text-anchor="middle" x="2027.15" y="-1942.19" font-family="Times,serif" font-size="32.00"> kiss |</text>
<text text-anchor="middle" x="2027.15" y="-1907.19" font-family="Times,serif" font-size="32.00"> hug</text>
<text text-anchor="middle" x="2027.15" y="-1872.19" font-family="Times,serif" font-size="32.00">=d *k 0</text>
</g>
<!-- 1 -->
<g id="node8" class="node">
<title>1</title>
<ellipse fill="none" stroke="black" cx="1300.65" cy="-1629.79" rx="27" ry="30.31"/>
<text text-anchor="middle" x="1300.65" y="-1621.69" font-family="Times,serif" font-size="32.00">1</text>
</g>
<!-- d&#45;&gt;1 -->
<g id="edge12" class="edge">
<title>d&#45;&gt;1</title>
<path fill="none" stroke="#000000" d="M2785.97,-1713.07C2778.59,-1723.37 2768.6,-1734.16 2756.48,-1739.79 2652.12,-1788.19 2612.64,-1742.93 2497.65,-1739.79 2297.08,-1734.29 1755.11,-1576.99 1595.65,-1698.79 1571.49,-1717.24 1601.81,-1746.33 1577.65,-1764.79 1513.37,-1813.88 1462.81,-1809.87 1395.65,-1764.79 1378.11,-1753.01 1388.55,-1738.89 1377.65,-1720.79 1363.75,-1697.7 1344.18,-1674.42 1328.39,-1657.19"/>
<polygon fill="#000000" stroke="#000000" points="1330.8,-1654.65 1321.43,-1649.72 1325.68,-1659.42 1330.8,-1654.65"/>
<text text-anchor="middle" x="2194.65" y="-1857.19" font-family="Times,serif" font-size="32.00">praise_1 |</text>
<text text-anchor="middle" x="2194.65" y="-1822.19" font-family="Times,serif" font-size="32.00"> like_1 |</text>
<text text-anchor="middle" x="2194.65" y="-1787.19" font-family="Times,serif" font-size="32.00"> kiss_1 |</text>
<text text-anchor="middle" x="2194.65" y="-1752.19" font-family="Times,serif" font-size="32.00"> hug_1</text>
<text text-anchor="middle" x="2194.65" y="-1717.19" font-family="Times,serif" font-size="32.00">=d *k 1</text>
</g>
<!-- v -->
<g id="node10" class="node">
<title>v</title>
<ellipse fill="none" stroke="black" cx="629.65" cy="-1010.79" rx="27" ry="30.31"/>
<text text-anchor="middle" x="629.65" y="-1002.69" font-family="Times,serif" font-size="32.00">v</text>
</g>
<!-- d&#45;&gt;v -->
<g id="edge8" class="edge">
<title>d&#45;&gt;v</title>
<path fill="none" stroke="#000000" d="M2774.46,-1685.78C2684.67,-1679.41 2379.71,-1662.24 2132.65,-1701.79 1956.9,-1729.92 1925.69,-1792.5 1749.65,-1818.79 1564.43,-1846.45 1036.63,-1901.5 908.65,-1764.79 873.01,-1726.71 919.91,-1338.95 890.65,-1295.79 847,-1231.39 786.2,-1279.26 730.65,-1224.79 680.73,-1175.83 652.95,-1097.17 639.96,-1050.08"/>
<polygon fill="#000000" stroke="#000000" points="643.3,-1049.01 637.34,-1040.25 636.53,-1050.81 643.3,-1049.01"/>
<text text-anchor="middle" x="1844.65" y="-1964.19" font-family="Times,serif" font-size="32.00">dance_2 |</text>
<text text-anchor="middle" x="1844.65" y="-1929.19" font-family="Times,serif" font-size="32.00"> laugh_2 |</text>
<text text-anchor="middle" x="1844.65" y="-1894.19" font-family="Times,serif" font-size="32.00"> smile_2 |</text>
<text text-anchor="middle" x="1844.65" y="-1859.19" font-family="Times,serif" font-size="32.00"> jump_2</text>
<text text-anchor="middle" x="1844.65" y="-1824.19" font-family="Times,serif" font-size="32.00">=d v</text>
</g>
<!-- d&#45;&gt;v -->
<g id="edge13" class="edge">
<title>d&#45;&gt;v</title>
<path fill="none" stroke="#000000" d="M2800.33,-1657.38C2799.48,-1531.62 2793.8,-1051.86 2756.48,-905.79 2706.44,-709.95 2751.69,-500.79 2549.56,-500.79 2549.56,-500.79 2549.56,-500.79 2193.65,-500.79 2137.12,-500.79 1981.14,-525.18 1939.65,-486.79 1895.22,-445.67 1967.19,-391.66 1921.65,-351.79 1870.16,-306.7 1835.89,-346.42 1767.65,-351.79 1574.98,-366.94 1098.28,-450.46 908.65,-487.79 828.9,-503.49 782.87,-467.49 730.65,-529.79 707.77,-557.08 721.93,-815.4 712.65,-849.79 699.86,-897.19 672.05,-946.83 652.37,-978.23"/>
<polygon fill="#000000" stroke="#000000" points="649.22,-976.67 646.8,-986.98 655.12,-980.43 649.22,-976.67"/>
<text text-anchor="middle" x="1844.65" y="-501.19" font-family="Times,serif" font-size="32.00">praise_2 |</text>
<text text-anchor="middle" x="1844.65" y="-466.19" font-family="Times,serif" font-size="32.00"> like_2 |</text>
<text text-anchor="middle" x="1844.65" y="-431.19" font-family="Times,serif" font-size="32.00"> kiss_2 |</text>
<text text-anchor="middle" x="1844.65" y="-396.19" font-family="Times,serif" font-size="32.00"> hug_2</text>
<text text-anchor="middle" x="1844.65" y="-361.19" font-family="Times,serif" font-size="32.00">=d *k =d v</text>
</g>
<!-- prog -->
<g id="node11" class="node">
<title>prog</title>
<ellipse fill="none" stroke="black" cx="52.33" cy="-1314.79" rx="52.15" ry="30.31"/>
<text text-anchor="middle" x="52.33" y="-1306.69" font-family="Times,serif" font-size="32.00">prog</text>
</g>
<!-- d&#45;&gt;prog -->
<g id="edge9" class="edge">
<title>d&#45;&gt;prog</title>
<path fill="none" stroke="#000000" d="M2799.7,-1718.22C2797.26,-1796.94 2787.93,-2005.35 2756.48,-2065.79 2699.66,-2174.95 2672.63,-2249.79 2549.56,-2249.79 2549.56,-2249.79 2549.56,-2249.79 323.65,-2249.79 202.54,-2249.79 176.5,-2174.27 122.65,-2065.79 59.88,-1939.34 53.67,-1493.08 53.27,-1355.48"/>
<polygon fill="#000000" stroke="#000000" points="56.77,-1355.36 53.25,-1345.37 49.77,-1355.38 56.77,-1355.36"/>
<text text-anchor="middle" x="1486.65" y="-2399.19" font-family="Times,serif" font-size="32.00">danceing |</text>
<text text-anchor="middle" x="1486.65" y="-2364.19" font-family="Times,serif" font-size="32.00"> laughing |</text>
<text text-anchor="middle" x="1486.65" y="-2329.19" font-family="Times,serif" font-size="32.00"> smileing |</text>
<text text-anchor="middle" x="1486.65" y="-2294.19" font-family="Times,serif" font-size="32.00"> jumping</text>
<text text-anchor="middle" x="1486.65" y="-2259.19" font-family="Times,serif" font-size="32.00">=d prog</text>
</g>
<!-- d&#45;&gt;prog -->
<g id="edge14" class="edge">
<title>d&#45;&gt;prog</title>
<path fill="none" stroke="#000000" d="M2794.95,-1717.57C2776.95,-1804.51 2711.51,-2051.79 2549.56,-2051.79 2549.56,-2051.79 2549.56,-2051.79 323.65,-2051.79 183.49,-2051.79 179.2,-1937.03 122.65,-1808.79 86.76,-1727.38 63.83,-1458.48 56.17,-1355.45"/>
<polygon fill="#000000" stroke="#000000" points="59.66,-1355.15 55.44,-1345.44 52.68,-1355.66 59.66,-1355.15"/>
<text text-anchor="middle" x="1486.65" y="-2201.19" font-family="Times,serif" font-size="32.00">praiseing |</text>
<text text-anchor="middle" x="1486.65" y="-2166.19" font-family="Times,serif" font-size="32.00"> likeing |</text>
<text text-anchor="middle" x="1486.65" y="-2131.19" font-family="Times,serif" font-size="32.00"> kissing |</text>
<text text-anchor="middle" x="1486.65" y="-2096.19" font-family="Times,serif" font-size="32.00"> huging</text>
<text text-anchor="middle" x="1486.65" y="-2061.19" font-family="Times,serif" font-size="32.00">=d *k =d prog</text>
</g>
<!-- perf -->
<g id="node12" class="node">
<title>perf</title>
<ellipse fill="none" stroke="black" cx="971.15" cy="-601.79" rx="48.17" ry="30.31"/>
<text text-anchor="middle" x="971.15" y="-593.69" font-family="Times,serif" font-size="32.00">perf</text>
</g>
<!-- d&#45;&gt;perf -->
<g id="edge10" class="edge">
<title>d&#45;&gt;perf</title>
<path fill="none" stroke="#000000" d="M2800.18,-1657.39C2798.14,-1458.49 2785.48,-348.62 2756.48,-283.79 2704.63,-167.88 2676.54,-86.79 2549.56,-86.79 2549.56,-86.79 2549.56,-86.79 2193.65,-86.79 2080.59,-86.79 2047.72,-67.56 1939.65,-100.79 1661.05,-186.44 1645.34,-323.46 1377.65,-438.79 1304.76,-470.19 1282.41,-466.61 1205.65,-486.79 1137.47,-504.71 1113.33,-490.64 1051.65,-524.79 1032.47,-535.41 1014.59,-551.86 1000.67,-566.83"/>
<polygon fill="#000000" stroke="#000000" points="997.86,-564.72 993.76,-574.49 1003.06,-569.41 997.86,-564.72"/>
<text text-anchor="middle" x="2027.15" y="-250.19" font-family="Times,serif" font-size="32.00">dancen |</text>
<text text-anchor="middle" x="2027.15" y="-215.19" font-family="Times,serif" font-size="32.00"> laughn |</text>
<text text-anchor="middle" x="2027.15" y="-180.19" font-family="Times,serif" font-size="32.00"> smilen |</text>
<text text-anchor="middle" x="2027.15" y="-145.19" font-family="Times,serif" font-size="32.00"> jumpn</text>
<text text-anchor="middle" x="2027.15" y="-110.19" font-family="Times,serif" font-size="32.00">=d perf</text>
</g>
<!-- d&#45;&gt;perf -->
<g id="edge15" class="edge">
<title>d&#45;&gt;perf</title>
<path fill="none" stroke="#000000" d="M2800.02,-1657.23C2797.24,-1475.35 2781.79,-541.46 2756.48,-486.79 2704.14,-373.76 2674.11,-297.79 2549.56,-297.79 2549.56,-297.79 2549.56,-297.79 2193.65,-297.79 2073.89,-297.79 2017.61,-296.86 1939.65,-387.79 1911.68,-420.41 1951.23,-451.62 1921.65,-482.79 1842.12,-566.58 1568.25,-536.31 1223.65,-562.79 1147.18,-568.66 1126.93,-562.08 1051.65,-576.79 1042.27,-578.62 1032.44,-581.17 1023.01,-583.95"/>
<polygon fill="#000000" stroke="#000000" points="1021.91,-580.62 1013.37,-586.9 1023.96,-587.32 1021.91,-580.62"/>
<text text-anchor="middle" x="2027.15" y="-537.19" font-family="Times,serif" font-size="32.00">praisen |</text>
<text text-anchor="middle" x="2027.15" y="-502.19" font-family="Times,serif" font-size="32.00"> liken |</text>
<text text-anchor="middle" x="2027.15" y="-467.19" font-family="Times,serif" font-size="32.00"> kissn |</text>
<text text-anchor="middle" x="2027.15" y="-432.19" font-family="Times,serif" font-size="32.00"> hugn</text>
<text text-anchor="middle" x="2027.15" y="-397.19" font-family="Times,serif" font-size="32.00">=d *k =d perf</text>
</g>
<!-- pass -->
<g id="node13" class="node">
<title>pass</title>
<ellipse fill="none" stroke="black" cx="2548.56" cy="-614.79" rx="50.82" ry="30.31"/>
<text text-anchor="middle" x="2548.56" y="-606.69" font-family="Times,serif" font-size="32.00">pass</text>
</g>
<!-- d&#45;&gt;pass -->
<g id="edge16" class="edge">
<title>d&#45;&gt;pass</title>
<path fill="none" stroke="#000000" d="M2793.7,-1658.64C2785.07,-1621.52 2769.69,-1555.38 2756.48,-1498.79 2680.41,-1172.95 2588.22,-779.64 2558.95,-654.81"/>
<polygon fill="#000000" stroke="#000000" points="2562.32,-653.87 2556.63,-644.93 2555.51,-655.46 2562.32,-653.87"/>
<text text-anchor="middle" x="2686.98" y="-1648.19" font-family="Times,serif" font-size="32.00">praisen_1 |</text>
<text text-anchor="middle" x="2686.98" y="-1613.19" font-family="Times,serif" font-size="32.00"> liken_1 |</text>
<text text-anchor="middle" x="2686.98" y="-1578.19" font-family="Times,serif" font-size="32.00"> kissn_1 |</text>
<text text-anchor="middle" x="2686.98" y="-1543.19" font-family="Times,serif" font-size="32.00"> hugn_1</text>
<text text-anchor="middle" x="2686.98" y="-1508.19" font-family="Times,serif" font-size="32.00">=d pass</text>
</g>
<!-- n -->
<g id="node4" class="node">
<title>n</title>
<ellipse fill="none" stroke="black" cx="2984.48" cy="-1588.79" rx="27" ry="30.31"/>
<text text-anchor="middle" x="2984.48" y="-1580.69" font-family="Times,serif" font-size="32.00">n</text>
</g>
<!-- n&#45;&gt;d -->
<g id="edge2" class="edge">
<title>n&#45;&gt;d</title>
<path fill="none" stroke="#000000" d="M2958.4,-1580.33C2929.01,-1572.08 2880.07,-1563.69 2846.48,-1585.79 2825.66,-1599.48 2814.64,-1625.33 2808.84,-1647.59"/>
<polygon fill="#000000" stroke="#000000" points="2805.39,-1646.97 2806.53,-1657.5 2812.21,-1648.56 2805.39,-1646.97"/>
<text text-anchor="middle" x="2892.98" y="-1735.19" font-family="Times,serif" font-size="32.00">this |</text>
<text text-anchor="middle" x="2892.98" y="-1700.19" font-family="Times,serif" font-size="32.00"> a |</text>
<text text-anchor="middle" x="2892.98" y="-1665.19" font-family="Times,serif" font-size="32.00"> the |</text>
<text text-anchor="middle" x="2892.98" y="-1630.19" font-family="Times,serif" font-size="32.00"> some</text>
<text text-anchor="middle" x="2892.98" y="-1595.19" font-family="Times,serif" font-size="32.00">=n d &#45;k</text>
</g>
<!-- z1 -->
<g id="node5" class="node">
<title>z1</title>
<ellipse fill="none" stroke="black" stroke-dasharray="5,2" cx="3137.48" cy="-1588.79" rx="27" ry="18"/>
</g>
<!-- z1&#45;&gt;n -->
<g id="edge3" class="edge">
<title>z1&#45;&gt;n</title>
<path fill="none" stroke="#000000" d="M3110.17,-1588.79C3085.71,-1588.79 3049.03,-1588.79 3021.78,-1588.79"/>
<polygon fill="#000000" stroke="#000000" points="3021.48,-1585.29 3011.48,-1588.79 3021.48,-1592.29 3021.48,-1585.29"/>
<text text-anchor="middle" x="3060.98" y="-1668.19" font-family="Times,serif" font-size="32.00">boy |</text>
<text text-anchor="middle" x="3060.98" y="-1633.19" font-family="Times,serif" font-size="32.00"> girl</text>
<text text-anchor="middle" x="3060.98" y="-1598.19" font-family="Times,serif" font-size="32.00">n</text>
</g>
<!-- 0&#45;&gt;t -->
<g id="edge4" class="edge">
<title>0&#45;&gt;t</title>
<path fill="none" stroke="#000000" d="M997.12,-1603.7C1009.73,-1609.38 1024.29,-1617.92 1033.65,-1629.79 1051.42,-1652.31 1030.35,-1672.56 1051.65,-1691.79 1103.3,-1738.39 1137.7,-1704.87 1205.65,-1719.79 1290.83,-1738.49 1309.14,-1757.81 1395.65,-1768.79 1475.9,-1778.97 1505.3,-1804.96 1577.65,-1768.79 1589.58,-1762.82 1585.13,-1752.97 1595.65,-1744.79 1719.55,-1648.38 1787.67,-1690.61 1921.65,-1608.79 2017.47,-1550.27 2031.32,-1521.03 2114.65,-1445.79 2179.74,-1387.02 2216.85,-1386.93 2256.65,-1308.79 2280.69,-1261.59 2293.41,-1108.27 2298.27,-1034.36"/>
<polygon fill="#000000" stroke="#000000" points="2301.79,-1034.26 2298.94,-1024.05 2294.8,-1033.81 2301.79,-1034.26"/>
<text text-anchor="middle" x="1672.65" y="-1789.19" font-family="Times,serif" font-size="32.00">s</text>
<text text-anchor="middle" x="1672.65" y="-1754.19" font-family="Times,serif" font-size="32.00">=&gt;0 =d +k t</text>
</g>
<!-- z2 -->
<g id="node7" class="node">
<title>z2</title>
<ellipse fill="none" stroke="black" stroke-dasharray="5,2" cx="1300.65" cy="-1457.79" rx="27" ry="18"/>
</g>
<!-- z2&#45;&gt;0 -->
<g id="edge5" class="edge">
<title>z2&#45;&gt;0</title>
<path fill="none" stroke="#000000" d="M1275.1,-1451.46C1259.17,-1446.44 1238.66,-1438.19 1223.65,-1425.79 1212.53,-1416.6 1218.37,-1405.59 1205.65,-1398.79 1175.48,-1382.64 1080.04,-1379.67 1051.65,-1398.79 1000.12,-1433.49 981.98,-1507.94 975.6,-1554.44"/>
<polygon fill="#000000" stroke="#000000" points="972.11,-1554.12 974.34,-1564.48 979.06,-1554.99 972.11,-1554.12"/>
<text text-anchor="middle" x="1128.65" y="-1548.19" font-family="Times,serif" font-size="32.00">dance |</text>
<text text-anchor="middle" x="1128.65" y="-1513.19" font-family="Times,serif" font-size="32.00"> laugh |</text>
<text text-anchor="middle" x="1128.65" y="-1478.19" font-family="Times,serif" font-size="32.00"> smile |</text>
<text text-anchor="middle" x="1128.65" y="-1443.19" font-family="Times,serif" font-size="32.00"> jump</text>
<text text-anchor="middle" x="1128.65" y="-1408.19" font-family="Times,serif" font-size="32.00">0</text>
</g>
<!-- 1&#45;&gt;t -->
<g id="edge6" class="edge">
<title>1&#45;&gt;t</title>
<path fill="none" stroke="#000000" d="M1326.69,-1620.66C1342.05,-1614.49 1361.76,-1605.52 1377.65,-1594.79 1386.77,-1588.62 1385.65,-1582.36 1395.65,-1577.79 1539.46,-1511.99 1600.12,-1593.25 1749.65,-1541.79 2001.38,-1455.15 2106.44,-1442.58 2256.65,-1222.79 2277.24,-1192.66 2290.65,-1091.4 2296.78,-1034.13"/>
<polygon fill="#000000" stroke="#000000" points="2300.29,-1034.29 2297.85,-1023.98 2293.33,-1033.56 2300.29,-1034.29"/>
<text text-anchor="middle" x="1844.65" y="-1579.19" font-family="Times,serif" font-size="32.00">d</text>
<text text-anchor="middle" x="1844.65" y="-1544.19" font-family="Times,serif" font-size="32.00">=&gt;1 =d +k t</text>
</g>
<!-- 1&#45;&gt;0 -->
<g id="edge17" class="edge">
<title>1&#45;&gt;0</title>
<path fill="none" stroke="#000000" d="M1273.68,-1627.01C1215.52,-1620.79 1074.7,-1605.75 1008.15,-1598.63"/>
<polygon fill="#000000" stroke="#000000" points="1008.44,-1595.14 998.13,-1597.56 1007.7,-1602.1 1008.44,-1595.14"/>
<text text-anchor="middle" x="1128.65" y="-1664.19" font-family="Times,serif" font-size="32.00">ε_0</text>
<text text-anchor="middle" x="1128.65" y="-1629.19" font-family="Times,serif" font-size="32.00">=&gt;1 0</text>
</g>
<!-- 1&#45;&gt;v -->
<g id="edge19" class="edge">
<title>1&#45;&gt;v</title>
<path fill="none" stroke="#000000" d="M1279.56,-1648.82C1261.73,-1664.32 1234.14,-1685.01 1205.65,-1693.79 1140.24,-1713.94 1118.75,-1707.29 1051.65,-1693.79 984.08,-1680.18 948.22,-1690.22 908.65,-1633.79 862.28,-1567.66 928.55,-1342.11 890.65,-1270.79 848.94,-1192.29 792.77,-1214.37 730.65,-1150.79 698.68,-1118.06 669.17,-1074.39 650.62,-1044.57"/>
<polygon fill="#000000" stroke="#000000" points="653.45,-1042.48 645.23,-1035.79 647.48,-1046.15 653.45,-1042.48"/>
<text text-anchor="middle" x="971.15" y="-1735.19" font-family="Times,serif" font-size="32.00">ε_1</text>
<text text-anchor="middle" x="971.15" y="-1700.19" font-family="Times,serif" font-size="32.00">=&gt;1 =d v</text>
</g>
<!-- 1&#45;&gt;prog -->
<g id="edge20" class="edge">
<title>1&#45;&gt;prog</title>
<path fill="none" stroke="#000000" d="M1281.21,-1651.28C1263.61,-1670.51 1235.43,-1698.17 1205.65,-1714.79 1111.48,-1767.34 1080,-1780.79 972.15,-1780.79 972.15,-1780.79 972.15,-1780.79 323.65,-1780.79 127.74,-1780.79 71.45,-1468.82 57.46,-1355.39"/>
<polygon fill="#000000" stroke="#000000" points="60.92,-1354.88 56.27,-1345.36 53.97,-1355.7 60.92,-1354.88"/>
<text text-anchor="middle" x="629.65" y="-1825.19" font-family="Times,serif" font-size="32.00">ing</text>
<text text-anchor="middle" x="629.65" y="-1790.19" font-family="Times,serif" font-size="32.00">=&gt;1 =d prog</text>
</g>
<!-- 1&#45;&gt;perf -->
<g id="edge21" class="edge">
<title>1&#45;&gt;perf</title>
<path fill="none" stroke="#000000" d="M1274.29,-1622.18C1256.9,-1615.54 1234.99,-1604.05 1223.65,-1585.79 1191.46,-1533.95 1236.04,-1364.7 1205.65,-1311.79 1164.53,-1240.16 1091.88,-1279.92 1051.65,-1207.79 1027.66,-1164.76 1043.47,-813.06 1033.65,-764.79 1024.62,-720.41 1005.12,-672.19 990.48,-639.8"/>
<polygon fill="#000000" stroke="#000000" points="993.65,-638.32 986.3,-630.68 987.29,-641.23 993.65,-638.32"/>
<text text-anchor="middle" x="1128.65" y="-1356.19" font-family="Times,serif" font-size="32.00">n</text>
<text text-anchor="middle" x="1128.65" y="-1321.19" font-family="Times,serif" font-size="32.00">=&gt;1 =d perf</text>
</g>
<!-- z3 -->
<g id="node9" class="node">
<title>z3</title>
<ellipse fill="none" stroke="black" stroke-dasharray="5,2" cx="1672.65" cy="-1601.79" rx="27" ry="18"/>
</g>
<!-- z3&#45;&gt;1 -->
<g id="edge7" class="edge">
<title>z3&#45;&gt;1</title>
<path fill="none" stroke="#000000" d="M1646.59,-1596.67C1597.74,-1587.59 1486.59,-1571.24 1395.65,-1589.79 1374.39,-1594.12 1351.98,-1603.45 1334.38,-1612.01"/>
<polygon fill="#000000" stroke="#000000" points="1332.5,-1609.03 1325.13,-1616.64 1335.64,-1615.29 1332.5,-1609.03"/>
<text text-anchor="middle" x="1486.65" y="-1739.19" font-family="Times,serif" font-size="32.00">dance_1 |</text>
<text text-anchor="middle" x="1486.65" y="-1704.19" font-family="Times,serif" font-size="32.00"> laugh_1 |</text>
<text text-anchor="middle" x="1486.65" y="-1669.19" font-family="Times,serif" font-size="32.00"> smile_1 |</text>
<text text-anchor="middle" x="1486.65" y="-1634.19" font-family="Times,serif" font-size="32.00"> jump_1</text>
<text text-anchor="middle" x="1486.65" y="-1599.19" font-family="Times,serif" font-size="32.00">1</text>
</g>
<!-- v&#45;&gt;t -->
<g id="edge34" class="edge">
<title>v&#45;&gt;t</title>
<path fill="none" stroke="#000000" d="M656.42,-1005.05C676.54,-1000.77 705.25,-995.12 730.65,-991.79 1016.21,-954.36 1089.96,-942.54 1377.65,-955.79 1551.54,-963.79 1593.78,-983.45 1767.65,-991.79 1954.43,-1000.74 2178.43,-996.8 2264.52,-994.75"/>
<polygon fill="#000000" stroke="#000000" points="2264.65,-998.25 2274.56,-994.5 2264.48,-991.25 2264.65,-998.25"/>
<text text-anchor="middle" x="1486.65" y="-1054.19" font-family="Times,serif" font-size="32.00">wills |</text>
<text text-anchor="middle" x="1486.65" y="-1019.19" font-family="Times,serif" font-size="32.00"> willd</text>
<text text-anchor="middle" x="1486.65" y="-984.19" font-family="Times,serif" font-size="32.00">=v +k t</text>
</g>
<!-- to -->
<g id="node17" class="node">
<title>to</title>
<ellipse fill="none" stroke="black" cx="324.65" cy="-952.79" rx="28.98" ry="30.31"/>
<text text-anchor="middle" x="324.65" y="-944.69" font-family="Times,serif" font-size="32.00">to</text>
</g>
<!-- v&#45;&gt;to -->
<g id="edge53" class="edge">
<title>v&#45;&gt;to</title>
<path fill="none" stroke="#000000" d="M607.28,-992.9C588.08,-978.08 558.41,-958.15 528.65,-949.79 472.66,-934.05 404.5,-939.85 363.13,-945.96"/>
<polygon fill="#000000" stroke="#000000" points="362.56,-942.5 353.21,-947.5 363.63,-949.42 362.56,-942.5"/>
<text text-anchor="middle" x="460.65" y="-994.19" font-family="Times,serif" font-size="32.00">to</text>
<text text-anchor="middle" x="460.65" y="-959.19" font-family="Times,serif" font-size="32.00">=v to</text>
</g>
<!-- prog&#45;&gt;t -->
<g id="edge35" class="edge">
<title>prog&#45;&gt;t</title>
<path fill="none" stroke="#000000" d="M53.7,-1345.51C56.89,-1463.2 85.04,-1878.79 323.65,-1878.79 1301.65,-1878.79 1301.65,-1878.79 1301.65,-1878.79 1502.54,-1878.79 1564.34,-1896.34 1749.65,-1818.79 1939.01,-1739.54 1962.99,-1674.12 2114.65,-1535.79 2182.96,-1473.49 2217.96,-1467.75 2256.65,-1383.79 2285.02,-1322.24 2295.87,-1120.88 2299.3,-1034.13"/>
<polygon fill="#000000" stroke="#000000" points="2302.79,-1034.27 2299.68,-1024.14 2295.8,-1034 2302.79,-1034.27"/>
<text text-anchor="middle" x="1128.65" y="-1958.19" font-family="Times,serif" font-size="32.00">bes |</text>
<text text-anchor="middle" x="1128.65" y="-1923.19" font-family="Times,serif" font-size="32.00"> bed</text>
<text text-anchor="middle" x="1128.65" y="-1888.19" font-family="Times,serif" font-size="32.00">=prog +k t</text>
</g>
<!-- prog&#45;&gt;v -->
<g id="edge36" class="edge">
<title>prog&#45;&gt;v</title>
<path fill="none" stroke="#000000" d="M95.93,-1297.88C140.33,-1280.44 212.02,-1252.76 274.65,-1230.79 386.59,-1191.5 432.66,-1218.48 528.65,-1148.79 565.43,-1122.08 594.08,-1077.74 611.11,-1046.54"/>
<polygon fill="#000000" stroke="#000000" points="614.41,-1047.78 616.02,-1037.31 608.23,-1044.5 614.41,-1047.78"/>
<text text-anchor="middle" x="324.65" y="-1275.19" font-family="Times,serif" font-size="32.00">be</text>
<text text-anchor="middle" x="324.65" y="-1240.19" font-family="Times,serif" font-size="32.00">=prog v</text>
</g>
<!-- prog&#45;&gt;perf -->
<g id="edge37" class="edge">
<title>prog&#45;&gt;perf</title>
<path fill="none" stroke="#000000" d="M52.88,-1284.12C51.91,-1176.04 53.95,-814.64 122.65,-726.79 294.85,-506.58 451.12,-566.55 730.65,-565.79 801.76,-565.59 821.14,-550.78 890.65,-565.79 902.22,-568.28 914.13,-572.61 925.1,-577.41"/>
<polygon fill="#000000" stroke="#000000" points="923.91,-580.72 934.46,-581.73 926.84,-574.36 923.91,-580.72"/>
<text text-anchor="middle" x="460.65" y="-608.19" font-family="Times,serif" font-size="32.00">ben</text>
<text text-anchor="middle" x="460.65" y="-573.19" font-family="Times,serif" font-size="32.00">=prog perf</text>
</g>
<!-- perf&#45;&gt;t -->
<g id="edge50" class="edge">
<title>perf&#45;&gt;t</title>
<path fill="none" stroke="#000000" d="M1019.27,-600.65C1177.77,-597.14 1685.32,-588.73 1749.65,-622.79 1761.75,-629.19 1755.93,-640.7 1767.65,-647.79 1800.98,-667.92 2077.38,-685.52 2114.65,-696.79 2181.63,-717.03 2213.91,-709.38 2256.65,-764.79 2278.94,-793.68 2291.66,-895.44 2297.23,-953.12"/>
<polygon fill="#000000" stroke="#000000" points="2293.77,-953.72 2298.19,-963.35 2300.74,-953.06 2293.77,-953.72"/>
<text text-anchor="middle" x="1672.65" y="-702.19" font-family="Times,serif" font-size="32.00">haves |</text>
<text text-anchor="middle" x="1672.65" y="-667.19" font-family="Times,serif" font-size="32.00"> haved</text>
<text text-anchor="middle" x="1672.65" y="-632.19" font-family="Times,serif" font-size="32.00">=perf +k t</text>
</g>
<!-- perf&#45;&gt;v -->
<g id="edge51" class="edge">
<title>perf&#45;&gt;v</title>
<path fill="none" stroke="#000000" d="M944.24,-627.04C898.68,-672.02 802.27,-769.85 730.65,-860.79 700.51,-899.05 670.06,-946.23 650.81,-977.34"/>
<polygon fill="#000000" stroke="#000000" points="647.71,-975.71 645.45,-986.06 653.67,-979.38 647.71,-975.71"/>
<text text-anchor="middle" x="810.65" y="-905.19" font-family="Times,serif" font-size="32.00">have</text>
<text text-anchor="middle" x="810.65" y="-870.19" font-family="Times,serif" font-size="32.00">=perf v</text>
</g>
<!-- pass&#45;&gt;t -->
<g id="edge38" class="edge">
<title>pass&#45;&gt;t</title>
<path fill="none" stroke="#000000" d="M2529.36,-642.96C2484.93,-711.7 2371.18,-887.73 2323.83,-961.01"/>
<polygon fill="#000000" stroke="#000000" points="2320.88,-959.12 2318.4,-969.42 2326.76,-962.92 2320.88,-959.12"/>
<text text-anchor="middle" x="2413.15" y="-1001.19" font-family="Times,serif" font-size="32.00">bes_1 |</text>
<text text-anchor="middle" x="2413.15" y="-966.19" font-family="Times,serif" font-size="32.00"> bed_1</text>
<text text-anchor="middle" x="2413.15" y="-931.19" font-family="Times,serif" font-size="32.00">=pass +k t</text>
</g>
<!-- pass&#45;&gt;v -->
<g id="edge39" class="edge">
<title>pass&#45;&gt;v</title>
<path fill="none" stroke="#000000" d="M2497.56,-611.97C2456.87,-609.51 2398,-605.6 2346.65,-600.79 2165.3,-583.78 2120.45,-574.87 1939.65,-552.79 1855.16,-542.47 1834.33,-537.4 1749.65,-528.79 1508.4,-504.25 1447.97,-496.13 1205.65,-486.79 1137.26,-484.15 1118.06,-470.23 1051.65,-486.79 889.68,-527.15 817.06,-538.96 730.65,-681.79 691.78,-746.03 734.05,-777.8 712.65,-849.79 698.66,-896.86 671.12,-946.56 651.83,-978.08"/>
<polygon fill="#000000" stroke="#000000" points="648.68,-976.52 646.38,-986.86 654.63,-980.21 648.68,-976.52"/>
<text text-anchor="middle" x="1672.65" y="-573.19" font-family="Times,serif" font-size="32.00">be_1</text>
<text text-anchor="middle" x="1672.65" y="-538.19" font-family="Times,serif" font-size="32.00">=pass v</text>
</g>
<!-- pass&#45;&gt;prog -->
<g id="edge41" class="edge">
<title>pass&#45;&gt;prog</title>
<path fill="none" stroke="#000000" d="M2514.28,-592.11C2503.64,-585.86 2491.53,-579.72 2479.65,-575.79 2250.21,-499.85 2178.58,-548.13 1939.65,-511.79 1862.78,-500.09 1843.71,-495.97 1767.65,-479.79 1482.44,-419.1 1421.25,-326.79 1129.65,-326.79 1129.65,-326.79 1129.65,-326.79 323.65,-326.79 171.54,-326.79 176.59,-461.56 122.65,-603.79 75.55,-727.98 58.74,-1142.11 54.5,-1274.04"/>
<polygon fill="#000000" stroke="#000000" points="51,-1274.02 54.18,-1284.13 58,-1274.24 51,-1274.02"/>
<text text-anchor="middle" x="1300.65" y="-401.19" font-family="Times,serif" font-size="32.00">being</text>
<text text-anchor="middle" x="1300.65" y="-366.19" font-family="Times,serif" font-size="32.00">=pass prog</text>
</g>
<!-- pass&#45;&gt;perf -->
<g id="edge40" class="edge">
<title>pass&#45;&gt;perf</title>
<path fill="none" stroke="#000000" d="M2501.4,-603.28C2452.41,-592.1 2372.57,-576.79 2302.65,-576.79 2302.65,-576.79 2302.65,-576.79 1299.65,-576.79 1204.25,-576.79 1093.67,-587.46 1028.5,-594.86"/>
<polygon fill="#000000" stroke="#000000" points="1027.97,-591.4 1018.44,-596.02 1028.77,-598.35 1027.97,-591.4"/>
<text text-anchor="middle" x="1844.65" y="-621.19" font-family="Times,serif" font-size="32.00">ben_1</text>
<text text-anchor="middle" x="1844.65" y="-586.19" font-family="Times,serif" font-size="32.00">=pass perf</text>
</g>
<!-- c2&#45;&gt;1 -->
<g id="edge18" class="edge">
<title>c2&#45;&gt;1</title>
<path fill="none" stroke="#000000" d="M2008.99,-1281.65C1990.53,-1307.35 1958.77,-1345.85 1921.65,-1366.79 1792.57,-1439.59 1700.95,-1332.51 1595.65,-1436.79 1569.76,-1462.43 1604.29,-1491.92 1577.65,-1516.79 1517.83,-1572.63 1458.83,-1492.76 1395.65,-1544.79 1377.42,-1559.8 1393.62,-1577.38 1377.65,-1594.79 1366.8,-1606.61 1351.16,-1614.75 1336.88,-1620.18"/>
<polygon fill="#000000" stroke="#000000" points="1335.58,-1616.93 1327.29,-1623.52 1337.88,-1623.54 1335.58,-1616.93"/>
<text text-anchor="middle" x="1672.65" y="-1516.19" font-family="Times,serif" font-size="32.00">declare |</text>
<text text-anchor="middle" x="1672.65" y="-1481.19" font-family="Times,serif" font-size="32.00"> say</text>
<text text-anchor="middle" x="1672.65" y="-1446.19" font-family="Times,serif" font-size="32.00">=c2 1</text>
</g>
<!-- 2 -->
<g id="node15" class="node">
<title>2</title>
<ellipse fill="none" stroke="black" cx="1672.65" cy="-1294.79" rx="27" ry="30.31"/>
<text text-anchor="middle" x="1672.65" y="-1286.69" font-family="Times,serif" font-size="32.00">2</text>
</g>
<!-- c2&#45;&gt;2 -->
<g id="edge23" class="edge">
<title>c2&#45;&gt;2</title>
<path fill="none" stroke="#000000" d="M1994.85,-1264.4C1974.23,-1269.72 1946.52,-1276.2 1921.65,-1279.79 1846.87,-1290.56 1758.33,-1293.61 1709.86,-1294.47"/>
<polygon fill="#000000" stroke="#000000" points="1709.81,-1290.97 1699.86,-1294.62 1709.91,-1297.97 1709.81,-1290.97"/>
<text text-anchor="middle" x="1844.65" y="-1337.19" font-family="Times,serif" font-size="32.00">think</text>
<text text-anchor="middle" x="1844.65" y="-1302.19" font-family="Times,serif" font-size="32.00">=c2 2</text>
</g>
<!-- 3 -->
<g id="node16" class="node">
<title>3</title>
<ellipse fill="none" stroke="black" cx="1672.65" cy="-1212.79" rx="27" ry="30.31"/>
<text text-anchor="middle" x="1672.65" y="-1204.69" font-family="Times,serif" font-size="32.00">3</text>
</g>
<!-- c2&#45;&gt;3 -->
<g id="edge29" class="edge">
<title>c2&#45;&gt;3</title>
<path fill="none" stroke="#000000" d="M1999.44,-1238.88C1979.02,-1227.01 1949.7,-1212.15 1921.65,-1205.79 1847.69,-1189 1758.15,-1198.62 1709.45,-1206.26"/>
<polygon fill="#000000" stroke="#000000" points="1708.71,-1202.83 1699.41,-1207.9 1709.84,-1209.74 1708.71,-1202.83"/>
<text text-anchor="middle" x="1844.65" y="-1250.19" font-family="Times,serif" font-size="32.00">explain</text>
<text text-anchor="middle" x="1844.65" y="-1215.19" font-family="Times,serif" font-size="32.00">=c2 3</text>
</g>
<!-- 2&#45;&gt;0 -->
<g id="edge22" class="edge">
<title>2&#45;&gt;0</title>
<path fill="none" stroke="#000000" d="M1645.67,-1298.03C1577.78,-1306.57 1400.03,-1329.31 1395.65,-1333.79 1348.38,-1382.09 1422.72,-1434.42 1377.65,-1484.79 1330.78,-1537.17 1275.72,-1473.57 1223.65,-1520.79 1205.22,-1537.5 1225.2,-1558.4 1205.65,-1573.79 1175.91,-1597.18 1066.2,-1597.67 1008.37,-1596.18"/>
<polygon fill="#000000" stroke="#000000" points="1008.31,-1592.68 998.21,-1595.89 1008.1,-1599.68 1008.31,-1592.68"/>
<text text-anchor="middle" x="1300.65" y="-1565.19" font-family="Times,serif" font-size="32.00">ε_2</text>
<text text-anchor="middle" x="1300.65" y="-1530.19" font-family="Times,serif" font-size="32.00">=&gt;2 0</text>
</g>
<!-- 2&#45;&gt;1 -->
<g id="edge24" class="edge">
<title>2&#45;&gt;1</title>
<path fill="none" stroke="#000000" d="M1655.03,-1318.08C1628.79,-1354.79 1580.43,-1422.15 1577.65,-1423.79 1507.45,-1465.24 1453.39,-1389.22 1395.65,-1446.79 1351.54,-1490.77 1412.17,-1533.93 1377.65,-1585.79 1367.95,-1600.36 1351.66,-1610.71 1336.64,-1617.7"/>
<polygon fill="#000000" stroke="#000000" points="1334.85,-1614.66 1327.04,-1621.81 1337.61,-1621.09 1334.85,-1614.66"/>
<text text-anchor="middle" x="1486.65" y="-1491.19" font-family="Times,serif" font-size="32.00">ε_3</text>
<text text-anchor="middle" x="1486.65" y="-1456.19" font-family="Times,serif" font-size="32.00">=&gt;2 1</text>
</g>
<!-- 2&#45;&gt;v -->
<g id="edge25" class="edge">
<title>2&#45;&gt;v</title>
<path fill="none" stroke="#000000" d="M1647.47,-1282.91C1628.81,-1274.2 1602.13,-1262.73 1577.65,-1255.79 1424.34,-1212.29 1342.39,-1305.07 1223.65,-1198.79 1201.32,-1178.79 1228.35,-1153.36 1205.65,-1133.79 1179.54,-1111.26 1085.56,-1121.04 1051.65,-1114.79 906.99,-1088.09 737.9,-1041.56 665.95,-1021.03"/>
<polygon fill="#000000" stroke="#000000" points="666.63,-1017.58 656.05,-1018.19 664.7,-1024.31 666.63,-1017.58"/>
<text text-anchor="middle" x="1128.65" y="-1178.19" font-family="Times,serif" font-size="32.00">ε_4</text>
<text text-anchor="middle" x="1128.65" y="-1143.19" font-family="Times,serif" font-size="32.00">=&gt;2 =d v</text>
</g>
<!-- 2&#45;&gt;prog -->
<g id="edge26" class="edge">
<title>2&#45;&gt;prog</title>
<path fill="none" stroke="#000000" d="M1645.37,-1295.12C1596.27,-1295.85 1487.28,-1298.03 1395.65,-1303.79 1319.03,-1308.59 1298.78,-1303.99 1223.65,-1319.79 1215.4,-1321.52 1213.82,-1323.69 1205.65,-1325.79 1138.26,-1343.05 1119.99,-1340.78 1051.65,-1353.79 979.98,-1367.42 963.26,-1378.64 890.65,-1385.79 819.88,-1392.75 801.69,-1389.11 730.65,-1385.79 459.54,-1373.1 391.16,-1368.37 122.65,-1328.79 119.04,-1328.25 115.33,-1327.65 111.59,-1327.01"/>
<polygon fill="#000000" stroke="#000000" points="112.16,-1323.56 101.7,-1325.23 110.92,-1330.45 112.16,-1323.56"/>
<text text-anchor="middle" x="810.65" y="-1434.19" font-family="Times,serif" font-size="32.00">ing_1</text>
<text text-anchor="middle" x="810.65" y="-1399.19" font-family="Times,serif" font-size="32.00">=&gt;2 =d prog</text>
</g>
<!-- 2&#45;&gt;perf -->
<g id="edge27" class="edge">
<title>2&#45;&gt;perf</title>
<path fill="none" stroke="#000000" d="M1646.83,-1285.87C1630.37,-1278.85 1609.36,-1267.59 1595.65,-1251.79 1581.27,-1235.2 1593.26,-1221.22 1577.65,-1205.79 1458.04,-1087.49 1342.84,-1190.51 1223.65,-1071.79 1207.8,-1056 1216.93,-1044.1 1205.65,-1024.79 1151.52,-932.11 1103.82,-932.58 1051.65,-838.79 1015.71,-774.17 992.39,-690.58 980.82,-641.9"/>
<polygon fill="#000000" stroke="#000000" points="984.21,-641 978.53,-632.06 977.39,-642.59 984.21,-641"/>
<text text-anchor="middle" x="1300.65" y="-1182.19" font-family="Times,serif" font-size="32.00">n_1</text>
<text text-anchor="middle" x="1300.65" y="-1147.19" font-family="Times,serif" font-size="32.00">=&gt;2 =d perf</text>
</g>
<!-- 3&#45;&gt;0 -->
<g id="edge28" class="edge">
<title>3&#45;&gt;0</title>
<path fill="none" stroke="#000000" d="M1648.31,-1225.94C1629.65,-1236.03 1602.58,-1249.72 1577.65,-1258.79 1497.62,-1287.89 1288.75,-1332.16 1205.65,-1350.79 1137.53,-1366.06 1104.78,-1336.48 1051.65,-1381.79 1000.31,-1425.57 982.09,-1505.86 975.64,-1554.38"/>
<polygon fill="#000000" stroke="#000000" points="972.14,-1554.17 974.41,-1564.52 979.09,-1555.02 972.14,-1554.17"/>
<text text-anchor="middle" x="1300.65" y="-1391.19" font-family="Times,serif" font-size="32.00">ε_5</text>
<text text-anchor="middle" x="1300.65" y="-1356.19" font-family="Times,serif" font-size="32.00">=&gt;3 0</text>
</g>
<!-- 3&#45;&gt;1 -->
<g id="edge30" class="edge">
<title>3&#45;&gt;1</title>
<path fill="none" stroke="#000000" d="M1646.6,-1221.5C1630.04,-1228.44 1609,-1239.67 1595.65,-1255.79 1579.78,-1274.95 1596.15,-1292.15 1577.65,-1308.79 1516,-1364.23 1449.87,-1287.05 1395.65,-1349.79 1361.26,-1389.58 1405.64,-1541.25 1377.65,-1585.79 1368.18,-1600.86 1351.54,-1611.34 1336.24,-1618.27"/>
<polygon fill="#000000" stroke="#000000" points="1334.84,-1615.06 1326.96,-1622.14 1337.53,-1621.52 1334.84,-1615.06"/>
<text text-anchor="middle" x="1486.65" y="-1394.19" font-family="Times,serif" font-size="32.00">ε_6</text>
<text text-anchor="middle" x="1486.65" y="-1359.19" font-family="Times,serif" font-size="32.00">=&gt;3 1</text>
</g>
<!-- 3&#45;&gt;v -->
<g id="edge31" class="edge">
<title>3&#45;&gt;v</title>
<path fill="none" stroke="#000000" d="M1645.69,-1210.81C1550.3,-1203.55 1224.62,-1178.7 1223.65,-1177.79 1180.3,-1136.82 1249.39,-1085.34 1205.65,-1044.79 1127.51,-972.33 780.95,-996.95 667.06,-1007.23"/>
<polygon fill="#000000" stroke="#000000" points="666.42,-1003.77 656.78,-1008.18 667.06,-1010.74 666.42,-1003.77"/>
<text text-anchor="middle" x="1128.65" y="-1089.19" font-family="Times,serif" font-size="32.00">ε_7</text>
<text text-anchor="middle" x="1128.65" y="-1054.19" font-family="Times,serif" font-size="32.00">=&gt;3 =d v</text>
</g>
<!-- 3&#45;&gt;prog -->
<g id="edge32" class="edge">
<title>3&#45;&gt;prog</title>
<path fill="none" stroke="#000000" d="M1646.07,-1218.8C1576.05,-1235.01 1375.2,-1279.78 1205.65,-1300.79 1102.48,-1313.57 1076.12,-1314.79 972.15,-1314.79 972.15,-1314.79 972.15,-1314.79 323.65,-1314.79 252.12,-1314.79 169.93,-1314.79 115.14,-1314.79"/>
<polygon fill="#000000" stroke="#000000" points="114.9,-1311.29 104.9,-1314.79 114.9,-1318.29 114.9,-1311.29"/>
<text text-anchor="middle" x="810.65" y="-1359.19" font-family="Times,serif" font-size="32.00">ing_2</text>
<text text-anchor="middle" x="810.65" y="-1324.19" font-family="Times,serif" font-size="32.00">=&gt;3 =d prog</text>
</g>
<!-- 3&#45;&gt;perf -->
<g id="edge33" class="edge">
<title>3&#45;&gt;perf</title>
<path fill="none" stroke="#000000" d="M1660.37,-1185.66C1645.98,-1154.69 1618.03,-1105.07 1577.65,-1079.79 1508.17,-1036.28 1459,-1101.82 1395.65,-1049.79 1378.05,-1035.32 1392.59,-1018.99 1377.65,-1001.79 1326.53,-942.92 1286.01,-964.58 1223.65,-917.79 1136.93,-852.7 1116.83,-831.43 1051.65,-744.79 1026.77,-711.71 1004.45,-669.95 989.84,-640.11"/>
<polygon fill="#000000" stroke="#000000" points="992.88,-638.35 985.38,-630.87 986.58,-641.4 992.88,-638.35"/>
<text text-anchor="middle" x="1300.65" y="-1046.19" font-family="Times,serif" font-size="32.00">n_2</text>
<text text-anchor="middle" x="1300.65" y="-1011.19" font-family="Times,serif" font-size="32.00">=&gt;3 =d perf</text>
</g>
<!-- to&#45;&gt;t -->
<g id="edge42" class="edge">
<title>to&#45;&gt;t</title>
<path fill="none" stroke="#000000" d="M352.78,-944.58C364.87,-941.26 379.36,-937.76 392.65,-935.79 674.75,-893.83 763.72,-997.86 1033.65,-905.79 1131.21,-872.51 1125.34,-803.77 1223.65,-772.79 1288.93,-752.21 1311.77,-754.25 1377.65,-772.79 1386.68,-775.32 1387.42,-779.29 1395.65,-783.79 1556.87,-871.78 1589.85,-917.73 1767.65,-963.79 1791.66,-970 2148.21,-986.8 2264.37,-992.13"/>
<polygon fill="#000000" stroke="#000000" points="2264.38,-995.64 2274.53,-992.6 2264.7,-988.65 2264.38,-995.64"/>
<text text-anchor="middle" x="1300.65" y="-922.19" font-family="Times,serif" font-size="32.00">seems |</text>
<text text-anchor="middle" x="1300.65" y="-887.19" font-family="Times,serif" font-size="32.00"> seemd |</text>
<text text-anchor="middle" x="1300.65" y="-852.19" font-family="Times,serif" font-size="32.00"> appears |</text>
<text text-anchor="middle" x="1300.65" y="-817.19" font-family="Times,serif" font-size="32.00"> appeard</text>
<text text-anchor="middle" x="1300.65" y="-782.19" font-family="Times,serif" font-size="32.00">=to +k t</text>
</g>
<!-- to&#45;&gt;v -->
<g id="edge43" class="edge">
<title>to&#45;&gt;v</title>
<path fill="none" stroke="#000000" d="M341.29,-977.87C353.13,-994.33 371.02,-1014.46 392.65,-1023.79 459.17,-1052.48 546.18,-1035.41 593.79,-1022.06"/>
<polygon fill="#000000" stroke="#000000" points="594.98,-1025.35 603.6,-1019.2 593.03,-1018.63 594.98,-1025.35"/>
<text text-anchor="middle" x="460.65" y="-1119.19" font-family="Times,serif" font-size="32.00">seem |</text>
<text text-anchor="middle" x="460.65" y="-1084.19" font-family="Times,serif" font-size="32.00"> appear</text>
<text text-anchor="middle" x="460.65" y="-1049.19" font-family="Times,serif" font-size="32.00">=to v</text>
</g>
<!-- to&#45;&gt;prog -->
<g id="edge45" class="edge">
<title>to&#45;&gt;prog</title>
<path fill="none" stroke="#000000" d="M296.77,-961.34C253.5,-976.5 168.6,-1012.22 122.65,-1071.79 76.15,-1132.07 60.84,-1222.29 55.8,-1274.16"/>
<polygon fill="#000000" stroke="#000000" points="52.29,-1274.04 54.89,-1284.31 59.27,-1274.66 52.29,-1274.04"/>
<text text-anchor="middle" x="189.65" y="-1151.19" font-family="Times,serif" font-size="32.00">seeming |</text>
<text text-anchor="middle" x="189.65" y="-1116.19" font-family="Times,serif" font-size="32.00"> appearing</text>
<text text-anchor="middle" x="189.65" y="-1081.19" font-family="Times,serif" font-size="32.00">=to prog</text>
</g>
<!-- to&#45;&gt;perf -->
<g id="edge44" class="edge">
<title>to&#45;&gt;perf</title>
<path fill="none" stroke="#000000" d="M334.23,-923.92C356.33,-855.39 422.38,-683.41 546.65,-613.79 664.73,-547.63 831.88,-570.38 916.54,-588.41"/>
<polygon fill="#000000" stroke="#000000" points="915.93,-591.86 926.45,-590.58 917.43,-585.02 915.93,-591.86"/>
<text text-anchor="middle" x="629.65" y="-693.19" font-family="Times,serif" font-size="32.00">seemn |</text>
<text text-anchor="middle" x="629.65" y="-658.19" font-family="Times,serif" font-size="32.00"> appearn</text>
<text text-anchor="middle" x="629.65" y="-623.19" font-family="Times,serif" font-size="32.00">=to perf</text>
</g>
<!-- c1&#45;&gt;t -->
<g id="edge46" class="edge">
<title>c1&#45;&gt;t</title>
<path fill="none" stroke="#000000" d="M1332.67,-681.12C1385.96,-694.97 1498.52,-722.14 1595.65,-731.79 1663.76,-738.55 1691.43,-767.77 1749.65,-731.79 1764.87,-722.38 1752.43,-705.19 1767.65,-695.79 1825.87,-659.8 1855.33,-678.85 1921.65,-695.79 2086.03,-737.76 2145.02,-751.03 2256.65,-878.79 2275.3,-900.12 2286.43,-930.2 2292.83,-954.24"/>
<polygon fill="#000000" stroke="#000000" points="2289.48,-955.28 2295.29,-964.13 2296.28,-953.58 2289.48,-955.28"/>
<text text-anchor="middle" x="1844.65" y="-845.19" font-family="Times,serif" font-size="32.00">seems_1 |</text>
<text text-anchor="middle" x="1844.65" y="-810.19" font-family="Times,serif" font-size="32.00"> seemd_1 |</text>
<text text-anchor="middle" x="1844.65" y="-775.19" font-family="Times,serif" font-size="32.00"> appears_1 |</text>
<text text-anchor="middle" x="1844.65" y="-740.19" font-family="Times,serif" font-size="32.00"> appeard_1</text>
<text text-anchor="middle" x="1844.65" y="-705.19" font-family="Times,serif" font-size="32.00">=c1 +k t</text>
</g>
<!-- c1&#45;&gt;v -->
<g id="edge47" class="edge">
<title>c1&#45;&gt;v</title>
<path fill="none" stroke="#000000" d="M1269.47,-684.18C1253.89,-691.42 1235.68,-702.2 1223.65,-716.79 1208.09,-735.65 1223.31,-751.86 1205.65,-768.79 1106.18,-864.15 1003.65,-757.97 908.65,-857.79 885.61,-881.99 914.8,-907.69 890.65,-930.79 838.25,-980.91 799.43,-939.8 730.65,-962.79 707.26,-970.6 682.25,-982.61 663.1,-992.66"/>
<polygon fill="#000000" stroke="#000000" points="661.37,-989.61 654.19,-997.4 664.66,-995.79 661.37,-989.61"/>
<text text-anchor="middle" x="971.15" y="-937.19" font-family="Times,serif" font-size="32.00">seem_1 |</text>
<text text-anchor="middle" x="971.15" y="-902.19" font-family="Times,serif" font-size="32.00"> appear_1</text>
<text text-anchor="middle" x="971.15" y="-867.19" font-family="Times,serif" font-size="32.00">=c1 v</text>
</g>
<!-- c1&#45;&gt;prog -->
<g id="edge49" class="edge">
<title>c1&#45;&gt;prog</title>
<path fill="none" stroke="#000000" d="M1270.41,-686.18C1255.47,-693.86 1237.56,-704.44 1223.65,-716.79 1213.68,-725.64 1217.58,-734.82 1205.65,-740.79 1127.34,-779.94 899.21,-740.79 811.65,-740.79 811.65,-740.79 811.65,-740.79 323.65,-740.79 87.44,-740.79 57.28,-1143.55 53.71,-1274.32"/>
<polygon fill="#000000" stroke="#000000" points="50.21,-1274.25 53.48,-1284.33 57.21,-1274.41 50.21,-1274.25"/>
<text text-anchor="middle" x="629.65" y="-820.19" font-family="Times,serif" font-size="32.00">seeming_1 |</text>
<text text-anchor="middle" x="629.65" y="-785.19" font-family="Times,serif" font-size="32.00"> appearing_1</text>
<text text-anchor="middle" x="629.65" y="-750.19" font-family="Times,serif" font-size="32.00">=c1 prog</text>
</g>
<!-- c1&#45;&gt;perf -->
<g id="edge48" class="edge">
<title>c1&#45;&gt;perf</title>
<path fill="none" stroke="#000000" d="M1270.6,-659.34C1252.32,-651.38 1228.03,-641.73 1205.65,-635.79 1197.13,-633.52 1094.47,-618.93 1028.14,-609.61"/>
<polygon fill="#000000" stroke="#000000" points="1028.62,-606.14 1018.23,-608.22 1027.64,-613.07 1028.62,-606.14"/>
<text text-anchor="middle" x="1128.65" y="-715.19" font-family="Times,serif" font-size="32.00">seemn_1 |</text>
<text text-anchor="middle" x="1128.65" y="-680.19" font-family="Times,serif" font-size="32.00"> appearn_1</text>
<text text-anchor="middle" x="1128.65" y="-645.19" font-family="Times,serif" font-size="32.00">=c1 perf</text>
</g>
<!-- z4 -->
<g id="node19" class="node">
<title>z4</title>
<ellipse fill="none" stroke="black" stroke-dasharray="5,2" cx="3137.48" cy="-1852.79" rx="27" ry="18"/>
</g>
<!-- e -->
<g id="node20" class="node">
<title>e</title>
<ellipse fill="none" stroke="black" cx="2984.48" cy="-1852.79" rx="27" ry="30.31"/>
<text text-anchor="middle" x="2984.48" y="-1844.69" font-family="Times,serif" font-size="32.00">e</text>
</g>
<!-- z4&#45;&gt;e -->
<g id="edge52" class="edge">
<title>z4&#45;&gt;e</title>
<path fill="none" stroke="#000000" d="M3110.17,-1852.79C3085.71,-1852.79 3049.03,-1852.79 3021.78,-1852.79"/>
<polygon fill="#000000" stroke="#000000" points="3021.48,-1849.29 3011.48,-1852.79 3021.48,-1856.29 3021.48,-1849.29"/>
<text text-anchor="middle" x="3060.98" y="-1897.19" font-family="Times,serif" font-size="32.00">it</text>
<text text-anchor="middle" x="3060.98" y="-1862.19" font-family="Times,serif" font-size="32.00">e &#45;k</text>
</g>
</g>
</svg>
