<?xml version="1.0" encoding="UTF-8" standalone="no"?>
<!DOCTYPE svg PUBLIC "-//W3C//DTD SVG 1.1//EN"
 "http://www.w3.org/Graphics/SVG/1.1/DTD/svg11.dtd">
<!-- Generated by graphviz version 2.47.1 (20210417.1919)
 -->
<!-- Title: G Pages: 1 -->
<svg width="1896pt" height="1278pt"
 viewBox="0.00 0.00 1895.81 1278.30" xmlns="http://www.w3.org/2000/svg" xmlns:xlink="http://www.w3.org/1999/xlink">
<g id="graph0" class="graph" transform="scale(1 1) rotate(0) translate(4 1274.3)">
<title>G</title>
<polygon fill="white" stroke="transparent" points="-4,4 -4,-1274.3 1891.81,-1274.3 1891.81,4 -4,4"/>
<text text-anchor="middle" x="943.9" y="-13.4" font-family="Times,serif" font-size="32.00">replacement: =&gt;2 0 with =&gt;2 v, =&gt;v 0</text>
<!-- t -->
<g id="node1" class="node">
<title>t</title>
<ellipse fill="lightgray" stroke="black" cx="1524.81" cy="-1013.3" rx="27" ry="30.31"/>
<text text-anchor="middle" x="1524.81" y="-1005.2" font-family="Times,serif" font-size="32.00">t</text>
</g>
<!-- c2 -->
<g id="node13" class="node">
<title>c2</title>
<ellipse fill="none" stroke="black" cx="1302.89" cy="-757.3" rx="33.47" ry="30.31"/>
<text text-anchor="middle" x="1302.89" y="-749.2" font-family="Times,serif" font-size="32.00">c2</text>
</g>
<!-- t&#45;&gt;c2 -->
<g id="edge35" class="edge">
<title>t&#45;&gt;c2</title>
<path fill="none" stroke="#000000" d="M1510.33,-987.36C1502.25,-972.72 1491.33,-954.39 1479.81,-939.3 1434.48,-879.97 1371.82,-819.22 1334.81,-785.08"/>
<polygon fill="#000000" stroke="#000000" points="1337.06,-782.38 1327.32,-778.2 1332.32,-787.54 1337.06,-782.38"/>
<text text-anchor="middle" x="1425.81" y="-983.7" font-family="Times,serif" font-size="32.00">that_1</text>
<text text-anchor="middle" x="1425.81" y="-948.7" font-family="Times,serif" font-size="32.00">=t c2</text>
</g>
<!-- c1 -->
<g id="node20" class="node">
<title>c1</title>
<ellipse fill="none" stroke="black" cx="1302.89" cy="-1013.3" rx="33.47" ry="30.31"/>
<text text-anchor="middle" x="1302.89" y="-1005.2" font-family="Times,serif" font-size="32.00">c1</text>
</g>
<!-- t&#45;&gt;c1 -->
<g id="edge34" class="edge">
<title>t&#45;&gt;c1</title>
<path fill="none" stroke="#000000" d="M1497.72,-1013.3C1460.43,-1013.3 1391.46,-1013.3 1346.65,-1013.3"/>
<polygon fill="#000000" stroke="#000000" points="1346.37,-1009.8 1336.37,-1013.3 1346.37,-1016.8 1346.37,-1009.8"/>
<text text-anchor="middle" x="1425.81" y="-1057.7" font-family="Times,serif" font-size="32.00">that</text>
<text text-anchor="middle" x="1425.81" y="-1022.7" font-family="Times,serif" font-size="32.00">=t =e c1</text>
</g>
<!-- z0 -->
<g id="node2" class="node">
<title>z0</title>
<ellipse fill="none" stroke="black" stroke-dasharray="5,2" cx="1707.81" cy="-449.3" rx="27" ry="18"/>
</g>
<!-- d -->
<g id="node3" class="node">
<title>d</title>
<ellipse fill="none" stroke="black" cx="1524.81" cy="-350.3" rx="27" ry="30.31"/>
<text text-anchor="middle" x="1524.81" y="-342.2" font-family="Times,serif" font-size="32.00">d</text>
</g>
<!-- z0&#45;&gt;d -->
<g id="edge1" class="edge">
<title>z0&#45;&gt;d</title>
<path fill="none" stroke="#000000" d="M1680.9,-451.47C1651.4,-452.6 1602.98,-450.27 1569.81,-427.3 1556.1,-417.82 1546.11,-402.58 1539.16,-388.15"/>
<polygon fill="#000000" stroke="#000000" points="1542.28,-386.57 1535.01,-378.86 1535.89,-389.42 1542.28,-386.57"/>
<text text-anchor="middle" x="1616.31" y="-601.7" font-family="Times,serif" font-size="32.00">Mary |</text>
<text text-anchor="middle" x="1616.31" y="-566.7" font-family="Times,serif" font-size="32.00"> John |</text>
<text text-anchor="middle" x="1616.31" y="-531.7" font-family="Times,serif" font-size="32.00"> Alice |</text>
<text text-anchor="middle" x="1616.31" y="-496.7" font-family="Times,serif" font-size="32.00"> Bob</text>
<text text-anchor="middle" x="1616.31" y="-461.7" font-family="Times,serif" font-size="32.00">d &#45;k</text>
</g>
<!-- 1 -->
<g id="node7" class="node">
<title>1</title>
<ellipse fill="none" stroke="black" cx="1070.98" cy="-293.3" rx="27" ry="30.31"/>
<text text-anchor="middle" x="1070.98" y="-285.2" font-family="Times,serif" font-size="32.00">1</text>
</g>
<!-- d&#45;&gt;1 -->
<g id="edge10" class="edge">
<title>d&#45;&gt;1</title>
<path fill="none" stroke="#000000" d="M1498.8,-342.09C1465.94,-331.7 1406.26,-314.22 1353.81,-306.3 1266.4,-293.12 1162.17,-292.07 1108.28,-292.59"/>
<polygon fill="#000000" stroke="#000000" points="1108.15,-289.09 1098.19,-292.71 1108.23,-296.09 1108.15,-289.09"/>
<text text-anchor="middle" x="1302.89" y="-455.7" font-family="Times,serif" font-size="32.00">praise |</text>
<text text-anchor="middle" x="1302.89" y="-420.7" font-family="Times,serif" font-size="32.00"> like |</text>
<text text-anchor="middle" x="1302.89" y="-385.7" font-family="Times,serif" font-size="32.00"> kiss |</text>
<text text-anchor="middle" x="1302.89" y="-350.7" font-family="Times,serif" font-size="32.00"> hug</text>
<text text-anchor="middle" x="1302.89" y="-315.7" font-family="Times,serif" font-size="32.00">=d *k 1</text>
</g>
<!-- pass -->
<g id="node12" class="node">
<title>pass</title>
<ellipse fill="none" stroke="black" cx="1302.89" cy="-520.3" rx="50.82" ry="30.31"/>
<text text-anchor="middle" x="1302.89" y="-512.2" font-family="Times,serif" font-size="32.00">pass</text>
</g>
<!-- d&#45;&gt;pass -->
<g id="edge11" class="edge">
<title>d&#45;&gt;pass</title>
<path fill="none" stroke="#000000" d="M1501.92,-367.23C1464.82,-395.91 1389.11,-454.43 1342.81,-490.22"/>
<polygon fill="#000000" stroke="#000000" points="1340.57,-487.53 1334.8,-496.42 1344.85,-493.07 1340.57,-487.53"/>
<text text-anchor="middle" x="1425.81" y="-614.7" font-family="Times,serif" font-size="32.00">praisen |</text>
<text text-anchor="middle" x="1425.81" y="-579.7" font-family="Times,serif" font-size="32.00"> liken |</text>
<text text-anchor="middle" x="1425.81" y="-544.7" font-family="Times,serif" font-size="32.00"> kissn |</text>
<text text-anchor="middle" x="1425.81" y="-509.7" font-family="Times,serif" font-size="32.00"> hugn</text>
<text text-anchor="middle" x="1425.81" y="-474.7" font-family="Times,serif" font-size="32.00">=d pass</text>
</g>
<!-- n -->
<g id="node4" class="node">
<title>n</title>
<ellipse fill="none" stroke="black" cx="1707.81" cy="-251.3" rx="27" ry="30.31"/>
<text text-anchor="middle" x="1707.81" y="-243.2" font-family="Times,serif" font-size="32.00">n</text>
</g>
<!-- n&#45;&gt;d -->
<g id="edge2" class="edge">
<title>n&#45;&gt;d</title>
<path fill="none" stroke="#000000" d="M1681.73,-242.85C1652.34,-234.6 1603.4,-226.21 1569.81,-248.3 1548.99,-262 1537.97,-287.85 1532.17,-310.1"/>
<polygon fill="#000000" stroke="#000000" points="1528.72,-309.48 1529.86,-320.02 1535.54,-311.08 1528.72,-309.48"/>
<text text-anchor="middle" x="1616.31" y="-397.7" font-family="Times,serif" font-size="32.00">this |</text>
<text text-anchor="middle" x="1616.31" y="-362.7" font-family="Times,serif" font-size="32.00"> a |</text>
<text text-anchor="middle" x="1616.31" y="-327.7" font-family="Times,serif" font-size="32.00"> the |</text>
<text text-anchor="middle" x="1616.31" y="-292.7" font-family="Times,serif" font-size="32.00"> some</text>
<text text-anchor="middle" x="1616.31" y="-257.7" font-family="Times,serif" font-size="32.00">=n d &#45;k</text>
</g>
<!-- z1 -->
<g id="node5" class="node">
<title>z1</title>
<ellipse fill="none" stroke="black" stroke-dasharray="5,2" cx="1860.81" cy="-251.3" rx="27" ry="18"/>
</g>
<!-- z1&#45;&gt;n -->
<g id="edge3" class="edge">
<title>z1&#45;&gt;n</title>
<path fill="none" stroke="#000000" d="M1833.5,-251.3C1809.04,-251.3 1772.36,-251.3 1745.11,-251.3"/>
<polygon fill="#000000" stroke="#000000" points="1744.81,-247.8 1734.81,-251.3 1744.81,-254.8 1744.81,-247.8"/>
<text text-anchor="middle" x="1784.31" y="-330.7" font-family="Times,serif" font-size="32.00">boy |</text>
<text text-anchor="middle" x="1784.31" y="-295.7" font-family="Times,serif" font-size="32.00"> girl</text>
<text text-anchor="middle" x="1784.31" y="-260.7" font-family="Times,serif" font-size="32.00">n</text>
</g>
<!-- 0 -->
<g id="node6" class="node">
<title>0</title>
<ellipse fill="none" stroke="black" cx="28.99" cy="-773.3" rx="27" ry="30.31"/>
<text text-anchor="middle" x="28.99" y="-765.2" font-family="Times,serif" font-size="32.00">0</text>
</g>
<!-- 0&#45;&gt;t -->
<g id="edge4" class="edge">
<title>0&#45;&gt;t</title>
<path fill="none" stroke="#000000" d="M29.13,-803.74C28.26,-895.84 39.12,-1165.3 195.98,-1165.3 1303.89,-1165.3 1303.89,-1165.3 1303.89,-1165.3 1389.42,-1165.3 1415.84,-1144.07 1479.81,-1087.3 1491.32,-1077.09 1500.69,-1063.11 1507.78,-1050.06"/>
<polygon fill="#000000" stroke="#000000" points="1511.09,-1051.28 1512.54,-1040.78 1504.86,-1048.08 1511.09,-1051.28"/>
<text text-anchor="middle" x="748.98" y="-1244.7" font-family="Times,serif" font-size="32.00">s |</text>
<text text-anchor="middle" x="748.98" y="-1209.7" font-family="Times,serif" font-size="32.00"> d</text>
<text text-anchor="middle" x="748.98" y="-1174.7" font-family="Times,serif" font-size="32.00">=&gt;0 +k t</text>
</g>
<!-- 1&#45;&gt;0 -->
<g id="edge5" class="edge">
<title>1&#45;&gt;0</title>
<path fill="none" stroke="#000000" d="M1054.17,-269.5C1046.73,-260.17 1037.05,-250.28 1025.98,-244.3 916.8,-185.36 874.06,-202.3 749.98,-202.3 749.98,-202.3 749.98,-202.3 195.98,-202.3 85.4,-202.3 43.66,-602.16 32.98,-732.66"/>
<polygon fill="#000000" stroke="#000000" points="29.46,-732.76 32.15,-743.01 36.43,-733.32 29.46,-732.76"/>
<text text-anchor="middle" x="426.48" y="-246.7" font-family="Times,serif" font-size="32.00">ε_0</text>
<text text-anchor="middle" x="426.48" y="-211.7" font-family="Times,serif" font-size="32.00">=&gt;1 =d 0</text>
</g>
<!-- v -->
<g id="node9" class="node">
<title>v</title>
<ellipse fill="none" stroke="black" cx="196.98" cy="-595.3" rx="27" ry="30.31"/>
<text text-anchor="middle" x="196.98" y="-587.2" font-family="Times,serif" font-size="32.00">v</text>
</g>
<!-- 1&#45;&gt;v -->
<g id="edge7" class="edge">
<title>1&#45;&gt;v</title>
<path fill="none" stroke="#000000" d="M1044.77,-285.84C964.13,-263.31 706.38,-201.57 510.98,-270.3 366.34,-321.19 333.42,-363.23 241.98,-486.3 226.47,-507.19 215.5,-534.3 208.39,-556.26"/>
<polygon fill="#000000" stroke="#000000" points="205,-555.36 205.39,-565.95 211.69,-557.43 205,-555.36"/>
<text text-anchor="middle" x="578.98" y="-314.7" font-family="Times,serif" font-size="32.00">ε_1</text>
<text text-anchor="middle" x="578.98" y="-279.7" font-family="Times,serif" font-size="32.00">=&gt;1 =d v</text>
</g>
<!-- prog -->
<g id="node10" class="node">
<title>prog</title>
<ellipse fill="none" stroke="black" cx="748.98" cy="-792.3" rx="52.15" ry="30.31"/>
<text text-anchor="middle" x="748.98" y="-784.2" font-family="Times,serif" font-size="32.00">prog</text>
</g>
<!-- 1&#45;&gt;prog -->
<g id="edge8" class="edge">
<title>1&#45;&gt;prog</title>
<path fill="none" stroke="#000000" d="M1049.04,-311.12C1041.78,-317.24 1033.56,-324.11 1025.98,-330.3 949.08,-393.16 897.03,-381.29 850.98,-469.3 822.18,-524.36 866.71,-696.13 832.98,-748.3 826.07,-759 815.64,-767.27 804.5,-773.59"/>
<polygon fill="#000000" stroke="#000000" points="802.74,-770.56 795.45,-778.26 805.95,-776.78 802.74,-770.56"/>
<text text-anchor="middle" x="938.48" y="-513.7" font-family="Times,serif" font-size="32.00">ing</text>
<text text-anchor="middle" x="938.48" y="-478.7" font-family="Times,serif" font-size="32.00">=&gt;1 =d prog</text>
</g>
<!-- perf -->
<g id="node11" class="node">
<title>perf</title>
<ellipse fill="none" stroke="black" cx="426.48" cy="-574.3" rx="48.17" ry="30.31"/>
<text text-anchor="middle" x="426.48" y="-566.2" font-family="Times,serif" font-size="32.00">perf</text>
</g>
<!-- 1&#45;&gt;perf -->
<g id="edge9" class="edge">
<title>1&#45;&gt;perf</title>
<path fill="none" stroke="#000000" d="M1043.68,-294.78C944.76,-300.78 596.37,-326.31 510.98,-392.3 465.88,-427.16 444.3,-492.04 434.61,-534.18"/>
<polygon fill="#000000" stroke="#000000" points="431.16,-533.59 432.45,-544.1 438,-535.08 431.16,-533.59"/>
<text text-anchor="middle" x="748.98" y="-383.7" font-family="Times,serif" font-size="32.00">n</text>
<text text-anchor="middle" x="748.98" y="-348.7" font-family="Times,serif" font-size="32.00">=&gt;1 =d perf</text>
</g>
<!-- z2 -->
<g id="node8" class="node">
<title>z2</title>
<ellipse fill="none" stroke="black" stroke-dasharray="5,2" cx="1302.89" cy="-103.3" rx="27" ry="18"/>
</g>
<!-- z2&#45;&gt;1 -->
<g id="edge6" class="edge">
<title>z2&#45;&gt;1</title>
<path fill="none" stroke="#000000" d="M1278.63,-95.18C1240.2,-83.38 1163.03,-66.75 1115.98,-104.3 1093.12,-122.55 1081.03,-203.01 1075.62,-252.88"/>
<polygon fill="#000000" stroke="#000000" points="1072.11,-252.72 1074.56,-263.02 1079.08,-253.44 1072.11,-252.72"/>
<text text-anchor="middle" x="1174.98" y="-253.7" font-family="Times,serif" font-size="32.00">dance |</text>
<text text-anchor="middle" x="1174.98" y="-218.7" font-family="Times,serif" font-size="32.00"> laugh |</text>
<text text-anchor="middle" x="1174.98" y="-183.7" font-family="Times,serif" font-size="32.00"> smile |</text>
<text text-anchor="middle" x="1174.98" y="-148.7" font-family="Times,serif" font-size="32.00"> jump</text>
<text text-anchor="middle" x="1174.98" y="-113.7" font-family="Times,serif" font-size="32.00">1</text>
</g>
<!-- v&#45;&gt;0 -->
<g id="edge13" class="edge">
<title>v&#45;&gt;0</title>
<path fill="none" stroke="#000000" d="M184.85,-622.68C177.53,-637.53 166.59,-655.09 151.98,-666.3 123.99,-687.8 103.38,-667.06 75.98,-689.3 61.2,-701.31 50.44,-719.38 43.06,-735.69"/>
<polygon fill="#000000" stroke="#000000" points="39.78,-734.46 39.1,-745.03 46.23,-737.19 39.78,-734.46"/>
<text text-anchor="middle" x="113.98" y="-733.7" font-family="Times,serif" font-size="32.00">will</text>
<text text-anchor="middle" x="113.98" y="-698.7" font-family="Times,serif" font-size="32.00">=v 0</text>
</g>
<!-- v&#45;&gt;0 -->
<g id="edge30" class="edge">
<title>v&#45;&gt;0</title>
<path fill="none" stroke="#000000" d="M171.08,-586.29C144.62,-578.46 102.96,-571.32 75.98,-592.3 53.99,-609.41 40.79,-685.15 34.5,-733.07"/>
<polygon fill="#000000" stroke="#000000" points="31.01,-732.77 33.22,-743.13 37.95,-733.65 31.01,-732.77"/>
<text text-anchor="middle" x="113.98" y="-636.7" font-family="Times,serif" font-size="32.00">ε_7</text>
<text text-anchor="middle" x="113.98" y="-601.7" font-family="Times,serif" font-size="32.00">=&gt;v 0</text>
</g>
<!-- to -->
<g id="node19" class="node">
<title>to</title>
<ellipse fill="none" stroke="black" cx="28.99" cy="-117.3" rx="28.98" ry="30.31"/>
<text text-anchor="middle" x="28.99" y="-109.2" font-family="Times,serif" font-size="32.00">to</text>
</g>
<!-- v&#45;&gt;to -->
<g id="edge33" class="edge">
<title>v&#45;&gt;to</title>
<path fill="none" stroke="#000000" d="M186.22,-567.19C157.86,-485.51 75.44,-248.19 43.17,-155.26"/>
<polygon fill="#000000" stroke="#000000" points="46.43,-153.99 39.85,-145.69 39.82,-156.28 46.43,-153.99"/>
<text text-anchor="middle" x="113.98" y="-510.7" font-family="Times,serif" font-size="32.00">to</text>
<text text-anchor="middle" x="113.98" y="-475.7" font-family="Times,serif" font-size="32.00">=v to</text>
</g>
<!-- prog&#45;&gt;0 -->
<g id="edge14" class="edge">
<title>prog&#45;&gt;0</title>
<path fill="none" stroke="#000000" d="M696.63,-790.95C559.07,-787.31 184.63,-777.4 66.33,-774.27"/>
<polygon fill="#000000" stroke="#000000" points="66.1,-770.76 56.01,-773.99 65.92,-777.76 66.1,-770.76"/>
<text text-anchor="middle" x="291.98" y="-825.7" font-family="Times,serif" font-size="32.00">be</text>
<text text-anchor="middle" x="291.98" y="-790.7" font-family="Times,serif" font-size="32.00">=prog 0</text>
</g>
<!-- prog&#45;&gt;v -->
<g id="edge15" class="edge">
<title>prog&#45;&gt;v</title>
<path fill="none" stroke="#000000" d="M699.87,-781.56C635.09,-766.78 526.14,-740.71 510.98,-729.3 498.56,-719.96 505.95,-707.88 492.98,-699.3 399.04,-637.16 336.76,-725.17 241.98,-664.3 229.88,-656.54 220.47,-644.13 213.52,-631.96"/>
<polygon fill="#000000" stroke="#000000" points="216.44,-629.99 208.67,-622.78 210.25,-633.26 216.44,-629.99"/>
<text text-anchor="middle" x="426.48" y="-743.7" font-family="Times,serif" font-size="32.00">be_1</text>
<text text-anchor="middle" x="426.48" y="-708.7" font-family="Times,serif" font-size="32.00">=prog v</text>
</g>
<!-- prog&#45;&gt;perf -->
<g id="edge16" class="edge">
<title>prog&#45;&gt;perf</title>
<path fill="none" stroke="#000000" d="M703.09,-777.35C688.95,-770.56 674.55,-761.11 664.98,-748.3 640.84,-715.97 675.97,-687.38 646.98,-659.3 602.95,-616.66 567.37,-660.35 510.98,-636.3 493.63,-628.9 476.53,-617.21 462.37,-605.97"/>
<polygon fill="#000000" stroke="#000000" points="464.35,-603.07 454.39,-599.44 459.91,-608.48 464.35,-603.07"/>
<text text-anchor="middle" x="578.98" y="-703.7" font-family="Times,serif" font-size="32.00">ben</text>
<text text-anchor="middle" x="578.98" y="-668.7" font-family="Times,serif" font-size="32.00">=prog perf</text>
</g>
<!-- perf&#45;&gt;v -->
<g id="edge31" class="edge">
<title>perf&#45;&gt;v</title>
<path fill="none" stroke="#000000" d="M378.62,-578.63C335.73,-582.59 273.15,-588.37 234.04,-591.98"/>
<polygon fill="#000000" stroke="#000000" points="233.55,-588.51 223.91,-592.91 234.19,-595.48 233.55,-588.51"/>
<text text-anchor="middle" x="291.98" y="-634.7" font-family="Times,serif" font-size="32.00">have</text>
<text text-anchor="middle" x="291.98" y="-599.7" font-family="Times,serif" font-size="32.00">=perf v</text>
</g>
<!-- 2 -->
<g id="node14" class="node">
<title>2</title>
<ellipse fill="none" stroke="black" cx="1070.98" cy="-493.3" rx="27" ry="30.31"/>
<text text-anchor="middle" x="1070.98" y="-485.2" font-family="Times,serif" font-size="32.00">2</text>
</g>
<!-- pass&#45;&gt;2 -->
<g id="edge17" class="edge">
<title>pass&#45;&gt;2</title>
<path fill="none" stroke="#000000" d="M1252.01,-516.91C1214.47,-514 1161.84,-509.19 1115.98,-502.3 1113.33,-501.91 1110.59,-501.45 1107.84,-500.96"/>
<polygon fill="#000000" stroke="#000000" points="1108.44,-497.51 1097.96,-499.09 1107.13,-504.39 1108.44,-497.51"/>
<text text-anchor="middle" x="1174.98" y="-558.7" font-family="Times,serif" font-size="32.00">be_2</text>
<text text-anchor="middle" x="1174.98" y="-523.7" font-family="Times,serif" font-size="32.00">=pass 2</text>
</g>
<!-- c2&#45;&gt;1 -->
<g id="edge12" class="edge">
<title>c2&#45;&gt;1</title>
<path fill="none" stroke="#000000" d="M1292.87,-728.11C1281.4,-689.78 1261.9,-620.19 1251.98,-559.3 1247.75,-533.35 1251.79,-342.66 1233.98,-323.3 1216,-303.76 1142,-309.64 1115.98,-304.3 1113.16,-303.73 1110.25,-303.09 1107.33,-302.42"/>
<polygon fill="#000000" stroke="#000000" points="1108.03,-298.99 1097.49,-300.07 1106.41,-305.8 1108.03,-298.99"/>
<text text-anchor="middle" x="1174.98" y="-472.7" font-family="Times,serif" font-size="32.00">declare |</text>
<text text-anchor="middle" x="1174.98" y="-437.7" font-family="Times,serif" font-size="32.00"> think |</text>
<text text-anchor="middle" x="1174.98" y="-402.7" font-family="Times,serif" font-size="32.00"> explain |</text>
<text text-anchor="middle" x="1174.98" y="-367.7" font-family="Times,serif" font-size="32.00"> say</text>
<text text-anchor="middle" x="1174.98" y="-332.7" font-family="Times,serif" font-size="32.00">=c2 1</text>
</g>
<!-- 2&#45;&gt;v -->
<g id="edge18" class="edge">
<title>2&#45;&gt;v</title>
<path fill="none" stroke="#000000" d="M1056.27,-467.4C1048.88,-456.14 1038.66,-444.01 1025.98,-437.3 975.34,-410.51 566.27,-396.26 510.98,-411.3 395.52,-442.73 279.17,-528.74 226.75,-571.09"/>
<polygon fill="#000000" stroke="#000000" points="224.44,-568.46 218.9,-577.5 228.86,-573.89 224.44,-568.46"/>
<text text-anchor="middle" x="578.98" y="-455.7" font-family="Times,serif" font-size="32.00">ε_2</text>
<text text-anchor="middle" x="578.98" y="-420.7" font-family="Times,serif" font-size="32.00">=&gt;2 v</text>
</g>
<!-- 2&#45;&gt;prog -->
<g id="edge20" class="edge">
<title>2&#45;&gt;prog</title>
<path fill="none" stroke="#000000" d="M1053.22,-516.52C1045.68,-525.75 1036.19,-535.91 1025.98,-543.3 957.46,-592.95 902.31,-551.03 850.98,-618.3 815.6,-664.68 866.42,-700.51 832.98,-748.3 825.75,-758.64 815.32,-766.74 804.27,-773.02"/>
<polygon fill="#000000" stroke="#000000" points="802.59,-769.96 795.34,-777.68 805.82,-776.16 802.59,-769.96"/>
<text text-anchor="middle" x="938.48" y="-662.7" font-family="Times,serif" font-size="32.00">ing_1</text>
<text text-anchor="middle" x="938.48" y="-627.7" font-family="Times,serif" font-size="32.00">=&gt;2 prog</text>
</g>
<!-- 2&#45;&gt;perf -->
<g id="edge19" class="edge">
<title>2&#45;&gt;perf</title>
<path fill="none" stroke="#000000" d="M1052.03,-471.42C1044.78,-464.22 1035.8,-457.1 1025.98,-453.3 951.01,-424.32 741.93,-453.06 664.98,-476.3 656.42,-478.89 655.13,-481.62 646.98,-485.3 589.73,-511.18 522.63,-537.87 477.83,-555.19"/>
<polygon fill="#000000" stroke="#000000" points="476.41,-551.98 468.34,-558.84 478.93,-558.51 476.41,-551.98"/>
<text text-anchor="middle" x="748.98" y="-520.7" font-family="Times,serif" font-size="32.00">n_1</text>
<text text-anchor="middle" x="748.98" y="-485.7" font-family="Times,serif" font-size="32.00">=&gt;2 perf</text>
</g>
<!-- 3 -->
<g id="node15" class="node">
<title>3</title>
<ellipse fill="none" stroke="black" cx="1070.98" cy="-843.3" rx="27" ry="30.31"/>
<text text-anchor="middle" x="1070.98" y="-835.2" font-family="Times,serif" font-size="32.00">3</text>
</g>
<!-- 3&#45;&gt;0 -->
<g id="edge21" class="edge">
<title>3&#45;&gt;0</title>
<path fill="none" stroke="#000000" d="M1066.12,-873.48C1059.9,-917.26 1046.26,-995.25 1025.98,-1014.3 934.96,-1099.84 874.89,-1067.3 749.98,-1067.3 749.98,-1067.3 749.98,-1067.3 195.98,-1067.3 128.78,-1067.3 112.26,-1031.87 75.98,-975.3 44.23,-925.8 34.28,-857.12 31.23,-813.96"/>
<polygon fill="#000000" stroke="#000000" points="34.71,-813.6 30.61,-803.83 27.73,-814.03 34.71,-813.6"/>
<text text-anchor="middle" x="426.48" y="-1111.7" font-family="Times,serif" font-size="32.00">ε_3</text>
<text text-anchor="middle" x="426.48" y="-1076.7" font-family="Times,serif" font-size="32.00">=&gt;3 =to 0</text>
</g>
<!-- 3&#45;&gt;0 -->
<g id="edge26" class="edge">
<title>3&#45;&gt;0</title>
<path fill="none" stroke="#000000" d="M1061.07,-871.91C1054.24,-889 1043.03,-909.6 1025.98,-921.3 836.21,-1051.68 738.82,-1010.47 510.98,-977.3 387.55,-959.34 356.42,-946.93 241.98,-897.3 174.16,-867.89 100.96,-821.44 60.78,-794.52"/>
<polygon fill="#000000" stroke="#000000" points="62.5,-791.46 52.25,-788.77 58.58,-797.26 62.5,-791.46"/>
<text text-anchor="middle" x="426.48" y="-1018.7" font-family="Times,serif" font-size="32.00">ε_5</text>
<text text-anchor="middle" x="426.48" y="-983.7" font-family="Times,serif" font-size="32.00">=&gt;3 =c1 0</text>
</g>
<!-- 3&#45;&gt;v -->
<g id="edge23" class="edge">
<title>3&#45;&gt;v</title>
<path fill="none" stroke="#000000" d="M1056.95,-869.47C1049.61,-881.18 1039.22,-893.8 1025.98,-900.3 956.18,-934.6 928.76,-901.11 850.98,-900.3 783.25,-899.61 291.75,-918.26 241.98,-872.3 208.21,-841.12 200.32,-705.26 198.51,-636.09"/>
<polygon fill="#000000" stroke="#000000" points="202,-635.9 198.27,-625.99 195,-636.07 202,-635.9"/>
<text text-anchor="middle" x="578.98" y="-947.7" font-family="Times,serif" font-size="32.00">ε_4</text>
<text text-anchor="middle" x="578.98" y="-912.7" font-family="Times,serif" font-size="32.00">=&gt;3 =to v</text>
</g>
<!-- 3&#45;&gt;v -->
<g id="edge27" class="edge">
<title>3&#45;&gt;v</title>
<path fill="none" stroke="#000000" d="M1048.87,-860.78C1042,-865.46 1034.04,-869.89 1025.98,-872.3 951.48,-894.65 928.32,-880.55 850.98,-872.3 827.93,-869.85 670.04,-830.76 646.98,-828.3 512.01,-813.91 477.57,-837.9 341.98,-844.3 297.59,-846.4 276.03,-872.87 241.98,-844.3 210.84,-818.18 201.73,-699.55 199.07,-635.92"/>
<polygon fill="#000000" stroke="#000000" points="202.57,-635.69 198.68,-625.83 195.57,-635.96 202.57,-635.69"/>
<text text-anchor="middle" x="578.98" y="-872.7" font-family="Times,serif" font-size="32.00">ε_6</text>
<text text-anchor="middle" x="578.98" y="-837.7" font-family="Times,serif" font-size="32.00">=&gt;3 =c1 v</text>
</g>
<!-- 3&#45;&gt;prog -->
<g id="edge25" class="edge">
<title>3&#45;&gt;prog</title>
<path fill="none" stroke="#000000" d="M1069.6,-812.66C1067.36,-780.93 1058.41,-732.79 1025.98,-709.3 994.49,-686.5 883.74,-688.35 850.98,-709.3 834.9,-719.59 846.11,-734.44 832.98,-748.3 824.31,-757.46 813.31,-765.11 802.17,-771.31"/>
<polygon fill="#000000" stroke="#000000" points="800.49,-768.24 793.25,-775.98 803.73,-774.44 800.49,-768.24"/>
<text text-anchor="middle" x="938.48" y="-753.7" font-family="Times,serif" font-size="32.00">ing_2</text>
<text text-anchor="middle" x="938.48" y="-718.7" font-family="Times,serif" font-size="32.00">=&gt;3 =to prog</text>
</g>
<!-- 3&#45;&gt;prog -->
<g id="edge29" class="edge">
<title>3&#45;&gt;prog</title>
<path fill="none" stroke="#000000" d="M1052.05,-821.07C1044.8,-813.72 1035.82,-806.38 1025.98,-802.3 988.7,-786.84 881.09,-787.39 811.77,-789.58"/>
<polygon fill="#000000" stroke="#000000" points="811.29,-786.1 801.41,-789.93 811.53,-793.09 811.29,-786.1"/>
<text text-anchor="middle" x="938.48" y="-846.7" font-family="Times,serif" font-size="32.00">ing_3</text>
<text text-anchor="middle" x="938.48" y="-811.7" font-family="Times,serif" font-size="32.00">=&gt;3 =c1 prog</text>
</g>
<!-- 3&#45;&gt;perf -->
<g id="edge24" class="edge">
<title>3&#45;&gt;perf</title>
<path fill="none" stroke="#000000" d="M1070.53,-812.66C1069.36,-777.26 1061.59,-719.97 1025.98,-689.3 1010.66,-676.11 684.79,-646.41 664.98,-642.3 600.09,-628.87 527.01,-606.88 479.27,-591.56"/>
<polygon fill="#000000" stroke="#000000" points="480.07,-588.14 469.48,-588.4 477.92,-594.8 480.07,-588.14"/>
<text text-anchor="middle" x="748.98" y="-704.7" font-family="Times,serif" font-size="32.00">n_2</text>
<text text-anchor="middle" x="748.98" y="-669.7" font-family="Times,serif" font-size="32.00">=&gt;3 =to perf</text>
</g>
<!-- 3&#45;&gt;perf -->
<g id="edge28" class="edge">
<title>3&#45;&gt;perf</title>
<path fill="none" stroke="#000000" d="M1066.59,-813.15C1060.82,-767.54 1047.58,-684.19 1025.98,-664.3 968.04,-610.95 909.4,-689.14 850.98,-636.3 827.8,-615.33 857.76,-587.37 832.98,-568.3 806.09,-547.6 589.64,-561.49 484.46,-569.61"/>
<polygon fill="#000000" stroke="#000000" points="484.03,-566.13 474.33,-570.4 484.57,-573.11 484.03,-566.13"/>
<text text-anchor="middle" x="748.98" y="-612.7" font-family="Times,serif" font-size="32.00">n_3</text>
<text text-anchor="middle" x="748.98" y="-577.7" font-family="Times,serif" font-size="32.00">=&gt;3 =c1 perf</text>
</g>
<!-- z3 -->
<g id="node16" class="node">
<title>z3</title>
<ellipse fill="none" stroke="black" stroke-dasharray="5,2" cx="1302.89" cy="-843.3" rx="27" ry="18"/>
</g>
<!-- z3&#45;&gt;3 -->
<g id="edge22" class="edge">
<title>z3&#45;&gt;3</title>
<path fill="none" stroke="#000000" d="M1275.52,-843.3C1234.38,-843.3 1154.82,-843.3 1108.29,-843.3"/>
<polygon fill="#000000" stroke="#000000" points="1108.05,-839.8 1098.05,-843.3 1108.05,-846.8 1108.05,-839.8"/>
<text text-anchor="middle" x="1174.98" y="-922.7" font-family="Times,serif" font-size="32.00">seem |</text>
<text text-anchor="middle" x="1174.98" y="-887.7" font-family="Times,serif" font-size="32.00"> appear</text>
<text text-anchor="middle" x="1174.98" y="-852.7" font-family="Times,serif" font-size="32.00">3</text>
</g>
<!-- z4 -->
<g id="node17" class="node">
<title>z4</title>
<ellipse fill="none" stroke="black" stroke-dasharray="5,2" cx="1860.81" cy="-515.3" rx="27" ry="18"/>
</g>
<!-- e -->
<g id="node18" class="node">
<title>e</title>
<ellipse fill="none" stroke="black" cx="1707.81" cy="-515.3" rx="27" ry="30.31"/>
<text text-anchor="middle" x="1707.81" y="-507.2" font-family="Times,serif" font-size="32.00">e</text>
</g>
<!-- z4&#45;&gt;e -->
<g id="edge32" class="edge">
<title>z4&#45;&gt;e</title>
<path fill="none" stroke="#000000" d="M1833.5,-515.3C1809.04,-515.3 1772.36,-515.3 1745.11,-515.3"/>
<polygon fill="#000000" stroke="#000000" points="1744.81,-511.8 1734.81,-515.3 1744.81,-518.8 1744.81,-511.8"/>
<text text-anchor="middle" x="1784.31" y="-559.7" font-family="Times,serif" font-size="32.00">it</text>
<text text-anchor="middle" x="1784.31" y="-524.7" font-family="Times,serif" font-size="32.00">e &#45;k</text>
</g>
</g>
</svg>
