<?xml version="1.0" encoding="UTF-8" standalone="no"?>
<!DOCTYPE svg PUBLIC "-//W3C//DTD SVG 1.1//EN"
 "http://www.w3.org/Graphics/SVG/1.1/DTD/svg11.dtd">
<!-- Generated by graphviz version 2.47.1 (20210417.1919)
 -->
<!-- Title: G Pages: 1 -->
<svg width="2044pt" height="1247pt"
 viewBox="0.00 0.00 2043.81 1247.30" xmlns="http://www.w3.org/2000/svg" xmlns:xlink="http://www.w3.org/1999/xlink">
<g id="graph0" class="graph" transform="scale(1 1) rotate(0) translate(4 1243.3)">
<title>G</title>
<polygon fill="white" stroke="transparent" points="-4,4 -4,-1243.3 2039.81,-1243.3 2039.81,4 -4,4"/>
<text text-anchor="middle" x="1017.9" y="-13.4" font-family="Times,serif" font-size="32.00">decomposition: ing =&gt;1 =d prog, ing =&gt;2 prog, ing =&gt;3 =to prog, ing =&gt;3 =c1 prog</text>
<!-- t -->
<g id="node1" class="node">
<title>t</title>
<ellipse fill="lightgray" stroke="black" cx="1672.81" cy="-970.3" rx="27" ry="30.31"/>
<text text-anchor="middle" x="1672.81" y="-962.2" font-family="Times,serif" font-size="32.00">t</text>
</g>
<!-- c2 -->
<g id="node14" class="node">
<title>c2</title>
<ellipse fill="none" stroke="black" cx="1450.89" cy="-698.3" rx="33.47" ry="30.31"/>
<text text-anchor="middle" x="1450.89" y="-690.2" font-family="Times,serif" font-size="32.00">c2</text>
</g>
<!-- t&#45;&gt;c2 -->
<g id="edge36" class="edge">
<title>t&#45;&gt;c2</title>
<path fill="none" stroke="#000000" d="M1658.08,-944.54C1649.93,-929.96 1639.01,-911.63 1627.81,-896.3 1581.18,-832.55 1517.92,-765.2 1481.34,-727.79"/>
<polygon fill="#000000" stroke="#000000" points="1483.47,-724.96 1473.96,-720.27 1478.47,-729.86 1483.47,-724.96"/>
<text text-anchor="middle" x="1573.81" y="-940.7" font-family="Times,serif" font-size="32.00">that_1</text>
<text text-anchor="middle" x="1573.81" y="-905.7" font-family="Times,serif" font-size="32.00">=t c2</text>
</g>
<!-- c1 -->
<g id="node21" class="node">
<title>c1</title>
<ellipse fill="none" stroke="black" cx="1450.89" cy="-970.3" rx="33.47" ry="30.31"/>
<text text-anchor="middle" x="1450.89" y="-962.2" font-family="Times,serif" font-size="32.00">c1</text>
</g>
<!-- t&#45;&gt;c1 -->
<g id="edge35" class="edge">
<title>t&#45;&gt;c1</title>
<path fill="none" stroke="#000000" d="M1645.72,-970.3C1608.43,-970.3 1539.46,-970.3 1494.65,-970.3"/>
<polygon fill="#000000" stroke="#000000" points="1494.37,-966.8 1484.37,-970.3 1494.37,-973.8 1494.37,-966.8"/>
<text text-anchor="middle" x="1573.81" y="-1014.7" font-family="Times,serif" font-size="32.00">that</text>
<text text-anchor="middle" x="1573.81" y="-979.7" font-family="Times,serif" font-size="32.00">=t =e c1</text>
</g>
<!-- z0 -->
<g id="node2" class="node">
<title>z0</title>
<ellipse fill="none" stroke="black" stroke-dasharray="5,2" cx="1855.81" cy="-480.3" rx="27" ry="18"/>
</g>
<!-- d -->
<g id="node3" class="node">
<title>d</title>
<ellipse fill="none" stroke="black" cx="1672.81" cy="-381.3" rx="27" ry="30.31"/>
<text text-anchor="middle" x="1672.81" y="-373.2" font-family="Times,serif" font-size="32.00">d</text>
</g>
<!-- z0&#45;&gt;d -->
<g id="edge1" class="edge">
<title>z0&#45;&gt;d</title>
<path fill="none" stroke="#000000" d="M1828.9,-482.47C1799.4,-483.6 1750.98,-481.27 1717.81,-458.3 1704.1,-448.82 1694.11,-433.58 1687.16,-419.15"/>
<polygon fill="#000000" stroke="#000000" points="1690.28,-417.57 1683.01,-409.86 1683.89,-420.42 1690.28,-417.57"/>
<text text-anchor="middle" x="1764.31" y="-631.7" font-family="Times,serif" font-size="32.00">Mary |</text>
<text text-anchor="middle" x="1764.31" y="-596.7" font-family="Times,serif" font-size="32.00"> John |</text>
<text text-anchor="middle" x="1764.31" y="-561.7" font-family="Times,serif" font-size="32.00"> Alice |</text>
<text text-anchor="middle" x="1764.31" y="-526.7" font-family="Times,serif" font-size="32.00"> Bob</text>
<text text-anchor="middle" x="1764.31" y="-491.7" font-family="Times,serif" font-size="32.00">d &#45;k</text>
</g>
<!-- 1 -->
<g id="node7" class="node">
<title>1</title>
<ellipse fill="none" stroke="black" cx="1218.98" cy="-293.3" rx="27" ry="30.31"/>
<text text-anchor="middle" x="1218.98" y="-285.2" font-family="Times,serif" font-size="32.00">1</text>
</g>
<!-- d&#45;&gt;1 -->
<g id="edge11" class="edge">
<title>d&#45;&gt;1</title>
<path fill="none" stroke="#000000" d="M1648.57,-367.71C1616.7,-349.87 1557.08,-319.29 1501.81,-306.3 1415.53,-286.03 1310.43,-287.92 1256.21,-290.77"/>
<polygon fill="#000000" stroke="#000000" points="1255.85,-287.29 1246.07,-291.35 1256.25,-294.28 1255.85,-287.29"/>
<text text-anchor="middle" x="1450.89" y="-455.7" font-family="Times,serif" font-size="32.00">praise |</text>
<text text-anchor="middle" x="1450.89" y="-420.7" font-family="Times,serif" font-size="32.00"> like |</text>
<text text-anchor="middle" x="1450.89" y="-385.7" font-family="Times,serif" font-size="32.00"> kiss |</text>
<text text-anchor="middle" x="1450.89" y="-350.7" font-family="Times,serif" font-size="32.00"> hug</text>
<text text-anchor="middle" x="1450.89" y="-315.7" font-family="Times,serif" font-size="32.00">=d *k 1</text>
</g>
<!-- pass -->
<g id="node13" class="node">
<title>pass</title>
<ellipse fill="none" stroke="black" cx="1450.89" cy="-520.3" rx="50.82" ry="30.31"/>
<text text-anchor="middle" x="1450.89" y="-512.2" font-family="Times,serif" font-size="32.00">pass</text>
</g>
<!-- d&#45;&gt;pass -->
<g id="edge12" class="edge">
<title>d&#45;&gt;pass</title>
<path fill="none" stroke="#000000" d="M1648.69,-395.92C1612.32,-418.9 1541.17,-463.87 1495.13,-492.98"/>
<polygon fill="#000000" stroke="#000000" points="1493.13,-490.1 1486.55,-498.4 1496.87,-496.01 1493.13,-490.1"/>
<text text-anchor="middle" x="1573.81" y="-624.7" font-family="Times,serif" font-size="32.00">praisen |</text>
<text text-anchor="middle" x="1573.81" y="-589.7" font-family="Times,serif" font-size="32.00"> liken |</text>
<text text-anchor="middle" x="1573.81" y="-554.7" font-family="Times,serif" font-size="32.00"> kissn |</text>
<text text-anchor="middle" x="1573.81" y="-519.7" font-family="Times,serif" font-size="32.00"> hugn</text>
<text text-anchor="middle" x="1573.81" y="-484.7" font-family="Times,serif" font-size="32.00">=d pass</text>
</g>
<!-- n -->
<g id="node4" class="node">
<title>n</title>
<ellipse fill="none" stroke="black" cx="1855.81" cy="-282.3" rx="27" ry="30.31"/>
<text text-anchor="middle" x="1855.81" y="-274.2" font-family="Times,serif" font-size="32.00">n</text>
</g>
<!-- n&#45;&gt;d -->
<g id="edge2" class="edge">
<title>n&#45;&gt;d</title>
<path fill="none" stroke="#000000" d="M1829.73,-273.85C1800.34,-265.6 1751.4,-257.21 1717.81,-279.3 1696.99,-293 1685.97,-318.85 1680.17,-341.1"/>
<polygon fill="#000000" stroke="#000000" points="1676.72,-340.48 1677.86,-351.02 1683.54,-342.08 1676.72,-340.48"/>
<text text-anchor="middle" x="1764.31" y="-428.7" font-family="Times,serif" font-size="32.00">this |</text>
<text text-anchor="middle" x="1764.31" y="-393.7" font-family="Times,serif" font-size="32.00"> a |</text>
<text text-anchor="middle" x="1764.31" y="-358.7" font-family="Times,serif" font-size="32.00"> the |</text>
<text text-anchor="middle" x="1764.31" y="-323.7" font-family="Times,serif" font-size="32.00"> some</text>
<text text-anchor="middle" x="1764.31" y="-288.7" font-family="Times,serif" font-size="32.00">=n d &#45;k</text>
</g>
<!-- z1 -->
<g id="node5" class="node">
<title>z1</title>
<ellipse fill="none" stroke="black" stroke-dasharray="5,2" cx="2008.81" cy="-282.3" rx="27" ry="18"/>
</g>
<!-- z1&#45;&gt;n -->
<g id="edge3" class="edge">
<title>z1&#45;&gt;n</title>
<path fill="none" stroke="#000000" d="M1981.5,-282.3C1957.04,-282.3 1920.36,-282.3 1893.11,-282.3"/>
<polygon fill="#000000" stroke="#000000" points="1892.81,-278.8 1882.81,-282.3 1892.81,-285.8 1892.81,-278.8"/>
<text text-anchor="middle" x="1932.31" y="-361.7" font-family="Times,serif" font-size="32.00">boy |</text>
<text text-anchor="middle" x="1932.31" y="-326.7" font-family="Times,serif" font-size="32.00"> girl</text>
<text text-anchor="middle" x="1932.31" y="-291.7" font-family="Times,serif" font-size="32.00">n</text>
</g>
<!-- 0 -->
<g id="node6" class="node">
<title>0</title>
<ellipse fill="none" stroke="black" cx="28.99" cy="-736.3" rx="27" ry="30.31"/>
<text text-anchor="middle" x="28.99" y="-728.2" font-family="Times,serif" font-size="32.00">0</text>
</g>
<!-- 0&#45;&gt;t -->
<g id="edge4" class="edge">
<title>0&#45;&gt;t</title>
<path fill="none" stroke="#000000" d="M32.45,-766.7C38.01,-830.6 52.89,-976.58 75.98,-1020.3 110.33,-1085.36 122.42,-1134.3 195.98,-1134.3 1451.89,-1134.3 1451.89,-1134.3 1451.89,-1134.3 1539.72,-1134.3 1563.77,-1104.4 1627.81,-1044.3 1639.03,-1033.77 1648.35,-1019.73 1655.47,-1006.72"/>
<polygon fill="#000000" stroke="#000000" points="1658.76,-1007.97 1660.27,-997.49 1652.55,-1004.75 1658.76,-1007.97"/>
<text text-anchor="middle" x="866.98" y="-1213.7" font-family="Times,serif" font-size="32.00">s |</text>
<text text-anchor="middle" x="866.98" y="-1178.7" font-family="Times,serif" font-size="32.00"> d</text>
<text text-anchor="middle" x="866.98" y="-1143.7" font-family="Times,serif" font-size="32.00">=&gt;0 +k t</text>
</g>
<!-- 1&#45;&gt;0 -->
<g id="edge5" class="edge">
<title>1&#45;&gt;0</title>
<path fill="none" stroke="#000000" d="M1199.48,-271.87C1192.17,-264.49 1183.3,-256.72 1173.98,-251.3 1102.99,-210.04 1079.1,-198.3 996.98,-198.3 996.98,-198.3 996.98,-198.3 195.98,-198.3 91.98,-198.3 46.19,-570.04 33.69,-695.51"/>
<polygon fill="#000000" stroke="#000000" points="30.17,-695.55 32.68,-705.84 37.14,-696.23 30.17,-695.55"/>
<text text-anchor="middle" x="545.98" y="-242.7" font-family="Times,serif" font-size="32.00">ε_0</text>
<text text-anchor="middle" x="545.98" y="-207.7" font-family="Times,serif" font-size="32.00">=&gt;1 =d 0</text>
</g>
<!-- v -->
<g id="node9" class="node">
<title>v</title>
<ellipse fill="none" stroke="black" cx="196.98" cy="-558.3" rx="27" ry="30.31"/>
<text text-anchor="middle" x="196.98" y="-550.2" font-family="Times,serif" font-size="32.00">v</text>
</g>
<!-- 1&#45;&gt;v -->
<g id="edge7" class="edge">
<title>1&#45;&gt;v</title>
<path fill="none" stroke="#000000" d="M1193.19,-283.45C1187.01,-281.38 1180.33,-279.48 1173.98,-278.3 937.01,-234.54 868.46,-216.95 631.98,-263.3 620.5,-265.56 249.94,-413.73 241.98,-422.3 217.67,-448.5 206.78,-488.26 201.92,-518.04"/>
<polygon fill="#000000" stroke="#000000" points="198.43,-517.71 200.43,-528.12 205.35,-518.73 198.43,-517.71"/>
<text text-anchor="middle" x="698.48" y="-307.7" font-family="Times,serif" font-size="32.00">ε_1</text>
<text text-anchor="middle" x="698.48" y="-272.7" font-family="Times,serif" font-size="32.00">=&gt;1 =d v</text>
</g>
<!-- 2 -->
<g id="node10" class="node">
<title>2</title>
<ellipse fill="none" stroke="black" cx="995.98" cy="-712.3" rx="27" ry="30.31"/>
<text text-anchor="middle" x="995.98" y="-704.2" font-family="Times,serif" font-size="32.00">2</text>
</g>
<!-- 1&#45;&gt;2 -->
<g id="edge9" class="edge">
<title>1&#45;&gt;2</title>
<path fill="none" stroke="#f7931d" stroke-width="2" d="M1197.89,-313.06C1190.41,-320.39 1181.83,-328.75 1173.98,-336.3 1115.31,-392.76 1079.54,-390.59 1040.98,-462.3 1004.86,-529.48 997.47,-620.1 996.47,-671.75"/>
<polygon fill="#f7931d" stroke="#f7931d" stroke-width="2" points="992.97,-671.81 996.35,-681.85 999.97,-671.9 992.97,-671.81"/>
<text text-anchor="middle" x="1107.48" y="-506.7" font-family="Times,serif" font-size="32.00">ε_2</text>
<text text-anchor="middle" x="1107.48" y="-471.7" font-family="Times,serif" font-size="32.00">=&gt;1 =d 2</text>
</g>
<!-- perf -->
<g id="node12" class="node">
<title>perf</title>
<ellipse fill="none" stroke="black" cx="409.98" cy="-558.3" rx="48.17" ry="30.31"/>
<text text-anchor="middle" x="409.98" y="-550.2" font-family="Times,serif" font-size="32.00">perf</text>
</g>
<!-- 1&#45;&gt;perf -->
<g id="edge10" class="edge">
<title>1&#45;&gt;perf</title>
<path fill="none" stroke="#000000" d="M1192.11,-290.01C1122.96,-282.24 929.19,-267.45 782.98,-323.3 773.52,-326.92 773.86,-332.41 764.98,-337.3 709.94,-367.64 686.97,-354.89 631.98,-385.3 559.68,-425.3 486.2,-488.21 444.82,-526.14"/>
<polygon fill="#000000" stroke="#000000" points="442.2,-523.79 437.23,-533.15 446.95,-528.93 442.2,-523.79"/>
<text text-anchor="middle" x="866.98" y="-367.7" font-family="Times,serif" font-size="32.00">n</text>
<text text-anchor="middle" x="866.98" y="-332.7" font-family="Times,serif" font-size="32.00">=&gt;1 =d perf</text>
</g>
<!-- z2 -->
<g id="node8" class="node">
<title>z2</title>
<ellipse fill="none" stroke="black" stroke-dasharray="5,2" cx="1450.89" cy="-103.3" rx="27" ry="18"/>
</g>
<!-- z2&#45;&gt;1 -->
<g id="edge6" class="edge">
<title>z2&#45;&gt;1</title>
<path fill="none" stroke="#000000" d="M1426.63,-95.18C1388.2,-83.38 1311.03,-66.75 1263.98,-104.3 1241.12,-122.55 1229.03,-203.01 1223.62,-252.88"/>
<polygon fill="#000000" stroke="#000000" points="1220.11,-252.72 1222.56,-263.02 1227.08,-253.44 1220.11,-252.72"/>
<text text-anchor="middle" x="1322.98" y="-253.7" font-family="Times,serif" font-size="32.00">dance |</text>
<text text-anchor="middle" x="1322.98" y="-218.7" font-family="Times,serif" font-size="32.00"> laugh |</text>
<text text-anchor="middle" x="1322.98" y="-183.7" font-family="Times,serif" font-size="32.00"> smile |</text>
<text text-anchor="middle" x="1322.98" y="-148.7" font-family="Times,serif" font-size="32.00"> jump</text>
<text text-anchor="middle" x="1322.98" y="-113.7" font-family="Times,serif" font-size="32.00">1</text>
</g>
<!-- v&#45;&gt;0 -->
<g id="edge14" class="edge">
<title>v&#45;&gt;0</title>
<path fill="none" stroke="#000000" d="M184.85,-585.68C177.53,-600.53 166.59,-618.09 151.98,-629.3 123.99,-650.8 103.38,-630.06 75.98,-652.3 61.2,-664.31 50.44,-682.38 43.06,-698.69"/>
<polygon fill="#000000" stroke="#000000" points="39.78,-697.46 39.1,-708.03 46.23,-700.19 39.78,-697.46"/>
<text text-anchor="middle" x="113.98" y="-696.7" font-family="Times,serif" font-size="32.00">will</text>
<text text-anchor="middle" x="113.98" y="-661.7" font-family="Times,serif" font-size="32.00">=v 0</text>
</g>
<!-- v&#45;&gt;0 -->
<g id="edge31" class="edge">
<title>v&#45;&gt;0</title>
<path fill="none" stroke="#000000" d="M171.08,-549.29C144.62,-541.46 102.96,-534.32 75.98,-555.3 53.99,-572.41 40.79,-648.15 34.5,-696.07"/>
<polygon fill="#000000" stroke="#000000" points="31.01,-695.77 33.22,-706.13 37.95,-696.65 31.01,-695.77"/>
<text text-anchor="middle" x="113.98" y="-599.7" font-family="Times,serif" font-size="32.00">ε_11</text>
<text text-anchor="middle" x="113.98" y="-564.7" font-family="Times,serif" font-size="32.00">=&gt;v 0</text>
</g>
<!-- to -->
<g id="node20" class="node">
<title>to</title>
<ellipse fill="none" stroke="black" cx="28.99" cy="-113.3" rx="28.98" ry="30.31"/>
<text text-anchor="middle" x="28.99" y="-105.2" font-family="Times,serif" font-size="32.00">to</text>
</g>
<!-- v&#45;&gt;to -->
<g id="edge34" class="edge">
<title>v&#45;&gt;to</title>
<path fill="none" stroke="#000000" d="M185.6,-530.47C156.93,-453.61 76.64,-238.38 44.03,-150.94"/>
<polygon fill="#000000" stroke="#000000" points="47.25,-149.56 40.48,-141.42 40.69,-152.01 47.25,-149.56"/>
<text text-anchor="middle" x="113.98" y="-483.7" font-family="Times,serif" font-size="32.00">to</text>
<text text-anchor="middle" x="113.98" y="-448.7" font-family="Times,serif" font-size="32.00">=v to</text>
</g>
<!-- prog -->
<g id="node11" class="node">
<title>prog</title>
<ellipse fill="none" stroke="black" cx="698.48" cy="-724.3" rx="52.15" ry="30.31"/>
<text text-anchor="middle" x="698.48" y="-716.2" font-family="Times,serif" font-size="32.00">prog</text>
</g>
<!-- 2&#45;&gt;prog -->
<g id="edge8" class="edge">
<title>2&#45;&gt;prog</title>
<path fill="none" stroke="#f7931d" stroke-width="2" d="M969.67,-721.13C963.62,-722.86 957.13,-724.42 950.98,-725.3 886.5,-734.63 811.74,-732.75 760.59,-729.55"/>
<polygon fill="#f7931d" stroke="#f7931d" stroke-width="2" points="760.58,-726.04 750.37,-728.87 760.12,-733.03 760.58,-726.04"/>
<text text-anchor="middle" x="866.98" y="-775.7" font-family="Times,serif" font-size="32.00">ing</text>
<text text-anchor="middle" x="866.98" y="-740.7" font-family="Times,serif" font-size="32.00">=&gt;2 prog</text>
</g>
<!-- prog&#45;&gt;0 -->
<g id="edge15" class="edge">
<title>prog&#45;&gt;0</title>
<path fill="none" stroke="#000000" d="M645.94,-725.23C516.04,-727.57 177.69,-733.65 66.2,-735.65"/>
<polygon fill="#000000" stroke="#000000" points="66.07,-732.16 56.14,-735.83 66.2,-739.15 66.07,-732.16"/>
<text text-anchor="middle" x="291.98" y="-776.7" font-family="Times,serif" font-size="32.00">be</text>
<text text-anchor="middle" x="291.98" y="-741.7" font-family="Times,serif" font-size="32.00">=prog 0</text>
</g>
<!-- prog&#45;&gt;v -->
<g id="edge16" class="edge">
<title>prog&#45;&gt;v</title>
<path fill="none" stroke="#000000" d="M646.16,-723.49C589.77,-721.61 503.75,-715.57 477.98,-696.3 462.04,-684.39 475.92,-667.23 459.98,-655.3 381.77,-596.78 324.46,-679.64 241.98,-627.3 229.84,-619.6 220.42,-607.2 213.47,-595.03"/>
<polygon fill="#000000" stroke="#000000" points="216.39,-593.06 208.63,-585.84 210.2,-596.32 216.39,-593.06"/>
<text text-anchor="middle" x="409.98" y="-699.7" font-family="Times,serif" font-size="32.00">be_1</text>
<text text-anchor="middle" x="409.98" y="-664.7" font-family="Times,serif" font-size="32.00">=prog v</text>
</g>
<!-- prog&#45;&gt;perf -->
<g id="edge17" class="edge">
<title>prog&#45;&gt;perf</title>
<path fill="none" stroke="#000000" d="M676.89,-696.05C657.55,-670.31 629.34,-635.02 613.98,-626.3 560.67,-596.04 534.92,-626.01 477.98,-603.3 468.02,-599.33 458.03,-593.71 448.91,-587.79"/>
<polygon fill="#000000" stroke="#000000" points="450.71,-584.77 440.47,-582.05 446.77,-590.57 450.71,-584.77"/>
<text text-anchor="middle" x="545.98" y="-670.7" font-family="Times,serif" font-size="32.00">ben</text>
<text text-anchor="middle" x="545.98" y="-635.7" font-family="Times,serif" font-size="32.00">=prog perf</text>
</g>
<!-- perf&#45;&gt;v -->
<g id="edge32" class="edge">
<title>perf&#45;&gt;v</title>
<path fill="none" stroke="#000000" d="M361.76,-557.51C355.12,-557.43 348.38,-557.35 341.98,-557.3 297.54,-556.97 286.42,-556.8 241.98,-557.3 239.44,-557.33 236.82,-557.37 234.18,-557.42"/>
<polygon fill="#000000" stroke="#000000" points="233.97,-553.92 224.04,-557.61 234.11,-560.92 233.97,-553.92"/>
<text text-anchor="middle" x="291.98" y="-601.7" font-family="Times,serif" font-size="32.00">have</text>
<text text-anchor="middle" x="291.98" y="-566.7" font-family="Times,serif" font-size="32.00">=perf v</text>
</g>
<!-- 3 -->
<g id="node15" class="node">
<title>3</title>
<ellipse fill="none" stroke="black" cx="1218.98" cy="-478.3" rx="27" ry="30.31"/>
<text text-anchor="middle" x="1218.98" y="-470.2" font-family="Times,serif" font-size="32.00">3</text>
</g>
<!-- pass&#45;&gt;3 -->
<g id="edge18" class="edge">
<title>pass&#45;&gt;3</title>
<path fill="none" stroke="#000000" d="M1399.91,-520.85C1361.86,-519.99 1308.62,-516.01 1263.98,-502.3 1259.96,-501.07 1255.88,-499.44 1251.92,-497.62"/>
<polygon fill="#000000" stroke="#000000" points="1253.46,-494.48 1242.96,-493.09 1250.31,-500.72 1253.46,-494.48"/>
<text text-anchor="middle" x="1322.98" y="-563.7" font-family="Times,serif" font-size="32.00">be_2</text>
<text text-anchor="middle" x="1322.98" y="-528.7" font-family="Times,serif" font-size="32.00">=pass 3</text>
</g>
<!-- c2&#45;&gt;1 -->
<g id="edge13" class="edge">
<title>c2&#45;&gt;1</title>
<path fill="none" stroke="#000000" d="M1437.38,-670.47C1425.58,-642.86 1408.47,-599.05 1399.98,-559.3 1394.49,-533.59 1399.79,-342.66 1381.98,-323.3 1364,-303.76 1290,-309.64 1263.98,-304.3 1261.16,-303.73 1258.25,-303.09 1255.33,-302.42"/>
<polygon fill="#000000" stroke="#000000" points="1256.03,-298.99 1245.49,-300.07 1254.41,-305.8 1256.03,-298.99"/>
<text text-anchor="middle" x="1322.98" y="-472.7" font-family="Times,serif" font-size="32.00">declare |</text>
<text text-anchor="middle" x="1322.98" y="-437.7" font-family="Times,serif" font-size="32.00"> think |</text>
<text text-anchor="middle" x="1322.98" y="-402.7" font-family="Times,serif" font-size="32.00"> explain |</text>
<text text-anchor="middle" x="1322.98" y="-367.7" font-family="Times,serif" font-size="32.00"> say</text>
<text text-anchor="middle" x="1322.98" y="-332.7" font-family="Times,serif" font-size="32.00">=c2 1</text>
</g>
<!-- 3&#45;&gt;v -->
<g id="edge19" class="edge">
<title>3&#45;&gt;v</title>
<path fill="none" stroke="#000000" d="M1200.47,-455.55C1193.15,-447.59 1184.01,-439.38 1173.98,-434.3 1102.98,-398.38 1076.56,-407.3 996.98,-407.3 996.98,-407.3 996.98,-407.3 408.98,-407.3 327.52,-407.3 255.85,-482.66 220.8,-526.9"/>
<polygon fill="#000000" stroke="#000000" points="217.85,-525 214.48,-535.04 223.38,-529.29 217.85,-525"/>
<text text-anchor="middle" x="698.48" y="-451.7" font-family="Times,serif" font-size="32.00">ε_3</text>
<text text-anchor="middle" x="698.48" y="-416.7" font-family="Times,serif" font-size="32.00">=&gt;3 v</text>
</g>
<!-- 3&#45;&gt;2 -->
<g id="edge21" class="edge">
<title>3&#45;&gt;2</title>
<path fill="none" stroke="#f7931d" stroke-width="2" d="M1202.83,-502.75C1195.13,-513.89 1185.06,-526.7 1173.98,-536.3 1122.89,-580.64 1086.35,-560.13 1040.98,-610.3 1024.86,-628.13 1014.01,-652.77 1007.12,-673.37"/>
<polygon fill="#f7931d" stroke="#f7931d" stroke-width="2" points="1003.72,-672.51 1004.05,-683.1 1010.39,-674.62 1003.72,-672.51"/>
<text text-anchor="middle" x="1107.48" y="-654.7" font-family="Times,serif" font-size="32.00">ε_4</text>
<text text-anchor="middle" x="1107.48" y="-619.7" font-family="Times,serif" font-size="32.00">=&gt;3 2</text>
</g>
<!-- 3&#45;&gt;perf -->
<g id="edge20" class="edge">
<title>3&#45;&gt;perf</title>
<path fill="none" stroke="#000000" d="M1197.57,-459.38C1190.6,-454.09 1182.43,-449.05 1173.98,-446.3 1117.77,-428.02 1100.04,-443.68 1040.98,-446.3 925.98,-451.42 891.57,-431.08 782.98,-469.3 773.91,-472.5 773.83,-477.55 764.98,-481.3 711.71,-503.9 552.11,-533.8 466.57,-548.82"/>
<polygon fill="#000000" stroke="#000000" points="465.76,-545.41 456.52,-550.58 466.97,-552.31 465.76,-545.41"/>
<text text-anchor="middle" x="866.98" y="-513.7" font-family="Times,serif" font-size="32.00">n_1</text>
<text text-anchor="middle" x="866.98" y="-478.7" font-family="Times,serif" font-size="32.00">=&gt;3 perf</text>
</g>
<!-- 4 -->
<g id="node16" class="node">
<title>4</title>
<ellipse fill="none" stroke="black" cx="1218.98" cy="-814.3" rx="27" ry="30.31"/>
<text text-anchor="middle" x="1218.98" y="-806.2" font-family="Times,serif" font-size="32.00">4</text>
</g>
<!-- 4&#45;&gt;0 -->
<g id="edge22" class="edge">
<title>4&#45;&gt;0</title>
<path fill="none" stroke="#000000" d="M1215.87,-844.73C1211.57,-897.13 1199.93,-1001.14 1173.98,-1025.3 1115.9,-1079.42 1076.37,-1049.3 996.98,-1049.3 996.98,-1049.3 996.98,-1049.3 195.98,-1049.3 132.13,-1049.3 111.58,-1023.32 75.98,-970.3 55.08,-939.18 40.73,-834.96 34.13,-776.66"/>
<polygon fill="#000000" stroke="#000000" points="37.6,-776.23 33.02,-766.68 30.65,-777 37.6,-776.23"/>
<text text-anchor="middle" x="545.98" y="-1093.7" font-family="Times,serif" font-size="32.00">ε_5</text>
<text text-anchor="middle" x="545.98" y="-1058.7" font-family="Times,serif" font-size="32.00">=&gt;4 =to 0</text>
</g>
<!-- 4&#45;&gt;0 -->
<g id="edge27" class="edge">
<title>4&#45;&gt;0</title>
<path fill="none" stroke="#000000" d="M1213.65,-844.23C1208.49,-868.55 1197.41,-901.75 1173.98,-920.3 1078.85,-995.65 737.59,-1047.1 631.98,-987.3 618.45,-979.64 627.04,-965.75 613.98,-957.3 518.53,-895.58 470.67,-953.19 359.98,-927.3 305.78,-914.63 291.43,-910.88 241.98,-885.3 171.85,-849.03 98.24,-792.46 58.88,-760.47"/>
<polygon fill="#000000" stroke="#000000" points="60.97,-757.66 51.02,-754.03 56.54,-763.08 60.97,-757.66"/>
<text text-anchor="middle" x="545.98" y="-1001.7" font-family="Times,serif" font-size="32.00">ε_8</text>
<text text-anchor="middle" x="545.98" y="-966.7" font-family="Times,serif" font-size="32.00">=&gt;4 =c1 0</text>
</g>
<!-- 4&#45;&gt;v -->
<g id="edge24" class="edge">
<title>4&#45;&gt;v</title>
<path fill="none" stroke="#000000" d="M1209.46,-843.08C1202.73,-860.54 1191.49,-881.64 1173.98,-893.3 1108.09,-937.19 1076.15,-913.3 996.98,-913.3 996.98,-913.3 996.98,-913.3 408.98,-913.3 327.06,-913.3 291.28,-900.73 241.98,-835.3 214.52,-798.85 203.68,-667.24 199.85,-599.39"/>
<polygon fill="#000000" stroke="#000000" points="203.33,-598.87 199.29,-589.07 196.34,-599.25 203.33,-598.87"/>
<text text-anchor="middle" x="698.48" y="-957.7" font-family="Times,serif" font-size="32.00">ε_6</text>
<text text-anchor="middle" x="698.48" y="-922.7" font-family="Times,serif" font-size="32.00">=&gt;4 =to v</text>
</g>
<!-- 4&#45;&gt;v -->
<g id="edge28" class="edge">
<title>4&#45;&gt;v</title>
<path fill="none" stroke="#000000" d="M1203.18,-839.38C1195.8,-849.41 1185.89,-859.85 1173.98,-865.3 1120.24,-889.92 1099.91,-869.97 1040.98,-865.3 917.15,-855.5 888.66,-832.89 764.98,-821.3 736.04,-818.59 263.99,-825.29 241.98,-806.3 211.41,-779.92 202.05,-662.49 199.21,-599.14"/>
<polygon fill="#000000" stroke="#000000" points="202.7,-598.94 198.79,-589.09 195.71,-599.23 202.7,-598.94"/>
<text text-anchor="middle" x="698.48" y="-865.7" font-family="Times,serif" font-size="32.00">ε_9</text>
<text text-anchor="middle" x="698.48" y="-830.7" font-family="Times,serif" font-size="32.00">=&gt;4 =c1 v</text>
</g>
<!-- 4&#45;&gt;2 -->
<g id="edge26" class="edge">
<title>4&#45;&gt;2</title>
<path fill="none" stroke="#f7931d" stroke-width="2" d="M1215.3,-784.02C1211.16,-757.51 1200.65,-720.48 1173.98,-702.3 1131.61,-673.42 1069.42,-686.37 1031.15,-698.94"/>
<polygon fill="#f7931d" stroke="#f7931d" stroke-width="2" points="1029.81,-695.7 1021.5,-702.26 1032.1,-702.31 1029.81,-695.7"/>
<text text-anchor="middle" x="1107.48" y="-746.7" font-family="Times,serif" font-size="32.00">ε_7</text>
<text text-anchor="middle" x="1107.48" y="-711.7" font-family="Times,serif" font-size="32.00">=&gt;4 =to 2</text>
</g>
<!-- 4&#45;&gt;2 -->
<g id="edge30" class="edge">
<title>4&#45;&gt;2</title>
<path fill="none" stroke="#f7931d" stroke-width="2" d="M1193.7,-802.6C1187.39,-799.9 1180.52,-797.25 1173.98,-795.3 1116.49,-778.18 1091.98,-803.9 1040.98,-772.3 1030.88,-766.04 1022.35,-756.53 1015.57,-746.91"/>
<polygon fill="#f7931d" stroke="#f7931d" stroke-width="2" points="1018.48,-744.96 1010.07,-738.51 1012.62,-748.79 1018.48,-744.96"/>
<text text-anchor="middle" x="1107.48" y="-839.7" font-family="Times,serif" font-size="32.00">ε_10</text>
<text text-anchor="middle" x="1107.48" y="-804.7" font-family="Times,serif" font-size="32.00">=&gt;4 =c1 2</text>
</g>
<!-- 4&#45;&gt;perf -->
<g id="edge25" class="edge">
<title>4&#45;&gt;perf</title>
<path fill="none" stroke="#000000" d="M1216.69,-783.82C1213.64,-753.25 1203.98,-707.25 1173.98,-682.3 1135.51,-650.32 1000.62,-657.56 950.98,-651.3 876.43,-641.91 857.3,-643.44 782.98,-632.3 646.6,-611.88 612.66,-604.94 477.98,-575.3 473.65,-574.35 469.16,-573.32 464.67,-572.25"/>
<polygon fill="#000000" stroke="#000000" points="465.4,-568.82 454.86,-569.86 463.75,-575.63 465.4,-568.82"/>
<text text-anchor="middle" x="866.98" y="-695.7" font-family="Times,serif" font-size="32.00">n_2</text>
<text text-anchor="middle" x="866.98" y="-660.7" font-family="Times,serif" font-size="32.00">=&gt;4 =to perf</text>
</g>
<!-- 4&#45;&gt;perf -->
<g id="edge29" class="edge">
<title>4&#45;&gt;perf</title>
<path fill="none" stroke="#000000" d="M1218.3,-783.88C1216.94,-748.29 1209.01,-690.1 1173.98,-657.3 1129.89,-616.02 1095.69,-654.91 1040.98,-629.3 994.84,-607.71 999.12,-575.01 950.98,-558.3 906.41,-542.84 598.05,-551.7 468.31,-556.19"/>
<polygon fill="#000000" stroke="#000000" points="468.04,-552.69 458.17,-556.54 468.28,-559.69 468.04,-552.69"/>
<text text-anchor="middle" x="866.98" y="-602.7" font-family="Times,serif" font-size="32.00">n_3</text>
<text text-anchor="middle" x="866.98" y="-567.7" font-family="Times,serif" font-size="32.00">=&gt;4 =c1 perf</text>
</g>
<!-- z3 -->
<g id="node17" class="node">
<title>z3</title>
<ellipse fill="none" stroke="black" stroke-dasharray="5,2" cx="1450.89" cy="-814.3" rx="27" ry="18"/>
</g>
<!-- z3&#45;&gt;4 -->
<g id="edge23" class="edge">
<title>z3&#45;&gt;4</title>
<path fill="none" stroke="#000000" d="M1423.52,-814.3C1382.38,-814.3 1302.82,-814.3 1256.29,-814.3"/>
<polygon fill="#000000" stroke="#000000" points="1256.05,-810.8 1246.05,-814.3 1256.05,-817.8 1256.05,-810.8"/>
<text text-anchor="middle" x="1322.98" y="-893.7" font-family="Times,serif" font-size="32.00">seem |</text>
<text text-anchor="middle" x="1322.98" y="-858.7" font-family="Times,serif" font-size="32.00"> appear</text>
<text text-anchor="middle" x="1322.98" y="-823.7" font-family="Times,serif" font-size="32.00">4</text>
</g>
<!-- z4 -->
<g id="node18" class="node">
<title>z4</title>
<ellipse fill="none" stroke="black" stroke-dasharray="5,2" cx="2008.81" cy="-546.3" rx="27" ry="18"/>
</g>
<!-- e -->
<g id="node19" class="node">
<title>e</title>
<ellipse fill="none" stroke="black" cx="1855.81" cy="-546.3" rx="27" ry="30.31"/>
<text text-anchor="middle" x="1855.81" y="-538.2" font-family="Times,serif" font-size="32.00">e</text>
</g>
<!-- z4&#45;&gt;e -->
<g id="edge33" class="edge">
<title>z4&#45;&gt;e</title>
<path fill="none" stroke="#000000" d="M1981.5,-546.3C1957.04,-546.3 1920.36,-546.3 1893.11,-546.3"/>
<polygon fill="#000000" stroke="#000000" points="1892.81,-542.8 1882.81,-546.3 1892.81,-549.8 1892.81,-542.8"/>
<text text-anchor="middle" x="1932.31" y="-590.7" font-family="Times,serif" font-size="32.00">it</text>
<text text-anchor="middle" x="1932.31" y="-555.7" font-family="Times,serif" font-size="32.00">e &#45;k</text>
</g>
</g>
</svg>
