<?xml version="1.0" encoding="UTF-8" standalone="no"?>
<!DOCTYPE svg PUBLIC "-//W3C//DTD SVG 1.1//EN"
 "http://www.w3.org/Graphics/SVG/1.1/DTD/svg11.dtd">
<!-- Generated by graphviz version 2.47.1 (20210417.1919)
 -->
<!-- Title: G Pages: 1 -->
<svg width="1985pt" height="1337pt"
 viewBox="0.00 0.00 1985.45 1337.00" xmlns="http://www.w3.org/2000/svg" xmlns:xlink="http://www.w3.org/1999/xlink">
<g id="graph0" class="graph" transform="scale(1 1) rotate(0) translate(4 1333)">
<title>G</title>
<polygon fill="white" stroke="transparent" points="-4,4 -4,-1333 1981.45,-1333 1981.45,4 -4,4"/>
<text text-anchor="middle" x="988.73" y="-13.4" font-family="Times,serif" font-size="32.00">decomposition: &#160;=&gt;3 =c1 0, &#160;=&gt;3 =c1 v, n =&gt;3 =c1 perf, &#160;=&gt;3 =c1 2</text>
<!-- t -->
<g id="node1" class="node">
<title>t</title>
<ellipse fill="lightgray" stroke="black" cx="1797.45" cy="-1107" rx="27" ry="30.31"/>
<text text-anchor="middle" x="1797.45" y="-1098.9" font-family="Times,serif" font-size="32.00">t</text>
</g>
<!-- c2 -->
<g id="node14" class="node">
<title>c2</title>
<ellipse fill="none" stroke="black" cx="1595.22" cy="-901" rx="33.47" ry="30.31"/>
<text text-anchor="middle" x="1595.22" y="-892.9" font-family="Times,serif" font-size="32.00">c2</text>
</g>
<!-- t&#45;&gt;c2 -->
<g id="edge36" class="edge">
<title>t&#45;&gt;c2</title>
<path fill="none" stroke="#000000" d="M1783.54,-1080.6C1775.65,-1065.81 1764.72,-1047.48 1752.45,-1033 1715.84,-989.79 1664.21,-949.19 1630.48,-924.71"/>
<polygon fill="#000000" stroke="#000000" points="1632.48,-921.84 1622.31,-918.85 1628.4,-927.52 1632.48,-921.84"/>
<text text-anchor="middle" x="1699.45" y="-1077.4" font-family="Times,serif" font-size="32.00">that_1</text>
<text text-anchor="middle" x="1699.45" y="-1042.4" font-family="Times,serif" font-size="32.00">=t c2</text>
</g>
<!-- c1 -->
<g id="node21" class="node">
<title>c1</title>
<ellipse fill="none" stroke="black" cx="1595.22" cy="-1107" rx="33.47" ry="30.31"/>
<text text-anchor="middle" x="1595.22" y="-1098.9" font-family="Times,serif" font-size="32.00">c1</text>
</g>
<!-- t&#45;&gt;c1 -->
<g id="edge35" class="edge">
<title>t&#45;&gt;c1</title>
<path fill="none" stroke="#000000" d="M1770.27,-1107C1736.9,-1107 1678.74,-1107 1638.91,-1107"/>
<polygon fill="#000000" stroke="#000000" points="1638.7,-1103.5 1628.7,-1107 1638.7,-1110.5 1638.7,-1103.5"/>
<text text-anchor="middle" x="1699.45" y="-1151.4" font-family="Times,serif" font-size="32.00">that</text>
<text text-anchor="middle" x="1699.45" y="-1116.4" font-family="Times,serif" font-size="32.00">=t =e c1</text>
</g>
<!-- z0 -->
<g id="node2" class="node">
<title>z0</title>
<ellipse fill="none" stroke="black" stroke-dasharray="5,2" cx="1797.45" cy="-475" rx="27" ry="18"/>
</g>
<!-- d -->
<g id="node3" class="node">
<title>d</title>
<ellipse fill="none" stroke="black" cx="1595.22" cy="-488" rx="27" ry="30.31"/>
<text text-anchor="middle" x="1595.22" y="-479.9" font-family="Times,serif" font-size="32.00">d</text>
</g>
<!-- z0&#45;&gt;d -->
<g id="edge1" class="edge">
<title>z0&#45;&gt;d</title>
<path fill="none" stroke="#000000" d="M1770.32,-473.38C1740.3,-471.94 1689.63,-470.77 1646.45,-476 1641.59,-476.59 1636.51,-477.47 1631.54,-478.5"/>
<polygon fill="#000000" stroke="#000000" points="1630.55,-475.14 1621.57,-480.76 1632.09,-481.96 1630.55,-475.14"/>
<text text-anchor="middle" x="1699.45" y="-625.4" font-family="Times,serif" font-size="32.00">Mary |</text>
<text text-anchor="middle" x="1699.45" y="-590.4" font-family="Times,serif" font-size="32.00"> John |</text>
<text text-anchor="middle" x="1699.45" y="-555.4" font-family="Times,serif" font-size="32.00"> Alice |</text>
<text text-anchor="middle" x="1699.45" y="-520.4" font-family="Times,serif" font-size="32.00"> Bob</text>
<text text-anchor="middle" x="1699.45" y="-485.4" font-family="Times,serif" font-size="32.00">d &#45;k</text>
</g>
<!-- 1 -->
<g id="node7" class="node">
<title>1</title>
<ellipse fill="none" stroke="black" cx="1329.48" cy="-770" rx="27" ry="30.31"/>
<text text-anchor="middle" x="1329.48" y="-761.9" font-family="Times,serif" font-size="32.00">1</text>
</g>
<!-- d&#45;&gt;1 -->
<g id="edge11" class="edge">
<title>d&#45;&gt;1</title>
<path fill="none" stroke="#000000" d="M1591,-518.22C1586.15,-547.95 1574.03,-592.23 1543.98,-616 1497.16,-653.05 1460.68,-601.9 1410.98,-635 1376.76,-657.79 1354.93,-700.53 1342.77,-731.83"/>
<polygon fill="#000000" stroke="#000000" points="1339.36,-730.96 1339.15,-741.55 1345.92,-733.4 1339.36,-730.96"/>
<text text-anchor="middle" x="1477.48" y="-784.4" font-family="Times,serif" font-size="32.00">praise |</text>
<text text-anchor="middle" x="1477.48" y="-749.4" font-family="Times,serif" font-size="32.00"> like |</text>
<text text-anchor="middle" x="1477.48" y="-714.4" font-family="Times,serif" font-size="32.00"> kiss |</text>
<text text-anchor="middle" x="1477.48" y="-679.4" font-family="Times,serif" font-size="32.00"> hug</text>
<text text-anchor="middle" x="1477.48" y="-644.4" font-family="Times,serif" font-size="32.00">=d *k 1</text>
</g>
<!-- pass -->
<g id="node13" class="node">
<title>pass</title>
<ellipse fill="none" stroke="black" cx="1329.48" cy="-525" rx="50.82" ry="30.31"/>
<text text-anchor="middle" x="1329.48" y="-516.9" font-family="Times,serif" font-size="32.00">pass</text>
</g>
<!-- d&#45;&gt;pass -->
<g id="edge12" class="edge">
<title>d&#45;&gt;pass</title>
<path fill="none" stroke="#000000" d="M1576.68,-465.28C1567.99,-455.87 1556.65,-446 1543.98,-441 1489,-419.29 1460.62,-408.9 1410.98,-441 1394.61,-451.59 1405.39,-465.97 1392.98,-481 1387.87,-487.19 1381.69,-492.91 1375.23,-498.03"/>
<polygon fill="#000000" stroke="#000000" points="1372.88,-495.42 1366.95,-504.2 1377.06,-501.03 1372.88,-495.42"/>
<text text-anchor="middle" x="1477.48" y="-590.4" font-family="Times,serif" font-size="32.00">praisen |</text>
<text text-anchor="middle" x="1477.48" y="-555.4" font-family="Times,serif" font-size="32.00"> liken |</text>
<text text-anchor="middle" x="1477.48" y="-520.4" font-family="Times,serif" font-size="32.00"> kissn |</text>
<text text-anchor="middle" x="1477.48" y="-485.4" font-family="Times,serif" font-size="32.00"> hugn</text>
<text text-anchor="middle" x="1477.48" y="-450.4" font-family="Times,serif" font-size="32.00">=d pass</text>
</g>
<!-- n -->
<g id="node4" class="node">
<title>n</title>
<ellipse fill="none" stroke="black" cx="1797.45" cy="-673" rx="27" ry="30.31"/>
<text text-anchor="middle" x="1797.45" y="-664.9" font-family="Times,serif" font-size="32.00">n</text>
</g>
<!-- n&#45;&gt;d -->
<g id="edge2" class="edge">
<title>n&#45;&gt;d</title>
<path fill="none" stroke="#000000" d="M1770.56,-676.88C1737.69,-680.26 1681.12,-680.72 1646.45,-651 1611.11,-620.7 1600.23,-566.14 1597.1,-528.54"/>
<polygon fill="#000000" stroke="#000000" points="1600.58,-528.16 1596.4,-518.42 1593.59,-528.64 1600.58,-528.16"/>
<text text-anchor="middle" x="1699.45" y="-828.4" font-family="Times,serif" font-size="32.00">this |</text>
<text text-anchor="middle" x="1699.45" y="-793.4" font-family="Times,serif" font-size="32.00"> a |</text>
<text text-anchor="middle" x="1699.45" y="-758.4" font-family="Times,serif" font-size="32.00"> the |</text>
<text text-anchor="middle" x="1699.45" y="-723.4" font-family="Times,serif" font-size="32.00"> some</text>
<text text-anchor="middle" x="1699.45" y="-688.4" font-family="Times,serif" font-size="32.00">=n d &#45;k</text>
</g>
<!-- z1 -->
<g id="node5" class="node">
<title>z1</title>
<ellipse fill="none" stroke="black" stroke-dasharray="5,2" cx="1950.45" cy="-673" rx="27" ry="18"/>
</g>
<!-- z1&#45;&gt;n -->
<g id="edge3" class="edge">
<title>z1&#45;&gt;n</title>
<path fill="none" stroke="#000000" d="M1923.15,-673C1898.68,-673 1862,-673 1834.75,-673"/>
<polygon fill="#000000" stroke="#000000" points="1834.45,-669.5 1824.45,-673 1834.45,-676.5 1834.45,-669.5"/>
<text text-anchor="middle" x="1873.95" y="-752.4" font-family="Times,serif" font-size="32.00">boy |</text>
<text text-anchor="middle" x="1873.95" y="-717.4" font-family="Times,serif" font-size="32.00"> girl</text>
<text text-anchor="middle" x="1873.95" y="-682.4" font-family="Times,serif" font-size="32.00">n</text>
</g>
<!-- 0 -->
<g id="node6" class="node">
<title>0</title>
<ellipse fill="none" stroke="black" cx="28.99" cy="-522" rx="27" ry="30.31"/>
<text text-anchor="middle" x="28.99" y="-513.9" font-family="Times,serif" font-size="32.00">0</text>
</g>
<!-- 0&#45;&gt;t -->
<g id="edge4" class="edge">
<title>0&#45;&gt;t</title>
<path fill="none" stroke="#000000" d="M30.56,-552.62C33.88,-687.73 55.88,-1224 195.98,-1224 1596.22,-1224 1596.22,-1224 1596.22,-1224 1668.24,-1224 1696.28,-1226.07 1752.45,-1181 1765.79,-1170.3 1761.78,-1161.74 1770.45,-1147 1771.91,-1144.52 1773.45,-1141.98 1775.02,-1139.44"/>
<polygon fill="#000000" stroke="#000000" points="1778.04,-1141.22 1780.42,-1130.89 1772.12,-1137.48 1778.04,-1141.22"/>
<text text-anchor="middle" x="853.98" y="-1303.4" font-family="Times,serif" font-size="32.00">s |</text>
<text text-anchor="middle" x="853.98" y="-1268.4" font-family="Times,serif" font-size="32.00"> d</text>
<text text-anchor="middle" x="853.98" y="-1233.4" font-family="Times,serif" font-size="32.00">=&gt;0 +k t</text>
</g>
<!-- 1&#45;&gt;0 -->
<g id="edge5" class="edge">
<title>1&#45;&gt;0</title>
<path fill="none" stroke="#000000" d="M1305.1,-783.42C1256.06,-810.26 1138.18,-868 1031.48,-868 1031.48,-868 1031.48,-868 195.98,-868 61.88,-868 36.04,-654.11 31.12,-562.67"/>
<polygon fill="#000000" stroke="#000000" points="34.6,-562.22 30.63,-552.4 27.61,-562.56 34.6,-562.22"/>
<text text-anchor="middle" x="545.98" y="-912.4" font-family="Times,serif" font-size="32.00">ε_0</text>
<text text-anchor="middle" x="545.98" y="-877.4" font-family="Times,serif" font-size="32.00">=&gt;1 =d 0</text>
</g>
<!-- v -->
<g id="node9" class="node">
<title>v</title>
<ellipse fill="none" stroke="black" cx="196.98" cy="-429" rx="27" ry="30.31"/>
<text text-anchor="middle" x="196.98" y="-420.9" font-family="Times,serif" font-size="32.00">v</text>
</g>
<!-- 1&#45;&gt;v -->
<g id="edge7" class="edge">
<title>1&#45;&gt;v</title>
<path fill="none" stroke="#000000" d="M1302.26,-770C1250.5,-770 1131.51,-770 1031.48,-770 1031.48,-770 1031.48,-770 544.98,-770 458.68,-770 433.79,-755.74 359.98,-711 296.83,-672.72 279.01,-657.9 241.98,-594 219.42,-555.06 208.15,-504.29 202.7,-469.4"/>
<polygon fill="#000000" stroke="#000000" points="206.11,-468.51 201.2,-459.12 199.18,-469.52 206.11,-468.51"/>
<text text-anchor="middle" x="695.48" y="-814.4" font-family="Times,serif" font-size="32.00">ε_1</text>
<text text-anchor="middle" x="695.48" y="-779.4" font-family="Times,serif" font-size="32.00">=&gt;1 =d v</text>
</g>
<!-- 2 -->
<g id="node10" class="node">
<title>2</title>
<ellipse fill="none" stroke="black" cx="1030.48" cy="-508" rx="27" ry="30.31"/>
<text text-anchor="middle" x="1030.48" y="-499.9" font-family="Times,serif" font-size="32.00">2</text>
</g>
<!-- 1&#45;&gt;2 -->
<g id="edge9" class="edge">
<title>1&#45;&gt;2</title>
<path fill="none" stroke="#000000" d="M1322.78,-740.26C1313.81,-702.04 1292.63,-636.52 1247.98,-602 1205.71,-569.32 1179.02,-600.23 1129.98,-579 1104.2,-567.84 1078.57,-549.06 1059.91,-533.61"/>
<polygon fill="#000000" stroke="#000000" points="1062.01,-530.8 1052.11,-527.01 1057.49,-536.14 1062.01,-530.8"/>
<text text-anchor="middle" x="1188.98" y="-646.4" font-family="Times,serif" font-size="32.00">ε_2</text>
<text text-anchor="middle" x="1188.98" y="-611.4" font-family="Times,serif" font-size="32.00">=&gt;1 =d 2</text>
</g>
<!-- perf -->
<g id="node12" class="node">
<title>perf</title>
<ellipse fill="none" stroke="black" cx="409.98" cy="-497" rx="48.17" ry="30.31"/>
<text text-anchor="middle" x="409.98" y="-488.9" font-family="Times,serif" font-size="32.00">perf</text>
</g>
<!-- 1&#45;&gt;perf -->
<g id="edge10" class="edge">
<title>1&#45;&gt;perf</title>
<path fill="none" stroke="#000000" d="M1303.13,-763.33C1240.48,-747.15 1073.17,-705.68 930.98,-686 799.05,-667.74 762.54,-692.35 631.98,-666 561.03,-651.68 533.84,-659.03 477.98,-613 453.47,-592.8 436.05,-561.15 425.12,-536"/>
<polygon fill="#000000" stroke="#000000" points="428.33,-534.61 421.25,-526.72 421.87,-537.3 428.33,-534.61"/>
<text text-anchor="middle" x="853.98" y="-730.4" font-family="Times,serif" font-size="32.00">n</text>
<text text-anchor="middle" x="853.98" y="-695.4" font-family="Times,serif" font-size="32.00">=&gt;1 =d perf</text>
</g>
<!-- z2 -->
<g id="node8" class="node">
<title>z2</title>
<ellipse fill="none" stroke="black" stroke-dasharray="5,2" cx="1595.22" cy="-1034" rx="27" ry="18"/>
</g>
<!-- z2&#45;&gt;1 -->
<g id="edge6" class="edge">
<title>z2&#45;&gt;1</title>
<path fill="none" stroke="#000000" d="M1567.95,-1034.2C1523.13,-1034.01 1434.44,-1031.15 1410.98,-1012 1350.24,-962.42 1335.01,-865.63 1331.4,-810.67"/>
<polygon fill="#000000" stroke="#000000" points="1334.89,-810.38 1330.84,-800.59 1327.9,-810.77 1334.89,-810.38"/>
<text text-anchor="middle" x="1477.48" y="-1183.4" font-family="Times,serif" font-size="32.00">dance |</text>
<text text-anchor="middle" x="1477.48" y="-1148.4" font-family="Times,serif" font-size="32.00"> laugh |</text>
<text text-anchor="middle" x="1477.48" y="-1113.4" font-family="Times,serif" font-size="32.00"> smile |</text>
<text text-anchor="middle" x="1477.48" y="-1078.4" font-family="Times,serif" font-size="32.00"> jump</text>
<text text-anchor="middle" x="1477.48" y="-1043.4" font-family="Times,serif" font-size="32.00">1</text>
</g>
<!-- v&#45;&gt;0 -->
<g id="edge14" class="edge">
<title>v&#45;&gt;0</title>
<path fill="none" stroke="#000000" d="M170.43,-421.98C144.57,-416.43 104.44,-412.25 75.98,-430 57.32,-441.64 45.97,-463.38 39.21,-482.81"/>
<polygon fill="#000000" stroke="#000000" points="35.86,-481.81 36.17,-492.4 42.53,-483.92 35.86,-481.81"/>
<text text-anchor="middle" x="113.98" y="-474.4" font-family="Times,serif" font-size="32.00">will</text>
<text text-anchor="middle" x="113.98" y="-439.4" font-family="Times,serif" font-size="32.00">=v 0</text>
</g>
<!-- v&#45;&gt;0 -->
<g id="edge31" class="edge">
<title>v&#45;&gt;0</title>
<path fill="none" stroke="#000000" d="M185.49,-456.67C178.33,-471.81 167.33,-489.56 151.98,-500 126.8,-517.12 92.19,-522.04 66.26,-523.01"/>
<polygon fill="#000000" stroke="#000000" points="66.01,-519.51 56.08,-523.21 66.15,-526.51 66.01,-519.51"/>
<text text-anchor="middle" x="113.98" y="-567.4" font-family="Times,serif" font-size="32.00">ε_11</text>
<text text-anchor="middle" x="113.98" y="-532.4" font-family="Times,serif" font-size="32.00">=&gt;v 0</text>
</g>
<!-- to -->
<g id="node20" class="node">
<title>to</title>
<ellipse fill="none" stroke="black" cx="28.99" cy="-132" rx="28.98" ry="30.31"/>
<text text-anchor="middle" x="28.99" y="-123.9" font-family="Times,serif" font-size="32.00">to</text>
</g>
<!-- v&#45;&gt;to -->
<g id="edge34" class="edge">
<title>v&#45;&gt;to</title>
<path fill="none" stroke="#000000" d="M182.8,-402.8C174.21,-385.91 162.66,-363.54 151.98,-344 117.37,-280.64 74.93,-207.93 50.32,-166.23"/>
<polygon fill="#000000" stroke="#000000" points="53.3,-164.4 45.2,-157.57 47.27,-167.96 53.3,-164.4"/>
<text text-anchor="middle" x="113.98" y="-388.4" font-family="Times,serif" font-size="32.00">to</text>
<text text-anchor="middle" x="113.98" y="-353.4" font-family="Times,serif" font-size="32.00">=v to</text>
</g>
<!-- 2&#45;&gt;v -->
<g id="edge19" class="edge">
<title>2&#45;&gt;v</title>
<path fill="none" stroke="#000000" d="M1003.98,-501.07C939.36,-483.92 763.68,-439.81 613.98,-425 553.83,-419.05 538.43,-424.57 477.98,-425 390.66,-425.62 288.03,-427.34 234.56,-428.31"/>
<polygon fill="#000000" stroke="#000000" points="234.17,-424.82 224.23,-428.5 234.29,-431.82 234.17,-424.82"/>
<text text-anchor="middle" x="545.98" y="-469.4" font-family="Times,serif" font-size="32.00">ε_3</text>
<text text-anchor="middle" x="545.98" y="-434.4" font-family="Times,serif" font-size="32.00">=&gt;2 v</text>
</g>
<!-- prog -->
<g id="node11" class="node">
<title>prog</title>
<ellipse fill="none" stroke="black" cx="695.48" cy="-627" rx="52.15" ry="30.31"/>
<text text-anchor="middle" x="695.48" y="-618.9" font-family="Times,serif" font-size="32.00">prog</text>
</g>
<!-- 2&#45;&gt;prog -->
<g id="edge8" class="edge">
<title>2&#45;&gt;prog</title>
<path fill="none" stroke="#000000" d="M1004.17,-515.83C958.45,-530.12 859.16,-561.86 776.98,-593 767.2,-596.71 756.85,-600.88 746.94,-605.01"/>
<polygon fill="#000000" stroke="#000000" points="745.47,-601.83 737.61,-608.93 748.18,-608.28 745.47,-601.83"/>
<text text-anchor="middle" x="853.98" y="-637.4" font-family="Times,serif" font-size="32.00">ing</text>
<text text-anchor="middle" x="853.98" y="-602.4" font-family="Times,serif" font-size="32.00">=&gt;2 prog</text>
</g>
<!-- 2&#45;&gt;perf -->
<g id="edge20" class="edge">
<title>2&#45;&gt;perf</title>
<path fill="none" stroke="#000000" d="M1003.3,-507.53C910.85,-505.89 598.27,-500.33 468.35,-498.02"/>
<polygon fill="#000000" stroke="#000000" points="468.26,-494.52 458.2,-497.84 468.14,-501.52 468.26,-494.52"/>
<text text-anchor="middle" x="695.48" y="-548.4" font-family="Times,serif" font-size="32.00">n_1</text>
<text text-anchor="middle" x="695.48" y="-513.4" font-family="Times,serif" font-size="32.00">=&gt;2 perf</text>
</g>
<!-- prog&#45;&gt;0 -->
<g id="edge15" class="edge">
<title>prog&#45;&gt;0</title>
<path fill="none" stroke="#000000" d="M656.66,-647.65C595,-678.79 468.74,-732.01 359.98,-711 226.44,-685.2 179.9,-684.75 75.98,-597 63.66,-586.59 53.67,-572 46.2,-558.46"/>
<polygon fill="#000000" stroke="#000000" points="49.15,-556.56 41.42,-549.31 42.95,-559.8 49.15,-556.56"/>
<text text-anchor="middle" x="291.98" y="-752.4" font-family="Times,serif" font-size="32.00">be</text>
<text text-anchor="middle" x="291.98" y="-717.4" font-family="Times,serif" font-size="32.00">=prog 0</text>
</g>
<!-- prog&#45;&gt;v -->
<g id="edge16" class="edge">
<title>prog&#45;&gt;v</title>
<path fill="none" stroke="#000000" d="M644.42,-634.55C552.01,-645.44 353.86,-654.08 241.98,-550 219.44,-529.03 208.42,-495.61 203.05,-469.19"/>
<polygon fill="#000000" stroke="#000000" points="206.44,-468.3 201.19,-459.09 199.56,-469.56 206.44,-468.3"/>
<text text-anchor="middle" x="409.98" y="-681.4" font-family="Times,serif" font-size="32.00">be_1</text>
<text text-anchor="middle" x="409.98" y="-646.4" font-family="Times,serif" font-size="32.00">=prog v</text>
</g>
<!-- prog&#45;&gt;perf -->
<g id="edge17" class="edge">
<title>prog&#45;&gt;perf</title>
<path fill="none" stroke="#000000" d="M657.36,-605.74C648.25,-599.29 639.08,-591.6 631.98,-583 619.57,-567.97 629.41,-554.92 613.98,-543 565.47,-505.52 537.39,-535.11 477.98,-520 472.62,-518.64 467.07,-517.04 461.57,-515.34"/>
<polygon fill="#000000" stroke="#000000" points="462.36,-511.91 451.76,-512.18 460.21,-518.58 462.36,-511.91"/>
<text text-anchor="middle" x="545.98" y="-587.4" font-family="Times,serif" font-size="32.00">ben</text>
<text text-anchor="middle" x="545.98" y="-552.4" font-family="Times,serif" font-size="32.00">=prog perf</text>
</g>
<!-- perf&#45;&gt;v -->
<g id="edge32" class="edge">
<title>perf&#45;&gt;v</title>
<path fill="none" stroke="#000000" d="M366.79,-483.4C327.55,-470.76 269.76,-452.13 233,-440.29"/>
<polygon fill="#000000" stroke="#000000" points="233.82,-436.87 223.22,-437.13 231.67,-443.53 233.82,-436.87"/>
<text text-anchor="middle" x="291.98" y="-520.4" font-family="Times,serif" font-size="32.00">have</text>
<text text-anchor="middle" x="291.98" y="-485.4" font-family="Times,serif" font-size="32.00">=perf v</text>
</g>
<!-- pass&#45;&gt;2 -->
<g id="edge18" class="edge">
<title>pass&#45;&gt;2</title>
<path fill="none" stroke="#000000" d="M1281.89,-514.17C1270.83,-512.03 1259.04,-510.11 1247.98,-509 1184.76,-502.63 1110.62,-504.24 1067.56,-506.06"/>
<polygon fill="#000000" stroke="#000000" points="1067.39,-502.57 1057.56,-506.52 1067.71,-509.56 1067.39,-502.57"/>
<text text-anchor="middle" x="1188.98" y="-553.4" font-family="Times,serif" font-size="32.00">be_2</text>
<text text-anchor="middle" x="1188.98" y="-518.4" font-family="Times,serif" font-size="32.00">=pass 2</text>
</g>
<!-- c2&#45;&gt;1 -->
<g id="edge13" class="edge">
<title>c2&#45;&gt;1</title>
<path fill="none" stroke="#000000" d="M1579.5,-874.01C1570.88,-860.78 1558.78,-845.83 1543.98,-837 1492.48,-806.25 1467.62,-833.76 1410.98,-814 1394.08,-808.1 1376.51,-798.9 1362.11,-790.44"/>
<polygon fill="#000000" stroke="#000000" points="1363.51,-787.2 1353.14,-785.02 1359.89,-793.19 1363.51,-787.2"/>
<text text-anchor="middle" x="1477.48" y="-986.4" font-family="Times,serif" font-size="32.00">declare |</text>
<text text-anchor="middle" x="1477.48" y="-951.4" font-family="Times,serif" font-size="32.00"> think |</text>
<text text-anchor="middle" x="1477.48" y="-916.4" font-family="Times,serif" font-size="32.00"> explain |</text>
<text text-anchor="middle" x="1477.48" y="-881.4" font-family="Times,serif" font-size="32.00"> say</text>
<text text-anchor="middle" x="1477.48" y="-846.4" font-family="Times,serif" font-size="32.00">=c2 1</text>
</g>
<!-- 3 -->
<g id="node15" class="node">
<title>3</title>
<ellipse fill="none" stroke="black" cx="1595.22" cy="-196" rx="27" ry="30.31"/>
<text text-anchor="middle" x="1595.22" y="-187.9" font-family="Times,serif" font-size="32.00">3</text>
</g>
<!-- 3&#45;&gt;0 -->
<g id="edge21" class="edge">
<title>3&#45;&gt;0</title>
<path fill="none" stroke="#000000" d="M1572.35,-179.03C1528.88,-147.04 1427.39,-81 1330.48,-81 1330.48,-81 1330.48,-81 195.98,-81 118,-81 109.87,-138.77 75.98,-209 53.12,-256.38 38.72,-408.14 32.92,-481.51"/>
<polygon fill="#000000" stroke="#000000" points="29.41,-481.51 32.13,-491.75 36.39,-482.05 29.41,-481.51"/>
<text text-anchor="middle" x="695.48" y="-125.4" font-family="Times,serif" font-size="32.00">ε_4</text>
<text text-anchor="middle" x="695.48" y="-90.4" font-family="Times,serif" font-size="32.00">=&gt;3 =to 0</text>
</g>
<!-- 3&#45;&gt;v -->
<g id="edge23" class="edge">
<title>3&#45;&gt;v</title>
<path fill="none" stroke="#000000" d="M1568.37,-192.49C1443.2,-176.54 889.25,-118.03 477.98,-270 381.28,-305.73 278.59,-372.5 228.73,-407.04"/>
<polygon fill="#000000" stroke="#000000" points="226.53,-404.31 220.33,-412.9 230.53,-410.05 226.53,-404.31"/>
<text text-anchor="middle" x="853.98" y="-240.4" font-family="Times,serif" font-size="32.00">ε_5</text>
<text text-anchor="middle" x="853.98" y="-205.4" font-family="Times,serif" font-size="32.00">=&gt;3 =to v</text>
</g>
<!-- 3&#45;&gt;2 -->
<g id="edge25" class="edge">
<title>3&#45;&gt;2</title>
<path fill="none" stroke="#000000" d="M1594.05,-226.55C1592.1,-264.37 1582.78,-328.04 1543.98,-363 1450.55,-447.21 1363.04,-336 1265.98,-416 1249.36,-429.7 1264.43,-447.09 1247.98,-461 1221.14,-483.7 1122.23,-497.95 1067.87,-504.24"/>
<polygon fill="#000000" stroke="#000000" points="1067.17,-500.8 1057.62,-505.39 1067.95,-507.75 1067.17,-500.8"/>
<text text-anchor="middle" x="1329.48" y="-460.4" font-family="Times,serif" font-size="32.00">ε_6</text>
<text text-anchor="middle" x="1329.48" y="-425.4" font-family="Times,serif" font-size="32.00">=&gt;3 =to 2</text>
</g>
<!-- 3&#45;&gt;perf -->
<g id="edge24" class="edge">
<title>3&#45;&gt;perf</title>
<path fill="none" stroke="#000000" d="M1568.18,-197.08C1480.34,-201.07 1187.02,-217.03 948.98,-261 805.43,-287.52 769.06,-296.79 631.98,-347 561.04,-372.99 538.17,-373.32 477.98,-419 462.53,-430.73 448.12,-446.56 436.66,-460.89"/>
<polygon fill="#000000" stroke="#000000" points="433.64,-459.07 430.26,-469.11 439.17,-463.37 433.64,-459.07"/>
<text text-anchor="middle" x="1030.48" y="-305.4" font-family="Times,serif" font-size="32.00">n_2</text>
<text text-anchor="middle" x="1030.48" y="-270.4" font-family="Times,serif" font-size="32.00">=&gt;3 =to perf</text>
</g>
<!-- 4 -->
<g id="node17" class="node">
<title>4</title>
<ellipse fill="none" stroke="black" cx="1329.48" cy="-332" rx="27" ry="30.31"/>
<text text-anchor="middle" x="1329.48" y="-323.9" font-family="Times,serif" font-size="32.00">4</text>
</g>
<!-- 3&#45;&gt;4 -->
<g id="edge27" class="edge">
<title>3&#45;&gt;4</title>
<path fill="none" stroke="#f7931d" stroke-width="2" d="M1570.35,-208.31C1523.1,-232.67 1417.57,-287.09 1363.62,-314.91"/>
<polygon fill="#f7931d" stroke="#f7931d" stroke-width="2" points="1361.77,-311.93 1354.49,-319.62 1364.98,-318.15 1361.77,-311.93"/>
<text text-anchor="middle" x="1477.48" y="-333.4" font-family="Times,serif" font-size="32.00">ε_8</text>
<text text-anchor="middle" x="1477.48" y="-298.4" font-family="Times,serif" font-size="32.00">=&gt;3 =c1 4</text>
</g>
<!-- z3 -->
<g id="node16" class="node">
<title>z3</title>
<ellipse fill="none" stroke="black" stroke-dasharray="5,2" cx="1797.45" cy="-196" rx="27" ry="18"/>
</g>
<!-- z3&#45;&gt;3 -->
<g id="edge22" class="edge">
<title>z3&#45;&gt;3</title>
<path fill="none" stroke="#000000" d="M1770.27,-196C1735.05,-196 1672.23,-196 1632.47,-196"/>
<polygon fill="#000000" stroke="#000000" points="1632.4,-192.5 1622.4,-196 1632.4,-199.5 1632.4,-192.5"/>
<text text-anchor="middle" x="1699.45" y="-275.4" font-family="Times,serif" font-size="32.00">seem |</text>
<text text-anchor="middle" x="1699.45" y="-240.4" font-family="Times,serif" font-size="32.00"> appear</text>
<text text-anchor="middle" x="1699.45" y="-205.4" font-family="Times,serif" font-size="32.00">3</text>
</g>
<!-- 4&#45;&gt;0 -->
<g id="edge26" class="edge">
<title>4&#45;&gt;0</title>
<path fill="none" stroke="#f7931d" stroke-width="2" d="M1302.57,-328.87C1178.31,-314.12 642.8,-253.25 477.98,-280 292.08,-310.17 214.43,-286.32 75.98,-414 56.41,-432.05 44.83,-459.81 38.19,-482.67"/>
<polygon fill="#f7931d" stroke="#f7931d" stroke-width="2" points="34.78,-481.88 35.56,-492.44 41.54,-483.7 34.78,-481.88"/>
<text text-anchor="middle" x="545.98" y="-324.4" font-family="Times,serif" font-size="32.00">ε_7</text>
<text text-anchor="middle" x="545.98" y="-289.4" font-family="Times,serif" font-size="32.00">=&gt;4 0</text>
</g>
<!-- 4&#45;&gt;v -->
<g id="edge28" class="edge">
<title>4&#45;&gt;v</title>
<path fill="none" stroke="#f7931d" stroke-width="2" d="M1302.48,-332.02C1210.59,-332.31 892.73,-335.23 631.98,-361 483.33,-375.69 308.09,-407.71 233.96,-421.94"/>
<polygon fill="#f7931d" stroke="#f7931d" stroke-width="2" points="232.93,-418.57 223.78,-423.91 234.26,-425.45 232.93,-418.57"/>
<text text-anchor="middle" x="695.48" y="-405.4" font-family="Times,serif" font-size="32.00">ε_9</text>
<text text-anchor="middle" x="695.48" y="-370.4" font-family="Times,serif" font-size="32.00">=&gt;4 v</text>
</g>
<!-- 4&#45;&gt;2 -->
<g id="edge30" class="edge">
<title>4&#45;&gt;2</title>
<path fill="none" stroke="#f7931d" stroke-width="2" d="M1304.74,-344.35C1289,-352.09 1267.69,-361.76 1247.98,-368 1197.04,-384.12 1176.04,-363.91 1129.98,-391 1096.06,-410.96 1068.39,-447.04 1051.11,-473.87"/>
<polygon fill="#f7931d" stroke="#f7931d" stroke-width="2" points="1048,-472.25 1045.66,-482.58 1053.93,-475.96 1048,-472.25"/>
<text text-anchor="middle" x="1188.98" y="-435.4" font-family="Times,serif" font-size="32.00">ε_10</text>
<text text-anchor="middle" x="1188.98" y="-400.4" font-family="Times,serif" font-size="32.00">=&gt;4 2</text>
</g>
<!-- 4&#45;&gt;perf -->
<g id="edge29" class="edge">
<title>4&#45;&gt;perf</title>
<path fill="none" stroke="#f7931d" stroke-width="2" d="M1302.52,-336C1223.37,-348.33 978.22,-387.48 776.98,-430 704,-445.42 687.28,-456.17 613.98,-470 564.87,-479.26 508.47,-486.5 467.61,-491.13"/>
<polygon fill="#f7931d" stroke="#f7931d" stroke-width="2" points="467.12,-487.67 457.57,-492.26 467.9,-494.62 467.12,-487.67"/>
<text text-anchor="middle" x="853.98" y="-474.4" font-family="Times,serif" font-size="32.00">n_3</text>
<text text-anchor="middle" x="853.98" y="-439.4" font-family="Times,serif" font-size="32.00">=&gt;4 perf</text>
</g>
<!-- z4 -->
<g id="node18" class="node">
<title>z4</title>
<ellipse fill="none" stroke="black" stroke-dasharray="5,2" cx="1950.45" cy="-1186" rx="27" ry="18"/>
</g>
<!-- e -->
<g id="node19" class="node">
<title>e</title>
<ellipse fill="none" stroke="black" cx="1797.45" cy="-1186" rx="27" ry="30.31"/>
<text text-anchor="middle" x="1797.45" y="-1177.9" font-family="Times,serif" font-size="32.00">e</text>
</g>
<!-- z4&#45;&gt;e -->
<g id="edge33" class="edge">
<title>z4&#45;&gt;e</title>
<path fill="none" stroke="#000000" d="M1923.15,-1186C1898.68,-1186 1862,-1186 1834.75,-1186"/>
<polygon fill="#000000" stroke="#000000" points="1834.45,-1182.5 1824.45,-1186 1834.45,-1189.5 1834.45,-1182.5"/>
<text text-anchor="middle" x="1873.95" y="-1230.4" font-family="Times,serif" font-size="32.00">it</text>
<text text-anchor="middle" x="1873.95" y="-1195.4" font-family="Times,serif" font-size="32.00">e &#45;k</text>
</g>
</g>
</svg>
