<?xml version="1.0" encoding="UTF-8" standalone="no"?>
<!DOCTYPE svg PUBLIC "-//W3C//DTD SVG 1.1//EN"
 "http://www.w3.org/Graphics/SVG/1.1/DTD/svg11.dtd">
<!-- Generated by graphviz version 2.47.1 (20210417.1919)
 -->
<!-- Title: G Pages: 1 -->
<svg width="1860pt" height="1292pt"
 viewBox="0.00 0.00 1860.27 1292.00" xmlns="http://www.w3.org/2000/svg" xmlns:xlink="http://www.w3.org/1999/xlink">
<g id="graph0" class="graph" transform="scale(1 1) rotate(0) translate(4 1288)">
<title>G</title>
<polygon fill="white" stroke="transparent" points="-4,4 -4,-1288 1856.27,-1288 1856.27,4 -4,4"/>
<text text-anchor="middle" x="926.14" y="-13.4" font-family="Times,serif" font-size="32.00">single contraction: 4 → 2</text>
<!-- t -->
<g id="node1" class="node">
<title>t</title>
<ellipse fill="lightgray" stroke="black" cx="1672.27" cy="-1135" rx="27" ry="30.31"/>
<text text-anchor="middle" x="1672.27" y="-1126.9" font-family="Times,serif" font-size="32.00">t</text>
</g>
<!-- c2 -->
<g id="node14" class="node">
<title>c2</title>
<ellipse fill="none" stroke="black" cx="1470.04" cy="-971" rx="33.47" ry="30.31"/>
<text text-anchor="middle" x="1470.04" y="-962.9" font-family="Times,serif" font-size="32.00">c2</text>
</g>
<!-- t&#45;&gt;c2 -->
<g id="edge33" class="edge">
<title>t&#45;&gt;c2</title>
<path fill="none" stroke="#000000" d="M1661.66,-1106.93C1654.43,-1089.15 1643.06,-1066.64 1627.27,-1051 1594.47,-1018.5 1545.76,-996.44 1511.46,-983.85"/>
<polygon fill="#000000" stroke="#000000" points="1512.35,-980.46 1501.76,-980.4 1510.01,-987.05 1512.35,-980.46"/>
<text text-anchor="middle" x="1574.27" y="-1095.4" font-family="Times,serif" font-size="32.00">that_1</text>
<text text-anchor="middle" x="1574.27" y="-1060.4" font-family="Times,serif" font-size="32.00">=t c2</text>
</g>
<!-- c1 -->
<g id="node20" class="node">
<title>c1</title>
<ellipse fill="none" stroke="black" cx="1470.04" cy="-1193" rx="33.47" ry="30.31"/>
<text text-anchor="middle" x="1470.04" y="-1184.9" font-family="Times,serif" font-size="32.00">c1</text>
</g>
<!-- t&#45;&gt;c1 -->
<g id="edge32" class="edge">
<title>t&#45;&gt;c1</title>
<path fill="none" stroke="#000000" d="M1646.19,-1143.14C1640.02,-1145.1 1633.42,-1147.16 1627.27,-1149 1588.3,-1160.68 1543.6,-1173.18 1512.02,-1181.86"/>
<polygon fill="#000000" stroke="#000000" points="1510.97,-1178.52 1502.25,-1184.54 1512.82,-1185.27 1510.97,-1178.52"/>
<text text-anchor="middle" x="1574.27" y="-1222.4" font-family="Times,serif" font-size="32.00">that</text>
<text text-anchor="middle" x="1574.27" y="-1187.4" font-family="Times,serif" font-size="32.00">=t =e c1</text>
</g>
<!-- z0 -->
<g id="node2" class="node">
<title>z0</title>
<ellipse fill="none" stroke="black" stroke-dasharray="5,2" cx="1672.27" cy="-351" rx="27" ry="18"/>
</g>
<!-- d -->
<g id="node3" class="node">
<title>d</title>
<ellipse fill="none" stroke="black" cx="1470.04" cy="-450" rx="27" ry="30.31"/>
<text text-anchor="middle" x="1470.04" y="-441.9" font-family="Times,serif" font-size="32.00">d</text>
</g>
<!-- z0&#45;&gt;d -->
<g id="edge1" class="edge">
<title>z0&#45;&gt;d</title>
<path fill="none" stroke="#000000" d="M1647.11,-343.99C1615.61,-336.36 1559.97,-328.17 1521.27,-352 1500.47,-364.81 1487.92,-389.24 1480.57,-410.51"/>
<polygon fill="#000000" stroke="#000000" points="1477.15,-409.72 1477.45,-420.31 1483.82,-411.84 1477.15,-409.72"/>
<text text-anchor="middle" x="1574.27" y="-501.4" font-family="Times,serif" font-size="32.00">Mary |</text>
<text text-anchor="middle" x="1574.27" y="-466.4" font-family="Times,serif" font-size="32.00"> John |</text>
<text text-anchor="middle" x="1574.27" y="-431.4" font-family="Times,serif" font-size="32.00"> Alice |</text>
<text text-anchor="middle" x="1574.27" y="-396.4" font-family="Times,serif" font-size="32.00"> Bob</text>
<text text-anchor="middle" x="1574.27" y="-361.4" font-family="Times,serif" font-size="32.00">d &#45;k</text>
</g>
<!-- 1 -->
<g id="node7" class="node">
<title>1</title>
<ellipse fill="none" stroke="black" cx="1231.89" cy="-747" rx="27" ry="30.31"/>
<text text-anchor="middle" x="1231.89" y="-738.9" font-family="Times,serif" font-size="32.00">1</text>
</g>
<!-- d&#45;&gt;1 -->
<g id="edge11" class="edge">
<title>d&#45;&gt;1</title>
<path fill="none" stroke="#000000" d="M1457.17,-476.82C1448.63,-493.35 1435.66,-513.83 1418.81,-527 1375.07,-561.2 1340.61,-529.3 1300.81,-568 1262.44,-605.3 1245.47,-666.47 1238.16,-706.74"/>
<polygon fill="#000000" stroke="#000000" points="1234.68,-706.31 1236.46,-716.76 1241.59,-707.48 1234.68,-706.31"/>
<text text-anchor="middle" x="1359.81" y="-717.4" font-family="Times,serif" font-size="32.00">praise |</text>
<text text-anchor="middle" x="1359.81" y="-682.4" font-family="Times,serif" font-size="32.00"> like |</text>
<text text-anchor="middle" x="1359.81" y="-647.4" font-family="Times,serif" font-size="32.00"> kiss |</text>
<text text-anchor="middle" x="1359.81" y="-612.4" font-family="Times,serif" font-size="32.00"> hug</text>
<text text-anchor="middle" x="1359.81" y="-577.4" font-family="Times,serif" font-size="32.00">=d *k 1</text>
</g>
<!-- pass -->
<g id="node13" class="node">
<title>pass</title>
<ellipse fill="none" stroke="black" cx="1231.89" cy="-384" rx="50.82" ry="30.31"/>
<text text-anchor="middle" x="1231.89" y="-375.9" font-family="Times,serif" font-size="32.00">pass</text>
</g>
<!-- d&#45;&gt;pass -->
<g id="edge12" class="edge">
<title>d&#45;&gt;pass</title>
<path fill="none" stroke="#000000" d="M1462.65,-420.27C1455.97,-397.2 1442.95,-366.76 1418.81,-352 1376.38,-326.07 1318.88,-342.15 1279.12,-359.54"/>
<polygon fill="#000000" stroke="#000000" points="1277.57,-356.4 1269.91,-363.72 1280.46,-362.77 1277.57,-356.4"/>
<text text-anchor="middle" x="1359.81" y="-501.4" font-family="Times,serif" font-size="32.00">praisen |</text>
<text text-anchor="middle" x="1359.81" y="-466.4" font-family="Times,serif" font-size="32.00"> liken |</text>
<text text-anchor="middle" x="1359.81" y="-431.4" font-family="Times,serif" font-size="32.00"> kissn |</text>
<text text-anchor="middle" x="1359.81" y="-396.4" font-family="Times,serif" font-size="32.00"> hugn</text>
<text text-anchor="middle" x="1359.81" y="-361.4" font-family="Times,serif" font-size="32.00">=d pass</text>
</g>
<!-- n -->
<g id="node4" class="node">
<title>n</title>
<ellipse fill="none" stroke="black" cx="1672.27" cy="-549" rx="27" ry="30.31"/>
<text text-anchor="middle" x="1672.27" y="-540.9" font-family="Times,serif" font-size="32.00">n</text>
</g>
<!-- n&#45;&gt;d -->
<g id="edge2" class="edge">
<title>n&#45;&gt;d</title>
<path fill="none" stroke="#000000" d="M1645.18,-551.36C1613.38,-552.92 1559.19,-551.26 1521.27,-527 1506.24,-517.38 1494.76,-501.48 1486.59,-486.62"/>
<polygon fill="#000000" stroke="#000000" points="1489.62,-484.85 1481.93,-477.56 1483.4,-488.06 1489.62,-484.85"/>
<text text-anchor="middle" x="1574.27" y="-701.4" font-family="Times,serif" font-size="32.00">this |</text>
<text text-anchor="middle" x="1574.27" y="-666.4" font-family="Times,serif" font-size="32.00"> a |</text>
<text text-anchor="middle" x="1574.27" y="-631.4" font-family="Times,serif" font-size="32.00"> the |</text>
<text text-anchor="middle" x="1574.27" y="-596.4" font-family="Times,serif" font-size="32.00"> some</text>
<text text-anchor="middle" x="1574.27" y="-561.4" font-family="Times,serif" font-size="32.00">=n d &#45;k</text>
</g>
<!-- z1 -->
<g id="node5" class="node">
<title>z1</title>
<ellipse fill="none" stroke="black" stroke-dasharray="5,2" cx="1825.27" cy="-549" rx="27" ry="18"/>
</g>
<!-- z1&#45;&gt;n -->
<g id="edge3" class="edge">
<title>z1&#45;&gt;n</title>
<path fill="none" stroke="#000000" d="M1797.97,-549C1773.5,-549 1736.83,-549 1709.58,-549"/>
<polygon fill="#000000" stroke="#000000" points="1709.27,-545.5 1699.27,-549 1709.27,-552.5 1709.27,-545.5"/>
<text text-anchor="middle" x="1748.77" y="-628.4" font-family="Times,serif" font-size="32.00">boy |</text>
<text text-anchor="middle" x="1748.77" y="-593.4" font-family="Times,serif" font-size="32.00"> girl</text>
<text text-anchor="middle" x="1748.77" y="-558.4" font-family="Times,serif" font-size="32.00">n</text>
</g>
<!-- 0 -->
<g id="node6" class="node">
<title>0</title>
<ellipse fill="none" stroke="black" cx="28.99" cy="-596" rx="27" ry="30.31"/>
<text text-anchor="middle" x="28.99" y="-587.9" font-family="Times,serif" font-size="32.00">0</text>
</g>
<!-- 0&#45;&gt;t -->
<g id="edge4" class="edge">
<title>0&#45;&gt;t</title>
<path fill="none" stroke="#000000" d="M32.64,-626.13C43.41,-739.64 88.65,-1135 195.98,-1135 1471.04,-1135 1471.04,-1135 1471.04,-1135 1528.32,-1135 1594.82,-1135 1634.94,-1135"/>
<polygon fill="#000000" stroke="#000000" points="1635.04,-1138.5 1645.04,-1135 1635.04,-1131.5 1635.04,-1138.5"/>
<text text-anchor="middle" x="858.48" y="-1214.4" font-family="Times,serif" font-size="32.00">s |</text>
<text text-anchor="middle" x="858.48" y="-1179.4" font-family="Times,serif" font-size="32.00"> d</text>
<text text-anchor="middle" x="858.48" y="-1144.4" font-family="Times,serif" font-size="32.00">=&gt;0 +k t</text>
</g>
<!-- 1&#45;&gt;0 -->
<g id="edge5" class="edge">
<title>1&#45;&gt;0</title>
<path fill="none" stroke="#000000" d="M1208.46,-762.75C1166.73,-790.45 1073.46,-845 985.98,-845 985.98,-845 985.98,-845 195.98,-845 96.7,-845 53.14,-706.25 37.44,-635.89"/>
<polygon fill="#000000" stroke="#000000" points="40.85,-635.08 35.33,-626.04 34,-636.55 40.85,-635.08"/>
<text text-anchor="middle" x="545.98" y="-889.4" font-family="Times,serif" font-size="32.00">ε_0</text>
<text text-anchor="middle" x="545.98" y="-854.4" font-family="Times,serif" font-size="32.00">=&gt;1 =d 0</text>
</g>
<!-- v -->
<g id="node9" class="node">
<title>v</title>
<ellipse fill="none" stroke="black" cx="196.98" cy="-416" rx="27" ry="30.31"/>
<text text-anchor="middle" x="196.98" y="-407.9" font-family="Times,serif" font-size="32.00">v</text>
</g>
<!-- 1&#45;&gt;v -->
<g id="edge7" class="edge">
<title>1&#45;&gt;v</title>
<path fill="none" stroke="#000000" d="M1204.8,-747C1160.03,-747 1065.71,-747 985.98,-747 985.98,-747 985.98,-747 408.98,-747 327.44,-747 291.81,-735.56 241.98,-671 216.63,-638.15 204.96,-519.95 200.42,-456.66"/>
<polygon fill="#000000" stroke="#000000" points="203.91,-456.36 199.73,-446.63 196.93,-456.85 203.91,-456.36"/>
<text text-anchor="middle" x="695.48" y="-791.4" font-family="Times,serif" font-size="32.00">ε_1</text>
<text text-anchor="middle" x="695.48" y="-756.4" font-family="Times,serif" font-size="32.00">=&gt;1 =d v</text>
</g>
<!-- 2 -->
<g id="node10" class="node">
<title>2</title>
<ellipse fill="none" stroke="black" cx="984.98" cy="-345" rx="27" ry="30.31"/>
<text text-anchor="middle" x="984.98" y="-336.9" font-family="Times,serif" font-size="32.00">2</text>
</g>
<!-- 1&#45;&gt;2 -->
<g id="edge9" class="edge">
<title>1&#45;&gt;2</title>
<path fill="none" stroke="#000000" d="M1231.52,-716.51C1230.8,-665.86 1221.57,-564.54 1162.98,-510 1118.77,-468.84 1074.84,-522.45 1029.98,-482 1002.81,-457.5 992.33,-416.2 988.33,-385.34"/>
<polygon fill="#000000" stroke="#000000" points="991.8,-384.86 987.21,-375.31 984.84,-385.64 991.8,-384.86"/>
<text text-anchor="middle" x="1096.48" y="-554.4" font-family="Times,serif" font-size="32.00">ε_2</text>
<text text-anchor="middle" x="1096.48" y="-519.4" font-family="Times,serif" font-size="32.00">=&gt;1 =d 2</text>
</g>
<!-- perf -->
<g id="node12" class="node">
<title>perf</title>
<ellipse fill="none" stroke="black" cx="409.98" cy="-415" rx="48.17" ry="30.31"/>
<text text-anchor="middle" x="409.98" y="-406.9" font-family="Times,serif" font-size="32.00">perf</text>
</g>
<!-- 1&#45;&gt;perf -->
<g id="edge10" class="edge">
<title>1&#45;&gt;perf</title>
<path fill="none" stroke="#000000" d="M1209.03,-730.08C1162.5,-695.07 1048.98,-614.86 939.98,-578 809.27,-533.8 766.73,-568.71 631.98,-539 561.84,-523.54 538.26,-529.05 477.98,-490 462.18,-479.76 447.8,-464.84 436.45,-451"/>
<polygon fill="#000000" stroke="#000000" points="439.09,-448.69 430.13,-443.02 433.6,-453.03 439.09,-448.69"/>
<text text-anchor="middle" x="858.48" y="-622.4" font-family="Times,serif" font-size="32.00">n</text>
<text text-anchor="middle" x="858.48" y="-587.4" font-family="Times,serif" font-size="32.00">=&gt;1 =d perf</text>
</g>
<!-- z2 -->
<g id="node8" class="node">
<title>z2</title>
<ellipse fill="none" stroke="black" stroke-dasharray="5,2" cx="1470.04" cy="-747" rx="27" ry="18"/>
</g>
<!-- z2&#45;&gt;1 -->
<g id="edge6" class="edge">
<title>z2&#45;&gt;1</title>
<path fill="none" stroke="#000000" d="M1442.87,-747C1400.67,-747 1317.48,-747 1269.45,-747"/>
<polygon fill="#000000" stroke="#000000" points="1269.19,-743.5 1259.19,-747 1269.19,-750.5 1269.19,-743.5"/>
<text text-anchor="middle" x="1359.81" y="-896.4" font-family="Times,serif" font-size="32.00">dance |</text>
<text text-anchor="middle" x="1359.81" y="-861.4" font-family="Times,serif" font-size="32.00"> laugh |</text>
<text text-anchor="middle" x="1359.81" y="-826.4" font-family="Times,serif" font-size="32.00"> smile |</text>
<text text-anchor="middle" x="1359.81" y="-791.4" font-family="Times,serif" font-size="32.00"> jump</text>
<text text-anchor="middle" x="1359.81" y="-756.4" font-family="Times,serif" font-size="32.00">1</text>
</g>
<!-- v&#45;&gt;0 -->
<g id="edge14" class="edge">
<title>v&#45;&gt;0</title>
<path fill="none" stroke="#000000" d="M185.2,-443.78C177.93,-459.12 166.93,-477.37 151.98,-489 124.13,-510.67 103.38,-489.76 75.98,-512 61.2,-524 50.44,-542.07 43.06,-558.39"/>
<polygon fill="#000000" stroke="#000000" points="39.78,-557.16 39.1,-567.73 46.23,-559.89 39.78,-557.16"/>
<text text-anchor="middle" x="113.98" y="-556.4" font-family="Times,serif" font-size="32.00">will</text>
<text text-anchor="middle" x="113.98" y="-521.4" font-family="Times,serif" font-size="32.00">=v 0</text>
</g>
<!-- v&#45;&gt;0 -->
<g id="edge28" class="edge">
<title>v&#45;&gt;0</title>
<path fill="none" stroke="#000000" d="M170.59,-407.45C144.11,-400.26 102.79,-394.15 75.98,-415 53.99,-432.11 40.79,-507.84 34.5,-555.76"/>
<polygon fill="#000000" stroke="#000000" points="31.01,-555.47 33.22,-565.83 37.95,-556.35 31.01,-555.47"/>
<text text-anchor="middle" x="113.98" y="-459.4" font-family="Times,serif" font-size="32.00">ε_9</text>
<text text-anchor="middle" x="113.98" y="-424.4" font-family="Times,serif" font-size="32.00">=&gt;v 0</text>
</g>
<!-- to -->
<g id="node19" class="node">
<title>to</title>
<ellipse fill="none" stroke="black" cx="28.99" cy="-325" rx="28.98" ry="30.31"/>
<text text-anchor="middle" x="28.99" y="-316.9" font-family="Times,serif" font-size="32.00">to</text>
</g>
<!-- v&#45;&gt;to -->
<g id="edge31" class="edge">
<title>v&#45;&gt;to</title>
<path fill="none" stroke="#000000" d="M190.01,-386.18C184.13,-365.41 172.88,-339.16 151.98,-326 127.1,-310.32 93.31,-311.36 67.61,-315.59"/>
<polygon fill="#000000" stroke="#000000" points="66.67,-312.21 57.49,-317.49 67.96,-319.09 66.67,-312.21"/>
<text text-anchor="middle" x="113.98" y="-370.4" font-family="Times,serif" font-size="32.00">to</text>
<text text-anchor="middle" x="113.98" y="-335.4" font-family="Times,serif" font-size="32.00">=v to</text>
</g>
<!-- 2&#45;&gt;0 -->
<g id="edge26" class="edge">
<title>2&#45;&gt;0</title>
<path fill="none" stroke="#000000" d="M984.77,-314.3C983.83,-278.92 976.28,-221.95 939.98,-193 855.23,-125.41 804.88,-179 696.48,-179 696.48,-179 696.48,-179 195.98,-179 117.35,-179 110.34,-238.27 75.98,-309 55.22,-351.74 40.12,-486.92 33.58,-555.4"/>
<polygon fill="#000000" stroke="#000000" points="30.09,-555.12 32.64,-565.4 37.06,-555.77 30.09,-555.12"/>
<text text-anchor="middle" x="409.98" y="-223.4" font-family="Times,serif" font-size="32.00">ε_7</text>
<text text-anchor="middle" x="409.98" y="-188.4" font-family="Times,serif" font-size="32.00">=&gt;2 0</text>
</g>
<!-- 2&#45;&gt;v -->
<g id="edge19" class="edge">
<title>2&#45;&gt;v</title>
<path fill="none" stroke="#000000" d="M958.71,-337.96C884.31,-318.28 659.89,-266.39 477.98,-302 383.67,-320.46 281.03,-370.84 230.22,-398.02"/>
<polygon fill="#000000" stroke="#000000" points="228.48,-394.99 221.35,-402.82 231.81,-401.14 228.48,-394.99"/>
<text text-anchor="middle" x="545.98" y="-346.4" font-family="Times,serif" font-size="32.00">ε_3</text>
<text text-anchor="middle" x="545.98" y="-311.4" font-family="Times,serif" font-size="32.00">=&gt;2 v</text>
</g>
<!-- prog -->
<g id="node11" class="node">
<title>prog</title>
<ellipse fill="none" stroke="black" cx="695.48" cy="-500" rx="52.15" ry="30.31"/>
<text text-anchor="middle" x="695.48" y="-491.9" font-family="Times,serif" font-size="32.00">prog</text>
</g>
<!-- 2&#45;&gt;prog -->
<g id="edge8" class="edge">
<title>2&#45;&gt;prog</title>
<path fill="none" stroke="#000000" d="M967.51,-368.44C959.95,-377.92 950.37,-388.41 939.98,-396 882.29,-438.18 804.85,-467.49 752.94,-484"/>
<polygon fill="#000000" stroke="#000000" points="751.74,-480.71 743.23,-487.03 753.82,-487.39 751.74,-480.71"/>
<text text-anchor="middle" x="858.48" y="-519.4" font-family="Times,serif" font-size="32.00">ing</text>
<text text-anchor="middle" x="858.48" y="-484.4" font-family="Times,serif" font-size="32.00">=&gt;2 prog</text>
</g>
<!-- 2&#45;&gt;perf -->
<g id="edge20" class="edge">
<title>2&#45;&gt;perf</title>
<path fill="none" stroke="#000000" d="M957.95,-346.01C882.87,-349.26 659.68,-361.36 477.98,-396 473.26,-396.9 468.38,-397.98 463.52,-399.16"/>
<polygon fill="#000000" stroke="#000000" points="462.42,-395.83 453.61,-401.7 464.16,-402.61 462.42,-395.83"/>
<text text-anchor="middle" x="695.48" y="-416.4" font-family="Times,serif" font-size="32.00">n_1</text>
<text text-anchor="middle" x="695.48" y="-381.4" font-family="Times,serif" font-size="32.00">=&gt;2 perf</text>
</g>
<!-- prog&#45;&gt;0 -->
<g id="edge15" class="edge">
<title>prog&#45;&gt;0</title>
<path fill="none" stroke="#000000" d="M654.07,-518.93C608.19,-539.35 530.53,-570.73 459.98,-584 385.05,-598.1 156.08,-597.34 66.48,-596.46"/>
<polygon fill="#000000" stroke="#000000" points="66.3,-592.95 56.26,-596.35 66.23,-599.95 66.3,-592.95"/>
<text text-anchor="middle" x="291.98" y="-641.4" font-family="Times,serif" font-size="32.00">be</text>
<text text-anchor="middle" x="291.98" y="-606.4" font-family="Times,serif" font-size="32.00">=prog 0</text>
</g>
<!-- prog&#45;&gt;v -->
<g id="edge16" class="edge">
<title>prog&#45;&gt;v</title>
<path fill="none" stroke="#000000" d="M643.37,-504.3C539.73,-512.09 308.99,-524.39 241.98,-486 229.15,-478.65 219.53,-465.88 212.6,-453.25"/>
<polygon fill="#000000" stroke="#000000" points="215.64,-451.51 208.03,-444.15 209.39,-454.66 215.64,-451.51"/>
<text text-anchor="middle" x="409.98" y="-557.4" font-family="Times,serif" font-size="32.00">be_1</text>
<text text-anchor="middle" x="409.98" y="-522.4" font-family="Times,serif" font-size="32.00">=prog v</text>
</g>
<!-- prog&#45;&gt;perf -->
<g id="edge17" class="edge">
<title>prog&#45;&gt;perf</title>
<path fill="none" stroke="#000000" d="M657.36,-478.74C648.25,-472.29 639.08,-464.6 631.98,-456 619.57,-440.97 630.33,-426.63 613.98,-416 569.71,-387.22 507.72,-391.78 463.93,-400.52"/>
<polygon fill="#000000" stroke="#000000" points="463.09,-397.12 454.04,-402.63 464.55,-403.97 463.09,-397.12"/>
<text text-anchor="middle" x="545.98" y="-460.4" font-family="Times,serif" font-size="32.00">ben</text>
<text text-anchor="middle" x="545.98" y="-425.4" font-family="Times,serif" font-size="32.00">=prog perf</text>
</g>
<!-- perf&#45;&gt;v -->
<g id="edge29" class="edge">
<title>perf&#45;&gt;v</title>
<path fill="none" stroke="#000000" d="M361.89,-415.22C323.37,-415.41 269.67,-415.66 234.38,-415.83"/>
<polygon fill="#000000" stroke="#000000" points="234.04,-412.33 224.06,-415.88 234.08,-419.33 234.04,-412.33"/>
<text text-anchor="middle" x="291.98" y="-460.4" font-family="Times,serif" font-size="32.00">have</text>
<text text-anchor="middle" x="291.98" y="-425.4" font-family="Times,serif" font-size="32.00">=perf v</text>
</g>
<!-- pass&#45;&gt;2 -->
<g id="edge18" class="edge">
<title>pass&#45;&gt;2</title>
<path fill="none" stroke="#000000" d="M1186.06,-397.45C1143.87,-407.57 1079.9,-416.26 1029.98,-394 1021.65,-390.28 1014.24,-384.13 1007.98,-377.41"/>
<polygon fill="#000000" stroke="#000000" points="1010.32,-374.75 1001.18,-369.38 1004.98,-379.27 1010.32,-374.75"/>
<text text-anchor="middle" x="1096.48" y="-452.4" font-family="Times,serif" font-size="32.00">be_2</text>
<text text-anchor="middle" x="1096.48" y="-417.4" font-family="Times,serif" font-size="32.00">=pass 2</text>
</g>
<!-- c2&#45;&gt;1 -->
<g id="edge13" class="edge">
<title>c2&#45;&gt;1</title>
<path fill="none" stroke="#000000" d="M1441.19,-955.48C1434.05,-951.97 1426.28,-948.54 1418.81,-946 1368.21,-928.83 1341.76,-957.32 1300.81,-923 1260.28,-889.04 1243.86,-827.91 1237.26,-787.39"/>
<polygon fill="#000000" stroke="#000000" points="1240.69,-786.68 1235.75,-777.31 1233.77,-787.72 1240.69,-786.68"/>
<text text-anchor="middle" x="1359.81" y="-1095.4" font-family="Times,serif" font-size="32.00">declare |</text>
<text text-anchor="middle" x="1359.81" y="-1060.4" font-family="Times,serif" font-size="32.00"> think |</text>
<text text-anchor="middle" x="1359.81" y="-1025.4" font-family="Times,serif" font-size="32.00"> explain |</text>
<text text-anchor="middle" x="1359.81" y="-990.4" font-family="Times,serif" font-size="32.00"> say</text>
<text text-anchor="middle" x="1359.81" y="-955.4" font-family="Times,serif" font-size="32.00">=c2 1</text>
</g>
<!-- 3 -->
<g id="node15" class="node">
<title>3</title>
<ellipse fill="none" stroke="black" cx="1231.89" cy="-229" rx="27" ry="30.31"/>
<text text-anchor="middle" x="1231.89" y="-220.9" font-family="Times,serif" font-size="32.00">3</text>
</g>
<!-- 3&#45;&gt;0 -->
<g id="edge21" class="edge">
<title>3&#45;&gt;0</title>
<path fill="none" stroke="#000000" d="M1217.04,-254.4C1205.25,-277.35 1188.98,-312.42 1180.98,-345 1168.28,-396.73 1196.61,-542.69 1162.98,-584 1097.89,-663.97 1041.85,-632.02 939.98,-648 931.77,-649.29 350.29,-666.87 341.98,-667 297.54,-667.71 285.85,-674.15 241.98,-667 176.91,-656.39 104.85,-628.6 63.73,-611.1"/>
<polygon fill="#000000" stroke="#000000" points="65.02,-607.84 54.45,-607.1 62.25,-614.27 65.02,-607.84"/>
<text text-anchor="middle" x="545.98" y="-707.4" font-family="Times,serif" font-size="32.00">ε_4</text>
<text text-anchor="middle" x="545.98" y="-672.4" font-family="Times,serif" font-size="32.00">=&gt;3 =to 0</text>
</g>
<!-- 3&#45;&gt;v -->
<g id="edge23" class="edge">
<title>3&#45;&gt;v</title>
<path fill="none" stroke="#000000" d="M1212.31,-207.8C1174.25,-166.87 1082.86,-81 985.98,-81 985.98,-81 985.98,-81 408.98,-81 270.96,-81 219.65,-287.11 203.93,-375.99"/>
<polygon fill="#000000" stroke="#000000" points="200.46,-375.53 202.23,-385.98 207.36,-376.71 200.46,-375.53"/>
<text text-anchor="middle" x="695.48" y="-125.4" font-family="Times,serif" font-size="32.00">ε_5</text>
<text text-anchor="middle" x="695.48" y="-90.4" font-family="Times,serif" font-size="32.00">=&gt;3 =to v</text>
</g>
<!-- 3&#45;&gt;2 -->
<g id="edge25" class="edge">
<title>3&#45;&gt;2</title>
<path fill="none" stroke="#000000" d="M1214.85,-253.13C1202.65,-269.43 1184.34,-289.93 1162.98,-301 1109.97,-328.48 1086.49,-300.69 1029.98,-320 1025.87,-321.41 1021.7,-323.2 1017.65,-325.19"/>
<polygon fill="#000000" stroke="#000000" points="1015.69,-322.27 1008.51,-330.06 1018.98,-328.45 1015.69,-322.27"/>
<text text-anchor="middle" x="1096.48" y="-364.4" font-family="Times,serif" font-size="32.00">ε_6</text>
<text text-anchor="middle" x="1096.48" y="-329.4" font-family="Times,serif" font-size="32.00">=&gt;3 =to 2</text>
</g>
<!-- 3&#45;&gt;2 -->
<g id="edge27" class="edge">
<title>3&#45;&gt;2</title>
<path fill="none" stroke="#000000" d="M1205.03,-225.16C1157.27,-218.63 1057.56,-207.85 1029.98,-227 1004.9,-244.42 994.09,-277.95 989.45,-304.83"/>
<polygon fill="#000000" stroke="#000000" points="985.98,-304.35 987.95,-314.76 992.9,-305.39 985.98,-304.35"/>
<text text-anchor="middle" x="1096.48" y="-271.4" font-family="Times,serif" font-size="32.00">ε_8</text>
<text text-anchor="middle" x="1096.48" y="-236.4" font-family="Times,serif" font-size="32.00">=&gt;3 =c1 2</text>
</g>
<!-- 3&#45;&gt;perf -->
<g id="edge24" class="edge">
<title>3&#45;&gt;perf</title>
<path fill="none" stroke="#000000" d="M1205.55,-222.2C1102.63,-196.21 710.34,-112.97 477.98,-286 448.83,-307.71 431.28,-345.82 421.49,-375.01"/>
<polygon fill="#000000" stroke="#000000" points="418.04,-374.33 418.35,-384.92 424.71,-376.44 418.04,-374.33"/>
<text text-anchor="middle" x="858.48" y="-227.4" font-family="Times,serif" font-size="32.00">n_2</text>
<text text-anchor="middle" x="858.48" y="-192.4" font-family="Times,serif" font-size="32.00">=&gt;3 =to perf</text>
</g>
<!-- z3 -->
<g id="node16" class="node">
<title>z3</title>
<ellipse fill="none" stroke="black" stroke-dasharray="5,2" cx="1470.04" cy="-223" rx="27" ry="18"/>
</g>
<!-- z3&#45;&gt;3 -->
<g id="edge22" class="edge">
<title>z3&#45;&gt;3</title>
<path fill="none" stroke="#000000" d="M1442.8,-222.61C1409.69,-222.24 1351,-222.01 1300.81,-224 1290.55,-224.41 1279.44,-225.11 1269.23,-225.87"/>
<polygon fill="#000000" stroke="#000000" points="1268.69,-222.4 1258.99,-226.66 1269.23,-229.38 1268.69,-222.4"/>
<text text-anchor="middle" x="1359.81" y="-303.4" font-family="Times,serif" font-size="32.00">seem |</text>
<text text-anchor="middle" x="1359.81" y="-268.4" font-family="Times,serif" font-size="32.00"> appear</text>
<text text-anchor="middle" x="1359.81" y="-233.4" font-family="Times,serif" font-size="32.00">3</text>
</g>
<!-- z4 -->
<g id="node17" class="node">
<title>z4</title>
<ellipse fill="none" stroke="black" stroke-dasharray="5,2" cx="1825.27" cy="-1214" rx="27" ry="18"/>
</g>
<!-- e -->
<g id="node18" class="node">
<title>e</title>
<ellipse fill="none" stroke="black" cx="1672.27" cy="-1214" rx="27" ry="30.31"/>
<text text-anchor="middle" x="1672.27" y="-1205.9" font-family="Times,serif" font-size="32.00">e</text>
</g>
<!-- z4&#45;&gt;e -->
<g id="edge30" class="edge">
<title>z4&#45;&gt;e</title>
<path fill="none" stroke="#000000" d="M1797.97,-1214C1773.5,-1214 1736.83,-1214 1709.58,-1214"/>
<polygon fill="#000000" stroke="#000000" points="1709.27,-1210.5 1699.27,-1214 1709.27,-1217.5 1709.27,-1210.5"/>
<text text-anchor="middle" x="1748.77" y="-1258.4" font-family="Times,serif" font-size="32.00">it</text>
<text text-anchor="middle" x="1748.77" y="-1223.4" font-family="Times,serif" font-size="32.00">e &#45;k</text>
</g>
</g>
</svg>
