<?xml version="1.0" encoding="UTF-8" standalone="no"?>
<!DOCTYPE svg PUBLIC "-//W3C//DTD SVG 1.1//EN"
 "http://www.w3.org/Graphics/SVG/1.1/DTD/svg11.dtd">
<!-- Generated by graphviz version 2.47.1 (20210417.1919)
 -->
<!-- Title: G Pages: 1 -->
<svg width="1860pt" height="1168pt"
 viewBox="0.00 0.00 1860.27 1168.00" xmlns="http://www.w3.org/2000/svg" xmlns:xlink="http://www.w3.org/1999/xlink">
<g id="graph0" class="graph" transform="scale(1 1) rotate(0) translate(4 1164)">
<title>G</title>
<polygon fill="white" stroke="transparent" points="-4,4 -4,-1164 1856.27,-1164 1856.27,4 -4,4"/>
<text text-anchor="middle" x="926.14" y="-13.4" font-family="Times,serif" font-size="32.00">replacement: =&gt;2 0 with =&gt;2 v, =&gt;v 0</text>
<!-- t -->
<g id="node1" class="node">
<title>t</title>
<ellipse fill="lightgray" stroke="black" cx="1672.27" cy="-1011" rx="27" ry="30.31"/>
<text text-anchor="middle" x="1672.27" y="-1002.9" font-family="Times,serif" font-size="32.00">t</text>
</g>
<!-- c2 -->
<g id="node14" class="node">
<title>c2</title>
<ellipse fill="none" stroke="black" cx="1470.04" cy="-759" rx="33.47" ry="30.31"/>
<text text-anchor="middle" x="1470.04" y="-750.9" font-family="Times,serif" font-size="32.00">c2</text>
</g>
<!-- t&#45;&gt;c2 -->
<g id="edge32" class="edge">
<title>t&#45;&gt;c2</title>
<path fill="none" stroke="#000000" d="M1659.32,-983.84C1651.3,-966.85 1639.92,-944.87 1627.27,-927 1589.36,-873.42 1535.52,-819.21 1501.97,-787.38"/>
<polygon fill="#000000" stroke="#000000" points="1503.99,-784.47 1494.31,-780.17 1499.19,-789.57 1503.99,-784.47"/>
<text text-anchor="middle" x="1574.27" y="-971.4" font-family="Times,serif" font-size="32.00">that_1</text>
<text text-anchor="middle" x="1574.27" y="-936.4" font-family="Times,serif" font-size="32.00">=t c2</text>
</g>
<!-- c1 -->
<g id="node20" class="node">
<title>c1</title>
<ellipse fill="none" stroke="black" cx="1470.04" cy="-1069" rx="33.47" ry="30.31"/>
<text text-anchor="middle" x="1470.04" y="-1060.9" font-family="Times,serif" font-size="32.00">c1</text>
</g>
<!-- t&#45;&gt;c1 -->
<g id="edge31" class="edge">
<title>t&#45;&gt;c1</title>
<path fill="none" stroke="#000000" d="M1646.19,-1019.14C1640.02,-1021.1 1633.42,-1023.16 1627.27,-1025 1588.3,-1036.68 1543.6,-1049.18 1512.02,-1057.86"/>
<polygon fill="#000000" stroke="#000000" points="1510.97,-1054.52 1502.25,-1060.54 1512.82,-1061.27 1510.97,-1054.52"/>
<text text-anchor="middle" x="1574.27" y="-1098.4" font-family="Times,serif" font-size="32.00">that</text>
<text text-anchor="middle" x="1574.27" y="-1063.4" font-family="Times,serif" font-size="32.00">=t =e c1</text>
</g>
<!-- z0 -->
<g id="node2" class="node">
<title>z0</title>
<ellipse fill="none" stroke="black" stroke-dasharray="5,2" cx="1672.27" cy="-297" rx="27" ry="18"/>
</g>
<!-- d -->
<g id="node3" class="node">
<title>d</title>
<ellipse fill="none" stroke="black" cx="1470.04" cy="-396" rx="27" ry="30.31"/>
<text text-anchor="middle" x="1470.04" y="-387.9" font-family="Times,serif" font-size="32.00">d</text>
</g>
<!-- z0&#45;&gt;d -->
<g id="edge1" class="edge">
<title>z0&#45;&gt;d</title>
<path fill="none" stroke="#000000" d="M1647.11,-289.99C1615.61,-282.36 1559.97,-274.17 1521.27,-298 1500.47,-310.81 1487.92,-335.24 1480.57,-356.51"/>
<polygon fill="#000000" stroke="#000000" points="1477.15,-355.72 1477.45,-366.31 1483.82,-357.84 1477.15,-355.72"/>
<text text-anchor="middle" x="1574.27" y="-447.4" font-family="Times,serif" font-size="32.00">Mary |</text>
<text text-anchor="middle" x="1574.27" y="-412.4" font-family="Times,serif" font-size="32.00"> John |</text>
<text text-anchor="middle" x="1574.27" y="-377.4" font-family="Times,serif" font-size="32.00"> Alice |</text>
<text text-anchor="middle" x="1574.27" y="-342.4" font-family="Times,serif" font-size="32.00"> Bob</text>
<text text-anchor="middle" x="1574.27" y="-307.4" font-family="Times,serif" font-size="32.00">d &#45;k</text>
</g>
<!-- 1 -->
<g id="node7" class="node">
<title>1</title>
<ellipse fill="none" stroke="black" cx="1231.89" cy="-307" rx="27" ry="30.31"/>
<text text-anchor="middle" x="1231.89" y="-298.9" font-family="Times,serif" font-size="32.00">1</text>
</g>
<!-- d&#45;&gt;1 -->
<g id="edge11" class="edge">
<title>d&#45;&gt;1</title>
<path fill="none" stroke="#000000" d="M1462.65,-366.27C1455.97,-343.2 1442.95,-312.76 1418.81,-298 1372.52,-269.71 1306.98,-282.4 1267.36,-294.48"/>
<polygon fill="#000000" stroke="#000000" points="1266.08,-291.21 1257.63,-297.6 1268.22,-297.88 1266.08,-291.21"/>
<text text-anchor="middle" x="1359.81" y="-447.4" font-family="Times,serif" font-size="32.00">praise |</text>
<text text-anchor="middle" x="1359.81" y="-412.4" font-family="Times,serif" font-size="32.00"> like |</text>
<text text-anchor="middle" x="1359.81" y="-377.4" font-family="Times,serif" font-size="32.00"> kiss |</text>
<text text-anchor="middle" x="1359.81" y="-342.4" font-family="Times,serif" font-size="32.00"> hug</text>
<text text-anchor="middle" x="1359.81" y="-307.4" font-family="Times,serif" font-size="32.00">=d *k 1</text>
</g>
<!-- pass -->
<g id="node13" class="node">
<title>pass</title>
<ellipse fill="none" stroke="black" cx="1231.89" cy="-499" rx="50.82" ry="30.31"/>
<text text-anchor="middle" x="1231.89" y="-490.9" font-family="Times,serif" font-size="32.00">pass</text>
</g>
<!-- d&#45;&gt;pass -->
<g id="edge12" class="edge">
<title>d&#45;&gt;pass</title>
<path fill="none" stroke="#000000" d="M1458.17,-423.6C1449.97,-440.67 1437,-461.45 1418.81,-473 1398.41,-485.95 1339.26,-492.63 1293.1,-495.94"/>
<polygon fill="#000000" stroke="#000000" points="1292.62,-492.47 1282.88,-496.64 1293.09,-499.45 1292.62,-492.47"/>
<text text-anchor="middle" x="1359.81" y="-645.4" font-family="Times,serif" font-size="32.00">praisen |</text>
<text text-anchor="middle" x="1359.81" y="-610.4" font-family="Times,serif" font-size="32.00"> liken |</text>
<text text-anchor="middle" x="1359.81" y="-575.4" font-family="Times,serif" font-size="32.00"> kissn |</text>
<text text-anchor="middle" x="1359.81" y="-540.4" font-family="Times,serif" font-size="32.00"> hugn</text>
<text text-anchor="middle" x="1359.81" y="-505.4" font-family="Times,serif" font-size="32.00">=d pass</text>
</g>
<!-- n -->
<g id="node4" class="node">
<title>n</title>
<ellipse fill="none" stroke="black" cx="1672.27" cy="-495" rx="27" ry="30.31"/>
<text text-anchor="middle" x="1672.27" y="-486.9" font-family="Times,serif" font-size="32.00">n</text>
</g>
<!-- n&#45;&gt;d -->
<g id="edge2" class="edge">
<title>n&#45;&gt;d</title>
<path fill="none" stroke="#000000" d="M1645.18,-497.36C1613.38,-498.92 1559.19,-497.26 1521.27,-473 1506.24,-463.38 1494.76,-447.48 1486.59,-432.62"/>
<polygon fill="#000000" stroke="#000000" points="1489.62,-430.85 1481.93,-423.56 1483.4,-434.06 1489.62,-430.85"/>
<text text-anchor="middle" x="1574.27" y="-647.4" font-family="Times,serif" font-size="32.00">this |</text>
<text text-anchor="middle" x="1574.27" y="-612.4" font-family="Times,serif" font-size="32.00"> a |</text>
<text text-anchor="middle" x="1574.27" y="-577.4" font-family="Times,serif" font-size="32.00"> the |</text>
<text text-anchor="middle" x="1574.27" y="-542.4" font-family="Times,serif" font-size="32.00"> some</text>
<text text-anchor="middle" x="1574.27" y="-507.4" font-family="Times,serif" font-size="32.00">=n d &#45;k</text>
</g>
<!-- z1 -->
<g id="node5" class="node">
<title>z1</title>
<ellipse fill="none" stroke="black" stroke-dasharray="5,2" cx="1825.27" cy="-495" rx="27" ry="18"/>
</g>
<!-- z1&#45;&gt;n -->
<g id="edge3" class="edge">
<title>z1&#45;&gt;n</title>
<path fill="none" stroke="#000000" d="M1797.97,-495C1773.5,-495 1736.83,-495 1709.58,-495"/>
<polygon fill="#000000" stroke="#000000" points="1709.27,-491.5 1699.27,-495 1709.27,-498.5 1709.27,-491.5"/>
<text text-anchor="middle" x="1748.77" y="-574.4" font-family="Times,serif" font-size="32.00">boy |</text>
<text text-anchor="middle" x="1748.77" y="-539.4" font-family="Times,serif" font-size="32.00"> girl</text>
<text text-anchor="middle" x="1748.77" y="-504.4" font-family="Times,serif" font-size="32.00">n</text>
</g>
<!-- 0 -->
<g id="node6" class="node">
<title>0</title>
<ellipse fill="none" stroke="black" cx="28.99" cy="-744" rx="27" ry="30.31"/>
<text text-anchor="middle" x="28.99" y="-735.9" font-family="Times,serif" font-size="32.00">0</text>
</g>
<!-- 0&#45;&gt;t -->
<g id="edge4" class="edge">
<title>0&#45;&gt;t</title>
<path fill="none" stroke="#000000" d="M34.19,-773.85C45.83,-843.52 85.32,-1011 195.98,-1011 1471.04,-1011 1471.04,-1011 1471.04,-1011 1528.32,-1011 1594.82,-1011 1634.94,-1011"/>
<polygon fill="#000000" stroke="#000000" points="1635.04,-1014.5 1645.04,-1011 1635.04,-1007.5 1635.04,-1014.5"/>
<text text-anchor="middle" x="858.48" y="-1090.4" font-family="Times,serif" font-size="32.00">s |</text>
<text text-anchor="middle" x="858.48" y="-1055.4" font-family="Times,serif" font-size="32.00"> d</text>
<text text-anchor="middle" x="858.48" y="-1020.4" font-family="Times,serif" font-size="32.00">=&gt;0 +k t</text>
</g>
<!-- 1&#45;&gt;0 -->
<g id="edge5" class="edge">
<title>1&#45;&gt;0</title>
<path fill="none" stroke="#000000" d="M1207.84,-293.15C1165.48,-269.07 1071.72,-222 985.98,-222 985.98,-222 985.98,-222 195.98,-222 59.77,-222 115.69,-373.71 75.98,-504 55.01,-572.81 41.64,-655.76 35.01,-703.92"/>
<polygon fill="#000000" stroke="#000000" points="31.52,-703.57 33.66,-713.95 38.46,-704.5 31.52,-703.57"/>
<text text-anchor="middle" x="545.98" y="-266.4" font-family="Times,serif" font-size="32.00">ε_0</text>
<text text-anchor="middle" x="545.98" y="-231.4" font-family="Times,serif" font-size="32.00">=&gt;1 =d 0</text>
</g>
<!-- v -->
<g id="node9" class="node">
<title>v</title>
<ellipse fill="none" stroke="black" cx="196.98" cy="-563" rx="27" ry="30.31"/>
<text text-anchor="middle" x="196.98" y="-554.9" font-family="Times,serif" font-size="32.00">v</text>
</g>
<!-- 1&#45;&gt;v -->
<g id="edge7" class="edge">
<title>1&#45;&gt;v</title>
<path fill="none" stroke="#000000" d="M1204.8,-307C1160.03,-307 1065.71,-307 985.98,-307 985.98,-307 985.98,-307 408.98,-307 297.59,-307 234.08,-453.11 209.68,-524.57"/>
<polygon fill="#000000" stroke="#000000" points="206.33,-523.54 206.5,-534.13 212.98,-525.75 206.33,-523.54"/>
<text text-anchor="middle" x="695.48" y="-351.4" font-family="Times,serif" font-size="32.00">ε_1</text>
<text text-anchor="middle" x="695.48" y="-316.4" font-family="Times,serif" font-size="32.00">=&gt;1 =d v</text>
</g>
<!-- 2 -->
<g id="node10" class="node">
<title>2</title>
<ellipse fill="none" stroke="black" cx="984.98" cy="-628" rx="27" ry="30.31"/>
<text text-anchor="middle" x="984.98" y="-619.9" font-family="Times,serif" font-size="32.00">2</text>
</g>
<!-- 1&#45;&gt;2 -->
<g id="edge9" class="edge">
<title>1&#45;&gt;2</title>
<path fill="none" stroke="#000000" d="M1216.63,-332.49C1204.7,-351.46 1185.97,-376.48 1162.98,-391 1111.59,-423.48 1072.44,-379.48 1029.98,-423 1007.58,-445.96 995.17,-534.48 989.61,-587.4"/>
<polygon fill="#000000" stroke="#000000" points="986.12,-587.17 988.59,-597.48 993.08,-587.88 986.12,-587.17"/>
<text text-anchor="middle" x="1096.48" y="-467.4" font-family="Times,serif" font-size="32.00">ε_2</text>
<text text-anchor="middle" x="1096.48" y="-432.4" font-family="Times,serif" font-size="32.00">=&gt;1 =d 2</text>
</g>
<!-- perf -->
<g id="node12" class="node">
<title>perf</title>
<ellipse fill="none" stroke="black" cx="409.98" cy="-623" rx="48.17" ry="30.31"/>
<text text-anchor="middle" x="409.98" y="-614.9" font-family="Times,serif" font-size="32.00">perf</text>
</g>
<!-- 1&#45;&gt;perf -->
<g id="edge10" class="edge">
<title>1&#45;&gt;perf</title>
<path fill="none" stroke="#000000" d="M1206.33,-318.06C1137.21,-348.81 934.66,-436.38 758.98,-487 636.62,-522.26 587.52,-478.06 477.98,-543 460.23,-553.52 445.01,-570.52 433.59,-586.15"/>
<polygon fill="#000000" stroke="#000000" points="430.51,-584.44 427.64,-594.64 436.24,-588.46 430.51,-584.44"/>
<text text-anchor="middle" x="858.48" y="-526.4" font-family="Times,serif" font-size="32.00">n</text>
<text text-anchor="middle" x="858.48" y="-491.4" font-family="Times,serif" font-size="32.00">=&gt;1 =d perf</text>
</g>
<!-- z2 -->
<g id="node8" class="node">
<title>z2</title>
<ellipse fill="none" stroke="black" stroke-dasharray="5,2" cx="1470.04" cy="-99" rx="27" ry="18"/>
</g>
<!-- z2&#45;&gt;1 -->
<g id="edge6" class="edge">
<title>z2&#45;&gt;1</title>
<path fill="none" stroke="#000000" d="M1445.15,-91.55C1409.86,-82.14 1343.39,-70.66 1300.81,-102 1249.32,-139.88 1236.29,-218.23 1233.33,-266.34"/>
<polygon fill="#000000" stroke="#000000" points="1229.83,-266.26 1232.83,-276.42 1236.82,-266.6 1229.83,-266.26"/>
<text text-anchor="middle" x="1359.81" y="-251.4" font-family="Times,serif" font-size="32.00">dance |</text>
<text text-anchor="middle" x="1359.81" y="-216.4" font-family="Times,serif" font-size="32.00"> laugh |</text>
<text text-anchor="middle" x="1359.81" y="-181.4" font-family="Times,serif" font-size="32.00"> smile |</text>
<text text-anchor="middle" x="1359.81" y="-146.4" font-family="Times,serif" font-size="32.00"> jump</text>
<text text-anchor="middle" x="1359.81" y="-111.4" font-family="Times,serif" font-size="32.00">1</text>
</g>
<!-- v&#45;&gt;0 -->
<g id="edge14" class="edge">
<title>v&#45;&gt;0</title>
<path fill="none" stroke="#000000" d="M172.67,-576.87C166.12,-580.45 158.89,-584.11 151.98,-587 119.43,-600.63 101.39,-585.51 75.98,-610 50.48,-634.58 39.11,-673.92 34.05,-703.62"/>
<polygon fill="#000000" stroke="#000000" points="30.57,-703.28 32.51,-713.69 37.49,-704.33 30.57,-703.28"/>
<text text-anchor="middle" x="113.98" y="-654.4" font-family="Times,serif" font-size="32.00">will</text>
<text text-anchor="middle" x="113.98" y="-619.4" font-family="Times,serif" font-size="32.00">=v 0</text>
</g>
<!-- v&#45;&gt;0 -->
<g id="edge27" class="edge">
<title>v&#45;&gt;0</title>
<path fill="none" stroke="#000000" d="M192.21,-593.04C187.35,-619.46 176.38,-657.16 151.98,-680 126.22,-704.12 106.77,-685.74 75.98,-703 69.31,-706.74 62.78,-711.59 56.83,-716.64"/>
<polygon fill="#000000" stroke="#000000" points="54.22,-714.27 49.12,-723.56 58.9,-719.48 54.22,-714.27"/>
<text text-anchor="middle" x="113.98" y="-747.4" font-family="Times,serif" font-size="32.00">ε_8</text>
<text text-anchor="middle" x="113.98" y="-712.4" font-family="Times,serif" font-size="32.00">=&gt;v 0</text>
</g>
<!-- to -->
<g id="node19" class="node">
<title>to</title>
<ellipse fill="none" stroke="black" cx="28.99" cy="-516" rx="28.98" ry="30.31"/>
<text text-anchor="middle" x="28.99" y="-507.9" font-family="Times,serif" font-size="32.00">to</text>
</g>
<!-- v&#45;&gt;to -->
<g id="edge30" class="edge">
<title>v&#45;&gt;to</title>
<path fill="none" stroke="#000000" d="M179.85,-539.4C172.48,-530.66 162.94,-521.73 151.98,-517 125.61,-505.61 92.95,-506 68.05,-508.9"/>
<polygon fill="#000000" stroke="#000000" points="67.35,-505.46 57.9,-510.26 68.28,-512.4 67.35,-505.46"/>
<text text-anchor="middle" x="113.98" y="-561.4" font-family="Times,serif" font-size="32.00">to</text>
<text text-anchor="middle" x="113.98" y="-526.4" font-family="Times,serif" font-size="32.00">=v to</text>
</g>
<!-- 2&#45;&gt;v -->
<g id="edge19" class="edge">
<title>2&#45;&gt;v</title>
<path fill="none" stroke="#000000" d="M958.7,-620.76C899.23,-604.16 745.55,-563.72 613.98,-550 553.86,-543.73 538.41,-548.6 477.98,-550 390.41,-552.03 287.56,-557.63 234.21,-560.78"/>
<polygon fill="#000000" stroke="#000000" points="233.99,-557.29 224.22,-561.38 234.41,-564.27 233.99,-557.29"/>
<text text-anchor="middle" x="545.98" y="-594.4" font-family="Times,serif" font-size="32.00">ε_3</text>
<text text-anchor="middle" x="545.98" y="-559.4" font-family="Times,serif" font-size="32.00">=&gt;2 v</text>
</g>
<!-- prog -->
<g id="node11" class="node">
<title>prog</title>
<ellipse fill="none" stroke="black" cx="695.48" cy="-747" rx="52.15" ry="30.31"/>
<text text-anchor="middle" x="695.48" y="-738.9" font-family="Times,serif" font-size="32.00">prog</text>
</g>
<!-- 2&#45;&gt;prog -->
<g id="edge8" class="edge">
<title>2&#45;&gt;prog</title>
<path fill="none" stroke="#000000" d="M959.47,-638.15C912.78,-657.47 810.19,-699.94 747.84,-725.74"/>
<polygon fill="#000000" stroke="#000000" points="746.47,-722.52 738.57,-729.58 749.15,-728.99 746.47,-722.52"/>
<text text-anchor="middle" x="858.48" y="-756.4" font-family="Times,serif" font-size="32.00">ing</text>
<text text-anchor="middle" x="858.48" y="-721.4" font-family="Times,serif" font-size="32.00">=&gt;2 prog</text>
</g>
<!-- 2&#45;&gt;perf -->
<g id="edge20" class="edge">
<title>2&#45;&gt;perf</title>
<path fill="none" stroke="#000000" d="M957.87,-627.77C871.08,-627.01 590.81,-624.57 468.72,-623.5"/>
<polygon fill="#000000" stroke="#000000" points="468.48,-620 458.45,-623.41 468.42,-627 468.48,-620"/>
<text text-anchor="middle" x="695.48" y="-670.4" font-family="Times,serif" font-size="32.00">n_1</text>
<text text-anchor="middle" x="695.48" y="-635.4" font-family="Times,serif" font-size="32.00">=&gt;2 perf</text>
</g>
<!-- prog&#45;&gt;0 -->
<g id="edge15" class="edge">
<title>prog&#45;&gt;0</title>
<path fill="none" stroke="#000000" d="M645.64,-756.26C635.22,-758.02 624.26,-759.71 613.98,-761 376.68,-790.81 305.75,-839.39 75.98,-773 70.66,-771.46 65.35,-769.1 60.34,-766.38"/>
<polygon fill="#000000" stroke="#000000" points="62.07,-763.33 51.69,-761.18 58.46,-769.33 62.07,-763.33"/>
<text text-anchor="middle" x="291.98" y="-851.4" font-family="Times,serif" font-size="32.00">be</text>
<text text-anchor="middle" x="291.98" y="-816.4" font-family="Times,serif" font-size="32.00">=prog 0</text>
</g>
<!-- prog&#45;&gt;v -->
<g id="edge16" class="edge">
<title>prog&#45;&gt;v</title>
<path fill="none" stroke="#000000" d="M645.49,-756.09C598.91,-762.06 528.64,-763.88 477.98,-733 464.71,-724.91 473,-711.51 459.98,-703 378.22,-649.54 319.03,-735.05 241.98,-675 219.83,-657.73 208.81,-627.7 203.34,-603.08"/>
<polygon fill="#000000" stroke="#000000" points="206.77,-602.38 201.38,-593.26 199.9,-603.75 206.77,-602.38"/>
<text text-anchor="middle" x="409.98" y="-747.4" font-family="Times,serif" font-size="32.00">be_1</text>
<text text-anchor="middle" x="409.98" y="-712.4" font-family="Times,serif" font-size="32.00">=prog v</text>
</g>
<!-- prog&#45;&gt;perf -->
<g id="edge17" class="edge">
<title>prog&#45;&gt;perf</title>
<path fill="none" stroke="#000000" d="M657.36,-725.74C648.25,-719.29 639.08,-711.6 631.98,-703 619.57,-687.97 629.41,-674.92 613.98,-663 565.47,-625.52 537.96,-652.66 477.98,-640 473.57,-639.07 469.01,-638.04 464.44,-636.97"/>
<polygon fill="#000000" stroke="#000000" points="465.01,-633.51 454.47,-634.58 463.38,-640.32 465.01,-633.51"/>
<text text-anchor="middle" x="545.98" y="-707.4" font-family="Times,serif" font-size="32.00">ben</text>
<text text-anchor="middle" x="545.98" y="-672.4" font-family="Times,serif" font-size="32.00">=prog perf</text>
</g>
<!-- perf&#45;&gt;v -->
<g id="edge28" class="edge">
<title>perf&#45;&gt;v</title>
<path fill="none" stroke="#000000" d="M365.77,-610.71C326.54,-599.56 269.4,-583.31 232.96,-572.95"/>
<polygon fill="#000000" stroke="#000000" points="233.84,-569.56 223.27,-570.19 231.93,-576.29 233.84,-569.56"/>
<text text-anchor="middle" x="291.98" y="-648.4" font-family="Times,serif" font-size="32.00">have</text>
<text text-anchor="middle" x="291.98" y="-613.4" font-family="Times,serif" font-size="32.00">=perf v</text>
</g>
<!-- pass&#45;&gt;2 -->
<g id="edge18" class="edge">
<title>pass&#45;&gt;2</title>
<path fill="none" stroke="#000000" d="M1180.85,-496.13C1136.83,-496.2 1073.21,-502.91 1029.98,-536 1012.98,-549.01 1002.23,-570.26 995.61,-589.06"/>
<polygon fill="#000000" stroke="#000000" points="992.27,-588.02 992.51,-598.61 998.92,-590.18 992.27,-588.02"/>
<text text-anchor="middle" x="1096.48" y="-580.4" font-family="Times,serif" font-size="32.00">be_2</text>
<text text-anchor="middle" x="1096.48" y="-545.4" font-family="Times,serif" font-size="32.00">=pass 2</text>
</g>
<!-- c2&#45;&gt;1 -->
<g id="edge13" class="edge">
<title>c2&#45;&gt;1</title>
<path fill="none" stroke="#000000" d="M1455.64,-731.25C1447.13,-716.64 1434.72,-699.77 1418.81,-690 1373.54,-662.21 1336.94,-709.94 1300.81,-671 1268.79,-636.51 1292.17,-506.12 1282.81,-460 1274.56,-419.36 1259.09,-374.41 1247.56,-343.81"/>
<polygon fill="#000000" stroke="#000000" points="1250.8,-342.49 1243.96,-334.4 1244.26,-344.99 1250.8,-342.49"/>
<text text-anchor="middle" x="1359.81" y="-839.4" font-family="Times,serif" font-size="32.00">declare |</text>
<text text-anchor="middle" x="1359.81" y="-804.4" font-family="Times,serif" font-size="32.00"> think |</text>
<text text-anchor="middle" x="1359.81" y="-769.4" font-family="Times,serif" font-size="32.00"> explain |</text>
<text text-anchor="middle" x="1359.81" y="-734.4" font-family="Times,serif" font-size="32.00"> say</text>
<text text-anchor="middle" x="1359.81" y="-699.4" font-family="Times,serif" font-size="32.00">=c2 1</text>
</g>
<!-- 3 -->
<g id="node15" class="node">
<title>3</title>
<ellipse fill="none" stroke="black" cx="1231.89" cy="-764" rx="27" ry="30.31"/>
<text text-anchor="middle" x="1231.89" y="-755.9" font-family="Times,serif" font-size="32.00">3</text>
</g>
<!-- 3&#45;&gt;0 -->
<g id="edge21" class="edge">
<title>3&#45;&gt;0</title>
<path fill="none" stroke="#000000" d="M1210.8,-783.01C1171.16,-818.44 1078.66,-891 985.98,-891 985.98,-891 985.98,-891 195.98,-891 128.42,-891 75.47,-821.9 48.86,-778.45"/>
<polygon fill="#000000" stroke="#000000" points="51.71,-776.4 43.59,-769.61 45.7,-779.99 51.71,-776.4"/>
<text text-anchor="middle" x="545.98" y="-935.4" font-family="Times,serif" font-size="32.00">ε_4</text>
<text text-anchor="middle" x="545.98" y="-900.4" font-family="Times,serif" font-size="32.00">=&gt;3 =to 0</text>
</g>
<!-- 3&#45;&gt;v -->
<g id="edge23" class="edge">
<title>3&#45;&gt;v</title>
<path fill="none" stroke="#000000" d="M1226.59,-734.14C1219.73,-697.92 1202.77,-637.66 1162.98,-605 1116.29,-566.67 1079.45,-611.67 1029.98,-577 967.87,-533.46 1006.27,-468.87 939.98,-432 693.95,-295.14 337.14,-481 229.73,-543.67"/>
<polygon fill="#000000" stroke="#000000" points="227.82,-540.74 220.98,-548.83 231.37,-546.77 227.82,-540.74"/>
<text text-anchor="middle" x="695.48" y="-436.4" font-family="Times,serif" font-size="32.00">ε_5</text>
<text text-anchor="middle" x="695.48" y="-401.4" font-family="Times,serif" font-size="32.00">=&gt;3 =to v</text>
</g>
<!-- 3&#45;&gt;2 -->
<g id="edge25" class="edge">
<title>3&#45;&gt;2</title>
<path fill="none" stroke="#000000" d="M1209.08,-747.51C1196.29,-738.63 1179.44,-728.24 1162.98,-722 1106.89,-700.72 1079.71,-732.56 1029.98,-699 1017.6,-690.65 1008.06,-677.52 1001.08,-664.82"/>
<polygon fill="#000000" stroke="#000000" points="1004.1,-663.04 996.44,-655.71 997.86,-666.21 1004.1,-663.04"/>
<text text-anchor="middle" x="1096.48" y="-766.4" font-family="Times,serif" font-size="32.00">ε_6</text>
<text text-anchor="middle" x="1096.48" y="-731.4" font-family="Times,serif" font-size="32.00">=&gt;3 =to 2</text>
</g>
<!-- 3&#45;&gt;2 -->
<g id="edge26" class="edge">
<title>3&#45;&gt;2</title>
<path fill="none" stroke="#000000" d="M1225.84,-734.19C1218.44,-700.98 1201.14,-648.83 1162.98,-625 1120.09,-598.22 1059.22,-607.1 1021.2,-616.87"/>
<polygon fill="#000000" stroke="#000000" points="1019.84,-613.61 1011.11,-619.62 1021.68,-620.36 1019.84,-613.61"/>
<text text-anchor="middle" x="1096.48" y="-669.4" font-family="Times,serif" font-size="32.00">ε_7</text>
<text text-anchor="middle" x="1096.48" y="-634.4" font-family="Times,serif" font-size="32.00">=&gt;3 =c1 2</text>
</g>
<!-- 3&#45;&gt;perf -->
<g id="edge24" class="edge">
<title>3&#45;&gt;perf</title>
<path fill="none" stroke="#000000" d="M1207.1,-776.5C1194.38,-782.48 1178.24,-788.98 1162.98,-792 1105,-803.48 1089.09,-792.45 1029.98,-792 853.08,-790.67 806.59,-814.46 631.98,-786 561.09,-774.45 528.85,-787.71 477.98,-737 459.47,-718.54 472.66,-703.86 459.98,-681 455.29,-672.53 449.26,-664.15 443.04,-656.5"/>
<polygon fill="#000000" stroke="#000000" points="445.41,-653.89 436.27,-648.52 440.07,-658.41 445.41,-653.89"/>
<text text-anchor="middle" x="858.48" y="-845.4" font-family="Times,serif" font-size="32.00">n_2</text>
<text text-anchor="middle" x="858.48" y="-810.4" font-family="Times,serif" font-size="32.00">=&gt;3 =to perf</text>
</g>
<!-- z3 -->
<g id="node16" class="node">
<title>z3</title>
<ellipse fill="none" stroke="black" stroke-dasharray="5,2" cx="1470.04" cy="-891" rx="27" ry="18"/>
</g>
<!-- z3&#45;&gt;3 -->
<g id="edge22" class="edge">
<title>z3&#45;&gt;3</title>
<path fill="none" stroke="#000000" d="M1443.05,-890.23C1401.86,-888.59 1323.9,-883.59 1300.81,-869 1275.8,-853.21 1258.18,-824.49 1247.16,-801.07"/>
<polygon fill="#000000" stroke="#000000" points="1250.26,-799.44 1242.98,-791.74 1243.88,-802.3 1250.26,-799.44"/>
<text text-anchor="middle" x="1359.81" y="-968.4" font-family="Times,serif" font-size="32.00">seem |</text>
<text text-anchor="middle" x="1359.81" y="-933.4" font-family="Times,serif" font-size="32.00"> appear</text>
<text text-anchor="middle" x="1359.81" y="-898.4" font-family="Times,serif" font-size="32.00">3</text>
</g>
<!-- z4 -->
<g id="node17" class="node">
<title>z4</title>
<ellipse fill="none" stroke="black" stroke-dasharray="5,2" cx="1825.27" cy="-1090" rx="27" ry="18"/>
</g>
<!-- e -->
<g id="node18" class="node">
<title>e</title>
<ellipse fill="none" stroke="black" cx="1672.27" cy="-1090" rx="27" ry="30.31"/>
<text text-anchor="middle" x="1672.27" y="-1081.9" font-family="Times,serif" font-size="32.00">e</text>
</g>
<!-- z4&#45;&gt;e -->
<g id="edge29" class="edge">
<title>z4&#45;&gt;e</title>
<path fill="none" stroke="#000000" d="M1797.97,-1090C1773.5,-1090 1736.83,-1090 1709.58,-1090"/>
<polygon fill="#000000" stroke="#000000" points="1709.27,-1086.5 1699.27,-1090 1709.27,-1093.5 1709.27,-1086.5"/>
<text text-anchor="middle" x="1748.77" y="-1134.4" font-family="Times,serif" font-size="32.00">it</text>
<text text-anchor="middle" x="1748.77" y="-1099.4" font-family="Times,serif" font-size="32.00">e &#45;k</text>
</g>
</g>
</svg>
