<?xml version="1.0" encoding="UTF-8" standalone="no"?>
<!DOCTYPE svg PUBLIC "-//W3C//DTD SVG 1.1//EN"
 "http://www.w3.org/Graphics/SVG/1.1/DTD/svg11.dtd">
<!-- Generated by graphviz version 2.47.1 (20210417.1919)
 -->
<!-- Title: G Pages: 1 -->
<svg width="2046pt" height="1124pt"
 viewBox="0.00 0.00 2046.27 1124.00" xmlns="http://www.w3.org/2000/svg" xmlns:xlink="http://www.w3.org/1999/xlink">
<g id="graph0" class="graph" transform="scale(1 1) rotate(0) translate(4 1120)">
<title>G</title>
<polygon fill="white" stroke="transparent" points="-4,4 -4,-1120 2042.27,-1120 2042.27,4 -4,4"/>
<text text-anchor="middle" x="1019.14" y="-13.4" font-family="Times,serif" font-size="32.00">decomposition: Mary d &#45;k, John d &#45;k, Alice d &#45;k, the =n d &#45;k, some =n d &#45;k, Bob d &#45;k, this =n d &#45;k, a =n d &#45;k</text>
<!-- t -->
<g id="node1" class="node">
<title>t</title>
<ellipse fill="lightgray" stroke="black" cx="1677.27" cy="-806" rx="27" ry="30.31"/>
<text text-anchor="middle" x="1677.27" y="-797.9" font-family="Times,serif" font-size="32.00">t</text>
</g>
<!-- c2 -->
<g id="node15" class="node">
<title>c2</title>
<ellipse fill="none" stroke="black" cx="1470.04" cy="-698" rx="33.47" ry="30.31"/>
<text text-anchor="middle" x="1470.04" y="-689.9" font-family="Times,serif" font-size="32.00">c2</text>
</g>
<!-- t&#45;&gt;c2 -->
<g id="edge33" class="edge">
<title>t&#45;&gt;c2</title>
<path fill="none" stroke="#000000" d="M1666.27,-778.08C1659.18,-762.21 1648.08,-743.31 1632.27,-732 1597.59,-707.18 1548.63,-699.74 1513.77,-697.85"/>
<polygon fill="#000000" stroke="#000000" points="1513.58,-694.34 1503.44,-697.43 1513.29,-701.33 1513.58,-694.34"/>
<text text-anchor="middle" x="1576.77" y="-776.4" font-family="Times,serif" font-size="32.00">that_1</text>
<text text-anchor="middle" x="1576.77" y="-741.4" font-family="Times,serif" font-size="32.00">=t c2</text>
</g>
<!-- c1 -->
<g id="node21" class="node">
<title>c1</title>
<ellipse fill="none" stroke="black" cx="1470.04" cy="-806" rx="33.47" ry="30.31"/>
<text text-anchor="middle" x="1470.04" y="-797.9" font-family="Times,serif" font-size="32.00">c1</text>
</g>
<!-- t&#45;&gt;c1 -->
<g id="edge32" class="edge">
<title>t&#45;&gt;c1</title>
<path fill="none" stroke="#000000" d="M1649.86,-806C1615.4,-806 1554.68,-806 1513.66,-806"/>
<polygon fill="#000000" stroke="#000000" points="1513.43,-802.5 1503.43,-806 1513.43,-809.5 1513.43,-802.5"/>
<text text-anchor="middle" x="1576.77" y="-850.4" font-family="Times,serif" font-size="32.00">that</text>
<text text-anchor="middle" x="1576.77" y="-815.4" font-family="Times,serif" font-size="32.00">=t =e c1</text>
</g>
<!-- 0 -->
<g id="node2" class="node">
<title>0</title>
<ellipse fill="none" stroke="black" cx="1677.27" cy="-396" rx="27" ry="30.31"/>
<text text-anchor="middle" x="1677.27" y="-387.9" font-family="Times,serif" font-size="32.00">0</text>
</g>
<!-- d -->
<g id="node3" class="node">
<title>d</title>
<ellipse fill="none" stroke="black" cx="1470.04" cy="-396" rx="27" ry="30.31"/>
<text text-anchor="middle" x="1470.04" y="-387.9" font-family="Times,serif" font-size="32.00">d</text>
</g>
<!-- 0&#45;&gt;d -->
<g id="edge1" class="edge">
<title>0&#45;&gt;d</title>
<path fill="none" stroke="#f7931d" stroke-width="2" d="M1649.86,-396C1613.61,-396 1548.29,-396 1507.43,-396"/>
<polygon fill="#f7931d" stroke="#f7931d" stroke-width="2" points="1507.35,-392.5 1497.35,-396 1507.35,-399.5 1507.35,-392.5"/>
<text text-anchor="middle" x="1576.77" y="-440.4" font-family="Times,serif" font-size="32.00">ε_0</text>
<text text-anchor="middle" x="1576.77" y="-405.4" font-family="Times,serif" font-size="32.00">=&gt;0 d &#45;k</text>
</g>
<!-- 2 -->
<g id="node8" class="node">
<title>2</title>
<ellipse fill="none" stroke="black" cx="1231.89" cy="-330" rx="27" ry="30.31"/>
<text text-anchor="middle" x="1231.89" y="-321.9" font-family="Times,serif" font-size="32.00">2</text>
</g>
<!-- d&#45;&gt;2 -->
<g id="edge12" class="edge">
<title>d&#45;&gt;2</title>
<path fill="none" stroke="#000000" d="M1462.65,-366.27C1455.97,-343.2 1442.95,-312.76 1418.81,-298 1371.27,-268.95 1304.84,-292.63 1265.6,-311.79"/>
<polygon fill="#000000" stroke="#000000" points="1263.58,-308.89 1256.23,-316.53 1266.74,-315.14 1263.58,-308.89"/>
<text text-anchor="middle" x="1359.81" y="-447.4" font-family="Times,serif" font-size="32.00">praise |</text>
<text text-anchor="middle" x="1359.81" y="-412.4" font-family="Times,serif" font-size="32.00"> like |</text>
<text text-anchor="middle" x="1359.81" y="-377.4" font-family="Times,serif" font-size="32.00"> kiss |</text>
<text text-anchor="middle" x="1359.81" y="-342.4" font-family="Times,serif" font-size="32.00"> hug</text>
<text text-anchor="middle" x="1359.81" y="-307.4" font-family="Times,serif" font-size="32.00">=d *k 2</text>
</g>
<!-- pass -->
<g id="node14" class="node">
<title>pass</title>
<ellipse fill="none" stroke="black" cx="1231.89" cy="-501" rx="50.82" ry="30.31"/>
<text text-anchor="middle" x="1231.89" y="-492.9" font-family="Times,serif" font-size="32.00">pass</text>
</g>
<!-- d&#45;&gt;pass -->
<g id="edge13" class="edge">
<title>d&#45;&gt;pass</title>
<path fill="none" stroke="#000000" d="M1458.13,-423.54C1449.91,-440.58 1436.93,-461.35 1418.81,-473 1408.21,-479.81 1342.79,-488.59 1292.53,-494.48"/>
<polygon fill="#000000" stroke="#000000" points="1291.9,-491.03 1282.37,-495.66 1292.71,-497.99 1291.9,-491.03"/>
<text text-anchor="middle" x="1359.81" y="-642.4" font-family="Times,serif" font-size="32.00">praisen |</text>
<text text-anchor="middle" x="1359.81" y="-607.4" font-family="Times,serif" font-size="32.00"> liken |</text>
<text text-anchor="middle" x="1359.81" y="-572.4" font-family="Times,serif" font-size="32.00"> kissn |</text>
<text text-anchor="middle" x="1359.81" y="-537.4" font-family="Times,serif" font-size="32.00"> hugn</text>
<text text-anchor="middle" x="1359.81" y="-502.4" font-family="Times,serif" font-size="32.00">=d pass</text>
</g>
<!-- z0 -->
<g id="node4" class="node">
<title>z0</title>
<ellipse fill="none" stroke="black" stroke-dasharray="5,2" cx="1858.27" cy="-495" rx="27" ry="18"/>
</g>
<!-- z0&#45;&gt;0 -->
<g id="edge2" class="edge">
<title>z0&#45;&gt;0</title>
<path fill="none" stroke="#f7931d" stroke-width="2" d="M1831.22,-497.08C1802.09,-498.07 1754.76,-495.54 1722.27,-473 1708.58,-463.5 1698.59,-448.26 1691.64,-433.83"/>
<polygon fill="#f7931d" stroke="#f7931d" stroke-width="2" points="1694.76,-432.25 1687.49,-424.54 1688.37,-435.1 1694.76,-432.25"/>
<text text-anchor="middle" x="1767.77" y="-646.4" font-family="Times,serif" font-size="32.00">Mary |</text>
<text text-anchor="middle" x="1767.77" y="-611.4" font-family="Times,serif" font-size="32.00"> John |</text>
<text text-anchor="middle" x="1767.77" y="-576.4" font-family="Times,serif" font-size="32.00"> Alice |</text>
<text text-anchor="middle" x="1767.77" y="-541.4" font-family="Times,serif" font-size="32.00"> Bob</text>
<text text-anchor="middle" x="1767.77" y="-506.4" font-family="Times,serif" font-size="32.00">0</text>
</g>
<!-- n -->
<g id="node5" class="node">
<title>n</title>
<ellipse fill="none" stroke="black" cx="1858.27" cy="-297" rx="27" ry="30.31"/>
<text text-anchor="middle" x="1858.27" y="-288.9" font-family="Times,serif" font-size="32.00">n</text>
</g>
<!-- n&#45;&gt;0 -->
<g id="edge3" class="edge">
<title>n&#45;&gt;0</title>
<path fill="none" stroke="#f7931d" stroke-width="2" d="M1832.31,-288.58C1803.32,-280.46 1755.28,-272.29 1722.27,-294 1701.45,-307.69 1690.44,-333.55 1684.64,-355.8"/>
<polygon fill="#f7931d" stroke="#f7931d" stroke-width="2" points="1681.19,-355.18 1682.33,-365.71 1688.01,-356.77 1681.19,-355.18"/>
<text text-anchor="middle" x="1767.77" y="-443.4" font-family="Times,serif" font-size="32.00">this |</text>
<text text-anchor="middle" x="1767.77" y="-408.4" font-family="Times,serif" font-size="32.00"> a |</text>
<text text-anchor="middle" x="1767.77" y="-373.4" font-family="Times,serif" font-size="32.00"> the |</text>
<text text-anchor="middle" x="1767.77" y="-338.4" font-family="Times,serif" font-size="32.00"> some</text>
<text text-anchor="middle" x="1767.77" y="-303.4" font-family="Times,serif" font-size="32.00">=n 0</text>
</g>
<!-- z1 -->
<g id="node6" class="node">
<title>z1</title>
<ellipse fill="none" stroke="black" stroke-dasharray="5,2" cx="2011.27" cy="-297" rx="27" ry="18"/>
</g>
<!-- z1&#45;&gt;n -->
<g id="edge4" class="edge">
<title>z1&#45;&gt;n</title>
<path fill="none" stroke="#000000" d="M1983.97,-297C1959.5,-297 1922.83,-297 1895.58,-297"/>
<polygon fill="#000000" stroke="#000000" points="1895.27,-293.5 1885.27,-297 1895.27,-300.5 1895.27,-293.5"/>
<text text-anchor="middle" x="1934.77" y="-376.4" font-family="Times,serif" font-size="32.00">boy |</text>
<text text-anchor="middle" x="1934.77" y="-341.4" font-family="Times,serif" font-size="32.00"> girl</text>
<text text-anchor="middle" x="1934.77" y="-306.4" font-family="Times,serif" font-size="32.00">n</text>
</g>
<!-- 1 -->
<g id="node7" class="node">
<title>1</title>
<ellipse fill="none" stroke="black" cx="28.99" cy="-767" rx="27" ry="30.31"/>
<text text-anchor="middle" x="28.99" y="-758.9" font-family="Times,serif" font-size="32.00">1</text>
</g>
<!-- 1&#45;&gt;t -->
<g id="edge5" class="edge">
<title>1&#45;&gt;t</title>
<path fill="none" stroke="#000000" d="M35.64,-796.92C49.84,-862.07 93.51,-1011 195.98,-1011 1471.04,-1011 1471.04,-1011 1471.04,-1011 1565.26,-1011 1631.38,-901.52 1660.15,-842.57"/>
<polygon fill="#000000" stroke="#000000" points="1663.46,-843.76 1664.6,-833.22 1657.14,-840.74 1663.46,-843.76"/>
<text text-anchor="middle" x="858.48" y="-1090.4" font-family="Times,serif" font-size="32.00">s |</text>
<text text-anchor="middle" x="858.48" y="-1055.4" font-family="Times,serif" font-size="32.00"> d</text>
<text text-anchor="middle" x="858.48" y="-1020.4" font-family="Times,serif" font-size="32.00">=&gt;1 +k t</text>
</g>
<!-- 2&#45;&gt;1 -->
<g id="edge6" class="edge">
<title>2&#45;&gt;1</title>
<path fill="none" stroke="#000000" d="M1207.84,-316.15C1165.48,-292.07 1071.72,-245 985.98,-245 985.98,-245 985.98,-245 195.98,-245 60.18,-245 115.61,-396.11 75.98,-526 54.91,-595.08 41.58,-678.38 34.97,-726.75"/>
<polygon fill="#000000" stroke="#000000" points="31.48,-726.44 33.63,-736.82 38.42,-727.37 31.48,-726.44"/>
<text text-anchor="middle" x="545.98" y="-289.4" font-family="Times,serif" font-size="32.00">ε_1</text>
<text text-anchor="middle" x="545.98" y="-254.4" font-family="Times,serif" font-size="32.00">=&gt;2 =d 1</text>
</g>
<!-- v -->
<g id="node10" class="node">
<title>v</title>
<ellipse fill="none" stroke="black" cx="196.98" cy="-586" rx="27" ry="30.31"/>
<text text-anchor="middle" x="196.98" y="-577.9" font-family="Times,serif" font-size="32.00">v</text>
</g>
<!-- 2&#45;&gt;v -->
<g id="edge8" class="edge">
<title>2&#45;&gt;v</title>
<path fill="none" stroke="#000000" d="M1204.8,-330C1160.03,-330 1065.71,-330 985.98,-330 985.98,-330 985.98,-330 408.98,-330 297.59,-330 234.08,-476.11 209.68,-547.57"/>
<polygon fill="#000000" stroke="#000000" points="206.33,-546.54 206.5,-557.13 212.98,-548.75 206.33,-546.54"/>
<text text-anchor="middle" x="695.48" y="-374.4" font-family="Times,serif" font-size="32.00">ε_2</text>
<text text-anchor="middle" x="695.48" y="-339.4" font-family="Times,serif" font-size="32.00">=&gt;2 =d v</text>
</g>
<!-- 3 -->
<g id="node11" class="node">
<title>3</title>
<ellipse fill="none" stroke="black" cx="984.98" cy="-651" rx="27" ry="30.31"/>
<text text-anchor="middle" x="984.98" y="-642.9" font-family="Times,serif" font-size="32.00">3</text>
</g>
<!-- 2&#45;&gt;3 -->
<g id="edge10" class="edge">
<title>2&#45;&gt;3</title>
<path fill="none" stroke="#000000" d="M1212.68,-351.47C1200.01,-365.15 1182.04,-382.26 1162.98,-393 1109.42,-423.18 1071.66,-385.81 1029.98,-431 1006.3,-456.68 994.21,-554.34 989.09,-610.54"/>
<polygon fill="#000000" stroke="#000000" points="985.6,-610.25 988.21,-620.52 992.57,-610.86 985.6,-610.25"/>
<text text-anchor="middle" x="1096.48" y="-475.4" font-family="Times,serif" font-size="32.00">ε_3</text>
<text text-anchor="middle" x="1096.48" y="-440.4" font-family="Times,serif" font-size="32.00">=&gt;2 =d 3</text>
</g>
<!-- perf -->
<g id="node13" class="node">
<title>perf</title>
<ellipse fill="none" stroke="black" cx="409.98" cy="-646" rx="48.17" ry="30.31"/>
<text text-anchor="middle" x="409.98" y="-637.9" font-family="Times,serif" font-size="32.00">perf</text>
</g>
<!-- 2&#45;&gt;perf -->
<g id="edge11" class="edge">
<title>2&#45;&gt;perf</title>
<path fill="none" stroke="#000000" d="M1205.61,-337.59C1167.3,-349.24 1092.4,-372.66 1029.98,-396 907.59,-441.76 884.04,-472.13 758.98,-510 637.27,-546.86 587.21,-498.86 477.98,-564 459.7,-574.91 444.24,-592.73 432.8,-608.97"/>
<polygon fill="#000000" stroke="#000000" points="429.89,-607.04 427.19,-617.28 435.69,-610.95 429.89,-607.04"/>
<text text-anchor="middle" x="858.48" y="-547.4" font-family="Times,serif" font-size="32.00">n</text>
<text text-anchor="middle" x="858.48" y="-512.4" font-family="Times,serif" font-size="32.00">=&gt;2 =d perf</text>
</g>
<!-- z2 -->
<g id="node9" class="node">
<title>z2</title>
<ellipse fill="none" stroke="black" stroke-dasharray="5,2" cx="1470.04" cy="-99" rx="27" ry="18"/>
</g>
<!-- z2&#45;&gt;2 -->
<g id="edge7" class="edge">
<title>z2&#45;&gt;2</title>
<path fill="none" stroke="#000000" d="M1444.95,-92.11C1409.42,-83.52 1342.64,-73.6 1300.81,-106 1244.9,-149.3 1233.62,-237.23 1232.13,-289.11"/>
<polygon fill="#000000" stroke="#000000" points="1228.62,-289.24 1231.95,-299.3 1235.62,-289.36 1228.62,-289.24"/>
<text text-anchor="middle" x="1359.81" y="-255.4" font-family="Times,serif" font-size="32.00">dance |</text>
<text text-anchor="middle" x="1359.81" y="-220.4" font-family="Times,serif" font-size="32.00"> laugh |</text>
<text text-anchor="middle" x="1359.81" y="-185.4" font-family="Times,serif" font-size="32.00"> smile |</text>
<text text-anchor="middle" x="1359.81" y="-150.4" font-family="Times,serif" font-size="32.00"> jump</text>
<text text-anchor="middle" x="1359.81" y="-115.4" font-family="Times,serif" font-size="32.00">2</text>
</g>
<!-- v&#45;&gt;1 -->
<g id="edge15" class="edge">
<title>v&#45;&gt;1</title>
<path fill="none" stroke="#000000" d="M172.67,-599.87C166.12,-603.45 158.89,-607.11 151.98,-610 119.43,-623.63 101.39,-608.51 75.98,-633 50.48,-657.58 39.11,-696.92 34.05,-726.62"/>
<polygon fill="#000000" stroke="#000000" points="30.57,-726.28 32.51,-736.69 37.49,-727.33 30.57,-726.28"/>
<text text-anchor="middle" x="113.98" y="-677.4" font-family="Times,serif" font-size="32.00">will</text>
<text text-anchor="middle" x="113.98" y="-642.4" font-family="Times,serif" font-size="32.00">=v 1</text>
</g>
<!-- v&#45;&gt;1 -->
<g id="edge28" class="edge">
<title>v&#45;&gt;1</title>
<path fill="none" stroke="#000000" d="M192.21,-616.04C187.35,-642.46 176.38,-680.16 151.98,-703 126.22,-727.12 106.77,-708.74 75.98,-726 69.31,-729.74 62.78,-734.59 56.83,-739.64"/>
<polygon fill="#000000" stroke="#000000" points="54.22,-737.27 49.12,-746.56 58.9,-742.48 54.22,-737.27"/>
<text text-anchor="middle" x="113.98" y="-770.4" font-family="Times,serif" font-size="32.00">ε_9</text>
<text text-anchor="middle" x="113.98" y="-735.4" font-family="Times,serif" font-size="32.00">=&gt;v 1</text>
</g>
<!-- to -->
<g id="node20" class="node">
<title>to</title>
<ellipse fill="none" stroke="black" cx="28.99" cy="-539" rx="28.98" ry="30.31"/>
<text text-anchor="middle" x="28.99" y="-530.9" font-family="Times,serif" font-size="32.00">to</text>
</g>
<!-- v&#45;&gt;to -->
<g id="edge31" class="edge">
<title>v&#45;&gt;to</title>
<path fill="none" stroke="#000000" d="M179.85,-562.4C172.48,-553.66 162.94,-544.73 151.98,-540 125.61,-528.61 92.95,-529 68.05,-531.9"/>
<polygon fill="#000000" stroke="#000000" points="67.35,-528.46 57.9,-533.26 68.28,-535.4 67.35,-528.46"/>
<text text-anchor="middle" x="113.98" y="-584.4" font-family="Times,serif" font-size="32.00">to</text>
<text text-anchor="middle" x="113.98" y="-549.4" font-family="Times,serif" font-size="32.00">=v to</text>
</g>
<!-- 3&#45;&gt;v -->
<g id="edge20" class="edge">
<title>3&#45;&gt;v</title>
<path fill="none" stroke="#000000" d="M958.71,-643.67C899.26,-626.86 745.6,-585.89 613.98,-572 553.87,-565.65 538.41,-570.49 477.98,-572 390.4,-574.19 287.55,-580.22 234.21,-583.61"/>
<polygon fill="#000000" stroke="#000000" points="233.97,-580.12 224.22,-584.25 234.42,-587.1 233.97,-580.12"/>
<text text-anchor="middle" x="545.98" y="-616.4" font-family="Times,serif" font-size="32.00">ε_4</text>
<text text-anchor="middle" x="545.98" y="-581.4" font-family="Times,serif" font-size="32.00">=&gt;3 v</text>
</g>
<!-- prog -->
<g id="node12" class="node">
<title>prog</title>
<ellipse fill="none" stroke="black" cx="695.48" cy="-770" rx="52.15" ry="30.31"/>
<text text-anchor="middle" x="695.48" y="-761.9" font-family="Times,serif" font-size="32.00">prog</text>
</g>
<!-- 3&#45;&gt;prog -->
<g id="edge9" class="edge">
<title>3&#45;&gt;prog</title>
<path fill="none" stroke="#000000" d="M959.47,-661.15C912.78,-680.47 810.19,-722.94 747.84,-748.74"/>
<polygon fill="#000000" stroke="#000000" points="746.47,-745.52 738.57,-752.58 749.15,-751.99 746.47,-745.52"/>
<text text-anchor="middle" x="858.48" y="-778.4" font-family="Times,serif" font-size="32.00">ing</text>
<text text-anchor="middle" x="858.48" y="-743.4" font-family="Times,serif" font-size="32.00">=&gt;3 prog</text>
</g>
<!-- 3&#45;&gt;perf -->
<g id="edge21" class="edge">
<title>3&#45;&gt;perf</title>
<path fill="none" stroke="#000000" d="M957.87,-650.77C871.08,-650.01 590.81,-647.57 468.72,-646.5"/>
<polygon fill="#000000" stroke="#000000" points="468.48,-643 458.45,-646.41 468.42,-650 468.48,-643"/>
<text text-anchor="middle" x="695.48" y="-692.4" font-family="Times,serif" font-size="32.00">n_1</text>
<text text-anchor="middle" x="695.48" y="-657.4" font-family="Times,serif" font-size="32.00">=&gt;3 perf</text>
</g>
<!-- prog&#45;&gt;1 -->
<g id="edge16" class="edge">
<title>prog&#45;&gt;1</title>
<path fill="none" stroke="#000000" d="M645.18,-778.57C634.89,-780.19 624.1,-781.76 613.98,-783 376.58,-812.15 305.76,-862.4 75.98,-796 70.66,-794.46 65.35,-792.1 60.34,-789.38"/>
<polygon fill="#000000" stroke="#000000" points="62.07,-786.33 51.69,-784.18 58.46,-792.33 62.07,-786.33"/>
<text text-anchor="middle" x="291.98" y="-872.4" font-family="Times,serif" font-size="32.00">be</text>
<text text-anchor="middle" x="291.98" y="-837.4" font-family="Times,serif" font-size="32.00">=prog 1</text>
</g>
<!-- prog&#45;&gt;v -->
<g id="edge17" class="edge">
<title>prog&#45;&gt;v</title>
<path fill="none" stroke="#000000" d="M645.49,-779.09C598.91,-785.06 528.64,-786.88 477.98,-756 464.71,-747.91 473,-734.51 459.98,-726 378.22,-672.54 319.03,-758.05 241.98,-698 219.83,-680.73 208.81,-650.7 203.34,-626.08"/>
<polygon fill="#000000" stroke="#000000" points="206.77,-625.38 201.38,-616.26 199.9,-626.75 206.77,-625.38"/>
<text text-anchor="middle" x="409.98" y="-770.4" font-family="Times,serif" font-size="32.00">be_1</text>
<text text-anchor="middle" x="409.98" y="-735.4" font-family="Times,serif" font-size="32.00">=prog v</text>
</g>
<!-- prog&#45;&gt;perf -->
<g id="edge18" class="edge">
<title>prog&#45;&gt;perf</title>
<path fill="none" stroke="#000000" d="M657.36,-748.74C648.25,-742.29 639.08,-734.6 631.98,-726 619.57,-710.97 629.41,-697.92 613.98,-686 565.47,-648.52 537.96,-675.66 477.98,-663 473.57,-662.07 469.01,-661.04 464.44,-659.97"/>
<polygon fill="#000000" stroke="#000000" points="465.01,-656.51 454.47,-657.58 463.38,-663.32 465.01,-656.51"/>
<text text-anchor="middle" x="545.98" y="-730.4" font-family="Times,serif" font-size="32.00">ben</text>
<text text-anchor="middle" x="545.98" y="-695.4" font-family="Times,serif" font-size="32.00">=prog perf</text>
</g>
<!-- perf&#45;&gt;v -->
<g id="edge29" class="edge">
<title>perf&#45;&gt;v</title>
<path fill="none" stroke="#000000" d="M365.77,-633.71C326.54,-622.56 269.4,-606.31 232.96,-595.95"/>
<polygon fill="#000000" stroke="#000000" points="233.84,-592.56 223.27,-593.19 231.93,-599.29 233.84,-592.56"/>
<text text-anchor="middle" x="291.98" y="-670.4" font-family="Times,serif" font-size="32.00">have</text>
<text text-anchor="middle" x="291.98" y="-635.4" font-family="Times,serif" font-size="32.00">=perf v</text>
</g>
<!-- pass&#45;&gt;3 -->
<g id="edge19" class="edge">
<title>pass&#45;&gt;3</title>
<path fill="none" stroke="#000000" d="M1180.88,-503.11C1136.57,-507.43 1072.5,-520.03 1029.98,-556 1013.08,-570.29 1002.31,-592.49 995.65,-611.83"/>
<polygon fill="#000000" stroke="#000000" points="992.23,-611.03 992.53,-621.62 998.9,-613.15 992.23,-611.03"/>
<text text-anchor="middle" x="1096.48" y="-600.4" font-family="Times,serif" font-size="32.00">be_2</text>
<text text-anchor="middle" x="1096.48" y="-565.4" font-family="Times,serif" font-size="32.00">=pass 3</text>
</g>
<!-- c2&#45;&gt;2 -->
<g id="edge14" class="edge">
<title>c2&#45;&gt;2</title>
<path fill="none" stroke="#000000" d="M1437.03,-692.89C1388.27,-685.11 1300.95,-671.16 1300.81,-671 1269.07,-636.85 1293.15,-507.45 1282.81,-462 1275.19,-428.53 1260.96,-392.16 1249.64,-366.09"/>
<polygon fill="#000000" stroke="#000000" points="1252.7,-364.36 1245.46,-356.63 1246.3,-367.19 1252.7,-364.36"/>
<text text-anchor="middle" x="1359.81" y="-838.4" font-family="Times,serif" font-size="32.00">declare |</text>
<text text-anchor="middle" x="1359.81" y="-803.4" font-family="Times,serif" font-size="32.00"> think |</text>
<text text-anchor="middle" x="1359.81" y="-768.4" font-family="Times,serif" font-size="32.00"> explain |</text>
<text text-anchor="middle" x="1359.81" y="-733.4" font-family="Times,serif" font-size="32.00"> say</text>
<text text-anchor="middle" x="1359.81" y="-698.4" font-family="Times,serif" font-size="32.00">=c2 2</text>
</g>
<!-- 4 -->
<g id="node16" class="node">
<title>4</title>
<ellipse fill="none" stroke="black" cx="1231.89" cy="-787" rx="27" ry="30.31"/>
<text text-anchor="middle" x="1231.89" y="-778.9" font-family="Times,serif" font-size="32.00">4</text>
</g>
<!-- 4&#45;&gt;1 -->
<g id="edge22" class="edge">
<title>4&#45;&gt;1</title>
<path fill="none" stroke="#000000" d="M1210.8,-806.01C1171.16,-841.44 1078.66,-914 985.98,-914 985.98,-914 985.98,-914 195.98,-914 128.42,-914 75.47,-844.9 48.86,-801.45"/>
<polygon fill="#000000" stroke="#000000" points="51.71,-799.4 43.59,-792.61 45.7,-802.99 51.71,-799.4"/>
<text text-anchor="middle" x="545.98" y="-958.4" font-family="Times,serif" font-size="32.00">ε_5</text>
<text text-anchor="middle" x="545.98" y="-923.4" font-family="Times,serif" font-size="32.00">=&gt;4 =to 1</text>
</g>
<!-- 4&#45;&gt;v -->
<g id="edge24" class="edge">
<title>4&#45;&gt;v</title>
<path fill="none" stroke="#000000" d="M1225.89,-757.3C1218.36,-721.46 1200.74,-661.57 1162.98,-626 1117.35,-583.01 1080.22,-616.51 1029.98,-579 975.42,-538.26 1000.65,-485.93 939.98,-455 689.44,-327.27 336.42,-506.46 229.73,-567.15"/>
<polygon fill="#000000" stroke="#000000" points="227.96,-564.13 221.03,-572.15 231.45,-570.2 227.96,-564.13"/>
<text text-anchor="middle" x="695.48" y="-462.4" font-family="Times,serif" font-size="32.00">ε_6</text>
<text text-anchor="middle" x="695.48" y="-427.4" font-family="Times,serif" font-size="32.00">=&gt;4 =to v</text>
</g>
<!-- 4&#45;&gt;3 -->
<g id="edge26" class="edge">
<title>4&#45;&gt;3</title>
<path fill="none" stroke="#000000" d="M1209.08,-770.51C1196.29,-761.63 1179.44,-751.24 1162.98,-745 1106.89,-723.72 1079.71,-755.56 1029.98,-722 1017.6,-713.65 1008.06,-700.52 1001.08,-687.82"/>
<polygon fill="#000000" stroke="#000000" points="1004.1,-686.04 996.44,-678.71 997.86,-689.21 1004.1,-686.04"/>
<text text-anchor="middle" x="1096.48" y="-789.4" font-family="Times,serif" font-size="32.00">ε_7</text>
<text text-anchor="middle" x="1096.48" y="-754.4" font-family="Times,serif" font-size="32.00">=&gt;4 =to 3</text>
</g>
<!-- 4&#45;&gt;3 -->
<g id="edge27" class="edge">
<title>4&#45;&gt;3</title>
<path fill="none" stroke="#000000" d="M1225.84,-757.19C1218.44,-723.98 1201.14,-671.83 1162.98,-648 1120.09,-621.22 1059.22,-630.1 1021.2,-639.87"/>
<polygon fill="#000000" stroke="#000000" points="1019.84,-636.61 1011.11,-642.62 1021.68,-643.36 1019.84,-636.61"/>
<text text-anchor="middle" x="1096.48" y="-692.4" font-family="Times,serif" font-size="32.00">ε_8</text>
<text text-anchor="middle" x="1096.48" y="-657.4" font-family="Times,serif" font-size="32.00">=&gt;4 =c1 3</text>
</g>
<!-- 4&#45;&gt;perf -->
<g id="edge25" class="edge">
<title>4&#45;&gt;perf</title>
<path fill="none" stroke="#000000" d="M1207.1,-799.5C1194.38,-805.48 1178.24,-811.98 1162.98,-815 1105,-826.48 1089.09,-815.45 1029.98,-815 853.08,-813.67 806.59,-837.46 631.98,-809 561.09,-797.45 528.72,-810.84 477.98,-760 459.22,-741.19 472.9,-726.21 459.98,-703 455.41,-694.79 449.54,-686.7 443.46,-679.3"/>
<polygon fill="#000000" stroke="#000000" points="446,-676.88 436.83,-671.57 440.68,-681.44 446,-676.88"/>
<text text-anchor="middle" x="858.48" y="-867.4" font-family="Times,serif" font-size="32.00">n_2</text>
<text text-anchor="middle" x="858.48" y="-832.4" font-family="Times,serif" font-size="32.00">=&gt;4 =to perf</text>
</g>
<!-- z3 -->
<g id="node17" class="node">
<title>z3</title>
<ellipse fill="none" stroke="black" stroke-dasharray="5,2" cx="1470.04" cy="-891" rx="27" ry="18"/>
</g>
<!-- z3&#45;&gt;4 -->
<g id="edge23" class="edge">
<title>z3&#45;&gt;4</title>
<path fill="none" stroke="#000000" d="M1442.9,-889.9C1401.89,-887.8 1324.66,-882.17 1300.81,-869 1280.83,-857.97 1264.32,-838.5 1252.59,-821.3"/>
<polygon fill="#000000" stroke="#000000" points="1255.29,-819.04 1246.89,-812.57 1249.42,-822.86 1255.29,-819.04"/>
<text text-anchor="middle" x="1359.81" y="-967.4" font-family="Times,serif" font-size="32.00">seem |</text>
<text text-anchor="middle" x="1359.81" y="-932.4" font-family="Times,serif" font-size="32.00"> appear</text>
<text text-anchor="middle" x="1359.81" y="-897.4" font-family="Times,serif" font-size="32.00">4</text>
</g>
<!-- z4 -->
<g id="node18" class="node">
<title>z4</title>
<ellipse fill="none" stroke="black" stroke-dasharray="5,2" cx="2011.27" cy="-561" rx="27" ry="18"/>
</g>
<!-- e -->
<g id="node19" class="node">
<title>e</title>
<ellipse fill="none" stroke="black" cx="1858.27" cy="-561" rx="27" ry="30.31"/>
<text text-anchor="middle" x="1858.27" y="-552.9" font-family="Times,serif" font-size="32.00">e</text>
</g>
<!-- z4&#45;&gt;e -->
<g id="edge30" class="edge">
<title>z4&#45;&gt;e</title>
<path fill="none" stroke="#000000" d="M1983.97,-561C1959.5,-561 1922.83,-561 1895.58,-561"/>
<polygon fill="#000000" stroke="#000000" points="1895.27,-557.5 1885.27,-561 1895.27,-564.5 1895.27,-557.5"/>
<text text-anchor="middle" x="1934.77" y="-605.4" font-family="Times,serif" font-size="32.00">it</text>
<text text-anchor="middle" x="1934.77" y="-570.4" font-family="Times,serif" font-size="32.00">e &#45;k</text>
</g>
</g>
</svg>
