<?xml version="1.0" encoding="UTF-8" standalone="no"?>
<!DOCTYPE svg PUBLIC "-//W3C//DTD SVG 1.1//EN"
 "http://www.w3.org/Graphics/SVG/1.1/DTD/svg11.dtd">
<!-- Generated by graphviz version 2.47.1 (20210417.1919)
 -->
<!-- Title: G Pages: 1 -->
<svg width="2308pt" height="1135pt"
 viewBox="0.00 0.00 2308.45 1135.00" xmlns="http://www.w3.org/2000/svg" xmlns:xlink="http://www.w3.org/1999/xlink">
<g id="graph0" class="graph" transform="scale(1 1) rotate(0) translate(4 1131)">
<title>G</title>
<polygon fill="white" stroke="transparent" points="-4,4 -4,-1131 2304.45,-1131 2304.45,4 -4,4"/>
<text text-anchor="middle" x="1150.23" y="-13.4" font-family="Times,serif" font-size="32.00">decomposition: &#160;=&gt;2 =d 1, &#160;=&gt;2 =d v, &#160;=&gt;2 =d 3, n =&gt;2 =d perf</text>
<!-- t -->
<g id="node1" class="node">
<title>t</title>
<ellipse fill="lightgray" stroke="black" cx="1939.45" cy="-888" rx="27" ry="30.31"/>
<text text-anchor="middle" x="1939.45" y="-879.9" font-family="Times,serif" font-size="32.00">t</text>
</g>
<!-- c2 -->
<g id="node16" class="node">
<title>c2</title>
<ellipse fill="none" stroke="black" cx="1732.22" cy="-881" rx="33.47" ry="30.31"/>
<text text-anchor="middle" x="1732.22" y="-872.9" font-family="Times,serif" font-size="32.00">c2</text>
</g>
<!-- t&#45;&gt;c2 -->
<g id="edge34" class="edge">
<title>t&#45;&gt;c2</title>
<path fill="none" stroke="#000000" d="M1912.46,-887.11C1878.05,-885.94 1816.95,-883.86 1775.77,-882.45"/>
<polygon fill="#000000" stroke="#000000" points="1775.87,-878.95 1765.75,-882.11 1775.63,-885.95 1775.87,-878.95"/>
<text text-anchor="middle" x="1838.95" y="-930.4" font-family="Times,serif" font-size="32.00">that_1</text>
<text text-anchor="middle" x="1838.95" y="-895.4" font-family="Times,serif" font-size="32.00">=t c2</text>
</g>
<!-- c1 -->
<g id="node22" class="node">
<title>c1</title>
<ellipse fill="none" stroke="black" cx="1732.22" cy="-795" rx="33.47" ry="30.31"/>
<text text-anchor="middle" x="1732.22" y="-786.9" font-family="Times,serif" font-size="32.00">c1</text>
</g>
<!-- t&#45;&gt;c1 -->
<g id="edge33" class="edge">
<title>t&#45;&gt;c1</title>
<path fill="none" stroke="#000000" d="M1930.3,-859.07C1923.67,-841.23 1912.42,-819.62 1894.45,-808 1859.19,-785.19 1810.11,-784.59 1775.39,-788.04"/>
<polygon fill="#000000" stroke="#000000" points="1774.64,-784.6 1765.1,-789.22 1775.44,-791.56 1774.64,-784.6"/>
<text text-anchor="middle" x="1838.95" y="-852.4" font-family="Times,serif" font-size="32.00">that</text>
<text text-anchor="middle" x="1838.95" y="-817.4" font-family="Times,serif" font-size="32.00">=t =e c1</text>
</g>
<!-- 0 -->
<g id="node2" class="node">
<title>0</title>
<ellipse fill="none" stroke="black" cx="1939.45" cy="-337" rx="27" ry="30.31"/>
<text text-anchor="middle" x="1939.45" y="-328.9" font-family="Times,serif" font-size="32.00">0</text>
</g>
<!-- d -->
<g id="node3" class="node">
<title>d</title>
<ellipse fill="none" stroke="black" cx="1732.22" cy="-337" rx="27" ry="30.31"/>
<text text-anchor="middle" x="1732.22" y="-328.9" font-family="Times,serif" font-size="32.00">d</text>
</g>
<!-- 0&#45;&gt;d -->
<g id="edge1" class="edge">
<title>0&#45;&gt;d</title>
<path fill="none" stroke="#000000" d="M1912.04,-337C1875.79,-337 1810.47,-337 1769.61,-337"/>
<polygon fill="#000000" stroke="#000000" points="1769.53,-333.5 1759.53,-337 1769.53,-340.5 1769.53,-333.5"/>
<text text-anchor="middle" x="1838.95" y="-381.4" font-family="Times,serif" font-size="32.00">ε_0</text>
<text text-anchor="middle" x="1838.95" y="-346.4" font-family="Times,serif" font-size="32.00">=&gt;0 d &#45;k</text>
</g>
<!-- 3 -->
<g id="node9" class="node">
<title>3</title>
<ellipse fill="none" stroke="black" cx="1517.98" cy="-634" rx="27" ry="30.31"/>
<text text-anchor="middle" x="1517.98" y="-625.9" font-family="Times,serif" font-size="32.00">3</text>
</g>
<!-- d&#45;&gt;3 -->
<g id="edge13" class="edge">
<title>d&#45;&gt;3</title>
<path fill="none" stroke="#000000" d="M1719.34,-363.82C1710.81,-380.35 1697.83,-400.83 1680.98,-414 1637.24,-448.2 1600.37,-413.95 1562.98,-455 1528.57,-492.79 1519.97,-553.11 1518.37,-593.13"/>
<polygon fill="#000000" stroke="#000000" points="1514.86,-593.25 1518.09,-603.34 1521.86,-593.44 1514.86,-593.25"/>
<text text-anchor="middle" x="1621.98" y="-604.4" font-family="Times,serif" font-size="32.00">praise |</text>
<text text-anchor="middle" x="1621.98" y="-569.4" font-family="Times,serif" font-size="32.00"> like |</text>
<text text-anchor="middle" x="1621.98" y="-534.4" font-family="Times,serif" font-size="32.00"> kiss |</text>
<text text-anchor="middle" x="1621.98" y="-499.4" font-family="Times,serif" font-size="32.00"> hug</text>
<text text-anchor="middle" x="1621.98" y="-464.4" font-family="Times,serif" font-size="32.00">=d *k 3</text>
</g>
<!-- pass -->
<g id="node15" class="node">
<title>pass</title>
<ellipse fill="none" stroke="black" cx="1413.98" cy="-367" rx="50.82" ry="30.31"/>
<text text-anchor="middle" x="1413.98" y="-358.9" font-family="Times,serif" font-size="32.00">pass</text>
</g>
<!-- d&#45;&gt;pass -->
<g id="edge14" class="edge">
<title>d&#45;&gt;pass</title>
<path fill="none" stroke="#000000" d="M1725.44,-307.06C1719.05,-282.97 1706.12,-250.64 1680.98,-235 1636.45,-207.29 1611.99,-216.32 1562.98,-235 1536.25,-245.19 1481.86,-297.77 1446.98,-333.42"/>
<polygon fill="#000000" stroke="#000000" points="1444.32,-331.14 1439.85,-340.74 1449.34,-336.02 1444.32,-331.14"/>
<text text-anchor="middle" x="1621.98" y="-384.4" font-family="Times,serif" font-size="32.00">praisen |</text>
<text text-anchor="middle" x="1621.98" y="-349.4" font-family="Times,serif" font-size="32.00"> liken |</text>
<text text-anchor="middle" x="1621.98" y="-314.4" font-family="Times,serif" font-size="32.00"> kissn |</text>
<text text-anchor="middle" x="1621.98" y="-279.4" font-family="Times,serif" font-size="32.00"> hugn</text>
<text text-anchor="middle" x="1621.98" y="-244.4" font-family="Times,serif" font-size="32.00">=d pass</text>
</g>
<!-- z0 -->
<g id="node4" class="node">
<title>z0</title>
<ellipse fill="none" stroke="black" stroke-dasharray="5,2" cx="2120.45" cy="-436" rx="27" ry="18"/>
</g>
<!-- z0&#45;&gt;0 -->
<g id="edge2" class="edge">
<title>z0&#45;&gt;0</title>
<path fill="none" stroke="#000000" d="M2093.4,-438.08C2064.27,-439.07 2016.94,-436.54 1984.45,-414 1970.75,-404.5 1960.77,-389.26 1953.81,-374.83"/>
<polygon fill="#000000" stroke="#000000" points="1956.94,-373.25 1949.67,-365.54 1950.54,-376.1 1956.94,-373.25"/>
<text text-anchor="middle" x="2029.95" y="-587.4" font-family="Times,serif" font-size="32.00">Mary |</text>
<text text-anchor="middle" x="2029.95" y="-552.4" font-family="Times,serif" font-size="32.00"> John |</text>
<text text-anchor="middle" x="2029.95" y="-517.4" font-family="Times,serif" font-size="32.00"> Alice |</text>
<text text-anchor="middle" x="2029.95" y="-482.4" font-family="Times,serif" font-size="32.00"> Bob</text>
<text text-anchor="middle" x="2029.95" y="-447.4" font-family="Times,serif" font-size="32.00">0</text>
</g>
<!-- n -->
<g id="node5" class="node">
<title>n</title>
<ellipse fill="none" stroke="black" cx="2120.45" cy="-238" rx="27" ry="30.31"/>
<text text-anchor="middle" x="2120.45" y="-229.9" font-family="Times,serif" font-size="32.00">n</text>
</g>
<!-- n&#45;&gt;0 -->
<g id="edge3" class="edge">
<title>n&#45;&gt;0</title>
<path fill="none" stroke="#000000" d="M2094.48,-229.58C2065.5,-221.46 2017.45,-213.29 1984.45,-235 1963.63,-248.69 1952.62,-274.55 1946.82,-296.8"/>
<polygon fill="#000000" stroke="#000000" points="1943.37,-296.18 1944.5,-306.71 1950.19,-297.77 1943.37,-296.18"/>
<text text-anchor="middle" x="2029.95" y="-384.4" font-family="Times,serif" font-size="32.00">this |</text>
<text text-anchor="middle" x="2029.95" y="-349.4" font-family="Times,serif" font-size="32.00"> a |</text>
<text text-anchor="middle" x="2029.95" y="-314.4" font-family="Times,serif" font-size="32.00"> the |</text>
<text text-anchor="middle" x="2029.95" y="-279.4" font-family="Times,serif" font-size="32.00"> some</text>
<text text-anchor="middle" x="2029.95" y="-244.4" font-family="Times,serif" font-size="32.00">=n 0</text>
</g>
<!-- z1 -->
<g id="node6" class="node">
<title>z1</title>
<ellipse fill="none" stroke="black" stroke-dasharray="5,2" cx="2273.45" cy="-238" rx="27" ry="18"/>
</g>
<!-- z1&#45;&gt;n -->
<g id="edge4" class="edge">
<title>z1&#45;&gt;n</title>
<path fill="none" stroke="#000000" d="M2246.15,-238C2221.68,-238 2185,-238 2157.75,-238"/>
<polygon fill="#000000" stroke="#000000" points="2157.45,-234.5 2147.45,-238 2157.45,-241.5 2157.45,-234.5"/>
<text text-anchor="middle" x="2196.95" y="-317.4" font-family="Times,serif" font-size="32.00">boy |</text>
<text text-anchor="middle" x="2196.95" y="-282.4" font-family="Times,serif" font-size="32.00"> girl</text>
<text text-anchor="middle" x="2196.95" y="-247.4" font-family="Times,serif" font-size="32.00">n</text>
</g>
<!-- 1 -->
<g id="node7" class="node">
<title>1</title>
<ellipse fill="none" stroke="black" cx="28.99" cy="-521" rx="27" ry="30.31"/>
<text text-anchor="middle" x="28.99" y="-512.9" font-family="Times,serif" font-size="32.00">1</text>
</g>
<!-- 1&#45;&gt;t -->
<g id="edge5" class="edge">
<title>1&#45;&gt;t</title>
<path fill="none" stroke="#000000" d="M33.32,-551.21C46.08,-659.53 96.22,-1022 195.98,-1022 1733.22,-1022 1733.22,-1022 1733.22,-1022 1809.99,-1022 1835.47,-1009.15 1894.45,-960 1905.95,-950.42 1915.28,-937.01 1922.34,-924.36"/>
<polygon fill="#000000" stroke="#000000" points="1925.53,-925.83 1927.08,-915.35 1919.33,-922.57 1925.53,-925.83"/>
<text text-anchor="middle" x="1013.98" y="-1101.4" font-family="Times,serif" font-size="32.00">s |</text>
<text text-anchor="middle" x="1013.98" y="-1066.4" font-family="Times,serif" font-size="32.00"> d</text>
<text text-anchor="middle" x="1013.98" y="-1031.4" font-family="Times,serif" font-size="32.00">=&gt;1 +k t</text>
</g>
<!-- 2 -->
<g id="node8" class="node">
<title>2</title>
<ellipse fill="none" stroke="black" cx="1287.98" cy="-634" rx="27" ry="30.31"/>
<text text-anchor="middle" x="1287.98" y="-625.9" font-family="Times,serif" font-size="32.00">2</text>
</g>
<!-- 2&#45;&gt;1 -->
<g id="edge6" class="edge">
<title>2&#45;&gt;1</title>
<path fill="none" stroke="#f7931d" stroke-width="2" d="M1265,-650.19C1220.32,-681.44 1114.7,-747 1014.98,-747 1014.98,-747 1014.98,-747 195.98,-747 104.49,-747 57.87,-625.19 39.55,-560.42"/>
<polygon fill="#f7931d" stroke="#f7931d" stroke-width="2" points="42.86,-559.27 36.85,-550.55 36.11,-561.11 42.86,-559.27"/>
<text text-anchor="middle" x="545.98" y="-791.4" font-family="Times,serif" font-size="32.00">ε_1</text>
<text text-anchor="middle" x="545.98" y="-756.4" font-family="Times,serif" font-size="32.00">=&gt;2 1</text>
</g>
<!-- v -->
<g id="node11" class="node">
<title>v</title>
<ellipse fill="none" stroke="black" cx="196.98" cy="-384" rx="27" ry="30.31"/>
<text text-anchor="middle" x="196.98" y="-375.9" font-family="Times,serif" font-size="32.00">v</text>
</g>
<!-- 2&#45;&gt;v -->
<g id="edge9" class="edge">
<title>2&#45;&gt;v</title>
<path fill="none" stroke="#f7931d" stroke-width="2" d="M1260.75,-636.41C1212.26,-640.65 1105.31,-649 1014.98,-649 1014.98,-649 1014.98,-649 408.98,-649 334.5,-649 296.96,-685.25 241.98,-635 211.74,-607.36 202.23,-488.36 199.28,-424.64"/>
<polygon fill="#f7931d" stroke="#f7931d" stroke-width="2" points="202.77,-424.38 198.84,-414.54 195.78,-424.68 202.77,-424.38"/>
<text text-anchor="middle" x="695.48" y="-693.4" font-family="Times,serif" font-size="32.00">ε_3</text>
<text text-anchor="middle" x="695.48" y="-658.4" font-family="Times,serif" font-size="32.00">=&gt;2 v</text>
</g>
<!-- 4 -->
<g id="node12" class="node">
<title>4</title>
<ellipse fill="none" stroke="black" cx="1013.98" cy="-388" rx="27" ry="30.31"/>
<text text-anchor="middle" x="1013.98" y="-379.9" font-family="Times,serif" font-size="32.00">4</text>
</g>
<!-- 2&#45;&gt;4 -->
<g id="edge11" class="edge">
<title>2&#45;&gt;4</title>
<path fill="none" stroke="#f7931d" stroke-width="2" d="M1278.29,-605.38C1261.94,-551.91 1227.63,-441.71 1220.98,-436 1175.5,-396.89 1146.1,-427.88 1087.98,-413 1075.21,-409.73 1061.46,-405.28 1049.38,-401.04"/>
<polygon fill="#f7931d" stroke="#f7931d" stroke-width="2" points="1050.28,-397.64 1039.69,-397.55 1047.92,-404.23 1050.28,-397.64"/>
<text text-anchor="middle" x="1154.48" y="-480.4" font-family="Times,serif" font-size="32.00">ε_4</text>
<text text-anchor="middle" x="1154.48" y="-445.4" font-family="Times,serif" font-size="32.00">=&gt;2 4</text>
</g>
<!-- perf -->
<g id="node14" class="node">
<title>perf</title>
<ellipse fill="none" stroke="black" cx="409.98" cy="-388" rx="48.17" ry="30.31"/>
<text text-anchor="middle" x="409.98" y="-379.9" font-family="Times,serif" font-size="32.00">perf</text>
</g>
<!-- 2&#45;&gt;perf -->
<g id="edge12" class="edge">
<title>2&#45;&gt;perf</title>
<path fill="none" stroke="#f7931d" stroke-width="2" d="M1261.27,-627.81C1143.32,-599.36 658.55,-481.62 631.98,-462 619.78,-452.99 626.36,-441.77 613.98,-433 610.9,-430.82 525.13,-412.26 466.08,-399.67"/>
<polygon fill="#f7931d" stroke="#f7931d" stroke-width="2" points="466.63,-396.21 456.12,-397.55 465.17,-403.06 466.63,-396.21"/>
<text text-anchor="middle" x="858.48" y="-591.4" font-family="Times,serif" font-size="32.00">n</text>
<text text-anchor="middle" x="858.48" y="-556.4" font-family="Times,serif" font-size="32.00">=&gt;2 perf</text>
</g>
<!-- 3&#45;&gt;2 -->
<g id="edge7" class="edge">
<title>3&#45;&gt;2</title>
<path fill="none" stroke="#f7931d" stroke-width="2" d="M1490.83,-634C1450.13,-634 1371.55,-634 1325.35,-634"/>
<polygon fill="#f7931d" stroke="#f7931d" stroke-width="2" points="1325.18,-630.5 1315.18,-634 1325.18,-637.5 1325.18,-630.5"/>
<text text-anchor="middle" x="1413.98" y="-678.4" font-family="Times,serif" font-size="32.00">ε_2</text>
<text text-anchor="middle" x="1413.98" y="-643.4" font-family="Times,serif" font-size="32.00">=&gt;3 =d 2</text>
</g>
<!-- z2 -->
<g id="node10" class="node">
<title>z2</title>
<ellipse fill="none" stroke="black" stroke-dasharray="5,2" cx="1732.22" cy="-634" rx="27" ry="18"/>
</g>
<!-- z2&#45;&gt;3 -->
<g id="edge8" class="edge">
<title>z2&#45;&gt;3</title>
<path fill="none" stroke="#000000" d="M1705.19,-634C1667.64,-634 1598.1,-634 1555.45,-634"/>
<polygon fill="#000000" stroke="#000000" points="1555.22,-630.5 1545.22,-634 1555.22,-637.5 1555.22,-630.5"/>
<text text-anchor="middle" x="1621.98" y="-783.4" font-family="Times,serif" font-size="32.00">dance |</text>
<text text-anchor="middle" x="1621.98" y="-748.4" font-family="Times,serif" font-size="32.00"> laugh |</text>
<text text-anchor="middle" x="1621.98" y="-713.4" font-family="Times,serif" font-size="32.00"> smile |</text>
<text text-anchor="middle" x="1621.98" y="-678.4" font-family="Times,serif" font-size="32.00"> jump</text>
<text text-anchor="middle" x="1621.98" y="-643.4" font-family="Times,serif" font-size="32.00">3</text>
</g>
<!-- v&#45;&gt;1 -->
<g id="edge16" class="edge">
<title>v&#45;&gt;1</title>
<path fill="none" stroke="#000000" d="M185.2,-411.78C177.93,-427.12 166.93,-445.37 151.98,-457 124.13,-478.67 106.77,-462.74 75.98,-480 69.31,-483.74 62.78,-488.59 56.83,-493.64"/>
<polygon fill="#000000" stroke="#000000" points="54.22,-491.27 49.12,-500.56 58.9,-496.48 54.22,-491.27"/>
<text text-anchor="middle" x="113.98" y="-524.4" font-family="Times,serif" font-size="32.00">will</text>
<text text-anchor="middle" x="113.98" y="-489.4" font-family="Times,serif" font-size="32.00">=v 1</text>
</g>
<!-- v&#45;&gt;1 -->
<g id="edge29" class="edge">
<title>v&#45;&gt;1</title>
<path fill="none" stroke="#000000" d="M170.89,-375.84C144.65,-368.98 103.53,-363.14 75.98,-383 45.39,-405.05 34.84,-448.34 31.36,-480.58"/>
<polygon fill="#000000" stroke="#000000" points="27.86,-480.35 30.46,-490.62 34.84,-480.97 27.86,-480.35"/>
<text text-anchor="middle" x="113.98" y="-427.4" font-family="Times,serif" font-size="32.00">ε_10</text>
<text text-anchor="middle" x="113.98" y="-392.4" font-family="Times,serif" font-size="32.00">=&gt;v 1</text>
</g>
<!-- to -->
<g id="node21" class="node">
<title>to</title>
<ellipse fill="none" stroke="black" cx="28.99" cy="-293" rx="28.98" ry="30.31"/>
<text text-anchor="middle" x="28.99" y="-284.9" font-family="Times,serif" font-size="32.00">to</text>
</g>
<!-- v&#45;&gt;to -->
<g id="edge32" class="edge">
<title>v&#45;&gt;to</title>
<path fill="none" stroke="#000000" d="M190.01,-354.18C184.13,-333.41 172.88,-307.16 151.98,-294 127.1,-278.32 93.31,-279.36 67.61,-283.59"/>
<polygon fill="#000000" stroke="#000000" points="66.67,-280.21 57.49,-285.49 67.96,-287.09 66.67,-280.21"/>
<text text-anchor="middle" x="113.98" y="-338.4" font-family="Times,serif" font-size="32.00">to</text>
<text text-anchor="middle" x="113.98" y="-303.4" font-family="Times,serif" font-size="32.00">=v to</text>
</g>
<!-- 4&#45;&gt;v -->
<g id="edge21" class="edge">
<title>4&#45;&gt;v</title>
<path fill="none" stroke="#000000" d="M987.95,-379.87C911.58,-356.09 674.81,-289.77 477.98,-314 388,-325.08 285.34,-355.46 232.88,-372.33"/>
<polygon fill="#000000" stroke="#000000" points="231.5,-369.1 223.07,-375.52 233.66,-375.76 231.5,-369.1"/>
<text text-anchor="middle" x="545.98" y="-358.4" font-family="Times,serif" font-size="32.00">ε_5</text>
<text text-anchor="middle" x="545.98" y="-323.4" font-family="Times,serif" font-size="32.00">=&gt;4 v</text>
</g>
<!-- prog -->
<g id="node13" class="node">
<title>prog</title>
<ellipse fill="none" stroke="black" cx="695.48" cy="-544" rx="52.15" ry="30.31"/>
<text text-anchor="middle" x="695.48" y="-535.9" font-family="Times,serif" font-size="32.00">prog</text>
</g>
<!-- 4&#45;&gt;prog -->
<g id="edge10" class="edge">
<title>4&#45;&gt;prog</title>
<path fill="none" stroke="#000000" d="M986.98,-392.34C973.05,-394.65 955.58,-397.52 939.98,-400 867.6,-411.5 835.98,-381.52 776.98,-425 762.26,-435.85 768.57,-446.43 758.98,-462 749.1,-478.05 736.76,-494.78 725.67,-508.9"/>
<polygon fill="#000000" stroke="#000000" points="722.8,-506.89 719.32,-516.9 728.28,-511.25 722.8,-506.89"/>
<text text-anchor="middle" x="858.48" y="-469.4" font-family="Times,serif" font-size="32.00">ing</text>
<text text-anchor="middle" x="858.48" y="-434.4" font-family="Times,serif" font-size="32.00">=&gt;4 prog</text>
</g>
<!-- 4&#45;&gt;perf -->
<g id="edge22" class="edge">
<title>4&#45;&gt;perf</title>
<path fill="none" stroke="#000000" d="M986.73,-388C896.26,-388 596.08,-388 468.81,-388"/>
<polygon fill="#000000" stroke="#000000" points="468.5,-384.5 458.5,-388 468.5,-391.5 468.5,-384.5"/>
<text text-anchor="middle" x="695.48" y="-432.4" font-family="Times,serif" font-size="32.00">n_1</text>
<text text-anchor="middle" x="695.48" y="-397.4" font-family="Times,serif" font-size="32.00">=&gt;4 perf</text>
</g>
<!-- prog&#45;&gt;1 -->
<g id="edge17" class="edge">
<title>prog&#45;&gt;1</title>
<path fill="none" stroke="#000000" d="M642.95,-545.96C633.32,-546.31 623.35,-546.67 613.98,-547 375.01,-555.33 305.46,-617.19 75.98,-550 70.66,-548.44 65.36,-546.07 60.35,-543.34"/>
<polygon fill="#000000" stroke="#000000" points="62.08,-540.3 51.7,-538.15 58.47,-546.3 62.08,-540.3"/>
<text text-anchor="middle" x="291.98" y="-624.4" font-family="Times,serif" font-size="32.00">be</text>
<text text-anchor="middle" x="291.98" y="-589.4" font-family="Times,serif" font-size="32.00">=prog 1</text>
</g>
<!-- prog&#45;&gt;v -->
<g id="edge18" class="edge">
<title>prog&#45;&gt;v</title>
<path fill="none" stroke="#000000" d="M642.93,-544.86C587.37,-544.78 503.44,-541.44 477.98,-523 461.87,-511.33 475.92,-493.92 459.98,-482 381.77,-423.47 324.29,-506.61 241.98,-454 229.52,-446.04 219.97,-433.15 213,-420.59"/>
<polygon fill="#000000" stroke="#000000" points="216.05,-418.88 208.37,-411.58 209.82,-422.07 216.05,-418.88"/>
<text text-anchor="middle" x="409.98" y="-526.4" font-family="Times,serif" font-size="32.00">be_1</text>
<text text-anchor="middle" x="409.98" y="-491.4" font-family="Times,serif" font-size="32.00">=prog v</text>
</g>
<!-- prog&#45;&gt;perf -->
<g id="edge19" class="edge">
<title>prog&#45;&gt;perf</title>
<path fill="none" stroke="#000000" d="M657.03,-523.01C647.91,-516.56 638.83,-508.8 631.98,-500 618.24,-482.35 631.29,-467.17 613.98,-453 566.56,-414.15 535.27,-451.81 477.98,-430 468.75,-426.48 459.41,-421.62 450.75,-416.45"/>
<polygon fill="#000000" stroke="#000000" points="452.35,-413.32 442.01,-411 448.64,-419.26 452.35,-413.32"/>
<text text-anchor="middle" x="545.98" y="-497.4" font-family="Times,serif" font-size="32.00">ben</text>
<text text-anchor="middle" x="545.98" y="-462.4" font-family="Times,serif" font-size="32.00">=prog perf</text>
</g>
<!-- perf&#45;&gt;v -->
<g id="edge30" class="edge">
<title>perf&#45;&gt;v</title>
<path fill="none" stroke="#000000" d="M362.14,-384.85C355.38,-384.5 348.51,-384.19 341.98,-384 305.26,-382.9 263.25,-383.07 234.12,-383.4"/>
<polygon fill="#000000" stroke="#000000" points="233.96,-379.91 224,-383.53 234.05,-386.9 233.96,-379.91"/>
<text text-anchor="middle" x="291.98" y="-428.4" font-family="Times,serif" font-size="32.00">have</text>
<text text-anchor="middle" x="291.98" y="-393.4" font-family="Times,serif" font-size="32.00">=perf v</text>
</g>
<!-- pass&#45;&gt;4 -->
<g id="edge20" class="edge">
<title>pass&#45;&gt;4</title>
<path fill="none" stroke="#000000" d="M1364.18,-373.82C1325.44,-378.88 1269.87,-385.33 1220.98,-388 1161.52,-391.24 1092.26,-390.27 1051.11,-389.19"/>
<polygon fill="#000000" stroke="#000000" points="1051.12,-385.69 1041.02,-388.91 1050.92,-392.68 1051.12,-385.69"/>
<text text-anchor="middle" x="1287.98" y="-431.4" font-family="Times,serif" font-size="32.00">be_2</text>
<text text-anchor="middle" x="1287.98" y="-396.4" font-family="Times,serif" font-size="32.00">=pass 4</text>
</g>
<!-- c2&#45;&gt;3 -->
<g id="edge15" class="edge">
<title>c2&#45;&gt;3</title>
<path fill="none" stroke="#000000" d="M1711.38,-856.93C1702.9,-848.12 1692.34,-838.88 1680.98,-833 1633.53,-808.44 1601.74,-846.78 1562.98,-810 1543.6,-791.61 1530.58,-720.29 1524.01,-674.27"/>
<polygon fill="#000000" stroke="#000000" points="1527.46,-673.73 1522.63,-664.3 1520.53,-674.69 1527.46,-673.73"/>
<text text-anchor="middle" x="1621.98" y="-982.4" font-family="Times,serif" font-size="32.00">declare |</text>
<text text-anchor="middle" x="1621.98" y="-947.4" font-family="Times,serif" font-size="32.00"> think |</text>
<text text-anchor="middle" x="1621.98" y="-912.4" font-family="Times,serif" font-size="32.00"> explain |</text>
<text text-anchor="middle" x="1621.98" y="-877.4" font-family="Times,serif" font-size="32.00"> say</text>
<text text-anchor="middle" x="1621.98" y="-842.4" font-family="Times,serif" font-size="32.00">=c2 3</text>
</g>
<!-- 5 -->
<g id="node17" class="node">
<title>5</title>
<ellipse fill="none" stroke="black" cx="1287.98" cy="-191" rx="27" ry="30.31"/>
<text text-anchor="middle" x="1287.98" y="-182.9" font-family="Times,serif" font-size="32.00">5</text>
</g>
<!-- 5&#45;&gt;1 -->
<g id="edge23" class="edge">
<title>5&#45;&gt;1</title>
<path fill="none" stroke="#000000" d="M1264.59,-175.01C1219.59,-144.5 1114.06,-81 1014.98,-81 1014.98,-81 1014.98,-81 195.98,-81 93.84,-81 112.71,-181.69 75.98,-277 49.5,-345.72 37.88,-431.39 33.08,-480.78"/>
<polygon fill="#000000" stroke="#000000" points="29.6,-480.47 32.16,-490.75 36.57,-481.12 29.6,-480.47"/>
<text text-anchor="middle" x="545.98" y="-125.4" font-family="Times,serif" font-size="32.00">ε_6</text>
<text text-anchor="middle" x="545.98" y="-90.4" font-family="Times,serif" font-size="32.00">=&gt;5 =to 1</text>
</g>
<!-- 5&#45;&gt;v -->
<g id="edge25" class="edge">
<title>5&#45;&gt;v</title>
<path fill="none" stroke="#000000" d="M1261.18,-187.04C1212.95,-179.99 1105.79,-166 1014.98,-166 1014.98,-166 1014.98,-166 408.98,-166 309.49,-166 241.94,-284.69 213.37,-346.92"/>
<polygon fill="#000000" stroke="#000000" points="210.02,-345.83 209.12,-356.39 216.4,-348.7 210.02,-345.83"/>
<text text-anchor="middle" x="695.48" y="-210.4" font-family="Times,serif" font-size="32.00">ε_7</text>
<text text-anchor="middle" x="695.48" y="-175.4" font-family="Times,serif" font-size="32.00">=&gt;5 =to v</text>
</g>
<!-- 5&#45;&gt;4 -->
<g id="edge27" class="edge">
<title>5&#45;&gt;4</title>
<path fill="none" stroke="#000000" d="M1261.1,-195.34C1207.41,-204.36 1088.84,-224.34 1087.98,-225 1049.23,-255.04 1030.5,-310.16 1021.84,-347.92"/>
<polygon fill="#000000" stroke="#000000" points="1018.34,-347.56 1019.66,-358.07 1025.18,-349.03 1018.34,-347.56"/>
<text text-anchor="middle" x="1154.48" y="-269.4" font-family="Times,serif" font-size="32.00">ε_8</text>
<text text-anchor="middle" x="1154.48" y="-234.4" font-family="Times,serif" font-size="32.00">=&gt;5 =to 4</text>
</g>
<!-- 5&#45;&gt;4 -->
<g id="edge28" class="edge">
<title>5&#45;&gt;4</title>
<path fill="none" stroke="#000000" d="M1276.75,-219.14C1266.46,-243.24 1248.2,-276.84 1220.98,-295 1171.08,-328.29 1141.53,-290.95 1087.98,-318 1069.21,-327.49 1052.01,-343.43 1039.04,-357.7"/>
<polygon fill="#000000" stroke="#000000" points="1036.24,-355.58 1032.28,-365.41 1041.5,-360.2 1036.24,-355.58"/>
<text text-anchor="middle" x="1154.48" y="-362.4" font-family="Times,serif" font-size="32.00">ε_9</text>
<text text-anchor="middle" x="1154.48" y="-327.4" font-family="Times,serif" font-size="32.00">=&gt;5 =c1 4</text>
</g>
<!-- 5&#45;&gt;perf -->
<g id="edge26" class="edge">
<title>5&#45;&gt;perf</title>
<path fill="none" stroke="#000000" d="M1260.83,-192.07C1222.72,-193.8 1149.73,-197.78 1087.98,-205 1019.76,-212.97 537.34,-270.45 477.98,-305 459.31,-315.87 443.74,-334.07 432.33,-350.66"/>
<polygon fill="#000000" stroke="#000000" points="429.32,-348.87 426.74,-359.14 435.16,-352.72 429.32,-348.87"/>
<text text-anchor="middle" x="858.48" y="-290.4" font-family="Times,serif" font-size="32.00">n_2</text>
<text text-anchor="middle" x="858.48" y="-255.4" font-family="Times,serif" font-size="32.00">=&gt;5 =to perf</text>
</g>
<!-- z3 -->
<g id="node18" class="node">
<title>z3</title>
<ellipse fill="none" stroke="black" stroke-dasharray="5,2" cx="1517.98" cy="-191" rx="27" ry="18"/>
</g>
<!-- z3&#45;&gt;5 -->
<g id="edge24" class="edge">
<title>z3&#45;&gt;5</title>
<path fill="none" stroke="#000000" d="M1490.83,-191C1450.13,-191 1371.55,-191 1325.35,-191"/>
<polygon fill="#000000" stroke="#000000" points="1325.18,-187.5 1315.18,-191 1325.18,-194.5 1325.18,-187.5"/>
<text text-anchor="middle" x="1413.98" y="-270.4" font-family="Times,serif" font-size="32.00">seem |</text>
<text text-anchor="middle" x="1413.98" y="-235.4" font-family="Times,serif" font-size="32.00"> appear</text>
<text text-anchor="middle" x="1413.98" y="-200.4" font-family="Times,serif" font-size="32.00">5</text>
</g>
<!-- z4 -->
<g id="node19" class="node">
<title>z4</title>
<ellipse fill="none" stroke="black" stroke-dasharray="5,2" cx="2273.45" cy="-502" rx="27" ry="18"/>
</g>
<!-- e -->
<g id="node20" class="node">
<title>e</title>
<ellipse fill="none" stroke="black" cx="2120.45" cy="-502" rx="27" ry="30.31"/>
<text text-anchor="middle" x="2120.45" y="-493.9" font-family="Times,serif" font-size="32.00">e</text>
</g>
<!-- z4&#45;&gt;e -->
<g id="edge31" class="edge">
<title>z4&#45;&gt;e</title>
<path fill="none" stroke="#000000" d="M2246.15,-502C2221.68,-502 2185,-502 2157.75,-502"/>
<polygon fill="#000000" stroke="#000000" points="2157.45,-498.5 2147.45,-502 2157.45,-505.5 2157.45,-498.5"/>
<text text-anchor="middle" x="2196.95" y="-546.4" font-family="Times,serif" font-size="32.00">it</text>
<text text-anchor="middle" x="2196.95" y="-511.4" font-family="Times,serif" font-size="32.00">e &#45;k</text>
</g>
</g>
</svg>
