<?xml version="1.0" encoding="UTF-8" standalone="no"?>
<!DOCTYPE svg PUBLIC "-//W3C//DTD SVG 1.1//EN"
 "http://www.w3.org/Graphics/SVG/1.1/DTD/svg11.dtd">
<!-- Generated by graphviz version 2.47.1 (20210417.1919)
 -->
<!-- Title: G Pages: 1 -->
<svg width="2011pt" height="1264pt"
 viewBox="0.00 0.00 2011.45 1264.00" xmlns="http://www.w3.org/2000/svg" xmlns:xlink="http://www.w3.org/1999/xlink">
<g id="graph0" class="graph" transform="scale(1 1) rotate(0) translate(4 1260)">
<title>G</title>
<polygon fill="white" stroke="transparent" points="-4,4 -4,-1260 2007.45,-1260 2007.45,4 -4,4"/>
<text text-anchor="middle" x="1001.73" y="-13.4" font-family="Times,serif" font-size="32.00">decomposition: &#160;=&gt;4 =to 1, &#160;=&gt;4 =to v, n =&gt;4 =to perf, &#160;=&gt;4 =to 2</text>
<!-- t -->
<g id="node1" class="node">
<title>t</title>
<ellipse fill="lightgray" stroke="black" cx="1642.45" cy="-1143" rx="27" ry="30.31"/>
<text text-anchor="middle" x="1642.45" y="-1134.9" font-family="Times,serif" font-size="32.00">t</text>
</g>
<!-- c2 -->
<g id="node15" class="node">
<title>c2</title>
<ellipse fill="none" stroke="black" cx="1435.22" cy="-979" rx="33.47" ry="30.31"/>
<text text-anchor="middle" x="1435.22" y="-970.9" font-family="Times,serif" font-size="32.00">c2</text>
</g>
<!-- t&#45;&gt;c2 -->
<g id="edge32" class="edge">
<title>t&#45;&gt;c2</title>
<path fill="none" stroke="#000000" d="M1631.9,-1114.86C1624.7,-1097.05 1613.34,-1074.54 1597.45,-1059 1563.25,-1025.54 1512.29,-1003.49 1476.85,-991.17"/>
<polygon fill="#000000" stroke="#000000" points="1477.88,-987.82 1467.29,-987.95 1475.65,-994.46 1477.88,-987.82"/>
<text text-anchor="middle" x="1541.95" y="-1103.4" font-family="Times,serif" font-size="32.00">that_1</text>
<text text-anchor="middle" x="1541.95" y="-1068.4" font-family="Times,serif" font-size="32.00">=t c2</text>
</g>
<!-- c1 -->
<g id="node22" class="node">
<title>c1</title>
<ellipse fill="none" stroke="black" cx="1435.22" cy="-1201" rx="33.47" ry="30.31"/>
<text text-anchor="middle" x="1435.22" y="-1192.9" font-family="Times,serif" font-size="32.00">c1</text>
</g>
<!-- t&#45;&gt;c1 -->
<g id="edge31" class="edge">
<title>t&#45;&gt;c1</title>
<path fill="none" stroke="#000000" d="M1616.38,-1151.18C1610.2,-1153.13 1603.6,-1155.18 1597.45,-1157 1556.9,-1168.98 1510.27,-1181.58 1477.62,-1190.21"/>
<polygon fill="#000000" stroke="#000000" points="1476.31,-1186.93 1467.54,-1192.87 1478.1,-1193.7 1476.31,-1186.93"/>
<text text-anchor="middle" x="1541.95" y="-1230.4" font-family="Times,serif" font-size="32.00">that</text>
<text text-anchor="middle" x="1541.95" y="-1195.4" font-family="Times,serif" font-size="32.00">=t =e c1</text>
</g>
<!-- 0 -->
<g id="node2" class="node">
<title>0</title>
<ellipse fill="none" stroke="black" cx="1642.45" cy="-459" rx="27" ry="30.31"/>
<text text-anchor="middle" x="1642.45" y="-450.9" font-family="Times,serif" font-size="32.00">0</text>
</g>
<!-- d -->
<g id="node3" class="node">
<title>d</title>
<ellipse fill="none" stroke="black" cx="1435.22" cy="-459" rx="27" ry="30.31"/>
<text text-anchor="middle" x="1435.22" y="-450.9" font-family="Times,serif" font-size="32.00">d</text>
</g>
<!-- 0&#45;&gt;d -->
<g id="edge1" class="edge">
<title>0&#45;&gt;d</title>
<path fill="none" stroke="#000000" d="M1615.04,-459C1578.79,-459 1513.47,-459 1472.61,-459"/>
<polygon fill="#000000" stroke="#000000" points="1472.53,-455.5 1462.53,-459 1472.53,-462.5 1472.53,-455.5"/>
<text text-anchor="middle" x="1541.95" y="-503.4" font-family="Times,serif" font-size="32.00">ε_0</text>
<text text-anchor="middle" x="1541.95" y="-468.4" font-family="Times,serif" font-size="32.00">=&gt;0 d &#45;k</text>
</g>
<!-- 3 -->
<g id="node9" class="node">
<title>3</title>
<ellipse fill="none" stroke="black" cx="1172.48" cy="-656" rx="27" ry="30.31"/>
<text text-anchor="middle" x="1172.48" y="-647.9" font-family="Times,serif" font-size="32.00">3</text>
</g>
<!-- d&#45;&gt;3 -->
<g id="edge12" class="edge">
<title>d&#45;&gt;3</title>
<path fill="none" stroke="#000000" d="M1423.04,-486.57C1414.78,-503.32 1401.85,-523.61 1383.98,-535 1335.86,-565.68 1306.61,-525.81 1256.98,-554 1229.4,-569.67 1207.21,-598.27 1192.66,-621.21"/>
<polygon fill="#000000" stroke="#000000" points="1189.51,-619.64 1187.27,-630 1195.48,-623.3 1189.51,-619.64"/>
<text text-anchor="middle" x="1320.48" y="-703.4" font-family="Times,serif" font-size="32.00">praise |</text>
<text text-anchor="middle" x="1320.48" y="-668.4" font-family="Times,serif" font-size="32.00"> like |</text>
<text text-anchor="middle" x="1320.48" y="-633.4" font-family="Times,serif" font-size="32.00"> kiss |</text>
<text text-anchor="middle" x="1320.48" y="-598.4" font-family="Times,serif" font-size="32.00"> hug</text>
<text text-anchor="middle" x="1320.48" y="-563.4" font-family="Times,serif" font-size="32.00">=d *k 3</text>
</g>
<!-- pass -->
<g id="node14" class="node">
<title>pass</title>
<ellipse fill="none" stroke="black" cx="1172.48" cy="-444" rx="50.82" ry="30.31"/>
<text text-anchor="middle" x="1172.48" y="-435.9" font-family="Times,serif" font-size="32.00">pass</text>
</g>
<!-- d&#45;&gt;pass -->
<g id="edge13" class="edge">
<title>d&#45;&gt;pass</title>
<path fill="none" stroke="#000000" d="M1428.05,-429.45C1421.46,-406.1 1408.46,-375.03 1383.98,-360 1335.88,-330.47 1304.38,-329.35 1256.98,-360 1240.61,-370.59 1251.56,-385.1 1238.98,-400 1233.39,-406.62 1226.57,-412.66 1219.46,-417.99"/>
<polygon fill="#000000" stroke="#000000" points="1217.2,-415.3 1211.04,-423.93 1221.23,-421.03 1217.2,-415.3"/>
<text text-anchor="middle" x="1320.48" y="-509.4" font-family="Times,serif" font-size="32.00">praisen |</text>
<text text-anchor="middle" x="1320.48" y="-474.4" font-family="Times,serif" font-size="32.00"> liken |</text>
<text text-anchor="middle" x="1320.48" y="-439.4" font-family="Times,serif" font-size="32.00"> kissn |</text>
<text text-anchor="middle" x="1320.48" y="-404.4" font-family="Times,serif" font-size="32.00"> hugn</text>
<text text-anchor="middle" x="1320.48" y="-369.4" font-family="Times,serif" font-size="32.00">=d pass</text>
</g>
<!-- z0 -->
<g id="node4" class="node">
<title>z0</title>
<ellipse fill="none" stroke="black" stroke-dasharray="5,2" cx="1823.45" cy="-558" rx="27" ry="18"/>
</g>
<!-- z0&#45;&gt;0 -->
<g id="edge2" class="edge">
<title>z0&#45;&gt;0</title>
<path fill="none" stroke="#000000" d="M1796.4,-560.08C1767.27,-561.07 1719.94,-558.54 1687.45,-536 1673.75,-526.5 1663.77,-511.26 1656.81,-496.83"/>
<polygon fill="#000000" stroke="#000000" points="1659.94,-495.25 1652.67,-487.54 1653.54,-498.1 1659.94,-495.25"/>
<text text-anchor="middle" x="1732.95" y="-709.4" font-family="Times,serif" font-size="32.00">Mary |</text>
<text text-anchor="middle" x="1732.95" y="-674.4" font-family="Times,serif" font-size="32.00"> John |</text>
<text text-anchor="middle" x="1732.95" y="-639.4" font-family="Times,serif" font-size="32.00"> Alice |</text>
<text text-anchor="middle" x="1732.95" y="-604.4" font-family="Times,serif" font-size="32.00"> Bob</text>
<text text-anchor="middle" x="1732.95" y="-569.4" font-family="Times,serif" font-size="32.00">0</text>
</g>
<!-- n -->
<g id="node5" class="node">
<title>n</title>
<ellipse fill="none" stroke="black" cx="1823.45" cy="-360" rx="27" ry="30.31"/>
<text text-anchor="middle" x="1823.45" y="-351.9" font-family="Times,serif" font-size="32.00">n</text>
</g>
<!-- n&#45;&gt;0 -->
<g id="edge3" class="edge">
<title>n&#45;&gt;0</title>
<path fill="none" stroke="#000000" d="M1797.48,-351.58C1768.5,-343.46 1720.45,-335.29 1687.45,-357 1666.63,-370.69 1655.62,-396.55 1649.82,-418.8"/>
<polygon fill="#000000" stroke="#000000" points="1646.37,-418.18 1647.5,-428.71 1653.19,-419.77 1646.37,-418.18"/>
<text text-anchor="middle" x="1732.95" y="-506.4" font-family="Times,serif" font-size="32.00">this |</text>
<text text-anchor="middle" x="1732.95" y="-471.4" font-family="Times,serif" font-size="32.00"> a |</text>
<text text-anchor="middle" x="1732.95" y="-436.4" font-family="Times,serif" font-size="32.00"> the |</text>
<text text-anchor="middle" x="1732.95" y="-401.4" font-family="Times,serif" font-size="32.00"> some</text>
<text text-anchor="middle" x="1732.95" y="-366.4" font-family="Times,serif" font-size="32.00">=n 0</text>
</g>
<!-- z1 -->
<g id="node6" class="node">
<title>z1</title>
<ellipse fill="none" stroke="black" stroke-dasharray="5,2" cx="1976.45" cy="-360" rx="27" ry="18"/>
</g>
<!-- z1&#45;&gt;n -->
<g id="edge4" class="edge">
<title>z1&#45;&gt;n</title>
<path fill="none" stroke="#000000" d="M1949.15,-360C1924.68,-360 1888,-360 1860.75,-360"/>
<polygon fill="#000000" stroke="#000000" points="1860.45,-356.5 1850.45,-360 1860.45,-363.5 1860.45,-356.5"/>
<text text-anchor="middle" x="1899.95" y="-439.4" font-family="Times,serif" font-size="32.00">boy |</text>
<text text-anchor="middle" x="1899.95" y="-404.4" font-family="Times,serif" font-size="32.00"> girl</text>
<text text-anchor="middle" x="1899.95" y="-369.4" font-family="Times,serif" font-size="32.00">n</text>
</g>
<!-- 1 -->
<g id="node7" class="node">
<title>1</title>
<ellipse fill="none" stroke="black" cx="28.99" cy="-543" rx="27" ry="30.31"/>
<text text-anchor="middle" x="28.99" y="-534.9" font-family="Times,serif" font-size="32.00">1</text>
</g>
<!-- 1&#45;&gt;t -->
<g id="edge5" class="edge">
<title>1&#45;&gt;t</title>
<path fill="none" stroke="#000000" d="M31.75,-573.58C39.62,-695.85 76.55,-1143 195.98,-1143 1436.22,-1143 1436.22,-1143 1436.22,-1143 1495.38,-1143 1564.14,-1143 1605.15,-1143"/>
<polygon fill="#000000" stroke="#000000" points="1605.21,-1146.5 1615.21,-1143 1605.21,-1139.5 1605.21,-1146.5"/>
<text text-anchor="middle" x="820.98" y="-1222.4" font-family="Times,serif" font-size="32.00">s |</text>
<text text-anchor="middle" x="820.98" y="-1187.4" font-family="Times,serif" font-size="32.00"> d</text>
<text text-anchor="middle" x="820.98" y="-1152.4" font-family="Times,serif" font-size="32.00">=&gt;1 +k t</text>
</g>
<!-- 2 -->
<g id="node8" class="node">
<title>2</title>
<ellipse fill="none" stroke="black" cx="924.98" cy="-404" rx="27" ry="30.31"/>
<text text-anchor="middle" x="924.98" y="-395.9" font-family="Times,serif" font-size="32.00">2</text>
</g>
<!-- 2&#45;&gt;1 -->
<g id="edge6" class="edge">
<title>2&#45;&gt;1</title>
<path fill="none" stroke="#000000" d="M920.8,-434.1C916.22,-465.07 905.34,-513.42 879.98,-547 819,-627.77 790.19,-671 688.98,-671 688.98,-671 688.98,-671 195.98,-671 133.39,-671 79.98,-613.22 51.66,-575.3"/>
<polygon fill="#000000" stroke="#000000" points="54.39,-573.1 45.68,-567.08 48.73,-577.22 54.39,-573.1"/>
<text text-anchor="middle" x="409.98" y="-715.4" font-family="Times,serif" font-size="32.00">ε_1</text>
<text text-anchor="middle" x="409.98" y="-680.4" font-family="Times,serif" font-size="32.00">=&gt;2 1</text>
</g>
<!-- v -->
<g id="node11" class="node">
<title>v</title>
<ellipse fill="none" stroke="black" cx="196.98" cy="-387" rx="27" ry="30.31"/>
<text text-anchor="middle" x="196.98" y="-378.9" font-family="Times,serif" font-size="32.00">v</text>
</g>
<!-- 2&#45;&gt;v -->
<g id="edge9" class="edge">
<title>2&#45;&gt;v</title>
<path fill="none" stroke="#000000" d="M899.19,-394.3C847.27,-374.56 722.94,-330.33 613.98,-315 554.13,-306.58 537.95,-307.41 477.98,-315 387.88,-326.4 285.27,-357.65 232.85,-375"/>
<polygon fill="#000000" stroke="#000000" points="231.42,-371.78 223.05,-378.27 233.64,-378.42 231.42,-371.78"/>
<text text-anchor="middle" x="545.98" y="-359.4" font-family="Times,serif" font-size="32.00">ε_3</text>
<text text-anchor="middle" x="545.98" y="-324.4" font-family="Times,serif" font-size="32.00">=&gt;2 v</text>
</g>
<!-- prog -->
<g id="node12" class="node">
<title>prog</title>
<ellipse fill="none" stroke="black" cx="687.98" cy="-505" rx="52.15" ry="30.31"/>
<text text-anchor="middle" x="687.98" y="-496.9" font-family="Times,serif" font-size="32.00">prog</text>
</g>
<!-- 2&#45;&gt;prog -->
<g id="edge10" class="edge">
<title>2&#45;&gt;prog</title>
<path fill="none" stroke="#000000" d="M899.28,-414.62C861.64,-430.8 789.12,-461.96 739.88,-483.12"/>
<polygon fill="#000000" stroke="#000000" points="738.48,-479.92 730.67,-487.08 741.24,-486.35 738.48,-479.92"/>
<text text-anchor="middle" x="820.98" y="-517.4" font-family="Times,serif" font-size="32.00">ing</text>
<text text-anchor="middle" x="820.98" y="-482.4" font-family="Times,serif" font-size="32.00">=&gt;2 prog</text>
</g>
<!-- perf -->
<g id="node13" class="node">
<title>perf</title>
<ellipse fill="none" stroke="black" cx="409.98" cy="-387" rx="48.17" ry="30.31"/>
<text text-anchor="middle" x="409.98" y="-378.9" font-family="Times,serif" font-size="32.00">perf</text>
</g>
<!-- 2&#45;&gt;perf -->
<g id="edge11" class="edge">
<title>2&#45;&gt;perf</title>
<path fill="none" stroke="#000000" d="M897.76,-402.69C862.72,-400.98 798.69,-397.95 743.98,-396 647.29,-392.54 534.76,-389.76 468.39,-388.25"/>
<polygon fill="#000000" stroke="#000000" points="468.22,-384.74 458.14,-388.02 468.06,-391.74 468.22,-384.74"/>
<text text-anchor="middle" x="687.98" y="-440.4" font-family="Times,serif" font-size="32.00">n</text>
<text text-anchor="middle" x="687.98" y="-405.4" font-family="Times,serif" font-size="32.00">=&gt;2 perf</text>
</g>
<!-- 3&#45;&gt;2 -->
<g id="edge7" class="edge">
<title>3&#45;&gt;2</title>
<path fill="none" stroke="#000000" d="M1147.54,-643.38C1106.26,-620.57 1021.24,-568.77 969.98,-504 955.58,-485.81 944.9,-462.17 937.67,-442.44"/>
<polygon fill="#000000" stroke="#000000" points="940.9,-441.1 934.29,-432.82 934.3,-443.41 940.9,-441.1"/>
<text text-anchor="middle" x="1028.98" y="-650.4" font-family="Times,serif" font-size="32.00">ε_2</text>
<text text-anchor="middle" x="1028.98" y="-615.4" font-family="Times,serif" font-size="32.00">=&gt;3 =d 2</text>
</g>
<!-- z2 -->
<g id="node10" class="node">
<title>z2</title>
<ellipse fill="none" stroke="black" stroke-dasharray="5,2" cx="1435.22" cy="-755" rx="27" ry="18"/>
</g>
<!-- z2&#45;&gt;3 -->
<g id="edge8" class="edge">
<title>z2&#45;&gt;3</title>
<path fill="none" stroke="#000000" d="M1408.26,-753.72C1365.73,-751.31 1283.28,-745.2 1256.98,-733 1234.08,-722.38 1213.19,-703.12 1198.04,-686.52"/>
<polygon fill="#000000" stroke="#000000" points="1200.32,-683.81 1191.08,-678.63 1195.08,-688.45 1200.32,-683.81"/>
<text text-anchor="middle" x="1320.48" y="-901.4" font-family="Times,serif" font-size="32.00">dance |</text>
<text text-anchor="middle" x="1320.48" y="-866.4" font-family="Times,serif" font-size="32.00"> laugh |</text>
<text text-anchor="middle" x="1320.48" y="-831.4" font-family="Times,serif" font-size="32.00"> smile |</text>
<text text-anchor="middle" x="1320.48" y="-796.4" font-family="Times,serif" font-size="32.00"> jump</text>
<text text-anchor="middle" x="1320.48" y="-761.4" font-family="Times,serif" font-size="32.00">3</text>
</g>
<!-- v&#45;&gt;1 -->
<g id="edge15" class="edge">
<title>v&#45;&gt;1</title>
<path fill="none" stroke="#000000" d="M188.79,-416.17C182.35,-436.48 170.93,-462.74 151.98,-479 125.2,-501.98 106.77,-484.74 75.98,-502 69.31,-505.74 62.78,-510.59 56.83,-515.64"/>
<polygon fill="#000000" stroke="#000000" points="54.22,-513.27 49.12,-522.56 58.9,-518.48 54.22,-513.27"/>
<text text-anchor="middle" x="113.98" y="-546.4" font-family="Times,serif" font-size="32.00">will</text>
<text text-anchor="middle" x="113.98" y="-511.4" font-family="Times,serif" font-size="32.00">=v 1</text>
</g>
<!-- v&#45;&gt;1 -->
<g id="edge27" class="edge">
<title>v&#45;&gt;1</title>
<path fill="none" stroke="#000000" d="M169.91,-387.79C138.97,-389.25 89.81,-393.38 75.98,-405 47.5,-428.94 36.57,-471.04 32.42,-502.46"/>
<polygon fill="#000000" stroke="#000000" points="28.91,-502.34 31.26,-512.67 35.87,-503.13 28.91,-502.34"/>
<text text-anchor="middle" x="113.98" y="-449.4" font-family="Times,serif" font-size="32.00">ε_9</text>
<text text-anchor="middle" x="113.98" y="-414.4" font-family="Times,serif" font-size="32.00">=&gt;v 1</text>
</g>
<!-- to -->
<g id="node21" class="node">
<title>to</title>
<ellipse fill="none" stroke="black" cx="28.99" cy="-315" rx="28.98" ry="30.31"/>
<text text-anchor="middle" x="28.99" y="-306.9" font-family="Times,serif" font-size="32.00">to</text>
</g>
<!-- v&#45;&gt;to -->
<g id="edge30" class="edge">
<title>v&#45;&gt;to</title>
<path fill="none" stroke="#000000" d="M186.28,-358.68C179.34,-343.12 168.29,-325.17 151.98,-316 126.51,-301.68 93.05,-302.51 67.62,-306.31"/>
<polygon fill="#000000" stroke="#000000" points="66.88,-302.89 57.61,-308.02 68.05,-309.79 66.88,-302.89"/>
<text text-anchor="middle" x="113.98" y="-360.4" font-family="Times,serif" font-size="32.00">to</text>
<text text-anchor="middle" x="113.98" y="-325.4" font-family="Times,serif" font-size="32.00">=v to</text>
</g>
<!-- prog&#45;&gt;1 -->
<g id="edge16" class="edge">
<title>prog&#45;&gt;1</title>
<path fill="none" stroke="#000000" d="M643.87,-521.77C598.81,-538.33 525.66,-562.51 459.98,-572 375.53,-584.2 157.96,-595.69 75.98,-572 70.66,-570.46 65.35,-568.1 60.34,-565.38"/>
<polygon fill="#000000" stroke="#000000" points="62.07,-562.33 51.69,-560.18 58.46,-568.33 62.07,-562.33"/>
<text text-anchor="middle" x="291.98" y="-629.4" font-family="Times,serif" font-size="32.00">be</text>
<text text-anchor="middle" x="291.98" y="-594.4" font-family="Times,serif" font-size="32.00">=prog 1</text>
</g>
<!-- prog&#45;&gt;v -->
<g id="edge17" class="edge">
<title>prog&#45;&gt;v</title>
<path fill="none" stroke="#000000" d="M635.59,-505.76C532.66,-506.35 305.6,-502.72 241.98,-461 228.68,-452.28 218.83,-438.01 211.87,-424.33"/>
<polygon fill="#000000" stroke="#000000" points="214.92,-422.59 207.5,-415.02 208.58,-425.56 214.92,-422.59"/>
<text text-anchor="middle" x="409.98" y="-546.4" font-family="Times,serif" font-size="32.00">be_1</text>
<text text-anchor="middle" x="409.98" y="-511.4" font-family="Times,serif" font-size="32.00">=prog v</text>
</g>
<!-- prog&#45;&gt;perf -->
<g id="edge18" class="edge">
<title>prog&#45;&gt;perf</title>
<path fill="none" stroke="#000000" d="M653.24,-482.17C645.6,-475.93 637.98,-468.73 631.98,-461 620.04,-445.59 629.42,-432.91 613.98,-421 613.24,-420.43 526.75,-406.08 466.92,-396.21"/>
<polygon fill="#000000" stroke="#000000" points="467.26,-392.72 456.82,-394.54 466.12,-399.62 467.26,-392.72"/>
<text text-anchor="middle" x="545.98" y="-465.4" font-family="Times,serif" font-size="32.00">ben</text>
<text text-anchor="middle" x="545.98" y="-430.4" font-family="Times,serif" font-size="32.00">=prog perf</text>
</g>
<!-- perf&#45;&gt;v -->
<g id="edge28" class="edge">
<title>perf&#45;&gt;v</title>
<path fill="none" stroke="#000000" d="M361.89,-387C323.37,-387 269.67,-387 234.38,-387"/>
<polygon fill="#000000" stroke="#000000" points="234.06,-383.5 224.06,-387 234.06,-390.5 234.06,-383.5"/>
<text text-anchor="middle" x="291.98" y="-431.4" font-family="Times,serif" font-size="32.00">have</text>
<text text-anchor="middle" x="291.98" y="-396.4" font-family="Times,serif" font-size="32.00">=perf v</text>
</g>
<!-- pass&#45;&gt;2 -->
<g id="edge19" class="edge">
<title>pass&#45;&gt;2</title>
<path fill="none" stroke="#000000" d="M1123.27,-436.15C1075.8,-428.41 1004.39,-416.77 961.76,-409.83"/>
<polygon fill="#000000" stroke="#000000" points="962.26,-406.36 951.83,-408.21 961.13,-413.27 962.26,-406.36"/>
<text text-anchor="middle" x="1028.98" y="-474.4" font-family="Times,serif" font-size="32.00">be_2</text>
<text text-anchor="middle" x="1028.98" y="-439.4" font-family="Times,serif" font-size="32.00">=pass 2</text>
</g>
<!-- c2&#45;&gt;3 -->
<g id="edge14" class="edge">
<title>c2&#45;&gt;3</title>
<path fill="none" stroke="#000000" d="M1406.39,-963.41C1399.25,-959.9 1391.47,-956.49 1383.98,-954 1329.54,-935.93 1299.82,-969.15 1256.98,-931 1189.32,-870.74 1175.63,-757.59 1173.4,-696.91"/>
<polygon fill="#000000" stroke="#000000" points="1176.88,-696.47 1173.11,-686.58 1169.89,-696.67 1176.88,-696.47"/>
<text text-anchor="middle" x="1320.48" y="-1103.4" font-family="Times,serif" font-size="32.00">declare |</text>
<text text-anchor="middle" x="1320.48" y="-1068.4" font-family="Times,serif" font-size="32.00"> think |</text>
<text text-anchor="middle" x="1320.48" y="-1033.4" font-family="Times,serif" font-size="32.00"> explain |</text>
<text text-anchor="middle" x="1320.48" y="-998.4" font-family="Times,serif" font-size="32.00"> say</text>
<text text-anchor="middle" x="1320.48" y="-963.4" font-family="Times,serif" font-size="32.00">=c2 3</text>
</g>
<!-- 4 -->
<g id="node16" class="node">
<title>4</title>
<ellipse fill="none" stroke="black" cx="1172.48" cy="-217" rx="27" ry="30.31"/>
<text text-anchor="middle" x="1172.48" y="-208.9" font-family="Times,serif" font-size="32.00">4</text>
</g>
<!-- 4&#45;&gt;1 -->
<g id="edge20" class="edge">
<title>4&#45;&gt;1</title>
<path fill="none" stroke="#f7931d" stroke-width="2" d="M1151.89,-196.93C1112.75,-159.1 1020.51,-81 925.98,-81 925.98,-81 925.98,-81 195.98,-81 106.62,-81 52.28,-391.01 35.55,-503.14"/>
<polygon fill="#f7931d" stroke="#f7931d" stroke-width="2" points="32.08,-502.64 34.09,-513.04 39.01,-503.66 32.08,-502.64"/>
<text text-anchor="middle" x="545.98" y="-125.4" font-family="Times,serif" font-size="32.00">ε_4</text>
<text text-anchor="middle" x="545.98" y="-90.4" font-family="Times,serif" font-size="32.00">=&gt;4 1</text>
</g>
<!-- 4&#45;&gt;2 -->
<g id="edge25" class="edge">
<title>4&#45;&gt;2</title>
<path fill="none" stroke="#f7931d" stroke-width="2" d="M1145.35,-220.66C1092.31,-228.18 976.5,-245.18 969.98,-251 938.5,-279.11 928.92,-328.13 926.32,-363.1"/>
<polygon fill="#f7931d" stroke="#f7931d" stroke-width="2" points="922.8,-363.28 925.72,-373.47 929.79,-363.69 922.8,-363.28"/>
<text text-anchor="middle" x="1028.98" y="-295.4" font-family="Times,serif" font-size="32.00">ε_7</text>
<text text-anchor="middle" x="1028.98" y="-260.4" font-family="Times,serif" font-size="32.00">=&gt;4 2</text>
</g>
<!-- 4&#45;&gt;v -->
<g id="edge23" class="edge">
<title>4&#45;&gt;v</title>
<path fill="none" stroke="#f7931d" stroke-width="2" d="M1146.39,-208.23C1102.36,-193.65 1008.04,-166 925.98,-166 925.98,-166 925.98,-166 408.98,-166 308.32,-166 240.96,-287.43 212.83,-350.27"/>
<polygon fill="#f7931d" stroke="#f7931d" stroke-width="2" points="209.62,-348.89 208.81,-359.46 216.03,-351.7 209.62,-348.89"/>
<text text-anchor="middle" x="687.98" y="-210.4" font-family="Times,serif" font-size="32.00">ε_6</text>
<text text-anchor="middle" x="687.98" y="-175.4" font-family="Times,serif" font-size="32.00">=&gt;4 v</text>
</g>
<!-- 4&#45;&gt;perf -->
<g id="edge24" class="edge">
<title>4&#45;&gt;perf</title>
<path fill="none" stroke="#f7931d" stroke-width="2" d="M1145.34,-218.15C1106.86,-219.99 1032.73,-224.11 969.98,-231 860.08,-243.06 574.07,-250.3 477.98,-305 459.34,-315.61 443.78,-333.58 432.36,-350"/>
<polygon fill="#f7931d" stroke="#f7931d" stroke-width="2" points="429.39,-348.13 426.77,-358.39 435.22,-352.01 429.39,-348.13"/>
<text text-anchor="middle" x="820.98" y="-292.4" font-family="Times,serif" font-size="32.00">n_1</text>
<text text-anchor="middle" x="820.98" y="-257.4" font-family="Times,serif" font-size="32.00">=&gt;4 perf</text>
</g>
<!-- 5 -->
<g id="node17" class="node">
<title>5</title>
<ellipse fill="none" stroke="black" cx="1435.22" cy="-280" rx="27" ry="30.31"/>
<text text-anchor="middle" x="1435.22" y="-271.9" font-family="Times,serif" font-size="32.00">5</text>
</g>
<!-- 5&#45;&gt;2 -->
<g id="edge26" class="edge">
<title>5&#45;&gt;2</title>
<path fill="none" stroke="#000000" d="M1412.4,-297.15C1403.98,-302.87 1393.98,-308.63 1383.98,-312 1266.49,-351.57 1226.85,-307.42 1105.98,-335 1053.04,-347.08 994.91,-371.56 959.42,-387.87"/>
<polygon fill="#000000" stroke="#000000" points="957.63,-384.85 950.04,-392.24 960.58,-391.2 957.63,-384.85"/>
<text text-anchor="middle" x="1172.48" y="-379.4" font-family="Times,serif" font-size="32.00">ε_8</text>
<text text-anchor="middle" x="1172.48" y="-344.4" font-family="Times,serif" font-size="32.00">=&gt;5 =c1 2</text>
</g>
<!-- 5&#45;&gt;4 -->
<g id="edge21" class="edge">
<title>5&#45;&gt;4</title>
<path fill="none" stroke="#f7931d" stroke-width="2" d="M1413.76,-260.61C1405.2,-253.59 1394.73,-246.33 1383.98,-242 1326.11,-218.69 1252.58,-215.29 1209.5,-215.65"/>
<polygon fill="#f7931d" stroke="#f7931d" stroke-width="2" points="1209.44,-212.15 1199.5,-215.81 1209.55,-219.15 1209.44,-212.15"/>
<text text-anchor="middle" x="1320.48" y="-286.4" font-family="Times,serif" font-size="32.00">ε_5</text>
<text text-anchor="middle" x="1320.48" y="-251.4" font-family="Times,serif" font-size="32.00">=&gt;5 =to 4</text>
</g>
<!-- z3 -->
<g id="node18" class="node">
<title>z3</title>
<ellipse fill="none" stroke="black" stroke-dasharray="5,2" cx="1642.45" cy="-280" rx="27" ry="18"/>
</g>
<!-- z3&#45;&gt;5 -->
<g id="edge22" class="edge">
<title>z3&#45;&gt;5</title>
<path fill="none" stroke="#000000" d="M1615.04,-280C1578.79,-280 1513.47,-280 1472.61,-280"/>
<polygon fill="#000000" stroke="#000000" points="1472.53,-276.5 1462.53,-280 1472.53,-283.5 1472.53,-276.5"/>
<text text-anchor="middle" x="1541.95" y="-359.4" font-family="Times,serif" font-size="32.00">seem |</text>
<text text-anchor="middle" x="1541.95" y="-324.4" font-family="Times,serif" font-size="32.00"> appear</text>
<text text-anchor="middle" x="1541.95" y="-289.4" font-family="Times,serif" font-size="32.00">5</text>
</g>
<!-- z4 -->
<g id="node19" class="node">
<title>z4</title>
<ellipse fill="none" stroke="black" stroke-dasharray="5,2" cx="1976.45" cy="-624" rx="27" ry="18"/>
</g>
<!-- e -->
<g id="node20" class="node">
<title>e</title>
<ellipse fill="none" stroke="black" cx="1823.45" cy="-624" rx="27" ry="30.31"/>
<text text-anchor="middle" x="1823.45" y="-615.9" font-family="Times,serif" font-size="32.00">e</text>
</g>
<!-- z4&#45;&gt;e -->
<g id="edge29" class="edge">
<title>z4&#45;&gt;e</title>
<path fill="none" stroke="#000000" d="M1949.15,-624C1924.68,-624 1888,-624 1860.75,-624"/>
<polygon fill="#000000" stroke="#000000" points="1860.45,-620.5 1850.45,-624 1860.45,-627.5 1860.45,-620.5"/>
<text text-anchor="middle" x="1899.95" y="-668.4" font-family="Times,serif" font-size="32.00">it</text>
<text text-anchor="middle" x="1899.95" y="-633.4" font-family="Times,serif" font-size="32.00">e &#45;k</text>
</g>
</g>
</svg>
