<?xml version="1.0" encoding="UTF-8" standalone="no"?>
<!DOCTYPE svg PUBLIC "-//W3C//DTD SVG 1.1//EN"
 "http://www.w3.org/Graphics/SVG/1.1/DTD/svg11.dtd">
<!-- Generated by graphviz version 2.47.1 (20210417.1919)
 -->
<!-- Title: G Pages: 1 -->
<svg width="3121pt" height="2128pt"
 viewBox="0.00 0.00 3121.48 2127.58" xmlns="http://www.w3.org/2000/svg" xmlns:xlink="http://www.w3.org/1999/xlink">
<g id="graph0" class="graph" transform="scale(1 1) rotate(0) translate(4 2123.58)">
<title>G</title>
<polygon fill="white" stroke="transparent" points="-4,4 -4,-2123.58 3117.48,-2123.58 3117.48,4 -4,4"/>
<text text-anchor="middle" x="1556.74" y="-13.4" font-family="Times,serif" font-size="32.00">single contraction: 2 → 0</text>
<!-- t -->
<g id="node1" class="node">
<title>t</title>
<ellipse fill="lightgray" stroke="black" cx="2250.65" cy="-905.58" rx="27" ry="30.31"/>
<text text-anchor="middle" x="2250.65" y="-897.48" font-family="Times,serif" font-size="32.00">t</text>
</g>
<!-- c2 -->
<g id="node12" class="node">
<title>c2</title>
<ellipse fill="none" stroke="black" cx="2002.15" cy="-650.58" rx="33.47" ry="30.31"/>
<text text-anchor="middle" x="2002.15" y="-642.48" font-family="Times,serif" font-size="32.00">c2</text>
</g>
<!-- t&#45;&gt;c2 -->
<g id="edge44" class="edge">
<title>t&#45;&gt;c2</title>
<path fill="none" stroke="#000000" d="M2248.77,-875.08C2246.35,-815.59 2237.48,-687.45 2205.65,-659.58 2161.47,-620.9 2088.84,-628.82 2043.62,-639.03"/>
<polygon fill="#000000" stroke="#000000" points="2042.77,-635.63 2033.86,-641.36 2044.4,-642.44 2042.77,-635.63"/>
<text text-anchor="middle" x="2156.65" y="-703.98" font-family="Times,serif" font-size="32.00">that_1</text>
<text text-anchor="middle" x="2156.65" y="-668.98" font-family="Times,serif" font-size="32.00">=t c2</text>
</g>
<!-- c1 -->
<g id="node15" class="node">
<title>c1</title>
<ellipse fill="none" stroke="black" cx="1300.65" cy="-991.58" rx="33.47" ry="30.31"/>
<text text-anchor="middle" x="1300.65" y="-983.48" font-family="Times,serif" font-size="32.00">c1</text>
</g>
<!-- t&#45;&gt;c1 -->
<g id="edge43" class="edge">
<title>t&#45;&gt;c1</title>
<path fill="none" stroke="#000000" d="M2227.09,-921.27C2173.09,-957.73 2030.95,-1047.44 1896.65,-1078.58 1777.13,-1106.29 1411.13,-1045.28 1395.65,-1040.58 1375.44,-1034.44 1354.47,-1023.96 1337.47,-1014.27"/>
<polygon fill="#000000" stroke="#000000" points="1338.86,-1011.03 1328.46,-1008.99 1335.32,-1017.07 1338.86,-1011.03"/>
<text text-anchor="middle" x="1819.65" y="-1130.98" font-family="Times,serif" font-size="32.00">that</text>
<text text-anchor="middle" x="1819.65" y="-1095.98" font-family="Times,serif" font-size="32.00">=t =e c1</text>
</g>
<!-- z0 -->
<g id="node2" class="node">
<title>z0</title>
<ellipse fill="none" stroke="black" stroke-dasharray="5,2" cx="2933.48" cy="-1418.58" rx="27" ry="18"/>
</g>
<!-- d -->
<g id="node3" class="node">
<title>d</title>
<ellipse fill="none" stroke="black" cx="2750.48" cy="-1319.58" rx="27" ry="30.31"/>
<text text-anchor="middle" x="2750.48" y="-1311.48" font-family="Times,serif" font-size="32.00">d</text>
</g>
<!-- z0&#45;&gt;d -->
<g id="edge1" class="edge">
<title>z0&#45;&gt;d</title>
<path fill="none" stroke="#000000" d="M2906.57,-1420.74C2877.06,-1421.88 2828.65,-1419.54 2795.48,-1396.58 2781.77,-1387.09 2771.78,-1371.85 2764.83,-1357.43"/>
<polygon fill="#000000" stroke="#000000" points="2767.95,-1355.84 2760.68,-1348.14 2761.56,-1358.69 2767.95,-1355.84"/>
<text text-anchor="middle" x="2841.98" y="-1569.98" font-family="Times,serif" font-size="32.00">Mary |</text>
<text text-anchor="middle" x="2841.98" y="-1534.98" font-family="Times,serif" font-size="32.00"> John |</text>
<text text-anchor="middle" x="2841.98" y="-1499.98" font-family="Times,serif" font-size="32.00"> Alice |</text>
<text text-anchor="middle" x="2841.98" y="-1464.98" font-family="Times,serif" font-size="32.00"> Bob</text>
<text text-anchor="middle" x="2841.98" y="-1429.98" font-family="Times,serif" font-size="32.00">d &#45;k</text>
</g>
<!-- 0 -->
<g id="node6" class="node">
<title>0</title>
<ellipse fill="none" stroke="black" cx="1300.65" cy="-665.58" rx="27" ry="30.31"/>
<text text-anchor="middle" x="1300.65" y="-657.48" font-family="Times,serif" font-size="32.00">0</text>
</g>
<!-- d&#45;&gt;0 -->
<g id="edge9" class="edge">
<title>d&#45;&gt;0</title>
<path fill="none" stroke="#000000" d="M2744.59,-1289.54C2719.73,-1148.23 2592.98,-548.28 2205.65,-353.58 2166.74,-334.02 2140.69,-325.2 2107.65,-353.58 2067.41,-388.15 2129.89,-437.01 2089.65,-471.58 2030.65,-522.26 1984.22,-506.36 1914.65,-471.58 1902.73,-465.62 1908.58,-453.54 1896.65,-447.58 1820.64,-409.57 1503.54,-374.58 1395.65,-452.58 1375.83,-466.91 1386.89,-481.93 1377.65,-504.58 1359.6,-548.87 1335.6,-598.43 1319.45,-630.72"/>
<polygon fill="#000000" stroke="#000000" points="1316.27,-629.25 1314.9,-639.75 1322.52,-632.39 1316.27,-629.25"/>
<text text-anchor="middle" x="2156.65" y="-502.98" font-family="Times,serif" font-size="32.00">praise |</text>
<text text-anchor="middle" x="2156.65" y="-467.98" font-family="Times,serif" font-size="32.00"> like |</text>
<text text-anchor="middle" x="2156.65" y="-432.98" font-family="Times,serif" font-size="32.00"> kiss |</text>
<text text-anchor="middle" x="2156.65" y="-397.98" font-family="Times,serif" font-size="32.00"> hug</text>
<text text-anchor="middle" x="2156.65" y="-362.98" font-family="Times,serif" font-size="32.00">=d *k 0</text>
</g>
<!-- v -->
<g id="node8" class="node">
<title>v</title>
<ellipse fill="none" stroke="black" cx="629.65" cy="-1096.58" rx="27" ry="30.31"/>
<text text-anchor="middle" x="629.65" y="-1088.48" font-family="Times,serif" font-size="32.00">v</text>
</g>
<!-- d&#45;&gt;v -->
<g id="edge6" class="edge">
<title>d&#45;&gt;v</title>
<path fill="none" stroke="#000000" d="M2746.87,-1349.92C2741.94,-1399.93 2729.51,-1496.48 2705.48,-1519.58 2638.12,-1584.32 2591.98,-1556.58 2498.56,-1556.58 2498.56,-1556.58 2498.56,-1556.58 2001.15,-1556.58 1957.96,-1556.58 1266.51,-1558 1223.65,-1552.58 999.5,-1524.24 894.06,-1584.61 730.65,-1428.58 648.66,-1350.29 633.18,-1207.51 630.73,-1137.5"/>
<polygon fill="#000000" stroke="#000000" points="634.23,-1137.21 630.45,-1127.31 627.23,-1137.4 634.23,-1137.21"/>
<text text-anchor="middle" x="1819.65" y="-1705.98" font-family="Times,serif" font-size="32.00">dance_1 |</text>
<text text-anchor="middle" x="1819.65" y="-1670.98" font-family="Times,serif" font-size="32.00"> laugh_1 |</text>
<text text-anchor="middle" x="1819.65" y="-1635.98" font-family="Times,serif" font-size="32.00"> smile_1 |</text>
<text text-anchor="middle" x="1819.65" y="-1600.98" font-family="Times,serif" font-size="32.00"> jump_1</text>
<text text-anchor="middle" x="1819.65" y="-1565.98" font-family="Times,serif" font-size="32.00">=d v</text>
</g>
<!-- d&#45;&gt;v -->
<g id="edge10" class="edge">
<title>d&#45;&gt;v</title>
<path fill="none" stroke="#000000" d="M2723.58,-1314.6C2678.19,-1306.3 2581.22,-1290.58 2498.56,-1290.58 2498.56,-1290.58 2498.56,-1290.58 2001.15,-1290.58 1954.69,-1290.58 1943.11,-1288.25 1896.65,-1287.58 1828.21,-1286.6 1810.69,-1280.12 1742.65,-1287.58 1577.47,-1305.69 1542.83,-1350.47 1377.65,-1368.58 1309.61,-1376.04 1290.52,-1383.18 1223.65,-1368.58 994.13,-1318.48 747.27,-1171.02 661.83,-1116.84"/>
<polygon fill="#000000" stroke="#000000" points="663.68,-1113.88 653.37,-1111.45 659.92,-1119.78 663.68,-1113.88"/>
<text text-anchor="middle" x="1819.65" y="-1436.98" font-family="Times,serif" font-size="32.00">praise_1 |</text>
<text text-anchor="middle" x="1819.65" y="-1401.98" font-family="Times,serif" font-size="32.00"> like_1 |</text>
<text text-anchor="middle" x="1819.65" y="-1366.98" font-family="Times,serif" font-size="32.00"> kiss_1 |</text>
<text text-anchor="middle" x="1819.65" y="-1331.98" font-family="Times,serif" font-size="32.00"> hug_1</text>
<text text-anchor="middle" x="1819.65" y="-1296.98" font-family="Times,serif" font-size="32.00">=d *k =d v</text>
</g>
<!-- prog -->
<g id="node9" class="node">
<title>prog</title>
<ellipse fill="none" stroke="black" cx="52.33" cy="-837.58" rx="52.15" ry="30.31"/>
<text text-anchor="middle" x="52.33" y="-829.48" font-family="Times,serif" font-size="32.00">prog</text>
</g>
<!-- d&#45;&gt;prog -->
<g id="edge7" class="edge">
<title>d&#45;&gt;prog</title>
<path fill="none" stroke="#000000" d="M2749.28,-1350.21C2748.28,-1437.96 2742.19,-1688.61 2705.48,-1760.58 2649.56,-1870.2 2621.63,-1944.58 2498.56,-1944.58 2498.56,-1944.58 2498.56,-1944.58 323.65,-1944.58 202.54,-1944.58 175.58,-1869.52 122.65,-1760.58 83.72,-1680.45 60.22,-1046.63 54.63,-878.43"/>
<polygon fill="#000000" stroke="#000000" points="58.12,-878.14 54.29,-868.26 51.12,-878.37 58.12,-878.14"/>
<text text-anchor="middle" x="1486.65" y="-2093.98" font-family="Times,serif" font-size="32.00">danceing |</text>
<text text-anchor="middle" x="1486.65" y="-2058.98" font-family="Times,serif" font-size="32.00"> laughing |</text>
<text text-anchor="middle" x="1486.65" y="-2023.98" font-family="Times,serif" font-size="32.00"> smileing |</text>
<text text-anchor="middle" x="1486.65" y="-1988.98" font-family="Times,serif" font-size="32.00"> jumping</text>
<text text-anchor="middle" x="1486.65" y="-1953.98" font-family="Times,serif" font-size="32.00">=d prog</text>
</g>
<!-- d&#45;&gt;prog -->
<g id="edge11" class="edge">
<title>d&#45;&gt;prog</title>
<path fill="none" stroke="#000000" d="M2749.72,-1350.17C2748.84,-1397.06 2742.05,-1488.25 2705.48,-1554.58 2644.9,-1664.44 2624.02,-1746.58 2498.56,-1746.58 2498.56,-1746.58 2498.56,-1746.58 323.65,-1746.58 139.82,-1746.58 71.01,-1054.89 56.43,-878.25"/>
<polygon fill="#000000" stroke="#000000" points="59.9,-877.77 55.6,-868.08 52.93,-878.34 59.9,-877.77"/>
<text text-anchor="middle" x="1486.65" y="-1895.98" font-family="Times,serif" font-size="32.00">praiseing |</text>
<text text-anchor="middle" x="1486.65" y="-1860.98" font-family="Times,serif" font-size="32.00"> likeing |</text>
<text text-anchor="middle" x="1486.65" y="-1825.98" font-family="Times,serif" font-size="32.00"> kissing |</text>
<text text-anchor="middle" x="1486.65" y="-1790.98" font-family="Times,serif" font-size="32.00"> huging</text>
<text text-anchor="middle" x="1486.65" y="-1755.98" font-family="Times,serif" font-size="32.00">=d *k =d prog</text>
</g>
<!-- perf -->
<g id="node10" class="node">
<title>perf</title>
<ellipse fill="none" stroke="black" cx="971.15" cy="-744.58" rx="48.17" ry="30.31"/>
<text text-anchor="middle" x="971.15" y="-736.48" font-family="Times,serif" font-size="32.00">perf</text>
</g>
<!-- d&#45;&gt;perf -->
<g id="edge8" class="edge">
<title>d&#45;&gt;perf</title>
<path fill="none" stroke="#000000" d="M2748.52,-1289.02C2745.09,-1186.04 2732.13,-852.34 2705.48,-748.58 2650.1,-533.02 2721.12,-292.58 2498.56,-292.58 2498.56,-292.58 2498.56,-292.58 1299.65,-292.58 1097.14,-292.58 1007.02,-593.78 980.74,-704.43"/>
<polygon fill="#000000" stroke="#000000" points="977.32,-703.69 978.47,-714.22 984.14,-705.27 977.32,-703.69"/>
<text text-anchor="middle" x="2002.15" y="-441.98" font-family="Times,serif" font-size="32.00">dancen |</text>
<text text-anchor="middle" x="2002.15" y="-406.98" font-family="Times,serif" font-size="32.00"> laughn |</text>
<text text-anchor="middle" x="2002.15" y="-371.98" font-family="Times,serif" font-size="32.00"> smilen |</text>
<text text-anchor="middle" x="2002.15" y="-336.98" font-family="Times,serif" font-size="32.00"> jumpn</text>
<text text-anchor="middle" x="2002.15" y="-301.98" font-family="Times,serif" font-size="32.00">=d perf</text>
</g>
<!-- d&#45;&gt;perf -->
<g id="edge12" class="edge">
<title>d&#45;&gt;perf</title>
<path fill="none" stroke="#000000" d="M2749.43,-1288.95C2749.04,-1128.81 2745.07,-391.64 2705.48,-298.58 2653.29,-175.96 2631.82,-81.58 2498.56,-81.58 2498.56,-81.58 2498.56,-81.58 2155.65,-81.58 2048.36,-81.58 2020.69,-79.26 1914.65,-95.58 1865.78,-103.1 1085.46,-277.5 1051.65,-313.58 998.87,-369.91 979.82,-607.68 974.18,-703.91"/>
<polygon fill="#000000" stroke="#000000" points="970.68,-703.93 973.6,-714.11 977.66,-704.33 970.68,-703.93"/>
<text text-anchor="middle" x="2002.15" y="-244.98" font-family="Times,serif" font-size="32.00">praisen |</text>
<text text-anchor="middle" x="2002.15" y="-209.98" font-family="Times,serif" font-size="32.00"> liken |</text>
<text text-anchor="middle" x="2002.15" y="-174.98" font-family="Times,serif" font-size="32.00"> kissn |</text>
<text text-anchor="middle" x="2002.15" y="-139.98" font-family="Times,serif" font-size="32.00"> hugn</text>
<text text-anchor="middle" x="2002.15" y="-104.98" font-family="Times,serif" font-size="32.00">=d *k =d perf</text>
</g>
<!-- pass -->
<g id="node11" class="node">
<title>pass</title>
<ellipse fill="none" stroke="black" cx="2497.56" cy="-1348.58" rx="50.82" ry="30.31"/>
<text text-anchor="middle" x="2497.56" y="-1340.48" font-family="Times,serif" font-size="32.00">pass</text>
</g>
<!-- d&#45;&gt;pass -->
<g id="edge13" class="edge">
<title>d&#45;&gt;pass</title>
<path fill="none" stroke="#000000" d="M2723.57,-1322.57C2684.83,-1327.05 2610.76,-1335.61 2558.19,-1341.69"/>
<polygon fill="#000000" stroke="#000000" points="2557.51,-1338.24 2547.98,-1342.87 2558.32,-1345.2 2557.51,-1338.24"/>
<text text-anchor="middle" x="2635.98" y="-1489.98" font-family="Times,serif" font-size="32.00">praisen_1 |</text>
<text text-anchor="middle" x="2635.98" y="-1454.98" font-family="Times,serif" font-size="32.00"> liken_1 |</text>
<text text-anchor="middle" x="2635.98" y="-1419.98" font-family="Times,serif" font-size="32.00"> kissn_1 |</text>
<text text-anchor="middle" x="2635.98" y="-1384.98" font-family="Times,serif" font-size="32.00"> hugn_1</text>
<text text-anchor="middle" x="2635.98" y="-1349.98" font-family="Times,serif" font-size="32.00">=d pass</text>
</g>
<!-- n -->
<g id="node4" class="node">
<title>n</title>
<ellipse fill="none" stroke="black" cx="2933.48" cy="-1220.58" rx="27" ry="30.31"/>
<text text-anchor="middle" x="2933.48" y="-1212.48" font-family="Times,serif" font-size="32.00">n</text>
</g>
<!-- n&#45;&gt;d -->
<g id="edge2" class="edge">
<title>n&#45;&gt;d</title>
<path fill="none" stroke="#000000" d="M2907.4,-1212.12C2878.01,-1203.87 2829.07,-1195.49 2795.48,-1217.58 2774.66,-1231.27 2763.64,-1257.13 2757.84,-1279.38"/>
<polygon fill="#000000" stroke="#000000" points="2754.39,-1278.76 2755.53,-1289.29 2761.21,-1280.35 2754.39,-1278.76"/>
<text text-anchor="middle" x="2841.98" y="-1366.98" font-family="Times,serif" font-size="32.00">this |</text>
<text text-anchor="middle" x="2841.98" y="-1331.98" font-family="Times,serif" font-size="32.00"> a |</text>
<text text-anchor="middle" x="2841.98" y="-1296.98" font-family="Times,serif" font-size="32.00"> the |</text>
<text text-anchor="middle" x="2841.98" y="-1261.98" font-family="Times,serif" font-size="32.00"> some</text>
<text text-anchor="middle" x="2841.98" y="-1226.98" font-family="Times,serif" font-size="32.00">=n d &#45;k</text>
</g>
<!-- z1 -->
<g id="node5" class="node">
<title>z1</title>
<ellipse fill="none" stroke="black" stroke-dasharray="5,2" cx="3086.48" cy="-1220.58" rx="27" ry="18"/>
</g>
<!-- z1&#45;&gt;n -->
<g id="edge3" class="edge">
<title>z1&#45;&gt;n</title>
<path fill="none" stroke="#000000" d="M3059.17,-1220.58C3034.71,-1220.58 2998.03,-1220.58 2970.78,-1220.58"/>
<polygon fill="#000000" stroke="#000000" points="2970.48,-1217.08 2960.48,-1220.58 2970.48,-1224.08 2970.48,-1217.08"/>
<text text-anchor="middle" x="3009.98" y="-1299.98" font-family="Times,serif" font-size="32.00">boy |</text>
<text text-anchor="middle" x="3009.98" y="-1264.98" font-family="Times,serif" font-size="32.00"> girl</text>
<text text-anchor="middle" x="3009.98" y="-1229.98" font-family="Times,serif" font-size="32.00">n</text>
</g>
<!-- 0&#45;&gt;t -->
<g id="edge4" class="edge">
<title>0&#45;&gt;t</title>
<path fill="none" stroke="#000000" d="M1327.9,-668.73C1394.77,-676.81 1566.99,-698.14 1577.65,-704.58 1589.37,-711.66 1583.67,-722.96 1595.65,-729.58 1654.31,-762 1830.9,-735.57 1896.65,-748.58 2038.94,-776.73 2085.78,-771.92 2205.65,-853.58 2213.62,-859.01 2220.97,-866.25 2227.3,-873.6"/>
<polygon fill="#000000" stroke="#000000" points="2224.72,-875.98 2233.74,-881.54 2230.16,-871.57 2224.72,-875.98"/>
<text text-anchor="middle" x="1819.65" y="-827.98" font-family="Times,serif" font-size="32.00">s |</text>
<text text-anchor="middle" x="1819.65" y="-792.98" font-family="Times,serif" font-size="32.00"> d</text>
<text text-anchor="middle" x="1819.65" y="-757.98" font-family="Times,serif" font-size="32.00">=&gt;0 =d +k t</text>
</g>
<!-- 0&#45;&gt;v -->
<g id="edge15" class="edge">
<title>0&#45;&gt;v</title>
<path fill="none" stroke="#000000" d="M1281.69,-687.58C1264,-708.2 1235.38,-738.86 1205.65,-759.58 1175.84,-780.36 940.71,-879.47 908.65,-896.58 900.38,-901 898.94,-903.2 890.65,-907.58 821.69,-943.98 783.44,-922.19 730.65,-979.58 714.38,-997.27 726.54,-1010.96 712.65,-1030.58 699.43,-1049.25 679.53,-1065.44 662.65,-1077.12"/>
<polygon fill="#000000" stroke="#000000" points="660.52,-1074.33 654.15,-1082.8 664.41,-1080.15 660.52,-1074.33"/>
<text text-anchor="middle" x="971.15" y="-940.98" font-family="Times,serif" font-size="32.00">ε_0</text>
<text text-anchor="middle" x="971.15" y="-905.98" font-family="Times,serif" font-size="32.00">=&gt;0 =d v</text>
</g>
<!-- 0&#45;&gt;prog -->
<g id="edge16" class="edge">
<title>0&#45;&gt;prog</title>
<path fill="none" stroke="#000000" d="M1276.35,-651.62C1223.96,-621.6 1092.03,-553.58 972.15,-553.58 972.15,-553.58 972.15,-553.58 323.65,-553.58 226.83,-553.58 188.95,-567.02 122.65,-637.58 80.95,-681.96 64.19,-752.69 57.55,-797.06"/>
<polygon fill="#000000" stroke="#000000" points="54.05,-796.81 56.14,-807.19 60.99,-797.77 54.05,-796.81"/>
<text text-anchor="middle" x="629.65" y="-597.98" font-family="Times,serif" font-size="32.00">ing</text>
<text text-anchor="middle" x="629.65" y="-562.98" font-family="Times,serif" font-size="32.00">=&gt;0 =d prog</text>
</g>
<!-- 0&#45;&gt;perf -->
<g id="edge17" class="edge">
<title>0&#45;&gt;perf</title>
<path fill="none" stroke="#000000" d="M1273.65,-663.1C1227.35,-659.66 1128.28,-656.79 1051.65,-685.58 1035.26,-691.74 1019.33,-702.34 1006.09,-712.87"/>
<polygon fill="#000000" stroke="#000000" points="1003.69,-710.31 998.21,-719.37 1008.14,-715.71 1003.69,-710.31"/>
<text text-anchor="middle" x="1128.65" y="-729.98" font-family="Times,serif" font-size="32.00">n</text>
<text text-anchor="middle" x="1128.65" y="-694.98" font-family="Times,serif" font-size="32.00">=&gt;0 =d perf</text>
</g>
<!-- z2 -->
<g id="node7" class="node">
<title>z2</title>
<ellipse fill="none" stroke="black" stroke-dasharray="5,2" cx="1660.15" cy="-514.58" rx="27" ry="18"/>
</g>
<!-- z2&#45;&gt;0 -->
<g id="edge5" class="edge">
<title>z2&#45;&gt;0</title>
<path fill="none" stroke="#000000" d="M1638.83,-503.3C1592.03,-478.98 1474.63,-427.66 1395.65,-476.58 1343.19,-509.08 1319.08,-580.59 1308.71,-625.74"/>
<polygon fill="#000000" stroke="#000000" points="1305.24,-625.26 1306.54,-635.78 1312.08,-626.75 1305.24,-625.26"/>
<text text-anchor="middle" x="1486.65" y="-625.98" font-family="Times,serif" font-size="32.00">dance |</text>
<text text-anchor="middle" x="1486.65" y="-590.98" font-family="Times,serif" font-size="32.00"> laugh |</text>
<text text-anchor="middle" x="1486.65" y="-555.98" font-family="Times,serif" font-size="32.00"> smile |</text>
<text text-anchor="middle" x="1486.65" y="-520.98" font-family="Times,serif" font-size="32.00"> jump</text>
<text text-anchor="middle" x="1486.65" y="-485.98" font-family="Times,serif" font-size="32.00">0</text>
</g>
<!-- v&#45;&gt;t -->
<g id="edge23" class="edge">
<title>v&#45;&gt;t</title>
<path fill="none" stroke="#000000" d="M655.85,-1104.25C675.9,-1109.96 704.79,-1117.3 730.65,-1120.58 1104.16,-1167.91 1202.56,-1102.09 1577.65,-1134.58 1719.37,-1146.86 1758.94,-1196.2 1896.65,-1160.58 2050.96,-1120.67 2094.74,-1093.04 2205.65,-978.58 2216.18,-967.72 2225.31,-953.9 2232.48,-941.21"/>
<polygon fill="#000000" stroke="#000000" points="2235.66,-942.69 2237.36,-932.23 2229.51,-939.35 2235.66,-942.69"/>
<text text-anchor="middle" x="1486.65" y="-1213.98" font-family="Times,serif" font-size="32.00">wills |</text>
<text text-anchor="middle" x="1486.65" y="-1178.98" font-family="Times,serif" font-size="32.00"> willd</text>
<text text-anchor="middle" x="1486.65" y="-1143.98" font-family="Times,serif" font-size="32.00">=v +k t</text>
</g>
<!-- to -->
<g id="node14" class="node">
<title>to</title>
<ellipse fill="none" stroke="black" cx="324.65" cy="-941.58" rx="28.98" ry="30.31"/>
<text text-anchor="middle" x="324.65" y="-933.48" font-family="Times,serif" font-size="32.00">to</text>
</g>
<!-- v&#45;&gt;to -->
<g id="edge42" class="edge">
<title>v&#45;&gt;to</title>
<path fill="none" stroke="#000000" d="M603.31,-1089.34C583.19,-1083.75 554.26,-1076.06 528.65,-1070.58 468.71,-1057.74 443.68,-1081.55 392.65,-1047.58 368.12,-1031.25 350.8,-1002.56 339.92,-979.14"/>
<polygon fill="#000000" stroke="#000000" points="343.04,-977.53 335.79,-969.81 336.64,-980.37 343.04,-977.53"/>
<text text-anchor="middle" x="460.65" y="-1114.98" font-family="Times,serif" font-size="32.00">to</text>
<text text-anchor="middle" x="460.65" y="-1079.98" font-family="Times,serif" font-size="32.00">=v to</text>
</g>
<!-- prog&#45;&gt;t -->
<g id="edge24" class="edge">
<title>prog&#45;&gt;t</title>
<path fill="none" stroke="#000000" d="M58.34,-807.04C81.1,-673.51 179.88,-147.58 323.65,-147.58 972.15,-147.58 972.15,-147.58 972.15,-147.58 1339.15,-147.58 1474.7,-218.86 1724.65,-487.58 1740.45,-504.57 1725,-521.52 1742.65,-536.58 1822.42,-604.64 2132.89,-552.07 2205.65,-627.58 2237.66,-660.8 2246.39,-796.24 2248.76,-865.04"/>
<polygon fill="#000000" stroke="#000000" points="2245.27,-865.21 2249.08,-875.09 2252.26,-864.99 2245.27,-865.21"/>
<text text-anchor="middle" x="1128.65" y="-241.98" font-family="Times,serif" font-size="32.00">bes |</text>
<text text-anchor="middle" x="1128.65" y="-206.98" font-family="Times,serif" font-size="32.00"> bed</text>
<text text-anchor="middle" x="1128.65" y="-171.98" font-family="Times,serif" font-size="32.00">=prog +k t</text>
</g>
<!-- prog&#45;&gt;v -->
<g id="edge25" class="edge">
<title>prog&#45;&gt;v</title>
<path fill="none" stroke="#000000" d="M57.23,-868.18C63.88,-908.58 81.02,-979.71 122.65,-1023.58 251.93,-1159.78 344.88,-1179.22 528.65,-1140.58 552.31,-1135.61 577.2,-1124.68 596.23,-1114.96"/>
<polygon fill="#000000" stroke="#000000" points="598.12,-1117.92 605.34,-1110.17 594.86,-1111.72 598.12,-1117.92"/>
<text text-anchor="middle" x="324.65" y="-1202.98" font-family="Times,serif" font-size="32.00">be</text>
<text text-anchor="middle" x="324.65" y="-1167.98" font-family="Times,serif" font-size="32.00">=prog v</text>
</g>
<!-- prog&#45;&gt;perf -->
<g id="edge26" class="edge">
<title>prog&#45;&gt;perf</title>
<path fill="none" stroke="#000000" d="M93.97,-818.75C103.29,-814.78 113.23,-810.82 122.65,-807.58 239.89,-767.29 269.68,-753.26 392.65,-737.58 582.09,-713.42 809.3,-729.09 913.23,-738.69"/>
<polygon fill="#000000" stroke="#000000" points="913.21,-742.2 923.49,-739.66 913.86,-735.23 913.21,-742.2"/>
<text text-anchor="middle" x="460.65" y="-781.98" font-family="Times,serif" font-size="32.00">ben</text>
<text text-anchor="middle" x="460.65" y="-746.98" font-family="Times,serif" font-size="32.00">=prog perf</text>
</g>
<!-- perf&#45;&gt;t -->
<g id="edge39" class="edge">
<title>perf&#45;&gt;t</title>
<path fill="none" stroke="#000000" d="M1013.6,-759.46C1025.78,-763.61 1039.19,-767.98 1051.65,-771.58 1119.27,-791.14 1152.41,-762.53 1205.65,-808.58 1221.94,-822.67 1206.14,-841.03 1223.65,-853.58 1318.43,-921.51 1369.04,-867.58 1485.65,-867.58 2003.15,-867.58 2003.15,-867.58 2003.15,-867.58 2078.99,-867.58 2166.44,-885.37 2214.11,-896.6"/>
<polygon fill="#000000" stroke="#000000" points="2213.41,-900.03 2223.95,-898.96 2215.04,-893.23 2213.41,-900.03"/>
<text text-anchor="middle" x="1660.15" y="-946.98" font-family="Times,serif" font-size="32.00">haves |</text>
<text text-anchor="middle" x="1660.15" y="-911.98" font-family="Times,serif" font-size="32.00"> haved</text>
<text text-anchor="middle" x="1660.15" y="-876.98" font-family="Times,serif" font-size="32.00">=perf +k t</text>
</g>
<!-- perf&#45;&gt;v -->
<g id="edge40" class="edge">
<title>perf&#45;&gt;v</title>
<path fill="none" stroke="#000000" d="M936.57,-765.8C922.71,-773.97 906.26,-782.92 890.65,-789.58 822.36,-818.72 777.53,-780.01 730.65,-837.58 701.77,-873.04 736.09,-1003.31 712.65,-1042.58 701.82,-1060.74 682.23,-1073.97 664.92,-1082.8"/>
<polygon fill="#000000" stroke="#000000" points="663.12,-1079.78 655.61,-1087.25 666.14,-1086.1 663.12,-1079.78"/>
<text text-anchor="middle" x="810.65" y="-881.98" font-family="Times,serif" font-size="32.00">have</text>
<text text-anchor="middle" x="810.65" y="-846.98" font-family="Times,serif" font-size="32.00">=perf v</text>
</g>
<!-- pass&#45;&gt;t -->
<g id="edge27" class="edge">
<title>pass&#45;&gt;t</title>
<path fill="none" stroke="#000000" d="M2480.68,-1319.86C2437.36,-1241.5 2317.28,-1024.29 2270.58,-939.81"/>
<polygon fill="#000000" stroke="#000000" points="2273.54,-937.94 2265.64,-930.88 2267.42,-941.33 2273.54,-937.94"/>
<text text-anchor="middle" x="2362.15" y="-1297.98" font-family="Times,serif" font-size="32.00">bes_1 |</text>
<text text-anchor="middle" x="2362.15" y="-1262.98" font-family="Times,serif" font-size="32.00"> bed_1</text>
<text text-anchor="middle" x="2362.15" y="-1227.98" font-family="Times,serif" font-size="32.00">=pass +k t</text>
</g>
<!-- pass&#45;&gt;v -->
<g id="edge28" class="edge">
<title>pass&#45;&gt;v</title>
<path fill="none" stroke="#000000" d="M2450.73,-1360.77C2350.92,-1386.61 2106.1,-1446.18 1896.65,-1466.58 1828.53,-1473.22 1801.73,-1501.13 1742.65,-1466.58 1728.57,-1458.34 1738.49,-1443.23 1724.65,-1434.58 1635.18,-1378.65 1593.17,-1420.58 1487.65,-1420.58 1487.65,-1420.58 1487.65,-1420.58 970.15,-1420.58 863.17,-1420.58 814.21,-1463.39 730.65,-1396.58 650.88,-1332.8 634.24,-1203.27 631.1,-1137.25"/>
<polygon fill="#000000" stroke="#000000" points="634.6,-1137.08 630.71,-1127.22 627.6,-1137.35 634.6,-1137.08"/>
<text text-anchor="middle" x="1660.15" y="-1478.98" font-family="Times,serif" font-size="32.00">be_1</text>
<text text-anchor="middle" x="1660.15" y="-1443.98" font-family="Times,serif" font-size="32.00">=pass v</text>
</g>
<!-- pass&#45;&gt;prog -->
<g id="edge30" class="edge">
<title>pass&#45;&gt;prog</title>
<path fill="none" stroke="#000000" d="M2476.03,-1376.27C2437.73,-1424.44 2350.25,-1518.58 2251.65,-1518.58 2251.65,-1518.58 2251.65,-1518.58 1818.65,-1518.58 1370.99,-1518.58 1259.31,-1496.58 811.65,-1496.58 811.65,-1496.58 811.65,-1496.58 323.65,-1496.58 189.29,-1496.58 88.25,-1021.71 60.78,-878.18"/>
<polygon fill="#000000" stroke="#000000" points="64.15,-877.22 58.85,-868.04 57.28,-878.52 64.15,-877.22"/>
<text text-anchor="middle" x="1300.65" y="-1553.98" font-family="Times,serif" font-size="32.00">being</text>
<text text-anchor="middle" x="1300.65" y="-1518.98" font-family="Times,serif" font-size="32.00">=pass prog</text>
</g>
<!-- pass&#45;&gt;perf -->
<g id="edge29" class="edge">
<title>pass&#45;&gt;perf</title>
<path fill="none" stroke="#000000" d="M2495.66,-1317.83C2490.38,-1198.52 2454.14,-762.94 2205.65,-560.58 2170.53,-531.98 2151.05,-545.57 2107.65,-532.58 2095.88,-529.06 1908.75,-468.7 1896.65,-466.58 1756.87,-442.08 1719.53,-455.69 1577.65,-452.58 1496.78,-450.81 1473.64,-431.11 1395.65,-452.58 1224.06,-499.83 1189.6,-545.13 1051.65,-657.58 1032.84,-672.91 1014.4,-692.71 1000.02,-709.54"/>
<polygon fill="#000000" stroke="#000000" points="997.06,-707.63 993.3,-717.54 1002.42,-712.13 997.06,-707.63"/>
<text text-anchor="middle" x="1819.65" y="-510.98" font-family="Times,serif" font-size="32.00">ben_1</text>
<text text-anchor="middle" x="1819.65" y="-475.98" font-family="Times,serif" font-size="32.00">=pass perf</text>
</g>
<!-- c2&#45;&gt;0 -->
<g id="edge14" class="edge">
<title>c2&#45;&gt;0</title>
<path fill="none" stroke="#000000" d="M1970.88,-639.32C1950.21,-631.98 1922.07,-622.67 1896.65,-616.58 1821.4,-598.55 1801.8,-595.6 1724.65,-589.58 1667.49,-585.12 1641.5,-555.15 1595.65,-589.58 1572.71,-606.81 1600.15,-633.77 1577.65,-651.58 1541.49,-680.2 1404.03,-673.73 1337.78,-668.74"/>
<polygon fill="#000000" stroke="#000000" points="1338.03,-665.24 1327.78,-667.95 1337.48,-672.22 1338.03,-665.24"/>
<text text-anchor="middle" x="1660.15" y="-703.98" font-family="Times,serif" font-size="32.00">declare |</text>
<text text-anchor="middle" x="1660.15" y="-668.98" font-family="Times,serif" font-size="32.00"> explain |</text>
<text text-anchor="middle" x="1660.15" y="-633.98" font-family="Times,serif" font-size="32.00"> say</text>
<text text-anchor="middle" x="1660.15" y="-598.98" font-family="Times,serif" font-size="32.00">=c2 0</text>
</g>
<!-- 1 -->
<g id="node13" class="node">
<title>1</title>
<ellipse fill="none" stroke="black" cx="1660.15" cy="-801.58" rx="27" ry="30.31"/>
<text text-anchor="middle" x="1660.15" y="-793.48" font-family="Times,serif" font-size="32.00">1</text>
</g>
<!-- c2&#45;&gt;1 -->
<g id="edge19" class="edge">
<title>c2&#45;&gt;1</title>
<path fill="none" stroke="#000000" d="M1970.68,-639.96C1918.1,-623.76 1809.59,-599.85 1742.65,-651.58 1717.91,-670.7 1738.5,-691.55 1724.65,-719.58 1715.03,-739.06 1700.37,-758.39 1687.56,-773.39"/>
<polygon fill="#000000" stroke="#000000" points="1684.64,-771.42 1680.68,-781.25 1689.9,-776.03 1684.64,-771.42"/>
<text text-anchor="middle" x="1819.65" y="-695.98" font-family="Times,serif" font-size="32.00">think</text>
<text text-anchor="middle" x="1819.65" y="-660.98" font-family="Times,serif" font-size="32.00">=c2 1</text>
</g>
<!-- 1&#45;&gt;0 -->
<g id="edge18" class="edge">
<title>1&#45;&gt;0</title>
<path fill="none" stroke="#000000" d="M1635.4,-788.79C1622.51,-781.01 1606.95,-770.15 1595.65,-757.58 1584.48,-745.15 1591.45,-733.99 1577.65,-724.58 1510.29,-678.64 1474.73,-721.41 1395.65,-701.58 1375.06,-696.42 1352.84,-688.04 1335.17,-680.67"/>
<polygon fill="#000000" stroke="#000000" points="1336.44,-677.41 1325.87,-676.71 1333.7,-683.85 1336.44,-677.41"/>
<text text-anchor="middle" x="1486.65" y="-768.98" font-family="Times,serif" font-size="32.00">ε_1</text>
<text text-anchor="middle" x="1486.65" y="-733.98" font-family="Times,serif" font-size="32.00">=&gt;1 0</text>
</g>
<!-- 1&#45;&gt;v -->
<g id="edge20" class="edge">
<title>1&#45;&gt;v</title>
<path fill="none" stroke="#000000" d="M1636.44,-816.53C1624.15,-824.81 1608.84,-835.45 1595.65,-845.58 1494.86,-922.97 1495.54,-983.15 1377.65,-1030.58 1242.98,-1084.76 1174.65,-973.49 1051.65,-1050.58 1037.83,-1059.25 1047.59,-1074.1 1033.65,-1082.58 972.79,-1119.61 754.01,-1106.61 666.85,-1099.73"/>
<polygon fill="#000000" stroke="#000000" points="666.91,-1096.22 656.66,-1098.9 666.34,-1103.2 666.91,-1096.22"/>
<text text-anchor="middle" x="1128.65" y="-1094.98" font-family="Times,serif" font-size="32.00">ε_2</text>
<text text-anchor="middle" x="1128.65" y="-1059.98" font-family="Times,serif" font-size="32.00">=&gt;1 =d v</text>
</g>
<!-- 1&#45;&gt;prog -->
<g id="edge21" class="edge">
<title>1&#45;&gt;prog</title>
<path fill="none" stroke="#000000" d="M1633.18,-804.3C1574.49,-809.92 1433.82,-820.24 1395.65,-794.58 1379.14,-783.48 1392.45,-766.89 1377.65,-753.58 1324.25,-705.54 1277.5,-752.12 1223.65,-704.58 1209.34,-691.95 1221.42,-676.35 1205.65,-665.58 1119.8,-606.95 1076.12,-651.58 972.15,-651.58 972.15,-651.58 972.15,-651.58 323.65,-651.58 218.8,-651.58 124.99,-747.72 80.54,-801.76"/>
<polygon fill="#000000" stroke="#000000" points="77.66,-799.76 74.09,-809.73 83.1,-804.16 77.66,-799.76"/>
<text text-anchor="middle" x="810.65" y="-695.98" font-family="Times,serif" font-size="32.00">ing_1</text>
<text text-anchor="middle" x="810.65" y="-660.98" font-family="Times,serif" font-size="32.00">=&gt;1 =d prog</text>
</g>
<!-- 1&#45;&gt;perf -->
<g id="edge22" class="edge">
<title>1&#45;&gt;perf</title>
<path fill="none" stroke="#000000" d="M1634.73,-812.02C1585.37,-831.36 1471.91,-866.71 1395.65,-819.58 1380.43,-810.18 1392.45,-793.63 1377.65,-783.58 1317.49,-742.74 1123.91,-763.68 1051.65,-755.58 1044.14,-754.74 1036.25,-753.76 1028.46,-752.74"/>
<polygon fill="#000000" stroke="#000000" points="1028.72,-749.24 1018.34,-751.38 1027.79,-756.18 1028.72,-749.24"/>
<text text-anchor="middle" x="1300.65" y="-827.98" font-family="Times,serif" font-size="32.00">n_1</text>
<text text-anchor="middle" x="1300.65" y="-792.98" font-family="Times,serif" font-size="32.00">=&gt;1 =d perf</text>
</g>
<!-- to&#45;&gt;t -->
<g id="edge31" class="edge">
<title>to&#45;&gt;t</title>
<path fill="none" stroke="#000000" d="M326.28,-972.13C328.98,-1017.3 341.12,-1101.21 392.65,-1144.58 473.78,-1212.86 522.62,-1179.58 628.65,-1179.58 1129.65,-1179.58 1129.65,-1179.58 1129.65,-1179.58 1240.05,-1179.58 1288.26,-1128.8 1377.65,-1193.58 1395.43,-1206.46 1377.52,-1227.2 1395.65,-1239.58 1462.46,-1285.18 1497.09,-1246.84 1577.65,-1239.58 1721.17,-1226.64 1755.7,-1211.53 1896.65,-1181.58 1983.01,-1163.23 2010.75,-1174.18 2089.65,-1134.58 2149.46,-1104.57 2167.89,-1093.83 2205.65,-1038.58 2224.9,-1010.41 2236.27,-973.18 2242.61,-945.28"/>
<polygon fill="#000000" stroke="#000000" points="2246.04,-945.96 2244.72,-935.45 2239.2,-944.49 2246.04,-945.96"/>
<text text-anchor="middle" x="1300.65" y="-1342.98" font-family="Times,serif" font-size="32.00">seems |</text>
<text text-anchor="middle" x="1300.65" y="-1307.98" font-family="Times,serif" font-size="32.00"> seemd |</text>
<text text-anchor="middle" x="1300.65" y="-1272.98" font-family="Times,serif" font-size="32.00"> appears |</text>
<text text-anchor="middle" x="1300.65" y="-1237.98" font-family="Times,serif" font-size="32.00"> appeard</text>
<text text-anchor="middle" x="1300.65" y="-1202.98" font-family="Times,serif" font-size="32.00">=to +k t</text>
</g>
<!-- to&#45;&gt;v -->
<g id="edge32" class="edge">
<title>to&#45;&gt;v</title>
<path fill="none" stroke="#000000" d="M353.67,-937.5C403.09,-930.98 502.95,-920.99 528.65,-942.58 563.23,-971.63 521.78,-1004.89 546.65,-1042.58 558.22,-1060.11 577.64,-1073.27 594.68,-1082.21"/>
<polygon fill="#000000" stroke="#000000" points="593.32,-1085.44 603.84,-1086.74 596.43,-1079.17 593.32,-1085.44"/>
<text text-anchor="middle" x="460.65" y="-1021.98" font-family="Times,serif" font-size="32.00">seem |</text>
<text text-anchor="middle" x="460.65" y="-986.98" font-family="Times,serif" font-size="32.00"> appear</text>
<text text-anchor="middle" x="460.65" y="-951.98" font-family="Times,serif" font-size="32.00">=to v</text>
</g>
<!-- to&#45;&gt;prog -->
<g id="edge34" class="edge">
<title>to&#45;&gt;prog</title>
<path fill="none" stroke="#000000" d="M297.24,-931.42C253.16,-914.46 163.77,-880.07 106.32,-857.97"/>
<polygon fill="#000000" stroke="#000000" points="107.27,-854.58 96.68,-854.26 104.76,-861.12 107.27,-854.58"/>
<text text-anchor="middle" x="189.65" y="-993.98" font-family="Times,serif" font-size="32.00">seeming |</text>
<text text-anchor="middle" x="189.65" y="-958.98" font-family="Times,serif" font-size="32.00"> appearing</text>
<text text-anchor="middle" x="189.65" y="-923.98" font-family="Times,serif" font-size="32.00">=to prog</text>
</g>
<!-- to&#45;&gt;perf -->
<g id="edge33" class="edge">
<title>to&#45;&gt;perf</title>
<path fill="none" stroke="#000000" d="M352.84,-934.05C364.94,-930.96 379.42,-927.64 392.65,-925.58 427.88,-920.09 686.35,-925.65 712.65,-901.58 748.88,-868.44 696.53,-827.89 730.65,-792.58 755.36,-767.02 850.44,-754.35 913.11,-748.65"/>
<polygon fill="#000000" stroke="#000000" points="913.6,-752.12 923.26,-747.76 912.99,-745.15 913.6,-752.12"/>
<text text-anchor="middle" x="629.65" y="-1000.98" font-family="Times,serif" font-size="32.00">seemn |</text>
<text text-anchor="middle" x="629.65" y="-965.98" font-family="Times,serif" font-size="32.00"> appearn</text>
<text text-anchor="middle" x="629.65" y="-930.98" font-family="Times,serif" font-size="32.00">=to perf</text>
</g>
<!-- c1&#45;&gt;t -->
<g id="edge35" class="edge">
<title>c1&#45;&gt;t</title>
<path fill="none" stroke="#000000" d="M1332.24,-1001.59C1408.29,-1024.39 1608.16,-1071.22 1724.65,-976.58 1750.59,-955.51 1716.35,-924.19 1742.65,-903.58 1796.53,-861.37 1828.21,-903.39 1896.65,-903.58 2012.23,-903.91 2149.09,-904.84 2213.16,-905.31"/>
<polygon fill="#000000" stroke="#000000" points="2213.5,-908.81 2223.52,-905.38 2213.55,-901.81 2213.5,-908.81"/>
<text text-anchor="middle" x="1819.65" y="-1052.98" font-family="Times,serif" font-size="32.00">seems_1 |</text>
<text text-anchor="middle" x="1819.65" y="-1017.98" font-family="Times,serif" font-size="32.00"> seemd_1 |</text>
<text text-anchor="middle" x="1819.65" y="-982.98" font-family="Times,serif" font-size="32.00"> appears_1 |</text>
<text text-anchor="middle" x="1819.65" y="-947.98" font-family="Times,serif" font-size="32.00"> appeard_1</text>
<text text-anchor="middle" x="1819.65" y="-912.98" font-family="Times,serif" font-size="32.00">=c1 +k t</text>
</g>
<!-- c1&#45;&gt;v -->
<g id="edge36" class="edge">
<title>c1&#45;&gt;v</title>
<path fill="none" stroke="#000000" d="M1267.24,-993.49C1219.58,-995.64 1127.98,-997.23 1051.65,-983.58 1043.35,-982.1 1041.98,-978.93 1033.65,-977.58 978.81,-968.68 963.08,-966.42 908.65,-977.58 814.48,-996.89 712.8,-1049.45 662.53,-1077.83"/>
<polygon fill="#000000" stroke="#000000" points="660.71,-1074.83 653.76,-1082.83 664.18,-1080.92 660.71,-1074.83"/>
<text text-anchor="middle" x="971.15" y="-1056.98" font-family="Times,serif" font-size="32.00">seem_1 |</text>
<text text-anchor="middle" x="971.15" y="-1021.98" font-family="Times,serif" font-size="32.00"> appear_1</text>
<text text-anchor="middle" x="971.15" y="-986.98" font-family="Times,serif" font-size="32.00">=c1 v</text>
</g>
<!-- c1&#45;&gt;prog -->
<g id="edge38" class="edge">
<title>c1&#45;&gt;prog</title>
<path fill="none" stroke="#000000" d="M1267.39,-988.33C1219.91,-983.32 1128.54,-972.76 1051.65,-958.58 907.47,-931.99 832.49,-988.05 730.65,-882.58 702.32,-853.23 744.2,-818.44 712.65,-792.58 655.6,-745.81 616.02,-767.46 546.65,-792.58 536.86,-796.13 538.33,-803.73 528.65,-807.58 388.33,-863.44 206.28,-854.86 113.47,-845.36"/>
<polygon fill="#000000" stroke="#000000" points="113.73,-841.87 103.41,-844.29 112.99,-848.83 113.73,-841.87"/>
<text text-anchor="middle" x="629.65" y="-871.98" font-family="Times,serif" font-size="32.00">seeming_1 |</text>
<text text-anchor="middle" x="629.65" y="-836.98" font-family="Times,serif" font-size="32.00"> appearing_1</text>
<text text-anchor="middle" x="629.65" y="-801.98" font-family="Times,serif" font-size="32.00">=c1 prog</text>
</g>
<!-- c1&#45;&gt;perf -->
<g id="edge37" class="edge">
<title>c1&#45;&gt;perf</title>
<path fill="none" stroke="#000000" d="M1281.9,-966.4C1266.35,-944.21 1243.22,-910.94 1223.65,-881.58 1215.45,-869.27 1217.5,-862.44 1205.65,-853.58 1148.54,-810.89 1114.87,-841.57 1051.65,-808.58 1042.34,-803.72 1024.59,-789.63 1008.23,-775.9"/>
<polygon fill="#000000" stroke="#000000" points="1010.24,-773.02 1000.34,-769.23 1005.72,-778.36 1010.24,-773.02"/>
<text text-anchor="middle" x="1128.65" y="-932.98" font-family="Times,serif" font-size="32.00">seemn_1 |</text>
<text text-anchor="middle" x="1128.65" y="-897.98" font-family="Times,serif" font-size="32.00"> appearn_1</text>
<text text-anchor="middle" x="1128.65" y="-862.98" font-family="Times,serif" font-size="32.00">=c1 perf</text>
</g>
<!-- z3 -->
<g id="node16" class="node">
<title>z3</title>
<ellipse fill="none" stroke="black" stroke-dasharray="5,2" cx="3086.48" cy="-1484.58" rx="27" ry="18"/>
</g>
<!-- e -->
<g id="node17" class="node">
<title>e</title>
<ellipse fill="none" stroke="black" cx="2933.48" cy="-1484.58" rx="27" ry="30.31"/>
<text text-anchor="middle" x="2933.48" y="-1476.48" font-family="Times,serif" font-size="32.00">e</text>
</g>
<!-- z3&#45;&gt;e -->
<g id="edge41" class="edge">
<title>z3&#45;&gt;e</title>
<path fill="none" stroke="#000000" d="M3059.17,-1484.58C3034.71,-1484.58 2998.03,-1484.58 2970.78,-1484.58"/>
<polygon fill="#000000" stroke="#000000" points="2970.48,-1481.08 2960.48,-1484.58 2970.48,-1488.08 2970.48,-1481.08"/>
<text text-anchor="middle" x="3009.98" y="-1528.98" font-family="Times,serif" font-size="32.00">it</text>
<text text-anchor="middle" x="3009.98" y="-1493.98" font-family="Times,serif" font-size="32.00">e &#45;k</text>
</g>
</g>
</svg>
