<?xml version="1.0" encoding="UTF-8" standalone="no"?>
<!DOCTYPE svg PUBLIC "-//W3C//DTD SVG 1.1//EN"
 "http://www.w3.org/Graphics/SVG/1.1/DTD/svg11.dtd">
<!-- Generated by graphviz version 2.47.1 (20210417.1919)
 -->
<!-- Title: G Pages: 1 -->
<svg width="2176pt" height="1144pt"
 viewBox="0.00 0.00 2176.44 1144.41" xmlns="http://www.w3.org/2000/svg" xmlns:xlink="http://www.w3.org/1999/xlink">
<g id="graph0" class="graph" transform="scale(1 1) rotate(0) translate(4 1140.41)">
<title>G</title>
<polygon fill="white" stroke="transparent" points="-4,4 -4,-1140.41 2172.44,-1140.41 2172.44,4 -4,4"/>
<text text-anchor="middle" x="1084.22" y="-13.4" font-family="Times,serif" font-size="32.00">decomposition: be =prog 1, be =prog v, ben =prog perf</text>
<!-- t -->
<g id="node1" class="node">
<title>t</title>
<ellipse fill="lightgray" stroke="black" cx="1807.44" cy="-946.41" rx="27" ry="30.31"/>
<text text-anchor="middle" x="1807.44" y="-938.31" font-family="Times,serif" font-size="32.00">t</text>
</g>
<!-- c2 -->
<g id="node15" class="node">
<title>c2</title>
<ellipse fill="none" stroke="black" cx="1600.21" cy="-573.41" rx="33.47" ry="30.31"/>
<text text-anchor="middle" x="1600.21" y="-565.31" font-family="Times,serif" font-size="32.00">c2</text>
</g>
<!-- t&#45;&gt;c2 -->
<g id="edge28" class="edge">
<title>t&#45;&gt;c2</title>
<path fill="none" stroke="#000000" d="M1792.5,-921.06C1756.85,-856.28 1662.31,-684.45 1620.99,-609.37"/>
<polygon fill="#000000" stroke="#000000" points="1623.88,-607.35 1615.99,-600.28 1617.75,-610.73 1623.88,-607.35"/>
<text text-anchor="middle" x="1706.94" y="-909.81" font-family="Times,serif" font-size="32.00">that_1</text>
<text text-anchor="middle" x="1706.94" y="-874.81" font-family="Times,serif" font-size="32.00">=t c2</text>
</g>
<!-- c1 -->
<g id="node22" class="node">
<title>c1</title>
<ellipse fill="none" stroke="black" cx="1600.21" cy="-960.41" rx="33.47" ry="30.31"/>
<text text-anchor="middle" x="1600.21" y="-952.31" font-family="Times,serif" font-size="32.00">c1</text>
</g>
<!-- t&#45;&gt;c1 -->
<g id="edge27" class="edge">
<title>t&#45;&gt;c1</title>
<path fill="none" stroke="#000000" d="M1780.25,-944.62C1749.33,-942.96 1696.4,-941.53 1651.44,-947.41 1648.37,-947.81 1645.22,-948.33 1642.06,-948.95"/>
<polygon fill="#000000" stroke="#000000" points="1641.07,-945.58 1632.06,-951.15 1642.57,-952.42 1641.07,-945.58"/>
<text text-anchor="middle" x="1706.94" y="-991.81" font-family="Times,serif" font-size="32.00">that</text>
<text text-anchor="middle" x="1706.94" y="-956.81" font-family="Times,serif" font-size="32.00">=t =e c1</text>
</g>
<!-- 0 -->
<g id="node2" class="node">
<title>0</title>
<ellipse fill="none" stroke="black" cx="1807.44" cy="-210.41" rx="27" ry="30.31"/>
<text text-anchor="middle" x="1807.44" y="-202.31" font-family="Times,serif" font-size="32.00">0</text>
</g>
<!-- d -->
<g id="node3" class="node">
<title>d</title>
<ellipse fill="none" stroke="black" cx="1600.21" cy="-210.41" rx="27" ry="30.31"/>
<text text-anchor="middle" x="1600.21" y="-202.31" font-family="Times,serif" font-size="32.00">d</text>
</g>
<!-- 0&#45;&gt;d -->
<g id="edge1" class="edge">
<title>0&#45;&gt;d</title>
<path fill="none" stroke="#000000" d="M1780.03,-210.41C1743.78,-210.41 1678.46,-210.41 1637.6,-210.41"/>
<polygon fill="#000000" stroke="#000000" points="1637.52,-206.91 1627.52,-210.41 1637.52,-213.91 1637.52,-206.91"/>
<text text-anchor="middle" x="1706.94" y="-254.81" font-family="Times,serif" font-size="32.00">ε_0</text>
<text text-anchor="middle" x="1706.94" y="-219.81" font-family="Times,serif" font-size="32.00">=&gt;0 d &#45;k</text>
</g>
<!-- 2 -->
<g id="node8" class="node">
<title>2</title>
<ellipse fill="none" stroke="black" cx="1362.06" cy="-527.41" rx="27" ry="30.31"/>
<text text-anchor="middle" x="1362.06" y="-519.31" font-family="Times,serif" font-size="32.00">2</text>
</g>
<!-- d&#45;&gt;2 -->
<g id="edge11" class="edge">
<title>d&#45;&gt;2</title>
<path fill="none" stroke="#000000" d="M1587.74,-237.77C1579.36,-254.52 1566.42,-275.03 1548.97,-287.41 1504.92,-318.65 1470.48,-279.59 1430.97,-316.41 1383.21,-360.92 1368.93,-439.11 1364.73,-486.79"/>
<polygon fill="#000000" stroke="#000000" points="1361.21,-486.82 1363.94,-497.05 1368.19,-487.35 1361.21,-486.82"/>
<text text-anchor="middle" x="1489.97" y="-465.81" font-family="Times,serif" font-size="32.00">praise |</text>
<text text-anchor="middle" x="1489.97" y="-430.81" font-family="Times,serif" font-size="32.00"> like |</text>
<text text-anchor="middle" x="1489.97" y="-395.81" font-family="Times,serif" font-size="32.00"> kiss |</text>
<text text-anchor="middle" x="1489.97" y="-360.81" font-family="Times,serif" font-size="32.00"> hug</text>
<text text-anchor="middle" x="1489.97" y="-325.81" font-family="Times,serif" font-size="32.00">=d *k 2</text>
</g>
<!-- pass -->
<g id="node14" class="node">
<title>pass</title>
<ellipse fill="none" stroke="black" cx="1362.06" cy="-269.41" rx="50.82" ry="30.31"/>
<text text-anchor="middle" x="1362.06" y="-261.31" font-family="Times,serif" font-size="32.00">pass</text>
</g>
<!-- d&#45;&gt;pass -->
<g id="edge12" class="edge">
<title>d&#45;&gt;pass</title>
<path fill="none" stroke="#000000" d="M1592.82,-180.67C1586.13,-157.61 1573.12,-127.16 1548.97,-112.41 1504.22,-85.06 1474.8,-83.61 1430.97,-112.41 1391.95,-138.04 1375.24,-191.4 1368.16,-228.77"/>
<polygon fill="#000000" stroke="#000000" points="1364.67,-228.4 1366.41,-238.85 1371.57,-229.59 1364.67,-228.4"/>
<text text-anchor="middle" x="1489.97" y="-261.81" font-family="Times,serif" font-size="32.00">praisen |</text>
<text text-anchor="middle" x="1489.97" y="-226.81" font-family="Times,serif" font-size="32.00"> liken |</text>
<text text-anchor="middle" x="1489.97" y="-191.81" font-family="Times,serif" font-size="32.00"> kissn |</text>
<text text-anchor="middle" x="1489.97" y="-156.81" font-family="Times,serif" font-size="32.00"> hugn</text>
<text text-anchor="middle" x="1489.97" y="-121.81" font-family="Times,serif" font-size="32.00">=d pass</text>
</g>
<!-- z0 -->
<g id="node4" class="node">
<title>z0</title>
<ellipse fill="none" stroke="black" stroke-dasharray="5,2" cx="1988.44" cy="-309.41" rx="27" ry="18"/>
</g>
<!-- z0&#45;&gt;0 -->
<g id="edge2" class="edge">
<title>z0&#45;&gt;0</title>
<path fill="none" stroke="#000000" d="M1961.39,-311.48C1932.26,-312.47 1884.93,-309.95 1852.44,-287.41 1838.74,-277.9 1828.76,-262.66 1821.8,-248.24"/>
<polygon fill="#000000" stroke="#000000" points="1824.93,-246.65 1817.66,-238.95 1818.53,-249.51 1824.93,-246.65"/>
<text text-anchor="middle" x="1897.94" y="-460.81" font-family="Times,serif" font-size="32.00">Mary |</text>
<text text-anchor="middle" x="1897.94" y="-425.81" font-family="Times,serif" font-size="32.00"> John |</text>
<text text-anchor="middle" x="1897.94" y="-390.81" font-family="Times,serif" font-size="32.00"> Alice |</text>
<text text-anchor="middle" x="1897.94" y="-355.81" font-family="Times,serif" font-size="32.00"> Bob</text>
<text text-anchor="middle" x="1897.94" y="-320.81" font-family="Times,serif" font-size="32.00">0</text>
</g>
<!-- n -->
<g id="node5" class="node">
<title>n</title>
<ellipse fill="none" stroke="black" cx="1988.44" cy="-111.41" rx="27" ry="30.31"/>
<text text-anchor="middle" x="1988.44" y="-103.31" font-family="Times,serif" font-size="32.00">n</text>
</g>
<!-- n&#45;&gt;0 -->
<g id="edge3" class="edge">
<title>n&#45;&gt;0</title>
<path fill="none" stroke="#000000" d="M1962.47,-102.99C1933.49,-94.87 1885.44,-86.7 1852.44,-108.41 1831.62,-122.1 1820.61,-147.95 1814.81,-170.21"/>
<polygon fill="#000000" stroke="#000000" points="1811.36,-169.59 1812.49,-180.12 1818.18,-171.18 1811.36,-169.59"/>
<text text-anchor="middle" x="1897.94" y="-257.81" font-family="Times,serif" font-size="32.00">this |</text>
<text text-anchor="middle" x="1897.94" y="-222.81" font-family="Times,serif" font-size="32.00"> a |</text>
<text text-anchor="middle" x="1897.94" y="-187.81" font-family="Times,serif" font-size="32.00"> the |</text>
<text text-anchor="middle" x="1897.94" y="-152.81" font-family="Times,serif" font-size="32.00"> some</text>
<text text-anchor="middle" x="1897.94" y="-117.81" font-family="Times,serif" font-size="32.00">=n 0</text>
</g>
<!-- z1 -->
<g id="node6" class="node">
<title>z1</title>
<ellipse fill="none" stroke="black" stroke-dasharray="5,2" cx="2141.44" cy="-111.41" rx="27" ry="18"/>
</g>
<!-- z1&#45;&gt;n -->
<g id="edge4" class="edge">
<title>z1&#45;&gt;n</title>
<path fill="none" stroke="#000000" d="M2114.14,-111.41C2089.67,-111.41 2052.99,-111.41 2025.74,-111.41"/>
<polygon fill="#000000" stroke="#000000" points="2025.44,-107.91 2015.44,-111.41 2025.44,-114.91 2025.44,-107.91"/>
<text text-anchor="middle" x="2064.94" y="-190.81" font-family="Times,serif" font-size="32.00">boy |</text>
<text text-anchor="middle" x="2064.94" y="-155.81" font-family="Times,serif" font-size="32.00"> girl</text>
<text text-anchor="middle" x="2064.94" y="-120.81" font-family="Times,serif" font-size="32.00">n</text>
</g>
<!-- 1 -->
<g id="node7" class="node">
<title>1</title>
<ellipse fill="none" stroke="black" cx="28.99" cy="-736.41" rx="27" ry="30.31"/>
<text text-anchor="middle" x="28.99" y="-728.31" font-family="Times,serif" font-size="32.00">1</text>
</g>
<!-- 1&#45;&gt;t -->
<g id="edge5" class="edge">
<title>1&#45;&gt;t</title>
<path fill="none" stroke="#000000" d="M32.75,-766.59C41.46,-841.77 75.36,-1031.41 195.98,-1031.41 1601.21,-1031.41 1601.21,-1031.41 1601.21,-1031.41 1673.14,-1031.41 1701.17,-1055.08 1762.44,-1017.41 1775.26,-1009.52 1784.92,-996.36 1791.87,-983.49"/>
<polygon fill="#000000" stroke="#000000" points="1795.15,-984.77 1796.46,-974.25 1788.88,-981.65 1795.15,-984.77"/>
<text text-anchor="middle" x="878.15" y="-1110.81" font-family="Times,serif" font-size="32.00">s |</text>
<text text-anchor="middle" x="878.15" y="-1075.81" font-family="Times,serif" font-size="32.00"> d</text>
<text text-anchor="middle" x="878.15" y="-1040.81" font-family="Times,serif" font-size="32.00">=&gt;1 +k t</text>
</g>
<!-- 3 -->
<g id="node9" class="node">
<title>3</title>
<ellipse fill="none" stroke="black" cx="1115.15" cy="-696.41" rx="27" ry="30.31"/>
<text text-anchor="middle" x="1115.15" y="-688.31" font-family="Times,serif" font-size="32.00">3</text>
</g>
<!-- 2&#45;&gt;3 -->
<g id="edge6" class="edge">
<title>2&#45;&gt;3</title>
<path fill="none" stroke="#000000" d="M1335.03,-531.41C1293.33,-539.06 1211.1,-559.38 1160.15,-606.41 1145.16,-620.24 1134.67,-640.29 1127.7,-657.95"/>
<polygon fill="#000000" stroke="#000000" points="1124.37,-656.87 1124.19,-667.47 1130.94,-659.3 1124.37,-656.87"/>
<text text-anchor="middle" x="1226.65" y="-650.81" font-family="Times,serif" font-size="32.00">ε_1</text>
<text text-anchor="middle" x="1226.65" y="-615.81" font-family="Times,serif" font-size="32.00">=&gt;2 =d 3</text>
</g>
<!-- v -->
<g id="node11" class="node">
<title>v</title>
<ellipse fill="none" stroke="black" cx="196.98" cy="-644.41" rx="27" ry="30.31"/>
<text text-anchor="middle" x="196.98" y="-636.31" font-family="Times,serif" font-size="32.00">v</text>
</g>
<!-- 3&#45;&gt;v -->
<g id="edge8" class="edge">
<title>3&#45;&gt;v</title>
<path fill="none" stroke="#000000" d="M1097.67,-719.77C1062.98,-765.93 977.45,-864.41 879.15,-864.41 879.15,-864.41 879.15,-864.41 401.07,-864.41 329.75,-864.41 294.54,-891.61 241.98,-843.41 219.11,-822.43 206.93,-736.77 201.52,-684.91"/>
<polygon fill="#000000" stroke="#000000" points="204.98,-684.31 200.5,-674.71 198.01,-685.01 204.98,-684.31"/>
<text text-anchor="middle" x="636.15" y="-908.81" font-family="Times,serif" font-size="32.00">ε_2</text>
<text text-anchor="middle" x="636.15" y="-873.81" font-family="Times,serif" font-size="32.00">=&gt;3 v</text>
</g>
<!-- prog -->
<g id="node12" class="node">
<title>prog</title>
<ellipse fill="none" stroke="black" cx="878.15" cy="-648.41" rx="52.15" ry="30.31"/>
<text text-anchor="middle" x="878.15" y="-640.31" font-family="Times,serif" font-size="32.00">prog</text>
</g>
<!-- 3&#45;&gt;prog -->
<g id="edge9" class="edge">
<title>3&#45;&gt;prog</title>
<path fill="none" stroke="#000000" d="M1096.85,-673.5C1089.56,-665.64 1080.38,-657.73 1070.15,-653.41 1028.78,-635.91 977.74,-635.53 938.83,-639.04"/>
<polygon fill="#000000" stroke="#000000" points="938.31,-635.58 928.71,-640.07 939.01,-642.54 938.31,-635.58"/>
<text text-anchor="middle" x="1011.15" y="-697.81" font-family="Times,serif" font-size="32.00">ing</text>
<text text-anchor="middle" x="1011.15" y="-662.81" font-family="Times,serif" font-size="32.00">=&gt;3 prog</text>
</g>
<!-- perf -->
<g id="node13" class="node">
<title>perf</title>
<ellipse fill="none" stroke="black" cx="402.07" cy="-721.41" rx="48.17" ry="30.31"/>
<text text-anchor="middle" x="402.07" y="-713.31" font-family="Times,serif" font-size="32.00">perf</text>
</g>
<!-- 3&#45;&gt;perf -->
<g id="edge10" class="edge">
<title>3&#45;&gt;perf</title>
<path fill="none" stroke="#000000" d="M1092.43,-712.98C1085.65,-717.23 1077.91,-721.21 1070.15,-723.41 812.66,-796.11 735.67,-727.52 468.15,-723.41 465.63,-723.37 463.05,-723.32 460.45,-723.27"/>
<polygon fill="#000000" stroke="#000000" points="460.42,-719.76 450.34,-723.03 460.25,-726.76 460.42,-719.76"/>
<text text-anchor="middle" x="748.15" y="-798.81" font-family="Times,serif" font-size="32.00">n</text>
<text text-anchor="middle" x="748.15" y="-763.81" font-family="Times,serif" font-size="32.00">=&gt;3 perf</text>
</g>
<!-- z2 -->
<g id="node10" class="node">
<title>z2</title>
<ellipse fill="none" stroke="black" stroke-dasharray="5,2" cx="1600.21" cy="-705.41" rx="27" ry="18"/>
</g>
<!-- z2&#45;&gt;2 -->
<g id="edge7" class="edge">
<title>z2&#45;&gt;2</title>
<path fill="none" stroke="#000000" d="M1573.31,-703.42C1528.95,-699.82 1442.12,-691.8 1430.97,-683.41 1394.24,-655.76 1377.07,-604.07 1369.25,-567.79"/>
<polygon fill="#000000" stroke="#000000" points="1372.59,-566.65 1367.2,-557.53 1365.73,-568.03 1372.59,-566.65"/>
<text text-anchor="middle" x="1489.97" y="-849.81" font-family="Times,serif" font-size="32.00">dance |</text>
<text text-anchor="middle" x="1489.97" y="-814.81" font-family="Times,serif" font-size="32.00"> laugh |</text>
<text text-anchor="middle" x="1489.97" y="-779.81" font-family="Times,serif" font-size="32.00"> smile |</text>
<text text-anchor="middle" x="1489.97" y="-744.81" font-family="Times,serif" font-size="32.00"> jump</text>
<text text-anchor="middle" x="1489.97" y="-709.81" font-family="Times,serif" font-size="32.00">2</text>
</g>
<!-- v&#45;&gt;1 -->
<g id="edge14" class="edge">
<title>v&#45;&gt;1</title>
<path fill="none" stroke="#000000" d="M178.65,-621.89C171.35,-614.19 162.18,-606.49 151.98,-602.41 120.63,-589.84 103.47,-582.78 75.98,-602.41 46.49,-623.47 35.71,-664.67 31.87,-695.86"/>
<polygon fill="#000000" stroke="#000000" points="28.37,-695.7 30.82,-706.01 35.33,-696.42 28.37,-695.7"/>
<text text-anchor="middle" x="113.98" y="-646.81" font-family="Times,serif" font-size="32.00">will</text>
<text text-anchor="middle" x="113.98" y="-611.81" font-family="Times,serif" font-size="32.00">=v 1</text>
</g>
<!-- v&#45;&gt;1 -->
<g id="edge23" class="edge">
<title>v&#45;&gt;1</title>
<path fill="none" stroke="#000000" d="M173.82,-660.17C167.03,-664.54 159.39,-669.01 151.98,-672.41 119.91,-687.13 106.77,-678.15 75.98,-695.41 69.31,-699.15 62.78,-703.99 56.83,-709.04"/>
<polygon fill="#000000" stroke="#000000" points="54.22,-706.68 49.12,-715.96 58.9,-711.89 54.22,-706.68"/>
<text text-anchor="middle" x="113.98" y="-739.81" font-family="Times,serif" font-size="32.00">ε_7</text>
<text text-anchor="middle" x="113.98" y="-704.81" font-family="Times,serif" font-size="32.00">=&gt;v 1</text>
</g>
<!-- to -->
<g id="node21" class="node">
<title>to</title>
<ellipse fill="none" stroke="black" cx="28.99" cy="-508.41" rx="28.98" ry="30.31"/>
<text text-anchor="middle" x="28.99" y="-500.31" font-family="Times,serif" font-size="32.00">to</text>
</g>
<!-- v&#45;&gt;to -->
<g id="edge26" class="edge">
<title>v&#45;&gt;to</title>
<path fill="none" stroke="#000000" d="M194.83,-613.82C191.9,-583.53 182.32,-538.45 151.98,-515.41 128.2,-497.34 93.67,-497.03 67.41,-500.41"/>
<polygon fill="#000000" stroke="#000000" points="66.8,-496.96 57.44,-501.91 67.85,-503.88 66.8,-496.96"/>
<text text-anchor="middle" x="113.98" y="-559.81" font-family="Times,serif" font-size="32.00">to</text>
<text text-anchor="middle" x="113.98" y="-524.81" font-family="Times,serif" font-size="32.00">=v to</text>
</g>
<!-- 4 -->
<g id="node16" class="node">
<title>4</title>
<ellipse fill="none" stroke="black" cx="636.15" cy="-648.41" rx="27" ry="30.31"/>
<text text-anchor="middle" x="636.15" y="-640.31" font-family="Times,serif" font-size="32.00">4</text>
</g>
<!-- prog&#45;&gt;4 -->
<g id="edge16" class="edge">
<title>prog&#45;&gt;4</title>
<path fill="none" stroke="#f7931d" stroke-width="2" d="M825.71,-646.03C818.47,-645.77 811.12,-645.55 804.15,-645.41 754.38,-644.38 741.91,-644.05 692.15,-645.41 686.09,-645.57 679.65,-645.84 673.4,-646.15"/>
<polygon fill="#f7931d" stroke="#f7931d" stroke-width="2" points="672.96,-642.67 663.16,-646.7 673.33,-649.66 672.96,-642.67"/>
<text text-anchor="middle" x="748.15" y="-689.81" font-family="Times,serif" font-size="32.00">be</text>
<text text-anchor="middle" x="748.15" y="-654.81" font-family="Times,serif" font-size="32.00">=prog 4</text>
</g>
<!-- perf&#45;&gt;v -->
<g id="edge24" class="edge">
<title>perf&#45;&gt;v</title>
<path fill="none" stroke="#000000" d="M365.47,-701.34C356.04,-696.44 345.76,-691.45 335.98,-687.41 301.9,-673.33 261.47,-661.24 233.22,-653.5"/>
<polygon fill="#000000" stroke="#000000" points="233.96,-650.08 223.39,-650.85 232.13,-656.83 233.96,-650.08"/>
<text text-anchor="middle" x="288.98" y="-731.81" font-family="Times,serif" font-size="32.00">have</text>
<text text-anchor="middle" x="288.98" y="-696.81" font-family="Times,serif" font-size="32.00">=perf v</text>
</g>
<!-- pass&#45;&gt;3 -->
<g id="edge19" class="edge">
<title>pass&#45;&gt;3</title>
<path fill="none" stroke="#000000" d="M1327.53,-292.06C1281.86,-324.83 1201.12,-389.99 1160.15,-466.41 1127.67,-526.99 1118.9,-607.89 1116.69,-655.83"/>
<polygon fill="#000000" stroke="#000000" points="1113.19,-655.7 1116.3,-665.83 1120.19,-655.97 1113.19,-655.7"/>
<text text-anchor="middle" x="1226.65" y="-510.81" font-family="Times,serif" font-size="32.00">be_1</text>
<text text-anchor="middle" x="1226.65" y="-475.81" font-family="Times,serif" font-size="32.00">=pass 3</text>
</g>
<!-- c2&#45;&gt;2 -->
<g id="edge13" class="edge">
<title>c2&#45;&gt;2</title>
<path fill="none" stroke="#000000" d="M1585.78,-545.94C1577.33,-531.94 1564.98,-516.26 1548.97,-508.41 1500.45,-484.58 1436.34,-499.82 1397.48,-513.36"/>
<polygon fill="#000000" stroke="#000000" points="1395.9,-510.21 1387.7,-516.92 1398.3,-516.79 1395.9,-510.21"/>
<text text-anchor="middle" x="1489.97" y="-657.81" font-family="Times,serif" font-size="32.00">declare |</text>
<text text-anchor="middle" x="1489.97" y="-622.81" font-family="Times,serif" font-size="32.00"> think |</text>
<text text-anchor="middle" x="1489.97" y="-587.81" font-family="Times,serif" font-size="32.00"> explain |</text>
<text text-anchor="middle" x="1489.97" y="-552.81" font-family="Times,serif" font-size="32.00"> say</text>
<text text-anchor="middle" x="1489.97" y="-517.81" font-family="Times,serif" font-size="32.00">=c2 2</text>
</g>
<!-- 4&#45;&gt;1 -->
<g id="edge15" class="edge">
<title>4&#45;&gt;1</title>
<path fill="none" stroke="#f7931d" stroke-width="2" d="M622.75,-675.3C613.4,-692.66 598.97,-714.37 580.15,-727.41 531.14,-761.34 509.24,-752.52 450.15,-760.41 318.78,-777.94 284.52,-764.29 151.98,-765.41 118.21,-765.69 108.43,-774.78 75.98,-765.41 70.66,-763.87 65.35,-761.51 60.34,-758.78"/>
<polygon fill="#f7931d" stroke="#f7931d" stroke-width="2" points="62.07,-755.74 51.69,-753.59 58.46,-761.74 62.07,-755.74"/>
<text text-anchor="middle" x="288.98" y="-813.81" font-family="Times,serif" font-size="32.00">ε_3</text>
<text text-anchor="middle" x="288.98" y="-778.81" font-family="Times,serif" font-size="32.00">=&gt;4 1</text>
</g>
<!-- 4&#45;&gt;v -->
<g id="edge17" class="edge">
<title>4&#45;&gt;v</title>
<path fill="none" stroke="#f7931d" stroke-width="2" d="M609.86,-640.3C600.59,-637.53 589.96,-634.58 580.15,-632.41 481.62,-610.59 454.38,-602.21 353.98,-612.41 312.1,-616.66 264.84,-627.17 233.43,-635"/>
<polygon fill="#f7931d" stroke="#f7931d" stroke-width="2" points="232.24,-631.69 223.41,-637.54 233.96,-638.47 232.24,-631.69"/>
<text text-anchor="middle" x="402.07" y="-656.81" font-family="Times,serif" font-size="32.00">ε_4</text>
<text text-anchor="middle" x="402.07" y="-621.81" font-family="Times,serif" font-size="32.00">=&gt;4 v</text>
</g>
<!-- 4&#45;&gt;perf -->
<g id="edge18" class="edge">
<title>4&#45;&gt;perf</title>
<path fill="none" stroke="#f7931d" stroke-width="2" d="M609.4,-642.62C575.05,-636.31 513.33,-629.96 468.15,-653.41 456.31,-659.55 459.05,-667.48 450.15,-677.41 446.51,-681.46 442.54,-685.57 438.51,-689.57"/>
<polygon fill="#f7931d" stroke="#f7931d" stroke-width="2" points="436,-687.12 431.25,-696.59 440.87,-692.16 436,-687.12"/>
<text text-anchor="middle" x="524.15" y="-697.81" font-family="Times,serif" font-size="32.00">n_1</text>
<text text-anchor="middle" x="524.15" y="-662.81" font-family="Times,serif" font-size="32.00">=&gt;4 perf</text>
</g>
<!-- 5 -->
<g id="node17" class="node">
<title>5</title>
<ellipse fill="none" stroke="black" cx="1362.06" cy="-789.41" rx="27" ry="30.31"/>
<text text-anchor="middle" x="1362.06" y="-781.31" font-family="Times,serif" font-size="32.00">5</text>
</g>
<!-- 5&#45;&gt;3 -->
<g id="edge20" class="edge">
<title>5&#45;&gt;3</title>
<path fill="none" stroke="#000000" d="M1349.43,-762.09C1338.45,-740.17 1319.7,-710.9 1293.15,-697.41 1248.45,-674.69 1188.83,-680.52 1151.47,-687.74"/>
<polygon fill="#000000" stroke="#000000" points="1150.63,-684.34 1141.55,-689.79 1152.05,-691.19 1150.63,-684.34"/>
<text text-anchor="middle" x="1226.65" y="-741.81" font-family="Times,serif" font-size="32.00">ε_5</text>
<text text-anchor="middle" x="1226.65" y="-706.81" font-family="Times,serif" font-size="32.00">=&gt;5 =to 3</text>
</g>
<!-- 5&#45;&gt;3 -->
<g id="edge22" class="edge">
<title>5&#45;&gt;3</title>
<path fill="none" stroke="#000000" d="M1335.28,-793.34C1294.66,-798.14 1214.76,-801.84 1160.15,-767.41 1147.51,-759.44 1137.92,-746.39 1130.97,-733.64"/>
<polygon fill="#000000" stroke="#000000" points="1133.99,-731.85 1126.37,-724.48 1127.73,-734.99 1133.99,-731.85"/>
<text text-anchor="middle" x="1226.65" y="-839.81" font-family="Times,serif" font-size="32.00">ε_6</text>
<text text-anchor="middle" x="1226.65" y="-804.81" font-family="Times,serif" font-size="32.00">=&gt;5 =c1 3</text>
</g>
<!-- z3 -->
<g id="node18" class="node">
<title>z3</title>
<ellipse fill="none" stroke="black" stroke-dasharray="5,2" cx="1600.21" cy="-894.41" rx="27" ry="18"/>
</g>
<!-- z3&#45;&gt;5 -->
<g id="edge21" class="edge">
<title>z3&#45;&gt;5</title>
<path fill="none" stroke="#000000" d="M1573.69,-898.67C1539.03,-903.15 1476.2,-906.47 1430.97,-881.41 1408.39,-868.89 1391.22,-845.34 1379.79,-825.2"/>
<polygon fill="#000000" stroke="#000000" points="1382.79,-823.37 1374.95,-816.24 1376.63,-826.7 1382.79,-823.37"/>
<text text-anchor="middle" x="1489.97" y="-980.81" font-family="Times,serif" font-size="32.00">seem |</text>
<text text-anchor="middle" x="1489.97" y="-945.81" font-family="Times,serif" font-size="32.00"> appear</text>
<text text-anchor="middle" x="1489.97" y="-910.81" font-family="Times,serif" font-size="32.00">5</text>
</g>
<!-- z4 -->
<g id="node19" class="node">
<title>z4</title>
<ellipse fill="none" stroke="black" stroke-dasharray="5,2" cx="2141.44" cy="-375.41" rx="27" ry="18"/>
</g>
<!-- e -->
<g id="node20" class="node">
<title>e</title>
<ellipse fill="none" stroke="black" cx="1988.44" cy="-375.41" rx="27" ry="30.31"/>
<text text-anchor="middle" x="1988.44" y="-367.31" font-family="Times,serif" font-size="32.00">e</text>
</g>
<!-- z4&#45;&gt;e -->
<g id="edge25" class="edge">
<title>z4&#45;&gt;e</title>
<path fill="none" stroke="#000000" d="M2114.14,-375.41C2089.67,-375.41 2052.99,-375.41 2025.74,-375.41"/>
<polygon fill="#000000" stroke="#000000" points="2025.44,-371.91 2015.44,-375.41 2025.44,-378.91 2025.44,-371.91"/>
<text text-anchor="middle" x="2064.94" y="-419.81" font-family="Times,serif" font-size="32.00">it</text>
<text text-anchor="middle" x="2064.94" y="-384.81" font-family="Times,serif" font-size="32.00">e &#45;k</text>
</g>
</g>
</svg>
