<?xml version="1.0" encoding="UTF-8" standalone="no"?>
<!DOCTYPE svg PUBLIC "-//W3C//DTD SVG 1.1//EN"
 "http://www.w3.org/Graphics/SVG/1.1/DTD/svg11.dtd">
<!-- Generated by graphviz version 2.47.1 (20210417.1919)
 -->
<!-- Title: G Pages: 1 -->
<svg width="2176pt" height="1124pt"
 viewBox="0.00 0.00 2176.44 1124.00" xmlns="http://www.w3.org/2000/svg" xmlns:xlink="http://www.w3.org/1999/xlink">
<g id="graph0" class="graph" transform="scale(1 1) rotate(0) translate(4 1120)">
<title>G</title>
<polygon fill="white" stroke="transparent" points="-4,4 -4,-1120 2172.44,-1120 2172.44,4 -4,4"/>
<text text-anchor="middle" x="1084.22" y="-13.4" font-family="Times,serif" font-size="32.00">replacement: =&gt;4 1 with =&gt;4 v, =&gt;v 1</text>
<!-- t -->
<g id="node1" class="node">
<title>t</title>
<ellipse fill="lightgray" stroke="black" cx="1807.44" cy="-877" rx="27" ry="30.31"/>
<text text-anchor="middle" x="1807.44" y="-868.9" font-family="Times,serif" font-size="32.00">t</text>
</g>
<!-- c2 -->
<g id="node15" class="node">
<title>c2</title>
<ellipse fill="none" stroke="black" cx="1600.21" cy="-870" rx="33.47" ry="30.31"/>
<text text-anchor="middle" x="1600.21" y="-861.9" font-family="Times,serif" font-size="32.00">c2</text>
</g>
<!-- t&#45;&gt;c2 -->
<g id="edge27" class="edge">
<title>t&#45;&gt;c2</title>
<path fill="none" stroke="#000000" d="M1780.45,-876.11C1746.04,-874.94 1684.94,-872.86 1643.76,-871.45"/>
<polygon fill="#000000" stroke="#000000" points="1643.86,-867.95 1633.74,-871.11 1643.62,-874.95 1643.86,-867.95"/>
<text text-anchor="middle" x="1706.94" y="-919.4" font-family="Times,serif" font-size="32.00">that_1</text>
<text text-anchor="middle" x="1706.94" y="-884.4" font-family="Times,serif" font-size="32.00">=t c2</text>
</g>
<!-- c1 -->
<g id="node22" class="node">
<title>c1</title>
<ellipse fill="none" stroke="black" cx="1600.21" cy="-784" rx="33.47" ry="30.31"/>
<text text-anchor="middle" x="1600.21" y="-775.9" font-family="Times,serif" font-size="32.00">c1</text>
</g>
<!-- t&#45;&gt;c1 -->
<g id="edge26" class="edge">
<title>t&#45;&gt;c1</title>
<path fill="none" stroke="#000000" d="M1798.29,-848.07C1791.66,-830.23 1780.41,-808.62 1762.44,-797 1727.18,-774.19 1678.1,-773.59 1643.38,-777.04"/>
<polygon fill="#000000" stroke="#000000" points="1642.63,-773.6 1633.09,-778.22 1643.43,-780.56 1642.63,-773.6"/>
<text text-anchor="middle" x="1706.94" y="-841.4" font-family="Times,serif" font-size="32.00">that</text>
<text text-anchor="middle" x="1706.94" y="-806.4" font-family="Times,serif" font-size="32.00">=t =e c1</text>
</g>
<!-- 0 -->
<g id="node2" class="node">
<title>0</title>
<ellipse fill="none" stroke="black" cx="1807.44" cy="-326" rx="27" ry="30.31"/>
<text text-anchor="middle" x="1807.44" y="-317.9" font-family="Times,serif" font-size="32.00">0</text>
</g>
<!-- d -->
<g id="node3" class="node">
<title>d</title>
<ellipse fill="none" stroke="black" cx="1600.21" cy="-326" rx="27" ry="30.31"/>
<text text-anchor="middle" x="1600.21" y="-317.9" font-family="Times,serif" font-size="32.00">d</text>
</g>
<!-- 0&#45;&gt;d -->
<g id="edge1" class="edge">
<title>0&#45;&gt;d</title>
<path fill="none" stroke="#000000" d="M1780.03,-326C1743.78,-326 1678.46,-326 1637.6,-326"/>
<polygon fill="#000000" stroke="#000000" points="1637.52,-322.5 1627.52,-326 1637.52,-329.5 1637.52,-322.5"/>
<text text-anchor="middle" x="1706.94" y="-370.4" font-family="Times,serif" font-size="32.00">ε_0</text>
<text text-anchor="middle" x="1706.94" y="-335.4" font-family="Times,serif" font-size="32.00">=&gt;0 d &#45;k</text>
</g>
<!-- 2 -->
<g id="node8" class="node">
<title>2</title>
<ellipse fill="none" stroke="black" cx="1362.06" cy="-525" rx="27" ry="30.31"/>
<text text-anchor="middle" x="1362.06" y="-516.9" font-family="Times,serif" font-size="32.00">2</text>
</g>
<!-- d&#45;&gt;2 -->
<g id="edge11" class="edge">
<title>d&#45;&gt;2</title>
<path fill="none" stroke="#000000" d="M1588.26,-353.48C1580.02,-370.49 1567.04,-391.26 1548.97,-403 1504.43,-431.94 1475.59,-393.17 1430.97,-422 1406.62,-437.74 1389.04,-465.63 1377.87,-488.42"/>
<polygon fill="#000000" stroke="#000000" points="1374.69,-486.96 1373.62,-497.5 1381.03,-489.93 1374.69,-486.96"/>
<text text-anchor="middle" x="1489.97" y="-571.4" font-family="Times,serif" font-size="32.00">praise |</text>
<text text-anchor="middle" x="1489.97" y="-536.4" font-family="Times,serif" font-size="32.00"> like |</text>
<text text-anchor="middle" x="1489.97" y="-501.4" font-family="Times,serif" font-size="32.00"> kiss |</text>
<text text-anchor="middle" x="1489.97" y="-466.4" font-family="Times,serif" font-size="32.00"> hug</text>
<text text-anchor="middle" x="1489.97" y="-431.4" font-family="Times,serif" font-size="32.00">=d *k 2</text>
</g>
<!-- pass -->
<g id="node14" class="node">
<title>pass</title>
<ellipse fill="none" stroke="black" cx="1362.06" cy="-280" rx="50.82" ry="30.31"/>
<text text-anchor="middle" x="1362.06" y="-271.9" font-family="Times,serif" font-size="32.00">pass</text>
</g>
<!-- d&#45;&gt;pass -->
<g id="edge12" class="edge">
<title>d&#45;&gt;pass</title>
<path fill="none" stroke="#000000" d="M1592.82,-296.27C1586.13,-273.2 1573.12,-242.76 1548.97,-228 1504.22,-200.65 1480.64,-211.17 1430.97,-228 1418.65,-232.17 1406.82,-239.58 1396.57,-247.52"/>
<polygon fill="#000000" stroke="#000000" points="1394.24,-244.9 1388.72,-253.94 1398.67,-250.32 1394.24,-244.9"/>
<text text-anchor="middle" x="1489.97" y="-377.4" font-family="Times,serif" font-size="32.00">praisen |</text>
<text text-anchor="middle" x="1489.97" y="-342.4" font-family="Times,serif" font-size="32.00"> liken |</text>
<text text-anchor="middle" x="1489.97" y="-307.4" font-family="Times,serif" font-size="32.00"> kissn |</text>
<text text-anchor="middle" x="1489.97" y="-272.4" font-family="Times,serif" font-size="32.00"> hugn</text>
<text text-anchor="middle" x="1489.97" y="-237.4" font-family="Times,serif" font-size="32.00">=d pass</text>
</g>
<!-- z0 -->
<g id="node4" class="node">
<title>z0</title>
<ellipse fill="none" stroke="black" stroke-dasharray="5,2" cx="1988.44" cy="-425" rx="27" ry="18"/>
</g>
<!-- z0&#45;&gt;0 -->
<g id="edge2" class="edge">
<title>z0&#45;&gt;0</title>
<path fill="none" stroke="#000000" d="M1961.39,-427.08C1932.26,-428.07 1884.93,-425.54 1852.44,-403 1838.74,-393.5 1828.76,-378.26 1821.8,-363.83"/>
<polygon fill="#000000" stroke="#000000" points="1824.93,-362.25 1817.66,-354.54 1818.53,-365.1 1824.93,-362.25"/>
<text text-anchor="middle" x="1897.94" y="-576.4" font-family="Times,serif" font-size="32.00">Mary |</text>
<text text-anchor="middle" x="1897.94" y="-541.4" font-family="Times,serif" font-size="32.00"> John |</text>
<text text-anchor="middle" x="1897.94" y="-506.4" font-family="Times,serif" font-size="32.00"> Alice |</text>
<text text-anchor="middle" x="1897.94" y="-471.4" font-family="Times,serif" font-size="32.00"> Bob</text>
<text text-anchor="middle" x="1897.94" y="-436.4" font-family="Times,serif" font-size="32.00">0</text>
</g>
<!-- n -->
<g id="node5" class="node">
<title>n</title>
<ellipse fill="none" stroke="black" cx="1988.44" cy="-227" rx="27" ry="30.31"/>
<text text-anchor="middle" x="1988.44" y="-218.9" font-family="Times,serif" font-size="32.00">n</text>
</g>
<!-- n&#45;&gt;0 -->
<g id="edge3" class="edge">
<title>n&#45;&gt;0</title>
<path fill="none" stroke="#000000" d="M1962.47,-218.58C1933.49,-210.46 1885.44,-202.29 1852.44,-224 1831.62,-237.69 1820.61,-263.55 1814.81,-285.8"/>
<polygon fill="#000000" stroke="#000000" points="1811.36,-285.18 1812.49,-295.71 1818.18,-286.77 1811.36,-285.18"/>
<text text-anchor="middle" x="1897.94" y="-373.4" font-family="Times,serif" font-size="32.00">this |</text>
<text text-anchor="middle" x="1897.94" y="-338.4" font-family="Times,serif" font-size="32.00"> a |</text>
<text text-anchor="middle" x="1897.94" y="-303.4" font-family="Times,serif" font-size="32.00"> the |</text>
<text text-anchor="middle" x="1897.94" y="-268.4" font-family="Times,serif" font-size="32.00"> some</text>
<text text-anchor="middle" x="1897.94" y="-233.4" font-family="Times,serif" font-size="32.00">=n 0</text>
</g>
<!-- z1 -->
<g id="node6" class="node">
<title>z1</title>
<ellipse fill="none" stroke="black" stroke-dasharray="5,2" cx="2141.44" cy="-227" rx="27" ry="18"/>
</g>
<!-- z1&#45;&gt;n -->
<g id="edge4" class="edge">
<title>z1&#45;&gt;n</title>
<path fill="none" stroke="#000000" d="M2114.14,-227C2089.67,-227 2052.99,-227 2025.74,-227"/>
<polygon fill="#000000" stroke="#000000" points="2025.44,-223.5 2015.44,-227 2025.44,-230.5 2025.44,-223.5"/>
<text text-anchor="middle" x="2064.94" y="-306.4" font-family="Times,serif" font-size="32.00">boy |</text>
<text text-anchor="middle" x="2064.94" y="-271.4" font-family="Times,serif" font-size="32.00"> girl</text>
<text text-anchor="middle" x="2064.94" y="-236.4" font-family="Times,serif" font-size="32.00">n</text>
</g>
<!-- 1 -->
<g id="node7" class="node">
<title>1</title>
<ellipse fill="none" stroke="black" cx="28.99" cy="-568" rx="27" ry="30.31"/>
<text text-anchor="middle" x="28.99" y="-559.9" font-family="Times,serif" font-size="32.00">1</text>
</g>
<!-- 1&#45;&gt;t -->
<g id="edge5" class="edge">
<title>1&#45;&gt;t</title>
<path fill="none" stroke="#000000" d="M34.55,-598.1C50.49,-697.81 107.59,-1011 195.98,-1011 1601.21,-1011 1601.21,-1011 1601.21,-1011 1677.98,-1011 1703.46,-998.15 1762.44,-949 1773.94,-939.42 1783.27,-926.01 1790.33,-913.36"/>
<polygon fill="#000000" stroke="#000000" points="1793.52,-914.83 1795.07,-904.35 1787.32,-911.57 1793.52,-914.83"/>
<text text-anchor="middle" x="878.15" y="-1090.4" font-family="Times,serif" font-size="32.00">s |</text>
<text text-anchor="middle" x="878.15" y="-1055.4" font-family="Times,serif" font-size="32.00"> d</text>
<text text-anchor="middle" x="878.15" y="-1020.4" font-family="Times,serif" font-size="32.00">=&gt;1 +k t</text>
</g>
<!-- 3 -->
<g id="node9" class="node">
<title>3</title>
<ellipse fill="none" stroke="black" cx="1115.15" cy="-334" rx="27" ry="30.31"/>
<text text-anchor="middle" x="1115.15" y="-325.9" font-family="Times,serif" font-size="32.00">3</text>
</g>
<!-- 2&#45;&gt;3 -->
<g id="edge6" class="edge">
<title>2&#45;&gt;3</title>
<path fill="none" stroke="#000000" d="M1336.21,-515.22C1295.47,-498.22 1213.65,-459.9 1160.15,-407 1149.4,-396.37 1140.22,-382.59 1133.07,-369.87"/>
<polygon fill="#000000" stroke="#000000" points="1136.04,-368.02 1128.23,-360.86 1129.87,-371.33 1136.04,-368.02"/>
<text text-anchor="middle" x="1226.65" y="-539.4" font-family="Times,serif" font-size="32.00">ε_1</text>
<text text-anchor="middle" x="1226.65" y="-504.4" font-family="Times,serif" font-size="32.00">=&gt;2 =d 3</text>
</g>
<!-- v -->
<g id="node11" class="node">
<title>v</title>
<ellipse fill="none" stroke="black" cx="196.98" cy="-428" rx="27" ry="30.31"/>
<text text-anchor="middle" x="196.98" y="-419.9" font-family="Times,serif" font-size="32.00">v</text>
</g>
<!-- 3&#45;&gt;v -->
<g id="edge8" class="edge">
<title>3&#45;&gt;v</title>
<path fill="none" stroke="#000000" d="M1088.54,-328.75C1045.5,-320.39 955.82,-305 879.15,-305 879.15,-305 879.15,-305 401.07,-305 328.53,-305 259.75,-363.13 223.84,-399.46"/>
<polygon fill="#000000" stroke="#000000" points="221.13,-397.23 216.69,-406.86 226.16,-402.1 221.13,-397.23"/>
<text text-anchor="middle" x="636.15" y="-349.4" font-family="Times,serif" font-size="32.00">ε_2</text>
<text text-anchor="middle" x="636.15" y="-314.4" font-family="Times,serif" font-size="32.00">=&gt;3 v</text>
</g>
<!-- prog -->
<g id="node12" class="node">
<title>prog</title>
<ellipse fill="none" stroke="black" cx="878.15" cy="-389" rx="52.15" ry="30.31"/>
<text text-anchor="middle" x="878.15" y="-380.9" font-family="Times,serif" font-size="32.00">prog</text>
</g>
<!-- 3&#45;&gt;prog -->
<g id="edge9" class="edge">
<title>3&#45;&gt;prog</title>
<path fill="none" stroke="#000000" d="M1088.55,-339.99C1052.38,-348.46 985.32,-364.15 936.82,-375.5"/>
<polygon fill="#000000" stroke="#000000" points="936.01,-372.1 927.07,-377.78 937.61,-378.91 936.01,-372.1"/>
<text text-anchor="middle" x="1011.15" y="-416.4" font-family="Times,serif" font-size="32.00">ing</text>
<text text-anchor="middle" x="1011.15" y="-381.4" font-family="Times,serif" font-size="32.00">=&gt;3 prog</text>
</g>
<!-- perf -->
<g id="node13" class="node">
<title>perf</title>
<ellipse fill="none" stroke="black" cx="402.07" cy="-508" rx="48.17" ry="30.31"/>
<text text-anchor="middle" x="402.07" y="-499.9" font-family="Times,serif" font-size="32.00">perf</text>
</g>
<!-- 3&#45;&gt;perf -->
<g id="edge10" class="edge">
<title>3&#45;&gt;perf</title>
<path fill="none" stroke="#000000" d="M1110.65,-364.13C1105.98,-389.96 1095.15,-426.08 1070.15,-446 887.45,-591.6 580.8,-546.89 457.16,-520.88"/>
<polygon fill="#000000" stroke="#000000" points="457.69,-517.41 447.18,-518.73 456.22,-524.25 457.69,-517.41"/>
<text text-anchor="middle" x="748.15" y="-592.4" font-family="Times,serif" font-size="32.00">n</text>
<text text-anchor="middle" x="748.15" y="-557.4" font-family="Times,serif" font-size="32.00">=&gt;3 perf</text>
</g>
<!-- z2 -->
<g id="node10" class="node">
<title>z2</title>
<ellipse fill="none" stroke="black" stroke-dasharray="5,2" cx="1600.21" cy="-623" rx="27" ry="18"/>
</g>
<!-- z2&#45;&gt;2 -->
<g id="edge7" class="edge">
<title>z2&#45;&gt;2</title>
<path fill="none" stroke="#000000" d="M1573.12,-621.8C1532.19,-619.55 1455.07,-613.72 1430.97,-601 1412.22,-591.1 1396.15,-573.82 1384.35,-558.24"/>
<polygon fill="#000000" stroke="#000000" points="1386.95,-555.86 1378.25,-549.81 1381.28,-559.96 1386.95,-555.86"/>
<text text-anchor="middle" x="1489.97" y="-769.4" font-family="Times,serif" font-size="32.00">dance |</text>
<text text-anchor="middle" x="1489.97" y="-734.4" font-family="Times,serif" font-size="32.00"> laugh |</text>
<text text-anchor="middle" x="1489.97" y="-699.4" font-family="Times,serif" font-size="32.00"> smile |</text>
<text text-anchor="middle" x="1489.97" y="-664.4" font-family="Times,serif" font-size="32.00"> jump</text>
<text text-anchor="middle" x="1489.97" y="-629.4" font-family="Times,serif" font-size="32.00">2</text>
</g>
<!-- v&#45;&gt;1 -->
<g id="edge14" class="edge">
<title>v&#45;&gt;1</title>
<path fill="none" stroke="#000000" d="M172.73,-442.49C166.17,-446.22 158.93,-450.02 151.98,-453 119.55,-466.91 102.96,-453.25 75.98,-476 59.67,-489.76 48.56,-510.72 41.36,-529.17"/>
<polygon fill="#000000" stroke="#000000" points="37.98,-528.22 37.84,-538.81 44.56,-530.61 37.98,-528.22"/>
<text text-anchor="middle" x="113.98" y="-520.4" font-family="Times,serif" font-size="32.00">will</text>
<text text-anchor="middle" x="113.98" y="-485.4" font-family="Times,serif" font-size="32.00">=v 1</text>
</g>
<!-- v&#45;&gt;1 -->
<g id="edge22" class="edge">
<title>v&#45;&gt;1</title>
<path fill="none" stroke="#000000" d="M193.03,-458.2C188.7,-485.34 178.07,-524.2 151.98,-546 128.22,-565.86 92.63,-570.34 66.01,-570.46"/>
<polygon fill="#000000" stroke="#000000" points="65.99,-566.96 55.94,-570.31 65.88,-573.96 65.99,-566.96"/>
<text text-anchor="middle" x="113.98" y="-614.4" font-family="Times,serif" font-size="32.00">ε_6</text>
<text text-anchor="middle" x="113.98" y="-579.4" font-family="Times,serif" font-size="32.00">=&gt;v 1</text>
</g>
<!-- to -->
<g id="node21" class="node">
<title>to</title>
<ellipse fill="none" stroke="black" cx="28.99" cy="-382" rx="28.98" ry="30.31"/>
<text text-anchor="middle" x="28.99" y="-373.9" font-family="Times,serif" font-size="32.00">to</text>
</g>
<!-- v&#45;&gt;to -->
<g id="edge25" class="edge">
<title>v&#45;&gt;to</title>
<path fill="none" stroke="#000000" d="M179.34,-404.43C172.01,-396.03 162.64,-387.54 151.98,-383 125.55,-371.75 92.89,-372.14 68.01,-374.99"/>
<polygon fill="#000000" stroke="#000000" points="67.32,-371.55 57.87,-376.34 68.24,-378.49 67.32,-371.55"/>
<text text-anchor="middle" x="113.98" y="-427.4" font-family="Times,serif" font-size="32.00">to</text>
<text text-anchor="middle" x="113.98" y="-392.4" font-family="Times,serif" font-size="32.00">=v to</text>
</g>
<!-- 4 -->
<g id="node16" class="node">
<title>4</title>
<ellipse fill="none" stroke="black" cx="636.15" cy="-423" rx="27" ry="30.31"/>
<text text-anchor="middle" x="636.15" y="-414.9" font-family="Times,serif" font-size="32.00">4</text>
</g>
<!-- prog&#45;&gt;4 -->
<g id="edge15" class="edge">
<title>prog&#45;&gt;4</title>
<path fill="none" stroke="#000000" d="M827.13,-396.09C781.13,-402.6 714.04,-412.11 673.12,-417.9"/>
<polygon fill="#000000" stroke="#000000" points="672.47,-414.46 663.06,-419.33 673.45,-421.39 672.47,-414.46"/>
<text text-anchor="middle" x="748.15" y="-459.4" font-family="Times,serif" font-size="32.00">be</text>
<text text-anchor="middle" x="748.15" y="-424.4" font-family="Times,serif" font-size="32.00">=prog 4</text>
</g>
<!-- perf&#45;&gt;v -->
<g id="edge23" class="edge">
<title>perf&#45;&gt;v</title>
<path fill="none" stroke="#000000" d="M360.94,-492.19C323.33,-477.38 267.7,-455.46 232.15,-441.46"/>
<polygon fill="#000000" stroke="#000000" points="233.28,-438.14 222.69,-437.73 230.71,-444.65 233.28,-438.14"/>
<text text-anchor="middle" x="288.98" y="-526.4" font-family="Times,serif" font-size="32.00">have</text>
<text text-anchor="middle" x="288.98" y="-491.4" font-family="Times,serif" font-size="32.00">=perf v</text>
</g>
<!-- pass&#45;&gt;3 -->
<g id="edge18" class="edge">
<title>pass&#45;&gt;3</title>
<path fill="none" stroke="#000000" d="M1323.82,-300.13C1314.07,-304.67 1303.41,-309.03 1293.15,-312 1245.64,-325.76 1188.51,-330.92 1152.26,-332.85"/>
<polygon fill="#000000" stroke="#000000" points="1151.99,-329.35 1142.16,-333.33 1152.32,-336.35 1151.99,-329.35"/>
<text text-anchor="middle" x="1226.65" y="-377.4" font-family="Times,serif" font-size="32.00">be_1</text>
<text text-anchor="middle" x="1226.65" y="-342.4" font-family="Times,serif" font-size="32.00">=pass 3</text>
</g>
<!-- c2&#45;&gt;2 -->
<g id="edge13" class="edge">
<title>c2&#45;&gt;2</title>
<path fill="none" stroke="#000000" d="M1579.37,-845.93C1570.89,-837.12 1560.33,-827.88 1548.97,-822 1501.52,-797.44 1469.7,-835.82 1430.97,-799 1397.44,-767.12 1376.43,-633.22 1367.71,-565.13"/>
<polygon fill="#000000" stroke="#000000" points="1371.18,-564.67 1366.47,-555.19 1364.24,-565.54 1371.18,-564.67"/>
<text text-anchor="middle" x="1489.97" y="-971.4" font-family="Times,serif" font-size="32.00">declare |</text>
<text text-anchor="middle" x="1489.97" y="-936.4" font-family="Times,serif" font-size="32.00"> think |</text>
<text text-anchor="middle" x="1489.97" y="-901.4" font-family="Times,serif" font-size="32.00"> explain |</text>
<text text-anchor="middle" x="1489.97" y="-866.4" font-family="Times,serif" font-size="32.00"> say</text>
<text text-anchor="middle" x="1489.97" y="-831.4" font-family="Times,serif" font-size="32.00">=c2 2</text>
</g>
<!-- 4&#45;&gt;v -->
<g id="edge16" class="edge">
<title>4&#45;&gt;v</title>
<path fill="none" stroke="#000000" d="M610.65,-412.81C601.28,-409.37 590.38,-405.92 580.15,-404 481.33,-385.45 454.1,-389.77 353.98,-399 312.21,-402.85 264.93,-412.38 233.48,-419.47"/>
<polygon fill="#000000" stroke="#000000" points="232.42,-416.13 223.45,-421.77 233.98,-422.95 232.42,-416.13"/>
<text text-anchor="middle" x="402.07" y="-443.4" font-family="Times,serif" font-size="32.00">ε_3</text>
<text text-anchor="middle" x="402.07" y="-408.4" font-family="Times,serif" font-size="32.00">=&gt;4 v</text>
</g>
<!-- 4&#45;&gt;perf -->
<g id="edge17" class="edge">
<title>4&#45;&gt;perf</title>
<path fill="none" stroke="#000000" d="M609.84,-415.31C574.89,-406.3 511.28,-395.93 468.15,-424 451.81,-434.63 461.49,-448.15 450.15,-464 446.98,-468.44 443.3,-472.78 439.44,-476.9"/>
<polygon fill="#000000" stroke="#000000" points="436.89,-474.49 432.34,-484.06 441.86,-479.42 436.89,-474.49"/>
<text text-anchor="middle" x="524.15" y="-468.4" font-family="Times,serif" font-size="32.00">n_1</text>
<text text-anchor="middle" x="524.15" y="-433.4" font-family="Times,serif" font-size="32.00">=&gt;4 perf</text>
</g>
<!-- 5 -->
<g id="node17" class="node">
<title>5</title>
<ellipse fill="none" stroke="black" cx="1362.06" cy="-148" rx="27" ry="30.31"/>
<text text-anchor="middle" x="1362.06" y="-139.9" font-family="Times,serif" font-size="32.00">5</text>
</g>
<!-- 5&#45;&gt;3 -->
<g id="edge19" class="edge">
<title>5&#45;&gt;3</title>
<path fill="none" stroke="#000000" d="M1344.95,-171.8C1332.71,-187.87 1314.39,-208.08 1293.15,-219 1240.04,-246.3 1207.99,-202.27 1160.15,-238 1141.93,-251.61 1131.03,-274.57 1124.65,-294.62"/>
<polygon fill="#000000" stroke="#000000" points="1121.21,-293.9 1121.78,-304.48 1127.93,-295.85 1121.21,-293.9"/>
<text text-anchor="middle" x="1226.65" y="-282.4" font-family="Times,serif" font-size="32.00">ε_4</text>
<text text-anchor="middle" x="1226.65" y="-247.4" font-family="Times,serif" font-size="32.00">=&gt;5 =to 3</text>
</g>
<!-- 5&#45;&gt;3 -->
<g id="edge21" class="edge">
<title>5&#45;&gt;3</title>
<path fill="none" stroke="#000000" d="M1336.28,-138.62C1294.89,-124.74 1211.24,-104.44 1160.15,-145 1137.24,-163.19 1125.17,-243.66 1119.77,-293.56"/>
<polygon fill="#000000" stroke="#000000" points="1116.27,-293.4 1118.72,-303.7 1123.23,-294.12 1116.27,-293.4"/>
<text text-anchor="middle" x="1226.65" y="-189.4" font-family="Times,serif" font-size="32.00">ε_5</text>
<text text-anchor="middle" x="1226.65" y="-154.4" font-family="Times,serif" font-size="32.00">=&gt;5 =c1 3</text>
</g>
<!-- z3 -->
<g id="node18" class="node">
<title>z3</title>
<ellipse fill="none" stroke="black" stroke-dasharray="5,2" cx="1600.21" cy="-99" rx="27" ry="18"/>
</g>
<!-- z3&#45;&gt;5 -->
<g id="edge20" class="edge">
<title>z3&#45;&gt;5</title>
<path fill="none" stroke="#000000" d="M1573.7,-95.31C1540.11,-91.41 1479.61,-87.72 1430.97,-103 1417.1,-107.36 1403.42,-115.47 1392.01,-123.62"/>
<polygon fill="#000000" stroke="#000000" points="1389.67,-121 1383.77,-129.8 1393.87,-126.61 1389.67,-121"/>
<text text-anchor="middle" x="1489.97" y="-182.4" font-family="Times,serif" font-size="32.00">seem |</text>
<text text-anchor="middle" x="1489.97" y="-147.4" font-family="Times,serif" font-size="32.00"> appear</text>
<text text-anchor="middle" x="1489.97" y="-112.4" font-family="Times,serif" font-size="32.00">5</text>
</g>
<!-- z4 -->
<g id="node19" class="node">
<title>z4</title>
<ellipse fill="none" stroke="black" stroke-dasharray="5,2" cx="2141.44" cy="-491" rx="27" ry="18"/>
</g>
<!-- e -->
<g id="node20" class="node">
<title>e</title>
<ellipse fill="none" stroke="black" cx="1988.44" cy="-491" rx="27" ry="30.31"/>
<text text-anchor="middle" x="1988.44" y="-482.9" font-family="Times,serif" font-size="32.00">e</text>
</g>
<!-- z4&#45;&gt;e -->
<g id="edge24" class="edge">
<title>z4&#45;&gt;e</title>
<path fill="none" stroke="#000000" d="M2114.14,-491C2089.67,-491 2052.99,-491 2025.74,-491"/>
<polygon fill="#000000" stroke="#000000" points="2025.44,-487.5 2015.44,-491 2025.44,-494.5 2025.44,-487.5"/>
<text text-anchor="middle" x="2064.94" y="-535.4" font-family="Times,serif" font-size="32.00">it</text>
<text text-anchor="middle" x="2064.94" y="-500.4" font-family="Times,serif" font-size="32.00">e &#45;k</text>
</g>
</g>
</svg>
