<?xml version="1.0" encoding="UTF-8" standalone="no"?>
<!DOCTYPE svg PUBLIC "-//W3C//DTD SVG 1.1//EN"
 "http://www.w3.org/Graphics/SVG/1.1/DTD/svg11.dtd">
<!-- Generated by graphviz version 2.47.1 (20210417.1919)
 -->
<!-- Title: G Pages: 1 -->
<svg width="2216pt" height="1079pt"
 viewBox="0.00 0.00 2216.44 1079.15" xmlns="http://www.w3.org/2000/svg" xmlns:xlink="http://www.w3.org/1999/xlink">
<g id="graph0" class="graph" transform="scale(1 1) rotate(0) translate(4 1075.15)">
<title>G</title>
<polygon fill="white" stroke="transparent" points="-4,4 -4,-1075.15 2212.44,-1075.15 2212.44,4 -4,4"/>
<text text-anchor="middle" x="1104.22" y="-13.4" font-family="Times,serif" font-size="32.00">single contraction: 5 → 4</text>
<!-- t -->
<g id="node1" class="node">
<title>t</title>
<ellipse fill="lightgray" stroke="black" cx="1847.44" cy="-806.15" rx="27" ry="30.31"/>
<text text-anchor="middle" x="1847.44" y="-798.05" font-family="Times,serif" font-size="32.00">t</text>
</g>
<!-- c2 -->
<g id="node17" class="node">
<title>c2</title>
<ellipse fill="none" stroke="black" cx="1640.21" cy="-799.15" rx="33.47" ry="30.31"/>
<text text-anchor="middle" x="1640.21" y="-791.05" font-family="Times,serif" font-size="32.00">c2</text>
</g>
<!-- t&#45;&gt;c2 -->
<g id="edge29" class="edge">
<title>t&#45;&gt;c2</title>
<path fill="none" stroke="#000000" d="M1820.45,-805.26C1786.04,-804.09 1724.94,-802 1683.76,-800.6"/>
<polygon fill="#000000" stroke="#000000" points="1683.86,-797.1 1673.74,-800.26 1683.62,-804.1 1683.86,-797.1"/>
<text text-anchor="middle" x="1746.94" y="-848.55" font-family="Times,serif" font-size="32.00">that_1</text>
<text text-anchor="middle" x="1746.94" y="-813.55" font-family="Times,serif" font-size="32.00">=t c2</text>
</g>
<!-- c1 -->
<g id="node24" class="node">
<title>c1</title>
<ellipse fill="none" stroke="black" cx="1640.21" cy="-713.15" rx="33.47" ry="30.31"/>
<text text-anchor="middle" x="1640.21" y="-705.05" font-family="Times,serif" font-size="32.00">c1</text>
</g>
<!-- t&#45;&gt;c1 -->
<g id="edge28" class="edge">
<title>t&#45;&gt;c1</title>
<path fill="none" stroke="#000000" d="M1838.29,-777.22C1831.66,-759.38 1820.41,-737.77 1802.44,-726.15 1767.18,-703.34 1718.1,-702.74 1683.38,-706.19"/>
<polygon fill="#000000" stroke="#000000" points="1682.63,-702.75 1673.09,-707.37 1683.43,-709.7 1682.63,-702.75"/>
<text text-anchor="middle" x="1746.94" y="-770.55" font-family="Times,serif" font-size="32.00">that</text>
<text text-anchor="middle" x="1746.94" y="-735.55" font-family="Times,serif" font-size="32.00">=t =e c1</text>
</g>
<!-- 0 -->
<g id="node2" class="node">
<title>0</title>
<ellipse fill="none" stroke="black" cx="1847.44" cy="-229.15" rx="27" ry="30.31"/>
<text text-anchor="middle" x="1847.44" y="-221.05" font-family="Times,serif" font-size="32.00">0</text>
</g>
<!-- d -->
<g id="node3" class="node">
<title>d</title>
<ellipse fill="none" stroke="black" cx="1640.21" cy="-229.15" rx="27" ry="30.31"/>
<text text-anchor="middle" x="1640.21" y="-221.05" font-family="Times,serif" font-size="32.00">d</text>
</g>
<!-- 0&#45;&gt;d -->
<g id="edge1" class="edge">
<title>0&#45;&gt;d</title>
<path fill="none" stroke="#000000" d="M1820.03,-229.15C1783.78,-229.15 1718.46,-229.15 1677.6,-229.15"/>
<polygon fill="#000000" stroke="#000000" points="1677.52,-225.65 1667.52,-229.15 1677.52,-232.65 1677.52,-225.65"/>
<text text-anchor="middle" x="1746.94" y="-273.55" font-family="Times,serif" font-size="32.00">ε_0</text>
<text text-anchor="middle" x="1746.94" y="-238.55" font-family="Times,serif" font-size="32.00">=&gt;0 d &#45;k</text>
</g>
<!-- pass -->
<g id="node16" class="node">
<title>pass</title>
<ellipse fill="none" stroke="black" cx="1362.06" cy="-392.15" rx="50.82" ry="30.31"/>
<text text-anchor="middle" x="1362.06" y="-384.05" font-family="Times,serif" font-size="32.00">pass</text>
</g>
<!-- d&#45;&gt;pass -->
<g id="edge14" class="edge">
<title>d&#45;&gt;pass</title>
<path fill="none" stroke="#000000" d="M1613.85,-221.7C1571.83,-210.99 1486.85,-196.38 1430.97,-234.15 1420.46,-241.26 1393.95,-308.62 1377.34,-353.06"/>
<polygon fill="#000000" stroke="#000000" points="1374.05,-351.85 1373.85,-362.44 1380.62,-354.29 1374.05,-351.85"/>
<text text-anchor="middle" x="1509.97" y="-348.55" font-family="Times,serif" font-size="32.00">liken |</text>
<text text-anchor="middle" x="1509.97" y="-313.55" font-family="Times,serif" font-size="32.00"> kissn |</text>
<text text-anchor="middle" x="1509.97" y="-278.55" font-family="Times,serif" font-size="32.00"> hugn</text>
<text text-anchor="middle" x="1509.97" y="-243.55" font-family="Times,serif" font-size="32.00">=d pass</text>
</g>
<!-- z0 -->
<g id="node4" class="node">
<title>z0</title>
<ellipse fill="none" stroke="black" stroke-dasharray="5,2" cx="2028.44" cy="-328.15" rx="27" ry="18"/>
</g>
<!-- z0&#45;&gt;0 -->
<g id="edge2" class="edge">
<title>z0&#45;&gt;0</title>
<path fill="none" stroke="#000000" d="M2001.39,-330.23C1972.26,-331.21 1924.93,-328.69 1892.44,-306.15 1878.74,-296.64 1868.76,-281.4 1861.8,-266.98"/>
<polygon fill="#000000" stroke="#000000" points="1864.93,-265.4 1857.66,-257.69 1858.53,-268.25 1864.93,-265.4"/>
<text text-anchor="middle" x="1937.94" y="-479.55" font-family="Times,serif" font-size="32.00">Mary |</text>
<text text-anchor="middle" x="1937.94" y="-444.55" font-family="Times,serif" font-size="32.00"> John |</text>
<text text-anchor="middle" x="1937.94" y="-409.55" font-family="Times,serif" font-size="32.00"> Alice |</text>
<text text-anchor="middle" x="1937.94" y="-374.55" font-family="Times,serif" font-size="32.00"> Bob</text>
<text text-anchor="middle" x="1937.94" y="-339.55" font-family="Times,serif" font-size="32.00">0</text>
</g>
<!-- n -->
<g id="node5" class="node">
<title>n</title>
<ellipse fill="none" stroke="black" cx="2028.44" cy="-130.15" rx="27" ry="30.31"/>
<text text-anchor="middle" x="2028.44" y="-122.05" font-family="Times,serif" font-size="32.00">n</text>
</g>
<!-- n&#45;&gt;0 -->
<g id="edge3" class="edge">
<title>n&#45;&gt;0</title>
<path fill="none" stroke="#000000" d="M2002.47,-121.73C1973.49,-113.61 1925.44,-105.44 1892.44,-127.15 1871.62,-140.84 1860.61,-166.7 1854.81,-188.95"/>
<polygon fill="#000000" stroke="#000000" points="1851.36,-188.33 1852.49,-198.86 1858.18,-189.92 1851.36,-188.33"/>
<text text-anchor="middle" x="1937.94" y="-276.55" font-family="Times,serif" font-size="32.00">this |</text>
<text text-anchor="middle" x="1937.94" y="-241.55" font-family="Times,serif" font-size="32.00"> a |</text>
<text text-anchor="middle" x="1937.94" y="-206.55" font-family="Times,serif" font-size="32.00"> the |</text>
<text text-anchor="middle" x="1937.94" y="-171.55" font-family="Times,serif" font-size="32.00"> some</text>
<text text-anchor="middle" x="1937.94" y="-136.55" font-family="Times,serif" font-size="32.00">=n 0</text>
</g>
<!-- z1 -->
<g id="node6" class="node">
<title>z1</title>
<ellipse fill="none" stroke="black" stroke-dasharray="5,2" cx="2181.44" cy="-130.15" rx="27" ry="18"/>
</g>
<!-- z1&#45;&gt;n -->
<g id="edge4" class="edge">
<title>z1&#45;&gt;n</title>
<path fill="none" stroke="#000000" d="M2154.14,-130.15C2129.67,-130.15 2092.99,-130.15 2065.74,-130.15"/>
<polygon fill="#000000" stroke="#000000" points="2065.44,-126.65 2055.44,-130.15 2065.44,-133.65 2065.44,-126.65"/>
<text text-anchor="middle" x="2104.94" y="-209.55" font-family="Times,serif" font-size="32.00">boy |</text>
<text text-anchor="middle" x="2104.94" y="-174.55" font-family="Times,serif" font-size="32.00"> girl</text>
<text text-anchor="middle" x="2104.94" y="-139.55" font-family="Times,serif" font-size="32.00">n</text>
</g>
<!-- 1 -->
<g id="node7" class="node">
<title>1</title>
<ellipse fill="none" stroke="black" cx="28.99" cy="-665.15" rx="27" ry="30.31"/>
<text text-anchor="middle" x="28.99" y="-657.05" font-family="Times,serif" font-size="32.00">1</text>
</g>
<!-- 1&#45;&gt;t -->
<g id="edge5" class="edge">
<title>1&#45;&gt;t</title>
<path fill="none" stroke="#000000" d="M32.47,-695.39C40.56,-771.72 73.2,-966.15 195.98,-966.15 1641.21,-966.15 1641.21,-966.15 1641.21,-966.15 1722.84,-966.15 1743.32,-934.44 1802.44,-878.15 1813.2,-867.91 1822.34,-854.48 1829.45,-842"/>
<polygon fill="#000000" stroke="#000000" points="1832.56,-843.6 1834.27,-833.14 1826.41,-840.26 1832.56,-843.6"/>
<text text-anchor="middle" x="878.15" y="-1045.55" font-family="Times,serif" font-size="32.00">s |</text>
<text text-anchor="middle" x="878.15" y="-1010.55" font-family="Times,serif" font-size="32.00"> d</text>
<text text-anchor="middle" x="878.15" y="-975.55" font-family="Times,serif" font-size="32.00">=&gt;1 +k t</text>
</g>
<!-- 2 -->
<g id="node8" class="node">
<title>2</title>
<ellipse fill="none" stroke="black" cx="1362.06" cy="-532.15" rx="27" ry="30.31"/>
<text text-anchor="middle" x="1362.06" y="-524.05" font-family="Times,serif" font-size="32.00">2</text>
</g>
<!-- 3 -->
<g id="node9" class="node">
<title>3</title>
<ellipse fill="none" stroke="black" cx="1115.15" cy="-404.15" rx="27" ry="30.31"/>
<text text-anchor="middle" x="1115.15" y="-396.05" font-family="Times,serif" font-size="32.00">3</text>
</g>
<!-- 2&#45;&gt;3 -->
<g id="edge6" class="edge">
<title>2&#45;&gt;3</title>
<path fill="none" stroke="#000000" d="M1334.96,-530.69C1293.9,-527.19 1213.41,-515.32 1160.15,-475.15 1148.32,-466.22 1138.92,-453.11 1131.9,-440.57"/>
<polygon fill="#000000" stroke="#000000" points="1134.95,-438.85 1127.21,-431.62 1128.75,-442.1 1134.95,-438.85"/>
<text text-anchor="middle" x="1226.65" y="-568.55" font-family="Times,serif" font-size="32.00">ε_1</text>
<text text-anchor="middle" x="1226.65" y="-533.55" font-family="Times,serif" font-size="32.00">=&gt;2 =d 3</text>
</g>
<!-- v -->
<g id="node11" class="node">
<title>v</title>
<ellipse fill="none" stroke="black" cx="196.98" cy="-525.15" rx="27" ry="30.31"/>
<text text-anchor="middle" x="196.98" y="-517.05" font-family="Times,serif" font-size="32.00">v</text>
</g>
<!-- 3&#45;&gt;v -->
<g id="edge8" class="edge">
<title>3&#45;&gt;v</title>
<path fill="none" stroke="#000000" d="M1107.26,-433.57C1100.88,-454.88 1089.41,-483.03 1070.15,-501.15 1003.97,-563.43 970.03,-574.15 879.15,-574.15 879.15,-574.15 879.15,-574.15 401.07,-574.15 340.21,-574.15 271.89,-553.1 232.03,-538.59"/>
<polygon fill="#000000" stroke="#000000" points="233.13,-535.27 222.53,-535.06 230.69,-541.83 233.13,-535.27"/>
<text text-anchor="middle" x="636.15" y="-618.55" font-family="Times,serif" font-size="32.00">ε_2</text>
<text text-anchor="middle" x="636.15" y="-583.55" font-family="Times,serif" font-size="32.00">=&gt;3 v</text>
</g>
<!-- prog -->
<g id="node12" class="node">
<title>prog</title>
<ellipse fill="none" stroke="black" cx="878.15" cy="-439.15" rx="52.15" ry="30.31"/>
<text text-anchor="middle" x="878.15" y="-431.05" font-family="Times,serif" font-size="32.00">prog</text>
</g>
<!-- 3&#45;&gt;prog -->
<g id="edge9" class="edge">
<title>3&#45;&gt;prog</title>
<path fill="none" stroke="#000000" d="M1088.1,-408.03C1052.4,-413.34 987.22,-423.05 939.12,-430.22"/>
<polygon fill="#000000" stroke="#000000" points="938.51,-426.77 929.13,-431.7 939.54,-433.69 938.51,-426.77"/>
<text text-anchor="middle" x="1011.15" y="-471.55" font-family="Times,serif" font-size="32.00">ing</text>
<text text-anchor="middle" x="1011.15" y="-436.55" font-family="Times,serif" font-size="32.00">=&gt;3 prog</text>
</g>
<!-- perf -->
<g id="node13" class="node">
<title>perf</title>
<ellipse fill="none" stroke="black" cx="402.07" cy="-391.15" rx="48.17" ry="30.31"/>
<text text-anchor="middle" x="402.07" y="-383.05" font-family="Times,serif" font-size="32.00">perf</text>
</g>
<!-- 3&#45;&gt;perf -->
<g id="edge10" class="edge">
<title>3&#45;&gt;perf</title>
<path fill="none" stroke="#000000" d="M1088.43,-399.37C1000.98,-383.86 707.26,-337.97 468.15,-373.15 463.97,-373.76 459.69,-374.56 455.4,-375.48"/>
<polygon fill="#000000" stroke="#000000" points="454.39,-372.12 445.45,-377.8 455.99,-378.93 454.39,-372.12"/>
<text text-anchor="middle" x="748.15" y="-408.55" font-family="Times,serif" font-size="32.00">n</text>
<text text-anchor="middle" x="748.15" y="-373.55" font-family="Times,serif" font-size="32.00">=&gt;3 perf</text>
</g>
<!-- z2 -->
<g id="node10" class="node">
<title>z2</title>
<ellipse fill="none" stroke="black" stroke-dasharray="5,2" cx="1640.21" cy="-578.15" rx="27" ry="18"/>
</g>
<!-- z2&#45;&gt;2 -->
<g id="edge7" class="edge">
<title>z2&#45;&gt;2</title>
<path fill="none" stroke="#000000" d="M1612.92,-577.34C1573.1,-575.68 1495.33,-570.71 1430.97,-556.15 1419.77,-553.61 1407.86,-549.81 1397.19,-545.97"/>
<polygon fill="#000000" stroke="#000000" points="1398.4,-542.68 1387.8,-542.47 1395.95,-549.24 1398.4,-542.68"/>
<text text-anchor="middle" x="1509.97" y="-724.55" font-family="Times,serif" font-size="32.00">dance |</text>
<text text-anchor="middle" x="1509.97" y="-689.55" font-family="Times,serif" font-size="32.00"> laugh |</text>
<text text-anchor="middle" x="1509.97" y="-654.55" font-family="Times,serif" font-size="32.00"> smile |</text>
<text text-anchor="middle" x="1509.97" y="-619.55" font-family="Times,serif" font-size="32.00"> jump</text>
<text text-anchor="middle" x="1509.97" y="-584.55" font-family="Times,serif" font-size="32.00">2</text>
</g>
<!-- v&#45;&gt;1 -->
<g id="edge16" class="edge">
<title>v&#45;&gt;1</title>
<path fill="none" stroke="#000000" d="M172.73,-539.64C166.17,-543.37 158.93,-547.17 151.98,-550.15 119.55,-564.06 102.96,-550.4 75.98,-573.15 59.67,-586.91 48.56,-607.87 41.36,-626.31"/>
<polygon fill="#000000" stroke="#000000" points="37.98,-625.36 37.84,-635.96 44.56,-627.76 37.98,-625.36"/>
<text text-anchor="middle" x="113.98" y="-617.55" font-family="Times,serif" font-size="32.00">will</text>
<text text-anchor="middle" x="113.98" y="-582.55" font-family="Times,serif" font-size="32.00">=v 1</text>
</g>
<!-- v&#45;&gt;1 -->
<g id="edge24" class="edge">
<title>v&#45;&gt;1</title>
<path fill="none" stroke="#000000" d="M193.03,-555.35C188.7,-582.49 178.07,-621.35 151.98,-643.15 128.22,-663.01 92.63,-667.49 66.01,-667.61"/>
<polygon fill="#000000" stroke="#000000" points="65.99,-664.11 55.94,-667.45 65.88,-671.11 65.99,-664.11"/>
<text text-anchor="middle" x="113.98" y="-711.55" font-family="Times,serif" font-size="32.00">ε_7</text>
<text text-anchor="middle" x="113.98" y="-676.55" font-family="Times,serif" font-size="32.00">=&gt;v 1</text>
</g>
<!-- to -->
<g id="node23" class="node">
<title>to</title>
<ellipse fill="none" stroke="black" cx="28.99" cy="-479.15" rx="28.98" ry="30.31"/>
<text text-anchor="middle" x="28.99" y="-471.05" font-family="Times,serif" font-size="32.00">to</text>
</g>
<!-- v&#45;&gt;to -->
<g id="edge27" class="edge">
<title>v&#45;&gt;to</title>
<path fill="none" stroke="#000000" d="M179.34,-501.58C172.01,-493.18 162.64,-484.68 151.98,-480.15 125.55,-468.9 92.89,-469.29 68.01,-472.14"/>
<polygon fill="#000000" stroke="#000000" points="67.32,-468.7 57.87,-473.49 68.24,-475.64 67.32,-468.7"/>
<text text-anchor="middle" x="113.98" y="-524.55" font-family="Times,serif" font-size="32.00">to</text>
<text text-anchor="middle" x="113.98" y="-489.55" font-family="Times,serif" font-size="32.00">=v to</text>
</g>
<!-- 5 -->
<g id="node18" class="node">
<title>5</title>
<ellipse fill="none" stroke="black" cx="636.15" cy="-451.15" rx="27" ry="30.31"/>
<text text-anchor="middle" x="636.15" y="-443.05" font-family="Times,serif" font-size="32.00">5</text>
</g>
<!-- prog&#45;&gt;5 -->
<g id="edge17" class="edge">
<title>prog&#45;&gt;5</title>
<path fill="none" stroke="#000000" d="M825.96,-441.71C780.11,-444 714.03,-447.3 673.43,-449.33"/>
<polygon fill="#000000" stroke="#000000" points="673.25,-445.84 663.44,-449.83 673.6,-452.83 673.25,-445.84"/>
<text text-anchor="middle" x="748.15" y="-492.55" font-family="Times,serif" font-size="32.00">be</text>
<text text-anchor="middle" x="748.15" y="-457.55" font-family="Times,serif" font-size="32.00">=prog 5</text>
</g>
<!-- perf&#45;&gt;v -->
<g id="edge25" class="edge">
<title>perf&#45;&gt;v</title>
<path fill="none" stroke="#000000" d="M358.02,-378.77C323.37,-371.55 275.15,-368.02 241.98,-392.15 213.09,-413.16 202.87,-453.85 199.4,-484.72"/>
<polygon fill="#000000" stroke="#000000" points="195.91,-484.48 198.47,-494.76 202.88,-485.13 195.91,-484.48"/>
<text text-anchor="middle" x="288.98" y="-436.55" font-family="Times,serif" font-size="32.00">have</text>
<text text-anchor="middle" x="288.98" y="-401.55" font-family="Times,serif" font-size="32.00">=perf v</text>
</g>
<!-- 4 -->
<g id="node14" class="node">
<title>4</title>
<ellipse fill="none" stroke="black" cx="1640.21" cy="-469.15" rx="27" ry="30.31"/>
<text text-anchor="middle" x="1640.21" y="-461.05" font-family="Times,serif" font-size="32.00">4</text>
</g>
<!-- 4&#45;&gt;2 -->
<g id="edge11" class="edge">
<title>4&#45;&gt;2</title>
<path fill="none" stroke="#000000" d="M1613.26,-466.19C1572.91,-462.6 1493.27,-459.51 1430.97,-482.15 1416.47,-487.42 1402.39,-496.83 1390.85,-506.07"/>
<polygon fill="#000000" stroke="#000000" points="1388.35,-503.61 1382.93,-512.71 1392.84,-508.97 1388.35,-503.61"/>
<text text-anchor="middle" x="1509.97" y="-526.55" font-family="Times,serif" font-size="32.00">ε_3</text>
<text text-anchor="middle" x="1509.97" y="-491.55" font-family="Times,serif" font-size="32.00">=&gt;4 =d *k 2</text>
</g>
<!-- 4&#45;&gt;pass -->
<g id="edge13" class="edge">
<title>4&#45;&gt;pass</title>
<path fill="none" stroke="#000000" d="M1629.65,-440.81C1621.83,-422.49 1608.78,-400.1 1588.97,-389.15 1561.37,-373.88 1479.27,-378.99 1422.05,-384.89"/>
<polygon fill="#000000" stroke="#000000" points="1421.61,-381.41 1412.03,-385.95 1422.35,-388.37 1421.61,-381.41"/>
<text text-anchor="middle" x="1509.97" y="-433.55" font-family="Times,serif" font-size="32.00">n_1</text>
<text text-anchor="middle" x="1509.97" y="-398.55" font-family="Times,serif" font-size="32.00">=&gt;4 =d pass</text>
</g>
<!-- z3 -->
<g id="node15" class="node">
<title>z3</title>
<ellipse fill="none" stroke="black" stroke-dasharray="5,2" cx="1847.44" cy="-469.15" rx="27" ry="18"/>
</g>
<!-- z3&#45;&gt;4 -->
<g id="edge12" class="edge">
<title>z3&#45;&gt;4</title>
<path fill="none" stroke="#000000" d="M1820.03,-469.15C1783.78,-469.15 1718.46,-469.15 1677.6,-469.15"/>
<polygon fill="#000000" stroke="#000000" points="1677.52,-465.65 1667.52,-469.15 1677.52,-472.65 1677.52,-465.65"/>
<text text-anchor="middle" x="1746.94" y="-618.55" font-family="Times,serif" font-size="32.00">praise |</text>
<text text-anchor="middle" x="1746.94" y="-583.55" font-family="Times,serif" font-size="32.00"> like |</text>
<text text-anchor="middle" x="1746.94" y="-548.55" font-family="Times,serif" font-size="32.00"> kiss |</text>
<text text-anchor="middle" x="1746.94" y="-513.55" font-family="Times,serif" font-size="32.00"> hug</text>
<text text-anchor="middle" x="1746.94" y="-478.55" font-family="Times,serif" font-size="32.00">4</text>
</g>
<!-- pass&#45;&gt;3 -->
<g id="edge20" class="edge">
<title>pass&#45;&gt;3</title>
<path fill="none" stroke="#000000" d="M1311.2,-394.59C1264.01,-396.9 1194.31,-400.32 1152.26,-402.38"/>
<polygon fill="#000000" stroke="#000000" points="1152.02,-398.89 1142.2,-402.87 1152.36,-405.88 1152.02,-398.89"/>
<text text-anchor="middle" x="1226.65" y="-445.55" font-family="Times,serif" font-size="32.00">be_1</text>
<text text-anchor="middle" x="1226.65" y="-410.55" font-family="Times,serif" font-size="32.00">=pass 3</text>
</g>
<!-- c2&#45;&gt;2 -->
<g id="edge15" class="edge">
<title>c2&#45;&gt;2</title>
<path fill="none" stroke="#000000" d="M1610.48,-784.99C1603.56,-782.03 1596.11,-779.19 1588.97,-777.15 1520.75,-757.63 1484.82,-800.36 1430.97,-754.15 1378.15,-708.81 1365.69,-623.6 1363.17,-572.95"/>
<polygon fill="#000000" stroke="#000000" points="1366.66,-572.56 1362.78,-562.7 1359.67,-572.83 1366.66,-572.56"/>
<text text-anchor="middle" x="1509.97" y="-926.55" font-family="Times,serif" font-size="32.00">declare |</text>
<text text-anchor="middle" x="1509.97" y="-891.55" font-family="Times,serif" font-size="32.00"> think |</text>
<text text-anchor="middle" x="1509.97" y="-856.55" font-family="Times,serif" font-size="32.00"> explain |</text>
<text text-anchor="middle" x="1509.97" y="-821.55" font-family="Times,serif" font-size="32.00"> say</text>
<text text-anchor="middle" x="1509.97" y="-786.55" font-family="Times,serif" font-size="32.00">=c2 2</text>
</g>
<!-- 5&#45;&gt;v -->
<g id="edge18" class="edge">
<title>5&#45;&gt;v</title>
<path fill="none" stroke="#000000" d="M609.48,-456.69C600.26,-458.57 589.76,-460.59 580.15,-462.15 480.16,-478.31 453.78,-472.82 353.98,-490.15 312.34,-497.38 265.04,-508.39 233.54,-516.13"/>
<polygon fill="#000000" stroke="#000000" points="232.37,-512.82 223.5,-518.62 234.05,-519.61 232.37,-512.82"/>
<text text-anchor="middle" x="402.07" y="-534.55" font-family="Times,serif" font-size="32.00">ε_4</text>
<text text-anchor="middle" x="402.07" y="-499.55" font-family="Times,serif" font-size="32.00">=&gt;5 v</text>
</g>
<!-- 5&#45;&gt;perf -->
<g id="edge19" class="edge">
<title>5&#45;&gt;perf</title>
<path fill="none" stroke="#000000" d="M619.74,-426.74C610.1,-413.86 596.44,-399.29 580.15,-392.15 541.96,-375.41 494.54,-376.13 458.38,-380.5"/>
<polygon fill="#000000" stroke="#000000" points="457.47,-377.09 448.02,-381.89 458.4,-384.03 457.47,-377.09"/>
<text text-anchor="middle" x="524.15" y="-436.55" font-family="Times,serif" font-size="32.00">n_2</text>
<text text-anchor="middle" x="524.15" y="-401.55" font-family="Times,serif" font-size="32.00">=&gt;5 perf</text>
</g>
<!-- 6 -->
<g id="node19" class="node">
<title>6</title>
<ellipse fill="none" stroke="black" cx="1362.06" cy="-218.15" rx="27" ry="30.31"/>
<text text-anchor="middle" x="1362.06" y="-210.05" font-family="Times,serif" font-size="32.00">6</text>
</g>
<!-- 6&#45;&gt;3 -->
<g id="edge21" class="edge">
<title>6&#45;&gt;3</title>
<path fill="none" stroke="#000000" d="M1344.35,-241.68C1331.96,-257.41 1313.7,-277.33 1293.15,-289.15 1240.44,-319.46 1208.19,-283.88 1160.15,-321.15 1145.64,-332.41 1135.38,-349.82 1128.44,-365.8"/>
<polygon fill="#000000" stroke="#000000" points="1125.02,-364.91 1124.54,-375.49 1131.52,-367.52 1125.02,-364.91"/>
<text text-anchor="middle" x="1226.65" y="-365.55" font-family="Times,serif" font-size="32.00">ε_5</text>
<text text-anchor="middle" x="1226.65" y="-330.55" font-family="Times,serif" font-size="32.00">=&gt;6 =to 3</text>
</g>
<!-- 6&#45;&gt;3 -->
<g id="edge23" class="edge">
<title>6&#45;&gt;3</title>
<path fill="none" stroke="#000000" d="M1336.28,-208.77C1294.89,-194.88 1211.24,-174.59 1160.15,-215.15 1137.24,-233.34 1125.17,-313.81 1119.77,-363.7"/>
<polygon fill="#000000" stroke="#000000" points="1116.27,-363.54 1118.72,-373.85 1123.23,-364.27 1116.27,-363.54"/>
<text text-anchor="middle" x="1226.65" y="-259.55" font-family="Times,serif" font-size="32.00">ε_6</text>
<text text-anchor="middle" x="1226.65" y="-224.55" font-family="Times,serif" font-size="32.00">=&gt;6 =c1 3</text>
</g>
<!-- z4 -->
<g id="node20" class="node">
<title>z4</title>
<ellipse fill="none" stroke="black" stroke-dasharray="5,2" cx="1640.21" cy="-101.15" rx="27" ry="18"/>
</g>
<!-- z4&#45;&gt;6 -->
<g id="edge22" class="edge">
<title>z4&#45;&gt;6</title>
<path fill="none" stroke="#000000" d="M1615.07,-94.05C1574.11,-83.49 1489.7,-68.29 1430.97,-102.15 1402.16,-118.76 1384.38,-152.82 1374.28,-179.76"/>
<polygon fill="#000000" stroke="#000000" points="1370.94,-178.72 1370.9,-189.31 1377.54,-181.05 1370.94,-178.72"/>
<text text-anchor="middle" x="1509.97" y="-181.55" font-family="Times,serif" font-size="32.00">seem |</text>
<text text-anchor="middle" x="1509.97" y="-146.55" font-family="Times,serif" font-size="32.00"> appear</text>
<text text-anchor="middle" x="1509.97" y="-111.55" font-family="Times,serif" font-size="32.00">6</text>
</g>
<!-- z5 -->
<g id="node21" class="node">
<title>z5</title>
<ellipse fill="none" stroke="black" stroke-dasharray="5,2" cx="2181.44" cy="-394.15" rx="27" ry="18"/>
</g>
<!-- e -->
<g id="node22" class="node">
<title>e</title>
<ellipse fill="none" stroke="black" cx="2028.44" cy="-394.15" rx="27" ry="30.31"/>
<text text-anchor="middle" x="2028.44" y="-386.05" font-family="Times,serif" font-size="32.00">e</text>
</g>
<!-- z5&#45;&gt;e -->
<g id="edge26" class="edge">
<title>z5&#45;&gt;e</title>
<path fill="none" stroke="#000000" d="M2154.14,-394.15C2129.67,-394.15 2092.99,-394.15 2065.74,-394.15"/>
<polygon fill="#000000" stroke="#000000" points="2065.44,-390.65 2055.44,-394.15 2065.44,-397.65 2065.44,-390.65"/>
<text text-anchor="middle" x="2104.94" y="-438.55" font-family="Times,serif" font-size="32.00">it</text>
<text text-anchor="middle" x="2104.94" y="-403.55" font-family="Times,serif" font-size="32.00">e &#45;k</text>
</g>
</g>
</svg>
