<?xml version="1.0" encoding="UTF-8" standalone="no"?>
<!DOCTYPE svg PUBLIC "-//W3C//DTD SVG 1.1//EN"
 "http://www.w3.org/Graphics/SVG/1.1/DTD/svg11.dtd">
<!-- Generated by graphviz version 2.47.1 (20210417.1919)
 -->
<!-- Title: G Pages: 1 -->
<svg width="2822pt" height="1982pt"
 viewBox="0.00 0.00 2822.48 1982.00" xmlns="http://www.w3.org/2000/svg" xmlns:xlink="http://www.w3.org/1999/xlink">
<g id="graph0" class="graph" transform="scale(1 1) rotate(0) translate(4 1978)">
<title>G</title>
<polygon fill="white" stroke="transparent" points="-4,4 -4,-1978 2818.48,-1978 2818.48,4 -4,4"/>
<text text-anchor="middle" x="1407.24" y="-13.4" font-family="Times,serif" font-size="32.00">single contraction: 1 → 0</text>
<!-- t -->
<g id="node1" class="node">
<title>t</title>
<ellipse fill="lightgray" stroke="black" cx="1929.65" cy="-379" rx="27" ry="30.31"/>
<text text-anchor="middle" x="1929.65" y="-370.9" font-family="Times,serif" font-size="32.00">t</text>
</g>
<!-- c2 -->
<g id="node12" class="node">
<title>c2</title>
<ellipse fill="none" stroke="black" cx="1592.65" cy="-655" rx="33.47" ry="30.31"/>
<text text-anchor="middle" x="1592.65" y="-646.9" font-family="Times,serif" font-size="32.00">c2</text>
</g>
<!-- t&#45;&gt;c2 -->
<g id="edge39" class="edge">
<title>t&#45;&gt;c2</title>
<path fill="none" stroke="#000000" d="M1909.45,-399.38C1896.51,-412.9 1878.9,-430.86 1862.65,-446 1780.09,-522.94 1761.76,-545.79 1669.65,-611 1657.44,-619.65 1643.41,-628.13 1630.76,-635.31"/>
<polygon fill="#000000" stroke="#000000" points="1628.87,-632.36 1621.84,-640.29 1632.28,-638.47 1628.87,-632.36"/>
<text text-anchor="middle" x="1775.15" y="-641.4" font-family="Times,serif" font-size="32.00">that_1</text>
<text text-anchor="middle" x="1775.15" y="-606.4" font-family="Times,serif" font-size="32.00">=t c2</text>
</g>
<!-- c1 -->
<g id="node14" class="node">
<title>c1</title>
<ellipse fill="none" stroke="black" cx="1259.65" cy="-479" rx="33.47" ry="30.31"/>
<text text-anchor="middle" x="1259.65" y="-470.9" font-family="Times,serif" font-size="32.00">c1</text>
</g>
<!-- t&#45;&gt;c1 -->
<g id="edge38" class="edge">
<title>t&#45;&gt;c1</title>
<path fill="none" stroke="#000000" d="M1903.03,-371.29C1837.45,-352.78 1658.62,-309.9 1515.65,-346 1434.87,-366.4 1424.76,-396.92 1350.65,-435 1333.71,-443.71 1314.8,-453.01 1298.69,-460.82"/>
<polygon fill="#000000" stroke="#000000" points="1297.06,-457.72 1289.58,-465.22 1300.1,-464.02 1297.06,-457.72"/>
<text text-anchor="middle" x="1592.65" y="-390.4" font-family="Times,serif" font-size="32.00">that</text>
<text text-anchor="middle" x="1592.65" y="-355.4" font-family="Times,serif" font-size="32.00">=t =e c1</text>
</g>
<!-- z0 -->
<g id="node2" class="node">
<title>z0</title>
<ellipse fill="none" stroke="black" stroke-dasharray="5,2" cx="2634.48" cy="-1354" rx="27" ry="18"/>
</g>
<!-- d -->
<g id="node3" class="node">
<title>d</title>
<ellipse fill="none" stroke="black" cx="2451.48" cy="-1255" rx="27" ry="30.31"/>
<text text-anchor="middle" x="2451.48" y="-1246.9" font-family="Times,serif" font-size="32.00">d</text>
</g>
<!-- z0&#45;&gt;d -->
<g id="edge1" class="edge">
<title>z0&#45;&gt;d</title>
<path fill="none" stroke="#000000" d="M2607.57,-1356.16C2578.06,-1357.3 2529.65,-1354.96 2496.48,-1332 2482.77,-1322.51 2472.78,-1307.27 2465.83,-1292.85"/>
<polygon fill="#000000" stroke="#000000" points="2468.95,-1291.26 2461.68,-1283.55 2462.56,-1294.11 2468.95,-1291.26"/>
<text text-anchor="middle" x="2542.98" y="-1505.4" font-family="Times,serif" font-size="32.00">Mary |</text>
<text text-anchor="middle" x="2542.98" y="-1470.4" font-family="Times,serif" font-size="32.00"> John |</text>
<text text-anchor="middle" x="2542.98" y="-1435.4" font-family="Times,serif" font-size="32.00"> Alice |</text>
<text text-anchor="middle" x="2542.98" y="-1400.4" font-family="Times,serif" font-size="32.00"> Bob</text>
<text text-anchor="middle" x="2542.98" y="-1365.4" font-family="Times,serif" font-size="32.00">d &#45;k</text>
</g>
<!-- 0 -->
<g id="node6" class="node">
<title>0</title>
<ellipse fill="none" stroke="black" cx="1259.65" cy="-722" rx="27" ry="30.31"/>
<text text-anchor="middle" x="1259.65" y="-713.9" font-family="Times,serif" font-size="32.00">0</text>
</g>
<!-- d&#45;&gt;0 -->
<g id="edge9" class="edge">
<title>d&#45;&gt;0</title>
<path fill="none" stroke="#000000" d="M2444.98,-1225.39C2439.19,-1201.98 2427.81,-1170.01 2406.48,-1150 2358.8,-1105.3 2328.33,-1125.84 2267.48,-1102 2136.91,-1050.85 2110.96,-1021.46 1978.65,-975 1928.3,-957.32 1915.18,-953.4 1862.65,-944 1808.39,-934.29 1415.46,-927.12 1368.65,-898 1318.07,-866.53 1287.65,-801.75 1272.53,-760.17"/>
<polygon fill="#000000" stroke="#000000" points="1275.8,-758.92 1269.18,-750.65 1269.19,-761.24 1275.8,-758.92"/>
<text text-anchor="middle" x="1929.65" y="-1124.4" font-family="Times,serif" font-size="32.00">praise |</text>
<text text-anchor="middle" x="1929.65" y="-1089.4" font-family="Times,serif" font-size="32.00"> like |</text>
<text text-anchor="middle" x="1929.65" y="-1054.4" font-family="Times,serif" font-size="32.00"> kiss |</text>
<text text-anchor="middle" x="1929.65" y="-1019.4" font-family="Times,serif" font-size="32.00"> hug</text>
<text text-anchor="middle" x="1929.65" y="-984.4" font-family="Times,serif" font-size="32.00">=d *k 0</text>
</g>
<!-- v -->
<g id="node8" class="node">
<title>v</title>
<ellipse fill="none" stroke="black" cx="629.65" cy="-669" rx="27" ry="30.31"/>
<text text-anchor="middle" x="629.65" y="-660.9" font-family="Times,serif" font-size="32.00">v</text>
</g>
<!-- d&#45;&gt;v -->
<g id="edge6" class="edge">
<title>d&#45;&gt;v</title>
<path fill="none" stroke="#000000" d="M2446.36,-1285.21C2441.34,-1309.7 2430.33,-1343 2406.48,-1361 2332.58,-1416.76 2292.14,-1385 2199.56,-1385 2199.56,-1385 2199.56,-1385 909.65,-1385 649.16,-1385 814.86,-1072.6 712.65,-833 693.15,-787.3 666.95,-736.36 649.46,-703.56"/>
<polygon fill="#000000" stroke="#000000" points="652.36,-701.56 644.55,-694.4 646.19,-704.86 652.36,-701.56"/>
<text text-anchor="middle" x="1592.65" y="-1534.4" font-family="Times,serif" font-size="32.00">dance_1 |</text>
<text text-anchor="middle" x="1592.65" y="-1499.4" font-family="Times,serif" font-size="32.00"> laugh_1 |</text>
<text text-anchor="middle" x="1592.65" y="-1464.4" font-family="Times,serif" font-size="32.00"> smile_1 |</text>
<text text-anchor="middle" x="1592.65" y="-1429.4" font-family="Times,serif" font-size="32.00"> jump_1</text>
<text text-anchor="middle" x="1592.65" y="-1394.4" font-family="Times,serif" font-size="32.00">=d v</text>
</g>
<!-- d&#45;&gt;v -->
<g id="edge10" class="edge">
<title>d&#45;&gt;v</title>
<path fill="none" stroke="#000000" d="M2424.67,-1260.12C2297.8,-1285.01 1744.06,-1390.12 1687.65,-1340 1636.8,-1294.81 1716.91,-1236.93 1669.65,-1188 1650.09,-1167.75 1196.48,-1115.32 1168.65,-1111 1092.19,-1099.12 1069.29,-1110.67 996.65,-1084 921.38,-1056.36 887.84,-1056.24 842.65,-990 816.71,-951.97 846.58,-928.48 824.65,-888 797.39,-837.68 769.04,-842.45 730.65,-800 701.73,-768.02 672.21,-728.3 652.81,-701.03"/>
<polygon fill="#000000" stroke="#000000" points="655.52,-698.79 646.89,-692.64 649.8,-702.83 655.52,-698.79"/>
<text text-anchor="middle" x="1592.65" y="-1337.4" font-family="Times,serif" font-size="32.00">praise_1 |</text>
<text text-anchor="middle" x="1592.65" y="-1302.4" font-family="Times,serif" font-size="32.00"> like_1 |</text>
<text text-anchor="middle" x="1592.65" y="-1267.4" font-family="Times,serif" font-size="32.00"> kiss_1 |</text>
<text text-anchor="middle" x="1592.65" y="-1232.4" font-family="Times,serif" font-size="32.00"> hug_1</text>
<text text-anchor="middle" x="1592.65" y="-1197.4" font-family="Times,serif" font-size="32.00">=d *k =d v</text>
</g>
<!-- prog -->
<g id="node9" class="node">
<title>prog</title>
<ellipse fill="none" stroke="black" cx="52.33" cy="-779" rx="52.15" ry="30.31"/>
<text text-anchor="middle" x="52.33" y="-770.9" font-family="Times,serif" font-size="32.00">prog</text>
</g>
<!-- d&#45;&gt;prog -->
<g id="edge7" class="edge">
<title>d&#45;&gt;prog</title>
<path fill="none" stroke="#000000" d="M2449.21,-1285.56C2445.74,-1359.65 2434.38,-1546.79 2406.48,-1602 2349.19,-1715.32 2326.54,-1799 2199.56,-1799 2199.56,-1799 2199.56,-1799 323.65,-1799 198.57,-1799 175.9,-1715.19 122.65,-1602 56.33,-1461.02 52.65,-966.35 53.05,-820.05"/>
<polygon fill="#000000" stroke="#000000" points="56.55,-819.74 53.09,-809.73 49.55,-819.72 56.55,-819.74"/>
<text text-anchor="middle" x="1259.65" y="-1948.4" font-family="Times,serif" font-size="32.00">danceing |</text>
<text text-anchor="middle" x="1259.65" y="-1913.4" font-family="Times,serif" font-size="32.00"> laughing |</text>
<text text-anchor="middle" x="1259.65" y="-1878.4" font-family="Times,serif" font-size="32.00"> smileing |</text>
<text text-anchor="middle" x="1259.65" y="-1843.4" font-family="Times,serif" font-size="32.00"> jumping</text>
<text text-anchor="middle" x="1259.65" y="-1808.4" font-family="Times,serif" font-size="32.00">=d prog</text>
</g>
<!-- d&#45;&gt;prog -->
<g id="edge11" class="edge">
<title>d&#45;&gt;prog</title>
<path fill="none" stroke="#000000" d="M2443.58,-1284.26C2422.52,-1365.52 2351.03,-1588 2199.56,-1588 2199.56,-1588 2199.56,-1588 323.65,-1588 159.91,-1588 77.34,-984.3 57.89,-819.91"/>
<polygon fill="#000000" stroke="#000000" points="61.34,-819.25 56.7,-809.73 54.38,-820.06 61.34,-819.25"/>
<text text-anchor="middle" x="1259.65" y="-1737.4" font-family="Times,serif" font-size="32.00">praiseing |</text>
<text text-anchor="middle" x="1259.65" y="-1702.4" font-family="Times,serif" font-size="32.00"> likeing |</text>
<text text-anchor="middle" x="1259.65" y="-1667.4" font-family="Times,serif" font-size="32.00"> kissing |</text>
<text text-anchor="middle" x="1259.65" y="-1632.4" font-family="Times,serif" font-size="32.00"> huging</text>
<text text-anchor="middle" x="1259.65" y="-1597.4" font-family="Times,serif" font-size="32.00">=d *k =d prog</text>
</g>
<!-- perf -->
<g id="node10" class="node">
<title>perf</title>
<ellipse fill="none" stroke="black" cx="910.65" cy="-951" rx="48.17" ry="30.31"/>
<text text-anchor="middle" x="910.65" y="-942.9" font-family="Times,serif" font-size="32.00">perf</text>
</g>
<!-- d&#45;&gt;perf -->
<g id="edge8" class="edge">
<title>d&#45;&gt;perf</title>
<path fill="none" stroke="#000000" d="M2446.11,-1224.85C2439.6,-1184.66 2426,-1116.85 2406.48,-1102 2313.46,-1031.27 1968.4,-1174.17 1880.65,-1097 1836.85,-1058.48 1906.63,-1005.31 1862.65,-967 1804,-915.91 1746.96,-916.68 1687.65,-967 1650.21,-998.77 1707.09,-1044.23 1669.65,-1076 1618.64,-1119.28 1435.49,-1075.69 1368.65,-1073 1201.59,-1066.29 1146.81,-1090.53 996.65,-1017 978.53,-1008.13 960.57,-994.99 945.86,-982.77"/>
<polygon fill="#000000" stroke="#000000" points="947.92,-979.93 938.04,-976.11 943.38,-985.26 947.92,-979.93"/>
<text text-anchor="middle" x="1775.15" y="-1116.4" font-family="Times,serif" font-size="32.00">dancen |</text>
<text text-anchor="middle" x="1775.15" y="-1081.4" font-family="Times,serif" font-size="32.00"> laughn |</text>
<text text-anchor="middle" x="1775.15" y="-1046.4" font-family="Times,serif" font-size="32.00"> smilen |</text>
<text text-anchor="middle" x="1775.15" y="-1011.4" font-family="Times,serif" font-size="32.00"> jumpn</text>
<text text-anchor="middle" x="1775.15" y="-976.4" font-family="Times,serif" font-size="32.00">=d perf</text>
</g>
<!-- d&#45;&gt;perf -->
<g id="edge12" class="edge">
<title>d&#45;&gt;perf</title>
<path fill="none" stroke="#000000" d="M2424.74,-1250.71C2342.81,-1237.13 2080.6,-1194.24 1862.65,-1165 1554.92,-1123.72 1476.18,-1127.73 1168.65,-1085 1091.94,-1074.34 1063.55,-1096.03 996.65,-1057 969.01,-1040.87 946.79,-1012.07 932.02,-988.55"/>
<polygon fill="#000000" stroke="#000000" points="934.9,-986.57 926.72,-979.84 928.92,-990.2 934.9,-986.57"/>
<text text-anchor="middle" x="1775.15" y="-1314.4" font-family="Times,serif" font-size="32.00">praisen |</text>
<text text-anchor="middle" x="1775.15" y="-1279.4" font-family="Times,serif" font-size="32.00"> liken |</text>
<text text-anchor="middle" x="1775.15" y="-1244.4" font-family="Times,serif" font-size="32.00"> kissn |</text>
<text text-anchor="middle" x="1775.15" y="-1209.4" font-family="Times,serif" font-size="32.00"> hugn</text>
<text text-anchor="middle" x="1775.15" y="-1174.4" font-family="Times,serif" font-size="32.00">=d *k =d perf</text>
</g>
<!-- pass -->
<g id="node11" class="node">
<title>pass</title>
<ellipse fill="none" stroke="black" cx="2198.56" cy="-379" rx="50.82" ry="30.31"/>
<text text-anchor="middle" x="2198.56" y="-370.9" font-family="Times,serif" font-size="32.00">pass</text>
</g>
<!-- d&#45;&gt;pass -->
<g id="edge13" class="edge">
<title>d&#45;&gt;pass</title>
<path fill="none" stroke="#000000" d="M2449.33,-1224.51C2446.42,-1162.36 2436.7,-1016.94 2406.48,-899 2358.52,-711.85 2260.24,-501.72 2218.73,-417.21"/>
<polygon fill="#000000" stroke="#000000" points="2221.76,-415.43 2214.19,-408.01 2215.48,-418.52 2221.76,-415.43"/>
<text text-anchor="middle" x="2336.98" y="-1048.4" font-family="Times,serif" font-size="32.00">praisen_1 |</text>
<text text-anchor="middle" x="2336.98" y="-1013.4" font-family="Times,serif" font-size="32.00"> liken_1 |</text>
<text text-anchor="middle" x="2336.98" y="-978.4" font-family="Times,serif" font-size="32.00"> kissn_1 |</text>
<text text-anchor="middle" x="2336.98" y="-943.4" font-family="Times,serif" font-size="32.00"> hugn_1</text>
<text text-anchor="middle" x="2336.98" y="-908.4" font-family="Times,serif" font-size="32.00">=d pass</text>
</g>
<!-- n -->
<g id="node4" class="node">
<title>n</title>
<ellipse fill="none" stroke="black" cx="2634.48" cy="-1156" rx="27" ry="30.31"/>
<text text-anchor="middle" x="2634.48" y="-1147.9" font-family="Times,serif" font-size="32.00">n</text>
</g>
<!-- n&#45;&gt;d -->
<g id="edge2" class="edge">
<title>n&#45;&gt;d</title>
<path fill="none" stroke="#000000" d="M2608.4,-1147.54C2579.01,-1139.29 2530.07,-1130.91 2496.48,-1153 2475.66,-1166.69 2464.64,-1192.55 2458.84,-1214.8"/>
<polygon fill="#000000" stroke="#000000" points="2455.39,-1214.18 2456.53,-1224.71 2462.21,-1215.77 2455.39,-1214.18"/>
<text text-anchor="middle" x="2542.98" y="-1302.4" font-family="Times,serif" font-size="32.00">this |</text>
<text text-anchor="middle" x="2542.98" y="-1267.4" font-family="Times,serif" font-size="32.00"> a |</text>
<text text-anchor="middle" x="2542.98" y="-1232.4" font-family="Times,serif" font-size="32.00"> the |</text>
<text text-anchor="middle" x="2542.98" y="-1197.4" font-family="Times,serif" font-size="32.00"> some</text>
<text text-anchor="middle" x="2542.98" y="-1162.4" font-family="Times,serif" font-size="32.00">=n d &#45;k</text>
</g>
<!-- z1 -->
<g id="node5" class="node">
<title>z1</title>
<ellipse fill="none" stroke="black" stroke-dasharray="5,2" cx="2787.48" cy="-1156" rx="27" ry="18"/>
</g>
<!-- z1&#45;&gt;n -->
<g id="edge3" class="edge">
<title>z1&#45;&gt;n</title>
<path fill="none" stroke="#000000" d="M2760.17,-1156C2735.71,-1156 2699.03,-1156 2671.78,-1156"/>
<polygon fill="#000000" stroke="#000000" points="2671.48,-1152.5 2661.48,-1156 2671.48,-1159.5 2671.48,-1152.5"/>
<text text-anchor="middle" x="2710.98" y="-1235.4" font-family="Times,serif" font-size="32.00">boy |</text>
<text text-anchor="middle" x="2710.98" y="-1200.4" font-family="Times,serif" font-size="32.00"> girl</text>
<text text-anchor="middle" x="2710.98" y="-1165.4" font-family="Times,serif" font-size="32.00">n</text>
</g>
<!-- 0&#45;&gt;t -->
<g id="edge4" class="edge">
<title>0&#45;&gt;t</title>
<path fill="none" stroke="#000000" d="M1286.27,-716.75C1308.08,-712.52 1340.28,-706.82 1368.65,-704 1430.52,-697.84 1827.06,-703.08 1862.65,-671 1899.54,-637.75 1918.13,-491.43 1925.19,-419.37"/>
<polygon fill="#000000" stroke="#000000" points="1928.68,-419.59 1926.15,-409.3 1921.72,-418.93 1928.68,-419.59"/>
<text text-anchor="middle" x="1592.65" y="-779.4" font-family="Times,serif" font-size="32.00">s |</text>
<text text-anchor="middle" x="1592.65" y="-744.4" font-family="Times,serif" font-size="32.00"> d</text>
<text text-anchor="middle" x="1592.65" y="-709.4" font-family="Times,serif" font-size="32.00">=&gt;0 =d +k t</text>
</g>
<!-- 0&#45;&gt;v -->
<g id="edge15" class="edge">
<title>0&#45;&gt;v</title>
<path fill="none" stroke="#000000" d="M1233.21,-713.82C1211.52,-707.23 1179.38,-698.37 1150.65,-694 970.7,-666.65 752.07,-666.86 666.98,-668.19"/>
<polygon fill="#000000" stroke="#000000" points="666.75,-664.7 656.81,-668.37 666.87,-671.7 666.75,-664.7"/>
<text text-anchor="middle" x="910.65" y="-720.4" font-family="Times,serif" font-size="32.00">ε_0</text>
<text text-anchor="middle" x="910.65" y="-685.4" font-family="Times,serif" font-size="32.00">=&gt;0 =d v</text>
</g>
<!-- 0&#45;&gt;prog -->
<g id="edge16" class="edge">
<title>0&#45;&gt;prog</title>
<path fill="none" stroke="#000000" d="M1241.34,-745.03C1222.13,-768.54 1188.76,-803.67 1150.65,-819 1088.36,-844.06 613.57,-833.43 546.65,-839 469.79,-845.4 451.61,-856.88 374.65,-862 330.31,-864.95 318.38,-869.93 274.65,-862 212.77,-850.78 145.66,-823.25 101.76,-802.95"/>
<polygon fill="#000000" stroke="#000000" points="103.02,-799.68 92.48,-798.61 100.06,-806.02 103.02,-799.68"/>
<text text-anchor="middle" x="629.65" y="-883.4" font-family="Times,serif" font-size="32.00">ing</text>
<text text-anchor="middle" x="629.65" y="-848.4" font-family="Times,serif" font-size="32.00">=&gt;0 =d prog</text>
</g>
<!-- 0&#45;&gt;perf -->
<g id="edge17" class="edge">
<title>0&#45;&gt;perf</title>
<path fill="none" stroke="#000000" d="M1244.11,-747.05C1226.08,-775.6 1192.54,-821.26 1150.65,-844 1089.83,-877.01 1058.54,-836.04 996.65,-867 973.96,-878.35 953.56,-898.02 938.43,-915.47"/>
<polygon fill="#000000" stroke="#000000" points="935.61,-913.39 931.86,-923.3 940.97,-917.89 935.61,-913.39"/>
<text text-anchor="middle" x="1073.65" y="-911.4" font-family="Times,serif" font-size="32.00">n</text>
<text text-anchor="middle" x="1073.65" y="-876.4" font-family="Times,serif" font-size="32.00">=&gt;0 =d perf</text>
</g>
<!-- z2 -->
<g id="node7" class="node">
<title>z2</title>
<ellipse fill="none" stroke="black" stroke-dasharray="5,2" cx="1592.65" cy="-862" rx="27" ry="18"/>
</g>
<!-- z2&#45;&gt;0 -->
<g id="edge5" class="edge">
<title>z2&#45;&gt;0</title>
<path fill="none" stroke="#000000" d="M1566.28,-857.84C1549.35,-853.7 1528,-845.6 1515.65,-830 1485.73,-792.19 1534.41,-754.22 1497.65,-723 1468.29,-698.06 1355.08,-709.07 1296.39,-716.78"/>
<polygon fill="#000000" stroke="#000000" points="1295.88,-713.32 1286.44,-718.13 1296.82,-720.26 1295.88,-713.32"/>
<text text-anchor="middle" x="1433.15" y="-872.4" font-family="Times,serif" font-size="32.00">dance |</text>
<text text-anchor="middle" x="1433.15" y="-837.4" font-family="Times,serif" font-size="32.00"> laugh |</text>
<text text-anchor="middle" x="1433.15" y="-802.4" font-family="Times,serif" font-size="32.00"> smile |</text>
<text text-anchor="middle" x="1433.15" y="-767.4" font-family="Times,serif" font-size="32.00"> jump</text>
<text text-anchor="middle" x="1433.15" y="-732.4" font-family="Times,serif" font-size="32.00">0</text>
</g>
<!-- v&#45;&gt;t -->
<g id="edge18" class="edge">
<title>v&#45;&gt;t</title>
<path fill="none" stroke="#000000" d="M647.83,-645.82C666.09,-622.58 696.96,-587.16 730.65,-565 775.07,-535.78 791.36,-536.98 842.65,-523 859.41,-518.43 1138.62,-481.53 1150.65,-469 1192.28,-425.67 1123.82,-375.02 1168.65,-335 1226.18,-283.65 1789.56,-305.41 1862.65,-330 1876.69,-334.72 1890.2,-343.67 1901.29,-352.64"/>
<polygon fill="#000000" stroke="#000000" points="1899.03,-355.32 1908.92,-359.12 1903.56,-349.98 1899.03,-355.32"/>
<text text-anchor="middle" x="1259.65" y="-414.4" font-family="Times,serif" font-size="32.00">wills |</text>
<text text-anchor="middle" x="1259.65" y="-379.4" font-family="Times,serif" font-size="32.00"> willd</text>
<text text-anchor="middle" x="1259.65" y="-344.4" font-family="Times,serif" font-size="32.00">=v +k t</text>
</g>
<!-- to -->
<g id="node13" class="node">
<title>to</title>
<ellipse fill="none" stroke="black" cx="324.65" cy="-659" rx="28.98" ry="30.31"/>
<text text-anchor="middle" x="324.65" y="-650.9" font-family="Times,serif" font-size="32.00">to</text>
</g>
<!-- v&#45;&gt;to -->
<g id="edge37" class="edge">
<title>v&#45;&gt;to</title>
<path fill="none" stroke="#000000" d="M610.76,-646.63C592.61,-625.89 562.44,-596.42 528.65,-584 471.92,-563.15 447.82,-559.31 392.65,-584 373.69,-592.49 357.89,-609.28 346.39,-624.83"/>
<polygon fill="#000000" stroke="#000000" points="343.34,-623.09 340.46,-633.28 349.07,-627.11 343.34,-623.09"/>
<text text-anchor="middle" x="460.65" y="-628.4" font-family="Times,serif" font-size="32.00">to</text>
<text text-anchor="middle" x="460.65" y="-593.4" font-family="Times,serif" font-size="32.00">=v to</text>
</g>
<!-- prog&#45;&gt;t -->
<g id="edge19" class="edge">
<title>prog&#45;&gt;t</title>
<path fill="none" stroke="#000000" d="M53.45,-748.49C55.7,-629.62 80.7,-204 323.65,-204 1593.65,-204 1593.65,-204 1593.65,-204 1718.64,-204 1761.27,-212.9 1862.65,-286 1883.17,-300.8 1899.65,-323.99 1911.01,-343.51"/>
<polygon fill="#000000" stroke="#000000" points="1908.08,-345.44 1916.01,-352.46 1914.19,-342.02 1908.08,-345.44"/>
<text text-anchor="middle" x="910.65" y="-283.4" font-family="Times,serif" font-size="32.00">bes |</text>
<text text-anchor="middle" x="910.65" y="-248.4" font-family="Times,serif" font-size="32.00"> bed</text>
<text text-anchor="middle" x="910.65" y="-213.4" font-family="Times,serif" font-size="32.00">=prog +k t</text>
</g>
<!-- prog&#45;&gt;v -->
<g id="edge20" class="edge">
<title>prog&#45;&gt;v</title>
<path fill="none" stroke="#000000" d="M104.67,-782.08C211.38,-787.75 453.47,-796.54 528.65,-765 560.47,-751.65 588.02,-723.14 606.1,-700.64"/>
<polygon fill="#000000" stroke="#000000" points="608.93,-702.69 612.32,-692.66 603.41,-698.39 608.93,-702.69"/>
<text text-anchor="middle" x="324.65" y="-832.4" font-family="Times,serif" font-size="32.00">be</text>
<text text-anchor="middle" x="324.65" y="-797.4" font-family="Times,serif" font-size="32.00">=prog v</text>
</g>
<!-- prog&#45;&gt;perf -->
<g id="edge21" class="edge">
<title>prog&#45;&gt;perf</title>
<path fill="none" stroke="#000000" d="M65.43,-808.83C76.88,-833.76 96.26,-868.73 122.65,-891 278.06,-1022.16 347.06,-1024.06 546.65,-1063 619.06,-1077.13 641.32,-1081.86 712.65,-1063 772.77,-1047.11 833.74,-1008.15 871.6,-980.66"/>
<polygon fill="#000000" stroke="#000000" points="873.81,-983.39 879.78,-974.64 869.66,-977.75 873.81,-983.39"/>
<text text-anchor="middle" x="460.65" y="-1104.4" font-family="Times,serif" font-size="32.00">ben</text>
<text text-anchor="middle" x="460.65" y="-1069.4" font-family="Times,serif" font-size="32.00">=prog perf</text>
</g>
<!-- perf&#45;&gt;t -->
<g id="edge34" class="edge">
<title>perf&#45;&gt;t</title>
<path fill="none" stroke="#000000" d="M958.86,-951.39C1104.18,-951.92 1542.58,-948.44 1669.65,-889 1779.25,-837.74 1805.04,-803.4 1862.65,-697 1911.77,-606.31 1924.39,-482.87 1927.59,-419.78"/>
<polygon fill="#000000" stroke="#000000" points="1931.11,-419.6 1928.06,-409.45 1924.11,-419.28 1931.11,-419.6"/>
<text text-anchor="middle" x="1433.15" y="-1019.4" font-family="Times,serif" font-size="32.00">haves |</text>
<text text-anchor="middle" x="1433.15" y="-984.4" font-family="Times,serif" font-size="32.00"> haved</text>
<text text-anchor="middle" x="1433.15" y="-949.4" font-family="Times,serif" font-size="32.00">=perf +k t</text>
</g>
<!-- perf&#45;&gt;v -->
<g id="edge35" class="edge">
<title>perf&#45;&gt;v</title>
<path fill="none" stroke="#000000" d="M901.65,-921.11C886.67,-867.25 853.34,-756.95 824.65,-730 812.89,-718.95 719,-692.58 666.27,-678.4"/>
<polygon fill="#000000" stroke="#000000" points="666.88,-674.94 656.31,-675.73 665.07,-681.7 666.88,-674.94"/>
<text text-anchor="middle" x="777.65" y="-774.4" font-family="Times,serif" font-size="32.00">have</text>
<text text-anchor="middle" x="777.65" y="-739.4" font-family="Times,serif" font-size="32.00">=perf v</text>
</g>
<!-- pass&#45;&gt;t -->
<g id="edge22" class="edge">
<title>pass&#45;&gt;t</title>
<path fill="none" stroke="#000000" d="M2147.36,-379C2094.82,-379 2013.63,-379 1966.98,-379"/>
<polygon fill="#000000" stroke="#000000" points="1966.73,-375.5 1956.73,-379 1966.73,-382.5 1966.73,-375.5"/>
<text text-anchor="middle" x="2063.15" y="-458.4" font-family="Times,serif" font-size="32.00">bes_1 |</text>
<text text-anchor="middle" x="2063.15" y="-423.4" font-family="Times,serif" font-size="32.00"> bed_1</text>
<text text-anchor="middle" x="2063.15" y="-388.4" font-family="Times,serif" font-size="32.00">=pass +k t</text>
</g>
<!-- pass&#45;&gt;v -->
<g id="edge23" class="edge">
<title>pass&#45;&gt;v</title>
<path fill="none" stroke="#000000" d="M2167.17,-354.56C2111.06,-311.19 1985.66,-222.31 1862.65,-190 1787.43,-170.24 1765.28,-185.15 1687.65,-190 1545.04,-198.91 1507.61,-196.71 1368.65,-230 1276.78,-252.01 1227.84,-228.36 1168.65,-302 1129.63,-350.55 1193.56,-395.84 1150.65,-441 1126.69,-466.22 1030.83,-462.56 996.65,-469 928.13,-481.9 910.91,-484.74 842.65,-499 792.73,-509.43 772.94,-495.48 730.65,-524 691.08,-550.69 662.59,-598.74 646.37,-632.18"/>
<polygon fill="#000000" stroke="#000000" points="643.02,-631.08 641.93,-641.62 649.36,-634.06 643.02,-631.08"/>
<text text-anchor="middle" x="1433.15" y="-274.4" font-family="Times,serif" font-size="32.00">be_1</text>
<text text-anchor="middle" x="1433.15" y="-239.4" font-family="Times,serif" font-size="32.00">=pass v</text>
</g>
<!-- pass&#45;&gt;prog -->
<g id="edge25" class="edge">
<title>pass&#45;&gt;prog</title>
<path fill="none" stroke="#000000" d="M2187.37,-349.34C2159.37,-273.96 2073.73,-81 1930.65,-81 1930.65,-81 1930.65,-81 323.65,-81 215.79,-81 178.97,-125.01 122.65,-217 68.96,-304.71 56.72,-624.42 54.05,-738.34"/>
<polygon fill="#000000" stroke="#000000" points="50.55,-738.32 53.82,-748.4 57.54,-738.48 50.55,-738.32"/>
<text text-anchor="middle" x="1073.65" y="-125.4" font-family="Times,serif" font-size="32.00">being</text>
<text text-anchor="middle" x="1073.65" y="-90.4" font-family="Times,serif" font-size="32.00">=pass prog</text>
</g>
<!-- pass&#45;&gt;perf -->
<g id="edge24" class="edge">
<title>pass&#45;&gt;perf</title>
<path fill="none" stroke="#000000" d="M2181.08,-407.97C2167.96,-430.38 2148.7,-461.88 2129.65,-488 2021.51,-636.28 2002.04,-683.62 1862.65,-803 1786.29,-868.4 1756.57,-870.47 1669.65,-921 1602.06,-960.29 1567.87,-947.82 1515.65,-1006 1501.81,-1021.42 1514.9,-1037.52 1497.65,-1049 1409.97,-1107.35 1089.26,-1010.24 963.11,-968.57"/>
<polygon fill="#000000" stroke="#000000" points="963.9,-965.14 953.3,-965.31 961.69,-971.78 963.9,-965.14"/>
<text text-anchor="middle" x="1592.65" y="-1050.4" font-family="Times,serif" font-size="32.00">ben_1</text>
<text text-anchor="middle" x="1592.65" y="-1015.4" font-family="Times,serif" font-size="32.00">=pass perf</text>
</g>
<!-- c2&#45;&gt;0 -->
<g id="edge14" class="edge">
<title>c2&#45;&gt;0</title>
<path fill="none" stroke="#000000" d="M1561.19,-644.72C1545.13,-637.72 1526.55,-626.82 1515.65,-611 1487.29,-569.85 1535.71,-532.39 1497.65,-500 1453.99,-462.85 1417.26,-469.59 1368.65,-500 1351.61,-510.66 1301.57,-624.86 1276.03,-685.17"/>
<polygon fill="#000000" stroke="#000000" points="1272.67,-684.14 1272,-694.71 1279.11,-686.86 1272.67,-684.14"/>
<text text-anchor="middle" x="1433.15" y="-649.4" font-family="Times,serif" font-size="32.00">declare |</text>
<text text-anchor="middle" x="1433.15" y="-614.4" font-family="Times,serif" font-size="32.00"> think |</text>
<text text-anchor="middle" x="1433.15" y="-579.4" font-family="Times,serif" font-size="32.00"> explain |</text>
<text text-anchor="middle" x="1433.15" y="-544.4" font-family="Times,serif" font-size="32.00"> say</text>
<text text-anchor="middle" x="1433.15" y="-509.4" font-family="Times,serif" font-size="32.00">=c2 0</text>
</g>
<!-- to&#45;&gt;t -->
<g id="edge26" class="edge">
<title>to&#45;&gt;t</title>
<path fill="none" stroke="#000000" d="M337.85,-631.61C349,-609.73 367.59,-580 392.65,-563 513.56,-481.02 602.6,-584.06 712.65,-488 729.5,-473.29 715.73,-457.67 730.65,-441 813.37,-348.57 883.12,-392.11 978.65,-313 988.65,-304.72 984.98,-295.69 996.65,-290 1265.58,-158.97 1370.6,-293.18 1669.65,-301 1755.44,-303.24 1784.64,-271.23 1862.65,-307 1880.69,-315.27 1896.03,-331.03 1907.37,-345.7"/>
<polygon fill="#000000" stroke="#000000" points="1904.83,-348.16 1913.57,-354.14 1910.47,-344.01 1904.83,-348.16"/>
<text text-anchor="middle" x="1073.65" y="-439.4" font-family="Times,serif" font-size="32.00">seems |</text>
<text text-anchor="middle" x="1073.65" y="-404.4" font-family="Times,serif" font-size="32.00"> seemd |</text>
<text text-anchor="middle" x="1073.65" y="-369.4" font-family="Times,serif" font-size="32.00"> appears |</text>
<text text-anchor="middle" x="1073.65" y="-334.4" font-family="Times,serif" font-size="32.00"> appeard</text>
<text text-anchor="middle" x="1073.65" y="-299.4" font-family="Times,serif" font-size="32.00">=to +k t</text>
</g>
<!-- to&#45;&gt;v -->
<g id="edge27" class="edge">
<title>to&#45;&gt;v</title>
<path fill="none" stroke="#000000" d="M353.91,-658.38C393.15,-657.7 466.34,-657.05 528.65,-660 549.81,-661 573.41,-663.08 592.37,-664.99"/>
<polygon fill="#000000" stroke="#000000" points="592.07,-668.48 602.38,-666.02 592.79,-661.51 592.07,-668.48"/>
<text text-anchor="middle" x="460.65" y="-739.4" font-family="Times,serif" font-size="32.00">seem |</text>
<text text-anchor="middle" x="460.65" y="-704.4" font-family="Times,serif" font-size="32.00"> appear</text>
<text text-anchor="middle" x="460.65" y="-669.4" font-family="Times,serif" font-size="32.00">=to v</text>
</g>
<!-- to&#45;&gt;prog -->
<g id="edge29" class="edge">
<title>to&#45;&gt;prog</title>
<path fill="none" stroke="#000000" d="M296.42,-651.15C255.6,-641.05 177.49,-628.3 122.65,-660 93.34,-676.94 75.24,-711.56 64.92,-739.1"/>
<polygon fill="#000000" stroke="#000000" points="61.5,-738.29 61.47,-748.89 68.1,-740.62 61.5,-738.29"/>
<text text-anchor="middle" x="189.65" y="-739.4" font-family="Times,serif" font-size="32.00">seeming |</text>
<text text-anchor="middle" x="189.65" y="-704.4" font-family="Times,serif" font-size="32.00"> appearing</text>
<text text-anchor="middle" x="189.65" y="-669.4" font-family="Times,serif" font-size="32.00">=to prog</text>
</g>
<!-- to&#45;&gt;perf -->
<g id="edge28" class="edge">
<title>to&#45;&gt;perf</title>
<path fill="none" stroke="#000000" d="M338.76,-685.64C367.49,-740.55 441.89,-865.2 546.65,-913 646.99,-958.79 778.7,-959.88 852.73,-955.88"/>
<polygon fill="#000000" stroke="#000000" points="853.01,-959.37 862.79,-955.29 852.6,-952.39 853.01,-959.37"/>
<text text-anchor="middle" x="629.65" y="-1033.4" font-family="Times,serif" font-size="32.00">seemn |</text>
<text text-anchor="middle" x="629.65" y="-998.4" font-family="Times,serif" font-size="32.00"> appearn</text>
<text text-anchor="middle" x="629.65" y="-963.4" font-family="Times,serif" font-size="32.00">=to perf</text>
</g>
<!-- c1&#45;&gt;t -->
<g id="edge30" class="edge">
<title>c1&#45;&gt;t</title>
<path fill="none" stroke="#000000" d="M1292.71,-474.2C1404.25,-457.5 1774.93,-402.01 1892.52,-384.41"/>
<polygon fill="#000000" stroke="#000000" points="1893.09,-387.86 1902.47,-382.92 1892.06,-380.94 1893.09,-387.86"/>
<text text-anchor="middle" x="1592.65" y="-590.4" font-family="Times,serif" font-size="32.00">seems_1 |</text>
<text text-anchor="middle" x="1592.65" y="-555.4" font-family="Times,serif" font-size="32.00"> seemd_1 |</text>
<text text-anchor="middle" x="1592.65" y="-520.4" font-family="Times,serif" font-size="32.00"> appears_1 |</text>
<text text-anchor="middle" x="1592.65" y="-485.4" font-family="Times,serif" font-size="32.00"> appeard_1</text>
<text text-anchor="middle" x="1592.65" y="-450.4" font-family="Times,serif" font-size="32.00">=c1 +k t</text>
</g>
<!-- c1&#45;&gt;v -->
<g id="edge31" class="edge">
<title>c1&#45;&gt;v</title>
<path fill="none" stroke="#000000" d="M1227,-485.52C1205.48,-489.94 1176.36,-495.88 1150.65,-501 1013.88,-528.25 974.51,-515.57 842.65,-561 775.3,-584.2 702.48,-625.16 662.13,-649.42"/>
<polygon fill="#000000" stroke="#000000" points="660.29,-646.44 653.55,-654.62 663.91,-652.43 660.29,-646.44"/>
<text text-anchor="middle" x="910.65" y="-640.4" font-family="Times,serif" font-size="32.00">seem_1 |</text>
<text text-anchor="middle" x="910.65" y="-605.4" font-family="Times,serif" font-size="32.00"> appear_1</text>
<text text-anchor="middle" x="910.65" y="-570.4" font-family="Times,serif" font-size="32.00">=c1 v</text>
</g>
<!-- c1&#45;&gt;prog -->
<g id="edge33" class="edge">
<title>c1&#45;&gt;prog</title>
<path fill="none" stroke="#000000" d="M1227.11,-471.65C1127.59,-448.55 824.09,-379 778.65,-379 778.65,-379 778.65,-379 323.65,-379 151.25,-379 81.38,-637.22 60.57,-738.72"/>
<polygon fill="#000000" stroke="#000000" points="57.12,-738.12 58.6,-748.61 63.99,-739.48 57.12,-738.12"/>
<text text-anchor="middle" x="629.65" y="-458.4" font-family="Times,serif" font-size="32.00">seeming_1 |</text>
<text text-anchor="middle" x="629.65" y="-423.4" font-family="Times,serif" font-size="32.00"> appearing_1</text>
<text text-anchor="middle" x="629.65" y="-388.4" font-family="Times,serif" font-size="32.00">=c1 prog</text>
</g>
<!-- c1&#45;&gt;perf -->
<g id="edge32" class="edge">
<title>c1&#45;&gt;perf</title>
<path fill="none" stroke="#000000" d="M1233.19,-497.78C1181.94,-536.74 1065.4,-631.41 996.65,-735 959.46,-791.03 934.64,-865.8 921.86,-911.07"/>
<polygon fill="#000000" stroke="#000000" points="918.46,-910.24 919.17,-920.81 925.21,-912.1 918.46,-910.24"/>
<text text-anchor="middle" x="1073.65" y="-814.4" font-family="Times,serif" font-size="32.00">seemn_1 |</text>
<text text-anchor="middle" x="1073.65" y="-779.4" font-family="Times,serif" font-size="32.00"> appearn_1</text>
<text text-anchor="middle" x="1073.65" y="-744.4" font-family="Times,serif" font-size="32.00">=c1 perf</text>
</g>
<!-- z3 -->
<g id="node15" class="node">
<title>z3</title>
<ellipse fill="none" stroke="black" stroke-dasharray="5,2" cx="2787.48" cy="-1420" rx="27" ry="18"/>
</g>
<!-- e -->
<g id="node16" class="node">
<title>e</title>
<ellipse fill="none" stroke="black" cx="2634.48" cy="-1420" rx="27" ry="30.31"/>
<text text-anchor="middle" x="2634.48" y="-1411.9" font-family="Times,serif" font-size="32.00">e</text>
</g>
<!-- z3&#45;&gt;e -->
<g id="edge36" class="edge">
<title>z3&#45;&gt;e</title>
<path fill="none" stroke="#000000" d="M2760.17,-1420C2735.71,-1420 2699.03,-1420 2671.78,-1420"/>
<polygon fill="#000000" stroke="#000000" points="2671.48,-1416.5 2661.48,-1420 2671.48,-1423.5 2671.48,-1416.5"/>
<text text-anchor="middle" x="2710.98" y="-1464.4" font-family="Times,serif" font-size="32.00">it</text>
<text text-anchor="middle" x="2710.98" y="-1429.4" font-family="Times,serif" font-size="32.00">e &#45;k</text>
</g>
</g>
</svg>
