<?xml version="1.0" encoding="UTF-8" standalone="no"?>
<!DOCTYPE svg PUBLIC "-//W3C//DTD SVG 1.1//EN"
 "http://www.w3.org/Graphics/SVG/1.1/DTD/svg11.dtd">
<!-- Generated by graphviz version 2.47.1 (20210417.1919)
 -->
<!-- Title: G Pages: 1 -->
<svg width="1877pt" height="1252pt"
 viewBox="0.00 0.00 1877.44 1252.41" xmlns="http://www.w3.org/2000/svg" xmlns:xlink="http://www.w3.org/1999/xlink">
<g id="graph0" class="graph" transform="scale(1 1) rotate(0) translate(4 1248.41)">
<title>G</title>
<polygon fill="white" stroke="transparent" points="-4,4 -4,-1248.41 1873.44,-1248.41 1873.44,4 -4,4"/>
<text text-anchor="middle" x="934.72" y="-13.4" font-family="Times,serif" font-size="32.00">single contraction: 4 → 5</text>
<!-- t -->
<g id="node1" class="node">
<title>t</title>
<ellipse fill="lightgray" stroke="black" cx="1842.44" cy="-674.41" rx="27" ry="30.31"/>
<text text-anchor="middle" x="1842.44" y="-666.31" font-family="Times,serif" font-size="32.00">t</text>
</g>
<!-- c2 -->
<g id="node17" class="node">
<title>c2</title>
<ellipse fill="none" stroke="black" cx="1640.21" cy="-667.41" rx="33.47" ry="30.31"/>
<text text-anchor="middle" x="1640.21" y="-659.31" font-family="Times,serif" font-size="32.00">c2</text>
</g>
<!-- t&#45;&gt;c2 -->
<g id="edge28" class="edge">
<title>t&#45;&gt;c2</title>
<path fill="none" stroke="#000000" d="M1815.26,-673.49C1781.89,-672.32 1723.73,-670.29 1683.9,-668.9"/>
<polygon fill="#000000" stroke="#000000" points="1683.81,-665.39 1673.69,-668.54 1683.57,-672.39 1683.81,-665.39"/>
<text text-anchor="middle" x="1744.44" y="-717.81" font-family="Times,serif" font-size="32.00">that_1</text>
<text text-anchor="middle" x="1744.44" y="-682.81" font-family="Times,serif" font-size="32.00">=t c2</text>
</g>
<!-- c1 -->
<g id="node24" class="node">
<title>c1</title>
<ellipse fill="none" stroke="black" cx="1640.21" cy="-581.41" rx="33.47" ry="30.31"/>
<text text-anchor="middle" x="1640.21" y="-573.31" font-family="Times,serif" font-size="32.00">c1</text>
</g>
<!-- t&#45;&gt;c1 -->
<g id="edge27" class="edge">
<title>t&#45;&gt;c1</title>
<path fill="none" stroke="#000000" d="M1833.01,-645.49C1826.31,-627.97 1815.08,-606.86 1797.44,-595.41 1763.6,-573.43 1716.59,-572.2 1683,-575.07"/>
<polygon fill="#000000" stroke="#000000" points="1682.63,-571.59 1673.03,-576.07 1683.33,-578.55 1682.63,-571.59"/>
<text text-anchor="middle" x="1744.44" y="-639.81" font-family="Times,serif" font-size="32.00">that</text>
<text text-anchor="middle" x="1744.44" y="-604.81" font-family="Times,serif" font-size="32.00">=t =e c1</text>
</g>
<!-- 0 -->
<g id="node2" class="node">
<title>0</title>
<ellipse fill="none" stroke="black" cx="1362.06" cy="-965.41" rx="27" ry="30.31"/>
<text text-anchor="middle" x="1362.06" y="-957.31" font-family="Times,serif" font-size="32.00">0</text>
</g>
<!-- d -->
<g id="node3" class="node">
<title>d</title>
<ellipse fill="none" stroke="black" cx="1115.15" cy="-965.41" rx="27" ry="30.31"/>
<text text-anchor="middle" x="1115.15" y="-957.31" font-family="Times,serif" font-size="32.00">d</text>
</g>
<!-- 0&#45;&gt;d -->
<g id="edge1" class="edge">
<title>0&#45;&gt;d</title>
<path fill="none" stroke="#000000" d="M1334.85,-965.41C1290.84,-965.41 1202.03,-965.41 1152.19,-965.41"/>
<polygon fill="#000000" stroke="#000000" points="1152.17,-961.91 1142.17,-965.41 1152.17,-968.91 1152.17,-961.91"/>
<text text-anchor="middle" x="1226.65" y="-1009.81" font-family="Times,serif" font-size="32.00">ε_0</text>
<text text-anchor="middle" x="1226.65" y="-974.81" font-family="Times,serif" font-size="32.00">=&gt;0 d &#45;k</text>
</g>
<!-- z0 -->
<g id="node4" class="node">
<title>z0</title>
<ellipse fill="none" stroke="black" stroke-dasharray="5,2" cx="1640.21" cy="-1064.41" rx="27" ry="18"/>
</g>
<!-- z0&#45;&gt;0 -->
<g id="edge2" class="edge">
<title>z0&#45;&gt;0</title>
<path fill="none" stroke="#000000" d="M1613.5,-1067.42C1572.42,-1071.02 1490.57,-1073.18 1430.97,-1042.41 1411.86,-1032.54 1395.68,-1014.87 1383.91,-998.94"/>
<polygon fill="#000000" stroke="#000000" points="1386.46,-996.49 1377.84,-990.33 1380.74,-1000.52 1386.46,-996.49"/>
<text text-anchor="middle" x="1509.97" y="-1218.81" font-family="Times,serif" font-size="32.00">Mary |</text>
<text text-anchor="middle" x="1509.97" y="-1183.81" font-family="Times,serif" font-size="32.00"> John |</text>
<text text-anchor="middle" x="1509.97" y="-1148.81" font-family="Times,serif" font-size="32.00"> Alice |</text>
<text text-anchor="middle" x="1509.97" y="-1113.81" font-family="Times,serif" font-size="32.00"> Bob</text>
<text text-anchor="middle" x="1509.97" y="-1078.81" font-family="Times,serif" font-size="32.00">0</text>
</g>
<!-- n -->
<g id="node5" class="node">
<title>n</title>
<ellipse fill="none" stroke="black" cx="1640.21" cy="-866.41" rx="27" ry="30.31"/>
<text text-anchor="middle" x="1640.21" y="-858.31" font-family="Times,serif" font-size="32.00">n</text>
</g>
<!-- n&#45;&gt;0 -->
<g id="edge3" class="edge">
<title>n&#45;&gt;0</title>
<path fill="none" stroke="#000000" d="M1613.98,-858.64C1572.87,-847.54 1490.1,-831.74 1430.97,-863.41 1405.59,-877 1388.06,-904.73 1377.18,-927.85"/>
<polygon fill="#000000" stroke="#000000" points="1373.93,-926.54 1373.06,-937.1 1380.33,-929.39 1373.93,-926.54"/>
<text text-anchor="middle" x="1509.97" y="-1012.81" font-family="Times,serif" font-size="32.00">this |</text>
<text text-anchor="middle" x="1509.97" y="-977.81" font-family="Times,serif" font-size="32.00"> a |</text>
<text text-anchor="middle" x="1509.97" y="-942.81" font-family="Times,serif" font-size="32.00"> the |</text>
<text text-anchor="middle" x="1509.97" y="-907.81" font-family="Times,serif" font-size="32.00"> some</text>
<text text-anchor="middle" x="1509.97" y="-872.81" font-family="Times,serif" font-size="32.00">=n 0</text>
</g>
<!-- z1 -->
<g id="node6" class="node">
<title>z1</title>
<ellipse fill="none" stroke="black" stroke-dasharray="5,2" cx="1842.44" cy="-866.41" rx="27" ry="18"/>
</g>
<!-- z1&#45;&gt;n -->
<g id="edge4" class="edge">
<title>z1&#45;&gt;n</title>
<path fill="none" stroke="#000000" d="M1815.26,-866.41C1780.04,-866.41 1717.22,-866.41 1677.46,-866.41"/>
<polygon fill="#000000" stroke="#000000" points="1677.39,-862.91 1667.39,-866.41 1677.39,-869.91 1677.39,-862.91"/>
<text text-anchor="middle" x="1744.44" y="-945.81" font-family="Times,serif" font-size="32.00">boy |</text>
<text text-anchor="middle" x="1744.44" y="-910.81" font-family="Times,serif" font-size="32.00"> girl</text>
<text text-anchor="middle" x="1744.44" y="-875.81" font-family="Times,serif" font-size="32.00">n</text>
</g>
<!-- 1 -->
<g id="node7" class="node">
<title>1</title>
<ellipse fill="none" stroke="black" cx="28.99" cy="-531.41" rx="27" ry="30.31"/>
<text text-anchor="middle" x="28.99" y="-523.31" font-family="Times,serif" font-size="32.00">1</text>
</g>
<!-- 1&#45;&gt;t -->
<g id="edge5" class="edge">
<title>1&#45;&gt;t</title>
<path fill="none" stroke="#000000" d="M33.68,-561.58C44.3,-633.37 81.89,-808.41 195.98,-808.41 1641.21,-808.41 1641.21,-808.41 1641.21,-808.41 1715.75,-808.41 1740.44,-795.44 1797.44,-747.41 1809.1,-737.58 1818.49,-723.85 1825.57,-710.94"/>
<polygon fill="#000000" stroke="#000000" points="1828.83,-712.24 1830.3,-701.75 1822.61,-709.03 1828.83,-712.24"/>
<text text-anchor="middle" x="878.15" y="-887.81" font-family="Times,serif" font-size="32.00">s |</text>
<text text-anchor="middle" x="878.15" y="-852.81" font-family="Times,serif" font-size="32.00"> d</text>
<text text-anchor="middle" x="878.15" y="-817.81" font-family="Times,serif" font-size="32.00">=&gt;1 +k t</text>
</g>
<!-- 2 -->
<g id="node8" class="node">
<title>2</title>
<ellipse fill="none" stroke="black" cx="1362.06" cy="-411.41" rx="27" ry="30.31"/>
<text text-anchor="middle" x="1362.06" y="-403.31" font-family="Times,serif" font-size="32.00">2</text>
</g>
<!-- 3 -->
<g id="node9" class="node">
<title>3</title>
<ellipse fill="none" stroke="black" cx="1115.15" cy="-297.41" rx="27" ry="30.31"/>
<text text-anchor="middle" x="1115.15" y="-289.31" font-family="Times,serif" font-size="32.00">3</text>
</g>
<!-- 2&#45;&gt;3 -->
<g id="edge6" class="edge">
<title>2&#45;&gt;3</title>
<path fill="none" stroke="#000000" d="M1334.77,-411.69C1293.79,-410.86 1213.85,-404.07 1160.15,-366.41 1148.47,-358.21 1139.18,-345.83 1132.21,-333.81"/>
<polygon fill="#000000" stroke="#000000" points="1135.16,-331.9 1127.33,-324.76 1129,-335.22 1135.16,-331.9"/>
<text text-anchor="middle" x="1226.65" y="-453.81" font-family="Times,serif" font-size="32.00">ε_1</text>
<text text-anchor="middle" x="1226.65" y="-418.81" font-family="Times,serif" font-size="32.00">=&gt;2 =d 3</text>
</g>
<!-- v -->
<g id="node11" class="node">
<title>v</title>
<ellipse fill="none" stroke="black" cx="196.98" cy="-391.41" rx="27" ry="30.31"/>
<text text-anchor="middle" x="196.98" y="-383.31" font-family="Times,serif" font-size="32.00">v</text>
</g>
<!-- 3&#45;&gt;v -->
<g id="edge8" class="edge">
<title>3&#45;&gt;v</title>
<path fill="none" stroke="#000000" d="M1088.54,-292.15C1045.5,-283.8 955.82,-268.41 879.15,-268.41 879.15,-268.41 879.15,-268.41 401.07,-268.41 328.53,-268.41 259.75,-326.53 223.84,-362.87"/>
<polygon fill="#000000" stroke="#000000" points="221.13,-360.64 216.69,-370.26 226.16,-365.51 221.13,-360.64"/>
<text text-anchor="middle" x="636.15" y="-312.81" font-family="Times,serif" font-size="32.00">ε_2</text>
<text text-anchor="middle" x="636.15" y="-277.81" font-family="Times,serif" font-size="32.00">=&gt;3 v</text>
</g>
<!-- prog -->
<g id="node12" class="node">
<title>prog</title>
<ellipse fill="none" stroke="black" cx="878.15" cy="-339.41" rx="52.15" ry="30.31"/>
<text text-anchor="middle" x="878.15" y="-331.31" font-family="Times,serif" font-size="32.00">prog</text>
</g>
<!-- 3&#45;&gt;prog -->
<g id="edge9" class="edge">
<title>3&#45;&gt;prog</title>
<path fill="none" stroke="#000000" d="M1088.1,-302.06C1052.29,-308.46 986.81,-320.16 938.67,-328.77"/>
<polygon fill="#000000" stroke="#000000" points="937.9,-325.35 928.67,-330.55 939.13,-332.24 937.9,-325.35"/>
<text text-anchor="middle" x="1011.15" y="-370.81" font-family="Times,serif" font-size="32.00">ing</text>
<text text-anchor="middle" x="1011.15" y="-335.81" font-family="Times,serif" font-size="32.00">=&gt;3 prog</text>
</g>
<!-- perf -->
<g id="node13" class="node">
<title>perf</title>
<ellipse fill="none" stroke="black" cx="402.07" cy="-471.41" rx="48.17" ry="30.31"/>
<text text-anchor="middle" x="402.07" y="-463.31" font-family="Times,serif" font-size="32.00">perf</text>
</g>
<!-- 3&#45;&gt;perf -->
<g id="edge10" class="edge">
<title>3&#45;&gt;perf</title>
<path fill="none" stroke="#000000" d="M1109.26,-327.34C1103.82,-350.81 1092.62,-382.43 1070.15,-400.41 887.69,-546.34 581.55,-507.16 457.61,-483.37"/>
<polygon fill="#000000" stroke="#000000" points="458.09,-479.89 447.6,-481.4 456.74,-486.76 458.09,-479.89"/>
<text text-anchor="middle" x="748.15" y="-551.81" font-family="Times,serif" font-size="32.00">n</text>
<text text-anchor="middle" x="748.15" y="-516.81" font-family="Times,serif" font-size="32.00">=&gt;3 perf</text>
</g>
<!-- z2 -->
<g id="node10" class="node">
<title>z2</title>
<ellipse fill="none" stroke="black" stroke-dasharray="5,2" cx="1640.21" cy="-420.41" rx="27" ry="18"/>
</g>
<!-- z2&#45;&gt;2 -->
<g id="edge7" class="edge">
<title>z2&#45;&gt;2</title>
<path fill="none" stroke="#000000" d="M1613.23,-419.56C1563.78,-417.95 1456.04,-414.44 1399.45,-412.59"/>
<polygon fill="#000000" stroke="#000000" points="1399.28,-409.08 1389.17,-412.26 1399.05,-416.08 1399.28,-409.08"/>
<text text-anchor="middle" x="1509.97" y="-568.81" font-family="Times,serif" font-size="32.00">dance |</text>
<text text-anchor="middle" x="1509.97" y="-533.81" font-family="Times,serif" font-size="32.00"> laugh |</text>
<text text-anchor="middle" x="1509.97" y="-498.81" font-family="Times,serif" font-size="32.00"> smile |</text>
<text text-anchor="middle" x="1509.97" y="-463.81" font-family="Times,serif" font-size="32.00"> jump</text>
<text text-anchor="middle" x="1509.97" y="-428.81" font-family="Times,serif" font-size="32.00">2</text>
</g>
<!-- v&#45;&gt;1 -->
<g id="edge15" class="edge">
<title>v&#45;&gt;1</title>
<path fill="none" stroke="#000000" d="M172.73,-405.9C166.17,-409.63 158.93,-413.43 151.98,-416.41 119.55,-430.32 102.96,-416.66 75.98,-439.41 59.67,-453.16 48.56,-474.13 41.36,-492.57"/>
<polygon fill="#000000" stroke="#000000" points="37.98,-491.62 37.84,-502.22 44.56,-494.02 37.98,-491.62"/>
<text text-anchor="middle" x="113.98" y="-483.81" font-family="Times,serif" font-size="32.00">will</text>
<text text-anchor="middle" x="113.98" y="-448.81" font-family="Times,serif" font-size="32.00">=v 1</text>
</g>
<!-- v&#45;&gt;1 -->
<g id="edge23" class="edge">
<title>v&#45;&gt;1</title>
<path fill="none" stroke="#000000" d="M193.03,-421.6C188.7,-448.75 178.07,-487.6 151.98,-509.41 128.22,-529.26 92.63,-533.75 66.01,-533.87"/>
<polygon fill="#000000" stroke="#000000" points="65.99,-530.37 55.94,-533.71 65.88,-537.37 65.99,-530.37"/>
<text text-anchor="middle" x="113.98" y="-578.81" font-family="Times,serif" font-size="32.00">ε_7</text>
<text text-anchor="middle" x="113.98" y="-543.81" font-family="Times,serif" font-size="32.00">=&gt;v 1</text>
</g>
<!-- to -->
<g id="node23" class="node">
<title>to</title>
<ellipse fill="none" stroke="black" cx="28.99" cy="-345.41" rx="28.98" ry="30.31"/>
<text text-anchor="middle" x="28.99" y="-337.31" font-family="Times,serif" font-size="32.00">to</text>
</g>
<!-- v&#45;&gt;to -->
<g id="edge26" class="edge">
<title>v&#45;&gt;to</title>
<path fill="none" stroke="#000000" d="M179.34,-367.83C172.01,-359.44 162.64,-350.94 151.98,-346.41 125.55,-335.16 92.89,-335.55 68.01,-338.4"/>
<polygon fill="#000000" stroke="#000000" points="67.32,-334.96 57.87,-339.75 68.24,-341.9 67.32,-334.96"/>
<text text-anchor="middle" x="113.98" y="-390.81" font-family="Times,serif" font-size="32.00">to</text>
<text text-anchor="middle" x="113.98" y="-355.81" font-family="Times,serif" font-size="32.00">=v to</text>
</g>
<!-- 5 -->
<g id="node18" class="node">
<title>5</title>
<ellipse fill="none" stroke="black" cx="636.15" cy="-386.41" rx="27" ry="30.31"/>
<text text-anchor="middle" x="636.15" y="-378.31" font-family="Times,serif" font-size="32.00">5</text>
</g>
<!-- prog&#45;&gt;5 -->
<g id="edge16" class="edge">
<title>prog&#45;&gt;5</title>
<path fill="none" stroke="#000000" d="M828.29,-348.97C782.18,-358 714.12,-371.33 672.88,-379.41"/>
<polygon fill="#000000" stroke="#000000" points="672.14,-375.99 663,-381.34 673.49,-382.86 672.14,-375.99"/>
<text text-anchor="middle" x="748.15" y="-419.81" font-family="Times,serif" font-size="32.00">be</text>
<text text-anchor="middle" x="748.15" y="-384.81" font-family="Times,serif" font-size="32.00">=prog 5</text>
</g>
<!-- perf&#45;&gt;v -->
<g id="edge24" class="edge">
<title>perf&#45;&gt;v</title>
<path fill="none" stroke="#000000" d="M360.94,-455.6C323.33,-440.78 267.7,-418.87 232.15,-404.87"/>
<polygon fill="#000000" stroke="#000000" points="233.28,-401.55 222.69,-401.14 230.71,-408.06 233.28,-401.55"/>
<text text-anchor="middle" x="288.98" y="-490.81" font-family="Times,serif" font-size="32.00">have</text>
<text text-anchor="middle" x="288.98" y="-455.81" font-family="Times,serif" font-size="32.00">=perf v</text>
</g>
<!-- 4 -->
<g id="node14" class="node">
<title>4</title>
<ellipse fill="none" stroke="black" cx="1640.21" cy="-281.41" rx="27" ry="30.31"/>
<text text-anchor="middle" x="1640.21" y="-273.31" font-family="Times,serif" font-size="32.00">4</text>
</g>
<!-- 4&#45;&gt;2 -->
<g id="edge11" class="edge">
<title>4&#45;&gt;2</title>
<path fill="none" stroke="#000000" d="M1615.4,-294.14C1607.2,-298.17 1597.84,-302.35 1588.97,-305.41 1520.97,-328.84 1493.65,-305.12 1430.97,-340.41 1413.58,-350.2 1397.89,-365.88 1385.99,-380.01"/>
<polygon fill="#000000" stroke="#000000" points="1383.02,-378.13 1379.44,-388.1 1388.45,-382.53 1383.02,-378.13"/>
<text text-anchor="middle" x="1509.97" y="-384.81" font-family="Times,serif" font-size="32.00">ε_3</text>
<text text-anchor="middle" x="1509.97" y="-349.81" font-family="Times,serif" font-size="32.00">=&gt;4 =d *k 2</text>
</g>
<!-- pass -->
<g id="node16" class="node">
<title>pass</title>
<ellipse fill="none" stroke="black" cx="1362.06" cy="-265.41" rx="50.82" ry="30.31"/>
<text text-anchor="middle" x="1362.06" y="-257.31" font-family="Times,serif" font-size="32.00">pass</text>
</g>
<!-- 4&#45;&gt;pass -->
<g id="edge13" class="edge">
<title>4&#45;&gt;pass</title>
<path fill="none" stroke="#000000" d="M1621.58,-259.16C1612.87,-249.95 1601.54,-240.29 1588.97,-235.41 1523.52,-209.97 1499.68,-220.91 1430.97,-235.41 1424.19,-236.84 1417.27,-238.99 1410.56,-241.5"/>
<polygon fill="#000000" stroke="#000000" points="1408.88,-238.4 1400.92,-245.38 1411.5,-244.89 1408.88,-238.4"/>
<text text-anchor="middle" x="1509.97" y="-279.81" font-family="Times,serif" font-size="32.00">n_1</text>
<text text-anchor="middle" x="1509.97" y="-244.81" font-family="Times,serif" font-size="32.00">=&gt;4 =d pass</text>
</g>
<!-- z3 -->
<g id="node15" class="node">
<title>z3</title>
<ellipse fill="none" stroke="black" stroke-dasharray="5,2" cx="1842.44" cy="-281.41" rx="27" ry="18"/>
</g>
<!-- z3&#45;&gt;4 -->
<g id="edge12" class="edge">
<title>z3&#45;&gt;4</title>
<path fill="none" stroke="#000000" d="M1815.26,-281.41C1780.04,-281.41 1717.22,-281.41 1677.46,-281.41"/>
<polygon fill="#000000" stroke="#000000" points="1677.39,-277.91 1667.39,-281.41 1677.39,-284.91 1677.39,-277.91"/>
<text text-anchor="middle" x="1744.44" y="-430.81" font-family="Times,serif" font-size="32.00">praise |</text>
<text text-anchor="middle" x="1744.44" y="-395.81" font-family="Times,serif" font-size="32.00"> like |</text>
<text text-anchor="middle" x="1744.44" y="-360.81" font-family="Times,serif" font-size="32.00"> kiss |</text>
<text text-anchor="middle" x="1744.44" y="-325.81" font-family="Times,serif" font-size="32.00"> hug</text>
<text text-anchor="middle" x="1744.44" y="-290.81" font-family="Times,serif" font-size="32.00">4</text>
</g>
<!-- pass&#45;&gt;3 -->
<g id="edge19" class="edge">
<title>pass&#45;&gt;3</title>
<path fill="none" stroke="#000000" d="M1312.48,-272.69C1305.99,-273.63 1299.41,-274.56 1293.15,-275.41 1244.42,-282.02 1188.02,-288.9 1152.23,-293.16"/>
<polygon fill="#000000" stroke="#000000" points="1151.78,-289.69 1142.26,-294.35 1152.61,-296.64 1151.78,-289.69"/>
<text text-anchor="middle" x="1226.65" y="-336.81" font-family="Times,serif" font-size="32.00">be_1</text>
<text text-anchor="middle" x="1226.65" y="-301.81" font-family="Times,serif" font-size="32.00">=pass 3</text>
</g>
<!-- c2&#45;&gt;2 -->
<g id="edge14" class="edge">
<title>c2&#45;&gt;2</title>
<path fill="none" stroke="#000000" d="M1619.75,-643.3C1611.25,-634.37 1600.57,-625.06 1588.97,-619.41 1525.19,-588.31 1486.07,-641.12 1430.97,-596.41 1387.29,-560.95 1371.7,-494.71 1366.14,-451.87"/>
<polygon fill="#000000" stroke="#000000" points="1369.6,-451.3 1364.96,-441.77 1362.65,-452.11 1369.6,-451.3"/>
<text text-anchor="middle" x="1509.97" y="-768.81" font-family="Times,serif" font-size="32.00">declare |</text>
<text text-anchor="middle" x="1509.97" y="-733.81" font-family="Times,serif" font-size="32.00"> think |</text>
<text text-anchor="middle" x="1509.97" y="-698.81" font-family="Times,serif" font-size="32.00"> explain |</text>
<text text-anchor="middle" x="1509.97" y="-663.81" font-family="Times,serif" font-size="32.00"> say</text>
<text text-anchor="middle" x="1509.97" y="-628.81" font-family="Times,serif" font-size="32.00">=c2 2</text>
</g>
<!-- 5&#45;&gt;v -->
<g id="edge17" class="edge">
<title>5&#45;&gt;v</title>
<path fill="none" stroke="#000000" d="M610.65,-376.21C601.28,-372.78 590.38,-369.33 580.15,-367.41 481.33,-348.86 454.1,-353.18 353.98,-362.41 312.21,-366.26 264.93,-375.79 233.48,-382.88"/>
<polygon fill="#000000" stroke="#000000" points="232.42,-379.53 223.45,-385.18 233.98,-386.35 232.42,-379.53"/>
<text text-anchor="middle" x="402.07" y="-406.81" font-family="Times,serif" font-size="32.00">ε_4</text>
<text text-anchor="middle" x="402.07" y="-371.81" font-family="Times,serif" font-size="32.00">=&gt;5 v</text>
</g>
<!-- 5&#45;&gt;perf -->
<g id="edge18" class="edge">
<title>5&#45;&gt;perf</title>
<path fill="none" stroke="#000000" d="M609.84,-378.71C574.89,-369.71 511.28,-359.33 468.15,-387.41 451.81,-398.04 461.49,-411.55 450.15,-427.41 446.98,-431.84 443.3,-436.18 439.44,-440.31"/>
<polygon fill="#000000" stroke="#000000" points="436.89,-437.9 432.34,-447.46 441.86,-442.83 436.89,-437.9"/>
<text text-anchor="middle" x="524.15" y="-431.81" font-family="Times,serif" font-size="32.00">n_2</text>
<text text-anchor="middle" x="524.15" y="-396.81" font-family="Times,serif" font-size="32.00">=&gt;5 perf</text>
</g>
<!-- 6 -->
<g id="node19" class="node">
<title>6</title>
<ellipse fill="none" stroke="black" cx="1362.06" cy="-111.41" rx="27" ry="30.31"/>
<text text-anchor="middle" x="1362.06" y="-103.31" font-family="Times,serif" font-size="32.00">6</text>
</g>
<!-- 6&#45;&gt;3 -->
<g id="edge20" class="edge">
<title>6&#45;&gt;3</title>
<path fill="none" stroke="#000000" d="M1344.95,-135.2C1332.71,-151.28 1314.39,-171.49 1293.15,-182.41 1240.04,-209.7 1207.99,-165.68 1160.15,-201.41 1141.93,-215.01 1131.03,-237.97 1124.65,-258.03"/>
<polygon fill="#000000" stroke="#000000" points="1121.21,-257.3 1121.78,-267.88 1127.93,-259.26 1121.21,-257.3"/>
<text text-anchor="middle" x="1226.65" y="-245.81" font-family="Times,serif" font-size="32.00">ε_5</text>
<text text-anchor="middle" x="1226.65" y="-210.81" font-family="Times,serif" font-size="32.00">=&gt;6 =to 3</text>
</g>
<!-- 6&#45;&gt;3 -->
<g id="edge22" class="edge">
<title>6&#45;&gt;3</title>
<path fill="none" stroke="#000000" d="M1336.28,-102.03C1294.89,-88.14 1211.24,-67.84 1160.15,-108.41 1137.24,-126.59 1125.17,-207.07 1119.77,-256.96"/>
<polygon fill="#000000" stroke="#000000" points="1116.27,-256.8 1118.72,-267.11 1123.23,-257.52 1116.27,-256.8"/>
<text text-anchor="middle" x="1226.65" y="-152.81" font-family="Times,serif" font-size="32.00">ε_6</text>
<text text-anchor="middle" x="1226.65" y="-117.81" font-family="Times,serif" font-size="32.00">=&gt;6 =c1 3</text>
</g>
<!-- z4 -->
<g id="node20" class="node">
<title>z4</title>
<ellipse fill="none" stroke="black" stroke-dasharray="5,2" cx="1640.21" cy="-106.41" rx="27" ry="18"/>
</g>
<!-- z4&#45;&gt;6 -->
<g id="edge21" class="edge">
<title>z4&#45;&gt;6</title>
<path fill="none" stroke="#000000" d="M1612.9,-106.08C1573.39,-105.69 1496.37,-105.32 1430.97,-107.41 1420.72,-107.73 1409.61,-108.3 1399.4,-108.9"/>
<polygon fill="#000000" stroke="#000000" points="1398.93,-105.42 1389.17,-109.54 1399.37,-112.41 1398.93,-105.42"/>
<text text-anchor="middle" x="1509.97" y="-186.81" font-family="Times,serif" font-size="32.00">seem |</text>
<text text-anchor="middle" x="1509.97" y="-151.81" font-family="Times,serif" font-size="32.00"> appear</text>
<text text-anchor="middle" x="1509.97" y="-116.81" font-family="Times,serif" font-size="32.00">6</text>
</g>
<!-- z5 -->
<g id="node21" class="node">
<title>z5</title>
<ellipse fill="none" stroke="black" stroke-dasharray="5,2" cx="1842.44" cy="-1130.41" rx="27" ry="18"/>
</g>
<!-- e -->
<g id="node22" class="node">
<title>e</title>
<ellipse fill="none" stroke="black" cx="1640.21" cy="-1130.41" rx="27" ry="30.31"/>
<text text-anchor="middle" x="1640.21" y="-1122.31" font-family="Times,serif" font-size="32.00">e</text>
</g>
<!-- z5&#45;&gt;e -->
<g id="edge25" class="edge">
<title>z5&#45;&gt;e</title>
<path fill="none" stroke="#000000" d="M1815.26,-1130.41C1780.04,-1130.41 1717.22,-1130.41 1677.46,-1130.41"/>
<polygon fill="#000000" stroke="#000000" points="1677.39,-1126.91 1667.39,-1130.41 1677.39,-1133.91 1677.39,-1126.91"/>
<text text-anchor="middle" x="1744.44" y="-1174.81" font-family="Times,serif" font-size="32.00">it</text>
<text text-anchor="middle" x="1744.44" y="-1139.81" font-family="Times,serif" font-size="32.00">e &#45;k</text>
</g>
</g>
</svg>
