<?xml version="1.0" encoding="UTF-8" standalone="no"?>
<!DOCTYPE svg PUBLIC "-//W3C//DTD SVG 1.1//EN"
 "http://www.w3.org/Graphics/SVG/1.1/DTD/svg11.dtd">
<!-- Generated by graphviz version 2.47.1 (20210417.1919)
 -->
<!-- Title: G Pages: 1 -->
<svg width="2014pt" height="1252pt"
 viewBox="0.00 0.00 2014.09 1252.41" xmlns="http://www.w3.org/2000/svg" xmlns:xlink="http://www.w3.org/1999/xlink">
<g id="graph0" class="graph" transform="scale(1 1) rotate(0) translate(4 1248.41)">
<title>G</title>
<polygon fill="white" stroke="transparent" points="-4,4 -4,-1248.41 2010.09,-1248.41 2010.09,4 -4,4"/>
<text text-anchor="middle" x="1003.05" y="-13.4" font-family="Times,serif" font-size="32.00">decomposition: n =&gt;3 perf, n =&gt;5 perf</text>
<!-- t -->
<g id="node1" class="node">
<title>t</title>
<ellipse fill="lightgray" stroke="black" cx="1979.09" cy="-674.41" rx="27" ry="30.31"/>
<text text-anchor="middle" x="1979.09" y="-666.31" font-family="Times,serif" font-size="32.00">t</text>
</g>
<!-- c2 -->
<g id="node18" class="node">
<title>c2</title>
<ellipse fill="none" stroke="black" cx="1776.86" cy="-667.41" rx="33.47" ry="30.31"/>
<text text-anchor="middle" x="1776.86" y="-659.31" font-family="Times,serif" font-size="32.00">c2</text>
</g>
<!-- t&#45;&gt;c2 -->
<g id="edge29" class="edge">
<title>t&#45;&gt;c2</title>
<path fill="none" stroke="#000000" d="M1951.92,-673.49C1918.54,-672.32 1860.39,-670.29 1820.55,-668.9"/>
<polygon fill="#000000" stroke="#000000" points="1820.46,-665.39 1810.35,-668.54 1820.22,-672.39 1820.46,-665.39"/>
<text text-anchor="middle" x="1881.09" y="-717.81" font-family="Times,serif" font-size="32.00">that_1</text>
<text text-anchor="middle" x="1881.09" y="-682.81" font-family="Times,serif" font-size="32.00">=t c2</text>
</g>
<!-- c1 -->
<g id="node25" class="node">
<title>c1</title>
<ellipse fill="none" stroke="black" cx="1776.86" cy="-581.41" rx="33.47" ry="30.31"/>
<text text-anchor="middle" x="1776.86" y="-573.31" font-family="Times,serif" font-size="32.00">c1</text>
</g>
<!-- t&#45;&gt;c1 -->
<g id="edge28" class="edge">
<title>t&#45;&gt;c1</title>
<path fill="none" stroke="#000000" d="M1969.66,-645.49C1962.96,-627.97 1951.73,-606.86 1934.09,-595.41 1900.25,-573.43 1853.25,-572.2 1819.65,-575.07"/>
<polygon fill="#000000" stroke="#000000" points="1819.28,-571.59 1809.69,-576.07 1819.99,-578.55 1819.28,-571.59"/>
<text text-anchor="middle" x="1881.09" y="-639.81" font-family="Times,serif" font-size="32.00">that</text>
<text text-anchor="middle" x="1881.09" y="-604.81" font-family="Times,serif" font-size="32.00">=t =e c1</text>
</g>
<!-- 0 -->
<g id="node2" class="node">
<title>0</title>
<ellipse fill="none" stroke="black" cx="1498.71" cy="-965.41" rx="27" ry="30.31"/>
<text text-anchor="middle" x="1498.71" y="-957.31" font-family="Times,serif" font-size="32.00">0</text>
</g>
<!-- d -->
<g id="node3" class="node">
<title>d</title>
<ellipse fill="none" stroke="black" cx="1251.8" cy="-965.41" rx="27" ry="30.31"/>
<text text-anchor="middle" x="1251.8" y="-957.31" font-family="Times,serif" font-size="32.00">d</text>
</g>
<!-- 0&#45;&gt;d -->
<g id="edge1" class="edge">
<title>0&#45;&gt;d</title>
<path fill="none" stroke="#000000" d="M1471.5,-965.41C1427.49,-965.41 1338.68,-965.41 1288.84,-965.41"/>
<polygon fill="#000000" stroke="#000000" points="1288.82,-961.91 1278.82,-965.41 1288.82,-968.91 1288.82,-961.91"/>
<text text-anchor="middle" x="1363.3" y="-1009.81" font-family="Times,serif" font-size="32.00">ε_0</text>
<text text-anchor="middle" x="1363.3" y="-974.81" font-family="Times,serif" font-size="32.00">=&gt;0 d &#45;k</text>
</g>
<!-- z0 -->
<g id="node4" class="node">
<title>z0</title>
<ellipse fill="none" stroke="black" stroke-dasharray="5,2" cx="1776.86" cy="-1064.41" rx="27" ry="18"/>
</g>
<!-- z0&#45;&gt;0 -->
<g id="edge2" class="edge">
<title>z0&#45;&gt;0</title>
<path fill="none" stroke="#000000" d="M1750.15,-1067.42C1709.07,-1071.02 1627.22,-1073.18 1567.62,-1042.41 1548.52,-1032.54 1532.33,-1014.87 1520.56,-998.94"/>
<polygon fill="#000000" stroke="#000000" points="1523.11,-996.49 1514.49,-990.33 1517.4,-1000.52 1523.11,-996.49"/>
<text text-anchor="middle" x="1646.62" y="-1218.81" font-family="Times,serif" font-size="32.00">Mary |</text>
<text text-anchor="middle" x="1646.62" y="-1183.81" font-family="Times,serif" font-size="32.00"> John |</text>
<text text-anchor="middle" x="1646.62" y="-1148.81" font-family="Times,serif" font-size="32.00"> Alice |</text>
<text text-anchor="middle" x="1646.62" y="-1113.81" font-family="Times,serif" font-size="32.00"> Bob</text>
<text text-anchor="middle" x="1646.62" y="-1078.81" font-family="Times,serif" font-size="32.00">0</text>
</g>
<!-- n -->
<g id="node5" class="node">
<title>n</title>
<ellipse fill="none" stroke="black" cx="1776.86" cy="-866.41" rx="27" ry="30.31"/>
<text text-anchor="middle" x="1776.86" y="-858.31" font-family="Times,serif" font-size="32.00">n</text>
</g>
<!-- n&#45;&gt;0 -->
<g id="edge3" class="edge">
<title>n&#45;&gt;0</title>
<path fill="none" stroke="#000000" d="M1750.63,-858.64C1709.52,-847.54 1626.75,-831.74 1567.62,-863.41 1542.24,-877 1524.71,-904.73 1513.83,-927.85"/>
<polygon fill="#000000" stroke="#000000" points="1510.59,-926.54 1509.71,-937.1 1516.98,-929.39 1510.59,-926.54"/>
<text text-anchor="middle" x="1646.62" y="-1012.81" font-family="Times,serif" font-size="32.00">this |</text>
<text text-anchor="middle" x="1646.62" y="-977.81" font-family="Times,serif" font-size="32.00"> a |</text>
<text text-anchor="middle" x="1646.62" y="-942.81" font-family="Times,serif" font-size="32.00"> the |</text>
<text text-anchor="middle" x="1646.62" y="-907.81" font-family="Times,serif" font-size="32.00"> some</text>
<text text-anchor="middle" x="1646.62" y="-872.81" font-family="Times,serif" font-size="32.00">=n 0</text>
</g>
<!-- z1 -->
<g id="node6" class="node">
<title>z1</title>
<ellipse fill="none" stroke="black" stroke-dasharray="5,2" cx="1979.09" cy="-866.41" rx="27" ry="18"/>
</g>
<!-- z1&#45;&gt;n -->
<g id="edge4" class="edge">
<title>z1&#45;&gt;n</title>
<path fill="none" stroke="#000000" d="M1951.92,-866.41C1916.69,-866.41 1853.87,-866.41 1814.11,-866.41"/>
<polygon fill="#000000" stroke="#000000" points="1814.04,-862.91 1804.04,-866.41 1814.04,-869.91 1814.04,-862.91"/>
<text text-anchor="middle" x="1881.09" y="-945.81" font-family="Times,serif" font-size="32.00">boy |</text>
<text text-anchor="middle" x="1881.09" y="-910.81" font-family="Times,serif" font-size="32.00"> girl</text>
<text text-anchor="middle" x="1881.09" y="-875.81" font-family="Times,serif" font-size="32.00">n</text>
</g>
<!-- 1 -->
<g id="node7" class="node">
<title>1</title>
<ellipse fill="none" stroke="black" cx="28.99" cy="-539.41" rx="27" ry="30.31"/>
<text text-anchor="middle" x="28.99" y="-531.31" font-family="Times,serif" font-size="32.00">1</text>
</g>
<!-- 1&#45;&gt;t -->
<g id="edge5" class="edge">
<title>1&#45;&gt;t</title>
<path fill="none" stroke="#000000" d="M34.11,-569.48C45.58,-639.67 84.72,-808.41 195.98,-808.41 1777.86,-808.41 1777.86,-808.41 1777.86,-808.41 1852.4,-808.41 1877.09,-795.44 1934.09,-747.41 1945.75,-737.58 1955.15,-723.85 1962.22,-710.94"/>
<polygon fill="#000000" stroke="#000000" points="1965.48,-712.24 1966.95,-701.75 1959.26,-709.03 1965.48,-712.24"/>
<text text-anchor="middle" x="892.15" y="-887.81" font-family="Times,serif" font-size="32.00">s |</text>
<text text-anchor="middle" x="892.15" y="-852.81" font-family="Times,serif" font-size="32.00"> d</text>
<text text-anchor="middle" x="892.15" y="-817.81" font-family="Times,serif" font-size="32.00">=&gt;1 +k t</text>
</g>
<!-- 2 -->
<g id="node8" class="node">
<title>2</title>
<ellipse fill="none" stroke="black" cx="1498.71" cy="-411.41" rx="27" ry="30.31"/>
<text text-anchor="middle" x="1498.71" y="-403.31" font-family="Times,serif" font-size="32.00">2</text>
</g>
<!-- 3 -->
<g id="node9" class="node">
<title>3</title>
<ellipse fill="none" stroke="black" cx="1251.8" cy="-297.41" rx="27" ry="30.31"/>
<text text-anchor="middle" x="1251.8" y="-289.31" font-family="Times,serif" font-size="32.00">3</text>
</g>
<!-- 2&#45;&gt;3 -->
<g id="edge6" class="edge">
<title>2&#45;&gt;3</title>
<path fill="none" stroke="#000000" d="M1471.42,-411.69C1430.44,-410.86 1350.5,-404.07 1296.8,-366.41 1285.12,-358.21 1275.84,-345.83 1268.86,-333.81"/>
<polygon fill="#000000" stroke="#000000" points="1271.81,-331.9 1263.98,-324.76 1265.65,-335.22 1271.81,-331.9"/>
<text text-anchor="middle" x="1363.3" y="-453.81" font-family="Times,serif" font-size="32.00">ε_1</text>
<text text-anchor="middle" x="1363.3" y="-418.81" font-family="Times,serif" font-size="32.00">=&gt;2 =d 3</text>
</g>
<!-- v -->
<g id="node11" class="node">
<title>v</title>
<ellipse fill="none" stroke="black" cx="196.98" cy="-399.41" rx="27" ry="30.31"/>
<text text-anchor="middle" x="196.98" y="-391.31" font-family="Times,serif" font-size="32.00">v</text>
</g>
<!-- 3&#45;&gt;v -->
<g id="edge8" class="edge">
<title>3&#45;&gt;v</title>
<path fill="none" stroke="#000000" d="M1224.92,-292.02C1182.29,-283.63 1094.56,-268.41 1019.48,-268.41 1019.48,-268.41 1019.48,-268.41 401.07,-268.41 326.84,-268.41 258.21,-330.97 222.9,-369.62"/>
<polygon fill="#000000" stroke="#000000" points="219.93,-367.69 215.88,-377.48 225.15,-372.36 219.93,-367.69"/>
<text text-anchor="middle" x="708.15" y="-312.81" font-family="Times,serif" font-size="32.00">ε_2</text>
<text text-anchor="middle" x="708.15" y="-277.81" font-family="Times,serif" font-size="32.00">=&gt;3 v</text>
</g>
<!-- prog -->
<g id="node12" class="node">
<title>prog</title>
<ellipse fill="none" stroke="black" cx="1018.48" cy="-339.41" rx="52.15" ry="30.31"/>
<text text-anchor="middle" x="1018.48" y="-331.31" font-family="Times,serif" font-size="32.00">prog</text>
</g>
<!-- 3&#45;&gt;prog -->
<g id="edge9" class="edge">
<title>3&#45;&gt;prog</title>
<path fill="none" stroke="#000000" d="M1224.71,-302.14C1189.6,-308.52 1126.1,-320.05 1079,-328.6"/>
<polygon fill="#000000" stroke="#000000" points="1078.12,-325.2 1068.91,-330.43 1079.38,-332.09 1078.12,-325.2"/>
<text text-anchor="middle" x="1147.8" y="-370.81" font-family="Times,serif" font-size="32.00">ing</text>
<text text-anchor="middle" x="1147.8" y="-335.81" font-family="Times,serif" font-size="32.00">=&gt;3 prog</text>
</g>
<!-- 4 -->
<g id="node13" class="node">
<title>4</title>
<ellipse fill="none" stroke="black" cx="625.15" cy="-446.41" rx="27" ry="30.31"/>
<text text-anchor="middle" x="625.15" y="-438.31" font-family="Times,serif" font-size="32.00">4</text>
</g>
<!-- 3&#45;&gt;4 -->
<g id="edge11" class="edge">
<title>3&#45;&gt;4</title>
<path fill="none" stroke="#f7931d" stroke-width="2" d="M1246.3,-327.22C1241.06,-350.95 1229.95,-382.98 1206.8,-400.41 1041.96,-524.45 952.05,-444.71 746.15,-457.41 712.44,-459.48 703.67,-461.53 670.15,-457.41 667.29,-457.05 664.35,-456.58 661.41,-456.02"/>
<polygon fill="#f7931d" stroke="#f7931d" stroke-width="2" points="662.06,-452.58 651.54,-453.88 660.57,-459.42 662.06,-452.58"/>
<text text-anchor="middle" x="892.15" y="-511.81" font-family="Times,serif" font-size="32.00">ε_3</text>
<text text-anchor="middle" x="892.15" y="-476.81" font-family="Times,serif" font-size="32.00">=&gt;3 4</text>
</g>
<!-- z2 -->
<g id="node10" class="node">
<title>z2</title>
<ellipse fill="none" stroke="black" stroke-dasharray="5,2" cx="1776.86" cy="-420.41" rx="27" ry="18"/>
</g>
<!-- z2&#45;&gt;2 -->
<g id="edge7" class="edge">
<title>z2&#45;&gt;2</title>
<path fill="none" stroke="#000000" d="M1749.88,-419.56C1700.43,-417.95 1592.7,-414.44 1536.1,-412.59"/>
<polygon fill="#000000" stroke="#000000" points="1535.93,-409.08 1525.82,-412.26 1535.7,-416.08 1535.93,-409.08"/>
<text text-anchor="middle" x="1646.62" y="-568.81" font-family="Times,serif" font-size="32.00">dance |</text>
<text text-anchor="middle" x="1646.62" y="-533.81" font-family="Times,serif" font-size="32.00"> laugh |</text>
<text text-anchor="middle" x="1646.62" y="-498.81" font-family="Times,serif" font-size="32.00"> smile |</text>
<text text-anchor="middle" x="1646.62" y="-463.81" font-family="Times,serif" font-size="32.00"> jump</text>
<text text-anchor="middle" x="1646.62" y="-428.81" font-family="Times,serif" font-size="32.00">2</text>
</g>
<!-- v&#45;&gt;1 -->
<g id="edge16" class="edge">
<title>v&#45;&gt;1</title>
<path fill="none" stroke="#000000" d="M172.73,-413.9C166.17,-417.63 158.93,-421.43 151.98,-424.41 119.55,-438.32 102.96,-424.66 75.98,-447.41 59.67,-461.16 48.56,-482.13 41.36,-500.57"/>
<polygon fill="#000000" stroke="#000000" points="37.98,-499.62 37.84,-510.22 44.56,-502.02 37.98,-499.62"/>
<text text-anchor="middle" x="113.98" y="-491.81" font-family="Times,serif" font-size="32.00">will</text>
<text text-anchor="middle" x="113.98" y="-456.81" font-family="Times,serif" font-size="32.00">=v 1</text>
</g>
<!-- v&#45;&gt;1 -->
<g id="edge24" class="edge">
<title>v&#45;&gt;1</title>
<path fill="none" stroke="#000000" d="M193.03,-429.6C188.7,-456.75 178.07,-495.6 151.98,-517.41 128.22,-537.26 92.63,-541.75 66.01,-541.87"/>
<polygon fill="#000000" stroke="#000000" points="65.99,-538.37 55.94,-541.71 65.88,-545.37 65.99,-538.37"/>
<text text-anchor="middle" x="113.98" y="-586.81" font-family="Times,serif" font-size="32.00">ε_9</text>
<text text-anchor="middle" x="113.98" y="-551.81" font-family="Times,serif" font-size="32.00">=&gt;v 1</text>
</g>
<!-- to -->
<g id="node24" class="node">
<title>to</title>
<ellipse fill="none" stroke="black" cx="28.99" cy="-353.41" rx="28.98" ry="30.31"/>
<text text-anchor="middle" x="28.99" y="-345.31" font-family="Times,serif" font-size="32.00">to</text>
</g>
<!-- v&#45;&gt;to -->
<g id="edge27" class="edge">
<title>v&#45;&gt;to</title>
<path fill="none" stroke="#000000" d="M179.34,-375.83C172.01,-367.44 162.64,-358.94 151.98,-354.41 125.55,-343.16 92.89,-343.55 68.01,-346.4"/>
<polygon fill="#000000" stroke="#000000" points="67.32,-342.96 57.87,-347.75 68.24,-349.9 67.32,-342.96"/>
<text text-anchor="middle" x="113.98" y="-398.81" font-family="Times,serif" font-size="32.00">to</text>
<text text-anchor="middle" x="113.98" y="-363.81" font-family="Times,serif" font-size="32.00">=v to</text>
</g>
<!-- 6 -->
<g id="node19" class="node">
<title>6</title>
<ellipse fill="none" stroke="black" cx="791.15" cy="-353.41" rx="27" ry="30.31"/>
<text text-anchor="middle" x="791.15" y="-345.31" font-family="Times,serif" font-size="32.00">6</text>
</g>
<!-- prog&#45;&gt;6 -->
<g id="edge17" class="edge">
<title>prog&#45;&gt;6</title>
<path fill="none" stroke="#000000" d="M966.35,-342.58C924.39,-345.19 866.02,-348.82 828.65,-351.14"/>
<polygon fill="#000000" stroke="#000000" points="828,-347.67 818.24,-351.78 828.44,-354.66 828,-347.67"/>
<text text-anchor="middle" x="892.15" y="-394.81" font-family="Times,serif" font-size="32.00">be</text>
<text text-anchor="middle" x="892.15" y="-359.81" font-family="Times,serif" font-size="32.00">=prog 6</text>
</g>
<!-- perf -->
<g id="node14" class="node">
<title>perf</title>
<ellipse fill="none" stroke="black" cx="402.07" cy="-429.41" rx="48.17" ry="30.31"/>
<text text-anchor="middle" x="402.07" y="-421.31" font-family="Times,serif" font-size="32.00">perf</text>
</g>
<!-- 4&#45;&gt;perf -->
<g id="edge10" class="edge">
<title>4&#45;&gt;perf</title>
<path fill="none" stroke="#f7931d" stroke-width="2" d="M597.92,-444.39C564.18,-441.79 504.62,-437.21 460.21,-433.8"/>
<polygon fill="#f7931d" stroke="#f7931d" stroke-width="2" points="460.36,-430.3 450.13,-433.02 459.83,-437.28 460.36,-430.3"/>
<text text-anchor="middle" x="524.15" y="-487.81" font-family="Times,serif" font-size="32.00">n</text>
<text text-anchor="middle" x="524.15" y="-452.81" font-family="Times,serif" font-size="32.00">=&gt;4 perf</text>
</g>
<!-- perf&#45;&gt;v -->
<g id="edge25" class="edge">
<title>perf&#45;&gt;v</title>
<path fill="none" stroke="#000000" d="M354.98,-422.6C318.29,-417.18 267.65,-409.7 233.92,-404.71"/>
<polygon fill="#000000" stroke="#000000" points="234.43,-401.25 224.02,-403.25 233.4,-408.18 234.43,-401.25"/>
<text text-anchor="middle" x="288.98" y="-464.81" font-family="Times,serif" font-size="32.00">have</text>
<text text-anchor="middle" x="288.98" y="-429.81" font-family="Times,serif" font-size="32.00">=perf v</text>
</g>
<!-- 5 -->
<g id="node15" class="node">
<title>5</title>
<ellipse fill="none" stroke="black" cx="1776.86" cy="-281.41" rx="27" ry="30.31"/>
<text text-anchor="middle" x="1776.86" y="-273.31" font-family="Times,serif" font-size="32.00">5</text>
</g>
<!-- 5&#45;&gt;2 -->
<g id="edge12" class="edge">
<title>5&#45;&gt;2</title>
<path fill="none" stroke="#000000" d="M1752.05,-294.14C1743.85,-298.17 1734.49,-302.35 1725.62,-305.41 1657.62,-328.84 1630.3,-305.12 1567.62,-340.41 1550.23,-350.2 1534.55,-365.88 1522.65,-380.01"/>
<polygon fill="#000000" stroke="#000000" points="1519.67,-378.13 1516.09,-388.1 1525.11,-382.53 1519.67,-378.13"/>
<text text-anchor="middle" x="1646.62" y="-384.81" font-family="Times,serif" font-size="32.00">ε_4</text>
<text text-anchor="middle" x="1646.62" y="-349.81" font-family="Times,serif" font-size="32.00">=&gt;5 =d *k 2</text>
</g>
<!-- pass -->
<g id="node17" class="node">
<title>pass</title>
<ellipse fill="none" stroke="black" cx="1498.71" cy="-265.41" rx="50.82" ry="30.31"/>
<text text-anchor="middle" x="1498.71" y="-257.31" font-family="Times,serif" font-size="32.00">pass</text>
</g>
<!-- 5&#45;&gt;pass -->
<g id="edge14" class="edge">
<title>5&#45;&gt;pass</title>
<path fill="none" stroke="#000000" d="M1758.24,-259.16C1749.53,-249.95 1738.19,-240.29 1725.62,-235.41 1660.17,-209.97 1636.33,-220.91 1567.62,-235.41 1560.85,-236.84 1553.92,-238.99 1547.21,-241.5"/>
<polygon fill="#000000" stroke="#000000" points="1545.53,-238.4 1537.57,-245.38 1548.15,-244.89 1545.53,-238.4"/>
<text text-anchor="middle" x="1646.62" y="-279.81" font-family="Times,serif" font-size="32.00">n_1</text>
<text text-anchor="middle" x="1646.62" y="-244.81" font-family="Times,serif" font-size="32.00">=&gt;5 =d pass</text>
</g>
<!-- z3 -->
<g id="node16" class="node">
<title>z3</title>
<ellipse fill="none" stroke="black" stroke-dasharray="5,2" cx="1979.09" cy="-281.41" rx="27" ry="18"/>
</g>
<!-- z3&#45;&gt;5 -->
<g id="edge13" class="edge">
<title>z3&#45;&gt;5</title>
<path fill="none" stroke="#000000" d="M1951.92,-281.41C1916.69,-281.41 1853.87,-281.41 1814.11,-281.41"/>
<polygon fill="#000000" stroke="#000000" points="1814.04,-277.91 1804.04,-281.41 1814.04,-284.91 1814.04,-277.91"/>
<text text-anchor="middle" x="1881.09" y="-430.81" font-family="Times,serif" font-size="32.00">praise |</text>
<text text-anchor="middle" x="1881.09" y="-395.81" font-family="Times,serif" font-size="32.00"> like |</text>
<text text-anchor="middle" x="1881.09" y="-360.81" font-family="Times,serif" font-size="32.00"> kiss |</text>
<text text-anchor="middle" x="1881.09" y="-325.81" font-family="Times,serif" font-size="32.00"> hug</text>
<text text-anchor="middle" x="1881.09" y="-290.81" font-family="Times,serif" font-size="32.00">5</text>
</g>
<!-- pass&#45;&gt;3 -->
<g id="edge20" class="edge">
<title>pass&#45;&gt;3</title>
<path fill="none" stroke="#000000" d="M1449.13,-272.69C1442.64,-273.63 1436.06,-274.56 1429.8,-275.41 1381.07,-282.02 1324.68,-288.9 1288.89,-293.16"/>
<polygon fill="#000000" stroke="#000000" points="1288.43,-289.69 1278.92,-294.35 1289.26,-296.64 1288.43,-289.69"/>
<text text-anchor="middle" x="1363.3" y="-336.81" font-family="Times,serif" font-size="32.00">be_1</text>
<text text-anchor="middle" x="1363.3" y="-301.81" font-family="Times,serif" font-size="32.00">=pass 3</text>
</g>
<!-- c2&#45;&gt;2 -->
<g id="edge15" class="edge">
<title>c2&#45;&gt;2</title>
<path fill="none" stroke="#000000" d="M1756.41,-643.3C1747.91,-634.37 1737.23,-625.06 1725.62,-619.41 1661.84,-588.31 1622.72,-641.12 1567.62,-596.41 1523.94,-560.95 1508.36,-494.71 1502.8,-451.87"/>
<polygon fill="#000000" stroke="#000000" points="1506.25,-451.3 1501.62,-441.77 1499.3,-452.11 1506.25,-451.3"/>
<text text-anchor="middle" x="1646.62" y="-768.81" font-family="Times,serif" font-size="32.00">declare |</text>
<text text-anchor="middle" x="1646.62" y="-733.81" font-family="Times,serif" font-size="32.00"> think |</text>
<text text-anchor="middle" x="1646.62" y="-698.81" font-family="Times,serif" font-size="32.00"> explain |</text>
<text text-anchor="middle" x="1646.62" y="-663.81" font-family="Times,serif" font-size="32.00"> say</text>
<text text-anchor="middle" x="1646.62" y="-628.81" font-family="Times,serif" font-size="32.00">=c2 2</text>
</g>
<!-- 6&#45;&gt;v -->
<g id="edge18" class="edge">
<title>6&#45;&gt;v</title>
<path fill="none" stroke="#000000" d="M763.8,-353.04C708.77,-352.49 577.66,-352.37 468.15,-361.41 383.8,-368.36 285.57,-384.12 233.94,-393.01"/>
<polygon fill="#000000" stroke="#000000" points="233.21,-389.58 223.95,-394.74 234.4,-396.48 233.21,-389.58"/>
<text text-anchor="middle" x="524.15" y="-405.81" font-family="Times,serif" font-size="32.00">ε_5</text>
<text text-anchor="middle" x="524.15" y="-370.81" font-family="Times,serif" font-size="32.00">=&gt;6 v</text>
</g>
<!-- 6&#45;&gt;4 -->
<g id="edge19" class="edge">
<title>6&#45;&gt;4</title>
<path fill="none" stroke="#f7931d" stroke-width="2" d="M764.62,-359.71C731.77,-367.96 678,-382 670.15,-387.41 660.64,-393.95 652.36,-403.23 645.63,-412.49"/>
<polygon fill="#f7931d" stroke="#f7931d" stroke-width="2" points="642.63,-410.68 639.9,-420.91 648.42,-414.62 642.63,-410.68"/>
<text text-anchor="middle" x="708.15" y="-431.81" font-family="Times,serif" font-size="32.00">ε_6</text>
<text text-anchor="middle" x="708.15" y="-396.81" font-family="Times,serif" font-size="32.00">=&gt;6 4</text>
</g>
<!-- 7 -->
<g id="node20" class="node">
<title>7</title>
<ellipse fill="none" stroke="black" cx="1498.71" cy="-111.41" rx="27" ry="30.31"/>
<text text-anchor="middle" x="1498.71" y="-103.31" font-family="Times,serif" font-size="32.00">7</text>
</g>
<!-- 7&#45;&gt;3 -->
<g id="edge21" class="edge">
<title>7&#45;&gt;3</title>
<path fill="none" stroke="#000000" d="M1481.6,-135.2C1469.36,-151.28 1451.04,-171.49 1429.8,-182.41 1376.69,-209.7 1344.64,-165.68 1296.8,-201.41 1278.58,-215.01 1267.69,-237.97 1261.3,-258.03"/>
<polygon fill="#000000" stroke="#000000" points="1257.86,-257.3 1258.43,-267.88 1264.58,-259.26 1257.86,-257.3"/>
<text text-anchor="middle" x="1363.3" y="-245.81" font-family="Times,serif" font-size="32.00">ε_7</text>
<text text-anchor="middle" x="1363.3" y="-210.81" font-family="Times,serif" font-size="32.00">=&gt;7 =to 3</text>
</g>
<!-- 7&#45;&gt;3 -->
<g id="edge23" class="edge">
<title>7&#45;&gt;3</title>
<path fill="none" stroke="#000000" d="M1472.93,-102.03C1431.55,-88.14 1347.89,-67.84 1296.8,-108.41 1273.89,-126.59 1261.82,-207.07 1256.42,-256.96"/>
<polygon fill="#000000" stroke="#000000" points="1252.92,-256.8 1255.37,-267.11 1259.88,-257.52 1252.92,-256.8"/>
<text text-anchor="middle" x="1363.3" y="-152.81" font-family="Times,serif" font-size="32.00">ε_8</text>
<text text-anchor="middle" x="1363.3" y="-117.81" font-family="Times,serif" font-size="32.00">=&gt;7 =c1 3</text>
</g>
<!-- z4 -->
<g id="node21" class="node">
<title>z4</title>
<ellipse fill="none" stroke="black" stroke-dasharray="5,2" cx="1776.86" cy="-106.41" rx="27" ry="18"/>
</g>
<!-- z4&#45;&gt;7 -->
<g id="edge22" class="edge">
<title>z4&#45;&gt;7</title>
<path fill="none" stroke="#000000" d="M1749.55,-106.08C1710.04,-105.69 1633.03,-105.32 1567.62,-107.41 1557.37,-107.73 1546.26,-108.3 1536.06,-108.9"/>
<polygon fill="#000000" stroke="#000000" points="1535.58,-105.42 1525.82,-109.54 1536.02,-112.41 1535.58,-105.42"/>
<text text-anchor="middle" x="1646.62" y="-186.81" font-family="Times,serif" font-size="32.00">seem |</text>
<text text-anchor="middle" x="1646.62" y="-151.81" font-family="Times,serif" font-size="32.00"> appear</text>
<text text-anchor="middle" x="1646.62" y="-116.81" font-family="Times,serif" font-size="32.00">7</text>
</g>
<!-- z5 -->
<g id="node22" class="node">
<title>z5</title>
<ellipse fill="none" stroke="black" stroke-dasharray="5,2" cx="1979.09" cy="-1130.41" rx="27" ry="18"/>
</g>
<!-- e -->
<g id="node23" class="node">
<title>e</title>
<ellipse fill="none" stroke="black" cx="1776.86" cy="-1130.41" rx="27" ry="30.31"/>
<text text-anchor="middle" x="1776.86" y="-1122.31" font-family="Times,serif" font-size="32.00">e</text>
</g>
<!-- z5&#45;&gt;e -->
<g id="edge26" class="edge">
<title>z5&#45;&gt;e</title>
<path fill="none" stroke="#000000" d="M1951.92,-1130.41C1916.69,-1130.41 1853.87,-1130.41 1814.11,-1130.41"/>
<polygon fill="#000000" stroke="#000000" points="1814.04,-1126.91 1804.04,-1130.41 1814.04,-1133.91 1814.04,-1126.91"/>
<text text-anchor="middle" x="1881.09" y="-1174.81" font-family="Times,serif" font-size="32.00">it</text>
<text text-anchor="middle" x="1881.09" y="-1139.81" font-family="Times,serif" font-size="32.00">e &#45;k</text>
</g>
</g>
</svg>
