<?xml version="1.0" encoding="UTF-8" standalone="no"?>
<!DOCTYPE svg PUBLIC "-//W3C//DTD SVG 1.1//EN"
 "http://www.w3.org/Graphics/SVG/1.1/DTD/svg11.dtd">
<!-- Generated by graphviz version 2.47.1 (20210417.1919)
 -->
<!-- Title: G Pages: 1 -->
<svg width="1865pt" height="1252pt"
 viewBox="0.00 0.00 1865.44 1252.41" xmlns="http://www.w3.org/2000/svg" xmlns:xlink="http://www.w3.org/1999/xlink">
<g id="graph0" class="graph" transform="scale(1 1) rotate(0) translate(4 1248.41)">
<title>G</title>
<polygon fill="white" stroke="transparent" points="-4,4 -4,-1248.41 1861.44,-1248.41 1861.44,4 -4,4"/>
<text text-anchor="middle" x="928.72" y="-13.4" font-family="Times,serif" font-size="32.00">single contraction: 6 → 4</text>
<!-- t -->
<g id="node1" class="node">
<title>t</title>
<ellipse fill="lightgray" stroke="black" cx="1830.44" cy="-674.41" rx="27" ry="30.31"/>
<text text-anchor="middle" x="1830.44" y="-666.31" font-family="Times,serif" font-size="32.00">t</text>
</g>
<!-- c2 -->
<g id="node18" class="node">
<title>c2</title>
<ellipse fill="none" stroke="black" cx="1628.21" cy="-667.41" rx="33.47" ry="30.31"/>
<text text-anchor="middle" x="1628.21" y="-659.31" font-family="Times,serif" font-size="32.00">c2</text>
</g>
<!-- t&#45;&gt;c2 -->
<g id="edge28" class="edge">
<title>t&#45;&gt;c2</title>
<path fill="none" stroke="#000000" d="M1803.26,-673.49C1769.89,-672.32 1711.73,-670.29 1671.9,-668.9"/>
<polygon fill="#000000" stroke="#000000" points="1671.81,-665.39 1661.69,-668.54 1671.57,-672.39 1671.81,-665.39"/>
<text text-anchor="middle" x="1732.44" y="-717.81" font-family="Times,serif" font-size="32.00">that_1</text>
<text text-anchor="middle" x="1732.44" y="-682.81" font-family="Times,serif" font-size="32.00">=t c2</text>
</g>
<!-- c1 -->
<g id="node24" class="node">
<title>c1</title>
<ellipse fill="none" stroke="black" cx="1628.21" cy="-581.41" rx="33.47" ry="30.31"/>
<text text-anchor="middle" x="1628.21" y="-573.31" font-family="Times,serif" font-size="32.00">c1</text>
</g>
<!-- t&#45;&gt;c1 -->
<g id="edge27" class="edge">
<title>t&#45;&gt;c1</title>
<path fill="none" stroke="#000000" d="M1821.01,-645.49C1814.31,-627.97 1803.08,-606.86 1785.44,-595.41 1751.6,-573.43 1704.59,-572.2 1671,-575.07"/>
<polygon fill="#000000" stroke="#000000" points="1670.63,-571.59 1661.03,-576.07 1671.33,-578.55 1670.63,-571.59"/>
<text text-anchor="middle" x="1732.44" y="-639.81" font-family="Times,serif" font-size="32.00">that</text>
<text text-anchor="middle" x="1732.44" y="-604.81" font-family="Times,serif" font-size="32.00">=t =e c1</text>
</g>
<!-- 0 -->
<g id="node2" class="node">
<title>0</title>
<ellipse fill="none" stroke="black" cx="1350.06" cy="-965.41" rx="27" ry="30.31"/>
<text text-anchor="middle" x="1350.06" y="-957.31" font-family="Times,serif" font-size="32.00">0</text>
</g>
<!-- d -->
<g id="node3" class="node">
<title>d</title>
<ellipse fill="none" stroke="black" cx="1103.15" cy="-965.41" rx="27" ry="30.31"/>
<text text-anchor="middle" x="1103.15" y="-957.31" font-family="Times,serif" font-size="32.00">d</text>
</g>
<!-- 0&#45;&gt;d -->
<g id="edge1" class="edge">
<title>0&#45;&gt;d</title>
<path fill="none" stroke="#000000" d="M1322.85,-965.41C1278.84,-965.41 1190.03,-965.41 1140.19,-965.41"/>
<polygon fill="#000000" stroke="#000000" points="1140.17,-961.91 1130.17,-965.41 1140.17,-968.91 1140.17,-961.91"/>
<text text-anchor="middle" x="1214.65" y="-1009.81" font-family="Times,serif" font-size="32.00">ε_0</text>
<text text-anchor="middle" x="1214.65" y="-974.81" font-family="Times,serif" font-size="32.00">=&gt;0 d &#45;k</text>
</g>
<!-- z0 -->
<g id="node4" class="node">
<title>z0</title>
<ellipse fill="none" stroke="black" stroke-dasharray="5,2" cx="1628.21" cy="-1064.41" rx="27" ry="18"/>
</g>
<!-- z0&#45;&gt;0 -->
<g id="edge2" class="edge">
<title>z0&#45;&gt;0</title>
<path fill="none" stroke="#000000" d="M1601.5,-1067.42C1560.42,-1071.02 1478.57,-1073.18 1418.97,-1042.41 1399.86,-1032.54 1383.68,-1014.87 1371.91,-998.94"/>
<polygon fill="#000000" stroke="#000000" points="1374.46,-996.49 1365.84,-990.33 1368.74,-1000.52 1374.46,-996.49"/>
<text text-anchor="middle" x="1497.97" y="-1218.81" font-family="Times,serif" font-size="32.00">Mary |</text>
<text text-anchor="middle" x="1497.97" y="-1183.81" font-family="Times,serif" font-size="32.00"> John |</text>
<text text-anchor="middle" x="1497.97" y="-1148.81" font-family="Times,serif" font-size="32.00"> Alice |</text>
<text text-anchor="middle" x="1497.97" y="-1113.81" font-family="Times,serif" font-size="32.00"> Bob</text>
<text text-anchor="middle" x="1497.97" y="-1078.81" font-family="Times,serif" font-size="32.00">0</text>
</g>
<!-- n -->
<g id="node5" class="node">
<title>n</title>
<ellipse fill="none" stroke="black" cx="1628.21" cy="-866.41" rx="27" ry="30.31"/>
<text text-anchor="middle" x="1628.21" y="-858.31" font-family="Times,serif" font-size="32.00">n</text>
</g>
<!-- n&#45;&gt;0 -->
<g id="edge3" class="edge">
<title>n&#45;&gt;0</title>
<path fill="none" stroke="#000000" d="M1601.98,-858.64C1560.87,-847.54 1478.1,-831.74 1418.97,-863.41 1393.59,-877 1376.06,-904.73 1365.18,-927.85"/>
<polygon fill="#000000" stroke="#000000" points="1361.93,-926.54 1361.06,-937.1 1368.33,-929.39 1361.93,-926.54"/>
<text text-anchor="middle" x="1497.97" y="-1012.81" font-family="Times,serif" font-size="32.00">this |</text>
<text text-anchor="middle" x="1497.97" y="-977.81" font-family="Times,serif" font-size="32.00"> a |</text>
<text text-anchor="middle" x="1497.97" y="-942.81" font-family="Times,serif" font-size="32.00"> the |</text>
<text text-anchor="middle" x="1497.97" y="-907.81" font-family="Times,serif" font-size="32.00"> some</text>
<text text-anchor="middle" x="1497.97" y="-872.81" font-family="Times,serif" font-size="32.00">=n 0</text>
</g>
<!-- z1 -->
<g id="node6" class="node">
<title>z1</title>
<ellipse fill="none" stroke="black" stroke-dasharray="5,2" cx="1830.44" cy="-866.41" rx="27" ry="18"/>
</g>
<!-- z1&#45;&gt;n -->
<g id="edge4" class="edge">
<title>z1&#45;&gt;n</title>
<path fill="none" stroke="#000000" d="M1803.26,-866.41C1768.04,-866.41 1705.22,-866.41 1665.46,-866.41"/>
<polygon fill="#000000" stroke="#000000" points="1665.39,-862.91 1655.39,-866.41 1665.39,-869.91 1665.39,-862.91"/>
<text text-anchor="middle" x="1732.44" y="-945.81" font-family="Times,serif" font-size="32.00">boy |</text>
<text text-anchor="middle" x="1732.44" y="-910.81" font-family="Times,serif" font-size="32.00"> girl</text>
<text text-anchor="middle" x="1732.44" y="-875.81" font-family="Times,serif" font-size="32.00">n</text>
</g>
<!-- 1 -->
<g id="node7" class="node">
<title>1</title>
<ellipse fill="none" stroke="black" cx="28.99" cy="-545.41" rx="27" ry="30.31"/>
<text text-anchor="middle" x="28.99" y="-537.31" font-family="Times,serif" font-size="32.00">1</text>
</g>
<!-- 1&#45;&gt;t -->
<g id="edge5" class="edge">
<title>1&#45;&gt;t</title>
<path fill="none" stroke="#000000" d="M34.43,-575.32C46.52,-644.25 86.78,-808.41 195.98,-808.41 1629.21,-808.41 1629.21,-808.41 1629.21,-808.41 1703.75,-808.41 1728.44,-795.44 1785.44,-747.41 1797.1,-737.58 1806.49,-723.85 1813.57,-710.94"/>
<polygon fill="#000000" stroke="#000000" points="1816.83,-712.24 1818.3,-701.75 1810.61,-709.03 1816.83,-712.24"/>
<text text-anchor="middle" x="866.15" y="-887.81" font-family="Times,serif" font-size="32.00">s |</text>
<text text-anchor="middle" x="866.15" y="-852.81" font-family="Times,serif" font-size="32.00"> d</text>
<text text-anchor="middle" x="866.15" y="-817.81" font-family="Times,serif" font-size="32.00">=&gt;1 +k t</text>
</g>
<!-- 2 -->
<g id="node8" class="node">
<title>2</title>
<ellipse fill="none" stroke="black" cx="1350.06" cy="-411.41" rx="27" ry="30.31"/>
<text text-anchor="middle" x="1350.06" y="-403.31" font-family="Times,serif" font-size="32.00">2</text>
</g>
<!-- 3 -->
<g id="node9" class="node">
<title>3</title>
<ellipse fill="none" stroke="black" cx="1103.15" cy="-297.41" rx="27" ry="30.31"/>
<text text-anchor="middle" x="1103.15" y="-289.31" font-family="Times,serif" font-size="32.00">3</text>
</g>
<!-- 2&#45;&gt;3 -->
<g id="edge6" class="edge">
<title>2&#45;&gt;3</title>
<path fill="none" stroke="#000000" d="M1322.77,-411.69C1281.79,-410.86 1201.85,-404.07 1148.15,-366.41 1136.47,-358.21 1127.18,-345.83 1120.21,-333.81"/>
<polygon fill="#000000" stroke="#000000" points="1123.16,-331.9 1115.33,-324.76 1117,-335.22 1123.16,-331.9"/>
<text text-anchor="middle" x="1214.65" y="-453.81" font-family="Times,serif" font-size="32.00">ε_1</text>
<text text-anchor="middle" x="1214.65" y="-418.81" font-family="Times,serif" font-size="32.00">=&gt;2 =d 3</text>
</g>
<!-- v -->
<g id="node11" class="node">
<title>v</title>
<ellipse fill="none" stroke="black" cx="196.98" cy="-405.41" rx="27" ry="30.31"/>
<text text-anchor="middle" x="196.98" y="-397.31" font-family="Times,serif" font-size="32.00">v</text>
</g>
<!-- 3&#45;&gt;v -->
<g id="edge8" class="edge">
<title>3&#45;&gt;v</title>
<path fill="none" stroke="#000000" d="M1076.15,-293.19C1032.9,-286.55 943.4,-274.41 867.15,-274.41 867.15,-274.41 867.15,-274.41 401.07,-274.41 323.27,-274.41 302.67,-298.73 241.98,-347.41 233.32,-354.36 225.41,-363.37 218.77,-372.22"/>
<polygon fill="#000000" stroke="#000000" points="215.77,-370.4 212.81,-380.57 221.47,-374.47 215.77,-370.4"/>
<text text-anchor="middle" x="636.15" y="-318.81" font-family="Times,serif" font-size="32.00">ε_2</text>
<text text-anchor="middle" x="636.15" y="-283.81" font-family="Times,serif" font-size="32.00">=&gt;3 v</text>
</g>
<!-- prog -->
<g id="node12" class="node">
<title>prog</title>
<ellipse fill="none" stroke="black" cx="866.15" cy="-438.41" rx="52.15" ry="30.31"/>
<text text-anchor="middle" x="866.15" y="-430.31" font-family="Times,serif" font-size="32.00">prog</text>
</g>
<!-- 3&#45;&gt;prog -->
<g id="edge9" class="edge">
<title>3&#45;&gt;prog</title>
<path fill="none" stroke="#000000" d="M1081.35,-316.37C1074.23,-322.45 1066.06,-329 1058.15,-334.41 1012.24,-365.74 955.98,-395.42 916.45,-415"/>
<polygon fill="#000000" stroke="#000000" points="914.71,-411.95 907.28,-419.5 917.8,-418.23 914.71,-411.95"/>
<text text-anchor="middle" x="999.15" y="-446.81" font-family="Times,serif" font-size="32.00">ing</text>
<text text-anchor="middle" x="999.15" y="-411.81" font-family="Times,serif" font-size="32.00">=&gt;3 prog</text>
</g>
<!-- 4 -->
<g id="node13" class="node">
<title>4</title>
<ellipse fill="none" stroke="black" cx="636.15" cy="-415.41" rx="27" ry="30.31"/>
<text text-anchor="middle" x="636.15" y="-407.31" font-family="Times,serif" font-size="32.00">4</text>
</g>
<!-- 3&#45;&gt;4 -->
<g id="edge11" class="edge">
<title>3&#45;&gt;4</title>
<path fill="none" stroke="#000000" d="M1075.77,-297.23C1023.82,-297.54 905.09,-301.57 810.15,-329.41 757.93,-344.72 702.41,-375.17 668.75,-395.41"/>
<polygon fill="#000000" stroke="#000000" points="666.58,-392.64 659.86,-400.83 670.22,-398.62 666.58,-392.64"/>
<text text-anchor="middle" x="866.15" y="-373.81" font-family="Times,serif" font-size="32.00">ε_3</text>
<text text-anchor="middle" x="866.15" y="-338.81" font-family="Times,serif" font-size="32.00">=&gt;3 4</text>
</g>
<!-- z2 -->
<g id="node10" class="node">
<title>z2</title>
<ellipse fill="none" stroke="black" stroke-dasharray="5,2" cx="1628.21" cy="-420.41" rx="27" ry="18"/>
</g>
<!-- z2&#45;&gt;2 -->
<g id="edge7" class="edge">
<title>z2&#45;&gt;2</title>
<path fill="none" stroke="#000000" d="M1601.23,-419.56C1551.78,-417.95 1444.04,-414.44 1387.45,-412.59"/>
<polygon fill="#000000" stroke="#000000" points="1387.28,-409.08 1377.17,-412.26 1387.05,-416.08 1387.28,-409.08"/>
<text text-anchor="middle" x="1497.97" y="-568.81" font-family="Times,serif" font-size="32.00">dance |</text>
<text text-anchor="middle" x="1497.97" y="-533.81" font-family="Times,serif" font-size="32.00"> laugh |</text>
<text text-anchor="middle" x="1497.97" y="-498.81" font-family="Times,serif" font-size="32.00"> smile |</text>
<text text-anchor="middle" x="1497.97" y="-463.81" font-family="Times,serif" font-size="32.00"> jump</text>
<text text-anchor="middle" x="1497.97" y="-428.81" font-family="Times,serif" font-size="32.00">2</text>
</g>
<!-- v&#45;&gt;1 -->
<g id="edge16" class="edge">
<title>v&#45;&gt;1</title>
<path fill="none" stroke="#000000" d="M172.73,-419.9C166.17,-423.63 158.93,-427.43 151.98,-430.41 119.55,-444.32 102.96,-430.66 75.98,-453.41 59.67,-467.16 48.56,-488.13 41.36,-506.57"/>
<polygon fill="#000000" stroke="#000000" points="37.98,-505.62 37.84,-516.22 44.56,-508.02 37.98,-505.62"/>
<text text-anchor="middle" x="113.98" y="-497.81" font-family="Times,serif" font-size="32.00">will</text>
<text text-anchor="middle" x="113.98" y="-462.81" font-family="Times,serif" font-size="32.00">=v 1</text>
</g>
<!-- v&#45;&gt;1 -->
<g id="edge23" class="edge">
<title>v&#45;&gt;1</title>
<path fill="none" stroke="#000000" d="M193.03,-435.6C188.7,-462.75 178.07,-501.6 151.98,-523.41 128.22,-543.26 92.63,-547.75 66.01,-547.87"/>
<polygon fill="#000000" stroke="#000000" points="65.99,-544.37 55.94,-547.71 65.88,-551.37 65.99,-544.37"/>
<text text-anchor="middle" x="113.98" y="-592.81" font-family="Times,serif" font-size="32.00">ε_8</text>
<text text-anchor="middle" x="113.98" y="-557.81" font-family="Times,serif" font-size="32.00">=&gt;v 1</text>
</g>
<!-- to -->
<g id="node23" class="node">
<title>to</title>
<ellipse fill="none" stroke="black" cx="28.99" cy="-359.41" rx="28.98" ry="30.31"/>
<text text-anchor="middle" x="28.99" y="-351.31" font-family="Times,serif" font-size="32.00">to</text>
</g>
<!-- v&#45;&gt;to -->
<g id="edge26" class="edge">
<title>v&#45;&gt;to</title>
<path fill="none" stroke="#000000" d="M179.34,-381.83C172.01,-373.44 162.64,-364.94 151.98,-360.41 125.55,-349.16 92.89,-349.55 68.01,-352.4"/>
<polygon fill="#000000" stroke="#000000" points="67.32,-348.96 57.87,-353.75 68.24,-355.9 67.32,-348.96"/>
<text text-anchor="middle" x="113.98" y="-404.81" font-family="Times,serif" font-size="32.00">to</text>
<text text-anchor="middle" x="113.98" y="-369.81" font-family="Times,serif" font-size="32.00">=v to</text>
</g>
<!-- prog&#45;&gt;4 -->
<g id="edge17" class="edge">
<title>prog&#45;&gt;4</title>
<path fill="none" stroke="#000000" d="M814.55,-433.3C771.74,-428.98 711.44,-422.9 673.33,-419.06"/>
<polygon fill="#000000" stroke="#000000" points="673.5,-415.56 663.2,-418.03 672.8,-422.52 673.5,-415.56"/>
<text text-anchor="middle" x="742.15" y="-475.81" font-family="Times,serif" font-size="32.00">be</text>
<text text-anchor="middle" x="742.15" y="-440.81" font-family="Times,serif" font-size="32.00">=prog 4</text>
</g>
<!-- 4&#45;&gt;v -->
<g id="edge18" class="edge">
<title>4&#45;&gt;v</title>
<path fill="none" stroke="#000000" d="M610.37,-425.36C601.06,-428.61 590.27,-431.79 580.15,-433.41 431.73,-457.07 386.29,-475.43 241.98,-433.41 237.34,-432.05 232.71,-430.04 228.31,-427.71"/>
<polygon fill="#000000" stroke="#000000" points="230.01,-424.66 219.62,-422.58 226.45,-430.68 230.01,-424.66"/>
<text text-anchor="middle" x="402.07" y="-503.81" font-family="Times,serif" font-size="32.00">ε_5</text>
<text text-anchor="middle" x="402.07" y="-468.81" font-family="Times,serif" font-size="32.00">=&gt;4 v</text>
</g>
<!-- perf -->
<g id="node14" class="node">
<title>perf</title>
<ellipse fill="none" stroke="black" cx="402.07" cy="-362.41" rx="48.17" ry="30.31"/>
<text text-anchor="middle" x="402.07" y="-354.31" font-family="Times,serif" font-size="32.00">perf</text>
</g>
<!-- 4&#45;&gt;perf -->
<g id="edge10" class="edge">
<title>4&#45;&gt;perf</title>
<path fill="none" stroke="#000000" d="M617.95,-392.48C608.22,-381.46 595.03,-369.37 580.15,-363.41 541.71,-347.99 494.7,-348.52 458.77,-352.48"/>
<polygon fill="#000000" stroke="#000000" points="457.98,-349.05 448.48,-353.74 458.83,-356 457.98,-349.05"/>
<text text-anchor="middle" x="524.15" y="-407.81" font-family="Times,serif" font-size="32.00">n</text>
<text text-anchor="middle" x="524.15" y="-372.81" font-family="Times,serif" font-size="32.00">=&gt;4 perf</text>
</g>
<!-- perf&#45;&gt;v -->
<g id="edge24" class="edge">
<title>perf&#45;&gt;v</title>
<path fill="none" stroke="#000000" d="M355.81,-354.04C323,-350 278.21,-348.76 241.98,-363.41 234.98,-366.24 228.46,-370.76 222.7,-375.81"/>
<polygon fill="#000000" stroke="#000000" points="220.09,-373.46 215.33,-382.92 224.96,-378.5 220.09,-373.46"/>
<text text-anchor="middle" x="288.98" y="-407.81" font-family="Times,serif" font-size="32.00">have</text>
<text text-anchor="middle" x="288.98" y="-372.81" font-family="Times,serif" font-size="32.00">=perf v</text>
</g>
<!-- 5 -->
<g id="node15" class="node">
<title>5</title>
<ellipse fill="none" stroke="black" cx="1628.21" cy="-281.41" rx="27" ry="30.31"/>
<text text-anchor="middle" x="1628.21" y="-273.31" font-family="Times,serif" font-size="32.00">5</text>
</g>
<!-- 5&#45;&gt;2 -->
<g id="edge12" class="edge">
<title>5&#45;&gt;2</title>
<path fill="none" stroke="#000000" d="M1603.4,-294.14C1595.2,-298.17 1585.84,-302.35 1576.97,-305.41 1508.97,-328.84 1481.65,-305.12 1418.97,-340.41 1401.58,-350.2 1385.89,-365.88 1373.99,-380.01"/>
<polygon fill="#000000" stroke="#000000" points="1371.02,-378.13 1367.44,-388.1 1376.45,-382.53 1371.02,-378.13"/>
<text text-anchor="middle" x="1497.97" y="-384.81" font-family="Times,serif" font-size="32.00">ε_4</text>
<text text-anchor="middle" x="1497.97" y="-349.81" font-family="Times,serif" font-size="32.00">=&gt;5 =d *k 2</text>
</g>
<!-- pass -->
<g id="node17" class="node">
<title>pass</title>
<ellipse fill="none" stroke="black" cx="1350.06" cy="-265.41" rx="50.82" ry="30.31"/>
<text text-anchor="middle" x="1350.06" y="-257.31" font-family="Times,serif" font-size="32.00">pass</text>
</g>
<!-- 5&#45;&gt;pass -->
<g id="edge14" class="edge">
<title>5&#45;&gt;pass</title>
<path fill="none" stroke="#000000" d="M1609.58,-259.16C1600.87,-249.95 1589.54,-240.29 1576.97,-235.41 1511.52,-209.97 1487.68,-220.91 1418.97,-235.41 1412.19,-236.84 1405.27,-238.99 1398.56,-241.5"/>
<polygon fill="#000000" stroke="#000000" points="1396.88,-238.4 1388.92,-245.38 1399.5,-244.89 1396.88,-238.4"/>
<text text-anchor="middle" x="1497.97" y="-279.81" font-family="Times,serif" font-size="32.00">n_1</text>
<text text-anchor="middle" x="1497.97" y="-244.81" font-family="Times,serif" font-size="32.00">=&gt;5 =d pass</text>
</g>
<!-- z3 -->
<g id="node16" class="node">
<title>z3</title>
<ellipse fill="none" stroke="black" stroke-dasharray="5,2" cx="1830.44" cy="-281.41" rx="27" ry="18"/>
</g>
<!-- z3&#45;&gt;5 -->
<g id="edge13" class="edge">
<title>z3&#45;&gt;5</title>
<path fill="none" stroke="#000000" d="M1803.26,-281.41C1768.04,-281.41 1705.22,-281.41 1665.46,-281.41"/>
<polygon fill="#000000" stroke="#000000" points="1665.39,-277.91 1655.39,-281.41 1665.39,-284.91 1665.39,-277.91"/>
<text text-anchor="middle" x="1732.44" y="-430.81" font-family="Times,serif" font-size="32.00">praise |</text>
<text text-anchor="middle" x="1732.44" y="-395.81" font-family="Times,serif" font-size="32.00"> like |</text>
<text text-anchor="middle" x="1732.44" y="-360.81" font-family="Times,serif" font-size="32.00"> kiss |</text>
<text text-anchor="middle" x="1732.44" y="-325.81" font-family="Times,serif" font-size="32.00"> hug</text>
<text text-anchor="middle" x="1732.44" y="-290.81" font-family="Times,serif" font-size="32.00">5</text>
</g>
<!-- pass&#45;&gt;3 -->
<g id="edge19" class="edge">
<title>pass&#45;&gt;3</title>
<path fill="none" stroke="#000000" d="M1300.48,-272.69C1293.99,-273.63 1287.41,-274.56 1281.15,-275.41 1232.42,-282.02 1176.02,-288.9 1140.23,-293.16"/>
<polygon fill="#000000" stroke="#000000" points="1139.78,-289.69 1130.26,-294.35 1140.61,-296.64 1139.78,-289.69"/>
<text text-anchor="middle" x="1214.65" y="-336.81" font-family="Times,serif" font-size="32.00">be_1</text>
<text text-anchor="middle" x="1214.65" y="-301.81" font-family="Times,serif" font-size="32.00">=pass 3</text>
</g>
<!-- c2&#45;&gt;2 -->
<g id="edge15" class="edge">
<title>c2&#45;&gt;2</title>
<path fill="none" stroke="#000000" d="M1607.75,-643.3C1599.25,-634.37 1588.57,-625.06 1576.97,-619.41 1513.19,-588.31 1474.07,-641.12 1418.97,-596.41 1375.29,-560.95 1359.7,-494.71 1354.14,-451.87"/>
<polygon fill="#000000" stroke="#000000" points="1357.6,-451.3 1352.96,-441.77 1350.65,-452.11 1357.6,-451.3"/>
<text text-anchor="middle" x="1497.97" y="-768.81" font-family="Times,serif" font-size="32.00">declare |</text>
<text text-anchor="middle" x="1497.97" y="-733.81" font-family="Times,serif" font-size="32.00"> think |</text>
<text text-anchor="middle" x="1497.97" y="-698.81" font-family="Times,serif" font-size="32.00"> explain |</text>
<text text-anchor="middle" x="1497.97" y="-663.81" font-family="Times,serif" font-size="32.00"> say</text>
<text text-anchor="middle" x="1497.97" y="-628.81" font-family="Times,serif" font-size="32.00">=c2 2</text>
</g>
<!-- 6 -->
<g id="node19" class="node">
<title>6</title>
<ellipse fill="none" stroke="black" cx="1350.06" cy="-111.41" rx="27" ry="30.31"/>
<text text-anchor="middle" x="1350.06" y="-103.31" font-family="Times,serif" font-size="32.00">6</text>
</g>
<!-- 6&#45;&gt;3 -->
<g id="edge20" class="edge">
<title>6&#45;&gt;3</title>
<path fill="none" stroke="#000000" d="M1332.95,-135.2C1320.71,-151.28 1302.39,-171.49 1281.15,-182.41 1228.04,-209.7 1195.99,-165.68 1148.15,-201.41 1129.93,-215.01 1119.03,-237.97 1112.65,-258.03"/>
<polygon fill="#000000" stroke="#000000" points="1109.21,-257.3 1109.78,-267.88 1115.93,-259.26 1109.21,-257.3"/>
<text text-anchor="middle" x="1214.65" y="-245.81" font-family="Times,serif" font-size="32.00">ε_6</text>
<text text-anchor="middle" x="1214.65" y="-210.81" font-family="Times,serif" font-size="32.00">=&gt;6 =to 3</text>
</g>
<!-- 6&#45;&gt;3 -->
<g id="edge22" class="edge">
<title>6&#45;&gt;3</title>
<path fill="none" stroke="#000000" d="M1324.28,-102.03C1282.89,-88.14 1199.24,-67.84 1148.15,-108.41 1125.24,-126.59 1113.17,-207.07 1107.77,-256.96"/>
<polygon fill="#000000" stroke="#000000" points="1104.27,-256.8 1106.72,-267.11 1111.23,-257.52 1104.27,-256.8"/>
<text text-anchor="middle" x="1214.65" y="-152.81" font-family="Times,serif" font-size="32.00">ε_7</text>
<text text-anchor="middle" x="1214.65" y="-117.81" font-family="Times,serif" font-size="32.00">=&gt;6 =c1 3</text>
</g>
<!-- z4 -->
<g id="node20" class="node">
<title>z4</title>
<ellipse fill="none" stroke="black" stroke-dasharray="5,2" cx="1628.21" cy="-106.41" rx="27" ry="18"/>
</g>
<!-- z4&#45;&gt;6 -->
<g id="edge21" class="edge">
<title>z4&#45;&gt;6</title>
<path fill="none" stroke="#000000" d="M1600.9,-106.08C1561.39,-105.69 1484.37,-105.32 1418.97,-107.41 1408.72,-107.73 1397.61,-108.3 1387.4,-108.9"/>
<polygon fill="#000000" stroke="#000000" points="1386.93,-105.42 1377.17,-109.54 1387.37,-112.41 1386.93,-105.42"/>
<text text-anchor="middle" x="1497.97" y="-186.81" font-family="Times,serif" font-size="32.00">seem |</text>
<text text-anchor="middle" x="1497.97" y="-151.81" font-family="Times,serif" font-size="32.00"> appear</text>
<text text-anchor="middle" x="1497.97" y="-116.81" font-family="Times,serif" font-size="32.00">6</text>
</g>
<!-- z5 -->
<g id="node21" class="node">
<title>z5</title>
<ellipse fill="none" stroke="black" stroke-dasharray="5,2" cx="1830.44" cy="-1130.41" rx="27" ry="18"/>
</g>
<!-- e -->
<g id="node22" class="node">
<title>e</title>
<ellipse fill="none" stroke="black" cx="1628.21" cy="-1130.41" rx="27" ry="30.31"/>
<text text-anchor="middle" x="1628.21" y="-1122.31" font-family="Times,serif" font-size="32.00">e</text>
</g>
<!-- z5&#45;&gt;e -->
<g id="edge25" class="edge">
<title>z5&#45;&gt;e</title>
<path fill="none" stroke="#000000" d="M1803.26,-1130.41C1768.04,-1130.41 1705.22,-1130.41 1665.46,-1130.41"/>
<polygon fill="#000000" stroke="#000000" points="1665.39,-1126.91 1655.39,-1130.41 1665.39,-1133.91 1665.39,-1126.91"/>
<text text-anchor="middle" x="1732.44" y="-1174.81" font-family="Times,serif" font-size="32.00">it</text>
<text text-anchor="middle" x="1732.44" y="-1139.81" font-family="Times,serif" font-size="32.00">e &#45;k</text>
</g>
</g>
</svg>
