<?xml version="1.0" encoding="UTF-8" standalone="no"?>
<!DOCTYPE svg PUBLIC "-//W3C//DTD SVG 1.1//EN"
 "http://www.w3.org/Graphics/SVG/1.1/DTD/svg11.dtd">
<!-- Generated by graphviz version 2.47.1 (20210417.1919)
 -->
<!-- Title: G Pages: 1 -->
<svg width="1843pt" height="1245pt"
 viewBox="0.00 0.00 1843.44 1245.00" xmlns="http://www.w3.org/2000/svg" xmlns:xlink="http://www.w3.org/1999/xlink">
<g id="graph0" class="graph" transform="scale(1 1) rotate(0) translate(4 1241)">
<title>G</title>
<polygon fill="white" stroke="transparent" points="-4,4 -4,-1241 1839.44,-1241 1839.44,4 -4,4"/>
<text text-anchor="middle" x="917.72" y="-13.4" font-family="Times,serif" font-size="32.00">replacement: =&gt;3 v with =&gt;3 4, =&gt;4 v</text>
<!-- t -->
<g id="node1" class="node">
<title>t</title>
<ellipse fill="lightgray" stroke="black" cx="1808.44" cy="-667" rx="27" ry="30.31"/>
<text text-anchor="middle" x="1808.44" y="-658.9" font-family="Times,serif" font-size="32.00">t</text>
</g>
<!-- c2 -->
<g id="node17" class="node">
<title>c2</title>
<ellipse fill="none" stroke="black" cx="1606.21" cy="-660" rx="33.47" ry="30.31"/>
<text text-anchor="middle" x="1606.21" y="-651.9" font-family="Times,serif" font-size="32.00">c2</text>
</g>
<!-- t&#45;&gt;c2 -->
<g id="edge27" class="edge">
<title>t&#45;&gt;c2</title>
<path fill="none" stroke="#000000" d="M1781.26,-666.08C1747.89,-664.92 1689.73,-662.89 1649.9,-661.49"/>
<polygon fill="#000000" stroke="#000000" points="1649.81,-657.99 1639.69,-661.14 1649.57,-664.98 1649.81,-657.99"/>
<text text-anchor="middle" x="1710.44" y="-710.4" font-family="Times,serif" font-size="32.00">that_1</text>
<text text-anchor="middle" x="1710.44" y="-675.4" font-family="Times,serif" font-size="32.00">=t c2</text>
</g>
<!-- c1 -->
<g id="node24" class="node">
<title>c1</title>
<ellipse fill="none" stroke="black" cx="1606.21" cy="-574" rx="33.47" ry="30.31"/>
<text text-anchor="middle" x="1606.21" y="-565.9" font-family="Times,serif" font-size="32.00">c1</text>
</g>
<!-- t&#45;&gt;c1 -->
<g id="edge26" class="edge">
<title>t&#45;&gt;c1</title>
<path fill="none" stroke="#000000" d="M1799.01,-638.08C1792.31,-620.57 1781.08,-599.46 1763.44,-588 1729.6,-566.02 1682.59,-564.8 1649,-567.66"/>
<polygon fill="#000000" stroke="#000000" points="1648.63,-564.18 1639.03,-568.66 1649.33,-571.15 1648.63,-564.18"/>
<text text-anchor="middle" x="1710.44" y="-632.4" font-family="Times,serif" font-size="32.00">that</text>
<text text-anchor="middle" x="1710.44" y="-597.4" font-family="Times,serif" font-size="32.00">=t =e c1</text>
</g>
<!-- 0 -->
<g id="node2" class="node">
<title>0</title>
<ellipse fill="none" stroke="black" cx="1328.06" cy="-958" rx="27" ry="30.31"/>
<text text-anchor="middle" x="1328.06" y="-949.9" font-family="Times,serif" font-size="32.00">0</text>
</g>
<!-- d -->
<g id="node3" class="node">
<title>d</title>
<ellipse fill="none" stroke="black" cx="1081.15" cy="-958" rx="27" ry="30.31"/>
<text text-anchor="middle" x="1081.15" y="-949.9" font-family="Times,serif" font-size="32.00">d</text>
</g>
<!-- 0&#45;&gt;d -->
<g id="edge1" class="edge">
<title>0&#45;&gt;d</title>
<path fill="none" stroke="#000000" d="M1300.85,-958C1256.84,-958 1168.03,-958 1118.19,-958"/>
<polygon fill="#000000" stroke="#000000" points="1118.17,-954.5 1108.17,-958 1118.17,-961.5 1118.17,-954.5"/>
<text text-anchor="middle" x="1192.65" y="-1002.4" font-family="Times,serif" font-size="32.00">ε_0</text>
<text text-anchor="middle" x="1192.65" y="-967.4" font-family="Times,serif" font-size="32.00">=&gt;0 d &#45;k</text>
</g>
<!-- z0 -->
<g id="node4" class="node">
<title>z0</title>
<ellipse fill="none" stroke="black" stroke-dasharray="5,2" cx="1606.21" cy="-1057" rx="27" ry="18"/>
</g>
<!-- z0&#45;&gt;0 -->
<g id="edge2" class="edge">
<title>z0&#45;&gt;0</title>
<path fill="none" stroke="#000000" d="M1579.5,-1060.01C1538.42,-1063.62 1456.57,-1065.77 1396.97,-1035 1377.86,-1025.13 1361.68,-1007.46 1349.91,-991.54"/>
<polygon fill="#000000" stroke="#000000" points="1352.46,-989.08 1343.84,-982.93 1346.74,-993.12 1352.46,-989.08"/>
<text text-anchor="middle" x="1475.97" y="-1211.4" font-family="Times,serif" font-size="32.00">Mary |</text>
<text text-anchor="middle" x="1475.97" y="-1176.4" font-family="Times,serif" font-size="32.00"> John |</text>
<text text-anchor="middle" x="1475.97" y="-1141.4" font-family="Times,serif" font-size="32.00"> Alice |</text>
<text text-anchor="middle" x="1475.97" y="-1106.4" font-family="Times,serif" font-size="32.00"> Bob</text>
<text text-anchor="middle" x="1475.97" y="-1071.4" font-family="Times,serif" font-size="32.00">0</text>
</g>
<!-- n -->
<g id="node5" class="node">
<title>n</title>
<ellipse fill="none" stroke="black" cx="1606.21" cy="-859" rx="27" ry="30.31"/>
<text text-anchor="middle" x="1606.21" y="-850.9" font-family="Times,serif" font-size="32.00">n</text>
</g>
<!-- n&#45;&gt;0 -->
<g id="edge3" class="edge">
<title>n&#45;&gt;0</title>
<path fill="none" stroke="#000000" d="M1579.98,-851.24C1538.87,-840.13 1456.1,-824.34 1396.97,-856 1371.59,-869.59 1354.06,-897.33 1343.18,-920.45"/>
<polygon fill="#000000" stroke="#000000" points="1339.93,-919.13 1339.06,-929.69 1346.33,-921.98 1339.93,-919.13"/>
<text text-anchor="middle" x="1475.97" y="-1005.4" font-family="Times,serif" font-size="32.00">this |</text>
<text text-anchor="middle" x="1475.97" y="-970.4" font-family="Times,serif" font-size="32.00"> a |</text>
<text text-anchor="middle" x="1475.97" y="-935.4" font-family="Times,serif" font-size="32.00"> the |</text>
<text text-anchor="middle" x="1475.97" y="-900.4" font-family="Times,serif" font-size="32.00"> some</text>
<text text-anchor="middle" x="1475.97" y="-865.4" font-family="Times,serif" font-size="32.00">=n 0</text>
</g>
<!-- z1 -->
<g id="node6" class="node">
<title>z1</title>
<ellipse fill="none" stroke="black" stroke-dasharray="5,2" cx="1808.44" cy="-859" rx="27" ry="18"/>
</g>
<!-- z1&#45;&gt;n -->
<g id="edge4" class="edge">
<title>z1&#45;&gt;n</title>
<path fill="none" stroke="#000000" d="M1781.26,-859C1746.04,-859 1683.22,-859 1643.46,-859"/>
<polygon fill="#000000" stroke="#000000" points="1643.39,-855.5 1633.39,-859 1643.39,-862.5 1643.39,-855.5"/>
<text text-anchor="middle" x="1710.44" y="-938.4" font-family="Times,serif" font-size="32.00">boy |</text>
<text text-anchor="middle" x="1710.44" y="-903.4" font-family="Times,serif" font-size="32.00"> girl</text>
<text text-anchor="middle" x="1710.44" y="-868.4" font-family="Times,serif" font-size="32.00">n</text>
</g>
<!-- 1 -->
<g id="node7" class="node">
<title>1</title>
<ellipse fill="none" stroke="black" cx="28.99" cy="-612" rx="27" ry="30.31"/>
<text text-anchor="middle" x="28.99" y="-603.9" font-family="Times,serif" font-size="32.00">1</text>
</g>
<!-- 1&#45;&gt;t -->
<g id="edge5" class="edge">
<title>1&#45;&gt;t</title>
<path fill="none" stroke="#000000" d="M39.73,-640.3C59.89,-693.02 111.48,-801 195.98,-801 1607.21,-801 1607.21,-801 1607.21,-801 1681.75,-801 1706.44,-788.04 1763.44,-740 1775.1,-730.18 1784.49,-716.44 1791.57,-703.53"/>
<polygon fill="#000000" stroke="#000000" points="1794.83,-704.84 1796.3,-694.35 1788.61,-701.63 1794.83,-704.84"/>
<text text-anchor="middle" x="844.15" y="-880.4" font-family="Times,serif" font-size="32.00">s |</text>
<text text-anchor="middle" x="844.15" y="-845.4" font-family="Times,serif" font-size="32.00"> d</text>
<text text-anchor="middle" x="844.15" y="-810.4" font-family="Times,serif" font-size="32.00">=&gt;1 +k t</text>
</g>
<!-- 2 -->
<g id="node8" class="node">
<title>2</title>
<ellipse fill="none" stroke="black" cx="1328.06" cy="-404" rx="27" ry="30.31"/>
<text text-anchor="middle" x="1328.06" y="-395.9" font-family="Times,serif" font-size="32.00">2</text>
</g>
<!-- 3 -->
<g id="node9" class="node">
<title>3</title>
<ellipse fill="none" stroke="black" cx="1081.15" cy="-302" rx="27" ry="30.31"/>
<text text-anchor="middle" x="1081.15" y="-293.9" font-family="Times,serif" font-size="32.00">3</text>
</g>
<!-- 2&#45;&gt;3 -->
<g id="edge6" class="edge">
<title>2&#45;&gt;3</title>
<path fill="none" stroke="#000000" d="M1300.86,-406.35C1260.01,-408.68 1180.23,-407.72 1126.15,-372 1113.91,-363.91 1104.43,-351.13 1097.46,-338.68"/>
<polygon fill="#000000" stroke="#000000" points="1100.54,-337.02 1092.82,-329.76 1094.32,-340.24 1100.54,-337.02"/>
<text text-anchor="middle" x="1192.65" y="-451.4" font-family="Times,serif" font-size="32.00">ε_1</text>
<text text-anchor="middle" x="1192.65" y="-416.4" font-family="Times,serif" font-size="32.00">=&gt;2 =d 3</text>
</g>
<!-- prog -->
<g id="node11" class="node">
<title>prog</title>
<ellipse fill="none" stroke="black" cx="844.15" cy="-302" rx="52.15" ry="30.31"/>
<text text-anchor="middle" x="844.15" y="-293.9" font-family="Times,serif" font-size="32.00">prog</text>
</g>
<!-- 3&#45;&gt;prog -->
<g id="edge8" class="edge">
<title>3&#45;&gt;prog</title>
<path fill="none" stroke="#000000" d="M1054.1,-302C1018.81,-302 954.71,-302 906.78,-302"/>
<polygon fill="#000000" stroke="#000000" points="906.51,-298.5 896.51,-302 906.51,-305.5 906.51,-298.5"/>
<text text-anchor="middle" x="977.15" y="-346.4" font-family="Times,serif" font-size="32.00">ing</text>
<text text-anchor="middle" x="977.15" y="-311.4" font-family="Times,serif" font-size="32.00">=&gt;3 prog</text>
</g>
<!-- 4 -->
<g id="node12" class="node">
<title>4</title>
<ellipse fill="none" stroke="black" cx="625.15" cy="-387" rx="27" ry="30.31"/>
<text text-anchor="middle" x="625.15" y="-378.9" font-family="Times,serif" font-size="32.00">4</text>
</g>
<!-- 3&#45;&gt;4 -->
<g id="edge10" class="edge">
<title>3&#45;&gt;4</title>
<path fill="none" stroke="#000000" d="M1070.36,-330.16C1063.38,-345.67 1052.34,-363.62 1036.15,-373 914.6,-443.41 736.99,-413.64 661.84,-396.26"/>
<polygon fill="#000000" stroke="#000000" points="662.47,-392.81 651.93,-393.9 660.85,-399.62 662.47,-392.81"/>
<text text-anchor="middle" x="844.15" y="-462.4" font-family="Times,serif" font-size="32.00">ε_2</text>
<text text-anchor="middle" x="844.15" y="-427.4" font-family="Times,serif" font-size="32.00">=&gt;3 4</text>
</g>
<!-- z2 -->
<g id="node10" class="node">
<title>z2</title>
<ellipse fill="none" stroke="black" stroke-dasharray="5,2" cx="1606.21" cy="-413" rx="27" ry="18"/>
</g>
<!-- z2&#45;&gt;2 -->
<g id="edge7" class="edge">
<title>z2&#45;&gt;2</title>
<path fill="none" stroke="#000000" d="M1579.23,-412.15C1529.78,-410.54 1422.04,-407.03 1365.45,-405.19"/>
<polygon fill="#000000" stroke="#000000" points="1365.28,-401.68 1355.17,-404.85 1365.05,-408.67 1365.28,-401.68"/>
<text text-anchor="middle" x="1475.97" y="-561.4" font-family="Times,serif" font-size="32.00">dance |</text>
<text text-anchor="middle" x="1475.97" y="-526.4" font-family="Times,serif" font-size="32.00"> laugh |</text>
<text text-anchor="middle" x="1475.97" y="-491.4" font-family="Times,serif" font-size="32.00"> smile |</text>
<text text-anchor="middle" x="1475.97" y="-456.4" font-family="Times,serif" font-size="32.00"> jump</text>
<text text-anchor="middle" x="1475.97" y="-421.4" font-family="Times,serif" font-size="32.00">2</text>
</g>
<!-- prog&#45;&gt;4 -->
<g id="edge16" class="edge">
<title>prog&#45;&gt;4</title>
<path fill="none" stroke="#000000" d="M795.9,-289.83C758.95,-283.09 707.73,-280.11 670.15,-303 653.81,-312.95 643.24,-331.17 636.57,-348.11"/>
<polygon fill="#000000" stroke="#000000" points="633.15,-347.26 633.07,-357.86 639.74,-349.63 633.15,-347.26"/>
<text text-anchor="middle" x="720.15" y="-347.4" font-family="Times,serif" font-size="32.00">be</text>
<text text-anchor="middle" x="720.15" y="-312.4" font-family="Times,serif" font-size="32.00">=prog 4</text>
</g>
<!-- perf -->
<g id="node13" class="node">
<title>perf</title>
<ellipse fill="none" stroke="black" cx="402.07" cy="-387" rx="48.17" ry="30.31"/>
<text text-anchor="middle" x="402.07" y="-378.9" font-family="Times,serif" font-size="32.00">perf</text>
</g>
<!-- 4&#45;&gt;perf -->
<g id="edge9" class="edge">
<title>4&#45;&gt;perf</title>
<path fill="none" stroke="#000000" d="M597.92,-387C564.28,-387 505,-387 460.63,-387"/>
<polygon fill="#000000" stroke="#000000" points="460.55,-383.5 450.55,-387 460.55,-390.5 460.55,-383.5"/>
<text text-anchor="middle" x="524.15" y="-431.4" font-family="Times,serif" font-size="32.00">n</text>
<text text-anchor="middle" x="524.15" y="-396.4" font-family="Times,serif" font-size="32.00">=&gt;4 perf</text>
</g>
<!-- v -->
<g id="node18" class="node">
<title>v</title>
<ellipse fill="none" stroke="black" cx="196.98" cy="-472" rx="27" ry="30.31"/>
<text text-anchor="middle" x="196.98" y="-463.9" font-family="Times,serif" font-size="32.00">v</text>
</g>
<!-- 4&#45;&gt;v -->
<g id="edge17" class="edge">
<title>4&#45;&gt;v</title>
<path fill="none" stroke="#000000" d="M614.35,-415.15C607.37,-430.65 596.32,-448.6 580.15,-458 467.98,-523.17 304.41,-497.01 233.24,-480.98"/>
<polygon fill="#000000" stroke="#000000" points="233.96,-477.55 223.43,-478.7 232.38,-484.37 233.96,-477.55"/>
<text text-anchor="middle" x="402.07" y="-544.4" font-family="Times,serif" font-size="32.00">ε_4</text>
<text text-anchor="middle" x="402.07" y="-509.4" font-family="Times,serif" font-size="32.00">=&gt;4 v</text>
</g>
<!-- perf&#45;&gt;v -->
<g id="edge23" class="edge">
<title>perf&#45;&gt;v</title>
<path fill="none" stroke="#000000" d="M357.27,-375.77C323.32,-369.64 276.42,-367.02 241.98,-388 225.65,-397.95 215.08,-416.18 208.4,-433.11"/>
<polygon fill="#000000" stroke="#000000" points="204.99,-432.27 204.91,-442.86 211.58,-434.63 204.99,-432.27"/>
<text text-anchor="middle" x="288.98" y="-432.4" font-family="Times,serif" font-size="32.00">have</text>
<text text-anchor="middle" x="288.98" y="-397.4" font-family="Times,serif" font-size="32.00">=perf v</text>
</g>
<!-- 5 -->
<g id="node14" class="node">
<title>5</title>
<ellipse fill="none" stroke="black" cx="1606.21" cy="-274" rx="27" ry="30.31"/>
<text text-anchor="middle" x="1606.21" y="-265.9" font-family="Times,serif" font-size="32.00">5</text>
</g>
<!-- 5&#45;&gt;2 -->
<g id="edge11" class="edge">
<title>5&#45;&gt;2</title>
<path fill="none" stroke="#000000" d="M1581.4,-286.74C1573.2,-290.76 1563.84,-294.95 1554.97,-298 1486.97,-321.43 1459.65,-297.71 1396.97,-333 1379.58,-342.79 1363.89,-358.47 1351.99,-372.61"/>
<polygon fill="#000000" stroke="#000000" points="1349.02,-370.72 1345.44,-380.69 1354.45,-375.13 1349.02,-370.72"/>
<text text-anchor="middle" x="1475.97" y="-377.4" font-family="Times,serif" font-size="32.00">ε_3</text>
<text text-anchor="middle" x="1475.97" y="-342.4" font-family="Times,serif" font-size="32.00">=&gt;5 =d *k 2</text>
</g>
<!-- pass -->
<g id="node16" class="node">
<title>pass</title>
<ellipse fill="none" stroke="black" cx="1328.06" cy="-265" rx="50.82" ry="30.31"/>
<text text-anchor="middle" x="1328.06" y="-256.9" font-family="Times,serif" font-size="32.00">pass</text>
</g>
<!-- 5&#45;&gt;pass -->
<g id="edge13" class="edge">
<title>5&#45;&gt;pass</title>
<path fill="none" stroke="#000000" d="M1587.58,-251.75C1578.87,-242.54 1567.54,-232.88 1554.97,-228 1489.52,-202.56 1465.02,-210.67 1396.97,-228 1388.37,-230.19 1379.68,-233.72 1371.52,-237.75"/>
<polygon fill="#000000" stroke="#000000" points="1369.79,-234.7 1362.57,-242.46 1373.05,-240.9 1369.79,-234.7"/>
<text text-anchor="middle" x="1475.97" y="-272.4" font-family="Times,serif" font-size="32.00">n_1</text>
<text text-anchor="middle" x="1475.97" y="-237.4" font-family="Times,serif" font-size="32.00">=&gt;5 =d pass</text>
</g>
<!-- z3 -->
<g id="node15" class="node">
<title>z3</title>
<ellipse fill="none" stroke="black" stroke-dasharray="5,2" cx="1808.44" cy="-274" rx="27" ry="18"/>
</g>
<!-- z3&#45;&gt;5 -->
<g id="edge12" class="edge">
<title>z3&#45;&gt;5</title>
<path fill="none" stroke="#000000" d="M1781.26,-274C1746.04,-274 1683.22,-274 1643.46,-274"/>
<polygon fill="#000000" stroke="#000000" points="1643.39,-270.5 1633.39,-274 1643.39,-277.5 1643.39,-270.5"/>
<text text-anchor="middle" x="1710.44" y="-423.4" font-family="Times,serif" font-size="32.00">praise |</text>
<text text-anchor="middle" x="1710.44" y="-388.4" font-family="Times,serif" font-size="32.00"> like |</text>
<text text-anchor="middle" x="1710.44" y="-353.4" font-family="Times,serif" font-size="32.00"> kiss |</text>
<text text-anchor="middle" x="1710.44" y="-318.4" font-family="Times,serif" font-size="32.00"> hug</text>
<text text-anchor="middle" x="1710.44" y="-283.4" font-family="Times,serif" font-size="32.00">5</text>
</g>
<!-- pass&#45;&gt;3 -->
<g id="edge18" class="edge">
<title>pass&#45;&gt;3</title>
<path fill="none" stroke="#000000" d="M1280.41,-275.91C1273.31,-277.39 1266.05,-278.81 1259.15,-280 1210.68,-288.35 1154.23,-294.8 1118.35,-298.5"/>
<polygon fill="#000000" stroke="#000000" points="1117.95,-295.03 1108.35,-299.52 1118.66,-301.99 1117.95,-295.03"/>
<text text-anchor="middle" x="1192.65" y="-342.4" font-family="Times,serif" font-size="32.00">be_1</text>
<text text-anchor="middle" x="1192.65" y="-307.4" font-family="Times,serif" font-size="32.00">=pass 3</text>
</g>
<!-- c2&#45;&gt;2 -->
<g id="edge14" class="edge">
<title>c2&#45;&gt;2</title>
<path fill="none" stroke="#000000" d="M1585.75,-635.89C1577.25,-626.97 1566.57,-617.66 1554.97,-612 1491.19,-580.9 1452.07,-633.72 1396.97,-589 1353.29,-553.55 1337.7,-487.31 1332.14,-444.46"/>
<polygon fill="#000000" stroke="#000000" points="1335.6,-443.89 1330.96,-434.37 1328.65,-444.71 1335.6,-443.89"/>
<text text-anchor="middle" x="1475.97" y="-761.4" font-family="Times,serif" font-size="32.00">declare |</text>
<text text-anchor="middle" x="1475.97" y="-726.4" font-family="Times,serif" font-size="32.00"> think |</text>
<text text-anchor="middle" x="1475.97" y="-691.4" font-family="Times,serif" font-size="32.00"> explain |</text>
<text text-anchor="middle" x="1475.97" y="-656.4" font-family="Times,serif" font-size="32.00"> say</text>
<text text-anchor="middle" x="1475.97" y="-621.4" font-family="Times,serif" font-size="32.00">=c2 2</text>
</g>
<!-- v&#45;&gt;1 -->
<g id="edge15" class="edge">
<title>v&#45;&gt;1</title>
<path fill="none" stroke="#000000" d="M172.73,-486.49C166.17,-490.22 158.93,-494.02 151.98,-497 119.55,-510.91 102.96,-497.25 75.98,-520 59.67,-533.76 48.56,-554.72 41.36,-573.17"/>
<polygon fill="#000000" stroke="#000000" points="37.98,-572.22 37.84,-582.81 44.56,-574.61 37.98,-572.22"/>
<text text-anchor="middle" x="113.98" y="-564.4" font-family="Times,serif" font-size="32.00">will</text>
<text text-anchor="middle" x="113.98" y="-529.4" font-family="Times,serif" font-size="32.00">=v 1</text>
</g>
<!-- v&#45;&gt;1 -->
<g id="edge22" class="edge">
<title>v&#45;&gt;1</title>
<path fill="none" stroke="#000000" d="M193.03,-502.2C188.7,-529.34 178.07,-568.2 151.98,-590 128.22,-609.86 92.63,-614.34 66.01,-614.46"/>
<polygon fill="#000000" stroke="#000000" points="65.99,-610.96 55.94,-614.31 65.88,-617.96 65.99,-610.96"/>
<text text-anchor="middle" x="113.98" y="-659.4" font-family="Times,serif" font-size="32.00">ε_7</text>
<text text-anchor="middle" x="113.98" y="-624.4" font-family="Times,serif" font-size="32.00">=&gt;v 1</text>
</g>
<!-- to -->
<g id="node23" class="node">
<title>to</title>
<ellipse fill="none" stroke="black" cx="28.99" cy="-426" rx="28.98" ry="30.31"/>
<text text-anchor="middle" x="28.99" y="-417.9" font-family="Times,serif" font-size="32.00">to</text>
</g>
<!-- v&#45;&gt;to -->
<g id="edge25" class="edge">
<title>v&#45;&gt;to</title>
<path fill="none" stroke="#000000" d="M179.34,-448.43C172.01,-440.03 162.64,-431.54 151.98,-427 125.55,-415.75 92.89,-416.14 68.01,-418.99"/>
<polygon fill="#000000" stroke="#000000" points="67.32,-415.55 57.87,-420.34 68.24,-422.49 67.32,-415.55"/>
<text text-anchor="middle" x="113.98" y="-471.4" font-family="Times,serif" font-size="32.00">to</text>
<text text-anchor="middle" x="113.98" y="-436.4" font-family="Times,serif" font-size="32.00">=v to</text>
</g>
<!-- 6 -->
<g id="node19" class="node">
<title>6</title>
<ellipse fill="none" stroke="black" cx="1328.06" cy="-116" rx="27" ry="30.31"/>
<text text-anchor="middle" x="1328.06" y="-107.9" font-family="Times,serif" font-size="32.00">6</text>
</g>
<!-- 6&#45;&gt;3 -->
<g id="edge19" class="edge">
<title>6&#45;&gt;3</title>
<path fill="none" stroke="#000000" d="M1310.95,-139.8C1298.71,-155.87 1280.39,-176.08 1259.15,-187 1206.04,-214.3 1173.99,-170.27 1126.15,-206 1107.93,-219.61 1097.03,-242.57 1090.65,-262.62"/>
<polygon fill="#000000" stroke="#000000" points="1087.21,-261.9 1087.78,-272.48 1093.93,-263.85 1087.21,-261.9"/>
<text text-anchor="middle" x="1192.65" y="-250.4" font-family="Times,serif" font-size="32.00">ε_5</text>
<text text-anchor="middle" x="1192.65" y="-215.4" font-family="Times,serif" font-size="32.00">=&gt;6 =to 3</text>
</g>
<!-- 6&#45;&gt;3 -->
<g id="edge21" class="edge">
<title>6&#45;&gt;3</title>
<path fill="none" stroke="#000000" d="M1302.28,-106.62C1260.89,-92.74 1177.24,-72.44 1126.15,-113 1103.24,-131.19 1091.17,-211.66 1085.77,-261.56"/>
<polygon fill="#000000" stroke="#000000" points="1082.27,-261.4 1084.72,-271.7 1089.23,-262.12 1082.27,-261.4"/>
<text text-anchor="middle" x="1192.65" y="-157.4" font-family="Times,serif" font-size="32.00">ε_6</text>
<text text-anchor="middle" x="1192.65" y="-122.4" font-family="Times,serif" font-size="32.00">=&gt;6 =c1 3</text>
</g>
<!-- z4 -->
<g id="node20" class="node">
<title>z4</title>
<ellipse fill="none" stroke="black" stroke-dasharray="5,2" cx="1606.21" cy="-99" rx="27" ry="18"/>
</g>
<!-- z4&#45;&gt;6 -->
<g id="edge20" class="edge">
<title>z4&#45;&gt;6</title>
<path fill="none" stroke="#000000" d="M1579.15,-98.09C1539.63,-97.02 1462.24,-96.18 1396.97,-103 1386.41,-104.1 1375.03,-106 1364.67,-108.01"/>
<polygon fill="#000000" stroke="#000000" points="1363.81,-104.61 1354.71,-110.02 1365.2,-111.47 1363.81,-104.61"/>
<text text-anchor="middle" x="1475.97" y="-182.4" font-family="Times,serif" font-size="32.00">seem |</text>
<text text-anchor="middle" x="1475.97" y="-147.4" font-family="Times,serif" font-size="32.00"> appear</text>
<text text-anchor="middle" x="1475.97" y="-112.4" font-family="Times,serif" font-size="32.00">6</text>
</g>
<!-- z5 -->
<g id="node21" class="node">
<title>z5</title>
<ellipse fill="none" stroke="black" stroke-dasharray="5,2" cx="1808.44" cy="-1123" rx="27" ry="18"/>
</g>
<!-- e -->
<g id="node22" class="node">
<title>e</title>
<ellipse fill="none" stroke="black" cx="1606.21" cy="-1123" rx="27" ry="30.31"/>
<text text-anchor="middle" x="1606.21" y="-1114.9" font-family="Times,serif" font-size="32.00">e</text>
</g>
<!-- z5&#45;&gt;e -->
<g id="edge24" class="edge">
<title>z5&#45;&gt;e</title>
<path fill="none" stroke="#000000" d="M1781.26,-1123C1746.04,-1123 1683.22,-1123 1643.46,-1123"/>
<polygon fill="#000000" stroke="#000000" points="1643.39,-1119.5 1633.39,-1123 1643.39,-1126.5 1643.39,-1119.5"/>
<text text-anchor="middle" x="1710.44" y="-1167.4" font-family="Times,serif" font-size="32.00">it</text>
<text text-anchor="middle" x="1710.44" y="-1132.4" font-family="Times,serif" font-size="32.00">e &#45;k</text>
</g>
</g>
</svg>
