<?xml version="1.0" encoding="UTF-8" standalone="no"?>
<!DOCTYPE svg PUBLIC "-//W3C//DTD SVG 1.1//EN"
 "http://www.w3.org/Graphics/SVG/1.1/DTD/svg11.dtd">
<!-- Generated by graphviz version 2.47.1 (20210417.1919)
 -->
<!-- Title: G Pages: 1 -->
<svg width="1829pt" height="1340pt"
 viewBox="0.00 0.00 1829.44 1340.15" xmlns="http://www.w3.org/2000/svg" xmlns:xlink="http://www.w3.org/1999/xlink">
<g id="graph0" class="graph" transform="scale(1 1) rotate(0) translate(4 1336.15)">
<title>G</title>
<polygon fill="white" stroke="transparent" points="-4,4 -4,-1336.15 1825.44,-1336.15 1825.44,4 -4,4"/>
<text text-anchor="middle" x="910.72" y="-13.4" font-family="Times,serif" font-size="32.00">single contraction: 7 → c2</text>
<!-- t -->
<g id="node1" class="node">
<title>t</title>
<ellipse fill="lightgray" stroke="black" cx="1794.44" cy="-817.15" rx="27" ry="30.31"/>
<text text-anchor="middle" x="1794.44" y="-809.05" font-family="Times,serif" font-size="32.00">t</text>
</g>
<!-- c2 -->
<g id="node17" class="node">
<title>c2</title>
<ellipse fill="none" stroke="black" cx="1606.21" cy="-683.15" rx="33.47" ry="30.31"/>
<text text-anchor="middle" x="1606.21" y="-675.05" font-family="Times,serif" font-size="32.00">c2</text>
</g>
<!-- t&#45;&gt;c2 -->
<g id="edge27" class="edge">
<title>t&#45;&gt;c2</title>
<path fill="none" stroke="#000000" d="M1771.35,-801.25C1739.1,-778.05 1678.87,-734.72 1641.03,-707.49"/>
<polygon fill="#000000" stroke="#000000" points="1643.01,-704.6 1632.85,-701.6 1638.92,-710.28 1643.01,-704.6"/>
<text text-anchor="middle" x="1703.44" y="-829.55" font-family="Times,serif" font-size="32.00">that</text>
<text text-anchor="middle" x="1703.44" y="-794.55" font-family="Times,serif" font-size="32.00">=t c2</text>
</g>
<!-- 0 -->
<g id="node2" class="node">
<title>0</title>
<ellipse fill="none" stroke="black" cx="1328.06" cy="-1053.15" rx="27" ry="30.31"/>
<text text-anchor="middle" x="1328.06" y="-1045.05" font-family="Times,serif" font-size="32.00">0</text>
</g>
<!-- d -->
<g id="node3" class="node">
<title>d</title>
<ellipse fill="none" stroke="black" cx="1081.15" cy="-1053.15" rx="27" ry="30.31"/>
<text text-anchor="middle" x="1081.15" y="-1045.05" font-family="Times,serif" font-size="32.00">d</text>
</g>
<!-- 0&#45;&gt;d -->
<g id="edge1" class="edge">
<title>0&#45;&gt;d</title>
<path fill="none" stroke="#000000" d="M1300.85,-1053.15C1256.84,-1053.15 1168.03,-1053.15 1118.19,-1053.15"/>
<polygon fill="#000000" stroke="#000000" points="1118.17,-1049.65 1108.17,-1053.15 1118.17,-1056.65 1118.17,-1049.65"/>
<text text-anchor="middle" x="1192.65" y="-1097.55" font-family="Times,serif" font-size="32.00">ε_0</text>
<text text-anchor="middle" x="1192.65" y="-1062.55" font-family="Times,serif" font-size="32.00">=&gt;0 d &#45;k</text>
</g>
<!-- z0 -->
<g id="node4" class="node">
<title>z0</title>
<ellipse fill="none" stroke="black" stroke-dasharray="5,2" cx="1606.21" cy="-1152.15" rx="27" ry="18"/>
</g>
<!-- z0&#45;&gt;0 -->
<g id="edge2" class="edge">
<title>z0&#45;&gt;0</title>
<path fill="none" stroke="#000000" d="M1579.5,-1155.16C1538.42,-1158.77 1456.57,-1160.92 1396.97,-1130.15 1377.86,-1120.29 1361.68,-1102.61 1349.91,-1086.69"/>
<polygon fill="#000000" stroke="#000000" points="1352.46,-1084.23 1343.84,-1078.08 1346.74,-1088.27 1352.46,-1084.23"/>
<text text-anchor="middle" x="1475.97" y="-1306.55" font-family="Times,serif" font-size="32.00">Mary |</text>
<text text-anchor="middle" x="1475.97" y="-1271.55" font-family="Times,serif" font-size="32.00"> John |</text>
<text text-anchor="middle" x="1475.97" y="-1236.55" font-family="Times,serif" font-size="32.00"> Alice |</text>
<text text-anchor="middle" x="1475.97" y="-1201.55" font-family="Times,serif" font-size="32.00"> Bob</text>
<text text-anchor="middle" x="1475.97" y="-1166.55" font-family="Times,serif" font-size="32.00">0</text>
</g>
<!-- n -->
<g id="node5" class="node">
<title>n</title>
<ellipse fill="none" stroke="black" cx="1606.21" cy="-954.15" rx="27" ry="30.31"/>
<text text-anchor="middle" x="1606.21" y="-946.05" font-family="Times,serif" font-size="32.00">n</text>
</g>
<!-- n&#45;&gt;0 -->
<g id="edge3" class="edge">
<title>n&#45;&gt;0</title>
<path fill="none" stroke="#000000" d="M1579.98,-946.39C1538.87,-935.29 1456.1,-919.49 1396.97,-951.15 1371.59,-964.75 1354.06,-992.48 1343.18,-1015.6"/>
<polygon fill="#000000" stroke="#000000" points="1339.93,-1014.29 1339.06,-1024.84 1346.33,-1017.14 1339.93,-1014.29"/>
<text text-anchor="middle" x="1475.97" y="-1100.55" font-family="Times,serif" font-size="32.00">this |</text>
<text text-anchor="middle" x="1475.97" y="-1065.55" font-family="Times,serif" font-size="32.00"> a |</text>
<text text-anchor="middle" x="1475.97" y="-1030.55" font-family="Times,serif" font-size="32.00"> the |</text>
<text text-anchor="middle" x="1475.97" y="-995.55" font-family="Times,serif" font-size="32.00"> some</text>
<text text-anchor="middle" x="1475.97" y="-960.55" font-family="Times,serif" font-size="32.00">=n 0</text>
</g>
<!-- z1 -->
<g id="node6" class="node">
<title>z1</title>
<ellipse fill="none" stroke="black" stroke-dasharray="5,2" cx="1794.44" cy="-954.15" rx="27" ry="18"/>
</g>
<!-- z1&#45;&gt;n -->
<g id="edge4" class="edge">
<title>z1&#45;&gt;n</title>
<path fill="none" stroke="#000000" d="M1767.15,-954.15C1734.85,-954.15 1679.86,-954.15 1643.53,-954.15"/>
<polygon fill="#000000" stroke="#000000" points="1643.36,-950.65 1633.36,-954.15 1643.36,-957.65 1643.36,-950.65"/>
<text text-anchor="middle" x="1703.44" y="-1033.55" font-family="Times,serif" font-size="32.00">boy |</text>
<text text-anchor="middle" x="1703.44" y="-998.55" font-family="Times,serif" font-size="32.00"> girl</text>
<text text-anchor="middle" x="1703.44" y="-963.55" font-family="Times,serif" font-size="32.00">n</text>
</g>
<!-- 1 -->
<g id="node7" class="node">
<title>1</title>
<ellipse fill="none" stroke="black" cx="28.99" cy="-811.15" rx="27" ry="30.31"/>
<text text-anchor="middle" x="28.99" y="-803.05" font-family="Times,serif" font-size="32.00">1</text>
</g>
<!-- 1&#45;&gt;t -->
<g id="edge5" class="edge">
<title>1&#45;&gt;t</title>
<path fill="none" stroke="#000000" d="M40.84,-838.85C48.34,-854.2 59.89,-872.15 75.98,-882.15 121.59,-910.5 142.29,-896.15 195.98,-896.15 1607.21,-896.15 1607.21,-896.15 1607.21,-896.15 1672.53,-896.15 1692.38,-890.94 1749.44,-859.15 1755.91,-855.55 1762.14,-850.77 1767.77,-845.72"/>
<polygon fill="#000000" stroke="#000000" points="1770.23,-848.21 1775.05,-838.77 1765.4,-843.15 1770.23,-848.21"/>
<text text-anchor="middle" x="844.15" y="-975.55" font-family="Times,serif" font-size="32.00">s |</text>
<text text-anchor="middle" x="844.15" y="-940.55" font-family="Times,serif" font-size="32.00"> d</text>
<text text-anchor="middle" x="844.15" y="-905.55" font-family="Times,serif" font-size="32.00">=&gt;1 +k t</text>
</g>
<!-- 2 -->
<g id="node8" class="node">
<title>2</title>
<ellipse fill="none" stroke="black" cx="1328.06" cy="-306.15" rx="27" ry="30.31"/>
<text text-anchor="middle" x="1328.06" y="-298.05" font-family="Times,serif" font-size="32.00">2</text>
</g>
<!-- 3 -->
<g id="node9" class="node">
<title>3</title>
<ellipse fill="none" stroke="black" cx="1081.15" cy="-646.15" rx="27" ry="30.31"/>
<text text-anchor="middle" x="1081.15" y="-638.05" font-family="Times,serif" font-size="32.00">3</text>
</g>
<!-- 2&#45;&gt;3 -->
<g id="edge6" class="edge">
<title>2&#45;&gt;3</title>
<path fill="none" stroke="#000000" d="M1301.39,-311.05C1257.91,-320.77 1170.2,-346.81 1126.15,-405.15 1102.76,-436.13 1090.35,-545.46 1085.16,-605.66"/>
<polygon fill="#000000" stroke="#000000" points="1081.65,-605.69 1084.3,-615.94 1088.62,-606.27 1081.65,-605.69"/>
<text text-anchor="middle" x="1192.65" y="-449.55" font-family="Times,serif" font-size="32.00">ε_1</text>
<text text-anchor="middle" x="1192.65" y="-414.55" font-family="Times,serif" font-size="32.00">=&gt;2 =d 3</text>
</g>
<!-- prog -->
<g id="node11" class="node">
<title>prog</title>
<ellipse fill="none" stroke="black" cx="844.15" cy="-626.15" rx="52.15" ry="30.31"/>
<text text-anchor="middle" x="844.15" y="-618.05" font-family="Times,serif" font-size="32.00">prog</text>
</g>
<!-- 3&#45;&gt;prog -->
<g id="edge8" class="edge">
<title>3&#45;&gt;prog</title>
<path fill="none" stroke="#000000" d="M1056.06,-633.69C1049.74,-631 1042.83,-628.55 1036.15,-627.15 993.43,-618.21 944.15,-618.19 906.34,-620.3"/>
<polygon fill="#000000" stroke="#000000" points="905.76,-616.83 896,-620.94 906.2,-623.81 905.76,-616.83"/>
<text text-anchor="middle" x="977.15" y="-671.55" font-family="Times,serif" font-size="32.00">ing</text>
<text text-anchor="middle" x="977.15" y="-636.55" font-family="Times,serif" font-size="32.00">=&gt;3 prog</text>
</g>
<!-- 4 -->
<g id="node12" class="node">
<title>4</title>
<ellipse fill="none" stroke="black" cx="625.15" cy="-707.15" rx="27" ry="30.31"/>
<text text-anchor="middle" x="625.15" y="-699.05" font-family="Times,serif" font-size="32.00">4</text>
</g>
<!-- 3&#45;&gt;4 -->
<g id="edge10" class="edge">
<title>3&#45;&gt;4</title>
<path fill="none" stroke="#000000" d="M1065.28,-671.09C1057.89,-681.09 1047.99,-691.55 1036.15,-697.15 909.76,-756.91 736.07,-730.89 661.98,-715.51"/>
<polygon fill="#000000" stroke="#000000" points="662.3,-712 651.79,-713.33 660.83,-718.85 662.3,-712"/>
<text text-anchor="middle" x="844.15" y="-779.55" font-family="Times,serif" font-size="32.00">ε_2</text>
<text text-anchor="middle" x="844.15" y="-744.55" font-family="Times,serif" font-size="32.00">=&gt;3 4</text>
</g>
<!-- z2 -->
<g id="node10" class="node">
<title>z2</title>
<ellipse fill="none" stroke="black" stroke-dasharray="5,2" cx="1606.21" cy="-101.15" rx="27" ry="18"/>
</g>
<!-- z2&#45;&gt;2 -->
<g id="edge7" class="edge">
<title>z2&#45;&gt;2</title>
<path fill="none" stroke="#000000" d="M1581.19,-93.83C1539.27,-82.65 1451.99,-66.59 1396.97,-107.15 1347.26,-143.81 1333.59,-218.94 1330.04,-265.68"/>
<polygon fill="#000000" stroke="#000000" points="1326.54,-265.56 1329.4,-275.77 1333.53,-266.01 1326.54,-265.56"/>
<text text-anchor="middle" x="1475.97" y="-256.55" font-family="Times,serif" font-size="32.00">dance |</text>
<text text-anchor="middle" x="1475.97" y="-221.55" font-family="Times,serif" font-size="32.00"> laugh |</text>
<text text-anchor="middle" x="1475.97" y="-186.55" font-family="Times,serif" font-size="32.00"> smile |</text>
<text text-anchor="middle" x="1475.97" y="-151.55" font-family="Times,serif" font-size="32.00"> jump</text>
<text text-anchor="middle" x="1475.97" y="-116.55" font-family="Times,serif" font-size="32.00">2</text>
</g>
<!-- prog&#45;&gt;4 -->
<g id="edge16" class="edge">
<title>prog&#45;&gt;4</title>
<path fill="none" stroke="#000000" d="M796.03,-614.19C759.15,-607.57 707.96,-604.65 670.15,-627.15 654.81,-636.28 644.45,-652.86 637.66,-668.57"/>
<polygon fill="#000000" stroke="#000000" points="634.29,-667.58 633.88,-678.17 640.8,-670.14 634.29,-667.58"/>
<text text-anchor="middle" x="720.15" y="-671.55" font-family="Times,serif" font-size="32.00">be</text>
<text text-anchor="middle" x="720.15" y="-636.55" font-family="Times,serif" font-size="32.00">=prog 4</text>
</g>
<!-- perf -->
<g id="node13" class="node">
<title>perf</title>
<ellipse fill="none" stroke="black" cx="402.07" cy="-681.15" rx="48.17" ry="30.31"/>
<text text-anchor="middle" x="402.07" y="-673.05" font-family="Times,serif" font-size="32.00">perf</text>
</g>
<!-- 4&#45;&gt;perf -->
<g id="edge9" class="edge">
<title>4&#45;&gt;perf</title>
<path fill="none" stroke="#000000" d="M601.82,-691.56C595.15,-687.73 587.62,-684.15 580.15,-682.15 540.82,-671.64 494.79,-671.74 459.52,-674.28"/>
<polygon fill="#000000" stroke="#000000" points="459.09,-670.8 449.41,-675.09 459.66,-677.78 459.09,-670.8"/>
<text text-anchor="middle" x="524.15" y="-726.55" font-family="Times,serif" font-size="32.00">n</text>
<text text-anchor="middle" x="524.15" y="-691.55" font-family="Times,serif" font-size="32.00">=&gt;4 perf</text>
</g>
<!-- v -->
<g id="node18" class="node">
<title>v</title>
<ellipse fill="none" stroke="black" cx="196.98" cy="-718.15" rx="27" ry="30.31"/>
<text text-anchor="middle" x="196.98" y="-710.05" font-family="Times,serif" font-size="32.00">v</text>
</g>
<!-- 4&#45;&gt;v -->
<g id="edge17" class="edge">
<title>4&#45;&gt;v</title>
<path fill="none" stroke="#000000" d="M607.53,-730.77C600.2,-739.17 590.82,-747.66 580.15,-752.15 441.62,-810.45 384.22,-800.7 241.98,-752.15 236.36,-750.23 230.91,-747.28 225.85,-743.89"/>
<polygon fill="#000000" stroke="#000000" points="227.9,-741.04 217.78,-737.89 223.72,-746.66 227.9,-741.04"/>
<text text-anchor="middle" x="402.07" y="-837.55" font-family="Times,serif" font-size="32.00">ε_4</text>
<text text-anchor="middle" x="402.07" y="-802.55" font-family="Times,serif" font-size="32.00">=&gt;4 v</text>
</g>
<!-- perf&#45;&gt;v -->
<g id="edge23" class="edge">
<title>perf&#45;&gt;v</title>
<path fill="none" stroke="#000000" d="M355.43,-673.54C322.84,-669.98 278.49,-668.99 241.98,-682.15 236.01,-684.31 230.26,-687.65 225,-691.45"/>
<polygon fill="#000000" stroke="#000000" points="222.81,-688.72 217.18,-697.69 227.18,-694.19 222.81,-688.72"/>
<text text-anchor="middle" x="288.98" y="-726.55" font-family="Times,serif" font-size="32.00">have</text>
<text text-anchor="middle" x="288.98" y="-691.55" font-family="Times,serif" font-size="32.00">=perf v</text>
</g>
<!-- 5 -->
<g id="node14" class="node">
<title>5</title>
<ellipse fill="none" stroke="black" cx="1606.21" cy="-346.15" rx="27" ry="30.31"/>
<text text-anchor="middle" x="1606.21" y="-338.05" font-family="Times,serif" font-size="32.00">5</text>
</g>
<!-- 5&#45;&gt;2 -->
<g id="edge11" class="edge">
<title>5&#45;&gt;2</title>
<path fill="none" stroke="#000000" d="M1587.58,-323.9C1578.87,-314.69 1567.54,-305.04 1554.97,-300.15 1491.53,-275.49 1410.32,-287.01 1364.57,-297"/>
<polygon fill="#000000" stroke="#000000" points="1363.52,-293.65 1354.55,-299.29 1365.07,-300.47 1363.52,-293.65"/>
<text text-anchor="middle" x="1475.97" y="-344.55" font-family="Times,serif" font-size="32.00">ε_3</text>
<text text-anchor="middle" x="1475.97" y="-309.55" font-family="Times,serif" font-size="32.00">=&gt;5 =d *k 2</text>
</g>
<!-- pass -->
<g id="node16" class="node">
<title>pass</title>
<ellipse fill="none" stroke="black" cx="1328.06" cy="-456.15" rx="50.82" ry="30.31"/>
<text text-anchor="middle" x="1328.06" y="-448.05" font-family="Times,serif" font-size="32.00">pass</text>
</g>
<!-- 5&#45;&gt;pass -->
<g id="edge13" class="edge">
<title>5&#45;&gt;pass</title>
<path fill="none" stroke="#000000" d="M1581.78,-359.15C1573.52,-363.23 1564.04,-367.4 1554.97,-370.15 1487.08,-390.79 1460.99,-362.53 1396.97,-393.15 1382.83,-399.92 1369.61,-410.67 1358.66,-421.39"/>
<polygon fill="#000000" stroke="#000000" points="1355.94,-419.16 1351.46,-428.75 1360.95,-424.05 1355.94,-419.16"/>
<text text-anchor="middle" x="1475.97" y="-437.55" font-family="Times,serif" font-size="32.00">n_1</text>
<text text-anchor="middle" x="1475.97" y="-402.55" font-family="Times,serif" font-size="32.00">=&gt;5 =d pass</text>
</g>
<!-- z3 -->
<g id="node15" class="node">
<title>z3</title>
<ellipse fill="none" stroke="black" stroke-dasharray="5,2" cx="1794.44" cy="-346.15" rx="27" ry="18"/>
</g>
<!-- z3&#45;&gt;5 -->
<g id="edge12" class="edge">
<title>z3&#45;&gt;5</title>
<path fill="none" stroke="#000000" d="M1767.15,-346.15C1734.85,-346.15 1679.86,-346.15 1643.53,-346.15"/>
<polygon fill="#000000" stroke="#000000" points="1643.36,-342.65 1633.36,-346.15 1643.36,-349.65 1643.36,-342.65"/>
<text text-anchor="middle" x="1703.44" y="-495.55" font-family="Times,serif" font-size="32.00">praise |</text>
<text text-anchor="middle" x="1703.44" y="-460.55" font-family="Times,serif" font-size="32.00"> like |</text>
<text text-anchor="middle" x="1703.44" y="-425.55" font-family="Times,serif" font-size="32.00"> kiss |</text>
<text text-anchor="middle" x="1703.44" y="-390.55" font-family="Times,serif" font-size="32.00"> hug</text>
<text text-anchor="middle" x="1703.44" y="-355.55" font-family="Times,serif" font-size="32.00">5</text>
</g>
<!-- pass&#45;&gt;3 -->
<g id="edge18" class="edge">
<title>pass&#45;&gt;3</title>
<path fill="none" stroke="#000000" d="M1282.56,-469.84C1238.22,-485.39 1170.51,-514.55 1126.15,-559.15 1112.48,-572.9 1102.24,-591.75 1095.09,-608.4"/>
<polygon fill="#000000" stroke="#000000" points="1091.75,-607.31 1091.23,-617.89 1098.24,-609.94 1091.75,-607.31"/>
<text text-anchor="middle" x="1192.65" y="-603.55" font-family="Times,serif" font-size="32.00">be_1</text>
<text text-anchor="middle" x="1192.65" y="-568.55" font-family="Times,serif" font-size="32.00">=pass 3</text>
</g>
<!-- c2&#45;&gt;2 -->
<g id="edge14" class="edge">
<title>c2&#45;&gt;2</title>
<path fill="none" stroke="#000000" d="M1605.42,-652.61C1603.97,-612.82 1595.3,-543.7 1554.97,-504.15 1503.17,-453.36 1451.23,-511.31 1396.97,-463.15 1380.55,-448.58 1387.48,-437.39 1378.97,-417.15 1368.35,-391.87 1355.67,-363.69 1345.75,-342.05"/>
<polygon fill="#000000" stroke="#000000" points="1348.9,-340.53 1341.54,-332.9 1342.54,-343.45 1348.9,-340.53"/>
<text text-anchor="middle" x="1475.97" y="-653.55" font-family="Times,serif" font-size="32.00">declare |</text>
<text text-anchor="middle" x="1475.97" y="-618.55" font-family="Times,serif" font-size="32.00"> think |</text>
<text text-anchor="middle" x="1475.97" y="-583.55" font-family="Times,serif" font-size="32.00"> explain |</text>
<text text-anchor="middle" x="1475.97" y="-548.55" font-family="Times,serif" font-size="32.00"> say</text>
<text text-anchor="middle" x="1475.97" y="-513.55" font-family="Times,serif" font-size="32.00">=c2 2</text>
</g>
<!-- c1 -->
<g id="node24" class="node">
<title>c1</title>
<ellipse fill="none" stroke="black" cx="1328.06" cy="-683.15" rx="33.47" ry="30.31"/>
<text text-anchor="middle" x="1328.06" y="-675.05" font-family="Times,serif" font-size="32.00">c1</text>
</g>
<!-- c2&#45;&gt;c1 -->
<g id="edge26" class="edge">
<title>c2&#45;&gt;c1</title>
<path fill="none" stroke="#000000" d="M1572.72,-683.15C1522.76,-683.15 1427.05,-683.15 1371.62,-683.15"/>
<polygon fill="#000000" stroke="#000000" points="1371.43,-679.65 1361.43,-683.15 1371.43,-686.65 1371.43,-679.65"/>
<text text-anchor="middle" x="1475.97" y="-727.55" font-family="Times,serif" font-size="32.00">ε_8</text>
<text text-anchor="middle" x="1475.97" y="-692.55" font-family="Times,serif" font-size="32.00">=&gt;c2 =e c1</text>
</g>
<!-- v&#45;&gt;1 -->
<g id="edge15" class="edge">
<title>v&#45;&gt;1</title>
<path fill="none" stroke="#000000" d="M185.49,-745.82C178.33,-760.96 167.33,-778.71 151.98,-789.15 126.8,-806.28 92.19,-811.19 66.26,-812.16"/>
<polygon fill="#000000" stroke="#000000" points="66.01,-808.67 56.08,-812.36 66.15,-815.67 66.01,-808.67"/>
<text text-anchor="middle" x="113.98" y="-856.55" font-family="Times,serif" font-size="32.00">will</text>
<text text-anchor="middle" x="113.98" y="-821.55" font-family="Times,serif" font-size="32.00">=v 1</text>
</g>
<!-- v&#45;&gt;1 -->
<g id="edge22" class="edge">
<title>v&#45;&gt;1</title>
<path fill="none" stroke="#000000" d="M170.88,-709.96C145.02,-703.14 104.55,-697.16 75.98,-715.15 56.36,-727.51 44.93,-750.81 38.37,-771.37"/>
<polygon fill="#000000" stroke="#000000" points="34.95,-770.6 35.52,-781.17 41.67,-772.54 34.95,-770.6"/>
<text text-anchor="middle" x="113.98" y="-759.55" font-family="Times,serif" font-size="32.00">ε_7</text>
<text text-anchor="middle" x="113.98" y="-724.55" font-family="Times,serif" font-size="32.00">=&gt;v 1</text>
</g>
<!-- to -->
<g id="node23" class="node">
<title>to</title>
<ellipse fill="none" stroke="black" cx="28.99" cy="-625.15" rx="28.98" ry="30.31"/>
<text text-anchor="middle" x="28.99" y="-617.05" font-family="Times,serif" font-size="32.00">to</text>
</g>
<!-- v&#45;&gt;to -->
<g id="edge25" class="edge">
<title>v&#45;&gt;to</title>
<path fill="none" stroke="#000000" d="M189.57,-688.75C183.5,-668.6 172.21,-643.23 151.98,-630.15 127.27,-614.17 93.47,-614.05 67.71,-617.3"/>
<polygon fill="#000000" stroke="#000000" points="66.95,-613.87 57.57,-618.79 67.98,-620.79 66.95,-613.87"/>
<text text-anchor="middle" x="113.98" y="-674.55" font-family="Times,serif" font-size="32.00">to</text>
<text text-anchor="middle" x="113.98" y="-639.55" font-family="Times,serif" font-size="32.00">=v to</text>
</g>
<!-- 6 -->
<g id="node19" class="node">
<title>6</title>
<ellipse fill="none" stroke="black" cx="1328.06" cy="-762.15" rx="27" ry="30.31"/>
<text text-anchor="middle" x="1328.06" y="-754.05" font-family="Times,serif" font-size="32.00">6</text>
</g>
<!-- 6&#45;&gt;3 -->
<g id="edge19" class="edge">
<title>6&#45;&gt;3</title>
<path fill="none" stroke="#000000" d="M1301.16,-765.51C1260,-769.41 1178.96,-771.09 1126.15,-733.15 1110.03,-721.57 1099.44,-702.34 1092.7,-684.9"/>
<polygon fill="#000000" stroke="#000000" points="1095.99,-683.71 1089.35,-675.46 1089.4,-686.05 1095.99,-683.71"/>
<text text-anchor="middle" x="1192.65" y="-812.55" font-family="Times,serif" font-size="32.00">ε_5</text>
<text text-anchor="middle" x="1192.65" y="-777.55" font-family="Times,serif" font-size="32.00">=&gt;6 =to 3</text>
</g>
<!-- 6&#45;&gt;3 -->
<g id="edge21" class="edge">
<title>6&#45;&gt;3</title>
<path fill="none" stroke="#000000" d="M1303.99,-748.25C1294.45,-741.46 1284.04,-732.51 1277.15,-722.15 1261.03,-697.9 1281.74,-677.53 1259.15,-659.15 1219.44,-626.85 1156.71,-631 1117.58,-637.89"/>
<polygon fill="#000000" stroke="#000000" points="1116.85,-634.47 1107.68,-639.78 1118.16,-641.35 1116.85,-634.47"/>
<text text-anchor="middle" x="1192.65" y="-703.55" font-family="Times,serif" font-size="32.00">ε_6</text>
<text text-anchor="middle" x="1192.65" y="-668.55" font-family="Times,serif" font-size="32.00">=&gt;6 =c1 3</text>
</g>
<!-- z4 -->
<g id="node20" class="node">
<title>z4</title>
<ellipse fill="none" stroke="black" stroke-dasharray="5,2" cx="1606.21" cy="-776.15" rx="27" ry="18"/>
</g>
<!-- z4&#45;&gt;6 -->
<g id="edge20" class="edge">
<title>z4&#45;&gt;6</title>
<path fill="none" stroke="#000000" d="M1579.23,-774.84C1529.78,-772.33 1422.04,-766.87 1365.45,-764"/>
<polygon fill="#000000" stroke="#000000" points="1365.34,-760.49 1355.17,-763.48 1364.98,-767.48 1365.34,-760.49"/>
<text text-anchor="middle" x="1475.97" y="-853.55" font-family="Times,serif" font-size="32.00">seem |</text>
<text text-anchor="middle" x="1475.97" y="-818.55" font-family="Times,serif" font-size="32.00"> appear</text>
<text text-anchor="middle" x="1475.97" y="-783.55" font-family="Times,serif" font-size="32.00">6</text>
</g>
<!-- z5 -->
<g id="node21" class="node">
<title>z5</title>
<ellipse fill="none" stroke="black" stroke-dasharray="5,2" cx="1794.44" cy="-1218.15" rx="27" ry="18"/>
</g>
<!-- e -->
<g id="node22" class="node">
<title>e</title>
<ellipse fill="none" stroke="black" cx="1606.21" cy="-1218.15" rx="27" ry="30.31"/>
<text text-anchor="middle" x="1606.21" y="-1210.05" font-family="Times,serif" font-size="32.00">e</text>
</g>
<!-- z5&#45;&gt;e -->
<g id="edge24" class="edge">
<title>z5&#45;&gt;e</title>
<path fill="none" stroke="#000000" d="M1767.15,-1218.15C1734.85,-1218.15 1679.86,-1218.15 1643.53,-1218.15"/>
<polygon fill="#000000" stroke="#000000" points="1643.36,-1214.65 1633.36,-1218.15 1643.36,-1221.65 1643.36,-1214.65"/>
<text text-anchor="middle" x="1703.44" y="-1262.55" font-family="Times,serif" font-size="32.00">it</text>
<text text-anchor="middle" x="1703.44" y="-1227.55" font-family="Times,serif" font-size="32.00">e &#45;k</text>
</g>
</g>
</svg>
