<?xml version="1.0" encoding="UTF-8" standalone="no"?>
<!DOCTYPE svg PUBLIC "-//W3C//DTD SVG 1.1//EN"
 "http://www.w3.org/Graphics/SVG/1.1/DTD/svg11.dtd">
<!-- Generated by graphviz version 2.47.1 (20210417.1919)
 -->
<!-- Title: G Pages: 1 -->
<svg width="1777pt" height="1171pt"
 viewBox="0.00 0.00 1777.00 1171.00" xmlns="http://www.w3.org/2000/svg" xmlns:xlink="http://www.w3.org/1999/xlink">
<g id="graph0" class="graph" transform="scale(1 1) rotate(0) translate(4 1167)">
<title>G</title>
<polygon fill="white" stroke="transparent" points="-4,4 -4,-1167 1773,-1167 1773,4 -4,4"/>
<text text-anchor="middle" x="884.5" y="-13.4" font-family="Times,serif" font-size="32.00">single contraction: 2 → 3</text>
<!-- t -->
<g id="node1" class="node">
<title>t</title>
<ellipse fill="lightgray" stroke="black" cx="27" cy="-549" rx="27" ry="30.31"/>
<text text-anchor="middle" x="27" y="-540.9" font-family="Times,serif" font-size="32.00">t</text>
</g>
<!-- z0 -->
<g id="node2" class="node">
<title>z0</title>
<ellipse fill="none" stroke="black" stroke-dasharray="5,2" cx="1742" cy="-593" rx="27" ry="18"/>
</g>
<!-- d -->
<g id="node3" class="node">
<title>d</title>
<ellipse fill="none" stroke="black" cx="1582" cy="-593" rx="27" ry="30.31"/>
<text text-anchor="middle" x="1582" y="-584.9" font-family="Times,serif" font-size="32.00">d</text>
</g>
<!-- z0&#45;&gt;d -->
<g id="edge1" class="edge">
<title>z0&#45;&gt;d</title>
<path fill="none" stroke="#000000" d="M1714.91,-593C1688.84,-593 1648.53,-593 1619.34,-593"/>
<polygon fill="#000000" stroke="#000000" points="1619.13,-589.5 1609.13,-593 1619.13,-596.5 1619.13,-589.5"/>
<text text-anchor="middle" x="1662" y="-637.4" font-family="Times,serif" font-size="32.00">Mary</text>
<text text-anchor="middle" x="1662" y="-602.4" font-family="Times,serif" font-size="32.00">d &#45;k</text>
</g>
<!-- 2 -->
<g id="node9" class="node">
<title>2</title>
<ellipse fill="none" stroke="black" cx="1169" cy="-577" rx="27" ry="30.31"/>
<text text-anchor="middle" x="1169" y="-568.9" font-family="Times,serif" font-size="32.00">2</text>
</g>
<!-- d&#45;&gt;2 -->
<g id="edge14" class="edge">
<title>d&#45;&gt;2</title>
<path fill="none" stroke="#000000" d="M1554.98,-591.99C1484.22,-589.23 1288.15,-581.6 1206.46,-578.42"/>
<polygon fill="#000000" stroke="#000000" points="1206.3,-574.91 1196.17,-578.02 1206.03,-581.91 1206.3,-574.91"/>
<text text-anchor="middle" x="1343.5" y="-629.4" font-family="Times,serif" font-size="32.00">laugh</text>
<text text-anchor="middle" x="1343.5" y="-594.4" font-family="Times,serif" font-size="32.00">=d 2</text>
</g>
<!-- 3 -->
<g id="node10" class="node">
<title>3</title>
<ellipse fill="none" stroke="black" cx="1343.5" cy="-695" rx="27" ry="30.31"/>
<text text-anchor="middle" x="1343.5" y="-686.9" font-family="Times,serif" font-size="32.00">3</text>
</g>
<!-- d&#45;&gt;3 -->
<g id="edge20" class="edge">
<title>d&#45;&gt;3</title>
<path fill="none" stroke="#000000" d="M1556.58,-603.53C1514.18,-621.82 1426.87,-659.47 1378.55,-680.32"/>
<polygon fill="#000000" stroke="#000000" points="1376.94,-677.2 1369.14,-684.37 1379.71,-683.63 1376.94,-677.2"/>
<text text-anchor="middle" x="1467" y="-715.4" font-family="Times,serif" font-size="32.00">dance</text>
<text text-anchor="middle" x="1467" y="-680.4" font-family="Times,serif" font-size="32.00">=d 3</text>
</g>
<!-- 4 -->
<g id="node11" class="node">
<title>4</title>
<ellipse fill="none" stroke="black" cx="1343.5" cy="-933" rx="27" ry="30.31"/>
<text text-anchor="middle" x="1343.5" y="-924.9" font-family="Times,serif" font-size="32.00">4</text>
</g>
<!-- d&#45;&gt;4 -->
<g id="edge26" class="edge">
<title>d&#45;&gt;4</title>
<path fill="none" stroke="#000000" d="M1576.96,-623.1C1571.62,-655.15 1560.07,-706.46 1537,-745 1494.23,-816.43 1417.71,-879.52 1375.17,-911.26"/>
<polygon fill="#000000" stroke="#000000" points="1372.85,-908.62 1366.88,-917.37 1377.01,-914.26 1372.85,-908.62"/>
<text text-anchor="middle" x="1467" y="-936.4" font-family="Times,serif" font-size="32.00">hug</text>
<text text-anchor="middle" x="1467" y="-901.4" font-family="Times,serif" font-size="32.00">=d *k =d 4</text>
</g>
<!-- 5 -->
<g id="node12" class="node">
<title>5</title>
<ellipse fill="none" stroke="black" cx="1343.5" cy="-244" rx="27" ry="30.31"/>
<text text-anchor="middle" x="1343.5" y="-235.9" font-family="Times,serif" font-size="32.00">5</text>
</g>
<!-- d&#45;&gt;5 -->
<g id="edge32" class="edge">
<title>d&#45;&gt;5</title>
<path fill="none" stroke="#000000" d="M1570.78,-564.94C1562.79,-544.39 1550.76,-516.15 1537,-493 1485.9,-407.04 1409.48,-316.73 1370.06,-272.22"/>
<polygon fill="#000000" stroke="#000000" points="1372.64,-269.85 1363.37,-264.71 1367.41,-274.5 1372.64,-269.85"/>
<text text-anchor="middle" x="1467" y="-537.4" font-family="Times,serif" font-size="32.00">praise</text>
<text text-anchor="middle" x="1467" y="-502.4" font-family="Times,serif" font-size="32.00">=d *k =d 5</text>
</g>
<!-- 0 -->
<g id="node4" class="node">
<title>0</title>
<ellipse fill="none" stroke="black" cx="229" cy="-750" rx="27" ry="30.31"/>
<text text-anchor="middle" x="229" y="-741.9" font-family="Times,serif" font-size="32.00">0</text>
</g>
<!-- 0&#45;&gt;t -->
<g id="edge2" class="edge">
<title>0&#45;&gt;t</title>
<path fill="none" stroke="#000000" d="M208.09,-729.99C172,-693.72 95.75,-617.09 55,-576.14"/>
<polygon fill="#000000" stroke="#000000" points="57.36,-573.55 47.83,-568.93 52.4,-578.48 57.36,-573.55"/>
<text text-anchor="middle" x="128" y="-746.4" font-family="Times,serif" font-size="32.00">s</text>
<text text-anchor="middle" x="128" y="-711.4" font-family="Times,serif" font-size="32.00">=&gt;0 +k t</text>
</g>
<!-- v -->
<g id="node5" class="node">
<title>v</title>
<ellipse fill="none" stroke="black" cx="421" cy="-531" rx="27" ry="30.31"/>
<text text-anchor="middle" x="421" y="-522.9" font-family="Times,serif" font-size="32.00">v</text>
</g>
<!-- v&#45;&gt;0 -->
<g id="edge3" class="edge">
<title>v&#45;&gt;0</title>
<path fill="none" stroke="#000000" d="M396.39,-543.56C364.63,-561.53 308.18,-597.39 274,-642 258.3,-662.49 247.33,-689.35 240.27,-711.16"/>
<polygon fill="#000000" stroke="#000000" points="236.9,-710.2 237.29,-720.78 243.59,-712.26 236.9,-710.2"/>
<text text-anchor="middle" x="315" y="-686.4" font-family="Times,serif" font-size="32.00">will</text>
<text text-anchor="middle" x="315" y="-651.4" font-family="Times,serif" font-size="32.00">=v 0</text>
</g>
<!-- 1 -->
<g id="node6" class="node">
<title>1</title>
<ellipse fill="none" stroke="black" cx="229" cy="-377" rx="27" ry="30.31"/>
<text text-anchor="middle" x="229" y="-368.9" font-family="Times,serif" font-size="32.00">1</text>
</g>
<!-- v&#45;&gt;1 -->
<g id="edge5" class="edge">
<title>v&#45;&gt;1</title>
<path fill="none" stroke="#000000" d="M398.57,-513.63C364.56,-486.06 298.12,-432.21 259.59,-400.98"/>
<polygon fill="#000000" stroke="#000000" points="261.32,-397.88 251.35,-394.3 256.91,-403.32 261.32,-397.88"/>
<text text-anchor="middle" x="315" y="-521.4" font-family="Times,serif" font-size="32.00">will_1</text>
<text text-anchor="middle" x="315" y="-486.4" font-family="Times,serif" font-size="32.00">=v 1</text>
</g>
<!-- 1&#45;&gt;t -->
<g id="edge4" class="edge">
<title>1&#45;&gt;t</title>
<path fill="none" stroke="#000000" d="M206.97,-395.08C170.96,-426.05 97.44,-489.28 56.73,-524.29"/>
<polygon fill="#000000" stroke="#000000" points="54.34,-521.73 49.04,-530.9 58.91,-527.04 54.34,-521.73"/>
<text text-anchor="middle" x="128" y="-552.4" font-family="Times,serif" font-size="32.00">d</text>
<text text-anchor="middle" x="128" y="-517.4" font-family="Times,serif" font-size="32.00">=&gt;1 +k t</text>
</g>
<!-- perf -->
<g id="node7" class="node">
<title>perf</title>
<ellipse fill="none" stroke="black" cx="654" cy="-697" rx="48.17" ry="30.31"/>
<text text-anchor="middle" x="654" y="-688.9" font-family="Times,serif" font-size="32.00">perf</text>
</g>
<!-- perf&#45;&gt;0 -->
<g id="edge6" class="edge">
<title>perf&#45;&gt;0</title>
<path fill="none" stroke="#000000" d="M629.24,-723.37C617.47,-734.48 602.29,-746.17 586,-752 474.7,-791.83 330.99,-771.03 265.43,-757.96"/>
<polygon fill="#000000" stroke="#000000" points="266.09,-754.52 255.59,-755.94 264.68,-761.38 266.09,-754.52"/>
<text text-anchor="middle" x="421" y="-819.4" font-family="Times,serif" font-size="32.00">have</text>
<text text-anchor="middle" x="421" y="-784.4" font-family="Times,serif" font-size="32.00">=perf 0</text>
</g>
<!-- perf&#45;&gt;v -->
<g id="edge8" class="edge">
<title>perf&#45;&gt;v</title>
<path fill="none" stroke="#000000" d="M622.21,-674.08C611.23,-666.79 598.48,-659.25 586,-654 543.97,-636.31 521.4,-659.75 486,-631 471.18,-618.96 477.8,-608.38 468,-592 461.68,-581.44 453.89,-570.51 446.54,-560.88"/>
<polygon fill="#000000" stroke="#000000" points="449.14,-558.53 440.23,-552.79 443.62,-562.83 449.14,-558.53"/>
<text text-anchor="middle" x="536" y="-698.4" font-family="Times,serif" font-size="32.00">have_2</text>
<text text-anchor="middle" x="536" y="-663.4" font-family="Times,serif" font-size="32.00">=perf v</text>
</g>
<!-- perf&#45;&gt;1 -->
<g id="edge7" class="edge">
<title>perf&#45;&gt;1</title>
<path fill="none" stroke="#000000" d="M615.47,-715.56C580.21,-730.2 526.91,-744.95 486,-724 473.81,-717.76 477.55,-708.81 468,-699 430.19,-660.13 303.87,-596.26 274,-551 247.25,-510.47 236.76,-454.8 232.65,-417.45"/>
<polygon fill="#000000" stroke="#000000" points="236.13,-417.03 231.65,-407.42 229.16,-417.72 236.13,-417.03"/>
<text text-anchor="middle" x="421" y="-743.4" font-family="Times,serif" font-size="32.00">have_1</text>
<text text-anchor="middle" x="421" y="-708.4" font-family="Times,serif" font-size="32.00">=perf 1</text>
</g>
<!-- prog -->
<g id="node8" class="node">
<title>prog</title>
<ellipse fill="none" stroke="black" cx="932" cy="-511" rx="52.15" ry="30.31"/>
<text text-anchor="middle" x="932" y="-502.9" font-family="Times,serif" font-size="32.00">prog</text>
</g>
<!-- prog&#45;&gt;0 -->
<g id="edge9" class="edge">
<title>prog&#45;&gt;0</title>
<path fill="none" stroke="#000000" d="M885.34,-525.04C832.96,-541.47 750.61,-568.43 722,-584 713.1,-588.85 713.59,-594.71 704,-598 661.96,-612.42 641.21,-622.3 604,-598 587.34,-587.12 602.66,-567.88 586,-557 567.39,-544.85 502.63,-542.26 486,-557 436.09,-601.25 513.67,-657.38 468,-706 441.06,-734.68 326.19,-744.94 266.44,-748.39"/>
<polygon fill="#000000" stroke="#000000" points="266.1,-744.9 256.31,-748.94 266.48,-751.89 266.1,-744.9"/>
<text text-anchor="middle" x="536" y="-601.4" font-family="Times,serif" font-size="32.00">be</text>
<text text-anchor="middle" x="536" y="-566.4" font-family="Times,serif" font-size="32.00">=prog 0</text>
</g>
<!-- prog&#45;&gt;v -->
<g id="edge11" class="edge">
<title>prog&#45;&gt;v</title>
<path fill="none" stroke="#000000" d="M879.39,-513.03C776.3,-517.08 547.14,-526.08 458.24,-529.58"/>
<polygon fill="#000000" stroke="#000000" points="457.96,-526.08 448.11,-529.97 458.24,-533.08 457.96,-526.08"/>
<text text-anchor="middle" x="654" y="-568.4" font-family="Times,serif" font-size="32.00">be_2</text>
<text text-anchor="middle" x="654" y="-533.4" font-family="Times,serif" font-size="32.00">=prog v</text>
</g>
<!-- prog&#45;&gt;1 -->
<g id="edge10" class="edge">
<title>prog&#45;&gt;1</title>
<path fill="none" stroke="#000000" d="M880.58,-504.83C838.14,-499.39 775.92,-490.8 722,-481 661.1,-469.93 646.52,-463.97 586,-451 469.06,-425.95 330.23,-397.45 265.96,-384.32"/>
<polygon fill="#000000" stroke="#000000" points="266.43,-380.85 255.93,-382.28 265.03,-387.71 266.43,-380.85"/>
<text text-anchor="middle" x="536" y="-495.4" font-family="Times,serif" font-size="32.00">be_1</text>
<text text-anchor="middle" x="536" y="-460.4" font-family="Times,serif" font-size="32.00">=prog 1</text>
</g>
<!-- prog&#45;&gt;perf -->
<g id="edge12" class="edge">
<title>prog&#45;&gt;perf</title>
<path fill="none" stroke="#000000" d="M898.51,-534.42C890.74,-540.69 882.76,-547.76 876,-555 866.41,-565.28 869.86,-573.46 858,-581 806.27,-613.89 771.47,-567.8 722,-604 707.88,-614.33 713.71,-624.45 704,-639 698.63,-647.05 692.31,-655.26 686.02,-662.87"/>
<polygon fill="#000000" stroke="#000000" points="683.05,-660.96 679.26,-670.85 688.39,-665.48 683.05,-660.96"/>
<text text-anchor="middle" x="790" y="-648.4" font-family="Times,serif" font-size="32.00">ben</text>
<text text-anchor="middle" x="790" y="-613.4" font-family="Times,serif" font-size="32.00">=prog perf</text>
</g>
<!-- 2&#45;&gt;0 -->
<g id="edge13" class="edge">
<title>2&#45;&gt;0</title>
<path fill="none" stroke="#000000" d="M1144.14,-588.97C1109.96,-605.93 1044.89,-637.5 988,-661 760.87,-754.83 710.06,-806.59 468,-849 426.85,-856.21 413.9,-861.39 374,-849 328.38,-834.83 284.4,-800.64 257.31,-776.42"/>
<polygon fill="#000000" stroke="#000000" points="259.54,-773.71 249.79,-769.56 254.82,-778.89 259.54,-773.71"/>
<text text-anchor="middle" x="654" y="-862.4" font-family="Times,serif" font-size="32.00">ε_0</text>
<text text-anchor="middle" x="654" y="-827.4" font-family="Times,serif" font-size="32.00">=&gt;2 0</text>
</g>
<!-- 2&#45;&gt;v -->
<g id="edge16" class="edge">
<title>2&#45;&gt;v</title>
<path fill="none" stroke="#000000" d="M1163.5,-547.19C1158.26,-523.46 1147.15,-491.42 1124,-474 980.77,-366.19 899.37,-414.97 722,-441 622.98,-455.53 511.28,-495.69 456.31,-517.11"/>
<polygon fill="#000000" stroke="#000000" points="454.75,-513.96 446.72,-520.88 457.31,-520.48 454.75,-513.96"/>
<text text-anchor="middle" x="790" y="-485.4" font-family="Times,serif" font-size="32.00">ε_2</text>
<text text-anchor="middle" x="790" y="-450.4" font-family="Times,serif" font-size="32.00">=&gt;2 v</text>
</g>
<!-- 2&#45;&gt;1 -->
<g id="edge15" class="edge">
<title>2&#45;&gt;1</title>
<path fill="none" stroke="#000000" d="M1164.23,-547.04C1158.17,-504.06 1144.78,-428.21 1124,-411 1057.19,-355.69 426.36,-371.01 266.62,-375.82"/>
<polygon fill="#000000" stroke="#000000" points="266.25,-372.33 256.37,-376.13 266.47,-379.33 266.25,-372.33"/>
<text text-anchor="middle" x="654" y="-415.4" font-family="Times,serif" font-size="32.00">ε_1</text>
<text text-anchor="middle" x="654" y="-380.4" font-family="Times,serif" font-size="32.00">=&gt;2 1</text>
</g>
<!-- 2&#45;&gt;perf -->
<g id="edge18" class="edge">
<title>2&#45;&gt;perf</title>
<path fill="none" stroke="#000000" d="M1141.64,-574.36C1077.47,-568.52 915.51,-557.55 876,-591 847.19,-615.39 886,-648.69 858,-674 837.22,-692.79 764.79,-697.15 712.36,-697.73"/>
<polygon fill="#000000" stroke="#000000" points="712.14,-694.23 702.17,-697.8 712.19,-701.23 712.14,-694.23"/>
<text text-anchor="middle" x="932" y="-635.4" font-family="Times,serif" font-size="32.00">n</text>
<text text-anchor="middle" x="932" y="-600.4" font-family="Times,serif" font-size="32.00">=&gt;2 perf</text>
</g>
<!-- 2&#45;&gt;prog -->
<g id="edge17" class="edge">
<title>2&#45;&gt;prog</title>
<path fill="none" stroke="#000000" d="M1161.1,-547.82C1154.87,-528.59 1143.58,-504.85 1124,-493 1082.14,-467.67 1025.44,-477.34 984.7,-490.17"/>
<polygon fill="#000000" stroke="#000000" points="983.36,-486.93 974.97,-493.4 985.56,-493.58 983.36,-486.93"/>
<text text-anchor="middle" x="1065" y="-537.4" font-family="Times,serif" font-size="32.00">ing</text>
<text text-anchor="middle" x="1065" y="-502.4" font-family="Times,serif" font-size="32.00">=&gt;2 prog</text>
</g>
<!-- 3&#45;&gt;0 -->
<g id="edge19" class="edge">
<title>3&#45;&gt;0</title>
<path fill="none" stroke="#000000" d="M1341.01,-725.53C1337.55,-760.04 1326.28,-815.04 1290,-843 1168.95,-936.3 756.59,-900.6 604,-892 455,-883.61 387.49,-926.91 274,-830 260.85,-818.77 250.92,-802.58 243.85,-787.7"/>
<polygon fill="#000000" stroke="#000000" points="246.87,-785.89 239.61,-778.18 240.48,-788.74 246.87,-785.89"/>
<text text-anchor="middle" x="790" y="-948.4" font-family="Times,serif" font-size="32.00">ε_3</text>
<text text-anchor="middle" x="790" y="-913.4" font-family="Times,serif" font-size="32.00">=&gt;3 0</text>
</g>
<!-- 3&#45;&gt;v -->
<g id="edge22" class="edge">
<title>3&#45;&gt;v</title>
<path fill="none" stroke="#000000" d="M1316.31,-696.33C1259.68,-699.25 1121.61,-706.53 1006,-714 890.64,-721.46 572.19,-805.03 486,-728 452.65,-698.2 481.62,-671.6 468,-629 461,-607.1 450.19,-583.75 440.8,-565.34"/>
<polygon fill="#000000" stroke="#000000" points="443.91,-563.72 436.19,-556.46 437.69,-566.95 443.91,-563.72"/>
<text text-anchor="middle" x="932" y="-776.4" font-family="Times,serif" font-size="32.00">ε_5</text>
<text text-anchor="middle" x="932" y="-741.4" font-family="Times,serif" font-size="32.00">=&gt;3 v</text>
</g>
<!-- 3&#45;&gt;1 -->
<g id="edge21" class="edge">
<title>3&#45;&gt;1</title>
<path fill="none" stroke="#000000" d="M1321,-677.49C1315.84,-672.13 1310.97,-665.82 1308,-659 1294.17,-627.27 1313.73,-373.19 1290,-348 1246.55,-301.88 785.16,-291.9 722,-297 549.67,-310.92 346.68,-351.83 265.83,-369.13"/>
<polygon fill="#000000" stroke="#000000" points="264.73,-365.79 255.69,-371.32 266.21,-372.63 264.73,-365.79"/>
<text text-anchor="middle" x="790" y="-341.4" font-family="Times,serif" font-size="32.00">ε_4</text>
<text text-anchor="middle" x="790" y="-306.4" font-family="Times,serif" font-size="32.00">=&gt;3 1</text>
</g>
<!-- 3&#45;&gt;perf -->
<g id="edge24" class="edge">
<title>3&#45;&gt;perf</title>
<path fill="none" stroke="#000000" d="M1317.4,-703.12C1308.81,-705.51 1299.07,-707.81 1290,-709 1256.51,-713.39 1247.78,-709.34 1214,-709 995.3,-706.78 940.64,-704.49 722,-699 718.9,-698.92 715.72,-698.84 712.51,-698.75"/>
<polygon fill="#000000" stroke="#000000" points="712.31,-695.25 702.22,-698.47 712.12,-702.24 712.31,-695.25"/>
<text text-anchor="middle" x="1065" y="-752.4" font-family="Times,serif" font-size="32.00">n_1</text>
<text text-anchor="middle" x="1065" y="-717.4" font-family="Times,serif" font-size="32.00">=&gt;3 perf</text>
</g>
<!-- 3&#45;&gt;2 -->
<g id="edge23" class="edge">
<title>3&#45;&gt;2</title>
<path fill="none" stroke="#000000" d="M1323.85,-673.37C1318.38,-666.47 1312.62,-658.64 1308,-651 1297.91,-634.32 1304.76,-623.74 1290,-611 1286.68,-608.13 1239.5,-595.28 1205.31,-586.23"/>
<polygon fill="#000000" stroke="#000000" points="1206.18,-582.84 1195.62,-583.67 1204.39,-589.6 1206.18,-582.84"/>
<text text-anchor="middle" x="1252" y="-655.4" font-family="Times,serif" font-size="32.00">ε_6</text>
<text text-anchor="middle" x="1252" y="-620.4" font-family="Times,serif" font-size="32.00">=&gt;3 2</text>
</g>
<!-- 4&#45;&gt;0 -->
<g id="edge25" class="edge">
<title>4&#45;&gt;0</title>
<path fill="none" stroke="#000000" d="M1329.49,-959.42C1305.04,-1004.87 1247.61,-1093 1170,-1093 1170,-1093 1170,-1093 420,-1093 283.14,-1093 244.06,-881.47 233.59,-790.64"/>
<polygon fill="#000000" stroke="#000000" points="237.04,-790 232.47,-780.44 230.08,-790.76 237.04,-790"/>
<text text-anchor="middle" x="790" y="-1137.4" font-family="Times,serif" font-size="32.00">ε_7</text>
<text text-anchor="middle" x="790" y="-1102.4" font-family="Times,serif" font-size="32.00">=&gt;4 0</text>
</g>
<!-- 4&#45;&gt;v -->
<g id="edge28" class="edge">
<title>4&#45;&gt;v</title>
<path fill="none" stroke="#000000" d="M1316.55,-935.81C1230.92,-944.48 949.81,-968.05 722,-931 667.48,-922.13 650.02,-922.54 604,-892 537.6,-847.94 519.15,-829.47 486,-757 462.1,-704.76 484.39,-684.06 468,-629 461.44,-606.96 450.65,-583.61 441.16,-565.23"/>
<polygon fill="#000000" stroke="#000000" points="444.25,-563.58 436.49,-556.37 438.06,-566.85 444.25,-563.58"/>
<text text-anchor="middle" x="932" y="-995.4" font-family="Times,serif" font-size="32.00">ε_9</text>
<text text-anchor="middle" x="932" y="-960.4" font-family="Times,serif" font-size="32.00">=&gt;4 v</text>
</g>
<!-- 4&#45;&gt;1 -->
<g id="edge27" class="edge">
<title>4&#45;&gt;1</title>
<path fill="none" stroke="#000000" d="M1317.36,-941.59C1308.76,-944.28 1299.03,-947.05 1290,-949 1227.79,-962.43 1057.28,-948.3 1006,-986 990.62,-997.31 1004.08,-1014.71 988,-1025 946.07,-1051.83 920.52,-1047.26 876,-1025 864.07,-1019.04 868.92,-1008.65 858,-1001 809.68,-967.17 660.26,-941.7 604,-924 501.44,-891.74 461.47,-911.53 374,-849 313.84,-805.99 301.9,-784.49 274,-716 252.29,-662.72 238.23,-495.7 232.68,-417.78"/>
<polygon fill="#000000" stroke="#000000" points="236.14,-417.13 231.95,-407.4 229.16,-417.62 236.14,-417.13"/>
<text text-anchor="middle" x="790" y="-1045.4" font-family="Times,serif" font-size="32.00">ε_8</text>
<text text-anchor="middle" x="790" y="-1010.4" font-family="Times,serif" font-size="32.00">=&gt;4 1</text>
</g>
<!-- 4&#45;&gt;perf -->
<g id="edge30" class="edge">
<title>4&#45;&gt;perf</title>
<path fill="none" stroke="#000000" d="M1323.72,-954.32C1314.55,-963.13 1302.74,-972.37 1290,-977 1203.54,-1008.44 966.91,-991.11 876,-977 805.02,-965.98 767.99,-983.17 722,-928 701.78,-903.74 713.72,-817.06 704,-787 698.05,-768.6 688.32,-749.61 679.1,-733.84"/>
<polygon fill="#000000" stroke="#000000" points="681.91,-731.72 673.75,-724.95 675.91,-735.33 681.91,-731.72"/>
<text text-anchor="middle" x="1065" y="-1038.4" font-family="Times,serif" font-size="32.00">n_2</text>
<text text-anchor="middle" x="1065" y="-1003.4" font-family="Times,serif" font-size="32.00">=&gt;4 perf</text>
</g>
<!-- 4&#45;&gt;2 -->
<g id="edge29" class="edge">
<title>4&#45;&gt;2</title>
<path fill="none" stroke="#000000" d="M1330.82,-905.97C1320.58,-882.68 1305.01,-848.28 1290,-819 1258.76,-758.07 1243.87,-746.61 1214,-685 1202.87,-662.04 1192.03,-635.51 1183.9,-614.49"/>
<polygon fill="#000000" stroke="#000000" points="1187.09,-613.04 1180.25,-604.95 1180.55,-615.54 1187.09,-613.04"/>
<text text-anchor="middle" x="1252" y="-863.4" font-family="Times,serif" font-size="32.00">ε_10</text>
<text text-anchor="middle" x="1252" y="-828.4" font-family="Times,serif" font-size="32.00">=&gt;4 2</text>
</g>
<!-- 5&#45;&gt;0 -->
<g id="edge31" class="edge">
<title>5&#45;&gt;0</title>
<path fill="none" stroke="#000000" d="M1319.64,-258.68C1310.75,-263.59 1300.25,-268.45 1290,-271 1218.39,-288.79 1197.78,-272.56 1124,-273 1071.56,-273.32 1058.37,-275.81 1006,-273 947.97,-269.88 923.54,-292.42 876,-259 861.04,-248.48 873.5,-231.7 858,-222 806.76,-189.94 781.24,-210.01 722,-222 510.19,-264.85 404.84,-239 274,-411 238.97,-457.05 231.78,-629.63 230.34,-709.27"/>
<polygon fill="#000000" stroke="#000000" points="226.84,-709.36 230.18,-719.41 233.83,-709.47 226.84,-709.36"/>
<text text-anchor="middle" x="790" y="-266.4" font-family="Times,serif" font-size="32.00">ε_11</text>
<text text-anchor="middle" x="790" y="-231.4" font-family="Times,serif" font-size="32.00">=&gt;5 0</text>
</g>
<!-- 5&#45;&gt;v -->
<g id="edge34" class="edge">
<title>5&#45;&gt;v</title>
<path fill="none" stroke="#000000" d="M1316.82,-239.12C1205.29,-218.21 766.52,-139.12 722,-180 687.34,-211.83 732.63,-353.65 704,-391 641.3,-472.78 573.61,-415.74 486,-470 472,-478.67 458.5,-490.78 447.54,-501.93"/>
<polygon fill="#000000" stroke="#000000" points="444.74,-499.79 440.38,-509.44 449.81,-504.62 444.74,-499.79"/>
<text text-anchor="middle" x="932" y="-229.4" font-family="Times,serif" font-size="32.00">ε_13</text>
<text text-anchor="middle" x="932" y="-194.4" font-family="Times,serif" font-size="32.00">=&gt;5 v</text>
</g>
<!-- 5&#45;&gt;1 -->
<g id="edge33" class="edge">
<title>5&#45;&gt;1</title>
<path fill="none" stroke="#000000" d="M1329.82,-217.45C1305.69,-171.26 1248.49,-81 1170,-81 1170,-81 1170,-81 420,-81 299.9,-81 252.2,-255.7 236.53,-336.67"/>
<polygon fill="#000000" stroke="#000000" points="233,-336.52 234.61,-346.99 239.88,-337.8 233,-336.52"/>
<text text-anchor="middle" x="790" y="-125.4" font-family="Times,serif" font-size="32.00">ε_12</text>
<text text-anchor="middle" x="790" y="-90.4" font-family="Times,serif" font-size="32.00">=&gt;5 1</text>
</g>
<!-- 5&#45;&gt;perf -->
<g id="edge36" class="edge">
<title>5&#45;&gt;perf</title>
<path fill="none" stroke="#000000" d="M1316.18,-246.95C1289.68,-250.52 1247.98,-257.75 1214,-271 1051.16,-334.5 996.48,-345.39 876,-472 864.21,-484.39 870.12,-493.94 858,-506 809.65,-554.08 770.89,-529.47 722,-577 709.13,-589.51 688.25,-628.76 673.22,-659"/>
<polygon fill="#000000" stroke="#000000" points="670.04,-657.54 668.76,-668.05 676.32,-660.63 670.04,-657.54"/>
<text text-anchor="middle" x="1065" y="-405.4" font-family="Times,serif" font-size="32.00">n_3</text>
<text text-anchor="middle" x="1065" y="-370.4" font-family="Times,serif" font-size="32.00">=&gt;5 perf</text>
</g>
<!-- 5&#45;&gt;2 -->
<g id="edge35" class="edge">
<title>5&#45;&gt;2</title>
<path fill="none" stroke="#000000" d="M1329.11,-269.85C1298.41,-329.11 1222.95,-474.78 1188.14,-541.99"/>
<polygon fill="#000000" stroke="#000000" points="1184.99,-540.44 1183.5,-550.93 1191.21,-543.66 1184.99,-540.44"/>
<text text-anchor="middle" x="1252" y="-532.4" font-family="Times,serif" font-size="32.00">ε_14</text>
<text text-anchor="middle" x="1252" y="-497.4" font-family="Times,serif" font-size="32.00">=&gt;5 2</text>
</g>
</g>
</svg>
