<?xml version="1.0" encoding="UTF-8" standalone="no"?>
<!DOCTYPE svg PUBLIC "-//W3C//DTD SVG 1.1//EN"
 "http://www.w3.org/Graphics/SVG/1.1/DTD/svg11.dtd">
<!-- Generated by graphviz version 2.47.1 (20210417.1919)
 -->
<!-- Title: G Pages: 1 -->
<svg width="1846pt" height="817pt"
 viewBox="0.00 0.00 1846.00 817.00" xmlns="http://www.w3.org/2000/svg" xmlns:xlink="http://www.w3.org/1999/xlink">
<g id="graph0" class="graph" transform="scale(1 1) rotate(0) translate(4 813)">
<title>G</title>
<polygon fill="white" stroke="transparent" points="-4,4 -4,-813 1842,-813 1842,4 -4,4"/>
<text text-anchor="middle" x="919" y="-13.4" font-family="Times,serif" font-size="32.00">single contraction: 3 → 2</text>
<!-- t -->
<g id="node1" class="node">
<title>t</title>
<ellipse fill="lightgray" stroke="black" cx="27" cy="-329" rx="27" ry="30.31"/>
<text text-anchor="middle" x="27" y="-320.9" font-family="Times,serif" font-size="32.00">t</text>
</g>
<!-- z0 -->
<g id="node2" class="node">
<title>z0</title>
<ellipse fill="none" stroke="black" stroke-dasharray="5,2" cx="1811" cy="-387" rx="27" ry="18"/>
</g>
<!-- d -->
<g id="node3" class="node">
<title>d</title>
<ellipse fill="none" stroke="black" cx="1651" cy="-387" rx="27" ry="30.31"/>
<text text-anchor="middle" x="1651" y="-378.9" font-family="Times,serif" font-size="32.00">d</text>
</g>
<!-- z0&#45;&gt;d -->
<g id="edge1" class="edge">
<title>z0&#45;&gt;d</title>
<path fill="none" stroke="#000000" d="M1783.91,-387C1757.84,-387 1717.53,-387 1688.34,-387"/>
<polygon fill="#000000" stroke="#000000" points="1688.13,-383.5 1678.13,-387 1688.13,-390.5 1688.13,-383.5"/>
<text text-anchor="middle" x="1731" y="-431.4" font-family="Times,serif" font-size="32.00">Mary</text>
<text text-anchor="middle" x="1731" y="-396.4" font-family="Times,serif" font-size="32.00">d &#45;k</text>
</g>
<!-- 2 -->
<g id="node9" class="node">
<title>2</title>
<ellipse fill="none" stroke="black" cx="1169" cy="-387" rx="27" ry="30.31"/>
<text text-anchor="middle" x="1169" y="-378.9" font-family="Times,serif" font-size="32.00">2</text>
</g>
<!-- d&#45;&gt;2 -->
<g id="edge14" class="edge">
<title>d&#45;&gt;2</title>
<path fill="none" stroke="#000000" d="M1630.03,-367.74C1596.01,-336.42 1523.15,-275.66 1448,-253 1388.43,-235.04 1365.66,-229.61 1308,-253 1257.72,-273.4 1215.67,-321.88 1191.66,-354.58"/>
<polygon fill="#000000" stroke="#000000" points="1188.65,-352.78 1185.67,-362.94 1194.34,-356.86 1188.65,-352.78"/>
<text text-anchor="middle" x="1378" y="-332.4" font-family="Times,serif" font-size="32.00">laugh |</text>
<text text-anchor="middle" x="1378" y="-297.4" font-family="Times,serif" font-size="32.00"> dance</text>
<text text-anchor="middle" x="1378" y="-262.4" font-family="Times,serif" font-size="32.00">=d 2</text>
</g>
<!-- d&#45;&gt;2 -->
<g id="edge19" class="edge">
<title>d&#45;&gt;2</title>
<path fill="none" stroke="#000000" d="M1640.33,-415.37C1633.39,-430.94 1622.34,-448.9 1606,-458 1453.78,-542.75 1366.22,-542.75 1214,-458 1200.85,-450.68 1191.13,-437.62 1184.22,-424.68"/>
<polygon fill="#000000" stroke="#000000" points="1187.2,-422.82 1179.67,-415.37 1180.91,-425.89 1187.2,-422.82"/>
<text text-anchor="middle" x="1378" y="-565.4" font-family="Times,serif" font-size="32.00">hug</text>
<text text-anchor="middle" x="1378" y="-530.4" font-family="Times,serif" font-size="32.00">=d *k =d 2</text>
</g>
<!-- 3 -->
<g id="node10" class="node">
<title>3</title>
<ellipse fill="none" stroke="black" cx="1378" cy="-397" rx="27" ry="30.31"/>
<text text-anchor="middle" x="1378" y="-388.9" font-family="Times,serif" font-size="32.00">3</text>
</g>
<!-- d&#45;&gt;3 -->
<g id="edge21" class="edge">
<title>d&#45;&gt;3</title>
<path fill="none" stroke="#000000" d="M1623.77,-386.34C1588.06,-385.62 1522.14,-384.95 1466,-388 1449.37,-388.9 1431.02,-390.68 1415.47,-392.43"/>
<polygon fill="#000000" stroke="#000000" points="1414.75,-388.99 1405.22,-393.61 1415.55,-395.94 1414.75,-388.99"/>
<text text-anchor="middle" x="1536" y="-432.4" font-family="Times,serif" font-size="32.00">praise</text>
<text text-anchor="middle" x="1536" y="-397.4" font-family="Times,serif" font-size="32.00">=d *k =d 3</text>
</g>
<!-- 0 -->
<g id="node4" class="node">
<title>0</title>
<ellipse fill="none" stroke="black" cx="229" cy="-227" rx="27" ry="30.31"/>
<text text-anchor="middle" x="229" y="-218.9" font-family="Times,serif" font-size="32.00">0</text>
</g>
<!-- 0&#45;&gt;t -->
<g id="edge2" class="edge">
<title>0&#45;&gt;t</title>
<path fill="none" stroke="#000000" d="M203.88,-239.3C168.19,-257.5 101.24,-291.65 61.02,-312.16"/>
<polygon fill="#000000" stroke="#000000" points="59.22,-309.15 51.9,-316.81 62.4,-315.39 59.22,-309.15"/>
<text text-anchor="middle" x="128" y="-349.4" font-family="Times,serif" font-size="32.00">s</text>
<text text-anchor="middle" x="128" y="-314.4" font-family="Times,serif" font-size="32.00">=&gt;0 +k t</text>
</g>
<!-- v -->
<g id="node5" class="node">
<title>v</title>
<ellipse fill="none" stroke="black" cx="421" cy="-478" rx="27" ry="30.31"/>
<text text-anchor="middle" x="421" y="-469.9" font-family="Times,serif" font-size="32.00">v</text>
</g>
<!-- v&#45;&gt;0 -->
<g id="edge3" class="edge">
<title>v&#45;&gt;0</title>
<path fill="none" stroke="#000000" d="M399.5,-458.97C391.05,-450.55 381.5,-440.25 374,-430 364.13,-416.52 365,-411.08 356,-397 323.45,-346.06 280.68,-290.37 254.29,-257.08"/>
<polygon fill="#000000" stroke="#000000" points="256.91,-254.76 247.94,-249.11 251.44,-259.12 256.91,-254.76"/>
<text text-anchor="middle" x="315" y="-441.4" font-family="Times,serif" font-size="32.00">will</text>
<text text-anchor="middle" x="315" y="-406.4" font-family="Times,serif" font-size="32.00">=v 0</text>
</g>
<!-- 1 -->
<g id="node6" class="node">
<title>1</title>
<ellipse fill="none" stroke="black" cx="229" cy="-524" rx="27" ry="30.31"/>
<text text-anchor="middle" x="229" y="-515.9" font-family="Times,serif" font-size="32.00">1</text>
</g>
<!-- v&#45;&gt;1 -->
<g id="edge5" class="edge">
<title>v&#45;&gt;1</title>
<path fill="none" stroke="#000000" d="M394.06,-473.59C363.95,-469.65 313.37,-466.72 274,-483 267.39,-485.73 261.16,-489.94 255.59,-494.64"/>
<polygon fill="#000000" stroke="#000000" points="252.87,-492.39 247.93,-501.76 257.64,-497.52 252.87,-492.39"/>
<text text-anchor="middle" x="315" y="-527.4" font-family="Times,serif" font-size="32.00">will_1</text>
<text text-anchor="middle" x="315" y="-492.4" font-family="Times,serif" font-size="32.00">=v 1</text>
</g>
<!-- 1&#45;&gt;t -->
<g id="edge4" class="edge">
<title>1&#45;&gt;t</title>
<path fill="none" stroke="#000000" d="M207.19,-505.86C176.68,-479.01 118.42,-426.7 72,-379 65.74,-372.57 59.23,-365.44 53.2,-358.63"/>
<polygon fill="#000000" stroke="#000000" points="55.6,-356.06 46.38,-350.84 50.33,-360.67 55.6,-356.06"/>
<text text-anchor="middle" x="128" y="-528.4" font-family="Times,serif" font-size="32.00">d</text>
<text text-anchor="middle" x="128" y="-493.4" font-family="Times,serif" font-size="32.00">=&gt;1 +k t</text>
</g>
<!-- perf -->
<g id="node7" class="node">
<title>perf</title>
<ellipse fill="none" stroke="black" cx="654" cy="-322" rx="48.17" ry="30.31"/>
<text text-anchor="middle" x="654" y="-313.9" font-family="Times,serif" font-size="32.00">perf</text>
</g>
<!-- perf&#45;&gt;0 -->
<g id="edge6" class="edge">
<title>perf&#45;&gt;0</title>
<path fill="none" stroke="#000000" d="M607.9,-312.84C573.62,-305.05 525.75,-292.35 486,-275 477.41,-271.25 476.8,-267.23 468,-264 399.56,-238.91 313.98,-230.83 266.33,-228.23"/>
<polygon fill="#000000" stroke="#000000" points="266.35,-224.73 256.19,-227.73 266.01,-231.72 266.35,-224.73"/>
<text text-anchor="middle" x="421" y="-308.4" font-family="Times,serif" font-size="32.00">have</text>
<text text-anchor="middle" x="421" y="-273.4" font-family="Times,serif" font-size="32.00">=perf 0</text>
</g>
<!-- perf&#45;&gt;v -->
<g id="edge8" class="edge">
<title>perf&#45;&gt;v</title>
<path fill="none" stroke="#000000" d="M614.45,-339.42C605.24,-343.22 595.36,-346.99 586,-350 542.58,-363.95 519.51,-342.06 486,-373 466.48,-391.02 481.54,-407.15 468,-430 463.16,-438.17 456.68,-446.04 450.12,-452.97"/>
<polygon fill="#000000" stroke="#000000" points="447.61,-450.52 443.03,-460.08 452.57,-455.46 447.61,-450.52"/>
<text text-anchor="middle" x="536" y="-417.4" font-family="Times,serif" font-size="32.00">have_2</text>
<text text-anchor="middle" x="536" y="-382.4" font-family="Times,serif" font-size="32.00">=perf v</text>
</g>
<!-- perf&#45;&gt;1 -->
<g id="edge7" class="edge">
<title>perf&#45;&gt;1</title>
<path fill="none" stroke="#000000" d="M605.84,-325.08C509.86,-331.77 298.79,-348.73 274,-370 241.54,-397.85 232.21,-447.83 229.92,-483.29"/>
<polygon fill="#000000" stroke="#000000" points="226.42,-483.18 229.44,-493.33 233.41,-483.52 226.42,-483.18"/>
<text text-anchor="middle" x="421" y="-391.4" font-family="Times,serif" font-size="32.00">have_1</text>
<text text-anchor="middle" x="421" y="-356.4" font-family="Times,serif" font-size="32.00">=perf 1</text>
</g>
<!-- prog -->
<g id="node8" class="node">
<title>prog</title>
<ellipse fill="none" stroke="black" cx="932" cy="-387" rx="52.15" ry="30.31"/>
<text text-anchor="middle" x="932" y="-378.9" font-family="Times,serif" font-size="32.00">prog</text>
</g>
<!-- prog&#45;&gt;0 -->
<g id="edge9" class="edge">
<title>prog&#45;&gt;0</title>
<path fill="none" stroke="#000000" d="M892.14,-367.08C886.15,-362.73 880.47,-357.7 876,-352 860.64,-332.44 876.44,-315.7 858,-299 772.09,-221.21 693.87,-313.17 604,-240 589.2,-227.95 602.08,-211.29 586,-201 533.67,-167.52 344.94,-202.43 265.57,-219.14"/>
<polygon fill="#000000" stroke="#000000" points="264.61,-215.77 255.56,-221.28 266.07,-222.61 264.61,-215.77"/>
<text text-anchor="middle" x="536" y="-245.4" font-family="Times,serif" font-size="32.00">be</text>
<text text-anchor="middle" x="536" y="-210.4" font-family="Times,serif" font-size="32.00">=prog 0</text>
</g>
<!-- prog&#45;&gt;v -->
<g id="edge11" class="edge">
<title>prog&#45;&gt;v</title>
<path fill="none" stroke="#000000" d="M879.56,-388.72C793.37,-391.98 626.9,-400 604,-414 591.06,-421.91 598.41,-434.28 586,-443 548.12,-469.63 494.01,-476.68 458.45,-478.2"/>
<polygon fill="#000000" stroke="#000000" points="457.94,-474.72 448.05,-478.51 458.15,-481.71 457.94,-474.72"/>
<text text-anchor="middle" x="654" y="-458.4" font-family="Times,serif" font-size="32.00">be_2</text>
<text text-anchor="middle" x="654" y="-423.4" font-family="Times,serif" font-size="32.00">=prog v</text>
</g>
<!-- prog&#45;&gt;1 -->
<g id="edge10" class="edge">
<title>prog&#45;&gt;1</title>
<path fill="none" stroke="#000000" d="M891.76,-406.75C847.24,-428.44 771.97,-462.99 704,-484 553.35,-530.56 512.92,-537.59 356,-553 319.73,-556.56 308.91,-563.47 274,-553 269.21,-551.56 264.47,-549.42 259.96,-546.94"/>
<polygon fill="#000000" stroke="#000000" points="261.46,-543.75 251.11,-541.48 257.78,-549.71 261.46,-543.75"/>
<text text-anchor="middle" x="536" y="-582.4" font-family="Times,serif" font-size="32.00">be_1</text>
<text text-anchor="middle" x="536" y="-547.4" font-family="Times,serif" font-size="32.00">=prog 1</text>
</g>
<!-- prog&#45;&gt;perf -->
<g id="edge12" class="edge">
<title>prog&#45;&gt;perf</title>
<path fill="none" stroke="#000000" d="M905,-360.81C885.28,-341.09 861.05,-317.24 858,-316 810.32,-296.64 751.01,-301.3 708.84,-308.89"/>
<polygon fill="#000000" stroke="#000000" points="707.94,-305.5 698.78,-310.82 709.26,-312.38 707.94,-305.5"/>
<text text-anchor="middle" x="790" y="-360.4" font-family="Times,serif" font-size="32.00">ben</text>
<text text-anchor="middle" x="790" y="-325.4" font-family="Times,serif" font-size="32.00">=prog perf</text>
</g>
<!-- 2&#45;&gt;0 -->
<g id="edge13" class="edge">
<title>2&#45;&gt;0</title>
<path fill="none" stroke="#000000" d="M1162.58,-357.11C1156.83,-333.48 1145.48,-301.21 1124,-281 1095.49,-254.18 830.14,-166 791,-166 791,-166 791,-166 420,-166 353.47,-166 335.42,-173.43 274,-199 269.53,-200.86 265.01,-203.16 260.66,-205.64"/>
<polygon fill="#000000" stroke="#000000" points="258.74,-202.71 252.02,-210.9 262.38,-208.69 258.74,-202.71"/>
<text text-anchor="middle" x="654" y="-210.4" font-family="Times,serif" font-size="32.00">ε_0</text>
<text text-anchor="middle" x="654" y="-175.4" font-family="Times,serif" font-size="32.00">=&gt;2 0</text>
</g>
<!-- 2&#45;&gt;v -->
<g id="edge16" class="edge">
<title>2&#45;&gt;v</title>
<path fill="none" stroke="#000000" d="M1158.72,-415.39C1151.83,-431.64 1140.7,-450.78 1124,-461 926.62,-581.82 835.34,-494.35 604,-488 553.47,-486.61 495.14,-483.06 458.42,-480.59"/>
<polygon fill="#000000" stroke="#000000" points="458.42,-477.08 448.2,-479.89 457.94,-484.07 458.42,-477.08"/>
<text text-anchor="middle" x="790" y="-564.4" font-family="Times,serif" font-size="32.00">ε_2</text>
<text text-anchor="middle" x="790" y="-529.4" font-family="Times,serif" font-size="32.00">=&gt;2 v</text>
</g>
<!-- 2&#45;&gt;1 -->
<g id="edge15" class="edge">
<title>2&#45;&gt;1</title>
<path fill="none" stroke="#000000" d="M1163.58,-417.05C1158.33,-442.58 1147.16,-478.57 1124,-501 1034.04,-588.13 980.71,-568.97 858,-594 695.81,-627.08 650.7,-628.53 486,-612 390.34,-602.4 358.45,-614.96 274,-569 266.85,-565.11 260.13,-559.67 254.2,-553.91"/>
<polygon fill="#000000" stroke="#000000" points="256.58,-551.34 247.14,-546.54 251.53,-556.18 256.58,-551.34"/>
<text text-anchor="middle" x="654" y="-666.4" font-family="Times,serif" font-size="32.00">ε_1</text>
<text text-anchor="middle" x="654" y="-631.4" font-family="Times,serif" font-size="32.00">=&gt;2 1</text>
</g>
<!-- 2&#45;&gt;perf -->
<g id="edge18" class="edge">
<title>2&#45;&gt;perf</title>
<path fill="none" stroke="#000000" d="M1147.1,-368.99C1115.3,-342.91 1051.69,-295.78 988,-278 890.1,-250.67 771.14,-280.95 705.18,-303.07"/>
<polygon fill="#000000" stroke="#000000" points="703.78,-299.85 695.46,-306.4 706.05,-306.47 703.78,-299.85"/>
<text text-anchor="middle" x="932" y="-322.4" font-family="Times,serif" font-size="32.00">n</text>
<text text-anchor="middle" x="932" y="-287.4" font-family="Times,serif" font-size="32.00">=&gt;2 perf</text>
</g>
<!-- 2&#45;&gt;prog -->
<g id="edge17" class="edge">
<title>2&#45;&gt;prog</title>
<path fill="none" stroke="#000000" d="M1141.95,-387C1106.66,-387 1042.56,-387 994.63,-387"/>
<polygon fill="#000000" stroke="#000000" points="994.36,-383.5 984.36,-387 994.36,-390.5 994.36,-383.5"/>
<text text-anchor="middle" x="1065" y="-431.4" font-family="Times,serif" font-size="32.00">ing</text>
<text text-anchor="middle" x="1065" y="-396.4" font-family="Times,serif" font-size="32.00">=&gt;2 prog</text>
</g>
<!-- 3&#45;&gt;0 -->
<g id="edge20" class="edge">
<title>3&#45;&gt;0</title>
<path fill="none" stroke="#000000" d="M1351.63,-390.28C1336.69,-385.02 1318.68,-376.15 1308,-362 1282.65,-328.39 1305.6,-308.1 1290,-269 1253.26,-176.93 1269.13,-81 1170,-81 1170,-81 1170,-81 420,-81 345.9,-81 282.93,-151.68 251.48,-194.69"/>
<polygon fill="#000000" stroke="#000000" points="248.58,-192.72 245.61,-202.89 254.28,-196.79 248.58,-192.72"/>
<text text-anchor="middle" x="790" y="-125.4" font-family="Times,serif" font-size="32.00">ε_3</text>
<text text-anchor="middle" x="790" y="-90.4" font-family="Times,serif" font-size="32.00">=&gt;3 0</text>
</g>
<!-- 3&#45;&gt;v -->
<g id="edge23" class="edge">
<title>3&#45;&gt;v</title>
<path fill="none" stroke="#000000" d="M1359.5,-419.8C1322.25,-466.21 1229.83,-570.52 1124,-609 1068.78,-629.08 841.71,-619.62 722,-594 668.78,-582.61 522.69,-521.32 456,-492.72"/>
<polygon fill="#000000" stroke="#000000" points="457.33,-489.48 446.76,-488.74 454.56,-495.91 457.33,-489.48"/>
<text text-anchor="middle" x="932" y="-663.4" font-family="Times,serif" font-size="32.00">ε_5</text>
<text text-anchor="middle" x="932" y="-628.4" font-family="Times,serif" font-size="32.00">=&gt;3 v</text>
</g>
<!-- 3&#45;&gt;1 -->
<g id="edge22" class="edge">
<title>3&#45;&gt;1</title>
<path fill="none" stroke="#000000" d="M1359.82,-419.95C1345.01,-440.33 1323.61,-471.25 1308,-500 1249.46,-607.79 1292.66,-739 1170,-739 1170,-739 1170,-739 420,-739 326.38,-739 267.82,-623.12 243.29,-561.5"/>
<polygon fill="#000000" stroke="#000000" points="246.53,-560.17 239.65,-552.11 240,-562.7 246.53,-560.17"/>
<text text-anchor="middle" x="790" y="-783.4" font-family="Times,serif" font-size="32.00">ε_4</text>
<text text-anchor="middle" x="790" y="-748.4" font-family="Times,serif" font-size="32.00">=&gt;3 1</text>
</g>
<!-- 3&#45;&gt;perf -->
<g id="edge25" class="edge">
<title>3&#45;&gt;perf</title>
<path fill="none" stroke="#000000" d="M1352.66,-386.25C1339.11,-379.87 1322.17,-371.25 1308,-362 1219.41,-304.17 1223.61,-246.64 1124,-211 1020.21,-173.86 738.28,-258.26 722,-266 709.67,-271.86 697.73,-280.53 687.42,-289.3"/>
<polygon fill="#000000" stroke="#000000" points="685.04,-286.73 679.88,-295.99 689.68,-291.97 685.04,-286.73"/>
<text text-anchor="middle" x="1065" y="-255.4" font-family="Times,serif" font-size="32.00">n_1</text>
<text text-anchor="middle" x="1065" y="-220.4" font-family="Times,serif" font-size="32.00">=&gt;3 perf</text>
</g>
<!-- 3&#45;&gt;2 -->
<g id="edge24" class="edge">
<title>3&#45;&gt;2</title>
<path fill="none" stroke="#000000" d="M1350.78,-393.63C1333.54,-391.58 1310.47,-389.14 1290,-388 1261.91,-386.43 1230.07,-386.24 1206.25,-386.41"/>
<polygon fill="#000000" stroke="#000000" points="1206.21,-382.91 1196.24,-386.5 1206.27,-389.91 1206.21,-382.91"/>
<text text-anchor="middle" x="1252" y="-432.4" font-family="Times,serif" font-size="32.00">ε_6</text>
<text text-anchor="middle" x="1252" y="-397.4" font-family="Times,serif" font-size="32.00">=&gt;3 2</text>
</g>
</g>
</svg>
