<?xml version="1.0" encoding="UTF-8" standalone="no"?>
<!DOCTYPE svg PUBLIC "-//W3C//DTD SVG 1.1//EN"
 "http://www.w3.org/Graphics/SVG/1.1/DTD/svg11.dtd">
<!-- Generated by graphviz version 2.47.1 (20210417.1919)
 -->
<!-- Title: G Pages: 1 -->
<svg width="1784pt" height="658pt"
 viewBox="0.00 0.00 1784.17 658.00" xmlns="http://www.w3.org/2000/svg" xmlns:xlink="http://www.w3.org/1999/xlink">
<g id="graph0" class="graph" transform="scale(1 1) rotate(0) translate(4 654)">
<title>G</title>
<polygon fill="white" stroke="transparent" points="-4,4 -4,-654 1780.17,-654 1780.17,4 -4,4"/>
<text text-anchor="middle" x="888.08" y="-13.4" font-family="Times,serif" font-size="32.00">decomposition: have =perf 0, have =perf 1, have =perf v</text>
<!-- t -->
<g id="node1" class="node">
<title>t</title>
<ellipse fill="lightgray" stroke="black" cx="27" cy="-301" rx="27" ry="30.31"/>
<text text-anchor="middle" x="27" y="-292.9" font-family="Times,serif" font-size="32.00">t</text>
</g>
<!-- z0 -->
<g id="node2" class="node">
<title>z0</title>
<ellipse fill="none" stroke="black" stroke-dasharray="5,2" cx="1749.17" cy="-298" rx="27" ry="18"/>
</g>
<!-- d -->
<g id="node3" class="node">
<title>d</title>
<ellipse fill="none" stroke="black" cx="1589.17" cy="-298" rx="27" ry="30.31"/>
<text text-anchor="middle" x="1589.17" y="-289.9" font-family="Times,serif" font-size="32.00">d</text>
</g>
<!-- z0&#45;&gt;d -->
<g id="edge1" class="edge">
<title>z0&#45;&gt;d</title>
<path fill="none" stroke="#000000" d="M1722.08,-298C1696,-298 1655.7,-298 1626.5,-298"/>
<polygon fill="#000000" stroke="#000000" points="1626.3,-294.5 1616.3,-298 1626.3,-301.5 1626.3,-294.5"/>
<text text-anchor="middle" x="1669.17" y="-342.4" font-family="Times,serif" font-size="32.00">Mary</text>
<text text-anchor="middle" x="1669.17" y="-307.4" font-family="Times,serif" font-size="32.00">d &#45;k</text>
</g>
<!-- 3 -->
<g id="node10" class="node">
<title>3</title>
<ellipse fill="none" stroke="black" cx="1359.17" cy="-298" rx="27" ry="30.31"/>
<text text-anchor="middle" x="1359.17" y="-289.9" font-family="Times,serif" font-size="32.00">3</text>
</g>
<!-- d&#45;&gt;3 -->
<g id="edge15" class="edge">
<title>d&#45;&gt;3</title>
<path fill="none" stroke="#000000" d="M1570.83,-320.52C1563.53,-328.22 1554.36,-335.92 1544.17,-340 1486.41,-363.14 1461.93,-363.14 1404.17,-340 1397.16,-337.19 1390.63,-332.68 1384.87,-327.63"/>
<polygon fill="#000000" stroke="#000000" points="1387.13,-324.94 1377.5,-320.52 1382.26,-329.98 1387.13,-324.94"/>
<text text-anchor="middle" x="1474.17" y="-437.4" font-family="Times,serif" font-size="32.00">laugh |</text>
<text text-anchor="middle" x="1474.17" y="-402.4" font-family="Times,serif" font-size="32.00"> dance</text>
<text text-anchor="middle" x="1474.17" y="-367.4" font-family="Times,serif" font-size="32.00">=d 3</text>
</g>
<!-- d&#45;&gt;3 -->
<g id="edge20" class="edge">
<title>d&#45;&gt;3</title>
<path fill="none" stroke="#000000" d="M1577.59,-270.16C1570.5,-255.69 1559.6,-239.33 1544.17,-231 1489.41,-201.45 1458.92,-201.45 1404.17,-231 1391.87,-237.64 1382.45,-249.37 1375.54,-261.19"/>
<polygon fill="#000000" stroke="#000000" points="1372.38,-259.69 1370.74,-270.16 1378.55,-262.99 1372.38,-259.69"/>
<text text-anchor="middle" x="1474.17" y="-310.4" font-family="Times,serif" font-size="32.00">hug |</text>
<text text-anchor="middle" x="1474.17" y="-275.4" font-family="Times,serif" font-size="32.00"> praise</text>
<text text-anchor="middle" x="1474.17" y="-240.4" font-family="Times,serif" font-size="32.00">=d *k =d 3</text>
</g>
<!-- 0 -->
<g id="node4" class="node">
<title>0</title>
<ellipse fill="none" stroke="black" cx="229" cy="-160" rx="27" ry="30.31"/>
<text text-anchor="middle" x="229" y="-151.9" font-family="Times,serif" font-size="32.00">0</text>
</g>
<!-- 0&#45;&gt;t -->
<g id="edge2" class="edge">
<title>0&#45;&gt;t</title>
<path fill="none" stroke="#000000" d="M205.83,-175.63C169.94,-200.93 99.04,-250.91 58.45,-279.54"/>
<polygon fill="#000000" stroke="#000000" points="56.42,-276.68 50.27,-285.3 60.46,-282.4 56.42,-276.68"/>
<text text-anchor="middle" x="128" y="-311.4" font-family="Times,serif" font-size="32.00">s</text>
<text text-anchor="middle" x="128" y="-276.4" font-family="Times,serif" font-size="32.00">=&gt;0 +k t</text>
</g>
<!-- v -->
<g id="node5" class="node">
<title>v</title>
<ellipse fill="none" stroke="black" cx="412" cy="-252" rx="27" ry="30.31"/>
<text text-anchor="middle" x="412" y="-243.9" font-family="Times,serif" font-size="32.00">v</text>
</g>
<!-- v&#45;&gt;0 -->
<g id="edge3" class="edge">
<title>v&#45;&gt;0</title>
<path fill="none" stroke="#000000" d="M402.24,-223.42C394.02,-202.06 379.42,-174.33 356,-161 328.64,-145.43 292.23,-147.04 265.59,-151.45"/>
<polygon fill="#000000" stroke="#000000" points="264.73,-148.05 255.54,-153.32 266.01,-154.93 264.73,-148.05"/>
<text text-anchor="middle" x="315" y="-205.4" font-family="Times,serif" font-size="32.00">will</text>
<text text-anchor="middle" x="315" y="-170.4" font-family="Times,serif" font-size="32.00">=v 0</text>
</g>
<!-- 1 -->
<g id="node6" class="node">
<title>1</title>
<ellipse fill="none" stroke="black" cx="229" cy="-444" rx="27" ry="30.31"/>
<text text-anchor="middle" x="229" y="-435.9" font-family="Times,serif" font-size="32.00">1</text>
</g>
<!-- v&#45;&gt;1 -->
<g id="edge5" class="edge">
<title>v&#45;&gt;1</title>
<path fill="none" stroke="#000000" d="M387.94,-265.82C358.56,-284.33 307.56,-319.57 274,-360 262.33,-374.06 252.51,-391.71 245.13,-407.2"/>
<polygon fill="#000000" stroke="#000000" points="241.84,-405.97 240.85,-416.52 248.21,-408.89 241.84,-405.97"/>
<text text-anchor="middle" x="315" y="-404.4" font-family="Times,serif" font-size="32.00">will_1</text>
<text text-anchor="middle" x="315" y="-369.4" font-family="Times,serif" font-size="32.00">=v 1</text>
</g>
<!-- 1&#45;&gt;t -->
<g id="edge4" class="edge">
<title>1&#45;&gt;t</title>
<path fill="none" stroke="#000000" d="M204.77,-430.22C173.6,-411.39 116.97,-375.95 72,-341 66.52,-336.74 60.89,-331.97 55.56,-327.23"/>
<polygon fill="#000000" stroke="#000000" points="57.78,-324.52 48.02,-320.4 53.08,-329.71 57.78,-324.52"/>
<text text-anchor="middle" x="128" y="-461.4" font-family="Times,serif" font-size="32.00">d</text>
<text text-anchor="middle" x="128" y="-426.4" font-family="Times,serif" font-size="32.00">=&gt;1 +k t</text>
</g>
<!-- 2 -->
<g id="node7" class="node">
<title>2</title>
<ellipse fill="none" stroke="black" cx="612" cy="-370" rx="27" ry="30.31"/>
<text text-anchor="middle" x="612" y="-361.9" font-family="Times,serif" font-size="32.00">2</text>
</g>
<!-- 2&#45;&gt;0 -->
<g id="edge6" class="edge">
<title>2&#45;&gt;0</title>
<path fill="none" stroke="#f7931d" stroke-width="2" d="M585.09,-372.54C555.34,-374.34 505.78,-373.85 468,-356 457.77,-351.17 460.27,-342.74 450,-338 378.75,-305.12 334.32,-374.19 274,-324 255.07,-308.25 242.1,-243.18 235.38,-199.89"/>
<polygon fill="#f7931d" stroke="#f7931d" stroke-width="2" points="238.83,-199.31 233.89,-189.94 231.91,-200.35 238.83,-199.31"/>
<text text-anchor="middle" x="412" y="-382.4" font-family="Times,serif" font-size="32.00">ε_0</text>
<text text-anchor="middle" x="412" y="-347.4" font-family="Times,serif" font-size="32.00">=&gt;2 0</text>
</g>
<!-- 2&#45;&gt;v -->
<g id="edge9" class="edge">
<title>2&#45;&gt;v</title>
<path fill="none" stroke="#f7931d" stroke-width="2" d="M596.93,-344.62C585.17,-325.72 566.69,-300.73 544,-286 535.95,-280.78 484.82,-268.37 448.88,-260.08"/>
<polygon fill="#f7931d" stroke="#f7931d" stroke-width="2" points="449.26,-256.58 438.73,-257.76 447.7,-263.4 449.26,-256.58"/>
<text text-anchor="middle" x="506" y="-330.4" font-family="Times,serif" font-size="32.00">ε_2</text>
<text text-anchor="middle" x="506" y="-295.4" font-family="Times,serif" font-size="32.00">=&gt;2 v</text>
</g>
<!-- 2&#45;&gt;1 -->
<g id="edge8" class="edge">
<title>2&#45;&gt;1</title>
<path fill="none" stroke="#f7931d" stroke-width="2" d="M585.83,-377.49C554.31,-386.66 498.56,-402.17 450,-412 385.7,-425.02 309.79,-434.86 266.04,-440"/>
<polygon fill="#f7931d" stroke="#f7931d" stroke-width="2" points="265.43,-436.55 255.9,-441.18 266.24,-443.5 265.43,-436.55"/>
<text text-anchor="middle" x="412" y="-470.4" font-family="Times,serif" font-size="32.00">ε_1</text>
<text text-anchor="middle" x="412" y="-435.4" font-family="Times,serif" font-size="32.00">=&gt;2 1</text>
</g>
<!-- perf -->
<g id="node8" class="node">
<title>perf</title>
<ellipse fill="none" stroke="black" cx="846.08" cy="-370" rx="48.17" ry="30.31"/>
<text text-anchor="middle" x="846.08" y="-361.9" font-family="Times,serif" font-size="32.00">perf</text>
</g>
<!-- perf&#45;&gt;2 -->
<g id="edge7" class="edge">
<title>perf&#45;&gt;2</title>
<path fill="none" stroke="#f7931d" stroke-width="2" d="M797.84,-370C753.92,-370 689.42,-370 649.38,-370"/>
<polygon fill="#f7931d" stroke="#f7931d" stroke-width="2" points="649.26,-366.5 639.26,-370 649.26,-373.5 649.26,-366.5"/>
<text text-anchor="middle" x="730" y="-414.4" font-family="Times,serif" font-size="32.00">have</text>
<text text-anchor="middle" x="730" y="-379.4" font-family="Times,serif" font-size="32.00">=perf 2</text>
</g>
<!-- prog -->
<g id="node9" class="node">
<title>prog</title>
<ellipse fill="none" stroke="black" cx="1122.17" cy="-298" rx="52.15" ry="30.31"/>
<text text-anchor="middle" x="1122.17" y="-289.9" font-family="Times,serif" font-size="32.00">prog</text>
</g>
<!-- prog&#45;&gt;0 -->
<g id="edge10" class="edge">
<title>prog&#45;&gt;0</title>
<path fill="none" stroke="#000000" d="M1075.15,-284.51C957.05,-250.83 633.04,-164.37 356,-145 319.64,-142.46 309.95,-139.04 274,-145 270.91,-145.51 267.76,-146.21 264.62,-147.03"/>
<polygon fill="#000000" stroke="#000000" points="263.34,-143.76 254.76,-149.98 265.35,-150.47 263.34,-143.76"/>
<text text-anchor="middle" x="612" y="-231.4" font-family="Times,serif" font-size="32.00">be</text>
<text text-anchor="middle" x="612" y="-196.4" font-family="Times,serif" font-size="32.00">=prog 0</text>
</g>
<!-- prog&#45;&gt;v -->
<g id="edge12" class="edge">
<title>prog&#45;&gt;v</title>
<path fill="none" stroke="#000000" d="M1069.95,-294.67C933.93,-285.84 566.03,-261.94 449.16,-254.35"/>
<polygon fill="#000000" stroke="#000000" points="449.16,-250.84 438.96,-253.69 448.71,-257.83 449.16,-250.84"/>
<text text-anchor="middle" x="730" y="-320.4" font-family="Times,serif" font-size="32.00">be_2</text>
<text text-anchor="middle" x="730" y="-285.4" font-family="Times,serif" font-size="32.00">=prog v</text>
</g>
<!-- prog&#45;&gt;1 -->
<g id="edge11" class="edge">
<title>prog&#45;&gt;1</title>
<path fill="none" stroke="#000000" d="M1112.89,-328.04C1102.86,-358.34 1082.84,-403.85 1048.17,-427 992.48,-464.18 516.83,-495.94 450,-500 416.28,-502.05 407.2,-506.23 374,-500 334.33,-492.56 291.53,-474.51 263,-460.9"/>
<polygon fill="#000000" stroke="#000000" points="264.42,-457.7 253.9,-456.48 261.36,-464 264.42,-457.7"/>
<text text-anchor="middle" x="612" y="-536.4" font-family="Times,serif" font-size="32.00">be_1</text>
<text text-anchor="middle" x="612" y="-501.4" font-family="Times,serif" font-size="32.00">=prog 1</text>
</g>
<!-- prog&#45;&gt;perf -->
<g id="edge13" class="edge">
<title>prog&#45;&gt;perf</title>
<path fill="none" stroke="#000000" d="M1074.05,-310.38C1025.84,-323.04 951.04,-342.69 900.62,-355.94"/>
<polygon fill="#000000" stroke="#000000" points="899.66,-352.57 890.87,-358.5 901.43,-359.34 899.66,-352.57"/>
<text text-anchor="middle" x="980.17" y="-397.4" font-family="Times,serif" font-size="32.00">ben</text>
<text text-anchor="middle" x="980.17" y="-362.4" font-family="Times,serif" font-size="32.00">=prog perf</text>
</g>
<!-- 3&#45;&gt;0 -->
<g id="edge14" class="edge">
<title>3&#45;&gt;0</title>
<path fill="none" stroke="#000000" d="M1345.29,-271.39C1315.19,-213.45 1234.23,-81 1123.17,-81 1123.17,-81 1123.17,-81 411,-81 353.95,-81 294.59,-114.38 260.03,-137.74"/>
<polygon fill="#000000" stroke="#000000" points="258.03,-134.87 251.79,-143.44 262.01,-140.63 258.03,-134.87"/>
<text text-anchor="middle" x="730" y="-125.4" font-family="Times,serif" font-size="32.00">ε_3</text>
<text text-anchor="middle" x="730" y="-90.4" font-family="Times,serif" font-size="32.00">=&gt;3 0</text>
</g>
<!-- 3&#45;&gt;v -->
<g id="edge17" class="edge">
<title>3&#45;&gt;v</title>
<path fill="none" stroke="#000000" d="M1333.29,-288.91C1281.22,-270.37 1156.61,-228.45 1048.17,-211 821.85,-174.59 545.25,-224.11 448.46,-244.2"/>
<polygon fill="#000000" stroke="#000000" points="447.67,-240.79 438.61,-246.28 449.11,-247.64 447.67,-240.79"/>
<text text-anchor="middle" x="846.08" y="-244.4" font-family="Times,serif" font-size="32.00">ε_5</text>
<text text-anchor="middle" x="846.08" y="-209.4" font-family="Times,serif" font-size="32.00">=&gt;3 v</text>
</g>
<!-- 3&#45;&gt;1 -->
<g id="edge16" class="edge">
<title>3&#45;&gt;1</title>
<path fill="none" stroke="#000000" d="M1349.63,-326.59C1326.27,-398.28 1254.13,-580 1123.17,-580 1123.17,-580 1123.17,-580 411,-580 342.2,-580 282.86,-516.41 252.21,-476.2"/>
<polygon fill="#000000" stroke="#000000" points="254.89,-473.93 246.11,-468 249.27,-478.11 254.89,-473.93"/>
<text text-anchor="middle" x="730" y="-624.4" font-family="Times,serif" font-size="32.00">ε_4</text>
<text text-anchor="middle" x="730" y="-589.4" font-family="Times,serif" font-size="32.00">=&gt;3 1</text>
</g>
<!-- 3&#45;&gt;perf -->
<g id="edge19" class="edge">
<title>3&#45;&gt;perf</title>
<path fill="none" stroke="#000000" d="M1348.18,-325.94C1341.09,-341.82 1329.99,-360.72 1314.17,-372 1215.85,-442.06 1168.26,-414.71 1048.17,-427 988.04,-433.15 968.74,-448.27 912.17,-427 899.06,-422.07 886.87,-413.17 876.66,-403.85"/>
<polygon fill="#000000" stroke="#000000" points="878.88,-401.13 869.26,-396.69 874.02,-406.16 878.88,-401.13"/>
<text text-anchor="middle" x="1122.17" y="-470.4" font-family="Times,serif" font-size="32.00">n</text>
<text text-anchor="middle" x="1122.17" y="-435.4" font-family="Times,serif" font-size="32.00">=&gt;3 perf</text>
</g>
<!-- 3&#45;&gt;prog -->
<g id="edge18" class="edge">
<title>3&#45;&gt;prog</title>
<path fill="none" stroke="#000000" d="M1332.12,-298C1296.83,-298 1232.73,-298 1184.79,-298"/>
<polygon fill="#000000" stroke="#000000" points="1184.52,-294.5 1174.52,-298 1184.52,-301.5 1184.52,-294.5"/>
<text text-anchor="middle" x="1255.17" y="-342.4" font-family="Times,serif" font-size="32.00">ing</text>
<text text-anchor="middle" x="1255.17" y="-307.4" font-family="Times,serif" font-size="32.00">=&gt;3 prog</text>
</g>
</g>
</svg>
