<?xml version="1.0" encoding="UTF-8" standalone="no"?>
<!DOCTYPE svg PUBLIC "-//W3C//DTD SVG 1.1//EN"
 "http://www.w3.org/Graphics/SVG/1.1/DTD/svg11.dtd">
<!-- Generated by graphviz version 2.47.1 (20210417.1919)
 -->
<!-- Title: G Pages: 1 -->
<svg width="1554pt" height="743pt"
 viewBox="0.00 0.00 1554.00 743.15" xmlns="http://www.w3.org/2000/svg" xmlns:xlink="http://www.w3.org/1999/xlink">
<g id="graph0" class="graph" transform="scale(1 1) rotate(0) translate(4 739.15)">
<title>G</title>
<polygon fill="white" stroke="transparent" points="-4,4 -4,-739.15 1550,-739.15 1550,4 -4,4"/>
<text text-anchor="middle" x="773" y="-13.4" font-family="Times,serif" font-size="32.00">replacement: =&gt;2 0 with =&gt;2 v, =&gt;v 0; =&gt;2 1 with =&gt;2 v, =&gt;v 1</text>
<!-- t -->
<g id="node1" class="node">
<title>t</title>
<ellipse fill="lightgray" stroke="black" cx="27" cy="-389.15" rx="27" ry="30.31"/>
<text text-anchor="middle" x="27" y="-381.05" font-family="Times,serif" font-size="32.00">t</text>
</g>
<!-- z0 -->
<g id="node2" class="node">
<title>z0</title>
<ellipse fill="none" stroke="black" stroke-dasharray="5,2" cx="1519" cy="-415.15" rx="27" ry="18"/>
</g>
<!-- d -->
<g id="node3" class="node">
<title>d</title>
<ellipse fill="none" stroke="black" cx="1359" cy="-415.15" rx="27" ry="30.31"/>
<text text-anchor="middle" x="1359" y="-407.05" font-family="Times,serif" font-size="32.00">d</text>
</g>
<!-- z0&#45;&gt;d -->
<g id="edge1" class="edge">
<title>z0&#45;&gt;d</title>
<path fill="none" stroke="#000000" d="M1491.91,-415.15C1465.84,-415.15 1425.53,-415.15 1396.34,-415.15"/>
<polygon fill="#000000" stroke="#000000" points="1396.13,-411.65 1386.13,-415.15 1396.13,-418.65 1396.13,-411.65"/>
<text text-anchor="middle" x="1439" y="-459.55" font-family="Times,serif" font-size="32.00">Mary</text>
<text text-anchor="middle" x="1439" y="-424.55" font-family="Times,serif" font-size="32.00">d &#45;k</text>
</g>
<!-- 2 -->
<g id="node9" class="node">
<title>2</title>
<ellipse fill="none" stroke="black" cx="1129" cy="-415.15" rx="27" ry="30.31"/>
<text text-anchor="middle" x="1129" y="-407.05" font-family="Times,serif" font-size="32.00">2</text>
</g>
<!-- d&#45;&gt;2 -->
<g id="edge13" class="edge">
<title>d&#45;&gt;2</title>
<path fill="none" stroke="#000000" d="M1340.67,-437.66C1333.37,-445.36 1324.19,-453.06 1314,-457.15 1256.24,-480.29 1231.76,-480.29 1174,-457.15 1166.99,-454.34 1160.46,-449.82 1154.7,-444.77"/>
<polygon fill="#000000" stroke="#000000" points="1156.96,-442.09 1147.33,-437.66 1152.1,-447.13 1156.96,-442.09"/>
<text text-anchor="middle" x="1244" y="-553.55" font-family="Times,serif" font-size="32.00">laugh |</text>
<text text-anchor="middle" x="1244" y="-518.55" font-family="Times,serif" font-size="32.00"> dance</text>
<text text-anchor="middle" x="1244" y="-483.55" font-family="Times,serif" font-size="32.00">=d 2</text>
</g>
<!-- d&#45;&gt;2 -->
<g id="edge17" class="edge">
<title>d&#45;&gt;2</title>
<path fill="none" stroke="#000000" d="M1347.42,-387.3C1340.33,-372.83 1329.43,-356.47 1314,-348.15 1259.24,-318.6 1228.76,-318.6 1174,-348.15 1161.7,-354.78 1152.28,-366.52 1145.38,-378.34"/>
<polygon fill="#000000" stroke="#000000" points="1142.21,-376.83 1140.58,-387.3 1148.38,-380.14 1142.21,-376.83"/>
<text text-anchor="middle" x="1244" y="-427.55" font-family="Times,serif" font-size="32.00">hug |</text>
<text text-anchor="middle" x="1244" y="-392.55" font-family="Times,serif" font-size="32.00"> praise</text>
<text text-anchor="middle" x="1244" y="-357.55" font-family="Times,serif" font-size="32.00">=d *k =d 2</text>
</g>
<!-- 0 -->
<g id="node4" class="node">
<title>0</title>
<ellipse fill="none" stroke="black" cx="229" cy="-470.15" rx="27" ry="30.31"/>
<text text-anchor="middle" x="229" y="-462.05" font-family="Times,serif" font-size="32.00">0</text>
</g>
<!-- 0&#45;&gt;t -->
<g id="edge2" class="edge">
<title>0&#45;&gt;t</title>
<path fill="none" stroke="#000000" d="M202.41,-463.49C170.89,-454.84 116.1,-438.29 72,-417.15 67.64,-415.05 63.18,-412.62 58.85,-410.07"/>
<polygon fill="#000000" stroke="#000000" points="60.59,-407.02 50.24,-404.75 56.91,-412.98 60.59,-407.02"/>
<text text-anchor="middle" x="128" y="-501.55" font-family="Times,serif" font-size="32.00">s</text>
<text text-anchor="middle" x="128" y="-466.55" font-family="Times,serif" font-size="32.00">=&gt;0 +k t</text>
</g>
<!-- v -->
<g id="node5" class="node">
<title>v</title>
<ellipse fill="none" stroke="black" cx="401" cy="-377.15" rx="27" ry="30.31"/>
<text text-anchor="middle" x="401" y="-369.05" font-family="Times,serif" font-size="32.00">v</text>
</g>
<!-- v&#45;&gt;0 -->
<g id="edge3" class="edge">
<title>v&#45;&gt;0</title>
<path fill="none" stroke="#000000" d="M376.79,-391.73C370.23,-395.46 362.97,-399.24 356,-402.15 321.06,-416.71 306.56,-405.85 274,-425.15 267.13,-429.22 260.59,-434.64 254.76,-440.3"/>
<polygon fill="#000000" stroke="#000000" points="252.21,-437.9 247.78,-447.52 257.24,-442.76 252.21,-437.9"/>
<text text-anchor="middle" x="315" y="-469.55" font-family="Times,serif" font-size="32.00">will</text>
<text text-anchor="middle" x="315" y="-434.55" font-family="Times,serif" font-size="32.00">=v 0</text>
</g>
<!-- v&#45;&gt;0 -->
<g id="edge6" class="edge">
<title>v&#45;&gt;0</title>
<path fill="none" stroke="#000000" d="M398.03,-407.39C394.42,-435.37 384.29,-475.51 356,-495.15 326.06,-515.93 309.23,-504.46 274,-495.15 269.8,-494.04 265.57,-492.42 261.49,-490.53"/>
<polygon fill="#000000" stroke="#000000" points="262.81,-487.27 252.32,-485.76 259.58,-493.48 262.81,-487.27"/>
<text text-anchor="middle" x="315" y="-550.55" font-family="Times,serif" font-size="32.00">ε_0</text>
<text text-anchor="middle" x="315" y="-515.55" font-family="Times,serif" font-size="32.00">=&gt;v 0</text>
</g>
<!-- 1 -->
<g id="node6" class="node">
<title>1</title>
<ellipse fill="none" stroke="black" cx="229" cy="-285.15" rx="27" ry="30.31"/>
<text text-anchor="middle" x="229" y="-277.05" font-family="Times,serif" font-size="32.00">1</text>
</g>
<!-- v&#45;&gt;1 -->
<g id="edge5" class="edge">
<title>v&#45;&gt;1</title>
<path fill="none" stroke="#000000" d="M399.97,-346.51C398.1,-313.88 389.5,-263.63 356,-239.15 326.57,-217.64 307.51,-224.83 274,-239.15 266.28,-242.44 259.27,-247.83 253.23,-253.78"/>
<polygon fill="#000000" stroke="#000000" points="250.32,-251.78 246.11,-261.5 255.46,-256.52 250.32,-251.78"/>
<text text-anchor="middle" x="315" y="-283.55" font-family="Times,serif" font-size="32.00">will_1</text>
<text text-anchor="middle" x="315" y="-248.55" font-family="Times,serif" font-size="32.00">=v 1</text>
</g>
<!-- v&#45;&gt;1 -->
<g id="edge8" class="edge">
<title>v&#45;&gt;1</title>
<path fill="none" stroke="#000000" d="M382.22,-354.52C374.87,-346.45 365.78,-337.94 356,-332.15 323.44,-312.85 309.06,-323.41 274,-309.15 270.1,-307.56 266.1,-305.72 262.19,-303.77"/>
<polygon fill="#000000" stroke="#000000" points="263.75,-300.64 253.27,-299.11 260.51,-306.84 263.75,-300.64"/>
<text text-anchor="middle" x="315" y="-376.55" font-family="Times,serif" font-size="32.00">ε_1</text>
<text text-anchor="middle" x="315" y="-341.55" font-family="Times,serif" font-size="32.00">=&gt;v 1</text>
</g>
<!-- 1&#45;&gt;t -->
<g id="edge4" class="edge">
<title>1&#45;&gt;t</title>
<path fill="none" stroke="#000000" d="M202.33,-290.89C170,-298.94 113.64,-315.76 72,-343.15 65.12,-347.67 58.51,-353.46 52.61,-359.4"/>
<polygon fill="#000000" stroke="#000000" points="49.84,-357.23 45.54,-366.91 54.94,-362.03 49.84,-357.23"/>
<text text-anchor="middle" x="128" y="-387.55" font-family="Times,serif" font-size="32.00">d</text>
<text text-anchor="middle" x="128" y="-352.55" font-family="Times,serif" font-size="32.00">=&gt;1 +k t</text>
</g>
<!-- perf -->
<g id="node7" class="node">
<title>perf</title>
<ellipse fill="none" stroke="black" cx="614" cy="-495.15" rx="48.17" ry="30.31"/>
<text text-anchor="middle" x="614" y="-487.05" font-family="Times,serif" font-size="32.00">perf</text>
</g>
<!-- perf&#45;&gt;v -->
<g id="edge7" class="edge">
<title>perf&#45;&gt;v</title>
<path fill="none" stroke="#000000" d="M577.21,-475.13C537.15,-452.73 472.83,-416.76 434.27,-395.19"/>
<polygon fill="#000000" stroke="#000000" points="435.95,-392.12 425.51,-390.3 432.53,-398.23 435.95,-392.12"/>
<text text-anchor="middle" x="496" y="-500.55" font-family="Times,serif" font-size="32.00">have</text>
<text text-anchor="middle" x="496" y="-465.55" font-family="Times,serif" font-size="32.00">=perf v</text>
</g>
<!-- prog -->
<g id="node8" class="node">
<title>prog</title>
<ellipse fill="none" stroke="black" cx="892" cy="-415.15" rx="52.15" ry="30.31"/>
<text text-anchor="middle" x="892" y="-407.05" font-family="Times,serif" font-size="32.00">prog</text>
</g>
<!-- prog&#45;&gt;0 -->
<g id="edge9" class="edge">
<title>prog&#45;&gt;0</title>
<path fill="none" stroke="#000000" d="M883.43,-445.37C873.85,-476.65 854.08,-524.1 818,-547.15 613.87,-677.54 474.58,-715.94 274,-580.15 251.02,-564.59 240.04,-534.88 234.8,-510.25"/>
<polygon fill="#000000" stroke="#000000" points="238.23,-509.59 232.94,-500.42 231.36,-510.89 238.23,-509.59"/>
<text text-anchor="middle" x="496" y="-709.55" font-family="Times,serif" font-size="32.00">be</text>
<text text-anchor="middle" x="496" y="-674.55" font-family="Times,serif" font-size="32.00">=prog 0</text>
</g>
<!-- prog&#45;&gt;v -->
<g id="edge11" class="edge">
<title>prog&#45;&gt;v</title>
<path fill="none" stroke="#000000" d="M841.1,-407.42C795.2,-400.63 725.18,-391.09 664,-386.15 583.53,-379.64 488.79,-377.83 438.18,-377.33"/>
<polygon fill="#000000" stroke="#000000" points="438.11,-373.83 428.08,-377.24 438.05,-380.83 438.11,-373.83"/>
<text text-anchor="middle" x="614" y="-430.55" font-family="Times,serif" font-size="32.00">be_2</text>
<text text-anchor="middle" x="614" y="-395.55" font-family="Times,serif" font-size="32.00">=prog v</text>
</g>
<!-- prog&#45;&gt;1 -->
<g id="edge10" class="edge">
<title>prog&#45;&gt;1</title>
<path fill="none" stroke="#000000" d="M851.72,-395.45C765,-353.21 549.46,-255.08 356,-222.15 320.07,-216.03 306.32,-205.3 274,-222.15 262.63,-228.07 253.6,-238.43 246.75,-249.05"/>
<polygon fill="#000000" stroke="#000000" points="243.57,-247.55 241.51,-257.94 249.6,-251.11 243.57,-247.55"/>
<text text-anchor="middle" x="496" y="-314.55" font-family="Times,serif" font-size="32.00">be_1</text>
<text text-anchor="middle" x="496" y="-279.55" font-family="Times,serif" font-size="32.00">=prog 1</text>
</g>
<!-- prog&#45;&gt;perf -->
<g id="edge12" class="edge">
<title>prog&#45;&gt;perf</title>
<path fill="none" stroke="#000000" d="M844.8,-428.54C796.03,-442.67 719.26,-464.92 668.05,-479.77"/>
<polygon fill="#000000" stroke="#000000" points="666.79,-476.49 658.16,-482.64 668.74,-483.21 666.79,-476.49"/>
<text text-anchor="middle" x="750" y="-517.55" font-family="Times,serif" font-size="32.00">ben</text>
<text text-anchor="middle" x="750" y="-482.55" font-family="Times,serif" font-size="32.00">=prog perf</text>
</g>
<!-- 2&#45;&gt;v -->
<g id="edge14" class="edge">
<title>2&#45;&gt;v</title>
<path fill="none" stroke="#000000" d="M1112.52,-391.06C1072.51,-331.36 958.9,-177.33 818,-121.15 662.31,-59.06 562.5,-62.63 446,-183.15 425.16,-204.71 412.35,-286.28 406.26,-336.53"/>
<polygon fill="#000000" stroke="#000000" points="402.75,-336.4 405.06,-346.74 409.7,-337.22 402.75,-336.4"/>
<text text-anchor="middle" x="750" y="-165.55" font-family="Times,serif" font-size="32.00">ε_2</text>
<text text-anchor="middle" x="750" y="-130.55" font-family="Times,serif" font-size="32.00">=&gt;2 v</text>
</g>
<!-- 2&#45;&gt;perf -->
<g id="edge16" class="edge">
<title>2&#45;&gt;perf</title>
<path fill="none" stroke="#000000" d="M1117.97,-443.02C1110.86,-458.88 1099.76,-477.78 1084,-489.15 985.84,-559.9 938.3,-534.18 818,-547.15 757.9,-553.62 739.18,-566.73 682,-547.15 669.69,-542.93 657.89,-535.43 647.72,-527.41"/>
<polygon fill="#000000" stroke="#000000" points="649.86,-524.64 639.94,-520.92 645.38,-530.01 649.86,-524.64"/>
<text text-anchor="middle" x="892" y="-589.55" font-family="Times,serif" font-size="32.00">n</text>
<text text-anchor="middle" x="892" y="-554.55" font-family="Times,serif" font-size="32.00">=&gt;2 perf</text>
</g>
<!-- 2&#45;&gt;prog -->
<g id="edge15" class="edge">
<title>2&#45;&gt;prog</title>
<path fill="none" stroke="#000000" d="M1101.95,-415.15C1066.66,-415.15 1002.56,-415.15 954.63,-415.15"/>
<polygon fill="#000000" stroke="#000000" points="954.36,-411.65 944.36,-415.15 954.36,-418.65 954.36,-411.65"/>
<text text-anchor="middle" x="1025" y="-459.55" font-family="Times,serif" font-size="32.00">ing</text>
<text text-anchor="middle" x="1025" y="-424.55" font-family="Times,serif" font-size="32.00">=&gt;2 prog</text>
</g>
</g>
</svg>
