<?xml version="1.0" encoding="UTF-8" standalone="no"?>
<!DOCTYPE svg PUBLIC "-//W3C//DTD SVG 1.1//EN"
 "http://www.w3.org/Graphics/SVG/1.1/DTD/svg11.dtd">
<!-- Generated by graphviz version 2.47.1 (20210417.1919)
 -->
<!-- Title: G Pages: 1 -->
<svg width="1673pt" height="1262pt"
 viewBox="0.00 0.00 1673.00 1262.00" xmlns="http://www.w3.org/2000/svg" xmlns:xlink="http://www.w3.org/1999/xlink">
<g id="graph0" class="graph" transform="scale(1 1) rotate(0) translate(4 1258)">
<title>G</title>
<polygon fill="white" stroke="transparent" points="-4,4 -4,-1258 1669,-1258 1669,4 -4,4"/>
<text text-anchor="middle" x="832.5" y="-48.4" font-family="Times,serif" font-size="32.00">decomposition: hug =d *k =d 0, hug =d *k =d 1, hug =d *k =d v, huging =d *k =d prog, hugn =d *k =d perf</text>
<text text-anchor="middle" x="832.5" y="-13.4" font-family="Times,serif" font-size="32.00">decomposition: praise =d *k =d 0, praise =d *k =d 1, praise =d *k =d v, praiseing =d *k =d prog, praisen =d *k =d perf</text>
<!-- t -->
<g id="node1" class="node">
<title>t</title>
<ellipse fill="lightgray" stroke="black" cx="27" cy="-608" rx="27" ry="30.31"/>
<text text-anchor="middle" x="27" y="-599.9" font-family="Times,serif" font-size="32.00">t</text>
</g>
<!-- z0 -->
<g id="node2" class="node">
<title>z0</title>
<ellipse fill="none" stroke="black" stroke-dasharray="5,2" cx="1638" cy="-585" rx="27" ry="18"/>
</g>
<!-- d -->
<g id="node3" class="node">
<title>d</title>
<ellipse fill="none" stroke="black" cx="1478" cy="-585" rx="27" ry="30.31"/>
<text text-anchor="middle" x="1478" y="-576.9" font-family="Times,serif" font-size="32.00">d</text>
</g>
<!-- z0&#45;&gt;d -->
<g id="edge1" class="edge">
<title>z0&#45;&gt;d</title>
<path fill="none" stroke="#000000" d="M1610.91,-585C1584.84,-585 1544.53,-585 1515.34,-585"/>
<polygon fill="#000000" stroke="#000000" points="1515.13,-581.5 1505.13,-585 1515.13,-588.5 1515.13,-581.5"/>
<text text-anchor="middle" x="1558" y="-629.4" font-family="Times,serif" font-size="32.00">Mary</text>
<text text-anchor="middle" x="1558" y="-594.4" font-family="Times,serif" font-size="32.00">d &#45;k</text>
</g>
<!-- 0 -->
<g id="node4" class="node">
<title>0</title>
<ellipse fill="none" stroke="black" cx="229" cy="-802" rx="27" ry="30.31"/>
<text text-anchor="middle" x="229" y="-793.9" font-family="Times,serif" font-size="32.00">0</text>
</g>
<!-- d&#45;&gt;0 -->
<g id="edge13" class="edge">
<title>d&#45;&gt;0</title>
<path fill="none" stroke="#000000" d="M1476.89,-615.72C1474.7,-733.42 1450.16,-1149 1212.5,-1149 1212.5,-1149 1212.5,-1149 420,-1149 281.45,-1149 243.28,-933.54 233.32,-842.18"/>
<polygon fill="#000000" stroke="#000000" points="236.79,-841.78 232.29,-832.19 229.83,-842.49 236.79,-841.78"/>
<text text-anchor="middle" x="790" y="-1228.4" font-family="Times,serif" font-size="32.00">laugh |</text>
<text text-anchor="middle" x="790" y="-1193.4" font-family="Times,serif" font-size="32.00"> dance</text>
<text text-anchor="middle" x="790" y="-1158.4" font-family="Times,serif" font-size="32.00">=d 0</text>
</g>
<!-- v -->
<g id="node5" class="node">
<title>v</title>
<ellipse fill="none" stroke="black" cx="421" cy="-517" rx="27" ry="30.31"/>
<text text-anchor="middle" x="421" y="-508.9" font-family="Times,serif" font-size="32.00">v</text>
</g>
<!-- d&#45;&gt;v -->
<g id="edge15" class="edge">
<title>d&#45;&gt;v</title>
<path fill="none" stroke="#000000" d="M1470.07,-555.84C1448.22,-471.97 1372.53,-236 1212.5,-236 1212.5,-236 1212.5,-236 653,-236 528.95,-236 459.26,-401.44 433.55,-478.44"/>
<polygon fill="#000000" stroke="#000000" points="430.12,-477.66 430.35,-488.25 436.78,-479.83 430.12,-477.66"/>
<text text-anchor="middle" x="935" y="-315.4" font-family="Times,serif" font-size="32.00">laugh_2 |</text>
<text text-anchor="middle" x="935" y="-280.4" font-family="Times,serif" font-size="32.00"> dance_2</text>
<text text-anchor="middle" x="935" y="-245.4" font-family="Times,serif" font-size="32.00">=d v</text>
</g>
<!-- 1 -->
<g id="node6" class="node">
<title>1</title>
<ellipse fill="none" stroke="black" cx="229" cy="-513" rx="27" ry="30.31"/>
<text text-anchor="middle" x="229" y="-504.9" font-family="Times,serif" font-size="32.00">1</text>
</g>
<!-- d&#45;&gt;1 -->
<g id="edge14" class="edge">
<title>d&#45;&gt;1</title>
<path fill="none" stroke="#000000" d="M1476.17,-554.61C1473.69,-482.84 1464.48,-305.21 1433,-256 1370.45,-158.21 1328.58,-116 1212.5,-116 1212.5,-116 1212.5,-116 420,-116 263.18,-116 235.69,-371.17 230.95,-472.36"/>
<polygon fill="#000000" stroke="#000000" points="227.45,-472.37 230.53,-482.51 234.44,-472.66 227.45,-472.37"/>
<text text-anchor="middle" x="790" y="-195.4" font-family="Times,serif" font-size="32.00">laugh_1 |</text>
<text text-anchor="middle" x="790" y="-160.4" font-family="Times,serif" font-size="32.00"> dance_1</text>
<text text-anchor="middle" x="790" y="-125.4" font-family="Times,serif" font-size="32.00">=d 1</text>
</g>
<!-- perf -->
<g id="node7" class="node">
<title>perf</title>
<ellipse fill="none" stroke="black" cx="654" cy="-635" rx="48.17" ry="30.31"/>
<text text-anchor="middle" x="654" y="-626.9" font-family="Times,serif" font-size="32.00">perf</text>
</g>
<!-- d&#45;&gt;perf -->
<g id="edge17" class="edge">
<title>d&#45;&gt;perf</title>
<path fill="none" stroke="#000000" d="M1468.08,-613.36C1461.28,-629.82 1450.12,-649.19 1433,-659 1325.62,-720.57 999.65,-667.61 876,-662 807.34,-658.89 790.04,-657.67 722,-648 718.09,-647.44 714.06,-646.81 710,-646.13"/>
<polygon fill="#000000" stroke="#000000" points="710.4,-642.65 699.94,-644.37 709.19,-649.54 710.4,-642.65"/>
<text text-anchor="middle" x="1071" y="-762.4" font-family="Times,serif" font-size="32.00">laughn |</text>
<text text-anchor="middle" x="1071" y="-727.4" font-family="Times,serif" font-size="32.00"> dancen</text>
<text text-anchor="middle" x="1071" y="-692.4" font-family="Times,serif" font-size="32.00">=d perf</text>
</g>
<!-- prog -->
<g id="node8" class="node">
<title>prog</title>
<ellipse fill="none" stroke="black" cx="935" cy="-512" rx="52.15" ry="30.31"/>
<text text-anchor="middle" x="935" y="-503.9" font-family="Times,serif" font-size="32.00">prog</text>
</g>
<!-- d&#45;&gt;prog -->
<g id="edge16" class="edge">
<title>d&#45;&gt;prog</title>
<path fill="none" stroke="#000000" d="M1457.6,-564.6C1424.13,-531.07 1351.71,-465.54 1275,-441 1163.65,-405.37 1120.75,-403.08 1012,-446 994.74,-452.81 978.73,-465.32 965.89,-477.64"/>
<polygon fill="#000000" stroke="#000000" points="963.31,-475.27 958.72,-484.82 968.26,-480.22 963.31,-475.27"/>
<text text-anchor="middle" x="1211.5" y="-520.4" font-family="Times,serif" font-size="32.00">laughing |</text>
<text text-anchor="middle" x="1211.5" y="-485.4" font-family="Times,serif" font-size="32.00"> danceing</text>
<text text-anchor="middle" x="1211.5" y="-450.4" font-family="Times,serif" font-size="32.00">=d prog</text>
</g>
<!-- 2 -->
<g id="node9" class="node">
<title>2</title>
<ellipse fill="none" stroke="black" cx="1211.5" cy="-870" rx="27" ry="30.31"/>
<text text-anchor="middle" x="1211.5" y="-861.9" font-family="Times,serif" font-size="32.00">2</text>
</g>
<!-- d&#45;&gt;2 -->
<g id="edge19" class="edge">
<title>d&#45;&gt;2</title>
<path fill="none" stroke="#00b9f1" stroke-width="2" d="M1469.03,-614.15C1461.99,-636.4 1450.15,-667.04 1433,-690 1379.52,-761.6 1291.56,-821.87 1244.53,-851.08"/>
<polygon fill="#00b9f1" stroke="#00b9f1" stroke-width="2" points="1242.65,-848.12 1235.96,-856.34 1246.32,-854.09 1242.65,-848.12"/>
<text text-anchor="middle" x="1363" y="-862.4" font-family="Times,serif" font-size="32.00">hug</text>
<text text-anchor="middle" x="1363" y="-827.4" font-family="Times,serif" font-size="32.00">=d *k =d 2</text>
</g>
<!-- 3 -->
<g id="node10" class="node">
<title>3</title>
<ellipse fill="none" stroke="black" cx="1211.5" cy="-585" rx="27" ry="30.31"/>
<text text-anchor="middle" x="1211.5" y="-576.9" font-family="Times,serif" font-size="32.00">3</text>
</g>
<!-- d&#45;&gt;3 -->
<g id="edge25" class="edge">
<title>d&#45;&gt;3</title>
<path fill="none" stroke="#f7931d" stroke-width="2" d="M1450.67,-585C1403.14,-585 1302.93,-585 1248.89,-585"/>
<polygon fill="#f7931d" stroke="#f7931d" stroke-width="2" points="1248.72,-581.5 1238.72,-585 1248.72,-588.5 1248.72,-581.5"/>
<text text-anchor="middle" x="1363" y="-629.4" font-family="Times,serif" font-size="32.00">praise</text>
<text text-anchor="middle" x="1363" y="-594.4" font-family="Times,serif" font-size="32.00">=d *k =d 3</text>
</g>
<!-- 0&#45;&gt;t -->
<g id="edge2" class="edge">
<title>0&#45;&gt;t</title>
<path fill="none" stroke="#000000" d="M206.76,-784.21C175.97,-758.09 117.64,-707.32 72,-660 65.31,-653.06 58.42,-645.27 52.13,-637.87"/>
<polygon fill="#000000" stroke="#000000" points="54.69,-635.48 45.59,-630.06 49.32,-639.97 54.69,-635.48"/>
<text text-anchor="middle" x="128" y="-806.4" font-family="Times,serif" font-size="32.00">s</text>
<text text-anchor="middle" x="128" y="-771.4" font-family="Times,serif" font-size="32.00">=&gt;0 +k t</text>
</g>
<!-- v&#45;&gt;0 -->
<g id="edge3" class="edge">
<title>v&#45;&gt;0</title>
<path fill="none" stroke="#000000" d="M402.97,-539.67C390.96,-554.63 373.89,-573.97 356,-588 323.45,-613.52 299.55,-599.47 274,-632 244.65,-669.37 234.73,-724.24 231.46,-761.46"/>
<polygon fill="#000000" stroke="#000000" points="227.97,-761.22 230.7,-771.46 234.95,-761.75 227.97,-761.22"/>
<text text-anchor="middle" x="315" y="-676.4" font-family="Times,serif" font-size="32.00">will</text>
<text text-anchor="middle" x="315" y="-641.4" font-family="Times,serif" font-size="32.00">=v 0</text>
</g>
<!-- v&#45;&gt;1 -->
<g id="edge5" class="edge">
<title>v&#45;&gt;1</title>
<path fill="none" stroke="#000000" d="M393.85,-515.54C382.26,-514.96 368.45,-514.34 356,-514 325.77,-513.17 291.44,-512.95 266.26,-512.91"/>
<polygon fill="#000000" stroke="#000000" points="266.07,-509.41 256.07,-512.91 266.07,-516.41 266.07,-509.41"/>
<text text-anchor="middle" x="315" y="-558.4" font-family="Times,serif" font-size="32.00">will_1</text>
<text text-anchor="middle" x="315" y="-523.4" font-family="Times,serif" font-size="32.00">=v 1</text>
</g>
<!-- 1&#45;&gt;t -->
<g id="edge4" class="edge">
<title>1&#45;&gt;t</title>
<path fill="none" stroke="#000000" d="M203.88,-524.46C168.29,-541.36 101.6,-573.04 61.35,-592.16"/>
<polygon fill="#000000" stroke="#000000" points="59.74,-589.05 52.21,-596.5 62.74,-595.37 59.74,-589.05"/>
<text text-anchor="middle" x="128" y="-630.4" font-family="Times,serif" font-size="32.00">d</text>
<text text-anchor="middle" x="128" y="-595.4" font-family="Times,serif" font-size="32.00">=&gt;1 +k t</text>
</g>
<!-- perf&#45;&gt;0 -->
<g id="edge6" class="edge">
<title>perf&#45;&gt;0</title>
<path fill="none" stroke="#000000" d="M608.36,-644.79C552.29,-657.87 453.76,-683.46 374,-718 333.26,-735.64 289.64,-762.3 261.22,-780.84"/>
<polygon fill="#000000" stroke="#000000" points="258.97,-778.13 252.55,-786.55 262.82,-783.97 258.97,-778.13"/>
<text text-anchor="middle" x="421" y="-762.4" font-family="Times,serif" font-size="32.00">have</text>
<text text-anchor="middle" x="421" y="-727.4" font-family="Times,serif" font-size="32.00">=perf 0</text>
</g>
<!-- perf&#45;&gt;v -->
<g id="edge8" class="edge">
<title>perf&#45;&gt;v</title>
<path fill="none" stroke="#000000" d="M623.02,-611.68C616.2,-605.45 609.4,-598.39 604,-591 592.5,-575.26 601.21,-563.2 586,-551 580.99,-546.98 504.81,-532.32 458.07,-523.62"/>
<polygon fill="#000000" stroke="#000000" points="458.48,-520.13 448.01,-521.75 457.2,-527.02 458.48,-520.13"/>
<text text-anchor="middle" x="536" y="-595.4" font-family="Times,serif" font-size="32.00">have_2</text>
<text text-anchor="middle" x="536" y="-560.4" font-family="Times,serif" font-size="32.00">=perf v</text>
</g>
<!-- perf&#45;&gt;1 -->
<g id="edge7" class="edge">
<title>perf&#45;&gt;1</title>
<path fill="none" stroke="#000000" d="M605.73,-635.77C571.82,-635.19 525.36,-632.05 486,-621 477.39,-618.58 476.54,-614.67 468,-612 384.87,-585.96 346.88,-631.72 274,-584 261.5,-575.82 251.94,-562.73 244.97,-550"/>
<polygon fill="#000000" stroke="#000000" points="247.99,-548.22 240.35,-540.87 241.75,-551.38 247.99,-548.22"/>
<text text-anchor="middle" x="421" y="-656.4" font-family="Times,serif" font-size="32.00">have_1</text>
<text text-anchor="middle" x="421" y="-621.4" font-family="Times,serif" font-size="32.00">=perf 1</text>
</g>
<!-- prog&#45;&gt;0 -->
<g id="edge9" class="edge">
<title>prog&#45;&gt;0</title>
<path fill="none" stroke="#000000" d="M900.59,-535.09C891.53,-542.75 882.44,-551.92 876,-562 860.31,-586.54 877.35,-603.23 858,-625 733.2,-765.42 651.03,-745.66 468,-788 397.89,-804.22 313.24,-804.86 266.14,-803.61"/>
<polygon fill="#000000" stroke="#000000" points="266.22,-800.11 256.11,-803.3 266,-807.11 266.22,-800.11"/>
<text text-anchor="middle" x="536" y="-827.4" font-family="Times,serif" font-size="32.00">be</text>
<text text-anchor="middle" x="536" y="-792.4" font-family="Times,serif" font-size="32.00">=prog 0</text>
</g>
<!-- prog&#45;&gt;v -->
<g id="edge11" class="edge">
<title>prog&#45;&gt;v</title>
<path fill="none" stroke="#000000" d="M882.56,-512.5C779,-513.51 547.62,-515.77 458.22,-516.65"/>
<polygon fill="#000000" stroke="#000000" points="458,-513.15 448.04,-516.75 458.07,-520.15 458,-513.15"/>
<text text-anchor="middle" x="654" y="-560.4" font-family="Times,serif" font-size="32.00">be_2</text>
<text text-anchor="middle" x="654" y="-525.4" font-family="Times,serif" font-size="32.00">=prog v</text>
</g>
<!-- prog&#45;&gt;1 -->
<g id="edge10" class="edge">
<title>prog&#45;&gt;1</title>
<path fill="none" stroke="#000000" d="M883.62,-505.36C840.5,-499.34 776.88,-489.63 722,-478 660.83,-465.03 647.81,-451.41 586,-442 484.85,-426.6 458.29,-434.22 356,-432 319.56,-431.21 305.32,-413.37 274,-432 258.4,-441.28 247.98,-458.25 241.22,-474.26"/>
<polygon fill="#000000" stroke="#000000" points="237.79,-473.44 237.47,-484.03 244.32,-475.95 237.79,-473.44"/>
<text text-anchor="middle" x="536" y="-486.4" font-family="Times,serif" font-size="32.00">be_1</text>
<text text-anchor="middle" x="536" y="-451.4" font-family="Times,serif" font-size="32.00">=prog 1</text>
</g>
<!-- prog&#45;&gt;perf -->
<g id="edge12" class="edge">
<title>prog&#45;&gt;perf</title>
<path fill="none" stroke="#000000" d="M885.81,-522.45C876.59,-524.36 867.01,-526.29 858,-528 797.77,-539.43 770.51,-513.52 722,-551 706.57,-562.92 715.5,-575.26 704,-591 700.54,-595.73 696.51,-600.33 692.26,-604.66"/>
<polygon fill="#000000" stroke="#000000" points="689.76,-602.22 684.98,-611.68 694.61,-607.26 689.76,-602.22"/>
<text text-anchor="middle" x="790" y="-595.4" font-family="Times,serif" font-size="32.00">ben</text>
<text text-anchor="middle" x="790" y="-560.4" font-family="Times,serif" font-size="32.00">=prog perf</text>
</g>
<!-- 2&#45;&gt;0 -->
<g id="edge18" class="edge">
<title>2&#45;&gt;0</title>
<path fill="none" stroke="#00b9f1" stroke-width="2" d="M1195.77,-895.01C1181.43,-917.5 1157.78,-950.12 1130,-971 1055.44,-1027.03 1029.27,-1051 936,-1051 936,-1051 936,-1051 420,-1051 315.57,-1051 260.89,-910.86 240.09,-840.85"/>
<polygon fill="#00b9f1" stroke="#00b9f1" stroke-width="2" points="243.4,-839.69 237.27,-831.05 236.68,-841.63 243.4,-839.69"/>
<text text-anchor="middle" x="654" y="-1095.4" font-family="Times,serif" font-size="32.00">ε_0</text>
<text text-anchor="middle" x="654" y="-1060.4" font-family="Times,serif" font-size="32.00">=&gt;2 0</text>
</g>
<!-- 2&#45;&gt;v -->
<g id="edge21" class="edge">
<title>2&#45;&gt;v</title>
<path fill="none" stroke="#00b9f1" stroke-width="2" d="M1184.62,-876.03C1127.48,-888.22 986.82,-911.91 876,-879 776.85,-849.56 557.57,-699.66 486,-625 474.8,-613.32 455.06,-578.85 440.46,-551.96"/>
<polygon fill="#00b9f1" stroke="#00b9f1" stroke-width="2" points="443.35,-549.96 435.53,-542.82 437.19,-553.28 443.35,-549.96"/>
<text text-anchor="middle" x="790" y="-916.4" font-family="Times,serif" font-size="32.00">ε_2</text>
<text text-anchor="middle" x="790" y="-881.4" font-family="Times,serif" font-size="32.00">=&gt;2 v</text>
</g>
<!-- 2&#45;&gt;1 -->
<g id="edge20" class="edge">
<title>2&#45;&gt;1</title>
<path fill="none" stroke="#00b9f1" stroke-width="2" d="M1186.42,-882.1C1170.73,-889.5 1149.59,-898.56 1130,-904 904.61,-966.63 824.62,-1000.78 604,-923 438.45,-864.64 364.6,-856.35 274,-706 245.53,-658.75 235.46,-594.87 231.91,-553.79"/>
<polygon fill="#00b9f1" stroke="#00b9f1" stroke-width="2" points="235.39,-553.31 231.13,-543.61 228.41,-553.85 235.39,-553.31"/>
<text text-anchor="middle" x="654" y="-996.4" font-family="Times,serif" font-size="32.00">ε_1</text>
<text text-anchor="middle" x="654" y="-961.4" font-family="Times,serif" font-size="32.00">=&gt;2 1</text>
</g>
<!-- 2&#45;&gt;perf -->
<g id="edge23" class="edge">
<title>2&#45;&gt;perf</title>
<path fill="none" stroke="#00b9f1" stroke-width="2" d="M1184.8,-863.79C1109.91,-845.03 886.7,-784.34 722,-690 710.67,-683.51 699.32,-675.09 689.26,-666.81"/>
<polygon fill="#00b9f1" stroke="#00b9f1" stroke-width="2" points="691.39,-664.03 681.5,-660.23 686.87,-669.37 691.39,-664.03"/>
<text text-anchor="middle" x="935" y="-849.4" font-family="Times,serif" font-size="32.00">n</text>
<text text-anchor="middle" x="935" y="-814.4" font-family="Times,serif" font-size="32.00">=&gt;2 perf</text>
</g>
<!-- 2&#45;&gt;prog -->
<g id="edge22" class="edge">
<title>2&#45;&gt;prog</title>
<path fill="none" stroke="#00b9f1" stroke-width="2" d="M1203.86,-840.77C1187.97,-771.81 1147.75,-603.24 1130,-584 1129.68,-583.65 1046.44,-552.83 989.11,-531.63"/>
<polygon fill="#00b9f1" stroke="#00b9f1" stroke-width="2" points="990.04,-528.24 979.44,-528.05 987.61,-534.81 990.04,-528.24"/>
<text text-anchor="middle" x="1071" y="-628.4" font-family="Times,serif" font-size="32.00">ing</text>
<text text-anchor="middle" x="1071" y="-593.4" font-family="Times,serif" font-size="32.00">=&gt;2 prog</text>
</g>
<!-- 3&#45;&gt;0 -->
<g id="edge24" class="edge">
<title>3&#45;&gt;0</title>
<path fill="none" stroke="#f7931d" stroke-width="2" d="M1208.07,-615.28C1202.66,-660.31 1185.3,-743.74 1130,-782 1118.39,-790.03 890,-787.18 876,-789 871.9,-789.53 590.11,-856.52 586,-857 541.85,-862.11 530.25,-861.14 486,-857 390.53,-848.07 366.72,-841.42 274,-817 270.98,-816.2 267.86,-815.3 264.75,-814.35"/>
<polygon fill="#f7931d" stroke="#f7931d" stroke-width="2" points="265.53,-810.93 254.94,-811.19 263.38,-817.59 265.53,-810.93"/>
<text text-anchor="middle" x="654" y="-896.4" font-family="Times,serif" font-size="32.00">ε_3</text>
<text text-anchor="middle" x="654" y="-861.4" font-family="Times,serif" font-size="32.00">=&gt;3 0</text>
</g>
<!-- 3&#45;&gt;v -->
<g id="edge27" class="edge">
<title>3&#45;&gt;v</title>
<path fill="none" stroke="#f7931d" stroke-width="2" d="M1185.19,-576.86C1172.07,-571.35 1156.96,-562.7 1148,-550 1120.46,-510.95 1166.22,-475.17 1130,-444 992.53,-325.73 901.88,-416 722,-439 623.76,-451.56 511.72,-486.38 456.49,-504.95"/>
<polygon fill="#f7931d" stroke="#f7931d" stroke-width="2" points="455.2,-501.7 446.86,-508.23 457.46,-508.32 455.2,-501.7"/>
<text text-anchor="middle" x="790" y="-483.4" font-family="Times,serif" font-size="32.00">ε_5</text>
<text text-anchor="middle" x="790" y="-448.4" font-family="Times,serif" font-size="32.00">=&gt;3 v</text>
</g>
<!-- 3&#45;&gt;1 -->
<g id="edge26" class="edge">
<title>3&#45;&gt;1</title>
<path fill="none" stroke="#f7931d" stroke-width="2" d="M1185.2,-577.2C1171.91,-571.76 1156.64,-563.07 1148,-550 1127.42,-518.86 1157.33,-408.42 1130,-383 1087.19,-343.18 650.61,-332.69 604,-368 580.45,-385.84 607.52,-411.75 586,-432 568.45,-448.52 397.49,-472.6 374,-478 336.77,-486.56 294.28,-496.97 265.16,-504.2"/>
<polygon fill="#f7931d" stroke="#f7931d" stroke-width="2" points="264.31,-500.8 255.45,-506.61 266,-507.6 264.31,-500.8"/>
<text text-anchor="middle" x="654" y="-412.4" font-family="Times,serif" font-size="32.00">ε_4</text>
<text text-anchor="middle" x="654" y="-377.4" font-family="Times,serif" font-size="32.00">=&gt;3 1</text>
</g>
<!-- 3&#45;&gt;perf -->
<g id="edge29" class="edge">
<title>3&#45;&gt;perf</title>
<path fill="none" stroke="#f7931d" stroke-width="2" d="M1185.45,-576.7C1169.72,-571.93 1148.91,-566.43 1130,-564 1077.98,-557.33 1064.17,-558.68 1012,-564 950.61,-570.25 926.61,-556.69 876,-592 863.56,-600.68 871,-613.17 858,-621 813.73,-647.66 753.78,-648.42 710.52,-644.18"/>
<polygon fill="#f7931d" stroke="#f7931d" stroke-width="2" points="710.77,-640.69 700.45,-643.08 710.01,-647.65 710.77,-640.69"/>
<text text-anchor="middle" x="935" y="-636.4" font-family="Times,serif" font-size="32.00">n_1</text>
<text text-anchor="middle" x="935" y="-601.4" font-family="Times,serif" font-size="32.00">=&gt;3 perf</text>
</g>
<!-- 3&#45;&gt;prog -->
<g id="edge28" class="edge">
<title>3&#45;&gt;prog</title>
<path fill="none" stroke="#f7931d" stroke-width="2" d="M1186.41,-573.54C1173.17,-566.05 1157.54,-555.05 1148,-541 1128.74,-512.64 1156.92,-487.22 1130,-466 1088.82,-433.53 1062.51,-451.9 1012,-466 999.46,-469.5 986.92,-475.69 975.75,-482.43"/>
<polygon fill="#f7931d" stroke="#f7931d" stroke-width="2" points="973.69,-479.59 967.11,-487.9 977.43,-485.5 973.69,-479.59"/>
<text text-anchor="middle" x="1071" y="-510.4" font-family="Times,serif" font-size="32.00">ing_1</text>
<text text-anchor="middle" x="1071" y="-475.4" font-family="Times,serif" font-size="32.00">=&gt;3 prog</text>
</g>
</g>
</svg>
