<?xml version="1.0" encoding="UTF-8" standalone="no"?>
<!DOCTYPE svg PUBLIC "-//W3C//DTD SVG 1.1//EN"
 "http://www.w3.org/Graphics/SVG/1.1/DTD/svg11.dtd">
<!-- Generated by graphviz version 2.47.1 (20210417.1919)
 -->
<!-- Title: G Pages: 1 -->
<svg width="1594pt" height="1382pt"
 viewBox="0.00 0.00 1594.00 1382.00" xmlns="http://www.w3.org/2000/svg" xmlns:xlink="http://www.w3.org/1999/xlink">
<g id="graph0" class="graph" transform="scale(1 1) rotate(0) translate(4 1378)">
<title>G</title>
<polygon fill="white" stroke="transparent" points="-4,4 -4,-1378 1590,-1378 1590,4 -4,4"/>
<text text-anchor="middle" x="793" y="-48.4" font-family="Times,serif" font-size="32.00">decomposition: laugh =d 0, laugh =d 1, laugh =d v, laughing =d prog, laughn =d perf</text>
<text text-anchor="middle" x="793" y="-13.4" font-family="Times,serif" font-size="32.00">decomposition: dance =d 0, dance =d 1, dance =d v, danceing =d prog, dancen =d perf</text>
<!-- t -->
<g id="node1" class="node">
<title>t</title>
<ellipse fill="lightgray" stroke="black" cx="27" cy="-806" rx="27" ry="30.31"/>
<text text-anchor="middle" x="27" y="-797.9" font-family="Times,serif" font-size="32.00">t</text>
</g>
<!-- z0 -->
<g id="node2" class="node">
<title>z0</title>
<ellipse fill="none" stroke="black" stroke-dasharray="5,2" cx="1559" cy="-727" rx="27" ry="18"/>
</g>
<!-- d -->
<g id="node3" class="node">
<title>d</title>
<ellipse fill="none" stroke="black" cx="1399" cy="-727" rx="27" ry="30.31"/>
<text text-anchor="middle" x="1399" y="-718.9" font-family="Times,serif" font-size="32.00">d</text>
</g>
<!-- z0&#45;&gt;d -->
<g id="edge1" class="edge">
<title>z0&#45;&gt;d</title>
<path fill="none" stroke="#000000" d="M1531.91,-727C1505.84,-727 1465.53,-727 1436.34,-727"/>
<polygon fill="#000000" stroke="#000000" points="1436.13,-723.5 1426.13,-727 1436.13,-730.5 1436.13,-723.5"/>
<text text-anchor="middle" x="1479" y="-771.4" font-family="Times,serif" font-size="32.00">Mary</text>
<text text-anchor="middle" x="1479" y="-736.4" font-family="Times,serif" font-size="32.00">d &#45;k</text>
</g>
<!-- 2 -->
<g id="node9" class="node">
<title>2</title>
<ellipse fill="none" stroke="black" cx="1169" cy="-1129" rx="27" ry="30.31"/>
<text text-anchor="middle" x="1169" y="-1120.9" font-family="Times,serif" font-size="32.00">2</text>
</g>
<!-- d&#45;&gt;2 -->
<g id="edge14" class="edge">
<title>d&#45;&gt;2</title>
<path fill="none" stroke="#00b9f1" stroke-width="2" d="M1395.6,-757.34C1391.5,-796.37 1380.83,-865.41 1354,-918 1314.34,-995.73 1239.81,-1068.21 1198.83,-1104.57"/>
<polygon fill="#00b9f1" stroke="#00b9f1" stroke-width="2" points="1196.31,-1102.13 1191.1,-1111.36 1200.92,-1107.39 1196.31,-1102.13"/>
<text text-anchor="middle" x="1284" y="-1135.4" font-family="Times,serif" font-size="32.00">laugh</text>
<text text-anchor="middle" x="1284" y="-1100.4" font-family="Times,serif" font-size="32.00">=d 2</text>
</g>
<!-- 3 -->
<g id="node10" class="node">
<title>3</title>
<ellipse fill="none" stroke="black" cx="1169" cy="-385" rx="27" ry="30.31"/>
<text text-anchor="middle" x="1169" y="-376.9" font-family="Times,serif" font-size="32.00">3</text>
</g>
<!-- d&#45;&gt;3 -->
<g id="edge20" class="edge">
<title>d&#45;&gt;3</title>
<path fill="none" stroke="#f7931d" stroke-width="2" d="M1397.77,-696.47C1396.11,-654.63 1388.14,-578.57 1354,-525 1316.49,-466.15 1245.07,-422.67 1203.09,-400.82"/>
<polygon fill="#f7931d" stroke="#f7931d" stroke-width="2" points="1204.6,-397.66 1194.1,-396.23 1201.42,-403.89 1204.6,-397.66"/>
<text text-anchor="middle" x="1284" y="-569.4" font-family="Times,serif" font-size="32.00">dance</text>
<text text-anchor="middle" x="1284" y="-534.4" font-family="Times,serif" font-size="32.00">=d 3</text>
</g>
<!-- 4 -->
<g id="node11" class="node">
<title>4</title>
<ellipse fill="none" stroke="black" cx="1169" cy="-574" rx="27" ry="30.31"/>
<text text-anchor="middle" x="1169" y="-565.9" font-family="Times,serif" font-size="32.00">4</text>
</g>
<!-- d&#45;&gt;4 -->
<g id="edge26" class="edge">
<title>d&#45;&gt;4</title>
<path fill="none" stroke="#000000" d="M1378.68,-706.79C1371.28,-699.54 1362.56,-691.54 1354,-685 1304.4,-647.1 1241.03,-611.32 1203.09,-591.09"/>
<polygon fill="#000000" stroke="#000000" points="1204.49,-587.87 1194.01,-586.29 1201.21,-594.06 1204.49,-587.87"/>
<text text-anchor="middle" x="1284" y="-729.4" font-family="Times,serif" font-size="32.00">hug</text>
<text text-anchor="middle" x="1284" y="-694.4" font-family="Times,serif" font-size="32.00">=d *k =d 4</text>
</g>
<!-- 5 -->
<g id="node12" class="node">
<title>5</title>
<ellipse fill="none" stroke="black" cx="1169" cy="-875" rx="27" ry="30.31"/>
<text text-anchor="middle" x="1169" y="-866.9" font-family="Times,serif" font-size="32.00">5</text>
</g>
<!-- d&#45;&gt;5 -->
<g id="edge32" class="edge">
<title>d&#45;&gt;5</title>
<path fill="none" stroke="#000000" d="M1375.3,-741.73C1334.35,-768.31 1248.04,-824.34 1201.43,-854.59"/>
<polygon fill="#000000" stroke="#000000" points="1199.42,-851.73 1192.94,-860.11 1203.24,-857.6 1199.42,-851.73"/>
<text text-anchor="middle" x="1284" y="-888.4" font-family="Times,serif" font-size="32.00">praise</text>
<text text-anchor="middle" x="1284" y="-853.4" font-family="Times,serif" font-size="32.00">=d *k =d 5</text>
</g>
<!-- 0 -->
<g id="node4" class="node">
<title>0</title>
<ellipse fill="none" stroke="black" cx="229" cy="-748" rx="27" ry="30.31"/>
<text text-anchor="middle" x="229" y="-739.9" font-family="Times,serif" font-size="32.00">0</text>
</g>
<!-- 0&#45;&gt;t -->
<g id="edge2" class="edge">
<title>0&#45;&gt;t</title>
<path fill="none" stroke="#000000" d="M201.9,-746.56C169.85,-745.8 114.54,-747.84 72,-767 65.75,-769.82 59.75,-773.84 54.29,-778.25"/>
<polygon fill="#000000" stroke="#000000" points="51.95,-775.65 46.74,-784.87 56.56,-780.91 51.95,-775.65"/>
<text text-anchor="middle" x="128" y="-811.4" font-family="Times,serif" font-size="32.00">s</text>
<text text-anchor="middle" x="128" y="-776.4" font-family="Times,serif" font-size="32.00">=&gt;0 +k t</text>
</g>
<!-- v -->
<g id="node5" class="node">
<title>v</title>
<ellipse fill="none" stroke="black" cx="421" cy="-753" rx="27" ry="30.31"/>
<text text-anchor="middle" x="421" y="-744.9" font-family="Times,serif" font-size="32.00">v</text>
</g>
<!-- v&#45;&gt;0 -->
<g id="edge3" class="edge">
<title>v&#45;&gt;0</title>
<path fill="none" stroke="#000000" d="M393.9,-749.49C382.31,-748.11 368.5,-746.68 356,-746 319.61,-744.02 310.44,-745.17 274,-746 271.46,-746.06 268.83,-746.13 266.19,-746.22"/>
<polygon fill="#000000" stroke="#000000" points="265.91,-742.73 256.05,-746.62 266.18,-749.73 265.91,-742.73"/>
<text text-anchor="middle" x="315" y="-790.4" font-family="Times,serif" font-size="32.00">will</text>
<text text-anchor="middle" x="315" y="-755.4" font-family="Times,serif" font-size="32.00">=v 0</text>
</g>
<!-- 1 -->
<g id="node6" class="node">
<title>1</title>
<ellipse fill="none" stroke="black" cx="229" cy="-930" rx="27" ry="30.31"/>
<text text-anchor="middle" x="229" y="-921.9" font-family="Times,serif" font-size="32.00">1</text>
</g>
<!-- v&#45;&gt;1 -->
<g id="edge5" class="edge">
<title>v&#45;&gt;1</title>
<path fill="none" stroke="#000000" d="M401.14,-773.7C388.64,-787.18 371.7,-804.99 356,-820 323.99,-850.6 285.41,-883.78 259.44,-905.6"/>
<polygon fill="#000000" stroke="#000000" points="256.9,-903.17 251.48,-912.27 261.39,-908.54 256.9,-903.17"/>
<text text-anchor="middle" x="315" y="-936.4" font-family="Times,serif" font-size="32.00">will_1</text>
<text text-anchor="middle" x="315" y="-901.4" font-family="Times,serif" font-size="32.00">=v 1</text>
</g>
<!-- 1&#45;&gt;t -->
<g id="edge4" class="edge">
<title>1&#45;&gt;t</title>
<path fill="none" stroke="#000000" d="M204.4,-916.68C173.55,-899.1 118.02,-866.87 72,-837 67.61,-834.15 63.03,-831.06 58.55,-827.97"/>
<polygon fill="#000000" stroke="#000000" points="60.36,-824.96 50.16,-822.1 56.35,-830.7 60.36,-824.96"/>
<text text-anchor="middle" x="128" y="-949.4" font-family="Times,serif" font-size="32.00">d</text>
<text text-anchor="middle" x="128" y="-914.4" font-family="Times,serif" font-size="32.00">=&gt;1 +k t</text>
</g>
<!-- perf -->
<g id="node7" class="node">
<title>perf</title>
<ellipse fill="none" stroke="black" cx="654" cy="-806" rx="48.17" ry="30.31"/>
<text text-anchor="middle" x="654" y="-797.9" font-family="Times,serif" font-size="32.00">perf</text>
</g>
<!-- perf&#45;&gt;0 -->
<g id="edge6" class="edge">
<title>perf&#45;&gt;0</title>
<path fill="none" stroke="#000000" d="M626.14,-831.09C614.67,-840.16 600.58,-849.32 586,-854 543.69,-867.59 530.27,-857.94 486,-854 438.33,-849.76 313.85,-842.51 274,-816 262.24,-808.18 252.94,-796.04 245.98,-784.16"/>
<polygon fill="#000000" stroke="#000000" points="248.96,-782.32 241.1,-775.21 242.81,-785.66 248.96,-782.32"/>
<text text-anchor="middle" x="421" y="-897.4" font-family="Times,serif" font-size="32.00">have</text>
<text text-anchor="middle" x="421" y="-862.4" font-family="Times,serif" font-size="32.00">=perf 0</text>
</g>
<!-- perf&#45;&gt;v -->
<g id="edge8" class="edge">
<title>perf&#45;&gt;v</title>
<path fill="none" stroke="#000000" d="M613.78,-789.22C604.77,-785.81 595.15,-782.5 586,-780 542.8,-768.2 491.7,-760.78 458.16,-756.77"/>
<polygon fill="#000000" stroke="#000000" points="458.26,-753.26 447.92,-755.59 457.45,-760.21 458.26,-753.26"/>
<text text-anchor="middle" x="536" y="-824.4" font-family="Times,serif" font-size="32.00">have_2</text>
<text text-anchor="middle" x="536" y="-789.4" font-family="Times,serif" font-size="32.00">=perf v</text>
</g>
<!-- perf&#45;&gt;1 -->
<g id="edge7" class="edge">
<title>perf&#45;&gt;1</title>
<path fill="none" stroke="#000000" d="M629.99,-832.63C617.82,-845.62 602.09,-860.82 586,-872 495.84,-934.62 464.51,-945.44 356,-962 319.97,-967.5 308.66,-973.27 274,-962 268.72,-960.28 263.55,-957.67 258.71,-954.66"/>
<polygon fill="#000000" stroke="#000000" points="260.63,-951.73 250.42,-948.93 256.65,-957.49 260.63,-951.73"/>
<text text-anchor="middle" x="421" y="-1003.4" font-family="Times,serif" font-size="32.00">have_1</text>
<text text-anchor="middle" x="421" y="-968.4" font-family="Times,serif" font-size="32.00">=perf 1</text>
</g>
<!-- prog -->
<g id="node8" class="node">
<title>prog</title>
<ellipse fill="none" stroke="black" cx="932" cy="-717" rx="52.15" ry="30.31"/>
<text text-anchor="middle" x="932" y="-708.9" font-family="Times,serif" font-size="32.00">prog</text>
</g>
<!-- prog&#45;&gt;0 -->
<g id="edge9" class="edge">
<title>prog&#45;&gt;0</title>
<path fill="none" stroke="#000000" d="M891.29,-697.69C813.36,-662.29 635.01,-593.56 486,-627 399.66,-646.38 308.17,-698.33 261.46,-727.46"/>
<polygon fill="#000000" stroke="#000000" points="259.32,-724.67 252.73,-732.97 263.06,-730.59 259.32,-724.67"/>
<text text-anchor="middle" x="536" y="-671.4" font-family="Times,serif" font-size="32.00">be</text>
<text text-anchor="middle" x="536" y="-636.4" font-family="Times,serif" font-size="32.00">=prog 0</text>
</g>
<!-- prog&#45;&gt;v -->
<g id="edge11" class="edge">
<title>prog&#45;&gt;v</title>
<path fill="none" stroke="#000000" d="M881.97,-707.63C817.76,-696.81 701.87,-682.28 604,-697 550.96,-704.98 492.05,-725.34 456.01,-739.18"/>
<polygon fill="#000000" stroke="#000000" points="454.52,-736 446.48,-742.89 457.06,-742.52 454.52,-736"/>
<text text-anchor="middle" x="654" y="-741.4" font-family="Times,serif" font-size="32.00">be_2</text>
<text text-anchor="middle" x="654" y="-706.4" font-family="Times,serif" font-size="32.00">=prog v</text>
</g>
<!-- prog&#45;&gt;1 -->
<g id="edge10" class="edge">
<title>prog&#45;&gt;1</title>
<path fill="none" stroke="#000000" d="M909.35,-744.5C895.92,-760.11 877.54,-779.05 858,-792 803.92,-827.84 761.27,-793.37 722,-845 698.06,-876.47 732.71,-994.82 704,-1022 677.36,-1047.22 409.6,-1041.85 374,-1033 325.19,-1020.86 313.48,-1011.17 274,-980 266.89,-974.39 260.01,-967.53 253.89,-960.71"/>
<polygon fill="#000000" stroke="#000000" points="256.25,-958.09 247.08,-952.8 250.95,-962.66 256.25,-958.09"/>
<text text-anchor="middle" x="536" y="-1085.4" font-family="Times,serif" font-size="32.00">be_1</text>
<text text-anchor="middle" x="536" y="-1050.4" font-family="Times,serif" font-size="32.00">=prog 1</text>
</g>
<!-- prog&#45;&gt;perf -->
<g id="edge12" class="edge">
<title>prog&#45;&gt;perf</title>
<path fill="none" stroke="#000000" d="M880.01,-712.17C826.56,-708.15 746.95,-705.44 722,-722 705.76,-732.78 715.5,-746.26 704,-762 700.54,-766.73 696.51,-771.33 692.26,-775.66"/>
<polygon fill="#000000" stroke="#000000" points="689.76,-773.22 684.98,-782.68 694.61,-778.26 689.76,-773.22"/>
<text text-anchor="middle" x="790" y="-766.4" font-family="Times,serif" font-size="32.00">ben</text>
<text text-anchor="middle" x="790" y="-731.4" font-family="Times,serif" font-size="32.00">=prog perf</text>
</g>
<!-- 2&#45;&gt;0 -->
<g id="edge13" class="edge">
<title>2&#45;&gt;0</title>
<path fill="none" stroke="#00b9f1" stroke-width="2" d="M1143.73,-1139.85C1137.42,-1142.26 1130.55,-1144.53 1124,-1146 898.08,-1196.52 828.94,-1230.7 604,-1176 432.72,-1134.35 367.86,-1105.2 274,-956 265.12,-941.88 246.84,-844.01 236.87,-787.69"/>
<polygon fill="#00b9f1" stroke="#00b9f1" stroke-width="2" points="240.29,-786.93 235.11,-777.69 233.39,-788.14 240.29,-786.93"/>
<text text-anchor="middle" x="654" y="-1240.4" font-family="Times,serif" font-size="32.00">ε_0</text>
<text text-anchor="middle" x="654" y="-1205.4" font-family="Times,serif" font-size="32.00">=&gt;2 0</text>
</g>
<!-- 2&#45;&gt;v -->
<g id="edge16" class="edge">
<title>2&#45;&gt;v</title>
<path fill="none" stroke="#00b9f1" stroke-width="2" d="M1142.2,-1132.84C1109.77,-1136.76 1052.69,-1140.67 1006,-1128 865.33,-1089.84 820.79,-1071.17 722,-964 709.33,-950.26 718.54,-937.74 704,-926 626.57,-863.5 564.09,-936.67 486,-875 471.96,-863.91 476.22,-854.89 468,-839 459.16,-821.9 449.09,-803.03 440.64,-787.33"/>
<polygon fill="#00b9f1" stroke="#00b9f1" stroke-width="2" points="443.7,-785.63 435.87,-778.49 437.54,-788.95 443.7,-785.63"/>
<text text-anchor="middle" x="790" y="-1121.4" font-family="Times,serif" font-size="32.00">ε_2</text>
<text text-anchor="middle" x="790" y="-1086.4" font-family="Times,serif" font-size="32.00">=&gt;2 v</text>
</g>
<!-- 2&#45;&gt;1 -->
<g id="edge15" class="edge">
<title>2&#45;&gt;1</title>
<path fill="none" stroke="#00b9f1" stroke-width="2" d="M1158.28,-1157.26C1151.07,-1174.82 1139.75,-1196.85 1124,-1212 1056.1,-1277.33 1027.22,-1304 933,-1304 933,-1304 933,-1304 420,-1304 271.73,-1304 239.12,-1067.48 231.99,-970.62"/>
<polygon fill="#00b9f1" stroke="#00b9f1" stroke-width="2" points="235.48,-970.34 231.3,-960.61 228.49,-970.82 235.48,-970.34"/>
<text text-anchor="middle" x="654" y="-1348.4" font-family="Times,serif" font-size="32.00">ε_1</text>
<text text-anchor="middle" x="654" y="-1313.4" font-family="Times,serif" font-size="32.00">=&gt;2 1</text>
</g>
<!-- 2&#45;&gt;perf -->
<g id="edge18" class="edge">
<title>2&#45;&gt;perf</title>
<path fill="none" stroke="#00b9f1" stroke-width="2" d="M1141.87,-1127.99C1101.42,-1125.91 1026.18,-1119.83 1006,-1103 987.54,-1087.6 999.09,-1073.32 988,-1052 942.12,-963.82 938.44,-928.4 858,-870 814.54,-838.44 754.99,-822.09 711.63,-813.85"/>
<polygon fill="#00b9f1" stroke="#00b9f1" stroke-width="2" points="712,-810.36 701.53,-812.02 710.75,-817.25 712,-810.36"/>
<text text-anchor="middle" x="932" y="-1096.4" font-family="Times,serif" font-size="32.00">n</text>
<text text-anchor="middle" x="932" y="-1061.4" font-family="Times,serif" font-size="32.00">=&gt;2 perf</text>
</g>
<!-- 2&#45;&gt;prog -->
<g id="edge17" class="edge">
<title>2&#45;&gt;prog</title>
<path fill="none" stroke="#00b9f1" stroke-width="2" d="M1155.91,-1101.99C1147.21,-1082.69 1135.09,-1056.15 1124,-1033 1122.18,-1029.19 990.66,-764.28 988,-761 983.96,-756.01 979.27,-751.21 974.36,-746.74"/>
<polygon fill="#00b9f1" stroke="#00b9f1" stroke-width="2" points="976.39,-743.87 966.52,-740.01 971.82,-749.18 976.39,-743.87"/>
<text text-anchor="middle" x="1065" y="-1077.4" font-family="Times,serif" font-size="32.00">ing</text>
<text text-anchor="middle" x="1065" y="-1042.4" font-family="Times,serif" font-size="32.00">=&gt;2 prog</text>
</g>
<!-- 3&#45;&gt;0 -->
<g id="edge19" class="edge">
<title>3&#45;&gt;0</title>
<path fill="none" stroke="#f7931d" stroke-width="2" d="M1158.69,-356.72C1133.98,-287.66 1059.82,-116 933,-116 933,-116 933,-116 420,-116 332.22,-116 312.96,-170.35 274,-249 234.25,-329.24 229.98,-603.28 229.83,-707.41"/>
<polygon fill="#f7931d" stroke="#f7931d" stroke-width="2" points="226.33,-707.52 229.83,-717.52 233.33,-707.52 226.33,-707.52"/>
<text text-anchor="middle" x="654" y="-160.4" font-family="Times,serif" font-size="32.00">ε_3</text>
<text text-anchor="middle" x="654" y="-125.4" font-family="Times,serif" font-size="32.00">=&gt;3 0</text>
</g>
<!-- 3&#45;&gt;v -->
<g id="edge22" class="edge">
<title>3&#45;&gt;v</title>
<path fill="none" stroke="#f7931d" stroke-width="2" d="M1143.22,-375.33C1071.72,-349.12 861.24,-284.17 722,-368 707.35,-376.82 716.54,-390.38 704,-402 626.48,-473.84 554.28,-416.33 486,-497 433.73,-558.76 423.12,-657.15 421.57,-712.23"/>
<polygon fill="#f7931d" stroke="#f7931d" stroke-width="2" points="418.07,-712.26 421.37,-722.32 425.06,-712.39 418.07,-712.26"/>
<text text-anchor="middle" x="790" y="-412.4" font-family="Times,serif" font-size="32.00">ε_5</text>
<text text-anchor="middle" x="790" y="-377.4" font-family="Times,serif" font-size="32.00">=&gt;3 v</text>
</g>
<!-- 3&#45;&gt;1 -->
<g id="edge21" class="edge">
<title>3&#45;&gt;1</title>
<path fill="none" stroke="#f7931d" stroke-width="2" d="M1152.66,-360.63C1145.24,-350.97 1135.45,-340.8 1124,-335 1069.86,-307.6 1048.62,-325.67 988,-323 902.74,-319.25 682.42,-294.35 604,-328 537.85,-356.39 304.09,-613.81 274,-676 252.24,-720.99 264.47,-737.75 256,-787 249.98,-821.99 242.72,-861.72 237.41,-890.41"/>
<polygon fill="#f7931d" stroke="#f7931d" stroke-width="2" points="233.93,-889.98 235.54,-900.45 240.81,-891.26 233.93,-889.98"/>
<text text-anchor="middle" x="654" y="-372.4" font-family="Times,serif" font-size="32.00">ε_4</text>
<text text-anchor="middle" x="654" y="-337.4" font-family="Times,serif" font-size="32.00">=&gt;3 1</text>
</g>
<!-- 3&#45;&gt;perf -->
<g id="edge24" class="edge">
<title>3&#45;&gt;perf</title>
<path fill="none" stroke="#f7931d" stroke-width="2" d="M1142.16,-388.43C1109.44,-393.39 1051.81,-404.22 1006,-424 942.62,-451.37 924.23,-459.61 876,-509 865.4,-519.85 869,-527.55 858,-538 807.95,-585.54 760.41,-555.65 722,-613 682.67,-671.72 739.85,-710.09 704,-771 702.3,-773.88 700.26,-776.59 698,-779.13"/>
<polygon fill="#f7931d" stroke="#f7931d" stroke-width="2" points="695.41,-776.75 690.62,-786.2 700.26,-781.81 695.41,-776.75"/>
<text text-anchor="middle" x="932" y="-553.4" font-family="Times,serif" font-size="32.00">n_1</text>
<text text-anchor="middle" x="932" y="-518.4" font-family="Times,serif" font-size="32.00">=&gt;3 perf</text>
</g>
<!-- 3&#45;&gt;prog -->
<g id="edge23" class="edge">
<title>3&#45;&gt;prog</title>
<path fill="none" stroke="#f7931d" stroke-width="2" d="M1146.89,-402.72C1104.99,-438.1 1014.6,-515.5 1006,-532 976.8,-588.02 1018.92,-617.91 988,-673 984.9,-678.53 980.79,-683.62 976.23,-688.23"/>
<polygon fill="#f7931d" stroke="#f7931d" stroke-width="2" points="973.76,-685.74 968.74,-695.07 978.48,-690.91 973.76,-685.74"/>
<text text-anchor="middle" x="1065" y="-576.4" font-family="Times,serif" font-size="32.00">ing_1</text>
<text text-anchor="middle" x="1065" y="-541.4" font-family="Times,serif" font-size="32.00">=&gt;3 prog</text>
</g>
<!-- 4&#45;&gt;0 -->
<g id="edge25" class="edge">
<title>4&#45;&gt;0</title>
<path fill="none" stroke="#000000" d="M1166.8,-543.48C1163.91,-509.52 1154.46,-454.86 1124,-420 989.91,-266.53 903.47,-277.78 704,-236 660.5,-226.89 648.15,-230.85 604,-236 454.31,-253.45 373.36,-200.68 274,-314 248.35,-343.25 235.53,-605.15 231.47,-707.38"/>
<polygon fill="#000000" stroke="#000000" points="227.96,-707.49 231.07,-717.62 234.96,-707.76 227.96,-707.49"/>
<text text-anchor="middle" x="654" y="-280.4" font-family="Times,serif" font-size="32.00">ε_6</text>
<text text-anchor="middle" x="654" y="-245.4" font-family="Times,serif" font-size="32.00">=&gt;4 0</text>
</g>
<!-- 4&#45;&gt;v -->
<g id="edge28" class="edge">
<title>4&#45;&gt;v</title>
<path fill="none" stroke="#000000" d="M1146.68,-555.9C1139.8,-550.78 1131.9,-545.63 1124,-542 1075.03,-519.49 1043.65,-552.57 1006,-514 979.03,-486.36 1018,-453.31 988,-429 949.33,-397.66 923.36,-413.68 876,-429 866.61,-432.04 867.1,-438.19 858,-442 752.18,-486.31 704.28,-432.26 604,-488 513.43,-538.34 458.5,-655.05 435.16,-715.38"/>
<polygon fill="#000000" stroke="#000000" points="431.81,-714.32 431.55,-724.91 438.36,-716.8 431.81,-714.32"/>
<text text-anchor="middle" x="790" y="-506.4" font-family="Times,serif" font-size="32.00">ε_8</text>
<text text-anchor="middle" x="790" y="-471.4" font-family="Times,serif" font-size="32.00">=&gt;4 v</text>
</g>
<!-- 4&#45;&gt;1 -->
<g id="edge27" class="edge">
<title>4&#45;&gt;1</title>
<path fill="none" stroke="#000000" d="M1141.89,-570.57C1045.15,-558.19 707.38,-517.99 604,-546 555.04,-559.26 305.34,-698.17 274,-741 265.21,-753.01 247.59,-838.5 237.52,-890.3"/>
<polygon fill="#000000" stroke="#000000" points="234.07,-889.7 235.61,-900.18 240.94,-891.03 234.07,-889.7"/>
<text text-anchor="middle" x="654" y="-590.4" font-family="Times,serif" font-size="32.00">ε_7</text>
<text text-anchor="middle" x="654" y="-555.4" font-family="Times,serif" font-size="32.00">=&gt;4 1</text>
</g>
<!-- 4&#45;&gt;perf -->
<g id="edge30" class="edge">
<title>4&#45;&gt;perf</title>
<path fill="none" stroke="#000000" d="M1141.74,-573.19C1089.5,-572.41 969.54,-574.77 876,-608 799.55,-635.16 770.26,-640.79 722,-706 704.17,-730.1 721.18,-746.44 704,-771 702.08,-773.74 699.88,-776.34 697.49,-778.8"/>
<polygon fill="#000000" stroke="#000000" points="694.92,-776.41 689.87,-785.72 699.63,-781.59 694.92,-776.41"/>
<text text-anchor="middle" x="932" y="-652.4" font-family="Times,serif" font-size="32.00">n_2</text>
<text text-anchor="middle" x="932" y="-617.4" font-family="Times,serif" font-size="32.00">=&gt;4 perf</text>
</g>
<!-- 4&#45;&gt;prog -->
<g id="edge29" class="edge">
<title>4&#45;&gt;prog</title>
<path fill="none" stroke="#000000" d="M1146.77,-592.3C1139.89,-597.42 1131.97,-602.53 1124,-606 1075.01,-627.33 1047.29,-595.09 1006,-629 989.67,-642.41 1000.65,-656.08 988,-673 984.15,-678.14 979.57,-683.02 974.72,-687.54"/>
<polygon fill="#000000" stroke="#000000" points="972.18,-685.11 966.94,-694.31 976.78,-690.39 972.18,-685.11"/>
<text text-anchor="middle" x="1065" y="-673.4" font-family="Times,serif" font-size="32.00">ing_2</text>
<text text-anchor="middle" x="1065" y="-638.4" font-family="Times,serif" font-size="32.00">=&gt;4 prog</text>
</g>
<!-- 5&#45;&gt;0 -->
<g id="edge31" class="edge">
<title>5&#45;&gt;0</title>
<path fill="none" stroke="#000000" d="M1156.37,-902.03C1148.95,-916.5 1138.07,-933.63 1124,-945 1080.58,-980.08 1057.76,-967.1 1006,-988 997.88,-991.28 996.56,-994.18 988,-996 939.31,-1006.33 924.69,-1006.33 876,-996 867.44,-994.18 866.47,-990.21 858,-988 826.47,-979.77 298.6,-955.37 274,-934 262.93,-924.38 246.18,-839.41 236.86,-787.7"/>
<polygon fill="#000000" stroke="#000000" points="240.3,-787.07 235.1,-777.84 233.41,-788.29 240.3,-787.07"/>
<text text-anchor="middle" x="654" y="-1020.4" font-family="Times,serif" font-size="32.00">ε_9</text>
<text text-anchor="middle" x="654" y="-985.4" font-family="Times,serif" font-size="32.00">=&gt;5 0</text>
</g>
<!-- 5&#45;&gt;v -->
<g id="edge34" class="edge">
<title>5&#45;&gt;v</title>
<path fill="none" stroke="#000000" d="M1144.35,-887.75C1112.77,-904.81 1055.09,-936.03 1006,-963 997.98,-967.41 996.86,-970.7 988,-973 939.81,-985.49 914.75,-1004.25 876,-973 846.62,-949.31 886.07,-915.23 858,-890 734.33,-778.84 627.99,-936.54 486,-850 463.49,-836.28 447.28,-811.3 436.81,-790.12"/>
<polygon fill="#000000" stroke="#000000" points="439.96,-788.58 432.54,-781.02 433.62,-791.56 439.96,-788.58"/>
<text text-anchor="middle" x="790" y="-934.4" font-family="Times,serif" font-size="32.00">ε_11</text>
<text text-anchor="middle" x="790" y="-899.4" font-family="Times,serif" font-size="32.00">=&gt;5 v</text>
</g>
<!-- 5&#45;&gt;1 -->
<g id="edge33" class="edge">
<title>5&#45;&gt;1</title>
<path fill="none" stroke="#000000" d="M1165.83,-905.3C1161.5,-956.31 1149.87,-1055.96 1124,-1078 947.81,-1228.09 827.74,-1046.79 604,-1106 595.35,-1108.29 594.71,-1112.95 586,-1115 444.8,-1148.33 378.31,-1119.83 274,-1019 259.7,-1005.18 249.36,-985.74 242.3,-968.56"/>
<polygon fill="#000000" stroke="#000000" points="245.39,-966.83 238.53,-958.76 238.86,-969.35 245.39,-966.83"/>
<text text-anchor="middle" x="654" y="-1150.4" font-family="Times,serif" font-size="32.00">ε_10</text>
<text text-anchor="middle" x="654" y="-1115.4" font-family="Times,serif" font-size="32.00">=&gt;5 1</text>
</g>
<!-- 5&#45;&gt;perf -->
<g id="edge36" class="edge">
<title>5&#45;&gt;perf</title>
<path fill="none" stroke="#000000" d="M1144.86,-861.28C1111.55,-842.4 1047.53,-809.34 988,-797 961.85,-791.58 800.12,-798.66 712.04,-803.03"/>
<polygon fill="#000000" stroke="#000000" points="711.75,-799.54 701.93,-803.54 712.1,-806.53 711.75,-799.54"/>
<text text-anchor="middle" x="932" y="-841.4" font-family="Times,serif" font-size="32.00">n_3</text>
<text text-anchor="middle" x="932" y="-806.4" font-family="Times,serif" font-size="32.00">=&gt;5 perf</text>
</g>
<!-- 5&#45;&gt;prog -->
<g id="edge35" class="edge">
<title>5&#45;&gt;prog</title>
<path fill="none" stroke="#000000" d="M1163.6,-844.9C1157.05,-804.76 1143.4,-737.01 1124,-722 1104.28,-706.75 1041.87,-707.68 993.7,-711.05"/>
<polygon fill="#000000" stroke="#000000" points="993.37,-707.57 983.66,-711.8 993.89,-714.55 993.37,-707.57"/>
<text text-anchor="middle" x="1065" y="-766.4" font-family="Times,serif" font-size="32.00">ing_3</text>
<text text-anchor="middle" x="1065" y="-731.4" font-family="Times,serif" font-size="32.00">=&gt;5 prog</text>
</g>
</g>
</svg>
