<?xml version="1.0" encoding="UTF-8" standalone="no"?>
<!DOCTYPE svg PUBLIC "-//W3C//DTD SVG 1.1//EN"
 "http://www.w3.org/Graphics/SVG/1.1/DTD/svg11.dtd">
<!-- Generated by graphviz version 2.47.1 (20210417.1919)
 -->
<!-- Title: G Pages: 1 -->
<svg width="1455pt" height="1810pt"
 viewBox="0.00 0.00 1455.00 1810.42" xmlns="http://www.w3.org/2000/svg" xmlns:xlink="http://www.w3.org/1999/xlink">
<g id="graph0" class="graph" transform="scale(1 1) rotate(0) translate(4 1806.42)">
<title>G</title>
<polygon fill="white" stroke="transparent" points="-4,4 -4,-1806.42 1451,-1806.42 1451,4 -4,4"/>
<text text-anchor="middle" x="723.5" y="-13.4" font-family="Times,serif" font-size="32.00">original</text>
<!-- t -->
<g id="node1" class="node">
<title>t</title>
<ellipse fill="lightgray" stroke="black" cx="27" cy="-618.42" rx="27" ry="30.31"/>
<text text-anchor="middle" x="27" y="-610.32" font-family="Times,serif" font-size="32.00">t</text>
</g>
<!-- z0 -->
<g id="node2" class="node">
<title>z0</title>
<ellipse fill="none" stroke="black" stroke-dasharray="5,2" cx="1420" cy="-546.42" rx="27" ry="18"/>
</g>
<!-- d -->
<g id="node3" class="node">
<title>d</title>
<ellipse fill="none" stroke="black" cx="1260" cy="-546.42" rx="27" ry="30.31"/>
<text text-anchor="middle" x="1260" y="-538.32" font-family="Times,serif" font-size="32.00">d</text>
</g>
<!-- z0&#45;&gt;d -->
<g id="edge1" class="edge">
<title>z0&#45;&gt;d</title>
<path fill="none" stroke="#000000" d="M1392.91,-546.42C1366.84,-546.42 1326.53,-546.42 1297.34,-546.42"/>
<polygon fill="#000000" stroke="#000000" points="1297.13,-542.92 1287.13,-546.42 1297.13,-549.92 1297.13,-542.92"/>
<text text-anchor="middle" x="1340" y="-590.82" font-family="Times,serif" font-size="32.00">Mary</text>
<text text-anchor="middle" x="1340" y="-555.82" font-family="Times,serif" font-size="32.00">d &#45;k</text>
</g>
<!-- d&#45;&gt;t -->
<g id="edge2" class="edge">
<title>d&#45;&gt;t</title>
<path fill="none" stroke="#000000" d="M1259.35,-576.9C1260.05,-676.43 1258.68,-990.72 1215,-1080.42 1138.51,-1237.49 1101.21,-1347.42 926.5,-1347.42 926.5,-1347.42 926.5,-1347.42 247.5,-1347.42 105.49,-1347.42 119.12,-1214.38 72,-1080.42 44.79,-1003.05 33.03,-756.56 29.36,-658.86"/>
<polygon fill="#000000" stroke="#000000" points="32.85,-658.66 28.99,-648.79 25.86,-658.91 32.85,-658.66"/>
<text text-anchor="middle" x="572.5" y="-1776.82" font-family="Times,serif" font-size="32.00">dances |</text>
<text text-anchor="middle" x="572.5" y="-1741.82" font-family="Times,serif" font-size="32.00"> danced |</text>
<text text-anchor="middle" x="572.5" y="-1706.82" font-family="Times,serif" font-size="32.00"> smiles |</text>
<text text-anchor="middle" x="572.5" y="-1671.82" font-family="Times,serif" font-size="32.00"> smiled |</text>
<text text-anchor="middle" x="572.5" y="-1636.82" font-family="Times,serif" font-size="32.00"> jumps |</text>
<text text-anchor="middle" x="572.5" y="-1601.82" font-family="Times,serif" font-size="32.00"> jumped |</text>
<text text-anchor="middle" x="572.5" y="-1566.82" font-family="Times,serif" font-size="32.00"> laughs |</text>
<text text-anchor="middle" x="572.5" y="-1531.82" font-family="Times,serif" font-size="32.00"> laughed |</text>
<text text-anchor="middle" x="572.5" y="-1496.82" font-family="Times,serif" font-size="32.00"> brags |</text>
<text text-anchor="middle" x="572.5" y="-1461.82" font-family="Times,serif" font-size="32.00"> bragged |</text>
<text text-anchor="middle" x="572.5" y="-1426.82" font-family="Times,serif" font-size="32.00"> jogs |</text>
<text text-anchor="middle" x="572.5" y="-1391.82" font-family="Times,serif" font-size="32.00"> jogged</text>
<text text-anchor="middle" x="572.5" y="-1356.82" font-family="Times,serif" font-size="32.00">=d +k t</text>
</g>
<!-- d&#45;&gt;t -->
<g id="edge6" class="edge">
<title>d&#45;&gt;t</title>
<path fill="none" stroke="#000000" d="M1254.76,-576.62C1237.32,-687.6 1160.64,-1066.42 926.5,-1066.42 926.5,-1066.42 926.5,-1066.42 247.5,-1066.42 66.89,-1066.42 34.88,-769.18 29.21,-658.93"/>
<polygon fill="#000000" stroke="#000000" points="32.71,-658.68 28.74,-648.86 25.71,-659.01 32.71,-658.68"/>
<text text-anchor="middle" x="572.5" y="-1285.82" font-family="Times,serif" font-size="32.00">likes |</text>
<text text-anchor="middle" x="572.5" y="-1250.82" font-family="Times,serif" font-size="32.00"> liked |</text>
<text text-anchor="middle" x="572.5" y="-1215.82" font-family="Times,serif" font-size="32.00"> destroys |</text>
<text text-anchor="middle" x="572.5" y="-1180.82" font-family="Times,serif" font-size="32.00"> destroyed |</text>
<text text-anchor="middle" x="572.5" y="-1145.82" font-family="Times,serif" font-size="32.00"> hugs |</text>
<text text-anchor="middle" x="572.5" y="-1110.82" font-family="Times,serif" font-size="32.00"> hugged</text>
<text text-anchor="middle" x="572.5" y="-1075.82" font-family="Times,serif" font-size="32.00">=d *k =d +k t</text>
</g>
<!-- v -->
<g id="node4" class="node">
<title>v</title>
<ellipse fill="none" stroke="black" cx="248.5" cy="-618.42" rx="27" ry="30.31"/>
<text text-anchor="middle" x="248.5" y="-610.32" font-family="Times,serif" font-size="32.00">v</text>
</g>
<!-- d&#45;&gt;v -->
<g id="edge3" class="edge">
<title>d&#45;&gt;v</title>
<path fill="none" stroke="#000000" d="M1258.2,-576.88C1255.64,-609.62 1246.46,-660.91 1215,-690.42 1082.75,-814.46 998.1,-763.39 818,-784.42 595.83,-810.36 537.15,-744.23 331,-657.42 314.87,-650.63 297.32,-642.35 282.65,-635.17"/>
<polygon fill="#000000" stroke="#000000" points="283.99,-631.92 273.47,-630.63 280.89,-638.2 283.99,-631.92"/>
<text text-anchor="middle" x="748" y="-1008.82" font-family="Times,serif" font-size="32.00">dance |</text>
<text text-anchor="middle" x="748" y="-973.82" font-family="Times,serif" font-size="32.00"> smile |</text>
<text text-anchor="middle" x="748" y="-938.82" font-family="Times,serif" font-size="32.00"> jump |</text>
<text text-anchor="middle" x="748" y="-903.82" font-family="Times,serif" font-size="32.00"> laugh |</text>
<text text-anchor="middle" x="748" y="-868.82" font-family="Times,serif" font-size="32.00"> brag |</text>
<text text-anchor="middle" x="748" y="-833.82" font-family="Times,serif" font-size="32.00"> jog</text>
<text text-anchor="middle" x="748" y="-798.82" font-family="Times,serif" font-size="32.00">=d v</text>
</g>
<!-- d&#45;&gt;v -->
<g id="edge7" class="edge">
<title>d&#45;&gt;v</title>
<path fill="none" stroke="#000000" d="M1256.8,-576.69C1253.01,-604.18 1242.74,-643.27 1215,-662.42 1148.43,-708.37 1113.78,-666.54 1033,-662.42 937.07,-657.52 913.84,-646.9 818,-640.42 670.26,-630.43 632.96,-635.32 485,-629.42 414.43,-626.6 331.99,-622.58 285.76,-620.26"/>
<polygon fill="#000000" stroke="#000000" points="285.8,-616.76 275.63,-619.75 285.44,-623.75 285.8,-616.76"/>
<text text-anchor="middle" x="748" y="-754.82" font-family="Times,serif" font-size="32.00">like |</text>
<text text-anchor="middle" x="748" y="-719.82" font-family="Times,serif" font-size="32.00"> destroy |</text>
<text text-anchor="middle" x="748" y="-684.82" font-family="Times,serif" font-size="32.00"> hug</text>
<text text-anchor="middle" x="748" y="-649.82" font-family="Times,serif" font-size="32.00">=d *k =d v</text>
</g>
<!-- prog -->
<g id="node5" class="node">
<title>prog</title>
<ellipse fill="none" stroke="black" cx="925.5" cy="-513.42" rx="52.15" ry="30.31"/>
<text text-anchor="middle" x="925.5" y="-505.32" font-family="Times,serif" font-size="32.00">prog</text>
</g>
<!-- d&#45;&gt;prog -->
<g id="edge4" class="edge">
<title>d&#45;&gt;prog</title>
<path fill="none" stroke="#000000" d="M1258.17,-516.03C1255.51,-485.46 1246.18,-439.72 1215,-417.42 1182.11,-393.88 1065.95,-393.96 1033,-417.42 1013.08,-431.6 1031.15,-451.05 1015,-469.42 1005.79,-479.89 993.51,-488.15 981.03,-494.54"/>
<polygon fill="#000000" stroke="#000000" points="979.47,-491.41 971.96,-498.87 982.49,-497.72 979.47,-491.41"/>
<text text-anchor="middle" x="1124" y="-636.82" font-family="Times,serif" font-size="32.00">dancing |</text>
<text text-anchor="middle" x="1124" y="-601.82" font-family="Times,serif" font-size="32.00"> smiling |</text>
<text text-anchor="middle" x="1124" y="-566.82" font-family="Times,serif" font-size="32.00"> jumping |</text>
<text text-anchor="middle" x="1124" y="-531.82" font-family="Times,serif" font-size="32.00"> laughing |</text>
<text text-anchor="middle" x="1124" y="-496.82" font-family="Times,serif" font-size="32.00"> bragging |</text>
<text text-anchor="middle" x="1124" y="-461.82" font-family="Times,serif" font-size="32.00"> jogging</text>
<text text-anchor="middle" x="1124" y="-426.82" font-family="Times,serif" font-size="32.00">=d prog</text>
</g>
<!-- d&#45;&gt;prog -->
<g id="edge8" class="edge">
<title>d&#45;&gt;prog</title>
<path fill="none" stroke="#000000" d="M1259.15,-515.88C1258.76,-448.34 1253.66,-289.66 1215,-256.42 1184.33,-230.05 1062.78,-229.05 1033,-256.42 998.03,-288.56 1041.7,-430.13 1015,-469.42 1007.08,-481.07 995.15,-489.77 982.58,-496.22"/>
<polygon fill="#000000" stroke="#000000" points="980.94,-493.12 973.37,-500.52 983.91,-499.46 980.94,-493.12"/>
<text text-anchor="middle" x="1124" y="-370.82" font-family="Times,serif" font-size="32.00">liking |</text>
<text text-anchor="middle" x="1124" y="-335.82" font-family="Times,serif" font-size="32.00"> destroying |</text>
<text text-anchor="middle" x="1124" y="-300.82" font-family="Times,serif" font-size="32.00"> hugging</text>
<text text-anchor="middle" x="1124" y="-265.82" font-family="Times,serif" font-size="32.00">=d *k =d prog</text>
</g>
<!-- perf -->
<g id="node6" class="node">
<title>perf</title>
<ellipse fill="none" stroke="black" cx="572.5" cy="-316.42" rx="48.17" ry="30.31"/>
<text text-anchor="middle" x="572.5" y="-308.32" font-family="Times,serif" font-size="32.00">perf</text>
</g>
<!-- d&#45;&gt;perf -->
<g id="edge5" class="edge">
<title>d&#45;&gt;perf</title>
<path fill="none" stroke="#000000" d="M1259.46,-515.8C1259.81,-444.61 1256.3,-271.22 1215,-234.42 1152.11,-178.38 919.15,-216 836,-229.42 758.81,-241.88 673.59,-273.69 621.8,-295.2"/>
<polygon fill="#000000" stroke="#000000" points="620.4,-291.99 612.53,-299.08 623.11,-298.45 620.4,-291.99"/>
<text text-anchor="middle" x="925.5" y="-448.82" font-family="Times,serif" font-size="32.00">danced_1 |</text>
<text text-anchor="middle" x="925.5" y="-413.82" font-family="Times,serif" font-size="32.00"> smiled_1 |</text>
<text text-anchor="middle" x="925.5" y="-378.82" font-family="Times,serif" font-size="32.00"> jumped_1 |</text>
<text text-anchor="middle" x="925.5" y="-343.82" font-family="Times,serif" font-size="32.00"> laughed_1 |</text>
<text text-anchor="middle" x="925.5" y="-308.82" font-family="Times,serif" font-size="32.00"> bragged_1 |</text>
<text text-anchor="middle" x="925.5" y="-273.82" font-family="Times,serif" font-size="32.00"> jogged_1</text>
<text text-anchor="middle" x="925.5" y="-238.82" font-family="Times,serif" font-size="32.00">=d perf</text>
</g>
<!-- d&#45;&gt;perf -->
<g id="edge9" class="edge">
<title>d&#45;&gt;perf</title>
<path fill="none" stroke="#000000" d="M1258.26,-516.01C1255.95,-441.87 1247.03,-254.02 1215,-201.42 1158.84,-109.17 1118.11,-95.54 1015,-63.42 939.04,-39.76 909.78,-33.65 836,-63.42 726.91,-107.43 637.86,-220.89 597.25,-279.76"/>
<polygon fill="#000000" stroke="#000000" points="594.35,-277.8 591.61,-288.03 600.14,-281.74 594.35,-277.8"/>
<text text-anchor="middle" x="925.5" y="-177.82" font-family="Times,serif" font-size="32.00">liked_1 |</text>
<text text-anchor="middle" x="925.5" y="-142.82" font-family="Times,serif" font-size="32.00"> destroyed_1 |</text>
<text text-anchor="middle" x="925.5" y="-107.82" font-family="Times,serif" font-size="32.00"> hugged_1</text>
<text text-anchor="middle" x="925.5" y="-72.82" font-family="Times,serif" font-size="32.00">=d *k =d perf</text>
</g>
<!-- v&#45;&gt;t -->
<g id="edge10" class="edge">
<title>v&#45;&gt;t</title>
<path fill="none" stroke="#000000" d="M221.46,-618.42C182.35,-618.42 108.32,-618.42 64.05,-618.42"/>
<polygon fill="#000000" stroke="#000000" points="64.01,-614.92 54.01,-618.42 64.01,-621.92 64.01,-614.92"/>
<text text-anchor="middle" x="119" y="-697.82" font-family="Times,serif" font-size="32.00">will |</text>
<text text-anchor="middle" x="119" y="-662.82" font-family="Times,serif" font-size="32.00"> would</text>
<text text-anchor="middle" x="119" y="-627.82" font-family="Times,serif" font-size="32.00">=v +k t</text>
</g>
<!-- prog&#45;&gt;t -->
<g id="edge13" class="edge">
<title>prog&#45;&gt;t</title>
<path fill="none" stroke="#000000" d="M879.42,-498.54C779.2,-467.7 531,-403.76 331,-454.42 221.97,-482.03 109.64,-557.56 57.68,-595.71"/>
<polygon fill="#000000" stroke="#000000" points="55.52,-592.96 49.57,-601.72 59.69,-598.58 55.52,-592.96"/>
<text text-anchor="middle" x="399" y="-533.82" font-family="Times,serif" font-size="32.00">is |</text>
<text text-anchor="middle" x="399" y="-498.82" font-family="Times,serif" font-size="32.00"> was</text>
<text text-anchor="middle" x="399" y="-463.82" font-family="Times,serif" font-size="32.00">=prog +k t</text>
</g>
<!-- prog&#45;&gt;v -->
<g id="edge14" class="edge">
<title>prog&#45;&gt;v</title>
<path fill="none" stroke="#000000" d="M873.42,-516.41C791.14,-521.77 624.39,-534.79 485,-559.42 412.84,-572.17 330.08,-594.81 284.4,-608.03"/>
<polygon fill="#000000" stroke="#000000" points="283.31,-604.7 274.69,-610.86 285.27,-611.42 283.31,-604.7"/>
<text text-anchor="middle" x="572.5" y="-603.82" font-family="Times,serif" font-size="32.00">be</text>
<text text-anchor="middle" x="572.5" y="-568.82" font-family="Times,serif" font-size="32.00">=prog v</text>
</g>
<!-- prog&#45;&gt;perf -->
<g id="edge15" class="edge">
<title>prog&#45;&gt;perf</title>
<path fill="none" stroke="#000000" d="M878.31,-500.04C862.63,-493.29 846.46,-483.45 836,-469.42 807.97,-431.8 850.73,-399.02 818,-365.42 769.66,-315.78 686.21,-309.06 630.43,-310.99"/>
<polygon fill="#000000" stroke="#000000" points="630.19,-307.5 620.35,-311.44 630.5,-314.49 630.19,-307.5"/>
<text text-anchor="middle" x="748" y="-409.82" font-family="Times,serif" font-size="32.00">been</text>
<text text-anchor="middle" x="748" y="-374.82" font-family="Times,serif" font-size="32.00">=prog perf</text>
</g>
<!-- perf&#45;&gt;t -->
<g id="edge11" class="edge">
<title>perf&#45;&gt;t</title>
<path fill="none" stroke="#000000" d="M526.05,-308.14C451.36,-296.66 299.43,-282.34 184,-330.42 121.01,-356.65 106.31,-376.44 72,-435.42 46.17,-479.82 35.47,-538.71 31.06,-577.54"/>
<polygon fill="#000000" stroke="#000000" points="27.53,-577.62 29.98,-587.93 34.5,-578.35 27.53,-577.62"/>
<text text-anchor="middle" x="248.5" y="-409.82" font-family="Times,serif" font-size="32.00">has |</text>
<text text-anchor="middle" x="248.5" y="-374.82" font-family="Times,serif" font-size="32.00"> had</text>
<text text-anchor="middle" x="248.5" y="-339.82" font-family="Times,serif" font-size="32.00">=perf +k t</text>
</g>
<!-- perf&#45;&gt;v -->
<g id="edge12" class="edge">
<title>perf&#45;&gt;v</title>
<path fill="none" stroke="#000000" d="M525.45,-322.96C457.65,-332.79 338.14,-350.89 331,-357.42 307.92,-378.51 321.89,-395.44 313,-425.42 296.89,-479.74 275.99,-541.89 262.66,-580.65"/>
<polygon fill="#000000" stroke="#000000" points="259.23,-579.86 259.28,-590.45 265.85,-582.14 259.23,-579.86"/>
<text text-anchor="middle" x="399" y="-401.82" font-family="Times,serif" font-size="32.00">have</text>
<text text-anchor="middle" x="399" y="-366.82" font-family="Times,serif" font-size="32.00">=perf v</text>
</g>
</g>
</svg>
