<?xml version="1.0" encoding="UTF-8" standalone="no"?>
<!DOCTYPE svg PUBLIC "-//W3C//DTD SVG 1.1//EN"
 "http://www.w3.org/Graphics/SVG/1.1/DTD/svg11.dtd">
<!-- Generated by graphviz version 2.47.1 (20210417.1919)
 -->
<!-- Title: G Pages: 1 -->
<svg width="2280pt" height="1301pt"
 viewBox="0.00 0.00 2280.00 1301.00" xmlns="http://www.w3.org/2000/svg" xmlns:xlink="http://www.w3.org/1999/xlink">
<g id="graph0" class="graph" transform="scale(1 1) rotate(0) translate(4 1297)">
<title>G</title>
<polygon fill="white" stroke="transparent" points="-4,4 -4,-1297 2276,-1297 2276,4 -4,4"/>
<text text-anchor="middle" x="1136" y="-13.4" font-family="Times,serif" font-size="32.00">decomposition: dancing =d prog, smiling =d prog, liking =d *k =d prog, destroying =d *k =d prog, hugging =d *k =d prog, jumping =d prog, laughing =d prog, ing =&gt;1 =d prog</text>
<!-- t -->
<g id="node1" class="node">
<title>t</title>
<ellipse fill="lightgray" stroke="black" cx="245.67" cy="-599" rx="27" ry="30.31"/>
<text text-anchor="middle" x="245.67" y="-590.9" font-family="Times,serif" font-size="32.00">t</text>
</g>
<!-- z0 -->
<g id="node2" class="node">
<title>z0</title>
<ellipse fill="none" stroke="black" stroke-dasharray="5,2" cx="2026.33" cy="-605" rx="27" ry="18"/>
</g>
<!-- d -->
<g id="node3" class="node">
<title>d</title>
<ellipse fill="none" stroke="black" cx="1866.33" cy="-605" rx="27" ry="30.31"/>
<text text-anchor="middle" x="1866.33" y="-596.9" font-family="Times,serif" font-size="32.00">d</text>
</g>
<!-- z0&#45;&gt;d -->
<g id="edge1" class="edge">
<title>z0&#45;&gt;d</title>
<path fill="none" stroke="#000000" d="M1999.24,-605C1973.16,-605 1932.86,-605 1903.66,-605"/>
<polygon fill="#000000" stroke="#000000" points="1903.46,-601.5 1893.46,-605 1903.46,-608.5 1903.46,-601.5"/>
<text text-anchor="middle" x="1946.33" y="-649.4" font-family="Times,serif" font-size="32.00">Mary</text>
<text text-anchor="middle" x="1946.33" y="-614.4" font-family="Times,serif" font-size="32.00">d &#45;k</text>
</g>
<!-- 0 -->
<g id="node4" class="node">
<title>0</title>
<ellipse fill="none" stroke="black" cx="1579.83" cy="-1048" rx="27" ry="30.31"/>
<text text-anchor="middle" x="1579.83" y="-1039.9" font-family="Times,serif" font-size="32.00">0</text>
</g>
<!-- d&#45;&gt;0 -->
<g id="edge10" class="edge">
<title>d&#45;&gt;0</title>
<path fill="none" stroke="#000000" d="M1862.16,-635.19C1856.24,-686.76 1842.22,-789.07 1821.33,-818 1776.56,-879.98 1727.53,-851.1 1672.33,-904 1639.67,-935.29 1613.42,-980.49 1597.55,-1011.87"/>
<polygon fill="#000000" stroke="#000000" points="1594.26,-1010.62 1592.96,-1021.13 1600.53,-1013.73 1594.26,-1010.62"/>
<text text-anchor="middle" x="1746.83" y="-1018.4" font-family="Times,serif" font-size="32.00">like |</text>
<text text-anchor="middle" x="1746.83" y="-983.4" font-family="Times,serif" font-size="32.00"> destroy |</text>
<text text-anchor="middle" x="1746.83" y="-948.4" font-family="Times,serif" font-size="32.00"> hug</text>
<text text-anchor="middle" x="1746.83" y="-913.4" font-family="Times,serif" font-size="32.00">=d *k 0</text>
</g>
<!-- 1 -->
<g id="node6" class="node">
<title>1</title>
<ellipse fill="none" stroke="black" cx="1579.83" cy="-547" rx="27" ry="30.31"/>
<text text-anchor="middle" x="1579.83" y="-538.9" font-family="Times,serif" font-size="32.00">1</text>
</g>
<!-- d&#45;&gt;1 -->
<g id="edge11" class="edge">
<title>d&#45;&gt;1</title>
<path fill="none" stroke="#000000" d="M1861.06,-574.97C1854.64,-534.53 1841.08,-465.9 1821.33,-451 1768.46,-411.12 1726.27,-412.59 1672.33,-451 1652.4,-465.19 1669.75,-484.02 1654.33,-503 1643.96,-515.75 1628.85,-525.7 1615.02,-532.88"/>
<polygon fill="#000000" stroke="#000000" points="1613.18,-529.88 1605.73,-537.41 1616.25,-536.17 1613.18,-529.88"/>
<text text-anchor="middle" x="1746.83" y="-565.4" font-family="Times,serif" font-size="32.00">lik |</text>
<text text-anchor="middle" x="1746.83" y="-530.4" font-family="Times,serif" font-size="32.00"> destroy_1 |</text>
<text text-anchor="middle" x="1746.83" y="-495.4" font-family="Times,serif" font-size="32.00"> hugg</text>
<text text-anchor="middle" x="1746.83" y="-460.4" font-family="Times,serif" font-size="32.00">=d *k 1</text>
</g>
<!-- v -->
<g id="node8" class="node">
<title>v</title>
<ellipse fill="none" stroke="black" cx="467.17" cy="-605" rx="27" ry="30.31"/>
<text text-anchor="middle" x="467.17" y="-596.9" font-family="Times,serif" font-size="32.00">v</text>
</g>
<!-- d&#45;&gt;v -->
<g id="edge6" class="edge">
<title>d&#45;&gt;v</title>
<path fill="none" stroke="#000000" d="M1848.65,-628.22C1808.8,-680.71 1702.28,-804 1580.83,-804 1580.83,-804 1580.83,-804 752.67,-804 637.15,-804 535.14,-692.46 491.16,-636.39"/>
<polygon fill="#000000" stroke="#000000" points="493.73,-634 484.85,-628.22 488.19,-638.27 493.73,-634"/>
<text text-anchor="middle" x="1196.33" y="-1023.4" font-family="Times,serif" font-size="32.00">dance_1 |</text>
<text text-anchor="middle" x="1196.33" y="-988.4" font-family="Times,serif" font-size="32.00"> smile_1 |</text>
<text text-anchor="middle" x="1196.33" y="-953.4" font-family="Times,serif" font-size="32.00"> jump_2 |</text>
<text text-anchor="middle" x="1196.33" y="-918.4" font-family="Times,serif" font-size="32.00"> laugh_2 |</text>
<text text-anchor="middle" x="1196.33" y="-883.4" font-family="Times,serif" font-size="32.00"> brag_1 |</text>
<text text-anchor="middle" x="1196.33" y="-848.4" font-family="Times,serif" font-size="32.00"> jog_1</text>
<text text-anchor="middle" x="1196.33" y="-813.4" font-family="Times,serif" font-size="32.00">=d v</text>
</g>
<!-- d&#45;&gt;v -->
<g id="edge12" class="edge">
<title>d&#45;&gt;v</title>
<path fill="none" stroke="#000000" d="M1839.05,-605C1788.86,-605 1675.91,-605 1580.83,-605 1580.83,-605 1580.83,-605 752.67,-605 663.54,-605 558.69,-605 504.58,-605"/>
<polygon fill="#000000" stroke="#000000" points="504.45,-601.5 494.45,-605 504.45,-608.5 504.45,-601.5"/>
<text text-anchor="middle" x="1196.33" y="-719.4" font-family="Times,serif" font-size="32.00">like_1 |</text>
<text text-anchor="middle" x="1196.33" y="-684.4" font-family="Times,serif" font-size="32.00"> destroy_2 |</text>
<text text-anchor="middle" x="1196.33" y="-649.4" font-family="Times,serif" font-size="32.00"> hug_1</text>
<text text-anchor="middle" x="1196.33" y="-614.4" font-family="Times,serif" font-size="32.00">=d *k =d v</text>
</g>
<!-- 2 -->
<g id="node9" class="node">
<title>2</title>
<ellipse fill="none" stroke="black" cx="1321.33" cy="-363" rx="27" ry="30.31"/>
<text text-anchor="middle" x="1321.33" y="-354.9" font-family="Times,serif" font-size="32.00">2</text>
</g>
<!-- d&#45;&gt;2 -->
<g id="edge13" class="edge">
<title>d&#45;&gt;2</title>
<path fill="none" stroke="#f7931d" stroke-width="2" d="M1861.88,-574.63C1855.96,-527.64 1842.42,-440.4 1821.33,-418 1758.5,-351.3 1462.21,-357.06 1358.38,-361.25"/>
<polygon fill="#f7931d" stroke="#f7931d" stroke-width="2" points="1358.22,-357.76 1348.38,-361.68 1358.52,-364.75 1358.22,-357.76"/>
<text text-anchor="middle" x="1579.83" y="-481.4" font-family="Times,serif" font-size="32.00">lik_1 |</text>
<text text-anchor="middle" x="1579.83" y="-446.4" font-family="Times,serif" font-size="32.00"> destroy_3 |</text>
<text text-anchor="middle" x="1579.83" y="-411.4" font-family="Times,serif" font-size="32.00"> hugg_1</text>
<text text-anchor="middle" x="1579.83" y="-376.4" font-family="Times,serif" font-size="32.00">=d *k 2</text>
</g>
<!-- 0&#45;&gt;t -->
<g id="edge2" class="edge">
<title>0&#45;&gt;t</title>
<path fill="none" stroke="#000000" d="M1552.64,-1050.71C1506.27,-1055.28 1406.65,-1064 1322.33,-1064 1322.33,-1064 1322.33,-1064 466.17,-1064 279.19,-1064 251.24,-752.7 247.26,-639.52"/>
<polygon fill="#000000" stroke="#000000" points="250.76,-639.4 246.95,-629.51 243.76,-639.61 250.76,-639.4"/>
<text text-anchor="middle" x="898.67" y="-1108.4" font-family="Times,serif" font-size="32.00">s</text>
<text text-anchor="middle" x="898.67" y="-1073.4" font-family="Times,serif" font-size="32.00">=&gt;0 =d +k t</text>
</g>
<!-- z1 -->
<g id="node5" class="node">
<title>z1</title>
<ellipse fill="none" stroke="black" stroke-dasharray="5,2" cx="1866.33" cy="-1048" rx="27" ry="18"/>
</g>
<!-- z1&#45;&gt;0 -->
<g id="edge3" class="edge">
<title>z1&#45;&gt;0</title>
<path fill="none" stroke="#000000" d="M1839.32,-1048C1788.45,-1048 1675.62,-1048 1617.3,-1048"/>
<polygon fill="#000000" stroke="#000000" points="1617.08,-1044.5 1607.08,-1048 1617.08,-1051.5 1617.08,-1044.5"/>
<text text-anchor="middle" x="1746.83" y="-1267.4" font-family="Times,serif" font-size="32.00">dance |</text>
<text text-anchor="middle" x="1746.83" y="-1232.4" font-family="Times,serif" font-size="32.00"> smile |</text>
<text text-anchor="middle" x="1746.83" y="-1197.4" font-family="Times,serif" font-size="32.00"> jump |</text>
<text text-anchor="middle" x="1746.83" y="-1162.4" font-family="Times,serif" font-size="32.00"> laugh |</text>
<text text-anchor="middle" x="1746.83" y="-1127.4" font-family="Times,serif" font-size="32.00"> brag |</text>
<text text-anchor="middle" x="1746.83" y="-1092.4" font-family="Times,serif" font-size="32.00"> jog</text>
<text text-anchor="middle" x="1746.83" y="-1057.4" font-family="Times,serif" font-size="32.00">0</text>
</g>
<!-- 1&#45;&gt;t -->
<g id="edge4" class="edge">
<title>1&#45;&gt;t</title>
<path fill="none" stroke="#000000" d="M1558.68,-566.54C1513.07,-609.27 1396.47,-710.03 1276.33,-746 1208.2,-766.4 1187.14,-752.49 1116.33,-746 1053.02,-740.2 1038.91,-726.49 975.67,-720 937.81,-716.11 322.1,-726.48 290.67,-705 269.04,-690.21 258.02,-662.63 252.42,-639.32"/>
<polygon fill="#000000" stroke="#000000" points="255.79,-638.34 250.27,-629.3 248.95,-639.81 255.79,-638.34"/>
<text text-anchor="middle" x="898.67" y="-764.4" font-family="Times,serif" font-size="32.00">ed</text>
<text text-anchor="middle" x="898.67" y="-729.4" font-family="Times,serif" font-size="32.00">=&gt;1 =d +k t</text>
</g>
<!-- 1&#45;&gt;2 -->
<g id="edge14" class="edge">
<title>1&#45;&gt;2</title>
<path fill="none" stroke="#f7931d" stroke-width="2" d="M1553.76,-537.96C1537.59,-530.87 1517.39,-519.42 1505.33,-503 1485.03,-475.37 1509.81,-453.87 1487.33,-428 1469.84,-407.89 1400.55,-385.25 1357.51,-372.7"/>
<polygon fill="#f7931d" stroke="#f7931d" stroke-width="2" points="1358.29,-369.28 1347.71,-369.89 1356.35,-376.01 1358.29,-369.28"/>
<text text-anchor="middle" x="1426.83" y="-472.4" font-family="Times,serif" font-size="32.00">ε_0</text>
<text text-anchor="middle" x="1426.83" y="-437.4" font-family="Times,serif" font-size="32.00">=&gt;1 2</text>
</g>
<!-- perf -->
<g id="node12" class="node">
<title>perf</title>
<ellipse fill="none" stroke="black" cx="753.67" cy="-512" rx="48.17" ry="30.31"/>
<text text-anchor="middle" x="753.67" y="-503.9" font-family="Times,serif" font-size="32.00">perf</text>
</g>
<!-- 1&#45;&gt;perf -->
<g id="edge9" class="edge">
<title>1&#45;&gt;perf</title>
<path fill="none" stroke="#000000" d="M1553.01,-543.13C1500.87,-535.52 1379.21,-518.86 1276.33,-513 1107.74,-503.39 908,-507.25 811.92,-510.05"/>
<polygon fill="#000000" stroke="#000000" points="811.73,-506.56 801.84,-510.36 811.94,-513.56 811.73,-506.56"/>
<text text-anchor="middle" x="1196.33" y="-557.4" font-family="Times,serif" font-size="32.00">ed_1</text>
<text text-anchor="middle" x="1196.33" y="-522.4" font-family="Times,serif" font-size="32.00">=&gt;1 =d perf</text>
</g>
<!-- z2 -->
<g id="node7" class="node">
<title>z2</title>
<ellipse fill="none" stroke="black" stroke-dasharray="5,2" cx="1866.33" cy="-99" rx="27" ry="18"/>
</g>
<!-- z2&#45;&gt;1 -->
<g id="edge5" class="edge">
<title>z2&#45;&gt;1</title>
<path fill="none" stroke="#000000" d="M1839.09,-100.44C1796.15,-104.35 1711.73,-118.91 1672.33,-173 1629.08,-232.36 1692.27,-440.12 1654.33,-503 1645.56,-517.52 1630.03,-527.83 1615.49,-534.81"/>
<polygon fill="#000000" stroke="#000000" points="1613.9,-531.68 1606.16,-538.92 1616.72,-538.09 1613.9,-531.68"/>
<text text-anchor="middle" x="1746.83" y="-392.4" font-family="Times,serif" font-size="32.00">danc |</text>
<text text-anchor="middle" x="1746.83" y="-357.4" font-family="Times,serif" font-size="32.00"> smil |</text>
<text text-anchor="middle" x="1746.83" y="-322.4" font-family="Times,serif" font-size="32.00"> jump_1 |</text>
<text text-anchor="middle" x="1746.83" y="-287.4" font-family="Times,serif" font-size="32.00"> laugh_1 |</text>
<text text-anchor="middle" x="1746.83" y="-252.4" font-family="Times,serif" font-size="32.00"> bragg |</text>
<text text-anchor="middle" x="1746.83" y="-217.4" font-family="Times,serif" font-size="32.00"> jogg</text>
<text text-anchor="middle" x="1746.83" y="-182.4" font-family="Times,serif" font-size="32.00">1</text>
</g>
<!-- v&#45;&gt;t -->
<g id="edge15" class="edge">
<title>v&#45;&gt;t</title>
<path fill="none" stroke="#000000" d="M440.13,-603.04C424.14,-601.93 403.23,-600.64 384.67,-600 350.17,-598.82 310.79,-598.65 282.95,-598.73"/>
<polygon fill="#000000" stroke="#000000" points="282.87,-595.23 272.88,-598.77 282.9,-602.23 282.87,-595.23"/>
<text text-anchor="middle" x="337.67" y="-679.4" font-family="Times,serif" font-size="32.00">will |</text>
<text text-anchor="middle" x="337.67" y="-644.4" font-family="Times,serif" font-size="32.00"> would</text>
<text text-anchor="middle" x="337.67" y="-609.4" font-family="Times,serif" font-size="32.00">=v +k t</text>
</g>
<!-- prog -->
<g id="node10" class="node">
<title>prog</title>
<ellipse fill="none" stroke="black" cx="1046" cy="-389" rx="52.15" ry="30.31"/>
<text text-anchor="middle" x="1046" y="-380.9" font-family="Times,serif" font-size="32.00">prog</text>
</g>
<!-- 2&#45;&gt;prog -->
<g id="edge7" class="edge">
<title>2&#45;&gt;prog</title>
<path fill="none" stroke="#f7931d" stroke-width="2" d="M1294.12,-365.49C1251.58,-369.54 1166.39,-377.64 1108.04,-383.19"/>
<polygon fill="#f7931d" stroke="#f7931d" stroke-width="2" points="1107.46,-379.73 1097.83,-384.16 1108.12,-386.7 1107.46,-379.73"/>
<text text-anchor="middle" x="1196.33" y="-427.4" font-family="Times,serif" font-size="32.00">ing</text>
<text text-anchor="middle" x="1196.33" y="-392.4" font-family="Times,serif" font-size="32.00">=&gt;2 =d prog</text>
</g>
<!-- prog&#45;&gt;t -->
<g id="edge18" class="edge">
<title>prog&#45;&gt;t</title>
<path fill="none" stroke="#000000" d="M1005.49,-369.73C920.69,-331 715.48,-251.43 549.67,-300 418.46,-338.44 374.52,-358 290.67,-466 269.62,-493.12 258.41,-530.77 252.58,-559.09"/>
<polygon fill="#000000" stroke="#000000" points="249.12,-558.59 250.67,-569.07 255.99,-559.91 249.12,-558.59"/>
<text text-anchor="middle" x="617.67" y="-379.4" font-family="Times,serif" font-size="32.00">is |</text>
<text text-anchor="middle" x="617.67" y="-344.4" font-family="Times,serif" font-size="32.00"> was</text>
<text text-anchor="middle" x="617.67" y="-309.4" font-family="Times,serif" font-size="32.00">=prog +k t</text>
</g>
<!-- prog&#45;&gt;v -->
<g id="edge19" class="edge">
<title>prog&#45;&gt;v</title>
<path fill="none" stroke="#000000" d="M994.34,-383.65C926.6,-378.16 803.49,-374.03 703.67,-403 627.76,-425.04 596.68,-428.44 549.67,-492 528.52,-520.6 553.12,-541.61 531.67,-570 524.28,-579.79 513.31,-587.2 502.57,-592.62"/>
<polygon fill="#000000" stroke="#000000" points="500.9,-589.53 493.27,-596.88 503.82,-595.89 500.9,-589.53"/>
<text text-anchor="middle" x="753.67" y="-447.4" font-family="Times,serif" font-size="32.00">be</text>
<text text-anchor="middle" x="753.67" y="-412.4" font-family="Times,serif" font-size="32.00">=prog v</text>
</g>
<!-- prog&#45;&gt;perf -->
<g id="edge20" class="edge">
<title>prog&#45;&gt;perf</title>
<path fill="none" stroke="#000000" d="M997.37,-400.51C990.12,-402.11 982.71,-403.66 975.67,-405 907.68,-417.9 876.85,-386.22 821.67,-428 806.13,-439.77 815.17,-452.26 803.67,-468 800.22,-472.73 796.18,-477.33 791.94,-481.66"/>
<polygon fill="#000000" stroke="#000000" points="789.43,-479.22 784.66,-488.68 794.29,-484.26 789.43,-479.22"/>
<text text-anchor="middle" x="898.67" y="-472.4" font-family="Times,serif" font-size="32.00">been</text>
<text text-anchor="middle" x="898.67" y="-437.4" font-family="Times,serif" font-size="32.00">=prog perf</text>
</g>
<!-- z3 -->
<g id="node11" class="node">
<title>z3</title>
<ellipse fill="none" stroke="black" stroke-dasharray="5,2" cx="1579.83" cy="-169" rx="27" ry="18"/>
</g>
<!-- z3&#45;&gt;2 -->
<g id="edge8" class="edge">
<title>z3&#45;&gt;2</title>
<path fill="none" stroke="#f7931d" stroke-width="2" d="M1555.65,-160.74C1513.01,-147.17 1421.45,-125.81 1366.33,-170 1342.93,-188.75 1330.99,-271.6 1325.75,-322.46"/>
<polygon fill="#f7931d" stroke="#f7931d" stroke-width="2" points="1322.26,-322.19 1324.76,-332.48 1329.23,-322.87 1322.26,-322.19"/>
<text text-anchor="middle" x="1426.83" y="-319.4" font-family="Times,serif" font-size="32.00">danc_1 |</text>
<text text-anchor="middle" x="1426.83" y="-284.4" font-family="Times,serif" font-size="32.00"> smil_1 |</text>
<text text-anchor="middle" x="1426.83" y="-249.4" font-family="Times,serif" font-size="32.00"> jump_3 |</text>
<text text-anchor="middle" x="1426.83" y="-214.4" font-family="Times,serif" font-size="32.00"> laugh_3</text>
<text text-anchor="middle" x="1426.83" y="-179.4" font-family="Times,serif" font-size="32.00">2</text>
</g>
<!-- perf&#45;&gt;t -->
<g id="edge16" class="edge">
<title>perf&#45;&gt;t</title>
<path fill="none" stroke="#000000" d="M714.3,-494.35C648.42,-466.65 510.49,-420.16 402.67,-461 346.41,-482.32 297.38,-534.23 269.95,-567.95"/>
<polygon fill="#000000" stroke="#000000" points="266.95,-566.1 263.45,-576.1 272.42,-570.47 266.95,-566.1"/>
<text text-anchor="middle" x="467.17" y="-540.4" font-family="Times,serif" font-size="32.00">has |</text>
<text text-anchor="middle" x="467.17" y="-505.4" font-family="Times,serif" font-size="32.00"> had</text>
<text text-anchor="middle" x="467.17" y="-470.4" font-family="Times,serif" font-size="32.00">=perf +k t</text>
</g>
<!-- perf&#45;&gt;v -->
<g id="edge17" class="edge">
<title>perf&#45;&gt;v</title>
<path fill="none" stroke="#000000" d="M708.15,-501.48C664,-493.72 596.38,-489.31 549.67,-521 533.54,-531.95 544.14,-546.01 531.67,-561 523.08,-571.33 511.48,-580.32 500.55,-587.43"/>
<polygon fill="#000000" stroke="#000000" points="498.66,-584.48 492,-592.72 502.34,-590.43 498.66,-584.48"/>
<text text-anchor="middle" x="617.67" y="-565.4" font-family="Times,serif" font-size="32.00">have</text>
<text text-anchor="middle" x="617.67" y="-530.4" font-family="Times,serif" font-size="32.00">=perf v</text>
</g>
</g>
</svg>
