<?xml version="1.0" encoding="UTF-8" standalone="no"?>
<!DOCTYPE svg PUBLIC "-//W3C//DTD SVG 1.1//EN"
 "http://www.w3.org/Graphics/SVG/1.1/DTD/svg11.dtd">
<!-- Generated by graphviz version 2.47.1 (20210417.1919)
 -->
<!-- Title: G Pages: 1 -->
<svg width="1622pt" height="1207pt"
 viewBox="0.00 0.00 1622.00 1207.12" xmlns="http://www.w3.org/2000/svg" xmlns:xlink="http://www.w3.org/1999/xlink">
<g id="graph0" class="graph" transform="scale(1 1) rotate(0) translate(4 1203.12)">
<title>G</title>
<polygon fill="white" stroke="transparent" points="-4,4 -4,-1203.12 1618,-1203.12 1618,4 -4,4"/>
<text text-anchor="middle" x="807" y="-13.4" font-family="Times,serif" font-size="32.00">single contraction: 1 → 2</text>
<!-- t -->
<g id="node1" class="node">
<title>t</title>
<ellipse fill="lightgray" stroke="black" cx="27" cy="-314.12" rx="27" ry="30.31"/>
<text text-anchor="middle" x="27" y="-306.02" font-family="Times,serif" font-size="32.00">t</text>
</g>
<!-- z0 -->
<g id="node2" class="node">
<title>z0</title>
<ellipse fill="none" stroke="black" stroke-dasharray="5,2" cx="1587" cy="-613.12" rx="27" ry="18"/>
</g>
<!-- d -->
<g id="node3" class="node">
<title>d</title>
<ellipse fill="none" stroke="black" cx="1427" cy="-613.12" rx="27" ry="30.31"/>
<text text-anchor="middle" x="1427" y="-605.02" font-family="Times,serif" font-size="32.00">d</text>
</g>
<!-- z0&#45;&gt;d -->
<g id="edge1" class="edge">
<title>z0&#45;&gt;d</title>
<path fill="none" stroke="#000000" d="M1559.91,-613.12C1533.84,-613.12 1493.53,-613.12 1464.34,-613.12"/>
<polygon fill="#000000" stroke="#000000" points="1464.13,-609.62 1454.13,-613.12 1464.13,-616.62 1464.13,-609.62"/>
<text text-anchor="middle" x="1507" y="-657.52" font-family="Times,serif" font-size="32.00">Mary</text>
<text text-anchor="middle" x="1507" y="-622.52" font-family="Times,serif" font-size="32.00">d &#45;k</text>
</g>
<!-- 0 -->
<g id="node4" class="node">
<title>0</title>
<ellipse fill="none" stroke="black" cx="1188" cy="-954.12" rx="27" ry="30.31"/>
<text text-anchor="middle" x="1188" y="-946.02" font-family="Times,serif" font-size="32.00">0</text>
</g>
<!-- d&#45;&gt;0 -->
<g id="edge9" class="edge">
<title>d&#45;&gt;0</title>
<path fill="none" stroke="#000000" d="M1418.58,-642.01C1411.84,-663.93 1400.13,-693.83 1382,-715.12 1331.09,-774.93 1280.52,-747.59 1233,-810.12 1209.98,-840.42 1198.91,-882.81 1193.65,-913.75"/>
<polygon fill="#000000" stroke="#000000" points="1190.17,-913.35 1192.08,-923.77 1197.08,-914.44 1190.17,-913.35"/>
<text text-anchor="middle" x="1307.5" y="-924.52" font-family="Times,serif" font-size="32.00">like |</text>
<text text-anchor="middle" x="1307.5" y="-889.52" font-family="Times,serif" font-size="32.00"> destroy |</text>
<text text-anchor="middle" x="1307.5" y="-854.52" font-family="Times,serif" font-size="32.00"> hug</text>
<text text-anchor="middle" x="1307.5" y="-819.52" font-family="Times,serif" font-size="32.00">=d *k 0</text>
</g>
<!-- 1 -->
<g id="node6" class="node">
<title>1</title>
<ellipse fill="none" stroke="black" cx="1188" cy="-219.12" rx="27" ry="30.31"/>
<text text-anchor="middle" x="1188" y="-211.02" font-family="Times,serif" font-size="32.00">1</text>
</g>
<!-- d&#45;&gt;1 -->
<g id="edge10" class="edge">
<title>d&#45;&gt;1</title>
<path fill="none" stroke="#000000" d="M1424.73,-582.5C1421.64,-524.1 1411.68,-400.02 1382,-371.12 1333.99,-324.38 1284.35,-391.17 1233,-348.12 1207.08,-326.39 1196.39,-288.71 1192,-259.66"/>
<polygon fill="#000000" stroke="#000000" points="1195.42,-258.86 1190.65,-249.4 1188.48,-259.77 1195.42,-258.86"/>
<text text-anchor="middle" x="1307.5" y="-485.52" font-family="Times,serif" font-size="32.00">lik |</text>
<text text-anchor="middle" x="1307.5" y="-450.52" font-family="Times,serif" font-size="32.00"> destroy_1 |</text>
<text text-anchor="middle" x="1307.5" y="-415.52" font-family="Times,serif" font-size="32.00"> hugg</text>
<text text-anchor="middle" x="1307.5" y="-380.52" font-family="Times,serif" font-size="32.00">=d *k 1</text>
</g>
<!-- v -->
<g id="node8" class="node">
<title>v</title>
<ellipse fill="none" stroke="black" cx="248.5" cy="-467.12" rx="27" ry="30.31"/>
<text text-anchor="middle" x="248.5" y="-459.02" font-family="Times,serif" font-size="32.00">v</text>
</g>
<!-- d&#45;&gt;v -->
<g id="edge6" class="edge">
<title>d&#45;&gt;v</title>
<path fill="none" stroke="#000000" d="M1403.17,-627.85C1362.07,-652.9 1272.17,-701.12 1189,-701.12 1189,-701.12 1189,-701.12 561,-701.12 428.57,-701.12 316.5,-564.25 271.11,-499.87"/>
<polygon fill="#000000" stroke="#000000" points="273.73,-497.5 265.15,-491.28 267.98,-501.49 273.73,-497.5"/>
<text text-anchor="middle" x="888" y="-920.52" font-family="Times,serif" font-size="32.00">dance_1 |</text>
<text text-anchor="middle" x="888" y="-885.52" font-family="Times,serif" font-size="32.00"> smile_1 |</text>
<text text-anchor="middle" x="888" y="-850.52" font-family="Times,serif" font-size="32.00"> jump_2 |</text>
<text text-anchor="middle" x="888" y="-815.52" font-family="Times,serif" font-size="32.00"> laugh_2 |</text>
<text text-anchor="middle" x="888" y="-780.52" font-family="Times,serif" font-size="32.00"> brag_1 |</text>
<text text-anchor="middle" x="888" y="-745.52" font-family="Times,serif" font-size="32.00"> jog_1</text>
<text text-anchor="middle" x="888" y="-710.52" font-family="Times,serif" font-size="32.00">=d v</text>
</g>
<!-- d&#45;&gt;v -->
<g id="edge11" class="edge">
<title>d&#45;&gt;v</title>
<path fill="none" stroke="#000000" d="M1403.17,-598.39C1362.07,-573.34 1272.17,-525.12 1189,-525.12 1189,-525.12 1189,-525.12 561,-525.12 459.03,-525.12 341.41,-494.71 284.26,-477.93"/>
<polygon fill="#000000" stroke="#000000" points="285.23,-474.57 274.64,-475.07 283.23,-481.27 285.23,-474.57"/>
<text text-anchor="middle" x="888" y="-639.52" font-family="Times,serif" font-size="32.00">like_1 |</text>
<text text-anchor="middle" x="888" y="-604.52" font-family="Times,serif" font-size="32.00"> destroy_2 |</text>
<text text-anchor="middle" x="888" y="-569.52" font-family="Times,serif" font-size="32.00"> hug_1</text>
<text text-anchor="middle" x="888" y="-534.52" font-family="Times,serif" font-size="32.00">=d *k =d v</text>
</g>
<!-- 0&#45;&gt;t -->
<g id="edge2" class="edge">
<title>0&#45;&gt;t</title>
<path fill="none" stroke="#000000" d="M1160.73,-957.07C1108.86,-962.64 989.59,-974.12 889,-974.12 889,-974.12 889,-974.12 247.5,-974.12 116.15,-974.12 49.52,-497.47 32.48,-354.31"/>
<polygon fill="#000000" stroke="#000000" points="35.93,-353.72 31.29,-344.2 28.98,-354.54 35.93,-353.72"/>
<text text-anchor="middle" x="562" y="-1018.52" font-family="Times,serif" font-size="32.00">s</text>
<text text-anchor="middle" x="562" y="-983.52" font-family="Times,serif" font-size="32.00">=&gt;0 =d +k t</text>
</g>
<!-- z1 -->
<g id="node5" class="node">
<title>z1</title>
<ellipse fill="none" stroke="black" stroke-dasharray="5,2" cx="1427" cy="-954.12" rx="27" ry="18"/>
</g>
<!-- z1&#45;&gt;0 -->
<g id="edge3" class="edge">
<title>z1&#45;&gt;0</title>
<path fill="none" stroke="#000000" d="M1399.73,-954.12C1357.27,-954.12 1273.45,-954.12 1225.3,-954.12"/>
<polygon fill="#000000" stroke="#000000" points="1225.03,-950.62 1215.03,-954.12 1225.03,-957.62 1225.03,-950.62"/>
<text text-anchor="middle" x="1307.5" y="-1173.52" font-family="Times,serif" font-size="32.00">dance |</text>
<text text-anchor="middle" x="1307.5" y="-1138.52" font-family="Times,serif" font-size="32.00"> smile |</text>
<text text-anchor="middle" x="1307.5" y="-1103.52" font-family="Times,serif" font-size="32.00"> jump |</text>
<text text-anchor="middle" x="1307.5" y="-1068.52" font-family="Times,serif" font-size="32.00"> laugh |</text>
<text text-anchor="middle" x="1307.5" y="-1033.52" font-family="Times,serif" font-size="32.00"> brag |</text>
<text text-anchor="middle" x="1307.5" y="-998.52" font-family="Times,serif" font-size="32.00"> jog</text>
<text text-anchor="middle" x="1307.5" y="-963.52" font-family="Times,serif" font-size="32.00">0</text>
</g>
<!-- 1&#45;&gt;t -->
<g id="edge4" class="edge">
<title>1&#45;&gt;t</title>
<path fill="none" stroke="#000000" d="M1164.74,-202.79C1116.89,-169.33 999.54,-96.12 889,-96.12 889,-96.12 889,-96.12 247.5,-96.12 145.58,-96.12 74.15,-215.9 44.01,-277.89"/>
<polygon fill="#000000" stroke="#000000" points="40.84,-276.42 39.7,-286.95 47.16,-279.43 40.84,-276.42"/>
<text text-anchor="middle" x="562" y="-140.52" font-family="Times,serif" font-size="32.00">ed</text>
<text text-anchor="middle" x="562" y="-105.52" font-family="Times,serif" font-size="32.00">=&gt;1 =d +k t</text>
</g>
<!-- prog -->
<g id="node9" class="node">
<title>prog</title>
<ellipse fill="none" stroke="black" cx="888" cy="-337.12" rx="52.15" ry="30.31"/>
<text text-anchor="middle" x="888" y="-329.02" font-family="Times,serif" font-size="32.00">prog</text>
</g>
<!-- 1&#45;&gt;prog -->
<g id="edge7" class="edge">
<title>1&#45;&gt;prog</title>
<path fill="none" stroke="#000000" d="M1162.36,-228.88C1114.08,-248 1006.09,-290.76 941.23,-316.44"/>
<polygon fill="#000000" stroke="#000000" points="939.6,-313.32 931.59,-320.26 942.18,-319.83 939.6,-313.32"/>
<text text-anchor="middle" x="1063" y="-343.52" font-family="Times,serif" font-size="32.00">ing</text>
<text text-anchor="middle" x="1063" y="-308.52" font-family="Times,serif" font-size="32.00">=&gt;1 =d prog</text>
</g>
<!-- perf -->
<g id="node10" class="node">
<title>perf</title>
<ellipse fill="none" stroke="black" cx="562" cy="-325.12" rx="48.17" ry="30.31"/>
<text text-anchor="middle" x="562" y="-317.02" font-family="Times,serif" font-size="32.00">perf</text>
</g>
<!-- 1&#45;&gt;perf -->
<g id="edge8" class="edge">
<title>1&#45;&gt;perf</title>
<path fill="none" stroke="#000000" d="M1160.67,-216.65C1098.87,-211.51 939.99,-202.19 811,-228.12 737.34,-242.93 657.25,-278.03 608.58,-301.69"/>
<polygon fill="#000000" stroke="#000000" points="607.01,-298.57 599.58,-306.12 610.09,-304.85 607.01,-298.57"/>
<text text-anchor="middle" x="888" y="-272.52" font-family="Times,serif" font-size="32.00">ed_1</text>
<text text-anchor="middle" x="888" y="-237.52" font-family="Times,serif" font-size="32.00">=&gt;1 =d perf</text>
</g>
<!-- z2 -->
<g id="node7" class="node">
<title>z2</title>
<ellipse fill="none" stroke="black" stroke-dasharray="5,2" cx="1427" cy="-102.12" rx="27" ry="18"/>
</g>
<!-- z2&#45;&gt;1 -->
<g id="edge5" class="edge">
<title>z2&#45;&gt;1</title>
<path fill="none" stroke="#000000" d="M1402.4,-94.43C1363.31,-83.25 1284.34,-67.49 1233,-103.12 1208.55,-120.09 1197.68,-152.53 1192.85,-178.8"/>
<polygon fill="#000000" stroke="#000000" points="1189.36,-178.46 1191.22,-188.88 1196.27,-179.57 1189.36,-178.46"/>
<text text-anchor="middle" x="1307.5" y="-322.52" font-family="Times,serif" font-size="32.00">danc |</text>
<text text-anchor="middle" x="1307.5" y="-287.52" font-family="Times,serif" font-size="32.00"> smil |</text>
<text text-anchor="middle" x="1307.5" y="-252.52" font-family="Times,serif" font-size="32.00"> jump_1 |</text>
<text text-anchor="middle" x="1307.5" y="-217.52" font-family="Times,serif" font-size="32.00"> laugh_1 |</text>
<text text-anchor="middle" x="1307.5" y="-182.52" font-family="Times,serif" font-size="32.00"> bragg |</text>
<text text-anchor="middle" x="1307.5" y="-147.52" font-family="Times,serif" font-size="32.00"> jogg</text>
<text text-anchor="middle" x="1307.5" y="-112.52" font-family="Times,serif" font-size="32.00">1</text>
</g>
<!-- v&#45;&gt;t -->
<g id="edge12" class="edge">
<title>v&#45;&gt;t</title>
<path fill="none" stroke="#000000" d="M225.15,-451.67C212.98,-443.24 197.65,-432.62 184,-423.12 140.49,-392.85 90.26,-357.72 58.81,-335.7"/>
<polygon fill="#000000" stroke="#000000" points="60.66,-332.72 50.46,-329.85 56.64,-338.46 60.66,-332.72"/>
<text text-anchor="middle" x="119" y="-488.52" font-family="Times,serif" font-size="32.00">will |</text>
<text text-anchor="middle" x="119" y="-453.52" font-family="Times,serif" font-size="32.00"> would</text>
<text text-anchor="middle" x="119" y="-418.52" font-family="Times,serif" font-size="32.00">=v +k t</text>
</g>
<!-- prog&#45;&gt;t -->
<g id="edge15" class="edge">
<title>prog&#45;&gt;t</title>
<path fill="none" stroke="#000000" d="M844.4,-319.95C769.55,-290.8 608.91,-232.79 467,-212.12 407.19,-203.41 390.65,-202.35 331,-212.12 229.72,-228.71 116.68,-274.55 61.7,-298.73"/>
<polygon fill="#000000" stroke="#000000" points="60.16,-295.58 52.44,-302.84 63,-301.98 60.16,-295.58"/>
<text text-anchor="middle" x="399" y="-291.52" font-family="Times,serif" font-size="32.00">is |</text>
<text text-anchor="middle" x="399" y="-256.52" font-family="Times,serif" font-size="32.00"> was</text>
<text text-anchor="middle" x="399" y="-221.52" font-family="Times,serif" font-size="32.00">=prog +k t</text>
</g>
<!-- prog&#45;&gt;v -->
<g id="edge16" class="edge">
<title>prog&#45;&gt;v</title>
<path fill="none" stroke="#000000" d="M860.66,-363.26C843.04,-379.06 818.48,-398.04 793,-408.12 664.99,-458.78 621.87,-426.24 485,-441.12 414.44,-448.8 332,-457.94 285.76,-463.08"/>
<polygon fill="#000000" stroke="#000000" points="285.19,-459.63 275.63,-464.21 285.96,-466.58 285.19,-459.63"/>
<text text-anchor="middle" x="562" y="-485.52" font-family="Times,serif" font-size="32.00">be</text>
<text text-anchor="middle" x="562" y="-450.52" font-family="Times,serif" font-size="32.00">=prog v</text>
</g>
<!-- prog&#45;&gt;perf -->
<g id="edge17" class="edge">
<title>prog&#45;&gt;perf</title>
<path fill="none" stroke="#000000" d="M835.66,-335.22C777.05,-333.05 681.41,-329.51 620.38,-327.25"/>
<polygon fill="#000000" stroke="#000000" points="620.27,-323.74 610.15,-326.87 620.01,-330.74 620.27,-323.74"/>
<text text-anchor="middle" x="725" y="-378.52" font-family="Times,serif" font-size="32.00">been</text>
<text text-anchor="middle" x="725" y="-343.52" font-family="Times,serif" font-size="32.00">=prog perf</text>
</g>
<!-- perf&#45;&gt;t -->
<g id="edge13" class="edge">
<title>perf&#45;&gt;t</title>
<path fill="none" stroke="#000000" d="M513.7,-324.15C408.7,-321.98 158.05,-316.81 64.25,-314.87"/>
<polygon fill="#000000" stroke="#000000" points="64.2,-311.37 54.13,-314.66 64.05,-318.37 64.2,-311.37"/>
<text text-anchor="middle" x="248.5" y="-399.52" font-family="Times,serif" font-size="32.00">has |</text>
<text text-anchor="middle" x="248.5" y="-364.52" font-family="Times,serif" font-size="32.00"> had</text>
<text text-anchor="middle" x="248.5" y="-329.52" font-family="Times,serif" font-size="32.00">=perf +k t</text>
</g>
<!-- perf&#45;&gt;v -->
<g id="edge14" class="edge">
<title>perf&#45;&gt;v</title>
<path fill="none" stroke="#000000" d="M513.97,-326.95C450.69,-329.83 344.47,-336.37 331,-348.12 305.17,-370.66 332.36,-394.83 313,-423.12 305.29,-434.39 293.67,-443.65 282.47,-450.72"/>
<polygon fill="#000000" stroke="#000000" points="280.5,-447.83 273.66,-455.92 284.05,-453.85 280.5,-447.83"/>
<text text-anchor="middle" x="399" y="-392.52" font-family="Times,serif" font-size="32.00">have</text>
<text text-anchor="middle" x="399" y="-357.52" font-family="Times,serif" font-size="32.00">=perf v</text>
</g>
</g>
</svg>
