<?xml version="1.0" encoding="UTF-8" standalone="no"?>
<!DOCTYPE svg PUBLIC "-//W3C//DTD SVG 1.1//EN"
 "http://www.w3.org/Graphics/SVG/1.1/DTD/svg11.dtd">
<!-- Generated by graphviz version 2.47.1 (20210417.1919)
 -->
<!-- Title: G Pages: 1 -->
<svg width="1695pt" height="1414pt"
 viewBox="0.00 0.00 1695.00 1414.37" xmlns="http://www.w3.org/2000/svg" xmlns:xlink="http://www.w3.org/1999/xlink">
<g id="graph0" class="graph" transform="scale(1 1) rotate(0) translate(4 1410.37)">
<title>G</title>
<polygon fill="white" stroke="transparent" points="-4,4 -4,-1410.37 1691,-1410.37 1691,4 -4,4"/>
<text text-anchor="middle" x="843.5" y="-13.4" font-family="Times,serif" font-size="32.00">decomposition: like =d *k 0, like =d *k =d v</text>
<!-- t -->
<g id="node1" class="node">
<title>t</title>
<ellipse fill="lightgray" stroke="black" cx="27" cy="-386.37" rx="27" ry="30.31"/>
<text text-anchor="middle" x="27" y="-378.27" font-family="Times,serif" font-size="32.00">t</text>
</g>
<!-- z0 -->
<g id="node2" class="node">
<title>z0</title>
<ellipse fill="none" stroke="black" stroke-dasharray="5,2" cx="1660" cy="-806.37" rx="27" ry="18"/>
</g>
<!-- d -->
<g id="node3" class="node">
<title>d</title>
<ellipse fill="none" stroke="black" cx="1500" cy="-806.37" rx="27" ry="30.31"/>
<text text-anchor="middle" x="1500" y="-798.27" font-family="Times,serif" font-size="32.00">d</text>
</g>
<!-- z0&#45;&gt;d -->
<g id="edge1" class="edge">
<title>z0&#45;&gt;d</title>
<path fill="none" stroke="#000000" d="M1632.91,-806.37C1606.84,-806.37 1566.53,-806.37 1537.34,-806.37"/>
<polygon fill="#000000" stroke="#000000" points="1537.13,-802.87 1527.13,-806.37 1537.13,-809.87 1537.13,-802.87"/>
<text text-anchor="middle" x="1580" y="-850.77" font-family="Times,serif" font-size="32.00">Mary</text>
<text text-anchor="middle" x="1580" y="-815.77" font-family="Times,serif" font-size="32.00">d &#45;k</text>
</g>
<!-- 0 -->
<g id="node4" class="node">
<title>0</title>
<ellipse fill="none" stroke="black" cx="906" cy="-1049.37" rx="27" ry="30.31"/>
<text text-anchor="middle" x="906" y="-1041.27" font-family="Times,serif" font-size="32.00">0</text>
</g>
<!-- d&#45;&gt;0 -->
<g id="edge13" class="edge">
<title>d&#45;&gt;0</title>
<path fill="none" stroke="#000000" d="M1499.89,-837.08C1499.23,-874.78 1492.14,-938.18 1455,-974.37 1358.89,-1068.06 1294.13,-1026.37 1161,-1043.37 1083.96,-1053.22 992.73,-1052.36 943.28,-1050.86"/>
<polygon fill="#000000" stroke="#000000" points="943.2,-1047.36 933.09,-1050.53 942.97,-1054.36 943.2,-1047.36"/>
<text text-anchor="middle" x="1233.5" y="-1119.77" font-family="Times,serif" font-size="32.00">destroy |</text>
<text text-anchor="middle" x="1233.5" y="-1084.77" font-family="Times,serif" font-size="32.00"> hug</text>
<text text-anchor="middle" x="1233.5" y="-1049.77" font-family="Times,serif" font-size="32.00">=d *k 0</text>
</g>
<!-- 1 -->
<g id="node6" class="node">
<title>1</title>
<ellipse fill="none" stroke="black" cx="1233.5" cy="-301.37" rx="27" ry="30.31"/>
<text text-anchor="middle" x="1233.5" y="-293.27" font-family="Times,serif" font-size="32.00">1</text>
</g>
<!-- d&#45;&gt;1 -->
<g id="edge11" class="edge">
<title>d&#45;&gt;1</title>
<path fill="none" stroke="#000000" d="M1498.04,-775.83C1494.78,-681.7 1482.79,-400.66 1455,-371.37 1408.88,-322.77 1368.54,-372.44 1306,-348.37 1291.13,-342.65 1276.17,-333.48 1263.81,-324.74"/>
<polygon fill="#000000" stroke="#000000" points="1265.83,-321.89 1255.69,-318.82 1261.7,-327.54 1265.83,-321.89"/>
<text text-anchor="middle" x="1380.5" y="-485.77" font-family="Times,serif" font-size="32.00">lik |</text>
<text text-anchor="middle" x="1380.5" y="-450.77" font-family="Times,serif" font-size="32.00"> destroy_1 |</text>
<text text-anchor="middle" x="1380.5" y="-415.77" font-family="Times,serif" font-size="32.00"> hugg</text>
<text text-anchor="middle" x="1380.5" y="-380.77" font-family="Times,serif" font-size="32.00">=d *k 1</text>
</g>
<!-- v -->
<g id="node8" class="node">
<title>v</title>
<ellipse fill="none" stroke="black" cx="248.5" cy="-539.37" rx="27" ry="30.31"/>
<text text-anchor="middle" x="248.5" y="-531.27" font-family="Times,serif" font-size="32.00">v</text>
</g>
<!-- d&#45;&gt;v -->
<g id="edge6" class="edge">
<title>d&#45;&gt;v</title>
<path fill="none" stroke="#000000" d="M1488.57,-778.66C1459.89,-707.77 1372.68,-525.37 1234.5,-525.37 1234.5,-525.37 1234.5,-525.37 579,-525.37 472.32,-525.37 346.39,-532.79 285.74,-536.83"/>
<polygon fill="#000000" stroke="#000000" points="285.28,-533.35 275.54,-537.52 285.75,-540.33 285.28,-533.35"/>
<text text-anchor="middle" x="906" y="-744.77" font-family="Times,serif" font-size="32.00">dance_1 |</text>
<text text-anchor="middle" x="906" y="-709.77" font-family="Times,serif" font-size="32.00"> smile_1 |</text>
<text text-anchor="middle" x="906" y="-674.77" font-family="Times,serif" font-size="32.00"> jump_2 |</text>
<text text-anchor="middle" x="906" y="-639.77" font-family="Times,serif" font-size="32.00"> laugh_2 |</text>
<text text-anchor="middle" x="906" y="-604.77" font-family="Times,serif" font-size="32.00"> brag_1 |</text>
<text text-anchor="middle" x="906" y="-569.77" font-family="Times,serif" font-size="32.00"> jog_1</text>
<text text-anchor="middle" x="906" y="-534.77" font-family="Times,serif" font-size="32.00">=d v</text>
</g>
<!-- d&#45;&gt;v -->
<g id="edge14" class="edge">
<title>d&#45;&gt;v</title>
<path fill="none" stroke="#000000" d="M1472.72,-806.37C1425.19,-806.37 1321.75,-806.37 1234.5,-806.37 1234.5,-806.37 1234.5,-806.37 579,-806.37 432.49,-806.37 314.66,-645.05 269.45,-573.2"/>
<polygon fill="#000000" stroke="#000000" points="272.29,-571.15 264.05,-564.49 266.34,-574.84 272.29,-571.15"/>
<text text-anchor="middle" x="906" y="-885.77" font-family="Times,serif" font-size="32.00">destroy_2 |</text>
<text text-anchor="middle" x="906" y="-850.77" font-family="Times,serif" font-size="32.00"> hug_1</text>
<text text-anchor="middle" x="906" y="-815.77" font-family="Times,serif" font-size="32.00">=d *k =d v</text>
</g>
<!-- 2 -->
<g id="node11" class="node">
<title>2</title>
<ellipse fill="none" stroke="black" cx="1233.5" cy="-939.37" rx="27" ry="30.31"/>
<text text-anchor="middle" x="1233.5" y="-931.27" font-family="Times,serif" font-size="32.00">2</text>
</g>
<!-- d&#45;&gt;2 -->
<g id="edge10" class="edge">
<title>d&#45;&gt;2</title>
<path fill="none" stroke="#f7931d" stroke-width="2" d="M1475.06,-818.41C1427.68,-842.24 1321.84,-895.45 1267.74,-922.66"/>
<polygon fill="#f7931d" stroke="#f7931d" stroke-width="2" points="1265.94,-919.65 1258.58,-927.27 1269.08,-925.9 1265.94,-919.65"/>
<text text-anchor="middle" x="1380.5" y="-944.77" font-family="Times,serif" font-size="32.00">like</text>
<text text-anchor="middle" x="1380.5" y="-909.77" font-family="Times,serif" font-size="32.00">=d *k 2</text>
</g>
<!-- 0&#45;&gt;t -->
<g id="edge2" class="edge">
<title>0&#45;&gt;t</title>
<path fill="none" stroke="#000000" d="M878.97,-1046.47C793.49,-1035.89 516.31,-993.19 331,-867.37 191.56,-772.7 150.15,-739.71 72,-590.37 44.61,-538.03 34.26,-469.61 30.36,-426.82"/>
<polygon fill="#000000" stroke="#000000" points="33.84,-426.46 29.52,-416.78 26.86,-427.04 33.84,-426.46"/>
<text text-anchor="middle" x="408" y="-990.77" font-family="Times,serif" font-size="32.00">s</text>
<text text-anchor="middle" x="408" y="-955.77" font-family="Times,serif" font-size="32.00">=&gt;0 =d +k t</text>
</g>
<!-- z1 -->
<g id="node5" class="node">
<title>z1</title>
<ellipse fill="none" stroke="black" stroke-dasharray="5,2" cx="1233.5" cy="-1198.37" rx="27" ry="18"/>
</g>
<!-- z1&#45;&gt;0 -->
<g id="edge3" class="edge">
<title>z1&#45;&gt;0</title>
<path fill="none" stroke="#000000" d="M1210.89,-1188.48C1155.4,-1163.08 1007.59,-1095.42 940.71,-1064.8"/>
<polygon fill="#000000" stroke="#000000" points="942,-1061.54 931.45,-1060.56 939.08,-1067.91 942,-1061.54"/>
<text text-anchor="middle" x="1081" y="-1380.77" font-family="Times,serif" font-size="32.00">dance |</text>
<text text-anchor="middle" x="1081" y="-1345.77" font-family="Times,serif" font-size="32.00"> smile |</text>
<text text-anchor="middle" x="1081" y="-1310.77" font-family="Times,serif" font-size="32.00"> jump |</text>
<text text-anchor="middle" x="1081" y="-1275.77" font-family="Times,serif" font-size="32.00"> laugh |</text>
<text text-anchor="middle" x="1081" y="-1240.77" font-family="Times,serif" font-size="32.00"> brag |</text>
<text text-anchor="middle" x="1081" y="-1205.77" font-family="Times,serif" font-size="32.00"> jog</text>
<text text-anchor="middle" x="1081" y="-1170.77" font-family="Times,serif" font-size="32.00">0</text>
</g>
<!-- 1&#45;&gt;t -->
<g id="edge4" class="edge">
<title>1&#45;&gt;t</title>
<path fill="none" stroke="#000000" d="M1211.73,-282.94C1162.55,-241.26 1033.57,-143.37 907,-143.37 907,-143.37 907,-143.37 247.5,-143.37 138.05,-143.37 69.07,-280.82 41.6,-348.97"/>
<polygon fill="#000000" stroke="#000000" points="38.26,-347.91 37.85,-358.5 44.77,-350.48 38.26,-347.91"/>
<text text-anchor="middle" x="580" y="-187.77" font-family="Times,serif" font-size="32.00">ed</text>
<text text-anchor="middle" x="580" y="-152.77" font-family="Times,serif" font-size="32.00">=&gt;1 =d +k t</text>
</g>
<!-- prog -->
<g id="node9" class="node">
<title>prog</title>
<ellipse fill="none" stroke="black" cx="906" cy="-301.37" rx="52.15" ry="30.31"/>
<text text-anchor="middle" x="906" y="-293.27" font-family="Times,serif" font-size="32.00">prog</text>
</g>
<!-- 1&#45;&gt;prog -->
<g id="edge7" class="edge">
<title>1&#45;&gt;prog</title>
<path fill="none" stroke="#000000" d="M1206.41,-301.37C1155.22,-301.37 1040.38,-301.37 968.74,-301.37"/>
<polygon fill="#000000" stroke="#000000" points="968.49,-297.87 958.49,-301.37 968.49,-304.87 968.49,-297.87"/>
<text text-anchor="middle" x="1081" y="-345.77" font-family="Times,serif" font-size="32.00">ing</text>
<text text-anchor="middle" x="1081" y="-310.77" font-family="Times,serif" font-size="32.00">=&gt;1 =d prog</text>
</g>
<!-- perf -->
<g id="node10" class="node">
<title>perf</title>
<ellipse fill="none" stroke="black" cx="580" cy="-419.37" rx="48.17" ry="30.31"/>
<text text-anchor="middle" x="580" y="-411.27" font-family="Times,serif" font-size="32.00">perf</text>
</g>
<!-- 1&#45;&gt;perf -->
<g id="edge8" class="edge">
<title>1&#45;&gt;perf</title>
<path fill="none" stroke="#000000" d="M1216.49,-325.49C1203.68,-342.6 1184.07,-364.4 1161,-375.37 1069.75,-418.78 766.72,-421.21 638.79,-420.21"/>
<polygon fill="#000000" stroke="#000000" points="638.46,-416.7 628.42,-420.11 638.39,-423.7 638.46,-416.7"/>
<text text-anchor="middle" x="906" y="-462.77" font-family="Times,serif" font-size="32.00">ed_1</text>
<text text-anchor="middle" x="906" y="-427.77" font-family="Times,serif" font-size="32.00">=&gt;1 =d perf</text>
</g>
<!-- z2 -->
<g id="node7" class="node">
<title>z2</title>
<ellipse fill="none" stroke="black" stroke-dasharray="5,2" cx="1500" cy="-102.37" rx="27" ry="18"/>
</g>
<!-- z2&#45;&gt;1 -->
<g id="edge5" class="edge">
<title>z2&#45;&gt;1</title>
<path fill="none" stroke="#000000" d="M1475.34,-94.59C1436.15,-83.27 1357.05,-67.33 1306,-103.37 1255.48,-139.04 1240.51,-214.06 1236.16,-260.83"/>
<polygon fill="#000000" stroke="#000000" points="1232.66,-260.67 1235.35,-270.92 1239.64,-261.24 1232.66,-260.67"/>
<text text-anchor="middle" x="1380.5" y="-322.77" font-family="Times,serif" font-size="32.00">danc |</text>
<text text-anchor="middle" x="1380.5" y="-287.77" font-family="Times,serif" font-size="32.00"> smil |</text>
<text text-anchor="middle" x="1380.5" y="-252.77" font-family="Times,serif" font-size="32.00"> jump_1 |</text>
<text text-anchor="middle" x="1380.5" y="-217.77" font-family="Times,serif" font-size="32.00"> laugh_1 |</text>
<text text-anchor="middle" x="1380.5" y="-182.77" font-family="Times,serif" font-size="32.00"> bragg |</text>
<text text-anchor="middle" x="1380.5" y="-147.77" font-family="Times,serif" font-size="32.00"> jogg</text>
<text text-anchor="middle" x="1380.5" y="-112.77" font-family="Times,serif" font-size="32.00">1</text>
</g>
<!-- v&#45;&gt;t -->
<g id="edge15" class="edge">
<title>v&#45;&gt;t</title>
<path fill="none" stroke="#000000" d="M225.15,-523.92C212.98,-515.49 197.65,-504.87 184,-495.37 140.49,-465.1 90.26,-429.97 58.81,-407.95"/>
<polygon fill="#000000" stroke="#000000" points="60.66,-404.97 50.46,-402.11 56.64,-410.71 60.66,-404.97"/>
<text text-anchor="middle" x="119" y="-560.77" font-family="Times,serif" font-size="32.00">will |</text>
<text text-anchor="middle" x="119" y="-525.77" font-family="Times,serif" font-size="32.00"> would</text>
<text text-anchor="middle" x="119" y="-490.77" font-family="Times,serif" font-size="32.00">=v +k t</text>
</g>
<!-- prog&#45;&gt;t -->
<g id="edge18" class="edge">
<title>prog&#45;&gt;t</title>
<path fill="none" stroke="#000000" d="M866.2,-281.43C849.63,-273.83 829.79,-265.9 811,-261.37 707.18,-236.37 435.05,-214.32 331,-238.37 224.51,-262.99 112.19,-330.42 59.18,-365.12"/>
<polygon fill="#000000" stroke="#000000" points="57,-362.37 50.59,-370.8 60.86,-368.21 57,-362.37"/>
<text text-anchor="middle" x="408" y="-317.77" font-family="Times,serif" font-size="32.00">is |</text>
<text text-anchor="middle" x="408" y="-282.77" font-family="Times,serif" font-size="32.00"> was</text>
<text text-anchor="middle" x="408" y="-247.77" font-family="Times,serif" font-size="32.00">=prog +k t</text>
</g>
<!-- prog&#45;&gt;v -->
<g id="edge19" class="edge">
<title>prog&#45;&gt;v</title>
<path fill="none" stroke="#000000" d="M858.68,-288.03C778.93,-267.96 613.62,-239.44 503,-310.37 487.61,-320.25 498.69,-335.25 485,-347.37 430.81,-395.36 378.26,-345.55 331,-400.37 302.37,-433.59 337.21,-460.82 313,-497.37 305.57,-508.59 294.01,-517.53 282.78,-524.23"/>
<polygon fill="#000000" stroke="#000000" points="280.99,-521.22 273.93,-529.12 284.37,-527.34 280.99,-521.22"/>
<text text-anchor="middle" x="580" y="-354.77" font-family="Times,serif" font-size="32.00">be</text>
<text text-anchor="middle" x="580" y="-319.77" font-family="Times,serif" font-size="32.00">=prog v</text>
</g>
<!-- prog&#45;&gt;perf -->
<g id="edge20" class="edge">
<title>prog&#45;&gt;perf</title>
<path fill="none" stroke="#000000" d="M854.57,-307.59C789.04,-315.84 682.11,-330 675,-335.37 659.45,-347.13 670.06,-360.91 657,-375.37 649.18,-384.04 639.23,-391.46 629.14,-397.6"/>
<polygon fill="#000000" stroke="#000000" points="627.22,-394.66 620.28,-402.67 630.7,-400.74 627.22,-394.66"/>
<text text-anchor="middle" x="743" y="-379.77" font-family="Times,serif" font-size="32.00">been</text>
<text text-anchor="middle" x="743" y="-344.77" font-family="Times,serif" font-size="32.00">=prog perf</text>
</g>
<!-- perf&#45;&gt;t -->
<g id="edge16" class="edge">
<title>perf&#45;&gt;t</title>
<path fill="none" stroke="#000000" d="M534.78,-408.84C519.14,-405.54 501.37,-402.27 485,-400.37 329.3,-382.38 141.89,-383.82 64.33,-385.41"/>
<polygon fill="#000000" stroke="#000000" points="64.05,-381.92 54.13,-385.64 64.21,-388.92 64.05,-381.92"/>
<text text-anchor="middle" x="248.5" y="-467.77" font-family="Times,serif" font-size="32.00">has |</text>
<text text-anchor="middle" x="248.5" y="-432.77" font-family="Times,serif" font-size="32.00"> had</text>
<text text-anchor="middle" x="248.5" y="-397.77" font-family="Times,serif" font-size="32.00">=perf +k t</text>
</g>
<!-- perf&#45;&gt;v -->
<g id="edge17" class="edge">
<title>perf&#45;&gt;v</title>
<path fill="none" stroke="#000000" d="M534.31,-409.88C480.16,-401.13 388.99,-395.55 331,-441.37 311.15,-457.06 328.17,-475.13 313,-495.37 304.87,-506.21 293.28,-515.35 282.21,-522.44"/>
<polygon fill="#000000" stroke="#000000" points="280.28,-519.51 273.53,-527.68 283.9,-525.51 280.28,-519.51"/>
<text text-anchor="middle" x="408" y="-485.77" font-family="Times,serif" font-size="32.00">have</text>
<text text-anchor="middle" x="408" y="-450.77" font-family="Times,serif" font-size="32.00">=perf v</text>
</g>
<!-- 2&#45;&gt;0 -->
<g id="edge9" class="edge">
<title>2&#45;&gt;0</title>
<path fill="none" stroke="#f7931d" stroke-width="2" d="M1206.7,-943.41C1193.1,-945.52 1176.16,-948.12 1161,-950.37 1089.94,-960.95 1066.85,-944.65 1001,-973.37 975.48,-984.51 951.16,-1004.52 933.66,-1021.21"/>
<polygon fill="#f7931d" stroke="#f7931d" stroke-width="2" points="930.81,-1019.1 926.11,-1028.6 935.7,-1024.1 930.81,-1019.1"/>
<text text-anchor="middle" x="1081" y="-1017.77" font-family="Times,serif" font-size="32.00">ε_0</text>
<text text-anchor="middle" x="1081" y="-982.77" font-family="Times,serif" font-size="32.00">=&gt;2 0</text>
</g>
<!-- 2&#45;&gt;v -->
<g id="edge12" class="edge">
<title>2&#45;&gt;v</title>
<path fill="none" stroke="#f7931d" stroke-width="2" d="M1206.41,-939.77C1072.52,-941.27 463.79,-941.26 331,-820.37 262.47,-757.99 250.22,-641.8 248.85,-580.19"/>
<polygon fill="#f7931d" stroke="#f7931d" stroke-width="2" points="252.34,-580.01 248.71,-570.06 245.34,-580.11 252.34,-580.01"/>
<text text-anchor="middle" x="743" y="-972.77" font-family="Times,serif" font-size="32.00">ε_1</text>
<text text-anchor="middle" x="743" y="-937.77" font-family="Times,serif" font-size="32.00">=&gt;2 =d v</text>
</g>
</g>
</svg>
