<?xml version="1.0" encoding="UTF-8" standalone="no"?>
<!DOCTYPE svg PUBLIC "-//W3C//DTD SVG 1.1//EN"
 "http://www.w3.org/Graphics/SVG/1.1/DTD/svg11.dtd">
<!-- Generated by graphviz version 2.47.1 (20210417.1919)
 -->
<!-- Title: G Pages: 1 -->
<svg width="1647pt" height="1264pt"
 viewBox="0.00 0.00 1647.00 1264.46" xmlns="http://www.w3.org/2000/svg" xmlns:xlink="http://www.w3.org/1999/xlink">
<g id="graph0" class="graph" transform="scale(1 1) rotate(0) translate(4 1260.46)">
<title>G</title>
<polygon fill="white" stroke="transparent" points="-4,4 -4,-1260.46 1643,-1260.46 1643,4 -4,4"/>
<text text-anchor="middle" x="819.5" y="-13.4" font-family="Times,serif" font-size="32.00">single contraction: 2 → 0</text>
<!-- t -->
<g id="node1" class="node">
<title>t</title>
<ellipse fill="lightgray" stroke="black" cx="27" cy="-366.46" rx="27" ry="30.31"/>
<text text-anchor="middle" x="27" y="-358.36" font-family="Times,serif" font-size="32.00">t</text>
</g>
<!-- z0 -->
<g id="node2" class="node">
<title>z0</title>
<ellipse fill="none" stroke="black" stroke-dasharray="5,2" cx="1612" cy="-667.46" rx="27" ry="18"/>
</g>
<!-- d -->
<g id="node3" class="node">
<title>d</title>
<ellipse fill="none" stroke="black" cx="1452" cy="-667.46" rx="27" ry="30.31"/>
<text text-anchor="middle" x="1452" y="-659.36" font-family="Times,serif" font-size="32.00">d</text>
</g>
<!-- z0&#45;&gt;d -->
<g id="edge1" class="edge">
<title>z0&#45;&gt;d</title>
<path fill="none" stroke="#000000" d="M1584.91,-667.46C1558.84,-667.46 1518.53,-667.46 1489.34,-667.46"/>
<polygon fill="#000000" stroke="#000000" points="1489.13,-663.96 1479.13,-667.46 1489.13,-670.96 1489.13,-663.96"/>
<text text-anchor="middle" x="1532" y="-711.86" font-family="Times,serif" font-size="32.00">Mary</text>
<text text-anchor="middle" x="1532" y="-676.86" font-family="Times,serif" font-size="32.00">d &#45;k</text>
</g>
<!-- 0 -->
<g id="node4" class="node">
<title>0</title>
<ellipse fill="none" stroke="black" cx="587" cy="-926.46" rx="27" ry="30.31"/>
<text text-anchor="middle" x="587" y="-918.36" font-family="Times,serif" font-size="32.00">0</text>
</g>
<!-- d&#45;&gt;0 -->
<g id="edge9" class="edge">
<title>d&#45;&gt;0</title>
<path fill="none" stroke="#000000" d="M1449.01,-697.81C1445.41,-731.4 1435.31,-785.65 1407,-822.46 1221.36,-1063.83 1111.63,-1091.8 818,-1172.46 759.71,-1188.47 731.79,-1206.73 682,-1172.46 614.46,-1125.96 595.42,-1023.89 590.07,-966.92"/>
<polygon fill="#000000" stroke="#000000" points="593.55,-966.5 589.22,-956.83 586.57,-967.09 593.55,-966.5"/>
<text text-anchor="middle" x="1088" y="-1230.86" font-family="Times,serif" font-size="32.00">like |</text>
<text text-anchor="middle" x="1088" y="-1195.86" font-family="Times,serif" font-size="32.00"> destroy |</text>
<text text-anchor="middle" x="1088" y="-1160.86" font-family="Times,serif" font-size="32.00"> hug</text>
<text text-anchor="middle" x="1088" y="-1125.86" font-family="Times,serif" font-size="32.00">=d *k 0</text>
</g>
<!-- 1 -->
<g id="node6" class="node">
<title>1</title>
<ellipse fill="none" stroke="black" cx="1213" cy="-311.46" rx="27" ry="30.31"/>
<text text-anchor="middle" x="1213" y="-303.36" font-family="Times,serif" font-size="32.00">1</text>
</g>
<!-- d&#45;&gt;1 -->
<g id="edge10" class="edge">
<title>d&#45;&gt;1</title>
<path fill="none" stroke="#000000" d="M1450.84,-636.91C1449.8,-569.3 1443.46,-410.08 1407,-373.46 1359.73,-325.97 1318.65,-378.95 1258,-350.46 1251.79,-347.54 1245.81,-343.47 1240.37,-339.05"/>
<polygon fill="#000000" stroke="#000000" points="1242.64,-336.38 1232.81,-332.42 1238.02,-341.64 1242.64,-336.38"/>
<text text-anchor="middle" x="1332.5" y="-487.86" font-family="Times,serif" font-size="32.00">lik |</text>
<text text-anchor="middle" x="1332.5" y="-452.86" font-family="Times,serif" font-size="32.00"> destroy_1 |</text>
<text text-anchor="middle" x="1332.5" y="-417.86" font-family="Times,serif" font-size="32.00"> hugg</text>
<text text-anchor="middle" x="1332.5" y="-382.86" font-family="Times,serif" font-size="32.00">=d *k 1</text>
</g>
<!-- v -->
<g id="node8" class="node">
<title>v</title>
<ellipse fill="none" stroke="black" cx="261" cy="-524.46" rx="27" ry="30.31"/>
<text text-anchor="middle" x="261" y="-516.36" font-family="Times,serif" font-size="32.00">v</text>
</g>
<!-- d&#45;&gt;v -->
<g id="edge6" class="edge">
<title>d&#45;&gt;v</title>
<path fill="none" stroke="#000000" d="M1432.05,-646.5C1394.56,-607.44 1306.47,-527.46 1214,-527.46 1214,-527.46 1214,-527.46 586,-527.46 481.46,-527.46 357.95,-525.88 298.11,-525.01"/>
<polygon fill="#000000" stroke="#000000" points="298.09,-521.51 288.04,-524.86 297.99,-528.51 298.09,-521.51"/>
<text text-anchor="middle" x="913" y="-746.86" font-family="Times,serif" font-size="32.00">dance_1 |</text>
<text text-anchor="middle" x="913" y="-711.86" font-family="Times,serif" font-size="32.00"> smile_1 |</text>
<text text-anchor="middle" x="913" y="-676.86" font-family="Times,serif" font-size="32.00"> jump_2 |</text>
<text text-anchor="middle" x="913" y="-641.86" font-family="Times,serif" font-size="32.00"> laugh_2 |</text>
<text text-anchor="middle" x="913" y="-606.86" font-family="Times,serif" font-size="32.00"> brag_1 |</text>
<text text-anchor="middle" x="913" y="-571.86" font-family="Times,serif" font-size="32.00"> jog_1</text>
<text text-anchor="middle" x="913" y="-536.86" font-family="Times,serif" font-size="32.00">=d v</text>
</g>
<!-- d&#45;&gt;v -->
<g id="edge12" class="edge">
<title>d&#45;&gt;v</title>
<path fill="none" stroke="#000000" d="M1432.08,-688.57C1394.64,-727.9 1306.64,-808.46 1214,-808.46 1214,-808.46 1214,-808.46 586,-808.46 436.62,-808.46 323.13,-635.62 280.44,-559.61"/>
<polygon fill="#000000" stroke="#000000" points="283.25,-557.47 275.35,-550.41 277.13,-560.86 283.25,-557.47"/>
<text text-anchor="middle" x="913" y="-887.86" font-family="Times,serif" font-size="32.00">destroy_2 |</text>
<text text-anchor="middle" x="913" y="-852.86" font-family="Times,serif" font-size="32.00"> hug_1</text>
<text text-anchor="middle" x="913" y="-817.86" font-family="Times,serif" font-size="32.00">=d *k =d v</text>
</g>
<!-- 0&#45;&gt;t -->
<g id="edge2" class="edge">
<title>0&#45;&gt;t</title>
<path fill="none" stroke="#000000" d="M560.14,-931.22C515.68,-938.08 423.08,-946.47 356,-912.46 179.78,-823.1 158.42,-748.13 72,-570.46 46.23,-517.48 35.45,-449.51 31.01,-406.96"/>
<polygon fill="#000000" stroke="#000000" points="34.49,-406.58 30.03,-396.97 27.52,-407.26 34.49,-406.58"/>
<text text-anchor="middle" x="261" y="-944.86" font-family="Times,serif" font-size="32.00">s</text>
<text text-anchor="middle" x="261" y="-909.86" font-family="Times,serif" font-size="32.00">=&gt;0 =d +k t</text>
</g>
<!-- 0&#45;&gt;v -->
<g id="edge11" class="edge">
<title>0&#45;&gt;v</title>
<path fill="none" stroke="#000000" d="M567.93,-904.42C550.58,-884.85 522.57,-857.16 492,-842.46 436.76,-815.88 402.29,-859.64 356,-819.46 281.02,-754.37 265.31,-629.62 262.37,-565.2"/>
<polygon fill="#000000" stroke="#000000" points="265.86,-564.88 261.99,-555.02 258.86,-565.14 265.86,-564.88"/>
<text text-anchor="middle" x="424" y="-886.86" font-family="Times,serif" font-size="32.00">ε_0</text>
<text text-anchor="middle" x="424" y="-851.86" font-family="Times,serif" font-size="32.00">=&gt;0 =d v</text>
</g>
<!-- z1 -->
<g id="node5" class="node">
<title>z1</title>
<ellipse fill="none" stroke="black" stroke-dasharray="5,2" cx="913" cy="-949.46" rx="27" ry="18"/>
</g>
<!-- z1&#45;&gt;0 -->
<g id="edge3" class="edge">
<title>z1&#45;&gt;0</title>
<path fill="none" stroke="#000000" d="M887.92,-942.24C869.09,-936.98 842.14,-930.3 818,-927.46 749.9,-919.44 669.66,-921.73 624.22,-924.11"/>
<polygon fill="#000000" stroke="#000000" points="623.78,-920.62 613.98,-924.67 624.16,-927.61 623.78,-920.62"/>
<text text-anchor="middle" x="750" y="-1146.86" font-family="Times,serif" font-size="32.00">dance |</text>
<text text-anchor="middle" x="750" y="-1111.86" font-family="Times,serif" font-size="32.00"> smile |</text>
<text text-anchor="middle" x="750" y="-1076.86" font-family="Times,serif" font-size="32.00"> jump |</text>
<text text-anchor="middle" x="750" y="-1041.86" font-family="Times,serif" font-size="32.00"> laugh |</text>
<text text-anchor="middle" x="750" y="-1006.86" font-family="Times,serif" font-size="32.00"> brag |</text>
<text text-anchor="middle" x="750" y="-971.86" font-family="Times,serif" font-size="32.00"> jog</text>
<text text-anchor="middle" x="750" y="-936.86" font-family="Times,serif" font-size="32.00">0</text>
</g>
<!-- 1&#45;&gt;t -->
<g id="edge4" class="edge">
<title>1&#45;&gt;t</title>
<path fill="none" stroke="#000000" d="M1192.39,-291.47C1147.48,-247.94 1031.94,-148.46 914,-148.46 914,-148.46 914,-148.46 260,-148.46 154.86,-148.46 77.87,-268.84 45.25,-330.69"/>
<polygon fill="#000000" stroke="#000000" points="42.06,-329.23 40.58,-339.73 48.28,-332.45 42.06,-329.23"/>
<text text-anchor="middle" x="587" y="-192.86" font-family="Times,serif" font-size="32.00">ed</text>
<text text-anchor="middle" x="587" y="-157.86" font-family="Times,serif" font-size="32.00">=&gt;1 =d +k t</text>
</g>
<!-- prog -->
<g id="node9" class="node">
<title>prog</title>
<ellipse fill="none" stroke="black" cx="913" cy="-311.46" rx="52.15" ry="30.31"/>
<text text-anchor="middle" x="913" y="-303.36" font-family="Times,serif" font-size="32.00">prog</text>
</g>
<!-- 1&#45;&gt;prog -->
<g id="edge7" class="edge">
<title>1&#45;&gt;prog</title>
<path fill="none" stroke="#000000" d="M1185.82,-311.46C1139.1,-311.46 1040.24,-311.46 975.5,-311.46"/>
<polygon fill="#000000" stroke="#000000" points="975.42,-307.96 965.42,-311.46 975.42,-314.96 975.42,-307.96"/>
<text text-anchor="middle" x="1088" y="-355.86" font-family="Times,serif" font-size="32.00">ing</text>
<text text-anchor="middle" x="1088" y="-320.86" font-family="Times,serif" font-size="32.00">=&gt;1 =d prog</text>
</g>
<!-- perf -->
<g id="node10" class="node">
<title>perf</title>
<ellipse fill="none" stroke="black" cx="587" cy="-363.46" rx="48.17" ry="30.31"/>
<text text-anchor="middle" x="587" y="-355.36" font-family="Times,serif" font-size="32.00">perf</text>
</g>
<!-- 1&#45;&gt;perf -->
<g id="edge8" class="edge">
<title>1&#45;&gt;perf</title>
<path fill="none" stroke="#000000" d="M1203.09,-339.84C1196.3,-356.31 1185.14,-375.68 1168,-385.46 1074.2,-438.99 789.22,-399.38 682,-386.46 668.58,-384.84 654.3,-381.96 641.04,-378.78"/>
<polygon fill="#000000" stroke="#000000" points="641.67,-375.33 631.12,-376.31 639.98,-382.13 641.67,-375.33"/>
<text text-anchor="middle" x="913" y="-457.86" font-family="Times,serif" font-size="32.00">ed_1</text>
<text text-anchor="middle" x="913" y="-422.86" font-family="Times,serif" font-size="32.00">=&gt;1 =d perf</text>
</g>
<!-- z2 -->
<g id="node7" class="node">
<title>z2</title>
<ellipse fill="none" stroke="black" stroke-dasharray="5,2" cx="1452" cy="-104.46" rx="27" ry="18"/>
</g>
<!-- z2&#45;&gt;1 -->
<g id="edge5" class="edge">
<title>z2&#45;&gt;1</title>
<path fill="none" stroke="#000000" d="M1427.73,-96.22C1388.05,-83.8 1306.87,-65.71 1258,-105.46 1232.86,-125.9 1221.44,-216.73 1216.8,-270.72"/>
<polygon fill="#000000" stroke="#000000" points="1213.28,-270.74 1215.95,-280.99 1220.26,-271.31 1213.28,-270.74"/>
<text text-anchor="middle" x="1332.5" y="-324.86" font-family="Times,serif" font-size="32.00">danc |</text>
<text text-anchor="middle" x="1332.5" y="-289.86" font-family="Times,serif" font-size="32.00"> smil |</text>
<text text-anchor="middle" x="1332.5" y="-254.86" font-family="Times,serif" font-size="32.00"> jump_1 |</text>
<text text-anchor="middle" x="1332.5" y="-219.86" font-family="Times,serif" font-size="32.00"> laugh_1 |</text>
<text text-anchor="middle" x="1332.5" y="-184.86" font-family="Times,serif" font-size="32.00"> bragg |</text>
<text text-anchor="middle" x="1332.5" y="-149.86" font-family="Times,serif" font-size="32.00"> jogg</text>
<text text-anchor="middle" x="1332.5" y="-114.86" font-family="Times,serif" font-size="32.00">1</text>
</g>
<!-- v&#45;&gt;t -->
<g id="edge13" class="edge">
<title>v&#45;&gt;t</title>
<path fill="none" stroke="#000000" d="M236.91,-509.88C221.77,-500.25 201.6,-487.27 184,-475.46 140,-445.91 89.88,-410.59 58.6,-388.34"/>
<polygon fill="#000000" stroke="#000000" points="60.47,-385.38 50.29,-382.42 56.41,-391.08 60.47,-385.38"/>
<text text-anchor="middle" x="119" y="-540.86" font-family="Times,serif" font-size="32.00">will |</text>
<text text-anchor="middle" x="119" y="-505.86" font-family="Times,serif" font-size="32.00"> would</text>
<text text-anchor="middle" x="119" y="-470.86" font-family="Times,serif" font-size="32.00">=v +k t</text>
</g>
<!-- prog&#45;&gt;t -->
<g id="edge16" class="edge">
<title>prog&#45;&gt;t</title>
<path fill="none" stroke="#000000" d="M865.24,-298.48C769.29,-273.68 543.39,-224.61 356,-255.46 244.69,-273.78 120.33,-324.88 61.86,-350.86"/>
<polygon fill="#000000" stroke="#000000" points="60.08,-347.82 52.39,-355.11 62.94,-354.21 60.08,-347.82"/>
<text text-anchor="middle" x="424" y="-334.86" font-family="Times,serif" font-size="32.00">is |</text>
<text text-anchor="middle" x="424" y="-299.86" font-family="Times,serif" font-size="32.00"> was</text>
<text text-anchor="middle" x="424" y="-264.86" font-family="Times,serif" font-size="32.00">=prog +k t</text>
</g>
<!-- prog&#45;&gt;v -->
<g id="edge17" class="edge">
<title>prog&#45;&gt;v</title>
<path fill="none" stroke="#000000" d="M884.94,-337.18C867.23,-352.61 842.82,-371.34 818,-382.46 690.65,-439.51 626.02,-365.92 510,-443.46 498.01,-451.47 503.85,-462.23 492,-470.46 460.83,-492.09 354.61,-510.65 298.08,-519.29"/>
<polygon fill="#000000" stroke="#000000" points="297.5,-515.84 288.13,-520.78 298.54,-522.76 297.5,-515.84"/>
<text text-anchor="middle" x="587" y="-487.86" font-family="Times,serif" font-size="32.00">be</text>
<text text-anchor="middle" x="587" y="-452.86" font-family="Times,serif" font-size="32.00">=prog v</text>
</g>
<!-- prog&#45;&gt;perf -->
<g id="edge18" class="edge">
<title>prog&#45;&gt;perf</title>
<path fill="none" stroke="#000000" d="M861.76,-304.72C814.55,-300.01 742.34,-297 682,-312.46 663.51,-317.19 644.7,-326.35 628.83,-335.62"/>
<polygon fill="#000000" stroke="#000000" points="626.58,-332.88 619.84,-341.05 630.21,-338.87 626.58,-332.88"/>
<text text-anchor="middle" x="750" y="-356.86" font-family="Times,serif" font-size="32.00">been</text>
<text text-anchor="middle" x="750" y="-321.86" font-family="Times,serif" font-size="32.00">=prog perf</text>
</g>
<!-- perf&#45;&gt;t -->
<g id="edge14" class="edge">
<title>perf&#45;&gt;t</title>
<path fill="none" stroke="#000000" d="M538.91,-363.71C429.88,-364.3 162,-365.74 64.36,-366.26"/>
<polygon fill="#000000" stroke="#000000" points="64.1,-362.76 54.12,-366.32 64.14,-369.76 64.1,-362.76"/>
<text text-anchor="middle" x="261" y="-445.86" font-family="Times,serif" font-size="32.00">has |</text>
<text text-anchor="middle" x="261" y="-410.86" font-family="Times,serif" font-size="32.00"> had</text>
<text text-anchor="middle" x="261" y="-375.86" font-family="Times,serif" font-size="32.00">=perf +k t</text>
</g>
<!-- perf&#45;&gt;v -->
<g id="edge15" class="edge">
<title>perf&#45;&gt;v</title>
<path fill="none" stroke="#000000" d="M540.15,-370.51C473.54,-380.8 357.69,-398.89 356,-400.46 330.86,-423.76 357.83,-447.49 338,-475.46 327.47,-490.3 310.89,-501.75 295.9,-509.84"/>
<polygon fill="#000000" stroke="#000000" points="294.17,-506.79 286.84,-514.44 297.34,-513.03 294.17,-506.79"/>
<text text-anchor="middle" x="424" y="-444.86" font-family="Times,serif" font-size="32.00">have</text>
<text text-anchor="middle" x="424" y="-409.86" font-family="Times,serif" font-size="32.00">=perf v</text>
</g>
</g>
</svg>
