<?xml version="1.0" encoding="UTF-8" standalone="no"?>
<!DOCTYPE svg PUBLIC "-//W3C//DTD SVG 1.1//EN"
 "http://www.w3.org/Graphics/SVG/1.1/DTD/svg11.dtd">
<!-- Generated by graphviz version 2.47.1 (20210417.1919)
 -->
<!-- Title: G Pages: 1 -->
<svg width="1709pt" height="1153pt"
 viewBox="0.00 0.00 1709.00 1152.55" xmlns="http://www.w3.org/2000/svg" xmlns:xlink="http://www.w3.org/1999/xlink">
<g id="graph0" class="graph" transform="scale(1 1) rotate(0) translate(4 1148.55)">
<title>G</title>
<polygon fill="white" stroke="transparent" points="-4,4 -4,-1148.55 1705,-1148.55 1705,4 -4,4"/>
<text text-anchor="middle" x="850.5" y="-13.4" font-family="Times,serif" font-size="32.00">decomposition: dance =d v, smile =d v, &#160;=&gt;0 =d v, jump =d v, laugh =d v, destroy =d *k =d v, hug =d *k =d v, brag =d v, jog =d v</text>
<!-- t -->
<g id="node1" class="node">
<title>t</title>
<ellipse fill="lightgray" stroke="black" cx="27" cy="-821.55" rx="27" ry="30.31"/>
<text text-anchor="middle" x="27" y="-813.45" font-family="Times,serif" font-size="32.00">t</text>
</g>
<!-- z0 -->
<g id="node2" class="node">
<title>z0</title>
<ellipse fill="none" stroke="black" stroke-dasharray="5,2" cx="1674" cy="-522.55" rx="27" ry="18"/>
</g>
<!-- d -->
<g id="node3" class="node">
<title>d</title>
<ellipse fill="none" stroke="black" cx="1514" cy="-522.55" rx="27" ry="30.31"/>
<text text-anchor="middle" x="1514" y="-514.45" font-family="Times,serif" font-size="32.00">d</text>
</g>
<!-- z0&#45;&gt;d -->
<g id="edge1" class="edge">
<title>z0&#45;&gt;d</title>
<path fill="none" stroke="#000000" d="M1646.91,-522.55C1620.84,-522.55 1580.53,-522.55 1551.34,-522.55"/>
<polygon fill="#000000" stroke="#000000" points="1551.13,-519.05 1541.13,-522.55 1551.13,-526.05 1551.13,-519.05"/>
<text text-anchor="middle" x="1594" y="-566.95" font-family="Times,serif" font-size="32.00">Mary</text>
<text text-anchor="middle" x="1594" y="-531.95" font-family="Times,serif" font-size="32.00">d &#45;k</text>
</g>
<!-- 0 -->
<g id="node4" class="node">
<title>0</title>
<ellipse fill="none" stroke="black" cx="1231.5" cy="-372.55" rx="27" ry="30.31"/>
<text text-anchor="middle" x="1231.5" y="-364.45" font-family="Times,serif" font-size="32.00">0</text>
</g>
<!-- d&#45;&gt;0 -->
<g id="edge10" class="edge">
<title>d&#45;&gt;0</title>
<path fill="none" stroke="#000000" d="M1508.74,-492.52C1502.31,-452.08 1488.76,-383.45 1469,-368.55 1438.45,-345.5 1327,-358.13 1268.66,-366.71"/>
<polygon fill="#000000" stroke="#000000" points="1267.79,-363.3 1258.42,-368.25 1268.83,-370.22 1267.79,-363.3"/>
<text text-anchor="middle" x="1394.5" y="-482.95" font-family="Times,serif" font-size="32.00">like |</text>
<text text-anchor="middle" x="1394.5" y="-447.95" font-family="Times,serif" font-size="32.00"> destroy |</text>
<text text-anchor="middle" x="1394.5" y="-412.95" font-family="Times,serif" font-size="32.00"> hug</text>
<text text-anchor="middle" x="1394.5" y="-377.95" font-family="Times,serif" font-size="32.00">=d *k 0</text>
</g>
<!-- 1 -->
<g id="node6" class="node">
<title>1</title>
<ellipse fill="none" stroke="black" cx="1231.5" cy="-840.55" rx="27" ry="30.31"/>
<text text-anchor="middle" x="1231.5" y="-832.45" font-family="Times,serif" font-size="32.00">1</text>
</g>
<!-- d&#45;&gt;1 -->
<g id="edge11" class="edge">
<title>d&#45;&gt;1</title>
<path fill="none" stroke="#000000" d="M1491.13,-538.8C1453.24,-567.67 1374.23,-631.04 1320,-696.55 1291.68,-730.75 1266.18,-775.02 1250.11,-805.39"/>
<polygon fill="#000000" stroke="#000000" points="1246.96,-803.86 1245.44,-814.35 1253.17,-807.1 1246.96,-803.86"/>
<text text-anchor="middle" x="1394.5" y="-810.95" font-family="Times,serif" font-size="32.00">lik |</text>
<text text-anchor="middle" x="1394.5" y="-775.95" font-family="Times,serif" font-size="32.00"> destroy_1 |</text>
<text text-anchor="middle" x="1394.5" y="-740.95" font-family="Times,serif" font-size="32.00"> hugg</text>
<text text-anchor="middle" x="1394.5" y="-705.95" font-family="Times,serif" font-size="32.00">=d *k 1</text>
</g>
<!-- 2 -->
<g id="node8" class="node">
<title>2</title>
<ellipse fill="none" stroke="black" cx="888" cy="-538.55" rx="27" ry="30.31"/>
<text text-anchor="middle" x="888" y="-530.45" font-family="Times,serif" font-size="32.00">2</text>
</g>
<!-- d&#45;&gt;2 -->
<g id="edge13" class="edge">
<title>d&#45;&gt;2</title>
<path fill="none" stroke="#f7931d" stroke-width="2" d="M1486.95,-523.21C1428.59,-524.7 1282.92,-528.42 1161,-531.55 1076.62,-533.71 977.51,-536.26 925.35,-537.61"/>
<polygon fill="#f7931d" stroke="#f7931d" stroke-width="2" points="925.16,-534.11 915.26,-537.87 925.34,-541.11 925.16,-534.11"/>
<text text-anchor="middle" x="1231.5" y="-610.95" font-family="Times,serif" font-size="32.00">destroy_2 |</text>
<text text-anchor="middle" x="1231.5" y="-575.95" font-family="Times,serif" font-size="32.00"> hug_1</text>
<text text-anchor="middle" x="1231.5" y="-540.95" font-family="Times,serif" font-size="32.00">=d *k 2</text>
</g>
<!-- 0&#45;&gt;t -->
<g id="edge2" class="edge">
<title>0&#45;&gt;t</title>
<path fill="none" stroke="#000000" d="M1204.39,-374.86C1147.26,-379.72 1006.85,-390.55 889,-390.55 889,-390.55 889,-390.55 247.5,-390.55 73.19,-390.55 37.24,-673.95 29.88,-781.13"/>
<polygon fill="#000000" stroke="#000000" points="26.38,-781.04 29.23,-791.24 33.36,-781.48 26.38,-781.04"/>
<text text-anchor="middle" x="562" y="-434.95" font-family="Times,serif" font-size="32.00">s</text>
<text text-anchor="middle" x="562" y="-399.95" font-family="Times,serif" font-size="32.00">=&gt;0 =d +k t</text>
</g>
<!-- 0&#45;&gt;2 -->
<g id="edge12" class="edge">
<title>0&#45;&gt;2</title>
<path fill="none" stroke="#f7931d" stroke-width="2" d="M1205.92,-382.6C1188.55,-389.43 1164.61,-398.33 1143,-404.55 1073.13,-424.64 1046.35,-402.88 983,-438.55 953.73,-455.03 928.19,-483.69 911.15,-506.11"/>
<polygon fill="#f7931d" stroke="#f7931d" stroke-width="2" points="908.18,-504.24 905.04,-514.36 913.8,-508.4 908.18,-504.24"/>
<text text-anchor="middle" x="1063" y="-482.95" font-family="Times,serif" font-size="32.00">ε_1</text>
<text text-anchor="middle" x="1063" y="-447.95" font-family="Times,serif" font-size="32.00">=&gt;0 2</text>
</g>
<!-- z1 -->
<g id="node5" class="node">
<title>z1</title>
<ellipse fill="none" stroke="black" stroke-dasharray="5,2" cx="1514" cy="-99.55" rx="27" ry="18"/>
</g>
<!-- z1&#45;&gt;0 -->
<g id="edge3" class="edge">
<title>z1&#45;&gt;0</title>
<path fill="none" stroke="#000000" d="M1489.12,-92.35C1449.61,-82.02 1370.05,-68.08 1320,-105.55 1249.09,-158.63 1234.75,-270.76 1232.41,-331.45"/>
<polygon fill="#000000" stroke="#000000" points="1228.9,-331.7 1232.1,-341.8 1235.89,-331.91 1228.9,-331.7"/>
<text text-anchor="middle" x="1394.5" y="-324.95" font-family="Times,serif" font-size="32.00">dance |</text>
<text text-anchor="middle" x="1394.5" y="-289.95" font-family="Times,serif" font-size="32.00"> smile |</text>
<text text-anchor="middle" x="1394.5" y="-254.95" font-family="Times,serif" font-size="32.00"> jump |</text>
<text text-anchor="middle" x="1394.5" y="-219.95" font-family="Times,serif" font-size="32.00"> laugh |</text>
<text text-anchor="middle" x="1394.5" y="-184.95" font-family="Times,serif" font-size="32.00"> brag |</text>
<text text-anchor="middle" x="1394.5" y="-149.95" font-family="Times,serif" font-size="32.00"> jog</text>
<text text-anchor="middle" x="1394.5" y="-114.95" font-family="Times,serif" font-size="32.00">0</text>
</g>
<!-- 1&#45;&gt;t -->
<g id="edge4" class="edge">
<title>1&#45;&gt;t</title>
<path fill="none" stroke="#000000" d="M1213.45,-863.84C1167.96,-923.03 1037.05,-1074.55 889,-1074.55 889,-1074.55 889,-1074.55 247.5,-1074.55 135.04,-1074.55 67.22,-930.15 40.78,-859.53"/>
<polygon fill="#000000" stroke="#000000" points="44.05,-858.27 37.32,-850.08 37.47,-860.67 44.05,-858.27"/>
<text text-anchor="middle" x="562" y="-1118.95" font-family="Times,serif" font-size="32.00">ed</text>
<text text-anchor="middle" x="562" y="-1083.95" font-family="Times,serif" font-size="32.00">=&gt;1 =d +k t</text>
</g>
<!-- prog -->
<g id="node11" class="node">
<title>prog</title>
<ellipse fill="none" stroke="black" cx="888" cy="-882.55" rx="52.15" ry="30.31"/>
<text text-anchor="middle" x="888" y="-874.45" font-family="Times,serif" font-size="32.00">prog</text>
</g>
<!-- 1&#45;&gt;prog -->
<g id="edge8" class="edge">
<title>1&#45;&gt;prog</title>
<path fill="none" stroke="#000000" d="M1204.55,-843.74C1150.59,-850.37 1025.02,-865.82 949.56,-875.1"/>
<polygon fill="#000000" stroke="#000000" points="948.76,-871.67 939.26,-876.36 949.62,-878.62 948.76,-871.67"/>
<text text-anchor="middle" x="1063" y="-913.95" font-family="Times,serif" font-size="32.00">ing</text>
<text text-anchor="middle" x="1063" y="-878.95" font-family="Times,serif" font-size="32.00">=&gt;1 =d prog</text>
</g>
<!-- perf -->
<g id="node12" class="node">
<title>perf</title>
<ellipse fill="none" stroke="black" cx="562" cy="-821.55" rx="48.17" ry="30.31"/>
<text text-anchor="middle" x="562" y="-813.45" font-family="Times,serif" font-size="32.00">perf</text>
</g>
<!-- 1&#45;&gt;perf -->
<g id="edge9" class="edge">
<title>1&#45;&gt;perf</title>
<path fill="none" stroke="#000000" d="M1204.57,-843.03C1156.65,-846.3 1052.77,-847.05 983,-801.55 970.61,-793.46 977.98,-780.64 965,-773.55 904.93,-740.75 879.13,-767.01 811,-773.55 743.41,-780.03 666.86,-796.23 616.91,-808.02"/>
<polygon fill="#000000" stroke="#000000" points="615.89,-804.66 606.98,-810.39 617.52,-811.47 615.89,-804.66"/>
<text text-anchor="middle" x="888" y="-817.95" font-family="Times,serif" font-size="32.00">ed_1</text>
<text text-anchor="middle" x="888" y="-782.95" font-family="Times,serif" font-size="32.00">=&gt;1 =d perf</text>
</g>
<!-- z2 -->
<g id="node7" class="node">
<title>z2</title>
<ellipse fill="none" stroke="black" stroke-dasharray="5,2" cx="1514" cy="-840.55" rx="27" ry="18"/>
</g>
<!-- z2&#45;&gt;1 -->
<g id="edge5" class="edge">
<title>z2&#45;&gt;1</title>
<path fill="none" stroke="#000000" d="M1486.86,-840.55C1436.55,-840.55 1326.13,-840.55 1268.74,-840.55"/>
<polygon fill="#000000" stroke="#000000" points="1268.67,-837.05 1258.67,-840.55 1268.67,-844.05 1268.67,-837.05"/>
<text text-anchor="middle" x="1394.5" y="-1059.95" font-family="Times,serif" font-size="32.00">danc |</text>
<text text-anchor="middle" x="1394.5" y="-1024.95" font-family="Times,serif" font-size="32.00"> smil |</text>
<text text-anchor="middle" x="1394.5" y="-989.95" font-family="Times,serif" font-size="32.00"> jump_1 |</text>
<text text-anchor="middle" x="1394.5" y="-954.95" font-family="Times,serif" font-size="32.00"> laugh_1 |</text>
<text text-anchor="middle" x="1394.5" y="-919.95" font-family="Times,serif" font-size="32.00"> bragg |</text>
<text text-anchor="middle" x="1394.5" y="-884.95" font-family="Times,serif" font-size="32.00"> jogg</text>
<text text-anchor="middle" x="1394.5" y="-849.95" font-family="Times,serif" font-size="32.00">1</text>
</g>
<!-- v -->
<g id="node9" class="node">
<title>v</title>
<ellipse fill="none" stroke="black" cx="248.5" cy="-702.55" rx="27" ry="30.31"/>
<text text-anchor="middle" x="248.5" y="-694.45" font-family="Times,serif" font-size="32.00">v</text>
</g>
<!-- 2&#45;&gt;v -->
<g id="edge6" class="edge">
<title>2&#45;&gt;v</title>
<path fill="none" stroke="#f7931d" stroke-width="2" d="M860.75,-541.57C796.02,-549.39 623.96,-572.46 485,-611.55 411.1,-632.33 328.08,-667.27 283.02,-687.27"/>
<polygon fill="#f7931d" stroke="#f7931d" stroke-width="2" points="281.43,-684.14 273.73,-691.42 284.29,-690.53 281.43,-684.14"/>
<text text-anchor="middle" x="562" y="-655.95" font-family="Times,serif" font-size="32.00">ε_0</text>
<text text-anchor="middle" x="562" y="-620.95" font-family="Times,serif" font-size="32.00">=&gt;2 =d v</text>
</g>
<!-- v&#45;&gt;t -->
<g id="edge14" class="edge">
<title>v&#45;&gt;t</title>
<path fill="none" stroke="#000000" d="M222.49,-694.34C185.87,-684.01 117.13,-671.12 72,-702.55 46.76,-720.13 35.96,-753.94 31.36,-781.05"/>
<polygon fill="#000000" stroke="#000000" points="27.88,-780.65 29.89,-791.06 34.81,-781.67 27.88,-780.65"/>
<text text-anchor="middle" x="119" y="-781.95" font-family="Times,serif" font-size="32.00">will |</text>
<text text-anchor="middle" x="119" y="-746.95" font-family="Times,serif" font-size="32.00"> would</text>
<text text-anchor="middle" x="119" y="-711.95" font-family="Times,serif" font-size="32.00">=v +k t</text>
</g>
<!-- z3 -->
<g id="node10" class="node">
<title>z3</title>
<ellipse fill="none" stroke="black" stroke-dasharray="5,2" cx="1231.5" cy="-663.55" rx="27" ry="18"/>
</g>
<!-- z3&#45;&gt;2 -->
<g id="edge7" class="edge">
<title>z3&#45;&gt;2</title>
<path fill="none" stroke="#f7931d" stroke-width="2" d="M1205.55,-657.94C1190.53,-653.3 1172.21,-645.2 1161,-631.55 1139.25,-605.05 1169.15,-578.71 1143,-556.55 1111.12,-529.53 987.79,-532.6 925.48,-536.05"/>
<polygon fill="#f7931d" stroke="#f7931d" stroke-width="2" points="925.08,-532.57 915.3,-536.65 925.49,-539.56 925.08,-532.57"/>
<text text-anchor="middle" x="1063" y="-775.95" font-family="Times,serif" font-size="32.00">dance_1 |</text>
<text text-anchor="middle" x="1063" y="-740.95" font-family="Times,serif" font-size="32.00"> smile_1 |</text>
<text text-anchor="middle" x="1063" y="-705.95" font-family="Times,serif" font-size="32.00"> jump_2 |</text>
<text text-anchor="middle" x="1063" y="-670.95" font-family="Times,serif" font-size="32.00"> laugh_2 |</text>
<text text-anchor="middle" x="1063" y="-635.95" font-family="Times,serif" font-size="32.00"> brag_1 |</text>
<text text-anchor="middle" x="1063" y="-600.95" font-family="Times,serif" font-size="32.00"> jog_1</text>
<text text-anchor="middle" x="1063" y="-565.95" font-family="Times,serif" font-size="32.00">2</text>
</g>
<!-- prog&#45;&gt;t -->
<g id="edge17" class="edge">
<title>prog&#45;&gt;t</title>
<path fill="none" stroke="#000000" d="M855.42,-906.73C838.02,-918.53 815.45,-931.46 793,-937.55 765.55,-944.99 256.24,-953.87 184,-930.55 133.42,-914.21 84.8,-875.36 55.66,-848.75"/>
<polygon fill="#000000" stroke="#000000" points="57.68,-845.84 47.97,-841.59 52.91,-850.97 57.68,-845.84"/>
<text text-anchor="middle" x="399" y="-1024.95" font-family="Times,serif" font-size="32.00">is |</text>
<text text-anchor="middle" x="399" y="-989.95" font-family="Times,serif" font-size="32.00"> was</text>
<text text-anchor="middle" x="399" y="-954.95" font-family="Times,serif" font-size="32.00">=prog +k t</text>
</g>
<!-- prog&#45;&gt;v -->
<g id="edge18" class="edge">
<title>prog&#45;&gt;v</title>
<path fill="none" stroke="#000000" d="M844.67,-865.18C833.45,-860.01 821.54,-853.98 811,-847.55 769.54,-822.21 684.72,-729 639,-712.55 515.81,-668.2 356.23,-685.2 285.72,-696.13"/>
<polygon fill="#000000" stroke="#000000" points="284.9,-692.71 275.58,-697.75 286.01,-699.62 284.9,-692.71"/>
<text text-anchor="middle" x="562" y="-756.95" font-family="Times,serif" font-size="32.00">be</text>
<text text-anchor="middle" x="562" y="-721.95" font-family="Times,serif" font-size="32.00">=prog v</text>
</g>
<!-- prog&#45;&gt;perf -->
<g id="edge19" class="edge">
<title>prog&#45;&gt;perf</title>
<path fill="none" stroke="#000000" d="M837.79,-873.28C778.68,-862.15 679.79,-843.53 618.15,-831.93"/>
<polygon fill="#000000" stroke="#000000" points="618.69,-828.47 608.22,-830.06 617.4,-835.35 618.69,-828.47"/>
<text text-anchor="middle" x="725" y="-907.95" font-family="Times,serif" font-size="32.00">been</text>
<text text-anchor="middle" x="725" y="-872.95" font-family="Times,serif" font-size="32.00">=prog perf</text>
</g>
<!-- perf&#45;&gt;t -->
<g id="edge15" class="edge">
<title>perf&#45;&gt;t</title>
<path fill="none" stroke="#000000" d="M513.7,-821.55C408.7,-821.55 158.05,-821.55 64.25,-821.55"/>
<polygon fill="#000000" stroke="#000000" points="64.13,-818.05 54.13,-821.55 64.13,-825.05 64.13,-818.05"/>
<text text-anchor="middle" x="248.5" y="-900.95" font-family="Times,serif" font-size="32.00">has |</text>
<text text-anchor="middle" x="248.5" y="-865.95" font-family="Times,serif" font-size="32.00"> had</text>
<text text-anchor="middle" x="248.5" y="-830.95" font-family="Times,serif" font-size="32.00">=perf +k t</text>
</g>
<!-- perf&#45;&gt;v -->
<g id="edge16" class="edge">
<title>perf&#45;&gt;v</title>
<path fill="none" stroke="#000000" d="M521.72,-804.84C508.77,-797.87 495.12,-788.75 485,-777.55 471.94,-763.08 482.48,-749.4 467,-737.55 463.41,-734.8 346.5,-717.02 285.6,-707.91"/>
<polygon fill="#000000" stroke="#000000" points="286.03,-704.44 275.62,-706.42 285,-711.36 286.03,-704.44"/>
<text text-anchor="middle" x="399" y="-781.95" font-family="Times,serif" font-size="32.00">have</text>
<text text-anchor="middle" x="399" y="-746.95" font-family="Times,serif" font-size="32.00">=perf v</text>
</g>
</g>
</svg>
