<?xml version="1.0" encoding="UTF-8" standalone="no"?>
<!DOCTYPE svg PUBLIC "-//W3C//DTD SVG 1.1//EN"
 "http://www.w3.org/Graphics/SVG/1.1/DTD/svg11.dtd">
<!-- Generated by graphviz version 2.47.1 (20210417.1919)
 -->
<!-- Title: G Pages: 1 -->
<svg width="1647pt" height="922pt"
 viewBox="0.00 0.00 1647.00 922.00" xmlns="http://www.w3.org/2000/svg" xmlns:xlink="http://www.w3.org/1999/xlink">
<g id="graph0" class="graph" transform="scale(1 1) rotate(0) translate(4 918)">
<title>G</title>
<polygon fill="white" stroke="transparent" points="-4,4 -4,-918 1643,-918 1643,4 -4,4"/>
<text text-anchor="middle" x="819.5" y="-13.4" font-family="Times,serif" font-size="32.00">single contraction: 0 → 2</text>
<!-- t -->
<g id="node1" class="node">
<title>t</title>
<ellipse fill="lightgray" stroke="black" cx="27" cy="-262" rx="27" ry="30.31"/>
<text text-anchor="middle" x="27" y="-253.9" font-family="Times,serif" font-size="32.00">t</text>
</g>
<!-- z0 -->
<g id="node2" class="node">
<title>z0</title>
<ellipse fill="none" stroke="black" stroke-dasharray="5,2" cx="1612" cy="-576" rx="27" ry="18"/>
</g>
<!-- d -->
<g id="node3" class="node">
<title>d</title>
<ellipse fill="none" stroke="black" cx="1452" cy="-576" rx="27" ry="30.31"/>
<text text-anchor="middle" x="1452" y="-567.9" font-family="Times,serif" font-size="32.00">d</text>
</g>
<!-- z0&#45;&gt;d -->
<g id="edge1" class="edge">
<title>z0&#45;&gt;d</title>
<path fill="none" stroke="#000000" d="M1584.91,-576C1558.84,-576 1518.53,-576 1489.34,-576"/>
<polygon fill="#000000" stroke="#000000" points="1489.13,-572.5 1479.13,-576 1489.13,-579.5 1489.13,-572.5"/>
<text text-anchor="middle" x="1532" y="-620.4" font-family="Times,serif" font-size="32.00">Mary</text>
<text text-anchor="middle" x="1532" y="-585.4" font-family="Times,serif" font-size="32.00">d &#45;k</text>
</g>
<!-- 0 -->
<g id="node4" class="node">
<title>0</title>
<ellipse fill="none" stroke="black" cx="587" cy="-552" rx="27" ry="30.31"/>
<text text-anchor="middle" x="587" y="-543.9" font-family="Times,serif" font-size="32.00">0</text>
</g>
<!-- d&#45;&gt;0 -->
<g id="edge9" class="edge">
<title>d&#45;&gt;0</title>
<path fill="none" stroke="#000000" d="M1444.19,-605.51C1438.01,-624.97 1426.73,-648.99 1407,-661 1131.72,-828.48 974.95,-795.2 682,-661 648.88,-645.83 622.99,-612.58 606.84,-586.76"/>
<polygon fill="#000000" stroke="#000000" points="609.71,-584.74 601.54,-577.99 603.72,-588.36 609.71,-584.74"/>
<text text-anchor="middle" x="1088" y="-888.4" font-family="Times,serif" font-size="32.00">like |</text>
<text text-anchor="middle" x="1088" y="-853.4" font-family="Times,serif" font-size="32.00"> destroy |</text>
<text text-anchor="middle" x="1088" y="-818.4" font-family="Times,serif" font-size="32.00"> hug</text>
<text text-anchor="middle" x="1088" y="-783.4" font-family="Times,serif" font-size="32.00">=d *k 0</text>
</g>
<!-- 1 -->
<g id="node6" class="node">
<title>1</title>
<ellipse fill="none" stroke="black" cx="1213" cy="-188" rx="27" ry="30.31"/>
<text text-anchor="middle" x="1213" y="-179.9" font-family="Times,serif" font-size="32.00">1</text>
</g>
<!-- d&#45;&gt;1 -->
<g id="edge10" class="edge">
<title>d&#45;&gt;1</title>
<path fill="none" stroke="#000000" d="M1435,-552.07C1427.33,-541.72 1417.53,-529.95 1407,-521 1349.09,-471.75 1301.93,-499.04 1258,-437 1234.74,-404.15 1222.22,-290.58 1217,-228.8"/>
<polygon fill="#000000" stroke="#000000" points="1220.47,-228.31 1216.16,-218.63 1213.49,-228.88 1220.47,-228.31"/>
<text text-anchor="middle" x="1332.5" y="-635.4" font-family="Times,serif" font-size="32.00">lik |</text>
<text text-anchor="middle" x="1332.5" y="-600.4" font-family="Times,serif" font-size="32.00"> destroy_1 |</text>
<text text-anchor="middle" x="1332.5" y="-565.4" font-family="Times,serif" font-size="32.00"> hugg</text>
<text text-anchor="middle" x="1332.5" y="-530.4" font-family="Times,serif" font-size="32.00">=d *k 1</text>
</g>
<!-- 0&#45;&gt;t -->
<g id="edge2" class="edge">
<title>0&#45;&gt;t</title>
<path fill="none" stroke="#000000" d="M561.29,-561.61C518.57,-576.8 428.53,-602.54 356,-581 211.59,-538.11 163.81,-515.43 72,-396 50.93,-368.6 39.72,-330.67 33.9,-302.16"/>
<polygon fill="#000000" stroke="#000000" points="37.3,-301.29 31.99,-292.12 30.42,-302.59 37.3,-301.29"/>
<text text-anchor="middle" x="261" y="-619.4" font-family="Times,serif" font-size="32.00">s</text>
<text text-anchor="middle" x="261" y="-584.4" font-family="Times,serif" font-size="32.00">=&gt;0 =d +k t</text>
</g>
<!-- v -->
<g id="node8" class="node">
<title>v</title>
<ellipse fill="none" stroke="black" cx="261" cy="-302" rx="27" ry="30.31"/>
<text text-anchor="middle" x="261" y="-293.9" font-family="Times,serif" font-size="32.00">v</text>
</g>
<!-- 0&#45;&gt;v -->
<g id="edge6" class="edge">
<title>0&#45;&gt;v</title>
<path fill="none" stroke="#000000" d="M562.26,-539.72C543.61,-530.54 516.74,-518.37 492,-511 433.25,-493.5 405.35,-524.37 356,-488 307.6,-452.33 282.43,-384.59 270.72,-341.45"/>
<polygon fill="#000000" stroke="#000000" points="274.06,-340.38 268.16,-331.58 267.28,-342.14 274.06,-340.38"/>
<text text-anchor="middle" x="424" y="-555.4" font-family="Times,serif" font-size="32.00">ε_0</text>
<text text-anchor="middle" x="424" y="-520.4" font-family="Times,serif" font-size="32.00">=&gt;0 =d v</text>
</g>
<!-- z1 -->
<g id="node5" class="node">
<title>z1</title>
<ellipse fill="none" stroke="black" stroke-dasharray="5,2" cx="913" cy="-415" rx="27" ry="18"/>
</g>
<!-- z1&#45;&gt;0 -->
<g id="edge3" class="edge">
<title>z1&#45;&gt;0</title>
<path fill="none" stroke="#000000" d="M887.75,-408.2C843.79,-397.29 749.29,-380.52 682,-416 642.72,-436.71 616.58,-482.07 602.05,-514.71"/>
<polygon fill="#000000" stroke="#000000" points="598.8,-513.4 598.08,-523.97 605.24,-516.16 598.8,-513.4"/>
<text text-anchor="middle" x="750" y="-635.4" font-family="Times,serif" font-size="32.00">dance |</text>
<text text-anchor="middle" x="750" y="-600.4" font-family="Times,serif" font-size="32.00"> smile |</text>
<text text-anchor="middle" x="750" y="-565.4" font-family="Times,serif" font-size="32.00"> jump |</text>
<text text-anchor="middle" x="750" y="-530.4" font-family="Times,serif" font-size="32.00"> laugh |</text>
<text text-anchor="middle" x="750" y="-495.4" font-family="Times,serif" font-size="32.00"> brag |</text>
<text text-anchor="middle" x="750" y="-460.4" font-family="Times,serif" font-size="32.00"> jog</text>
<text text-anchor="middle" x="750" y="-425.4" font-family="Times,serif" font-size="32.00">0</text>
</g>
<!-- 1&#45;&gt;t -->
<g id="edge4" class="edge">
<title>1&#45;&gt;t</title>
<path fill="none" stroke="#000000" d="M1189.07,-173.57C1140.38,-144.36 1022.29,-81 914,-81 914,-81 914,-81 260,-81 169.19,-81 136.48,-97.06 72,-161 55.08,-177.78 44.2,-202.16 37.5,-222.75"/>
<polygon fill="#000000" stroke="#000000" points="34.09,-221.93 34.54,-232.51 40.79,-223.96 34.09,-221.93"/>
<text text-anchor="middle" x="587" y="-125.4" font-family="Times,serif" font-size="32.00">ed</text>
<text text-anchor="middle" x="587" y="-90.4" font-family="Times,serif" font-size="32.00">=&gt;1 =d +k t</text>
</g>
<!-- prog -->
<g id="node9" class="node">
<title>prog</title>
<ellipse fill="none" stroke="black" cx="913" cy="-284" rx="52.15" ry="30.31"/>
<text text-anchor="middle" x="913" y="-275.9" font-family="Times,serif" font-size="32.00">prog</text>
</g>
<!-- 1&#45;&gt;prog -->
<g id="edge7" class="edge">
<title>1&#45;&gt;prog</title>
<path fill="none" stroke="#000000" d="M1186.85,-196.1C1138.93,-211.54 1033.57,-245.48 968.7,-266.38"/>
<polygon fill="#000000" stroke="#000000" points="967.48,-263.09 959.04,-269.49 969.63,-269.76 967.48,-263.09"/>
<text text-anchor="middle" x="1088" y="-297.4" font-family="Times,serif" font-size="32.00">ing</text>
<text text-anchor="middle" x="1088" y="-262.4" font-family="Times,serif" font-size="32.00">=&gt;1 =d prog</text>
</g>
<!-- perf -->
<g id="node10" class="node">
<title>perf</title>
<ellipse fill="none" stroke="black" cx="587" cy="-199" rx="48.17" ry="30.31"/>
<text text-anchor="middle" x="587" y="-190.9" font-family="Times,serif" font-size="32.00">perf</text>
</g>
<!-- 1&#45;&gt;perf -->
<g id="edge8" class="edge">
<title>1&#45;&gt;perf</title>
<path fill="none" stroke="#000000" d="M1185.97,-185.68C1108.79,-179.26 874.56,-163.06 682,-184 669.55,-185.35 656.24,-187.22 643.67,-189.18"/>
<polygon fill="#000000" stroke="#000000" points="643.1,-185.72 633.78,-190.76 644.2,-192.63 643.1,-185.72"/>
<text text-anchor="middle" x="913" y="-219.4" font-family="Times,serif" font-size="32.00">ed_1</text>
<text text-anchor="middle" x="913" y="-184.4" font-family="Times,serif" font-size="32.00">=&gt;1 =d perf</text>
</g>
<!-- z2 -->
<g id="node7" class="node">
<title>z2</title>
<ellipse fill="none" stroke="black" stroke-dasharray="5,2" cx="1452" cy="-188" rx="27" ry="18"/>
</g>
<!-- z2&#45;&gt;1 -->
<g id="edge5" class="edge">
<title>z2&#45;&gt;1</title>
<path fill="none" stroke="#000000" d="M1424.73,-188C1382.27,-188 1298.45,-188 1250.3,-188"/>
<polygon fill="#000000" stroke="#000000" points="1250.03,-184.5 1240.03,-188 1250.03,-191.5 1250.03,-184.5"/>
<text text-anchor="middle" x="1332.5" y="-407.4" font-family="Times,serif" font-size="32.00">danc |</text>
<text text-anchor="middle" x="1332.5" y="-372.4" font-family="Times,serif" font-size="32.00"> smil |</text>
<text text-anchor="middle" x="1332.5" y="-337.4" font-family="Times,serif" font-size="32.00"> jump_1 |</text>
<text text-anchor="middle" x="1332.5" y="-302.4" font-family="Times,serif" font-size="32.00"> laugh_1 |</text>
<text text-anchor="middle" x="1332.5" y="-267.4" font-family="Times,serif" font-size="32.00"> bragg |</text>
<text text-anchor="middle" x="1332.5" y="-232.4" font-family="Times,serif" font-size="32.00"> jogg</text>
<text text-anchor="middle" x="1332.5" y="-197.4" font-family="Times,serif" font-size="32.00">1</text>
</g>
<!-- v&#45;&gt;t -->
<g id="edge11" class="edge">
<title>v&#45;&gt;t</title>
<path fill="none" stroke="#000000" d="M236.47,-289.24C217.93,-279.93 191.11,-268.1 166,-263 131.96,-256.09 92.21,-256.69 64.14,-258.5"/>
<polygon fill="#000000" stroke="#000000" points="63.71,-255.02 53.99,-259.25 64.22,-262.01 63.71,-255.02"/>
<text text-anchor="middle" x="119" y="-342.4" font-family="Times,serif" font-size="32.00">will |</text>
<text text-anchor="middle" x="119" y="-307.4" font-family="Times,serif" font-size="32.00"> would</text>
<text text-anchor="middle" x="119" y="-272.4" font-family="Times,serif" font-size="32.00">=v +k t</text>
</g>
<!-- prog&#45;&gt;t -->
<g id="edge14" class="edge">
<title>prog&#45;&gt;t</title>
<path fill="none" stroke="#000000" d="M870.95,-302.55C822.61,-323.29 739.35,-355.58 664,-368 631.55,-373.35 99.35,-386.26 72,-368 50.2,-353.45 39.19,-325.87 33.63,-302.49"/>
<polygon fill="#000000" stroke="#000000" points="37,-301.5 31.51,-292.44 30.15,-302.95 37,-301.5"/>
<text text-anchor="middle" x="424" y="-455.4" font-family="Times,serif" font-size="32.00">is |</text>
<text text-anchor="middle" x="424" y="-420.4" font-family="Times,serif" font-size="32.00"> was</text>
<text text-anchor="middle" x="424" y="-385.4" font-family="Times,serif" font-size="32.00">=prog +k t</text>
</g>
<!-- prog&#45;&gt;v -->
<g id="edge15" class="edge">
<title>prog&#45;&gt;v</title>
<path fill="none" stroke="#000000" d="M860.72,-285.42C733.8,-288.93 407.36,-297.97 298.18,-301"/>
<polygon fill="#000000" stroke="#000000" points="297.91,-297.5 288.01,-301.28 298.1,-304.5 297.91,-297.5"/>
<text text-anchor="middle" x="587" y="-339.4" font-family="Times,serif" font-size="32.00">be</text>
<text text-anchor="middle" x="587" y="-304.4" font-family="Times,serif" font-size="32.00">=prog v</text>
</g>
<!-- prog&#45;&gt;perf -->
<g id="edge16" class="edge">
<title>prog&#45;&gt;perf</title>
<path fill="none" stroke="#000000" d="M870.36,-266C858.13,-259.21 845.5,-250.52 836,-240 822.94,-225.53 834.35,-210.62 818,-200 790.48,-182.12 703.47,-186.79 644.72,-192.42"/>
<polygon fill="#000000" stroke="#000000" points="644.06,-188.97 634.46,-193.44 644.76,-195.94 644.06,-188.97"/>
<text text-anchor="middle" x="750" y="-244.4" font-family="Times,serif" font-size="32.00">been</text>
<text text-anchor="middle" x="750" y="-209.4" font-family="Times,serif" font-size="32.00">=prog perf</text>
</g>
<!-- perf&#45;&gt;t -->
<g id="edge12" class="edge">
<title>perf&#45;&gt;t</title>
<path fill="none" stroke="#000000" d="M545.37,-183.71C529.01,-178.16 509.83,-172.43 492,-169 357.49,-143.11 315.1,-118.31 184,-158 133.88,-173.17 85.15,-210.35 55.85,-235.88"/>
<polygon fill="#000000" stroke="#000000" points="53.27,-233.49 48.12,-242.74 57.92,-238.72 53.27,-233.49"/>
<text text-anchor="middle" x="261" y="-237.4" font-family="Times,serif" font-size="32.00">has |</text>
<text text-anchor="middle" x="261" y="-202.4" font-family="Times,serif" font-size="32.00"> had</text>
<text text-anchor="middle" x="261" y="-167.4" font-family="Times,serif" font-size="32.00">=perf +k t</text>
</g>
<!-- perf&#45;&gt;v -->
<g id="edge13" class="edge">
<title>perf&#45;&gt;v</title>
<path fill="none" stroke="#000000" d="M543.6,-185.47C493.6,-172.35 410.4,-159.74 356,-200 334.3,-216.06 354.83,-236.9 338,-258 327.24,-271.49 311.13,-281.65 296.51,-288.79"/>
<polygon fill="#000000" stroke="#000000" points="294.83,-285.71 287.19,-293.06 297.74,-292.08 294.83,-285.71"/>
<text text-anchor="middle" x="424" y="-244.4" font-family="Times,serif" font-size="32.00">have</text>
<text text-anchor="middle" x="424" y="-209.4" font-family="Times,serif" font-size="32.00">=perf v</text>
</g>
</g>
</svg>
