<?xml version="1.0" encoding="UTF-8" standalone="no"?>
<!DOCTYPE svg PUBLIC "-//W3C//DTD SVG 1.1//EN"
 "http://www.w3.org/Graphics/SVG/1.1/DTD/svg11.dtd">
<!-- Generated by graphviz version 2.47.1 (20210417.1919)
 -->
<!-- Title: G Pages: 1 -->
<svg width="1862pt" height="904pt"
 viewBox="0.00 0.00 1862.00 903.77" xmlns="http://www.w3.org/2000/svg" xmlns:xlink="http://www.w3.org/1999/xlink">
<g id="graph0" class="graph" transform="scale(1 1) rotate(0) translate(4 899.77)">
<title>G</title>
<polygon fill="white" stroke="transparent" points="-4,4 -4,-899.77 1858,-899.77 1858,4 -4,4"/>
<text text-anchor="middle" x="927" y="-13.4" font-family="Times,serif" font-size="32.00">single contraction: 3 → 2</text>
<!-- t -->
<g id="node1" class="node">
<title>t</title>
<ellipse fill="lightgray" stroke="black" cx="27" cy="-308.77" rx="27" ry="30.31"/>
<text text-anchor="middle" x="27" y="-300.67" font-family="Times,serif" font-size="32.00">t</text>
</g>
<!-- z0 -->
<g id="node2" class="node">
<title>z0</title>
<ellipse fill="none" stroke="black" stroke-dasharray="5,2" cx="1827" cy="-444.77" rx="27" ry="18"/>
</g>
<!-- d -->
<g id="node3" class="node">
<title>d</title>
<ellipse fill="none" stroke="black" cx="1667" cy="-444.77" rx="27" ry="30.31"/>
<text text-anchor="middle" x="1667" y="-436.67" font-family="Times,serif" font-size="32.00">d</text>
</g>
<!-- z0&#45;&gt;d -->
<g id="edge1" class="edge">
<title>z0&#45;&gt;d</title>
<path fill="none" stroke="#000000" d="M1799.91,-444.77C1773.84,-444.77 1733.53,-444.77 1704.34,-444.77"/>
<polygon fill="#000000" stroke="#000000" points="1704.13,-441.27 1694.13,-444.77 1704.13,-448.27 1704.13,-441.27"/>
<text text-anchor="middle" x="1747" y="-489.17" font-family="Times,serif" font-size="32.00">Mary</text>
<text text-anchor="middle" x="1747" y="-454.17" font-family="Times,serif" font-size="32.00">d &#45;k</text>
</g>
<!-- 0 -->
<g id="node4" class="node">
<title>0</title>
<ellipse fill="none" stroke="black" cx="1188" cy="-551.77" rx="27" ry="30.31"/>
<text text-anchor="middle" x="1188" y="-543.67" font-family="Times,serif" font-size="32.00">0</text>
</g>
<!-- d&#45;&gt;0 -->
<g id="edge9" class="edge">
<title>d&#45;&gt;0</title>
<path fill="none" stroke="#000000" d="M1655.18,-472.42C1648.01,-486.92 1637.12,-503.54 1622,-512.77 1555.86,-553.18 1317.18,-553.85 1225.35,-552.54"/>
<polygon fill="#000000" stroke="#000000" points="1225.21,-549.04 1215.15,-552.38 1225.1,-556.04 1225.21,-549.04"/>
<text text-anchor="middle" x="1439" y="-630.17" font-family="Times,serif" font-size="32.00">like |</text>
<text text-anchor="middle" x="1439" y="-595.17" font-family="Times,serif" font-size="32.00"> destroy</text>
<text text-anchor="middle" x="1439" y="-560.17" font-family="Times,serif" font-size="32.00">=d *k 0</text>
</g>
<!-- 1 -->
<g id="node6" class="node">
<title>1</title>
<ellipse fill="none" stroke="black" cx="1188" cy="-195.77" rx="27" ry="30.31"/>
<text text-anchor="middle" x="1188" y="-187.67" font-family="Times,serif" font-size="32.00">1</text>
</g>
<!-- d&#45;&gt;1 -->
<g id="edge10" class="edge">
<title>d&#45;&gt;1</title>
<path fill="none" stroke="#000000" d="M1659.23,-415.46C1651.86,-385.66 1638.83,-338.49 1622,-299.77 1581.03,-205.53 1595.04,-151.06 1506,-99.77 1409.12,-43.96 1276.53,-128.31 1218.37,-172.11"/>
<polygon fill="#000000" stroke="#000000" points="1216.16,-169.39 1210.34,-178.25 1220.41,-174.95 1216.16,-169.39"/>
<text text-anchor="middle" x="1439" y="-179.17" font-family="Times,serif" font-size="32.00">lik |</text>
<text text-anchor="middle" x="1439" y="-144.17" font-family="Times,serif" font-size="32.00"> destroy_1</text>
<text text-anchor="middle" x="1439" y="-109.17" font-family="Times,serif" font-size="32.00">=d *k 1</text>
</g>
<!-- 2 -->
<g id="node11" class="node">
<title>2</title>
<ellipse fill="none" stroke="black" cx="1439" cy="-398.77" rx="27" ry="30.31"/>
<text text-anchor="middle" x="1439" y="-390.67" font-family="Times,serif" font-size="32.00">2</text>
</g>
<!-- d&#45;&gt;2 -->
<g id="edge14" class="edge">
<title>d&#45;&gt;2</title>
<path fill="none" stroke="#000000" d="M1639.91,-441.72C1611.29,-438.14 1564.08,-431.57 1524,-422.77 1507.75,-419.21 1490,-414.29 1475.03,-409.84"/>
<polygon fill="#000000" stroke="#000000" points="1475.74,-406.39 1465.15,-406.85 1473.71,-413.09 1475.74,-406.39"/>
<text text-anchor="middle" x="1573" y="-483.17" font-family="Times,serif" font-size="32.00">hu</text>
<text text-anchor="middle" x="1573" y="-448.17" font-family="Times,serif" font-size="32.00">=d *k 2</text>
</g>
<!-- 0&#45;&gt;t -->
<g id="edge2" class="edge">
<title>0&#45;&gt;t</title>
<path fill="none" stroke="#000000" d="M1160.69,-551.77C1108.75,-551.77 989.37,-551.77 889,-551.77 889,-551.77 889,-551.77 247.5,-551.77 154,-551.77 129.34,-509.63 72,-435.77 52.21,-410.28 40.96,-375.25 34.8,-348.44"/>
<polygon fill="#000000" stroke="#000000" points="38.21,-347.64 32.68,-338.61 31.36,-349.12 38.21,-347.64"/>
<text text-anchor="middle" x="562" y="-596.17" font-family="Times,serif" font-size="32.00">s</text>
<text text-anchor="middle" x="562" y="-561.17" font-family="Times,serif" font-size="32.00">=&gt;0 =d +k t</text>
</g>
<!-- v -->
<g id="node8" class="node">
<title>v</title>
<ellipse fill="none" stroke="black" cx="248.5" cy="-348.77" rx="27" ry="30.31"/>
<text text-anchor="middle" x="248.5" y="-340.67" font-family="Times,serif" font-size="32.00">v</text>
</g>
<!-- 0&#45;&gt;v -->
<g id="edge6" class="edge">
<title>0&#45;&gt;v</title>
<path fill="none" stroke="#000000" d="M1162.01,-543.29C1155.83,-541.34 1149.21,-539.38 1143,-537.77 989.4,-498.11 948.96,-496.78 793,-467.77 656.44,-442.37 620.5,-445.33 485,-414.77 412.99,-398.53 330.18,-373.91 284.44,-359.78"/>
<polygon fill="#000000" stroke="#000000" points="285.31,-356.39 274.72,-356.76 283.23,-363.07 285.31,-356.39"/>
<text text-anchor="middle" x="725" y="-512.17" font-family="Times,serif" font-size="32.00">ε_0</text>
<text text-anchor="middle" x="725" y="-477.17" font-family="Times,serif" font-size="32.00">=&gt;0 =d v</text>
</g>
<!-- z1 -->
<g id="node5" class="node">
<title>z1</title>
<ellipse fill="none" stroke="black" stroke-dasharray="5,2" cx="1439" cy="-694.77" rx="27" ry="18"/>
</g>
<!-- z1&#45;&gt;0 -->
<g id="edge3" class="edge">
<title>z1&#45;&gt;0</title>
<path fill="none" stroke="#000000" d="M1416.34,-684.9C1403.33,-678.81 1386.54,-670.68 1372,-662.77 1317.54,-633.14 1256.33,-594.98 1220.3,-572"/>
<polygon fill="#000000" stroke="#000000" points="1222.02,-568.94 1211.71,-566.49 1218.24,-574.83 1222.02,-568.94"/>
<text text-anchor="middle" x="1293.5" y="-870.17" font-family="Times,serif" font-size="32.00">dance |</text>
<text text-anchor="middle" x="1293.5" y="-835.17" font-family="Times,serif" font-size="32.00"> smile |</text>
<text text-anchor="middle" x="1293.5" y="-800.17" font-family="Times,serif" font-size="32.00"> jump |</text>
<text text-anchor="middle" x="1293.5" y="-765.17" font-family="Times,serif" font-size="32.00"> laugh |</text>
<text text-anchor="middle" x="1293.5" y="-730.17" font-family="Times,serif" font-size="32.00"> brag |</text>
<text text-anchor="middle" x="1293.5" y="-695.17" font-family="Times,serif" font-size="32.00"> jog</text>
<text text-anchor="middle" x="1293.5" y="-660.17" font-family="Times,serif" font-size="32.00">0</text>
</g>
<!-- 1&#45;&gt;t -->
<g id="edge4" class="edge">
<title>1&#45;&gt;t</title>
<path fill="none" stroke="#000000" d="M1162.32,-186.17C1111.83,-167.43 992.74,-127.77 889,-127.77 889,-127.77 889,-127.77 247.5,-127.77 161.78,-127.77 132.1,-146.65 72,-207.77 55.29,-224.77 44.42,-249.15 37.67,-269.7"/>
<polygon fill="#000000" stroke="#000000" points="34.27,-268.84 34.68,-279.43 40.96,-270.9 34.27,-268.84"/>
<text text-anchor="middle" x="562" y="-172.17" font-family="Times,serif" font-size="32.00">ed</text>
<text text-anchor="middle" x="562" y="-137.17" font-family="Times,serif" font-size="32.00">=&gt;1 =d +k t</text>
</g>
<!-- prog -->
<g id="node9" class="node">
<title>prog</title>
<ellipse fill="none" stroke="black" cx="888" cy="-327.77" rx="52.15" ry="30.31"/>
<text text-anchor="middle" x="888" y="-319.67" font-family="Times,serif" font-size="32.00">prog</text>
</g>
<!-- 1&#45;&gt;prog -->
<g id="edge7" class="edge">
<title>1&#45;&gt;prog</title>
<path fill="none" stroke="#000000" d="M1163.42,-208.52C1156.86,-211.95 1149.7,-215.59 1143,-218.77 1074.04,-251.53 992.69,-285.67 940.99,-306.82"/>
<polygon fill="#000000" stroke="#000000" points="939.62,-303.6 931.69,-310.62 942.27,-310.08 939.62,-303.6"/>
<text text-anchor="middle" x="1063" y="-333.17" font-family="Times,serif" font-size="32.00">ing</text>
<text text-anchor="middle" x="1063" y="-298.17" font-family="Times,serif" font-size="32.00">=&gt;1 =d prog</text>
</g>
<!-- perf -->
<g id="node10" class="node">
<title>perf</title>
<ellipse fill="none" stroke="black" cx="562" cy="-245.77" rx="48.17" ry="30.31"/>
<text text-anchor="middle" x="562" y="-237.67" font-family="Times,serif" font-size="32.00">perf</text>
</g>
<!-- 1&#45;&gt;perf -->
<g id="edge8" class="edge">
<title>1&#45;&gt;perf</title>
<path fill="none" stroke="#000000" d="M1160.87,-194.89C1083.41,-192.73 848.49,-189.35 657,-219.77 643.14,-221.97 628.4,-225.48 614.81,-229.2"/>
<polygon fill="#000000" stroke="#000000" points="613.8,-225.85 605.14,-231.94 615.71,-232.59 613.8,-225.85"/>
<text text-anchor="middle" x="888" y="-247.17" font-family="Times,serif" font-size="32.00">ed_1</text>
<text text-anchor="middle" x="888" y="-212.17" font-family="Times,serif" font-size="32.00">=&gt;1 =d perf</text>
</g>
<!-- z2 -->
<g id="node7" class="node">
<title>z2</title>
<ellipse fill="none" stroke="black" stroke-dasharray="5,2" cx="1439" cy="-231.77" rx="27" ry="18"/>
</g>
<!-- z2&#45;&gt;1 -->
<g id="edge5" class="edge">
<title>z2&#45;&gt;1</title>
<path fill="none" stroke="#000000" d="M1414.99,-223.37C1401.67,-217.85 1385.01,-209.8 1372,-199.77 1362.26,-192.27 1365.17,-183.91 1354,-178.77 1305.14,-156.3 1285.87,-168.91 1233,-178.77 1229.6,-179.41 1226.12,-180.3 1222.68,-181.34"/>
<polygon fill="#000000" stroke="#000000" points="1221.52,-178.03 1213.2,-184.59 1223.79,-184.65 1221.52,-178.03"/>
<text text-anchor="middle" x="1293.5" y="-328.17" font-family="Times,serif" font-size="32.00">danc |</text>
<text text-anchor="middle" x="1293.5" y="-293.17" font-family="Times,serif" font-size="32.00"> smil |</text>
<text text-anchor="middle" x="1293.5" y="-258.17" font-family="Times,serif" font-size="32.00"> jump_1 |</text>
<text text-anchor="middle" x="1293.5" y="-223.17" font-family="Times,serif" font-size="32.00"> laugh_1</text>
<text text-anchor="middle" x="1293.5" y="-188.17" font-family="Times,serif" font-size="32.00">1</text>
</g>
<!-- v&#45;&gt;t -->
<g id="edge15" class="edge">
<title>v&#45;&gt;t</title>
<path fill="none" stroke="#000000" d="M224.61,-334.46C208.81,-325.43 186.94,-314.6 166,-309.77 132.15,-301.96 92.38,-302.68 64.25,-304.77"/>
<polygon fill="#000000" stroke="#000000" points="63.75,-301.3 54.08,-305.62 64.34,-308.27 63.75,-301.3"/>
<text text-anchor="middle" x="119" y="-389.17" font-family="Times,serif" font-size="32.00">will |</text>
<text text-anchor="middle" x="119" y="-354.17" font-family="Times,serif" font-size="32.00"> would</text>
<text text-anchor="middle" x="119" y="-319.17" font-family="Times,serif" font-size="32.00">=v +k t</text>
</g>
<!-- prog&#45;&gt;t -->
<g id="edge18" class="edge">
<title>prog&#45;&gt;t</title>
<path fill="none" stroke="#000000" d="M846.88,-346.6C798.75,-368.06 715.02,-401.83 639,-414.77 576.89,-425.35 124.4,-449.75 72,-414.77 50.2,-400.22 39.19,-372.64 33.63,-349.26"/>
<polygon fill="#000000" stroke="#000000" points="37,-348.27 31.51,-339.21 30.15,-349.72 37,-348.27"/>
<text text-anchor="middle" x="399" y="-511.17" font-family="Times,serif" font-size="32.00">is |</text>
<text text-anchor="middle" x="399" y="-476.17" font-family="Times,serif" font-size="32.00"> was</text>
<text text-anchor="middle" x="399" y="-441.17" font-family="Times,serif" font-size="32.00">=prog +k t</text>
</g>
<!-- prog&#45;&gt;v -->
<g id="edge19" class="edge">
<title>prog&#45;&gt;v</title>
<path fill="none" stroke="#000000" d="M835.64,-329.46C710.62,-333.58 392.9,-344.05 285.56,-347.58"/>
<polygon fill="#000000" stroke="#000000" points="285.43,-344.09 275.55,-347.91 285.66,-351.08 285.43,-344.09"/>
<text text-anchor="middle" x="562" y="-385.17" font-family="Times,serif" font-size="32.00">be</text>
<text text-anchor="middle" x="562" y="-350.17" font-family="Times,serif" font-size="32.00">=prog v</text>
</g>
<!-- prog&#45;&gt;perf -->
<g id="edge20" class="edge">
<title>prog&#45;&gt;perf</title>
<path fill="none" stroke="#000000" d="M848.33,-307.86C835.43,-299.98 821.65,-290.09 811,-278.77 799.81,-266.89 807.07,-255.04 793,-246.77 739.22,-215.16 665.41,-221.76 616.06,-231.71"/>
<polygon fill="#000000" stroke="#000000" points="615.28,-228.3 606.22,-233.8 616.73,-235.14 615.28,-228.3"/>
<text text-anchor="middle" x="725" y="-291.17" font-family="Times,serif" font-size="32.00">been</text>
<text text-anchor="middle" x="725" y="-256.17" font-family="Times,serif" font-size="32.00">=prog perf</text>
</g>
<!-- perf&#45;&gt;t -->
<g id="edge16" class="edge">
<title>perf&#45;&gt;t</title>
<path fill="none" stroke="#000000" d="M519.85,-230.85C449.47,-207.62 302.15,-169 184,-204.77 133.88,-219.95 85.15,-257.12 55.85,-282.65"/>
<polygon fill="#000000" stroke="#000000" points="53.27,-280.26 48.12,-289.51 57.92,-285.49 53.27,-280.26"/>
<text text-anchor="middle" x="248.5" y="-284.17" font-family="Times,serif" font-size="32.00">has |</text>
<text text-anchor="middle" x="248.5" y="-249.17" font-family="Times,serif" font-size="32.00"> had</text>
<text text-anchor="middle" x="248.5" y="-214.17" font-family="Times,serif" font-size="32.00">=perf +k t</text>
</g>
<!-- perf&#45;&gt;v -->
<g id="edge17" class="edge">
<title>perf&#45;&gt;v</title>
<path fill="none" stroke="#000000" d="M518.6,-232.25C468.6,-219.12 385.4,-206.51 331,-246.77 309.3,-262.83 328.96,-283.01 313,-304.77 304.99,-315.7 293.41,-324.85 282.34,-331.93"/>
<polygon fill="#000000" stroke="#000000" points="280.4,-329 273.63,-337.15 284.01,-335 280.4,-329"/>
<text text-anchor="middle" x="399" y="-291.17" font-family="Times,serif" font-size="32.00">have</text>
<text text-anchor="middle" x="399" y="-256.17" font-family="Times,serif" font-size="32.00">=perf v</text>
</g>
<!-- 2&#45;&gt;0 -->
<g id="edge13" class="edge">
<title>2&#45;&gt;0</title>
<path fill="none" stroke="#000000" d="M1415.48,-414.39C1399.11,-425.04 1376.06,-438.63 1354,-446.77 1302.64,-465.72 1277.13,-437.39 1233,-469.77 1218.33,-480.54 1208.05,-497.7 1201.14,-513.55"/>
<polygon fill="#000000" stroke="#000000" points="1197.75,-512.6 1197.26,-523.18 1204.25,-515.21 1197.75,-512.6"/>
<text text-anchor="middle" x="1293.5" y="-514.17" font-family="Times,serif" font-size="32.00">g</text>
<text text-anchor="middle" x="1293.5" y="-479.17" font-family="Times,serif" font-size="32.00">=&gt;2 0</text>
</g>
<!-- 2&#45;&gt;1 -->
<g id="edge11" class="edge">
<title>2&#45;&gt;1</title>
<path fill="none" stroke="#000000" d="M1412.9,-389.96C1396.34,-384.41 1374.08,-377.43 1354,-372.77 1300.97,-360.47 1273.66,-389.97 1233,-353.77 1200.1,-324.47 1190.89,-272.87 1188.76,-236.63"/>
<polygon fill="#000000" stroke="#000000" points="1192.25,-236.23 1188.32,-226.39 1185.25,-236.53 1192.25,-236.23"/>
<text text-anchor="middle" x="1293.5" y="-417.17" font-family="Times,serif" font-size="32.00">gg</text>
<text text-anchor="middle" x="1293.5" y="-382.17" font-family="Times,serif" font-size="32.00">=&gt;2 1</text>
</g>
<!-- z3 -->
<g id="node12" class="node">
<title>z3</title>
<ellipse fill="none" stroke="black" stroke-dasharray="5,2" cx="1667" cy="-316.77" rx="27" ry="18"/>
</g>
<!-- z3&#45;&gt;2 -->
<g id="edge12" class="edge">
<title>z3&#45;&gt;2</title>
<path fill="none" stroke="#000000" d="M1641.53,-310.46C1612.31,-304.2 1562.57,-297.66 1524,-313.77 1498.49,-324.43 1476.77,-347.03 1461.81,-366.25"/>
<polygon fill="#000000" stroke="#000000" points="1458.82,-364.4 1455.63,-374.51 1464.42,-368.6 1458.82,-364.4"/>
<text text-anchor="middle" x="1573" y="-393.17" font-family="Times,serif" font-size="32.00">bra |</text>
<text text-anchor="middle" x="1573" y="-358.17" font-family="Times,serif" font-size="32.00"> jo</text>
<text text-anchor="middle" x="1573" y="-323.17" font-family="Times,serif" font-size="32.00">2</text>
</g>
</g>
</svg>
