<?xml version="1.0" encoding="UTF-8" standalone="no"?>
<!DOCTYPE svg PUBLIC "-//W3C//DTD SVG 1.1//EN"
 "http://www.w3.org/Graphics/SVG/1.1/DTD/svg11.dtd">
<!-- Generated by graphviz version 2.47.1 (20210417.1919)
 -->
<!-- Title: G Pages: 1 -->
<svg width="1951pt" height="904pt"
 viewBox="0.00 0.00 1951.00 903.77" xmlns="http://www.w3.org/2000/svg" xmlns:xlink="http://www.w3.org/1999/xlink">
<g id="graph0" class="graph" transform="scale(1 1) rotate(0) translate(4 899.77)">
<title>G</title>
<polygon fill="white" stroke="transparent" points="-4,4 -4,-899.77 1947,-899.77 1947,4 -4,4"/>
<text text-anchor="middle" x="971.5" y="-13.4" font-family="Times,serif" font-size="32.00">decomposition: s =&gt;0 =d +k t, has =perf +k t, was =prog +k t, is =prog +k t, ed =&gt;1 =d +k t, would =v +k t, had =perf +k t, will =v +k t</text>
<!-- t -->
<g id="node1" class="node">
<title>t</title>
<ellipse fill="lightgray" stroke="black" cx="27" cy="-308.77" rx="27" ry="30.31"/>
<text text-anchor="middle" x="27" y="-300.67" font-family="Times,serif" font-size="32.00">t</text>
</g>
<!-- z0 -->
<g id="node2" class="node">
<title>z0</title>
<ellipse fill="none" stroke="black" stroke-dasharray="5,2" cx="1916" cy="-444.77" rx="27" ry="18"/>
</g>
<!-- d -->
<g id="node3" class="node">
<title>d</title>
<ellipse fill="none" stroke="black" cx="1756" cy="-444.77" rx="27" ry="30.31"/>
<text text-anchor="middle" x="1756" y="-436.67" font-family="Times,serif" font-size="32.00">d</text>
</g>
<!-- z0&#45;&gt;d -->
<g id="edge1" class="edge">
<title>z0&#45;&gt;d</title>
<path fill="none" stroke="#000000" d="M1888.91,-444.77C1862.84,-444.77 1822.53,-444.77 1793.34,-444.77"/>
<polygon fill="#000000" stroke="#000000" points="1793.13,-441.27 1783.13,-444.77 1793.13,-448.27 1793.13,-441.27"/>
<text text-anchor="middle" x="1836" y="-489.17" font-family="Times,serif" font-size="32.00">Mary</text>
<text text-anchor="middle" x="1836" y="-454.17" font-family="Times,serif" font-size="32.00">d &#45;k</text>
</g>
<!-- 1 -->
<g id="node5" class="node">
<title>1</title>
<ellipse fill="none" stroke="black" cx="1277" cy="-551.77" rx="27" ry="30.31"/>
<text text-anchor="middle" x="1277" y="-543.67" font-family="Times,serif" font-size="32.00">1</text>
</g>
<!-- d&#45;&gt;1 -->
<g id="edge10" class="edge">
<title>d&#45;&gt;1</title>
<path fill="none" stroke="#000000" d="M1744.18,-472.42C1737.01,-486.92 1726.12,-503.54 1711,-512.77 1644.86,-553.18 1406.18,-553.85 1314.35,-552.54"/>
<polygon fill="#000000" stroke="#000000" points="1314.21,-549.04 1304.15,-552.38 1314.1,-556.04 1314.21,-549.04"/>
<text text-anchor="middle" x="1528" y="-630.17" font-family="Times,serif" font-size="32.00">like |</text>
<text text-anchor="middle" x="1528" y="-595.17" font-family="Times,serif" font-size="32.00"> destroy</text>
<text text-anchor="middle" x="1528" y="-560.17" font-family="Times,serif" font-size="32.00">=d *k 1</text>
</g>
<!-- 2 -->
<g id="node7" class="node">
<title>2</title>
<ellipse fill="none" stroke="black" cx="1277" cy="-195.77" rx="27" ry="30.31"/>
<text text-anchor="middle" x="1277" y="-187.67" font-family="Times,serif" font-size="32.00">2</text>
</g>
<!-- d&#45;&gt;2 -->
<g id="edge11" class="edge">
<title>d&#45;&gt;2</title>
<path fill="none" stroke="#000000" d="M1748.23,-415.46C1740.86,-385.66 1727.83,-338.49 1711,-299.77 1670.03,-205.53 1684.04,-151.06 1595,-99.77 1498.12,-43.96 1365.53,-128.31 1307.37,-172.11"/>
<polygon fill="#000000" stroke="#000000" points="1305.16,-169.39 1299.34,-178.25 1309.41,-174.95 1305.16,-169.39"/>
<text text-anchor="middle" x="1528" y="-179.17" font-family="Times,serif" font-size="32.00">lik |</text>
<text text-anchor="middle" x="1528" y="-144.17" font-family="Times,serif" font-size="32.00"> destroy_1</text>
<text text-anchor="middle" x="1528" y="-109.17" font-family="Times,serif" font-size="32.00">=d *k 2</text>
</g>
<!-- 3 -->
<g id="node12" class="node">
<title>3</title>
<ellipse fill="none" stroke="black" cx="1528" cy="-398.77" rx="27" ry="30.31"/>
<text text-anchor="middle" x="1528" y="-390.67" font-family="Times,serif" font-size="32.00">3</text>
</g>
<!-- d&#45;&gt;3 -->
<g id="edge15" class="edge">
<title>d&#45;&gt;3</title>
<path fill="none" stroke="#000000" d="M1728.91,-441.72C1700.29,-438.14 1653.08,-431.57 1613,-422.77 1596.75,-419.21 1579,-414.29 1564.03,-409.84"/>
<polygon fill="#000000" stroke="#000000" points="1564.74,-406.39 1554.15,-406.85 1562.71,-413.09 1564.74,-406.39"/>
<text text-anchor="middle" x="1662" y="-483.17" font-family="Times,serif" font-size="32.00">hu</text>
<text text-anchor="middle" x="1662" y="-448.17" font-family="Times,serif" font-size="32.00">=d *k 3</text>
</g>
<!-- 0 -->
<g id="node4" class="node">
<title>0</title>
<ellipse fill="none" stroke="black" cx="229" cy="-308.77" rx="27" ry="30.31"/>
<text text-anchor="middle" x="229" y="-300.67" font-family="Times,serif" font-size="32.00">0</text>
</g>
<!-- 0&#45;&gt;t -->
<g id="edge2" class="edge">
<title>0&#45;&gt;t</title>
<path fill="none" stroke="#f7931d" stroke-width="2" d="M201.85,-308.77C166.67,-308.77 103.92,-308.77 64.21,-308.77"/>
<polygon fill="#f7931d" stroke="#f7931d" stroke-width="2" points="64.15,-305.27 54.15,-308.77 64.15,-312.27 64.15,-305.27"/>
<text text-anchor="middle" x="128" y="-353.17" font-family="Times,serif" font-size="32.00">ε_0</text>
<text text-anchor="middle" x="128" y="-318.17" font-family="Times,serif" font-size="32.00">=&gt;0 +k t</text>
</g>
<!-- 1&#45;&gt;0 -->
<g id="edge3" class="edge">
<title>1&#45;&gt;0</title>
<path fill="none" stroke="#f7931d" stroke-width="2" d="M1249.69,-551.77C1197.75,-551.77 1078.37,-551.77 978,-551.77 978,-551.77 978,-551.77 426,-551.77 340.75,-551.77 323.91,-503.89 274,-434.77 255.44,-409.07 244.15,-374.84 237.66,-348.55"/>
<polygon fill="#f7931d" stroke="#f7931d" stroke-width="2" points="241.01,-347.48 235.32,-338.54 234.19,-349.07 241.01,-347.48"/>
<text text-anchor="middle" x="669" y="-596.17" font-family="Times,serif" font-size="32.00">s</text>
<text text-anchor="middle" x="669" y="-561.17" font-family="Times,serif" font-size="32.00">=&gt;1 =d 0</text>
</g>
<!-- v -->
<g id="node9" class="node">
<title>v</title>
<ellipse fill="none" stroke="black" cx="427" cy="-348.77" rx="27" ry="30.31"/>
<text text-anchor="middle" x="427" y="-340.67" font-family="Times,serif" font-size="32.00">v</text>
</g>
<!-- 1&#45;&gt;v -->
<g id="edge7" class="edge">
<title>1&#45;&gt;v</title>
<path fill="none" stroke="#000000" d="M1251.01,-543.29C1244.83,-541.34 1238.21,-539.38 1232,-537.77 1078.4,-498.11 1037.69,-498.22 882,-467.77 761.21,-444.15 728.59,-448.7 610,-415.77 557.36,-401.16 498.34,-378.16 462.17,-363.27"/>
<polygon fill="#000000" stroke="#000000" points="463.18,-359.9 452.6,-359.3 460.5,-366.36 463.18,-359.9"/>
<text text-anchor="middle" x="814" y="-512.17" font-family="Times,serif" font-size="32.00">ε_1</text>
<text text-anchor="middle" x="814" y="-477.17" font-family="Times,serif" font-size="32.00">=&gt;1 =d v</text>
</g>
<!-- z1 -->
<g id="node6" class="node">
<title>z1</title>
<ellipse fill="none" stroke="black" stroke-dasharray="5,2" cx="1528" cy="-694.77" rx="27" ry="18"/>
</g>
<!-- z1&#45;&gt;1 -->
<g id="edge4" class="edge">
<title>z1&#45;&gt;1</title>
<path fill="none" stroke="#000000" d="M1505.34,-684.9C1492.33,-678.81 1475.54,-670.68 1461,-662.77 1406.54,-633.14 1345.33,-594.98 1309.3,-572"/>
<polygon fill="#000000" stroke="#000000" points="1311.02,-568.94 1300.71,-566.49 1307.24,-574.83 1311.02,-568.94"/>
<text text-anchor="middle" x="1382.5" y="-870.17" font-family="Times,serif" font-size="32.00">dance |</text>
<text text-anchor="middle" x="1382.5" y="-835.17" font-family="Times,serif" font-size="32.00"> smile |</text>
<text text-anchor="middle" x="1382.5" y="-800.17" font-family="Times,serif" font-size="32.00"> jump |</text>
<text text-anchor="middle" x="1382.5" y="-765.17" font-family="Times,serif" font-size="32.00"> laugh |</text>
<text text-anchor="middle" x="1382.5" y="-730.17" font-family="Times,serif" font-size="32.00"> brag |</text>
<text text-anchor="middle" x="1382.5" y="-695.17" font-family="Times,serif" font-size="32.00"> jog</text>
<text text-anchor="middle" x="1382.5" y="-660.17" font-family="Times,serif" font-size="32.00">1</text>
</g>
<!-- 2&#45;&gt;0 -->
<g id="edge5" class="edge">
<title>2&#45;&gt;0</title>
<path fill="none" stroke="#f7931d" stroke-width="2" d="M1251.32,-186.17C1200.83,-167.43 1081.74,-127.77 978,-127.77 978,-127.77 978,-127.77 426,-127.77 349.45,-127.77 326.06,-152.65 274,-208.77 258.04,-225.98 247.23,-249.92 240.32,-270.06"/>
<polygon fill="#f7931d" stroke="#f7931d" stroke-width="2" points="236.98,-269.01 237.23,-279.6 243.64,-271.16 236.98,-269.01"/>
<text text-anchor="middle" x="669" y="-172.17" font-family="Times,serif" font-size="32.00">ed</text>
<text text-anchor="middle" x="669" y="-137.17" font-family="Times,serif" font-size="32.00">=&gt;2 =d 0</text>
</g>
<!-- prog -->
<g id="node10" class="node">
<title>prog</title>
<ellipse fill="none" stroke="black" cx="977" cy="-327.77" rx="52.15" ry="30.31"/>
<text text-anchor="middle" x="977" y="-319.67" font-family="Times,serif" font-size="32.00">prog</text>
</g>
<!-- 2&#45;&gt;prog -->
<g id="edge8" class="edge">
<title>2&#45;&gt;prog</title>
<path fill="none" stroke="#000000" d="M1252.42,-208.52C1245.86,-211.95 1238.7,-215.59 1232,-218.77 1163.04,-251.53 1081.69,-285.67 1029.99,-306.82"/>
<polygon fill="#000000" stroke="#000000" points="1028.62,-303.6 1020.69,-310.62 1031.27,-310.08 1028.62,-303.6"/>
<text text-anchor="middle" x="1152" y="-333.17" font-family="Times,serif" font-size="32.00">ing</text>
<text text-anchor="middle" x="1152" y="-298.17" font-family="Times,serif" font-size="32.00">=&gt;2 =d prog</text>
</g>
<!-- perf -->
<g id="node11" class="node">
<title>perf</title>
<ellipse fill="none" stroke="black" cx="669" cy="-245.77" rx="48.17" ry="30.31"/>
<text text-anchor="middle" x="669" y="-237.67" font-family="Times,serif" font-size="32.00">perf</text>
</g>
<!-- 2&#45;&gt;perf -->
<g id="edge9" class="edge">
<title>2&#45;&gt;perf</title>
<path fill="none" stroke="#000000" d="M1249.81,-194.7C1172.19,-192.03 936.88,-187.54 746,-221.77 737.68,-223.26 729,-225.41 720.61,-227.82"/>
<polygon fill="#000000" stroke="#000000" points="719.5,-224.5 710.93,-230.73 721.52,-231.2 719.5,-224.5"/>
<text text-anchor="middle" x="977" y="-246.17" font-family="Times,serif" font-size="32.00">ed_1</text>
<text text-anchor="middle" x="977" y="-211.17" font-family="Times,serif" font-size="32.00">=&gt;2 =d perf</text>
</g>
<!-- z2 -->
<g id="node8" class="node">
<title>z2</title>
<ellipse fill="none" stroke="black" stroke-dasharray="5,2" cx="1528" cy="-231.77" rx="27" ry="18"/>
</g>
<!-- z2&#45;&gt;2 -->
<g id="edge6" class="edge">
<title>z2&#45;&gt;2</title>
<path fill="none" stroke="#000000" d="M1503.99,-223.37C1490.67,-217.85 1474.01,-209.8 1461,-199.77 1451.26,-192.27 1454.17,-183.91 1443,-178.77 1394.14,-156.3 1374.87,-168.91 1322,-178.77 1318.6,-179.41 1315.12,-180.3 1311.68,-181.34"/>
<polygon fill="#000000" stroke="#000000" points="1310.52,-178.03 1302.2,-184.59 1312.79,-184.65 1310.52,-178.03"/>
<text text-anchor="middle" x="1382.5" y="-328.17" font-family="Times,serif" font-size="32.00">danc |</text>
<text text-anchor="middle" x="1382.5" y="-293.17" font-family="Times,serif" font-size="32.00"> smil |</text>
<text text-anchor="middle" x="1382.5" y="-258.17" font-family="Times,serif" font-size="32.00"> jump_1 |</text>
<text text-anchor="middle" x="1382.5" y="-223.17" font-family="Times,serif" font-size="32.00"> laugh_1</text>
<text text-anchor="middle" x="1382.5" y="-188.17" font-family="Times,serif" font-size="32.00">2</text>
</g>
<!-- v&#45;&gt;0 -->
<g id="edge16" class="edge">
<title>v&#45;&gt;0</title>
<path fill="none" stroke="#f7931d" stroke-width="2" d="M404.59,-331.68C392.77,-323.33 377.39,-314.16 362,-309.77 330.48,-300.8 292.98,-301.54 266.02,-303.94"/>
<polygon fill="#f7931d" stroke="#f7931d" stroke-width="2" points="265.48,-300.48 255.88,-304.96 266.18,-307.44 265.48,-300.48"/>
<text text-anchor="middle" x="318" y="-389.17" font-family="Times,serif" font-size="32.00">will |</text>
<text text-anchor="middle" x="318" y="-354.17" font-family="Times,serif" font-size="32.00"> would</text>
<text text-anchor="middle" x="318" y="-319.17" font-family="Times,serif" font-size="32.00">=v 0</text>
</g>
<!-- prog&#45;&gt;0 -->
<g id="edge19" class="edge">
<title>prog&#45;&gt;0</title>
<path fill="none" stroke="#f7931d" stroke-width="2" d="M935.88,-346.6C887.75,-368.06 804.02,-401.83 728,-414.77 678.27,-423.24 315.95,-442.78 274,-414.77 252.2,-400.22 241.19,-372.64 235.63,-349.26"/>
<polygon fill="#f7931d" stroke="#f7931d" stroke-width="2" points="239,-348.27 233.51,-339.21 232.15,-349.72 239,-348.27"/>
<text text-anchor="middle" x="542" y="-507.17" font-family="Times,serif" font-size="32.00">is |</text>
<text text-anchor="middle" x="542" y="-472.17" font-family="Times,serif" font-size="32.00"> was</text>
<text text-anchor="middle" x="542" y="-437.17" font-family="Times,serif" font-size="32.00">=prog 0</text>
</g>
<!-- prog&#45;&gt;v -->
<g id="edge20" class="edge">
<title>prog&#45;&gt;v</title>
<path fill="none" stroke="#000000" d="M924.45,-329.75C814.51,-333.96 559.37,-343.74 464.44,-347.38"/>
<polygon fill="#000000" stroke="#000000" points="464.05,-343.89 454.2,-347.77 464.32,-350.88 464.05,-343.89"/>
<text text-anchor="middle" x="669" y="-386.17" font-family="Times,serif" font-size="32.00">be</text>
<text text-anchor="middle" x="669" y="-351.17" font-family="Times,serif" font-size="32.00">=prog v</text>
</g>
<!-- prog&#45;&gt;perf -->
<g id="edge21" class="edge">
<title>prog&#45;&gt;perf</title>
<path fill="none" stroke="#000000" d="M937.33,-307.86C924.43,-299.98 910.65,-290.09 900,-278.77 888.81,-266.89 896.07,-255.04 882,-246.77 834.07,-218.59 768.88,-223.32 723.49,-231.93"/>
<polygon fill="#000000" stroke="#000000" points="722.66,-228.53 713.55,-233.94 724.04,-235.39 722.66,-228.53"/>
<text text-anchor="middle" x="814" y="-291.17" font-family="Times,serif" font-size="32.00">been</text>
<text text-anchor="middle" x="814" y="-256.17" font-family="Times,serif" font-size="32.00">=prog perf</text>
</g>
<!-- perf&#45;&gt;0 -->
<g id="edge17" class="edge">
<title>perf&#45;&gt;0</title>
<path fill="none" stroke="#f7931d" stroke-width="2" d="M628.45,-229.38C572.11,-208.41 466.04,-177.86 380,-204.77 331.62,-219.9 285.14,-256.73 257.07,-282.23"/>
<polygon fill="#f7931d" stroke="#f7931d" stroke-width="2" points="254.61,-279.74 249.65,-289.1 259.37,-284.87 254.61,-279.74"/>
<text text-anchor="middle" x="427" y="-284.17" font-family="Times,serif" font-size="32.00">has |</text>
<text text-anchor="middle" x="427" y="-249.17" font-family="Times,serif" font-size="32.00"> had</text>
<text text-anchor="middle" x="427" y="-214.17" font-family="Times,serif" font-size="32.00">=perf 0</text>
</g>
<!-- perf&#45;&gt;v -->
<g id="edge18" class="edge">
<title>perf&#45;&gt;v</title>
<path fill="none" stroke="#000000" d="M625.2,-232.95C586.55,-224.15 530.05,-218.57 492,-246.77 470.32,-262.84 488.21,-281.82 474,-304.77 469.58,-311.91 463.74,-318.68 457.7,-324.68"/>
<polygon fill="#000000" stroke="#000000" points="454.97,-322.45 450.05,-331.83 459.74,-327.56 454.97,-322.45"/>
<text text-anchor="middle" x="542" y="-291.17" font-family="Times,serif" font-size="32.00">have</text>
<text text-anchor="middle" x="542" y="-256.17" font-family="Times,serif" font-size="32.00">=perf v</text>
</g>
<!-- 3&#45;&gt;1 -->
<g id="edge14" class="edge">
<title>3&#45;&gt;1</title>
<path fill="none" stroke="#000000" d="M1504.48,-414.39C1488.11,-425.04 1465.06,-438.63 1443,-446.77 1391.64,-465.72 1366.13,-437.39 1322,-469.77 1307.33,-480.54 1297.05,-497.7 1290.14,-513.55"/>
<polygon fill="#000000" stroke="#000000" points="1286.75,-512.6 1286.26,-523.18 1293.25,-515.21 1286.75,-512.6"/>
<text text-anchor="middle" x="1382.5" y="-514.17" font-family="Times,serif" font-size="32.00">g</text>
<text text-anchor="middle" x="1382.5" y="-479.17" font-family="Times,serif" font-size="32.00">=&gt;3 1</text>
</g>
<!-- 3&#45;&gt;2 -->
<g id="edge12" class="edge">
<title>3&#45;&gt;2</title>
<path fill="none" stroke="#000000" d="M1501.9,-389.96C1485.34,-384.41 1463.08,-377.43 1443,-372.77 1389.97,-360.47 1362.66,-389.97 1322,-353.77 1289.1,-324.47 1279.89,-272.87 1277.76,-236.63"/>
<polygon fill="#000000" stroke="#000000" points="1281.25,-236.23 1277.32,-226.39 1274.25,-236.53 1281.25,-236.23"/>
<text text-anchor="middle" x="1382.5" y="-417.17" font-family="Times,serif" font-size="32.00">gg</text>
<text text-anchor="middle" x="1382.5" y="-382.17" font-family="Times,serif" font-size="32.00">=&gt;3 2</text>
</g>
<!-- z3 -->
<g id="node13" class="node">
<title>z3</title>
<ellipse fill="none" stroke="black" stroke-dasharray="5,2" cx="1756" cy="-316.77" rx="27" ry="18"/>
</g>
<!-- z3&#45;&gt;3 -->
<g id="edge13" class="edge">
<title>z3&#45;&gt;3</title>
<path fill="none" stroke="#000000" d="M1730.53,-310.46C1701.31,-304.2 1651.57,-297.66 1613,-313.77 1587.49,-324.43 1565.77,-347.03 1550.81,-366.25"/>
<polygon fill="#000000" stroke="#000000" points="1547.82,-364.4 1544.63,-374.51 1553.42,-368.6 1547.82,-364.4"/>
<text text-anchor="middle" x="1662" y="-393.17" font-family="Times,serif" font-size="32.00">bra |</text>
<text text-anchor="middle" x="1662" y="-358.17" font-family="Times,serif" font-size="32.00"> jo</text>
<text text-anchor="middle" x="1662" y="-323.17" font-family="Times,serif" font-size="32.00">3</text>
</g>
</g>
</svg>
