<?xml version="1.0" encoding="UTF-8" standalone="no"?>
<!DOCTYPE svg PUBLIC "-//W3C//DTD SVG 1.1//EN"
 "http://www.w3.org/Graphics/SVG/1.1/DTD/svg11.dtd">
<!-- Generated by graphviz version 2.47.1 (20210417.1919)
 -->
<!-- Title: G Pages: 1 -->
<svg width="1765pt" height="1853pt"
 viewBox="0.00 0.00 1765.00 1852.78" xmlns="http://www.w3.org/2000/svg" xmlns:xlink="http://www.w3.org/1999/xlink">
<g id="graph0" class="graph" transform="scale(1 1) rotate(0) translate(4 1848.78)">
<title>G</title>
<polygon fill="white" stroke="transparent" points="-4,4 -4,-1848.78 1761,-1848.78 1761,4 -4,4"/>
<text text-anchor="middle" x="878.5" y="-13.4" font-family="Times,serif" font-size="32.00">single contraction: 2 → 1</text>
<!-- t -->
<g id="node1" class="node">
<title>t</title>
<ellipse fill="lightgray" stroke="black" cx="27" cy="-1116.78" rx="27" ry="30.31"/>
<text text-anchor="middle" x="27" y="-1108.68" font-family="Times,serif" font-size="32.00">t</text>
</g>
<!-- z0 -->
<g id="node2" class="node">
<title>z0</title>
<ellipse fill="none" stroke="black" stroke-dasharray="5,2" cx="1730" cy="-903.78" rx="27" ry="18"/>
</g>
<!-- d -->
<g id="node3" class="node">
<title>d</title>
<ellipse fill="none" stroke="black" cx="1570" cy="-903.78" rx="27" ry="30.31"/>
<text text-anchor="middle" x="1570" y="-895.68" font-family="Times,serif" font-size="32.00">d</text>
</g>
<!-- z0&#45;&gt;d -->
<g id="edge1" class="edge">
<title>z0&#45;&gt;d</title>
<path fill="none" stroke="#000000" d="M1702.91,-903.78C1676.84,-903.78 1636.53,-903.78 1607.34,-903.78"/>
<polygon fill="#000000" stroke="#000000" points="1607.13,-900.28 1597.13,-903.78 1607.13,-907.28 1607.13,-900.28"/>
<text text-anchor="middle" x="1650" y="-948.18" font-family="Times,serif" font-size="32.00">Mary</text>
<text text-anchor="middle" x="1650" y="-913.18" font-family="Times,serif" font-size="32.00">d &#45;k</text>
</g>
<!-- 0 -->
<g id="node4" class="node">
<title>0</title>
<ellipse fill="none" stroke="black" cx="1267" cy="-369.78" rx="27" ry="30.31"/>
<text text-anchor="middle" x="1267" y="-361.68" font-family="Times,serif" font-size="32.00">0</text>
</g>
<!-- d&#45;&gt;0 -->
<g id="edge9" class="edge">
<title>d&#45;&gt;0</title>
<path fill="none" stroke="#000000" d="M1568.83,-873.19C1567.9,-765 1562.03,-405.01 1525,-370.78 1493.81,-341.94 1366.85,-355.45 1303.83,-364.26"/>
<polygon fill="#000000" stroke="#000000" points="1303.33,-360.8 1293.93,-365.68 1304.33,-367.73 1303.33,-360.8"/>
<text text-anchor="middle" x="1450.5" y="-485.18" font-family="Times,serif" font-size="32.00">like |</text>
<text text-anchor="middle" x="1450.5" y="-450.18" font-family="Times,serif" font-size="32.00"> destroy |</text>
<text text-anchor="middle" x="1450.5" y="-415.18" font-family="Times,serif" font-size="32.00"> hug</text>
<text text-anchor="middle" x="1450.5" y="-380.18" font-family="Times,serif" font-size="32.00">=d *k 0</text>
</g>
<!-- 1 -->
<g id="node6" class="node">
<title>1</title>
<ellipse fill="none" stroke="black" cx="1267" cy="-1584.78" rx="27" ry="30.31"/>
<text text-anchor="middle" x="1267" y="-1576.68" font-family="Times,serif" font-size="32.00">1</text>
</g>
<!-- d&#45;&gt;1 -->
<g id="edge10" class="edge">
<title>d&#45;&gt;1</title>
<path fill="none" stroke="#000000" d="M1567.05,-934.1C1562.28,-1002.71 1548.63,-1167.76 1525,-1217.78 1483.21,-1306.22 1418.87,-1291.85 1376,-1379.78 1354.48,-1423.91 1379.73,-1444.75 1358,-1488.78 1343.72,-1517.72 1317.8,-1543.95 1297.43,-1561.65"/>
<polygon fill="#000000" stroke="#000000" points="1295.02,-1559.1 1289.65,-1568.23 1299.55,-1564.44 1295.02,-1559.1"/>
<text text-anchor="middle" x="1450.5" y="-1494.18" font-family="Times,serif" font-size="32.00">lik |</text>
<text text-anchor="middle" x="1450.5" y="-1459.18" font-family="Times,serif" font-size="32.00"> destroy_1 |</text>
<text text-anchor="middle" x="1450.5" y="-1424.18" font-family="Times,serif" font-size="32.00"> hugg</text>
<text text-anchor="middle" x="1450.5" y="-1389.18" font-family="Times,serif" font-size="32.00">=d *k 1</text>
</g>
<!-- v -->
<g id="node8" class="node">
<title>v</title>
<ellipse fill="none" stroke="black" cx="248.5" cy="-996.78" rx="27" ry="30.31"/>
<text text-anchor="middle" x="248.5" y="-988.68" font-family="Times,serif" font-size="32.00">v</text>
</g>
<!-- d&#45;&gt;v -->
<g id="edge6" class="edge">
<title>d&#45;&gt;v</title>
<path fill="none" stroke="#000000" d="M1562.19,-874.63C1555.82,-853.12 1544.31,-824.44 1525,-805.78 1436.28,-720.03 1391.39,-700.78 1268,-700.78 1268,-700.78 1268,-700.78 561,-700.78 411.53,-700.78 305.22,-882.08 266.07,-960.9"/>
<polygon fill="#000000" stroke="#000000" points="262.87,-959.47 261.63,-969.99 269.16,-962.54 262.87,-959.47"/>
<text text-anchor="middle" x="888" y="-920.18" font-family="Times,serif" font-size="32.00">dance_1 |</text>
<text text-anchor="middle" x="888" y="-885.18" font-family="Times,serif" font-size="32.00"> smile_1 |</text>
<text text-anchor="middle" x="888" y="-850.18" font-family="Times,serif" font-size="32.00"> jump_2 |</text>
<text text-anchor="middle" x="888" y="-815.18" font-family="Times,serif" font-size="32.00"> laugh_2 |</text>
<text text-anchor="middle" x="888" y="-780.18" font-family="Times,serif" font-size="32.00"> brag_1 |</text>
<text text-anchor="middle" x="888" y="-745.18" font-family="Times,serif" font-size="32.00"> jog_1</text>
<text text-anchor="middle" x="888" y="-710.18" font-family="Times,serif" font-size="32.00">=d v</text>
</g>
<!-- d&#45;&gt;v -->
<g id="edge11" class="edge">
<title>d&#45;&gt;v</title>
<path fill="none" stroke="#000000" d="M1568.88,-873.32C1567.33,-832.02 1559.47,-757.49 1525,-705.78 1447.51,-589.53 1407.71,-524.78 1268,-524.78 1268,-524.78 1268,-524.78 561,-524.78 354.63,-524.78 277.15,-842.96 256.03,-956.84"/>
<polygon fill="#000000" stroke="#000000" points="252.55,-956.43 254.21,-966.89 259.44,-957.68 252.55,-956.43"/>
<text text-anchor="middle" x="888" y="-639.18" font-family="Times,serif" font-size="32.00">like_1 |</text>
<text text-anchor="middle" x="888" y="-604.18" font-family="Times,serif" font-size="32.00"> destroy_2 |</text>
<text text-anchor="middle" x="888" y="-569.18" font-family="Times,serif" font-size="32.00"> hug_1</text>
<text text-anchor="middle" x="888" y="-534.18" font-family="Times,serif" font-size="32.00">=d *k =d v</text>
</g>
<!-- prog -->
<g id="node9" class="node">
<title>prog</title>
<ellipse fill="none" stroke="black" cx="888" cy="-1203.78" rx="52.15" ry="30.31"/>
<text text-anchor="middle" x="888" y="-1195.68" font-family="Times,serif" font-size="32.00">prog</text>
</g>
<!-- d&#45;&gt;prog -->
<g id="edge7" class="edge">
<title>d&#45;&gt;prog</title>
<path fill="none" stroke="#000000" d="M1564.74,-933.8C1559.38,-963.41 1547.94,-1008.88 1525,-1041.78 1471.19,-1118.93 1445.5,-1137.27 1358,-1171.78 1219.87,-1226.25 1041.2,-1219.46 949.38,-1210.97"/>
<polygon fill="#000000" stroke="#000000" points="949.71,-1207.49 939.42,-1210.01 949.04,-1214.45 949.71,-1207.49"/>
<text text-anchor="middle" x="1267" y="-1361.18" font-family="Times,serif" font-size="32.00">dancing |</text>
<text text-anchor="middle" x="1267" y="-1326.18" font-family="Times,serif" font-size="32.00"> smiling |</text>
<text text-anchor="middle" x="1267" y="-1291.18" font-family="Times,serif" font-size="32.00"> jumping |</text>
<text text-anchor="middle" x="1267" y="-1256.18" font-family="Times,serif" font-size="32.00"> laughing</text>
<text text-anchor="middle" x="1267" y="-1221.18" font-family="Times,serif" font-size="32.00">=d prog</text>
</g>
<!-- d&#45;&gt;prog -->
<g id="edge12" class="edge">
<title>d&#45;&gt;prog</title>
<path fill="none" stroke="#000000" d="M1563,-933.27C1557.07,-954.3 1545.78,-981.31 1525,-995.78 1461.08,-1040.27 1232.14,-973.8 1176,-1027.78 1131.73,-1070.34 1201.13,-1121.06 1158,-1164.78 1129.88,-1193.27 1020.89,-1201.13 950.57,-1203.19"/>
<polygon fill="#000000" stroke="#000000" points="950.39,-1199.69 940.48,-1203.45 950.57,-1206.69 950.39,-1199.69"/>
<text text-anchor="middle" x="1267" y="-1142.18" font-family="Times,serif" font-size="32.00">liking |</text>
<text text-anchor="middle" x="1267" y="-1107.18" font-family="Times,serif" font-size="32.00"> destroying |</text>
<text text-anchor="middle" x="1267" y="-1072.18" font-family="Times,serif" font-size="32.00"> hugging</text>
<text text-anchor="middle" x="1267" y="-1037.18" font-family="Times,serif" font-size="32.00">=d *k =d prog</text>
</g>
<!-- perf -->
<g id="node10" class="node">
<title>perf</title>
<ellipse fill="none" stroke="black" cx="562" cy="-1116.78" rx="48.17" ry="30.31"/>
<text text-anchor="middle" x="562" y="-1108.68" font-family="Times,serif" font-size="32.00">perf</text>
</g>
<!-- d&#45;&gt;perf -->
<g id="edge8" class="edge">
<title>d&#45;&gt;perf</title>
<path fill="none" stroke="#000000" d="M1545.88,-889.87C1459.59,-839.92 1152.63,-680.17 983,-826.78 941.2,-862.91 1003.14,-909.8 965,-949.78 868.73,-1050.69 758.17,-913.79 657,-1009.78 633.07,-1032.48 660.05,-1056.38 639,-1081.78 632.74,-1089.33 624.49,-1095.34 615.74,-1100.08"/>
<polygon fill="#000000" stroke="#000000" points="613.96,-1097.06 606.5,-1104.59 617.03,-1103.35 613.96,-1097.06"/>
<text text-anchor="middle" x="1070.5" y="-976.18" font-family="Times,serif" font-size="32.00">danced |</text>
<text text-anchor="middle" x="1070.5" y="-941.18" font-family="Times,serif" font-size="32.00"> smiled |</text>
<text text-anchor="middle" x="1070.5" y="-906.18" font-family="Times,serif" font-size="32.00"> jumped |</text>
<text text-anchor="middle" x="1070.5" y="-871.18" font-family="Times,serif" font-size="32.00"> laughed</text>
<text text-anchor="middle" x="1070.5" y="-836.18" font-family="Times,serif" font-size="32.00">=d perf</text>
</g>
<!-- d&#45;&gt;perf -->
<g id="edge13" class="edge">
<title>d&#45;&gt;perf</title>
<path fill="none" stroke="#000000" d="M1543.74,-910.98C1479.74,-928.96 1305.82,-976.23 1158,-1001.78 1080.91,-1015.1 1060.15,-1007.82 983,-1020.78 849.84,-1043.15 695.62,-1081.71 616.27,-1102.5"/>
<polygon fill="#000000" stroke="#000000" points="615.28,-1099.14 606.5,-1105.07 617.06,-1105.91 615.28,-1099.14"/>
<text text-anchor="middle" x="1070.5" y="-1135.18" font-family="Times,serif" font-size="32.00">liked |</text>
<text text-anchor="middle" x="1070.5" y="-1100.18" font-family="Times,serif" font-size="32.00"> destroyed |</text>
<text text-anchor="middle" x="1070.5" y="-1065.18" font-family="Times,serif" font-size="32.00"> hugged</text>
<text text-anchor="middle" x="1070.5" y="-1030.18" font-family="Times,serif" font-size="32.00">=d *k =d perf</text>
</g>
<!-- 0&#45;&gt;t -->
<g id="edge2" class="edge">
<title>0&#45;&gt;t</title>
<path fill="none" stroke="#000000" d="M1240,-373.04C1178.88,-380.43 1021.25,-397.78 889,-397.78 889,-397.78 889,-397.78 247.5,-397.78 104.59,-397.78 45.56,-923.93 31.48,-1076.05"/>
<polygon fill="#000000" stroke="#000000" points="27.96,-1076.07 30.54,-1086.34 34.93,-1076.7 27.96,-1076.07"/>
<text text-anchor="middle" x="562" y="-442.18" font-family="Times,serif" font-size="32.00">s</text>
<text text-anchor="middle" x="562" y="-407.18" font-family="Times,serif" font-size="32.00">=&gt;0 =d +k t</text>
</g>
<!-- z1 -->
<g id="node5" class="node">
<title>z1</title>
<ellipse fill="none" stroke="black" stroke-dasharray="5,2" cx="1570" cy="-101.78" rx="27" ry="18"/>
</g>
<!-- z1&#45;&gt;0 -->
<g id="edge3" class="edge">
<title>z1&#45;&gt;0</title>
<path fill="none" stroke="#000000" d="M1545.49,-94.21C1506.52,-83.21 1427.72,-67.71 1376,-102.78 1300.3,-154.11 1277.64,-268.4 1270.87,-329.47"/>
<polygon fill="#000000" stroke="#000000" points="1267.38,-329.21 1269.85,-339.51 1274.34,-329.92 1267.38,-329.21"/>
<text text-anchor="middle" x="1450.5" y="-322.18" font-family="Times,serif" font-size="32.00">dance |</text>
<text text-anchor="middle" x="1450.5" y="-287.18" font-family="Times,serif" font-size="32.00"> smile |</text>
<text text-anchor="middle" x="1450.5" y="-252.18" font-family="Times,serif" font-size="32.00"> jump |</text>
<text text-anchor="middle" x="1450.5" y="-217.18" font-family="Times,serif" font-size="32.00"> laugh |</text>
<text text-anchor="middle" x="1450.5" y="-182.18" font-family="Times,serif" font-size="32.00"> brag |</text>
<text text-anchor="middle" x="1450.5" y="-147.18" font-family="Times,serif" font-size="32.00"> jog</text>
<text text-anchor="middle" x="1450.5" y="-112.18" font-family="Times,serif" font-size="32.00">0</text>
</g>
<!-- 1&#45;&gt;t -->
<g id="edge4" class="edge">
<title>1&#45;&gt;t</title>
<path fill="none" stroke="#000000" d="M1242.02,-1597.08C1183.41,-1625.98 1027.51,-1695.78 889,-1695.78 889,-1695.78 889,-1695.78 247.5,-1695.78 131.97,-1695.78 55.71,-1287.66 34.22,-1156.7"/>
<polygon fill="#000000" stroke="#000000" points="37.65,-1156 32.59,-1146.69 30.74,-1157.12 37.65,-1156"/>
<text text-anchor="middle" x="562" y="-1740.18" font-family="Times,serif" font-size="32.00">ed</text>
<text text-anchor="middle" x="562" y="-1705.18" font-family="Times,serif" font-size="32.00">=&gt;1 =d +k t</text>
</g>
<!-- 1&#45;&gt;prog -->
<g id="edge14" class="edge">
<title>1&#45;&gt;prog</title>
<path fill="none" stroke="#000000" d="M1244.61,-1567.56C1224.06,-1549.89 1193.6,-1520.55 1176,-1488.78 1160.85,-1461.43 1181.48,-1441.42 1158,-1420.78 1099.09,-1368.97 1046.61,-1443.69 983,-1397.78 932.07,-1361.02 907.52,-1289.1 896.65,-1243.9"/>
<polygon fill="#000000" stroke="#000000" points="900.06,-1243.1 894.41,-1234.13 893.23,-1244.66 900.06,-1243.1"/>
<text text-anchor="middle" x="1070.5" y="-1465.18" font-family="Times,serif" font-size="32.00">ing</text>
<text text-anchor="middle" x="1070.5" y="-1430.18" font-family="Times,serif" font-size="32.00">=&gt;1 =d prog</text>
</g>
<!-- 1&#45;&gt;perf -->
<g id="edge15" class="edge">
<title>1&#45;&gt;perf</title>
<path fill="none" stroke="#000000" d="M1239.74,-1586.35C1134.14,-1592.09 742.13,-1607.57 657,-1526.78 603.57,-1476.07 575.98,-1250.7 566.68,-1157.41"/>
<polygon fill="#000000" stroke="#000000" points="570.14,-1156.85 565.69,-1147.23 563.17,-1157.53 570.14,-1156.85"/>
<text text-anchor="middle" x="888" y="-1634.18" font-family="Times,serif" font-size="32.00">ed_1</text>
<text text-anchor="middle" x="888" y="-1599.18" font-family="Times,serif" font-size="32.00">=&gt;1 =d perf</text>
</g>
<!-- z2 -->
<g id="node7" class="node">
<title>z2</title>
<ellipse fill="none" stroke="black" stroke-dasharray="5,2" cx="1570" cy="-1638.78" rx="27" ry="18"/>
</g>
<!-- z2&#45;&gt;1 -->
<g id="edge5" class="edge">
<title>z2&#45;&gt;1</title>
<path fill="none" stroke="#000000" d="M1542.86,-1637.25C1505.55,-1634.74 1434.99,-1628.78 1376,-1616.78 1351.13,-1611.72 1323.73,-1603.56 1302.74,-1596.76"/>
<polygon fill="#000000" stroke="#000000" points="1303.59,-1593.35 1293,-1593.54 1301.4,-1600 1303.59,-1593.35"/>
<text text-anchor="middle" x="1450.5" y="-1819.18" font-family="Times,serif" font-size="32.00">danc |</text>
<text text-anchor="middle" x="1450.5" y="-1784.18" font-family="Times,serif" font-size="32.00"> smil |</text>
<text text-anchor="middle" x="1450.5" y="-1749.18" font-family="Times,serif" font-size="32.00"> jump_1 |</text>
<text text-anchor="middle" x="1450.5" y="-1714.18" font-family="Times,serif" font-size="32.00"> laugh_1 |</text>
<text text-anchor="middle" x="1450.5" y="-1679.18" font-family="Times,serif" font-size="32.00"> bragg</text>
<text text-anchor="middle" x="1450.5" y="-1644.18" font-family="Times,serif" font-size="32.00">1</text>
</g>
<!-- v&#45;&gt;t -->
<g id="edge20" class="edge">
<title>v&#45;&gt;t</title>
<path fill="none" stroke="#000000" d="M222.16,-988.67C185.43,-978.6 116.92,-966.31 72,-997.78 46.81,-1015.43 36.01,-1049.24 31.39,-1076.32"/>
<polygon fill="#000000" stroke="#000000" points="27.91,-1075.92 29.91,-1086.32 34.84,-1076.95 27.91,-1075.92"/>
<text text-anchor="middle" x="119" y="-1077.18" font-family="Times,serif" font-size="32.00">will |</text>
<text text-anchor="middle" x="119" y="-1042.18" font-family="Times,serif" font-size="32.00"> would</text>
<text text-anchor="middle" x="119" y="-1007.18" font-family="Times,serif" font-size="32.00">=v +k t</text>
</g>
<!-- prog&#45;&gt;t -->
<g id="edge23" class="edge">
<title>prog&#45;&gt;t</title>
<path fill="none" stroke="#000000" d="M845.18,-1221.3C829.16,-1227.13 810.52,-1232.88 793,-1235.78 733.37,-1245.65 717.44,-1236.42 657,-1235.78 446.74,-1233.56 383.89,-1291.02 184,-1225.78 133.47,-1209.29 84.84,-1170.48 55.68,-1143.91"/>
<polygon fill="#000000" stroke="#000000" points="57.7,-1141.01 47.99,-1136.77 52.94,-1146.14 57.7,-1141.01"/>
<text text-anchor="middle" x="399" y="-1336.18" font-family="Times,serif" font-size="32.00">is |</text>
<text text-anchor="middle" x="399" y="-1301.18" font-family="Times,serif" font-size="32.00"> was</text>
<text text-anchor="middle" x="399" y="-1266.18" font-family="Times,serif" font-size="32.00">=prog +k t</text>
</g>
<!-- prog&#45;&gt;v -->
<g id="edge24" class="edge">
<title>prog&#45;&gt;v</title>
<path fill="none" stroke="#000000" d="M864.02,-1176.71C823.82,-1131.65 735.76,-1042.78 639,-1007.78 515.87,-963.23 356.26,-979.76 285.73,-990.47"/>
<polygon fill="#000000" stroke="#000000" points="284.93,-987.06 275.59,-992.07 286.01,-993.97 284.93,-987.06"/>
<text text-anchor="middle" x="562" y="-1052.18" font-family="Times,serif" font-size="32.00">be</text>
<text text-anchor="middle" x="562" y="-1017.18" font-family="Times,serif" font-size="32.00">=prog v</text>
</g>
<!-- prog&#45;&gt;perf -->
<g id="edge25" class="edge">
<title>prog&#45;&gt;perf</title>
<path fill="none" stroke="#000000" d="M845.91,-1185.36C829.66,-1178.55 810.67,-1171.19 793,-1165.78 734.63,-1147.91 665.98,-1134.2 618.97,-1125.88"/>
<polygon fill="#000000" stroke="#000000" points="619.44,-1122.41 608.98,-1124.14 618.23,-1129.31 619.44,-1122.41"/>
<text text-anchor="middle" x="725" y="-1210.18" font-family="Times,serif" font-size="32.00">been</text>
<text text-anchor="middle" x="725" y="-1175.18" font-family="Times,serif" font-size="32.00">=prog perf</text>
</g>
<!-- perf&#45;&gt;t -->
<g id="edge21" class="edge">
<title>perf&#45;&gt;t</title>
<path fill="none" stroke="#000000" d="M513.7,-1116.78C408.7,-1116.78 158.05,-1116.78 64.25,-1116.78"/>
<polygon fill="#000000" stroke="#000000" points="64.13,-1113.28 54.13,-1116.78 64.13,-1120.28 64.13,-1113.28"/>
<text text-anchor="middle" x="248.5" y="-1196.18" font-family="Times,serif" font-size="32.00">has |</text>
<text text-anchor="middle" x="248.5" y="-1161.18" font-family="Times,serif" font-size="32.00"> had</text>
<text text-anchor="middle" x="248.5" y="-1126.18" font-family="Times,serif" font-size="32.00">=perf +k t</text>
</g>
<!-- perf&#45;&gt;v -->
<g id="edge22" class="edge">
<title>perf&#45;&gt;v</title>
<path fill="none" stroke="#000000" d="M521.72,-1100.07C508.77,-1093.1 495.12,-1083.98 485,-1072.78 471.94,-1058.31 482.45,-1044.67 467,-1032.78 465.2,-1031.4 346.84,-1012.33 285.51,-1002.52"/>
<polygon fill="#000000" stroke="#000000" points="285.89,-999.04 275.47,-1000.91 284.79,-1005.95 285.89,-999.04"/>
<text text-anchor="middle" x="399" y="-1077.18" font-family="Times,serif" font-size="32.00">have</text>
<text text-anchor="middle" x="399" y="-1042.18" font-family="Times,serif" font-size="32.00">=perf v</text>
</g>
<!-- 2 -->
<g id="node11" class="node">
<title>2</title>
<ellipse fill="none" stroke="black" cx="1570" cy="-1512.78" rx="27" ry="30.31"/>
<text text-anchor="middle" x="1570" y="-1504.68" font-family="Times,serif" font-size="32.00">2</text>
</g>
<!-- 2&#45;&gt;1 -->
<g id="edge16" class="edge">
<title>2&#45;&gt;1</title>
<path fill="none" stroke="#000000" d="M1543.52,-1519.69C1537.48,-1521.18 1531.04,-1522.64 1525,-1523.78 1459.39,-1536.12 1440.7,-1526.34 1376,-1542.78 1350.41,-1549.28 1322.68,-1560.15 1301.73,-1569.2"/>
<polygon fill="#000000" stroke="#000000" points="1300.06,-1566.11 1292.32,-1573.34 1302.88,-1572.52 1300.06,-1566.11"/>
<text text-anchor="middle" x="1450.5" y="-1587.18" font-family="Times,serif" font-size="32.00">ε_0</text>
<text text-anchor="middle" x="1450.5" y="-1552.18" font-family="Times,serif" font-size="32.00">=&gt;2 1</text>
</g>
<!-- 2&#45;&gt;prog -->
<g id="edge18" class="edge">
<title>2&#45;&gt;prog</title>
<path fill="none" stroke="#000000" d="M1544.8,-1501.54C1506.08,-1483.93 1427.47,-1449.69 1358,-1428.78 1278.87,-1404.96 1252.38,-1422.32 1176,-1390.78 1078.95,-1350.7 979.26,-1276.96 926.73,-1235.05"/>
<polygon fill="#000000" stroke="#000000" points="928.7,-1232.14 918.71,-1228.61 924.31,-1237.6 928.7,-1232.14"/>
<text text-anchor="middle" x="1267" y="-1473.18" font-family="Times,serif" font-size="32.00">ing_1</text>
<text text-anchor="middle" x="1267" y="-1438.18" font-family="Times,serif" font-size="32.00">=&gt;2 =d prog</text>
</g>
<!-- 2&#45;&gt;perf -->
<g id="edge19" class="edge">
<title>2&#45;&gt;perf</title>
<path fill="none" stroke="#000000" d="M1542.72,-1513.91C1442.94,-1517.87 1087.89,-1528.92 983,-1490.78 799.3,-1423.97 646.05,-1232.92 587.98,-1152.81"/>
<polygon fill="#000000" stroke="#000000" points="590.69,-1150.59 582.01,-1144.51 585,-1154.67 590.69,-1150.59"/>
<text text-anchor="middle" x="1070.5" y="-1559.18" font-family="Times,serif" font-size="32.00">ed_2</text>
<text text-anchor="middle" x="1070.5" y="-1524.18" font-family="Times,serif" font-size="32.00">=&gt;2 =d perf</text>
</g>
<!-- z3 -->
<g id="node12" class="node">
<title>z3</title>
<ellipse fill="none" stroke="black" stroke-dasharray="5,2" cx="1730" cy="-1512.78" rx="27" ry="18"/>
</g>
<!-- z3&#45;&gt;2 -->
<g id="edge17" class="edge">
<title>z3&#45;&gt;2</title>
<path fill="none" stroke="#000000" d="M1702.91,-1512.78C1676.84,-1512.78 1636.53,-1512.78 1607.34,-1512.78"/>
<polygon fill="#000000" stroke="#000000" points="1607.13,-1509.28 1597.13,-1512.78 1607.13,-1516.28 1607.13,-1509.28"/>
<text text-anchor="middle" x="1650" y="-1557.18" font-family="Times,serif" font-size="32.00">jogg</text>
<text text-anchor="middle" x="1650" y="-1522.18" font-family="Times,serif" font-size="32.00">2</text>
</g>
</g>
</svg>
