<?xml version="1.0" encoding="UTF-8" standalone="no"?>
<!DOCTYPE svg PUBLIC "-//W3C//DTD SVG 1.1//EN"
 "http://www.w3.org/Graphics/SVG/1.1/DTD/svg11.dtd">
<!-- Generated by graphviz version 2.47.1 (20210417.1919)
 -->
<!-- Title: G Pages: 1 -->
<svg width="1969pt" height="941pt"
 viewBox="0.00 0.00 1969.00 941.00" xmlns="http://www.w3.org/2000/svg" xmlns:xlink="http://www.w3.org/1999/xlink">
<g id="graph0" class="graph" transform="scale(1 1) rotate(0) translate(4 937)">
<title>G</title>
<polygon fill="white" stroke="transparent" points="-4,4 -4,-937 1965,-937 1965,4 -4,4"/>
<text text-anchor="middle" x="980.5" y="-13.4" font-family="Times,serif" font-size="32.00">decomposition: brag 1, jog 1, g =&gt;3 1</text>
<!-- t -->
<g id="node1" class="node">
<title>t</title>
<ellipse fill="lightgray" stroke="black" cx="27" cy="-511" rx="27" ry="30.31"/>
<text text-anchor="middle" x="27" y="-502.9" font-family="Times,serif" font-size="32.00">t</text>
</g>
<!-- z0 -->
<g id="node2" class="node">
<title>z0</title>
<ellipse fill="none" stroke="black" stroke-dasharray="5,2" cx="1934" cy="-475" rx="27" ry="18"/>
</g>
<!-- d -->
<g id="node3" class="node">
<title>d</title>
<ellipse fill="none" stroke="black" cx="1774" cy="-475" rx="27" ry="30.31"/>
<text text-anchor="middle" x="1774" y="-466.9" font-family="Times,serif" font-size="32.00">d</text>
</g>
<!-- z0&#45;&gt;d -->
<g id="edge1" class="edge">
<title>z0&#45;&gt;d</title>
<path fill="none" stroke="#000000" d="M1906.91,-475C1880.84,-475 1840.53,-475 1811.34,-475"/>
<polygon fill="#000000" stroke="#000000" points="1811.13,-471.5 1801.13,-475 1811.13,-478.5 1811.13,-471.5"/>
<text text-anchor="middle" x="1854" y="-519.4" font-family="Times,serif" font-size="32.00">Mary</text>
<text text-anchor="middle" x="1854" y="-484.4" font-family="Times,serif" font-size="32.00">d &#45;k</text>
</g>
<!-- 1 -->
<g id="node5" class="node">
<title>1</title>
<ellipse fill="none" stroke="black" cx="995" cy="-265" rx="27" ry="30.31"/>
<text text-anchor="middle" x="995" y="-256.9" font-family="Times,serif" font-size="32.00">1</text>
</g>
<!-- d&#45;&gt;1 -->
<g id="edge10" class="edge">
<title>d&#45;&gt;1</title>
<path fill="none" stroke="#000000" d="M1755.9,-452.04C1713.47,-397.43 1596.92,-261.36 1461,-221 1305.7,-174.88 1109.6,-227.54 1030.96,-252.89"/>
<polygon fill="#000000" stroke="#000000" points="1029.5,-249.69 1021.09,-256.13 1031.68,-256.34 1029.5,-249.69"/>
<text text-anchor="middle" x="1400.5" y="-300.4" font-family="Times,serif" font-size="32.00">like |</text>
<text text-anchor="middle" x="1400.5" y="-265.4" font-family="Times,serif" font-size="32.00"> destroy</text>
<text text-anchor="middle" x="1400.5" y="-230.4" font-family="Times,serif" font-size="32.00">=d *k 1</text>
</g>
<!-- 2 -->
<g id="node7" class="node">
<title>2</title>
<ellipse fill="none" stroke="black" cx="1295" cy="-661" rx="27" ry="30.31"/>
<text text-anchor="middle" x="1295" y="-652.9" font-family="Times,serif" font-size="32.00">2</text>
</g>
<!-- d&#45;&gt;2 -->
<g id="edge11" class="edge">
<title>d&#45;&gt;2</title>
<path fill="none" stroke="#000000" d="M1760.93,-501.79C1726.63,-574.03 1620.57,-771.83 1461,-837 1411.21,-857.33 1382.39,-870.1 1340,-837 1318.82,-820.47 1306.33,-747.81 1300.35,-701.17"/>
<polygon fill="#000000" stroke="#000000" points="1303.81,-700.57 1299.11,-691.07 1296.86,-701.43 1303.81,-700.57"/>
<text text-anchor="middle" x="1546" y="-907.4" font-family="Times,serif" font-size="32.00">lik |</text>
<text text-anchor="middle" x="1546" y="-872.4" font-family="Times,serif" font-size="32.00"> destroy_1</text>
<text text-anchor="middle" x="1546" y="-837.4" font-family="Times,serif" font-size="32.00">=d *k 2</text>
</g>
<!-- 4 -->
<g id="node14" class="node">
<title>4</title>
<ellipse fill="none" stroke="black" cx="1546" cy="-475" rx="27" ry="30.31"/>
<text text-anchor="middle" x="1546" y="-466.9" font-family="Times,serif" font-size="32.00">4</text>
</g>
<!-- d&#45;&gt;4 -->
<g id="edge17" class="edge">
<title>d&#45;&gt;4</title>
<path fill="none" stroke="#000000" d="M1746.63,-475C1706.23,-475 1628.91,-475 1583.26,-475"/>
<polygon fill="#000000" stroke="#000000" points="1583.2,-471.5 1573.2,-475 1583.2,-478.5 1583.2,-471.5"/>
<text text-anchor="middle" x="1680" y="-519.4" font-family="Times,serif" font-size="32.00">hu</text>
<text text-anchor="middle" x="1680" y="-484.4" font-family="Times,serif" font-size="32.00">=d *k 4</text>
</g>
<!-- 0 -->
<g id="node4" class="node">
<title>0</title>
<ellipse fill="none" stroke="black" cx="229" cy="-511" rx="27" ry="30.31"/>
<text text-anchor="middle" x="229" y="-502.9" font-family="Times,serif" font-size="32.00">0</text>
</g>
<!-- 0&#45;&gt;t -->
<g id="edge2" class="edge">
<title>0&#45;&gt;t</title>
<path fill="none" stroke="#000000" d="M201.85,-511C166.67,-511 103.92,-511 64.21,-511"/>
<polygon fill="#000000" stroke="#000000" points="64.15,-507.5 54.15,-511 64.15,-514.5 64.15,-507.5"/>
<text text-anchor="middle" x="128" y="-555.4" font-family="Times,serif" font-size="32.00">ε_0</text>
<text text-anchor="middle" x="128" y="-520.4" font-family="Times,serif" font-size="32.00">=&gt;0 +k t</text>
</g>
<!-- 1&#45;&gt;0 -->
<g id="edge3" class="edge">
<title>1&#45;&gt;0</title>
<path fill="none" stroke="#000000" d="M968.8,-257.39C894.18,-236.11 668.58,-180.81 492,-232 381.86,-263.93 343.8,-279.02 274,-370 251.52,-399.3 240.41,-440.26 234.99,-470.48"/>
<polygon fill="#000000" stroke="#000000" points="231.48,-470.25 233.3,-480.69 238.38,-471.4 231.48,-470.25"/>
<text text-anchor="middle" x="551" y="-276.4" font-family="Times,serif" font-size="32.00">s</text>
<text text-anchor="middle" x="551" y="-241.4" font-family="Times,serif" font-size="32.00">=&gt;1 =d 0</text>
</g>
<!-- v -->
<g id="node9" class="node">
<title>v</title>
<ellipse fill="none" stroke="black" cx="427" cy="-392" rx="27" ry="30.31"/>
<text text-anchor="middle" x="427" y="-383.9" font-family="Times,serif" font-size="32.00">v</text>
</g>
<!-- 1&#45;&gt;v -->
<g id="edge7" class="edge">
<title>1&#45;&gt;v</title>
<path fill="none" stroke="#000000" d="M967.74,-264.66C906.88,-264.5 751.94,-267.69 628,-301 566.02,-317.66 499.12,-351.72 460.54,-373.12"/>
<polygon fill="#000000" stroke="#000000" points="458.37,-370.33 451.37,-378.27 461.8,-376.43 458.37,-370.33"/>
<text text-anchor="middle" x="687" y="-345.4" font-family="Times,serif" font-size="32.00">ε_1</text>
<text text-anchor="middle" x="687" y="-310.4" font-family="Times,serif" font-size="32.00">=&gt;1 =d v</text>
</g>
<!-- z1 -->
<g id="node6" class="node">
<title>z1</title>
<ellipse fill="none" stroke="black" stroke-dasharray="5,2" cx="1295" cy="-265" rx="27" ry="18"/>
</g>
<!-- z1&#45;&gt;1 -->
<g id="edge4" class="edge">
<title>z1&#45;&gt;1</title>
<path fill="none" stroke="#000000" d="M1267.82,-265C1214.49,-265 1093.2,-265 1032.31,-265"/>
<polygon fill="#000000" stroke="#000000" points="1032.02,-261.5 1022.02,-265 1032.02,-268.5 1032.02,-261.5"/>
<text text-anchor="middle" x="1170" y="-414.4" font-family="Times,serif" font-size="32.00">dance |</text>
<text text-anchor="middle" x="1170" y="-379.4" font-family="Times,serif" font-size="32.00"> smile |</text>
<text text-anchor="middle" x="1170" y="-344.4" font-family="Times,serif" font-size="32.00"> jump |</text>
<text text-anchor="middle" x="1170" y="-309.4" font-family="Times,serif" font-size="32.00"> laugh</text>
<text text-anchor="middle" x="1170" y="-274.4" font-family="Times,serif" font-size="32.00">1</text>
</g>
<!-- 2&#45;&gt;0 -->
<g id="edge5" class="edge">
<title>2&#45;&gt;0</title>
<path fill="none" stroke="#000000" d="M1270.53,-674.42C1221.32,-701.26 1103.02,-759 996,-759 996,-759 996,-759 426,-759 320.6,-759 263.03,-619.42 240.85,-549.69"/>
<polygon fill="#000000" stroke="#000000" points="244.13,-548.45 237.83,-539.93 237.44,-550.52 244.13,-548.45"/>
<text text-anchor="middle" x="687" y="-803.4" font-family="Times,serif" font-size="32.00">ed</text>
<text text-anchor="middle" x="687" y="-768.4" font-family="Times,serif" font-size="32.00">=&gt;2 =d 0</text>
</g>
<!-- prog -->
<g id="node10" class="node">
<title>prog</title>
<ellipse fill="none" stroke="black" cx="995" cy="-553" rx="52.15" ry="30.31"/>
<text text-anchor="middle" x="995" y="-544.9" font-family="Times,serif" font-size="32.00">prog</text>
</g>
<!-- 2&#45;&gt;prog -->
<g id="edge8" class="edge">
<title>2&#45;&gt;prog</title>
<path fill="none" stroke="#000000" d="M1286.6,-631.98C1280.17,-613.08 1268.86,-589.66 1250,-577 1192.53,-538.42 1110.57,-538 1055.44,-543.52"/>
<polygon fill="#000000" stroke="#000000" points="1055.03,-540.05 1045.47,-544.62 1055.79,-547.01 1055.03,-540.05"/>
<text text-anchor="middle" x="1170" y="-621.4" font-family="Times,serif" font-size="32.00">ing</text>
<text text-anchor="middle" x="1170" y="-586.4" font-family="Times,serif" font-size="32.00">=&gt;2 =d prog</text>
</g>
<!-- perf -->
<g id="node11" class="node">
<title>perf</title>
<ellipse fill="none" stroke="black" cx="687" cy="-534" rx="48.17" ry="30.31"/>
<text text-anchor="middle" x="687" y="-525.9" font-family="Times,serif" font-size="32.00">perf</text>
</g>
<!-- 2&#45;&gt;perf -->
<g id="edge9" class="edge">
<title>2&#45;&gt;perf</title>
<path fill="none" stroke="#000000" d="M1267.73,-661.55C1173.56,-663.13 853.71,-664.99 764,-620 742.26,-609.1 723.98,-589.05 710.8,-571.05"/>
<polygon fill="#000000" stroke="#000000" points="713.36,-568.6 704.74,-562.43 707.63,-572.62 713.36,-568.6"/>
<text text-anchor="middle" x="995" y="-704.4" font-family="Times,serif" font-size="32.00">ed_1</text>
<text text-anchor="middle" x="995" y="-669.4" font-family="Times,serif" font-size="32.00">=&gt;2 =d perf</text>
</g>
<!-- z2 -->
<g id="node8" class="node">
<title>z2</title>
<ellipse fill="none" stroke="black" stroke-dasharray="5,2" cx="1546" cy="-661" rx="27" ry="18"/>
</g>
<!-- z2&#45;&gt;2 -->
<g id="edge6" class="edge">
<title>z2&#45;&gt;2</title>
<path fill="none" stroke="#000000" d="M1518.82,-661C1474.18,-661 1383.21,-661 1332.4,-661"/>
<polygon fill="#000000" stroke="#000000" points="1332.2,-657.5 1322.2,-661 1332.2,-664.5 1332.2,-657.5"/>
<text text-anchor="middle" x="1400.5" y="-810.4" font-family="Times,serif" font-size="32.00">danc |</text>
<text text-anchor="middle" x="1400.5" y="-775.4" font-family="Times,serif" font-size="32.00"> smil |</text>
<text text-anchor="middle" x="1400.5" y="-740.4" font-family="Times,serif" font-size="32.00"> jump_1 |</text>
<text text-anchor="middle" x="1400.5" y="-705.4" font-family="Times,serif" font-size="32.00"> laugh_1</text>
<text text-anchor="middle" x="1400.5" y="-670.4" font-family="Times,serif" font-size="32.00">2</text>
</g>
<!-- v&#45;&gt;0 -->
<g id="edge18" class="edge">
<title>v&#45;&gt;0</title>
<path fill="none" stroke="#000000" d="M400.8,-383.92C368.36,-375.19 311.68,-365.76 274,-392 248.76,-409.58 237.96,-443.4 233.36,-470.5"/>
<polygon fill="#000000" stroke="#000000" points="229.88,-470.11 231.89,-480.51 236.81,-471.13 229.88,-470.11"/>
<text text-anchor="middle" x="318" y="-471.4" font-family="Times,serif" font-size="32.00">will |</text>
<text text-anchor="middle" x="318" y="-436.4" font-family="Times,serif" font-size="32.00"> would</text>
<text text-anchor="middle" x="318" y="-401.4" font-family="Times,serif" font-size="32.00">=v 0</text>
</g>
<!-- prog&#45;&gt;0 -->
<g id="edge21" class="edge">
<title>prog&#45;&gt;0</title>
<path fill="none" stroke="#000000" d="M966.87,-579.05C949.31,-594.09 925.1,-611.64 900,-620 872.58,-629.13 407.28,-639.51 380,-630 329,-612.23 282.31,-569.08 255.01,-539.92"/>
<polygon fill="#000000" stroke="#000000" points="257.51,-537.47 248.16,-532.47 252.35,-542.2 257.51,-537.47"/>
<text text-anchor="middle" x="551" y="-712.4" font-family="Times,serif" font-size="32.00">is |</text>
<text text-anchor="middle" x="551" y="-677.4" font-family="Times,serif" font-size="32.00"> was</text>
<text text-anchor="middle" x="551" y="-642.4" font-family="Times,serif" font-size="32.00">=prog 0</text>
</g>
<!-- prog&#45;&gt;v -->
<g id="edge22" class="edge">
<title>prog&#45;&gt;v</title>
<path fill="none" stroke="#000000" d="M959.53,-530.29C913.09,-500.88 826.9,-450.38 746,-425 687.82,-406.75 670.62,-413.51 610,-407 559.5,-401.58 500.94,-397.07 464.18,-394.45"/>
<polygon fill="#000000" stroke="#000000" points="464.18,-390.94 453.96,-393.73 463.69,-397.93 464.18,-390.94"/>
<text text-anchor="middle" x="687" y="-469.4" font-family="Times,serif" font-size="32.00">be</text>
<text text-anchor="middle" x="687" y="-434.4" font-family="Times,serif" font-size="32.00">=prog v</text>
</g>
<!-- prog&#45;&gt;perf -->
<g id="edge23" class="edge">
<title>prog&#45;&gt;perf</title>
<path fill="none" stroke="#000000" d="M942.78,-549.82C888.32,-546.44 802.38,-541.1 745.6,-537.58"/>
<polygon fill="#000000" stroke="#000000" points="745.55,-534.07 735.36,-536.94 745.12,-541.05 745.55,-534.07"/>
<text text-anchor="middle" x="832" y="-590.4" font-family="Times,serif" font-size="32.00">been</text>
<text text-anchor="middle" x="832" y="-555.4" font-family="Times,serif" font-size="32.00">=prog perf</text>
</g>
<!-- perf&#45;&gt;0 -->
<g id="edge19" class="edge">
<title>perf&#45;&gt;0</title>
<path fill="none" stroke="#000000" d="M638.92,-531.63C547.58,-527.02 348.12,-516.96 266.21,-512.83"/>
<polygon fill="#000000" stroke="#000000" points="266.3,-509.33 256.14,-512.32 265.95,-516.32 266.3,-509.33"/>
<text text-anchor="middle" x="427" y="-602.4" font-family="Times,serif" font-size="32.00">has |</text>
<text text-anchor="middle" x="427" y="-567.4" font-family="Times,serif" font-size="32.00"> had</text>
<text text-anchor="middle" x="427" y="-532.4" font-family="Times,serif" font-size="32.00">=perf 0</text>
</g>
<!-- perf&#45;&gt;v -->
<g id="edge20" class="edge">
<title>perf&#45;&gt;v</title>
<path fill="none" stroke="#000000" d="M660.68,-508.36C649.75,-496.42 637.35,-481.65 628,-467 617.51,-450.57 625.29,-439.09 610,-427 609.28,-426.43 516.78,-408.83 463.94,-398.81"/>
<polygon fill="#000000" stroke="#000000" points="464.42,-395.33 453.95,-396.91 463.12,-402.21 464.42,-395.33"/>
<text text-anchor="middle" x="551" y="-471.4" font-family="Times,serif" font-size="32.00">have</text>
<text text-anchor="middle" x="551" y="-436.4" font-family="Times,serif" font-size="32.00">=perf v</text>
</g>
<!-- 3 -->
<g id="node12" class="node">
<title>3</title>
<ellipse fill="none" stroke="black" cx="1295" cy="-463" rx="27" ry="30.31"/>
<text text-anchor="middle" x="1295" y="-454.9" font-family="Times,serif" font-size="32.00">3</text>
</g>
<!-- 3&#45;&gt;1 -->
<g id="edge12" class="edge">
<title>3&#45;&gt;1</title>
<path fill="none" stroke="#f7931d" stroke-width="2" d="M1267.82,-463.15C1219.45,-462.96 1118.42,-460.18 1090,-441 1042.79,-409.13 1017.44,-345.58 1005.35,-304.2"/>
<polygon fill="#f7931d" stroke="#f7931d" stroke-width="2" points="1008.69,-303.14 1002.63,-294.45 1001.95,-305.02 1008.69,-303.14"/>
<text text-anchor="middle" x="1170" y="-506.4" font-family="Times,serif" font-size="32.00">g</text>
<text text-anchor="middle" x="1170" y="-471.4" font-family="Times,serif" font-size="32.00">=&gt;3 1</text>
</g>
<!-- z3 -->
<g id="node13" class="node">
<title>z3</title>
<ellipse fill="none" stroke="black" stroke-dasharray="5,2" cx="1546" cy="-347" rx="27" ry="18"/>
</g>
<!-- z3&#45;&gt;3 -->
<g id="edge13" class="edge">
<title>z3&#45;&gt;3</title>
<path fill="none" stroke="#f7931d" stroke-width="2" d="M1520.56,-340.34C1479.22,-330.63 1394.66,-317.61 1340,-356 1318.38,-371.18 1307.36,-399.01 1301.76,-422.48"/>
<polygon fill="#f7931d" stroke="#f7931d" stroke-width="2" points="1298.27,-422.05 1299.61,-432.56 1305.12,-423.51 1298.27,-422.05"/>
<text text-anchor="middle" x="1400.5" y="-435.4" font-family="Times,serif" font-size="32.00">bra |</text>
<text text-anchor="middle" x="1400.5" y="-400.4" font-family="Times,serif" font-size="32.00"> jo</text>
<text text-anchor="middle" x="1400.5" y="-365.4" font-family="Times,serif" font-size="32.00">3</text>
</g>
<!-- 4&#45;&gt;2 -->
<g id="edge14" class="edge">
<title>4&#45;&gt;2</title>
<path fill="none" stroke="#000000" d="M1525.09,-494.76C1508.93,-509.9 1484.99,-530.44 1461,-544 1411.32,-572.09 1384.09,-550.76 1340,-587 1327.9,-596.95 1318.33,-611.15 1311.25,-624.46"/>
<polygon fill="#000000" stroke="#000000" points="1308.09,-622.96 1306.74,-633.47 1314.35,-626.09 1308.09,-622.96"/>
<text text-anchor="middle" x="1400.5" y="-631.4" font-family="Times,serif" font-size="32.00">gg</text>
<text text-anchor="middle" x="1400.5" y="-596.4" font-family="Times,serif" font-size="32.00">=&gt;4 2</text>
</g>
<!-- 4&#45;&gt;3 -->
<g id="edge16" class="edge">
<title>4&#45;&gt;3</title>
<path fill="none" stroke="#f7931d" stroke-width="2" d="M1518.82,-473.74C1474.18,-471.59 1383.21,-467.2 1332.4,-464.75"/>
<polygon fill="#f7931d" stroke="#f7931d" stroke-width="2" points="1332.36,-461.25 1322.2,-464.26 1332.02,-468.24 1332.36,-461.25"/>
<text text-anchor="middle" x="1400.5" y="-514.4" font-family="Times,serif" font-size="32.00">ε_2</text>
<text text-anchor="middle" x="1400.5" y="-479.4" font-family="Times,serif" font-size="32.00">=&gt;4 3</text>
</g>
<!-- z4 -->
<g id="node15" class="node">
<title>z4</title>
<ellipse fill="none" stroke="black" stroke-dasharray="5,2" cx="1774" cy="-99" rx="27" ry="18"/>
</g>
<!-- z4&#45;&gt;4 -->
<g id="edge15" class="edge">
<title>z4&#45;&gt;4</title>
<path fill="none" stroke="#000000" d="M1763.56,-115.92C1739.29,-159.26 1672.46,-277.64 1613,-374 1598.69,-397.19 1581.88,-422.89 1568.81,-442.56"/>
<polygon fill="#000000" stroke="#000000" points="1565.72,-440.88 1563.09,-451.14 1571.55,-444.76 1565.72,-440.88"/>
<text text-anchor="middle" x="1680" y="-416.4" font-family="Times,serif" font-size="32.00">bra_1 |</text>
<text text-anchor="middle" x="1680" y="-381.4" font-family="Times,serif" font-size="32.00"> jo_1</text>
<text text-anchor="middle" x="1680" y="-346.4" font-family="Times,serif" font-size="32.00">4</text>
</g>
</g>
</svg>
