<?xml version="1.0" encoding="UTF-8" standalone="no"?>
<!DOCTYPE svg PUBLIC "-//W3C//DTD SVG 1.1//EN"
 "http://www.w3.org/Graphics/SVG/1.1/DTD/svg11.dtd">
<!-- Generated by graphviz version 2.47.1 (20210417.1919)
 -->
<!-- Title: G Pages: 1 -->
<svg width="1911pt" height="964pt"
 viewBox="0.00 0.00 1911.00 964.41" xmlns="http://www.w3.org/2000/svg" xmlns:xlink="http://www.w3.org/1999/xlink">
<g id="graph0" class="graph" transform="scale(1 1) rotate(0) translate(4 960.41)">
<title>G</title>
<polygon fill="white" stroke="transparent" points="-4,4 -4,-960.41 1907,-960.41 1907,4 -4,4"/>
<text text-anchor="middle" x="951.5" y="-13.4" font-family="Times,serif" font-size="32.00">decomposition: dance 1, smile 1, e =&gt;3 1</text>
<!-- t -->
<g id="node1" class="node">
<title>t</title>
<ellipse fill="lightgray" stroke="black" cx="27" cy="-633.41" rx="27" ry="30.31"/>
<text text-anchor="middle" x="27" y="-625.31" font-family="Times,serif" font-size="32.00">t</text>
</g>
<!-- z0 -->
<g id="node2" class="node">
<title>z0</title>
<ellipse fill="none" stroke="black" stroke-dasharray="5,2" cx="1876" cy="-400.41" rx="27" ry="18"/>
</g>
<!-- d -->
<g id="node3" class="node">
<title>d</title>
<ellipse fill="none" stroke="black" cx="1716" cy="-400.41" rx="27" ry="30.31"/>
<text text-anchor="middle" x="1716" y="-392.31" font-family="Times,serif" font-size="32.00">d</text>
</g>
<!-- z0&#45;&gt;d -->
<g id="edge1" class="edge">
<title>z0&#45;&gt;d</title>
<path fill="none" stroke="#000000" d="M1848.91,-400.41C1822.84,-400.41 1782.53,-400.41 1753.34,-400.41"/>
<polygon fill="#000000" stroke="#000000" points="1753.13,-396.91 1743.13,-400.41 1753.13,-403.91 1753.13,-396.91"/>
<text text-anchor="middle" x="1796" y="-444.81" font-family="Times,serif" font-size="32.00">Mary</text>
<text text-anchor="middle" x="1796" y="-409.81" font-family="Times,serif" font-size="32.00">d &#45;k</text>
</g>
<!-- 4 -->
<g id="node13" class="node">
<title>4</title>
<ellipse fill="none" stroke="black" cx="1528" cy="-307.41" rx="27" ry="30.31"/>
<text text-anchor="middle" x="1528" y="-299.31" font-family="Times,serif" font-size="32.00">4</text>
</g>
<!-- d&#45;&gt;4 -->
<g id="edge12" class="edge">
<title>d&#45;&gt;4</title>
<path fill="none" stroke="#000000" d="M1705.3,-372.05C1698.31,-356.03 1687.21,-337.11 1671,-326.41 1639.62,-305.68 1595.79,-302.81 1565.15,-303.93"/>
<polygon fill="#000000" stroke="#000000" points="1564.7,-300.45 1554.9,-304.47 1565.07,-307.44 1564.7,-300.45"/>
<text text-anchor="middle" x="1622" y="-370.81" font-family="Times,serif" font-size="32.00">lik</text>
<text text-anchor="middle" x="1622" y="-335.81" font-family="Times,serif" font-size="32.00">=d *k 4</text>
</g>
<!-- 5 -->
<g id="node15" class="node">
<title>5</title>
<ellipse fill="none" stroke="black" cx="1528" cy="-400.41" rx="27" ry="30.31"/>
<text text-anchor="middle" x="1528" y="-392.31" font-family="Times,serif" font-size="32.00">5</text>
</g>
<!-- d&#45;&gt;5 -->
<g id="edge16" class="edge">
<title>d&#45;&gt;5</title>
<path fill="none" stroke="#000000" d="M1688.75,-400.41C1656.48,-400.41 1601.56,-400.41 1565.28,-400.41"/>
<polygon fill="#000000" stroke="#000000" points="1565.12,-396.91 1555.12,-400.41 1565.12,-403.91 1565.12,-396.91"/>
<text text-anchor="middle" x="1622" y="-444.81" font-family="Times,serif" font-size="32.00">destroy</text>
<text text-anchor="middle" x="1622" y="-409.81" font-family="Times,serif" font-size="32.00">=d *k 5</text>
</g>
<!-- 6 -->
<g id="node16" class="node">
<title>6</title>
<ellipse fill="none" stroke="black" cx="1528" cy="-539.41" rx="27" ry="30.31"/>
<text text-anchor="middle" x="1528" y="-531.31" font-family="Times,serif" font-size="32.00">6</text>
</g>
<!-- d&#45;&gt;6 -->
<g id="edge21" class="edge">
<title>d&#45;&gt;6</title>
<path fill="none" stroke="#000000" d="M1704.46,-428C1697.28,-443.12 1686.28,-460.87 1671,-471.41 1634.48,-496.59 1611.61,-468.54 1573,-490.41 1565.21,-494.82 1558.06,-501.12 1551.9,-507.74"/>
<polygon fill="#000000" stroke="#000000" points="1549.03,-505.71 1545.14,-515.57 1554.32,-510.29 1549.03,-505.71"/>
<text text-anchor="middle" x="1622" y="-534.81" font-family="Times,serif" font-size="32.00">hu</text>
<text text-anchor="middle" x="1622" y="-499.81" font-family="Times,serif" font-size="32.00">=d *k 6</text>
</g>
<!-- 0 -->
<g id="node4" class="node">
<title>0</title>
<ellipse fill="none" stroke="black" cx="229" cy="-633.41" rx="27" ry="30.31"/>
<text text-anchor="middle" x="229" y="-625.31" font-family="Times,serif" font-size="32.00">0</text>
</g>
<!-- 0&#45;&gt;t -->
<g id="edge2" class="edge">
<title>0&#45;&gt;t</title>
<path fill="none" stroke="#000000" d="M201.85,-633.41C166.67,-633.41 103.92,-633.41 64.21,-633.41"/>
<polygon fill="#000000" stroke="#000000" points="64.15,-629.91 54.15,-633.41 64.15,-636.91 64.15,-629.91"/>
<text text-anchor="middle" x="128" y="-677.81" font-family="Times,serif" font-size="32.00">ε_0</text>
<text text-anchor="middle" x="128" y="-642.81" font-family="Times,serif" font-size="32.00">=&gt;0 +k t</text>
</g>
<!-- 1 -->
<g id="node5" class="node">
<title>1</title>
<ellipse fill="none" stroke="black" cx="995" cy="-324.41" rx="27" ry="30.31"/>
<text text-anchor="middle" x="995" y="-316.31" font-family="Times,serif" font-size="32.00">1</text>
</g>
<!-- 1&#45;&gt;0 -->
<g id="edge3" class="edge">
<title>1&#45;&gt;0</title>
<path fill="none" stroke="#000000" d="M967.91,-322.65C892.25,-318.38 667.04,-311.53 492,-366.41 385.22,-399.88 343.9,-405.01 274,-492.41 250.86,-521.34 239.83,-562.52 234.6,-592.91"/>
<polygon fill="#000000" stroke="#000000" points="231.08,-592.75 232.99,-603.17 238,-593.84 231.08,-592.75"/>
<text text-anchor="middle" x="551" y="-410.81" font-family="Times,serif" font-size="32.00">s</text>
<text text-anchor="middle" x="551" y="-375.81" font-family="Times,serif" font-size="32.00">=&gt;1 =d 0</text>
</g>
<!-- v -->
<g id="node10" class="node">
<title>v</title>
<ellipse fill="none" stroke="black" cx="427" cy="-514.41" rx="27" ry="30.31"/>
<text text-anchor="middle" x="427" y="-506.31" font-family="Times,serif" font-size="32.00">v</text>
</g>
<!-- 1&#45;&gt;v -->
<g id="edge8" class="edge">
<title>1&#45;&gt;v</title>
<path fill="none" stroke="#000000" d="M968.46,-331.24C908.49,-347.47 754.21,-390.3 628,-434.41 568.77,-455.11 501.27,-483.04 461.78,-499.83"/>
<polygon fill="#000000" stroke="#000000" points="460.19,-496.7 452.37,-503.85 462.94,-503.14 460.19,-496.7"/>
<text text-anchor="middle" x="687" y="-478.81" font-family="Times,serif" font-size="32.00">ε_1</text>
<text text-anchor="middle" x="687" y="-443.81" font-family="Times,serif" font-size="32.00">=&gt;1 =d v</text>
</g>
<!-- 2 -->
<g id="node6" class="node">
<title>2</title>
<ellipse fill="none" stroke="black" cx="1306" cy="-111.41" rx="27" ry="30.31"/>
<text text-anchor="middle" x="1306" y="-103.31" font-family="Times,serif" font-size="32.00">2</text>
</g>
<!-- 2&#45;&gt;1 -->
<g id="edge4" class="edge">
<title>2&#45;&gt;1</title>
<path fill="none" stroke="#f7931d" stroke-width="2" d="M1279.64,-103.36C1236.68,-91.37 1148.58,-74.11 1090,-112.41 1031.64,-150.56 1009.22,-234.11 1000.83,-284.18"/>
<polygon fill="#f7931d" stroke="#f7931d" stroke-width="2" points="997.33,-283.9 999.24,-294.33 1004.24,-284.99 997.33,-283.9"/>
<text text-anchor="middle" x="1170" y="-156.81" font-family="Times,serif" font-size="32.00">e</text>
<text text-anchor="middle" x="1170" y="-121.81" font-family="Times,serif" font-size="32.00">=&gt;2 1</text>
</g>
<!-- z1 -->
<g id="node7" class="node">
<title>z1</title>
<ellipse fill="none" stroke="black" stroke-dasharray="5,2" cx="1528" cy="-111.41" rx="27" ry="18"/>
</g>
<!-- z1&#45;&gt;2 -->
<g id="edge5" class="edge">
<title>z1&#45;&gt;2</title>
<path fill="none" stroke="#f7931d" stroke-width="2" d="M1500.9,-111.41C1461.7,-111.41 1387.51,-111.41 1343.13,-111.41"/>
<polygon fill="#f7931d" stroke="#f7931d" stroke-width="2" points="1343.07,-107.91 1333.07,-111.41 1343.07,-114.91 1343.07,-107.91"/>
<text text-anchor="middle" x="1422.5" y="-190.81" font-family="Times,serif" font-size="32.00">danc |</text>
<text text-anchor="middle" x="1422.5" y="-155.81" font-family="Times,serif" font-size="32.00"> smil</text>
<text text-anchor="middle" x="1422.5" y="-120.81" font-family="Times,serif" font-size="32.00">2</text>
</g>
<!-- 3 -->
<g id="node8" class="node">
<title>3</title>
<ellipse fill="none" stroke="black" cx="1306" cy="-608.41" rx="27" ry="30.31"/>
<text text-anchor="middle" x="1306" y="-600.31" font-family="Times,serif" font-size="32.00">3</text>
</g>
<!-- 3&#45;&gt;0 -->
<g id="edge6" class="edge">
<title>3&#45;&gt;0</title>
<path fill="none" stroke="#000000" d="M1292.05,-634.56C1255.74,-703.76 1145.74,-886.41 996,-886.41 996,-886.41 996,-886.41 426,-886.41 319.03,-886.41 262.1,-743.3 240.44,-672.35"/>
<polygon fill="#000000" stroke="#000000" points="243.7,-671.02 237.5,-662.43 236.99,-673.01 243.7,-671.02"/>
<text text-anchor="middle" x="687" y="-930.81" font-family="Times,serif" font-size="32.00">ed</text>
<text text-anchor="middle" x="687" y="-895.81" font-family="Times,serif" font-size="32.00">=&gt;3 =d 0</text>
</g>
<!-- prog -->
<g id="node11" class="node">
<title>prog</title>
<ellipse fill="none" stroke="black" cx="995" cy="-633.41" rx="52.15" ry="30.31"/>
<text text-anchor="middle" x="995" y="-625.31" font-family="Times,serif" font-size="32.00">prog</text>
</g>
<!-- 3&#45;&gt;prog -->
<g id="edge9" class="edge">
<title>3&#45;&gt;prog</title>
<path fill="none" stroke="#000000" d="M1278.92,-610.52C1230.28,-614.45 1124.52,-623.01 1056.98,-628.47"/>
<polygon fill="#000000" stroke="#000000" points="1056.58,-624.99 1046.9,-629.29 1057.15,-631.97 1056.58,-624.99"/>
<text text-anchor="middle" x="1170" y="-668.81" font-family="Times,serif" font-size="32.00">ing</text>
<text text-anchor="middle" x="1170" y="-633.81" font-family="Times,serif" font-size="32.00">=&gt;3 =d prog</text>
</g>
<!-- perf -->
<g id="node12" class="node">
<title>perf</title>
<ellipse fill="none" stroke="black" cx="687" cy="-633.41" rx="48.17" ry="30.31"/>
<text text-anchor="middle" x="687" y="-625.31" font-family="Times,serif" font-size="32.00">perf</text>
</g>
<!-- 3&#45;&gt;perf -->
<g id="edge10" class="edge">
<title>3&#45;&gt;perf</title>
<path fill="none" stroke="#000000" d="M1280.94,-596.56C1239.49,-576.89 1151.42,-538.28 1072,-524.41 1004.58,-512.62 984.78,-509.38 918,-524.41 848.23,-540.1 774.74,-579.52 730.13,-606.39"/>
<polygon fill="#000000" stroke="#000000" points="728.05,-603.56 721.33,-611.75 731.7,-609.54 728.05,-603.56"/>
<text text-anchor="middle" x="995" y="-568.81" font-family="Times,serif" font-size="32.00">ed_1</text>
<text text-anchor="middle" x="995" y="-533.81" font-family="Times,serif" font-size="32.00">=&gt;3 =d perf</text>
</g>
<!-- z2 -->
<g id="node9" class="node">
<title>z2</title>
<ellipse fill="none" stroke="black" stroke-dasharray="5,2" cx="1528" cy="-661.41" rx="27" ry="18"/>
</g>
<!-- z2&#45;&gt;3 -->
<g id="edge7" class="edge">
<title>z2&#45;&gt;3</title>
<path fill="none" stroke="#000000" d="M1500.88,-660.96C1467.76,-659.71 1409.27,-655.22 1362,-639.41 1354.11,-636.76 1346.06,-632.96 1338.64,-628.92"/>
<polygon fill="#000000" stroke="#000000" points="1340.05,-625.7 1329.64,-623.74 1336.56,-631.76 1340.05,-625.7"/>
<text text-anchor="middle" x="1422.5" y="-808.81" font-family="Times,serif" font-size="32.00">danc_1 |</text>
<text text-anchor="middle" x="1422.5" y="-773.81" font-family="Times,serif" font-size="32.00"> smil_1 |</text>
<text text-anchor="middle" x="1422.5" y="-738.81" font-family="Times,serif" font-size="32.00"> jump_1 |</text>
<text text-anchor="middle" x="1422.5" y="-703.81" font-family="Times,serif" font-size="32.00"> laugh_1</text>
<text text-anchor="middle" x="1422.5" y="-668.81" font-family="Times,serif" font-size="32.00">3</text>
</g>
<!-- v&#45;&gt;0 -->
<g id="edge22" class="edge">
<title>v&#45;&gt;0</title>
<path fill="none" stroke="#000000" d="M400.8,-506.33C368.36,-497.6 311.68,-488.16 274,-514.41 248.76,-531.99 237.96,-565.8 233.36,-592.9"/>
<polygon fill="#000000" stroke="#000000" points="229.88,-592.51 231.89,-602.92 236.81,-593.53 229.88,-592.51"/>
<text text-anchor="middle" x="318" y="-593.81" font-family="Times,serif" font-size="32.00">will |</text>
<text text-anchor="middle" x="318" y="-558.81" font-family="Times,serif" font-size="32.00"> would</text>
<text text-anchor="middle" x="318" y="-523.81" font-family="Times,serif" font-size="32.00">=v 0</text>
</g>
<!-- prog&#45;&gt;0 -->
<g id="edge25" class="edge">
<title>prog&#45;&gt;0</title>
<path fill="none" stroke="#000000" d="M968.73,-660.13C951.18,-676.84 926.29,-697.07 900,-707.41 792.21,-749.77 490.15,-778.2 380,-742.41 331.03,-726.49 284.69,-687.91 256.82,-661.2"/>
<polygon fill="#000000" stroke="#000000" points="259.06,-658.49 249.46,-654.01 254.16,-663.5 259.06,-658.49"/>
<text text-anchor="middle" x="551" y="-837.81" font-family="Times,serif" font-size="32.00">is |</text>
<text text-anchor="middle" x="551" y="-802.81" font-family="Times,serif" font-size="32.00"> was</text>
<text text-anchor="middle" x="551" y="-767.81" font-family="Times,serif" font-size="32.00">=prog 0</text>
</g>
<!-- prog&#45;&gt;v -->
<g id="edge26" class="edge">
<title>prog&#45;&gt;v</title>
<path fill="none" stroke="#000000" d="M953.08,-614.94C885.47,-584.49 756.78,-526.85 746,-524.41 645.89,-501.73 523.54,-506.71 464,-511.14"/>
<polygon fill="#000000" stroke="#000000" points="463.67,-507.65 453.98,-511.92 464.22,-514.63 463.67,-507.65"/>
<text text-anchor="middle" x="687" y="-568.81" font-family="Times,serif" font-size="32.00">be</text>
<text text-anchor="middle" x="687" y="-533.81" font-family="Times,serif" font-size="32.00">=prog v</text>
</g>
<!-- prog&#45;&gt;perf -->
<g id="edge27" class="edge">
<title>prog&#45;&gt;perf</title>
<path fill="none" stroke="#000000" d="M942.44,-633.41C887.92,-633.41 802.13,-633.41 745.47,-633.41"/>
<polygon fill="#000000" stroke="#000000" points="745.24,-629.91 735.24,-633.41 745.24,-636.91 745.24,-629.91"/>
<text text-anchor="middle" x="832" y="-677.81" font-family="Times,serif" font-size="32.00">been</text>
<text text-anchor="middle" x="832" y="-642.81" font-family="Times,serif" font-size="32.00">=prog perf</text>
</g>
<!-- perf&#45;&gt;0 -->
<g id="edge23" class="edge">
<title>perf&#45;&gt;0</title>
<path fill="none" stroke="#000000" d="M638.49,-633.41C547.02,-633.41 348.26,-633.41 266.38,-633.41"/>
<polygon fill="#000000" stroke="#000000" points="266.08,-629.91 256.08,-633.41 266.08,-636.91 266.08,-629.91"/>
<text text-anchor="middle" x="427" y="-712.81" font-family="Times,serif" font-size="32.00">has |</text>
<text text-anchor="middle" x="427" y="-677.81" font-family="Times,serif" font-size="32.00"> had</text>
<text text-anchor="middle" x="427" y="-642.81" font-family="Times,serif" font-size="32.00">=perf 0</text>
</g>
<!-- perf&#45;&gt;v -->
<g id="edge24" class="edge">
<title>perf&#45;&gt;v</title>
<path fill="none" stroke="#000000" d="M652.19,-612.22C643.54,-605.67 634.77,-597.91 628,-589.41 615.86,-574.15 625.29,-561.5 610,-549.41 609.28,-548.84 516.78,-531.23 463.94,-521.21"/>
<polygon fill="#000000" stroke="#000000" points="464.42,-517.74 453.95,-519.32 463.12,-524.62 464.42,-517.74"/>
<text text-anchor="middle" x="551" y="-593.81" font-family="Times,serif" font-size="32.00">have</text>
<text text-anchor="middle" x="551" y="-558.81" font-family="Times,serif" font-size="32.00">=perf v</text>
</g>
<!-- 4&#45;&gt;2 -->
<g id="edge11" class="edge">
<title>4&#45;&gt;2</title>
<path fill="none" stroke="#f7931d" stroke-width="2" d="M1515.59,-280.32C1508.3,-266.27 1497.47,-250.07 1483,-240.41 1437.48,-210.01 1404.98,-251.31 1362,-217.41 1346.69,-205.33 1352.78,-194.81 1344,-177.41 1338.7,-166.9 1332.58,-155.66 1326.86,-145.5"/>
<polygon fill="#f7931d" stroke="#f7931d" stroke-width="2" points="1329.74,-143.48 1321.76,-136.51 1323.66,-146.93 1329.74,-143.48"/>
<text text-anchor="middle" x="1422.5" y="-284.81" font-family="Times,serif" font-size="32.00">ε_2</text>
<text text-anchor="middle" x="1422.5" y="-249.81" font-family="Times,serif" font-size="32.00">=&gt;4 2</text>
</g>
<!-- 4&#45;&gt;3 -->
<g id="edge13" class="edge">
<title>4&#45;&gt;3</title>
<path fill="none" stroke="#000000" d="M1501.2,-313.07C1457.07,-323 1370.98,-343.52 1362,-354.41 1332.21,-390.55 1361.91,-521.13 1344,-564.41 1341.5,-570.46 1337.84,-576.3 1333.8,-581.64"/>
<polygon fill="#000000" stroke="#000000" points="1330.91,-579.64 1327.22,-589.58 1336.3,-584.11 1330.91,-579.64"/>
<text text-anchor="middle" x="1422.5" y="-398.81" font-family="Times,serif" font-size="32.00">ε_3</text>
<text text-anchor="middle" x="1422.5" y="-363.81" font-family="Times,serif" font-size="32.00">=&gt;4 3</text>
</g>
<!-- z3 -->
<g id="node14" class="node">
<title>z3</title>
<ellipse fill="none" stroke="black" stroke-dasharray="5,2" cx="1306" cy="-204.41" rx="27" ry="18"/>
</g>
<!-- z3&#45;&gt;1 -->
<g id="edge14" class="edge">
<title>z3&#45;&gt;1</title>
<path fill="none" stroke="#000000" d="M1280.57,-198C1239,-188.46 1152.92,-174.75 1090,-205.41 1054.55,-222.68 1028.4,-260.48 1012.81,-288.87"/>
<polygon fill="#000000" stroke="#000000" points="1009.71,-287.25 1008.12,-297.72 1015.89,-290.53 1009.71,-287.25"/>
<text text-anchor="middle" x="1170" y="-284.81" font-family="Times,serif" font-size="32.00">jump |</text>
<text text-anchor="middle" x="1170" y="-249.81" font-family="Times,serif" font-size="32.00"> laugh</text>
<text text-anchor="middle" x="1170" y="-214.81" font-family="Times,serif" font-size="32.00">1</text>
</g>
<!-- 5&#45;&gt;1 -->
<g id="edge15" class="edge">
<title>5&#45;&gt;1</title>
<path fill="none" stroke="#000000" d="M1515.13,-373.47C1507.86,-360.44 1497.2,-346 1483,-338.41 1405.28,-296.83 1131.35,-313.67 1032.18,-321.37"/>
<polygon fill="#000000" stroke="#000000" points="1031.75,-317.89 1022.05,-322.17 1032.3,-324.87 1031.75,-317.89"/>
<text text-anchor="middle" x="1306" y="-356.81" font-family="Times,serif" font-size="32.00">ε_4</text>
<text text-anchor="middle" x="1306" y="-321.81" font-family="Times,serif" font-size="32.00">=&gt;5 1</text>
</g>
<!-- 5&#45;&gt;3 -->
<g id="edge17" class="edge">
<title>5&#45;&gt;3</title>
<path fill="none" stroke="#000000" d="M1504.71,-415.91C1497.92,-420.27 1490.31,-424.8 1483,-428.41 1431.67,-453.69 1399.2,-428.92 1362,-472.41 1334.92,-504.07 1361.98,-526.82 1344,-564.41 1341.23,-570.2 1337.52,-575.85 1333.51,-581.08"/>
<polygon fill="#000000" stroke="#000000" points="1330.73,-578.95 1327.06,-588.9 1336.12,-583.41 1330.73,-578.95"/>
<text text-anchor="middle" x="1422.5" y="-516.81" font-family="Times,serif" font-size="32.00">ε_5</text>
<text text-anchor="middle" x="1422.5" y="-481.81" font-family="Times,serif" font-size="32.00">=&gt;5 3</text>
</g>
<!-- 6&#45;&gt;1 -->
<g id="edge18" class="edge">
<title>6&#45;&gt;1</title>
<path fill="none" stroke="#000000" d="M1500.92,-542.38C1466.81,-545.03 1406.2,-545.37 1362,-521.41 1350.89,-515.38 1353.86,-507.31 1344,-499.41 1242.35,-417.96 1096.66,-360.01 1030.75,-336.3"/>
<polygon fill="#000000" stroke="#000000" points="1031.84,-332.97 1021.24,-332.92 1029.49,-339.57 1031.84,-332.97"/>
<text text-anchor="middle" x="1306" y="-543.81" font-family="Times,serif" font-size="32.00">g</text>
<text text-anchor="middle" x="1306" y="-508.81" font-family="Times,serif" font-size="32.00">=&gt;6 1</text>
</g>
<!-- 6&#45;&gt;3 -->
<g id="edge20" class="edge">
<title>6&#45;&gt;3</title>
<path fill="none" stroke="#000000" d="M1500.94,-543.56C1495.04,-544.5 1488.81,-545.49 1483,-546.41 1429.23,-554.9 1411.93,-543.72 1362,-565.41 1352.33,-569.61 1342.88,-575.92 1334.62,-582.42"/>
<polygon fill="#000000" stroke="#000000" points="1332.25,-579.84 1326.78,-588.92 1336.72,-585.22 1332.25,-579.84"/>
<text text-anchor="middle" x="1422.5" y="-609.81" font-family="Times,serif" font-size="32.00">gg</text>
<text text-anchor="middle" x="1422.5" y="-574.81" font-family="Times,serif" font-size="32.00">=&gt;6 3</text>
</g>
<!-- z4 -->
<g id="node17" class="node">
<title>z4</title>
<ellipse fill="none" stroke="black" stroke-dasharray="5,2" cx="1716" cy="-586.41" rx="27" ry="18"/>
</g>
<!-- z4&#45;&gt;6 -->
<g id="edge19" class="edge">
<title>z4&#45;&gt;6</title>
<path fill="none" stroke="#000000" d="M1688.93,-585.19C1659.91,-583.2 1611.99,-577.99 1573,-564.41 1568.99,-563.01 1564.92,-561.25 1560.96,-559.31"/>
<polygon fill="#000000" stroke="#000000" points="1562.47,-556.15 1552,-554.55 1559.19,-562.33 1562.47,-556.15"/>
<text text-anchor="middle" x="1622" y="-662.81" font-family="Times,serif" font-size="32.00">bra |</text>
<text text-anchor="middle" x="1622" y="-627.81" font-family="Times,serif" font-size="32.00"> jo</text>
<text text-anchor="middle" x="1622" y="-592.81" font-family="Times,serif" font-size="32.00">6</text>
</g>
</g>
</svg>
