<?xml version="1.0" encoding="UTF-8" standalone="no"?>
<!DOCTYPE svg PUBLIC "-//W3C//DTD SVG 1.1//EN"
 "http://www.w3.org/Graphics/SVG/1.1/DTD/svg11.dtd">
<!-- Generated by graphviz version 2.47.1 (20210417.1919)
 -->
<!-- Title: G Pages: 1 -->
<svg width="1765pt" height="1659pt"
 viewBox="0.00 0.00 1765.00 1659.31" xmlns="http://www.w3.org/2000/svg" xmlns:xlink="http://www.w3.org/1999/xlink">
<g id="graph0" class="graph" transform="scale(1 1) rotate(0) translate(4 1655.31)">
<title>G</title>
<polygon fill="white" stroke="transparent" points="-4,4 -4,-1655.31 1761,-1655.31 1761,4 -4,4"/>
<text text-anchor="middle" x="878.5" y="-13.4" font-family="Times,serif" font-size="32.00">single contraction: 2 → 1</text>
<!-- t -->
<g id="node1" class="node">
<title>t</title>
<ellipse fill="lightgray" stroke="black" cx="27" cy="-616.31" rx="27" ry="30.31"/>
<text text-anchor="middle" x="27" y="-608.21" font-family="Times,serif" font-size="32.00">t</text>
</g>
<!-- z0 -->
<g id="node2" class="node">
<title>z0</title>
<ellipse fill="none" stroke="black" stroke-dasharray="5,2" cx="1730" cy="-917.31" rx="27" ry="18"/>
</g>
<!-- d -->
<g id="node3" class="node">
<title>d</title>
<ellipse fill="none" stroke="black" cx="1570" cy="-917.31" rx="27" ry="30.31"/>
<text text-anchor="middle" x="1570" y="-909.21" font-family="Times,serif" font-size="32.00">d</text>
</g>
<!-- z0&#45;&gt;d -->
<g id="edge1" class="edge">
<title>z0&#45;&gt;d</title>
<path fill="none" stroke="#000000" d="M1702.91,-917.31C1676.84,-917.31 1636.53,-917.31 1607.34,-917.31"/>
<polygon fill="#000000" stroke="#000000" points="1607.13,-913.81 1597.13,-917.31 1607.13,-920.81 1607.13,-913.81"/>
<text text-anchor="middle" x="1650" y="-961.71" font-family="Times,serif" font-size="32.00">Mary</text>
<text text-anchor="middle" x="1650" y="-926.71" font-family="Times,serif" font-size="32.00">d &#45;k</text>
</g>
<!-- 0 -->
<g id="node4" class="node">
<title>0</title>
<ellipse fill="none" stroke="black" cx="1267" cy="-1406.31" rx="27" ry="30.31"/>
<text text-anchor="middle" x="1267" y="-1398.21" font-family="Times,serif" font-size="32.00">0</text>
</g>
<!-- d&#45;&gt;0 -->
<g id="edge9" class="edge">
<title>d&#45;&gt;0</title>
<path fill="none" stroke="#000000" d="M1566.72,-947.49C1561.83,-1005.87 1548.8,-1131.66 1525,-1167.31 1481.39,-1232.62 1433.6,-1208.92 1376,-1262.31 1340.22,-1295.46 1307.92,-1341.72 1288.16,-1372.78"/>
<polygon fill="#000000" stroke="#000000" points="1285.04,-1371.17 1282.68,-1381.5 1290.97,-1374.89 1285.04,-1371.17"/>
<text text-anchor="middle" x="1450.5" y="-1376.71" font-family="Times,serif" font-size="32.00">like |</text>
<text text-anchor="middle" x="1450.5" y="-1341.71" font-family="Times,serif" font-size="32.00"> destroy |</text>
<text text-anchor="middle" x="1450.5" y="-1306.71" font-family="Times,serif" font-size="32.00"> hug</text>
<text text-anchor="middle" x="1450.5" y="-1271.71" font-family="Times,serif" font-size="32.00">=d *k 0</text>
</g>
<!-- 1 -->
<g id="node6" class="node">
<title>1</title>
<ellipse fill="none" stroke="black" cx="1267" cy="-398.31" rx="27" ry="30.31"/>
<text text-anchor="middle" x="1267" y="-390.21" font-family="Times,serif" font-size="32.00">1</text>
</g>
<!-- d&#45;&gt;1 -->
<g id="edge10" class="edge">
<title>d&#45;&gt;1</title>
<path fill="none" stroke="#000000" d="M1568.89,-886.73C1568.2,-776.83 1563.05,-406.41 1525,-371.31 1493.53,-342.27 1366.12,-371.54 1303.33,-388.32"/>
<polygon fill="#000000" stroke="#000000" points="1302.2,-384.99 1293.47,-390.99 1304.03,-391.75 1302.2,-384.99"/>
<text text-anchor="middle" x="1450.5" y="-485.71" font-family="Times,serif" font-size="32.00">lik |</text>
<text text-anchor="middle" x="1450.5" y="-450.71" font-family="Times,serif" font-size="32.00"> destroy_1 |</text>
<text text-anchor="middle" x="1450.5" y="-415.71" font-family="Times,serif" font-size="32.00"> hugg</text>
<text text-anchor="middle" x="1450.5" y="-380.71" font-family="Times,serif" font-size="32.00">=d *k 1</text>
</g>
<!-- v -->
<g id="node8" class="node">
<title>v</title>
<ellipse fill="none" stroke="black" cx="248.5" cy="-769.31" rx="27" ry="30.31"/>
<text text-anchor="middle" x="248.5" y="-761.21" font-family="Times,serif" font-size="32.00">v</text>
</g>
<!-- d&#45;&gt;v -->
<g id="edge6" class="edge">
<title>d&#45;&gt;v</title>
<path fill="none" stroke="#000000" d="M1565.64,-947.63C1559.88,-994.01 1546.6,-1079.4 1525,-1100.31 1441.2,-1181.42 1384.63,-1153.31 1268,-1153.31 1268,-1153.31 1268,-1153.31 561,-1153.31 435.97,-1153.31 407.12,-1090.5 331,-991.31 288.5,-935.92 266.51,-856.18 256.52,-808.87"/>
<polygon fill="#000000" stroke="#000000" points="259.94,-808.1 254.52,-799 253.08,-809.49 259.94,-808.1"/>
<text text-anchor="middle" x="888" y="-1372.71" font-family="Times,serif" font-size="32.00">dance_1 |</text>
<text text-anchor="middle" x="888" y="-1337.71" font-family="Times,serif" font-size="32.00"> smile_1 |</text>
<text text-anchor="middle" x="888" y="-1302.71" font-family="Times,serif" font-size="32.00"> jump_2 |</text>
<text text-anchor="middle" x="888" y="-1267.71" font-family="Times,serif" font-size="32.00"> laugh_2 |</text>
<text text-anchor="middle" x="888" y="-1232.71" font-family="Times,serif" font-size="32.00"> brag_1 |</text>
<text text-anchor="middle" x="888" y="-1197.71" font-family="Times,serif" font-size="32.00"> jog_1</text>
<text text-anchor="middle" x="888" y="-1162.71" font-family="Times,serif" font-size="32.00">=d v</text>
</g>
<!-- d&#45;&gt;v -->
<g id="edge11" class="edge">
<title>d&#45;&gt;v</title>
<path fill="none" stroke="#000000" d="M1547.65,-934.67C1465.19,-999.57 1163.18,-1216.84 983,-1072.31 954.23,-1049.23 990.7,-1017.75 965,-991.31 762.46,-782.9 592.84,-957.39 331,-831.31 311.67,-822 292.46,-807.69 277.55,-795.17"/>
<polygon fill="#000000" stroke="#000000" points="279.59,-792.31 269.73,-788.43 275.02,-797.61 279.59,-792.31"/>
<text text-anchor="middle" x="888" y="-1105.71" font-family="Times,serif" font-size="32.00">like_1 |</text>
<text text-anchor="middle" x="888" y="-1070.71" font-family="Times,serif" font-size="32.00"> destroy_2 |</text>
<text text-anchor="middle" x="888" y="-1035.71" font-family="Times,serif" font-size="32.00"> hug_1</text>
<text text-anchor="middle" x="888" y="-1000.71" font-family="Times,serif" font-size="32.00">=d *k =d v</text>
</g>
<!-- prog -->
<g id="node9" class="node">
<title>prog</title>
<ellipse fill="none" stroke="black" cx="888" cy="-558.31" rx="52.15" ry="30.31"/>
<text text-anchor="middle" x="888" y="-550.21" font-family="Times,serif" font-size="32.00">prog</text>
</g>
<!-- d&#45;&gt;prog -->
<g id="edge7" class="edge">
<title>d&#45;&gt;prog</title>
<path fill="none" stroke="#000000" d="M1552.17,-893.89C1519.71,-850.54 1444.05,-757.77 1358,-709.31 1285.3,-668.36 1255.73,-687.89 1176,-663.31 1092.85,-637.66 998.44,-601.78 941.33,-579.3"/>
<polygon fill="#000000" stroke="#000000" points="942.39,-575.96 931.8,-575.54 939.82,-582.47 942.39,-575.96"/>
<text text-anchor="middle" x="1267" y="-858.71" font-family="Times,serif" font-size="32.00">dancing |</text>
<text text-anchor="middle" x="1267" y="-823.71" font-family="Times,serif" font-size="32.00"> smiling |</text>
<text text-anchor="middle" x="1267" y="-788.71" font-family="Times,serif" font-size="32.00"> jumping |</text>
<text text-anchor="middle" x="1267" y="-753.71" font-family="Times,serif" font-size="32.00"> laughing</text>
<text text-anchor="middle" x="1267" y="-718.71" font-family="Times,serif" font-size="32.00">=d prog</text>
</g>
<!-- d&#45;&gt;prog -->
<g id="edge12" class="edge">
<title>d&#45;&gt;prog</title>
<path fill="none" stroke="#000000" d="M1566.88,-887.01C1563.05,-846.49 1552.62,-773.25 1525,-717.31 1474.04,-614.08 1462.4,-567.83 1358,-519.31 1286.51,-486.08 1056.3,-525.11 947.28,-546.34"/>
<polygon fill="#000000" stroke="#000000" points="946.57,-542.91 937.43,-548.27 947.92,-549.78 946.57,-542.91"/>
<text text-anchor="middle" x="1267" y="-633.71" font-family="Times,serif" font-size="32.00">liking |</text>
<text text-anchor="middle" x="1267" y="-598.71" font-family="Times,serif" font-size="32.00"> destroying |</text>
<text text-anchor="middle" x="1267" y="-563.71" font-family="Times,serif" font-size="32.00"> hugging</text>
<text text-anchor="middle" x="1267" y="-528.71" font-family="Times,serif" font-size="32.00">=d *k =d prog</text>
</g>
<!-- perf -->
<g id="node10" class="node">
<title>perf</title>
<ellipse fill="none" stroke="black" cx="562" cy="-721.31" rx="48.17" ry="30.31"/>
<text text-anchor="middle" x="562" y="-713.21" font-family="Times,serif" font-size="32.00">perf</text>
</g>
<!-- d&#45;&gt;perf -->
<g id="edge8" class="edge">
<title>d&#45;&gt;perf</title>
<path fill="none" stroke="#000000" d="M1542.86,-916.99C1459.27,-915.71 1202.36,-909.74 1176,-884.31 1127.68,-837.68 1207.74,-779.41 1158,-734.31 1138.31,-716.45 765.71,-718.9 620.37,-720.55"/>
<polygon fill="#000000" stroke="#000000" points="620.27,-717.05 610.31,-720.67 620.35,-724.05 620.27,-717.05"/>
<text text-anchor="middle" x="1070.5" y="-883.71" font-family="Times,serif" font-size="32.00">danced |</text>
<text text-anchor="middle" x="1070.5" y="-848.71" font-family="Times,serif" font-size="32.00"> smiled |</text>
<text text-anchor="middle" x="1070.5" y="-813.71" font-family="Times,serif" font-size="32.00"> jumped |</text>
<text text-anchor="middle" x="1070.5" y="-778.71" font-family="Times,serif" font-size="32.00"> laughed</text>
<text text-anchor="middle" x="1070.5" y="-743.71" font-family="Times,serif" font-size="32.00">=d perf</text>
</g>
<!-- d&#45;&gt;perf -->
<g id="edge13" class="edge">
<title>d&#45;&gt;perf</title>
<path fill="none" stroke="#000000" d="M1542.98,-920.76C1537.08,-921.4 1530.83,-921.98 1525,-922.31 1458.88,-926.05 1442.21,-923.4 1376,-922.31 1201.26,-919.42 1153.28,-948.63 983,-909.31 837.44,-875.69 680.43,-790.87 606.36,-747.59"/>
<polygon fill="#000000" stroke="#000000" points="607.72,-744.32 597.32,-742.27 604.17,-750.36 607.72,-744.32"/>
<text text-anchor="middle" x="1070.5" y="-1044.71" font-family="Times,serif" font-size="32.00">liked |</text>
<text text-anchor="middle" x="1070.5" y="-1009.71" font-family="Times,serif" font-size="32.00"> destroyed |</text>
<text text-anchor="middle" x="1070.5" y="-974.71" font-family="Times,serif" font-size="32.00"> hugged</text>
<text text-anchor="middle" x="1070.5" y="-939.71" font-family="Times,serif" font-size="32.00">=d *k =d perf</text>
</g>
<!-- 0&#45;&gt;t -->
<g id="edge2" class="edge">
<title>0&#45;&gt;t</title>
<path fill="none" stroke="#000000" d="M1239.97,-1408.64C1178.8,-1413.91 1021.07,-1426.31 889,-1426.31 889,-1426.31 889,-1426.31 247.5,-1426.31 86.22,-1426.31 39.73,-820.52 30.11,-656.72"/>
<polygon fill="#000000" stroke="#000000" points="33.59,-656.36 29.53,-646.58 26.6,-656.76 33.59,-656.36"/>
<text text-anchor="middle" x="562" y="-1470.71" font-family="Times,serif" font-size="32.00">s</text>
<text text-anchor="middle" x="562" y="-1435.71" font-family="Times,serif" font-size="32.00">=&gt;0 =d +k t</text>
</g>
<!-- z1 -->
<g id="node5" class="node">
<title>z1</title>
<ellipse fill="none" stroke="black" stroke-dasharray="5,2" cx="1570" cy="-1406.31" rx="27" ry="18"/>
</g>
<!-- z1&#45;&gt;0 -->
<g id="edge3" class="edge">
<title>z1&#45;&gt;0</title>
<path fill="none" stroke="#000000" d="M1542.81,-1406.31C1489,-1406.31 1365.88,-1406.31 1304.37,-1406.31"/>
<polygon fill="#000000" stroke="#000000" points="1304.34,-1402.81 1294.34,-1406.31 1304.34,-1409.81 1304.34,-1402.81"/>
<text text-anchor="middle" x="1450.5" y="-1625.71" font-family="Times,serif" font-size="32.00">dance |</text>
<text text-anchor="middle" x="1450.5" y="-1590.71" font-family="Times,serif" font-size="32.00"> smile |</text>
<text text-anchor="middle" x="1450.5" y="-1555.71" font-family="Times,serif" font-size="32.00"> jump |</text>
<text text-anchor="middle" x="1450.5" y="-1520.71" font-family="Times,serif" font-size="32.00"> laugh |</text>
<text text-anchor="middle" x="1450.5" y="-1485.71" font-family="Times,serif" font-size="32.00"> brag |</text>
<text text-anchor="middle" x="1450.5" y="-1450.71" font-family="Times,serif" font-size="32.00"> jog</text>
<text text-anchor="middle" x="1450.5" y="-1415.71" font-family="Times,serif" font-size="32.00">0</text>
</g>
<!-- 1&#45;&gt;t -->
<g id="edge4" class="edge">
<title>1&#45;&gt;t</title>
<path fill="none" stroke="#000000" d="M1239.95,-398.31C1178.72,-398.31 1020.88,-398.31 889,-398.31 889,-398.31 889,-398.31 247.5,-398.31 145.58,-398.31 74.15,-518.08 44.01,-580.07"/>
<polygon fill="#000000" stroke="#000000" points="40.84,-578.6 39.7,-589.14 47.16,-581.61 40.84,-578.6"/>
<text text-anchor="middle" x="562" y="-442.71" font-family="Times,serif" font-size="32.00">ed</text>
<text text-anchor="middle" x="562" y="-407.71" font-family="Times,serif" font-size="32.00">=&gt;1 =d +k t</text>
</g>
<!-- 1&#45;&gt;prog -->
<g id="edge14" class="edge">
<title>1&#45;&gt;prog</title>
<path fill="none" stroke="#000000" d="M1239.98,-401.44C1171.04,-409.78 988.56,-432.09 983,-435.31 949.2,-454.85 923.49,-491.82 907.57,-520.15"/>
<polygon fill="#000000" stroke="#000000" points="904.46,-518.55 902.75,-529.01 910.6,-521.9 904.46,-518.55"/>
<text text-anchor="middle" x="1070.5" y="-479.71" font-family="Times,serif" font-size="32.00">ing</text>
<text text-anchor="middle" x="1070.5" y="-444.71" font-family="Times,serif" font-size="32.00">=&gt;1 =d prog</text>
</g>
<!-- 1&#45;&gt;perf -->
<g id="edge15" class="edge">
<title>1&#45;&gt;perf</title>
<path fill="none" stroke="#000000" d="M1247.9,-420.18C1227.77,-443.5 1193.41,-480.41 1158,-505.31 1080.26,-559.96 1053.06,-561.6 965,-597.31 898.05,-624.45 865.75,-602.18 811,-649.31 797.74,-660.72 807.16,-674.03 793,-684.31 766.13,-703.8 679.16,-713.51 620.21,-717.96"/>
<polygon fill="#000000" stroke="#000000" points="619.63,-714.49 609.91,-718.71 620.14,-721.48 619.63,-714.49"/>
<text text-anchor="middle" x="888" y="-693.71" font-family="Times,serif" font-size="32.00">ed_1</text>
<text text-anchor="middle" x="888" y="-658.71" font-family="Times,serif" font-size="32.00">=&gt;1 =d perf</text>
</g>
<!-- z2 -->
<g id="node7" class="node">
<title>z2</title>
<ellipse fill="none" stroke="black" stroke-dasharray="5,2" cx="1570" cy="-102.31" rx="27" ry="18"/>
</g>
<!-- z2&#45;&gt;1 -->
<g id="edge5" class="edge">
<title>z2&#45;&gt;1</title>
<path fill="none" stroke="#000000" d="M1545.35,-94.54C1506.19,-83.27 1427.13,-67.38 1376,-103.31 1292.77,-161.79 1273.49,-291.65 1269.15,-357.84"/>
<polygon fill="#000000" stroke="#000000" points="1265.66,-357.71 1268.58,-367.89 1272.64,-358.11 1265.66,-357.71"/>
<text text-anchor="middle" x="1450.5" y="-322.71" font-family="Times,serif" font-size="32.00">danc |</text>
<text text-anchor="middle" x="1450.5" y="-287.71" font-family="Times,serif" font-size="32.00"> smil |</text>
<text text-anchor="middle" x="1450.5" y="-252.71" font-family="Times,serif" font-size="32.00"> jump_1 |</text>
<text text-anchor="middle" x="1450.5" y="-217.71" font-family="Times,serif" font-size="32.00"> laugh_1 |</text>
<text text-anchor="middle" x="1450.5" y="-182.71" font-family="Times,serif" font-size="32.00"> bragg |</text>
<text text-anchor="middle" x="1450.5" y="-147.71" font-family="Times,serif" font-size="32.00"> jogg</text>
<text text-anchor="middle" x="1450.5" y="-112.71" font-family="Times,serif" font-size="32.00">1</text>
</g>
<!-- v&#45;&gt;t -->
<g id="edge16" class="edge">
<title>v&#45;&gt;t</title>
<path fill="none" stroke="#000000" d="M225.15,-753.85C212.98,-745.42 197.65,-734.8 184,-725.31 140.49,-695.03 90.26,-659.9 58.81,-637.88"/>
<polygon fill="#000000" stroke="#000000" points="60.66,-634.91 50.46,-632.04 56.64,-640.64 60.66,-634.91"/>
<text text-anchor="middle" x="119" y="-790.71" font-family="Times,serif" font-size="32.00">will |</text>
<text text-anchor="middle" x="119" y="-755.71" font-family="Times,serif" font-size="32.00"> would</text>
<text text-anchor="middle" x="119" y="-720.71" font-family="Times,serif" font-size="32.00">=v +k t</text>
</g>
<!-- prog&#45;&gt;t -->
<g id="edge19" class="edge">
<title>prog&#45;&gt;t</title>
<path fill="none" stroke="#000000" d="M838.36,-548C741.31,-528.98 516.99,-492.83 331,-521.31 230.24,-536.73 116.97,-579.43 61.82,-601.96"/>
<polygon fill="#000000" stroke="#000000" points="60.44,-598.74 52.53,-605.79 63.11,-605.22 60.44,-598.74"/>
<text text-anchor="middle" x="399" y="-600.71" font-family="Times,serif" font-size="32.00">is |</text>
<text text-anchor="middle" x="399" y="-565.71" font-family="Times,serif" font-size="32.00"> was</text>
<text text-anchor="middle" x="399" y="-530.71" font-family="Times,serif" font-size="32.00">=prog +k t</text>
</g>
<!-- prog&#45;&gt;v -->
<g id="edge20" class="edge">
<title>prog&#45;&gt;v</title>
<path fill="none" stroke="#000000" d="M835.54,-557.46C757.12,-557.86 604.24,-565.34 485,-612.31 397.8,-646.65 392.39,-684.49 313,-734.31 303.2,-740.45 292.26,-746.69 282.25,-752.17"/>
<polygon fill="#000000" stroke="#000000" points="280.52,-749.13 273.39,-756.96 283.85,-755.29 280.52,-749.13"/>
<text text-anchor="middle" x="562" y="-656.71" font-family="Times,serif" font-size="32.00">be</text>
<text text-anchor="middle" x="562" y="-621.71" font-family="Times,serif" font-size="32.00">=prog v</text>
</g>
<!-- prog&#45;&gt;perf -->
<g id="edge21" class="edge">
<title>prog&#45;&gt;perf</title>
<path fill="none" stroke="#000000" d="M843.95,-575.15C828.11,-580.88 809.91,-586.94 793,-591.31 733.64,-606.63 703.91,-574.84 657,-614.31 638.61,-629.78 653.31,-645.99 639,-665.31 630.44,-676.86 618.83,-687.07 607.26,-695.5"/>
<polygon fill="#000000" stroke="#000000" points="605.1,-692.74 598.88,-701.32 609.09,-698.49 605.1,-692.74"/>
<text text-anchor="middle" x="725" y="-658.71" font-family="Times,serif" font-size="32.00">been</text>
<text text-anchor="middle" x="725" y="-623.71" font-family="Times,serif" font-size="32.00">=prog perf</text>
</g>
<!-- perf&#45;&gt;t -->
<g id="edge17" class="edge">
<title>perf&#45;&gt;t</title>
<path fill="none" stroke="#000000" d="M523.97,-702.39C476.52,-679.24 391.05,-641.16 313,-625.31 225.22,-607.47 119.15,-610.35 64.5,-613.57"/>
<polygon fill="#000000" stroke="#000000" points="64.03,-610.1 54.27,-614.22 64.47,-617.08 64.03,-610.1"/>
<text text-anchor="middle" x="248.5" y="-704.71" font-family="Times,serif" font-size="32.00">has |</text>
<text text-anchor="middle" x="248.5" y="-669.71" font-family="Times,serif" font-size="32.00"> had</text>
<text text-anchor="middle" x="248.5" y="-634.71" font-family="Times,serif" font-size="32.00">=perf +k t</text>
</g>
<!-- perf&#45;&gt;v -->
<g id="edge18" class="edge">
<title>perf&#45;&gt;v</title>
<path fill="none" stroke="#000000" d="M515.04,-728.39C452.58,-738.01 342.21,-755.02 285.44,-763.77"/>
<polygon fill="#000000" stroke="#000000" points="284.84,-760.32 275.49,-765.3 285.91,-767.24 284.84,-760.32"/>
<text text-anchor="middle" x="399" y="-801.71" font-family="Times,serif" font-size="32.00">have</text>
<text text-anchor="middle" x="399" y="-766.71" font-family="Times,serif" font-size="32.00">=perf v</text>
</g>
</g>
</svg>
