<?xml version="1.0" encoding="UTF-8" standalone="no"?>
<!DOCTYPE svg PUBLIC "-//W3C//DTD SVG 1.1//EN"
 "http://www.w3.org/Graphics/SVG/1.1/DTD/svg11.dtd">
<!-- Generated by graphviz version 2.47.1 (20210417.1919)
 -->
<!-- Title: G Pages: 1 -->
<svg width="1871pt" height="973pt"
 viewBox="0.00 0.00 1871.00 973.47" xmlns="http://www.w3.org/2000/svg" xmlns:xlink="http://www.w3.org/1999/xlink">
<g id="graph0" class="graph" transform="scale(1 1) rotate(0) translate(4 969.47)">
<title>G</title>
<polygon fill="white" stroke="transparent" points="-4,4 -4,-969.47 1867,-969.47 1867,4 -4,4"/>
<text text-anchor="middle" x="931.5" y="-13.4" font-family="Times,serif" font-size="32.00">single contraction: 4 → 2</text>
<!-- t -->
<g id="node1" class="node">
<title>t</title>
<ellipse fill="lightgray" stroke="black" cx="27" cy="-441.47" rx="27" ry="30.31"/>
<text text-anchor="middle" x="27" y="-433.37" font-family="Times,serif" font-size="32.00">t</text>
</g>
<!-- z0 -->
<g id="node2" class="node">
<title>z0</title>
<ellipse fill="none" stroke="black" stroke-dasharray="5,2" cx="1836" cy="-578.47" rx="27" ry="18"/>
</g>
<!-- d -->
<g id="node3" class="node">
<title>d</title>
<ellipse fill="none" stroke="black" cx="1676" cy="-578.47" rx="27" ry="30.31"/>
<text text-anchor="middle" x="1676" y="-570.37" font-family="Times,serif" font-size="32.00">d</text>
</g>
<!-- z0&#45;&gt;d -->
<g id="edge1" class="edge">
<title>z0&#45;&gt;d</title>
<path fill="none" stroke="#000000" d="M1808.91,-578.47C1782.84,-578.47 1742.53,-578.47 1713.34,-578.47"/>
<polygon fill="#000000" stroke="#000000" points="1713.13,-574.97 1703.13,-578.47 1713.13,-581.97 1713.13,-574.97"/>
<text text-anchor="middle" x="1756" y="-622.87" font-family="Times,serif" font-size="32.00">Mary</text>
<text text-anchor="middle" x="1756" y="-587.87" font-family="Times,serif" font-size="32.00">d &#45;k</text>
</g>
<!-- 2 -->
<g id="node6" class="node">
<title>2</title>
<ellipse fill="none" stroke="black" cx="1488" cy="-578.47" rx="27" ry="30.31"/>
<text text-anchor="middle" x="1488" y="-570.37" font-family="Times,serif" font-size="32.00">2</text>
</g>
<!-- d&#45;&gt;2 -->
<g id="edge11" class="edge">
<title>d&#45;&gt;2</title>
<path fill="none" stroke="#000000" d="M1648.75,-578.47C1616.48,-578.47 1561.56,-578.47 1525.28,-578.47"/>
<polygon fill="#000000" stroke="#000000" points="1525.12,-574.97 1515.12,-578.47 1525.12,-581.97 1525.12,-574.97"/>
<text text-anchor="middle" x="1582" y="-622.87" font-family="Times,serif" font-size="32.00">lik</text>
<text text-anchor="middle" x="1582" y="-587.87" font-family="Times,serif" font-size="32.00">=d *k 2</text>
</g>
<!-- 4 -->
<g id="node14" class="node">
<title>4</title>
<ellipse fill="none" stroke="black" cx="1488" cy="-671.47" rx="27" ry="30.31"/>
<text text-anchor="middle" x="1488" y="-663.37" font-family="Times,serif" font-size="32.00">4</text>
</g>
<!-- d&#45;&gt;4 -->
<g id="edge15" class="edge">
<title>d&#45;&gt;4</title>
<path fill="none" stroke="#000000" d="M1664.61,-606.28C1657.48,-621.47 1646.48,-639.22 1631,-649.47 1614.1,-660.66 1561.46,-666.5 1525.25,-669.28"/>
<polygon fill="#000000" stroke="#000000" points="1524.78,-665.81 1515.06,-670.02 1525.28,-672.79 1524.78,-665.81"/>
<text text-anchor="middle" x="1582" y="-712.87" font-family="Times,serif" font-size="32.00">destroy</text>
<text text-anchor="middle" x="1582" y="-677.87" font-family="Times,serif" font-size="32.00">=d *k 4</text>
</g>
<!-- 5 -->
<g id="node15" class="node">
<title>5</title>
<ellipse fill="none" stroke="black" cx="1488" cy="-421.47" rx="27" ry="30.31"/>
<text text-anchor="middle" x="1488" y="-413.37" font-family="Times,serif" font-size="32.00">5</text>
</g>
<!-- d&#45;&gt;5 -->
<g id="edge20" class="edge">
<title>d&#45;&gt;5</title>
<path fill="none" stroke="#000000" d="M1663.83,-550.88C1656.44,-535.52 1645.44,-517.02 1631,-504.47 1595.36,-473.5 1572.51,-489.31 1533,-463.47 1526.8,-459.41 1520.7,-454.43 1515.1,-449.33"/>
<polygon fill="#000000" stroke="#000000" points="1517.47,-446.75 1507.82,-442.38 1512.64,-451.82 1517.47,-446.75"/>
<text text-anchor="middle" x="1582" y="-548.87" font-family="Times,serif" font-size="32.00">hu</text>
<text text-anchor="middle" x="1582" y="-513.87" font-family="Times,serif" font-size="32.00">=d *k 5</text>
</g>
<!-- 0 -->
<g id="node4" class="node">
<title>0</title>
<ellipse fill="none" stroke="black" cx="229" cy="-441.47" rx="27" ry="30.31"/>
<text text-anchor="middle" x="229" y="-433.37" font-family="Times,serif" font-size="32.00">0</text>
</g>
<!-- 0&#45;&gt;t -->
<g id="edge2" class="edge">
<title>0&#45;&gt;t</title>
<path fill="none" stroke="#000000" d="M201.85,-441.47C166.67,-441.47 103.92,-441.47 64.21,-441.47"/>
<polygon fill="#000000" stroke="#000000" points="64.15,-437.97 54.15,-441.47 64.15,-444.97 64.15,-437.97"/>
<text text-anchor="middle" x="128" y="-485.87" font-family="Times,serif" font-size="32.00">ε_0</text>
<text text-anchor="middle" x="128" y="-450.87" font-family="Times,serif" font-size="32.00">=&gt;0 +k t</text>
</g>
<!-- 1 -->
<g id="node5" class="node">
<title>1</title>
<ellipse fill="none" stroke="black" cx="1277" cy="-722.47" rx="27" ry="30.31"/>
<text text-anchor="middle" x="1277" y="-714.37" font-family="Times,serif" font-size="32.00">1</text>
</g>
<!-- 1&#45;&gt;0 -->
<g id="edge3" class="edge">
<title>1&#45;&gt;0</title>
<path fill="none" stroke="#000000" d="M1250.28,-728.87C1198.89,-741.07 1079.72,-766.47 978,-766.47 978,-766.47 978,-766.47 426,-766.47 294.3,-766.47 248.77,-568.35 235.14,-481.48"/>
<polygon fill="#000000" stroke="#000000" points="238.58,-480.83 233.63,-471.46 231.66,-481.87 238.58,-480.83"/>
<text text-anchor="middle" x="669" y="-810.87" font-family="Times,serif" font-size="32.00">s</text>
<text text-anchor="middle" x="669" y="-775.87" font-family="Times,serif" font-size="32.00">=&gt;1 =d 0</text>
</g>
<!-- v -->
<g id="node10" class="node">
<title>v</title>
<ellipse fill="none" stroke="black" cx="427" cy="-481.47" rx="27" ry="30.31"/>
<text text-anchor="middle" x="427" y="-473.37" font-family="Times,serif" font-size="32.00">v</text>
</g>
<!-- 1&#45;&gt;v -->
<g id="edge8" class="edge">
<title>1&#45;&gt;v</title>
<path fill="none" stroke="#000000" d="M1249.77,-719.23C1186.58,-711.55 1020.89,-692.18 882,-682.47 860.37,-680.96 509.41,-680.4 492,-667.47 446.57,-633.72 433.14,-565.72 429.32,-521.96"/>
<polygon fill="#000000" stroke="#000000" points="432.8,-521.65 428.57,-511.93 425.82,-522.17 432.8,-521.65"/>
<text text-anchor="middle" x="814" y="-726.87" font-family="Times,serif" font-size="32.00">ε_1</text>
<text text-anchor="middle" x="814" y="-691.87" font-family="Times,serif" font-size="32.00">=&gt;1 =d v</text>
</g>
<!-- 2&#45;&gt;1 -->
<g id="edge4" class="edge">
<title>2&#45;&gt;1</title>
<path fill="none" stroke="#000000" d="M1461.78,-570.22C1426.71,-560.45 1362.92,-549.05 1322,-579.47 1290.59,-602.82 1280.91,-648.23 1278.26,-681.64"/>
<polygon fill="#000000" stroke="#000000" points="1274.75,-681.82 1277.63,-692.02 1281.73,-682.25 1274.75,-681.82"/>
<text text-anchor="middle" x="1382.5" y="-623.87" font-family="Times,serif" font-size="32.00">e</text>
<text text-anchor="middle" x="1382.5" y="-588.87" font-family="Times,serif" font-size="32.00">=&gt;2 1</text>
</g>
<!-- 3 -->
<g id="node8" class="node">
<title>3</title>
<ellipse fill="none" stroke="black" cx="1277" cy="-345.47" rx="27" ry="30.31"/>
<text text-anchor="middle" x="1277" y="-337.37" font-family="Times,serif" font-size="32.00">3</text>
</g>
<!-- 2&#45;&gt;3 -->
<g id="edge12" class="edge">
<title>2&#45;&gt;3</title>
<path fill="none" stroke="#000000" d="M1480.39,-548.87C1468.82,-497.3 1445.84,-396.18 1443,-393.47 1403.42,-355.65 1373.38,-389.35 1322,-370.47 1318.01,-369 1313.96,-367.2 1310.01,-365.23"/>
<polygon fill="#000000" stroke="#000000" points="1311.53,-362.08 1301.06,-360.45 1308.23,-368.25 1311.53,-362.08"/>
<text text-anchor="middle" x="1382.5" y="-437.87" font-family="Times,serif" font-size="32.00">ε_2</text>
<text text-anchor="middle" x="1382.5" y="-402.87" font-family="Times,serif" font-size="32.00">=&gt;2 3</text>
</g>
<!-- z1 -->
<g id="node7" class="node">
<title>z1</title>
<ellipse fill="none" stroke="black" stroke-dasharray="5,2" cx="1676" cy="-764.47" rx="27" ry="18"/>
</g>
<!-- z1&#45;&gt;2 -->
<g id="edge5" class="edge">
<title>z1&#45;&gt;2</title>
<path fill="none" stroke="#000000" d="M1649.56,-768.61C1617.72,-772.22 1563.65,-772.86 1533,-742.47 1497.82,-707.59 1529.9,-679.71 1515,-632.47 1513.01,-626.15 1510.4,-619.64 1507.6,-613.41"/>
<polygon fill="#000000" stroke="#000000" points="1510.56,-611.48 1503.12,-603.94 1504.24,-614.48 1510.56,-611.48"/>
<text text-anchor="middle" x="1582" y="-848.87" font-family="Times,serif" font-size="32.00">danc |</text>
<text text-anchor="middle" x="1582" y="-813.87" font-family="Times,serif" font-size="32.00"> smil</text>
<text text-anchor="middle" x="1582" y="-778.87" font-family="Times,serif" font-size="32.00">2</text>
</g>
<!-- 3&#45;&gt;0 -->
<g id="edge6" class="edge">
<title>3&#45;&gt;0</title>
<path fill="none" stroke="#000000" d="M1251.94,-333.65C1202.11,-310.29 1083.45,-260.47 978,-260.47 978,-260.47 978,-260.47 426,-260.47 349.45,-260.47 326.06,-285.35 274,-341.47 258.04,-358.68 247.23,-382.62 240.32,-402.76"/>
<polygon fill="#000000" stroke="#000000" points="236.98,-401.7 237.23,-412.29 243.64,-403.85 236.98,-401.7"/>
<text text-anchor="middle" x="669" y="-304.87" font-family="Times,serif" font-size="32.00">ed</text>
<text text-anchor="middle" x="669" y="-269.87" font-family="Times,serif" font-size="32.00">=&gt;3 =d 0</text>
</g>
<!-- prog -->
<g id="node11" class="node">
<title>prog</title>
<ellipse fill="none" stroke="black" cx="977" cy="-463.47" rx="52.15" ry="30.31"/>
<text text-anchor="middle" x="977" y="-455.37" font-family="Times,serif" font-size="32.00">prog</text>
</g>
<!-- 3&#45;&gt;prog -->
<g id="edge9" class="edge">
<title>3&#45;&gt;prog</title>
<path fill="none" stroke="#000000" d="M1251.36,-355.22C1203.08,-374.34 1095.09,-417.1 1030.23,-442.79"/>
<polygon fill="#000000" stroke="#000000" points="1028.6,-439.67 1020.59,-446.6 1031.18,-446.17 1028.6,-439.67"/>
<text text-anchor="middle" x="1152" y="-469.87" font-family="Times,serif" font-size="32.00">ing</text>
<text text-anchor="middle" x="1152" y="-434.87" font-family="Times,serif" font-size="32.00">=&gt;3 =d prog</text>
</g>
<!-- perf -->
<g id="node12" class="node">
<title>perf</title>
<ellipse fill="none" stroke="black" cx="669" cy="-378.47" rx="48.17" ry="30.31"/>
<text text-anchor="middle" x="669" y="-370.37" font-family="Times,serif" font-size="32.00">perf</text>
</g>
<!-- 3&#45;&gt;perf -->
<g id="edge10" class="edge">
<title>3&#45;&gt;perf</title>
<path fill="none" stroke="#000000" d="M1249.95,-344.79C1172.71,-343.13 938.34,-340.59 746,-364.47 739.2,-365.31 732.09,-366.38 725.06,-367.54"/>
<polygon fill="#000000" stroke="#000000" points="724.13,-364.15 714.87,-369.3 725.32,-371.05 724.13,-364.15"/>
<text text-anchor="middle" x="977" y="-394.87" font-family="Times,serif" font-size="32.00">ed_1</text>
<text text-anchor="middle" x="977" y="-359.87" font-family="Times,serif" font-size="32.00">=&gt;3 =d perf</text>
</g>
<!-- z2 -->
<g id="node9" class="node">
<title>z2</title>
<ellipse fill="none" stroke="black" stroke-dasharray="5,2" cx="1488" cy="-101.47" rx="27" ry="18"/>
</g>
<!-- z2&#45;&gt;3 -->
<g id="edge7" class="edge">
<title>z2&#45;&gt;3</title>
<path fill="none" stroke="#000000" d="M1463.62,-93.26C1428.47,-82.57 1361.91,-68.93 1322,-102.47 1291.83,-127.82 1282.3,-242.11 1279.32,-304.5"/>
<polygon fill="#000000" stroke="#000000" points="1275.82,-304.63 1278.87,-314.78 1282.81,-304.94 1275.82,-304.63"/>
<text text-anchor="middle" x="1382.5" y="-251.87" font-family="Times,serif" font-size="32.00">danc_1 |</text>
<text text-anchor="middle" x="1382.5" y="-216.87" font-family="Times,serif" font-size="32.00"> smil_1 |</text>
<text text-anchor="middle" x="1382.5" y="-181.87" font-family="Times,serif" font-size="32.00"> jump_1 |</text>
<text text-anchor="middle" x="1382.5" y="-146.87" font-family="Times,serif" font-size="32.00"> laugh_1</text>
<text text-anchor="middle" x="1382.5" y="-111.87" font-family="Times,serif" font-size="32.00">3</text>
</g>
<!-- v&#45;&gt;0 -->
<g id="edge21" class="edge">
<title>v&#45;&gt;0</title>
<path fill="none" stroke="#000000" d="M404.59,-464.38C392.77,-456.03 377.39,-446.85 362,-442.47 330.48,-433.49 292.98,-434.23 266.02,-436.63"/>
<polygon fill="#000000" stroke="#000000" points="265.48,-433.17 255.88,-437.66 266.18,-440.14 265.48,-433.17"/>
<text text-anchor="middle" x="318" y="-521.87" font-family="Times,serif" font-size="32.00">will |</text>
<text text-anchor="middle" x="318" y="-486.87" font-family="Times,serif" font-size="32.00"> would</text>
<text text-anchor="middle" x="318" y="-451.87" font-family="Times,serif" font-size="32.00">=v 0</text>
</g>
<!-- prog&#45;&gt;0 -->
<g id="edge24" class="edge">
<title>prog&#45;&gt;0</title>
<path fill="none" stroke="#000000" d="M934.95,-482.02C886.61,-502.76 803.35,-535.05 728,-547.47 528.91,-580.27 441.81,-659.51 274,-547.47 252.2,-532.92 241.19,-505.33 235.63,-481.95"/>
<polygon fill="#000000" stroke="#000000" points="239,-480.96 233.51,-471.9 232.15,-482.41 239,-480.96"/>
<text text-anchor="middle" x="542" y="-680.87" font-family="Times,serif" font-size="32.00">is |</text>
<text text-anchor="middle" x="542" y="-645.87" font-family="Times,serif" font-size="32.00"> was</text>
<text text-anchor="middle" x="542" y="-610.87" font-family="Times,serif" font-size="32.00">=prog 0</text>
</g>
<!-- prog&#45;&gt;v -->
<g id="edge25" class="edge">
<title>prog&#45;&gt;v</title>
<path fill="none" stroke="#000000" d="M924.45,-465.16C814.51,-468.77 559.37,-477.15 464.44,-480.27"/>
<polygon fill="#000000" stroke="#000000" points="464.08,-476.78 454.2,-480.61 464.31,-483.78 464.08,-476.78"/>
<text text-anchor="middle" x="669" y="-519.87" font-family="Times,serif" font-size="32.00">be</text>
<text text-anchor="middle" x="669" y="-484.87" font-family="Times,serif" font-size="32.00">=prog v</text>
</g>
<!-- prog&#45;&gt;perf -->
<g id="edge26" class="edge">
<title>prog&#45;&gt;perf</title>
<path fill="none" stroke="#000000" d="M934.36,-445.47C922.13,-438.68 909.5,-429.99 900,-419.47 886.94,-405 898.35,-390.09 882,-379.47 857.28,-363.4 780.5,-367.05 726.48,-372.03"/>
<polygon fill="#000000" stroke="#000000" points="725.96,-368.57 716.34,-373.01 726.63,-375.53 725.96,-368.57"/>
<text text-anchor="middle" x="814" y="-423.87" font-family="Times,serif" font-size="32.00">been</text>
<text text-anchor="middle" x="814" y="-388.87" font-family="Times,serif" font-size="32.00">=prog perf</text>
</g>
<!-- perf&#45;&gt;0 -->
<g id="edge22" class="edge">
<title>perf&#45;&gt;0</title>
<path fill="none" stroke="#000000" d="M628.45,-362.07C572.11,-341.11 466.04,-310.56 380,-337.47 331.62,-352.6 285.14,-389.43 257.07,-414.93"/>
<polygon fill="#000000" stroke="#000000" points="254.61,-412.43 249.65,-421.79 259.37,-417.57 254.61,-412.43"/>
<text text-anchor="middle" x="427" y="-416.87" font-family="Times,serif" font-size="32.00">has |</text>
<text text-anchor="middle" x="427" y="-381.87" font-family="Times,serif" font-size="32.00"> had</text>
<text text-anchor="middle" x="427" y="-346.87" font-family="Times,serif" font-size="32.00">=perf 0</text>
</g>
<!-- perf&#45;&gt;v -->
<g id="edge23" class="edge">
<title>perf&#45;&gt;v</title>
<path fill="none" stroke="#000000" d="M625.2,-365.64C586.55,-356.85 530.05,-351.27 492,-379.47 470.32,-395.54 488.21,-414.52 474,-437.47 469.58,-444.6 463.74,-451.38 457.7,-457.38"/>
<polygon fill="#000000" stroke="#000000" points="454.97,-455.14 450.05,-464.53 459.74,-460.26 454.97,-455.14"/>
<text text-anchor="middle" x="542" y="-423.87" font-family="Times,serif" font-size="32.00">have</text>
<text text-anchor="middle" x="542" y="-388.87" font-family="Times,serif" font-size="32.00">=perf v</text>
</g>
<!-- z3 -->
<g id="node13" class="node">
<title>z3</title>
<ellipse fill="none" stroke="black" stroke-dasharray="5,2" cx="1488" cy="-857.47" rx="27" ry="18"/>
</g>
<!-- z3&#45;&gt;1 -->
<g id="edge13" class="edge">
<title>z3&#45;&gt;1</title>
<path fill="none" stroke="#000000" d="M1461.34,-860.47C1426.03,-863.15 1362.29,-862.59 1322,-830.47 1301.18,-813.87 1290.14,-785.81 1284.32,-762.46"/>
<polygon fill="#000000" stroke="#000000" points="1287.68,-761.44 1282.07,-752.45 1280.85,-762.98 1287.68,-761.44"/>
<text text-anchor="middle" x="1382.5" y="-939.87" font-family="Times,serif" font-size="32.00">jump |</text>
<text text-anchor="middle" x="1382.5" y="-904.87" font-family="Times,serif" font-size="32.00"> laugh</text>
<text text-anchor="middle" x="1382.5" y="-869.87" font-family="Times,serif" font-size="32.00">1</text>
</g>
<!-- 4&#45;&gt;1 -->
<g id="edge14" class="edge">
<title>4&#45;&gt;1</title>
<path fill="none" stroke="#000000" d="M1477.33,-699.83C1470.39,-715.41 1459.34,-733.37 1443,-742.47 1396.01,-768.63 1374.56,-753.85 1322,-742.47 1318.34,-741.67 1314.62,-740.55 1310.97,-739.24"/>
<polygon fill="#000000" stroke="#000000" points="1312.15,-735.94 1301.57,-735.4 1309.51,-742.42 1312.15,-735.94"/>
<text text-anchor="middle" x="1382.5" y="-800.87" font-family="Times,serif" font-size="32.00">ε_3</text>
<text text-anchor="middle" x="1382.5" y="-765.87" font-family="Times,serif" font-size="32.00">=&gt;4 1</text>
</g>
<!-- 4&#45;&gt;3 -->
<g id="edge16" class="edge">
<title>4&#45;&gt;3</title>
<path fill="none" stroke="#000000" d="M1461.01,-669.71C1417.02,-666.48 1331.71,-659.07 1322,-649.47 1285.63,-613.51 1279.06,-460.76 1278.05,-386.43"/>
<polygon fill="#000000" stroke="#000000" points="1281.55,-386.02 1277.94,-376.06 1274.55,-386.09 1281.55,-386.02"/>
<text text-anchor="middle" x="1382.5" y="-711.87" font-family="Times,serif" font-size="32.00">ε_4</text>
<text text-anchor="middle" x="1382.5" y="-676.87" font-family="Times,serif" font-size="32.00">=&gt;4 3</text>
</g>
<!-- 5&#45;&gt;1 -->
<g id="edge17" class="edge">
<title>5&#45;&gt;1</title>
<path fill="none" stroke="#000000" d="M1468.79,-443.43C1461.51,-450.87 1452.58,-458.54 1443,-463.47 1394.32,-488.5 1360.64,-447.69 1322,-486.47 1295.22,-513.34 1284.28,-621.36 1280.19,-681.51"/>
<polygon fill="#000000" stroke="#000000" points="1276.68,-681.6 1279.52,-691.8 1283.66,-682.05 1276.68,-681.6"/>
<text text-anchor="middle" x="1382.5" y="-530.87" font-family="Times,serif" font-size="32.00">g</text>
<text text-anchor="middle" x="1382.5" y="-495.87" font-family="Times,serif" font-size="32.00">=&gt;5 1</text>
</g>
<!-- 5&#45;&gt;3 -->
<g id="edge19" class="edge">
<title>5&#45;&gt;3</title>
<path fill="none" stroke="#000000" d="M1485.34,-391.03C1481.97,-362.33 1472.02,-320.79 1443,-300.47 1398.95,-269.62 1371.57,-279.61 1322,-300.47 1314.49,-303.63 1307.63,-308.76 1301.67,-314.45"/>
<polygon fill="#000000" stroke="#000000" points="1298.98,-312.2 1294.62,-321.85 1304.05,-317.02 1298.98,-312.2"/>
<text text-anchor="middle" x="1382.5" y="-344.87" font-family="Times,serif" font-size="32.00">gg</text>
<text text-anchor="middle" x="1382.5" y="-309.87" font-family="Times,serif" font-size="32.00">=&gt;5 3</text>
</g>
<!-- z4 -->
<g id="node16" class="node">
<title>z4</title>
<ellipse fill="none" stroke="black" stroke-dasharray="5,2" cx="1676" cy="-357.47" rx="27" ry="18"/>
</g>
<!-- z4&#45;&gt;5 -->
<g id="edge18" class="edge">
<title>z4&#45;&gt;5</title>
<path fill="none" stroke="#000000" d="M1650.51,-351.18C1620.84,-344.96 1570.2,-338.9 1533,-358.47 1521.65,-364.43 1512.63,-374.8 1505.77,-385.42"/>
<polygon fill="#000000" stroke="#000000" points="1502.6,-383.92 1500.53,-394.31 1508.62,-387.47 1502.6,-383.92"/>
<text text-anchor="middle" x="1582" y="-437.87" font-family="Times,serif" font-size="32.00">bra |</text>
<text text-anchor="middle" x="1582" y="-402.87" font-family="Times,serif" font-size="32.00"> jo</text>
<text text-anchor="middle" x="1582" y="-367.87" font-family="Times,serif" font-size="32.00">5</text>
</g>
</g>
</svg>
