<?xml version="1.0" encoding="UTF-8" standalone="no"?>
<!DOCTYPE svg PUBLIC "-//W3C//DTD SVG 1.1//EN"
 "http://www.w3.org/Graphics/SVG/1.1/DTD/svg11.dtd">
<!-- Generated by graphviz version 2.47.1 (20210417.1919)
 -->
<!-- Title: G Pages: 1 -->
<svg width="1893pt" height="999pt"
 viewBox="0.00 0.00 1893.00 999.41" xmlns="http://www.w3.org/2000/svg" xmlns:xlink="http://www.w3.org/1999/xlink">
<g id="graph0" class="graph" transform="scale(1 1) rotate(0) translate(4 995.41)">
<title>G</title>
<polygon fill="white" stroke="transparent" points="-4,4 -4,-995.41 1889,-995.41 1889,4 -4,4"/>
<text text-anchor="middle" x="942.5" y="-13.4" font-family="Times,serif" font-size="32.00">decomposition: danc 2, danc 3</text>
<!-- t -->
<g id="node1" class="node">
<title>t</title>
<ellipse fill="lightgray" stroke="black" cx="27" cy="-345.41" rx="27" ry="30.31"/>
<text text-anchor="middle" x="27" y="-337.31" font-family="Times,serif" font-size="32.00">t</text>
</g>
<!-- z0 -->
<g id="node2" class="node">
<title>z0</title>
<ellipse fill="none" stroke="black" stroke-dasharray="5,2" cx="1858" cy="-458.41" rx="27" ry="18"/>
</g>
<!-- d -->
<g id="node3" class="node">
<title>d</title>
<ellipse fill="none" stroke="black" cx="1698" cy="-458.41" rx="27" ry="30.31"/>
<text text-anchor="middle" x="1698" y="-450.31" font-family="Times,serif" font-size="32.00">d</text>
</g>
<!-- z0&#45;&gt;d -->
<g id="edge1" class="edge">
<title>z0&#45;&gt;d</title>
<path fill="none" stroke="#000000" d="M1830.91,-458.41C1804.84,-458.41 1764.53,-458.41 1735.34,-458.41"/>
<polygon fill="#000000" stroke="#000000" points="1735.13,-454.91 1725.13,-458.41 1735.13,-461.91 1735.13,-454.91"/>
<text text-anchor="middle" x="1778" y="-502.81" font-family="Times,serif" font-size="32.00">Mary</text>
<text text-anchor="middle" x="1778" y="-467.81" font-family="Times,serif" font-size="32.00">d &#45;k</text>
</g>
<!-- 2 -->
<g id="node6" class="node">
<title>2</title>
<ellipse fill="none" stroke="black" cx="1499" cy="-212.41" rx="27" ry="30.31"/>
<text text-anchor="middle" x="1499" y="-204.31" font-family="Times,serif" font-size="32.00">2</text>
</g>
<!-- d&#45;&gt;2 -->
<g id="edge14" class="edge">
<title>d&#45;&gt;2</title>
<path fill="none" stroke="#000000" d="M1683.83,-432.22C1675.85,-417.5 1664.93,-399.17 1653,-384.41 1615.65,-338.17 1589.23,-342 1555,-293.41 1543.31,-276.8 1548.16,-268.37 1537,-251.41 1534.19,-247.13 1530.88,-242.9 1527.42,-238.88"/>
<polygon fill="#000000" stroke="#000000" points="1530,-236.51 1520.67,-231.48 1524.83,-241.23 1530,-236.51"/>
<text text-anchor="middle" x="1604" y="-428.81" font-family="Times,serif" font-size="32.00">lik</text>
<text text-anchor="middle" x="1604" y="-393.81" font-family="Times,serif" font-size="32.00">=d *k 2</text>
</g>
<!-- 5 -->
<g id="node16" class="node">
<title>5</title>
<ellipse fill="none" stroke="black" cx="1499" cy="-458.41" rx="27" ry="30.31"/>
<text text-anchor="middle" x="1499" y="-450.31" font-family="Times,serif" font-size="32.00">5</text>
</g>
<!-- d&#45;&gt;5 -->
<g id="edge18" class="edge">
<title>d&#45;&gt;5</title>
<path fill="none" stroke="#000000" d="M1670.84,-458.41C1636.4,-458.41 1575.66,-458.41 1536.65,-458.41"/>
<polygon fill="#000000" stroke="#000000" points="1536.27,-454.91 1526.27,-458.41 1536.27,-461.91 1536.27,-454.91"/>
<text text-anchor="middle" x="1604" y="-502.81" font-family="Times,serif" font-size="32.00">destroy</text>
<text text-anchor="middle" x="1604" y="-467.81" font-family="Times,serif" font-size="32.00">=d *k 5</text>
</g>
<!-- 6 -->
<g id="node17" class="node">
<title>6</title>
<ellipse fill="none" stroke="black" cx="1499" cy="-691.41" rx="27" ry="30.31"/>
<text text-anchor="middle" x="1499" y="-683.31" font-family="Times,serif" font-size="32.00">6</text>
</g>
<!-- d&#45;&gt;6 -->
<g id="edge23" class="edge">
<title>d&#45;&gt;6</title>
<path fill="none" stroke="#000000" d="M1684.02,-484.75C1676.1,-499.52 1665.18,-517.84 1653,-532.41 1616.02,-576.64 1594.21,-575.13 1555,-617.41 1543.12,-630.21 1531.38,-645.54 1521.82,-658.92"/>
<polygon fill="#000000" stroke="#000000" points="1518.75,-657.19 1515.86,-667.38 1524.48,-661.22 1518.75,-657.19"/>
<text text-anchor="middle" x="1604" y="-661.81" font-family="Times,serif" font-size="32.00">hu</text>
<text text-anchor="middle" x="1604" y="-626.81" font-family="Times,serif" font-size="32.00">=d *k 6</text>
</g>
<!-- 0 -->
<g id="node4" class="node">
<title>0</title>
<ellipse fill="none" stroke="black" cx="229" cy="-345.41" rx="27" ry="30.31"/>
<text text-anchor="middle" x="229" y="-337.31" font-family="Times,serif" font-size="32.00">0</text>
</g>
<!-- 0&#45;&gt;t -->
<g id="edge2" class="edge">
<title>0&#45;&gt;t</title>
<path fill="none" stroke="#000000" d="M201.85,-345.41C166.67,-345.41 103.92,-345.41 64.21,-345.41"/>
<polygon fill="#000000" stroke="#000000" points="64.15,-341.91 54.15,-345.41 64.15,-348.91 64.15,-341.91"/>
<text text-anchor="middle" x="128" y="-389.81" font-family="Times,serif" font-size="32.00">ε_0</text>
<text text-anchor="middle" x="128" y="-354.81" font-family="Times,serif" font-size="32.00">=&gt;0 +k t</text>
</g>
<!-- 1 -->
<g id="node5" class="node">
<title>1</title>
<ellipse fill="none" stroke="black" cx="1277" cy="-634.41" rx="27" ry="30.31"/>
<text text-anchor="middle" x="1277" y="-626.31" font-family="Times,serif" font-size="32.00">1</text>
</g>
<!-- 1&#45;&gt;0 -->
<g id="edge3" class="edge">
<title>1&#45;&gt;0</title>
<path fill="none" stroke="#000000" d="M1250.22,-639.64C1198.72,-649.62 1079.36,-670.41 978,-670.41 978,-670.41 978,-670.41 426,-670.41 294.3,-670.41 248.77,-472.29 235.14,-385.42"/>
<polygon fill="#000000" stroke="#000000" points="238.58,-384.77 233.63,-375.4 231.66,-385.81 238.58,-384.77"/>
<text text-anchor="middle" x="669" y="-714.81" font-family="Times,serif" font-size="32.00">s</text>
<text text-anchor="middle" x="669" y="-679.81" font-family="Times,serif" font-size="32.00">=&gt;1 =d 0</text>
</g>
<!-- v -->
<g id="node10" class="node">
<title>v</title>
<ellipse fill="none" stroke="black" cx="427" cy="-385.41" rx="27" ry="30.31"/>
<text text-anchor="middle" x="427" y="-377.31" font-family="Times,serif" font-size="32.00">v</text>
</g>
<!-- 1&#45;&gt;v -->
<g id="edge9" class="edge">
<title>1&#45;&gt;v</title>
<path fill="none" stroke="#000000" d="M1249.79,-630.45C1186.67,-621.09 1021.1,-597.53 882,-586.41 860.39,-584.68 509.41,-584.34 492,-571.41 446.57,-537.66 433.14,-469.66 429.32,-425.9"/>
<polygon fill="#000000" stroke="#000000" points="432.8,-425.58 428.57,-415.87 425.82,-426.1 432.8,-425.58"/>
<text text-anchor="middle" x="814" y="-630.81" font-family="Times,serif" font-size="32.00">ε_3</text>
<text text-anchor="middle" x="814" y="-595.81" font-family="Times,serif" font-size="32.00">=&gt;1 =d v</text>
</g>
<!-- 2&#45;&gt;1 -->
<g id="edge4" class="edge">
<title>2&#45;&gt;1</title>
<path fill="none" stroke="#000000" d="M1476.58,-229.86C1470.5,-236 1464.56,-243.39 1461,-251.41 1440,-298.66 1478.11,-445.44 1443,-483.41 1406.04,-523.38 1363.55,-467.24 1322,-502.41 1295.36,-524.95 1284.78,-564.09 1280.61,-593.91"/>
<polygon fill="#000000" stroke="#000000" points="1277.11,-593.68 1279.39,-604.03 1284.06,-594.52 1277.11,-593.68"/>
<text text-anchor="middle" x="1382.5" y="-546.81" font-family="Times,serif" font-size="32.00">e</text>
<text text-anchor="middle" x="1382.5" y="-511.81" font-family="Times,serif" font-size="32.00">=&gt;2 1</text>
</g>
<!-- 4 -->
<g id="node9" class="node">
<title>4</title>
<ellipse fill="none" stroke="black" cx="1277" cy="-249.41" rx="27" ry="30.31"/>
<text text-anchor="middle" x="1277" y="-241.31" font-family="Times,serif" font-size="32.00">4</text>
</g>
<!-- 2&#45;&gt;4 -->
<g id="edge15" class="edge">
<title>2&#45;&gt;4</title>
<path fill="none" stroke="#000000" d="M1478.57,-192C1468.83,-183.24 1456.29,-173.99 1443,-169.41 1392.16,-151.89 1368.29,-142.03 1322,-169.41 1306.63,-178.49 1296.27,-195.07 1289.48,-210.78"/>
<polygon fill="#000000" stroke="#000000" points="1286.11,-209.8 1285.71,-220.38 1292.63,-212.36 1286.11,-209.8"/>
<text text-anchor="middle" x="1382.5" y="-213.81" font-family="Times,serif" font-size="32.00">ε_4</text>
<text text-anchor="middle" x="1382.5" y="-178.81" font-family="Times,serif" font-size="32.00">=&gt;2 4</text>
</g>
<!-- 3 -->
<g id="node7" class="node">
<title>3</title>
<ellipse fill="none" stroke="black" cx="1698" cy="-111.41" rx="27" ry="30.31"/>
<text text-anchor="middle" x="1698" y="-103.31" font-family="Times,serif" font-size="32.00">3</text>
</g>
<!-- 3&#45;&gt;2 -->
<g id="edge5" class="edge">
<title>3&#45;&gt;2</title>
<path fill="none" stroke="#f7931d" stroke-width="2" d="M1670.89,-111.18C1640.55,-112.13 1590.15,-117.59 1555,-141.41 1543.06,-149.5 1545.65,-156.87 1537,-168.41 1533.32,-173.32 1529.27,-178.41 1525.24,-183.31"/>
<polygon fill="#f7931d" stroke="#f7931d" stroke-width="2" points="1522.28,-181.39 1518.56,-191.31 1527.65,-185.88 1522.28,-181.39"/>
<text text-anchor="middle" x="1604" y="-185.81" font-family="Times,serif" font-size="32.00">ε_1</text>
<text text-anchor="middle" x="1604" y="-150.81" font-family="Times,serif" font-size="32.00">=&gt;3 2</text>
</g>
<!-- 3&#45;&gt;4 -->
<g id="edge8" class="edge">
<title>3&#45;&gt;4</title>
<path fill="none" stroke="#f7931d" stroke-width="2" d="M1671.59,-104.84C1604.7,-89.24 1422.08,-57.66 1322,-148.41 1304.14,-164.6 1293.2,-189.33 1286.7,-210.26"/>
<polygon fill="#f7931d" stroke="#f7931d" stroke-width="2" points="1283.33,-209.3 1283.93,-219.88 1290.06,-211.24 1283.33,-209.3"/>
<text text-anchor="middle" x="1499" y="-134.81" font-family="Times,serif" font-size="32.00">ε_2</text>
<text text-anchor="middle" x="1499" y="-99.81" font-family="Times,serif" font-size="32.00">=&gt;3 4</text>
</g>
<!-- z1 -->
<g id="node8" class="node">
<title>z1</title>
<ellipse fill="none" stroke="black" stroke-dasharray="5,2" cx="1858" cy="-111.41" rx="27" ry="18"/>
</g>
<!-- z1&#45;&gt;3 -->
<g id="edge6" class="edge">
<title>z1&#45;&gt;3</title>
<path fill="none" stroke="#f7931d" stroke-width="2" d="M1830.91,-111.41C1804.84,-111.41 1764.53,-111.41 1735.34,-111.41"/>
<polygon fill="#f7931d" stroke="#f7931d" stroke-width="2" points="1735.13,-107.91 1725.13,-111.41 1735.13,-114.91 1735.13,-107.91"/>
<text text-anchor="middle" x="1778" y="-155.81" font-family="Times,serif" font-size="32.00">danc</text>
<text text-anchor="middle" x="1778" y="-120.81" font-family="Times,serif" font-size="32.00">3</text>
</g>
<!-- 4&#45;&gt;0 -->
<g id="edge7" class="edge">
<title>4&#45;&gt;0</title>
<path fill="none" stroke="#000000" d="M1251.94,-237.59C1202.11,-214.23 1083.45,-164.41 978,-164.41 978,-164.41 978,-164.41 426,-164.41 349.45,-164.41 326.06,-189.28 274,-245.41 258.04,-262.61 247.23,-286.55 240.32,-306.69"/>
<polygon fill="#000000" stroke="#000000" points="236.98,-305.64 237.23,-316.23 243.64,-307.79 236.98,-305.64"/>
<text text-anchor="middle" x="669" y="-208.81" font-family="Times,serif" font-size="32.00">ed</text>
<text text-anchor="middle" x="669" y="-173.81" font-family="Times,serif" font-size="32.00">=&gt;4 =d 0</text>
</g>
<!-- prog -->
<g id="node11" class="node">
<title>prog</title>
<ellipse fill="none" stroke="black" cx="977" cy="-367.41" rx="52.15" ry="30.31"/>
<text text-anchor="middle" x="977" y="-359.31" font-family="Times,serif" font-size="32.00">prog</text>
</g>
<!-- 4&#45;&gt;prog -->
<g id="edge10" class="edge">
<title>4&#45;&gt;prog</title>
<path fill="none" stroke="#000000" d="M1251.36,-259.16C1203.08,-278.28 1095.09,-321.04 1030.23,-346.72"/>
<polygon fill="#000000" stroke="#000000" points="1028.6,-343.6 1020.59,-350.54 1031.18,-350.11 1028.6,-343.6"/>
<text text-anchor="middle" x="1152" y="-373.81" font-family="Times,serif" font-size="32.00">ing</text>
<text text-anchor="middle" x="1152" y="-338.81" font-family="Times,serif" font-size="32.00">=&gt;4 =d prog</text>
</g>
<!-- perf -->
<g id="node12" class="node">
<title>perf</title>
<ellipse fill="none" stroke="black" cx="669" cy="-282.41" rx="48.17" ry="30.31"/>
<text text-anchor="middle" x="669" y="-274.31" font-family="Times,serif" font-size="32.00">perf</text>
</g>
<!-- 4&#45;&gt;perf -->
<g id="edge11" class="edge">
<title>4&#45;&gt;perf</title>
<path fill="none" stroke="#000000" d="M1249.95,-248.73C1172.71,-247.07 938.34,-244.53 746,-268.41 739.2,-269.25 732.09,-270.31 725.06,-271.48"/>
<polygon fill="#000000" stroke="#000000" points="724.13,-268.09 714.87,-273.24 725.32,-274.98 724.13,-268.09"/>
<text text-anchor="middle" x="977" y="-298.81" font-family="Times,serif" font-size="32.00">ed_1</text>
<text text-anchor="middle" x="977" y="-263.81" font-family="Times,serif" font-size="32.00">=&gt;4 =d perf</text>
</g>
<!-- v&#45;&gt;0 -->
<g id="edge24" class="edge">
<title>v&#45;&gt;0</title>
<path fill="none" stroke="#000000" d="M404.59,-368.31C392.77,-359.96 377.39,-350.79 362,-346.41 330.48,-337.43 292.98,-338.17 266.02,-340.57"/>
<polygon fill="#000000" stroke="#000000" points="265.48,-337.11 255.88,-341.6 266.18,-344.07 265.48,-337.11"/>
<text text-anchor="middle" x="318" y="-425.81" font-family="Times,serif" font-size="32.00">will |</text>
<text text-anchor="middle" x="318" y="-390.81" font-family="Times,serif" font-size="32.00"> would</text>
<text text-anchor="middle" x="318" y="-355.81" font-family="Times,serif" font-size="32.00">=v 0</text>
</g>
<!-- prog&#45;&gt;0 -->
<g id="edge27" class="edge">
<title>prog&#45;&gt;0</title>
<path fill="none" stroke="#000000" d="M934.95,-385.96C886.61,-406.69 803.35,-438.99 728,-451.41 528.91,-484.21 441.81,-563.44 274,-451.41 252.2,-436.85 241.19,-409.27 235.63,-385.89"/>
<polygon fill="#000000" stroke="#000000" points="239,-384.9 233.51,-375.84 232.15,-386.35 239,-384.9"/>
<text text-anchor="middle" x="542" y="-584.81" font-family="Times,serif" font-size="32.00">is |</text>
<text text-anchor="middle" x="542" y="-549.81" font-family="Times,serif" font-size="32.00"> was</text>
<text text-anchor="middle" x="542" y="-514.81" font-family="Times,serif" font-size="32.00">=prog 0</text>
</g>
<!-- prog&#45;&gt;v -->
<g id="edge28" class="edge">
<title>prog&#45;&gt;v</title>
<path fill="none" stroke="#000000" d="M924.45,-369.1C814.51,-372.71 559.37,-381.09 464.44,-384.21"/>
<polygon fill="#000000" stroke="#000000" points="464.08,-380.72 454.2,-384.55 464.31,-387.71 464.08,-380.72"/>
<text text-anchor="middle" x="669" y="-423.81" font-family="Times,serif" font-size="32.00">be</text>
<text text-anchor="middle" x="669" y="-388.81" font-family="Times,serif" font-size="32.00">=prog v</text>
</g>
<!-- prog&#45;&gt;perf -->
<g id="edge29" class="edge">
<title>prog&#45;&gt;perf</title>
<path fill="none" stroke="#000000" d="M934.36,-349.41C922.13,-342.61 909.5,-333.93 900,-323.41 886.94,-308.94 898.35,-294.03 882,-283.41 857.28,-267.34 780.5,-270.99 726.48,-275.97"/>
<polygon fill="#000000" stroke="#000000" points="725.96,-272.5 716.34,-276.94 726.63,-279.47 725.96,-272.5"/>
<text text-anchor="middle" x="814" y="-327.81" font-family="Times,serif" font-size="32.00">been</text>
<text text-anchor="middle" x="814" y="-292.81" font-family="Times,serif" font-size="32.00">=prog perf</text>
</g>
<!-- perf&#45;&gt;0 -->
<g id="edge25" class="edge">
<title>perf&#45;&gt;0</title>
<path fill="none" stroke="#000000" d="M628.45,-266.01C572.11,-245.05 466.04,-214.5 380,-241.41 331.62,-256.54 285.14,-293.36 257.07,-318.87"/>
<polygon fill="#000000" stroke="#000000" points="254.61,-316.37 249.65,-325.73 259.37,-321.51 254.61,-316.37"/>
<text text-anchor="middle" x="427" y="-320.81" font-family="Times,serif" font-size="32.00">has |</text>
<text text-anchor="middle" x="427" y="-285.81" font-family="Times,serif" font-size="32.00"> had</text>
<text text-anchor="middle" x="427" y="-250.81" font-family="Times,serif" font-size="32.00">=perf 0</text>
</g>
<!-- perf&#45;&gt;v -->
<g id="edge26" class="edge">
<title>perf&#45;&gt;v</title>
<path fill="none" stroke="#000000" d="M625.2,-269.58C586.55,-260.79 530.05,-255.21 492,-283.41 470.32,-299.48 488.21,-318.46 474,-341.41 469.58,-348.54 463.74,-355.32 457.7,-361.31"/>
<polygon fill="#000000" stroke="#000000" points="454.97,-359.08 450.05,-368.47 459.74,-364.2 454.97,-359.08"/>
<text text-anchor="middle" x="542" y="-327.81" font-family="Times,serif" font-size="32.00">have</text>
<text text-anchor="middle" x="542" y="-292.81" font-family="Times,serif" font-size="32.00">=perf v</text>
</g>
<!-- z2 -->
<g id="node13" class="node">
<title>z2</title>
<ellipse fill="none" stroke="black" stroke-dasharray="5,2" cx="1698" cy="-220.41" rx="27" ry="18"/>
</g>
<!-- z2&#45;&gt;2 -->
<g id="edge12" class="edge">
<title>z2&#45;&gt;2</title>
<path fill="none" stroke="#000000" d="M1670.84,-219.34C1636.4,-217.94 1575.66,-215.48 1536.65,-213.89"/>
<polygon fill="#000000" stroke="#000000" points="1536.4,-210.38 1526.27,-213.47 1536.12,-217.38 1536.4,-210.38"/>
<text text-anchor="middle" x="1604" y="-263.81" font-family="Times,serif" font-size="32.00">smil</text>
<text text-anchor="middle" x="1604" y="-228.81" font-family="Times,serif" font-size="32.00">2</text>
</g>
<!-- z3 -->
<g id="node14" class="node">
<title>z3</title>
<ellipse fill="none" stroke="black" stroke-dasharray="5,2" cx="1499" cy="-278.41" rx="27" ry="18"/>
</g>
<!-- z3&#45;&gt;4 -->
<g id="edge13" class="edge">
<title>z3&#45;&gt;4</title>
<path fill="none" stroke="#000000" d="M1479.26,-266.11C1469,-260.1 1455.81,-253.52 1443,-250.41 1399.67,-239.87 1348.03,-241.78 1314.21,-244.89"/>
<polygon fill="#000000" stroke="#000000" points="1313.49,-241.45 1303.89,-245.93 1314.19,-248.41 1313.49,-241.45"/>
<text text-anchor="middle" x="1382.5" y="-364.81" font-family="Times,serif" font-size="32.00">smil_1 |</text>
<text text-anchor="middle" x="1382.5" y="-329.81" font-family="Times,serif" font-size="32.00"> jump_1 |</text>
<text text-anchor="middle" x="1382.5" y="-294.81" font-family="Times,serif" font-size="32.00"> laugh_1</text>
<text text-anchor="middle" x="1382.5" y="-259.81" font-family="Times,serif" font-size="32.00">4</text>
</g>
<!-- z4 -->
<g id="node15" class="node">
<title>z4</title>
<ellipse fill="none" stroke="black" stroke-dasharray="5,2" cx="1499" cy="-877.41" rx="27" ry="18"/>
</g>
<!-- z4&#45;&gt;1 -->
<g id="edge16" class="edge">
<title>z4&#45;&gt;1</title>
<path fill="none" stroke="#000000" d="M1472.98,-882.47C1435.07,-888.57 1363.15,-893.68 1322,-855.41 1296.25,-831.45 1284.97,-732.12 1280.53,-675.11"/>
<polygon fill="#000000" stroke="#000000" points="1284.01,-674.71 1279.78,-664.99 1277.03,-675.22 1284.01,-674.71"/>
<text text-anchor="middle" x="1382.5" y="-965.81" font-family="Times,serif" font-size="32.00">jump |</text>
<text text-anchor="middle" x="1382.5" y="-930.81" font-family="Times,serif" font-size="32.00"> laugh</text>
<text text-anchor="middle" x="1382.5" y="-895.81" font-family="Times,serif" font-size="32.00">1</text>
</g>
<!-- 5&#45;&gt;1 -->
<g id="edge17" class="edge">
<title>5&#45;&gt;1</title>
<path fill="none" stroke="#000000" d="M1492.25,-487.92C1485.35,-515.17 1471.01,-554.61 1443,-576.41 1399.8,-610.02 1371.76,-576.59 1322,-599.41 1316.54,-601.91 1311.17,-605.23 1306.15,-608.83"/>
<polygon fill="#000000" stroke="#000000" points="1303.87,-606.17 1298.1,-615.06 1308.15,-611.71 1303.87,-606.17"/>
<text text-anchor="middle" x="1382.5" y="-643.81" font-family="Times,serif" font-size="32.00">ε_5</text>
<text text-anchor="middle" x="1382.5" y="-608.81" font-family="Times,serif" font-size="32.00">=&gt;5 1</text>
</g>
<!-- 5&#45;&gt;4 -->
<g id="edge19" class="edge">
<title>5&#45;&gt;4</title>
<path fill="none" stroke="#000000" d="M1478.53,-438.41C1468.69,-429.44 1456.08,-419.51 1443,-413.41 1393.4,-390.25 1362.86,-426.83 1322,-390.41 1293.71,-365.19 1283.42,-322.09 1279.77,-290.17"/>
<polygon fill="#000000" stroke="#000000" points="1283.22,-289.43 1278.78,-279.81 1276.25,-290.1 1283.22,-289.43"/>
<text text-anchor="middle" x="1382.5" y="-457.81" font-family="Times,serif" font-size="32.00">ε_6</text>
<text text-anchor="middle" x="1382.5" y="-422.81" font-family="Times,serif" font-size="32.00">=&gt;5 4</text>
</g>
<!-- 6&#45;&gt;1 -->
<g id="edge20" class="edge">
<title>6&#45;&gt;1</title>
<path fill="none" stroke="#000000" d="M1485.42,-717.79C1476.16,-733.9 1461.9,-753.14 1443,-762.41 1394.71,-786.08 1365.77,-793.65 1322,-762.41 1294.37,-742.69 1283.91,-704.46 1280.04,-674.89"/>
<polygon fill="#000000" stroke="#000000" points="1283.51,-674.4 1278.93,-664.84 1276.55,-675.17 1283.51,-674.4"/>
<text text-anchor="middle" x="1382.5" y="-826.81" font-family="Times,serif" font-size="32.00">g</text>
<text text-anchor="middle" x="1382.5" y="-791.81" font-family="Times,serif" font-size="32.00">=&gt;6 1</text>
</g>
<!-- 6&#45;&gt;4 -->
<g id="edge22" class="edge">
<title>6&#45;&gt;4</title>
<path fill="none" stroke="#000000" d="M1471.71,-689.9C1425.2,-686.98 1332.29,-679.91 1322,-669.41 1308.79,-655.93 1288.36,-392.36 1280.88,-289.78"/>
<polygon fill="#000000" stroke="#000000" points="1284.37,-289.51 1280.15,-279.79 1277.38,-290.02 1284.37,-289.51"/>
<text text-anchor="middle" x="1382.5" y="-731.81" font-family="Times,serif" font-size="32.00">gg</text>
<text text-anchor="middle" x="1382.5" y="-696.81" font-family="Times,serif" font-size="32.00">=&gt;6 4</text>
</g>
<!-- z5 -->
<g id="node18" class="node">
<title>z5</title>
<ellipse fill="none" stroke="black" stroke-dasharray="5,2" cx="1698" cy="-691.41" rx="27" ry="18"/>
</g>
<!-- z5&#45;&gt;6 -->
<g id="edge21" class="edge">
<title>z5&#45;&gt;6</title>
<path fill="none" stroke="#000000" d="M1670.84,-691.41C1636.4,-691.41 1575.66,-691.41 1536.65,-691.41"/>
<polygon fill="#000000" stroke="#000000" points="1536.27,-687.91 1526.27,-691.41 1536.27,-694.91 1536.27,-687.91"/>
<text text-anchor="middle" x="1604" y="-770.81" font-family="Times,serif" font-size="32.00">bra |</text>
<text text-anchor="middle" x="1604" y="-735.81" font-family="Times,serif" font-size="32.00"> jo</text>
<text text-anchor="middle" x="1604" y="-700.81" font-family="Times,serif" font-size="32.00">6</text>
</g>
</g>
</svg>
