<?xml version="1.0" encoding="UTF-8" standalone="no"?>
<!DOCTYPE svg PUBLIC "-//W3C//DTD SVG 1.1//EN"
 "http://www.w3.org/Graphics/SVG/1.1/DTD/svg11.dtd">
<!-- Generated by graphviz version 2.47.1 (20210417.1919)
 -->
<!-- Title: G Pages: 1 -->
<svg width="1871pt" height="938pt"
 viewBox="0.00 0.00 1871.00 938.09" xmlns="http://www.w3.org/2000/svg" xmlns:xlink="http://www.w3.org/1999/xlink">
<g id="graph0" class="graph" transform="scale(1 1) rotate(0) translate(4 934.09)">
<title>G</title>
<polygon fill="white" stroke="transparent" points="-4,4 -4,-934.09 1867,-934.09 1867,4 -4,4"/>
<text text-anchor="middle" x="931.5" y="-13.4" font-family="Times,serif" font-size="32.00">single contraction: 3 → 2</text>
<!-- t -->
<g id="node1" class="node">
<title>t</title>
<ellipse fill="lightgray" stroke="black" cx="27" cy="-406.09" rx="27" ry="30.31"/>
<text text-anchor="middle" x="27" y="-397.99" font-family="Times,serif" font-size="32.00">t</text>
</g>
<!-- z0 -->
<g id="node2" class="node">
<title>z0</title>
<ellipse fill="none" stroke="black" stroke-dasharray="5,2" cx="1836" cy="-543.09" rx="27" ry="18"/>
</g>
<!-- d -->
<g id="node3" class="node">
<title>d</title>
<ellipse fill="none" stroke="black" cx="1676" cy="-543.09" rx="27" ry="30.31"/>
<text text-anchor="middle" x="1676" y="-534.99" font-family="Times,serif" font-size="32.00">d</text>
</g>
<!-- z0&#45;&gt;d -->
<g id="edge1" class="edge">
<title>z0&#45;&gt;d</title>
<path fill="none" stroke="#000000" d="M1808.91,-543.09C1782.84,-543.09 1742.53,-543.09 1713.34,-543.09"/>
<polygon fill="#000000" stroke="#000000" points="1713.13,-539.59 1703.13,-543.09 1713.13,-546.59 1713.13,-539.59"/>
<text text-anchor="middle" x="1756" y="-587.49" font-family="Times,serif" font-size="32.00">Mary</text>
<text text-anchor="middle" x="1756" y="-552.49" font-family="Times,serif" font-size="32.00">d &#45;k</text>
</g>
<!-- 2 -->
<g id="node6" class="node">
<title>2</title>
<ellipse fill="none" stroke="black" cx="1488" cy="-543.09" rx="27" ry="30.31"/>
<text text-anchor="middle" x="1488" y="-534.99" font-family="Times,serif" font-size="32.00">2</text>
</g>
<!-- d&#45;&gt;2 -->
<g id="edge12" class="edge">
<title>d&#45;&gt;2</title>
<path fill="none" stroke="#000000" d="M1648.75,-543.09C1616.48,-543.09 1561.56,-543.09 1525.28,-543.09"/>
<polygon fill="#000000" stroke="#000000" points="1525.12,-539.59 1515.12,-543.09 1525.12,-546.59 1525.12,-539.59"/>
<text text-anchor="middle" x="1582" y="-587.49" font-family="Times,serif" font-size="32.00">lik</text>
<text text-anchor="middle" x="1582" y="-552.49" font-family="Times,serif" font-size="32.00">=d *k 2</text>
</g>
<!-- 4 -->
<g id="node14" class="node">
<title>4</title>
<ellipse fill="none" stroke="black" cx="1488" cy="-636.09" rx="27" ry="30.31"/>
<text text-anchor="middle" x="1488" y="-627.99" font-family="Times,serif" font-size="32.00">4</text>
</g>
<!-- d&#45;&gt;4 -->
<g id="edge15" class="edge">
<title>d&#45;&gt;4</title>
<path fill="none" stroke="#000000" d="M1664.61,-570.91C1657.48,-586.1 1646.48,-603.85 1631,-614.09 1614.1,-625.28 1561.46,-631.13 1525.25,-633.91"/>
<polygon fill="#000000" stroke="#000000" points="1524.78,-630.44 1515.06,-634.65 1525.28,-637.42 1524.78,-630.44"/>
<text text-anchor="middle" x="1582" y="-677.49" font-family="Times,serif" font-size="32.00">destroy</text>
<text text-anchor="middle" x="1582" y="-642.49" font-family="Times,serif" font-size="32.00">=d *k 4</text>
</g>
<!-- 5 -->
<g id="node15" class="node">
<title>5</title>
<ellipse fill="none" stroke="black" cx="1488" cy="-386.09" rx="27" ry="30.31"/>
<text text-anchor="middle" x="1488" y="-377.99" font-family="Times,serif" font-size="32.00">5</text>
</g>
<!-- d&#45;&gt;5 -->
<g id="edge20" class="edge">
<title>d&#45;&gt;5</title>
<path fill="none" stroke="#000000" d="M1663.83,-515.5C1656.44,-500.14 1645.44,-481.64 1631,-469.09 1595.36,-438.13 1572.51,-453.94 1533,-428.09 1526.8,-424.04 1520.7,-419.06 1515.1,-413.96"/>
<polygon fill="#000000" stroke="#000000" points="1517.47,-411.38 1507.82,-407 1512.64,-416.44 1517.47,-411.38"/>
<text text-anchor="middle" x="1582" y="-513.49" font-family="Times,serif" font-size="32.00">hu</text>
<text text-anchor="middle" x="1582" y="-478.49" font-family="Times,serif" font-size="32.00">=d *k 5</text>
</g>
<!-- 0 -->
<g id="node4" class="node">
<title>0</title>
<ellipse fill="none" stroke="black" cx="229" cy="-406.09" rx="27" ry="30.31"/>
<text text-anchor="middle" x="229" y="-397.99" font-family="Times,serif" font-size="32.00">0</text>
</g>
<!-- 0&#45;&gt;t -->
<g id="edge2" class="edge">
<title>0&#45;&gt;t</title>
<path fill="none" stroke="#000000" d="M201.85,-406.09C166.67,-406.09 103.92,-406.09 64.21,-406.09"/>
<polygon fill="#000000" stroke="#000000" points="64.15,-402.59 54.15,-406.09 64.15,-409.59 64.15,-402.59"/>
<text text-anchor="middle" x="128" y="-450.49" font-family="Times,serif" font-size="32.00">ε_0</text>
<text text-anchor="middle" x="128" y="-415.49" font-family="Times,serif" font-size="32.00">=&gt;0 +k t</text>
</g>
<!-- 1 -->
<g id="node5" class="node">
<title>1</title>
<ellipse fill="none" stroke="black" cx="1277" cy="-687.09" rx="27" ry="30.31"/>
<text text-anchor="middle" x="1277" y="-678.99" font-family="Times,serif" font-size="32.00">1</text>
</g>
<!-- 1&#45;&gt;0 -->
<g id="edge3" class="edge">
<title>1&#45;&gt;0</title>
<path fill="none" stroke="#000000" d="M1250.28,-693.49C1198.89,-705.7 1079.72,-731.09 978,-731.09 978,-731.09 978,-731.09 426,-731.09 294.3,-731.09 248.77,-532.98 235.14,-446.11"/>
<polygon fill="#000000" stroke="#000000" points="238.58,-445.45 233.63,-436.09 231.66,-446.5 238.58,-445.45"/>
<text text-anchor="middle" x="669" y="-775.49" font-family="Times,serif" font-size="32.00">s</text>
<text text-anchor="middle" x="669" y="-740.49" font-family="Times,serif" font-size="32.00">=&gt;1 =d 0</text>
</g>
<!-- v -->
<g id="node9" class="node">
<title>v</title>
<ellipse fill="none" stroke="black" cx="427" cy="-446.09" rx="27" ry="30.31"/>
<text text-anchor="middle" x="427" y="-437.99" font-family="Times,serif" font-size="32.00">v</text>
</g>
<!-- 1&#45;&gt;v -->
<g id="edge8" class="edge">
<title>1&#45;&gt;v</title>
<path fill="none" stroke="#000000" d="M1249.77,-683.86C1186.58,-676.18 1020.89,-656.81 882,-647.09 860.37,-645.58 509.41,-645.02 492,-632.09 446.57,-598.35 433.14,-530.35 429.32,-486.59"/>
<polygon fill="#000000" stroke="#000000" points="432.8,-486.27 428.57,-476.56 425.82,-486.79 432.8,-486.27"/>
<text text-anchor="middle" x="814" y="-691.49" font-family="Times,serif" font-size="32.00">ε_2</text>
<text text-anchor="middle" x="814" y="-656.49" font-family="Times,serif" font-size="32.00">=&gt;1 =d v</text>
</g>
<!-- 2&#45;&gt;1 -->
<g id="edge4" class="edge">
<title>2&#45;&gt;1</title>
<path fill="none" stroke="#000000" d="M1461.78,-534.84C1426.71,-525.08 1362.92,-513.68 1322,-544.09 1290.59,-567.44 1280.91,-612.85 1278.26,-646.26"/>
<polygon fill="#000000" stroke="#000000" points="1274.75,-646.45 1277.63,-656.64 1281.73,-646.87 1274.75,-646.45"/>
<text text-anchor="middle" x="1382.5" y="-588.49" font-family="Times,serif" font-size="32.00">e</text>
<text text-anchor="middle" x="1382.5" y="-553.49" font-family="Times,serif" font-size="32.00">=&gt;2 1</text>
</g>
<!-- 3 -->
<g id="node8" class="node">
<title>3</title>
<ellipse fill="none" stroke="black" cx="1277" cy="-310.09" rx="27" ry="30.31"/>
<text text-anchor="middle" x="1277" y="-301.99" font-family="Times,serif" font-size="32.00">3</text>
</g>
<!-- 2&#45;&gt;3 -->
<g id="edge7" class="edge">
<title>2&#45;&gt;3</title>
<path fill="none" stroke="#000000" d="M1480.39,-513.49C1468.82,-461.93 1445.84,-360.81 1443,-358.09 1403.42,-320.28 1373.38,-353.98 1322,-335.09 1318.01,-333.63 1313.96,-331.82 1310.01,-329.86"/>
<polygon fill="#000000" stroke="#000000" points="1311.53,-326.7 1301.06,-325.08 1308.23,-332.88 1311.53,-326.7"/>
<text text-anchor="middle" x="1382.5" y="-402.49" font-family="Times,serif" font-size="32.00">ε_1</text>
<text text-anchor="middle" x="1382.5" y="-367.49" font-family="Times,serif" font-size="32.00">=&gt;2 3</text>
</g>
<!-- z1 -->
<g id="node7" class="node">
<title>z1</title>
<ellipse fill="none" stroke="black" stroke-dasharray="5,2" cx="1676" cy="-729.09" rx="27" ry="18"/>
</g>
<!-- z1&#45;&gt;2 -->
<g id="edge5" class="edge">
<title>z1&#45;&gt;2</title>
<path fill="none" stroke="#000000" d="M1649.56,-733.24C1617.72,-736.85 1563.65,-737.48 1533,-707.09 1497.82,-672.21 1529.9,-644.34 1515,-597.09 1513.01,-590.78 1510.4,-584.26 1507.6,-578.04"/>
<polygon fill="#000000" stroke="#000000" points="1510.56,-576.11 1503.12,-568.57 1504.24,-579.11 1510.56,-576.11"/>
<text text-anchor="middle" x="1582" y="-813.49" font-family="Times,serif" font-size="32.00">danc |</text>
<text text-anchor="middle" x="1582" y="-778.49" font-family="Times,serif" font-size="32.00"> smil</text>
<text text-anchor="middle" x="1582" y="-743.49" font-family="Times,serif" font-size="32.00">2</text>
</g>
<!-- 3&#45;&gt;0 -->
<g id="edge6" class="edge">
<title>3&#45;&gt;0</title>
<path fill="none" stroke="#000000" d="M1251.94,-298.28C1202.11,-274.92 1083.45,-225.09 978,-225.09 978,-225.09 978,-225.09 426,-225.09 349.45,-225.09 326.06,-249.97 274,-306.09 258.04,-323.3 247.23,-347.24 240.32,-367.38"/>
<polygon fill="#000000" stroke="#000000" points="236.98,-366.33 237.23,-376.92 243.64,-368.48 236.98,-366.33"/>
<text text-anchor="middle" x="669" y="-269.49" font-family="Times,serif" font-size="32.00">ed</text>
<text text-anchor="middle" x="669" y="-234.49" font-family="Times,serif" font-size="32.00">=&gt;3 =d 0</text>
</g>
<!-- prog -->
<g id="node10" class="node">
<title>prog</title>
<ellipse fill="none" stroke="black" cx="977" cy="-428.09" rx="52.15" ry="30.31"/>
<text text-anchor="middle" x="977" y="-419.99" font-family="Times,serif" font-size="32.00">prog</text>
</g>
<!-- 3&#45;&gt;prog -->
<g id="edge9" class="edge">
<title>3&#45;&gt;prog</title>
<path fill="none" stroke="#000000" d="M1251.36,-319.85C1203.08,-338.97 1095.09,-381.73 1030.23,-407.41"/>
<polygon fill="#000000" stroke="#000000" points="1028.6,-404.29 1020.59,-411.23 1031.18,-410.8 1028.6,-404.29"/>
<text text-anchor="middle" x="1152" y="-434.49" font-family="Times,serif" font-size="32.00">ing</text>
<text text-anchor="middle" x="1152" y="-399.49" font-family="Times,serif" font-size="32.00">=&gt;3 =d prog</text>
</g>
<!-- perf -->
<g id="node11" class="node">
<title>perf</title>
<ellipse fill="none" stroke="black" cx="669" cy="-343.09" rx="48.17" ry="30.31"/>
<text text-anchor="middle" x="669" y="-334.99" font-family="Times,serif" font-size="32.00">perf</text>
</g>
<!-- 3&#45;&gt;perf -->
<g id="edge10" class="edge">
<title>3&#45;&gt;perf</title>
<path fill="none" stroke="#000000" d="M1249.95,-309.42C1172.71,-307.76 938.34,-305.22 746,-329.09 739.2,-329.94 732.09,-331 725.06,-332.17"/>
<polygon fill="#000000" stroke="#000000" points="724.13,-328.77 714.87,-333.93 725.32,-335.67 724.13,-328.77"/>
<text text-anchor="middle" x="977" y="-359.49" font-family="Times,serif" font-size="32.00">ed_1</text>
<text text-anchor="middle" x="977" y="-324.49" font-family="Times,serif" font-size="32.00">=&gt;3 =d perf</text>
</g>
<!-- v&#45;&gt;0 -->
<g id="edge21" class="edge">
<title>v&#45;&gt;0</title>
<path fill="none" stroke="#000000" d="M404.59,-429C392.77,-420.65 377.39,-411.48 362,-407.09 330.48,-398.12 292.98,-398.86 266.02,-401.26"/>
<polygon fill="#000000" stroke="#000000" points="265.48,-397.8 255.88,-402.29 266.18,-404.76 265.48,-397.8"/>
<text text-anchor="middle" x="318" y="-486.49" font-family="Times,serif" font-size="32.00">will |</text>
<text text-anchor="middle" x="318" y="-451.49" font-family="Times,serif" font-size="32.00"> would</text>
<text text-anchor="middle" x="318" y="-416.49" font-family="Times,serif" font-size="32.00">=v 0</text>
</g>
<!-- prog&#45;&gt;0 -->
<g id="edge24" class="edge">
<title>prog&#45;&gt;0</title>
<path fill="none" stroke="#000000" d="M934.95,-446.65C886.61,-467.38 803.35,-499.68 728,-512.09 528.91,-544.9 441.81,-624.13 274,-512.09 252.2,-497.54 241.19,-469.96 235.63,-446.58"/>
<polygon fill="#000000" stroke="#000000" points="239,-445.59 233.51,-436.53 232.15,-447.04 239,-445.59"/>
<text text-anchor="middle" x="542" y="-645.49" font-family="Times,serif" font-size="32.00">is |</text>
<text text-anchor="middle" x="542" y="-610.49" font-family="Times,serif" font-size="32.00"> was</text>
<text text-anchor="middle" x="542" y="-575.49" font-family="Times,serif" font-size="32.00">=prog 0</text>
</g>
<!-- prog&#45;&gt;v -->
<g id="edge25" class="edge">
<title>prog&#45;&gt;v</title>
<path fill="none" stroke="#000000" d="M924.45,-429.79C814.51,-433.4 559.37,-441.78 464.44,-444.9"/>
<polygon fill="#000000" stroke="#000000" points="464.08,-441.41 454.2,-445.23 464.31,-448.4 464.08,-441.41"/>
<text text-anchor="middle" x="669" y="-484.49" font-family="Times,serif" font-size="32.00">be</text>
<text text-anchor="middle" x="669" y="-449.49" font-family="Times,serif" font-size="32.00">=prog v</text>
</g>
<!-- prog&#45;&gt;perf -->
<g id="edge26" class="edge">
<title>prog&#45;&gt;perf</title>
<path fill="none" stroke="#000000" d="M934.36,-410.1C922.13,-403.3 909.5,-394.62 900,-384.09 886.94,-369.62 898.35,-354.72 882,-344.09 857.28,-328.03 780.5,-331.68 726.48,-336.66"/>
<polygon fill="#000000" stroke="#000000" points="725.96,-333.19 716.34,-337.63 726.63,-340.16 725.96,-333.19"/>
<text text-anchor="middle" x="814" y="-388.49" font-family="Times,serif" font-size="32.00">been</text>
<text text-anchor="middle" x="814" y="-353.49" font-family="Times,serif" font-size="32.00">=prog perf</text>
</g>
<!-- perf&#45;&gt;0 -->
<g id="edge22" class="edge">
<title>perf&#45;&gt;0</title>
<path fill="none" stroke="#000000" d="M628.45,-326.7C572.11,-305.73 466.04,-275.18 380,-302.09 331.62,-317.23 285.14,-354.05 257.07,-379.55"/>
<polygon fill="#000000" stroke="#000000" points="254.61,-377.06 249.65,-386.42 259.37,-382.19 254.61,-377.06"/>
<text text-anchor="middle" x="427" y="-381.49" font-family="Times,serif" font-size="32.00">has |</text>
<text text-anchor="middle" x="427" y="-346.49" font-family="Times,serif" font-size="32.00"> had</text>
<text text-anchor="middle" x="427" y="-311.49" font-family="Times,serif" font-size="32.00">=perf 0</text>
</g>
<!-- perf&#45;&gt;v -->
<g id="edge23" class="edge">
<title>perf&#45;&gt;v</title>
<path fill="none" stroke="#000000" d="M625.2,-330.27C586.55,-321.48 530.05,-315.89 492,-344.09 470.32,-360.16 488.21,-379.14 474,-402.09 469.58,-409.23 463.74,-416 457.7,-422"/>
<polygon fill="#000000" stroke="#000000" points="454.97,-419.77 450.05,-429.16 459.74,-424.89 454.97,-419.77"/>
<text text-anchor="middle" x="542" y="-388.49" font-family="Times,serif" font-size="32.00">have</text>
<text text-anchor="middle" x="542" y="-353.49" font-family="Times,serif" font-size="32.00">=perf v</text>
</g>
<!-- z2 -->
<g id="node12" class="node">
<title>z2</title>
<ellipse fill="none" stroke="black" stroke-dasharray="5,2" cx="1488" cy="-101.09" rx="27" ry="18"/>
</g>
<!-- z2&#45;&gt;3 -->
<g id="edge11" class="edge">
<title>z2&#45;&gt;3</title>
<path fill="none" stroke="#000000" d="M1463.74,-93.04C1428.75,-82.54 1362.4,-69.14 1322,-102.09 1296.54,-122.86 1285.21,-215.33 1280.67,-269.74"/>
<polygon fill="#000000" stroke="#000000" points="1277.18,-269.51 1279.88,-279.75 1284.16,-270.06 1277.18,-269.51"/>
<text text-anchor="middle" x="1382.5" y="-216.49" font-family="Times,serif" font-size="32.00">smil_1 |</text>
<text text-anchor="middle" x="1382.5" y="-181.49" font-family="Times,serif" font-size="32.00"> jump_1 |</text>
<text text-anchor="middle" x="1382.5" y="-146.49" font-family="Times,serif" font-size="32.00"> laugh_1</text>
<text text-anchor="middle" x="1382.5" y="-111.49" font-family="Times,serif" font-size="32.00">3</text>
</g>
<!-- z3 -->
<g id="node13" class="node">
<title>z3</title>
<ellipse fill="none" stroke="black" stroke-dasharray="5,2" cx="1488" cy="-822.09" rx="27" ry="18"/>
</g>
<!-- z3&#45;&gt;1 -->
<g id="edge13" class="edge">
<title>z3&#45;&gt;1</title>
<path fill="none" stroke="#000000" d="M1461.34,-825.1C1426.03,-827.77 1362.29,-827.21 1322,-795.09 1301.18,-778.49 1290.14,-750.44 1284.32,-727.09"/>
<polygon fill="#000000" stroke="#000000" points="1287.68,-726.07 1282.07,-717.08 1280.85,-727.6 1287.68,-726.07"/>
<text text-anchor="middle" x="1382.5" y="-904.49" font-family="Times,serif" font-size="32.00">jump |</text>
<text text-anchor="middle" x="1382.5" y="-869.49" font-family="Times,serif" font-size="32.00"> laugh</text>
<text text-anchor="middle" x="1382.5" y="-834.49" font-family="Times,serif" font-size="32.00">1</text>
</g>
<!-- 4&#45;&gt;1 -->
<g id="edge14" class="edge">
<title>4&#45;&gt;1</title>
<path fill="none" stroke="#000000" d="M1477.33,-664.46C1470.39,-680.04 1459.34,-697.99 1443,-707.09 1396.01,-733.25 1374.56,-718.48 1322,-707.09 1318.34,-706.3 1314.62,-705.18 1310.97,-703.86"/>
<polygon fill="#000000" stroke="#000000" points="1312.15,-700.56 1301.57,-700.03 1309.51,-707.04 1312.15,-700.56"/>
<text text-anchor="middle" x="1382.5" y="-765.49" font-family="Times,serif" font-size="32.00">ε_3</text>
<text text-anchor="middle" x="1382.5" y="-730.49" font-family="Times,serif" font-size="32.00">=&gt;4 1</text>
</g>
<!-- 4&#45;&gt;3 -->
<g id="edge16" class="edge">
<title>4&#45;&gt;3</title>
<path fill="none" stroke="#000000" d="M1461.01,-634.34C1417.02,-631.11 1331.71,-623.7 1322,-614.09 1285.63,-578.13 1279.06,-425.39 1278.05,-351.06"/>
<polygon fill="#000000" stroke="#000000" points="1281.55,-350.65 1277.94,-340.68 1274.55,-350.72 1281.55,-350.65"/>
<text text-anchor="middle" x="1382.5" y="-676.49" font-family="Times,serif" font-size="32.00">ε_4</text>
<text text-anchor="middle" x="1382.5" y="-641.49" font-family="Times,serif" font-size="32.00">=&gt;4 3</text>
</g>
<!-- 5&#45;&gt;1 -->
<g id="edge17" class="edge">
<title>5&#45;&gt;1</title>
<path fill="none" stroke="#000000" d="M1468.79,-408.06C1461.51,-415.5 1452.58,-423.17 1443,-428.09 1394.32,-453.13 1360.64,-412.32 1322,-451.09 1295.22,-477.97 1284.28,-585.99 1280.19,-646.14"/>
<polygon fill="#000000" stroke="#000000" points="1276.68,-646.22 1279.52,-656.43 1283.66,-646.67 1276.68,-646.22"/>
<text text-anchor="middle" x="1382.5" y="-495.49" font-family="Times,serif" font-size="32.00">g</text>
<text text-anchor="middle" x="1382.5" y="-460.49" font-family="Times,serif" font-size="32.00">=&gt;5 1</text>
</g>
<!-- 5&#45;&gt;3 -->
<g id="edge19" class="edge">
<title>5&#45;&gt;3</title>
<path fill="none" stroke="#000000" d="M1485.34,-355.65C1481.97,-326.96 1472.02,-285.42 1443,-265.09 1398.95,-234.24 1371.57,-244.24 1322,-265.09 1314.49,-268.25 1307.63,-273.39 1301.67,-279.08"/>
<polygon fill="#000000" stroke="#000000" points="1298.98,-276.82 1294.62,-286.48 1304.05,-281.65 1298.98,-276.82"/>
<text text-anchor="middle" x="1382.5" y="-309.49" font-family="Times,serif" font-size="32.00">gg</text>
<text text-anchor="middle" x="1382.5" y="-274.49" font-family="Times,serif" font-size="32.00">=&gt;5 3</text>
</g>
<!-- z4 -->
<g id="node16" class="node">
<title>z4</title>
<ellipse fill="none" stroke="black" stroke-dasharray="5,2" cx="1676" cy="-322.09" rx="27" ry="18"/>
</g>
<!-- z4&#45;&gt;5 -->
<g id="edge18" class="edge">
<title>z4&#45;&gt;5</title>
<path fill="none" stroke="#000000" d="M1650.51,-315.81C1620.84,-309.58 1570.2,-303.53 1533,-323.09 1521.65,-329.06 1512.63,-339.42 1505.77,-350.04"/>
<polygon fill="#000000" stroke="#000000" points="1502.6,-348.54 1500.53,-358.93 1508.62,-352.1 1502.6,-348.54"/>
<text text-anchor="middle" x="1582" y="-402.49" font-family="Times,serif" font-size="32.00">bra |</text>
<text text-anchor="middle" x="1582" y="-367.49" font-family="Times,serif" font-size="32.00"> jo</text>
<text text-anchor="middle" x="1582" y="-332.49" font-family="Times,serif" font-size="32.00">5</text>
</g>
</g>
</svg>
