<?xml version="1.0" encoding="UTF-8" standalone="no"?>
<!DOCTYPE svg PUBLIC "-//W3C//DTD SVG 1.1//EN"
 "http://www.w3.org/Graphics/SVG/1.1/DTD/svg11.dtd">
<!-- Generated by graphviz version 2.47.1 (20210417.1919)
 -->
<!-- Title: G Pages: 1 -->
<svg width="1884pt" height="958pt"
 viewBox="0.00 0.00 1884.00 957.70" xmlns="http://www.w3.org/2000/svg" xmlns:xlink="http://www.w3.org/1999/xlink">
<g id="graph0" class="graph" transform="scale(1 1) rotate(0) translate(4 953.7)">
<title>G</title>
<polygon fill="white" stroke="transparent" points="-4,4 -4,-953.7 1880,-953.7 1880,4 -4,4"/>
<text text-anchor="middle" x="938" y="-13.4" font-family="Times,serif" font-size="32.00">decomposition: smil 2, smil 3</text>
<!-- t -->
<g id="node1" class="node">
<title>t</title>
<ellipse fill="lightgray" stroke="black" cx="27" cy="-376.7" rx="27" ry="30.31"/>
<text text-anchor="middle" x="27" y="-368.6" font-family="Times,serif" font-size="32.00">t</text>
</g>
<!-- z0 -->
<g id="node2" class="node">
<title>z0</title>
<ellipse fill="none" stroke="black" stroke-dasharray="5,2" cx="1849" cy="-466.7" rx="27" ry="18"/>
</g>
<!-- d -->
<g id="node3" class="node">
<title>d</title>
<ellipse fill="none" stroke="black" cx="1689" cy="-466.7" rx="27" ry="30.31"/>
<text text-anchor="middle" x="1689" y="-458.6" font-family="Times,serif" font-size="32.00">d</text>
</g>
<!-- z0&#45;&gt;d -->
<g id="edge1" class="edge">
<title>z0&#45;&gt;d</title>
<path fill="none" stroke="#000000" d="M1821.91,-466.7C1795.84,-466.7 1755.53,-466.7 1726.34,-466.7"/>
<polygon fill="#000000" stroke="#000000" points="1726.13,-463.2 1716.13,-466.7 1726.13,-470.2 1726.13,-463.2"/>
<text text-anchor="middle" x="1769" y="-511.1" font-family="Times,serif" font-size="32.00">Mary</text>
<text text-anchor="middle" x="1769" y="-476.1" font-family="Times,serif" font-size="32.00">d &#45;k</text>
</g>
<!-- 2 -->
<g id="node6" class="node">
<title>2</title>
<ellipse fill="none" stroke="black" cx="1490" cy="-280.7" rx="27" ry="30.31"/>
<text text-anchor="middle" x="1490" y="-272.6" font-family="Times,serif" font-size="32.00">2</text>
</g>
<!-- d&#45;&gt;2 -->
<g id="edge14" class="edge">
<title>d&#45;&gt;2</title>
<path fill="none" stroke="#000000" d="M1676.83,-439.11C1669.44,-423.75 1658.44,-405.25 1644,-392.7 1608.36,-361.73 1583.47,-380.42 1546,-351.7 1532.6,-341.43 1520.7,-327.14 1511.42,-314.08"/>
<polygon fill="#000000" stroke="#000000" points="1514.24,-312.01 1505.71,-305.72 1508.46,-315.95 1514.24,-312.01"/>
<text text-anchor="middle" x="1595" y="-437.1" font-family="Times,serif" font-size="32.00">lik</text>
<text text-anchor="middle" x="1595" y="-402.1" font-family="Times,serif" font-size="32.00">=d *k 2</text>
</g>
<!-- 5 -->
<g id="node16" class="node">
<title>5</title>
<ellipse fill="none" stroke="black" cx="1490" cy="-466.7" rx="27" ry="30.31"/>
<text text-anchor="middle" x="1490" y="-458.6" font-family="Times,serif" font-size="32.00">5</text>
</g>
<!-- d&#45;&gt;5 -->
<g id="edge18" class="edge">
<title>d&#45;&gt;5</title>
<path fill="none" stroke="#000000" d="M1661.84,-466.7C1627.4,-466.7 1566.66,-466.7 1527.65,-466.7"/>
<polygon fill="#000000" stroke="#000000" points="1527.27,-463.2 1517.27,-466.7 1527.27,-470.2 1527.27,-463.2"/>
<text text-anchor="middle" x="1595" y="-511.1" font-family="Times,serif" font-size="32.00">destroy</text>
<text text-anchor="middle" x="1595" y="-476.1" font-family="Times,serif" font-size="32.00">=d *k 5</text>
</g>
<!-- 6 -->
<g id="node17" class="node">
<title>6</title>
<ellipse fill="none" stroke="black" cx="1490" cy="-652.7" rx="27" ry="30.31"/>
<text text-anchor="middle" x="1490" y="-644.6" font-family="Times,serif" font-size="32.00">6</text>
</g>
<!-- d&#45;&gt;6 -->
<g id="edge23" class="edge">
<title>d&#45;&gt;6</title>
<path fill="none" stroke="#000000" d="M1676.24,-493.86C1668.78,-508.46 1657.9,-525.84 1644,-537.7 1608.08,-568.34 1583.18,-549.6 1546,-578.7 1532.01,-589.64 1519.81,-605.01 1510.49,-618.9"/>
<polygon fill="#000000" stroke="#000000" points="1507.54,-617 1505.06,-627.3 1513.42,-620.8 1507.54,-617"/>
<text text-anchor="middle" x="1595" y="-623.1" font-family="Times,serif" font-size="32.00">hu</text>
<text text-anchor="middle" x="1595" y="-588.1" font-family="Times,serif" font-size="32.00">=d *k 6</text>
</g>
<!-- 0 -->
<g id="node4" class="node">
<title>0</title>
<ellipse fill="none" stroke="black" cx="229" cy="-376.7" rx="27" ry="30.31"/>
<text text-anchor="middle" x="229" y="-368.6" font-family="Times,serif" font-size="32.00">0</text>
</g>
<!-- 0&#45;&gt;t -->
<g id="edge2" class="edge">
<title>0&#45;&gt;t</title>
<path fill="none" stroke="#000000" d="M201.85,-376.7C166.67,-376.7 103.92,-376.7 64.21,-376.7"/>
<polygon fill="#000000" stroke="#000000" points="64.15,-373.2 54.15,-376.7 64.15,-380.2 64.15,-373.2"/>
<text text-anchor="middle" x="128" y="-421.1" font-family="Times,serif" font-size="32.00">ε_0</text>
<text text-anchor="middle" x="128" y="-386.1" font-family="Times,serif" font-size="32.00">=&gt;0 +k t</text>
</g>
<!-- 1 -->
<g id="node5" class="node">
<title>1</title>
<ellipse fill="none" stroke="black" cx="1277" cy="-658.7" rx="27" ry="30.31"/>
<text text-anchor="middle" x="1277" y="-650.6" font-family="Times,serif" font-size="32.00">1</text>
</g>
<!-- 1&#45;&gt;0 -->
<g id="edge3" class="edge">
<title>1&#45;&gt;0</title>
<path fill="none" stroke="#000000" d="M1250.27,-664.95C1198.87,-676.88 1079.67,-701.7 978,-701.7 978,-701.7 978,-701.7 426,-701.7 294.3,-701.7 248.77,-503.58 235.14,-416.71"/>
<polygon fill="#000000" stroke="#000000" points="238.58,-416.06 233.63,-406.69 231.66,-417.1 238.58,-416.06"/>
<text text-anchor="middle" x="669" y="-746.1" font-family="Times,serif" font-size="32.00">s</text>
<text text-anchor="middle" x="669" y="-711.1" font-family="Times,serif" font-size="32.00">=&gt;1 =d 0</text>
</g>
<!-- v -->
<g id="node9" class="node">
<title>v</title>
<ellipse fill="none" stroke="black" cx="427" cy="-416.7" rx="27" ry="30.31"/>
<text text-anchor="middle" x="427" y="-408.6" font-family="Times,serif" font-size="32.00">v</text>
</g>
<!-- 1&#45;&gt;v -->
<g id="edge8" class="edge">
<title>1&#45;&gt;v</title>
<path fill="none" stroke="#000000" d="M1249.77,-655.37C1186.59,-647.49 1020.91,-627.59 882,-617.7 860.37,-616.16 509.41,-615.63 492,-602.7 446.57,-568.95 433.14,-500.96 429.32,-457.19"/>
<polygon fill="#000000" stroke="#000000" points="432.8,-456.88 428.57,-447.16 425.82,-457.4 432.8,-456.88"/>
<text text-anchor="middle" x="814" y="-662.1" font-family="Times,serif" font-size="32.00">ε_2</text>
<text text-anchor="middle" x="814" y="-627.1" font-family="Times,serif" font-size="32.00">=&gt;1 =d v</text>
</g>
<!-- 2&#45;&gt;1 -->
<g id="edge4" class="edge">
<title>2&#45;&gt;1</title>
<path fill="none" stroke="#000000" d="M1487.8,-311.24C1484.59,-348.63 1473.25,-411.12 1434,-444.7 1395.63,-477.52 1358.65,-428.97 1322,-463.7 1300.02,-484.52 1287.56,-567.54 1281.86,-618.31"/>
<polygon fill="#000000" stroke="#000000" points="1278.37,-617.99 1280.77,-628.31 1285.33,-618.74 1278.37,-617.99"/>
<text text-anchor="middle" x="1378" y="-508.1" font-family="Times,serif" font-size="32.00">e</text>
<text text-anchor="middle" x="1378" y="-473.1" font-family="Times,serif" font-size="32.00">=&gt;2 1</text>
</g>
<!-- 3 -->
<g id="node8" class="node">
<title>3</title>
<ellipse fill="none" stroke="black" cx="1277" cy="-280.7" rx="27" ry="30.31"/>
<text text-anchor="middle" x="1277" y="-272.6" font-family="Times,serif" font-size="32.00">3</text>
</g>
<!-- 2&#45;&gt;3 -->
<g id="edge7" class="edge">
<title>2&#45;&gt;3</title>
<path fill="none" stroke="#000000" d="M1462.7,-280.7C1425.33,-280.7 1356.7,-280.7 1314.44,-280.7"/>
<polygon fill="#000000" stroke="#000000" points="1314.3,-277.2 1304.3,-280.7 1314.3,-284.2 1314.3,-277.2"/>
<text text-anchor="middle" x="1378" y="-325.1" font-family="Times,serif" font-size="32.00">ε_1</text>
<text text-anchor="middle" x="1378" y="-290.1" font-family="Times,serif" font-size="32.00">=&gt;2 3</text>
</g>
<!-- z1 -->
<g id="node7" class="node">
<title>z1</title>
<ellipse fill="none" stroke="black" stroke-dasharray="5,2" cx="1689" cy="-280.7" rx="27" ry="18"/>
</g>
<!-- z1&#45;&gt;2 -->
<g id="edge5" class="edge">
<title>z1&#45;&gt;2</title>
<path fill="none" stroke="#000000" d="M1661.84,-280.7C1627.4,-280.7 1566.66,-280.7 1527.65,-280.7"/>
<polygon fill="#000000" stroke="#000000" points="1527.27,-277.2 1517.27,-280.7 1527.27,-284.2 1527.27,-277.2"/>
<text text-anchor="middle" x="1595" y="-325.1" font-family="Times,serif" font-size="32.00">danc</text>
<text text-anchor="middle" x="1595" y="-290.1" font-family="Times,serif" font-size="32.00">2</text>
</g>
<!-- 3&#45;&gt;0 -->
<g id="edge6" class="edge">
<title>3&#45;&gt;0</title>
<path fill="none" stroke="#000000" d="M1251.94,-268.88C1202.11,-245.52 1083.45,-195.7 978,-195.7 978,-195.7 978,-195.7 426,-195.7 349.45,-195.7 326.06,-220.58 274,-276.7 258.04,-293.91 247.23,-317.85 240.32,-337.99"/>
<polygon fill="#000000" stroke="#000000" points="236.98,-336.93 237.23,-347.52 243.64,-339.09 236.98,-336.93"/>
<text text-anchor="middle" x="669" y="-240.1" font-family="Times,serif" font-size="32.00">ed</text>
<text text-anchor="middle" x="669" y="-205.1" font-family="Times,serif" font-size="32.00">=&gt;3 =d 0</text>
</g>
<!-- prog -->
<g id="node10" class="node">
<title>prog</title>
<ellipse fill="none" stroke="black" cx="977" cy="-398.7" rx="52.15" ry="30.31"/>
<text text-anchor="middle" x="977" y="-390.6" font-family="Times,serif" font-size="32.00">prog</text>
</g>
<!-- 3&#45;&gt;prog -->
<g id="edge9" class="edge">
<title>3&#45;&gt;prog</title>
<path fill="none" stroke="#000000" d="M1251.36,-290.46C1203.08,-309.57 1095.09,-352.33 1030.23,-378.02"/>
<polygon fill="#000000" stroke="#000000" points="1028.6,-374.9 1020.59,-381.83 1031.18,-381.4 1028.6,-374.9"/>
<text text-anchor="middle" x="1152" y="-405.1" font-family="Times,serif" font-size="32.00">ing</text>
<text text-anchor="middle" x="1152" y="-370.1" font-family="Times,serif" font-size="32.00">=&gt;3 =d prog</text>
</g>
<!-- perf -->
<g id="node11" class="node">
<title>perf</title>
<ellipse fill="none" stroke="black" cx="669" cy="-313.7" rx="48.17" ry="30.31"/>
<text text-anchor="middle" x="669" y="-305.6" font-family="Times,serif" font-size="32.00">perf</text>
</g>
<!-- 3&#45;&gt;perf -->
<g id="edge10" class="edge">
<title>3&#45;&gt;perf</title>
<path fill="none" stroke="#000000" d="M1249.95,-280.02C1172.71,-278.37 938.34,-275.82 746,-299.7 739.2,-300.54 732.09,-301.61 725.06,-302.77"/>
<polygon fill="#000000" stroke="#000000" points="724.13,-299.38 714.87,-304.53 725.32,-306.28 724.13,-299.38"/>
<text text-anchor="middle" x="977" y="-330.1" font-family="Times,serif" font-size="32.00">ed_1</text>
<text text-anchor="middle" x="977" y="-295.1" font-family="Times,serif" font-size="32.00">=&gt;3 =d perf</text>
</g>
<!-- v&#45;&gt;0 -->
<g id="edge24" class="edge">
<title>v&#45;&gt;0</title>
<path fill="none" stroke="#000000" d="M404.59,-399.61C392.77,-391.26 377.39,-382.08 362,-377.7 330.48,-368.72 292.98,-369.46 266.02,-371.87"/>
<polygon fill="#000000" stroke="#000000" points="265.48,-368.4 255.88,-372.89 266.18,-375.37 265.48,-368.4"/>
<text text-anchor="middle" x="318" y="-457.1" font-family="Times,serif" font-size="32.00">will |</text>
<text text-anchor="middle" x="318" y="-422.1" font-family="Times,serif" font-size="32.00"> would</text>
<text text-anchor="middle" x="318" y="-387.1" font-family="Times,serif" font-size="32.00">=v 0</text>
</g>
<!-- prog&#45;&gt;0 -->
<g id="edge27" class="edge">
<title>prog&#45;&gt;0</title>
<path fill="none" stroke="#000000" d="M934.95,-417.25C886.61,-437.99 803.35,-470.28 728,-482.7 528.91,-515.5 441.81,-594.74 274,-482.7 252.2,-468.15 241.19,-440.56 235.63,-417.18"/>
<polygon fill="#000000" stroke="#000000" points="239,-416.19 233.51,-407.14 232.15,-417.64 239,-416.19"/>
<text text-anchor="middle" x="542" y="-615.1" font-family="Times,serif" font-size="32.00">is |</text>
<text text-anchor="middle" x="542" y="-580.1" font-family="Times,serif" font-size="32.00"> was</text>
<text text-anchor="middle" x="542" y="-545.1" font-family="Times,serif" font-size="32.00">=prog 0</text>
</g>
<!-- prog&#45;&gt;v -->
<g id="edge28" class="edge">
<title>prog&#45;&gt;v</title>
<path fill="none" stroke="#000000" d="M924.45,-400.39C814.51,-404 559.37,-412.38 464.44,-415.5"/>
<polygon fill="#000000" stroke="#000000" points="464.08,-412.01 454.2,-415.84 464.31,-419.01 464.08,-412.01"/>
<text text-anchor="middle" x="669" y="-455.1" font-family="Times,serif" font-size="32.00">be</text>
<text text-anchor="middle" x="669" y="-420.1" font-family="Times,serif" font-size="32.00">=prog v</text>
</g>
<!-- prog&#45;&gt;perf -->
<g id="edge29" class="edge">
<title>prog&#45;&gt;perf</title>
<path fill="none" stroke="#000000" d="M934.36,-380.7C922.13,-373.91 909.5,-365.22 900,-354.7 886.94,-340.23 898.35,-325.32 882,-314.7 857.28,-298.64 780.5,-302.28 726.48,-307.26"/>
<polygon fill="#000000" stroke="#000000" points="725.96,-303.8 716.34,-308.24 726.63,-310.76 725.96,-303.8"/>
<text text-anchor="middle" x="814" y="-359.1" font-family="Times,serif" font-size="32.00">been</text>
<text text-anchor="middle" x="814" y="-324.1" font-family="Times,serif" font-size="32.00">=prog perf</text>
</g>
<!-- perf&#45;&gt;0 -->
<g id="edge25" class="edge">
<title>perf&#45;&gt;0</title>
<path fill="none" stroke="#000000" d="M628.45,-297.3C572.11,-276.34 466.04,-245.79 380,-272.7 331.62,-287.83 285.14,-324.66 257.07,-350.16"/>
<polygon fill="#000000" stroke="#000000" points="254.61,-347.66 249.65,-357.02 259.37,-352.8 254.61,-347.66"/>
<text text-anchor="middle" x="427" y="-352.1" font-family="Times,serif" font-size="32.00">has |</text>
<text text-anchor="middle" x="427" y="-317.1" font-family="Times,serif" font-size="32.00"> had</text>
<text text-anchor="middle" x="427" y="-282.1" font-family="Times,serif" font-size="32.00">=perf 0</text>
</g>
<!-- perf&#45;&gt;v -->
<g id="edge26" class="edge">
<title>perf&#45;&gt;v</title>
<path fill="none" stroke="#000000" d="M625.2,-300.87C586.55,-292.08 530.05,-286.5 492,-314.7 470.32,-330.77 488.21,-349.75 474,-372.7 469.58,-379.83 463.74,-386.61 457.7,-392.61"/>
<polygon fill="#000000" stroke="#000000" points="454.97,-390.38 450.05,-399.76 459.74,-395.49 454.97,-390.38"/>
<text text-anchor="middle" x="542" y="-359.1" font-family="Times,serif" font-size="32.00">have</text>
<text text-anchor="middle" x="542" y="-324.1" font-family="Times,serif" font-size="32.00">=perf v</text>
</g>
<!-- 4 -->
<g id="node12" class="node">
<title>4</title>
<ellipse fill="none" stroke="black" cx="1689" cy="-128.7" rx="27" ry="30.31"/>
<text text-anchor="middle" x="1689" y="-120.6" font-family="Times,serif" font-size="32.00">4</text>
</g>
<!-- 4&#45;&gt;2 -->
<g id="edge11" class="edge">
<title>4&#45;&gt;2</title>
<path fill="none" stroke="#f7931d" stroke-width="2" d="M1663.16,-138.44C1633.13,-151.05 1582.15,-175.19 1546,-206.7 1532.84,-218.17 1520.9,-233.31 1511.54,-246.9"/>
<polygon fill="#f7931d" stroke="#f7931d" stroke-width="2" points="1508.41,-245.29 1505.78,-255.55 1514.23,-249.17 1508.41,-245.29"/>
<text text-anchor="middle" x="1595" y="-251.1" font-family="Times,serif" font-size="32.00">ε_3</text>
<text text-anchor="middle" x="1595" y="-216.1" font-family="Times,serif" font-size="32.00">=&gt;4 2</text>
</g>
<!-- 4&#45;&gt;3 -->
<g id="edge13" class="edge">
<title>4&#45;&gt;3</title>
<path fill="none" stroke="#f7931d" stroke-width="2" d="M1663.68,-117.81C1620.67,-100.01 1528.49,-68.39 1452,-86.7 1388.98,-101.78 1364.53,-103.82 1322,-152.7 1300.53,-177.38 1289.4,-213.07 1283.71,-240.5"/>
<polygon fill="#f7931d" stroke="#f7931d" stroke-width="2" points="1280.22,-240.08 1281.79,-250.56 1287.1,-241.4 1280.22,-240.08"/>
<text text-anchor="middle" x="1490" y="-131.1" font-family="Times,serif" font-size="32.00">ε_4</text>
<text text-anchor="middle" x="1490" y="-96.1" font-family="Times,serif" font-size="32.00">=&gt;4 3</text>
</g>
<!-- z2 -->
<g id="node13" class="node">
<title>z2</title>
<ellipse fill="none" stroke="black" stroke-dasharray="5,2" cx="1849" cy="-128.7" rx="27" ry="18"/>
</g>
<!-- z2&#45;&gt;4 -->
<g id="edge12" class="edge">
<title>z2&#45;&gt;4</title>
<path fill="none" stroke="#f7931d" stroke-width="2" d="M1821.91,-128.7C1795.84,-128.7 1755.53,-128.7 1726.34,-128.7"/>
<polygon fill="#f7931d" stroke="#f7931d" stroke-width="2" points="1726.13,-125.2 1716.13,-128.7 1726.13,-132.2 1726.13,-125.2"/>
<text text-anchor="middle" x="1769" y="-173.1" font-family="Times,serif" font-size="32.00">smil</text>
<text text-anchor="middle" x="1769" y="-138.1" font-family="Times,serif" font-size="32.00">4</text>
</g>
<!-- z3 -->
<g id="node14" class="node">
<title>z3</title>
<ellipse fill="none" stroke="black" stroke-dasharray="5,2" cx="1490" cy="-838.7" rx="27" ry="18"/>
</g>
<!-- z3&#45;&gt;1 -->
<g id="edge15" class="edge">
<title>z3&#45;&gt;1</title>
<path fill="none" stroke="#000000" d="M1463.46,-842.68C1427.35,-846.77 1361.4,-848.36 1322,-813.7 1289.6,-785.2 1280.27,-734.76 1277.97,-699.17"/>
<polygon fill="#000000" stroke="#000000" points="1281.46,-698.92 1277.48,-689.1 1274.47,-699.26 1281.46,-698.92"/>
<text text-anchor="middle" x="1378" y="-924.1" font-family="Times,serif" font-size="32.00">jump |</text>
<text text-anchor="middle" x="1378" y="-889.1" font-family="Times,serif" font-size="32.00"> laugh</text>
<text text-anchor="middle" x="1378" y="-854.1" font-family="Times,serif" font-size="32.00">1</text>
</g>
<!-- z4 -->
<g id="node15" class="node">
<title>z4</title>
<ellipse fill="none" stroke="black" stroke-dasharray="5,2" cx="1490" cy="-183.7" rx="27" ry="18"/>
</g>
<!-- z4&#45;&gt;3 -->
<g id="edge16" class="edge">
<title>z4&#45;&gt;3</title>
<path fill="none" stroke="#000000" d="M1467.04,-174.18C1432.85,-160.97 1366.22,-141.86 1322,-171.7 1299.35,-186.98 1288.36,-216.09 1283.02,-240.38"/>
<polygon fill="#000000" stroke="#000000" points="1279.54,-239.96 1281.07,-250.44 1286.41,-241.3 1279.54,-239.96"/>
<text text-anchor="middle" x="1378" y="-251.1" font-family="Times,serif" font-size="32.00">jump_1 |</text>
<text text-anchor="middle" x="1378" y="-216.1" font-family="Times,serif" font-size="32.00"> laugh_1</text>
<text text-anchor="middle" x="1378" y="-181.1" font-family="Times,serif" font-size="32.00">3</text>
</g>
<!-- 5&#45;&gt;1 -->
<g id="edge17" class="edge">
<title>5&#45;&gt;1</title>
<path fill="none" stroke="#000000" d="M1475.3,-492.53C1465.76,-508 1451.6,-526.73 1434,-537.7 1390.87,-564.57 1361.65,-528.92 1322,-560.7 1303.87,-575.23 1292.96,-598.84 1286.54,-619.24"/>
<polygon fill="#000000" stroke="#000000" points="1283.15,-618.36 1283.74,-628.94 1289.88,-620.31 1283.15,-618.36"/>
<text text-anchor="middle" x="1378" y="-605.1" font-family="Times,serif" font-size="32.00">ε_5</text>
<text text-anchor="middle" x="1378" y="-570.1" font-family="Times,serif" font-size="32.00">=&gt;5 1</text>
</g>
<!-- 5&#45;&gt;3 -->
<g id="edge19" class="edge">
<title>5&#45;&gt;3</title>
<path fill="none" stroke="#000000" d="M1479.36,-438.62C1470.73,-417.76 1456,-390.32 1434,-374.7 1392.56,-345.29 1363.67,-380.78 1322,-351.7 1309.75,-343.15 1300.24,-329.99 1293.24,-317.31"/>
<polygon fill="#000000" stroke="#000000" points="1296.26,-315.53 1288.58,-308.23 1290.03,-318.73 1296.26,-315.53"/>
<text text-anchor="middle" x="1378" y="-419.1" font-family="Times,serif" font-size="32.00">ε_6</text>
<text text-anchor="middle" x="1378" y="-384.1" font-family="Times,serif" font-size="32.00">=&gt;5 3</text>
</g>
<!-- 6&#45;&gt;1 -->
<g id="edge20" class="edge">
<title>6&#45;&gt;1</title>
<path fill="none" stroke="#000000" d="M1476.42,-679.08C1467.16,-695.19 1452.9,-714.43 1434,-723.7 1389.31,-745.61 1365.97,-747.03 1322,-723.7 1310.13,-717.4 1300.87,-706.3 1293.98,-695.05"/>
<polygon fill="#000000" stroke="#000000" points="1296.89,-693.08 1288.95,-686.07 1290.78,-696.5 1296.89,-693.08"/>
<text text-anchor="middle" x="1378" y="-784.1" font-family="Times,serif" font-size="32.00">g</text>
<text text-anchor="middle" x="1378" y="-749.1" font-family="Times,serif" font-size="32.00">=&gt;6 1</text>
</g>
<!-- 6&#45;&gt;3 -->
<g id="edge22" class="edge">
<title>6&#45;&gt;3</title>
<path fill="none" stroke="#000000" d="M1463.03,-651.01C1418.58,-647.86 1331.77,-640.52 1322,-630.7 1279.51,-587.95 1276.35,-404.03 1277.16,-321.3"/>
<polygon fill="#000000" stroke="#000000" points="1280.66,-321.3 1277.28,-311.25 1273.66,-321.21 1280.66,-321.3"/>
<text text-anchor="middle" x="1378" y="-692.1" font-family="Times,serif" font-size="32.00">gg</text>
<text text-anchor="middle" x="1378" y="-657.1" font-family="Times,serif" font-size="32.00">=&gt;6 3</text>
</g>
<!-- z5 -->
<g id="node18" class="node">
<title>z5</title>
<ellipse fill="none" stroke="black" stroke-dasharray="5,2" cx="1689" cy="-652.7" rx="27" ry="18"/>
</g>
<!-- z5&#45;&gt;6 -->
<g id="edge21" class="edge">
<title>z5&#45;&gt;6</title>
<path fill="none" stroke="#000000" d="M1661.84,-652.7C1627.4,-652.7 1566.66,-652.7 1527.65,-652.7"/>
<polygon fill="#000000" stroke="#000000" points="1527.27,-649.2 1517.27,-652.7 1527.27,-656.2 1527.27,-649.2"/>
<text text-anchor="middle" x="1595" y="-732.1" font-family="Times,serif" font-size="32.00">bra |</text>
<text text-anchor="middle" x="1595" y="-697.1" font-family="Times,serif" font-size="32.00"> jo</text>
<text text-anchor="middle" x="1595" y="-662.1" font-family="Times,serif" font-size="32.00">6</text>
</g>
</g>
</svg>
