<?xml version="1.0" encoding="UTF-8" standalone="no"?>
<!DOCTYPE svg PUBLIC "-//W3C//DTD SVG 1.1//EN"
 "http://www.w3.org/Graphics/SVG/1.1/DTD/svg11.dtd">
<!-- Generated by graphviz version 2.47.1 (20210417.1919)
 -->
<!-- Title: G Pages: 1 -->
<svg width="1862pt" height="900pt"
 viewBox="0.00 0.00 1862.00 900.00" xmlns="http://www.w3.org/2000/svg" xmlns:xlink="http://www.w3.org/1999/xlink">
<g id="graph0" class="graph" transform="scale(1 1) rotate(0) translate(4 896)">
<title>G</title>
<polygon fill="white" stroke="transparent" points="-4,4 -4,-896 1858,-896 1858,4 -4,4"/>
<text text-anchor="middle" x="927" y="-13.4" font-family="Times,serif" font-size="32.00">single contraction: 4 → 2</text>
<!-- t -->
<g id="node1" class="node">
<title>t</title>
<ellipse fill="lightgray" stroke="black" cx="27" cy="-369" rx="27" ry="30.31"/>
<text text-anchor="middle" x="27" y="-360.9" font-family="Times,serif" font-size="32.00">t</text>
</g>
<!-- z0 -->
<g id="node2" class="node">
<title>z0</title>
<ellipse fill="none" stroke="black" stroke-dasharray="5,2" cx="1827" cy="-506" rx="27" ry="18"/>
</g>
<!-- d -->
<g id="node3" class="node">
<title>d</title>
<ellipse fill="none" stroke="black" cx="1667" cy="-506" rx="27" ry="30.31"/>
<text text-anchor="middle" x="1667" y="-497.9" font-family="Times,serif" font-size="32.00">d</text>
</g>
<!-- z0&#45;&gt;d -->
<g id="edge1" class="edge">
<title>z0&#45;&gt;d</title>
<path fill="none" stroke="#000000" d="M1799.91,-506C1773.84,-506 1733.53,-506 1704.34,-506"/>
<polygon fill="#000000" stroke="#000000" points="1704.13,-502.5 1694.13,-506 1704.13,-509.5 1704.13,-502.5"/>
<text text-anchor="middle" x="1747" y="-550.4" font-family="Times,serif" font-size="32.00">Mary</text>
<text text-anchor="middle" x="1747" y="-515.4" font-family="Times,serif" font-size="32.00">d &#45;k</text>
</g>
<!-- 2 -->
<g id="node6" class="node">
<title>2</title>
<ellipse fill="none" stroke="black" cx="1479" cy="-506" rx="27" ry="30.31"/>
<text text-anchor="middle" x="1479" y="-497.9" font-family="Times,serif" font-size="32.00">2</text>
</g>
<!-- d&#45;&gt;2 -->
<g id="edge11" class="edge">
<title>d&#45;&gt;2</title>
<path fill="none" stroke="#000000" d="M1639.75,-506C1607.48,-506 1552.56,-506 1516.28,-506"/>
<polygon fill="#000000" stroke="#000000" points="1516.12,-502.5 1506.12,-506 1516.12,-509.5 1516.12,-502.5"/>
<text text-anchor="middle" x="1573" y="-550.4" font-family="Times,serif" font-size="32.00">lik</text>
<text text-anchor="middle" x="1573" y="-515.4" font-family="Times,serif" font-size="32.00">=d *k 2</text>
</g>
<!-- 4 -->
<g id="node14" class="node">
<title>4</title>
<ellipse fill="none" stroke="black" cx="1479" cy="-599" rx="27" ry="30.31"/>
<text text-anchor="middle" x="1479" y="-590.9" font-family="Times,serif" font-size="32.00">4</text>
</g>
<!-- d&#45;&gt;4 -->
<g id="edge15" class="edge">
<title>d&#45;&gt;4</title>
<path fill="none" stroke="#000000" d="M1655.61,-533.81C1648.48,-549 1637.48,-566.75 1622,-577 1605.1,-588.19 1552.46,-594.04 1516.25,-596.82"/>
<polygon fill="#000000" stroke="#000000" points="1515.78,-593.34 1506.06,-597.55 1516.28,-600.32 1515.78,-593.34"/>
<text text-anchor="middle" x="1573" y="-640.4" font-family="Times,serif" font-size="32.00">destroy</text>
<text text-anchor="middle" x="1573" y="-605.4" font-family="Times,serif" font-size="32.00">=d *k 4</text>
</g>
<!-- 5 -->
<g id="node15" class="node">
<title>5</title>
<ellipse fill="none" stroke="black" cx="1479" cy="-349" rx="27" ry="30.31"/>
<text text-anchor="middle" x="1479" y="-340.9" font-family="Times,serif" font-size="32.00">5</text>
</g>
<!-- d&#45;&gt;5 -->
<g id="edge20" class="edge">
<title>d&#45;&gt;5</title>
<path fill="none" stroke="#000000" d="M1654.83,-478.41C1647.44,-463.05 1636.44,-444.55 1622,-432 1586.36,-401.04 1563.51,-416.84 1524,-391 1517.8,-386.95 1511.7,-381.96 1506.1,-376.86"/>
<polygon fill="#000000" stroke="#000000" points="1508.47,-374.29 1498.82,-369.91 1503.64,-379.35 1508.47,-374.29"/>
<text text-anchor="middle" x="1573" y="-476.4" font-family="Times,serif" font-size="32.00">hu</text>
<text text-anchor="middle" x="1573" y="-441.4" font-family="Times,serif" font-size="32.00">=d *k 5</text>
</g>
<!-- 0 -->
<g id="node4" class="node">
<title>0</title>
<ellipse fill="none" stroke="black" cx="229" cy="-369" rx="27" ry="30.31"/>
<text text-anchor="middle" x="229" y="-360.9" font-family="Times,serif" font-size="32.00">0</text>
</g>
<!-- 0&#45;&gt;t -->
<g id="edge2" class="edge">
<title>0&#45;&gt;t</title>
<path fill="none" stroke="#000000" d="M201.85,-369C166.67,-369 103.92,-369 64.21,-369"/>
<polygon fill="#000000" stroke="#000000" points="64.15,-365.5 54.15,-369 64.15,-372.5 64.15,-365.5"/>
<text text-anchor="middle" x="128" y="-413.4" font-family="Times,serif" font-size="32.00">ε_0</text>
<text text-anchor="middle" x="128" y="-378.4" font-family="Times,serif" font-size="32.00">=&gt;0 +k t</text>
</g>
<!-- 1 -->
<g id="node5" class="node">
<title>1</title>
<ellipse fill="none" stroke="black" cx="1277" cy="-650" rx="27" ry="30.31"/>
<text text-anchor="middle" x="1277" y="-641.9" font-family="Times,serif" font-size="32.00">1</text>
</g>
<!-- 1&#45;&gt;0 -->
<g id="edge3" class="edge">
<title>1&#45;&gt;0</title>
<path fill="none" stroke="#000000" d="M1250.28,-656.4C1198.89,-668.6 1079.72,-694 978,-694 978,-694 978,-694 426,-694 294.3,-694 248.77,-495.88 235.14,-409.01"/>
<polygon fill="#000000" stroke="#000000" points="238.58,-408.36 233.63,-398.99 231.66,-409.4 238.58,-408.36"/>
<text text-anchor="middle" x="669" y="-738.4" font-family="Times,serif" font-size="32.00">s</text>
<text text-anchor="middle" x="669" y="-703.4" font-family="Times,serif" font-size="32.00">=&gt;1 =d 0</text>
</g>
<!-- v -->
<g id="node9" class="node">
<title>v</title>
<ellipse fill="none" stroke="black" cx="427" cy="-409" rx="27" ry="30.31"/>
<text text-anchor="middle" x="427" y="-400.9" font-family="Times,serif" font-size="32.00">v</text>
</g>
<!-- 1&#45;&gt;v -->
<g id="edge8" class="edge">
<title>1&#45;&gt;v</title>
<path fill="none" stroke="#000000" d="M1249.77,-646.76C1186.58,-639.09 1020.89,-619.71 882,-610 860.37,-608.49 509.41,-607.93 492,-595 446.57,-561.25 433.14,-493.26 429.32,-449.49"/>
<polygon fill="#000000" stroke="#000000" points="432.8,-449.18 428.57,-439.47 425.82,-449.7 432.8,-449.18"/>
<text text-anchor="middle" x="814" y="-654.4" font-family="Times,serif" font-size="32.00">ε_2</text>
<text text-anchor="middle" x="814" y="-619.4" font-family="Times,serif" font-size="32.00">=&gt;1 =d v</text>
</g>
<!-- 2&#45;&gt;1 -->
<g id="edge4" class="edge">
<title>2&#45;&gt;1</title>
<path fill="none" stroke="#000000" d="M1452.74,-497.82C1419.3,-488.69 1360.14,-478.64 1322,-507 1290.59,-530.36 1280.91,-575.76 1278.27,-609.17"/>
<polygon fill="#000000" stroke="#000000" points="1274.75,-609.36 1277.63,-619.55 1281.73,-609.78 1274.75,-609.36"/>
<text text-anchor="middle" x="1378" y="-551.4" font-family="Times,serif" font-size="32.00">e</text>
<text text-anchor="middle" x="1378" y="-516.4" font-family="Times,serif" font-size="32.00">=&gt;2 1</text>
</g>
<!-- 3 -->
<g id="node8" class="node">
<title>3</title>
<ellipse fill="none" stroke="black" cx="1277" cy="-273" rx="27" ry="30.31"/>
<text text-anchor="middle" x="1277" y="-264.9" font-family="Times,serif" font-size="32.00">3</text>
</g>
<!-- 2&#45;&gt;3 -->
<g id="edge7" class="edge">
<title>2&#45;&gt;3</title>
<path fill="none" stroke="#000000" d="M1471.39,-476.4C1459.81,-424.84 1436.82,-323.74 1434,-321 1397.52,-285.63 1369.57,-315.88 1322,-298 1318.02,-296.5 1313.98,-294.68 1310.03,-292.71"/>
<polygon fill="#000000" stroke="#000000" points="1311.55,-289.55 1301.08,-287.91 1308.24,-295.72 1311.55,-289.55"/>
<text text-anchor="middle" x="1378" y="-365.4" font-family="Times,serif" font-size="32.00">ε_1</text>
<text text-anchor="middle" x="1378" y="-330.4" font-family="Times,serif" font-size="32.00">=&gt;2 3</text>
</g>
<!-- z1 -->
<g id="node7" class="node">
<title>z1</title>
<ellipse fill="none" stroke="black" stroke-dasharray="5,2" cx="1667" cy="-692" rx="27" ry="18"/>
</g>
<!-- z1&#45;&gt;2 -->
<g id="edge5" class="edge">
<title>z1&#45;&gt;2</title>
<path fill="none" stroke="#000000" d="M1640.56,-696.14C1608.72,-699.75 1554.65,-700.39 1524,-670 1488.82,-635.12 1520.9,-607.25 1506,-560 1504.01,-553.68 1501.4,-547.17 1498.6,-540.95"/>
<polygon fill="#000000" stroke="#000000" points="1501.56,-539.02 1494.12,-531.48 1495.24,-542.01 1501.56,-539.02"/>
<text text-anchor="middle" x="1573" y="-776.4" font-family="Times,serif" font-size="32.00">danc |</text>
<text text-anchor="middle" x="1573" y="-741.4" font-family="Times,serif" font-size="32.00"> smil</text>
<text text-anchor="middle" x="1573" y="-706.4" font-family="Times,serif" font-size="32.00">2</text>
</g>
<!-- 3&#45;&gt;0 -->
<g id="edge6" class="edge">
<title>3&#45;&gt;0</title>
<path fill="none" stroke="#000000" d="M1251.94,-261.18C1202.11,-237.83 1083.45,-188 978,-188 978,-188 978,-188 426,-188 349.45,-188 326.06,-212.88 274,-269 258.04,-286.21 247.23,-310.15 240.32,-330.29"/>
<polygon fill="#000000" stroke="#000000" points="236.98,-329.23 237.23,-339.82 243.64,-331.39 236.98,-329.23"/>
<text text-anchor="middle" x="669" y="-232.4" font-family="Times,serif" font-size="32.00">ed</text>
<text text-anchor="middle" x="669" y="-197.4" font-family="Times,serif" font-size="32.00">=&gt;3 =d 0</text>
</g>
<!-- prog -->
<g id="node10" class="node">
<title>prog</title>
<ellipse fill="none" stroke="black" cx="977" cy="-391" rx="52.15" ry="30.31"/>
<text text-anchor="middle" x="977" y="-382.9" font-family="Times,serif" font-size="32.00">prog</text>
</g>
<!-- 3&#45;&gt;prog -->
<g id="edge9" class="edge">
<title>3&#45;&gt;prog</title>
<path fill="none" stroke="#000000" d="M1251.36,-282.76C1203.08,-301.87 1095.09,-344.63 1030.23,-370.32"/>
<polygon fill="#000000" stroke="#000000" points="1028.6,-367.2 1020.59,-374.13 1031.18,-373.71 1028.6,-367.2"/>
<text text-anchor="middle" x="1152" y="-397.4" font-family="Times,serif" font-size="32.00">ing</text>
<text text-anchor="middle" x="1152" y="-362.4" font-family="Times,serif" font-size="32.00">=&gt;3 =d prog</text>
</g>
<!-- perf -->
<g id="node11" class="node">
<title>perf</title>
<ellipse fill="none" stroke="black" cx="669" cy="-306" rx="48.17" ry="30.31"/>
<text text-anchor="middle" x="669" y="-297.9" font-family="Times,serif" font-size="32.00">perf</text>
</g>
<!-- 3&#45;&gt;perf -->
<g id="edge10" class="edge">
<title>3&#45;&gt;perf</title>
<path fill="none" stroke="#000000" d="M1249.95,-272.32C1172.71,-270.67 938.34,-268.12 746,-292 739.2,-292.84 732.09,-293.91 725.06,-295.07"/>
<polygon fill="#000000" stroke="#000000" points="724.13,-291.68 714.87,-296.83 725.32,-298.58 724.13,-291.68"/>
<text text-anchor="middle" x="977" y="-322.4" font-family="Times,serif" font-size="32.00">ed_1</text>
<text text-anchor="middle" x="977" y="-287.4" font-family="Times,serif" font-size="32.00">=&gt;3 =d perf</text>
</g>
<!-- v&#45;&gt;0 -->
<g id="edge21" class="edge">
<title>v&#45;&gt;0</title>
<path fill="none" stroke="#000000" d="M404.59,-391.91C392.77,-383.56 377.39,-374.38 362,-370 330.48,-361.02 292.98,-361.76 266.02,-364.17"/>
<polygon fill="#000000" stroke="#000000" points="265.48,-360.7 255.88,-365.19 266.18,-367.67 265.48,-360.7"/>
<text text-anchor="middle" x="318" y="-449.4" font-family="Times,serif" font-size="32.00">will |</text>
<text text-anchor="middle" x="318" y="-414.4" font-family="Times,serif" font-size="32.00"> would</text>
<text text-anchor="middle" x="318" y="-379.4" font-family="Times,serif" font-size="32.00">=v 0</text>
</g>
<!-- prog&#45;&gt;0 -->
<g id="edge24" class="edge">
<title>prog&#45;&gt;0</title>
<path fill="none" stroke="#000000" d="M934.95,-409.55C886.61,-430.29 803.35,-462.58 728,-475 528.91,-507.8 441.81,-587.04 274,-475 252.2,-460.45 241.19,-432.87 235.63,-409.49"/>
<polygon fill="#000000" stroke="#000000" points="239,-408.5 233.51,-399.44 232.15,-409.95 239,-408.5"/>
<text text-anchor="middle" x="542" y="-608.4" font-family="Times,serif" font-size="32.00">is |</text>
<text text-anchor="middle" x="542" y="-573.4" font-family="Times,serif" font-size="32.00"> was</text>
<text text-anchor="middle" x="542" y="-538.4" font-family="Times,serif" font-size="32.00">=prog 0</text>
</g>
<!-- prog&#45;&gt;v -->
<g id="edge25" class="edge">
<title>prog&#45;&gt;v</title>
<path fill="none" stroke="#000000" d="M924.45,-392.69C814.51,-396.3 559.37,-404.69 464.44,-407.8"/>
<polygon fill="#000000" stroke="#000000" points="464.08,-404.31 454.2,-408.14 464.31,-411.31 464.08,-404.31"/>
<text text-anchor="middle" x="669" y="-447.4" font-family="Times,serif" font-size="32.00">be</text>
<text text-anchor="middle" x="669" y="-412.4" font-family="Times,serif" font-size="32.00">=prog v</text>
</g>
<!-- prog&#45;&gt;perf -->
<g id="edge26" class="edge">
<title>prog&#45;&gt;perf</title>
<path fill="none" stroke="#000000" d="M934.36,-373C922.13,-366.21 909.5,-357.52 900,-347 886.94,-332.53 898.35,-317.62 882,-307 857.28,-290.94 780.5,-294.58 726.48,-299.56"/>
<polygon fill="#000000" stroke="#000000" points="725.96,-296.1 716.34,-300.54 726.63,-303.07 725.96,-296.1"/>
<text text-anchor="middle" x="814" y="-351.4" font-family="Times,serif" font-size="32.00">been</text>
<text text-anchor="middle" x="814" y="-316.4" font-family="Times,serif" font-size="32.00">=prog perf</text>
</g>
<!-- perf&#45;&gt;0 -->
<g id="edge22" class="edge">
<title>perf&#45;&gt;0</title>
<path fill="none" stroke="#000000" d="M628.45,-289.6C572.11,-268.64 466.04,-238.09 380,-265 331.62,-280.13 285.14,-316.96 257.07,-342.46"/>
<polygon fill="#000000" stroke="#000000" points="254.61,-339.96 249.65,-349.33 259.37,-345.1 254.61,-339.96"/>
<text text-anchor="middle" x="427" y="-344.4" font-family="Times,serif" font-size="32.00">has |</text>
<text text-anchor="middle" x="427" y="-309.4" font-family="Times,serif" font-size="32.00"> had</text>
<text text-anchor="middle" x="427" y="-274.4" font-family="Times,serif" font-size="32.00">=perf 0</text>
</g>
<!-- perf&#45;&gt;v -->
<g id="edge23" class="edge">
<title>perf&#45;&gt;v</title>
<path fill="none" stroke="#000000" d="M625.2,-293.18C586.55,-284.38 530.05,-278.8 492,-307 470.32,-323.07 488.21,-342.05 474,-365 469.58,-372.14 463.74,-378.91 457.7,-384.91"/>
<polygon fill="#000000" stroke="#000000" points="454.97,-382.68 450.05,-392.06 459.74,-387.79 454.97,-382.68"/>
<text text-anchor="middle" x="542" y="-351.4" font-family="Times,serif" font-size="32.00">have</text>
<text text-anchor="middle" x="542" y="-316.4" font-family="Times,serif" font-size="32.00">=perf v</text>
</g>
<!-- z2 -->
<g id="node12" class="node">
<title>z2</title>
<ellipse fill="none" stroke="black" stroke-dasharray="5,2" cx="1479" cy="-785" rx="27" ry="18"/>
</g>
<!-- z2&#45;&gt;1 -->
<g id="edge12" class="edge">
<title>z2&#45;&gt;1</title>
<path fill="none" stroke="#000000" d="M1451.99,-787.46C1418.27,-789.21 1359.36,-787.16 1322,-757 1301.58,-740.52 1290.54,-712.98 1284.63,-689.98"/>
<polygon fill="#000000" stroke="#000000" points="1288.01,-689.05 1282.33,-680.11 1281.19,-690.64 1288.01,-689.05"/>
<text text-anchor="middle" x="1378" y="-866.4" font-family="Times,serif" font-size="32.00">jump |</text>
<text text-anchor="middle" x="1378" y="-831.4" font-family="Times,serif" font-size="32.00"> laugh</text>
<text text-anchor="middle" x="1378" y="-796.4" font-family="Times,serif" font-size="32.00">1</text>
</g>
<!-- z3 -->
<g id="node13" class="node">
<title>z3</title>
<ellipse fill="none" stroke="black" stroke-dasharray="5,2" cx="1479" cy="-99" rx="27" ry="18"/>
</g>
<!-- z3&#45;&gt;3 -->
<g id="edge13" class="edge">
<title>z3&#45;&gt;3</title>
<path fill="none" stroke="#000000" d="M1454.49,-91.3C1421.19,-81.99 1360.1,-71.02 1322,-101 1301.49,-117.13 1288.86,-187.16 1282.66,-232.74"/>
<polygon fill="#000000" stroke="#000000" points="1279.16,-232.54 1281.33,-242.91 1286.1,-233.45 1279.16,-232.54"/>
<text text-anchor="middle" x="1378" y="-180.4" font-family="Times,serif" font-size="32.00">jump_1 |</text>
<text text-anchor="middle" x="1378" y="-145.4" font-family="Times,serif" font-size="32.00"> laugh_1</text>
<text text-anchor="middle" x="1378" y="-110.4" font-family="Times,serif" font-size="32.00">3</text>
</g>
<!-- 4&#45;&gt;1 -->
<g id="edge14" class="edge">
<title>4&#45;&gt;1</title>
<path fill="none" stroke="#000000" d="M1468.33,-627.37C1461.39,-642.94 1450.34,-660.9 1434,-670 1390.51,-694.21 1370.65,-680.54 1322,-670 1318.34,-669.21 1314.62,-668.08 1310.97,-666.77"/>
<polygon fill="#000000" stroke="#000000" points="1312.15,-663.47 1301.57,-662.93 1309.51,-669.95 1312.15,-663.47"/>
<text text-anchor="middle" x="1378" y="-727.4" font-family="Times,serif" font-size="32.00">ε_3</text>
<text text-anchor="middle" x="1378" y="-692.4" font-family="Times,serif" font-size="32.00">=&gt;4 1</text>
</g>
<!-- 4&#45;&gt;3 -->
<g id="edge16" class="edge">
<title>4&#45;&gt;3</title>
<path fill="none" stroke="#000000" d="M1451.75,-597.01C1409.7,-593.56 1331.03,-586 1322,-577 1285.77,-540.9 1279.13,-388.23 1278.08,-313.94"/>
<polygon fill="#000000" stroke="#000000" points="1281.57,-313.53 1277.96,-303.57 1274.57,-313.61 1281.57,-313.53"/>
<text text-anchor="middle" x="1378" y="-639.4" font-family="Times,serif" font-size="32.00">ε_4</text>
<text text-anchor="middle" x="1378" y="-604.4" font-family="Times,serif" font-size="32.00">=&gt;4 3</text>
</g>
<!-- 5&#45;&gt;1 -->
<g id="edge17" class="edge">
<title>5&#45;&gt;1</title>
<path fill="none" stroke="#000000" d="M1459.73,-370.84C1452.44,-378.27 1443.52,-385.96 1434,-391 1389,-414.81 1357.53,-378.54 1322,-415 1295.63,-442.06 1284.51,-549.5 1280.29,-609.29"/>
<polygon fill="#000000" stroke="#000000" points="1276.78,-609.31 1279.6,-619.52 1283.77,-609.78 1276.78,-609.31"/>
<text text-anchor="middle" x="1378" y="-459.4" font-family="Times,serif" font-size="32.00">g</text>
<text text-anchor="middle" x="1378" y="-424.4" font-family="Times,serif" font-size="32.00">=&gt;5 1</text>
</g>
<!-- 5&#45;&gt;3 -->
<g id="edge19" class="edge">
<title>5&#45;&gt;3</title>
<path fill="none" stroke="#000000" d="M1476.34,-318.56C1472.97,-289.87 1463.02,-248.33 1434,-228 1393.23,-199.44 1367.88,-208.69 1322,-228 1314.49,-231.16 1307.63,-236.29 1301.67,-241.98"/>
<polygon fill="#000000" stroke="#000000" points="1298.98,-239.73 1294.62,-249.38 1304.05,-244.56 1298.98,-239.73"/>
<text text-anchor="middle" x="1378" y="-272.4" font-family="Times,serif" font-size="32.00">gg</text>
<text text-anchor="middle" x="1378" y="-237.4" font-family="Times,serif" font-size="32.00">=&gt;5 3</text>
</g>
<!-- z4 -->
<g id="node16" class="node">
<title>z4</title>
<ellipse fill="none" stroke="black" stroke-dasharray="5,2" cx="1667" cy="-285" rx="27" ry="18"/>
</g>
<!-- z4&#45;&gt;5 -->
<g id="edge18" class="edge">
<title>z4&#45;&gt;5</title>
<path fill="none" stroke="#000000" d="M1641.51,-278.71C1611.84,-272.49 1561.2,-266.44 1524,-286 1512.65,-291.97 1503.63,-302.33 1496.77,-312.95"/>
<polygon fill="#000000" stroke="#000000" points="1493.6,-311.45 1491.53,-321.84 1499.62,-315.01 1493.6,-311.45"/>
<text text-anchor="middle" x="1573" y="-365.4" font-family="Times,serif" font-size="32.00">bra |</text>
<text text-anchor="middle" x="1573" y="-330.4" font-family="Times,serif" font-size="32.00"> jo</text>
<text text-anchor="middle" x="1573" y="-295.4" font-family="Times,serif" font-size="32.00">5</text>
</g>
</g>
</svg>
