<?xml version="1.0" encoding="UTF-8" standalone="no"?>
<!DOCTYPE svg PUBLIC "-//W3C//DTD SVG 1.1//EN"
 "http://www.w3.org/Graphics/SVG/1.1/DTD/svg11.dtd">
<!-- Generated by graphviz version 2.47.1 (20210417.1919)
 -->
<!-- Title: G Pages: 1 -->
<svg width="2142pt" height="1668pt"
 viewBox="0.00 0.00 2142.00 1668.00" xmlns="http://www.w3.org/2000/svg" xmlns:xlink="http://www.w3.org/1999/xlink">
<g id="graph0" class="graph" transform="scale(1 1) rotate(0) translate(4 1664)">
<title>G</title>
<polygon fill="white" stroke="transparent" points="-4,4 -4,-1664 2138,-1664 2138,4 -4,4"/>
<text text-anchor="middle" x="1067" y="-13.4" font-family="Times,serif" font-size="32.00">decomposition: danced =d perf, smiled =d perf, liked =d *k =d perf, destroyed =d *k =d perf, hugged =d *k =d perf, jumped =d perf, laughed =d perf, ed =&gt;1 =d perf</text>
<!-- t -->
<g id="node1" class="node">
<title>t</title>
<ellipse fill="lightgray" stroke="black" cx="216.5" cy="-725" rx="27" ry="30.31"/>
<text text-anchor="middle" x="216.5" y="-716.9" font-family="Times,serif" font-size="32.00">t</text>
</g>
<!-- z0 -->
<g id="node2" class="node">
<title>z0</title>
<ellipse fill="none" stroke="black" stroke-dasharray="5,2" cx="1917.5" cy="-808" rx="27" ry="18"/>
</g>
<!-- d -->
<g id="node3" class="node">
<title>d</title>
<ellipse fill="none" stroke="black" cx="1757.5" cy="-808" rx="27" ry="30.31"/>
<text text-anchor="middle" x="1757.5" y="-799.9" font-family="Times,serif" font-size="32.00">d</text>
</g>
<!-- z0&#45;&gt;d -->
<g id="edge1" class="edge">
<title>z0&#45;&gt;d</title>
<path fill="none" stroke="#000000" d="M1890.41,-808C1864.34,-808 1824.03,-808 1794.84,-808"/>
<polygon fill="#000000" stroke="#000000" points="1794.63,-804.5 1784.63,-808 1794.63,-811.5 1794.63,-804.5"/>
<text text-anchor="middle" x="1837.5" y="-852.4" font-family="Times,serif" font-size="32.00">Mary</text>
<text text-anchor="middle" x="1837.5" y="-817.4" font-family="Times,serif" font-size="32.00">d &#45;k</text>
</g>
<!-- 0 -->
<g id="node4" class="node">
<title>0</title>
<ellipse fill="none" stroke="black" cx="1454.5" cy="-1392" rx="27" ry="30.31"/>
<text text-anchor="middle" x="1454.5" y="-1383.9" font-family="Times,serif" font-size="32.00">0</text>
</g>
<!-- d&#45;&gt;0 -->
<g id="edge10" class="edge">
<title>d&#45;&gt;0</title>
<path fill="none" stroke="#000000" d="M1755.47,-838.64C1752.06,-931.68 1739.75,-1206.34 1712.5,-1235 1666.33,-1283.56 1621.56,-1224.54 1563.5,-1258 1523.21,-1281.22 1491.99,-1325.73 1473.7,-1357.07"/>
<polygon fill="#000000" stroke="#000000" points="1470.57,-1355.51 1468.67,-1365.93 1476.65,-1358.96 1470.57,-1355.51"/>
<text text-anchor="middle" x="1638" y="-1372.4" font-family="Times,serif" font-size="32.00">like |</text>
<text text-anchor="middle" x="1638" y="-1337.4" font-family="Times,serif" font-size="32.00"> destroy |</text>
<text text-anchor="middle" x="1638" y="-1302.4" font-family="Times,serif" font-size="32.00"> hug</text>
<text text-anchor="middle" x="1638" y="-1267.4" font-family="Times,serif" font-size="32.00">=d *k 0</text>
</g>
<!-- 1 -->
<g id="node6" class="node">
<title>1</title>
<ellipse fill="none" stroke="black" cx="1454.5" cy="-547" rx="27" ry="30.31"/>
<text text-anchor="middle" x="1454.5" y="-538.9" font-family="Times,serif" font-size="32.00">1</text>
</g>
<!-- d&#45;&gt;1 -->
<g id="edge11" class="edge">
<title>d&#45;&gt;1</title>
<path fill="none" stroke="#000000" d="M1754.7,-777.68C1749.78,-699.83 1734.92,-497.63 1712.5,-478 1662.68,-434.38 1622.44,-447.81 1563.5,-478 1551.31,-484.24 1555.97,-494.17 1545.5,-503 1529.24,-516.72 1507.96,-527.38 1490.18,-534.76"/>
<polygon fill="#000000" stroke="#000000" points="1488.71,-531.58 1480.72,-538.53 1491.3,-538.08 1488.71,-531.58"/>
<text text-anchor="middle" x="1638" y="-592.4" font-family="Times,serif" font-size="32.00">lik |</text>
<text text-anchor="middle" x="1638" y="-557.4" font-family="Times,serif" font-size="32.00"> destroy_1 |</text>
<text text-anchor="middle" x="1638" y="-522.4" font-family="Times,serif" font-size="32.00"> hugg</text>
<text text-anchor="middle" x="1638" y="-487.4" font-family="Times,serif" font-size="32.00">=d *k 1</text>
</g>
<!-- v -->
<g id="node8" class="node">
<title>v</title>
<ellipse fill="none" stroke="black" cx="438" cy="-845" rx="27" ry="30.31"/>
<text text-anchor="middle" x="438" y="-836.9" font-family="Times,serif" font-size="32.00">v</text>
</g>
<!-- d&#45;&gt;v -->
<g id="edge6" class="edge">
<title>d&#45;&gt;v</title>
<path fill="none" stroke="#000000" d="M1738.79,-830.09C1705.74,-869.31 1630.32,-949.81 1545.5,-980 1469.29,-1007.12 1444.25,-984.72 1363.5,-980 1275.94,-974.88 1254.64,-966.97 1167.5,-957 948.46,-931.93 891.63,-940.23 674.5,-902 602.67,-889.35 520.11,-867.69 474.3,-855.03"/>
<polygon fill="#000000" stroke="#000000" points="475.14,-851.62 464.56,-852.31 473.26,-858.37 475.14,-851.62"/>
<text text-anchor="middle" x="1093" y="-1176.4" font-family="Times,serif" font-size="32.00">dance_1 |</text>
<text text-anchor="middle" x="1093" y="-1141.4" font-family="Times,serif" font-size="32.00"> smile_1 |</text>
<text text-anchor="middle" x="1093" y="-1106.4" font-family="Times,serif" font-size="32.00"> jump_2 |</text>
<text text-anchor="middle" x="1093" y="-1071.4" font-family="Times,serif" font-size="32.00"> laugh_2 |</text>
<text text-anchor="middle" x="1093" y="-1036.4" font-family="Times,serif" font-size="32.00"> brag_1 |</text>
<text text-anchor="middle" x="1093" y="-1001.4" font-family="Times,serif" font-size="32.00"> jog_1</text>
<text text-anchor="middle" x="1093" y="-966.4" font-family="Times,serif" font-size="32.00">=d v</text>
</g>
<!-- d&#45;&gt;v -->
<g id="edge12" class="edge">
<title>d&#45;&gt;v</title>
<path fill="none" stroke="#000000" d="M1750.33,-837.58C1728.62,-932.62 1646.49,-1224 1455.5,-1224 1455.5,-1224 1455.5,-1224 750.5,-1224 575.49,-1224 480.74,-979.83 450.16,-883.46"/>
<polygon fill="#000000" stroke="#000000" points="453.47,-882.31 447.15,-873.8 446.78,-884.39 453.47,-882.31"/>
<text text-anchor="middle" x="1093" y="-1338.4" font-family="Times,serif" font-size="32.00">like_1 |</text>
<text text-anchor="middle" x="1093" y="-1303.4" font-family="Times,serif" font-size="32.00"> destroy_2 |</text>
<text text-anchor="middle" x="1093" y="-1268.4" font-family="Times,serif" font-size="32.00"> hug_1</text>
<text text-anchor="middle" x="1093" y="-1233.4" font-family="Times,serif" font-size="32.00">=d *k =d v</text>
</g>
<!-- prog -->
<g id="node9" class="node">
<title>prog</title>
<ellipse fill="none" stroke="black" cx="1093" cy="-681" rx="52.15" ry="30.31"/>
<text text-anchor="middle" x="1093" y="-672.9" font-family="Times,serif" font-size="32.00">prog</text>
</g>
<!-- d&#45;&gt;prog -->
<g id="edge7" class="edge">
<title>d&#45;&gt;prog</title>
<path fill="none" stroke="#000000" d="M1730.42,-808.18C1666.89,-808.12 1499.41,-804.98 1363.5,-776 1284.77,-759.21 1197.58,-725.54 1144.28,-703.13"/>
<polygon fill="#000000" stroke="#000000" points="1145.62,-699.9 1135.05,-699.23 1142.89,-706.35 1145.62,-699.9"/>
<text text-anchor="middle" x="1454.5" y="-950.4" font-family="Times,serif" font-size="32.00">dancing |</text>
<text text-anchor="middle" x="1454.5" y="-915.4" font-family="Times,serif" font-size="32.00"> smiling |</text>
<text text-anchor="middle" x="1454.5" y="-880.4" font-family="Times,serif" font-size="32.00"> jumping |</text>
<text text-anchor="middle" x="1454.5" y="-845.4" font-family="Times,serif" font-size="32.00"> laughing</text>
<text text-anchor="middle" x="1454.5" y="-810.4" font-family="Times,serif" font-size="32.00">=d prog</text>
</g>
<!-- d&#45;&gt;prog -->
<g id="edge13" class="edge">
<title>d&#45;&gt;prog</title>
<path fill="none" stroke="#000000" d="M1738.91,-785.41C1706.06,-745.3 1630.94,-662.96 1545.5,-632 1469.45,-604.45 1444.06,-624.74 1363.5,-632 1289.71,-638.65 1205.91,-655.36 1151.62,-667.41"/>
<polygon fill="#000000" stroke="#000000" points="1150.83,-664.01 1141.84,-669.61 1152.36,-670.84 1150.83,-664.01"/>
<text text-anchor="middle" x="1454.5" y="-746.4" font-family="Times,serif" font-size="32.00">liking |</text>
<text text-anchor="middle" x="1454.5" y="-711.4" font-family="Times,serif" font-size="32.00"> destroying |</text>
<text text-anchor="middle" x="1454.5" y="-676.4" font-family="Times,serif" font-size="32.00"> hugging</text>
<text text-anchor="middle" x="1454.5" y="-641.4" font-family="Times,serif" font-size="32.00">=d *k =d prog</text>
</g>
<!-- 2 -->
<g id="node10" class="node">
<title>2</title>
<ellipse fill="none" stroke="black" cx="1093" cy="-385" rx="27" ry="30.31"/>
<text text-anchor="middle" x="1093" y="-376.9" font-family="Times,serif" font-size="32.00">2</text>
</g>
<!-- d&#45;&gt;2 -->
<g id="edge14" class="edge">
<title>d&#45;&gt;2</title>
<path fill="none" stroke="#f7931d" stroke-width="2" d="M1756.47,-777.54C1755.83,-700.38 1750.46,-499.61 1712.5,-447 1664.45,-380.42 1625.61,-385.99 1545.5,-368 1389.36,-332.93 1345.09,-363.16 1185.5,-375 1167.16,-376.36 1146.81,-378.52 1129.97,-380.48"/>
<polygon fill="#f7931d" stroke="#f7931d" stroke-width="2" points="1129.5,-377.02 1119.99,-381.67 1130.33,-383.97 1129.5,-377.02"/>
<text text-anchor="middle" x="1454.5" y="-482.4" font-family="Times,serif" font-size="32.00">lik_1 |</text>
<text text-anchor="middle" x="1454.5" y="-447.4" font-family="Times,serif" font-size="32.00"> destroy_3 |</text>
<text text-anchor="middle" x="1454.5" y="-412.4" font-family="Times,serif" font-size="32.00"> hugg_1</text>
<text text-anchor="middle" x="1454.5" y="-377.4" font-family="Times,serif" font-size="32.00">=d *k 2</text>
</g>
<!-- 0&#45;&gt;t -->
<g id="edge2" class="edge">
<title>0&#45;&gt;t</title>
<path fill="none" stroke="#000000" d="M1427.34,-1392C1368.03,-1392 1218.83,-1392 1094,-1392 1094,-1392 1094,-1392 437,-1392 304.39,-1392 238.65,-910.29 221.89,-765.61"/>
<polygon fill="#000000" stroke="#000000" points="225.34,-764.93 220.73,-755.39 218.38,-765.73 225.34,-764.93"/>
<text text-anchor="middle" x="751.5" y="-1436.4" font-family="Times,serif" font-size="32.00">s</text>
<text text-anchor="middle" x="751.5" y="-1401.4" font-family="Times,serif" font-size="32.00">=&gt;0 =d +k t</text>
</g>
<!-- z1 -->
<g id="node5" class="node">
<title>z1</title>
<ellipse fill="none" stroke="black" stroke-dasharray="5,2" cx="1757.5" cy="-1420" rx="27" ry="18"/>
</g>
<!-- z1&#45;&gt;0 -->
<g id="edge3" class="edge">
<title>z1&#45;&gt;0</title>
<path fill="none" stroke="#000000" d="M1730.58,-1417.59C1676.79,-1412.59 1552.97,-1401.07 1491.49,-1395.35"/>
<polygon fill="#000000" stroke="#000000" points="1491.75,-1391.86 1481.47,-1394.42 1491.1,-1398.83 1491.75,-1391.86"/>
<text text-anchor="middle" x="1638" y="-1634.4" font-family="Times,serif" font-size="32.00">dance |</text>
<text text-anchor="middle" x="1638" y="-1599.4" font-family="Times,serif" font-size="32.00"> smile |</text>
<text text-anchor="middle" x="1638" y="-1564.4" font-family="Times,serif" font-size="32.00"> jump |</text>
<text text-anchor="middle" x="1638" y="-1529.4" font-family="Times,serif" font-size="32.00"> laugh |</text>
<text text-anchor="middle" x="1638" y="-1494.4" font-family="Times,serif" font-size="32.00"> brag |</text>
<text text-anchor="middle" x="1638" y="-1459.4" font-family="Times,serif" font-size="32.00"> jog</text>
<text text-anchor="middle" x="1638" y="-1424.4" font-family="Times,serif" font-size="32.00">0</text>
</g>
<!-- 1&#45;&gt;t -->
<g id="edge4" class="edge">
<title>1&#45;&gt;t</title>
<path fill="none" stroke="#000000" d="M1427.41,-542.95C1368.26,-534.14 1219.35,-514 1094,-514 1094,-514 1094,-514 437,-514 348.09,-514 319.98,-543.03 261.5,-610 242.86,-631.34 231.73,-661.42 225.32,-685.46"/>
<polygon fill="#000000" stroke="#000000" points="221.88,-684.8 222.86,-695.35 228.67,-686.49 221.88,-684.8"/>
<text text-anchor="middle" x="751.5" y="-558.4" font-family="Times,serif" font-size="32.00">ed</text>
<text text-anchor="middle" x="751.5" y="-523.4" font-family="Times,serif" font-size="32.00">=&gt;1 =d +k t</text>
</g>
<!-- 1&#45;&gt;prog -->
<g id="edge15" class="edge">
<title>1&#45;&gt;prog</title>
<path fill="none" stroke="#000000" d="M1427.43,-544.09C1368.48,-538 1226.85,-526.16 1185.5,-548 1148.22,-567.69 1123.16,-610.17 1108.83,-641.85"/>
<polygon fill="#000000" stroke="#000000" points="1105.5,-640.73 1104.72,-651.3 1111.92,-643.52 1105.5,-640.73"/>
<text text-anchor="middle" x="1265.5" y="-592.4" font-family="Times,serif" font-size="32.00">ing</text>
<text text-anchor="middle" x="1265.5" y="-557.4" font-family="Times,serif" font-size="32.00">=&gt;1 =d prog</text>
</g>
<!-- 1&#45;&gt;2 -->
<g id="edge16" class="edge">
<title>1&#45;&gt;2</title>
<path fill="none" stroke="#f7931d" stroke-width="2" d="M1428,-540.94C1407.59,-534.76 1379.77,-523.17 1363.5,-503 1342.52,-476.99 1369.88,-452.85 1345.5,-430 1286.64,-374.83 1184.47,-375.34 1130.24,-380.26"/>
<polygon fill="#f7931d" stroke="#f7931d" stroke-width="2" points="1129.66,-376.8 1120.06,-381.28 1130.36,-383.76 1129.66,-376.8"/>
<text text-anchor="middle" x="1265.5" y="-474.4" font-family="Times,serif" font-size="32.00">ε_0</text>
<text text-anchor="middle" x="1265.5" y="-439.4" font-family="Times,serif" font-size="32.00">=&gt;1 2</text>
</g>
<!-- z2 -->
<g id="node7" class="node">
<title>z2</title>
<ellipse fill="none" stroke="black" stroke-dasharray="5,2" cx="1757.5" cy="-99" rx="27" ry="18"/>
</g>
<!-- z2&#45;&gt;1 -->
<g id="edge5" class="edge">
<title>z2&#45;&gt;1</title>
<path fill="none" stroke="#000000" d="M1731.38,-104.14C1688.52,-114.37 1602.14,-141.73 1563.5,-202 1527.33,-258.41 1582.66,-447.24 1545.5,-503 1533.1,-521.61 1510.45,-532.63 1490.97,-538.98"/>
<polygon fill="#000000" stroke="#000000" points="1489.74,-535.69 1481.15,-541.89 1491.73,-542.41 1489.74,-535.69"/>
<text text-anchor="middle" x="1638" y="-421.4" font-family="Times,serif" font-size="32.00">danc |</text>
<text text-anchor="middle" x="1638" y="-386.4" font-family="Times,serif" font-size="32.00"> smil |</text>
<text text-anchor="middle" x="1638" y="-351.4" font-family="Times,serif" font-size="32.00"> jump_1 |</text>
<text text-anchor="middle" x="1638" y="-316.4" font-family="Times,serif" font-size="32.00"> laugh_1 |</text>
<text text-anchor="middle" x="1638" y="-281.4" font-family="Times,serif" font-size="32.00"> bragg |</text>
<text text-anchor="middle" x="1638" y="-246.4" font-family="Times,serif" font-size="32.00"> jogg</text>
<text text-anchor="middle" x="1638" y="-211.4" font-family="Times,serif" font-size="32.00">1</text>
</g>
<!-- v&#45;&gt;t -->
<g id="edge17" class="edge">
<title>v&#45;&gt;t</title>
<path fill="none" stroke="#000000" d="M413.51,-832.16C374.17,-810.65 294.89,-767.31 250.15,-742.85"/>
<polygon fill="#000000" stroke="#000000" points="251.61,-739.66 241.15,-737.93 248.25,-745.8 251.61,-739.66"/>
<text text-anchor="middle" x="308.5" y="-879.4" font-family="Times,serif" font-size="32.00">will |</text>
<text text-anchor="middle" x="308.5" y="-844.4" font-family="Times,serif" font-size="32.00"> would</text>
<text text-anchor="middle" x="308.5" y="-809.4" font-family="Times,serif" font-size="32.00">=v +k t</text>
</g>
<!-- prog&#45;&gt;t -->
<g id="edge20" class="edge">
<title>prog&#45;&gt;t</title>
<path fill="none" stroke="#000000" d="M1049.38,-697.9C1034.2,-703.13 1016.82,-708.24 1000.5,-711 963.35,-717.28 403.41,-723.18 253.94,-724.65"/>
<polygon fill="#000000" stroke="#000000" points="253.87,-721.15 243.9,-724.75 253.94,-728.15 253.87,-721.15"/>
<text text-anchor="middle" x="588.5" y="-801.4" font-family="Times,serif" font-size="32.00">is |</text>
<text text-anchor="middle" x="588.5" y="-766.4" font-family="Times,serif" font-size="32.00"> was</text>
<text text-anchor="middle" x="588.5" y="-731.4" font-family="Times,serif" font-size="32.00">=prog +k t</text>
</g>
<!-- prog&#45;&gt;v -->
<g id="edge21" class="edge">
<title>prog&#45;&gt;v</title>
<path fill="none" stroke="#000000" d="M1059.89,-704.75C1042.92,-716.41 1021.34,-729.86 1000.5,-739 855.55,-802.54 812.67,-805.35 656.5,-831 593.38,-841.37 518.77,-844.15 475.38,-844.84"/>
<polygon fill="#000000" stroke="#000000" points="475.26,-841.34 465.3,-844.97 475.35,-848.34 475.26,-841.34"/>
<text text-anchor="middle" x="751.5" y="-872.4" font-family="Times,serif" font-size="32.00">be</text>
<text text-anchor="middle" x="751.5" y="-837.4" font-family="Times,serif" font-size="32.00">=prog v</text>
</g>
<!-- perf -->
<g id="node11" class="node">
<title>perf</title>
<ellipse fill="none" stroke="black" cx="751.5" cy="-632" rx="48.17" ry="30.31"/>
<text text-anchor="middle" x="751.5" y="-623.9" font-family="Times,serif" font-size="32.00">perf</text>
</g>
<!-- prog&#45;&gt;perf -->
<g id="edge22" class="edge">
<title>prog&#45;&gt;perf</title>
<path fill="none" stroke="#000000" d="M1053.92,-660.52C1037.89,-652.93 1018.76,-645.16 1000.5,-641 936.25,-626.35 860.24,-625.99 809.46,-628.08"/>
<polygon fill="#000000" stroke="#000000" points="809.17,-624.59 799.34,-628.54 809.49,-631.58 809.17,-624.59"/>
<text text-anchor="middle" x="923.5" y="-685.4" font-family="Times,serif" font-size="32.00">been</text>
<text text-anchor="middle" x="923.5" y="-650.4" font-family="Times,serif" font-size="32.00">=prog perf</text>
</g>
<!-- 2&#45;&gt;perf -->
<g id="edge8" class="edge">
<title>2&#45;&gt;perf</title>
<path fill="none" stroke="#f7931d" stroke-width="2" d="M1067.89,-396.56C1020.37,-420.33 913.42,-478.83 846.5,-554 835.13,-566.77 840.36,-575.68 828.5,-588 820.4,-596.41 810.35,-603.73 800.24,-609.85"/>
<polygon fill="#f7931d" stroke="#f7931d" stroke-width="2" points="798.32,-606.91 791.38,-614.92 801.8,-612.99 798.32,-606.91"/>
<text text-anchor="middle" x="923.5" y="-598.4" font-family="Times,serif" font-size="32.00">ed_1</text>
<text text-anchor="middle" x="923.5" y="-563.4" font-family="Times,serif" font-size="32.00">=&gt;2 =d perf</text>
</g>
<!-- perf&#45;&gt;t -->
<g id="edge18" class="edge">
<title>perf&#45;&gt;t</title>
<path fill="none" stroke="#000000" d="M708.15,-618.71C636.92,-598.62 489.57,-566.78 373.5,-606 320.77,-623.82 271.8,-667.37 243.27,-696.55"/>
<polygon fill="#000000" stroke="#000000" points="240.52,-694.36 236.12,-704 245.57,-699.2 240.52,-694.36"/>
<text text-anchor="middle" x="438" y="-685.4" font-family="Times,serif" font-size="32.00">has |</text>
<text text-anchor="middle" x="438" y="-650.4" font-family="Times,serif" font-size="32.00"> had</text>
<text text-anchor="middle" x="438" y="-615.4" font-family="Times,serif" font-size="32.00">=perf +k t</text>
</g>
<!-- perf&#45;&gt;v -->
<g id="edge19" class="edge">
<title>perf&#45;&gt;v</title>
<path fill="none" stroke="#000000" d="M704.29,-625.82C645.47,-619.01 548.14,-611.63 520.5,-633 495.77,-652.12 512.84,-671.5 502.5,-701 489.19,-738.99 470.16,-780.95 456.41,-809.73"/>
<polygon fill="#000000" stroke="#000000" points="453.15,-808.43 451.97,-818.96 459.46,-811.47 453.15,-808.43"/>
<text text-anchor="middle" x="588.5" y="-677.4" font-family="Times,serif" font-size="32.00">have</text>
<text text-anchor="middle" x="588.5" y="-642.4" font-family="Times,serif" font-size="32.00">=perf v</text>
</g>
<!-- z3 -->
<g id="node12" class="node">
<title>z3</title>
<ellipse fill="none" stroke="black" stroke-dasharray="5,2" cx="1454.5" cy="-169" rx="27" ry="18"/>
</g>
<!-- z3&#45;&gt;2 -->
<g id="edge9" class="edge">
<title>z3&#45;&gt;2</title>
<path fill="none" stroke="#f7931d" stroke-width="2" d="M1429.91,-161.17C1380,-146.18 1262.06,-119.17 1185.5,-170 1126.85,-208.94 1105.67,-293.89 1098.11,-344.57"/>
<polygon fill="#f7931d" stroke="#f7931d" stroke-width="2" points="1094.63,-344.15 1096.73,-354.53 1101.57,-345.11 1094.63,-344.15"/>
<text text-anchor="middle" x="1265.5" y="-319.4" font-family="Times,serif" font-size="32.00">danc_1 |</text>
<text text-anchor="middle" x="1265.5" y="-284.4" font-family="Times,serif" font-size="32.00"> smil_1 |</text>
<text text-anchor="middle" x="1265.5" y="-249.4" font-family="Times,serif" font-size="32.00"> jump_3 |</text>
<text text-anchor="middle" x="1265.5" y="-214.4" font-family="Times,serif" font-size="32.00"> laugh_3</text>
<text text-anchor="middle" x="1265.5" y="-179.4" font-family="Times,serif" font-size="32.00">2</text>
</g>
</g>
</svg>
