<?xml version="1.0" encoding="UTF-8" standalone="no"?>
<!DOCTYPE svg PUBLIC "-//W3C//DTD SVG 1.1//EN"
 "http://www.w3.org/Graphics/SVG/1.1/DTD/svg11.dtd">
<!-- Generated by graphviz version 2.47.1 (20210417.1919)
 -->
<!-- Title: G Pages: 1 -->
<svg width="1750pt" height="1479pt"
 viewBox="0.00 0.00 1750.00 1478.78" xmlns="http://www.w3.org/2000/svg" xmlns:xlink="http://www.w3.org/1999/xlink">
<g id="graph0" class="graph" transform="scale(1 1) rotate(0) translate(4 1474.78)">
<title>G</title>
<polygon fill="white" stroke="transparent" points="-4,4 -4,-1474.78 1746,-1474.78 1746,4 -4,4"/>
<text text-anchor="middle" x="871" y="-13.4" font-family="Times,serif" font-size="32.00">single contraction: 1 → 2</text>
<!-- t -->
<g id="node1" class="node">
<title>t</title>
<ellipse fill="lightgray" stroke="black" cx="27" cy="-969.78" rx="27" ry="30.31"/>
<text text-anchor="middle" x="27" y="-961.68" font-family="Times,serif" font-size="32.00">t</text>
</g>
<!-- z0 -->
<g id="node2" class="node">
<title>z0</title>
<ellipse fill="none" stroke="black" stroke-dasharray="5,2" cx="1715" cy="-803.78" rx="27" ry="18"/>
</g>
<!-- d -->
<g id="node3" class="node">
<title>d</title>
<ellipse fill="none" stroke="black" cx="1555" cy="-803.78" rx="27" ry="30.31"/>
<text text-anchor="middle" x="1555" y="-795.68" font-family="Times,serif" font-size="32.00">d</text>
</g>
<!-- z0&#45;&gt;d -->
<g id="edge1" class="edge">
<title>z0&#45;&gt;d</title>
<path fill="none" stroke="#000000" d="M1687.91,-803.78C1661.84,-803.78 1621.53,-803.78 1592.34,-803.78"/>
<polygon fill="#000000" stroke="#000000" points="1592.13,-800.28 1582.13,-803.78 1592.13,-807.28 1592.13,-800.28"/>
<text text-anchor="middle" x="1635" y="-848.18" font-family="Times,serif" font-size="32.00">Mary</text>
<text text-anchor="middle" x="1635" y="-813.18" font-family="Times,serif" font-size="32.00">d &#45;k</text>
</g>
<!-- 0 -->
<g id="node4" class="node">
<title>0</title>
<ellipse fill="none" stroke="black" cx="1252" cy="-369.78" rx="27" ry="30.31"/>
<text text-anchor="middle" x="1252" y="-361.68" font-family="Times,serif" font-size="32.00">0</text>
</g>
<!-- d&#45;&gt;0 -->
<g id="edge9" class="edge">
<title>d&#45;&gt;0</title>
<path fill="none" stroke="#000000" d="M1553.21,-773.19C1550.45,-678.95 1539.77,-397.78 1510,-370.78 1478.6,-342.3 1352.23,-355.54 1289.17,-364.27"/>
<polygon fill="#000000" stroke="#000000" points="1288.3,-360.85 1278.89,-365.72 1289.28,-367.78 1288.3,-360.85"/>
<text text-anchor="middle" x="1435.5" y="-485.18" font-family="Times,serif" font-size="32.00">like |</text>
<text text-anchor="middle" x="1435.5" y="-450.18" font-family="Times,serif" font-size="32.00"> destroy |</text>
<text text-anchor="middle" x="1435.5" y="-415.18" font-family="Times,serif" font-size="32.00"> hug</text>
<text text-anchor="middle" x="1435.5" y="-380.18" font-family="Times,serif" font-size="32.00">=d *k 0</text>
</g>
<!-- 1 -->
<g id="node6" class="node">
<title>1</title>
<ellipse fill="none" stroke="black" cx="1252" cy="-1225.78" rx="27" ry="30.31"/>
<text text-anchor="middle" x="1252" y="-1217.68" font-family="Times,serif" font-size="32.00">1</text>
</g>
<!-- d&#45;&gt;1 -->
<g id="edge10" class="edge">
<title>d&#45;&gt;1</title>
<path fill="none" stroke="#000000" d="M1551.16,-834.22C1545.75,-886.18 1532.48,-989.07 1510,-1016.78 1464.48,-1072.89 1405.8,-1025.09 1361,-1081.78 1333,-1117.21 1370.22,-1145.75 1343,-1181.78 1329.7,-1199.38 1307.47,-1210.35 1288.44,-1216.93"/>
<polygon fill="#000000" stroke="#000000" points="1287.31,-1213.61 1278.84,-1219.98 1289.43,-1220.28 1287.31,-1213.61"/>
<text text-anchor="middle" x="1435.5" y="-1196.18" font-family="Times,serif" font-size="32.00">lik |</text>
<text text-anchor="middle" x="1435.5" y="-1161.18" font-family="Times,serif" font-size="32.00"> destroy_1 |</text>
<text text-anchor="middle" x="1435.5" y="-1126.18" font-family="Times,serif" font-size="32.00"> hugg</text>
<text text-anchor="middle" x="1435.5" y="-1091.18" font-family="Times,serif" font-size="32.00">=d *k 1</text>
</g>
<!-- v -->
<g id="node8" class="node">
<title>v</title>
<ellipse fill="none" stroke="black" cx="248.5" cy="-849.78" rx="27" ry="30.31"/>
<text text-anchor="middle" x="248.5" y="-841.68" font-family="Times,serif" font-size="32.00">v</text>
</g>
<!-- d&#45;&gt;v -->
<g id="edge6" class="edge">
<title>d&#45;&gt;v</title>
<path fill="none" stroke="#000000" d="M1541.48,-777.28C1506.52,-707.64 1400.67,-524.78 1253,-524.78 1253,-524.78 1253,-524.78 561,-524.78 402.96,-524.78 300.24,-727.54 264.05,-812.76"/>
<polygon fill="#000000" stroke="#000000" points="260.78,-811.49 260.16,-822.07 267.24,-814.19 260.78,-811.49"/>
<text text-anchor="middle" x="888" y="-744.18" font-family="Times,serif" font-size="32.00">dance_1 |</text>
<text text-anchor="middle" x="888" y="-709.18" font-family="Times,serif" font-size="32.00"> smile_1 |</text>
<text text-anchor="middle" x="888" y="-674.18" font-family="Times,serif" font-size="32.00"> jump_2 |</text>
<text text-anchor="middle" x="888" y="-639.18" font-family="Times,serif" font-size="32.00"> laugh_2 |</text>
<text text-anchor="middle" x="888" y="-604.18" font-family="Times,serif" font-size="32.00"> brag_1 |</text>
<text text-anchor="middle" x="888" y="-569.18" font-family="Times,serif" font-size="32.00"> jog_1</text>
<text text-anchor="middle" x="888" y="-534.18" font-family="Times,serif" font-size="32.00">=d v</text>
</g>
<!-- d&#45;&gt;v -->
<g id="edge11" class="edge">
<title>d&#45;&gt;v</title>
<path fill="none" stroke="#000000" d="M1528.54,-797.66C1522.5,-796.47 1516.05,-795.39 1510,-794.78 1355.68,-779.16 1316.06,-790.95 1161,-794.78 791.77,-803.89 698.12,-795.33 331,-835.78 315.96,-837.44 299.48,-840.1 285.31,-842.66"/>
<polygon fill="#000000" stroke="#000000" points="284.64,-839.23 275.45,-844.5 285.92,-846.11 284.64,-839.23"/>
<text text-anchor="middle" x="888" y="-915.18" font-family="Times,serif" font-size="32.00">like_1 |</text>
<text text-anchor="middle" x="888" y="-880.18" font-family="Times,serif" font-size="32.00"> destroy_2 |</text>
<text text-anchor="middle" x="888" y="-845.18" font-family="Times,serif" font-size="32.00"> hug_1</text>
<text text-anchor="middle" x="888" y="-810.18" font-family="Times,serif" font-size="32.00">=d *k =d v</text>
</g>
<!-- prog -->
<g id="node9" class="node">
<title>prog</title>
<ellipse fill="none" stroke="black" cx="888" cy="-998.78" rx="52.15" ry="30.31"/>
<text text-anchor="middle" x="888" y="-990.68" font-family="Times,serif" font-size="32.00">prog</text>
</g>
<!-- d&#45;&gt;prog -->
<g id="edge7" class="edge">
<title>d&#45;&gt;prog</title>
<path fill="none" stroke="#000000" d="M1535.71,-825.09C1502.04,-862.6 1426.02,-939.38 1343,-970.78 1209.78,-1021.16 1038.93,-1014.45 949.59,-1006.08"/>
<polygon fill="#000000" stroke="#000000" points="949.67,-1002.57 939.37,-1005.09 948.99,-1009.54 949.67,-1002.57"/>
<text text-anchor="middle" x="1252" y="-1157.18" font-family="Times,serif" font-size="32.00">dancing |</text>
<text text-anchor="middle" x="1252" y="-1122.18" font-family="Times,serif" font-size="32.00"> smiling |</text>
<text text-anchor="middle" x="1252" y="-1087.18" font-family="Times,serif" font-size="32.00"> jumping |</text>
<text text-anchor="middle" x="1252" y="-1052.18" font-family="Times,serif" font-size="32.00"> laughing</text>
<text text-anchor="middle" x="1252" y="-1017.18" font-family="Times,serif" font-size="32.00">=d prog</text>
</g>
<!-- d&#45;&gt;prog -->
<g id="edge12" class="edge">
<title>d&#45;&gt;prog</title>
<path fill="none" stroke="#000000" d="M1527.9,-800.91C1463.64,-794.78 1293.4,-784.2 1161,-826.78 1154.68,-828.81 1007.87,-922.6 932.63,-970.8"/>
<polygon fill="#000000" stroke="#000000" points="930.35,-968.1 923.82,-976.44 934.13,-974 930.35,-968.1"/>
<text text-anchor="middle" x="1252" y="-941.18" font-family="Times,serif" font-size="32.00">liking |</text>
<text text-anchor="middle" x="1252" y="-906.18" font-family="Times,serif" font-size="32.00"> destroying |</text>
<text text-anchor="middle" x="1252" y="-871.18" font-family="Times,serif" font-size="32.00"> hugging</text>
<text text-anchor="middle" x="1252" y="-836.18" font-family="Times,serif" font-size="32.00">=d *k =d prog</text>
</g>
<!-- 0&#45;&gt;t -->
<g id="edge2" class="edge">
<title>0&#45;&gt;t</title>
<path fill="none" stroke="#000000" d="M1225.16,-373.28C1165.86,-380.99 1015.41,-398.78 889,-398.78 889,-398.78 889,-398.78 247.5,-398.78 133.5,-398.78 56.33,-800.35 34.4,-929.96"/>
<polygon fill="#000000" stroke="#000000" points="30.94,-929.44 32.74,-939.88 37.84,-930.6 30.94,-929.44"/>
<text text-anchor="middle" x="562" y="-443.18" font-family="Times,serif" font-size="32.00">s</text>
<text text-anchor="middle" x="562" y="-408.18" font-family="Times,serif" font-size="32.00">=&gt;0 =d +k t</text>
</g>
<!-- z1 -->
<g id="node5" class="node">
<title>z1</title>
<ellipse fill="none" stroke="black" stroke-dasharray="5,2" cx="1555" cy="-101.78" rx="27" ry="18"/>
</g>
<!-- z1&#45;&gt;0 -->
<g id="edge3" class="edge">
<title>z1&#45;&gt;0</title>
<path fill="none" stroke="#000000" d="M1530.49,-94.21C1491.52,-83.21 1412.72,-67.71 1361,-102.78 1285.3,-154.11 1262.64,-268.4 1255.87,-329.47"/>
<polygon fill="#000000" stroke="#000000" points="1252.38,-329.21 1254.85,-339.51 1259.34,-329.92 1252.38,-329.21"/>
<text text-anchor="middle" x="1435.5" y="-322.18" font-family="Times,serif" font-size="32.00">dance |</text>
<text text-anchor="middle" x="1435.5" y="-287.18" font-family="Times,serif" font-size="32.00"> smile |</text>
<text text-anchor="middle" x="1435.5" y="-252.18" font-family="Times,serif" font-size="32.00"> jump |</text>
<text text-anchor="middle" x="1435.5" y="-217.18" font-family="Times,serif" font-size="32.00"> laugh |</text>
<text text-anchor="middle" x="1435.5" y="-182.18" font-family="Times,serif" font-size="32.00"> brag |</text>
<text text-anchor="middle" x="1435.5" y="-147.18" font-family="Times,serif" font-size="32.00"> jog</text>
<text text-anchor="middle" x="1435.5" y="-112.18" font-family="Times,serif" font-size="32.00">0</text>
</g>
<!-- 1&#45;&gt;t -->
<g id="edge4" class="edge">
<title>1&#45;&gt;t</title>
<path fill="none" stroke="#000000" d="M1224.66,-1225.78C1164.94,-1225.78 1014.69,-1225.78 889,-1225.78 889,-1225.78 889,-1225.78 247.5,-1225.78 133.99,-1225.78 66.51,-1078.94 40.45,-1007.68"/>
<polygon fill="#000000" stroke="#000000" points="43.71,-1006.39 37.05,-998.15 37.11,-1008.75 43.71,-1006.39"/>
<text text-anchor="middle" x="562" y="-1270.18" font-family="Times,serif" font-size="32.00">ed</text>
<text text-anchor="middle" x="562" y="-1235.18" font-family="Times,serif" font-size="32.00">=&gt;1 =d +k t</text>
</g>
<!-- 1&#45;&gt;prog -->
<g id="edge13" class="edge">
<title>1&#45;&gt;prog</title>
<path fill="none" stroke="#000000" d="M1225.32,-1220.29C1204.5,-1214.43 1176.22,-1202.97 1161,-1181.78 1124.92,-1131.54 1185.91,-1088.33 1143,-1043.78 1117.99,-1017.81 1018.49,-1023.17 983,-1016.78 971.62,-1014.73 959.47,-1012.46 947.83,-1010.25"/>
<polygon fill="#000000" stroke="#000000" points="948.23,-1006.76 937.75,-1008.32 946.92,-1013.64 948.23,-1006.76"/>
<text text-anchor="middle" x="1063" y="-1088.18" font-family="Times,serif" font-size="32.00">ing</text>
<text text-anchor="middle" x="1063" y="-1053.18" font-family="Times,serif" font-size="32.00">=&gt;1 =d prog</text>
</g>
<!-- perf -->
<g id="node10" class="node">
<title>perf</title>
<ellipse fill="none" stroke="black" cx="562" cy="-974.78" rx="48.17" ry="30.31"/>
<text text-anchor="middle" x="562" y="-966.68" font-family="Times,serif" font-size="32.00">perf</text>
</g>
<!-- 1&#45;&gt;perf -->
<g id="edge8" class="edge">
<title>1&#45;&gt;perf</title>
<path fill="none" stroke="#000000" d="M1225.85,-1218.02C1176.17,-1202.77 1061.88,-1168.1 965,-1141.78 828.84,-1104.78 780.54,-1132.96 657,-1064.78 631.79,-1050.86 608.39,-1028.5 591.24,-1009.55"/>
<polygon fill="#000000" stroke="#000000" points="593.76,-1007.12 584.51,-1001.94 588.51,-1011.75 593.76,-1007.12"/>
<text text-anchor="middle" x="888" y="-1186.18" font-family="Times,serif" font-size="32.00">ed_1</text>
<text text-anchor="middle" x="888" y="-1151.18" font-family="Times,serif" font-size="32.00">=&gt;1 =d perf</text>
</g>
<!-- z2 -->
<g id="node7" class="node">
<title>z2</title>
<ellipse fill="none" stroke="black" stroke-dasharray="5,2" cx="1555" cy="-1225.78" rx="27" ry="18"/>
</g>
<!-- z2&#45;&gt;1 -->
<g id="edge5" class="edge">
<title>z2&#45;&gt;1</title>
<path fill="none" stroke="#000000" d="M1527.81,-1225.78C1474,-1225.78 1350.88,-1225.78 1289.37,-1225.78"/>
<polygon fill="#000000" stroke="#000000" points="1289.34,-1222.28 1279.34,-1225.78 1289.34,-1229.28 1289.34,-1222.28"/>
<text text-anchor="middle" x="1435.5" y="-1445.18" font-family="Times,serif" font-size="32.00">danc |</text>
<text text-anchor="middle" x="1435.5" y="-1410.18" font-family="Times,serif" font-size="32.00"> smil |</text>
<text text-anchor="middle" x="1435.5" y="-1375.18" font-family="Times,serif" font-size="32.00"> jump_1 |</text>
<text text-anchor="middle" x="1435.5" y="-1340.18" font-family="Times,serif" font-size="32.00"> laugh_1 |</text>
<text text-anchor="middle" x="1435.5" y="-1305.18" font-family="Times,serif" font-size="32.00"> bragg |</text>
<text text-anchor="middle" x="1435.5" y="-1270.18" font-family="Times,serif" font-size="32.00"> jogg</text>
<text text-anchor="middle" x="1435.5" y="-1235.18" font-family="Times,serif" font-size="32.00">1</text>
</g>
<!-- v&#45;&gt;t -->
<g id="edge14" class="edge">
<title>v&#45;&gt;t</title>
<path fill="none" stroke="#000000" d="M222.16,-841.67C185.43,-831.6 116.92,-819.31 72,-850.78 46.81,-868.43 36.01,-902.24 31.39,-929.32"/>
<polygon fill="#000000" stroke="#000000" points="27.91,-928.92 29.91,-939.32 34.84,-929.95 27.91,-928.92"/>
<text text-anchor="middle" x="119" y="-930.18" font-family="Times,serif" font-size="32.00">will |</text>
<text text-anchor="middle" x="119" y="-895.18" font-family="Times,serif" font-size="32.00"> would</text>
<text text-anchor="middle" x="119" y="-860.18" font-family="Times,serif" font-size="32.00">=v +k t</text>
</g>
<!-- prog&#45;&gt;t -->
<g id="edge17" class="edge">
<title>prog&#45;&gt;t</title>
<path fill="none" stroke="#000000" d="M859.37,-1024.69C841.81,-1039.4 817.77,-1056.49 793,-1064.78 664.61,-1107.72 312.96,-1121.98 184,-1080.78 132.55,-1064.34 83.57,-1024.06 54.65,-996.81"/>
<polygon fill="#000000" stroke="#000000" points="57.03,-994.25 47.39,-989.85 52.18,-999.3 57.03,-994.25"/>
<text text-anchor="middle" x="399" y="-1184.18" font-family="Times,serif" font-size="32.00">is |</text>
<text text-anchor="middle" x="399" y="-1149.18" font-family="Times,serif" font-size="32.00"> was</text>
<text text-anchor="middle" x="399" y="-1114.18" font-family="Times,serif" font-size="32.00">=prog +k t</text>
</g>
<!-- prog&#45;&gt;v -->
<g id="edge18" class="edge">
<title>prog&#45;&gt;v</title>
<path fill="none" stroke="#000000" d="M851.34,-977.07C793.89,-942.54 682.83,-877.75 639,-865.78 512.94,-831.34 355.46,-839.75 285.67,-845.96"/>
<polygon fill="#000000" stroke="#000000" points="285.26,-842.49 275.63,-846.9 285.91,-849.46 285.26,-842.49"/>
<text text-anchor="middle" x="562" y="-910.18" font-family="Times,serif" font-size="32.00">be</text>
<text text-anchor="middle" x="562" y="-875.18" font-family="Times,serif" font-size="32.00">=prog v</text>
</g>
<!-- prog&#45;&gt;perf -->
<g id="edge19" class="edge">
<title>prog&#45;&gt;perf</title>
<path fill="none" stroke="#000000" d="M836.02,-995C777.39,-990.66 681.39,-983.55 620.25,-979.02"/>
<polygon fill="#000000" stroke="#000000" points="620.23,-975.51 610,-978.26 619.72,-982.49 620.23,-975.51"/>
<text text-anchor="middle" x="725" y="-1035.18" font-family="Times,serif" font-size="32.00">been</text>
<text text-anchor="middle" x="725" y="-1000.18" font-family="Times,serif" font-size="32.00">=prog perf</text>
</g>
<!-- perf&#45;&gt;t -->
<g id="edge15" class="edge">
<title>perf&#45;&gt;t</title>
<path fill="none" stroke="#000000" d="M513.7,-974.33C408.7,-973.35 158.05,-971 64.25,-970.12"/>
<polygon fill="#000000" stroke="#000000" points="64.16,-966.62 54.13,-970.02 64.09,-973.62 64.16,-966.62"/>
<text text-anchor="middle" x="248.5" y="-1051.18" font-family="Times,serif" font-size="32.00">has |</text>
<text text-anchor="middle" x="248.5" y="-1016.18" font-family="Times,serif" font-size="32.00"> had</text>
<text text-anchor="middle" x="248.5" y="-981.18" font-family="Times,serif" font-size="32.00">=perf +k t</text>
</g>
<!-- perf&#45;&gt;v -->
<g id="edge16" class="edge">
<title>perf&#45;&gt;v</title>
<path fill="none" stroke="#000000" d="M523.31,-956.33C509.91,-948.36 495.55,-938.04 485,-925.78 472.29,-911 482.45,-897.67 467,-885.78 465.2,-884.4 346.84,-865.33 285.51,-855.52"/>
<polygon fill="#000000" stroke="#000000" points="285.89,-852.04 275.47,-853.91 284.79,-858.95 285.89,-852.04"/>
<text text-anchor="middle" x="399" y="-930.18" font-family="Times,serif" font-size="32.00">have</text>
<text text-anchor="middle" x="399" y="-895.18" font-family="Times,serif" font-size="32.00">=perf v</text>
</g>
</g>
</svg>
